# 3ds Max Wavefront OBJ Exporter v0.99 - (c)2007 guruware
# File Created: 07.12.2025 19:52:49

mtllib SM_FOL_Grass_Tall_02_A.mtl

#
# object SM_FOL_Grass_Tall_02_A
#

v  28.9925 16.1987 -0.0002
v  -23.7399 16.1987 -0.0002
v  -4.3479 -6.3039 -0.0002
v  4.5018 -6.3039 -0.0002
v  19.1467 48.3502 -0.0002
v  -22.1248 45.4643 -0.0002
v  -8.1548 101.4503 -2.3591
v  -12.8620 29.2778 -2.3591
v  1.8501 27.3521 -2.3591
v  2.8920 104.9624 -2.3591
v  -1.9869 -1.9098 -2.3591
v  1.1849 -1.9098 -2.3591
v  -4.5015 101.6111 1.0774
v  -1.4326 29.7814 8.9577
v  -1.4083 27.2084 -5.6551
v  -4.6928 104.6280 -10.1132
v  -0.1566 -1.8291 -0.5334
v  -0.1689 -1.9694 -3.7021
v  6.0889 68.7181 6.1132
v  -2.6137 20.8082 0.0879
v  6.7832 18.1277 2.5030
v  13.5327 70.0272 8.2843
v  2.0032 -1.1148 -0.2747
v  4.0616 -1.4145 0.2759
v  7.8486 68.3121 8.9990
v  2.7889 19.5109 9.4849
v  5.2555 18.5009 -0.2215
v  9.9916 70.8999 1.8892
v  2.8659 -1.3232 1.2388
v  3.4221 -1.2607 -0.8388
v  -1.4165 16.1987 -30.4087
v  -1.4165 16.1987 22.3237
v  -1.4165 -6.3039 2.9316
v  -1.4165 -6.3039 -5.9180
v  -1.4165 48.3502 -20.5629
v  -1.4165 45.4643 20.7086
# 36 vertices

vt 0.6884 0.4809 0.0000
vt 0.4227 0.4809 0.0000
vt 0.5204 0.3786 0.0000
vt 0.5650 0.3786 0.0000
vt 0.6388 0.6270 0.0000
vt 0.4309 0.6139 0.0000
vt 0.7572 0.8500 0.0000
vt 0.7341 0.5227 0.0000
vt 0.8082 0.5136 0.0000
vt 0.8114 0.8649 0.0000
vt 0.7887 0.3803 0.0000
vt 0.8047 0.3800 0.0000
# 12 texture coords

o SM_FOL_Grass_Tall_02_A
g SM_FOL_Grass_Tall_02_A
usemtl wire_174097139
s 1
f 1/1 2/2 3/3 4/4 
f 5/5 6/6 2/2 1/1 
f 7/7 8/8 9/9 10/10 
f 9/9 8/8 11/11 12/12 
f 13/7 14/8 15/9 16/10 
f 15/9 14/8 17/11 18/12 
f 19/7 20/8 21/9 22/10 
f 21/9 20/8 23/11 24/12 
f 25/7 26/8 27/9 28/10 
f 27/9 26/8 29/11 30/12 
f 31/1 32/2 33/3 34/4 
f 35/5 36/6 32/2 31/1 
# 12 polygons

