# Blender 5.0.1
# www.blender.org
mtllib cardboard_box_2_1.mtl
o cardboard_box_2_1
v -0.350029 0.712210 0.350251
v -0.360000 0.005400 -0.360000
v -0.356699 0.706181 -0.350056
v 0.359034 0.000000 0.352977
v 0.343455 0.710914 -0.343485
v -0.360000 0.007200 0.360000
v 0.346213 0.715687 0.345125
v 0.353176 0.003600 -0.355024
v -0.363600 0.360000 0.365400
v 0.360000 0.360000 0.362877
v -0.360000 0.360000 -0.360000
v 0.360000 0.360000 -0.354871
v -0.221328 0.721124 0.350000
v -0.350001 0.720362 0.313035
v 0.349996 0.721214 0.239163
v 0.323217 0.720583 0.350000
v 0.233171 0.720453 -0.350000
v 0.349990 0.720490 -0.219458
v -0.132212 0.720530 -0.350000
v -0.350006 0.720297 -0.219083
v 0.360000 0.000000 0.277789
v 0.303674 0.000000 0.360000
v -0.360000 0.000000 0.315634
v -0.255677 0.000000 0.360000
v -0.291679 0.000000 -0.360000
v -0.360000 0.000000 -0.146528
v 0.189690 0.000000 -0.360000
v 0.360000 0.000000 -0.256716
v -0.356400 0.526915 -0.352800
v -0.360000 0.249679 -0.360000
v 0.351651 0.235770 -0.352878
v 0.362499 0.235038 0.360000
v -0.352800 0.235668 0.356400
v -0.344978 0.726177 0.000159
v 0.340869 0.726183 0.001067
v 0.350043 0.007492 0.000517
v -0.352736 0.007492 -0.001567
v -0.360000 0.720000 -0.218681
v -0.367200 0.704422 -0.360000
v 0.233426 0.720000 -0.360000
v 0.352920 0.709200 -0.352899
v 0.360000 0.720000 0.239081
v 0.355617 0.712800 0.353268
v -0.221240 0.720000 0.360000
v -0.360000 0.709200 0.360000
v 0.324140 0.720000 0.360000
v -0.360000 0.720000 0.312870
v 0.350877 0.726187 0.001082
v -0.132177 0.720000 -0.360000
v 0.360000 0.720000 -0.219476
v -0.354980 0.726187 0.000193
v -0.347844 0.016398 0.313683
v -0.219171 0.016398 0.350648
v 0.325374 0.016398 0.350648
v 0.352153 0.016398 0.239811
v 0.235328 0.016398 -0.349352
v 0.352147 0.016398 -0.218810
v -0.347850 0.016398 -0.218435
v -0.130055 0.016398 -0.349352
v 0.343026 0.016398 0.001715
v -0.342821 0.016398 0.000807
v -0.354542 0.016398 -0.349408
v 0.345612 0.016398 -0.342837
v 0.348370 0.016398 0.345773
v -0.347872 0.016398 0.350899
v 0.233426 0.777505 -0.014763
v 0.352920 0.767315 -0.022715
v -0.221240 0.754761 0.020390
v -0.360000 0.756280 0.031082
v 0.324140 0.754761 0.020390
v 0.355617 0.749109 0.028465
v -0.132177 0.777505 -0.014763
v -0.367200 0.772509 -0.029518
v 0.233171 0.768179 -0.011126
v 0.343455 0.758949 -0.018072
v -0.221328 0.744702 0.020683
v -0.350029 0.746205 0.029474
v 0.323217 0.744778 0.021219
v 0.346213 0.740641 0.026753
v -0.132212 0.768204 -0.011053
v -0.356699 0.763654 -0.024663
v 0.346213 0.712474 0.343949
v 0.323217 0.718635 0.340821
v 0.324140 0.726077 0.348685
v -0.221240 0.727952 0.348571
v -0.350029 0.714784 0.348853
v -0.221328 0.718804 0.340307
v 0.355617 0.719307 0.349236
v -0.360000 0.717768 0.350259
v 0.233426 0.728208 -0.350975
v -0.132177 0.727773 -0.349057
v -0.356699 0.708669 -0.348646
v -0.367200 0.716925 -0.354459
v 0.233171 0.722745 -0.335699
v -0.132212 0.722778 -0.335630
v 0.343455 0.712797 -0.341571
v 0.352920 0.720593 -0.347119
v -0.132177 0.749380 -0.184747
v -0.356699 0.732903 -0.189491
v 0.233171 0.742203 -0.176250
v 0.343455 0.732614 -0.182659
v 0.352920 0.740695 -0.187754
v 0.233426 0.749598 -0.185706
v -0.367200 0.741458 -0.194826
v -0.132212 0.742232 -0.176179
v 0.323217 0.741386 0.181020
v 0.324140 0.750098 0.184537
v -0.350029 0.740173 0.189164
v 0.346213 0.736236 0.185351
v -0.221240 0.751035 0.184481
v -0.221328 0.741432 0.180495
v 0.355617 0.743887 0.188850
v -0.360000 0.746703 0.190671
vn -0.0788 -0.9966 -0.0252
vn -0.0317 -0.9994 -0.0101
vn -0.0064 -0.9998 0.0176
vn -0.0019 -0.0009 -1.0000
vn -0.0009 -0.0009 -1.0000
vn -0.0010 -0.0009 -1.0000
vn -0.9998 -0.0134 0.0156
vn -0.9996 -0.0178 0.0197
vn -0.9967 -0.0583 0.0572
vn 0.0023 0.0004 -1.0000
vn 0.0027 -0.0404 -0.9992
vn -0.0036 -0.0254 -0.9997
vn 0.9999 -0.0040 -0.0100
vn 0.9983 0.0205 -0.0546
vn 0.9995 0.0233 -0.0200
vn 0.0066 -0.0180 0.9998
vn 0.2154 0.0293 0.9761
vn 0.0941 0.0191 0.9954
vn 0.1258 -0.0315 0.9916
vn 0.0078 -0.0230 0.9997
vn 0.0516 -0.0090 0.9986
vn -0.0000 -0.0000 -1.0000
vn 0.0068 0.0011 -1.0000
vn 0.0037 0.0081 -1.0000
vn -0.0001 0.0009 1.0000
vn -0.0003 0.0009 1.0000
vn -0.9994 -0.0031 -0.0358
vn -1.0000 -0.0031 0.0021
vn -1.0000 -0.0031 0.0012
vn -1.0000 -0.0031 0.0042
vn -0.9986 -0.0030 0.0527
vn -1.0000 -0.0031 0.0057
vn -0.0589 0.0007 0.9983
vn -0.0286 0.0008 0.9996
vn -0.0295 0.0008 0.9996
vn -0.0000 -1.0000 -0.0000
vn -0.0003 -0.9999 -0.0129
vn -0.0260 -0.9985 0.0482
vn -0.0088 -0.9997 0.0207
vn -0.0680 -0.9848 0.1598
vn 0.0038 -1.0000 -0.0063
vn 0.0086 -1.0000 0.0049
vn 0.0232 -0.9990 -0.0382
vn -0.9995 0.0314 -0.0051
vn -0.9999 -0.0134 -0.0019
vn -0.9993 0.0331 -0.0150
vn 0.9976 0.0072 -0.0690
vn 0.9998 -0.0140 -0.0128
vn 0.9997 -0.0026 -0.0263
vn 0.9987 0.0030 -0.0512
vn 0.9993 0.0030 -0.0365
vn 0.9993 0.0030 -0.0371
vn -0.9999 -0.0150 -0.0027
vn -0.9999 0.0133 -0.0039
vn -0.9999 0.0110 -0.0049
vn -0.9998 -0.0199 0.0002
vn -0.9999 -0.0038 0.0122
vn -0.9997 -0.0247 0.0055
vn -1.0000 -0.0000 -0.0000
vn 0.0078 0.0169 -0.9998
vn 0.0092 -0.0074 -0.9999
vn 0.0119 0.0015 -0.9999
vn 0.0134 0.0123 -0.9998
vn 0.0302 0.0094 -0.9995
vn 0.9999 -0.0104 0.0001
vn 0.9998 -0.0145 -0.0104
vn 0.9999 -0.0048 -0.0165
vn 0.9998 -0.0151 0.0128
vn 0.0003 -0.0170 0.9999
vn -0.0013 -0.0195 0.9998
vn -0.0014 0.0104 0.9999
vn 0.0011 0.0157 0.9999
vn -0.0968 -0.0012 -0.9953
vn -0.2075 -0.0015 -0.9782
vn -0.1045 -0.0012 -0.9945
vn -0.9999 0.0103 0.0024
vn 0.0192 -0.0108 -0.9998
vn 0.0599 0.0069 -0.9982
vn 0.9997 0.0249 -0.0000
vn 0.9998 0.0097 0.0149
vn 0.9991 0.0135 0.0392
vn 0.0008 0.0128 0.9999
vn -0.0012 0.0155 0.9999
vn -1.0000 0.0021 0.0096
vn 1.0000 -0.0065 -0.0073
vn 0.0011 -1.0000 0.0064
vn 0.0011 -1.0000 0.0060
vn -0.0327 0.9972 -0.0666
vn -0.0504 0.9931 -0.1057
vn -0.0326 0.9973 -0.0665
vn -0.0389 -0.9895 0.1392
vn -0.0779 -0.9873 0.1384
vn -0.0746 -0.9849 0.1563
vn -0.0364 -0.9871 0.1559
vn 0.1210 0.9917 0.0424
vn 0.1810 0.9814 0.0635
vn 0.1208 0.9918 0.0423
vn 0.0157 -0.9892 0.1458
vn 0.0099 -0.9867 0.1623
vn -0.0126 0.9958 0.0911
vn 0.0930 0.9922 0.0835
vn 0.0827 0.9962 0.0277
vn -0.0033 0.9994 0.0331
vn -0.0594 0.9740 0.2188
vn -0.0388 0.9920 0.1197
vn -0.0387 0.9921 0.1192
vn 0.0423 0.9991 -0.0024
vn -0.6628 -0.7386 0.1234
vn -0.6651 -0.7359 0.1272
vn -0.6706 -0.7291 0.1365
vn -0.2056 -0.9745 -0.0902
vn -0.1015 -0.9917 -0.0785
vn -0.0890 -0.9958 -0.0224
vn -0.1929 -0.9809 -0.0240
vn 0.0725 0.9939 -0.0825
vn 0.0484 0.9974 -0.0543
vn 0.0484 0.9974 -0.0542
vn 0.0349 0.9889 -0.1447
vn -0.0135 0.9883 -0.1519
vn -0.0090 0.9858 -0.1679
vn 0.0348 0.9863 -0.1611
vn -0.0163 0.9999 -0.0041
vn -0.0000 1.0000 -0.0000
vn 1.0000 0.0030 -0.0034
vn 1.0000 0.0031 0.0092
vn 1.0000 0.0031 0.0086
vn 1.0000 0.0031 0.0011
vn -1.0000 -0.0031 -0.0015
vn 0.0461 0.3740 0.9263
vn 0.0918 0.3802 0.9203
vn 0.0459 0.3740 0.9263
vn -0.0360 -0.0131 -0.9993
vn -0.0723 0.0296 -0.9969
vn -0.0359 -0.0133 -0.9993
vn 0.1153 -0.0690 -0.9909
vn 0.1145 -0.0689 -0.9910
vn 0.2278 -0.0811 -0.9703
vn -0.0324 0.3812 0.9239
vn -0.0323 0.3812 0.9239
vn -0.0648 0.3950 0.9164
vn 0.6788 -0.7266 0.1062
vn 0.6760 -0.7298 0.1019
vn 0.6847 -0.7196 0.1156
vn -0.0266 0.9873 -0.1569
vn -0.0179 0.9846 -0.1738
vn 0.0325 -0.9879 0.1519
vn 0.0203 -0.9853 0.1694
vn 0.0017 -0.9965 -0.0836
vn -0.2885 -0.9526 -0.0960
vn -0.0029 -0.9996 -0.0291
vn -0.0014 -0.9997 -0.0249
vn 0.6464 -0.7593 -0.0758
vn 0.6485 -0.7586 -0.0626
vn 0.6542 -0.7560 -0.0228
vn -0.0280 0.9944 0.1018
vn -0.0076 0.9991 0.0411
vn 0.1850 0.9783 0.0933
vn 0.1794 0.9833 0.0300
vn 0.0706 0.9872 -0.1429
vn 0.0720 0.9845 -0.1598
vn -0.5438 -0.8336 -0.0969
vn -0.6429 -0.7651 -0.0374
vn -0.3671 -0.6577 -0.6578
vn 0.1127 0.8103 0.5750
vn 0.2277 0.7530 0.6174
vn 0.1071 0.9255 0.3633
vn -0.0558 0.7871 0.6142
vn -0.0276 0.8203 0.5713
vn -0.0252 0.9299 0.3669
vn -0.0532 0.9128 0.4050
vn 0.4880 -0.7377 -0.4666
vn 0.6015 -0.7654 -0.2289
vn 0.5714 -0.7627 -0.3030
vn -0.0905 -0.9418 0.3238
vn 0.0244 -0.9947 0.1002
vn 0.0145 -0.9996 -0.0246
vn -0.1084 -0.9903 0.0873
vn 0.0494 -0.9985 -0.0228
vn -0.1376 -0.9844 -0.1096
vn -0.1944 -0.8779 0.4376
vn 0.0827 0.6007 -0.7952
vn 0.0409 0.6962 -0.7167
vn 0.0404 0.6973 -0.7156
vn 0.0523 -0.9565 0.2870
vn 0.0262 -0.9746 0.2225
vn 0.0239 -0.9845 0.1739
vn 0.0483 -0.9753 0.2156
vn -0.0146 0.7088 -0.7052
vn -0.0265 0.6306 -0.7757
vn -0.0142 0.7108 -0.7033
vn 0.6454 -0.3830 0.6609
vn -0.6298 -0.3268 0.7047
vn -0.0425 -0.9784 0.2022
vn -0.0418 -0.9861 0.1610
vn -0.0860 -0.9648 0.2484
vn -0.0837 -0.9784 0.1889
vn 0.0693 0.9895 -0.1265
vn 0.0338 0.9912 -0.1280
vn -0.0183 0.9906 -0.1352
vn -0.0349 0.9894 -0.1409
vn 0.6699 -0.7367 0.0924
vn -0.6570 -0.7452 0.1140
vn -0.4435 -0.8836 -0.1503
vn 0.1890 0.9711 0.1454
vn -0.2148 -0.9664 -0.1412
vt 0.000084 1.000000
vt 0.031714 1.000000
vt 0.000084 0.703511
vt 0.995784 0.995510
vt 1.000000 0.812885
vt 0.666667 0.809824
vt 0.666667 0.992450
vt 0.421231 1.000000
vt 0.333417 0.803724
vt 0.333417 1.000000
vt 0.754564 1.000000
vt 0.666750 1.000000
vt 0.666750 0.683579
vt 0.500084 1.000000
vt 0.333417 1.000000
vt 0.333417 0.804827
vt 0.833416 0.000000
vt 1.000083 0.000000
vt 1.000083 0.049806
vt 0.677749 0.000000
vt 0.786563 0.000000
vt 0.677749 0.078230
vt 1.000083 1.000000
vt 0.885269 1.000000
vt 1.000083 0.905109
vt 0.998953 0.676107
vt 0.992303 0.988209
vt 0.672636 0.985210
vt 0.672636 0.673108
vt 0.991953 0.979186
vt 0.994519 0.831575
vt 0.667236 0.832478
vt 0.667236 0.980088
vt 0.994183 0.192688
vt 0.989736 0.019911
vt 0.667236 0.020814
vt 0.667236 0.193591
vt 0.994496 0.014790
vt 0.998917 0.168118
vt 0.672636 0.165119
vt 0.672636 0.011791
vt 0.307340 0.000000
vt 0.333417 0.114182
vt 0.333417 0.000000
vt 0.000084 0.061620
vt 0.048382 0.000000
vt 0.000084 0.000000
vt 0.254570 1.000000
vt 0.333417 0.856549
vt 0.666750 0.000000
vt 0.558819 0.000000
vt 0.666750 0.061620
vt 0.666750 1.000000
vt 0.558179 1.000000
vt 0.666750 0.856549
vt 0.990173 0.006216
vt 0.996726 0.190742
vt 0.669934 0.191656
vt 0.669934 0.007129
vt 0.500084 0.000000
vt 0.333417 0.065458
vt 0.333417 0.499731
vt 0.666750 0.703511
vt 0.551936 1.000000
vt 0.833417 1.000000
vt 0.833417 0.000000
vt 0.891512 0.000000
vt 1.000083 0.236542
vt 0.557936 0.000000
vt 0.666750 0.114182
vt 0.844416 0.000000
vt 0.844416 1.000000
vt 0.785680 1.000000
vt 0.677749 0.855107
vt 0.677749 1.000000
vt 0.999744 0.040182
vt 0.997428 0.007551
vt 0.666667 0.004490
vt 0.666667 0.037121
vt 0.833417 0.000000
vt 0.666750 0.175797
vt 0.666750 0.000000
vt 0.833417 1.000000
vt 0.333417 0.498497
vt 0.333417 0.167943
vt 0.833416 1.000000
vt 1.000083 0.807278
vt 0.666750 0.502176
vt 0.666750 0.499281
vt 0.000084 0.502176
vt 0.333417 0.499281
vt 0.004713 0.804270
vt 0.004570 0.986189
vt 0.000084 0.803724
vt 0.910466 0.842486
vt 0.912826 1.000000
vt 0.833333 1.000000
vt 0.828792 0.842486
vt 0.328798 0.167866
vt 0.328250 0.015059
vt 0.910447 0.320624
vt 0.828755 0.320624
vt 0.065837 0.258144
vt 0.317343 0.258144
vt 0.317343 0.495501
vt 0.065837 0.495501
vt 0.004700 0.013540
vt 0.004718 0.065241
vt 0.000084 0.065458
vt 0.328691 0.498518
vt 0.004570 0.986189
vt 0.913689 1.000000
vt 0.912477 0.966971
vt 0.830681 0.966971
vt 0.833025 1.000000
vt 0.328515 0.985360
vt 0.328783 0.804784
vt 0.278791 0.742298
vt 0.110190 0.742297
vt 0.110190 0.504499
vt 0.278791 0.504499
vt 0.004807 0.499779
vt 0.000084 0.499731
vt 0.994528 0.985360
vt 0.940713 0.986111
vt 0.994796 0.804784
vt 0.730297 0.013889
vt 0.670731 0.065241
vt 0.670714 0.013540
vt 0.994811 0.167866
vt 0.982179 0.015059
vt 0.994263 0.015059
vt 0.771312 0.986189
vt 0.670726 0.804270
vt 0.670583 0.986189
vt 0.994704 0.498518
vt 0.670820 0.499779
vt 0.999456 0.499630
vt 0.669934 0.500543
vt 0.996756 0.940438
vt 0.669934 0.941351
vt 0.992972 0.992871
vt 0.669934 0.993784
vt 0.996827 0.499893
vt 0.667236 0.500796
vt 0.274700 0.986111
vt 0.274818 1.000000
vt 0.064284 0.013889
vt 0.064325 0.000000
vt 0.316165 0.015059
vt 0.316815 0.000000
vt 0.105299 0.986189
vt 0.105557 1.000000
vt 0.328515 0.985360
vt 0.001807 0.753495
vt 0.001807 0.526050
vt 0.913996 0.000000
vt 0.835586 0.000000
vt 0.912343 0.184851
vt 0.914550 0.000000
vt 0.834689 0.000000
vt 0.830421 0.184851
vt 0.328250 0.015059
vt 0.001846 0.250416
vt 0.001846 0.480560
vt 0.331859 0.252992
vt 0.331859 0.485540
vt 0.333897 0.750061
vt 0.333897 0.519440
vt 0.004700 0.013540
vt 0.000084 0.000000
vt 0.317343 0.003814
vt 0.331859 0.003814
vt 0.331859 0.020443
vt 0.317343 0.020787
vt 0.001846 0.003814
vt 0.065837 0.003814
vt 0.065837 0.020787
vt 0.001846 0.020271
vt 1.000122 0.966971
vt 1.000122 0.184851
vt 0.994264 0.184851
vt 0.994273 0.966971
vt 1.000122 0.000000
vt 0.994411 0.000000
vt 1.000122 1.000000
vt 0.994354 1.000000
vt 0.333897 0.999491
vt 0.278791 0.999491
vt 0.278791 0.980096
vt 0.333897 0.980682
vt 0.998801 0.000000
vt 0.998801 0.320624
vt 0.992139 0.320624
vt 0.992406 0.000000
vt 0.110190 0.999491
vt 0.001807 0.999491
vt 0.001807 0.980941
vt 0.110190 0.980096
vt 0.328515 0.985360
vt 0.998801 0.842486
vt 0.992140 0.842486
vt 0.998801 1.000000
vt 0.992318 1.000000
s 1
usemtl cardboard_box_2
f 2/1/1 25/2/2 26/3/3
f 1/4/4 13/5/5 53/6/6 65/7/4
f 29/8/7 38/9/8 39/10/9
f 29/11/10 39/12/11 49/13/12
f 12/14/13 41/15/14 50/16/15
f 10/17/16 43/18/17 46/19/18
f 4/20/19 32/21/20 22/22/21
f 2/23/22 30/24/23 25/25/24
f 19/26/25 3/27/26 62/28/26 59/29/25
f 7/30/27 15/31/28 55/32/29 64/33/27
f 18/34/30 5/35/31 63/36/31 57/37/32
f 5/38/33 17/39/34 56/40/35 63/41/33
f 22/42/36 21/43/37 4/44/36
f 23/45/38 24/46/39 6/47/40
f 26/3/3 25/2/2 27/48/41 28/49/42
f 28/49/42 27/48/41 8/15/43
f 6/50/44 33/51/45 23/52/46
f 8/53/47 31/54/48 28/55/49
f 17/39/34 19/26/25 59/29/25 56/40/35
f 3/56/50 20/57/51 58/58/52 62/59/50
f 9/60/53 47/61/54 51/62/55 11/14/56
f 26/63/57 30/64/58 2/53/59
f 30/24/23 11/65/60 12/66/61 31/67/62
f 27/68/63 31/67/62 8/18/64
f 31/54/48 12/14/13 10/60/65 32/69/66
f 21/70/67 32/69/66 4/50/68
f 32/21/20 10/71/16 9/72/69 33/73/70
f 24/74/71 33/73/70 6/75/72
f 16/76/73 7/77/74 64/78/74 54/79/75
f 9/60/53 45/44/76 47/61/54
f 33/51/45 9/60/53 11/14/56 30/64/58
f 12/80/61 40/81/77 41/82/78
f 11/83/60 29/11/10 12/80/61
f 29/11/10 49/13/12 40/81/77 12/80/61
f 12/14/13 50/16/15 48/84/79 42/85/80
f 10/60/65 12/14/13 42/85/80
f 43/44/81 10/60/65 42/85/80
f 9/86/69 10/17/16 46/19/18 44/87/82
f 45/23/83 9/86/69 44/87/82
f 11/14/56 51/62/55 38/9/8 29/8/7
f 33/51/45 30/64/58 26/63/57 37/88/84
f 22/22/21 32/21/20 33/73/70 24/74/71
f 25/25/24 30/24/23 31/67/62 27/68/63
f 36/89/85 32/69/66 21/70/67
f 23/45/38 21/43/37 22/42/36 24/46/39
f 23/52/46 33/51/45 37/88/84
f 37/90/86 36/91/87 21/43/37 23/45/38
f 37/90/86 26/3/3 28/49/42 36/91/87
f 28/55/49 31/54/48 32/69/66 36/89/85
f 20/92/88 3/93/89 39/1/89 38/94/90
f 100/95/91 101/96/92 75/97/93 74/98/94
f 15/99/95 7/100/96 43/44/96 42/85/97
f 105/101/98 100/95/91 74/98/94 80/102/99
f 110/103/100 107/104/101 70/105/102 68/106/103
f 1/107/104 14/108/105 47/109/106 45/47/104
f 35/110/107 15/99/95 42/85/97 48/84/107
f 104/1/108 99/111/109 81/93/110 73/1/110
f 109/112/111 106/113/112 78/114/113 79/115/114
f 5/116/115 18/117/116 50/16/117 41/15/115
f 103/118/118 98/119/119 72/120/120 66/121/121
f 34/122/122 20/92/88 38/94/90 51/123/122
f 14/108/105 34/122/122 51/123/122 47/109/106
f 18/117/116 35/110/107 48/84/107 50/16/117
f 63/124/123 56/125/123 57/126/123
f 53/127/123 52/128/123 65/129/123
f 55/130/123 54/131/123 64/132/123
f 57/126/123 56/125/123 59/133/123 58/134/123
f 58/134/123 59/133/123 62/135/123
f 55/130/123 60/136/123 61/137/123 52/128/123
f 54/131/123 55/130/123 52/128/123 53/127/123
f 61/137/123 60/136/123 57/126/123 58/134/123
f 20/57/51 34/138/124 61/139/124 58/58/52
f 13/5/5 16/76/73 54/79/75 53/6/6
f 34/138/124 14/140/125 52/141/126 61/139/124
f 14/140/125 1/142/127 65/143/127 52/141/126
f 35/144/128 18/34/30 57/37/32 60/145/128
f 15/31/28 35/144/128 60/145/128 55/32/29
f 74/146/129 75/116/130 67/15/130 66/147/131
f 76/148/132 77/107/133 69/47/133 68/149/134
f 78/150/135 76/148/132 68/149/134 70/151/136
f 79/100/137 78/150/135 70/151/136 71/44/137
f 80/152/138 74/146/129 66/147/131 72/153/139
f 81/93/140 80/152/138 72/153/139 73/1/140
f 101/154/141 102/15/142 67/15/143 75/116/143
f 98/119/119 104/155/144 73/156/145 72/120/120
f 99/157/146 105/101/98 80/102/99 81/158/147
f 111/159/148 108/160/149 77/161/150 76/162/151
f 106/113/112 111/159/148 76/162/151 78/114/113
f 112/44/152 109/163/153 79/100/154 71/44/154
f 113/164/155 110/103/100 68/106/103 69/165/156
f 107/104/101 112/166/157 71/167/158 70/105/102
f 102/168/159 103/118/118 66/121/121 67/169/160
f 108/170/149 113/47/161 69/47/162 77/107/162
f 1/107/163 45/47/163 89/171/163 86/107/163
f 46/172/164 43/173/165 88/174/165 84/175/166
f 45/176/167 44/177/168 85/178/169 89/179/170
f 43/44/171 7/100/171 82/163/172 88/44/173
f 16/180/174 13/181/175 87/182/176 83/183/177
f 13/181/175 1/184/178 86/185/179 87/182/176
f 7/186/180 16/180/174 83/183/177 82/187/180
f 44/177/168 46/172/164 84/175/166 85/178/169
f 41/188/181 40/189/182 90/190/183 97/191/181
f 3/192/184 19/193/185 95/194/186 92/195/187
f 49/196/188 39/197/189 93/198/189 91/199/190
f 5/116/191 41/15/191 97/15/191 96/200/191
f 40/189/182 49/196/188 91/199/190 90/190/183
f 39/1/192 3/93/192 92/93/192 93/1/192
f 19/193/185 17/201/193 94/202/194 95/194/186
f 17/201/193 5/203/195 96/204/196 94/202/194
f 97/191/197 90/190/198 103/118/118 102/168/159
f 92/195/187 95/194/186 105/101/98 99/157/146
f 91/199/199 93/198/200 104/155/144 98/119/119
f 96/200/201 97/15/201 102/15/142 101/154/141
f 90/190/198 91/199/199 98/119/119 103/118/118
f 93/1/202 92/93/202 99/111/109 104/1/108
f 95/194/186 94/202/194 100/95/91 105/101/98
f 94/202/194 96/204/196 101/96/92 100/95/91
f 86/107/179 89/171/203 113/47/161 108/170/149
f 84/175/166 88/174/204 112/166/157 107/104/101
f 89/179/170 85/178/169 110/103/100 113/164/155
f 88/44/173 82/163/172 109/163/153 112/44/152
f 83/183/177 87/182/176 111/159/148 106/113/112
f 87/182/176 86/185/179 108/160/149 111/159/148
f 82/187/205 83/183/177 106/113/112 109/112/111
f 85/178/169 84/175/166 107/104/101 110/103/100
