# Blender 5.0.1
# www.blender.org
mtllib carpet_mp_1.mtl
o carpet_mp_1
v -1.613924 0.000000 1.020000
v 1.613924 0.000000 1.020000
v -1.613924 0.000000 -1.020000
v 1.613924 0.000000 -1.020000
v -1.481987 0.010200 -0.933147
v -1.613924 0.000000 -1.020000
v -1.613924 0.000000 1.020000
v -1.481987 0.010200 0.933147
v 1.613924 0.000000 1.020000
v 1.481987 0.010200 0.933147
v 1.613924 0.000000 -1.020000
v 1.481987 0.010200 -0.933147
vn -0.0000 1.0000 -0.0000
vn -0.0771 0.9970 -0.0000
vn -0.0000 0.9932 0.1166
vn 0.0771 0.9970 -0.0000
vn -0.0000 0.9932 -0.1166
vt 1.000000 1.000000
vt 0.000000 1.000000
vt 0.040875 0.042575
vt 0.959125 0.042575
vt 0.959125 0.957425
vt 0.040875 0.957425
vt 0.000000 0.000000
vt 1.000000 0.000000
s 0
usemtl carpet_mp_1
f 4/1/1 3/2/1 6/2/1 11/1/1
f 8/3/1 10/4/1 12/5/1 5/6/1
f 1/7/1 2/8/1 9/8/1 7/7/1
f 2/8/1 4/1/1 11/1/1 9/8/1
f 6/2/2 7/7/2 8/3/2 5/6/2
f 7/7/3 9/8/3 10/4/3 8/3/3
f 9/8/4 11/1/4 12/5/4 10/4/4
f 11/1/5 6/2/5 5/6/5 12/5/5
f 3/2/1 1/7/1 7/7/1 6/2/1
