# Blender 5.0.1
# www.blender.org
mtllib metal_barrel_mp_2.mtl
o metal_barrel_mp_2
v 0.000000 0.000000 -0.360000
v 0.137766 0.000000 -0.332597
v 0.137766 1.080000 -0.332597
v 0.000000 1.080000 -0.360000
v 0.254558 0.000000 -0.254558
v 0.254558 1.080000 -0.254558
v 0.332597 0.000000 -0.137766
v 0.332597 1.080000 -0.137766
v 0.360000 0.000000 0.000000
v 0.360000 1.080000 0.000000
v 0.332597 0.000000 0.137766
v 0.332597 1.080000 0.137766
v 0.254558 0.000000 0.254558
v 0.254558 1.080000 0.254558
v 0.137766 0.000000 0.332597
v 0.137766 1.080000 0.332597
v 0.000000 0.000000 0.360000
v 0.000000 1.080000 0.360000
v -0.137766 0.000000 0.332597
v -0.137766 1.080000 0.332597
v -0.254558 0.000000 0.254558
v -0.254558 1.080000 0.254558
v -0.332597 0.000000 0.137766
v -0.332597 1.080000 0.137766
v -0.360000 0.000000 0.000000
v -0.360000 1.080000 0.000000
v -0.332597 0.000000 -0.137766
v -0.332597 1.080000 -0.137766
v -0.254558 0.000000 -0.254558
v -0.254558 1.080000 -0.254558
v -0.137766 0.000000 -0.332597
v -0.137766 1.080000 -0.332597
v 0.000000 0.000000 -0.341647
v 0.130743 0.000000 -0.315641
v 0.130743 1.080000 -0.315641
v 0.000000 1.080000 -0.341647
v 0.241581 0.000000 -0.241581
v 0.241581 1.080000 -0.241581
v 0.315641 0.000000 -0.130743
v 0.315641 1.080000 -0.130743
v 0.341647 0.000000 0.000000
v 0.341647 1.080000 0.000000
v 0.315641 0.000000 0.130743
v 0.315641 1.080000 0.130743
v 0.241581 0.000000 0.241581
v 0.241581 1.080000 0.241581
v 0.130743 0.000000 0.315641
v 0.130743 1.080000 0.315641
v 0.000000 0.000000 0.341647
v 0.000000 1.080000 0.341647
v -0.130743 0.000000 0.315641
v -0.130743 1.080000 0.315641
v -0.241581 0.000000 0.241581
v -0.241581 1.080000 0.241581
v -0.315641 0.000000 0.130743
v -0.315641 1.080000 0.130743
v -0.341647 0.000000 0.000000
v -0.341647 1.080000 0.000000
v -0.315641 0.000000 -0.130743
v -0.315641 1.080000 -0.130743
v -0.241581 0.000000 -0.241581
v -0.241581 1.080000 -0.241581
v -0.130743 0.000000 -0.315641
v -0.130743 1.080000 -0.315641
v -0.000000 1.072800 -0.341621
v 0.241581 1.072800 -0.241554
v 0.315641 1.072800 -0.130716
v 0.341647 1.072800 0.000027
v 0.315641 1.072800 0.130770
v 0.241581 1.072800 0.241608
v 0.130743 1.072800 0.315668
v -0.000000 1.072800 0.341674
v -0.130743 1.072800 0.315668
v -0.241581 1.072800 0.241608
v -0.315641 1.072800 0.130770
v -0.341647 1.072800 0.000027
v -0.315641 1.072800 -0.130716
v -0.241581 1.072800 -0.241554
v -0.130743 1.072800 -0.315614
v 0.130743 1.072800 -0.315614
v 0.000000 0.007200 -0.341647
v 0.130743 0.007200 -0.315641
v 0.241581 0.007200 -0.241581
v 0.315641 0.007200 0.130743
v 0.000000 0.007200 0.341647
v -0.130743 0.007200 -0.315641
v 0.315641 0.007200 -0.130743
v 0.341647 0.007200 0.000000
v 0.241581 0.007200 0.241581
v 0.130743 0.007200 0.315641
v -0.130743 0.007200 0.315641
v -0.241581 0.007200 0.241581
v -0.315641 0.007200 0.130743
v -0.341647 0.007200 0.000000
v -0.315641 0.007200 -0.130743
v -0.241581 0.007200 -0.241581
v 0.137766 0.343936 -0.332597
v 0.143277 0.380222 -0.345900
v 0.137766 0.416508 -0.332597
v 0.137766 0.668712 -0.332597
v 0.143277 0.704998 -0.345900
v 0.137766 0.741284 -0.332597
v 0.332597 0.343936 -0.137766
v 0.345901 0.380222 -0.143277
v 0.332597 0.416508 -0.137766
v 0.332597 0.668712 -0.137766
v 0.345901 0.704998 -0.143277
v 0.332597 0.741284 -0.137766
v 0.332597 0.343936 0.137766
v 0.345901 0.380222 0.143277
v 0.332597 0.416508 0.137766
v 0.332597 0.668712 0.137766
v 0.345901 0.704998 0.143277
v 0.332597 0.741284 0.137766
v 0.137766 0.343936 0.332597
v 0.143277 0.380222 0.345901
v 0.137766 0.416508 0.332597
v 0.137766 0.668712 0.332597
v 0.143277 0.704998 0.345901
v 0.137766 0.741284 0.332597
v -0.137766 0.343936 0.332597
v -0.143277 0.380222 0.345901
v -0.137766 0.416508 0.332597
v -0.137766 0.668712 0.332597
v -0.143277 0.704998 0.345901
v -0.137766 0.741284 0.332597
v -0.332597 0.343936 0.137766
v -0.345900 0.380222 0.143277
v -0.332597 0.416508 0.137766
v -0.332597 0.668712 0.137766
v -0.345900 0.704998 0.143277
v -0.332597 0.741284 0.137766
v -0.332597 0.343936 -0.137766
v -0.345900 0.380222 -0.143277
v -0.332597 0.416508 -0.137766
v -0.332597 0.668712 -0.137766
v -0.345900 0.704998 -0.143277
v -0.332597 0.741284 -0.137766
v -0.137766 0.343936 -0.332597
v -0.143277 0.380222 -0.345900
v -0.137766 0.416508 -0.332597
v -0.137766 0.668712 -0.332597
v -0.143277 0.704998 -0.345900
v -0.137766 0.741284 -0.332597
v 0.000000 0.343936 -0.360000
v 0.000000 0.380222 -0.374400
v 0.000000 0.416508 -0.360000
v 0.000000 0.668712 -0.360000
v 0.000000 0.704998 -0.374400
v 0.000000 0.741284 -0.360000
v 0.254558 0.343936 -0.254558
v 0.264741 0.380222 -0.264741
v 0.254558 0.416508 -0.254558
v 0.254558 0.668712 -0.254558
v 0.264741 0.704998 -0.264741
v 0.254558 0.741284 -0.254558
v 0.360000 0.343936 -0.000000
v 0.374400 0.380222 0.000000
v 0.360000 0.416508 -0.000000
v 0.360000 0.668712 0.000000
v 0.374400 0.704998 0.000000
v 0.360000 0.741284 0.000000
v 0.254558 0.343936 0.254558
v 0.264741 0.380222 0.264741
v 0.254558 0.416508 0.254558
v 0.254558 0.668712 0.254558
v 0.264741 0.704998 0.264741
v 0.254558 0.741284 0.254558
v 0.000000 0.343936 0.360000
v 0.000000 0.380222 0.374400
v 0.000000 0.416508 0.360000
v 0.000000 0.668712 0.360000
v 0.000000 0.704998 0.374400
v 0.000000 0.741284 0.360000
v -0.254558 0.343936 0.254558
v -0.264741 0.380222 0.264741
v -0.254558 0.416508 0.254558
v -0.254558 0.668712 0.254558
v -0.264741 0.704998 0.264741
v -0.254558 0.741284 0.254558
v -0.360000 0.343936 -0.000000
v -0.374400 0.380222 0.000000
v -0.360000 0.416508 -0.000000
v -0.360000 0.668712 0.000000
v -0.374400 0.704998 0.000000
v -0.360000 0.741284 0.000000
v -0.254558 0.343936 -0.254558
v -0.264741 0.380222 -0.264741
v -0.254558 0.416508 -0.254558
v -0.254558 0.668712 -0.254558
v -0.264741 0.704998 -0.264741
v -0.254558 0.741284 -0.254558
v -0.000000 1.072800 0.000027
v 0.000000 0.007200 0.000000
vn 0.9239 -0.0000 0.3827
vn 0.7071 -0.0000 0.7071
vn -0.0000 1.0000 -0.0000
vn -0.0000 -1.0000 -0.0000
vn -0.0000 -0.0000 -1.0000
vn -0.3827 -0.0000 -0.9239
vn 0.3827 -0.0000 0.9239
vn -0.7071 -0.0000 -0.7071
vn -0.9239 -0.0000 -0.3827
vn -0.3827 -0.0000 0.9239
vn -0.0000 -0.0000 1.0000
vn 0.3827 -0.0000 -0.9239
vn -0.7071 -0.0000 0.7071
vn -0.9239 -0.0000 0.3827
vn -1.0000 -0.0000 -0.0000
vn 0.9240 -0.0014 -0.3823
vn 0.9237 -0.0014 -0.3831
vn 1.0000 -0.0000 -0.0005
vn 1.0000 -0.0000 0.0005
vn -0.3828 -0.0034 -0.9238
vn -0.7073 -0.0026 -0.7069
vn -0.7069 -0.0026 -0.7073
vn -0.3825 -0.0034 -0.9239
vn 0.7073 -0.0026 -0.7069
vn 0.7069 -0.0026 -0.7073
vn -0.8587 0.3689 -0.3557
vn -0.9295 0.3689 -0.0000
vn -0.7069 0.0026 0.7073
vn -0.3825 0.0034 0.9239
vn -0.3828 0.0034 0.9238
vn -0.7073 0.0026 0.7069
vn 0.6572 0.3689 -0.6572
vn 0.3557 0.3689 -0.8587
vn 0.3828 -0.0034 -0.9238
vn 0.3825 -0.0034 -0.9239
vn -1.0000 -0.0000 0.0005
vn -0.9237 0.0014 0.3831
vn -0.9240 0.0014 0.3823
vn -1.0000 -0.0000 -0.0005
vn -0.0000 0.0037 1.0000
vn -0.9240 -0.0014 -0.3823
vn -0.9237 -0.0014 -0.3831
vn -0.0000 -0.0037 -1.0000
vn 0.3825 0.0034 0.9239
vn 0.3828 0.0034 0.9238
vn 0.9240 0.0014 0.3823
vn 0.9237 0.0014 0.3831
vn 0.7073 0.0026 0.7069
vn 0.7069 0.0026 0.7073
vn 0.7071 -0.0000 -0.7071
vn 1.0000 -0.0000 -0.0000
vn 0.9239 -0.0000 -0.3827
vn 0.3557 -0.3689 -0.8587
vn -0.0000 -0.3689 -0.9295
vn 0.6572 -0.3689 0.6572
vn 0.8587 -0.3689 0.3557
vn -0.3557 -0.3689 -0.8587
vn -0.3557 0.3689 -0.8587
vn -0.6572 0.3689 -0.6572
vn -0.0000 0.3689 -0.9295
vn -0.6572 -0.3689 -0.6572
vn -0.8587 -0.3689 -0.3557
vn 0.3557 -0.3689 0.8587
vn -0.9295 -0.3689 -0.0000
vn -0.8587 -0.3689 0.3557
vn -0.6572 -0.3689 0.6572
vn -0.8587 0.3689 0.3557
vn -0.6572 0.3689 0.6572
vn -0.0000 -0.3689 0.9295
vn 0.6572 -0.3689 -0.6572
vn 0.8587 0.3689 -0.3557
vn -0.3557 -0.3689 0.8587
vn -0.3557 0.3689 0.8587
vn 0.3557 0.3689 0.8587
vn 0.6572 0.3689 0.6572
vn -0.0000 0.3689 0.9295
vn 0.8587 -0.3689 -0.3557
vn 0.9295 0.3689 -0.0000
vn 0.9295 -0.3689 -0.0000
vn 0.8587 0.3689 0.3557
vt 0.695312 0.760417
vt 0.630208 0.760417
vt 0.630208 0.617188
vt 0.695312 0.617188
vt 0.505347 0.023703
vt 0.562865 0.062135
vt 0.556474 0.068526
vt 0.501888 0.032053
vt 0.562865 0.312865
vt 0.505347 0.351297
vt 0.501888 0.342947
vt 0.556474 0.306474
vt 0.373112 0.342947
vt 0.437500 0.355754
vt 0.437500 0.364793
vt 0.369653 0.351297
vt 0.812500 0.355754
vt 0.812500 0.364793
vt 0.880347 0.351297
vt 0.876888 0.342947
vt 0.980754 0.187500
vt 0.989793 0.187500
vt 0.976297 0.119653
vt 0.967947 0.123112
vt 0.437500 0.019245
vt 0.437500 0.010207
vt 0.312135 0.312865
vt 0.318526 0.306474
vt 0.937865 0.062135
vt 0.931474 0.068526
vt 0.693526 0.068526
vt 0.748112 0.032053
vt 0.744653 0.023703
vt 0.687135 0.062135
vt 0.648703 0.119653
vt 0.657053 0.123112
vt 0.937865 0.312865
vt 0.976297 0.255347
vt 0.967947 0.251888
vt 0.931474 0.306474
vt 0.635207 0.187500
vt 0.644245 0.187500
vt 0.657053 0.251888
vt 0.648703 0.255347
vt 0.687135 0.312865
vt 0.693526 0.306474
vt 0.592947 0.123112
vt 0.601297 0.119653
vt 0.282053 0.251888
vt 0.273703 0.255347
vt 0.601297 0.255347
vt 0.592947 0.251888
vt 0.605755 0.187500
vt 0.614793 0.187500
vt 0.312135 0.062135
vt 0.369653 0.023703
vt 0.373112 0.032053
vt 0.318526 0.068526
vt 0.260207 0.187500
vt 0.269245 0.187500
vt 0.748112 0.342947
vt 0.744653 0.351297
vt 0.437500 0.187500
vt 0.282053 0.123112
vt 0.880347 0.023703
vt 0.876888 0.032053
vt 0.273703 0.119653
vt 0.812500 0.010207
vt 0.812500 0.019245
vt 0.570312 0.572917
vt 0.570312 0.375000
vt 0.630208 0.375000
vt 0.630208 0.572917
vt 0.000000 1.000000
vt 0.000000 0.804688
vt 0.065104 0.804688
vt 0.065104 1.000000
vt 1.000000 1.000000
vt 0.945312 1.000000
vt 0.945312 0.804688
vt 1.000000 0.804688
vt 0.377604 0.760417
vt 0.317708 0.760417
vt 0.317708 0.617188
vt 0.377604 0.617188
vt 0.502604 0.572917
vt 0.502604 0.375000
vt 0.065104 0.760417
vt 0.065104 0.617188
vt 0.125000 0.617188
vt 0.125000 0.760417
vt 0.190104 0.804688
vt 0.190104 0.783854
vt 0.250000 0.783854
vt 0.250000 0.804688
vt 0.888021 0.617188
vt 0.888021 0.593750
vt 0.945312 0.593750
vt 0.945312 0.617188
vt 0.812500 0.187500
vt 0.888021 1.000000
vt 0.888021 0.804688
vt 0.822917 1.000000
vt 0.822917 0.804688
vt 0.695312 0.375000
vt 0.695312 0.572917
vt 0.317708 1.000000
vt 0.317708 0.804688
vt 0.377604 0.804688
vt 0.377604 1.000000
vt 0.190104 1.000000
vt 0.250000 1.000000
vt 0.888021 0.572917
vt 0.888021 0.375000
vt 0.945312 0.375000
vt 0.945312 0.572917
vt 0.695312 0.804688
vt 0.695312 1.000000
vt 0.630208 1.000000
vt 0.630208 0.804688
vt 0.125000 0.804688
vt 0.125000 1.000000
vt 0.190104 0.572917
vt 0.190104 0.375000
vt 0.250000 0.375000
vt 0.250000 0.572917
vt 0.190104 0.760417
vt 0.190104 0.617188
vt 0.822917 0.572917
vt 0.822917 0.375000
vt 0.502604 1.000000
vt 0.502604 0.804688
vt 0.570312 0.804688
vt 0.570312 1.000000
vt 0.125000 0.572917
vt 0.125000 0.375000
vt 0.755208 0.572917
vt 0.755208 0.375000
vt 1.000000 0.572917
vt 1.000000 0.593750
vt 0.630208 0.593750
vt 0.695312 0.593750
vt 0.000000 0.593750
vt 0.000000 0.572917
vt 0.065104 0.572917
vt 0.065104 0.593750
vt 0.125000 0.593750
vt 0.317708 0.572917
vt 0.317708 0.375000
vt 0.377604 0.375000
vt 0.377604 0.572917
vt 0.000000 0.617188
vt 0.190104 0.593750
vt 0.755208 0.760417
vt 0.755208 0.617188
vt 0.822917 0.617188
vt 0.822917 0.760417
vt 1.000000 0.783854
vt 0.945312 0.783854
vt 0.630208 0.783854
vt 0.570312 0.783854
vt 0.570312 0.760417
vt 0.445312 0.375000
vt 0.445312 0.572917
vt 0.065104 0.783854
vt -0.000000 0.783854
vt 0.250000 0.760417
vt 0.317708 0.783854
vt 1.000000 0.617188
vt 0.377604 0.783854
vt 0.000000 0.375000
vt 0.065104 0.375000
vt 0.888021 0.783854
vt 0.250000 0.617188
vt 0.945312 0.760417
vt 1.000000 0.760417
vt 0.502604 0.783854
vt 0.502604 0.760417
vt 0.445312 1.000000
vt 0.445312 0.804688
vt 0.317708 0.593750
vt 0.377604 0.593750
vt 0.000000 0.760417
vt 0.250000 0.593750
vt 0.822917 0.783854
vt 0.445312 0.593750
vt 0.445312 0.783854
vt 0.445312 0.760417
vt 0.445312 0.617188
vt 0.502604 0.617188
vt 0.502604 0.593750
vt 0.822917 0.593750
vt 0.755208 0.593750
vt 0.888021 0.760417
vt 0.695312 0.783854
vt 0.755208 0.783854
vt 0.570312 0.593750
vt 0.570312 0.617188
vt 0.755208 0.804688
vt 0.755208 1.000000
vt 0.125000 0.783854
vt 1.000000 0.375000
s 1
usemtl metal_barrel_mp_2
f 112/1/1 166/2/2 165/3/2 111/4/1
f 16/5/3 14/6/3 46/7/3 48/8/3
f 6/9/3 3/10/3 35/11/3 38/12/3
f 64/13/3 36/14/3 4/15/3 32/16/3
f 33/17/4 1/18/4 2/19/4 34/20/4
f 41/21/4 9/22/4 11/23/4 43/24/4
f 48/8/3 50/25/3 18/26/3 16/5/3
f 32/16/3 30/27/3 62/28/3 64/13/3
f 11/23/4 13/29/4 45/30/4 43/24/4
f 53/31/4 51/32/4 19/33/4 21/34/4
f 23/35/4 55/36/4 53/31/4 21/34/4
f 5/37/4 7/38/4 39/39/4 37/40/4
f 9/22/4 41/21/4 39/39/4 7/38/4
f 55/36/4 23/35/4 25/41/4 57/42/4
f 59/43/4 27/44/4 29/45/4 61/46/4
f 44/47/3 46/7/3 14/6/3 12/48/3
f 60/49/3 62/28/3 30/27/3 28/50/3
f 8/51/3 40/52/3 42/53/3 10/54/3
f 22/55/3 20/56/3 52/57/3 54/58/3
f 5/37/4 37/40/4 34/20/4 2/19/4
f 60/49/3 28/50/3 26/59/3 58/60/3
f 1/18/4 33/17/4 63/61/4 31/62/4
f 193/63/3 76/60/3 75/64/3
f 45/30/4 13/29/4 15/65/4 47/66/4
f 22/55/3 54/58/3 56/64/3 24/67/3
f 27/44/4 59/43/4 57/42/4 25/41/4
f 26/59/3 24/67/3 56/64/3 58/60/3
f 17/68/4 19/33/4 51/32/4 49/69/4
f 47/66/4 15/65/4 17/68/4 49/69/4
f 35/11/3 3/10/3 4/15/3 36/14/3
f 44/47/3 12/48/3 10/54/3 42/53/3
f 18/26/3 50/25/3 52/57/3 20/56/3
f 85/69/5 90/66/6 47/66/6 49/69/5
f 115/70/7 15/71/7 13/72/2 163/73/2
f 4/74/5 150/75/5 144/76/6 32/77/6
f 96/46/2 95/43/1 59/43/1 61/46/2
f 89/30/8 84/24/9 43/24/9 45/30/8
f 82/20/10 81/17/11 33/17/11 34/20/10
f 4/78/5 3/79/12 102/80/12 150/81/5
f 33/17/11 81/17/11 86/61/7 63/61/7
f 86/61/7 96/46/2 61/46/2 63/61/7
f 178/82/13 130/83/14 129/84/14 177/85/13
f 83/40/13 82/20/10 34/20/10 37/40/13
f 90/66/6 89/30/8 45/30/8 47/66/6
f 84/24/9 88/21/15 41/21/15 43/24/9
f 169/86/11 17/87/11 15/71/7 115/70/7
f 142/88/6 141/89/6 189/90/8 190/91/8
f 56/64/16 75/64/17 76/60/18 58/60/19
f 48/8/20 46/7/21 70/7/22 71/8/23
f 54/58/24 74/58/25 75/64/17 56/64/16
f 138/92/26 137/93/26 185/94/27 186/95/27
f 38/12/28 35/11/29 80/11/30 66/12/31
f 153/96/32 152/97/32 98/98/33 99/99/33
f 52/57/34 73/57/35 74/58/25 54/58/24
f 42/53/36 40/52/37 67/52/38 68/53/39
f 35/11/29 36/14/40 65/14/40 80/11/30
f 44/47/41 42/53/36 68/53/39 69/47/42
f 46/7/21 44/47/41 69/47/42 70/7/22
f 50/25/43 72/25/43 73/57/35 52/57/34
f 40/52/37 38/12/28 66/12/31 67/52/38
f 64/13/44 79/13/45 65/14/40 36/14/40
f 58/60/19 76/60/18 77/49/46 60/49/47
f 60/49/47 77/49/46 78/28/48 62/28/49
f 74/58/3 73/57/3 193/63/3
f 91/32/4 92/31/4 194/100/4
f 66/12/3 80/11/3 193/63/3
f 66/12/3 193/63/3 67/52/3
f 77/49/3 76/60/3 193/63/3
f 70/7/3 69/47/3 193/63/3
f 72/25/3 193/63/3 73/57/3
f 193/63/3 68/53/3 67/52/3
f 6/101/50 156/102/50 102/80/12 3/79/12
f 92/31/4 93/36/4 194/100/4
f 93/36/4 94/42/4 194/100/4
f 194/100/4 85/69/4 91/32/4
f 194/100/4 94/42/4 95/43/4
f 89/30/4 90/66/4 194/100/4
f 95/43/4 96/46/4 194/100/4
f 83/40/4 87/39/4 194/100/4
f 95/43/1 94/42/51 57/42/51 59/43/1
f 94/42/51 93/36/52 55/36/52 57/42/51
f 156/102/50 6/101/50 8/103/52 108/104/52
f 163/73/2 13/72/2 11/105/1 109/106/1
f 24/107/14 132/108/14 180/109/13 22/110/13
f 28/111/9 138/92/9 186/95/15 26/112/15
f 151/113/50 5/114/50 2/115/12 97/116/12
f 114/117/1 12/118/1 14/119/2 168/120/2
f 32/77/6 144/76/6 192/121/8 30/122/8
f 88/21/15 87/39/14 39/39/14 41/21/15
f 133/123/9 27/124/9 25/125/15 181/126/15
f 136/127/9 190/91/8 189/90/8 135/128/9
f 103/129/52 7/130/52 5/114/50 151/113/50
f 18/131/11 174/132/11 120/133/7 16/134/7
f 187/135/8 29/136/8 27/124/9 133/123/9
f 62/28/49 78/28/48 79/13/45 64/13/44
f 157/137/51 9/138/51 7/130/52 103/129/52
f 98/98/53 97/116/53 145/139/54 146/140/54
f 164/141/55 163/73/55 109/106/56 110/142/56
f 109/106/1 11/105/1 9/138/51 157/137/51
f 146/143/54 145/144/54 139/145/57 140/146/57
f 141/89/58 140/146/58 188/147/59 189/90/59
f 127/148/14 23/149/14 21/150/13 175/151/13
f 147/152/60 146/143/60 140/146/58 141/89/58
f 188/147/61 187/135/61 133/123/62 134/153/62
f 160/154/51 159/155/51 105/156/52 106/157/52
f 149/158/60 150/81/60 102/80/33 101/159/33
f 166/2/55 167/160/55 119/161/63 118/162/63
f 175/151/13 21/150/13 19/163/10 121/164/10
f 143/165/58 144/76/58 150/75/60 149/166/60
f 185/94/64 184/167/64 130/83/65 131/168/65
f 181/126/15 25/125/15 23/149/14 127/148/14
f 99/99/33 98/98/33 146/140/60 147/169/60
f 179/170/66 131/168/65 130/83/65 178/82/66
f 145/144/5 1/171/5 31/172/6 139/145/6
f 156/102/32 155/173/32 101/159/33 102/80/33
f 132/108/67 131/168/67 179/170/68 180/109/68
f 136/127/9 135/128/9 183/174/15 184/167/15
f 149/158/54 101/159/53 100/175/53 148/176/54
f 173/177/69 172/178/69 118/162/63 119/161/63
f 20/179/10 22/110/13 180/109/13 126/180/10
f 128/181/65 127/148/65 175/151/66 176/182/66
f 98/98/53 152/97/70 151/113/70 97/116/53
f 142/88/6 148/183/5 147/152/5 141/89/6
f 135/128/26 134/153/26 182/184/27 183/174/27
f 127/148/65 128/181/65 182/184/64 181/126/64
f 86/61/4 81/17/4 194/100/4
f 155/173/32 156/102/32 108/104/71 107/185/71
f 121/164/72 122/186/72 176/182/66 175/151/66
f 121/164/10 19/163/10 17/87/11 169/86/11
f 126/180/73 180/109/68 179/170/68 125/187/73
f 51/32/12 91/32/12 85/69/5 49/69/5
f 132/108/67 186/95/27 185/94/27 131/168/67
f 120/133/74 119/161/74 167/160/75 168/120/75
f 124/188/10 123/189/10 171/190/11 172/178/11
f 171/190/76 123/189/73 122/186/73 170/191/76
f 174/132/76 126/180/73 125/187/73 173/177/76
f 104/192/77 103/129/77 151/113/70 152/97/70
f 159/155/78 158/193/78 104/192/71 105/156/71
f 153/96/50 154/194/50 106/157/52 105/156/52
f 113/195/56 112/1/56 160/154/79 161/196/79
f 179/170/66 178/82/66 124/188/72 125/187/72
f 28/111/9 30/122/8 192/121/8 138/92/9
f 116/197/63 170/191/69 169/86/69 115/70/63
f 165/3/75 117/198/74 116/197/74 164/141/75
f 12/118/1 114/117/1 162/199/51 10/200/51
f 172/178/69 173/177/69 125/187/72 124/188/72
f 107/185/77 106/157/77 154/194/70 155/173/70
f 10/200/51 162/199/51 108/104/52 8/103/52
f 167/160/55 166/2/55 112/1/56 113/195/56
f 117/198/74 171/190/76 170/191/76 116/197/74
f 112/1/1 111/4/1 159/155/51 160/154/51
f 165/3/75 164/141/75 110/142/80 111/4/80
f 177/85/68 176/182/68 122/186/73 123/189/73
f 18/131/11 20/179/10 126/180/10 174/132/11
f 107/185/77 161/196/79 160/154/79 106/157/77
f 170/191/69 122/186/72 121/164/72 169/86/69
f 148/176/5 100/175/12 99/99/12 147/169/5
f 104/192/77 158/193/79 157/137/79 103/129/77
f 114/117/80 113/195/80 161/196/78 162/199/78
f 139/145/6 31/172/6 29/136/8 187/135/8
f 174/132/76 173/177/76 119/161/74 120/133/74
f 138/92/26 192/121/59 191/201/59 137/93/26
f 50/25/43 48/8/20 71/8/23 72/25/43
f 158/193/79 110/142/56 109/106/56 157/137/79
f 158/193/78 159/155/78 111/4/80 110/142/80
f 74/58/3 193/63/3 75/64/3
f 113/195/80 114/117/80 168/120/75 167/160/75
f 164/141/55 116/197/63 115/70/63 163/73/55
f 184/167/15 183/174/15 129/84/14 130/83/14
f 153/96/32 105/156/71 104/192/71 152/97/32
f 97/116/12 2/115/12 1/202/5 145/139/5
f 188/147/61 140/146/57 139/145/57 187/135/61
f 184/167/64 185/94/64 137/93/62 136/127/62
f 92/31/50 91/32/12 51/32/12 53/31/50
f 182/184/64 134/153/62 133/123/62 181/126/64
f 189/90/59 188/147/59 134/153/26 135/128/26
f 26/112/15 186/95/15 132/108/14 24/107/14
f 144/76/58 143/165/58 191/201/59 192/121/59
f 191/201/61 190/91/61 136/127/62 137/93/62
f 118/162/7 172/178/11 171/190/11 117/198/7
f 143/165/57 142/88/57 190/91/61 191/201/61
f 107/185/71 108/104/71 162/199/78 161/196/78
f 177/85/68 129/84/67 128/181/67 176/182/68
f 101/159/53 155/173/70 154/194/70 100/175/53
f 16/134/7 120/133/7 168/120/2 14/119/2
f 149/166/54 148/183/54 142/88/57 143/165/57
f 183/174/27 182/184/27 128/181/67 129/84/67
f 166/2/2 118/162/7 117/198/7 165/3/2
f 87/39/14 83/40/13 37/40/13 39/39/14
f 93/36/52 92/31/50 53/31/50 55/36/52
f 154/194/50 153/96/50 99/99/12 100/175/12
f 178/82/13 177/85/13 123/189/10 124/188/10
f 8/51/3 6/9/3 38/12/3 40/52/3
f 31/62/4 63/61/4 61/46/4 29/45/4
f 80/11/3 65/14/3 193/63/3
f 193/63/3 65/14/3 79/13/3
f 79/13/3 78/28/3 193/63/3
f 78/28/3 77/49/3 193/63/3
f 69/47/3 68/53/3 193/63/3
f 193/63/3 72/25/3 71/8/3
f 71/8/3 70/7/3 193/63/3
f 96/46/4 86/61/4 194/100/4
f 90/66/4 85/69/4 194/100/4
f 194/100/4 88/21/4 84/24/4
f 84/24/4 89/30/4 194/100/4
f 88/21/4 194/100/4 87/39/4
f 194/100/4 81/17/4 82/20/4
f 83/40/4 194/100/4 82/20/4
