# Blender 5.0.1
# www.blender.org
mtllib supply_crate_1_1_empty.mtl
o supply_crate_1_1_empty
v -0.334000 -0.000000 -0.041371
v -0.334000 0.000000 0.042000
v -0.334000 0.016000 -0.041371
v -0.334000 0.016000 0.042000
v 0.333999 -0.000000 -0.041371
v 0.333999 0.000000 0.042000
v 0.333999 0.016000 -0.041371
v 0.333999 0.016000 0.042000
v -0.334000 0.143086 0.212206
v -0.334000 0.200000 0.212206
v -0.334000 0.143086 0.196000
v -0.334000 0.200000 0.196000
v 0.333999 0.143086 0.212206
v 0.333999 0.200000 0.212206
v 0.333999 0.143086 0.196000
v 0.333999 0.200000 0.196000
v 0.333999 0.143086 -0.210521
v 0.333999 0.200000 -0.210521
v 0.333999 0.143086 -0.196000
v 0.333999 0.200000 -0.196000
v -0.334000 0.143086 -0.210521
v -0.334000 0.200000 -0.210521
v -0.334000 0.143086 -0.196000
v -0.334000 0.200000 -0.196000
v -0.307999 0.143086 0.072000
v -0.307999 0.167486 0.052000
v -0.307999 0.167486 -0.052000
v -0.307999 0.143086 -0.072000
v -0.323999 0.143086 -0.072000
v -0.323999 0.167486 0.052000
v -0.323999 0.143086 0.072000
v -0.323999 0.167486 -0.052000
v 0.324000 0.143086 0.196000
v 0.324000 0.200000 0.196000
v 0.308000 0.143086 0.196000
v 0.308000 0.200000 0.196000
v 0.324000 0.143086 -0.196000
v 0.324000 0.200000 -0.196000
v 0.308000 0.143086 -0.196000
v 0.308000 0.200000 -0.196000
v -0.323999 0.200000 -0.196000
v -0.323999 0.143086 -0.196000
v -0.307999 0.200000 -0.196000
v -0.307999 0.143086 -0.196000
v -0.323999 0.200000 0.196000
v -0.324000 0.143086 0.196000
v -0.307999 0.200000 0.196000
v -0.307999 0.143086 0.196000
v 0.308000 0.167486 -0.052000
v 0.308000 0.143086 0.072000
v 0.308000 0.167486 0.052000
v 0.308000 0.143086 -0.072000
v 0.324000 0.143086 -0.072000
v 0.324000 0.167486 -0.052000
v 0.324000 0.167486 0.052000
v 0.324000 0.143086 0.072000
v -0.334000 0.078556 -0.213973
v -0.334000 0.078556 0.209534
v -0.334000 0.126995 0.209534
v -0.334000 0.078556 0.196000
v -0.334000 0.126995 0.196000
v 0.333999 0.078556 0.209534
v 0.333999 0.126995 0.209534
v 0.333999 0.078556 0.196000
v 0.333999 0.126995 0.196000
v 0.333999 0.078556 -0.213973
v 0.333999 0.126995 -0.213973
v 0.333999 0.078556 -0.196000
v 0.333999 0.126995 -0.196000
v -0.334000 0.126995 -0.213973
v -0.334000 0.078556 -0.196000
v -0.334000 0.126995 -0.196000
v -0.324000 0.078556 -0.196000
v -0.324000 0.126995 -0.196000
v -0.308000 0.078556 -0.196000
v -0.308000 0.126995 -0.196000
v -0.324000 0.078556 0.196000
v -0.324000 0.126995 0.196000
v -0.308000 0.126995 0.196000
v 0.324000 0.078556 0.196000
v 0.324000 0.126995 0.196000
v 0.308000 0.126995 0.196000
v 0.324000 0.078556 -0.196000
v 0.324000 0.126995 -0.196000
v 0.308000 0.078556 -0.196000
v 0.308000 0.126995 -0.196000
v -0.308000 0.078556 0.196000
v 0.308000 0.078556 0.196000
v -0.334000 -0.000000 -0.126520
v -0.334000 0.000000 -0.051452
v -0.334000 0.016000 -0.126520
v -0.334000 0.016000 -0.051452
v 0.333999 -0.000000 -0.126520
v 0.333999 0.000000 -0.051452
v 0.333999 0.016000 -0.126520
v 0.333999 0.016000 -0.051452
v -0.334000 -0.000000 -0.212000
v -0.334000 0.000000 -0.134548
v -0.334000 0.016000 -0.212000
v -0.334000 0.016000 -0.134548
v 0.333999 -0.000000 -0.212000
v 0.333999 0.000000 -0.134548
v 0.333999 0.016000 -0.212000
v 0.333999 0.016000 -0.134548
v -0.334000 -0.000000 0.050602
v -0.334000 0.000000 0.131371
v -0.334000 0.016000 0.050602
v -0.334000 0.016000 0.131371
v 0.333999 -0.000000 0.050602
v 0.333999 0.000000 0.131371
v 0.333999 0.016000 0.050602
v 0.333999 0.016000 0.131371
v -0.334000 -0.000000 0.138000
v -0.334000 0.000000 0.212000
v -0.334000 0.016000 0.138000
v -0.334000 0.016000 0.212000
v 0.333999 -0.000000 0.138000
v 0.333999 0.000000 0.212000
v 0.333999 0.016000 0.138000
v 0.333999 0.016000 0.212000
v -0.324000 0.016000 -0.196000
v -0.324000 0.060000 -0.196000
v -0.308000 0.016000 -0.196000
v -0.308000 0.060000 -0.196000
v -0.324000 0.016000 0.196000
v -0.324000 0.060000 0.196000
v -0.308000 0.060000 0.196000
v 0.324000 0.016000 0.196000
v 0.324000 0.060000 0.196000
v 0.308000 0.060000 0.196000
v 0.324000 0.016000 -0.196000
v 0.324000 0.060000 -0.196000
v 0.308000 0.016000 -0.196000
v 0.308000 0.060000 -0.196000
v -0.256000 0.016000 0.196000
v -0.256000 0.184000 0.196000
v -0.308000 0.016000 0.144000
v -0.308000 0.184000 0.144000
v -0.308000 0.016000 0.196000
v -0.308000 0.184000 0.196000
v 0.308000 0.016000 0.144000
v 0.308000 0.184000 0.144000
v 0.256000 0.016000 0.196000
v 0.256000 0.184000 0.196000
v 0.308000 0.016000 0.196000
v 0.308000 0.184000 0.196000
v 0.256000 0.016000 -0.196000
v 0.256000 0.184000 -0.196000
v 0.308000 0.016000 -0.144000
v 0.308000 0.184000 -0.144000
v 0.308000 0.184000 -0.196000
v -0.308000 0.016000 -0.144000
v -0.308000 0.184000 -0.144000
v -0.256000 0.016000 -0.196000
v -0.256000 0.184000 -0.196000
v -0.308000 0.184000 -0.196000
v -0.334000 0.016000 -0.212000
v -0.334000 0.016000 0.212000
v -0.334000 0.060000 0.212000
v -0.334000 0.016000 0.196000
v -0.334000 0.060000 0.196000
v 0.333999 0.016000 0.212000
v 0.333999 0.060000 0.212000
v 0.333999 0.016000 0.196000
v 0.333999 0.060000 0.196000
v 0.333999 0.016000 -0.212000
v 0.333999 0.060000 -0.212000
v 0.333999 0.016000 -0.196000
v 0.333999 0.060000 -0.196000
v -0.334000 0.060000 -0.212000
v -0.334000 0.016000 -0.196000
v -0.334000 0.060000 -0.196000
vn -0.0000 1.0000 -0.0000
vn 1.0000 -0.0000 -0.0000
vn -0.0000 -1.0000 -0.0000
vn -0.0000 -0.0000 -1.0000
vn -0.0000 -0.6339 0.7734
vn -0.0000 -0.0000 1.0000
vn -0.0000 -0.6339 -0.7734
vn -1.0000 -0.0000 -0.0000
vn -0.7071 -0.0000 -0.7071
vn -0.7071 -0.0000 0.7071
vn 0.7071 -0.0000 -0.7071
vn 0.7071 -0.0000 0.7071
vt -0.000586 0.925034
vt 0.499414 0.925034
vt 0.499414 0.987438
vt -0.000586 0.987438
vt 0.561817 0.306530
vt 0.561817 0.318506
vt 0.499414 0.318506
vt 0.499414 0.306530
vt 0.499414 0.913058
vt -0.000586 0.913058
vt -0.000586 0.850655
vt 0.499414 0.850655
vt 0.717302 0.115191
vt 0.693688 0.115191
vt 0.693688 0.103215
vt 0.717302 0.103215
vt -0.000586 0.999414
vt 0.499414 0.999414
vt 0.913273 0.147847
vt 0.870672 0.147847
vt 0.870672 0.135871
vt 0.913273 0.135871
vt 0.499414 0.240101
vt 0.499414 0.282702
vt -0.000586 0.282702
vt -0.000586 0.240101
vt 0.615843 0.115191
vt 0.592228 0.115191
vt 0.592228 0.103215
vt 0.615843 0.103215
vt 0.792827 0.651215
vt 0.792827 0.663191
vt 0.499414 0.663191
vt 0.499414 0.651215
vt 0.787732 0.306376
vt 0.787732 0.318506
vt 0.745131 0.318506
vt 0.745131 0.306376
vt 0.499414 0.728637
vt 0.499414 0.717768
vt 0.542014 0.717768
vt 0.542014 0.728637
vt 0.499414 0.174501
vt 0.499414 0.185370
vt -0.000586 0.185370
vt -0.000586 0.174501
vt 0.913273 0.135871
vt 0.870672 0.135871
vt 0.870672 0.123895
vt 0.913273 0.123895
vt 0.499414 0.554037
vt 0.607198 0.529700
vt 0.685043 0.529700
vt 0.792827 0.554037
vt 0.792827 0.566013
vt 0.792827 0.608614
vt 0.700013 0.608614
vt 0.685043 0.590350
vt 0.499414 0.566013
vt 0.607198 0.590350
vt 0.592228 0.608614
vt 0.499414 0.608614
vt -0.000586 0.078431
vt 0.499414 0.078431
vt 0.499414 0.121032
vt -0.000586 0.121032
vt 0.792827 0.705791
vt 0.700013 0.705791
vt 0.685043 0.687528
vt 0.607198 0.687528
vt 0.592228 0.705791
vt 0.499414 0.705791
vt 0.685043 0.626878
vt 0.607198 0.626878
vt 0.499414 0.294832
vt -0.000586 0.294832
vt 0.700013 0.608614
vt 0.792827 0.608614
vt 0.592228 0.608614
vt 0.700013 0.511437
vt 0.792827 0.511437
vt 0.499414 0.511437
vt 0.592228 0.511437
vt 0.913273 0.162817
vt 0.870672 0.162817
vt 0.870672 0.150841
vt 0.913273 0.150841
vt 0.693687 0.705791
vt 0.693687 0.717768
vt 0.615843 0.717768
vt 0.615843 0.705792
vt -0.000586 0.185370
vt 0.499414 0.185370
vt 0.499414 0.227971
vt -0.000586 0.227971
vt 0.624220 0.306530
vt 0.624220 0.318506
vt 0.561817 0.306530
vt 0.717302 0.705791
vt 0.717302 0.717768
vt 0.910691 0.717768
vt 0.868090 0.717768
vt 0.868090 0.705792
vt 0.910691 0.705792
vt 0.592228 0.705792
vt 0.592228 0.717768
vt 0.584615 0.717768
vt 0.584615 0.728637
vt 0.542014 0.728637
vt 0.542014 0.717768
vt 0.780198 0.091084
vt 0.822799 0.091084
vt 0.822799 0.103215
vt 0.780198 0.103215
vt -0.000586 0.131900
vt 0.499414 0.131901
vt 0.792827 0.402995
vt 0.792827 0.414971
vt 0.499414 0.414971
vt 0.499414 0.402995
vt 0.777390 0.091239
vt 0.741133 0.091239
vt 0.741133 0.079262
vt 0.777390 0.079262
vt 0.590715 0.077786
vt 0.626971 0.077786
vt 0.626971 0.091239
vt 0.590715 0.091239
vt 0.620871 0.727898
vt 0.584615 0.727898
vt 0.584615 0.717768
vt 0.620871 0.717768
vt 0.499414 0.807221
vt 0.999414 0.807222
vt 0.999414 0.843478
vt 0.499414 0.843478
vt 0.590714 0.091238
vt 0.554458 0.091239
vt 0.554458 0.077786
vt 0.590714 0.077786
vt 0.999414 0.889865
vt 0.999414 0.899995
vt 0.499414 0.899995
vt 0.499414 0.889865
vt 0.792827 0.499460
vt 0.499414 0.499460
vt 0.499414 0.463204
vt 0.792827 0.463204
vt 0.999414 0.985961
vt 0.999414 0.999414
vt 0.499414 0.999414
vt 0.499414 0.985961
vt 0.704877 0.091239
vt 0.704877 0.079262
vt 0.499414 0.853608
vt 0.999414 0.853608
vt 0.620871 0.727898
vt 0.620871 0.717768
vt 0.657128 0.717768
vt 0.657128 0.727898
vt 0.499414 0.366739
vt 0.499414 0.354763
vt 0.792827 0.354763
vt 0.792827 0.366739
vt 0.499414 0.949704
vt 0.999414 0.949704
vt 0.499414 0.414971
vt 0.792827 0.451228
vt 0.499414 0.451228
vt 0.626971 0.091238
vt 0.626971 0.079262
vt 0.663228 0.079262
vt 0.663228 0.091239
vt 0.499414 0.511436
vt 0.499414 0.936251
vt 0.999414 0.936251
vt 0.499414 0.318506
vt 0.792827 0.318506
vt 0.499414 0.899995
vt 0.999414 0.899995
vt 0.668620 0.091239
vt 0.668620 0.079262
vt 0.704877 0.079263
vt 0.704877 0.091239
vt 0.499414 0.497728
vt -0.000586 0.497728
vt -0.000586 0.441539
vt 0.499414 0.441539
vt 0.668620 0.103215
vt 0.724809 0.091239
vt 0.724809 0.103215
vt -0.000586 0.509704
vt 0.499414 0.509704
vt 0.499414 0.565893
vt -0.000586 0.565892
vt 0.499414 0.429563
vt -0.000586 0.429563
vt 0.612431 0.103215
vt 0.612431 0.091239
vt 0.499414 0.635842
vt -0.000586 0.635842
vt -0.000586 0.577869
vt 0.499414 0.577869
vt 0.810117 0.717768
vt 0.810117 0.705792
vt 0.868090 0.705792
vt 0.868090 0.717768
vt -0.000586 0.647818
vt 0.499414 0.647818
vt 0.499414 0.705791
vt -0.000586 0.705791
vt -0.000586 0.565892
vt 0.612431 0.091239
vt 0.554458 0.103215
vt 0.554458 0.091239
vt -0.000586 0.778223
vt 0.499414 0.778223
vt 0.499414 0.838679
vt -0.000586 0.838679
vt 0.684676 0.318506
vt 0.684676 0.306530
vt 0.745131 0.306530
vt 0.745131 0.318506
vt 0.499414 0.766247
vt -0.000586 0.766247
vt 0.499414 0.705791
vt -0.000586 0.850655
vt 0.499414 0.850655
vt 0.684676 0.318506
vt 0.624220 0.318506
vt 0.499414 0.362197
vt -0.000586 0.362197
vt -0.000586 0.306808
vt 0.499414 0.306808
vt 0.831750 0.096373
vt 0.831750 0.084397
vt 0.887139 0.084397
vt 0.887139 0.096373
vt -0.000586 0.374173
vt 0.499414 0.374173
vt 0.499414 0.429563
vt -0.000586 0.429563
vt 0.499414 0.294832
vt 0.780198 0.091239
vt 0.859272 0.123895
vt 0.886794 0.096373
vt 0.526936 0.103215
vt 0.499414 0.075692
vt 0.554458 0.075692
vt 0.792827 0.123895
vt 0.831750 0.123895
vt 0.792827 0.162817
vt 0.831750 0.123895
vt 0.870672 0.123895
vt 0.831750 0.162817
vt 0.499414 0.127167
vt 0.499414 0.115191
vt 0.792827 0.115191
vt 0.792827 0.127167
vt 0.792827 0.279584
vt 0.792827 0.240662
vt 0.918576 0.240662
vt 0.918576 0.279584
vt 0.919728 0.111919
vt 0.886794 0.111919
vt 0.886794 0.099943
vt 0.919728 0.099943
vt 0.918576 0.368847
vt 0.918576 0.423892
vt 0.792827 0.423892
vt 0.792827 0.368847
vt 0.792827 0.517858
vt 0.792827 0.478936
vt 0.918576 0.478936
vt 0.918576 0.517858
vt 0.792827 0.611825
vt 0.792827 0.556780
vt 0.918576 0.556781
vt 0.918576 0.611825
vt 0.792827 0.329925
vt 0.918576 0.329925
vt 0.792827 0.282856
vt 0.499414 0.282856
vt 0.499414 0.249922
vt 0.792827 0.249922
vt 0.887139 0.096373
vt 0.887139 0.084397
vt 0.920073 0.084397
vt 0.920073 0.096373
vt 0.792827 0.517858
vt 0.792827 0.160101
vt 0.792827 0.172077
vt 0.499414 0.172077
vt 0.499414 0.160101
vt 0.918576 0.201739
vt 0.792827 0.201739
vt 0.918576 0.318506
vt 0.499414 0.205011
vt 0.792827 0.205011
vt 0.792827 0.237946
vt 0.499414 0.237946
vt 0.918576 0.666869
vt 0.918576 0.705791
vt 0.792827 0.705791
vt 0.792827 0.666869
vt 0.887139 0.072421
vt 0.920073 0.072421
vt 0.920073 0.084397
vt 0.918576 0.611825
vt 0.792827 0.294832
vt 0.499414 0.294832
vt 0.918576 0.162817
vt 0.918576 0.201739
vt 0.792827 0.201739
vt 0.792827 0.423892
vt 0.918576 0.423892
vt 0.792827 0.205011
vt 0.499414 0.205011
vt 0.919728 0.111919
vt 0.919728 0.123895
vt 0.886794 0.123895
vt 0.696162 0.067286
vt 0.729096 0.067286
vt 0.729096 0.079262
vt 0.696162 0.079262
vt 0.831750 0.072421
vt 0.864684 0.072421
vt 0.864684 0.084397
vt -0.000586 0.000586
vt 0.499414 0.000586
vt 0.499414 0.033521
vt -0.000586 0.033521
vt 0.822799 0.091084
vt 0.789865 0.091084
vt 0.789865 0.079108
vt 0.822799 0.079108
vt -0.000586 0.078431
vt -0.000586 0.045497
vt 0.499414 0.045497
vt 0.696162 0.067286
vt 0.696162 0.079262
vt 0.663228 0.067286
vt 0.499414 0.729377
vt 0.999414 0.729377
vt 0.999414 0.762311
vt 0.499414 0.762311
vt 0.999414 0.774287
vt 0.499414 0.774287
vt 0.999414 0.807221
vt 0.810117 0.103215
vt 0.810117 0.115191
vt 0.499414 0.115191
vt 0.499414 0.103215
vt 0.810117 0.705792
vt 0.810117 0.717768
vt 0.499414 0.705792
vt 0.499414 0.717768
s 1
usemtl wooden_crate_7_1
f 7/1/1 3/2/1 4/3/1 8/4/1
f 5/5/2 7/6/2 8/7/2 6/8/2
f 1/9/3 5/10/3 6/11/3 2/12/3
f 1/9/4 3/2/4 7/1/4 5/10/4
f 53/13/5 54/14/5 49/15/5 52/16/5
f 6/17/6 8/4/6 4/3/6 2/18/6
f 36/19/6 35/20/6 33/21/6 34/22/6
f 10/23/6 9/24/6 13/25/6 14/26/6
f 55/27/7 56/28/7 50/29/7 51/30/7
f 38/31/1 40/32/1 36/33/1 34/34/1
f 55/27/3 51/30/3 49/15/3 54/14/3
f 11/35/8 9/36/8 10/37/8 12/38/8
f 19/39/2 17/40/2 18/41/2 20/42/2
f 17/43/3 19/44/3 23/45/3 21/46/3
f 38/47/4 37/48/4 39/49/4 40/50/4
f 41/51/8 32/52/8 30/53/8 45/54/8
f 47/55/2 48/56/2 25/57/2 26/58/2
f 43/59/2 27/60/2 28/61/2 44/62/2
f 23/63/6 19/64/6 20/65/6 24/66/6
f 40/32/8 39/67/8 52/68/8 49/69/8
f 36/33/8 51/70/8 50/71/8 35/72/8
f 27/60/2 43/59/2 47/55/2 26/58/2
f 54/73/2 38/31/2 34/34/2 55/74/2
f 9/24/3 11/75/3 15/76/3 13/25/3
f 38/31/2 54/73/2 53/77/2 37/78/2
f 34/34/2 33/62/2 56/79/2 55/74/2
f 45/54/8 30/53/8 31/80/8 46/81/8
f 41/51/8 42/82/8 29/83/8 32/52/8
f 43/84/4 44/85/4 42/86/4 41/87/4
f 40/32/8 49/69/8 51/70/8 36/33/8
f 26/88/3 30/89/3 32/90/3 27/91/3
f 15/92/4 11/93/4 12/94/4 16/95/4
f 43/59/1 41/51/1 45/54/1 47/55/1
f 3/96/8 1/97/8 2/6/8 4/98/8
f 26/88/7 25/99/7 31/100/7 30/89/7
f 45/101/6 46/102/6 48/103/6 47/104/6
f 28/105/5 27/91/5 32/90/5 29/106/5
f 21/107/8 23/108/8 24/109/8 22/110/8
f 14/111/2 13/112/2 15/113/2 16/114/2
f 14/26/1 16/95/1 12/94/1 10/23/1
f 22/115/1 24/66/1 20/65/1 18/116/1
f 17/43/4 21/46/4 22/115/4 18/116/4
f 80/117/3 88/118/3 85/119/3 83/120/3
f 84/121/4 83/122/4 85/123/4 86/124/4
f 69/125/2 68/126/2 66/127/2 67/128/2
f 63/129/2 62/130/2 64/131/2 65/132/2
f 64/133/4 60/134/4 61/135/4 65/136/4
f 70/137/8 57/138/8 71/139/8 72/140/8
f 58/141/3 60/142/3 64/143/3 62/144/3
f 73/145/8 77/146/8 78/147/8 74/148/8
f 66/149/3 68/150/3 71/151/3 57/152/3
f 77/153/6 87/154/6 79/123/6 78/122/6
f 58/141/6 62/144/6 63/155/6 59/156/6
f 60/157/8 58/158/8 59/159/8 61/160/8
f 84/161/1 86/162/1 82/163/1 81/164/1
f 66/149/4 57/152/4 70/165/4 67/166/4
f 87/167/2 75/118/2 76/168/2 79/169/2
f 88/170/6 80/171/6 81/172/6 82/173/6
f 78/147/1 79/169/1 76/168/1 74/148/1
f 77/146/3 73/145/3 75/81/3 87/174/3
f 70/165/1 72/175/1 69/176/1 67/166/1
f 86/162/8 85/177/8 88/178/8 82/163/8
f 71/179/6 68/180/6 69/176/6 72/175/6
f 80/117/2 83/120/2 84/161/2 81/164/2
f 63/155/1 65/136/1 61/135/1 59/156/1
f 75/181/4 73/182/4 74/183/4 76/184/4
f 95/185/1 91/186/1 92/187/1 96/188/1
f 93/189/2 95/181/2 96/190/2 94/191/2
f 89/192/3 93/193/3 94/194/3 90/195/3
f 89/192/4 91/186/4 95/185/4 93/193/4
f 94/196/6 96/188/6 92/187/6 90/197/6
f 91/181/8 89/189/8 90/198/8 92/199/8
f 103/200/1 99/201/1 100/202/1 104/203/1
f 101/204/2 103/205/2 104/206/2 102/207/2
f 97/208/3 101/209/3 102/210/3 98/211/3
f 97/208/4 99/201/4 103/200/4 101/209/4
f 102/194/6 104/203/6 100/202/6 98/212/6
f 99/213/8 97/198/8 98/214/8 100/215/8
f 111/216/1 107/217/1 108/218/1 112/219/1
f 109/220/2 111/221/2 112/222/2 110/223/2
f 105/224/3 109/225/3 110/211/3 106/226/3
f 105/224/4 107/217/4 111/216/4 109/225/4
f 110/227/6 112/219/6 108/218/6 106/228/6
f 107/221/8 105/229/8 106/230/8 108/96/8
f 119/231/1 115/232/1 116/233/1 120/234/1
f 117/235/2 119/236/2 120/237/2 118/238/2
f 113/239/3 117/240/3 118/241/3 114/242/3
f 113/239/4 115/232/4 119/231/4 117/240/4
f 118/243/6 120/234/6 116/233/6 114/76/6
f 115/244/8 113/114/8 114/191/8 116/190/8
f 140/245/1 136/235/1 138/246/1
f 146/247/1 142/248/1 144/249/1
f 151/250/1 148/251/1 150/252/1
f 156/253/1 153/254/1 155/255/1
f 128/256/3 145/257/3 133/258/3 131/259/3
f 154/260/4 123/261/4 156/262/4 155/263/4
f 132/264/4 131/265/4 133/266/4 134/267/4
f 141/268/9 143/269/9 144/270/9 142/271/9
f 123/272/8 152/273/8 153/274/8 156/275/8
f 147/276/10 149/277/10 150/278/10 148/279/10
f 146/280/2 145/281/2 141/268/2 142/271/2
f 121/282/8 125/283/8 126/284/8 122/285/8
f 125/286/6 139/287/6 127/288/6 126/289/6
f 149/277/2 133/290/2 151/275/2 150/278/2
f 132/291/1 134/292/1 130/293/1 129/294/1
f 133/295/4 147/262/4 148/261/4 151/296/4
f 143/263/6 145/297/6 146/178/6 144/260/6
f 139/298/2 123/299/2 124/300/2 127/301/2
f 137/302/8 139/303/8 140/304/8 138/305/8
f 145/237/6 128/306/6 129/307/6 130/308/6
f 135/309/11 137/302/11 138/305/11 136/276/11
f 126/284/1 127/301/1 124/300/1 122/285/1
f 125/283/3 121/282/3 123/310/3 139/311/3
f 139/312/6 135/313/6 136/314/6 140/252/6
f 152/273/12 154/315/12 155/316/12 153/274/12
f 134/292/8 133/317/8 145/318/8 130/293/8
f 128/256/2 131/259/2 132/291/2 129/294/2
f 123/319/4 121/320/4 122/321/4 124/265/4
f 169/322/2 168/323/2 166/324/2 167/325/2
f 163/326/2 162/327/2 164/328/2 165/236/2
f 164/329/4 160/330/4 161/331/4 165/332/4
f 170/333/8 157/334/8 171/335/8 172/336/8
f 158/64/6 162/337/6 163/338/6 159/339/6
f 160/340/8 158/341/8 159/172/8 161/342/8
f 166/343/4 157/344/4 170/345/4 167/346/4
f 170/345/1 172/347/1 169/348/1 167/346/1
f 171/349/6 168/133/6 169/348/6 172/347/6
f 163/338/1 165/332/1 161/331/1 159/339/1
f 52/16/3 39/350/3 37/351/3 53/13/3
f 33/352/3 35/353/3 50/29/3 56/28/3
f 25/99/3 48/354/3 46/355/3 31/100/3
f 44/356/3 28/105/3 29/106/3 42/357/3
