# Blender 5.0.1
# www.blender.org
mtllib toilet_mp_1_1.mtl
o toilet_mp_1_1
v -0.098695 0.285094 0.273901
v -0.182365 0.285094 0.186276
v -0.237872 0.285094 0.070144
v -0.252305 0.285094 -0.033512
v -0.243583 0.285094 -0.137169
v -0.156771 0.285845 -0.391287
v -0.084844 0.285845 -0.419688
v -0.058612 0.122377 0.138770
v -0.108299 0.121517 0.080150
v -0.141430 0.120363 0.007121
v -0.152504 0.119561 -0.050916
v -0.149191 0.118955 -0.106416
v -0.107931 0.118071 -0.153473
v -0.058605 0.117602 -0.181175
v -0.034502 0.073197 0.033309
v -0.063752 0.072569 0.004361
v -0.083296 0.072037 -0.032932
v -0.090159 0.071784 -0.064714
v -0.088454 0.071644 -0.096146
v -0.063752 0.071391 -0.123485
v -0.034502 0.071271 -0.140045
v -0.000000 0.285094 0.294520
v 0.098695 0.285094 0.273901
v 0.182365 0.285094 0.186276
v 0.237872 0.285094 0.070145
v 0.252305 0.285094 -0.033512
v 0.243583 0.285094 -0.137169
v 0.084845 0.285845 -0.419689
v 0.156771 0.285845 -0.391286
v -0.000001 0.122506 0.152100
v 0.058610 0.122377 0.138786
v 0.108297 0.121517 0.080472
v 0.141432 0.120363 0.007934
v 0.152514 0.119561 -0.049799
v 0.149198 0.118955 -0.105171
v 0.107930 0.118071 -0.152531
v 0.058603 0.117602 -0.180852
v -0.000000 0.073316 0.039870
v 0.034502 0.073197 0.033532
v 0.063752 0.072569 0.004979
v 0.083296 0.072037 -0.031954
v 0.090159 0.071784 -0.063559
v 0.088454 0.071644 -0.094960
v 0.063752 0.071391 -0.122720
v 0.034502 0.071271 -0.139853
v 0.177980 0.285094 0.043155
v 0.136432 0.285094 0.136163
v -0.000000 0.285094 0.220571
v 0.073837 0.285094 0.204587
v 0.134810 0.285094 -0.183541
v -0.073837 0.285094 0.204587
v 0.178252 0.285094 -0.116502
v -0.073662 0.285094 -0.222888
v 0.073661 0.285094 -0.222758
v -0.136433 0.285094 0.136163
v 0.190763 0.285094 -0.037589
v -0.178248 0.285094 -0.116848
v -0.134811 0.285094 -0.183883
v -0.177980 0.285094 0.043135
v -0.190759 0.285094 -0.037809
v 0.182620 0.190953 0.026004
v 0.139897 0.191898 0.120373
v -0.000002 0.192665 0.210514
v 0.075711 0.192565 0.193638
v 0.138948 0.188738 -0.191345
v -0.075714 0.192565 0.193625
v 0.191785 0.189631 -0.127142
v -0.075637 0.188233 -0.229684
v 0.075634 0.188233 -0.229380
v -0.139901 0.191898 0.120124
v 0.196453 0.190221 -0.051860
v -0.191780 0.189631 -0.128249
v -0.138950 0.188738 -0.192216
v -0.182620 0.190953 0.025365
v -0.196445 0.190221 -0.052817
v 0.177758 0.240832 0.038189
v 0.190732 0.241137 0.037994
v 0.136239 0.241225 0.130814
v 0.146330 0.241665 0.137294
v -0.000001 0.242022 0.229247
v -0.000001 0.241495 0.216033
v 0.073732 0.241459 0.199946
v 0.079108 0.241977 0.211955
v 0.134803 0.239395 -0.184294
v 0.144281 0.239460 -0.197040
v -0.073733 0.241459 0.199943
v -0.079107 0.241977 0.211940
v 0.178351 0.240023 -0.118521
v 0.198805 0.240176 -0.127530
v -0.078726 0.239020 -0.238179
v -0.073584 0.239001 -0.223067
v 0.078728 0.239020 -0.237971
v 0.073583 0.239001 -0.222893
v -0.136240 0.241225 0.130750
v -0.146330 0.241665 0.137172
v 0.190710 0.240413 -0.041173
v 0.204319 0.240627 -0.046038
v -0.178347 0.240022 -0.119061
v -0.198770 0.240176 -0.128232
v -0.144262 0.239460 -0.197622
v -0.134804 0.239395 -0.184770
v -0.177758 0.240831 0.038009
v -0.190731 0.241137 0.037678
v -0.204298 0.240627 -0.046613
v -0.190705 0.240412 -0.041581
v 0.021484 -0.003423 -0.015776
v 0.055078 -0.003423 -0.091834
v -0.021484 -0.003423 -0.015793
v 0.051866 -0.003423 -0.052084
v -0.051866 -0.003423 -0.052712
v 0.021484 -0.003423 -0.120623
v -0.055078 -0.003423 -0.092585
v -0.021484 -0.003423 -0.120626
v 0.000000 0.060780 -0.134933
v -0.021484 0.023532 -0.015793
v -0.027563 0.059007 0.007137
v -0.023264 0.043468 -0.009077
v 0.000000 0.058217 0.009260
v -0.051827 0.059684 -0.013203
v -0.051866 0.023532 -0.052712
v -0.068521 0.060069 -0.042230
v -0.056744 0.043779 -0.049642
v -0.074668 0.060306 -0.068194
v -0.055078 0.023532 -0.092585
v -0.073755 0.060604 -0.094578
v -0.060548 0.043935 -0.093169
v -0.053665 0.060986 -0.117788
v -0.029301 0.061406 -0.132287
v -0.021484 0.023532 -0.120626
v -0.023773 0.044170 -0.124041
v 0.027543 0.058966 0.007173
v 0.021484 0.023532 -0.015776
v 0.023258 0.043456 -0.009054
v 0.051812 0.059668 -0.012732
v 0.051866 0.023532 -0.052084
v 0.068512 0.060061 -0.041422
v 0.056741 0.043776 -0.048961
v 0.074660 0.060300 -0.067228
v 0.073753 0.060602 -0.093583
v 0.055078 0.023532 -0.091834
v 0.060548 0.043935 -0.092346
v 0.053681 0.061003 -0.117166
v 0.029329 0.061458 -0.132211
v 0.021484 0.023532 -0.120623
v 0.023781 0.044186 -0.124017
v 0.035667 0.764063 -0.433695
v 0.035668 0.764063 -0.463243
v -0.014774 0.764063 -0.484136
v -0.035667 0.764063 -0.463243
v -0.035667 0.764063 -0.433695
v 0.014774 0.764063 -0.412801
v 0.014774 0.764063 -0.484136
v -0.014774 0.764063 -0.412801
v 0.012117 0.770322 -0.419217
v 0.029252 0.770322 -0.436353
v 0.029252 0.770322 -0.460585
v 0.012117 0.770322 -0.477720
v -0.012116 0.770322 -0.477720
v -0.029251 0.770322 -0.460585
v -0.029251 0.770322 -0.436353
v -0.012116 0.770322 -0.419217
v 0.023351 0.765879 -0.458141
v 0.009673 0.765879 -0.471820
v -0.009672 0.765879 -0.471820
v -0.023351 0.765879 -0.438796
v -0.018443 0.771812 -0.440830
v 0.007639 0.771812 -0.466912
v 0.023351 0.765879 -0.438796
v 0.018443 0.771812 -0.440830
v -0.007639 0.771812 -0.466912
v -0.023351 0.765879 -0.458141
v -0.018443 0.771812 -0.456108
v 0.009673 0.765879 -0.425117
v 0.007639 0.771812 -0.430026
v -0.009672 0.765879 -0.425117
v -0.007639 0.771812 -0.430026
v 0.018443 0.771812 -0.456108
v 0.000000 -0.043268 -0.376266
v 0.037196 -0.058675 -0.376266
v 0.052603 -0.095871 -0.376266
v 0.037196 -0.133067 -0.376266
v 0.000000 -0.148474 -0.376266
v -0.037196 -0.133067 -0.376266
v -0.052603 -0.095871 -0.376266
v -0.037196 -0.058675 -0.376266
v 0.037196 -0.058675 -0.572242
v 0.000000 -0.043268 -0.572242
v 0.052603 -0.095871 -0.572242
v 0.037196 -0.133067 -0.572242
v 0.000000 -0.148474 -0.572242
v -0.037196 -0.133067 -0.572242
v -0.052603 -0.095871 -0.572242
v -0.037196 -0.058675 -0.572242
v 0.000000 -0.041101 -0.359270
v 0.037196 -0.055983 -0.355282
v 0.052603 -0.091912 -0.345655
v 0.037196 -0.127840 -0.336028
v 0.000000 -0.142722 -0.332040
v -0.037196 -0.127840 -0.336028
v -0.052603 -0.091912 -0.345655
v -0.037196 -0.055983 -0.355282
v 0.000000 -0.034609 -0.343414
v 0.037196 -0.047952 -0.335710
v 0.052603 -0.080165 -0.317112
v 0.037196 -0.112377 -0.298514
v 0.000000 -0.125720 -0.290811
v -0.037196 -0.112377 -0.298514
v -0.052603 -0.080165 -0.317112
v -0.037196 -0.047952 -0.335710
v 0.000000 -0.024235 -0.329778
v 0.037196 -0.035129 -0.318884
v 0.052603 -0.061430 -0.292582
v 0.037196 -0.087732 -0.266281
v -0.037196 -0.087732 -0.266281
v -0.052603 -0.061430 -0.292582
v -0.037196 -0.035129 -0.318884
v 0.000000 -0.001587 -0.296073
v 0.037196 -0.015822 -0.290177
v 0.052603 -0.050186 -0.275942
v 0.048599 -0.068784 -0.268239
v -0.048599 -0.068784 -0.268239
v -0.052603 -0.050186 -0.275942
v -0.037196 -0.015822 -0.290177
v 0.000000 0.006437 -0.255386
v 0.037196 -0.008970 -0.255386
v 0.052603 -0.046166 -0.255386
v 0.037196 -0.083362 -0.255386
v -0.037196 -0.083362 -0.255386
v -0.052603 -0.046166 -0.255386
v -0.037196 -0.008970 -0.255386
v 0.000000 -0.098626 -0.221386
v 0.000000 0.006437 -0.221386
v 0.037196 -0.008970 -0.221386
v 0.052603 -0.046166 -0.221386
v 0.037196 -0.083362 -0.221386
v -0.037196 -0.083362 -0.221386
v -0.052603 -0.046166 -0.221386
v -0.037196 -0.008970 -0.221386
v 0.044635 -0.051236 -0.582242
v 0.000000 -0.158995 -0.582242
v 0.044635 -0.140506 -0.582242
v -0.063123 -0.095871 -0.582242
v -0.044635 -0.140506 -0.582242
v 0.000000 -0.032748 -0.582242
v -0.044635 -0.051236 -0.582242
v 0.063124 -0.095871 -0.582242
v 0.044635 -0.051236 -0.602242
v 0.000000 -0.158995 -0.602242
v 0.044635 -0.140506 -0.602242
v -0.063123 -0.095871 -0.602242
v -0.044635 -0.140506 -0.602242
v 0.000000 -0.032748 -0.602242
v -0.044635 -0.051236 -0.602242
v 0.063124 -0.095871 -0.602242
v 0.000000 -0.109133 -0.211386
v 0.000000 0.016944 -0.211386
v 0.044635 -0.001545 -0.211386
v 0.063124 -0.046180 -0.211386
v 0.044635 -0.090815 -0.211386
v -0.044635 -0.090815 -0.211386
v -0.063124 -0.046180 -0.211386
v -0.044635 -0.001545 -0.211386
v 0.000000 -0.109133 -0.191386
v 0.000000 0.016944 -0.191386
v 0.044635 -0.001545 -0.191386
v 0.063124 -0.046180 -0.191386
v 0.044635 -0.090815 -0.191386
v -0.044635 -0.090815 -0.191386
v -0.063124 -0.046180 -0.191386
v -0.044635 -0.001545 -0.191386
v 0.000000 -0.098626 -0.241276
v 0.000000 -0.107186 -0.266578
v 0.000000 -0.101134 -0.254532
v -0.020130 -0.095280 -0.256802
v 0.020130 -0.095280 -0.256802
v 0.035667 0.754571 -0.433695
v 0.035668 0.754571 -0.463243
v -0.014774 0.754571 -0.484136
v -0.035667 0.754571 -0.463243
v -0.035667 0.754571 -0.433695
v 0.014774 0.754571 -0.412801
v 0.014774 0.754571 -0.484136
v -0.014774 0.754571 -0.412801
v -0.121656 0.290455 -0.305070
v -0.121656 0.290455 -0.296585
v -0.121656 0.297213 -0.305070
v -0.121656 0.297213 -0.296585
v -0.111656 0.285455 -0.228895
v -0.111656 0.290455 -0.228895
v 0.121655 0.290455 -0.305070
v 0.121655 0.290455 -0.296585
v 0.121655 0.297213 -0.305070
v 0.121655 0.297213 -0.296585
v 0.111656 0.285455 -0.228895
v 0.111656 0.290455 -0.228895
v -0.121656 0.285455 -0.300070
v 0.121655 0.285455 -0.300070
v -0.121653 0.285455 -0.296585
v 0.121653 0.285455 -0.296585
v -0.114858 0.297115 -0.280391
v -0.111157 0.297115 -0.286200
v -0.113368 0.297115 -0.273665
v -0.097132 0.297115 -0.277265
v -0.104432 0.297115 -0.287691
v -0.098623 0.297115 -0.283990
v -0.107558 0.297115 -0.269964
v -0.100833 0.297115 -0.271455
v -0.114858 0.290455 -0.280391
v -0.111157 0.290455 -0.286200
v -0.107558 0.290455 -0.269964
v -0.113368 0.290455 -0.273665
v -0.104432 0.290455 -0.287691
v -0.097132 0.290455 -0.277265
v -0.098623 0.290455 -0.283990
v -0.100833 0.290455 -0.271455
v 0.106003 0.297114 -0.269827
v 0.099639 0.297114 -0.272463
v 0.112367 0.297114 -0.272463
v 0.106003 0.297114 -0.287827
v 0.097003 0.297114 -0.278827
v 0.099639 0.297114 -0.285191
v 0.115003 0.297114 -0.278827
v 0.112367 0.297114 -0.285191
v 0.106003 0.290455 -0.269827
v 0.099639 0.290455 -0.272463
v 0.115003 0.290455 -0.278827
v 0.112367 0.290455 -0.272463
v 0.097003 0.290455 -0.278827
v 0.106003 0.290455 -0.287827
v 0.099639 0.290455 -0.285191
v 0.112367 0.290455 -0.285191
v 0.267519 0.754571 -0.394739
v 0.229326 0.754571 -0.341116
v -0.267508 0.754571 -0.500778
v -0.229366 0.754571 -0.553407
v -0.267519 0.754571 -0.394739
v 0.229366 0.754571 -0.553407
v 0.267508 0.754571 -0.500778
v -0.229326 0.754571 -0.341116
v 0.281202 0.725535 -0.389808
v 0.236661 0.725535 -0.327070
v -0.281173 0.725535 -0.505803
v -0.236608 0.725535 -0.567453
v -0.281202 0.725535 -0.389808
v 0.236608 0.725535 -0.567453
v 0.281173 0.725535 -0.505803
v -0.236661 0.725535 -0.327070
v -0.158805 0.312393 -0.507542
v -0.158805 0.312393 -0.347719
v -0.223978 0.513261 -0.552731
v -0.223978 0.513261 -0.336218
v -0.137608 0.285845 -0.496875
v -0.137608 0.285845 -0.358385
v -0.197003 0.406469 -0.340494
v -0.197190 0.406439 -0.532614
v -0.231338 0.612788 -0.333436
v -0.231272 0.612788 -0.560843
v 0.137608 0.285845 -0.496875
v 0.137608 0.285845 -0.358385
v 0.158805 0.312393 -0.507542
v 0.158805 0.312393 -0.347719
v 0.223978 0.513261 -0.552731
v 0.231272 0.612788 -0.560843
v 0.223978 0.513261 -0.336218
v 0.231338 0.612788 -0.333436
v 0.197190 0.406439 -0.532614
v 0.197003 0.406469 -0.340494
v 0.271351 0.612788 -0.390895
v 0.198898 0.312393 -0.387675
v 0.174698 0.285845 -0.393008
v 0.262165 0.513261 -0.390276
v 0.236378 0.406007 -0.389122
v 0.198898 0.312393 -0.467586
v 0.174698 0.285845 -0.462253
v 0.262165 0.513261 -0.498533
v 0.271318 0.612788 -0.504599
v 0.236472 0.405992 -0.485182
v -0.236472 0.405992 -0.485182
v -0.262165 0.513261 -0.498533
v -0.236378 0.406007 -0.389122
v -0.262165 0.513261 -0.390276
v -0.271318 0.612788 -0.504599
v -0.198897 0.312393 -0.387675
v -0.271351 0.612788 -0.390896
v -0.198897 0.312393 -0.467586
v -0.174698 0.285845 -0.462253
v -0.174698 0.285845 -0.393008
v 0.271351 0.725535 -0.390895
v 0.231338 0.725535 -0.333436
v -0.271318 0.725535 -0.504599
v -0.231272 0.725535 -0.560843
v -0.271351 0.725535 -0.390896
v 0.231272 0.725535 -0.560843
v 0.271318 0.725535 -0.504599
v -0.231338 0.725535 -0.333436
v -0.094987 0.285094 0.263611
v -0.175514 0.285094 0.179277
v -0.228936 0.285094 0.067509
v -0.242826 0.285094 -0.032253
v -0.231978 0.285094 -0.132015
v -0.171202 0.285845 -0.228895
v -0.081656 0.285845 -0.278805
v -0.000000 0.285094 0.283455
v 0.094987 0.285094 0.263611
v 0.175514 0.285094 0.179277
v 0.228935 0.285094 0.067509
v 0.242826 0.285094 -0.032253
v 0.231978 0.285094 -0.132015
v 0.081657 0.285845 -0.278805
v 0.171201 0.285845 -0.228895
v 0.154164 0.285094 0.036818
v 0.118176 0.285094 0.117380
v 0.000000 0.285094 0.190493
v 0.063957 0.285094 0.176649
v 0.116772 0.285094 -0.159543
v -0.063957 0.285094 0.176649
v 0.154400 0.285094 -0.101475
v -0.063805 0.285094 -0.193625
v 0.063805 0.285094 -0.193512
v -0.118176 0.285094 0.117380
v 0.165237 0.285094 -0.033122
v -0.154396 0.285094 -0.101774
v -0.116771 0.285094 -0.159839
v -0.154164 0.285094 0.036801
v -0.165233 0.285094 -0.033312
v -0.228936 0.305094 0.067509
v -0.242826 0.305094 -0.032253
v -0.000000 0.305094 0.283455
v 0.094987 0.305094 0.263611
v 0.175514 0.305094 0.179277
v -0.231978 0.305094 -0.132015
v 0.228935 0.305094 0.067509
v 0.242826 0.305094 -0.032253
v -0.171202 0.305845 -0.228895
v -0.081656 0.305845 -0.278805
v 0.231978 0.305094 -0.132015
v 0.081657 0.305845 -0.278805
v 0.171201 0.305845 -0.228895
v -0.094987 0.305094 0.263611
v -0.175514 0.305094 0.179277
v -0.154397 0.305094 -0.101774
v -0.063805 0.305094 -0.193624
v 0.154164 0.305094 0.036818
v 0.118176 0.305094 0.117380
v -0.000000 0.305094 0.190493
v 0.063957 0.305094 0.176649
v 0.116773 0.305094 -0.159543
v -0.063958 0.305094 0.176648
v 0.154400 0.305094 -0.101475
v 0.063805 0.305094 -0.193512
v -0.118176 0.305094 0.117380
v 0.165238 0.305094 -0.033122
v -0.116771 0.305094 -0.159839
v -0.154164 0.305094 0.036800
v -0.165232 0.305094 -0.033312
v -0.044807 0.046848 0.073406
v -0.099873 0.047396 0.001813
v -0.098007 0.197951 0.261347
v -0.181162 0.198490 0.179654
v -0.236714 0.199082 0.072213
v -0.249618 0.199046 -0.033421
v -0.234705 0.196660 -0.140495
v -0.240181 0.235900 -0.139975
v -0.162838 0.235892 -0.371457
v -0.088127 0.235587 -0.403495
v -0.081308 0.112371 0.188550
v -0.000000 0.112343 0.206856
v -0.150363 0.112447 0.130698
v -0.196656 0.112542 0.052492
v -0.212624 0.112587 -0.032696
v -0.195773 0.111755 -0.113565
v -0.081308 0.110109 -0.246092
v -0.097910 0.181817 -0.324145
v -0.098491 0.197399 -0.334505
v -0.000000 0.197810 0.285257
v 0.098007 0.197951 0.261347
v 0.181162 0.198490 0.179654
v 0.236714 0.199082 0.072213
v 0.249617 0.199046 -0.033421
v 0.234706 0.196660 -0.140482
v 0.240181 0.235900 -0.139975
v 0.162838 0.235892 -0.371457
v 0.088128 0.235587 -0.403495
v 0.081308 0.112371 0.188550
v 0.150363 0.112447 0.130698
v 0.196656 0.112542 0.052631
v 0.212631 0.112587 -0.032000
v 0.195779 0.111755 -0.112446
v 0.081309 0.110109 -0.245835
v 0.097910 0.181817 -0.324144
v 0.098491 0.197399 -0.334505
v -0.064209 0.078512 -0.191385
v 0.047734 -0.234545 0.119338
v 0.113953 -0.234545 0.025598
v 0.113661 -0.234545 -0.120297
v -0.113661 -0.234545 -0.120297
v -0.113953 -0.234545 0.025598
v -0.047734 -0.234545 0.119338
v 0.044807 0.046848 0.073406
v 0.099873 0.047396 0.001813
v 0.100045 0.062954 -0.117041
v -0.100045 0.062954 -0.117041
v 0.073836 -0.234545 -0.191387
v -0.073836 -0.234545 -0.191387
v 0.064209 0.078512 -0.191214
vn -0.0000 1.0000 -0.0000
vn -0.2543 0.6456 0.7201
vn -0.3061 0.3786 0.8735
vn 0.3018 0.3775 0.8754
vn 0.2490 0.6455 0.7221
vn 0.2263 0.6968 0.6807
vn 0.2473 0.5970 0.7632
vn -0.0014 0.5723 0.8201
vn -0.2550 0.5961 0.7614
vn -0.2327 0.6964 0.6789
vn 0.7648 0.4175 -0.4908
vn 0.7958 0.2777 -0.5381
vn 0.4574 0.3404 -0.8215
vn 0.4511 0.4744 -0.7560
vn 0.8704 0.3470 0.3494
vn 0.9268 0.1409 0.3482
vn 0.9844 0.1655 -0.0599
vn 0.9365 0.3473 -0.0487
vn 0.6090 0.3610 0.7063
vn 0.3251 0.1685 0.9305
vn 0.6538 0.1445 0.7427
vn -0.8703 0.3486 0.3478
vn -0.9262 0.1436 0.3487
vn -0.6555 0.1485 0.7404
vn -0.6113 0.3630 0.7032
vn 0.6965 0.6686 0.2604
vn 0.4909 0.6548 0.5747
vn 0.0003 0.7832 -0.6218
vn 0.0008 0.9050 -0.4253
vn 0.2204 0.8930 -0.3923
vn 0.3346 0.7615 -0.5551
vn 0.4290 0.8484 -0.3101
vn 0.5802 0.7176 -0.3853
vn 0.5405 0.8185 -0.1948
vn 0.6921 0.6833 -0.2324
vn 0.5940 0.8029 -0.0496
vn 0.7417 0.6681 -0.0586
vn 0.5685 0.7880 0.2365
vn 0.4322 0.7292 0.5305
vn -0.2181 0.8933 -0.3930
vn -0.2389 0.8260 -0.5106
vn 0.0010 0.8327 -0.5538
vn 0.9100 0.1291 0.3941
vn 0.9192 0.1413 -0.3675
vn 0.9270 -0.0000 -0.3751
vn 0.9221 -0.0000 0.3871
vn -0.9177 0.1419 -0.3712
vn -0.9254 -0.0000 -0.3790
vn -0.4231 -0.0000 -0.9061
vn -0.4251 0.1716 -0.8888
vn -0.3700 0.0991 0.9237
vn -0.3739 -0.0000 0.9275
vn -0.9246 -0.0000 0.3809
vn -0.9126 0.1284 0.3882
vn 0.7982 0.4943 0.3443
vn 0.7968 0.5173 -0.3122
vn -0.4266 0.8491 -0.3115
vn -0.4731 0.7971 -0.3752
vn 0.6421 0.7160 0.2739
vn 0.4682 0.6615 0.5859
vn 0.2429 0.8252 -0.5099
vn -0.7946 0.5192 -0.3147
vn -0.3378 0.6013 -0.7241
vn 0.4774 0.7954 -0.3734
vn -0.5937 0.8031 -0.0502
vn -0.5700 0.7874 0.2346
vn -0.6447 0.7143 0.2722
vn -0.6636 0.7460 -0.0561
vn -0.0017 1.0000 0.0034
vn -0.0014 1.0000 0.0031
vn -0.0006 1.0000 0.0015
vn -0.0008 1.0000 0.0037
vn -0.0010 1.0000 0.0037
vn -0.4505 0.4742 -0.7564
vn -0.3336 0.7615 -0.5558
vn 0.0001 0.4961 -0.8683
vn -0.7642 0.4169 -0.4921
vn -0.5792 0.7175 -0.3868
vn -0.8867 0.3744 -0.2713
vn -0.6919 0.6832 -0.2337
vn -0.9365 0.3473 -0.0492
vn -0.7418 0.6681 -0.0590
vn 0.0001 0.3574 -0.9339
vn 0.8868 0.3750 -0.2700
vn 0.9288 0.2203 -0.2980
vn -0.5392 0.8191 -0.1960
vn -0.6969 0.6686 0.2592
vn -0.4944 0.6549 0.5716
vn -0.4381 0.7282 0.5270
vn 0.6247 0.7438 -0.2379
vn 0.6640 0.7457 -0.0559
vn -0.4765 0.6593 0.5816
vn -0.6226 0.7451 -0.2391
vn 0.0017 1.0000 0.0034
vn 0.0006 1.0000 0.0015
vn 0.0014 1.0000 0.0031
vn 0.0008 1.0000 0.0037
vn 0.0010 1.0000 0.0037
vn -0.7955 0.2768 -0.5390
vn -0.9289 0.2190 -0.2986
vn -0.9844 0.1653 -0.0598
vn -0.4570 0.3402 -0.8218
vn 0.0043 -1.0000 -0.0000
vn -0.0043 -1.0000 -0.0000
vn -0.0109 -0.9999 0.0034
vn -0.0078 -1.0000 0.0016
vn -0.0081 -1.0000 0.0018
vn -0.0110 -0.9999 0.0035
vn 0.0170 -0.9993 0.0346
vn -0.0000 -0.9992 0.0397
vn 0.0184 -0.9993 0.0339
vn 0.0276 -0.9994 0.0229
vn 0.0238 -0.9996 0.0123
vn 0.0250 -0.9996 0.0139
vn 0.0156 -0.9999 0.0058
vn 0.0177 -0.9998 0.0070
vn 0.0109 -0.9999 0.0035
vn -0.3288 0.1706 0.9289
vn -0.0179 -0.9998 0.0071
vn -0.0252 -0.9996 0.0139
vn -0.0239 -0.9996 0.0123
vn -0.0157 -0.9999 0.0058
vn -0.0277 -0.9994 0.0230
vn -0.0277 -0.9994 0.0229
vn -0.0184 -0.9993 0.0339
vn -0.0171 -0.9993 0.0347
vn 0.0080 -1.0000 0.0018
vn 0.0078 -1.0000 0.0016
vn 0.3419 0.6007 -0.7226
vn -0.8014 0.4919 0.3404
vn -0.3266 0.3780 0.8663
vn 0.3201 0.3787 0.8684
vn 0.3639 0.0992 0.9261
vn 0.4293 0.1715 -0.8867
vn 0.4271 -0.0000 -0.9042
vn 0.3678 -0.0000 0.9299
vn 0.2851 0.6671 -0.6882
vn -0.2851 0.6671 -0.6882
vn -0.2562 0.7428 -0.6186
vn -0.6186 0.7428 -0.2562
vn 0.5276 0.8209 -0.2185
vn 0.2186 0.8209 -0.5276
vn 0.5276 0.8209 -0.2186
vn 0.6186 0.7428 -0.2562
vn 0.6186 0.7428 0.2562
vn 0.2562 0.7428 -0.6186
vn -0.2562 0.7428 0.6186
vn -0.6186 0.7428 0.2562
vn 0.2562 0.7428 0.6186
vn -0.5276 0.8209 -0.2185
vn -0.5276 0.8209 0.2185
vn -0.5276 0.8209 -0.2186
vn -0.6882 0.6671 0.2851
vn -0.2851 0.6671 0.6882
vn -0.2185 0.8209 0.5276
vn 0.2185 0.8209 0.5276
vn 0.5276 0.8209 0.2186
vn 0.5276 0.8209 0.2185
vn -0.2186 0.8209 -0.5276
vn -0.6882 0.6671 -0.2851
vn 0.2851 0.6671 0.6882
vn 0.6882 0.6671 0.2851
vn 0.6882 0.6671 -0.2851
vn 1.0000 -0.0080 0.0011
vn 1.0000 -0.0000 -0.0000
vn 0.7071 0.7071 -0.0000
vn 0.7103 0.7024 -0.0450
vn 0.6991 -0.6910 0.1839
vn 0.7024 -0.7103 0.0460
vn 0.9999 -0.0157 0.0042
vn -0.0000 0.9979 -0.0646
vn 0.7071 -0.7071 -0.0000
vn -1.0000 -0.0079 0.0010
vn -1.0000 -0.0000 -0.0000
vn -0.7071 -0.7071 -0.0000
vn -0.7024 -0.7103 0.0460
vn -0.7103 0.7024 -0.0450
vn -0.7071 0.7071 -0.0000
vn -0.7153 0.6756 -0.1786
vn -0.0000 0.9669 -0.2552
vn 0.4872 0.4872 0.7248
vn 0.6889 -0.0000 0.7248
vn 0.6991 -0.6199 0.3565
vn -0.0000 -0.8668 0.4986
vn -0.0000 -0.9663 0.2573
vn -0.6991 -0.6910 0.1839
vn -0.9999 -0.0157 0.0042
vn -0.7153 0.6064 -0.3474
vn -0.0000 0.8679 -0.4967
vn 0.7153 0.6756 -0.1786
vn -0.0000 -0.9979 0.0652
vn 0.7153 0.6063 -0.3474
vn -0.9999 -0.0141 0.0081
vn -0.6991 -0.6199 0.3564
vn 0.9999 -0.0141 0.0081
vn -0.0000 0.8129 -0.5824
vn 0.7002 0.5804 -0.4158
vn -1.0000 0.0035 -0.0016
vn -0.7002 0.5804 -0.4158
vn -0.7166 -0.6008 0.3545
vn -0.4272 -0.8545 0.2957
vn -0.7238 -0.6794 0.1202
vn -0.6952 0.6640 -0.2755
vn -0.0000 0.9237 -0.3831
vn 1.0000 0.0035 -0.0016
vn 0.9997 0.0230 -0.0096
vn 0.6952 0.6640 -0.2755
vn 0.7165 -0.6008 0.3545
vn -0.0025 -0.8284 0.5601
vn 0.6995 0.7112 -0.0697
vn -0.0000 0.9955 -0.0949
vn 0.9338 -0.3302 0.1374
vn -0.9338 -0.3302 0.1374
vn -0.9997 0.0230 -0.0096
vn 0.7238 -0.6794 0.1202
vn 0.9999 0.0120 -0.0024
vn 0.7060 -0.7083 -0.0000
vn -0.9999 0.0120 -0.0024
vn -0.6995 0.7112 -0.0697
vn 0.4351 -0.8510 0.2941
vn -0.0024 -0.9983 0.0582
vn -0.0179 -0.9471 0.3204
vn -0.0000 -1.0000 -0.0000
vn -0.4872 -0.4872 0.7248
vn -0.6889 -0.0000 0.7248
vn -0.0000 0.6889 0.7248
vn -0.4872 0.4872 0.7248
vn 0.4872 -0.4872 0.7248
vn -0.0000 -0.6889 0.7248
vn 0.4860 -0.4878 -0.7251
vn 0.6889 0.0002 -0.7248
vn 0.6889 -0.0001 -0.7248
vn 0.4868 -0.4870 -0.7251
vn -0.6889 -0.0007 -0.7248
vn -0.4860 -0.4878 -0.7251
vn -0.4868 -0.4870 -0.7251
vn -0.6889 -0.0001 -0.7248
vn 0.4873 0.4875 -0.7245
vn -0.0000 0.6894 -0.7243
vn 0.4875 0.4873 -0.7245
vn -0.4873 0.4875 -0.7245
vn -0.4875 0.4873 -0.7245
vn -0.0000 -0.6894 -0.7243
vn 0.7071 -0.7072 -0.0000
vn -0.7060 -0.7083 -0.0000
vn -0.7071 -0.7072 -0.0000
vn 0.9239 -0.0000 -0.3827
vn 0.9239 -0.0000 0.3827
vn -0.3827 -0.0000 -0.9239
vn 0.3827 -0.0000 -0.9239
vn 0.3827 -0.0000 0.9239
vn -0.3827 -0.0000 0.9239
vn -0.9239 -0.0000 0.3827
vn -0.9239 -0.0000 -0.3827
vn -0.0000 -0.0000 1.0000
vn -0.0000 -0.7071 -0.7071
vn 0.9893 -0.0003 0.1461
vn -0.0000 -0.0000 -1.0000
vn 1.0000 -0.0002 0.0002
vn -0.9893 -0.0003 0.1461
vn -1.0000 -0.0002 0.0002
vn 0.1736 -0.0000 -0.9848
vn 0.8192 -0.0000 -0.5736
vn 0.9848 -0.0000 0.1736
vn -0.1736 -0.0000 0.9848
vn 0.5736 -0.0000 0.8192
vn -0.5736 -0.0000 -0.8192
vn -0.9848 -0.0000 -0.1736
vn -0.8192 -0.0000 0.5736
vn -0.7071 -0.0000 -0.7071
vn 0.7071 -0.0000 -0.7071
vn -0.7071 -0.0000 0.7071
vn 0.7071 -0.0000 0.7071
vn -0.3992 0.4775 -0.7827
vn -0.4000 0.4775 -0.7823
vn -0.8370 0.4486 -0.3134
vn -0.8367 0.4486 -0.3142
vn 0.3992 0.4775 -0.7827
vn 0.8367 0.4486 -0.3142
vn 0.8370 0.4486 -0.3134
vn 0.4000 0.4775 -0.7823
vn -0.4021 0.4783 0.7807
vn -0.4032 0.4783 0.7801
vn 0.4032 0.4783 0.7801
vn 0.4021 0.4783 0.7807
vn -0.8384 0.4484 0.3099
vn -0.8388 0.4484 0.3089
vn 0.8388 0.4484 0.3089
vn 0.8384 0.4484 0.3099
vn 0.7658 -0.5448 -0.3417
vn 0.8724 -0.3362 -0.3548
vn 0.8896 -0.2836 0.3580
vn 0.7773 -0.5114 0.3664
vn -0.4674 -0.1000 0.8784
vn 0.4674 -0.1000 0.8784
vn 0.4686 -0.0289 0.8829
vn -0.4686 -0.0289 0.8829
vn 0.9417 -0.0448 0.3334
vn 0.9379 -0.0546 -0.3425
vn 0.7134 0.6460 -0.2718
vn 0.7122 0.6496 0.2660
vn -0.7658 -0.5448 -0.3417
vn -0.7773 -0.5114 0.3664
vn -0.8896 -0.2836 0.3580
vn -0.8724 -0.3362 -0.3548
vn -0.3455 -0.4555 -0.8204
vn -0.2166 -0.4997 -0.8387
vn -0.6425 -0.6851 -0.3432
vn -0.6425 -0.6851 0.3432
vn 0.6425 -0.6851 -0.3432
vn 0.2166 -0.4997 -0.8387
vn 0.3455 -0.4555 -0.8204
vn 0.4239 -0.1767 0.8883
vn -0.4239 -0.1767 0.8883
vn -0.3526 -0.3733 0.8581
vn 0.3526 -0.3733 0.8581
vn 0.9297 -0.1546 0.3345
vn 0.9222 -0.1864 -0.3389
vn -0.9222 -0.1864 -0.3389
vn -0.9297 -0.1546 0.3345
vn -0.9417 -0.0448 0.3334
vn 0.2166 -0.4997 0.8387
vn -0.2166 -0.4997 0.8387
vn -0.4545 -0.1803 -0.8723
vn 0.4545 -0.1803 -0.8723
vn 0.4053 -0.3099 -0.8600
vn -0.4053 -0.3099 -0.8600
vn -0.4615 -0.0526 -0.8856
vn 0.4615 -0.0526 -0.8856
vn 0.6425 -0.6851 0.3432
vn -0.9379 -0.0546 -0.3425
vn 0.3601 0.6187 -0.6982
vn 0.3640 0.6180 0.6969
vn -0.3600 0.6187 -0.6983
vn -0.7134 0.6460 -0.2718
vn -0.7114 0.6506 0.2656
vn -0.3639 0.6180 0.6969
vn -0.9303 -0.0144 0.3664
vn -0.9346 -0.0142 0.3555
vn -0.7033 -0.0129 0.7107
vn -0.7005 -0.0129 0.7136
vn -0.3406 -0.0057 0.9402
vn 0.3383 -0.0063 0.9410
vn 0.3370 -0.0065 0.9415
vn -0.3394 -0.0052 0.9406
vn 0.9348 -0.0155 0.3549
vn 0.9301 -0.0157 0.3669
vn 0.6991 -0.0147 0.7149
vn 0.7024 -0.0148 0.7116
vn -1.0000 0.0033 0.0078
vn -0.9999 0.0048 -0.0088
vn 0.8407 0.0663 -0.5374
vn 0.8294 0.0680 -0.5544
vn 0.4892 0.0959 -0.8669
vn 0.5065 0.0952 -0.8570
vn 0.9999 0.0048 -0.0091
vn 1.0000 0.0032 0.0083
vn 0.9604 0.0351 -0.2765
vn 0.9550 0.0375 -0.2941
vn -0.0000 0.1049 -0.9945
vn -0.4891 0.0957 -0.8669
vn -0.5064 0.0949 -0.8571
vn -0.9550 0.0366 -0.2942
vn -0.9602 0.0343 -0.2771
vn -0.8406 0.0655 -0.5377
vn -0.8294 0.0673 -0.5546
vn -0.3244 -0.0000 -0.9459
vn 0.3244 -0.0000 -0.9459
vn 0.3244 -0.0001 -0.9459
vn 0.0030 -1.0000 -0.0067
vn 0.0007 -1.0000 -0.0029
vn 0.0007 -1.0000 -0.0028
vn 0.0028 -1.0000 -0.0066
vn 0.0023 -1.0000 -0.0082
vn 0.0022 -1.0000 -0.0082
vn -0.0030 -1.0000 -0.0067
vn -0.0028 -1.0000 -0.0066
vn -0.0007 -1.0000 -0.0029
vn -0.0023 -1.0000 -0.0082
vn -0.0022 -1.0000 -0.0082
vn 0.3402 -0.0000 0.9404
vn -0.3422 -0.0000 0.9396
vn -0.3421 -0.0000 0.9396
vn -0.0030 1.0000 0.0067
vn -0.0028 1.0000 0.0066
vn -0.0007 1.0000 0.0028
vn -0.0007 1.0000 0.0029
vn 0.0007 1.0000 0.0029
vn 0.0028 1.0000 0.0066
vn 0.0030 1.0000 0.0067
vn -0.6889 -0.0000 -0.7248
vn -0.6882 -0.0000 -0.7255
vn -0.0023 1.0000 0.0082
vn -0.0022 1.0000 0.0082
vn 0.0022 1.0000 0.0082
vn 0.0023 1.0000 0.0082
vn 0.9999 -0.0000 0.0150
vn 0.9448 -0.0000 -0.3277
vn 0.9445 -0.0000 -0.3286
vn -0.9448 -0.0000 -0.3277
vn -0.9445 -0.0000 -0.3286
vn 0.6889 -0.0000 -0.7248
vn 0.6882 -0.0000 -0.7255
vn -0.9999 -0.0000 0.0150
vn -0.9576 -0.0000 0.2880
vn -0.8230 -0.0000 0.5680
vn -0.4857 -0.0000 0.8741
vn 0.4857 -0.0000 0.8741
vn 0.8230 -0.0000 0.5680
vn 0.9576 -0.0000 0.2880
vn 0.4982 -0.0000 -0.8671
vn -0.7054 -0.0000 0.7088
vn 0.7046 -0.0000 0.7096
vn -0.9337 -0.0000 0.3580
vn 0.9338 -0.0000 0.3579
vn -1.0000 -0.0000 0.0001
vn 1.0000 -0.0000 0.0002
vn -0.9587 -0.0000 -0.2846
vn 0.9587 -0.0000 -0.2843
vn -0.8362 -0.0000 -0.5485
vn 0.8362 -0.0000 -0.5484
vn -0.4982 -0.0000 -0.8671
vn -0.0000 -0.7796 0.6262
vn 0.3125 -0.7541 0.5776
vn 0.4424 -0.3736 0.8153
vn -0.0000 -0.4016 0.9158
vn -0.9237 -0.2396 0.2988
vn -0.7034 -0.6674 0.2443
vn -0.5569 -0.7078 0.4346
vn -0.7629 -0.3017 0.5718
vn -0.9728 -0.2318 0.0049
vn -0.7512 -0.6600 -0.0126
vn -0.6695 -0.6907 -0.2732
vn -0.8703 -0.3343 -0.3618
vn 0.5568 -0.7078 0.4347
vn 0.7629 -0.3017 0.5719
vn -0.0000 -0.1250 0.9922
vn 0.4740 -0.1085 0.8738
vn -0.8099 -0.0562 0.5839
vn -0.9573 -0.0225 0.2884
vn -0.9993 -0.0319 0.0180
vn 0.8697 -0.3356 -0.3620
vn 0.9579 -0.0926 -0.2716
vn 0.9727 -0.2320 0.0046
vn -0.4740 -0.1085 0.8738
vn -0.4424 -0.3736 0.8153
vn -0.7844 -0.1454 -0.6030
vn -0.6534 -0.2024 -0.7294
vn -0.1718 -0.3016 -0.9378
vn -0.1997 -0.3000 -0.9328
vn -0.4238 -0.5402 -0.7270
vn -0.9580 -0.0925 -0.2716
vn -0.4093 -0.4378 -0.8005
vn -0.4474 -0.8594 -0.2476
vn -0.3113 -0.7703 -0.5565
vn -0.2449 -0.8667 -0.4345
vn 0.2143 -0.8966 0.3876
vn -0.4436 -0.8839 -0.1482
vn -0.3562 -0.8846 -0.3011
vn -0.2256 -0.8976 -0.3787
vn 0.1997 -0.3000 -0.9328
vn 0.1719 -0.3016 -0.9378
vn 0.4093 -0.4379 -0.8005
vn 0.4238 -0.5407 -0.7266
vn 0.2256 -0.8976 -0.3787
vn -0.0853 -0.8662 -0.4923
vn 0.0853 -0.8662 -0.4923
vn 0.9238 -0.2394 0.2989
vn 0.7033 -0.6674 0.2448
vn 0.7513 -0.6599 -0.0119
vn -0.4550 -0.8829 0.1165
vn -0.3125 -0.7541 0.5776
vn 0.3123 -0.7703 -0.5560
vn 0.6697 -0.6911 -0.2717
vn 0.8099 -0.0562 0.5839
vn 0.9573 -0.0225 0.2884
vn 0.9993 -0.0319 0.0180
vn 0.9784 -0.0367 -0.2033
vn 0.4436 -0.8839 -0.1482
vn 0.3562 -0.8846 -0.3011
vn 0.7844 -0.1454 -0.6030
vn 0.6534 -0.2024 -0.7294
vn 0.4550 -0.8829 0.1162
vn -0.2142 -0.8966 0.3876
vn -0.9784 -0.0367 -0.2033
vn 0.4486 -0.8584 -0.2488
vn 0.2472 -0.8659 -0.4347
vn 0.8882 0.0362 -0.4579
vn 0.8882 0.0362 -0.4580
vn 0.9652 0.0427 -0.2580
vn 0.9711 0.0433 -0.2347
vn -0.9431 0.0773 0.3233
vn -0.4316 0.1458 0.8902
vn -0.4650 0.1432 0.8737
vn -0.9550 0.0742 0.2870
vn -0.8883 0.0362 -0.4579
vn -0.9712 0.0433 -0.2344
vn -0.9653 0.0427 -0.2577
vn -0.8881 0.0363 -0.4582
vn 0.9431 0.0773 0.3233
vn 0.9550 0.0742 0.2870
vn 0.4650 0.1432 0.8737
vn 0.4316 0.1458 0.8902
vt 0.883519 0.679374
vt 0.909389 0.681313
vt 0.912891 0.706464
vt 0.878347 0.704125
vt 0.898580 0.281738
vt 0.905752 0.254395
vt 0.953093 0.288115
vt 0.929378 0.303670
vt 0.912049 0.311800
vt 0.908414 0.313521
vt 0.902237 0.308704
vt 0.895928 0.304599
vt 0.896369 0.300689
vt 0.896536 0.414639
vt 0.897493 0.438612
vt 0.851680 0.438969
vt 0.858680 0.417149
vt 0.965999 0.343904
vt 0.987767 0.348892
vt 0.974068 0.385498
vt 0.955113 0.370973
vt 0.964362 0.313487
vt 0.973721 0.274319
vt 0.987882 0.308887
vt 0.849241 0.260093
vt 0.837899 0.241191
vt 0.875147 0.228610
vt 0.878270 0.252001
vt 0.937942 0.339924
vt 0.936184 0.320312
vt 0.850801 0.379612
vt 0.873090 0.349123
vt 0.882768 0.353592
vt 0.868693 0.387294
vt 0.894933 0.351790
vt 0.893367 0.382922
vt 0.905804 0.346060
vt 0.916575 0.369767
vt 0.912413 0.339370
vt 0.929584 0.355476
vt 0.916738 0.331310
vt 0.915796 0.320786
vt 0.865903 0.341301
vt 0.873144 0.335813
vt 0.878947 0.341104
vt 0.902125 0.325893
vt 0.897933 0.332141
vt 0.895305 0.328807
vt 0.898160 0.325076
vt 0.881704 0.320494
vt 0.885704 0.321843
vt 0.885794 0.327298
vt 0.882243 0.329567
vt 0.894240 0.313782
vt 0.893603 0.317511
vt 0.888570 0.318141
vt 0.886361 0.314685
vt 0.906632 0.327151
vt 0.900470 0.335919
vt 0.863923 0.329289
vt 0.870780 0.327248
vt 0.522934 0.310411
vt 0.522160 0.295677
vt 0.531171 0.283652
vt 0.533411 0.321414
vt 0.912891 0.706464
vt 0.909389 0.681313
vt 0.933746 0.672379
vt 0.945483 0.694778
vt 0.911951 0.329171
vt 0.911449 0.320679
vt 0.885783 0.345049
vt 0.877335 0.319249
vt 0.878226 0.332147
vt 0.894778 0.344641
vt 0.870329 0.309128
vt 0.876569 0.302601
vt 0.880110 0.306406
vt 0.875145 0.311749
vt 0.827088 0.480631
vt 0.844398 0.550250
vt 0.832798 0.575109
vt 0.809600 0.571175
vt 0.844398 0.550249
vt 0.850207 0.467564
vt 0.863338 0.534015
vt 0.812716 0.383237
vt 0.838148 0.364846
vt 0.832138 0.404971
vt 0.803947 0.346644
vt 0.834906 0.340167
vt 0.811007 0.305513
vt 0.840314 0.314405
vt 0.827331 0.278608
vt 0.849752 0.297877
vt 0.851576 0.438967
vt 0.816601 0.426060
vt 0.934176 0.395224
vt 0.945222 0.416770
vt 0.897543 0.438644
vt 0.973991 0.385483
vt 0.945295 0.416826
vt 0.866048 0.317352
vt 0.861758 0.285265
vt 0.880754 0.280738
vt 0.886782 0.300143
vt 0.903144 0.340732
vt 0.908377 0.335625
vt 0.845739 0.678286
vt 0.858988 0.659066
vt 0.883519 0.679374
vt 0.878346 0.704125
vt 0.840452 0.629400
vt 0.858988 0.659066
vt 0.845739 0.678286
vt 0.821360 0.641416
vt 0.832281 0.602541
vt 0.840453 0.629400
vt 0.821360 0.641416
vt 0.811542 0.606842
vt 0.832798 0.575109
vt 0.832281 0.602541
vt 0.811543 0.606843
vt 0.809600 0.571174
vt 0.888282 0.304155
vt 0.871934 0.318213
vt 0.933734 0.465780
vt 0.975293 0.548102
vt 0.954034 0.558108
vt 0.936087 0.537363
vt 0.951795 0.646142
vt 0.969791 0.661012
vt 0.945483 0.694778
vt 0.933746 0.672379
vt 0.961520 0.612535
vt 0.983170 0.618884
vt 0.969791 0.661012
vt 0.951795 0.646142
vt 0.962033 0.584397
vt 0.983169 0.582944
vt 0.983169 0.618883
vt 0.961520 0.612534
vt 0.954034 0.558108
vt 0.975293 0.548101
vt 0.983168 0.582945
vt 0.962032 0.584397
vt 0.863339 0.534014
vt 0.907924 0.459527
vt 0.913440 0.526992
vt 0.913441 0.526992
vt 0.936086 0.537363
vt 0.987837 0.308916
vt 0.987843 0.348890
vt 0.780973 0.352727
vt 0.787516 0.301479
vt 0.808064 0.265217
vt 0.837920 0.241261
vt 0.787443 0.301428
vt 0.808101 0.265284
vt 0.816541 0.426016
vt 0.794039 0.396388
vt 0.794006 0.396289
vt 0.781018 0.352765
vt 0.874226 0.884521
vt 0.924144 0.891431
vt 0.925451 0.895395
vt 0.871899 0.887983
vt 0.969834 0.863797
vt 0.948187 0.885580
vt 0.946475 0.881317
vt 0.964151 0.860937
vt 0.948732 0.884800
vt 0.924430 0.895627
vt 0.892703 0.737766
vt 0.920141 0.735295
vt 0.919223 0.738260
vt 0.894131 0.740574
vt 0.867336 0.759212
vt 0.894137 0.737269
vt 0.869653 0.760718
vt 0.847686 0.790788
vt 0.867863 0.758653
vt 0.850943 0.790412
vt 0.839361 0.818583
vt 0.847916 0.790180
vt 0.842866 0.816942
vt 0.837502 0.846630
vt 0.838966 0.817877
vt 0.843378 0.844103
vt 0.912075 0.230585
vt 0.973734 0.274286
vt 0.971635 0.834924
vt 0.970883 0.807091
vt 0.973856 0.807721
vt 0.974561 0.837476
vt 0.960797 0.773366
vt 0.963077 0.771895
vt 0.973915 0.808369
vt 0.943065 0.747058
vt 0.943968 0.743848
vt 0.963432 0.772579
vt 0.855334 0.868537
vt 0.852545 0.872181
vt 0.837111 0.845353
vt 0.975133 0.836896
vt 0.969126 0.864922
vt 0.919102 0.735158
vt 0.945211 0.744718
vt 0.872826 0.888483
vt 0.852227 0.871285
vt 0.887732 0.339051
vt 0.883728 0.310778
vt 0.895170 0.309572
vt 0.903950 0.315911
vt 0.900363 0.318375
vt 0.546985 0.319597
vt 0.544903 0.284036
vt 0.558110 0.293790
vt 0.558889 0.308525
vt 0.888977 0.334383
vt 0.889732 0.330140
vt 0.902241 0.308707
vt 0.897509 0.320836
vt 0.482958 0.325806
vt 0.477456 0.329374
vt 0.477084 0.327231
vt 0.481146 0.324591
vt 0.477952 0.332021
vt 0.478522 0.335419
vt 0.467612 0.332978
vt 0.469592 0.330198
vt 0.464980 0.323072
vt 0.466678 0.314803
vt 0.468888 0.316277
vt 0.467584 0.322561
vt 0.486929 0.318904
vt 0.482158 0.311736
vt 0.484039 0.308847
vt 0.490337 0.318200
vt 0.485183 0.327348
vt 0.488032 0.329348
vt 0.463855 0.312950
vt 0.461663 0.323660
vt 0.473758 0.310072
vt 0.473043 0.306725
vt 0.484267 0.319402
vt 0.480644 0.313966
vt 0.470666 0.317467
vt 0.469691 0.322177
vt 0.471100 0.327989
vt 0.474266 0.312703
vt 0.474709 0.314814
vt 0.479451 0.315778
vt 0.482137 0.319843
vt 0.472345 0.326227
vt 0.876740 0.082888
vt 0.874311 0.161330
vt 0.858030 0.161024
vt 0.859847 0.080746
vt 0.892498 0.069520
vt 0.892658 0.084532
vt 0.877100 0.070745
vt 0.841735 0.160879
vt 0.841793 0.079703
vt 0.890584 0.161693
vt 0.806733 0.083103
vt 0.809279 0.161242
vt 0.793110 0.161636
vt 0.790780 0.084751
vt 0.823699 0.080890
vt 0.825472 0.160960
vt 0.823338 0.071699
vt 0.841761 0.071847
vt 0.930116 0.023740
vt 0.917241 0.032331
vt 0.912356 0.029162
vt 0.928909 0.018047
vt 0.890123 0.054995
vt 0.904689 0.051640
vt 0.907545 0.067910
vt 0.790935 0.069731
vt 0.806351 0.070928
vt 0.824245 0.062693
vt 0.841735 0.064210
vt 0.860157 0.071580
vt 0.775000 0.085119
vt 0.775890 0.068143
vt 0.859204 0.062592
vt 0.908467 0.084899
vt 0.808150 0.059085
vt 0.793285 0.055202
vt 0.875269 0.058920
vt 0.778724 0.051869
vt 0.841714 0.057286
vt 0.857115 0.054374
vt 0.812212 0.047976
vt 0.826295 0.054459
vt 0.798169 0.040616
vt 0.790600 0.037165
vt 0.798828 0.036043
vt 0.828530 0.042445
vt 0.841674 0.042898
vt 0.871164 0.047825
vt 0.868934 0.040749
vt 0.854818 0.042371
vt 0.885197 0.040402
vt 0.781682 0.041009
vt 0.855099 0.030669
vt 0.841634 0.029756
vt 0.876567 0.039608
vt 0.841595 0.018047
vt 0.856400 0.018893
vt 0.806781 0.039789
vt 0.814408 0.040894
vt 0.884520 0.035825
vt 0.869107 0.033148
vt 0.871058 0.020967
vt 0.885863 0.022961
vt 0.814191 0.033302
vt 0.828183 0.030754
vt 0.892790 0.036917
vt 0.812210 0.021186
vt 0.826792 0.018994
vt 0.900565 0.030951
vt 0.900817 0.035889
vt 0.797435 0.023211
vt 0.900792 0.023686
vt 0.937788 0.063648
vt 0.950579 0.055059
vt 0.955471 0.058204
vt 0.938997 0.069320
vt 0.948425 0.021989
vt 0.945222 0.026837
vt 0.975000 0.152408
vt 0.967207 0.152408
vt 0.967207 0.133213
vt 0.975000 0.133213
vt 0.953584 0.039814
vt 0.959306 0.038654
vt 0.914122 0.047538
vt 0.908467 0.048644
vt 0.922722 0.060521
vt 0.919490 0.065399
vt 0.975000 0.114019
vt 0.967207 0.114019
vt 0.975000 0.018047
vt 0.975000 0.037241
vt 0.967207 0.037241
vt 0.967207 0.018047
vt 0.975000 0.056436
vt 0.967207 0.056436
vt 0.975000 0.094825
vt 0.967207 0.094825
vt 0.975000 0.075630
vt 0.967207 0.075630
vt 0.975000 0.171602
vt 0.967207 0.171602
vt 0.945619 0.027089
vt 0.930605 0.023792
vt 0.929677 0.018047
vt 0.949000 0.022454
vt 0.938068 0.063686
vt 0.950871 0.055172
vt 0.955700 0.058271
vt 0.939280 0.069378
vt 0.917566 0.032191
vt 0.914391 0.047470
vt 0.908467 0.048578
vt 0.912795 0.028773
vt 0.922874 0.060568
vt 0.919660 0.065480
vt 0.959414 0.039047
vt 0.953696 0.040116
vt 0.967207 0.152395
vt 0.967207 0.133201
vt 0.975000 0.133201
vt 0.975000 0.152395
vt 0.967207 0.056423
vt 0.967207 0.037229
vt 0.975000 0.037229
vt 0.975000 0.056423
vt 0.967207 0.114006
vt 0.975000 0.114006
vt 0.967207 0.171577
vt 0.975000 0.171577
vt 0.967207 0.094812
vt 0.975000 0.094812
vt 0.967207 0.075618
vt 0.975000 0.075618
vt 0.901725 0.040768
vt 0.967207 0.018047
vt 0.975000 0.018047
vt 0.782799 0.031261
vt 0.782529 0.024014
vt 0.782549 0.036159
vt 0.875160 0.228560
vt 0.912048 0.230608
vt 0.484611 0.307973
vt 0.491364 0.317993
vt 0.488893 0.329947
vt 0.478698 0.336448
vt 0.462997 0.312380
vt 0.472831 0.305709
vt 0.467014 0.333824
vt 0.460650 0.323844
vt 0.560826 0.514801
vt 0.439174 0.514801
vt 0.439172 0.516544
vt 0.560828 0.516544
vt 0.519044 0.499561
vt 0.514801 0.499561
vt 0.514801 0.502939
vt 0.519044 0.502939
vt 0.560828 0.514801
vt 0.439172 0.514801
vt 0.444172 0.480956
vt 0.555828 0.480956
vt 0.555828 0.497061
vt 0.555828 0.499561
vt 0.444172 0.499561
vt 0.444172 0.497061
vt 0.439172 0.519044
vt 0.560828 0.519044
vt 0.480956 0.499561
vt 0.480956 0.497061
vt 0.514801 0.497061
vt 0.439172 0.499561
vt 0.560828 0.499561
vt 0.560828 0.502939
vt 0.439172 0.502939
vt 0.516544 0.497061
vt 0.480956 0.497061
vt 0.480956 0.499561
vt 0.154863 -0.168203
vt 0.157513 -0.170853
vt 0.161262 -0.170853
vt 0.163912 -0.168203
vt 0.163912 -0.164454
vt 0.161262 -0.161803
vt 0.157513 -0.161803
vt 0.154863 -0.164454
vt 0.081450 0.305229
vt 0.081372 0.308490
vt 0.077623 0.308490
vt 0.077925 0.305229
vt 0.073875 0.308490
vt 0.074164 0.305229
vt 0.066378 0.308490
vt 0.066666 0.305229
vt 0.070415 0.305229
vt 0.070126 0.308490
vt 0.052054 0.308490
vt 0.052070 0.305229
vt 0.055460 0.305229
vt 0.055288 0.308490
vt 0.059169 0.305229
vt 0.058881 0.308490
vt 0.062629 0.308490
vt 0.062918 0.305229
vt 0.157513 -0.170853
vt 0.161262 -0.170853
vt 0.163912 -0.168203
vt 0.163912 -0.164454
vt 0.161262 -0.161803
vt 0.157513 -0.161803
vt 0.154863 -0.164454
vt 0.154863 -0.168203
vt 0.084102 0.305229
vt 0.084102 0.308490
vt 0.080354 0.308490
vt 0.080354 0.305229
vt 0.076605 0.308490
vt 0.076605 0.305229
vt 0.069108 0.308490
vt 0.069108 0.305229
vt 0.072857 0.305229
vt 0.072856 0.308490
vt 0.054114 0.308490
vt 0.054114 0.305229
vt 0.057862 0.305229
vt 0.057862 0.308490
vt 0.061611 0.305229
vt 0.061611 0.308490
vt 0.065359 0.308490
vt 0.065359 0.305229
vt 0.654983 0.255997
vt 0.664253 0.261549
vt 0.664802 0.240736
vt 0.655533 0.238687
vt 0.654983 0.255997
vt 0.655533 0.238687
vt 0.664802 0.240736
vt 0.664253 0.261549
vt 0.655522 0.127578
vt 0.655522 0.297479
vt 0.664791 0.300161
vt 0.664791 0.124896
vt 0.655522 0.127593
vt 0.664791 0.124877
vt 0.664791 0.300181
vt 0.655522 0.297464
vt 0.655534 0.200313
vt 0.664802 0.198301
vt 0.654997 0.182631
vt 0.664267 0.177083
vt 0.584935 0.774691
vt 0.599081 0.754831
vt 0.599077 0.715557
vt 0.584950 0.696065
vt 0.415050 0.696065
vt 0.400923 0.715557
vt 0.400919 0.754831
vt 0.415065 0.774691
vt 0.396231 0.713811
vt 0.412570 0.691141
vt 0.587432 0.691141
vt 0.603771 0.713811
vt 0.603780 0.756531
vt 0.587449 0.779603
vt 0.412553 0.779603
vt 0.396222 0.756531
vt 0.654997 0.182631
vt 0.664267 0.177083
vt 0.664802 0.198301
vt 0.655534 0.200313
vt 0.906802 0.162046
vt 0.776905 0.162046
vt 0.435593 0.271024
vt 0.405045 0.289164
vt 0.394392 0.258655
vt 0.424261 0.246170
vt 0.356437 0.102902
vt 0.356866 0.248585
vt 0.324040 0.253720
vt 0.323172 0.098090
vt 0.327493 0.277390
vt 0.336050 0.316168
vt 0.296665 0.325342
vt 0.288167 0.284160
vt 0.435498 0.079942
vt 0.424176 0.104948
vt 0.394131 0.092504
vt 0.404760 0.061764
vt 0.450311 0.065373
vt 0.461662 0.073019
vt 0.447330 0.086244
vt 0.436096 0.110255
vt 0.447363 0.264720
vt 0.461662 0.277872
vt 0.450366 0.285506
vt 0.391273 0.239124
vt 0.391094 0.112141
vt 0.421916 0.123021
vt 0.422025 0.228284
vt 0.360044 0.269692
vt 0.369326 0.304793
vt 0.368707 0.046039
vt 0.359460 0.081582
vt 0.326448 0.074051
vt 0.432036 0.222301
vt 0.432272 0.129005
vt 0.545989 0.517070
vt 0.545989 0.363241
vt 0.583280 0.372440
vt 0.583280 0.507871
vt 0.616692 0.385622
vt 0.626517 0.392901
vt 0.626517 0.487410
vt 0.616692 0.494690
vt 0.416974 0.308461
vt 0.378260 0.327460
vt 0.742206 0.480121
vt 0.754096 0.467384
vt 0.777874 0.467384
vt 0.789764 0.480121
vt 0.789764 0.574631
vt 0.777874 0.587368
vt 0.754096 0.587368
vt 0.742206 0.574631
vt 0.511725 0.519575
vt 0.511725 0.360736
vt 0.416757 0.042336
vt 0.436089 0.240829
vt 0.342847 0.340259
vt 0.377771 0.023120
vt 0.334949 0.034514
vt 0.341960 0.009988
vt 0.302651 0.350035
vt 0.296640 0.325415
vt 0.288163 0.284043
vt 0.284513 0.258370
vt 0.473007 0.519575
vt 0.473007 0.360736
vt 0.294049 0.025328
vt 0.300198 -0.000377
vt 0.286133 0.067881
vt 0.294088 0.025433
vt 0.283127 0.094203
vt 0.286154 0.068015
vt 0.284503 0.258239
vt 0.283138 0.094338
vt 0.635817 0.492630
vt 0.652955 0.492127
vt 0.652741 0.522484
vt 0.635372 0.522605
vt 0.652684 0.550090
vt 0.652644 0.606077
vt 0.635127 0.606035
vt 0.635167 0.550108
vt 0.652891 0.663995
vt 0.635751 0.663430
vt 0.635307 0.633477
vt 0.652676 0.633640
vt 0.636397 0.462868
vt 0.653396 0.461767
vt 0.637302 0.762492
vt 0.654007 0.764258
vt 0.653382 0.799494
vt 0.636780 0.797924
vt 0.653353 0.694402
vt 0.636352 0.693241
vt 0.636963 0.723879
vt 0.653816 0.725540
vt 0.651253 0.828125
vt 0.634671 0.826526
vt 0.653385 0.356755
vt 0.636783 0.358327
vt 0.634672 0.329725
vt 0.651253 0.328125
vt 0.653837 0.430703
vt 0.636988 0.432315
vt 0.637311 0.393742
vt 0.654014 0.391992
vt 0.061809 0.836815
vt 0.080046 0.894430
vt 0.017448 0.905160
vt 0.019649 0.844356
vt 0.125000 0.910156
vt 0.136719 0.910156
vt 0.136719 1.027344
vt 0.125000 1.027344
vt -0.044211 0.889931
vt -0.021856 0.833786
vt 0.141558 0.574097
vt 0.179016 0.638904
vt 0.127551 0.657043
vt 0.104314 0.618171
vt 0.070474 0.594699
vt 0.084170 0.539332
vt 0.134713 0.841176
vt 0.098676 0.799333
vt 0.124122 0.747491
vt 0.172302 0.769336
vt 0.133021 0.702008
vt 0.183749 0.704413
vt -0.082400 0.565989
vt -0.048433 0.612448
vt -0.074418 0.649536
vt -0.124446 0.627919
vt -0.055916 0.793737
vt -0.094885 0.832865
vt -0.077547 0.740180
vt -0.127180 0.758495
vt -0.083127 0.694058
vt -0.133904 0.692914
vt -0.012989 0.591604
vt -0.022649 0.535465
vt 0.063031 0.839831
vt 0.020147 0.848608
vt 0.017455 0.910198
vt 0.082306 0.898972
vt 0.203646 0.792779
vt 0.203647 0.707095
vt 0.216967 0.707095
vt 0.216966 0.792779
vt 0.145578 0.570583
vt 0.108087 0.616358
vt 0.132810 0.655292
vt 0.184471 0.637230
vt 0.139299 0.844798
vt 0.102407 0.801989
vt 0.065262 0.840433
vt 0.128945 0.749442
vt 0.104178 0.802289
vt 0.178243 0.771379
vt 0.138216 0.703022
vt 0.130535 0.749196
vt 0.190010 0.704644
vt -0.129838 0.626056
vt -0.078320 0.647834
vt -0.052791 0.609489
vt -0.086300 0.562355
vt -0.060987 0.796786
vt -0.099486 0.836335
vt -0.046430 0.894401
vt -0.024862 0.836236
vt -0.083815 0.742059
vt -0.133162 0.760324
vt -0.060562 0.795572
vt -0.089659 0.694478
vt -0.140164 0.692907
vt -0.082849 0.740909
vt -0.080207 0.648439
vt -0.088210 0.693634
vt 0.125000 0.835938
vt 0.136719 0.835938
vt 0.072127 0.590215
vt 0.086320 0.534357
vt -0.024636 0.530427
vt -0.013721 0.588102
vt 0.125000 0.054688
vt 0.125000 -0.019531
vt 0.136719 -0.019531
vt 0.136719 0.054688
vt 0.125000 0.753906
vt 0.136719 0.753906
vt 0.125000 1.101562
vt 0.136719 1.101562
vt 0.125000 0.683594
vt 0.125000 0.609375
vt 0.136719 0.609375
vt 0.136719 0.683594
vt 0.125000 0.519531
vt 0.125000 0.437500
vt 0.136719 0.437500
vt 0.136719 0.519531
vt 0.125000 0.367188
vt 0.125000 0.296875
vt 0.136719 0.296875
vt 0.136719 0.367188
vt 0.125000 0.214844
vt 0.136719 0.214844
vt 0.125000 0.125000
vt 0.136719 0.125000
vt 0.125000 -0.101562
vt 0.136719 -0.101562
vt 0.133366 0.656226
vt 0.138136 0.701803
vt 0.107793 0.614629
vt 0.072795 0.591499
vt 0.018853 0.847478
vt -0.023788 0.837645
vt -0.015240 0.587156
vt -0.050744 0.609542
vt 0.203645 1.130000
vt 0.203646 1.086417
vt 0.216966 1.086417
vt 0.216965 1.130000
vt 0.203647 0.665187
vt 0.216968 0.665186
vt 0.216966 0.834621
vt 0.203646 0.834621
vt 0.203647 0.619102
vt 0.216968 0.619102
vt 0.216966 0.880702
vt 0.203646 0.880702
vt 0.203647 0.573010
vt 0.216968 0.573010
vt 0.203646 0.926867
vt 0.216966 0.926867
vt 0.203647 0.525848
vt 0.216967 0.525848
vt 0.203646 0.974141
vt 0.216966 0.974141
vt 0.203646 0.467082
vt 0.216967 0.467082
vt 0.203646 1.032918
vt 0.216966 1.032917
vt 0.203646 0.413583
vt 0.216966 0.413583
vt 0.203645 0.370000
vt 0.216965 0.370000
vt 0.258629 0.085037
vt 0.229725 0.074378
vt 0.240909 0.037220
vt 0.276185 0.043556
vt 0.160692 0.309766
vt 0.169386 0.278564
vt 0.198784 0.284589
vt 0.200506 0.319893
vt 0.128027 0.294380
vt 0.144039 0.267290
vt 0.123081 0.251289
vt 0.098242 0.272311
vt 0.199474 0.073315
vt 0.202192 0.039184
vt 0.281552 0.011047
vt 0.244521 0.006211
vt 0.196724 0.351889
vt 0.149081 0.338827
vt 0.112540 0.321626
vt 0.101553 0.082058
vt 0.093029 0.070963
vt 0.131181 0.061649
vt 0.277047 0.317735
vt 0.281552 0.351481
vt 0.243152 0.355292
vt 0.240414 0.323155
vt 0.027942 0.229208
vt 0.008724 0.233713
vt 0.000511 0.204465
vt 0.019838 0.204203
vt 0.054004 0.208864
vt 0.089047 0.283421
vt 0.047461 0.209641
vt 0.135679 0.218556
vt 0.090006 0.203464
vt 0.112872 0.199181
vt 0.209932 0.119725
vt 0.022413 0.144520
vt 0.004073 0.142743
vt 0.049324 0.141121
vt 0.055464 0.142186
vt 0.163330 0.047782
vt 0.170852 0.078291
vt 0.146017 0.088308
vt 0.176350 0.236194
vt 0.230042 0.284433
vt 0.091071 0.148833
vt 0.125284 0.103167
vt 0.199501 0.008106
vt 0.152996 0.019280
vt 0.117074 0.034761
vt 0.083359 0.055318
vt 0.031672 0.121041
vt 0.013644 0.115731
vt 0.209825 0.119809
vt 0.176352 0.119525
vt 0.210878 0.236913
vt 0.078456 0.299214
vt 0.174876 0.121276
vt 0.136116 0.135776
vt 0.260229 0.274329
vt 0.113378 0.153869
vt 0.174841 0.234343
vt 0.135623 0.218386
vt 0.136158 0.135606
vt 0.177617 0.236257
vt 0.210952 0.236727
vt 0.235013 0.144702
vt 0.209872 0.119844
vt 0.210984 0.237008
vt 0.483084 -0.000469
vt 0.587747 0.020728
vt 0.577062 0.047110
vt 0.476875 0.028546
vt 0.739901 0.694768
vt 0.744162 0.587568
vt 0.786352 0.587568
vt 0.790612 0.694768
vt 0.467896 0.190395
vt 0.462454 0.150943
vt 0.561115 0.150355
vt 0.564933 0.181250
vt 0.483084 0.268665
vt 0.476875 0.239650
vt 0.577062 0.221088
vt 0.587747 0.247470
vt 0.564970 0.181668
vt 0.577046 0.220986
vt 0.467896 0.077802
vt 0.564934 0.086946
vt 0.561115 0.117841
vt 0.462454 0.117253
vt 0.577046 0.047212
vt 0.564970 0.086528
vt 0.561105 0.119109
vt 0.561105 0.149087
vt 0.207694 0.119220
vt 0.177596 0.119500
s 1
usemtl toilet_mp_1
f 49/1/1 48/2/1 22/3/1 23/4/1
f 37/5/2 69/6/3 68/7/4 14/8/5
f 21/9/6 128/10/7 114/11/8 143/12/9 45/13/10
f 37/5/2 14/8/5 21/9/6 45/13/10
f 70/14/11 95/15/12 87/16/13 66/17/14
f 72/18/15 99/19/16 104/20/17 75/21/18
f 73/22/19 68/7/4 90/23/20 100/24/21
f 67/25/22 89/26/23 85/27/24 65/28/25
f 72/18/15 12/29/26 13/30/27 73/22/19
f 73/22/19 13/30/27 14/8/5 68/7/4
f 30/31/28 38/32/29 15/33/30 8/34/31
f 8/34/31 15/33/30 16/35/32 9/36/33
f 9/36/33 16/35/32 17/37/34 10/38/35
f 10/38/35 17/37/34 18/39/36 11/40/37
f 11/40/37 18/39/36 19/41/38 12/29/26
f 12/29/26 19/41/38 20/42/39 13/30/27
f 13/30/27 20/42/39 21/9/6 14/8/5
f 38/32/29 39/43/40 131/44/41 118/45/42
f 124/46/43 120/47/44 110/48/45 112/49/46
f 135/50/47 109/51/48 106/52/49 132/53/50
f 144/54/51 111/55/52 107/56/53 140/57/54
f 120/47/44 124/46/43 126/58/55 122/59/56
f 39/43/40 40/60/57 134/61/58 131/44/41
f 111/62/1 113/63/1 112/64/1 107/65/1
f 22/66/1 48/67/1 51/68/1 1/69/1
f 19/41/38 125/70/59 127/71/60 20/42/39
f 38/32/29 118/45/42 116/72/61 15/33/30
f 137/73/62 133/74/63 134/61/58
f 15/33/30 116/72/61 119/75/64 16/35/32
f 42/76/65 43/77/66 139/78/67 138/79/68
f 29/80/69 50/81/70 52/82/71 27/83/71
f 50/84/70 29/80/69 28/85/72 54/86/73
f 64/87/74 31/88/75 30/31/28 63/89/76
f 62/90/77 32/91/78 31/88/75 64/87/74
f 61/92/79 33/93/80 32/91/78 62/90/77
f 71/94/81 34/95/82 33/93/80 61/92/79
f 66/17/14 87/96/13 80/97/83 63/89/76
f 74/98/84 103/99/85 95/100/12 70/14/11
f 75/21/18 104/101/17 103/102/85 74/98/84
f 30/31/28 31/88/75 39/43/40 38/32/29
f 31/88/75 32/91/78 40/60/57 39/43/40
f 32/91/78 33/93/80 41/103/86 40/60/57
f 33/93/80 34/95/82 42/76/65 41/103/86
f 34/95/82 35/104/87 43/77/66 42/76/65
f 35/104/87 36/105/88 44/106/89 43/77/66
f 36/105/88 37/5/2 45/13/10 44/106/89
f 140/57/54 107/56/53 109/51/48 135/50/47
f 121/107/90 122/59/56 123/108/91
f 24/109/1 47/110/1 49/111/1 23/112/1
f 46/113/1 47/114/1 24/115/1 25/116/1
f 56/117/1 46/118/1 25/119/1 26/120/1
f 52/121/71 56/122/1 26/123/1 27/124/71
f 44/106/89 45/13/10 143/12/9 142/125/92
f 41/103/86 42/76/65 138/79/68 136/126/93
f 40/60/57 41/103/86 136/126/93 134/61/58
f 17/37/34 121/107/90 123/108/91 18/39/36
f 18/39/36 123/108/91 125/70/59 19/41/38
f 6/127/94 5/128/95 57/129/95 58/130/96
f 55/131/1 2/132/1 1/133/1 51/134/1
f 59/135/1 3/136/1 2/137/1 55/138/1
f 60/139/1 4/140/1 3/141/1 59/142/1
f 57/143/95 5/144/95 4/145/1 60/146/1
f 54/147/73 28/85/72 7/148/97 53/149/98
f 53/150/98 7/148/97 6/127/94 58/151/96
f 72/18/15 73/22/19 100/152/21 99/153/16
f 61/92/79 62/90/77 79/154/99 77/155/100
f 67/25/22 71/94/81 97/156/101 89/157/23
f 71/94/81 61/92/79 77/158/100 97/159/101
f 64/87/74 63/89/76 80/160/83 83/161/102
f 62/90/77 64/87/74 83/162/102 79/163/99
f 67/25/22 35/104/87 34/95/82 71/94/81
f 93/164/103 91/165/104 90/166/104 92/167/103
f 11/40/37 75/21/18 74/98/84 10/38/35
f 10/38/35 74/98/84 70/14/11 9/36/33
f 9/36/33 70/14/11 66/17/14 8/34/31
f 35/104/87 67/25/22 65/28/25 36/105/88
f 8/34/31 66/17/14 63/89/76 30/31/28
f 36/105/88 65/28/25 69/6/3 37/5/2
f 12/29/26 72/18/15 75/21/18 11/40/37
f 99/168/105 100/169/106 101/170/107 98/171/108
f 100/172/106 90/173/104 91/165/104 101/170/107
f 83/174/109 80/175/110 81/176/110 82/177/111
f 79/178/112 83/179/109 82/177/111 78/180/112
f 77/181/113 79/182/112 78/180/112 76/183/114
f 97/184/115 77/185/113 76/183/114 96/186/116
f 89/187/117 97/188/115 96/186/116 88/189/117
f 69/6/3 92/190/118 90/191/20 68/7/4
f 105/192/119 102/193/120 103/194/121 104/195/122
f 102/193/120 94/196/123 95/197/124 103/198/121
f 94/196/123 86/199/125 87/200/126 95/201/124
f 88/189/117 84/202/127 85/203/128 89/204/117
f 98/171/108 105/192/119 104/205/122 99/206/105
f 86/199/125 81/176/110 80/207/110 87/208/126
f 84/202/127 93/164/103 92/209/103 85/210/128
f 118/45/42 133/74/63 117/211/129
f 137/73/62 138/79/68 141/212/130
f 142/125/92 145/213/131 141/212/130
f 137/73/62 141/212/130 140/57/54 135/50/47
f 145/213/131 130/214/132 129/215/133 144/54/51
f 109/216/1 110/217/1 108/218/1 106/219/1
f 133/74/63 137/73/62 135/50/47 132/53/50
f 20/42/39 127/71/60 128/10/7 21/9/6
f 43/77/66 44/106/89 142/125/92 139/78/67
f 16/35/32 119/75/64 121/107/90 17/37/34
f 118/45/42 131/44/41 133/74/63
f 115/220/134 132/53/50 106/52/49 108/221/135
f 138/79/68 139/78/67 141/212/130
f 115/220/134 120/47/44 122/59/56 117/211/129
f 117/211/129 133/74/63 132/53/50 115/220/134
f 117/211/129 122/59/56 119/75/64
f 136/126/93 138/79/68 137/73/62
f 122/59/56 121/107/90 119/75/64
f 142/125/92 143/12/9 145/213/131
f 124/46/43 129/215/133 130/214/132 126/58/55
f 141/212/130 145/213/131 144/54/51 140/57/54
f 122/59/56 126/58/55 123/108/91
f 114/222/8 130/214/132 145/213/131
f 145/213/131 143/12/9 114/11/8
f 126/58/55 125/70/59 123/108/91
f 126/58/55 130/214/132 127/71/60
f 129/215/133 124/46/43 112/49/46 113/223/136
f 114/222/8 128/10/7 130/214/132
f 116/72/61 118/45/42 117/211/129
f 130/214/132 128/10/7 127/71/60
f 134/61/58 136/126/93 137/73/62
f 120/47/44 115/220/134 108/221/135 110/48/45
f 131/44/41 134/61/58 133/74/63
f 163/224/137 164/225/138 170/226/138 167/227/137
f 158/228/139 148/229/139 149/230/140 159/231/140
f 160/232/141 161/233/142 175/234/142 165/235/143
f 156/236/144 155/237/145 146/238/145 147/239/144
f 157/240/146 152/241/146 148/229/139 158/228/139
f 153/242/147 161/233/147 160/232/148 150/243/148
f 154/244/149 161/233/147 153/242/147 151/245/149
f 155/237/145 154/244/149 151/245/149 146/238/145
f 155/237/150 156/236/151 162/246/151 168/247/152
f 165/235/153 175/234/154 176/248/154 166/249/153
f 157/240/155 158/228/156 164/225/156 163/224/155
f 159/231/157 160/232/141 165/235/143 171/250/158
f 160/232/148 159/231/140 149/230/140 150/243/148
f 155/237/150 168/247/152 173/251/159 154/244/159
f 161/233/142 154/244/159 173/251/159 175/234/142
f 166/249/1 176/248/1 174/252/1 169/253/1 177/254/1 167/227/1 170/226/1 172/255/1
f 164/225/138 171/250/160 172/255/160 170/226/138
f 173/251/161 168/247/162 169/253/162 174/252/161
f 162/246/163 163/224/137 167/227/137 177/254/163
f 171/250/160 165/235/153 166/249/153 172/255/160
f 174/252/161 176/248/154 175/234/154 173/251/161
f 168/247/162 162/246/163 177/254/163 169/253/162
f 157/240/146 156/236/144 147/239/144 152/241/146
f 157/240/155 163/224/155 162/246/151 156/236/151
f 180/256/164 188/257/165 186/258/166 179/259/167
f 197/260/168 181/261/169 180/256/164 196/262/170
f 179/259/167 186/258/166 187/263/1 178/264/171
f 181/261/169 189/265/172 188/257/165 180/256/164
f 184/266/173 192/267/174 191/268/175 183/269/176
f 184/266/173 185/270/177 193/271/178 192/267/174
f 185/270/177 178/264/171 187/263/1 193/271/178
f 201/272/179 194/273/180 178/264/171 185/270/177
f 186/274/181 188/275/182 246/276/182 239/277/181
f 197/260/168 205/278/183 206/279/184 198/280/185
f 183/269/176 199/281/186 200/282/187 184/266/173
f 209/283/188 202/284/189 194/273/180 201/272/179
f 178/264/171 194/273/180 195/285/190 179/259/167
f 200/282/187 201/272/179 185/270/177 184/266/173
f 182/286/191 198/287/185 199/281/186 183/269/176
f 203/288/192 195/285/190 194/273/180 202/284/189
f 198/280/185 182/289/191 181/261/169 197/260/168
f 196/262/170 180/256/164 179/259/167 195/285/190
f 200/282/187 208/290/193 209/283/188 201/272/179
f 199/281/186 207/291/194 208/290/193 200/282/187
f 195/285/190 203/288/192 204/292/195 196/262/170
f 198/287/185 206/293/184 207/291/194 199/281/186
f 202/284/189 210/294/196 211/295/197 203/288/192
f 208/290/193 215/296/198 216/297/199 209/283/188
f 196/262/170 204/292/195 205/278/183 197/260/168
f 214/298/200 274/299/201 228/300/202
f 216/297/199 223/301/203 217/302/204 210/294/196
f 203/288/192 211/295/197 212/303/205 204/292/195
f 207/291/194 214/298/200 215/296/198 208/290/193
f 219/304/206 212/303/205 211/295/197 218/305/207
f 204/292/195 212/303/205 213/306/208 205/278/183
f 272/307/209 214/298/200 207/291/194 206/293/184
f 225/308/210 218/305/207 217/302/204 224/309/211
f 213/306/208 212/303/205 219/304/206 220/310/212
f 225/308/210 224/309/211 232/311/1 233/312/166
f 215/296/198 214/298/200 221/313/213 222/314/214
f 227/315/215 226/316/216 234/317/165 235/318/217
f 222/314/214 229/319/218 230/320/219 223/301/203
f 210/294/196 217/302/204 218/305/207 211/295/197
f 213/306/208 227/315/215 275/321/220
f 215/296/198 222/314/214 223/301/203 216/297/199
f 221/313/213 228/300/202 229/319/218 222/314/214
f 230/320/219 229/319/218 237/322/174 238/323/178
f 219/304/206 226/316/216 227/315/215 220/310/212
f 271/324/221 273/325/222 275/321/220 227/315/215
f 218/305/207 225/308/210 226/316/216 219/304/206
f 226/316/216 225/308/210 233/312/166 234/317/165
f 229/319/218 228/300/202 236/326/175 237/322/174
f 227/315/215 235/318/217 231/327/223 271/324/221
f 230/320/219 238/323/178 232/311/1 224/309/211
f 191/328/224 192/329/225 242/330/225 243/331/224
f 274/299/201 214/298/200 272/307/209
f 186/274/181 239/277/181 244/332/226 187/333/226
f 213/306/208 220/310/212 227/315/215
f 230/320/219 224/309/211 217/302/204 223/301/203
f 241/334/172 249/335/172 254/336/165 246/337/165
f 192/329/225 193/338/227 245/339/227 242/330/225
f 188/275/182 189/340/228 241/341/228 246/276/182
f 190/342/229 240/343/229 241/341/228 189/340/228
f 191/328/224 243/331/224 240/343/229 190/342/229
f 239/344/166 246/337/165 254/336/165 247/345/166
f 193/338/227 187/333/226 244/332/226 245/339/227
f 240/346/223 243/347/175 251/348/175 248/349/223
f 242/350/174 250/351/174 251/348/175 243/347/175
f 244/352/1 239/344/166 247/345/166 252/353/1
f 245/354/178 244/352/1 252/353/1 253/355/178
f 241/334/172 240/356/223 248/357/223 249/335/172
f 242/350/174 245/354/178 253/355/178 250/351/174
f 235/358/230 234/359/231 258/360/232 259/361/233
f 237/362/234 236/363/235 260/364/236 261/365/237
f 233/366/238 232/367/239 256/368/239 257/369/240
f 238/370/241 237/362/234 261/365/237 262/371/242
f 234/359/231 233/366/238 257/369/240 258/360/232
f 238/370/241 262/371/242 256/368/239 232/367/239
f 235/358/230 259/361/233 255/372/243 231/373/243
f 236/363/235 231/373/243 255/372/243 260/364/236
f 259/374/217 258/375/165 266/376/165 267/377/244
f 261/378/174 260/379/245 268/380/246 269/381/174
f 258/375/165 257/382/166 265/383/166 266/376/165
f 255/384/223 259/374/217 267/377/244 263/385/223
f 257/382/166 256/386/1 264/387/1 265/383/166
f 262/388/178 261/378/174 269/381/174 270/389/178
f 205/278/183 213/306/208 272/390/209 206/279/184
f 262/388/178 270/389/178 264/387/1 256/386/1
f 260/379/245 255/391/223 263/392/223 268/380/246
f 236/326/175 228/300/202 271/393/221 231/394/223
f 274/299/201 271/393/221 228/300/202
f 271/393/221 274/299/201 273/395/222
f 273/395/222 274/299/201 272/307/209
f 275/321/220 273/325/222 272/390/209 213/306/208
f 209/283/188 216/297/199 210/294/196 202/284/189
f 214/298/200 228/300/202 221/313/213
f 65/28/25 85/396/24 92/397/118 69/6/3
f 158/228/156 159/231/157 171/250/158 164/225/156
f 147/239/247 146/238/248 276/398/248 277/399/247
f 148/229/249 152/241/250 282/400/250 278/401/249
f 151/245/251 153/242/252 283/402/252 281/403/251
f 150/243/253 149/230/254 279/404/254 280/405/253
f 153/242/252 150/243/253 280/405/253 283/402/252
f 149/230/254 148/229/249 278/401/249 279/404/254
f 152/241/250 147/239/247 277/399/247 282/400/250
f 146/238/248 151/245/251 281/403/251 276/398/248
f 335/486/274 343/487/275 342/488/276 334/489/277
f 337/490/278 338/491/279 346/492/280 345/493/281
f 335/494/274 337/495/278 345/496/281 343/497/275
f 339/498/282 347/499/283 341/500/284 333/501/285
f 336/502/286 334/489/277 342/488/276 344/503/287
f 339/504/282 336/502/286 344/503/287 347/505/283
f 333/506/1 332/507/1 338/508/1 337/509/1 335/510/1 334/511/1 336/512/1 339/513/1
f 342/514/223 343/515/223 345/516/223 346/517/223 340/518/223 341/519/223 347/520/223 344/521/223
f 333/522/285 341/523/284 340/524/288 332/525/289
f 182/289/191 190/526/223 189/265/172 181/261/169
f 183/269/176 191/268/175 190/527/223 182/286/191
f 338/491/279 332/525/289 340/524/288 346/492/280
f 373/528/290 377/529/291 372/530/292 369/531/293
f 351/532/294 364/533/295 365/534/296 356/535/297
f 368/536/298 376/537/299 394/538/300 388/539/301
f 385/540/302 383/541/303 380/542/304 378/543/305
f 385/540/302 348/544/306 352/545/307 386/546/308
f 385/540/302 386/546/308 387/547/309 383/541/303
f 373/528/290 374/548/310 358/549/311 360/550/312
f 367/551/313 354/552/314 349/553/315 361/554/316
f 368/536/298 371/555/317 375/556/318 376/537/299
f 379/557/319 378/543/305 380/542/304 381/558/320
f 381/558/320 351/532/294 356/535/297 384/559/321
f 359/560/322 361/554/316 349/553/315 353/561/323
f 350/562/324 362/563/325 366/564/326 355/565/327
f 360/566/312 358/567/311 352/568/307 348/569/306
f 366/570/326 377/529/291 373/528/290 360/550/312
f 375/556/318 377/529/291 366/570/326 362/571/325
f 354/552/314 367/551/313 364/533/295 351/532/294
f 358/572/223 374/573/223 370/574/223 359/575/223 353/576/223 387/577/223 386/578/223 352/579/223
f 357/580/328 363/581/329 362/563/325 350/562/324
f 355/565/327 366/564/326 360/566/312 348/569/306
f 367/551/313 361/554/316 369/531/293 372/530/292
f 378/543/305 355/582/327 348/544/306 385/540/302
f 372/530/292 377/529/291 375/556/318 371/555/317
f 371/555/317 368/536/298 365/534/296 364/533/295
f 364/533/295 367/551/313 372/530/292 371/555/317
f 374/548/310 373/528/290 369/531/293 370/583/330
f 361/554/316 359/560/322 370/583/330 369/531/293
f 354/552/314 380/542/304 383/541/303 349/553/315
f 362/571/325 363/584/329 376/537/299 375/556/318
f 379/557/319 350/585/324 355/582/327 378/543/305
f 381/558/320 380/542/304 354/552/314 351/532/294
f 350/585/324 379/557/319 382/586/331 357/587/328
f 349/553/315 383/541/303 387/547/309 353/561/323
f 376/537/299 363/584/329 393/588/332 394/589/300
f 365/534/296 368/536/298 388/590/301 389/591/333
f 363/581/329 357/580/328 391/592/334 393/593/332
f 357/587/328 382/586/331 390/594/335 391/595/334
f 382/586/331 384/559/321 392/596/336 390/597/335
f 384/559/321 356/535/297 395/598/337 392/599/336
f 356/535/297 365/534/296 389/600/333 395/601/337
f 379/557/319 381/558/320 384/559/321 382/586/331
f 139/78/67 142/125/92 141/212/130
f 144/54/51 129/215/133 113/223/136 111/55/52
f 116/72/61 117/211/129 119/75/64
f 125/70/59 126/58/55 127/71/60
f 107/65/1 112/64/1 110/217/1 109/216/1
f 88/602/338 52/603/339 50/604/340 84/605/341
f 54/606/342 53/607/343 91/608/344 93/609/345
f 57/610/346 98/611/347 101/612/348 58/613/349
f 52/603/339 88/602/338 96/614/350 56/615/351
f 94/616/352 55/617/353 51/618/354 86/619/355
f 98/611/347 57/610/346 60/620/356 105/621/357
f 102/622/358 59/623/359 55/617/353 94/616/352
f 84/605/341 50/604/340 54/606/342 93/609/345
f 105/621/357 60/620/356 59/623/359 102/622/358
f 86/619/355 51/618/354 48/624/360 81/625/360
f 49/626/361 82/627/362 81/628/360 48/629/360
f 46/630/363 76/631/364 78/632/365 47/633/366
f 47/633/366 78/632/365 82/627/362 49/626/361
f 58/613/349 101/612/348 91/608/344 53/607/343
f 56/615/351 96/614/350 76/631/364 46/630/363
f 467/773/423 484/774/424 476/775/425 475/776/426
f 460/777/427 469/778/428 468/779/429 459/780/430
f 461/781/431 470/782/432 469/778/428 460/777/427
f 471/783/433 470/782/432 461/781/431 462/784/434
f 476/775/425 484/774/424 485/785/435 477/786/436
f 22/787/437 475/776/426 476/775/425 23/788/438
f 459/780/430 2/789/439 3/790/440 460/777/427
f 460/777/427 3/790/440 4/791/441 461/781/431
f 480/792/442 481/793/443 479/794/444
f 475/795/426 22/796/437 1/797/445 458/798/446
f 464/799/447 6/800/448 7/801/449 465/802/450
f 473/803/451 462/784/434 463/804/452 474/805/453
f 502/806/454 471/783/433 472/807/455 492/808/456
f 499/809/457 484/774/424 467/773/423
f 463/804/458 464/799/459 474/805/460
f 483/810/461 465/802/450 7/801/449 28/811/462
f 491/812/463 490/813/464 473/803/451 474/805/453
f 491/812/465 474/805/460 465/802/466 483/810/467
f 478/814/468 486/815/469 487/816/470 479/794/444
f 470/782/432 457/817/471 469/778/428
f 459/780/430 468/779/429 466/818/472 458/798/446
f 462/784/434 461/781/431 463/804/452
f 490/813/464 489/819/473 472/807/455 473/803/451
f 477/786/436 485/785/435 486/815/469 478/814/468
f 462/784/434 473/803/451 472/807/455 471/783/433
f 488/820/474 480/792/442 479/794/444 487/816/470
f 490/813/464 480/792/442 488/820/474 489/819/473
f 23/788/438 476/775/425 477/786/436 24/821/475
f 24/821/475 477/786/436 478/814/468 25/822/476
f 25/822/476 478/814/468 479/794/444 26/823/477
f 481/793/443 27/824/478 26/823/477 479/794/444
f 458/798/446 1/797/445 2/789/439 459/780/430
f 481/793/479 491/812/465 482/825/480
f 482/825/481 483/810/461 28/811/462 29/826/482
f 490/813/464 491/812/463 481/793/443 480/792/442
f 484/774/424 499/827/457 485/785/435
f 500/828/483 487/816/470 486/815/469
f 456/829/484 466/818/472 468/779/429
f 27/824/478 481/793/443 482/825/481 29/826/482
f 491/812/465 483/810/467 482/825/480
f 464/799/459 465/802/466 474/805/460
f 5/830/485 6/800/448 464/799/447 463/804/452
f 488/820/474 487/816/470 500/831/483 501/832/486
f 461/781/431 4/791/441 5/830/485 463/804/452
f 458/798/446 466/818/472 467/833/423 475/795/426
f 472/807/455 489/819/473 505/834/487 492/808/456
f 457/835/471 470/782/432 471/783/433 502/836/454
f 488/820/474 501/837/486 505/834/487 489/819/473
f 469/778/428 457/838/471 468/779/429
f 456/839/484 468/779/429 457/838/471
f 456/840/484 499/841/457 467/773/423
f 466/818/472 456/842/484 467/833/423
f 503/843/488 505/844/489 501/845/490 495/846/491
f 504/847/258 492/848/258 505/849/258 503/850/258
f 497/851/492 498/852/493 456/853/494 457/854/495
f 504/855/496 496/856/497 502/857/498 492/858/499
f 497/851/492 457/859/495 502/860/498 496/856/497
f 494/861/500 500/862/501 499/863/502 493/864/503
f 495/846/491 501/865/490 500/866/501 494/861/500
f 498/852/493 493/864/503 499/867/502 456/868/494
f 486/815/469 485/785/435 499/869/457 500/870/483
usemtl plastic_mp_2
f 414/634/223 404/635/223 403/636/223 413/637/223
f 402/638/367 435/639/367 437/640/368 409/641/369
f 403/636/223 396/642/223 416/643/223 413/637/223
f 410/644/370 408/645/371 417/646/372 415/647/373
f 415/647/373 419/648/374 409/649/375 410/644/370
f 405/650/223 404/635/223 414/634/223 412/651/223
f 411/652/223 406/653/223 405/650/223 412/651/223
f 421/654/223 407/655/223 406/653/223 411/652/223
f 417/646/372 408/645/371 407/655/223 421/654/223
f 401/656/376 423/657/377 422/658/378 400/659/378
f 420/660/223 416/643/223 396/642/223 397/661/223
f 424/662/223 420/660/223 397/661/223 398/663/223
f 425/664/223 424/662/223 398/663/223 399/665/223
f 422/658/378 425/664/223 399/665/223 400/659/378
f 418/666/379 423/657/377 401/656/376 402/667/380
f 446/668/1 445/669/1 428/670/1 429/671/1
f 418/672/381 419/673/382 450/674/383 442/675/381
f 438/676/384 447/677/385 449/678/386 436/679/387
f 430/680/1 444/681/1 446/682/1 429/671/1
f 443/683/1 444/684/1 430/680/1 432/685/1
f 452/686/1 443/687/1 432/685/1 433/688/1
f 431/689/388 441/690/388 453/691/389 434/692/390
f 451/693/1 440/694/1 439/695/1 448/696/1
f 454/697/1 426/698/1 440/694/1 451/699/1
f 455/700/1 427/701/1 426/698/1 454/702/1
f 441/703/388 431/689/388 427/701/1 455/704/1
f 402/638/367 401/705/391 434/706/392 435/639/367
f 450/707/393 437/708/394 435/709/395 442/710/396
f 407/711/397 408/712/398 436/713/399 433/714/397
f 401/705/391 400/715/400 431/716/401 434/706/392
f 410/717/402 409/641/369 437/640/368 438/718/403
f 399/719/404 398/720/405 426/721/405 427/722/404
f 397/723/406 396/724/407 439/725/407 440/726/406
f 403/727/255 404/728/408 429/729/408 428/730/255
f 396/724/407 403/727/255 428/730/255 439/725/407
f 404/728/408 405/731/409 430/732/409 429/729/408
f 400/715/400 399/719/404 427/722/404 431/716/401
f 398/720/405 397/723/406 440/726/406 426/721/405
f 405/731/409 406/733/410 432/734/410 430/732/409
f 406/733/410 407/711/397 433/714/397 432/734/410
f 408/712/398 410/735/402 438/736/403 436/713/399
f 449/737/386 452/738/1 433/688/1 436/679/387
f 447/739/385 438/676/384 437/708/394 450/740/393
f 428/670/1 445/741/1 448/742/1 439/695/1
f 442/743/396 435/709/395 434/692/390 453/744/389
f 413/745/258 416/746/411 448/747/411 445/748/258
f 419/673/382 415/749/412 447/750/412 450/674/383
f 418/672/381 442/675/381 453/751/413 423/752/413
f 415/749/412 417/753/414 449/754/414 447/750/412
f 423/752/413 453/751/413 441/755/415 422/756/415
f 421/757/416 452/758/416 449/754/414 417/753/414
f 425/759/417 422/756/415 441/755/415 455/760/417
f 411/761/418 443/762/418 452/758/416 421/757/416
f 424/763/419 425/759/417 455/760/417 454/764/419
f 412/765/420 444/766/420 443/762/418 411/761/418
f 420/767/421 424/763/419 454/764/419 451/768/421
f 414/769/422 446/770/422 444/766/420 412/765/420
f 416/746/411 420/767/421 451/768/421 448/747/411
f 413/771/258 445/772/258 446/770/422 414/769/422
f 419/648/374 418/666/379 402/667/380 409/649/375
s 0
usemtl metal_mp_1
f 299/406/223 298/407/223 296/408/223 297/409/223
f 284/410/174 285/411/174 287/412/174 286/413/174
f 291/414/1 285/415/1 289/416/1 295/417/1
f 294/418/255 295/419/255 289/420/255 288/421/255
f 297/409/256 296/408/256 284/422/256 290/423/256
f 291/411/257 295/424/257 294/425/257 299/426/257
f 291/411/165 290/410/165 292/413/165 293/412/165
f 285/427/255 291/428/255 293/429/255 287/430/255
f 290/428/258 284/427/258 286/430/258 292/429/258
f 290/410/259 291/411/259 299/426/259 297/431/259
f 294/417/223 288/416/223 298/407/223 299/406/223
f 288/432/260 289/433/260 285/411/260 298/426/260
f 298/426/261 285/411/261 284/410/261 296/431/261
s 1
f 304/434/1 301/435/1 300/436/1 302/437/1 306/438/1 307/439/1 303/440/1 305/441/1
f 312/442/262 304/443/262 305/444/263 314/445/263
f 314/445/263 305/444/263 303/446/264 313/447/264
f 306/448/265 310/449/265 315/450/266 307/451/266
f 307/451/266 315/450/266 313/447/264 303/446/264
f 304/452/262 312/453/262 309/454/267 301/455/267
f 301/455/267 309/454/267 308/456/268 300/457/268
f 310/449/265 306/448/265 302/458/269 311/459/269
f 311/459/269 302/458/269 300/457/268 308/456/268
f 320/460/1 317/461/1 316/462/1 318/463/1 322/464/1 323/465/1 319/466/1 321/467/1
f 328/468/174 320/469/174 321/470/270 330/471/270
f 330/471/270 321/470/270 319/472/258 329/473/258
f 322/474/165 326/475/165 331/476/271 323/477/271
f 323/477/271 331/476/271 329/473/258 319/472/258
f 320/478/174 328/479/174 325/480/272 317/481/272
f 317/481/272 325/480/272 324/482/255 316/483/255
f 326/475/165 322/474/165 318/484/273 327/485/273
f 327/485/273 318/484/273 316/483/255 324/482/255
o toilet_mp_1_1_lid
v -0.137659 -0.006364 -0.006364
v -0.137659 0.000000 -0.009000
v -0.137659 0.000000 0.009000
v -0.137659 0.006364 0.006364
v 0.137652 -0.006364 -0.006364
v 0.137652 0.000000 0.009000
v 0.137652 0.000000 -0.009000
v 0.137652 0.006364 0.006364
v 0.078069 0.026643 0.042400
v 0.157383 0.026643 0.088255
v -0.087013 0.026143 0.541107
v -0.160778 0.026143 0.462934
v -0.000000 0.026143 0.559464
v -0.209722 0.026143 0.358577
v -0.223082 0.026143 0.266101
v -0.211836 0.026143 0.174237
v 0.087012 0.026143 0.541107
v 0.160778 0.026143 0.462934
v 0.209721 0.026143 0.358584
v 0.223083 0.026143 0.266172
v 0.211837 0.026143 0.174348
v -0.157383 0.026644 0.088145
v -0.078069 0.026644 0.042358
v 0.091344 0.006364 0.006364
v 0.114656 0.006364 0.006364
v 0.091344 -0.000000 0.009000
v 0.114656 -0.000000 0.009000
v -0.114656 0.006364 0.006364
v -0.091344 0.006364 0.006364
v -0.114656 -0.000000 0.009000
v -0.091344 -0.000000 0.009000
v 0.091344 0.012904 0.015978
v 0.114656 0.012904 0.015978
v 0.091344 0.009661 0.016661
v 0.114656 0.009661 0.016661
v -0.114656 0.012904 0.015978
v -0.091344 0.012904 0.015978
v -0.114656 0.009661 0.016661
v -0.091344 0.009661 0.016661
v 0.091344 0.012904 0.041300
v 0.114656 0.012904 0.054300
v 0.091344 0.009661 0.041300
v 0.114656 0.009661 0.054300
v -0.114656 0.012904 0.054300
v -0.091344 0.012904 0.041300
v -0.114656 0.009661 0.054300
v -0.091344 0.009661 0.041300
v 0.125341 -0.012960 -0.000000
v 0.125341 -0.009164 -0.009164
v 0.125341 -0.009164 0.009164
v 0.125341 0.012960 -0.000000
v 0.125341 0.000000 -0.012960
v 0.125341 0.009164 -0.009164
v 0.125341 0.000000 0.012960
v 0.125341 0.009164 0.009164
v 0.132652 -0.012960 -0.000000
v 0.132652 -0.009164 -0.009164
v 0.132652 0.000000 0.012960
v 0.132652 -0.009164 0.009164
v 0.132652 0.000000 -0.012960
v 0.132652 0.012960 -0.000000
v 0.132652 0.009164 -0.009164
v 0.132652 0.009164 0.009164
v -0.132659 -0.012960 -0.000000
v -0.132659 -0.009164 -0.009164
v -0.132659 -0.009164 0.009164
v -0.132659 0.012960 -0.000000
v -0.132659 0.000000 -0.012960
v -0.132659 0.009164 -0.009164
v -0.132659 0.000000 0.012960
v -0.132659 0.009164 0.009164
v -0.125348 -0.012960 -0.000000
v -0.125348 -0.009164 -0.009164
v -0.125348 0.000000 0.012960
v -0.125348 -0.009164 0.009164
v -0.125348 0.000000 -0.012960
v -0.125348 0.012960 -0.000000
v -0.125348 0.009164 -0.009164
v -0.125348 0.009164 0.009164
v 0.073341 -0.012960 -0.000000
v 0.073341 -0.009164 -0.009164
v 0.073341 -0.009164 0.009164
v 0.073341 0.012960 -0.000000
v 0.073341 0.000000 -0.012960
v 0.073341 0.009164 -0.009164
v 0.073341 0.000000 0.012960
v 0.073341 0.009164 0.009164
v 0.080652 -0.012960 -0.000000
v 0.080652 -0.009164 -0.009164
v 0.080652 0.000000 0.012960
v 0.080652 -0.009164 0.009164
v 0.080652 0.000000 -0.012960
v 0.080652 0.012960 -0.000000
v 0.080652 0.009164 -0.009164
v 0.080652 0.009164 0.009164
v -0.080659 -0.012960 -0.000000
v -0.080659 -0.009164 -0.009164
v -0.080659 -0.009164 0.009164
v -0.080659 0.012960 -0.000000
v -0.080659 0.000000 -0.012960
v -0.080659 0.009164 -0.009164
v -0.080659 0.000000 0.012960
v -0.080659 0.009164 0.009164
v -0.073348 -0.012960 -0.000000
v -0.073348 -0.009164 -0.009164
v -0.073348 0.000000 0.012960
v -0.073348 -0.009164 0.009164
v -0.073348 0.000000 -0.012960
v -0.073348 0.012960 -0.000000
v -0.073348 0.009164 -0.009164
v -0.073348 0.009164 0.009164
v -0.224225 0.007885 0.170411
v -0.234766 0.007764 0.267359
v 0.234766 0.007764 0.267359
v 0.224225 0.007885 0.170411
v -0.079019 0.008516 0.028617
v -0.168846 0.007764 0.474409
v -0.090918 0.007764 0.556021
v -0.000000 0.007764 0.575015
v 0.079020 0.008516 0.028617
v -0.221183 0.007764 0.364911
v 0.090918 0.007764 0.556021
v 0.168846 0.007764 0.474409
v 0.221183 0.007764 0.364911
v -0.165515 0.008406 0.076826
v 0.165515 0.008406 0.076827
vn 1.0000 -0.0000 -0.0000
vn -1.0000 -0.0000 -0.0000
vn -0.0000 0.9239 -0.3827
vn -0.0000 0.3827 0.9239
vn -0.0000 -0.3827 -0.9239
vn -0.0000 -0.9239 0.3827
vn 0.6593 0.5847 0.4727
vn 0.7897 0.5616 0.2467
vn 0.7964 0.5600 0.2283
vn 0.6811 0.5815 0.4450
vn 0.5497 0.5928 -0.5885
vn 0.2460 0.6081 -0.7548
vn 0.2745 0.6056 -0.7469
vn 0.5659 0.5921 -0.5738
vn 0.3576 0.6356 0.6842
vn 0.4023 0.6305 0.6638
vn -0.5508 0.5910 -0.5893
vn -0.7764 0.5709 -0.2670
vn -0.7743 0.5713 -0.2724
vn -0.5664 0.5903 -0.5751
vn 0.8337 0.5520 0.0146
vn 0.7755 0.5720 -0.2672
vn 0.7738 0.5723 -0.2715
vn 0.8337 0.5521 0.0081
vn -0.2462 0.6070 -0.7556
vn -0.2747 0.6043 -0.7479
vn -0.0000 0.6481 0.7615
vn -0.8338 0.5519 0.0148
vn -0.7897 0.5617 0.2467
vn -0.7963 0.5601 0.2282
vn -0.8338 0.5521 0.0078
vn -0.6810 0.5816 0.4449
vn -0.6593 0.5847 0.4727
vn -0.3576 0.6356 0.6842
vn -0.4023 0.6305 0.6638
vn -0.0000 1.0000 0.0010
vn -0.0000 1.0000 0.0009
vn -0.0000 -0.6213 0.7836
vn -0.0000 0.8268 -0.5625
vn -0.0000 1.0000 -0.0000
vn -0.0000 -1.0000 -0.0000
vn -0.0000 -0.0000 -1.0000
vn -0.0000 0.7071 -0.7071
vn -0.0000 -0.0000 1.0000
vn -0.0000 0.7071 0.7071
vn -0.0000 -0.7071 -0.7071
vn -0.0000 -0.7071 0.7071
vn -0.0000 -1.0000 -0.0013
vn -0.0000 -1.0000 -0.0014
vn -0.0000 1.0000 0.0011
vn -0.0000 1.0000 0.0017
vn -0.0000 -1.0000 -0.0012
vn -0.0000 -1.0000 -0.0016
vn -0.0000 -1.0000 -0.0015
vn -0.0000 -1.0000 -0.0017
vt 0.160726 -0.127217
vt 0.160726 -0.120753
vt 0.158049 -0.120753
vt 0.158049 -0.127217
vt 0.158049 -0.169560
vt 0.160726 -0.169560
vt 0.160726 -0.163096
vt 0.158049 -0.163096
vt 0.084102 0.392761
vt 0.072856 0.392762
vt 0.072856 0.232238
vt 0.084102 0.232238
vt 0.069108 0.392762
vt 0.069108 0.232238
vt 0.054114 0.392762
vt 0.054114 0.232238
vt 0.057862 0.232238
vt 0.057862 0.392762
vt 0.871691 0.382754
vt 0.909411 0.307594
vt 0.901150 0.303352
vt 0.865876 0.374978
vt 0.869290 0.109853
vt 0.806951 0.076762
vt 0.806266 0.086324
vt 0.863429 0.117799
vt 0.815527 0.438772
vt 0.812712 0.428637
vt 0.630710 0.109853
vt 0.588397 0.174090
vt 0.597326 0.176817
vt 0.636571 0.117723
vt 0.919201 0.240635
vt 0.911603 0.174090
vt 0.902675 0.176893
vt 0.910780 0.239921
vt 0.693049 0.076762
vt 0.693734 0.086295
vt 0.750000 0.451810
vt 0.750000 0.441237
vt 0.580799 0.240635
vt 0.590589 0.307594
vt 0.598849 0.303348
vt 0.589221 0.239873
vt 0.634124 0.374978
vt 0.628309 0.382754
vt 0.684473 0.438773
vt 0.687288 0.428637
vt 0.951437 0.362517
vt 0.951437 0.370701
vt 0.935896 0.370701
vt 0.935896 0.362517
vt 0.935896 0.363775
vt 0.935896 0.371388
vt 0.951437 0.371388
vt 0.951437 0.363775
vt 0.880516 0.366154
vt 0.881138 0.371388
vt 0.879038 0.370701
vt 0.875996 0.365701
vt 0.875996 0.365701
vt 0.880516 0.366153
vt 0.814104 0.362517
vt 0.814104 0.370701
vt 0.798563 0.370701
vt 0.798563 0.362517
vt 0.798563 0.363775
vt 0.798563 0.371388
vt 0.814104 0.371388
vt 0.814104 0.363775
vt 0.880566 0.363657
vt 0.881138 0.371388
vt 0.876013 0.363058
vt 0.935896 0.386008
vt 0.951437 0.393513
vt 0.872697 0.386008
vt 0.870825 0.384927
vt 0.866492 0.392432
vt 0.868364 0.393513
vt 0.868364 0.393513
vt 0.866491 0.392432
vt 0.870825 0.384927
vt 0.814104 0.384927
vt 0.798563 0.392432
vt 0.798563 0.393513
vt 0.814104 0.386008
vt 0.951437 0.392432
vt 0.935896 0.384927
vt 0.163484 0.121167
vt 0.169278 0.124007
vt 0.169278 0.128023
vt 0.163484 0.130863
vt 0.155291 0.130863
vt 0.149497 0.128023
vt 0.149497 0.124007
vt 0.155291 0.121167
vt 0.155291 0.078824
vt 0.163484 0.078824
vt 0.169278 0.081664
vt 0.169278 0.085680
vt 0.163484 0.088520
vt 0.155291 0.088520
vt 0.149497 0.085680
vt 0.149497 0.081664
vt 0.101881 0.483505
vt 0.101881 0.489899
vt 0.093688 0.489899
vt 0.093688 0.483505
vt 0.085494 0.489899
vt 0.085494 0.483505
vt 0.069108 0.489899
vt 0.069108 0.483505
vt 0.077301 0.483505
vt 0.077301 0.489899
vt 0.036335 0.489899
vt 0.036335 0.483505
vt 0.044528 0.483505
vt 0.044528 0.489899
vt 0.052721 0.483505
vt 0.052721 0.489899
vt 0.060915 0.489899
vt 0.060915 0.483505
vt 0.163484 0.121167
vt 0.169278 0.124007
vt 0.169278 0.128023
vt 0.163484 0.130863
vt 0.155291 0.130863
vt 0.149497 0.128023
vt 0.149497 0.124007
vt 0.155291 0.121167
vt 0.155291 0.078824
vt 0.163484 0.078824
vt 0.169277 0.081664
vt 0.169278 0.085680
vt 0.163484 0.088520
vt 0.155291 0.088520
vt 0.149497 0.085680
vt 0.101881 0.635101
vt 0.101881 0.641495
vt 0.093687 0.641494
vt 0.093687 0.635100
vt 0.085495 0.641494
vt 0.085495 0.635100
vt 0.069108 0.641496
vt 0.069108 0.635101
vt 0.077301 0.635101
vt 0.077302 0.641495
vt 0.036335 0.641495
vt 0.036335 0.635101
vt 0.044528 0.635101
vt 0.044528 0.641495
vt 0.052721 0.635100
vt 0.052721 0.641495
vt 0.060915 0.641495
vt 0.060915 0.635100
vt 0.101882 0.528986
vt 0.101882 0.535379
vt 0.093688 0.535379
vt 0.093689 0.528985
vt 0.085495 0.535376
vt 0.085495 0.528982
vt 0.069108 0.535374
vt 0.069108 0.528980
vt 0.077301 0.528979
vt 0.077301 0.535374
vt 0.036335 0.535378
vt 0.036335 0.528984
vt 0.044529 0.528986
vt 0.044529 0.535380
vt 0.052722 0.528987
vt 0.052722 0.535381
vt 0.060915 0.535379
vt 0.060915 0.528984
vt 0.163484 0.121167
vt 0.169278 0.124007
vt 0.169278 0.128023
vt 0.163484 0.130863
vt 0.155291 0.130863
vt 0.149497 0.128023
vt 0.149497 0.124007
vt 0.155291 0.121167
vt 0.101878 0.663664
vt 0.101878 0.670058
vt 0.093686 0.670060
vt 0.093686 0.663666
vt 0.085494 0.670065
vt 0.085494 0.663671
vt 0.069108 0.670062
vt 0.069108 0.663668
vt 0.077301 0.663670
vt 0.077301 0.670064
vt 0.036335 0.670064
vt 0.036335 0.663669
vt 0.044528 0.663671
vt 0.044528 0.670066
vt 0.052722 0.663673
vt 0.052722 0.670067
vt 0.060915 0.670065
vt 0.060915 0.663671
vt 0.876013 0.363058
vt 0.880566 0.363657
s 1
usemtl metal_mp_1
f 512/871/504 513/872/504 511/873/504 510/874/504
f 507/875/505 506/876/505 508/877/505 509/878/505
f 507/879/506 509/880/506 513/881/506 512/882/506
f 508/883/507 511/884/507 513/881/507 509/880/507
f 507/885/508 512/886/508 510/887/508 506/888/508
f 508/883/509 506/888/509 510/887/509 511/884/509
s 0
f 532/919/541 540/920/541 539/921/541 531/922/541
f 529/923/542 537/924/542 538/925/542 530/926/542
f 530/927/504 538/928/504 540/929/504 532/930/504
f 535/931/505 543/929/505 541/928/505 533/932/505
f 536/933/541 544/934/541 543/935/541 535/936/541
f 533/937/542 541/938/542 542/939/542 534/940/542
f 534/941/504 542/942/504 544/929/504 536/943/504
f 538/925/543 537/924/543 545/944/543 546/945/543
f 544/929/504 542/942/504 550/946/504 552/947/504
f 541/928/505 543/929/505 551/948/505 549/949/505
f 540/929/504 538/928/504 546/950/504 548/951/504
f 537/942/505 539/929/505 547/952/505 545/946/505
f 543/935/544 544/934/544 552/953/544 551/954/544
f 542/939/543 541/938/543 549/955/543 550/956/543
f 539/921/544 540/920/544 548/957/544 547/958/544
s 1
f 565/959/504 567/960/504 566/961/504 568/962/504 563/963/504 564/964/504 561/965/504 562/966/504
f 557/967/505 554/968/505 553/969/505 555/970/505 559/971/505 560/972/505 556/973/505 558/974/505
f 565/975/545 557/976/545 558/977/546 567/978/546
f 567/978/546 558/977/546 556/979/543 566/980/543
f 559/981/547 563/982/547 568/983/548 560/984/548
f 560/984/548 568/983/548 566/980/543 556/979/543
f 557/985/545 565/986/545 562/987/549 554/988/549
f 554/988/549 562/987/549 561/989/544 553/990/544
f 563/982/547 559/981/547 555/991/550 564/992/550
f 564/992/550 555/991/550 553/990/544 561/989/544
f 581/993/504 583/994/504 582/995/504 584/996/504 579/997/504 580/998/504 577/999/504 578/1000/504
f 573/1001/505 570/1002/505 569/1003/505 571/1004/505 575/1005/505 576/1006/505 572/1007/505 574/974/505
f 581/1008/545 573/1009/545 574/1010/546 583/1011/546
f 583/1011/546 574/1010/546 572/1012/543 582/1013/543
f 575/1014/547 579/1015/547 584/1016/548 576/1017/548
f 576/1017/548 584/1016/548 582/1013/543 572/1012/543
f 573/1018/545 581/1019/545 578/1020/549 570/1021/549
f 570/1021/549 578/1020/549 577/1022/544 569/1023/544
f 579/1015/547 575/1014/547 571/1024/550 580/1025/550
f 580/1025/550 571/1024/550 569/1023/544 577/1022/544
f 597/959/504 599/960/504 598/961/504 600/962/504 595/963/504 596/964/504 593/965/504 594/966/504
f 589/967/505 586/968/505 585/969/505 587/970/505 591/971/505 592/972/505 588/973/505 590/974/505
f 597/1026/545 589/1027/545 590/1028/546 599/1029/546
f 599/1029/546 590/1028/546 588/1030/543 598/1031/543
f 591/1032/547 595/1033/547 600/1034/548 592/1035/548
f 592/1035/548 600/1034/548 598/1031/543 588/1030/543
f 589/1036/545 597/1037/545 594/1038/549 586/1039/549
f 586/1039/549 594/1038/549 593/1040/544 585/1041/544
f 595/1033/547 591/1032/547 587/1042/550 596/1043/550
f 596/1043/550 587/1042/550 585/1041/544 593/1040/544
f 613/1044/504 615/1045/504 614/1046/504 616/1047/504 611/1048/504 612/1049/504 609/1050/504 610/1051/504
f 605/967/505 602/968/505 601/969/505 603/970/505 607/971/505 608/972/505 604/973/505 606/974/505
f 613/1052/545 605/1053/545 606/1054/546 615/1055/546
f 615/1055/546 606/1054/546 604/1056/543 614/1057/543
f 607/1058/547 611/1059/547 616/1060/548 608/1061/548
f 608/1061/548 616/1060/548 614/1057/543 604/1056/543
f 605/1062/545 613/1063/545 610/1064/549 602/1065/549
f 602/1065/549 610/1064/549 609/1066/544 601/1067/544
f 611/1059/547 607/1058/547 603/1068/550 612/1069/550
f 612/1069/550 603/1068/550 601/1067/544 609/1066/544
s 0
f 531/1070/505 539/929/505 537/942/505 529/1071/505
s 1
usemtl plastic_mp_2
f 628/889/510 629/890/511 524/891/512 523/892/513
f 631/893/514 625/894/515 514/895/516 515/896/517
f 627/897/518 628/889/510 523/892/513 522/898/519
f 630/899/520 617/900/521 521/901/522 527/902/523
f 619/903/524 620/904/525 526/905/526 525/906/527
f 621/907/528 630/899/520 527/902/523 528/908/529
f 624/909/530 627/897/518 522/898/519 518/910/530
f 618/911/531 626/912/532 519/913/533 520/914/534
f 517/915/535 622/916/536 623/917/537 516/918/538
f 629/890/511 619/903/524 525/906/527 524/891/512
f 626/912/532 622/916/536 517/915/535 519/913/533
f 620/904/525 631/893/514 515/896/517 526/905/526
f 527/902/539 515/896/540 514/895/540 528/908/540
f 623/917/537 624/909/530 518/910/530 516/918/538
f 623/917/551 627/897/551 624/909/552
f 617/900/521 618/911/531 520/914/534 521/901/522
f 621/907/528 528/908/529 514/895/516 625/894/515
f 516/918/553 518/910/553 522/898/553
f 527/902/539 521/901/553 526/905/554 515/896/540
f 521/901/553 520/914/553 525/906/553 526/905/554
f 520/914/553 519/913/553 524/891/553 525/906/553
f 519/913/553 517/915/553 523/892/553 524/891/553
f 517/915/553 516/918/553 522/898/553 523/892/553
f 622/916/552 628/889/555 627/897/551 623/917/551
f 626/912/556 629/890/556 628/889/555 622/916/552
f 618/911/557 619/903/552 629/890/556 626/912/556
f 617/900/556 620/904/558 619/903/552 618/911/557
f 630/899/556 631/893/556 620/904/558 617/900/556
f 621/907/558 625/894/558 631/893/556 630/899/556
