# Blender 5.0.1
# www.blender.org
mtllib wooden_crate_3.mtl
o wooden_crate_3
v 0.469800 -0.000000 -0.469800
v -0.469800 0.000000 -0.469800
v 0.469800 -0.000000 0.469800
v -0.469800 0.000000 0.469800
v 0.540000 -0.000000 -0.540000
v 0.540000 -0.000000 0.540000
v 0.469800 0.037800 -0.469800
v -0.469800 0.037800 -0.469800
v -0.469800 0.037800 0.469800
v 0.469800 0.037800 0.469800
v -0.469800 1.080000 -0.469800
v 0.469800 1.080000 -0.469800
v -0.469800 1.080000 0.469800
v 0.469800 1.080000 0.469800
v -0.540000 1.080000 -0.540000
v 0.540000 1.080000 -0.540000
v -0.540000 1.080000 0.540000
v -0.469800 1.042200 -0.469800
v 0.469800 1.042200 -0.469800
v 0.469800 1.042200 0.469800
v -0.469800 1.042200 0.469800
v -0.469800 0.070200 0.540000
v -0.469800 1.009800 0.540000
v 0.469800 0.070200 0.540000
v 0.469800 1.009800 0.540000
v -0.469800 0.070200 0.502200
v -0.469800 1.009800 0.502200
v 0.469800 1.009800 0.502200
v 0.469800 0.070200 0.502200
v 0.452636 0.070200 0.513000
v -0.469800 1.009800 -0.540000
v -0.469800 0.070200 -0.540000
v 0.469800 1.009800 -0.540000
v 0.469800 0.070200 -0.540000
v -0.469800 1.009800 -0.502200
v -0.469800 0.070200 -0.502200
v 0.469800 0.070200 -0.502200
v 0.469800 1.009800 -0.502200
v -0.540000 0.070200 -0.469800
v -0.540000 1.009800 -0.469800
v -0.540000 0.070200 0.469800
v -0.540000 1.009800 0.469800
v -0.540000 0.000000 -0.540000
v -0.540000 -0.000000 0.540000
v -0.502200 0.070200 -0.469800
v -0.502200 1.009800 -0.469800
v -0.502200 1.009800 0.469800
v -0.502200 0.070200 0.469800
v 0.540000 1.009800 -0.469800
v 0.540000 0.070200 -0.469800
v 0.540000 1.009800 0.469800
v 0.540000 0.070200 0.469800
v 0.540000 1.080000 0.540000
v 0.533436 0.410494 0.526323
v 0.502200 1.009800 -0.469800
v 0.502200 0.070200 -0.469800
v 0.502200 0.070200 0.469800
v 0.502200 1.009800 0.469800
v -0.528452 0.649199 0.525441
v 0.336769 1.080000 0.540000
v 0.130503 1.080000 0.540000
v 0.287045 1.057003 0.540000
v 0.193285 1.044487 0.540000
v 0.149213 1.063592 0.540000
v 0.185108 1.080000 0.507362
v 0.235588 1.080000 0.508138
v 0.286258 1.080000 0.515445
v 0.164435 1.060677 0.520181
v 0.286590 1.060430 0.519820
v 0.219519 1.056637 0.514263
v -0.469800 0.037800 0.469800
v 0.469800 0.037800 0.469800
v 0.469800 0.027000 -0.160071
v 0.469800 0.037800 -0.147343
v 0.469800 0.027000 -0.134614
v 0.469800 0.027000 0.134614
v 0.469800 0.037800 0.147343
v 0.469800 0.027000 0.160071
v -0.469800 0.027000 0.160071
v -0.469800 0.037800 0.147343
v -0.469800 0.027000 0.134614
v -0.469800 0.027000 -0.134614
v -0.469800 0.037800 -0.147343
v -0.469800 0.027000 -0.160071
v 0.469800 0.027000 0.452636
v -0.469800 0.027000 -0.452259
v 0.469800 0.027000 -0.452259
v -0.469800 0.027000 0.452636
v 0.469800 1.042200 0.469800
v -0.469800 1.042200 0.469800
v -0.469800 1.053000 -0.160071
v -0.469800 1.042200 -0.147343
v -0.469800 1.053000 -0.134614
v -0.469800 1.053000 0.134614
v -0.469800 1.042200 0.147343
v -0.469800 1.053000 0.160071
v 0.469800 1.053000 0.160071
v 0.469800 1.042200 0.147343
v 0.469800 1.053000 0.134614
v 0.469800 1.053000 -0.134614
v 0.469800 1.042200 -0.147343
v 0.469800 1.053000 -0.160071
v -0.469800 1.053000 0.452636
v 0.469800 1.053000 -0.452259
v -0.469800 1.053000 -0.452259
v 0.469800 1.053000 0.452636
v -0.469800 0.070200 0.502200
v -0.469800 1.009800 0.502200
v 0.469800 1.009800 0.502200
v 0.469800 0.070200 0.502200
v -0.160071 0.070200 0.513000
v -0.147343 0.070200 0.502200
v -0.134614 0.070200 0.513000
v 0.134614 0.070200 0.513000
v 0.147343 0.070200 0.502200
v 0.160071 0.070200 0.513000
v 0.160071 1.009800 0.513000
v 0.147343 1.009800 0.502200
v 0.134614 1.009800 0.513000
v -0.134614 1.009800 0.513000
v -0.147343 1.009800 0.502200
v -0.160071 1.009800 0.513000
v 0.452636 0.070200 0.513000
v -0.452259 1.009800 0.513000
v -0.452259 0.070200 0.513000
v 0.452636 1.009800 0.513000
v -0.469800 1.009800 -0.502200
v -0.469800 0.070200 -0.502200
v 0.469800 0.070200 -0.502200
v 0.469800 1.009800 -0.502200
v -0.160071 1.009800 -0.513000
v -0.147343 1.009800 -0.502200
v -0.134614 1.009800 -0.513000
v 0.134614 1.009800 -0.513000
v 0.147343 1.009800 -0.502200
v 0.160071 1.009800 -0.513000
v 0.160071 0.070200 -0.513000
v 0.147343 0.070200 -0.502200
v -0.147343 0.070200 -0.502200
v -0.160071 0.070200 -0.513000
v 0.452636 1.009800 -0.513000
v -0.452259 0.070200 -0.513000
v -0.452259 1.009800 -0.513000
v 0.452636 0.070200 -0.513000
v -0.502200 0.070200 -0.469800
v -0.502200 1.009800 -0.469800
v -0.502200 1.009800 0.469800
v -0.502200 0.070200 0.469800
v -0.513000 0.070200 -0.160071
v -0.502200 0.070200 -0.147343
v -0.513000 0.070200 -0.134614
v -0.513000 0.070200 0.134614
v -0.502200 0.070200 0.147343
v -0.513000 0.070200 0.160071
v -0.513000 1.009800 0.160071
v -0.502200 1.009800 0.147343
v -0.513000 1.009800 0.134614
v -0.513000 1.009800 -0.134614
v -0.502200 1.009800 -0.147343
v -0.513000 1.009800 -0.160071
v -0.513000 0.070200 0.452636
v -0.513000 1.009800 -0.452259
v -0.513000 0.070200 -0.452259
v -0.513000 1.009800 0.452636
v 0.502200 1.009800 -0.469800
v 0.502200 0.070200 -0.469800
v 0.502200 0.070200 0.469800
v 0.502200 1.009800 0.469800
v 0.513000 1.009800 -0.160071
v 0.502200 1.009800 -0.147343
v 0.513000 1.009800 -0.134614
v 0.513000 1.009800 0.134614
v 0.502200 1.009800 0.147343
v 0.513000 1.009800 0.160071
v 0.513000 0.070200 0.160071
v 0.502200 0.070200 0.147343
v 0.513000 0.070200 0.134614
v 0.513000 0.070200 -0.134614
v 0.502200 0.070200 -0.147343
v 0.513000 0.070200 -0.160072
v 0.513000 1.009800 0.452636
v 0.513000 0.070200 -0.452259
v 0.513000 1.009800 -0.452259
v 0.513000 0.070200 0.452636
v 0.042864 0.711435 -0.513000
v 0.068911 0.643979 -0.513000
v 0.061701 0.571707 -0.513000
v 0.043320 0.490545 -0.513000
v 0.059431 0.414973 -0.513000
v 0.013462 0.460607 -0.513000
v -0.000936 0.559519 -0.513000
v 0.030687 0.637054 -0.513000
v 0.024703 0.706789 -0.513000
v 0.032300 0.778816 -0.513000
v 0.034741 0.708404 -0.487800
v 0.050343 0.640548 -0.487800
v 0.032448 0.566155 -0.487800
v 0.027924 0.477070 -0.487800
v 0.134615 0.070200 -0.513000
v -0.134614 0.070200 -0.513000
v -0.469800 1.042200 -0.469800
v 0.469800 1.042200 -0.469800
v 0.469800 0.037800 -0.469800
v -0.469800 0.037800 -0.469800
vn -0.0000 -0.0000 1.0000
vn -0.0000 -1.0000 -0.0000
vn -0.0000 -0.0000 -1.0000
vn 1.0000 -0.0000 -0.0000
vn -0.0000 1.0000 -0.0000
vn -1.0000 -0.0000 -0.0000
vn -0.0730 0.0051 0.9973
vn -0.0213 -0.0158 0.9996
vn -0.1391 0.0075 0.9902
vn -0.0722 0.0050 0.9974
vn 0.0645 -0.0045 0.9979
vn 0.0207 0.0152 0.9997
vn 0.1228 -0.0062 0.9924
vn 0.0641 -0.0045 0.9979
vn 0.0167 0.0167 0.9997
vn -0.0171 -0.0171 0.9997
vn -0.9998 -0.0127 0.0169
vn -0.9934 0.0062 0.1142
vn -0.9998 -0.0136 0.0136
vn -0.9982 0.0042 0.0599
vn -0.9982 0.0041 0.0590
vn 0.9999 0.0075 0.0100
vn 0.9980 -0.0033 0.0636
vn 0.9999 0.0081 0.0081
vn 0.9994 -0.0023 0.0334
vn 0.9995 -0.0023 0.0329
vn 0.5073 0.7722 0.3825
vn 0.3029 0.8685 0.3922
vn 0.6131 0.6991 0.3681
vn -0.4292 0.1901 0.8830
vn -0.2669 0.2381 0.9339
vn -0.2606 0.2398 0.9352
vn 0.1417 0.9214 0.3619
vn -0.0211 0.9534 0.3011
vn -0.2614 0.9405 0.2173
vn -0.2421 0.9441 0.2237
vn 0.3917 0.1265 0.9114
vn 0.0056 0.3363 0.9418
vn -0.0586 0.3039 0.9509
vn 0.1669 0.2931 0.9414
vn 0.5129 0.0206 0.8582
vn -0.4143 0.8957 0.1615
vn -0.0000 -0.7625 -0.6470
vn -0.0000 -0.7625 0.6470
vn -0.0000 -0.8464 0.5326
vn -0.0000 0.7625 -0.6470
vn -0.0000 0.7625 0.6470
vn -0.0000 0.8464 0.5326
vn -0.5243 -0.0000 0.8515
vn -0.6470 -0.0000 0.7625
vn 0.6470 -0.0000 0.7625
vn 0.5326 -0.0000 0.8464
vn -0.5243 -0.0000 -0.8515
vn -0.6470 -0.0000 -0.7625
vn 0.6470 -0.0000 -0.7625
vn 0.5326 -0.0000 -0.8464
vn -0.8515 -0.0000 -0.5243
vn -0.7625 -0.0000 -0.6470
vn -0.7625 -0.0000 0.6470
vn -0.8464 -0.0000 0.5326
vn 0.8515 -0.0000 -0.5243
vn 0.7625 -0.0000 -0.6470
vn 0.7625 -0.0000 0.6470
vn 0.8464 -0.0000 0.5326
vn -0.8063 -0.0723 -0.5871
vn -0.7445 0.1159 -0.6574
vn -0.7501 0.1121 -0.6518
vn -0.8015 -0.0557 -0.5954
vn 0.9267 -0.0977 -0.3629
vn 0.8924 0.0298 -0.4503
vn 0.8949 0.0226 -0.4456
vn 0.7795 -0.0687 -0.6227
vn 0.7948 -0.0334 -0.6059
vn 0.7089 -0.1169 -0.6955
vn 0.7129 -0.0706 -0.6977
vn -0.8847 -0.2134 -0.4145
vn -0.8941 -0.2027 -0.3994
vn -0.9362 -0.1468 -0.3194
vn -0.7836 0.0007 -0.6212
vn -0.7906 -0.0520 -0.6101
vn 0.6762 0.2113 -0.7058
vn 0.6300 0.3423 -0.6970
vn -0.7978 -0.1701 -0.5784
vn 0.5321 0.5360 -0.6555
vn -0.0000 0.8515 -0.5243
vn -0.0000 -0.8515 -0.5243
vt 0.081364 0.006585
vt 0.919119 0.006585
vt 0.919119 0.040288
vt 0.081364 0.040288
vt 0.065000 0.065000
vt 0.065000 0.935000
vt 0.000000 1.000000
vt 0.000000 0.000000
vt 0.935000 0.935000
vt 0.935000 0.065000
vt 1.000000 0.000000
vt 1.000000 1.000000
vt 0.919119 0.006585
vt 0.081364 0.006585
vt 0.081364 0.040288
vt 0.919119 0.040288
vt 0.094430 0.006585
vt 0.932185 0.006585
vt 0.932185 0.040288
vt 0.094430 0.040288
vt 0.919119 0.969521
vt 0.081364 0.969521
vt 0.081364 0.935818
vt 0.919119 0.935818
vt 0.977264 0.765054
vt 1.000000 0.811824
vt 0.081364 0.994545
vt 0.919119 0.994546
vt 0.919119 0.960843
vt 0.081364 0.960843
vt 0.081364 0.969521
vt 0.919119 0.935818
vt 0.081364 0.935818
vt 0.094430 0.969521
vt 0.932185 0.969521
vt 0.932185 0.935818
vt 0.094430 0.935818
vt 0.031839 0.906930
vt 0.031839 0.069176
vt 0.065542 0.069176
vt 0.065542 0.906930
vt 0.000000 0.601110
vt 1.000000 0.380087
vt 0.678968 0.967117
vt 0.638160 0.984807
vt 0.081364 0.031609
vt 0.919119 0.031609
vt 0.919119 0.065312
vt 0.903815 0.055683
vt 0.081364 0.065312
vt 0.031839 0.069176
vt 0.031839 0.906930
vt 0.065542 0.906930
vt 0.065542 0.069176
vt 0.981710 0.931955
vt 0.981710 0.094200
vt 0.948007 0.094200
vt 0.948007 0.931955
vt 0.994776 0.069176
vt 0.994776 0.906930
vt 0.961073 0.906930
vt 0.961073 0.069176
vt 0.919119 0.031609
vt 0.081364 0.031609
vt 0.081364 0.065312
vt 0.919119 0.065312
vt 0.994776 0.906930
vt 0.994776 0.069176
vt 0.961073 0.069176
vt 0.081364 0.960843
vt 0.919119 0.960843
vt 0.919119 0.994546
vt 0.081364 0.994546
vt 0.018773 0.906930
vt 0.018773 0.069176
vt 0.052476 0.069176
vt 0.052476 0.906930
vt 1.000000 0.601110
vt 0.018773 0.069176
vt 0.018773 0.906930
vt 0.052476 0.906930
vt 0.052476 0.069176
vt 0.018773 0.094200
vt 0.018773 0.931955
vt 0.052476 0.931955
vt 0.052476 0.094200
vt 0.981710 0.069176
vt 0.981710 0.906930
vt 0.948007 0.906930
vt 0.948007 0.069176
vt 1.000000 0.619913
vt 0.018773 0.931955
vt 0.018773 0.094200
vt 0.052476 0.094200
vt 0.052476 0.931955
vt 0.981710 0.906930
vt 0.981710 0.069176
vt 0.948007 0.069176
vt 0.948007 0.906930
vt 0.981710 0.094200
vt 0.981710 0.931955
vt 0.948007 0.931955
vt 0.948007 0.094200
vt 0.707916 0.104490
vt 0.722872 0.117513
vt 0.688159 0.115647
vt 0.883188 0.113756
vt 0.833469 0.129625
vt 0.833866 0.116695
vt 0.749629 0.091966
vt 0.773360 0.118245
vt 0.834412 0.098957
vt 0.765782 0.978706
vt 0.811824 1.000000
vt 0.620836 1.000000
vt 0.970498 0.718137
vt 0.969780 0.671396
vt 1.000000 0.620836
vt 0.787896 0.134343
vt 0.743184 0.135199
vt 0.094430 0.935818
vt 0.932185 0.935818
vt 0.932185 0.006585
vt 0.094430 0.006585
vt 0.094430 0.040288
vt 0.932185 0.040288
vt 0.909062 0.082236
vt 0.909063 0.917763
vt 0.648904 0.917763
vt 0.648904 0.082237
vt 0.637585 0.917763
vt 0.637585 0.082237
vt 0.626266 0.917763
vt 0.626266 0.082237
vt 0.386858 0.917763
vt 0.386858 0.082237
vt 0.375540 0.917763
vt 0.375540 0.082237
vt 0.364221 0.917763
vt 0.364221 0.082237
vt 0.924326 0.082236
vt 0.924326 0.917763
vt 0.104397 0.917763
vt 0.104396 0.082236
vt 0.648904 0.917763
vt 0.637585 0.082237
vt 0.626266 0.917763
vt 0.386858 0.082237
vt 0.386858 0.917763
vt 0.375539 0.082237
vt 0.104396 0.082237
vt 0.104397 0.082236
vt 0.104397 0.917763
vt 0.088799 0.917763
vt 0.088799 0.082236
vt 0.909063 0.082236
vt 0.909062 0.917763
vt 0.648903 0.917763
vt 0.648904 0.082236
vt 0.637585 0.917763
vt 0.637585 0.082236
vt 0.626266 0.917763
vt 0.626266 0.082236
vt 0.386858 0.917763
vt 0.386858 0.082236
vt 0.375539 0.917763
vt 0.375539 0.082236
vt 0.364221 0.917763
vt 0.364221 0.082236
vt 0.924326 0.082236
vt 0.924326 0.917763
vt 0.104396 0.917764
vt 0.104397 0.082237
vt 0.088799 0.082237
vt 0.088799 0.917764
vt 0.909062 0.917764
vt 0.909062 0.082237
vt 0.648903 0.082237
vt 0.648904 0.917764
vt 0.637585 0.082237
vt 0.637585 0.917764
vt 0.626266 0.082237
vt 0.626266 0.917764
vt 0.567840 0.592462
vt 0.386858 0.917764
vt 0.386858 0.082237
vt 0.375539 0.082237
vt 0.375540 0.917764
vt 0.364221 0.082237
vt 0.364221 0.917764
vt 0.924326 0.917764
vt 0.924326 0.082237
vt 0.889520 0.082237
vt 0.889520 0.917764
vt 0.905118 0.917764
vt 0.905118 0.082237
vt 0.084854 0.082236
vt 0.084854 0.917763
vt 0.345013 0.917763
vt 0.345013 0.082236
vt 0.356332 0.917763
vt 0.356332 0.082236
vt 0.367651 0.917763
vt 0.367651 0.082236
vt 0.607059 0.917763
vt 0.607059 0.082237
vt 0.618377 0.917763
vt 0.618377 0.082237
vt 0.629696 0.917763
vt 0.629696 0.082237
vt 0.069591 0.082236
vt 0.069591 0.917763
vt 0.904486 0.920174
vt 0.904486 0.079826
vt 0.920174 0.079826
vt 0.920174 0.920174
vt 0.095177 0.920174
vt 0.095177 0.079826
vt 0.356837 0.079826
vt 0.356837 0.920174
vt 0.368221 0.079826
vt 0.368221 0.920174
vt 0.379605 0.079826
vt 0.379605 0.920174
vt 0.620395 0.079826
vt 0.620395 0.920174
vt 0.631779 0.079826
vt 0.631779 0.920174
vt 0.643163 0.079826
vt 0.643163 0.920174
vt 0.079826 0.920174
vt 0.079826 0.079826
vt 0.943533 0.592462
vt 0.943533 0.528195
vt 0.921124 0.523258
vt 0.921124 0.589411
vt 0.535285 0.712364
vt 0.528529 0.648315
vt 0.943533 0.712364
vt 0.921124 0.649751
vt 0.943533 0.648315
vt 0.943533 0.586304
vt 0.943533 0.517357
vt 0.943533 0.652446
vt 0.943533 0.456023
vt 0.921124 0.444040
vt 0.943533 0.429401
vt 0.943533 0.388822
vt 0.518533 0.429401
vt 0.531394 0.444040
vt 0.559411 0.388822
vt 0.505730 0.517357
vt 0.561429 0.528195
vt 0.545084 0.456023
vt 0.533850 0.586304
vt 0.088799 0.082237
vt 0.088799 0.917763
vt 0.088799 0.082236
vt 0.544678 0.652446
s 1
usemtl wooden_crate_3
f 2/1/1 1/2/1 7/3/1 8/4/1
f 1/5/2 2/6/2 43/7/2 5/8/2
f 4/9/2 3/10/2 6/11/2 44/12/2
f 3/10/2 1/5/2 5/8/2 6/11/2
f 2/6/2 4/9/2 44/12/2 43/7/2
f 3/13/3 4/14/3 9/15/3 10/16/3
f 4/17/4 2/18/4 8/19/4 9/20/4
f 12/21/1 11/22/1 18/23/1 19/24/1
f 11/5/5 12/6/5 16/7/5 15/8/5
f 14/9/5 67/25/5 60/26/5 53/12/5
f 13/10/5 11/5/5 15/8/5 17/11/5
f 12/6/5 14/9/5 53/12/5 16/7/5
f 31/27/2 33/28/2 38/29/2 35/30/2
f 13/31/3 14/21/3 20/32/3 21/33/3
f 14/34/6 12/35/6 19/36/6 20/37/6
f 23/38/4 22/39/4 26/40/4 27/41/4
f 22/5/7 23/6/8 59/42/9 44/8/10
f 25/9/11 24/10/12 54/43/13 53/12/14
f 24/10/12 22/5/7 44/8/10 6/11/15
f 23/6/8 63/44/1 64/45/1 17/7/16
f 22/46/5 24/47/5 29/48/5 30/49/5 26/50/5
f 24/51/6 25/52/6 28/53/6 29/54/6
f 49/55/2 51/56/2 58/57/2 55/58/2
f 32/59/4 31/60/4 35/61/4 36/62/4
f 31/5/3 32/6/3 43/7/3 15/8/3
f 34/9/3 33/10/3 16/11/3 5/12/3
f 33/10/3 31/5/3 15/8/3 16/11/3
f 32/6/3 34/9/3 5/12/3 43/7/3
f 25/63/2 23/64/2 27/65/2 28/66/2
f 33/67/6 34/68/6 37/69/6 38/61/6
f 36/70/5 37/71/5 34/72/5 32/73/5
f 40/74/1 39/75/1 45/76/1 46/77/1
f 39/5/6 40/6/6 15/7/6 43/8/6
f 42/9/17 59/78/18 17/12/19
f 41/10/20 39/5/6 43/8/6 44/11/21
f 40/6/6 42/9/17 17/12/19 15/7/6
f 41/79/3 42/80/3 47/81/3 48/82/3
f 42/83/2 40/84/2 46/85/2 47/86/2
f 50/87/1 49/88/1 55/89/1 56/90/1
f 49/5/4 50/6/4 5/7/4 16/8/4
f 52/9/22 54/91/23 6/12/24
f 51/10/25 49/5/4 16/8/4 53/11/26
f 50/6/4 52/9/22 6/12/24 5/7/4
f 39/92/5 41/93/5 48/94/5 45/95/5
f 51/96/3 52/97/3 57/98/3 58/99/3
f 52/100/5 50/101/5 56/102/5 57/103/5
f 54/91/23 52/9/22 51/10/25 53/11/26
f 54/43/13 24/10/12 6/11/15
f 59/42/9 23/6/8 17/7/16
f 59/78/18 42/9/17 41/10/20 44/11/21
f 64/104/27 68/105/28 61/106/29
f 60/107/30 67/108/31 69/109/32
f 63/110/33 70/111/34 68/105/28 64/104/27
f 62/112/35 69/109/36 70/111/34 63/110/33
f 62/113/1 25/9/11 53/12/14 60/114/1
f 63/44/1 23/6/8 25/9/11 62/113/1
f 17/7/16 64/45/1 61/115/1
f 67/25/5 14/9/5 66/116/5
f 66/116/5 14/9/5 13/10/5 65/117/5
f 65/117/5 13/10/5 17/11/5 61/118/5
f 68/105/37 70/111/38 66/119/39 65/120/40
f 70/111/38 69/109/32 67/108/31 66/119/39
f 61/106/41 68/105/37 65/120/40
f 69/109/36 62/112/35 60/107/42
f 11/35/4 13/34/4 21/121/4 18/122/4
f 1/123/6 3/124/6 10/125/6 7/126/6
f 85/127/2 88/128/2 79/129/2 78/130/2
f 78/130/43 79/129/43 80/131/43 77/132/43
f 77/132/44 80/131/44 81/133/44 76/134/44
f 76/134/2 81/133/2 82/135/2 75/136/2
f 75/136/43 82/135/43 83/137/43 74/138/43
f 74/138/44 83/137/44 84/139/44 73/140/44
f 72/141/45 71/142/45 88/128/45 85/127/45
f 73/140/2 84/139/2 86/143/2 87/144/2
f 103/128/5 106/127/5 97/130/5 96/145/5
f 96/145/46 97/130/46 98/146/46 95/131/46
f 95/131/47 98/146/47 99/134/47 94/147/47
f 94/147/5 99/134/5 100/148/5 93/149/5
f 93/149/46 100/148/46 101/150/46 92/137/46
f 92/137/47 101/150/47 102/140/47 91/139/47
f 90/142/48 89/141/48 106/127/48 103/128/48
f 91/139/5 102/140/5 104/151/5 105/143/5
f 125/152/49 124/153/49 108/154/49 107/155/49
f 123/156/1 126/157/1 117/158/1 116/159/1
f 116/159/50 117/158/50 118/160/50 115/161/50
f 115/161/51 118/160/51 119/162/51 114/163/51
f 114/163/1 119/162/1 120/164/1 113/165/1
f 113/165/50 120/164/50 121/166/50 112/167/50
f 112/167/51 121/166/51 122/168/51 111/169/51
f 110/170/52 109/171/52 126/157/52 123/156/52
f 111/169/1 122/168/1 124/153/1 125/152/1
f 143/172/53 142/173/53 128/174/53 127/175/53
f 141/176/3 144/177/3 137/178/3 136/179/3
f 136/179/54 137/178/54 138/180/54 135/181/54
f 135/181/55 138/180/55 199/182/55 134/183/55
f 134/183/3 199/182/3 186/184/3
f 133/185/54 200/186/54 139/187/54 132/188/54
f 132/188/55 139/187/55 140/189/55 131/190/55
f 130/191/56 129/192/56 144/177/56 141/176/56
f 131/190/3 140/189/3 142/173/3 143/172/3
f 163/193/57 162/194/57 146/195/57 145/196/57
f 161/197/6 164/198/6 155/199/6 154/200/6
f 154/200/58 155/199/58 156/201/58 153/202/58
f 153/202/59 156/201/59 157/203/59 152/204/59
f 152/204/6 157/203/6 158/205/6 151/206/6
f 151/206/58 158/205/58 159/207/58 150/208/58
f 150/208/59 159/207/59 160/209/59 149/210/59
f 148/211/60 147/212/60 164/198/60 161/197/60
f 149/210/6 160/209/6 162/194/6 163/193/6
f 183/213/61 182/214/61 166/215/61 165/216/61
f 181/217/4 184/218/4 175/219/4 174/220/4
f 174/220/62 175/219/62 176/221/62 173/222/62
f 173/222/63 176/221/63 177/223/63 172/224/63
f 172/224/4 177/223/4 178/225/4 171/226/4
f 171/226/62 178/225/62 179/227/62 170/228/62
f 170/228/63 179/227/63 180/229/63 169/230/63
f 168/231/64 167/232/64 184/218/64 181/217/64
f 169/230/4 180/229/4 182/214/4 183/213/4
f 186/233/65 187/234/66 197/235/67 196/236/68
f 134/183/3 194/237/3 193/238/3 133/185/3
f 194/239/69 195/240/70 193/241/71
f 192/242/72 196/236/73 197/235/74 191/243/75
f 196/236/68 195/240/76 185/244/77 186/233/65
f 185/244/77 195/240/76 194/239/78
f 193/241/71 195/240/70 196/236/73 192/242/72
f 197/235/67 187/234/66 188/245/79 198/246/80
f 191/243/75 197/235/74 198/246/81 190/247/82
f 198/246/80 188/245/79 189/248/83
f 190/249/82 198/250/81 189/251/84
f 189/251/3 199/182/3 200/186/3 190/249/3
f 190/249/3 200/186/3 133/185/3 191/252/3
f 187/253/3 189/251/3 188/254/3
f 186/184/3 199/182/3 189/251/3 187/253/3
f 133/185/3 193/238/3 192/255/3 191/252/3
f 105/143/85 104/151/85 202/256/85 201/257/85
f 87/144/86 86/143/86 204/257/86 203/258/86
f 134/183/3 186/184/3 185/259/3 194/237/3
