# Blender 5.0.1
# www.blender.org
mtllib wooden_crate_2.mtl
o wooden_crate_2
v -0.533389 1.072948 0.536754
v 0.535070 1.077175 0.536341
v -0.535184 1.082121 -0.537094
v 0.535458 1.073707 -0.535994
v -0.405000 1.080000 -0.405000
v -0.405000 1.080000 0.405000
v 0.405000 1.080000 0.405000
v 0.405000 1.080000 -0.405000
v -0.405000 1.042200 -0.405000
v -0.405000 1.042200 0.405000
v 0.405000 1.042200 0.405000
v 0.405000 1.042200 -0.405000
v 0.532690 0.002698 -0.533270
v -0.532520 0.006695 0.540000
v 0.536727 0.006442 0.539348
v -0.405000 0.000000 0.405000
v -0.405000 -0.000000 -0.405000
v 0.405000 -0.000000 -0.405000
v 0.405000 0.000000 0.405000
v -0.405000 0.037800 0.405000
v -0.405000 0.037800 -0.405000
v 0.405000 0.037800 -0.405000
v 0.405000 0.037800 0.405000
v -0.405000 0.135000 -0.540000
v -0.405000 0.945000 -0.540000
v 0.405000 0.945000 -0.540000
v 0.405000 0.135000 -0.540000
v -0.405000 0.135000 -0.502200
v -0.405000 0.945000 -0.502200
v 0.405000 0.945000 -0.502200
v 0.405000 0.135000 -0.502200
v -0.405000 0.945000 0.540000
v -0.405000 0.135000 0.540000
v 0.405000 0.135000 0.540000
v 0.405000 0.945000 0.540000
v -0.405000 0.945000 0.502200
v -0.405000 0.135000 0.502200
v 0.405000 0.135000 0.502200
v 0.405000 0.945000 0.502200
v 0.540000 0.135000 -0.405000
v 0.540000 0.945000 -0.405000
v 0.540000 0.945000 0.405000
v 0.540000 0.135000 0.405000
v 0.502200 0.135000 -0.405000
v 0.502200 0.945000 -0.405000
v 0.502200 0.945000 0.405000
v 0.502200 0.135000 0.405000
v 0.502200 0.945000 -0.245700
v 0.502200 0.945000 -0.027000
v 0.502200 0.945000 0.197100
v 0.513000 0.945000 0.216000
v 0.513000 0.945000 0.386100
v 0.513000 0.945000 -0.386100
v 0.513000 0.945000 -0.264600
v 0.513000 0.945000 -0.226800
v 0.513000 0.945000 -0.045900
v 0.513000 0.945000 -0.008100
v 0.513000 0.945000 0.178200
v -0.537241 0.004405 -0.542321
v -0.540000 0.945000 -0.405000
v -0.540000 0.135000 -0.405000
v -0.540000 0.135000 0.405000
v -0.540000 0.945000 0.405000
v -0.502200 0.945000 -0.405000
v -0.502200 0.135000 -0.405000
v -0.502200 0.135000 0.405000
v -0.502200 0.945000 0.405000
v -0.502200 0.945000 0.197100
v -0.502200 0.945000 -0.027000
v -0.502200 0.945000 -0.245700
v -0.513000 0.945000 -0.264600
v -0.513000 0.945000 -0.386100
v -0.513000 0.945000 0.386100
v -0.513000 0.945000 0.216000
v -0.513000 0.945000 0.178200
v -0.513000 0.945000 -0.008100
v -0.513000 0.945000 -0.045900
v -0.513000 0.945000 -0.226800
v -0.238522 1.080000 0.540000
v -0.061459 1.080000 0.540000
v -0.194013 1.068220 0.540000
v -0.149753 1.067402 0.540000
v -0.112413 1.059622 0.540000
v -0.092790 1.080000 0.525267
v -0.137734 1.080000 0.524075
v -0.186460 1.080000 0.530231
v -0.187350 1.074600 0.534600
v -0.145016 1.074600 0.534600
v -0.101006 1.074600 0.534600
v -0.540000 0.877500 0.540000
v 0.337500 1.080000 0.540000
v 0.540000 1.080000 0.337500
v -0.337500 0.000000 0.540000
v -0.540000 0.202500 0.540000
v -0.540000 0.000000 0.337500
v -0.528479 0.540000 0.528512
v 0.337500 0.000000 0.540000
v 0.540000 0.000000 0.337500
v 0.540000 0.202500 -0.540000
v 0.540000 -0.000000 -0.337500
v 0.337500 -0.000000 -0.540000
v -0.337500 0.000000 -0.540000
v -0.540000 0.000000 -0.337500
v 0.337500 1.080000 -0.540000
v 0.540000 0.877500 -0.540000
v 0.540000 1.080000 -0.337500
v 0.540000 0.769797 -0.540000
v 0.540000 0.414545 -0.540000
v 0.540000 0.695496 -0.511539
v 0.540000 0.633890 -0.477055
v 0.540000 0.565719 -0.491673
v 0.479251 0.541214 -0.540000
v 0.485882 0.625474 -0.540000
v 0.471069 0.686626 -0.540000
v 0.523800 0.697491 -0.523800
v 0.523800 0.638713 -0.523800
v 0.523800 0.566764 -0.523800
v -0.419235 1.080000 0.020882
v -0.549161 1.080000 0.000000
v -0.540000 0.945000 0.000000
v -0.405000 1.042200 0.020883
v -0.405000 1.042200 -0.405000
v -0.405000 1.042200 0.405000
v 0.405000 1.042200 0.405000
v 0.405000 1.042200 -0.405000
v -0.245700 1.042200 0.405000
v -0.027000 1.042200 0.405000
v 0.197100 1.042200 0.405000
v 0.197100 1.042200 -0.405000
v -0.027000 1.042200 -0.405000
v -0.245700 1.042200 -0.405000
v 0.216000 1.053000 0.405000
v 0.386100 1.053000 0.405000
v -0.264600 1.053000 -0.405000
v -0.386100 1.053000 -0.405000
v -0.386100 1.053000 0.405000
v -0.264600 1.053000 0.405000
v -0.226800 1.053000 0.405000
v -0.045900 1.053000 0.405000
v -0.008100 1.053000 0.405000
v 0.178200 1.053000 0.405000
v 0.386100 1.053000 -0.405000
v 0.216000 1.053000 -0.405000
v 0.178200 1.053000 -0.405000
v -0.008100 1.053000 -0.405000
v -0.045900 1.053000 -0.405000
v -0.226800 1.053000 -0.405000
v -0.405000 0.037800 0.405000
v -0.405000 0.037800 -0.405000
v 0.405000 0.037800 -0.405000
v 0.405000 0.037800 0.405000
v -0.245700 0.037800 -0.405000
v -0.027000 0.037800 -0.405000
v 0.197100 0.037800 -0.405000
v 0.197100 0.037800 0.405000
v -0.027000 0.037800 0.405000
v -0.245700 0.037800 0.405000
v 0.216000 0.027000 -0.405000
v 0.386100 0.027000 -0.405000
v -0.264600 0.027000 0.405000
v -0.386100 0.027000 0.405000
v -0.386100 0.027000 -0.405000
v -0.264600 0.027000 -0.405000
v -0.226800 0.027000 -0.405000
v -0.045900 0.027000 -0.405000
v -0.008100 0.027000 -0.405000
v 0.178200 0.027000 -0.405000
v 0.386100 0.027000 0.405000
v 0.216000 0.027000 0.405000
v 0.178200 0.027000 0.405000
v -0.008100 0.027000 0.405000
v -0.045900 0.027000 0.405000
v -0.226800 0.027000 0.405000
v -0.405000 0.135000 -0.502200
v -0.405000 0.945000 -0.502200
v 0.405000 0.945000 -0.502200
v 0.405000 0.135000 -0.502200
v -0.245700 0.945000 -0.502200
v -0.027000 0.945000 -0.502200
v 0.197100 0.945000 -0.502200
v 0.197100 0.135000 -0.502200
v -0.027000 0.135000 -0.502200
v -0.245700 0.135000 -0.502200
v 0.216000 0.945000 -0.513000
v 0.386100 0.945000 -0.513000
v -0.264600 0.135000 -0.513000
v -0.386100 0.135000 -0.513000
v -0.386100 0.945000 -0.513000
v -0.264600 0.945000 -0.513000
v -0.226800 0.945000 -0.513000
v -0.045900 0.945000 -0.513000
v -0.008100 0.945000 -0.513000
v 0.178200 0.945000 -0.513000
v 0.386100 0.135000 -0.513000
v 0.216000 0.135000 -0.513000
v 0.178200 0.135000 -0.513000
v -0.008100 0.135000 -0.513000
v -0.045900 0.135000 -0.513000
v -0.226800 0.135000 -0.513000
v -0.405000 0.945000 0.502200
v -0.405000 0.135000 0.502200
v 0.405000 0.135000 0.502200
v 0.405000 0.945000 0.502200
v -0.245700 0.135000 0.502200
v -0.027000 0.135000 0.502200
v 0.197100 0.135000 0.502200
v 0.197100 0.945000 0.502200
v -0.027000 0.945000 0.502200
v -0.245700 0.945000 0.502200
v 0.216000 0.135000 0.513000
v 0.386100 0.135000 0.513000
v -0.264600 0.945000 0.513000
v -0.386100 0.945000 0.513000
v -0.386100 0.135000 0.513000
v -0.264600 0.135000 0.513000
v -0.226800 0.135000 0.513000
v -0.045900 0.135000 0.513000
v -0.008100 0.135000 0.513000
v 0.178200 0.135000 0.513000
v 0.386100 0.945000 0.513000
v 0.216000 0.945000 0.513000
v 0.178200 0.945000 0.513000
v -0.008100 0.945000 0.513000
v -0.045900 0.945000 0.513000
v -0.226800 0.945000 0.513000
v 0.502200 0.135000 -0.405000
v 0.502200 0.945000 -0.405000
v 0.502200 0.945000 0.405000
v 0.502200 0.135000 0.405000
v 0.502200 0.945000 -0.245700
v 0.502200 0.945000 -0.027000
v 0.502200 0.945000 0.197100
v 0.502200 0.135000 0.197100
v 0.502200 0.135000 -0.027000
v 0.502200 0.135000 -0.245700
v 0.513000 0.945000 0.216000
v 0.513000 0.945000 0.386100
v 0.513000 0.135000 -0.264600
v 0.513000 0.135000 -0.386100
v 0.513000 0.945000 -0.386100
v 0.513000 0.945000 -0.264600
v 0.513000 0.945000 -0.226800
v 0.513000 0.945000 -0.045900
v 0.513000 0.945000 -0.008100
v 0.513000 0.945000 0.178200
v 0.513000 0.135000 0.386100
v 0.513000 0.135000 0.216000
v 0.513000 0.135000 0.178200
v 0.513000 0.135000 -0.008100
v 0.513000 0.135000 -0.045900
v 0.513000 0.135000 -0.226800
v -0.502200 0.945000 -0.405000
v -0.502200 0.135000 -0.405000
v -0.502200 0.135000 0.405000
v -0.502200 0.945000 0.405000
v -0.502200 0.135000 -0.245700
v -0.502200 0.135000 -0.027000
v -0.502200 0.135000 0.197100
v -0.502200 0.945000 0.197100
v -0.502200 0.945000 -0.027000
v -0.502200 0.945000 -0.245700
v -0.513000 0.135000 0.216000
v -0.513000 0.135000 0.386100
v -0.513000 0.945000 -0.264600
v -0.513000 0.945000 -0.386100
v -0.513000 0.135000 -0.386100
v -0.513000 0.135000 -0.264600
v -0.513000 0.135000 -0.226800
v -0.513000 0.135000 -0.045900
v -0.513000 0.135000 -0.008100
v -0.513000 0.135000 0.178200
v -0.513000 0.945000 0.386100
v -0.513000 0.945000 0.216000
v -0.513000 0.945000 0.178200
v -0.513000 0.945000 -0.008100
v -0.513000 0.945000 -0.045900
v -0.513000 0.945000 -0.226800
vn -1.0000 -0.0000 -0.0000
vn -0.9995 -0.0308 -0.0000
vn -0.9996 0.0062 0.0259
vn -0.9994 0.0255 0.0253
vn 0.0057 1.0000 0.0057
vn 0.0108 0.9999 0.0108
vn 0.0025 1.0000 0.0050
vn 0.0127 0.9998 -0.0128
vn 0.0241 0.9994 -0.0240
vn 0.0112 0.9999 -0.0056
vn 0.9820 0.1888 -0.0003
vn 0.9829 0.1843 0.0048
vn 0.9311 0.3278 0.1600
vn 0.9820 0.1888 -0.0002
vn -0.0000 -0.0000 1.0000
vn -0.0000 -0.0000 -1.0000
vn -0.0135 -0.9998 0.0136
vn -0.0257 -0.9994 0.0253
vn -0.0058 -0.9999 0.0116
vn -0.0086 -0.9999 -0.0087
vn -0.0164 -0.9997 -0.0163
vn -0.0078 -1.0000 -0.0039
vn 0.0056 -1.0000 -0.0056
vn 0.0105 -0.9999 -0.0105
vn 0.0024 -1.0000 -0.0048
vn 0.0128 -0.9998 0.0128
vn 0.0243 -0.9994 0.0241
vn 0.0114 -0.9999 0.0057
vn 1.0000 -0.0000 -0.0000
vn 0.0043 1.0000 0.0043
vn 0.0081 0.9999 0.0081
vn 0.0081 0.0085 -0.9999
vn 0.0154 0.0155 -0.9998
vn 0.0036 0.0072 -1.0000
vn 0.0137 -0.0138 -0.9998
vn 0.0260 -0.0258 -0.9993
vn 0.0121 -0.0061 -0.9999
vn -0.0000 1.0000 -0.0000
vn -0.0000 -1.0000 -0.0000
vn -0.0162 0.0068 0.9998
vn -0.0126 0.0127 0.9998
vn -0.0291 0.0059 0.9996
vn -0.0094 -0.0000 1.0000
vn 0.0075 0.0079 0.9999
vn 0.0140 0.0139 0.9998
vn 0.0065 0.0033 1.0000
vn 0.9998 -0.0149 -0.0148
vn 0.9992 -0.0279 -0.0281
vn 0.9999 -0.0128 -0.0064
vn 0.9999 0.0093 -0.0093
vn 0.9997 0.0175 -0.0174
vn 1.0000 0.0040 -0.0080
vn 0.0015 -0.0012 1.0000
vn 0.0025 -0.0025 1.0000
vn 1.0000 -0.0066 0.0066
vn 0.9998 -0.0125 0.0124
vn 1.0000 -0.0028 0.0057
vn -0.0109 0.0108 -0.9999
vn -0.0057 0.0058 -1.0000
vn 0.0047 0.0046 -1.0000
vn 0.0088 0.0088 -0.9999
vn -1.0000 -0.0054 -0.0055
vn -0.9999 -0.0104 -0.0103
vn -1.0000 -0.0024 -0.0047
vn -0.9996 -0.0150 0.0246
vn -0.9992 -0.0286 0.0282
vn -0.9994 -0.0136 0.0328
vn -0.0145 0.9998 0.0145
vn -0.0272 0.9993 0.0270
vn 0.1447 0.5468 0.8247
vn 0.1021 0.5709 0.8147
vn 0.0463 0.6000 0.7987
vn -0.1753 0.9112 0.3728
vn -0.1184 0.9048 0.4090
vn -0.0583 0.8937 0.4448
vn 0.0188 0.5451 0.8382
vn 0.0281 0.4883 0.8722
vn 0.0986 0.7026 0.7047
vn 0.0868 0.7237 0.6846
vn 0.1465 0.6075 0.7807
vn -0.0115 0.4249 0.9052
vn -0.1164 0.4436 0.8886
vn 0.0255 0.8272 0.5614
vn 0.0079 0.8579 0.5137
vn -0.1810 0.4526 0.8731
vn -0.9994 0.0120 0.0321
vn -0.0402 -0.0000 0.9992
vn -0.0262 -0.0000 0.9997
vn 0.0050 1.0000 0.0025
vn 0.9997 0.0187 0.0187
vn 0.9999 0.0099 0.0101
vn 1.0000 0.0044 0.0087
vn 0.0056 0.9999 -0.0111
vn 0.0012 -0.0006 1.0000
vn -0.0121 -0.9999 0.0060
vn -0.9992 -0.0000 0.0403
vn -0.9999 -0.0065 0.0130
vn -0.0038 -1.0000 -0.0076
vn 0.9999 -0.0066 -0.0131
vn 0.0056 -0.9999 0.0112
vn 0.0059 -0.0118 -0.9999
vn 0.0041 0.0020 -1.0000
vn 0.0049 -1.0000 -0.0024
vn -0.9999 0.0022 -0.0124
vn -0.9997 0.0178 -0.0180
vn 0.0071 0.0036 -1.0000
vn 1.0000 0.0081 -0.0041
vn 0.5524 -0.2982 -0.7784
vn 0.7589 -0.2070 -0.6174
vn 0.7177 -0.2288 -0.6576
vn 0.2719 0.1304 -0.9534
vn 0.3111 0.0752 -0.9474
vn 0.3376 0.0365 -0.9406
vn 0.3351 -0.1453 -0.9309
vn 0.3328 -0.0621 -0.9410
vn 0.3339 -0.2767 -0.9011
vn 0.9047 -0.0333 -0.4248
vn 0.8966 -0.0562 -0.4392
vn 0.3452 0.0178 -0.9384
vn 0.3528 0.0084 -0.9357
vn 0.9100 0.0837 -0.4061
vn 0.9074 0.0903 -0.4103
vn 0.8858 0.1413 -0.4421
vn 0.9838 0.1795 -0.0006
vn 0.9838 0.1795 -0.0007
vn 0.4961 0.8682 -0.0000
vn -0.4961 0.8682 -0.0000
vn 0.4961 -0.8682 -0.0000
vn -0.4961 -0.8682 -0.0000
vn 0.4961 -0.0000 -0.8682
vn -0.4961 -0.0000 -0.8682
vn 0.4961 -0.0000 0.8682
vn -0.4961 -0.0000 0.8682
vn 0.8682 -0.0000 0.4961
vn 0.8682 -0.0000 -0.4961
vn -0.8682 -0.0000 0.4961
vn -0.8682 -0.0000 -0.4961
vt 0.136082 0.992924
vt 0.873549 0.992924
vt 0.873549 0.958509
vt 0.136082 0.958509
vt 0.500000 0.875000
vt 0.875000 0.875000
vt 1.000000 1.000000
vt 0.500000 1.000000
vt 0.875000 0.125000
vt 1.000000 0.000000
vt 1.000000 0.187500
vt 0.812500 1.000000
vt 0.485803 0.992924
vt 0.485803 0.958509
vt 0.863918 0.958509
vt 0.863918 0.992924
vt 0.126451 0.992924
vt 0.126451 0.958509
vt 0.873549 0.009635
vt 0.136082 0.009635
vt 0.136082 0.044050
vt 0.873549 0.044050
vt 0.125000 0.875000
vt 0.000000 1.000000
vt 0.000000 0.812500
vt 0.125000 0.125000
vt 0.000000 0.000000
vt 0.187500 0.000000
vt 1.000000 0.187500
vt 0.812500 1.000000
vt 0.863918 0.044050
vt 0.863918 0.009635
vt 0.126451 0.009635
vt 0.126451 0.044050
vt 0.126451 0.044050
vt 0.126451 0.009635
vt 0.863918 0.009635
vt 0.863918 0.044050
vt 0.996460 0.870013
vt 0.996460 0.132546
vt 0.962045 0.132546
vt 0.962045 0.870013
vt 1.000000 0.187500
vt 0.812500 1.000000
vt 0.863918 0.955950
vt 0.863918 0.990365
vt 0.126451 0.990365
vt 0.126451 0.955950
vt 0.126451 0.955950
vt 0.863918 0.955950
vt 0.013171 0.132546
vt 0.013171 0.870013
vt 0.047586 0.870013
vt 0.047586 0.132546
vt 0.000000 0.812500
vt 0.863918 0.041491
vt 0.863918 0.007076
vt 0.126451 0.007076
vt 0.126451 0.041491
vt 0.863918 0.041491
vt 0.126451 0.041491
vt 0.986829 0.870013
vt 0.986829 0.132546
vt 0.952414 0.132546
vt 0.952414 0.870013
vt 0.187500 0.000000
vt 0.986829 0.132546
vt 0.952414 0.132546
vt 0.986829 0.129987
vt 0.952414 0.129987
vt 0.962247 0.147195
vt 0.962247 0.302063
vt 0.952414 0.129987
vt 0.986829 0.129987
vt 0.986829 0.867454
vt 0.952414 0.867454
vt 0.962247 0.540510
vt 0.962247 0.506095
vt 0.952414 0.523303
vt 0.962247 0.705211
vt 0.952414 0.722419
vt 0.962247 0.739626
vt 0.962247 0.850246
vt 0.952414 0.319270
vt 0.962247 0.336478
vt 0.003540 0.132546
vt 0.003540 0.870013
vt 0.037955 0.870013
vt 0.037955 0.132546
vt 0.187500 0.000000
vt 0.125000 0.500000
vt 0.000000 0.500000
vt 0.003540 0.870013
vt 0.003540 0.132546
vt 0.037955 0.132546
vt 0.037955 0.870013
vt 0.003540 0.867454
vt 0.037955 0.867454
vt 0.028122 0.850246
vt 0.028122 0.739626
vt 0.037955 0.722419
vt 0.028122 0.705211
vt 0.028122 0.506095
vt 0.028122 0.540510
vt 0.037955 0.523303
vt 0.028122 0.302063
vt 0.028122 0.336478
vt 0.037955 0.319270
vt 0.457500 0.875000
vt 0.003540 0.129987
vt 0.037955 0.129987
vt 0.028122 0.147194
vt 0.037955 0.867454
vt 0.003540 0.867454
vt 0.003540 0.129987
vt 0.037955 0.129987
vt 0.279146 1.000000
vt 0.320358 0.989093
vt 0.326528 1.000000
vt 0.443093 0.000000
vt 0.414083 0.013642
vt 0.406476 0.000000
vt 0.361340 0.988335
vt 0.365726 1.000000
vt 0.326528 0.000000
vt 0.327352 0.009045
vt 0.279146 0.000000
vt 0.395914 0.981131
vt 0.406476 1.000000
vt 0.365726 0.000000
vt 0.372469 0.014745
vt 0.443093 1.000000
vt 1.000000 0.812500
vt 0.000000 0.187500
vt 0.812500 0.000000
vt 0.812500 0.000000
vt 1.000000 0.812500
vt 0.187500 1.000000
vt 1.000000 0.500000
vt 0.812500 0.000000
vt 0.000000 0.187500
vt 0.187500 1.000000
vt 1.000000 0.812500
vt 0.812500 0.000000
vt 0.000000 0.187500
vt 0.000000 0.287225
vt 0.026353 0.356023
vt 0.000000 0.354175
vt 1.000000 0.616162
vt 0.943751 0.498876
vt 1.000000 0.475218
vt 1.000000 0.354175
vt 0.936175 0.364235
vt 1.000000 0.287225
vt 0.058282 0.413065
vt 0.000000 0.408599
vt 1.000000 0.408599
vt 0.949891 0.420858
vt 0.044747 0.476186
vt 0.000000 0.475218
vt 0.000000 0.616162
vt 0.492500 0.875000
vt 0.857500 0.125000
vt 0.857500 0.875000
vt 0.255000 0.125000
vt 0.272500 0.125000
vt 0.272500 0.875000
vt 0.255000 0.875000
vt 0.457500 0.125000
vt 0.475000 0.125000
vt 0.475000 0.875000
vt 0.665000 0.125000
vt 0.682500 0.125000
vt 0.682500 0.875000
vt 0.665000 0.875000
vt 0.492500 0.125000
vt 0.290000 0.125000
vt 0.290000 0.875000
vt 0.142500 0.125000
vt 0.142500 0.875000
vt 0.700000 0.125000
vt 0.700000 0.875000
s 1
usemtl wooden_crate_2
f 7/1/1 8/2/1 12/3/1 11/4/1
f 120/5/2 63/6/3 1/7/4 119/8/2
f 7/9/5 2/10/6 92/11/7
f 8/6/8 4/7/9 104/12/10
f 5/2/11 118/13/12 121/14/13 9/3/14
f 12/15/15 8/16/15 5/17/15 9/18/15
f 10/18/16 6/17/16 7/16/16 11/15/16
f 18/19/1 19/20/1 23/21/1 22/22/1
f 16/23/17 14/24/18 95/25/19
f 17/26/20 59/27/21 102/28/22
f 18/9/23 13/10/24 100/29/25
f 19/6/26 15/7/27 97/30/28
f 16/20/29 17/19/29 21/22/29 20/21/29
f 23/31/16 19/32/16 16/33/16 20/34/16
f 21/35/15 17/36/15 18/37/15 22/38/15
f 26/39/1 27/40/1 31/41/1 30/42/1
f 5/23/30 8/6/8 104/12/10 3/24/31
f 26/9/32 4/10/33 105/43/34
f 27/6/35 13/7/36 101/44/37
f 24/40/29 25/39/29 29/42/29 28/41/29
f 31/45/38 27/46/38 24/47/38 28/48/38
f 29/49/39 25/47/39 26/46/39 30/50/39
f 34/51/1 35/52/1 39/53/1 38/54/1
f 32/23/40 1/24/41 90/55/42
f 33/26/43 14/27/15 93/28/15
f 35/6/44 2/7/45 91/30/46
f 32/52/29 33/51/29 37/54/29 36/53/29
f 39/56/39 35/57/39 32/58/39 36/59/39
f 33/58/38 34/57/38 38/60/38 37/61/38
f 42/62/16 43/63/16 47/64/16 46/65/16
f 40/23/47 13/24/48 99/55/49
f 41/26/50 4/27/51 106/66/52
f 2/7/45 35/6/44 34/9/53 15/10/54
f 43/6/55 15/7/56 98/12/57
f 40/67/15 41/62/15 45/65/15 44/68/15
f 42/69/39 46/70/39 52/71/39 51/72/39
f 47/73/38 43/74/38 40/75/38 44/76/38
f 56/77/39 57/78/39 49/79/39
f 41/75/39 56/77/39 55/80/39 48/81/39 54/82/39
f 41/75/39 42/69/39 57/78/39 56/77/39
f 45/76/39 41/75/39 54/82/39 53/83/39
f 57/78/39 42/69/39 51/72/39 50/84/39 58/85/39
f 62/86/16 63/87/16 67/88/16 66/89/16
f 3/27/58 25/26/59 24/23/60 59/24/61
f 61/26/62 59/27/63 103/90/64
f 62/9/65 14/10/66 94/29/67
f 6/26/68 118/91/38 119/92/38 1/27/69
f 60/93/15 61/94/15 65/95/15 64/96/15
f 60/97/39 64/98/39 72/99/39 71/100/39 70/101/39 78/102/39
f 76/103/39 77/104/39 69/105/39
f 74/106/39 75/107/39 68/108/39
f 120/5/39 60/23/39 77/109/39
f 63/110/39 76/103/39 75/107/39 74/106/39
f 67/111/39 63/110/39 74/106/39 73/112/39
f 77/104/39 60/97/39 78/102/39
f 65/113/38 61/114/38 62/115/38 66/116/38
f 79/117/70 81/118/71 87/119/72
f 80/120/73 84/121/74 89/122/75
f 87/119/72 81/118/71 82/123/76 88/124/77
f 87/125/78 86/126/79 79/127/80
f 88/124/77 82/123/76 83/128/81 89/129/82
f 88/130/83 85/131/84 86/126/79 87/125/78
f 89/129/82 83/128/81 80/132/85
f 89/122/75 84/121/74 85/131/84 88/130/83
f 1/7/4 63/6/3 90/133/86
f 33/26/43 32/23/40 90/55/42 96/92/87 94/134/88
f 2/10/6 7/9/5 91/135/89
f 2/10/90 42/9/91 92/136/92
f 8/6/8 7/9/5 92/11/7 106/137/93
f 34/9/53 33/26/43 93/28/15 97/135/94
f 14/24/18 16/23/17 93/138/95
f 63/6/3 62/9/65 94/29/67 96/139/96 90/133/86
f 14/27/15 33/26/43 94/134/88
f 14/10/66 62/9/65 95/140/97
f 17/26/20 16/23/17 95/25/19 103/141/98
f 15/10/54 34/9/53 97/135/94
f 16/23/17 19/6/26 97/30/28 93/138/95
f 40/23/47 43/6/55 98/12/57 100/142/99
f 15/7/27 19/6/26 98/143/100
f 13/7/36 27/6/35 99/133/101
f 13/24/48 40/23/47 100/142/99
f 19/6/26 18/9/23 100/29/25 98/143/100
f 24/23/60 27/6/35 101/44/37 102/138/102
f 13/10/24 18/9/23 101/144/103
f 59/24/61 24/23/60 102/138/102
f 18/9/23 17/26/20 102/28/22 101/144/103
f 62/9/65 61/26/62 103/90/64 95/140/97
f 59/27/21 17/26/20 103/141/98
f 60/23/104 120/5/2 119/8/2 3/24/105
f 118/91/38 5/23/30 3/24/31 119/92/38
f 4/10/33 26/9/32 104/140/106
f 4/27/51 41/26/50 105/145/107
f 42/9/91 41/26/50 106/66/52 92/136/92
f 4/7/9 8/6/8 106/137/93
f 107/146/108 109/147/109 115/148/110
f 108/149/111 112/150/112 117/151/113
f 115/152/114 114/153/115 107/154/116
f 115/148/110 109/147/109 110/155/117 116/156/118
f 116/157/119 113/158/120 114/153/115 115/152/114
f 116/156/118 110/155/117 111/159/121 117/160/122
f 117/151/113 112/150/112 113/158/120 116/157/119
f 117/160/122 111/159/121 108/161/123
f 63/6/39 120/5/39 76/162/39
f 76/162/39 120/5/39 77/109/39
f 26/9/32 25/26/59 3/27/58 104/140/106
f 84/121/38 80/120/38 91/135/89 7/9/5
f 61/26/62 60/23/104 3/24/105 59/27/63
f 15/7/56 43/6/55 42/9/91 2/10/90
f 10/4/124 121/14/13 118/13/12 6/1/125
f 133/163/126 124/9/126 125/6/126 142/164/126
f 137/165/126 126/166/126 131/167/126 134/168/126
f 139/169/126 127/170/126 130/171/126 146/109/126
f 141/172/126 128/173/126 129/174/126 144/175/126
f 127/170/127 140/176/127 145/162/127 130/171/127
f 140/176/38 141/172/38 144/175/38 145/162/38
f 126/166/127 138/177/127 147/178/127 131/167/127
f 138/177/38 139/169/38 146/109/38 147/178/38
f 123/26/127 136/179/127 135/180/127 122/23/127
f 136/179/38 137/165/38 134/168/38 135/180/38
f 128/173/127 132/181/127 143/182/127 129/174/127
f 132/181/38 133/163/38 142/164/38 143/182/38
f 159/163/128 150/9/128 151/6/128 168/164/128
f 163/165/128 152/166/128 157/167/128 160/168/128
f 165/169/128 153/170/128 156/171/128 172/109/128
f 167/172/128 154/173/128 155/174/128 170/175/128
f 153/170/129 166/176/129 171/162/129 156/171/129
f 166/176/39 167/172/39 170/175/39 171/162/39
f 152/166/129 164/177/129 173/178/129 157/167/129
f 164/177/39 165/169/39 172/109/39 173/178/39
f 149/26/129 162/179/129 161/180/129 148/23/129
f 162/179/39 163/165/39 160/168/39 161/180/39
f 154/173/129 158/181/129 169/182/129 155/174/129
f 158/181/39 159/163/39 168/164/39 169/182/39
f 185/163/130 176/9/130 177/6/130 194/164/130
f 189/165/130 178/166/130 183/167/130 186/168/130
f 191/169/130 179/170/130 182/171/130 198/109/130
f 193/172/130 180/173/130 181/174/130 196/175/130
f 179/170/131 192/176/131 197/162/131 182/171/131
f 192/176/16 193/172/16 196/175/16 197/162/16
f 178/166/131 190/177/131 199/178/131 183/167/131
f 190/177/16 191/169/16 198/109/16 199/178/16
f 175/26/131 188/179/131 187/180/131 174/23/131
f 188/179/16 189/165/16 186/168/16 187/180/16
f 180/173/131 184/181/131 195/182/131 181/174/131
f 184/181/16 185/163/16 194/164/16 195/182/16
f 211/163/132 202/9/132 203/6/132 220/164/132
f 215/165/132 204/166/132 209/167/132 212/168/132
f 217/169/132 205/170/132 208/171/132 224/109/132
f 219/172/132 206/173/132 207/174/132 222/175/132
f 205/170/133 218/176/133 223/162/133 208/171/133
f 218/176/15 219/172/15 222/175/15 223/162/15
f 204/166/133 216/177/133 225/178/133 209/167/133
f 216/177/15 217/169/15 224/109/15 225/178/15
f 201/26/133 214/179/133 213/180/133 200/23/133
f 214/179/15 215/165/15 212/168/15 213/180/15
f 206/173/133 210/181/133 221/182/133 207/174/133
f 210/181/15 211/163/15 220/164/15 221/182/15
f 237/163/134 228/9/134 229/6/134 246/164/134
f 241/165/134 230/166/134 235/167/134 238/168/134
f 243/169/134 231/170/134 234/171/134 250/109/134
f 245/172/134 232/173/134 233/174/134 248/175/134
f 231/170/135 244/176/135 249/162/135 234/171/135
f 244/176/29 245/172/29 248/175/29 249/162/29
f 230/166/135 242/177/135 251/178/135 235/167/135
f 242/177/29 243/169/29 250/109/29 251/178/29
f 227/26/135 240/179/135 239/180/135 226/23/135
f 240/179/29 241/165/29 238/168/29 239/180/29
f 232/173/135 236/181/135 247/182/135 233/174/135
f 236/181/29 237/163/29 246/164/29 247/182/29
f 263/163/136 254/9/136 255/6/136 272/164/136
f 267/165/136 256/166/136 261/167/136 264/168/136
f 269/169/136 257/170/136 260/171/136 276/109/136
f 271/172/136 258/173/136 259/174/136 274/175/136
f 257/170/137 270/176/137 275/162/137 260/171/137
f 270/176/1 271/172/1 274/175/1 275/162/1
f 256/166/137 268/177/137 277/178/137 261/167/137
f 268/177/1 269/169/1 276/109/1 277/178/1
f 253/26/137 266/179/137 265/180/137 252/23/137
f 266/179/1 267/165/1 264/168/1 265/180/1
f 258/173/137 262/181/137 273/182/137 259/174/137
f 262/181/1 263/163/1 272/164/1 273/182/1
f 80/132/15 83/128/15 35/6/44 91/30/46
f 81/118/15 32/23/40 35/6/44 83/128/15
f 6/26/68 86/126/38 85/131/38
f 7/9/5 6/26/68 85/131/38 84/121/38
f 79/127/38 86/126/38 6/26/68 1/27/69
f 83/128/15 82/123/15 81/118/15
f 1/24/41 32/23/40 81/118/15 79/117/15
f 26/9/32 114/153/16 112/150/16 27/6/35
f 110/155/29 109/147/29 41/26/50
f 108/161/29 111/159/29 40/23/47 99/55/49
f 107/146/29 105/145/107 41/26/50 109/147/29
f 40/23/47 111/159/29 110/155/29 41/26/50
f 112/150/16 108/149/16 99/133/101 27/6/35
f 114/153/16 113/158/16 112/150/16
f 107/154/16 114/153/16 26/9/32 105/43/34
