# Blender 5.0.1
# www.blender.org
mtllib wooden_crate_1.mtl
o wooden_crate_1
v -0.360000 -0.000000 -0.072000
v -0.360000 0.000000 0.072000
v -0.360000 0.036000 -0.072000
v -0.360000 0.036000 0.072000
v 0.360000 -0.000000 -0.072000
v 0.360000 0.000000 0.072000
v 0.360000 0.036000 -0.072000
v 0.360000 0.036000 0.072000
v -0.360000 -0.000000 -0.252000
v -0.360000 -0.000000 -0.108000
v -0.360000 0.036000 -0.252000
v -0.360000 0.036000 -0.108000
v 0.360000 -0.000000 -0.252000
v 0.360000 -0.000000 -0.108000
v 0.360000 0.036000 -0.108000
v -0.360000 -0.000000 0.108000
v -0.360000 -0.000000 0.252000
v -0.360000 0.036000 0.108000
v -0.360000 0.036000 0.252000
v 0.360000 -0.000000 0.108000
v 0.360000 -0.000000 0.252000
v 0.360000 0.036000 0.108000
v -0.360000 0.216000 0.252000
v -0.360000 0.360000 0.252000
v -0.360000 0.216000 0.216000
v -0.360000 0.360000 0.216000
v 0.360000 0.216000 0.252000
v 0.360000 0.360000 0.252000
v 0.360000 0.216000 0.216000
v 0.360000 0.360000 0.216000
v 0.360000 0.216000 -0.252000
v 0.360000 0.360000 -0.252000
v 0.360000 0.216000 -0.216000
v 0.360000 0.360000 -0.216000
v -0.360000 0.216000 -0.252000
v -0.360000 0.360000 -0.252000
v -0.360000 0.216000 -0.216000
v -0.360000 0.360000 -0.216000
v -0.360000 0.180000 0.252000
v -0.360000 0.036000 0.216000
v -0.360000 0.180000 0.216000
v 0.360000 0.036000 0.252000
v 0.360000 0.180000 0.252000
v 0.360000 0.036000 0.216000
v 0.360000 0.180000 0.216000
v 0.360000 0.036000 -0.252000
v 0.360000 0.180000 -0.252000
v 0.360000 0.036000 -0.216000
v 0.360000 0.180000 -0.216000
v -0.360000 0.180000 -0.252000
v -0.360000 0.036000 -0.216000
v -0.360000 0.180000 -0.216000
v -0.324000 0.216000 -0.216000
v -0.324000 0.360000 -0.216000
v -0.288000 0.216000 -0.216000
v -0.288000 0.360000 -0.216000
v -0.324000 0.216000 0.216000
v -0.324000 0.360000 0.216000
v -0.288000 0.216000 0.216000
v -0.288000 0.360000 0.216000
v 0.324000 0.216000 0.216000
v 0.324000 0.360000 0.216000
v 0.288000 0.216000 0.216000
v 0.288000 0.360000 0.216000
v 0.324000 0.216000 -0.216000
v 0.324000 0.360000 -0.216000
v 0.288000 0.216000 -0.216000
v 0.288000 0.360000 -0.216000
v -0.324000 0.036000 -0.216000
v -0.324000 0.180000 -0.216000
v -0.288000 0.036000 -0.216000
v -0.288000 0.180000 -0.216000
v -0.324000 0.036000 0.216000
v -0.324000 0.180000 0.216000
v -0.288000 0.180000 0.216000
v 0.324000 0.036000 0.216000
v 0.324000 0.180000 0.216000
v 0.288000 0.180000 0.216000
v 0.324000 0.036000 -0.216000
v 0.324000 0.180000 -0.216000
v 0.288000 0.036000 -0.216000
v 0.288000 0.180000 -0.216000
v -0.288000 0.277200 -0.072000
v -0.288000 0.320400 -0.072000
v -0.288000 0.320400 0.072000
v -0.288000 0.277200 0.072000
v -0.324000 0.320400 -0.072000
v -0.324000 0.277200 0.072000
v -0.324000 0.320400 0.072000
v -0.324000 0.277200 -0.072000
v 0.288000 0.320400 -0.072000
v 0.288000 0.277200 0.072000
v 0.288000 0.320400 0.072000
v 0.288000 0.277200 -0.072000
v 0.324000 0.277200 -0.072000
v 0.324000 0.320400 -0.072000
v 0.324000 0.320400 0.072000
v 0.324000 0.277200 0.072000
v -0.216000 0.036000 0.216000
v -0.216000 0.324000 0.216000
v -0.288000 0.036000 0.144000
v -0.288000 0.324000 0.144000
v -0.288000 0.036000 0.216000
v -0.288000 0.324000 0.216000
v 0.288000 0.036000 0.144000
v 0.288000 0.324000 0.144000
v 0.216000 0.036000 0.216000
v 0.216000 0.324000 0.216000
v 0.288000 0.036000 0.216000
v 0.288000 0.324000 0.216000
v 0.216000 0.036000 -0.216000
v 0.216000 0.324000 -0.216000
v 0.288000 0.036000 -0.144000
v 0.288000 0.324000 -0.144000
v 0.288000 0.324000 -0.216000
v -0.288000 0.036000 -0.144000
v -0.288000 0.324000 -0.144000
v -0.216000 0.036000 -0.216000
v -0.216000 0.324000 -0.216000
v -0.288000 0.324000 -0.216000
vn -0.0000 -1.0000 -0.0000
vn -0.0000 1.0000 -0.0000
vn 1.0000 -0.0000 -0.0000
vn -0.0000 -0.0000 -1.0000
vn -0.0000 -0.0000 1.0000
vn -1.0000 -0.0000 -0.0000
vn -0.7071 -0.0000 -0.7071
vn -0.7071 -0.0000 0.7071
vn 0.7071 -0.0000 -0.7071
vn 0.7071 -0.0000 0.7071
vt 0.518750 0.779687
vt 0.518750 0.954687
vt 0.635417 0.954687
vt 0.848958 0.718750
vt 0.119792 0.718750
vt 0.119792 0.953125
vt 0.848958 0.953125
vt 0.875000 0.000000
vt 0.927083 0.000000
vt 0.927083 0.296875
vt 0.875000 0.296875
vt 0.119792 0.937500
vt 0.119792 1.000000
vt 0.848958 1.000000
vt 0.848958 0.937500
vt 0.072917 0.718750
vt 0.802083 0.718750
vt 0.802083 0.953125
vt 0.072917 0.953125
vt 0.562500 0.328125
vt 0.562500 0.421875
vt 0.510417 0.421875
vt 0.510417 0.328125
vt 0.927083 0.703125
vt 0.875000 0.703125
vt 0.875000 1.000000
vt 0.927083 1.000000
vt 0.578125 1.000000
vt 0.578125 0.937500
vt 0.828125 0.937500
vt 0.828125 1.000000
vt 0.369792 1.000000
vt 0.369792 0.937500
vt 0.177083 0.954687
vt 0.177083 0.779688
vt 0.802083 0.937500
vt 0.802083 1.000000
vt 0.072917 1.000000
vt 0.072917 0.937500
vt 0.489583 0.421875
vt 0.489583 0.328125
vt 0.260417 0.328125
vt 0.260417 0.421875
vt 0.518750 0.954687
vt 0.578125 0.718750
vt 0.578125 0.953125
vt 0.425347 0.888672
vt 0.425347 0.818359
vt 0.272569 0.888672
vt 0.272569 0.818359
vt 0.272569 0.818359
vt 0.272569 0.888672
vt 0.425347 0.818359
vt 0.272569 0.818359
vt 0.425347 0.888672
vt 0.272569 0.888672
vt 0.425347 0.888672
vt 0.272569 0.888672
vt 0.425347 0.888672
s 1
usemtl wooden_crate_1
f 99/1/1 103/2/1 101/3/1
f 104/2/2 100/1/2 102/3/2
f 105/1/1 109/2/1 107/3/1
f 110/2/2 106/1/2 108/3/2
f 111/1/1 81/2/1 113/3/1
f 115/2/2 112/1/2 114/3/2
f 116/1/1 71/2/1 118/3/1
f 120/2/2 117/1/2 119/3/2
f 7/4/2 3/5/2 4/6/2 8/7/2
f 5/8/3 7/9/3 8/10/3 6/11/3
f 1/5/1 5/4/1 6/7/1 2/6/1
f 1/12/4 3/13/4 7/14/4 5/15/4
f 16/16/1 20/17/1 21/18/1 17/19/1
f 95/20/5 96/21/5 91/22/5 94/23/5
f 18/24/6 16/25/6 17/26/6 19/27/6
f 76/12/1 109/13/1 81/28/1 79/29/1
f 58/30/2 60/31/2 56/32/2 54/33/2
f 6/15/5 8/14/5 4/13/5 2/12/5
f 118/1/4 71/2/4 120/34/4 119/35/4
f 9/16/1 13/17/1 14/18/1 10/19/1
f 49/27/3 48/24/3 46/25/3 47/26/3
f 24/19/5 23/16/5 27/17/5 28/18/5
f 14/36/5 15/37/5 12/38/5 10/39/5
f 97/21/4 98/20/4 92/23/4 93/22/4
f 66/30/2 68/31/2 64/32/2 62/33/2
f 97/40/1 93/41/1 91/42/1 96/43/1
f 43/11/3 42/8/3 44/9/3 45/10/3
f 105/1/7 107/44/7 108/34/7 106/35/7
f 44/17/4 40/16/4 41/19/4 45/18/4
f 71/2/6 116/1/6 117/35/6 120/34/6
f 25/9/6 23/8/6 24/11/6 26/10/6
f 111/1/8 113/44/8 114/34/8 112/35/8
f 33/9/3 31/8/3 32/11/3 34/10/3
f 16/39/4 18/38/4 22/37/4 20/36/4
f 9/39/4 11/38/4 46/37/4 13/36/4
f 50/11/6 11/8/6 51/9/6 52/10/6
f 110/34/3 109/2/3 105/1/3 106/35/3
f 14/11/3 13/8/3 46/9/3 15/10/3
f 53/12/1 55/13/1 59/28/1 57/29/1
f 31/39/1 33/38/1 37/37/1 35/36/1
f 69/5/6 73/45/6 74/46/6 70/6/6
f 58/46/6 89/47/6 88/48/6 57/45/6
f 19/16/5 42/17/5 43/18/5 39/19/5
f 56/6/3 84/49/3 83/50/3 55/5/3
f 54/6/6 53/5/6 90/51/6 87/52/6
f 61/5/3 65/45/3 95/53/3 98/54/3
f 37/17/5 33/16/5 34/19/5 38/18/5
f 68/46/6 67/45/6 94/53/6 91/55/6
f 64/6/6 93/56/6 92/54/6 63/5/6
f 59/45/3 55/5/3 83/50/3 86/48/3
f 96/57/3 66/46/3 62/6/3 97/58/3
f 46/17/2 11/16/2 12/19/2 15/18/2
f 40/24/6 19/25/6 39/26/6 41/27/6
f 23/39/1 25/38/1 29/37/1 27/36/1
f 66/46/3 96/57/3 95/53/3 65/45/3
f 62/6/3 61/5/3 98/54/3 97/58/3
f 88/48/6 90/51/6 53/5/6 57/45/6
f 54/6/6 87/52/6 89/47/6 58/46/6
f 98/40/2 95/43/2 94/42/2 92/41/2
f 60/46/3 59/45/3 86/48/3 85/59/3
f 92/54/6 94/53/6 67/45/6 63/5/6
f 68/46/6 91/55/6 93/56/6 64/6/6
f 84/49/3 56/6/3 60/46/3 85/59/3
f 113/1/3 81/2/3 115/34/3 114/35/3
f 65/29/1 61/12/1 63/13/1 67/28/1
f 80/29/2 82/28/2 78/13/2 77/12/2
f 21/36/5 42/37/5 19/38/5 17/39/5
f 81/2/4 111/1/4 112/35/4 115/34/4
f 29/17/4 25/16/4 26/19/4 30/18/4
f 46/16/4 11/17/4 50/18/4 47/19/4
f 87/42/1 84/43/1 85/40/1 89/41/1
f 107/1/5 109/2/5 110/34/5 108/35/5
f 103/45/3 71/5/3 72/6/3 75/46/3
f 101/1/6 103/2/6 104/34/6 102/35/6
f 99/1/9 101/44/9 102/34/9 100/35/9
f 11/24/6 9/25/6 10/26/6 12/27/6
f 3/9/6 1/8/6 2/11/6 4/10/6
f 74/29/2 75/28/2 72/13/2 70/12/2
f 85/21/4 86/20/4 88/23/4 89/22/4
f 73/29/1 69/12/1 71/13/1 103/28/1
f 84/21/5 87/22/5 90/23/5 83/20/5
f 90/42/2 88/41/2 86/40/2 83/43/2
f 35/25/6 37/24/6 38/27/6 36/26/6
f 103/2/5 99/1/5 100/35/5 104/34/5
f 116/1/10 118/44/10 119/34/10 117/35/10
f 50/36/2 52/37/2 49/38/2 47/39/2
f 82/46/6 81/45/6 109/5/6 78/6/6
f 51/17/5 48/16/5 49/19/5 52/18/5
f 22/17/2 18/16/2 19/19/2 42/18/2
f 28/26/3 27/25/3 29/24/3 30/27/3
f 28/15/2 30/14/2 26/13/2 24/12/2
f 20/25/3 22/24/3 42/27/3 21/26/3
f 76/5/3 79/45/3 80/46/3 77/6/3
f 43/36/2 45/37/2 41/38/2 39/39/2
f 36/39/2 38/38/2 34/37/2 32/36/2
f 31/16/4 35/17/4 36/18/4 32/19/4
