# Blender 5.0.1
# www.blender.org
mtllib wooden_crate_1_1.mtl
o wooden_crate_1_1
v -0.360000 -0.000000 -0.072000
v -0.360000 0.000000 0.072000
v -0.360000 0.036000 -0.072000
v -0.360000 0.036000 0.072000
v 0.360000 -0.000000 -0.072000
v 0.360000 0.000000 0.072000
v 0.360000 0.036000 -0.072000
v 0.360000 0.036000 0.072000
v -0.360000 -0.000000 -0.252000
v -0.360000 -0.000000 -0.108000
v -0.360000 0.036000 -0.252000
v -0.360000 0.036000 -0.108000
v 0.360000 -0.000000 -0.252000
v 0.360000 -0.000000 -0.108000
v 0.360000 0.036000 -0.108000
v -0.360000 -0.000000 0.108000
v -0.360000 -0.000000 0.252000
v -0.360000 0.036000 0.108000
v -0.360000 0.036000 0.252000
v 0.360000 -0.000000 0.108000
v 0.360000 -0.000000 0.252000
v 0.360000 0.036000 0.108000
v -0.360000 0.180000 0.252000
v -0.360000 0.036000 0.216000
v -0.360000 0.180000 0.216000
v 0.360000 0.036000 0.252000
v 0.360000 0.180000 0.252000
v 0.360000 0.036000 0.216000
v 0.360000 0.180000 0.216000
v 0.360000 0.036000 -0.252000
v 0.360000 0.180000 -0.252000
v 0.360000 0.036000 -0.216000
v 0.360000 0.180000 -0.216000
v -0.360000 0.180000 -0.252000
v -0.360000 0.036000 -0.216000
v -0.360000 0.180000 -0.216000
v -0.344000 0.036000 -0.216000
v -0.344000 0.180000 -0.216000
v -0.308000 0.036000 -0.216000
v -0.308000 0.180000 -0.216000
v -0.344000 0.036000 0.216000
v -0.344000 0.180000 0.216000
v -0.308000 0.036000 0.216000
v -0.308000 0.180000 0.216000
v 0.344000 0.036000 0.216000
v 0.344000 0.180000 0.216000
v 0.308000 0.036000 0.216000
v 0.308000 0.180000 0.216000
v 0.344000 0.036000 -0.216000
v 0.344000 0.180000 -0.216000
v 0.308000 0.036000 -0.216000
v 0.308000 0.180000 -0.216000
v -0.308000 0.097200 -0.072000
v -0.308000 0.140400 -0.072000
v -0.308000 0.140400 0.072000
v -0.308000 0.097200 0.072000
v -0.344000 0.140400 -0.072000
v -0.344000 0.097200 0.072000
v -0.344000 0.140400 0.072000
v -0.344000 0.097200 -0.072000
v 0.308000 0.140400 -0.072000
v 0.308000 0.097200 0.072000
v 0.308000 0.140400 0.072000
v 0.308000 0.097200 -0.072000
v 0.344000 0.097200 -0.072000
v 0.344000 0.140400 -0.072000
v 0.344000 0.140400 0.072000
v 0.344000 0.097200 0.072000
vn -0.0000 1.0000 -0.0000
vn 1.0000 -0.0000 -0.0000
vn -0.0000 -1.0000 -0.0000
vn -0.0000 -0.0000 -1.0000
vn -1.0000 -0.0000 -0.0000
vn -0.0000 -0.0000 1.0000
vt 0.848958 0.718750
vt 0.119792 0.718750
vt 0.119792 0.953125
vt 0.848958 0.953125
vt 0.875000 0.000000
vt 0.927083 0.000000
vt 0.927083 0.296875
vt 0.875000 0.296875
vt 0.119792 0.937500
vt 0.119792 1.000000
vt 0.848958 1.000000
vt 0.848958 0.937500
vt 0.072917 0.718750
vt 0.802083 0.718750
vt 0.802083 0.953125
vt 0.072917 0.953125
vt 0.927083 0.703125
vt 0.875000 0.703125
vt 0.875000 1.000000
vt 0.927083 1.000000
vt 0.802083 0.937500
vt 0.802083 1.000000
vt 0.072917 1.000000
vt 0.072917 0.937500
vt 0.562500 0.328125
vt 0.562500 0.421875
vt 0.510417 0.421875
vt 0.510417 0.328125
vt 0.812500 0.937500
vt 0.812500 1.000000
vt 0.354167 1.000000
vt 0.354167 0.937500
vt 0.828125 0.937500
vt 0.828125 1.000000
vt 0.369792 1.000000
vt 0.369792 0.937500
vt 0.489583 0.421875
vt 0.489583 0.328125
vt 0.260417 0.328125
vt 0.260417 0.421875
vt 0.578125 1.000000
vt 0.578125 0.937500
vt 0.578125 0.953125
vt 0.425347 0.888672
vt 0.425347 0.818359
vt 0.578125 0.718750
vt 0.272569 0.888672
vt 0.272569 0.818359
vt 0.272569 0.818359
vt 0.272569 0.888672
vt 0.425347 0.818359
vt 0.272569 0.818359
vt 0.425347 0.888672
vt 0.272569 0.888672
vt 0.425347 0.888672
vt 0.272569 0.888672
vt 0.425347 0.888672
s 1
usemtl wooden_crate_1
f 7/1/1 3/2/1 4/3/1 8/4/1
f 5/5/2 7/6/2 8/7/2 6/8/2
f 1/2/3 5/1/3 6/4/3 2/3/3
f 1/9/4 3/10/4 7/11/4 5/12/4
f 16/13/3 20/14/3 21/15/3 17/16/3
f 18/17/5 16/18/5 17/19/5 19/20/5
f 6/12/6 8/11/6 4/10/6 2/9/6
f 9/13/3 13/14/3 14/15/3 10/16/3
f 33/20/2 32/17/2 30/18/2 31/19/2
f 14/21/6 15/22/6 12/23/6 10/24/6
f 27/8/2 26/5/2 28/6/2 29/7/2
f 28/14/4 24/13/4 25/16/4 29/15/4
f 16/24/4 18/23/4 22/22/4 20/21/4
f 9/24/4 11/23/4 30/22/4 13/21/4
f 34/8/5 11/5/5 35/6/5 36/7/5
f 14/8/2 13/5/2 30/6/2 15/7/2
f 19/13/6 26/14/6 27/15/6 23/16/6
f 30/14/1 11/13/1 12/16/1 15/15/1
f 24/17/5 19/18/5 23/19/5 25/20/5
f 21/21/6 26/22/6 19/23/6 17/24/6
f 30/13/4 11/14/4 34/15/4 31/16/4
f 11/17/5 9/18/5 10/19/5 12/20/5
f 3/6/5 1/5/5 2/8/5 4/7/5
f 34/24/1 36/23/1 33/22/1 31/21/1
f 35/14/6 32/13/6 33/16/6 36/15/6
f 22/14/1 18/13/1 19/16/1 26/15/1
f 20/18/2 22/17/2 26/20/2 21/19/2
f 27/9/1 29/10/1 25/11/1 23/12/1
f 65/25/6 66/26/6 61/27/6 64/28/6
f 42/29/1 44/30/1 40/31/1 38/32/1
f 67/26/4 68/25/4 62/28/4 63/27/4
f 50/33/1 52/34/1 48/35/1 46/36/1
f 67/37/3 63/38/3 61/39/3 66/40/3
f 37/9/3 39/10/3 43/41/3 41/42/3
f 42/43/5 59/44/5 58/45/5 41/46/5
f 40/3/2 54/47/2 53/48/2 39/2/2
f 38/3/5 37/2/5 60/49/5 57/50/5
f 45/2/2 49/46/2 65/51/2 68/52/2
f 52/43/5 51/46/5 64/51/5 61/53/5
f 48/3/5 63/54/5 62/52/5 47/2/5
f 43/46/2 39/2/2 53/48/2 56/45/2
f 66/55/2 50/43/2 46/3/2 67/56/2
f 50/43/2 66/55/2 65/51/2 49/46/2
f 46/3/2 45/2/2 68/52/2 67/56/2
f 58/45/5 60/49/5 37/2/5 41/46/5
f 38/3/5 57/50/5 59/44/5 42/43/5
f 68/37/1 65/40/1 64/39/1 62/38/1
f 44/43/2 43/46/2 56/45/2 55/57/2
f 62/52/5 64/51/5 51/46/5 47/2/5
f 52/43/5 61/53/5 63/54/5 48/3/5
f 54/47/2 40/3/2 44/43/2 55/57/2
f 49/42/3 45/9/3 47/10/3 51/41/3
f 57/39/3 54/40/3 55/37/3 59/38/3
f 55/26/4 56/25/4 58/28/4 59/27/4
f 54/26/6 57/27/6 60/28/6 53/25/6
f 60/39/1 58/38/1 56/37/1 53/40/1
