# Blender 5.0.1
# www.blender.org
mtllib ceiling_lamp_4_1_on.mtl
o ceiling_lamp_4_1_on
v 0.552598 -0.080000 -0.102600
v 0.552598 -0.080000 0.102600
v -0.552602 -0.080000 0.102600
v -0.552602 -0.080000 -0.102600
v 0.564598 -0.100000 -0.114600
v 0.564598 -0.100000 0.114600
v -0.564602 -0.100000 0.114600
v -0.564602 -0.100000 -0.114600
v 0.575000 -0.000000 -0.125000
v -0.574998 -0.000000 0.125000
v -0.574998 -0.000000 -0.125000
v 0.575000 -0.000000 0.125000
v 0.600000 -0.100000 -0.150000
v 0.600000 -0.100000 0.150000
v -0.599998 -0.100000 0.150000
v -0.599998 -0.100000 -0.150000
v -0.599998 -0.050000 -0.150000
v -0.599998 -0.050000 0.150000
v 0.600000 -0.050000 0.150000
v 0.600000 -0.050000 -0.150000
vn -0.0000 -0.0000 -1.0000
vn -1.0000 -0.0000 -0.0000
vn -0.0000 -0.0000 1.0000
vn -0.0000 -1.0000 -0.0000
vn -0.0000 -0.5145 0.8575
vn -0.0000 -0.5145 -0.8575
vn 0.8575 -0.5145 -0.0000
vn -0.8575 -0.5145 -0.0000
vn -0.0000 1.0000 -0.0000
vn 1.0000 -0.0000 -0.0000
vn -0.8944 0.4472 -0.0000
vn -0.0000 0.4472 0.8944
vn -0.0000 0.4472 -0.8944
vn 0.8944 0.4472 -0.0000
vt 1.000000 0.062500
vt 0.000000 0.062500
vt 0.000000 0.148438
vt 1.000000 0.148438
vt 0.625000 0.062500
vt 0.375000 0.062500
vt 0.375000 0.148437
vt 0.625000 0.148438
vt 0.970497 0.941000
vt 0.970497 0.559000
vt 1.000000 0.500000
vt 1.000000 1.000000
vt 0.019531 0.148438
vt 0.972656 0.148438
vt 0.960938 0.179688
vt 0.031250 0.179688
vt 0.960496 0.579000
vt 0.960496 0.921000
vt 0.039498 0.921000
vt 0.039498 0.579000
vt 0.029498 0.941000
vt 0.000000 1.000000
vt 0.029498 0.559000
vt 0.000000 0.500000
vt 0.398438 0.148438
vt 0.593750 0.148438
vt 0.582031 0.179688
vt 0.410156 0.179688
vt 0.020833 0.177734
vt 0.020833 0.470703
vt 0.979167 0.470703
vt 0.979167 0.177734
vt 0.375000 0.148438
vt 0.394531 0.148438
vt 0.605469 0.148438
vt 0.984375 0.148438
vt 0.015625 0.148438
vt -0.007812 0.062500
vt 1.007812 0.062500
s 0
usemtl lamp_3_on
f 13/1/1 16/2/1 17/3/1 20/4/1
f 16/5/2 15/6/2 18/7/2 17/8/2
f 15/2/3 14/1/3 19/4/3 18/3/3
f 6/9/4 5/10/4 13/11/4 14/12/4
f 8/13/5 5/14/5 1/15/5 4/16/5
f 1/17/4 2/18/4 3/19/4 4/20/4
f 7/21/4 6/9/4 14/12/4 15/22/4
f 8/23/4 7/21/4 15/22/4 16/24/4
f 5/10/4 8/23/4 16/24/4 13/11/4
f 6/14/6 7/13/6 3/16/6 2/15/6
f 7/25/7 8/26/7 4/27/7 3/28/7
f 5/26/8 6/25/8 2/28/8 1/27/8
f 11/29/9 10/30/9 12/31/9 9/32/9
f 14/6/10 13/5/10 20/8/10 19/33/10
f 10/34/11 11/35/11 17/5/11 18/6/11
f 12/36/12 10/37/12 18/38/12 19/39/12
f 11/37/13 9/36/13 20/39/13 17/38/13
f 9/35/14 12/34/14 19/6/14 20/5/14
o ceiling_lamp_4_1_on_protector
v 0.395000 -0.110000 -0.180000
v 0.405000 -0.110000 -0.180000
v 0.395000 -0.110000 -0.170000
v 0.405000 -0.110000 -0.170000
v 0.395000 -0.050000 -0.179997
v 0.405000 -0.050000 -0.179997
v 0.395000 -0.050000 -0.169997
v 0.405000 -0.050000 -0.169997
v 0.395000 -0.030000 -0.159997
v 0.405000 -0.030000 -0.159997
v 0.395000 -0.040000 -0.159997
v 0.405000 -0.040000 -0.159997
v 0.405000 -0.130000 0.159990
v 0.395000 -0.130000 0.159990
v 0.405000 -0.120000 0.159990
v 0.395000 -0.120000 0.159990
v 0.405000 -0.036340 0.173647
v 0.405000 -0.043170 0.166817
v 0.395000 -0.043170 0.166817
v 0.395000 -0.036340 0.173647
v 0.405000 -0.110000 0.179990
v 0.395000 -0.110000 0.179990
v 0.405000 -0.110000 0.169990
v 0.395000 -0.110000 0.169990
v 0.405000 -0.050000 0.179987
v 0.395000 -0.050000 0.179987
v 0.405000 -0.050000 0.169987
v 0.395000 -0.050000 0.169987
v 0.395000 -0.123660 -0.173660
v 0.395000 -0.116830 -0.166830
v 0.405000 -0.116830 -0.166830
v 0.405000 -0.123660 -0.173660
v 0.405000 -0.030000 0.159987
v 0.395000 -0.030000 0.159987
v 0.405000 -0.040000 0.159987
v 0.395000 -0.040000 0.159987
v 0.405000 -0.030000 0.149987
v 0.395000 -0.030000 0.149987
v 0.405000 -0.040000 0.149987
v 0.395000 -0.040000 0.149987
v 0.395000 -0.030000 -0.149997
v 0.405000 -0.030000 -0.149997
v 0.395000 -0.040000 -0.149997
v 0.405000 -0.040000 -0.149997
v 0.395000 -0.123660 0.173651
v 0.395000 -0.116830 0.166820
v 0.405000 -0.116830 0.166820
v 0.405000 -0.123660 0.173651
v 0.205000 -0.123660 0.173651
v 0.205000 -0.116830 0.166820
v 0.195000 -0.116830 0.166820
v 0.195000 -0.123660 0.173651
v 0.205000 -0.040000 -0.149997
v 0.195000 -0.040000 -0.149997
v 0.205000 -0.030000 -0.149997
v 0.195000 -0.030000 -0.149997
v 0.195000 -0.040000 0.149987
v 0.205000 -0.040000 0.149987
v 0.195000 -0.030000 0.149987
v 0.205000 -0.030000 0.149987
v 0.195000 -0.040000 0.159987
v 0.205000 -0.040000 0.159987
v 0.195000 -0.030000 0.159987
v 0.205000 -0.030000 0.159987
v -0.405000 -0.130000 -0.160000
v -0.395000 -0.130000 -0.160000
v -0.405000 -0.120000 -0.160000
v -0.395000 -0.120000 -0.160000
v -0.405000 -0.036340 -0.173657
v -0.405000 -0.043170 -0.166827
v -0.395000 -0.043170 -0.166827
v -0.395000 -0.036340 -0.173657
v -0.405000 -0.110000 -0.180000
v -0.395000 -0.110000 -0.180000
v -0.405000 -0.110000 -0.170000
v -0.395000 -0.110000 -0.170000
v -0.405000 -0.050000 -0.179997
v -0.395000 -0.050000 -0.179997
v -0.405000 -0.050000 -0.169997
v -0.395000 -0.050000 -0.169997
v -0.405000 -0.030000 -0.159997
v -0.395000 -0.030000 -0.159997
v -0.405000 -0.040000 -0.159997
v -0.395000 -0.040000 -0.159997
v -0.395000 -0.130000 0.159990
v -0.405000 -0.130000 0.159990
v -0.395000 -0.120000 0.159990
v -0.405000 -0.120000 0.159990
v -0.395000 -0.036340 0.173647
v -0.395000 -0.043170 0.166817
v -0.405000 -0.043170 0.166817
v -0.405000 -0.036340 0.173647
v -0.395000 -0.110000 0.179990
v -0.405000 -0.110000 0.179990
v -0.395000 -0.110000 0.169990
v -0.405000 -0.110000 0.169990
v -0.395000 -0.050000 0.179987
v -0.405000 -0.050000 0.179987
v -0.395000 -0.050000 0.169987
v -0.405000 -0.050000 0.169987
v -0.405000 -0.123660 -0.173660
v -0.405000 -0.116830 -0.166830
v -0.395000 -0.116830 -0.166830
v -0.395000 -0.123660 -0.173660
v -0.395000 -0.030000 0.159987
v -0.405000 -0.030000 0.159987
v -0.395000 -0.040000 0.159987
v -0.405000 -0.040000 0.159987
v 0.205000 -0.123660 -0.173660
v 0.205000 -0.116830 -0.166830
v 0.195000 -0.116830 -0.166830
v 0.195000 -0.123660 -0.173660
v 0.195000 -0.050000 0.169987
v 0.205000 -0.050000 0.169987
v 0.195000 -0.050000 0.179987
v 0.205000 -0.050000 0.179987
v 0.195000 -0.110000 0.169990
v 0.205000 -0.110000 0.169990
v 0.195000 -0.110000 0.179990
v 0.205000 -0.110000 0.179990
v 0.195000 -0.036340 0.173647
v 0.195000 -0.043170 0.166817
v 0.205000 -0.043170 0.166817
v 0.205000 -0.036340 0.173647
v 0.195000 -0.120000 0.159990
v 0.205000 -0.120000 0.159990
v 0.195000 -0.130000 0.159990
v 0.205000 -0.130000 0.159990
v 0.205000 -0.040000 -0.159997
v 0.195000 -0.040000 -0.159997
v 0.205000 -0.030000 -0.159997
v 0.195000 -0.030000 -0.159997
v 0.205000 -0.050000 -0.169997
v 0.195000 -0.050000 -0.169997
v 0.205000 -0.050000 -0.179997
v 0.195000 -0.050000 -0.179997
v 0.205000 -0.110000 -0.170000
v 0.195000 -0.110000 -0.170000
v 0.205000 -0.110000 -0.180000
v 0.195000 -0.110000 -0.180000
v 0.205000 -0.036340 -0.173657
v 0.205000 -0.043170 -0.166827
v 0.195000 -0.043170 -0.166827
v 0.195000 -0.036340 -0.173657
v 0.205000 -0.120000 -0.160000
v 0.195000 -0.120000 -0.160000
v 0.205000 -0.130000 -0.160000
v 0.195000 -0.130000 -0.160000
v -0.005000 -0.130000 -0.160000
v 0.005000 -0.130000 -0.160000
v -0.005000 -0.120000 -0.160000
v 0.005000 -0.120000 -0.160000
v -0.005000 -0.036340 -0.173657
v -0.005000 -0.043170 -0.166827
v 0.005000 -0.043170 -0.166827
v 0.005000 -0.036340 -0.173657
v -0.005000 -0.110000 -0.180000
v 0.005000 -0.110000 -0.180000
v -0.005000 -0.110000 -0.170000
v 0.005000 -0.110000 -0.170000
v -0.005000 -0.050000 -0.179997
v 0.005000 -0.050000 -0.179997
v -0.005000 -0.050000 -0.169997
v 0.005000 -0.050000 -0.169997
v -0.005000 -0.030000 -0.159997
v 0.005000 -0.030000 -0.159997
v -0.005000 -0.040000 -0.159997
v 0.005000 -0.040000 -0.159997
v 0.005000 -0.130000 0.159990
v -0.005000 -0.130000 0.159990
v 0.005000 -0.120000 0.159990
v -0.005000 -0.120000 0.159990
v 0.005000 -0.036340 0.173647
v 0.005000 -0.043170 0.166817
v -0.005000 -0.043170 0.166817
v -0.005000 -0.036340 0.173647
v 0.005000 -0.110000 0.179990
v -0.005000 -0.110000 0.179990
v 0.005000 -0.110000 0.169990
v -0.005000 -0.110000 0.169990
v 0.005000 -0.050000 0.179987
v -0.005000 -0.050000 0.179987
v 0.005000 -0.050000 0.169987
v -0.005000 -0.050000 0.169987
v -0.005000 -0.123660 -0.173660
v -0.005000 -0.116830 -0.166830
v 0.005000 -0.116830 -0.166830
v 0.005000 -0.123660 -0.173660
v 0.005000 -0.030000 0.159987
v -0.005000 -0.030000 0.159987
v 0.005000 -0.040000 0.159987
v -0.005000 -0.040000 0.159987
v 0.005000 -0.030000 0.149987
v -0.005000 -0.030000 0.149987
v 0.005000 -0.040000 0.149987
v -0.005000 -0.040000 0.149987
v -0.005000 -0.030000 -0.149997
v 0.005000 -0.030000 -0.149997
v -0.005000 -0.040000 -0.149997
v 0.005000 -0.040000 -0.149997
v -0.005000 -0.123660 0.173650
v -0.005000 -0.116830 0.166820
v 0.005000 -0.116830 0.166820
v 0.005000 -0.123660 0.173650
v -0.195000 -0.123660 0.173650
v -0.195000 -0.116830 0.166820
v -0.205000 -0.116830 0.166820
v -0.205000 -0.123660 0.173650
v -0.195000 -0.040000 -0.149997
v -0.205000 -0.040000 -0.149997
v -0.195000 -0.030000 -0.149997
v -0.205000 -0.030000 -0.149997
v -0.205000 -0.040000 0.149987
v -0.195000 -0.040000 0.149987
v -0.205000 -0.030000 0.149987
v -0.195000 -0.030000 0.149987
v -0.205000 -0.040000 0.159987
v -0.195000 -0.040000 0.159987
v -0.205000 -0.030000 0.159987
v -0.195000 -0.030000 0.159987
v -0.195000 -0.123660 -0.173660
v -0.195000 -0.116830 -0.166830
v -0.205000 -0.116830 -0.166830
v -0.205000 -0.123660 -0.173660
v -0.205000 -0.050000 0.169987
v -0.195000 -0.050000 0.169987
v -0.205000 -0.050000 0.179987
v -0.195000 -0.050000 0.179987
v -0.205000 -0.110000 0.169990
v -0.195000 -0.110000 0.169990
v -0.205000 -0.110000 0.179990
v -0.195000 -0.110000 0.179990
v -0.205000 -0.036340 0.173647
v -0.205000 -0.043170 0.166817
v -0.195000 -0.043170 0.166817
v -0.195000 -0.036340 0.173647
v 0.395000 -0.130000 -0.160000
v 0.405000 -0.130000 -0.160000
v 0.395000 -0.120000 -0.160000
v 0.405000 -0.120000 -0.160000
v -0.205000 -0.120000 0.159990
v -0.195000 -0.120000 0.159990
v -0.205000 -0.130000 0.159990
v -0.195000 -0.130000 0.159990
v -0.395000 -0.030000 0.149987
v -0.405000 -0.030000 0.149987
v -0.395000 -0.040000 0.149987
v -0.405000 -0.040000 0.149987
v -0.195000 -0.040000 -0.159997
v -0.205000 -0.040000 -0.159997
v -0.195000 -0.030000 -0.159997
v -0.205000 -0.030000 -0.159997
v -0.195000 -0.050000 -0.169997
v -0.205000 -0.050000 -0.169997
v -0.195000 -0.050000 -0.179997
v -0.205000 -0.050000 -0.179997
v 0.395000 -0.036340 -0.173657
v 0.395000 -0.043170 -0.166827
v 0.405000 -0.043170 -0.166827
v 0.405000 -0.036340 -0.173657
v -0.195000 -0.110000 -0.170000
v -0.205000 -0.110000 -0.170000
v -0.195000 -0.110000 -0.180000
v -0.205000 -0.110000 -0.180000
v -0.405000 -0.030000 -0.149997
v -0.395000 -0.030000 -0.149997
v -0.405000 -0.040000 -0.149997
v -0.395000 -0.040000 -0.149997
v -0.195000 -0.036340 -0.173657
v -0.195000 -0.043170 -0.166827
v -0.205000 -0.043170 -0.166827
v -0.205000 -0.036340 -0.173657
v -0.195000 -0.120000 -0.160000
v -0.205000 -0.120000 -0.160000
v -0.195000 -0.130000 -0.160000
v -0.205000 -0.130000 -0.160000
v -0.623657 -0.036340 -0.005000
v -0.616827 -0.043170 -0.005000
v -0.616827 -0.043170 0.005000
v -0.623657 -0.036340 0.005000
v -0.610000 -0.130000 -0.005000
v -0.610000 -0.130000 0.005000
v -0.610000 -0.140000 -0.005000
v -0.610000 -0.140000 0.005000
v 0.623650 -0.133660 -0.005000
v 0.616820 -0.126830 -0.005000
v 0.616820 -0.126830 0.005000
v 0.623650 -0.133660 0.005000
v -0.599997 -0.040000 -0.005000
v -0.599997 -0.040000 0.005000
v -0.599997 -0.030000 -0.005000
v -0.599997 -0.030000 0.005000
v 0.599987 -0.040000 0.005000
v 0.599987 -0.040000 -0.005000
v 0.599987 -0.030000 0.005000
v 0.599987 -0.030000 -0.005000
v 0.609987 -0.040000 0.005000
v 0.609987 -0.040000 -0.005000
v 0.609987 -0.030000 0.005000
v 0.609987 -0.030000 -0.005000
v -0.623660 -0.133660 -0.005000
v -0.616830 -0.126830 -0.005000
v -0.616830 -0.126830 0.005000
v -0.623660 -0.133660 0.005000
v 0.619987 -0.050000 0.005000
v 0.619987 -0.050000 -0.005000
v 0.629987 -0.050000 0.005000
v 0.629987 -0.050000 -0.005000
v 0.619990 -0.120000 0.005000
v 0.619990 -0.120000 -0.005000
v 0.629990 -0.120000 0.005000
v 0.629990 -0.120000 -0.005000
v 0.623647 -0.036340 0.005000
v 0.616817 -0.043170 0.005000
v 0.616817 -0.043170 -0.005000
v 0.623647 -0.036340 -0.005000
v 0.609990 -0.130000 0.005000
v 0.609990 -0.130000 -0.005000
v 0.609990 -0.140000 0.005000
v 0.609990 -0.140000 -0.005000
v -0.609997 -0.040000 -0.005000
v -0.609997 -0.040000 0.005000
v -0.609997 -0.030000 -0.005000
v -0.609997 -0.030000 0.005000
v -0.619997 -0.050000 -0.005000
v -0.619997 -0.050000 0.005000
v -0.629997 -0.050000 -0.005000
v -0.629997 -0.050000 0.005000
v -0.620000 -0.120000 -0.005000
v -0.620000 -0.120000 0.005000
v -0.630000 -0.120000 -0.005000
v -0.630000 -0.120000 0.005000
v -0.405000 -0.123660 0.173650
v -0.405000 -0.116830 0.166820
v -0.395000 -0.116830 0.166820
v -0.395000 -0.123660 0.173650
vn -1.0000 -0.0000 -0.0000
vn -0.0000 1.0000 -0.0000
vn -0.0000 -0.7071 -0.7071
vn -0.0000 -0.2588 -0.9659
vn 1.0000 -0.0000 -0.0000
vn -0.0000 -0.2588 0.9659
vn -0.0000 -0.7071 0.7071
vn -0.0000 0.0001 -1.0000
vn -0.0000 0.2588 -0.9659
vn -0.0000 0.7071 -0.7071
vn -0.0000 0.7071 0.7071
vn -0.0000 0.2588 0.9659
vn -0.0000 -0.0001 1.0000
vn -0.0000 -0.9659 0.2588
vn -0.0000 0.9659 -0.2588
vn -0.0000 0.9659 0.2588
vn -0.0000 0.0001 1.0000
vn -0.0000 -0.0001 -1.0000
vn -0.0000 -0.9659 -0.2588
vn -0.0000 -1.0000 -0.0000
vn -0.0000 -0.0000 1.0000
vn -0.0000 -0.0000 -1.0000
vn -0.2588 -0.9659 -0.0000
vn -0.7071 -0.7071 -0.0000
vn 0.7071 0.7071 -0.0000
vn 0.2588 0.9659 -0.0000
vn -0.2588 0.9659 -0.0000
vn -0.7071 0.7071 -0.0000
vn 0.9659 0.2588 -0.0000
vn 0.2588 -0.9659 -0.0000
vn 0.7071 -0.7071 -0.0000
vn -0.9659 0.2588 -0.0000
vn -0.9659 -0.2588 -0.0000
vn 0.9659 -0.2588 -0.0000
vt 0.586826 0.529330
vt 0.579996 0.532500
vt 0.579996 0.527500
vt 0.583411 0.525915
vt 0.420002 0.302498
vt 0.579998 0.302498
vt 0.579998 0.297498
vt 0.420002 0.297498
vt 0.475375 0.302498
vt 0.482205 0.302498
vt 0.482205 0.297498
vt 0.475375 0.297498
vt 0.410002 0.492500
vt 0.410004 0.522500
vt 0.415004 0.522500
vt 0.415002 0.492500
vt 0.579996 0.532500
vt 0.579996 0.527500
vt 0.574996 0.527500
vt 0.574996 0.532500
vt 0.415003 0.492500
vt 0.410002 0.492500
vt 0.413172 0.485670
vt 0.416587 0.489084
vt 0.420003 0.487500
vt 0.420003 0.482500
vt 0.413172 0.485670
vt 0.416587 0.489085
vt 0.420002 0.487500
vt 0.579998 0.487500
vt 0.579997 0.482500
vt 0.420003 0.482500
vt 0.530137 0.297498
vt 0.533552 0.297498
vt 0.533552 0.302497
vt 0.530137 0.302498
vt 0.586826 0.529330
vt 0.579996 0.532500
vt 0.579996 0.527500
vt 0.583411 0.525915
vt 0.415004 0.522500
vt 0.410004 0.522500
vt 0.413174 0.529330
vt 0.416589 0.525915
vt 0.413172 0.485670
vt 0.410002 0.492500
vt 0.415002 0.492500
vt 0.416587 0.489085
vt 0.420003 0.487500
vt 0.416588 0.489086
vt 0.413172 0.485670
vt 0.420003 0.482500
vt 0.492501 0.302498
vt 0.522501 0.302498
vt 0.522501 0.297498
vt 0.492501 0.297498
vt 0.530137 0.302497
vt 0.536967 0.302497
vt 0.536967 0.297498
vt 0.530137 0.297498
vt 0.478790 0.302498
vt 0.478790 0.297498
vt 0.482205 0.297498
vt 0.482205 0.302498
vt 0.522501 0.302498
vt 0.492501 0.302498
vt 0.415004 0.522500
vt 0.413174 0.529330
vt 0.410004 0.522500
vt 0.413045 0.302498
vt 0.413045 0.297497
vt 0.416460 0.297498
vt 0.416460 0.302498
vt 0.530137 0.302498
vt 0.533552 0.302498
vt 0.533552 0.297498
vt 0.530137 0.297498
vt 0.475374 0.297498
vt 0.482204 0.297497
vt 0.482205 0.302498
vt 0.475375 0.302498
vt 0.586828 0.485670
vt 0.589998 0.492500
vt 0.584998 0.492500
vt 0.583413 0.489085
vt 0.420004 0.527500
vt 0.420004 0.532500
vt 0.413174 0.529330
vt 0.416589 0.525915
vt 0.409630 0.302498
vt 0.416460 0.302497
vt 0.409630 0.297498
vt 0.415002 0.492500
vt 0.410004 0.522500
vt 0.410002 0.492500
vt 0.478789 0.297497
vt 0.478789 0.302498
vt 0.482204 0.302498
vt 0.482204 0.297497
vt 0.589270 0.297498
vt 0.596100 0.297498
vt 0.596100 0.302498
vt 0.589270 0.302498
vt 0.579996 0.527500
vt 0.579996 0.532500
vt 0.579998 0.487500
vt 0.583413 0.489085
vt 0.586828 0.485670
vt 0.579998 0.482500
vt 0.410731 0.297498
vt 0.407316 0.297498
vt 0.407316 0.302498
vt 0.410730 0.302498
vt 0.420004 0.527500
vt 0.579997 0.487500
vt 0.579998 0.482500
vt 0.586827 0.485670
vt 0.583412 0.489085
vt 0.530137 0.297498
vt 0.536967 0.297498
vt 0.536967 0.302498
vt 0.530137 0.302498
vt 0.420004 0.527500
vt 0.420004 0.532500
vt 0.425004 0.532500
vt 0.425004 0.527500
vt 0.589997 0.492500
vt 0.589996 0.522500
vt 0.584996 0.522500
vt 0.584998 0.492500
vt 0.584996 0.522500
vt 0.583411 0.525915
vt 0.586826 0.529330
vt 0.589996 0.522500
vt 0.492501 0.297498
vt 0.522501 0.297498
vt 0.522501 0.302498
vt 0.492501 0.302498
vt 0.584998 0.492500
vt 0.589998 0.492500
vt 0.586828 0.485670
vt 0.583413 0.489085
vt 0.584996 0.522500
vt 0.589996 0.522500
vt 0.586826 0.529330
vt 0.492501 0.302498
vt 0.522501 0.297498
vt 0.492501 0.297498
vt 0.589270 0.302498
vt 0.592685 0.302498
vt 0.592685 0.297498
vt 0.589270 0.297498
vt 0.590371 0.297498
vt 0.583540 0.297498
vt 0.583540 0.302498
vt 0.590370 0.302498
vt 0.584998 0.492500
vt 0.584996 0.522500
vt 0.589996 0.522500
vt 0.586956 0.297498
vt 0.586956 0.302498
vt 0.583540 0.302498
vt 0.583540 0.297498
vt 0.586955 0.397498
vt 0.586955 0.402498
vt 0.583541 0.402498
vt 0.583541 0.397498
vt 0.584998 0.492500
vt 0.584996 0.522500
vt 0.589996 0.522500
vt 0.589998 0.492500
vt 0.590371 0.397498
vt 0.583540 0.397497
vt 0.583540 0.402498
vt 0.590370 0.402498
vt 0.589996 0.522500
vt 0.586826 0.529330
vt 0.583411 0.525915
vt 0.589998 0.492500
vt 0.584996 0.522500
vt 0.584998 0.492500
vt 0.589270 0.402497
vt 0.592684 0.402497
vt 0.592684 0.397497
vt 0.589270 0.397497
vt 0.492501 0.402498
vt 0.522501 0.402498
vt 0.522501 0.397498
vt 0.492501 0.397498
vt 0.584998 0.492500
vt 0.589998 0.492500
vt 0.586828 0.485670
vt 0.583413 0.489085
vt 0.492501 0.397498
vt 0.522501 0.397498
vt 0.584996 0.522500
vt 0.589996 0.522500
vt 0.420004 0.527500
vt 0.420004 0.532500
vt 0.425004 0.527500
vt 0.420002 0.397498
vt 0.579998 0.397498
vt 0.579998 0.402498
vt 0.420002 0.402498
vt 0.420004 0.397498
vt 0.420004 0.402498
vt 0.425004 0.402498
vt 0.425004 0.397498
vt 0.589270 0.397498
vt 0.596100 0.397498
vt 0.596100 0.402498
vt 0.589270 0.402498
vt 0.420002 0.487500
vt 0.579997 0.482500
vt 0.420003 0.482500
vt 0.420002 0.702498
vt 0.579998 0.702498
vt 0.579998 0.697498
vt 0.420002 0.697497
vt 0.420003 0.482500
vt 0.579998 0.482500
vt 0.579998 0.487500
vt 0.420003 0.487500
vt 0.413172 0.485670
vt 0.416587 0.489085
vt 0.478790 0.702497
vt 0.478790 0.697497
vt 0.482205 0.697497
vt 0.482205 0.702497
vt 0.475375 0.702498
vt 0.482205 0.702498
vt 0.482205 0.697498
vt 0.475375 0.697498
vt 0.420003 0.487501
vt 0.416588 0.489086
vt 0.413172 0.485671
vt 0.420003 0.482500
vt 0.415003 0.492500
vt 0.410002 0.492500
vt 0.413172 0.485670
vt 0.416587 0.489085
vt 0.413172 0.485670
vt 0.410002 0.492500
vt 0.415002 0.492500
vt 0.416587 0.489085
vt 0.530137 0.702498
vt 0.536967 0.702497
vt 0.536967 0.697497
vt 0.530137 0.697498
vt 0.530137 0.697498
vt 0.533552 0.697497
vt 0.533552 0.702497
vt 0.530137 0.702498
vt 0.492501 0.702497
vt 0.522501 0.702497
vt 0.522501 0.697497
vt 0.492501 0.697497
vt 0.410002 0.492500
vt 0.410004 0.522500
vt 0.415004 0.522500
vt 0.492501 0.697497
vt 0.522501 0.702497
vt 0.492501 0.702497
vt 0.415002 0.492500
vt 0.410004 0.522500
vt 0.410002 0.492500
vt 0.415004 0.522500
vt 0.410004 0.522500
vt 0.416589 0.525915
vt 0.413045 0.702498
vt 0.413045 0.697498
vt 0.416460 0.697498
vt 0.416460 0.702497
vt 0.409630 0.702497
vt 0.416460 0.697497
vt 0.409630 0.697497
vt 0.415004 0.522500
vt 0.420004 0.527500
vt 0.420004 0.532500
vt 0.413174 0.529330
vt 0.416589 0.525915
vt 0.413174 0.529330
vt 0.420004 0.532500
vt 0.420004 0.527500
vt 0.579997 0.487500
vt 0.579998 0.482500
vt 0.586827 0.485670
vt 0.583412 0.489085
vt 0.478790 0.697497
vt 0.478790 0.702497
vt 0.482205 0.702497
vt 0.482205 0.697497
vt 0.475374 0.697497
vt 0.482205 0.697497
vt 0.482204 0.702497
vt 0.475374 0.702498
vt 0.579998 0.487500
vt 0.583413 0.489085
vt 0.586828 0.485670
vt 0.579998 0.482500
vt 0.584998 0.492500
vt 0.586828 0.485670
vt 0.583413 0.489085
vt 0.586828 0.485670
vt 0.589998 0.492499
vt 0.584998 0.492500
vt 0.530137 0.697498
vt 0.536967 0.697498
vt 0.536967 0.702498
vt 0.530137 0.702498
vt 0.533552 0.702498
vt 0.533552 0.697497
vt 0.530137 0.697498
vt 0.492501 0.697498
vt 0.522501 0.697498
vt 0.522501 0.702498
vt 0.492501 0.702498
vt 0.589998 0.492500
vt 0.589996 0.522500
vt 0.584996 0.522500
vt 0.584998 0.492500
vt 0.492501 0.702498
vt 0.522501 0.697498
vt 0.492501 0.697498
vt 0.584998 0.492500
vt 0.589998 0.492500
vt 0.586956 0.697498
vt 0.586956 0.702498
vt 0.583540 0.702497
vt 0.583540 0.697498
vt 0.590370 0.697497
vt 0.583540 0.697498
vt 0.590370 0.702497
vt 0.579996 0.527500
vt 0.579996 0.532500
vt 0.586826 0.529330
vt 0.583411 0.525915
vt 0.579996 0.532500
vt 0.579996 0.527500
vt 0.583411 0.525915
vt 0.410730 0.702497
vt 0.403900 0.702497
vt 0.403900 0.697497
vt 0.410730 0.697497
vt 0.410730 0.697497
vt 0.407315 0.697497
vt 0.407315 0.702497
vt 0.410730 0.702497
vt 0.530137 0.397498
vt 0.536967 0.397498
vt 0.536967 0.402498
vt 0.530137 0.402498
vt 0.579997 0.487500
vt 0.579998 0.482500
vt 0.586827 0.485670
vt 0.413174 0.529330
vt 0.420004 0.532500
vt 0.420004 0.527500
vt 0.416589 0.525915
vt 0.420004 0.527500
vt 0.420004 0.532500
vt 0.413174 0.529330
vt 0.410730 0.397497
vt 0.407315 0.397497
vt 0.407315 0.402497
vt 0.410730 0.402497
vt 0.579998 0.487500
vt 0.583413 0.489085
vt 0.586828 0.485670
vt 0.579998 0.482500
vt 0.478789 0.397497
vt 0.478789 0.402498
vt 0.482204 0.402498
vt 0.482204 0.397498
vt 0.415004 0.522500
vt 0.410004 0.522500
vt 0.410002 0.492500
vt 0.409630 0.402498
vt 0.416460 0.402498
vt 0.416460 0.397498
vt 0.409630 0.397498
vt 0.586828 0.485670
vt 0.584998 0.492500
vt 0.583413 0.489085
vt 0.533552 0.402498
vt 0.533552 0.397498
vt 0.530137 0.397498
vt 0.413045 0.402498
vt 0.413045 0.397498
vt 0.416460 0.397498
vt 0.416460 0.402497
vt 0.475374 0.397498
vt 0.482204 0.397497
vt 0.482204 0.402497
vt 0.475375 0.402497
vt 0.492501 0.397498
vt 0.522501 0.397498
vt 0.522501 0.402498
vt 0.492501 0.402498
vt 0.478789 0.402498
vt 0.478790 0.397498
vt 0.482205 0.397498
vt 0.530137 0.402498
vt 0.536967 0.402498
vt 0.536967 0.397498
vt 0.413172 0.485670
vt 0.410002 0.492500
vt 0.415002 0.492500
vt 0.416587 0.489085
vt 0.420003 0.487500
vt 0.420003 0.482500
vt 0.413172 0.485669
vt 0.416587 0.489085
vt 0.522501 0.402498
vt 0.416588 0.489085
vt 0.413172 0.485670
vt 0.475375 0.402498
vt 0.482205 0.402498
vt 0.482205 0.397498
vt 0.475375 0.397498
vt 0.586826 0.529330
vt 0.583411 0.525915
vt 0.579998 0.402498
vt 0.579998 0.397498
vt 0.530137 0.397498
vt 0.533552 0.397498
vt 0.533552 0.402498
vt 0.410004 0.522500
vt 0.415004 0.522500
vt 0.415002 0.492500
vt 0.579998 0.487500
vt 0.579997 0.482500
vt 0.415003 0.492500
vt 0.413172 0.485670
vt 0.416587 0.489085
vt 0.579998 0.482500
vt 0.579998 0.487500
vt 0.420002 0.502497
vt 0.579998 0.502498
vt 0.579998 0.497498
vt 0.420002 0.497497
vt 0.415004 0.522500
vt 0.415002 0.492500
vt 0.530137 0.497498
vt 0.533552 0.497497
vt 0.533552 0.502498
vt 0.530137 0.502498
vt 0.475375 0.502498
vt 0.482205 0.502498
vt 0.482205 0.497498
vt 0.475375 0.497498
vt 0.492501 0.502497
vt 0.522501 0.502497
vt 0.522501 0.497497
vt 0.492501 0.497497
vt 0.478790 0.502498
vt 0.478790 0.497498
vt 0.482205 0.497498
vt 0.482205 0.502498
vt 0.492501 0.497497
vt 0.522501 0.497497
vt 0.530137 0.502497
vt 0.536967 0.502497
vt 0.536967 0.497498
vt 0.530137 0.497498
vt 0.415002 0.492500
vt 0.415004 0.522500
vt 0.410004 0.522500
vt 0.410002 0.492500
vt 0.475374 0.497497
vt 0.482205 0.497497
vt 0.482205 0.502497
vt 0.475374 0.502497
vt 0.413045 0.502497
vt 0.413045 0.497498
vt 0.416460 0.497497
vt 0.416460 0.502497
vt 0.409630 0.502497
vt 0.416460 0.502498
vt 0.416460 0.497497
vt 0.409630 0.497497
vt 0.420004 0.527500
vt 0.420004 0.532500
vt 0.413174 0.529330
vt 0.416589 0.525915
vt 0.530137 0.502498
vt 0.533552 0.502498
vt 0.533552 0.497498
vt 0.530137 0.497498
vt 0.478789 0.497497
vt 0.478789 0.502498
vt 0.482204 0.502498
vt 0.482204 0.497497
vt 0.530137 0.497498
vt 0.536967 0.497497
vt 0.536967 0.502498
vt 0.530137 0.502497
vt 0.413174 0.529330
vt 0.420004 0.532500
vt 0.420004 0.527500
vt 0.416589 0.525915
vt 0.410730 0.497497
vt 0.407315 0.497498
vt 0.407315 0.502498
vt 0.410730 0.502498
vt 0.579996 0.527500
vt 0.574996 0.527500
vt 0.574996 0.532500
vt 0.579998 0.482500
vt 0.579996 0.527500
vt 0.579996 0.532500
vt 0.583411 0.525915
vt 0.579996 0.502498
vt 0.579996 0.497498
vt 0.574996 0.497498
vt 0.574996 0.502498
vt 0.410730 0.502497
vt 0.403900 0.502497
vt 0.403900 0.497498
vt 0.410730 0.497498
vt 0.589270 0.497497
vt 0.596100 0.497497
vt 0.596100 0.502497
vt 0.589270 0.502497
vt 0.420004 0.502498
vt 0.420004 0.497498
vt 0.425004 0.497498
vt 0.425004 0.502497
vt 0.589270 0.502498
vt 0.592685 0.502498
vt 0.592685 0.497497
vt 0.589270 0.497497
vt 0.579998 0.497498
vt 0.579998 0.502498
vt 0.589270 0.597498
vt 0.596100 0.597498
vt 0.596100 0.602498
vt 0.589270 0.602498
vt 0.420002 0.597498
vt 0.579998 0.597498
vt 0.579998 0.602498
vt 0.420002 0.602498
vt 0.420004 0.532500
vt 0.420004 0.527500
vt 0.425004 0.527500
vt 0.425004 0.532500
vt 0.589270 0.602498
vt 0.592685 0.602498
vt 0.592685 0.597498
vt 0.589270 0.597498
vt 0.420004 0.602498
vt 0.420004 0.597498
vt 0.425004 0.597498
vt 0.425004 0.602498
vt 0.579996 0.602498
vt 0.579996 0.597498
vt 0.574996 0.597498
vt 0.574996 0.602498
vt 0.574996 0.527500
vt 0.574996 0.532500
vt 0.410730 0.597497
vt 0.407315 0.597497
vt 0.407315 0.602497
vt 0.410730 0.602497
vt 0.410730 0.602497
vt 0.403900 0.602497
vt 0.403900 0.597497
vt 0.410730 0.597498
vt 0.579996 0.532500
vt 0.579996 0.527500
vt 0.579996 0.527500
vt 0.579996 0.532500
vt 0.583411 0.525915
vt 0.492501 0.602498
vt 0.522501 0.602498
vt 0.522501 0.597498
vt 0.492501 0.597498
vt 0.589997 0.492500
vt 0.584996 0.522500
vt 0.584998 0.492500
vt 0.492501 0.597498
vt 0.522501 0.597498
vt 0.492501 0.602498
vt 0.530137 0.602498
vt 0.533552 0.602497
vt 0.533552 0.597498
vt 0.530137 0.597498
vt 0.420004 0.527500
vt 0.416589 0.525915
vt 0.586828 0.485670
vt 0.579998 0.482500
vt 0.530137 0.597498
vt 0.536967 0.597498
vt 0.536967 0.602498
vt 0.530137 0.602498
vt 0.475374 0.597498
vt 0.482205 0.597497
vt 0.482204 0.602497
vt 0.475374 0.602497
vt 0.478790 0.597498
vt 0.478790 0.602498
vt 0.482205 0.602498
vt 0.482205 0.597498
vt 0.579997 0.487499
vt 0.579998 0.482500
vt 0.420004 0.532500
vt 0.409630 0.602498
vt 0.416460 0.602498
vt 0.416460 0.597498
vt 0.409630 0.597498
vt 0.413045 0.602498
vt 0.413045 0.597498
vt 0.416460 0.602498
vt 0.530137 0.602498
vt 0.536967 0.597498
vt 0.530137 0.597497
vt 0.410002 0.492500
vt 0.522501 0.597498
vt 0.522501 0.602498
vt 0.492501 0.602498
vt 0.410002 0.492500
vt 0.415002 0.492500
vt 0.478790 0.602497
vt 0.478790 0.597497
vt 0.482205 0.597497
vt 0.482205 0.602497
vt 0.522501 0.602498
vt 0.492501 0.597498
vt 0.530137 0.597498
vt 0.533552 0.597497
vt 0.533552 0.602497
vt 0.530137 0.602498
vt 0.475375 0.602498
vt 0.482205 0.602498
vt 0.482205 0.597498
vt 0.475375 0.597498
vt 0.579996 0.297498
vt 0.579996 0.302498
vt 0.574996 0.302498
vt 0.574996 0.297498
vt 0.579996 0.527500
vt 0.579996 0.532500
vt 0.586826 0.529330
vt 0.583411 0.525915
vt 0.579998 0.602498
vt 0.579998 0.597498
vt 0.492501 0.497498
vt 0.522501 0.497498
vt 0.522501 0.502497
vt 0.492501 0.502498
vt 0.579996 0.702498
vt 0.579996 0.697498
vt 0.574996 0.697497
vt 0.574996 0.702498
vt 0.492501 0.502498
vt 0.492501 0.497498
vt 0.579996 0.527500
vt 0.579996 0.532500
vt 0.574996 0.532500
vt 0.574996 0.527500
vt 0.579996 0.397498
vt 0.579996 0.402498
vt 0.574996 0.402498
vt 0.574996 0.397498
vt 0.589998 0.492500
vt 0.589996 0.522500
vt 0.584996 0.522500
vt 0.584997 0.492500
vt 0.410730 0.302498
vt 0.403900 0.302498
vt 0.403900 0.297498
vt 0.410730 0.297498
vt 0.579996 0.527500
vt 0.579996 0.532500
vt 0.410730 0.402498
vt 0.403900 0.402497
vt 0.403900 0.397497
vt 0.410730 0.397498
vt 0.590370 0.497498
vt 0.583540 0.497497
vt 0.583540 0.502498
vt 0.590370 0.502497
vt 0.584998 0.492500
vt 0.584996 0.522500
vt 0.589998 0.492500
vt 0.584998 0.492500
vt 0.589996 0.522500
vt 0.420004 0.697497
vt 0.420004 0.702498
vt 0.425004 0.702497
vt 0.425004 0.697497
vt 0.586955 0.597498
vt 0.586955 0.602498
vt 0.583541 0.602497
vt 0.583541 0.597498
vt 0.420004 0.527500
vt 0.420004 0.532500
vt 0.425004 0.532500
vt 0.425004 0.527500
vt 0.420004 0.302498
vt 0.420004 0.297498
vt 0.425004 0.297498
vt 0.425004 0.302498
vt 0.586955 0.497497
vt 0.586955 0.502498
vt 0.583540 0.502498
vt 0.583540 0.497498
vt 0.579998 0.297498
vt 0.579998 0.302498
vt 0.590370 0.597498
vt 0.583540 0.597498
vt 0.583540 0.602498
vt 0.590370 0.602498
vt 0.420002 0.697498
vt 0.579998 0.697497
vt 0.579998 0.702498
vt 0.420002 0.702497
vt 0.497502 0.804995
vt 0.502503 0.804995
vt 0.502502 0.799996
vt 0.497503 0.799995
vt 0.532500 0.804996
vt 0.527500 0.804996
vt 0.527500 0.799996
vt 0.532500 0.799995
vt 0.502503 0.804995
vt 0.502502 0.799996
vt 0.497502 0.804998
vt 0.497502 0.195002
vt 0.502502 0.195002
vt 0.502503 0.804998
vt 0.502503 0.195004
vt 0.497502 0.195004
vt 0.497503 0.200004
vt 0.502502 0.200004
vt 0.487501 0.190002
vt 0.522500 0.190004
vt 0.522500 0.185004
vt 0.487501 0.185002
vt 0.502502 0.799069
vt 0.502503 0.805900
vt 0.497503 0.805900
vt 0.497502 0.799069
vt 0.527500 0.195004
vt 0.532499 0.195004
vt 0.529330 0.188174
vt 0.525914 0.191589
vt 0.532500 0.195004
vt 0.527500 0.195004
vt 0.527500 0.200004
vt 0.532500 0.200004
vt 0.497502 0.197921
vt 0.497502 0.204751
vt 0.502502 0.204751
vt 0.502502 0.197921
vt 0.477500 0.804996
vt 0.477501 0.195003
vt 0.482501 0.195003
vt 0.482500 0.804997
vt 0.497503 0.201336
vt 0.502502 0.201336
vt 0.502502 0.204751
vt 0.497503 0.204751
vt 0.502502 0.200930
vt 0.502502 0.197515
vt 0.497503 0.197515
vt 0.497502 0.200930
vt 0.502502 0.487500
vt 0.502502 0.522500
vt 0.497502 0.522500
vt 0.497502 0.487500
vt 0.522500 0.190004
vt 0.522499 0.185004
vt 0.529330 0.188174
vt 0.525915 0.191589
vt 0.527500 0.804996
vt 0.532500 0.799996
vt 0.527500 0.799996
vt 0.497503 0.501498
vt 0.497502 0.508328
vt 0.502503 0.508328
vt 0.502502 0.501498
vt 0.480671 0.188173
vt 0.484086 0.191588
vt 0.529330 0.811826
vt 0.532500 0.804996
vt 0.527500 0.804996
vt 0.525915 0.808411
vt 0.529330 0.811826
vt 0.497502 0.200931
vt 0.497502 0.194101
vt 0.502503 0.194101
vt 0.502503 0.200931
vt 0.497502 0.799069
vt 0.497502 0.802484
vt 0.502502 0.802483
vt 0.502502 0.799067
vt 0.482500 0.195002
vt 0.484085 0.191587
vt 0.480669 0.188172
vt 0.477500 0.195002
vt 0.497502 0.503315
vt 0.502502 0.503315
vt 0.502503 0.506730
vt 0.497503 0.506730
vt 0.487500 0.809998
vt 0.522500 0.809996
vt 0.522501 0.814996
vt 0.487500 0.814998
vt 0.502502 0.802079
vt 0.502502 0.795249
vt 0.497503 0.795249
vt 0.497502 0.802079
vt 0.487500 0.185003
vt 0.487500 0.190003
vt 0.502503 0.501499
vt 0.502502 0.504913
vt 0.497503 0.504913
vt 0.497503 0.501499
vt 0.502502 0.798663
vt 0.497502 0.798663
vt 0.497502 0.795248
vt 0.502503 0.795249
vt 0.497502 0.499900
vt 0.497502 0.506729
vt 0.502502 0.506729
vt 0.502502 0.499899
vt 0.522499 0.809995
vt 0.525915 0.808412
vt 0.529330 0.811826
vt 0.522500 0.814996
vt 0.480670 0.811827
vt 0.487498 0.814995
vt 0.487499 0.809995
vt 0.484084 0.808411
vt 0.497502 0.487500
vt 0.497502 0.522500
vt 0.502502 0.522500
vt 0.502502 0.487500
vt 0.502502 0.503315
vt 0.497502 0.503315
vt 0.497502 0.506731
vt 0.502502 0.506731
vt 0.502503 0.501498
vt 0.502502 0.508328
vt 0.497502 0.508328
vt 0.497503 0.501498
vt 0.482500 0.804997
vt 0.477500 0.804997
vt 0.522500 0.809996
vt 0.522500 0.814996
vt 0.525915 0.808411
vt 0.502502 0.487500
vt 0.502502 0.522500
vt 0.497502 0.487500
vt 0.484085 0.808412
vt 0.480670 0.811826
vt 0.529330 0.188174
vt 0.532500 0.195004
vt 0.527500 0.195004
vt 0.525915 0.191589
vt 0.497502 0.501498
vt 0.497502 0.504913
vt 0.502503 0.504913
vt 0.502503 0.501498
vt 0.502502 0.499900
vt 0.502502 0.506730
vt 0.497502 0.506730
vt 0.497502 0.499900
vt 0.502502 0.804998
vt 0.502502 0.195002
vt 0.497502 0.195002
vt 0.497502 0.804998
vt 0.522500 0.814996
vt 0.522500 0.809996
vt 0.522500 0.190004
vt 0.525915 0.191589
vt 0.529331 0.188174
vt 0.522500 0.185004
vt 0.522500 0.185004
vt 0.522499 0.190004
vt 0.497503 0.487500
vt 0.497502 0.522500
vt 0.502502 0.522500
vt 0.502502 0.487500
vt 0.589270 0.702498
vt 0.592685 0.702498
vt 0.592685 0.697498
vt 0.589270 0.697498
vt 0.589270 0.697498
vt 0.596100 0.697498
vt 0.596100 0.702498
vt 0.589270 0.702498
s 0
usemtl metal_mp_4
f 196/40/15 210/41/15 212/42/15 195/43/15
f 259/44/16 36/45/16 35/46/16 260/47/16
f 49/48/17 21/49/18 22/50/18 52/51/17
f 22/52/19 26/53/19 28/54/19 24/55/19
f 84/56/19 82/57/19 78/58/19 80/59/19
f 23/60/15 21/61/15 49/62/15 50/63/15
f 260/64/19 258/65/19 52/66/19 51/67/19
f 260/68/19 35/69/19 33/70/19 258/71/19
f 28/72/20 279/73/21 278/74/21 27/75/20
f 40/76/15 54/77/15 56/78/15 39/79/15
f 28/80/19 26/81/19 280/82/19 279/83/19
f 52/84/19 22/85/19 24/86/19 51/87/19
f 259/88/15 50/89/15 49/90/15 257/91/15
f 21/92/22 25/93/22 26/94/22 22/95/22
f 25/96/23 277/97/24 280/98/24 26/99/23
f 50/100/25 51/101/25 24/102/26 23/103/26
f 24/95/27 28/94/27 27/104/27 23/105/27
f 27/106/15 278/83/15 277/107/15 25/108/15
f 278/109/21 279/110/21 32/111/28 31/112/28
f 48/113/18 39/114/17 38/115/17 47/116/18
f 68/117/21 41/118/20 42/119/20 65/120/21
f 65/121/15 42/122/15 44/123/15 66/124/15
f 31/125/15 29/126/15 277/127/15 278/128/15
f 277/129/24 29/130/29 30/111/29 280/131/24
f 23/132/15 27/106/15 25/133/15 21/134/15
f 67/135/24 66/136/24 44/137/23 43/138/23
f 33/139/28 68/140/21 65/141/21 34/142/28
f 56/143/15 54/144/15 58/59/15 60/58/15
f 35/145/19 67/146/19 68/147/19 33/148/19
f 260/149/30 51/150/25 50/151/25 259/152/30
f 280/127/19 30/126/19 32/153/19 279/128/19
f 36/154/15 34/155/15 65/156/15 66/157/15
f 45/158/26 37/159/25 40/160/25 46/161/26
f 32/162/19 30/163/19 62/164/19 64/165/19
f 42/166/15 46/167/15 48/168/15 44/169/15
f 47/170/19 38/171/19 37/172/19 45/173/19
f 41/174/31 45/175/31 46/176/31 42/177/31
f 43/178/19 41/179/19 68/180/19 67/181/19
f 53/144/19 55/143/19 59/58/19 57/59/19
f 48/182/15 46/183/15 40/184/15 39/171/15
f 44/185/32 48/176/32 47/186/32 43/187/32
f 36/188/29 66/189/24 67/190/24 35/191/29
f 37/192/25 53/193/30 54/194/30 40/195/25
f 43/196/19 47/197/19 45/198/19 41/166/19
f 38/199/17 39/200/17 56/201/33 55/202/33
f 143/203/17 142/204/17 81/205/33 82/206/33
f 138/207/19 134/208/19 136/209/19 140/210/19
f 144/211/25 84/212/30 83/213/30 141/214/25
f 133/182/15 135/215/15 141/216/15 142/217/15
f 139/218/15 135/198/15 133/219/15 137/220/15
f 145/221/29 71/222/24 70/223/24 146/224/29
f 137/225/32 133/226/32 134/227/32 138/228/32
f 138/229/19 140/230/19 69/231/19 70/232/19
f 140/233/31 136/234/31 135/226/31 139/225/31
f 134/235/19 143/217/19 144/172/19 136/236/19
f 149/237/19 151/238/19 75/164/19 73/239/19
f 167/240/34 148/241/34 147/242/34 168/243/34
f 152/238/15 150/237/15 74/239/15 76/164/15
f 151/244/16 152/245/16 76/246/16 75/247/16
f 150/245/34 149/244/34 73/247/34 74/246/34
f 148/248/28 69/249/21 72/250/21 147/251/28
f 88/252/19 107/69/19 105/253/19 86/254/19
f 87/255/16 108/256/16 107/257/16 88/258/16
f 85/259/15 106/260/15 108/261/15 87/252/15
f 88/262/19 86/65/19 124/263/19 123/264/19
f 122/265/25 123/266/25 96/267/26 95/268/26
f 121/269/17 93/270/18 94/271/18 124/272/17
f 87/273/15 122/274/15 121/275/15 85/276/15
f 95/277/15 93/278/15 121/279/15 122/280/15
f 124/281/19 94/282/19 96/283/19 123/284/19
f 97/285/23 89/286/24 92/287/24 98/288/23
f 100/289/20 91/290/21 90/291/21 99/292/20
f 93/293/22 97/294/22 98/295/22 94/296/22
f 94/297/19 98/298/19 100/299/19 96/55/19
f 96/300/27 100/295/27 99/301/27 95/302/27
f 95/303/15 99/299/15 97/304/15 93/305/15
f 100/306/19 98/307/19 92/82/19 91/308/19
f 90/309/21 91/310/21 104/311/28 103/312/28
f 89/313/24 101/312/29 102/314/29 92/315/24
f 99/316/15 90/308/15 89/82/15 97/108/15
f 103/317/15 101/318/15 89/319/15 90/320/15
f 92/321/19 102/322/19 104/323/19 91/320/19
f 108/324/15 106/325/15 353/326/15 354/327/15
f 355/328/24 354/329/24 116/330/23 115/331/23
f 356/332/21 113/333/20 114/334/20 353/335/21
f 107/336/19 355/337/19 356/338/19 105/339/19
f 115/340/19 113/230/19 356/341/19 355/342/19
f 353/343/15 114/344/15 116/345/15 354/337/15
f 117/346/26 109/347/25 112/348/25 118/349/26
f 120/292/18 111/350/17 110/351/17 119/352/18
f 113/353/31 117/354/31 118/355/31 114/356/31
f 114/357/15 118/358/15 120/359/15 116/360/15
f 116/361/32 120/355/32 119/362/32 115/363/32
f 115/364/19 119/359/19 117/209/19 113/365/19
f 120/182/15 118/215/15 112/216/15 111/217/15
f 110/366/17 111/367/17 128/368/33 127/369/33
f 109/370/25 125/371/30 126/368/30 112/372/25
f 119/235/19 110/217/19 109/172/19 117/236/19
f 127/373/19 125/374/19 109/375/19 110/376/19
f 112/375/15 126/377/15 128/378/15 111/379/15
f 85/380/33 121/381/17 124/382/17 86/383/33
f 88/384/30 123/385/25 122/386/25 87/387/30
f 136/388/26 144/389/25 141/390/25 135/391/26
f 145/392/15 147/393/15 72/394/15 71/157/15
f 161/395/19 151/396/19 149/397/19 162/398/19
f 81/57/15 83/56/15 79/59/15 77/58/15
f 150/399/15 152/400/15 164/401/15 163/398/15
f 165/402/30 130/403/25 131/404/25 166/405/30
f 146/406/19 70/407/19 69/408/19 148/409/19
f 70/410/24 71/411/24 137/412/23 138/413/23
f 158/132/15 154/414/15 156/415/15 160/416/15
f 164/417/24 152/418/29 151/419/29 161/420/24
f 72/421/15 139/122/15 137/422/15 71/423/15
f 133/391/18 142/424/17 143/425/17 134/426/18
f 163/427/21 162/428/21 149/429/28 150/430/28
f 69/431/21 140/432/20 139/433/20 72/434/21
f 154/106/15 163/83/15 164/107/15 156/108/15
f 153/80/19 155/81/19 161/82/19 162/83/19
f 157/435/27 153/436/27 154/437/27 158/438/27
f 131/439/25 130/440/25 157/441/26 158/412/26
f 156/442/23 164/443/24 161/444/24 155/388/23
f 129/445/19 159/446/19 157/447/19 130/448/19
f 165/449/19 167/450/19 129/451/19 130/452/19
f 160/438/22 156/453/22 155/436/22 159/435/22
f 166/273/15 131/454/15 132/455/15 168/276/15
f 132/456/17 160/457/18 159/458/18 129/459/17
f 141/460/15 83/77/15 81/42/15 142/461/15
f 166/243/16 145/462/16 146/463/16 165/240/16
f 153/464/20 162/465/21 163/466/21 154/442/20
f 159/134/19 155/467/19 153/468/19 157/469/19
f 165/252/19 146/470/19 148/471/19 167/254/19
f 158/472/15 160/297/15 132/473/15 131/474/15
f 168/254/15 147/475/15 145/476/15 166/252/15
f 169/254/15 190/475/15 192/476/15 171/252/15
f 179/472/15 177/297/15 205/473/15 206/474/15
f 172/252/19 191/470/19 189/471/19 170/254/19
f 171/477/16 192/478/16 191/479/16 172/480/16
f 172/449/19 170/450/19 208/451/19 207/452/19
f 178/416/19 182/467/19 184/481/19 180/482/19
f 184/483/20 175/484/21 174/485/21 183/486/20
f 205/487/17 177/488/18 178/489/18 208/490/17
f 171/273/15 206/454/15 205/455/15 169/276/15
f 177/491/22 181/492/22 182/493/22 178/494/22
f 208/445/19 178/446/19 180/447/19 207/448/19
f 206/495/25 207/496/25 180/497/26 179/498/26
f 180/499/27 184/500/27 183/492/27 179/491/27
f 181/501/23 173/502/24 176/503/24 182/504/23
f 184/306/19 182/307/19 176/82/19 175/308/19
f 179/505/15 183/506/15 181/507/15 177/508/15
f 183/316/15 174/308/15 173/82/15 181/108/15
f 224/509/21 197/510/20 198/511/20 221/512/21
f 174/513/21 175/514/21 188/515/28 187/516/28
f 173/517/24 185/518/29 186/519/29 176/520/24
f 187/521/15 185/522/15 173/523/15 174/524/15
f 204/525/18 195/526/17 194/527/17 203/528/18
f 221/421/15 198/122/15 200/422/15 222/423/15
f 192/392/15 190/393/15 221/394/15 222/157/15
f 223/529/24 222/530/24 200/531/23 199/532/23
f 201/533/26 193/534/25 196/535/25 202/536/26
f 191/406/19 223/407/19 224/408/19 189/409/19
f 176/537/19 186/538/19 188/539/19 175/540/19
f 172/541/30 207/542/25 206/543/25 171/544/30
f 209/56/19 211/545/19 215/546/19 213/547/19
f 212/545/15 210/56/15 214/547/15 216/546/15
f 257/254/15 34/548/15 36/261/15 259/68/15
f 211/549/19 209/550/19 193/40/19 194/551/19
f 210/552/16 209/553/16 213/554/16 214/555/16
f 169/556/33 205/557/17 208/558/17 170/559/33
f 211/553/34 212/552/34 216/555/34 215/554/34
f 203/235/19 194/217/19 193/172/19 201/236/19
f 189/560/28 224/561/21 221/562/21 190/563/28
f 187/564/34 188/565/34 220/566/34 219/567/34
f 186/565/16 185/564/16 217/567/16 218/566/16
f 188/237/19 186/238/19 218/164/19 220/165/19
f 192/568/29 222/569/24 223/570/24 191/571/29
f 185/238/15 187/237/15 219/165/15 217/164/15
f 170/480/34 189/572/34 190/573/34 169/477/34
f 264/574/28 225/575/21 228/576/21 263/577/28
f 295/578/34 264/579/34 263/580/34 296/581/34
f 272/582/15 270/583/15 230/584/15 232/585/15
f 261/586/29 227/587/24 226/588/24 262/589/29
f 270/590/34 269/591/34 229/592/34 230/593/34
f 239/594/16 240/595/16 236/596/16 235/597/16
f 269/583/19 271/582/19 231/585/19 229/584/19
f 271/591/16 272/590/16 232/593/16 231/592/16
f 240/56/19 238/545/19 234/598/19 236/599/19
f 246/235/19 255/217/19 256/172/19 248/236/19
f 293/600/30 242/601/25 243/602/25 294/603/30
f 238/595/34 237/594/34 233/597/34 234/596/34
f 237/545/15 239/56/15 235/599/15 233/598/15
f 296/604/33 244/605/17 241/606/17 295/607/33
f 253/375/15 239/608/15 237/609/15 254/461/15
f 238/610/19 240/611/19 256/460/19 255/612/19
f 249/613/32 245/614/32 246/615/32 250/616/32
f 250/340/19 252/230/19 225/341/19 226/342/19
f 251/617/15 247/358/15 245/618/15 249/619/15
f 252/620/31 248/621/31 247/614/31 251/622/31
f 245/623/18 254/624/17 255/625/17 246/626/18
f 289/321/19 271/582/19 269/627/19 290/628/19
f 262/336/19 226/337/19 225/629/19 264/630/19
f 248/631/26 256/632/25 253/633/25 247/634/26
f 228/343/15 251/344/15 249/345/15 227/337/15
f 225/635/21 252/636/20 251/637/20 228/638/21
f 226/639/24 227/640/24 249/641/23 250/642/23
f 261/643/15 263/644/15 228/156/15 227/157/15
f 270/397/15 272/645/15 292/319/15 291/628/15
f 292/646/24 272/647/29 271/648/29 289/649/24
f 291/650/21 290/651/21 269/648/28 270/652/28
f 274/316/15 291/308/15 292/82/15 276/108/15
f 273/306/19 275/307/19 289/82/19 290/308/19
f 276/653/23 292/633/24 289/654/24 275/655/23
f 282/55/15 274/506/15 276/304/15 284/656/15
f 281/616/27 273/657/27 274/658/27 282/659/27
f 283/660/19 275/298/19 273/481/19 281/661/19
f 243/662/25 242/663/25 281/664/26 282/665/26
f 241/281/19 283/282/19 281/283/19 242/284/19
f 284/622/22 276/666/22 275/657/22 283/667/22
f 273/668/20 290/669/21 291/670/21 274/671/20
f 282/277/15 284/278/15 244/279/15 243/280/15
f 294/273/15 243/274/15 244/275/15 296/276/15
f 244/672/17 284/673/18 283/674/18 241/675/17
f 55/676/34 56/677/34 60/678/34 59/679/34
f 293/262/19 295/65/19 241/263/19 242/264/19
f 55/680/19 53/681/19 37/682/19 38/683/19
f 294/581/16 261/684/16 262/685/16 293/578/16
f 197/686/31 201/687/31 202/688/31 198/689/31
f 293/252/19 262/470/19 264/471/19 295/254/19
f 199/229/19 197/230/19 224/231/19 223/232/19
f 126/690/16 125/691/16 265/692/16 266/693/16
f 296/254/15 263/475/15 261/476/15 294/252/15
f 200/694/32 204/688/32 203/687/32 199/695/32
f 128/696/15 126/697/15 266/698/15 268/699/15
f 82/700/34 81/701/34 77/702/34 78/703/34
f 198/704/15 202/705/15 204/706/15 200/707/15
f 127/691/34 128/690/34 268/693/34 267/692/34
f 83/701/16 84/700/16 80/703/16 79/702/16
f 257/708/33 49/709/17 52/710/17 258/711/33
f 125/697/19 127/696/19 267/699/19 265/698/19
f 82/712/19 84/713/19 144/460/19 143/551/19
f 54/677/16 53/676/16 57/679/16 58/678/16
f 168/714/33 132/715/17 129/716/17 167/717/33
f 245/182/15 247/215/15 253/216/15 254/217/15
f 193/718/25 209/719/30 210/720/30 196/721/25
f 250/722/19 246/723/19 248/209/19 252/724/19
f 199/725/19 203/706/19 201/726/19 197/704/19
f 102/727/16 101/728/16 285/729/16 286/730/16
f 255/731/17 254/732/17 237/733/33 238/734/33
f 204/182/15 202/215/15 196/216/15 195/217/15
f 104/735/19 102/736/19 286/737/19 288/738/19
f 31/739/34 32/740/34 64/741/34 63/742/34
f 194/743/17 195/744/17 212/745/33 211/746/33
f 103/728/34 104/727/34 288/730/34 287/729/34
f 29/163/15 31/162/15 63/165/15 61/164/15
f 101/736/15 103/735/15 287/738/15 285/737/15
f 258/47/34 33/747/34 34/748/34 257/44/34
f 30/740/16 29/739/16 61/742/16 62/741/16
f 256/749/25 240/750/30 239/751/30 253/752/25
f 86/753/34 105/754/34 106/755/34 85/756/34
f 343/757/16 344/758/16 312/759/16 311/760/16
f 344/761/35 342/762/35 310/763/35 312/764/35
f 342/765/34 341/757/34 309/760/34 310/766/34
f 303/767/34 340/768/34 339/769/34 304/770/34
f 319/771/16 320/772/16 316/773/16 315/774/16
f 330/775/36 326/776/36 328/777/36 332/778/36
f 304/779/37 324/780/38 321/781/38 303/782/37
f 318/783/36 320/784/36 336/785/36 335/786/36
f 318/772/34 317/771/34 313/774/34 314/773/34
f 320/787/36 318/788/36 314/789/36 316/790/36
f 336/791/39 320/792/40 319/793/40 333/794/39
f 304/795/35 339/796/35 337/797/35 302/798/35
f 335/799/38 334/800/38 317/801/37 318/802/37
f 337/803/41 307/804/42 306/805/42 338/806/41
f 329/807/15 325/808/15 326/809/15 330/810/15
f 325/811/35 327/812/35 333/813/35 334/814/35
f 341/815/36 343/761/36 311/816/36 309/817/36
f 317/788/35 319/787/35 315/790/35 313/789/35
f 328/818/43 336/819/39 333/820/39 327/821/43
f 337/797/35 339/796/35 308/822/35 307/823/35
f 297/824/36 343/825/36 341/826/36 298/827/36
f 342/826/35 344/825/35 300/828/35 299/827/35
f 340/829/44 305/830/45 308/831/45 339/832/44
f 301/833/40 322/834/39 323/835/39 302/836/40
f 338/837/36 306/838/36 305/839/36 340/840/36
f 306/841/42 307/842/42 329/843/46 330/844/46
f 350/845/35 346/846/35 348/847/35 352/848/35
f 300/849/42 344/850/41 343/851/41 297/852/42
f 308/822/35 331/853/35 329/854/35 307/823/35
f 325/855/47 334/856/38 335/857/38 326/858/47
f 299/859/45 298/860/45 341/861/44 342/862/44
f 305/863/45 332/864/48 331/865/48 308/866/45
f 346/867/35 299/868/35 300/869/35 348/870/35
f 321/871/36 351/872/36 349/873/36 322/874/36
f 349/875/19 345/876/19 346/877/19 350/878/19
f 323/879/39 322/880/39 349/881/43 350/882/43
f 348/883/46 300/884/42 297/885/42 347/886/46
f 301/887/36 303/888/36 321/871/36 322/874/36
f 345/889/36 347/890/36 297/869/36 298/891/36
f 352/892/15 348/893/15 347/876/15 351/894/15
f 302/798/35 323/895/35 324/896/35 304/795/35
f 333/897/35 319/898/35 317/899/35 334/900/35
f 345/901/48 298/902/45 299/903/45 346/904/48
f 301/887/36 338/837/36 340/840/36 303/888/36
f 350/845/35 352/848/35 324/896/35 323/895/35
f 324/905/38 352/906/47 351/907/47 321/908/38
f 302/909/16 337/910/16 338/911/16 301/912/16
f 351/872/36 347/913/36 345/914/36 349/873/36
f 326/915/36 335/916/36 336/917/36 328/918/36
f 331/853/35 327/919/35 325/920/35 329/854/35
f 332/921/19 328/922/19 327/923/19 331/924/19
f 330/775/36 332/778/36 305/839/36 306/838/36
f 108/925/29 354/926/24 355/927/24 107/928/29
f 105/929/28 356/930/21 353/931/21 106/932/28
