# Blender 5.0.1
# www.blender.org
mtllib ceiling_lamp_mp_1_on.mtl
o ceiling_lamp_mp_1_on
v -0.037143 -0.036921 -0.092404
v -0.090619 -0.036921 -0.038928
v 0.000670 -0.036921 0.097696
v 0.038483 -0.036921 0.090175
v 0.070540 -0.036921 0.068755
v 0.091959 -0.036921 0.036699
v 0.099481 -0.036921 -0.001115
v 0.000670 -0.036921 -0.108617
v -0.040470 -0.036921 -0.100434
v -0.075346 -0.036921 -0.077131
v -0.098650 -0.036921 -0.042254
v -0.106833 -0.036921 -0.001115
v -0.098650 -0.036921 0.040025
v -0.075346 -0.036921 0.074901
v -0.040470 -0.036921 0.098205
v 0.000670 -0.036921 0.106388
v 0.041809 -0.036921 0.098205
v 0.076686 -0.036921 0.074901
v 0.099990 -0.036921 0.040025
v 0.108173 -0.036921 -0.001115
v 0.099990 -0.036921 -0.042254
v 0.076686 -0.036921 -0.077131
v 0.041809 -0.036921 -0.100434
v 0.000670 -0.000001 -0.108617
v -0.040470 -0.000001 -0.100434
v -0.075346 -0.000001 -0.077131
v -0.098650 -0.000001 -0.042254
v -0.106833 -0.000001 -0.001115
v -0.098650 -0.000001 0.040025
v -0.075346 -0.000001 0.074901
v -0.040470 -0.000001 0.098205
v 0.000670 -0.000001 0.106388
v 0.041809 -0.000001 0.098205
v 0.076686 -0.000001 0.074901
v 0.099990 -0.000001 0.040025
v 0.108173 -0.000001 -0.001115
v 0.099990 -0.000001 -0.042254
v 0.076686 -0.000001 -0.077131
v 0.041809 -0.000001 -0.100434
v 0.000670 -0.036921 -0.099925
v -0.069200 -0.036921 -0.070984
v -0.098141 -0.036921 -0.001115
v -0.090619 -0.036921 0.036699
v -0.069200 -0.036921 0.068755
v -0.037143 -0.036921 0.090175
v 0.091959 -0.036921 -0.038928
v 0.070540 -0.036921 -0.070984
v 0.038483 -0.036921 -0.092404
v 0.000670 -0.061346 -0.049443
v -0.033504 -0.061347 -0.035288
v -0.047659 -0.061346 -0.001115
v -0.033504 -0.061346 0.033059
v 0.000670 -0.061346 0.047214
v 0.034844 -0.061346 0.033059
v 0.048999 -0.061346 -0.001115
v 0.034844 -0.061347 -0.035288
v -0.000002 -0.078167 -0.030522
v -0.021782 -0.078167 -0.021500
v -0.030804 -0.078167 0.000281
v -0.021782 -0.078167 0.022061
v -0.000002 -0.078167 0.031083
v 0.021779 -0.078167 0.022061
v 0.030801 -0.078167 0.000281
v 0.021779 -0.078167 -0.021500
v -0.000002 -0.061347 -0.030522
v -0.021782 -0.061347 -0.021500
v -0.030804 -0.061347 0.000281
v -0.021782 -0.061347 0.022061
v -0.000002 -0.061347 0.031083
v 0.021779 -0.061347 0.022061
v 0.030801 -0.061347 0.000281
v 0.021779 -0.061347 -0.021500
v -0.009499 -0.003800 0.103502
v -0.005699 0.000000 0.103502
v -0.005699 -0.011400 0.103502
v -0.009499 -0.007600 0.103502
v 0.005701 0.000000 0.103502
v 0.009501 -0.003800 0.103502
v 0.009501 -0.007600 0.103502
v 0.005701 -0.011400 0.103502
v 0.013501 0.000000 0.220000
v -0.013499 0.000000 0.220000
v 0.013501 0.000000 0.230000
v -0.013499 0.000000 0.230000
v 0.013501 -0.009000 0.220000
v 0.005501 -0.017000 0.220000
v -0.005499 -0.017000 0.220000
v -0.013499 -0.009000 0.220000
v 0.005501 -0.017000 0.230000
v 0.013501 -0.009000 0.230000
v -0.013499 -0.009000 0.230000
v -0.005499 -0.017000 0.230000
v 0.013501 0.000000 0.120000
v -0.013499 0.000000 0.120000
v 0.013501 0.000000 0.130000
v -0.013499 0.000000 0.130000
v 0.013501 -0.009000 0.120000
v 0.005501 -0.017000 0.120000
v -0.005499 -0.017000 0.120000
v -0.013499 -0.009000 0.120000
v 0.005501 -0.017000 0.130000
v 0.013501 -0.009000 0.130000
v -0.013499 -0.009000 0.130000
v -0.005499 -0.017000 0.130000
v -0.009499 -0.003800 0.323502
v -0.005699 0.000000 0.323502
v -0.005699 -0.011400 0.323502
v -0.009499 -0.007600 0.323502
v 0.005701 0.000000 0.323502
v 0.009501 -0.003800 0.323502
v 0.009501 -0.007600 0.323502
v 0.005701 -0.011400 0.323502
v -0.009499 -0.002498 0.330046
v -0.005699 0.001013 0.328592
v -0.005699 -0.009520 0.332955
v -0.009499 -0.006009 0.331500
v 0.005701 0.001013 0.328592
v 0.009501 -0.002498 0.330046
v 0.009501 -0.006009 0.331500
v 0.005701 -0.009520 0.332955
v -0.009499 0.001209 0.335594
v -0.005699 0.003896 0.332907
v -0.005699 -0.004165 0.340968
v -0.009499 -0.001478 0.338281
v 0.005701 0.003896 0.332907
v 0.009501 0.001209 0.335594
v 0.009501 -0.001478 0.338281
v 0.005701 -0.004165 0.340968
v -0.009499 0.006756 0.339301
v -0.005699 0.008211 0.335790
v -0.005699 0.003848 0.346322
v -0.009499 0.005302 0.342812
v 0.005701 0.008211 0.335790
v 0.009501 0.006756 0.339301
v 0.009501 0.005302 0.342812
v 0.005701 0.003848 0.346322
v -0.009499 0.013300 0.340603
v -0.005699 0.013300 0.336803
v -0.005699 0.013300 0.348202
v -0.009499 0.013300 0.344403
v 0.005701 0.013300 0.336803
v 0.009501 0.013300 0.340603
v 0.009501 0.013300 0.344403
v 0.005701 0.013300 0.348202
v 0.013501 0.000000 0.320000
v -0.013499 0.000000 0.320000
v 0.013501 0.000000 0.330000
v -0.013499 0.000000 0.330000
v 0.013501 -0.009000 0.320000
v 0.005501 -0.017000 0.320000
v -0.005499 -0.017000 0.320000
v -0.013499 -0.009000 0.320000
v 0.005501 -0.017000 0.330000
v 0.013501 -0.009000 0.330000
v -0.013499 -0.009000 0.330000
v -0.005499 -0.017000 0.330000
v 0.011634 -0.086182 -0.011401
v 0.012924 -0.098413 -0.012691
v 0.017222 -0.110682 -0.017012
v 0.022502 -0.110682 -0.009110
v 0.016454 -0.086182 0.000234
v 0.018278 -0.098413 0.000234
v 0.024356 -0.110682 0.000211
v 0.022502 -0.110682 0.009531
v 0.011634 -0.086182 0.011869
v 0.012924 -0.098413 0.013159
v 0.009333 -0.110682 0.022767
v -0.000001 -0.086182 0.016688
v -0.000001 -0.098413 0.018512
v -0.000001 -0.110682 0.024624
v -0.009334 -0.110682 0.022767
v -0.011636 -0.086182 0.011869
v -0.012925 -0.098413 0.013159
v -0.022503 -0.110682 0.009531
v -0.016455 -0.086182 0.000234
v -0.018279 -0.098413 0.000234
v -0.024357 -0.110682 0.000211
v -0.022503 -0.110682 -0.009110
v -0.011636 -0.086182 -0.011401
v -0.012925 -0.098413 -0.012691
v -0.017223 -0.110682 -0.017012
v -0.009321 -0.110682 -0.022292
v -0.000001 -0.086182 -0.016221
v -0.000001 -0.098413 -0.018044
v -0.000001 -0.086182 -0.019676
v 0.014078 -0.086182 -0.013845
v 0.019909 -0.086182 0.000234
v 0.017918 -0.078367 0.000234
v 0.014078 -0.086182 0.014312
v 0.012670 -0.078367 0.012904
v -0.000001 -0.086182 0.020144
v -0.000001 -0.078367 0.018153
v -0.014079 -0.086182 0.014312
v -0.012671 -0.078367 0.012904
v -0.019910 -0.086182 0.000234
v -0.017919 -0.078367 0.000234
v -0.014079 -0.086182 -0.013845
v -0.012671 -0.078367 -0.012437
v -0.000001 -0.078367 -0.017685
v 0.012670 -0.078367 -0.012437
v -0.000000 -0.121841 -0.031593
v -0.000000 -0.135005 -0.034211
v -0.000000 -0.148168 -0.031593
v -0.000000 -0.166785 -0.012976
v 0.009320 -0.110682 -0.022292
v 0.012161 -0.121841 -0.029173
v 0.013163 -0.135005 -0.031593
v 0.012161 -0.148168 -0.029173
v 0.009308 -0.159328 -0.022284
v 0.022471 -0.121841 -0.022284
v 0.024323 -0.135005 -0.024136
v 0.022471 -0.148168 -0.022284
v 0.017199 -0.159328 -0.017012
v 0.009308 -0.166785 -0.009121
v 0.029360 -0.121841 -0.011974
v 0.031779 -0.135005 -0.012976
v 0.029360 -0.148168 -0.011974
v 0.022471 -0.159328 -0.009121
v 0.031779 -0.121841 0.000187
v 0.034398 -0.135005 0.000187
v 0.031779 -0.148169 0.000187
v 0.024323 -0.159328 0.000187
v 0.013163 -0.166785 0.000187
v 0.029360 -0.121841 0.012349
v 0.031779 -0.135005 0.013351
v 0.029360 -0.148169 0.012349
v 0.022471 -0.159328 0.009495
v 0.017245 -0.110682 0.017480
v 0.022471 -0.121841 0.022659
v 0.024323 -0.135005 0.024510
v 0.022471 -0.148169 0.022659
v 0.017199 -0.159328 0.017386
v 0.009308 -0.166785 0.009495
v 0.012161 -0.121841 0.029548
v 0.013163 -0.135005 0.031967
v 0.012161 -0.148169 0.029548
v 0.009308 -0.159328 0.022659
v -0.000000 -0.121841 0.031967
v -0.000000 -0.135005 0.034585
v -0.000000 -0.148169 0.031967
v -0.000000 -0.159328 0.024510
v -0.000000 -0.166785 0.013351
v -0.000000 -0.169403 0.000187
v -0.012162 -0.121841 0.029548
v -0.013164 -0.135005 0.031967
v -0.012162 -0.148169 0.029548
v -0.009309 -0.159328 0.022659
v -0.022472 -0.121841 0.022659
v -0.024324 -0.135005 0.024510
v -0.022472 -0.148169 0.022659
v -0.017199 -0.159328 0.017386
v -0.009309 -0.166785 0.009495
v -0.029361 -0.121841 0.012349
v -0.031780 -0.135005 0.013351
v -0.029361 -0.148169 0.012349
v -0.022472 -0.159328 0.009495
v -0.031780 -0.121841 0.000187
v -0.034398 -0.135005 0.000187
v -0.031780 -0.148169 0.000187
v -0.024324 -0.159328 0.000187
v -0.013164 -0.166785 0.000187
v -0.029361 -0.121841 -0.011974
v -0.031780 -0.135005 -0.012976
v -0.029361 -0.148168 -0.011974
v -0.022472 -0.159328 -0.009121
v -0.022472 -0.121841 -0.022284
v -0.024324 -0.135005 -0.024136
v -0.022472 -0.148168 -0.022284
v -0.017199 -0.159328 -0.017012
v -0.009309 -0.166785 -0.009121
v -0.012162 -0.121841 -0.029173
v -0.013164 -0.135005 -0.031592
v -0.012162 -0.148168 -0.029173
v -0.009308 -0.159328 -0.022284
v -0.000000 -0.110682 -0.024136
v -0.000000 -0.159328 -0.024136
v -0.017199 -0.110682 0.017386
vn -0.3827 -0.0000 0.9239
vn -0.0000 -0.0000 1.0000
vn -0.0000 -1.0000 -0.0000
vn -0.7071 -0.0000 -0.7071
vn -0.9239 -0.0000 -0.3827
vn 0.3827 -0.0000 0.9239
vn -0.0000 -0.0000 -1.0000
vn -0.3827 -0.0000 -0.9239
vn -0.9239 -0.0000 0.3827
vn -0.7071 -0.0000 0.7071
vn 1.0000 -0.0000 -0.0000
vn 0.9239 -0.0000 -0.3827
vn 0.7071 -0.0000 -0.7071
vn -1.0000 -0.0000 -0.0000
vn 0.9239 -0.0000 0.3827
vn 0.7071 -0.0000 0.7071
vn 0.3827 -0.0000 -0.9239
vn 0.1179 -0.9714 -0.2059
vn 0.0350 -0.9545 -0.2960
vn 0.2376 -0.7839 -0.5737
vn 0.2290 -0.9714 -0.0622
vn 0.5737 -0.7839 -0.2376
vn -0.2059 -0.9714 -0.1179
vn -0.3039 -0.9518 -0.0416
vn -0.5737 -0.7839 -0.2376
vn 0.5737 -0.7839 0.2376
vn 0.6539 -0.7565 -0.0000
vn 0.4624 -0.7566 0.4624
vn 0.2444 -0.9518 0.1855
vn -0.0000 -0.9514 0.3078
vn -0.0000 -0.7566 0.6539
vn -0.2376 -0.7839 0.5737
vn -0.2376 -0.7839 -0.5737
vn -0.2444 -0.9518 0.1855
vn -0.5737 -0.7839 0.2376
vn -0.4624 -0.7565 0.4624
vn 0.4624 -0.7565 -0.4624
vn 0.2376 -0.7839 0.5737
vn -0.0000 -0.7565 -0.6539
vn -0.4624 -0.7565 -0.4624
vn -0.6539 -0.7566 -0.0000
vn -0.9149 -0.3633 -0.1762
vn -0.9148 -0.4019 0.0415
vn -0.9318 0.3613 -0.0341
vn -0.9149 0.3633 -0.1762
vn 0.8995 -0.3947 0.1871
vn 0.9148 -0.4019 0.0415
vn 0.3735 -0.9233 0.0894
vn 0.3383 -0.9390 0.0619
vn -0.7052 0.7052 -0.0728
vn -0.6987 0.6987 -0.1534
vn -0.3735 -0.9233 0.0894
vn -0.4178 -0.9039 -0.0917
vn 0.7013 0.7013 0.1284
vn 0.7052 0.7052 -0.0728
vn 0.9318 0.3613 -0.0341
vn 0.8996 0.3947 0.1871
vn 0.3827 -0.9239 -0.0000
vn -0.3827 -0.9239 -0.0000
vn -0.9239 -0.3827 -0.0000
vn 0.9239 -0.3827 -0.0000
vn -0.9403 0.3145 -0.1303
vn -0.9403 0.2407 -0.2407
vn -0.7071 0.5000 -0.5000
vn -0.7071 0.6533 -0.2706
vn 0.7071 0.6533 -0.2706
vn 0.9403 0.3145 -0.1303
vn -0.3668 -0.8595 0.3560
vn -0.9066 -0.3899 0.1615
vn 0.9066 -0.3899 0.1615
vn 0.3668 -0.8595 0.3560
vn 0.9403 0.2407 -0.2407
vn 0.9403 0.1303 -0.3145
vn 0.9066 -0.1615 0.3899
vn 0.9066 -0.2984 0.2984
vn 0.3668 -0.6578 0.6578
vn -0.3668 -0.6578 0.6578
vn 0.7071 0.5000 -0.5000
vn -0.9066 -0.2984 0.2984
vn -0.3668 -0.3560 0.8595
vn -0.3607 -0.1820 0.9148
vn -0.9034 -0.0836 0.4205
vn -0.9066 -0.1615 0.3899
vn -0.9403 0.1303 -0.3145
vn 0.3668 -0.3560 0.8595
vn -0.7071 0.2706 -0.6533
vn 0.7071 0.2706 -0.6533
vn 0.9381 0.0676 -0.3397
vn 0.9034 -0.0836 0.4205
vn -0.9381 0.0676 -0.3397
vn 0.3607 -0.1819 0.9148
vn -0.7002 0.1393 -0.7002
vn 0.7002 0.1393 -0.7002
vn 0.6106 0.5043 -0.6106
vn 0.3277 0.5154 -0.7918
vn 0.6617 0.3531 -0.6615
vn -0.0000 0.3531 -0.9356
vn -0.3277 0.5154 -0.7918
vn -0.6617 0.3531 -0.6615
vn 0.8641 0.5033 -0.0000
vn 0.7921 0.5147 -0.3281
vn 0.9358 0.3525 0.0002
vn 0.6994 0.1475 -0.6994
vn 0.9891 0.1475 -0.0000
vn 0.7931 0.5137 0.3273
vn -0.0000 0.3536 0.9354
vn 0.6619 0.3532 0.6612
vn 0.6994 0.1475 0.6994
vn -0.0000 0.1475 0.9891
vn -0.0000 0.5019 0.8649
vn 0.3284 0.5129 0.7931
vn -0.9358 0.3525 0.0002
vn -0.6622 0.3519 0.6615
vn -0.6994 0.1475 0.6994
vn -0.9891 0.1475 -0.0000
vn -0.8641 0.5033 -0.0000
vn -0.7921 0.5139 0.3294
vn -0.3308 0.5131 0.7920
vn -0.6994 0.1475 -0.6994
vn -0.0000 0.1475 -0.9891
vn -0.7921 0.5147 -0.3281
vn -0.0000 0.5045 -0.8634
vn 0.6852 0.2469 0.6852
vn 0.9690 0.2469 -0.0000
vn -0.0000 0.2469 -0.9690
vn -0.6852 0.2469 -0.6852
vn 0.6852 0.2469 -0.6852
vn -0.9690 0.2469 -0.0000
vn -0.6852 0.2469 0.6852
vn -0.0000 0.2469 0.9690
vn -0.6106 0.5043 -0.6106
vn -0.6133 0.5011 0.6105
vn 0.6122 0.5027 0.6103
vn -0.0000 -0.3744 -0.9273
vn 0.3549 -0.3744 -0.8567
vn -0.0000 0.3742 -0.9273
vn 0.3548 0.3741 -0.8568
vn 0.2807 -0.9179 -0.2807
vn 0.6614 -0.6982 -0.2739
vn 0.3969 -0.9179 -0.0000
vn -0.0000 -0.6952 -0.7189
vn 0.2739 -0.6982 -0.6614
vn 0.6557 -0.3744 -0.6557
vn 0.5083 -0.6952 -0.5083
vn 0.6558 0.3739 -0.6559
vn -0.0000 -0.9179 -0.3969
vn 0.8567 -0.3744 -0.3549
vn 0.8569 0.3737 -0.3550
vn 0.2807 -0.9179 0.2807
vn 0.9273 -0.3744 -0.0000
vn 0.9276 0.3735 -0.0001
vn 0.7189 -0.6952 -0.0000
vn 0.8567 -0.3744 0.3549
vn 0.8574 0.3729 0.3547
vn 0.6614 -0.6982 0.2739
vn 0.6557 -0.3744 0.6557
vn 0.5083 -0.6952 0.5083
vn 0.6567 0.3720 0.6560
vn 0.2739 -0.6982 0.6614
vn -0.0000 -0.9179 0.3969
vn 0.3554 0.3714 0.8578
vn 0.3549 -0.3744 0.8567
vn -0.2807 -0.9179 0.2807
vn -0.0000 -0.3744 0.9273
vn -0.0000 0.3713 0.9285
vn -0.0000 -0.6952 0.7189
vn -0.3561 0.3722 0.8571
vn -0.2739 -0.6982 0.6614
vn -0.3549 -0.3744 0.8567
vn -0.6557 -0.3744 0.6557
vn -0.5083 -0.6952 0.5083
vn -0.6564 0.3732 0.6557
vn -0.6614 -0.6982 0.2739
vn -0.3969 -0.9179 -0.0000
vn -0.8567 -0.3744 0.3549
vn -0.8569 0.3736 0.3553
vn -0.2807 -0.9179 -0.2807
vn -0.9273 -0.3744 -0.0000
vn -0.9276 0.3735 -0.0001
vn -0.7189 -0.6952 -0.0000
vn -0.6614 -0.6982 -0.2739
vn -0.8567 -0.3744 -0.3549
vn -0.8569 0.3737 -0.3550
vn -0.6557 -0.3744 -0.6557
vn -0.5083 -0.6952 -0.5083
vn -0.6558 0.3739 -0.6559
vn -0.2739 -0.6982 -0.6614
vn -0.3549 -0.3744 -0.8567
vn -0.3548 0.3741 -0.8568
vt 0.222656 0.054688
vt 0.222656 0.148438
vt 0.171875 0.148438
vt 0.171875 0.054688
vt 0.264974 0.370834
vt 0.256123 0.460894
vt 0.245666 0.460894
vt 0.255295 0.362915
vt 0.640371 0.369258
vt 0.666308 0.292350
vt 0.658946 0.277498
vt 0.630727 0.361171
vt 0.750519 0.223448
vt 0.795971 0.241943
vt 0.800015 0.222656
vt 0.750564 0.202534
vt 0.834425 0.293818
vt 0.841852 0.279094
vt 0.860026 0.371175
vt 0.869705 0.363256
vt 0.868877 0.460552
vt 0.879334 0.460552
vt 0.493877 0.460894
vt 0.484629 0.368917
vt 0.494273 0.360829
vt 0.504334 0.460894
vt 0.458692 0.292009
vt 0.466054 0.277156
vt 0.420013 0.240807
vt 0.423972 0.221450
vt 0.374481 0.223106
vt 0.374436 0.202192
vt 0.329028 0.241601
vt 0.324985 0.222314
vt 0.290575 0.293476
vt 0.283148 0.278753
vt 0.704987 0.241149
vt 0.701028 0.221792
vt 0.631123 0.460552
vt 0.620666 0.460552
vt 0.476562 0.054688
vt 0.476562 0.148438
vt 0.425781 0.148438
vt 0.425781 0.054688
vt 0.578125 0.054688
vt 0.578125 0.148438
vt 0.527344 0.148438
vt 0.527344 0.054688
vt 0.324219 0.054688
vt 0.324219 0.148438
vt 0.273438 0.148438
vt 0.273438 0.054688
vt 0.375000 0.054688
vt 0.375000 0.148438
vt 0.335239 0.383336
vt 0.319438 0.460894
vt 0.260255 0.367736
vt 0.374325 0.349737
vt 0.326752 0.232473
vt 0.711173 0.381450
vt 0.750675 0.349770
vt 0.703269 0.231269
vt 0.421755 0.231112
vt 0.374181 0.212648
vt 0.462147 0.284429
vt 0.413884 0.381504
vt 0.805518 0.460552
vt 0.873794 0.460552
vt 0.864901 0.367906
vt 0.694438 0.460552
vt 0.635856 0.364808
vt 0.789662 0.383318
vt 0.798289 0.232739
vt 0.838186 0.287426
vt 0.286777 0.286949
vt 0.489326 0.364447
vt 0.498794 0.460894
vt 0.430518 0.460894
vt 0.251158 0.460894
vt 0.316406 0.546875
vt 0.316406 0.500000
vt 0.289062 0.500000
vt 0.289062 0.546875
vt 0.347656 0.546875
vt 0.347656 0.500000
vt 0.492188 0.546875
vt 0.492188 0.500000
vt 0.460938 0.500000
vt 0.460938 0.546875
vt 0.051310 0.470484
vt 0.023492 0.459417
vt 0.007734 0.412251
vt 0.013267 0.356615
vt 0.036851 0.325100
vt 0.064669 0.336166
vt 0.080426 0.383332
vt 0.074893 0.438969
vt 0.402344 0.546875
vt 0.402344 0.500000
vt 0.375000 0.500000
vt 0.375000 0.546875
vt 0.433594 0.500000
vt 0.433594 0.546875
vt 0.257812 0.500000
vt 0.257812 0.546875
vt 0.662910 0.284695
vt 0.626158 0.460552
vt 0.750858 0.212793
vt 0.182349 0.200000
vt 0.182349 0.461397
vt 0.177964 0.461397
vt 0.177964 0.200000
vt 0.207904 0.200000
vt 0.207904 0.461397
vt 0.201703 0.461397
vt 0.201703 0.200000
vt 0.171763 0.461397
vt 0.171763 0.200000
vt 0.188549 0.461397
vt 0.188549 0.200000
vt 0.218489 0.200000
vt 0.218489 0.461397
vt 0.212289 0.461397
vt 0.212289 0.200000
vt 0.468750 0.421875
vt 0.468750 0.416016
vt 0.474609 0.416016
vt 0.474609 0.421875
vt 0.468750 0.404297
vt 0.474609 0.404297
vt 0.474609 0.410156
vt 0.468750 0.410156
vt 0.519283 0.446638
vt 0.523540 0.450896
vt 0.523540 0.456750
vt 0.519283 0.461008
vt 0.514493 0.461008
vt 0.514493 0.446638
vt 0.505444 0.446638
vt 0.505444 0.461008
vt 0.500654 0.461008
vt 0.496396 0.456750
vt 0.496396 0.450896
vt 0.500654 0.446638
vt 0.474609 0.427734
vt 0.468750 0.427734
vt 0.474609 0.431641
vt 0.468750 0.431641
vt 0.480469 0.416016
vt 0.480469 0.421875
vt 0.480469 0.404297
vt 0.480469 0.410156
vt 0.473510 0.461008
vt 0.469252 0.456750
vt 0.469252 0.450896
vt 0.473510 0.446638
vt 0.478300 0.446638
vt 0.478300 0.461008
vt 0.519283 0.404789
vt 0.519283 0.419160
vt 0.514493 0.419160
vt 0.510235 0.414902
vt 0.510235 0.409047
vt 0.514493 0.404789
vt 0.480469 0.427734
vt 0.480469 0.431641
vt 0.339188 0.382007
vt 0.347993 0.381571
vt 0.347915 0.388941
vt 0.340116 0.389513
vt 0.335015 0.341883
vt 0.341340 0.343710
vt 0.340120 0.350258
vt 0.332237 0.348110
vt 0.327716 0.371930
vt 0.338437 0.371651
vt 0.338716 0.377414
vt 0.328833 0.378621
vt 0.339434 0.354480
vt 0.330262 0.352523
vt 0.330218 0.383618
vt 0.338788 0.359984
vt 0.328366 0.358831
vt 0.332388 0.391151
vt 0.348142 0.350897
vt 0.356203 0.350224
vt 0.356890 0.354486
vt 0.348138 0.355056
vt 0.348166 0.360352
vt 0.348106 0.371598
vt 0.348082 0.344244
vt 0.347993 0.377133
vt 0.357846 0.371762
vt 0.368907 0.372177
vt 0.367322 0.379168
vt 0.357331 0.377585
vt 0.356722 0.382180
vt 0.357598 0.359986
vt 0.355499 0.389438
vt 0.354874 0.343632
vt 0.364189 0.348007
vt 0.366242 0.352485
vt 0.365429 0.384150
vt 0.368198 0.358810
vt 0.362649 0.391151
vt 0.361325 0.341725
vt 0.503906 0.421875
vt 0.503906 0.416016
vt 0.509766 0.416016
vt 0.509766 0.421875
vt 0.503906 0.404297
vt 0.509766 0.404297
vt 0.509766 0.410156
vt 0.503906 0.410156
vt 0.482558 0.461008
vt 0.478300 0.456750
vt 0.478300 0.450896
vt 0.482558 0.446638
vt 0.487348 0.446638
vt 0.487348 0.461008
vt 0.528331 0.404789
vt 0.528331 0.419160
vt 0.523541 0.419160
vt 0.519283 0.414902
vt 0.519283 0.409047
vt 0.523541 0.404789
vt 0.509766 0.427734
vt 0.503906 0.427734
vt 0.509766 0.431641
vt 0.503906 0.431641
vt 0.199910 0.434754
vt 0.199910 0.400410
vt 0.283702 0.434748
vt 0.283700 0.366062
vt 0.199910 0.331723
vt 0.283702 0.297248
vt 0.199910 0.503441
vt 0.199910 0.469098
vt 0.283711 0.503435
vt 0.326538 0.434754
vt 0.326538 0.503441
vt 0.199910 0.537785
vt 0.283692 0.640821
vt 0.283700 0.572129
vt 0.326538 0.572129
vt 0.326538 0.640816
vt 0.199910 0.640816
vt 0.199910 0.606472
vt 0.283716 0.781422
vt 0.283722 0.709643
vt 0.326538 0.709503
vt 0.326538 0.781422
vt 0.199910 0.780493
vt 0.199910 0.743542
vt 0.199910 0.675160
vt 0.326538 0.297379
vt 0.326538 0.366067
vt 0.199910 0.263341
vt 0.283708 0.225474
vt 0.199910 0.366067
vt 0.275851 0.278020
vt 0.262975 0.303916
vt 0.258396 0.300153
vt 0.273944 0.268883
vt 0.275974 0.366190
vt 0.294235 0.366089
vt 0.296142 0.375225
vt 0.274092 0.375348
vt 0.307060 0.303671
vt 0.294112 0.277918
vt 0.295994 0.268761
vt 0.311628 0.299857
vt 0.371094 0.539062
vt 0.394531 0.539062
vt 0.394531 0.562500
vt 0.371094 0.562500
vt 0.253906 0.539062
vt 0.277344 0.539062
vt 0.277344 0.562500
vt 0.253906 0.562500
vt 0.417969 0.539062
vt 0.441406 0.539062
vt 0.441406 0.562500
vt 0.417969 0.562500
vt 0.300781 0.539062
vt 0.324219 0.539062
vt 0.324219 0.562500
vt 0.300781 0.562500
vt 0.347656 0.539062
vt 0.347656 0.562500
vt 0.311690 0.343956
vt 0.307111 0.340192
vt 0.263026 0.340437
vt 0.258457 0.344252
vt 0.326538 0.225474
vt 0.326538 0.503441
vt 0.199910 0.297377
vt 0.199910 0.226404
vt 0.199910 0.709506
vt 0.199910 0.572129
vt 0.897531 0.366067
vt 0.971246 0.366067
vt 0.971246 0.400410
vt 0.897531 0.400410
vt 0.126195 0.366067
vt 0.199910 0.366067
vt 0.199910 0.400410
vt 0.126195 0.400410
vt 0.750101 0.434754
vt 0.823816 0.469098
vt 0.750101 0.503441
vt 0.823816 0.366067
vt 0.823816 0.400410
vt 0.077196 0.366067
vt 0.077196 0.400410
vt 0.897531 0.434754
vt 0.823816 0.434754
vt 0.126195 0.434754
vt 0.077196 0.434754
vt 0.750100 0.366067
vt 0.676385 0.400410
vt 0.971246 0.434754
vt 0.199910 0.434754
vt 0.897531 0.469098
vt 0.126195 0.469098
vt 0.077196 0.469098
vt 0.971246 0.469098
vt 0.199910 0.469098
vt 0.750101 0.572129
vt 0.676385 0.537785
vt 0.676385 0.469098
vt 0.971246 0.503441
vt 0.897531 0.503441
vt 0.199910 0.503441
vt 0.126195 0.503441
vt 0.823816 0.503441
vt 0.077196 0.503441
vt 0.971246 0.537785
vt 0.897531 0.537785
vt 0.199910 0.537785
vt 0.126195 0.537785
vt 0.823816 0.537785
vt 0.077196 0.537785
vt 0.897531 0.572129
vt 0.823816 0.572129
vt 0.126195 0.572129
vt 0.077196 0.572129
vt 0.823816 0.606472
vt 0.750101 0.640816
vt 0.971246 0.572129
vt 0.199910 0.572129
vt 0.126195 0.606472
vt 0.077196 0.606472
vt 0.676385 0.606472
vt 0.971246 0.606472
vt 0.897531 0.606472
vt 0.199910 0.606472
vt 0.750101 0.709503
vt 0.676385 0.675160
vt 0.971246 0.640816
vt 0.897531 0.640816
vt 0.199910 0.640816
vt 0.126195 0.640816
vt 0.823816 0.640816
vt 0.077196 0.640816
vt 0.199910 0.675160
vt 0.126195 0.675160
vt 0.823816 0.675160
vt 0.897531 0.675160
vt 0.077196 0.675160
vt 0.971246 0.675160
vt 0.897531 0.709503
vt 0.823816 0.709503
vt 0.126195 0.709503
vt 0.077196 0.709503
vt 0.823816 0.743847
vt 0.750101 0.778191
vt 0.971246 0.709503
vt 0.199910 0.709503
vt 0.971246 0.743847
vt 0.897531 0.743847
vt 0.199910 0.743847
vt 0.126195 0.743847
vt 0.750100 0.228692
vt 0.750100 0.297379
vt 0.676385 0.263036
vt 0.077196 0.743847
vt 0.676385 0.743847
vt 0.971246 0.778191
vt 0.897531 0.778191
vt 0.199910 0.778191
vt 0.126195 0.778191
vt 0.823816 0.778191
vt 0.077196 0.778191
vt 0.823816 0.263036
vt 0.823816 0.228692
vt 0.897531 0.228692
vt 0.897531 0.263036
vt 0.077196 0.228692
vt 0.126195 0.228692
vt 0.126195 0.263036
vt 0.077196 0.263036
vt 0.971246 0.228692
vt 0.971246 0.263036
vt 0.199910 0.228692
vt 0.199910 0.263036
vt 0.897531 0.297379
vt 0.823816 0.297379
vt 0.126195 0.297379
vt 0.077196 0.297379
vt 0.823816 0.331723
vt 0.971246 0.297379
vt 0.199910 0.297379
vt 0.971246 0.331723
vt 0.897531 0.331723
vt 0.199910 0.331723
vt 0.126195 0.331723
vt 0.077196 0.331723
vt 0.676385 0.331723
s 1
usemtl lamp_1_on_yellow
f 159/231/94 205/232/95 158/233/96
f 184/234/97 182/235/98 180/236/99
f 158/233/96 205/232/95 184/234/97
f 163/237/100 160/238/101 162/239/102
f 157/240/103 161/241/104 162/239/102 158/233/96
f 164/242/105 163/237/100 162/239/102
f 169/243/106 166/244/107 165/245/108 168/246/109
f 170/247/110 167/248/111 169/243/106
f 162/239/102 166/244/107 164/242/105
f 166/244/107 169/243/106 167/248/111
f 176/249/112 173/250/113 172/251/114 175/252/115
f 177/253/116 174/254/117 176/249/112
f 173/250/113 171/255/118 169/243/106
f 173/250/113 176/249/112 174/254/117
f 184/234/97 180/236/99 179/256/119 183/257/120
f 180/236/99 178/258/121 176/259/112
f 275/260/122 182/235/98 184/234/97
f 205/232/95 275/260/122 184/234/97
f 158/233/96 184/234/97 183/257/120 157/240/103
f 175/295/115 179/256/119 180/236/99 176/259/112
f 168/246/109 172/251/114 173/250/113 169/243/106
f 161/296/104 165/245/108 166/244/107 162/239/102
f 158/233/96 162/239/102 160/238/101
f 180/236/99 182/235/98 181/297/131
f 176/259/112 178/258/121 177/298/116
f 178/258/121 180/236/99 181/297/131
f 174/254/117 277/299/132 173/250/113
f 169/243/106 171/255/118 170/247/110
f 167/248/111 228/300/133 166/244/107
f 171/255/118 173/250/113 277/299/132
f 164/242/105 166/244/107 228/300/133
f 160/238/101 159/231/94 158/233/96
f 203/301/134 202/302/7 207/303/17 208/304/135
f 201/305/136 275/306/122 205/307/95 206/308/137
f 214/309/138 218/310/139 223/311/140
f 276/312/141 203/301/134 208/304/135 209/313/142
f 202/314/7 201/305/136 206/308/137 207/315/17
f 209/313/142 208/304/135 212/316/143 213/317/144
f 207/315/17 206/308/137 210/318/145 211/319/13
f 204/320/146 214/309/138 243/321/3
f 208/304/135 207/303/17 211/322/13 212/316/143
f 206/308/137 205/307/95 159/323/94 210/318/145
f 213/317/144 212/316/143 217/324/147 218/310/139
f 211/319/13 210/318/145 215/325/148 216/326/12
f 212/316/143 211/322/13 216/327/12 217/324/147
f 210/318/145 159/323/94 160/328/101 215/325/148
f 223/311/140 233/329/149 243/330/3
f 214/309/138 223/311/140 243/331/3
f 217/324/147 216/327/12 220/332/11 221/333/150
f 215/325/148 160/328/101 163/334/100 219/335/151
f 218/310/139 217/324/147 221/333/150 222/336/152
f 216/326/12 215/325/148 219/335/151 220/337/11
f 221/333/150 220/332/11 225/338/15 226/339/153
f 219/335/151 163/334/100 164/340/105 224/341/154
f 223/311/140 227/342/155 233/329/149
f 222/336/152 221/333/150 226/339/153 227/342/155
f 220/337/11 219/335/151 224/341/154 225/343/15
f 223/311/140 222/336/152 227/342/155
f 227/342/155 226/339/153 231/344/156 232/345/157
f 225/343/15 224/341/154 229/346/158 230/347/16
f 237/348/159 242/349/160 233/329/149
f 226/339/153 225/338/15 230/350/16 231/344/156
f 224/341/154 164/340/105 228/351/133 229/346/158
f 230/347/16 229/346/158 234/352/161 235/353/6
f 233/329/149 242/349/160 243/354/3
f 231/344/156 230/350/16 235/355/6 236/356/162
f 229/346/158 228/351/133 167/357/111 234/352/161
f 242/349/160 252/358/163 243/359/3
f 232/345/157 231/344/156 236/356/162 237/348/159
f 236/356/162 235/355/6 239/360/2 240/361/164
f 234/352/161 167/357/111 170/362/110 238/363/165
f 237/348/159 236/356/162 240/361/164 241/364/166
f 235/353/6 234/352/161 238/363/165 239/365/2
f 238/363/165 170/362/110 171/366/118 244/367/167
f 242/349/160 247/368/168 252/358/163
f 241/364/166 240/361/164 246/369/169 247/368/168
f 239/365/2 238/363/165 244/367/167 245/370/1
f 242/349/160 241/364/166 247/368/168
f 240/361/164 239/360/2 245/371/1 246/369/169
f 247/368/168 246/369/169 250/372/170 251/373/171
f 245/370/1 244/367/167 248/374/172 249/375/10
f 252/358/163 256/376/173 261/377/174
f 246/369/169 245/371/1 249/378/10 250/372/170
f 244/367/167 171/366/118 277/379/132 248/374/172
f 250/372/170 249/378/10 254/380/9 255/381/175
f 248/374/172 277/379/132 174/382/117 253/383/176
f 261/384/174 270/385/177 243/386/3
f 251/373/171 250/372/170 255/381/175 256/376/173
f 249/375/10 248/374/172 253/383/176 254/387/9
f 252/358/163 261/377/174 243/388/3
f 255/381/175 254/380/9 258/389/14 259/390/178
f 253/383/176 174/382/117 177/391/116 257/392/179
f 256/376/173 255/381/175 259/390/178 260/393/180
f 254/387/9 253/383/176 257/392/179 258/394/14
f 261/384/174 265/395/181 270/385/177
f 260/396/180 259/397/178 264/398/182 265/395/181
f 258/399/14 257/400/179 262/401/183 263/402/5
f 261/384/174 260/396/180 265/395/181
f 259/397/178 258/403/14 263/404/5 264/398/182
f 257/400/179 177/405/116 178/406/121 262/401/183
f 265/395/181 264/398/182 268/407/184 269/408/185
f 263/402/5 262/401/183 266/409/186 267/410/4
f 270/385/177 274/411/187 204/320/146
f 264/398/182 263/404/5 267/412/4 268/407/184
f 262/401/183 178/406/121 181/413/131 266/409/186
f 268/407/184 267/412/4 272/414/8 273/415/188
f 266/409/186 181/413/131 182/416/98 271/417/189
f 269/408/185 268/407/184 273/415/188 274/411/187
f 267/410/4 266/409/186 271/417/189 272/418/8
f 273/415/188 272/414/8 202/302/7 203/301/134
f 271/417/189 182/416/98 275/306/122 201/305/136
f 274/411/187 273/415/188 203/301/134 276/312/141
f 272/418/8 271/417/189 201/305/136 202/314/7
f 270/385/177 204/320/146 243/419/3
f 204/320/146 209/313/142 214/309/138
f 214/309/138 209/313/142 213/317/144
f 209/313/142 204/320/146 276/312/141
f 204/320/146 274/411/187 276/312/141
f 274/411/187 270/385/177 269/408/185
f 261/377/174 256/376/173 260/393/180
f 270/385/177 265/395/181 269/408/185
f 256/376/173 252/358/163 251/373/171
f 252/358/163 247/368/168 251/373/171
f 237/348/159 233/329/149 232/345/157
f 242/349/160 237/348/159 241/364/166
f 223/311/140 218/310/139 222/336/152
f 218/310/139 214/309/138 213/317/144
f 233/329/149 227/342/155 232/345/157
usemtl lamp_3_off
f 31/1/1 15/2/1 16/3/2 32/4/2
f 6/5/3 7/6/3 20/7/3 19/8/3
f 46/9/3 47/10/3 22/11/3 21/12/3
f 40/13/3 1/14/3 9/15/3 8/16/3
f 1/14/3 41/17/3 10/18/3 9/15/3
f 41/17/3 2/19/3 11/20/3 10/18/3
f 2/19/3 42/21/3 12/22/3 11/20/3
f 42/23/3 43/24/3 13/25/3 12/26/3
f 43/24/3 44/27/3 14/28/3 13/25/3
f 44/27/3 45/29/3 15/30/3 14/28/3
f 45/29/3 3/31/3 16/32/3 15/30/3
f 3/31/3 4/33/3 17/34/3 16/32/3
f 4/33/3 5/35/3 18/36/3 17/34/3
f 5/35/3 6/5/3 19/8/3 18/36/3
f 48/37/3 40/13/3 8/16/3 23/38/3
f 7/39/3 46/9/3 21/12/3 20/40/3
f 47/10/3 48/37/3 23/38/3 22/11/3
f 26/41/4 10/42/4 11/43/5 27/44/5
f 32/45/2 16/46/2 17/47/6 33/48/6
f 24/45/7 8/46/7 9/47/8 25/48/8
f 29/49/9 13/50/9 14/51/10 30/52/10
f 36/53/11 20/54/11 21/50/12 37/49/12
f 30/52/10 14/51/10 15/2/1 31/1/1
f 37/49/12 21/50/12 22/51/13 38/52/13
f 28/53/14 12/54/14 13/50/9 29/49/9
f 35/44/15 19/43/15 20/54/11 36/53/11
f 34/41/16 18/42/16 19/43/15 35/44/15
f 27/44/5 11/43/5 12/54/14 28/53/14
f 33/48/6 17/47/6 18/42/16 34/41/16
f 38/52/13 22/51/13 23/2/17 39/1/17
f 39/1/17 23/2/17 8/3/7 24/4/7
f 25/48/8 9/47/8 10/42/4 26/41/4
f 56/55/18 49/56/19 48/57/20
f 55/58/21 56/55/18 46/59/22
f 50/60/23 51/61/24 2/62/25
f 6/63/26 55/58/21 7/64/27
f 6/63/26 5/65/28 54/66/29
f 53/67/30 3/68/31 45/69/32
f 49/70/19 50/60/23 1/71/33
f 51/61/24 52/72/34 43/73/35
f 45/69/32 44/74/36 52/72/34
f 54/66/29 55/58/21 6/63/26
f 48/57/20 47/75/37 56/55/18
f 4/76/38 3/77/31 53/78/30
f 52/72/34 53/67/30 45/69/32
f 54/66/29 5/65/28 4/76/38
f 49/56/19 56/55/18 55/58/21 54/66/29 53/78/30
f 48/57/20 49/56/19 40/79/39
f 71/80/11 63/81/11 64/82/13 72/83/13
f 70/84/16 62/85/16 63/81/11 71/80/11
f 65/86/7 57/87/7 58/88/4 66/89/4
f 64/90/3 63/91/3 62/92/3 61/93/3 60/94/3 59/95/3 58/96/3 57/97/3
f 68/98/10 60/99/10 61/100/2 69/101/2
f 69/101/2 61/100/2 62/85/16 70/84/16
f 58/88/4 59/102/14 67/103/14 66/89/4
f 59/102/14 60/99/10 68/98/10 67/103/14
f 72/83/13 64/82/13 57/104/7 65/105/7
f 53/78/30 54/66/29 4/76/38
f 46/59/22 7/64/27 55/58/21
f 46/59/22 56/55/18 47/75/37
f 1/71/33 50/60/23 41/106/40
f 1/71/33 40/107/39 49/70/19
f 43/73/35 52/72/34 44/74/36
f 43/73/35 42/108/41 51/61/24
f 2/62/25 51/61/24 42/108/41
f 2/62/25 41/106/40 50/60/23
f 50/60/23 49/70/19 53/67/30 52/72/34 51/61/24
f 183/261/3 179/262/3 197/263/3 185/264/3
f 172/265/3 168/266/3 191/267/3 193/268/3
f 161/269/3 157/270/3 186/271/3 187/272/3
f 189/273/123 187/274/124 188/275/124 190/276/123
f 185/277/125 197/278/126 198/279/126 199/280/125
f 186/281/127 185/282/125 199/283/125 200/284/127
f 195/285/128 193/286/129 194/287/129 196/288/128
f 193/286/129 191/289/130 192/290/130 194/287/129
f 191/289/130 189/273/123 190/276/123 192/290/130
f 161/269/3 187/272/3 189/291/3 165/292/3
f 175/293/3 172/265/3 193/268/3 195/294/3
f 157/270/3 183/261/3 185/264/3 186/271/3
f 197/278/126 195/285/128 196/288/128 198/279/126
f 175/293/3 195/294/3 197/263/3 179/262/3
f 168/266/3 165/292/3 189/291/3 191/267/3
f 187/274/124 186/281/127 200/284/127 188/275/124
usemtl metal_mp_4
f 89/125/58 92/126/59 87/127/59 86/128/58
f 84/129/14 82/130/14 88/131/60 91/132/60
f 85/133/7 86/134/7 87/135/7 88/136/7 82/137/7 81/138/7
f 83/139/2 84/140/2 91/141/2 92/142/2 89/143/2 90/144/2
f 85/145/61 90/146/61 89/125/58 86/128/58
f 91/132/60 88/131/60 87/127/59 92/126/59
f 81/147/11 83/148/11 90/146/61 85/145/61
f 101/128/58 104/127/59 99/149/59 98/150/58
f 96/130/14 94/151/14 100/152/60 103/131/60
f 97/153/7 98/154/7 99/155/7 100/156/7 94/157/7 93/158/7
f 95/159/2 96/160/2 103/161/2 104/162/2 101/163/2 102/164/2
f 97/165/61 102/145/61 101/128/58 98/150/58
f 103/131/60 100/152/60 99/149/59 104/127/59
f 93/166/11 95/147/11 102/145/61 97/165/61
f 153/207/58 156/208/59 151/209/59 150/210/58
f 148/211/14 146/212/14 152/213/60 155/214/60
f 149/215/7 150/216/7 151/217/7 152/218/7 146/219/7 145/220/7
f 147/221/2 148/222/2 155/223/2 156/224/2 153/225/2 154/226/2
f 149/227/61 154/228/61 153/207/58 150/210/58
f 155/214/60 152/213/60 151/209/59 156/208/59
f 145/229/11 147/230/11 154/228/61 149/227/61
usemtl plastic_mp_2
f 76/109/42 108/110/43 105/111/44 73/112/45
f 79/113/46 111/114/47 112/115/48 80/116/49
f 73/112/45 105/111/44 106/117/50 74/118/51
f 80/116/49 112/115/48 107/119/52 75/120/53
f 77/121/54 109/122/55 110/123/56 78/124/57
f 75/120/53 107/119/52 108/110/43 76/109/42
f 78/124/57 110/123/56 111/114/47 79/113/46
f 113/167/62 121/168/63 122/169/64 114/170/65
f 109/171/55 117/172/66 118/173/67 110/174/56
f 107/175/52 115/176/68 116/177/69 108/178/43
f 110/174/56 118/173/67 119/179/70 111/180/47
f 108/178/43 116/177/69 113/167/62 105/181/44
f 111/180/47 119/179/70 120/182/71 112/183/48
f 105/181/44 113/167/62 114/170/65 106/184/50
f 112/183/48 120/182/71 115/176/68 107/175/52
f 126/185/72 134/186/73 135/187/74 127/188/75
f 120/182/71 128/189/76 123/190/77 115/176/68
f 117/172/66 125/191/78 126/185/72 118/173/67
f 115/176/68 123/190/77 124/192/79 116/177/69
f 118/173/67 126/185/72 127/188/75 119/179/70
f 116/177/69 124/192/79 121/168/63 113/167/62
f 119/179/70 127/188/75 128/189/76 120/182/71
f 131/193/80 139/194/81 140/195/82 132/196/83
f 124/192/79 132/196/83 129/197/84 121/168/63
f 127/188/75 135/187/74 136/198/85 128/189/76
f 121/168/63 129/197/84 130/199/86 122/169/64
f 128/189/76 136/198/85 131/193/80 123/190/77
f 125/191/78 133/200/87 134/186/73 126/185/72
f 123/190/77 131/193/80 132/196/83 124/192/79
f 134/186/73 142/201/88 143/202/89 135/187/74
f 132/196/83 140/195/82 137/203/90 129/197/84
f 135/187/74 143/202/89 144/204/91 136/198/85
f 129/197/84 137/203/90 138/205/92 130/199/86
f 136/198/85 144/204/91 139/194/81 131/193/80
f 133/200/87 141/206/93 142/201/88 134/186/73
