# Blender 5.0.1
# www.blender.org
mtllib ceiling_lamp_mp_1_1_fake_light_1.mtl
o ceiling_lamp_mp_1_1_fake_light_1
v -1.500016 -2.500000 -0.000001
v -0.000017 -2.500001 -1.500001
v -1.386064 -2.500000 -0.575878
v -1.061555 -2.500000 -1.061540
v -0.575894 -2.500000 -1.386048
v -0.000017 -2.499999 1.500001
v -0.575894 -2.499999 1.386049
v -1.061555 -2.500000 1.061540
v -1.386064 -2.500000 0.575878
v 0.000016 -0.100000 -0.030000
v -0.011502 -0.100000 -0.027721
v -0.021215 -0.100000 -0.021231
v -0.027705 -0.100000 -0.011517
v -0.029984 -0.100000 0.000000
v 0.000016 -0.100000 0.030000
v -0.027705 -0.100000 0.011518
v -0.021215 -0.100000 0.021231
v -0.011502 -0.100000 0.027721
v 1.499983 -2.500000 -0.000001
v 0.575860 -2.500000 -1.386048
v 1.061522 -2.500000 -1.061540
v 1.386031 -2.500000 -0.575878
v 1.386031 -2.500000 0.575878
v 1.061522 -2.500000 1.061540
v 0.575860 -2.499999 1.386049
v 0.027736 -0.100000 -0.011517
v 0.021246 -0.100000 -0.021231
v 0.011533 -0.100000 -0.027721
v 0.030016 -0.100000 0.000000
v 0.011533 -0.100000 0.027721
v 0.021246 -0.100000 0.021231
v 0.027736 -0.100000 0.011518
v -0.000017 -2.500001 -1.497001
v -0.572894 -2.500001 -1.383048
v -1.058555 -2.500001 -1.058540
v -1.383064 -2.500001 -0.572878
v -1.497016 -2.500001 0.000002
v -0.000017 -2.500000 1.497001
v -1.383064 -2.500000 0.572878
v -1.058555 -2.500000 1.058540
v -0.572894 -2.500000 1.383049
v -0.029924 -0.105000 0.000000
v 0.000016 -0.105000 -0.029940
v -0.027645 -0.105000 -0.011457
v -0.021155 -0.105000 -0.021171
v -0.011442 -0.105000 -0.027661
v 0.000016 -0.105000 0.029940
v -0.011442 -0.105000 0.027661
v -0.021155 -0.105000 0.021171
v -0.027645 -0.105000 0.011458
v 1.383031 -2.500001 -0.572878
v 1.058522 -2.500001 -1.058540
v 0.572861 -2.500001 -1.383048
v 1.496983 -2.500001 0.000002
v 0.572861 -2.500000 1.383049
v 1.058522 -2.500000 1.058540
v 1.383031 -2.500000 0.572879
v 0.029956 -0.105000 0.000000
v 0.011473 -0.105000 -0.027661
v 0.021186 -0.105000 -0.021171
v 0.027676 -0.105000 -0.011457
v 0.027676 -0.105000 0.011458
v 0.021186 -0.105000 0.021171
v 0.011473 -0.105000 0.027661
vn -0.0000 0.5223 -0.8528
vn -0.3260 0.5225 -0.7878
vn -0.3258 0.5225 -0.7879
vn -0.6028 0.5226 -0.6028
vn -0.6028 0.5226 -0.6029
vn -0.7878 0.5226 -0.3260
vn -0.7879 0.5226 -0.3258
vn -0.8527 0.5223 -0.0000
vn -0.0000 0.5223 0.8528
vn -0.3258 0.5225 0.7879
vn -0.3260 0.5225 0.7878
vn -0.6028 0.5226 0.6028
vn -0.6029 0.5226 0.6028
vn -0.7879 0.5226 0.3258
vn -0.7878 0.5226 0.3260
vn 0.3258 0.5225 -0.7879
vn 0.3260 0.5225 -0.7878
vn 0.6029 0.5226 -0.6029
vn 0.7879 0.5225 -0.3258
vn 0.7878 0.5225 -0.3260
vn 0.8528 0.5223 -0.0000
vn 0.3260 0.5225 0.7878
vn 0.3258 0.5225 0.7879
vn 0.6029 0.5226 0.6029
vn 0.7878 0.5225 0.3260
vn 0.7879 0.5225 0.3258
vn 0.8527 -0.5224 -0.0000
vn 0.7878 -0.5224 0.3263
vn 0.6030 -0.5223 0.6030
vn 0.3263 -0.5223 0.7878
vn -0.0000 -0.5223 0.8527
vn 0.7878 -0.5224 -0.3263
vn 0.6030 -0.5223 -0.6030
vn 0.3263 -0.5223 -0.7878
vn -0.0000 -0.5223 -0.8527
vn -0.8527 -0.5223 -0.0000
vn -0.7878 -0.5223 0.3263
vn -0.6030 -0.5223 0.6030
vn -0.3263 -0.5223 0.7878
vn -0.7878 -0.5223 -0.3263
vn -0.6030 -0.5223 -0.6030
vn -0.3263 -0.5223 -0.7878
vt 1.000000 1.000000
vt 1.000000 0.000000
vt 0.937343 0.000000
vt 0.937343 1.000000
vt 0.875000 0.000000
vt 0.874999 1.000000
vt 0.812657 0.000000
vt 0.812657 1.000000
vt 0.750000 0.000000
vt 0.750000 1.000000
vt 0.500000 0.000000
vt 0.500000 1.000000
vt 0.562657 1.000000
vt 0.562657 0.000000
vt 0.625000 1.000000
vt 0.625000 0.000000
vt 0.687343 1.000000
vt 0.687343 0.000000
vt 0.000000 0.000000
vt 0.000000 1.000000
vt 0.062657 1.000000
vt 0.062657 0.000000
vt 0.125000 1.000000
vt 0.125000 0.000000
vt 0.187343 1.000000
vt 0.187343 0.000000
vt 0.250000 1.000000
vt 0.250000 0.000000
vt 0.437343 0.000000
vt 0.437343 1.000000
vt 0.375000 0.000000
vt 0.375000 1.000000
vt 0.312657 0.000000
vt 0.312657 1.000000
vt 0.250628 1.000000
vt 0.250628 0.000000
vt 0.188285 0.000000
vt 0.188285 1.000000
vt 0.125942 0.000000
vt 0.125942 1.000000
vt 0.063599 0.000000
vt 0.063599 1.000000
vt 0.001256 0.000000
vt 0.001256 1.000000
vt 0.312971 1.000000
vt 0.312971 0.000000
vt 0.375314 1.000000
vt 0.375314 0.000000
vt 0.437657 1.000000
vt 0.437657 0.000000
vt 0.500000 1.000000
vt 0.500000 0.000000
vt 0.749372 0.000000
vt 0.749372 1.000000
vt 0.811715 1.000000
vt 0.811715 0.000000
vt 0.874057 1.000000
vt 0.874058 0.000000
vt 0.936400 1.000000
vt 0.936401 0.000000
vt 0.998743 1.000000
vt 0.998744 0.000000
vt 0.687029 0.000000
vt 0.687029 1.000000
vt 0.624686 0.000000
vt 0.624686 1.000000
vt 0.562343 0.000000
vt 0.562343 1.000000
s 1
usemtl fake_light_mp_1
f 10/1/1 2/2/1 5/3/2 11/4/3
f 11/4/3 5/3/2 4/5/4 12/6/5
f 12/6/5 4/5/4 3/7/6 13/8/7
f 13/8/7 3/7/6 1/9/8 14/10/8
f 6/11/9 15/12/9 18/13/10 7/14/11
f 7/14/11 18/13/10 17/15/12 8/16/13
f 8/16/13 17/15/12 16/17/14 9/18/15
f 9/18/15 16/17/14 14/10/8 1/9/8
f 2/19/1 10/20/1 28/21/16 20/22/17
f 20/22/17 28/21/16 27/23/18 21/24/18
f 21/24/18 27/23/18 26/25/19 22/26/20
f 22/26/20 26/25/19 29/27/21 19/28/21
f 15/12/9 6/11/9 25/29/22 30/30/23
f 30/30/23 25/29/22 24/31/24 31/32/24
f 31/32/24 24/31/24 23/33/25 32/34/26
f 32/34/26 23/33/25 19/28/21 29/27/21
f 42/35/27 37/36/27 36/37/28 44/38/28
f 44/38/28 36/37/28 35/39/29 45/40/29
f 45/40/29 35/39/29 34/41/30 46/42/30
f 46/42/30 34/41/30 33/43/31 43/44/31
f 37/36/27 42/35/27 50/45/32 39/46/32
f 39/46/32 50/45/32 49/47/33 40/48/33
f 40/48/33 49/47/33 48/49/34 41/50/34
f 41/50/34 48/49/34 47/51/35 38/52/35
f 54/53/36 58/54/36 61/55/37 51/56/37
f 51/56/37 61/55/37 60/57/38 52/58/38
f 52/58/38 60/57/38 59/59/39 53/60/39
f 53/60/39 59/59/39 43/61/31 33/62/31
f 58/54/36 54/53/36 57/63/40 62/64/40
f 62/64/40 57/63/40 56/65/41 63/66/41
f 63/66/41 56/65/41 55/67/42 64/68/42
f 64/68/42 55/67/42 38/52/35 47/51/35
