# Blender 5.0.1
# www.blender.org
mtllib fake_light_window_2_single.mtl
o fake_light_window_2_single
v -0.559000 0.501000 1.500000
v -0.559000 2.099000 1.500000
v -0.559000 0.901000 0.030000
v -0.559000 2.499000 0.030000
v 0.559000 0.501000 1.500000
v 0.559000 2.099000 1.500000
v 0.559000 0.901000 0.030000
v 0.559000 2.499000 0.030000
v -0.557000 0.503000 1.500000
v -0.557000 2.097000 1.500000
v -0.557000 0.903000 0.030000
v -0.557000 2.497000 0.030000
v 0.557000 0.503000 1.500000
v 0.557000 2.097000 1.500000
v 0.557000 0.903000 0.030000
v 0.557000 2.497000 0.030000
v -0.557000 0.903000 0.260000
v -0.557000 2.497000 0.100000
v 0.557000 0.903000 0.260000
v 0.557000 2.497000 0.100000
v -0.559000 0.901000 0.260000
v -0.559000 2.499000 0.100000
v 0.559000 0.901000 0.260000
v 0.559000 2.499000 0.100000
vn -1.0000 -0.0000 -0.0000
vn 1.0000 -0.0000 -0.0000
vn -0.0000 -0.9517 -0.3070
vn -0.0000 0.9615 0.2747
vn -0.0000 0.9517 0.3070
vn -0.0000 -0.9615 -0.2747
vn -0.0000 -1.0000 -0.0000
vn -0.0000 1.0000 -0.0000
vt 0.987826 0.764566
vt 0.001511 0.900403
vt 0.001517 1.000000
vt 0.999376 1.000000
vt 0.986943 0.764557
vt 0.000619 0.900403
vt 0.000624 0.015625
vt 0.998483 0.015625
vt 0.000882 0.754443
vt 0.000893 0.015799
vt 0.999108 0.900307
vt 0.001517 0.015625
vt 0.999107 0.015458
vt 0.987795 0.764566
vt 0.999374 1.000000
vt 0.001522 1.000000
vt 0.001516 0.900403
vt 0.986910 0.764557
vt 0.998478 0.015625
vt 0.000626 0.015625
vt 0.000620 0.900403
vt 0.000885 0.754443
vt 0.000896 0.015799
vt 0.999104 0.900307
vt 0.999104 0.015458
vt 0.001522 0.015625
vt 0.999104 1.000000
vt 0.000896 1.000000
vt 0.998478 1.000000
vt 0.000627 1.000000
vt 0.999374 0.015625
vt 0.999108 1.000000
vt 0.000893 1.000000
vt 0.998483 1.000000
vt 0.000625 1.000000
vt 0.999375 0.015625
s 0
usemtl fake_light_mp_1
f 21/1/1 22/2/1 4/3/1 3/4/1
f 23/5/2 24/6/2 6/7/2 5/8/2
f 21/9/3 23/5/3 5/8/3 1/10/3
f 24/11/4 22/2/4 2/12/4 6/13/4
f 17/14/2 11/15/2 12/16/2 18/17/2
f 19/18/1 13/19/1 14/20/1 20/21/1
f 17/22/5 9/23/5 13/19/5 19/18/5
f 20/24/6 14/25/6 10/26/6 18/17/6
f 16/27/7 20/24/7 18/17/7 12/16/7
f 11/28/8 17/22/8 19/18/8 15/29/8
f 15/29/1 19/18/1 20/21/1 16/30/1
f 9/31/2 17/14/2 18/17/2 10/26/2
f 8/32/8 4/3/8 22/2/8 24/11/8
f 3/33/7 7/34/7 23/5/7 21/9/7
f 7/34/2 8/35/2 24/6/2 23/5/2
f 1/36/1 2/12/1 22/2/1 21/1/1
