# Blender 5.0.1
# www.blender.org
mtllib lamp_1_1_on.mtl
o lamp_1_1_on
v 0.162796 0.010433 0.009600
v 0.162796 0.010433 0.020400
v 0.170432 0.002797 0.009600
v 0.170432 0.002797 0.020400
v 0.167637 -0.007635 0.009600
v 0.167637 -0.007635 0.020400
v 0.157205 -0.010431 0.009600
v 0.157205 -0.010431 0.020400
v 0.149568 -0.002794 0.009600
v 0.149568 -0.002794 0.020400
v 0.152364 0.007638 0.009600
v 0.152364 0.007638 0.020400
v -0.164564 0.009790 0.009600
v -0.164564 0.009790 0.020400
v -0.153805 0.008848 0.009600
v -0.153805 0.008848 0.020400
v -0.149241 -0.000940 0.009600
v -0.149241 -0.000940 0.020400
v -0.155435 -0.009787 0.009600
v -0.155435 -0.009787 0.020400
v -0.166194 -0.008845 0.009600
v -0.166194 -0.008845 0.020400
v -0.170759 0.000943 0.009600
v -0.170759 0.000943 0.020400
v -0.180000 -0.008000 0.010000
v -0.168000 -0.020000 0.010000
v -0.168000 0.020000 0.010000
v -0.180000 0.008000 0.010000
v -0.168000 -0.020000 -0.000000
v -0.180000 -0.008000 -0.000000
v -0.180000 0.008000 -0.000000
v -0.168000 0.020000 -0.000000
v 0.168000 -0.020000 0.010000
v 0.180000 -0.008000 0.010000
v 0.180000 0.008000 0.010000
v 0.168000 0.020000 0.010000
v 0.180000 -0.008000 -0.000000
v 0.168000 -0.020000 -0.000000
v 0.168000 0.020000 -0.000000
v 0.180000 0.008000 -0.000000
v -0.005697 0.080000 -0.000000
v -0.009497 0.080000 0.003800
v -0.009497 0.213000 0.003800
v -0.005697 0.213000 -0.000000
v -0.009497 0.080000 0.007600
v -0.005697 0.080000 0.011400
v -0.005697 0.213000 0.011400
v -0.009497 0.213000 0.007600
v 0.009503 0.080000 0.003800
v 0.005703 0.080000 -0.000000
v 0.005703 0.213000 -0.000000
v 0.009503 0.213000 0.003800
v 0.005703 0.080000 0.011400
v 0.009503 0.080000 0.007600
v 0.009503 0.213000 0.007600
v 0.005703 0.213000 0.011400
v 0.001633 0.239870 0.003800
v 0.004320 0.237183 -0.000000
v 0.004320 0.237183 0.011400
v 0.001633 0.239870 0.007600
v 0.012381 0.229122 -0.000000
v 0.015068 0.226435 0.003800
v 0.015068 0.226435 0.007600
v 0.012381 0.229122 0.011400
v 0.028503 0.251000 0.003800
v 0.028503 0.247200 -0.000000
v 0.028503 0.247200 0.011400
v 0.028503 0.251000 0.007600
v 0.028503 0.235800 -0.000000
v 0.028503 0.232000 0.003800
v 0.028503 0.232000 0.007600
v 0.028503 0.235800 0.011400
v 0.548503 0.251000 0.003800
v 0.548503 0.247200 -0.000000
v 0.548503 0.247200 0.011400
v 0.548503 0.251000 0.007600
v 0.548503 0.235800 -0.000000
v 0.548503 0.232000 0.003800
v 0.548503 0.232000 0.007600
v 0.548503 0.235800 0.011400
v 0.555047 0.251000 0.002498
v 0.553593 0.247200 -0.001013
v 0.557955 0.247200 0.009519
v 0.556501 0.251000 0.006009
v 0.553593 0.235800 -0.001013
v 0.555047 0.232000 0.002498
v 0.556501 0.232000 0.006009
v 0.557955 0.235800 0.009519
v 0.560594 0.251000 -0.001209
v 0.557907 0.247200 -0.003896
v 0.565968 0.247200 0.004165
v 0.563281 0.251000 0.001478
v 0.557907 0.235800 -0.003896
v 0.560594 0.232000 -0.001209
v 0.563281 0.232000 0.001478
v 0.565968 0.235800 0.004165
v 0.564301 0.251000 -0.006757
v 0.560791 0.247200 -0.008211
v 0.571323 0.247200 -0.003848
v 0.567812 0.251000 -0.005302
v 0.560791 0.235800 -0.008211
v 0.564301 0.232000 -0.006757
v 0.567812 0.232000 -0.005302
v 0.571323 0.235800 -0.003848
v 0.565603 0.251000 -0.013300
v 0.561803 0.247200 -0.013300
v 0.573203 0.247200 -0.013300
v 0.569403 0.251000 -0.013300
v 0.561803 0.235800 -0.013300
v 0.565603 0.232000 -0.013300
v 0.569403 0.232000 -0.013300
v 0.573203 0.235800 -0.013300
v 0.545000 0.228001 -0.000000
v 0.545000 0.255001 -0.000000
v 0.555000 0.228001 -0.000000
v 0.555000 0.255001 -0.000000
v 0.545000 0.228001 0.009000
v 0.545000 0.236001 0.017000
v 0.545000 0.247001 0.017000
v 0.545000 0.255001 0.009000
v 0.555000 0.236001 0.017000
v 0.555000 0.228001 0.009000
v 0.555000 0.255001 0.009000
v 0.555000 0.247001 0.017000
v 0.145000 0.228000 -0.000000
v 0.145000 0.255001 -0.000000
v 0.155000 0.228000 -0.000000
v 0.155000 0.255001 -0.000000
v 0.145000 0.228000 0.009000
v 0.145000 0.236001 0.017000
v 0.145000 0.247001 0.017000
v 0.145000 0.255001 0.009000
v 0.155000 0.236001 0.017000
v 0.155000 0.228000 0.009000
v 0.155000 0.255001 0.009000
v 0.155000 0.247001 0.017000
v 0.345000 0.228001 -0.000000
v 0.345000 0.255001 -0.000000
v 0.355000 0.228001 -0.000000
v 0.355000 0.255001 -0.000000
v 0.345000 0.228001 0.009000
v 0.345000 0.236001 0.017000
v 0.345000 0.247001 0.017000
v 0.345000 0.255001 0.009000
v 0.355000 0.236001 0.017000
v 0.355000 0.228001 0.009000
v 0.355000 0.255001 0.009000
v 0.355000 0.247001 0.017000
v 0.045000 0.228001 -0.000000
v 0.045000 0.255001 -0.000000
v 0.055000 0.228001 -0.000000
v 0.055000 0.255001 -0.000000
v 0.045000 0.228001 0.009000
v 0.045000 0.236001 0.017000
v 0.045000 0.247001 0.017000
v 0.045000 0.255001 0.009000
v 0.055000 0.236001 0.017000
v 0.055000 0.228001 0.009000
v 0.055000 0.255001 0.009000
v 0.055000 0.247001 0.017000
v 0.013500 0.195000 -0.000000
v -0.013500 0.195000 -0.000000
v 0.013500 0.205000 -0.000000
v -0.013500 0.205000 -0.000000
v 0.013500 0.195000 0.009000
v 0.005500 0.195000 0.017000
v -0.005500 0.195000 0.017000
v -0.013500 0.195000 0.009000
v 0.005500 0.205000 0.017000
v 0.013500 0.205000 0.009000
v -0.013500 0.205000 0.009000
v -0.005500 0.205000 0.017000
v 0.013500 0.105000 -0.000000
v -0.013500 0.105000 -0.000000
v 0.013500 0.115000 -0.000000
v -0.013500 0.115000 -0.000000
v 0.013500 0.105000 0.009000
v 0.005500 0.105000 0.017000
v -0.005500 0.105000 0.017000
v -0.013500 0.105000 0.009000
v 0.005500 0.115000 0.017000
v 0.013500 0.115000 0.009000
v -0.013500 0.115000 0.009000
v -0.005500 0.115000 0.017000
v 0.245000 0.228001 -0.000000
v 0.245000 0.255001 -0.000000
v 0.255000 0.228001 -0.000000
v 0.255000 0.255001 -0.000000
v 0.245000 0.228001 0.009000
v 0.245000 0.236001 0.017000
v 0.245000 0.247001 0.017000
v 0.245000 0.255001 0.009000
v 0.255000 0.236001 0.017000
v 0.255000 0.228001 0.009000
v 0.255000 0.255001 0.009000
v 0.255000 0.247001 0.017000
v 0.445000 0.228000 -0.000000
v 0.445000 0.255001 -0.000000
v 0.455000 0.228000 -0.000000
v 0.455000 0.255001 -0.000000
v 0.445000 0.228000 0.009000
v 0.445000 0.236001 0.017000
v 0.445000 0.247001 0.017000
v 0.445000 0.255001 0.009000
v 0.455000 0.236001 0.017000
v 0.455000 0.228000 0.009000
v 0.455000 0.255001 0.009000
v 0.455000 0.247001 0.017000
v -0.086059 0.053796 0.032000
v 0.086059 0.053796 0.032000
v -0.086059 -0.053796 0.032000
v -0.108796 0.031059 0.032000
v -0.051709 0.063000 0.032000
v 0.108796 0.031059 0.032000
v 0.051709 0.063000 0.032000
v -0.117118 -0.000000 0.032000
v -0.108796 -0.031059 0.032000
v -0.051709 -0.063000 0.032000
v 0.117118 0.000000 0.032000
v 0.108796 -0.031059 0.032000
v 0.086059 -0.053796 0.032000
v 0.051709 -0.063000 0.032000
v 0.099000 -0.076210 -0.000000
v 0.131210 -0.044000 -0.000000
v 0.055000 -0.088000 -0.000000
v 0.143000 0.000000 -0.000000
v -0.131210 -0.044000 -0.000000
v -0.099000 -0.076210 -0.000000
v -0.143000 -0.000000 -0.000000
v -0.055000 -0.088000 -0.000000
v 0.131210 0.044000 -0.000000
v 0.099000 0.076210 -0.000000
v 0.055000 0.088000 -0.000000
v -0.099000 0.076210 -0.000000
v -0.131210 0.044000 -0.000000
v -0.055000 0.088000 -0.000000
v -0.131210 -0.044000 0.032000
v -0.143000 -0.000000 0.032000
v 0.143000 0.000000 0.032000
v 0.131210 -0.044000 0.032000
v 0.099000 -0.076210 0.032000
v 0.055000 -0.088000 0.032000
v -0.055000 0.088000 0.032000
v 0.055000 0.088000 0.032000
v -0.055000 -0.088000 0.032000
v -0.131210 0.044000 0.032000
v 0.131210 0.044000 0.032000
v -0.099000 -0.076210 0.032000
v 0.099000 0.076210 0.032000
v -0.099000 0.076210 0.032000
v -0.108796 -0.031059 0.025000
v -0.117118 -0.000000 0.025000
v 0.117118 0.000000 0.025000
v 0.108796 -0.031059 0.025000
v 0.086059 -0.053796 0.025000
v 0.051709 -0.063000 0.025000
v -0.051709 0.063000 0.025000
v 0.051709 0.063000 0.025000
v -0.051709 -0.063000 0.025000
v -0.108796 0.031059 0.025000
v 0.108796 0.031059 0.025000
v -0.086059 -0.053796 0.025000
v 0.086059 0.053796 0.025000
v -0.086059 0.053796 0.025000
v -0.055000 0.071000 0.040000
v -0.055000 0.081000 0.040000
v -0.055000 0.071000 0.032000
v -0.055000 0.081000 0.032000
v -0.045000 0.071000 0.040000
v -0.045000 0.081000 0.040000
v -0.045000 0.071000 0.032000
v -0.045000 0.081000 0.032000
v -0.055000 0.063969 0.070806
v -0.055000 0.072979 0.075144
v -0.045000 0.063969 0.070806
v -0.045000 0.072979 0.075144
v -0.055000 0.044268 0.095510
v -0.055000 0.050503 0.103328
v -0.045000 0.044268 0.095510
v -0.045000 0.050503 0.103328
v -0.055000 0.015799 0.109220
v -0.055000 0.018025 0.118969
v -0.045000 0.015799 0.109220
v -0.045000 0.018025 0.118969
v -0.055000 -0.015799 0.109220
v -0.055000 -0.018024 0.118969
v -0.045000 -0.015799 0.109220
v -0.045000 -0.018024 0.118969
v -0.055000 -0.044267 0.095510
v -0.055000 -0.050502 0.103329
v -0.045000 -0.044267 0.095510
v -0.045000 -0.050502 0.103329
v -0.055000 -0.063969 0.070806
v -0.055000 -0.072978 0.075145
v -0.045000 -0.063969 0.070806
v -0.045000 -0.072978 0.075145
v -0.055000 -0.071000 0.040000
v -0.055000 -0.081000 0.040000
v -0.045000 -0.071000 0.040000
v -0.045000 -0.081000 0.040000
v -0.055000 -0.071000 0.032000
v -0.055000 -0.081000 0.032000
v -0.045000 -0.071000 0.032000
v -0.045000 -0.081000 0.032000
v 0.045000 0.071000 0.040000
v 0.045000 0.081000 0.040000
v 0.045000 0.071000 0.032000
v 0.045000 0.081000 0.032000
v 0.055000 0.071000 0.040000
v 0.055000 0.081000 0.040000
v 0.055000 0.071000 0.032000
v 0.055000 0.081000 0.032000
v 0.045000 0.063969 0.070806
v 0.045000 0.072979 0.075144
v 0.055000 0.063969 0.070806
v 0.055000 0.072979 0.075144
v 0.045000 0.044268 0.095510
v 0.045000 0.050503 0.103328
v 0.055000 0.044268 0.095510
v 0.055000 0.050503 0.103328
v 0.045000 0.015799 0.109220
v 0.045000 0.018025 0.118969
v 0.055000 0.015799 0.109220
v 0.055000 0.018025 0.118969
v 0.045000 -0.015799 0.109220
v 0.045000 -0.018024 0.118969
v 0.055000 -0.015799 0.109220
v 0.055000 -0.018024 0.118969
v 0.045000 -0.044267 0.095510
v 0.045000 -0.050502 0.103329
v 0.055000 -0.044267 0.095510
v 0.055000 -0.050502 0.103329
v 0.045000 -0.063969 0.070806
v 0.045000 -0.072978 0.075145
v 0.055000 -0.063969 0.070806
v 0.055000 -0.072978 0.075145
v 0.045000 -0.071000 0.040000
v 0.045000 -0.081000 0.040000
v 0.055000 -0.071000 0.040000
v 0.055000 -0.081000 0.040000
v 0.045000 -0.071000 0.032000
v 0.045000 -0.081000 0.032000
v 0.055000 -0.071000 0.032000
v 0.055000 -0.081000 0.032000
v -0.045000 0.005000 0.118969
v 0.055000 0.005000 0.109220
v 0.045000 0.005000 0.118969
v 0.055000 0.005000 0.118969
v 0.045000 -0.004999 0.109220
v 0.055000 -0.004999 0.118969
v 0.121000 0.005000 0.040000
v 0.131000 0.005000 0.040000
v 0.121000 0.005000 0.032000
v 0.131000 0.005000 0.032000
v 0.121000 -0.005000 0.040000
v 0.131000 -0.005000 0.040000
v 0.121000 -0.005000 0.032000
v 0.131000 -0.005000 0.032000
v 0.113969 0.005000 0.070806
v 0.122978 0.005000 0.075144
v 0.113969 -0.005000 0.070806
v 0.122978 -0.005000 0.075144
v 0.094268 0.005000 0.095510
v 0.100503 0.005000 0.103328
v 0.094268 -0.005000 0.095510
v 0.100503 -0.005000 0.103328
v 0.065799 0.005000 0.109220
v 0.068024 0.005000 0.118969
v 0.065799 -0.005000 0.109220
v 0.068024 -0.005000 0.118969
v -0.065799 0.005000 0.109220
v -0.068024 0.005000 0.118969
v -0.065799 -0.005000 0.109220
v -0.068024 -0.005000 0.118969
v -0.094268 0.005000 0.095510
v -0.100503 0.005000 0.103329
v -0.094268 -0.005000 0.095510
v -0.100503 -0.005000 0.103329
v -0.113969 0.005000 0.070806
v -0.122979 0.005000 0.075145
v -0.113969 -0.005000 0.070806
v -0.122979 -0.005000 0.075145
v -0.121000 0.005000 0.040000
v -0.131000 0.005000 0.040000
v -0.121000 -0.005000 0.040000
v -0.131000 -0.005000 0.040000
v -0.121000 0.005000 0.032000
v -0.131000 0.005000 0.032000
v -0.121000 -0.005000 0.032000
v -0.131000 -0.005000 0.032000
v 0.045000 0.005000 0.109220
v 0.045000 -0.004999 0.118969
v 0.055000 -0.004999 0.109220
v -0.045000 -0.004999 0.109220
v -0.045000 0.005000 0.109220
v -0.045000 -0.004999 0.118969
v -0.055000 -0.004999 0.109220
v -0.055000 0.005000 0.109220
v -0.055000 0.005000 0.118969
v -0.055000 -0.004999 0.118969
v -0.103869 0.029088 0.025000
v -0.082575 0.050382 0.025000
v -0.051709 0.058348 0.025000
v 0.103869 0.029088 0.025000
v 0.082575 0.050382 0.025000
v 0.051709 0.058348 0.025000
v -0.103869 -0.029088 0.025000
v -0.082575 -0.050382 0.025000
v -0.051709 -0.058348 0.025000
v 0.103869 -0.029088 0.025000
v 0.082575 -0.050382 0.025000
v 0.051709 -0.058348 0.025000
v -0.111512 -0.000000 0.025000
v 0.111512 -0.000000 0.025000
v -0.103812 0.028738 0.044016
v -0.078925 0.014369 0.093365
v -0.097144 0.024888 0.072508
v -0.082775 0.049775 0.044016
v -0.061475 0.012883 0.099058
v -0.068406 0.024888 0.093365
v -0.078924 0.043107 0.072508
v -0.051709 0.057600 0.044016
v -0.051709 0.015365 0.099058
v -0.051709 0.029108 0.093365
v -0.051709 0.049965 0.072508
v 0.103812 0.028738 0.044016
v 0.097143 0.024888 0.072508
v 0.078924 0.014369 0.093365
v 0.082774 0.049775 0.044016
v 0.078924 0.043107 0.072508
v 0.068406 0.024888 0.093365
v 0.061475 0.012883 0.099058
v 0.051709 0.057600 0.044016
v 0.051709 0.049965 0.072508
v 0.051709 0.029108 0.093365
v 0.051709 0.015365 0.099058
v -0.111512 -0.000000 0.044016
v -0.068913 -0.000000 0.099058
v -0.082775 -0.000000 0.093365
v -0.103812 -0.000000 0.072508
v -0.103812 -0.028738 0.044016
v -0.097144 -0.024888 0.072508
v -0.078925 -0.014369 0.093365
v -0.082775 -0.049776 0.044016
v -0.078924 -0.043107 0.072508
v -0.068406 -0.024888 0.093365
v -0.061475 -0.012883 0.099058
v -0.051709 -0.057600 0.044016
v -0.051709 -0.049966 0.072508
v -0.051709 -0.029108 0.093365
v -0.051709 -0.015365 0.099058
v 0.111512 -0.000000 0.044016
v 0.103812 -0.000000 0.072508
v 0.082775 -0.000000 0.093365
v 0.068913 -0.000000 0.099058
v 0.103812 -0.028738 0.044016
v 0.078924 -0.014369 0.093365
v 0.097143 -0.024888 0.072508
v 0.082774 -0.049776 0.044016
v 0.061475 -0.012883 0.099058
v 0.068406 -0.024888 0.093365
v 0.078924 -0.043107 0.072508
v 0.051709 -0.057600 0.044016
v 0.051709 -0.015365 0.099058
v 0.051709 -0.029108 0.093365
v 0.051709 -0.049966 0.072508
vn 0.7071 0.7071 -0.0000
vn 0.9659 -0.2588 -0.0000
vn 0.2588 -0.9659 -0.0000
vn -0.7071 -0.7071 -0.0000
vn -0.0000 -0.0000 1.0000
vn -0.9659 0.2588 -0.0000
vn -0.2588 0.9659 -0.0000
vn 0.0872 0.9962 -0.0000
vn 0.9063 0.4226 -0.0000
vn 0.8192 -0.5736 -0.0000
vn -0.0872 -0.9962 -0.0000
vn -0.9063 -0.4226 -0.0000
vn -0.8191 0.5736 -0.0000
vn 1.0000 -0.0000 -0.0000
vn -0.0000 1.0000 -0.0000
vn -1.0000 -0.0000 -0.0000
vn -0.7071 0.7071 -0.0000
vn 0.7071 -0.7071 -0.0000
vn -0.0000 -1.0000 -0.0000
vn 0.9239 -0.0000 0.3827
vn 0.9239 -0.0000 -0.3827
vn 0.8996 -0.1870 -0.3947
vn 0.8996 -0.1870 0.3947
vn -0.9239 -0.0000 -0.3827
vn -0.9239 -0.0000 0.3827
vn -0.9148 0.1762 0.3633
vn -0.9148 0.1762 -0.3633
vn -0.3827 -0.0000 0.9239
vn 0.3827 -0.0000 0.9239
vn 0.3383 -0.0619 0.9390
vn -0.4178 0.0917 0.9039
vn -0.7071 -0.0000 -0.7071
vn -0.6987 0.1534 -0.6987
vn 0.7013 -0.1284 -0.7013
vn 0.7071 -0.0000 -0.7071
vn 0.2090 -0.2090 0.9553
vn -0.3238 0.3238 0.8890
vn 0.5000 -0.5000 -0.7071
vn 0.6416 -0.6416 -0.4202
vn 0.6416 -0.6416 0.4202
vn -0.6615 0.6615 0.3532
vn -0.6615 0.6615 -0.3532
vn -0.1762 0.9148 -0.3633
vn -0.1534 0.6987 -0.6987
vn -0.5000 0.5000 -0.7071
vn -0.1762 0.9148 0.3633
vn 0.1871 -0.8996 0.3947
vn 0.0619 -0.3383 0.9390
vn -0.0917 0.4178 0.9039
vn 0.1871 -0.8996 -0.3947
vn 0.1284 -0.7013 -0.7013
vn 0.0415 0.9148 0.4019
vn -0.0341 0.9318 -0.3613
vn 0.0415 -0.9148 0.4019
vn 0.0894 -0.3735 0.9233
vn -0.0727 0.7052 -0.7052
vn 0.0894 0.3735 0.9233
vn -0.0727 -0.7052 -0.7052
vn -0.0341 -0.9318 -0.3613
vn -0.1303 0.9403 -0.3145
vn -0.2407 0.9403 -0.2407
vn -0.5000 0.7071 -0.5000
vn -0.2706 0.7071 -0.6533
vn -0.2706 -0.7071 -0.6533
vn -0.1303 -0.9403 -0.3145
vn 0.3560 0.3668 0.8595
vn 0.1615 0.9066 0.3899
vn 0.1615 -0.9066 0.3899
vn 0.3560 -0.3668 0.8595
vn -0.2407 -0.9403 -0.2407
vn -0.3145 -0.9403 -0.1303
vn 0.3899 -0.9066 0.1615
vn 0.2984 -0.9066 0.2984
vn 0.6578 -0.3668 0.6578
vn 0.6578 0.3668 0.6578
vn -0.5000 -0.7071 -0.5000
vn 0.2984 0.9066 0.2984
vn 0.8595 0.3668 0.3560
vn 0.9148 0.3607 0.1819
vn 0.4205 0.9034 0.0836
vn 0.3899 0.9066 0.1615
vn -0.3145 0.9403 -0.1303
vn 0.8595 -0.3668 0.3560
vn -0.6533 0.7071 -0.2706
vn -0.6533 -0.7071 -0.2706
vn -0.3397 -0.9381 -0.0676
vn 0.4205 -0.9034 0.0836
vn -0.3397 0.9381 -0.0676
vn 0.9148 -0.3607 0.1820
vn -0.7002 0.7002 -0.1393
vn -0.7002 -0.7002 -0.1393
vn -0.0000 -0.3827 0.9239
vn -0.0000 0.3827 0.9239
vn -0.0000 0.9239 0.3827
vn -0.0000 -0.9239 0.3827
vn -0.8660 -0.5000 -0.0000
vn 0.8660 -0.5000 -0.0000
vn -0.1305 -0.9914 -0.0000
vn -0.5000 -0.8660 -0.0000
vn 0.8660 0.5000 -0.0000
vn -0.8660 0.5000 -0.0000
vn 0.1305 -0.9914 -0.0000
vn 0.1305 0.9914 -0.0000
vn 0.5000 0.8660 -0.0000
vn -0.1305 0.9914 -0.0000
vn 0.5000 -0.8660 -0.0000
vn -0.5000 0.8660 -0.0000
vn -0.0000 -0.9937 -0.1120
vn -0.0000 -0.9010 -0.4339
vn -0.0000 0.9937 0.1120
vn -0.0000 0.9010 0.4339
vn -0.0000 0.6235 0.7818
vn -0.0000 -0.6235 -0.7818
vn -0.0000 -0.0000 -1.0000
vn -0.0000 0.2225 -0.9749
vn -0.0000 -0.2225 -0.9749
vn -0.0000 0.2225 0.9749
vn -0.0000 -0.2225 0.9749
vn -0.0000 -0.6235 0.7818
vn -0.0000 0.6235 -0.7818
vn -0.0000 0.9010 -0.4339
vn -0.0000 0.9937 -0.1120
vn -0.0000 -0.9010 0.4339
vn -0.0000 -0.9937 0.1120
vn -0.9937 -0.0000 -0.1120
vn -0.9010 -0.0000 -0.4339
vn 0.9937 -0.0000 0.1120
vn 0.9010 -0.0000 0.4339
vn 0.6235 -0.0000 0.7818
vn -0.6235 -0.0000 -0.7818
vn 0.2225 -0.0000 -0.9749
vn -0.2225 -0.0000 -0.9749
vn 0.2225 -0.0000 0.9749
vn -0.2225 -0.0000 0.9749
vn -0.6235 -0.0000 0.7818
vn 0.6235 -0.0000 -0.7818
vn 0.9010 -0.0000 -0.4339
vn 0.9937 -0.0000 -0.1120
vn -0.9010 -0.0000 0.4339
vn -0.9937 -0.0000 0.1120
vn -0.1240 0.9916 0.0366
vn -0.4910 0.8708 0.0252
vn -0.4912 0.8595 0.1411
vn -0.1215 0.9817 0.1465
vn -0.8654 0.5010 0.0099
vn -0.8592 0.4939 0.1337
vn 0.4910 -0.8708 0.0252
vn 0.8654 -0.5010 0.0098
vn 0.8592 -0.4939 0.1337
vn 0.4912 -0.8595 0.1411
vn -0.8654 -0.5010 0.0098
vn -0.4910 -0.8708 0.0252
vn -0.4912 -0.8595 0.1411
vn -0.8592 -0.4939 0.1337
vn -1.0000 -0.0000 0.0039
vn -0.9914 -0.0000 0.1308
vn 0.1240 -0.9916 0.0365
vn 0.1215 -0.9817 0.1465
vn 0.4910 0.8708 0.0252
vn 0.1240 0.9916 0.0366
vn 0.1215 0.9817 0.1465
vn 0.4912 0.8595 0.1411
vn -0.1240 -0.9916 0.0365
vn -0.1215 -0.9817 0.1465
vn 0.1253 0.1869 0.9744
vn 0.0283 0.2096 0.9774
vn 0.0283 -0.2096 0.9774
vn 0.1253 -0.1869 0.9744
vn -0.1253 -0.1869 0.9744
vn -0.0283 -0.2096 0.9774
vn -0.0283 0.2096 0.9774
vn -0.1253 0.1869 0.9744
vn 0.8654 0.5010 0.0099
vn 0.8592 0.4939 0.1337
vn 1.0000 -0.0000 0.0039
vn 0.9914 -0.0000 0.1308
vn -0.4929 0.2846 0.8222
vn -0.7574 0.4373 0.4850
vn -0.8745 -0.0000 0.4850
vn -0.5742 -0.0000 0.8187
vn -0.2232 -0.0000 0.9748
vn -0.4929 -0.2846 0.8222
vn -0.4318 0.7608 0.4845
vn -0.2836 0.5000 0.8183
vn -0.0715 0.5642 0.8225
vn -0.1065 0.8657 0.4892
vn 0.8745 -0.0000 0.4850
vn 0.7574 0.4373 0.4850
vn 0.5742 -0.0000 0.8187
vn 0.4929 0.2846 0.8222
vn 0.2836 0.5000 0.8183
vn 0.4318 0.7608 0.4845
vn 0.0715 0.5642 0.8225
vn 0.1065 0.8657 0.4892
vn 0.4929 -0.2846 0.8222
vn 0.2232 -0.0000 0.9748
vn -0.7574 -0.4373 0.4850
vn -0.4318 -0.7608 0.4845
vn -0.2836 -0.5000 0.8183
vn -0.0715 -0.5642 0.8225
vn -0.1065 -0.8657 0.4892
vn 0.7574 -0.4373 0.4850
vn 0.4318 -0.7608 0.4845
vn 0.2836 -0.5000 0.8183
vn 0.0715 -0.5642 0.8225
vn 0.1065 -0.8657 0.4892
vt 0.485338 0.473300
vt 0.485338 0.478700
vt 0.489156 0.478700
vt 0.489156 0.473300
vt 0.456898 0.473300
vt 0.456898 0.478700
vt 0.451682 0.478700
vt 0.451682 0.473300
vt 0.487758 0.473300
vt 0.487758 0.478700
vt 0.482542 0.478700
vt 0.482542 0.473300
vt 0.478724 0.478700
vt 0.478724 0.473300
vt 0.489156 0.456898
vt 0.485338 0.460717
vt 0.480122 0.459319
vt 0.478724 0.454103
vt 0.482542 0.450285
vt 0.487758 0.451682
vt 0.454103 0.473300
vt 0.454103 0.478700
vt 0.459319 0.478700
vt 0.459319 0.473300
vt 0.480122 0.473300
vt 0.480122 0.478700
vt 0.321658 0.473300
vt 0.321658 0.478700
vt 0.327037 0.478700
vt 0.327037 0.473300
vt 0.459924 0.473300
vt 0.459924 0.478700
vt 0.455030 0.478700
vt 0.455030 0.473300
vt 0.450607 0.478700
vt 0.450607 0.473300
vt 0.326222 0.473300
vt 0.326222 0.478700
vt 0.320843 0.478700
vt 0.320843 0.473300
vt 0.327037 0.459924
vt 0.321658 0.460395
vt 0.318560 0.455971
vt 0.320843 0.451077
vt 0.326222 0.450607
vt 0.329319 0.455030
vt 0.451077 0.473300
vt 0.451077 0.478700
vt 0.455971 0.478700
vt 0.455971 0.473300
vt 0.460395 0.478700
vt 0.460395 0.473300
vt 0.471869 0.364500
vt 0.483869 0.376500
vt 0.483869 0.392500
vt 0.471869 0.404500
vt 0.376970 0.500950
vt 0.392970 0.500950
vt 0.392970 0.510950
vt 0.376970 0.510950
vt 0.471869 0.500950
vt 0.135869 0.500950
vt 0.135869 0.510950
vt 0.471869 0.510950
vt 0.364970 0.500950
vt 0.364970 0.510950
vt 0.404970 0.510950
vt 0.404970 0.500950
vt 0.135869 0.364500
vt 0.135869 0.404500
vt 0.123869 0.376500
vt 0.123869 0.392500
vt 0.254630 0.200000
vt 0.259015 0.200000
vt 0.259015 0.353461
vt 0.254630 0.353462
vt 0.224690 0.200000
vt 0.229075 0.200000
vt 0.229075 0.353462
vt 0.224690 0.353461
vt 0.235276 0.200000
vt 0.248429 0.200000
vt 0.248429 0.353462
vt 0.235276 0.353462
vt 0.218489 0.200000
vt 0.218489 0.353461
vt 0.265216 0.353461
vt 0.265216 0.200000
vt 0.233504 0.209913
vt 0.230045 0.230503
vt 0.217179 0.231020
vt 0.222692 0.202968
vt 0.249553 0.209693
vt 0.249146 0.230283
vt 0.242751 0.230189
vt 0.243285 0.211909
vt 0.239003 0.212065
vt 0.237302 0.230296
vt 0.211800 0.231105
vt 0.216943 0.200517
vt 0.208146 0.231161
vt 0.212833 0.263600
vt 0.206435 0.262596
vt 0.202716 0.231185
vt 0.212436 0.200000
vt 0.217766 0.262546
vt 0.239965 0.248237
vt 0.234563 0.251277
vt 0.223778 0.259381
vt 0.243934 0.247673
vt 0.249553 0.249123
vt 0.182349 0.200000
vt 0.182349 0.800000
vt 0.177964 0.800000
vt 0.177964 0.200000
vt 0.207904 0.200000
vt 0.207904 0.800000
vt 0.201703 0.800000
vt 0.201703 0.200000
vt 0.171763 0.800000
vt 0.171763 0.200000
vt 0.188549 0.800000
vt 0.188549 0.200000
vt 0.218489 0.200000
vt 0.218489 0.800000
vt 0.212289 0.800000
vt 0.212289 0.200000
vt 0.339188 0.382007
vt 0.347993 0.381571
vt 0.347915 0.388941
vt 0.340116 0.389513
vt 0.335015 0.341883
vt 0.341340 0.343710
vt 0.340120 0.350258
vt 0.332237 0.348110
vt 0.327716 0.371930
vt 0.338437 0.371651
vt 0.338716 0.377414
vt 0.328833 0.378621
vt 0.339434 0.354480
vt 0.330262 0.352523
vt 0.330218 0.383618
vt 0.338788 0.359984
vt 0.328366 0.358831
vt 0.332388 0.391151
vt 0.348142 0.350897
vt 0.356203 0.350224
vt 0.356890 0.354486
vt 0.348138 0.355056
vt 0.348166 0.360352
vt 0.348106 0.371598
vt 0.348082 0.344244
vt 0.347993 0.377133
vt 0.357846 0.371762
vt 0.368907 0.372177
vt 0.367322 0.379168
vt 0.357331 0.377585
vt 0.356722 0.382180
vt 0.357598 0.359986
vt 0.355499 0.389438
vt 0.354874 0.343632
vt 0.364189 0.348007
vt 0.366242 0.352485
vt 0.365429 0.384150
vt 0.368198 0.358810
vt 0.362649 0.391151
vt 0.361325 0.341725
vt 0.503906 0.421875
vt 0.503906 0.416016
vt 0.509766 0.416016
vt 0.509766 0.421875
vt 0.503906 0.404297
vt 0.509766 0.404297
vt 0.509766 0.410156
vt 0.503906 0.410156
vt 0.482558 0.461008
vt 0.478300 0.456750
vt 0.478300 0.450896
vt 0.482558 0.446638
vt 0.487348 0.446638
vt 0.487348 0.461008
vt 0.528331 0.404789
vt 0.528331 0.419160
vt 0.523541 0.419160
vt 0.519283 0.414902
vt 0.519283 0.409047
vt 0.523541 0.404789
vt 0.509766 0.427734
vt 0.503906 0.427734
vt 0.509766 0.431641
vt 0.503906 0.431641
vt 0.468750 0.421875
vt 0.468750 0.416016
vt 0.474609 0.416016
vt 0.474609 0.421875
vt 0.468750 0.404297
vt 0.474609 0.404297
vt 0.474609 0.410156
vt 0.468750 0.410156
vt 0.519283 0.446638
vt 0.523540 0.450896
vt 0.523540 0.456750
vt 0.519283 0.461008
vt 0.514493 0.461008
vt 0.514493 0.446638
vt 0.505444 0.446638
vt 0.505444 0.461008
vt 0.500654 0.461008
vt 0.496396 0.456750
vt 0.496396 0.450896
vt 0.500654 0.446638
vt 0.474609 0.427734
vt 0.468750 0.427734
vt 0.474609 0.431641
vt 0.468750 0.431641
vt 0.486328 0.416016
vt 0.486328 0.421875
vt 0.480469 0.421875
vt 0.480469 0.416016
vt 0.486328 0.431641
vt 0.480469 0.431641
vt 0.480469 0.427734
vt 0.486328 0.427734
vt 0.518750 0.446638
vt 0.514493 0.442380
vt 0.514493 0.436525
vt 0.518750 0.432267
vt 0.523540 0.432267
vt 0.523540 0.446638
vt 0.532588 0.446638
vt 0.532588 0.461008
vt 0.527798 0.461008
vt 0.523540 0.456750
vt 0.523540 0.450896
vt 0.527798 0.446638
vt 0.480469 0.410156
vt 0.486328 0.410156
vt 0.480469 0.404297
vt 0.486328 0.404297
vt 0.473510 0.461008
vt 0.469252 0.456750
vt 0.469252 0.450896
vt 0.473510 0.446638
vt 0.478300 0.446638
vt 0.478300 0.461008
vt 0.519283 0.404789
vt 0.519283 0.419160
vt 0.514493 0.419160
vt 0.510235 0.414902
vt 0.510235 0.409047
vt 0.514493 0.404789
vt 0.462891 0.421875
vt 0.462891 0.416016
vt 0.462891 0.431641
vt 0.462891 0.427734
vt 0.509702 0.446638
vt 0.505444 0.442380
vt 0.505444 0.436525
vt 0.509702 0.432267
vt 0.514493 0.432267
vt 0.487348 0.432267
vt 0.492139 0.432267
vt 0.496396 0.436525
vt 0.496396 0.442380
vt 0.492139 0.446638
vt 0.462891 0.410156
vt 0.462891 0.404297
vt 0.492188 0.421875
vt 0.492188 0.416016
vt 0.498047 0.416016
vt 0.498047 0.421875
vt 0.492188 0.404297
vt 0.498047 0.404297
vt 0.498047 0.410156
vt 0.492188 0.410156
vt 0.483091 0.432267
vt 0.487348 0.436525
vt 0.487348 0.442380
vt 0.483091 0.446638
vt 0.478300 0.432267
vt 0.496396 0.446638
vt 0.496396 0.432267
vt 0.501187 0.432267
vt 0.501187 0.446638
vt 0.498047 0.427734
vt 0.492188 0.427734
vt 0.498047 0.431641
vt 0.492188 0.431641
vt 0.491606 0.461008
vt 0.487348 0.456750
vt 0.487348 0.450896
vt 0.491606 0.446638
vt 0.496396 0.461008
vt 0.532588 0.432267
vt 0.532588 0.446638
vt 0.523540 0.442380
vt 0.523540 0.436525
vt 0.527798 0.432267
vt 0.474043 0.432267
vt 0.478300 0.436525
vt 0.478300 0.442380
vt 0.474043 0.446638
vt 0.469252 0.446638
vt 0.469252 0.432267
vt 0.509702 0.461008
vt 0.505444 0.456750
vt 0.505444 0.450896
vt 0.206268 0.200976
vt 0.014312 0.478764
vt 0.014312 0.434645
vt 0.023917 0.434645
vt 0.023917 0.478764
vt 0.365561 0.964939
vt 0.365561 0.902439
vt 0.408530 0.902439
vt 0.408530 0.964939
vt 0.365561 0.625095
vt 0.365561 0.562595
vt 0.408530 0.562595
vt 0.408530 0.625095
vt 0.451499 0.902439
vt 0.451499 0.964939
vt 0.365561 0.500095
vt 0.408530 0.500095
vt 0.451499 0.437595
vt 0.451499 0.500095
vt 0.408530 0.437595
vt 0.365561 0.437595
vt 0.365561 0.777439
vt 0.408530 0.777439
vt 0.451499 0.777439
vt 0.451499 0.839939
vt 0.408530 0.839939
vt 0.451499 0.625095
vt 0.365561 0.839939
vt 0.451499 0.562595
vt 0.502275 0.689538
vt 0.544891 0.700957
vt 0.544891 0.736469
vt 0.484519 0.720292
vt 0.544891 0.379562
vt 0.502275 0.390981
vt 0.484518 0.360226
vt 0.544890 0.344050
vt 0.471077 0.422178
vt 0.440323 0.404422
vt 0.458449 0.469310
vt 0.424146 0.464794
vt 0.631332 0.611208
vt 0.631332 0.469310
vt 0.665635 0.464794
vt 0.665635 0.615724
vt 0.458449 0.611208
vt 0.424146 0.615724
vt 0.587506 0.689537
vt 0.605263 0.720292
vt 0.587506 0.390981
vt 0.605263 0.360226
vt 0.471077 0.658340
vt 0.440323 0.676096
vt 0.618704 0.422178
vt 0.649458 0.404422
vt 0.618704 0.658340
vt 0.649458 0.676096
vt 0.119963 0.776614
vt 0.077347 0.765194
vt 0.046150 0.733997
vt 0.033521 0.686865
vt 0.033521 0.544967
vt 0.046150 0.497835
vt 0.077347 0.466638
vt 0.119963 0.455219
vt 0.162579 0.466638
vt 0.193776 0.497835
vt 0.206405 0.544967
vt 0.206405 0.686865
vt 0.193776 0.733997
vt 0.162579 0.765194
vt 0.033521 0.062800
vt 0.033521 0.106919
vt 0.023917 0.106919
vt 0.023917 0.062800
vt 0.033521 0.151038
vt 0.033521 0.199833
vt 0.023917 0.199833
vt 0.023917 0.151038
vt 0.033521 0.434645
vt 0.033521 0.478764
vt 0.033521 0.390526
vt 0.023917 0.390526
vt 0.014312 0.390526
vt 0.014312 0.341731
vt 0.023917 0.341731
vt 0.023917 0.390526
vt 0.033521 0.341731
vt 0.014312 0.199833
vt 0.023917 0.199833
vt 0.014312 0.151038
vt 0.023917 0.151038
vt 0.014312 0.106919
vt 0.023917 0.106919
vt 0.014312 0.062800
vt 0.023917 0.062800
vt 0.738281 0.389832
vt 0.743496 0.394289
vt 0.739930 0.398462
vt 0.734715 0.394004
vt 0.734715 0.244455
vt 0.739930 0.239997
vt 0.743496 0.244170
vt 0.738281 0.248627
vt 0.597658 0.431873
vt 0.604518 0.431873
vt 0.604519 0.453551
vt 0.597658 0.453551
vt 0.597658 0.426385
vt 0.604518 0.426385
vt 0.612075 0.423812
vt 0.605214 0.423812
vt 0.605214 0.418324
vt 0.612075 0.418324
vt 0.612075 0.393593
vt 0.605214 0.393593
vt 0.605214 0.368862
vt 0.612075 0.368862
vt 0.754978 0.266073
vt 0.748345 0.267827
vt 0.748345 0.370632
vt 0.754978 0.372385
vt 0.749082 0.289492
vt 0.755819 0.290790
vt 0.745853 0.313424
vt 0.740346 0.309331
vt 0.604519 0.475229
vt 0.597658 0.475229
vt 0.749082 0.348967
vt 0.755819 0.347669
vt 0.597658 0.511176
vt 0.604519 0.511175
vt 0.604519 0.518584
vt 0.597658 0.518584
vt 0.604519 0.496906
vt 0.597658 0.496906
vt 0.740347 0.329127
vt 0.745853 0.325035
vt 0.605214 0.344131
vt 0.612075 0.344131
vt 0.612075 0.319400
vt 0.605214 0.319400
vt 0.605214 0.294669
vt 0.612075 0.294669
vt 0.521222 0.594672
vt 0.516876 0.589587
vt 0.522508 0.584774
vt 0.528014 0.588866
vt 0.612075 0.328335
vt 0.605214 0.328335
vt 0.377772 0.508053
vt 0.382118 0.502968
vt 0.388910 0.508774
vt 0.383404 0.512866
vt 0.597658 0.540262
vt 0.604519 0.540262
vt 0.604519 0.561940
vt 0.597658 0.561940
vt 0.398876 0.531407
vt 0.392140 0.532706
vt 0.531244 0.564934
vt 0.537981 0.566233
vt 0.604519 0.583617
vt 0.597658 0.583617
vt 0.530507 0.543269
vt 0.537140 0.541516
vt 0.605214 0.269938
vt 0.612075 0.269938
vt 0.398035 0.556124
vt 0.391403 0.554371
vt 0.612075 0.245207
vt 0.605214 0.245207
vt 0.605214 0.239719
vt 0.612075 0.239719
vt 0.520443 0.524069
vt 0.525658 0.519612
vt 0.386553 0.578028
vt 0.381338 0.573571
vt 0.382987 0.582200
vt 0.377772 0.577743
vt 0.604519 0.589106
vt 0.597658 0.589106
vt 0.516876 0.519897
vt 0.522091 0.515439
vt 0.744272 0.494136
vt 0.749488 0.498593
vt 0.745922 0.502766
vt 0.740706 0.498308
vt 0.761811 0.577541
vt 0.756595 0.581998
vt 0.753030 0.577826
vt 0.758245 0.573368
vt 0.666263 0.431873
vt 0.673123 0.431873
vt 0.673123 0.453551
vt 0.666263 0.453551
vt 0.666263 0.426385
vt 0.673123 0.426385
vt 0.680679 0.423812
vt 0.673819 0.423812
vt 0.673819 0.418324
vt 0.680679 0.418324
vt 0.680679 0.393593
vt 0.673819 0.393593
vt 0.673819 0.368862
vt 0.680679 0.368862
vt 0.741548 0.555922
vt 0.748180 0.554169
vt 0.754337 0.474936
vt 0.760970 0.476690
vt 0.747443 0.532503
vt 0.740706 0.531205
vt 0.750673 0.508571
vt 0.756179 0.512664
vt 0.673123 0.475229
vt 0.666263 0.475229
vt 0.755074 0.453271
vt 0.761811 0.451973
vt 0.666263 0.511175
vt 0.673123 0.511175
vt 0.673123 0.518584
vt 0.666263 0.518584
vt 0.673123 0.496906
vt 0.666263 0.496906
vt 0.746338 0.433432
vt 0.751844 0.429339
vt 0.673819 0.344131
vt 0.680679 0.344131
vt 0.680679 0.319400
vt 0.673819 0.319400
vt 0.673819 0.294669
vt 0.680679 0.294669
vt 0.736361 0.423534
vt 0.740706 0.428618
vt 0.735075 0.433432
vt 0.729568 0.429339
vt 0.680679 0.328335
vt 0.673819 0.328335
vt 0.719602 0.507850
vt 0.723948 0.502766
vt 0.730740 0.508571
vt 0.725234 0.512664
vt 0.666263 0.540262
vt 0.673123 0.540262
vt 0.673123 0.561940
vt 0.666263 0.561940
vt 0.740707 0.531205
vt 0.733970 0.532503
vt 0.726339 0.453271
vt 0.719602 0.451973
vt 0.673123 0.583617
vt 0.666263 0.583617
vt 0.727076 0.474936
vt 0.720443 0.476689
vt 0.673819 0.269938
vt 0.680679 0.269938
vt 0.739865 0.555922
vt 0.733233 0.554169
vt 0.680679 0.245207
vt 0.673819 0.245207
vt 0.673819 0.239719
vt 0.680679 0.239719
vt 0.737140 0.494136
vt 0.731925 0.498593
vt 0.728384 0.577826
vt 0.723168 0.573368
vt 0.724817 0.581998
vt 0.719602 0.577541
vt 0.673123 0.589106
vt 0.666263 0.589106
vt 0.740706 0.498309
vt 0.735491 0.502766
vt 0.739060 0.319229
vt 0.734715 0.314145
vt 0.605214 0.335196
vt 0.612075 0.335196
vt 0.734715 0.324314
vt 0.604519 0.504315
vt 0.597658 0.504315
vt 0.757465 0.502766
vt 0.761811 0.507850
vt 0.673819 0.335196
vt 0.680679 0.335196
vt 0.745052 0.423534
vt 0.673123 0.504315
vt 0.666263 0.504315
vt 0.759385 0.389832
vt 0.764600 0.394289
vt 0.761034 0.398461
vt 0.755819 0.394004
vt 0.776923 0.314772
vt 0.771708 0.319229
vt 0.768142 0.315057
vt 0.773357 0.310600
vt 0.745565 0.504315
vt 0.745565 0.511175
vt 0.723887 0.511176
vt 0.723887 0.504315
vt 0.751053 0.504315
vt 0.751053 0.511175
vt 0.769296 0.328335
vt 0.769296 0.335196
vt 0.763807 0.335196
vt 0.763807 0.328335
vt 0.739076 0.328335
vt 0.739076 0.335196
vt 0.714345 0.335196
vt 0.714345 0.328335
vt 0.756660 0.293153
vt 0.763293 0.291400
vt 0.769449 0.370632
vt 0.776082 0.372385
vt 0.762555 0.269735
vt 0.755819 0.268436
vt 0.765785 0.245803
vt 0.771291 0.249895
vt 0.702209 0.511175
vt 0.702209 0.504315
vt 0.770186 0.348967
vt 0.776923 0.347669
vt 0.590249 0.511176
vt 0.590249 0.504315
vt 0.680532 0.511175
vt 0.680532 0.504315
vt 0.761451 0.329127
vt 0.766957 0.325035
vt 0.689615 0.335196
vt 0.689615 0.328335
vt 0.596279 0.328335
vt 0.596279 0.335196
vt 0.571548 0.335196
vt 0.571548 0.328335
vt 0.403222 0.582201
vt 0.398876 0.577116
vt 0.404508 0.572303
vt 0.410014 0.576395
vt 0.516876 0.441291
vt 0.521222 0.436207
vt 0.528014 0.442013
vt 0.522508 0.446105
vt 0.568572 0.504315
vt 0.568571 0.511176
vt 0.546894 0.511176
vt 0.546894 0.504315
vt 0.537981 0.464646
vt 0.531244 0.465945
vt 0.413244 0.552463
vt 0.419981 0.553761
vt 0.525216 0.511176
vt 0.525216 0.504315
vt 0.412507 0.530798
vt 0.419140 0.529045
vt 0.546817 0.335196
vt 0.546817 0.328335
vt 0.537140 0.489363
vt 0.530507 0.487610
vt 0.522086 0.328335
vt 0.522086 0.335196
vt 0.516597 0.335196
vt 0.516597 0.328335
vt 0.402443 0.511598
vt 0.407658 0.507141
vt 0.525658 0.511267
vt 0.520443 0.506810
vt 0.516876 0.510982
vt 0.519727 0.511176
vt 0.519727 0.504315
vt 0.398876 0.507426
vt 0.404091 0.502968
vt 0.755819 0.324314
vt 0.760164 0.319229
vt 0.772577 0.239997
vt 0.776923 0.245082
vt 0.544490 0.436207
vt 0.551179 0.436207
vt 0.551179 0.497951
vt 0.544490 0.497951
vt 0.430434 0.509724
vt 0.423746 0.509724
vt 0.423746 0.447980
vt 0.430434 0.447980
vt 0.328125 0.703125
vt 0.328125 0.609375
vt 0.250000 0.609375
vt 0.250000 0.703125
vt 0.328125 0.500000
vt 0.250000 0.500000
vt 0.328125 0.312500
vt 0.328125 0.203125
vt 0.250000 0.203125
vt 0.250000 0.312500
vt 0.328125 0.406250
vt 0.250000 0.406250
vt 0.328125 0.109375
vt 0.250000 0.109375
vt 0.328125 0.265625
vt 0.250000 0.265625
vt 0.745089 0.584960
vt 0.734294 0.545167
vt 0.859347 0.545319
vt 0.848562 0.585084
vt 0.848491 0.117003
vt 0.859305 0.156809
vt 0.734269 0.156662
vt 0.745039 0.116910
vt 0.015625 0.500000
vt 0.140625 0.500000
vt 0.140625 0.406250
vt 0.015625 0.406250
vt 0.796772 0.087510
vt 0.856715 0.041986
vt 0.140625 0.609375
vt 0.015625 0.609375
vt 0.673007 0.154674
vt 0.692381 0.085789
vt 0.140625 0.703125
vt 0.015625 0.703125
vt 0.796456 0.026325
vt 0.140625 0.312500
vt 0.015625 0.312500
vt 0.736772 0.659884
vt 0.692435 0.616433
vt 0.140625 0.203125
vt 0.015625 0.203125
vt 0.672994 0.547311
vt 0.140625 0.109375
vt 0.015625 0.109375
vt 0.857088 0.659737
vt 0.796796 0.614474
vt 0.901154 0.085460
vt 0.920632 0.154635
vt 0.920631 0.547326
vt 0.901226 0.616250
vt 0.062500 0.265625
vt 0.140625 0.265625
vt 0.062500 0.703125
vt 0.015625 0.265625
vt 0.736434 0.042321
vt 0.796899 0.675669
s 1
usemtl lamp_1_on_yellow
f 403/689/141 402/690/142 418/691/143 422/692/144
f 401/693/145 415/694/146 418/691/143 402/690/142
f 411/690/147 410/693/148 456/694/149 459/691/150
f 407/695/151 408/696/152 444/697/153 441/698/154
f 413/699/155 407/695/151 441/698/154 437/700/156
f 412/689/157 411/690/147 459/691/150 463/692/158
f 405/696/159 406/701/160 433/702/161 429/697/162
f 408/696/152 409/701/163 448/702/164 444/697/153
f 406/703/160 403/689/141 422/692/144 433/704/161
f 432/705/165 436/706/166 464/707/167 460/708/168
f 447/709/169 451/710/170 423/711/171 419/712/172
f 404/695/173 405/696/159 429/697/162 426/698/174
f 414/699/175 452/700/176 456/694/149 410/693/148
f 409/703/163 412/689/157 463/692/158 448/704/164
f 416/713/177 417/714/178 440/715/179 439/716/180
f 438/717/181 443/718/182 447/709/169
f 421/719/183 418/691/143 415/694/146 417/714/178
f 420/720/184 421/719/183 417/714/178 416/713/177
f 419/712/172 423/711/171 424/721/185 420/722/184
f 425/723/186 422/692/144 418/691/143 421/719/183
f 424/724/185 425/723/186 421/719/183 420/720/184
f 438/717/181 439/725/180 443/718/182
f 453/715/187 452/700/176 426/698/174 427/726/188
f 454/716/189 453/715/187 427/726/188 428/727/190
f 432/705/165 428/728/190 431/729/191
f 426/698/174 429/697/162 430/730/192 427/726/188
f 427/726/188 430/730/192 431/731/191 428/727/190
f 436/706/166 432/705/165 431/729/191 435/732/193
f 429/697/162 433/702/161 434/733/194 430/730/192
f 430/730/192 434/733/194 435/734/193 431/731/191
f 460/708/168 457/735/195 455/736/196
f 437/700/156 441/698/154 442/726/197 440/715/179
f 440/715/179 442/726/197 443/727/182 439/716/180
f 441/698/154 444/697/153 445/730/198 442/726/197
f 442/726/197 445/730/198 446/731/199 443/727/182
f 451/710/170 447/709/169 446/737/199 450/738/200
f 444/697/153 448/702/164 449/733/201 445/730/198
f 445/730/198 449/733/201 450/734/200 446/731/199
f 401/693/145 413/699/155 437/700/156 415/694/146
f 458/714/202 456/694/149 452/700/176 453/715/187
f 457/713/195 458/714/202 453/715/187 454/716/189
f 428/728/190 432/705/165 455/736/196
f 462/719/203 459/691/150 456/694/149 458/714/202
f 461/720/204 462/719/203 458/714/202 457/713/195
f 460/708/168 464/707/167 465/739/205 461/740/204
f 466/723/206 463/692/158 459/691/150 462/719/203
f 465/724/205 466/723/206 462/719/203 461/720/204
f 404/695/173 426/698/174 452/700/176 414/699/175
f 435/741/193 434/742/194 425/723/186 424/743/185
f 423/711/171 436/706/166 435/732/193 424/721/185
f 434/742/194 433/704/161 422/692/144 425/723/186
f 466/723/206 449/742/201 448/704/164 463/692/158
f 465/724/205 450/744/200 449/742/201 466/723/206
f 415/694/146 437/700/156 440/715/179 417/714/178
f 450/738/200 465/739/205 464/707/167 451/710/170
f 423/711/171 451/710/170 464/707/167 436/706/166
f 432/705/165 460/708/168 455/736/196
f 438/717/181 447/709/169 419/712/172
f 438/717/181 419/712/172 416/745/177
f 446/737/199 447/709/169 443/718/182
f 416/745/177 419/712/172 420/722/184
f 416/745/177 439/725/180 438/717/181
f 457/735/195 454/746/189 455/736/196
f 457/735/195 460/708/168 461/740/204
f 428/728/190 455/736/196 454/746/189
usemtl metal_mp_4
f 1/1/1 2/2/1 4/3/1 3/4/1
f 3/5/2 4/6/2 6/7/2 5/8/2
f 5/9/3 6/10/3 8/11/3 7/12/3
f 7/12/4 8/11/4 10/13/4 9/14/4
f 4/15/5 2/16/5 12/17/5 10/18/5 8/19/5 6/20/5
f 9/21/6 10/22/6 12/23/6 11/24/6
f 11/25/7 12/26/7 2/2/7 1/1/7
f 13/27/8 14/28/8 16/29/8 15/30/8
f 15/31/9 16/32/9 18/33/9 17/34/9
f 17/34/10 18/33/10 20/35/10 19/36/10
f 19/37/11 20/38/11 22/39/11 21/40/11
f 16/41/5 14/42/5 24/43/5 22/44/5 20/45/5 18/46/5
f 21/47/12 22/48/12 24/49/12 23/50/12
f 23/50/13 24/49/13 14/51/13 13/52/13
f 121/168/92 124/169/93 119/170/93 118/171/92
f 116/172/15 114/173/15 120/174/94 123/175/94
f 117/176/16 118/177/16 119/178/16 120/179/16 114/180/16 113/181/16
f 115/182/14 116/183/14 123/184/14 124/185/14 121/186/14 122/187/14
f 117/188/95 122/189/95 121/168/92 118/171/92
f 123/175/94 120/174/94 119/170/93 124/169/93
f 113/190/19 115/191/19 122/189/95 117/188/95
f 133/192/92 136/193/93 131/194/93 130/195/92
f 128/196/15 126/197/15 132/198/94 135/199/94
f 129/200/16 130/201/16 131/202/16 132/203/16 126/204/16 125/205/16
f 127/206/14 128/207/14 135/208/14 136/209/14 133/210/14 134/211/14
f 129/212/95 134/213/95 133/192/92 130/195/92
f 135/199/94 132/198/94 131/194/93 136/193/93
f 125/214/19 127/215/19 134/213/95 129/212/95
f 145/216/92 148/217/93 143/218/93 142/219/92
f 140/220/15 138/221/15 144/222/94 147/223/94
f 141/224/16 142/225/16 143/226/16 144/227/16 138/228/16 137/229/16
f 139/230/14 140/231/14 147/232/14 148/233/14 145/234/14 146/235/14
f 141/236/95 146/237/95 145/216/92 142/219/92
f 147/223/94 144/222/94 143/218/93 148/217/93
f 137/238/19 139/239/19 146/237/95 141/236/95
f 157/195/92 160/194/93 155/219/93 154/218/92
f 152/197/15 150/238/15 156/236/94 159/198/94
f 153/240/16 154/241/16 155/242/16 156/243/16 150/244/16 149/245/16
f 151/246/14 152/247/14 159/248/14 160/249/14 157/250/14 158/251/14
f 153/222/95 158/212/95 157/195/92 154/218/92
f 159/198/94 156/236/94 155/219/93 160/194/93
f 149/221/19 151/214/19 158/212/95 153/222/95
f 169/193/29 172/192/28 167/252/28 166/253/29
f 164/215/16 162/254/16 168/255/25 171/213/25
f 165/256/19 166/257/19 167/258/19 168/259/19 162/260/19 161/205/19
f 163/180/15 164/261/15 171/262/15 172/263/15 169/264/15 170/265/15
f 165/266/20 170/199/20 169/193/29 166/253/29
f 171/213/25 168/255/25 167/252/28 172/192/28
f 161/267/14 163/196/14 170/199/20 165/266/20
f 181/268/29 184/269/28 179/270/28 178/271/29
f 176/272/16 174/273/16 180/274/25 183/275/25
f 177/276/19 178/277/19 179/278/19 180/279/19 174/244/19 173/280/19
f 175/281/15 176/282/15 183/283/15 184/258/15 181/257/15 182/284/15
f 177/285/20 182/286/20 181/268/29 178/271/29
f 183/275/25 180/274/25 179/270/28 184/269/28
f 173/287/14 175/288/14 182/286/20 177/285/20
f 193/271/92 196/270/93 191/169/93 190/168/92
f 188/273/15 186/172/15 192/175/94 195/274/94
f 189/289/16 190/290/16 191/291/16 192/292/16 186/281/16 185/293/16
f 187/294/14 188/295/14 195/235/14 196/296/14 193/297/14 194/298/14
f 189/189/95 194/285/95 193/271/92 190/168/92
f 195/274/94 192/175/94 191/169/93 196/270/93
f 185/191/19 187/287/19 194/285/95 189/189/95
f 205/269/92 208/268/93 203/217/93 202/216/92
f 200/288/15 198/220/15 204/223/94 207/286/94
f 201/299/16 202/300/16 203/301/16 204/302/16 198/303/16 197/304/16
f 199/205/14 200/204/14 207/305/14 208/306/14 205/307/14 206/256/14
f 201/237/95 206/275/95 205/269/92 202/216/92
f 207/286/94 204/223/94 203/217/93 208/268/93
f 197/239/19 199/272/19 206/275/95 201/237/95
f 265/404/16 266/405/16 268/406/16 267/407/16
f 271/408/14 272/409/14 270/410/14 269/411/14
f 265/412/108 269/413/108 275/414/109 273/415/109
f 267/416/19 271/417/19 269/413/108 265/412/108
f 272/418/15 268/419/15 266/420/110 270/421/110
f 276/422/111 274/423/111 278/424/112 280/425/112
f 270/421/110 266/420/110 274/423/111 276/422/111
f 269/411/14 270/410/14 276/426/14 275/427/14
f 266/405/16 265/404/16 273/428/16 274/429/16
f 279/430/14 280/431/14 284/432/14 283/433/14
f 275/427/14 276/426/14 280/431/14 279/430/14
f 273/415/109 275/414/109 279/434/113 277/435/113
f 274/429/16 273/428/16 277/436/16 278/437/16
f 397/438/114 394/439/114 287/440/115 285/441/115
f 277/435/113 279/434/113 283/442/116 281/443/116
f 278/437/16 277/436/16 281/444/16 282/445/16
f 280/425/112 278/424/112 282/446/117 284/447/117
f 288/448/118 286/449/118 290/450/119 292/451/119
f 400/452/16 397/453/16 285/454/16 286/455/16
f 396/456/5 400/457/5 286/449/118 288/448/118
f 394/458/14 396/459/14 288/460/14 287/461/14
f 289/462/120 291/463/120 295/464/121 293/465/121
f 287/461/14 288/460/14 292/466/14 291/467/14
f 285/441/115 287/440/115 291/463/120 289/462/120
f 286/455/16 285/454/16 289/468/16 290/469/16
f 293/465/121 295/464/121 299/470/122 297/471/122
f 290/469/16 289/468/16 293/472/16 294/473/16
f 292/451/119 290/450/119 294/474/123 296/475/123
f 291/467/14 292/466/14 296/476/14 295/477/14
f 300/478/124 298/479/124 302/480/19 304/481/19
f 294/473/16 293/472/16 297/482/16 298/483/16
f 296/475/123 294/474/123 298/479/124 300/478/124
f 295/477/14 296/476/14 300/484/14 299/485/14
f 299/485/14 300/484/14 304/486/14 303/487/14
f 297/471/122 299/470/122 303/488/15 301/489/15
f 298/483/16 297/482/16 301/490/16 302/491/16
f 305/492/16 306/493/16 308/494/16 307/495/16
f 311/496/14 312/497/14 310/498/14 309/499/14
f 305/500/108 309/501/108 315/502/109 313/503/109
f 307/504/19 311/505/19 309/501/108 305/500/108
f 312/506/15 308/507/15 306/508/110 310/509/110
f 316/510/111 314/511/111 318/512/112 320/513/112
f 310/509/110 306/508/110 314/511/111 316/510/111
f 309/499/14 310/498/14 316/514/14 315/515/14
f 306/493/16 305/492/16 313/516/16 314/517/16
f 319/518/14 320/519/14 324/520/14 323/521/14
f 315/515/14 316/514/14 320/519/14 319/518/14
f 313/503/109 315/502/109 319/522/113 317/523/113
f 314/517/16 313/516/16 317/524/16 318/525/16
f 349/526/114 393/527/114 327/528/115 325/529/115
f 317/523/113 319/522/113 323/530/116 321/531/116
f 318/525/16 317/524/16 321/532/16 322/533/16
f 320/513/112 318/512/112 322/534/117 324/535/117
f 328/536/118 326/537/118 330/538/119 332/539/119
f 392/540/16 349/541/16 325/542/16 326/543/16
f 350/544/5 392/545/5 326/537/118 328/536/118
f 393/546/14 350/547/14 328/548/14 327/549/14
f 329/550/120 331/551/120 335/552/121 333/553/121
f 327/549/14 328/548/14 332/554/14 331/555/14
f 325/529/115 327/528/115 331/551/120 329/550/120
f 326/543/16 325/542/16 329/556/16 330/557/16
f 333/553/121 335/552/121 339/558/122 337/559/122
f 330/557/16 329/556/16 333/560/16 334/561/16
f 332/539/119 330/538/119 334/562/123 336/563/123
f 331/555/14 332/554/14 336/564/14 335/565/14
f 340/566/124 338/567/124 342/568/19 344/569/19
f 334/561/16 333/560/16 337/570/16 338/571/16
f 336/563/123 334/562/123 338/567/124 340/566/124
f 335/565/14 336/564/14 340/572/14 339/573/14
f 339/573/14 340/572/14 344/574/14 343/575/14
f 337/559/122 339/558/122 343/576/15 341/577/15
f 338/571/16 337/570/16 341/578/16 342/579/16
f 283/433/14 284/432/14 345/580/14 395/581/14
f 284/447/117 282/446/117 399/582/5 345/583/5
f 282/445/16 281/444/16 398/584/16 399/580/16
f 281/443/116 283/442/116 395/585/114 398/586/114
f 345/583/5 399/582/5 400/457/5 396/456/5
f 398/586/114 395/585/114 394/439/114 397/438/114
f 323/521/14 324/520/14 348/587/14 346/588/14
f 324/535/117 322/534/117 347/589/5 348/590/5
f 322/533/16 321/532/16 391/541/16 347/591/16
f 321/531/116 323/530/116 346/592/114 391/593/114
f 348/590/5 347/589/5 392/545/5 350/544/5
f 391/593/114 346/592/114 393/527/114 349/526/114
f 351/594/15 352/595/15 354/596/15 353/597/15
f 357/598/19 358/599/19 356/600/19 355/601/19
f 351/602/125 355/603/125 361/604/126 359/605/126
f 353/606/16 357/607/16 355/603/125 351/602/125
f 358/608/14 354/609/14 352/610/127 356/611/127
f 362/612/128 360/613/128 364/614/129 366/615/129
f 356/611/127 352/610/127 360/613/128 362/612/128
f 355/601/19 356/600/19 362/616/19 361/617/19
f 352/595/15 351/594/15 359/618/15 360/619/15
f 365/620/19 366/621/19 370/622/19 369/623/19
f 361/617/19 362/616/19 366/621/19 365/620/19
f 359/605/126 361/604/126 365/624/130 363/625/130
f 360/619/15 359/618/15 363/626/15 364/627/15
f 398/586/114 397/438/114 373/628/131 371/629/131
f 363/625/130 365/624/130 369/630/132 367/631/132
f 364/627/15 363/626/15 367/632/15 368/633/15
f 366/615/129 364/614/129 368/634/133 370/635/133
f 374/636/134 372/637/134 376/638/135 378/639/135
f 399/640/15 398/641/15 371/642/15 372/643/15
f 400/457/5 399/582/5 372/637/134 374/636/134
f 397/644/19 400/645/19 374/646/19 373/647/19
f 375/648/136 377/649/136 381/650/137 379/651/137
f 373/647/19 374/646/19 378/652/19 377/653/19
f 371/629/131 373/628/131 377/649/136 375/648/136
f 372/643/15 371/642/15 375/654/15 376/655/15
f 379/651/137 381/650/137 385/656/138 383/657/138
f 376/655/15 375/654/15 379/658/15 380/659/15
f 378/639/135 376/638/135 380/660/139 382/661/139
f 377/653/19 378/652/19 382/662/19 381/663/19
f 386/664/140 384/665/140 388/666/16 390/667/16
f 380/659/15 379/658/15 383/668/15 384/669/15
f 382/661/139 380/660/139 384/665/140 386/664/140
f 381/663/19 382/662/19 386/670/19 385/671/19
f 385/671/19 386/670/19 390/491/19 389/672/19
f 383/657/138 385/656/138 389/673/14 387/674/14
f 384/669/15 383/668/15 387/675/15 388/676/15
f 367/631/132 369/630/132 393/527/114 346/592/114
f 368/633/15 367/632/15 346/677/15 348/678/15
f 370/635/133 368/634/133 348/590/5 350/544/5
f 369/623/19 370/622/19 350/679/19 393/680/19
f 349/681/19 392/682/19 396/683/19 394/684/19
f 392/545/5 347/589/5 345/583/5 396/456/5
f 347/685/15 391/686/15 395/687/15 345/688/15
f 391/593/114 349/526/114 394/439/114 395/585/114
usemtl plastic_mp_2
f 33/53/5 34/54/5 35/55/5 36/56/5
f 37/57/14 40/58/14 35/59/14 34/60/14
f 39/61/15 32/62/15 27/63/15 36/64/15
f 25/60/16 28/59/16 31/58/16 30/57/16
f 29/65/4 26/66/4 25/60/4 30/57/4
f 27/67/17 32/68/17 31/58/17 28/59/17
f 33/66/18 38/65/18 37/57/18 34/60/18
f 39/68/1 36/67/1 35/59/1 40/58/1
f 29/62/19 38/61/19 33/64/19 26/63/19
f 26/69/5 33/53/5 36/56/5 27/70/5
f 25/71/5 26/69/5 27/70/5 28/72/5
f 54/73/20 49/74/21 52/75/22 55/76/23
f 42/77/24 45/78/25 48/79/26 43/80/27
f 46/81/28 53/82/29 56/83/30 47/84/31
f 41/85/32 42/77/24 43/80/27 44/86/33
f 47/84/31 48/79/26 45/78/25 46/81/28
f 55/76/23 56/83/30 53/82/29 54/73/20
f 51/87/34 52/75/22 49/74/21 50/88/35
f 56/89/30 64/90/36 59/91/37 47/92/31
f 51/93/34 61/94/38 62/95/39 52/96/22
f 55/97/23 63/98/40 64/90/36 56/89/30
f 47/92/31 59/91/37 60/99/41 48/100/26
f 52/96/22 62/95/39 63/98/40 55/97/23
f 57/101/42 65/102/43 66/103/44 58/104/45
f 48/100/26 60/99/41 57/101/42 43/105/27
f 60/99/41 68/106/46 65/102/43 57/101/42
f 63/98/40 71/107/47 72/108/48 64/90/36
f 64/90/36 72/108/48 67/109/49 59/91/37
f 62/95/39 70/110/50 71/107/47 63/98/40
f 61/94/38 69/111/51 70/110/50 62/95/39
f 59/91/37 67/109/49 68/106/46 60/99/41
f 68/112/46 76/113/52 73/114/53 65/115/43
f 71/116/47 79/117/54 80/118/55 72/119/48
f 65/115/43 73/114/53 74/120/56 66/121/44
f 72/119/48 80/118/55 75/122/57 67/123/49
f 69/124/51 77/125/58 78/126/59 70/127/50
f 67/123/49 75/122/57 76/113/52 68/112/46
f 70/127/50 78/126/59 79/117/54 71/116/47
f 81/128/60 89/129/61 90/130/62 82/131/63
f 77/132/58 85/133/64 86/134/65 78/135/59
f 75/136/57 83/137/66 84/138/67 76/139/52
f 78/135/59 86/134/65 87/140/68 79/141/54
f 76/139/52 84/138/67 81/128/60 73/142/53
f 79/141/54 87/140/68 88/143/69 80/144/55
f 73/142/53 81/128/60 82/131/63 74/145/56
f 80/144/55 88/143/69 83/137/66 75/136/57
f 94/146/70 102/147/71 103/148/72 95/149/73
f 88/143/69 96/150/74 91/151/75 83/137/66
f 85/133/64 93/152/76 94/146/70 86/134/65
f 83/137/66 91/151/75 92/153/77 84/138/67
f 86/134/65 94/146/70 95/149/73 87/140/68
f 84/138/67 92/153/77 89/129/61 81/128/60
f 87/140/68 95/149/73 96/150/74 88/143/69
f 99/154/78 107/155/79 108/156/80 100/157/81
f 92/153/77 100/157/81 97/158/82 89/129/61
f 95/149/73 103/148/72 104/159/83 96/150/74
f 89/129/61 97/158/82 98/160/84 90/130/62
f 96/150/74 104/159/83 99/154/78 91/151/75
f 93/152/76 101/161/85 102/147/71 94/146/70
f 91/151/75 99/154/78 100/157/81 92/153/77
f 102/147/71 110/162/86 111/163/87 103/148/72
f 100/157/81 108/156/80 105/164/88 97/158/82
f 103/148/72 111/163/87 112/165/89 104/159/83
f 97/158/82 105/164/88 106/166/90 98/160/84
f 104/159/83 112/165/89 107/155/79 99/154/78
f 101/161/85 109/167/91 110/162/86 102/147/71
f 43/105/27 57/101/42 58/104/45 44/308/33
f 219/309/16 214/310/96 261/311/96 253/312/16
f 239/313/14 240/314/97 224/315/97 226/316/14
f 245/317/98 248/318/99 228/319/99 230/320/98
f 247/321/100 239/322/14 226/316/14 231/315/100
f 248/318/99 237/323/96 227/324/96 228/319/99
f 238/325/16 246/326/101 235/324/101 229/327/16
f 237/323/96 238/328/16 229/327/16 227/324/96
f 242/329/102 245/317/98 230/320/98 225/330/102
f 244/331/103 249/332/104 232/333/104 233/330/103
f 243/334/105 244/331/103 233/330/103 236/320/105
f 249/332/104 247/321/100 231/315/100 232/333/104
f 241/335/106 242/329/102 225/330/102 223/333/106
f 250/336/107 243/334/105 236/320/105 234/319/107
f 240/314/97 241/335/106 223/333/106 224/315/97
f 246/326/101 250/336/107 234/319/107 235/324/101
f 217/337/5 216/338/5 238/339/5 237/340/5
f 219/341/5 220/342/5 240/343/5 239/344/5
f 220/342/5 221/345/5 241/346/5 240/343/5
f 221/345/5 222/347/5 242/348/5 241/346/5
f 213/349/5 215/350/5 244/351/5 243/352/5
f 222/347/5 218/353/5 245/354/5 242/348/5
f 216/338/5 212/355/5 246/356/5 238/339/5
f 214/357/5 219/341/5 239/344/5 247/358/5
f 218/353/5 211/359/5 248/360/5 245/354/5
f 211/359/5 217/337/5 237/340/5 248/360/5
f 215/350/5 210/361/5 249/362/5 244/351/5
f 210/361/5 214/357/5 247/358/5 249/362/5
f 209/363/5 213/349/5 243/352/5 250/364/5
f 212/355/5 209/363/5 250/364/5 246/356/5
f 252/365/5 251/366/5 262/367/5 259/368/5 256/369/5 255/370/5 254/371/5 253/372/5 261/373/5 263/374/5 258/375/5 257/376/5 264/377/5 260/378/5
f 216/379/14 217/380/100 251/381/100 252/382/14
f 211/383/104 218/384/103 259/385/103 262/386/104
f 220/387/101 219/388/16 253/312/16 254/311/101
f 217/380/100 211/383/104 262/386/104 251/381/100
f 221/389/107 220/387/101 254/311/101 255/390/107
f 210/391/99 215/392/98 258/393/98 263/394/99
f 222/395/105 221/389/107 255/390/107 256/393/105
f 214/310/96 210/391/99 263/394/99 261/311/96
f 215/392/98 213/396/102 257/397/102 258/393/98
f 213/396/102 209/398/106 264/399/106 257/397/102
f 218/384/103 222/395/105 256/393/105 259/385/103
f 209/398/106 212/400/97 260/401/97 264/399/106
f 212/400/97 216/402/14 252/403/14 260/401/97
