# Blender 5.0.1
# www.blender.org
mtllib lamp_5_1_on.mtl
o lamp_5_1_on_protector
v -0.182010 -0.030000 0.155000
v -0.182010 -0.030000 0.145000
v -0.182010 -0.020000 0.155000
v -0.182010 -0.020000 0.145000
v -0.195667 0.045661 0.155000
v -0.188837 0.038831 0.155000
v -0.188837 0.038831 0.145000
v -0.195667 0.045661 0.145000
v -0.202010 -0.010000 0.155000
v -0.202010 -0.010000 0.145000
v -0.192010 -0.010000 0.155000
v -0.192010 -0.010000 0.145000
v -0.202007 0.032000 0.155000
v -0.202007 0.032000 0.145000
v -0.192007 0.032000 0.155000
v -0.192007 0.032000 0.145000
v -0.182007 0.052000 0.155000
v -0.182007 0.052000 0.145000
v -0.182007 0.042000 0.155000
v -0.182007 0.042000 0.145000
v 0.182980 -0.030000 0.145000
v 0.182980 -0.030000 0.155000
v 0.182980 -0.020000 0.145000
v 0.182980 -0.020000 0.155000
v 0.196637 0.045661 0.145000
v 0.189807 0.038830 0.145000
v 0.189807 0.038830 0.155000
v 0.196637 0.045661 0.155000
v 0.202980 -0.010000 0.145000
v 0.202980 -0.010000 0.155000
v 0.192980 -0.010000 0.145000
v 0.192980 -0.010000 0.155000
v 0.202976 0.032000 0.145000
v 0.202976 0.032000 0.155000
v 0.192976 0.032000 0.145000
v 0.192976 0.032000 0.155000
v -0.195671 -0.023660 0.155000
v -0.188840 -0.016830 0.155000
v -0.188840 -0.016830 0.145000
v -0.195671 -0.023660 0.145000
v 0.182976 0.052000 0.145000
v 0.182976 0.052000 0.155000
v 0.182976 0.042000 0.145000
v 0.182976 0.042000 0.155000
v 0.196640 -0.023660 0.065000
v 0.189810 -0.016830 0.065000
v 0.189810 -0.016830 0.075000
v 0.196640 -0.023660 0.075000
v -0.172007 0.042000 0.065000
v -0.172007 0.042000 0.075000
v -0.172007 0.052000 0.065000
v -0.172007 0.052000 0.075000
v 0.172977 0.042000 0.075000
v 0.172977 0.042000 0.065000
v 0.172977 0.052000 0.075000
v 0.172977 0.052000 0.065000
v 0.182976 0.042000 0.075000
v 0.182976 0.042000 0.065000
v 0.182976 0.052000 0.075000
v 0.182976 0.052000 0.065000
v -0.195671 -0.023660 0.065000
v -0.188840 -0.016830 0.065000
v -0.188840 -0.016830 0.075000
v -0.195671 -0.023660 0.075000
v 0.192976 0.032000 0.075000
v 0.192976 0.032000 0.065000
v 0.202976 0.032000 0.075000
v 0.202976 0.032000 0.065000
v 0.192980 -0.010000 0.075000
v 0.192980 -0.010000 0.065000
v 0.202980 -0.010000 0.075000
v 0.202980 -0.010000 0.065000
v 0.196637 0.045661 0.075000
v 0.189807 0.038830 0.075000
v 0.189807 0.038830 0.065000
v 0.196637 0.045661 0.065000
v 0.182980 -0.020000 0.075000
v 0.182980 -0.020000 0.065000
v 0.182980 -0.030000 0.075000
v 0.182980 -0.030000 0.065000
v 0.172977 0.052000 0.145000
v 0.172977 0.052000 0.155000
v 0.172977 0.042000 0.145000
v 0.172977 0.042000 0.155000
v -0.182007 0.042000 0.065000
v -0.182007 0.042000 0.075000
v -0.182007 0.052000 0.065000
v -0.182007 0.052000 0.075000
v -0.192007 0.032000 0.065000
v -0.192007 0.032000 0.075000
v -0.202007 0.032000 0.065000
v -0.202007 0.032000 0.075000
v -0.192010 -0.010000 0.065000
v -0.192010 -0.010000 0.075000
v -0.202010 -0.010000 0.065000
v -0.202010 -0.010000 0.075000
v -0.172007 0.052000 0.155000
v -0.172007 0.052000 0.145000
v -0.172007 0.042000 0.155000
v -0.172007 0.042000 0.145000
v -0.195667 0.045661 0.065000
v -0.188837 0.038831 0.065000
v -0.188837 0.038831 0.075000
v -0.195667 0.045661 0.075000
v -0.182010 -0.020000 0.065000
v -0.182010 -0.020000 0.075000
v -0.182010 -0.030000 0.065000
v -0.182010 -0.030000 0.075000
v -0.005010 0.045661 0.246657
v -0.005010 0.038830 0.239827
v 0.004990 0.038830 0.239827
v 0.004990 0.045661 0.246657
v -0.005010 -0.010000 0.233000
v 0.004990 -0.010000 0.233000
v -0.005010 -0.020000 0.233000
v 0.004990 -0.020000 0.233000
v -0.005010 0.042000 0.222997
v 0.004990 0.042000 0.222997
v -0.005010 0.052000 0.222997
v 0.004990 0.052000 0.222997
v -0.005010 -0.013660 0.246660
v -0.005010 -0.006830 0.239830
v 0.004990 -0.006830 0.239830
v 0.004990 -0.013660 0.246660
v 0.004990 -0.010000 -0.009990
v -0.005010 -0.010000 -0.009990
v 0.004990 -0.020000 -0.009990
v -0.005010 -0.020000 -0.009990
v -0.005010 0.042000 0.232997
v 0.004990 0.042000 0.232997
v -0.005010 0.052000 0.232997
v 0.004990 0.052000 0.232997
v -0.005010 0.032000 0.242997
v 0.004990 0.032000 0.242997
v -0.005010 0.032000 0.252997
v 0.004990 0.032000 0.252997
v -0.005010 0.000000 0.243000
v 0.004990 0.000000 0.243000
v -0.005010 0.000000 0.253000
v 0.004990 0.000000 0.253000
v 0.196640 -0.023660 0.155000
v 0.189810 -0.016830 0.155000
v 0.189810 -0.016830 0.145000
v 0.196640 -0.023660 0.145000
v 0.094990 0.045661 0.246657
v 0.094990 0.038830 0.239827
v 0.104990 0.038830 0.239827
v 0.104990 0.045661 0.246657
v 0.094990 -0.010000 0.233000
v 0.104990 -0.010000 0.233000
v 0.094990 -0.020000 0.233000
v 0.104990 -0.020000 0.233000
v 0.094990 0.042000 0.222997
v 0.104990 0.042000 0.222997
v 0.094990 0.052000 0.222997
v 0.104990 0.052000 0.222997
v 0.094990 -0.013660 0.246660
v 0.094990 -0.006830 0.239830
v 0.104990 -0.006830 0.239830
v 0.104990 -0.013660 0.246660
v 0.104990 -0.010000 -0.009990
v 0.094990 -0.010000 -0.009990
v 0.104990 -0.020000 -0.009990
v 0.094990 -0.020000 -0.009990
v 0.094990 0.042000 0.232997
v 0.104990 0.042000 0.232997
v 0.094990 0.052000 0.232997
v 0.104990 0.052000 0.232997
v 0.094990 0.032000 0.242997
v 0.104990 0.032000 0.242997
v 0.094990 0.032000 0.252997
v 0.104990 0.032000 0.252997
v 0.094990 0.000000 0.243000
v 0.104990 0.000000 0.243000
v 0.094990 0.000000 0.253000
v 0.104990 0.000000 0.253000
v -0.105010 0.045661 0.246657
v -0.105010 0.038830 0.239827
v -0.095010 0.038830 0.239827
v -0.095010 0.045661 0.246657
v -0.105010 -0.010000 0.233000
v -0.095010 -0.010000 0.233000
v -0.105010 -0.020000 0.233000
v -0.095010 -0.020000 0.233000
v -0.105010 0.042000 0.222997
v -0.095010 0.042000 0.222997
v -0.105010 0.052000 0.222997
v -0.095010 0.052000 0.222997
v -0.105010 -0.013660 0.246660
v -0.105010 -0.006830 0.239830
v -0.095010 -0.006830 0.239830
v -0.095010 -0.013660 0.246660
v -0.095010 -0.010000 -0.009990
v -0.105010 -0.010000 -0.009990
v -0.095010 -0.020000 -0.009990
v -0.105010 -0.020000 -0.009990
v -0.105010 0.042000 0.232997
v -0.095010 0.042000 0.232997
v -0.105010 0.052000 0.232997
v -0.095010 0.052000 0.232997
v -0.105010 0.032000 0.242997
v -0.095010 0.032000 0.242997
v -0.105010 0.032000 0.252997
v -0.095010 0.032000 0.252997
v -0.105010 0.000000 0.243000
v -0.095010 0.000000 0.243000
v -0.105010 0.000000 0.253000
v -0.095010 0.000000 0.253000
vn -0.0000 -0.0000 -1.0000
vn -0.0000 1.0000 -0.0000
vn -0.0000 -0.0000 1.0000
vn 0.7072 0.7070 -0.0000
vn 0.9659 0.2590 -0.0000
vn -0.7072 -0.7070 -0.0000
vn -0.9659 -0.2590 -0.0000
vn -0.9659 -0.2590 0.0001
vn -0.9659 0.2590 -0.0000
vn -0.7072 0.7070 -0.0000
vn -0.7072 0.7070 0.0001
vn 0.9659 -0.2590 -0.0000
vn 0.7072 -0.7070 -0.0000
vn -1.0000 0.0001 -0.0000
vn 1.0000 -0.0001 -0.0000
vn 0.7070 -0.7072 -0.0000
vn 0.2590 -0.9659 -0.0000
vn -0.7070 0.7072 -0.0000
vn -0.2590 0.9659 -0.0000
vn 0.9659 -0.2590 -0.0001
vn 0.9659 0.2590 0.0001
vn 1.0000 0.0001 -0.0000
vn -1.0000 -0.0001 -0.0000
vn -0.7070 -0.7072 -0.0000
vn -0.2590 -0.9659 -0.0000
vn 0.7070 0.7072 -0.0000
vn 0.2590 0.9659 -0.0000
vn -0.0000 -1.0000 -0.0000
vn -0.7070 0.7072 -0.0001
vn 1.0000 -0.0000 -0.0000
vn -0.0000 -0.9659 0.2590
vn -0.0000 -0.7072 0.7070
vn -1.0000 -0.0000 -0.0000
vn -0.0000 0.9659 -0.2590
vn -0.0000 0.7072 -0.7070
vn -0.0001 0.7072 0.7070
vn -0.0000 0.9659 0.2590
vn 0.0001 0.9659 0.2590
vn -0.0000 0.7072 0.7070
vn -0.0000 -0.7072 -0.7070
vn -0.0000 -0.9659 -0.2590
vn -0.0000 -0.0001 -1.0000
vn -0.0000 0.7070 -0.7072
vn -0.0000 0.2590 -0.9659
vn -0.0000 0.2590 0.9659
vn -0.0000 0.7070 0.7072
vn -0.0000 0.0001 1.0000
vn -0.0000 -0.2590 -0.9659
vn -0.0000 -0.7070 -0.7072
vn -0.0000 -0.7070 0.7072
vn -0.0000 -0.2590 0.9659
vt 0.443263 0.374202
vt 0.443263 0.535988
vt 0.438830 0.535988
vt 0.438830 0.374202
vt 0.388298 0.394738
vt 0.388298 0.552792
vt 0.383865 0.552792
vt 0.383865 0.394738
vt 0.429078 0.374202
vt 0.429078 0.535988
vt 0.424646 0.535988
vt 0.424646 0.374202
vt 0.441640 0.368147
vt 0.444668 0.371174
vt 0.388298 0.393266
vt 0.383865 0.393266
vt 0.383865 0.394650
vt 0.388298 0.394650
vt 0.379433 0.568797
vt 0.379433 0.572906
vt 0.375000 0.572906
vt 0.375000 0.568797
vt 0.423240 0.371174
vt 0.426268 0.368147
vt 0.420213 0.369769
vt 0.420213 0.365337
vt 0.447695 0.365337
vt 0.447695 0.369769
vt 0.379433 0.591111
vt 0.379433 0.597786
vt 0.375000 0.597786
vt 0.375000 0.591111
vt 0.383865 0.376445
vt 0.383865 0.373107
vt 0.388298 0.373107
vt 0.388298 0.376445
vt 0.466312 0.365338
vt 0.466312 0.369771
vt 0.401596 0.369771
vt 0.401596 0.365338
vt 0.472367 0.368148
vt 0.469340 0.371176
vt 0.383865 0.369769
vt 0.388298 0.369769
vt 0.379433 0.604462
vt 0.375000 0.604462
vt 0.398568 0.371176
vt 0.395541 0.368148
vt 0.397163 0.374203
vt 0.392731 0.374203
vt 0.475177 0.374203
vt 0.470745 0.374203
vt 0.426268 0.542043
vt 0.423240 0.539015
vt 0.383865 0.554263
vt 0.388298 0.554263
vt 0.388298 0.552880
vt 0.383865 0.552880
vt 0.375000 0.405434
vt 0.375000 0.401325
vt 0.379433 0.401325
vt 0.379433 0.405434
vt 0.444668 0.539015
vt 0.441640 0.542043
vt 0.447695 0.540420
vt 0.447695 0.544853
vt 0.420213 0.544853
vt 0.420213 0.540420
vt 0.375000 0.383120
vt 0.375000 0.376445
vt 0.379433 0.376445
vt 0.379433 0.383120
vt 0.388298 0.571085
vt 0.388298 0.574423
vt 0.383865 0.574423
vt 0.383865 0.571085
vt 0.401596 0.544852
vt 0.401596 0.540419
vt 0.466312 0.540419
vt 0.466312 0.544852
vt 0.395541 0.542041
vt 0.398568 0.539014
vt 0.388298 0.577760
vt 0.383865 0.577760
vt 0.375000 0.369769
vt 0.379433 0.369769
vt 0.469340 0.539014
vt 0.472367 0.542041
vt 0.470745 0.535986
vt 0.475177 0.535986
vt 0.392731 0.535986
vt 0.397163 0.535986
vt 0.379433 0.566142
vt 0.375000 0.566142
vt 0.379433 0.408089
vt 0.379433 0.405434
vt 0.383865 0.405434
vt 0.383865 0.408089
vt 0.379433 0.566142
vt 0.383865 0.566142
vt 0.420213 0.374203
vt 0.424646 0.374203
vt 0.424646 0.378636
vt 0.420213 0.378636
vt 0.388298 0.394738
vt 0.388298 0.393266
vt 0.392731 0.393266
vt 0.392731 0.394738
vt 0.388298 0.577760
vt 0.392731 0.577760
vt 0.392731 0.582193
vt 0.388298 0.582193
vt 0.383865 0.369769
vt 0.379433 0.369769
vt 0.379433 0.365337
vt 0.383865 0.365337
vt 0.479610 0.535986
vt 0.475177 0.531554
vt 0.479610 0.531554
vt 0.379433 0.604462
vt 0.383865 0.604462
vt 0.383865 0.608894
vt 0.379433 0.608894
vt 0.479610 0.374203
vt 0.479610 0.378636
vt 0.475177 0.378636
vt 0.484043 0.369771
vt 0.481015 0.371176
vt 0.477988 0.368148
vt 0.484043 0.365338
vt 0.392731 0.552792
vt 0.392731 0.554263
vt 0.388298 0.554263
vt 0.388298 0.552792
vt 0.392731 0.369769
vt 0.388298 0.369769
vt 0.388298 0.365337
vt 0.392731 0.365337
vt 0.424646 0.535986
vt 0.420213 0.535986
vt 0.420213 0.531554
vt 0.424646 0.531554
vt 0.383865 0.568797
vt 0.379433 0.568797
vt 0.423023 0.542041
vt 0.426051 0.539014
vt 0.388298 0.394650
vt 0.388298 0.376445
vt 0.392731 0.376445
vt 0.392731 0.394650
vt 0.502659 0.369769
vt 0.502660 0.365337
vt 0.508715 0.368147
vt 0.505687 0.371174
vt 0.447695 0.544853
vt 0.429078 0.544852
vt 0.429078 0.540419
vt 0.447695 0.540420
vt 0.379433 0.401325
vt 0.379433 0.383120
vt 0.383865 0.383120
vt 0.383865 0.401325
vt 0.388298 0.373107
vt 0.392731 0.373107
vt 0.477988 0.542041
vt 0.481015 0.539014
vt 0.507092 0.374202
vt 0.511525 0.374202
vt 0.379433 0.376445
vt 0.383865 0.376445
vt 0.453750 0.542043
vt 0.450723 0.539015
vt 0.452128 0.535988
vt 0.456560 0.535988
vt 0.423023 0.368148
vt 0.426051 0.371176
vt 0.383865 0.597786
vt 0.379433 0.597786
vt 0.388298 0.574423
vt 0.392731 0.574423
vt 0.429078 0.369771
vt 0.429078 0.365338
vt 0.484043 0.540419
vt 0.484043 0.544852
vt 0.383865 0.591111
vt 0.379433 0.591111
vt 0.447695 0.365337
vt 0.392731 0.552880
vt 0.392731 0.571085
vt 0.388298 0.571085
vt 0.388298 0.552880
vt 0.502660 0.544853
vt 0.502660 0.540420
vt 0.508715 0.542043
vt 0.505687 0.539015
vt 0.383865 0.572906
vt 0.379433 0.572906
vt 0.453750 0.368147
vt 0.450723 0.371174
vt 0.452128 0.374202
vt 0.456560 0.374202
vt 0.507092 0.535988
vt 0.511525 0.535988
vt 0.375000 0.365337
vt 0.379433 0.365337
vt 0.392731 0.531554
vt 0.397163 0.531554
vt 0.388298 0.582193
vt 0.383865 0.582193
vt 0.470745 0.531554
vt 0.379433 0.608894
vt 0.375000 0.608894
vt 0.475177 0.378636
vt 0.470745 0.378636
vt 0.383865 0.365337
vt 0.397163 0.378636
vt 0.392731 0.378636
vt 0.375000 0.408089
vt 0.379433 0.408089
vt 0.511525 0.369769
vt 0.507092 0.369769
vt 0.507092 0.365337
vt 0.511525 0.365337
vt 0.561170 0.473043
vt 0.556738 0.473043
vt 0.556738 0.468611
vt 0.561170 0.468611
vt 0.515958 0.500580
vt 0.520390 0.500580
vt 0.520390 0.505013
vt 0.515958 0.505013
vt 0.511525 0.410655
vt 0.511525 0.518363
vt 0.507092 0.518363
vt 0.507092 0.410655
vt 0.507092 0.403980
vt 0.511525 0.403980
vt 0.529256 0.473045
vt 0.529256 0.365337
vt 0.533688 0.365337
vt 0.533688 0.473045
vt 0.565603 0.589617
vt 0.561170 0.589617
vt 0.561170 0.585184
vt 0.565603 0.585184
vt 0.563981 0.595672
vt 0.567008 0.592644
vt 0.558360 0.479098
vt 0.555333 0.476071
vt 0.520390 0.473045
vt 0.520390 0.476382
vt 0.515958 0.476382
vt 0.515958 0.473045
vt 0.538121 0.477477
vt 0.552305 0.477476
vt 0.552305 0.481909
vt 0.538121 0.481910
vt 0.507092 0.376445
vt 0.511525 0.376445
vt 0.515958 0.497242
vt 0.520390 0.497242
vt 0.590275 0.595673
vt 0.584220 0.598483
vt 0.584220 0.594051
vt 0.587247 0.592646
vt 0.520390 0.479720
vt 0.520390 0.493905
vt 0.515958 0.493905
vt 0.515958 0.479720
vt 0.507092 0.383120
vt 0.511525 0.383120
vt 0.588653 0.589618
vt 0.593085 0.589618
vt 0.570036 0.594049
vt 0.570036 0.598482
vt 0.507092 0.397304
vt 0.511525 0.397304
vt 0.535093 0.476072
vt 0.532066 0.479100
vt 0.588653 0.481910
vt 0.593085 0.481910
vt 0.515958 0.365337
vt 0.520390 0.365337
vt 0.515958 0.369769
vt 0.511525 0.369769
vt 0.511525 0.365337
vt 0.515958 0.365337
vt 0.593085 0.473043
vt 0.588653 0.473043
vt 0.588653 0.468611
vt 0.593085 0.468611
vt 0.524823 0.500580
vt 0.524823 0.505013
vt 0.515958 0.410655
vt 0.515957 0.518363
vt 0.511525 0.518363
vt 0.511525 0.410655
vt 0.511525 0.403980
vt 0.515958 0.403980
vt 0.561170 0.473045
vt 0.561170 0.365337
vt 0.565603 0.365337
vt 0.565603 0.473045
vt 0.597518 0.473043
vt 0.593085 0.473043
vt 0.593085 0.468611
vt 0.597518 0.468611
vt 0.595895 0.479098
vt 0.598923 0.476071
vt 0.590275 0.479098
vt 0.587247 0.476071
vt 0.524823 0.473045
vt 0.524823 0.476382
vt 0.570036 0.477477
vt 0.584220 0.477476
vt 0.584220 0.481909
vt 0.570036 0.481910
vt 0.511525 0.376445
vt 0.515958 0.376445
vt 0.524823 0.497242
vt 0.622190 0.479100
vt 0.616135 0.481910
vt 0.616135 0.477477
vt 0.619162 0.476072
vt 0.524823 0.479720
vt 0.524823 0.493905
vt 0.511525 0.383120
vt 0.515958 0.383120
vt 0.620567 0.473045
vt 0.625000 0.473045
vt 0.601950 0.477476
vt 0.601950 0.481909
vt 0.511525 0.397304
vt 0.515958 0.397304
vt 0.567008 0.476072
vt 0.563981 0.479100
vt 0.620567 0.365337
vt 0.625000 0.365337
vt 0.520390 0.365337
vt 0.524823 0.365337
vt 0.507092 0.369769
vt 0.502660 0.369769
vt 0.502660 0.365337
vt 0.507092 0.365337
vt 0.561170 0.589617
vt 0.556738 0.589617
vt 0.556738 0.585184
vt 0.524823 0.500580
vt 0.529256 0.500580
vt 0.529256 0.505013
vt 0.524823 0.505013
vt 0.507092 0.410655
vt 0.507092 0.518363
vt 0.502660 0.518363
vt 0.502660 0.410655
vt 0.502660 0.403980
vt 0.507092 0.403980
vt 0.529256 0.589618
vt 0.529256 0.481910
vt 0.533688 0.481910
vt 0.533688 0.589618
vt 0.597518 0.589617
vt 0.593085 0.589617
vt 0.593085 0.585184
vt 0.597518 0.585184
vt 0.595895 0.595672
vt 0.598923 0.592644
vt 0.558360 0.595672
vt 0.555333 0.592644
vt 0.529256 0.473045
vt 0.529256 0.476382
vt 0.524823 0.476382
vt 0.524823 0.473045
vt 0.538121 0.594051
vt 0.552305 0.594049
vt 0.552305 0.598482
vt 0.538121 0.598483
vt 0.502660 0.376445
vt 0.507092 0.376445
vt 0.524823 0.497242
vt 0.529256 0.497242
vt 0.622190 0.595673
vt 0.616135 0.598483
vt 0.616135 0.594051
vt 0.619162 0.592646
vt 0.529256 0.479720
vt 0.529256 0.493905
vt 0.524823 0.493905
vt 0.524823 0.479720
vt 0.502660 0.383120
vt 0.507092 0.383120
vt 0.620567 0.589618
vt 0.625000 0.589618
vt 0.601950 0.594049
vt 0.601950 0.598482
vt 0.502660 0.397304
vt 0.507092 0.397304
vt 0.535093 0.592646
vt 0.532066 0.595673
vt 0.620567 0.481910
vt 0.625000 0.481910
vt 0.529255 0.365337
s 0
usemtl metal_mp_4
f 4/1/1 23/2/1 21/3/1 2/4/1
f 3/5/2 24/6/2 23/7/2 4/8/2
f 1/9/3 22/10/3 24/11/3 3/12/3
f 4/1/1 2/4/1 40/13/1 39/14/1
f 38/15/4 39/16/4 12/17/5 11/18/5
f 37/19/6 9/20/7 10/21/8 40/22/6
f 3/12/3 38/23/3 37/24/3 1/9/3
f 11/25/3 9/26/3 37/24/3 38/23/3
f 40/13/1 10/27/1 12/28/1 39/14/1
f 13/29/9 5/30/10 8/31/11 14/32/9
f 16/33/12 7/34/13 6/35/13 15/36/12
f 9/20/14 13/29/14 14/32/14 10/21/14
f 10/27/1 14/37/1 16/38/1 12/28/1
f 12/17/15 16/33/15 15/36/15 11/18/15
f 11/25/3 15/39/3 13/40/3 9/26/3
f 16/38/1 14/37/1 8/41/1 7/42/1
f 6/35/16 7/34/16 20/43/17 19/44/17
f 5/30/18 17/45/19 18/46/19 8/31/18
f 15/39/3 6/47/3 5/48/3 13/40/3
f 19/49/3 17/50/3 5/48/3 6/47/3
f 8/41/1 18/51/1 20/52/1 7/42/1
f 24/11/3 22/10/3 141/53/3 142/54/3
f 143/55/10 142/56/10 32/57/9 31/58/9
f 144/59/13 29/60/12 30/61/20 141/62/13
f 23/2/1 143/63/1 144/64/1 21/3/1
f 31/65/1 29/66/1 144/64/1 143/63/1
f 141/53/3 30/67/3 32/68/3 142/54/3
f 33/69/21 25/70/4 28/71/4 34/72/5
f 36/73/7 27/74/6 26/75/6 35/76/7
f 29/60/22 33/69/22 34/72/22 30/61/22
f 30/67/3 34/77/3 36/78/3 32/68/3
f 32/57/23 36/73/23 35/76/23 31/58/23
f 31/65/1 35/79/1 33/80/1 29/66/1
f 36/78/3 34/77/3 28/81/3 27/82/3
f 26/75/24 27/74/24 44/83/25 43/84/25
f 25/70/26 41/85/27 42/86/27 28/71/26
f 35/79/1 26/87/1 25/88/1 33/80/1
f 43/89/1 41/90/1 25/88/1 26/87/1
f 28/81/3 42/91/3 44/92/3 27/82/3
f 1/93/25 37/19/24 40/22/24 2/94/25
f 4/8/27 39/16/26 38/15/26 3/5/27
f 80/95/17 45/96/16 48/97/16 79/98/17
f 107/99/28 80/95/28 79/98/28 108/100/28
f 88/101/3 86/102/3 50/103/3 52/104/3
f 77/105/19 47/106/18 46/107/18 78/108/19
f 86/109/28 85/110/28 49/111/28 50/112/28
f 59/113/2 60/114/2 56/115/2 55/116/2
f 85/117/1 87/90/1 51/118/1 49/119/1
f 87/120/2 88/121/2 52/122/2 51/123/2
f 60/51/1 58/124/1 54/125/1 56/126/1
f 66/127/1 75/128/1 76/129/1 68/130/1
f 105/131/27 62/132/26 63/133/26 106/134/27
f 58/135/28 57/136/28 53/137/28 54/138/28
f 57/139/3 59/140/3 55/141/3 53/142/3
f 108/100/25 64/143/24 61/144/24 107/99/25
f 73/145/3 59/140/3 57/139/3 74/146/3
f 58/124/1 60/51/1 76/129/1 75/128/1
f 69/147/23 65/148/23 66/149/23 70/150/23
f 70/151/1 72/152/1 45/153/1 46/154/1
f 71/155/3 67/156/3 65/157/3 69/158/3
f 72/159/22 68/160/22 67/161/22 71/162/22
f 65/148/7 74/163/6 75/164/6 66/149/7
f 101/165/1 87/90/1 85/117/1 102/166/1
f 78/167/1 46/154/1 45/153/1 80/168/1
f 68/160/5 76/169/4 73/170/4 67/161/5
f 48/171/3 71/155/3 69/158/3 47/172/3
f 45/96/13 72/159/12 71/162/20 48/97/13
f 46/107/10 47/106/10 69/147/9 70/150/9
f 77/173/3 79/174/3 48/171/3 47/172/3
f 86/102/3 88/101/3 104/175/3 103/176/3
f 104/177/29 88/121/19 87/120/19 101/178/18
f 103/179/16 102/180/16 85/110/17 86/109/17
f 90/181/3 103/176/3 104/175/3 92/182/3
f 89/183/1 91/184/1 101/165/1 102/166/1
f 92/185/9 104/177/10 101/178/10 91/186/9
f 94/28/3 90/181/3 92/182/3 96/187/3
f 93/188/15 89/189/15 90/190/15 94/191/15
f 95/192/1 91/184/1 89/183/1 93/193/1
f 63/133/4 62/132/4 93/188/5 94/191/5
f 61/194/1 95/192/1 93/193/1 62/195/1
f 96/196/14 92/185/14 91/186/14 95/197/14
f 89/189/12 102/180/13 103/179/13 90/190/12
f 94/28/3 96/187/3 64/198/3 63/199/3
f 106/200/3 63/199/3 64/198/3 108/201/3
f 64/143/6 96/196/7 95/197/8 61/144/6
f 105/202/1 107/203/1 61/194/1 62/195/1
f 106/134/2 77/105/2 78/108/2 105/131/2
f 105/202/1 78/167/1 80/168/1 107/203/1
f 42/86/2 41/85/2 81/204/2 82/205/2
f 108/201/3 79/174/3 77/173/3 106/200/3
f 44/92/3 42/91/3 82/206/3 84/207/3
f 43/84/28 44/83/28 84/208/28 83/209/28
f 41/90/1 43/89/1 83/210/1 81/118/1
f 65/157/3 67/156/3 73/145/3 74/146/3
f 70/151/1 66/127/1 68/130/1 72/152/1
f 18/46/2 17/45/2 97/211/2 98/212/2
f 75/164/24 74/163/24 57/136/25 58/135/25
f 20/52/1 18/51/1 98/213/1 100/214/1
f 19/44/28 20/43/28 100/215/28 99/137/28
f 17/50/3 19/49/3 99/216/3 97/217/3
f 76/169/26 60/114/27 59/113/27 73/170/26
f 2/94/28 21/218/28 22/219/28 1/93/28
f 131/220/2 132/221/2 120/222/2 119/223/2
f 132/224/30 130/225/30 118/226/30 120/227/30
f 130/228/28 129/229/28 117/230/28 118/231/28
f 115/232/28 128/233/28 127/234/28 116/235/28
f 116/235/31 124/236/32 121/237/32 115/232/31
f 116/238/30 127/239/30 125/240/30 114/241/30
f 129/242/33 131/243/33 119/244/33 117/245/33
f 109/246/33 131/243/33 129/242/33 110/247/33
f 130/225/30 132/224/30 112/248/30 111/249/30
f 113/250/34 122/251/35 123/252/35 114/253/34
f 138/254/30 134/255/30 136/256/30 140/257/30
f 112/258/36 132/221/37 131/220/38 109/259/39
f 111/260/40 110/261/40 129/229/41 130/228/41
f 134/255/30 111/249/30 112/248/30 136/256/30
f 121/262/33 139/263/33 137/264/33 122/265/33
f 137/266/42 133/267/42 134/268/42 138/269/42
f 123/252/43 122/251/43 137/266/44 138/269/44
f 136/270/45 112/258/46 109/259/46 135/271/45
f 113/272/33 115/273/33 121/262/33 122/265/33
f 133/274/33 135/275/33 109/246/33 110/247/33
f 140/276/47 136/270/47 135/271/47 139/277/47
f 114/241/30 123/278/30 124/279/30 116/238/30
f 133/267/48 110/261/49 111/260/49 134/268/48
f 113/272/33 126/280/33 128/281/33 115/273/33
f 138/254/30 140/257/30 124/279/30 123/278/30
f 124/236/50 140/276/51 139/277/51 121/237/50
f 114/253/2 125/282/2 126/283/2 113/250/2
f 139/263/33 135/275/33 133/274/33 137/264/33
f 24/6/19 142/56/18 143/55/18 23/7/19
f 21/218/17 144/59/16 141/62/16 22/219/17
f 167/284/2 168/285/2 156/286/2 155/287/2
f 168/288/30 166/289/30 154/290/30 156/291/30
f 166/229/28 165/292/28 153/293/28 154/230/28
f 151/294/28 164/295/28 163/296/28 152/297/28
f 152/297/31 160/298/32 157/299/32 151/294/31
f 152/300/30 163/301/30 161/302/30 150/303/30
f 165/304/33 167/305/33 155/306/33 153/307/33
f 145/308/33 167/305/33 165/304/33 146/309/33
f 166/289/30 168/288/30 148/310/30 147/311/30
f 149/312/34 158/313/35 159/251/35 150/250/34
f 174/314/30 170/315/30 172/316/30 176/317/30
f 148/318/36 168/285/37 167/284/38 145/319/39
f 147/261/40 146/320/40 165/292/41 166/229/41
f 170/315/30 147/311/30 148/310/30 172/316/30
f 157/321/33 175/322/33 173/323/33 158/324/33
f 173/325/42 169/326/42 170/267/42 174/266/42
f 159/251/43 158/313/43 173/325/44 174/266/44
f 172/327/45 148/318/46 145/319/46 171/328/45
f 149/329/33 151/330/33 157/321/33 158/324/33
f 169/331/33 171/332/33 145/308/33 146/309/33
f 176/333/47 172/327/47 171/328/47 175/334/47
f 150/303/30 159/335/30 160/336/30 152/300/30
f 169/326/48 146/320/49 147/261/49 170/267/48
f 149/329/33 162/337/33 164/338/33 151/330/33
f 174/314/30 176/317/30 160/336/30 159/335/30
f 160/298/50 176/333/51 175/334/51 157/299/50
f 150/250/2 161/339/2 162/340/2 149/312/2
f 175/322/33 171/332/33 169/331/33 173/323/33
f 199/341/2 200/342/2 188/343/2 187/344/2
f 200/345/30 198/346/30 186/347/30 188/244/30
f 198/348/28 197/349/28 185/350/28 186/351/28
f 183/352/28 196/353/28 195/354/28 184/355/28
f 184/355/31 192/356/32 189/357/32 183/352/31
f 184/358/30 195/359/30 193/360/30 182/361/30
f 197/362/33 199/363/33 187/364/33 185/365/33
f 177/366/33 199/363/33 197/362/33 178/367/33
f 198/346/30 200/345/30 180/368/30 179/369/30
f 181/370/34 190/371/35 191/372/35 182/373/34
f 206/374/30 202/375/30 204/376/30 208/377/30
f 180/378/36 200/342/37 199/341/38 177/379/39
f 179/380/40 178/381/40 197/349/41 198/348/41
f 202/375/30 179/369/30 180/368/30 204/376/30
f 189/382/33 207/383/33 205/384/33 190/385/33
f 205/386/42 201/387/42 202/388/42 206/389/42
f 191/372/43 190/371/43 205/386/44 206/389/44
f 204/390/45 180/378/46 177/379/46 203/391/45
f 181/392/33 183/393/33 189/382/33 190/385/33
f 201/394/33 203/395/33 177/366/33 178/367/33
f 208/396/47 204/390/47 203/391/47 207/397/47
f 182/361/30 191/398/30 192/399/30 184/358/30
f 201/387/48 178/381/49 179/380/49 202/388/48
f 181/392/33 194/400/33 196/401/33 183/393/33
f 206/374/30 208/377/30 192/399/30 191/398/30
f 192/356/50 208/396/51 207/397/51 189/357/50
f 182/373/2 193/340/2 194/402/2 181/370/2
f 207/383/33 203/395/33 201/394/33 205/384/33
o lamp_5_1_on
v 0.180001 0.004000 0.240028
v 0.180001 0.004000 0.000002
v -0.179972 0.049000 0.195002
v -0.179972 0.049000 0.000002
v 0.179974 0.049000 0.000002
v 0.179974 0.049000 0.195002
v -0.161249 0.059500 0.000002
v -0.161249 0.004000 0.000002
v -0.161249 0.059500 0.199502
v -0.161249 0.004000 0.255002
v -0.168749 0.059500 0.000002
v -0.168749 0.004000 0.000002
v -0.168749 0.059500 0.199502
v -0.168749 0.004000 0.255002
v -0.131249 0.059500 0.000002
v -0.131249 0.004000 0.000002
v -0.131249 0.059500 0.199502
v -0.131249 0.004000 0.255002
v -0.138749 0.059500 0.000002
v -0.138749 0.004000 0.000002
v -0.138749 0.059500 0.199502
v -0.138749 0.004000 0.255002
v -0.108749 0.004000 0.255002
v -0.108749 0.059500 0.199502
v -0.108749 0.004000 0.000002
v -0.108749 0.059500 0.000002
v -0.101249 0.004000 0.255002
v -0.101249 0.059500 0.199502
v -0.101249 0.004000 0.000002
v -0.101249 0.059500 0.000002
v -0.071249 0.059500 0.000002
v -0.071249 0.004000 0.000002
v -0.071249 0.059500 0.199502
v -0.071249 0.004000 0.255002
v -0.078749 0.059500 0.000002
v -0.078749 0.004000 0.000002
v -0.078749 0.059500 0.199502
v -0.078749 0.004000 0.255002
v 0.048751 0.059500 0.000002
v 0.048751 0.004000 0.000002
v 0.048751 0.059500 0.199502
v 0.048751 0.004000 0.255002
v 0.041251 0.059500 0.000002
v 0.041251 0.004000 0.000002
v 0.041251 0.059500 0.199502
v 0.041251 0.004000 0.255002
v 0.011251 0.004000 0.255002
v 0.011251 0.059500 0.199502
v 0.011251 0.004000 0.000002
v 0.011251 0.059500 0.000002
v 0.018751 0.004000 0.255002
v 0.018751 0.059500 0.199502
v 0.018751 0.004000 0.000002
v 0.018751 0.059500 0.000002
v -0.179999 0.004000 0.270002
v -0.179999 0.004000 0.240028
v -0.179999 0.004000 0.000002
v 0.180000 0.004000 0.270002
v -0.179999 -0.040000 0.270002
v 0.180001 -0.040000 0.270002
v -0.011249 0.059500 0.000002
v -0.011249 0.004000 0.000002
v -0.011249 0.059500 0.199502
v -0.011249 0.004000 0.255002
v -0.018749 0.059500 0.000002
v -0.018749 0.004000 0.000002
v -0.018749 0.059500 0.199502
v -0.018749 0.004000 0.255002
v -0.048749 0.004000 0.255002
v -0.048749 0.059500 0.199502
v -0.048749 0.004000 0.000002
v -0.048749 0.059500 0.000002
v -0.041249 0.004000 0.255002
v -0.041249 0.059500 0.199502
v -0.041249 0.004000 0.000002
v -0.041249 0.059500 0.000002
v 0.078751 0.059500 0.000002
v 0.078751 0.004000 0.000002
v 0.078751 0.059500 0.199502
v 0.078751 0.004000 0.255002
v 0.071251 0.059500 0.000002
v 0.071251 0.004000 0.000002
v 0.071251 0.059500 0.199502
v 0.071251 0.004000 0.255002
v 0.101251 0.004000 0.255002
v 0.101251 0.059500 0.199502
v 0.101251 0.004000 0.000002
v 0.101251 0.059500 0.000002
v 0.108751 0.004000 0.255002
v 0.108751 0.059500 0.199502
v 0.108751 0.004000 0.000002
v 0.108751 0.059500 0.000002
v 0.138751 0.059500 0.000002
v 0.138751 0.004000 0.000002
v 0.138751 0.059500 0.199502
v 0.138751 0.004000 0.255002
v 0.131251 0.059500 0.000002
v 0.131251 0.004000 0.000002
v 0.131251 0.059500 0.199502
v 0.131251 0.004000 0.255002
v -0.179999 -0.040000 0.030000
v 0.180001 -0.040000 0.030000
v 0.180001 -0.100000 0.000002
v -0.179999 -0.100000 0.000003
v 0.180001 -0.090000 0.030000
v 0.180001 -0.100000 0.020000
v -0.179999 -0.100000 0.020000
v -0.179999 -0.090000 0.030000
v 0.161251 0.004000 0.255002
v 0.161251 0.059500 0.199502
v 0.161251 0.004000 0.000002
v 0.161251 0.059500 0.000002
v 0.168751 0.004000 0.255002
v 0.168751 0.059500 0.199502
v 0.168751 0.004000 0.000002
v 0.168751 0.059500 0.000002
v -0.179999 -0.040000 0.000003
v 0.180001 -0.040000 0.000002
v -0.179999 -0.006000 0.270000
v 0.180000 -0.006000 0.270000
v -0.179999 -0.030000 0.270000
v 0.180000 -0.030000 0.270000
v 0.180000 -0.030000 0.000000
v 0.180000 -0.006000 0.000000
v -0.179999 -0.006000 0.000000
v -0.179999 -0.030000 0.000000
v 0.173000 -0.030000 0.000000
v 0.173000 -0.006000 0.000000
v 0.173000 -0.006000 0.263000
v -0.171999 -0.030000 0.263000
v -0.171999 -0.006000 0.263000
v 0.173000 -0.030000 0.263000
v -0.171999 -0.006000 0.000000
v -0.171999 -0.030000 0.000000
v 0.142796 -0.054567 0.030000
v 0.142796 -0.054567 0.038000
v 0.150433 -0.062204 0.030000
v 0.150433 -0.062204 0.038000
v 0.147638 -0.072636 0.030000
v 0.147638 -0.072636 0.038000
v 0.137206 -0.075431 0.030000
v 0.137206 -0.075431 0.038000
v 0.129569 -0.067794 0.030000
v 0.129569 -0.067794 0.038000
v 0.132364 -0.057362 0.030000
v 0.132364 -0.057362 0.038000
v -0.154563 -0.055211 0.030000
v -0.154563 -0.055211 0.038000
v -0.143804 -0.056152 0.030000
v -0.143804 -0.056152 0.038000
v -0.139240 -0.065940 0.030000
v -0.139240 -0.065940 0.038000
v -0.145435 -0.074787 0.030000
v -0.145435 -0.074787 0.038000
v -0.156194 -0.073846 0.030000
v -0.156194 -0.073846 0.038000
v -0.160758 -0.064057 0.030000
v -0.160758 -0.064057 0.038000
v -0.047204 -0.054567 0.030000
v -0.047204 -0.054567 0.038000
v -0.039567 -0.062204 0.030000
v -0.039567 -0.062204 0.038000
v -0.042362 -0.072636 0.030000
v -0.042362 -0.072636 0.038000
v -0.052794 -0.075431 0.030000
v -0.052794 -0.075431 0.038000
v -0.060431 -0.067794 0.030000
v -0.060431 -0.067794 0.038000
v -0.057636 -0.057362 0.030000
v -0.057636 -0.057362 0.038000
v 0.045437 -0.055211 0.030000
v 0.045437 -0.055211 0.038000
v 0.056196 -0.056152 0.030000
v 0.056196 -0.056152 0.038000
v 0.060760 -0.065940 0.030000
v 0.060760 -0.065940 0.038000
v 0.054565 -0.074787 0.030000
v 0.054565 -0.074787 0.038000
v 0.043806 -0.073846 0.030000
v 0.043806 -0.073846 0.038000
v 0.039242 -0.064057 0.030000
v 0.039242 -0.064057 0.038000
v -0.005696 0.050000 -0.000002
v -0.009496 0.050000 0.003798
v -0.009496 0.183000 0.003798
v -0.005696 0.183000 -0.000002
v -0.009496 0.050000 0.007598
v -0.005696 0.050000 0.011398
v -0.005696 0.183000 0.011398
v -0.009496 0.183000 0.007598
v 0.009504 0.050000 0.003798
v 0.005704 0.050000 -0.000002
v 0.005704 0.183000 -0.000002
v 0.009504 0.183000 0.003798
v 0.005704 0.050000 0.011398
v 0.009504 0.050000 0.007598
v 0.009504 0.183000 0.007598
v 0.005704 0.183000 0.011398
v 0.001633 0.209870 0.003798
v 0.004320 0.207183 -0.000002
v 0.004320 0.207183 0.011398
v 0.001633 0.209870 0.007598
v 0.012381 0.199122 -0.000002
v 0.015068 0.196435 0.003798
v 0.015068 0.196435 0.007598
v 0.012381 0.199122 0.011398
v 0.028503 0.221000 0.003798
v 0.028503 0.217200 -0.000002
v 0.028503 0.217200 0.011398
v 0.028503 0.221000 0.007598
v 0.028503 0.205800 -0.000002
v 0.028503 0.202000 0.003798
v 0.028503 0.202000 0.007598
v 0.028503 0.205800 0.011398
v 0.548503 0.221000 0.003798
v 0.548503 0.217200 -0.000002
v 0.548503 0.217200 0.011398
v 0.548503 0.221000 0.007598
v 0.548503 0.205800 -0.000002
v 0.548503 0.202000 0.003798
v 0.548503 0.202000 0.007598
v 0.548503 0.205800 0.011398
v 0.555047 0.221000 0.002497
v 0.553593 0.217200 -0.001014
v 0.557956 0.217200 0.009518
v 0.556502 0.221000 0.006007
v 0.553593 0.205800 -0.001014
v 0.555047 0.202000 0.002497
v 0.556502 0.202000 0.006007
v 0.557956 0.205800 0.009518
v 0.560595 0.221000 -0.001210
v 0.557908 0.217200 -0.003897
v 0.565969 0.217200 0.004164
v 0.563282 0.221000 0.001477
v 0.557908 0.205800 -0.003897
v 0.560595 0.202000 -0.001210
v 0.563282 0.202000 0.001477
v 0.565969 0.205800 0.004164
v 0.564302 0.221000 -0.006758
v 0.560791 0.217200 -0.008212
v 0.571324 0.217200 -0.003850
v 0.567813 0.221000 -0.005304
v 0.560791 0.205800 -0.008212
v 0.564302 0.202000 -0.006758
v 0.567813 0.202000 -0.005304
v 0.571324 0.205800 -0.003850
v 0.565604 0.221000 -0.013302
v 0.561804 0.217200 -0.013302
v 0.573204 0.217200 -0.013302
v 0.569404 0.221000 -0.013302
v 0.561804 0.205800 -0.013302
v 0.565604 0.202000 -0.013302
v 0.569404 0.202000 -0.013302
v 0.573204 0.205800 -0.013302
v 0.545001 0.198001 -0.000002
v 0.545001 0.225001 -0.000002
v 0.555001 0.198001 -0.000002
v 0.555001 0.225001 -0.000002
v 0.545001 0.198001 0.008998
v 0.545001 0.206001 0.016998
v 0.545001 0.217001 0.016998
v 0.545001 0.225001 0.008998
v 0.555001 0.206001 0.016998
v 0.555001 0.198001 0.008998
v 0.555001 0.225001 0.008998
v 0.555001 0.217001 0.016998
v 0.145001 0.198001 -0.000002
v 0.145001 0.225001 -0.000002
v 0.155001 0.198001 -0.000002
v 0.155001 0.225001 -0.000002
v 0.145001 0.198001 0.008998
v 0.145001 0.206001 0.016998
v 0.145001 0.217001 0.016998
v 0.145001 0.225001 0.008998
v 0.155001 0.206001 0.016998
v 0.155001 0.198001 0.008998
v 0.155001 0.225001 0.008998
v 0.155001 0.217001 0.016998
v 0.345001 0.198001 -0.000002
v 0.345001 0.225001 -0.000002
v 0.355001 0.198001 -0.000002
v 0.355001 0.225001 -0.000002
v 0.345001 0.198001 0.008998
v 0.345001 0.206001 0.016998
v 0.345001 0.217001 0.016998
v 0.345001 0.225001 0.008998
v 0.355001 0.206001 0.016998
v 0.355001 0.198001 0.008998
v 0.355001 0.225001 0.008998
v 0.355001 0.217001 0.016998
v 0.045001 0.198001 -0.000002
v 0.045001 0.225001 -0.000002
v 0.055001 0.198001 -0.000002
v 0.055001 0.225001 -0.000002
v 0.045001 0.198001 0.008998
v 0.045001 0.206001 0.016998
v 0.045001 0.217001 0.016998
v 0.045001 0.225001 0.008998
v 0.055001 0.206001 0.016998
v 0.055001 0.198001 0.008998
v 0.055001 0.225001 0.008998
v 0.055001 0.217001 0.016998
v 0.013500 0.165000 -0.000002
v -0.013500 0.165000 -0.000002
v 0.013500 0.175000 -0.000002
v -0.013500 0.175000 -0.000002
v 0.013500 0.165000 0.008998
v 0.005500 0.165000 0.016998
v -0.005500 0.165000 0.016998
v -0.013500 0.165000 0.008998
v 0.005500 0.175000 0.016998
v 0.013500 0.175000 0.008998
v -0.013500 0.175000 0.008998
v -0.005500 0.175000 0.016998
v 0.245001 0.198001 -0.000002
v 0.245001 0.225001 -0.000002
v 0.255001 0.198001 -0.000002
v 0.255001 0.225001 -0.000002
v 0.245001 0.198001 0.008998
v 0.245001 0.206001 0.016998
v 0.245001 0.217001 0.016998
v 0.245001 0.225001 0.008998
v 0.255001 0.206001 0.016998
v 0.255001 0.198001 0.008998
v 0.255001 0.225001 0.008998
v 0.255001 0.217001 0.016998
v 0.445001 0.198001 -0.000002
v 0.445001 0.225001 -0.000002
v 0.455001 0.198001 -0.000002
v 0.455001 0.225001 -0.000002
v 0.445001 0.198001 0.008998
v 0.445001 0.206001 0.016998
v 0.445001 0.217001 0.016998
v 0.445001 0.225001 0.008998
v 0.455001 0.206001 0.016998
v 0.455001 0.198001 0.008998
v 0.455001 0.225001 0.008998
v 0.455001 0.217001 0.016998
v 0.013500 0.075000 -0.000002
v -0.013500 0.075000 -0.000002
v 0.013500 0.085000 -0.000002
v -0.013500 0.085000 -0.000002
v 0.013500 0.075000 0.008998
v 0.005500 0.075000 0.016998
v -0.005500 0.075000 0.016998
v -0.013500 0.075000 0.008998
v 0.005500 0.085000 0.016998
v 0.013500 0.085000 0.008998
v -0.013500 0.085000 0.008998
v -0.005500 0.085000 0.016998
v -0.139286 -0.040000 0.250002
v -0.159999 -0.040000 0.229289
v 0.139288 -0.040000 0.050002
v 0.160001 -0.040000 0.070715
v 0.160001 -0.040000 0.229289
v 0.139288 -0.040000 0.250002
v -0.159999 -0.040000 0.070715
v -0.139286 -0.040000 0.050002
v -0.139286 -0.045000 0.250002
v -0.159999 -0.045000 0.229289
v 0.139288 -0.045000 0.050002
v 0.160001 -0.045000 0.070715
v 0.160001 -0.045000 0.229289
v 0.139288 -0.045000 0.250002
v -0.159999 -0.045000 0.070715
v -0.139286 -0.045000 0.050002
v -0.136286 -0.045000 0.240002
v -0.149999 -0.045000 0.226289
v 0.136288 -0.045000 0.060002
v 0.150001 -0.045000 0.073715
v 0.150001 -0.045000 0.226289
v 0.136288 -0.045000 0.240002
v -0.149999 -0.045000 0.073715
v -0.136286 -0.045000 0.060002
v -0.132536 -0.065000 0.077465
v -0.136286 -0.050000 0.060002
v -0.134466 -0.060607 0.064396
v -0.149999 -0.050000 0.073715
v -0.145606 -0.060607 0.075535
v 0.132538 -0.065000 0.222539
v 0.136288 -0.050000 0.240002
v 0.134468 -0.060607 0.235608
v 0.150001 -0.050000 0.226289
v 0.145608 -0.060607 0.224469
v 0.132538 -0.065000 0.077465
v 0.150001 -0.050000 0.073715
v 0.145608 -0.060607 0.075535
v 0.136288 -0.050000 0.060002
v 0.134468 -0.060607 0.064396
v -0.132536 -0.065000 0.222539
v -0.149999 -0.050000 0.226289
v -0.145606 -0.060607 0.224469
v -0.136286 -0.050000 0.240002
v -0.134466 -0.060607 0.235608
vn -0.0000 0.7073 0.7069
vn -0.0000 1.0000 -0.0000
vn 1.0000 0.0001 -0.0000
vn 1.0000 0.0003 -0.0000
vn 1.0000 0.0006 -0.0000
vn -1.0000 0.0003 -0.0000
vn -1.0000 0.0001 -0.0000
vn -1.0000 0.0006 -0.0000
vn -1.0000 -0.0000 -0.0000
vn -0.0000 0.7071 0.7071
vn 1.0000 -0.0000 -0.0000
vn -0.0000 -0.0002 1.0000
vn -0.0000 -0.7071 0.7071
vn -0.0000 -1.0000 -0.0000
vn -0.0000 -0.0000 1.0000
vn -0.0000 0.0002 1.0000
vn 0.7071 0.7071 -0.0000
vn 0.9659 -0.2588 -0.0000
vn 0.2588 -0.9659 -0.0000
vn -0.7071 -0.7071 -0.0000
vn -0.9659 0.2588 -0.0000
vn -0.2588 0.9659 -0.0000
vn 0.0872 0.9962 -0.0000
vn 0.9063 0.4226 -0.0000
vn 0.8192 -0.5736 -0.0000
vn -0.0872 -0.9962 -0.0000
vn -0.9063 -0.4226 -0.0000
vn -0.8191 0.5736 -0.0000
vn 0.9239 -0.0000 0.3827
vn 0.9239 -0.0000 -0.3827
vn 0.8996 -0.1870 -0.3947
vn 0.8996 -0.1870 0.3947
vn -0.9239 -0.0000 -0.3827
vn -0.9239 -0.0000 0.3827
vn -0.9148 0.1762 0.3633
vn -0.9148 0.1762 -0.3633
vn -0.3827 -0.0000 0.9239
vn 0.3827 -0.0000 0.9239
vn 0.3383 -0.0619 0.9390
vn -0.4178 0.0917 0.9039
vn -0.7071 -0.0000 -0.7071
vn -0.6987 0.1534 -0.6987
vn 0.7013 -0.1284 -0.7013
vn 0.7071 -0.0000 -0.7071
vn 0.2090 -0.2090 0.9553
vn -0.3238 0.3238 0.8890
vn 0.5000 -0.5000 -0.7071
vn 0.6416 -0.6416 -0.4202
vn 0.6416 -0.6416 0.4202
vn -0.6615 0.6615 0.3532
vn -0.6615 0.6615 -0.3532
vn -0.1762 0.9148 -0.3633
vn -0.1534 0.6987 -0.6987
vn -0.5000 0.5000 -0.7071
vn -0.1762 0.9148 0.3633
vn 0.1871 -0.8996 0.3947
vn 0.0619 -0.3383 0.9390
vn -0.0917 0.4178 0.9039
vn 0.1871 -0.8996 -0.3947
vn 0.1284 -0.7013 -0.7013
vn 0.0415 0.9148 0.4019
vn -0.0341 0.9318 -0.3613
vn 0.0415 -0.9148 0.4019
vn 0.0894 -0.3735 0.9233
vn -0.0728 0.7052 -0.7052
vn 0.0894 0.3735 0.9233
vn -0.0728 -0.7052 -0.7052
vn -0.0341 -0.9318 -0.3613
vn -0.1303 0.9403 -0.3145
vn -0.2407 0.9403 -0.2407
vn -0.5000 0.7071 -0.5000
vn -0.2706 0.7071 -0.6533
vn -0.2706 -0.7071 -0.6533
vn -0.1303 -0.9403 -0.3145
vn 0.3560 0.3668 0.8595
vn 0.1615 0.9066 0.3899
vn 0.1615 -0.9066 0.3899
vn 0.3560 -0.3668 0.8595
vn -0.2407 -0.9403 -0.2407
vn -0.3145 -0.9403 -0.1303
vn 0.3899 -0.9066 0.1615
vn 0.2984 -0.9066 0.2984
vn 0.6578 -0.3668 0.6578
vn 0.6578 0.3668 0.6578
vn -0.5000 -0.7071 -0.5000
vn 0.2984 0.9066 0.2984
vn 0.8595 0.3668 0.3560
vn 0.9148 0.3607 0.1819
vn 0.4205 0.9034 0.0836
vn 0.3899 0.9066 0.1615
vn -0.3145 0.9403 -0.1303
vn 0.8595 -0.3668 0.3560
vn -0.6533 0.7071 -0.2706
vn -0.6533 -0.7071 -0.2706
vn -0.3397 -0.9381 -0.0676
vn 0.4205 -0.9034 0.0836
vn -0.3397 0.9381 -0.0676
vn 0.9148 -0.3607 0.1819
vn -0.7002 0.7002 -0.1393
vn -0.7002 -0.7002 -0.1393
vn -0.0000 -0.3827 0.9239
vn -0.0000 0.3827 0.9239
vn -0.0000 0.9239 0.3827
vn -0.0000 -0.9239 0.3827
vn -0.0000 -0.0000 -1.0000
vn 0.7071 -0.0000 0.7071
vn -0.7071 -0.0000 0.7071
vn 0.9053 -0.1994 -0.3750
vn 0.9053 -0.1994 0.3750
vn 0.6680 -0.6935 0.2699
vn 0.6680 -0.6935 -0.2699
vn 0.1438 -0.9791 0.1438
vn 0.1438 -0.9791 -0.1438
vn -0.3750 -0.1994 -0.9053
vn 0.3750 -0.1994 -0.9053
vn 0.2699 -0.6935 -0.6680
vn -0.2699 -0.6935 -0.6680
vn -0.1438 -0.9791 -0.1438
vn -0.9053 -0.1994 0.3750
vn -0.9053 -0.1994 -0.3750
vn -0.6680 -0.6935 -0.2699
vn -0.6680 -0.6935 0.2699
vn -0.1438 -0.9791 0.1438
vn 0.3750 -0.1994 0.9053
vn -0.3750 -0.1994 0.9053
vn -0.2699 -0.6935 0.6680
vn 0.2699 -0.6935 0.6680
vn 0.3827 -0.0000 -0.9239
vn -0.3827 -0.0000 -0.9239
vt 0.621454 0.629412
vt 0.621454 0.314695
vt 0.676796 0.314694
vt 0.676796 0.629366
vt 0.792235 -0.000000
vt 0.792235 0.314671
vt 0.621763 0.314671
vt 0.621763 0.000000
vt 0.008941 0.209835
vt 0.008945 0.000000
vt 0.048304 0.000001
vt 0.048302 0.170473
vt 0.008945 0.786794
vt 0.008944 0.576959
vt 0.048304 0.616322
vt 0.048305 0.786794
vt 0.398859 0.557741
vt 0.392303 0.557741
vt 0.392302 0.382717
vt 0.398859 0.382717
vt 0.326091 0.852362
vt 0.277572 0.803843
vt 0.277572 0.629436
vt 0.326091 0.629436
vt 0.398859 0.314101
vt 0.392302 0.314101
vt 0.715879 0.314671
vt 0.764399 0.314671
vt 0.764399 0.489077
vt 0.715880 0.537596
vt 0.374610 0.852362
vt 0.326091 0.803843
vt 0.326091 0.629436
vt 0.374610 0.629436
vt 0.703641 0.557693
vt 0.697084 0.557693
vt 0.697084 0.382669
vt 0.703641 0.382669
vt 0.715879 0.537596
vt 0.764399 0.537596
vt 0.764399 0.712002
vt 0.715879 0.760521
vt 0.703641 0.314053
vt 0.697084 0.314053
vt 0.392302 0.557741
vt 0.385746 0.557741
vt 0.385746 0.382717
vt 0.392302 0.382717
vt 0.863185 0.537596
vt 0.814666 0.489077
vt 0.814666 0.314671
vt 0.863185 0.314671
vt 0.392302 0.314101
vt 0.385746 0.314101
vt 0.401920 0.569116
vt 0.450439 0.569117
vt 0.450439 0.743523
vt 0.401920 0.792042
vt 0.131141 0.615440
vt 0.124584 0.615440
vt 0.124584 0.440415
vt 0.131141 0.440415
vt 0.131141 0.371799
vt 0.124584 0.371799
vt 0.764398 0.314671
vt 0.812918 0.314671
vt 0.812918 0.489077
vt 0.764399 0.537596
vt 0.863185 0.760521
vt 0.814666 0.712002
vt 0.814666 0.537596
vt 0.124584 0.371799
vt 0.124584 0.440415
vt 0.118027 0.440415
vt 0.118027 0.371799
vt 0.764399 0.537596
vt 0.812918 0.537596
vt 0.812918 0.712002
vt 0.764399 0.760521
vt 0.124584 0.615440
vt 0.118027 0.615440
vt 0.890147 0.222925
vt 0.841628 0.174406
vt 0.841628 -0.000000
vt 0.890147 -0.000000
vt 0.111470 0.641666
vt 0.104914 0.641666
vt 0.104914 0.466642
vt 0.111470 0.466642
vt 0.111470 0.398025
vt 0.104914 0.398025
vt 0.546166 0.608456
vt 0.594685 0.608456
vt 0.594685 0.782862
vt 0.546166 0.831381
vt 0.911704 0.537596
vt 0.863185 0.489077
vt 0.863185 0.314671
vt 0.911704 0.314671
vt 0.000003 0.550756
vt 0.008944 0.550756
vt -0.000000 0.236038
vt 0.008941 0.236039
vt 0.000004 0.000000
vt 0.595559 0.629437
vt 0.595559 0.314719
vt 0.075406 0.026225
vt 0.031695 0.026225
vt 0.022953 0.017482
vt 0.022953 0.000000
vt 0.075406 -0.000000
vt 0.911704 0.760521
vt 0.863185 0.712002
vt 0.863185 0.537596
vt 0.911704 0.537596
vt 0.710197 0.314053
vt 0.710197 0.382669
vt 0.703641 0.382669
vt 0.703641 0.314053
vt 0.710197 0.557693
vt 0.493713 0.608456
vt 0.542232 0.608456
vt 0.542232 0.782862
vt 0.493713 0.831381
vt 0.118027 0.641666
vt 0.111470 0.641666
vt 0.111470 0.466642
vt 0.118027 0.466642
vt 0.118027 0.398025
vt 0.111470 0.398025
vt 0.791361 0.000000
vt 0.839880 0.000000
vt 0.839880 0.174406
vt 0.791361 0.222925
vt 0.938666 0.222925
vt 0.890147 0.174406
vt 0.890147 -0.000000
vt 0.938666 -0.000000
vt 0.683971 0.557693
vt 0.677414 0.557693
vt 0.677414 0.382669
vt 0.683971 0.382669
vt 0.683971 0.314053
vt 0.677414 0.314053
vt 0.628021 0.629389
vt 0.676540 0.629389
vt 0.676540 0.803795
vt 0.628021 0.852314
vt 0.960223 0.537596
vt 0.911704 0.489077
vt 0.960223 0.314671
vt 0.690527 0.314053
vt 0.690527 0.382669
vt 0.683971 0.382669
vt 0.683971 0.314053
vt 0.130267 0.629436
vt 0.178786 0.629436
vt 0.178786 0.803843
vt 0.130267 0.852361
vt 0.690527 0.557693
vt 0.683971 0.557693
vt 0.960223 0.760521
vt 0.911704 0.712002
vt 0.911704 0.537596
vt 0.960223 0.537596
vt 0.697084 0.314053
vt 0.697084 0.382669
vt 0.690527 0.382669
vt 0.690527 0.314053
vt 0.178786 0.629436
vt 0.227305 0.629436
vt 0.227305 0.803843
vt 0.178786 0.852361
vt 0.697084 0.557693
vt 0.690527 0.557693
vt 0.814666 0.983446
vt 0.766147 0.934927
vt 0.766147 0.760521
vt 0.814666 0.760521
vt 0.075406 0.236038
vt 0.084366 -0.000000
vt 0.084366 0.236038
vt 0.143859 0.314718
vt 0.143859 0.000000
vt 0.148311 0.000000
vt 0.148311 0.314718
vt 0.385724 0.314718
vt 0.180106 0.314718
vt 0.180106 0.000000
vt 0.385724 0.000000
vt 0.131141 0.314718
vt 0.131141 0.000000
vt 0.227305 0.629436
vt 0.275824 0.629436
vt 0.275824 0.803842
vt 0.227305 0.852361
vt 0.716754 0.557693
vt 0.710197 0.557693
vt 0.716754 0.382669
vt 0.716754 0.314053
vt 0.710197 0.314053
vt 0.766147 0.983446
vt 0.717628 0.934927
vt 0.717628 0.760521
vt 0.766147 0.760521
vt 0.075406 0.786794
vt 0.022953 0.786794
vt 0.022953 0.769312
vt 0.031695 0.760570
vt 0.075406 0.760570
vt 0.385724 0.314717
vt 0.385724 0.000000
vt 0.392281 0.006557
vt 0.392280 0.308161
vt 0.367179 0.629436
vt 0.131141 0.629436
vt 0.131141 0.622880
vt 0.360623 0.622880
vt 0.084369 0.550757
vt 0.075409 0.550756
vt 0.000004 0.786794
vt 0.621762 0.000000
vt 0.621762 0.006557
vt 0.105788 0.531086
vt 0.105788 0.760568
vt 0.085244 0.760568
vt 0.085244 0.531086
vt 0.085244 0.000000
vt 0.105788 0.000000
vt 0.105788 0.229481
vt 0.085244 0.229482
vt 0.367179 0.314718
vt 0.360623 0.321275
vt 0.131141 0.314718
vt 0.131141 0.321275
vt 0.621763 0.314719
vt 0.621763 0.308162
vt 0.084366 0.786795
vt 0.477114 0.473500
vt 0.476229 0.477500
vt 0.482880 0.477500
vt 0.483447 0.473500
vt 0.454398 0.473500
vt 0.454398 0.477500
vt 0.449182 0.477500
vt 0.449182 0.473500
vt 0.479396 0.473500
vt 0.480171 0.477500
vt 0.477336 0.477500
vt 0.476512 0.473500
vt 0.474129 0.477500
vt 0.473993 0.473500
vt 0.479156 0.456898
vt 0.475337 0.460717
vt 0.470122 0.459319
vt 0.468724 0.454103
vt 0.472542 0.450285
vt 0.477758 0.451682
vt 0.451603 0.473500
vt 0.451603 0.477500
vt 0.456819 0.477500
vt 0.456819 0.473500
vt 0.470416 0.473500
vt 0.470242 0.477500
vt 0.326620 0.473500
vt 0.326620 0.477500
vt 0.331999 0.477500
vt 0.331999 0.473500
vt 0.458009 0.473500
vt 0.458009 0.477500
vt 0.455247 0.477500
vt 0.455247 0.473500
vt 0.452956 0.477500
vt 0.452956 0.473500
vt 0.331184 0.473500
vt 0.331184 0.477500
vt 0.325805 0.477500
vt 0.325805 0.473500
vt 0.332037 0.459924
vt 0.326658 0.460395
vt 0.323560 0.455971
vt 0.325842 0.451077
vt 0.331222 0.450607
vt 0.334319 0.455030
vt 0.449162 0.473500
vt 0.449162 0.477500
vt 0.457894 0.477500
vt 0.456188 0.473500
vt 0.462744 0.477500
vt 0.462744 0.473500
vt 0.383188 0.473501
vt 0.372618 0.477502
vt 0.401565 0.477500
vt 0.402298 0.473500
vt 0.430648 0.473500
vt 0.430648 0.477500
vt 0.425432 0.477500
vt 0.425432 0.473500
vt 0.430895 0.473501
vt 0.431696 0.477500
vt 0.439310 0.477501
vt 0.434051 0.473501
vt 0.437564 0.477501
vt 0.437109 0.473501
vt 0.384157 0.456899
vt 0.380338 0.460717
vt 0.375122 0.459320
vt 0.373725 0.454103
vt 0.377543 0.450285
vt 0.382760 0.451683
vt 0.427854 0.473500
vt 0.427853 0.477500
vt 0.433069 0.477500
vt 0.433069 0.473500
vt 0.364358 0.473501
vt 0.363848 0.477501
vt 0.425861 0.473500
vt 0.425857 0.477501
vt 0.431236 0.477500
vt 0.431240 0.473501
vt 0.436395 0.473501
vt 0.436394 0.477500
vt 0.456609 0.477500
vt 0.456609 0.473501
vt 0.477294 0.477501
vt 0.477294 0.473500
vt 0.430421 0.473499
vt 0.430423 0.477500
vt 0.425045 0.477500
vt 0.425045 0.473500
vt 0.432038 0.459925
vt 0.426658 0.460395
vt 0.423561 0.455971
vt 0.425843 0.451078
vt 0.431222 0.450607
vt 0.434319 0.455030
vt 0.385356 0.473500
vt 0.386114 0.477500
vt 0.503692 0.477500
vt 0.454268 0.473500
vt 0.521347 0.477500
vt 0.520565 0.473500
vt 0.254630 0.200000
vt 0.259015 0.200000
vt 0.259015 0.353461
vt 0.254630 0.353462
vt 0.224690 0.200000
vt 0.229075 0.200000
vt 0.229075 0.353462
vt 0.224690 0.353461
vt 0.235276 0.200000
vt 0.248429 0.200000
vt 0.248429 0.353462
vt 0.235276 0.353462
vt 0.218489 0.200000
vt 0.218489 0.353461
vt 0.265216 0.353461
vt 0.265216 0.200000
vt 0.233504 0.209913
vt 0.230045 0.230503
vt 0.217179 0.231020
vt 0.222692 0.202968
vt 0.249553 0.209693
vt 0.249146 0.230283
vt 0.242751 0.230189
vt 0.243285 0.211909
vt 0.239003 0.212065
vt 0.237302 0.230296
vt 0.211800 0.231105
vt 0.216943 0.200517
vt 0.208146 0.231161
vt 0.212833 0.263600
vt 0.206435 0.262596
vt 0.202716 0.231185
vt 0.212436 0.200000
vt 0.217766 0.262546
vt 0.239965 0.248237
vt 0.234563 0.251277
vt 0.223778 0.259381
vt 0.243934 0.247673
vt 0.249553 0.249123
vt 0.182349 0.200000
vt 0.182349 0.800000
vt 0.177964 0.800000
vt 0.177964 0.200000
vt 0.207904 0.200000
vt 0.207904 0.800000
vt 0.201703 0.800000
vt 0.201703 0.200000
vt 0.171763 0.800000
vt 0.171763 0.200000
vt 0.188549 0.800000
vt 0.188549 0.200000
vt 0.218489 0.200000
vt 0.218489 0.800000
vt 0.212289 0.800000
vt 0.212289 0.200000
vt 0.339188 0.382007
vt 0.347993 0.381571
vt 0.347915 0.388941
vt 0.340116 0.389513
vt 0.335015 0.341883
vt 0.341340 0.343710
vt 0.340120 0.350258
vt 0.332237 0.348110
vt 0.327716 0.371930
vt 0.338437 0.371651
vt 0.338716 0.377414
vt 0.328833 0.378621
vt 0.339434 0.354480
vt 0.330262 0.352523
vt 0.330218 0.383618
vt 0.338788 0.359984
vt 0.328366 0.358831
vt 0.332388 0.391151
vt 0.348142 0.350897
vt 0.356203 0.350224
vt 0.356890 0.354486
vt 0.348138 0.355056
vt 0.348166 0.360352
vt 0.348106 0.371598
vt 0.348082 0.344244
vt 0.347993 0.377133
vt 0.357846 0.371762
vt 0.368907 0.372177
vt 0.367322 0.379168
vt 0.357331 0.377585
vt 0.356722 0.382180
vt 0.357598 0.359986
vt 0.355499 0.389438
vt 0.354874 0.343632
vt 0.364189 0.348007
vt 0.366242 0.352485
vt 0.365429 0.384150
vt 0.368198 0.358810
vt 0.362649 0.391151
vt 0.361325 0.341725
vt 0.503906 0.421875
vt 0.503906 0.416016
vt 0.509766 0.416016
vt 0.509766 0.421875
vt 0.503906 0.404297
vt 0.509766 0.404297
vt 0.509766 0.410156
vt 0.503906 0.410156
vt 0.482558 0.461008
vt 0.478300 0.456750
vt 0.478300 0.450896
vt 0.482558 0.446638
vt 0.487348 0.446638
vt 0.487348 0.461008
vt 0.528331 0.404789
vt 0.528331 0.419160
vt 0.523541 0.419160
vt 0.519283 0.414902
vt 0.519283 0.409047
vt 0.523541 0.404789
vt 0.509766 0.427734
vt 0.503906 0.427734
vt 0.509766 0.431641
vt 0.503906 0.431641
vt 0.468750 0.421875
vt 0.468750 0.416016
vt 0.474609 0.416016
vt 0.474609 0.421875
vt 0.468750 0.404297
vt 0.474609 0.404297
vt 0.474609 0.410156
vt 0.468750 0.410156
vt 0.519283 0.446638
vt 0.523540 0.450896
vt 0.523540 0.456750
vt 0.519283 0.461008
vt 0.514493 0.461008
vt 0.514493 0.446638
vt 0.505444 0.446638
vt 0.505444 0.461008
vt 0.500654 0.461008
vt 0.496396 0.456750
vt 0.496396 0.450896
vt 0.500654 0.446638
vt 0.474609 0.427734
vt 0.468750 0.427734
vt 0.474609 0.431641
vt 0.468750 0.431641
vt 0.486328 0.416016
vt 0.486328 0.421875
vt 0.480469 0.421875
vt 0.480469 0.416016
vt 0.486328 0.431641
vt 0.480469 0.431641
vt 0.480469 0.427734
vt 0.486328 0.427734
vt 0.518750 0.446638
vt 0.514493 0.442380
vt 0.514493 0.436525
vt 0.518750 0.432267
vt 0.523540 0.432267
vt 0.523540 0.446638
vt 0.532588 0.446638
vt 0.532588 0.461008
vt 0.527798 0.461008
vt 0.523540 0.456750
vt 0.523540 0.450896
vt 0.527798 0.446638
vt 0.480469 0.410156
vt 0.486328 0.410156
vt 0.480469 0.404297
vt 0.486328 0.404297
vt 0.473510 0.461008
vt 0.469252 0.456750
vt 0.469252 0.450896
vt 0.473510 0.446638
vt 0.478300 0.446638
vt 0.478300 0.461008
vt 0.519283 0.404789
vt 0.519283 0.419160
vt 0.514493 0.419160
vt 0.510235 0.414902
vt 0.510235 0.409047
vt 0.514493 0.404789
vt 0.462891 0.421875
vt 0.462891 0.416016
vt 0.462891 0.431641
vt 0.462891 0.427734
vt 0.509702 0.446638
vt 0.505444 0.442380
vt 0.505444 0.436525
vt 0.509702 0.432267
vt 0.514493 0.432267
vt 0.487348 0.432267
vt 0.492139 0.432267
vt 0.496396 0.436525
vt 0.496396 0.442380
vt 0.492139 0.446638
vt 0.462891 0.410156
vt 0.462891 0.404297
vt 0.498047 0.421875
vt 0.498047 0.416016
vt 0.498047 0.404297
vt 0.498047 0.410156
vt 0.491606 0.461008
vt 0.487348 0.456750
vt 0.487348 0.450896
vt 0.491606 0.446638
vt 0.496396 0.446638
vt 0.496396 0.461008
vt 0.532588 0.432267
vt 0.532588 0.446638
vt 0.523540 0.442380
vt 0.523540 0.436525
vt 0.527798 0.432267
vt 0.498047 0.427734
vt 0.498047 0.431641
vt 0.492188 0.416016
vt 0.492188 0.421875
vt 0.492188 0.431641
vt 0.492188 0.427734
vt 0.474043 0.432267
vt 0.478300 0.436525
vt 0.478300 0.442380
vt 0.474043 0.446638
vt 0.469252 0.446638
vt 0.469252 0.432267
vt 0.509702 0.461008
vt 0.505444 0.456750
vt 0.505444 0.450896
vt 0.492188 0.410156
vt 0.492188 0.404297
vt 0.206268 0.200976
vt 0.416016 0.416016
vt 0.416016 0.421875
vt 0.410156 0.421875
vt 0.410156 0.416016
vt 0.416016 0.431641
vt 0.410156 0.431641
vt 0.410156 0.427734
vt 0.416016 0.427734
vt 0.410156 0.410156
vt 0.416016 0.410156
vt 0.410156 0.404297
vt 0.416015 0.404297
vt 0.000504 0.235989
vt 0.000504 0.108039
vt 0.004539 0.108039
vt 0.004539 0.235989
vt 0.000504 0.635989
vt 0.000504 0.508039
vt 0.004539 0.508039
vt 0.004539 0.635989
vt 0.000504 0.484403
vt 0.004539 0.484403
vt 0.000504 0.259625
vt 0.004539 0.259625
vt 0.000504 0.884403
vt 0.000504 0.659625
vt 0.004539 0.659625
vt 0.004539 0.884403
vt 0.000504 0.084403
vt 0.004539 0.084403
vt 0.169879 0.290479
vt 0.041928 0.290479
vt 0.025215 0.273766
vt 0.025215 0.048989
vt 0.041928 0.032275
vt 0.169879 0.032275
vt 0.186592 0.048989
vt 0.186592 0.273766
vt 0.270279 0.687565
vt 0.270279 0.890581
vt 0.200092 0.891974
vt 0.200092 0.688516
vt 0.114583 0.895833
vt 0.108193 0.688116
vt 0.270833 0.078125
vt 0.270279 0.640559
vt 0.200092 0.642614
vt 0.206546 0.081160
vt 0.114583 0.648438
vt 0.108193 0.079064
vt 0.270279 0.687566
vt 0.270279 0.890581
vt 0.200092 0.891974
vt 0.200092 0.688516
vt 0.114583 0.895833
vt 0.108193 0.688116
vt 0.270279 0.640560
vt 0.200092 0.642614
vt 0.206546 0.081160
vt 0.114583 0.648438
vt 0.108193 0.079064
vt 0.269987 0.921942
vt 0.195957 0.922147
vt 0.269987 0.921942
vt 0.195957 0.922147
vt 1.000000 0.981754
vt 0.981754 0.000000
vt 0.666668 0.018246
vt 0.684914 1.000000
vt 0.296875 0.640625
vt 0.296875 0.687500
vt 0.296875 0.890625
vt 0.296875 0.921875
vt 0.296875 0.078125
s 1
usemtl plastic_mp_2
f 264/403/52 209/404/52 214/405/52 211/406/52
f 213/407/53 212/408/53 211/409/53 214/410/53
f 209/411/54 210/412/55 213/413/56 214/414/56
f 265/415/57 264/416/58 211/417/59 212/418/59
f 215/419/53 219/420/53 221/421/53 217/422/53
f 222/423/60 221/424/60 219/425/60 220/426/60
f 218/427/61 217/422/61 221/421/61 222/428/61
f 216/429/62 215/430/62 217/431/62 218/432/62
f 230/433/60 229/434/60 227/435/60 228/436/60
f 223/437/53 227/438/53 229/439/53 225/440/53
f 224/441/62 223/442/62 225/443/62 226/444/62
f 226/445/61 225/440/61 229/439/61 230/446/61
f 238/447/53 234/448/53 232/449/53 236/450/53
f 231/451/60 232/452/60 234/453/60 233/454/60
f 235/455/61 236/450/61 232/449/61 231/456/61
f 237/457/62 238/458/62 236/459/62 235/460/62
f 239/461/53 243/462/53 245/463/53 241/464/53
f 242/465/61 241/464/61 245/463/61 246/466/61
f 240/467/62 239/468/62 241/469/62 242/470/62
f 246/471/60 245/472/60 243/473/60 244/451/60
f 250/474/61 249/475/61 253/476/61 254/477/61
f 248/478/62 247/479/62 249/480/62 250/481/62
f 247/482/53 251/483/53 253/476/53 249/475/53
f 254/484/60 253/485/60 251/486/60 252/487/60
f 262/488/53 258/489/53 256/490/53 260/491/53
f 259/492/61 260/491/61 256/490/61 255/493/61
f 261/494/62 262/495/62 260/496/62 259/497/62
f 255/498/60 256/499/60 258/500/60 257/501/60
f 327/502/60 263/503/60 264/416/58
f 328/504/63 266/505/63 263/503/63 327/502/63
f 328/504/62 332/506/62 210/412/55 209/411/54
f 209/404/53 264/403/53 263/507/53 266/508/53
f 310/509/62 313/510/62 314/511/62 311/512/62 326/513/62
f 276/514/60 275/515/60 273/516/60 274/517/60
f 272/518/61 271/519/61 275/520/61 276/521/61
f 269/522/53 273/437/53 275/520/53 271/519/53
f 270/523/62 269/524/62 271/525/62 272/526/62
f 284/527/53 280/528/53 278/529/53 282/530/53
f 281/531/61 282/530/61 278/529/61 277/532/61
f 283/533/62 284/534/62 282/535/62 281/536/62
f 277/537/60 278/538/60 280/539/60 279/540/60
f 285/541/53 289/542/53 291/543/53 287/544/53
f 288/545/61 287/544/61 291/543/61 292/546/61
f 286/547/62 285/548/62 287/549/62 288/550/62
f 292/551/60 291/552/60 289/501/60 290/553/60
f 297/554/61 298/555/61 294/556/61 293/557/61
f 299/558/62 300/559/62 298/560/62 297/561/62
f 300/562/53 296/563/53 294/556/53 298/555/53
f 293/564/60 294/565/60 296/566/60 295/567/60
f 304/568/61 303/569/61 307/570/61 308/571/61
f 302/572/62 301/573/62 303/574/62 304/575/62
f 301/576/53 305/577/53 307/570/53 303/569/53
f 308/578/60 307/579/60 305/580/60 306/581/60
f 268/582/54 310/509/62 326/513/62 331/583/54 330/584/54
f 315/585/64 314/586/64 313/587/64 316/588/64
f 267/589/65 309/590/65 310/591/65 268/592/65
f 315/585/65 312/593/65 311/594/65 314/586/65
f 310/591/66 309/590/66 316/588/66 313/587/66
f 323/595/62 324/596/62 322/597/62 321/598/62
f 324/599/53 320/600/53 318/519/53 322/601/53
f 321/602/61 322/601/61 318/519/61 317/603/61
f 317/604/60 318/605/60 320/606/60 319/607/60
f 325/608/60 312/609/60 315/610/60 316/611/60 309/612/60
f 266/505/62 328/504/62 209/411/54
f 328/613/65 327/614/65 339/615/65 337/616/65
f 330/617/53 331/618/53 335/619/53 340/620/53
f 268/582/67 330/584/67 329/621/67 267/622/67
f 265/415/57 333/623/60 327/502/60 264/416/58
f 327/614/65 333/624/65 341/625/65 339/615/65
f 340/626/62 335/627/62 336/628/62 337/629/62
f 341/630/60 342/631/60 338/632/60 339/633/60
f 340/626/66 337/629/66 339/633/66 338/632/66
f 329/634/53 330/617/53 340/620/53 338/635/53
f 334/636/53 329/634/53 338/635/53 342/637/53
f 332/638/65 328/613/65 337/616/65 336/639/65
f 267/622/60 329/621/60 334/640/60 325/608/60 309/612/60
f 404/745/80 399/746/81 402/747/82 405/748/83
f 392/749/84 395/750/85 398/751/86 393/752/87
f 396/753/88 403/754/89 406/755/90 397/756/91
f 391/757/92 392/749/84 393/752/87 394/758/93
f 397/756/91 398/751/86 395/750/85 396/753/88
f 405/748/83 406/755/90 403/754/89 404/745/80
f 401/759/94 402/747/82 399/746/81 400/760/95
f 406/761/90 414/762/96 409/763/97 397/764/91
f 401/765/94 411/766/98 412/767/99 402/768/82
f 405/769/83 413/770/100 414/762/96 406/761/90
f 397/764/91 409/763/97 410/771/101 398/772/86
f 402/768/82 412/767/99 413/770/100 405/769/83
f 407/773/102 415/774/103 416/775/104 408/776/105
f 398/772/86 410/771/101 407/773/102 393/777/87
f 410/771/101 418/778/106 415/774/103 407/773/102
f 413/770/100 421/779/107 422/780/108 414/762/96
f 414/762/96 422/780/108 417/781/109 409/763/97
f 412/767/99 420/782/110 421/779/107 413/770/100
f 411/766/98 419/783/111 420/782/110 412/767/99
f 409/763/97 417/781/109 418/778/106 410/771/101
f 418/784/106 426/785/112 423/786/113 415/787/103
f 421/788/107 429/789/114 430/790/115 422/791/108
f 415/787/103 423/786/113 424/792/116 416/793/104
f 422/791/108 430/790/115 425/794/117 417/795/109
f 419/796/111 427/797/118 428/798/119 420/799/110
f 417/795/109 425/794/117 426/785/112 418/784/106
f 420/799/110 428/798/119 429/789/114 421/788/107
f 431/800/120 439/801/121 440/802/122 432/803/123
f 427/804/118 435/805/124 436/806/125 428/807/119
f 425/808/117 433/809/126 434/810/127 426/811/112
f 428/807/119 436/806/125 437/812/128 429/813/114
f 426/811/112 434/810/127 431/800/120 423/814/113
f 429/813/114 437/812/128 438/815/129 430/816/115
f 423/814/113 431/800/120 432/803/123 424/817/116
f 430/816/115 438/815/129 433/809/126 425/808/117
f 444/818/130 452/819/131 453/820/132 445/821/133
f 438/815/129 446/822/134 441/823/135 433/809/126
f 435/805/124 443/824/136 444/818/130 436/806/125
f 433/809/126 441/823/135 442/825/137 434/810/127
f 436/806/125 444/818/130 445/821/133 437/812/128
f 434/810/127 442/825/137 439/801/121 431/800/120
f 437/812/128 445/821/133 446/822/134 438/815/129
f 449/826/138 457/827/139 458/828/140 450/829/141
f 442/825/137 450/829/141 447/830/142 439/801/121
f 445/821/133 453/820/132 454/831/143 446/822/134
f 439/801/121 447/830/142 448/832/144 440/802/122
f 446/822/134 454/831/143 449/826/138 441/823/135
f 443/824/136 451/833/145 452/819/131 444/818/130
f 441/823/135 449/826/138 450/829/141 442/825/137
f 452/819/131 460/834/146 461/835/147 453/820/132
f 450/829/141 458/828/140 455/836/148 447/830/142
f 453/820/132 461/835/147 462/837/149 454/831/143
f 447/830/142 455/836/148 456/838/150 448/832/144
f 454/831/143 462/837/149 457/827/139 449/826/138
f 451/833/145 459/839/151 460/834/146 452/819/131
f 393/777/87 407/773/102 408/776/105 394/972/93
s 0
f 562/985/62 563/986/62 571/987/62 570/988/62
f 560/989/60 565/990/60 573/991/60 568/992/60
f 565/990/92 566/993/92 574/994/92 573/991/92
f 561/995/95 562/985/95 570/988/95 569/996/95
f 566/993/156 561/995/156 569/996/156 574/994/156
f 564/997/66 559/998/66 567/999/66 572/1000/66
f 563/986/157 564/1001/157 572/1002/157 571/987/157
f 559/998/158 560/989/158 568/992/158 567/999/158
f 568/1003/65 573/1004/65 574/1005/65 569/1006/65 570/1007/65 571/1008/65 572/1009/65 567/1010/65
s 1
usemtl lamp_1_on_yellow
f 594/1011/159 591/1012/160 592/1013/161 595/1014/162
f 595/1014/162 592/1013/161 588/1015/163 593/1016/164
f 584/1017/165 596/1018/166 597/1019/167 585/1020/168
f 585/1020/168 597/1019/167 593/1021/164 583/1022/169
f 599/1023/170 586/1024/171 587/1025/172 600/1026/173
f 600/1026/173 587/1025/172 583/1027/169 598/1028/174
f 589/1017/175 601/1029/176 602/1030/177 590/1031/178
f 590/1031/178 602/1030/177 598/1032/174 588/1033/163
f 586/1024/171 584/1034/165 585/1035/168 587/1025/172
f 587/1025/172 585/1035/168 583/1027/169
f 591/1012/160 589/1036/175 590/1037/178 592/1013/161
f 592/1013/161 590/1037/178 588/1015/163
f 596/1018/166 594/1011/159 595/1014/162 597/1019/167
f 597/1019/167 595/1014/162 593/1021/164
f 601/1029/176 599/1023/170 600/1026/173 602/1030/177
f 602/1030/177 600/1026/173 598/1032/174
f 583/1038/169 593/1039/164 588/1040/163 598/1041/174
f 594/1011/159 596/1018/166 577/1042/179 578/1043/81
f 589/1036/175 591/1012/160 579/1044/80 580/1045/89
f 591/1012/160 594/1011/159 578/1043/81 579/1044/80
f 586/1024/171 599/1023/170 576/1043/85 581/1044/84
f 584/1034/165 586/1024/171 581/1044/84 582/1045/180
f 599/1023/170 601/1029/176 575/1042/88 576/1043/85
f 596/1018/166 584/1017/165 582/1046/180 577/1042/179
f 601/1029/176 589/1017/175 580/1046/89 575/1042/88
usemtl metal_mp_4
f 343/641/68 344/642/68 346/643/68 345/644/68
f 345/645/69 346/646/69 348/647/69 347/648/69
f 347/649/70 348/650/70 350/651/70 349/652/70
f 349/652/71 350/651/71 352/653/71 351/654/71
f 346/655/66 344/656/66 354/657/66 352/658/66 350/659/66 348/660/66
f 351/661/72 352/662/72 354/663/72 353/664/72
f 353/665/73 354/666/73 344/642/73 343/641/73
f 355/667/74 356/668/74 358/669/74 357/670/74
f 357/671/75 358/672/75 360/673/75 359/674/75
f 359/674/76 360/673/76 362/675/76 361/676/76
f 361/677/77 362/678/77 364/679/77 363/680/77
f 358/681/66 356/682/66 366/683/66 364/684/66 362/685/66 360/686/66
f 363/687/78 364/688/78 366/689/78 365/690/78
f 365/690/79 366/689/79 356/691/79 355/692/79
f 367/693/68 368/694/68 370/695/68 369/696/68
f 369/697/69 370/698/69 372/699/69 371/700/69
f 371/701/70 372/702/70 374/703/70 373/704/70
f 373/704/71 374/703/71 376/705/71 375/706/71
f 370/707/66 368/708/66 378/709/66 376/710/66 374/711/66 372/712/66
f 375/713/72 376/714/72 378/715/72 377/716/72
f 377/717/73 378/718/73 368/694/73 367/693/73
f 379/719/74 380/720/74 382/721/74 381/722/74
f 381/723/75 382/724/75 384/725/75 383/726/75
f 383/726/76 384/725/76 386/727/76 385/728/76
f 385/729/77 386/730/77 388/731/77 387/732/77
f 382/733/66 380/734/66 390/735/66 388/736/66 386/737/66 384/738/66
f 387/739/78 388/740/78 390/741/78 389/742/78
f 389/742/79 390/741/79 380/743/79 379/744/79
f 471/840/152 474/841/153 469/842/153 468/843/152
f 466/844/53 464/845/53 470/846/154 473/847/154
f 467/848/60 468/849/60 469/850/60 470/851/60 464/852/60 463/853/60
f 465/854/62 466/855/62 473/856/62 474/857/62 471/858/62 472/859/62
f 467/860/155 472/861/155 471/840/152 468/843/152
f 473/847/154 470/846/154 469/842/153 474/841/153
f 463/862/65 465/863/65 472/861/155 467/860/155
f 483/864/152 486/865/153 481/866/153 480/867/152
f 478/868/53 476/869/53 482/870/154 485/871/154
f 479/872/60 480/873/60 481/874/60 482/875/60 476/876/60 475/877/60
f 477/878/62 478/879/62 485/880/62 486/881/62 483/882/62 484/883/62
f 479/884/155 484/885/155 483/864/152 480/867/152
f 485/871/154 482/870/154 481/866/153 486/865/153
f 475/886/65 477/887/65 484/885/155 479/884/155
f 495/888/152 498/889/153 493/890/153 492/891/152
f 490/892/53 488/893/53 494/894/154 497/895/154
f 491/896/60 492/897/60 493/898/60 494/899/60 488/900/60 487/901/60
f 489/902/62 490/903/62 497/904/62 498/905/62 495/906/62 496/907/62
f 491/908/155 496/909/155 495/888/152 492/891/152
f 497/895/154 494/894/154 493/890/153 498/889/153
f 487/910/65 489/911/65 496/909/155 491/908/155
f 507/867/152 510/866/153 505/891/153 504/890/152
f 502/869/53 500/910/53 506/908/154 509/870/154
f 503/912/60 504/913/60 505/914/60 506/915/60 500/916/60 499/917/60
f 501/918/62 502/919/62 509/920/62 510/921/62 507/922/62 508/923/62
f 503/894/155 508/884/155 507/867/152 504/890/152
f 509/870/154 506/908/154 505/891/153 510/866/153
f 499/893/65 501/886/65 508/884/155 503/894/155
f 519/865/89 522/864/88 517/924/88 516/925/89
f 514/887/60 512/926/60 518/927/85 521/885/85
f 515/928/65 516/929/65 517/930/65 518/931/65 512/932/65 511/877/65
f 513/852/53 514/933/53 521/934/53 522/935/53 519/936/53 520/937/53
f 515/938/80 520/871/80 519/865/89 516/925/89
f 521/885/85 518/927/85 517/924/88 522/864/88
f 511/939/62 513/868/62 520/871/80 515/938/80
f 531/940/152 534/941/153 529/841/153 528/840/152
f 526/942/53 524/844/53 530/847/154 533/943/154
f 527/944/60 528/945/60 529/946/60 530/947/60 524/948/60 523/949/60
f 525/950/62 526/951/62 533/907/62 534/952/62 531/953/62 532/954/62
f 527/861/155 532/955/155 531/940/152 528/840/152
f 533/943/154 530/847/154 529/841/153 534/941/153
f 523/863/65 525/956/65 532/955/155 527/861/155
f 543/957/152 546/958/153 541/889/153 540/888/152
f 538/959/53 536/892/53 542/895/154 545/960/154
f 539/961/60 540/962/60 541/963/60 542/964/60 536/965/60 535/966/60
f 537/877/62 538/876/62 545/967/62 546/968/62 543/969/62 544/928/62
f 539/909/155 544/970/155 543/957/152 540/888/152
f 545/960/154 542/895/154 541/889/153 546/958/153
f 535/911/65 537/971/65 544/970/155 539/909/155
f 555/973/89 558/974/88 553/975/88 552/976/89
f 550/977/60 548/978/60 554/979/85 557/980/85
f 551/928/65 552/929/65 553/930/65 554/931/65 548/932/65 547/877/65
f 549/852/53 550/933/53 557/934/53 558/935/53 555/936/53 556/937/53
f 551/981/80 556/982/80 555/973/89 552/976/89
f 557/980/85 554/979/85 553/975/88 558/974/88
f 547/983/62 549/984/62 556/982/80 551/981/80
