# Blender 5.0.1
# www.blender.org
mtllib lamp_2_2_on.mtl
o lamp_2_2_on
v 0.162796 0.010433 0.009600
v 0.162796 0.010433 0.020400
v 0.170432 0.002797 0.009600
v 0.170432 0.002797 0.020400
v 0.167637 -0.007635 0.009600
v 0.167637 -0.007635 0.020400
v 0.157205 -0.010431 0.009600
v 0.157205 -0.010431 0.020400
v 0.149568 -0.002794 0.009600
v 0.149568 -0.002794 0.020400
v 0.152364 0.007638 0.009600
v 0.152364 0.007638 0.020400
v -0.164564 0.009790 0.009600
v -0.164564 0.009790 0.020400
v -0.153805 0.008848 0.009600
v -0.153805 0.008848 0.020400
v -0.149241 -0.000940 0.009600
v -0.149241 -0.000940 0.020400
v -0.155435 -0.009787 0.009600
v -0.155435 -0.009787 0.020400
v -0.166194 -0.008845 0.009600
v -0.166194 -0.008845 0.020400
v -0.170759 0.000943 0.009600
v -0.170759 0.000943 0.020400
v -0.180000 -0.008000 0.010000
v -0.168000 -0.020000 0.010000
v -0.168000 0.020000 0.010000
v -0.180000 0.008000 0.010000
v -0.168000 -0.020000 -0.000000
v -0.180000 -0.008000 -0.000000
v -0.180000 0.008000 -0.000000
v -0.168000 0.020000 -0.000000
v 0.168000 -0.020000 0.010000
v 0.180000 -0.008000 0.010000
v 0.180000 0.008000 0.010000
v 0.168000 0.020000 0.010000
v 0.180000 -0.008000 -0.000000
v 0.168000 -0.020000 -0.000000
v 0.168000 0.020000 -0.000000
v 0.180000 0.008000 -0.000000
v -0.086057 0.053796 0.032000
v 0.086061 0.053796 0.032000
v -0.086057 -0.053796 0.032000
v -0.108794 0.031059 0.032000
v -0.051707 0.063000 0.032000
v 0.108798 0.031059 0.032000
v 0.051710 0.063000 0.032000
v -0.117116 -0.000000 0.032000
v -0.108794 -0.031059 0.032000
v -0.051707 -0.063000 0.032000
v 0.117120 0.000000 0.032000
v 0.108798 -0.031059 0.032000
v 0.086061 -0.053796 0.032000
v 0.051710 -0.063000 0.032000
v 0.099002 -0.076210 -0.000000
v 0.131212 -0.044000 -0.000000
v 0.055002 -0.088000 -0.000000
v 0.143002 0.000000 -0.000000
v -0.131208 -0.044000 -0.000000
v -0.098998 -0.076210 -0.000000
v -0.142998 -0.000000 -0.000000
v -0.054998 -0.088000 -0.000000
v 0.131212 0.044000 -0.000000
v 0.099002 0.076210 -0.000000
v 0.055002 0.088000 -0.000000
v -0.098998 0.076210 -0.000000
v -0.131208 0.044000 -0.000000
v -0.054998 0.088000 -0.000000
v -0.131208 -0.044000 0.032000
v -0.142998 -0.000000 0.032000
v 0.143002 0.000000 0.032000
v 0.131212 -0.044000 0.032000
v 0.099002 -0.076210 0.032000
v 0.055002 -0.088000 0.032000
v -0.054998 0.088000 0.032000
v 0.055002 0.088000 0.032000
v -0.054998 -0.088000 0.032000
v -0.131208 0.044000 0.032000
v 0.131212 0.044000 0.032000
v -0.098998 -0.076210 0.032000
v 0.099002 0.076210 0.032000
v -0.098998 0.076210 0.032000
v -0.108794 -0.031059 0.025000
v -0.117116 -0.000000 0.025000
v 0.117120 0.000000 0.025000
v 0.108798 -0.031059 0.025000
v 0.086061 -0.053796 0.025000
v 0.051710 -0.063000 0.025000
v -0.051707 0.063000 0.025000
v 0.051710 0.063000 0.025000
v -0.051707 -0.063000 0.025000
v -0.108794 0.031059 0.025000
v 0.108798 0.031059 0.025000
v -0.086057 -0.053796 0.025000
v 0.086061 0.053796 0.025000
v -0.086057 0.053796 0.025000
v -0.054998 0.071000 0.040000
v -0.054998 0.081000 0.040000
v -0.054998 0.071000 0.032000
v -0.054998 0.081000 0.032000
v -0.044998 0.071000 0.040000
v -0.044998 0.081000 0.040000
v -0.044998 0.071000 0.032000
v -0.044998 0.081000 0.032000
v -0.054998 0.063969 0.070806
v -0.054998 0.072979 0.075144
v -0.044998 0.063969 0.070806
v -0.044998 0.072979 0.075144
v -0.054998 0.044268 0.095510
v -0.054998 0.050503 0.103328
v -0.044998 0.044268 0.095510
v -0.044998 0.050503 0.103328
v -0.054998 0.015799 0.109220
v -0.054998 0.018025 0.118969
v -0.044998 0.015799 0.109220
v -0.044998 0.018025 0.118969
v -0.054998 -0.015799 0.109220
v -0.054998 -0.018024 0.118969
v -0.044998 -0.015799 0.109220
v -0.044998 -0.018024 0.118969
v -0.054998 -0.044267 0.095510
v -0.054998 -0.050502 0.103329
v -0.044998 -0.044267 0.095510
v -0.044998 -0.050502 0.103329
v -0.054998 -0.063969 0.070806
v -0.054998 -0.072978 0.075145
v -0.044998 -0.063969 0.070806
v -0.044998 -0.072978 0.075145
v -0.054998 -0.071000 0.040000
v -0.054998 -0.081000 0.040000
v -0.044998 -0.071000 0.040000
v -0.044998 -0.081000 0.040000
v -0.054998 -0.071000 0.032000
v -0.054998 -0.081000 0.032000
v -0.044998 -0.071000 0.032000
v -0.044998 -0.081000 0.032000
v 0.045002 0.071000 0.040000
v 0.045002 0.081000 0.040000
v 0.045002 0.071000 0.032000
v 0.045002 0.081000 0.032000
v 0.055002 0.071000 0.040000
v 0.055002 0.081000 0.040000
v 0.055002 0.071000 0.032000
v 0.055002 0.081000 0.032000
v 0.045002 0.063969 0.070806
v 0.045002 0.072979 0.075144
v 0.055002 0.063969 0.070806
v 0.055002 0.072979 0.075144
v 0.045002 0.044268 0.095510
v 0.045002 0.050503 0.103328
v 0.055002 0.044268 0.095510
v 0.055002 0.050503 0.103328
v 0.045002 0.015799 0.109220
v 0.045002 0.018025 0.118969
v 0.055002 0.015799 0.109220
v 0.055002 0.018025 0.118969
v 0.045002 -0.015799 0.109220
v 0.045002 -0.018024 0.118969
v 0.055002 -0.015799 0.109220
v 0.055002 -0.018024 0.118969
v 0.045002 -0.044267 0.095510
v 0.045002 -0.050502 0.103329
v 0.055002 -0.044267 0.095510
v 0.055002 -0.050502 0.103329
v 0.045002 -0.063969 0.070806
v 0.045002 -0.072978 0.075145
v 0.055002 -0.063969 0.070806
v 0.055002 -0.072978 0.075145
v 0.045002 -0.071000 0.040000
v 0.045002 -0.081000 0.040000
v 0.055002 -0.071000 0.040000
v 0.055002 -0.081000 0.040000
v 0.045002 -0.071000 0.032000
v 0.045002 -0.081000 0.032000
v 0.055002 -0.071000 0.032000
v 0.055002 -0.081000 0.032000
v -0.044998 0.005000 0.118969
v 0.055002 0.005000 0.109220
v 0.045002 0.005000 0.118969
v 0.055002 0.005000 0.118969
v 0.045002 -0.004999 0.109220
v 0.055002 -0.004999 0.118969
v 0.121002 0.005000 0.040000
v 0.131002 0.005000 0.040000
v 0.121002 0.005000 0.032000
v 0.131002 0.005000 0.032000
v 0.121002 -0.005000 0.040000
v 0.131002 -0.005000 0.040000
v 0.121002 -0.005000 0.032000
v 0.131002 -0.005000 0.032000
v 0.113971 0.005000 0.070806
v 0.122980 0.005000 0.075144
v 0.113971 -0.005000 0.070806
v 0.122980 -0.005000 0.075144
v 0.094270 0.005000 0.095510
v 0.100505 0.005000 0.103328
v 0.094270 -0.005000 0.095510
v 0.100505 -0.005000 0.103328
v 0.065801 0.005000 0.109220
v 0.068026 0.005000 0.118969
v 0.065801 -0.005000 0.109220
v 0.068026 -0.005000 0.118969
v -0.065797 0.005000 0.109220
v -0.068022 0.005000 0.118969
v -0.065797 -0.005000 0.109220
v -0.068022 -0.005000 0.118969
v -0.094266 0.005000 0.095510
v -0.100501 0.005000 0.103329
v -0.094266 -0.005000 0.095510
v -0.100501 -0.005000 0.103329
v -0.113967 0.005000 0.070806
v -0.122977 0.005000 0.075145
v -0.113967 -0.005000 0.070806
v -0.122977 -0.005000 0.075145
v -0.120998 0.005000 0.040000
v -0.130998 0.005000 0.040000
v -0.120998 -0.005000 0.040000
v -0.130998 -0.005000 0.040000
v -0.120998 0.005000 0.032000
v -0.130998 0.005000 0.032000
v -0.120998 -0.005000 0.032000
v -0.130998 -0.005000 0.032000
v 0.045002 0.005000 0.109220
v 0.045002 -0.004999 0.118969
v 0.055002 -0.004999 0.109220
v -0.044998 -0.004999 0.109220
v -0.044998 0.005000 0.109220
v -0.044998 -0.004999 0.118969
v -0.054998 -0.004999 0.109220
v -0.054998 0.005000 0.109220
v -0.054998 0.005000 0.118969
v -0.054998 -0.004999 0.118969
v -0.103867 0.029088 0.025000
v -0.082573 0.050382 0.025000
v -0.051707 0.058348 0.025000
v 0.103870 0.029088 0.025000
v 0.082577 0.050382 0.025000
v 0.051711 0.058348 0.025000
v -0.103867 -0.029088 0.025000
v -0.082573 -0.050382 0.025000
v -0.051707 -0.058348 0.025000
v 0.103870 -0.029088 0.025000
v 0.082577 -0.050382 0.025000
v 0.051711 -0.058348 0.025000
v -0.111511 -0.000000 0.025000
v 0.111514 -0.000000 0.025000
v -0.103810 0.028738 0.044016
v -0.078923 0.014369 0.093365
v -0.097142 0.024888 0.072508
v -0.082773 0.049775 0.044016
v -0.061473 0.012883 0.099058
v -0.068404 0.024888 0.093365
v -0.078923 0.043107 0.072508
v -0.051707 0.057600 0.044016
v -0.051707 0.015365 0.099058
v -0.051707 0.029108 0.093365
v -0.051707 0.049965 0.072508
v 0.103814 0.028738 0.044016
v 0.097145 0.024888 0.072508
v 0.078926 0.014369 0.093365
v 0.082776 0.049775 0.044016
v 0.078926 0.043107 0.072508
v 0.068407 0.024888 0.093365
v 0.061476 0.012883 0.099058
v 0.051711 0.057600 0.044016
v 0.051711 0.049965 0.072508
v 0.051711 0.029108 0.093365
v 0.051711 0.015365 0.099058
v -0.111511 -0.000000 0.044016
v -0.068911 -0.000000 0.099058
v -0.082773 -0.000000 0.093365
v -0.103810 -0.000000 0.072508
v -0.103810 -0.028738 0.044016
v -0.097142 -0.024888 0.072508
v -0.078923 -0.014369 0.093365
v -0.082773 -0.049776 0.044016
v -0.078923 -0.043107 0.072508
v -0.068404 -0.024888 0.093365
v -0.061473 -0.012883 0.099058
v -0.051707 -0.057600 0.044016
v -0.051707 -0.049966 0.072508
v -0.051707 -0.029108 0.093365
v -0.051707 -0.015365 0.099058
v 0.111514 -0.000000 0.044016
v 0.103814 -0.000000 0.072508
v 0.082776 -0.000000 0.093365
v 0.068915 -0.000000 0.099058
v 0.103814 -0.028738 0.044016
v 0.078926 -0.014369 0.093365
v 0.097145 -0.024888 0.072508
v 0.082776 -0.049776 0.044016
v 0.061477 -0.012883 0.099058
v 0.068408 -0.024888 0.093365
v 0.078926 -0.043107 0.072508
v 0.051711 -0.057600 0.044016
v 0.051711 -0.015365 0.099058
v 0.051711 -0.029108 0.093365
v 0.051711 -0.049966 0.072508
vn 0.7071 0.7071 -0.0000
vn 0.9659 -0.2588 -0.0000
vn 0.2588 -0.9659 -0.0000
vn -0.7071 -0.7071 -0.0000
vn -0.0000 -0.0000 1.0000
vn -0.9659 0.2588 -0.0000
vn -0.2588 0.9659 -0.0000
vn 0.0872 0.9962 -0.0000
vn 0.9063 0.4226 -0.0000
vn 0.8192 -0.5736 -0.0000
vn -0.0872 -0.9962 -0.0000
vn -0.9063 -0.4226 -0.0000
vn -0.8191 0.5736 -0.0000
vn 1.0000 -0.0000 -0.0000
vn -0.0000 1.0000 -0.0000
vn -1.0000 -0.0000 -0.0000
vn -0.7071 0.7071 -0.0000
vn 0.7071 -0.7071 -0.0000
vn -0.0000 -1.0000 -0.0000
vn -0.8660 -0.5000 -0.0000
vn 0.8660 -0.5000 -0.0000
vn -0.1305 -0.9914 -0.0000
vn -0.5000 -0.8660 -0.0000
vn 0.8660 0.5000 -0.0000
vn -0.8660 0.5000 -0.0000
vn 0.1305 -0.9914 -0.0000
vn 0.1305 0.9914 -0.0000
vn 0.5000 0.8660 -0.0000
vn -0.1305 0.9914 -0.0000
vn 0.5000 -0.8660 -0.0000
vn -0.5000 0.8660 -0.0000
vn -0.0000 -0.9937 -0.1120
vn -0.0000 -0.9010 -0.4339
vn -0.0000 0.9937 0.1120
vn -0.0000 0.9010 0.4339
vn -0.0000 0.6235 0.7818
vn -0.0000 -0.6235 -0.7818
vn -0.0000 -0.0000 -1.0000
vn -0.0000 0.2225 -0.9749
vn -0.0000 -0.2225 -0.9749
vn -0.0000 0.2225 0.9749
vn -0.0000 -0.2225 0.9749
vn -0.0000 -0.6235 0.7818
vn -0.0000 0.6235 -0.7818
vn -0.0000 0.9010 -0.4339
vn -0.0000 0.9937 -0.1120
vn -0.0000 -0.9010 0.4339
vn -0.0000 -0.9937 0.1120
vn -0.9937 -0.0000 -0.1120
vn -0.9010 -0.0000 -0.4339
vn 0.9937 -0.0000 0.1120
vn 0.9010 -0.0000 0.4339
vn 0.6235 -0.0000 0.7818
vn -0.6235 -0.0000 -0.7818
vn 0.2225 -0.0000 -0.9749
vn -0.2225 -0.0000 -0.9749
vn 0.2225 -0.0000 0.9749
vn -0.2225 -0.0000 0.9749
vn -0.6235 -0.0000 0.7818
vn 0.6235 -0.0000 -0.7818
vn 0.9010 -0.0000 -0.4339
vn 0.9937 -0.0000 -0.1120
vn -0.9010 -0.0000 0.4339
vn -0.9937 -0.0000 0.1120
vn -0.1240 0.9916 0.0366
vn -0.4910 0.8708 0.0252
vn -0.4912 0.8595 0.1411
vn -0.1215 0.9817 0.1465
vn -0.8654 0.5010 0.0099
vn -0.8592 0.4939 0.1337
vn 0.4910 -0.8708 0.0252
vn 0.8654 -0.5010 0.0098
vn 0.8592 -0.4939 0.1337
vn 0.4912 -0.8595 0.1411
vn -0.8654 -0.5010 0.0098
vn -0.4910 -0.8708 0.0252
vn -0.4912 -0.8595 0.1411
vn -0.8592 -0.4939 0.1337
vn -1.0000 -0.0000 0.0039
vn -0.9914 -0.0000 0.1308
vn 0.1240 -0.9916 0.0365
vn 0.1215 -0.9817 0.1465
vn 0.4910 0.8708 0.0252
vn 0.1240 0.9916 0.0366
vn 0.1215 0.9817 0.1465
vn 0.4912 0.8595 0.1411
vn -0.1240 -0.9916 0.0365
vn -0.1215 -0.9817 0.1465
vn 0.1253 0.1869 0.9744
vn 0.0283 0.2096 0.9774
vn 0.0283 -0.2096 0.9774
vn 0.1253 -0.1869 0.9744
vn -0.1253 -0.1869 0.9744
vn -0.0283 -0.2096 0.9774
vn -0.0283 0.2096 0.9774
vn -0.1253 0.1869 0.9744
vn 0.8654 0.5010 0.0099
vn 0.8592 0.4939 0.1337
vn 1.0000 -0.0000 0.0039
vn 0.9914 -0.0000 0.1308
vn -0.4929 0.2846 0.8222
vn -0.7574 0.4373 0.4850
vn -0.8745 -0.0000 0.4850
vn -0.5742 -0.0000 0.8187
vn -0.2232 -0.0000 0.9748
vn -0.4929 -0.2846 0.8222
vn -0.4318 0.7608 0.4845
vn -0.2836 0.5000 0.8183
vn -0.0715 0.5642 0.8225
vn -0.1065 0.8657 0.4892
vn 0.8745 -0.0000 0.4850
vn 0.7574 0.4373 0.4850
vn 0.5742 -0.0000 0.8187
vn 0.4929 0.2846 0.8222
vn 0.2836 0.5000 0.8183
vn 0.4318 0.7608 0.4845
vn 0.0715 0.5642 0.8225
vn 0.1065 0.8657 0.4892
vn 0.4929 -0.2846 0.8222
vn 0.2232 -0.0000 0.9748
vn -0.7574 -0.4373 0.4850
vn -0.4318 -0.7608 0.4845
vn -0.2836 -0.5000 0.8183
vn -0.0715 -0.5642 0.8225
vn -0.1065 -0.8657 0.4892
vn 0.7574 -0.4373 0.4850
vn 0.4318 -0.7608 0.4845
vn 0.2836 -0.5000 0.8183
vn 0.0715 -0.5642 0.8225
vn 0.1065 -0.8657 0.4892
vt 0.581479 0.470900
vt 0.581479 0.476300
vt 0.585298 0.476300
vt 0.585298 0.470900
vt 0.501398 0.470900
vt 0.501398 0.476300
vt 0.496182 0.476300
vt 0.496182 0.470900
vt 0.583900 0.470900
vt 0.583900 0.476300
vt 0.578684 0.476300
vt 0.578684 0.470900
vt 0.574866 0.476300
vt 0.574866 0.470900
vt 0.585298 0.501398
vt 0.581479 0.505217
vt 0.576263 0.503819
vt 0.574866 0.498603
vt 0.578684 0.494785
vt 0.583900 0.496182
vt 0.498603 0.470900
vt 0.498603 0.476300
vt 0.503819 0.476300
vt 0.503819 0.470900
vt 0.576263 0.470900
vt 0.576263 0.476300
vt 0.417800 0.470900
vt 0.417800 0.476300
vt 0.423179 0.476300
vt 0.423179 0.470900
vt 0.504424 0.470900
vt 0.504424 0.476300
vt 0.499530 0.476300
vt 0.499530 0.470900
vt 0.495107 0.476300
vt 0.495107 0.470900
vt 0.422364 0.470900
vt 0.422364 0.476300
vt 0.416984 0.476300
vt 0.416984 0.470900
vt 0.423179 0.504424
vt 0.417800 0.504895
vt 0.414702 0.500471
vt 0.416984 0.495577
vt 0.422364 0.495107
vt 0.425461 0.499530
vt 0.495577 0.470900
vt 0.495577 0.476300
vt 0.500471 0.476300
vt 0.500471 0.470900
vt 0.504895 0.476300
vt 0.504895 0.470900
vt 0.668470 0.480000
vt 0.680470 0.492000
vt 0.680470 0.508000
vt 0.668470 0.520000
vt 0.492470 0.495000
vt 0.508470 0.495000
vt 0.508470 0.505000
vt 0.492470 0.505000
vt 0.668470 0.495000
vt 0.332470 0.495000
vt 0.332470 0.505000
vt 0.668470 0.505000
vt 0.480470 0.495000
vt 0.480470 0.505000
vt 0.520470 0.505000
vt 0.520470 0.495000
vt 0.332470 0.480000
vt 0.332470 0.520000
vt 0.320470 0.492000
vt 0.320470 0.508000
vt 0.014312 0.478764
vt 0.014312 0.434645
vt 0.023917 0.434645
vt 0.023917 0.478764
vt 0.365561 0.964939
vt 0.365561 0.902439
vt 0.408530 0.902439
vt 0.408530 0.964939
vt 0.365561 0.625095
vt 0.365561 0.562595
vt 0.408530 0.562595
vt 0.408530 0.625095
vt 0.451499 0.902439
vt 0.451499 0.964939
vt 0.365561 0.500095
vt 0.408530 0.500095
vt 0.451499 0.437595
vt 0.451499 0.500095
vt 0.408530 0.437595
vt 0.365561 0.437595
vt 0.365561 0.777439
vt 0.408530 0.777439
vt 0.451499 0.777439
vt 0.451499 0.839939
vt 0.408530 0.839939
vt 0.451499 0.625095
vt 0.365561 0.839939
vt 0.451499 0.562595
vt 0.502275 0.689538
vt 0.544891 0.700957
vt 0.544891 0.736469
vt 0.484519 0.720292
vt 0.544891 0.379562
vt 0.502275 0.390981
vt 0.484518 0.360226
vt 0.544890 0.344050
vt 0.471077 0.422178
vt 0.440323 0.404422
vt 0.458449 0.469310
vt 0.424146 0.464794
vt 0.631332 0.611208
vt 0.631332 0.469310
vt 0.665635 0.464794
vt 0.665635 0.615724
vt 0.458449 0.611208
vt 0.424146 0.615724
vt 0.587506 0.689537
vt 0.605263 0.720292
vt 0.587506 0.390981
vt 0.605263 0.360226
vt 0.471077 0.658340
vt 0.440323 0.676096
vt 0.618704 0.422178
vt 0.649458 0.404422
vt 0.618704 0.658340
vt 0.649458 0.676096
vt 0.119963 0.776614
vt 0.077347 0.765194
vt 0.046150 0.733997
vt 0.033521 0.686865
vt 0.033521 0.544967
vt 0.046150 0.497835
vt 0.077347 0.466638
vt 0.119963 0.455219
vt 0.162579 0.466638
vt 0.193776 0.497835
vt 0.206405 0.544967
vt 0.206405 0.686865
vt 0.193776 0.733997
vt 0.162579 0.765194
vt 0.033521 0.062800
vt 0.033521 0.106919
vt 0.023917 0.106919
vt 0.023917 0.062800
vt 0.033521 0.151038
vt 0.033521 0.199833
vt 0.023917 0.199833
vt 0.023917 0.151038
vt 0.033521 0.434645
vt 0.033521 0.478764
vt 0.033521 0.390526
vt 0.023917 0.390526
vt 0.014312 0.390526
vt 0.014312 0.341731
vt 0.023917 0.341731
vt 0.023917 0.390526
vt 0.033521 0.341731
vt 0.014312 0.199833
vt 0.023917 0.199833
vt 0.014312 0.151038
vt 0.023917 0.151038
vt 0.014312 0.106919
vt 0.023917 0.106919
vt 0.014312 0.062800
vt 0.023917 0.062800
vt 0.738281 0.389832
vt 0.743496 0.394289
vt 0.739930 0.398462
vt 0.734715 0.394004
vt 0.734715 0.244455
vt 0.739930 0.239997
vt 0.743496 0.244170
vt 0.738281 0.248627
vt 0.597658 0.431873
vt 0.604518 0.431873
vt 0.604519 0.453551
vt 0.597658 0.453551
vt 0.597658 0.426385
vt 0.604518 0.426385
vt 0.612075 0.423812
vt 0.605214 0.423812
vt 0.605214 0.418324
vt 0.612075 0.418324
vt 0.612075 0.393593
vt 0.605214 0.393593
vt 0.605214 0.368862
vt 0.612075 0.368862
vt 0.754978 0.266073
vt 0.748345 0.267827
vt 0.748345 0.370632
vt 0.754978 0.372385
vt 0.749082 0.289492
vt 0.755819 0.290790
vt 0.745853 0.313424
vt 0.740346 0.309331
vt 0.604519 0.475229
vt 0.597658 0.475229
vt 0.749082 0.348967
vt 0.755819 0.347669
vt 0.597658 0.511176
vt 0.604519 0.511175
vt 0.604519 0.518584
vt 0.597658 0.518584
vt 0.604519 0.496906
vt 0.597658 0.496906
vt 0.740347 0.329127
vt 0.745853 0.325035
vt 0.605214 0.344131
vt 0.612075 0.344131
vt 0.612075 0.319400
vt 0.605214 0.319400
vt 0.605214 0.294669
vt 0.612075 0.294669
vt 0.521222 0.594672
vt 0.516876 0.589587
vt 0.522508 0.584774
vt 0.528014 0.588866
vt 0.612075 0.328335
vt 0.605214 0.328335
vt 0.377772 0.508053
vt 0.382118 0.502968
vt 0.388910 0.508774
vt 0.383404 0.512866
vt 0.597658 0.540262
vt 0.604519 0.540262
vt 0.604519 0.561940
vt 0.597658 0.561940
vt 0.398876 0.531407
vt 0.392140 0.532706
vt 0.531244 0.564934
vt 0.537981 0.566233
vt 0.604519 0.583617
vt 0.597658 0.583617
vt 0.530507 0.543269
vt 0.537140 0.541516
vt 0.605214 0.269938
vt 0.612075 0.269938
vt 0.398035 0.556124
vt 0.391403 0.554371
vt 0.612075 0.245207
vt 0.605214 0.245207
vt 0.605214 0.239719
vt 0.612075 0.239719
vt 0.520443 0.524069
vt 0.525658 0.519612
vt 0.386553 0.578028
vt 0.381338 0.573571
vt 0.382987 0.582200
vt 0.377772 0.577743
vt 0.604519 0.589106
vt 0.597658 0.589106
vt 0.516876 0.519897
vt 0.522091 0.515439
vt 0.744272 0.494136
vt 0.749488 0.498593
vt 0.745922 0.502766
vt 0.740706 0.498308
vt 0.761811 0.577541
vt 0.756595 0.581998
vt 0.753030 0.577826
vt 0.758245 0.573368
vt 0.666263 0.431873
vt 0.673123 0.431873
vt 0.673123 0.453551
vt 0.666263 0.453551
vt 0.666263 0.426385
vt 0.673123 0.426385
vt 0.680679 0.423812
vt 0.673819 0.423812
vt 0.673819 0.418324
vt 0.680679 0.418324
vt 0.680679 0.393593
vt 0.673819 0.393593
vt 0.673819 0.368862
vt 0.680679 0.368862
vt 0.741548 0.555922
vt 0.748180 0.554169
vt 0.754337 0.474936
vt 0.760970 0.476690
vt 0.747443 0.532503
vt 0.740706 0.531205
vt 0.750673 0.508571
vt 0.756179 0.512664
vt 0.673123 0.475229
vt 0.666263 0.475229
vt 0.755074 0.453271
vt 0.761811 0.451973
vt 0.666263 0.511175
vt 0.673123 0.511175
vt 0.673123 0.518584
vt 0.666263 0.518584
vt 0.673123 0.496906
vt 0.666263 0.496906
vt 0.746338 0.433432
vt 0.751844 0.429339
vt 0.673819 0.344131
vt 0.680679 0.344131
vt 0.680679 0.319400
vt 0.673819 0.319400
vt 0.673819 0.294669
vt 0.680679 0.294669
vt 0.736361 0.423534
vt 0.740706 0.428618
vt 0.735075 0.433432
vt 0.729568 0.429339
vt 0.680679 0.328335
vt 0.673819 0.328335
vt 0.719602 0.507850
vt 0.723948 0.502766
vt 0.730740 0.508571
vt 0.725234 0.512664
vt 0.666263 0.540262
vt 0.673123 0.540262
vt 0.673123 0.561940
vt 0.666263 0.561940
vt 0.740707 0.531205
vt 0.733970 0.532503
vt 0.726339 0.453271
vt 0.719602 0.451973
vt 0.673123 0.583617
vt 0.666263 0.583617
vt 0.727076 0.474936
vt 0.720443 0.476689
vt 0.673819 0.269938
vt 0.680679 0.269938
vt 0.739865 0.555922
vt 0.733233 0.554169
vt 0.680679 0.245207
vt 0.673819 0.245207
vt 0.673819 0.239719
vt 0.680679 0.239719
vt 0.737140 0.494136
vt 0.731925 0.498593
vt 0.728384 0.577826
vt 0.723168 0.573368
vt 0.724817 0.581998
vt 0.719602 0.577541
vt 0.673123 0.589106
vt 0.666263 0.589106
vt 0.740706 0.498309
vt 0.735491 0.502766
vt 0.739060 0.319229
vt 0.734715 0.314145
vt 0.605214 0.335196
vt 0.612075 0.335196
vt 0.734715 0.324314
vt 0.604519 0.504315
vt 0.597658 0.504315
vt 0.757465 0.502766
vt 0.761811 0.507850
vt 0.673819 0.335196
vt 0.680679 0.335196
vt 0.745052 0.423534
vt 0.673123 0.504315
vt 0.666263 0.504315
vt 0.759385 0.389832
vt 0.764600 0.394289
vt 0.761034 0.398461
vt 0.755819 0.394004
vt 0.776923 0.314772
vt 0.771708 0.319229
vt 0.768142 0.315057
vt 0.773357 0.310600
vt 0.745565 0.504315
vt 0.745565 0.511175
vt 0.723887 0.511176
vt 0.723887 0.504315
vt 0.751053 0.504315
vt 0.751053 0.511175
vt 0.769296 0.328335
vt 0.769296 0.335196
vt 0.763807 0.335196
vt 0.763807 0.328335
vt 0.739076 0.328335
vt 0.739076 0.335196
vt 0.714345 0.335196
vt 0.714345 0.328335
vt 0.756660 0.293153
vt 0.763293 0.291400
vt 0.769449 0.370632
vt 0.776082 0.372385
vt 0.762555 0.269735
vt 0.755819 0.268436
vt 0.765785 0.245803
vt 0.771291 0.249895
vt 0.702209 0.511175
vt 0.702209 0.504315
vt 0.770186 0.348967
vt 0.776923 0.347669
vt 0.590249 0.511176
vt 0.590249 0.504315
vt 0.680532 0.511175
vt 0.680532 0.504315
vt 0.761451 0.329127
vt 0.766957 0.325035
vt 0.689615 0.335196
vt 0.689615 0.328335
vt 0.596279 0.328335
vt 0.596279 0.335196
vt 0.571548 0.335196
vt 0.571548 0.328335
vt 0.403222 0.582201
vt 0.398876 0.577116
vt 0.404508 0.572303
vt 0.410014 0.576395
vt 0.516876 0.441291
vt 0.521222 0.436207
vt 0.528014 0.442013
vt 0.522508 0.446105
vt 0.568572 0.504315
vt 0.568571 0.511176
vt 0.546894 0.511176
vt 0.546894 0.504315
vt 0.537981 0.464646
vt 0.531244 0.465945
vt 0.413244 0.552463
vt 0.419981 0.553761
vt 0.525216 0.511176
vt 0.525216 0.504315
vt 0.412507 0.530798
vt 0.419140 0.529045
vt 0.546817 0.335196
vt 0.546817 0.328335
vt 0.537140 0.489363
vt 0.530507 0.487610
vt 0.522086 0.328335
vt 0.522086 0.335196
vt 0.516597 0.335196
vt 0.516597 0.328335
vt 0.402443 0.511598
vt 0.407658 0.507141
vt 0.525658 0.511267
vt 0.520443 0.506810
vt 0.516876 0.510982
vt 0.519727 0.511176
vt 0.519727 0.504315
vt 0.398876 0.507426
vt 0.404091 0.502968
vt 0.755819 0.324314
vt 0.760164 0.319229
vt 0.772577 0.239997
vt 0.776923 0.245082
vt 0.544490 0.436207
vt 0.551179 0.436207
vt 0.551179 0.497951
vt 0.544490 0.497951
vt 0.430434 0.509724
vt 0.423746 0.509724
vt 0.423746 0.447980
vt 0.430434 0.447980
vt 0.328125 0.703125
vt 0.328125 0.609375
vt 0.250000 0.609375
vt 0.250000 0.703125
vt 0.328125 0.500000
vt 0.250000 0.500000
vt 0.328125 0.312500
vt 0.328125 0.203125
vt 0.250000 0.203125
vt 0.250000 0.312500
vt 0.328125 0.406250
vt 0.250000 0.406250
vt 0.328125 0.109375
vt 0.250000 0.109375
vt 0.328125 0.265625
vt 0.250000 0.265625
vt 0.745089 0.584960
vt 0.734294 0.545167
vt 0.859347 0.545319
vt 0.848562 0.585084
vt 0.848491 0.117003
vt 0.859305 0.156809
vt 0.734269 0.156662
vt 0.745039 0.116910
vt 0.015625 0.500000
vt 0.140625 0.500000
vt 0.140625 0.406250
vt 0.015625 0.406250
vt 0.796772 0.087510
vt 0.856715 0.041986
vt 0.140625 0.609375
vt 0.015625 0.609375
vt 0.673007 0.154674
vt 0.692381 0.085789
vt 0.140625 0.703125
vt 0.015625 0.703125
vt 0.796456 0.026325
vt 0.140625 0.312500
vt 0.015625 0.312500
vt 0.736772 0.659884
vt 0.692435 0.616433
vt 0.140625 0.203125
vt 0.015625 0.203125
vt 0.672994 0.547311
vt 0.140625 0.109375
vt 0.015625 0.109375
vt 0.857088 0.659737
vt 0.796796 0.614474
vt 0.901154 0.085460
vt 0.920632 0.154635
vt 0.920631 0.547326
vt 0.901226 0.616250
vt 0.062500 0.265625
vt 0.140625 0.265625
vt 0.062500 0.703125
vt 0.015625 0.265625
vt 0.736434 0.042321
vt 0.796899 0.675669
s 1
usemtl lamp_1_on_yellow
f 235/453/65 234/454/66 250/455/67 254/456/68
f 233/457/69 247/458/70 250/455/67 234/454/66
f 243/454/71 242/457/72 288/458/73 291/455/74
f 239/459/75 240/460/76 276/461/77 273/462/78
f 245/463/79 239/459/75 273/462/78 269/464/80
f 244/453/81 243/454/71 291/455/74 295/456/82
f 237/460/83 238/465/84 265/466/85 261/461/86
f 240/460/76 241/465/87 280/466/88 276/461/77
f 238/467/84 235/453/65 254/456/68 265/468/85
f 264/469/89 268/470/90 296/471/91 292/472/92
f 279/473/93 283/474/94 255/475/95 251/476/96
f 236/459/97 237/460/83 261/461/86 258/462/98
f 246/463/99 284/464/100 288/458/73 242/457/72
f 241/467/87 244/453/81 295/456/82 280/468/88
f 248/477/101 249/478/102 272/479/103 271/480/104
f 270/481/105 275/482/106 279/473/93
f 253/483/107 250/455/67 247/458/70 249/478/102
f 252/484/108 253/483/107 249/478/102 248/477/101
f 251/476/96 255/475/95 256/485/109 252/486/108
f 257/487/110 254/456/68 250/455/67 253/483/107
f 256/488/109 257/487/110 253/483/107 252/484/108
f 270/481/105 271/489/104 275/482/106
f 285/479/111 284/464/100 258/462/98 259/490/112
f 286/480/113 285/479/111 259/490/112 260/491/114
f 264/469/89 260/492/114 263/493/115
f 258/462/98 261/461/86 262/494/116 259/490/112
f 259/490/112 262/494/116 263/495/115 260/491/114
f 268/470/90 264/469/89 263/493/115 267/496/117
f 261/461/86 265/466/85 266/497/118 262/494/116
f 262/494/116 266/497/118 267/498/117 263/495/115
f 292/472/92 289/499/119 287/500/120
f 269/464/80 273/462/78 274/490/121 272/479/103
f 272/479/103 274/490/121 275/491/106 271/480/104
f 273/462/78 276/461/77 277/494/122 274/490/121
f 274/490/121 277/494/122 278/495/123 275/491/106
f 283/474/94 279/473/93 278/501/123 282/502/124
f 276/461/77 280/466/88 281/497/125 277/494/122
f 277/494/122 281/497/125 282/498/124 278/495/123
f 233/457/69 245/463/79 269/464/80 247/458/70
f 290/478/126 288/458/73 284/464/100 285/479/111
f 289/477/119 290/478/126 285/479/111 286/480/113
f 260/492/114 264/469/89 287/500/120
f 294/483/127 291/455/74 288/458/73 290/478/126
f 293/484/128 294/483/127 290/478/126 289/477/119
f 292/472/92 296/471/91 297/503/129 293/504/128
f 298/487/130 295/456/82 291/455/74 294/483/127
f 297/488/129 298/487/130 294/483/127 293/484/128
f 236/459/97 258/462/98 284/464/100 246/463/99
f 267/505/117 266/506/118 257/487/110 256/507/109
f 255/475/95 268/470/90 267/496/117 256/485/109
f 266/506/118 265/468/85 254/456/68 257/487/110
f 298/487/130 281/506/125 280/468/88 295/456/82
f 297/488/129 282/508/124 281/506/125 298/487/130
f 247/458/70 269/464/80 272/479/103 249/478/102
f 282/502/124 297/503/129 296/471/91 283/474/94
f 255/475/95 283/474/94 296/471/91 268/470/90
f 264/469/89 292/472/92 287/500/120
f 270/481/105 279/473/93 251/476/96
f 270/481/105 251/476/96 248/509/101
f 278/501/123 279/473/93 275/482/106
f 248/509/101 251/476/96 252/486/108
f 248/509/101 271/489/104 270/481/105
f 289/499/119 286/510/113 287/500/120
f 289/499/119 292/472/92 293/504/128
f 260/492/114 287/500/120 286/510/113
usemtl metal_mp_4
f 1/1/1 2/2/1 4/3/1 3/4/1
f 3/5/2 4/6/2 6/7/2 5/8/2
f 5/9/3 6/10/3 8/11/3 7/12/3
f 7/12/4 8/11/4 10/13/4 9/14/4
f 4/15/5 2/16/5 12/17/5 10/18/5 8/19/5 6/20/5
f 9/21/6 10/22/6 12/23/6 11/24/6
f 11/25/7 12/26/7 2/2/7 1/1/7
f 13/27/8 14/28/8 16/29/8 15/30/8
f 15/31/9 16/32/9 18/33/9 17/34/9
f 17/34/10 18/33/10 20/35/10 19/36/10
f 19/37/11 20/38/11 22/39/11 21/40/11
f 16/41/5 14/42/5 24/43/5 22/44/5 20/45/5 18/46/5
f 21/47/12 22/48/12 24/49/12 23/50/12
f 23/50/13 24/49/13 14/51/13 13/52/13
f 97/168/16 98/169/16 100/170/16 99/171/16
f 103/172/14 104/173/14 102/174/14 101/175/14
f 97/176/32 101/177/32 107/178/33 105/179/33
f 99/180/19 103/181/19 101/177/32 97/176/32
f 104/182/15 100/183/15 98/184/34 102/185/34
f 108/186/35 106/187/35 110/188/36 112/189/36
f 102/185/34 98/184/34 106/187/35 108/186/35
f 101/175/14 102/174/14 108/190/14 107/191/14
f 98/169/16 97/168/16 105/192/16 106/193/16
f 111/194/14 112/195/14 116/196/14 115/197/14
f 107/191/14 108/190/14 112/195/14 111/194/14
f 105/179/33 107/178/33 111/198/37 109/199/37
f 106/193/16 105/192/16 109/200/16 110/201/16
f 229/202/38 226/203/38 119/204/39 117/205/39
f 109/199/37 111/198/37 115/206/40 113/207/40
f 110/201/16 109/200/16 113/208/16 114/209/16
f 112/189/36 110/188/36 114/210/41 116/211/41
f 120/212/42 118/213/42 122/214/43 124/215/43
f 232/216/16 229/217/16 117/218/16 118/219/16
f 228/220/5 232/221/5 118/213/42 120/212/42
f 226/222/14 228/223/14 120/224/14 119/225/14
f 121/226/44 123/227/44 127/228/45 125/229/45
f 119/225/14 120/224/14 124/230/14 123/231/14
f 117/205/39 119/204/39 123/227/44 121/226/44
f 118/219/16 117/218/16 121/232/16 122/233/16
f 125/229/45 127/228/45 131/234/46 129/235/46
f 122/233/16 121/232/16 125/236/16 126/237/16
f 124/215/43 122/214/43 126/238/47 128/239/47
f 123/231/14 124/230/14 128/240/14 127/241/14
f 132/242/48 130/243/48 134/244/19 136/245/19
f 126/237/16 125/236/16 129/246/16 130/247/16
f 128/239/47 126/238/47 130/243/48 132/242/48
f 127/241/14 128/240/14 132/248/14 131/249/14
f 131/249/14 132/248/14 136/250/14 135/251/14
f 129/235/46 131/234/46 135/252/15 133/253/15
f 130/247/16 129/246/16 133/254/16 134/255/16
f 137/256/16 138/257/16 140/258/16 139/259/16
f 143/260/14 144/261/14 142/262/14 141/263/14
f 137/264/32 141/265/32 147/266/33 145/267/33
f 139/268/19 143/269/19 141/265/32 137/264/32
f 144/270/15 140/271/15 138/272/34 142/273/34
f 148/274/35 146/275/35 150/276/36 152/277/36
f 142/273/34 138/272/34 146/275/35 148/274/35
f 141/263/14 142/262/14 148/278/14 147/279/14
f 138/257/16 137/256/16 145/280/16 146/281/16
f 151/282/14 152/283/14 156/284/14 155/285/14
f 147/279/14 148/278/14 152/283/14 151/282/14
f 145/267/33 147/266/33 151/286/37 149/287/37
f 146/281/16 145/280/16 149/288/16 150/289/16
f 181/290/38 225/291/38 159/292/39 157/293/39
f 149/287/37 151/286/37 155/294/40 153/295/40
f 150/289/16 149/288/16 153/296/16 154/297/16
f 152/277/36 150/276/36 154/298/41 156/299/41
f 160/300/42 158/301/42 162/302/43 164/303/43
f 224/304/16 181/305/16 157/306/16 158/307/16
f 182/308/5 224/309/5 158/301/42 160/300/42
f 225/310/14 182/311/14 160/312/14 159/313/14
f 161/314/44 163/315/44 167/316/45 165/317/45
f 159/313/14 160/312/14 164/318/14 163/319/14
f 157/293/39 159/292/39 163/315/44 161/314/44
f 158/307/16 157/306/16 161/320/16 162/321/16
f 165/317/45 167/316/45 171/322/46 169/323/46
f 162/321/16 161/320/16 165/324/16 166/325/16
f 164/303/43 162/302/43 166/326/47 168/327/47
f 163/319/14 164/318/14 168/328/14 167/329/14
f 172/330/48 170/331/48 174/332/19 176/333/19
f 166/325/16 165/324/16 169/334/16 170/335/16
f 168/327/47 166/326/47 170/331/48 172/330/48
f 167/329/14 168/328/14 172/336/14 171/337/14
f 171/337/14 172/336/14 176/338/14 175/339/14
f 169/323/46 171/322/46 175/340/15 173/341/15
f 170/335/16 169/334/16 173/342/16 174/343/16
f 115/197/14 116/196/14 177/344/14 227/345/14
f 116/211/41 114/210/41 231/346/5 177/347/5
f 114/209/16 113/208/16 230/348/16 231/344/16
f 113/207/40 115/206/40 227/349/38 230/350/38
f 177/347/5 231/346/5 232/221/5 228/220/5
f 230/350/38 227/349/38 226/203/38 229/202/38
f 155/285/14 156/284/14 180/351/14 178/352/14
f 156/299/41 154/298/41 179/353/5 180/354/5
f 154/297/16 153/296/16 223/305/16 179/355/16
f 153/295/40 155/294/40 178/356/38 223/357/38
f 180/354/5 179/353/5 224/309/5 182/308/5
f 223/357/38 178/356/38 225/291/38 181/290/38
f 183/358/15 184/359/15 186/360/15 185/361/15
f 189/362/19 190/363/19 188/364/19 187/365/19
f 183/366/49 187/367/49 193/368/50 191/369/50
f 185/370/16 189/371/16 187/367/49 183/366/49
f 190/372/14 186/373/14 184/374/51 188/375/51
f 194/376/52 192/377/52 196/378/53 198/379/53
f 188/375/51 184/374/51 192/377/52 194/376/52
f 187/365/19 188/364/19 194/380/19 193/381/19
f 184/359/15 183/358/15 191/382/15 192/383/15
f 197/384/19 198/385/19 202/386/19 201/387/19
f 193/381/19 194/380/19 198/385/19 197/384/19
f 191/369/50 193/368/50 197/388/54 195/389/54
f 192/383/15 191/382/15 195/390/15 196/391/15
f 230/350/38 229/202/38 205/392/55 203/393/55
f 195/389/54 197/388/54 201/394/56 199/395/56
f 196/391/15 195/390/15 199/396/15 200/397/15
f 198/379/53 196/378/53 200/398/57 202/399/57
f 206/400/58 204/401/58 208/402/59 210/403/59
f 231/404/15 230/405/15 203/406/15 204/407/15
f 232/221/5 231/346/5 204/401/58 206/400/58
f 229/408/19 232/409/19 206/410/19 205/411/19
f 207/412/60 209/413/60 213/414/61 211/415/61
f 205/411/19 206/410/19 210/416/19 209/417/19
f 203/393/55 205/392/55 209/413/60 207/412/60
f 204/407/15 203/406/15 207/418/15 208/419/15
f 211/415/61 213/414/61 217/420/62 215/421/62
f 208/419/15 207/418/15 211/422/15 212/423/15
f 210/403/59 208/402/59 212/424/63 214/425/63
f 209/417/19 210/416/19 214/426/19 213/427/19
f 218/428/64 216/429/64 220/430/16 222/431/16
f 212/423/15 211/422/15 215/432/15 216/433/15
f 214/425/63 212/424/63 216/429/64 218/428/64
f 213/427/19 214/426/19 218/434/19 217/435/19
f 217/435/19 218/434/19 222/255/19 221/436/19
f 215/421/62 217/420/62 221/437/14 219/438/14
f 216/433/15 215/432/15 219/439/15 220/440/15
f 199/395/56 201/394/56 225/291/38 178/356/38
f 200/397/15 199/396/15 178/441/15 180/442/15
f 202/399/57 200/398/57 180/354/5 182/308/5
f 201/387/19 202/386/19 182/443/19 225/444/19
f 181/445/19 224/446/19 228/447/19 226/448/19
f 224/309/5 179/353/5 177/347/5 228/220/5
f 179/449/15 223/450/15 227/451/15 177/452/15
f 223/357/38 181/290/38 226/203/38 227/349/38
usemtl plastic_mp_2
f 33/53/5 34/54/5 35/55/5 36/56/5
f 37/57/14 40/58/14 35/59/14 34/60/14
f 39/61/15 32/62/15 27/63/15 36/64/15
f 25/60/16 28/59/16 31/58/16 30/57/16
f 29/65/4 26/66/4 25/60/4 30/57/4
f 27/67/17 32/68/17 31/58/17 28/59/17
f 33/66/18 38/65/18 37/57/18 34/60/18
f 39/68/1 36/67/1 35/59/1 40/58/1
f 29/62/19 38/61/19 33/64/19 26/63/19
f 26/69/5 33/53/5 36/56/5 27/70/5
f 25/71/5 26/69/5 27/70/5 28/72/5
f 51/73/16 46/74/20 93/75/20 85/76/16
f 71/77/14 72/78/21 56/79/21 58/80/14
f 77/81/22 80/82/23 60/83/23 62/84/22
f 79/85/24 71/86/14 58/80/14 63/79/24
f 80/82/23 69/87/20 59/88/20 60/83/23
f 70/89/16 78/90/25 67/88/25 61/91/16
f 69/87/20 70/92/16 61/91/16 59/88/20
f 74/93/26 77/81/22 62/84/22 57/94/26
f 76/95/27 81/96/28 64/97/28 65/94/27
f 75/98/29 76/95/27 65/94/27 68/84/29
f 81/96/28 79/85/24 63/79/24 64/97/28
f 73/99/30 74/93/26 57/94/26 55/97/30
f 82/100/31 75/98/29 68/84/29 66/83/31
f 72/78/21 73/99/30 55/97/30 56/79/21
f 78/90/25 82/100/31 66/83/31 67/88/25
f 49/101/5 48/102/5 70/103/5 69/104/5
f 51/105/5 52/106/5 72/107/5 71/108/5
f 52/106/5 53/109/5 73/110/5 72/107/5
f 53/109/5 54/111/5 74/112/5 73/110/5
f 45/113/5 47/114/5 76/115/5 75/116/5
f 54/111/5 50/117/5 77/118/5 74/112/5
f 48/102/5 44/119/5 78/120/5 70/103/5
f 46/121/5 51/105/5 71/108/5 79/122/5
f 50/117/5 43/123/5 80/124/5 77/118/5
f 43/123/5 49/101/5 69/104/5 80/124/5
f 47/114/5 42/125/5 81/126/5 76/115/5
f 42/125/5 46/121/5 79/122/5 81/126/5
f 41/127/5 45/113/5 75/116/5 82/128/5
f 44/119/5 41/127/5 82/128/5 78/120/5
f 84/129/5 83/130/5 94/131/5 91/132/5 88/133/5 87/134/5 86/135/5 85/136/5 93/137/5 95/138/5 90/139/5 89/140/5 96/141/5 92/142/5
f 48/143/14 49/144/24 83/145/24 84/146/14
f 43/147/28 50/148/27 91/149/27 94/150/28
f 52/151/25 51/152/16 85/76/16 86/75/25
f 49/144/24 43/147/28 94/150/28 83/145/24
f 53/153/31 52/151/25 86/75/25 87/154/31
f 42/155/23 47/156/22 90/157/22 95/158/23
f 54/159/29 53/153/31 87/154/31 88/157/29
f 46/74/20 42/155/23 95/158/23 93/75/20
f 47/156/22 45/160/26 89/161/26 90/157/22
f 45/160/26 41/162/30 96/163/30 89/161/26
f 50/148/27 54/159/29 88/157/29 91/149/27
f 41/162/30 44/164/21 92/165/21 96/163/30
f 44/164/21 48/166/14 84/167/14 92/165/21
