# Blender 5.0.1
# www.blender.org
mtllib lamp_3_on.mtl
o lamp_3_on
v 0.552598 -0.199828 0.054730
v 0.552598 -0.054730 0.199828
v -0.552602 -0.054730 0.199828
v -0.552602 -0.199828 0.054730
v 0.564598 -0.222456 0.060387
v 0.564598 -0.060387 0.222456
v -0.564602 -0.060387 0.222456
v -0.564602 -0.222456 0.060387
v 0.600000 -0.000000 0.000000
v -0.599998 -0.000000 0.000000
v 0.600000 -0.212132 0.000000
v -0.599998 -0.000000 0.212132
v -0.599998 -0.212132 0.000000
v 0.600000 -0.000000 0.212132
v 0.600000 -0.247488 0.035355
v 0.600000 -0.035356 0.247487
v -0.599998 -0.035356 0.247487
v -0.599998 -0.247488 0.035355
vn -0.0000 -0.7071 -0.7071
vn -1.0000 -0.0000 -0.0000
vn -0.0000 1.0000 -0.0000
vn -0.0000 0.7071 0.7071
vn 1.0000 -0.0000 -0.0000
vn -0.0000 -0.0000 -1.0000
vn -0.0000 -0.7071 0.7071
vn -0.0000 0.2425 0.9701
vn -0.0000 -0.9701 -0.2425
vn 0.8575 -0.3638 0.3638
vn -0.8575 -0.3638 0.3638
vt 1.000000 0.062500
vt 0.000000 0.062500
vt 0.000000 0.148438
vt 1.000000 0.148438
vt 0.625000 0.062500
vt 0.375000 0.062500
vt 0.375000 0.148438
vt 0.625000 0.148438
vt 1.000000 0.487474
vt 0.000000 0.487474
vt 0.500000 0.382813
vt 0.617188 0.148438
vt 0.382812 0.148438
vt 1.000000 0.487474
vt 0.000000 0.487474
vt 0.970497 0.941000
vt 0.970497 0.559000
vt 1.000000 0.500000
vt 1.000000 1.000000
vt 0.019531 0.148438
vt 0.972656 0.148438
vt 0.960938 0.179688
vt 0.031250 0.179688
vt 0.960496 0.579000
vt 0.960496 0.921000
vt 0.039498 0.921000
vt 0.039498 0.579000
vt 0.029498 0.941000
vt 0.000000 1.000000
vt 0.029498 0.559000
vt 0.000000 0.500000
vt 0.398438 0.148438
vt 0.593750 0.148438
vt 0.582031 0.179688
vt 0.410156 0.179688
s 0
usemtl lamp_3_on
f 15/1/1 18/2/1 13/3/1 11/4/1
f 18/5/2 17/6/2 12/7/2 13/8/2
f 9/9/3 10/10/3 12/3/3 14/4/3
f 17/2/4 16/1/4 14/4/4 12/3/4
f 10/11/2 13/12/2 12/13/2
f 9/11/5 14/13/5 11/12/5
f 10/14/6 9/15/6 11/3/6 13/4/6
f 6/16/7 5/17/7 15/18/7 16/19/7
f 8/20/8 5/21/8 1/22/8 4/23/8
f 1/24/7 2/25/7 3/26/7 4/27/7
f 7/28/7 6/16/7 16/19/7 17/29/7
f 8/30/7 7/28/7 17/29/7 18/31/7
f 5/17/7 8/30/7 18/31/7 15/18/7
f 6/21/9 7/20/9 3/23/9 2/22/9
f 7/32/10 8/33/10 4/34/10 3/35/10
f 5/33/11 6/32/11 2/35/11 1/34/11
f 16/6/5 15/5/5 11/8/5 14/7/5
