# Blender 5.0.1
# www.blender.org
mtllib button_12.mtl
o button_12
v -0.000174 0.799770 0.003396
v 0.016313 0.799770 0.010225
v 0.023143 0.799770 0.026713
v 0.016313 0.799770 0.043200
v -0.000174 0.799770 0.050030
v -0.016661 0.799770 0.043200
v -0.023491 0.799770 0.026713
v -0.016661 0.799770 0.010225
v -0.000174 0.779908 0.008777
v 0.012509 0.779908 0.014030
v 0.017762 0.779908 0.026713
v 0.012509 0.779908 0.039396
v -0.000174 0.779908 0.044649
v -0.012857 0.779908 0.039396
v -0.018110 0.779908 0.026713
v -0.012857 0.779908 0.014030
v 0.011530 -0.106092 0.030973
v 0.011530 0.779908 0.030973
v 0.005090 -0.106092 0.038001
v -0.004434 -0.106092 0.038417
v 0.005090 0.779908 0.038001
v -0.004434 0.779908 0.038417
v 0.011114 -0.106092 0.021449
v 0.004086 -0.106092 0.015008
v 0.011114 0.779908 0.021449
v 0.004086 0.779908 0.015008
v -0.011463 -0.106092 0.031977
v -0.005438 -0.106092 0.015424
v -0.011879 -0.106092 0.022453
v -0.005438 0.779908 0.015424
v -0.011463 0.779908 0.031977
v -0.011879 0.779908 0.022453
v -0.018845 0.640000 -0.000000
v -0.018845 0.648000 -0.000000
v 0.019156 0.640000 -0.000000
v 0.019156 0.648000 -0.000000
v -0.018679 0.640000 0.026712
v -0.013207 0.640000 0.039923
v -0.018679 0.648000 0.026712
v -0.013207 0.648000 0.039923
v 0.018688 0.640000 0.026712
v 0.000004 0.640000 0.045396
v 0.013215 0.640000 0.039923
v 0.000004 0.648000 0.045396
v 0.018688 0.648000 0.026712
v 0.013215 0.648000 0.039923
v -0.044884 0.799770 -0.000000
v -0.055684 0.810570 -0.000000
v 0.054337 0.810570 -0.000000
v 0.043537 0.799770 -0.000000
v -0.055684 1.004970 0.000000
v -0.044884 1.015770 0.000000
v 0.043537 1.015770 0.000000
v 0.054337 1.004970 0.000000
v -0.055684 1.004970 0.057690
v -0.044884 1.015770 0.057690
v -0.055684 0.810570 0.057690
v -0.044884 0.799770 0.057690
v 0.043537 0.799770 0.057690
v 0.054337 0.810570 0.057690
v 0.054337 1.004970 0.057690
v 0.043537 1.015770 0.057690
v -0.010869 0.893479 0.062777
v -0.021564 0.912003 0.062777
v 0.010522 0.893479 0.062777
v 0.021217 0.912003 0.062777
v -0.010869 0.930528 0.062777
v 0.010522 0.930528 0.062777
v -0.010869 0.947367 0.062777
v -0.021564 0.965892 0.062777
v 0.010522 0.947367 0.062777
v 0.021217 0.965892 0.062777
v -0.010869 0.984416 0.062777
v 0.010522 0.984416 0.062777
v -0.010869 0.839739 0.062777
v -0.021564 0.858264 0.062777
v 0.010522 0.839739 0.062777
v 0.021217 0.858264 0.062777
v -0.010869 0.876788 0.062777
v 0.010522 0.876788 0.062777
v 0.025585 0.912003 0.057690
v -0.013053 0.934311 0.057690
v -0.013053 0.889695 0.057690
v 0.012706 0.889695 0.057690
v -0.025933 0.912003 0.057690
v 0.012706 0.934311 0.057690
v 0.025585 0.965892 0.057690
v -0.013053 0.988200 0.057690
v -0.013053 0.943584 0.057690
v 0.012706 0.943584 0.057690
v -0.025933 0.965892 0.057690
v 0.012706 0.988200 0.057690
v 0.025585 0.858264 0.057690
v -0.013053 0.880572 0.057690
v -0.013053 0.835956 0.057690
v 0.012706 0.835956 0.057690
v -0.025932 0.858264 0.057690
v 0.012706 0.880572 0.057690
v 0.025585 0.912003 0.062777
v -0.013053 0.934311 0.062777
v -0.013053 0.889695 0.062777
v 0.012706 0.889695 0.062777
v -0.025933 0.912003 0.062777
v 0.012706 0.934311 0.062777
v 0.025585 0.965892 0.062777
v -0.013053 0.988200 0.062777
v -0.013053 0.943584 0.062777
v 0.012706 0.943584 0.062777
v -0.025933 0.965892 0.062777
v 0.012706 0.988200 0.062777
v 0.025585 0.858264 0.062777
v -0.013053 0.880572 0.062777
v -0.013053 0.835956 0.062777
v 0.012706 0.835956 0.062777
v -0.025932 0.858264 0.062777
v 0.012706 0.880572 0.062777
v 0.021217 0.912003 0.073229
v -0.010869 0.930528 0.073229
v -0.010869 0.893479 0.073229
v 0.010522 0.893479 0.073229
v -0.021564 0.912003 0.073229
v 0.010522 0.930528 0.073229
v 0.021217 0.965892 0.073229
v -0.010869 0.984416 0.073229
v -0.010869 0.947367 0.073229
v 0.010522 0.947367 0.073229
v -0.021564 0.965892 0.073229
v 0.010522 0.984416 0.073229
v 0.021217 0.858264 0.073229
v -0.010869 0.876788 0.073229
v -0.010869 0.839739 0.073229
v 0.010522 0.839739 0.073229
v -0.021564 0.858264 0.073229
v 0.010522 0.876788 0.073229
v 0.011530 0.610708 0.030973
v 0.014280 0.431508 0.030973
v 0.008560 0.252308 0.030973
v 0.011530 0.073108 0.030973
v -0.004434 0.073108 0.038417
v -0.007404 0.252308 0.038417
v -0.001684 0.431508 0.038417
v -0.004434 0.610708 0.038417
v 0.005090 0.073108 0.038001
v 0.002120 0.252308 0.038001
v 0.007840 0.431508 0.038001
v 0.005090 0.610708 0.038001
v -0.005438 0.610708 0.015424
v -0.002688 0.431508 0.015424
v -0.008408 0.252308 0.015424
v -0.005438 0.073108 0.015424
v -0.011879 0.073108 0.022453
v -0.014848 0.252308 0.022453
v -0.009128 0.431508 0.022453
v -0.011879 0.610708 0.022453
v -0.011463 0.073108 0.031977
v -0.014433 0.252308 0.031977
v -0.008713 0.431508 0.031977
v -0.011463 0.610708 0.031977
v 0.011114 0.610708 0.021449
v 0.013865 0.431508 0.021449
v 0.008144 0.252308 0.021449
v 0.011114 0.073108 0.021449
v 0.004086 0.073108 0.015008
v 0.001116 0.252308 0.015008
v 0.006836 0.431508 0.015008
v 0.004086 0.610708 0.015008
v -0.018845 0.065000 -0.000000
v -0.018845 0.073000 -0.000000
v 0.019156 0.065000 -0.000000
v 0.019156 0.073000 -0.000000
v -0.018679 0.065000 0.026712
v -0.013207 0.065000 0.039923
v -0.018679 0.073000 0.026712
v -0.013207 0.073000 0.039923
v 0.018688 0.065000 0.026712
v 0.000004 0.065000 0.045396
v 0.013215 0.065000 0.039923
v 0.000004 0.073000 0.045396
v 0.018688 0.073000 0.026712
v 0.013215 0.073000 0.039923
v -0.018665 0.355000 -0.000000
v -0.018665 0.363000 -0.000000
v 0.019335 0.355000 -0.000000
v 0.019335 0.363000 -0.000000
v -0.018500 0.355000 0.026712
v -0.013028 0.355000 0.039923
v -0.018500 0.363000 0.026712
v -0.013028 0.363000 0.039923
v 0.018867 0.355000 0.026712
v 0.000184 0.355000 0.045396
v 0.013395 0.355000 0.039923
v 0.000184 0.363000 0.045396
v 0.018867 0.363000 0.026712
v 0.013395 0.363000 0.039923
v -0.000174 0.965892 0.073229
v -0.000174 0.912003 0.073229
v -0.000174 0.858264 0.073229
vn -0.0000 -0.2615 -0.9652
vn 0.6825 -0.2615 -0.6825
vn 0.9652 -0.2615 -0.0000
vn 0.6825 -0.2615 0.6825
vn -0.0000 -0.2615 0.9652
vn -0.6825 -0.2615 0.6825
vn -0.9652 -0.2615 -0.0000
vn -0.6825 -0.2615 -0.6825
vn -0.0000 -1.0000 -0.0000
vn 0.9060 0.0070 -0.4233
vn 0.9063 -0.0000 -0.4226
vn 0.9397 -0.0000 0.3420
vn 0.9394 0.0072 0.3426
vn 0.4226 -0.0000 0.9063
vn 0.4211 0.0032 0.9070
vn -0.9059 -0.0075 0.4234
vn -0.9063 -0.0000 0.4226
vn -0.3420 -0.0000 0.9397
vn -0.3402 -0.0028 0.9403
vn 0.4243 0.0035 0.9055
vn -0.4210 -0.0035 -0.9071
vn -0.4226 -0.0000 -0.9063
vn -0.9397 -0.0000 -0.3420
vn -0.9394 -0.0078 -0.3427
vn 0.9066 0.0075 -0.4218
vn 0.3420 -0.0000 -0.9397
vn 0.3438 0.0029 -0.9390
vn -0.0000 1.0000 -0.0000
vn -0.0000 -0.0000 -1.0000
vn 1.0000 -0.0000 -0.0000
vn -0.0000 -0.0000 1.0000
vn 0.7071 -0.7071 -0.0000
vn -0.7071 -0.7071 -0.0000
vn -0.7071 0.7071 -0.0000
vn -1.0000 -0.0000 -0.0000
vn -0.8660 -0.5000 -0.0000
vn -0.8660 0.5000 -0.0000
vn 0.8660 -0.5000 -0.0000
vn 0.8660 0.5000 -0.0000
vn 0.7071 0.7071 -0.0000
vn 0.9790 -0.0000 0.2037
vn 0.9998 -0.0000 0.0175
vn 0.7071 -0.0000 0.7071
vn -0.7071 -0.0000 0.7071
vn -0.9802 -0.0000 0.1981
vn -1.0000 -0.0000 0.0062
vn 0.3404 0.0026 -0.9403
vn -0.4241 -0.0033 -0.9056
vn 0.3471 -0.0029 -0.9378
vn -0.4179 0.0034 -0.9085
vn 0.3368 -0.0025 -0.9416
vn -0.4274 0.0033 -0.9040
vn 0.9073 -0.0075 -0.4204
vn 0.9052 -0.0070 -0.4249
vn -0.9399 -0.0072 -0.3414
vn -0.9066 -0.0069 0.4219
vn -0.9390 0.0078 -0.3439
vn -0.9052 0.0075 0.4248
vn -0.9403 0.0072 -0.3401
vn -0.9073 0.0069 0.4204
vn -0.3437 -0.0026 0.9391
vn -0.3369 0.0028 0.9415
vn 0.4273 -0.0036 0.9041
vn -0.3472 0.0027 0.9378
vn 0.4177 -0.0032 0.9086
vn 0.9399 0.0078 0.3414
vn 0.9390 -0.0072 0.3439
vn 0.9403 -0.0078 0.3402
vt 0.009526 0.530744
vt 0.048581 0.531250
vt 0.048581 0.495895
vt 0.009526 0.496401
vt 0.009527 0.496401
vt 0.048581 0.495895
vt 0.048581 0.531250
vt 0.009527 0.530744
vt 0.009527 0.531757
vt 0.048581 0.566605
vt 0.009527 0.566099
vt 0.009527 0.496401
vt 0.009527 0.530744
vt 0.009527 0.531757
vt 0.048581 0.566605
vt 0.009527 0.566099
vt 0.009527 0.566099
vt 0.009527 0.531756
vt 0.009527 0.530744
vt 0.009527 0.496401
vt 0.009527 0.566099
vt 0.009527 0.531756
vt 0.060926 0.566605
vt 0.037784 0.581250
vt 0.014642 0.566605
vt 0.070511 0.531250
vt 0.014642 0.566605
vt 0.005057 0.531250
vt 0.060926 0.495895
vt 0.014642 0.495895
vt 0.037784 0.481250
vt 0.014642 0.495895
vt -0.844731 4.066445
vt -0.844731 6.311394
vt -0.969714 6.311394
vt -0.969714 4.066445
vt -1.094698 6.311394
vt -1.094698 4.066444
vt -1.344665 -3.066445
vt -1.344665 -5.444074
vt -1.219682 -5.444074
vt -1.219682 -3.066445
vt -1.094698 -5.444074
vt -1.094698 -3.066445
vt -1.594632 -3.066445
vt -1.594632 -5.444074
vt -1.469649 -5.444074
vt -1.469649 -3.066445
vt -0.844731 -3.066442
vt -0.844732 -5.444071
vt -0.719748 -5.444071
vt -0.719748 -3.066441
vt -1.719616 -3.066446
vt -1.719616 -5.444076
vt 0.609091 0.722222
vt 0.609091 0.277778
vt 0.800000 0.277778
vt 0.800000 0.722222
vt 0.863636 0.277778
vt 0.863636 0.722222
vt 0.663636 0.722222
vt 0.663636 0.277778
vt 0.366054 0.000000
vt 0.333333 0.050000
vt 0.333333 0.950000
vt 0.366054 1.000000
vt 0.633946 1.000000
vt 0.666667 0.950000
vt 0.666667 0.050000
vt 0.633946 0.000000
vt 0.863636 0.000000
vt 0.863636 1.000000
vt 0.663636 1.000000
vt 0.663636 0.000000
vt 0.000000 0.050000
vt 0.032727 0.000000
vt 0.300669 0.000000
vt 0.333396 0.050000
vt 0.333396 0.950000
vt 0.300669 1.000000
vt 0.032727 1.000000
vt 0.000000 0.950000
vt 0.863636 0.458333
vt 0.863636 0.541667
vt 0.663636 0.541667
vt 0.663636 0.458333
vt 0.609091 0.541667
vt 0.609091 0.458333
vt 0.800000 0.458333
vt 0.800000 0.541667
vt 0.945455 0.083333
vt 1.000000 0.083333
vt 1.000000 0.134860
vt 0.945455 0.134860
vt 1.000000 0.166667
vt 0.945455 0.166667
vt 0.945455 0.218193
vt 1.000000 0.218193
vt 0.672289 0.374864
vt 0.577711 0.374865
vt 0.530422 0.500000
vt 0.577711 0.625136
vt 0.672289 0.625136
vt 0.719578 0.500001
vt 0.672289 0.374864
vt 0.577711 0.374864
vt 0.530422 0.500000
vt 0.577711 0.625136
vt 0.672289 0.625136
vt 0.719578 0.500000
vt 0.577711 0.374864
vt 0.530422 0.499999
vt 0.672289 0.625135
vt 0.719578 0.500000
vt 0.577711 0.487190
vt 0.577711 0.521720
vt 0.672289 0.521720
vt 0.672289 0.487190
vt 0.625000 0.521720
vt 0.625000 0.487190
vt 0.543093 0.487190
vt 0.543093 0.521720
vt 0.706907 0.521720
vt 0.706907 0.487190
vt 0.625000 0.487190
vt 0.706907 0.487190
vt 0.579179 0.487190
vt 0.579179 0.521720
vt 0.673757 0.521720
vt 0.673757 0.487190
vt 0.577711 0.521720
vt 0.577711 0.487190
vt 0.672289 0.487190
vt 0.672289 0.521720
vt 0.543093 0.487190
vt 0.664269 0.603914
vt 0.703538 0.500000
vt 0.664269 0.603914
vt 0.703538 0.500000
vt 0.664269 0.603914
vt 0.703538 0.500000
vt 0.546462 0.500000
vt 0.585731 0.603914
vt 0.585731 0.396087
vt 0.664269 0.396087
vt 0.546462 0.500000
vt 0.585731 0.603913
vt 0.585731 0.396087
vt 0.664269 0.396086
vt 0.546462 0.500000
vt 0.585731 0.603913
vt 0.585731 0.396086
vt 0.664269 0.396086
vt 0.945455 0.000000
vt 1.000000 0.000000
vt 1.000000 0.051526
vt 0.945455 0.051526
vt 1.000000 0.134860
vt 0.945455 0.134860
vt 0.945455 0.051526
vt 1.000000 0.051526
vt 1.000000 0.051526
vt 0.945455 0.051526
vt 0.945455 0.218193
vt 1.000000 0.218193
vt 1.000000 0.218193
vt 0.945455 0.134860
vt 0.224184 0.513348
vt 0.170219 0.513428
vt 0.197247 0.441906
vt 0.170219 0.756573
vt 0.197156 0.828014
vt 0.143191 0.828095
vt 0.224184 0.267116
vt 0.170219 0.267197
vt 0.197247 0.195675
vt 0.785196 0.644013
vt 0.794175 0.593414
vt 0.785196 0.542816
vt 0.815709 0.584307
vt 0.815709 0.518569
vt 0.835764 0.518569
vt 0.835764 0.584307
vt 0.835764 0.617426
vt 0.815709 0.617426
vt 0.794915 0.617426
vt 0.814970 0.617426
vt 0.814970 0.584307
vt 0.794915 0.584307
vt 0.712924 0.542816
vt 0.721903 0.593414
vt 0.712924 0.644013
vt 0.691246 0.664971
vt 0.691246 0.521857
vt 0.763518 0.521857
vt 0.763518 0.664971
vt 0.794915 0.668763
vt 0.808042 0.668763
vt 0.808042 0.719362
vt 0.794915 0.719362
vt 0.648218 0.521857
vt 0.648218 0.664971
vt 0.794915 0.618165
vt 0.808042 0.618165
vt 0.720490 0.664971
vt 0.720490 0.521857
vt 0.794915 0.518569
vt 0.814970 0.518569
vt 0.849630 0.664971
vt 0.849630 0.521857
vt 0.836503 0.521857
vt 0.836503 0.664971
vt -1.719615 6.311392
vt -1.719615 4.066442
vt -1.594631 4.066443
vt -1.594631 6.311393
vt -1.719615 1.688813
vt -1.594632 1.688814
vt -1.719615 -0.688817
vt -1.594632 -0.688815
vt -0.719748 4.066447
vt -0.719747 6.311396
vt -0.844731 1.688816
vt -0.719748 1.688818
vt -0.844731 -0.688813
vt -0.719748 -0.688812
vt -1.469648 6.311393
vt -1.469648 4.066443
vt -1.344665 4.066443
vt -1.344665 6.311392
vt -1.469648 1.688814
vt -1.344665 1.688814
vt -1.469649 -0.688816
vt -1.344665 -0.688816
vt -1.469648 6.311392
vt -1.219681 6.311393
vt -1.219681 4.066443
vt -1.094698 6.311394
vt -1.219682 1.688814
vt -1.094698 1.688815
vt -1.219682 -0.688816
vt -1.094698 -0.688815
vt -1.344665 6.311393
vt -1.219681 6.311392
vt -0.969715 -5.444074
vt -0.969715 -3.066445
vt -0.969715 -0.688815
vt -0.969715 1.688815
vt 0.143283 0.685132
vt 0.197247 0.685051
vt 0.224184 0.756492
vt 0.116254 0.756654
vt 0.143191 0.584950
vt 0.197156 0.584869
vt 0.143283 0.441987
vt 0.116254 0.513509
vt 0.143191 0.338718
vt 0.197156 0.338638
vt 0.143283 0.195755
vt 0.116254 0.267277
s 1
usemtl cable_2
f 159/33/10 25/34/11 18/35/12 135/36/13
f 135/36/13 18/35/12 21/37/14 146/38/15
f 155/39/16 27/40/17 20/41/18 139/42/19
f 139/42/19 20/41/18 19/43/14 143/44/20
f 150/45/21 28/46/22 29/47/23 151/48/24
f 151/48/24 29/47/23 27/40/17 155/39/16
f 162/49/25 23/50/11 24/51/26 163/52/27
f 163/53/27 24/54/26 28/46/22 150/45/21
f 26/213/26 166/214/47 147/215/48 30/216/22
f 166/214/47 165/217/49 148/218/50 147/215/48
f 165/217/49 164/219/51 149/220/52 148/218/50
f 164/219/51 163/53/27 150/45/21 149/220/52
f 25/34/11 159/33/10 166/221/47 26/222/26
f 159/33/10 160/223/53 165/224/49 166/221/47
f 160/223/53 161/225/54 164/226/51 165/224/49
f 161/225/54 162/49/25 163/52/27 164/226/51
f 32/227/23 154/228/55 158/229/56 31/230/17
f 154/228/55 153/231/57 157/232/58 158/229/56
f 153/231/57 152/233/59 156/234/60 157/232/58
f 152/233/59 151/48/24 155/39/16 156/234/60
f 30/216/22 147/215/48 154/228/55 32/235/23
f 147/215/48 148/218/50 153/231/57 154/228/55
f 148/218/50 149/220/52 152/233/59 153/231/57
f 149/220/52 150/45/21 151/48/24 152/233/59
f 22/236/18 142/237/61 146/38/15 21/238/14
f 142/237/61 141/239/62 145/240/63 146/38/15
f 141/239/62 140/241/64 144/242/65 145/240/63
f 140/241/64 139/42/19 143/44/20 144/242/65
f 31/243/17 158/229/56 142/237/61 22/244/18
f 158/229/56 157/232/58 141/239/62 142/237/61
f 157/232/58 156/234/60 140/241/64 141/239/62
f 156/234/60 155/39/16 139/42/19 140/241/64
f 17/245/12 138/246/66 143/44/20 19/43/14
f 138/246/66 137/247/67 144/242/65 143/44/20
f 137/247/67 136/248/68 145/240/63 144/242/65
f 136/248/68 135/36/13 146/38/15 145/240/63
f 23/50/11 162/49/25 138/246/66 17/245/12
f 162/49/25 161/225/54 137/247/67 138/246/66
f 161/225/54 160/223/53 136/248/68 137/247/67
f 160/223/53 159/33/10 135/36/13 136/248/68
usemtl button_12
f 9/1/1 1/2/1 2/3/2 10/4/2
f 10/5/2 2/6/2 3/7/3 11/8/3
f 11/9/3 3/7/3 4/10/4 12/11/4
f 12/12/4 4/3/4 5/2/5 13/13/5
f 13/14/5 5/2/5 6/15/6 14/16/6
f 14/17/6 6/10/6 7/7/7 15/18/7
f 15/19/7 7/7/7 8/6/8 16/20/8
f 16/21/8 8/15/8 1/2/1 9/22/1
f 14/23/9 15/24/9 16/25/9
f 13/26/9 14/23/9 16/27/9 9/28/9
f 12/29/9 10/30/9 11/31/9
f 13/26/9 9/28/9 10/32/9 12/29/9
f 47/55/9 50/56/9 59/57/9 58/58/9
f 53/59/28 52/60/28 56/61/28 62/62/28
f 47/63/29 48/64/29 51/65/29 52/66/29 53/67/29 54/68/29 49/69/29 50/70/29
f 49/71/30 54/72/30 61/73/30 60/74/30
f 57/75/31 58/76/31 59/77/31 60/78/31 61/79/31 62/80/31 56/81/31 55/82/31
f 50/83/32 49/84/32 60/85/32 59/86/32
f 57/86/33 48/83/33 47/84/33 58/85/33
f 52/87/34 51/88/34 55/89/34 56/90/34
f 51/71/35 48/72/35 57/73/35 55/74/35
f 69/91/9 71/92/9 126/93/9 125/94/9
f 76/95/36 75/96/36 131/97/36 133/98/36
f 84/99/29 83/100/29 85/101/29 82/102/29 86/103/29 81/104/29
f 90/105/29 89/106/29 91/107/29 88/108/29 92/109/29 87/110/29
f 96/99/29 95/111/29 97/112/29 94/102/29 98/113/29 93/114/29
f 89/115/36 107/116/36 109/117/36 91/118/36
f 100/119/37 82/120/37 85/121/37 103/122/37
f 116/123/28 98/124/28 94/125/28 112/119/28
f 90/120/38 87/126/38 105/123/38 108/119/38
f 83/127/36 101/128/36 103/129/36 85/130/36
f 110/123/28 92/126/28 88/120/28 106/119/28
f 84/125/38 81/126/38 99/123/38 102/119/38
f 111/131/39 93/132/39 98/133/39 116/134/39
f 104/123/28 86/126/28 82/120/28 100/119/28
f 105/116/39 87/115/39 92/118/39 110/117/39
f 94/125/37 97/135/37 115/122/37 112/119/37
f 99/128/39 81/127/39 86/130/39 104/129/39
f 107/122/9 89/121/9 90/120/9 108/119/9
f 68/136/31 66/137/31 99/104/31 104/103/31
f 115/134/36 97/133/36 95/132/36 113/131/36
f 113/122/9 95/135/9 96/125/9 114/119/9
f 80/138/31 78/139/31 111/114/31 116/113/31
f 74/140/31 72/141/31 105/110/31 110/109/31
f 64/142/31 67/143/31 100/102/31 103/101/31
f 63/144/31 64/142/31 103/101/31 101/100/31
f 65/145/31 63/144/31 101/100/31 102/99/31
f 66/137/31 65/145/31 102/99/31 99/104/31
f 67/143/31 68/136/31 104/103/31 100/102/31
f 70/146/31 73/147/31 106/108/31 109/107/31
f 69/148/31 70/146/31 109/107/31 107/106/31
f 71/149/31 69/148/31 107/106/31 108/105/31
f 72/141/31 71/149/31 108/105/31 105/110/31
f 73/147/31 74/140/31 110/109/31 106/108/31
f 76/150/31 79/151/31 112/102/31 115/112/31
f 75/152/31 76/150/31 115/112/31 113/111/31
f 77/153/31 75/152/31 113/111/31 114/99/31
f 78/139/31 77/153/31 114/99/31 111/114/31
f 79/151/31 80/138/31 116/113/31 112/102/31
f 65/154/38 66/155/38 117/156/38 120/157/38
f 71/91/38 72/92/38 123/158/38 126/159/38
f 77/96/38 78/95/38 129/98/38 132/97/38
f 67/155/37 64/154/37 121/160/37 118/161/37
f 69/91/36 125/159/36 127/158/36 70/92/36
f 65/155/9 120/162/9 119/163/9 63/154/9
f 63/154/36 119/163/36 121/156/36 64/155/36
f 80/95/28 79/96/28 130/164/28 134/165/28
f 75/96/9 77/95/9 132/166/9 131/164/9
f 74/92/28 73/91/28 124/167/28 128/158/28
f 68/155/28 67/154/28 118/163/28 122/156/28
f 79/95/37 76/96/37 133/164/37 130/165/37
f 73/92/37 70/91/37 127/159/37 124/158/37
f 117/168/31 196/169/31 120/170/31
f 66/154/39 68/155/39 122/156/39 117/157/39
f 195/171/31 128/172/31 124/173/31
f 72/91/39 74/92/39 128/158/39 123/159/39
f 129/174/31 197/175/31 132/176/31
f 78/96/39 80/95/39 134/98/39 129/97/39
f 84/125/9 102/119/9 101/122/9 83/121/9
f 106/119/37 88/120/37 91/121/37 109/122/37
f 96/125/38 93/124/38 111/123/38 114/119/38
f 61/90/40 54/87/40 53/88/40 62/89/40
f 40/177/28 44/178/28 46/179/28
f 41/180/41 35/181/42 36/182/42 45/183/41
f 46/184/43 43/185/43 41/180/41 45/183/41
f 38/186/44 40/187/44 39/188/45 37/189/45
f 43/190/9 42/191/9 38/192/9
f 38/192/9 37/193/9 41/194/9 43/190/9
f 46/179/28 45/195/28 39/196/28 40/177/28
f 44/197/31 42/198/31 43/199/43 46/200/43
f 35/201/9 41/194/9 37/193/9 33/202/9
f 44/197/31 40/203/44 38/204/44 42/198/31
f 34/205/28 39/196/28 45/195/28 36/206/28
f 33/207/46 37/189/45 39/188/45 34/208/46
f 35/209/29 33/210/29 34/211/29 36/212/29
f 174/177/28 178/178/28 180/179/28
f 175/180/41 169/181/42 170/182/42 179/183/41
f 180/184/43 177/185/43 175/180/41 179/183/41
f 172/186/44 174/187/44 173/188/45 171/189/45
f 177/190/9 176/191/9 172/192/9
f 172/192/9 171/193/9 175/194/9 177/190/9
f 180/179/28 179/195/28 173/196/28 174/177/28
f 178/197/31 176/198/31 177/199/43 180/200/43
f 169/201/9 175/194/9 171/193/9 167/202/9
f 178/197/31 174/203/44 172/204/44 176/198/31
f 168/205/28 173/196/28 179/195/28 170/206/28
f 167/207/46 171/189/45 173/188/45 168/208/46
f 169/209/29 167/210/29 168/211/29 170/212/29
f 188/177/28 192/178/28 194/179/28
f 189/180/41 183/181/42 184/182/42 193/183/41
f 194/184/43 191/185/43 189/180/41 193/183/41
f 186/186/44 188/187/44 187/188/45 185/189/45
f 191/190/9 190/191/9 186/192/9
f 186/192/9 185/193/9 189/194/9 191/190/9
f 194/179/28 193/195/28 187/196/28 188/177/28
f 192/197/31 190/198/31 191/199/43 194/200/43
f 183/201/9 189/194/9 185/193/9 181/202/9
f 192/197/31 188/203/44 186/204/44 190/198/31
f 182/205/28 187/196/28 193/195/28 184/206/28
f 181/207/46 185/189/45 187/188/45 182/208/46
f 183/209/29 181/210/29 182/211/29 184/212/29
f 125/249/31 126/250/31 195/171/31
f 123/251/31 195/171/31 126/250/31
f 127/252/31 195/171/31 124/173/31
f 118/253/31 196/169/31 122/254/31
f 119/255/31 120/170/31 196/169/31
f 121/256/31 196/169/31 118/253/31
f 130/257/31 197/175/31 134/258/31
f 131/259/31 132/176/31 197/175/31
f 133/260/31 197/175/31 130/257/31
f 117/168/31 122/254/31 196/169/31
f 129/174/31 134/258/31 197/175/31
f 123/251/31 128/172/31 195/171/31
f 127/252/31 125/249/31 195/171/31
f 121/256/31 119/255/31 196/169/31
f 133/260/31 131/259/31 197/175/31
