# Blender 5.0.1
# www.blender.org
mtllib ceiling_fan_mp_1_1_light_off.mtl
o ceiling_fan_mp_1_1_light_off
v -0.064575 -0.006600 0.026746
v -0.049420 -0.006600 -0.049423
v 0.049425 -0.006600 -0.049423
v -0.049424 -0.006600 0.049421
v -0.026744 -0.006600 -0.064574
v 0.064571 -0.006600 -0.026748
v 0.000000 -0.006600 0.069893
v 0.064576 -0.006600 0.026746
v 0.069892 -0.006600 -0.000001
v 0.049425 -0.006600 0.049421
v 0.026745 -0.006600 -0.064574
v 0.026750 -0.006600 0.064572
v 0.000000 -0.006600 -0.069894
v -0.026749 -0.006600 0.064572
v -0.069891 -0.006600 -0.000001
v -0.064575 -0.006600 -0.026748
v 0.000000 -0.006600 -0.072191
v -0.066697 -0.006600 -0.027627
v -0.066697 -0.006600 0.027625
v -0.051048 -0.006600 0.051045
v 0.000000 -0.006600 0.072189
v 0.072188 -0.006600 -0.000001
v 0.066693 -0.006600 -0.027627
v 0.027624 -0.006600 -0.066696
v 0.051049 -0.006600 -0.051047
v -0.072187 -0.006600 -0.000001
v -0.051043 -0.006600 -0.051047
v -0.027623 -0.006600 -0.066696
v 0.066697 -0.006600 0.027625
v 0.051049 -0.006600 0.051045
v 0.027629 -0.006600 0.066694
v -0.027628 -0.006600 0.066694
v 0.000000 0.000400 -0.074423
v -0.068760 0.000400 -0.028481
v -0.068760 0.000400 0.028479
v -0.052627 0.000400 0.052624
v 0.000000 0.000400 0.074422
v 0.074420 0.000400 -0.000001
v 0.068755 0.000400 -0.028481
v 0.028478 0.000400 -0.068758
v 0.052628 0.000400 -0.052625
v -0.074420 0.000400 -0.000001
v -0.052622 0.000400 -0.052625
v -0.028477 0.000400 -0.068758
v 0.068760 0.000400 0.028479
v 0.052627 0.000400 0.052624
v 0.028483 0.000400 0.068757
v -0.028482 0.000400 0.068757
v 0.000000 -0.026600 0.062903
v -0.024074 -0.026600 0.058115
v 0.058114 -0.026600 -0.024073
v 0.062902 -0.026600 -0.000001
v 0.058118 -0.026600 0.024072
v 0.000000 -0.026600 -0.062905
v -0.024070 -0.026600 -0.058117
v -0.058118 -0.026600 0.024072
v -0.044482 -0.026600 0.044479
v -0.044478 -0.026600 -0.044481
v 0.024071 -0.026600 -0.058117
v 0.044482 -0.026600 -0.044481
v -0.062902 -0.026600 -0.000001
v 0.044482 -0.026600 0.044479
v 0.024075 -0.026600 0.058115
v -0.058118 -0.026600 -0.024073
v -0.022120 -0.026600 -0.000001
v 0.000000 -0.026600 -0.022121
v 0.015644 -0.026600 0.015641
v 0.022119 -0.026600 0.000003
v 0.000000 -0.026600 0.022120
v -0.015643 -0.026600 0.015641
v 0.015643 -0.026600 -0.015642
v -0.015642 -0.026600 -0.015641
v 0.000000 -0.036600 0.022120
v 0.022119 -0.036600 0.000003
v 0.000000 -0.036600 -0.022121
v -0.015643 -0.036600 0.015641
v -0.015642 -0.036600 -0.015641
v 0.015643 -0.036600 -0.015642
v -0.022120 -0.036600 -0.000001
v 0.015644 -0.036600 0.015641
v -0.030953 -0.470767 -0.077004
v -0.075516 -0.470767 -0.032440
v 0.000558 -0.470767 0.081413
v 0.032069 -0.470767 0.075145
v 0.058783 -0.470767 0.057296
v 0.076633 -0.470767 0.030582
v 0.082901 -0.470767 -0.000929
v 0.000558 -0.470767 -0.090515
v -0.033725 -0.470767 -0.083695
v -0.062788 -0.470767 -0.064276
v -0.082208 -0.470767 -0.035212
v -0.089027 -0.470767 -0.000929
v -0.082208 -0.470767 0.033354
v -0.062788 -0.470767 0.062418
v -0.033725 -0.470767 0.081837
v 0.000558 -0.470767 0.088657
v 0.034841 -0.470767 0.081837
v 0.063905 -0.470767 0.062418
v 0.083325 -0.470767 0.033354
v 0.090144 -0.470767 -0.000929
v 0.083325 -0.470767 -0.035212
v 0.063905 -0.470767 -0.064276
v 0.034841 -0.470767 -0.083695
v 0.000558 -0.438860 -0.090515
v -0.033725 -0.438860 -0.083695
v -0.062788 -0.438860 -0.064276
v -0.082208 -0.438860 -0.035212
v -0.089027 -0.438860 -0.000929
v -0.082208 -0.438860 0.033354
v -0.062788 -0.438860 0.062418
v -0.033725 -0.438860 0.081837
v 0.000558 -0.438860 0.088657
v 0.034841 -0.438860 0.081837
v 0.063905 -0.438860 0.062418
v 0.083325 -0.438860 0.033354
v 0.090144 -0.438860 -0.000929
v 0.083325 -0.438860 -0.035212
v 0.063905 -0.438860 -0.064276
v 0.034841 -0.438860 -0.083695
v 0.000558 -0.470767 -0.083272
v -0.057667 -0.470767 -0.059154
v -0.081784 -0.470767 -0.000929
v -0.075516 -0.470767 0.030582
v -0.057667 -0.470767 0.057296
v -0.030953 -0.470767 0.075145
v 0.076633 -0.470767 -0.032440
v 0.058783 -0.470767 -0.059154
v 0.032069 -0.470767 -0.077004
v 0.000558 -0.491122 -0.041203
v -0.014854 -0.491122 -0.038137
v -0.027920 -0.491122 -0.029407
v -0.036650 -0.491122 -0.016341
v -0.039716 -0.491122 -0.000929
v -0.036650 -0.491122 0.014483
v -0.027920 -0.491122 0.027549
v -0.014854 -0.491122 0.036279
v 0.000558 -0.491122 0.039345
v 0.015971 -0.491122 0.036279
v 0.029036 -0.491122 0.027549
v 0.037767 -0.491122 0.014483
v 0.040832 -0.491122 -0.000929
v 0.037767 -0.491122 -0.016341
v 0.029036 -0.491122 -0.029407
v 0.015971 -0.491122 -0.038137
v 0.009822 -0.505139 -0.023481
v -0.000001 -0.505139 -0.025435
v -0.009824 -0.505139 -0.023481
v -0.018152 -0.505139 -0.017917
v -0.023716 -0.505139 -0.009589
v -0.025670 -0.505139 0.000234
v -0.023716 -0.505139 0.010057
v -0.018152 -0.505139 0.018384
v -0.009824 -0.505139 0.023949
v -0.000001 -0.505139 0.025903
v 0.009822 -0.505139 0.023949
v 0.018149 -0.505139 0.018384
v 0.023714 -0.505139 0.010057
v 0.025668 -0.505139 0.000234
v 0.023714 -0.505139 -0.009589
v 0.018149 -0.505139 -0.017917
v 0.009822 -0.490399 -0.023481
v -0.000001 -0.490399 -0.025435
v -0.009824 -0.490399 -0.023481
v -0.018152 -0.490399 -0.017917
v -0.023716 -0.490399 -0.009589
v -0.025670 -0.490399 0.000234
v -0.023716 -0.490399 0.010057
v -0.018152 -0.490399 0.018384
v -0.009824 -0.490399 0.023949
v -0.000001 -0.490399 0.025903
v 0.009822 -0.490399 0.023949
v 0.018149 -0.490399 0.018384
v 0.023714 -0.490399 0.010057
v 0.025668 -0.490399 0.000234
v 0.023714 -0.490399 -0.009589
v 0.018149 -0.490399 -0.017917
v 0.000000 -0.036600 -0.014792
v 0.014791 -0.036600 -0.000000
v 0.000000 -0.036600 0.014791
v -0.010459 -0.036600 0.010458
v -0.010458 -0.036600 -0.010459
v -0.014791 -0.036600 -0.000000
v 0.010459 -0.036600 0.010458
v 0.010459 -0.036600 -0.010459
v 0.000000 -0.373332 -0.014792
v 0.014791 -0.373345 -0.000000
v 0.000000 -0.373396 0.014791
v -0.010459 -0.373400 0.010458
v -0.010458 -0.373355 -0.010459
v -0.014791 -0.373383 -0.000000
v 0.010459 -0.373373 0.010458
v 0.010459 -0.373328 -0.010459
v 0.064575 -0.403400 0.026746
v 0.049420 -0.403400 -0.049423
v -0.049425 -0.403400 -0.049423
v 0.049424 -0.403400 0.049421
v 0.026744 -0.403400 -0.064574
v -0.064571 -0.403400 -0.026748
v -0.000000 -0.403400 0.069893
v -0.064576 -0.403400 0.026746
v -0.069892 -0.403400 -0.000001
v -0.049425 -0.403400 0.049421
v -0.026745 -0.403400 -0.064574
v -0.026750 -0.403400 0.064572
v -0.000000 -0.403400 -0.069894
v 0.026749 -0.403400 0.064572
v 0.069891 -0.403400 -0.000001
v 0.064575 -0.403400 -0.026748
v -0.000000 -0.403400 -0.072191
v 0.066697 -0.403400 -0.027627
v 0.066697 -0.403400 0.027625
v 0.051048 -0.403400 0.051045
v -0.000000 -0.403400 0.072189
v -0.072188 -0.403400 -0.000001
v -0.066693 -0.403400 -0.027627
v -0.027624 -0.403400 -0.066696
v -0.051049 -0.403400 -0.051047
v 0.072187 -0.403400 -0.000001
v 0.051043 -0.403400 -0.051047
v 0.027623 -0.403400 -0.066696
v -0.066697 -0.403400 0.027625
v -0.051049 -0.403400 0.051045
v -0.027629 -0.403400 0.066694
v 0.027628 -0.403400 0.066694
v -0.000000 -0.410400 -0.074423
v 0.068760 -0.410400 -0.028481
v 0.068760 -0.410400 0.028479
v 0.052627 -0.410400 0.052624
v -0.000000 -0.410400 0.074422
v -0.074420 -0.410400 -0.000001
v -0.068755 -0.410400 -0.028481
v -0.028478 -0.410400 -0.068758
v -0.052628 -0.410400 -0.052625
v 0.074420 -0.410400 -0.000001
v 0.052622 -0.410400 -0.052625
v 0.028477 -0.410400 -0.068758
v -0.068760 -0.410400 0.028479
v -0.052627 -0.410400 0.052624
v -0.028483 -0.410400 0.068757
v 0.028482 -0.410400 0.068757
v -0.000000 -0.383400 0.062903
v 0.024074 -0.383400 0.058115
v -0.058114 -0.383400 -0.024073
v -0.062902 -0.383400 -0.000001
v -0.058118 -0.383400 0.024072
v -0.000000 -0.383400 -0.062905
v 0.024070 -0.383400 -0.058117
v 0.058118 -0.383400 0.024072
v 0.044482 -0.383400 0.044479
v 0.044478 -0.383400 -0.044481
v -0.024071 -0.383400 -0.058117
v -0.044482 -0.383400 -0.044481
v 0.062902 -0.383400 -0.000001
v -0.044482 -0.383400 0.044479
v -0.024075 -0.383400 0.058115
v 0.058118 -0.383400 -0.024073
v 0.022120 -0.383400 -0.000001
v -0.000000 -0.383400 -0.022121
v -0.015644 -0.383400 0.015641
v -0.022119 -0.383400 0.000003
v -0.000000 -0.383400 0.022120
v 0.015643 -0.383400 0.015641
v -0.015643 -0.383400 -0.015642
v 0.015642 -0.383400 -0.015641
v -0.000000 -0.373400 0.022120
v -0.022119 -0.373400 0.000003
v -0.000000 -0.373400 -0.022121
v 0.015643 -0.373400 0.015641
v 0.015642 -0.373400 -0.015641
v -0.015643 -0.373400 -0.015642
v 0.022120 -0.373400 -0.000001
v -0.015644 -0.373400 0.015641
v 0.000558 -0.480945 -0.068368
v -0.047128 -0.480945 -0.048616
v -0.066881 -0.480945 -0.000929
v -0.061747 -0.480945 0.024879
v -0.047128 -0.480945 0.046758
v -0.025250 -0.480945 0.061376
v 0.062864 -0.480945 -0.026737
v 0.048245 -0.480945 -0.048616
v 0.026366 -0.480945 -0.063235
v -0.025250 -0.480945 -0.063235
v -0.061747 -0.480945 -0.026737
v 0.000558 -0.480945 0.066510
v 0.026366 -0.480945 0.061376
v 0.048245 -0.480945 0.046758
v 0.062864 -0.480945 0.024879
v 0.067997 -0.480945 -0.000929
v 0.011633 -0.512954 -0.011401
v 0.012923 -0.525185 -0.012691
v 0.017221 -0.537454 -0.017012
v 0.022501 -0.537454 -0.009110
v 0.016453 -0.512954 0.000234
v 0.018277 -0.525185 0.000234
v 0.024355 -0.537454 0.000211
v 0.022501 -0.537454 0.009531
v 0.011633 -0.512954 0.011869
v 0.012923 -0.525185 0.013159
v 0.009332 -0.537454 0.022767
v -0.000002 -0.512954 0.016688
v -0.000002 -0.525185 0.018512
v -0.000002 -0.537454 0.024624
v -0.009335 -0.537454 0.022767
v -0.011637 -0.512954 0.011869
v -0.012926 -0.525185 0.013159
v -0.022504 -0.537454 0.009531
v -0.016456 -0.512954 0.000234
v -0.018280 -0.525185 0.000234
v -0.024358 -0.537454 0.000211
v -0.022504 -0.537454 -0.009110
v -0.011637 -0.512954 -0.011401
v -0.012926 -0.525185 -0.012691
v -0.017224 -0.537454 -0.017012
v -0.009322 -0.537454 -0.022292
v -0.000002 -0.512954 -0.016221
v -0.000002 -0.525185 -0.018044
v -0.000002 -0.512954 -0.019676
v 0.014077 -0.512954 -0.013845
v 0.019908 -0.512954 0.000234
v 0.017917 -0.505139 0.000234
v 0.014077 -0.512954 0.014312
v 0.012669 -0.505139 0.012904
v -0.000002 -0.512954 0.020144
v -0.000002 -0.505139 0.018153
v -0.014080 -0.512954 0.014312
v -0.012672 -0.505139 0.012904
v -0.019911 -0.512954 0.000234
v -0.017920 -0.505139 0.000234
v -0.014080 -0.512954 -0.013845
v -0.012672 -0.505139 -0.012437
v -0.000002 -0.505139 -0.017685
v 0.012669 -0.505139 -0.012437
v -0.000001 -0.548613 -0.031593
v -0.000001 -0.561777 -0.034211
v -0.000001 -0.574940 -0.031593
v -0.000001 -0.593556 -0.012976
v 0.009319 -0.537454 -0.022292
v 0.012160 -0.548613 -0.029173
v 0.013162 -0.561777 -0.031593
v 0.012160 -0.574940 -0.029173
v 0.009307 -0.586100 -0.022284
v 0.022470 -0.548613 -0.022284
v 0.024322 -0.561777 -0.024136
v 0.022470 -0.574940 -0.022284
v 0.017198 -0.586100 -0.017012
v 0.009307 -0.593556 -0.009121
v 0.029359 -0.548613 -0.011974
v 0.031778 -0.561777 -0.012976
v 0.029359 -0.574940 -0.011974
v 0.022470 -0.586100 -0.009121
v 0.031778 -0.548613 0.000187
v 0.034397 -0.561777 0.000187
v 0.031778 -0.574940 0.000187
v 0.024322 -0.586100 0.000187
v 0.013162 -0.593556 0.000187
v 0.029359 -0.548613 0.012349
v 0.031778 -0.561777 0.013351
v 0.029359 -0.574940 0.012349
v 0.022470 -0.586100 0.009495
v 0.017244 -0.537454 0.017480
v 0.022470 -0.548613 0.022659
v 0.024322 -0.561777 0.024510
v 0.022470 -0.574940 0.022659
v 0.017198 -0.586100 0.017386
v 0.009307 -0.593556 0.009495
v 0.012160 -0.548613 0.029548
v 0.013162 -0.561777 0.031967
v 0.012160 -0.574940 0.029548
v 0.009307 -0.586100 0.022659
v -0.000001 -0.548613 0.031967
v -0.000001 -0.561777 0.034585
v -0.000001 -0.574940 0.031967
v -0.000001 -0.586100 0.024510
v -0.000001 -0.593556 0.013351
v -0.000001 -0.596175 0.000187
v -0.012163 -0.548613 0.029548
v -0.013165 -0.561777 0.031967
v -0.012163 -0.574940 0.029548
v -0.009309 -0.586100 0.022659
v -0.022473 -0.548613 0.022659
v -0.024324 -0.561777 0.024510
v -0.022473 -0.574940 0.022659
v -0.017200 -0.586100 0.017386
v -0.009309 -0.593556 0.009495
v -0.029362 -0.548613 0.012349
v -0.031781 -0.561777 0.013351
v -0.029362 -0.574940 0.012349
v -0.022473 -0.586100 0.009495
v -0.031781 -0.548613 0.000187
v -0.034399 -0.561777 0.000187
v -0.031781 -0.574940 0.000187
v -0.024324 -0.586100 0.000187
v -0.013165 -0.593556 0.000187
v -0.029362 -0.548613 -0.011974
v -0.031781 -0.561777 -0.012976
v -0.029362 -0.574940 -0.011974
v -0.022473 -0.586100 -0.009121
v -0.022473 -0.548613 -0.022284
v -0.024324 -0.561777 -0.024136
v -0.022473 -0.574940 -0.022284
v -0.017200 -0.586100 -0.017012
v -0.009309 -0.593556 -0.009121
v -0.012163 -0.548613 -0.029173
v -0.013165 -0.561777 -0.031592
v -0.012163 -0.574940 -0.029173
v -0.009309 -0.586100 -0.022284
v -0.000001 -0.537454 -0.024136
v -0.000001 -0.586100 -0.024136
v -0.017200 -0.537454 0.017386
vn -0.0000 -1.0000 -0.0000
vn 0.6675 -0.3299 -0.6675
vn 0.8722 -0.3299 -0.3612
vn -0.8722 -0.3299 0.3612
vn -0.9440 -0.3299 -0.0000
vn -0.6675 -0.3299 -0.6676
vn -0.3613 -0.3299 -0.8722
vn -0.0000 -0.3299 0.9440
vn -0.3613 -0.3299 0.8722
vn -0.3612 -0.3299 0.8722
vn 0.9440 -0.3299 -0.0001
vn -0.8722 -0.3299 -0.3612
vn -0.0000 -0.3299 -0.9440
vn 0.3612 -0.3299 -0.8722
vn -0.6675 -0.3299 0.6675
vn 0.8722 -0.3299 0.3612
vn 0.6675 -0.3299 0.6675
vn 0.3613 -0.3299 0.8722
vn 0.3612 -0.3299 0.8722
vn 0.3646 -0.3039 -0.8802
vn -0.0000 -0.3039 -0.9527
vn 0.8802 -0.3039 -0.3645
vn 0.6737 -0.3039 -0.6737
vn 0.6737 -0.3039 0.6737
vn 0.8802 -0.3039 0.3645
vn -0.6736 -0.3039 -0.6737
vn -0.8802 -0.3039 -0.3646
vn -0.9527 -0.3039 -0.0000
vn -0.8802 -0.3039 0.3645
vn -0.3646 -0.3039 0.8802
vn -0.0000 -0.3039 0.9527
vn -0.3646 -0.3039 -0.8802
vn 0.3646 -0.3039 0.8802
vn 0.9527 -0.3039 -0.0001
vn -0.6737 -0.3039 0.6737
vn 0.7072 -0.0000 -0.7070
vn 1.0000 -0.0000 -0.0000
vn -0.0000 -0.0000 -1.0000
vn 0.7071 -0.0000 0.7071
vn -0.7071 -0.0000 0.7071
vn -1.0000 -0.0000 -0.0001
vn -0.7071 -0.0000 -0.7071
vn -0.0000 -0.0000 1.0000
vn -0.3827 -0.0000 0.9239
vn -0.9239 -0.0000 -0.3827
vn 0.3827 -0.0000 0.9239
vn -0.3827 -0.0000 -0.9239
vn -0.9239 -0.0000 0.3827
vn 0.9239 -0.0000 -0.3827
vn 0.7071 -0.0000 -0.7071
vn -1.0000 -0.0000 -0.0000
vn 0.9239 -0.0000 0.3827
vn 0.3827 -0.0000 -0.9239
vn 0.4724 -0.8814 -0.0000
vn 0.4364 -0.8814 -0.1808
vn 0.5210 -0.8258 -0.2158
vn 0.5639 -0.8258 -0.0000
vn -0.3340 -0.8814 0.3340
vn -0.1808 -0.8814 0.4364
vn -0.2158 -0.8258 0.5210
vn -0.3988 -0.8258 0.3988
vn -0.0000 -0.8814 -0.4724
vn -0.1808 -0.8814 -0.4364
vn -0.2158 -0.8258 -0.5210
vn -0.0000 -0.8258 -0.5639
vn 0.3340 -0.8814 -0.3340
vn 0.3988 -0.8258 -0.3988
vn -0.0000 -0.8814 0.4724
vn -0.0000 -0.8258 0.5639
vn -0.3340 -0.8814 -0.3340
vn -0.3988 -0.8258 -0.3988
vn 0.1808 -0.8814 -0.4364
vn 0.2158 -0.8258 -0.5210
vn 0.1808 -0.8814 0.4364
vn 0.2158 -0.8258 0.5210
vn -0.4364 -0.8814 -0.1808
vn -0.5210 -0.8258 -0.2158
vn 0.3340 -0.8814 0.3340
vn 0.3988 -0.8258 0.3988
vn -0.4724 -0.8814 -0.0000
vn -0.5639 -0.8258 -0.0000
vn 0.4364 -0.8814 0.1808
vn 0.5210 -0.8258 0.2158
vn -0.4364 -0.8814 0.1808
vn -0.5210 -0.8258 0.2158
vn -0.0764 -0.9799 -0.1845
vn -0.0000 -0.9799 -0.1997
vn 0.0764 -0.9799 -0.1845
vn 0.1412 -0.9799 -0.1412
vn 0.1845 -0.9799 -0.0764
vn 0.1997 -0.9799 -0.0000
vn 0.1845 -0.9799 0.0764
vn 0.1412 -0.9799 0.1412
vn 0.0764 -0.9799 0.1845
vn -0.0000 -0.9799 0.1997
vn -0.0764 -0.9799 0.1845
vn -0.1412 -0.9799 0.1412
vn -0.1845 -0.9799 0.0764
vn -0.1997 -0.9799 -0.0000
vn -0.1845 -0.9799 -0.0764
vn -0.1412 -0.9799 -0.1412
vn -0.0000 1.0000 -0.0000
vn -1.0000 -0.0000 0.0005
vn -0.7070 -0.0000 0.7072
vn -0.0003 -0.0000 1.0000
vn 1.0000 -0.0000 0.0005
vn 0.7067 -0.0000 0.7075
vn -0.0003 -0.0000 -1.0000
vn -0.7075 -0.0000 -0.7067
vn -0.6675 0.3299 -0.6675
vn -0.8722 0.3299 -0.3612
vn 0.8722 0.3299 0.3612
vn 0.9440 0.3299 -0.0000
vn 0.6675 0.3299 -0.6676
vn 0.3613 0.3299 -0.8722
vn -0.0000 0.3299 0.9440
vn 0.3613 0.3299 0.8722
vn 0.3612 0.3299 0.8722
vn -0.9440 0.3299 -0.0001
vn 0.8722 0.3299 -0.3612
vn -0.0000 0.3299 -0.9440
vn -0.3612 0.3299 -0.8722
vn 0.6675 0.3299 0.6675
vn -0.8722 0.3299 0.3612
vn -0.6675 0.3299 0.6675
vn -0.3613 0.3299 0.8722
vn -0.3612 0.3299 0.8722
vn -0.3646 0.3039 -0.8802
vn -0.0000 0.3039 -0.9527
vn -0.8802 0.3039 -0.3645
vn -0.6737 0.3039 -0.6737
vn -0.6737 0.3039 0.6737
vn -0.8802 0.3039 0.3645
vn 0.6736 0.3039 -0.6737
vn 0.8802 0.3039 -0.3646
vn 0.9527 0.3039 -0.0000
vn 0.8802 0.3039 0.3645
vn 0.3646 0.3039 0.8802
vn -0.0000 0.3039 0.9527
vn 0.3646 0.3039 -0.8802
vn -0.3646 0.3039 0.8802
vn -0.9527 0.3039 -0.0001
vn 0.6737 0.3039 0.6737
vn -0.7072 -0.0000 -0.7070
vn 0.0001 -0.0000 -1.0000
vn 1.0000 -0.0000 -0.0001
vn 0.6106 0.5043 -0.6106
vn 0.3277 0.5154 -0.7918
vn 0.6617 0.3531 -0.6615
vn -0.0000 0.3531 -0.9356
vn -0.3277 0.5154 -0.7918
vn -0.6617 0.3531 -0.6615
vn 0.8641 0.5033 -0.0000
vn 0.7921 0.5147 -0.3281
vn 0.9358 0.3525 0.0002
vn 0.6994 0.1475 -0.6994
vn 0.9891 0.1475 -0.0000
vn 0.7931 0.5137 0.3273
vn -0.0000 0.3536 0.9354
vn 0.6619 0.3532 0.6612
vn 0.6994 0.1475 0.6994
vn -0.0000 0.1475 0.9891
vn -0.0000 0.5019 0.8649
vn 0.3284 0.5129 0.7931
vn -0.9358 0.3525 0.0002
vn -0.6622 0.3519 0.6615
vn -0.6994 0.1475 0.6994
vn -0.9891 0.1475 -0.0000
vn -0.8641 0.5033 -0.0000
vn -0.7921 0.5139 0.3294
vn -0.3308 0.5131 0.7920
vn -0.6994 0.1475 -0.6994
vn -0.0000 0.1475 -0.9891
vn -0.7921 0.5147 -0.3281
vn -0.0000 0.5045 -0.8634
vn 0.6852 0.2469 0.6852
vn 0.9690 0.2469 -0.0000
vn -0.0000 0.2469 -0.9690
vn -0.6852 0.2469 -0.6852
vn 0.6852 0.2469 -0.6852
vn -0.9690 0.2469 -0.0000
vn -0.6852 0.2469 0.6852
vn -0.0000 0.2469 0.9690
vn -0.6106 0.5043 -0.6106
vn -0.6133 0.5011 0.6105
vn 0.6122 0.5027 0.6103
vn -0.0000 -0.3744 -0.9273
vn 0.3549 -0.3744 -0.8567
vn -0.0000 0.3742 -0.9273
vn 0.3548 0.3741 -0.8568
vn 0.2807 -0.9179 -0.2807
vn 0.6614 -0.6982 -0.2739
vn 0.3969 -0.9179 -0.0000
vn -0.0000 -0.6952 -0.7189
vn 0.2739 -0.6982 -0.6614
vn 0.6557 -0.3744 -0.6557
vn 0.5083 -0.6952 -0.5083
vn 0.6558 0.3739 -0.6559
vn -0.0000 -0.9179 -0.3969
vn 0.8567 -0.3744 -0.3549
vn 0.8569 0.3737 -0.3550
vn 0.2807 -0.9179 0.2807
vn 0.9273 -0.3744 -0.0000
vn 0.9276 0.3735 -0.0001
vn 0.7189 -0.6952 -0.0000
vn 0.8567 -0.3744 0.3549
vn 0.8574 0.3729 0.3547
vn 0.6614 -0.6982 0.2739
vn 0.6557 -0.3744 0.6557
vn 0.5083 -0.6952 0.5083
vn 0.6567 0.3720 0.6560
vn 0.2739 -0.6982 0.6614
vn -0.0000 -0.9179 0.3969
vn 0.3554 0.3714 0.8578
vn 0.3549 -0.3744 0.8567
vn -0.2807 -0.9179 0.2807
vn -0.0000 -0.3744 0.9273
vn -0.0000 0.3713 0.9285
vn -0.0000 -0.6952 0.7189
vn -0.3561 0.3722 0.8571
vn -0.2739 -0.6982 0.6614
vn -0.3549 -0.3744 0.8567
vn -0.6557 -0.3744 0.6557
vn -0.5083 -0.6952 0.5083
vn -0.6564 0.3732 0.6557
vn -0.6614 -0.6982 0.2739
vn -0.3969 -0.9179 -0.0000
vn -0.8567 -0.3744 0.3549
vn -0.8569 0.3736 0.3553
vn -0.2807 -0.9179 -0.2807
vn -0.9273 -0.3744 -0.0000
vn -0.9276 0.3735 -0.0001
vn -0.7189 -0.6952 -0.0000
vn -0.6614 -0.6982 -0.2739
vn -0.8567 -0.3744 -0.3549
vn -0.8569 0.3737 -0.3550
vn -0.6557 -0.3744 -0.6557
vn -0.5083 -0.6952 -0.5083
vn -0.6558 0.3739 -0.6559
vn -0.2739 -0.6982 -0.6614
vn -0.3549 -0.3744 -0.8567
vn -0.3548 0.3741 -0.8568
vt 0.067941 0.985139
vt 0.064625 0.985799
vt 0.064632 0.944330
vt 0.067947 0.944990
vt 0.109820 1.053434
vt 0.080496 1.024111
vt 0.083307 1.022233
vt 0.111698 1.050623
vt 0.254432 0.907892
vt 0.257243 0.906014
vt 0.273106 0.944325
vt 0.269790 0.944985
vt 0.109824 0.876693
vt 0.148136 0.860823
vt 0.148795 0.864139
vt 0.111702 0.879504
vt 0.226034 0.879501
vt 0.227912 0.876690
vt 0.083305 0.907894
vt 0.080494 0.906016
vt 0.189602 0.860822
vt 0.188943 0.864137
vt 0.148796 1.065988
vt 0.148136 1.069304
vt 0.188949 1.065988
vt 0.226043 1.050622
vt 0.227922 1.053433
vt 0.189609 1.069304
vt -0.680907 0.494515
vt -0.668199 0.456433
vt -0.639308 0.468188
vt -0.650745 0.502462
vt -0.628716 0.761275
vt -0.650705 0.727683
vt -0.623563 0.712313
vt -0.603773 0.742546
vt -0.680907 0.653455
vt -0.688617 0.614052
vt -0.657683 0.610045
vt -0.650745 0.645508
vt -0.539734 0.841473
vt -0.572767 0.818644
vt -0.553419 0.794179
vt -0.523689 0.814724
vt -0.650705 0.420294
vt -0.623563 0.435663
vt -0.668201 0.691546
vt -0.639309 0.679790
vt -0.691201 0.573988
vt -0.688617 0.533924
vt -0.657683 0.537931
vt -0.660009 0.573988
vt -0.602592 0.791764
vt -0.580261 0.769986
vt -0.628716 0.386702
vt -0.603773 0.405430
vt -0.602592 0.356213
vt -0.572767 0.329332
vt -0.553419 0.353798
vt -0.580261 0.377990
vt -0.539734 0.306504
vt -0.523689 0.333252
vt -1.168373 0.558218
vt -1.170831 0.599611
vt -1.181649 0.599611
vt -1.179114 0.556938
vt 0.269791 0.985135
vt 0.273107 0.985795
vt 0.257245 1.024109
vt 0.254434 1.022231
vt -1.148912 0.477743
vt -1.161033 0.517398
vt -1.171547 0.514855
vt -1.159052 0.473974
vt -1.085906 0.371148
vt -1.111085 0.404098
vt -1.120054 0.398051
vt -1.094097 0.364082
vt -1.161033 0.681819
vt -1.148914 0.721482
vt -1.159053 0.725252
vt -1.171547 0.684362
vt -1.132184 0.759426
vt -1.111085 0.795125
vt -1.120054 0.801172
vt -1.141806 0.764369
vt -1.057004 0.857815
vt -1.024783 0.883927
vt -1.031083 0.892720
vt -1.064301 0.865801
vt -1.168373 0.641004
vt -1.179114 0.642285
vt -1.024783 0.315297
vt -1.057004 0.341408
vt -1.064301 0.333423
vt -1.031083 0.306504
vt -1.132184 0.439797
vt -1.141806 0.434855
vt -1.085906 0.828076
vt -1.094097 0.835142
vt -0.390678 1.091876
vt -0.404507 1.058491
vt -0.404501 1.022357
vt -0.390678 0.988971
vt -0.365121 0.963420
vt -0.331736 0.949592
vt -0.295603 0.949591
vt -0.262222 0.963419
vt -0.236664 0.988972
vt -0.222842 1.022356
vt -0.222842 1.058491
vt -0.236664 1.091877
vt -0.262216 1.117429
vt -0.295600 1.131257
vt -0.331739 1.131256
vt -0.365127 1.117427
vt 0.201689 0.068440
vt 0.201689 0.093369
vt 0.186966 0.093369
vt 0.186966 0.068440
vt -0.014360 0.923987
vt -0.014360 0.899058
vt 0.003267 0.881437
vt 0.028190 0.881437
vt 0.045818 0.899063
vt 0.045818 0.923990
vt 0.028186 0.941614
vt 0.003267 0.941616
vt 0.201689 0.043513
vt 0.186966 0.043513
vt 0.201689 0.118289
vt 0.186966 0.118289
vt 0.201689 -0.031262
vt 0.201689 -0.006338
vt 0.186966 -0.006338
vt 0.186966 -0.031262
vt 0.201689 0.018585
vt 0.186966 0.018585
vt 0.201689 0.143218
vt 0.186966 0.143218
vt 0.201689 -0.056192
vt 0.186966 -0.056192
vt 0.406772 0.642290
vt 0.354575 0.642290
vt 0.354575 0.585109
vt 0.406772 0.585109
vt 0.053004 0.763983
vt 0.053004 0.711425
vt 0.064625 0.709114
vt 0.064625 0.766294
vt 0.032891 0.662868
vt -0.004273 0.625705
vt 0.002310 0.615853
vt 0.042743 0.656286
vt -0.105387 0.605592
vt -0.153944 0.625705
vt -0.160527 0.615853
vt -0.107699 0.593971
vt -0.191108 0.662869
vt -0.200960 0.656286
vt -0.211220 0.711425
vt -0.222842 0.709114
vt -0.211220 0.763983
vt -0.222842 0.766294
vt -0.211220 0.763983
vt -0.191107 0.812540
vt -0.200959 0.819122
vt -0.153944 0.849703
vt -0.160527 0.859555
vt -0.105387 0.869816
vt -0.107699 0.881437
vt -0.052830 0.869816
vt -0.050518 0.881437
vt -0.004273 0.849703
vt 0.002310 0.859555
vt 0.032891 0.812540
vt 0.042743 0.819122
vt -0.052830 0.605592
vt -0.050518 0.593971
vt 0.406771 0.928193
vt 0.354575 0.928193
vt 0.354575 0.871013
vt 0.406771 0.871013
vt 0.406771 1.500000
vt 0.354575 1.500000
vt 0.354575 1.442820
vt 0.406771 1.442820
vt 0.406771 1.042555
vt 0.354575 1.042555
vt 0.354575 0.985374
vt 0.406771 0.985374
vt 0.406771 0.756651
vt 0.354575 0.756651
vt 0.354575 0.699471
vt 0.406772 0.699471
vt 0.406771 1.271278
vt 0.354575 1.271277
vt 0.354575 1.214097
vt 0.406771 1.214097
vt 0.406772 0.699471
vt 0.354575 0.699471
vt 0.354575 0.642290
vt 0.406772 0.642290
vt 0.406771 1.214097
vt 0.354575 1.214097
vt 0.354575 1.156916
vt 0.406771 1.156916
vt 0.406771 0.813832
vt 0.354575 0.813832
vt 0.354575 0.756651
vt 0.406771 1.328458
vt 0.354575 1.328458
vt 0.406771 1.385639
vt 0.354575 1.385639
vt 0.406771 1.328458
vt 0.406771 0.871013
vt 0.354575 0.871013
vt 0.354575 0.813832
vt 0.406771 0.813832
vt 0.354575 1.442820
vt 0.406771 1.385639
vt 0.406771 1.156916
vt 0.354575 1.156916
vt 0.354575 1.099735
vt 0.406771 1.099735
vt 0.354575 1.099735
vt 0.354575 1.042555
vt 0.354575 0.985374
vt 0.354575 0.928193
vt 0.137020 0.819991
vt 0.179259 0.837631
vt 0.173391 0.864241
vt 0.122503 0.843173
vt 0.181624 0.608219
vt 0.139008 0.624952
vt 0.124841 0.601657
vt 0.176017 0.581687
vt 0.299410 0.788621
vt 0.316874 0.746697
vt 0.343236 0.752484
vt 0.322364 0.802851
vt 0.224951 0.837742
vt 0.229675 0.864489
vt 0.174841 0.864506
vt 0.106325 0.656773
vt 0.084406 0.640758
vt 0.123615 0.602448
vt 0.316929 0.701307
vt 0.343511 0.696735
vt 0.343511 0.751066
vt 0.267146 0.820613
vt 0.281697 0.843444
vt 0.231102 0.864181
vt 0.088121 0.698718
vt 0.061553 0.692360
vt 0.083560 0.641983
vt 0.321567 0.804077
vt 0.282904 0.842612
vt 0.300231 0.659113
vt 0.323046 0.644925
vt 0.343219 0.695341
vt 0.087865 0.744517
vt 0.060924 0.748804
vt 0.061236 0.693794
vt 0.268803 0.626796
vt 0.284553 0.605112
vt 0.322247 0.643751
vt 0.104658 0.787217
vt 0.081283 0.801664
vt 0.061186 0.750267
vt 0.227249 0.608757
vt 0.233602 0.582427
vt 0.283377 0.604278
vt 0.121230 0.842352
vt 0.082105 0.802924
vt 0.266489 0.736336
vt 0.256653 0.759718
vt 0.238598 0.777531
vt 0.215039 0.787070
vt 0.189563 0.786885
vt 0.166084 0.776947
vt 0.148215 0.758732
vt 0.138690 0.735035
vt 0.138953 0.709517
vt 0.148977 0.686103
vt 0.167236 0.668356
vt 0.190908 0.658926
vt 0.216336 0.659235
vt 0.239626 0.669205
vt 0.257273 0.687353
vt 0.266678 0.710929
vt 0.177461 0.581434
vt 0.232191 0.582101
vt 0.343582 -0.170879
vt 0.319470 -0.170879
vt 0.319470 -0.187263
vt 0.343582 -0.187263
vt 0.343582 -0.154495
vt 0.319470 -0.154495
vt 0.343582 -0.138111
vt 0.319470 -0.138111
vt 0.343582 -0.105343
vt 0.319470 -0.105343
vt 0.319470 -0.121727
vt 0.343582 -0.121727
vt -0.476272 0.890848
vt -0.476272 0.874464
vt -0.470002 0.859328
vt -0.458416 0.847742
vt -0.443280 0.841473
vt -0.426896 0.841473
vt -0.411759 0.847742
vt -0.400174 0.859328
vt -0.393904 0.874465
vt -0.393904 0.890849
vt -0.400174 0.905985
vt -0.411759 0.917571
vt -0.426896 0.923840
vt -0.443280 0.923840
vt -0.458417 0.917570
vt -0.470002 0.905985
vt 0.343582 -0.203647
vt 0.319470 -0.203647
vt 0.319470 -0.220031
vt 0.343583 -0.220031
vt 0.343583 -0.301950
vt 0.319470 -0.301950
vt 0.319470 -0.318334
vt 0.343583 -0.318334
vt 0.343582 -0.072575
vt 0.319470 -0.072575
vt 0.319470 -0.088959
vt 0.343582 -0.088959
vt 0.343583 -0.285566
vt 0.319470 -0.285567
vt 0.343582 -0.056192
vt 0.319470 -0.056192
vt 0.319470 -0.236415
vt 0.343583 -0.236415
vt 0.343583 -0.269183
vt 0.343583 -0.252799
vt 0.319470 -0.252799
vt 0.319470 -0.269183
vt 0.500000 0.300921
vt 0.423816 0.316075
vt 0.359230 0.359230
vt 0.316075 0.423816
vt 0.300921 0.500000
vt 0.316075 0.576184
vt 0.359230 0.640770
vt 0.423816 0.683925
vt 0.500000 0.699079
vt 0.576184 0.683925
vt 0.640770 0.640770
vt 0.683925 0.576184
vt 0.699079 0.500000
vt 0.683925 0.423816
vt 0.640770 0.359230
vt 0.576184 0.316075
vt 0.492823 -0.066986
vt 0.511962 -0.066986
vt 0.511962 0.427380
vt 0.492823 0.427374
vt 0.526316 -0.066986
vt 0.526316 0.427378
vt 0.425837 -0.066986
vt 0.444976 -0.066986
vt 0.444976 0.427355
vt 0.425837 0.427361
vt 0.411483 -0.066986
vt 0.411483 0.427370
vt 0.392345 -0.066986
vt 0.392345 0.427378
vt 0.459330 -0.066986
vt 0.459330 0.427357
vt 0.478469 -0.066986
vt 0.478469 0.427364
vt -0.219526 1.005755
vt -0.222842 1.006414
vt -0.222835 0.964946
vt -0.219520 0.965606
vt -0.177647 1.074050
vt -0.206971 1.044727
vt -0.204160 1.042849
vt -0.175769 1.071239
vt -0.033035 0.928508
vt -0.030224 0.926630
vt -0.014361 0.964941
vt -0.017676 0.965601
vt -0.177643 0.897309
vt -0.139331 0.881439
vt -0.138671 0.884754
vt -0.175765 0.900120
vt -0.061433 0.900117
vt -0.059555 0.897306
vt -0.204162 0.928510
vt -0.206973 0.926632
vt -0.097865 0.881437
vt -0.098524 0.884753
vt -0.138671 1.086604
vt -0.139331 1.089920
vt -0.098517 1.086604
vt -0.061423 1.071238
vt -0.059545 1.074049
vt -0.097858 1.089920
vt -0.513395 0.494515
vt -0.500687 0.456433
vt -0.471796 0.468188
vt -0.483233 0.502462
vt -0.461204 0.761275
vt -0.483193 0.727683
vt -0.456051 0.712313
vt -0.436261 0.742546
vt -0.513395 0.653455
vt -0.521105 0.614052
vt -0.490171 0.610046
vt -0.483233 0.645509
vt -0.372222 0.841473
vt -0.405255 0.818645
vt -0.385907 0.794179
vt -0.356177 0.814725
vt -0.483193 0.420294
vt -0.456051 0.435663
vt -0.500689 0.691546
vt -0.471797 0.679790
vt -0.523689 0.573988
vt -0.521105 0.533924
vt -0.490172 0.537931
vt -0.492497 0.573988
vt -0.435080 0.791764
vt -0.412749 0.769987
vt -0.461204 0.386702
vt -0.436261 0.405430
vt -0.435080 0.356213
vt -0.405255 0.329332
vt -0.385907 0.353798
vt -0.412749 0.377990
vt -0.372222 0.306504
vt -0.356177 0.333252
vt -0.834791 0.558217
vt -0.837249 0.599610
vt -0.848067 0.599610
vt -0.845532 0.556937
vt -0.017676 1.005751
vt -0.014360 1.006411
vt -0.030222 1.044725
vt -0.033033 1.042847
vt -0.815330 0.477742
vt -0.827451 0.517396
vt -0.837965 0.514854
vt -0.825470 0.473973
vt -0.752324 0.371147
vt -0.777503 0.404097
vt -0.786472 0.398050
vt -0.760514 0.364081
vt -0.827451 0.681818
vt -0.815332 0.721482
vt -0.825471 0.725251
vt -0.837965 0.684361
vt -0.798602 0.759425
vt -0.777503 0.795124
vt -0.786472 0.801171
vt -0.808224 0.764368
vt -0.723422 0.857815
vt -0.691201 0.883926
vt -0.697501 0.892719
vt -0.730719 0.865800
vt -0.834791 0.641003
vt -0.845533 0.642283
vt -0.691201 0.315297
vt -0.723422 0.341408
vt -0.730719 0.333422
vt -0.697501 0.306504
vt -0.798602 0.439796
vt -0.808224 0.434853
vt -0.752324 0.828075
vt -0.760515 0.835141
vt 0.333299 -0.357716
vt 0.319470 -0.391100
vt 0.319476 -0.427235
vt 0.333299 -0.460621
vt 0.358856 -0.486171
vt 0.392241 -0.499999
vt 0.428374 -0.500000
vt 0.461755 -0.486172
vt 0.487313 -0.460619
vt 0.501135 -0.427236
vt 0.501135 -0.391100
vt 0.487313 -0.357714
vt 0.461761 -0.332163
vt 0.428377 -0.318334
vt 0.392238 -0.318335
vt 0.358850 -0.332164
vt 0.334193 0.068440
vt 0.334193 0.093369
vt 0.319470 0.093369
vt 0.319470 0.068440
vt -0.848066 0.935270
vt -0.848067 0.910340
vt -0.830439 0.892719
vt -0.805516 0.892719
vt -0.787889 0.910345
vt -0.787889 0.935272
vt -0.805521 0.952896
vt -0.830440 0.952898
vt 0.334193 0.043513
vt 0.319470 0.043513
vt 0.334193 0.118289
vt 0.319470 0.118289
vt 0.334193 -0.031262
vt 0.334193 -0.006338
vt 0.319470 -0.006338
vt 0.319470 -0.031262
vt 0.334193 0.018585
vt 0.319470 0.018585
vt 0.334193 0.143218
vt 0.319470 0.143218
vt -0.476272 0.970315
vt -0.492633 1.009813
vt -0.522864 1.040042
vt -0.562365 1.056403
vt -0.605121 1.056403
vt -0.644619 1.040041
vt -0.674848 1.009811
vt -0.691201 0.970311
vt -0.691200 0.927559
vt -0.674846 0.888063
vt -0.644608 0.857832
vt -0.605113 0.841473
vt -0.562365 0.841474
vt -0.522867 0.857836
vt -0.492630 0.888065
vt -0.476278 0.927565
vt 0.334193 -0.056192
vt 0.216580 0.651486
vt 0.190979 0.651079
vt 0.142591 0.763905
vt 0.160606 0.782250
vt 0.242945 0.661826
vt 0.219611 0.651871
vt 0.131612 0.737769
vt 0.141144 0.761677
vt 0.263189 0.681593
vt 0.245531 0.663368
vt 0.131196 0.709316
vt 0.130973 0.735010
vt 0.273933 0.708206
vt 0.264645 0.684507
vt 0.243872 0.783631
vt 0.261970 0.765701
vt 0.141751 0.682842
vt 0.131653 0.706400
vt 0.217642 0.794527
vt 0.241316 0.784965
vt 0.274287 0.736980
vt 0.274286 0.711475
vt 0.161686 0.662866
vt 0.143285 0.680607
vt 0.188988 0.794727
vt 0.214642 0.794797
vt 0.263771 0.763443
vt 0.273600 0.739961
vt 0.188091 0.651729
vt 0.164226 0.661236
vt 0.162528 0.783945
vt 0.186194 0.793887
vt 0.199910 0.434754
vt 0.199910 0.400410
vt 0.283702 0.434748
vt 0.283700 0.366062
vt 0.199910 0.331723
vt 0.283702 0.297248
vt 0.199910 0.503441
vt 0.199910 0.469098
vt 0.283711 0.503435
vt 0.326538 0.434754
vt 0.326538 0.503441
vt 0.199910 0.537785
vt 0.283692 0.640821
vt 0.283700 0.572129
vt 0.326538 0.572129
vt 0.326538 0.640816
vt 0.199910 0.640816
vt 0.199910 0.606472
vt 0.283716 0.781422
vt 0.283722 0.709643
vt 0.326538 0.709503
vt 0.326538 0.781422
vt 0.199910 0.780493
vt 0.199910 0.743542
vt 0.199910 0.675160
vt 0.326538 0.297379
vt 0.326538 0.366067
vt 0.199910 0.263341
vt 0.283708 0.225474
vt 0.199910 0.366067
vt 0.275851 0.346825
vt 0.262975 0.359773
vt 0.258396 0.357892
vt 0.273944 0.342257
vt 0.275974 0.390910
vt 0.294235 0.390859
vt 0.296142 0.395428
vt 0.274092 0.395489
vt 0.307060 0.359651
vt 0.294112 0.346774
vt 0.295994 0.342196
vt 0.311628 0.357744
vt 0.371094 0.477346
vt 0.394531 0.477346
vt 0.394531 0.489065
vt 0.371094 0.489065
vt 0.253906 0.477346
vt 0.277344 0.477346
vt 0.277344 0.489065
vt 0.253906 0.489065
vt 0.417969 0.477346
vt 0.441406 0.477346
vt 0.441406 0.489065
vt 0.417969 0.489065
vt 0.300781 0.477346
vt 0.324219 0.477346
vt 0.324219 0.489065
vt 0.300781 0.489065
vt 0.347656 0.477346
vt 0.347656 0.489065
vt 0.311690 0.379793
vt 0.307111 0.377911
vt 0.263026 0.378034
vt 0.258457 0.379941
vt 0.326538 0.225474
vt 0.326538 0.503441
vt 0.199910 0.297377
vt 0.199910 0.226404
vt 0.199910 0.709506
vt 0.199910 0.572129
vt 0.897531 0.366067
vt 0.971246 0.366067
vt 0.971246 0.400410
vt 0.897531 0.400410
vt 0.126195 0.366067
vt 0.199910 0.366067
vt 0.199910 0.400410
vt 0.126195 0.400410
vt 0.750101 0.434754
vt 0.823816 0.469098
vt 0.750101 0.503441
vt 0.823816 0.366067
vt 0.823816 0.400410
vt 0.077196 0.366067
vt 0.077196 0.400410
vt 0.897531 0.434754
vt 0.823816 0.434754
vt 0.126195 0.434754
vt 0.077196 0.434754
vt 0.750100 0.366067
vt 0.676385 0.400410
vt 0.971246 0.434754
vt 0.199910 0.434754
vt 0.897531 0.469098
vt 0.126195 0.469098
vt 0.077196 0.469098
vt 0.971246 0.469098
vt 0.199910 0.469098
vt 0.750101 0.572129
vt 0.676385 0.537785
vt 0.676385 0.469098
vt 0.971246 0.503441
vt 0.897531 0.503441
vt 0.199910 0.503441
vt 0.126195 0.503441
vt 0.823816 0.503441
vt 0.077196 0.503441
vt 0.971246 0.537785
vt 0.897531 0.537785
vt 0.199910 0.537785
vt 0.126195 0.537785
vt 0.823816 0.537785
vt 0.077196 0.537785
vt 0.897531 0.572129
vt 0.823816 0.572129
vt 0.126195 0.572129
vt 0.077196 0.572129
vt 0.823816 0.606472
vt 0.750101 0.640816
vt 0.971246 0.572129
vt 0.199910 0.572129
vt 0.126195 0.606472
vt 0.077196 0.606472
vt 0.676385 0.606472
vt 0.971246 0.606472
vt 0.897531 0.606472
vt 0.199910 0.606472
vt 0.750101 0.709503
vt 0.676385 0.675160
vt 0.971246 0.640816
vt 0.897531 0.640816
vt 0.199910 0.640816
vt 0.126195 0.640816
vt 0.823816 0.640816
vt 0.077196 0.640816
vt 0.199910 0.675160
vt 0.126195 0.675160
vt 0.823816 0.675160
vt 0.897531 0.675160
vt 0.077196 0.675160
vt 0.971246 0.675160
vt 0.897531 0.709503
vt 0.823816 0.709503
vt 0.126195 0.709503
vt 0.077196 0.709503
vt 0.823816 0.743847
vt 0.750101 0.778191
vt 0.971246 0.709503
vt 0.199910 0.709503
vt 0.971246 0.743847
vt 0.897531 0.743847
vt 0.199910 0.743847
vt 0.126195 0.743847
vt 0.750100 0.228692
vt 0.750100 0.297379
vt 0.676385 0.263036
vt 0.077196 0.743847
vt 0.676385 0.743847
vt 0.971246 0.778191
vt 0.897531 0.778191
vt 0.199910 0.778191
vt 0.126195 0.778191
vt 0.823816 0.778191
vt 0.077196 0.778191
vt 0.823816 0.263036
vt 0.823816 0.228692
vt 0.897531 0.228692
vt 0.897531 0.263036
vt 0.077196 0.228692
vt 0.126195 0.228692
vt 0.126195 0.263036
vt 0.077196 0.263036
vt 0.971246 0.228692
vt 0.971246 0.263036
vt 0.199910 0.228692
vt 0.199910 0.263036
vt 0.897531 0.297379
vt 0.823816 0.297379
vt 0.126195 0.297379
vt 0.077196 0.297379
vt 0.823816 0.331723
vt 0.971246 0.297379
vt 0.199910 0.297379
vt 0.971246 0.331723
vt 0.897531 0.331723
vt 0.199910 0.331723
vt 0.126195 0.331723
vt 0.077196 0.331723
vt 0.676385 0.331723
s 1
usemtl plastic_mp_3
f 1/1/1 19/2/1 26/3/1 15/4/1
f 32/5/1 20/6/1 4/7/1 14/8/1
f 3/9/1 25/10/1 23/11/1 6/12/1
f 27/13/1 28/14/1 5/15/1 2/16/1
f 3/9/1 11/17/1 24/18/1 25/10/1
f 27/13/1 2/16/1 16/19/1 18/20/1
f 15/4/1 26/3/1 18/20/1 16/19/1
f 5/15/1 28/14/1 17/21/1 13/22/1
f 13/22/1 17/21/1 24/18/1 11/17/1
f 14/8/1 7/23/1 21/24/1 32/5/1
f 12/25/1 10/26/1 30/27/1 31/28/1
f 3/29/2 6/30/3 51/31/3 60/32/2
f 1/33/4 15/34/5 61/35/5 56/36/4
f 2/37/6 5/38/7 55/39/7 58/40/6
f 7/41/8 14/42/9 50/43/10 49/44/8
f 6/30/3 9/45/11 52/46/11 51/31/3
f 15/34/5 16/47/12 64/48/12 61/35/5
f 13/49/13 11/50/14 59/51/14 54/52/13
f 4/53/15 1/33/4 56/36/4 57/54/15
f 9/45/11 8/55/16 53/56/16 52/46/11
f 10/57/17 12/58/18 63/59/19 62/60/17
f 14/42/9 4/53/15 57/54/15 50/43/10
f 11/50/14 3/29/2 60/32/2 59/51/14
f 12/58/18 7/61/8 49/62/8 63/59/19
f 8/55/16 10/57/17 62/60/17 53/56/16
f 16/47/12 2/37/6 58/40/6 64/48/12
f 5/38/7 13/49/13 54/52/13 55/39/7
f 4/7/1 20/6/1 19/2/1 1/1/1
f 24/63/20 17/64/21 33/65/21 40/66/20
f 9/67/1 22/68/1 29/69/1 8/70/1
f 10/26/1 8/70/1 29/69/1 30/27/1
f 6/12/1 23/11/1 22/68/1 9/67/1
f 12/25/1 31/28/1 21/24/1 7/23/1
f 23/71/22 25/72/23 41/73/23 39/74/22
f 30/75/24 29/76/25 45/77/25 46/78/24
f 27/79/26 18/80/27 34/81/27 43/82/26
f 25/72/23 24/63/20 40/66/20 41/73/23
f 26/83/28 19/84/29 35/85/29 42/86/28
f 32/87/30 21/88/31 37/89/31 48/90/30
f 28/91/32 27/79/26 43/82/26 44/92/32
f 21/93/31 31/94/33 47/95/33 37/96/31
f 30/75/24 46/78/24 47/95/33 31/94/33
f 22/97/34 23/71/22 39/74/22 38/98/34
f 20/99/35 32/87/30 48/90/30 36/100/35
f 18/80/27 26/83/28 42/86/28 34/81/27
f 29/76/25 22/97/34 38/98/34 45/77/25
f 19/84/29 20/99/35 36/100/35 35/85/29
f 28/91/32 44/92/32 33/65/21 17/64/21
f 57/101/1 56/102/1 61/103/1 64/104/1 58/105/1 55/106/1 54/107/1 59/108/1 60/109/1 51/110/1 52/111/1 53/112/1 62/113/1 63/114/1 49/115/1 50/116/1
f 71/117/36 68/118/37 74/119/37 78/120/36
f 73/121/1 76/122/1 79/123/1 77/124/1 75/125/1 78/126/1 74/127/1 80/128/1
f 66/129/38 71/117/36 78/120/36 75/130/38
f 68/118/37 67/131/39 80/132/39 74/119/37
f 70/133/40 65/134/41 79/135/41 76/136/40
f 72/137/42 66/129/38 75/130/38 77/138/42
f 67/131/39 69/139/43 73/140/43 80/132/39
f 65/134/41 72/137/42 77/138/42 79/135/41
f 69/141/43 70/133/40 76/136/40 73/142/43
f 111/143/44 95/144/44 96/145/43 112/146/43
f 86/147/1 87/148/1 100/149/1 99/150/1
f 126/151/1 127/152/1 102/153/1 101/154/1
f 120/155/1 81/156/1 89/157/1 88/158/1
f 81/156/1 121/159/1 90/160/1 89/157/1
f 121/159/1 82/161/1 91/162/1 90/160/1
f 82/161/1 122/163/1 92/164/1 91/162/1
f 122/165/1 123/166/1 93/167/1 92/164/1
f 123/166/1 124/168/1 94/169/1 93/167/1
f 124/168/1 125/170/1 95/171/1 94/169/1
f 125/170/1 83/172/1 96/173/1 95/171/1
f 83/172/1 84/174/1 97/175/1 96/173/1
f 84/174/1 85/176/1 98/177/1 97/175/1
f 85/176/1 86/147/1 99/150/1 98/177/1
f 128/178/1 120/155/1 88/158/1 103/179/1
f 87/148/1 126/151/1 101/154/1 100/149/1
f 127/152/1 128/178/1 103/179/1 102/153/1
f 106/180/42 90/181/42 91/182/45 107/183/45
f 112/184/43 96/185/43 97/186/46 113/187/46
f 104/188/38 88/189/38 89/190/47 105/191/47
f 109/192/48 93/193/48 94/194/40 110/195/40
f 116/196/37 100/197/37 101/198/49 117/199/49
f 110/200/40 94/201/40 95/202/44 111/203/44
f 117/204/49 101/205/49 102/206/50 118/207/50
f 108/208/51 92/209/51 93/210/48 109/192/48
f 115/211/52 99/212/52 100/197/37 116/196/37
f 114/213/39 98/214/39 99/212/52 115/215/52
f 107/216/45 91/217/45 92/218/51 108/219/51
f 113/187/46 97/220/46 98/214/39 114/221/39
f 118/222/50 102/223/50 103/224/53 119/225/53
f 119/225/53 103/226/53 88/227/38 104/188/38
f 105/191/47 89/228/47 90/229/42 106/180/42
f 288/230/54 279/231/55 126/232/56 87/233/57
f 277/234/58 278/235/59 125/236/60 124/237/61
f 273/238/62 282/239/63 81/240/64 120/241/65
f 279/231/55 280/242/66 127/243/67 126/244/56
f 278/235/59 284/245/68 83/246/69 125/247/60
f 282/239/63 274/248/70 121/249/71 81/250/64
f 280/242/66 281/251/72 128/252/73 127/253/67
f 284/245/68 285/254/74 84/255/75 83/256/69
f 281/251/72 273/238/62 120/257/65 128/258/73
f 274/248/70 283/259/76 82/260/77 121/261/71
f 285/254/74 286/262/78 85/263/79 84/264/75
f 283/259/76 275/265/80 122/266/81 82/267/77
f 286/262/78 287/268/82 86/269/83 85/270/79
f 275/265/80 276/271/84 123/272/85 122/273/81
f 287/268/82 288/230/54 87/274/57 86/275/83
f 130/276/86 129/277/87 144/278/88 143/279/89 142/280/90 141/281/91 140/282/92 139/283/93 138/284/94 137/285/95 136/286/96 135/287/97 134/288/98 133/289/99 132/290/100 131/291/101
f 276/271/84 277/234/58 124/292/61 123/293/85
f 161/294/53 145/295/53 146/296/38 162/297/38
f 176/298/50 160/299/50 145/295/53 161/294/53
f 175/300/49 159/301/49 160/299/50 176/298/50
f 173/302/52 157/303/52 158/304/37 174/305/37
f 160/306/1 159/307/1 158/308/1 157/309/1 156/310/1 155/311/1 154/312/1 153/313/1 152/314/1 151/315/1 150/316/1 149/317/1 148/318/1 147/319/1 146/320/1 145/321/1
f 163/322/47 147/323/47 148/324/42 164/325/42
f 174/305/37 158/304/37 159/301/49 175/300/49
f 169/326/44 153/327/44 154/328/43 170/329/43
f 162/297/38 146/296/38 147/323/47 163/322/47
f 171/330/46 155/331/46 156/332/39 172/333/39
f 168/334/40 152/335/40 153/327/44 169/326/44
f 170/336/43 154/337/43 155/331/46 171/330/46
f 164/325/42 148/324/42 149/338/45 165/339/45
f 172/333/39 156/332/39 157/303/52 173/302/52
f 167/340/48 166/341/51 150/342/51 151/343/48
f 165/339/45 149/338/45 150/342/51 166/341/51
f 167/340/48 151/343/48 152/335/40 168/334/40
f 104/344/102 105/345/102 106/346/102 107/347/102 108/348/102 109/349/102 110/350/102 111/351/102 112/352/102 113/353/102 114/354/102 115/355/102 116/356/102 117/357/102 118/358/102 119/359/102
f 190/360/103 188/361/104 180/362/40 182/363/51
f 180/362/40 188/361/104 187/364/105 179/365/43
f 186/366/106 192/367/36 184/368/50 178/369/37
f 191/370/107 186/366/106 178/369/37 183/371/39
f 187/372/105 191/370/107 183/371/39 179/373/43
f 192/367/36 185/374/108 177/375/38 184/368/50
f 185/374/108 189/376/109 181/377/42 177/375/38
f 189/376/109 190/360/103 182/363/51 181/377/42
f 193/378/102 211/379/102 218/380/102 207/381/102
f 224/382/102 212/383/102 196/384/102 206/385/102
f 195/386/102 217/387/102 215/388/102 198/389/102
f 219/390/102 220/391/102 197/392/102 194/393/102
f 195/386/102 203/394/102 216/395/102 217/387/102
f 219/390/102 194/393/102 208/396/102 210/397/102
f 207/381/102 218/380/102 210/397/102 208/396/102
f 197/392/102 220/391/102 209/398/102 205/399/102
f 205/399/102 209/398/102 216/395/102 203/394/102
f 206/385/102 199/400/102 213/401/102 224/382/102
f 204/402/102 202/403/102 222/404/102 223/405/102
f 195/406/110 198/407/111 243/408/111 252/409/110
f 193/410/112 207/411/113 253/412/113 248/413/112
f 194/414/114 197/415/115 247/416/115 250/417/114
f 199/418/116 206/419/117 242/420/118 241/421/116
f 198/407/111 201/422/119 244/423/119 243/408/111
f 207/411/113 208/424/120 256/425/120 253/412/113
f 205/426/121 203/427/122 251/428/122 246/429/121
f 196/430/123 193/410/112 248/413/112 249/431/123
f 201/422/119 200/432/124 245/433/124 244/423/119
f 202/434/125 204/435/126 255/436/127 254/437/125
f 206/419/117 196/430/123 249/431/123 242/420/118
f 203/427/122 195/406/110 252/409/110 251/428/122
f 204/435/126 199/438/116 241/439/116 255/436/127
f 200/432/124 202/434/125 254/437/125 245/433/124
f 208/424/120 194/414/114 250/417/114 256/425/120
f 197/415/115 205/426/121 246/429/121 247/416/115
f 196/384/102 212/383/102 211/379/102 193/378/102
f 216/440/128 209/441/129 225/442/129 232/443/128
f 201/444/102 214/445/102 221/446/102 200/447/102
f 202/403/102 200/447/102 221/446/102 222/404/102
f 198/389/102 215/388/102 214/445/102 201/444/102
f 204/402/102 223/405/102 213/401/102 199/400/102
f 215/448/130 217/449/131 233/450/131 231/451/130
f 222/452/132 221/453/133 237/454/133 238/455/132
f 219/456/134 210/457/135 226/458/135 235/459/134
f 217/449/131 216/440/128 232/443/128 233/450/131
f 218/460/136 211/461/137 227/462/137 234/463/136
f 224/464/138 213/465/139 229/466/139 240/467/138
f 220/468/140 219/456/134 235/459/134 236/469/140
f 213/470/139 223/471/141 239/472/141 229/473/139
f 222/452/132 238/455/132 239/472/141 223/471/141
f 214/474/142 215/448/130 231/451/130 230/475/142
f 212/476/143 224/464/138 240/467/138 228/477/143
f 210/457/135 218/460/136 234/463/136 226/458/135
f 221/453/133 214/474/142 230/475/142 237/454/133
f 211/461/137 212/476/143 228/477/143 227/462/137
f 220/468/140 236/469/140 225/442/129 209/441/129
f 249/478/102 248/479/102 253/480/102 256/481/102 250/482/102 247/483/102 246/484/102 251/485/102 252/486/102 243/487/102 244/488/102 245/489/102 254/490/102 255/491/102 241/492/102 242/493/102
f 263/494/144 260/495/51 266/496/51 270/497/144
f 265/498/102 268/499/102 271/500/102 269/501/102 267/502/102 270/503/102 266/504/102 272/505/102
f 258/506/38 263/494/144 270/497/144 267/507/145
f 260/495/51 259/508/40 272/509/40 266/496/51
f 262/510/39 257/511/146 271/512/146 268/513/39
f 264/514/50 258/506/38 267/507/145 269/515/50
f 259/508/40 261/516/43 265/517/43 272/509/40
f 257/511/146 264/514/50 269/515/50 271/512/146
f 227/518/1 228/519/1 240/520/1 229/521/1 239/522/1 238/523/1 237/524/1 230/525/1 231/526/1 233/527/1 232/528/1 225/529/1 236/530/1 235/531/1 226/532/1 234/533/1
f 261/534/43 262/510/39 268/513/39 265/337/43
f 134/535/98 135/536/97 277/234/58 276/271/84
f 140/537/92 141/538/91 288/230/54 287/268/82
f 133/539/99 134/540/98 276/271/84 275/265/80
f 139/541/93 140/542/92 287/268/82 286/262/78
f 132/543/100 133/544/99 275/265/80 283/259/76
f 138/545/94 139/546/93 286/262/78 285/254/74
f 131/547/101 132/548/100 283/259/76 274/248/70
f 144/549/88 129/550/87 273/238/62 281/251/72
f 137/551/95 138/552/94 285/254/74 284/245/68
f 143/553/89 144/554/88 281/251/72 280/242/66
f 130/555/86 131/556/101 274/248/70 282/239/63
f 136/557/96 137/558/95 284/245/68 278/235/59
f 142/559/90 143/560/89 280/242/66 279/231/55
f 129/561/87 130/562/86 282/239/63 273/238/62
f 135/563/97 136/564/96 278/235/59 277/234/58
f 141/565/91 142/566/90 279/231/55 288/230/54
f 315/597/1 311/598/1 329/599/1 317/600/1
f 304/601/1 300/602/1 323/603/1 325/604/1
f 293/605/1 289/606/1 318/607/1 319/608/1
f 321/609/176 319/610/177 320/611/177 322/612/176
f 317/613/178 329/614/179 330/615/179 331/616/178
f 318/617/180 317/618/178 331/619/178 332/620/180
f 327/621/181 325/622/182 326/623/182 328/624/181
f 325/622/182 323/625/183 324/626/183 326/623/182
f 323/625/183 321/609/176 322/612/176 324/626/183
f 293/605/1 319/608/1 321/627/1 297/628/1
f 307/629/1 304/601/1 325/604/1 327/630/1
f 289/606/1 315/597/1 317/600/1 318/607/1
f 329/614/179 327/621/181 328/624/181 330/615/179
f 307/629/1 327/630/1 329/599/1 311/598/1
f 300/602/1 297/628/1 321/627/1 323/603/1
f 319/610/177 318/617/180 332/620/180 320/611/177
usemtl lamp_1_off
f 291/567/147 337/568/148 290/569/149
f 316/570/150 314/571/151 312/572/152
f 290/569/149 337/568/148 316/570/150
f 295/573/153 292/574/154 294/575/155
f 289/576/156 293/577/157 294/575/155 290/569/149
f 296/578/158 295/573/153 294/575/155
f 301/579/159 298/580/160 297/581/161 300/582/162
f 302/583/163 299/584/164 301/579/159
f 294/575/155 298/580/160 296/578/158
f 298/580/160 301/579/159 299/584/164
f 308/585/165 305/586/166 304/587/167 307/588/168
f 309/589/169 306/590/170 308/585/165
f 305/586/166 303/591/171 301/579/159
f 305/586/166 308/585/165 306/590/170
f 316/570/150 312/572/152 311/592/172 315/593/173
f 312/572/152 310/594/174 308/595/165
f 407/596/175 314/571/151 316/570/150
f 337/568/148 407/596/175 316/570/150
f 290/569/149 316/570/150 315/593/173 289/576/156
f 307/631/168 311/592/172 312/572/152 308/595/165
f 300/582/162 304/587/167 305/586/166 301/579/159
f 293/632/157 297/581/161 298/580/160 294/575/155
f 290/569/149 294/575/155 292/574/154
f 312/572/152 314/571/151 313/633/184
f 308/595/165 310/594/174 309/634/169
f 310/594/174 312/572/152 313/633/184
f 306/590/170 409/635/185 305/586/166
f 301/579/159 303/591/171 302/583/163
f 299/584/164 360/636/186 298/580/160
f 303/591/171 305/586/166 409/635/185
f 296/578/158 298/580/160 360/636/186
f 292/574/154 291/567/147 290/569/149
f 335/637/187 334/638/38 339/639/53 340/640/188
f 333/641/189 407/642/175 337/643/148 338/644/190
f 346/645/191 350/646/192 355/647/193
f 408/648/194 335/637/187 340/640/188 341/649/195
f 334/650/38 333/641/189 338/644/190 339/651/53
f 341/649/195 340/640/188 344/652/196 345/653/197
f 339/651/53 338/644/190 342/654/198 343/655/50
f 336/656/199 346/645/191 375/657/1
f 340/640/188 339/639/53 343/658/50 344/652/196
f 338/644/190 337/643/148 291/659/147 342/654/198
f 345/653/197 344/652/196 349/660/200 350/646/192
f 343/655/50 342/654/198 347/661/201 348/662/49
f 344/652/196 343/658/50 348/663/49 349/660/200
f 342/654/198 291/659/147 292/664/154 347/661/201
f 355/647/193 365/665/202 375/666/1
f 346/645/191 355/647/193 375/667/1
f 349/660/200 348/663/49 352/668/37 353/669/203
f 347/661/201 292/664/154 295/670/153 351/671/204
f 350/646/192 349/660/200 353/669/203 354/672/205
f 348/662/49 347/661/201 351/671/204 352/673/37
f 353/669/203 352/668/37 357/674/52 358/675/206
f 351/671/204 295/670/153 296/676/158 356/677/207
f 355/647/193 359/678/208 365/665/202
f 354/672/205 353/669/203 358/675/206 359/678/208
f 352/673/37 351/671/204 356/677/207 357/679/52
f 355/647/193 354/672/205 359/678/208
f 359/678/208 358/675/206 363/680/209 364/681/210
f 357/679/52 356/677/207 361/682/211 362/683/39
f 369/684/212 374/685/213 365/665/202
f 358/675/206 357/674/52 362/686/39 363/680/209
f 356/677/207 296/676/158 360/687/186 361/682/211
f 362/683/39 361/682/211 366/688/214 367/689/46
f 365/665/202 374/685/213 375/690/1
f 363/680/209 362/686/39 367/691/46 368/692/215
f 361/682/211 360/687/186 299/693/164 366/688/214
f 374/685/213 384/694/216 375/695/1
f 364/681/210 363/680/209 368/692/215 369/684/212
f 368/692/215 367/691/46 371/696/43 372/697/217
f 366/688/214 299/693/164 302/698/163 370/699/218
f 369/684/212 368/692/215 372/697/217 373/700/219
f 367/689/46 366/688/214 370/699/218 371/701/43
f 370/699/218 302/698/163 303/702/171 376/703/220
f 374/685/213 379/704/221 384/694/216
f 373/700/219 372/697/217 378/705/222 379/704/221
f 371/701/43 370/699/218 376/703/220 377/706/44
f 374/685/213 373/700/219 379/704/221
f 372/697/217 371/696/43 377/707/44 378/705/222
f 379/704/221 378/705/222 382/708/223 383/709/224
f 377/706/44 376/703/220 380/710/225 381/711/40
f 384/694/216 388/712/226 393/713/227
f 378/705/222 377/707/44 381/714/40 382/708/223
f 376/703/220 303/702/171 409/715/185 380/710/225
f 382/708/223 381/714/40 386/716/48 387/717/228
f 380/710/225 409/715/185 306/718/170 385/719/229
f 393/720/227 402/721/230 375/722/1
f 383/709/224 382/708/223 387/717/228 388/712/226
f 381/711/40 380/710/225 385/719/229 386/723/48
f 384/694/216 393/713/227 375/724/1
f 387/717/228 386/716/48 390/725/51 391/726/231
f 385/719/229 306/718/170 309/727/169 389/728/232
f 388/712/226 387/717/228 391/726/231 392/729/233
f 386/723/48 385/719/229 389/728/232 390/730/51
f 393/720/227 397/731/234 402/721/230
f 392/732/233 391/733/231 396/734/235 397/731/234
f 390/735/51 389/736/232 394/737/236 395/738/45
f 393/720/227 392/732/233 397/731/234
f 391/733/231 390/739/51 395/740/45 396/734/235
f 389/736/232 309/741/169 310/742/174 394/737/236
f 397/731/234 396/734/235 400/743/237 401/744/238
f 395/738/45 394/737/236 398/745/239 399/746/42
f 402/721/230 406/747/240 336/656/199
f 396/734/235 395/740/45 399/748/42 400/743/237
f 394/737/236 310/742/174 313/749/184 398/745/239
f 400/743/237 399/748/42 404/750/47 405/751/241
f 398/745/239 313/749/184 314/752/151 403/753/242
f 401/744/238 400/743/237 405/751/241 406/747/240
f 399/746/42 398/745/239 403/753/242 404/754/47
f 405/751/241 404/750/47 334/638/38 335/637/187
f 403/753/242 314/752/151 407/642/175 333/641/189
f 406/747/240 405/751/241 335/637/187 408/648/194
f 404/754/47 403/753/242 333/641/189 334/650/38
f 402/721/230 336/656/199 375/755/1
f 336/656/199 341/649/195 346/645/191
f 346/645/191 341/649/195 345/653/197
f 341/649/195 336/656/199 408/648/194
f 336/656/199 406/747/240 408/648/194
f 406/747/240 402/721/230 401/744/238
f 393/713/227 388/712/226 392/729/233
f 402/721/230 397/731/234 401/744/238
f 388/712/226 384/694/216 383/709/224
f 384/694/216 379/704/221 383/709/224
f 369/684/212 365/665/202 364/681/210
f 374/685/213 369/684/212 373/700/219
f 355/647/193 350/646/192 354/672/205
f 350/646/192 346/645/191 345/653/197
f 365/665/202 359/678/208 364/681/210
o ceiling_fan_mp_1_1_light_off_blades
v -0.017567 -0.037681 0.598798
v 0.000755 -0.032771 0.601068
v 0.019067 -0.027865 0.598706
v -0.019042 -0.032178 0.598798
v -0.000719 -0.027268 0.601068
v 0.017592 -0.022361 0.598706
v 0.053285 -0.018696 0.545710
v 0.030396 -0.024829 0.591446
v 0.047306 -0.020298 0.571509
v -0.028930 -0.040725 0.591595
v -0.051733 -0.046835 0.545993
v -0.045845 -0.045258 0.571749
v 0.028921 -0.019326 0.591446
v 0.051811 -0.013193 0.545710
v 0.045831 -0.014795 0.571509
v -0.053208 -0.041332 0.545993
v -0.030405 -0.035222 0.591595
v -0.047320 -0.039755 0.571749
v -0.015174 -0.010210 0.058115
v -0.015174 0.001790 0.058115
v 0.014826 -0.002093 0.058115
v 0.014826 0.009763 0.058115
v -0.000174 -0.036152 0.207141
v -0.015174 -0.040210 0.192141
v -0.015174 -0.028210 0.192141
v 0.014826 -0.032093 0.192141
v -0.000174 -0.024224 0.207141
v 0.014826 -0.020237 0.192141
v -0.015174 -0.040210 0.135128
v -0.015174 -0.028210 0.135128
v 0.014826 -0.032093 0.135128
v 0.014826 -0.020237 0.135128
v -0.015174 0.001790 0.086622
v -0.015174 -0.010210 0.086622
v 0.014826 0.009763 0.086622
v 0.014826 -0.002093 0.086622
v 0.025801 -0.026060 0.147139
v 0.037870 -0.022826 0.159110
v -0.036523 -0.042760 0.159233
v -0.024460 -0.039528 0.147224
v 0.036395 -0.017323 0.159110
v 0.024326 -0.020557 0.147139
v -0.025935 -0.034024 0.147224
v -0.037998 -0.037257 0.159233
v 0.000000 0.014600 -0.066981
v -0.061884 0.014600 -0.025633
v -0.061884 0.014600 0.025631
v -0.047364 0.014600 0.047361
v 0.000000 0.014600 0.066979
v 0.066978 0.014600 -0.000001
v 0.061880 0.014600 -0.025633
v 0.025630 0.014600 -0.061883
v 0.047365 0.014600 -0.047363
v -0.066978 0.014600 -0.000001
v -0.047360 0.014600 -0.047363
v -0.025630 0.014600 -0.061883
v 0.061884 0.014600 0.025631
v 0.047365 0.014600 0.047361
v 0.025635 0.014600 0.061881
v -0.025634 0.014600 0.061881
v -0.061884 -0.013732 0.025631
v -0.047364 -0.013732 0.047361
v 0.061884 -0.013732 0.025631
v 0.066978 -0.013732 -0.000001
v 0.047365 -0.013732 0.047361
v 0.061880 -0.013732 -0.025633
v 0.047365 -0.013732 -0.047363
v 0.025630 -0.013732 -0.061883
v 0.025635 -0.013732 0.061881
v 0.000000 -0.013732 0.066979
v 0.000000 -0.013732 -0.066981
v -0.025634 -0.013732 0.061881
v -0.025630 -0.013732 -0.061883
v -0.047360 -0.013732 -0.047363
v -0.061884 -0.013732 -0.025633
v -0.066978 -0.013732 -0.000001
v -0.058008 0.014600 0.033490
v 0.008743 0.014600 0.066409
v 0.053139 0.014600 0.040777
v 0.064698 0.014600 0.017338
v 0.058006 0.014600 -0.033490
v -0.033490 0.014600 -0.058004
v -0.053139 0.014600 -0.040773
v -0.066407 0.014600 0.008745
v -0.064700 0.014600 -0.017337
v 0.033488 0.014600 0.058005
v -0.017338 0.014600 0.064696
v -0.040777 0.014600 0.053137
v -0.008745 0.014600 -0.066409
v 0.017334 0.014600 -0.064700
v 0.040773 0.014600 -0.053141
v 0.066407 0.014600 -0.008740
v 0.053139 -0.013732 0.040777
v 0.064698 -0.013732 0.017338
v -0.008745 -0.013732 -0.066409
v -0.033490 -0.013732 -0.058004
v 0.017334 -0.013732 -0.064700
v -0.053139 -0.013732 -0.040773
v -0.064700 -0.013732 -0.017337
v -0.066407 -0.013732 0.008745
v 0.040773 -0.013732 -0.053141
v 0.058006 -0.013732 -0.033490
v -0.058008 -0.013732 0.033490
v 0.066407 -0.013732 -0.008740
v -0.040777 -0.013732 0.053137
v -0.017338 -0.013732 0.064696
v 0.008743 -0.013732 0.066409
v 0.033488 -0.013732 0.058005
v 0.058007 0.014600 0.033491
v 0.053141 0.014600 -0.040776
v 0.008745 0.014600 -0.066408
v -0.017334 0.014600 -0.064699
v -0.058006 0.014600 -0.033489
v -0.033488 0.014600 0.058005
v -0.008741 0.014600 0.066406
v 0.040777 0.014600 0.053138
v 0.017335 0.014600 0.064701
v 0.033490 0.014600 -0.058004
v 0.064698 0.014600 -0.017333
v 0.066407 0.014600 0.008745
v -0.053139 0.014600 0.040778
v -0.064698 0.014600 0.017339
v -0.066408 0.014600 -0.008740
v -0.040773 0.014600 -0.053140
v 0.008745 -0.013732 -0.066408
v -0.017334 -0.013732 -0.064699
v -0.053139 -0.013732 0.040778
v -0.033488 -0.013732 0.058005
v -0.064698 -0.013732 0.017338
v -0.008741 -0.013732 0.066406
v 0.017335 -0.013732 0.064701
v 0.040777 -0.013732 0.053138
v -0.066408 -0.013732 -0.008740
v -0.058006 -0.013732 -0.033489
v 0.058007 -0.013732 0.033491
v -0.040773 -0.013732 -0.053140
v 0.066407 -0.013732 0.008745
v 0.064698 -0.013732 -0.017333
v 0.053141 -0.013732 -0.040776
v 0.033490 -0.013732 -0.058004
v -0.509791 -0.037681 -0.314613
v -0.520918 -0.032771 -0.299880
v -0.528028 -0.027865 -0.282841
v -0.509053 -0.032178 -0.315890
v -0.520180 -0.027268 -0.301157
v -0.527291 -0.022361 -0.284118
v -0.499241 -0.018696 -0.226708
v -0.527405 -0.024829 -0.269399
v -0.518594 -0.020298 -0.244787
v -0.497871 -0.040725 -0.320851
v -0.446977 -0.046835 -0.317799
v -0.472227 -0.045258 -0.325578
v -0.526668 -0.019326 -0.270677
v -0.498504 -0.013193 -0.227985
v -0.517857 -0.014795 -0.246064
v -0.446240 -0.041332 -0.319076
v -0.497134 -0.035222 -0.322129
v -0.471489 -0.039755 -0.326855
v -0.042742 -0.010210 -0.042199
v -0.042742 0.001790 -0.042199
v -0.057742 -0.002093 -0.016218
v -0.057742 0.009763 -0.016218
v -0.179302 -0.036152 -0.103721
v -0.158812 -0.040210 -0.109212
v -0.158812 -0.028210 -0.109212
v -0.173812 -0.032093 -0.083231
v -0.179302 -0.024224 -0.103721
v -0.173812 -0.020237 -0.083231
v -0.109437 -0.040210 -0.080705
v -0.109437 -0.028210 -0.080705
v -0.124437 -0.032093 -0.054725
v -0.124437 -0.020237 -0.054725
v -0.067429 0.001790 -0.056452
v -0.067429 -0.010210 -0.056452
v -0.082429 0.009763 -0.030471
v -0.082429 -0.002093 -0.030471
v -0.140327 -0.026060 -0.051226
v -0.156728 -0.022826 -0.046759
v -0.119638 -0.042760 -0.111246
v -0.115269 -0.039528 -0.094795
v -0.155991 -0.017323 -0.048036
v -0.139589 -0.020557 -0.052503
v -0.114532 -0.034024 -0.096072
v -0.118901 -0.037257 -0.112523
v 0.527358 -0.037681 -0.284185
v 0.520163 -0.032771 -0.301188
v 0.508961 -0.027865 -0.315865
v 0.528095 -0.032178 -0.282908
v 0.520900 -0.027268 -0.299911
v 0.509698 -0.022361 -0.314588
v 0.445956 -0.018696 -0.319001
v 0.497009 -0.024829 -0.322046
v 0.471289 -0.020298 -0.326723
v 0.526801 -0.040725 -0.270743
v 0.498711 -0.046835 -0.228194
v 0.518072 -0.045258 -0.246171
v 0.497747 -0.019326 -0.320769
v 0.446693 -0.013193 -0.317724
v 0.472026 -0.014795 -0.325445
v 0.499448 -0.041332 -0.226917
v 0.527538 -0.035222 -0.269466
v 0.518809 -0.039755 -0.244894
v 0.057916 -0.010210 -0.015916
v 0.057916 0.001790 -0.015916
v 0.042916 -0.002093 -0.041897
v 0.042916 0.009763 -0.041897
v 0.179476 -0.036152 -0.103419
v 0.173986 -0.040210 -0.082929
v 0.173986 -0.028210 -0.082929
v 0.158986 -0.032093 -0.108910
v 0.179476 -0.024224 -0.103419
v 0.158986 -0.020237 -0.108910
v 0.124611 -0.040210 -0.054423
v 0.124611 -0.028210 -0.054423
v 0.109611 -0.032093 -0.080403
v 0.109611 -0.020237 -0.080403
v 0.082604 0.001790 -0.030169
v 0.082604 -0.010210 -0.030169
v 0.067604 0.009763 -0.056150
v 0.067604 -0.002093 -0.056150
v 0.114526 -0.026060 -0.095914
v 0.118858 -0.022826 -0.112351
v 0.156161 -0.042760 -0.047987
v 0.139730 -0.039528 -0.052428
v 0.119595 -0.017323 -0.111074
v 0.115263 -0.020557 -0.094637
v 0.140467 -0.034024 -0.051151
v 0.156899 -0.037257 -0.046710
vn -0.2588 0.9659 -0.0000
vn -0.3169 -0.0849 0.9446
vn -0.6212 -0.1665 0.7657
vn 0.3213 0.0861 0.9430
vn 0.0023 0.0006 1.0000
vn 0.6239 0.1672 0.7634
vn -0.8578 -0.2298 0.4597
vn -0.9615 -0.2576 0.0957
vn 0.9614 0.2576 0.0970
vn 0.8576 0.2298 0.4600
vn 0.2588 -0.9659 -0.0000
vn -0.2568 0.9665 -0.0000
vn 0.2612 -0.9653 -0.0000
vn 1.0000 -0.0000 -0.0000
vn -1.0000 -0.0000 -0.0000
vn -0.7071 -0.0000 0.7071
vn 0.7071 -0.0000 0.7071
vn 0.2242 -0.8288 -0.5126
vn -0.2205 0.8296 0.5131
vn -0.6695 -0.1794 -0.7208
vn 0.6682 0.1790 -0.7221
vn -0.0016 -0.0004 -1.0000
vn 0.9651 0.2586 -0.0412
vn -0.9651 -0.2586 -0.0407
vn -0.7071 -0.0000 -0.7072
vn -0.3827 -0.0000 -0.9239
vn 0.7071 -0.0000 -0.7071
vn 0.9239 -0.0000 -0.3826
vn 1.0000 -0.0000 -0.0001
vn 0.9239 -0.0000 0.3826
vn -0.0000 -0.0000 1.0000
vn -0.3827 -0.0000 0.9239
vn -0.0000 -0.0000 -1.0000
vn 0.3826 -0.0000 -0.9239
vn -0.9239 -0.0000 -0.3827
vn 0.3827 -0.0000 0.9239
vn -0.9239 -0.0000 0.3826
vn -0.2589 -0.0000 0.9659
vn -0.6088 -0.0000 0.7934
vn -0.9659 -0.0000 -0.2588
vn -0.7933 -0.0000 -0.6088
vn -0.5001 -0.0000 -0.8660
vn -0.1306 -0.0000 -0.9914
vn 0.8660 -0.0000 -0.5000
vn 0.9914 -0.0000 -0.1305
vn 0.2588 -0.0000 -0.9659
vn -0.8660 -0.0000 0.5000
vn 0.9659 -0.0000 0.2588
vn -0.9914 -0.0000 0.1306
vn 0.1305 -0.0000 0.9914
vn 0.6088 -0.0000 -0.7933
vn 0.7933 -0.0000 0.6088
vn 0.5000 -0.0000 0.8660
vn 0.9659 -0.0000 -0.2587
vn 0.9914 -0.0000 0.1305
vn 0.2588 -0.0000 0.9659
vn -0.1306 -0.0000 0.9914
vn -0.4999 -0.0000 0.8661
vn -0.7933 -0.0000 0.6088
vn -0.8660 -0.0000 -0.5000
vn -0.6088 -0.0000 -0.7933
vn -0.9659 -0.0000 0.2588
vn 0.8660 -0.0000 0.5000
vn -0.2588 -0.0000 -0.9659
vn 0.6088 -0.0000 0.7933
vn 0.7933 -0.0000 -0.6088
vn -0.9914 -0.0000 -0.1305
vn 0.1306 -0.0000 -0.9914
vn 0.5000 -0.0000 -0.8660
vn 0.1294 0.9659 -0.2241
vn 0.1294 0.9659 -0.2242
vn -0.6596 -0.0849 -0.7468
vn -0.3525 -0.1665 -0.9209
vn -0.9774 0.0861 -0.1932
vn -0.8672 0.0006 -0.4980
vn -0.9731 0.1672 0.1586
vn 0.0308 -0.2298 -0.9727
vn 0.3979 -0.2576 -0.8805
vn -0.5647 0.2576 0.7841
vn -0.8272 0.2298 0.5127
vn -0.1294 -0.9659 0.2241
vn 0.1284 0.9665 -0.2224
vn -0.1306 -0.9653 0.2262
vn -0.5000 -0.0000 0.8660
vn 0.3318 -0.8288 0.4505
vn -0.3341 0.8296 -0.4475
vn 0.9590 -0.1794 -0.2194
vn 0.2913 0.1790 0.9397
vn 0.8668 -0.0004 0.4986
vn -0.4468 0.2586 0.8564
vn 0.5178 -0.2586 -0.8155
vn 0.1294 0.9659 0.2241
vn 0.9765 -0.0849 -0.1979
vn 0.9738 -0.1665 0.1551
vn 0.9738 -0.1665 0.1552
vn 0.6560 0.0861 -0.7498
vn 0.8649 0.0006 -0.5020
vn 0.3492 0.1672 -0.9220
vn 0.8270 -0.2298 0.5130
vn 0.5636 -0.2576 0.7848
vn -0.3967 0.2576 -0.8811
vn -0.0304 0.2298 -0.9728
vn -0.1294 -0.9659 -0.2241
vn 0.1284 0.9665 0.2224
vn -0.1306 -0.9653 -0.2262
vn -0.5000 -0.0000 -0.8660
vn -0.5561 -0.8288 0.0621
vn 0.5546 0.8296 -0.0656
vn -0.2894 -0.1794 0.9402
vn -0.9595 0.1790 -0.2176
vn -0.8652 -0.0004 0.5014
vn -0.5183 0.2586 -0.8152
vn 0.4473 -0.2586 0.8562
vt 0.488324 0.039556
vt 0.483947 0.097967
vt 0.482569 0.068494
vt 0.444772 0.662907
vt 0.444772 0.671706
vt 0.432876 0.671706
vt 0.432876 0.662907
vt 0.486007 0.662907
vt 0.486007 0.671707
vt 0.465386 0.671706
vt 0.465386 0.662907
vt 0.497941 0.662907
vt 0.497941 0.671707
vt 0.399569 0.671706
vt 0.399569 0.662907
vt 0.362318 0.671706
vt 0.362318 0.662907
vt 0.568805 0.662908
vt 0.568804 0.671707
vt 0.531416 0.671707
vt 0.531416 0.662907
vt 1.240465 -0.295330
vt 1.246221 -0.266392
vt 1.244843 -0.236919
vt 0.573912 -0.009095
vt 0.561336 0.158347
vt 0.522343 0.146081
vt 0.533481 -0.002440
vt 0.493729 0.116891
vt 0.500817 0.022300
vt 1.227970 -0.312584
vt 1.235058 -0.217994
vt 1.195307 -0.337325
vt 1.206444 -0.188803
vt 1.154875 -0.343980
vt 1.167451 -0.176538
vt 0.529571 0.320974
vt 0.470597 0.320974
vt 0.500084 0.290974
vt 0.470678 0.320974
vt 0.529454 0.320974
vt 0.500066 0.290974
vt 0.436754 0.519891
vt 0.340974 0.519708
vt 0.340974 0.500011
vt 0.436111 0.507119
vt 0.532013 0.480000
vt 0.532013 0.504000
vt 0.589026 0.504000
vt 0.589025 0.480000
vt 0.520000 0.488117
vt 0.520000 0.511973
vt 0.490000 0.504000
vt 0.490000 0.480000
vt 0.310974 0.514171
vt 0.310974 0.496701
vt 0.320974 0.479800
vt 0.320974 0.502996
vt 0.435000 0.504000
vt 0.435000 0.490647
vt 0.532013 0.519945
vt 0.532013 0.496234
vt 0.529454 0.532013
vt 0.529454 0.435000
vt 0.470678 0.435000
vt 0.470678 0.532013
vt 0.589026 0.519945
vt 0.589025 0.496234
vt 0.470598 0.532013
vt 0.470598 0.435000
vt 0.529571 0.435000
vt 0.529571 0.532013
vt 0.529454 0.589026
vt 0.470678 0.589025
vt 0.470598 0.589025
vt 0.529571 0.589026
vt -0.252303 0.671710
vt -0.252304 0.662911
vt -0.233822 0.662911
vt -0.233822 0.671710
vt 1.183180 0.662911
vt 1.183180 0.671710
vt 1.164700 0.671710
vt 1.164700 0.662911
vt 0.514464 -0.491591
vt 0.434102 -0.491591
vt 0.434102 -0.500390
vt 0.514464 -0.500390
vt 0.544106 -0.255644
vt 0.561150 -0.276228
vt 0.569940 -0.157607
vt 0.550046 -0.175502
vt 1.167637 0.058657
vt 1.184681 0.079240
vt 1.178741 0.159382
vt 1.158847 0.177278
vt 0.013551 0.574996
vt 0.013551 0.537496
vt 0.054205 0.537496
vt 0.054205 0.574996
vt 0.013551 0.424998
vt 0.013551 0.387501
vt 0.054205 0.387501
vt 0.054205 0.424998
vt 0.013551 0.350002
vt 0.013551 0.312503
vt 0.054205 0.312503
vt 0.054205 0.350002
vt 0.013551 0.800000
vt 0.013551 0.762497
vt 0.054205 0.762497
vt 0.054205 0.800000
vt 0.013551 0.275003
vt 0.054205 0.275003
vt 0.013551 0.500000
vt 0.054205 0.500000
vt 0.013551 0.724997
vt 0.054205 0.724997
vt 0.013551 0.462503
vt 0.054205 0.462503
vt 0.013551 0.612500
vt 0.054205 0.612500
vt 0.013551 0.237503
vt 0.054205 0.237503
vt 0.013551 0.687497
vt 0.013551 0.649999
vt 0.054205 0.649999
vt 0.054205 0.687497
vt 0.013551 0.200000
vt 0.054205 0.200000
s 0
usemtl plastic_mp_3
f 437/792/254 434/793/254 436/794/254
f 433/795/255 435/796/255 432/797/255
f 441/798/256 437/799/256 435/800/256 440/801/256
f 443/802/257 442/803/257 429/804/257 428/805/257
f 432/806/258 436/807/258 434/808/258 433/809/258
f 436/810/259 432/811/259 435/800/259 437/799/259
f 433/812/257 434/813/257 439/814/257 438/815/257
f 444/816/256 441/798/256 440/801/256 445/817/256
f 445/818/260 440/819/260 438/820/260 443/821/260
f 438/815/257 439/814/257 442/803/257 443/802/257
f 431/822/256 444/816/256 445/817/256 430/823/256
f 442/824/261 439/825/261 441/826/261 444/827/261
f 430/828/255 445/818/255 443/821/255 428/829/255
f 429/830/254 442/824/254 444/827/254 431/831/254
f 441/826/254 439/825/254 434/793/254 437/792/254
f 438/820/255 440/819/255 435/796/255 433/795/255
s 1
f 464/852/267 465/853/268 482/854/268 483/855/267
f 462/856/269 460/857/270 475/858/270 476/859/269
f 459/860/271 466/861/272 472/862/272 473/863/271
f 458/864/273 469/865/274 481/866/274 479/867/273
f 466/861/272 467/868/259 474/869/259 472/862/272
f 465/853/268 454/870/275 480/871/275 482/854/268
f 460/857/270 459/860/271 473/863/271 475/858/270
f 469/865/274 457/872/258 471/873/258 481/866/274
f 461/874/276 462/856/269 476/859/269 477/875/276
f 455/876/277 464/852/267 483/855/267 484/877/277
f 467/868/259 468/878/278 478/879/278 474/869/259
f 456/880/279 463/881/257 485/882/257 470/883/279
f 468/878/278 458/884/273 479/885/273 478/879/278
f 463/881/257 455/876/277 484/877/277 485/882/257
f 454/870/275 461/874/276 477/875/276 480/871/275
f 457/872/258 456/880/279 470/883/279 471/873/258
f 496/852/280 497/853/281 514/854/281 515/855/280
f 494/856/282 492/857/283 507/858/283 508/859/282
f 491/860/284 498/861/285 504/862/285 505/863/284
f 490/864/286 501/865/287 513/866/287 511/867/286
f 498/861/285 499/868/288 506/869/288 504/862/285
f 497/853/281 486/870/289 512/871/289 514/854/281
f 492/857/283 491/860/284 505/863/284 507/858/283
f 501/865/287 489/872/290 503/873/290 513/866/287
f 493/874/291 494/856/282 508/859/282 509/875/291
f 487/876/292 496/852/280 515/855/280 516/877/292
f 499/868/288 500/878/293 510/879/293 506/869/288
f 488/880/294 495/881/295 517/882/295 502/883/294
f 500/878/293 490/884/286 511/885/286 510/879/293
f 495/881/295 487/876/292 516/877/292 517/882/295
f 486/870/289 493/874/291 509/875/291 512/871/289
f 489/872/290 488/880/294 502/883/294 503/873/290
f 528/852/296 529/853/297 546/854/297 547/855/296
f 526/856/298 524/857/299 539/858/299 540/859/298
f 523/860/300 530/861/301 536/862/301 537/863/300
f 522/864/302 533/865/303 545/866/303 543/867/302
f 530/861/301 531/868/304 538/869/304 536/862/301
f 529/853/297 518/870/305 544/871/305 546/854/297
f 524/857/299 523/860/300 537/863/300 539/858/299
f 533/865/303 521/872/306 535/873/306 545/866/303
f 525/874/307 526/856/298 540/859/298 541/875/307
f 519/876/308 528/852/296 547/855/296 548/877/308
f 531/868/304 532/878/309 542/879/309 538/869/304
f 520/880/310 527/881/311 549/882/311 534/883/310
f 532/878/309 522/884/302 543/885/302 542/879/309
f 527/881/311 519/876/308 548/877/308 549/882/311
f 518/870/305 525/874/307 541/875/307 544/871/305
f 521/872/306 520/880/310 534/883/310 535/873/306
s 0
f 577/792/324 574/793/324 576/794/324
f 573/795/325 575/796/325 572/797/325
f 581/798/326 577/799/326 575/800/326 580/801/326
f 583/802/311 582/803/311 569/804/311 568/805/311
f 572/806/306 576/807/306 574/808/306 573/809/306
f 576/810/304 572/811/304 575/800/304 577/799/304
f 573/812/311 574/813/311 579/814/311 578/815/311
f 584/816/326 581/798/326 580/801/326 585/817/326
f 585/818/327 580/819/327 578/820/327 583/821/327
f 578/815/311 579/814/311 582/803/311 583/802/311
f 571/822/326 584/816/326 585/817/326 570/823/326
f 582/824/328 579/825/328 581/826/328 584/827/328
f 570/828/325 585/818/325 583/821/325 568/829/325
f 569/830/324 582/824/324 584/827/324 571/831/324
f 581/826/324 579/825/324 574/793/324 577/792/324
f 578/820/325 580/819/325 575/796/325 573/795/325
f 621/792/346 618/793/346 620/794/346
f 617/795/347 619/796/347 616/797/347
f 625/798/348 621/799/348 619/800/348 624/801/348
f 627/802/295 626/803/295 613/804/295 612/805/295
f 616/806/290 620/807/290 618/808/290 617/809/290
f 620/810/288 616/811/288 619/800/288 621/799/288
f 617/812/295 618/813/295 623/814/295 622/815/295
f 628/816/348 625/798/348 624/801/348 629/817/348
f 629/818/349 624/819/349 622/820/349 627/821/349
f 622/815/295 623/814/295 626/803/295 627/802/295
f 615/822/348 628/816/348 629/817/348 614/823/348
f 626/824/350 623/825/350 625/826/350 628/827/350
f 614/828/347 629/818/347 627/821/347 612/829/347
f 613/830/346 626/824/346 628/827/346 615/831/346
f 625/826/346 623/825/346 618/793/346 621/792/346
f 622/820/347 624/819/347 619/796/347 617/795/347
s 1
usemtl wood_4
f 415/756/243 413/757/243 414/758/243
f 410/759/244 413/760/244 426/761/245 419/762/245
f 412/763/246 415/764/246 414/765/247 411/766/247
f 417/767/248 422/768/248 415/764/246 412/763/246
f 411/766/247 414/765/247 413/760/244 410/759/244
f 419/762/245 426/761/245 427/769/249 421/770/249
f 421/770/249 427/769/249 425/771/250 420/772/250
f 416/773/251 423/774/251 424/775/252 418/776/252
f 418/776/252 424/775/252 422/768/248 417/767/248
f 412/777/253 411/778/253 410/779/253
f 423/780/243 425/781/243 427/782/243 424/783/243
f 424/783/243 427/782/243 426/784/243 422/785/243
f 422/785/243 426/784/243 413/757/243 415/756/243
f 417/786/253 412/777/253 410/779/253 419/787/253
f 418/788/253 417/786/253 419/787/253 421/789/253
f 416/790/253 418/788/253 421/789/253 420/791/253
f 452/832/262 449/833/262 448/834/262 453/835/262
f 446/836/263 451/837/263 450/838/263 447/839/263
f 452/840/264 451/841/264 446/842/264 449/843/264
f 450/838/265 423/774/251 416/773/251 447/839/265
f 446/844/253 447/845/253 416/790/253 420/791/253 448/846/253 449/847/253
f 448/834/266 420/772/250 425/771/250 453/835/266
f 450/848/243 451/849/243 452/850/243 453/851/243 425/781/243 423/780/243
f 555/756/312 553/757/312 554/758/313
f 550/759/314 553/760/314 566/761/315 559/762/315
f 552/763/316 555/764/316 554/765/317 551/766/317
f 557/767/318 562/768/318 555/764/316 552/763/316
f 551/766/317 554/765/317 553/760/314 550/759/314
f 559/762/315 566/761/315 567/769/319 561/770/319
f 561/770/319 567/769/319 565/771/320 560/772/320
f 556/773/321 563/774/321 564/775/322 558/776/322
f 558/776/322 564/775/322 562/768/318 557/767/318
f 552/777/323 551/778/323 550/779/323
f 563/780/312 565/781/312 567/782/312 564/783/312
f 564/783/312 567/782/312 566/784/312 562/785/312
f 562/785/312 566/784/312 553/757/312 555/756/312
f 557/786/323 552/777/323 550/779/323 559/787/323
f 558/788/323 557/786/323 559/787/323 561/789/323
f 556/790/323 558/788/323 561/789/323 560/791/323
f 592/832/329 589/833/329 588/834/329 593/835/329
f 586/836/330 591/837/330 590/838/330 587/839/330
f 592/840/331 591/841/331 586/842/331 589/843/331
f 590/838/332 563/774/321 556/773/321 587/839/332
f 586/844/323 587/845/323 556/790/323 560/791/323 588/846/323 589/847/323
f 588/834/333 560/772/320 565/771/320 593/835/333
f 590/848/312 591/849/312 592/850/312 593/851/312 565/781/312 563/780/312
f 599/756/334 597/757/334 598/758/334
f 594/759/335 597/760/335 610/761/336 603/762/337
f 596/763/338 599/764/338 598/765/339 595/766/339
f 601/767/340 606/768/340 599/764/338 596/763/338
f 595/766/339 598/765/339 597/760/335 594/759/335
f 603/762/337 610/761/336 611/769/341 605/770/341
f 605/770/341 611/769/341 609/771/342 604/772/342
f 600/773/343 607/774/343 608/775/344 602/776/344
f 602/776/344 608/775/344 606/768/340 601/767/340
f 596/777/345 595/778/345 594/779/345
f 607/780/334 609/781/334 611/782/334 608/783/334
f 608/783/334 611/782/334 610/784/334 606/785/334
f 606/785/334 610/784/334 597/757/334 599/756/334
f 601/786/345 596/777/345 594/779/345 603/787/345
f 602/788/345 601/786/345 603/787/345 605/789/345
f 600/790/345 602/788/345 605/789/345 604/791/345
f 636/832/351 633/833/351 632/834/351 637/835/351
f 630/836/352 635/837/352 634/838/352 631/839/352
f 636/840/353 635/841/353 630/842/353 633/843/353
f 634/838/354 607/774/343 600/773/343 631/839/354
f 630/844/345 631/845/345 600/790/345 604/791/345 632/846/345 633/847/345
f 632/834/355 604/772/342 609/771/342 637/835/355
f 634/848/334 635/849/334 636/850/334 637/851/334 609/781/334 607/780/334
