# Blender 5.0.1
# www.blender.org
mtllib ceiling_fan_mp_1.mtl
o ceiling_fan_mp_1
v 0.000000 -0.036600 -0.014792
v 0.014791 -0.036600 -0.000000
v 0.000000 -0.036600 0.014791
v -0.010459 -0.036600 0.010458
v -0.010458 -0.036600 -0.010459
v -0.014791 -0.036600 -0.000000
v 0.010459 -0.036600 0.010458
v 0.010459 -0.036600 -0.010459
v -0.064575 -0.006600 0.026746
v -0.049420 -0.006600 -0.049423
v 0.049425 -0.006600 -0.049423
v -0.049424 -0.006600 0.049421
v -0.026744 -0.006600 -0.064574
v 0.064571 -0.006600 -0.026748
v 0.000000 -0.006600 0.069893
v 0.064576 -0.006600 0.026746
v 0.069892 -0.006600 -0.000001
v 0.049425 -0.006600 0.049421
v 0.026745 -0.006600 -0.064574
v 0.026750 -0.006600 0.064572
v 0.000000 -0.006600 -0.069894
v -0.026749 -0.006600 0.064572
v -0.069891 -0.006600 -0.000001
v -0.064575 -0.006600 -0.026748
v 0.000000 -0.006600 -0.072191
v -0.066697 -0.006600 -0.027627
v -0.066697 -0.006600 0.027625
v -0.051048 -0.006600 0.051045
v 0.000000 -0.006600 0.072189
v 0.072188 -0.006600 -0.000001
v 0.066693 -0.006600 -0.027627
v 0.027624 -0.006600 -0.066696
v 0.051049 -0.006600 -0.051047
v -0.072187 -0.006600 -0.000001
v -0.051043 -0.006600 -0.051047
v -0.027623 -0.006600 -0.066696
v 0.066697 -0.006600 0.027625
v 0.051049 -0.006600 0.051045
v 0.027629 -0.006600 0.066694
v -0.027628 -0.006600 0.066694
v 0.000000 -0.373332 -0.014792
v 0.014791 -0.373345 -0.000000
v 0.000000 -0.373396 0.014791
v -0.010459 -0.373400 0.010458
v -0.010458 -0.373355 -0.010459
v -0.014791 -0.373383 -0.000000
v 0.010459 -0.373373 0.010458
v 0.010459 -0.373328 -0.010459
v 0.000000 0.000400 -0.074423
v -0.068760 0.000400 -0.028481
v -0.068760 0.000400 0.028479
v -0.052627 0.000400 0.052624
v 0.000000 0.000400 0.074422
v 0.074420 0.000400 -0.000001
v 0.068755 0.000400 -0.028481
v 0.028478 0.000400 -0.068758
v 0.052628 0.000400 -0.052625
v -0.074420 0.000400 -0.000001
v -0.052622 0.000400 -0.052625
v -0.028477 0.000400 -0.068758
v 0.068760 0.000400 0.028479
v 0.052627 0.000400 0.052624
v 0.028483 0.000400 0.068757
v -0.028482 0.000400 0.068757
v 0.000000 -0.026600 0.062903
v -0.024074 -0.026600 0.058115
v 0.058114 -0.026600 -0.024073
v 0.062902 -0.026600 -0.000001
v 0.058118 -0.026600 0.024072
v 0.000000 -0.026600 -0.062905
v -0.024070 -0.026600 -0.058117
v -0.058118 -0.026600 0.024072
v -0.044482 -0.026600 0.044479
v -0.044478 -0.026600 -0.044481
v 0.024071 -0.026600 -0.058117
v 0.044482 -0.026600 -0.044481
v -0.062902 -0.026600 -0.000001
v 0.044482 -0.026600 0.044479
v 0.024075 -0.026600 0.058115
v -0.058118 -0.026600 -0.024073
v -0.022120 -0.026600 -0.000001
v 0.000000 -0.026600 -0.022121
v 0.015644 -0.026600 0.015641
v 0.022119 -0.026600 0.000003
v 0.000000 -0.026600 0.022120
v -0.015643 -0.026600 0.015641
v 0.015643 -0.026600 -0.015642
v -0.015642 -0.026600 -0.015641
v 0.000000 -0.036600 0.022120
v 0.022119 -0.036600 0.000003
v 0.000000 -0.036600 -0.022121
v -0.015643 -0.036600 0.015641
v -0.015642 -0.036600 -0.015641
v 0.015643 -0.036600 -0.015642
v -0.022120 -0.036600 -0.000001
v 0.015644 -0.036600 0.015641
v 0.064575 -0.403400 0.026746
v 0.049420 -0.403400 -0.049423
v -0.049425 -0.403400 -0.049423
v 0.049424 -0.403400 0.049421
v 0.026744 -0.403400 -0.064574
v -0.064571 -0.403400 -0.026748
v -0.000000 -0.403400 0.069893
v -0.064576 -0.403400 0.026746
v -0.069892 -0.403400 -0.000001
v -0.049425 -0.403400 0.049421
v -0.026745 -0.403400 -0.064574
v -0.026750 -0.403400 0.064572
v -0.000000 -0.403400 -0.069894
v 0.026749 -0.403400 0.064572
v 0.069891 -0.403400 -0.000001
v 0.064575 -0.403400 -0.026748
v -0.000000 -0.403400 -0.072191
v 0.066697 -0.403400 -0.027627
v 0.066697 -0.403400 0.027625
v 0.051048 -0.403400 0.051045
v -0.000000 -0.403400 0.072189
v -0.072188 -0.403400 -0.000001
v -0.066693 -0.403400 -0.027627
v -0.027624 -0.403400 -0.066696
v -0.051049 -0.403400 -0.051047
v 0.072187 -0.403400 -0.000001
v 0.051043 -0.403400 -0.051047
v 0.027623 -0.403400 -0.066696
v -0.066697 -0.403400 0.027625
v -0.051049 -0.403400 0.051045
v -0.027629 -0.403400 0.066694
v 0.027628 -0.403400 0.066694
v -0.000000 -0.410400 -0.074423
v 0.068760 -0.410400 -0.028481
v 0.068760 -0.410400 0.028479
v 0.052627 -0.410400 0.052624
v -0.000000 -0.410400 0.074422
v -0.074420 -0.410400 -0.000001
v -0.068755 -0.410400 -0.028481
v -0.028478 -0.410400 -0.068758
v -0.052628 -0.410400 -0.052625
v 0.074420 -0.410400 -0.000001
v 0.052622 -0.410400 -0.052625
v 0.028477 -0.410400 -0.068758
v -0.068760 -0.410400 0.028479
v -0.052627 -0.410400 0.052624
v -0.028483 -0.410400 0.068757
v 0.028482 -0.410400 0.068757
v -0.000000 -0.383400 0.062903
v 0.024074 -0.383400 0.058115
v -0.058114 -0.383400 -0.024073
v -0.062902 -0.383400 -0.000001
v -0.058118 -0.383400 0.024072
v -0.000000 -0.383400 -0.062905
v 0.024070 -0.383400 -0.058117
v 0.058118 -0.383400 0.024072
v 0.044482 -0.383400 0.044479
v 0.044478 -0.383400 -0.044481
v -0.024071 -0.383400 -0.058117
v -0.044482 -0.383400 -0.044481
v 0.062902 -0.383400 -0.000001
v -0.044482 -0.383400 0.044479
v -0.024075 -0.383400 0.058115
v 0.058118 -0.383400 -0.024073
v 0.022120 -0.383400 -0.000001
v -0.000000 -0.383400 -0.022121
v -0.015644 -0.383400 0.015641
v -0.022119 -0.383400 0.000003
v -0.000000 -0.383400 0.022120
v 0.015643 -0.383400 0.015641
v -0.015643 -0.383400 -0.015642
v 0.015642 -0.383400 -0.015641
v -0.000000 -0.373400 0.022120
v -0.022119 -0.373400 0.000003
v -0.000000 -0.373400 -0.022121
v 0.015643 -0.373400 0.015641
v 0.015642 -0.373400 -0.015641
v -0.015643 -0.373400 -0.015642
v 0.022120 -0.373400 -0.000001
v -0.015644 -0.373400 0.015641
v -0.030953 -0.470767 -0.077003
v -0.075516 -0.470767 -0.032440
v 0.000558 -0.470767 0.081414
v 0.032069 -0.470767 0.075146
v 0.058783 -0.470767 0.057296
v 0.076633 -0.470767 0.030582
v 0.082901 -0.470767 -0.000929
v 0.000558 -0.470767 -0.090514
v -0.033725 -0.470767 -0.083695
v -0.062788 -0.470767 -0.064275
v -0.082208 -0.470767 -0.035212
v -0.089027 -0.470767 -0.000929
v -0.082208 -0.470767 0.033354
v -0.062788 -0.470767 0.062418
v -0.033725 -0.470767 0.081838
v 0.000558 -0.470767 0.088657
v 0.034841 -0.470767 0.081838
v 0.063905 -0.470767 0.062418
v 0.083325 -0.470767 0.033354
v 0.090144 -0.470767 -0.000929
v 0.083325 -0.470767 -0.035212
v 0.063905 -0.470767 -0.064275
v 0.034841 -0.470767 -0.083695
v 0.000558 -0.438860 -0.090514
v -0.033725 -0.438860 -0.083695
v -0.062788 -0.438860 -0.064275
v -0.082208 -0.438860 -0.035212
v -0.089027 -0.438860 -0.000929
v -0.082208 -0.438860 0.033354
v -0.062788 -0.438860 0.062418
v -0.033725 -0.438860 0.081838
v 0.000558 -0.438860 0.088657
v 0.034841 -0.438860 0.081838
v 0.063905 -0.438860 0.062418
v 0.083325 -0.438860 0.033354
v 0.090144 -0.438860 -0.000929
v 0.083325 -0.438860 -0.035212
v 0.063905 -0.438860 -0.064275
v 0.034841 -0.438860 -0.083695
v 0.000558 -0.470767 -0.083271
v -0.057667 -0.470767 -0.059154
v -0.081784 -0.470767 -0.000929
v -0.075516 -0.470767 0.030582
v -0.057667 -0.470767 0.057296
v -0.030953 -0.470767 0.075146
v 0.076633 -0.470767 -0.032440
v 0.058783 -0.470767 -0.059154
v 0.032069 -0.470767 -0.077003
v 0.000558 -0.491122 -0.041203
v -0.014854 -0.491122 -0.038137
v -0.027920 -0.491122 -0.029407
v -0.036650 -0.491122 -0.016341
v -0.039716 -0.491122 -0.000929
v -0.036650 -0.491122 0.014483
v -0.027920 -0.491122 0.027549
v -0.014854 -0.491122 0.036280
v 0.000558 -0.491122 0.039345
v 0.015971 -0.491122 0.036280
v 0.029036 -0.491122 0.027549
v 0.037767 -0.491122 0.014483
v 0.040832 -0.491122 -0.000929
v 0.037767 -0.491122 -0.016341
v 0.029036 -0.491122 -0.029407
v 0.015971 -0.491122 -0.038137
v 0.000558 -0.480945 -0.068368
v -0.047128 -0.480945 -0.048615
v -0.066881 -0.480945 -0.000929
v -0.061747 -0.480945 0.024879
v -0.047128 -0.480945 0.046758
v -0.025250 -0.480945 0.061377
v 0.062864 -0.480945 -0.026737
v 0.048245 -0.480945 -0.048615
v 0.026366 -0.480945 -0.063234
v -0.025250 -0.480945 -0.063234
v -0.061747 -0.480945 -0.026737
v 0.000558 -0.480945 0.066510
v 0.026366 -0.480945 0.061377
v 0.048245 -0.480945 0.046758
v 0.062864 -0.480945 0.024879
v 0.067997 -0.480945 -0.000929
vn -1.0000 -0.0000 0.0005
vn -0.7070 -0.0000 0.7072
vn -0.7071 -0.0000 0.7071
vn -1.0000 -0.0000 -0.0000
vn -0.0003 -0.0000 1.0000
vn -0.0000 -0.0000 1.0000
vn 1.0000 -0.0000 0.0005
vn 0.7072 -0.0000 -0.7070
vn 0.7071 -0.0000 -0.7071
vn 1.0000 -0.0000 -0.0000
vn 0.7067 -0.0000 0.7075
vn 0.7071 -0.0000 0.7071
vn -0.0003 -0.0000 -1.0000
vn -0.0000 -0.0000 -1.0000
vn -0.7075 -0.0000 -0.7067
vn -0.7071 -0.0000 -0.7071
vn -0.0000 -1.0000 -0.0000
vn 0.6675 -0.3299 -0.6675
vn 0.8722 -0.3299 -0.3612
vn -0.8722 -0.3299 0.3612
vn -0.9440 -0.3299 -0.0000
vn -0.6675 -0.3299 -0.6676
vn -0.3613 -0.3299 -0.8722
vn -0.0000 -0.3299 0.9440
vn -0.3613 -0.3299 0.8722
vn -0.3612 -0.3299 0.8722
vn 0.9440 -0.3299 -0.0001
vn -0.8722 -0.3299 -0.3612
vn -0.0000 -0.3299 -0.9440
vn 0.3612 -0.3299 -0.8722
vn -0.6675 -0.3299 0.6675
vn 0.8722 -0.3299 0.3612
vn 0.6675 -0.3299 0.6675
vn 0.3613 -0.3299 0.8722
vn 0.3612 -0.3299 0.8722
vn 0.3646 -0.3039 -0.8802
vn -0.0000 -0.3039 -0.9527
vn 0.8802 -0.3039 -0.3645
vn 0.6737 -0.3039 -0.6737
vn 0.6737 -0.3039 0.6737
vn 0.8802 -0.3039 0.3645
vn -0.6736 -0.3039 -0.6737
vn -0.8802 -0.3039 -0.3646
vn -0.9527 -0.3039 -0.0000
vn -0.8802 -0.3039 0.3645
vn -0.3646 -0.3039 0.8802
vn -0.0000 -0.3039 0.9527
vn -0.3646 -0.3039 -0.8802
vn 0.3646 -0.3039 0.8802
vn 0.9527 -0.3039 -0.0001
vn -0.6737 -0.3039 0.6737
vn -1.0000 -0.0000 -0.0001
vn -0.0000 1.0000 -0.0000
vn -0.6675 0.3299 -0.6675
vn -0.8722 0.3299 -0.3612
vn 0.8722 0.3299 0.3612
vn 0.9440 0.3299 -0.0000
vn 0.6675 0.3299 -0.6676
vn 0.3613 0.3299 -0.8722
vn -0.0000 0.3299 0.9440
vn 0.3613 0.3299 0.8722
vn 0.3612 0.3299 0.8722
vn -0.9440 0.3299 -0.0001
vn 0.8722 0.3299 -0.3612
vn -0.0000 0.3299 -0.9440
vn -0.3612 0.3299 -0.8722
vn 0.6675 0.3299 0.6675
vn -0.8722 0.3299 0.3612
vn -0.6675 0.3299 0.6675
vn -0.3613 0.3299 0.8722
vn -0.3612 0.3299 0.8722
vn -0.3646 0.3039 -0.8802
vn -0.0000 0.3039 -0.9527
vn -0.8802 0.3039 -0.3645
vn -0.6737 0.3039 -0.6737
vn -0.6737 0.3039 0.6737
vn -0.8802 0.3039 0.3645
vn 0.6736 0.3039 -0.6737
vn 0.8802 0.3039 -0.3646
vn 0.9527 0.3039 -0.0000
vn 0.8802 0.3039 0.3645
vn 0.3646 0.3039 0.8802
vn -0.0000 0.3039 0.9527
vn 0.3646 0.3039 -0.8802
vn -0.3646 0.3039 0.8802
vn -0.9527 0.3039 -0.0001
vn 0.6737 0.3039 0.6737
vn -0.7072 -0.0000 -0.7070
vn 0.0001 -0.0000 -1.0000
vn 1.0000 -0.0000 -0.0001
vn -0.3827 -0.0000 0.9239
vn -0.9239 -0.0000 -0.3827
vn 0.3827 -0.0000 0.9239
vn -0.3827 -0.0000 -0.9239
vn -0.9239 -0.0000 0.3827
vn 0.9239 -0.0000 -0.3827
vn 0.9239 -0.0000 0.3827
vn 0.3827 -0.0000 -0.9239
vn 0.4724 -0.8814 -0.0000
vn 0.4364 -0.8814 -0.1808
vn 0.5210 -0.8258 -0.2158
vn 0.5639 -0.8258 -0.0000
vn -0.3340 -0.8814 0.3340
vn -0.1808 -0.8814 0.4364
vn -0.2158 -0.8258 0.5210
vn -0.3988 -0.8258 0.3988
vn -0.0000 -0.8814 -0.4724
vn -0.1808 -0.8814 -0.4364
vn -0.2158 -0.8258 -0.5210
vn -0.0000 -0.8258 -0.5639
vn 0.3340 -0.8814 -0.3340
vn 0.3988 -0.8258 -0.3988
vn -0.0000 -0.8814 0.4724
vn -0.0000 -0.8258 0.5639
vn -0.3340 -0.8814 -0.3340
vn -0.3988 -0.8258 -0.3988
vn 0.1808 -0.8814 -0.4364
vn 0.2158 -0.8258 -0.5210
vn 0.1808 -0.8814 0.4364
vn 0.2158 -0.8258 0.5210
vn -0.4364 -0.8814 -0.1808
vn -0.5210 -0.8258 -0.2158
vn 0.3340 -0.8814 0.3340
vn 0.3988 -0.8258 0.3988
vn -0.4724 -0.8814 -0.0000
vn -0.5639 -0.8258 -0.0000
vn 0.4364 -0.8814 0.1808
vn 0.5210 -0.8258 0.2158
vn -0.4364 -0.8814 0.1808
vn -0.5210 -0.8258 0.2158
vn -0.0764 -0.9799 -0.1845
vn -0.0000 -0.9799 -0.1997
vn 0.0764 -0.9799 -0.1845
vn 0.1412 -0.9799 -0.1412
vn 0.1845 -0.9799 -0.0764
vn 0.1997 -0.9799 -0.0000
vn 0.1845 -0.9799 0.0764
vn 0.1412 -0.9799 0.1412
vn 0.0764 -0.9799 0.1845
vn -0.0000 -0.9799 0.1997
vn -0.0764 -0.9799 0.1845
vn -0.1412 -0.9799 0.1412
vn -0.1845 -0.9799 0.0764
vn -0.1997 -0.9799 -0.0000
vn -0.1845 -0.9799 -0.0764
vn -0.1412 -0.9799 -0.1412
vt 0.492823 -0.066986
vt 0.511962 -0.066986
vt 0.511962 0.427380
vt 0.492823 0.427374
vt 0.526316 -0.066986
vt 0.526316 0.427378
vt 0.425837 -0.066986
vt 0.444976 -0.066986
vt 0.444976 0.427355
vt 0.425837 0.427361
vt 0.411483 -0.066986
vt 0.411483 0.427370
vt 0.392345 -0.066986
vt 0.392345 0.427378
vt 0.459330 -0.066986
vt 0.459330 0.427357
vt 0.478469 -0.066986
vt 0.478469 0.427364
vt 0.067941 0.985139
vt 0.064625 0.985799
vt 0.064632 0.944330
vt 0.067947 0.944990
vt 0.109820 1.053434
vt 0.080496 1.024111
vt 0.083307 1.022233
vt 0.111698 1.050623
vt 0.254432 0.907892
vt 0.257243 0.906014
vt 0.273106 0.944325
vt 0.269790 0.944985
vt 0.109824 0.876693
vt 0.148136 0.860823
vt 0.148795 0.864139
vt 0.111702 0.879504
vt 0.226034 0.879501
vt 0.227912 0.876690
vt 0.083305 0.907894
vt 0.080494 0.906016
vt 0.189602 0.860822
vt 0.188943 0.864137
vt 0.148796 1.065988
vt 0.148136 1.069304
vt 0.188949 1.065988
vt 0.226043 1.050622
vt 0.227922 1.053433
vt 0.189609 1.069304
vt -0.680907 0.494515
vt -0.668199 0.456433
vt -0.639308 0.468188
vt -0.650745 0.502462
vt -0.628716 0.761275
vt -0.650705 0.727683
vt -0.623563 0.712313
vt -0.603773 0.742546
vt -0.680907 0.653455
vt -0.688617 0.614052
vt -0.657683 0.610045
vt -0.650745 0.645508
vt -0.539734 0.841473
vt -0.572767 0.818644
vt -0.553419 0.794179
vt -0.523689 0.814724
vt -0.650705 0.420294
vt -0.623563 0.435663
vt -0.668201 0.691546
vt -0.639309 0.679790
vt -0.691201 0.573988
vt -0.688617 0.533924
vt -0.657683 0.537931
vt -0.660009 0.573988
vt -0.602592 0.791764
vt -0.580261 0.769986
vt -0.628716 0.386702
vt -0.603773 0.405430
vt -0.602592 0.356213
vt -0.572767 0.329332
vt -0.553419 0.353798
vt -0.580261 0.377990
vt -0.539734 0.306504
vt -0.523689 0.333252
vt -1.168373 0.558218
vt -1.170831 0.599611
vt -1.181649 0.599611
vt -1.179114 0.556938
vt 0.269791 0.985135
vt 0.273107 0.985795
vt 0.257245 1.024109
vt 0.254434 1.022231
vt -1.148912 0.477743
vt -1.161033 0.517398
vt -1.171547 0.514855
vt -1.159052 0.473974
vt -1.085906 0.371148
vt -1.111085 0.404098
vt -1.120054 0.398051
vt -1.094097 0.364082
vt -1.161033 0.681819
vt -1.148914 0.721482
vt -1.159053 0.725252
vt -1.171547 0.684362
vt -1.132184 0.759426
vt -1.111085 0.795125
vt -1.120054 0.801172
vt -1.141806 0.764369
vt -1.057004 0.857815
vt -1.024783 0.883927
vt -1.031083 0.892720
vt -1.064301 0.865801
vt -1.168373 0.641004
vt -1.179114 0.642285
vt -1.024783 0.315297
vt -1.057004 0.341408
vt -1.064301 0.333423
vt -1.031083 0.306504
vt -1.132184 0.439797
vt -1.141806 0.434855
vt -1.085906 0.828076
vt -1.094097 0.835142
vt -0.390678 1.091876
vt -0.404507 1.058491
vt -0.404501 1.022357
vt -0.390678 0.988971
vt -0.365121 0.963420
vt -0.331736 0.949592
vt -0.295603 0.949591
vt -0.262222 0.963419
vt -0.236664 0.988972
vt -0.222842 1.022356
vt -0.222842 1.058491
vt -0.236664 1.091877
vt -0.262216 1.117429
vt -0.295600 1.131257
vt -0.331739 1.131256
vt -0.365127 1.117427
vt 0.201689 0.068440
vt 0.201689 0.093369
vt 0.186966 0.093369
vt 0.186966 0.068440
vt -0.014360 0.923987
vt -0.014360 0.899058
vt 0.003267 0.881437
vt 0.028190 0.881437
vt 0.045818 0.899063
vt 0.045818 0.923990
vt 0.028186 0.941614
vt 0.003267 0.941616
vt 0.201689 0.043513
vt 0.186966 0.043513
vt 0.201689 0.118289
vt 0.186966 0.118289
vt 0.201689 -0.031262
vt 0.201689 -0.006338
vt 0.186966 -0.006338
vt 0.186966 -0.031262
vt 0.201689 0.018585
vt 0.186966 0.018585
vt 0.201689 0.143218
vt 0.186966 0.143218
vt -0.219526 1.005755
vt -0.222842 1.006414
vt -0.222835 0.964946
vt -0.219520 0.965606
vt -0.177647 1.074050
vt -0.206971 1.044727
vt -0.204160 1.042849
vt -0.175769 1.071239
vt -0.033035 0.928508
vt -0.030224 0.926630
vt -0.014361 0.964941
vt -0.017676 0.965601
vt -0.177643 0.897309
vt -0.139331 0.881439
vt -0.138671 0.884754
vt -0.175765 0.900120
vt -0.061433 0.900117
vt -0.059555 0.897306
vt -0.204162 0.928510
vt -0.206973 0.926632
vt -0.097865 0.881437
vt -0.098524 0.884753
vt -0.138671 1.086604
vt -0.139331 1.089920
vt -0.098517 1.086604
vt -0.061423 1.071238
vt -0.059545 1.074049
vt -0.097858 1.089920
vt -0.513395 0.494515
vt -0.500687 0.456433
vt -0.471796 0.468188
vt -0.483233 0.502462
vt -0.461204 0.761275
vt -0.483193 0.727683
vt -0.456051 0.712313
vt -0.436261 0.742546
vt -0.513395 0.653455
vt -0.521105 0.614052
vt -0.490171 0.610046
vt -0.483233 0.645509
vt -0.372222 0.841473
vt -0.405255 0.818645
vt -0.385907 0.794179
vt -0.356177 0.814725
vt -0.483193 0.420294
vt -0.456051 0.435663
vt -0.500689 0.691546
vt -0.471797 0.679790
vt -0.523689 0.573988
vt -0.521105 0.533924
vt -0.490172 0.537931
vt -0.492497 0.573988
vt -0.435080 0.791764
vt -0.412749 0.769987
vt -0.461204 0.386702
vt -0.436261 0.405430
vt -0.435080 0.356213
vt -0.405255 0.329332
vt -0.385907 0.353798
vt -0.412749 0.377990
vt -0.372222 0.306504
vt -0.356177 0.333252
vt -0.834791 0.558217
vt -0.837249 0.599610
vt -0.848067 0.599610
vt -0.845532 0.556937
vt -0.017676 1.005751
vt -0.014360 1.006411
vt -0.030222 1.044725
vt -0.033033 1.042847
vt -0.815330 0.477742
vt -0.827451 0.517396
vt -0.837965 0.514854
vt -0.825470 0.473973
vt -0.752324 0.371147
vt -0.777503 0.404097
vt -0.786472 0.398050
vt -0.760514 0.364081
vt -0.827451 0.681818
vt -0.815332 0.721482
vt -0.825471 0.725251
vt -0.837965 0.684361
vt -0.798602 0.759425
vt -0.777503 0.795124
vt -0.786472 0.801171
vt -0.808224 0.764368
vt -0.723422 0.857815
vt -0.691201 0.883926
vt -0.697501 0.892719
vt -0.730719 0.865800
vt -0.834791 0.641003
vt -0.845533 0.642283
vt -0.691201 0.315297
vt -0.723422 0.341408
vt -0.730719 0.333422
vt -0.697501 0.306504
vt -0.798602 0.439796
vt -0.808224 0.434853
vt -0.752324 0.828075
vt -0.760515 0.835141
vt 0.333299 -0.357716
vt 0.319470 -0.391100
vt 0.319476 -0.427235
vt 0.333299 -0.460621
vt 0.358856 -0.486171
vt 0.392241 -0.499999
vt 0.428374 -0.500000
vt 0.461755 -0.486172
vt 0.487313 -0.460619
vt 0.501135 -0.427236
vt 0.501135 -0.391100
vt 0.487313 -0.357714
vt 0.461761 -0.332163
vt 0.428377 -0.318334
vt 0.392238 -0.318335
vt 0.358850 -0.332164
vt 0.334193 0.068440
vt 0.334193 0.093369
vt 0.319470 0.093369
vt 0.319470 0.068440
vt -0.848066 0.935270
vt -0.848067 0.910340
vt -0.830439 0.892719
vt -0.805516 0.892719
vt -0.787889 0.910345
vt -0.787889 0.935272
vt -0.805521 0.952896
vt -0.830440 0.952898
vt 0.334193 0.043513
vt 0.319470 0.043513
vt 0.334193 0.118289
vt 0.319470 0.118289
vt 0.334193 -0.031262
vt 0.334193 -0.006338
vt 0.319470 -0.006338
vt 0.319470 -0.031262
vt 0.334193 0.018585
vt 0.319470 0.018585
vt 0.334193 0.143218
vt 0.319470 0.143218
vt -0.476272 0.970315
vt -0.492633 1.009813
vt -0.522864 1.040042
vt -0.562365 1.056403
vt -0.605121 1.056403
vt -0.644619 1.040041
vt -0.674848 1.009811
vt -0.691201 0.970311
vt -0.691200 0.927559
vt -0.674846 0.888063
vt -0.644608 0.857832
vt -0.605113 0.841473
vt -0.562365 0.841474
vt -0.522867 0.857836
vt -0.492630 0.888065
vt -0.476278 0.927565
vt 0.334193 -0.056192
vt 0.319470 -0.056192
vt 0.201689 -0.056192
vt 0.186966 -0.056192
vt 0.406772 0.642290
vt 0.354575 0.642290
vt 0.354575 0.585109
vt 0.406772 0.585109
vt 0.053004 0.763983
vt 0.053004 0.711425
vt 0.064625 0.709114
vt 0.064625 0.766294
vt 0.032891 0.662868
vt -0.004273 0.625705
vt 0.002310 0.615853
vt 0.042743 0.656286
vt -0.105387 0.605592
vt -0.153944 0.625705
vt -0.160527 0.615853
vt -0.107699 0.593971
vt -0.191108 0.662869
vt -0.200960 0.656286
vt -0.211220 0.711425
vt -0.222842 0.709114
vt -0.211220 0.763983
vt -0.222842 0.766294
vt -0.211220 0.763983
vt -0.191107 0.812540
vt -0.200959 0.819122
vt -0.153944 0.849703
vt -0.160527 0.859555
vt -0.105387 0.869816
vt -0.107699 0.881437
vt -0.052830 0.869816
vt -0.050518 0.881437
vt -0.004273 0.849703
vt 0.002310 0.859555
vt 0.032891 0.812540
vt 0.042743 0.819122
vt -0.052830 0.605592
vt -0.050518 0.593971
vt 0.406771 0.928193
vt 0.354575 0.928193
vt 0.354575 0.871013
vt 0.406771 0.871013
vt 0.406771 1.500000
vt 0.354575 1.500000
vt 0.354575 1.442820
vt 0.406771 1.442820
vt 0.406771 1.042555
vt 0.354575 1.042555
vt 0.354575 0.985374
vt 0.406771 0.985374
vt 0.406771 0.756651
vt 0.354575 0.756651
vt 0.354575 0.699471
vt 0.406772 0.699471
vt 0.406771 1.271278
vt 0.354575 1.271277
vt 0.354575 1.214097
vt 0.406771 1.214097
vt 0.406772 0.699471
vt 0.354575 0.699471
vt 0.354575 0.642290
vt 0.406772 0.642290
vt 0.406771 1.214097
vt 0.354575 1.214097
vt 0.354575 1.156916
vt 0.406771 1.156916
vt 0.406771 0.813832
vt 0.354575 0.813832
vt 0.354575 0.756651
vt 0.406771 1.328458
vt 0.354575 1.328458
vt 0.406771 1.385639
vt 0.354575 1.385639
vt 0.406771 1.328458
vt 0.406771 0.871013
vt 0.354575 0.871013
vt 0.354575 0.813832
vt 0.406771 0.813832
vt 0.354575 1.442820
vt 0.406771 1.385639
vt 0.406771 1.156916
vt 0.354575 1.156916
vt 0.354575 1.099735
vt 0.406771 1.099735
vt 0.354575 1.099735
vt 0.354575 1.042555
vt 0.354575 0.985374
vt 0.354575 0.928193
vt 0.137020 0.819991
vt 0.179259 0.837631
vt 0.173391 0.864241
vt 0.122503 0.843173
vt 0.181624 0.608219
vt 0.139008 0.624952
vt 0.124841 0.601657
vt 0.176017 0.581687
vt 0.299410 0.788621
vt 0.316874 0.746697
vt 0.343236 0.752484
vt 0.322364 0.802851
vt 0.224951 0.837741
vt 0.229675 0.864489
vt 0.174841 0.864506
vt 0.106326 0.656773
vt 0.084406 0.640758
vt 0.123615 0.602448
vt 0.316929 0.701307
vt 0.343511 0.696735
vt 0.343511 0.751066
vt 0.267146 0.820613
vt 0.281697 0.843444
vt 0.231102 0.864181
vt 0.088121 0.698718
vt 0.061553 0.692360
vt 0.083560 0.641983
vt 0.321567 0.804077
vt 0.282904 0.842612
vt 0.300231 0.659112
vt 0.323046 0.644925
vt 0.343219 0.695341
vt 0.087865 0.744517
vt 0.060924 0.748804
vt 0.061236 0.693794
vt 0.268803 0.626796
vt 0.284553 0.605112
vt 0.322247 0.643751
vt 0.104658 0.787217
vt 0.081283 0.801664
vt 0.061186 0.750267
vt 0.227249 0.608757
vt 0.233602 0.582427
vt 0.283377 0.604278
vt 0.121230 0.842352
vt 0.082105 0.802924
vt 0.266489 0.736336
vt 0.256653 0.759718
vt 0.238598 0.777531
vt 0.215039 0.787070
vt 0.189563 0.786885
vt 0.166084 0.776947
vt 0.148215 0.758732
vt 0.138690 0.735035
vt 0.138953 0.709517
vt 0.148977 0.686103
vt 0.167236 0.668356
vt 0.190908 0.658926
vt 0.216336 0.659235
vt 0.239626 0.669205
vt 0.257273 0.687353
vt 0.266678 0.710929
vt 0.177461 0.581434
vt 0.232191 0.582101
vt 0.500000 0.300921
vt 0.423816 0.316075
vt 0.359230 0.359230
vt 0.316075 0.423816
vt 0.300921 0.500000
vt 0.316075 0.576184
vt 0.359230 0.640770
vt 0.423816 0.683925
vt 0.500000 0.699079
vt 0.576184 0.683925
vt 0.640770 0.640770
vt 0.683925 0.576184
vt 0.699079 0.500000
vt 0.683925 0.423816
vt 0.640770 0.359230
vt 0.576184 0.316075
vt 0.216580 0.651486
vt 0.190979 0.651079
vt 0.142591 0.763905
vt 0.160606 0.782250
vt 0.242945 0.661826
vt 0.219611 0.651871
vt 0.131612 0.737769
vt 0.141144 0.761677
vt 0.263189 0.681593
vt 0.245531 0.663368
vt 0.131196 0.709316
vt 0.130973 0.735010
vt 0.273933 0.708206
vt 0.264645 0.684507
vt 0.243872 0.783631
vt 0.261970 0.765701
vt 0.141751 0.682842
vt 0.131653 0.706400
vt 0.217642 0.794527
vt 0.241316 0.784965
vt 0.274287 0.736980
vt 0.274286 0.711475
vt 0.161686 0.662866
vt 0.143285 0.680607
vt 0.188988 0.794727
vt 0.214642 0.794797
vt 0.263771 0.763443
vt 0.273600 0.739961
vt 0.188091 0.651729
vt 0.164226 0.661236
vt 0.162528 0.783945
vt 0.186194 0.793887
s 1
usemtl plastic_mp_3
f 46/1/1 44/2/2 4/3/3 6/4/4
f 4/3/3 44/2/2 43/5/5 3/6/6
f 42/7/7 48/8/8 8/9/9 2/10/10
f 47/11/11 42/7/7 2/10/10 7/12/12
f 43/13/5 47/11/11 7/12/12 3/14/6
f 48/8/8 41/15/13 1/16/14 8/9/9
f 41/15/13 45/17/15 5/18/16 1/16/14
f 45/17/15 46/1/1 6/4/4 5/18/16
f 9/19/17 27/20/17 34/21/17 23/22/17
f 40/23/17 28/24/17 12/25/17 22/26/17
f 11/27/17 33/28/17 31/29/17 14/30/17
f 35/31/17 36/32/17 13/33/17 10/34/17
f 11/27/17 19/35/17 32/36/17 33/28/17
f 35/31/17 10/34/17 24/37/17 26/38/17
f 23/22/17 34/21/17 26/38/17 24/37/17
f 13/33/17 36/32/17 25/39/17 21/40/17
f 21/40/17 25/39/17 32/36/17 19/35/17
f 22/26/17 15/41/17 29/42/17 40/23/17
f 20/43/17 18/44/17 38/45/17 39/46/17
f 11/47/18 14/48/19 67/49/19 76/50/18
f 9/51/20 23/52/21 77/53/21 72/54/20
f 10/55/22 13/56/23 71/57/23 74/58/22
f 15/59/24 22/60/25 66/61/26 65/62/24
f 14/48/19 17/63/27 68/64/27 67/49/19
f 23/52/21 24/65/28 80/66/28 77/53/21
f 21/67/29 19/68/30 75/69/30 70/70/29
f 12/71/31 9/51/20 72/54/20 73/72/31
f 17/63/27 16/73/32 69/74/32 68/64/27
f 18/75/33 20/76/34 79/77/35 78/78/33
f 22/60/25 12/71/31 73/72/31 66/61/26
f 19/68/30 11/47/18 76/50/18 75/69/30
f 20/76/34 15/79/24 65/80/24 79/77/35
f 16/73/32 18/75/33 78/78/33 69/74/32
f 24/65/28 10/55/22 74/58/22 80/66/28
f 13/56/23 21/67/29 70/70/29 71/57/23
f 12/25/17 28/24/17 27/20/17 9/19/17
f 32/81/36 25/82/37 49/83/37 56/84/36
f 17/85/17 30/86/17 37/87/17 16/88/17
f 18/44/17 16/88/17 37/87/17 38/45/17
f 14/30/17 31/29/17 30/86/17 17/85/17
f 20/43/17 39/46/17 29/42/17 15/41/17
f 31/89/38 33/90/39 57/91/39 55/92/38
f 38/93/40 37/94/41 61/95/41 62/96/40
f 35/97/42 26/98/43 50/99/43 59/100/42
f 33/90/39 32/81/36 56/84/36 57/91/39
f 34/101/44 27/102/45 51/103/45 58/104/44
f 40/105/46 29/106/47 53/107/47 64/108/46
f 36/109/48 35/97/42 59/100/42 60/110/48
f 29/111/47 39/112/49 63/113/49 53/114/47
f 38/93/40 62/96/40 63/113/49 39/112/49
f 30/115/50 31/89/38 55/92/38 54/116/50
f 28/117/51 40/105/46 64/108/46 52/118/51
f 26/98/43 34/101/44 58/104/44 50/99/43
f 37/94/41 30/115/50 54/116/50 61/95/41
f 27/102/45 28/117/51 52/118/51 51/103/45
f 36/109/48 60/110/48 49/83/37 25/82/37
f 73/119/17 72/120/17 77/121/17 80/122/17 74/123/17 71/124/17 70/125/17 75/126/17 76/127/17 67/128/17 68/129/17 69/130/17 78/131/17 79/132/17 65/133/17 66/134/17
f 87/135/8 84/136/10 90/137/10 94/138/8
f 89/139/17 92/140/17 95/141/17 93/142/17 91/143/17 94/144/17 90/145/17 96/146/17
f 82/147/14 87/135/8 94/138/8 91/148/14
f 84/136/10 83/149/12 96/150/12 90/137/10
f 86/151/3 81/152/52 95/153/52 92/154/3
f 88/155/16 82/147/14 91/148/14 93/156/16
f 83/149/12 85/157/6 89/158/6 96/150/12
f 81/152/52 88/155/16 93/156/16 95/153/52
f 97/159/53 115/160/53 122/161/53 111/162/53
f 128/163/53 116/164/53 100/165/53 110/166/53
f 99/167/53 121/168/53 119/169/53 102/170/53
f 123/171/53 124/172/53 101/173/53 98/174/53
f 99/167/53 107/175/53 120/176/53 121/168/53
f 123/171/53 98/174/53 112/177/53 114/178/53
f 111/162/53 122/161/53 114/178/53 112/177/53
f 101/173/53 124/172/53 113/179/53 109/180/53
f 109/180/53 113/179/53 120/176/53 107/175/53
f 110/166/53 103/181/53 117/182/53 128/163/53
f 108/183/53 106/184/53 126/185/53 127/186/53
f 99/187/54 102/188/55 147/189/55 156/190/54
f 97/191/56 111/192/57 157/193/57 152/194/56
f 98/195/58 101/196/59 151/197/59 154/198/58
f 103/199/60 110/200/61 146/201/62 145/202/60
f 102/188/55 105/203/63 148/204/63 147/189/55
f 111/192/57 112/205/64 160/206/64 157/193/57
f 109/207/65 107/208/66 155/209/66 150/210/65
f 100/211/67 97/191/56 152/194/56 153/212/67
f 105/203/63 104/213/68 149/214/68 148/204/63
f 106/215/69 108/216/70 159/217/71 158/218/69
f 110/200/61 100/211/67 153/212/67 146/201/62
f 107/208/66 99/187/54 156/190/54 155/209/66
f 108/216/70 103/219/60 145/220/60 159/217/71
f 104/213/68 106/215/69 158/218/69 149/214/68
f 112/205/64 98/195/58 154/198/58 160/206/64
f 101/196/59 109/207/65 150/210/65 151/197/59
f 100/165/53 116/164/53 115/160/53 97/159/53
f 120/221/72 113/222/73 129/223/73 136/224/72
f 105/225/53 118/226/53 125/227/53 104/228/53
f 106/184/53 104/228/53 125/227/53 126/185/53
f 102/170/53 119/169/53 118/226/53 105/225/53
f 108/183/53 127/186/53 117/182/53 103/181/53
f 119/229/74 121/230/75 137/231/75 135/232/74
f 126/233/76 125/234/77 141/235/77 142/236/76
f 123/237/78 114/238/79 130/239/79 139/240/78
f 121/230/75 120/221/72 136/224/72 137/231/75
f 122/241/80 115/242/81 131/243/81 138/244/80
f 128/245/82 117/246/83 133/247/83 144/248/82
f 124/249/84 123/237/78 139/240/78 140/250/84
f 117/251/83 127/252/85 143/253/85 133/254/83
f 126/233/76 142/236/76 143/253/85 127/252/85
f 118/255/86 119/229/74 135/232/74 134/256/86
f 116/257/87 128/245/82 144/248/82 132/258/87
f 114/238/79 122/241/80 138/244/80 130/239/79
f 125/234/77 118/255/86 134/256/86 141/235/77
f 115/242/81 116/257/87 132/258/87 131/243/81
f 124/249/84 140/250/84 129/223/73 113/222/73
f 153/259/53 152/260/53 157/261/53 160/262/53 154/263/53 151/264/53 150/265/53 155/266/53 156/267/53 147/268/53 148/269/53 149/270/53 158/271/53 159/272/53 145/273/53 146/274/53
f 167/275/88 164/276/4 170/277/4 174/278/88
f 169/279/53 172/280/53 175/281/53 173/282/53 171/283/53 174/284/53 170/285/53 176/286/53
f 162/287/14 167/275/88 174/278/88 171/288/89
f 164/276/4 163/289/3 176/290/3 170/277/4
f 166/291/12 161/292/90 175/293/90 172/294/12
f 168/295/9 162/287/14 171/288/89 173/296/9
f 163/289/3 165/297/6 169/298/6 176/290/3
f 161/292/90 168/295/9 173/296/9 175/293/90
f 131/299/17 132/300/17 144/301/17 133/302/17 143/303/17 142/304/17 141/305/17 134/306/17 135/307/17 137/308/17 136/309/17 129/310/17 140/311/17 139/312/17 130/313/17 138/314/17
f 165/315/6 166/291/12 172/294/12 169/316/6
f 85/317/6 86/151/3 92/154/3 89/318/6
f 207/319/91 191/320/91 192/321/6 208/322/6
f 182/323/17 183/324/17 196/325/17 195/326/17
f 222/327/17 223/328/17 198/329/17 197/330/17
f 216/331/17 177/332/17 185/333/17 184/334/17
f 177/332/17 217/335/17 186/336/17 185/333/17
f 217/335/17 178/337/17 187/338/17 186/336/17
f 178/337/17 218/339/17 188/340/17 187/338/17
f 218/341/17 219/342/17 189/343/17 188/340/17
f 219/342/17 220/344/17 190/345/17 189/343/17
f 220/344/17 221/346/17 191/347/17 190/345/17
f 221/346/17 179/348/17 192/349/17 191/347/17
f 179/348/17 180/350/17 193/351/17 192/349/17
f 180/350/17 181/352/17 194/353/17 193/351/17
f 181/352/17 182/323/17 195/326/17 194/353/17
f 224/354/17 216/331/17 184/334/17 199/355/17
f 183/324/17 222/327/17 197/330/17 196/325/17
f 223/328/17 224/354/17 199/355/17 198/329/17
f 202/356/16 186/357/16 187/358/92 203/359/92
f 208/360/6 192/361/6 193/362/93 209/363/93
f 200/364/14 184/365/14 185/366/94 201/367/94
f 205/368/95 189/369/95 190/370/3 206/371/3
f 212/372/10 196/373/10 197/374/96 213/375/96
f 206/376/3 190/377/3 191/378/91 207/379/91
f 213/380/96 197/381/96 198/382/9 214/383/9
f 204/384/4 188/385/4 189/386/95 205/368/95
f 211/387/97 195/388/97 196/373/10 212/372/10
f 210/389/12 194/390/12 195/388/97 211/391/97
f 203/392/92 187/393/92 188/394/4 204/395/4
f 209/363/93 193/396/93 194/390/12 210/397/12
f 214/398/9 198/399/9 199/400/98 215/401/98
f 215/401/98 199/402/98 184/403/14 200/364/14
f 201/367/94 185/404/94 186/405/16 202/356/16
f 256/406/99 247/407/100 222/408/101 183/409/102
f 245/410/103 246/411/104 221/412/105 220/413/106
f 241/414/107 250/415/108 177/416/109 216/417/110
f 247/407/100 248/418/111 223/419/112 222/420/101
f 246/411/104 252/421/113 179/422/114 221/423/105
f 250/415/108 242/424/115 217/425/116 177/426/109
f 248/418/111 249/427/117 224/428/118 223/429/112
f 252/421/113 253/430/119 180/431/120 179/432/114
f 249/427/117 241/414/107 216/433/110 224/434/118
f 242/424/115 251/435/121 178/436/122 217/437/116
f 253/430/119 254/438/123 181/439/124 180/440/120
f 251/435/121 243/441/125 218/442/126 178/443/122
f 254/438/123 255/444/127 182/445/128 181/446/124
f 243/441/125 244/447/129 219/448/130 218/449/126
f 255/444/127 256/406/99 183/450/102 182/451/128
f 226/452/131 225/453/132 240/454/133 239/455/134 238/456/135 237/457/136 236/458/137 235/459/138 234/460/139 233/461/140 232/462/141 231/463/142 230/464/143 229/465/144 228/466/145 227/467/146
f 244/447/129 245/410/103 220/468/106 219/469/130
f 200/470/53 201/471/53 202/472/53 203/473/53 204/474/53 205/475/53 206/476/53 207/477/53 208/478/53 209/479/53 210/480/53 211/481/53 212/482/53 213/483/53 214/484/53 215/485/53
f 230/486/143 231/487/142 245/410/103 244/447/129
f 236/488/137 237/489/136 256/406/99 255/444/127
f 229/490/144 230/491/143 244/447/129 243/441/125
f 235/492/138 236/493/137 255/444/127 254/438/123
f 228/494/145 229/495/144 243/441/125 251/435/121
f 234/496/139 235/497/138 254/438/123 253/430/119
f 227/498/146 228/499/145 251/435/121 242/424/115
f 240/500/133 225/501/132 241/414/107 249/427/117
f 233/502/140 234/503/139 253/430/119 252/421/113
f 239/504/134 240/505/133 249/427/117 248/418/111
f 226/506/131 227/507/146 242/424/115 250/415/108
f 232/508/141 233/509/140 252/421/113 246/411/104
f 238/510/135 239/511/134 248/418/111 247/407/100
f 225/512/132 226/513/131 250/415/108 241/414/107
f 231/514/142 232/515/141 246/411/104 245/410/103
f 237/516/136 238/517/135 247/407/100 256/406/99
o ceiling_fan_mp_1_blades
v -0.017567 -0.037681 0.598798
v 0.000755 -0.032771 0.601068
v 0.019067 -0.027865 0.598706
v -0.019042 -0.032178 0.598798
v -0.000719 -0.027268 0.601068
v 0.017592 -0.022361 0.598706
v 0.053285 -0.018696 0.545710
v 0.030396 -0.024829 0.591446
v 0.047306 -0.020298 0.571509
v -0.028930 -0.040725 0.591595
v -0.051733 -0.046835 0.545993
v -0.045845 -0.045258 0.571749
v 0.028921 -0.019326 0.591446
v 0.051811 -0.013193 0.545710
v 0.045831 -0.014795 0.571509
v -0.053208 -0.041332 0.545993
v -0.030405 -0.035222 0.591595
v -0.047320 -0.039755 0.571749
v -0.015174 -0.010210 0.058115
v -0.015174 0.001790 0.058115
v 0.014826 -0.002093 0.058115
v 0.014826 0.009763 0.058115
v -0.000174 -0.036152 0.207141
v -0.015174 -0.040210 0.192141
v -0.015174 -0.028210 0.192141
v 0.014826 -0.032093 0.192141
v -0.000174 -0.024224 0.207141
v 0.014826 -0.020237 0.192141
v -0.015174 -0.040210 0.135128
v -0.015174 -0.028210 0.135128
v 0.014826 -0.032093 0.135128
v 0.014826 -0.020237 0.135128
v -0.015174 0.001790 0.086622
v -0.015174 -0.010210 0.086622
v 0.014826 0.009763 0.086622
v 0.014826 -0.002093 0.086622
v 0.025801 -0.026060 0.147139
v 0.037870 -0.022826 0.159110
v -0.036523 -0.042760 0.159233
v -0.024460 -0.039528 0.147224
v 0.036395 -0.017323 0.159110
v 0.024326 -0.020557 0.147139
v -0.025935 -0.034024 0.147224
v -0.037998 -0.037257 0.159233
v 0.000000 0.014600 -0.066981
v -0.061884 0.014600 -0.025633
v -0.061884 0.014600 0.025631
v -0.047364 0.014600 0.047361
v 0.000000 0.014600 0.066979
v 0.066978 0.014600 -0.000001
v 0.061880 0.014600 -0.025633
v 0.025630 0.014600 -0.061883
v 0.047365 0.014600 -0.047363
v -0.066978 0.014600 -0.000001
v -0.047360 0.014600 -0.047363
v -0.025630 0.014600 -0.061883
v 0.061884 0.014600 0.025631
v 0.047365 0.014600 0.047361
v 0.025635 0.014600 0.061881
v -0.025634 0.014600 0.061881
v -0.061884 -0.013732 0.025631
v -0.047364 -0.013732 0.047361
v 0.061884 -0.013732 0.025631
v 0.066978 -0.013732 -0.000001
v 0.047365 -0.013732 0.047361
v 0.061880 -0.013732 -0.025633
v 0.047365 -0.013732 -0.047363
v 0.025630 -0.013732 -0.061883
v 0.025635 -0.013732 0.061881
v 0.000000 -0.013732 0.066979
v 0.000000 -0.013732 -0.066981
v -0.025634 -0.013732 0.061881
v -0.025630 -0.013732 -0.061883
v -0.047360 -0.013732 -0.047363
v -0.061884 -0.013732 -0.025633
v -0.066978 -0.013732 -0.000001
v -0.058008 0.014600 0.033490
v 0.008743 0.014600 0.066409
v 0.053139 0.014600 0.040777
v 0.064698 0.014600 0.017338
v 0.058006 0.014600 -0.033490
v -0.033490 0.014600 -0.058004
v -0.053139 0.014600 -0.040773
v -0.066407 0.014600 0.008745
v -0.064700 0.014600 -0.017337
v 0.033488 0.014600 0.058005
v -0.017338 0.014600 0.064696
v -0.040777 0.014600 0.053137
v -0.008745 0.014600 -0.066409
v 0.017334 0.014600 -0.064700
v 0.040773 0.014600 -0.053141
v 0.066407 0.014600 -0.008740
v 0.053139 -0.013732 0.040777
v 0.064698 -0.013732 0.017338
v -0.008745 -0.013732 -0.066409
v -0.033490 -0.013732 -0.058004
v 0.017334 -0.013732 -0.064700
v -0.053139 -0.013732 -0.040773
v -0.064700 -0.013732 -0.017337
v -0.066407 -0.013732 0.008745
v 0.040773 -0.013732 -0.053141
v 0.058006 -0.013732 -0.033490
v -0.058008 -0.013732 0.033490
v 0.066407 -0.013732 -0.008740
v -0.040777 -0.013732 0.053137
v -0.017338 -0.013732 0.064696
v 0.008743 -0.013732 0.066409
v 0.033488 -0.013732 0.058005
v 0.058007 0.014600 0.033491
v 0.053141 0.014600 -0.040776
v 0.008745 0.014600 -0.066408
v -0.017334 0.014600 -0.064699
v -0.058006 0.014600 -0.033489
v -0.033488 0.014600 0.058005
v -0.008741 0.014600 0.066406
v 0.040777 0.014600 0.053138
v 0.017335 0.014600 0.064701
v 0.033490 0.014600 -0.058004
v 0.064698 0.014600 -0.017333
v 0.066407 0.014600 0.008745
v -0.053139 0.014600 0.040778
v -0.064698 0.014600 0.017339
v -0.066408 0.014600 -0.008740
v -0.040773 0.014600 -0.053140
v 0.008745 -0.013732 -0.066408
v -0.017334 -0.013732 -0.064699
v -0.053139 -0.013732 0.040778
v -0.033488 -0.013732 0.058005
v -0.064698 -0.013732 0.017338
v -0.008741 -0.013732 0.066406
v 0.017335 -0.013732 0.064701
v 0.040777 -0.013732 0.053138
v -0.066408 -0.013732 -0.008740
v -0.058006 -0.013732 -0.033489
v 0.058007 -0.013732 0.033491
v -0.040773 -0.013732 -0.053140
v 0.066407 -0.013732 0.008745
v 0.064698 -0.013732 -0.017333
v 0.053141 -0.013732 -0.040776
v 0.033490 -0.013732 -0.058004
v -0.509791 -0.037681 -0.314613
v -0.520918 -0.032771 -0.299880
v -0.528028 -0.027865 -0.282841
v -0.509053 -0.032178 -0.315890
v -0.520180 -0.027268 -0.301157
v -0.527291 -0.022361 -0.284118
v -0.499241 -0.018696 -0.226708
v -0.527405 -0.024829 -0.269399
v -0.518594 -0.020298 -0.244787
v -0.497871 -0.040725 -0.320851
v -0.446977 -0.046835 -0.317799
v -0.472227 -0.045258 -0.325578
v -0.526668 -0.019326 -0.270677
v -0.498504 -0.013193 -0.227985
v -0.517857 -0.014795 -0.246064
v -0.446240 -0.041332 -0.319076
v -0.497134 -0.035222 -0.322129
v -0.471489 -0.039755 -0.326855
v -0.042742 -0.010210 -0.042199
v -0.042742 0.001790 -0.042199
v -0.057742 -0.002093 -0.016218
v -0.057742 0.009763 -0.016218
v -0.179302 -0.036152 -0.103721
v -0.158812 -0.040210 -0.109212
v -0.158812 -0.028210 -0.109212
v -0.173812 -0.032093 -0.083231
v -0.179302 -0.024224 -0.103721
v -0.173812 -0.020237 -0.083231
v -0.109437 -0.040210 -0.080705
v -0.109437 -0.028210 -0.080705
v -0.124437 -0.032093 -0.054725
v -0.124437 -0.020237 -0.054725
v -0.067429 0.001790 -0.056452
v -0.067429 -0.010210 -0.056452
v -0.082429 0.009763 -0.030471
v -0.082429 -0.002093 -0.030471
v -0.140327 -0.026060 -0.051226
v -0.156728 -0.022826 -0.046759
v -0.119638 -0.042760 -0.111246
v -0.115269 -0.039528 -0.094795
v -0.155991 -0.017323 -0.048036
v -0.139589 -0.020557 -0.052503
v -0.114532 -0.034024 -0.096072
v -0.118901 -0.037257 -0.112523
v 0.527358 -0.037681 -0.284185
v 0.520163 -0.032771 -0.301188
v 0.508961 -0.027865 -0.315865
v 0.528095 -0.032178 -0.282908
v 0.520900 -0.027268 -0.299911
v 0.509698 -0.022361 -0.314588
v 0.445956 -0.018696 -0.319001
v 0.497009 -0.024829 -0.322046
v 0.471289 -0.020298 -0.326723
v 0.526801 -0.040725 -0.270743
v 0.498711 -0.046835 -0.228194
v 0.518072 -0.045258 -0.246171
v 0.497747 -0.019326 -0.320769
v 0.446693 -0.013193 -0.317724
v 0.472026 -0.014795 -0.325445
v 0.499448 -0.041332 -0.226917
v 0.527538 -0.035222 -0.269466
v 0.518809 -0.039755 -0.244894
v 0.057916 -0.010210 -0.015916
v 0.057916 0.001790 -0.015916
v 0.042916 -0.002093 -0.041897
v 0.042916 0.009763 -0.041897
v 0.179476 -0.036152 -0.103419
v 0.173986 -0.040210 -0.082929
v 0.173986 -0.028210 -0.082929
v 0.158986 -0.032093 -0.108910
v 0.179476 -0.024224 -0.103419
v 0.158986 -0.020237 -0.108910
v 0.124611 -0.040210 -0.054423
v 0.124611 -0.028210 -0.054423
v 0.109611 -0.032093 -0.080403
v 0.109611 -0.020237 -0.080403
v 0.082604 0.001790 -0.030169
v 0.082604 -0.010210 -0.030169
v 0.067604 0.009763 -0.056150
v 0.067604 -0.002093 -0.056150
v 0.114526 -0.026060 -0.095914
v 0.118858 -0.022826 -0.112351
v 0.156161 -0.042760 -0.047987
v 0.139730 -0.039528 -0.052428
v 0.119595 -0.017323 -0.111074
v 0.115263 -0.020557 -0.094637
v 0.140467 -0.034024 -0.051151
v 0.156899 -0.037257 -0.046710
vn -0.2588 0.9659 -0.0000
vn -0.3169 -0.0849 0.9446
vn -0.6212 -0.1665 0.7657
vn 0.3213 0.0861 0.9430
vn 0.0023 0.0006 1.0000
vn 0.6239 0.1672 0.7634
vn -0.8578 -0.2298 0.4597
vn -0.9615 -0.2576 0.0957
vn 0.9614 0.2576 0.0970
vn 0.8576 0.2298 0.4600
vn 0.2588 -0.9659 -0.0000
vn -0.2568 0.9665 -0.0000
vn 0.2612 -0.9653 -0.0000
vn 1.0000 -0.0000 -0.0000
vn -1.0000 -0.0000 -0.0000
vn -0.7071 -0.0000 0.7071
vn 0.7071 -0.0000 0.7071
vn 0.2242 -0.8288 -0.5126
vn -0.2205 0.8296 0.5131
vn -0.6695 -0.1794 -0.7208
vn 0.6682 0.1790 -0.7221
vn -0.0016 -0.0004 -1.0000
vn 0.9651 0.2586 -0.0412
vn -0.9651 -0.2586 -0.0407
vn -0.7071 -0.0000 -0.7072
vn -0.3827 -0.0000 -0.9239
vn 0.7071 -0.0000 -0.7071
vn 0.9239 -0.0000 -0.3826
vn 1.0000 -0.0000 -0.0001
vn 0.9239 -0.0000 0.3826
vn -0.0000 -0.0000 1.0000
vn -0.3827 -0.0000 0.9239
vn -0.0000 -0.0000 -1.0000
vn 0.3826 -0.0000 -0.9239
vn -0.9239 -0.0000 -0.3827
vn 0.3827 -0.0000 0.9239
vn -0.9239 -0.0000 0.3826
vn -0.2589 -0.0000 0.9659
vn -0.6088 -0.0000 0.7934
vn -0.9659 -0.0000 -0.2588
vn -0.7933 -0.0000 -0.6088
vn -0.5001 -0.0000 -0.8660
vn -0.1306 -0.0000 -0.9914
vn 0.8660 -0.0000 -0.5000
vn 0.9914 -0.0000 -0.1305
vn 0.2588 -0.0000 -0.9659
vn -0.8660 -0.0000 0.5000
vn 0.9659 -0.0000 0.2588
vn -0.9914 -0.0000 0.1306
vn 0.1305 -0.0000 0.9914
vn 0.6088 -0.0000 -0.7933
vn 0.7933 -0.0000 0.6088
vn 0.5000 -0.0000 0.8660
vn 0.9659 -0.0000 -0.2587
vn 0.9914 -0.0000 0.1305
vn 0.2588 -0.0000 0.9659
vn -0.1306 -0.0000 0.9914
vn -0.4999 -0.0000 0.8661
vn -0.7933 -0.0000 0.6088
vn -0.8660 -0.0000 -0.5000
vn -0.6088 -0.0000 -0.7933
vn -0.9659 -0.0000 0.2588
vn 0.8660 -0.0000 0.5000
vn -0.2588 -0.0000 -0.9659
vn 0.6088 -0.0000 0.7933
vn 0.7933 -0.0000 -0.6088
vn -0.9914 -0.0000 -0.1305
vn 0.1306 -0.0000 -0.9914
vn 0.5000 -0.0000 -0.8660
vn 0.1294 0.9659 -0.2241
vn 0.1294 0.9659 -0.2242
vn -0.6596 -0.0849 -0.7468
vn -0.3525 -0.1665 -0.9209
vn -0.9774 0.0861 -0.1932
vn -0.8672 0.0006 -0.4980
vn -0.9731 0.1672 0.1586
vn 0.0308 -0.2298 -0.9727
vn 0.3979 -0.2576 -0.8805
vn -0.5647 0.2576 0.7841
vn -0.8272 0.2298 0.5127
vn -0.1294 -0.9659 0.2241
vn 0.1284 0.9665 -0.2224
vn -0.1306 -0.9653 0.2262
vn -0.5000 -0.0000 0.8660
vn 0.3318 -0.8288 0.4505
vn -0.3341 0.8296 -0.4475
vn 0.9590 -0.1794 -0.2194
vn 0.2913 0.1790 0.9397
vn 0.8668 -0.0004 0.4986
vn -0.4468 0.2586 0.8564
vn 0.5178 -0.2586 -0.8155
vn 0.1294 0.9659 0.2241
vn 0.9765 -0.0849 -0.1979
vn 0.9738 -0.1665 0.1551
vn 0.9738 -0.1665 0.1552
vn 0.6560 0.0861 -0.7498
vn 0.8649 0.0006 -0.5020
vn 0.3492 0.1672 -0.9220
vn 0.8270 -0.2298 0.5130
vn 0.5636 -0.2576 0.7848
vn -0.3967 0.2576 -0.8811
vn -0.0304 0.2298 -0.9728
vn -0.1294 -0.9659 -0.2241
vn 0.1284 0.9665 0.2224
vn -0.1306 -0.9653 -0.2262
vn -0.5000 -0.0000 -0.8660
vn -0.5561 -0.8288 0.0621
vn 0.5546 0.8296 -0.0656
vn -0.2894 -0.1794 0.9402
vn -0.9595 0.1790 -0.2176
vn -0.8652 -0.0004 0.5014
vn -0.5183 0.2586 -0.8152
vn 0.4473 -0.2586 0.8562
vt 0.488324 0.039556
vt 0.483947 0.097967
vt 0.482569 0.068494
vt 0.444772 0.662907
vt 0.444772 0.671706
vt 0.432876 0.671706
vt 0.432876 0.662907
vt 0.486007 0.662907
vt 0.486007 0.671707
vt 0.465386 0.671706
vt 0.465386 0.662907
vt 0.497941 0.662907
vt 0.497941 0.671707
vt 0.399569 0.671706
vt 0.399569 0.662907
vt 0.362318 0.671706
vt 0.362318 0.662907
vt 0.568805 0.662908
vt 0.568804 0.671707
vt 0.531416 0.671707
vt 0.531416 0.662907
vt 1.240465 -0.295330
vt 1.246221 -0.266392
vt 1.244843 -0.236919
vt 0.573912 -0.009095
vt 0.561336 0.158347
vt 0.522343 0.146081
vt 0.533481 -0.002440
vt 0.493729 0.116891
vt 0.500817 0.022300
vt 1.227970 -0.312584
vt 1.235058 -0.217994
vt 1.195307 -0.337325
vt 1.206444 -0.188803
vt 1.154875 -0.343980
vt 1.167451 -0.176538
vt 0.529571 0.320974
vt 0.470597 0.320974
vt 0.500084 0.290974
vt 0.470678 0.320974
vt 0.529454 0.320974
vt 0.500066 0.290974
vt 0.436754 0.519891
vt 0.340974 0.519708
vt 0.340974 0.500011
vt 0.436111 0.507119
vt 0.532013 0.480000
vt 0.532013 0.504000
vt 0.589026 0.504000
vt 0.589025 0.480000
vt 0.520000 0.488117
vt 0.520000 0.511973
vt 0.490000 0.504000
vt 0.490000 0.480000
vt 0.310974 0.514171
vt 0.310974 0.496701
vt 0.320974 0.479800
vt 0.320974 0.502996
vt 0.435000 0.504000
vt 0.435000 0.490647
vt 0.532013 0.519945
vt 0.532013 0.496234
vt 0.529454 0.532013
vt 0.529454 0.435000
vt 0.470678 0.435000
vt 0.470678 0.532013
vt 0.589026 0.519945
vt 0.589025 0.496234
vt 0.470598 0.532013
vt 0.470598 0.435000
vt 0.529571 0.435000
vt 0.529571 0.532013
vt 0.529454 0.589026
vt 0.470678 0.589025
vt 0.470598 0.589025
vt 0.529571 0.589026
vt -0.252303 0.671710
vt -0.252304 0.662911
vt -0.233822 0.662911
vt -0.233822 0.671710
vt 1.183180 0.662911
vt 1.183180 0.671710
vt 1.164700 0.671710
vt 1.164700 0.662911
vt 0.514464 -0.491591
vt 0.434102 -0.491591
vt 0.434102 -0.500390
vt 0.514464 -0.500390
vt 0.544106 -0.255644
vt 0.561150 -0.276228
vt 0.569940 -0.157607
vt 0.550046 -0.175502
vt 1.167637 0.058657
vt 1.184681 0.079240
vt 1.178741 0.159382
vt 1.158847 0.177278
vt 0.013551 0.574996
vt 0.013551 0.537496
vt 0.054205 0.537496
vt 0.054205 0.574996
vt 0.013551 0.424998
vt 0.013551 0.387501
vt 0.054205 0.387501
vt 0.054205 0.424998
vt 0.013551 0.350002
vt 0.013551 0.312503
vt 0.054205 0.312503
vt 0.054205 0.350002
vt 0.013551 0.800000
vt 0.013551 0.762497
vt 0.054205 0.762497
vt 0.054205 0.800000
vt 0.013551 0.275003
vt 0.054205 0.275003
vt 0.013551 0.500000
vt 0.054205 0.500000
vt 0.013551 0.724997
vt 0.054205 0.724997
vt 0.013551 0.462503
vt 0.054205 0.462503
vt 0.013551 0.612500
vt 0.054205 0.612500
vt 0.013551 0.237503
vt 0.054205 0.237503
vt 0.013551 0.687497
vt 0.013551 0.649999
vt 0.054205 0.649999
vt 0.054205 0.687497
vt 0.013551 0.200000
vt 0.054205 0.200000
s 0
usemtl plastic_mp_3
f 284/554/158 281/555/158 283/556/158
f 280/557/159 282/558/159 279/559/159
f 288/560/160 284/561/160 282/562/160 287/563/160
f 290/564/161 289/565/161 276/566/161 275/567/161
f 279/568/162 283/569/162 281/570/162 280/571/162
f 283/572/163 279/573/163 282/562/163 284/561/163
f 280/574/161 281/575/161 286/576/161 285/577/161
f 291/578/160 288/560/160 287/563/160 292/579/160
f 292/580/164 287/581/164 285/582/164 290/583/164
f 285/577/161 286/576/161 289/565/161 290/564/161
f 278/584/160 291/578/160 292/579/160 277/585/160
f 289/586/165 286/587/165 288/588/165 291/589/165
f 277/590/159 292/580/159 290/583/159 275/591/159
f 276/592/158 289/586/158 291/589/158 278/593/158
f 288/588/158 286/587/158 281/555/158 284/554/158
f 285/582/159 287/581/159 282/558/159 280/557/159
s 1
f 311/614/171 312/615/172 329/616/172 330/617/171
f 309/618/173 307/619/174 322/620/174 323/621/173
f 306/622/175 313/623/176 319/624/176 320/625/175
f 305/626/177 316/627/178 328/628/178 326/629/177
f 313/623/176 314/630/163 321/631/163 319/624/176
f 312/615/172 301/632/179 327/633/179 329/616/172
f 307/619/174 306/622/175 320/625/175 322/620/174
f 316/627/178 304/634/162 318/635/162 328/628/178
f 308/636/180 309/618/173 323/621/173 324/637/180
f 302/638/181 311/614/171 330/617/171 331/639/181
f 314/630/163 315/640/182 325/641/182 321/631/163
f 303/642/183 310/643/161 332/644/161 317/645/183
f 315/640/182 305/646/177 326/647/177 325/641/182
f 310/643/161 302/638/181 331/639/181 332/644/161
f 301/632/179 308/636/180 324/637/180 327/633/179
f 304/634/162 303/642/183 317/645/183 318/635/162
f 343/614/184 344/615/185 361/616/185 362/617/184
f 341/618/186 339/619/187 354/620/187 355/621/186
f 338/622/188 345/623/189 351/624/189 352/625/188
f 337/626/190 348/627/191 360/628/191 358/629/190
f 345/623/189 346/630/192 353/631/192 351/624/189
f 344/615/185 333/632/193 359/633/193 361/616/185
f 339/619/187 338/622/188 352/625/188 354/620/187
f 348/627/191 336/634/194 350/635/194 360/628/191
f 340/636/195 341/618/186 355/621/186 356/637/195
f 334/638/196 343/614/184 362/617/184 363/639/196
f 346/630/192 347/640/197 357/641/197 353/631/192
f 335/642/198 342/643/199 364/644/199 349/645/198
f 347/640/197 337/646/190 358/647/190 357/641/197
f 342/643/199 334/638/196 363/639/196 364/644/199
f 333/632/193 340/636/195 356/637/195 359/633/193
f 336/634/194 335/642/198 349/645/198 350/635/194
f 375/614/200 376/615/201 393/616/201 394/617/200
f 373/618/202 371/619/203 386/620/203 387/621/202
f 370/622/204 377/623/205 383/624/205 384/625/204
f 369/626/206 380/627/207 392/628/207 390/629/206
f 377/623/205 378/630/208 385/631/208 383/624/205
f 376/615/201 365/632/209 391/633/209 393/616/201
f 371/619/203 370/622/204 384/625/204 386/620/203
f 380/627/207 368/634/210 382/635/210 392/628/207
f 372/636/211 373/618/202 387/621/202 388/637/211
f 366/638/212 375/614/200 394/617/200 395/639/212
f 378/630/208 379/640/213 389/641/213 385/631/208
f 367/642/214 374/643/215 396/644/215 381/645/214
f 379/640/213 369/646/206 390/647/206 389/641/213
f 374/643/215 366/638/212 395/639/212 396/644/215
f 365/632/209 372/636/211 388/637/211 391/633/209
f 368/634/210 367/642/214 381/645/214 382/635/210
s 0
f 424/554/228 421/555/228 423/556/228
f 420/557/229 422/558/229 419/559/229
f 428/560/230 424/561/230 422/562/230 427/563/230
f 430/564/215 429/565/215 416/566/215 415/567/215
f 419/568/210 423/569/210 421/570/210 420/571/210
f 423/572/208 419/573/208 422/562/208 424/561/208
f 420/574/215 421/575/215 426/576/215 425/577/215
f 431/578/230 428/560/230 427/563/230 432/579/230
f 432/580/231 427/581/231 425/582/231 430/583/231
f 425/577/215 426/576/215 429/565/215 430/564/215
f 418/584/230 431/578/230 432/579/230 417/585/230
f 429/586/232 426/587/232 428/588/232 431/589/232
f 417/590/229 432/580/229 430/583/229 415/591/229
f 416/592/228 429/586/228 431/589/228 418/593/228
f 428/588/228 426/587/228 421/555/228 424/554/228
f 425/582/229 427/581/229 422/558/229 420/557/229
f 468/554/250 465/555/250 467/556/250
f 464/557/251 466/558/251 463/559/251
f 472/560/252 468/561/252 466/562/252 471/563/252
f 474/564/199 473/565/199 460/566/199 459/567/199
f 463/568/194 467/569/194 465/570/194 464/571/194
f 467/572/192 463/573/192 466/562/192 468/561/192
f 464/574/199 465/575/199 470/576/199 469/577/199
f 475/578/252 472/560/252 471/563/252 476/579/252
f 476/580/253 471/581/253 469/582/253 474/583/253
f 469/577/199 470/576/199 473/565/199 474/564/199
f 462/584/252 475/578/252 476/579/252 461/585/252
f 473/586/254 470/587/254 472/588/254 475/589/254
f 461/590/251 476/580/251 474/583/251 459/591/251
f 460/592/250 473/586/250 475/589/250 462/593/250
f 472/588/250 470/587/250 465/555/250 468/554/250
f 469/582/251 471/581/251 466/558/251 464/557/251
s 1
usemtl wood_4
f 262/518/147 260/519/147 261/520/147
f 257/521/148 260/522/148 273/523/149 266/524/149
f 259/525/150 262/526/150 261/527/151 258/528/151
f 264/529/152 269/530/152 262/526/150 259/525/150
f 258/528/151 261/527/151 260/522/148 257/521/148
f 266/524/149 273/523/149 274/531/153 268/532/153
f 268/532/153 274/531/153 272/533/154 267/534/154
f 263/535/155 270/536/155 271/537/156 265/538/156
f 265/538/156 271/537/156 269/530/152 264/529/152
f 259/539/157 258/540/157 257/541/157
f 270/542/147 272/543/147 274/544/147 271/545/147
f 271/545/147 274/544/147 273/546/147 269/547/147
f 269/547/147 273/546/147 260/519/147 262/518/147
f 264/548/157 259/539/157 257/541/157 266/549/157
f 265/550/157 264/548/157 266/549/157 268/551/157
f 263/552/157 265/550/157 268/551/157 267/553/157
f 299/594/166 296/595/166 295/596/166 300/597/166
f 293/598/167 298/599/167 297/600/167 294/601/167
f 299/602/168 298/603/168 293/604/168 296/605/168
f 297/600/169 270/536/155 263/535/155 294/601/169
f 293/606/157 294/607/157 263/552/157 267/553/157 295/608/157 296/609/157
f 295/596/170 267/534/154 272/533/154 300/597/170
f 297/610/147 298/611/147 299/612/147 300/613/147 272/543/147 270/542/147
f 402/518/216 400/519/216 401/520/217
f 397/521/218 400/522/218 413/523/219 406/524/219
f 399/525/220 402/526/220 401/527/221 398/528/221
f 404/529/222 409/530/222 402/526/220 399/525/220
f 398/528/221 401/527/221 400/522/218 397/521/218
f 406/524/219 413/523/219 414/531/223 408/532/223
f 408/532/223 414/531/223 412/533/224 407/534/224
f 403/535/225 410/536/225 411/537/226 405/538/226
f 405/538/226 411/537/226 409/530/222 404/529/222
f 399/539/227 398/540/227 397/541/227
f 410/542/216 412/543/216 414/544/216 411/545/216
f 411/545/216 414/544/216 413/546/216 409/547/216
f 409/547/216 413/546/216 400/519/216 402/518/216
f 404/548/227 399/539/227 397/541/227 406/549/227
f 405/550/227 404/548/227 406/549/227 408/551/227
f 403/552/227 405/550/227 408/551/227 407/553/227
f 439/594/233 436/595/233 435/596/233 440/597/233
f 433/598/234 438/599/234 437/600/234 434/601/234
f 439/602/235 438/603/235 433/604/235 436/605/235
f 437/600/236 410/536/225 403/535/225 434/601/236
f 433/606/227 434/607/227 403/552/227 407/553/227 435/608/227 436/609/227
f 435/596/237 407/534/224 412/533/224 440/597/237
f 437/610/216 438/611/216 439/612/216 440/613/216 412/543/216 410/542/216
f 446/518/238 444/519/238 445/520/238
f 441/521/239 444/522/239 457/523/240 450/524/241
f 443/525/242 446/526/242 445/527/243 442/528/243
f 448/529/244 453/530/244 446/526/242 443/525/242
f 442/528/243 445/527/243 444/522/239 441/521/239
f 450/524/241 457/523/240 458/531/245 452/532/245
f 452/532/245 458/531/245 456/533/246 451/534/246
f 447/535/247 454/536/247 455/537/248 449/538/248
f 449/538/248 455/537/248 453/530/244 448/529/244
f 443/539/249 442/540/249 441/541/249
f 454/542/238 456/543/238 458/544/238 455/545/238
f 455/545/238 458/544/238 457/546/238 453/547/238
f 453/547/238 457/546/238 444/519/238 446/518/238
f 448/548/249 443/539/249 441/541/249 450/549/249
f 449/550/249 448/548/249 450/549/249 452/551/249
f 447/552/249 449/550/249 452/551/249 451/553/249
f 483/594/255 480/595/255 479/596/255 484/597/255
f 477/598/256 482/599/256 481/600/256 478/601/256
f 483/602/257 482/603/257 477/604/257 480/605/257
f 481/600/258 454/536/247 447/535/247 478/601/258
f 477/606/249 478/607/249 447/552/249 451/553/249 479/608/249 480/609/249
f 479/596/259 451/534/246 456/533/246 484/597/259
f 481/610/238 482/611/238 483/612/238 484/613/238 456/543/238 454/542/238
