# Blender 5.0.1
# www.blender.org
mtllib cell_phone_3.mtl
o cell_phone_3
v -0.000000 0.010000 -0.111290
v -0.000000 0.010000 0.110894
v -0.019247 0.010000 -0.110219
v -0.037005 0.010000 -0.106161
v -0.043598 0.010000 -0.101035
v -0.044762 0.010000 -0.083489
v -0.045615 0.010000 -0.046136
v -0.045298 0.010000 -0.000792
v -0.044943 0.010000 0.059228
v -0.043957 0.010000 0.091918
v -0.042023 0.010000 0.100204
v -0.037546 0.010000 0.105709
v -0.027710 0.010000 0.109159
v -0.013178 0.010000 0.110554
v 0.019247 0.010000 -0.110220
v 0.037005 0.010000 -0.106162
v 0.043598 0.010000 -0.101036
v 0.044762 0.010000 -0.083490
v 0.045615 0.010000 -0.046138
v 0.045298 0.010000 -0.000793
v 0.044943 0.010000 0.059227
v 0.043957 0.010000 0.091917
v 0.042023 0.010000 0.100203
v 0.037546 0.010000 0.105708
v 0.027710 0.010000 0.109158
v 0.013178 0.010000 0.110553
v 0.000000 0.000000 -0.103778
v -0.018196 0.000000 -0.102766
v -0.033714 0.000000 -0.099220
v -0.036338 0.000000 -0.097180
v -0.037268 0.000000 -0.083155
v -0.038114 0.000000 -0.046077
v -0.037798 0.000000 -0.000840
v -0.037444 0.000000 0.059093
v -0.036483 0.000000 0.090943
v -0.035113 0.000000 0.096815
v -0.033065 0.000000 0.099333
v -0.026087 0.000000 0.101781
v -0.012723 0.000000 0.103063
v -0.000001 0.000000 0.103392
v 0.018196 0.000000 -0.102767
v 0.033714 0.000000 -0.099221
v 0.036338 0.000000 -0.097181
v 0.037268 0.000000 -0.083156
v 0.038114 0.000000 -0.046078
v 0.037798 0.000000 -0.000841
v 0.037444 0.000000 0.059091
v 0.036483 0.000000 0.090942
v 0.035113 0.000000 0.096814
v 0.033065 0.000000 0.099332
v 0.026087 0.000000 0.101780
v 0.012722 0.000000 0.103062
v -0.000000 0.030000 -0.111290
v -0.000000 0.030000 0.110894
v -0.019247 0.030000 -0.110219
v -0.037005 0.030000 -0.106161
v -0.043598 0.030000 -0.101035
v -0.044762 0.030000 -0.083489
v -0.045615 0.030000 -0.046136
v -0.045298 0.030000 -0.000792
v -0.044943 0.030000 0.059228
v -0.043957 0.030000 0.091918
v -0.042023 0.030000 0.100204
v -0.037546 0.030000 0.105709
v -0.027710 0.030000 0.109159
v -0.013178 0.030000 0.110554
v 0.019247 0.030000 -0.110220
v 0.037005 0.030000 -0.106162
v 0.043598 0.030000 -0.101036
v 0.044762 0.030000 -0.083490
v 0.045615 0.030000 -0.046138
v 0.045298 0.030000 -0.000793
v 0.044943 0.030000 0.059227
v 0.043957 0.030000 0.091917
v 0.042023 0.030000 0.100203
v 0.037546 0.030000 0.105708
v 0.027710 0.030000 0.109158
v 0.013178 0.030000 0.110553
v 0.000000 0.035000 -0.103778
v -0.018196 0.035000 -0.102766
v -0.035026 0.035000 -0.098200
v -0.037268 0.035000 -0.083155
v -0.037798 0.035000 -0.000840
v -0.037444 0.035000 0.059093
v -0.036483 0.035000 0.090943
v -0.034089 0.035000 0.098074
v -0.026087 0.035000 0.101781
v -0.012723 0.035000 0.103063
v -0.000001 0.035000 0.103392
v 0.018196 0.035000 -0.102767
v 0.035026 0.035000 -0.098201
v 0.037268 0.035000 -0.083156
v 0.037798 0.035000 -0.000841
v 0.037444 0.035000 0.059091
v 0.036483 0.035000 0.090942
v 0.034089 0.035000 0.098073
v 0.026087 0.035000 0.101780
v 0.012722 0.035000 0.103062
v -0.030099 0.035000 -0.063750
v -0.030098 0.035000 -0.003399
v 0.030041 0.035000 -0.003398
v 0.030041 0.035000 -0.063750
v -0.030099 0.032500 -0.063750
v -0.030098 0.032500 -0.003399
v 0.030041 0.032500 -0.003398
v 0.030041 0.032500 -0.063750
v -0.000000 0.000000 0.090942
v -0.000000 0.000000 0.059092
v -0.000000 -0.000000 -0.083156
v -0.000000 -0.000000 -0.000841
vn -0.0000 -1.0000 -0.0000
vn -0.1116 -0.6014 -0.7911
vn -0.1327 -0.3120 -0.9408
vn -0.0000 -0.3133 -0.9497
vn -0.0000 -0.6006 -0.7996
vn -0.3397 -0.6092 -0.7166
vn -0.4075 -0.3090 -0.8594
vn -0.6823 -0.6350 -0.3623
vn -0.8391 -0.3122 -0.4455
vn -0.7991 -0.6001 -0.0356
vn -0.9482 -0.3150 -0.0422
vn -0.7999 -0.6000 -0.0063
vn -0.9489 -0.3154 -0.0075
vn -0.8000 -0.6000 0.0052
vn -0.9487 -0.3163 0.0061
vn -0.7998 -0.6000 0.0144
vn -0.9488 -0.3155 0.0171
vn -0.7919 -0.6019 0.1033
vn -0.9423 -0.3115 0.1229
vn -0.7115 -0.6099 0.3490
vn -0.8539 -0.3089 0.4188
vn -0.4536 -0.6147 0.6453
vn -0.5470 -0.3089 0.7781
vn -0.1714 -0.6028 0.7793
vn -0.2042 -0.3108 0.9283
vn -0.0486 -0.6002 0.7983
vn -0.0576 -0.3143 0.9476
vn -0.0000 -0.6001 0.7999
vn -0.0000 -0.3148 0.9492
vn 0.3397 -0.6092 -0.7166
vn 0.1116 -0.6014 -0.7911
vn 0.1327 -0.3120 -0.9408
vn 0.4075 -0.3090 -0.8594
vn 0.6823 -0.6350 -0.3623
vn 0.8391 -0.3122 -0.4455
vn 0.7991 -0.6001 -0.0356
vn 0.9482 -0.3150 -0.0422
vn 0.7999 -0.6000 -0.0063
vn 0.9489 -0.3154 -0.0075
vn 0.8000 -0.6000 0.0052
vn 0.9487 -0.3163 0.0061
vn 0.7998 -0.6000 0.0144
vn 0.9488 -0.3155 0.0171
vn 0.7919 -0.6019 0.1033
vn 0.9423 -0.3115 0.1229
vn 0.7115 -0.6099 0.3490
vn 0.8539 -0.3089 0.4188
vn 0.4536 -0.6147 0.6453
vn 0.5470 -0.3089 0.7781
vn 0.1714 -0.6028 0.7793
vn 0.2042 -0.3108 0.9283
vn 0.0486 -0.6002 0.7983
vn 0.0577 -0.3143 0.9476
vn -0.0000 1.0000 -0.0000
vn -0.0810 0.8389 -0.5383
vn -0.0000 0.8324 -0.5541
vn -0.0000 0.4654 -0.8851
vn -0.1260 0.4668 -0.8753
vn -0.3499 0.8795 -0.3224
vn -0.3782 0.4552 -0.8061
vn -0.7919 0.4482 -0.4147
vn -0.5349 0.8443 -0.0331
vn -0.8775 0.4776 -0.0445
vn -0.8754 0.4833 -0.0066
vn -0.5546 0.8321 0.0100
vn -0.5527 0.8333 0.0031
vn -0.8816 0.4719 0.0057
vn -0.8823 0.4704 0.0159
vn -0.5369 0.8396 0.0827
vn -0.8768 0.4654 0.1206
vn -0.3794 0.8620 0.3362
vn -0.7998 0.4542 0.3925
vn -0.5121 0.4519 0.7304
vn -0.1280 0.8415 0.5249
vn -0.1959 0.4644 0.8637
vn -0.0337 0.8322 0.5534
vn -0.0537 0.4677 0.8823
vn -0.0000 0.8321 0.5546
vn -0.0000 0.4687 0.8833
vn 0.3499 0.8795 -0.3224
vn 0.3782 0.4552 -0.8061
vn 0.1260 0.4668 -0.8753
vn 0.0810 0.8389 -0.5383
vn 0.7919 0.4482 -0.4147
vn 0.5349 0.8443 -0.0331
vn 0.8775 0.4776 -0.0445
vn 0.8754 0.4833 -0.0066
vn 0.5527 0.8333 0.0031
vn 0.8816 0.4719 0.0057
vn 0.5546 0.8321 0.0100
vn 0.8823 0.4704 0.0159
vn 0.5369 0.8396 0.0827
vn 0.8768 0.4654 0.1206
vn 0.3794 0.8620 0.3362
vn 0.7998 0.4542 0.3925
vn 0.5121 0.4519 0.7304
vn 0.1280 0.8415 0.5249
vn 0.1959 0.4644 0.8637
vn 0.0337 0.8322 0.5534
vn 0.0537 0.4677 0.8823
vn -0.0000 -0.0000 1.0000
vn -0.0000 -0.0000 -1.0000
vn -1.0000 -0.0000 -0.0000
vn 1.0000 -0.0000 -0.0000
vt 0.660621 0.103068
vt 0.660621 0.050911
vt 0.700566 0.052326
vt 0.742527 0.057845
vt 0.764434 0.068381
vt 0.770864 0.079222
vt 0.775167 0.104499
vt 0.546073 0.104504
vt 0.550376 0.079227
vt 0.556807 0.068386
vt 0.578714 0.057851
vt 0.620676 0.052331
vt 0.717751 0.914502
vt 0.721051 0.946585
vt 0.660621 0.947614
vt 0.660621 0.918860
vt 0.766472 0.899238
vt 0.776805 0.929117
vt 0.774710 0.890457
vt 0.797508 0.907052
vt 0.777631 0.830086
vt 0.801160 0.831523
vt 0.780288 0.702816
vt 0.803838 0.703072
vt 0.779296 0.508088
vt 0.802843 0.507880
vt 0.778184 0.250098
vt 0.801730 0.249516
vt 0.798633 0.100301
vt 0.792561 0.064631
vt 0.778506 0.040935
vt 0.747623 0.026083
vt 0.701996 0.020081
vt 0.660621 0.018615
vt 0.554768 0.899243
vt 0.603489 0.914507
vt 0.600189 0.946590
vt 0.544436 0.929122
vt 0.546530 0.890462
vt 0.523733 0.907056
vt 0.543610 0.830091
vt 0.520080 0.831528
vt 0.540953 0.702821
vt 0.517403 0.703077
vt 0.541945 0.508093
vt 0.518397 0.507885
vt 0.543057 0.250103
vt 0.519511 0.249521
vt 0.522607 0.100306
vt 0.528679 0.064636
vt 0.542735 0.040940
vt 0.573618 0.026088
vt 0.619245 0.020086
vt 0.062500 0.520833
vt 0.036865 0.508088
vt 0.038057 0.250098
vt 0.265625 0.520833
vt 0.290068 0.250103
vt 0.291260 0.508093
vt 0.102829 0.946841
vt 0.164062 0.951199
vt 0.164062 0.983534
vt 0.099292 0.978924
vt 0.046328 0.928323
vt 0.039534 0.961456
vt 0.017345 0.939390
vt 0.038650 0.862425
vt 0.013430 0.863862
vt 0.010561 0.703072
vt 0.011626 0.507880
vt 0.012820 0.249516
vt 0.041290 0.112994
vt 0.016138 0.108797
vt 0.048060 0.076882
vt 0.022647 0.073126
vt 0.037711 0.049431
vt 0.076274 0.066341
vt 0.070812 0.034578
vt 0.121249 0.060821
vt 0.119716 0.028576
vt 0.164062 0.059406
vt 0.164062 0.027111
vt 0.282226 0.929412
vt 0.288591 0.961461
vt 0.228833 0.978929
vt 0.225297 0.946846
vt 0.310780 0.939395
vt 0.289475 0.862430
vt 0.314695 0.863867
vt 0.317564 0.703077
vt 0.316499 0.507885
vt 0.315305 0.249521
vt 0.286835 0.112999
vt 0.311987 0.108802
vt 0.278328 0.076882
vt 0.305478 0.073131
vt 0.290414 0.049436
vt 0.251851 0.066346
vt 0.257313 0.034583
vt 0.206875 0.060826
vt 0.208409 0.028581
vt 0.382812 0.927083
vt 0.382812 0.895833
vt 0.445312 0.895833
vt 0.445312 0.927083
vt 0.382812 0.677083
vt 0.445312 0.677083
vt 0.445312 0.489583
vt 0.382812 0.489583
vt 0.914063 0.442705
vt 0.914063 0.401038
vt 0.976563 0.401038
vt 0.976563 0.442705
vt 0.914063 0.192705
vt 0.976563 0.192705
vt 0.976563 0.255205
vt 0.914063 0.255205
vt 0.382812 0.906250
vt 0.382812 0.833333
vt 0.445312 0.833333
vt 0.445312 0.906250
vt 0.445312 0.239583
vt 0.382812 0.239583
vt 0.914063 0.317705
vt 0.976563 0.317705
vt 0.445312 0.104167
vt 0.382812 0.104167
vt 0.445312 0.072917
vt 0.382812 0.072917
vt 0.882812 0.625000
vt 0.945313 0.625000
vt 0.945313 0.520833
vt 0.882812 0.520833
vt 0.382812 0.083333
vt 0.445312 0.083333
vt 0.445312 0.052083
vt 0.382812 0.052083
vt 0.914063 0.067705
vt 0.976563 0.067705
vt 0.976563 0.109372
vt 0.914063 0.109372
vt 0.882812 0.739583
vt 0.882812 0.854167
vt 0.945313 0.854167
vt 0.945313 0.739583
vt 0.882812 0.958333
vt 0.945313 0.958333
vt 0.367188 0.354167
vt 0.367188 0.645833
vt 0.359375 0.645833
vt 0.359375 0.354167
vt 0.062500 0.781250
vt 0.265625 0.781250
vt 0.660621 0.236507
vt 0.660621 0.487599
vt 0.660621 0.832462
s 1
usemtl cell_phone_3
f 107/1/1 40/2/1 39/3/1 38/4/1 37/5/1 36/6/1 35/7/1
f 107/1/1 48/8/1 49/9/1 50/10/1 51/11/1 52/12/1 40/2/1
f 28/13/2 3/14/3 1/15/4 27/16/5
f 29/17/6 4/18/7 3/14/3 28/13/2
f 30/19/8 5/20/9 4/18/7 29/17/6
f 31/21/10 6/22/11 5/20/9 30/19/8
f 32/23/12 7/24/13 6/22/11 31/21/10
f 33/25/14 8/26/15 7/24/13 32/23/12
f 34/27/16 9/28/17 8/26/15 33/25/14
f 35/7/18 10/29/19 9/28/17 34/27/16
f 36/6/20 11/30/21 10/29/19 35/7/18
f 37/5/22 12/31/23 11/30/21 36/6/20
f 38/4/24 13/32/25 12/31/23 37/5/22
f 39/3/26 14/33/27 13/32/25 38/4/24
f 40/2/28 2/34/29 14/33/27 39/3/26
f 42/35/30 41/36/31 15/37/32 16/38/33
f 43/39/34 42/35/30 16/38/33 17/40/35
f 44/41/36 43/39/34 17/40/35 18/42/37
f 45/43/38 44/41/36 18/42/37 19/44/39
f 46/45/40 45/43/38 19/44/39 20/46/41
f 47/47/42 46/45/40 20/46/41 21/48/43
f 48/8/44 47/47/42 21/48/43 22/49/45
f 49/9/46 48/8/44 22/49/45 23/50/47
f 50/10/48 49/9/46 23/50/47 24/51/49
f 51/11/50 50/10/48 24/51/49 25/52/51
f 52/12/52 51/11/50 25/52/51 26/53/53
f 41/36/31 27/16/5 1/15/4 15/37/32
f 40/2/28 52/12/52 26/53/53 2/34/29
f 100/54/54 83/55/54 84/56/54
f 101/57/54 94/58/54 93/59/54
f 80/60/55 79/61/56 53/62/57 55/63/58
f 81/64/59 80/60/55 55/63/58 56/65/60
f 81/64/59 56/65/60 57/66/61
f 82/67/62 81/64/59 57/66/61 58/68/63
f 82/67/62 58/68/63 59/69/64
f 84/56/65 83/55/66 60/70/67 61/71/68
f 85/72/69 84/56/65 61/71/68 62/73/70
f 86/74/71 85/72/69 62/73/70 63/75/72
f 86/74/71 63/75/72 64/76/73
f 87/77/74 86/74/71 64/76/73 65/78/75
f 88/79/76 87/77/74 65/78/75 66/80/77
f 89/81/78 88/79/76 66/80/77 54/82/79
f 91/83/80 68/84/81 67/85/82 90/86/83
f 91/83/80 69/87/84 68/84/81
f 92/88/85 70/89/86 69/87/84 91/83/80
f 71/90/87 70/89/86 92/88/85
f 93/59/88 72/91/89 71/90/87
f 94/58/90 73/92/91 72/91/89 93/59/88
f 95/93/92 74/94/93 73/92/91 94/58/90
f 96/95/94 75/96/95 74/94/93 95/93/92
f 96/95/94 76/97/96 75/96/95
f 97/98/97 77/99/98 76/97/96 96/95/94
f 98/100/99 78/101/100 77/99/98 97/98/97
f 90/86/83 67/85/82 53/62/57 79/61/56
f 89/81/78 54/82/79 78/101/100 98/100/99
f 4/102/7 5/103/9 57/104/61 56/105/60
f 19/106/39 71/107/87 72/108/89 20/109/41
f 12/110/23 13/111/25 65/112/75 64/113/73
f 26/114/53 78/115/100 54/116/79 2/117/29
f 5/118/9 6/119/11 58/120/63 57/121/61
f 20/109/41 72/108/89 73/122/91 21/123/43
f 13/111/25 14/124/27 66/125/77 65/112/75
f 6/119/11 7/106/13 59/107/64 58/120/63
f 21/123/43 73/122/91 74/126/93 22/127/45
f 14/124/27 2/117/29 54/116/79 66/125/77
f 7/106/13 8/109/15 60/108/67 59/107/64
f 22/127/45 74/126/93 75/128/95 23/129/47
f 15/130/32 67/131/82 68/132/81 16/133/33
f 8/109/15 9/123/17 61/122/68 60/108/67
f 23/134/47 75/135/95 76/136/96 24/137/49
f 16/102/33 68/105/81 69/104/84 17/103/35
f 9/123/17 10/127/19 62/126/70 61/122/68
f 24/138/49 76/139/96 77/140/98 25/141/51
f 1/142/4 3/143/3 55/144/58 53/145/57
f 17/118/35 69/121/84 70/120/86 18/119/37
f 10/127/19 11/129/21 63/128/72 62/126/70
f 25/141/51 77/140/98 78/115/100 26/114/53
f 3/143/3 4/146/7 56/147/60 55/144/58
f 18/119/37 70/120/86 71/107/87 19/106/39
f 11/134/21 12/137/23 64/136/73 63/135/72
f 1/142/4 53/145/57 67/131/82 15/130/32
f 102/148/101 99/149/101 103/150/101 106/151/101
f 82/67/54 83/55/54 100/54/54 99/152/54
f 102/153/54 101/57/54 93/59/54 92/88/54
f 85/72/54 86/74/54 87/77/54 88/79/54 89/81/54 98/100/54 97/98/54 96/95/54 95/93/54
f 90/86/54 92/88/54 91/83/54
f 100/54/54 84/56/54 94/58/54 101/57/54
f 84/56/54 85/72/54 95/93/54 94/58/54
f 82/67/54 99/152/54 102/153/54 92/88/54
f 90/86/54 80/60/54 82/67/54 92/88/54
f 81/64/54 82/67/54 80/60/54
f 79/61/54 80/60/54 90/86/54
f 103/152/54 104/54/54 105/57/54 106/153/54
f 100/149/102 101/148/102 105/151/102 104/150/102
f 101/149/103 102/148/103 106/151/103 105/150/103
f 99/148/104 100/149/104 104/150/104 103/151/104
f 60/70/67 83/55/66 59/69/64
f 83/55/66 82/67/62 59/69/64
f 92/88/85 93/59/88 71/90/87
f 108/154/1 47/47/1 48/8/1 107/1/1
f 108/154/1 107/1/1 35/7/1 34/27/1
f 110/155/1 46/45/1 47/47/1 108/154/1
f 110/155/1 108/154/1 34/27/1 33/25/1
f 27/16/1 41/36/1 42/35/1 43/39/1 44/41/1 109/156/1
f 27/16/1 109/156/1 31/21/1 30/19/1 29/17/1 28/13/1
f 109/156/1 44/41/1 45/43/1 46/45/1 110/155/1
f 109/156/1 110/155/1 33/25/1 32/23/1 31/21/1
