# Blender 5.0.1
# www.blender.org
mtllib electrical_outlet_2.mtl
o electrical_outlet_2
v -0.055662 -0.055612 -0.000000
v 0.055662 -0.055612 -0.000000
v -0.055662 0.055612 0.000000
v 0.055662 0.055612 0.000000
v -0.036130 0.036081 0.020000
v -0.036131 -0.036081 0.020000
v 0.036131 -0.036081 0.020000
v 0.036130 0.036081 0.020000
v 0.000082 -0.000281 0.004000
v -0.014223 0.022177 0.004000
v 0.014428 0.022038 0.004000
v 0.023028 0.013215 0.004000
v 0.026267 0.000014 0.004000
v 0.023028 -0.013881 0.004000
v 0.014428 -0.023399 0.004000
v -0.014223 -0.023121 0.004000
v -0.023635 -0.013881 0.004000
v -0.027348 0.000014 0.004000
v -0.023635 0.013215 0.004000
v 0.000102 0.025895 0.004000
v 0.000102 -0.027048 0.004000
v 0.055663 -0.055612 0.010000
v -0.055663 -0.055612 0.010000
v 0.055662 0.055612 0.010000
v -0.055662 0.055612 0.010000
v 0.000102 0.025895 0.020000
v 0.014428 0.022038 0.020000
v 0.023028 0.013215 0.020000
v 0.026267 0.000014 0.020000
v 0.023028 -0.013881 0.020000
v 0.014428 -0.023399 0.020000
v 0.000102 -0.027048 0.020000
v -0.014223 -0.023121 0.020000
v -0.023635 -0.013881 0.020000
v -0.027348 0.000014 0.020000
v -0.023635 0.013215 0.020000
v -0.014223 0.022177 0.020000
vn -0.0000 -0.0000 1.0000
vn -0.0000 1.0000 -0.0000
vn -0.8744 -0.4852 -0.0000
vn -0.5060 -0.8625 -0.0000
vn 1.0000 -0.0065 -0.0000
vn 0.8639 0.5037 -0.0000
vn 0.0091 1.0000 -0.0000
vn -0.5164 0.8563 -0.0000
vn -1.0000 -0.0058 -0.0000
vn -0.8861 0.4635 -0.0000
vn -0.0000 -1.0000 -0.0000
vn 1.0000 -0.0000 -0.0001
vn 0.8567 -0.5159 -0.0000
vn 0.4859 -0.8740 -0.0000
vn 0.4985 0.8669 -0.0000
vn -1.0000 -0.0000 -0.0001
vn -0.0045 -1.0000 -0.0000
vn 0.2407 -0.2407 0.9403
vn -0.2407 -0.2407 0.9403
vn -0.2407 0.2407 0.9403
vn 0.2407 0.2407 0.9403
vt 0.643848 0.765914
vt 0.686120 0.734789
vt 0.750368 0.811726
vt 1.000000 0.195313
vt 1.000000 0.132812
vt 0.000000 0.132812
vt 0.000000 0.195313
vt 0.814799 0.886907
vt 0.750460 0.899899
vt 0.867973 0.812720
vt 0.853428 0.857185
vt 0.750000 0.195312
vt 0.750000 0.125000
vt 0.822917 0.125000
vt 0.822917 0.195312
vt 0.156250 0.195312
vt 0.156250 0.125000
vt 0.250000 0.125000
vt 0.250000 0.195312
vt 0.416667 0.195312
vt 0.416667 0.125000
vt 0.500000 0.125000
vt 0.500000 0.195312
vt 0.666667 0.125000
vt 0.666667 0.195312
vt 0.583333 0.195312
vt 0.583333 0.125000
vt 0.627170 0.812720
vt 0.643848 0.857185
vt 0.072917 0.125000
vt 0.072917 0.195312
vt 0.000000 0.195312
vt 0.000000 0.125000
vt 0.853428 0.765914
vt 0.322917 0.125000
vt 0.322917 0.195312
vt 0.750460 0.721562
vt 0.814799 0.733853
vt 0.686120 0.887374
vt 0.906250 0.195312
vt 0.906250 0.125000
vt 1.000000 0.125000
vt 1.000000 0.195312
vt 0.912275 0.691132
vt 0.587725 0.691132
vt 0.500000 0.625343
vt 1.000000 0.625343
vt 0.587729 0.934211
vt 0.912271 0.934211
vt 0.999994 1.000000
vt 0.500006 1.000000
vt 0.643848 0.857185
vt 0.686120 0.887374
vt 0.814799 0.886907
vt 0.853428 0.857185
vt 0.750460 0.899899
vt 0.867973 0.812720
vt 0.750460 0.721562
vt 0.686120 0.734789
vt 0.643848 0.765914
vt 0.853428 0.765914
vt 0.814799 0.733853
s 1
usemtl electrical_outlets_1
f 17/1/1 16/2/1 9/3/1
f 24/4/2 4/5/2 3/6/2 25/7/2
f 9/3/1 11/8/1 20/9/1
f 9/3/1 13/10/1 12/11/1
f 12/12/3 28/13/3 27/14/4 11/15/4
f 18/16/5 35/17/5 34/18/6 17/19/6
f 21/20/7 32/21/7 31/22/8 15/23/8
f 29/24/9 13/25/9 14/26/10 30/27/10
f 23/7/11 1/6/11 2/5/11 22/4/11
f 28/13/3 12/12/3 13/25/9 29/24/9
f 22/7/12 2/6/12 4/5/12 24/4/12
f 18/28/1 9/3/1 19/29/1
f 36/30/13 19/31/13 10/32/14 37/33/14
f 14/34/1 13/10/1 9/3/1
f 17/19/6 34/18/6 33/35/15 16/36/15
f 21/37/1 15/38/1 9/3/1
f 9/3/1 10/39/1 19/29/1
f 25/4/16 3/5/16 1/6/16 23/7/16
f 19/31/13 36/30/13 35/17/5 18/16/5
f 20/40/17 26/41/17 37/42/14 10/43/14
f 15/23/8 31/22/8 30/27/10 14/26/10
f 18/28/1 17/1/1 9/3/1
f 15/38/1 14/34/1 9/3/1
f 11/8/1 9/3/1 12/11/1
f 11/15/4 27/14/4 26/41/17 20/40/17
f 16/36/15 33/35/15 32/21/7 21/20/7
f 10/39/1 9/3/1 20/9/1
f 16/2/1 21/37/1 9/3/1
f 7/44/18 6/45/19 23/46/19 22/47/18
f 5/48/20 8/49/21 24/50/21 25/51/20
f 5/48/1 35/28/1 36/52/1
f 37/53/1 5/48/1 36/52/1
f 6/45/19 5/48/20 25/51/20 23/46/19
f 8/49/21 7/44/18 22/47/18 24/50/21
f 8/49/1 27/54/1 28/55/1
f 26/56/1 27/54/1 8/49/1
f 8/49/1 28/55/1 29/57/1
f 6/45/1 7/44/1 32/58/1
f 26/56/1 8/49/1 5/48/1
f 37/53/1 26/56/1 5/48/1
f 6/45/1 33/59/1 34/60/1
f 5/48/1 6/45/1 35/28/1
f 7/44/1 30/61/1 31/62/1
f 7/44/1 8/49/1 29/57/1
f 6/45/1 32/58/1 33/59/1
f 34/60/1 35/28/1 6/45/1
f 31/62/1 32/58/1 7/44/1
f 7/44/1 29/57/1 30/61/1
