# Blender 5.0.1
# www.blender.org
mtllib electrical_outlet_1.mtl
o electrical_outlet_1
v -0.055662 -0.090612 -0.000000
v 0.055662 -0.090612 -0.000000
v -0.055662 0.090612 0.000000
v 0.055662 0.090612 0.000000
v -0.051130 0.086081 0.012000
v -0.051131 -0.086081 0.012000
v 0.051131 -0.086081 0.012000
v 0.051130 0.086081 0.012000
v 0.022457 -0.045231 0.012000
v 0.014065 -0.053253 0.012000
v -0.013891 -0.053592 0.012000
v -0.023075 -0.045231 0.012000
v -0.013891 -0.008398 0.012000
v 0.014065 -0.008511 0.012000
v 0.022457 -0.016872 0.012000
v 0.026491 -0.030317 0.012000
v -0.027573 -0.029803 0.012000
v -0.023075 -0.015064 0.012000
v -0.013891 0.052404 0.012000
v 0.014065 0.052269 0.012000
v 0.022457 0.043659 0.012000
v 0.026491 0.030779 0.012000
v 0.022457 0.017220 0.012000
v 0.014065 0.007933 0.012000
v -0.013891 0.008204 0.012000
v -0.023075 0.017220 0.012000
v -0.027573 0.030779 0.012000
v -0.023075 0.043659 0.012000
v -0.013891 -0.008398 0.004500
v 0.014065 -0.008511 0.004500
v 0.022457 -0.045231 0.004500
v 0.014065 -0.053253 0.004500
v -0.013891 -0.053592 0.004500
v -0.023075 -0.045231 0.004500
v 0.022457 -0.016872 0.004500
v 0.026491 -0.030317 0.004500
v -0.027573 -0.029803 0.004500
v -0.023075 -0.015064 0.004500
v -0.013891 0.052404 0.004500
v 0.014065 0.052269 0.004500
v 0.022457 0.043659 0.004500
v 0.026491 0.030779 0.004500
v 0.022457 0.017220 0.004500
v 0.014065 0.007933 0.004500
v -0.013891 0.008204 0.004500
v -0.023075 0.017220 0.004500
v -0.027573 0.030779 0.004500
v -0.023075 0.043659 0.004500
v 0.000065 0.030203 0.004500
v 0.000157 -0.030938 0.004500
vn -0.0000 -0.0000 1.0000
vn 0.8141 -0.5807 -0.0000
vn 1.0000 -0.0063 -0.0000
vn -0.0000 0.9355 0.3532
vn -0.0121 0.9999 -0.0000
vn -0.8597 0.5108 -0.0000
vn -0.6910 0.7229 -0.0000
vn -0.8587 -0.5125 -0.0000
vn -0.7161 -0.6980 -0.0000
vn 1.0000 -0.0078 -0.0000
vn 0.8486 0.5290 -0.0000
vn 0.0097 1.0000 -0.0000
vn -1.0000 -0.0072 -0.0000
vn -0.8718 0.4899 -0.0000
vn -0.0000 -0.9355 0.3532
vn -0.9999 -0.0137 -0.0000
vn -0.0040 -1.0000 -0.0000
vn -0.8580 -0.5136 -0.0000
vn 0.9355 -0.0000 0.3533
vn 0.8403 -0.5421 -0.0000
vn 0.6896 -0.7242 -0.0000
vn 0.7006 0.7136 -0.0000
vn 0.5874 -0.8093 -0.0000
vn -0.9355 -0.0000 0.3533
vn 0.6732 0.7395 -0.0000
vn 0.8483 0.5295 -0.0000
vn -0.7058 -0.7084 -0.0000
vn -0.0048 -1.0000 -0.0000
vn -0.7419 0.6705 -0.0000
vt 0.000000 0.390625
vt 0.144642 0.535639
vt 0.123910 0.589094
vt 0.489583 1.000000
vt 0.352731 0.843781
vt 0.371181 0.799126
vt 0.144480 0.843781
vt 0.186485 0.874099
vt 0.000000 1.000000
vt 0.123910 0.799126
vt 0.144480 0.843781
vt 0.186659 0.506700
vt 0.352676 0.535637
vt 0.489583 0.390625
vt 0.371181 0.587312
vt 0.314347 0.873630
vt 0.352731 0.843781
vt 0.152201 0.234375
vt 0.153154 0.203125
vt 0.235911 0.203125
vt 0.235469 0.234375
vt 0.186485 0.663303
vt 0.250737 0.585158
vt 0.314347 0.662912
vt 0.144480 0.535605
vt 0.186485 0.506618
vt 0.978946 0.149094
vt 0.999269 0.192917
vt 0.500731 0.192917
vt 0.521271 0.149094
vt 0.250317 0.797129
vt 0.314346 0.873630
vt 0.186485 0.874099
vt 0.371758 0.234375
vt 0.373410 0.203125
vt 0.522643 0.203125
vt 0.524393 0.234375
vt 0.588538 0.203125
vt 0.590183 0.234375
vt 0.352731 0.843781
vt 0.770833 0.234375
vt 0.770833 0.203125
vt 0.833333 0.203125
vt 0.833333 0.234375
vt 0.240471 0.234375
vt 0.240471 0.203125
vt 0.313387 0.203125
vt 0.313387 0.234375
vt 0.375000 0.234375
vt 0.375000 0.203125
vt 0.520833 0.203125
vt 0.520833 0.234375
vt 0.371181 0.799126
vt 0.352731 0.633925
vt 0.352731 0.752120
vt 0.314347 0.719922
vt 0.697917 0.203125
vt 0.697917 0.234375
vt 0.583333 0.234375
vt 0.583333 0.203125
vt 0.314425 0.507875
vt 0.521311 0.149094
vt 0.500730 0.192917
vt 0.999270 0.192917
vt 0.978986 0.149094
vt 0.703722 0.203125
vt 0.702677 0.234375
vt 0.835125 0.234375
vt 0.833353 0.203125
vt 0.979187 0.203125
vt 0.979187 0.234375
vt 0.774396 0.203125
vt 0.774995 0.234375
vt 0.314347 0.507794
vt 0.790385 0.149094
vt 0.811079 0.192917
vt 0.001421 0.192917
vt 0.021922 0.149094
vt 0.352731 0.752120
vt 0.156250 0.203125
vt 0.156250 0.234375
vt 0.093750 0.234375
vt 0.093750 0.203125
vt 0.352731 0.535605
vt 0.144480 0.640193
vt 0.186485 0.720862
vt 0.314346 0.719922
vt 0.144480 0.752120
vt 0.314347 0.719922
vt 0.186485 0.663303
vt 0.090654 0.234375
vt 0.090654 0.203125
vt 0.308383 0.234375
vt 0.308821 0.203125
vt 0.144480 0.640193
vt 0.144480 0.752120
vt 0.123910 0.799126
vt 0.371181 0.799126
vt 0.352731 0.752120
vt 0.314346 0.873630
vt 0.979167 0.203125
vt 0.979167 0.234375
vt 0.144480 0.752120
vt 0.144480 0.843781
vt 0.123910 0.589094
vt 0.371181 0.587312
vt 0.352731 0.633925
s 1
usemtl electrical_outlets_1
f 6/1/1 12/2/1 17/3/1
f 8/4/1 21/5/1 22/6/1
f 28/7/1 19/8/1 5/9/1
f 27/10/1 28/11/1 5/9/1
f 6/1/1 11/12/1 12/2/1
f 9/13/1 7/14/1 16/15/1
f 8/4/1 20/16/1 21/17/1
f 38/18/2 18/19/2 17/20/3 37/21/3
f 29/22/1 50/23/1 30/24/1
f 34/25/1 33/26/1 50/23/1
f 8/27/4 4/28/4 3/29/4 5/30/4
f 49/31/1 40/32/1 39/33/1
f 33/34/5 11/35/5 10/36/5 32/37/5
f 9/38/6 31/39/6 32/37/7 10/36/7
f 49/31/1 41/40/1 40/32/1
f 41/41/8 21/42/8 20/43/9 40/44/9
f 47/45/10 27/46/10 26/47/11 46/48/11
f 45/49/12 25/50/12 24/51/12 44/52/12
f 7/14/1 8/4/1 22/53/1 16/15/1
f 15/54/1 23/55/1 24/56/1 14/24/1
f 22/57/13 42/58/13 43/59/14 23/60/14
f 9/13/1 10/61/1 7/14/1
f 6/62/15 1/63/15 2/64/15 7/65/15
f 9/38/6 16/66/16 36/67/16 31/39/6
f 30/68/17 14/69/17 13/70/17 29/71/17
f 15/72/18 35/73/18 36/67/16 16/66/16
f 21/42/8 41/41/8 42/58/13 22/57/13
f 33/26/1 32/74/1 50/23/1
f 7/75/19 2/76/19 4/77/19 8/78/19
f 5/9/1 6/1/1 17/3/1 27/10/1
f 10/61/1 11/12/1 6/1/1 7/14/1
f 43/79/1 42/53/1 49/31/1
f 28/80/20 48/81/20 39/82/21 19/83/21
f 50/23/1 32/74/1 31/84/1
f 38/85/1 50/23/1 29/22/1
f 46/48/11 26/47/11 25/50/22 45/49/22
f 45/86/1 44/87/1 49/31/1
f 46/88/1 45/86/1 49/31/1
f 14/24/1 24/89/1 25/86/1 13/90/1
f 29/91/23 13/92/23 18/19/2 38/18/2
f 5/78/24 3/77/24 1/76/24 6/75/24
f 11/35/25 33/34/25 34/93/26 12/94/26
f 48/81/20 28/80/20 27/46/10 47/45/10
f 37/21/3 17/20/3 12/94/26 34/93/26
f 17/3/1 18/95/1 26/96/1 27/97/1
f 35/73/18 15/72/18 14/69/27 30/68/27
f 22/98/1 23/99/1 15/54/1 16/15/1
f 8/4/1 5/9/1 19/8/1 20/100/1
f 40/44/28 20/43/28 19/101/28 39/102/28
f 44/52/29 24/51/29 23/60/14 43/59/14
f 18/95/1 13/90/1 25/86/1 26/103/1
f 49/31/1 42/53/1 41/40/1
f 44/87/1 43/79/1 49/31/1
f 47/10/1 46/88/1 49/31/1
f 48/104/1 47/10/1 49/31/1
f 39/33/1 48/104/1 49/31/1
f 37/105/1 50/23/1 38/85/1
f 37/105/1 34/25/1 50/23/1
f 50/23/1 31/84/1 36/106/1
f 50/23/1 36/106/1 35/107/1
f 30/24/1 50/23/1 35/107/1
