# Blender 5.0.1
# www.blender.org
mtllib electrical_outlet_3.mtl
o electrical_outlet_3
v -0.046662 -0.055612 -0.000000
v -0.055662 -0.046612 0.000000
v 0.055662 -0.046612 0.000000
v 0.046662 -0.055612 -0.000000
v -0.055662 0.046612 0.000000
v -0.046662 0.055612 0.000000
v 0.046662 0.055612 0.000000
v 0.055662 0.046612 0.000000
v 0.046663 -0.055612 0.004000
v 0.055663 -0.046612 0.004000
v -0.055663 -0.046612 0.004000
v -0.046663 -0.055612 0.004000
v 0.055662 0.046612 0.004000
v 0.046662 0.055612 0.004000
v -0.046662 0.055612 0.004000
v -0.055662 0.046612 0.004000
vn -0.7071 0.7071 -0.0000
vn 0.7071 0.7071 -0.0000
vn -0.7071 -0.7071 -0.0002
vn 0.7071 -0.7071 -0.0002
vn -1.0000 -0.0000 -0.0002
vn -0.0000 -1.0000 -0.0000
vn 1.0000 -0.0000 -0.0002
vn -0.0000 1.0000 -0.0000
vn -0.0000 -0.0000 1.0000
vt 0.083333 0.148438
vt 0.083333 0.125000
vt 0.000000 0.125000
vt 0.000000 0.148438
vt 0.916667 0.148438
vt 0.916667 0.125000
vt 0.500005 0.594684
vt 0.999995 0.594684
vt 0.959572 0.625000
vt 0.540428 0.625000
vt 0.500000 0.280660
vt 0.540422 0.250343
vt 0.959578 0.250343
vt 1.000000 0.280660
s 1
usemtl electrical_outlets_1
f 15/1/1 6/2/1 5/3/1 16/4/1
f 13/5/2 8/6/2 7/6/2 14/5/2
f 1/2/3 12/1/3 11/1/3 2/2/3
f 3/2/4 10/1/4 9/4/4 4/3/4
f 16/5/5 5/6/5 2/2/5 11/1/5
f 12/1/6 1/2/6 4/6/6 9/5/6
f 10/1/7 3/2/7 8/6/7 13/5/7
f 14/5/8 7/6/8 6/2/8 15/1/8
f 16/7/9 13/8/9 14/9/9 15/10/9
f 11/11/9 12/12/9 9/13/9 10/14/9
f 16/7/9 11/11/9 10/14/9 13/8/9
