# Blender 5.0.1
# www.blender.org
mtllib elevator_call_button_1.mtl
o elevator_call_button_1
v -0.060000 -0.190000 -0.000000
v -0.060000 0.190000 -0.000000
v 0.060000 -0.190000 -0.000000
v 0.060000 0.190000 -0.000000
v 0.042000 -0.190000 -0.000000
v -0.042000 0.190000 -0.000000
v -0.031749 0.211213 -0.000000
v 0.042000 0.190000 -0.000000
v 0.031748 0.211213 -0.000000
v -0.042000 -0.190000 -0.000000
v -0.031749 -0.211213 -0.000000
v 0.031748 -0.211213 -0.000000
v -0.030000 0.072361 0.015000
v 0.000000 0.042361 0.015000
v 0.000000 0.102361 0.015000
v 0.030000 0.072361 0.015000
v -0.023482 0.072361 0.020000
v 0.000000 0.048879 0.020000
v 0.023482 0.072361 0.020000
v 0.000000 0.095843 0.020000
v 0.000000 0.042361 0.020000
v 0.000000 0.102361 0.020000
v 0.030000 0.072361 0.020000
v -0.030000 0.072361 0.020000
v -0.030000 -0.070000 0.015000
v 0.000000 -0.100000 0.015000
v 0.000000 -0.040000 0.015000
v 0.030000 -0.070000 0.015000
v -0.023482 -0.070000 0.020000
v 0.000000 -0.093482 0.020000
v 0.023482 -0.070000 0.020000
v 0.000000 -0.046518 0.020000
v 0.000000 -0.100000 0.020000
v 0.000000 -0.040000 0.020000
v 0.030000 -0.070000 0.020000
v -0.030000 -0.070000 0.020000
v -0.050015 -0.180015 0.020000
v -0.046015 -0.176015 0.015000
v -0.046015 0.176015 0.015000
v -0.050015 0.180015 0.020000
v 0.046014 -0.176015 0.015000
v 0.050014 -0.180015 0.020000
v 0.050014 0.180015 0.020000
v 0.046014 0.176015 0.015000
v -0.030889 0.176015 0.015000
v -0.034067 0.180015 0.020000
v 0.034066 0.180015 0.020000
v 0.030888 0.176015 0.015000
v -0.034067 -0.180015 0.020000
v -0.030889 -0.176015 0.015000
v 0.030888 -0.176015 0.015000
v 0.034066 -0.180015 0.020000
v -0.025082 0.203525 0.020000
v -0.022411 0.200445 0.015000
v 0.022410 0.200445 0.015000
v 0.025081 0.203525 0.020000
v -0.022411 -0.200445 0.015000
v -0.025082 -0.203525 0.020000
v 0.025081 -0.203525 0.020000
v 0.022410 -0.200445 0.015000
v 0.060000 0.190000 0.016000
v 0.056000 0.186000 0.020000
v 0.056000 -0.186000 0.020000
v 0.060000 -0.190000 0.016000
v -0.056000 0.186000 0.020000
v -0.060000 0.190000 0.016000
v -0.060000 -0.190000 0.016000
v -0.056000 -0.186000 0.020000
v 0.042000 0.190000 0.016000
v 0.038822 0.186000 0.020000
v -0.038822 0.186000 0.020000
v -0.042000 0.190000 0.016000
v 0.038822 -0.186000 0.020000
v 0.042000 -0.190000 0.016000
v -0.042000 -0.190000 0.016000
v -0.038822 -0.186000 0.020000
v 0.029078 0.208133 0.020000
v 0.031748 0.211213 0.016000
v -0.031749 0.211213 0.016000
v -0.029078 0.208133 0.020000
v 0.031748 -0.211213 0.016000
v 0.029078 -0.208133 0.020000
v -0.029078 -0.208133 0.020000
v -0.031749 -0.211213 0.016000
v 0.000000 0.050949 0.029000
v 0.000000 0.093772 0.029000
v 0.021411 0.072361 0.029000
v -0.021411 0.072361 0.029000
v 0.000000 -0.091411 0.029000
v 0.000000 -0.048589 0.029000
v 0.021411 -0.070000 0.029000
v -0.021411 -0.070000 0.029000
v -0.000000 0.220000 -0.000000
v -0.000000 -0.220000 -0.000000
v -0.000000 0.216000 0.020000
v -0.000000 0.220000 0.016000
v -0.000000 -0.220000 0.016000
v -0.000000 -0.216000 0.020000
v -0.000000 0.206015 0.015000
v -0.000000 0.210015 0.020000
v -0.000000 -0.210015 0.020000
v -0.000000 -0.206015 0.015000
v 0.020490 0.051870 0.020000
v 0.020490 0.051870 0.015000
v 0.020490 0.092851 0.015000
v 0.020490 0.092851 0.020000
v -0.020490 0.051870 0.015000
v -0.020490 0.051870 0.020000
v -0.020490 0.092851 0.020000
v -0.020490 0.092851 0.015000
v 0.016038 0.056322 0.020000
v 0.016038 0.088399 0.020000
v -0.016038 0.056322 0.020000
v -0.016038 0.088399 0.020000
v 0.014624 0.057736 0.029000
v 0.014624 0.086985 0.029000
v -0.014624 0.057736 0.029000
v -0.014624 0.086985 0.029000
v 0.020490 -0.090490 0.020000
v 0.020490 -0.090490 0.015000
v 0.020490 -0.049510 0.015000
v 0.020490 -0.049510 0.020000
v -0.020490 -0.090490 0.015000
v -0.020490 -0.090490 0.020000
v -0.020490 -0.049510 0.020000
v -0.020490 -0.049510 0.015000
v 0.016038 -0.086038 0.020000
v 0.016038 -0.053962 0.020000
v -0.016038 -0.086038 0.020000
v -0.016038 -0.053962 0.020000
v 0.014624 -0.084624 0.029000
v 0.014624 -0.055376 0.029000
v -0.014624 -0.084624 0.029000
v -0.014624 -0.055376 0.029000
vn -0.0000 -1.0000 -0.0000
vn -0.0000 -0.0000 1.0000
vn 0.6903 -0.6903 0.2169
vn -0.0000 -0.9745 0.2242
vn -0.9071 -0.4210 -0.0000
vn 0.9004 -0.4351 -0.0000
vn 0.6903 0.6903 0.2169
vn 0.9745 -0.0000 0.2242
vn -0.6311 0.2911 0.7190
vn -0.9071 0.4210 -0.0000
vn 0.2667 0.9638 -0.0000
vn -0.9745 -0.0000 0.2242
vn -0.6903 0.6903 0.2169
vn -0.4210 0.9071 -0.0000
vn 0.1967 0.7747 0.6010
vn -0.9004 -0.4351 -0.0000
vn -0.6903 -0.6903 0.2169
vn -0.2667 0.9638 -0.0000
vn 0.9004 0.4351 -0.0000
vn -0.0000 -0.7809 0.6247
vn -0.0000 0.9745 0.2242
vn -0.2667 -0.9638 -0.0000
vn -0.4210 -0.9071 -0.0000
vn 0.4210 0.9071 -0.0000
vn 0.2667 -0.9638 -0.0000
vn -0.1922 0.7022 0.6856
vn -0.0000 1.0000 -0.0000
vn 0.9071 -0.4210 -0.0000
vn 0.9071 0.4210 -0.0000
vn -0.7366 -0.2683 0.6208
vn -0.7071 -0.0000 0.7071
vn 0.7809 -0.0000 0.6247
vn -0.0000 -0.7071 0.7071
vn -0.0000 0.7809 0.6247
vn -0.0000 0.7071 0.7071
vn 0.6311 0.2911 0.7190
vn -0.6311 -0.2911 0.7190
vn 0.1922 0.7022 0.6856
vn 0.7366 -0.2683 0.6208
vn 0.1967 -0.7747 0.6010
vn -0.1967 -0.7747 0.6010
vn 0.6311 -0.2911 0.7190
vn -0.1967 0.7747 0.6010
vn 0.7071 -0.0000 0.7071
vn 0.7366 0.2683 0.6208
vn -1.0000 -0.0000 -0.0000
vn -0.7366 0.2683 0.6208
vn -0.1922 -0.7022 0.6856
vn 0.1922 -0.7022 0.6856
vn -0.9004 0.4351 -0.0000
vn -0.7809 -0.0000 0.6247
vn 1.0000 -0.0000 -0.0000
vn 0.4210 -0.9071 -0.0000
vt 0.275590 0.583327
vt 0.275590 0.619038
vt 0.318779 0.619039
vt 0.318779 0.583327
vt 0.400973 0.146664
vt 0.413628 0.158035
vt 0.371187 0.158035
vt 0.355259 0.146664
vt 0.521872 0.403323
vt 0.521872 0.375000
vt 0.498104 0.375000
vt 0.498104 0.406062
vt 0.318779 0.416673
vt 0.318779 0.380962
vt 0.275590 0.380962
vt 0.275590 0.416673
vt 0.504285 0.089675
vt 0.504285 0.101045
vt 0.437539 0.113374
vt 0.426904 0.104619
vt 0.659091 0.337500
vt 0.670455 0.337500
vt 0.670455 0.375000
vt 0.659091 0.375000
vt 0.318779 0.080958
vt 0.275590 0.080958
vt 0.275590 0.123045
vt 0.318779 0.123045
vt 0.521872 0.668948
vt 0.521872 0.640625
vt 0.498104 0.640625
vt 0.498104 0.671687
vt 0.392516 0.860934
vt 0.400973 0.853336
vt 0.426904 0.895381
vt 0.419796 0.901232
vt 0.607598 0.146664
vt 0.594943 0.158035
vt 0.571031 0.113374
vt 0.581667 0.104619
vt 0.607598 0.853335
vt 0.581667 0.895381
vt 0.571031 0.886626
vt 0.594943 0.841965
vt 0.670455 0.678125
vt 0.659091 0.678125
vt 0.659091 0.640625
vt 0.670455 0.640625
vt 0.318779 0.562989
vt 0.275590 0.562989
vt 0.275590 0.500000
vt 0.318779 0.500000
vt 0.422085 0.834367
vt 0.422085 0.165633
vt 0.586485 0.165633
vt 0.586485 0.834367
vt 0.444971 0.120135
vt 0.504615 0.109571
vt 0.626739 0.834367
vt 0.626739 0.165633
vt 0.275590 0.123045
vt 0.275590 0.080958
vt 0.318779 0.123045
vt 0.521872 0.612302
vt 0.498104 0.609563
vt 0.318779 0.437011
vt 0.275590 0.500000
vt 0.275590 0.437011
vt 0.275590 0.876955
vt 0.275590 0.919042
vt 0.318779 0.919042
vt 0.318779 0.876955
vt 0.437539 0.113374
vt 0.413628 0.158035
vt 0.381832 0.833417
vt 0.422085 0.833417
vt 0.413628 0.841965
vt 0.371188 0.841966
vt 0.581667 0.104619
vt 0.653312 0.146664
vt 0.637383 0.158035
vt 0.594943 0.158035
vt 0.355259 0.146664
vt 0.371187 0.158035
vt 0.371188 0.841966
vt 0.355259 0.853336
vt 0.659091 0.603125
vt 0.670455 0.603125
vt 0.400973 0.853336
vt 0.355259 0.853336
vt 0.653312 0.853336
vt 0.637383 0.841965
vt 0.637383 0.158035
vt 0.275590 0.437011
vt 0.275590 0.500000
vt 0.670455 0.412500
vt 0.659091 0.412500
vt 0.454777 0.675550
vt 0.465927 0.667373
vt 0.506099 0.681045
vt 0.506099 0.693017
vt 0.557422 0.334652
vt 0.546271 0.342829
vt 0.506099 0.329157
vt 0.506099 0.317185
vt 0.581240 0.372288
vt 0.564914 0.372288
vt 0.557422 0.409925
vt 0.546271 0.401748
vt 0.557422 0.675550
vt 0.546271 0.667373
vt 0.564914 0.637913
vt 0.581240 0.637913
vt 0.275590 0.562989
vt 0.329576 0.438366
vt 0.329576 0.500000
vt 0.459929 0.637913
vt 0.474564 0.614788
vt 0.537634 0.614788
vt 0.552269 0.637913
vt 0.506099 0.604055
vt 0.506099 0.671772
vt 0.474564 0.661039
vt 0.537634 0.661039
vt 0.275590 0.416673
vt 0.275590 0.380962
vt 0.454777 0.600277
vt 0.506099 0.582810
vt 0.506099 0.594782
vt 0.465927 0.608454
vt 0.506099 0.427392
vt 0.506099 0.415420
vt 0.454777 0.409925
vt 0.465927 0.401748
vt 0.562710 0.880460
vt 0.585201 0.834033
vt 0.557422 0.600277
vt 0.546271 0.608454
vt 0.498104 0.343938
vt 0.521872 0.346677
vt 0.498104 0.343938
vt 0.459929 0.372288
vt 0.474564 0.349163
vt 0.537634 0.349163
vt 0.552269 0.372288
vt 0.506099 0.338430
vt 0.474564 0.395414
vt 0.537634 0.395414
vt 0.506099 0.406147
vt 0.329576 0.869019
vt 0.318779 0.876955
vt 0.329576 0.130981
vt 0.383163 0.165633
vt 0.383163 0.834367
vt 0.329576 0.611103
vt 0.329576 0.583327
vt 0.381832 0.166583
vt 0.422085 0.166583
vt 0.444647 0.119224
vt 0.563924 0.119224
vt 0.329576 0.388897
vt 0.329576 0.416673
vt 0.616055 0.860934
vt 0.588774 0.901232
vt 0.392516 0.139066
vt 0.419796 0.098768
vt 0.329576 0.561634
vt 0.423369 0.834033
vt 0.445860 0.880460
vt 0.437539 0.886626
vt 0.504285 0.898955
vt 0.444971 0.879865
vt 0.504615 0.890429
vt 0.503956 0.890429
vt 0.563600 0.879865
vt 0.616055 0.139066
vt 0.588774 0.098768
vt 0.563600 0.120135
vt 0.503955 0.109571
vt 0.663956 0.139066
vt 0.663956 0.860934
vt 0.607598 0.853336
vt 0.594943 0.841965
vt 0.637383 0.841965
vt 0.626739 0.166583
vt 0.586485 0.166583
vt 0.586485 0.833417
vt 0.626739 0.833417
vt 0.445860 0.119540
vt 0.423369 0.165967
vt 0.275590 0.123045
vt 0.275590 0.876955
vt 0.585201 0.165967
vt 0.562710 0.119540
vt 0.504285 0.910325
vt 0.426904 0.895381
vt 0.381832 0.834367
vt 0.381832 0.165633
vt 0.275590 0.619039
vt 0.275590 0.583327
vt 0.454777 0.334652
vt 0.465927 0.342829
vt 0.447284 0.372288
vt 0.430958 0.372288
vt 0.329576 0.438366
vt 0.329576 0.500000
vt 0.504285 0.891356
vt 0.444647 0.880776
vt 0.563923 0.880776
vt 0.275590 0.919042
vt 0.275590 0.876955
vt 0.625408 0.834367
vt 0.625408 0.165633
vt 0.504285 0.108644
vt 0.275590 0.123045
vt 0.275590 0.876955
vt 0.430958 0.637913
vt 0.447284 0.637913
s 1
usemtl elevator_call_button_1
f 5/1/1 3/2/1 64/3/1 74/4/1
f 76/5/2 49/6/2 37/7/2 68/8/2
f 131/9/3 89/10/4 30/11/4 127/12/3
f 75/13/1 67/14/1 1/15/1 10/16/1
f 98/17/2 101/18/2 58/19/2 83/20/2
f 123/21/5 124/22/5 36/23/5 25/24/5
f 81/25/6 12/26/6 5/27/6 74/28/6
f 116/29/7 87/30/8 19/31/8 112/32/7
f 72/33/9 71/34/9 80/35/9 79/36/9
f 73/37/2 52/38/2 59/39/2 82/40/2
f 70/41/2 77/42/2 56/43/2 47/44/2
f 109/45/10 110/46/10 13/47/10 24/48/10
f 78/49/11 9/50/11 93/51/11 96/52/11
f 88/30/12 118/29/13 114/32/13 17/31/12
f 22/48/14 15/47/14 110/46/14 109/45/14
f 45/53/2 50/54/2 51/55/2 48/56/2
f 57/57/15 58/19/15 101/18/15 102/58/15
f 44/59/2 48/56/2 51/55/2 41/60/2
f 115/29/3 85/30/4 18/31/4 111/32/3
f 10/61/16 11/62/16 84/25/16 75/63/16
f 117/64/17 88/30/12 17/31/12 113/65/17
f 79/66/18 96/52/18 93/67/18 7/68/18
f 8/69/19 9/70/19 78/71/19 69/72/19
f 76/5/2 83/20/2 58/73/2 49/74/2
f 39/75/20 45/76/20 46/77/20 40/78/20
f 98/17/2 82/79/2 59/39/2 101/18/2
f 73/37/2 63/80/2 42/81/2 52/82/2
f 118/64/13 86/30/21 20/31/21 114/65/13
f 68/83/2 37/84/2 40/85/2 65/86/2
f 107/87/5 108/88/5 24/48/5 13/47/5
f 71/89/2 65/90/2 40/78/2 46/77/2
f 62/91/2 43/92/2 42/93/2 63/80/2
f 97/52/22 84/66/22 11/94/22 94/95/22
f 26/24/23 33/23/23 124/22/23 123/21/23
f 27/24/24 34/23/24 122/96/24 121/97/24
f 109/98/2 114/99/2 20/100/2 22/101/2
f 125/96/10 126/97/10 25/24/10 36/23/10
f 125/96/14 34/23/14 27/24/14 126/97/14
f 132/9/7 91/10/8 31/11/8 128/12/7
f 119/102/2 127/103/2 30/104/2 33/105/2
f 119/102/2 35/106/2 31/107/2 127/103/2
f 122/108/2 128/109/2 31/107/2 35/106/2
f 106/110/2 112/111/2 19/112/2 23/113/2
f 12/114/25 81/49/25 97/52/25 94/95/25
f 96/52/26 79/66/26 80/115/26 95/116/26
f 88/117/2 117/118/2 115/119/2 87/120/2
f 115/119/2 117/118/2 85/121/2
f 86/122/2 118/123/2 116/124/2
f 6/125/27 2/126/27 66/14/27 72/13/27
f 87/30/8 115/64/3 111/65/3 19/31/8
f 85/30/4 117/64/17 113/65/17 18/31/4
f 103/45/28 104/46/28 16/47/28 23/48/28
f 15/47/24 22/48/24 106/45/24 105/46/24
f 105/46/29 106/45/29 23/48/29 16/47/29
f 119/96/28 120/97/28 28/24/28 35/23/28
f 14/47/23 21/48/23 108/88/23 107/87/23
f 108/127/2 21/128/2 18/129/2 113/130/2
f 122/108/2 34/131/2 32/132/2 128/109/2
f 125/133/2 130/134/2 32/132/2 34/131/2
f 47/44/30 56/43/30 55/135/30 48/136/30
f 103/137/2 111/138/2 18/129/2 21/128/2
f 32/11/21 130/139/13 134/140/13 90/10/21
f 92/10/12 134/9/13 130/12/13 29/11/12
f 127/141/3 31/11/8 91/10/8 131/140/3
f 92/142/2 133/143/2 131/144/2 91/145/2
f 118/123/2 88/117/2 87/120/2 116/124/2
f 133/143/2 89/146/2 131/144/2
f 134/147/2 132/148/2 90/149/2
f 92/142/2 91/145/2 132/148/2 134/147/2
f 65/150/31 66/151/31 67/28/31 68/152/31
f 38/153/32 39/154/32 40/85/32 37/84/32
f 74/4/33 64/3/33 63/155/33 73/156/33
f 38/157/34 37/7/34 49/6/34 50/158/34
f 50/54/2 57/159/2 60/160/2 51/55/2
f 65/161/35 71/162/35 72/13/35 66/14/35
f 69/163/36 78/164/36 77/42/36 70/41/36
f 75/165/37 84/166/37 83/20/37 76/5/37
f 96/52/38 95/116/38 77/167/38 78/49/38
f 46/77/39 45/168/39 54/169/39 53/170/39
f 100/171/40 53/170/40 54/172/40 99/173/40
f 100/171/41 99/174/41 55/175/41 56/43/41
f 74/176/42 73/37/42 82/40/42 81/177/42
f 121/97/29 122/96/29 35/23/29 28/24/29
f 71/34/2 46/77/2 53/170/2 80/35/2
f 60/178/43 102/179/43 101/18/43 59/39/43
f 64/180/44 61/181/44 62/91/44 63/80/44
f 70/182/2 47/183/2 43/184/2 62/91/2
f 52/82/34 42/81/34 41/185/34 51/186/34
f 68/161/33 67/14/33 75/13/33 76/162/33
f 69/4/35 70/156/35 62/155/35 61/3/35
f 47/183/20 48/187/20 44/188/20 43/184/20
f 49/74/45 58/73/45 57/189/45 50/190/45
f 1/191/46 67/28/46 66/151/46 2/192/46
f 52/38/47 51/193/47 60/194/47 59/39/47
f 95/195/2 100/171/2 56/43/2 77/42/2
f 133/140/17 92/10/12 29/11/12 129/141/17
f 95/195/2 80/196/2 53/170/2 100/171/2
f 45/53/2 39/197/2 38/198/2 50/54/2
f 69/4/27 61/3/27 4/199/27 8/200/27
f 124/201/2 129/202/2 29/203/2 36/204/2
f 83/205/48 84/66/48 97/52/48 98/206/48
f 97/52/49 81/49/49 82/167/49 98/206/49
f 99/207/2 54/208/2 55/209/2
f 72/151/50 79/71/50 7/210/50 6/211/50
f 43/92/51 44/212/51 41/213/51 42/93/51
f 57/159/2 102/214/2 60/160/2
f 64/28/52 3/215/52 4/216/52 61/151/52
f 109/98/2 24/217/2 17/218/2 114/99/2
f 103/137/2 23/113/2 19/112/2 111/138/2
f 124/201/2 33/105/2 30/104/2 129/202/2
f 119/96/53 33/23/53 26/24/53 120/97/53
f 133/140/17 129/139/17 30/11/4 89/10/4
f 125/133/2 36/204/2 29/203/2 130/134/2
f 108/127/2 113/130/2 17/218/2 24/217/2
f 106/110/2 22/101/2 20/100/2 112/111/2
f 21/48/53 14/47/53 104/46/53 103/45/53
f 86/30/21 116/29/7 112/32/7 20/31/21
f 90/10/21 132/9/7 128/12/7 32/11/21
f 54/208/2 45/53/2 48/56/2 55/209/2
