# Blender 5.0.1
# www.blender.org
mtllib elevator_buttons_1.mtl
o elevator_buttons_1
v 0.132597 -0.250000 -0.000000
v -0.132597 -0.250000 0.000000
v 0.132597 0.250000 -0.000000
v -0.132597 0.250000 0.000000
v 0.127597 0.245000 0.015000
v 0.132597 0.250000 0.010000
v 0.132597 -0.250000 0.010000
v 0.127597 -0.245000 0.015000
v -0.132597 -0.250000 0.010000
v -0.127597 -0.245000 0.015000
v -0.132597 0.250000 0.010000
v -0.127597 0.245000 0.015000
v -0.022216 -0.141010 0.015000
v -0.000000 -0.163225 0.015000
v 0.022215 -0.141010 0.015000
v -0.000000 -0.118794 0.015000
v -0.022214 -0.141010 0.024628
v -0.000000 -0.163225 0.024628
v 0.022215 -0.141010 0.024628
v -0.000000 -0.118794 0.024628
v 0.015173 -0.156183 0.015000
v -0.015174 -0.156183 0.015000
v -0.015174 -0.125836 0.015000
v 0.015173 -0.125836 0.015000
v 0.015172 -0.156184 0.024628
v -0.015174 -0.156183 0.024628
v -0.015174 -0.125836 0.024628
v 0.015172 -0.125837 0.024628
v -0.087088 -0.141010 0.015000
v -0.070000 -0.158099 0.015000
v -0.052911 -0.141010 0.015000
v -0.070000 -0.123921 0.015000
v -0.087087 -0.141010 0.024628
v -0.070000 -0.158099 0.024628
v -0.052911 -0.141010 0.024628
v -0.070000 -0.123921 0.024628
v -0.058328 -0.152682 0.015000
v -0.081672 -0.152682 0.015000
v -0.081672 -0.129338 0.015000
v -0.058328 -0.129338 0.015000
v -0.058328 -0.152682 0.024628
v -0.081672 -0.152682 0.024628
v -0.081672 -0.129338 0.024628
v -0.058328 -0.129338 0.024628
v 0.052912 -0.141010 0.015000
v 0.070000 -0.158099 0.015000
v 0.087089 -0.141010 0.015000
v 0.070000 -0.123921 0.015000
v 0.052912 -0.141010 0.024628
v 0.070000 -0.158099 0.024628
v 0.087089 -0.141010 0.024628
v 0.070000 -0.123921 0.024628
v 0.081672 -0.152682 0.015000
v 0.058328 -0.152682 0.015000
v 0.058328 -0.129338 0.015000
v 0.081672 -0.129338 0.015000
v 0.081672 -0.152682 0.024628
v 0.058328 -0.152682 0.024628
v 0.058328 -0.129338 0.024628
v 0.081672 -0.129338 0.024628
v -0.087088 -0.094994 0.015000
v -0.070000 -0.112083 0.015000
v -0.052911 -0.094994 0.015000
v -0.070000 -0.077905 0.015000
v -0.087088 -0.094994 0.024628
v -0.070000 -0.112083 0.024628
v -0.052911 -0.094994 0.024628
v -0.070000 -0.077905 0.024628
v -0.058328 -0.106666 0.015000
v -0.081672 -0.106666 0.015000
v -0.081672 -0.083322 0.015000
v -0.058328 -0.083322 0.015000
v -0.058328 -0.106666 0.024628
v -0.081670 -0.106666 0.024628
v -0.081672 -0.083322 0.024628
v -0.058328 -0.083322 0.024628
v 0.052912 -0.094994 0.015000
v 0.070000 -0.112083 0.015000
v 0.087089 -0.094994 0.015000
v 0.070000 -0.077905 0.015000
v 0.052911 -0.094994 0.024628
v 0.070000 -0.112083 0.024628
v 0.087089 -0.094994 0.024628
v 0.070000 -0.077905 0.024628
v 0.081672 -0.106666 0.015000
v 0.058328 -0.106666 0.015000
v 0.058328 -0.083322 0.015000
v 0.081672 -0.083322 0.015000
v 0.081672 -0.106666 0.024628
v 0.058328 -0.106666 0.024628
v 0.058328 -0.083322 0.024628
v 0.081672 -0.083322 0.024628
v -0.087088 -0.050581 0.015000
v -0.070000 -0.067670 0.015000
v -0.052911 -0.050581 0.015000
v -0.070000 -0.033492 0.015000
v -0.087088 -0.050581 0.024628
v -0.070000 -0.067670 0.024628
v -0.052911 -0.050581 0.024628
v -0.070000 -0.033492 0.024628
v -0.058328 -0.062253 0.015000
v -0.081672 -0.062253 0.015000
v -0.081672 -0.038909 0.015000
v -0.058328 -0.038909 0.015000
v -0.058329 -0.062253 0.024628
v -0.081670 -0.062253 0.024628
v -0.081672 -0.038909 0.024628
v -0.058329 -0.038909 0.024628
v 0.052912 -0.050581 0.015000
v 0.070000 -0.067670 0.015000
v 0.087089 -0.050581 0.015000
v 0.070000 -0.033492 0.015000
v 0.052911 -0.050581 0.024628
v 0.070000 -0.067670 0.024628
v 0.087089 -0.050581 0.024628
v 0.070000 -0.033492 0.024628
v 0.081672 -0.062253 0.015000
v 0.058328 -0.062253 0.015000
v 0.058328 -0.038909 0.015000
v 0.081672 -0.038909 0.015000
v 0.081672 -0.062253 0.024628
v 0.058328 -0.062253 0.024628
v 0.058328 -0.038909 0.024628
v 0.081672 -0.038909 0.024628
v -0.058328 0.009338 0.024628
v -0.081672 0.009338 0.024628
v -0.081672 -0.014006 0.024628
v -0.058329 -0.014006 0.024628
v -0.058328 0.009338 0.015000
v -0.081672 0.009338 0.015000
v -0.081672 -0.014006 0.015000
v -0.058328 -0.014006 0.015000
v -0.070000 0.014755 0.024628
v -0.052911 -0.002334 0.024628
v -0.070000 -0.019423 0.024628
v -0.087087 -0.002334 0.024628
v -0.070000 0.014755 0.015000
v -0.052911 -0.002334 0.015000
v -0.070000 -0.019423 0.015000
v -0.087088 -0.002334 0.015000
v 0.015173 0.012840 0.024628
v 0.012132 0.009798 0.024628
v -0.015174 0.012840 0.024628
v -0.012132 0.009798 0.024628
v -0.015174 -0.017507 0.024628
v -0.012132 -0.014466 0.024628
v 0.015173 -0.017507 0.024628
v 0.012132 -0.014466 0.024628
v 0.015173 0.012840 0.015000
v -0.015174 0.012840 0.015000
v -0.015174 -0.017507 0.015000
v 0.015173 -0.017507 0.015000
v -0.000000 0.015429 0.024628
v -0.000000 0.019882 0.024628
v 0.022215 -0.002334 0.024628
v 0.017762 -0.002334 0.024628
v -0.000000 -0.024549 0.024628
v -0.000000 -0.020096 0.024628
v -0.017762 -0.002334 0.024628
v -0.022216 -0.002334 0.024628
v -0.000000 0.019882 0.015000
v 0.022215 -0.002334 0.015000
v -0.000000 -0.024549 0.015000
v -0.022216 -0.002334 0.015000
v 0.052912 -0.002334 0.015000
v 0.070000 -0.019423 0.015000
v 0.087089 -0.002334 0.015000
v 0.070000 0.014755 0.015000
v 0.052911 -0.002334 0.024628
v 0.070000 -0.019423 0.024628
v 0.087089 -0.002334 0.024628
v 0.070000 0.014755 0.024628
v 0.081672 -0.014006 0.015000
v 0.058328 -0.014006 0.015000
v 0.058328 0.009338 0.015000
v 0.081672 0.009338 0.015000
v 0.081672 -0.014006 0.024628
v 0.058328 -0.014006 0.024628
v 0.058328 0.009338 0.024628
v 0.081672 0.009338 0.024628
v -0.058328 0.159338 0.024628
v -0.081672 0.159338 0.024628
v -0.081672 0.135994 0.024628
v -0.058329 0.135994 0.024628
v -0.058328 0.159338 0.015000
v -0.081672 0.159338 0.015000
v -0.081672 0.135994 0.015000
v -0.058328 0.135994 0.015000
v -0.070000 0.164755 0.024628
v -0.052911 0.147666 0.024628
v -0.070000 0.130577 0.024628
v -0.087087 0.147666 0.024628
v -0.070000 0.164755 0.015000
v -0.052911 0.147666 0.015000
v -0.070000 0.130577 0.015000
v -0.087088 0.147666 0.015000
v 0.014006 0.161673 0.024628
v -0.014006 0.161673 0.024628
v -0.014006 0.133660 0.024628
v 0.014006 0.133660 0.024628
v 0.014006 0.161673 0.015000
v -0.014006 0.161673 0.015000
v -0.014006 0.133660 0.015000
v 0.014006 0.133660 0.015000
v 0.000000 0.168173 0.024628
v 0.020506 0.147666 0.024628
v 0.000000 0.127160 0.024628
v -0.020506 0.147666 0.024628
v 0.000000 0.168173 0.015000
v 0.020507 0.147666 0.015000
v 0.000000 0.127160 0.015000
v -0.020507 0.147666 0.015000
v 0.046075 0.147666 0.015000
v 0.070000 0.123742 0.015000
v 0.093924 0.147666 0.015000
v 0.070000 0.171591 0.015000
v 0.046075 0.147666 0.024628
v 0.050871 0.147666 0.024628
v 0.070000 0.128537 0.024628
v 0.070000 0.123742 0.024628
v 0.089129 0.147666 0.024628
v 0.093924 0.147666 0.024628
v 0.070000 0.171591 0.024628
v 0.070000 0.166795 0.024628
v 0.086341 0.131326 0.015000
v 0.053659 0.131326 0.015000
v 0.053659 0.164007 0.015000
v 0.086341 0.164007 0.015000
v 0.083065 0.134601 0.024628
v 0.086341 0.131326 0.024628
v 0.056935 0.134601 0.024628
v 0.053659 0.131326 0.024628
v 0.056935 0.160731 0.024628
v 0.053659 0.164007 0.024628
v 0.083065 0.160731 0.024628
v 0.086341 0.164007 0.024628
v 0.083065 0.134601 0.034628
v 0.070000 0.128537 0.034628
v 0.083065 0.160731 0.034628
v 0.089129 0.147666 0.034628
v 0.056935 0.134601 0.034628
v 0.050871 0.147666 0.034628
v 0.056935 0.160731 0.034628
v 0.070000 0.166795 0.034628
v -0.000000 0.015429 0.022128
v 0.012132 0.009798 0.022128
v -0.000000 -0.020096 0.022128
v -0.012132 -0.014466 0.022128
v -0.017762 -0.002334 0.022128
v 0.017762 -0.002334 0.022128
v 0.012132 -0.014466 0.022128
v -0.012132 0.009798 0.022128
vn -0.0000 1.0000 -0.0000
vn -0.0000 -0.0000 1.0000
vn -0.0000 -1.0000 -0.0000
vn -1.0000 -0.0000 -0.0000
vn 0.7071 -0.0000 0.7071
vn -0.0000 -0.7071 0.7071
vn -0.7071 -0.0000 0.7071
vn -0.0000 0.7071 0.7071
vn 1.0000 -0.0000 -0.0000
vn -0.7071 -0.7071 -0.0000
vn -1.0000 -0.0000 0.0001
vn -0.7071 0.7071 -0.0000
vn 1.0000 -0.0000 0.0001
vn 0.7071 0.7071 -0.0000
vn 0.7071 -0.7071 -0.0000
vt 0.036200 0.234807
vt 0.000000 0.234807
vt 0.000000 0.765193
vt 0.036200 0.765193
vt 0.940000 0.011050
vt 0.940000 0.988950
vt 0.020000 0.988950
vt 0.020000 0.011050
vt 0.036200 0.765193
vt 0.000000 0.765193
vt 0.000000 0.234807
vt 0.036200 0.234807
vt 0.036200 0.000000
vt 0.000000 0.000000
vt 0.000000 1.000000
vt 0.036200 1.000000
vt 0.000000 0.000000
vt 0.026279 0.010000
vt 0.026279 0.990000
vt 0.000000 1.000000
vt 0.000000 0.234807
vt 0.026279 0.244807
vt 0.026279 0.755193
vt 0.000000 0.765193
vt 0.000000 1.000000
vt 0.000000 0.765193
vt 0.000000 0.234807
vt 0.036200 1.000000
vt 0.000001 1.000000
vt 0.000000 0.000000
vt 0.036200 0.000000
vt 0.998952 0.978105
vt 0.971867 0.978105
vt 0.971867 0.958105
vt 0.998952 0.958105
vt 0.998952 0.938105
vt 0.971867 0.938105
vt 0.971867 0.918105
vt 0.998952 0.918105
vt 0.998952 0.858105
vt 0.998952 0.878105
vt 0.971868 0.878105
vt 0.971868 0.858105
vt 0.475068 0.187292
vt 0.513525 0.196759
vt 0.531374 0.217158
vt 0.513525 0.237556
vt 0.475068 0.247023
vt 0.436611 0.237556
vt 0.418760 0.217158
vt 0.436611 0.196759
vt 0.998952 0.818105
vt 0.998952 0.838105
vt 0.971868 0.838105
vt 0.971868 0.818105
vt 0.971868 0.918105
vt 0.971868 0.898105
vt 0.998952 0.898105
vt 0.971867 0.958105
vt 0.998952 0.938105
vt 0.998952 0.898105
vt 0.971867 0.898105
vt 0.971868 0.878105
vt 0.998952 0.878105
vt 0.998952 0.858105
vt 0.971868 0.858105
vt 0.971868 0.838105
vt 0.998952 0.838105
vt 0.971867 0.978105
vt 0.971867 0.958105
vt 0.971867 0.938105
vt 0.971868 0.918105
vt 0.230381 0.187865
vt 0.271433 0.197972
vt 0.290491 0.219747
vt 0.271433 0.241523
vt 0.230381 0.251629
vt 0.189328 0.241523
vt 0.170274 0.219747
vt 0.189328 0.197972
vt 0.998952 0.818105
vt 0.971868 0.838105
vt 0.971868 0.818105
vt 0.971867 0.918105
vt 0.971867 0.898105
vt 0.971868 0.958105
vt 0.971867 0.938105
vt 0.971868 0.898105
vt 0.971868 0.878105
vt 0.971868 0.838105
vt 0.971868 0.858105
vt 0.730381 0.187865
vt 0.771439 0.197972
vt 0.790491 0.219747
vt 0.771439 0.241523
vt 0.730381 0.251629
vt 0.689322 0.241523
vt 0.670267 0.219747
vt 0.689322 0.197972
vt 0.971868 0.838105
vt 0.971868 0.818105
vt 0.971867 0.918105
vt 0.971867 0.898105
vt 0.971868 0.878105
vt 0.971868 0.858105
vt 0.971868 0.838105
vt 0.998952 0.978105
vt 0.971868 0.978105
vt 0.971867 0.958105
vt 0.971868 0.878105
vt 0.230381 0.278333
vt 0.271433 0.288439
vt 0.290491 0.310215
vt 0.271433 0.331991
vt 0.230381 0.342097
vt 0.189328 0.331991
vt 0.170274 0.310215
vt 0.189328 0.288439
vt 0.971868 0.838105
vt 0.971868 0.818105
vt 0.971868 0.898105
vt 0.971868 0.858105
vt 0.971867 0.938105
vt 0.971867 0.918105
vt 0.971868 0.858105
vt 0.730381 0.278061
vt 0.771439 0.288167
vt 0.790491 0.309943
vt 0.771439 0.331719
vt 0.730381 0.341825
vt 0.689322 0.331719
vt 0.670267 0.309943
vt 0.689322 0.288167
vt 0.971868 0.838105
vt 0.971867 0.918105
vt 0.971868 0.958105
vt 0.971867 0.938105
vt 0.971868 0.878105
vt 0.971867 0.978105
vt 0.971868 0.858105
vt 0.226397 0.368227
vt 0.267448 0.378333
vt 0.286507 0.400109
vt 0.267449 0.421885
vt 0.226397 0.431991
vt 0.185344 0.421885
vt 0.166290 0.400109
vt 0.185344 0.378333
vt 0.971868 0.818105
vt 0.971867 0.878105
vt 0.971868 0.938105
vt 0.730790 0.368849
vt 0.771849 0.378955
vt 0.790900 0.400731
vt 0.771849 0.422506
vt 0.730790 0.432613
vt 0.689731 0.422506
vt 0.670677 0.400731
vt 0.689731 0.378955
vt 0.971868 0.898105
vt 0.971868 0.878105
vt 0.971867 0.958105
vt 0.226822 0.461080
vt 0.267874 0.471187
vt 0.286932 0.492962
vt 0.267874 0.514738
vt 0.226822 0.524844
vt 0.185769 0.514738
vt 0.166715 0.492962
vt 0.185769 0.471187
vt 0.812500 0.940553
vt 0.856188 0.929351
vt 0.867141 0.935402
vt 0.812500 0.949412
vt 0.500000 0.676887
vt 0.500000 0.696041
vt 0.445359 0.696041
vt 0.445359 0.676887
vt 0.768812 0.881077
vt 0.748536 0.905214
vt 0.732500 0.905214
vt 0.757859 0.875025
vt 0.876464 0.905214
vt 0.856188 0.881077
vt 0.867141 0.875025
vt 0.892500 0.905214
vt 0.554641 0.696041
vt 0.554641 0.676887
vt 0.554641 0.676887
vt 0.554641 0.696041
vt 0.543688 0.696041
vt 0.543688 0.691067
vt 0.500000 0.691067
vt 0.812500 0.869875
vt 0.812500 0.861015
vt 0.445359 0.696041
vt 0.445359 0.676887
vt 0.768812 0.929351
vt 0.757859 0.935402
vt 0.971867 0.978105
vt 0.971867 0.958105
vt 0.732381 0.461933
vt 0.773439 0.472039
vt 0.792491 0.493815
vt 0.773439 0.515591
vt 0.732381 0.525697
vt 0.691322 0.515591
vt 0.672267 0.493815
vt 0.691322 0.472039
vt 0.971868 0.858105
vt 0.971868 0.878105
vt 0.971867 0.958105
vt 0.971868 0.878105
vt 0.971868 0.858105
vt 0.227881 0.764039
vt 0.271531 0.774785
vt 0.291795 0.797939
vt 0.271531 0.821093
vt 0.227881 0.831839
vt 0.184230 0.821094
vt 0.163970 0.797939
vt 0.184230 0.774785
vt 0.971868 0.938105
vt 0.971868 0.918105
vt 0.971867 0.838105
vt 0.971868 0.878105
vt 0.971868 0.958105
vt 0.481771 0.760334
vt 0.524313 0.770806
vt 0.544055 0.793369
vt 0.524312 0.815933
vt 0.481771 0.826405
vt 0.439228 0.815933
vt 0.419483 0.793369
vt 0.439228 0.770806
vt 0.971868 0.978105
vt 0.971868 0.958105
vt 0.971868 0.918105
vt 0.971868 0.898105
vt 0.500000 0.082634
vt 0.500000 0.104866
vt 0.431699 0.104866
vt 0.431699 0.082634
vt 0.500000 0.082634
vt 0.500000 0.104866
vt 0.568301 0.104866
vt 0.568301 0.082634
vt 1.000000 0.408840
vt 1.000000 0.375691
vt 0.960000 0.375691
vt 0.960000 0.408840
vt 0.568301 0.082634
vt 0.579955 0.093750
vt 0.554610 0.063579
vt 0.568301 0.056015
vt 0.600000 0.093750
vt 0.554610 0.123921
vt 0.568301 0.131485
vt 0.500000 0.049576
vt 0.445390 0.063579
vt 0.431699 0.056015
vt 0.500000 0.038501
vt 0.420045 0.093750
vt 0.445390 0.123921
vt 0.431699 0.131485
vt 0.400000 0.093750
vt 0.431699 0.082634
vt 0.431699 0.104866
vt 0.500000 0.137924
vt 0.500000 0.148999
vt 0.732881 0.760467
vt 0.781828 0.772515
vt 0.804544 0.798477
vt 0.781828 0.824438
vt 0.732881 0.836486
vt 0.683933 0.824438
vt 0.661213 0.798477
vt 0.683933 0.772515
vt 1.000000 0.342541
vt 0.960000 0.342541
vt 0.485837 0.463960
vt 0.521460 0.472728
vt 0.537993 0.491623
vt 0.521460 0.510517
vt 0.485837 0.519286
vt 0.450214 0.510517
vt 0.433679 0.491623
vt 0.450214 0.472729
vt 0.456312 0.696041
vt 0.456312 0.691067
vt 0.543688 0.696041
vt 0.543688 0.691067
vt 0.456312 0.696041
vt 0.456312 0.691067
s 1
usemtl elevator_buttons_1
f 4/1/1 11/2/1 6/3/1 3/4/1
f 8/5/2 5/6/2 12/7/2 10/8/2
f 1/9/3 7/10/3 9/11/3 2/12/3
f 2/13/4 9/14/4 11/15/4 4/16/4
f 6/17/5 5/18/5 8/19/5 7/20/5
f 7/21/6 8/22/6 10/23/6 9/24/6
f 9/25/7 10/19/7 12/18/7 11/17/7
f 11/26/8 12/23/8 5/22/8 6/27/8
f 3/28/9 6/29/9 7/30/9 1/31/9
f 14/32/3 18/33/3 26/34/10 22/35/10
f 13/36/11 17/37/11 27/38/12 23/39/12
f 15/40/13 24/41/14 28/42/14 19/43/13
f 18/44/2 25/45/2 19/46/2 28/47/2 20/48/2 27/49/2 17/50/2 26/51/2
f 14/52/3 21/53/15 25/54/15 18/55/3
f 23/39/12 27/56/12 20/57/1 16/58/1
f 22/35/10 26/59/10 17/37/11 13/60/11
f 16/61/1 20/62/1 28/63/14 24/64/14
f 15/65/13 19/66/13 25/67/15 21/68/15
f 30/32/3 34/69/3 42/70/10 38/35/10
f 29/36/11 33/71/11 43/72/12 39/39/12
f 31/40/9 40/41/14 44/42/14 35/43/9
f 34/73/2 41/74/2 35/75/2 44/76/2 36/77/2 43/78/2 33/79/2 42/80/2
f 30/81/3 37/53/15 41/82/15 34/83/3
f 39/39/12 43/84/12 36/85/1 32/61/1
f 38/35/10 42/86/10 33/87/11 29/60/11
f 32/61/1 36/88/1 44/89/14 40/64/14
f 31/65/9 35/43/9 41/90/15 37/68/15
f 46/32/3 50/69/3 58/70/10 54/35/10
f 45/36/4 49/71/4 59/72/12 55/39/12
f 47/40/9 56/41/14 60/63/14 51/91/9
f 50/92/2 57/93/2 51/94/2 60/95/2 52/96/2 59/97/2 49/98/2 58/99/2
f 46/81/3 53/53/15 57/100/15 50/101/3
f 55/39/12 59/102/12 52/85/1 48/61/1
f 54/35/10 58/86/10 49/87/4 45/60/4
f 48/61/1 52/103/1 60/104/14 56/64/14
f 47/65/9 51/105/9 57/106/15 53/68/15
f 62/107/3 66/108/3 74/109/10 70/35/10
f 61/36/4 65/71/4 75/72/12 71/39/12
f 63/40/9 72/41/14 76/110/14 67/91/9
f 66/111/2 73/112/2 67/113/2 76/114/2 68/115/2 75/116/2 65/117/2 74/118/2
f 62/81/3 69/53/15 73/119/15 66/120/3
f 71/39/12 75/56/12 68/121/1 64/61/1
f 70/35/10 74/86/10 65/87/4 61/60/4
f 64/61/1 68/88/1 76/89/14 72/64/14
f 63/65/9 67/122/9 73/90/15 69/68/15
f 78/107/3 82/108/3 90/109/10 86/35/10
f 77/36/4 81/123/4 91/124/12 87/39/12
f 79/40/9 88/64/14 92/63/14 83/125/9
f 82/126/2 89/127/2 83/128/2 92/129/2 84/130/2 91/131/2 81/132/2 90/133/2
f 78/81/3 85/53/15 89/134/15 82/83/3
f 87/39/12 91/135/12 84/85/1 80/61/1
f 86/35/10 90/136/10 81/137/4 77/60/4
f 80/61/1 84/88/1 92/138/14 88/64/14
f 79/65/9 83/43/9 89/54/15 85/68/15
f 94/107/3 98/139/3 106/109/10 102/35/10
f 93/36/4 97/71/4 107/72/12 103/39/12
f 95/40/13 104/41/14 108/42/14 99/140/13
f 98/141/2 105/142/2 99/143/2 108/144/2 100/145/2 107/146/2 97/147/2 106/148/2
f 94/81/3 101/53/15 105/106/15 98/149/3
f 103/39/12 107/135/12 100/85/1 96/61/1
f 102/35/10 106/86/10 97/87/4 93/60/4
f 96/61/1 100/85/1 108/150/14 104/64/14
f 95/40/13 99/122/13 105/90/15 101/68/15
f 110/107/3 114/69/3 122/109/10 118/35/10
f 109/36/4 113/151/4 123/84/12 119/39/12
f 111/40/9 120/64/14 124/110/14 115/91/9
f 114/152/2 121/153/2 115/154/2 124/155/2 116/156/2 123/157/2 113/158/2 122/159/2
f 110/52/3 117/53/15 121/134/15 114/83/3
f 119/39/12 123/102/12 116/85/1 112/61/1
f 118/35/10 122/86/10 113/87/4 109/60/4
f 112/61/1 116/160/1 124/161/14 120/64/14
f 111/65/9 115/66/9 121/106/15 117/68/15
f 138/65/9 134/122/9 128/54/15 132/68/15
f 137/61/1 133/88/1 125/89/14 129/64/14
f 131/35/10 127/162/10 136/87/11 140/60/11
f 138/40/9 129/41/14 125/63/14 134/91/9
f 135/163/2 128/164/2 134/165/2 125/166/2 133/167/2 126/168/2 136/169/2 127/170/2
f 139/81/3 132/53/15 128/106/15 135/120/3
f 139/107/3 135/139/3 127/109/10 131/35/10
f 140/36/11 136/87/11 126/84/12 130/39/12
f 130/39/12 126/38/12 133/85/1 137/61/1
f 153/171/2 142/172/2 141/173/2 154/174/2
f 162/175/9 155/176/9 147/177/15 152/178/15
f 146/179/2 159/180/2 160/181/2 145/182/2
f 156/183/2 148/184/2 147/185/2 155/186/2
f 161/175/1 154/176/1 141/187/14 149/188/14
f 151/178/10 145/177/10 160/176/4 164/175/4
f 162/175/9 149/189/14 141/190/14 155/176/9
f 158/176/1 148/191/12 251/192/12 247/193/1
f 163/175/3 152/188/15 147/187/15 157/176/3
f 142/172/2 156/183/2 155/186/2 141/173/2
f 148/184/2 158/194/2 157/195/2 147/185/2
f 163/175/3 157/176/3 145/196/10 151/197/10
f 158/194/2 146/179/2 145/182/2 157/195/2
f 164/175/4 160/176/4 143/190/12 150/189/12
f 159/180/2 144/198/2 143/199/2 160/181/2
f 144/198/2 153/171/2 154/174/2 143/199/2
f 150/197/12 143/196/12 154/176/1 161/175/1
f 166/107/3 170/200/3 178/201/10 174/35/10
f 165/36/4 169/87/4 179/84/12 175/39/12
f 167/40/9 176/41/14 180/63/14 171/91/9
f 170/202/2 177/203/2 171/204/2 180/205/2 172/206/2 179/207/2 169/208/2 178/209/2
f 166/52/3 173/53/15 177/134/15 170/83/3
f 175/39/12 179/84/12 172/85/1 168/61/1
f 174/35/10 178/34/10 169/87/4 165/60/4
f 168/61/1 172/85/1 180/104/14 176/64/14
f 167/65/9 171/210/9 177/90/15 173/68/15
f 194/65/9 190/66/9 184/134/15 188/68/15
f 193/61/1 189/103/1 181/211/14 185/64/14
f 187/35/10 183/212/10 192/37/11 196/60/11
f 194/40/9 185/41/14 181/213/14 190/214/9
f 191/215/2 184/216/2 190/217/2 181/218/2 189/219/2 182/220/2 192/221/2 183/222/2
f 195/81/3 188/53/15 184/54/15 191/83/3
f 195/32/3 191/69/3 183/212/10 187/35/10
f 196/36/11 192/223/11 182/224/12 186/39/12
f 186/39/12 182/84/12 189/103/1 193/61/1
f 210/65/9 206/43/9 200/225/15 204/68/15
f 209/61/1 205/121/1 197/226/14 201/64/14
f 203/35/10 199/227/10 208/151/4 212/60/4
f 210/40/9 201/41/14 197/104/14 206/105/9
f 207/228/2 200/229/2 206/230/2 197/231/2 205/232/2 198/233/2 208/234/2 199/235/2
f 211/52/3 204/53/15 200/225/15 207/149/3
f 211/32/3 207/236/3 199/237/10 203/35/10
f 212/36/4 208/137/4 198/56/12 202/39/12
f 202/39/12 198/238/12 205/239/1 209/58/1
f 214/240/3 220/241/3 232/242/10 226/243/10
f 213/244/4 217/245/4 234/246/12 227/247/12
f 215/244/9 228/247/14 236/246/14 222/245/9
f 235/248/14 224/249/1 244/250/1 239/251/14
f 214/240/3 225/252/15 230/246/15 220/241/3
f 227/243/12 234/242/12 223/241/1 216/240/1
f 221/253/2 229/254/2 230/255/2 222/256/2
f 235/257/2 221/253/2 222/256/2 236/258/2
f 219/259/2 231/260/2 232/261/2 220/262/2
f 218/263/2 233/264/2 234/265/2 217/266/2
f 226/267/10 232/268/10 217/245/4 213/244/4
f 233/264/2 224/269/2 223/270/2 234/265/2
f 231/260/2 218/263/2 217/266/2 232/261/2
f 224/269/2 235/257/2 236/258/2 223/270/2
f 216/240/1 223/241/1 236/246/14 228/252/14
f 215/244/9 222/245/9 230/268/15 225/267/15
f 229/254/2 219/259/2 220/262/2 230/255/2
f 238/271/2 237/272/2 240/273/2 239/274/2 244/275/2 243/276/2 242/277/2 241/278/2
f 233/248/12 218/249/4 242/250/4 243/251/12
f 231/279/10 219/249/3 238/250/3 241/280/10
f 224/249/1 233/279/12 243/280/12 244/250/1
f 229/279/15 221/249/9 240/250/9 237/280/15
f 221/249/9 235/248/14 239/251/14 240/250/9
f 219/249/3 229/248/15 237/251/15 238/250/3
f 218/249/4 231/279/10 241/280/10 242/250/4
f 247/281/2 251/282/2 250/283/2 246/284/2 245/285/2 252/286/2 249/287/2 248/288/2
f 148/289/12 156/176/4 250/193/4 251/290/12
f 142/191/10 153/176/3 245/193/3 246/192/10
f 144/291/15 159/176/9 249/193/9 252/292/15
f 156/176/4 142/291/10 246/292/10 250/193/4
f 159/176/9 146/289/14 248/290/14 249/193/9
f 153/176/3 144/293/15 252/294/15 245/193/3
f 146/293/14 158/176/1 247/193/1 248/294/14
