# Blender 5.0.1
# www.blender.org
mtllib elevator_screen_1.mtl
o elevator_screen_1
v 0.313200 0.100000 0.000000
v 0.336732 0.077253 0.000000
v 0.336732 -0.079737 -0.000000
v 0.315707 -0.100000 -0.000000
v -0.356730 -0.074618 -0.000000
v -0.335249 -0.100000 -0.000000
v -0.335348 0.100000 0.000000
v -0.356730 0.073556 0.000000
v 0.336732 -0.079737 0.014000
v 0.336732 0.077253 0.014000
v 0.313200 0.100000 0.014000
v -0.335249 -0.100000 0.014000
v 0.315707 -0.100000 0.014000
v -0.356730 0.073556 0.014000
v -0.356730 -0.074618 0.014000
v -0.335348 0.100000 0.014000
v -0.314999 -0.084000 0.014000
v -0.314999 0.084000 0.014000
v 0.295001 -0.084000 0.014000
v 0.295001 0.084000 0.014000
v 0.294999 -0.045000 0.053000
v 0.294999 -0.035000 0.053000
v 0.294999 -0.045000 0.042000
v 0.294999 -0.035000 0.042000
v 0.304999 -0.045000 0.053000
v 0.304999 -0.035000 0.053000
v 0.304999 -0.045000 0.042000
v 0.304999 -0.035000 0.042000
v 0.315606 -0.045000 0.048606
v 0.315606 -0.035000 0.048606
v 0.308535 -0.045000 0.040535
v 0.308535 -0.035000 0.040535
v 0.319999 -0.045000 0.037000
v 0.319999 -0.035000 0.037000
v 0.309999 -0.045000 0.037000
v 0.309999 -0.035000 0.037000
v 0.294999 0.035000 0.053000
v 0.294999 0.045000 0.053000
v 0.294999 0.035000 0.042000
v 0.294999 0.045000 0.042000
v 0.304999 0.035000 0.053000
v 0.304999 0.045000 0.053000
v 0.304999 0.035000 0.042000
v 0.304999 0.045000 0.042000
v 0.315606 0.035000 0.048606
v 0.315606 0.045000 0.048606
v 0.308535 0.035000 0.040535
v 0.308535 0.045000 0.040535
v 0.319999 0.035000 0.037000
v 0.319999 0.045000 0.037000
v 0.309999 0.035000 0.037000
v 0.309999 0.045000 0.037000
v 0.294999 0.055000 0.053000
v 0.294999 0.065000 0.053000
v 0.294999 0.055000 0.042000
v 0.294999 0.065000 0.042000
v 0.304999 0.055000 0.053000
v 0.304999 0.065000 0.053000
v 0.304999 0.055000 0.042000
v 0.304999 0.065000 0.042000
v 0.315606 0.055000 0.048606
v 0.315606 0.065000 0.048606
v 0.308535 0.055000 0.040535
v 0.308535 0.065000 0.040535
v 0.319999 0.055000 0.037000
v 0.319999 0.065000 0.037000
v 0.309999 0.055000 0.037000
v 0.309999 0.065000 0.037000
v 0.294999 -0.065000 0.053000
v 0.294999 -0.055000 0.053000
v 0.294999 -0.065000 0.042000
v 0.294999 -0.055000 0.042000
v 0.304999 -0.065000 0.053000
v 0.304999 -0.055000 0.053000
v 0.304999 -0.065000 0.042000
v 0.304999 -0.055000 0.042000
v 0.315606 -0.065000 0.048606
v 0.315606 -0.055000 0.048606
v 0.308535 -0.065000 0.040535
v 0.308535 -0.055000 0.040535
v 0.319999 -0.065000 0.037000
v 0.319999 -0.055000 0.037000
v 0.309999 -0.065000 0.037000
v 0.309999 -0.055000 0.037000
v 0.295001 0.084000 0.058000
v -0.314999 0.084000 0.036000
v -0.314999 0.084000 0.058000
v -0.314999 -0.084000 0.058000
v 0.295001 -0.084000 0.036000
v 0.295001 0.084000 0.036000
v -0.314999 -0.084000 0.036000
v -0.294999 -0.064000 0.058000
v -0.294999 0.064000 0.058000
v 0.275001 -0.064000 0.058000
v 0.275001 0.064000 0.058000
v 0.295001 -0.084000 0.058000
v -0.285999 -0.055000 0.048000
v -0.285999 0.055000 0.048000
v 0.266001 0.055000 0.048000
v 0.266001 -0.055000 0.048000
v 0.319999 -0.045000 0.014000
v 0.319999 -0.035000 0.014000
v 0.309999 -0.045000 0.014000
v 0.309999 -0.035000 0.014000
v 0.319999 0.035000 0.014000
v 0.319999 0.045000 0.014000
v 0.309999 0.035000 0.014000
v 0.309999 0.045000 0.014000
v 0.319999 0.055000 0.014000
v 0.319999 0.065000 0.014000
v 0.309999 0.055000 0.014000
v 0.309999 0.065000 0.014000
v 0.319999 -0.065000 0.014000
v 0.319999 -0.055000 0.014000
v 0.309999 -0.065000 0.014000
v 0.309999 -0.055000 0.014000
v -0.314998 -0.045000 0.053000
v -0.314998 -0.035000 0.053000
v -0.314998 -0.045000 0.042000
v -0.314998 -0.035000 0.042000
v -0.324998 -0.045000 0.053000
v -0.324998 -0.035000 0.053000
v -0.324998 -0.045000 0.042000
v -0.324998 -0.035000 0.042000
v -0.335604 -0.045000 0.048606
v -0.335604 -0.035000 0.048606
v -0.328533 -0.045000 0.040535
v -0.328533 -0.035000 0.040535
v -0.339997 -0.045000 0.037000
v -0.339997 -0.035000 0.037000
v -0.329997 -0.045000 0.037000
v -0.329997 -0.035000 0.037000
v -0.314998 0.035000 0.053000
v -0.314998 0.045000 0.053000
v -0.314998 0.035000 0.042000
v -0.314998 0.045000 0.042000
v -0.324998 0.035000 0.053000
v -0.324998 0.045000 0.053000
v -0.324998 0.035000 0.042000
v -0.324998 0.045000 0.042000
v -0.335604 0.035000 0.048606
v -0.335604 0.045000 0.048606
v -0.328533 0.035000 0.040535
v -0.328533 0.045000 0.040535
v -0.339997 0.035000 0.037000
v -0.339997 0.045000 0.037000
v -0.329997 0.035000 0.037000
v -0.329997 0.045000 0.037000
v -0.314998 0.055000 0.053000
v -0.314998 0.065000 0.053000
v -0.314998 0.055000 0.042000
v -0.314998 0.065000 0.042000
v -0.324998 0.055000 0.053000
v -0.324998 0.065000 0.053000
v -0.324998 0.055000 0.042000
v -0.324998 0.065000 0.042000
v -0.335604 0.055000 0.048606
v -0.335604 0.065000 0.048606
v -0.328533 0.055000 0.040535
v -0.328533 0.065000 0.040535
v -0.339997 0.055000 0.037000
v -0.339997 0.065000 0.037000
v -0.329997 0.055000 0.037000
v -0.329997 0.065000 0.037000
v -0.314998 -0.065000 0.053000
v -0.314998 -0.055000 0.053000
v -0.314998 -0.065000 0.042000
v -0.314998 -0.055000 0.042000
v -0.324998 -0.065000 0.053000
v -0.324998 -0.055000 0.053000
v -0.324998 -0.065000 0.042000
v -0.324998 -0.055000 0.042000
v -0.335604 -0.065000 0.048606
v -0.335604 -0.055000 0.048606
v -0.328533 -0.065000 0.040535
v -0.328533 -0.055000 0.040535
v -0.339997 -0.065000 0.037000
v -0.339997 -0.055000 0.037000
v -0.329997 -0.065000 0.037000
v -0.329997 -0.055000 0.037000
v -0.339997 -0.045000 0.014000
v -0.339997 -0.035000 0.014000
v -0.329997 -0.045000 0.014000
v -0.329997 -0.035000 0.014000
v -0.339997 0.035000 0.014000
v -0.339997 0.045000 0.014000
v -0.329997 0.035000 0.014000
v -0.329997 0.045000 0.014000
v -0.339997 0.055000 0.014000
v -0.339997 0.065000 0.014000
v -0.329997 0.055000 0.014000
v -0.329997 0.065000 0.014000
v -0.339997 -0.065000 0.014000
v -0.339997 -0.055000 0.014000
v -0.329997 -0.065000 0.014000
v -0.329997 -0.055000 0.014000
vn -0.0000 1.0000 -0.0000
vn -1.0000 -0.0000 -0.0000
vn -0.0000 -1.0000 -0.0000
vn -0.7633 -0.6460 -0.0000
vn 1.0000 -0.0000 -0.0000
vn -0.0000 -0.0000 1.0000
vn 0.6950 0.7190 -0.0000
vn 0.6939 -0.7200 -0.0000
vn -0.7776 0.6287 -0.0000
vn -0.0000 -0.0000 -1.0000
vn 0.9352 -0.0000 0.3540
vn -0.3827 -0.0000 -0.9239
vn 0.3827 -0.0000 0.9239
vn -0.9239 -0.0000 -0.3826
vn -0.0000 -0.7433 0.6690
vn -0.7433 -0.0000 0.6690
vn -0.0000 0.7433 0.6690
vn 0.7433 -0.0000 0.6690
vn -0.9352 -0.0000 0.3540
vn 0.3827 -0.0000 -0.9239
vn -0.3827 -0.0000 0.9239
vn 0.9239 -0.0000 -0.3826
vt 0.915012 0.000000
vt 0.047425 0.000000
vt 0.047425 0.071917
vt 0.915012 0.071917
vt 0.587744 0.000000
vt 0.389525 0.000000
vt 0.389525 0.071917
vt 0.587744 0.071917
vt 0.047559 0.000000
vt 0.918365 0.000000
vt 0.918365 0.071917
vt 0.047559 0.071917
vt 0.286458 0.000000
vt 0.239583 0.000000
vt 0.239583 0.080000
vt 0.286458 0.080000
vt 0.382678 0.000000
vt 0.592690 0.000000
vt 0.592690 0.071917
vt 0.382678 0.071917
vt 0.946967 0.878975
vt 0.916881 0.990384
vt 0.068942 0.992656
vt 0.041222 0.864448
vt 0.040251 0.133591
vt 0.067374 0.009692
vt 0.918766 0.008301
vt 0.946064 0.106491
vt 0.609375 0.100000
vt 0.395833 0.100000
vt 0.395833 0.200000
vt 0.609375 0.200000
vt 0.098958 0.200000
vt 0.890625 0.200000
vt 0.890625 0.100000
vt 0.098958 0.100000
vt 0.755208 0.140000
vt 0.755208 0.200000
vt 0.776042 0.200000
vt 0.776042 0.140000
vt 0.869792 0.240000
vt 0.890625 0.240000
vt 0.880208 0.160000
vt 0.864583 0.220000
vt 0.869792 0.320000
vt 0.890625 0.320000
vt 0.812500 0.140000
vt 0.812500 0.200000
vt 0.786458 0.200000
vt 0.786458 0.140000
vt 0.781250 0.200000
vt 0.781250 0.140000
vt 0.796875 0.140000
vt 0.796875 0.200000
vt 0.859375 0.200000
vt 0.859375 0.140000
vt 0.135417 0.760000
vt 0.854167 0.760000
vt 0.864583 0.800000
vt 0.125000 0.800000
vt 0.125000 0.200000
vt 0.098958 0.900000
vt 0.864583 0.200000
vt 0.890625 0.900000
vt 0.854167 0.240000
vt 0.135417 0.240000
vt 0.744792 0.140000
vt 0.744792 0.200000
s 0
usemtl elevator_screen_1
f 1/1/1 7/2/1 16/3/1 11/4/1
f 8/5/2 5/6/2 15/7/2 14/8/2
f 6/9/3 4/10/3 13/11/3 12/12/3
f 5/13/4 6/14/4 12/15/4 15/16/4
f 3/17/5 2/18/5 10/19/5 9/20/5
f 10/21/6 11/22/6 16/23/6 14/24/6 15/25/6 12/26/6 13/27/6 9/28/6
f 91/29/2 86/30/2 18/31/2 17/32/2
f 19/32/5 20/31/5 90/30/5 89/29/5
f 17/33/3 19/34/3 89/35/3 91/36/3
f 20/34/1 18/33/1 86/36/1 90/35/1
f 2/13/7 1/14/7 11/15/7 10/16/7
f 4/14/8 3/13/8 9/16/8 13/15/8
f 7/13/9 8/14/9 14/15/9 16/16/9
f 23/37/10 24/38/10 28/39/10 27/40/10
f 28/41/1 26/42/1 30/43/1 32/44/1
f 25/40/6 26/39/6 22/38/6 21/37/6
f 23/45/3 27/41/3 25/42/3 21/46/3
f 28/41/1 24/45/1 22/46/1 26/42/1
f 30/47/11 29/48/11 33/49/11 34/50/11
f 27/40/12 28/39/12 32/51/12 31/52/12
f 26/39/13 25/40/13 29/53/13 30/54/13
f 25/42/3 27/41/3 31/44/3 29/43/3
f 29/43/3 31/44/3 35/55/3 33/56/3
f 32/44/1 30/43/1 34/56/1 36/55/1
f 31/54/14 32/53/14 36/50/14 35/49/14
f 39/37/10 40/38/10 44/39/10 43/40/10
f 44/41/1 42/42/1 46/43/1 48/44/1
f 41/40/6 42/39/6 38/38/6 37/37/6
f 39/45/3 43/41/3 41/42/3 37/46/3
f 44/41/1 40/45/1 38/46/1 42/42/1
f 46/47/11 45/48/11 49/49/11 50/50/11
f 43/40/12 44/39/12 48/51/12 47/52/12
f 42/39/13 41/40/13 45/53/13 46/54/13
f 41/42/3 43/41/3 47/44/3 45/43/3
f 45/43/3 47/44/3 51/55/3 49/56/3
f 48/44/1 46/43/1 50/56/1 52/55/1
f 47/54/14 48/53/14 52/50/14 51/49/14
f 55/37/10 56/38/10 60/39/10 59/40/10
f 60/41/1 58/42/1 62/43/1 64/44/1
f 57/40/6 58/39/6 54/38/6 53/37/6
f 55/45/3 59/41/3 57/42/3 53/46/3
f 60/41/1 56/45/1 54/46/1 58/42/1
f 62/47/11 61/48/11 65/49/11 66/50/11
f 59/40/12 60/39/12 64/51/12 63/52/12
f 58/39/13 57/40/13 61/53/13 62/54/13
f 57/42/3 59/41/3 63/44/3 61/43/3
f 61/43/3 63/44/3 67/55/3 65/56/3
f 64/44/1 62/43/1 66/56/1 68/55/1
f 63/54/14 64/53/14 68/50/14 67/49/14
f 71/37/10 72/38/10 76/39/10 75/40/10
f 76/41/1 74/42/1 78/43/1 80/44/1
f 73/40/6 74/39/6 70/38/6 69/37/6
f 71/45/3 75/41/3 73/42/3 69/46/3
f 76/41/1 72/45/1 70/46/1 74/42/1
f 78/47/11 77/48/11 81/49/11 82/50/11
f 75/40/12 76/39/12 80/51/12 79/52/12
f 74/39/13 73/40/13 77/53/13 78/54/13
f 73/42/3 75/41/3 79/44/3 77/43/3
f 77/43/3 79/44/3 83/55/3 81/56/3
f 80/44/1 78/43/1 82/56/1 84/55/1
f 79/54/14 80/53/14 84/50/14 83/49/14
f 90/34/1 86/33/1 87/36/1 85/35/1
f 91/33/3 89/34/3 96/35/3 88/36/3
f 89/32/5 90/31/5 85/30/5 96/29/5
f 88/29/2 87/30/2 86/31/2 91/32/2
f 98/57/15 99/58/15 95/59/15 93/60/15
f 92/61/6 93/60/6 87/62/6 88/36/6
f 95/59/6 94/63/6 96/35/6 85/64/6
f 94/63/6 92/61/6 88/36/6 96/35/6
f 93/60/6 95/59/6 85/64/6 87/62/6
f 100/65/6 99/58/6 98/57/6 97/66/6
f 99/58/16 100/65/16 94/63/16 95/59/16
f 100/65/17 97/66/17 92/61/17 94/63/17
f 97/66/18 98/57/18 93/60/18 92/61/18
f 83/49/2 84/50/2 116/67/2 115/68/2
f 51/49/2 52/50/2 108/67/2 107/68/2
f 81/56/3 83/55/3 115/48/3 113/47/3
f 49/56/3 51/55/3 107/48/3 105/47/3
f 84/55/1 82/56/1 114/47/1 116/48/1
f 35/49/2 36/50/2 104/67/2 103/68/2
f 52/55/1 50/56/1 106/47/1 108/48/1
f 82/50/5 81/49/5 113/68/5 114/67/5
f 67/49/2 68/50/2 112/67/2 111/68/2
f 33/56/3 35/55/3 103/48/3 101/47/3
f 50/50/5 49/49/5 105/68/5 106/67/5
f 65/56/3 67/55/3 111/48/3 109/47/3
f 36/55/1 34/56/1 102/47/1 104/48/1
f 34/50/5 33/49/5 101/68/5 102/67/5
f 68/55/1 66/56/1 110/47/1 112/48/1
f 66/50/5 65/49/5 109/68/5 110/67/5
f 119/37/10 123/40/10 124/39/10 120/38/10
f 124/41/1 128/44/1 126/43/1 122/42/1
f 121/40/6 117/37/6 118/38/6 122/39/6
f 119/45/3 117/46/3 121/42/3 123/41/3
f 124/41/1 122/42/1 118/46/1 120/45/1
f 126/47/19 130/50/19 129/49/19 125/48/19
f 123/40/20 127/52/20 128/51/20 124/39/20
f 122/39/21 126/54/21 125/53/21 121/40/21
f 121/42/3 125/43/3 127/44/3 123/41/3
f 125/43/3 129/56/3 131/55/3 127/44/3
f 128/44/1 132/55/1 130/56/1 126/43/1
f 127/54/22 131/49/22 132/50/22 128/53/22
f 135/37/10 139/40/10 140/39/10 136/38/10
f 140/41/1 144/44/1 142/43/1 138/42/1
f 137/40/6 133/37/6 134/38/6 138/39/6
f 135/45/3 133/46/3 137/42/3 139/41/3
f 140/41/1 138/42/1 134/46/1 136/45/1
f 142/47/19 146/50/19 145/49/19 141/48/19
f 139/40/20 143/52/20 144/51/20 140/39/20
f 138/39/21 142/54/21 141/53/21 137/40/21
f 137/42/3 141/43/3 143/44/3 139/41/3
f 141/43/3 145/56/3 147/55/3 143/44/3
f 144/44/1 148/55/1 146/56/1 142/43/1
f 143/54/22 147/49/22 148/50/22 144/53/22
f 151/37/10 155/40/10 156/39/10 152/38/10
f 156/41/1 160/44/1 158/43/1 154/42/1
f 153/40/6 149/37/6 150/38/6 154/39/6
f 151/45/3 149/46/3 153/42/3 155/41/3
f 156/41/1 154/42/1 150/46/1 152/45/1
f 158/47/19 162/50/19 161/49/19 157/48/19
f 155/40/20 159/52/20 160/51/20 156/39/20
f 154/39/21 158/54/21 157/53/21 153/40/21
f 153/42/3 157/43/3 159/44/3 155/41/3
f 157/43/3 161/56/3 163/55/3 159/44/3
f 160/44/1 164/55/1 162/56/1 158/43/1
f 159/54/22 163/49/22 164/50/22 160/53/22
f 167/37/10 171/40/10 172/39/10 168/38/10
f 172/41/1 176/44/1 174/43/1 170/42/1
f 169/40/6 165/37/6 166/38/6 170/39/6
f 167/45/3 165/46/3 169/42/3 171/41/3
f 172/41/1 170/42/1 166/46/1 168/45/1
f 174/47/19 178/50/19 177/49/19 173/48/19
f 171/40/20 175/52/20 176/51/20 172/39/20
f 170/39/21 174/54/21 173/53/21 169/40/21
f 169/42/3 173/43/3 175/44/3 171/41/3
f 173/43/3 177/56/3 179/55/3 175/44/3
f 176/44/1 180/55/1 178/56/1 174/43/1
f 175/54/22 179/49/22 180/50/22 176/53/22
f 179/49/5 195/68/5 196/67/5 180/50/5
f 147/49/5 187/68/5 188/67/5 148/50/5
f 177/56/3 193/47/3 195/48/3 179/55/3
f 145/56/3 185/47/3 187/48/3 147/55/3
f 180/55/1 196/48/1 194/47/1 178/56/1
f 131/49/5 183/68/5 184/67/5 132/50/5
f 148/55/1 188/48/1 186/47/1 146/56/1
f 178/50/2 194/67/2 193/68/2 177/49/2
f 163/49/5 191/68/5 192/67/5 164/50/5
f 129/56/3 181/47/3 183/48/3 131/55/3
f 146/50/2 186/67/2 185/68/2 145/49/2
f 161/56/3 189/47/3 191/48/3 163/55/3
f 132/55/1 184/48/1 182/47/1 130/56/1
f 130/50/2 182/67/2 181/68/2 129/49/2
f 164/55/1 192/48/1 190/47/1 162/56/1
f 162/50/2 190/67/2 189/68/2 161/49/2
