# Blender 5.0.1
# www.blender.org
mtllib handheld_tablet_1.mtl
o handheld_tablet_1
v -0.063278 0.006081 -0.110000
v 0.063068 0.006081 -0.110000
v -0.069998 0.040000 -0.110000
v 0.070002 0.040000 -0.110000
v -0.052898 0.030000 0.054573
v 0.054702 0.030000 0.054573
v -0.052898 0.030000 -0.086308
v 0.054702 0.030000 -0.086308
v -0.069998 0.040000 -0.100000
v 0.070002 0.040000 -0.100000
v 0.070002 0.030000 0.060000
v -0.069998 0.030000 0.060000
v -0.069998 0.030000 -0.090000
v 0.070002 0.030000 -0.090000
v 0.054702 0.026000 0.054573
v -0.052898 0.026000 0.054573
v -0.052898 0.026000 -0.086308
v 0.054702 0.026000 -0.086308
v -0.069998 0.035000 0.091666
v -0.069998 0.035000 0.063333
v 0.070002 0.035000 0.091666
v 0.070002 0.035000 0.063333
v 0.040401 0.038200 0.083648
v 0.047055 0.038200 0.086404
v 0.053707 0.038200 0.083648
v 0.056463 0.038200 0.076996
v 0.053707 0.038200 0.070343
v 0.047053 0.038200 0.067588
v 0.037646 0.038200 0.076996
v 0.040401 0.038200 0.070343
v 0.047053 0.035000 0.067588
v 0.040401 0.035000 0.070343
v 0.056463 0.035000 0.076996
v 0.053707 0.035000 0.070343
v 0.047055 0.035000 0.086404
v 0.053707 0.035000 0.083648
v 0.037646 0.035000 0.076996
v 0.040401 0.035000 0.083648
v 0.015401 0.038200 0.083648
v 0.022054 0.038200 0.086404
v 0.028707 0.038200 0.083648
v 0.031463 0.038200 0.076996
v 0.028707 0.038200 0.070343
v 0.022053 0.038200 0.067588
v 0.012645 0.038200 0.076996
v 0.015401 0.038200 0.070343
v 0.022053 0.035000 0.067588
v 0.015401 0.035000 0.070343
v 0.031463 0.035000 0.076996
v 0.028707 0.035000 0.070343
v 0.022054 0.035000 0.086404
v 0.028707 0.035000 0.083648
v 0.012645 0.035000 0.076996
v 0.015401 0.035000 0.083648
v -0.027601 0.038200 0.083648
v -0.020948 0.038200 0.086404
v -0.014295 0.038200 0.083648
v -0.011540 0.038200 0.076996
v -0.014295 0.038200 0.070343
v -0.020949 0.038200 0.067588
v -0.030357 0.038200 0.076996
v -0.027602 0.038200 0.070343
v -0.020949 0.035000 0.067588
v -0.027602 0.035000 0.070343
v -0.011540 0.035000 0.076996
v -0.014295 0.035000 0.070343
v -0.020948 0.035000 0.086404
v -0.014295 0.035000 0.083648
v -0.030357 0.035000 0.076996
v -0.027601 0.035000 0.083648
v -0.052600 0.038200 0.083648
v -0.045947 0.038200 0.086404
v -0.039294 0.038200 0.083648
v -0.036538 0.038200 0.076996
v -0.039294 0.038200 0.070343
v -0.045948 0.038200 0.067588
v -0.055356 0.038200 0.076996
v -0.052600 0.038200 0.070343
v -0.045948 0.035000 0.067588
v -0.052600 0.035000 0.070343
v -0.036538 0.035000 0.076996
v -0.039294 0.035000 0.070343
v -0.045947 0.035000 0.086404
v -0.039294 0.035000 0.083648
v -0.055356 0.035000 0.076996
v -0.052600 0.035000 0.083648
v 0.063068 0.024265 -0.110000
v -0.063278 0.024265 -0.110000
v 0.070002 -0.000000 -0.110000
v -0.069998 -0.000000 -0.110000
v -0.069998 0.030000 -0.110000
v 0.070002 0.030000 -0.110000
v 0.063068 0.006081 -0.108000
v -0.063278 0.006081 -0.108000
v -0.063278 0.024265 -0.108000
v 0.063068 0.024265 -0.108000
v 0.063278 0.006081 0.100001
v -0.063068 0.006081 0.100001
v -0.063068 0.024266 0.100001
v 0.063278 0.024266 0.100001
v -0.070002 0.000000 0.100001
v 0.069998 0.000000 0.100001
v 0.069998 0.030000 0.100001
v -0.070002 0.030000 0.100001
v -0.063068 0.006081 0.098001
v 0.063278 0.006081 0.098001
v 0.063278 0.024265 0.098001
v -0.063068 0.024265 0.098001
vn -0.0000 1.0000 -0.0000
vn -0.0000 -0.0000 -1.0000
vn -1.0000 0.0001 -0.0000
vn 1.0000 -0.0000 0.0001
vn -0.0000 0.5547 -0.8321
vn -1.0000 -0.0000 -0.0000
vn 1.0000 -0.0001 -0.0000
vn -0.0000 -1.0000 -0.0000
vn 1.0000 -0.0000 -0.0000
vn -0.0000 0.7071 0.7071
vn -0.0000 -0.0000 1.0000
vn -1.0000 -0.0000 -0.0005
vn -1.0000 -0.0000 -0.0001
vn -0.0000 0.8575 0.5144
vn 1.0000 -0.0000 0.0005
vn -0.0000 0.6303 0.7764
vn 0.5490 0.6303 0.5490
vn 0.7764 0.6303 -0.0000
vn 0.5490 0.6302 -0.5490
vn -0.0000 0.6303 -0.7764
vn -0.5490 0.6303 -0.5490
vn -0.7764 0.6303 -0.0000
vn -0.5490 0.6303 0.5490
vn -0.7071 -0.0000 0.7071
vn 0.7071 -0.0000 0.7071
vn 0.7071 -0.0000 -0.7071
vn -0.7071 -0.0000 -0.7071
vt 0.364865 0.951219
vt 0.734234 0.951219
vt 0.734234 1.000000
vt 0.364865 1.000000
vt 0.910991 0.999977
vt 0.910991 0.342672
vt 0.881322 0.342550
vt 0.881322 0.999969
vt 0.909661 1.000002
vt 0.909661 0.000000
vt 0.830510 0.190476
vt 0.830510 0.904762
vt 0.909661 0.000000
vt 0.817319 0.174603
vt 0.364865 0.203252
vt 0.734234 0.203252
vt 0.734234 0.235772
vt 0.364865 0.235772
vt 0.804127 0.952381
vt 0.725225 0.784299
vt 0.725225 0.150152
vt 0.734234 0.150152
vt 0.734234 0.784299
vt 0.000000 -0.000001
vt 0.000000 1.000002
vt 0.366150 1.000002
vt 0.366150 -0.000001
vt 0.830511 1.000000
vt 0.804127 1.000000
vt 0.909661 1.000001
vt 0.364865 0.894309
vt 0.734234 0.894309
vt 0.693694 0.243902
vt 0.409910 0.243902
vt 0.364865 0.219512
vt 0.734234 0.219512
vt 0.409910 0.878049
vt 0.693694 0.878049
vt 0.725225 0.711128
vt 0.725225 0.231453
vt 0.734234 0.231453
vt 0.734234 0.711128
vt 0.830510 0.000000
vt 0.817319 0.039682
vt 0.909661 -0.000001
vt 0.909661 0.000001
vt 0.364865 0.000000
vt 0.734234 0.000000
vt 0.734234 0.048780
vt 0.364865 0.048780
vt 0.909661 0.000001
vt 0.909661 -0.000001
vt 0.673976 0.086694
vt 0.689298 0.098190
vt 0.695628 0.125874
vt 0.689259 0.153528
vt 0.673918 0.164954
vt 0.658596 0.153457
vt 0.652266 0.125774
vt 0.658636 0.098120
vt 0.945114 0.526882
vt 0.951733 0.526882
vt 0.951733 0.553766
vt 0.945114 0.553766
vt 0.951733 0.580651
vt 0.945114 0.580651
vt 0.951733 0.607534
vt 0.945114 0.607534
vt 0.951733 0.634417
vt 0.945114 0.634417
vt 0.951733 0.661300
vt 0.945114 0.661300
vt 0.951733 0.688188
vt 0.945114 0.688188
vt 0.945114 0.500000
vt 0.951733 0.500000
vt 0.945114 0.473117
vt 0.951733 0.473117
vt 0.610235 0.086694
vt 0.625557 0.098190
vt 0.631887 0.125874
vt 0.625517 0.153528
vt 0.610176 0.164954
vt 0.594855 0.153457
vt 0.588525 0.125774
vt 0.594895 0.098120
vt 0.945114 0.526882
vt 0.945114 0.553766
vt 0.945114 0.607534
vt 0.492489 0.086694
vt 0.507811 0.098190
vt 0.514141 0.125874
vt 0.507771 0.153528
vt 0.492430 0.164954
vt 0.477109 0.153457
vt 0.470779 0.125774
vt 0.477149 0.098120
vt 0.430547 0.086694
vt 0.445869 0.098190
vt 0.452200 0.125874
vt 0.445830 0.153528
vt 0.430489 0.164954
vt 0.415167 0.153457
vt 0.408838 0.125774
vt 0.415207 0.098120
vt 0.981959 0.374502
vt 0.928005 0.374287
vt 0.981959 0.967453
vt 1.000000 1.000000
vt 1.000000 0.343036
vt 0.928005 0.967433
vt 0.830511 1.000000
vt 0.909661 1.000000
s 0
usemtl handheld_tablet_1
f 9/1/1 10/2/1 4/3/1 3/4/1
f 92/5/2 91/6/2 3/7/2 4/8/2
f 90/9/3 101/10/3 12/11/3 13/12/3
f 102/13/4 11/11/4 22/14/4
f 20/15/5 22/16/5 11/17/5 12/18/5
f 90/9/6 13/12/6 9/19/6
f 102/13/7 89/9/7 14/12/7 11/11/7
f 6/20/6 8/21/6 18/22/6 15/23/6
f 101/24/8 90/25/8 89/26/8 102/27/8
f 91/28/6 9/19/6 3/29/6
f 89/30/9 10/19/9 14/12/9
f 13/31/10 14/32/10 10/2/10 9/1/10
f 6/33/1 5/34/1 12/35/1 11/36/1
f 5/34/1 7/37/1 13/31/1 12/35/1
f 8/38/1 6/33/1 11/36/1 14/32/1
f 7/37/1 8/38/1 14/32/1 13/31/1
f 16/34/1 15/33/1 18/38/1 17/37/1
f 5/39/2 6/40/2 15/41/2 16/42/2
f 8/40/11 7/39/11 17/42/11 18/41/11
f 7/21/9 5/20/9 16/23/9 17/22/9
f 101/13/12 104/43/12 19/44/12
f 101/45/13 20/14/13 12/11/13
f 101/46/3 19/44/3 20/14/3
f 104/47/14 103/48/14 21/49/14 19/50/14
f 19/50/1 21/49/1 22/16/1 20/15/1
f 102/51/15 21/44/15 103/43/15
f 102/52/7 22/14/7 21/44/7
s 1
f 24/53/16 25/54/17 26/55/18 27/56/19 28/57/20 30/58/21 29/59/22 23/60/23
f 29/61/22 37/62/6 38/63/24 23/64/23
f 23/64/23 38/63/24 35/65/11 24/66/16
f 24/66/16 35/65/11 36/67/25 25/68/17
f 25/68/17 36/67/25 33/69/9 26/70/18
f 26/70/18 33/69/9 34/71/26 27/72/19
f 27/72/19 34/71/26 31/73/2 28/74/20
f 37/62/6 29/61/22 30/75/21 32/76/27
f 32/76/27 30/75/21 28/77/20 31/78/2
f 40/79/16 41/80/17 42/81/18 43/82/19 44/83/20 46/84/21 45/85/22 39/86/23
f 45/87/22 53/62/6 54/63/24 39/88/23
f 39/88/23 54/63/24 51/65/11 40/66/16
f 40/66/16 51/65/11 52/67/25 41/89/17
f 41/89/17 52/67/25 49/69/9 42/70/18
f 42/70/18 49/69/9 50/71/26 43/72/19
f 43/72/19 50/71/26 47/73/2 44/74/20
f 53/62/6 45/87/22 46/75/21 48/76/27
f 48/76/27 46/75/21 44/77/20 47/78/2
f 56/90/16 57/91/17 58/92/18 59/93/19 60/94/20 62/95/21 61/96/22 55/97/23
f 61/87/22 69/62/6 70/63/24 55/88/23
f 55/88/23 70/63/24 67/65/11 56/66/16
f 56/66/16 67/65/11 68/67/25 57/89/17
f 57/89/17 68/67/25 65/69/9 58/70/18
f 58/70/18 65/69/9 66/71/26 59/72/19
f 59/72/19 66/71/26 63/73/2 60/74/20
f 69/62/6 61/87/22 62/75/21 64/76/27
f 64/76/27 62/75/21 60/77/20 63/78/2
f 72/98/16 73/99/17 74/100/18 75/101/19 76/102/20 78/103/21 77/104/22 71/105/23
f 77/87/22 85/62/6 86/63/24 71/88/23
f 71/88/23 86/63/24 83/65/11 72/66/16
f 72/66/16 83/65/11 84/67/25 73/68/17
f 73/68/17 84/67/25 81/69/9 74/70/18
f 74/70/18 81/69/9 82/71/26 75/72/19
f 75/72/19 82/71/26 79/73/2 76/74/20
f 85/62/6 77/87/22 78/75/21 80/76/27
f 80/76/27 78/75/21 76/77/20 79/78/2
s 0
f 1/106/9 88/107/9 95/107/9 94/106/9
f 1/106/2 2/108/2 89/109/2 90/110/2
f 88/107/2 1/106/2 90/110/2 91/6/2
f 2/108/2 87/111/2 92/5/2 89/109/2
f 87/111/2 88/107/2 91/6/2 92/5/2
f 93/108/2 94/106/2 95/107/2 96/111/2
f 87/111/6 2/108/6 93/108/6 96/111/6
f 2/108/1 1/106/1 94/106/1 93/108/1
f 88/107/8 87/111/8 96/111/8 95/107/8
f 90/30/6 9/19/6 91/28/6
f 4/29/9 10/19/9 92/112/9
f 10/19/9 89/113/9 92/112/9
f 97/106/6 100/107/6 107/107/6 106/106/6
f 97/106/11 98/108/11 101/109/11 102/110/11
f 100/107/11 97/106/11 102/110/11 103/6/11
f 98/108/11 99/111/11 104/5/11 101/109/11
f 99/111/11 100/107/11 103/6/11 104/5/11
f 105/108/11 106/106/11 107/107/11 108/111/11
f 99/111/9 98/108/9 105/108/9 108/111/9
f 98/108/1 97/106/1 106/106/1 105/108/1
f 100/107/8 99/111/8 108/111/8 107/107/8
