# Blender 5.0.1
# www.blender.org
mtllib monitoring_screen_mp_1.mtl
o monitoring_screen_mp_1_display
v 0.233816 0.055959 0.020979
v 0.269662 0.104136 -0.012932
v 0.175662 -0.221490 -0.175745
v -0.222710 -0.241490 0.094255
v -0.115317 0.094528 0.256264
v -0.128709 0.084136 0.257068
v 0.286983 0.084136 0.017068
v 0.279591 0.094528 0.028264
v 0.192983 -0.241490 -0.145745
v 0.179590 -0.251882 -0.144941
v -0.099827 0.058142 0.223063
v -0.098732 0.055951 0.212991
v 0.243092 0.058142 0.025078
v 0.157822 -0.207320 -0.110645
v 0.164100 -0.215495 -0.111740
v -0.178819 -0.215495 0.086244
v -0.174732 -0.207320 0.081355
v -0.229123 -0.204562 0.042577
v -0.139441 0.106962 0.198480
v -0.146030 0.104136 0.227068
v -0.132638 0.114528 0.226264
v -0.139124 0.107208 0.198461
v 0.241435 0.107208 -0.021254
v 0.262270 0.114528 -0.001736
v 0.241611 0.106962 -0.021520
v -0.229299 -0.204315 0.042841
v -0.240030 -0.221490 0.064255
v 0.151753 -0.204315 -0.177158
v 0.151435 -0.204561 -0.177139
v -0.215317 -0.251882 0.083059
v 0.162270 -0.231882 -0.174941
v -0.232638 -0.231882 0.053059
v 0.000245 -0.039151 0.020425
v 0.012745 0.004151 0.042075
v 0.017566 -0.039151 0.010425
v 0.030066 0.004151 0.032075
v -0.019486 0.012500 -0.013750
v -0.014910 -0.021651 -0.005825
v -0.021160 -0.000000 -0.016651
v -0.019486 -0.012500 -0.013750
v -0.002410 0.021651 0.015825
v -0.008660 0.025000 0.005000
v -0.014910 0.021651 -0.005825
v 0.002410 -0.021651 -0.015825
v -0.002165 -0.012500 -0.023750
v -0.003840 -0.000000 -0.026651
v -0.002165 0.012500 -0.023750
v 0.014910 0.021651 0.005825
v 0.002410 0.021651 -0.015825
v 0.008660 0.025000 -0.005000
v 0.016553 -0.010660 -0.011330
v 0.020651 -0.008464 -0.004232
v 0.022651 -0.001536 -0.000768
v 0.021553 0.006660 -0.002670
v 0.011990 0.001536 -0.019232
v 0.013088 -0.006660 -0.017330
v 0.018088 0.010660 -0.008670
v 0.013990 0.008464 -0.015768
v 0.029311 -0.008464 -0.009232
v 0.025213 -0.010660 -0.016330
v 0.030213 0.006660 -0.007670
v 0.031311 -0.001536 -0.005768
v 0.021749 -0.006660 -0.022330
v 0.020651 0.001536 -0.024232
v 0.022651 0.008464 -0.020768
v 0.026749 0.010660 -0.013670
v -0.021553 -0.006660 0.002670
v -0.022651 0.001536 0.000768
v -0.020651 0.008464 0.004232
v -0.016553 0.010660 0.011330
v -0.013990 -0.008464 0.015768
v -0.018088 -0.010660 0.008670
v -0.013088 0.006660 0.017330
v -0.011990 -0.001536 0.019232
v -0.031311 0.001536 0.005768
v -0.030213 -0.006660 0.007670
v -0.025213 0.010660 0.016330
v -0.029311 0.008464 0.009232
v -0.026749 -0.010660 0.013670
v -0.022651 -0.008464 0.020768
v -0.020651 -0.001536 0.024232
v -0.021749 0.006660 0.022330
vn 0.4330 -0.5000 0.7500
vn -0.8660 -0.0000 0.5000
vn 0.8660 -0.0000 -0.5000
vn -0.7891 -0.6124 0.0474
vn -0.4356 0.6124 0.6597
vn 0.4356 -0.6124 -0.6597
vn 0.7891 0.6124 -0.0474
vn 0.2500 0.8660 0.4330
vn -0.3068 -0.3533 0.8838
vn 0.1293 -0.9660 0.2240
vn 0.1294 -0.9659 0.2241
vn 0.1291 -0.9661 0.2236
vn 0.9186 -0.3535 0.1768
vn 0.4830 0.2588 0.8365
vn -0.6142 0.7866 -0.0638
vn 0.2518 0.7866 -0.5638
vn 0.0018 -0.0795 -0.9968
vn -0.1294 0.9659 -0.2241
vn -0.9186 0.3535 -0.1768
vn 0.3062 0.3536 -0.8839
vn -0.8642 -0.0795 -0.4969
vn -0.4330 0.5000 -0.7500
vn -0.2500 -0.8660 -0.4330
vn -0.4830 -0.2588 -0.8365
vn 0.1913 0.9239 0.3314
vn -0.3044 -0.7934 -0.5272
vn -0.4330 -0.5000 -0.7500
vn -0.5000 -0.0000 -0.8660
vn -0.0000 1.0000 -0.0000
vn -0.2500 0.8660 -0.4330
vt 0.230678 0.946598
vt 0.230674 0.444833
vt 0.257315 0.406760
vt 0.257315 0.984654
vt 0.205106 0.244608
vt 0.441395 0.244608
vt 0.441395 0.321342
vt 0.205106 0.321342
vt 0.205106 0.303614
vt 0.441395 0.303613
vt 0.441395 0.380348
vt 0.205106 0.380348
vt 0.249718 0.999891
vt 0.003535 0.406843
vt 0.011132 0.391607
vt 0.030171 0.444900
vt 0.011129 1.000000
vt 0.003531 0.984743
vt 0.030173 0.946670
vt 0.249717 0.391505
vt 0.194441 0.321342
vt 0.194441 0.244608
vt 0.989335 0.479131
vt 0.989335 0.402397
vt 1.000000 0.402397
vt 1.000000 0.479131
vt 0.194441 0.380348
vt 0.194441 0.303614
vt 0.702772 0.402397
vt 0.702772 0.479131
vt 0.692107 0.479131
vt 0.692107 0.402397
vt 0.034745 0.937518
vt 0.226116 0.937471
vt 0.034733 0.454026
vt 0.226105 0.453978
vt 0.000000 1.000000
vt 0.000000 0.000000
vt 1.000000 0.000000
vt 1.000000 1.000000
vt 0.507985 0.397782
vt 0.515212 0.412235
vt 0.502735 0.423092
vt 0.502557 0.422735
vt 0.515212 0.984473
vt 0.507985 0.998927
vt 0.502557 0.973974
vt 0.502735 0.973617
vt 0.277390 0.973617
vt 0.277569 0.973974
vt 0.272141 0.998927
vt 0.264821 0.984029
vt 0.277569 0.422735
vt 0.272140 0.397781
vt 0.277390 0.423091
vt 0.264821 0.412680
vt 0.029297 0.890625
vt 0.029297 0.523438
vt 0.232422 0.523438
vt 0.232422 0.890625
vt 0.989335 0.479131
vt 0.989335 0.402397
vt 0.702772 0.402397
vt 0.502551 0.974506
vt 0.515120 0.984918
vt 0.515120 0.411791
vt 0.502551 0.422203
vt 0.587220 0.542329
vt 0.573019 0.542329
vt 0.573019 0.492625
vt 0.587220 0.492625
vt 0.534699 0.840131
vt 0.570202 0.840131
vt 0.570202 0.890811
vt 0.567823 0.908562
vt 0.561326 0.921557
vt 0.552450 0.926314
vt 0.543575 0.921557
vt 0.537077 0.908562
vt 0.534699 0.890811
vt 0.587220 0.652593
vt 0.573019 0.652593
vt 0.573019 0.634216
vt 0.587220 0.634216
vt 0.573019 0.615838
vt 0.587220 0.615838
vt 0.573019 0.597461
vt 0.587220 0.597461
vt 0.587220 0.560706
vt 0.573019 0.560706
vt 0.587220 0.579083
vt 0.573019 0.579083
vt 0.587220 0.702296
vt 0.573019 0.702296
vt 0.857942 0.969216
vt 0.864002 0.969216
vt 0.864002 0.984367
vt 0.857942 0.984367
vt 0.824557 0.958958
vt 0.829102 0.949867
vt 0.835163 0.949867
vt 0.839708 0.958958
vt 0.839708 0.971078
vt 0.835163 0.980168
vt 0.829102 0.980168
vt 0.824557 0.971078
vt 0.876490 0.969216
vt 0.876490 0.984367
vt 0.870430 0.984367
vt 0.870430 0.969216
vt 0.888978 0.984367
vt 0.882917 0.984367
vt 0.882917 0.969216
vt 0.888978 0.969216
vt 0.895405 0.969216
vt 0.895405 0.984367
vt 0.851514 0.984367
vt 0.851514 0.969216
vt 0.901465 0.969216
vt 0.901465 0.984367
s 0
usemtl pc_monitor_mp_1
f 15/1/1 16/2/1 30/3/1 10/4/1
f 4/5/2 6/6/2 20/7/2 27/8/2
f 3/9/3 2/10/3 7/11/3 9/12/3
f 9/13/1 15/1/1 10/4/1
f 5/14/1 6/15/1 11/16/1
f 7/17/1 8/18/1 13/19/1
f 16/2/1 11/16/1 6/15/1 4/20/1
f 13/19/1 15/1/1 9/13/1 7/17/1
f 16/2/1 4/20/1 30/3/1
f 32/21/4 30/22/4 4/5/4 27/8/4
f 5/23/5 21/24/5 20/25/5 6/26/5
f 10/27/6 31/28/6 3/9/6 9/12/6
f 24/29/7 8/30/7 7/31/7 2/32/7
f 5/23/8 8/30/8 24/29/8 21/24/8
f 1/33/9 14/34/9 15/1/9 13/19/9
f 13/19/10 11/16/11 12/35/12 1/33/12
f 17/36/13 12/35/13 11/16/13 16/2/13
f 16/2/14 15/1/14 14/34/14 17/36/14
f 11/16/1 13/19/1 8/18/1 5/14/1
f 20/41/15 21/42/15 22/43/15 19/44/15
f 24/45/16 2/46/16 25/47/16 23/48/16
f 29/49/17 28/50/17 3/51/17 31/52/17
f 23/48/18 22/43/18 21/42/18 24/45/18
f 19/44/19 26/53/19 27/54/19 20/41/19
f 2/46/20 3/51/20 28/50/20 25/47/20
f 26/53/21 18/55/21 32/56/21 27/54/21
f 23/57/22 25/57/22 28/58/22 29/58/22 18/59/22 26/59/22 19/60/22 22/60/22
f 30/61/23 32/62/23 31/63/23 10/30/23
f 29/64/24 31/65/24 32/66/24 18/67/24
s 1
f 48/68/25 41/69/25 34/70/8 36/71/8
f 33/72/2 34/73/2 41/74/2 42/75/2 43/76/2 37/77/2 39/78/2 40/79/2 38/80/2
f 44/74/3 45/75/3 46/76/3 47/77/3 49/78/3 50/79/3 48/80/3 36/72/3 35/73/3
f 44/81/26 38/82/26 40/83/27 45/84/27
f 45/84/27 40/83/27 39/85/28 46/86/28
f 46/86/28 39/85/28 37/87/22 47/88/22
f 41/69/25 48/68/25 50/89/29 42/90/29
f 42/90/29 50/89/29 49/91/30 43/92/30
f 43/92/30 49/91/30 47/88/22 37/87/22
f 38/82/26 44/81/26 35/93/23 33/94/23
s 0
f 59/95/1 62/96/1 53/97/1 52/98/1
f 63/99/3 64/100/3 65/101/3 66/102/3 61/103/3 62/104/3 59/105/3 60/106/3
f 66/107/8 57/108/8 54/109/8 61/110/8
f 55/111/22 58/112/22 65/113/22 64/114/22
f 63/115/24 56/116/24 55/111/24 64/114/24
f 57/108/18 66/107/18 65/113/18 58/112/18
f 51/117/11 60/118/11 59/95/11 52/98/11
f 61/110/14 54/109/14 53/97/14 62/96/14
f 56/116/23 63/115/23 60/119/23 51/120/23
f 75/95/22 78/96/22 69/97/22 68/98/22
f 79/99/2 80/100/2 81/101/2 82/102/2 77/103/2 78/104/2 75/105/2 76/106/2
f 82/107/8 73/108/8 70/109/8 77/110/8
f 71/111/1 74/112/1 81/113/1 80/114/1
f 79/115/11 72/116/11 71/111/11 80/114/11
f 73/108/14 82/107/14 81/113/14 74/112/14
f 67/117/24 76/118/24 75/95/24 68/98/24
f 77/110/18 70/109/18 69/97/18 78/96/18
f 72/116/23 79/115/23 76/119/23 67/120/23
usemtl crt_screen_mp_2
f 12/37/1 17/38/1 14/39/1 1/40/1
o monitoring_screen_mp_1_arm
v -0.004151 0.020000 0.042811
v 0.039151 0.020000 0.017811
v -0.004151 0.010000 0.042811
v 0.039151 0.010000 0.017811
v -0.012500 0.020000 -0.021651
v -0.021651 0.020000 0.012500
v -0.021651 0.020000 -0.012500
v -0.025000 0.020000 0.000000
v 0.021651 0.020000 -0.012500
v 0.012500 0.020000 -0.021651
v -0.000000 0.020000 -0.025000
v -0.021651 0.010000 0.012500
v -0.025000 0.010000 0.000000
v -0.021651 0.010000 -0.012500
v -0.012500 0.010000 -0.021651
v 0.021651 0.010000 -0.012500
v -0.000000 0.010000 -0.025000
v 0.012500 0.010000 -0.021651
v -0.004151 -0.010000 0.042811
v 0.039151 -0.010000 0.017811
v -0.004151 -0.020000 0.042811
v 0.039151 -0.020000 0.017811
v -0.012500 -0.010000 -0.021651
v -0.021651 -0.010000 0.012500
v -0.021651 -0.010000 -0.012500
v -0.025000 -0.010000 0.000000
v 0.021651 -0.010000 -0.012500
v 0.012500 -0.010000 -0.021651
v -0.000000 -0.010000 -0.025000
v -0.021651 -0.020000 0.012500
v -0.025000 -0.020000 0.000000
v -0.021651 -0.020000 -0.012500
v -0.012500 -0.020000 -0.021651
v 0.021651 -0.020000 -0.012500
v -0.000000 -0.020000 -0.025000
v 0.012500 -0.020000 -0.021651
v 0.000849 0.020000 0.051471
v 0.044151 0.020000 0.026471
v 0.044151 -0.020000 0.026471
v 0.000849 -0.020000 0.051471
v 0.114821 -0.025000 0.158875
v 0.114821 0.025000 0.158875
v 0.106160 -0.025000 0.163875
v 0.106160 0.025000 0.163875
v 0.144821 -0.000000 0.210836
v 0.132321 -0.025000 0.189186
v 0.143146 -0.012500 0.207936
v 0.138571 -0.021651 0.200011
v 0.132321 0.025000 0.189186
v 0.138571 0.021651 0.200011
v 0.143146 0.012500 0.207936
v 0.123660 -0.025000 0.194186
v 0.129910 -0.021651 0.205011
v 0.134486 -0.012500 0.212936
v 0.136160 -0.000000 0.215836
v 0.123660 0.025000 0.194186
v 0.134486 0.012500 0.212936
v 0.129910 0.021651 0.205011
v 0.088840 -0.025000 0.173875
v 0.088840 0.025000 0.173875
v 0.080180 -0.025000 0.178875
v 0.080180 0.025000 0.178875
v 0.118840 -0.000000 0.225836
v 0.106340 -0.025000 0.204186
v 0.117165 -0.012500 0.222936
v 0.112590 -0.021651 0.215011
v 0.106340 0.025000 0.204186
v 0.112590 0.021651 0.215011
v 0.117165 0.012500 0.222936
v 0.097680 -0.025000 0.209186
v 0.103930 -0.021651 0.220011
v 0.108505 -0.012500 0.227936
v 0.110179 -0.000000 0.230836
v 0.097680 0.025000 0.209186
v 0.108505 0.012500 0.227936
v 0.103930 0.021651 0.220011
v 0.109821 -0.025000 0.150215
v 0.109821 0.025000 0.150215
v 0.075180 0.025000 0.170215
v 0.075180 -0.025000 0.170215
v 0.107655 -0.030311 0.151465
v 0.118750 -0.017500 0.145059
v 0.118750 0.017500 0.145059
v 0.107655 0.030311 0.151465
v 0.077345 0.030311 0.168965
v 0.066250 0.017500 0.175370
v 0.066250 -0.017500 0.175370
v 0.077345 -0.030311 0.168965
v -0.003750 -0.017500 0.054127
v 0.007345 -0.030311 0.047721
v -0.003750 0.017500 0.054127
v 0.007345 0.030311 0.047721
v 0.048750 0.017500 0.023816
v 0.037655 0.030311 0.030221
v 0.037655 -0.030311 0.030221
v 0.048750 -0.017500 0.023816
v 0.010660 0.020000 -0.001536
v 0.008464 0.020000 0.006660
v 0.001536 0.020000 0.010660
v -0.006660 0.020000 0.008464
v -0.001536 0.020000 -0.010660
v 0.006660 0.020000 -0.008464
v -0.010660 0.020000 0.001536
v -0.008464 0.020000 -0.006660
v 0.008464 0.030000 0.006660
v 0.010660 0.030000 -0.001536
v -0.006660 0.030000 0.008464
v 0.001536 0.030000 0.010660
v 0.006660 0.030000 -0.008464
v -0.001536 0.030000 -0.010660
v -0.008464 0.030000 -0.006660
v -0.010660 0.030000 0.001536
v 0.006660 -0.020000 -0.008464
v -0.001536 -0.020000 -0.010660
v -0.008464 -0.020000 -0.006660
v -0.010660 -0.020000 0.001536
v 0.008464 -0.020000 0.006660
v 0.010660 -0.020000 -0.001536
v -0.006660 -0.020000 0.008464
v 0.001536 -0.020000 0.010660
v -0.001536 -0.030000 -0.010660
v 0.006660 -0.030000 -0.008464
v -0.010660 -0.030000 0.001536
v -0.008464 -0.030000 -0.006660
v 0.010660 -0.030000 -0.001536
v 0.008464 -0.030000 0.006660
v 0.001536 -0.030000 0.010660
v -0.006660 -0.030000 0.008464
vn 0.7934 -0.0000 -0.6088
vn 0.8660 -0.0000 -0.5000
vn -0.0000 1.0000 -0.0000
vn -0.0000 -1.0000 -0.0000
vn -0.9239 -0.0000 0.3827
vn -1.0000 -0.0000 -0.0000
vn -0.8660 -0.0000 -0.5000
vn -0.5000 -0.0000 -0.8660
vn 0.5000 -0.0000 -0.8660
vn -0.0000 -0.0000 -1.0000
vn -0.8660 -0.0000 0.5000
vn 0.0653 0.9914 0.1130
vn 0.0653 -0.9914 0.1130
vn 0.2500 -0.8660 0.4330
vn 0.4330 -0.5000 0.7500
vn 0.5000 -0.0000 0.8660
vn 0.2500 0.8660 0.4330
vn 0.4330 0.5000 0.7500
vn 0.5090 0.8090 -0.2939
vn 0.7007 0.5878 -0.4045
vn 0.7006 0.5878 -0.4045
vn -0.9336 -0.0000 0.3584
vn -0.7771 -0.0000 0.6293
vn -0.9336 -0.0001 0.3584
vn -0.7006 0.5878 0.4045
vn -0.5090 0.8090 0.2939
vn 0.7771 -0.0000 -0.6293
vn 0.9336 -0.0000 -0.3584
vn -0.0782 -0.9877 -0.1355
vn 0.0782 -0.9877 0.1355
vn -0.0781 -0.9877 -0.1355
vn 0.7007 -0.5878 -0.4044
vn 0.7006 -0.5878 -0.4045
vn 0.5090 -0.8090 -0.2939
vn -0.5090 -0.8090 0.2940
vn -0.5090 -0.8090 0.2939
vn -0.7006 -0.5878 0.4045
vn -0.0782 0.9877 -0.1355
vn 0.0782 0.9877 0.1355
vn 0.2588 -0.0000 -0.9659
vn -0.9659 -0.0000 -0.2588
vn 0.9659 -0.0000 0.2588
vn -0.2588 -0.0000 0.9659
vt 0.555948 0.680947
vt 0.563153 0.680947
vt 0.563153 0.731385
vt 0.555948 0.731385
vt 0.534295 0.891321
vt 0.570322 0.891321
vt 0.567909 0.909335
vt 0.561316 0.922522
vt 0.552309 0.927349
vt 0.543302 0.922522
vt 0.536709 0.909335
vt 0.570322 0.890973
vt 0.567909 0.908987
vt 0.561316 0.922174
vt 0.552309 0.927000
vt 0.543302 0.922174
vt 0.536709 0.908987
vt 0.534295 0.890973
vt 0.555948 0.569053
vt 0.563153 0.569053
vt 0.563153 0.587702
vt 0.555948 0.587702
vt 0.563153 0.606351
vt 0.555948 0.606351
vt 0.563153 0.625000
vt 0.555948 0.625000
vt 0.555948 0.662298
vt 0.563153 0.662298
vt 0.555948 0.643649
vt 0.563153 0.643649
vt 0.555948 0.518615
vt 0.563153 0.518615
vt 0.534332 0.680947
vt 0.541537 0.680947
vt 0.541537 0.731385
vt 0.534332 0.731385
vt 0.541537 0.518615
vt 0.534332 0.504204
vt 0.563153 0.504204
vt 0.567909 0.908987
vt 0.536709 0.908987
vt 0.534332 0.569053
vt 0.541537 0.569053
vt 0.541537 0.587702
vt 0.534332 0.587702
vt 0.541537 0.606351
vt 0.534332 0.606351
vt 0.541537 0.625000
vt 0.534332 0.625000
vt 0.534332 0.662298
vt 0.541537 0.662298
vt 0.534332 0.643649
vt 0.541537 0.643649
vt 0.534332 0.518615
vt 0.570322 0.839940
vt 0.534295 0.839940
vt 0.534295 0.824243
vt 0.570322 0.824243
vt 0.534332 0.745796
vt 0.563153 0.745796
vt 0.534295 0.832019
vt 0.534295 0.796526
vt 0.570322 0.796526
vt 0.570322 0.832019
vt 0.563154 0.731385
vt 0.555948 0.518615
vt 0.563154 0.518615
vt 0.541537 0.731385
vt 0.534332 0.731385
vt 0.541537 0.518615
vt 0.534332 0.504204
vt 0.563153 0.504204
vt 0.534332 0.518615
vt 0.534332 0.745796
vt 0.563154 0.745796
vt 0.570322 0.832019
vt 0.644531 0.671875
vt 0.644531 0.863281
vt 0.654297 0.863281
vt 0.654297 0.671875
vt 0.666016 0.863281
vt 0.666016 0.671875
vt 0.454505 0.235082
vt 0.463328 0.252727
vt 0.487431 0.252727
vt 0.496254 0.235082
vt 0.496254 0.186874
vt 0.487431 0.169229
vt 0.463327 0.169229
vt 0.454505 0.186874
vt 0.454505 0.235082
vt 0.463327 0.252727
vt 0.487431 0.252727
vt 0.496254 0.235082
vt 0.454505 0.186874
vt 0.857942 0.969216
vt 0.864002 0.969216
vt 0.864002 0.984367
vt 0.857942 0.984367
vt 0.824557 0.958958
vt 0.829102 0.949867
vt 0.835163 0.949867
vt 0.839708 0.958958
vt 0.839708 0.971078
vt 0.835163 0.980168
vt 0.829102 0.980168
vt 0.824557 0.971078
vt 0.876490 0.969216
vt 0.876490 0.984367
vt 0.870430 0.984367
vt 0.870430 0.969216
vt 0.888978 0.984367
vt 0.882917 0.984367
vt 0.882917 0.969216
vt 0.888978 0.969216
vt 0.895405 0.969216
vt 0.895405 0.984367
vt 0.851514 0.984367
vt 0.851514 0.969216
vt 0.901465 0.969216
vt 0.901465 0.984367
s 1
usemtl pc_monitor_mp_1
f 98/121/31 91/122/31 84/123/32 86/124/32
f 88/125/33 91/126/33 92/127/33 93/128/33 87/129/33 89/130/33 90/131/33
f 94/132/34 95/133/34 96/134/34 97/135/34 99/136/34 100/137/34 98/138/34
f 94/139/35 88/140/35 90/141/36 95/142/36
f 95/142/36 90/141/36 89/143/37 96/144/37
f 96/144/37 89/143/37 87/145/38 97/146/38
f 91/122/31 98/121/31 100/147/39 92/148/39
f 92/148/39 100/147/39 99/149/40 93/150/40
f 93/150/40 99/149/40 97/146/38 87/145/38
f 88/140/35 94/139/35 85/151/41 83/152/41
f 116/153/31 109/154/31 102/155/32 104/156/32
s 0
f 101/157/41 122/158/41 119/159/41 85/151/41
s 1
f 106/138/33 109/132/33 110/160/33 111/134/33 105/135/33 107/136/33 108/161/33
f 112/126/34 113/127/34 114/128/34 115/129/34 117/130/34 118/131/34 116/125/34
f 112/162/35 106/163/35 108/164/36 113/165/36
f 113/165/36 108/164/36 107/166/37 114/167/37
f 114/167/37 107/166/37 105/168/38 115/169/38
f 109/154/31 116/153/31 118/170/39 110/171/39
f 110/171/39 118/170/39 117/172/40 111/173/40
f 111/173/40 117/172/40 115/169/38 105/168/38
f 106/163/35 112/162/35 103/174/41 101/157/41
f 103/175/34 104/176/34 121/177/34 122/178/34
f 101/157/41 103/174/41 122/158/41
f 83/152/41 85/151/41 119/159/41
f 104/156/32 102/155/32 121/179/32
s 0
f 86/124/32 120/180/32 121/179/32 102/155/32
s 1
f 86/124/32 84/123/32 120/180/32
f 84/175/33 83/176/33 119/177/33 120/178/33
f 86/181/38 102/182/38 101/183/38 85/184/38
f 83/176/33 84/175/33 91/126/33 88/125/33
f 101/176/33 102/175/33 109/132/33 106/138/33
f 103/175/34 112/126/34 116/125/34 104/176/34
f 85/184/34 94/132/34 98/138/34 86/181/34
f 138/121/42 131/122/42 124/185/33 126/124/33
f 128/125/32 131/126/32 132/127/32 133/128/32 127/129/32 129/130/32 130/131/32
f 134/132/41 135/133/41 136/134/41 137/135/41 139/136/41 140/137/41 138/138/41
f 134/139/43 128/140/43 130/141/44 135/142/44
f 135/142/44 130/141/44 129/143/45 136/144/45
f 136/144/45 129/143/45 127/145/46 137/146/46
f 131/122/42 138/121/42 140/147/47 132/148/47
f 132/148/47 140/147/47 139/149/48 133/150/48
f 133/150/48 139/149/48 137/146/46 127/145/46
f 128/140/43 134/139/43 125/186/34 123/187/34
f 156/153/42 149/154/42 142/188/33 144/189/33
s 0
f 141/190/34 162/191/34 159/192/34 125/186/34
s 1
f 146/138/32 149/132/32 150/160/32 151/134/32 145/135/32 147/136/32 148/161/32
f 152/126/41 153/127/41 154/128/41 155/129/41 157/130/41 158/131/41 156/125/41
f 152/162/43 146/163/43 148/164/44 153/165/44
f 153/165/44 148/164/44 147/166/45 154/167/45
f 154/167/45 147/166/45 145/168/46 155/169/46
f 149/154/42 156/153/42 158/170/47 150/171/47
f 150/171/47 158/170/47 157/172/48 151/173/48
f 151/173/48 157/172/48 155/169/46 145/168/46
f 146/163/43 152/162/43 143/193/34 141/190/34
f 143/175/41 144/176/41 161/177/41 162/178/41
f 141/190/34 143/193/34 162/191/34
f 123/187/34 125/186/34 159/192/34
f 144/189/33 142/188/33 161/194/33
s 0
f 126/124/33 160/195/33 161/194/33 142/188/33
s 1
f 126/124/33 124/185/33 160/195/33
f 124/175/32 123/176/32 159/177/32 160/178/32
f 126/181/46 142/182/46 141/183/46 125/196/46
f 123/176/32 124/175/32 131/126/32 128/125/32
f 141/176/32 142/175/32 149/132/32 146/138/32
f 143/175/41 152/126/41 156/125/41 144/176/41
f 125/196/41 134/132/41 138/138/41 126/181/41
f 165/197/49 175/198/49 176/199/50 166/200/51
f 168/197/52 173/198/53 171/201/53 169/202/54
f 167/200/55 174/199/55 173/201/56 168/202/56
f 164/197/57 178/198/58 175/201/58 165/202/57
f 170/202/59 172/201/60 177/198/60 163/197/61
f 163/197/62 177/198/63 178/199/64 164/200/64
f 169/197/65 171/198/66 172/199/67 170/200/67
f 176/203/38 175/204/38 178/205/38 177/206/38 172/207/38 171/208/38 173/209/38 174/210/38
f 167/211/46 168/212/46 169/213/46 170/214/46 163/207/46 164/208/46 165/209/46 166/215/46
f 166/197/68 176/198/69 174/201/69 167/202/68
s 0
f 187/216/46 190/217/46 181/218/46 180/219/46
f 191/220/33 192/221/33 193/222/33 194/223/33 189/224/33 190/225/33 187/226/33 188/227/33
f 194/228/41 185/229/41 182/230/41 189/231/41
f 183/232/38 186/233/38 193/234/38 192/235/38
f 191/236/70 184/237/70 183/232/70 192/235/70
f 185/229/71 194/228/71 193/234/71 186/233/71
f 179/238/72 188/239/72 187/216/72 180/219/72
f 189/231/73 182/230/73 181/218/73 190/217/73
f 184/237/32 191/236/32 188/240/32 179/241/32
f 203/216/38 206/217/38 197/218/38 196/219/38
f 207/220/34 208/221/34 209/222/34 210/223/34 205/224/34 206/225/34 203/226/34 204/227/34
f 210/228/41 201/229/41 198/230/41 205/231/41
f 199/232/46 202/233/46 209/234/46 208/235/46
f 207/236/72 200/237/72 199/232/72 208/235/72
f 201/229/73 210/228/73 209/234/73 202/233/73
f 195/238/70 204/239/70 203/216/70 196/219/70
f 205/231/71 198/230/71 197/218/71 206/217/71
f 200/237/32 207/236/32 204/240/32 195/241/32
o monitoring_screen_mp_1
v -0.055000 -0.065000 0.010000
v -0.030000 -0.090000 0.010000
v 0.030000 -0.090000 0.010000
v 0.055000 -0.065000 0.010000
v -0.030000 0.090000 0.010000
v -0.055000 0.065000 0.010000
v 0.055000 0.065000 0.010000
v 0.030000 0.090000 0.010000
v -0.030000 -0.090000 -0.000000
v -0.055000 -0.065000 -0.000000
v 0.055000 -0.065000 -0.000000
v 0.030000 -0.090000 -0.000000
v -0.055000 0.065000 -0.000000
v -0.030000 0.090000 -0.000000
v 0.030000 0.090000 -0.000000
v 0.055000 0.065000 -0.000000
v 0.025000 0.010000 0.010000
v -0.025000 0.010000 0.010000
v 0.025000 -0.010000 0.010000
v -0.025000 -0.010000 0.010000
v 0.000000 0.010000 0.070000
v 0.025000 0.010000 0.045000
v 0.012500 0.010000 0.066651
v 0.021651 0.010000 0.057500
v -0.025000 0.010000 0.045000
v -0.021651 0.010000 0.057500
v -0.012500 0.010000 0.066651
v 0.025000 -0.010000 0.045000
v 0.021651 -0.010000 0.057500
v 0.012500 -0.010000 0.066651
v 0.000000 -0.010000 0.070000
v -0.025000 -0.010000 0.045000
v -0.012500 -0.010000 0.066651
v -0.021651 -0.010000 0.057500
v 0.040000 0.061000 0.010000
v 0.034000 0.055000 0.010000
v 0.026000 0.055000 0.010000
v 0.020000 0.061000 0.010000
v 0.034000 0.075000 0.010000
v 0.040000 0.069000 0.010000
v 0.020000 0.069000 0.010000
v 0.026000 0.075000 0.010000
v 0.034000 0.055000 0.020000
v 0.040000 0.061000 0.020000
v 0.020000 0.061000 0.020000
v 0.026000 0.055000 0.020000
v 0.040000 0.069000 0.020000
v 0.034000 0.075000 0.020000
v 0.026000 0.075000 0.020000
v 0.020000 0.069000 0.020000
v -0.020000 0.061000 0.010000
v -0.026000 0.055000 0.010000
v -0.034000 0.055000 0.010000
v -0.040000 0.061000 0.010000
v -0.026000 0.075000 0.010000
v -0.020000 0.069000 0.010000
v -0.040000 0.069000 0.010000
v -0.034000 0.075000 0.010000
v -0.026000 0.055000 0.020000
v -0.020000 0.061000 0.020000
v -0.040000 0.061000 0.020000
v -0.034000 0.055000 0.020000
v -0.020000 0.069000 0.020000
v -0.026000 0.075000 0.020000
v -0.034000 0.075000 0.020000
v -0.040000 0.069000 0.020000
v 0.040000 -0.069000 0.010000
v 0.034000 -0.075000 0.010000
v 0.026000 -0.075000 0.010000
v 0.020000 -0.069000 0.010000
v 0.034000 -0.055000 0.010000
v 0.040000 -0.061000 0.010000
v 0.020000 -0.061000 0.010000
v 0.026000 -0.055000 0.010000
v 0.034000 -0.075000 0.020000
v 0.040000 -0.069000 0.020000
v 0.020000 -0.069000 0.020000
v 0.026000 -0.075000 0.020000
v 0.040000 -0.061000 0.020000
v 0.034000 -0.055000 0.020000
v 0.026000 -0.055000 0.020000
v 0.020000 -0.061000 0.020000
v -0.020000 -0.069000 0.010000
v -0.026000 -0.075000 0.010000
v -0.034000 -0.075000 0.010000
v -0.040000 -0.069000 0.010000
v -0.026000 -0.055000 0.010000
v -0.020000 -0.061000 0.010000
v -0.040000 -0.061000 0.010000
v -0.034000 -0.055000 0.010000
v -0.026000 -0.075000 0.020000
v -0.020000 -0.069000 0.020000
v -0.040000 -0.069000 0.020000
v -0.034000 -0.075000 0.020000
v -0.020000 -0.061000 0.020000
v -0.026000 -0.055000 0.020000
v -0.034000 -0.055000 0.020000
v -0.040000 -0.061000 0.020000
vn 1.0000 -0.0000 -0.0000
vn -0.0000 1.0000 -0.0000
vn -0.0000 -1.0000 -0.0000
vn -1.0000 -0.0000 -0.0000
vn -0.7071 -0.7071 -0.0000
vn 0.7071 -0.7071 -0.0000
vn 0.7071 0.7071 -0.0000
vn -0.7071 0.7071 -0.0000
vn -0.0000 -0.0000 1.0000
vn -0.9914 -0.0000 0.1305
vn 0.9914 -0.0000 0.1305
vn 0.8660 -0.0000 0.5000
vn 0.5000 -0.0000 0.8660
vn -0.8660 -0.0000 0.5000
vn -0.5000 -0.0000 0.8660
vt 0.704792 0.100833
vt 0.704792 0.274167
vt 0.698125 0.274166
vt 0.698125 0.100833
vt 0.714375 0.059167
vt 0.754375 0.059167
vt 0.757708 0.072500
vt 0.715208 0.072500
vt 0.754375 0.059167
vt 0.715208 0.072500
vt 0.757708 0.072500
vt 0.704792 0.287500
vt 0.704792 0.087500
vt 0.698125 0.087500
vt 0.698125 0.287500
vt 0.698125 0.320833
vt 0.704792 0.320833
vt 0.777708 0.072500
vt 0.777708 0.059167
vt 0.704792 0.054167
vt 0.698125 0.054167
vt 0.713333 0.289792
vt 0.730000 0.323125
vt 0.770000 0.323125
vt 0.786667 0.289792
vt 0.786667 0.116458
vt 0.770000 0.083125
vt 0.730000 0.083125
vt 0.713333 0.116458
vt 0.587220 0.542329
vt 0.573019 0.542329
vt 0.573019 0.492625
vt 0.587220 0.492625
vt 0.534699 0.840620
vt 0.570202 0.840620
vt 0.570202 0.890811
vt 0.567823 0.908562
vt 0.561326 0.921557
vt 0.552450 0.926314
vt 0.543575 0.921557
vt 0.537077 0.908562
vt 0.534699 0.890811
vt 0.587220 0.652593
vt 0.573019 0.652593
vt 0.573019 0.634216
vt 0.587220 0.634216
vt 0.573019 0.615838
vt 0.587220 0.615838
vt 0.573019 0.597461
vt 0.587220 0.597461
vt 0.587220 0.560706
vt 0.573019 0.560706
vt 0.587220 0.579083
vt 0.573019 0.579083
vt 0.587220 0.702296
vt 0.573019 0.702296
vt 0.857942 0.969216
vt 0.864002 0.969216
vt 0.864002 0.984367
vt 0.857942 0.984367
vt 0.824557 0.958958
vt 0.829102 0.949867
vt 0.835163 0.949867
vt 0.839708 0.958958
vt 0.839708 0.971078
vt 0.835163 0.980168
vt 0.829102 0.980168
vt 0.824557 0.971078
vt 0.876490 0.969216
vt 0.876490 0.984367
vt 0.870430 0.984367
vt 0.870430 0.969216
vt 0.888978 0.984367
vt 0.882917 0.984367
vt 0.882917 0.969216
vt 0.888978 0.969216
vt 0.895405 0.969216
vt 0.895405 0.984367
vt 0.851514 0.984367
vt 0.851514 0.969216
vt 0.901465 0.969216
vt 0.901465 0.984367
s 1
usemtl pc_monitor_mp_1
f 217/242/74 214/243/74 221/244/74 226/245/74
f 215/246/75 218/247/75 225/248/75 224/249/75
f 213/250/76 212/246/76 219/251/76 222/252/76
f 211/253/77 216/254/77 223/255/77 220/256/77
f 211/253/78 220/256/78 219/257/78 212/258/78
f 221/259/79 214/260/79 213/250/79 222/252/79
f 225/248/80 218/247/80 217/260/80 226/259/80
f 223/255/81 216/254/81 215/261/81 224/262/81
f 211/263/82 212/264/82 213/265/82 214/266/82 217/267/82 218/268/82 215/269/82 216/270/82
f 242/271/83 235/272/83 228/273/77 230/274/77
f 227/275/75 228/276/75 235/277/75 236/278/75 237/279/75 231/280/75 233/281/75 234/282/75 232/283/75
f 238/277/76 239/278/76 240/279/76 241/280/76 243/281/76 244/282/76 242/283/76 230/275/76 229/276/76
f 238/284/84 232/285/84 234/286/85 239/287/85
f 239/287/85 234/286/85 233/288/86 240/289/86
f 240/289/86 233/288/86 231/290/82 241/291/82
f 235/272/83 242/271/83 244/292/87 236/293/87
f 236/293/87 244/292/87 243/294/88 237/295/88
f 237/295/88 243/294/88 241/291/82 231/290/82
f 232/285/84 238/284/84 229/296/74 227/297/74
s 0
f 253/298/76 256/299/76 247/300/76 246/301/76
f 257/302/82 258/303/82 259/304/82 260/305/82 255/306/82 256/307/82 253/308/82 254/309/82
f 260/310/77 251/311/77 248/312/77 255/313/77
f 249/314/75 252/315/75 259/316/75 258/317/75
f 257/318/80 250/319/80 249/314/80 258/317/80
f 251/311/81 260/310/81 259/316/81 252/315/81
f 245/320/79 254/321/79 253/298/79 246/301/79
f 255/313/78 248/312/78 247/300/78 256/299/78
f 250/319/74 257/318/74 254/322/74 245/323/74
f 269/298/76 272/299/76 263/300/76 262/301/76
f 273/302/82 274/303/82 275/304/82 276/305/82 271/306/82 272/307/82 269/308/82 270/309/82
f 276/310/77 267/311/77 264/312/77 271/313/77
f 265/314/75 268/315/75 275/316/75 274/317/75
f 273/318/80 266/319/80 265/314/80 274/317/80
f 267/311/81 276/310/81 275/316/81 268/315/81
f 261/320/79 270/321/79 269/298/79 262/301/79
f 271/313/78 264/312/78 263/300/78 272/299/78
f 266/319/74 273/318/74 270/322/74 261/323/74
f 285/298/76 288/299/76 279/300/76 278/301/76
f 289/302/82 290/303/82 291/304/82 292/305/82 287/306/82 288/307/82 285/308/82 286/309/82
f 292/310/77 283/311/77 280/312/77 287/313/77
f 281/314/75 284/315/75 291/316/75 290/317/75
f 289/318/80 282/319/80 281/314/80 290/317/80
f 283/311/81 292/310/81 291/316/81 284/315/81
f 277/320/79 286/321/79 285/298/79 278/301/79
f 287/313/78 280/312/78 279/300/78 288/299/78
f 282/319/74 289/318/74 286/322/74 277/323/74
f 301/298/76 304/299/76 295/300/76 294/301/76
f 305/302/82 306/303/82 307/304/82 308/305/82 303/306/82 304/307/82 301/308/82 302/309/82
f 308/310/77 299/311/77 296/312/77 303/313/77
f 297/314/75 300/315/75 307/316/75 306/317/75
f 305/318/80 298/319/80 297/314/80 306/317/80
f 299/311/81 308/310/81 307/316/81 300/315/81
f 293/320/79 302/321/79 301/298/79 294/301/79
f 303/313/78 296/312/78 295/300/78 304/299/78
f 298/319/74 305/318/74 302/322/74 293/323/74
