# Blender 5.0.1
# www.blender.org
mtllib mouse_pad_mp_1.mtl
o mouse_pad_mp_1
v -0.120000 0.000000 -0.136472
v -0.110400 -0.000000 -0.146072
v -0.117188 0.000000 -0.143261
v -0.110400 -0.000000 0.146072
v -0.120000 0.000000 0.136472
v -0.117188 0.000000 0.143261
v 0.110400 0.000000 -0.146072
v 0.120000 0.000000 -0.136472
v 0.117188 0.000000 -0.143261
v 0.120000 0.000000 0.136472
v 0.110400 0.000000 0.146072
v 0.117188 0.000000 0.143261
v -0.110400 0.004000 -0.146072
v -0.120000 0.004000 -0.136472
v -0.117188 0.004000 -0.143261
v -0.120000 0.004000 0.136472
v -0.110400 0.004000 0.146072
v -0.117188 0.004000 0.143261
v 0.120000 0.004000 -0.136472
v 0.110400 0.004000 -0.146072
v 0.117188 0.004000 -0.143261
v 0.110400 0.004000 0.146072
v 0.120000 0.004000 0.136472
v 0.117188 0.004000 0.143261
vn -0.9808 -0.0000 -0.1951
vn -0.9808 -0.0000 0.1951
vn -0.0000 1.0000 -0.0000
vn -0.1951 -0.0000 0.9808
vn 0.1951 -0.0000 0.9808
vn 0.9808 -0.0000 0.1951
vn 0.9808 -0.0000 -0.1951
vn -0.0000 -1.0000 -0.0000
vn 0.1951 -0.0000 -0.9808
vn 0.7071 -0.0000 -0.7071
vn 0.7071 -0.0000 0.7071
vn -0.7071 -0.0000 0.7071
vn -0.1951 -0.0000 -0.9808
vn -0.7071 -0.0000 -0.7071
vt 1.000000 0.077778
vt 1.000000 0.922222
vt 0.990826 0.922222
vt 0.990826 0.077778
vt 0.000000 0.040000
vt 0.009636 0.011716
vt 0.032862 0.000000
vt 0.967138 0.000000
vt 0.990365 0.011716
vt 1.000000 0.040000
vt 1.000000 0.960000
vt 0.990365 0.988284
vt 0.967138 1.000000
vt 0.032862 1.000000
vt 0.009636 0.988284
vt 0.000000 0.960000
vt 1.000000 0.155556
vt 1.000000 0.844444
vt 0.990826 0.844444
vt 0.990826 0.155556
vt 0.990826 0.122222
vt 1.000000 0.122222
vt 0.990826 0.044444
vt 1.000000 0.044444
vt 1.000000 0.866667
vt 0.990826 0.866667
vt 1.000000 0.944444
vt 0.990826 0.944444
s 1
usemtl mouse_pad_mp_1
f 1/1/1 5/2/2 16/3/2 14/4/1
f 13/5/3 15/6/3 14/7/3 16/8/3 18/9/3 17/10/3 22/11/3 24/12/3 23/13/3 19/14/3 21/15/3 20/16/3
f 4/17/4 11/18/5 22/19/5 17/20/4
f 10/3/6 8/4/7 19/1/7 23/2/6
f 1/7/8 3/6/8 2/5/8 7/16/8 9/15/8 8/14/8 10/13/8 12/12/8 11/11/8 4/10/8 6/9/8 5/8/8
f 7/17/9 20/20/9 21/21/10 9/22/10
f 9/23/10 21/24/10 19/1/7 8/4/7
f 22/19/5 11/18/5 12/25/11 24/26/11
f 24/27/11 12/28/11 10/3/6 23/2/6
f 4/17/4 17/20/4 18/21/12 6/22/12
f 6/27/12 18/28/12 16/3/2 5/2/2
f 13/19/13 2/18/13 3/25/14 15/26/14
f 15/23/14 3/24/14 1/1/1 14/4/1
f 7/17/9 2/18/13 13/19/13 20/20/9
