# Blender 5.0.1
# www.blender.org
mtllib pc_keyboard_mp_2.mtl
o pc_keyboard_mp_2
v -0.275000 -0.000000 0.095001
v 0.275000 -0.000000 0.095001
v 0.275000 -0.000000 -0.088596
v -0.275000 -0.000000 -0.088596
v -0.275000 0.017500 0.095001
v 0.275000 0.017500 0.095001
v -0.262500 0.030000 -0.076096
v -0.275000 0.017500 -0.088596
v 0.262500 0.030000 -0.076096
v 0.275000 0.017500 -0.088596
v -0.262500 0.030000 0.082501
v 0.262500 0.030000 0.082501
v 0.162347 0.030000 -0.037115
v 0.257347 0.030000 -0.037115
v 0.162347 0.030000 0.076482
v 0.257347 0.030000 0.076482
v 0.167347 0.037000 -0.032115
v 0.252347 0.037000 -0.032115
v 0.252347 0.037000 0.071482
v 0.167347 0.037000 0.071482
v -0.256500 0.030000 -0.037115
v 0.088500 0.030000 -0.037115
v -0.256500 0.030000 0.076482
v 0.088500 0.030000 0.076482
v -0.251500 0.037000 -0.032115
v 0.083500 0.037000 -0.032115
v 0.083500 0.037000 0.071482
v -0.251500 0.037000 0.071482
v -0.256492 0.030000 -0.070115
v -0.231492 0.030000 -0.070115
v -0.256492 0.030000 -0.044518
v -0.231492 0.030000 -0.044518
v -0.251492 0.037000 -0.065115
v -0.236492 0.037000 -0.065115
v -0.236492 0.037000 -0.049518
v -0.251492 0.037000 -0.049518
v 0.162347 0.030000 -0.070115
v 0.257347 0.030000 -0.070115
v 0.162347 0.030000 -0.044518
v 0.257347 0.030000 -0.044518
v 0.167347 0.037000 -0.065115
v 0.252347 0.037000 -0.065115
v 0.252347 0.037000 -0.049518
v 0.167347 0.037000 -0.049518
v -0.006499 0.030000 -0.070115
v 0.088501 0.030000 -0.070115
v -0.006499 0.030000 -0.044518
v 0.088501 0.030000 -0.044518
v -0.001499 0.037000 -0.065115
v 0.083501 0.037000 -0.065115
v 0.083501 0.037000 -0.049518
v -0.001499 0.037000 -0.049518
v -0.108497 0.030000 -0.070115
v -0.013497 0.030000 -0.070115
v -0.108497 0.030000 -0.044518
v -0.013497 0.030000 -0.044518
v -0.103497 0.037000 -0.065115
v -0.018497 0.037000 -0.065115
v -0.018497 0.037000 -0.049518
v -0.103497 0.037000 -0.049518
v -0.210494 0.030000 -0.070115
v -0.115494 0.030000 -0.070115
v -0.210494 0.030000 -0.044518
v -0.115494 0.030000 -0.044518
v -0.205494 0.037000 -0.065115
v -0.120494 0.037000 -0.065115
v -0.120494 0.037000 -0.049518
v -0.205494 0.037000 -0.049518
v 0.089345 0.030000 -0.070115
v 0.160345 0.030000 -0.070115
v 0.089345 0.030000 -0.044518
v 0.160345 0.030000 -0.044518
v 0.094345 0.037000 -0.065115
v 0.155345 0.037000 -0.065115
v 0.155345 0.037000 -0.049518
v 0.094345 0.037000 -0.049518
v 0.089345 0.030000 -0.037114
v 0.160345 0.030000 -0.037114
v 0.089345 0.030000 0.009483
v 0.160345 0.030000 0.009483
v 0.094345 0.037000 -0.032114
v 0.155345 0.037000 -0.032114
v 0.155345 0.037000 0.004483
v 0.094345 0.037000 0.004483
v 0.089345 0.030000 0.050886
v 0.160345 0.030000 0.050886
v 0.089345 0.030000 0.076483
v 0.160345 0.030000 0.076483
v 0.094345 0.037000 0.055886
v 0.155345 0.037000 0.055886
v 0.155345 0.037000 0.071483
v 0.094345 0.037000 0.071483
v 0.111182 0.030000 0.050886
v 0.135841 0.030000 0.050886
v 0.116182 0.037000 0.055886
v 0.130841 0.037000 0.055886
v 0.111182 0.030000 0.028642
v 0.135841 0.030000 0.028642
v 0.116182 0.037000 0.033642
v 0.130841 0.037000 0.033642
vn -1.0000 -0.0000 -0.0000
vn -0.0000 -0.0000 1.0000
vn -0.0000 0.7071 0.7071
vn -0.0000 -0.0000 -1.0000
vn -0.0000 -1.0000 -0.0000
vn 0.3753 -0.9239 -0.0750
vn 1.0000 -0.0000 -0.0000
vn -0.0000 0.7071 -0.7071
vn 0.7071 0.7071 -0.0000
vn -0.7071 0.7071 -0.0000
vn -0.0000 1.0000 -0.0000
vn -0.0000 0.5812 0.8137
vn 0.8137 0.5812 -0.0000
vn -0.8137 0.5812 -0.0000
vn -0.0000 0.5812 -0.8137
vt 0.081560 0.817831
vt 0.180520 0.817831
vt 0.180520 0.808034
vt 0.081560 0.808034
vt 0.000000 0.844961
vt 0.308511 0.844961
vt 0.308511 0.835271
vt 0.000000 0.835271
vt 0.308511 0.986434
vt 0.000000 0.986434
vt 0.007012 1.000000
vt 0.301499 1.000000
vt 0.000000 0.808034
vt 0.000000 0.817831
vt 0.308511 0.817831
vt 0.308511 0.808034
vt 0.310284 0.815891
vt 0.000000 0.815891
vt 0.000000 0.706303
vt 0.310284 0.706303
vt 0.180520 0.808034
vt 0.180520 0.817831
vt 0.007012 1.000000
vt 0.301499 1.000000
vt 0.308511 0.986434
vt 0.000000 0.986434
vt 0.105386 0.986434
vt 0.007012 1.000000
vt 0.098374 1.000000
vt 0.098374 1.000000
vt 0.003546 0.941860
vt 0.003546 0.844961
vt 0.304965 0.844961
vt 0.304965 0.941860
vt 0.608156 0.594961
vt 0.608156 0.432171
vt 0.721631 0.432171
vt 0.721631 0.594961
vt 0.601064 0.424419
vt 0.728723 0.424419
vt 0.728723 0.602713
vt 0.601064 0.602713
vt 0.017730 0.594961
vt 0.017730 0.432171
vt 0.482269 0.432171
vt 0.482269 0.594961
vt 0.010638 0.424419
vt 0.489362 0.424419
vt 0.489362 0.602713
vt 0.010638 0.602713
vt 0.017134 0.647245
vt 0.017134 0.624097
vt 0.037500 0.624097
vt 0.037500 0.647245
vt 0.010347 0.616678
vt 0.044291 0.616678
vt 0.044291 0.654663
vt 0.010347 0.654663
vt 0.607244 0.647730
vt 0.607244 0.624582
vt 0.722647 0.624582
vt 0.722647 0.647730
vt 0.600453 0.617162
vt 0.729438 0.617162
vt 0.729438 0.655147
vt 0.600453 0.655147
vt 0.367388 0.647730
vt 0.367388 0.624582
vt 0.482791 0.624582
vt 0.482791 0.647730
vt 0.360597 0.617162
vt 0.489583 0.617162
vt 0.489583 0.655147
vt 0.360597 0.655147
vt 0.224772 0.647730
vt 0.224772 0.624582
vt 0.340175 0.624582
vt 0.340175 0.647730
vt 0.217985 0.617162
vt 0.346966 0.617162
vt 0.346966 0.655147
vt 0.217985 0.655147
vt 0.081539 0.647345
vt 0.081539 0.624197
vt 0.196946 0.624197
vt 0.196946 0.647345
vt 0.074752 0.616778
vt 0.203733 0.616778
vt 0.203733 0.654763
vt 0.074752 0.654763
vt 0.504500 0.647730
vt 0.504500 0.624582
vt 0.587320 0.624582
vt 0.587320 0.647730
vt 0.497709 0.617162
vt 0.594103 0.617162
vt 0.594103 0.655147
vt 0.497709 0.655147
vt 0.504779 0.593261
vt 0.504779 0.538950
vt 0.587600 0.538950
vt 0.587600 0.593261
vt 0.497988 0.531531
vt 0.594383 0.531531
vt 0.594383 0.600681
vt 0.497988 0.600681
vt 0.595220 0.424626
vt 0.595220 0.462611
vt 0.588437 0.455192
vt 0.588437 0.432044
vt 0.498826 0.462611
vt 0.498826 0.424626
vt 0.505617 0.432044
vt 0.505617 0.455192
vt 0.528477 0.462611
vt 0.535260 0.455192
vt 0.561955 0.462611
vt 0.555163 0.455192
vt 0.561955 0.495623
vt 0.528477 0.495623
vt 0.535260 0.488202
vt 0.555163 0.488202
s 1
usemtl pc_accessories_mp_1
f 5/1/1 8/2/1 4/3/1 1/4/1
f 6/5/2 5/6/2 1/7/2 2/8/2
f 5/9/3 6/10/3 12/11/3 11/12/3
f 4/13/4 8/14/4 10/15/4 3/16/4
f 2/17/5 1/18/5 4/19/5 3/20/6
f 3/21/7 10/22/7 6/1/7 2/4/7
f 7/23/8 9/24/8 10/25/8 8/26/8
f 6/27/9 10/10/9 9/28/9 12/29/9
f 8/27/10 5/10/10 11/11/10 7/30/10
f 7/31/11 11/32/11 12/33/11 9/34/11
f 17/35/11 20/36/11 19/37/11 18/38/11
f 15/39/12 16/40/12 19/37/12 20/36/12
f 16/40/13 14/41/13 18/38/13 19/37/13
f 13/42/14 15/39/14 20/36/14 17/35/14
f 14/41/15 13/42/15 17/35/15 18/38/15
f 25/43/11 28/44/11 27/45/11 26/46/11
f 23/47/12 24/48/12 27/45/12 28/44/12
f 24/48/13 22/49/13 26/46/13 27/45/13
f 21/50/14 23/47/14 28/44/14 25/43/14
f 22/49/15 21/50/15 25/43/15 26/46/15
f 33/51/11 36/52/11 35/53/11 34/54/11
f 31/55/12 32/56/12 35/53/12 36/52/12
f 32/56/13 30/57/13 34/54/13 35/53/13
f 29/58/14 31/55/14 36/52/14 33/51/14
f 30/57/15 29/58/15 33/51/15 34/54/15
f 41/59/11 44/60/11 43/61/11 42/62/11
f 39/63/12 40/64/12 43/61/12 44/60/12
f 40/64/13 38/65/13 42/62/13 43/61/13
f 37/66/14 39/63/14 44/60/14 41/59/14
f 38/65/15 37/66/15 41/59/15 42/62/15
f 49/67/11 52/68/11 51/69/11 50/70/11
f 47/71/12 48/72/12 51/69/12 52/68/12
f 48/72/13 46/73/13 50/70/13 51/69/13
f 45/74/14 47/71/14 52/68/14 49/67/14
f 46/73/15 45/74/15 49/67/15 50/70/15
f 57/75/11 60/76/11 59/77/11 58/78/11
f 55/79/12 56/80/12 59/77/12 60/76/12
f 56/80/13 54/81/13 58/78/13 59/77/13
f 53/82/14 55/79/14 60/76/14 57/75/14
f 54/81/15 53/82/15 57/75/15 58/78/15
f 65/83/11 68/84/11 67/85/11 66/86/11
f 63/87/12 64/88/12 67/85/12 68/84/12
f 64/88/13 62/89/13 66/86/13 67/85/13
f 61/90/14 63/87/14 68/84/14 65/83/14
f 62/89/15 61/90/15 65/83/15 66/86/15
f 73/91/11 76/92/11 75/93/11 74/94/11
f 71/95/12 72/96/12 75/93/12 76/92/12
f 72/96/13 70/97/13 74/94/13 75/93/13
f 69/98/14 71/95/14 76/92/14 73/91/14
f 70/97/15 69/98/15 73/91/15 74/94/15
f 81/99/11 84/100/11 83/101/11 82/102/11
f 79/103/12 80/104/12 83/101/12 84/100/12
f 80/104/13 78/105/13 82/102/13 83/101/13
f 77/106/14 79/103/14 84/100/14 81/99/14
f 78/105/15 77/106/15 81/99/15 82/102/15
f 88/107/13 86/108/13 90/109/13 91/110/13
f 85/111/14 87/112/14 92/113/14 89/114/14
f 93/115/15 85/111/15 89/114/15 95/116/15
f 86/108/15 94/117/15 96/118/15 90/109/15
f 87/112/12 88/107/12 91/110/12 92/113/12
f 92/113/11 91/110/11 96/118/11 95/116/11
f 98/119/15 97/120/15 99/121/15 100/122/15
f 96/118/13 94/117/13 98/119/13 100/122/13
f 93/115/14 95/116/14 99/121/14 97/120/14
f 95/116/11 96/118/11 100/122/11 99/121/11
f 89/114/11 92/113/11 95/116/11
f 91/110/11 90/109/11 96/118/11
