# Blender 5.0.1
# www.blender.org
mtllib pc_monitor_mp_1.mtl
o pc_monitor_mp_1
v -0.104615 0.000000 0.147000
v -0.147000 0.000000 0.104615
v -0.147000 0.000000 -0.104615
v -0.104615 0.000000 -0.147000
v 0.147000 0.000000 0.104615
v 0.104615 0.000000 0.147000
v 0.104615 0.000000 -0.147000
v 0.147000 0.000000 -0.104615
v -0.150000 0.020000 0.105858
v -0.160000 0.010000 0.110000
v -0.105858 0.020000 0.150000
v -0.110000 0.010000 0.160000
v -0.105858 0.020000 -0.150000
v -0.110000 0.010000 -0.160000
v -0.150000 0.020000 -0.105858
v -0.160000 0.010000 -0.110000
v 0.105858 0.020000 0.150000
v 0.110000 0.010000 0.160000
v 0.150000 0.020000 0.105858
v 0.160000 0.010000 0.110000
v 0.150000 0.020000 -0.105858
v 0.160000 0.010000 -0.110000
v 0.105858 0.020000 -0.150000
v 0.110000 0.010000 -0.160000
v 0.057276 0.050000 0.057276
v 0.030997 0.050000 0.074834
v 0.057276 0.050000 -0.057276
v 0.074834 0.050000 -0.030997
v -0.057276 0.050000 -0.057276
v -0.030997 0.050000 -0.074834
v -0.074834 0.050000 0.030997
v -0.057276 0.050000 0.057276
v -0.074834 0.050000 -0.030997
v -0.100000 0.020000 0.000000
v -0.038268 0.020000 0.092388
v -0.070711 0.020000 0.070711
v -0.092388 0.020000 0.038268
v -0.081000 0.040000 0.000000
v -0.081000 0.050000 0.000000
v -0.074834 0.040000 0.030997
v -0.057276 0.040000 0.057276
v -0.030997 0.040000 0.074834
v -0.030997 0.050000 0.074834
v 0.000000 0.020000 -0.100000
v -0.092388 0.020000 -0.038268
v -0.070711 0.020000 -0.070711
v -0.038268 0.020000 -0.092388
v -0.000000 0.040000 -0.081000
v 0.000000 0.050000 0.081000
v -0.030997 0.040000 -0.074834
v -0.057276 0.040000 -0.057276
v -0.074834 0.040000 -0.030997
v 0.100000 0.020000 0.000000
v 0.000000 0.020000 0.100000
v 0.092388 0.020000 0.038268
v 0.070711 0.020000 0.070711
v 0.038268 0.020000 0.092388
v 0.000000 0.040000 0.081000
v 0.030997 0.050000 -0.074834
v 0.030997 0.040000 0.074834
v 0.057276 0.040000 0.057276
v 0.074834 0.040000 0.030997
v -0.000000 0.050000 -0.081000
v 0.074834 0.050000 0.030997
v 0.038268 0.020000 -0.092388
v 0.070711 0.020000 -0.070711
v 0.092388 0.020000 -0.038268
v 0.081000 0.040000 -0.000000
v 0.081000 0.050000 -0.000000
v 0.074834 0.040000 -0.030997
v 0.057276 0.040000 -0.057276
v 0.030997 0.040000 -0.074834
v -0.160000 0.000000 0.110000
v -0.110000 0.000000 0.160000
v -0.110000 0.000000 -0.160000
v -0.160000 0.000000 -0.110000
v 0.160000 0.000000 -0.110000
v 0.110000 0.000000 -0.160000
v 0.110000 0.000000 0.160000
v 0.160000 0.000000 0.110000
v -0.147000 0.005000 0.104615
v -0.104615 0.005000 0.147000
v -0.104615 0.005000 -0.147000
v -0.147000 0.005000 -0.104615
v 0.147000 0.005000 -0.104615
v 0.104615 0.005000 -0.147000
v 0.104615 0.005000 0.147000
v 0.147000 0.005000 0.104615
vn -0.7071 -0.0000 -0.7071
vn 0.7071 -0.0000 -0.7071
vn -0.0000 -0.0000 1.0000
vn -0.0000 1.0000 -0.0000
vn 0.7071 -0.0000 0.7071
vn -1.0000 -0.0000 -0.0000
vn -0.0000 -0.0000 -1.0000
vn 1.0000 -0.0000 -0.0000
vn -0.9239 -0.0000 0.3827
vn -0.9239 -0.0000 -0.3827
vn -0.5000 0.7071 0.5000
vn -0.5000 0.7071 -0.5000
vn 0.5000 0.7071 -0.5000
vn 0.5000 0.7071 0.5000
vn -0.7071 0.7071 -0.0000
vn -0.0000 0.7071 0.7071
vn 0.7071 0.7071 -0.0000
vn -0.0000 0.7071 -0.7071
vn -0.7071 -0.0000 0.7071
vn 0.3827 -0.0000 -0.9239
vn 0.9239 -0.0000 -0.3827
vn -0.3827 -0.0000 -0.9239
vn -0.3827 -0.0000 0.9239
vn -0.0000 0.6887 0.7250
vn -0.2774 0.6887 0.6698
vn -0.5127 0.6887 0.5127
vn -0.6698 0.6887 0.2774
vn -0.7250 0.6887 -0.0000
vn -0.0000 0.6887 -0.7250
vn -0.2774 0.6887 -0.6698
vn -0.5127 0.6887 -0.5127
vn -0.6698 0.6887 -0.2774
vn 0.7250 0.6887 -0.0000
vn 0.6698 0.6887 -0.2774
vn 0.5127 0.6887 -0.5127
vn 0.2774 0.6887 -0.6698
vn 0.2774 0.6887 0.6698
vn 0.5127 0.6887 0.5127
vn 0.6698 0.6887 0.2774
vn 0.9239 -0.0000 0.3827
vn 0.3827 -0.0000 0.9239
vn -0.0000 -1.0000 -0.0000
vt 0.466171 0.012002
vt 0.466171 0.000000
vt 0.508604 0.000000
vt 0.508604 0.012002
vt 0.640625 0.012002
vt 0.640625 0.000000
vt 0.683058 0.000000
vt 0.683058 0.012002
vt 0.815079 0.000000
vt 0.815079 0.012002
vt 0.683058 0.012002
vt 0.683058 0.000000
vt 0.033978 0.368017
vt 0.008120 0.316260
vt 0.008107 0.067871
vt 0.033936 0.016151
vt 0.158084 0.016208
vt 0.183924 0.067846
vt 0.183931 0.316130
vt 0.158120 0.367830
vt 0.466171 0.012002
vt 0.466171 0.000000
vt 0.508604 0.000000
vt 0.508604 0.012002
vt 0.640625 0.000000
vt 0.640625 0.012002
vt 0.815079 0.000000
vt 0.815079 0.012002
vt 0.255859 0.253906
vt 0.375000 0.253906
vt 0.375000 0.246094
vt 0.255859 0.246094
vt 0.161432 0.000158
vt 0.191958 0.061193
vt 0.000073 0.061177
vt 0.030609 0.000000
vt 0.030630 0.384154
vt 0.000073 0.322916
vt 0.191958 0.322818
vt 0.161452 0.383895
vt 0.551149 0.031250
vt 0.570115 0.031250
vt 0.570115 0.043252
vt 0.551149 0.043252
vt 0.740807 0.031250
vt 0.759773 0.031250
vt 0.759773 0.043252
vt 0.740807 0.043252
vt 0.702875 0.031250
vt 0.721841 0.031250
vt 0.721841 0.043252
vt 0.702875 0.043252
vt 0.494252 0.031250
vt 0.513217 0.031250
vt 0.513217 0.043252
vt 0.494252 0.043252
vt 0.608046 0.031250
vt 0.627012 0.031250
vt 0.627012 0.043252
vt 0.608046 0.043252
vt 0.868282 0.261837
vt 0.854871 0.235015
vt 0.847613 0.199971
vt 0.847613 0.162039
vt 0.854871 0.126995
vt 0.868282 0.100173
vt 0.885804 0.085658
vt 0.904770 0.085658
vt 0.922292 0.100173
vt 0.935703 0.126995
vt 0.942961 0.162039
vt 0.942961 0.199971
vt 0.935703 0.235015
vt 0.922292 0.261837
vt 0.904770 0.276353
vt 0.885804 0.276353
vt 0.898274 0.023158
vt 0.898274 0.056266
vt 0.879480 0.061363
vt 0.875072 0.029450
vt 0.862044 0.076286
vt 0.853545 0.047873
vt 0.847224 0.099956
vt 0.835249 0.077095
vt 0.836090 0.130664
vt 0.821504 0.115007
vt 0.839460 0.275429
vt 0.825664 0.293729
vt 0.815462 0.251579
vt 0.831196 0.241287
vt 0.811240 0.205517
vt 0.827776 0.203977
vt 0.813304 0.158870
vt 0.829448 0.166193
vt 0.960457 0.130664
vt 0.975044 0.115007
vt 0.983244 0.158870
vt 0.967100 0.166194
vt 0.985308 0.205517
vt 0.968772 0.203977
vt 0.981086 0.251579
vt 0.965352 0.241288
vt 0.970884 0.293729
vt 0.957088 0.275429
vt 0.921476 0.029450
vt 0.917068 0.061363
vt 0.943003 0.047873
vt 0.934504 0.076286
vt 0.961299 0.077095
vt 0.949324 0.099956
vt 0.532183 0.031250
vt 0.532183 0.043252
vt 0.683910 0.031250
vt 0.683910 0.043252
vt 0.589081 0.031250
vt 0.589081 0.043252
vt 0.475286 0.031250
vt 0.475286 0.043252
vt 0.778739 0.031250
vt 0.778739 0.043252
vt 0.645978 0.031250
vt 0.664944 0.031250
vt 0.664944 0.043252
vt 0.645978 0.043252
vt 0.033236 0.015649
vt 0.007801 0.066519
vt 0.000000 0.060056
vt 0.030005 0.000047
vt 0.184229 0.066519
vt 0.158794 0.015649
vt 0.162026 0.000047
vt 0.192031 0.060056
vt 0.158794 0.368505
vt 0.184229 0.317635
vt 0.192031 0.324098
vt 0.162026 0.384108
vt 0.007801 0.317635
vt 0.033236 0.368505
vt 0.030005 0.384108
vt 0.000000 0.324098
vt 0.230469 0.253906
vt 0.230469 0.246094
vt 0.400391 0.253906
vt 0.400391 0.246094
s 1
usemtl pc_monitor_mp_1
f 14/1/1 75/2/1 76/3/1 16/4/1
f 22/5/2 77/6/2 78/7/2 24/8/2
f 79/9/3 18/10/3 12/11/3 74/12/3
f 21/13/4 23/14/4 13/15/4 15/16/4 9/17/4 11/18/4 17/19/4 19/20/4
f 18/21/5 79/22/5 80/23/5 20/24/5
f 73/25/6 10/26/6 16/4/6 76/3/6
f 75/27/7 14/28/7 24/8/7 78/7/7
f 77/6/8 22/5/8 20/24/8 80/23/8
f 8/29/9 5/30/10 88/31/10 85/32/9
f 11/18/11 9/17/11 10/33/11 12/34/11
f 15/16/12 13/15/12 14/35/12 16/36/12
f 23/14/13 21/13/13 22/37/13 24/38/13
f 19/20/14 17/19/14 18/39/14 20/40/14
f 9/17/15 15/16/15 16/36/15 10/33/15
f 17/19/16 11/18/16 12/34/16 18/39/16
f 20/40/17 22/37/17 21/13/17 19/20/17
f 24/38/18 14/35/18 13/15/18 23/14/18
f 74/12/19 12/11/19 10/26/19 73/25/19
f 38/41/6 40/42/9 31/43/9 39/44/6
f 71/45/2 72/46/20 59/47/20 27/48/2
f 68/49/8 70/50/21 28/51/21 69/52/8
f 50/53/22 51/54/1 29/55/1 30/56/22
f 42/57/23 58/58/3 49/59/3 43/60/23
f 69/61/4 28/62/4 27/63/4 59/64/4 63/65/4 30/66/4 29/67/4 33/68/4 39/69/4 31/70/4 32/71/4 43/72/4 49/73/4 26/74/4 25/75/4 64/76/4
f 54/77/24 58/78/24 42/79/25 35/80/25
f 35/80/25 42/79/25 41/81/26 36/82/26
f 36/82/26 41/81/26 40/83/27 37/84/27
f 37/84/27 40/83/27 38/85/28 34/86/28
f 48/87/29 44/88/29 47/89/30 50/90/30
f 50/90/30 47/89/30 46/91/31 51/92/31
f 51/92/31 46/91/31 45/93/32 52/94/32
f 52/94/32 45/93/32 34/86/28 38/85/28
f 68/95/33 53/96/33 67/97/34 70/98/34
f 70/98/34 67/97/34 66/99/35 71/100/35
f 71/100/35 66/99/35 65/101/36 72/102/36
f 72/102/36 65/101/36 44/103/29 48/104/29
f 58/78/24 54/77/24 57/105/37 60/106/37
f 60/106/37 57/105/37 56/107/38 61/108/38
f 61/108/38 56/107/38 55/109/39 62/110/39
f 62/110/39 55/109/39 53/96/33 68/95/33
f 52/111/10 38/41/6 39/44/6 33/112/10
f 62/113/40 68/49/8 69/52/8 64/114/40
f 41/115/19 42/57/23 43/60/23 32/116/19
f 51/54/1 52/111/10 33/112/10 29/55/1
f 48/117/7 50/53/22 30/56/22 63/118/7
f 72/46/20 48/119/7 63/120/7 59/47/20
f 60/121/41 61/122/5 25/123/5 26/124/41
f 70/50/21 71/45/2 27/48/2 28/51/21
f 40/42/9 41/115/19 32/116/19 31/43/9
f 61/122/5 62/113/40 64/114/40 25/123/5
f 58/58/3 60/121/41 26/124/41 49/59/3
f 2/125/42 1/126/42 74/127/42 73/128/42
f 4/129/42 3/130/42 76/131/42 75/132/42
f 8/133/42 7/134/42 78/135/42 77/136/42
f 6/137/42 5/138/42 80/139/42 79/140/42
f 3/130/42 2/125/42 73/128/42 76/131/42
f 7/134/42 4/129/42 75/132/42 78/135/42
f 5/138/42 8/133/42 77/136/42 80/139/42
f 1/126/42 6/137/42 79/140/42 74/127/42
f 84/130/42 83/129/42 86/134/42 85/133/42 88/138/42 87/137/42 82/126/42 81/125/42
f 2/30/21 3/29/40 84/32/40 81/31/21
f 7/29/23 8/141/9 85/142/9 86/32/23
f 1/30/20 2/143/21 81/144/21 82/31/20
f 6/29/22 1/30/20 82/31/20 87/32/22
f 4/30/41 7/29/23 86/32/23 83/31/41
f 5/141/10 6/29/22 87/32/22 88/142/10
f 3/143/40 4/30/41 83/31/41 84/144/40
o pc_monitor_mp_1_screen
v -0.193999 -0.031183 0.171370
v 0.194001 -0.031183 0.171370
v -0.193999 -0.039550 0.075735
v 0.194001 -0.039550 0.075735
v 0.192001 0.320001 0.146668
v -0.240000 0.346974 0.041919
v -0.228000 0.358928 0.040873
v 0.228001 0.358928 0.040873
v 0.240001 0.346974 0.041919
v -0.228000 -0.039550 0.075735
v -0.240000 -0.027595 0.074689
v 0.240001 -0.027595 0.074689
v 0.228001 -0.039550 0.075735
v -0.240000 -0.018183 0.182278
v -0.228000 -0.030137 0.183324
v -0.228000 0.368341 0.148462
v -0.240000 0.356387 0.149508
v 0.240001 0.356387 0.149508
v 0.228001 0.368341 0.148462
v 0.240001 -0.018183 0.182278
v 0.228001 -0.030137 0.183324
v -0.181999 0.313103 0.044882
v -0.193999 0.301063 0.045935
v 0.194001 0.301063 0.045935
v 0.182001 0.313103 0.044882
v -0.145999 0.229330 -0.216813
v -0.133999 0.241353 -0.217950
v -0.133999 0.226936 -0.228649
v -0.145999 -0.052343 -0.192170
v -0.133999 -0.051999 -0.204246
v -0.133999 -0.064339 -0.191206
v 0.134001 -0.064339 -0.191206
v 0.134001 -0.051999 -0.204246
v 0.146001 -0.052343 -0.192170
v 0.134001 0.241353 -0.217950
v 0.146001 0.229330 -0.216813
v 0.134001 0.226936 -0.228649
v -0.193999 -0.051461 0.076777
v -0.181999 -0.063458 0.077827
v -0.193999 -0.043096 0.172412
v -0.181999 -0.055091 0.173461
v 0.182001 -0.063458 0.077827
v 0.194001 -0.051461 0.076777
v 0.182001 -0.055091 0.173461
v 0.194001 -0.043096 0.172412
v -0.131999 -0.063458 0.077827
v 0.132001 -0.063458 0.077827
v -0.107999 -0.082284 -0.137351
v -0.131999 -0.080192 -0.113442
v 0.132001 -0.080192 -0.113442
v 0.108001 -0.082284 -0.137351
v 0.108001 -0.064168 -0.138936
v -0.107999 -0.064168 -0.138936
v 0.132001 -0.063458 0.077827
v 0.132001 -0.064089 -0.114851
v -0.131999 -0.063458 0.077827
v -0.131999 -0.064089 -0.114851
v 0.000001 -0.104772 -0.051063
v 0.000001 -0.114192 -0.021186
v 0.051963 -0.063631 -0.084777
v 0.042428 -0.086950 -0.066158
v 0.030001 -0.104072 -0.043055
v 0.015531 -0.113829 -0.017041
v 0.090001 -0.060316 -0.046883
v 0.073486 -0.084243 -0.035218
v 0.051963 -0.102157 -0.021177
v 0.026899 -0.112839 -0.005716
v 0.103924 -0.055787 0.004881
v 0.084854 -0.080545 0.007047
v 0.060001 -0.099543 0.008709
v 0.031060 -0.111485 0.009754
v 0.090001 -0.051258 0.056645
v 0.073486 -0.076847 0.049312
v 0.051963 -0.096928 0.038595
v 0.026899 -0.110132 0.025224
v 0.051963 -0.047943 0.094538
v 0.042428 -0.074140 0.080252
v 0.030001 -0.095014 0.060473
v 0.015531 -0.109141 0.036549
v 0.000001 -0.046729 0.108408
v 0.000001 -0.073150 0.091577
v 0.000001 -0.094313 0.068481
v 0.000001 -0.108778 0.040694
v 0.000001 -0.115559 0.010110
v -0.051960 -0.047943 0.094538
v -0.042425 -0.074140 0.080252
v -0.029999 -0.095014 0.060473
v -0.015528 -0.109141 0.036549
v -0.089999 -0.051258 0.056645
v -0.073483 -0.076847 0.049312
v -0.051960 -0.096928 0.038595
v -0.026896 -0.110132 0.025224
v -0.103922 -0.055787 0.004881
v -0.084851 -0.080545 0.007047
v -0.059999 -0.099543 0.008709
v -0.031057 -0.111485 0.009754
v -0.089999 -0.060316 -0.046883
v -0.073483 -0.084243 -0.035218
v -0.051960 -0.102157 -0.021177
v -0.026896 -0.112839 -0.005716
v -0.051960 -0.063631 -0.084777
v -0.042425 -0.086950 -0.066158
v -0.029999 -0.104071 -0.043055
v -0.015528 -0.113829 -0.017041
v 0.000001 -0.064844 -0.098647
v 0.000001 -0.087941 -0.077483
v -0.197984 0.326485 0.152124
v -0.192000 0.320002 0.146684
v 0.197985 0.326485 0.152124
v 0.192001 0.017159 0.173179
v 0.197985 0.011719 0.179662
v -0.197984 0.011719 0.179662
v -0.192000 0.017159 0.173179
vn 0.9843 -0.0154 -0.1756
vn -0.9843 -0.0154 -0.1756
vn -0.0000 -0.9962 0.0872
vn -0.0000 0.0872 0.9962
vn -1.0000 -0.0000 -0.0000
vn -0.0000 0.9647 -0.2634
vn -0.0000 -1.0000 0.0033
vn -0.0000 -0.0872 -0.9962
vn 1.0000 -0.0000 -0.0000
vn -0.0000 0.0871 0.9962
vn -0.7071 -0.7044 0.0616
vn -0.7071 0.7044 -0.0616
vn 0.7071 -0.7044 0.0616
vn 0.7071 0.7044 -0.0616
vn -0.0000 0.9962 -0.0872
vn -0.5584 0.4944 -0.6662
vn -0.5571 -0.6032 -0.5708
vn 0.5571 -0.6032 -0.5708
vn 0.5584 0.4944 -0.6662
vn -0.7071 -0.0616 -0.7044
vn -0.0000 -0.7263 -0.6874
vn -0.0000 0.5959 -0.8030
vn 0.7071 -0.0616 -0.7044
vn 0.6880 0.6584 -0.3054
vn -0.6880 0.6584 -0.3054
vn -0.7083 -0.7032 0.0615
vn 0.7083 -0.7032 0.0615
vn -0.6966 -0.7070 -0.1220
vn 0.6966 -0.7070 -0.1220
vn -0.0000 1.0000 -0.0000
vn -0.0000 -0.9810 -0.1941
vn -0.0000 -0.8983 -0.4393
vn 0.2580 -0.8923 -0.3704
vn 0.1394 -0.9777 -0.1569
vn -0.0000 -0.7563 -0.6542
vn -0.0000 -0.6756 -0.7373
vn 0.3967 -0.6663 -0.6314
vn 0.3588 -0.7480 -0.5584
vn 0.6871 -0.6410 -0.3421
vn 0.6215 -0.7251 -0.2967
vn 0.4468 -0.8759 -0.1823
vn 0.2415 -0.9688 -0.0552
vn 0.2789 -0.9567 0.0837
vn 0.7934 -0.6064 0.0531
vn 0.7176 -0.6938 0.0607
vn 0.5159 -0.8534 0.0747
vn 0.6215 -0.6625 0.4181
vn 0.4468 -0.8309 0.3316
vn 0.2415 -0.9445 0.2226
vn 0.6871 -0.5719 0.4482
vn 0.3967 -0.5466 0.7375
vn 0.3588 -0.6396 0.6798
vn 0.2580 -0.8144 0.5198
vn 0.1394 -0.9356 0.3243
vn -0.0000 -0.8084 0.5886
vn -0.0000 -0.9324 0.3615
vn -0.0000 -0.5373 0.8434
vn -0.0000 -0.6313 0.7756
vn -0.3588 -0.6396 0.6798
vn -0.2580 -0.8144 0.5198
vn -0.1394 -0.9356 0.3243
vn -0.3967 -0.5466 0.7375
vn -0.2415 -0.9445 0.2226
vn -0.6871 -0.5719 0.4482
vn -0.6215 -0.6625 0.4181
vn -0.4468 -0.8309 0.3316
vn -0.5159 -0.8534 0.0747
vn -0.2789 -0.9567 0.0837
vn -0.7934 -0.6064 0.0531
vn -0.7176 -0.6938 0.0607
vn -0.6215 -0.7251 -0.2967
vn -0.4468 -0.8759 -0.1823
vn -0.2415 -0.9688 -0.0552
vn -0.6871 -0.6410 -0.3421
vn -0.1394 -0.9777 -0.1569
vn -0.3967 -0.6663 -0.6314
vn -0.3588 -0.7480 -0.5584
vn -0.2580 -0.8923 -0.3704
vn -0.7076 0.0616 0.7040
vn -0.0000 -0.6428 0.7660
vn -0.0000 -0.6433 0.7656
vn 0.7071 0.0616 0.7044
vn -0.0000 0.7660 0.6428
vt 1.000000 0.527341
vt 0.828901 0.555698
vt 0.828901 0.911074
vt 1.000000 0.972106
vt 1.000000 0.542370
vt 0.828901 0.911074
vt 0.828901 0.555698
vt 1.000000 0.972106
vt 0.590033 0.455065
vt 0.529705 0.455065
vt 0.522164 0.412332
vt 0.590033 0.412332
vt 0.230678 0.946598
vt 0.230674 0.444833
vt 0.257315 0.406760
vt 0.257315 0.984654
vt 0.205106 0.244608
vt 0.441395 0.244608
vt 0.441395 0.380348
vt 0.205106 0.380348
vt 0.812784 0.520777
vt 0.812784 0.978672
vt 0.641575 0.918032
vt 0.641567 0.581347
vt 0.812784 0.978671
vt 0.812784 0.520738
vt 0.641575 0.581416
vt 0.641567 0.918101
vt 0.264377 0.942185
vt 0.271918 1.000000
vt 0.264377 0.984918
vt 0.197266 0.120658
vt 0.197266 0.000000
vt 0.204780 0.000000
vt 0.204781 0.120658
vt 0.529704 0.942726
vt 0.590033 0.942727
vt 0.590033 0.985460
vt 0.522163 0.985460
vt 0.606508 1.000000
vt 0.606508 0.512340
vt 0.614023 0.512340
vt 0.621590 0.527422
vt 0.621590 0.984918
vt 0.614023 1.000000
vt 0.215464 0.000000
vt 0.444212 0.000000
vt 0.444212 0.120658
vt 0.215464 0.120658
vt 0.462410 0.120658
vt 0.454895 0.120658
vt 0.454896 0.000000
vt 0.462410 0.000000
vt 0.215208 0.529343
vt 0.215208 0.881263
vt 0.046789 0.881263
vt 0.046789 0.529343
vt 0.205106 0.244607
vt 0.441395 0.244607
vt 0.441395 0.380348
vt 0.205106 0.380348
vt 0.249718 0.999891
vt 0.003535 0.406843
vt 0.011132 0.391607
vt 0.030171 0.444900
vt 0.011129 1.000000
vt 0.003531 0.984743
vt 0.030173 0.946670
vt 0.249717 0.391505
vt 0.194441 0.380348
vt 0.194441 0.244608
vt 0.989335 0.479131
vt 0.989335 0.343391
vt 1.000000 0.343391
vt 1.000000 0.479131
vt 0.194441 0.380348
vt 0.194441 0.244608
vt 0.702772 0.343391
vt 0.702772 0.479131
vt 0.692107 0.479131
vt 0.692107 0.343391
vt 0.638366 0.561219
vt 0.630452 0.581347
vt 0.638372 0.561281
vt 0.630459 0.581416
vt 0.630452 0.918101
vt 0.638366 0.938228
vt 0.638372 0.938167
vt 0.630459 0.918032
vt 0.818236 0.909372
vt 0.818236 0.557452
vt 0.818236 0.557452
vt 0.818236 0.909372
vt 0.810858 1.000000
vt 0.810860 0.499448
vt 0.810858 0.499448
vt 0.810860 1.000000
vt 0.479245 0.454524
vt 0.508207 0.396709
vt 0.515748 0.411791
vt 0.486841 0.469606
vt 0.271918 0.396709
vt 0.264377 0.454524
vt 0.515748 0.984918
vt 0.486841 0.927102
vt 0.508207 1.000000
vt 0.479245 0.942184
vt 0.264377 0.411791
vt 0.280896 0.586145
vt 0.281272 0.862031
vt 0.271186 0.870680
vt 0.270790 0.577507
vt 0.416685 0.555656
vt 0.416710 0.556149
vt 0.294529 0.556661
vt 0.290038 0.539652
vt 0.283692 0.588214
vt 0.298775 0.558049
vt 0.419433 0.558049
vt 0.419433 0.889859
vt 0.298775 0.889859
vt 0.283692 0.859695
vt 0.441431 0.886253
vt 0.441421 0.885862
vt 0.441431 0.548711
vt 0.441405 0.548217
vt 0.294843 0.891275
vt 0.290356 0.908256
vt 0.416700 0.893300
vt 0.416710 0.893691
vt 0.621746 0.201201
vt 0.634588 0.176479
vt 0.643296 0.208159
vt 0.625964 0.216774
vt 0.609364 0.224589
vt 0.648254 0.149799
vt 0.663322 0.120113
vt 0.682327 0.187540
vt 0.661831 0.198545
vt 0.682327 0.265579
vt 0.661574 0.254641
vt 0.642973 0.244388
vt 0.625736 0.234469
vt 0.621112 0.249526
vt 0.662606 0.334581
vt 0.647195 0.303358
vt 0.633585 0.275472
vt 0.622311 0.330076
vt 0.617630 0.292655
vt 0.613339 0.257859
vt 0.627485 0.371766
vt 0.588486 0.369239
vt 0.594296 0.328396
vt 0.599546 0.291572
vt 0.604508 0.257285
vt 0.584139 0.272699
vt 0.596981 0.247977
vt 0.555405 0.329065
vt 0.570473 0.299379
vt 0.556897 0.250633
vt 0.575432 0.241018
vt 0.592764 0.232404
vt 0.536401 0.261638
vt 0.592991 0.214709
vt 0.536401 0.183599
vt 0.557153 0.194537
vt 0.575755 0.204790
vt 0.585142 0.173706
vt 0.597616 0.199652
vt 0.556121 0.114597
vt 0.571532 0.145820
vt 0.596417 0.119101
vt 0.601097 0.156523
vt 0.605389 0.191319
vt 0.591243 0.077412
vt 0.614219 0.191893
vt 0.630242 0.079939
vt 0.624432 0.120782
vt 0.619182 0.157606
vt 0.034745 0.937518
vt 0.226116 0.937471
vt 0.034733 0.454026
vt 0.226105 0.453978
vt 0.000000 1.000000
vt 0.000000 0.000000
vt 1.000000 0.000000
vt 1.000000 1.000000
s 0
usemtl pc_monitor_mp_1
f 131/145/43 122/146/43 124/147/43 112/148/43 92/149/43
f 114/150/44 117/151/44 126/145/44 91/149/44 111/152/44
f 91/153/45 89/154/45 103/155/45 98/156/45
f 199/157/46 200/158/46 103/159/46 109/160/46
f 102/161/47 105/162/47 94/163/47 99/164/47
f 110/165/48 113/166/48 123/167/48 115/168/48
f 130/169/49 127/170/49 119/171/49 120/172/49
f 92/173/50 100/174/50 101/175/50
f 89/176/47 91/177/47 126/178/47 128/179/47
f 90/180/45 92/181/45 101/182/45 109/183/45
f 90/184/46 89/185/46 128/186/46 129/187/46 132/188/46 133/189/46
f 127/190/45 130/191/45 132/192/45 129/193/45
f 90/194/51 133/195/51 131/196/51 92/197/51
f 118/198/50 116/199/50 125/200/50 121/201/50
f 100/202/51 97/203/51 106/204/51 108/205/51
f 108/206/46 199/157/46 109/160/46
f 109/183/45 103/155/45 89/154/45 90/180/45
f 104/207/46 105/208/46 195/209/46
f 106/210/46 107/211/46 197/212/46
f 200/158/46 195/209/46 105/208/46 102/213/46
f 197/212/46 199/157/46 108/206/46 106/210/46
f 200/158/52 102/213/52 103/159/52
f 98/214/53 103/215/53 102/161/53 99/164/53
f 104/216/54 95/217/54 94/218/54 105/219/54
f 109/220/55 101/221/55 100/202/55 108/205/55
f 96/222/56 107/223/56 106/224/56 97/225/56
f 104/216/57 107/223/57 96/222/57 95/217/57
f 114/226/58 115/168/58 116/227/58
f 117/228/59 118/229/59 119/171/59
f 120/172/60 121/230/60 122/231/60
f 123/167/61 124/232/61 125/233/61
f 116/234/62 118/235/62 117/151/62 114/150/62
f 120/172/63 119/171/63 118/229/63 121/230/63
f 115/168/64 123/167/64 125/233/64 116/227/64
f 124/147/65 122/146/65 121/236/65 125/237/65
f 112/238/66 124/232/66 123/167/66 113/166/66
f 114/226/67 111/239/67 110/165/67 115/168/67
f 127/190/68 129/193/68 128/179/68 126/178/68
f 132/192/69 130/191/69 131/196/69 133/195/69
f 119/171/70 127/170/70 126/240/70 117/228/70
f 130/169/71 120/172/71 122/231/71 131/241/71
f 111/242/50 94/243/50 95/244/50 110/245/50
f 99/246/50 94/243/50 111/242/50 91/247/50
f 110/245/50 95/244/50 96/248/50 113/249/50
f 113/249/50 96/248/50 97/250/50 112/251/50
f 112/251/50 97/250/50 100/174/50 92/173/50
f 98/252/50 99/246/50 91/247/50
f 139/253/50 136/254/50 141/255/50 140/256/50
f 142/257/51 135/258/51 138/259/51 143/260/51
f 139/261/45 138/262/45 135/263/45 134/264/45 137/265/45 136/266/45
f 144/267/72 134/268/72 135/269/72 142/270/72
f 143/260/65 138/259/65 139/253/65 140/256/65
f 136/254/62 137/271/62 145/272/62 141/255/62
f 137/271/47 134/273/47 144/274/47 145/272/47
s 1
f 147/275/73 146/276/74 150/277/75 151/278/76
f 172/279/45 147/275/73 151/278/76
f 194/280/77 193/281/78 148/282/79 149/283/80
f 146/276/74 194/280/77 149/283/80 150/277/75
f 149/283/80 148/282/79 152/284/81 153/285/82
f 150/277/75 149/283/80 153/285/82 154/286/83
f 151/278/76 150/277/75 154/286/83 155/287/84
f 172/279/45 151/278/76 155/287/84
f 172/279/45 155/287/84 159/288/85
f 153/285/82 152/284/81 156/289/86 157/290/87
f 154/286/83 153/285/82 157/290/87 158/291/88
f 155/287/84 154/286/83 158/291/88 159/288/85
f 158/291/88 157/290/87 161/292/89 162/293/90
f 159/288/85 158/291/88 162/293/90 163/294/91
f 172/279/45 159/288/85 163/294/91
f 157/290/87 156/289/86 160/295/92 161/292/89
f 161/292/89 160/295/92 164/296/93 165/297/94
f 162/293/90 161/292/89 165/297/94 166/298/95
f 163/294/91 162/293/90 166/298/95 167/299/96
f 172/279/45 163/294/91 167/299/96
f 167/299/96 166/298/95 170/300/97 171/301/98
f 172/279/45 167/299/96 171/301/98
f 165/297/94 164/296/93 168/302/99 169/303/100
f 166/298/95 165/297/94 169/303/100 170/300/97
f 170/300/97 169/303/100 174/304/101 175/305/102
f 171/301/98 170/300/97 175/305/102 176/306/103
f 172/279/45 171/301/98 176/306/103
f 169/303/100 168/302/99 173/307/104 174/304/101
f 172/279/45 176/306/103 180/308/105
f 174/304/101 173/307/104 177/309/106 178/310/107
f 175/305/102 174/304/101 178/310/107 179/311/108
f 176/306/103 175/305/102 179/311/108 180/308/105
f 180/308/105 179/311/108 183/312/109 184/313/110
f 172/279/45 180/308/105 184/313/110
f 178/310/107 177/309/106 181/314/111 182/315/112
f 179/311/108 178/310/107 182/315/112 183/312/109
f 183/312/109 182/315/112 186/316/113 187/317/114
f 184/313/110 183/312/109 187/317/114 188/318/115
f 172/279/45 184/313/110 188/318/115
f 182/315/112 181/314/111 185/319/116 186/316/113
f 172/279/45 188/318/115 192/320/117
f 186/316/113 185/319/116 189/321/118 190/322/119
f 187/317/114 186/316/113 190/322/119 191/323/120
f 188/318/115 187/317/114 191/323/120 192/320/117
f 192/320/117 191/323/120 146/276/74 147/275/73
f 172/279/45 192/320/117 147/275/73
f 190/322/119 189/321/118 193/281/78 194/280/77
f 191/323/120 190/322/119 194/280/77 146/276/74
s 0
f 93/324/121 198/325/121 199/157/121 197/212/121
f 197/212/122 195/209/122 196/326/123 93/324/123
f 201/327/124 196/326/124 195/209/124 200/158/124
f 200/158/125 199/157/125 198/325/125 201/327/125
f 195/209/46 197/212/46 107/211/46 104/207/46
usemtl crt_screen_mp_2
f 196/328/46 201/329/46 198/330/46 93/331/46
