# Blender 5.0.1
# www.blender.org
mtllib tv_mp_1_1.mtl
o tv_mp_1_1
v -0.255003 0.540000 0.322478
v 0.254997 0.030000 0.322478
v -0.228002 0.513000 0.289993
v -0.228002 0.128421 0.292493
v 0.227415 0.512417 0.290317
v 0.227998 0.057000 0.292493
v 0.227998 0.128421 0.292493
v -0.228002 0.513000 0.292493
v 0.227415 0.512417 0.292817
v -0.228002 0.057000 0.292493
v -0.228002 0.057000 0.309993
v 0.227998 0.128421 0.289993
v -0.228002 0.128421 0.289993
v 0.227998 0.057000 0.309993
v -0.228002 0.118421 0.309993
v 0.227998 0.118421 0.309993
v -0.197085 0.482039 0.292491
v -0.197081 0.159342 0.292517
v 0.197031 0.159342 0.292495
v 0.196541 0.481535 0.292793
v -0.212541 0.143882 0.302505
v -0.212541 0.497520 0.302492
v 0.212515 0.143882 0.302494
v 0.211978 0.496976 0.302805
v -0.182757 0.438074 0.292497
v -0.153135 0.467659 0.292515
v -0.178788 0.452881 0.292498
v -0.167946 0.463709 0.292504
v -0.153153 0.173666 0.292525
v -0.182757 0.203269 0.292524
v -0.167955 0.177632 0.292526
v -0.178791 0.188467 0.292526
v 0.182640 0.203292 0.292525
v 0.153061 0.173666 0.292501
v 0.178694 0.188479 0.292512
v 0.167867 0.177635 0.292503
v 0.152667 0.467268 0.292735
v 0.182284 0.437659 0.292730
v 0.167459 0.463287 0.292742
v 0.178300 0.452449 0.292740
v -0.097274 0.404502 0.326136
v -0.119700 0.382103 0.326123
v -0.108856 0.401367 0.326144
v -0.091937 0.376727 0.328551
v -0.116550 0.393682 0.326139
v -0.119702 0.259141 0.326110
v -0.091921 0.264485 0.328528
v -0.097278 0.236719 0.326111
v -0.116553 0.247562 0.326124
v -0.108858 0.239868 0.326124
v 0.097078 0.236721 0.326135
v 0.119472 0.259148 0.326152
v 0.091699 0.264483 0.328567
v 0.108657 0.239871 0.326152
v 0.116339 0.247565 0.326158
v 0.119289 0.381815 0.326233
v 0.091473 0.376490 0.328629
v 0.096841 0.404257 0.326236
v 0.116124 0.393391 0.326253
v 0.108418 0.401095 0.326254
v -0.116348 0.430876 0.319436
v -0.137622 0.452146 0.306464
v -0.167276 0.422529 0.306446
v -0.146045 0.401218 0.319418
v -0.152412 0.448155 0.306488
v -0.131263 0.426983 0.319403
v -0.163266 0.437314 0.306481
v -0.142132 0.416127 0.319396
v -0.146050 0.240051 0.319414
v -0.167288 0.218771 0.306449
v -0.137651 0.189133 0.306450
v -0.116369 0.210371 0.319415
v -0.142140 0.225145 0.319389
v -0.163282 0.203988 0.306482
v -0.131276 0.214281 0.319390
v -0.152434 0.193140 0.306483
v 0.116198 0.210376 0.319427
v 0.137512 0.189147 0.306453
v 0.167125 0.218804 0.306475
v 0.145850 0.240077 0.319450
v 0.152297 0.193157 0.306489
v 0.131107 0.214289 0.319406
v 0.163136 0.204013 0.306497
v 0.141961 0.225160 0.319414
v 0.145609 0.400896 0.319569
v 0.166829 0.422165 0.306632
v 0.137179 0.451809 0.306636
v 0.115915 0.430582 0.319574
v 0.141680 0.415790 0.319554
v 0.162805 0.436938 0.306674
v 0.130811 0.426656 0.319555
v 0.151952 0.447788 0.306675
v -0.211512 0.086461 0.323993
v -0.206767 0.075006 0.323993
v -0.206767 0.097916 0.323993
v -0.208040 0.073733 0.309993
v -0.213312 0.086461 0.309993
v -0.208040 0.099189 0.309993
v -0.195312 0.070261 0.323993
v -0.183857 0.075006 0.323993
v -0.179112 0.086461 0.323993
v -0.195312 0.102661 0.323993
v -0.183857 0.097916 0.323993
v -0.195312 0.068461 0.309993
v -0.182584 0.073733 0.309993
v -0.195312 0.104461 0.309993
v -0.177312 0.086461 0.309993
v -0.182584 0.099189 0.309993
v 0.033562 0.087241 0.323993
v 0.039255 0.073495 0.323993
v 0.039255 0.100987 0.323993
v 0.037728 0.071968 0.309993
v 0.031402 0.087241 0.309993
v 0.037728 0.102515 0.309993
v 0.053002 0.067801 0.323993
v 0.066748 0.073495 0.323993
v 0.072442 0.087241 0.323993
v 0.053002 0.106681 0.323993
v 0.066748 0.100987 0.323993
v 0.053002 0.065641 0.309993
v 0.068275 0.071968 0.309993
v 0.053002 0.108841 0.309993
v 0.074602 0.087241 0.309993
v 0.068275 0.102515 0.309993
v 0.164214 0.087241 0.323993
v 0.169908 0.073495 0.323993
v 0.169908 0.100987 0.323993
v 0.168381 0.071968 0.309993
v 0.162054 0.087241 0.309993
v 0.168381 0.102515 0.309993
v 0.183654 0.067801 0.323993
v 0.197400 0.073495 0.323993
v 0.203094 0.087241 0.323993
v 0.183654 0.106681 0.323993
v 0.197400 0.100987 0.323993
v 0.183654 0.065641 0.309993
v 0.198928 0.071968 0.309993
v 0.183654 0.108841 0.309993
v 0.205254 0.087241 0.309993
v 0.198928 0.102515 0.309993
v -0.163750 0.086461 0.323993
v -0.159005 0.075006 0.323993
v -0.159005 0.097916 0.323993
v -0.160278 0.073733 0.309993
v -0.165550 0.086461 0.309993
v -0.160278 0.099189 0.309993
v -0.147550 0.070261 0.323993
v -0.136095 0.075006 0.323993
v -0.131350 0.086461 0.323993
v -0.147550 0.102661 0.323993
v -0.136095 0.097916 0.323993
v -0.147550 0.068461 0.309993
v -0.134822 0.073733 0.309993
v -0.147550 0.104461 0.309993
v -0.129550 0.086461 0.309993
v -0.134822 0.099189 0.309993
v -0.000730 0.545845 0.095290
v 0.048179 0.545845 0.115549
v 0.025739 0.545845 0.228360
v -0.000730 0.545845 0.233625
v -0.027199 0.545845 0.228360
v -0.049639 0.545845 0.213367
v -0.064633 0.545845 0.190927
v -0.029528 0.545845 0.094934
v -0.000730 0.545845 0.089206
v 0.028068 0.545845 0.094934
v 0.052481 0.545845 0.111246
v 0.068794 0.545845 0.135660
v 0.074522 0.545845 0.164458
v 0.068794 0.545845 0.193255
v 0.052481 0.545845 0.217669
v 0.028068 0.545845 0.233981
v -0.000730 0.545845 0.239710
v -0.029528 0.545845 0.233981
v -0.053941 0.545845 0.217669
v -0.070254 0.545845 0.193255
v -0.075982 0.545845 0.164458
v -0.070254 0.545845 0.135660
v -0.053941 0.545845 0.111246
v -0.029528 0.540001 0.094934
v -0.000730 0.540001 0.089206
v 0.028068 0.540001 0.094934
v 0.052481 0.540001 0.111246
v 0.068794 0.540001 0.135660
v 0.074522 0.540001 0.164458
v 0.068794 0.540001 0.193255
v 0.052481 0.540001 0.217669
v 0.028068 0.540001 0.233981
v -0.000730 0.540001 0.239710
v -0.029528 0.540001 0.233981
v -0.053941 0.540001 0.217669
v -0.070254 0.540001 0.193255
v -0.075982 0.540001 0.164458
v -0.070254 0.540001 0.135660
v -0.053941 0.540001 0.111246
v -0.027199 0.545845 0.100555
v 0.025739 0.545845 0.100555
v 0.063173 0.545845 0.137988
v 0.068438 0.545845 0.164458
v 0.063173 0.545845 0.190927
v 0.048179 0.545845 0.213367
v -0.069898 0.545845 0.164458
v -0.064632 0.545845 0.137988
v -0.049639 0.545845 0.115549
v -0.013676 0.562943 0.133203
v 0.012216 0.562943 0.133203
v 0.030525 0.562943 0.151511
v 0.030525 0.562943 0.177404
v 0.012216 0.562943 0.195713
v -0.013676 0.562943 0.195713
v -0.031985 0.562943 0.177404
v -0.031985 0.562943 0.151511
v -0.008173 0.574717 0.145260
v 0.008329 0.574717 0.145260
v 0.008329 0.574717 0.185101
v -0.008173 0.574717 0.185101
v -0.008173 0.562943 0.145260
v 0.008329 0.562943 0.145260
v 0.019999 0.562943 0.156929
v 0.019999 0.562943 0.173432
v 0.008329 0.562943 0.185101
v -0.008173 0.562943 0.185101
v -0.019842 0.562943 0.173432
v -0.019842 0.562943 0.156929
v -0.019842 0.574717 0.156929
v -0.019842 0.574717 0.173432
v 0.019999 0.574717 0.173432
v 0.019999 0.574717 0.156929
v 0.210442 0.781501 0.168172
v 0.213217 0.778726 0.168172
v 0.213217 0.778726 0.162169
v 0.210442 0.781501 0.162169
v -0.174964 0.746117 0.162189
v -0.177739 0.743342 0.162189
v -0.177739 0.743342 0.168192
v -0.174964 0.746117 0.168192
v -0.015727 0.580086 0.161304
v -0.011714 0.584098 0.161304
v -0.015727 0.580086 0.169057
v -0.011714 0.584098 0.169057
v 0.015877 0.580086 0.169057
v 0.011865 0.584098 0.169057
v 0.015877 0.580086 0.161304
v 0.011865 0.584098 0.161304
v -0.177805 0.750347 0.160688
v -0.181968 0.746184 0.160688
v -0.181968 0.746184 0.169693
v -0.177805 0.750347 0.169693
v -0.181341 0.753882 0.160688
v -0.185504 0.749720 0.160688
v -0.185504 0.749720 0.169693
v -0.181341 0.753882 0.169693
v 0.213285 0.785730 0.169673
v 0.217448 0.781567 0.169673
v 0.217448 0.781567 0.160669
v 0.213285 0.785730 0.160669
v 0.216820 0.789266 0.169673
v 0.220983 0.785103 0.169673
v 0.220983 0.785103 0.160669
v 0.216820 0.789266 0.160669
v 0.016496 0.574717 0.160429
v 0.016496 0.574717 0.169932
v -0.016345 0.574717 0.169932
v -0.016345 0.574717 0.160429
v -0.011095 0.584717 0.160429
v -0.016345 0.579467 0.160429
v -0.016345 0.579467 0.169932
v -0.011095 0.584717 0.169932
v 0.011246 0.584717 0.169932
v 0.016496 0.579467 0.169932
v 0.016496 0.579467 0.160429
v 0.011246 0.584717 0.160429
v 0.081226 0.087241 0.313993
v 0.083504 0.081743 0.313993
v 0.083504 0.092740 0.313993
v 0.082893 0.081132 0.309993
v 0.080362 0.087241 0.309993
v 0.082893 0.093351 0.309993
v 0.089002 0.079465 0.313993
v 0.094501 0.081743 0.313993
v 0.096778 0.087241 0.313993
v 0.089002 0.095017 0.313993
v 0.094501 0.092740 0.313993
v 0.089002 0.078601 0.309993
v 0.095112 0.081132 0.309993
v 0.089002 0.095881 0.309993
v 0.097642 0.087241 0.309993
v 0.095112 0.093351 0.309993
v 0.112629 0.087241 0.313993
v 0.114906 0.081743 0.313993
v 0.114906 0.092740 0.313993
v 0.114295 0.081132 0.309993
v 0.111765 0.087241 0.309993
v 0.114295 0.093351 0.309993
v 0.120405 0.079465 0.313993
v 0.125903 0.081743 0.313993
v 0.128181 0.087241 0.313993
v 0.120405 0.095017 0.313993
v 0.125903 0.092740 0.313993
v 0.120405 0.078601 0.309993
v 0.126514 0.081132 0.309993
v 0.120405 0.095881 0.309993
v 0.129045 0.087241 0.309993
v 0.126514 0.093351 0.309993
v 0.141629 0.087241 0.313993
v 0.143906 0.081743 0.313993
v 0.143906 0.092740 0.313993
v 0.143295 0.081132 0.309993
v 0.140765 0.087241 0.309993
v 0.143295 0.093351 0.309993
v 0.149405 0.079465 0.313993
v 0.154903 0.081743 0.313993
v 0.157181 0.087241 0.313993
v 0.149405 0.095017 0.313993
v 0.154903 0.092740 0.313993
v 0.149405 0.078601 0.309993
v 0.155514 0.081132 0.309993
v 0.149405 0.095881 0.309993
v 0.158045 0.087241 0.309993
v 0.155514 0.093351 0.309993
v -0.255003 0.540000 0.007508
v 0.254997 0.030000 0.007508
v -0.229999 0.000000 0.304999
v -0.229999 0.030000 0.304999
v -0.229999 0.000000 0.284999
v -0.209999 0.000000 0.304999
v -0.209999 0.000000 0.284999
v -0.229999 0.000000 0.044999
v -0.209999 0.000000 0.044999
v -0.229999 0.000000 0.024999
v -0.229999 0.030000 0.024999
v -0.209999 0.000000 0.024999
v -0.209999 0.010000 0.264999
v -0.229999 0.010000 0.264999
v -0.209999 0.010000 0.064999
v -0.229999 0.010000 0.064999
v 0.230001 0.000000 0.304999
v 0.230001 0.000000 0.284999
v 0.230001 0.030000 0.305000
v 0.230001 0.000000 0.044999
v 0.230001 0.000000 0.024999
v 0.230001 0.010000 0.264999
v 0.210001 0.010000 0.264999
v 0.230001 0.010000 0.064999
v 0.210001 0.010000 0.064999
v 0.210001 0.000000 0.304999
v 0.190001 0.010000 0.304999
v 0.210001 0.000000 0.284999
v 0.190001 0.010000 0.284999
v 0.210001 0.030000 0.284999
v -0.189999 0.010000 0.304999
v -0.189999 0.010000 0.284999
v -0.210000 0.030000 0.284999
v 0.210001 0.000000 0.044999
v 0.210001 0.030000 0.044999
v 0.190001 0.010000 0.044999
v 0.210001 0.000000 0.024999
v 0.230001 0.030000 0.024999
v 0.190001 0.010000 0.024999
v -0.189999 0.010000 0.044999
v -0.210000 0.030000 0.044999
v -0.189999 0.010000 0.024999
v -0.228870 0.513985 -0.000006
v -0.228870 0.059899 -0.000006
v 0.224835 0.513985 -0.000006
v 0.224834 0.059899 -0.000007
v -0.254999 0.030000 0.007508
v 0.255001 0.540000 0.007508
v -0.247484 0.532485 -0.000007
v -0.247484 0.037515 -0.000007
v 0.247486 0.037515 -0.000007
v 0.247486 0.532485 -0.000007
v -0.228870 0.513985 0.004994
v 0.224835 0.513985 0.004994
v -0.228870 0.059899 0.004994
v 0.224834 0.059899 0.004993
v -0.076370 0.361485 -0.088322
v -0.076370 0.212399 -0.088322
v 0.072334 0.361485 -0.088322
v 0.072334 0.212399 -0.088322
v -0.181370 0.466485 -0.035006
v -0.181370 0.107399 -0.035006
v 0.177334 0.466485 -0.035006
v 0.177334 0.107399 -0.035007
v -0.117620 0.402735 -0.035006
v 0.113584 0.402735 -0.035006
v -0.117620 0.171149 -0.035006
v 0.113584 0.171149 -0.035007
v -0.096370 0.381485 -0.055006
v -0.096370 0.192399 -0.055006
v 0.092334 0.381485 -0.055006
v 0.092334 0.192399 -0.055007
v -0.242170 0.042829 0.327792
v -0.242170 0.527171 0.327792
v 0.239971 0.045030 0.319993
v 0.242172 0.042829 0.327792
v 0.239971 0.524970 0.319993
v 0.242172 0.527171 0.327792
v -0.247484 0.037515 0.329993
v 0.247486 0.037515 0.329993
v -0.247484 0.532485 0.329993
v 0.247486 0.532485 0.329993
v -0.254999 0.030000 0.322478
v 0.255001 0.540000 0.322478
v -0.239998 0.525000 0.319993
v -0.239998 0.045000 0.319993
v -0.227997 0.057000 0.317064
v 0.228003 0.057000 0.317064
v -0.227998 0.513000 0.289993
v -0.227998 0.128421 0.292493
v 0.227419 0.512417 0.290317
v -0.227997 0.513000 0.317064
v 0.228002 0.057000 0.292493
v 0.228003 0.513000 0.317064
v 0.228002 0.128421 0.292493
v -0.227998 0.057000 0.292493
vn 1.0000 -0.0000 -0.0000
vn -0.0000 1.0000 -0.0000
vn -1.0000 -0.0000 -0.0000
vn -0.0000 -1.0000 -0.0000
vn -0.0004 0.0061 1.0000
vn -0.0000 -0.0000 1.0000
vn -0.0000 0.8944 0.4472
vn -0.5433 -0.0000 0.8395
vn -0.0000 -0.5434 0.8395
vn 0.5429 0.0001 0.8398
vn 0.0001 0.5429 0.8398
vn -0.0013 -0.5434 0.8395
vn -0.5433 -0.0016 0.8395
vn -0.0000 0.5429 0.8398
vn 0.2878 -0.4654 0.8370
vn 0.2384 -0.4311 0.8703
vn 0.0660 -0.5587 0.8268
vn 0.1052 -0.6053 0.7890
vn -0.4653 -0.2877 0.8371
vn -0.4308 -0.2384 0.8704
vn -0.5585 -0.0659 0.8269
vn -0.6052 -0.1051 0.7891
vn -0.4654 0.2878 0.8370
vn -0.4310 0.2384 0.8703
vn -0.2384 0.4307 0.8704
vn -0.2877 0.4652 0.8371
vn 0.5579 0.0662 0.8273
vn 0.6047 0.1053 0.7895
vn 0.4650 0.2876 0.8373
vn 0.4304 0.2383 0.8706
vn 0.6049 -0.1049 0.7894
vn 0.5581 -0.0658 0.8272
vn 0.4307 -0.2384 0.8704
vn 0.4652 -0.2877 0.8371
vn -0.2878 -0.4653 0.8371
vn -0.2384 -0.4308 0.8704
vn -0.6053 0.1052 0.7890
vn -0.5586 0.0660 0.8268
vn -0.1051 -0.6052 0.7891
vn -0.0660 -0.5585 0.8269
vn -0.0377 -0.3713 0.9278
vn -0.0160 -0.1654 0.9861
vn -0.0710 -0.1320 0.9887
vn -0.1530 -0.2856 0.9461
vn 0.2876 0.4649 0.8373
vn 0.2383 0.4303 0.8706
vn 0.1053 0.6046 0.7895
vn 0.0661 0.5579 0.8273
vn -0.1049 0.6049 0.7894
vn -0.0658 0.5581 0.8272
vn -0.0347 -0.0347 0.9988
vn -0.1320 -0.0710 0.9887
vn -0.2856 -0.1529 0.9461
vn -0.1654 -0.0160 0.9861
vn -0.3713 -0.0377 0.9278
vn -0.0163 0.1649 0.9862
vn -0.0377 0.3708 0.9279
vn -0.1531 0.2855 0.9461
vn -0.0713 0.1319 0.9887
vn -0.0348 0.0342 0.9988
vn -0.2859 0.1529 0.9460
vn -0.1324 0.0708 0.9887
vn -0.3714 0.0376 0.9277
vn -0.1655 0.0159 0.9861
vn 0.0376 0.3705 0.9281
vn 0.0156 0.1646 0.9862
vn 0.0705 0.1313 0.9888
vn 0.1526 0.2850 0.9463
vn 0.0340 0.0340 0.9988
vn 0.1314 0.0703 0.9888
vn 0.2851 0.1526 0.9463
vn 0.1647 0.0155 0.9862
vn 0.3706 0.0375 0.9280
vn 0.0158 -0.1656 0.9861
vn 0.0376 -0.3715 0.9277
vn 0.1529 -0.2860 0.9460
vn 0.0708 -0.1325 0.9886
vn 0.0342 -0.0349 0.9988
vn 0.2855 -0.1531 0.9461
vn 0.1319 -0.0714 0.9887
vn 0.3708 -0.0378 0.9279
vn 0.1649 -0.0164 0.9862
vn -0.0000 -0.9918 0.1275
vn -0.7013 -0.7013 0.1275
vn -0.9918 -0.0000 0.1275
vn -0.0000 0.9918 0.1275
vn -0.7013 0.7013 0.1275
vn 0.7013 -0.7013 0.1275
vn 0.9918 -0.0000 0.1275
vn 0.7013 0.7013 0.1275
vn -0.0000 -0.9883 0.1525
vn -0.6988 -0.6988 0.1525
vn -0.9883 -0.0000 0.1525
vn -0.0000 0.9883 0.1525
vn -0.6988 0.6988 0.1525
vn 0.6988 -0.6988 0.1525
vn 0.9883 -0.0000 0.1525
vn 0.6988 0.6988 0.1525
vn 0.7071 -0.0000 0.7071
vn 0.3827 -0.0000 0.9239
vn 0.3827 -0.0000 -0.9239
vn 0.7071 -0.0000 -0.7071
vn -0.3827 -0.0000 -0.9239
vn -0.0000 -0.0000 -1.0000
vn 0.9239 -0.0000 0.3827
vn -0.9239 -0.0000 0.3827
vn -0.9239 -0.0000 -0.3827
vn 0.9239 -0.0000 -0.3827
vn -0.7071 -0.0000 0.7071
vn -0.3827 -0.0000 0.9239
vn -0.7071 -0.0000 -0.7071
vn -0.3716 0.9155 -0.1539
vn -0.1539 0.9155 -0.3716
vn -0.3042 0.9027 -0.3042
vn -0.3716 0.9155 0.1539
vn -0.4303 0.9027 -0.0000
vn 0.1539 0.9155 -0.3716
vn 0.3716 0.9155 -0.1539
vn 0.3042 0.9027 -0.3042
vn -0.3042 0.9027 0.3042
vn -0.4024 0.9002 0.1667
vn -0.1667 0.9002 0.4024
vn -0.1539 0.9155 0.3716
vn 0.1539 0.9155 0.3716
vn 0.1667 0.9002 0.4024
vn 0.3042 0.9027 0.3042
vn -0.0000 0.9027 -0.4303
vn 0.3716 0.9155 0.1539
vn 0.4303 0.9027 -0.0000
vn 0.4024 0.9002 0.1667
vn -0.4024 0.9002 -0.1667
vn -0.0000 0.9027 0.4303
vn -0.1667 0.9002 -0.4024
vn 0.1667 0.9002 -0.4024
vn 0.4024 0.9002 -0.1667
vn -0.7050 0.7092 -0.0000
vn -0.2033 -0.2033 0.9578
vn 0.7094 -0.7048 -0.0000
vn 0.0022 0.0022 -1.0000
vn 0.8301 0.5577 -0.0000
vn -0.0027 0.0027 1.0000
vn 0.7044 0.7098 -0.0000
vn -0.7098 -0.7044 -0.0000
vn 0.0022 0.0022 1.0000
vn -0.0027 0.0027 -1.0000
vn -0.5577 -0.8300 -0.0000
vn 0.2033 -0.2033 0.9578
vn 0.2033 -0.2033 -0.9578
vn -0.7071 0.7071 -0.0000
vn 0.7071 0.7071 -0.0000
vn -0.7071 -0.7071 -0.0000
vn -0.8299 0.5579 -0.0000
vn 0.5576 -0.8301 -0.0000
vn -0.2032 -0.2032 -0.9578
vn 0.7071 -0.7071 -0.0000
vn -0.0000 -0.9775 0.2111
vn -0.6912 -0.6912 0.2111
vn -0.9775 -0.0000 0.2111
vn -0.0000 0.9775 0.2111
vn -0.6912 0.6912 0.2111
vn 0.6912 -0.6912 0.2111
vn 0.9775 -0.0000 0.2111
vn 0.6912 0.6912 0.2111
vn -0.0000 -0.8944 0.4472
vn -0.0000 -0.8944 -0.4472
vn -0.4472 -0.8944 -0.0000
vn 0.4472 -0.8944 -0.0000
vn -0.0000 -0.7071 -0.7071
vn 0.7072 -0.0000 -0.7070
vn -0.0000 0.7071 -0.7071
vn -0.7070 -0.0000 -0.7072
vn -0.6441 -0.0000 -0.7649
vn -0.0000 0.6441 -0.7649
vn -0.0000 -0.6441 -0.7649
vn 0.6441 -0.0000 -0.7649
vn -0.6854 -0.0000 -0.7282
vn -0.0000 0.6854 -0.7282
vn -0.0000 -0.6854 -0.7282
vn 0.6854 -0.0000 -0.7282
vn -0.8574 -0.0000 -0.5147
vn -0.0000 0.8574 -0.5147
vn -0.0000 -0.8574 -0.5147
vn 0.8574 -0.0000 -0.5147
vn -0.9624 -0.0000 0.2716
vn -0.0000 -0.7071 0.7071
vn -0.0000 0.9629 0.2699
vn -0.0000 -0.9629 0.2699
vn -0.0000 -0.3827 0.9239
vn -0.0000 0.3827 0.9239
vn 0.7072 -0.0000 0.7070
vn 0.9633 -0.0000 0.2683
vn -0.0000 0.7071 0.7071
vn -0.7070 -0.0000 0.7072
vn -0.0000 0.2374 0.9714
vn -0.0000 -0.2374 0.9714
vn -0.2377 -0.0000 0.9713
vn 0.2371 -0.0000 0.9715
vn -0.0006 -0.9999 0.0108
vn -1.0000 -0.0006 0.0097
vt 0.997175 0.333051
vt 0.997175 0.661939
vt 0.802260 0.661939
vt 0.802260 0.333333
vt 0.048028 0.410845
vt 0.353107 0.410849
vt 0.353107 0.623615
vt 0.048023 0.623615
vt 0.353107 0.410849
vt 0.048023 0.410849
vt 0.047983 0.371537
vt 0.353075 0.371543
vt 0.048023 0.406619
vt 0.048023 0.418440
vt 0.353107 0.418440
vt 0.353107 0.406619
vt 0.353107 0.371158
vt 0.353107 0.411348
vt 0.048023 0.411348
vt 0.048023 0.371158
vt 0.058369 0.419405
vt 0.058377 0.615059
vt 0.342761 0.419413
vt 0.342753 0.615051
vt 0.068731 0.606503
vt 0.332399 0.606487
vt 0.332414 0.427977
vt 0.068716 0.427960
vt 0.959566 0.013501
vt 0.916964 0.066298
vt 0.876490 0.052657
vt 0.919051 0.000000
vt 0.010856 0.050346
vt 0.053297 0.103138
vt 0.042341 0.153420
vt 0.000000 0.100691
vt 0.010856 0.949731
vt 0.053337 0.896783
vt 0.083056 0.933657
vt 0.040535 0.986565
vt 0.956737 0.845255
vt 0.999017 0.897956
vt 0.988121 0.948265
vt 0.945700 0.895503
vt 1.000000 0.100770
vt 0.957519 0.153534
vt 0.946623 0.103221
vt 0.989205 0.050385
vt 0.040515 0.013490
vt 0.082976 0.066238
vt 0.000000 0.899368
vt 0.042381 0.846491
vt 0.081029 0.000000
vt 0.123450 0.052610
vt 0.181684 0.124849
vt 0.233937 0.214469
vt 0.202251 0.225181
vt 0.140888 0.138150
vt 0.958442 0.985128
vt 0.916021 0.932409
vt 0.917947 0.998668
vt 0.875567 0.946086
vt 0.081069 1.000000
vt 0.123530 0.947234
vt 0.248605 0.308915
vt 0.181182 0.251352
vt 0.111149 0.175102
vt 0.172553 0.290738
vt 0.100454 0.225805
vt 0.233937 0.785177
vt 0.181743 0.874884
vt 0.140928 0.861642
vt 0.202251 0.774510
vt 0.248565 0.690700
vt 0.111169 0.824717
vt 0.181202 0.748372
vt 0.100473 0.774004
vt 0.172573 0.708986
vt 0.817374 0.873884
vt 0.765181 0.784340
vt 0.796886 0.773587
vt 0.858149 0.860531
vt 0.750512 0.689894
vt 0.817956 0.747380
vt 0.887888 0.823572
vt 0.826604 0.708006
vt 0.898644 0.772909
vt 0.765822 0.214476
vt 0.818157 0.124865
vt 0.858952 0.138176
vt 0.797528 0.225191
vt 0.751114 0.308908
vt 0.888671 0.175154
vt 0.818558 0.251362
vt 0.899306 0.225892
vt 0.827106 0.290762
vt 0.497839 0.610084
vt 0.478118 0.626588
vt 0.450228 0.626588
vt 0.430507 0.610084
vt 0.430507 0.586744
vt 0.450228 0.570240
vt 0.478118 0.570240
vt 0.497839 0.586744
vt 0.475024 0.631679
vt 0.475086 0.646282
vt 0.489842 0.646282
vt 0.489842 0.631679
vt 0.504659 0.646282
vt 0.504659 0.631679
vt 0.534295 0.646282
vt 0.534295 0.631679
vt 0.519477 0.631679
vt 0.519477 0.646282
vt 0.593504 0.646282
vt 0.593566 0.631679
vt 0.578749 0.631679
vt 0.578748 0.646282
vt 0.563931 0.631679
vt 0.563931 0.646282
vt 0.549113 0.646282
vt 0.549113 0.631679
vt 0.500350 0.610251
vt 0.479158 0.627986
vt 0.449188 0.627986
vt 0.427996 0.610251
vt 0.427996 0.585170
vt 0.449188 0.567435
vt 0.479158 0.567435
vt 0.500350 0.585170
vt 0.583526 0.478073
vt 0.583526 0.481891
vt 0.608364 0.481891
vt 0.608364 0.478073
vt 0.483051 0.486998
vt 0.508475 0.486998
vt 0.508475 0.482269
vt 0.483051 0.482269
vt 0.533898 0.486998
vt 0.559322 0.486998
vt 0.559322 0.482269
vt 0.533898 0.482269
vt 0.607345 0.486998
vt 0.632768 0.486998
vt 0.632768 0.482269
vt 0.607345 0.482269
vt 0.435028 0.486998
vt 0.460452 0.486998
vt 0.460452 0.482269
vt 0.435028 0.482269
vt 0.584746 0.486998
vt 0.584746 0.482269
vt 0.459338 0.478073
vt 0.459338 0.481891
vt 0.484176 0.481891
vt 0.484176 0.478073
vt 0.633202 0.481891
vt 0.633202 0.478073
vt 0.608364 0.478073
vt 0.608364 0.481891
vt 0.633202 0.481891
vt 0.633202 0.478073
vt 0.533851 0.478073
vt 0.533851 0.481891
vt 0.558689 0.481891
vt 0.558689 0.478073
vt 0.509014 0.478073
vt 0.509014 0.481891
vt 0.533851 0.481891
vt 0.533851 0.478073
vt 0.558689 0.481891
vt 0.558689 0.478073
vt 0.509013 0.478073
vt 0.509013 0.481891
vt 0.434501 0.478073
vt 0.434501 0.481891
vt 0.583526 0.481891
vt 0.583526 0.478073
vt 0.462026 0.413582
vt 0.474122 0.428726
vt 0.439568 0.437102
vt 0.466267 0.395716
vt 0.430512 0.399057
vt 0.495471 0.432277
vt 0.513568 0.422154
vt 0.523575 0.451074
vt 0.456259 0.366795
vt 0.439525 0.380768
vt 0.478086 0.359201
vt 0.484363 0.385593
vt 0.505712 0.389144
vt 0.523571 0.366767
vt 0.540267 0.380768
vt 0.478113 0.458647
vt 0.517809 0.404287
vt 0.549323 0.418813
vt 0.549344 0.399031
vt 0.430490 0.418839
vt 0.501722 0.359223
vt 0.456264 0.451103
vt 0.516949 0.468085
vt 0.516949 0.477541
vt 0.531073 0.477541
vt 0.531073 0.468085
vt 0.505650 0.468085
vt 0.505650 0.477541
vt 0.435028 0.468085
vt 0.435028 0.477541
vt 0.449153 0.477541
vt 0.449153 0.468085
vt 0.571173 0.460104
vt 0.557220 0.460104
vt 0.547353 0.451847
vt 0.547353 0.440169
vt 0.557220 0.431912
vt 0.571173 0.431912
vt 0.581040 0.440169
vt 0.581040 0.451847
vt 0.477401 0.468085
vt 0.477401 0.477541
vt 0.491525 0.477541
vt 0.491525 0.468085
vt 0.463277 0.477541
vt 0.463277 0.468085
vt 0.545198 0.477541
vt 0.545198 0.468085
vt 0.501749 0.458669
vt 0.540310 0.437102
vt 0.680128 0.504143
vt 0.680128 0.509629
vt 0.443375 0.509003
vt 0.443375 0.504755
vt 0.664184 0.522375
vt 0.664184 0.525152
vt 0.659769 0.525847
vt 0.659769 0.521681
vt 0.680128 0.516001
vt 0.680128 0.510515
vt 0.443375 0.511126
vt 0.443375 0.515374
vt 0.680234 0.496594
vt 0.680234 0.500610
vt 0.443481 0.500022
vt 0.443481 0.497245
vt 0.678514 0.537280
vt 0.678514 0.533032
vt 0.674206 0.531971
vt 0.674206 0.538342
vt 0.638668 0.523366
vt 0.638668 0.519351
vt 0.444192 0.519966
vt 0.444192 0.522743
vt 0.638615 0.535939
vt 0.638615 0.530453
vt 0.444139 0.531079
vt 0.444139 0.535327
vt 0.638615 0.530453
vt 0.638615 0.535939
vt 0.443481 0.493078
vt 0.680234 0.492490
vt 0.680234 0.496505
vt 0.443481 0.495855
vt 0.444192 0.526909
vt 0.638668 0.527524
vt 0.638668 0.523508
vt 0.444192 0.524132
vt 0.674153 0.525391
vt 0.674153 0.521225
vt 0.669925 0.521225
vt 0.669925 0.525391
vt 0.674206 0.538342
vt 0.674206 0.531971
vt 0.678567 0.524696
vt 0.678567 0.521919
vt 0.678567 0.528862
vt 0.678567 0.526085
vt 0.674153 0.525391
vt 0.674153 0.529557
vt 0.661499 0.531467
vt 0.669112 0.531467
vt 0.669112 0.535633
vt 0.661499 0.535633
vt 0.669926 0.525391
vt 0.669926 0.529557
vt 0.669978 0.531971
vt 0.669978 0.538342
vt 0.669978 0.538342
vt 0.669978 0.531971
vt 0.655542 0.525847
vt 0.655542 0.521681
vt 0.654313 0.524286
vt 0.654313 0.528534
vt 0.650004 0.529596
vt 0.650004 0.523224
vt 0.654313 0.534906
vt 0.654313 0.530658
vt 0.650004 0.529596
vt 0.650004 0.535968
vt 0.664184 0.526542
vt 0.664184 0.529319
vt 0.659769 0.530013
vt 0.653885 0.535633
vt 0.653885 0.531467
vt 0.645776 0.529596
vt 0.645776 0.523224
vt 0.645776 0.535968
vt 0.655542 0.530013
vt 0.655542 0.525847
vt 0.683545 0.529555
vt 0.683545 0.536279
vt 0.679529 0.536279
vt 0.679529 0.529555
vt 0.682784 0.535373
vt 0.655015 0.535373
vt 0.655015 0.532012
vt 0.659454 0.528297
vt 0.678345 0.528297
vt 0.682784 0.532012
vt 0.654361 0.536279
vt 0.654361 0.529555
vt 0.673251 0.529555
vt 0.673251 0.536279
vt 0.659454 0.528297
vt 0.644067 0.536279
vt 0.644067 0.529555
vt 0.648083 0.529555
vt 0.648083 0.536279
vt 0.483538 0.601525
vt 0.472260 0.610964
vt 0.456309 0.610964
vt 0.445031 0.601525
vt 0.445031 0.588177
vt 0.456309 0.578738
vt 0.472260 0.578738
vt 0.483538 0.588177
vt 0.508775 0.610135
vt 0.508837 0.621761
vt 0.523593 0.621761
vt 0.523593 0.610135
vt 0.538410 0.621761
vt 0.538410 0.610135
vt 0.568046 0.621761
vt 0.568046 0.610135
vt 0.553228 0.610135
vt 0.553228 0.621761
vt 0.627255 0.621761
vt 0.627317 0.610135
vt 0.612499 0.610135
vt 0.612499 0.621761
vt 0.597681 0.610135
vt 0.597681 0.621761
vt 0.582864 0.621761
vt 0.582864 0.610135
vt 0.773798 0.363000
vt 0.796875 0.363000
vt 0.773798 0.375875
vt 0.796875 0.485250
vt 0.781490 0.498125
vt 0.773798 0.485250
vt 0.773798 0.364812
vt 0.796875 0.351937
vt 0.773798 0.351937
vt 0.958984 0.350417
vt 0.958984 0.363292
vt 0.943600 0.363292
vt 0.943600 0.350417
vt 0.943600 0.548750
vt 0.958984 0.548750
vt 0.958984 0.563145
vt 0.943600 0.563145
vt 0.781490 0.517500
vt 0.796875 0.543250
vt 0.773798 0.530375
vt 0.773798 0.351937
vt 0.773798 0.364812
vt 0.943600 0.363292
vt 0.943600 0.350417
vt 0.958984 0.350417
vt 0.958984 0.363292
vt 0.773798 0.543250
vt 0.781490 0.388750
vt 0.943600 0.405605
vt 0.958984 0.405605
vt 0.958984 0.420000
vt 0.943600 0.420000
vt 0.796875 0.639750
vt 0.773798 0.639750
vt 0.781490 0.626875
vt 0.943600 0.425500
vt 0.958984 0.438375
vt 0.958984 0.592875
vt 0.943600 0.605750
vt 0.796875 0.363000
vt 0.781490 0.388750
vt 0.773798 0.375875
vt 0.773798 0.530375
vt 0.796875 0.543250
vt 0.773798 0.543250
vt 0.773798 0.648063
vt 0.796875 0.648063
vt 0.773798 0.635188
vt 0.958984 0.636707
vt 0.958984 0.649583
vt 0.943600 0.649583
vt 0.943600 0.636707
vt 0.773798 0.363000
vt 0.943599 0.548750
vt 0.958984 0.548750
vt 0.958984 0.563145
vt 0.943599 0.563145
vt 0.781490 0.626875
vt 0.796875 0.639750
vt 0.773798 0.635188
vt 0.796875 0.648063
vt 0.773798 0.648063
vt 0.943600 0.649583
vt 0.943600 0.636707
vt 0.958984 0.636707
vt 0.773798 0.485250
vt 0.796875 0.485250
vt 0.781490 0.498125
vt 0.943599 0.405605
vt 0.958984 0.405605
vt 0.958984 0.420000
vt 0.943599 0.420000
vt 0.781490 0.517500
vt 0.958984 0.438375
vt 0.943599 0.425500
vt 0.943599 0.605751
vt 0.958984 0.592876
vt 0.781490 0.622313
vt 0.796875 0.635188
vt 0.796875 0.364812
vt 0.781490 0.377687
vt 0.781490 0.622313
vt 0.781490 0.622313
vt 0.796875 0.635188
vt 0.773798 0.635188
vt 0.943600 0.622313
vt 0.958984 0.622313
vt 0.796875 0.364812
vt 0.781490 0.377687
vt 0.773798 0.364812
vt 0.943600 0.377687
vt 0.958984 0.377687
vt 0.958984 0.635188
vt 0.958984 0.364812
vt 0.943600 0.351937
vt 0.943599 0.648063
vt 0.781490 0.377687
vt 0.773798 0.635188
vt 0.781490 0.622313
vt 0.943600 0.622313
vt 0.958984 0.622313
vt 0.781490 0.377687
vt 0.943600 0.377687
vt 0.958984 0.377687
vt 0.943600 0.648063
vt 0.943600 0.351937
vt 0.958984 0.364812
vt 0.958984 0.635188
vt 0.773798 0.364812
vt 0.774011 0.354610
vt 0.788136 0.340426
vt 0.788136 0.659574
vt 0.774011 0.647754
vt 0.406780 0.340426
vt 0.401130 0.335697
vt 0.793785 0.335697
vt 0.406780 0.659574
vt 0.401130 0.664303
vt 0.793785 0.664303
vt 0.423729 0.354610
vt 0.423729 0.647754
vt 0.774011 0.652482
vt 0.423729 0.652482
vt 0.541466 0.786393
vt 0.656274 0.786393
vt 0.656274 0.882638
vt 0.541466 0.882638
vt 0.737339 0.950423
vt 0.737339 0.718608
vt 0.774011 0.687943
vt 0.774011 0.981087
vt 0.460401 0.950423
vt 0.423729 0.981087
vt 0.460401 0.718608
vt 0.423729 0.687943
vt 0.686194 0.907657
vt 0.686194 0.761374
vt 0.511546 0.907657
vt 0.511546 0.761374
vt 0.670445 0.894488
vt 0.670445 0.774543
vt 0.527295 0.894488
vt 0.527295 0.774543
vt 0.386650 0.989976
vt 0.386650 0.676859
vt 0.388403 0.675391
vt 0.388403 0.991444
vt 0.392639 0.671847
vt 0.005989 0.671847
vt 0.000000 0.666835
vt 0.398628 0.666835
vt 0.011955 0.676839
vt 0.010223 0.675391
vt 0.010223 0.991444
vt 0.011955 0.989996
vt 0.392639 0.994988
vt 0.005989 0.994988
vt 0.398628 1.000000
vt 0.000000 1.000000
vt 0.377160 0.684818
vt 0.021469 0.684818
vt 0.021469 0.982017
vt 0.377160 0.982017
vt 0.403956 0.703140
vt 0.404171 0.965199
vt 0.420904 0.964539
vt 0.420904 0.702128
vt 0.403956 0.963525
vt 0.404192 0.701466
vt 0.420904 0.924350
vt 0.404161 0.701455
vt 0.404201 0.965209
s 1
usemtl tvs_mp_1
f 322/1/1 368/2/1 404/3/1 2/4/1
f 321/4/2 1/1/2 404/2/2 368/3/2
f 367/1/3 403/4/3 1/3/3 321/2/3
f 322/3/4 2/2/4 403/1/4 367/4/4
f 4/5/5 7/6/5 5/7/5 3/8/5
f 7/9/6 4/10/6 10/11/6 6/12/6
f 16/13/7 12/14/7 13/15/7 15/16/7
f 14/17/6 16/18/6 15/19/6 11/20/6
f 21/21/8 22/22/8 8/8/8 4/10/8
f 23/23/9 21/21/9 4/10/9 7/9/9
f 24/24/10 23/23/10 7/9/10 9/7/10
f 22/22/11 24/24/11 9/7/11 8/8/11
f 17/25/12 20/26/12 24/24/12 22/22/12
f 20/26/13 19/27/13 23/23/13 24/24/13
f 19/27/14 18/28/14 21/21/14 23/23/14
f 18/28/10 17/25/10 22/22/10 21/21/10
f 99/97/6 100/98/6 101/99/6 103/100/6 102/101/6 95/102/6 93/103/6 94/104/6
f 104/105/83 99/106/83 94/107/84 96/108/84
f 96/108/84 94/107/84 93/109/85 97/110/85
f 102/111/86 106/112/86 98/113/87 95/114/87
f 95/114/87 98/113/87 97/110/85 93/109/85
f 99/115/83 104/116/83 105/117/88 100/118/88
f 100/118/88 105/117/88 107/119/89 101/120/89
f 106/112/86 102/111/86 103/121/90 108/122/90
f 108/122/90 103/121/90 101/120/89 107/119/89
f 115/123/6 116/124/6 117/125/6 119/126/6 118/127/6 111/128/6 109/129/6 110/130/6
f 120/105/91 115/106/91 110/107/92 112/108/92
f 112/108/92 110/107/92 109/109/93 113/110/93
f 118/111/94 122/112/94 114/113/95 111/114/95
f 111/114/95 114/113/95 113/110/93 109/109/93
f 115/115/91 120/116/91 121/117/96 116/118/96
f 116/118/96 121/117/96 123/119/97 117/120/97
f 122/112/94 118/111/94 119/121/98 124/122/98
f 124/122/98 119/121/98 117/120/97 123/119/97
f 131/97/6 132/98/6 133/99/6 135/100/6 134/101/6 127/102/6 125/103/6 126/104/6
f 136/105/91 131/106/91 126/107/92 128/108/92
f 128/108/92 126/107/92 125/109/93 129/110/93
f 134/111/94 138/112/94 130/113/95 127/114/95
f 127/114/95 130/113/95 129/110/93 125/109/93
f 131/115/91 136/116/91 137/117/96 132/118/96
f 132/118/96 137/117/96 139/119/97 133/120/97
f 138/112/94 134/111/94 135/121/98 140/122/98
f 140/122/98 135/121/98 133/120/97 139/119/97
f 147/97/6 148/98/6 149/99/6 151/100/6 150/101/6 143/102/6 141/103/6 142/104/6
f 152/105/83 147/106/83 142/107/84 144/108/84
f 144/108/84 142/107/84 141/109/85 145/110/85
f 150/111/86 154/112/86 146/113/87 143/114/87
f 143/114/87 146/113/87 145/110/85 141/109/85
f 147/115/83 152/116/83 153/117/88 148/118/88
f 148/118/88 153/117/88 155/119/89 149/120/89
f 154/112/86 150/111/86 151/121/90 156/122/90
f 156/122/90 151/121/90 149/120/89 155/119/89
f 187/131/99 171/132/99 172/133/100 188/134/100
f 162/135/2 163/136/2 176/137/2 175/138/2
f 202/139/2 203/140/2 178/141/2 177/142/2
f 196/143/2 157/144/2 165/145/2 164/146/2
f 157/147/2 197/148/2 166/149/2 165/150/2
f 197/148/2 158/135/2 167/138/2 166/149/2
f 158/135/2 198/136/2 168/137/2 167/138/2
f 198/136/2 199/139/2 169/142/2 168/137/2
f 199/139/2 200/140/2 170/141/2 169/142/2
f 200/140/2 201/151/2 171/152/2 170/141/2
f 201/151/2 159/143/2 172/146/2 171/152/2
f 159/143/2 160/144/2 173/145/2 172/146/2
f 160/147/2 161/148/2 174/149/2 173/150/2
f 161/148/2 162/135/2 175/138/2 174/149/2
f 204/151/2 196/143/2 164/146/2 179/152/2
f 163/136/2 202/139/2 177/142/2 176/137/2
f 203/140/2 204/151/2 179/152/2 178/141/2
f 182/153/101 166/154/101 167/155/102 183/156/102
f 188/134/100 172/133/100 173/157/6 189/158/6
f 180/159/103 164/160/103 165/161/104 181/162/104
f 185/163/1 169/164/1 170/165/105 186/166/105
f 192/167/106 176/168/106 177/169/3 193/170/3
f 186/166/105 170/165/105 171/132/99 187/131/99
f 193/170/3 177/169/3 178/171/107 194/172/107
f 184/173/108 168/174/108 169/164/1 185/163/1
f 191/156/109 175/155/109 176/168/106 192/167/106
f 190/153/110 174/154/110 175/155/109 191/156/109
f 183/156/102 167/155/102 168/174/108 184/173/108
f 189/175/6 173/176/6 174/154/110 190/153/110
f 194/172/107 178/171/107 179/177/111 195/178/111
f 195/178/111 179/177/111 164/160/103 180/159/103
f 181/175/104 165/176/104 166/154/101 182/153/101
f 212/179/112 205/180/113 204/181/114
f 211/182/115 212/179/112 202/183/116
f 206/184/117 207/185/118 158/186/119
f 162/187/120 211/182/115 163/188/121
f 162/187/120 161/189/122 210/190/123
f 209/191/124 159/192/125 201/193/126
f 205/180/113 206/184/117 157/194/127
f 207/185/118 208/195/128 199/196/129
f 201/193/126 200/197/130 208/195/128
f 210/190/123 211/182/115 162/187/120
f 204/181/114 203/198/131 212/179/112
f 160/199/132 159/192/125 209/191/124
f 208/195/128 209/191/124 201/193/126
f 210/190/123 161/189/122 160/199/132
f 205/180/2 212/179/2 211/182/2 210/190/2 209/191/2
f 204/181/114 205/180/113 196/200/133
f 223/201/106 226/202/106 225/203/107 224/204/107
f 222/205/110 216/206/110 226/202/106 223/201/106
f 217/207/103 213/208/103 214/209/101 218/210/101
f 227/211/2 228/212/2 214/213/2 213/214/2 225/215/2 226/216/2 216/217/2 215/218/2
f 220/219/105 227/220/105 215/221/100 221/222/100
f 221/222/100 215/221/100 216/206/110 222/205/110
f 214/209/101 228/223/108 219/224/108 218/210/101
f 228/223/108 227/220/105 220/219/105 219/224/108
f 224/204/107 225/203/107 213/225/103 217/226/103
f 209/191/124 210/190/123 160/199/132
f 202/183/116 163/188/121 211/182/115
f 202/183/116 212/179/112 203/198/131
f 157/194/127 206/184/117 197/227/134
f 157/194/127 196/200/133 205/180/113
f 199/196/129 208/195/128 200/197/130
f 199/196/129 198/228/135 207/185/118
f 158/186/119 207/185/118 198/228/135
f 158/186/119 197/227/134 206/184/117
f 206/184/2 205/180/2 209/191/2 208/195/2 207/185/2
f 244/229/136 242/230/136 229/231/136 232/232/136
f 229/233/137 230/234/137 254/235/137 253/236/137
f 241/237/138 243/238/138 231/239/138 230/240/138
f 243/241/139 244/242/139 232/243/139 231/244/139
f 236/245/140 233/246/140 245/247/140 248/248/140
f 239/249/141 240/250/141 236/251/141 235/252/141
f 240/253/142 238/254/142 233/255/142 236/256/142
f 237/257/143 239/258/143 235/256/143 234/255/143
f 229/259/144 242/260/144 241/261/144 230/262/144
f 233/263/145 238/264/145 237/265/145 234/266/145
f 247/267/6 248/268/6 252/269/6 251/270/6
f 234/246/146 235/245/146 247/271/146 246/272/146
f 235/273/147 236/274/147 248/268/147 247/267/147
f 233/275/148 234/276/148 246/277/148 245/278/148
f 250/279/149 251/280/149 252/281/149 249/282/149
f 245/278/104 246/277/104 250/283/104 249/284/104
f 248/248/150 245/247/150 249/285/150 252/286/150
f 246/272/151 247/271/151 251/287/151 250/288/151
f 253/236/6 254/235/6 258/289/6 257/290/6
f 232/291/152 229/292/152 253/293/152 256/294/152
f 230/295/153 231/296/153 255/297/153 254/298/153
f 231/299/154 232/300/154 256/301/154 255/235/154
f 258/282/150 259/302/150 260/303/150 257/279/150
f 256/294/149 253/293/149 257/304/149 260/305/149
f 254/298/155 255/297/155 259/304/155 258/306/155
f 255/235/104 256/301/104 260/307/104 259/308/104
f 262/309/1 261/310/1 271/311/1 270/312/1
f 261/313/104 264/314/104 266/315/104 265/316/104 272/317/104 271/318/104
f 265/319/2 268/320/2 269/321/2 272/322/2
f 263/313/6 262/314/6 270/315/6 269/323/6 268/317/6 267/318/6
f 264/324/3 263/325/3 267/326/3 266/327/3
f 266/327/149 267/326/149 268/320/149 265/319/149
f 270/312/150 271/311/150 272/322/150 269/321/150
f 279/328/6 280/329/6 281/330/6 283/331/6 282/332/6 275/333/6 273/334/6 274/335/6
f 284/336/156 279/337/156 274/338/157 276/339/157
f 276/339/157 274/338/157 273/340/158 277/341/158
f 282/342/159 286/343/159 278/344/160 275/345/160
f 275/345/160 278/344/160 277/341/158 273/340/158
f 279/346/156 284/347/156 285/348/161 280/349/161
f 280/349/161 285/348/161 287/350/162 281/351/162
f 286/343/159 282/342/159 283/352/163 288/353/163
f 288/353/163 283/352/163 281/351/162 287/350/162
f 295/328/6 296/329/6 297/330/6 299/331/6 298/332/6 291/333/6 289/334/6 290/335/6
f 300/336/156 295/337/156 290/338/157 292/339/157
f 292/339/157 290/338/157 289/340/158 293/341/158
f 298/342/159 302/343/159 294/344/160 291/345/160
f 291/345/160 294/344/160 293/341/158 289/340/158
f 295/346/156 300/347/156 301/348/161 296/349/161
f 296/349/161 301/348/161 303/350/162 297/351/162
f 302/343/159 298/342/159 299/352/163 304/353/163
f 304/353/163 299/352/163 297/351/162 303/350/162
f 311/328/6 312/329/6 313/330/6 315/331/6 314/332/6 307/333/6 305/334/6 306/335/6
f 316/336/156 311/337/156 306/338/157 308/339/157
f 308/339/157 306/338/157 305/340/158 309/341/158
f 314/342/159 318/343/159 310/344/160 307/345/160
f 307/345/160 310/344/160 309/341/158 305/340/158
f 311/346/156 316/347/156 317/348/161 312/349/161
f 312/349/161 317/348/161 319/350/162 313/351/162
f 318/343/159 314/342/159 315/352/163 320/353/163
f 320/353/163 315/352/163 313/351/162 319/350/162
s 0
f 323/354/3 324/355/3 325/356/3
f 361/357/1 335/358/1 329/359/1
f 326/360/6 324/361/6 323/362/6
f 325/363/4 327/364/4 326/365/4 323/366/4
f 335/367/164 336/368/164 328/369/164 329/370/164
f 336/371/3 331/372/3 328/373/3
f 330/374/104 331/361/104 332/375/104
f 329/376/4 328/377/4 330/378/4 332/379/4
f 328/373/3 331/372/3 330/380/3
f 325/356/3 324/355/3 334/381/3
f 327/382/165 325/383/165 334/384/165 333/385/165
f 353/386/1 327/387/1 333/388/1
f 334/381/3 324/355/3 331/372/3 336/371/3
f 324/389/2 353/390/2 361/391/2 331/392/2
f 333/385/4 334/384/4 336/368/4 335/367/4
f 353/386/1 333/388/1 335/358/1 361/357/1
f 358/393/1 344/394/1 340/395/1
f 338/396/1 339/397/1 337/398/1
f 337/399/6 339/400/6 346/401/6
f 348/402/4 338/403/4 337/404/4 346/405/4
f 358/393/1 340/395/1 341/406/1
f 344/407/164 345/408/164 354/409/164 340/410/164
f 345/411/3 355/412/3 354/387/3
f 357/413/104 358/414/104 341/415/104
f 340/416/4 354/417/4 357/418/4 341/403/4
f 348/419/3 350/420/3 343/421/3
f 338/422/165 348/423/165 343/424/165 342/425/165
f 339/397/1 338/396/1 342/426/1
f 343/421/3 350/420/3 355/412/3 345/411/3
f 350/427/2 339/428/2 358/429/2 355/430/2
f 342/425/4 343/424/4 345/408/4 344/407/4
f 339/397/1 342/426/1 344/394/1 358/393/1
f 346/401/6 339/400/6 347/431/6
f 355/432/6 361/433/6 360/434/6 356/435/6
f 349/436/104 350/437/104 348/438/104
f 347/439/166 349/440/166 348/402/166 346/405/166
f 353/441/104 352/442/104 327/443/104
f 349/436/104 352/442/104 353/441/104 350/437/104
f 347/439/4 351/444/4 352/445/4 349/440/4
f 350/446/2 353/447/2 324/448/2 339/449/2
f 352/445/167 351/444/167 326/365/167 327/364/167
f 351/450/6 324/361/6 326/360/6
f 354/451/6 355/432/6 356/435/6
f 359/452/104 358/414/104 357/413/104
f 356/453/166 359/454/166 357/418/166 354/417/166
f 331/361/104 362/455/104 332/375/104
f 359/452/104 362/455/104 331/361/104 358/414/104
f 356/453/4 360/456/4 362/457/4 359/454/4
f 358/458/2 331/459/2 361/460/2 355/461/2
f 362/457/167 360/456/167 329/376/167 332/379/167
f 360/434/6 361/433/6 329/462/6
f 339/400/6 324/361/6 351/450/6 347/431/6
s 1
f 364/463/104 370/464/104 369/465/104 363/466/104
f 370/464/168 371/467/168 322/468/168 367/469/168
f 322/468/169 371/467/169 372/470/169 368/471/169
f 368/471/170 372/470/170 369/465/170 321/472/170
f 366/473/104 371/467/104 370/464/104 364/463/104
f 365/474/104 372/470/104 371/467/104 366/473/104
f 365/474/104 363/466/104 369/465/104 372/470/104
f 370/464/171 367/469/171 321/472/171 369/465/171
f 364/474/150 363/466/155 373/475/155 375/476/150
f 365/466/151 366/474/149 376/476/149 374/475/151
f 363/474/155 365/466/151 374/475/151 373/476/155
f 366/466/149 364/474/150 375/476/150 376/475/149
f 380/477/104 378/478/104 377/479/104 379/480/104
f 381/481/172 382/482/172 375/483/172 373/484/172
f 383/485/173 381/481/173 373/484/173 374/486/173
f 382/482/174 384/487/174 376/488/174 375/483/174
f 384/487/175 383/485/175 374/486/175 376/488/175
f 385/489/104 387/490/104 382/482/104 381/481/104
f 386/491/104 385/489/104 381/481/104 383/485/104
f 387/490/104 388/492/104 384/487/104 382/482/104
f 389/493/176 390/494/176 387/490/176 385/489/176
f 391/495/177 389/493/177 385/489/177 386/491/177
f 390/494/178 392/496/178 388/492/178 387/490/178
f 392/496/179 391/495/179 386/491/179 388/492/179
f 388/492/104 386/491/104 383/485/104 384/487/104
f 377/479/180 378/478/180 390/494/180 389/493/180
f 379/480/181 377/479/181 389/493/181 391/495/181
f 378/478/182 380/477/182 392/496/182 390/494/182
f 380/477/183 379/480/183 391/495/183 392/496/183
f 397/497/184 395/498/184 396/499/184 398/500/184
f 400/501/185 399/502/185 403/503/185 2/504/185
f 396/499/186 395/498/186 406/505/186 393/506/186
f 394/507/187 405/508/187 397/497/187 398/500/187
f 402/509/188 401/510/188 394/507/188 398/500/188
f 400/501/189 396/499/189 393/506/189 399/502/189
f 400/501/190 2/504/190 404/511/190 402/509/190
f 394/507/100 401/510/100 399/502/100 393/506/100
f 396/499/110 400/501/110 402/509/110 398/500/110
f 405/508/191 394/507/191 393/506/191 406/505/191
f 1/512/192 401/510/192 402/509/192 404/511/192
f 401/510/193 1/512/193 403/503/193 399/502/193
f 395/498/194 408/513/194 407/514/194 406/505/194
f 397/497/195 405/508/195 412/515/195 414/516/195
f 397/497/196 414/516/196 408/513/196 395/498/196
f 406/505/197 407/514/197 412/515/197 405/508/197
f 414/517/198 412/518/198 409/519/198 411/520/198
f 413/520/2 416/519/2 407/521/2 408/522/2
f 410/523/1 409/520/1 412/524/1 407/521/1 416/519/1
f 414/517/199 411/520/199 415/523/199 413/519/199 408/525/199
usemtl crt_screen_mp_1
f 36/29/15 81/30/16 78/31/17 34/32/18
f 32/33/19 74/34/20 70/35/21 30/36/22
f 27/37/23 67/38/24 65/39/25 28/40/26
f 86/41/27 38/42/28 40/43/29 90/44/30
f 33/45/31 79/46/32 83/47/33 35/48/34
f 31/49/35 76/50/36 74/34/20 32/33/19
f 25/51/37 63/52/38 67/38/24 27/37/23
f 29/53/39 71/54/40 76/50/36 31/49/35
f 72/55/41 48/56/42 50/57/43 75/58/44
f 90/44/30 40/43/29 39/59/45 92/60/46
f 35/48/34 83/47/33 81/30/16 36/29/15
f 92/60/46 39/59/45 37/61/47 87/62/48
f 25/51/37 30/36/22 70/35/21 63/52/38
f 37/61/47 26/63/49 62/64/50 87/62/48
f 78/31/17 71/54/40 29/53/39 34/32/18
f 33/45/31 38/42/28 86/41/27 79/46/32
f 47/65/51 50/57/43 48/56/42
f 75/58/44 50/57/43 49/66/52 73/67/53
f 47/65/51 49/66/52 50/57/43
f 73/67/53 49/66/52 46/68/54 69/69/55
f 47/65/51 46/68/54 49/66/52
f 41/70/56 61/71/57 66/72/58 43/73/59
f 44/74/60 41/70/56 43/73/59
f 43/73/59 66/72/58 68/75/61 45/76/62
f 44/74/60 43/73/59 45/76/62
f 45/76/62 68/75/61 64/77/63 42/78/64
f 44/74/60 45/76/62 42/78/64
f 88/79/65 58/80/66 60/81/67 91/82/68
f 57/83/69 60/81/67 58/80/66
f 91/82/68 60/81/67 59/84/70 89/85/71
f 57/83/69 59/84/70 60/81/67
f 89/85/71 59/84/70 56/86/72 85/87/73
f 57/83/69 56/86/72 59/84/70
f 51/88/74 77/89/75 82/90/76 54/91/77
f 53/92/78 51/88/74 54/91/77
f 54/91/77 82/90/76 84/93/79 55/94/80
f 53/92/78 54/91/77 55/94/80
f 55/94/80 84/93/79 80/95/81 52/96/82
f 53/92/78 55/94/80 52/96/82
f 42/78/64 64/77/63 69/69/55 46/68/54
f 47/65/51 44/74/60 42/78/64 46/68/54
f 58/80/66 88/79/65 61/71/57 41/70/56
f 44/74/60 57/83/69 58/80/66 41/70/56
f 48/56/42 72/55/41 77/89/75 51/88/74
f 52/96/82 80/95/81 85/87/73 56/86/72
f 48/56/42 51/88/74 53/92/78 47/65/51
f 52/96/82 56/86/72 57/83/69 53/92/78
f 28/40/26 65/39/25 62/64/50 26/63/49
f 76/50/36 71/54/40 72/55/41 75/58/44
f 74/34/20 76/50/36 75/58/44 73/67/53
f 70/35/21 74/34/20 73/67/53 69/69/55
f 62/64/50 65/39/25 66/72/58 61/71/57
f 65/39/25 67/38/24 68/75/61 66/72/58
f 67/38/24 63/52/38 64/77/63 68/75/61
f 92/60/46 87/62/48 88/79/65 91/82/68
f 90/44/30 92/60/46 91/82/68 89/85/71
f 86/41/27 90/44/30 89/85/71 85/87/73
f 78/31/17 81/30/16 82/90/76 77/89/75
f 81/30/16 83/47/33 84/93/79 82/90/76
f 83/47/33 79/46/32 80/95/81 84/93/79
f 69/69/55 64/77/63 63/52/38 70/35/21
f 61/71/57 88/79/65 87/62/48 62/64/50
f 77/89/75 72/55/41 71/54/40 78/31/17
f 85/87/73 80/95/81 79/46/32 86/41/27
f 44/74/60 47/65/51 53/92/78 57/83/69
