# Blender 5.0.1
# www.blender.org
mtllib tv_mp_1_2.mtl
o tv_mp_1_2
v -0.228002 0.513000 0.289993
v -0.228002 0.128421 0.292493
v 0.227415 0.512417 0.290317
v 0.227998 0.057000 0.292493
v 0.227998 0.128421 0.292493
v -0.228002 0.513000 0.292493
v 0.227415 0.512417 0.292817
v -0.228002 0.057000 0.292493
v -0.228002 0.057000 0.309993
v 0.227998 0.128421 0.289993
v -0.228002 0.128421 0.289993
v 0.227998 0.057000 0.309993
v -0.228002 0.118421 0.309993
v 0.227998 0.118421 0.309993
v -0.197085 0.482039 0.292491
v -0.197081 0.159342 0.292517
v 0.197031 0.159342 0.292495
v 0.196541 0.481535 0.292793
v -0.212541 0.143882 0.302505
v -0.212541 0.497520 0.302492
v 0.212515 0.143882 0.302494
v 0.211978 0.496976 0.302805
v -0.182757 0.438074 0.292497
v -0.153135 0.467659 0.292515
v -0.178788 0.452881 0.292498
v -0.167946 0.463709 0.292504
v -0.153153 0.173666 0.292525
v -0.182757 0.203269 0.292524
v -0.167955 0.177632 0.292526
v -0.178791 0.188467 0.292526
v 0.182640 0.203292 0.292525
v 0.153061 0.173666 0.292501
v 0.178694 0.188479 0.292512
v 0.167867 0.177635 0.292503
v 0.152667 0.467268 0.292735
v 0.182284 0.437659 0.292730
v 0.167459 0.463287 0.292742
v 0.178300 0.452449 0.292740
v -0.097274 0.404502 0.326136
v -0.119700 0.382103 0.326123
v -0.108856 0.401367 0.326144
v -0.091937 0.376727 0.328551
v -0.116550 0.393682 0.326139
v -0.119702 0.259141 0.326110
v -0.091921 0.264485 0.328528
v -0.097278 0.236719 0.326111
v -0.116553 0.247562 0.326124
v -0.108858 0.239868 0.326124
v 0.097078 0.236721 0.326135
v 0.119472 0.259148 0.326152
v 0.091699 0.264483 0.328567
v 0.108657 0.239871 0.326152
v 0.116339 0.247565 0.326158
v 0.119289 0.381815 0.326233
v 0.091473 0.376490 0.328629
v 0.096841 0.404257 0.326236
v 0.116124 0.393391 0.326253
v 0.108418 0.401095 0.326254
v -0.116348 0.430876 0.319436
v -0.137622 0.452146 0.306464
v -0.167276 0.422529 0.306446
v -0.146045 0.401218 0.319418
v -0.152412 0.448155 0.306488
v -0.131263 0.426983 0.319403
v -0.163266 0.437314 0.306481
v -0.142132 0.416127 0.319396
v -0.146050 0.240051 0.319414
v -0.167288 0.218771 0.306449
v -0.137651 0.189133 0.306450
v -0.116369 0.210371 0.319415
v -0.142140 0.225145 0.319389
v -0.163282 0.203988 0.306482
v -0.131276 0.214281 0.319390
v -0.152434 0.193140 0.306483
v 0.116198 0.210376 0.319427
v 0.137512 0.189147 0.306453
v 0.167125 0.218804 0.306475
v 0.145850 0.240077 0.319450
v 0.152297 0.193157 0.306489
v 0.131107 0.214289 0.319406
v 0.163136 0.204013 0.306497
v 0.141961 0.225160 0.319414
v 0.145609 0.400896 0.319569
v 0.166829 0.422165 0.306632
v 0.137179 0.451809 0.306636
v 0.115915 0.430582 0.319574
v 0.141680 0.415790 0.319554
v 0.162805 0.436938 0.306674
v 0.130811 0.426656 0.319555
v 0.151952 0.447788 0.306675
v -0.211512 0.086461 0.323993
v -0.206767 0.075006 0.323993
v -0.206767 0.097916 0.323993
v -0.208040 0.073733 0.309993
v -0.213312 0.086461 0.309993
v -0.208040 0.099189 0.309993
v -0.195312 0.070261 0.323993
v -0.183857 0.075006 0.323993
v -0.179112 0.086461 0.323993
v -0.195312 0.102661 0.323993
v -0.183857 0.097916 0.323993
v -0.195312 0.068461 0.309993
v -0.182584 0.073733 0.309993
v -0.195312 0.104461 0.309993
v -0.177312 0.086461 0.309993
v -0.182584 0.099189 0.309993
v 0.033562 0.087241 0.323993
v 0.039255 0.073495 0.323993
v 0.039255 0.100987 0.323993
v 0.037728 0.071968 0.309993
v 0.031402 0.087241 0.309993
v 0.037728 0.102515 0.309993
v 0.053002 0.067801 0.323993
v 0.066748 0.073495 0.323993
v 0.072442 0.087241 0.323993
v 0.053002 0.106681 0.323993
v 0.066748 0.100987 0.323993
v 0.053002 0.065641 0.309993
v 0.068275 0.071968 0.309993
v 0.053002 0.108841 0.309993
v 0.074602 0.087241 0.309993
v 0.068275 0.102515 0.309993
v 0.164214 0.087241 0.323993
v 0.169908 0.073495 0.323993
v 0.169908 0.100987 0.323993
v 0.168381 0.071968 0.309993
v 0.162054 0.087241 0.309993
v 0.168381 0.102515 0.309993
v 0.183654 0.067801 0.323993
v 0.197400 0.073495 0.323993
v 0.203094 0.087241 0.323993
v 0.183654 0.106681 0.323993
v 0.197400 0.100987 0.323993
v 0.183654 0.065641 0.309993
v 0.198928 0.071968 0.309993
v 0.183654 0.108841 0.309993
v 0.205254 0.087241 0.309993
v 0.198928 0.102515 0.309993
v -0.163750 0.086461 0.323993
v -0.159005 0.075006 0.323993
v -0.159005 0.097916 0.323993
v -0.160278 0.073733 0.309993
v -0.165550 0.086461 0.309993
v -0.160278 0.099189 0.309993
v -0.147550 0.070261 0.323993
v -0.136095 0.075006 0.323993
v -0.131350 0.086461 0.323993
v -0.147550 0.102661 0.323993
v -0.136095 0.097916 0.323993
v -0.147550 0.068461 0.309993
v -0.134822 0.073733 0.309993
v -0.147550 0.104461 0.309993
v -0.129550 0.086461 0.309993
v -0.134822 0.099189 0.309993
v 0.081226 0.087241 0.313993
v 0.083504 0.081743 0.313993
v 0.083504 0.092740 0.313993
v 0.082893 0.081132 0.309993
v 0.080362 0.087241 0.309993
v 0.082893 0.093351 0.309993
v 0.089002 0.079465 0.313993
v 0.094501 0.081743 0.313993
v 0.096778 0.087241 0.313993
v 0.089002 0.095017 0.313993
v 0.094501 0.092740 0.313993
v 0.089002 0.078601 0.309993
v 0.095112 0.081132 0.309993
v 0.089002 0.095881 0.309993
v 0.097642 0.087241 0.309993
v 0.095112 0.093351 0.309993
v 0.112629 0.087241 0.313993
v 0.114906 0.081743 0.313993
v 0.114906 0.092740 0.313993
v 0.114295 0.081132 0.309993
v 0.111765 0.087241 0.309993
v 0.114295 0.093351 0.309993
v 0.120405 0.079465 0.313993
v 0.125903 0.081743 0.313993
v 0.128181 0.087241 0.313993
v 0.120405 0.095017 0.313993
v 0.125903 0.092740 0.313993
v 0.120405 0.078601 0.309993
v 0.126514 0.081132 0.309993
v 0.120405 0.095881 0.309993
v 0.129045 0.087241 0.309993
v 0.126514 0.093351 0.309993
v 0.141629 0.087241 0.313993
v 0.143906 0.081743 0.313993
v 0.143906 0.092740 0.313993
v 0.143295 0.081132 0.309993
v 0.140765 0.087241 0.309993
v 0.143295 0.093351 0.309993
v 0.149405 0.079465 0.313993
v 0.154903 0.081743 0.313993
v 0.157181 0.087241 0.313993
v 0.149405 0.095017 0.313993
v 0.154903 0.092740 0.313993
v 0.149405 0.078601 0.309993
v 0.155514 0.081132 0.309993
v 0.149405 0.095881 0.309993
v 0.158045 0.087241 0.309993
v 0.155514 0.093351 0.309993
v -0.000730 0.545845 0.095290
v 0.048179 0.545845 0.115549
v 0.025739 0.545845 0.228360
v -0.000730 0.545845 0.233625
v -0.027199 0.545845 0.228360
v -0.049639 0.545845 0.213367
v -0.064633 0.545845 0.190927
v -0.029528 0.545845 0.094934
v -0.000730 0.545845 0.089206
v 0.028068 0.545845 0.094934
v 0.052481 0.545845 0.111246
v 0.068794 0.545845 0.135660
v 0.074522 0.545845 0.164458
v 0.068794 0.545845 0.193255
v 0.052481 0.545845 0.217669
v 0.028068 0.545845 0.233981
v -0.000730 0.545845 0.239710
v -0.029528 0.545845 0.233981
v -0.053941 0.545845 0.217669
v -0.070254 0.545845 0.193255
v -0.075982 0.545845 0.164458
v -0.070254 0.545845 0.135660
v -0.053941 0.545845 0.111246
v -0.029528 0.540001 0.094934
v -0.000730 0.540001 0.089206
v 0.028068 0.540001 0.094934
v 0.052481 0.540001 0.111246
v 0.068794 0.540001 0.135660
v 0.074522 0.540001 0.164458
v 0.068794 0.540001 0.193255
v 0.052481 0.540001 0.217669
v 0.028068 0.540001 0.233981
v -0.000730 0.540001 0.239710
v -0.029528 0.540001 0.233981
v -0.053941 0.540001 0.217669
v -0.070254 0.540001 0.193255
v -0.075982 0.540001 0.164458
v -0.070254 0.540001 0.135660
v -0.053941 0.540001 0.111246
v -0.027199 0.545845 0.100555
v 0.025739 0.545845 0.100555
v 0.063173 0.545845 0.137988
v 0.068438 0.545845 0.164458
v 0.063173 0.545845 0.190927
v 0.048179 0.545845 0.213367
v -0.069898 0.545845 0.164458
v -0.064632 0.545845 0.137988
v -0.049639 0.545845 0.115549
v -0.013676 0.562943 0.133203
v 0.012216 0.562943 0.133203
v 0.030525 0.562943 0.151511
v 0.030525 0.562943 0.177404
v 0.012216 0.562943 0.195713
v -0.013676 0.562943 0.195713
v -0.031985 0.562943 0.177404
v -0.031985 0.562943 0.151511
v -0.008173 0.574717 0.145260
v 0.008329 0.574717 0.145260
v 0.008329 0.574717 0.185101
v -0.008173 0.574717 0.185101
v -0.008173 0.562943 0.145260
v 0.008329 0.562943 0.145260
v 0.019999 0.562943 0.156929
v 0.019999 0.562943 0.173432
v 0.008329 0.562943 0.185101
v -0.008173 0.562943 0.185101
v -0.019842 0.562943 0.173432
v -0.019842 0.562943 0.156929
v -0.019842 0.574717 0.156929
v -0.019842 0.574717 0.173432
v 0.019999 0.574717 0.173432
v 0.019999 0.574717 0.156929
v 0.210442 0.781501 0.168172
v 0.213217 0.778726 0.168172
v 0.213217 0.778726 0.162169
v 0.210442 0.781501 0.162169
v -0.174964 0.746117 0.162189
v -0.177739 0.743342 0.162189
v -0.177739 0.743342 0.168192
v -0.174964 0.746117 0.168192
v -0.015727 0.580086 0.161304
v -0.011714 0.584098 0.161304
v -0.015727 0.580086 0.169057
v -0.011714 0.584098 0.169057
v 0.015877 0.580086 0.169057
v 0.011865 0.584098 0.169057
v 0.015877 0.580086 0.161304
v 0.011865 0.584098 0.161304
v -0.177805 0.750347 0.160688
v -0.181968 0.746184 0.160688
v -0.181968 0.746184 0.169693
v -0.177805 0.750347 0.169693
v -0.181341 0.753882 0.160688
v -0.185504 0.749720 0.160688
v -0.185504 0.749720 0.169693
v -0.181341 0.753882 0.169693
v 0.213285 0.785730 0.169673
v 0.217448 0.781567 0.169673
v 0.217448 0.781567 0.160669
v 0.213285 0.785730 0.160669
v 0.216820 0.789266 0.169673
v 0.220983 0.785103 0.169673
v 0.220983 0.785103 0.160669
v 0.216820 0.789266 0.160669
v 0.016496 0.574717 0.160429
v 0.016496 0.574717 0.169932
v -0.016345 0.574717 0.169932
v -0.016345 0.574717 0.160429
v -0.011095 0.584717 0.160429
v -0.016345 0.579467 0.160429
v -0.016345 0.579467 0.169932
v -0.011095 0.584717 0.169932
v 0.011246 0.584717 0.169932
v 0.016496 0.579467 0.169932
v 0.016496 0.579467 0.160429
v 0.011246 0.584717 0.160429
v -0.255003 0.540000 0.007508
v 0.254997 0.030000 0.007508
v -0.229999 0.000000 0.304999
v -0.229999 0.030000 0.304999
v -0.229999 0.000000 0.284999
v -0.209999 0.000000 0.304999
v -0.209999 0.000000 0.284999
v -0.229999 0.000000 0.044999
v -0.209999 0.000000 0.044999
v -0.229999 0.000000 0.024999
v -0.229999 0.030000 0.024999
v -0.209999 0.000000 0.024999
v -0.209999 0.010000 0.264999
v -0.229999 0.010000 0.264999
v -0.209999 0.010000 0.064999
v -0.229999 0.010000 0.064999
v 0.230001 0.000000 0.304999
v 0.230001 0.000000 0.284999
v 0.230001 0.030000 0.305000
v 0.230001 0.000000 0.044999
v 0.230001 0.000000 0.024999
v 0.230001 0.010000 0.264999
v 0.210001 0.010000 0.264999
v 0.230001 0.010000 0.064999
v 0.210001 0.010000 0.064999
v 0.210001 0.000000 0.304999
v 0.190001 0.010000 0.304999
v 0.210001 0.000000 0.284999
v 0.190001 0.010000 0.284999
v 0.210001 0.030000 0.284999
v -0.189999 0.010000 0.304999
v -0.189999 0.010000 0.284999
v -0.210000 0.030000 0.284999
v 0.210001 0.000000 0.044999
v 0.210001 0.030000 0.044999
v 0.190001 0.010000 0.044999
v 0.210001 0.000000 0.024999
v 0.230001 0.030000 0.024999
v 0.190001 0.010000 0.024999
v -0.189999 0.010000 0.044999
v -0.210000 0.030000 0.044999
v -0.189999 0.010000 0.024999
v -0.228874 0.513985 -0.000006
v -0.228874 0.059899 -0.000006
v 0.224831 0.513985 -0.000006
v 0.224831 0.059899 -0.000007
v -0.255003 0.030000 0.007508
v 0.254997 0.540000 0.007508
v -0.247488 0.532485 -0.000007
v -0.247488 0.037515 -0.000007
v 0.247482 0.037515 -0.000007
v 0.247482 0.532485 -0.000007
v -0.228874 0.513985 0.004994
v 0.224831 0.513985 0.004994
v -0.228874 0.059899 0.004994
v 0.224831 0.059899 0.004993
v -0.076374 0.361485 -0.088322
v -0.076374 0.212399 -0.088322
v 0.072331 0.361485 -0.088322
v 0.072331 0.212399 -0.088322
v -0.181374 0.466485 -0.035006
v -0.181374 0.107399 -0.035006
v 0.177331 0.466485 -0.035006
v 0.177331 0.107399 -0.035007
v -0.117624 0.402735 -0.035006
v 0.113581 0.402735 -0.035006
v -0.117624 0.171149 -0.035006
v 0.113581 0.171149 -0.035007
v -0.096374 0.381485 -0.055006
v -0.096374 0.192399 -0.055006
v 0.092331 0.381485 -0.055006
v 0.092331 0.192399 -0.055007
v -0.242174 0.042829 0.327792
v -0.242174 0.527171 0.327792
v 0.239967 0.045030 0.319993
v 0.242169 0.042829 0.327792
v 0.239967 0.524970 0.319993
v 0.242169 0.527171 0.327792
v -0.247488 0.037515 0.329993
v 0.247482 0.037515 0.329993
v -0.247488 0.532485 0.329993
v 0.247482 0.532485 0.329993
v -0.255003 0.540000 0.322478
v -0.255003 0.030000 0.322478
v 0.254997 0.030000 0.322478
v 0.254997 0.540000 0.322478
v -0.240002 0.525000 0.319993
v -0.240002 0.045000 0.319993
v -0.228001 0.057000 0.317064
v 0.228000 0.057000 0.317064
v -0.228002 0.513000 0.289993
v -0.228002 0.128421 0.292493
v 0.227415 0.512417 0.290317
v -0.228001 0.513000 0.317064
v 0.227998 0.057000 0.292493
v 0.228000 0.513000 0.317064
v 0.227998 0.128421 0.292493
v -0.228002 0.057000 0.292493
vn 1.0000 -0.0000 -0.0000
vn -0.0000 1.0000 -0.0000
vn -1.0000 -0.0000 -0.0000
vn -0.0000 -1.0000 -0.0000
vn -0.0004 0.0061 1.0000
vn -0.0000 -0.0000 1.0000
vn -0.0000 0.8944 0.4472
vn -0.5433 -0.0000 0.8395
vn -0.0000 -0.5434 0.8395
vn 0.5429 0.0001 0.8398
vn 0.0001 0.5429 0.8398
vn -0.0013 -0.5434 0.8395
vn -0.5433 -0.0016 0.8395
vn -0.0000 0.5429 0.8398
vn 0.2878 -0.4654 0.8370
vn 0.2384 -0.4311 0.8703
vn 0.0660 -0.5587 0.8268
vn 0.1052 -0.6053 0.7890
vn -0.4653 -0.2877 0.8371
vn -0.4308 -0.2384 0.8704
vn -0.5585 -0.0659 0.8269
vn -0.6052 -0.1051 0.7891
vn -0.4654 0.2878 0.8370
vn -0.4310 0.2384 0.8703
vn -0.2384 0.4307 0.8704
vn -0.2877 0.4652 0.8371
vn 0.5579 0.0662 0.8273
vn 0.6047 0.1053 0.7895
vn 0.4650 0.2876 0.8373
vn 0.4304 0.2383 0.8706
vn 0.6049 -0.1049 0.7894
vn 0.5581 -0.0658 0.8272
vn 0.4307 -0.2384 0.8704
vn 0.4652 -0.2877 0.8371
vn -0.2878 -0.4653 0.8371
vn -0.2384 -0.4308 0.8704
vn -0.6053 0.1052 0.7890
vn -0.5586 0.0660 0.8268
vn -0.1051 -0.6052 0.7891
vn -0.0660 -0.5585 0.8269
vn -0.0377 -0.3713 0.9278
vn -0.0160 -0.1654 0.9861
vn -0.0710 -0.1320 0.9887
vn -0.1530 -0.2856 0.9461
vn 0.2876 0.4649 0.8373
vn 0.2383 0.4303 0.8706
vn 0.1053 0.6046 0.7895
vn 0.0661 0.5579 0.8273
vn -0.1049 0.6049 0.7894
vn -0.0658 0.5581 0.8272
vn -0.0347 -0.0347 0.9988
vn -0.1320 -0.0710 0.9887
vn -0.2856 -0.1529 0.9461
vn -0.1654 -0.0160 0.9861
vn -0.3713 -0.0377 0.9278
vn -0.0163 0.1649 0.9862
vn -0.0377 0.3708 0.9279
vn -0.1531 0.2855 0.9461
vn -0.0713 0.1319 0.9887
vn -0.0348 0.0342 0.9988
vn -0.2859 0.1529 0.9460
vn -0.1324 0.0708 0.9887
vn -0.3714 0.0376 0.9277
vn -0.1655 0.0159 0.9861
vn 0.0376 0.3705 0.9281
vn 0.0156 0.1646 0.9862
vn 0.0705 0.1313 0.9888
vn 0.1526 0.2850 0.9463
vn 0.0340 0.0340 0.9988
vn 0.1314 0.0703 0.9888
vn 0.2851 0.1526 0.9463
vn 0.1647 0.0155 0.9862
vn 0.3706 0.0375 0.9280
vn 0.0158 -0.1656 0.9861
vn 0.0376 -0.3715 0.9277
vn 0.1529 -0.2860 0.9460
vn 0.0708 -0.1325 0.9886
vn 0.0342 -0.0349 0.9988
vn 0.2855 -0.1531 0.9461
vn 0.1319 -0.0714 0.9887
vn 0.3708 -0.0378 0.9279
vn 0.1649 -0.0164 0.9862
vn -0.0000 -0.9918 0.1275
vn -0.7013 -0.7013 0.1275
vn -0.9918 -0.0000 0.1275
vn -0.0000 0.9918 0.1275
vn -0.7013 0.7013 0.1275
vn 0.7013 -0.7013 0.1275
vn 0.9918 -0.0000 0.1275
vn 0.7013 0.7013 0.1275
vn -0.0000 -0.9883 0.1525
vn -0.6988 -0.6988 0.1525
vn -0.9883 -0.0000 0.1525
vn -0.0000 0.9883 0.1525
vn -0.6988 0.6988 0.1525
vn 0.6988 -0.6988 0.1525
vn 0.9883 -0.0000 0.1525
vn 0.6988 0.6988 0.1525
vn -0.0000 -0.9775 0.2111
vn -0.6912 -0.6912 0.2111
vn -0.9775 -0.0000 0.2111
vn -0.0000 0.9775 0.2111
vn -0.6912 0.6912 0.2111
vn 0.6912 -0.6912 0.2111
vn 0.9775 -0.0000 0.2111
vn 0.6912 0.6912 0.2111
vn 0.7071 -0.0000 0.7071
vn 0.3827 -0.0000 0.9239
vn 0.3827 -0.0000 -0.9239
vn 0.7071 -0.0000 -0.7071
vn -0.3827 -0.0000 -0.9239
vn -0.0000 -0.0000 -1.0000
vn 0.9239 -0.0000 0.3827
vn -0.9239 -0.0000 0.3827
vn -0.9239 -0.0000 -0.3827
vn 0.9239 -0.0000 -0.3827
vn -0.7071 -0.0000 0.7071
vn -0.3827 -0.0000 0.9239
vn -0.7071 -0.0000 -0.7071
vn -0.3716 0.9155 -0.1539
vn -0.1539 0.9155 -0.3716
vn -0.3042 0.9027 -0.3042
vn -0.3716 0.9155 0.1539
vn -0.4303 0.9027 -0.0000
vn 0.1539 0.9155 -0.3716
vn 0.3716 0.9155 -0.1539
vn 0.3042 0.9027 -0.3042
vn -0.3042 0.9027 0.3042
vn -0.4024 0.9002 0.1667
vn -0.1667 0.9002 0.4024
vn -0.1539 0.9155 0.3716
vn 0.1539 0.9155 0.3716
vn 0.1667 0.9002 0.4024
vn 0.3042 0.9027 0.3042
vn -0.0000 0.9027 -0.4303
vn 0.3716 0.9155 0.1539
vn 0.4303 0.9027 -0.0000
vn 0.4024 0.9002 0.1667
vn -0.4024 0.9002 -0.1667
vn -0.0000 0.9027 0.4303
vn -0.1667 0.9002 -0.4024
vn 0.1667 0.9002 -0.4024
vn 0.4024 0.9002 -0.1667
vn -0.7050 0.7092 -0.0000
vn -0.2033 -0.2033 0.9578
vn 0.7094 -0.7048 -0.0000
vn 0.0022 0.0022 -1.0000
vn 0.8301 0.5577 -0.0000
vn -0.0027 0.0027 1.0000
vn 0.7044 0.7098 -0.0000
vn -0.7098 -0.7044 -0.0000
vn 0.0022 0.0022 1.0000
vn -0.0027 0.0027 -1.0000
vn -0.5577 -0.8300 -0.0000
vn 0.2033 -0.2033 0.9578
vn 0.2033 -0.2033 -0.9578
vn -0.7071 0.7071 -0.0000
vn 0.7071 0.7071 -0.0000
vn -0.7071 -0.7071 -0.0000
vn -0.8299 0.5579 -0.0000
vn 0.5576 -0.8301 -0.0000
vn -0.2032 -0.2032 -0.9578
vn 0.7071 -0.7071 -0.0000
vn -0.0000 -0.8944 0.4472
vn -0.0000 -0.8944 -0.4472
vn -0.4472 -0.8944 -0.0000
vn 0.4472 -0.8944 -0.0000
vn -0.0000 -0.7071 -0.7071
vn -0.0000 0.7071 -0.7071
vn -0.6441 -0.0000 -0.7649
vn -0.0000 0.6441 -0.7649
vn -0.0000 -0.6441 -0.7649
vn 0.6441 -0.0000 -0.7649
vn -0.6854 -0.0000 -0.7282
vn -0.0000 0.6854 -0.7282
vn -0.0000 -0.6854 -0.7282
vn 0.6854 -0.0000 -0.7282
vn -0.8574 -0.0000 -0.5147
vn -0.0000 0.8574 -0.5147
vn -0.0000 -0.8574 -0.5147
vn 0.8574 -0.0000 -0.5147
vn -0.9624 -0.0000 0.2716
vn -0.0000 -0.7071 0.7071
vn -0.0000 0.9629 0.2699
vn -0.0000 -0.9629 0.2699
vn -0.0000 -0.3827 0.9239
vn -0.0000 0.3827 0.9239
vn 0.9633 -0.0000 0.2683
vn -0.0000 0.7071 0.7071
vn -0.0000 0.2374 0.9714
vn -0.0000 -0.2374 0.9714
vn -0.2377 -0.0000 0.9713
vn 0.2371 -0.0000 0.9715
vn -0.0006 -0.9999 0.0108
vn -1.0000 -0.0006 0.0097
vt 0.997175 0.000000
vt 0.997175 0.328605
vt 0.802260 0.328605
vt 0.802260 0.000000
vt 0.048028 0.080374
vt 0.353107 0.080379
vt 0.353107 0.293144
vt 0.048023 0.293144
vt 0.353107 0.080378
vt 0.048023 0.080378
vt 0.047983 0.040832
vt 0.353075 0.040838
vt 0.048023 0.075650
vt 0.048023 0.087470
vt 0.353107 0.087470
vt 0.353107 0.075650
vt 0.353107 0.037825
vt 0.048023 0.037825
vt 0.058369 0.088934
vt 0.058377 0.284588
vt 0.342761 0.088942
vt 0.342753 0.284580
vt 0.068731 0.276033
vt 0.332399 0.276016
vt 0.332414 0.097506
vt 0.068716 0.097490
vt 0.959566 0.013501
vt 0.916964 0.066298
vt 0.876490 0.052657
vt 0.919051 0.000000
vt 0.010856 0.050346
vt 0.053297 0.103138
vt 0.042341 0.153420
vt 0.000000 0.100691
vt 0.010856 0.949731
vt 0.053337 0.896783
vt 0.083056 0.933657
vt 0.040535 0.986565
vt 0.956737 0.845255
vt 0.999017 0.897956
vt 0.988121 0.948265
vt 0.945700 0.895503
vt 1.000000 0.100770
vt 0.957519 0.153534
vt 0.946623 0.103221
vt 0.989205 0.050385
vt 0.040515 0.013490
vt 0.082976 0.066238
vt 0.000000 0.899368
vt 0.042381 0.846491
vt 0.081029 0.000000
vt 0.123450 0.052610
vt 0.181684 0.124849
vt 0.233937 0.214469
vt 0.202251 0.225181
vt 0.140888 0.138150
vt 0.958442 0.985128
vt 0.916021 0.932409
vt 0.917947 0.998668
vt 0.875567 0.946086
vt 0.081069 1.000000
vt 0.123530 0.947234
vt 0.248605 0.308915
vt 0.181182 0.251352
vt 0.111149 0.175102
vt 0.172553 0.290738
vt 0.100454 0.225805
vt 0.233937 0.785177
vt 0.181743 0.874884
vt 0.140928 0.861642
vt 0.202251 0.774510
vt 0.248565 0.690700
vt 0.111169 0.824717
vt 0.181202 0.748372
vt 0.100473 0.774004
vt 0.172573 0.708986
vt 0.817374 0.873884
vt 0.765181 0.784340
vt 0.796886 0.773587
vt 0.858149 0.860531
vt 0.750512 0.689894
vt 0.817956 0.747380
vt 0.887888 0.823572
vt 0.826604 0.708006
vt 0.898644 0.772909
vt 0.765822 0.214476
vt 0.818157 0.124865
vt 0.858952 0.138176
vt 0.797528 0.225191
vt 0.751114 0.308908
vt 0.888671 0.175154
vt 0.818558 0.251362
vt 0.899306 0.225892
vt 0.827106 0.290762
vt 0.497839 0.607504
vt 0.478118 0.624008
vt 0.450228 0.624008
vt 0.430507 0.607504
vt 0.430507 0.584164
vt 0.450228 0.567660
vt 0.478118 0.567660
vt 0.497839 0.584164
vt 0.475024 0.629099
vt 0.475086 0.643702
vt 0.489842 0.643702
vt 0.489842 0.629099
vt 0.504659 0.643702
vt 0.504659 0.629099
vt 0.534295 0.643702
vt 0.534295 0.629099
vt 0.519477 0.629099
vt 0.519477 0.643702
vt 0.593504 0.643702
vt 0.593566 0.629099
vt 0.578749 0.629099
vt 0.578748 0.643702
vt 0.563931 0.629099
vt 0.563931 0.643702
vt 0.549113 0.643702
vt 0.549113 0.629099
vt 0.500350 0.607671
vt 0.479158 0.625406
vt 0.449188 0.625406
vt 0.427996 0.607671
vt 0.427996 0.582590
vt 0.449188 0.564855
vt 0.479158 0.564855
vt 0.500350 0.582590
vt 0.483538 0.601525
vt 0.472260 0.610964
vt 0.456309 0.610964
vt 0.445031 0.601525
vt 0.445031 0.588177
vt 0.456309 0.578738
vt 0.472260 0.578738
vt 0.483538 0.588177
vt 0.508775 0.610135
vt 0.508837 0.621761
vt 0.523593 0.621761
vt 0.523593 0.610135
vt 0.538410 0.621761
vt 0.538410 0.610135
vt 0.568046 0.621761
vt 0.568046 0.610135
vt 0.553228 0.610135
vt 0.553228 0.621761
vt 0.627255 0.621761
vt 0.627317 0.610135
vt 0.612499 0.610135
vt 0.612499 0.621761
vt 0.597681 0.610135
vt 0.597681 0.621761
vt 0.582864 0.621761
vt 0.582864 0.610135
vt 0.583526 0.169479
vt 0.583526 0.173297
vt 0.608364 0.173297
vt 0.608364 0.169479
vt 0.483051 0.178404
vt 0.508475 0.178404
vt 0.508475 0.173676
vt 0.483051 0.173676
vt 0.533898 0.178404
vt 0.559322 0.178404
vt 0.559322 0.173676
vt 0.533898 0.173676
vt 0.607345 0.178404
vt 0.632768 0.178404
vt 0.632768 0.173676
vt 0.607345 0.173676
vt 0.435028 0.178404
vt 0.460452 0.178404
vt 0.460452 0.173676
vt 0.435028 0.173676
vt 0.584746 0.178404
vt 0.584746 0.173676
vt 0.459338 0.169479
vt 0.459338 0.173297
vt 0.484176 0.173297
vt 0.484176 0.169479
vt 0.633202 0.173297
vt 0.633202 0.169479
vt 0.608364 0.169479
vt 0.608364 0.173297
vt 0.633202 0.173297
vt 0.633202 0.169479
vt 0.533851 0.169479
vt 0.533851 0.173297
vt 0.558689 0.173297
vt 0.558689 0.169479
vt 0.509014 0.169479
vt 0.509014 0.173297
vt 0.533851 0.173297
vt 0.533851 0.169479
vt 0.558689 0.173297
vt 0.558689 0.169479
vt 0.509013 0.169479
vt 0.509013 0.173297
vt 0.434501 0.169479
vt 0.434501 0.173297
vt 0.583526 0.173297
vt 0.583526 0.169479
vt 0.462026 0.104989
vt 0.474122 0.120132
vt 0.439568 0.128508
vt 0.466267 0.087122
vt 0.430512 0.090463
vt 0.495471 0.123683
vt 0.513568 0.113560
vt 0.523575 0.142481
vt 0.456259 0.058201
vt 0.439525 0.072174
vt 0.478086 0.050608
vt 0.484363 0.076999
vt 0.505712 0.080550
vt 0.523571 0.058173
vt 0.540267 0.072174
vt 0.478113 0.150053
vt 0.517809 0.095694
vt 0.549323 0.110219
vt 0.549344 0.090438
vt 0.430490 0.110245
vt 0.501722 0.050629
vt 0.456264 0.142509
vt 0.516949 0.159491
vt 0.516949 0.168948
vt 0.531073 0.168948
vt 0.531073 0.159491
vt 0.505650 0.159491
vt 0.505650 0.168948
vt 0.435028 0.159491
vt 0.435028 0.168948
vt 0.449153 0.168948
vt 0.449153 0.159491
vt 0.571173 0.151511
vt 0.557220 0.151511
vt 0.547353 0.143253
vt 0.547353 0.131576
vt 0.557220 0.123318
vt 0.571173 0.123318
vt 0.581040 0.131576
vt 0.581040 0.143253
vt 0.477401 0.159491
vt 0.477401 0.168948
vt 0.491525 0.168948
vt 0.491525 0.159491
vt 0.463277 0.168948
vt 0.463277 0.159491
vt 0.545198 0.168948
vt 0.545198 0.159491
vt 0.501749 0.150075
vt 0.540310 0.128508
vt 0.680128 0.504143
vt 0.680128 0.509629
vt 0.443375 0.509003
vt 0.443375 0.504755
vt 0.664184 0.522375
vt 0.664184 0.525152
vt 0.659769 0.525847
vt 0.659769 0.521681
vt 0.680128 0.516001
vt 0.680128 0.510515
vt 0.443375 0.511126
vt 0.443375 0.515374
vt 0.680234 0.496594
vt 0.680234 0.500610
vt 0.443481 0.500022
vt 0.443481 0.497245
vt 0.678514 0.537280
vt 0.678514 0.533032
vt 0.674206 0.531971
vt 0.674206 0.538342
vt 0.638668 0.523366
vt 0.638668 0.519351
vt 0.444192 0.519966
vt 0.444192 0.522743
vt 0.638615 0.535939
vt 0.638615 0.530453
vt 0.444139 0.531079
vt 0.444139 0.535327
vt 0.638615 0.530453
vt 0.638615 0.535939
vt 0.443481 0.493078
vt 0.680234 0.492490
vt 0.680234 0.496505
vt 0.443481 0.495855
vt 0.444192 0.526909
vt 0.638668 0.527524
vt 0.638668 0.523508
vt 0.444192 0.524132
vt 0.674153 0.525391
vt 0.674153 0.521225
vt 0.669925 0.521225
vt 0.669925 0.525391
vt 0.674206 0.538342
vt 0.674206 0.531971
vt 0.678567 0.524696
vt 0.678567 0.521919
vt 0.678567 0.528862
vt 0.678567 0.526085
vt 0.674153 0.525391
vt 0.674153 0.529557
vt 0.661499 0.531467
vt 0.669112 0.531467
vt 0.669112 0.535633
vt 0.661499 0.535633
vt 0.669926 0.525391
vt 0.669926 0.529557
vt 0.669978 0.531971
vt 0.669978 0.538342
vt 0.669978 0.538342
vt 0.669978 0.531971
vt 0.655542 0.525847
vt 0.655542 0.521681
vt 0.654313 0.524286
vt 0.654313 0.528534
vt 0.650004 0.529596
vt 0.650004 0.523224
vt 0.654313 0.534906
vt 0.654313 0.530658
vt 0.650004 0.529596
vt 0.650004 0.535968
vt 0.664184 0.526542
vt 0.664184 0.529319
vt 0.659769 0.530013
vt 0.653885 0.535633
vt 0.653885 0.531467
vt 0.645776 0.529596
vt 0.645776 0.523224
vt 0.645776 0.535968
vt 0.655542 0.530013
vt 0.655542 0.525847
vt 0.683545 0.529555
vt 0.683545 0.536279
vt 0.679529 0.536279
vt 0.679529 0.529555
vt 0.682784 0.535373
vt 0.655015 0.535373
vt 0.655015 0.532012
vt 0.659454 0.528297
vt 0.678345 0.528297
vt 0.682784 0.532012
vt 0.654361 0.536279
vt 0.654361 0.529555
vt 0.673251 0.529555
vt 0.673251 0.536279
vt 0.659454 0.528297
vt 0.644067 0.536279
vt 0.644067 0.529555
vt 0.648083 0.529555
vt 0.648083 0.536279
vt 0.773798 0.034875
vt 0.796875 0.034875
vt 0.773798 0.047750
vt 0.796875 0.157125
vt 0.781490 0.170000
vt 0.773798 0.157125
vt 0.773798 0.036687
vt 0.796875 0.023812
vt 0.773798 0.023812
vt 0.958984 0.022292
vt 0.958984 0.035167
vt 0.943600 0.035167
vt 0.943600 0.022292
vt 0.943600 0.220625
vt 0.958984 0.220625
vt 0.958984 0.235020
vt 0.943600 0.235020
vt 0.781490 0.189375
vt 0.796875 0.215125
vt 0.773798 0.202250
vt 0.773798 0.023812
vt 0.773798 0.036687
vt 0.943600 0.035167
vt 0.943600 0.022292
vt 0.958984 0.022292
vt 0.958984 0.035167
vt 0.773798 0.215125
vt 0.781490 0.060625
vt 0.943600 0.077480
vt 0.958984 0.077480
vt 0.958984 0.091875
vt 0.943600 0.091875
vt 0.796875 0.311625
vt 0.773798 0.311625
vt 0.781490 0.298750
vt 0.943600 0.097375
vt 0.958984 0.110250
vt 0.958984 0.264750
vt 0.943600 0.277625
vt 0.796875 0.034875
vt 0.781490 0.060625
vt 0.773798 0.047750
vt 0.773798 0.202250
vt 0.796875 0.215125
vt 0.773798 0.215125
vt 0.773798 0.319938
vt 0.796875 0.319938
vt 0.773798 0.307063
vt 0.958984 0.308582
vt 0.958984 0.321458
vt 0.943600 0.321458
vt 0.943600 0.308582
vt 0.773798 0.034875
vt 0.943599 0.220625
vt 0.958984 0.220625
vt 0.958984 0.235020
vt 0.943599 0.235020
vt 0.781490 0.298750
vt 0.796875 0.311625
vt 0.773798 0.307063
vt 0.796875 0.319938
vt 0.773798 0.319938
vt 0.943600 0.321458
vt 0.943600 0.308582
vt 0.958984 0.308582
vt 0.773798 0.157125
vt 0.796875 0.157125
vt 0.781490 0.170000
vt 0.943599 0.077480
vt 0.958984 0.077480
vt 0.958984 0.091875
vt 0.943599 0.091875
vt 0.781490 0.189375
vt 0.958984 0.110250
vt 0.943599 0.097375
vt 0.943599 0.277626
vt 0.958984 0.264750
vt 0.781490 0.294188
vt 0.796875 0.307063
vt 0.796875 0.036687
vt 0.781490 0.049562
vt 0.781490 0.294188
vt 0.781490 0.294188
vt 0.796875 0.307063
vt 0.773798 0.307063
vt 0.943600 0.294188
vt 0.958984 0.294188
vt 0.796875 0.036687
vt 0.781490 0.049562
vt 0.773798 0.036687
vt 0.943600 0.049562
vt 0.958984 0.049562
vt 0.958984 0.307063
vt 0.958984 0.036687
vt 0.943600 0.023812
vt 0.943599 0.319938
vt 0.781490 0.049562
vt 0.773798 0.307063
vt 0.781490 0.294188
vt 0.943600 0.294188
vt 0.958984 0.294188
vt 0.781490 0.049562
vt 0.943600 0.049562
vt 0.958984 0.049562
vt 0.943600 0.319938
vt 0.943600 0.023812
vt 0.958984 0.036687
vt 0.958984 0.307063
vt 0.773798 0.036687
vt 0.774011 0.021277
vt 0.788136 0.007092
vt 0.788136 0.326241
vt 0.774011 0.314421
vt 0.406780 0.007092
vt 0.401130 0.002364
vt 0.793785 0.002364
vt 0.406780 0.326241
vt 0.401130 0.330969
vt 0.793785 0.330969
vt 0.423729 0.021277
vt 0.423729 0.314421
vt 0.774011 0.319149
vt 0.423729 0.319149
vt 0.541466 0.786393
vt 0.656274 0.786393
vt 0.656274 0.882638
vt 0.541466 0.882638
vt 0.737339 0.950423
vt 0.737339 0.718608
vt 0.774011 0.687943
vt 0.774011 0.981087
vt 0.460401 0.950423
vt 0.423729 0.981087
vt 0.460401 0.718608
vt 0.423729 0.687943
vt 0.686194 0.907657
vt 0.686194 0.761374
vt 0.511546 0.907657
vt 0.511546 0.761374
vt 0.670445 0.894488
vt 0.670445 0.774543
vt 0.527295 0.894488
vt 0.527295 0.774543
vt 0.386650 0.989976
vt 0.386650 0.676859
vt 0.388403 0.675391
vt 0.388403 0.991444
vt 0.392639 0.671847
vt 0.005989 0.671847
vt 0.000000 0.666835
vt 0.398628 0.666835
vt 0.011955 0.676839
vt 0.010223 0.675391
vt 0.010223 0.991444
vt 0.011955 0.989996
vt 0.392639 0.994988
vt 0.005989 0.994988
vt 0.398628 1.000000
vt 0.000000 1.000000
vt 0.377160 0.684818
vt 0.021469 0.684818
vt 0.021469 0.982017
vt 0.377160 0.982017
vt 0.403956 0.703140
vt 0.404171 0.965199
vt 0.420904 0.964539
vt 0.420904 0.702128
vt 0.403956 0.963525
vt 0.404192 0.701466
vt 0.420904 0.924350
vt 0.404161 0.701455
vt 0.404201 0.965209
s 1
usemtl tvs_mp_1
f 320/1/1 366/2/1 404/3/1 403/4/1
f 319/4/2 401/1/2 404/2/2 366/3/2
f 365/1/3 402/4/3 401/3/3 319/2/3
f 320/3/4 403/2/4 402/1/4 365/4/4
f 2/5/5 5/6/5 3/7/5 1/8/5
f 5/9/6 2/10/6 8/11/6 4/12/6
f 14/13/7 10/14/7 11/15/7 13/16/7
f 12/17/6 14/16/6 13/13/6 9/18/6
f 19/19/8 20/20/8 6/8/8 2/10/8
f 21/21/9 19/19/9 2/10/9 5/9/9
f 22/22/10 21/21/10 5/9/10 7/7/10
f 20/20/11 22/22/11 7/7/11 6/8/11
f 15/23/12 18/24/12 22/22/12 20/20/12
f 18/24/13 17/25/13 21/21/13 22/22/13
f 17/25/14 16/26/14 19/19/14 21/21/14
f 16/26/10 15/23/10 20/20/10 19/19/10
f 97/95/6 98/96/6 99/97/6 101/98/6 100/99/6 93/100/6 91/101/6 92/102/6
f 102/103/83 97/104/83 92/105/84 94/106/84
f 94/106/84 92/105/84 91/107/85 95/108/85
f 100/109/86 104/110/86 96/111/87 93/112/87
f 93/112/87 96/111/87 95/108/85 91/107/85
f 97/113/83 102/114/83 103/115/88 98/116/88
f 98/116/88 103/115/88 105/117/89 99/118/89
f 104/110/86 100/109/86 101/119/90 106/120/90
f 106/120/90 101/119/90 99/118/89 105/117/89
f 113/121/6 114/122/6 115/123/6 117/124/6 116/125/6 109/126/6 107/127/6 108/128/6
f 118/103/91 113/104/91 108/105/92 110/106/92
f 110/106/92 108/105/92 107/107/93 111/108/93
f 116/109/94 120/110/94 112/111/95 109/112/95
f 109/112/95 112/111/95 111/108/93 107/107/93
f 113/113/91 118/114/91 119/115/96 114/116/96
f 114/116/96 119/115/96 121/117/97 115/118/97
f 120/110/94 116/109/94 117/119/98 122/120/98
f 122/120/98 117/119/98 115/118/97 121/117/97
f 129/95/6 130/96/6 131/97/6 133/98/6 132/99/6 125/100/6 123/101/6 124/102/6
f 134/103/91 129/104/91 124/105/92 126/106/92
f 126/106/92 124/105/92 123/107/93 127/108/93
f 132/109/94 136/110/94 128/111/95 125/112/95
f 125/112/95 128/111/95 127/108/93 123/107/93
f 129/113/91 134/114/91 135/115/96 130/116/96
f 130/116/96 135/115/96 137/117/97 131/118/97
f 136/110/94 132/109/94 133/119/98 138/120/98
f 138/120/98 133/119/98 131/118/97 137/117/97
f 145/95/6 146/96/6 147/97/6 149/98/6 148/99/6 141/100/6 139/101/6 140/102/6
f 150/103/83 145/104/83 140/105/84 142/106/84
f 142/106/84 140/105/84 139/107/85 143/108/85
f 148/109/86 152/110/86 144/111/87 141/112/87
f 141/112/87 144/111/87 143/108/85 139/107/85
f 145/113/83 150/114/83 151/115/88 146/116/88
f 146/116/88 151/115/88 153/117/89 147/118/89
f 152/110/86 148/109/86 149/119/90 154/120/90
f 154/120/90 149/119/90 147/118/89 153/117/89
f 161/129/6 162/130/6 163/131/6 165/132/6 164/133/6 157/134/6 155/135/6 156/136/6
f 166/137/99 161/138/99 156/139/100 158/140/100
f 158/140/100 156/139/100 155/141/101 159/142/101
f 164/143/102 168/144/102 160/145/103 157/146/103
f 157/146/103 160/145/103 159/142/101 155/141/101
f 161/147/99 166/148/99 167/149/104 162/150/104
f 162/150/104 167/149/104 169/151/105 163/152/105
f 168/144/102 164/143/102 165/153/106 170/154/106
f 170/154/106 165/153/106 163/152/105 169/151/105
f 177/129/6 178/130/6 179/131/6 181/132/6 180/133/6 173/134/6 171/135/6 172/136/6
f 182/137/99 177/138/99 172/139/100 174/140/100
f 174/140/100 172/139/100 171/141/101 175/142/101
f 180/143/102 184/144/102 176/145/103 173/146/103
f 173/146/103 176/145/103 175/142/101 171/141/101
f 177/147/99 182/148/99 183/149/104 178/150/104
f 178/150/104 183/149/104 185/151/105 179/152/105
f 184/144/102 180/143/102 181/153/106 186/154/106
f 186/154/106 181/153/106 179/152/105 185/151/105
f 193/129/6 194/130/6 195/131/6 197/132/6 196/133/6 189/134/6 187/135/6 188/136/6
f 198/137/99 193/138/99 188/139/100 190/140/100
f 190/140/100 188/139/100 187/141/101 191/142/101
f 196/143/102 200/144/102 192/145/103 189/146/103
f 189/146/103 192/145/103 191/142/101 187/141/101
f 193/147/99 198/148/99 199/149/104 194/150/104
f 194/150/104 199/149/104 201/151/105 195/152/105
f 200/144/102 196/143/102 197/153/106 202/154/106
f 202/154/106 197/153/106 195/152/105 201/151/105
f 233/155/107 217/156/107 218/157/108 234/158/108
f 208/159/2 209/160/2 222/161/2 221/162/2
f 248/163/2 249/164/2 224/165/2 223/166/2
f 242/167/2 203/168/2 211/169/2 210/170/2
f 203/171/2 243/172/2 212/173/2 211/174/2
f 243/172/2 204/159/2 213/162/2 212/173/2
f 204/159/2 244/160/2 214/161/2 213/162/2
f 244/160/2 245/163/2 215/166/2 214/161/2
f 245/163/2 246/164/2 216/165/2 215/166/2
f 246/164/2 247/175/2 217/176/2 216/165/2
f 247/175/2 205/167/2 218/170/2 217/176/2
f 205/167/2 206/168/2 219/169/2 218/170/2
f 206/171/2 207/172/2 220/173/2 219/174/2
f 207/172/2 208/159/2 221/162/2 220/173/2
f 250/175/2 242/167/2 210/170/2 225/176/2
f 209/160/2 248/163/2 223/166/2 222/161/2
f 249/164/2 250/175/2 225/176/2 224/165/2
f 228/177/109 212/178/109 213/179/110 229/180/110
f 234/158/108 218/157/108 219/181/6 235/182/6
f 226/183/111 210/184/111 211/185/112 227/186/112
f 231/187/1 215/188/1 216/189/113 232/190/113
f 238/191/114 222/192/114 223/193/3 239/194/3
f 232/190/113 216/189/113 217/156/107 233/155/107
f 239/194/3 223/193/3 224/195/115 240/196/115
f 230/197/116 214/198/116 215/188/1 231/187/1
f 237/180/117 221/179/117 222/192/114 238/191/114
f 236/177/118 220/178/118 221/179/117 237/180/117
f 229/180/110 213/179/110 214/198/116 230/197/116
f 235/199/6 219/200/6 220/178/118 236/177/118
f 240/196/115 224/195/115 225/201/119 241/202/119
f 241/202/119 225/201/119 210/184/111 226/183/111
f 227/199/112 211/200/112 212/178/109 228/177/109
f 258/203/120 251/204/121 250/205/122
f 257/206/123 258/203/120 248/207/124
f 252/208/125 253/209/126 204/210/127
f 208/211/128 257/206/123 209/212/129
f 208/211/128 207/213/130 256/214/131
f 255/215/132 205/216/133 247/217/134
f 251/204/121 252/208/125 203/218/135
f 253/209/126 254/219/136 245/220/137
f 247/217/134 246/221/138 254/219/136
f 256/214/131 257/206/123 208/211/128
f 250/205/122 249/222/139 258/203/120
f 206/223/140 205/216/133 255/215/132
f 254/219/136 255/215/132 247/217/134
f 256/214/131 207/213/130 206/223/140
f 251/204/2 258/203/2 257/206/2 256/214/2 255/215/2
f 250/205/122 251/204/121 242/224/141
f 269/225/114 272/226/114 271/227/115 270/228/115
f 268/229/118 262/230/118 272/226/114 269/225/114
f 263/231/111 259/232/111 260/233/109 264/234/109
f 273/235/2 274/236/2 260/237/2 259/238/2 271/239/2 272/240/2 262/241/2 261/242/2
f 266/243/113 273/244/113 261/245/108 267/246/108
f 267/246/108 261/245/108 262/230/118 268/229/118
f 260/233/109 274/247/116 265/248/116 264/234/109
f 274/247/116 273/244/113 266/243/113 265/248/116
f 270/228/115 271/227/115 259/249/111 263/250/111
f 255/215/132 256/214/131 206/223/140
f 248/207/124 209/212/129 257/206/123
f 248/207/124 258/203/120 249/222/139
f 203/218/135 252/208/125 243/251/142
f 203/218/135 242/224/141 251/204/121
f 245/220/137 254/219/136 246/221/138
f 245/220/137 244/252/143 253/209/126
f 204/210/127 253/209/126 244/252/143
f 204/210/127 243/251/142 252/208/125
f 252/208/2 251/204/2 255/215/2 254/219/2 253/209/2
f 290/253/144 288/254/144 275/255/144 278/256/144
f 275/257/145 276/258/145 300/259/145 299/260/145
f 287/261/146 289/262/146 277/263/146 276/264/146
f 289/265/147 290/266/147 278/267/147 277/268/147
f 282/269/148 279/270/148 291/271/148 294/272/148
f 285/273/149 286/274/149 282/275/149 281/276/149
f 286/277/150 284/278/150 279/279/150 282/280/150
f 283/281/151 285/282/151 281/280/151 280/279/151
f 275/283/152 288/284/152 287/285/152 276/286/152
f 279/287/153 284/288/153 283/289/153 280/290/153
f 293/291/6 294/292/6 298/293/6 297/294/6
f 280/270/154 281/269/154 293/295/154 292/296/154
f 281/297/155 282/298/155 294/292/155 293/291/155
f 279/299/156 280/300/156 292/301/156 291/302/156
f 296/303/157 297/304/157 298/305/157 295/306/157
f 291/302/112 292/301/112 296/307/112 295/308/112
f 294/272/158 291/271/158 295/309/158 298/310/158
f 292/296/159 293/295/159 297/311/159 296/312/159
f 299/260/6 300/259/6 304/313/6 303/314/6
f 278/315/160 275/316/160 299/317/160 302/318/160
f 276/319/161 277/320/161 301/321/161 300/322/161
f 277/323/162 278/324/162 302/325/162 301/259/162
f 304/306/158 305/326/158 306/327/158 303/303/158
f 302/318/157 299/317/157 303/328/157 306/329/157
f 300/322/163 301/321/163 305/328/163 304/330/163
f 301/259/112 302/325/112 306/331/112 305/332/112
f 308/333/1 307/334/1 317/335/1 316/336/1
f 307/337/112 310/338/112 312/339/112 311/340/112 318/341/112 317/342/112
f 311/343/2 314/344/2 315/345/2 318/346/2
f 309/337/6 308/338/6 316/339/6 315/347/6 314/341/6 313/342/6
f 310/348/3 309/349/3 313/350/3 312/351/3
f 312/351/157 313/350/157 314/344/157 311/343/157
f 316/336/158 317/335/158 318/346/158 315/345/158
s 0
f 321/352/3 322/353/3 323/354/3
f 359/355/1 333/356/1 327/357/1
f 324/358/6 322/359/6 321/360/6
f 323/361/4 325/362/4 324/363/4 321/364/4
f 333/365/164 334/366/164 326/367/164 327/368/164
f 334/369/3 329/370/3 326/371/3
f 328/372/112 329/359/112 330/373/112
f 327/374/4 326/375/4 328/376/4 330/377/4
f 326/371/3 329/370/3 328/378/3
f 323/354/3 322/353/3 332/379/3
f 325/380/165 323/381/165 332/382/165 331/383/165
f 351/384/1 325/385/1 331/386/1
f 332/379/3 322/353/3 329/370/3 334/369/3
f 322/387/2 351/388/2 359/389/2 329/390/2
f 331/383/4 332/382/4 334/366/4 333/365/4
f 351/384/1 331/386/1 333/356/1 359/355/1
f 356/391/1 342/392/1 338/393/1
f 336/394/1 337/395/1 335/396/1
f 335/397/6 337/398/6 344/399/6
f 346/400/4 336/401/4 335/402/4 344/403/4
f 356/391/1 338/393/1 339/404/1
f 342/405/164 343/406/164 352/407/164 338/408/164
f 343/409/3 353/410/3 352/385/3
f 355/411/112 356/412/112 339/413/112
f 338/414/4 352/415/4 355/416/4 339/401/4
f 346/417/3 348/418/3 341/419/3
f 336/420/165 346/421/165 341/422/165 340/423/165
f 337/395/1 336/394/1 340/424/1
f 341/419/3 348/418/3 353/410/3 343/409/3
f 348/425/2 337/426/2 356/427/2 353/428/2
f 340/423/4 341/422/4 343/406/4 342/405/4
f 337/395/1 340/424/1 342/392/1 356/391/1
f 344/399/6 337/398/6 345/429/6
f 353/430/6 359/431/6 358/432/6 354/433/6
f 347/434/112 348/435/112 346/436/112
f 345/437/166 347/438/166 346/400/166 344/403/166
f 351/439/112 350/440/112 325/441/112
f 347/434/112 350/440/112 351/439/112 348/435/112
f 345/437/4 349/442/4 350/443/4 347/438/4
f 348/444/2 351/445/2 322/446/2 337/447/2
f 350/443/167 349/442/167 324/363/167 325/362/167
f 349/448/6 322/359/6 324/358/6
f 352/449/6 353/430/6 354/433/6
f 357/450/112 356/412/112 355/411/112
f 354/451/166 357/452/166 355/416/166 352/415/166
f 329/359/112 360/453/112 330/373/112
f 357/450/112 360/453/112 329/359/112 356/412/112
f 354/451/4 358/454/4 360/455/4 357/452/4
f 356/456/2 329/457/2 359/458/2 353/459/2
f 360/455/167 358/454/167 327/374/167 330/377/167
f 358/432/6 359/431/6 327/460/6
f 337/398/6 322/359/6 349/448/6 345/429/6
s 1
f 362/461/112 368/462/112 367/463/112 361/464/112
f 368/462/168 369/465/168 320/466/168 365/467/168
f 320/466/110 369/465/110 370/468/110 366/469/110
f 366/469/169 370/468/169 367/463/169 319/470/169
f 364/471/112 369/465/112 368/462/112 362/461/112
f 363/472/112 370/468/112 369/465/112 364/471/112
f 363/472/112 361/464/112 367/463/112 370/468/112
f 368/462/119 365/467/119 319/470/119 367/463/119
f 362/472/158 361/464/163 371/473/163 373/474/158
f 363/464/159 364/472/157 374/474/157 372/473/159
f 361/472/163 363/464/159 372/473/159 371/474/163
f 364/464/157 362/472/158 373/474/158 374/473/157
f 378/475/112 376/476/112 375/477/112 377/478/112
f 379/479/170 380/480/170 373/481/170 371/482/170
f 381/483/171 379/479/171 371/482/171 372/484/171
f 380/480/172 382/485/172 374/486/172 373/481/172
f 382/485/173 381/483/173 372/484/173 374/486/173
f 383/487/112 385/488/112 380/480/112 379/479/112
f 384/489/112 383/487/112 379/479/112 381/483/112
f 385/488/112 386/490/112 382/485/112 380/480/112
f 387/491/174 388/492/174 385/488/174 383/487/174
f 389/493/175 387/491/175 383/487/175 384/489/175
f 388/492/176 390/494/176 386/490/176 385/488/176
f 390/494/177 389/493/177 384/489/177 386/490/177
f 386/490/112 384/489/112 381/483/112 382/485/112
f 375/477/178 376/476/178 388/492/178 387/491/178
f 377/478/179 375/477/179 387/491/179 389/493/179
f 376/476/180 378/475/180 390/494/180 388/492/180
f 378/475/181 377/478/181 389/493/181 390/494/181
f 395/495/182 393/496/182 394/497/182 396/498/182
f 398/499/183 397/500/183 402/501/183 403/502/183
f 394/497/184 393/496/184 406/503/184 391/504/184
f 392/505/185 405/506/185 395/495/185 396/498/185
f 400/507/186 399/508/186 392/505/186 396/498/186
f 398/499/187 394/497/187 391/504/187 397/500/187
f 398/499/107 403/502/107 404/509/107 400/507/107
f 392/505/108 399/508/108 397/500/108 391/504/108
f 394/497/118 398/499/118 400/507/118 396/498/118
f 405/506/188 392/505/188 391/504/188 406/503/188
f 401/510/189 399/508/189 400/507/189 404/509/189
f 399/508/117 401/510/117 402/501/117 397/500/117
f 393/496/190 408/511/190 407/512/190 406/503/190
f 395/495/191 405/506/191 412/513/191 414/514/191
f 395/495/192 414/514/192 408/511/192 393/496/192
f 406/503/193 407/512/193 412/513/193 405/506/193
f 414/515/194 412/516/194 409/517/194 411/518/194
f 413/518/2 416/517/2 407/519/2 408/520/2
f 410/521/1 409/518/1 412/522/1 407/519/1 416/517/1
f 414/515/195 411/518/195 415/521/195 413/517/195 408/523/195
usemtl crt_screen_mp_1
f 34/27/15 79/28/16 76/29/17 32/30/18
f 30/31/19 72/32/20 68/33/21 28/34/22
f 25/35/23 65/36/24 63/37/25 26/38/26
f 84/39/27 36/40/28 38/41/29 88/42/30
f 31/43/31 77/44/32 81/45/33 33/46/34
f 29/47/35 74/48/36 72/32/20 30/31/19
f 23/49/37 61/50/38 65/36/24 25/35/23
f 27/51/39 69/52/40 74/48/36 29/47/35
f 70/53/41 46/54/42 48/55/43 73/56/44
f 88/42/30 38/41/29 37/57/45 90/58/46
f 33/46/34 81/45/33 79/28/16 34/27/15
f 90/58/46 37/57/45 35/59/47 85/60/48
f 23/49/37 28/34/22 68/33/21 61/50/38
f 35/59/47 24/61/49 60/62/50 85/60/48
f 76/29/17 69/52/40 27/51/39 32/30/18
f 31/43/31 36/40/28 84/39/27 77/44/32
f 45/63/51 48/55/43 46/54/42
f 73/56/44 48/55/43 47/64/52 71/65/53
f 45/63/51 47/64/52 48/55/43
f 71/65/53 47/64/52 44/66/54 67/67/55
f 45/63/51 44/66/54 47/64/52
f 39/68/56 59/69/57 64/70/58 41/71/59
f 42/72/60 39/68/56 41/71/59
f 41/71/59 64/70/58 66/73/61 43/74/62
f 42/72/60 41/71/59 43/74/62
f 43/74/62 66/73/61 62/75/63 40/76/64
f 42/72/60 43/74/62 40/76/64
f 86/77/65 56/78/66 58/79/67 89/80/68
f 55/81/69 58/79/67 56/78/66
f 89/80/68 58/79/67 57/82/70 87/83/71
f 55/81/69 57/82/70 58/79/67
f 87/83/71 57/82/70 54/84/72 83/85/73
f 55/81/69 54/84/72 57/82/70
f 49/86/74 75/87/75 80/88/76 52/89/77
f 51/90/78 49/86/74 52/89/77
f 52/89/77 80/88/76 82/91/79 53/92/80
f 51/90/78 52/89/77 53/92/80
f 53/92/80 82/91/79 78/93/81 50/94/82
f 51/90/78 53/92/80 50/94/82
f 40/76/64 62/75/63 67/67/55 44/66/54
f 45/63/51 42/72/60 40/76/64 44/66/54
f 56/78/66 86/77/65 59/69/57 39/68/56
f 42/72/60 55/81/69 56/78/66 39/68/56
f 46/54/42 70/53/41 75/87/75 49/86/74
f 50/94/82 78/93/81 83/85/73 54/84/72
f 46/54/42 49/86/74 51/90/78 45/63/51
f 50/94/82 54/84/72 55/81/69 51/90/78
f 26/38/26 63/37/25 60/62/50 24/61/49
f 74/48/36 69/52/40 70/53/41 73/56/44
f 72/32/20 74/48/36 73/56/44 71/65/53
f 68/33/21 72/32/20 71/65/53 67/67/55
f 60/62/50 63/37/25 64/70/58 59/69/57
f 63/37/25 65/36/24 66/73/61 64/70/58
f 65/36/24 61/50/38 62/75/63 66/73/61
f 90/58/46 85/60/48 86/77/65 89/80/68
f 88/42/30 90/58/46 89/80/68 87/83/71
f 84/39/27 88/42/30 87/83/71 83/85/73
f 76/29/17 79/28/16 80/88/76 75/87/75
f 79/28/16 81/45/33 82/91/79 80/88/76
f 81/45/33 77/44/32 78/93/81 82/91/79
f 67/67/55 62/75/63 61/50/38 68/33/21
f 59/69/57 86/77/65 85/60/48 60/62/50
f 75/87/75 70/53/41 69/52/40 76/29/17
f 83/85/73 78/93/81 77/44/32 84/39/27
f 42/72/60 45/63/51 51/90/78 55/81/69
