# Blender 5.0.1
# www.blender.org
mtllib tv_mp_1.mtl
o tv_mp_1
v -0.242174 0.042829 0.327792
v -0.242174 0.527171 0.327792
v 0.239967 0.045030 0.319993
v 0.242169 0.042829 0.327792
v 0.239967 0.524970 0.319993
v 0.242169 0.527171 0.327792
v -0.247488 0.037515 0.329993
v 0.247482 0.037515 0.329993
v -0.247488 0.532485 0.329993
v 0.247482 0.532485 0.329993
v -0.255003 0.540000 0.322478
v -0.255003 0.030000 0.322478
v 0.254997 0.030000 0.322478
v 0.254997 0.540000 0.322478
v -0.240002 0.525000 0.319993
v -0.240002 0.045000 0.319993
v -0.228001 0.057000 0.317064
v 0.228000 0.057000 0.317064
v -0.228002 0.513000 0.289993
v -0.228002 0.128421 0.292493
v 0.227415 0.512417 0.290317
v -0.228001 0.513000 0.317064
v 0.227998 0.057000 0.292493
v 0.228000 0.513000 0.317064
v 0.227998 0.128421 0.292493
v -0.228002 0.513000 0.292493
v 0.227415 0.512417 0.292817
v -0.228002 0.057000 0.292493
v -0.228002 0.057000 0.309993
v 0.227998 0.128421 0.289993
v -0.228002 0.128421 0.289993
v 0.227998 0.057000 0.309993
v -0.228002 0.118421 0.309993
v 0.227998 0.118421 0.309993
v -0.197085 0.482039 0.292491
v -0.197081 0.159342 0.292517
v 0.197031 0.159342 0.292495
v 0.196541 0.481535 0.292793
v -0.212541 0.143882 0.302505
v -0.212541 0.497520 0.302492
v 0.212515 0.143882 0.302494
v 0.211978 0.496976 0.302805
v -0.182757 0.438074 0.292497
v -0.153135 0.467659 0.292515
v -0.178788 0.452881 0.292498
v -0.167946 0.463709 0.292504
v -0.153153 0.173666 0.292525
v -0.182757 0.203269 0.292524
v -0.167955 0.177632 0.292526
v -0.178791 0.188467 0.292526
v 0.182640 0.203292 0.292525
v 0.153061 0.173666 0.292501
v 0.178694 0.188479 0.292512
v 0.167867 0.177635 0.292503
v 0.152667 0.467268 0.292735
v 0.182284 0.437659 0.292730
v 0.167459 0.463287 0.292742
v 0.178300 0.452449 0.292740
v -0.097274 0.404502 0.326136
v -0.119700 0.382103 0.326123
v -0.108856 0.401367 0.326144
v -0.091937 0.376727 0.328551
v -0.116550 0.393682 0.326139
v -0.119702 0.259141 0.326110
v -0.091921 0.264485 0.328528
v -0.097278 0.236719 0.326111
v -0.116553 0.247562 0.326124
v -0.108858 0.239868 0.326124
v 0.097078 0.236721 0.326135
v 0.119472 0.259148 0.326152
v 0.091699 0.264483 0.328567
v 0.108657 0.239871 0.326152
v 0.116339 0.247565 0.326158
v 0.119289 0.381815 0.326233
v 0.091473 0.376490 0.328629
v 0.096841 0.404257 0.326236
v 0.116124 0.393391 0.326253
v 0.108418 0.401095 0.326254
v -0.116348 0.430876 0.319436
v -0.137622 0.452146 0.306464
v -0.167276 0.422529 0.306446
v -0.146045 0.401218 0.319418
v -0.152412 0.448155 0.306488
v -0.131263 0.426983 0.319403
v -0.163266 0.437314 0.306481
v -0.142132 0.416127 0.319396
v -0.146050 0.240051 0.319414
v -0.167288 0.218771 0.306449
v -0.137651 0.189133 0.306450
v -0.116369 0.210371 0.319415
v -0.142140 0.225145 0.319389
v -0.163282 0.203988 0.306482
v -0.131276 0.214281 0.319390
v -0.152434 0.193140 0.306483
v 0.116198 0.210376 0.319427
v 0.137512 0.189147 0.306453
v 0.167125 0.218804 0.306475
v 0.145850 0.240077 0.319450
v 0.152297 0.193157 0.306489
v 0.131107 0.214289 0.319406
v 0.163136 0.204013 0.306497
v 0.141961 0.225160 0.319414
v 0.145609 0.400896 0.319569
v 0.166829 0.422165 0.306632
v 0.137179 0.451809 0.306636
v 0.115915 0.430582 0.319574
v 0.141680 0.415790 0.319554
v 0.162805 0.436938 0.306674
v 0.130811 0.426656 0.319555
v 0.151952 0.447788 0.306675
v -0.211512 0.086461 0.323993
v -0.206767 0.075006 0.323993
v -0.206767 0.097916 0.323993
v -0.208040 0.073733 0.309993
v -0.213312 0.086461 0.309993
v -0.208040 0.099189 0.309993
v -0.195312 0.070261 0.323993
v -0.183857 0.075006 0.323993
v -0.179112 0.086461 0.323993
v -0.195312 0.102661 0.323993
v -0.183857 0.097916 0.323993
v -0.195312 0.068461 0.309993
v -0.182584 0.073733 0.309993
v -0.195312 0.104461 0.309993
v -0.177312 0.086461 0.309993
v -0.182584 0.099189 0.309993
v 0.033562 0.087241 0.323993
v 0.039255 0.073495 0.323993
v 0.039255 0.100987 0.323993
v 0.037728 0.071968 0.309993
v 0.031402 0.087241 0.309993
v 0.037728 0.102515 0.309993
v 0.053002 0.067801 0.323993
v 0.066748 0.073495 0.323993
v 0.072442 0.087241 0.323993
v 0.053002 0.106681 0.323993
v 0.066748 0.100987 0.323993
v 0.053002 0.065641 0.309993
v 0.068275 0.071968 0.309993
v 0.053002 0.108841 0.309993
v 0.074602 0.087241 0.309993
v 0.068275 0.102515 0.309993
v 0.164214 0.087241 0.323993
v 0.169908 0.073495 0.323993
v 0.169908 0.100987 0.323993
v 0.168381 0.071968 0.309993
v 0.162054 0.087241 0.309993
v 0.168381 0.102515 0.309993
v 0.183654 0.067801 0.323993
v 0.197400 0.073495 0.323993
v 0.203094 0.087241 0.323993
v 0.183654 0.106681 0.323993
v 0.197400 0.100987 0.323993
v 0.183654 0.065641 0.309993
v 0.198928 0.071968 0.309993
v 0.183654 0.108841 0.309993
v 0.205254 0.087241 0.309993
v 0.198928 0.102515 0.309993
v -0.163750 0.086461 0.323993
v -0.159005 0.075006 0.323993
v -0.159005 0.097916 0.323993
v -0.160278 0.073733 0.309993
v -0.165550 0.086461 0.309993
v -0.160278 0.099189 0.309993
v -0.147550 0.070261 0.323993
v -0.136095 0.075006 0.323993
v -0.131350 0.086461 0.323993
v -0.147550 0.102661 0.323993
v -0.136095 0.097916 0.323993
v -0.147550 0.068461 0.309993
v -0.134822 0.073733 0.309993
v -0.147550 0.104461 0.309993
v -0.129550 0.086461 0.309993
v -0.134822 0.099189 0.309993
v 0.081226 0.087241 0.313993
v 0.083504 0.081743 0.313993
v 0.083504 0.092740 0.313993
v 0.082893 0.081132 0.309993
v 0.080362 0.087241 0.309993
v 0.082893 0.093351 0.309993
v 0.089002 0.079465 0.313993
v 0.094501 0.081743 0.313993
v 0.096778 0.087241 0.313993
v 0.089002 0.095017 0.313993
v 0.094501 0.092740 0.313993
v 0.089002 0.078601 0.309993
v 0.095112 0.081132 0.309993
v 0.089002 0.095881 0.309993
v 0.097642 0.087241 0.309993
v 0.095112 0.093351 0.309993
v 0.112629 0.087241 0.313993
v 0.114906 0.081743 0.313993
v 0.114906 0.092740 0.313993
v 0.114295 0.081132 0.309993
v 0.111765 0.087241 0.309993
v 0.114295 0.093351 0.309993
v 0.120405 0.079465 0.313993
v 0.125903 0.081743 0.313993
v 0.128181 0.087241 0.313993
v 0.120405 0.095017 0.313993
v 0.125903 0.092740 0.313993
v 0.120405 0.078601 0.309993
v 0.126514 0.081132 0.309993
v 0.120405 0.095881 0.309993
v 0.129045 0.087241 0.309993
v 0.126514 0.093351 0.309993
v 0.141629 0.087241 0.313993
v 0.143906 0.081743 0.313993
v 0.143906 0.092740 0.313993
v 0.143295 0.081132 0.309993
v 0.140765 0.087241 0.309993
v 0.143295 0.093351 0.309993
v 0.149405 0.079465 0.313993
v 0.154903 0.081743 0.313993
v 0.157181 0.087241 0.313993
v 0.149405 0.095017 0.313993
v 0.154903 0.092740 0.313993
v 0.149405 0.078601 0.309993
v 0.155514 0.081132 0.309993
v 0.149405 0.095881 0.309993
v 0.158045 0.087241 0.309993
v 0.155514 0.093351 0.309993
v -0.000730 0.545845 0.095290
v 0.048179 0.545845 0.115549
v 0.025739 0.545845 0.228360
v -0.000730 0.545845 0.233625
v -0.027199 0.545845 0.228360
v -0.049639 0.545845 0.213367
v -0.064633 0.545845 0.190927
v -0.029528 0.545845 0.094934
v -0.000730 0.545845 0.089206
v 0.028068 0.545845 0.094934
v 0.052481 0.545845 0.111246
v 0.068794 0.545845 0.135660
v 0.074522 0.545845 0.164458
v 0.068794 0.545845 0.193255
v 0.052481 0.545845 0.217669
v 0.028068 0.545845 0.233981
v -0.000730 0.545845 0.239710
v -0.029528 0.545845 0.233981
v -0.053941 0.545845 0.217669
v -0.070254 0.545845 0.193255
v -0.075982 0.545845 0.164458
v -0.070254 0.545845 0.135660
v -0.053941 0.545845 0.111246
v -0.029528 0.540001 0.094934
v -0.000730 0.540001 0.089206
v 0.028068 0.540001 0.094934
v 0.052481 0.540001 0.111246
v 0.068794 0.540001 0.135660
v 0.074522 0.540001 0.164458
v 0.068794 0.540001 0.193255
v 0.052481 0.540001 0.217669
v 0.028068 0.540001 0.233981
v -0.000730 0.540001 0.239710
v -0.029528 0.540001 0.233981
v -0.053941 0.540001 0.217669
v -0.070254 0.540001 0.193255
v -0.075982 0.540001 0.164458
v -0.070254 0.540001 0.135660
v -0.053941 0.540001 0.111246
v -0.027199 0.545845 0.100555
v 0.025739 0.545845 0.100555
v 0.063173 0.545845 0.137988
v 0.068438 0.545845 0.164458
v 0.063173 0.545845 0.190927
v 0.048179 0.545845 0.213367
v -0.069898 0.545845 0.164458
v -0.064632 0.545845 0.137988
v -0.049639 0.545845 0.115549
v -0.013676 0.562943 0.133203
v 0.012216 0.562943 0.133203
v 0.030525 0.562943 0.151511
v 0.030525 0.562943 0.177404
v 0.012216 0.562943 0.195713
v -0.013676 0.562943 0.195713
v -0.031985 0.562943 0.177404
v -0.031985 0.562943 0.151511
v -0.008173 0.574717 0.145260
v 0.008329 0.574717 0.145260
v 0.008329 0.574717 0.185101
v -0.008173 0.574717 0.185101
v -0.008173 0.562943 0.145260
v 0.008329 0.562943 0.145260
v 0.019999 0.562943 0.156929
v 0.019999 0.562943 0.173432
v 0.008329 0.562943 0.185101
v -0.008173 0.562943 0.185101
v -0.019842 0.562943 0.173432
v -0.019842 0.562943 0.156929
v -0.019842 0.574717 0.156929
v -0.019842 0.574717 0.173432
v 0.019999 0.574717 0.173432
v 0.019999 0.574717 0.156929
v 0.210442 0.781501 0.168172
v 0.213217 0.778726 0.168172
v 0.213217 0.778726 0.162169
v 0.210442 0.781501 0.162169
v -0.174964 0.746117 0.162189
v -0.177739 0.743342 0.162189
v -0.177739 0.743342 0.168192
v -0.174964 0.746117 0.168192
v -0.015727 0.580086 0.161304
v -0.011714 0.584098 0.161304
v -0.015727 0.580086 0.169057
v -0.011714 0.584098 0.169057
v 0.015877 0.580086 0.169057
v 0.011865 0.584098 0.169057
v 0.015877 0.580086 0.161304
v 0.011865 0.584098 0.161304
v -0.177805 0.750347 0.160688
v -0.181968 0.746184 0.160688
v -0.181968 0.746184 0.169693
v -0.177805 0.750347 0.169693
v -0.181341 0.753882 0.160688
v -0.185504 0.749720 0.160688
v -0.185504 0.749720 0.169693
v -0.181341 0.753882 0.169693
v 0.213285 0.785730 0.169673
v 0.217448 0.781567 0.169673
v 0.217448 0.781567 0.160669
v 0.213285 0.785730 0.160669
v 0.216820 0.789266 0.169673
v 0.220983 0.785103 0.169673
v 0.220983 0.785103 0.160669
v 0.216820 0.789266 0.160669
v 0.016496 0.574717 0.160429
v 0.016496 0.574717 0.169932
v -0.016345 0.574717 0.169932
v -0.016345 0.574717 0.160429
v -0.011095 0.584717 0.160429
v -0.016345 0.579467 0.160429
v -0.016345 0.579467 0.169932
v -0.011095 0.584717 0.169932
v 0.011246 0.584717 0.169932
v 0.016496 0.579467 0.169932
v 0.016496 0.579467 0.160429
v 0.011246 0.584717 0.160429
v -0.229999 0.000000 0.304999
v -0.229999 0.030000 0.304999
v -0.229999 0.000000 0.284999
v -0.209999 0.000000 0.304999
v -0.209999 0.000000 0.284999
v -0.229999 0.000000 0.044999
v -0.209999 0.000000 0.044999
v -0.229999 0.000000 0.024999
v -0.229999 0.030000 0.024999
v -0.209999 0.000000 0.024999
v -0.209999 0.010000 0.264999
v -0.229999 0.010000 0.264999
v -0.209999 0.010000 0.064999
v -0.229999 0.010000 0.064999
v 0.230001 0.000000 0.304999
v 0.230001 0.000000 0.284999
v 0.230001 0.030000 0.305000
v 0.230001 0.000000 0.044999
v 0.230001 0.000000 0.024999
v 0.230001 0.010000 0.264999
v 0.210001 0.010000 0.264999
v 0.230001 0.010000 0.064999
v 0.210001 0.010000 0.064999
v 0.210001 0.000000 0.304999
v 0.190001 0.010000 0.304999
v 0.210001 0.000000 0.284999
v 0.190001 0.010000 0.284999
v 0.210001 0.030000 0.284999
v -0.189999 0.010000 0.304999
v -0.189999 0.010000 0.284999
v -0.210000 0.030000 0.284999
v 0.210001 0.000000 0.044999
v 0.210001 0.030000 0.044999
v 0.190001 0.010000 0.044999
v 0.210001 0.000000 0.024999
v 0.230001 0.030000 0.024999
v 0.190001 0.010000 0.024999
v -0.189999 0.010000 0.044999
v -0.210000 0.030000 0.044999
v -0.189999 0.010000 0.024999
v -0.228874 0.513985 -0.000006
v -0.228874 0.059899 -0.000006
v 0.224831 0.513985 -0.000006
v 0.224831 0.059899 -0.000007
v -0.255003 0.030000 0.007508
v -0.255003 0.540000 0.007508
v 0.254997 0.540000 0.007508
v 0.254997 0.030000 0.007508
v -0.247488 0.532485 -0.000007
v -0.247488 0.037515 -0.000007
v 0.247482 0.037515 -0.000007
v 0.247482 0.532485 -0.000007
v -0.228874 0.513985 0.004994
v 0.224831 0.513985 0.004994
v -0.228874 0.059899 0.004994
v 0.224831 0.059899 0.004993
v -0.076374 0.361485 -0.088322
v -0.076374 0.212399 -0.088322
v 0.072331 0.361485 -0.088322
v 0.072331 0.212399 -0.088322
v -0.181374 0.466485 -0.035006
v -0.181374 0.107399 -0.035006
v 0.177331 0.466485 -0.035006
v 0.177331 0.107399 -0.035007
v -0.117624 0.402735 -0.035006
v 0.113581 0.402735 -0.035006
v -0.117624 0.171149 -0.035006
v 0.113581 0.171149 -0.035007
v -0.096374 0.381485 -0.055006
v -0.096374 0.192399 -0.055006
v 0.092331 0.381485 -0.055006
v 0.092331 0.192399 -0.055007
vn 1.0000 -0.0000 -0.0000
vn -0.9624 -0.0000 0.2716
vn -0.0000 1.0000 -0.0000
vn -0.0000 -0.7071 0.7071
vn -0.0000 0.9629 0.2699
vn -0.0000 -0.9629 0.2699
vn -0.0000 -0.3827 0.9239
vn -0.0000 0.3827 0.9239
vn 0.7071 -0.0000 0.7071
vn 0.3827 -0.0000 0.9239
vn -0.3827 -0.0000 0.9239
vn 0.9633 -0.0000 0.2683
vn -0.0000 0.7071 0.7071
vn -1.0000 -0.0000 -0.0000
vn -0.0000 -1.0000 -0.0000
vn -0.7071 -0.0000 0.7071
vn -0.0000 0.2374 0.9714
vn -0.0000 -0.2374 0.9714
vn -0.2377 -0.0000 0.9713
vn 0.2371 -0.0000 0.9715
vn -0.0006 -0.9999 0.0108
vn -1.0000 -0.0006 0.0097
vn -0.0004 0.0061 1.0000
vn -0.0000 -0.0000 1.0000
vn -0.0000 0.8944 0.4472
vn -0.5433 -0.0000 0.8395
vn -0.0000 -0.5434 0.8395
vn 0.5429 0.0001 0.8398
vn 0.0001 0.5429 0.8398
vn -0.0013 -0.5434 0.8395
vn -0.5433 -0.0016 0.8395
vn -0.0000 0.5429 0.8398
vn 0.2878 -0.4654 0.8370
vn 0.2384 -0.4311 0.8703
vn 0.0660 -0.5587 0.8268
vn 0.1052 -0.6053 0.7890
vn -0.4653 -0.2877 0.8371
vn -0.4308 -0.2384 0.8704
vn -0.5585 -0.0659 0.8269
vn -0.6052 -0.1051 0.7891
vn -0.4654 0.2878 0.8370
vn -0.4310 0.2384 0.8703
vn -0.2384 0.4307 0.8704
vn -0.2877 0.4652 0.8371
vn 0.5579 0.0662 0.8273
vn 0.6047 0.1053 0.7895
vn 0.4650 0.2876 0.8373
vn 0.4304 0.2383 0.8706
vn 0.6049 -0.1049 0.7894
vn 0.5581 -0.0658 0.8272
vn 0.4307 -0.2384 0.8704
vn 0.4652 -0.2877 0.8371
vn -0.2878 -0.4653 0.8371
vn -0.2384 -0.4308 0.8704
vn -0.6053 0.1052 0.7890
vn -0.5586 0.0660 0.8268
vn -0.1051 -0.6052 0.7891
vn -0.0660 -0.5585 0.8269
vn -0.0377 -0.3713 0.9278
vn -0.0160 -0.1654 0.9861
vn -0.0710 -0.1320 0.9887
vn -0.1530 -0.2856 0.9461
vn 0.2876 0.4649 0.8373
vn 0.2383 0.4303 0.8706
vn 0.1053 0.6046 0.7895
vn 0.0661 0.5579 0.8273
vn -0.1049 0.6049 0.7894
vn -0.0658 0.5581 0.8272
vn -0.0347 -0.0347 0.9988
vn -0.1320 -0.0710 0.9887
vn -0.2856 -0.1529 0.9461
vn -0.1654 -0.0160 0.9861
vn -0.3713 -0.0377 0.9278
vn -0.0163 0.1649 0.9862
vn -0.0377 0.3708 0.9279
vn -0.1531 0.2855 0.9461
vn -0.0713 0.1319 0.9887
vn -0.0348 0.0342 0.9988
vn -0.2859 0.1529 0.9460
vn -0.1324 0.0708 0.9887
vn -0.3714 0.0376 0.9277
vn -0.1655 0.0159 0.9861
vn 0.0376 0.3705 0.9281
vn 0.0156 0.1646 0.9862
vn 0.0705 0.1313 0.9888
vn 0.1526 0.2850 0.9463
vn 0.0340 0.0340 0.9988
vn 0.1314 0.0703 0.9888
vn 0.2851 0.1526 0.9463
vn 0.1647 0.0155 0.9862
vn 0.3706 0.0375 0.9280
vn 0.0158 -0.1656 0.9861
vn 0.0376 -0.3715 0.9277
vn 0.1529 -0.2860 0.9460
vn 0.0708 -0.1325 0.9886
vn 0.0342 -0.0349 0.9988
vn 0.2855 -0.1531 0.9461
vn 0.1319 -0.0714 0.9887
vn 0.3708 -0.0378 0.9279
vn 0.1649 -0.0164 0.9862
vn -0.0000 -0.9918 0.1275
vn -0.7013 -0.7013 0.1275
vn -0.9918 -0.0000 0.1275
vn -0.0000 0.9918 0.1275
vn -0.7013 0.7013 0.1275
vn 0.7013 -0.7013 0.1275
vn 0.9918 -0.0000 0.1275
vn 0.7013 0.7013 0.1275
vn -0.0000 -0.9883 0.1525
vn -0.6988 -0.6988 0.1525
vn -0.9883 -0.0000 0.1525
vn -0.0000 0.9883 0.1525
vn -0.6988 0.6988 0.1525
vn 0.6988 -0.6988 0.1525
vn 0.9883 -0.0000 0.1525
vn 0.6988 0.6988 0.1525
vn -0.0000 -0.9775 0.2111
vn -0.6912 -0.6912 0.2111
vn -0.9775 -0.0000 0.2111
vn -0.0000 0.9775 0.2111
vn -0.6912 0.6912 0.2111
vn 0.6912 -0.6912 0.2111
vn 0.9775 -0.0000 0.2111
vn 0.6912 0.6912 0.2111
vn 0.3827 -0.0000 -0.9239
vn 0.7071 -0.0000 -0.7071
vn -0.3827 -0.0000 -0.9239
vn -0.0000 -0.0000 -1.0000
vn 0.9239 -0.0000 0.3827
vn -0.9239 -0.0000 0.3827
vn -0.9239 -0.0000 -0.3827
vn 0.9239 -0.0000 -0.3827
vn -0.7071 -0.0000 -0.7071
vn -0.3716 0.9155 -0.1539
vn -0.1539 0.9155 -0.3716
vn -0.3042 0.9027 -0.3042
vn -0.3716 0.9155 0.1539
vn -0.4303 0.9027 -0.0000
vn 0.1539 0.9155 -0.3716
vn 0.3716 0.9155 -0.1539
vn 0.3042 0.9027 -0.3042
vn -0.3042 0.9027 0.3042
vn -0.4024 0.9002 0.1667
vn -0.1667 0.9002 0.4024
vn -0.1539 0.9155 0.3716
vn 0.1539 0.9155 0.3716
vn 0.1667 0.9002 0.4024
vn 0.3042 0.9027 0.3042
vn -0.0000 0.9027 -0.4303
vn 0.3716 0.9155 0.1539
vn 0.4303 0.9027 -0.0000
vn 0.4024 0.9002 0.1667
vn -0.4024 0.9002 -0.1667
vn -0.0000 0.9027 0.4303
vn -0.1667 0.9002 -0.4024
vn 0.1667 0.9002 -0.4024
vn 0.4024 0.9002 -0.1667
vn -0.7050 0.7092 -0.0000
vn -0.2033 -0.2033 0.9578
vn 0.7094 -0.7048 -0.0000
vn 0.0022 0.0022 -1.0000
vn 0.8301 0.5577 -0.0000
vn -0.0027 0.0027 1.0000
vn 0.7044 0.7098 -0.0000
vn -0.7098 -0.7044 -0.0000
vn 0.0022 0.0022 1.0000
vn -0.0027 0.0027 -1.0000
vn -0.5577 -0.8300 -0.0000
vn 0.2033 -0.2033 0.9578
vn 0.2033 -0.2033 -0.9578
vn -0.7071 0.7071 -0.0000
vn 0.7071 0.7071 -0.0000
vn -0.7071 -0.7071 -0.0000
vn -0.8299 0.5579 -0.0000
vn 0.5576 -0.8301 -0.0000
vn -0.2032 -0.2032 -0.9578
vn 0.7071 -0.7071 -0.0000
vn -0.0000 -0.8944 0.4472
vn -0.0000 -0.8944 -0.4472
vn -0.4472 -0.8944 -0.0000
vn 0.4472 -0.8944 -0.0000
vn -0.0000 -0.7071 -0.7071
vn -0.0000 0.7071 -0.7071
vn -0.6441 -0.0000 -0.7649
vn -0.0000 0.6441 -0.7649
vn -0.0000 -0.6441 -0.7649
vn 0.6441 -0.0000 -0.7649
vn -0.6854 -0.0000 -0.7282
vn -0.0000 0.6854 -0.7282
vn -0.0000 -0.6854 -0.7282
vn 0.6854 -0.0000 -0.7282
vn -0.8574 -0.0000 -0.5147
vn -0.0000 0.8574 -0.5147
vn -0.0000 -0.8574 -0.5147
vn 0.8574 -0.0000 -0.5147
vt 0.997175 0.666667
vt 0.997175 0.995272
vt 0.802260 0.995272
vt 0.802260 0.666667
vt 0.386650 0.989976
vt 0.386650 0.676859
vt 0.388403 0.675391
vt 0.388403 0.991444
vt 0.392639 0.671847
vt 0.005989 0.671847
vt 0.000000 0.666835
vt 0.398628 0.666835
vt 0.011955 0.676839
vt 0.010223 0.675391
vt 0.010223 0.991444
vt 0.011955 0.989996
vt 0.392639 0.994988
vt 0.005989 0.994988
vt 0.398628 1.000000
vt 0.000000 1.000000
vt 0.377160 0.684818
vt 0.021469 0.684818
vt 0.021469 0.982017
vt 0.377160 0.982017
vt 0.403956 0.703140
vt 0.404171 0.965199
vt 0.420904 0.964539
vt 0.420904 0.702128
vt 0.403956 0.963525
vt 0.404192 0.701466
vt 0.420904 0.924350
vt 0.404161 0.701455
vt 0.404201 0.965209
vt 0.048028 0.744139
vt 0.353107 0.744144
vt 0.353107 0.956909
vt 0.048023 0.956909
vt 0.353107 0.744143
vt 0.048023 0.744143
vt 0.047983 0.704596
vt 0.353075 0.704602
vt 0.432203 0.546099
vt 0.432203 0.560284
vt 0.737288 0.560284
vt 0.737288 0.546099
vt 0.353107 0.704492
vt 0.353107 0.744681
vt 0.048023 0.744681
vt 0.048023 0.704492
vt 0.058369 0.752699
vt 0.058377 0.948353
vt 0.342761 0.752707
vt 0.342753 0.948345
vt 0.068731 0.939798
vt 0.332399 0.939781
vt 0.332414 0.761271
vt 0.068716 0.761255
vt 0.959566 0.013501
vt 0.916964 0.066298
vt 0.876490 0.052657
vt 0.919051 0.000000
vt 0.010856 0.050346
vt 0.053297 0.103138
vt 0.042341 0.153420
vt 0.000000 0.100691
vt 0.010856 0.949731
vt 0.053337 0.896783
vt 0.083056 0.933657
vt 0.040535 0.986565
vt 0.956737 0.845255
vt 0.999017 0.897956
vt 0.988121 0.948265
vt 0.945700 0.895503
vt 1.000000 0.100770
vt 0.957519 0.153534
vt 0.946623 0.103221
vt 0.989205 0.050385
vt 0.040515 0.013490
vt 0.082976 0.066238
vt 0.000000 0.899368
vt 0.042381 0.846491
vt 0.081029 0.000000
vt 0.123450 0.052610
vt 0.181684 0.124849
vt 0.233937 0.214469
vt 0.202251 0.225181
vt 0.140888 0.138150
vt 0.958442 0.985128
vt 0.916021 0.932409
vt 0.917947 0.998668
vt 0.875567 0.946086
vt 0.081069 1.000000
vt 0.123530 0.947234
vt 0.248605 0.308915
vt 0.181182 0.251352
vt 0.111149 0.175102
vt 0.172553 0.290738
vt 0.100454 0.225805
vt 0.233937 0.785177
vt 0.181743 0.874884
vt 0.140928 0.861642
vt 0.202251 0.774510
vt 0.248565 0.690700
vt 0.111169 0.824717
vt 0.181202 0.748372
vt 0.100473 0.774004
vt 0.172573 0.708986
vt 0.817374 0.873884
vt 0.765181 0.784340
vt 0.796886 0.773587
vt 0.858149 0.860531
vt 0.750512 0.689894
vt 0.817956 0.747380
vt 0.887888 0.823572
vt 0.826604 0.708006
vt 0.898644 0.772909
vt 0.765822 0.214476
vt 0.818157 0.124865
vt 0.858952 0.138176
vt 0.797528 0.225191
vt 0.751114 0.308908
vt 0.888671 0.175154
vt 0.818558 0.251362
vt 0.899306 0.225892
vt 0.827106 0.290762
vt 0.497839 0.607504
vt 0.478118 0.624008
vt 0.450228 0.624008
vt 0.430507 0.607504
vt 0.430507 0.584164
vt 0.450228 0.567660
vt 0.478118 0.567660
vt 0.497839 0.584164
vt 0.475024 0.629099
vt 0.475086 0.643702
vt 0.489842 0.643702
vt 0.489842 0.629099
vt 0.504659 0.643702
vt 0.504659 0.629099
vt 0.534295 0.643702
vt 0.534295 0.629099
vt 0.519477 0.629099
vt 0.519477 0.643702
vt 0.593504 0.643702
vt 0.593566 0.629099
vt 0.578749 0.629099
vt 0.578748 0.643702
vt 0.563931 0.629099
vt 0.563931 0.643702
vt 0.549113 0.643702
vt 0.549113 0.629099
vt 0.500350 0.607671
vt 0.479158 0.625406
vt 0.449188 0.625406
vt 0.427996 0.607671
vt 0.427996 0.582590
vt 0.449188 0.564855
vt 0.479158 0.564855
vt 0.500350 0.582590
vt 0.483538 0.601525
vt 0.472260 0.610964
vt 0.456309 0.610964
vt 0.445031 0.601525
vt 0.445031 0.588177
vt 0.456309 0.578738
vt 0.472260 0.578738
vt 0.483538 0.588177
vt 0.508775 0.610135
vt 0.508837 0.621761
vt 0.523593 0.621761
vt 0.523593 0.610135
vt 0.538410 0.621761
vt 0.538410 0.610135
vt 0.568046 0.621761
vt 0.568046 0.610135
vt 0.553228 0.610135
vt 0.553228 0.621761
vt 0.627255 0.621761
vt 0.627317 0.610135
vt 0.612499 0.610135
vt 0.612499 0.621761
vt 0.597681 0.610135
vt 0.597681 0.621761
vt 0.582864 0.621761
vt 0.582864 0.610135
vt 0.583526 0.298385
vt 0.583526 0.302204
vt 0.608364 0.302204
vt 0.608364 0.298385
vt 0.483051 0.307310
vt 0.508475 0.307310
vt 0.508475 0.302582
vt 0.483051 0.302582
vt 0.533898 0.307310
vt 0.559322 0.307310
vt 0.559322 0.302582
vt 0.533898 0.302582
vt 0.607345 0.307310
vt 0.632768 0.307310
vt 0.632768 0.302582
vt 0.607345 0.302582
vt 0.435028 0.307310
vt 0.460452 0.307310
vt 0.460452 0.302582
vt 0.435028 0.302582
vt 0.584746 0.307310
vt 0.584746 0.302582
vt 0.459338 0.298385
vt 0.459338 0.302204
vt 0.484176 0.302204
vt 0.484176 0.298385
vt 0.633202 0.302204
vt 0.633202 0.298385
vt 0.608364 0.298385
vt 0.608364 0.302204
vt 0.633202 0.302204
vt 0.633202 0.298385
vt 0.533851 0.298385
vt 0.533851 0.302204
vt 0.558689 0.302204
vt 0.558689 0.298385
vt 0.509014 0.298385
vt 0.509014 0.302204
vt 0.533851 0.302204
vt 0.533851 0.298385
vt 0.558689 0.302204
vt 0.558689 0.298385
vt 0.509013 0.298385
vt 0.509013 0.302204
vt 0.434501 0.298385
vt 0.434501 0.302204
vt 0.583526 0.302204
vt 0.583526 0.298385
vt 0.462026 0.233895
vt 0.474122 0.249039
vt 0.439568 0.257415
vt 0.466267 0.216028
vt 0.430512 0.219369
vt 0.495471 0.252589
vt 0.513568 0.242467
vt 0.523575 0.271387
vt 0.456259 0.187108
vt 0.439525 0.201081
vt 0.478086 0.179514
vt 0.484363 0.205906
vt 0.505712 0.209456
vt 0.523571 0.187080
vt 0.540267 0.201080
vt 0.478113 0.278960
vt 0.517809 0.224600
vt 0.549323 0.239125
vt 0.549344 0.219344
vt 0.430490 0.239151
vt 0.501722 0.179535
vt 0.456264 0.271415
vt 0.516949 0.468085
vt 0.516949 0.477541
vt 0.531073 0.477541
vt 0.531073 0.468085
vt 0.505650 0.468085
vt 0.505650 0.477541
vt 0.435028 0.468085
vt 0.435028 0.477541
vt 0.449153 0.477541
vt 0.449153 0.468085
vt 0.571173 0.460104
vt 0.557220 0.460104
vt 0.547353 0.451847
vt 0.547353 0.440169
vt 0.557220 0.431912
vt 0.571173 0.431912
vt 0.581040 0.440169
vt 0.581040 0.451847
vt 0.477401 0.468085
vt 0.477401 0.477541
vt 0.491525 0.477541
vt 0.491525 0.468085
vt 0.463277 0.477541
vt 0.463277 0.468085
vt 0.545198 0.477541
vt 0.545198 0.468085
vt 0.501749 0.278981
vt 0.540310 0.257414
vt 0.680128 0.504143
vt 0.680128 0.509629
vt 0.443375 0.509003
vt 0.443375 0.504755
vt 0.664184 0.522375
vt 0.664184 0.525152
vt 0.659769 0.525847
vt 0.659769 0.521681
vt 0.680128 0.516001
vt 0.680128 0.510515
vt 0.443375 0.511126
vt 0.443375 0.515374
vt 0.680234 0.496594
vt 0.680234 0.500610
vt 0.443481 0.500022
vt 0.443481 0.497245
vt 0.678514 0.537280
vt 0.678514 0.533032
vt 0.674206 0.531971
vt 0.674206 0.538342
vt 0.638668 0.523366
vt 0.638668 0.519351
vt 0.444192 0.519966
vt 0.444192 0.522743
vt 0.638615 0.535939
vt 0.638615 0.530453
vt 0.444139 0.531079
vt 0.444139 0.535327
vt 0.638615 0.530453
vt 0.638615 0.535939
vt 0.443481 0.493078
vt 0.680234 0.492490
vt 0.680234 0.496505
vt 0.443481 0.495855
vt 0.444192 0.526909
vt 0.638668 0.527524
vt 0.638668 0.523508
vt 0.444192 0.524132
vt 0.674153 0.525391
vt 0.674153 0.521225
vt 0.669925 0.521225
vt 0.669925 0.525391
vt 0.674206 0.538342
vt 0.674206 0.531971
vt 0.678567 0.524696
vt 0.678567 0.521919
vt 0.678567 0.528862
vt 0.678567 0.526085
vt 0.674153 0.525391
vt 0.674153 0.529557
vt 0.661499 0.531467
vt 0.669112 0.531467
vt 0.669112 0.535633
vt 0.661499 0.535633
vt 0.669926 0.525391
vt 0.669926 0.529557
vt 0.669978 0.531971
vt 0.669978 0.538342
vt 0.669978 0.538342
vt 0.669978 0.531971
vt 0.655542 0.525847
vt 0.655542 0.521681
vt 0.654313 0.524286
vt 0.654313 0.528534
vt 0.650004 0.529596
vt 0.650004 0.523224
vt 0.654313 0.534906
vt 0.654313 0.530658
vt 0.650004 0.529596
vt 0.650004 0.535968
vt 0.664184 0.526542
vt 0.664184 0.529319
vt 0.659769 0.530013
vt 0.653885 0.535633
vt 0.653885 0.531467
vt 0.645776 0.529596
vt 0.645776 0.523224
vt 0.645776 0.535968
vt 0.655542 0.530013
vt 0.655542 0.525847
vt 0.683545 0.529555
vt 0.683545 0.536279
vt 0.679529 0.536279
vt 0.679529 0.529555
vt 0.682784 0.535373
vt 0.655015 0.535373
vt 0.655015 0.532012
vt 0.659454 0.528297
vt 0.678345 0.528297
vt 0.682784 0.532012
vt 0.654361 0.536279
vt 0.654361 0.529555
vt 0.673251 0.529555
vt 0.673251 0.536279
vt 0.659454 0.528297
vt 0.644067 0.536279
vt 0.644067 0.529555
vt 0.648083 0.529555
vt 0.648083 0.536279
vt 0.773798 0.698937
vt 0.796875 0.698937
vt 0.773798 0.711812
vt 0.796875 0.821187
vt 0.781490 0.834063
vt 0.773798 0.821188
vt 0.773798 0.700749
vt 0.796875 0.687874
vt 0.773798 0.687874
vt 0.958984 0.686355
vt 0.958984 0.699230
vt 0.943600 0.699230
vt 0.943600 0.686355
vt 0.943600 0.884688
vt 0.958984 0.884688
vt 0.958984 0.899082
vt 0.943600 0.899082
vt 0.781490 0.853438
vt 0.796875 0.879188
vt 0.773798 0.866313
vt 0.773798 0.687874
vt 0.773798 0.700750
vt 0.943600 0.699230
vt 0.943600 0.686355
vt 0.958984 0.686355
vt 0.958984 0.699230
vt 0.773798 0.879188
vt 0.781490 0.724687
vt 0.943600 0.741543
vt 0.958984 0.741543
vt 0.958984 0.755937
vt 0.943600 0.755937
vt 0.796875 0.975688
vt 0.773798 0.975688
vt 0.781490 0.962813
vt 0.943600 0.761437
vt 0.958984 0.774312
vt 0.958984 0.928813
vt 0.943600 0.941688
vt 0.796875 0.698937
vt 0.773798 0.866313
vt 0.796875 0.879188
vt 0.773798 0.879188
vt 0.773798 0.984001
vt 0.796875 0.984001
vt 0.773798 0.971126
vt 0.958984 0.972645
vt 0.958984 0.985520
vt 0.943600 0.985520
vt 0.943600 0.972645
vt 0.943599 0.884688
vt 0.958984 0.884688
vt 0.958984 0.899083
vt 0.943599 0.899082
vt 0.796875 0.975688
vt 0.943600 0.985520
vt 0.943600 0.972645
vt 0.958984 0.972645
vt 0.773798 0.821187
vt 0.796875 0.821187
vt 0.781490 0.834062
vt 0.943599 0.741543
vt 0.958984 0.741543
vt 0.958984 0.755937
vt 0.943599 0.755937
vt 0.781490 0.853438
vt 0.958984 0.774312
vt 0.943599 0.761437
vt 0.943599 0.941688
vt 0.958984 0.928813
vt 0.781490 0.958251
vt 0.796875 0.971126
vt 0.796875 0.700750
vt 0.781490 0.713625
vt 0.781490 0.958251
vt 0.781490 0.958251
vt 0.796875 0.971126
vt 0.773798 0.971126
vt 0.943600 0.958250
vt 0.958984 0.958250
vt 0.796875 0.700749
vt 0.781490 0.713625
vt 0.773798 0.700750
vt 0.943600 0.713625
vt 0.958984 0.713625
vt 0.958984 0.971126
vt 0.958984 0.700749
vt 0.943600 0.687874
vt 0.943599 0.984001
vt 0.781490 0.713625
vt 0.781490 0.958250
vt 0.943600 0.958251
vt 0.958984 0.958251
vt 0.781490 0.713625
vt 0.943600 0.984001
vt 0.943600 0.687874
vt 0.958984 0.700749
vt 0.958984 0.971126
vt 0.773798 0.700750
vt 0.774011 0.687943
vt 0.788136 0.673759
vt 0.788136 0.992908
vt 0.774011 0.981087
vt 0.788055 0.673786
vt 0.406173 0.673786
vt 0.400375 0.668934
vt 0.793852 0.668934
vt 0.406173 0.993375
vt 0.400375 0.998227
vt 0.788055 0.993375
vt 0.793852 0.998227
vt 0.423729 0.687943
vt 0.406780 0.673759
vt 0.423729 0.981087
vt 0.406780 0.992908
vt 0.774011 0.985816
vt 0.423729 0.985816
vt 0.541466 0.786393
vt 0.656274 0.786393
vt 0.656274 0.882638
vt 0.541466 0.882638
vt 0.737339 0.950423
vt 0.737339 0.718608
vt 0.460401 0.950423
vt 0.460401 0.718608
vt 0.686194 0.907657
vt 0.686194 0.761374
vt 0.511546 0.907657
vt 0.511546 0.761374
vt 0.670445 0.894488
vt 0.670445 0.774543
vt 0.527295 0.894488
vt 0.527295 0.774543
s 1
usemtl tvs_mp_1
f 386/1/1 385/2/1 14/3/1 13/4/1
f 5/5/2 3/6/2 4/7/2 6/8/2
f 384/4/3 11/1/3 14/2/3 385/3/3
f 8/9/4 7/10/4 12/11/4 13/12/4
f 4/7/5 3/6/5 16/13/5 1/14/5
f 2/15/6 15/16/6 5/5/6 6/8/6
f 10/17/7 9/18/7 2/15/7 6/8/7
f 8/9/8 4/7/8 1/14/8 7/10/8
f 8/9/9 13/12/9 14/19/9 10/17/9
f 2/15/10 9/18/10 7/10/10 1/14/10
f 4/7/11 8/9/11 10/17/11 6/8/11
f 15/16/12 2/15/12 1/14/12 16/13/12
f 11/20/13 9/18/13 10/17/13 14/19/13
f 383/1/14 12/4/14 11/3/14 384/2/14
f 386/3/15 13/2/15 12/1/15 383/4/15
f 9/18/16 11/20/16 12/11/16 7/10/16
f 3/6/17 18/21/17 17/22/17 16/13/17
f 5/5/18 15/16/18 22/23/18 24/24/18
f 5/5/19 24/24/19 18/21/19 3/6/19
f 16/13/20 17/22/20 22/23/20 15/16/20
f 24/25/21 22/26/21 19/27/21 21/28/21
f 23/28/3 28/27/3 17/29/3 18/30/3
f 20/31/1 19/28/1 22/32/1 17/29/1 28/27/1
f 24/25/22 21/28/22 25/31/22 23/27/22 18/33/22
f 20/34/23 25/35/23 21/36/23 19/37/23
f 25/38/24 20/39/24 28/40/24 23/41/24
f 34/42/25 30/43/25 31/44/25 33/45/25
f 32/46/24 34/47/24 33/48/24 29/49/24
f 39/50/26 40/51/26 26/37/26 20/39/26
f 41/52/27 39/50/27 20/39/27 25/38/27
f 42/53/28 41/52/28 25/38/28 27/36/28
f 40/51/29 42/53/29 27/36/29 26/37/29
f 35/54/30 38/55/30 42/53/30 40/51/30
f 38/55/31 37/56/31 41/52/31 42/53/31
f 37/56/32 36/57/32 39/50/32 41/52/32
f 36/57/28 35/54/28 40/51/28 39/50/28
f 117/126/24 118/127/24 119/128/24 121/129/24 120/130/24 113/131/24 111/132/24 112/133/24
f 122/134/101 117/135/101 112/136/102 114/137/102
f 114/137/102 112/136/102 111/138/103 115/139/103
f 120/140/104 124/141/104 116/142/105 113/143/105
f 113/143/105 116/142/105 115/139/103 111/138/103
f 117/144/101 122/145/101 123/146/106 118/147/106
f 118/147/106 123/146/106 125/148/107 119/149/107
f 124/141/104 120/140/104 121/150/108 126/151/108
f 126/151/108 121/150/108 119/149/107 125/148/107
f 133/152/24 134/153/24 135/154/24 137/155/24 136/156/24 129/157/24 127/158/24 128/159/24
f 138/134/109 133/135/109 128/136/110 130/137/110
f 130/137/110 128/136/110 127/138/111 131/139/111
f 136/140/112 140/141/112 132/142/113 129/143/113
f 129/143/113 132/142/113 131/139/111 127/138/111
f 133/144/109 138/145/109 139/146/114 134/147/114
f 134/147/114 139/146/114 141/148/115 135/149/115
f 140/141/112 136/140/112 137/150/116 142/151/116
f 142/151/116 137/150/116 135/149/115 141/148/115
f 149/126/24 150/127/24 151/128/24 153/129/24 152/130/24 145/131/24 143/132/24 144/133/24
f 154/134/109 149/135/109 144/136/110 146/137/110
f 146/137/110 144/136/110 143/138/111 147/139/111
f 152/140/112 156/141/112 148/142/113 145/143/113
f 145/143/113 148/142/113 147/139/111 143/138/111
f 149/144/109 154/145/109 155/146/114 150/147/114
f 150/147/114 155/146/114 157/148/115 151/149/115
f 156/141/112 152/140/112 153/150/116 158/151/116
f 158/151/116 153/150/116 151/149/115 157/148/115
f 165/126/24 166/127/24 167/128/24 169/129/24 168/130/24 161/131/24 159/132/24 160/133/24
f 170/134/101 165/135/101 160/136/102 162/137/102
f 162/137/102 160/136/102 159/138/103 163/139/103
f 168/140/104 172/141/104 164/142/105 161/143/105
f 161/143/105 164/142/105 163/139/103 159/138/103
f 165/144/101 170/145/101 171/146/106 166/147/106
f 166/147/106 171/146/106 173/148/107 167/149/107
f 172/141/104 168/140/104 169/150/108 174/151/108
f 174/151/108 169/150/108 167/149/107 173/148/107
f 181/160/24 182/161/24 183/162/24 185/163/24 184/164/24 177/165/24 175/166/24 176/167/24
f 186/168/117 181/169/117 176/170/118 178/171/118
f 178/171/118 176/170/118 175/172/119 179/173/119
f 184/174/120 188/175/120 180/176/121 177/177/121
f 177/177/121 180/176/121 179/173/119 175/172/119
f 181/178/117 186/179/117 187/180/122 182/181/122
f 182/181/122 187/180/122 189/182/123 183/183/123
f 188/175/120 184/174/120 185/184/124 190/185/124
f 190/185/124 185/184/124 183/183/123 189/182/123
f 197/160/24 198/161/24 199/162/24 201/163/24 200/164/24 193/165/24 191/166/24 192/167/24
f 202/168/117 197/169/117 192/170/118 194/171/118
f 194/171/118 192/170/118 191/172/119 195/173/119
f 200/174/120 204/175/120 196/176/121 193/177/121
f 193/177/121 196/176/121 195/173/119 191/172/119
f 197/178/117 202/179/117 203/180/122 198/181/122
f 198/181/122 203/180/122 205/182/123 199/183/123
f 204/175/120 200/174/120 201/184/124 206/185/124
f 206/185/124 201/184/124 199/183/123 205/182/123
f 213/160/24 214/161/24 215/162/24 217/163/24 216/164/24 209/165/24 207/166/24 208/167/24
f 218/168/117 213/169/117 208/170/118 210/171/118
f 210/171/118 208/170/118 207/172/119 211/173/119
f 216/174/120 220/175/120 212/176/121 209/177/121
f 209/177/121 212/176/121 211/173/119 207/172/119
f 213/178/117 218/179/117 219/180/122 214/181/122
f 214/181/122 219/180/122 221/182/123 215/183/123
f 220/175/120 216/174/120 217/184/124 222/185/124
f 222/185/124 217/184/124 215/183/123 221/182/123
f 253/186/9 237/187/9 238/188/10 254/189/10
f 228/190/3 229/191/3 242/192/3 241/193/3
f 268/194/3 269/195/3 244/196/3 243/197/3
f 262/198/3 223/199/3 231/200/3 230/201/3
f 223/202/3 263/203/3 232/204/3 231/205/3
f 263/203/3 224/190/3 233/193/3 232/204/3
f 224/190/3 264/191/3 234/192/3 233/193/3
f 264/191/3 265/194/3 235/197/3 234/192/3
f 265/194/3 266/195/3 236/196/3 235/197/3
f 266/195/3 267/206/3 237/207/3 236/196/3
f 267/206/3 225/198/3 238/201/3 237/207/3
f 225/198/3 226/199/3 239/200/3 238/201/3
f 226/202/3 227/203/3 240/204/3 239/205/3
f 227/203/3 228/190/3 241/193/3 240/204/3
f 270/206/3 262/198/3 230/201/3 245/207/3
f 229/191/3 268/194/3 243/197/3 242/192/3
f 269/195/3 270/206/3 245/207/3 244/196/3
f 248/208/125 232/209/125 233/210/126 249/211/126
f 254/189/10 238/188/10 239/212/24 255/213/24
f 246/214/127 230/215/127 231/216/128 247/217/128
f 251/218/1 235/219/1 236/220/129 252/221/129
f 258/222/130 242/223/130 243/224/14 259/225/14
f 252/221/129 236/220/129 237/187/9 253/186/9
f 259/225/14 243/224/14 244/226/131 260/227/131
f 250/228/132 234/229/132 235/219/1 251/218/1
f 257/211/16 241/210/16 242/223/130 258/222/130
f 256/208/11 240/209/11 241/210/16 257/211/16
f 249/211/126 233/210/126 234/229/132 250/228/132
f 255/230/24 239/231/24 240/209/11 256/208/11
f 260/227/131 244/226/131 245/232/133 261/233/133
f 261/233/133 245/232/133 230/215/127 246/214/127
f 247/230/128 231/231/128 232/209/125 248/208/125
f 278/234/134 271/235/135 270/236/136
f 277/237/137 278/234/134 268/238/138
f 272/239/139 273/240/140 224/241/141
f 228/242/142 277/237/137 229/243/143
f 228/242/142 227/244/144 276/245/145
f 275/246/146 225/247/147 267/248/148
f 271/235/135 272/239/139 223/249/149
f 273/240/140 274/250/150 265/251/151
f 267/248/148 266/252/152 274/250/150
f 276/245/145 277/237/137 228/242/142
f 270/236/136 269/253/153 278/234/134
f 226/254/154 225/247/147 275/246/146
f 274/250/150 275/246/146 267/248/148
f 276/245/145 227/244/144 226/254/154
f 271/235/3 278/234/3 277/237/3 276/245/3 275/246/3
f 270/236/136 271/235/135 262/255/155
f 289/256/130 292/257/130 291/258/131 290/259/131
f 288/260/11 282/261/11 292/257/130 289/256/130
f 283/262/127 279/263/127 280/264/125 284/265/125
f 293/266/3 294/267/3 280/268/3 279/269/3 291/270/3 292/271/3 282/272/3 281/273/3
f 286/274/129 293/275/129 281/276/10 287/277/10
f 287/277/10 281/276/10 282/261/11 288/260/11
f 280/264/125 294/278/132 285/279/132 284/265/125
f 294/278/132 293/275/129 286/274/129 285/279/132
f 290/259/131 291/258/131 279/280/127 283/281/127
f 275/246/146 276/245/145 226/254/154
f 268/238/138 229/243/143 277/237/137
f 268/238/138 278/234/134 269/253/153
f 223/249/149 272/239/139 263/282/156
f 223/249/149 262/255/155 271/235/135
f 265/251/151 274/250/150 266/252/152
f 265/251/151 264/283/157 273/240/140
f 224/241/141 273/240/140 264/283/157
f 224/241/141 263/282/156 272/239/139
f 272/239/3 271/235/3 275/246/3 274/250/3 273/240/3
f 310/284/158 308/285/158 295/286/158 298/287/158
f 295/288/159 296/289/159 320/290/159 319/291/159
f 307/292/160 309/293/160 297/294/160 296/295/160
f 309/296/161 310/297/161 298/298/161 297/299/161
f 302/300/162 299/301/162 311/302/162 314/303/162
f 305/304/163 306/305/163 302/306/163 301/307/163
f 306/308/164 304/309/164 299/310/164 302/311/164
f 303/312/165 305/313/165 301/311/165 300/310/165
f 295/314/166 308/315/166 307/316/166 296/317/166
f 299/318/167 304/319/167 303/320/167 300/321/167
f 313/322/24 314/323/24 318/324/24 317/325/24
f 300/301/168 301/300/168 313/326/168 312/327/168
f 301/328/169 302/329/169 314/323/169 313/322/169
f 299/330/170 300/331/170 312/332/170 311/333/170
f 316/334/171 317/335/171 318/336/171 315/337/171
f 311/333/128 312/332/128 316/338/128 315/339/128
f 314/303/172 311/302/172 315/340/172 318/341/172
f 312/327/173 313/326/173 317/342/173 316/343/173
f 319/291/24 320/290/24 324/344/24 323/345/24
f 298/346/174 295/347/174 319/348/174 322/349/174
f 296/350/175 297/351/175 321/352/175 320/353/175
f 297/354/176 298/355/176 322/356/176 321/290/176
f 324/337/172 325/357/172 326/358/172 323/334/172
f 322/349/171 319/348/171 323/359/171 326/360/171
f 320/353/177 321/352/177 325/359/177 324/361/177
f 321/290/128 322/356/128 326/362/128 325/363/128
f 328/364/1 327/365/1 337/366/1 336/367/1
f 327/368/128 330/369/128 332/370/128 331/371/128 338/372/128 337/373/128
f 331/374/3 334/375/3 335/376/3 338/377/3
f 329/368/24 328/369/24 336/370/24 335/378/24 334/372/24 333/373/24
f 330/379/14 329/380/14 333/381/14 332/382/14
f 332/382/171 333/381/171 334/375/171 331/374/171
f 336/367/172 337/366/172 338/377/172 335/376/172
s 0
f 339/383/14 340/384/14 341/385/14
f 377/386/1 351/387/1 345/388/1
f 342/389/24 340/390/24 339/391/24
f 341/392/15 343/393/15 342/394/15 339/395/15
f 351/396/178 352/397/178 344/398/178 345/399/178
f 352/400/14 347/401/14 344/402/14
f 346/403/128 347/390/128 348/404/128
f 345/405/15 344/406/15 346/407/15 348/408/15
f 344/402/14 347/401/14 346/409/14
f 341/385/14 340/384/14 350/410/14
f 343/411/179 341/412/179 350/413/179 349/414/179
f 369/415/1 343/416/1 349/417/1
f 350/410/14 340/384/14 347/401/14 352/400/14
f 340/418/3 369/419/3 377/420/3 347/421/3
f 349/414/15 350/413/15 352/397/15 351/396/15
f 369/415/1 349/417/1 351/387/1 377/386/1
f 374/422/1 360/410/1 356/385/1
f 354/423/1 355/424/1 353/425/1
f 353/426/24 355/427/24 362/428/24
f 364/429/15 354/430/15 353/431/15 362/432/15
f 374/422/1 356/385/1 357/383/1
f 360/433/178 361/434/178 370/435/178 356/436/178
f 361/417/14 371/437/14 370/416/14
f 373/428/128 374/427/128 357/426/128
f 356/438/15 370/439/15 373/440/15 357/430/15
f 364/441/14 366/442/14 359/443/14
f 354/444/179 364/445/179 359/446/179 358/447/179
f 355/424/1 354/423/1 358/448/1
f 359/443/14 366/442/14 371/437/14 361/417/14
f 366/449/3 355/450/3 374/451/3 371/452/3
f 358/447/15 359/446/15 361/434/15 360/433/15
f 355/424/1 358/448/1 360/410/1 374/422/1
f 362/428/24 355/427/24 363/453/24
f 371/454/24 377/455/24 376/456/24 372/457/24
f 365/458/128 366/459/128 364/460/128
f 363/461/180 365/462/180 364/429/180 362/432/180
f 369/463/128 368/464/128 343/465/128
f 365/458/128 368/464/128 369/463/128 366/459/128
f 363/461/15 367/466/15 368/467/15 365/462/15
f 366/468/3 369/469/3 340/470/3 355/471/3
f 368/467/181 367/466/181 342/394/181 343/393/181
f 367/472/24 340/390/24 342/389/24
f 370/460/24 371/454/24 372/457/24
f 375/473/128 374/427/128 373/428/128
f 372/474/180 375/475/180 373/440/180 370/439/180
f 347/390/128 378/476/128 348/404/128
f 375/473/128 378/476/128 347/390/128 374/427/128
f 372/474/15 376/466/15 378/467/15 375/475/15
f 374/477/3 347/478/3 377/479/3 371/480/3
f 378/467/181 376/466/181 345/405/181 348/408/181
f 376/456/24 377/455/24 345/481/24
f 355/427/24 340/390/24 367/472/24 363/453/24
s 1
f 380/482/128 388/483/128 387/484/128 379/485/128
f 388/486/182 389/487/182 386/488/182 383/489/182
f 386/488/126 389/487/126 390/490/126 385/491/126
f 385/491/183 390/490/183 387/492/183 384/493/183
f 382/494/128 389/495/128 388/483/128 380/482/128
f 381/496/128 390/497/128 389/495/128 382/494/128
f 381/496/128 379/485/128 387/484/128 390/497/128
f 388/486/133 383/489/133 384/493/133 387/492/133
f 380/496/172 379/485/177 391/498/177 393/499/172
f 381/485/173 382/496/171 394/499/171 392/498/173
f 379/496/177 381/485/173 392/498/173 391/499/177
f 382/485/171 380/496/172 393/499/172 394/498/171
f 398/500/128 396/501/128 395/502/128 397/503/128
f 399/504/184 400/505/184 393/482/184 391/485/184
f 401/506/185 399/504/185 391/485/185 392/496/185
f 400/505/186 402/507/186 394/494/186 393/482/186
f 402/507/187 401/506/187 392/496/187 394/494/187
f 403/508/128 405/509/128 400/505/128 399/504/128
f 404/510/128 403/508/128 399/504/128 401/506/128
f 405/509/128 406/511/128 402/507/128 400/505/128
f 407/512/188 408/513/188 405/509/188 403/508/188
f 409/514/189 407/512/189 403/508/189 404/510/189
f 408/513/190 410/515/190 406/511/190 405/509/190
f 410/515/191 409/514/191 404/510/191 406/511/191
f 406/511/128 404/510/128 401/506/128 402/507/128
f 395/502/192 396/501/192 408/513/192 407/512/192
f 397/503/193 395/502/193 407/512/193 409/514/193
f 396/501/194 398/500/194 410/515/194 408/513/194
f 398/500/195 397/503/195 409/514/195 410/515/195
usemtl crt_screen_mp_1
f 54/58/33 99/59/34 96/60/35 52/61/36
f 50/62/37 92/63/38 88/64/39 48/65/40
f 45/66/41 85/67/42 83/68/43 46/69/44
f 104/70/45 56/71/46 58/72/47 108/73/48
f 51/74/49 97/75/50 101/76/51 53/77/52
f 49/78/53 94/79/54 92/63/38 50/62/37
f 43/80/55 81/81/56 85/67/42 45/66/41
f 47/82/57 89/83/58 94/79/54 49/78/53
f 90/84/59 66/85/60 68/86/61 93/87/62
f 108/73/48 58/72/47 57/88/63 110/89/64
f 53/77/52 101/76/51 99/59/34 54/58/33
f 110/89/64 57/88/63 55/90/65 105/91/66
f 43/80/55 48/65/40 88/64/39 81/81/56
f 55/90/65 44/92/67 80/93/68 105/91/66
f 96/60/35 89/83/58 47/82/57 52/61/36
f 51/74/49 56/71/46 104/70/45 97/75/50
f 65/94/69 68/86/61 66/85/60
f 93/87/62 68/86/61 67/95/70 91/96/71
f 65/94/69 67/95/70 68/86/61
f 91/96/71 67/95/70 64/97/72 87/98/73
f 65/94/69 64/97/72 67/95/70
f 59/99/74 79/100/75 84/101/76 61/102/77
f 62/103/78 59/99/74 61/102/77
f 61/102/77 84/101/76 86/104/79 63/105/80
f 62/103/78 61/102/77 63/105/80
f 63/105/80 86/104/79 82/106/81 60/107/82
f 62/103/78 63/105/80 60/107/82
f 106/108/83 76/109/84 78/110/85 109/111/86
f 75/112/87 78/110/85 76/109/84
f 109/111/86 78/110/85 77/113/88 107/114/89
f 75/112/87 77/113/88 78/110/85
f 107/114/89 77/113/88 74/115/90 103/116/91
f 75/112/87 74/115/90 77/113/88
f 69/117/92 95/118/93 100/119/94 72/120/95
f 71/121/96 69/117/92 72/120/95
f 72/120/95 100/119/94 102/122/97 73/123/98
f 71/121/96 72/120/95 73/123/98
f 73/123/98 102/122/97 98/124/99 70/125/100
f 71/121/96 73/123/98 70/125/100
f 60/107/82 82/106/81 87/98/73 64/97/72
f 65/94/69 62/103/78 60/107/82 64/97/72
f 76/109/84 106/108/83 79/100/75 59/99/74
f 62/103/78 75/112/87 76/109/84 59/99/74
f 66/85/60 90/84/59 95/118/93 69/117/92
f 70/125/100 98/124/99 103/116/91 74/115/90
f 66/85/60 69/117/92 71/121/96 65/94/69
f 70/125/100 74/115/90 75/112/87 71/121/96
f 46/69/44 83/68/43 80/93/68 44/92/67
f 94/79/54 89/83/58 90/84/59 93/87/62
f 92/63/38 94/79/54 93/87/62 91/96/71
f 88/64/39 92/63/38 91/96/71 87/98/73
f 80/93/68 83/68/43 84/101/76 79/100/75
f 83/68/43 85/67/42 86/104/79 84/101/76
f 85/67/42 81/81/56 82/106/81 86/104/79
f 110/89/64 105/91/66 106/108/83 109/111/86
f 108/73/48 110/89/64 109/111/86 107/114/89
f 104/70/45 108/73/48 107/114/89 103/116/91
f 96/60/35 99/59/34 100/119/94 95/118/93
f 99/59/34 101/76/51 102/122/97 100/119/94
f 101/76/51 97/75/50 98/124/99 102/122/97
f 87/98/73 82/106/81 81/81/56 88/64/39
f 79/100/75 106/108/83 105/91/66 80/93/68
f 95/118/93 90/84/59 89/83/58 96/60/35
f 103/116/91 98/124/99 97/75/50 104/70/45
f 62/103/78 65/94/69 71/121/96 75/112/87
