# Blender 5.0.1
# www.blender.org
mtllib vent_mp_1.mtl
o vent_mp_1
v -0.164996 -0.100000 -0.000001
v 0.165004 -0.100000 -0.000001
v -0.164996 0.100000 -0.000001
v 0.165004 0.100000 -0.000001
v -0.146996 0.082000 0.013999
v -0.146996 -0.082000 0.013999
v 0.147004 -0.082000 0.013999
v 0.147004 0.082000 0.013999
v -0.164996 0.100000 0.013999
v -0.164996 -0.100000 0.013999
v 0.165004 -0.100000 0.013999
v 0.165004 0.100000 0.013999
v -0.133654 0.067440 0.018999
v -0.133654 -0.069109 0.018999
v 0.131951 -0.069109 0.018999
v 0.131951 0.067440 0.018999
v -0.146996 0.082000 0.018999
v -0.146996 -0.082000 0.018999
v 0.147004 -0.082000 0.018999
v 0.147004 0.082000 0.018999
v -0.133654 0.067440 0.013999
v -0.133654 -0.069109 0.013999
v 0.131951 -0.069109 0.013999
v 0.131951 0.067440 0.013999
vn -0.0000 1.0000 -0.0000
vn -0.0000 -1.0000 -0.0000
vn 1.0000 -0.0000 -0.0000
vn -1.0000 -0.0000 -0.0000
vn -0.0000 -0.0000 1.0000
vt 1.000000 0.500000
vt 0.000000 0.500000
vt 0.000000 0.535088
vt 1.000000 0.535088
vt 0.000000 0.964912
vt 1.000000 0.964912
vt 1.000000 1.000000
vt 0.000000 1.000000
vt 0.400000 0.964912
vt 1.000000 0.964912
vt 1.000000 1.000000
vt 0.400000 1.000000
vt 0.600000 0.964912
vt 0.600000 1.000000
vt 0.007923 0.985146
vt 1.000000 0.985146
vt 1.000000 0.999268
vt 0.007923 0.999267
vt 0.054545 0.545000
vt 0.054545 0.955000
vt 0.945455 0.545000
vt 0.945455 0.955000
vt 0.479148 0.999268
vt 0.939920 0.999268
vt 0.939920 0.985146
vt 0.479148 0.985146
vt 0.435648 0.985146
vt 0.989054 0.985146
vt 0.989054 0.999268
vt 0.435648 0.999268
vt 0.989054 0.985146
vt 0.435648 0.999267
vt 1.000000 0.985146
vt 0.007923 0.999268
vt 0.094976 0.577228
vt 0.094976 0.918599
vt 0.899840 0.577228
vt 0.899840 0.918599
vt 0.899840 0.577228
vt 0.094976 0.918599
vt 0.899840 0.918599
vt 0.899840 0.918599
vt 0.479148 0.999267
vt 0.939920 0.985146
vt 0.949206 0.999268
vt 0.052945 0.999268
vt 0.052945 0.985146
vt 0.949206 0.985146
vt 0.052945 0.999267
vt 0.949206 0.985146
s 0
usemtl vents_mp_1
f 4/1/1 3/2/1 9/3/1 12/4/1
f 1/5/2 2/6/2 11/7/2 10/8/2
f 2/9/3 4/10/3 12/11/3 11/12/3
f 3/13/4 1/5/4 10/8/4 9/14/4
f 6/15/2 7/16/2 19/17/2 18/18/2
f 6/19/5 5/20/5 9/8/5 10/2/5
f 7/21/5 6/19/5 10/2/5 11/1/5
f 8/22/5 7/21/5 11/1/5 12/7/5
f 5/20/5 8/22/5 12/7/5 9/8/5
f 15/23/4 16/24/4 24/25/4 23/26/4
f 7/27/3 8/28/3 20/29/3 19/30/3
f 5/31/4 6/27/4 18/32/4 17/29/4
f 8/33/1 5/15/1 17/34/1 20/17/1
f 14/35/5 13/36/5 17/20/5 18/19/5
f 15/37/5 14/35/5 18/19/5 19/21/5
f 16/38/5 15/39/5 19/21/5 20/22/5
f 13/40/5 16/41/5 20/22/5 17/20/5
f 21/36/5 22/35/5 23/39/5 24/42/5
f 13/24/3 14/43/3 22/26/3 21/44/3
f 16/45/2 13/46/2 21/47/2 24/48/2
f 14/49/1 15/45/1 23/50/1 22/47/1
