# Blender 5.0.1
# www.blender.org
mtllib walkie_talkie_2.mtl
o walkie_talkie_2
v -0.042453 -0.000000 0.119878
v 0.050897 -0.000000 0.119878
v 0.053682 0.006169 0.126047
v 0.048367 -0.000000 -0.110674
v 0.051044 0.006169 -0.116842
v -0.042453 -0.000000 -0.107682
v 0.050897 -0.000000 -0.107968
v 0.057065 0.006169 -0.110403
v -0.039145 -0.000000 -0.110674
v -0.041779 0.006169 -0.116842
v -0.044695 0.006169 0.126046
v -0.048622 0.006169 -0.110403
v 0.050897 -0.000000 -0.107968
v -0.028179 0.021577 -0.131483
v -0.035205 0.021577 -0.130897
v -0.028179 0.028423 -0.131483
v -0.035205 0.028423 -0.130897
v -0.026608 0.020000 -0.116842
v -0.036776 0.020000 -0.116842
v -0.026608 0.030000 -0.116842
v -0.036776 0.030000 -0.116842
v -0.036063 0.021577 -0.237813
v -0.043088 0.021577 -0.237228
v -0.036063 0.028423 -0.237813
v -0.043088 0.028423 -0.237228
v -0.035488 0.020208 -0.243896
v -0.045324 0.020208 -0.243076
v -0.035488 0.029792 -0.243896
v -0.045324 0.029792 -0.243076
v -0.037628 0.021645 -0.250086
v -0.044513 0.021645 -0.249512
v -0.037628 0.028355 -0.250086
v -0.044513 0.028355 -0.249512
v 0.023250 0.040000 0.013210
v 0.017518 0.039993 0.013210
v 0.017763 0.045967 0.014245
v 0.010944 0.039993 0.016244
v 0.011604 0.045967 0.017086
v 0.006814 0.039993 0.021975
v 0.007810 0.045967 0.022357
v 0.006056 0.039993 0.028297
v 0.007110 0.045967 0.028151
v 0.008247 0.039993 0.034450
v 0.009180 0.045967 0.033952
v 0.012461 0.039993 0.038917
v 0.012982 0.045967 0.037990
v 0.018867 0.039993 0.041277
v 0.019061 0.045967 0.040231
v 0.025357 0.039993 0.040939
v 0.025063 0.045967 0.039918
v 0.031004 0.039993 0.037315
v 0.030237 0.045967 0.036589
v 0.034881 0.039993 0.031078
v 0.033860 0.045967 0.030770
v 0.035303 0.039993 0.025094
v 0.034248 0.045967 0.025242
v 0.032943 0.039993 0.019025
v 0.032052 0.045967 0.019605
v 0.028391 0.039993 0.014980
v 0.027882 0.045967 0.015909
v 0.023044 0.045967 0.014245
v 0.019740 0.040000 -0.009692
v 0.046706 0.040000 0.001083
v 0.048314 0.040000 -0.000247
v 0.046708 0.040000 -0.009696
v 0.024268 0.044967 -0.098908
v 0.036215 0.044967 -0.089036
v 0.041020 0.039993 -0.092975
v 0.044105 0.044967 -0.074108
v 0.050209 0.039993 -0.075530
v 0.044329 0.044967 -0.055783
v 0.050452 0.039993 -0.054450
v 0.037339 0.044967 -0.040518
v 0.042361 0.039993 -0.036791
v 0.020863 0.044967 -0.027875
v 0.023509 0.039993 -0.022301
v 0.002642 0.044967 -0.023946
v 0.002266 0.039993 -0.017746
v -0.014716 0.044967 -0.029450
v -0.017789 0.039993 -0.024114
v -0.029570 0.044967 -0.042285
v -0.034517 0.039993 -0.038560
v -0.036050 0.044967 -0.057787
v -0.042204 0.039993 -0.056898
v -0.035740 0.044967 -0.076445
v -0.041841 0.039993 -0.078042
v -0.027583 0.044967 -0.092132
v -0.032344 0.039993 -0.096338
v -0.011204 0.044967 -0.103039
v -0.013301 0.039993 -0.109007
v 0.009290 0.044967 -0.104535
v 0.010080 0.039993 -0.110719
v 0.027452 0.040000 -0.104193
v 0.019760 0.043000 -0.007463
v 0.017526 0.040000 -0.007989
v 0.017612 0.040000 -0.000647
v 0.019068 0.040000 0.001083
v 0.019838 0.043000 -0.001146
v 0.046085 0.043000 -0.001146
v 0.046087 0.043000 -0.007466
v 0.048316 0.040000 -0.008054
v -0.039145 0.040000 -0.110674
v -0.041779 0.033831 -0.116842
v -0.042453 0.040000 -0.107682
v -0.048622 0.033831 -0.110403
v -0.042453 0.040000 0.119878
v -0.048622 0.033831 0.122210
v -0.044695 0.033831 0.126046
v 0.050897 0.040000 0.119878
v 0.053682 0.033831 0.126047
v 0.057066 0.033831 0.122209
v 0.050897 0.040000 -0.107968
v 0.057065 0.033831 -0.110403
v 0.051044 0.033831 -0.116842
v 0.048367 0.040000 -0.110674
v -0.048622 0.006169 0.122210
v 0.057066 0.006169 0.122209
v 0.057066 0.012000 -0.036211
v 0.057066 0.012000 0.028402
v 0.065260 0.012000 -0.031011
v 0.062260 0.012000 0.023554
v 0.057066 0.028000 -0.036211
v 0.057066 0.028000 0.028402
v 0.065260 0.028000 -0.031011
v 0.062260 0.028000 0.023554
v 0.062260 0.012000 -0.003729
v 0.062260 0.028000 -0.003729
v 0.065260 0.012000 -0.017370
v 0.065260 0.028000 -0.017370
v -0.014910 0.040000 0.110244
v 0.024115 0.040000 0.123169
v 0.025722 0.040000 0.121838
v 0.024116 0.040000 0.110239
v -0.014890 0.043000 0.112472
v -0.017124 0.040000 0.111946
v -0.017039 0.040000 0.121439
v -0.015583 0.040000 0.123169
v -0.014812 0.043000 0.120939
v 0.023493 0.043000 0.120939
v 0.023495 0.043000 0.112469
v 0.025724 0.040000 0.111882
v -0.017053 0.040000 0.119878
v 0.025722 0.040000 0.119878
v 0.025724 0.040000 0.111882
v 0.024116 0.040000 0.110239
v -0.017039 0.038439 0.121439
v -0.015583 0.036709 0.123169
v -0.014910 0.040000 0.110244
v -0.017124 0.040000 0.111946
v 0.024115 0.036709 0.123169
v 0.025722 0.038040 0.121838
vn -0.0000 -1.0000 -0.0000
vn -0.0000 -0.7071 0.7071
vn 0.5304 -0.7071 0.4677
vn 0.7071 -0.7071 -0.0000
vn 0.5165 -0.7071 -0.4830
vn -0.0000 -0.7071 -0.7071
vn -0.4780 -0.7118 -0.5146
vn -0.5018 -0.6960 0.5136
vn -0.7071 -0.7071 -0.0000
vn -0.6853 -0.0000 -0.7283
vn 0.7501 -0.0000 0.6614
vn -0.0000 -0.0000 -1.0000
vn -0.0000 -0.0000 1.0000
vn 1.0000 -0.0000 -0.0000
vn -0.6989 -0.0000 0.7152
vn -0.9973 -0.0000 0.0739
vn -0.0037 -0.9940 -0.1092
vn -0.0037 0.9940 -0.1092
vn 0.9943 -0.0000 -0.1067
vn -0.9938 -0.0000 -0.1111
vn 0.0184 0.9750 0.2212
vn -0.0000 1.0000 -0.0000
vn 0.9973 -0.0000 -0.0739
vn 0.9451 -0.0000 -0.3267
vn 0.9956 -0.0000 0.0940
vn 0.0184 -0.9750 0.2212
vn -0.9341 -0.0000 0.3571
vn -0.0830 -0.0000 -0.9965
vn -0.0183 -0.9753 -0.2202
vn -0.9922 -0.0000 -0.1250
vn -0.0183 0.9753 -0.2202
vn -0.2116 0.1753 -0.9615
vn -0.6256 0.1764 -0.7599
vn -0.6267 0.1764 -0.7590
vn -0.2108 0.1753 -0.9617
vn -0.9172 0.1754 -0.3577
vn -0.9171 0.1754 -0.3580
vn -0.9783 0.1757 0.1100
vn -0.9784 0.1757 0.1087
vn -0.8407 0.1736 0.5129
vn -0.8393 0.1735 0.5152
vn -0.5414 0.1749 0.8223
vn -0.5445 0.1748 0.8203
vn -0.1483 0.1753 0.9733
vn -0.1469 0.1753 0.9735
vn 0.3010 0.1754 0.9374
vn 0.3027 0.1754 0.9368
vn 0.7018 0.1736 0.6909
vn 0.9366 0.1760 0.3030
vn 0.9363 0.1760 0.3040
vn 0.7011 0.1736 0.6916
vn 0.9734 0.1755 -0.1473
vn 0.9733 0.1755 -0.1479
vn 0.8085 0.1752 -0.5618
vn 0.8076 0.1752 -0.5631
vn 0.4963 0.1744 -0.8505
vn 0.4972 0.1743 -0.8499
vn 0.1630 0.1739 -0.9712
vn 0.1619 0.1739 -0.9714
vn -1.0000 -0.0000 -0.0000
vn 0.3152 0.7786 -0.5425
vn 0.0880 0.7817 -0.6174
vn 0.0901 0.7817 -0.6171
vn 0.3137 0.7786 -0.5435
vn -0.0308 0.7807 0.6241
vn 0.2644 0.7780 0.5700
vn 0.2631 0.7780 0.5706
vn -0.0287 0.7807 0.6242
vn 0.4850 0.7805 -0.3945
vn 0.4853 0.7805 -0.3941
vn 0.6027 0.7834 -0.1517
vn 0.6020 0.7834 -0.1545
vn 0.6080 0.7834 0.1292
vn 0.6081 0.7834 0.1285
vn 0.4881 0.7828 0.3860
vn 0.4849 0.7827 0.3902
vn -0.3072 0.7781 0.5480
vn -0.3058 0.7780 0.5488
vn -0.5062 0.7797 0.3685
vn -0.5077 0.7797 0.3664
vn -0.6147 0.7802 0.1155
vn -0.6138 0.7801 0.1215
vn -0.5999 0.7854 -0.1524
vn -0.6002 0.7854 -0.1513
vn -0.4595 0.7871 -0.4116
vn -0.4586 0.7871 -0.4125
vn -0.2008 0.7863 -0.5844
vn -0.1996 0.7862 -0.5848
vn -0.5244 0.5101 -0.6818
vn -0.8025 0.5965 0.0096
vn -0.6342 0.5594 0.5337
vn -0.0000 0.5964 0.8027
vn 0.5212 0.5760 0.6297
vn 0.8027 0.5964 0.0003
vn 0.5941 0.5554 -0.5818
vn -0.0001 0.5965 -0.8026
vn 0.7304 -0.0000 -0.6830
vn -0.5018 0.6960 0.5136
vn -0.0000 0.7071 0.7071
vn 0.5304 0.7071 0.4677
vn 0.7071 0.7071 -0.0000
vn 0.5165 0.7071 -0.4830
vn -0.7071 0.7071 -0.0000
vn -0.0000 0.7071 -0.7071
vn -0.4780 0.7118 -0.5146
vn 0.9941 -0.0000 0.1080
vn 0.6823 -0.0000 0.7311
vn 0.5358 -0.0000 -0.8444
vn -0.8025 0.5966 0.0073
vn 0.8027 0.5964 0.0002
vn -0.7651 -0.0000 0.6439
vn 0.6376 -0.0000 0.7703
vn 1.0000 -0.0000 0.0002
vn -1.0000 -0.0000 0.0090
vt 0.712056 0.880812
vt 0.712056 0.101082
vt 0.398300 0.101082
vt 0.398300 0.879832
vt 0.410156 0.890070
vt 0.702987 0.890070
vt 0.722035 0.079973
vt 0.390272 0.079973
vt 0.734154 0.093107
vt 0.734154 0.889144
vt 0.712583 0.911179
vt 0.400721 0.911179
vt 0.376202 0.889144
vt 0.376202 0.093107
vt 0.859685 0.882030
vt 0.767582 0.882030
vt 0.767943 0.901659
vt 0.860047 0.901659
vt 0.954299 0.596461
vt 0.860717 0.596461
vt 0.860717 0.584281
vt 0.954299 0.584281
vt 0.954299 0.880121
vt 0.954299 0.602224
vt 0.860717 0.602224
vt 0.860717 0.880120
vt 0.954299 0.596461
vt 0.954299 0.888606
vt 0.860717 0.888606
vt 0.860024 0.093545
vt 0.860024 0.880610
vt 0.767920 0.880610
vt 0.767920 0.093545
vt 0.954299 0.903451
vt 0.860717 0.903451
vt 0.341236 0.979326
vt 0.343146 0.955903
vt 0.004152 0.924516
vt 0.002084 0.947794
vt 0.321918 0.955997
vt 0.322051 0.931963
vt 0.371918 0.930881
vt 0.368805 0.965416
vt 0.322051 0.931963
vt 0.322002 0.956118
vt 0.317605 0.979276
vt 0.319701 0.956025
vt 0.369755 0.954879
vt 0.366693 0.988841
vt 0.319983 0.979478
vt 0.366693 0.988841
vt 0.369755 0.954879
vt 0.062270 0.966647
vt 0.061063 0.941234
vt 0.041232 0.938854
vt 0.041105 0.972502
vt 0.343248 0.931868
vt 0.001704 0.925695
vt 0.001212 0.951083
vt 0.341283 0.955901
vt 0.339187 0.979152
vt 0.000000 0.947587
vt 0.001212 0.951083
vt 0.001314 0.927048
vt 0.042356 0.933727
vt 0.039421 0.966278
vt 0.021619 0.959846
vt 0.023673 0.937061
vt 0.057693 0.963144
vt 0.062372 0.942612
vt 0.062270 0.966646
vt 0.041105 0.972502
vt 0.041232 0.938854
vt 0.068047 0.964023
vt 0.070143 0.940772
vt 0.042269 0.933719
vt 0.039334 0.966271
vt 0.133007 0.937923
vt 0.130899 0.961306
vt 0.154376 0.963300
vt 0.156484 0.939916
vt 0.018815 0.967835
vt 0.018915 0.944281
vt 0.019306 0.936689
vt 0.017252 0.959475
vt 0.018915 0.944281
vt 0.018815 0.967835
vt 0.247514 0.218750
vt 0.217602 0.218750
vt 0.217574 0.199283
vt 0.247290 0.199281
vt 0.188679 0.218750
vt 0.188685 0.199284
vt 0.162649 0.218750
vt 0.162679 0.199283
vt 0.135579 0.218750
vt 0.135512 0.199284
vt 0.110649 0.218750
vt 0.110731 0.199283
vt 0.082266 0.218750
vt 0.082228 0.199282
vt 0.055583 0.218750
vt 0.055838 0.199283
vt 0.208158 0.218750
vt 0.177871 0.218750
vt 0.177893 0.199283
vt 0.208180 0.199284
vt 0.153254 0.218750
vt 0.153241 0.199282
vt 0.126462 0.218750
vt 0.126427 0.199283
vt 0.101584 0.218750
vt 0.101615 0.199282
vt 0.079073 0.218750
vt 0.079039 0.199287
vt 0.235595 0.218750
vt 0.235270 0.199286
vt 0.055844 0.199283
vt 0.335505 0.515074
vt 0.335513 0.536874
vt 0.242901 0.536863
vt 0.243181 0.515074
vt 0.860067 0.093363
vt 0.767963 0.093363
vt 0.203138 0.395207
vt 0.211359 0.451451
vt 0.198491 0.433875
vt 0.196120 0.414552
vt 0.236646 0.374268
vt 0.250155 0.460925
vt 0.232245 0.460925
vt 0.216031 0.381741
vt 0.266558 0.455376
vt 0.257000 0.375311
vt 0.319857 0.768603
vt 0.293737 0.819062
vt 0.176925 0.608221
vt 0.239563 0.618696
vt 0.288150 0.424254
vt 0.280703 0.443048
vt 0.274546 0.386414
vt 0.286835 0.405820
vt 0.067976 0.665372
vt 0.201805 0.868656
vt 0.133486 0.861016
vt 0.044767 0.716445
vt 0.320861 0.708842
vt 0.295020 0.659629
vt 0.253208 0.851449
vt 0.118537 0.625099
vt 0.075496 0.828496
vt 0.046934 0.776748
vt 0.262261 0.873116
vt 0.200254 0.892926
vt 0.181119 0.582474
vt 0.254657 0.598662
vt 0.310682 0.837222
vt 0.343785 0.779293
vt 0.346379 0.708308
vt 0.317843 0.649159
vt 0.109762 0.602033
vt 0.049974 0.647034
vt 0.021102 0.708501
vt 0.019907 0.778960
vt 0.053067 0.840874
vt 0.118999 0.884117
vt 0.242821 0.544548
vt 0.234834 0.538679
vt 0.235146 0.513351
vt 0.240401 0.507385
vt 0.337748 0.507385
vt 0.343548 0.511972
vt 0.343556 0.538901
vt 0.337748 0.544565
vt 0.860024 0.899296
vt 0.767920 0.899296
vt 0.000000 0.093107
vt 0.014071 0.079973
vt 0.022099 0.101082
vt 0.354509 0.079973
vt 0.344530 0.101082
vt 0.366628 0.093107
vt 0.366628 0.889144
vt 0.344530 0.880812
vt 0.345056 0.911179
vt 0.335460 0.890070
vt 0.000000 0.889144
vt 0.022099 0.879832
vt 0.024519 0.911179
vt 0.033955 0.890070
vt 0.326111 0.951967
vt 0.213249 0.966163
vt 0.309082 0.966163
vt 0.213249 0.969675
vt 0.309082 0.969676
vt 0.213249 0.938065
vt 0.309082 0.938065
vt 0.107373 0.969676
vt 0.163575 0.969676
vt 0.163575 0.950174
vt 0.107373 0.950174
vt 0.107373 0.948976
vt 0.163575 0.948976
vt 0.163575 0.975645
vt 0.107373 0.975645
vt 0.165332 0.970262
vt 0.165332 0.938065
vt 0.165332 0.979902
vt 0.099152 0.951968
vt 0.117415 0.979902
vt 0.117415 0.966162
vt 0.117415 0.938065
vt 0.099152 0.951968
vt 0.265389 0.097680
vt 0.265389 0.126162
vt 0.118497 0.126148
vt 0.118777 0.097680
vt 0.110430 0.127964
vt 0.118425 0.133837
vt 0.110691 0.101220
vt 0.110742 0.095957
vt 0.115997 0.089992
vt 0.267632 0.089992
vt 0.273440 0.094578
vt 0.273441 0.101196
vt 0.273448 0.128189
vt 0.267640 0.133854
vt 0.266937 0.094374
vt 0.261423 0.089821
vt 0.112908 0.089821
vt 0.107904 0.095741
vt 0.107882 0.101082
vt 0.266877 0.101082
vt 0.107637 0.128225
vt 0.115282 0.134052
vt 0.261329 0.134067
vt 0.266884 0.128447
s 1
usemtl walkie_talkie_2
f 7/1/1 2/2/1 1/3/1 6/4/1 9/5/1 4/6/1
f 1/3/2 2/2/2 3/7/2 11/8/2
f 2/2/3 117/9/3 3/7/3
f 2/2/4 7/1/4 8/10/4 117/9/4
f 7/1/5 4/6/5 5/11/5 8/10/5
f 4/6/6 9/5/6 10/12/6 5/11/6
f 9/5/7 6/4/7 12/13/7 10/12/7
f 1/3/8 11/8/8 116/14/8
f 6/4/9 1/3/9 116/14/9 12/13/9
f 12/15/10 105/16/10 103/17/10 10/18/10
f 110/19/11 3/20/11 117/21/11 111/22/11
f 103/23/12 114/24/12 5/25/12 10/26/12
f 110/27/13 108/28/13 11/29/13 3/20/13
f 117/30/14 8/31/14 113/32/14 111/33/14
f 11/29/15 108/28/15 107/34/15 116/35/15
f 15/36/16 17/37/16 25/38/16 23/39/16
f 15/40/17 14/41/17 18/42/17 19/43/17
f 16/44/18 17/45/18 21/43/18 20/42/18
f 14/46/19 16/47/19 20/48/19 18/49/19
f 17/45/20 15/50/20 19/51/20 21/52/20
f 25/53/21 24/54/21 28/55/21 29/56/21
f 17/37/22 16/57/22 24/58/22 25/59/22
f 16/60/23 14/61/23 22/62/23 24/58/23
f 14/57/1 15/37/1 23/63/1 22/64/1
f 28/65/24 26/66/24 30/67/24 32/68/24
f 24/54/25 22/69/25 26/66/25 28/65/25
f 22/70/26 23/71/26 27/72/26 26/73/26
f 23/74/27 25/75/27 29/76/27 27/77/27
f 30/78/28 31/79/28 33/80/28 32/81/28
f 26/73/29 27/72/29 31/82/29 30/83/29
f 27/77/30 29/76/30 33/84/30 31/85/30
f 29/56/31 28/55/31 32/86/31 33/87/31
f 35/88/32 37/89/33 38/90/34 36/91/35
f 37/89/33 39/92/36 40/93/37 38/90/34
f 39/92/36 41/94/38 42/95/39 40/93/37
f 41/94/38 43/96/40 44/97/41 42/95/39
f 43/96/40 45/98/42 46/99/43 44/97/41
f 45/98/42 47/100/44 48/101/45 46/99/43
f 47/100/44 49/102/46 50/103/47 48/101/45
f 51/104/48 53/105/49 54/106/50 52/107/51
f 53/105/49 55/108/52 56/109/53 54/106/50
f 55/108/52 57/110/54 58/111/55 56/109/53
f 57/110/54 59/112/56 60/113/57 58/111/55
f 59/112/56 34/114/58 61/115/59 60/113/57
f 49/116/46 51/104/48 52/107/51 50/117/47
f 34/114/58 35/102/32 36/118/35 61/115/59
f 99/119/22 100/120/22 94/121/22 98/122/22
f 12/15/60 116/123/60 107/124/60 105/16/60
f 44/125/22 38/126/22 40/127/22 42/128/22
f 48/129/22 61/130/22 36/131/22 46/132/22
f 60/133/22 61/130/22 48/129/22 50/134/22
f 69/135/22 67/136/22 77/137/22 75/138/22
f 56/139/22 58/140/22 52/141/22 54/142/22
f 81/143/22 91/144/22 89/145/22 83/146/22
f 71/147/22 69/135/22 75/138/22 73/148/22
f 67/136/22 66/149/22 79/150/22 77/137/22
f 46/132/22 36/131/22 38/126/22 44/125/22
f 79/150/22 66/149/22 91/144/22 81/143/22
f 83/146/22 89/145/22 87/151/22 85/152/22
f 58/140/22 60/133/22 50/134/22 52/141/22
f 93/153/61 92/154/62 91/144/63 66/149/64
f 78/155/65 76/156/66 75/138/67 77/137/68
f 68/157/69 93/153/61 66/149/64 67/136/70
f 70/158/71 68/157/69 67/136/70 69/135/72
f 72/159/73 70/158/71 69/135/72 71/147/74
f 74/160/75 72/159/73 71/147/74 73/148/76
f 76/156/66 74/160/75 73/148/76 75/138/67
f 80/161/77 78/155/65 77/137/68 79/150/78
f 82/162/79 80/161/77 79/150/78 81/143/80
f 84/163/81 82/162/79 81/143/80 83/146/82
f 86/164/83 84/163/81 83/146/82 85/152/84
f 88/165/85 86/164/83 85/152/84 87/151/86
f 90/166/87 88/165/85 87/151/86 89/145/88
f 92/154/62 90/166/87 89/145/88 91/144/63
f 62/167/89 95/168/89 94/121/89
f 95/168/90 96/169/90 98/122/90 94/121/90
f 96/169/91 97/170/91 98/122/91
f 97/170/92 63/171/92 99/119/92 98/122/92
f 63/171/93 64/172/93 99/119/93
f 64/172/94 101/173/94 100/120/94 99/119/94
f 101/173/95 65/174/95 100/120/95
f 65/174/96 62/167/96 94/121/96 100/120/96
f 8/31/97 5/175/97 114/176/97 113/32/97
f 107/177/98 108/178/98 106/179/98
f 108/178/99 110/180/99 109/181/99 106/179/99
f 110/180/100 111/182/100 109/181/100
f 111/182/101 113/183/101 112/184/101 109/181/101
f 113/183/102 114/185/102 115/186/102 112/184/102
f 105/187/103 107/177/103 106/179/103 104/188/103
f 114/185/104 103/189/104 102/190/104 115/186/104
f 103/189/105 105/187/105 104/188/105 102/190/105
f 109/181/22 112/184/22 115/186/22 102/190/22 104/188/22 106/179/22
f 119/191/1 126/192/1 121/193/1
f 127/194/22 123/191/22 125/195/22
f 126/192/106 127/196/106 125/197/14 121/193/14
f 121/198/107 125/199/107 123/200/107 119/201/107
f 118/202/108 122/203/108 124/204/108 120/205/108
f 128/206/106 129/207/106 127/196/106 126/192/106
f 129/208/22 122/209/22 123/191/22 127/194/22
f 122/209/22 129/208/22 124/210/22
f 120/211/14 124/212/14 129/207/106 128/206/106
f 119/191/1 118/213/1 128/206/1 126/192/1
f 120/211/1 128/206/1 118/213/1
f 139/214/22 140/215/22 134/216/22 138/217/22
f 135/218/89 134/216/89 130/219/89
f 138/217/109 134/216/109 135/218/109 142/220/109 136/221/109
f 137/222/91 138/217/91 136/221/91
f 137/222/92 131/223/92 139/214/92 138/217/92
f 139/214/93 131/223/93 132/224/93
f 143/225/110 141/226/110 140/215/110 139/214/110 132/224/110
f 141/226/95 133/227/95 140/215/95
f 133/227/96 130/219/96 134/216/96 140/215/96
f 145/227/22 133/227/22 141/226/22 144/226/22
f 147/222/111 137/222/111 136/221/111 146/221/111
f 149/218/22 135/218/22 130/219/22 148/219/22
f 151/224/112 132/224/112 131/223/112 150/223/112
f 143/225/113 132/224/113 151/224/113
f 144/226/22 141/226/22 143/225/1
f 150/223/13 131/223/13 137/222/13 147/222/13
f 135/218/22 149/218/22 142/220/1
f 146/221/114 136/221/114 142/220/114
f 148/219/22 130/219/22 133/227/22 145/227/22
f 151/228/6 150/229/6 147/230/6 146/231/6 142/232/6 143/233/6
f 143/233/1 142/232/1 149/234/22 148/235/22 145/236/22 144/237/22
