# Blender 5.0.1
# www.blender.org
mtllib cobweb_4.mtl
o cobweb_4
v -0.000000 -0.800000 -0.000000
v 0.874981 -0.800000 -0.000000
v -0.000000 0.000000 -0.000000
v 0.874981 0.000000 -0.000000
v -0.000000 -0.800000 -0.002000
v 0.874981 -0.800000 -0.002000
v -0.000000 0.000000 -0.002000
v 0.874981 0.000000 -0.002000
vn -0.0000 -0.0000 1.0000
vn -0.0000 -0.0000 -1.0000
vt 0.000000 0.000000
vt 1.000000 0.000000
vt 1.000000 1.000000
vt 0.000000 1.000000
s 0
usemtl cobweb_4
f 1/1/1 2/2/1 4/3/1 3/4/1
f 5/1/2 7/4/2 8/3/2 6/2/2
