# Blender 5.0.1
# www.blender.org
mtllib arc_1_wall_1.mtl
o arc_1_wall_1
v -1.100000 2.600000 0.199999
v -1.100000 -0.000000 0.199999
v -1.100000 2.600000 -0.200001
v -1.100000 -0.000000 -0.200001
v -1.500000 0.000000 -0.200001
v -1.500000 0.000000 0.199999
v 1.100000 0.000000 0.199999
v 1.100000 0.000000 -0.200001
v 1.100000 2.600000 0.199999
v 1.500000 0.000000 -0.200001
v 1.500000 0.000000 0.199999
v -1.500000 3.000000 -0.200001
v -1.500000 3.000000 0.199999
v 1.100000 2.600000 -0.200001
v 1.500000 3.000000 -0.200001
v 1.500000 3.000000 0.199999
v 1.100000 0.160000 -0.200001
v 1.090000 0.160000 -0.200001
v 1.070000 0.110000 -0.200001
v 1.070000 0.000000 -0.200001
v 1.100000 0.160000 -0.200001
v 1.100001 0.000000 -0.230000
v 1.100001 0.110000 -0.230000
v 1.100001 0.160000 -0.210000
v 1.100000 0.160000 0.199999
v 1.090000 0.160000 0.199999
v 1.070000 0.110000 0.199999
v 1.070000 0.000000 0.199999
v 1.100001 0.000000 0.230000
v 1.100001 0.110000 0.230000
v 1.100000 0.160000 0.199999
v 1.100001 0.160000 0.210000
v 1.500000 0.160000 0.199999
v 1.500001 0.000000 0.230000
v 1.500001 0.110000 0.229999
v 1.500001 0.160000 0.210000
v 1.500001 0.000000 -0.230000
v 1.500001 0.110000 -0.230000
v 1.500000 0.160000 -0.200001
v 1.500001 0.160000 -0.210000
v -1.100000 0.160000 0.200001
v -1.090000 0.160000 0.200001
v -1.070000 0.110000 0.200001
v -1.070000 0.000000 0.200001
v -1.100000 0.160000 0.200001
v -1.100001 0.000000 0.230000
v -1.100001 0.110000 0.230000
v -1.100001 0.160000 0.210000
v -1.100000 0.160000 -0.199999
v -1.090000 0.160000 -0.199999
v -1.070000 0.110000 -0.199999
v -1.070000 0.000000 -0.199999
v -1.100001 0.000000 -0.230000
v -1.100001 0.110000 -0.230000
v -1.100000 0.160000 -0.199999
v -1.100001 0.160000 -0.210000
v -1.500000 0.160000 -0.199999
v -1.500001 0.000000 -0.230000
v -1.500001 0.110000 -0.229999
v -1.500001 0.160000 -0.210000
v -1.500001 0.000000 0.230000
v -1.500001 0.110000 0.230000
v -1.500000 0.160000 0.200001
v -1.500001 0.160000 0.210000
vn 1.0000 -0.0000 -0.0000
vn -1.0000 -0.0000 -0.0000
vn -0.0000 -0.0000 1.0000
vn -0.0000 -1.0000 -0.0000
vn -0.0000 -0.0000 -1.0000
vn -0.9285 0.3714 -0.0000
vn -0.7071 -0.0000 -0.7071
vn -0.6804 0.2722 -0.6804
vn -0.6804 0.2722 0.6804
vn -0.0000 1.0000 -0.0000
vn -0.7071 -0.0000 0.7071
vn -0.0000 0.3714 -0.9285
vn -0.0000 0.3714 0.9285
vn 0.9285 0.3714 -0.0000
vn 0.7071 -0.0000 0.7071
vn 0.6804 0.2722 0.6804
vn 0.6804 0.2722 -0.6804
vn 0.7071 -0.0000 -0.7071
vt 0.875000 0.000000
vt 0.773925 0.000000
vt 0.773925 0.866667
vt 0.875000 0.866667
vt 1.000000 0.000000
vt 1.000000 1.000000
vt 0.241935 1.000000
vt 0.241935 0.000000
vt 0.343011 0.000000
vt 0.343011 0.866667
vt 0.898925 0.866667
vt 0.898925 0.000000
vt 0.898925 0.875000
vt 0.898925 0.741667
vt 0.343011 0.741667
vt 0.343011 0.875000
vt -0.260320 -0.359202
vt -0.260320 -0.290929
vt -0.495514 -0.290929
vt -0.495514 -0.359202
vt -0.260320 -0.258224
vt -0.495514 -0.258224
vt 0.509877 0.800897
vt 0.533380 0.800897
vt 0.533380 0.873559
vt 0.509415 0.873559
vt 0.517323 0.768285
vt 0.524504 0.768285
vt 0.515627 0.706629
vt 0.506752 0.674017
vt 0.530255 0.674016
vt 0.522809 0.706629
vt 0.724442 0.789660
vt 0.728880 0.785222
vt 0.728880 0.794099
vt -0.260320 -0.329563
vt -0.495514 -0.329563
vt -0.495514 -0.335491
vt -0.260320 -0.335491
vt 0.506752 0.601355
vt 0.530718 0.601355
vt 0.724442 0.894067
vt 0.724442 0.894067
vt 0.728879 0.889630
vt 0.728880 0.898505
vt -0.260320 -0.359202
vt -0.260320 -0.290929
vt -0.260320 -0.258224
vt -0.495514 -0.258224
vt -0.260322 -0.329561
vt -0.495516 -0.329561
vt -0.495515 -0.335489
vt -0.260322 -0.335489
vt -0.495514 -0.258224
vt -0.260320 -0.258224
vt -0.495515 -0.293994
vt -0.260321 -0.293994
vt -0.260322 -0.288065
vt -0.495515 -0.288066
s 0
usemtl wall_3
f 2/1/1 4/2/1 3/3/1 1/4/1
f 8/2/2 7/1/2 9/4/2 14/3/2
f 11/5/3 16/6/3 13/7/3 6/8/3 2/9/3 1/10/3 9/11/3 7/12/3
f 1/13/4 3/14/4 14/15/4 9/16/4
f 5/8/5 12/7/5 15/6/5 10/5/5 8/12/5 14/11/5 3/10/5 4/9/5
usemtl door_frame_wood_1
f 28/17/2 27/18/2 19/19/2 20/20/2
f 26/21/6 18/22/6 19/19/6 27/18/6
f 19/23/7 23/24/7 22/25/7 20/26/7
f 18/27/8 24/28/8 23/24/8 19/23/8
f 26/29/9 27/30/9 30/31/9 32/32/9
f 25/33/10 26/34/10 32/35/10 31/33/10
f 25/36/10 17/37/10 18/38/10 26/39/10
f 27/30/11 28/40/11 29/41/11 30/31/11
f 17/42/10 21/43/10 24/44/10 18/45/10
f 22/46/5 23/47/5 38/19/5 37/20/5
f 24/48/12 40/49/12 38/19/12 23/47/12
f 21/50/10 39/51/10 40/52/10 24/53/10
f 34/20/3 35/19/3 30/18/3 29/46/3
f 36/54/13 32/55/13 30/18/13 35/19/13
f 33/56/10 31/57/10 32/58/10 36/59/10
f 52/17/1 51/18/1 43/19/1 44/20/1
f 50/21/14 42/22/14 43/19/14 51/18/14
f 43/23/15 47/24/15 46/25/15 44/26/15
f 42/27/16 48/28/16 47/24/16 43/23/16
f 50/29/17 51/30/17 54/31/17 56/32/17
f 49/33/10 50/34/10 56/35/10 55/33/10
f 49/36/10 41/37/10 42/38/10 50/39/10
f 51/30/18 52/40/18 53/41/18 54/31/18
f 41/42/10 45/43/10 48/44/10 42/45/10
f 46/46/3 47/47/3 62/19/3 61/20/3
f 48/48/13 64/49/13 62/19/13 47/47/13
f 45/50/10 63/51/10 64/52/10 48/53/10
f 58/20/5 59/19/5 54/18/5 53/46/5
f 60/54/12 56/55/12 54/18/12 59/19/12
f 57/56/10 55/57/10 56/58/10 60/59/10
