# Blender 5.0.1
# www.blender.org
mtllib arc_2_wall_1_plain.mtl
o arc_2_wall_1_plain
v -1.100000 -0.000000 0.199999
v -1.100000 -0.000000 -0.200001
v -1.500000 -0.000000 -0.200001
v -1.500000 -0.000000 0.199999
v 1.100000 0.000000 0.199999
v 1.100000 0.000000 -0.200001
v 1.500000 0.000000 -0.200001
v 1.500000 0.000000 0.199999
v -1.500000 3.000000 -0.200001
v -1.500000 3.000000 0.199999
v 1.500000 3.000000 -0.200001
v 1.500000 3.000000 0.199999
v -1.100000 1.500000 0.199999
v 0.000000 2.600000 0.199999
v -1.062518 1.784701 0.199999
v -0.952628 2.050000 0.199999
v -0.777817 2.277817 0.199999
v -0.550000 2.452628 0.199999
v -0.284701 2.562518 0.199999
v -1.100000 1.500000 -0.200001
v -0.284701 2.562518 -0.200001
v -0.550000 2.452628 -0.200001
v -0.777817 2.277817 -0.200001
v -0.952628 2.050000 -0.200001
v -1.062518 1.784701 -0.200001
v 1.100000 1.500000 0.199999
v 0.284701 2.562518 0.199999
v 0.550000 2.452628 0.199999
v 0.777818 2.277817 0.199999
v 0.952628 2.050000 0.199999
v 1.062518 1.784701 0.199999
v 1.100000 1.500000 -0.200001
v -0.000000 2.600000 -0.200001
v 1.062518 1.784701 -0.200001
v 0.952628 2.050000 -0.200001
v 0.777818 2.277817 -0.200001
v 0.550000 2.452628 -0.200001
v 0.284701 2.562518 -0.200001
vn -0.0000 -0.0000 1.0000
vn -0.0000 -0.0000 -1.0000
vn 1.0000 -0.0000 -0.0000
vn 0.9979 -0.0654 -0.0000
vn -1.0000 -0.0000 -0.0000
vn -0.9979 -0.0654 -0.0000
vn -0.0000 -1.0000 -0.0000
vn 0.2588 -0.9659 -0.0000
vn 0.5000 -0.8660 -0.0000
vn 0.7071 -0.7071 -0.0000
vn 0.8660 -0.5000 -0.0000
vn 0.9659 -0.2588 -0.0000
vn -0.2588 -0.9659 -0.0000
vn -0.5000 -0.8660 -0.0000
vn -0.7071 -0.7071 -0.0000
vn -0.8660 -0.5000 -0.0000
vn -0.9659 -0.2588 -0.0000
vt 0.241935 1.000000
vt 0.241935 0.000000
vt 0.343011 0.000000
vt 0.343011 0.500000
vt 0.352482 0.594901
vt 0.380250 0.683333
vt 0.424422 0.759273
vt 0.481989 0.817543
vt 0.549027 0.854173
vt 0.620968 0.866667
vt 0.692908 0.854173
vt 0.759946 0.817543
vt 0.817513 0.759273
vt 0.861686 0.683334
vt 0.889454 0.594900
vt 0.898925 0.500000
vt 0.898925 0.000000
vt 1.000000 0.000000
vt 1.000000 1.000000
vt 0.898925 0.500000
vt 0.889454 0.594900
vt 0.861686 0.683333
vt 0.817513 0.759273
vt 0.759946 0.817543
vt 0.692908 0.854173
vt 0.481989 0.817543
vt 0.424422 0.759273
vt 0.380250 0.683334
vt 0.352482 0.594900
vt 0.343011 0.500000
vt 0.172004 0.000000
vt 0.275451 0.000000
vt 0.275451 0.503995
vt 0.172004 0.503995
vt 0.068879 0.000477
vt 0.172326 0.000477
vt 0.172326 0.504472
vt 0.068879 0.504472
vt 0.275451 1.039562
vt 0.172004 1.039562
vt 0.172004 0.941597
vt 0.275451 0.941597
vt 0.172004 0.851368
vt 0.275451 0.851368
vt 0.172004 0.753403
vt 0.275451 0.753403
vt 0.172004 0.682517
vt 0.275451 0.682517
vt 0.172004 0.601960
vt 0.275451 0.601960
vt 0.172326 1.040039
vt 0.068879 1.040038
vt 0.068879 0.942073
vt 0.172326 0.942073
vt 0.068879 0.851845
vt 0.172326 0.851845
vt 0.068879 0.753880
vt 0.172326 0.753880
vt 0.068879 0.682994
vt 0.172326 0.682994
vt 0.068879 0.602437
vt 0.172326 0.602437
s 1
usemtl wall_mp_1
f 10/1/1 4/2/1 1/3/1 13/4/1 15/5/1 16/6/1 17/7/1 18/8/1 19/9/1 14/10/1 27/11/1 28/12/1 29/13/1 30/14/1 31/15/1 26/16/1 5/17/1 8/18/1 12/19/1
f 3/2/2 9/1/2 11/19/2 7/18/2 6/17/2 32/20/2 34/21/2 35/22/2 36/23/2 37/24/2 38/25/2 33/10/2 21/9/2 22/26/2 23/27/2 24/28/2 25/29/2 20/30/2 2/3/2
f 1/31/3 2/32/3 20/33/4 13/34/4
f 6/35/5 5/36/5 26/37/6 32/38/6
f 33/39/7 14/40/7 19/41/8 21/42/8
f 21/42/8 19/41/8 18/43/9 22/44/9
f 22/44/9 18/43/9 17/45/10 23/46/10
f 23/46/10 17/45/10 16/47/11 24/48/11
f 24/48/11 16/47/11 15/49/12 25/50/12
f 25/50/12 15/49/12 13/34/4 20/33/4
f 14/51/7 33/52/7 38/53/13 27/54/13
f 27/54/13 38/53/13 37/55/14 28/56/14
f 28/56/14 37/55/14 36/57/15 29/58/15
f 29/58/15 36/57/15 35/59/16 30/60/16
f 30/60/16 35/59/16 34/61/17 31/62/17
f 31/62/17 34/61/17 32/38/6 26/37/6
