# Blender 5.0.1
# www.blender.org
mtllib arc_1_wall_1_plain.mtl
o arc_1_wall_1_plain
v -1.100000 2.600000 0.199999
v -1.100000 -0.000000 0.199999
v -1.100000 2.600000 -0.200001
v -1.100000 -0.000000 -0.200001
v -1.500000 -0.000000 -0.200001
v -1.500000 -0.000000 0.199999
v 1.100000 -0.000000 0.199999
v 1.100000 -0.000000 -0.200001
v 1.100000 2.600000 0.199999
v 1.500000 -0.000000 -0.200001
v 1.500000 -0.000000 0.199999
v -1.500000 3.000000 -0.200001
v -1.500000 3.000000 0.199999
v 1.100000 2.600000 -0.200001
v 1.500000 3.000000 -0.200001
v 1.500000 3.000000 0.199999
vn 1.0000 -0.0000 -0.0000
vn -1.0000 -0.0000 -0.0000
vn -0.0000 -0.0000 1.0000
vn -0.0000 -1.0000 -0.0000
vn -0.0000 -0.0000 -1.0000
vt 0.875000 0.000000
vt 0.773925 0.000000
vt 0.773925 0.866667
vt 0.875000 0.866667
vt 1.000000 0.000000
vt 1.000000 1.000000
vt 0.241935 1.000000
vt 0.241935 0.000000
vt 0.343011 0.000000
vt 0.343011 0.866667
vt 0.898925 0.866667
vt 0.898925 0.000000
vt 0.343011 0.732833
vt 0.343011 0.866166
vt 0.898925 0.866166
vt 0.898925 0.732833
s 0
usemtl wall_mp_1
f 2/1/1 4/2/1 3/3/1 1/4/1
f 8/2/2 7/1/2 9/4/2 14/3/2
f 11/5/3 16/6/3 13/7/3 6/8/3 2/9/3 1/10/3 9/11/3 7/12/3
f 1/13/4 3/14/4 14/15/4 9/16/4
f 5/8/5 12/7/5 15/6/5 10/5/5 8/12/5 14/11/5 3/10/5 4/9/5
