# Blender 5.0.1
# www.blender.org
mtllib arc_2_wall_1.mtl
o arc_2_wall_1
v -1.100000 -0.000000 0.199999
v -1.100000 -0.000000 -0.200001
v -1.500000 0.000000 -0.200001
v -1.500000 0.000000 0.199999
v 1.100000 0.000000 0.199999
v 1.100000 0.000000 -0.200001
v 1.500000 0.000000 -0.200001
v 1.500000 0.000000 0.199999
v -1.500000 3.000000 -0.200001
v -1.500000 3.000000 0.199999
v 1.500000 3.000000 -0.200001
v 1.500000 3.000000 0.199999
v 1.100000 0.160000 -0.200001
v 1.090000 0.160000 -0.200001
v 1.070000 0.110000 -0.200001
v 1.070000 0.000000 -0.200001
v 1.100000 0.160000 -0.200001
v 1.100001 0.000000 -0.230000
v 1.100001 0.110000 -0.230000
v 1.100001 0.160000 -0.210000
v 1.100000 0.160000 0.199999
v 1.090000 0.160000 0.199999
v 1.070000 0.110000 0.199999
v 1.070000 0.000000 0.199999
v 1.100001 0.000000 0.230000
v 1.100001 0.110000 0.230000
v 1.100000 0.160000 0.199999
v 1.100001 0.160000 0.210000
v 1.500000 0.160000 0.199999
v 1.500001 0.000000 0.230000
v 1.500001 0.110000 0.229999
v 1.500001 0.160000 0.210000
v 1.500001 0.000000 -0.230000
v 1.500001 0.110000 -0.230000
v 1.500000 0.160000 -0.200001
v 1.500001 0.160000 -0.210000
v -1.100000 0.160000 0.200001
v -1.090000 0.160000 0.200001
v -1.070000 0.110000 0.200001
v -1.070000 0.000000 0.200001
v -1.100000 0.160000 0.200001
v -1.100001 0.000000 0.230000
v -1.100001 0.110000 0.230000
v -1.100001 0.160000 0.210000
v -1.100000 0.160000 -0.199999
v -1.090000 0.160000 -0.199999
v -1.070000 0.110000 -0.199999
v -1.070000 0.000000 -0.199999
v -1.100001 0.000000 -0.230000
v -1.100001 0.110000 -0.230000
v -1.100000 0.160000 -0.199999
v -1.100001 0.160000 -0.210000
v -1.500000 0.160000 -0.199999
v -1.500001 0.000000 -0.230000
v -1.500001 0.110000 -0.229999
v -1.500001 0.160000 -0.210000
v -1.500001 0.000000 0.230000
v -1.500001 0.110000 0.230000
v -1.500000 0.160000 0.200001
v -1.500001 0.160000 0.210000
v -1.100000 1.500000 0.199999
v 0.000000 2.600000 0.199999
v -1.062518 1.784701 0.199999
v -0.952628 2.050000 0.199999
v -0.777817 2.277817 0.199999
v -0.550000 2.452628 0.199999
v -0.284701 2.562518 0.199999
v -1.100000 1.500000 -0.200001
v -0.284701 2.562518 -0.200001
v -0.550000 2.452628 -0.200001
v -0.777817 2.277817 -0.200001
v -0.952628 2.050000 -0.200001
v -1.062518 1.784701 -0.200001
v 1.100000 1.500000 0.199999
v 0.284701 2.562518 0.199999
v 0.550000 2.452628 0.199999
v 0.777818 2.277817 0.199999
v 0.952628 2.050000 0.199999
v 1.062518 1.784701 0.199999
v 1.100000 1.500000 -0.200001
v -0.000000 2.600000 -0.200001
v 1.062518 1.784701 -0.200001
v 0.952628 2.050000 -0.200001
v 0.777818 2.277817 -0.200001
v 0.550000 2.452628 -0.200001
v 0.284701 2.562518 -0.200001
v -1.100000 -0.000000 0.199999
v -1.100000 -0.000000 -0.200001
v 1.100000 0.000000 0.199999
v 1.100000 0.000000 -0.200001
v -1.100000 1.500000 0.199999
v 0.000000 2.600000 0.199999
v -1.062518 1.784701 0.199999
v -0.952628 2.050000 0.199999
v -0.777817 2.277817 0.199999
v -0.550000 2.452628 0.199999
v -0.284701 2.562518 0.199999
v -1.100000 1.500000 -0.200001
v -0.284701 2.562518 -0.200001
v -0.550000 2.452628 -0.200001
v -0.777817 2.277817 -0.200001
v -0.952628 2.050000 -0.200001
v -1.062518 1.784701 -0.200001
v 1.100000 1.500000 0.199999
v 0.284701 2.562518 0.199999
v 0.550000 2.452628 0.199999
v 0.777818 2.277817 0.199999
v 0.952628 2.050000 0.199999
v 1.062518 1.784701 0.199999
v 1.100000 1.500000 -0.200001
v -0.000000 2.600000 -0.200001
v 1.062518 1.784701 -0.200001
v 0.952628 2.050000 -0.200001
v 0.777818 2.277817 -0.200001
v 0.550000 2.452628 -0.200001
v 0.284701 2.562518 -0.200001
vn -0.0000 -0.0000 1.0000
vn -0.0000 -0.0000 -1.0000
vn -1.0000 -0.0000 -0.0000
vn -0.9820 0.1891 -0.0000
vn -0.9285 0.3714 -0.0000
vn -0.7016 0.1247 -0.7016
vn -0.7071 -0.0000 -0.7071
vn -0.6804 0.2722 -0.6804
vn -0.6804 0.2722 0.6804
vn -0.7016 0.1247 0.7016
vn -0.0000 1.0000 -0.0000
vn -0.7071 -0.0000 0.7071
vn -0.0000 0.1891 -0.9820
vn -0.0000 0.3714 -0.9285
vn -0.0000 0.1891 0.9820
vn -0.0000 0.3714 0.9285
vn 1.0000 -0.0000 -0.0000
vn 0.9820 0.1891 -0.0000
vn 0.9285 0.3714 -0.0000
vn 0.7016 0.1247 0.7016
vn 0.7071 -0.0000 0.7071
vn 0.6804 0.2722 0.6804
vn 0.6804 0.2722 -0.6804
vn 0.7016 0.1247 -0.7016
vn 0.7071 -0.0000 -0.7071
vn 0.9979 -0.0654 -0.0000
vn -0.9979 -0.0654 -0.0000
vn -0.0000 -1.0000 -0.0000
vn 0.2588 -0.9659 -0.0000
vn 0.5000 -0.8660 -0.0000
vn 0.7071 -0.7071 -0.0000
vn 0.8660 -0.5000 -0.0000
vn 0.9659 -0.2588 -0.0000
vn -0.2588 -0.9659 -0.0000
vn -0.5000 -0.8660 -0.0000
vn -0.7071 -0.7071 -0.0000
vn -0.8660 -0.5000 -0.0000
vn -0.9659 -0.2588 -0.0000
vt 0.241935 1.000000
vt 0.241935 0.000000
vt 0.343011 0.000000
vt 0.343011 0.500000
vt 0.352482 0.594901
vt 0.380250 0.683333
vt 0.424422 0.759273
vt 0.481989 0.817543
vt 0.549027 0.854173
vt 0.620968 0.866667
vt 0.692908 0.854173
vt 0.759946 0.817543
vt 0.817513 0.759273
vt 0.861686 0.683334
vt 0.889454 0.594900
vt 0.898925 0.500000
vt 0.898925 0.000000
vt 1.000000 0.000000
vt 1.000000 1.000000
vt 0.898925 0.500000
vt 0.889454 0.594900
vt 0.861686 0.683333
vt 0.817513 0.759273
vt 0.759946 0.817543
vt 0.692908 0.854173
vt 0.481989 0.817543
vt 0.424422 0.759273
vt 0.380250 0.683334
vt 0.352482 0.594900
vt 0.343011 0.500000
vt -0.260320 -0.359202
vt -0.260320 -0.290929
vt -0.495514 -0.290929
vt -0.495514 -0.359202
vt -0.260320 -0.258224
vt -0.495514 -0.258224
vt 0.509877 0.800897
vt 0.533380 0.800897
vt 0.533380 0.873559
vt 0.509415 0.873559
vt 0.517323 0.768285
vt 0.524504 0.768285
vt 0.515627 0.706629
vt 0.506752 0.674017
vt 0.530255 0.674016
vt 0.522809 0.706629
vt 0.724442 0.789660
vt 0.728880 0.785222
vt 0.728880 0.794099
vt -0.260320 -0.329563
vt -0.495514 -0.329563
vt -0.495514 -0.335491
vt -0.260320 -0.335491
vt 0.506752 0.601355
vt 0.530718 0.601355
vt 0.724442 0.894067
vt 0.724442 0.894067
vt 0.728879 0.889630
vt 0.728880 0.898505
vt -0.260320 -0.359202
vt -0.260320 -0.290929
vt -0.260320 -0.258224
vt -0.495514 -0.258224
vt -0.260322 -0.329561
vt -0.495516 -0.329561
vt -0.495515 -0.335489
vt -0.260322 -0.335489
vt -0.495514 -0.258224
vt -0.260320 -0.258224
vt -0.495515 -0.293994
vt -0.260321 -0.293994
vt -0.260322 -0.288065
vt -0.495515 -0.288066
vt 0.172004 0.000000
vt 0.275451 0.000000
vt 0.275451 0.500167
vt 0.172004 0.500167
vt 0.068879 0.000477
vt 0.172326 0.000477
vt 0.172326 0.500039
vt 0.068879 0.500039
vt 0.275451 0.999584
vt 0.172004 0.999584
vt 0.172004 0.918482
vt 0.275451 0.918482
vt 0.172004 0.828254
vt 0.275451 0.828254
vt 0.172004 0.730289
vt 0.275451 0.730289
vt 0.172004 0.659403
vt 0.275451 0.659403
vt 0.172004 0.578846
vt 0.275451 0.578846
vt 0.172326 1.000061
vt 0.068879 1.000060
vt 0.068879 0.918959
vt 0.172326 0.918959
vt 0.068879 0.828731
vt 0.172326 0.828731
vt 0.068879 0.730765
vt 0.172326 0.730765
vt 0.068879 0.659880
vt 0.172326 0.659880
vt 0.068879 0.579323
vt 0.172326 0.579323
s 1
usemtl wall_3
f 10/1/1 4/2/1 1/3/1 61/4/1 63/5/1 64/6/1 65/7/1 66/8/1 67/9/1 62/10/1 75/11/1 76/12/1 77/13/1 78/14/1 79/15/1 74/16/1 5/17/1 8/18/1 12/19/1
f 3/2/2 9/1/2 11/19/2 7/18/2 6/17/2 80/20/2 82/21/2 83/22/2 84/23/2 85/24/2 86/25/2 81/10/2 69/9/2 70/26/2 71/27/2 72/28/2 73/29/2 68/30/2 2/3/2
f 87/74/17 88/75/17 98/76/26 91/77/26
f 90/78/3 89/79/3 104/80/27 110/81/27
f 111/82/28 92/83/28 97/84/29 99/85/29
f 99/85/29 97/84/29 96/86/30 100/87/30
f 100/87/30 96/86/30 95/88/31 101/89/31
f 101/89/31 95/88/31 94/90/32 102/91/32
f 102/91/32 94/90/32 93/92/33 103/93/33
f 103/93/33 93/92/33 91/77/26 98/76/26
f 92/94/28 111/95/28 116/96/34 105/97/34
f 105/97/34 116/96/34 115/98/35 106/99/35
f 106/99/35 115/98/35 114/100/36 107/101/36
f 107/101/36 114/100/36 113/102/37 108/103/37
f 108/103/37 113/102/37 112/104/38 109/105/38
f 109/105/38 112/104/38 110/81/27 104/80/27
usemtl door_frame_wood_1
f 24/31/3 23/32/4 15/33/4 16/34/3
f 22/35/5 14/36/5 15/33/4 23/32/4
f 15/37/6 19/38/6 18/39/7 16/40/7
f 14/41/8 20/42/8 19/38/6 15/37/6
f 22/43/9 23/44/10 26/45/10 28/46/9
f 21/47/11 22/48/11 28/49/11 27/47/11
f 21/50/11 13/51/11 14/52/11 22/53/11
f 23/44/10 24/54/12 25/55/12 26/45/10
f 13/56/11 17/57/11 20/58/11 14/59/11
f 18/60/2 19/61/13 34/33/13 33/34/2
f 20/62/14 36/63/14 34/33/13 19/61/13
f 17/64/11 35/65/11 36/66/11 20/67/11
f 30/34/1 31/33/15 26/32/15 25/60/1
f 32/68/16 28/69/16 26/32/15 31/33/15
f 29/70/11 27/71/11 28/72/11 32/73/11
f 48/31/17 47/32/18 39/33/18 40/34/17
f 46/35/19 38/36/19 39/33/18 47/32/18
f 39/37/20 43/38/20 42/39/21 40/40/21
f 38/41/22 44/42/22 43/38/20 39/37/20
f 46/43/23 47/44/24 50/45/24 52/46/23
f 45/47/11 46/48/11 52/49/11 51/47/11
f 45/50/11 37/51/11 38/52/11 46/53/11
f 47/44/24 48/54/25 49/55/25 50/45/24
f 37/56/11 41/57/11 44/58/11 38/59/11
f 42/60/1 43/61/15 58/33/15 57/34/1
f 44/62/16 60/63/16 58/33/15 43/61/15
f 41/64/11 59/65/11 60/66/11 44/67/11
f 54/34/2 55/33/13 50/32/13 49/60/2
f 56/68/14 52/69/14 50/32/13 55/33/13
f 53/70/11 51/71/11 52/72/11 56/73/11
