# Blender 5.0.1
# www.blender.org
mtllib beam_4.mtl
o beam_4
v 2.000000 -0.000000 0.100000
v 2.000000 -0.000000 -0.100000
v 2.000000 -0.250000 0.100000
v 2.000000 -0.250000 -0.100000
v 2.000000 -0.062500 0.020000
v 2.000000 -0.041619 0.031163
v -2.000000 -0.220720 -0.095039
v 2.000000 -0.062500 -0.020000
v 2.000000 -0.041619 -0.031163
v -2.000000 -0.220720 0.095038
v 2.000000 -0.187500 0.020000
v 2.000000 -0.208381 0.031163
v -2.000000 -0.029281 -0.095039
v 2.000000 -0.187500 -0.020000
v 2.000000 -0.208381 -0.031163
v -2.000000 -0.029281 0.095038
v 2.000000 -0.029281 0.095039
v -2.000000 -0.208381 -0.031163
v -2.000000 -0.187500 -0.020000
v -2.000000 -0.208381 0.031163
v 2.000000 -0.029281 -0.095038
v -2.000000 -0.187500 0.020000
v -2.000000 -0.041619 -0.031163
v 2.000000 -0.220720 0.095039
v -2.000000 -0.062500 -0.020000
v -2.000000 -0.041619 0.031163
v -2.000000 -0.062500 0.020000
v 2.000000 -0.220720 -0.095038
v -2.000000 -0.250000 -0.100000
v -2.000000 -0.250000 0.100000
v -2.000000 -0.000000 -0.100000
v -2.000000 -0.000000 0.100000
vn -0.0000 -0.1671 0.9859
vn -1.0000 -0.0000 -0.0000
vn 1.0000 -0.0000 -0.0000
vn -0.0000 0.2430 -0.9700
vn -0.0000 -0.2430 -0.9700
vn -0.0000 0.1671 -0.9859
vn -0.0000 -0.8049 -0.5934
vn -0.0000 0.2430 0.9700
vn -0.0000 0.8049 0.5934
vn -0.0000 -0.2430 0.9700
vn -0.0000 -0.8049 0.5934
vn -0.0000 -0.9818 0.1897
vn -0.0000 -1.0000 -0.0000
vn -0.0000 -0.9818 -0.1897
vn -0.0000 0.9818 0.1897
vn -0.0000 0.8049 -0.5934
vn -0.0000 0.9818 -0.1897
vn -0.0000 -0.1671 -0.9859
vn -0.0000 1.0000 -0.0000
vn -0.0000 0.1671 0.9859
vt 1.200000 0.543750
vt -0.200000 0.543750
vt -0.200000 0.533502
vt 1.200000 0.533502
vt 0.456250 0.465000
vt 0.456250 0.535000
vt 0.466498 0.533263
vt 0.466498 0.466736
vt 0.466498 0.533264
vt 0.456250 0.535000
vt 0.456250 0.465000
vt 0.466498 0.466737
vt 0.529183 0.510907
vt 0.529183 0.489093
vt 0.533502 0.466737
vt 0.533502 0.533264
vt 0.543750 0.465000
vt 0.533502 0.466736
vt 0.533502 0.533263
vt 0.543750 0.535000
vt 0.478125 0.493000
vt 0.470817 0.489093
vt 0.470817 0.510907
vt 0.478125 0.507000
vt 1.200000 0.478125
vt -0.200000 0.478125
vt -0.200000 0.521875
vt 1.200000 0.521875
vt 0.521875 0.507000
vt 0.521875 0.493000
vt 1.200000 0.456250
vt -0.200000 0.456250
vt -0.200000 0.466498
vt 1.200000 0.466498
vt 0.529183 0.489093
vt 0.529183 0.510907
vt 0.470817 0.510907
vt 0.470817 0.489093
vt -0.200000 0.529183
vt 1.200000 0.529183
vt -0.200000 0.470817
vt 1.200000 0.470817
vt 1.200000 0.510907
vt 1.200000 0.533264
vt -0.200000 0.533263
vt -0.200000 0.510907
vt 0.478125 0.507000
vt 0.478125 0.493000
vt 1.200000 0.535000
vt -0.200000 0.535000
vt -0.200000 0.465000
vt 1.200000 0.465000
vt -0.200000 0.466736
vt 1.200000 0.466737
vt 1.200000 0.489093
vt -0.200000 0.489093
vt 0.521875 0.493000
vt 0.521875 0.507000
vt 0.543750 0.465000
vt 0.543750 0.535000
s 1
usemtl metal_mp_6
f 1/1/1 32/2/1 16/3/1 17/4/1
f 29/5/2 30/6/2 10/7/2 7/8/2
f 24/9/3 3/10/3 4/11/3 28/12/3
f 6/13/3 9/14/3 21/15/3 17/16/3
f 31/17/2 13/18/2 16/19/2 32/20/2
f 19/21/2 18/22/2 20/23/2 22/24/2
f 18/22/2 7/8/2 10/7/2 20/23/2
f 14/25/4 19/26/4 25/27/5 8/28/5
f 5/29/3 8/30/3 9/14/3 6/13/3
f 4/31/6 29/32/6 7/33/6 28/34/6
f 13/18/2 23/35/2 26/36/2 16/19/2
f 12/37/3 24/9/3 28/12/3 15/38/3
f 8/28/5 25/27/5 23/39/7 9/40/7
f 22/26/8 20/41/9 12/42/9 11/25/8
f 5/28/10 27/27/10 22/26/8 11/25/8
f 6/43/11 17/44/12 16/45/12 26/46/11
f 8/30/3 5/29/3 11/47/3 14/48/3
f 12/37/3 15/38/3 14/48/3 11/47/3
f 3/49/13 30/50/13 29/51/13 4/52/13
f 13/53/14 21/54/14 9/55/7 23/56/7
f 12/43/9 20/46/9 10/45/15 24/44/15
f 19/26/4 14/25/4 15/42/16 18/41/16
f 7/53/17 18/56/16 15/55/16 28/54/17
f 31/2/18 2/1/18 21/4/18 13/3/18
f 25/57/2 19/21/2 22/24/2 27/58/2
f 2/52/19 31/51/19 32/50/19 1/49/19
f 23/35/2 25/57/2 27/58/2 26/36/2
f 26/39/11 27/27/10 5/28/10 6/40/11
f 17/16/3 21/15/3 2/59/3 1/60/3
f 24/34/20 10/33/20 30/32/20 3/31/20
