# Blender 5.0.1
# www.blender.org
mtllib beam_2.mtl
o beam_2
v 1.999999 0.199999 0.230000
v -2.000001 0.199999 0.230000
v 1.999999 0.199999 -0.230000
v -2.000001 0.199999 -0.230000
v 1.999999 0.229999 0.200000
v 1.999999 0.229999 -0.200000
v -2.000001 0.229999 -0.200000
v 1.999999 -0.200001 -0.230000
v -2.000001 -0.200001 -0.230000
v 1.999999 -0.200001 0.230000
v -2.000001 -0.200001 0.230000
v 1.999999 -0.230001 0.200000
v -2.000001 -0.230000 0.199999
v -2.000001 0.230000 0.199999
v 1.999999 -0.230001 -0.200001
v -2.000001 -0.230000 -0.200001
vn -0.0000 -0.0000 -1.0000
vn -0.0000 0.7071 -0.7071
vn -0.0000 0.7071 0.7071
vn -0.0000 -0.7071 0.7071
vn -0.0000 -0.7071 -0.7071
vn -0.0000 -0.0000 1.0000
vn -0.0000 1.0000 -0.0000
vn -0.0000 -1.0000 -0.0000
vt 0.055555 -0.055556
vt -0.055556 -0.055556
vt -0.055556 1.055555
vt 0.055555 1.055556
vt 0.063889 -0.055556
vt 0.063889 1.055556
vt 0.055556 1.055556
vt 0.055556 -0.055556
vt 0.055555 1.055555
vt 0.055555 -0.055556
vt 0.063889 -0.055556
vt 0.063889 1.055556
vt -0.063889 -0.055556
vt -0.063889 1.055555
vt -0.055555 1.055556
vt -0.055556 -0.055556
vt -0.063889 -0.055556
vt -0.063889 1.055556
vt -0.055556 -0.055556
vt -0.055556 1.055555
vt -0.055556 -0.055556
vt -0.055555 1.055555
vt 0.055556 -0.055556
vt 0.055556 1.055556
s 0
usemtl concrete_1
f 3/1/1 8/2/1 9/3/1 4/4/1
f 3/5/2 4/6/2 7/7/2 6/8/2
f 2/9/3 1/10/3 5/11/3 14/12/3
f 10/13/4 11/14/4 13/15/4 12/16/4
f 9/3/5 8/2/5 15/17/5 16/18/5
f 10/19/6 1/10/6 2/9/6 11/20/6
f 5/21/7 6/8/7 7/7/7 14/22/7
f 15/23/8 12/16/8 13/15/8 16/24/8
