# Blender 5.0.1
# www.blender.org
mtllib catwalk_1.mtl
o catwalk_1
v -2.000001 -0.051000 -0.900000
v -2.000001 0.049000 -0.900000
v -2.000001 -0.051000 -1.000000
v -2.000001 0.049000 -1.000000
v 1.999999 -0.051000 -0.900000
v 1.999999 0.049000 -0.900000
v 1.999999 -0.051000 -1.000000
v 1.999999 0.049000 -1.000000
v -2.000001 -0.050999 1.000000
v -2.000001 0.049000 1.000000
v -2.000001 -0.050999 0.900000
v -2.000001 0.049000 0.900000
v 1.999999 -0.050999 1.000000
v 1.999999 0.049000 1.000000
v 1.999999 -0.050999 0.900000
v 1.999999 0.049000 0.900000
v 0.530000 0.009000 0.900000
v 0.470000 0.009000 0.900000
v 0.530000 -0.021000 0.900000
v 0.470000 -0.021000 0.900000
v 0.530000 0.009000 -0.900000
v 0.470000 0.009000 -0.900000
v 0.530000 -0.021000 -0.900000
v 0.470000 -0.021000 -0.900000
v -1.470000 0.009000 0.900000
v -1.530000 0.009000 0.900000
v -1.470000 -0.021000 0.900000
v -1.530000 -0.021000 0.900000
v -1.470000 0.009000 -0.900000
v -1.530000 0.009000 -0.900000
v -1.470000 -0.021000 -0.900000
v -1.530000 -0.021000 -0.900000
v -0.470000 0.009000 0.900000
v -0.530000 0.009000 0.900000
v -0.470000 -0.021000 0.900000
v -0.530000 -0.021000 0.900000
v -0.470000 0.009000 -0.900000
v -0.530000 0.009000 -0.900000
v -0.470000 -0.021000 -0.900000
v -0.530000 -0.021000 -0.900000
v 1.530000 0.009000 0.900000
v 1.470000 0.009000 0.900000
v 1.530000 -0.021000 0.900000
v 1.470000 -0.021000 0.900000
v 1.530000 0.009000 -0.900000
v 1.470000 0.009000 -0.900000
v 1.530000 -0.021000 -0.900000
v 1.470000 -0.021000 -0.900000
v -1.950971 0.028806 -0.850000
v 1.950971 0.028806 -0.850000
v -1.950971 0.028806 0.850000
v 1.950971 0.028806 0.850000
v 2.000000 0.009001 0.900000
v -2.000000 0.009001 -0.900000
v -2.000000 0.009001 0.900000
v 2.000000 0.009001 -0.900000
v 2.000000 0.028806 -0.900000
v 2.000000 0.028806 0.900000
v -2.000000 0.028806 0.900000
v -2.000000 0.028806 -0.900000
v 1.950971 0.018806 -0.850000
v 1.950971 0.018806 0.850000
v -1.950971 0.018806 0.850000
v -1.950971 0.018806 -0.850000
vn -0.0000 -0.0000 1.0000
vn -0.0000 -0.0000 -1.0000
vn -0.0000 1.0000 -0.0000
vn -0.0000 -1.0000 -0.0000
vn 1.0000 -0.0000 -0.0000
vn -1.0000 -0.0000 -0.0000
vn 0.1925 -0.9813 -0.0000
vn -0.0000 -0.9806 0.1961
vn -0.1925 -0.9813 -0.0000
vn -0.0000 -0.9806 -0.1961
vt -0.166667 0.483333
vt 1.166667 0.483333
vt 1.166667 0.516667
vt -0.166667 0.516667
vt 1.166667 0.483334
vt -0.166667 0.483334
vt 1.166667 0.166667
vt -0.166667 0.166667
vt -0.166667 0.200000
vt 1.166667 0.200000
vt 1.166667 0.800000
vt -0.166667 0.800000
vt -0.166667 0.833333
vt 1.166667 0.833333
vt 1.166667 0.516667
vt -0.166667 0.516667
vt 0.676667 0.800000
vt 0.656667 0.800000
vt 0.656667 0.200000
vt 0.676667 0.200000
vt 0.493333 0.800000
vt 0.493333 0.200000
vt 0.503333 0.200000
vt 0.503333 0.800000
vt 0.010000 0.800000
vt -0.010000 0.800000
vt -0.010000 0.200000
vt 0.010000 0.200000
vt 0.343333 0.800000
vt 0.323334 0.800000
vt 0.323334 0.200000
vt 0.343333 0.200000
vt 1.010000 0.800000
vt 0.990000 0.800000
vt 0.990000 0.200000
vt 1.010000 0.200000
vt -0.150324 0.504968
vt -0.150324 0.501634
vt 1.150324 0.501634
vt 1.150324 0.504968
vt 0.783333 1.150324
vt 0.800000 1.166667
vt 0.200000 1.166667
vt 0.216667 1.150324
vt 0.200000 -0.166667
vt 0.216667 -0.150324
vt 0.800000 -0.166667
vt 0.783333 -0.150324
vt 0.783333 0.504968
vt 0.783333 0.501634
vt 0.216667 0.501634
vt 0.216667 0.504968
vt 0.216667 0.504968
vt 0.216667 0.501634
vt 0.783333 0.501634
vt 0.783333 0.504968
s 0
usemtl metal_mp_6
f 1/1/1 5/2/1 6/3/1 2/4/1
f 12/4/2 16/3/2 15/5/2 11/6/2
f 8/7/3 4/8/3 2/9/3 6/10/3
f 7/2/2 3/1/2 4/4/2 8/3/2
f 16/11/3 12/12/3 10/13/3 14/14/3
f 11/12/4 15/11/4 13/14/4 9/13/4
f 14/15/1 10/16/1 9/6/1 13/5/1
f 3/8/4 7/7/4 5/10/4 1/9/4
f 19/17/4 20/18/4 24/19/4 23/20/4
f 21/20/3 22/19/3 18/18/3 17/17/3
f 19/21/5 23/22/5 21/23/5 17/24/5
f 24/22/6 20/21/6 18/24/6 22/23/6
f 27/25/4 28/26/4 32/27/4 31/28/4
f 29/28/3 30/27/3 26/26/3 25/25/3
f 27/21/5 31/22/5 29/23/5 25/24/5
f 32/22/6 28/21/6 26/24/6 30/23/6
f 35/29/4 36/30/4 40/31/4 39/32/4
f 37/32/3 38/31/3 34/30/3 33/29/3
f 35/21/5 39/22/5 37/23/5 33/24/5
f 40/22/6 36/21/6 34/24/6 38/23/6
f 43/33/4 44/34/4 48/35/4 47/36/4
f 45/36/3 46/35/3 42/34/3 41/33/3
f 43/21/5 47/22/5 45/23/5 41/24/5
f 48/22/6 44/21/6 42/24/6 46/23/6
f 49/37/1 64/38/1 61/39/1 50/40/1
f 52/40/2 62/39/2 63/38/2 51/37/2
f 52/41/3 58/42/3 57/43/3 50/44/3
f 50/44/3 57/43/3 60/45/3 49/46/3
f 49/46/3 60/45/3 59/47/3 51/48/3
f 51/48/3 59/47/3 58/42/3 52/41/3
f 51/49/5 63/50/5 64/51/5 49/52/5
f 50/53/6 61/54/6 62/55/6 52/56/6
f 56/43/7 53/42/8 55/47/9 54/45/10
usemtl floor_3_metal_1
f 62/41/3 61/44/3 64/46/3 63/48/3
o handrail_4
v -2.000000 0.343000 0.105000
v -2.000000 0.373000 0.105000
v -2.000000 0.343000 0.095000
v -2.000000 0.373000 0.095000
v 2.000000 0.343000 0.105000
v 2.000000 0.373000 0.105000
v 2.000000 0.343000 0.095000
v 2.000000 0.373000 0.095000
v -0.020001 0.060000 0.010000
v -0.020001 1.170000 0.110000
v -0.020001 0.060000 -0.010000
v -0.020001 1.170000 0.090000
v 0.019999 0.060000 0.010000
v 0.019999 1.170000 0.110000
v 0.019999 0.060000 -0.010000
v 0.019999 1.170000 0.090000
v -0.100001 1.200000 0.110000
v -0.100001 1.200000 0.090000
v 0.099999 1.200000 0.110000
v 0.099999 1.200000 0.090000
v -0.100001 1.210000 0.110000
v -0.100001 1.210000 0.090000
v 0.099999 1.210000 0.110000
v 0.099999 1.210000 0.090000
v -0.040001 0.060000 0.030000
v -0.040001 0.060000 -0.030000
v 0.039999 0.060000 0.030000
v 0.039999 0.060000 -0.030000
v -0.040001 0.050000 0.030000
v -0.040001 0.050000 -0.030000
v 0.039999 0.050000 0.030000
v 0.039999 0.050000 -0.030000
v 0.979999 0.060000 0.010000
v 0.979999 1.170000 0.110000
v 0.979999 0.060000 -0.010000
v 0.979999 1.170000 0.090000
v 1.019999 0.060000 0.010000
v 1.019999 1.170000 0.110000
v 1.019999 0.060000 -0.010000
v 1.019999 1.170000 0.090000
v 0.899999 1.200000 0.110000
v 0.899999 1.200000 0.090000
v 1.099999 1.200000 0.110000
v 1.099999 1.200000 0.090000
v 0.899999 1.210000 0.110000
v 0.899999 1.210000 0.090000
v 1.099999 1.210000 0.110000
v 1.099999 1.210000 0.090000
v 0.959999 0.060000 0.030000
v 0.959999 0.060000 -0.030000
v 1.039999 0.060000 0.030000
v 1.039999 0.060000 -0.030000
v 0.959999 0.050000 0.030000
v 0.959999 0.050000 -0.030000
v 1.039999 0.050000 0.030000
v 1.039999 0.050000 -0.030000
v -1.020001 0.060000 0.010000
v -1.020001 1.170000 0.110000
v -1.020001 0.060000 -0.010000
v -1.020001 1.170000 0.090000
v -0.980001 0.060000 0.010000
v -0.980001 1.170000 0.110000
v -0.980001 0.060000 -0.010000
v -0.980001 1.170000 0.090000
v -1.100001 1.200000 0.110000
v -1.100001 1.200000 0.090000
v -0.900001 1.200000 0.110000
v -0.900001 1.200000 0.090000
v -1.100001 1.210000 0.110000
v -1.100001 1.210000 0.090000
v -0.900001 1.210000 0.110000
v -0.900001 1.210000 0.090000
v -1.040001 0.060000 0.030000
v -1.040001 0.060000 -0.030000
v -0.960001 0.060000 0.030000
v -0.960001 0.060000 -0.030000
v -1.040001 0.050000 0.030000
v -1.040001 0.050000 -0.030000
v -0.960001 0.050000 0.030000
v -0.960001 0.050000 -0.030000
v -2.000001 1.215000 0.125981
v -2.000001 1.245000 0.125981
v -2.000001 1.200000 0.100000
v -2.000001 1.215000 0.074019
v -2.000001 1.260000 0.100000
v -2.000001 1.245000 0.074019
v 1.999999 1.200000 0.100000
v 1.999999 1.215000 0.125981
v 1.999999 1.260000 0.100000
v 1.999999 1.245000 0.125981
v 1.999999 1.215000 0.074019
v 1.999999 1.245000 0.074019
v -1.020001 0.337500 0.090000
v -0.980001 0.337500 0.090000
v -0.980001 0.337500 0.110000
v -1.020001 0.337500 0.110000
v -0.020001 0.337500 0.090000
v 0.019999 0.337500 0.090000
v 0.019999 0.337500 0.110000
v -0.020001 0.337500 0.110000
v 0.979999 0.337500 0.090000
v 1.019999 0.337500 0.090000
v 1.019999 0.337500 0.110000
v 0.979999 0.337500 0.110000
v -2.000000 0.743000 0.105000
v -2.000000 0.773000 0.105000
v -2.000000 0.743000 0.095000
v -2.000000 0.773000 0.095000
v 2.000000 0.743000 0.105000
v 2.000000 0.773000 0.105000
v 2.000000 0.743000 0.095000
v 2.000000 0.773000 0.095000
vn -0.0000 -0.0000 -1.0000
vn -0.0000 -0.0000 1.0000
vn -0.0000 -1.0000 -0.0000
vn -0.0000 1.0000 -0.0000
vn -1.0000 -0.0000 -0.0000
vn 1.0000 -0.0000 -0.0000
vn 0.3511 -0.9363 -0.0000
vn -0.3511 -0.9363 -0.0000
vn -0.0000 0.8660 -0.5000
vn -0.0000 -0.8660 0.5000
vn -0.0000 0.8660 0.5000
vn -0.0000 0.3390 -0.9408
vn -0.0000 -0.3390 0.9408
vn -0.0000 -0.8660 -0.5000
vt -0.166666 0.396000
vt -0.166666 0.406000
vt 1.166667 0.406000
vt 1.166667 0.396000
vt -0.166666 0.515670
vt 1.166667 0.515670
vt 1.166667 0.519003
vt -0.166666 0.519003
vt 0.840000 0.394167
vt 0.840000 0.671667
vt 0.826666 0.671667
vt 0.826666 0.394167
vt 0.394167 0.520670
vt 0.671667 0.520670
vt 0.671667 0.514003
vt 0.394167 0.514003
vt 0.493333 0.394167
vt 0.493333 0.671667
vt 0.506666 0.671667
vt 0.506666 0.394167
vt 0.493333 0.480670
vt 0.506666 0.480670
vt 0.513333 0.474003
vt 0.486667 0.474003
vt 0.506666 0.514003
vt 0.533333 0.514003
vt 0.533333 0.520670
vt 0.506666 0.520670
vt 0.533333 0.681667
vt 0.466666 0.681667
vt 0.681667 0.520670
vt 0.681667 0.514003
vt 0.685000 0.514003
vt 0.685000 0.520670
vt 0.533333 0.685000
vt 0.466666 0.685000
vt 0.493333 0.520670
vt 0.466666 0.520670
vt 0.466666 0.514003
vt 0.493333 0.514003
vt 0.301667 0.474003
vt 0.301667 0.494003
vt 0.298333 0.494003
vt 0.298333 0.474003
vt 0.493333 0.487337
vt 0.486667 0.494003
vt 0.506666 0.487337
vt 0.513333 0.494003
vt 0.513333 0.301667
vt 0.486667 0.301667
vt 0.486667 0.298333
vt 0.513333 0.298333
vt 0.826666 0.480670
vt 0.840000 0.480670
vt 0.846666 0.474003
vt 0.820000 0.474003
vt 0.840000 0.514003
vt 0.866666 0.514003
vt 0.866666 0.520670
vt 0.840000 0.520670
vt 0.866666 0.681667
vt 0.800000 0.681667
vt 0.866666 0.685000
vt 0.800000 0.685000
vt 0.826666 0.520670
vt 0.800000 0.520670
vt 0.800000 0.514003
vt 0.826666 0.514003
vt 0.826666 0.487337
vt 0.820000 0.494003
vt 0.840000 0.487337
vt 0.846666 0.494003
vt 0.846666 0.301667
vt 0.820000 0.301667
vt 0.820000 0.298333
vt 0.846666 0.298333
vt 0.160000 0.394167
vt 0.160000 0.671667
vt 0.173333 0.671667
vt 0.173333 0.394167
vt 0.160000 0.480670
vt 0.173333 0.480670
vt 0.180000 0.474003
vt 0.153333 0.474003
vt 0.173333 0.514003
vt 0.200000 0.514003
vt 0.200000 0.520670
vt 0.173333 0.520670
vt 0.200000 0.681667
vt 0.133333 0.681667
vt 0.200000 0.685000
vt 0.133333 0.685000
vt 0.160000 0.520670
vt 0.133333 0.520670
vt 0.133333 0.514003
vt 0.160000 0.514003
vt 0.160000 0.487337
vt 0.153333 0.494003
vt 0.173333 0.487337
vt 0.180000 0.494003
vt 0.180000 0.301667
vt 0.153333 0.301667
vt 0.153333 0.298333
vt 0.180000 0.298333
vt -0.166667 0.696667
vt 1.166667 0.696667
vt 1.166667 0.686667
vt -0.166667 0.686667
vt 1.166667 0.508676
vt -0.166667 0.508676
vt -0.166667 0.517337
vt 1.166667 0.517337
vt 1.166667 0.525997
vt -0.166667 0.525997
vt 0.301667 0.487337
vt 0.301667 0.480670
vt 0.160000 0.301667
vt 0.173333 0.301667
vt 0.493333 0.301667
vt 0.506666 0.301667
vt 0.826666 0.301667
vt 0.840000 0.301667
vt -0.166666 0.529333
vt -0.166666 0.539333
vt 1.166667 0.539333
vt 1.166667 0.529333
s 0
usemtl metal_mp_6
f 67/57/11 68/58/11 72/59/11 71/60/11
f 69/60/12 70/59/12 66/58/12 65/57/12
f 67/61/13 71/62/13 69/63/13 65/64/13
f 72/62/14 68/61/14 66/64/14 70/63/14
f 167/65/12 102/66/12 98/67/12 168/68/12
f 164/69/15 74/70/15 76/71/15 161/72/15
f 161/73/11 76/74/11 80/75/11 162/76/11
f 162/72/16 80/71/16 78/70/16 163/69/16
f 75/77/14 79/78/14 92/79/14 90/80/14
f 80/81/17 84/82/17 83/83/17 78/84/17
f 74/74/12 78/75/12 83/85/12 81/86/12
f 83/87/16 84/88/16 88/89/16 87/90/16
f 76/74/11 82/86/11 84/85/11 80/75/11
f 82/88/15 81/87/15 85/90/15 86/89/15
f 81/86/12 83/85/12 87/91/12 85/92/12
f 84/85/11 82/86/11 86/92/11 88/91/11
f 74/93/18 81/94/18 82/95/18 76/96/18
f 92/97/16 91/98/16 95/99/16 96/100/16
f 73/101/14 75/77/14 90/80/14 89/102/14
f 79/78/14 77/103/14 91/104/14 92/79/14
f 77/103/14 73/101/14 89/102/14 91/104/14
f 89/98/15 90/97/15 94/100/15 93/99/15
f 91/105/12 89/106/12 93/107/12 95/108/12
f 90/106/11 92/105/11 96/108/11 94/107/11
f 168/69/15 98/70/15 100/71/15 165/72/15
f 165/68/11 100/67/11 104/66/11 166/65/11
f 166/72/16 104/71/16 102/70/16 167/69/16
f 99/109/14 103/110/14 116/111/14 114/112/14
f 104/113/17 108/114/17 107/115/17 102/116/17
f 98/67/12 102/66/12 107/117/12 105/118/12
f 107/87/16 108/88/16 112/89/16 111/90/16
f 100/67/11 106/118/11 108/117/11 104/66/11
f 106/88/15 105/87/15 109/90/15 110/89/15
f 105/118/12 107/117/12 111/119/12 109/120/12
f 108/117/11 106/118/11 110/120/11 112/119/11
f 98/121/18 105/122/18 106/123/18 100/124/18
f 116/97/16 115/98/16 119/99/16 120/100/16
f 97/125/14 99/109/14 114/112/14 113/126/14
f 103/110/14 101/127/14 115/128/14 116/111/14
f 101/127/14 97/125/14 113/126/14 115/128/14
f 113/98/15 114/97/15 118/100/15 117/99/15
f 115/129/12 113/130/12 117/131/12 119/132/12
f 114/130/11 116/129/11 120/132/11 118/131/11
f 163/76/12 78/75/12 74/74/12 164/73/12
f 160/69/15 122/70/15 124/71/15 157/72/15
f 157/133/11 124/134/11 128/135/11 158/136/11
f 158/72/16 128/71/16 126/70/16 159/69/16
f 123/137/14 127/138/14 140/139/14 138/140/14
f 128/141/17 132/142/17 131/143/17 126/144/17
f 122/134/12 126/135/12 131/145/12 129/146/12
f 131/87/16 132/88/16 136/89/16 135/90/16
f 124/134/11 130/146/11 132/145/11 128/135/11
f 130/88/15 129/87/15 133/90/15 134/89/15
f 129/146/12 131/145/12 135/147/12 133/148/12
f 132/145/11 130/146/11 134/148/11 136/147/11
f 122/149/18 129/150/18 130/151/18 124/152/18
f 140/97/16 139/98/16 143/99/16 144/100/16
f 121/153/14 123/137/14 138/140/14 137/154/14
f 127/138/14 125/155/14 139/156/14 140/139/14
f 125/155/14 121/153/14 137/154/14 139/156/14
f 137/98/15 138/97/15 142/100/15 141/99/15
f 139/157/12 137/158/12 141/159/12 143/160/12
f 138/158/11 140/157/11 144/160/11 142/159/11
s 1
f 150/161/11 156/162/11 155/163/11 148/164/11
f 156/165/19 150/166/19 149/167/19 153/168/19
f 151/168/20 152/169/20 145/170/20 147/167/20
f 154/162/12 146/161/12 145/164/12 152/163/12
f 146/170/21 154/169/21 153/168/21 149/167/21
s 0
f 121/171/15 160/69/15 157/72/15 123/172/15
f 123/173/22 157/133/22 158/136/22 127/174/22
f 127/172/16 158/72/16 159/69/16 125/171/16
f 125/174/23 159/136/23 160/133/23 121/173/23
f 73/171/15 164/69/15 161/72/15 75/172/15
f 75/175/22 161/73/22 162/76/22 79/176/22
f 79/172/16 162/72/16 163/69/16 77/171/16
f 77/176/23 163/76/23 164/73/23 73/175/23
f 97/171/15 168/69/15 165/72/15 99/172/15
f 99/177/22 165/68/22 166/65/22 103/178/22
f 103/172/16 166/72/16 167/69/16 101/171/16
f 101/178/23 167/65/23 168/68/23 97/177/23
f 159/136/12 126/135/12 122/134/12 160/133/12
s 1
f 147/167/24 148/166/24 155/165/24 151/168/24
s 0
f 171/179/11 172/180/11 176/181/11 175/182/11
f 173/182/12 174/181/12 170/180/12 169/179/12
f 171/61/13 175/62/13 173/63/13 169/64/13
f 176/62/14 172/61/14 170/64/14 174/63/14
