# Blender 5.0.1
# www.blender.org
mtllib doorway_1_plain.mtl
o doorway_1_plain
v 2.000000 0.000000 0.060000
v 2.000000 3.000000 0.060000
v 2.000000 0.000000 -0.060000
v 2.000000 3.000000 -0.060000
v 2.030000 0.000000 0.030000
v 2.030000 3.000000 0.030000
v 2.030000 0.000000 -0.030000
v 2.030000 3.000000 -0.030000
v -2.000000 0.000000 -0.060000
v -2.000000 3.000000 -0.060000
v -2.000000 0.000000 0.060001
v -2.000000 3.000000 0.060000
v -2.030000 0.000000 -0.030000
v -2.030000 3.000000 -0.030000
v -2.030000 0.000000 0.030001
v -2.030000 3.000000 0.030000
v 0.579998 0.000000 -0.060000
v 0.579998 0.000000 0.060000
v 0.580001 2.180000 0.060000
v 0.580001 2.180000 -0.060000
v -0.579997 2.180000 0.060000
v -0.579997 2.180000 -0.060000
v -0.580003 0.000000 -0.060000
v -0.580003 0.000000 0.060000
v -0.550000 0.160000 -0.060000
v -0.550000 0.160000 0.060000
v -0.579999 2.180000 -0.100000
v -0.579999 2.180000 0.100000
v 0.500000 2.099999 -0.080000
v 0.500000 2.099999 0.080000
v 0.580000 2.180000 -0.100000
v 0.580000 2.180000 0.100000
v -0.500001 2.100000 -0.080000
v -0.500000 2.099999 0.080000
v 0.500000 0.000000 -0.080000
v 0.500000 -0.000000 0.080000
v -0.500000 0.000000 -0.080000
v -0.500000 -0.000000 0.080000
v 0.580000 0.000000 -0.100000
v 0.580000 -0.000000 0.100000
v -0.580000 0.000000 -0.100000
v -0.580000 -0.000000 0.100000
v 0.540000 2.140000 -0.100000
v 0.520000 2.120000 -0.080000
v -0.540000 2.140000 -0.100000
v -0.520000 2.119999 -0.080000
v 0.540000 0.000000 -0.100000
v 0.520000 0.000000 -0.080000
v -0.540000 0.000000 -0.100000
v -0.520000 0.000000 -0.080000
v -0.520000 2.120000 0.080000
v -0.540000 2.140000 0.100000
v 0.540000 2.140000 0.100000
v 0.520000 2.119999 0.080000
v 0.540000 -0.000000 0.100000
v 0.520000 -0.000000 0.080000
v -0.520000 -0.000000 0.080000
v -0.540000 -0.000000 0.100000
vn -0.0000 -0.0000 -1.0000
vn 0.7071 -0.0000 -0.7071
vn 0.7071 -0.0000 0.7071
vn -0.7071 -0.0000 0.7071
vn -0.7071 -0.0000 -0.7071
vn -0.0000 -0.0000 1.0000
vn -0.0000 1.0000 -0.0000
vn -1.0000 -0.0000 -0.0000
vn 1.0000 -0.0000 -0.0000
vn -0.0000 -1.0000 -0.0000
vn -0.0000 -0.7071 -0.7071
vn -0.0000 -0.7071 0.7071
vt 0.007331 1.000000
vt 0.356730 0.725697
vt 0.357700 0.000000
vt 0.007331 0.000000
vt 0.992669 0.000000
vt 0.992669 1.000000
vt 1.000000 1.000000
vt 1.000000 0.000000
vt -0.000000 1.000000
vt -0.000000 0.000000
vt 0.643271 0.725697
vt 0.642299 0.000000
vt 0.356738 0.725702
vt 0.643263 0.725702
vt 0.643263 0.725703
vt 0.356738 0.725703
vt 0.886719 0.566406
vt 0.886719 0.433594
vt 0.113281 0.433594
vt 0.113281 0.566406
vt 1.234375 0.433594
vt -0.218750 0.433594
vt -0.218750 0.566406
vt 1.234375 0.566406
vt -0.234375 0.832031
vt 1.191406 0.832031
vt 1.191406 0.859375
vt -0.261719 0.859375
vt 1.179688 0.445312
vt 1.179688 0.554688
vt -0.218750 0.554688
vt -0.218750 0.445312
vt 1.226562 0.886719
vt 1.226562 0.902344
vt -0.171875 0.902344
vt -0.183594 0.886719
vt 0.859375 1.207031
vt 0.140625 1.207031
vt 0.113281 1.234375
vt 0.886719 1.234375
vt 0.847656 1.191406
vt 0.152344 1.191406
vt 0.167969 1.179688
vt 0.832031 1.179688
vt 1.191406 0.820312
vt 1.191406 0.808594
vt -0.207031 0.808594
vt -0.218750 0.820312
vt 0.167969 0.445312
vt 0.832031 0.445312
vt 0.832031 0.554688
vt 0.167969 0.554688
vt 1.226562 0.847656
vt -0.226562 0.847656
vt -0.199219 0.875000
vt 1.226562 0.875000
vt 1.212891 0.869141
vt -0.212891 0.869141
vt -0.201172 0.880859
vt 1.212891 0.880859
vt 0.847656 0.445312
vt 0.152344 0.445312
vt 0.140625 0.433594
vt 0.859375 0.433594
vt 0.859375 0.566406
vt 0.140625 0.566406
vt 0.152344 0.554688
vt 0.847656 0.554688
s 1
usemtl wall_mp_1
f 2/6/3 1/5/3 5/8/3 6/7/3
f 11/4/4 12/1/4 16/9/4 15/10/4
f 2/6/6 19/11/6 18/12/6 1/5/6
f 11/4/6 24/3/6 21/2/6 12/1/6
f 12/1/6 21/13/6 19/14/6 2/6/6
usemtl wall_mp_1_rear
f 10/1/1 22/2/1 23/3/1 9/4/1
f 3/5/2 4/6/2 8/7/2 7/8/2
f 10/1/5 9/4/5 13/10/5 14/9/5
f 4/6/1 20/15/1 22/16/1 10/1/1
f 3/5/1 17/12/1 20/11/1 4/6/1
s 0
usemtl door_frame_wood_1
f 32/17/7 31/18/7 27/19/7 28/20/7
f 27/21/8 41/22/8 42/23/8 28/24/8
f 53/25/6 55/26/6 40/27/6 32/28/6
f 40/23/9 39/22/9 31/21/9 32/24/9
f 33/29/9 34/30/9 38/31/9 37/32/9
f 57/33/6 38/34/6 34/35/6 51/36/6
f 43/37/1 45/38/1 27/39/1 31/40/1
f 30/30/8 29/29/8 35/32/8 36/31/8
f 54/41/6 51/42/6 34/43/6 30/44/6
f 50/33/1 46/36/1 33/35/1 37/34/1
f 48/45/1 35/46/1 29/47/1 44/48/1
f 33/49/10 29/50/10 30/51/10 34/52/10
f 39/27/1 47/26/1 43/25/1 31/28/1
f 47/26/5 48/45/5 44/48/5 43/25/5
f 41/53/1 27/54/1 45/55/1 49/56/1
f 49/57/2 45/58/2 46/59/2 50/60/2
f 29/44/1 33/43/1 46/42/1 44/41/1
f 44/61/11 46/62/11 45/63/11 43/64/11
f 32/40/6 28/39/6 52/38/6 53/37/6
f 53/65/12 52/66/12 51/67/12 54/68/12
f 42/53/6 58/56/6 52/55/6 28/54/6
f 58/56/3 57/33/3 51/36/3 52/55/3
f 30/47/6 36/46/6 56/45/6 54/48/6
f 54/48/4 56/45/4 55/26/4 53/25/4
l 26 25
o door_mp_6
v -0.660000 1.177000 0.060001
v -0.660000 1.340000 0.060001
v -0.335000 1.177000 0.060001
v -0.335000 1.340000 0.060001
v 0.000000 2.100000 0.000001
v -0.934999 0.954185 0.060001
v -0.924999 0.954185 0.060001
v -0.934999 0.944185 0.060001
v -0.924999 0.944185 0.060001
v -0.934999 1.080000 0.060001
v -0.924999 1.080000 0.060001
v -0.934999 1.090000 0.060001
v -0.924999 1.090000 0.060001
v -0.934999 1.090000 0.110001
v -0.924999 1.090000 0.110001
v -0.934999 0.944185 0.110001
v -0.924999 0.944185 0.110001
v -0.930001 0.964185 -0.064999
v -0.937073 1.070000 -0.062070
v -0.922930 1.070000 -0.062070
v -0.930001 1.070000 -0.064999
v -0.920002 1.070000 -0.054999
v -0.937073 0.964185 -0.047928
v -0.940002 0.964185 -0.054999
v -0.922930 1.070000 -0.047928
v -0.930001 1.070000 -0.044999
v -0.922930 0.964185 -0.047928
v -0.930001 0.964185 -0.044999
v -0.920002 0.964185 -0.054999
v -0.935002 0.944185 -0.049999
v -0.925002 0.944185 -0.049999
v -0.935002 1.090000 -0.049999
v -0.925002 1.090000 -0.049999
v -0.935002 1.090000 0.000001
v -0.925002 1.090000 0.000001
v -0.935002 1.080000 0.000001
v -0.925002 1.080000 0.000001
v -0.935002 0.944185 0.000001
v -0.925002 0.944185 0.000001
v -0.935002 0.954185 0.000001
v -0.925002 0.954185 0.000001
v -0.939999 0.964185 0.115001
v -0.929999 0.964185 0.105001
v -0.937070 0.964185 0.107930
v -0.929999 1.070000 0.105001
v -0.937070 1.070000 0.107930
v -0.919999 0.964185 0.115001
v -0.922928 0.964185 0.107930
v -0.939999 1.070000 0.115001
v -0.929999 1.070000 0.125001
v -0.937070 1.070000 0.122072
v -0.922928 1.070000 0.122072
v -0.929999 0.964185 0.125001
v -0.937070 0.964185 0.122072
v -0.922928 0.964185 0.122072
v -0.919999 1.070000 0.115001
v -0.922928 1.070000 0.107930
v -0.934999 0.954185 0.120001
v -0.934999 1.080000 0.120001
v -0.924999 0.954185 0.120001
v -0.924999 1.080000 0.120001
v -0.934999 1.070000 0.110001
v -0.924999 1.070000 0.110001
v -0.934999 1.070000 0.120001
v -0.924999 1.070000 0.120001
v -0.934999 0.964185 0.110001
v -0.924999 0.964185 0.110001
v -0.934999 0.964185 0.120001
v -0.924999 0.964185 0.120001
v -0.934999 0.958185 0.110001
v -0.934999 0.954185 0.106001
v -0.924999 0.954185 0.106001
v -0.924999 0.958185 0.110001
v -0.934999 1.080000 0.106001
v -0.934999 1.076000 0.110001
v -0.924999 1.076000 0.110001
v -0.924999 1.080000 0.106001
v -0.922930 0.964185 -0.062070
v -0.937073 0.964185 -0.062070
v -0.940002 1.070000 -0.054999
v -0.937073 1.070000 -0.047928
v -0.925002 0.954185 -0.059999
v -0.925002 1.080000 -0.059999
v -0.935002 0.954185 -0.059999
v -0.935002 1.080000 -0.059999
v -0.925002 1.070000 -0.049999
v -0.935002 1.070000 -0.049999
v -0.925002 1.070000 -0.059999
v -0.935002 1.070000 -0.059999
v -0.925002 0.964185 -0.049999
v -0.935002 0.964185 -0.049999
v -0.925002 0.964185 -0.059999
v -0.935002 0.964185 -0.059999
v -0.925002 0.958185 -0.049999
v -0.925002 0.954185 -0.045999
v -0.935002 0.954185 -0.045999
v -0.935002 0.958185 -0.049999
v -0.925002 1.080000 -0.045999
v -0.925002 1.076000 -0.049999
v -0.935002 1.076000 -0.049999
v -0.935002 1.080000 -0.045999
v -1.000000 -0.000000 0.060000
v -1.000000 2.100000 0.060001
v 0.000000 2.100000 0.060001
v 0.000000 -0.000000 0.060000
v -0.660000 1.177000 0.000001
v -0.660000 1.340000 0.000001
v -0.335000 1.177000 0.000001
v -0.335000 1.340000 0.000001
v -1.000000 -0.000000 0.000000
v -1.000000 2.100000 0.000001
v 0.000000 -0.000000 0.000000
vn -1.0000 -0.0000 -0.0000
vn 1.0000 -0.0000 -0.0000
vn -0.0000 -1.0000 -0.0000
vn -0.0000 1.0000 -0.0000
vn -0.0000 -0.0000 -1.0000
vn 0.7071 -0.0000 0.7071
vn -0.7071 -0.0000 -0.7071
vn -0.0000 -0.0000 1.0000
vn 0.7071 -0.0000 -0.7071
vn -0.7071 -0.0000 0.7071
vn -0.0000 0.7071 0.7071
vn -0.0000 -0.7071 0.7071
vn -0.0000 0.7071 -0.7071
vn -0.0000 -0.7071 -0.7071
vt 0.264787 -0.002063
vt 0.264787 1.002063
vt 0.324787 1.002063
vt 0.324787 -0.002063
vt 0.983125 0.727491
vt 0.983125 0.249336
vt 0.923125 0.249336
vt 0.923125 0.727491
vt 0.340000 0.560726
vt -0.000000 -0.002063
vt -0.000000 1.002063
vt 0.340000 0.638665
vt 0.642325 0.540690
vt 0.642325 0.537309
vt 0.647324 0.534919
vt 0.654394 0.534919
vt 0.659393 0.537309
vt 0.659393 0.540690
vt 0.654394 0.543080
vt 0.647324 0.543080
vt 0.654394 0.551242
vt 0.647324 0.551242
vt 0.642325 0.548851
vt 0.642325 0.545471
vt 0.654394 0.543080
vt 0.659394 0.545471
vt 0.659394 0.548851
vt 0.441602 0.622999
vt 0.430495 0.628311
vt 0.419387 0.628311
vt 0.419387 0.623000
vt 0.426052 0.622999
vt 0.430494 0.620875
vt 0.430494 0.596444
vt 0.441602 0.596444
vt 0.408280 0.596444
vt 0.397172 0.591133
vt 0.397172 0.564577
vt 0.408280 0.564577
vt 0.408280 0.589008
vt 0.412723 0.591133
vt 0.419387 0.591133
vt 0.419387 0.596444
vt 0.392524 0.596444
vt 0.403631 0.601755
vt 0.403631 0.628311
vt 0.392524 0.628311
vt 0.392524 0.603880
vt 0.388081 0.601755
vt 0.381416 0.601755
vt 0.381416 0.596444
vt 0.403631 0.591133
vt 0.392524 0.596444
vt 0.381416 0.596444
vt 0.381417 0.591133
vt 0.388081 0.591133
vt 0.392524 0.589009
vt 0.392524 0.564578
vt 0.403632 0.564577
vt 0.419932 0.591133
vt 0.419932 0.564577
vt 0.431040 0.564577
vt 0.431040 0.591133
vt 0.442148 0.577399
vt 0.442148 0.603955
vt 0.431040 0.603955
vt 0.431040 0.577399
vt 0.553814 0.544481
vt 0.651562 0.544481
vt 0.651562 0.547861
vt 0.553814 0.547861
vt 0.553814 0.530958
vt 0.651562 0.530958
vt 0.651562 0.534339
vt 0.553814 0.534339
vt 0.651562 0.551242
vt 0.553814 0.551242
vt 0.651562 0.537719
vt 0.553814 0.537719
vt 0.651562 0.541100
vt 0.553814 0.541100
vt 0.392524 0.628311
vt 0.392524 0.603879
vt 0.388081 0.601755
vt 0.381416 0.601755
vt 0.403631 0.591133
vt 0.392524 0.596444
vt 0.381416 0.596444
vt 0.381416 0.591133
vt 0.388081 0.591133
vt 0.392524 0.589009
vt 0.392524 0.564577
vt 0.403632 0.564577
vt 0.659393 0.537309
vt 0.408280 0.596444
vt 0.412722 0.591133
vt 0.419387 0.622999
vt 0.426052 0.622999
vt 0.441602 0.596444
vt 0.651562 0.547861
vt 0.651562 0.551242
vt 0.651562 0.541100
vt 0.553814 0.534339
vt 0.651562 0.534339
vt 0.553814 0.527577
vt 0.651562 0.527577
vt 0.553814 0.524197
vt 0.651562 0.524197
vt 0.442148 0.628386
vt 0.431041 0.628386
vt 0.431041 0.603955
vt 0.442148 0.603955
vt 0.419932 0.593333
vt 0.431040 0.593333
vt 0.431040 0.598644
vt 0.419932 0.598644
vt 0.419933 0.610146
vt 0.431040 0.610146
vt 0.431040 0.634577
vt 0.419933 0.634577
vt 0.442148 0.569886
vt 0.431040 0.569886
vt 0.431040 0.564575
vt 0.442148 0.564575
vt 0.419932 0.587377
vt 0.431040 0.587377
vt 0.431040 0.594888
vt 0.419932 0.594888
vt 0.442148 0.584271
vt 0.431040 0.584271
vt 0.431040 0.576760
vt 0.442148 0.576760
vt 0.419933 0.590548
vt 0.431040 0.590548
vt 0.431040 0.593553
vt 0.419933 0.593553
vt 0.431040 0.583675
vt 0.419932 0.583675
vt 0.419932 0.580488
vt 0.431040 0.580488
vt 0.431040 0.624631
vt 0.442148 0.624631
vt 0.442148 0.627635
vt 0.431040 0.627635
vt 0.431041 0.626079
vt 0.442148 0.626079
vt 0.442148 0.629266
vt 0.431041 0.629266
vt 0.419932 0.587377
vt 0.431040 0.587377
vt 0.431040 0.594888
vt 0.419932 0.594888
vt 0.442148 0.584271
vt 0.431040 0.584271
vt 0.431040 0.576760
vt 0.442148 0.576760
vt 0.419933 0.590548
vt 0.431040 0.590548
vt 0.431040 0.593552
vt 0.419933 0.593552
vt 0.340000 0.638665
vt 0.665000 0.638665
vt 1.000000 1.002063
vt 0.665000 0.638665
vt 0.665000 0.560726
vt 1.000000 -0.002063
vt 0.665000 0.560726
vt 0.340000 0.560726
vt 0.659898 0.638350
vt 0.659898 0.611650
vt 0.340102 0.611650
vt 0.340102 0.638350
vt 0.416244 0.607100
vt 0.416244 0.580400
vt 0.583756 0.580400
vt 0.583756 0.607100
s 1
usemtl door_mp_6
f 160/69/13 161/70/13 169/71/13 168/72/13
f 170/72/14 63/71/14 162/70/14 163/69/14
f 168/73/15 170/74/15 163/75/15 160/76/15
f 63/74/16 169/73/16 161/76/16 162/75/16
f 164/77/17 168/78/17 169/79/17 165/80/17
f 111/81/15 112/82/15 100/83/15 102/84/15 101/85/15 106/86/15 105/87/15 113/88/15
f 108/89/16 110/90/16 114/91/16 115/92/16 103/88/16 104/93/16 107/94/16 109/95/16
f 73/96/14 119/97/14 123/98/14 121/99/14 134/100/14 135/101/14 69/102/14 71/103/14
f 117/104/13 72/105/13 70/106/13 68/107/13 132/108/13 133/109/13 120/110/13 122/111/13
f 118/112/14 75/113/14 67/114/14 65/115/14 130/116/14 131/117/14 125/118/14 127/119/14
f 74/120/13 116/121/13 126/122/13 124/123/13 128/124/13 129/125/13 64/126/13 66/127/13
f 73/128/16 71/129/16 70/130/16 72/131/16
f 74/132/15 66/133/15 67/134/15 75/135/15
f 87/136/14 80/137/14 83/138/18 85/139/18
f 82/140/13 138/141/13 77/142/19 137/143/19
f 85/139/18 83/138/18 84/144/20 86/145/20
f 137/143/19 77/142/19 79/146/17 76/147/17
f 76/147/17 79/146/17 78/148/21 136/149/21
f 136/149/21 78/148/21 80/137/14 87/136/14
f 142/121/13 88/113/13 96/114/13 98/150/13 154/151/13 155/152/13 149/153/13 151/122/13
f 89/154/14 140/155/14 150/156/14 148/157/14 152/158/14 153/159/14 99/160/14 97/161/14
f 90/128/16 92/129/16 93/130/16 91/131/16
f 89/132/15 97/133/15 96/134/15 88/135/15
f 76/81/15 136/82/15 87/83/15 85/84/15 86/162/15 81/86/15 82/87/15 137/88/15
f 79/89/16 77/90/16 138/91/16 139/92/16 84/88/16 83/93/16 80/94/16 78/95/16
f 141/163/14 91/105/14 93/106/14 95/107/14 156/108/14 157/164/14 144/110/14 146/111/14
f 90/96/13 143/97/13 147/98/13 145/165/13 158/166/13 159/101/13 94/102/13 92/167/13
f 100/136/13 107/137/13 104/138/19 102/139/19
f 102/139/19 104/168/19 103/169/17 101/145/17
f 111/147/20 108/146/20 109/148/22 112/149/22
f 112/149/22 109/170/22 107/137/13 100/136/13
f 105/140/14 114/141/14 110/142/18 113/171/18
f 113/143/18 110/172/18 108/146/20 111/147/20
f 114/141/14 105/140/14 106/173/21 115/174/21
f 115/174/21 106/173/21 101/175/17 103/176/17
f 135/177/15 132/178/15 68/179/15 69/180/15
f 119/181/20 117/182/20 122/183/20 123/184/20
f 129/185/16 130/186/16 65/187/16 64/188/16
f 116/189/20 118/190/20 127/191/20 126/192/20
f 73/193/23 72/194/23 117/195/23 119/196/23
f 74/197/24 75/198/24 118/199/24 116/200/24
f 128/201/25 131/202/25 130/203/25 129/204/25
f 131/205/17 128/206/17 124/207/17 125/208/17
f 132/209/26 135/210/26 134/211/26 133/212/26
f 133/213/17 134/214/17 121/215/17 120/216/17
f 138/141/13 82/140/13 81/173/22 139/174/22
f 139/174/22 81/173/22 86/175/20 84/176/20
f 159/177/15 156/178/15 95/179/15 94/180/15
f 143/181/17 141/182/17 146/183/17 147/184/17
f 153/185/16 154/186/16 98/187/16 99/188/16
f 140/189/17 142/190/17 151/191/17 150/192/17
f 90/217/25 91/218/25 141/219/25 143/220/25
f 89/221/26 88/222/26 142/223/26 140/224/26
f 152/225/23 155/226/23 154/227/23 153/228/23
f 155/205/20 152/206/20 148/207/20 149/208/20
f 156/209/24 159/210/24 158/211/24 157/212/24
f 157/213/20 158/214/20 145/215/20 144/216/20
f 59/77/20 60/80/20 161/79/20 160/78/20
f 60/229/20 62/230/20 162/231/20 161/79/20
f 62/232/20 61/233/20 163/234/20 162/231/20
f 61/235/20 59/236/20 160/78/20 163/234/20
f 165/229/17 169/79/17 63/231/17 167/230/17
f 167/232/17 63/231/17 170/234/17 166/233/17
f 166/235/17 170/234/17 168/78/17 164/236/17
f 61/237/16 166/238/16 164/239/16 59/240/16
f 59/241/14 164/242/14 165/243/14 60/244/14
f 167/238/15 62/237/15 60/240/15 165/239/15
f 167/243/13 166/242/13 61/241/13 62/244/13
