# Blender 5.0.1
# www.blender.org
mtllib doorway_1.mtl
o door_4
v -1.000000 -0.000000 0.060000
v -1.000000 2.100000 0.060001
v -1.000000 0.000000 0.000001
v -1.000000 2.100000 0.000001
v 0.000000 -0.000000 0.060000
v 0.000000 2.100000 0.060001
v 0.000000 0.000000 0.000001
v 0.000000 2.100000 0.000001
v -0.223626 1.661782 0.060001
v -0.771818 1.661782 0.060001
v -0.775615 1.001070 0.060001
v -0.218548 1.000035 0.060001
v -0.223330 1.661713 0.000001
v -0.223114 0.999014 0.000001
v -0.775830 0.998884 0.000001
v -0.771575 1.661000 0.000001
v -0.259614 1.625517 0.075001
v -0.735761 1.625516 0.075001
v -0.739141 1.037267 0.075001
v -0.255093 1.036368 0.075001
v -0.259583 1.625401 -0.014999
v -0.259391 1.035271 -0.014999
v -0.739331 1.035158 -0.014999
v -0.735542 1.624782 -0.014999
v -0.223626 1.661782 0.075001
v -0.771818 1.661782 0.075001
v -0.775615 1.001070 0.075001
v -0.218548 1.000035 0.075001
v -0.223330 1.661713 -0.014999
v -0.223114 0.999014 -0.014999
v -0.775830 0.998884 -0.014999
v -0.771575 1.661000 -0.014999
v -0.259614 1.625517 0.035001
v -0.735761 1.625516 0.035001
v -0.739141 1.037267 0.035001
v -0.255093 1.036368 0.035001
v -0.259583 1.625401 0.025001
v -0.259391 1.035271 0.025001
v -0.739331 1.035158 0.025001
v -0.735542 1.624782 0.025001
v -0.951635 1.095118 0.059500
v -0.951635 0.904882 0.059500
v -0.943577 0.912940 0.067000
v -0.888366 0.904882 0.059500
v -0.896425 0.912940 0.067000
v -0.943577 1.087060 0.067000
v -0.888366 1.095118 0.059500
v -0.896425 1.087060 0.067000
v -0.888369 1.095118 0.000500
v -0.888369 0.904882 0.000500
v -0.896428 0.912940 -0.007000
v -0.951638 0.904882 0.000500
v -0.943580 0.912940 -0.007000
v -0.896428 1.087060 -0.007000
v -0.951638 1.095118 0.000500
v -0.943580 1.087060 -0.007000
v -0.914525 1.077852 -0.004550
v -0.914525 1.077852 -0.009993
v -0.917961 1.082074 -0.004550
v -0.917961 1.082074 -0.009993
v -0.923335 1.081208 -0.004550
v -0.923335 1.081208 -0.009993
v -0.925273 1.076122 -0.004550
v -0.925273 1.076122 -0.009993
v -0.921836 1.071900 -0.004550
v -0.921836 1.071900 -0.009993
v -0.916462 1.072766 -0.004550
v -0.916462 1.072766 -0.009993
v -0.915603 0.924332 -0.004550
v -0.915603 0.924332 -0.009993
v -0.920646 0.926378 -0.004550
v -0.920646 0.926378 -0.009993
v -0.924941 0.923034 -0.004550
v -0.924941 0.923034 -0.009993
v -0.924192 0.917642 -0.004550
v -0.924192 0.917642 -0.009993
v -0.919148 0.915596 -0.004550
v -0.919148 0.915596 -0.009993
v -0.914853 0.918940 -0.004550
v -0.914853 0.918940 -0.009993
v -0.921509 1.082243 0.064547
v -0.921509 1.082243 0.069990
v -0.916249 1.080841 0.064547
v -0.916249 1.080841 0.069990
v -0.914834 1.075585 0.064547
v -0.914834 1.075585 0.069990
v -0.918678 1.071731 0.064547
v -0.918678 1.071731 0.069990
v -0.923937 1.073133 0.064547
v -0.923937 1.073133 0.069990
v -0.925353 1.078389 0.064547
v -0.925353 1.078389 0.069990
v -0.925210 0.919127 0.064548
v -0.925210 0.919127 0.069991
v -0.924263 0.924487 0.064548
v -0.924263 0.924487 0.069991
v -0.919148 0.926348 0.064548
v -0.919148 0.926348 0.069991
v -0.914979 0.922848 0.064548
v -0.914979 0.922848 0.069991
v -0.915926 0.917487 0.064548
v -0.915926 0.917487 0.069991
v -0.921042 0.915627 0.064548
v -0.921042 0.915627 0.069991
vn -1.0000 -0.0000 -0.0000
vn 1.0000 -0.0000 -0.0000
vn -0.0000 -1.0000 -0.0000
vn -0.0000 1.0000 -0.0000
vn -0.0000 -0.0000 -1.0000
vn -0.0013 1.0000 -0.0000
vn -0.0000 -0.0000 1.0000
vn 1.0000 0.0077 -0.0000
vn 0.0019 1.0000 -0.0000
vn -1.0000 0.0057 -0.0000
vn -0.0019 -1.0000 -0.0000
vn 0.0002 -1.0000 -0.0000
vn -1.0000 0.0064 -0.0000
vn 1.0000 0.0003 -0.0000
vn 0.0013 -1.0000 -0.0000
vn -1.0000 -0.0077 -0.0000
vn 1.0000 -0.0057 -0.0000
vn -0.0002 1.0000 -0.0000
vn 1.0000 -0.0064 -0.0000
vn -1.0000 -0.0003 -0.0000
vn -0.0000 0.6427 0.7661
vn 0.6427 -0.0000 0.7661
vn -0.6427 -0.0000 0.7661
vn -0.0000 -0.6427 0.7661
vn -0.0000 0.6427 -0.7661
vn -0.6427 -0.0000 -0.7661
vn 0.6427 -0.0000 -0.7661
vn -0.0000 -0.6427 -0.7661
vn 0.7755 0.6313 -0.0000
vn -0.1590 0.9873 -0.0000
vn -0.9345 0.3560 -0.0000
vn -0.7755 -0.6313 -0.0000
vn 0.1590 -0.9873 -0.0000
vn 0.9345 -0.3560 -0.0000
vn 0.3760 0.9266 -0.0000
vn -0.6145 0.7890 -0.0000
vn -0.9905 -0.1377 -0.0000
vn -0.3760 -0.9266 -0.0000
vn 0.6145 -0.7890 -0.0000
vn 0.9905 0.1377 -0.0000
vn 0.2576 0.9663 -0.0000
vn 0.9656 0.2601 -0.0000
vn 0.7080 -0.7062 -0.0000
vn -0.2576 -0.9663 -0.0000
vn -0.9656 -0.2601 -0.0000
vn -0.7080 0.7062 -0.0000
vn -0.9848 0.1739 -0.0000
vn -0.3417 0.9398 -0.0000
vn 0.6430 0.7658 -0.0000
vn 0.9848 -0.1739 -0.0000
vn 0.3417 -0.9398 -0.0000
vn -0.6430 -0.7659 -0.0000
vt 0.000000 -0.002427
vt 0.000000 1.002427
vt 0.060914 1.002427
vt 0.060914 -0.002427
vt 0.939086 0.728155
vt 0.939086 0.250000
vt 1.000000 0.250000
vt 1.000000 0.728155
vt 0.000000 -0.000000
vt 0.000000 1.000000
vt 0.228214 0.790817
vt 0.223794 0.475206
vt 0.913124 0.040861
vt 0.913124 0.030041
vt 0.086080 0.030041
vt 0.086080 0.040861
vt 0.740186 0.773809
vt 0.264233 0.773548
vt 0.776463 0.791121
vt 1.000000 1.000000
vt 0.776334 0.791323
vt 0.781308 0.476195
vt 1.000000 -0.000000
vt 0.001737 0.084139
vt 1.000000 0.084139
vt 1.000000 0.094959
vt 0.001737 0.094959
vt 0.776890 0.475636
vt 0.228155 0.791326
vt 0.223767 0.476674
vt 0.135009 0.094959
vt 0.865208 0.094959
vt 0.865208 0.066107
vt 0.135009 0.066107
vt 1.000000 0.084139
vt 0.003297 0.084139
vt 0.003297 0.094959
vt 1.000000 0.094959
vt 0.079987 0.084139
vt 0.920338 0.084139
vt 0.920338 0.094959
vt 0.079987 0.094959
vt 0.912677 0.084139
vt 0.085714 0.084139
vt 0.085714 0.094959
vt 0.912677 0.094959
vt 0.913449 0.040861
vt 0.079662 0.040861
vt 0.079662 0.030041
vt 0.913449 0.030041
vt -0.000000 0.040861
vt 0.998821 0.040861
vt 0.998821 0.030041
vt -0.000000 0.030041
vt 0.999897 0.040861
vt 0.000197 0.040861
vt 0.000197 0.030041
vt 0.999897 0.030041
vt 0.264185 0.774056
vt 0.740335 0.774053
vt 0.260299 0.493913
vt 0.744743 0.493497
vt 0.858435 0.030041
vt 0.858435 0.058893
vt 0.140438 0.058893
vt 0.140438 0.030041
vt 0.740580 0.492876
vt 0.260322 0.492515
vt 0.258883 0.495146
vt 0.746193 0.495146
vt 0.858388 0.094959
vt 0.140108 0.094959
vt 0.140108 0.066107
vt 0.858388 0.066107
vt 0.056547 0.094959
vt 0.945293 0.094959
vt 0.945293 0.066107
vt 0.056547 0.066107
vt 0.945293 0.094959
vt 0.057902 0.094959
vt 0.057902 0.066107
vt 0.945293 0.066107
vt 0.741117 0.495146
vt 0.858724 0.030041
vt 0.134722 0.030041
vt 0.134722 0.058893
vt 0.858724 0.058893
vt 0.054720 0.030041
vt 0.944184 0.030041
vt 0.944184 0.058893
vt 0.054720 0.058893
vt 0.945119 0.030041
vt 0.054891 0.030041
vt 0.054891 0.058893
vt 0.945119 0.058893
vt 0.070488 0.952198
vt 0.429512 0.952198
vt 0.486440 1.000000
vt 0.013560 1.000000
vt 0.070488 0.047802
vt 0.429512 0.047802
vt 0.500000 0.009186
vt 0.500000 0.990814
vt 0.000000 0.990814
vt 0.000000 0.009186
vt 0.013560 0.000000
vt 0.486440 0.000000
vt 0.777132 0.324472
vt 0.777132 0.296817
vt 0.808793 0.296817
vt 0.808793 0.324472
vt 0.762469 0.324472
vt 0.762468 0.296817
vt 0.722164 0.296817
vt 0.722164 0.324472
vt 0.802303 0.324472
vt 0.802303 0.296817
vt 0.764153 0.296817
vt 0.764153 0.324472
vt 0.732494 0.296817
vt 0.732494 0.324472
vt 0.762468 0.922478
vt 0.788241 0.901030
vt 0.773708 0.875187
vt 0.733403 0.870791
vt 0.707631 0.892238
vt 0.722164 0.918082
vt 0.733403 0.324472
vt 0.733403 0.296817
vt 0.773708 0.296817
vt 0.773708 0.324472
vt 0.738983 0.324472
vt 0.738983 0.296817
vt 0.780154 0.324470
vt 0.780154 0.296815
vt 0.742327 0.296815
vt 0.742327 0.324470
vt 0.710118 0.296815
vt 0.710118 0.324470
vt 0.740993 0.324470
vt 0.740993 0.296815
vt 0.700558 0.296815
vt 0.700558 0.324470
vt 0.715738 0.324470
vt 0.715738 0.296815
vt 0.753566 0.296815
vt 0.753566 0.324470
vt 0.742327 0.131445
vt 0.780154 0.121047
vt 0.785774 0.093655
vt 0.753566 0.076662
vt 0.715738 0.087061
vt 0.710118 0.114452
vt 0.785774 0.296815
vt 0.785774 0.324470
vt 0.710293 0.324470
vt 0.710293 0.296815
vt 0.750728 0.296815
vt 0.750728 0.324470
vt 0.735859 0.675528
vt 0.735859 0.703183
vt 0.775305 0.703183
vt 0.775305 0.675528
vt 0.799548 0.675528
vt 0.799548 0.703183
vt 0.760128 0.703183
vt 0.760128 0.675528
vt 0.731224 0.703183
vt 0.731224 0.675528
vt 0.757093 0.675528
vt 0.757093 0.703183
vt 0.717646 0.703183
vt 0.717647 0.675528
vt 0.775305 0.916215
vt 0.735859 0.923338
vt 0.707029 0.903758
vt 0.717646 0.877054
vt 0.757093 0.869931
vt 0.785922 0.889511
vt 0.741739 0.675528
vt 0.741739 0.703183
vt 0.781159 0.703183
vt 0.781159 0.675528
vt 0.810063 0.703183
vt 0.810063 0.675528
vt 0.711695 0.675530
vt 0.711695 0.703185
vt 0.751897 0.703184
vt 0.751897 0.675530
vt 0.715199 0.675530
vt 0.715199 0.703184
vt 0.753566 0.703185
vt 0.753566 0.675530
vt 0.784831 0.703185
vt 0.784831 0.675530
vt 0.739598 0.675530
vt 0.739598 0.703185
vt 0.699396 0.703185
vt 0.699396 0.675530
vt 0.715199 0.121839
vt 0.708099 0.094605
vt 0.739364 0.076823
vt 0.777730 0.086274
vt 0.784831 0.113507
vt 0.753566 0.131290
vt 0.777730 0.675530
vt 0.777730 0.703185
vt 0.739364 0.703185
vt 0.739364 0.675530
vt 0.708099 0.703185
vt 0.708099 0.675530
s 1
usemtl door_4
f 1/1/1 2/2/1 4/3/1 3/4/1
f 7/4/2 8/3/2 6/2/2 5/1/2
f 3/5/3 7/6/3 5/7/3 1/8/3
f 8/6/4 4/5/4 2/8/4 6/7/4
f 3/9/5 4/10/5 16/11/5 15/12/5
f 13/13/6 29/14/6 32/15/6 16/16/6
f 21/17/5 24/18/5 32/11/5 29/19/5
f 6/20/7 9/21/7 12/22/7 5/23/7
f 12/24/8 9/25/8 25/26/8 28/27/8
f 7/23/5 14/28/5 13/19/5 8/20/5
f 2/10/7 10/29/7 9/21/7 6/20/7
f 5/23/7 12/22/7 11/30/7 1/9/7
f 11/30/7 10/29/7 2/10/7 1/9/7
f 15/12/5 14/28/5 7/23/5 3/9/5
f 19/31/9 20/32/9 36/33/9 35/34/9
f 10/35/10 11/36/10 27/37/10 26/38/10
f 11/39/11 12/40/11 28/41/11 27/42/11
f 9/43/4 10/44/4 26/45/4 25/46/4
f 14/47/12 15/48/12 31/49/12 30/50/12
f 15/51/13 16/52/13 32/53/13 31/54/13
f 13/55/14 14/56/14 30/57/14 29/58/14
f 18/59/7 17/60/7 25/21/7 26/29/7
f 19/61/7 18/59/7 26/29/7 27/30/7
f 20/62/7 19/61/7 27/30/7 28/22/7
f 17/60/7 20/62/7 28/22/7 25/21/7
f 21/63/15 37/64/15 40/65/15 24/66/15
f 22/67/5 21/17/5 29/19/5 30/28/5
f 23/68/5 22/67/5 30/28/5 31/12/5
f 24/18/5 23/68/5 31/12/5 32/11/5
f 33/60/7 34/59/7 35/69/7 36/70/7
f 17/71/3 18/72/3 34/73/3 33/74/3
f 20/75/16 17/76/16 33/77/16 36/78/16
f 18/79/17 19/80/17 35/81/17 34/82/17
f 40/18/5 37/17/5 38/83/5 39/69/5
f 22/84/18 23/85/18 39/86/18 38/87/18
f 23/88/19 24/89/19 40/90/19 39/91/19
f 21/92/20 22/93/20 38/94/20 37/95/20
f 4/10/5 8/20/5 13/19/5 16/11/5
usemtl door_handle_2
f 46/96/21 48/97/21 47/98/21 41/99/21
f 43/100/7 45/101/7 48/97/7 46/96/7
f 48/97/22 45/101/22 44/102/22 47/103/22
f 41/104/23 42/105/23 43/100/23 46/96/23
f 45/101/24 43/100/24 42/106/24 44/107/24
f 54/96/25 56/97/25 55/98/25 49/99/25
f 51/100/5 53/101/5 56/97/5 54/96/5
f 56/97/26 53/101/26 52/102/26 55/103/26
f 49/104/27 50/105/27 51/100/27 54/96/27
f 53/101/28 51/100/28 50/106/28 52/107/28
f 57/108/29 58/109/29 60/110/29 59/111/29
f 59/112/30 60/113/30 62/114/30 61/115/30
f 61/116/31 62/117/31 64/118/31 63/119/31
f 63/119/32 64/118/32 66/120/32 65/121/32
f 60/122/5 58/123/5 68/124/5 66/125/5 64/126/5 62/127/5
f 65/128/33 66/129/33 68/130/33 67/131/33
f 67/132/34 68/133/34 58/109/34 57/108/34
f 69/134/35 70/135/35 72/136/35 71/137/35
f 71/137/36 72/136/36 74/138/36 73/139/36
f 73/140/37 74/141/37 76/142/37 75/143/37
f 75/144/38 76/145/38 78/146/38 77/147/38
f 72/148/5 70/149/5 80/150/5 78/151/5 76/152/5 74/153/5
f 77/147/39 78/146/39 80/154/39 79/155/39
f 79/156/40 80/157/40 70/158/40 69/159/40
f 81/160/41 82/161/41 84/162/41 83/163/41
f 83/164/42 84/165/42 86/166/42 85/167/42
f 85/167/43 86/166/43 88/168/43 87/169/43
f 87/170/44 88/171/44 90/172/44 89/173/44
f 84/174/7 82/175/7 92/176/7 90/177/7 88/178/7 86/179/7
f 89/180/45 90/181/45 92/182/45 91/183/45
f 91/183/46 92/182/46 82/184/46 81/185/46
f 93/186/47 94/187/47 96/188/47 95/189/47
f 95/190/48 96/191/48 98/192/48 97/193/48
f 97/193/49 98/192/49 100/194/49 99/195/49
f 99/196/50 100/197/50 102/198/50 101/199/50
f 96/200/7 94/201/7 104/202/7 102/203/7 100/204/7 98/205/7
f 101/206/51 102/207/51 104/208/51 103/209/51
f 103/209/52 104/208/52 94/210/52 93/211/52
o doorway_1
v 2.000000 0.000000 0.060000
v 2.000000 3.000000 0.060000
v 2.000000 0.000000 -0.060000
v 2.000000 3.000000 -0.060000
v 2.030000 0.000000 0.030000
v 2.030000 3.000000 0.030000
v 2.030000 0.000000 -0.030000
v 2.030000 3.000000 -0.030000
v -2.000000 0.000000 -0.060000
v -2.000000 3.000000 -0.060000
v -2.000000 0.000000 0.060001
v -2.000000 3.000000 0.060000
v -2.030000 0.000000 -0.030000
v -2.030000 3.000000 -0.030000
v -2.030000 0.000000 0.030001
v -2.030000 3.000000 0.030000
v -2.000000 0.160000 0.070000
v -2.000000 0.000000 0.090000
v 2.000000 0.000000 0.090000
v 2.000000 0.160000 -0.060000
v 2.000000 0.160000 -0.070000
v 2.000000 0.110000 -0.090000
v 2.000000 0.000000 -0.090000
v -2.000000 0.110000 -0.090000
v -2.000000 0.000000 -0.090000
v 0.580000 0.000000 -0.060000
v 0.580000 0.110000 0.090000
v 0.580000 0.160000 0.070000
v 0.580000 0.000000 0.060000
v 0.580000 0.000000 0.090000
v 0.580000 0.000000 -0.090000
v 0.580000 0.110000 -0.090000
v 0.580000 0.160000 -0.070000
v 0.580000 0.160000 -0.060000
v 0.580000 0.160000 0.060000
v 0.580000 2.180000 0.060000
v 0.580000 2.180000 -0.060000
v -0.580000 2.180000 0.060000
v -0.580000 2.180000 -0.060000
v -0.580000 0.000000 -0.060000
v -0.580000 0.110000 0.090000
v -0.580000 0.160000 0.070000
v -0.580000 0.000000 0.060000
v -0.580000 0.000000 0.090000
v -0.580000 0.000000 -0.090000
v -0.580000 0.110000 -0.090000
v -0.580000 0.160000 -0.070000
v -0.580000 0.160000 -0.060000
v -0.580000 0.160000 0.060000
v 2.030000 0.160000 -0.030000
v 2.045000 0.000000 -0.045000
v 2.045000 0.110000 -0.045000
v 2.035000 0.160000 -0.035000
v -2.000000 0.160000 -0.060000
v -2.000000 0.160000 -0.070000
v -2.045000 0.000000 -0.045000
v -2.045000 0.110000 -0.045000
v -2.030000 0.160000 -0.030000
v -2.035000 0.160000 -0.035000
v -2.000000 0.160000 0.060000
v -2.000000 0.110000 0.090000
v -2.030000 0.160000 0.030001
v -2.045000 0.000000 0.045001
v -2.045000 0.110000 0.045000
v -2.035000 0.160000 0.035001
v 2.000000 0.160000 0.059999
v 2.000000 0.160000 0.070000
v 2.000000 0.110000 0.089999
v 2.045000 0.000000 0.044999
v 2.045000 0.110000 0.044999
v 2.030000 0.160000 0.029999
v 2.035000 0.160000 0.034999
v -0.579999 2.180000 -0.100000
v -0.579999 2.180000 0.100000
v 0.500000 2.099999 -0.080000
v 0.500000 2.099999 0.080000
v 0.580000 2.180000 -0.100000
v 0.580000 2.180000 0.100000
v -0.500001 2.100000 -0.080000
v -0.500000 2.099999 0.080000
v 0.500000 0.000000 -0.080000
v 0.500000 -0.000000 0.080000
v -0.500000 0.000000 -0.080000
v -0.500000 -0.000000 0.080000
v 0.580000 0.000000 -0.100000
v 0.580000 -0.000000 0.100000
v -0.580000 0.000000 -0.100000
v -0.580000 -0.000000 0.100000
v 0.540000 2.140000 -0.100000
v 0.520000 2.120000 -0.080000
v -0.540000 2.140000 -0.100000
v -0.520000 2.119999 -0.080000
v 0.540000 0.000000 -0.100000
v 0.520000 0.000000 -0.080000
v -0.540000 0.000000 -0.100000
v -0.520000 0.000000 -0.080000
v -0.520000 2.120000 0.080000
v -0.540000 2.140000 0.100000
v 0.540000 2.140000 0.100000
v 0.520000 2.119999 0.080000
v 0.540000 -0.000000 0.100000
v 0.520000 -0.000000 0.080000
v -0.520000 -0.000000 0.080000
v -0.540000 -0.000000 0.100000
vn -0.0000 -0.0000 -1.0000
vn 0.7071 -0.0000 -0.7071
vn 0.7071 -0.0000 0.7071
vn -0.7071 -0.0000 0.7071
vn -0.7071 -0.0000 -0.7071
vn -0.0000 -0.0000 1.0000
vn -0.0000 0.3714 0.9285
vn -0.0000 1.0000 -0.0000
vn -0.0000 0.3714 -0.9285
vn 1.0000 -0.0000 -0.0000
vn -1.0000 -0.0000 -0.0000
vn 0.6804 0.2722 -0.6804
vn -0.6804 0.2722 -0.6804
vn -0.6804 0.2722 0.6804
vn 0.6804 0.2722 0.6804
vn -0.0000 -1.0000 -0.0000
vn -0.0000 -0.7071 -0.7071
vn -0.0000 -0.7071 0.7071
vt 0.007452 1.000008
vt 0.357161 0.733650
vt 0.357161 0.000002
vt 0.007452 0.000002
vt 0.992548 0.000002
vt 0.992548 1.000008
vt 0.999936 1.000008
vt 0.999936 0.000002
vt 0.000064 1.000008
vt 0.000064 0.000002
vt 0.642839 0.733650
vt 0.642839 0.000002
vt 1.833333 -0.220000
vt 1.833333 -0.146667
vt 0.886667 -0.146667
vt 0.886666 -0.220000
vt 1.833333 -0.113333
vt 0.886667 -0.113333
vt 0.886666 -0.146667
vt 1.833333 0.540000
vt 0.886667 0.540000
vt 0.886666 0.546667
vt 1.833333 0.546667
vt -0.833333 -0.220000
vt -0.833333 -0.146667
vt 0.113333 -0.146667
vt 0.113333 -0.220000
vt -0.833333 -0.113333
vt 0.113333 -0.113333
vt 0.113333 -0.146667
vt -0.833333 0.460001
vt 0.113333 0.460000
vt 0.113333 0.453334
vt -0.833333 0.453334
vt 0.113333 -0.220000
vt 0.886667 -0.220000
vt 0.886666 -0.113333
vt 0.886666 0.460000
vt 1.833333 0.460000
vt 1.833333 0.453333
vt 0.886667 0.453334
vt 0.113333 -0.113333
vt 0.113333 0.540000
vt -0.833333 0.540000
vt -0.833333 0.546667
vt 0.113333 0.546667
vt 0.357161 0.733651
vt 0.357161 0.733613
vt 0.642839 0.733613
vt 0.642839 0.733613
vt 0.357161 0.733613
vt 0.642839 0.000002
vt 0.642839 0.733651
vt -0.113333 0.546667
vt -0.146667 0.560000
vt -0.220000 0.560000
vt -0.220000 0.540001
vt -0.113333 0.540000
vt -0.220000 0.440000
vt -0.146667 0.440000
vt -0.113333 0.453334
vt -0.113333 0.460000
vt -0.220000 0.460000
vt -0.146667 0.440000
vt -0.220000 0.440000
vt -0.220000 0.460000
vt -0.113333 0.460000
vt -0.113333 0.453334
vt -0.113333 0.546667
vt -0.220000 0.540000
vt -0.146667 0.560000
vt 1.875267 -0.230000
vt 1.833267 -0.230000
vt 1.833267 -0.303333
vt 1.875267 -0.303333
vt -0.875332 -0.230000
vt -0.875333 -0.303333
vt -0.833332 -0.303333
vt -0.833332 -0.230000
vt 1.865839 -0.196667
vt 1.833172 -0.196667
vt 1.865838 -0.196667
vt 1.875266 -0.230000
vt 1.833266 -0.230000
vt 1.833172 -0.196667
vt -0.833333 -0.290000
vt -0.833333 -0.296667
vt -0.856667 -0.273333
vt -0.853333 -0.270000
vt -0.875333 -0.230000
vt -0.833333 -0.230000
vt -0.833333 -0.303333
vt -0.875334 -0.303333
vt 1.875266 -0.303333
vt 1.833266 -0.303333
vt -0.865895 -0.196667
vt -0.833228 -0.196667
vt -0.833333 -0.210000
vt -0.853333 -0.230000
vt -0.856667 -0.226666
vt -0.833333 -0.203333
vt -0.865894 -0.196667
vt -0.833227 -0.196667
vt 1.833333 -0.210001
vt 1.833333 -0.203334
vt 1.856667 -0.226667
vt 1.853333 -0.230000
vt 1.833333 -0.290000
vt 1.853333 -0.270000
vt 1.856667 -0.273334
vt 1.833333 -0.296667
vt 0.886719 0.566406
vt 0.886719 0.433594
vt 0.113281 0.433594
vt 0.113281 0.566406
vt 1.234375 0.433594
vt -0.218750 0.433594
vt -0.218750 0.566406
vt 1.234375 0.566406
vt -0.234375 0.832031
vt 1.191406 0.832031
vt 1.191406 0.859375
vt -0.261719 0.859375
vt 1.179688 0.445312
vt 1.179688 0.554688
vt -0.218750 0.554688
vt -0.218750 0.445312
vt 1.226562 0.886719
vt 1.226562 0.902344
vt -0.171875 0.902344
vt -0.183594 0.886719
vt 0.859375 1.207031
vt 0.140625 1.207031
vt 0.113281 1.234375
vt 0.886719 1.234375
vt 0.847656 1.191406
vt 0.152344 1.191406
vt 0.167969 1.179688
vt 0.832031 1.179688
vt 1.191406 0.820312
vt 1.191406 0.808594
vt -0.207031 0.808594
vt -0.218750 0.820312
vt 0.167969 0.445312
vt 0.832031 0.445312
vt 0.832031 0.554688
vt 0.167969 0.554688
vt 1.226562 0.847656
vt -0.226562 0.847656
vt -0.199219 0.875000
vt 1.226562 0.875000
vt 1.212891 0.869141
vt -0.212891 0.869141
vt -0.201172 0.880859
vt 1.212891 0.880859
vt 0.847656 0.445312
vt 0.152344 0.445312
vt 0.140625 0.433594
vt 0.859375 0.433594
vt 0.859375 0.566406
vt 0.140625 0.566406
vt 0.152344 0.554688
vt 0.847656 0.554688
s 0
usemtl wall_3
f 106/217/55 105/216/55 109/219/55 110/218/55
f 115/215/56 116/212/56 120/220/56 119/221/56
f 106/217/58 140/222/58 133/223/58 105/216/58
f 115/215/58 147/214/58 142/258/58 116/212/58
f 116/212/58 142/259/58 140/260/58 106/217/58
usemtl wall_3_rear
f 114/212/53 143/213/53 144/214/53 113/215/53
f 107/216/54 108/217/54 112/218/54 111/219/54
f 114/212/57 113/215/57 117/221/57 118/220/57
f 108/217/53 141/261/53 143/262/53 114/212/53
f 107/216/53 130/263/53 141/264/53 108/217/53
f 149/270/62 150/271/62 151/272/62 152/273/62 144/274/62
f 136/275/63 135/276/63 130/277/63 138/278/63 137/279/63
usemtl door_frame_wood_1
f 123/224/58 172/225/58 131/226/58 134/227/58
f 171/228/59 132/229/59 131/230/59 172/225/59
f 170/231/60 139/232/60 132/233/60 171/234/60
f 129/235/53 128/236/53 150/237/53 149/238/53
f 159/239/61 151/240/61 150/241/61 128/236/61
f 158/242/60 152/243/60 151/244/60 159/245/60
f 145/241/58 165/236/58 122/235/58 148/246/58
f 136/230/53 126/225/53 127/224/53 135/247/53
f 137/248/61 125/228/61 126/225/61 136/226/61
f 138/249/60 124/250/60 125/251/60 137/252/60
f 146/253/59 121/239/59 165/236/59 145/237/59
f 153/254/60 164/255/60 121/256/60 146/257/60
f 146/265/62 145/266/62 148/267/62 147/268/62 153/269/62
f 132/280/63 139/269/63 133/281/63 134/267/63 131/282/63
f 126/283/54 156/284/54 155/285/54 127/286/54
f 172/287/55 123/288/55 173/289/55 174/290/55
f 125/291/64 157/292/64 156/284/64 126/283/64
f 159/293/65 128/294/65 161/295/65 163/296/65
f 158/297/60 159/298/60 163/299/60 162/300/60
f 165/301/56 168/302/56 167/303/56 122/304/56
f 128/294/57 129/305/57 160/306/57 161/295/57
f 121/307/66 169/308/66 168/302/66 165/301/66
f 164/309/60 166/310/60 169/311/60 121/312/60
f 171/313/67 172/287/67 174/290/67 176/314/67
f 170/315/60 171/316/60 176/317/60 175/318/60
f 124/319/60 154/320/60 157/321/60 125/322/60
f 182/323/60 181/324/60 177/325/60 178/326/60
f 177/327/63 191/328/63 192/329/63 178/330/63
f 203/331/58 205/332/58 190/333/58 182/334/58
f 190/329/62 189/328/62 181/327/62 182/330/62
f 183/335/62 184/336/62 188/337/62 187/338/62
f 207/339/58 188/340/58 184/341/58 201/342/58
f 193/343/53 195/344/53 177/345/53 181/346/53
f 180/336/63 179/335/63 185/338/63 186/337/63
f 204/347/58 201/348/58 184/349/58 180/350/58
f 200/339/53 196/342/53 183/341/53 187/340/53
f 198/351/53 185/352/53 179/353/53 194/354/53
f 183/355/68 179/356/68 180/357/68 184/358/68
f 189/333/53 197/332/53 193/331/53 181/334/53
f 197/332/57 198/351/57 194/354/57 193/331/57
f 191/359/53 177/360/53 195/361/53 199/362/53
f 199/363/54 195/364/54 196/365/54 200/366/54
f 179/350/53 183/349/53 196/348/53 194/347/53
f 194/367/69 196/368/69 195/369/69 193/370/69
f 182/346/58 178/345/58 202/344/58 203/343/58
f 203/371/70 202/372/70 201/373/70 204/374/70
f 192/359/58 208/362/58 202/361/58 178/360/58
f 208/362/55 207/339/55 201/342/55 202/361/55
f 180/353/58 186/352/58 206/351/58 204/354/58
f 204/354/56 206/351/56 205/332/56 203/331/56
l 153 152
o door_handle_4
v -0.008660 -0.005000 0.032000
v -0.008660 0.005000 0.032000
v -0.009093 -0.005250 -0.010000
v -0.009093 0.005250 -0.010000
v 0.000000 -0.010000 0.032000
v 0.008660 -0.005000 0.032000
v 0.000000 0.010000 0.032000
v 0.008660 0.005000 0.032000
v 0.000000 -0.010500 -0.010000
v 0.009093 -0.005250 -0.010000
v 0.000000 0.010500 -0.010000
v 0.009093 0.005250 -0.010000
v 0.110000 -0.010000 0.032000
v 0.110000 0.010000 0.032000
v -0.006867 -0.003965 0.042000
v -0.008660 -0.005000 0.040000
v -0.008660 0.005000 0.040000
v -0.006867 0.003965 0.042000
v 0.000000 -0.007954 0.042000
v 0.000000 -0.010000 0.040000
v 0.000000 0.010000 0.040000
v 0.000000 0.007954 0.042000
v 0.110000 -0.007954 0.042000
v 0.110000 -0.010000 0.040000
v 0.110000 0.010000 0.040000
v 0.110000 0.007954 0.042000
v -0.008541 0.002709 -0.003815
v -0.013984 0.002709 -0.003815
v -0.008541 0.005430 0.000899
v -0.013984 0.005430 0.000899
v -0.008541 0.002709 0.005613
v -0.013984 0.002709 0.005613
v -0.008541 -0.002735 0.005613
v -0.013984 -0.002735 0.005613
v -0.008541 -0.005456 0.000899
v -0.013984 -0.005456 0.000899
v -0.008541 -0.002735 -0.003815
v -0.013984 -0.002735 -0.003815
v 0.116000 -0.005464 0.032000
v 0.113049 -0.009183 0.032000
v 0.113049 0.009183 0.032000
v 0.116000 0.005464 0.032000
v 0.113049 -0.009183 0.040000
v 0.116000 -0.005456 0.040000
v 0.111980 -0.007423 0.042000
v 0.113932 -0.004683 0.042000
v 0.113932 0.004683 0.042000
v 0.111980 0.007423 0.042000
v 0.116000 0.005456 0.040000
v 0.113049 0.009183 0.040000
v -0.008660 -0.005000 -0.126000
v -0.008660 0.005000 -0.126000
v -0.009093 -0.005250 -0.084000
v -0.009093 0.005250 -0.084000
v 0.000000 -0.010000 -0.126000
v 0.008660 -0.005000 -0.126000
v 0.000000 0.010000 -0.126000
v 0.008660 0.005000 -0.126000
v 0.000000 -0.010500 -0.084000
v 0.009093 -0.005250 -0.084000
v 0.000000 0.010500 -0.084000
v 0.009093 0.005250 -0.084000
v 0.110000 -0.010000 -0.126000
v 0.110000 0.010000 -0.126000
v -0.006867 -0.003965 -0.136000
v -0.008660 -0.005000 -0.134000
v -0.008660 0.005000 -0.134000
v -0.006867 0.003965 -0.136000
v 0.000000 -0.007954 -0.136000
v 0.000000 -0.010000 -0.134000
v 0.000000 0.010000 -0.134000
v 0.000000 0.007954 -0.136000
v 0.110000 -0.007954 -0.136000
v 0.110000 -0.010000 -0.134000
v 0.110000 0.010000 -0.134000
v 0.110000 0.007954 -0.136000
v -0.008541 0.002709 -0.090185
v -0.013984 0.002709 -0.090185
v -0.008541 0.005430 -0.094899
v -0.013984 0.005430 -0.094899
v -0.008541 0.002709 -0.099613
v -0.013984 0.002709 -0.099613
v -0.008541 -0.002735 -0.099613
v -0.013984 -0.002735 -0.099613
v -0.008541 -0.005456 -0.094899
v -0.013984 -0.005456 -0.094899
v -0.008541 -0.002735 -0.090185
v -0.013984 -0.002735 -0.090185
v 0.116000 -0.005464 -0.126000
v 0.113049 -0.009183 -0.126000
v 0.113049 0.009183 -0.126000
v 0.116000 0.005464 -0.126000
v 0.113048 -0.009183 -0.134000
v 0.116000 -0.005456 -0.134000
v 0.111980 -0.007423 -0.136000
v 0.113932 -0.004683 -0.136000
v 0.113932 0.004683 -0.136000
v 0.111980 0.007423 -0.136000
v 0.116000 0.005456 -0.134000
v 0.113048 0.009183 -0.134000
vn -0.8660 0.5000 -0.0000
vn -0.1305 0.9914 -0.0000
vn -0.8660 0.5000 0.0119
vn -0.0000 0.9999 0.0119
vn -0.6016 -0.3473 0.7193
vn -0.6016 0.3473 0.7193
vn -0.6016 0.3474 0.7193
vn -0.6016 -0.3474 0.7193
vn -0.0976 -0.6957 0.7117
vn -0.0867 -0.6964 0.7124
vn 0.8660 0.5000 0.0119
vn 0.8660 -0.5000 0.0119
vn -0.0000 -0.0000 1.0000
vn 0.6459 0.2141 0.7328
vn 0.6459 -0.2141 0.7328
vn 0.6437 -0.2210 0.7327
vn 0.6437 0.2210 0.7327
vn 0.5490 0.8358 0.0002
vn 0.1304 0.9902 0.0493
vn 0.1793 0.9838 -0.0000
vn 0.1304 -0.9902 0.0493
vn 0.5490 -0.8358 0.0002
vn 0.0815 -0.9967 -0.0000
vn 0.9444 0.3287 0.0002
vn 0.9444 -0.3287 0.0002
vn 0.9443 -0.3291 0.0002
vn 0.9443 0.3291 0.0002
vn -0.0976 0.6957 0.7117
vn -0.0867 0.6964 0.7124
vn -0.8660 -0.5000 -0.0000
vn -0.1305 -0.9914 -0.0000
vn 0.3875 -0.5684 0.7257
vn 0.0616 -0.6977 0.7137
vn 0.0835 -0.6727 0.7352
vn 0.3794 -0.5741 0.7256
vn 0.1306 0.6908 0.7111
vn 0.3875 0.5684 0.7257
vn 0.3794 0.5741 0.7256
vn 0.0866 0.7220 0.6865
vn -0.0000 -0.0000 -1.0000
vn -0.0000 0.8660 -0.5000
vn -0.0000 0.8660 0.5000
vn -0.0000 -0.8660 0.5000
vn -1.0000 -0.0000 -0.0000
vn -0.0000 -0.8660 -0.5000
vn -0.8660 0.5000 -0.0119
vn -0.0000 0.9999 -0.0119
vn -0.0000 -0.9999 -0.0119
vn 0.8660 -0.5000 -0.0119
vn -0.8660 -0.5000 -0.0119
vn 0.8660 0.5000 -0.0119
vn -0.0862 -0.7280 -0.6802
vn -0.0790 -0.7187 -0.6908
vn -0.6042 -0.3488 -0.7165
vn -0.6041 -0.3488 -0.7165
vn -0.0980 0.9952 -0.0000
vn 0.6459 0.2141 -0.7328
vn 0.6437 0.2210 -0.7327
vn 0.6437 -0.2210 -0.7327
vn 0.6459 -0.2141 -0.7328
vn 0.5490 0.8358 -0.0002
vn 0.0815 0.9967 -0.0000
vn 0.1304 0.9902 -0.0493
vn 0.1304 -0.9902 -0.0493
vn 0.1793 -0.9838 -0.0000
vn 0.5490 -0.8358 -0.0002
vn 0.9444 0.3287 -0.0002
vn 0.9443 0.3291 -0.0002
vn 0.9443 -0.3291 -0.0002
vn 0.9444 -0.3287 -0.0002
vn -0.6041 0.3488 -0.7165
vn -0.6042 0.3488 -0.7165
vn -0.0790 0.7187 -0.6908
vn -0.0862 0.7280 -0.6802
vn -0.0980 -0.9952 -0.0000
vn -0.0980 -0.9952 -0.0001
vn 0.3875 -0.5685 -0.7257
vn 0.3794 -0.5741 -0.7256
vn 0.0835 -0.6727 -0.7352
vn 0.1330 -0.6880 -0.7134
vn 0.0646 0.6998 -0.7114
vn 0.0933 0.7211 -0.6865
vn 0.3794 0.5741 -0.7256
vn 0.3875 0.5684 -0.7257
vn -0.8660 -0.5000 0.0119
vn -0.0000 -0.9999 0.0119
vt 0.882184 0.825266
vt 0.943487 0.825266
vt 0.943487 0.780311
vt 0.882184 0.780311
vt 1.000000 0.945494
vt 0.678162 0.946792
vt 0.678162 0.886247
vt 1.000000 0.886247
vt 0.712474 0.815958
vt 0.773236 0.815958
vt 0.781169 0.825266
vt 0.704541 0.825266
vt 0.681902 0.780311
vt 0.666227 0.780311
vt 0.678162 0.860345
vt 1.000000 0.859047
vt 0.678162 0.912255
vt 1.000000 0.913553
vt 0.803808 0.780311
vt 0.778738 0.188896
vt 0.706971 0.188896
vt 0.701048 0.182200
vt 0.784662 0.182200
vt 0.882184 0.193478
vt 0.882184 0.209307
vt 0.943487 0.209307
vt 0.943487 0.193482
vt 0.943487 0.183352
vt 0.882184 0.183352
vt 0.819483 0.780311
vt 0.882184 0.533391
vt 0.943487 0.533391
vt 0.882184 0.481482
vt 0.943487 0.481482
vt 0.681902 0.209307
vt 0.685971 0.199030
vt 0.778739 0.188896
vt 0.799739 0.199030
vt 0.803808 0.209307
vt 0.685971 0.199030
vt 0.666227 0.209307
vt 0.672486 0.193482
vt 0.799739 0.199030
vt 0.813224 0.193482
vt 0.819483 0.209307
vt 0.704541 0.735356
vt 0.781169 0.735356
vt 0.819483 0.780311
vt 0.222824 0.476887
vt 0.183426 0.476887
vt 0.183426 0.500000
vt 0.222824 0.500000
vt 0.183426 0.523113
vt 0.222824 0.523113
vt 0.222824 0.513344
vt 0.183426 0.513344
vt 0.183426 0.486656
vt 0.222824 0.486656
vt 0.183426 0.523113
vt 0.183426 0.500000
vt 0.222824 0.500000
vt 0.242522 0.500000
vt 0.222824 0.476887
vt 0.183426 0.476887
vt 0.163728 0.500000
vt 0.183426 0.523113
vt 0.222824 0.523113
vt 0.222824 0.476887
vt 0.183426 0.486656
vt 0.183426 0.513344
vt 0.222824 0.513344
vt 0.701550 0.178890
vt 0.784160 0.178890
vt 0.882184 0.179583
vt 0.943487 0.179584
vt 0.943487 0.179584
vt 0.813222 0.193478
vt 0.784722 0.178161
vt 0.700988 0.178161
vt 0.672487 0.193478
vt 0.678162 0.841292
vt 1.000000 0.839043
vt 0.678162 0.998702
vt 1.000000 1.000000
vt 0.784662 0.182200
vt 0.701048 0.182200
vt 0.701550 0.178890
vt 0.784160 0.178890
vt 0.943487 0.179584
vt 0.882184 0.179583
vt 0.943487 0.179584
vt 0.882184 0.179583
vt 0.678162 0.931201
vt 1.000000 0.933450
s 1
usemtl door_handle_2
f 210/375/71 225/376/71 229/377/72 215/378/72
f 212/379/73 210/380/73 215/381/74 219/382/74
f 223/383/75 226/384/76 225/385/77 224/386/78
f 227/387/79 223/383/75 224/386/78 228/388/80
f 215/381/74 216/389/81 220/390/81 219/382/74
f 220/390/81 216/389/81 214/391/82 218/392/82
f 223/383/83 227/387/83 230/393/83 226/384/83
f 255/394/84 254/395/85 252/396/86 257/397/87
f 249/398/88 222/399/89 233/400/90 258/401/88
f 221/399/91 248/398/92 251/401/92 232/400/93
f 257/402/94 252/402/95 247/403/96 250/403/97
f 226/384/76 230/393/98 229/404/99 225/385/77
f 209/405/100 213/378/101 228/377/101 224/406/100
f 210/407/71 209/405/100 224/406/100 225/408/71
f 231/409/83 253/410/83 254/395/83 255/411/83 256/412/83 234/413/83
f 253/414/102 231/409/103 232/415/104 251/416/105
f 234/413/106 256/417/107 258/418/108 233/419/109
f 230/393/98 234/413/106 233/419/109 229/404/99
f 229/377/72 233/400/90 222/399/89 215/378/72
f 227/387/83 231/409/83 234/413/83 230/393/83
f 213/378/101 221/399/91 232/400/93 228/377/101
f 222/419/110 221/415/110 213/388/110 214/420/110 216/421/110 215/422/110
f 228/388/80 232/415/104 231/409/103 227/387/79
f 235/423/111 236/424/111 238/425/111 237/426/111
f 237/426/112 238/425/112 240/427/112 239/428/112
f 239/429/83 240/430/83 242/431/83 241/432/83
f 241/428/113 242/433/113 244/434/113 243/435/113
f 238/436/114 236/437/114 246/438/114 244/439/114 242/440/114 240/441/114
f 243/435/115 244/434/115 246/438/115 245/442/115
f 245/432/110 246/443/110 236/444/110 235/445/110
f 252/446/86 254/395/85 253/414/102 251/416/105
f 255/394/84 257/447/87 258/418/108 256/417/107
f 251/401/92 248/398/92 247/448/96 252/449/95
f 257/450/94 250/448/97 249/398/88 258/401/88
f 221/415/110 222/419/110 249/451/110 250/452/110 247/453/110 248/454/110
f 260/407/71 275/408/71 274/406/100 259/405/100
f 262/379/116 269/382/117 265/381/117 260/380/116
f 267/382/118 263/381/118 264/455/119 268/456/119
f 260/380/116 259/457/120 261/458/120 262/379/116
f 265/381/117 269/382/117 270/390/121 266/389/121
f 277/387/122 278/388/123 274/386/124 273/383/125
f 270/390/121 268/392/119 264/391/119 266/389/121
f 260/375/71 265/378/126 279/377/126 275/376/71
f 273/383/110 276/384/110 280/393/110 277/387/110
f 305/394/127 307/459/128 302/460/129 304/395/130
f 299/398/131 308/401/131 283/400/132 272/399/133
f 271/399/134 282/400/135 301/401/136 298/398/136
f 307/402/137 300/403/138 297/403/139 302/402/140
f 276/384/141 275/385/142 279/404/143 280/393/144
f 273/383/125 274/386/124 275/385/142 276/384/141
f 259/405/100 274/406/100 278/377/145 263/378/146
f 281/409/110 284/413/110 306/412/110 305/411/110 304/395/110 303/410/110
f 303/414/147 301/416/148 282/415/149 281/409/150
f 284/413/151 283/419/152 308/418/153 306/417/154
f 280/393/144 279/404/143 283/419/152 284/413/151
f 279/377/126 265/378/126 272/399/133 283/400/132
f 277/387/110 280/393/110 284/413/110 281/409/110
f 263/378/146 278/377/145 282/400/135 271/399/134
f 272/419/83 265/422/83 266/421/83 264/420/83 263/388/83 271/415/83
f 278/388/123 277/387/122 281/409/150 282/415/149
f 285/423/112 287/426/112 288/425/112 286/424/112
f 287/426/111 289/428/111 290/427/111 288/425/111
f 289/429/110 291/432/110 292/431/110 290/430/110
f 291/428/115 293/435/115 294/434/115 292/433/115
f 288/436/114 290/441/114 292/440/114 294/439/114 296/438/114 286/437/114
f 293/435/113 295/442/113 296/438/113 294/434/113
f 295/432/83 285/445/83 286/444/83 296/443/83
f 302/461/129 301/416/148 303/414/147 304/395/130
f 305/394/127 306/417/154 308/418/153 307/462/128
f 301/401/136 302/463/140 297/464/139 298/398/136
f 307/465/137 308/401/131 299/398/131 300/466/138
f 271/415/83 298/454/83 297/453/83 300/452/83 299/451/83 272/419/83
f 209/467/155 211/468/155 217/382/156 213/381/156
f 210/380/73 212/379/73 211/458/155 209/457/155
f 217/382/156 218/456/82 214/455/82 213/381/156
f 259/467/120 263/381/118 267/382/118 261/468/120
