# Blender 5.0.1
# www.blender.org
mtllib door_3_loose.mtl
o door_3_loose
v -1.000000 -0.000000 0.060000
v -1.000000 2.100000 0.060001
v -1.000000 0.000000 0.000001
v -1.000000 2.100000 0.000001
v 0.000000 -0.000000 0.060000
v 0.000000 2.100000 0.060001
v 0.000000 0.000000 0.000001
v 0.000000 2.100000 0.000001
v -0.863072 1.242763 0.080000
v -0.863072 1.847000 0.080000
v -0.893072 1.212763 0.060000
v -0.893072 1.877000 0.060000
v -0.730001 1.242763 0.080000
v -0.730001 1.847000 0.080000
v -0.700001 1.212763 0.060000
v -0.700001 1.877000 0.060000
v -0.893072 1.212763 0.080000
v -0.893072 1.877000 0.080000
v -0.700001 1.877000 0.080000
v -0.700001 1.212763 0.080000
v -0.842156 1.263679 0.071667
v -0.842156 1.826084 0.071667
v -0.750917 1.826084 0.071667
v -0.750917 1.263679 0.071667
v -0.863072 1.242763 0.071667
v -0.863072 1.847000 0.071667
v -0.730001 1.847000 0.071667
v -0.730001 1.242763 0.071667
v -0.842156 1.263679 0.066667
v -0.842156 1.826084 0.066667
v -0.750917 1.826084 0.066667
v -0.750917 1.263679 0.066667
v -0.863072 1.242763 -0.020000
v -0.863072 1.847000 -0.020000
v -0.893072 1.212763 -0.000000
v -0.893072 1.877000 -0.000000
v -0.730001 1.242763 -0.020000
v -0.730001 1.847000 -0.020000
v -0.700001 1.212763 -0.000000
v -0.700001 1.877000 -0.000000
v -0.893072 1.212763 -0.020000
v -0.893072 1.877000 -0.020000
v -0.700001 1.877000 -0.020000
v -0.700001 1.212763 -0.020000
v -0.842156 1.263679 -0.011667
v -0.842156 1.826084 -0.011667
v -0.750917 1.826084 -0.011667
v -0.750917 1.263679 -0.011667
v -0.863072 1.242763 -0.011667
v -0.863072 1.847000 -0.011667
v -0.730001 1.847000 -0.011667
v -0.730001 1.242763 -0.011667
v -0.842156 1.263679 -0.006667
v -0.842156 1.826084 -0.006667
v -0.750917 1.826084 -0.006667
v -0.750917 1.263679 -0.006667
v -0.971635 1.095118 0.059500
v -0.971635 0.904882 0.059500
v -0.963577 0.912940 0.067000
v -0.908366 0.904882 0.059500
v -0.916425 0.912940 0.067000
v -0.963577 1.087060 0.067000
v -0.908366 1.095118 0.059500
v -0.916425 1.087060 0.067000
v -0.908369 1.095118 0.000500
v -0.908369 0.904882 0.000500
v -0.916428 0.912940 -0.007000
v -0.971638 0.904882 0.000500
v -0.963580 0.912940 -0.007000
v -0.916428 1.087060 -0.007000
v -0.971638 1.095118 0.000500
v -0.963580 1.087060 -0.007000
v -0.934525 1.077852 -0.004550
v -0.934525 1.077852 -0.009993
v -0.937961 1.082074 -0.004550
v -0.937961 1.082074 -0.009993
v -0.943335 1.081208 -0.004550
v -0.943335 1.081208 -0.009993
v -0.945273 1.076122 -0.004550
v -0.945273 1.076122 -0.009993
v -0.941836 1.071900 -0.004550
v -0.941836 1.071900 -0.009993
v -0.936462 1.072766 -0.004550
v -0.936462 1.072766 -0.009993
v -0.935603 0.924332 -0.004550
v -0.935603 0.924332 -0.009993
v -0.940646 0.926378 -0.004550
v -0.940646 0.926378 -0.009993
v -0.944941 0.923034 -0.004550
v -0.944941 0.923034 -0.009993
v -0.944192 0.917642 -0.004550
v -0.944192 0.917642 -0.009993
v -0.939148 0.915596 -0.004550
v -0.939148 0.915596 -0.009993
v -0.934853 0.918940 -0.004550
v -0.934853 0.918940 -0.009993
v -0.941509 1.082243 0.064547
v -0.941509 1.082243 0.069990
v -0.936249 1.080841 0.064547
v -0.936249 1.080841 0.069990
v -0.934834 1.075585 0.064547
v -0.934834 1.075585 0.069990
v -0.938678 1.071731 0.064547
v -0.938678 1.071731 0.069990
v -0.943937 1.073133 0.064547
v -0.943937 1.073133 0.069990
v -0.945353 1.078389 0.064547
v -0.945353 1.078389 0.069990
v -0.945210 0.919127 0.064548
v -0.945210 0.919127 0.069991
v -0.944263 0.924487 0.064548
v -0.944263 0.924487 0.069991
v -0.939148 0.926348 0.064548
v -0.939148 0.926348 0.069991
v -0.934979 0.922848 0.064548
v -0.934979 0.922848 0.069991
v -0.935926 0.917487 0.064548
v -0.935926 0.917487 0.069991
v -0.941042 0.915627 0.064548
v -0.941042 0.915627 0.069991
vn -1.0000 -0.0000 -0.0000
vn 1.0000 -0.0000 -0.0000
vn -0.0000 -1.0000 -0.0000
vn -0.0000 1.0000 -0.0000
vn -0.0000 -0.0000 1.0000
vn -0.0000 -0.0000 -1.0000
vn -0.7071 -0.7071 -0.0000
vn -0.7071 0.7071 -0.0000
vn 0.7071 -0.7071 -0.0000
vn 0.7071 0.7071 -0.0000
vn -0.0000 0.6427 0.7661
vn 0.6427 -0.0000 0.7661
vn -0.6427 -0.0000 0.7661
vn -0.0000 -0.6427 0.7661
vn -0.0000 0.6427 -0.7661
vn -0.6427 -0.0000 -0.7661
vn 0.6427 -0.0000 -0.7661
vn -0.0000 -0.6427 -0.7661
vn 0.7755 0.6313 -0.0000
vn -0.1590 0.9873 -0.0000
vn -0.9345 0.3560 -0.0000
vn -0.7755 -0.6313 -0.0000
vn 0.1590 -0.9873 -0.0000
vn 0.9345 -0.3560 -0.0000
vn 0.3760 0.9266 -0.0000
vn -0.6145 0.7890 -0.0000
vn -0.9905 -0.1377 -0.0000
vn -0.3760 -0.9266 -0.0000
vn 0.6145 -0.7890 -0.0000
vn 0.9905 0.1377 -0.0000
vn 0.2576 0.9663 -0.0000
vn 0.9656 0.2601 -0.0000
vn 0.7080 -0.7062 -0.0000
vn -0.2576 -0.9663 -0.0000
vn -0.9656 -0.2601 -0.0000
vn -0.7080 0.7062 -0.0000
vn -0.9848 0.1739 -0.0000
vn -0.3417 0.9398 -0.0000
vn 0.6430 0.7658 -0.0000
vn 0.9848 -0.1739 -0.0000
vn 0.3417 -0.9398 -0.0000
vn -0.6430 -0.7659 -0.0000
vt 0.014787 -0.002063
vt 0.014787 1.002063
vt 0.074787 1.002063
vt 0.074787 -0.002063
vt 0.983125 0.727491
vt 0.983125 0.249336
vt 0.923125 0.249336
vt 0.923125 0.727491
vt 1.000000 -0.002063
vt 1.000000 1.002063
vt -0.000000 1.002063
vt -0.000000 -0.002063
vt 1.000000 -0.002063
vt 0.000000 -0.002063
vt 0.000000 1.002063
vt 1.000000 1.002063
vt 0.279188 0.577670
vt 0.279188 0.895631
vt 0.299492 0.895631
vt 0.299492 0.577670
vt 0.126904 0.584951
vt 0.269036 0.584951
vt 0.269036 0.589806
vt 0.126904 0.589806
vt 0.106599 0.895745
vt 0.299492 0.895745
vt 0.299492 0.886036
vt 0.106599 0.886036
vt 0.136571 0.592031
vt 0.136571 0.881270
vt 0.106599 0.895631
vt 0.106599 0.577670
vt 0.269520 0.881271
vt 0.269520 0.592031
vt 0.158550 0.592537
vt 0.249921 0.592537
vt 0.249921 0.594964
vt 0.158550 0.594964
vt 0.284264 0.895631
vt 0.284264 0.577670
vt 0.294416 0.577670
vt 0.294416 0.895631
vt 0.157800 0.602231
vt 0.157800 0.871070
vt 0.137056 0.881068
vt 0.137056 0.592233
vt 0.248291 0.871070
vt 0.248291 0.602231
vt 0.269036 0.592233
vt 0.269036 0.881068
vt 0.253807 0.873786
vt 0.253807 0.601942
vt 0.258883 0.601942
vt 0.258883 0.873786
vt 0.070488 0.952198
vt 0.429512 0.952198
vt 0.486440 1.000000
vt 0.013560 1.000000
vt 0.070488 0.047802
vt 0.429512 0.047802
vt 0.500000 0.009186
vt 0.500000 0.990814
vt 0.000000 0.990814
vt 0.000000 0.009186
vt 0.013560 0.000000
vt 0.486440 0.000000
vt 0.777132 0.324472
vt 0.777132 0.296817
vt 0.808793 0.296817
vt 0.808793 0.324472
vt 0.762469 0.324472
vt 0.762468 0.296817
vt 0.722164 0.296817
vt 0.722164 0.324472
vt 0.802303 0.324472
vt 0.802303 0.296817
vt 0.764153 0.296817
vt 0.764153 0.324472
vt 0.732494 0.296817
vt 0.732494 0.324472
vt 0.762468 0.922478
vt 0.788241 0.901030
vt 0.773708 0.875187
vt 0.733403 0.870791
vt 0.707631 0.892238
vt 0.722164 0.918082
vt 0.733403 0.324472
vt 0.733403 0.296817
vt 0.773708 0.296817
vt 0.773708 0.324472
vt 0.738983 0.324472
vt 0.738983 0.296817
vt 0.780154 0.324470
vt 0.780154 0.296815
vt 0.742327 0.296815
vt 0.742327 0.324470
vt 0.710118 0.296815
vt 0.710118 0.324470
vt 0.740993 0.324470
vt 0.740993 0.296815
vt 0.700558 0.296815
vt 0.700558 0.324470
vt 0.715738 0.324470
vt 0.715738 0.296815
vt 0.753566 0.296815
vt 0.753566 0.324470
vt 0.742327 0.131445
vt 0.780154 0.121047
vt 0.785774 0.093655
vt 0.753566 0.076662
vt 0.715738 0.087061
vt 0.710118 0.114452
vt 0.785774 0.296815
vt 0.785774 0.324470
vt 0.710293 0.324470
vt 0.710293 0.296815
vt 0.750728 0.296815
vt 0.750728 0.324470
vt 0.735859 0.675528
vt 0.735859 0.703183
vt 0.775305 0.703183
vt 0.775305 0.675528
vt 0.799548 0.675528
vt 0.799548 0.703183
vt 0.760128 0.703183
vt 0.760128 0.675528
vt 0.731224 0.703183
vt 0.731224 0.675528
vt 0.757093 0.675528
vt 0.757093 0.703183
vt 0.717646 0.703183
vt 0.717647 0.675528
vt 0.775305 0.916215
vt 0.735859 0.923338
vt 0.707029 0.903758
vt 0.717646 0.877054
vt 0.757093 0.869931
vt 0.785922 0.889511
vt 0.741739 0.675528
vt 0.741739 0.703183
vt 0.781159 0.703183
vt 0.781159 0.675528
vt 0.810063 0.703183
vt 0.810063 0.675528
vt 0.711695 0.675530
vt 0.711695 0.703185
vt 0.751897 0.703184
vt 0.751897 0.675530
vt 0.715199 0.675530
vt 0.715199 0.703184
vt 0.753566 0.703185
vt 0.753566 0.675530
vt 0.784831 0.703185
vt 0.784831 0.675530
vt 0.739598 0.675530
vt 0.739598 0.703185
vt 0.699396 0.703185
vt 0.699396 0.675530
vt 0.715199 0.121839
vt 0.708099 0.094605
vt 0.739364 0.076823
vt 0.777730 0.086274
vt 0.784831 0.113507
vt 0.753566 0.131290
vt 0.777730 0.675530
vt 0.777730 0.703185
vt 0.739364 0.703185
vt 0.739364 0.675530
vt 0.708099 0.703185
vt 0.708099 0.675530
s 1
usemtl door_3
f 1/1/1 2/2/1 4/3/1 3/4/1
f 7/4/2 8/3/2 6/2/2 5/1/2
f 3/5/3 7/6/3 5/7/3 1/8/3
f 8/6/4 4/5/4 2/8/4 6/7/4
f 5/9/5 6/10/5 2/11/5 1/12/5
f 7/13/6 3/14/6 4/15/6 8/16/6
f 17/17/1 18/18/1 12/19/1 11/20/1
f 15/20/2 16/19/2 19/18/2 20/17/2
f 9/21/4 13/22/4 28/23/4 25/24/4
f 11/25/3 15/26/3 20/27/3 17/28/3
f 16/26/4 12/25/4 18/28/4 19/27/4
f 9/29/5 10/30/5 18/31/5 17/32/5
f 14/33/5 13/34/5 20/20/5 19/19/5
f 13/34/5 9/29/5 17/32/5 20/20/5
f 10/30/5 14/33/5 19/19/5 18/31/5
f 21/35/4 24/36/4 32/37/4 29/38/4
f 10/39/2 9/40/2 25/41/2 26/42/2
f 14/22/3 10/21/3 26/24/3 27/23/3
f 13/40/1 14/39/1 27/42/1 28/41/1
f 21/43/5 22/44/5 26/45/5 25/46/5
f 23/47/5 24/48/5 28/49/5 27/50/5
f 24/48/5 21/43/5 25/46/5 28/49/5
f 22/44/5 23/47/5 27/50/5 26/45/5
f 32/48/5 31/47/5 30/44/5 29/43/5
f 22/51/2 21/52/2 29/53/2 30/54/2
f 23/36/3 22/35/3 30/38/3 31/37/3
f 24/52/1 23/51/1 31/54/1 32/53/1
f 41/17/7 35/20/7 36/19/8 42/18/8
f 39/20/9 44/17/9 43/18/10 40/19/10
f 33/21/10 49/24/10 52/23/8 37/22/8
f 35/25/7 41/28/7 44/27/9 39/26/9
f 40/26/10 43/27/10 42/28/8 36/25/8
f 33/29/6 41/32/6 42/31/6 34/30/6
f 38/33/6 43/19/6 44/20/6 37/34/6
f 37/34/6 44/20/6 41/32/6 33/29/6
f 34/30/6 42/31/6 43/19/6 38/33/6
f 45/35/10 53/38/10 56/37/8 48/36/8
f 34/39/9 50/42/9 49/41/10 33/40/10
f 38/22/7 51/23/7 50/24/9 34/21/9
f 37/40/8 52/41/8 51/42/7 38/39/7
f 45/43/6 49/46/6 50/45/6 46/44/6
f 47/47/6 51/50/6 52/49/6 48/48/6
f 48/48/6 52/49/6 49/46/6 45/43/6
f 46/44/6 50/45/6 51/50/6 47/47/6
f 56/48/6 53/43/6 54/44/6 55/47/6
f 46/51/9 54/54/9 53/53/10 45/52/10
f 47/36/7 55/37/7 54/38/9 46/35/9
f 48/52/8 56/53/8 55/54/7 47/51/7
usemtl door_handle_1
f 62/55/11 64/56/11 63/57/11 57/58/11
f 59/59/5 61/60/5 64/56/5 62/55/5
f 64/56/12 61/60/12 60/61/12 63/62/12
f 57/63/13 58/64/13 59/59/13 62/55/13
f 61/60/14 59/59/14 58/65/14 60/66/14
f 70/55/15 72/56/15 71/57/15 65/58/15
f 67/59/6 69/60/6 72/56/6 70/55/6
f 72/56/16 69/60/16 68/61/16 71/62/16
f 65/63/17 66/64/17 67/59/17 70/55/17
f 69/60/18 67/59/18 66/65/18 68/66/18
f 73/67/19 74/68/19 76/69/19 75/70/19
f 75/71/20 76/72/20 78/73/20 77/74/20
f 77/75/21 78/76/21 80/77/21 79/78/21
f 79/78/22 80/77/22 82/79/22 81/80/22
f 76/81/6 74/82/6 84/83/6 82/84/6 80/85/6 78/86/6
f 81/87/23 82/88/23 84/89/23 83/90/23
f 83/91/24 84/92/24 74/68/24 73/67/24
f 85/93/25 86/94/25 88/95/25 87/96/25
f 87/96/26 88/95/26 90/97/26 89/98/26
f 89/99/27 90/100/27 92/101/27 91/102/27
f 91/103/28 92/104/28 94/105/28 93/106/28
f 88/107/6 86/108/6 96/109/6 94/110/6 92/111/6 90/112/6
f 93/106/29 94/105/29 96/113/29 95/114/29
f 95/115/30 96/116/30 86/117/30 85/118/30
f 97/119/31 98/120/31 100/121/31 99/122/31
f 99/123/32 100/124/32 102/125/32 101/126/32
f 101/126/33 102/125/33 104/127/33 103/128/33
f 103/129/34 104/130/34 106/131/34 105/132/34
f 100/133/5 98/134/5 108/135/5 106/136/5 104/137/5 102/138/5
f 105/139/35 106/140/35 108/141/35 107/142/35
f 107/142/36 108/141/36 98/143/36 97/144/36
f 109/145/37 110/146/37 112/147/37 111/148/37
f 111/149/38 112/150/38 114/151/38 113/152/38
f 113/152/39 114/151/39 116/153/39 115/154/39
f 115/155/40 116/156/40 118/157/40 117/158/40
f 112/159/5 110/160/5 120/161/5 118/162/5 116/163/5 114/164/5
f 117/165/41 118/166/41 120/167/41 119/168/41
f 119/168/42 120/167/42 110/169/42 109/170/42
o door_3_loose_handle
v -0.008660 -0.005000 0.032000
v -0.008660 0.005000 0.032000
v -0.009093 -0.005250 -0.010000
v -0.009093 0.005250 -0.010000
v 0.000000 -0.010000 0.032000
v 0.008660 -0.005000 0.032000
v 0.000000 0.010000 0.032000
v 0.008660 0.005000 0.032000
v 0.000000 -0.010500 -0.010000
v 0.009093 -0.005250 -0.010000
v 0.000000 0.010500 -0.010000
v 0.009093 0.005250 -0.010000
v 0.110000 -0.010000 0.032000
v 0.110000 0.010000 0.032000
v -0.006867 -0.003965 0.042000
v -0.008660 -0.005000 0.040000
v -0.008660 0.005000 0.040000
v -0.006867 0.003965 0.042000
v 0.000000 -0.007954 0.042000
v 0.000000 -0.010000 0.040000
v 0.000000 0.010000 0.040000
v 0.000000 0.007954 0.042000
v 0.110000 -0.007954 0.042000
v 0.110000 -0.010000 0.040000
v 0.110000 0.010000 0.040000
v 0.110000 0.007954 0.042000
v -0.008541 0.002709 -0.003815
v -0.013984 0.002709 -0.003815
v -0.008541 0.005430 0.000899
v -0.013984 0.005430 0.000899
v -0.008541 0.002709 0.005613
v -0.013984 0.002709 0.005613
v -0.008541 -0.002735 0.005613
v -0.013984 -0.002735 0.005613
v -0.008541 -0.005456 0.000899
v -0.013984 -0.005456 0.000899
v -0.008541 -0.002735 -0.003815
v -0.013984 -0.002735 -0.003815
v 0.116000 -0.005464 0.032000
v 0.113049 -0.009183 0.032000
v 0.113049 0.009183 0.032000
v 0.116000 0.005464 0.032000
v 0.113049 -0.009183 0.040000
v 0.116000 -0.005456 0.040000
v 0.111980 -0.007423 0.042000
v 0.113932 -0.004683 0.042000
v 0.113932 0.004683 0.042000
v 0.111980 0.007423 0.042000
v 0.116000 0.005456 0.040000
v 0.113049 0.009183 0.040000
v -0.008660 -0.005000 -0.126000
v -0.008660 0.005000 -0.126000
v -0.009093 -0.005250 -0.084000
v -0.009093 0.005250 -0.084000
v 0.000000 -0.010000 -0.126000
v 0.008660 -0.005000 -0.126000
v 0.000000 0.010000 -0.126000
v 0.008660 0.005000 -0.126000
v 0.000000 -0.010500 -0.084000
v 0.009093 -0.005250 -0.084000
v 0.000000 0.010500 -0.084000
v 0.009093 0.005250 -0.084000
v 0.110000 -0.010000 -0.126000
v 0.110000 0.010000 -0.126000
v -0.006867 -0.003965 -0.136000
v -0.008660 -0.005000 -0.134000
v -0.008660 0.005000 -0.134000
v -0.006867 0.003965 -0.136000
v 0.000000 -0.007954 -0.136000
v 0.000000 -0.010000 -0.134000
v 0.000000 0.010000 -0.134000
v 0.000000 0.007954 -0.136000
v 0.110000 -0.007954 -0.136000
v 0.110000 -0.010000 -0.134000
v 0.110000 0.010000 -0.134000
v 0.110000 0.007954 -0.136000
v -0.008541 0.002709 -0.090185
v -0.013984 0.002709 -0.090185
v -0.008541 0.005430 -0.094899
v -0.013984 0.005430 -0.094899
v -0.008541 0.002709 -0.099613
v -0.013984 0.002709 -0.099613
v -0.008541 -0.002735 -0.099613
v -0.013984 -0.002735 -0.099613
v -0.008541 -0.005456 -0.094899
v -0.013984 -0.005456 -0.094899
v -0.008541 -0.002735 -0.090185
v -0.013984 -0.002735 -0.090185
v 0.116000 -0.005464 -0.126000
v 0.113049 -0.009183 -0.126000
v 0.113049 0.009183 -0.126000
v 0.116000 0.005464 -0.126000
v 0.113048 -0.009183 -0.134000
v 0.116000 -0.005456 -0.134000
v 0.111980 -0.007423 -0.136000
v 0.113932 -0.004683 -0.136000
v 0.113932 0.004683 -0.136000
v 0.111980 0.007423 -0.136000
v 0.116000 0.005456 -0.134000
v 0.113048 0.009183 -0.134000
vn -0.8660 0.5000 -0.0000
vn -0.1305 0.9914 -0.0000
vn -0.8660 0.5000 0.0119
vn -0.0000 0.9999 0.0119
vn -0.6016 -0.3473 0.7193
vn -0.6016 0.3473 0.7193
vn -0.6016 0.3474 0.7193
vn -0.6016 -0.3474 0.7193
vn -0.0976 -0.6957 0.7117
vn -0.0867 -0.6964 0.7124
vn 0.8660 0.5000 0.0119
vn 0.8660 -0.5000 0.0119
vn -0.0000 -0.0000 1.0000
vn 0.6459 0.2141 0.7328
vn 0.6459 -0.2141 0.7328
vn 0.6437 -0.2210 0.7327
vn 0.6437 0.2210 0.7327
vn 0.5490 0.8358 0.0002
vn 0.1304 0.9902 0.0493
vn 0.1793 0.9838 -0.0000
vn 0.1304 -0.9902 0.0493
vn 0.5490 -0.8358 0.0002
vn 0.0815 -0.9967 -0.0000
vn 0.9444 0.3287 0.0002
vn 0.9444 -0.3287 0.0002
vn 0.9443 -0.3291 0.0002
vn 0.9443 0.3291 0.0002
vn -0.0976 0.6957 0.7117
vn -0.0867 0.6964 0.7124
vn -0.8660 -0.5000 -0.0000
vn -0.1305 -0.9914 -0.0000
vn 0.3875 -0.5684 0.7257
vn 0.0616 -0.6977 0.7137
vn 0.0835 -0.6727 0.7352
vn 0.3794 -0.5741 0.7256
vn 0.1306 0.6908 0.7111
vn 0.3875 0.5684 0.7257
vn 0.3794 0.5741 0.7256
vn 0.0866 0.7220 0.6865
vn -0.0000 -0.0000 -1.0000
vn -0.0000 0.8660 -0.5000
vn -0.0000 0.8660 0.5000
vn -0.0000 -0.8660 0.5000
vn -1.0000 -0.0000 -0.0000
vn -0.0000 -0.8660 -0.5000
vn -0.8660 0.5000 -0.0119
vn -0.0000 0.9999 -0.0119
vn -0.0000 -0.9999 -0.0119
vn 0.8660 -0.5000 -0.0119
vn -0.8660 -0.5000 -0.0119
vn 0.8660 0.5000 -0.0119
vn -0.0862 -0.7280 -0.6802
vn -0.0790 -0.7187 -0.6908
vn -0.6042 -0.3488 -0.7165
vn -0.6041 -0.3488 -0.7165
vn -0.0980 0.9952 -0.0000
vn 0.6459 0.2141 -0.7328
vn 0.6437 0.2210 -0.7327
vn 0.6437 -0.2210 -0.7327
vn 0.6459 -0.2141 -0.7328
vn 0.5490 0.8358 -0.0002
vn 0.0815 0.9967 -0.0000
vn 0.1304 0.9902 -0.0493
vn 0.1304 -0.9902 -0.0493
vn 0.1793 -0.9838 -0.0000
vn 0.5490 -0.8358 -0.0002
vn 0.9444 0.3287 -0.0002
vn 0.9443 0.3291 -0.0002
vn 0.9443 -0.3291 -0.0002
vn 0.9444 -0.3287 -0.0002
vn -0.6041 0.3488 -0.7165
vn -0.6042 0.3488 -0.7165
vn -0.0790 0.7187 -0.6908
vn -0.0862 0.7280 -0.6802
vn -0.0980 -0.9952 -0.0000
vn -0.0980 -0.9952 -0.0001
vn 0.3875 -0.5685 -0.7257
vn 0.3794 -0.5741 -0.7256
vn 0.0835 -0.6727 -0.7352
vn 0.1330 -0.6880 -0.7134
vn 0.0646 0.6998 -0.7114
vn 0.0933 0.7211 -0.6865
vn 0.3794 0.5741 -0.7256
vn 0.3875 0.5684 -0.7257
vn -0.8660 -0.5000 0.0119
vn -0.0000 -0.9999 0.0119
vt 0.882184 0.825266
vt 0.943487 0.825266
vt 0.943487 0.780311
vt 0.882184 0.780311
vt 1.000000 0.945494
vt 0.678162 0.946792
vt 0.678162 0.886247
vt 1.000000 0.886247
vt 0.712474 0.815958
vt 0.773236 0.815958
vt 0.781169 0.825266
vt 0.704541 0.825266
vt 0.681902 0.780311
vt 0.666227 0.780311
vt 0.678162 0.860345
vt 1.000000 0.859047
vt 0.678162 0.912255
vt 1.000000 0.913553
vt 0.803808 0.780311
vt 0.778738 0.188896
vt 0.706971 0.188896
vt 0.701048 0.182200
vt 0.784662 0.182200
vt 0.882184 0.193478
vt 0.882184 0.209307
vt 0.943487 0.209307
vt 0.943487 0.193482
vt 0.943487 0.183352
vt 0.882184 0.183352
vt 0.819483 0.780311
vt 0.882184 0.533391
vt 0.943487 0.533391
vt 0.882184 0.481482
vt 0.943487 0.481482
vt 0.681902 0.209307
vt 0.685971 0.199030
vt 0.778739 0.188896
vt 0.799739 0.199030
vt 0.803808 0.209307
vt 0.685971 0.199030
vt 0.666227 0.209307
vt 0.672486 0.193482
vt 0.799739 0.199030
vt 0.813224 0.193482
vt 0.819483 0.209307
vt 0.704541 0.735356
vt 0.781169 0.735356
vt 0.819483 0.780311
vt 0.222824 0.476887
vt 0.183426 0.476887
vt 0.183426 0.500000
vt 0.222824 0.500000
vt 0.183426 0.523113
vt 0.222824 0.523113
vt 0.222824 0.513344
vt 0.183426 0.513344
vt 0.183426 0.486656
vt 0.222824 0.486656
vt 0.183426 0.523113
vt 0.183426 0.500000
vt 0.222824 0.500000
vt 0.242522 0.500000
vt 0.222824 0.476887
vt 0.183426 0.476887
vt 0.163728 0.500000
vt 0.183426 0.523113
vt 0.222824 0.523113
vt 0.222824 0.476887
vt 0.183426 0.486656
vt 0.183426 0.513344
vt 0.222824 0.513344
vt 0.701550 0.178890
vt 0.784160 0.178890
vt 0.882184 0.179583
vt 0.943487 0.179584
vt 0.943487 0.179584
vt 0.813222 0.193478
vt 0.784722 0.178161
vt 0.700988 0.178161
vt 0.672487 0.193478
vt 0.678162 0.841292
vt 1.000000 0.839043
vt 0.678162 0.998702
vt 1.000000 1.000000
vt 0.784662 0.182200
vt 0.701048 0.182200
vt 0.701550 0.178890
vt 0.784160 0.178890
vt 0.943487 0.179584
vt 0.882184 0.179583
vt 0.943487 0.179584
vt 0.882184 0.179583
vt 0.678162 0.931201
vt 1.000000 0.933450
s 1
usemtl door_handle_1
f 122/171/43 137/172/43 141/173/44 127/174/44
f 124/175/45 122/176/45 127/177/46 131/178/46
f 135/179/47 138/180/48 137/181/49 136/182/50
f 139/183/51 135/179/47 136/182/50 140/184/52
f 127/177/46 128/185/53 132/186/53 131/178/46
f 132/186/53 128/185/53 126/187/54 130/188/54
f 135/179/55 139/183/55 142/189/55 138/180/55
f 167/190/56 166/191/57 164/192/58 169/193/59
f 161/194/60 134/195/61 145/196/62 170/197/60
f 133/195/63 160/194/64 163/197/64 144/196/65
f 169/198/66 164/198/67 159/199/68 162/199/69
f 138/180/48 142/189/70 141/200/71 137/181/49
f 121/201/72 125/174/73 140/173/73 136/202/72
f 122/203/43 121/201/72 136/202/72 137/204/43
f 143/205/55 165/206/55 166/191/55 167/207/55 168/208/55 146/209/55
f 165/210/74 143/205/75 144/211/76 163/212/77
f 146/209/78 168/213/79 170/214/80 145/215/81
f 142/189/70 146/209/78 145/215/81 141/200/71
f 141/173/44 145/196/62 134/195/61 127/174/44
f 139/183/55 143/205/55 146/209/55 142/189/55
f 125/174/73 133/195/63 144/196/65 140/173/73
f 134/215/82 133/211/82 125/184/82 126/216/82 128/217/82 127/218/82
f 140/184/52 144/211/76 143/205/75 139/183/51
f 147/219/83 148/220/83 150/221/83 149/222/83
f 149/222/84 150/221/84 152/223/84 151/224/84
f 151/225/55 152/226/55 154/227/55 153/228/55
f 153/224/85 154/229/85 156/230/85 155/231/85
f 150/232/86 148/233/86 158/234/86 156/235/86 154/236/86 152/237/86
f 155/231/87 156/230/87 158/234/87 157/238/87
f 157/228/82 158/239/82 148/240/82 147/241/82
f 164/242/58 166/191/57 165/210/74 163/212/77
f 167/190/56 169/243/59 170/214/80 168/213/79
f 163/197/64 160/194/64 159/244/68 164/245/67
f 169/246/66 162/244/69 161/194/60 170/197/60
f 133/211/82 134/215/82 161/247/82 162/248/82 159/249/82 160/250/82
f 172/203/43 187/204/43 186/202/72 171/201/72
f 174/175/88 181/178/89 177/177/89 172/176/88
f 179/178/90 175/177/90 176/251/91 180/252/91
f 172/176/88 171/253/92 173/254/92 174/175/88
f 177/177/89 181/178/89 182/186/93 178/185/93
f 189/183/94 190/184/95 186/182/96 185/179/97
f 182/186/93 180/188/91 176/187/91 178/185/93
f 172/171/43 177/174/98 191/173/98 187/172/43
f 185/179/82 188/180/82 192/189/82 189/183/82
f 217/190/99 219/255/100 214/256/101 216/191/102
f 211/194/103 220/197/103 195/196/104 184/195/105
f 183/195/106 194/196/107 213/197/108 210/194/108
f 219/198/109 212/199/110 209/199/111 214/198/112
f 188/180/113 187/181/114 191/200/115 192/189/116
f 185/179/97 186/182/96 187/181/114 188/180/113
f 171/201/72 186/202/72 190/173/117 175/174/118
f 193/205/82 196/209/82 218/208/82 217/207/82 216/191/82 215/206/82
f 215/210/119 213/212/120 194/211/121 193/205/122
f 196/209/123 195/215/124 220/214/125 218/213/126
f 192/189/116 191/200/115 195/215/124 196/209/123
f 191/173/98 177/174/98 184/195/105 195/196/104
f 189/183/82 192/189/82 196/209/82 193/205/82
f 175/174/118 190/173/117 194/196/107 183/195/106
f 184/215/55 177/218/55 178/217/55 176/216/55 175/184/55 183/211/55
f 190/184/95 189/183/94 193/205/122 194/211/121
f 197/219/84 199/222/84 200/221/84 198/220/84
f 199/222/83 201/224/83 202/223/83 200/221/83
f 201/225/82 203/228/82 204/227/82 202/226/82
f 203/224/87 205/231/87 206/230/87 204/229/87
f 200/232/86 202/237/86 204/236/86 206/235/86 208/234/86 198/233/86
f 205/231/85 207/238/85 208/234/85 206/230/85
f 207/228/55 197/241/55 198/240/55 208/239/55
f 214/257/101 213/212/120 215/210/119 216/191/102
f 217/190/99 218/213/126 220/214/125 219/258/100
f 213/197/108 214/259/112 209/260/111 210/194/108
f 219/261/109 220/197/103 211/194/103 212/262/110
f 183/211/55 210/250/55 209/249/55 212/248/55 211/247/55 184/215/55
f 121/263/127 123/264/127 129/178/128 125/177/128
f 122/176/45 124/175/45 123/254/127 121/253/127
f 129/178/128 130/252/54 126/251/54 125/177/128
f 171/263/92 175/177/90 179/178/90 173/264/92
