# Blender 5.0.1
# www.blender.org
mtllib doorway_1_1.mtl
o doorway_1_1
v 2.000000 0.000000 0.060000
v 2.000000 3.000000 0.060000
v 2.000000 0.000000 -0.060000
v 2.000000 3.000000 -0.060000
v 2.030000 0.000000 0.030000
v 2.030000 3.000000 0.030000
v 2.030000 0.000000 -0.030000
v 2.030000 3.000000 -0.030000
v -2.000000 0.000000 -0.060000
v -2.000000 3.000000 -0.060000
v -2.000000 0.000000 0.060001
v -2.000000 3.000000 0.060000
v -2.030000 0.000000 -0.030000
v -2.030000 3.000000 -0.030000
v -2.030000 0.000000 0.030001
v -2.030000 3.000000 0.030000
v -2.000000 0.160000 0.070000
v -2.000000 0.000000 0.090000
v 2.000000 0.000000 0.090000
v 2.000000 0.160000 -0.060000
v 2.000000 0.160000 -0.070000
v 2.000000 0.110000 -0.090000
v 2.000000 0.000000 -0.090000
v -2.000000 0.110000 -0.090000
v -2.000000 0.000000 -0.090000
v 0.580000 0.000000 -0.060000
v 0.580000 0.110000 0.090000
v 0.580000 0.160000 0.070000
v 0.580000 0.000000 0.060000
v 0.580000 0.000000 0.090000
v 0.580000 0.000000 -0.090000
v 0.580000 0.110000 -0.090000
v 0.580000 0.160000 -0.070000
v 0.580000 0.160000 -0.060000
v 0.580000 0.160000 0.060000
v 0.580000 2.180000 0.060000
v 0.580000 2.180000 -0.060000
v -0.580000 2.180000 0.060000
v -0.580000 2.180000 -0.060000
v -0.580000 0.000000 -0.060000
v -0.580000 0.110000 0.090000
v -0.580000 0.160000 0.070000
v -0.580000 0.000000 0.060000
v -0.580000 0.000000 0.090000
v -0.580000 0.000000 -0.090000
v -0.580000 0.110000 -0.090000
v -0.580000 0.160000 -0.070000
v -0.580000 0.160000 -0.060000
v -0.580000 0.160000 0.060000
v 2.030000 0.160000 -0.030000
v 2.045000 0.000000 -0.045000
v 2.045000 0.110000 -0.045000
v 2.035000 0.160000 -0.035000
v -2.000000 0.160000 -0.060000
v -2.000000 0.160000 -0.070000
v -2.045000 0.000000 -0.045000
v -2.045000 0.110000 -0.045000
v -2.030000 0.160000 -0.030000
v -2.035000 0.160000 -0.035000
v -2.000000 0.160000 0.060000
v -2.000000 0.110000 0.090000
v -2.030000 0.160000 0.030001
v -2.045000 0.000000 0.045001
v -2.045000 0.110000 0.045000
v -2.035000 0.160000 0.035001
v 2.000000 0.160000 0.059999
v 2.000000 0.160000 0.070000
v 2.000000 0.110000 0.089999
v 2.045000 0.000000 0.044999
v 2.045000 0.110000 0.044999
v 2.030000 0.160000 0.029999
v 2.035000 0.160000 0.034999
v -0.579999 2.180000 -0.100000
v -0.579999 2.180000 0.100000
v 0.500000 2.099999 -0.080000
v 0.500000 2.099999 0.080000
v 0.580000 2.180000 -0.100000
v 0.580000 2.180000 0.100000
v -0.500001 2.100000 -0.080000
v -0.500000 2.099999 0.080000
v 0.500000 0.000000 -0.080000
v 0.500000 -0.000000 0.080000
v -0.500000 0.000000 -0.080000
v -0.500000 -0.000000 0.080000
v 0.580000 0.000000 -0.100000
v 0.580000 -0.000000 0.100000
v -0.580000 0.000000 -0.100000
v -0.580000 -0.000000 0.100000
v 0.540000 2.140000 -0.100000
v 0.520000 2.120000 -0.080000
v -0.540000 2.140000 -0.100000
v -0.520000 2.119999 -0.080000
v 0.540000 0.000000 -0.100000
v 0.520000 0.000000 -0.080000
v -0.540000 0.000000 -0.100000
v -0.520000 0.000000 -0.080000
v -0.520000 2.120000 0.080000
v -0.540000 2.140000 0.100000
v 0.540000 2.140000 0.100000
v 0.520000 2.119999 0.080000
v 0.540000 -0.000000 0.100000
v 0.520000 -0.000000 0.080000
v -0.520000 -0.000000 0.080000
v -0.540000 -0.000000 0.100000
vn -0.0000 -0.0000 -1.0000
vn 0.7071 -0.0000 -0.7071
vn 0.7071 -0.0000 0.7071
vn -0.7071 -0.0000 0.7071
vn -0.7071 -0.0000 -0.7071
vn -0.0000 -0.0000 1.0000
vn -0.0000 0.3714 0.9285
vn -0.0000 1.0000 -0.0000
vn -0.0000 0.3714 -0.9285
vn 1.0000 -0.0000 -0.0000
vn -1.0000 -0.0000 -0.0000
vn 0.6804 0.2722 -0.6804
vn -0.6804 0.2722 -0.6804
vn -0.6804 0.2722 0.6804
vn 0.6804 0.2722 0.6804
vn -0.0000 -1.0000 -0.0000
vn -0.0000 -0.7071 -0.7071
vn -0.0000 -0.7071 0.7071
vt 0.007452 1.000008
vt 0.357161 0.733650
vt 0.357161 0.000002
vt 0.007452 0.000002
vt 0.992548 0.000002
vt 0.992548 1.000008
vt 0.999936 1.000008
vt 0.999936 0.000002
vt 0.000064 1.000008
vt 0.000064 0.000002
vt 0.642839 0.733650
vt 0.642839 0.000002
vt 1.833333 -0.220000
vt 1.833333 -0.146667
vt 0.886667 -0.146667
vt 0.886666 -0.220000
vt 1.833333 -0.113333
vt 0.886667 -0.113333
vt 0.886666 -0.146667
vt 1.833333 0.540000
vt 0.886667 0.540000
vt 0.886666 0.546667
vt 1.833333 0.546667
vt -0.833333 -0.220000
vt -0.833333 -0.146667
vt 0.113333 -0.146667
vt 0.113333 -0.220000
vt -0.833333 -0.113333
vt 0.113333 -0.113333
vt 0.113333 -0.146667
vt -0.833333 0.460001
vt 0.113333 0.460000
vt 0.113333 0.453334
vt -0.833333 0.453334
vt 0.113333 -0.220000
vt 0.886667 -0.220000
vt 0.886666 -0.113333
vt 0.886666 0.460000
vt 1.833333 0.460000
vt 1.833333 0.453333
vt 0.886667 0.453334
vt 0.113333 -0.113333
vt 0.113333 0.540000
vt -0.833333 0.540000
vt -0.833333 0.546667
vt 0.113333 0.546667
vt 0.357161 0.733651
vt 0.357161 0.733613
vt 0.642839 0.733613
vt 0.642839 0.733613
vt 0.357161 0.733613
vt 0.642839 0.000002
vt 0.642839 0.733651
vt -0.113333 0.546667
vt -0.146667 0.560000
vt -0.220000 0.560000
vt -0.220000 0.540001
vt -0.113333 0.540000
vt -0.220000 0.440000
vt -0.146667 0.440000
vt -0.113333 0.453334
vt -0.113333 0.460000
vt -0.220000 0.460000
vt -0.146667 0.440000
vt -0.220000 0.440000
vt -0.220000 0.460000
vt -0.113333 0.460000
vt -0.113333 0.453334
vt -0.113333 0.546667
vt -0.220000 0.540000
vt -0.146667 0.560000
vt 1.875267 -0.230000
vt 1.833267 -0.230000
vt 1.833267 -0.303333
vt 1.875267 -0.303333
vt -0.875332 -0.230000
vt -0.875333 -0.303333
vt -0.833332 -0.303333
vt -0.833332 -0.230000
vt 1.865839 -0.196667
vt 1.833172 -0.196667
vt 1.865838 -0.196667
vt 1.875266 -0.230000
vt 1.833266 -0.230000
vt 1.833172 -0.196667
vt -0.833333 -0.290000
vt -0.833333 -0.296667
vt -0.856667 -0.273333
vt -0.853333 -0.270000
vt -0.875333 -0.230000
vt -0.833333 -0.230000
vt -0.833333 -0.303333
vt -0.875334 -0.303333
vt 1.875266 -0.303333
vt 1.833266 -0.303333
vt -0.865895 -0.196667
vt -0.833228 -0.196667
vt -0.833333 -0.210000
vt -0.853333 -0.230000
vt -0.856667 -0.226666
vt -0.833333 -0.203333
vt -0.865894 -0.196667
vt -0.833227 -0.196667
vt 1.833333 -0.210001
vt 1.833333 -0.203334
vt 1.856667 -0.226667
vt 1.853333 -0.230000
vt 1.833333 -0.290000
vt 1.853333 -0.270000
vt 1.856667 -0.273334
vt 1.833333 -0.296667
vt 0.886719 0.566406
vt 0.886719 0.433594
vt 0.113281 0.433594
vt 0.113281 0.566406
vt 1.234375 0.433594
vt -0.218750 0.433594
vt -0.218750 0.566406
vt 1.234375 0.566406
vt -0.234375 0.832031
vt 1.191406 0.832031
vt 1.191406 0.859375
vt -0.261719 0.859375
vt 1.179688 0.445312
vt 1.179688 0.554688
vt -0.218750 0.554688
vt -0.218750 0.445312
vt 1.226562 0.886719
vt 1.226562 0.902344
vt -0.171875 0.902344
vt -0.183594 0.886719
vt 0.859375 1.207031
vt 0.140625 1.207031
vt 0.113281 1.234375
vt 0.886719 1.234375
vt 0.847656 1.191406
vt 0.152344 1.191406
vt 0.167969 1.179688
vt 0.832031 1.179688
vt 1.191406 0.820312
vt 1.191406 0.808594
vt -0.207031 0.808594
vt -0.218750 0.820312
vt 0.167969 0.445312
vt 0.832031 0.445312
vt 0.832031 0.554688
vt 0.167969 0.554688
vt 1.226562 0.847656
vt -0.226562 0.847656
vt -0.199219 0.875000
vt 1.226562 0.875000
vt 1.212891 0.869141
vt -0.212891 0.869141
vt -0.201172 0.880859
vt 1.212891 0.880859
vt 0.847656 0.445312
vt 0.152344 0.445312
vt 0.140625 0.433594
vt 0.859375 0.433594
vt 0.859375 0.566406
vt 0.140625 0.566406
vt 0.152344 0.554688
vt 0.847656 0.554688
s 0
usemtl wall_3
f 2/6/3 1/5/3 5/8/3 6/7/3
f 11/4/4 12/1/4 16/9/4 15/10/4
f 2/6/6 36/11/6 29/12/6 1/5/6
f 11/4/6 43/3/6 38/47/6 12/1/6
f 12/1/6 38/48/6 36/49/6 2/6/6
usemtl wall_3_rear
f 10/1/1 39/2/1 40/3/1 9/4/1
f 3/5/2 4/6/2 8/7/2 7/8/2
f 10/1/5 9/4/5 13/10/5 14/9/5
f 4/6/1 37/50/1 39/51/1 10/1/1
f 3/5/1 26/52/1 37/53/1 4/6/1
f 45/59/10 46/60/10 47/61/10 48/62/10 40/63/10
f 32/64/11 31/65/11 26/66/11 34/67/11 33/68/11
usemtl door_frame_wood_1
f 19/13/6 68/14/6 27/15/6 30/16/6
f 67/17/7 28/18/7 27/19/7 68/14/7
f 66/20/8 35/21/8 28/22/8 67/23/8
f 25/24/1 24/25/1 46/26/1 45/27/1
f 55/28/9 47/29/9 46/30/9 24/25/9
f 54/31/8 48/32/8 47/33/8 55/34/8
f 41/30/6 61/25/6 18/24/6 44/35/6
f 32/19/1 22/14/1 23/13/1 31/36/1
f 33/37/9 21/17/9 22/14/9 32/15/9
f 34/38/8 20/39/8 21/40/8 33/41/8
f 42/42/7 17/28/7 61/25/7 41/26/7
f 49/43/8 60/44/8 17/45/8 42/46/8
f 42/54/10 41/55/10 44/56/10 43/57/10 49/58/10
f 28/69/11 35/58/11 29/70/11 30/56/11 27/71/11
f 22/72/2 52/73/2 51/74/2 23/75/2
f 68/76/3 19/77/3 69/78/3 70/79/3
f 21/80/12 53/81/12 52/73/12 22/72/12
f 55/82/13 24/83/13 57/84/13 59/85/13
f 54/86/8 55/87/8 59/88/8 58/89/8
f 61/90/4 64/91/4 63/92/4 18/93/4
f 24/83/5 25/94/5 56/95/5 57/84/5
f 17/96/14 65/97/14 64/91/14 61/90/14
f 60/98/8 62/99/8 65/100/8 17/101/8
f 67/102/15 68/76/15 70/79/15 72/103/15
f 66/104/8 67/105/8 72/106/8 71/107/8
f 20/108/8 50/109/8 53/110/8 21/111/8
f 78/112/8 77/113/8 73/114/8 74/115/8
f 73/116/11 87/117/11 88/118/11 74/119/11
f 99/120/6 101/121/6 86/122/6 78/123/6
f 86/118/10 85/117/10 77/116/10 78/119/10
f 79/124/10 80/125/10 84/126/10 83/127/10
f 103/128/6 84/129/6 80/130/6 97/131/6
f 89/132/1 91/133/1 73/134/1 77/135/1
f 76/125/11 75/124/11 81/127/11 82/126/11
f 100/136/6 97/137/6 80/138/6 76/139/6
f 96/128/1 92/131/1 79/130/1 83/129/1
f 94/140/1 81/141/1 75/142/1 90/143/1
f 79/144/16 75/145/16 76/146/16 80/147/16
f 85/122/1 93/121/1 89/120/1 77/123/1
f 93/121/5 94/140/5 90/143/5 89/120/5
f 87/148/1 73/149/1 91/150/1 95/151/1
f 95/152/2 91/153/2 92/154/2 96/155/2
f 75/139/1 79/138/1 92/137/1 90/136/1
f 90/156/17 92/157/17 91/158/17 89/159/17
f 78/135/6 74/134/6 98/133/6 99/132/6
f 99/160/18 98/161/18 97/162/18 100/163/18
f 88/148/6 104/151/6 98/150/6 74/149/6
f 104/151/3 103/128/3 97/131/3 98/150/3
f 76/142/6 82/141/6 102/140/6 100/143/6
f 100/143/4 102/140/4 101/121/4 99/120/4
l 49 48
o door_3
v -1.000000 -0.000000 0.060000
v -1.000000 2.100000 0.060001
v -1.000000 0.000000 0.000001
v -1.000000 2.100000 0.000001
v 0.000000 -0.000000 0.060000
v 0.000000 2.100000 0.060001
v 0.000000 0.000000 0.000001
v 0.000000 2.100000 0.000001
v -0.863072 1.242763 0.080000
v -0.863072 1.847000 0.080000
v -0.893072 1.212763 0.060000
v -0.893072 1.877000 0.060000
v -0.730001 1.242763 0.080000
v -0.730001 1.847000 0.080000
v -0.700001 1.212763 0.060000
v -0.700001 1.877000 0.060000
v -0.893072 1.212763 0.080000
v -0.893072 1.877000 0.080000
v -0.700001 1.877000 0.080000
v -0.700001 1.212763 0.080000
v -0.842156 1.263679 0.071667
v -0.842156 1.826084 0.071667
v -0.750917 1.826084 0.071667
v -0.750917 1.263679 0.071667
v -0.863072 1.242763 0.071667
v -0.863072 1.847000 0.071667
v -0.730001 1.847000 0.071667
v -0.730001 1.242763 0.071667
v -0.842156 1.263679 0.066667
v -0.842156 1.826084 0.066667
v -0.750917 1.826084 0.066667
v -0.750917 1.263679 0.066667
v -0.863072 1.242763 -0.020000
v -0.863072 1.847000 -0.020000
v -0.893072 1.212763 -0.000000
v -0.893072 1.877000 -0.000000
v -0.730001 1.242763 -0.020000
v -0.730001 1.847000 -0.020000
v -0.700001 1.212763 -0.000000
v -0.700001 1.877000 -0.000000
v -0.893072 1.212763 -0.020000
v -0.893072 1.877000 -0.020000
v -0.700001 1.877000 -0.020000
v -0.700001 1.212763 -0.020000
v -0.842156 1.263679 -0.011667
v -0.842156 1.826084 -0.011667
v -0.750917 1.826084 -0.011667
v -0.750917 1.263679 -0.011667
v -0.863072 1.242763 -0.011667
v -0.863072 1.847000 -0.011667
v -0.730001 1.847000 -0.011667
v -0.730001 1.242763 -0.011667
v -0.842156 1.263679 -0.006667
v -0.842156 1.826084 -0.006667
v -0.750917 1.826084 -0.006667
v -0.750917 1.263679 -0.006667
v -0.971635 1.095118 0.059500
v -0.971635 0.904882 0.059500
v -0.963577 0.912940 0.067000
v -0.908366 0.904882 0.059500
v -0.916425 0.912940 0.067000
v -0.963577 1.087060 0.067000
v -0.908366 1.095118 0.059500
v -0.916425 1.087060 0.067000
v -0.908369 1.095118 0.000500
v -0.908369 0.904882 0.000500
v -0.916428 0.912940 -0.007000
v -0.971638 0.904882 0.000500
v -0.963580 0.912940 -0.007000
v -0.916428 1.087060 -0.007000
v -0.971638 1.095118 0.000500
v -0.963580 1.087060 -0.007000
v -0.934525 1.077852 -0.004550
v -0.934525 1.077852 -0.009993
v -0.937961 1.082074 -0.004550
v -0.937961 1.082074 -0.009993
v -0.943335 1.081208 -0.004550
v -0.943335 1.081208 -0.009993
v -0.945273 1.076122 -0.004550
v -0.945273 1.076122 -0.009993
v -0.941836 1.071900 -0.004550
v -0.941836 1.071900 -0.009993
v -0.936462 1.072766 -0.004550
v -0.936462 1.072766 -0.009993
v -0.935603 0.924332 -0.004550
v -0.935603 0.924332 -0.009993
v -0.940646 0.926378 -0.004550
v -0.940646 0.926378 -0.009993
v -0.944941 0.923034 -0.004550
v -0.944941 0.923034 -0.009993
v -0.944192 0.917642 -0.004550
v -0.944192 0.917642 -0.009993
v -0.939148 0.915596 -0.004550
v -0.939148 0.915596 -0.009993
v -0.934853 0.918940 -0.004550
v -0.934853 0.918940 -0.009993
v -0.941509 1.082243 0.064547
v -0.941509 1.082243 0.069990
v -0.936249 1.080841 0.064547
v -0.936249 1.080841 0.069990
v -0.934834 1.075585 0.064547
v -0.934834 1.075585 0.069990
v -0.938678 1.071731 0.064547
v -0.938678 1.071731 0.069990
v -0.943937 1.073133 0.064547
v -0.943937 1.073133 0.069990
v -0.945353 1.078389 0.064547
v -0.945353 1.078389 0.069990
v -0.945210 0.919127 0.064548
v -0.945210 0.919127 0.069991
v -0.944263 0.924487 0.064548
v -0.944263 0.924487 0.069991
v -0.939148 0.926348 0.064548
v -0.939148 0.926348 0.069991
v -0.934979 0.922848 0.064548
v -0.934979 0.922848 0.069991
v -0.935926 0.917487 0.064548
v -0.935926 0.917487 0.069991
v -0.941042 0.915627 0.064548
v -0.941042 0.915627 0.069991
vn -1.0000 -0.0000 -0.0000
vn 1.0000 -0.0000 -0.0000
vn -0.0000 -1.0000 -0.0000
vn -0.0000 1.0000 -0.0000
vn -0.0000 -0.0000 1.0000
vn -0.0000 -0.0000 -1.0000
vn -0.7071 -0.7071 -0.0000
vn -0.7071 0.7071 -0.0000
vn 0.7071 -0.7071 -0.0000
vn 0.7071 0.7071 -0.0000
vn -0.0000 0.6427 0.7661
vn 0.6427 -0.0000 0.7661
vn -0.6427 -0.0000 0.7661
vn -0.0000 -0.6427 0.7661
vn -0.0000 0.6427 -0.7661
vn -0.6427 -0.0000 -0.7661
vn 0.6427 -0.0000 -0.7661
vn -0.0000 -0.6427 -0.7661
vn 0.7755 0.6313 -0.0000
vn -0.1590 0.9873 -0.0000
vn -0.9345 0.3560 -0.0000
vn -0.7755 -0.6313 -0.0000
vn 0.1590 -0.9873 -0.0000
vn 0.9345 -0.3560 -0.0000
vn 0.3760 0.9266 -0.0000
vn -0.6145 0.7890 -0.0000
vn -0.9905 -0.1377 -0.0000
vn -0.3760 -0.9266 -0.0000
vn 0.6145 -0.7890 -0.0000
vn 0.9905 0.1377 -0.0000
vn 0.2576 0.9663 -0.0000
vn 0.9656 0.2601 -0.0000
vn 0.7080 -0.7062 -0.0000
vn -0.2576 -0.9663 -0.0000
vn -0.9656 -0.2601 -0.0000
vn -0.7080 0.7062 -0.0000
vn -0.9848 0.1739 -0.0000
vn -0.3417 0.9398 -0.0000
vn 0.6430 0.7658 -0.0000
vn 0.9848 -0.1739 -0.0000
vn 0.3417 -0.9398 -0.0000
vn -0.6430 -0.7659 -0.0000
vt 0.014787 -0.002063
vt 0.014787 1.002063
vt 0.074787 1.002063
vt 0.074787 -0.002063
vt 0.983125 0.727491
vt 0.983125 0.249336
vt 0.923125 0.249336
vt 0.923125 0.727491
vt 1.000000 -0.002063
vt 1.000000 1.002063
vt -0.000000 1.002063
vt -0.000000 -0.002063
vt 1.000000 -0.002063
vt 0.000000 -0.002063
vt 0.000000 1.002063
vt 1.000000 1.002063
vt 0.279188 0.577670
vt 0.279188 0.895631
vt 0.299492 0.895631
vt 0.299492 0.577670
vt 0.126904 0.584951
vt 0.269036 0.584951
vt 0.269036 0.589806
vt 0.126904 0.589806
vt 0.106599 0.895745
vt 0.299492 0.895745
vt 0.299492 0.886036
vt 0.106599 0.886036
vt 0.136571 0.592031
vt 0.136571 0.881270
vt 0.106599 0.895631
vt 0.106599 0.577670
vt 0.269520 0.881271
vt 0.269520 0.592031
vt 0.158550 0.592537
vt 0.249921 0.592537
vt 0.249921 0.594964
vt 0.158550 0.594964
vt 0.284264 0.895631
vt 0.284264 0.577670
vt 0.294416 0.577670
vt 0.294416 0.895631
vt 0.157800 0.602231
vt 0.157800 0.871070
vt 0.137056 0.881068
vt 0.137056 0.592233
vt 0.248291 0.871070
vt 0.248291 0.602231
vt 0.269036 0.592233
vt 0.269036 0.881068
vt 0.253807 0.873786
vt 0.253807 0.601942
vt 0.258883 0.601942
vt 0.258883 0.873786
vt 0.070488 0.952198
vt 0.429512 0.952198
vt 0.486440 1.000000
vt 0.013560 1.000000
vt 0.070488 0.047802
vt 0.429512 0.047802
vt 0.500000 0.009186
vt 0.500000 0.990814
vt 0.000000 0.990814
vt 0.000000 0.009186
vt 0.013560 0.000000
vt 0.486440 0.000000
vt 0.777132 0.324472
vt 0.777132 0.296817
vt 0.808793 0.296817
vt 0.808793 0.324472
vt 0.762469 0.324472
vt 0.762468 0.296817
vt 0.722164 0.296817
vt 0.722164 0.324472
vt 0.802303 0.324472
vt 0.802303 0.296817
vt 0.764153 0.296817
vt 0.764153 0.324472
vt 0.732494 0.296817
vt 0.732494 0.324472
vt 0.762468 0.922478
vt 0.788241 0.901030
vt 0.773708 0.875187
vt 0.733403 0.870791
vt 0.707631 0.892238
vt 0.722164 0.918082
vt 0.733403 0.324472
vt 0.733403 0.296817
vt 0.773708 0.296817
vt 0.773708 0.324472
vt 0.738983 0.324472
vt 0.738983 0.296817
vt 0.780154 0.324470
vt 0.780154 0.296815
vt 0.742327 0.296815
vt 0.742327 0.324470
vt 0.710118 0.296815
vt 0.710118 0.324470
vt 0.740993 0.324470
vt 0.740993 0.296815
vt 0.700558 0.296815
vt 0.700558 0.324470
vt 0.715738 0.324470
vt 0.715738 0.296815
vt 0.753566 0.296815
vt 0.753566 0.324470
vt 0.742327 0.131445
vt 0.780154 0.121047
vt 0.785774 0.093655
vt 0.753566 0.076662
vt 0.715738 0.087061
vt 0.710118 0.114452
vt 0.785774 0.296815
vt 0.785774 0.324470
vt 0.710293 0.324470
vt 0.710293 0.296815
vt 0.750728 0.296815
vt 0.750728 0.324470
vt 0.735859 0.675528
vt 0.735859 0.703183
vt 0.775305 0.703183
vt 0.775305 0.675528
vt 0.799548 0.675528
vt 0.799548 0.703183
vt 0.760128 0.703183
vt 0.760128 0.675528
vt 0.731224 0.703183
vt 0.731224 0.675528
vt 0.757093 0.675528
vt 0.757093 0.703183
vt 0.717646 0.703183
vt 0.717647 0.675528
vt 0.775305 0.916215
vt 0.735859 0.923338
vt 0.707029 0.903758
vt 0.717646 0.877054
vt 0.757093 0.869931
vt 0.785922 0.889511
vt 0.741739 0.675528
vt 0.741739 0.703183
vt 0.781159 0.703183
vt 0.781159 0.675528
vt 0.810063 0.703183
vt 0.810063 0.675528
vt 0.711695 0.675530
vt 0.711695 0.703185
vt 0.751897 0.703184
vt 0.751897 0.675530
vt 0.715199 0.675530
vt 0.715199 0.703184
vt 0.753566 0.703185
vt 0.753566 0.675530
vt 0.784831 0.703185
vt 0.784831 0.675530
vt 0.739598 0.675530
vt 0.739598 0.703185
vt 0.699396 0.703185
vt 0.699396 0.675530
vt 0.715199 0.121839
vt 0.708099 0.094605
vt 0.739364 0.076823
vt 0.777730 0.086274
vt 0.784831 0.113507
vt 0.753566 0.131290
vt 0.777730 0.675530
vt 0.777730 0.703185
vt 0.739364 0.703185
vt 0.739364 0.675530
vt 0.708099 0.703185
vt 0.708099 0.675530
s 1
usemtl door_3
f 105/164/19 106/165/19 108/166/19 107/167/19
f 111/167/20 112/166/20 110/165/20 109/164/20
f 107/168/21 111/169/21 109/170/21 105/171/21
f 112/169/22 108/168/22 106/171/22 110/170/22
f 109/172/23 110/173/23 106/174/23 105/175/23
f 111/176/24 107/177/24 108/178/24 112/179/24
f 121/180/19 122/181/19 116/182/19 115/183/19
f 119/183/20 120/182/20 123/181/20 124/180/20
f 113/184/22 117/185/22 132/186/22 129/187/22
f 115/188/21 119/189/21 124/190/21 121/191/21
f 120/189/22 116/188/22 122/191/22 123/190/22
f 113/192/23 114/193/23 122/194/23 121/195/23
f 118/196/23 117/197/23 124/183/23 123/182/23
f 117/197/23 113/192/23 121/195/23 124/183/23
f 114/193/23 118/196/23 123/182/23 122/194/23
f 125/198/22 128/199/22 136/200/22 133/201/22
f 114/202/20 113/203/20 129/204/20 130/205/20
f 118/185/21 114/184/21 130/187/21 131/186/21
f 117/203/19 118/202/19 131/205/19 132/204/19
f 125/206/23 126/207/23 130/208/23 129/209/23
f 127/210/23 128/211/23 132/212/23 131/213/23
f 128/211/23 125/206/23 129/209/23 132/212/23
f 126/207/23 127/210/23 131/213/23 130/208/23
f 136/211/23 135/210/23 134/207/23 133/206/23
f 126/214/20 125/215/20 133/216/20 134/217/20
f 127/199/21 126/198/21 134/201/21 135/200/21
f 128/215/19 127/214/19 135/217/19 136/216/19
f 145/180/25 139/183/25 140/182/26 146/181/26
f 143/183/27 148/180/27 147/181/28 144/182/28
f 137/184/28 153/187/28 156/186/26 141/185/26
f 139/188/25 145/191/25 148/190/27 143/189/27
f 144/189/28 147/190/28 146/191/26 140/188/26
f 137/192/24 145/195/24 146/194/24 138/193/24
f 142/196/24 147/182/24 148/183/24 141/197/24
f 141/197/24 148/183/24 145/195/24 137/192/24
f 138/193/24 146/194/24 147/182/24 142/196/24
f 149/198/28 157/201/28 160/200/26 152/199/26
f 138/202/27 154/205/27 153/204/28 137/203/28
f 142/185/25 155/186/25 154/187/27 138/184/27
f 141/203/26 156/204/26 155/205/25 142/202/25
f 149/206/24 153/209/24 154/208/24 150/207/24
f 151/210/24 155/213/24 156/212/24 152/211/24
f 152/211/24 156/212/24 153/209/24 149/206/24
f 150/207/24 154/208/24 155/213/24 151/210/24
f 160/211/24 157/206/24 158/207/24 159/210/24
f 150/214/27 158/217/27 157/216/28 149/215/28
f 151/199/25 159/200/25 158/201/27 150/198/27
f 152/215/26 160/216/26 159/217/25 151/214/25
usemtl door_handle_1
f 166/218/29 168/219/29 167/220/29 161/221/29
f 163/222/23 165/223/23 168/219/23 166/218/23
f 168/219/30 165/223/30 164/224/30 167/225/30
f 161/226/31 162/227/31 163/222/31 166/218/31
f 165/223/32 163/222/32 162/228/32 164/229/32
f 174/218/33 176/219/33 175/220/33 169/221/33
f 171/222/24 173/223/24 176/219/24 174/218/24
f 176/219/34 173/223/34 172/224/34 175/225/34
f 169/226/35 170/227/35 171/222/35 174/218/35
f 173/223/36 171/222/36 170/228/36 172/229/36
f 177/230/37 178/231/37 180/232/37 179/233/37
f 179/234/38 180/235/38 182/236/38 181/237/38
f 181/238/39 182/239/39 184/240/39 183/241/39
f 183/241/40 184/240/40 186/242/40 185/243/40
f 180/244/24 178/245/24 188/246/24 186/247/24 184/248/24 182/249/24
f 185/250/41 186/251/41 188/252/41 187/253/41
f 187/254/42 188/255/42 178/231/42 177/230/42
f 189/256/43 190/257/43 192/258/43 191/259/43
f 191/259/44 192/258/44 194/260/44 193/261/44
f 193/262/45 194/263/45 196/264/45 195/265/45
f 195/266/46 196/267/46 198/268/46 197/269/46
f 192/270/24 190/271/24 200/272/24 198/273/24 196/274/24 194/275/24
f 197/269/47 198/268/47 200/276/47 199/277/47
f 199/278/48 200/279/48 190/280/48 189/281/48
f 201/282/49 202/283/49 204/284/49 203/285/49
f 203/286/50 204/287/50 206/288/50 205/289/50
f 205/289/51 206/288/51 208/290/51 207/291/51
f 207/292/52 208/293/52 210/294/52 209/295/52
f 204/296/23 202/297/23 212/298/23 210/299/23 208/300/23 206/301/23
f 209/302/53 210/303/53 212/304/53 211/305/53
f 211/305/54 212/304/54 202/306/54 201/307/54
f 213/308/55 214/309/55 216/310/55 215/311/55
f 215/312/56 216/313/56 218/314/56 217/315/56
f 217/315/57 218/314/57 220/316/57 219/317/57
f 219/318/58 220/319/58 222/320/58 221/321/58
f 216/322/23 214/323/23 224/324/23 222/325/23 220/326/23 218/327/23
f 221/328/59 222/329/59 224/330/59 223/331/59
f 223/331/60 224/330/60 214/332/60 213/333/60
o door_handle_3
v -0.008660 -0.005000 0.032000
v -0.008660 0.005000 0.032000
v -0.009093 -0.005250 -0.010000
v -0.009093 0.005250 -0.010000
v 0.000000 -0.010000 0.032000
v 0.008660 -0.005000 0.032000
v 0.000000 0.010000 0.032000
v 0.008660 0.005000 0.032000
v 0.000000 -0.010500 -0.010000
v 0.009093 -0.005250 -0.010000
v 0.000000 0.010500 -0.010000
v 0.009093 0.005250 -0.010000
v 0.110000 -0.010000 0.032000
v 0.110000 0.010000 0.032000
v -0.006867 -0.003965 0.042000
v -0.008660 -0.005000 0.040000
v -0.008660 0.005000 0.040000
v -0.006867 0.003965 0.042000
v 0.000000 -0.007954 0.042000
v 0.000000 -0.010000 0.040000
v 0.000000 0.010000 0.040000
v 0.000000 0.007954 0.042000
v 0.110000 -0.007954 0.042000
v 0.110000 -0.010000 0.040000
v 0.110000 0.010000 0.040000
v 0.110000 0.007954 0.042000
v -0.008541 0.002709 -0.003815
v -0.013984 0.002709 -0.003815
v -0.008541 0.005430 0.000899
v -0.013984 0.005430 0.000899
v -0.008541 0.002709 0.005613
v -0.013984 0.002709 0.005613
v -0.008541 -0.002735 0.005613
v -0.013984 -0.002735 0.005613
v -0.008541 -0.005456 0.000899
v -0.013984 -0.005456 0.000899
v -0.008541 -0.002735 -0.003815
v -0.013984 -0.002735 -0.003815
v 0.116000 -0.005464 0.032000
v 0.113049 -0.009183 0.032000
v 0.113049 0.009183 0.032000
v 0.116000 0.005464 0.032000
v 0.113049 -0.009183 0.040000
v 0.116000 -0.005456 0.040000
v 0.111980 -0.007423 0.042000
v 0.113932 -0.004683 0.042000
v 0.113932 0.004683 0.042000
v 0.111980 0.007423 0.042000
v 0.116000 0.005456 0.040000
v 0.113049 0.009183 0.040000
v -0.008660 -0.005000 -0.126000
v -0.008660 0.005000 -0.126000
v -0.009093 -0.005250 -0.084000
v -0.009093 0.005250 -0.084000
v 0.000000 -0.010000 -0.126000
v 0.008660 -0.005000 -0.126000
v 0.000000 0.010000 -0.126000
v 0.008660 0.005000 -0.126000
v 0.000000 -0.010500 -0.084000
v 0.009093 -0.005250 -0.084000
v 0.000000 0.010500 -0.084000
v 0.009093 0.005250 -0.084000
v 0.110000 -0.010000 -0.126000
v 0.110000 0.010000 -0.126000
v -0.006867 -0.003965 -0.136000
v -0.008660 -0.005000 -0.134000
v -0.008660 0.005000 -0.134000
v -0.006867 0.003965 -0.136000
v 0.000000 -0.007954 -0.136000
v 0.000000 -0.010000 -0.134000
v 0.000000 0.010000 -0.134000
v 0.000000 0.007954 -0.136000
v 0.110000 -0.007954 -0.136000
v 0.110000 -0.010000 -0.134000
v 0.110000 0.010000 -0.134000
v 0.110000 0.007954 -0.136000
v -0.008541 0.002709 -0.090185
v -0.013984 0.002709 -0.090185
v -0.008541 0.005430 -0.094899
v -0.013984 0.005430 -0.094899
v -0.008541 0.002709 -0.099613
v -0.013984 0.002709 -0.099613
v -0.008541 -0.002735 -0.099613
v -0.013984 -0.002735 -0.099613
v -0.008541 -0.005456 -0.094899
v -0.013984 -0.005456 -0.094899
v -0.008541 -0.002735 -0.090185
v -0.013984 -0.002735 -0.090185
v 0.116000 -0.005464 -0.126000
v 0.113049 -0.009183 -0.126000
v 0.113049 0.009183 -0.126000
v 0.116000 0.005464 -0.126000
v 0.113048 -0.009183 -0.134000
v 0.116000 -0.005456 -0.134000
v 0.111980 -0.007423 -0.136000
v 0.113932 -0.004683 -0.136000
v 0.113932 0.004683 -0.136000
v 0.111980 0.007423 -0.136000
v 0.116000 0.005456 -0.134000
v 0.113048 0.009183 -0.134000
vn -0.8660 0.5000 -0.0000
vn -0.1305 0.9914 -0.0000
vn -0.8660 0.5000 0.0119
vn -0.0000 0.9999 0.0119
vn -0.6016 -0.3473 0.7193
vn -0.6016 0.3473 0.7193
vn -0.6016 0.3474 0.7193
vn -0.6016 -0.3474 0.7193
vn -0.0976 -0.6957 0.7117
vn -0.0867 -0.6964 0.7124
vn 0.8660 0.5000 0.0119
vn 0.8660 -0.5000 0.0119
vn -0.0000 -0.0000 1.0000
vn 0.6459 0.2141 0.7328
vn 0.6459 -0.2141 0.7328
vn 0.6437 -0.2210 0.7327
vn 0.6437 0.2210 0.7327
vn 0.5490 0.8358 0.0002
vn 0.1304 0.9902 0.0493
vn 0.1793 0.9838 -0.0000
vn 0.1304 -0.9902 0.0493
vn 0.5490 -0.8358 0.0002
vn 0.0815 -0.9967 -0.0000
vn 0.9444 0.3287 0.0002
vn 0.9444 -0.3287 0.0002
vn 0.9443 -0.3291 0.0002
vn 0.9443 0.3291 0.0002
vn -0.0976 0.6957 0.7117
vn -0.0867 0.6964 0.7124
vn -0.8660 -0.5000 -0.0000
vn -0.1305 -0.9914 -0.0000
vn 0.3875 -0.5684 0.7257
vn 0.0616 -0.6977 0.7137
vn 0.0835 -0.6727 0.7352
vn 0.3794 -0.5741 0.7256
vn 0.1306 0.6908 0.7111
vn 0.3875 0.5684 0.7257
vn 0.3794 0.5741 0.7256
vn 0.0866 0.7220 0.6865
vn -0.0000 -0.0000 -1.0000
vn -0.0000 0.8660 -0.5000
vn -0.0000 0.8660 0.5000
vn -0.0000 -0.8660 0.5000
vn -1.0000 -0.0000 -0.0000
vn -0.0000 -0.8660 -0.5000
vn -0.8660 0.5000 -0.0119
vn -0.0000 0.9999 -0.0119
vn -0.0000 -0.9999 -0.0119
vn 0.8660 -0.5000 -0.0119
vn -0.8660 -0.5000 -0.0119
vn 0.8660 0.5000 -0.0119
vn -0.0862 -0.7280 -0.6802
vn -0.0790 -0.7187 -0.6908
vn -0.6042 -0.3488 -0.7165
vn -0.6041 -0.3488 -0.7165
vn -0.0980 0.9952 -0.0000
vn 0.6459 0.2141 -0.7328
vn 0.6437 0.2210 -0.7327
vn 0.6437 -0.2210 -0.7327
vn 0.6459 -0.2141 -0.7328
vn 0.5490 0.8358 -0.0002
vn 0.0815 0.9967 -0.0000
vn 0.1304 0.9902 -0.0493
vn 0.1304 -0.9902 -0.0493
vn 0.1793 -0.9838 -0.0000
vn 0.5490 -0.8358 -0.0002
vn 0.9444 0.3287 -0.0002
vn 0.9443 0.3291 -0.0002
vn 0.9443 -0.3291 -0.0002
vn 0.9444 -0.3287 -0.0002
vn -0.6041 0.3488 -0.7165
vn -0.6042 0.3488 -0.7165
vn -0.0790 0.7187 -0.6908
vn -0.0862 0.7280 -0.6802
vn -0.0980 -0.9952 -0.0000
vn -0.0980 -0.9952 -0.0001
vn 0.3875 -0.5685 -0.7257
vn 0.3794 -0.5741 -0.7256
vn 0.0835 -0.6727 -0.7352
vn 0.1330 -0.6880 -0.7134
vn 0.0646 0.6998 -0.7114
vn 0.0933 0.7211 -0.6865
vn 0.3794 0.5741 -0.7256
vn 0.3875 0.5684 -0.7257
vn -0.8660 -0.5000 0.0119
vn -0.0000 -0.9999 0.0119
vt 0.882184 0.825266
vt 0.943487 0.825266
vt 0.943487 0.780311
vt 0.882184 0.780311
vt 1.000000 0.945494
vt 0.678162 0.946792
vt 0.678162 0.886247
vt 1.000000 0.886247
vt 0.712474 0.815958
vt 0.773236 0.815958
vt 0.781169 0.825266
vt 0.704541 0.825266
vt 0.681902 0.780311
vt 0.666227 0.780311
vt 0.678162 0.860345
vt 1.000000 0.859047
vt 0.678162 0.912255
vt 1.000000 0.913553
vt 0.803808 0.780311
vt 0.778738 0.188896
vt 0.706971 0.188896
vt 0.701048 0.182200
vt 0.784662 0.182200
vt 0.882184 0.193478
vt 0.882184 0.209307
vt 0.943487 0.209307
vt 0.943487 0.193482
vt 0.943487 0.183352
vt 0.882184 0.183352
vt 0.819483 0.780311
vt 0.882184 0.533391
vt 0.943487 0.533391
vt 0.882184 0.481482
vt 0.943487 0.481482
vt 0.681902 0.209307
vt 0.685971 0.199030
vt 0.778739 0.188896
vt 0.799739 0.199030
vt 0.803808 0.209307
vt 0.685971 0.199030
vt 0.666227 0.209307
vt 0.672486 0.193482
vt 0.799739 0.199030
vt 0.813224 0.193482
vt 0.819483 0.209307
vt 0.704541 0.735356
vt 0.781169 0.735356
vt 0.819483 0.780311
vt 0.222824 0.476887
vt 0.183426 0.476887
vt 0.183426 0.500000
vt 0.222824 0.500000
vt 0.183426 0.523113
vt 0.222824 0.523113
vt 0.222824 0.513344
vt 0.183426 0.513344
vt 0.183426 0.486656
vt 0.222824 0.486656
vt 0.183426 0.523113
vt 0.183426 0.500000
vt 0.222824 0.500000
vt 0.242522 0.500000
vt 0.222824 0.476887
vt 0.183426 0.476887
vt 0.163728 0.500000
vt 0.183426 0.523113
vt 0.222824 0.523113
vt 0.222824 0.476887
vt 0.183426 0.486656
vt 0.183426 0.513344
vt 0.222824 0.513344
vt 0.701550 0.178890
vt 0.784160 0.178890
vt 0.882184 0.179583
vt 0.943487 0.179584
vt 0.943487 0.179584
vt 0.813222 0.193478
vt 0.784722 0.178161
vt 0.700988 0.178161
vt 0.672487 0.193478
vt 0.678162 0.841292
vt 1.000000 0.839043
vt 0.678162 0.998702
vt 1.000000 1.000000
vt 0.784662 0.182200
vt 0.701048 0.182200
vt 0.701550 0.178890
vt 0.784160 0.178890
vt 0.943487 0.179584
vt 0.882184 0.179583
vt 0.943487 0.179584
vt 0.882184 0.179583
vt 0.678162 0.931201
vt 1.000000 0.933450
s 1
usemtl door_handle_1
f 226/334/61 241/335/61 245/336/62 231/337/62
f 228/338/63 226/339/63 231/340/64 235/341/64
f 239/342/65 242/343/66 241/344/67 240/345/68
f 243/346/69 239/342/65 240/345/68 244/347/70
f 231/340/64 232/348/71 236/349/71 235/341/64
f 236/349/71 232/348/71 230/350/72 234/351/72
f 239/342/73 243/346/73 246/352/73 242/343/73
f 271/353/74 270/354/75 268/355/76 273/356/77
f 265/357/78 238/358/79 249/359/80 274/360/78
f 237/358/81 264/357/82 267/360/82 248/359/83
f 273/361/84 268/361/85 263/362/86 266/362/87
f 242/343/66 246/352/88 245/363/89 241/344/67
f 225/364/90 229/337/91 244/336/91 240/365/90
f 226/366/61 225/364/90 240/365/90 241/367/61
f 247/368/73 269/369/73 270/354/73 271/370/73 272/371/73 250/372/73
f 269/373/92 247/368/93 248/374/94 267/375/95
f 250/372/96 272/376/97 274/377/98 249/378/99
f 246/352/88 250/372/96 249/378/99 245/363/89
f 245/336/62 249/359/80 238/358/79 231/337/62
f 243/346/73 247/368/73 250/372/73 246/352/73
f 229/337/91 237/358/81 248/359/83 244/336/91
f 238/378/100 237/374/100 229/347/100 230/379/100 232/380/100 231/381/100
f 244/347/70 248/374/94 247/368/93 243/346/69
f 251/382/101 252/383/101 254/384/101 253/385/101
f 253/385/102 254/384/102 256/386/102 255/387/102
f 255/388/73 256/389/73 258/390/73 257/391/73
f 257/387/103 258/392/103 260/393/103 259/394/103
f 254/395/104 252/396/104 262/397/104 260/398/104 258/399/104 256/400/104
f 259/394/105 260/393/105 262/397/105 261/401/105
f 261/391/100 262/402/100 252/403/100 251/404/100
f 268/405/76 270/354/75 269/373/92 267/375/95
f 271/353/74 273/406/77 274/377/98 272/376/97
f 267/360/82 264/357/82 263/407/86 268/408/85
f 273/409/84 266/407/87 265/357/78 274/360/78
f 237/374/100 238/378/100 265/410/100 266/411/100 263/412/100 264/413/100
f 276/366/61 291/367/61 290/365/90 275/364/90
f 278/338/106 285/341/107 281/340/107 276/339/106
f 283/341/108 279/340/108 280/414/109 284/415/109
f 276/339/106 275/416/110 277/417/110 278/338/106
f 281/340/107 285/341/107 286/349/111 282/348/111
f 293/346/112 294/347/113 290/345/114 289/342/115
f 286/349/111 284/351/109 280/350/109 282/348/111
f 276/334/61 281/337/116 295/336/116 291/335/61
f 289/342/100 292/343/100 296/352/100 293/346/100
f 321/353/117 323/418/118 318/419/119 320/354/120
f 315/357/121 324/360/121 299/359/122 288/358/123
f 287/358/124 298/359/125 317/360/126 314/357/126
f 323/361/127 316/362/128 313/362/129 318/361/130
f 292/343/131 291/344/132 295/363/133 296/352/134
f 289/342/115 290/345/114 291/344/132 292/343/131
f 275/364/90 290/365/90 294/336/135 279/337/136
f 297/368/100 300/372/100 322/371/100 321/370/100 320/354/100 319/369/100
f 319/373/137 317/375/138 298/374/139 297/368/140
f 300/372/141 299/378/142 324/377/143 322/376/144
f 296/352/134 295/363/133 299/378/142 300/372/141
f 295/336/116 281/337/116 288/358/123 299/359/122
f 293/346/100 296/352/100 300/372/100 297/368/100
f 279/337/136 294/336/135 298/359/125 287/358/124
f 288/378/73 281/381/73 282/380/73 280/379/73 279/347/73 287/374/73
f 294/347/113 293/346/112 297/368/140 298/374/139
f 301/382/102 303/385/102 304/384/102 302/383/102
f 303/385/101 305/387/101 306/386/101 304/384/101
f 305/388/100 307/391/100 308/390/100 306/389/100
f 307/387/105 309/394/105 310/393/105 308/392/105
f 304/395/104 306/400/104 308/399/104 310/398/104 312/397/104 302/396/104
f 309/394/103 311/401/103 312/397/103 310/393/103
f 311/391/73 301/404/73 302/403/73 312/402/73
f 318/420/119 317/375/138 319/373/137 320/354/120
f 321/353/117 322/376/144 324/377/143 323/421/118
f 317/360/126 318/422/130 313/423/129 314/357/126
f 323/424/127 324/360/121 315/357/121 316/425/128
f 287/374/73 314/413/73 313/412/73 316/411/73 315/410/73 288/378/73
f 225/426/145 227/427/145 233/341/146 229/340/146
f 226/339/63 228/338/63 227/417/145 225/416/145
f 233/341/146 234/415/72 230/414/72 229/340/146
f 275/426/110 279/340/108 283/341/108 277/427/110
