# Blender 5.0.1
# www.blender.org
mtllib doorway_3_wide.mtl
o doorway_3_wide
v 2.000000 0.000000 0.060000
v 2.000000 3.000000 0.060000
v 2.000000 0.000000 -0.060000
v 2.000000 3.000000 -0.060000
v 2.030000 0.000000 0.030000
v 2.030000 3.000000 0.030000
v 2.030000 0.000000 -0.030000
v 2.030000 3.000000 -0.030000
v -2.000000 0.000000 -0.060000
v -2.000000 3.000000 -0.060000
v -2.000000 0.000000 0.060001
v -2.000000 3.000000 0.060000
v -2.030000 0.000000 -0.030000
v -2.030000 3.000000 -0.030000
v -2.030000 0.000000 0.030001
v -2.030000 3.000000 0.030000
v -2.000000 0.160000 0.070000
v -2.000000 0.000000 0.090000
v 2.000000 0.000000 0.090000
v 2.000000 0.160000 -0.060000
v 2.000000 0.160000 -0.070000
v 2.000000 0.110000 -0.090000
v 2.000000 0.000000 -0.090000
v -2.000000 0.110000 -0.090000
v -2.000000 0.000000 -0.090000
v 1.080000 0.000000 -0.060000
v 1.080000 0.110000 0.090000
v 1.080000 0.160000 0.070000
v 1.080000 0.000000 0.060000
v 1.080000 0.000000 0.090000
v 1.080000 0.000000 -0.090000
v 1.080000 0.110000 -0.090000
v 1.080000 0.160000 -0.070000
v 1.080000 0.160000 -0.060000
v 1.080000 0.160000 0.060000
v 1.080000 2.180000 0.060000
v 1.080000 2.180000 -0.060000
v -1.080000 2.180000 0.060000
v -1.080000 2.180000 -0.060000
v -1.080000 0.000000 -0.060000
v -1.080000 0.110000 0.090000
v -1.080000 0.160000 0.070000
v -1.080000 0.000000 0.060000
v -1.080000 0.000000 0.090000
v -1.080000 0.000000 -0.090000
v -1.080000 0.110000 -0.090000
v -1.080000 0.160000 -0.070000
v -1.080000 0.160000 -0.060000
v -1.080000 0.160000 0.060000
v 2.030000 0.160000 -0.030000
v 2.045000 0.000000 -0.045000
v 2.045000 0.110000 -0.045000
v 2.035000 0.160000 -0.035000
v -2.000000 0.160000 -0.060000
v -2.000000 0.160000 -0.070000
v -2.045000 0.000000 -0.045000
v -2.045000 0.110000 -0.045000
v -2.030000 0.160000 -0.030000
v -2.035000 0.160000 -0.035000
v -2.000000 0.160000 0.060000
v -2.000000 0.110000 0.090000
v -2.030000 0.160000 0.030001
v -2.045000 0.000000 0.045001
v -2.045000 0.110000 0.045000
v -2.035000 0.160000 0.035001
v 2.000000 0.160000 0.059999
v 2.000000 0.160000 0.070000
v 2.000000 0.110000 0.089999
v 2.045000 0.000000 0.044999
v 2.045000 0.110000 0.044999
v 2.030000 0.160000 0.029999
v 2.035000 0.160000 0.034999
v -1.079999 2.180000 -0.100000
v -1.079999 2.180000 0.100000
v 1.000000 2.099999 -0.080000
v 1.000000 2.099999 0.080000
v 1.080000 2.180000 -0.100000
v 1.080000 2.180000 0.100000
v -1.000000 2.100000 -0.080000
v -1.000000 2.099999 0.080000
v 1.000000 0.000000 -0.080000
v 1.000000 -0.000000 0.080000
v -1.000000 0.000000 -0.080000
v -1.000000 -0.000000 0.080000
v 1.080000 0.000000 -0.100000
v 1.080000 -0.000000 0.100000
v -1.080000 0.000000 -0.100000
v -1.080000 -0.000000 0.100000
v 1.040000 2.140000 -0.100000
v 1.020000 2.120000 -0.080000
v -1.040000 2.140000 -0.100000
v -1.020000 2.119999 -0.080000
v 1.040000 0.000000 -0.100000
v 1.020000 0.000000 -0.080000
v -1.040000 0.000000 -0.100000
v -1.020000 0.000000 -0.080000
v -1.020000 2.120000 0.080000
v -1.040000 2.140000 0.100000
v 1.040000 2.140000 0.100000
v 1.020000 2.119999 0.080000
v 1.040000 -0.000000 0.100000
v 1.020000 -0.000000 0.080000
v -1.020000 -0.000000 0.080000
v -1.040000 -0.000000 0.100000
vn -0.0000 -0.0000 -1.0000
vn 0.7071 -0.0000 -0.7071
vn 0.7071 -0.0000 0.7071
vn -0.7071 -0.0000 0.7071
vn -0.7071 -0.0000 -0.7071
vn -0.0000 -0.0000 1.0000
vn -0.0000 0.3714 0.9285
vn -0.0000 1.0000 -0.0000
vn -0.0000 0.3714 -0.9285
vn 1.0000 -0.0000 -0.0000
vn -1.0000 -0.0000 -0.0000
vn 0.6804 0.2722 -0.6804
vn -0.6804 0.2722 -0.6804
vn -0.6804 0.2722 0.6804
vn 0.6804 0.2722 0.6804
vn -0.0000 -1.0000 -0.0000
vn -0.0000 -0.7071 -0.7071
vn -0.0000 -0.7071 0.7071
vt 0.007452 1.000008
vt 0.234024 0.730885
vt 0.234024 0.000002
vt 0.007452 0.000002
vt 0.992548 0.000002
vt 0.992548 1.000008
vt 0.999936 1.000008
vt 0.999936 0.000002
vt 0.000064 1.000008
vt 0.000064 0.000002
vt 0.765976 0.730885
vt 0.765976 0.000002
vt 1.833333 -0.220000
vt 1.833333 -0.146667
vt 1.220000 -0.146667
vt 1.220000 -0.220000
vt 1.833333 -0.113333
vt 1.220000 -0.113333
vt 1.833333 0.540000
vt 1.220000 0.540000
vt 1.220000 0.546667
vt 1.833333 0.546667
vt -0.833333 -0.220000
vt -0.833333 -0.146667
vt -0.220000 -0.146667
vt -0.220000 -0.220000
vt -0.833333 -0.113333
vt -0.220000 -0.113333
vt -0.220000 -0.146667
vt -0.833333 0.460001
vt -0.220000 0.460000
vt -0.220000 0.453334
vt -0.833333 0.453334
vt -0.220000 -0.220000
vt 1.220000 -0.220000
vt 1.220000 -0.113333
vt 1.220000 0.460000
vt 1.833333 0.460000
vt 1.833333 0.453333
vt 1.220000 0.453334
vt -0.220000 -0.113333
vt -0.220000 0.540000
vt -0.833333 0.540000
vt -0.833333 0.546667
vt -0.220000 0.546667
vt 0.234024 0.730886
vt 0.234024 0.733613
vt 0.765976 0.733613
vt 0.765976 0.733613
vt 0.234024 0.733613
vt 0.765976 0.000002
vt 0.765976 0.730886
vt -0.113333 0.546667
vt -0.146667 0.560000
vt -0.220000 0.560000
vt -0.220000 0.540001
vt -0.113333 0.540000
vt -0.220000 0.440000
vt -0.146667 0.440000
vt -0.113333 0.453334
vt -0.113333 0.460000
vt -0.220000 0.460000
vt -0.146667 0.440000
vt -0.220000 0.440000
vt -0.220000 0.460000
vt -0.113333 0.460000
vt -0.113333 0.453334
vt -0.113333 0.546667
vt -0.113333 0.540001
vt -0.220000 0.540001
vt -0.220000 0.560001
vt -0.146667 0.560001
vt 1.875267 -0.230000
vt 1.833267 -0.230000
vt 1.833267 -0.303333
vt 1.875267 -0.303333
vt -0.875332 -0.230000
vt -0.875333 -0.303333
vt -0.833332 -0.303333
vt -0.833332 -0.230000
vt 1.865839 -0.196667
vt 1.833172 -0.196667
vt 1.865838 -0.196667
vt 1.875266 -0.230000
vt 1.833266 -0.230000
vt 1.833172 -0.196667
vt -0.833333 -0.290000
vt -0.833333 -0.296667
vt -0.856667 -0.273333
vt -0.853333 -0.270000
vt -0.875333 -0.230000
vt -0.833333 -0.230000
vt -0.833333 -0.303333
vt -0.875334 -0.303333
vt 1.875266 -0.303333
vt 1.833266 -0.303333
vt -0.865895 -0.196667
vt -0.833228 -0.196667
vt -0.833333 -0.210000
vt -0.853333 -0.230000
vt -0.856667 -0.226666
vt -0.833333 -0.203333
vt -0.865894 -0.196667
vt -0.833227 -0.196667
vt 1.833333 -0.210001
vt 1.833333 -0.203334
vt 1.856667 -0.226667
vt 1.853333 -0.230000
vt 1.833333 -0.290000
vt 1.853333 -0.270000
vt 1.856667 -0.273334
vt 1.833333 -0.296667
vt 1.220097 0.566406
vt 1.220097 0.433594
vt -0.220097 0.433594
vt -0.220097 0.566406
vt 1.234375 0.433594
vt -0.218750 0.433594
vt -0.218750 0.566406
vt 1.234375 0.566406
vt -0.241485 1.173827
vt 1.189940 1.173828
vt 1.189714 1.201171
vt -0.268627 1.201172
vt 1.179688 0.445312
vt 1.179688 0.554687
vt -0.218750 0.554688
vt -0.218750 0.445312
vt 1.234284 0.496094
vt 1.233758 0.511719
vt -0.139292 0.511717
vt -0.151484 0.496094
vt 1.192620 1.207031
vt -0.192557 1.207031
vt -0.219697 1.234375
vt 1.219635 1.234375
vt 1.179688 0.554688
vt 1.180274 1.191406
vt -0.180498 1.191406
vt -0.165559 1.179688
vt 1.165786 1.179688
vt 1.234283 0.496096
vt -0.151490 0.496091
vt -0.139298 0.511716
vt 1.233753 0.511719
vt 1.199128 1.113280
vt 1.198598 1.101562
vt -0.174448 1.101561
vt -0.186639 1.113279
vt -0.164062 0.445313
vt 1.164062 0.445312
vt 1.164062 0.554688
vt -0.164062 0.554687
vt 1.189715 1.201173
vt 1.189938 1.173827
vt -0.241486 1.173826
vt -0.268629 1.201171
vt 1.187047 0.978517
vt 1.187643 0.966797
vt -0.243850 0.966797
vt -0.258911 0.978517
vt 1.224872 0.505857
vt -0.233471 0.505848
vt -0.206328 0.533191
vt 1.225095 0.533201
vt 1.215961 0.721408
vt -0.195752 0.722657
vt -0.183639 0.734375
vt 1.215529 0.733846
vt 1.165786 1.179688
vt -0.165559 1.179688
vt -0.180498 1.191406
vt 1.180274 1.191406
vt 1.180764 0.445312
vt -0.180919 0.445312
vt -0.193117 0.433594
vt 1.193270 0.433594
vt 1.219635 1.234375
vt -0.219697 1.234375
vt -0.192557 1.207031
vt 1.193270 0.566406
vt -0.193117 0.566406
vt -0.180919 0.554687
vt 1.180764 0.554688
vt 1.224870 0.505856
vt 1.225094 0.533200
vt -0.206330 0.533191
vt -0.233472 0.505849
vt 1.222239 0.729775
vt 1.222813 0.740771
vt -0.208694 0.740234
vt -0.223755 0.728517
vt -0.174451 1.101561
vt 1.198598 1.101562
vt 1.199129 1.113281
vt -0.186644 1.113281
vt -0.243850 0.966797
vt 1.187643 0.966797
vt 1.187046 0.978516
vt -0.258911 0.978516
s 0
usemtl wall_3
f 2/6/3 1/5/3 5/8/3 6/7/3
f 11/4/4 12/1/4 16/9/4 15/10/4
f 2/6/6 36/11/6 29/12/6 1/5/6
f 11/4/6 43/3/6 38/46/6 12/1/6
f 12/1/6 38/47/6 36/48/6 2/6/6
usemtl wall_3_rear
f 10/1/1 39/2/1 40/3/1 9/4/1
f 3/5/2 4/6/2 8/7/2 7/8/2
f 10/1/5 9/4/5 13/10/5 14/9/5
f 4/6/1 37/49/1 39/50/1 10/1/1
f 3/5/1 26/51/1 37/52/1 4/6/1
usemtl door_frame_wood_1
f 19/13/6 68/14/6 27/15/6 30/16/6
f 67/17/7 28/18/7 27/15/7 68/14/7
f 66/19/8 35/20/8 28/21/8 67/22/8
f 25/23/1 24/24/1 46/25/1 45/26/1
f 55/27/9 47/28/9 46/29/9 24/24/9
f 54/30/8 48/31/8 47/32/8 55/33/8
f 41/29/6 61/24/6 18/23/6 44/34/6
f 32/15/1 22/14/1 23/13/1 31/35/1
f 33/36/9 21/17/9 22/14/9 32/15/9
f 34/37/8 20/38/8 21/39/8 33/40/8
f 42/41/7 17/27/7 61/24/7 41/25/7
f 49/42/8 60/43/8 17/44/8 42/45/8
f 42/53/10 41/54/10 44/55/10 43/56/10 49/57/10
f 45/58/10 46/59/10 47/60/10 48/61/10 40/62/10
f 32/63/11 31/64/11 26/65/11 34/66/11 33/67/11
f 28/68/11 35/69/11 29/70/11 30/71/11 27/72/11
f 22/73/2 52/74/2 51/75/2 23/76/2
f 68/77/3 19/78/3 69/79/3 70/80/3
f 21/81/12 53/82/12 52/74/12 22/73/12
f 55/83/13 24/84/13 57/85/13 59/86/13
f 54/87/8 55/88/8 59/89/8 58/90/8
f 61/91/4 64/92/4 63/93/4 18/94/4
f 24/84/5 25/95/5 56/96/5 57/85/5
f 17/97/14 65/98/14 64/92/14 61/91/14
f 60/99/8 62/100/8 65/101/8 17/102/8
f 67/103/15 68/77/15 70/80/15 72/104/15
f 66/105/8 67/106/8 72/107/8 71/108/8
f 20/109/8 50/110/8 53/111/8 21/112/8
f 78/113/8 77/114/8 73/115/8 74/116/8
f 73/117/11 87/118/11 88/119/11 74/120/11
f 99/121/6 101/122/6 86/123/6 78/124/6
f 86/119/10 85/118/10 77/117/10 78/120/10
f 79/125/10 80/126/10 84/127/10 83/128/10
f 103/129/6 84/130/6 80/131/6 97/132/6
f 89/133/1 91/134/1 73/135/1 77/136/1
f 76/137/11 75/125/11 81/128/11 82/127/11
f 100/138/6 97/139/6 80/140/6 76/141/6
f 96/142/1 92/143/1 79/144/1 83/145/1
f 94/146/1 81/147/1 75/148/1 90/149/1
f 79/150/16 75/151/16 76/152/16 80/153/16
f 85/154/1 93/155/1 89/156/1 77/157/1
f 93/158/5 94/159/5 90/160/5 89/161/5
f 87/162/1 73/163/1 91/164/1 95/165/1
f 95/166/2 91/167/2 92/168/2 96/169/2
f 75/170/1 79/171/1 92/172/1 90/173/1
f 90/174/17 92/175/17 91/176/17 89/177/17
f 78/178/6 74/179/6 98/180/6 99/133/6
f 99/181/18 98/182/18 97/183/18 100/184/18
f 88/185/6 104/186/6 98/187/6 74/188/6
f 104/189/3 103/190/3 97/191/3 98/192/3
f 76/193/6 82/194/6 102/195/6 100/196/6
f 100/197/4 102/198/4 101/199/4 99/200/4
l 49 48
o double_door_3_piece_1
v 1.000000 -0.000000 0.060000
v 1.000000 2.100000 0.060001
v 1.000000 0.000000 0.000001
v 1.000000 2.100000 0.000001
v 0.000000 -0.000000 0.060000
v 0.000000 2.100000 0.060001
v 0.000000 0.000000 0.000001
v 0.000000 2.100000 0.000001
v 0.863072 1.242763 0.080000
v 0.863072 1.847000 0.080000
v 0.893072 1.212763 0.060000
v 0.893072 1.877000 0.060000
v 0.730001 1.242763 0.080000
v 0.730001 1.847000 0.080000
v 0.700001 1.212763 0.060000
v 0.700001 1.877000 0.060000
v 0.893072 1.212763 0.080000
v 0.893072 1.877000 0.080000
v 0.700001 1.877000 0.080000
v 0.700001 1.212763 0.080000
v 0.842156 1.263679 0.071667
v 0.842156 1.826084 0.071667
v 0.750917 1.826084 0.071667
v 0.750917 1.263679 0.071667
v 0.863072 1.242763 0.071667
v 0.863072 1.847000 0.071667
v 0.730001 1.847000 0.071667
v 0.730001 1.242763 0.071667
v 0.842156 1.263679 0.066667
v 0.842156 1.826084 0.066667
v 0.750917 1.826084 0.066667
v 0.750917 1.263679 0.066667
v 0.863072 1.242763 -0.020000
v 0.863072 1.847000 -0.020000
v 0.893072 1.212763 -0.000000
v 0.893072 1.877000 -0.000000
v 0.730001 1.242763 -0.020000
v 0.730001 1.847000 -0.020000
v 0.700001 1.212763 -0.000000
v 0.700001 1.877000 -0.000000
v 0.893072 1.212763 -0.020000
v 0.893072 1.877000 -0.020000
v 0.700001 1.877000 -0.020000
v 0.700001 1.212763 -0.020000
v 0.842156 1.263679 -0.011667
v 0.842156 1.826084 -0.011667
v 0.750917 1.826084 -0.011667
v 0.750917 1.263679 -0.011667
v 0.863072 1.242763 -0.011667
v 0.863072 1.847000 -0.011667
v 0.730001 1.847000 -0.011667
v 0.730001 1.242763 -0.011667
v 0.842156 1.263679 -0.006667
v 0.842156 1.826084 -0.006667
v 0.750917 1.826084 -0.006667
v 0.750917 1.263679 -0.006667
v 0.971635 1.095118 0.059500
v 0.971635 0.904882 0.059500
v 0.963577 0.912940 0.067000
v 0.908366 0.904882 0.059500
v 0.916425 0.912940 0.067000
v 0.963577 1.087060 0.067000
v 0.908366 1.095118 0.059500
v 0.916425 1.087060 0.067000
v 0.908369 1.095118 0.000500
v 0.908369 0.904882 0.000500
v 0.916428 0.912940 -0.007000
v 0.971638 0.904882 0.000500
v 0.963580 0.912940 -0.007000
v 0.916428 1.087060 -0.007000
v 0.971638 1.095118 0.000500
v 0.963580 1.087060 -0.007000
v 0.934525 1.077852 -0.004550
v 0.934525 1.077852 -0.009993
v 0.937961 1.082074 -0.004550
v 0.937961 1.082074 -0.009993
v 0.943335 1.081208 -0.004550
v 0.943335 1.081208 -0.009993
v 0.945273 1.076122 -0.004550
v 0.945273 1.076122 -0.009993
v 0.941836 1.071900 -0.004550
v 0.941836 1.071900 -0.009993
v 0.936462 1.072766 -0.004550
v 0.936462 1.072766 -0.009993
v 0.935603 0.924332 -0.004550
v 0.935603 0.924332 -0.009993
v 0.940646 0.926378 -0.004550
v 0.940646 0.926378 -0.009993
v 0.944941 0.923034 -0.004550
v 0.944941 0.923034 -0.009993
v 0.944192 0.917642 -0.004550
v 0.944192 0.917642 -0.009993
v 0.939148 0.915596 -0.004550
v 0.939148 0.915596 -0.009993
v 0.934853 0.918940 -0.004550
v 0.934853 0.918940 -0.009993
v 0.941509 1.082243 0.064547
v 0.941509 1.082243 0.069990
v 0.936249 1.080841 0.064547
v 0.936249 1.080841 0.069990
v 0.934834 1.075585 0.064547
v 0.934834 1.075585 0.069990
v 0.938678 1.071731 0.064547
v 0.938678 1.071731 0.069990
v 0.943937 1.073133 0.064547
v 0.943937 1.073133 0.069990
v 0.945353 1.078389 0.064547
v 0.945353 1.078389 0.069990
v 0.945210 0.919127 0.064548
v 0.945210 0.919127 0.069991
v 0.944263 0.924487 0.064548
v 0.944263 0.924487 0.069991
v 0.939148 0.926348 0.064548
v 0.939148 0.926348 0.069991
v 0.934979 0.922848 0.064548
v 0.934979 0.922848 0.069991
v 0.935926 0.917487 0.064548
v 0.935926 0.917487 0.069991
v 0.941042 0.915627 0.064548
v 0.941042 0.915627 0.069991
vn 1.0000 -0.0000 -0.0000
vn -1.0000 -0.0000 -0.0000
vn -0.0000 -1.0000 -0.0000
vn -0.0000 1.0000 -0.0000
vn -0.0000 -0.0000 1.0000
vn -0.0000 -0.0000 -1.0000
vn 0.7071 -0.7071 -0.0000
vn 0.7071 0.7071 -0.0000
vn -0.7071 -0.7071 -0.0000
vn -0.7071 0.7071 -0.0000
vn 0.0415 0.6581 0.7517
vn -0.0415 0.7026 0.7103
vn 0.0416 0.7027 0.7103
vn -0.0415 0.6581 0.7517
vn -0.6581 0.0416 0.7518
vn -0.7026 -0.0415 0.7103
vn -0.7027 0.0416 0.7103
vn -0.6581 -0.0415 0.7517
vn 0.7026 -0.0415 0.7103
vn 0.6581 0.0416 0.7518
vn 0.6581 -0.0415 0.7517
vn 0.7027 0.0416 0.7103
vn -0.0415 -0.6581 0.7517
vn 0.0415 -0.7026 0.7103
vn -0.0416 -0.7027 0.7103
vn 0.0415 -0.6581 0.7517
vn -0.0415 0.6581 -0.7517
vn 0.0416 0.7027 -0.7103
vn -0.0415 0.7026 -0.7103
vn 0.0415 0.6581 -0.7517
vn 0.6581 0.0416 -0.7518
vn 0.7027 -0.0415 -0.7103
vn 0.7027 0.0416 -0.7103
vn 0.6581 -0.0415 -0.7517
vn -0.7027 -0.0415 -0.7103
vn -0.6581 0.0416 -0.7518
vn -0.6581 -0.0415 -0.7517
vn -0.7027 0.0416 -0.7103
vn 0.0415 -0.6581 -0.7517
vn -0.0415 -0.7026 -0.7103
vn 0.0416 -0.7027 -0.7103
vn -0.0415 -0.6581 -0.7517
vn -0.7755 0.6313 -0.0000
vn 0.1590 0.9873 -0.0000
vn 0.9345 0.3560 -0.0000
vn 0.7755 -0.6313 -0.0000
vn -0.1590 -0.9873 -0.0000
vn -0.9345 -0.3560 -0.0000
vn -0.3760 0.9266 -0.0000
vn 0.6145 0.7890 -0.0000
vn 0.9905 -0.1377 -0.0000
vn 0.3760 -0.9266 -0.0000
vn -0.6145 -0.7890 -0.0000
vn -0.9905 0.1377 -0.0000
vn -0.2576 0.9663 -0.0000
vn -0.9656 0.2601 -0.0000
vn -0.7080 -0.7062 -0.0000
vn 0.2576 -0.9663 -0.0000
vn 0.9656 -0.2601 -0.0000
vn 0.7080 0.7062 -0.0000
vn 0.9848 0.1739 -0.0000
vn 0.3417 0.9398 -0.0000
vn -0.6430 0.7658 -0.0000
vn -0.9848 -0.1739 -0.0000
vn -0.3417 -0.9398 -0.0000
vn 0.6430 -0.7659 -0.0000
vt 0.506131 0.000000
vt 0.536131 0.000000
vt 0.536131 1.004126
vt 0.506131 1.004126
vt 0.990300 0.729554
vt 0.960300 0.729554
vt 0.960300 0.251399
vt 0.990300 0.251399
vt 0.998737 0.000000
vt 0.498737 0.000000
vt 0.498737 1.004126
vt 0.998737 1.004126
vt 0.638331 0.579733
vt 0.648484 0.579733
vt 0.648484 0.897694
vt 0.638331 0.897694
vt 0.562189 0.587014
vt 0.562189 0.591869
vt 0.633255 0.591869
vt 0.633255 0.587014
vt 0.552037 0.897808
vt 0.552037 0.888099
vt 0.648484 0.888099
vt 0.648484 0.897808
vt 0.567023 0.594094
vt 0.552037 0.579733
vt 0.552037 0.897694
vt 0.567023 0.883333
vt 0.633497 0.883334
vt 0.633497 0.594094
vt 0.578012 0.594600
vt 0.578012 0.597027
vt 0.623698 0.597027
vt 0.623698 0.594600
vt 0.640869 0.897694
vt 0.645945 0.897694
vt 0.645945 0.579733
vt 0.640869 0.579733
vt 0.577637 0.604294
vt 0.567265 0.594296
vt 0.567265 0.883131
vt 0.577637 0.873133
vt 0.622883 0.873133
vt 0.633255 0.883131
vt 0.633255 0.594296
vt 0.622883 0.604294
vt 0.625641 0.875849
vt 0.628179 0.875849
vt 0.628179 0.604005
vt 0.625641 0.604005
vt 0.070488 0.952198
vt 0.013560 1.000000
vt 0.486440 1.000000
vt 0.429512 0.952198
vt 0.070488 0.047802
vt 0.429512 0.047802
vt 0.500000 0.990814
vt 0.500000 0.009186
vt 0.000000 0.990814
vt 0.000000 0.009186
vt 0.486440 0.000000
vt 0.013560 0.000000
vt 0.777132 0.324472
vt 0.808793 0.324472
vt 0.808793 0.296817
vt 0.777132 0.296817
vt 0.762469 0.324472
vt 0.722164 0.324472
vt 0.722164 0.296817
vt 0.762468 0.296817
vt 0.802303 0.324472
vt 0.764153 0.324472
vt 0.764153 0.296817
vt 0.802303 0.296817
vt 0.732494 0.324472
vt 0.732494 0.296817
vt 0.762468 0.922478
vt 0.722164 0.918082
vt 0.707631 0.892238
vt 0.733403 0.870791
vt 0.773708 0.875187
vt 0.788241 0.901030
vt 0.733403 0.324472
vt 0.773708 0.324472
vt 0.773708 0.296817
vt 0.733403 0.296817
vt 0.738983 0.324472
vt 0.738983 0.296817
vt 0.780154 0.324470
vt 0.742327 0.324470
vt 0.742327 0.296815
vt 0.780154 0.296815
vt 0.710118 0.324470
vt 0.710118 0.296815
vt 0.740993 0.324470
vt 0.700558 0.324470
vt 0.700558 0.296815
vt 0.740993 0.296815
vt 0.715738 0.324470
vt 0.753566 0.324470
vt 0.753566 0.296815
vt 0.715738 0.296815
vt 0.742327 0.131445
vt 0.710118 0.114452
vt 0.715738 0.087061
vt 0.753566 0.076662
vt 0.785774 0.093655
vt 0.780154 0.121047
vt 0.785774 0.324470
vt 0.785774 0.296815
vt 0.710293 0.324470
vt 0.750728 0.324470
vt 0.750728 0.296815
vt 0.710293 0.296815
vt 0.735859 0.675528
vt 0.775305 0.675528
vt 0.775305 0.703183
vt 0.735859 0.703183
vt 0.799548 0.675528
vt 0.760128 0.675528
vt 0.760128 0.703183
vt 0.799548 0.703183
vt 0.731224 0.675528
vt 0.731224 0.703183
vt 0.757093 0.675528
vt 0.717647 0.675528
vt 0.717646 0.703183
vt 0.757093 0.703183
vt 0.775305 0.916215
vt 0.785922 0.889511
vt 0.757093 0.869931
vt 0.717646 0.877054
vt 0.707029 0.903758
vt 0.735859 0.923338
vt 0.741739 0.675528
vt 0.781159 0.675528
vt 0.781159 0.703183
vt 0.741739 0.703183
vt 0.810063 0.675528
vt 0.810063 0.703183
vt 0.711695 0.675530
vt 0.751897 0.675530
vt 0.751897 0.703184
vt 0.711695 0.703185
vt 0.715199 0.675530
vt 0.753566 0.675530
vt 0.753566 0.703185
vt 0.715199 0.703184
vt 0.784831 0.675530
vt 0.784831 0.703185
vt 0.739598 0.675530
vt 0.699396 0.675530
vt 0.699396 0.703185
vt 0.739598 0.703185
vt 0.715199 0.121839
vt 0.753566 0.131290
vt 0.784831 0.113507
vt 0.777730 0.086274
vt 0.739364 0.076823
vt 0.708099 0.094605
vt 0.777730 0.675530
vt 0.739364 0.675530
vt 0.739364 0.703185
vt 0.777730 0.703185
vt 0.708099 0.675530
vt 0.708099 0.703185
s 1
usemtl door_3_double
f 105/201/19 107/202/19 108/203/19 106/204/19
f 111/202/20 109/201/20 110/204/20 112/203/20
f 107/205/21 105/206/21 109/207/21 111/208/21
f 112/208/22 110/207/22 106/206/22 108/205/22
f 109/209/23 105/210/23 106/211/23 110/212/23
f 111/209/24 112/212/24 108/211/24 107/210/24
f 121/213/19 115/214/19 116/215/19 122/216/19
f 119/214/20 124/213/20 123/216/20 120/215/20
f 113/217/22 129/218/22 132/219/22 117/220/22
f 115/221/21 121/222/21 124/223/21 119/224/21
f 120/224/22 123/223/22 122/222/22 116/221/22
f 113/225/23 121/226/23 122/227/23 114/228/23
f 118/229/23 123/215/23 124/214/23 117/230/23
f 117/230/23 124/214/23 121/226/23 113/225/23
f 114/228/23 122/227/23 123/215/23 118/229/23
f 125/231/22 133/232/22 136/233/22 128/234/22
f 114/235/20 130/236/20 129/237/20 113/238/20
f 118/220/21 131/219/21 130/218/21 114/217/21
f 117/238/19 132/237/19 131/236/19 118/235/19
f 125/239/23 129/240/23 130/241/23 126/242/23
f 127/243/23 131/244/23 132/245/23 128/246/23
f 128/246/23 132/245/23 129/240/23 125/239/23
f 126/242/23 130/241/23 131/244/23 127/243/23
f 136/246/23 133/239/23 134/242/23 135/243/23
f 126/247/20 134/248/20 133/249/20 125/250/20
f 127/234/21 135/233/21 134/232/21 126/231/21
f 128/250/19 136/249/19 135/248/19 127/247/19
f 145/213/25 146/216/26 140/215/26 139/214/25
f 143/214/27 144/215/28 147/216/28 148/213/27
f 137/217/28 141/220/26 156/219/26 153/218/28
f 139/221/25 143/224/27 148/223/27 145/222/25
f 144/224/28 140/221/26 146/222/26 147/223/28
f 137/225/24 138/228/24 146/227/24 145/226/24
f 142/229/24 141/230/24 148/214/24 147/215/24
f 141/230/24 137/225/24 145/226/24 148/214/24
f 138/228/24 142/229/24 147/215/24 146/227/24
f 149/231/28 152/234/26 160/233/26 157/232/28
f 138/235/27 137/238/28 153/237/28 154/236/27
f 142/220/25 138/217/27 154/218/27 155/219/25
f 141/238/26 142/235/25 155/236/25 156/237/26
f 149/239/24 150/242/24 154/241/24 153/240/24
f 151/243/24 152/246/24 156/245/24 155/244/24
f 152/246/24 149/239/24 153/240/24 156/245/24
f 150/242/24 151/243/24 155/244/24 154/241/24
f 160/246/24 159/243/24 158/242/24 157/239/24
f 150/247/27 149/250/28 157/249/28 158/248/27
f 151/234/25 150/231/27 158/232/27 159/233/25
f 152/250/26 151/247/25 159/248/25 160/249/26
usemtl door_handle_1
f 166/251/29 161/252/30 167/253/31 168/254/32
f 163/255/23 166/251/23 168/254/23 165/256/23
f 168/254/33 167/257/34 164/258/35 165/256/36
f 161/259/37 166/251/38 163/255/39 162/260/40
f 165/256/41 164/261/42 162/262/43 163/255/44
f 174/251/45 169/252/46 175/253/47 176/254/48
f 171/255/24 174/251/24 176/254/24 173/256/24
f 176/254/49 175/257/50 172/258/51 173/256/52
f 169/259/53 174/251/54 171/255/55 170/260/56
f 173/256/57 172/261/58 170/262/59 171/255/60
f 177/263/61 179/264/61 180/265/61 178/266/61
f 179/267/62 181/268/62 182/269/62 180/270/62
f 181/271/63 183/272/63 184/273/63 182/274/63
f 183/272/64 185/275/64 186/276/64 184/273/64
f 180/277/24 182/278/24 184/279/24 186/280/24 188/281/24 178/282/24
f 185/283/65 187/284/65 188/285/65 186/286/65
f 187/287/66 177/263/66 178/266/66 188/288/66
f 189/289/67 191/290/67 192/291/67 190/292/67
f 191/290/68 193/293/68 194/294/68 192/291/68
f 193/295/69 195/296/69 196/297/69 194/298/69
f 195/299/70 197/300/70 198/301/70 196/302/70
f 192/303/24 194/304/24 196/305/24 198/306/24 200/307/24 190/308/24
f 197/300/71 199/309/71 200/310/71 198/301/71
f 199/311/72 189/312/72 190/313/72 200/314/72
f 201/315/73 203/316/73 204/317/73 202/318/73
f 203/319/74 205/320/74 206/321/74 204/322/74
f 205/320/75 207/323/75 208/324/75 206/321/75
f 207/325/76 209/326/76 210/327/76 208/328/76
f 204/329/23 206/330/23 208/331/23 210/332/23 212/333/23 202/334/23
f 209/335/77 211/336/77 212/337/77 210/338/77
f 211/336/78 201/339/78 202/340/78 212/337/78
f 213/341/79 215/342/79 216/343/79 214/344/79
f 215/345/80 217/346/80 218/347/80 216/348/80
f 217/346/81 219/349/81 220/350/81 218/347/81
f 219/351/82 221/352/82 222/353/82 220/354/82
f 216/355/23 218/356/23 220/357/23 222/358/23 224/359/23 214/360/23
f 221/361/83 223/362/83 224/363/83 222/364/83
f 223/362/84 213/365/84 214/366/84 224/363/84
o double_door_3_piece_1_handle
v 0.008660 -0.005000 0.032000
v 0.008660 0.005000 0.032000
v 0.009093 -0.005250 -0.010000
v 0.009093 0.005250 -0.010000
v 0.000000 -0.010000 0.032000
v -0.008660 -0.005000 0.032000
v 0.000000 0.010000 0.032000
v -0.008660 0.005000 0.032000
v 0.000000 -0.010500 -0.010000
v -0.009093 -0.005250 -0.010000
v 0.000000 0.010500 -0.010000
v -0.009093 0.005250 -0.010000
v -0.110000 -0.010000 0.032000
v -0.110000 0.010000 0.032000
v 0.006867 -0.003965 0.042000
v 0.008660 -0.005000 0.040000
v 0.008660 0.005000 0.040000
v 0.006867 0.003965 0.042000
v 0.000000 -0.007954 0.042000
v 0.000000 -0.010000 0.040000
v 0.000000 0.010000 0.040000
v 0.000000 0.007954 0.042000
v -0.110000 -0.007954 0.042000
v -0.110000 -0.010000 0.040000
v -0.110000 0.010000 0.040000
v -0.110000 0.007954 0.042000
v 0.008541 0.002709 -0.003815
v 0.013984 0.002709 -0.003815
v 0.008541 0.005430 0.000899
v 0.013984 0.005430 0.000899
v 0.008541 0.002709 0.005613
v 0.013984 0.002709 0.005613
v 0.008541 -0.002735 0.005613
v 0.013984 -0.002735 0.005613
v 0.008541 -0.005456 0.000899
v 0.013984 -0.005456 0.000899
v 0.008541 -0.002735 -0.003815
v 0.013984 -0.002735 -0.003815
v -0.116000 -0.005464 0.032000
v -0.113049 -0.009183 0.032000
v -0.113049 0.009183 0.032000
v -0.116000 0.005464 0.032000
v -0.113049 -0.009183 0.040000
v -0.116000 -0.005456 0.040000
v -0.111980 -0.007423 0.042000
v -0.113932 -0.004683 0.042000
v -0.113932 0.004683 0.042000
v -0.111980 0.007423 0.042000
v -0.116000 0.005456 0.040000
v -0.113049 0.009183 0.040000
v 0.008660 -0.005000 -0.126000
v 0.008660 0.005000 -0.126000
v 0.009093 -0.005250 -0.084000
v 0.009093 0.005250 -0.084000
v 0.000000 -0.010000 -0.126000
v -0.008660 -0.005000 -0.126000
v 0.000000 0.010000 -0.126000
v -0.008660 0.005000 -0.126000
v 0.000000 -0.010500 -0.084000
v -0.009093 -0.005250 -0.084000
v 0.000000 0.010500 -0.084000
v -0.009093 0.005250 -0.084000
v -0.110000 -0.010000 -0.126000
v -0.110000 0.010000 -0.126000
v 0.006867 -0.003965 -0.136000
v 0.008660 -0.005000 -0.134000
v 0.008660 0.005000 -0.134000
v 0.006867 0.003965 -0.136000
v 0.000000 -0.007954 -0.136000
v 0.000000 -0.010000 -0.134000
v 0.000000 0.010000 -0.134000
v 0.000000 0.007954 -0.136000
v -0.110000 -0.007954 -0.136000
v -0.110000 -0.010000 -0.134000
v -0.110000 0.010000 -0.134000
v -0.110000 0.007954 -0.136000
v 0.008541 0.002709 -0.090185
v 0.013984 0.002709 -0.090185
v 0.008541 0.005430 -0.094899
v 0.013984 0.005430 -0.094899
v 0.008541 0.002709 -0.099613
v 0.013984 0.002709 -0.099613
v 0.008541 -0.002735 -0.099613
v 0.013984 -0.002735 -0.099613
v 0.008541 -0.005456 -0.094899
v 0.013984 -0.005456 -0.094899
v 0.008541 -0.002735 -0.090185
v 0.013984 -0.002735 -0.090185
v -0.116000 -0.005464 -0.126000
v -0.113049 -0.009183 -0.126000
v -0.113049 0.009183 -0.126000
v -0.116000 0.005464 -0.126000
v -0.113048 -0.009183 -0.134000
v -0.116000 -0.005456 -0.134000
v -0.111980 -0.007423 -0.136000
v -0.113932 -0.004683 -0.136000
v -0.113932 0.004683 -0.136000
v -0.111980 0.007423 -0.136000
v -0.116000 0.005456 -0.134000
v -0.113048 0.009183 -0.134000
vn 0.8660 0.5000 -0.0000
vn 0.3827 0.9239 -0.0000
vn 0.8660 0.5000 0.0119
vn -0.0000 0.9999 0.0119
vn 0.6017 -0.3472 0.7193
vn 0.6015 -0.3476 0.7193
vn 0.6015 0.3475 0.7193
vn 0.6017 0.3472 0.7193
vn 0.3134 -0.6335 0.7075
vn 0.2381 -0.6579 0.7145
vn -0.8660 0.5000 0.0119
vn -0.8660 -0.5000 0.0119
vn -0.0000 -0.0000 1.0000
vn -0.6459 0.2141 0.7328
vn -0.6437 0.2210 0.7327
vn -0.6437 -0.2210 0.7327
vn -0.6459 -0.2141 0.7328
vn -0.5490 0.8358 0.0002
vn -0.0815 0.9967 -0.0000
vn -0.1304 0.9902 0.0493
vn -0.1304 -0.9902 0.0493
vn -0.1793 -0.9838 -0.0000
vn -0.5490 -0.8358 0.0002
vn -0.9444 0.3287 0.0002
vn -0.9443 0.3291 0.0002
vn -0.9443 -0.3291 0.0002
vn -0.9444 -0.3287 0.0002
vn 0.2381 0.6579 0.7145
vn 0.3134 0.6334 0.7075
vn 0.8660 -0.5000 -0.0000
vn 0.3827 -0.9239 -0.0000
vn -0.3875 -0.5684 0.7257
vn -0.3794 -0.5741 0.7256
vn -0.0835 -0.6727 0.7352
vn -0.1330 -0.6880 0.7134
vn -0.0646 0.6998 0.7114
vn -0.0933 0.7211 0.6865
vn -0.3794 0.5741 0.7256
vn -0.3875 0.5684 0.7257
vn -0.0000 -0.0000 -1.0000
vn -0.0000 0.8660 -0.5000
vn -0.0000 0.8660 0.5000
vn -0.0000 -0.8660 0.5000
vn 1.0000 -0.0000 -0.0000
vn -0.0000 -0.8660 -0.5000
vn 0.8660 0.5000 -0.0119
vn -0.0000 0.9999 -0.0119
vn -0.0000 -0.9999 -0.0119
vn -0.8660 -0.5000 -0.0119
vn 0.8660 -0.5000 -0.0119
vn -0.8660 0.5000 -0.0119
vn 0.3391 -0.6550 -0.6753
vn 0.6042 -0.3487 -0.7165
vn 0.6040 -0.3491 -0.7165
vn 0.2560 -0.6737 -0.6932
vn 0.4127 0.9109 -0.0000
vn -0.6459 0.2141 -0.7328
vn -0.6459 -0.2141 -0.7328
vn -0.6437 -0.2210 -0.7327
vn -0.6437 0.2210 -0.7327
vn -0.5490 0.8358 -0.0002
vn -0.1304 0.9902 -0.0493
vn -0.1793 0.9838 -0.0000
vn -0.1304 -0.9902 -0.0493
vn -0.5490 -0.8358 -0.0002
vn -0.0815 -0.9967 -0.0000
vn -0.9444 0.3287 -0.0002
vn -0.9444 -0.3287 -0.0002
vn -0.9443 -0.3291 -0.0002
vn -0.9443 0.3291 -0.0002
vn 0.6042 0.3487 -0.7165
vn 0.3391 0.6550 -0.6753
vn 0.2560 0.6737 -0.6932
vn 0.6040 0.3491 -0.7165
vn 0.4127 -0.9109 -0.0001
vn 0.4127 -0.9109 -0.0000
vn -0.3875 -0.5684 -0.7257
vn -0.0616 -0.6977 -0.7137
vn -0.0835 -0.6727 -0.7352
vn -0.3794 -0.5741 -0.7256
vn -0.1306 0.6908 -0.7111
vn -0.3875 0.5684 -0.7257
vn -0.3794 0.5741 -0.7256
vn -0.0866 0.7220 -0.6865
vn 0.8660 -0.5000 0.0119
vn -0.0000 -0.9999 0.0119
vt 0.882184 0.825266
vt 0.882184 0.780311
vt 0.943487 0.780311
vt 0.943487 0.825266
vt 1.000000 0.945494
vt 1.000000 0.886247
vt 0.678162 0.886247
vt 0.678162 0.946792
vt 0.712474 0.815958
vt 0.704541 0.825266
vt 0.781169 0.825266
vt 0.773236 0.815958
vt 0.681902 0.780311
vt 0.666227 0.780311
vt 1.000000 0.859047
vt 0.678162 0.860345
vt 1.000000 0.913553
vt 0.678162 0.912255
vt 0.803808 0.780311
vt 0.778738 0.188896
vt 0.784662 0.182200
vt 0.701048 0.182200
vt 0.706971 0.188896
vt 0.882184 0.193478
vt 0.943487 0.193482
vt 0.943487 0.209307
vt 0.882184 0.209307
vt 0.943487 0.183352
vt 0.882184 0.183352
vt 0.819483 0.780311
vt 0.882184 0.533391
vt 0.943487 0.533391
vt 0.882184 0.481482
vt 0.943487 0.481482
vt 0.681902 0.209307
vt 0.803808 0.209307
vt 0.799739 0.199030
vt 0.778739 0.188896
vt 0.685971 0.199030
vt 0.685971 0.199030
vt 0.672486 0.193482
vt 0.666227 0.209307
vt 0.819483 0.209307
vt 0.813224 0.193482
vt 0.799739 0.199030
vt 0.819483 0.780311
vt 0.781169 0.735356
vt 0.704541 0.735356
vt 0.222824 0.476887
vt 0.222824 0.500000
vt 0.183426 0.500000
vt 0.183426 0.476887
vt 0.222824 0.523113
vt 0.183426 0.523113
vt 0.222824 0.513344
vt 0.222824 0.486656
vt 0.183426 0.486656
vt 0.183426 0.513344
vt 0.222824 0.500000
vt 0.183426 0.500000
vt 0.183426 0.523113
vt 0.242522 0.500000
vt 0.222824 0.523113
vt 0.183426 0.523113
vt 0.163728 0.500000
vt 0.183426 0.476887
vt 0.222824 0.476887
vt 0.222824 0.476887
vt 0.222824 0.513344
vt 0.183426 0.513344
vt 0.183426 0.486656
vt 0.701550 0.178890
vt 0.784160 0.178890
vt 0.943487 0.179584
vt 0.882184 0.179583
vt 0.943487 0.179584
vt 0.672487 0.193478
vt 0.700988 0.178161
vt 0.784722 0.178161
vt 0.813222 0.193478
vt 1.000000 0.839043
vt 0.678162 0.841292
vt 1.000000 1.000000
vt 0.678162 0.998702
vt 0.701048 0.182200
vt 0.784662 0.182200
vt 0.701550 0.178890
vt 0.784160 0.178890
vt 0.882184 0.179583
vt 0.943487 0.179584
vt 0.943487 0.179584
vt 0.882184 0.179583
vt 0.678162 0.931201
vt 1.000000 0.933450
s 1
usemtl door_handle_1
f 226/367/85 231/368/86 245/369/86 241/370/85
f 228/371/87 235/372/88 231/373/88 226/374/87
f 239/375/89 240/376/90 241/377/91 242/378/92
f 243/379/93 244/380/94 240/376/90 239/375/89
f 231/373/88 235/372/88 236/381/95 232/382/95
f 236/381/95 234/383/96 230/384/96 232/382/95
f 239/375/97 242/378/97 246/385/97 243/379/97
f 271/386/98 273/387/99 268/388/100 270/389/101
f 265/390/102 274/391/102 249/392/103 238/393/104
f 237/393/105 248/392/106 267/391/107 264/390/107
f 273/394/108 266/395/109 263/395/110 268/394/111
f 242/378/92 241/377/91 245/396/112 246/385/113
f 225/397/114 240/398/114 244/369/115 229/368/115
f 226/399/85 241/400/85 240/398/114 225/397/114
f 247/401/97 250/402/97 272/403/97 271/404/97 270/389/97 269/405/97
f 269/406/116 267/407/117 248/408/118 247/401/119
f 250/402/120 249/409/121 274/410/122 272/411/123
f 246/385/113 245/396/112 249/409/121 250/402/120
f 245/369/86 231/368/86 238/393/104 249/392/103
f 243/379/97 246/385/97 250/402/97 247/401/97
f 229/368/115 244/369/115 248/392/106 237/393/105
f 238/409/124 231/412/124 232/413/124 230/414/124 229/380/124 237/408/124
f 244/380/94 243/379/93 247/401/119 248/408/118
f 251/415/125 253/416/125 254/417/125 252/418/125
f 253/416/126 255/419/126 256/420/126 254/417/126
f 255/421/97 257/422/97 258/423/97 256/424/97
f 257/419/127 259/425/127 260/426/127 258/427/127
f 254/428/128 256/429/128 258/430/128 260/431/128 262/432/128 252/433/128
f 259/425/129 261/434/129 262/432/129 260/426/129
f 261/422/124 251/435/124 252/436/124 262/437/124
f 268/438/100 267/407/117 269/406/116 270/389/101
f 271/386/98 272/411/123 274/410/122 273/439/99
f 267/391/107 268/440/111 263/441/110 264/390/107
f 273/442/108 274/391/102 265/390/102 266/441/109
f 237/408/124 264/443/124 263/444/124 266/445/124 265/446/124 238/409/124
f 276/399/85 275/397/114 290/398/114 291/400/85
f 278/371/130 276/374/130 281/373/131 285/372/131
f 283/372/132 284/447/133 280/448/133 279/373/132
f 276/374/130 278/371/130 277/449/134 275/450/134
f 281/373/131 282/382/135 286/381/135 285/372/131
f 293/379/136 289/375/137 290/376/138 294/380/139
f 286/381/135 282/382/135 280/384/133 284/383/133
f 276/367/85 291/370/85 295/369/140 281/368/140
f 289/375/124 293/379/124 296/385/124 292/378/124
f 321/386/141 320/389/142 318/451/143 323/452/144
f 315/390/145 288/393/146 299/392/147 324/391/145
f 287/393/148 314/390/149 317/391/149 298/392/150
f 323/394/151 318/394/152 313/395/153 316/395/154
f 292/378/155 296/385/156 295/396/157 291/377/158
f 289/375/137 292/378/155 291/377/158 290/376/138
f 275/397/114 279/368/159 294/369/160 290/398/114
f 297/401/124 319/405/124 320/389/124 321/404/124 322/403/124 300/402/124
f 319/406/161 297/401/162 298/408/163 317/407/164
f 300/402/165 322/411/166 324/410/167 299/409/168
f 296/385/156 300/402/165 299/409/168 295/396/157
f 295/369/140 299/392/147 288/393/146 281/368/140
f 293/379/124 297/401/124 300/402/124 296/385/124
f 279/368/159 287/393/148 298/392/150 294/369/160
f 288/409/97 287/408/97 279/380/97 280/414/97 282/413/97 281/412/97
f 294/380/139 298/408/163 297/401/162 293/379/136
f 301/415/126 302/418/126 304/417/126 303/416/126
f 303/416/125 304/417/125 306/420/125 305/419/125
f 305/421/124 306/424/124 308/423/124 307/422/124
f 307/419/129 308/427/129 310/426/129 309/425/129
f 304/428/128 302/433/128 312/432/128 310/431/128 308/430/128 306/429/128
f 309/425/127 310/426/127 312/432/127 311/434/127
f 311/422/97 312/437/97 302/436/97 301/435/97
f 318/453/143 320/389/142 319/406/161 317/407/164
f 321/386/141 323/454/144 324/410/167 322/411/166
f 317/391/149 314/390/149 313/455/153 318/456/152
f 323/457/151 316/458/154 315/390/145 324/391/145
f 287/408/97 288/409/97 315/446/97 316/445/97 313/444/97 314/443/97
f 225/459/169 229/373/170 233/372/170 227/460/169
f 226/374/87 225/450/169 227/449/169 228/371/87
f 233/372/170 229/373/170 230/448/96 234/447/96
f 275/459/134 277/460/134 283/372/132 279/373/132
o double_door_3_piece_2
v -1.000000 -0.000000 0.060000
v -1.000000 2.100000 0.060001
v -1.000000 0.000000 0.000001
v -1.000000 2.100000 0.000001
v 0.000000 -0.000000 0.060000
v 0.000000 2.100000 0.060001
v 0.000000 0.000000 0.000001
v 0.000000 2.100000 0.000001
v -0.863072 1.242763 0.080000
v -0.863072 1.847000 0.080000
v -0.893072 1.212763 0.060000
v -0.893072 1.877000 0.060000
v -0.730001 1.242763 0.080000
v -0.730001 1.847000 0.080000
v -0.700001 1.212763 0.060000
v -0.700001 1.877000 0.060000
v -0.893072 1.212763 0.080000
v -0.893072 1.877000 0.080000
v -0.700001 1.877000 0.080000
v -0.700001 1.212763 0.080000
v -0.842156 1.263679 0.071667
v -0.842156 1.826084 0.071667
v -0.750917 1.826084 0.071667
v -0.750917 1.263679 0.071667
v -0.863072 1.242763 0.071667
v -0.863072 1.847000 0.071667
v -0.730001 1.847000 0.071667
v -0.730001 1.242763 0.071667
v -0.842156 1.263679 0.066667
v -0.842156 1.826084 0.066667
v -0.750917 1.826084 0.066667
v -0.750917 1.263679 0.066667
v -0.863072 1.242763 -0.020000
v -0.863072 1.847000 -0.020000
v -0.893072 1.212763 -0.000000
v -0.893072 1.877000 -0.000000
v -0.730001 1.242763 -0.020000
v -0.730001 1.847000 -0.020000
v -0.700001 1.212763 -0.000000
v -0.700001 1.877000 -0.000000
v -0.893072 1.212763 -0.020000
v -0.893072 1.877000 -0.020000
v -0.700001 1.877000 -0.020000
v -0.700001 1.212763 -0.020000
v -0.842156 1.263679 -0.011667
v -0.842156 1.826084 -0.011667
v -0.750917 1.826084 -0.011667
v -0.750917 1.263679 -0.011667
v -0.863072 1.242763 -0.011667
v -0.863072 1.847000 -0.011667
v -0.730001 1.847000 -0.011667
v -0.730001 1.242763 -0.011667
v -0.842156 1.263679 -0.006667
v -0.842156 1.826084 -0.006667
v -0.750917 1.826084 -0.006667
v -0.750917 1.263679 -0.006667
v -0.971635 1.095118 0.059500
v -0.971635 0.904882 0.059500
v -0.963577 0.912940 0.067000
v -0.908366 0.904882 0.059500
v -0.916425 0.912940 0.067000
v -0.963577 1.087060 0.067000
v -0.908366 1.095118 0.059500
v -0.916425 1.087060 0.067000
v -0.908369 1.095118 0.000500
v -0.908369 0.904882 0.000500
v -0.916428 0.912940 -0.007000
v -0.971638 0.904882 0.000500
v -0.963580 0.912940 -0.007000
v -0.916428 1.087060 -0.007000
v -0.971638 1.095118 0.000500
v -0.963580 1.087060 -0.007000
v -0.934525 1.077852 -0.004550
v -0.934525 1.077852 -0.009993
v -0.937961 1.082074 -0.004550
v -0.937961 1.082074 -0.009993
v -0.943335 1.081208 -0.004550
v -0.943335 1.081208 -0.009993
v -0.945273 1.076122 -0.004550
v -0.945273 1.076122 -0.009993
v -0.941836 1.071900 -0.004550
v -0.941836 1.071900 -0.009993
v -0.936462 1.072766 -0.004550
v -0.936462 1.072766 -0.009993
v -0.935603 0.924332 -0.004550
v -0.935603 0.924332 -0.009993
v -0.940646 0.926378 -0.004550
v -0.940646 0.926378 -0.009993
v -0.944941 0.923034 -0.004550
v -0.944941 0.923034 -0.009993
v -0.944192 0.917642 -0.004550
v -0.944192 0.917642 -0.009993
v -0.939148 0.915596 -0.004550
v -0.939148 0.915596 -0.009993
v -0.934853 0.918940 -0.004550
v -0.934853 0.918940 -0.009993
v -0.941509 1.082243 0.064547
v -0.941509 1.082243 0.069990
v -0.936249 1.080841 0.064547
v -0.936249 1.080841 0.069990
v -0.934834 1.075585 0.064547
v -0.934834 1.075585 0.069990
v -0.938678 1.071731 0.064547
v -0.938678 1.071731 0.069990
v -0.943937 1.073133 0.064547
v -0.943937 1.073133 0.069990
v -0.945353 1.078389 0.064547
v -0.945353 1.078389 0.069990
v -0.945210 0.919127 0.064548
v -0.945210 0.919127 0.069991
v -0.944263 0.924487 0.064548
v -0.944263 0.924487 0.069991
v -0.939148 0.926348 0.064548
v -0.939148 0.926348 0.069991
v -0.934979 0.922848 0.064548
v -0.934979 0.922848 0.069991
v -0.935926 0.917487 0.064548
v -0.935926 0.917487 0.069991
v -0.941042 0.915627 0.064548
v -0.941042 0.915627 0.069991
vn -1.0000 -0.0000 -0.0000
vn 1.0000 -0.0000 -0.0000
vn -0.0000 -1.0000 -0.0000
vn -0.0000 1.0000 -0.0000
vn -0.0000 -0.0000 1.0000
vn -0.0000 -0.0000 -1.0000
vn -0.7071 -0.7071 -0.0000
vn -0.7071 0.7071 -0.0000
vn 0.7071 -0.7071 -0.0000
vn 0.7071 0.7071 -0.0000
vn -0.0000 0.6427 0.7661
vn 0.6427 -0.0000 0.7661
vn -0.6427 -0.0000 0.7661
vn -0.0000 -0.6427 0.7661
vn -0.0000 0.6427 -0.7661
vn -0.6427 -0.0000 -0.7661
vn 0.6427 -0.0000 -0.7661
vn -0.0000 -0.6427 -0.7661
vn 0.7755 0.6313 -0.0000
vn -0.1590 0.9873 -0.0000
vn -0.9345 0.3560 -0.0000
vn -0.7755 -0.6313 -0.0000
vn 0.1590 -0.9873 -0.0000
vn 0.9345 -0.3560 -0.0000
vn 0.3760 0.9266 -0.0000
vn -0.6145 0.7890 -0.0000
vn -0.9905 -0.1377 -0.0000
vn -0.3760 -0.9266 -0.0000
vn 0.6145 -0.7890 -0.0000
vn 0.9905 0.1377 -0.0000
vn 0.2576 0.9663 -0.0000
vn 0.9656 0.2601 -0.0000
vn 0.7080 -0.7062 -0.0000
vn -0.2576 -0.9663 -0.0000
vn -0.9656 -0.2601 -0.0000
vn -0.7080 0.7062 -0.0000
vn -0.9848 0.1739 -0.0000
vn -0.3417 0.9398 -0.0000
vn 0.6430 0.7658 -0.0000
vn 0.9848 -0.1739 -0.0000
vn 0.3417 -0.9398 -0.0000
vn -0.6430 -0.7659 -0.0000
vt 0.492607 0.000000
vt 0.492607 1.004126
vt 0.462607 1.004126
vt 0.462607 0.000000
vt 0.008437 0.729554
vt 0.008437 0.251399
vt 0.038438 0.251399
vt 0.038438 0.729554
vt 0.000000 0.000000
vt 0.000000 1.004126
vt 0.500000 1.004126
vt 0.500000 0.000000
vt 0.360406 0.579733
vt 0.360406 0.897694
vt 0.350254 0.897694
vt 0.350254 0.579733
vt 0.436548 0.587014
vt 0.365482 0.587014
vt 0.365482 0.591869
vt 0.436548 0.591869
vt 0.446700 0.897808
vt 0.350254 0.897808
vt 0.350254 0.888099
vt 0.446700 0.888099
vt 0.431714 0.594094
vt 0.431714 0.883333
vt 0.446700 0.897694
vt 0.446700 0.579733
vt 0.365240 0.883334
vt 0.365240 0.594094
vt 0.420725 0.594600
vt 0.375040 0.594600
vt 0.375040 0.597027
vt 0.420725 0.597027
vt 0.357868 0.897694
vt 0.357868 0.579733
vt 0.352792 0.579733
vt 0.352792 0.897694
vt 0.421100 0.604294
vt 0.421100 0.873133
vt 0.431472 0.883131
vt 0.431472 0.594296
vt 0.375854 0.873133
vt 0.375854 0.604294
vt 0.365482 0.594296
vt 0.365482 0.883131
vt 0.373096 0.875849
vt 0.373096 0.604005
vt 0.370558 0.604005
vt 0.370558 0.875849
vt 0.070488 0.952198
vt 0.429512 0.952198
vt 0.486440 1.000000
vt 0.013560 1.000000
vt 0.070488 0.047802
vt 0.429512 0.047802
vt 0.500000 0.009186
vt 0.500000 0.990814
vt 0.000000 0.990814
vt 0.000000 0.009186
vt 0.013560 0.000000
vt 0.486440 0.000000
vt 0.777132 0.324472
vt 0.777132 0.296817
vt 0.808793 0.296817
vt 0.808793 0.324472
vt 0.762469 0.324472
vt 0.762468 0.296817
vt 0.722164 0.296817
vt 0.722164 0.324472
vt 0.802303 0.324472
vt 0.802303 0.296817
vt 0.764153 0.296817
vt 0.764153 0.324472
vt 0.732494 0.296817
vt 0.732494 0.324472
vt 0.762468 0.922478
vt 0.788241 0.901030
vt 0.773708 0.875187
vt 0.733403 0.870791
vt 0.707631 0.892238
vt 0.722164 0.918082
vt 0.733403 0.324472
vt 0.733403 0.296817
vt 0.773708 0.296817
vt 0.773708 0.324472
vt 0.738983 0.324472
vt 0.738983 0.296817
vt 0.780154 0.324470
vt 0.780154 0.296815
vt 0.742327 0.296815
vt 0.742327 0.324470
vt 0.710118 0.296815
vt 0.710118 0.324470
vt 0.740993 0.324470
vt 0.740993 0.296815
vt 0.700558 0.296815
vt 0.700558 0.324470
vt 0.715738 0.324470
vt 0.715738 0.296815
vt 0.753566 0.296815
vt 0.753566 0.324470
vt 0.742327 0.131445
vt 0.780154 0.121047
vt 0.785774 0.093655
vt 0.753566 0.076662
vt 0.715738 0.087061
vt 0.710118 0.114452
vt 0.785774 0.296815
vt 0.785774 0.324470
vt 0.710293 0.324470
vt 0.710293 0.296815
vt 0.750728 0.296815
vt 0.750728 0.324470
vt 0.735859 0.675528
vt 0.735859 0.703183
vt 0.775305 0.703183
vt 0.775305 0.675528
vt 0.799548 0.675528
vt 0.799548 0.703183
vt 0.760128 0.703183
vt 0.760128 0.675528
vt 0.731224 0.703183
vt 0.731224 0.675528
vt 0.757093 0.675528
vt 0.757093 0.703183
vt 0.717646 0.703183
vt 0.717647 0.675528
vt 0.775305 0.916215
vt 0.735859 0.923338
vt 0.707029 0.903758
vt 0.717646 0.877054
vt 0.757093 0.869931
vt 0.785922 0.889511
vt 0.741739 0.675528
vt 0.741739 0.703183
vt 0.781159 0.703183
vt 0.781159 0.675528
vt 0.810063 0.703183
vt 0.810063 0.675528
vt 0.711695 0.675530
vt 0.711695 0.703185
vt 0.751897 0.703184
vt 0.751897 0.675530
vt 0.715199 0.675530
vt 0.715199 0.703184
vt 0.753566 0.703185
vt 0.753566 0.675530
vt 0.784831 0.703185
vt 0.784831 0.675530
vt 0.739598 0.675530
vt 0.739598 0.703185
vt 0.699396 0.703185
vt 0.699396 0.675530
vt 0.715199 0.121839
vt 0.708099 0.094605
vt 0.739364 0.076823
vt 0.777730 0.086274
vt 0.784831 0.113507
vt 0.753566 0.131290
vt 0.777730 0.675530
vt 0.777730 0.703185
vt 0.739364 0.703185
vt 0.739364 0.675530
vt 0.708099 0.703185
vt 0.708099 0.675530
s 1
usemtl door_3_double
f 325/461/171 326/462/171 328/463/171 327/464/171
f 331/464/172 332/463/172 330/462/172 329/461/172
f 327/465/173 331/466/173 329/467/173 325/468/173
f 332/466/174 328/465/174 326/468/174 330/467/174
f 329/469/175 330/470/175 326/471/175 325/472/175
f 331/469/176 327/472/176 328/471/176 332/470/176
f 341/473/171 342/474/171 336/475/171 335/476/171
f 339/476/172 340/475/172 343/474/172 344/473/172
f 333/477/174 337/478/174 352/479/174 349/480/174
f 335/481/173 339/482/173 344/483/173 341/484/173
f 340/482/174 336/481/174 342/484/174 343/483/174
f 333/485/175 334/486/175 342/487/175 341/488/175
f 338/489/175 337/490/175 344/476/175 343/475/175
f 337/490/175 333/485/175 341/488/175 344/476/175
f 334/486/175 338/489/175 343/475/175 342/487/175
f 345/491/174 348/492/174 356/493/174 353/494/174
f 334/495/172 333/496/172 349/497/172 350/498/172
f 338/478/173 334/477/173 350/480/173 351/479/173
f 337/496/171 338/495/171 351/498/171 352/497/171
f 345/499/175 346/500/175 350/501/175 349/502/175
f 347/503/175 348/504/175 352/505/175 351/506/175
f 348/504/175 345/499/175 349/502/175 352/505/175
f 346/500/175 347/503/175 351/506/175 350/501/175
f 356/504/175 355/503/175 354/500/175 353/499/175
f 346/507/172 345/508/172 353/509/172 354/510/172
f 347/492/173 346/491/173 354/494/173 355/493/173
f 348/508/171 347/507/171 355/510/171 356/509/171
f 365/473/177 359/476/177 360/475/178 366/474/178
f 363/476/179 368/473/179 367/474/180 364/475/180
f 357/477/180 373/480/180 376/479/178 361/478/178
f 359/481/177 365/484/177 368/483/179 363/482/179
f 364/482/180 367/483/180 366/484/178 360/481/178
f 357/485/176 365/488/176 366/487/176 358/486/176
f 362/489/176 367/475/176 368/476/176 361/490/176
f 361/490/176 368/476/176 365/488/176 357/485/176
f 358/486/176 366/487/176 367/475/176 362/489/176
f 369/491/180 377/494/180 380/493/178 372/492/178
f 358/495/179 374/498/179 373/497/180 357/496/180
f 362/478/177 375/479/177 374/480/179 358/477/179
f 361/496/178 376/497/178 375/498/177 362/495/177
f 369/499/176 373/502/176 374/501/176 370/500/176
f 371/503/176 375/506/176 376/505/176 372/504/176
f 372/504/176 376/505/176 373/502/176 369/499/176
f 370/500/176 374/501/176 375/506/176 371/503/176
f 380/504/176 377/499/176 378/500/176 379/503/176
f 370/507/179 378/510/179 377/509/180 369/508/180
f 371/492/177 379/493/177 378/494/179 370/491/179
f 372/508/178 380/509/178 379/510/177 371/507/177
usemtl door_handle_1
f 386/511/181 388/512/181 387/513/181 381/514/181
f 383/515/175 385/516/175 388/512/175 386/511/175
f 388/512/182 385/516/182 384/517/182 387/518/182
f 381/519/183 382/520/183 383/515/183 386/511/183
f 385/516/184 383/515/184 382/521/184 384/522/184
f 394/511/185 396/512/185 395/513/185 389/514/185
f 391/515/176 393/516/176 396/512/176 394/511/176
f 396/512/186 393/516/186 392/517/186 395/518/186
f 389/519/187 390/520/187 391/515/187 394/511/187
f 393/516/188 391/515/188 390/521/188 392/522/188
f 397/523/189 398/524/189 400/525/189 399/526/189
f 399/527/190 400/528/190 402/529/190 401/530/190
f 401/531/191 402/532/191 404/533/191 403/534/191
f 403/534/192 404/533/192 406/535/192 405/536/192
f 400/537/176 398/538/176 408/539/176 406/540/176 404/541/176 402/542/176
f 405/543/193 406/544/193 408/545/193 407/546/193
f 407/547/194 408/548/194 398/524/194 397/523/194
f 409/549/195 410/550/195 412/551/195 411/552/195
f 411/552/196 412/551/196 414/553/196 413/554/196
f 413/555/197 414/556/197 416/557/197 415/558/197
f 415/559/198 416/560/198 418/561/198 417/562/198
f 412/563/176 410/564/176 420/565/176 418/566/176 416/567/176 414/568/176
f 417/562/199 418/561/199 420/569/199 419/570/199
f 419/571/200 420/572/200 410/573/200 409/574/200
f 421/575/201 422/576/201 424/577/201 423/578/201
f 423/579/202 424/580/202 426/581/202 425/582/202
f 425/582/203 426/581/203 428/583/203 427/584/203
f 427/585/204 428/586/204 430/587/204 429/588/204
f 424/589/175 422/590/175 432/591/175 430/592/175 428/593/175 426/594/175
f 429/595/205 430/596/205 432/597/205 431/598/205
f 431/598/206 432/597/206 422/599/206 421/600/206
f 433/601/207 434/602/207 436/603/207 435/604/207
f 435/605/208 436/606/208 438/607/208 437/608/208
f 437/608/209 438/607/209 440/609/209 439/610/209
f 439/611/210 440/612/210 442/613/210 441/614/210
f 436/615/175 434/616/175 444/617/175 442/618/175 440/619/175 438/620/175
f 441/621/211 442/622/211 444/623/211 443/624/211
f 443/624/212 444/623/212 434/625/212 433/626/212
o double_door_3_piece_2_handle
v -0.008660 -0.005000 0.032000
v -0.008660 0.005000 0.032000
v -0.009093 -0.005250 -0.010000
v -0.009093 0.005250 -0.010000
v 0.000000 -0.010000 0.032000
v 0.008660 -0.005000 0.032000
v 0.000000 0.010000 0.032000
v 0.008660 0.005000 0.032000
v 0.000000 -0.010500 -0.010000
v 0.009093 -0.005250 -0.010000
v 0.000000 0.010500 -0.010000
v 0.009093 0.005250 -0.010000
v 0.110000 -0.010000 0.032000
v 0.110000 0.010000 0.032000
v -0.006867 -0.003965 0.042000
v -0.008660 -0.005000 0.040000
v -0.008660 0.005000 0.040000
v -0.006867 0.003965 0.042000
v 0.000000 -0.007954 0.042000
v 0.000000 -0.010000 0.040000
v 0.000000 0.010000 0.040000
v 0.000000 0.007954 0.042000
v 0.110000 -0.007954 0.042000
v 0.110000 -0.010000 0.040000
v 0.110000 0.010000 0.040000
v 0.110000 0.007954 0.042000
v -0.008541 0.002709 -0.003815
v -0.013984 0.002709 -0.003815
v -0.008541 0.005430 0.000899
v -0.013984 0.005430 0.000899
v -0.008541 0.002709 0.005613
v -0.013984 0.002709 0.005613
v -0.008541 -0.002735 0.005613
v -0.013984 -0.002735 0.005613
v -0.008541 -0.005456 0.000899
v -0.013984 -0.005456 0.000899
v -0.008541 -0.002735 -0.003815
v -0.013984 -0.002735 -0.003815
v 0.116000 -0.005464 0.032000
v 0.113049 -0.009183 0.032000
v 0.113049 0.009183 0.032000
v 0.116000 0.005464 0.032000
v 0.113049 -0.009183 0.040000
v 0.116000 -0.005456 0.040000
v 0.111980 -0.007423 0.042000
v 0.113932 -0.004683 0.042000
v 0.113932 0.004683 0.042000
v 0.111980 0.007423 0.042000
v 0.116000 0.005456 0.040000
v 0.113049 0.009183 0.040000
v -0.008660 -0.005000 -0.126000
v -0.008660 0.005000 -0.126000
v -0.009093 -0.005250 -0.084000
v -0.009093 0.005250 -0.084000
v 0.000000 -0.010000 -0.126000
v 0.008660 -0.005000 -0.126000
v 0.000000 0.010000 -0.126000
v 0.008660 0.005000 -0.126000
v 0.000000 -0.010500 -0.084000
v 0.009093 -0.005250 -0.084000
v 0.000000 0.010500 -0.084000
v 0.009093 0.005250 -0.084000
v 0.110000 -0.010000 -0.126000
v 0.110000 0.010000 -0.126000
v -0.006867 -0.003965 -0.136000
v -0.008660 -0.005000 -0.134000
v -0.008660 0.005000 -0.134000
v -0.006867 0.003965 -0.136000
v 0.000000 -0.007954 -0.136000
v 0.000000 -0.010000 -0.134000
v 0.000000 0.010000 -0.134000
v 0.000000 0.007954 -0.136000
v 0.110000 -0.007954 -0.136000
v 0.110000 -0.010000 -0.134000
v 0.110000 0.010000 -0.134000
v 0.110000 0.007954 -0.136000
v -0.008541 0.002709 -0.090185
v -0.013984 0.002709 -0.090185
v -0.008541 0.005430 -0.094899
v -0.013984 0.005430 -0.094899
v -0.008541 0.002709 -0.099613
v -0.013984 0.002709 -0.099613
v -0.008541 -0.002735 -0.099613
v -0.013984 -0.002735 -0.099613
v -0.008541 -0.005456 -0.094899
v -0.013984 -0.005456 -0.094899
v -0.008541 -0.002735 -0.090185
v -0.013984 -0.002735 -0.090185
v 0.116000 -0.005464 -0.126000
v 0.113049 -0.009183 -0.126000
v 0.113049 0.009183 -0.126000
v 0.116000 0.005464 -0.126000
v 0.113048 -0.009183 -0.134000
v 0.116000 -0.005456 -0.134000
v 0.111980 -0.007423 -0.136000
v 0.113932 -0.004683 -0.136000
v 0.113932 0.004683 -0.136000
v 0.111980 0.007423 -0.136000
v 0.116000 0.005456 -0.134000
v 0.113048 0.009183 -0.134000
vn -0.8660 0.5000 -0.0000
vn -0.1305 0.9914 -0.0000
vn -0.8660 0.5000 0.0119
vn -0.0000 0.9999 0.0119
vn -0.6016 -0.3473 0.7193
vn -0.6016 0.3473 0.7193
vn -0.6016 0.3474 0.7193
vn -0.6016 -0.3474 0.7193
vn -0.0976 -0.6957 0.7117
vn -0.0867 -0.6964 0.7124
vn 0.8660 0.5000 0.0119
vn 0.8660 -0.5000 0.0119
vn -0.0000 -0.0000 1.0000
vn 0.6459 0.2141 0.7328
vn 0.6459 -0.2141 0.7328
vn 0.6437 -0.2210 0.7327
vn 0.6437 0.2210 0.7327
vn 0.5490 0.8358 0.0002
vn 0.1304 0.9902 0.0493
vn 0.1793 0.9838 -0.0000
vn 0.1304 -0.9902 0.0493
vn 0.5490 -0.8358 0.0002
vn 0.0815 -0.9967 -0.0000
vn 0.9444 0.3287 0.0002
vn 0.9444 -0.3287 0.0002
vn 0.9443 -0.3291 0.0002
vn 0.9443 0.3291 0.0002
vn -0.0976 0.6957 0.7117
vn -0.0867 0.6964 0.7124
vn -0.8660 -0.5000 -0.0000
vn -0.1305 -0.9914 -0.0000
vn 0.3875 -0.5684 0.7257
vn 0.0616 -0.6977 0.7137
vn 0.0835 -0.6727 0.7352
vn 0.3794 -0.5741 0.7256
vn 0.1306 0.6908 0.7111
vn 0.3875 0.5684 0.7257
vn 0.3794 0.5741 0.7256
vn 0.0866 0.7220 0.6865
vn -0.0000 -0.0000 -1.0000
vn -0.0000 0.8660 -0.5000
vn -0.0000 0.8660 0.5000
vn -0.0000 -0.8660 0.5000
vn -1.0000 -0.0000 -0.0000
vn -0.0000 -0.8660 -0.5000
vn -0.8660 0.5000 -0.0119
vn -0.0000 0.9999 -0.0119
vn -0.0000 -0.9999 -0.0119
vn 0.8660 -0.5000 -0.0119
vn -0.8660 -0.5000 -0.0119
vn 0.8660 0.5000 -0.0119
vn -0.0862 -0.7280 -0.6802
vn -0.0790 -0.7187 -0.6908
vn -0.6042 -0.3488 -0.7165
vn -0.6041 -0.3488 -0.7165
vn -0.0980 0.9952 -0.0000
vn 0.6459 0.2141 -0.7328
vn 0.6437 0.2210 -0.7327
vn 0.6437 -0.2210 -0.7327
vn 0.6459 -0.2141 -0.7328
vn 0.5490 0.8358 -0.0002
vn 0.0815 0.9967 -0.0000
vn 0.1304 0.9902 -0.0493
vn 0.1304 -0.9902 -0.0493
vn 0.1793 -0.9838 -0.0000
vn 0.5490 -0.8358 -0.0002
vn 0.9444 0.3287 -0.0002
vn 0.9443 0.3291 -0.0002
vn 0.9443 -0.3291 -0.0002
vn 0.9444 -0.3287 -0.0002
vn -0.6041 0.3488 -0.7165
vn -0.6042 0.3488 -0.7165
vn -0.0790 0.7187 -0.6908
vn -0.0862 0.7280 -0.6802
vn -0.0980 -0.9952 -0.0000
vn -0.0980 -0.9952 -0.0001
vn 0.3875 -0.5685 -0.7257
vn 0.3794 -0.5741 -0.7256
vn 0.0835 -0.6727 -0.7352
vn 0.1330 -0.6880 -0.7134
vn 0.0646 0.6998 -0.7114
vn 0.0933 0.7211 -0.6865
vn 0.3794 0.5741 -0.7256
vn 0.3875 0.5684 -0.7257
vn -0.8660 -0.5000 0.0119
vn -0.0000 -0.9999 0.0119
vt 0.882184 0.825266
vt 0.943487 0.825266
vt 0.943487 0.780311
vt 0.882184 0.780311
vt 1.000000 0.945494
vt 0.678162 0.946792
vt 0.678162 0.886247
vt 1.000000 0.886247
vt 0.712474 0.815958
vt 0.773236 0.815958
vt 0.781169 0.825266
vt 0.704541 0.825266
vt 0.681902 0.780311
vt 0.666227 0.780311
vt 0.678162 0.860345
vt 1.000000 0.859047
vt 0.678162 0.912255
vt 1.000000 0.913553
vt 0.803808 0.780311
vt 0.778738 0.188896
vt 0.706971 0.188896
vt 0.701048 0.182200
vt 0.784662 0.182200
vt 0.882184 0.193478
vt 0.882184 0.209307
vt 0.943487 0.209307
vt 0.943487 0.193482
vt 0.943487 0.183352
vt 0.882184 0.183352
vt 0.819483 0.780311
vt 0.882184 0.533391
vt 0.943487 0.533391
vt 0.882184 0.481482
vt 0.943487 0.481482
vt 0.681902 0.209307
vt 0.685971 0.199030
vt 0.778739 0.188896
vt 0.799739 0.199030
vt 0.803808 0.209307
vt 0.685971 0.199030
vt 0.666227 0.209307
vt 0.672486 0.193482
vt 0.799739 0.199030
vt 0.813224 0.193482
vt 0.819483 0.209307
vt 0.704541 0.735356
vt 0.781169 0.735356
vt 0.819483 0.780311
vt 0.222824 0.476887
vt 0.183426 0.476887
vt 0.183426 0.500000
vt 0.222824 0.500000
vt 0.183426 0.523113
vt 0.222824 0.523113
vt 0.222824 0.513344
vt 0.183426 0.513344
vt 0.183426 0.486656
vt 0.222824 0.486656
vt 0.183426 0.523113
vt 0.183426 0.500000
vt 0.222824 0.500000
vt 0.242522 0.500000
vt 0.222824 0.476887
vt 0.183426 0.476887
vt 0.163728 0.500000
vt 0.183426 0.523113
vt 0.222824 0.523113
vt 0.222824 0.476887
vt 0.183426 0.486656
vt 0.183426 0.513344
vt 0.222824 0.513344
vt 0.701550 0.178890
vt 0.784160 0.178890
vt 0.882184 0.179583
vt 0.943487 0.179584
vt 0.943487 0.179584
vt 0.813222 0.193478
vt 0.784722 0.178161
vt 0.700988 0.178161
vt 0.672487 0.193478
vt 0.678162 0.841292
vt 1.000000 0.839043
vt 0.678162 0.998702
vt 1.000000 1.000000
vt 0.784662 0.182200
vt 0.701048 0.182200
vt 0.701550 0.178890
vt 0.784160 0.178890
vt 0.943487 0.179584
vt 0.882184 0.179583
vt 0.943487 0.179584
vt 0.882184 0.179583
vt 0.678162 0.931201
vt 1.000000 0.933450
s 1
usemtl door_handle_1
f 446/627/213 461/628/213 465/629/214 451/630/214
f 448/631/215 446/632/215 451/633/216 455/634/216
f 459/635/217 462/636/218 461/637/219 460/638/220
f 463/639/221 459/635/217 460/638/220 464/640/222
f 451/633/216 452/641/223 456/642/223 455/634/216
f 456/642/223 452/641/223 450/643/224 454/644/224
f 459/635/225 463/639/225 466/645/225 462/636/225
f 491/646/226 490/647/227 488/648/228 493/649/229
f 485/650/230 458/651/231 469/652/232 494/653/230
f 457/651/233 484/650/234 487/653/234 468/652/235
f 493/654/236 488/654/237 483/655/238 486/655/239
f 462/636/218 466/645/240 465/656/241 461/637/219
f 445/657/242 449/630/243 464/629/243 460/658/242
f 446/659/213 445/657/242 460/658/242 461/660/213
f 467/661/225 489/662/225 490/647/225 491/663/225 492/664/225 470/665/225
f 489/666/244 467/661/245 468/667/246 487/668/247
f 470/665/248 492/669/249 494/670/250 469/671/251
f 466/645/240 470/665/248 469/671/251 465/656/241
f 465/629/214 469/652/232 458/651/231 451/630/214
f 463/639/225 467/661/225 470/665/225 466/645/225
f 449/630/243 457/651/233 468/652/235 464/629/243
f 458/671/252 457/667/252 449/640/252 450/672/252 452/673/252 451/674/252
f 464/640/222 468/667/246 467/661/245 463/639/221
f 471/675/253 472/676/253 474/677/253 473/678/253
f 473/678/254 474/677/254 476/679/254 475/680/254
f 475/681/225 476/682/225 478/683/225 477/684/225
f 477/680/255 478/685/255 480/686/255 479/687/255
f 474/688/256 472/689/256 482/690/256 480/691/256 478/692/256 476/693/256
f 479/687/257 480/686/257 482/690/257 481/694/257
f 481/684/252 482/695/252 472/696/252 471/697/252
f 488/698/228 490/647/227 489/666/244 487/668/247
f 491/646/226 493/699/229 494/670/250 492/669/249
f 487/653/234 484/650/234 483/700/238 488/701/237
f 493/702/236 486/700/239 485/650/230 494/653/230
f 457/667/252 458/671/252 485/703/252 486/704/252 483/705/252 484/706/252
f 496/659/213 511/660/213 510/658/242 495/657/242
f 498/631/258 505/634/259 501/633/259 496/632/258
f 503/634/260 499/633/260 500/707/261 504/708/261
f 496/632/258 495/709/262 497/710/262 498/631/258
f 501/633/259 505/634/259 506/642/263 502/641/263
f 513/639/264 514/640/265 510/638/266 509/635/267
f 506/642/263 504/644/261 500/643/261 502/641/263
f 496/627/213 501/630/268 515/629/268 511/628/213
f 509/635/252 512/636/252 516/645/252 513/639/252
f 541/646/269 543/711/270 538/712/271 540/647/272
f 535/650/273 544/653/273 519/652/274 508/651/275
f 507/651/276 518/652/277 537/653/278 534/650/278
f 543/654/279 536/655/280 533/655/281 538/654/282
f 512/636/283 511/637/284 515/656/285 516/645/286
f 509/635/267 510/638/266 511/637/284 512/636/283
f 495/657/242 510/658/242 514/629/287 499/630/288
f 517/661/252 520/665/252 542/664/252 541/663/252 540/647/252 539/662/252
f 539/666/289 537/668/290 518/667/291 517/661/292
f 520/665/293 519/671/294 544/670/295 542/669/296
f 516/645/286 515/656/285 519/671/294 520/665/293
f 515/629/268 501/630/268 508/651/275 519/652/274
f 513/639/252 516/645/252 520/665/252 517/661/252
f 499/630/288 514/629/287 518/652/277 507/651/276
f 508/671/225 501/674/225 502/673/225 500/672/225 499/640/225 507/667/225
f 514/640/265 513/639/264 517/661/292 518/667/291
f 521/675/254 523/678/254 524/677/254 522/676/254
f 523/678/253 525/680/253 526/679/253 524/677/253
f 525/681/252 527/684/252 528/683/252 526/682/252
f 527/680/257 529/687/257 530/686/257 528/685/257
f 524/688/256 526/693/256 528/692/256 530/691/256 532/690/256 522/689/256
f 529/687/255 531/694/255 532/690/255 530/686/255
f 531/684/225 521/697/225 522/696/225 532/695/225
f 538/713/271 537/668/290 539/666/289 540/647/272
f 541/646/269 542/669/296 544/670/295 543/714/270
f 537/653/278 538/715/282 533/716/281 534/650/278
f 543/717/279 544/653/273 535/650/273 536/718/280
f 507/667/225 534/706/225 533/705/225 536/704/225 535/703/225 508/671/225
f 445/719/297 447/720/297 453/634/298 449/633/298
f 446/632/215 448/631/215 447/710/297 445/709/297
f 453/634/298 454/708/224 450/707/224 449/633/298
f 495/719/262 499/633/260 503/634/260 497/720/262
