# Blender 5.0.1
# www.blender.org
mtllib doorway_2_wide.mtl
o doorway_2_wide
v 2.000000 0.000000 0.060000
v 2.000000 3.000000 0.060000
v 2.000000 0.000000 -0.060000
v 2.000000 3.000000 -0.060000
v 2.030000 0.000000 0.030000
v 2.030000 3.000000 0.030000
v 2.030000 0.000000 -0.030000
v 2.030000 3.000000 -0.030000
v -2.000000 0.000000 -0.060000
v -2.000000 3.000000 -0.060000
v -2.000000 0.000000 0.060001
v -2.000000 3.000000 0.060000
v -2.030000 0.000000 -0.030000
v -2.030000 3.000000 -0.030000
v -2.030000 0.000000 0.030001
v -2.030000 3.000000 0.030000
v -2.000000 0.160000 0.070000
v -2.000000 0.000000 0.090000
v 2.000000 0.000000 0.090000
v 2.000000 0.160000 -0.060000
v 2.000000 0.160000 -0.070000
v 2.000000 0.110000 -0.090000
v 2.000000 0.000000 -0.090000
v -2.000000 0.110000 -0.090000
v -2.000000 0.000000 -0.090000
v 1.080000 0.000000 -0.060000
v 1.080000 0.110000 0.090000
v 1.080000 0.160000 0.070000
v 1.080000 0.000000 0.060000
v 1.080000 0.000000 0.090000
v 1.080000 0.000000 -0.090000
v 1.080000 0.110000 -0.090000
v 1.080000 0.160000 -0.070000
v 1.080000 0.160000 -0.060000
v 1.080000 0.160000 0.060000
v 1.080000 2.180000 0.060000
v 1.080000 2.180000 -0.060000
v -1.080000 2.180000 0.060000
v -1.080000 2.180000 -0.060000
v -1.080000 0.000000 -0.060000
v -1.080000 0.110000 0.090000
v -1.080000 0.160000 0.070000
v -1.080000 0.000000 0.060000
v -1.080000 0.000000 0.090000
v -1.080000 0.000000 -0.090000
v -1.080000 0.110000 -0.090000
v -1.080000 0.160000 -0.070000
v -1.080000 0.160000 -0.060000
v -1.080000 0.160000 0.060000
v 2.030000 0.160000 -0.030000
v 2.045000 0.000000 -0.045000
v 2.045000 0.110000 -0.045000
v 2.035000 0.160000 -0.035000
v -2.000000 0.160000 -0.060000
v -2.000000 0.160000 -0.070000
v -2.045000 0.000000 -0.045000
v -2.045000 0.110000 -0.045000
v -2.030000 0.160000 -0.030000
v -2.035000 0.160000 -0.035000
v -2.000000 0.160000 0.060000
v -2.000000 0.110000 0.090000
v -2.030000 0.160000 0.030001
v -2.045000 0.000000 0.045001
v -2.045000 0.110000 0.045000
v -2.035000 0.160000 0.035001
v 2.000000 0.160000 0.059999
v 2.000000 0.160000 0.070000
v 2.000000 0.110000 0.089999
v 2.045000 0.000000 0.044999
v 2.045000 0.110000 0.044999
v 2.030000 0.160000 0.029999
v 2.035000 0.160000 0.034999
v -1.079999 2.180000 -0.100000
v -1.079999 2.180000 0.100000
v 1.000000 2.099999 -0.080000
v 1.000000 2.099999 0.080000
v 1.080000 2.180000 -0.100000
v 1.080000 2.180000 0.100000
v -1.000000 2.100000 -0.080000
v -1.000000 2.099999 0.080000
v 1.000000 0.000000 -0.080000
v 1.000000 -0.000000 0.080000
v -1.000000 0.000000 -0.080000
v -1.000000 -0.000000 0.080000
v 1.080000 0.000000 -0.100000
v 1.080000 -0.000000 0.100000
v -1.080000 0.000000 -0.100000
v -1.080000 -0.000000 0.100000
v 1.040000 2.140000 -0.100000
v 1.020000 2.120000 -0.080000
v -1.040000 2.140000 -0.100000
v -1.020000 2.119999 -0.080000
v 1.040000 0.000000 -0.100000
v 1.020000 0.000000 -0.080000
v -1.040000 0.000000 -0.100000
v -1.020000 0.000000 -0.080000
v -1.020000 2.120000 0.080000
v -1.040000 2.140000 0.100000
v 1.040000 2.140000 0.100000
v 1.020000 2.119999 0.080000
v 1.040000 -0.000000 0.100000
v 1.020000 -0.000000 0.080000
v -1.020000 -0.000000 0.080000
v -1.040000 -0.000000 0.100000
vn -0.0000 -0.0000 -1.0000
vn 0.7071 -0.0000 -0.7071
vn 0.7071 -0.0000 0.7071
vn -0.7071 -0.0000 0.7071
vn -0.7071 -0.0000 -0.7071
vn -0.0000 -0.0000 1.0000
vn -0.0000 0.3714 0.9285
vn -0.0000 1.0000 -0.0000
vn -0.0000 0.3714 -0.9285
vn 1.0000 -0.0000 -0.0000
vn -1.0000 -0.0000 -0.0000
vn 0.6804 0.2722 -0.6804
vn -0.6804 0.2722 -0.6804
vn -0.6804 0.2722 0.6804
vn 0.6804 0.2722 0.6804
vn -0.0000 -1.0000 -0.0000
vn -0.0000 -0.7071 -0.7071
vn -0.0000 -0.7071 0.7071
vt 0.007452 1.000008
vt 0.234024 0.730885
vt 0.234024 0.000002
vt 0.007452 0.000002
vt 0.992548 0.000002
vt 0.992548 1.000008
vt 0.999936 1.000008
vt 0.999936 0.000002
vt 0.000064 1.000008
vt 0.000064 0.000002
vt 0.765976 0.730885
vt 0.765976 0.000002
vt 1.833333 -0.220000
vt 1.833333 -0.146667
vt 1.220000 -0.146667
vt 1.220000 -0.220000
vt 1.833333 -0.113333
vt 1.220000 -0.113333
vt 1.833333 0.540000
vt 1.220000 0.540000
vt 1.220000 0.546667
vt 1.833333 0.546667
vt -0.833333 -0.220000
vt -0.833333 -0.146667
vt -0.220000 -0.146667
vt -0.220000 -0.220000
vt -0.833333 -0.113333
vt -0.220000 -0.113333
vt -0.220000 -0.146667
vt -0.833333 0.460001
vt -0.220000 0.460000
vt -0.220000 0.453334
vt -0.833333 0.453334
vt -0.220000 -0.220000
vt 1.220000 -0.220000
vt 1.220000 -0.113333
vt 1.220000 0.460000
vt 1.833333 0.460000
vt 1.833333 0.453333
vt 1.220000 0.453334
vt -0.220000 -0.113333
vt -0.220000 0.540000
vt -0.833333 0.540000
vt -0.833333 0.546667
vt -0.220000 0.546667
vt 0.234024 0.730886
vt 0.234024 0.733613
vt 0.765976 0.733613
vt 0.765976 0.733613
vt 0.234024 0.733613
vt 0.765976 0.000002
vt 0.765976 0.730886
vt -0.113333 0.546667
vt -0.146667 0.560000
vt -0.220000 0.560000
vt -0.220000 0.540001
vt -0.113333 0.540000
vt -0.220000 0.440000
vt -0.146667 0.440000
vt -0.113333 0.453334
vt -0.113333 0.460000
vt -0.220000 0.460000
vt -0.146667 0.440000
vt -0.220000 0.440000
vt -0.220000 0.460000
vt -0.113333 0.460000
vt -0.113333 0.453334
vt -0.113333 0.546667
vt -0.113333 0.540001
vt -0.220000 0.540001
vt -0.220000 0.560001
vt -0.146667 0.560001
vt 1.875267 -0.230000
vt 1.833267 -0.230000
vt 1.833267 -0.303333
vt 1.875267 -0.303333
vt -0.875332 -0.230000
vt -0.875333 -0.303333
vt -0.833332 -0.303333
vt -0.833332 -0.230000
vt 1.865839 -0.196667
vt 1.833172 -0.196667
vt 1.865838 -0.196667
vt 1.875266 -0.230000
vt 1.833266 -0.230000
vt 1.833172 -0.196667
vt -0.833333 -0.290000
vt -0.833333 -0.296667
vt -0.856667 -0.273333
vt -0.853333 -0.270000
vt -0.875333 -0.230000
vt -0.833333 -0.230000
vt -0.833333 -0.303333
vt -0.875334 -0.303333
vt 1.875266 -0.303333
vt 1.833266 -0.303333
vt -0.865895 -0.196667
vt -0.833228 -0.196667
vt -0.833333 -0.210000
vt -0.853333 -0.230000
vt -0.856667 -0.226666
vt -0.833333 -0.203333
vt -0.865894 -0.196667
vt -0.833227 -0.196667
vt 1.833333 -0.210001
vt 1.833333 -0.203334
vt 1.856667 -0.226667
vt 1.853333 -0.230000
vt 1.833333 -0.290000
vt 1.853333 -0.270000
vt 1.856667 -0.273334
vt 1.833333 -0.296667
vt 1.220097 0.566406
vt 1.220097 0.433594
vt -0.220097 0.433594
vt -0.220097 0.566406
vt 1.234375 0.433594
vt -0.218750 0.433594
vt -0.218750 0.566406
vt 1.234375 0.566406
vt -0.241485 1.173827
vt 1.189940 1.173828
vt 1.189714 1.201171
vt -0.268627 1.201172
vt 1.179688 0.445312
vt 1.179688 0.554687
vt -0.218750 0.554688
vt -0.218750 0.445312
vt 1.234284 0.496094
vt 1.233758 0.511719
vt -0.139292 0.511717
vt -0.151484 0.496094
vt 1.192620 1.207031
vt -0.192557 1.207031
vt -0.219697 1.234375
vt 1.219635 1.234375
vt 1.179688 0.554688
vt 1.180274 1.191406
vt -0.180498 1.191406
vt -0.165559 1.179688
vt 1.165786 1.179688
vt 1.234283 0.496096
vt -0.151490 0.496091
vt -0.139298 0.511716
vt 1.233753 0.511719
vt 1.199128 1.113280
vt 1.198598 1.101562
vt -0.174448 1.101561
vt -0.186639 1.113279
vt -0.164062 0.445313
vt 1.164062 0.445312
vt 1.164062 0.554688
vt -0.164062 0.554687
vt 1.189715 1.201173
vt 1.189938 1.173827
vt -0.241486 1.173826
vt -0.268629 1.201171
vt 1.187047 0.978517
vt 1.187643 0.966797
vt -0.243850 0.966797
vt -0.258911 0.978517
vt 1.224872 0.505857
vt -0.233471 0.505848
vt -0.206328 0.533191
vt 1.225095 0.533201
vt 1.215961 0.721408
vt -0.195752 0.722657
vt -0.183639 0.734375
vt 1.215529 0.733846
vt 1.165786 1.179688
vt -0.165559 1.179688
vt -0.180498 1.191406
vt 1.180274 1.191406
vt 1.180764 0.445312
vt -0.180919 0.445312
vt -0.193117 0.433594
vt 1.193270 0.433594
vt 1.219635 1.234375
vt -0.219697 1.234375
vt -0.192557 1.207031
vt 1.193270 0.566406
vt -0.193117 0.566406
vt -0.180919 0.554687
vt 1.180764 0.554688
vt 1.224870 0.505856
vt 1.225094 0.533200
vt -0.206330 0.533191
vt -0.233472 0.505849
vt 1.222239 0.729775
vt 1.222813 0.740771
vt -0.208694 0.740234
vt -0.223755 0.728517
vt -0.174451 1.101561
vt 1.198598 1.101562
vt 1.199129 1.113281
vt -0.186644 1.113281
vt -0.243850 0.966797
vt 1.187643 0.966797
vt 1.187046 0.978516
vt -0.258911 0.978516
s 0
usemtl wall_3
f 2/6/3 1/5/3 5/8/3 6/7/3
f 11/4/4 12/1/4 16/9/4 15/10/4
f 2/6/6 36/11/6 29/12/6 1/5/6
f 11/4/6 43/3/6 38/46/6 12/1/6
f 12/1/6 38/47/6 36/48/6 2/6/6
usemtl wall_3_rear
f 10/1/1 39/2/1 40/3/1 9/4/1
f 3/5/2 4/6/2 8/7/2 7/8/2
f 10/1/5 9/4/5 13/10/5 14/9/5
f 4/6/1 37/49/1 39/50/1 10/1/1
f 3/5/1 26/51/1 37/52/1 4/6/1
usemtl door_frame_wood_1
f 19/13/6 68/14/6 27/15/6 30/16/6
f 67/17/7 28/18/7 27/15/7 68/14/7
f 66/19/8 35/20/8 28/21/8 67/22/8
f 25/23/1 24/24/1 46/25/1 45/26/1
f 55/27/9 47/28/9 46/29/9 24/24/9
f 54/30/8 48/31/8 47/32/8 55/33/8
f 41/29/6 61/24/6 18/23/6 44/34/6
f 32/15/1 22/14/1 23/13/1 31/35/1
f 33/36/9 21/17/9 22/14/9 32/15/9
f 34/37/8 20/38/8 21/39/8 33/40/8
f 42/41/7 17/27/7 61/24/7 41/25/7
f 49/42/8 60/43/8 17/44/8 42/45/8
f 42/53/10 41/54/10 44/55/10 43/56/10 49/57/10
f 45/58/10 46/59/10 47/60/10 48/61/10 40/62/10
f 32/63/11 31/64/11 26/65/11 34/66/11 33/67/11
f 28/68/11 35/69/11 29/70/11 30/71/11 27/72/11
f 22/73/2 52/74/2 51/75/2 23/76/2
f 68/77/3 19/78/3 69/79/3 70/80/3
f 21/81/12 53/82/12 52/74/12 22/73/12
f 55/83/13 24/84/13 57/85/13 59/86/13
f 54/87/8 55/88/8 59/89/8 58/90/8
f 61/91/4 64/92/4 63/93/4 18/94/4
f 24/84/5 25/95/5 56/96/5 57/85/5
f 17/97/14 65/98/14 64/92/14 61/91/14
f 60/99/8 62/100/8 65/101/8 17/102/8
f 67/103/15 68/77/15 70/80/15 72/104/15
f 66/105/8 67/106/8 72/107/8 71/108/8
f 20/109/8 50/110/8 53/111/8 21/112/8
f 78/113/8 77/114/8 73/115/8 74/116/8
f 73/117/11 87/118/11 88/119/11 74/120/11
f 99/121/6 101/122/6 86/123/6 78/124/6
f 86/119/10 85/118/10 77/117/10 78/120/10
f 79/125/10 80/126/10 84/127/10 83/128/10
f 103/129/6 84/130/6 80/131/6 97/132/6
f 89/133/1 91/134/1 73/135/1 77/136/1
f 76/137/11 75/125/11 81/128/11 82/127/11
f 100/138/6 97/139/6 80/140/6 76/141/6
f 96/142/1 92/143/1 79/144/1 83/145/1
f 94/146/1 81/147/1 75/148/1 90/149/1
f 79/150/16 75/151/16 76/152/16 80/153/16
f 85/154/1 93/155/1 89/156/1 77/157/1
f 93/158/5 94/159/5 90/160/5 89/161/5
f 87/162/1 73/163/1 91/164/1 95/165/1
f 95/166/2 91/167/2 92/168/2 96/169/2
f 75/170/1 79/171/1 92/172/1 90/173/1
f 90/174/17 92/175/17 91/176/17 89/177/17
f 78/178/6 74/179/6 98/180/6 99/133/6
f 99/181/18 98/182/18 97/183/18 100/184/18
f 88/185/6 104/186/6 98/187/6 74/188/6
f 104/189/3 103/190/3 97/191/3 98/192/3
f 76/193/6 82/194/6 102/195/6 100/196/6
f 100/197/4 102/198/4 101/199/4 99/200/4
l 49 48
o double_door_4_piece_1
v 1.000000 -0.000000 0.060000
v 1.000000 2.100000 0.060001
v 1.000000 0.000000 0.000001
v 1.000000 2.100000 0.000001
v 0.000000 -0.000000 0.060000
v 0.000000 2.100000 0.060001
v 0.000000 0.000000 0.000001
v 0.000000 2.100000 0.000001
v 0.223626 1.661782 0.060001
v 0.771818 1.661782 0.060001
v 0.775615 1.001070 0.060001
v 0.218548 1.000035 0.060001
v 0.223330 1.661713 0.000001
v 0.223114 0.999014 0.000001
v 0.775830 0.998884 0.000001
v 0.771575 1.661000 0.000001
v 0.259614 1.625517 0.075001
v 0.735761 1.625516 0.075001
v 0.739141 1.037267 0.075001
v 0.255093 1.036368 0.075001
v 0.259583 1.625401 -0.014999
v 0.259391 1.035271 -0.014999
v 0.739331 1.035158 -0.014999
v 0.735542 1.624782 -0.014999
v 0.223626 1.661782 0.075001
v 0.771818 1.661782 0.075001
v 0.775615 1.001070 0.075001
v 0.218548 1.000035 0.075001
v 0.223330 1.661713 -0.014999
v 0.223114 0.999014 -0.014999
v 0.775830 0.998884 -0.014999
v 0.771575 1.661000 -0.014999
v 0.259614 1.625517 0.035001
v 0.735761 1.625516 0.035001
v 0.739141 1.037267 0.035001
v 0.255093 1.036368 0.035001
v 0.259583 1.625401 0.025001
v 0.259391 1.035271 0.025001
v 0.739331 1.035158 0.025001
v 0.735542 1.624782 0.025001
v 0.951635 1.095118 0.059500
v 0.951635 0.904882 0.059500
v 0.943577 0.912940 0.067000
v 0.888366 0.904882 0.059500
v 0.896425 0.912940 0.067000
v 0.943577 1.087060 0.067000
v 0.888366 1.095118 0.059500
v 0.896425 1.087060 0.067000
v 0.888369 1.095118 0.000500
v 0.888369 0.904882 0.000500
v 0.896428 0.912940 -0.007000
v 0.951638 0.904882 0.000500
v 0.943580 0.912940 -0.007000
v 0.896428 1.087060 -0.007000
v 0.951638 1.095118 0.000500
v 0.943580 1.087060 -0.007000
v 0.914525 1.077852 -0.004550
v 0.914525 1.077852 -0.009993
v 0.917961 1.082074 -0.004550
v 0.917961 1.082074 -0.009993
v 0.923335 1.081208 -0.004550
v 0.923335 1.081208 -0.009993
v 0.925273 1.076122 -0.004550
v 0.925273 1.076122 -0.009993
v 0.921836 1.071900 -0.004550
v 0.921836 1.071900 -0.009993
v 0.916462 1.072766 -0.004550
v 0.916462 1.072766 -0.009993
v 0.915603 0.924332 -0.004550
v 0.915603 0.924332 -0.009993
v 0.920646 0.926378 -0.004550
v 0.920646 0.926378 -0.009993
v 0.924941 0.923034 -0.004550
v 0.924941 0.923034 -0.009993
v 0.924192 0.917642 -0.004550
v 0.924192 0.917642 -0.009993
v 0.919148 0.915596 -0.004550
v 0.919148 0.915596 -0.009993
v 0.914853 0.918940 -0.004550
v 0.914853 0.918940 -0.009993
v 0.921509 1.082243 0.064547
v 0.921509 1.082243 0.069990
v 0.916249 1.080841 0.064547
v 0.916249 1.080841 0.069990
v 0.914834 1.075585 0.064547
v 0.914834 1.075585 0.069990
v 0.918678 1.071731 0.064547
v 0.918678 1.071731 0.069990
v 0.923937 1.073133 0.064547
v 0.923937 1.073133 0.069990
v 0.925353 1.078389 0.064547
v 0.925353 1.078389 0.069990
v 0.925210 0.919127 0.064548
v 0.925210 0.919127 0.069991
v 0.924263 0.924487 0.064548
v 0.924263 0.924487 0.069991
v 0.919148 0.926348 0.064548
v 0.919148 0.926348 0.069991
v 0.914979 0.922848 0.064548
v 0.914979 0.922848 0.069991
v 0.915926 0.917487 0.064548
v 0.915926 0.917487 0.069991
v 0.921042 0.915627 0.064548
v 0.921042 0.915627 0.069991
vn 1.0000 -0.0000 -0.0000
vn -1.0000 -0.0000 -0.0000
vn -0.0000 -1.0000 -0.0000
vn -0.0000 1.0000 -0.0000
vn -0.0000 -0.0000 -1.0000
vn 0.0013 1.0000 -0.0000
vn -0.0000 -0.0000 1.0000
vn -1.0000 0.0077 -0.0000
vn -0.0019 1.0000 -0.0000
vn 1.0000 0.0057 -0.0000
vn 0.0019 -1.0000 -0.0000
vn -0.0002 -1.0000 -0.0000
vn 1.0000 0.0064 -0.0000
vn -1.0000 0.0003 -0.0000
vn -0.0013 -1.0000 -0.0000
vn 1.0000 -0.0077 -0.0000
vn -1.0000 -0.0057 -0.0000
vn 0.0002 1.0000 -0.0000
vn -1.0000 -0.0064 -0.0000
vn 1.0000 -0.0003 -0.0000
vn 0.0415 0.6581 0.7517
vn -0.0415 0.7026 0.7103
vn 0.0416 0.7027 0.7103
vn -0.0415 0.6581 0.7517
vn -0.6581 0.0416 0.7518
vn -0.7026 -0.0415 0.7103
vn -0.7027 0.0416 0.7103
vn -0.6581 -0.0415 0.7517
vn 0.7026 -0.0415 0.7103
vn 0.6581 0.0416 0.7518
vn 0.6581 -0.0415 0.7517
vn 0.7027 0.0416 0.7103
vn -0.0415 -0.6581 0.7517
vn 0.0415 -0.7026 0.7103
vn -0.0416 -0.7027 0.7103
vn 0.0415 -0.6581 0.7517
vn -0.0415 0.6581 -0.7517
vn 0.0416 0.7027 -0.7103
vn -0.0415 0.7026 -0.7103
vn 0.0415 0.6581 -0.7517
vn 0.6581 0.0416 -0.7518
vn 0.7026 -0.0415 -0.7103
vn 0.7027 0.0416 -0.7103
vn 0.6581 -0.0415 -0.7517
vn -0.7026 -0.0415 -0.7103
vn -0.6581 0.0416 -0.7518
vn -0.6581 -0.0415 -0.7517
vn -0.7027 0.0416 -0.7103
vn 0.0415 -0.6581 -0.7517
vn -0.0415 -0.7026 -0.7103
vn 0.0416 -0.7027 -0.7103
vn -0.0415 -0.6581 -0.7517
vn -0.7755 0.6313 -0.0000
vn 0.1590 0.9873 -0.0000
vn 0.9345 0.3560 -0.0000
vn 0.7755 -0.6313 -0.0000
vn -0.1590 -0.9873 -0.0000
vn -0.9345 -0.3560 -0.0000
vn -0.3760 0.9266 -0.0000
vn 0.6145 0.7890 -0.0000
vn 0.9905 -0.1377 -0.0000
vn 0.3760 -0.9266 -0.0000
vn -0.6145 -0.7890 -0.0000
vn -0.9905 0.1377 -0.0000
vn -0.2576 0.9663 -0.0000
vn -0.9656 0.2601 -0.0000
vn -0.7080 -0.7062 -0.0000
vn 0.2576 -0.9663 -0.0000
vn 0.9656 -0.2601 -0.0000
vn 0.7080 0.7062 -0.0000
vn 0.9848 0.1739 -0.0000
vn 0.3417 0.9398 -0.0000
vn -0.6430 0.7658 -0.0000
vn -0.9848 -0.1739 -0.0000
vn -0.3417 -0.9398 -0.0000
vn 0.6430 -0.7659 -0.0000
vt 0.000000 0.000000
vt 0.030457 0.000000
vt 0.030457 1.004854
vt 0.000000 1.004854
vt 0.469543 0.730583
vt 0.500000 0.730583
vt 0.500000 0.252427
vt 0.469543 0.252427
vt 0.500000 0.002427
vt 0.388103 0.477633
vt 0.385893 0.793244
vt 0.500000 1.002427
vt 0.456562 0.043288
vt 0.043040 0.043288
vt 0.043040 0.032468
vt 0.456562 0.032468
vt 0.370093 0.776237
vt 0.388232 0.793548
vt 0.114107 0.793244
vt 0.132117 0.775975
vt 0.000000 1.002427
vt 0.000000 0.002427
vt 0.109346 0.478622
vt 0.111833 0.793750
vt 0.000868 0.086567
vt 0.000868 0.097386
vt 0.500000 0.097386
vt 0.500000 0.086567
vt 0.111768 0.793548
vt 0.111555 0.478063
vt 0.385922 0.793754
vt 0.388116 0.479101
vt 0.067504 0.097386
vt 0.067504 0.068534
vt 0.432604 0.068534
vt 0.432604 0.097386
vt 0.500000 0.086567
vt 0.500000 0.097386
vt 0.001649 0.097386
vt 0.001649 0.086567
vt 0.039993 0.086567
vt 0.039993 0.097386
vt 0.460169 0.097386
vt 0.460169 0.086567
vt 0.456338 0.086567
vt 0.456338 0.097386
vt 0.042857 0.097386
vt 0.042857 0.086567
vt 0.456725 0.043288
vt 0.456725 0.032468
vt 0.039831 0.032468
vt 0.039831 0.043288
vt 0.000000 0.043288
vt 0.000000 0.032468
vt 0.499410 0.032468
vt 0.499410 0.043288
vt 0.499948 0.043288
vt 0.499948 0.032468
vt 0.000098 0.032468
vt 0.000098 0.043288
vt 0.132092 0.776483
vt 0.114078 0.793754
vt 0.388167 0.793750
vt 0.370168 0.776480
vt 0.130150 0.496340
vt 0.111884 0.479101
vt 0.372372 0.495924
vt 0.390654 0.478622
vt 0.429217 0.032468
vt 0.070219 0.032468
vt 0.070219 0.061321
vt 0.429217 0.061321
vt 0.370290 0.495303
vt 0.388445 0.478063
vt 0.130161 0.494943
vt 0.111897 0.477633
vt 0.373096 0.497573
vt 0.129442 0.497573
vt 0.429194 0.097386
vt 0.429194 0.068534
vt 0.070054 0.068534
vt 0.070054 0.097386
vt 0.028273 0.097386
vt 0.028273 0.068534
vt 0.472646 0.068534
vt 0.472646 0.097386
vt 0.472646 0.097386
vt 0.472646 0.068534
vt 0.028951 0.068534
vt 0.028951 0.097386
vt 0.370558 0.497573
vt 0.429362 0.032468
vt 0.429362 0.061321
vt 0.067361 0.061321
vt 0.067361 0.032468
vt 0.027360 0.032468
vt 0.027360 0.061321
vt 0.472092 0.061321
vt 0.472092 0.032468
vt 0.472559 0.032468
vt 0.472559 0.061321
vt 0.027446 0.061321
vt 0.027446 0.032468
vt 0.070488 0.952198
vt 0.013560 1.000000
vt 0.486440 1.000000
vt 0.429512 0.952198
vt 0.070488 0.047802
vt 0.429512 0.047802
vt 0.500000 0.990814
vt 0.500000 0.009186
vt 0.000000 0.990814
vt 0.000000 0.009186
vt 0.486440 0.000000
vt 0.013560 0.000000
vt 0.777132 0.324472
vt 0.808793 0.324472
vt 0.808793 0.296817
vt 0.777132 0.296817
vt 0.762469 0.324472
vt 0.722164 0.324472
vt 0.722164 0.296817
vt 0.762468 0.296817
vt 0.802303 0.324472
vt 0.764153 0.324472
vt 0.764153 0.296817
vt 0.802303 0.296817
vt 0.732494 0.324472
vt 0.732494 0.296817
vt 0.762468 0.922478
vt 0.722164 0.918082
vt 0.707631 0.892238
vt 0.733403 0.870791
vt 0.773708 0.875187
vt 0.788241 0.901030
vt 0.733403 0.324472
vt 0.773708 0.324472
vt 0.773708 0.296817
vt 0.733403 0.296817
vt 0.738983 0.324472
vt 0.738983 0.296817
vt 0.780154 0.324470
vt 0.742327 0.324470
vt 0.742327 0.296815
vt 0.780154 0.296815
vt 0.710118 0.324470
vt 0.710118 0.296815
vt 0.740993 0.324470
vt 0.700558 0.324470
vt 0.700558 0.296815
vt 0.740993 0.296815
vt 0.715738 0.324470
vt 0.753566 0.324470
vt 0.753566 0.296815
vt 0.715738 0.296815
vt 0.742327 0.131445
vt 0.710118 0.114452
vt 0.715738 0.087061
vt 0.753566 0.076662
vt 0.785774 0.093655
vt 0.780154 0.121047
vt 0.785774 0.324470
vt 0.785774 0.296815
vt 0.710293 0.324470
vt 0.750728 0.324470
vt 0.750728 0.296815
vt 0.710293 0.296815
vt 0.735859 0.675528
vt 0.775305 0.675528
vt 0.775305 0.703183
vt 0.735859 0.703183
vt 0.799548 0.675528
vt 0.760128 0.675528
vt 0.760128 0.703183
vt 0.799548 0.703183
vt 0.731224 0.675528
vt 0.731224 0.703183
vt 0.757093 0.675528
vt 0.717647 0.675528
vt 0.717646 0.703183
vt 0.757093 0.703183
vt 0.775305 0.916215
vt 0.785922 0.889511
vt 0.757093 0.869931
vt 0.717646 0.877054
vt 0.707029 0.903758
vt 0.735859 0.923338
vt 0.741739 0.675528
vt 0.781159 0.675528
vt 0.781159 0.703183
vt 0.741739 0.703183
vt 0.810063 0.675528
vt 0.810063 0.703183
vt 0.711695 0.675530
vt 0.751897 0.675530
vt 0.751897 0.703184
vt 0.711695 0.703185
vt 0.715199 0.675530
vt 0.753566 0.675530
vt 0.753566 0.703185
vt 0.715199 0.703184
vt 0.784831 0.675530
vt 0.784831 0.703185
vt 0.739598 0.675530
vt 0.699396 0.675530
vt 0.699396 0.703185
vt 0.739598 0.703185
vt 0.715199 0.121839
vt 0.753566 0.131290
vt 0.784831 0.113507
vt 0.777730 0.086274
vt 0.739364 0.076823
vt 0.708099 0.094605
vt 0.777730 0.675530
vt 0.739364 0.675530
vt 0.739364 0.703185
vt 0.777730 0.703185
vt 0.708099 0.675530
vt 0.708099 0.703185
s 1
usemtl door_4_double
f 105/201/19 107/202/19 108/203/19 106/204/19
f 111/202/20 109/201/20 110/204/20 112/203/20
f 107/205/21 105/206/21 109/207/21 111/208/21
f 112/208/22 110/207/22 106/206/22 108/205/22
f 107/209/23 119/210/23 120/211/23 108/212/23
f 117/213/24 120/214/24 136/215/24 133/216/24
f 125/217/23 133/218/23 136/219/23 128/220/23
f 110/221/25 109/222/25 116/223/25 113/224/25
f 116/225/26 132/226/26 129/227/26 113/228/26
f 111/222/23 112/221/23 117/229/23 118/230/23
f 106/212/25 110/221/25 113/224/25 114/231/25
f 109/222/25 105/209/25 115/232/25 116/223/25
f 115/232/25 105/209/25 106/212/25 114/231/25
f 119/210/23 107/209/23 111/222/23 118/230/23
f 123/233/27 139/234/27 140/235/27 124/236/27
f 114/237/28 130/238/28 131/239/28 115/240/28
f 115/241/29 131/242/29 132/243/29 116/244/29
f 113/245/22 129/246/22 130/247/22 114/248/22
f 118/249/30 134/250/30 135/251/30 119/252/30
f 119/253/31 135/254/31 136/255/31 120/256/31
f 117/257/32 133/258/32 134/259/32 118/260/32
f 122/261/25 130/262/25 129/263/25 121/264/25
f 123/265/25 131/266/25 130/262/25 122/261/25
f 124/267/25 132/268/25 131/266/25 123/265/25
f 121/264/25 129/263/25 132/268/25 124/267/25
f 125/269/33 128/270/33 144/271/33 141/272/33
f 126/273/23 134/274/23 133/218/23 125/217/23
f 127/275/23 135/276/23 134/274/23 126/273/23
f 128/220/23 136/219/23 135/276/23 127/275/23
f 137/264/25 140/277/25 139/278/25 138/261/25
f 121/279/21 137/280/21 138/281/21 122/282/21
f 124/283/34 140/284/34 137/285/34 121/286/34
f 122/287/35 138/288/35 139/289/35 123/290/35
f 144/220/23 143/278/23 142/291/23 141/217/23
f 126/292/36 142/293/36 143/294/36 127/295/36
f 127/296/37 143/297/37 144/298/37 128/299/37
f 125/300/38 141/301/38 142/302/38 126/303/38
f 108/212/23 120/211/23 117/229/23 112/221/23
usemtl door_handle_2
f 150/304/39 145/305/40 151/306/41 152/307/42
f 147/308/25 150/304/25 152/307/25 149/309/25
f 152/307/43 151/310/44 148/311/45 149/309/46
f 145/312/47 150/304/48 147/308/49 146/313/50
f 149/309/51 148/314/52 146/315/53 147/308/54
f 158/304/55 153/305/56 159/306/57 160/307/58
f 155/308/23 158/304/23 160/307/23 157/309/23
f 160/307/59 159/310/60 156/311/61 157/309/62
f 153/312/63 158/304/64 155/308/65 154/313/66
f 157/309/67 156/314/68 154/315/69 155/308/70
f 161/316/71 163/317/71 164/318/71 162/319/71
f 163/320/72 165/321/72 166/322/72 164/323/72
f 165/324/73 167/325/73 168/326/73 166/327/73
f 167/325/74 169/328/74 170/329/74 168/326/74
f 164/330/23 166/331/23 168/332/23 170/333/23 172/334/23 162/335/23
f 169/336/75 171/337/75 172/338/75 170/339/75
f 171/340/76 161/316/76 162/319/76 172/341/76
f 173/342/77 175/343/77 176/344/77 174/345/77
f 175/343/78 177/346/78 178/347/78 176/344/78
f 177/348/79 179/349/79 180/350/79 178/351/79
f 179/352/80 181/353/80 182/354/80 180/355/80
f 176/356/23 178/357/23 180/358/23 182/359/23 184/360/23 174/361/23
f 181/353/81 183/362/81 184/363/81 182/354/81
f 183/364/82 173/365/82 174/366/82 184/367/82
f 185/368/83 187/369/83 188/370/83 186/371/83
f 187/372/84 189/373/84 190/374/84 188/375/84
f 189/373/85 191/376/85 192/377/85 190/374/85
f 191/378/86 193/379/86 194/380/86 192/381/86
f 188/382/25 190/383/25 192/384/25 194/385/25 196/386/25 186/387/25
f 193/388/87 195/389/87 196/390/87 194/391/87
f 195/389/88 185/392/88 186/393/88 196/390/88
f 197/394/89 199/395/89 200/396/89 198/397/89
f 199/398/90 201/399/90 202/400/90 200/401/90
f 201/399/91 203/402/91 204/403/91 202/400/91
f 203/404/92 205/405/92 206/406/92 204/407/92
f 200/408/25 202/409/25 204/410/25 206/411/25 208/412/25 198/413/25
f 205/414/93 207/415/93 208/416/93 206/417/93
f 207/415/94 197/418/94 198/419/94 208/416/94
o double_door_4_piece_1_handle
v 0.008660 -0.005000 0.032000
v 0.008660 0.005000 0.032000
v 0.009093 -0.005250 -0.010000
v 0.009093 0.005250 -0.010000
v 0.000000 -0.010000 0.032000
v -0.008660 -0.005000 0.032000
v 0.000000 0.010000 0.032000
v -0.008660 0.005000 0.032000
v 0.000000 -0.010500 -0.010000
v -0.009093 -0.005250 -0.010000
v 0.000000 0.010500 -0.010000
v -0.009093 0.005250 -0.010000
v -0.110000 -0.010000 0.032000
v -0.110000 0.010000 0.032000
v 0.006867 -0.003965 0.042000
v 0.008660 -0.005000 0.040000
v 0.008660 0.005000 0.040000
v 0.006867 0.003965 0.042000
v 0.000000 -0.007954 0.042000
v 0.000000 -0.010000 0.040000
v 0.000000 0.010000 0.040000
v 0.000000 0.007954 0.042000
v -0.110000 -0.007954 0.042000
v -0.110000 -0.010000 0.040000
v -0.110000 0.010000 0.040000
v -0.110000 0.007954 0.042000
v 0.008541 0.002709 -0.003815
v 0.013984 0.002709 -0.003815
v 0.008541 0.005430 0.000899
v 0.013984 0.005430 0.000899
v 0.008541 0.002709 0.005613
v 0.013984 0.002709 0.005613
v 0.008541 -0.002735 0.005613
v 0.013984 -0.002735 0.005613
v 0.008541 -0.005456 0.000899
v 0.013984 -0.005456 0.000899
v 0.008541 -0.002735 -0.003815
v 0.013984 -0.002735 -0.003815
v -0.116000 -0.005464 0.032000
v -0.113049 -0.009183 0.032000
v -0.113049 0.009183 0.032000
v -0.116000 0.005464 0.032000
v -0.113049 -0.009183 0.040000
v -0.116000 -0.005456 0.040000
v -0.111980 -0.007423 0.042000
v -0.113932 -0.004683 0.042000
v -0.113932 0.004683 0.042000
v -0.111980 0.007423 0.042000
v -0.116000 0.005456 0.040000
v -0.113049 0.009183 0.040000
v 0.008660 -0.005000 -0.126000
v 0.008660 0.005000 -0.126000
v 0.009093 -0.005250 -0.084000
v 0.009093 0.005250 -0.084000
v 0.000000 -0.010000 -0.126000
v -0.008660 -0.005000 -0.126000
v 0.000000 0.010000 -0.126000
v -0.008660 0.005000 -0.126000
v 0.000000 -0.010500 -0.084000
v -0.009093 -0.005250 -0.084000
v 0.000000 0.010500 -0.084000
v -0.009093 0.005250 -0.084000
v -0.110000 -0.010000 -0.126000
v -0.110000 0.010000 -0.126000
v 0.006867 -0.003965 -0.136000
v 0.008660 -0.005000 -0.134000
v 0.008660 0.005000 -0.134000
v 0.006867 0.003965 -0.136000
v 0.000000 -0.007954 -0.136000
v 0.000000 -0.010000 -0.134000
v 0.000000 0.010000 -0.134000
v 0.000000 0.007954 -0.136000
v -0.110000 -0.007954 -0.136000
v -0.110000 -0.010000 -0.134000
v -0.110000 0.010000 -0.134000
v -0.110000 0.007954 -0.136000
v 0.008541 0.002709 -0.090185
v 0.013984 0.002709 -0.090185
v 0.008541 0.005430 -0.094899
v 0.013984 0.005430 -0.094899
v 0.008541 0.002709 -0.099613
v 0.013984 0.002709 -0.099613
v 0.008541 -0.002735 -0.099613
v 0.013984 -0.002735 -0.099613
v 0.008541 -0.005456 -0.094899
v 0.013984 -0.005456 -0.094899
v 0.008541 -0.002735 -0.090185
v 0.013984 -0.002735 -0.090185
v -0.116000 -0.005464 -0.126000
v -0.113049 -0.009183 -0.126000
v -0.113049 0.009183 -0.126000
v -0.116000 0.005464 -0.126000
v -0.113048 -0.009183 -0.134000
v -0.116000 -0.005456 -0.134000
v -0.111980 -0.007423 -0.136000
v -0.113932 -0.004683 -0.136000
v -0.113932 0.004683 -0.136000
v -0.111980 0.007423 -0.136000
v -0.116000 0.005456 -0.134000
v -0.113048 0.009183 -0.134000
vn 0.8660 0.5000 -0.0000
vn 0.3827 0.9239 -0.0000
vn 0.8660 0.5000 0.0119
vn -0.0000 0.9999 0.0119
vn 0.6017 -0.3472 0.7193
vn 0.6015 -0.3476 0.7193
vn 0.6015 0.3475 0.7193
vn 0.6017 0.3472 0.7193
vn 0.3134 -0.6335 0.7075
vn 0.2381 -0.6579 0.7145
vn -0.8660 0.5000 0.0119
vn -0.8660 -0.5000 0.0119
vn -0.0000 -0.0000 1.0000
vn -0.6459 0.2141 0.7328
vn -0.6437 0.2210 0.7327
vn -0.6437 -0.2210 0.7327
vn -0.6459 -0.2141 0.7328
vn -0.5490 0.8358 0.0002
vn -0.0815 0.9967 -0.0000
vn -0.1304 0.9902 0.0493
vn -0.1304 -0.9902 0.0493
vn -0.1793 -0.9838 -0.0000
vn -0.5490 -0.8358 0.0002
vn -0.9444 0.3287 0.0002
vn -0.9443 0.3291 0.0002
vn -0.9443 -0.3291 0.0002
vn -0.9444 -0.3287 0.0002
vn 0.2381 0.6579 0.7145
vn 0.3134 0.6334 0.7075
vn 0.8660 -0.5000 -0.0000
vn 0.3827 -0.9239 -0.0000
vn -0.3875 -0.5684 0.7257
vn -0.3794 -0.5741 0.7256
vn -0.0835 -0.6727 0.7352
vn -0.1330 -0.6880 0.7134
vn -0.0646 0.6998 0.7114
vn -0.0933 0.7211 0.6865
vn -0.3794 0.5741 0.7256
vn -0.3875 0.5684 0.7257
vn -0.0000 -0.0000 -1.0000
vn -0.0000 0.8660 -0.5000
vn -0.0000 0.8660 0.5000
vn -0.0000 -0.8660 0.5000
vn 1.0000 -0.0000 -0.0000
vn -0.0000 -0.8660 -0.5000
vn 0.8660 0.5000 -0.0119
vn -0.0000 0.9999 -0.0119
vn -0.0000 -0.9999 -0.0119
vn -0.8660 -0.5000 -0.0119
vn 0.8660 -0.5000 -0.0119
vn -0.8660 0.5000 -0.0119
vn 0.3391 -0.6550 -0.6753
vn 0.6042 -0.3487 -0.7165
vn 0.6040 -0.3491 -0.7165
vn 0.2560 -0.6737 -0.6932
vn 0.4127 0.9109 -0.0000
vn -0.6459 0.2141 -0.7328
vn -0.6459 -0.2141 -0.7328
vn -0.6437 -0.2210 -0.7327
vn -0.6437 0.2210 -0.7327
vn -0.5490 0.8358 -0.0002
vn -0.1304 0.9902 -0.0493
vn -0.1793 0.9838 -0.0000
vn -0.1304 -0.9902 -0.0493
vn -0.5490 -0.8358 -0.0002
vn -0.0815 -0.9967 -0.0000
vn -0.9444 0.3287 -0.0002
vn -0.9444 -0.3287 -0.0002
vn -0.9443 -0.3291 -0.0002
vn -0.9443 0.3291 -0.0002
vn 0.6042 0.3487 -0.7165
vn 0.3391 0.6550 -0.6753
vn 0.2560 0.6737 -0.6932
vn 0.6040 0.3491 -0.7165
vn 0.4127 -0.9109 -0.0000
vn -0.3875 -0.5684 -0.7257
vn -0.0616 -0.6977 -0.7137
vn -0.0835 -0.6727 -0.7352
vn -0.3794 -0.5741 -0.7256
vn -0.1306 0.6908 -0.7111
vn -0.3875 0.5684 -0.7257
vn -0.3794 0.5741 -0.7256
vn -0.0866 0.7220 -0.6865
vn 0.8660 -0.5000 0.0119
vn -0.0000 -0.9999 0.0119
vt 0.882184 0.825266
vt 0.882184 0.780311
vt 0.943487 0.780311
vt 0.943487 0.825266
vt 1.000000 0.945494
vt 1.000000 0.886247
vt 0.678162 0.886247
vt 0.678162 0.946792
vt 0.712474 0.815958
vt 0.704541 0.825266
vt 0.781169 0.825266
vt 0.773236 0.815958
vt 0.681902 0.780311
vt 0.666227 0.780311
vt 1.000000 0.859047
vt 0.678162 0.860345
vt 1.000000 0.913553
vt 0.678162 0.912255
vt 0.803808 0.780311
vt 0.778738 0.188896
vt 0.784662 0.182200
vt 0.701048 0.182200
vt 0.706971 0.188896
vt 0.882184 0.193478
vt 0.943487 0.193482
vt 0.943487 0.209307
vt 0.882184 0.209307
vt 0.943487 0.183352
vt 0.882184 0.183352
vt 0.819483 0.780311
vt 0.882184 0.533391
vt 0.943487 0.533391
vt 0.882184 0.481482
vt 0.943487 0.481482
vt 0.681902 0.209307
vt 0.803808 0.209307
vt 0.799739 0.199030
vt 0.778739 0.188896
vt 0.685971 0.199030
vt 0.685971 0.199030
vt 0.672486 0.193482
vt 0.666227 0.209307
vt 0.819483 0.209307
vt 0.813224 0.193482
vt 0.799739 0.199030
vt 0.819483 0.780311
vt 0.781169 0.735356
vt 0.704541 0.735356
vt 0.222824 0.476887
vt 0.222824 0.500000
vt 0.183426 0.500000
vt 0.183426 0.476887
vt 0.222824 0.523113
vt 0.183426 0.523113
vt 0.222824 0.513344
vt 0.222824 0.486656
vt 0.183426 0.486656
vt 0.183426 0.513344
vt 0.222824 0.500000
vt 0.183426 0.500000
vt 0.183426 0.523113
vt 0.242522 0.500000
vt 0.222824 0.523113
vt 0.183426 0.523113
vt 0.163728 0.500000
vt 0.183426 0.476887
vt 0.222824 0.476887
vt 0.222824 0.476887
vt 0.222824 0.513344
vt 0.183426 0.513344
vt 0.183426 0.486656
vt 0.701550 0.178890
vt 0.784160 0.178890
vt 0.943487 0.179584
vt 0.882184 0.179583
vt 0.943487 0.179584
vt 0.672487 0.193478
vt 0.700988 0.178161
vt 0.784722 0.178161
vt 0.813222 0.193478
vt 1.000000 0.839043
vt 0.678162 0.841292
vt 1.000000 1.000000
vt 0.678162 0.998702
vt 0.701048 0.182200
vt 0.784662 0.182200
vt 0.701550 0.178890
vt 0.784160 0.178890
vt 0.882184 0.179583
vt 0.943487 0.179584
vt 0.943487 0.179584
vt 0.882184 0.179583
vt 0.678162 0.931201
vt 1.000000 0.933450
s 1
usemtl door_handle_2
f 210/420/95 215/421/96 229/422/96 225/423/95
f 212/424/97 219/425/98 215/426/98 210/427/97
f 223/428/99 224/429/100 225/430/101 226/431/102
f 227/432/103 228/433/104 224/429/100 223/428/99
f 215/426/98 219/425/98 220/434/105 216/435/105
f 220/434/105 218/436/106 214/437/106 216/435/105
f 223/428/107 226/431/107 230/438/107 227/432/107
f 255/439/108 257/440/109 252/441/110 254/442/111
f 249/443/112 258/444/112 233/445/113 222/446/114
f 221/446/115 232/445/116 251/444/117 248/443/117
f 257/447/118 250/448/119 247/448/120 252/447/121
f 226/431/102 225/430/101 229/449/122 230/438/123
f 209/450/124 224/451/124 228/422/125 213/421/125
f 210/452/95 225/453/95 224/451/124 209/450/124
f 231/454/107 234/455/107 256/456/107 255/457/107 254/442/107 253/458/107
f 253/459/126 251/460/127 232/461/128 231/454/129
f 234/455/130 233/462/131 258/463/132 256/464/133
f 230/438/123 229/449/122 233/462/131 234/455/130
f 229/422/96 215/421/96 222/446/114 233/445/113
f 227/432/107 230/438/107 234/455/107 231/454/107
f 213/421/125 228/422/125 232/445/116 221/446/115
f 222/462/134 215/465/134 216/466/134 214/467/134 213/433/134 221/461/134
f 228/433/104 227/432/103 231/454/129 232/461/128
f 235/468/135 237/469/135 238/470/135 236/471/135
f 237/469/136 239/472/136 240/473/136 238/470/136
f 239/474/107 241/475/107 242/476/107 240/477/107
f 241/472/137 243/478/137 244/479/137 242/480/137
f 238/481/138 240/482/138 242/483/138 244/484/138 246/485/138 236/486/138
f 243/478/139 245/487/139 246/485/139 244/479/139
f 245/475/134 235/488/134 236/489/134 246/490/134
f 252/491/110 251/460/127 253/459/126 254/442/111
f 255/439/108 256/464/133 258/463/132 257/492/109
f 251/444/117 252/493/121 247/494/120 248/443/117
f 257/495/118 258/444/112 249/443/112 250/494/119
f 221/461/134 248/496/134 247/497/134 250/498/134 249/499/134 222/462/134
f 260/452/95 259/450/124 274/451/124 275/453/95
f 262/424/140 260/427/140 265/426/141 269/425/141
f 267/425/142 268/500/143 264/501/143 263/426/142
f 260/427/140 262/424/140 261/502/144 259/503/144
f 265/426/141 266/435/145 270/434/145 269/425/141
f 277/432/146 273/428/147 274/429/148 278/433/149
f 270/434/145 266/435/145 264/437/143 268/436/143
f 260/420/95 275/423/95 279/422/150 265/421/150
f 273/428/134 277/432/134 280/438/134 276/431/134
f 305/439/151 304/442/152 302/504/153 307/505/154
f 299/443/155 272/446/156 283/445/157 308/444/155
f 271/446/158 298/443/159 301/444/159 282/445/160
f 307/447/161 302/447/162 297/448/163 300/448/164
f 276/431/165 280/438/166 279/449/167 275/430/168
f 273/428/147 276/431/165 275/430/168 274/429/148
f 259/450/124 263/421/169 278/422/169 274/451/124
f 281/454/134 303/458/134 304/442/134 305/457/134 306/456/134 284/455/134
f 303/459/170 281/454/171 282/461/172 301/460/173
f 284/455/174 306/464/175 308/463/176 283/462/177
f 280/438/166 284/455/174 283/462/177 279/449/167
f 279/422/150 283/445/157 272/446/156 265/421/150
f 277/432/134 281/454/134 284/455/134 280/438/134
f 263/421/169 271/446/158 282/445/160 278/422/169
f 272/462/107 271/461/107 263/433/107 264/467/107 266/466/107 265/465/107
f 278/433/149 282/461/172 281/454/171 277/432/146
f 285/468/136 286/471/136 288/470/136 287/469/136
f 287/469/135 288/470/135 290/473/135 289/472/135
f 289/474/134 290/477/134 292/476/134 291/475/134
f 291/472/139 292/480/139 294/479/139 293/478/139
f 288/481/138 286/486/138 296/485/138 294/484/138 292/483/138 290/482/138
f 293/478/137 294/479/137 296/485/137 295/487/137
f 295/475/107 296/490/107 286/489/107 285/488/107
f 302/506/153 304/442/152 303/459/170 301/460/173
f 305/439/151 307/507/154 308/463/176 306/464/175
f 301/444/159 298/443/159 297/508/163 302/509/162
f 307/510/161 300/511/164 299/443/155 308/444/155
f 271/461/107 272/462/107 299/499/107 300/498/107 297/497/107 298/496/107
f 209/512/178 213/426/179 217/425/179 211/513/178
f 210/427/97 209/503/178 211/502/178 212/424/97
f 217/425/179 213/426/179 214/501/106 218/500/106
f 259/512/144 261/513/144 267/425/142 263/426/142
o double_door_4_piece_2
v -1.000000 -0.000000 0.060000
v -1.000000 2.100000 0.060001
v -1.000000 0.000000 0.000001
v -1.000000 2.100000 0.000001
v 0.000000 -0.000000 0.060000
v 0.000000 2.100000 0.060001
v 0.000000 0.000000 0.000001
v 0.000000 2.100000 0.000001
v -0.223626 1.661782 0.060001
v -0.771818 1.661782 0.060001
v -0.775615 1.001070 0.060001
v -0.218548 1.000035 0.060001
v -0.223330 1.661713 0.000001
v -0.223114 0.999014 0.000001
v -0.775830 0.998884 0.000001
v -0.771575 1.661000 0.000001
v -0.259614 1.625517 0.075001
v -0.735761 1.625516 0.075001
v -0.739141 1.037267 0.075001
v -0.255093 1.036368 0.075001
v -0.259583 1.625401 -0.014999
v -0.259391 1.035271 -0.014999
v -0.739331 1.035158 -0.014999
v -0.735542 1.624782 -0.014999
v -0.223626 1.661782 0.075001
v -0.771818 1.661782 0.075001
v -0.775615 1.001070 0.075001
v -0.218548 1.000035 0.075001
v -0.223330 1.661713 -0.014999
v -0.223114 0.999014 -0.014999
v -0.775830 0.998884 -0.014999
v -0.771575 1.661000 -0.014999
v -0.259614 1.625517 0.035001
v -0.735761 1.625516 0.035001
v -0.739141 1.037267 0.035001
v -0.255093 1.036368 0.035001
v -0.259583 1.625401 0.025001
v -0.259391 1.035271 0.025001
v -0.739331 1.035158 0.025001
v -0.735542 1.624782 0.025001
v -0.951635 1.095118 0.059500
v -0.951635 0.904882 0.059500
v -0.943577 0.912940 0.067000
v -0.888366 0.904882 0.059500
v -0.896425 0.912940 0.067000
v -0.943577 1.087060 0.067000
v -0.888366 1.095118 0.059500
v -0.896425 1.087060 0.067000
v -0.888369 1.095118 0.000500
v -0.888369 0.904882 0.000500
v -0.896428 0.912940 -0.007000
v -0.951638 0.904882 0.000500
v -0.943580 0.912940 -0.007000
v -0.896428 1.087060 -0.007000
v -0.951638 1.095118 0.000500
v -0.943580 1.087060 -0.007000
v -0.914525 1.077852 -0.004550
v -0.914525 1.077852 -0.009993
v -0.917961 1.082074 -0.004550
v -0.917961 1.082074 -0.009993
v -0.923335 1.081208 -0.004550
v -0.923335 1.081208 -0.009993
v -0.925273 1.076122 -0.004550
v -0.925273 1.076122 -0.009993
v -0.921836 1.071900 -0.004550
v -0.921836 1.071900 -0.009993
v -0.916462 1.072766 -0.004550
v -0.916462 1.072766 -0.009993
v -0.915603 0.924332 -0.004550
v -0.915603 0.924332 -0.009993
v -0.920646 0.926378 -0.004550
v -0.920646 0.926378 -0.009993
v -0.924941 0.923034 -0.004550
v -0.924941 0.923034 -0.009993
v -0.924192 0.917642 -0.004550
v -0.924192 0.917642 -0.009993
v -0.919148 0.915596 -0.004550
v -0.919148 0.915596 -0.009993
v -0.914853 0.918940 -0.004550
v -0.914853 0.918940 -0.009993
v -0.921509 1.082243 0.064547
v -0.921509 1.082243 0.069990
v -0.916249 1.080841 0.064547
v -0.916249 1.080841 0.069990
v -0.914834 1.075585 0.064547
v -0.914834 1.075585 0.069990
v -0.918678 1.071731 0.064547
v -0.918678 1.071731 0.069990
v -0.923937 1.073133 0.064547
v -0.923937 1.073133 0.069990
v -0.925353 1.078389 0.064547
v -0.925353 1.078389 0.069990
v -0.925210 0.919127 0.064548
v -0.925210 0.919127 0.069991
v -0.924263 0.924487 0.064548
v -0.924263 0.924487 0.069991
v -0.919148 0.926348 0.064548
v -0.919148 0.926348 0.069991
v -0.914979 0.922848 0.064548
v -0.914979 0.922848 0.069991
v -0.915926 0.917487 0.064548
v -0.915926 0.917487 0.069991
v -0.921042 0.915627 0.064548
v -0.921042 0.915627 0.069991
vn -1.0000 -0.0000 -0.0000
vn 1.0000 -0.0000 -0.0000
vn -0.0000 -1.0000 -0.0000
vn -0.0000 1.0000 -0.0000
vn -0.0000 -0.0000 -1.0000
vn -0.0013 1.0000 -0.0000
vn -0.0000 -0.0000 1.0000
vn 1.0000 0.0077 -0.0000
vn 0.0019 1.0000 -0.0000
vn -1.0000 0.0057 -0.0000
vn -0.0019 -1.0000 -0.0000
vn 0.0002 -1.0000 -0.0000
vn -1.0000 0.0064 -0.0000
vn 1.0000 0.0003 -0.0000
vn 0.0013 -1.0000 -0.0000
vn -1.0000 -0.0077 -0.0000
vn 1.0000 -0.0057 -0.0000
vn -0.0002 1.0000 -0.0000
vn 1.0000 -0.0064 -0.0000
vn -1.0000 -0.0003 -0.0000
vn -0.0000 0.6427 0.7661
vn 0.6427 -0.0000 0.7661
vn -0.6427 -0.0000 0.7661
vn -0.0000 -0.6427 0.7661
vn -0.0000 0.6427 -0.7661
vn -0.6427 -0.0000 -0.7661
vn 0.6427 -0.0000 -0.7661
vn -0.0000 -0.6427 -0.7661
vn 0.7755 0.6313 -0.0000
vn -0.1590 0.9873 -0.0000
vn -0.9345 0.3560 -0.0000
vn -0.7755 -0.6313 -0.0000
vn 0.1590 -0.9873 -0.0000
vn 0.9345 -0.3560 -0.0000
vn 0.3760 0.9266 -0.0000
vn -0.6145 0.7890 -0.0000
vn -0.9905 -0.1377 -0.0000
vn -0.3760 -0.9266 -0.0000
vn 0.6145 -0.7890 -0.0000
vn 0.9905 0.1377 -0.0000
vn 0.2576 0.9663 -0.0000
vn 0.9656 0.2601 -0.0000
vn 0.7080 -0.7062 -0.0000
vn -0.2576 -0.9663 -0.0000
vn -0.9656 -0.2601 -0.0000
vn -0.7080 0.7062 -0.0000
vn -0.9848 0.1739 -0.0000
vn -0.3417 0.9398 -0.0000
vn 0.6430 0.7658 -0.0000
vn 0.9848 -0.1739 -0.0000
vn 0.3417 -0.9398 -0.0000
vn -0.6430 -0.7659 -0.0000
vt 0.500000 -0.004854
vt 0.500000 1.000000
vt 0.530457 1.000000
vt 0.530457 -0.004854
vt 0.969543 0.725728
vt 0.969543 0.247573
vt 1.000000 0.247573
vt 1.000000 0.725728
vt 0.500000 -0.002427
vt 0.500000 0.997573
vt 0.614107 0.788390
vt 0.611897 0.472779
vt 0.956562 0.038433
vt 0.956562 0.027614
vt 0.543040 0.027614
vt 0.543040 0.038433
vt 0.870093 0.771382
vt 0.632117 0.771121
vt 0.888232 0.788694
vt 1.000000 0.997573
vt 0.888167 0.788896
vt 0.890654 0.473768
vt 1.000000 -0.002427
vt 0.500868 0.081712
vt 1.000000 0.081712
vt 1.000000 0.092532
vt 0.500868 0.092532
vt 0.888445 0.473209
vt 0.614078 0.788899
vt 0.611884 0.474247
vt 0.567504 0.092532
vt 0.932604 0.092532
vt 0.932604 0.063679
vt 0.567504 0.063679
vt 1.000000 0.081712
vt 0.501649 0.081712
vt 0.501649 0.092532
vt 1.000000 0.092532
vt 0.539994 0.081712
vt 0.960169 0.081712
vt 0.960169 0.092532
vt 0.539994 0.092532
vt 0.956338 0.081712
vt 0.542857 0.081712
vt 0.542857 0.092532
vt 0.956338 0.092532
vt 0.956725 0.038434
vt 0.539831 0.038433
vt 0.539831 0.027614
vt 0.956725 0.027614
vt 0.500000 0.038433
vt 0.999410 0.038433
vt 0.999410 0.027614
vt 0.500000 0.027614
vt 0.999949 0.038433
vt 0.500098 0.038434
vt 0.500098 0.027614
vt 0.999949 0.027614
vt 0.632092 0.771628
vt 0.870168 0.771626
vt 0.630150 0.491486
vt 0.872372 0.491069
vt 0.929217 0.027614
vt 0.929217 0.056466
vt 0.570219 0.056466
vt 0.570219 0.027614
vt 0.870290 0.490449
vt 0.630161 0.490088
vt 0.629442 0.492718
vt 0.873096 0.492718
vt 0.929194 0.092532
vt 0.570054 0.092532
vt 0.570054 0.063679
vt 0.929194 0.063679
vt 0.528273 0.092532
vt 0.972646 0.092532
vt 0.972646 0.063679
vt 0.528273 0.063679
vt 0.972646 0.092532
vt 0.528951 0.092532
vt 0.528951 0.063679
vt 0.972646 0.063679
vt 0.870558 0.492718
vt 0.929362 0.027614
vt 0.567361 0.027614
vt 0.567361 0.056466
vt 0.929362 0.056466
vt 0.527360 0.027614
vt 0.972092 0.027614
vt 0.972092 0.056466
vt 0.527360 0.056466
vt 0.972559 0.027614
vt 0.527446 0.027614
vt 0.527446 0.056466
vt 0.972559 0.056466
vt 0.070488 0.952198
vt 0.429512 0.952198
vt 0.486440 1.000000
vt 0.013560 1.000000
vt 0.070488 0.047802
vt 0.429512 0.047802
vt 0.500000 0.009186
vt 0.500000 0.990814
vt 0.000000 0.990814
vt 0.000000 0.009186
vt 0.013560 0.000000
vt 0.486440 0.000000
vt 0.777132 0.324472
vt 0.777132 0.296817
vt 0.808793 0.296817
vt 0.808793 0.324472
vt 0.762469 0.324472
vt 0.762468 0.296817
vt 0.722164 0.296817
vt 0.722164 0.324472
vt 0.802303 0.324472
vt 0.802303 0.296817
vt 0.764153 0.296817
vt 0.764153 0.324472
vt 0.732494 0.296817
vt 0.732494 0.324472
vt 0.762468 0.922478
vt 0.788241 0.901030
vt 0.773708 0.875187
vt 0.733403 0.870791
vt 0.707631 0.892238
vt 0.722164 0.918082
vt 0.733403 0.324472
vt 0.733403 0.296817
vt 0.773708 0.296817
vt 0.773708 0.324472
vt 0.738983 0.324472
vt 0.738983 0.296817
vt 0.780154 0.324470
vt 0.780154 0.296815
vt 0.742327 0.296815
vt 0.742327 0.324470
vt 0.710118 0.296815
vt 0.710118 0.324470
vt 0.740993 0.324470
vt 0.740993 0.296815
vt 0.700558 0.296815
vt 0.700558 0.324470
vt 0.715738 0.324470
vt 0.715738 0.296815
vt 0.753566 0.296815
vt 0.753566 0.324470
vt 0.742327 0.131445
vt 0.780154 0.121047
vt 0.785774 0.093655
vt 0.753566 0.076662
vt 0.715738 0.087061
vt 0.710118 0.114452
vt 0.785774 0.296815
vt 0.785774 0.324470
vt 0.710293 0.324470
vt 0.710293 0.296815
vt 0.750728 0.296815
vt 0.750728 0.324470
vt 0.735859 0.675528
vt 0.735859 0.703183
vt 0.775305 0.703183
vt 0.775305 0.675528
vt 0.799548 0.675528
vt 0.799548 0.703183
vt 0.760128 0.703183
vt 0.760128 0.675528
vt 0.731224 0.703183
vt 0.731224 0.675528
vt 0.757093 0.675528
vt 0.757093 0.703183
vt 0.717646 0.703183
vt 0.717647 0.675528
vt 0.775305 0.916215
vt 0.735859 0.923338
vt 0.707029 0.903758
vt 0.717646 0.877054
vt 0.757093 0.869931
vt 0.785922 0.889511
vt 0.741739 0.675528
vt 0.741739 0.703183
vt 0.781159 0.703183
vt 0.781159 0.675528
vt 0.810063 0.703183
vt 0.810063 0.675528
vt 0.711695 0.675530
vt 0.711695 0.703185
vt 0.751897 0.703184
vt 0.751897 0.675530
vt 0.715199 0.675530
vt 0.715199 0.703184
vt 0.753566 0.703185
vt 0.753566 0.675530
vt 0.784831 0.703185
vt 0.784831 0.675530
vt 0.739598 0.675530
vt 0.739598 0.703185
vt 0.699396 0.703185
vt 0.699396 0.675530
vt 0.715199 0.121839
vt 0.708099 0.094605
vt 0.739364 0.076823
vt 0.777730 0.086274
vt 0.784831 0.113507
vt 0.753566 0.131290
vt 0.777730 0.675530
vt 0.777730 0.703185
vt 0.739364 0.703185
vt 0.739364 0.675530
vt 0.708099 0.703185
vt 0.708099 0.675530
s 1
usemtl door_4_double
f 309/514/180 310/515/180 312/516/180 311/517/180
f 315/517/181 316/516/181 314/515/181 313/514/181
f 311/518/182 315/519/182 313/520/182 309/521/182
f 316/519/183 312/518/183 310/521/183 314/520/183
f 311/522/184 312/523/184 324/524/184 323/525/184
f 321/526/185 337/527/185 340/528/185 324/529/185
f 329/530/184 332/531/184 340/524/184 337/532/184
f 314/533/186 317/534/186 320/535/186 313/536/186
f 320/537/187 317/538/187 333/539/187 336/540/187
f 315/536/184 322/541/184 321/532/184 316/533/184
f 310/523/186 318/542/186 317/534/186 314/533/186
f 313/536/186 320/535/186 319/543/186 309/522/186
f 319/543/186 318/542/186 310/523/186 309/522/186
f 323/525/184 322/541/184 315/536/184 311/522/184
f 327/544/188 328/545/188 344/546/188 343/547/188
f 318/548/189 319/549/189 335/550/189 334/551/189
f 319/552/190 320/553/190 336/554/190 335/555/190
f 317/556/183 318/557/183 334/558/183 333/559/183
f 322/560/191 323/561/191 339/562/191 338/563/191
f 323/564/192 324/565/192 340/566/192 339/567/192
f 321/568/193 322/569/193 338/570/193 337/571/193
f 326/572/186 325/573/186 333/534/186 334/542/186
f 327/574/186 326/572/186 334/542/186 335/543/186
f 328/575/186 327/574/186 335/543/186 336/535/186
f 325/573/186 328/575/186 336/535/186 333/534/186
f 329/576/194 345/577/194 348/578/194 332/579/194
f 330/580/184 329/530/184 337/532/184 338/541/184
f 331/581/184 330/580/184 338/541/184 339/525/184
f 332/531/184 331/581/184 339/525/184 340/524/184
f 341/573/186 342/572/186 343/582/186 344/583/186
f 325/584/182 326/585/182 342/586/182 341/587/182
f 328/588/195 325/589/195 341/590/195 344/591/195
f 326/592/196 327/593/196 343/594/196 342/595/196
f 348/531/184 345/530/184 346/596/184 347/582/184
f 330/597/197 331/598/197 347/599/197 346/600/197
f 331/601/198 332/602/198 348/603/198 347/604/198
f 329/605/199 330/606/199 346/607/199 345/608/199
f 312/523/184 316/533/184 321/532/184 324/524/184
usemtl door_handle_2
f 354/609/200 356/610/200 355/611/200 349/612/200
f 351/613/186 353/614/186 356/610/186 354/609/186
f 356/610/201 353/614/201 352/615/201 355/616/201
f 349/617/202 350/618/202 351/613/202 354/609/202
f 353/614/203 351/613/203 350/619/203 352/620/203
f 362/609/204 364/610/204 363/611/204 357/612/204
f 359/613/184 361/614/184 364/610/184 362/609/184
f 364/610/205 361/614/205 360/615/205 363/616/205
f 357/617/206 358/618/206 359/613/206 362/609/206
f 361/614/207 359/613/207 358/619/207 360/620/207
f 365/621/208 366/622/208 368/623/208 367/624/208
f 367/625/209 368/626/209 370/627/209 369/628/209
f 369/629/210 370/630/210 372/631/210 371/632/210
f 371/632/211 372/631/211 374/633/211 373/634/211
f 368/635/184 366/636/184 376/637/184 374/638/184 372/639/184 370/640/184
f 373/641/212 374/642/212 376/643/212 375/644/212
f 375/645/213 376/646/213 366/622/213 365/621/213
f 377/647/214 378/648/214 380/649/214 379/650/214
f 379/650/215 380/649/215 382/651/215 381/652/215
f 381/653/216 382/654/216 384/655/216 383/656/216
f 383/657/217 384/658/217 386/659/217 385/660/217
f 380/661/184 378/662/184 388/663/184 386/664/184 384/665/184 382/666/184
f 385/660/218 386/659/218 388/667/218 387/668/218
f 387/669/219 388/670/219 378/671/219 377/672/219
f 389/673/220 390/674/220 392/675/220 391/676/220
f 391/677/221 392/678/221 394/679/221 393/680/221
f 393/680/222 394/679/222 396/681/222 395/682/222
f 395/683/223 396/684/223 398/685/223 397/686/223
f 392/687/186 390/688/186 400/689/186 398/690/186 396/691/186 394/692/186
f 397/693/224 398/694/224 400/695/224 399/696/224
f 399/696/225 400/695/225 390/697/225 389/698/225
f 401/699/226 402/700/226 404/701/226 403/702/226
f 403/703/227 404/704/227 406/705/227 405/706/227
f 405/706/228 406/705/228 408/707/228 407/708/228
f 407/709/229 408/710/229 410/711/229 409/712/229
f 404/713/186 402/714/186 412/715/186 410/716/186 408/717/186 406/718/186
f 409/719/230 410/720/230 412/721/230 411/722/230
f 411/722/231 412/721/231 402/723/231 401/724/231
o double_door_4_piece_2_handle
v -0.008660 -0.005000 0.032000
v -0.008660 0.005000 0.032000
v -0.009093 -0.005250 -0.010000
v -0.009093 0.005250 -0.010000
v 0.000000 -0.010000 0.032000
v 0.008660 -0.005000 0.032000
v 0.000000 0.010000 0.032000
v 0.008660 0.005000 0.032000
v 0.000000 -0.010500 -0.010000
v 0.009093 -0.005250 -0.010000
v 0.000000 0.010500 -0.010000
v 0.009093 0.005250 -0.010000
v 0.110000 -0.010000 0.032000
v 0.110000 0.010000 0.032000
v -0.006867 -0.003965 0.042000
v -0.008660 -0.005000 0.040000
v -0.008660 0.005000 0.040000
v -0.006867 0.003965 0.042000
v 0.000000 -0.007954 0.042000
v 0.000000 -0.010000 0.040000
v 0.000000 0.010000 0.040000
v 0.000000 0.007954 0.042000
v 0.110000 -0.007954 0.042000
v 0.110000 -0.010000 0.040000
v 0.110000 0.010000 0.040000
v 0.110000 0.007954 0.042000
v -0.008541 0.002709 -0.003815
v -0.013984 0.002709 -0.003815
v -0.008541 0.005430 0.000899
v -0.013984 0.005430 0.000899
v -0.008541 0.002709 0.005613
v -0.013984 0.002709 0.005613
v -0.008541 -0.002735 0.005613
v -0.013984 -0.002735 0.005613
v -0.008541 -0.005456 0.000899
v -0.013984 -0.005456 0.000899
v -0.008541 -0.002735 -0.003815
v -0.013984 -0.002735 -0.003815
v 0.116000 -0.005464 0.032000
v 0.113049 -0.009183 0.032000
v 0.113049 0.009183 0.032000
v 0.116000 0.005464 0.032000
v 0.113049 -0.009183 0.040000
v 0.116000 -0.005456 0.040000
v 0.111980 -0.007423 0.042000
v 0.113932 -0.004683 0.042000
v 0.113932 0.004683 0.042000
v 0.111980 0.007423 0.042000
v 0.116000 0.005456 0.040000
v 0.113049 0.009183 0.040000
v -0.008660 -0.005000 -0.126000
v -0.008660 0.005000 -0.126000
v -0.009093 -0.005250 -0.084000
v -0.009093 0.005250 -0.084000
v 0.000000 -0.010000 -0.126000
v 0.008660 -0.005000 -0.126000
v 0.000000 0.010000 -0.126000
v 0.008660 0.005000 -0.126000
v 0.000000 -0.010500 -0.084000
v 0.009093 -0.005250 -0.084000
v 0.000000 0.010500 -0.084000
v 0.009093 0.005250 -0.084000
v 0.110000 -0.010000 -0.126000
v 0.110000 0.010000 -0.126000
v -0.006867 -0.003965 -0.136000
v -0.008660 -0.005000 -0.134000
v -0.008660 0.005000 -0.134000
v -0.006867 0.003965 -0.136000
v 0.000000 -0.007954 -0.136000
v 0.000000 -0.010000 -0.134000
v 0.000000 0.010000 -0.134000
v 0.000000 0.007954 -0.136000
v 0.110000 -0.007954 -0.136000
v 0.110000 -0.010000 -0.134000
v 0.110000 0.010000 -0.134000
v 0.110000 0.007954 -0.136000
v -0.008541 0.002709 -0.090185
v -0.013984 0.002709 -0.090185
v -0.008541 0.005430 -0.094899
v -0.013984 0.005430 -0.094899
v -0.008541 0.002709 -0.099613
v -0.013984 0.002709 -0.099613
v -0.008541 -0.002735 -0.099613
v -0.013984 -0.002735 -0.099613
v -0.008541 -0.005456 -0.094899
v -0.013984 -0.005456 -0.094899
v -0.008541 -0.002735 -0.090185
v -0.013984 -0.002735 -0.090185
v 0.116000 -0.005464 -0.126000
v 0.113049 -0.009183 -0.126000
v 0.113049 0.009183 -0.126000
v 0.116000 0.005464 -0.126000
v 0.113048 -0.009183 -0.134000
v 0.116000 -0.005456 -0.134000
v 0.111980 -0.007423 -0.136000
v 0.113932 -0.004683 -0.136000
v 0.113932 0.004683 -0.136000
v 0.111980 0.007423 -0.136000
v 0.116000 0.005456 -0.134000
v 0.113048 0.009183 -0.134000
vn -0.8660 0.5000 -0.0000
vn -0.1305 0.9914 -0.0000
vn -0.8660 0.5000 0.0119
vn -0.0000 0.9999 0.0119
vn -0.6016 -0.3473 0.7193
vn -0.6016 0.3473 0.7193
vn -0.6016 0.3474 0.7193
vn -0.6016 -0.3474 0.7193
vn -0.0976 -0.6957 0.7117
vn -0.0867 -0.6964 0.7124
vn 0.8660 0.5000 0.0119
vn 0.8660 -0.5000 0.0119
vn -0.0000 -0.0000 1.0000
vn 0.6459 0.2141 0.7328
vn 0.6459 -0.2141 0.7328
vn 0.6437 -0.2210 0.7327
vn 0.6437 0.2210 0.7327
vn 0.5490 0.8358 0.0002
vn 0.1304 0.9902 0.0493
vn 0.1793 0.9838 -0.0000
vn 0.1304 -0.9902 0.0493
vn 0.5490 -0.8358 0.0002
vn 0.0815 -0.9967 -0.0000
vn 0.9444 0.3287 0.0002
vn 0.9444 -0.3287 0.0002
vn 0.9443 -0.3291 0.0002
vn 0.9443 0.3291 0.0002
vn -0.0976 0.6957 0.7117
vn -0.0867 0.6964 0.7124
vn -0.8660 -0.5000 -0.0000
vn -0.1305 -0.9914 -0.0000
vn 0.3875 -0.5684 0.7257
vn 0.0616 -0.6977 0.7137
vn 0.0835 -0.6727 0.7352
vn 0.3794 -0.5741 0.7256
vn 0.1306 0.6908 0.7111
vn 0.3875 0.5684 0.7257
vn 0.3794 0.5741 0.7256
vn 0.0866 0.7220 0.6865
vn -0.0000 -0.0000 -1.0000
vn -0.0000 0.8660 -0.5000
vn -0.0000 0.8660 0.5000
vn -0.0000 -0.8660 0.5000
vn -1.0000 -0.0000 -0.0000
vn -0.0000 -0.8660 -0.5000
vn -0.8660 0.5000 -0.0119
vn -0.0000 0.9999 -0.0119
vn -0.0000 -0.9999 -0.0119
vn 0.8660 -0.5000 -0.0119
vn -0.8660 -0.5000 -0.0119
vn 0.8660 0.5000 -0.0119
vn -0.0862 -0.7280 -0.6802
vn -0.0790 -0.7187 -0.6908
vn -0.6042 -0.3488 -0.7165
vn -0.6041 -0.3488 -0.7165
vn -0.0980 0.9952 -0.0000
vn 0.6459 0.2141 -0.7328
vn 0.6437 0.2210 -0.7327
vn 0.6437 -0.2210 -0.7327
vn 0.6459 -0.2141 -0.7328
vn 0.5490 0.8358 -0.0002
vn 0.0815 0.9967 -0.0000
vn 0.1304 0.9902 -0.0493
vn 0.1304 -0.9902 -0.0493
vn 0.1793 -0.9838 -0.0000
vn 0.5490 -0.8358 -0.0002
vn 0.9444 0.3287 -0.0002
vn 0.9443 0.3291 -0.0002
vn 0.9443 -0.3291 -0.0002
vn 0.9444 -0.3287 -0.0002
vn -0.6041 0.3488 -0.7165
vn -0.6042 0.3488 -0.7165
vn -0.0790 0.7187 -0.6908
vn -0.0862 0.7280 -0.6802
vn -0.0980 -0.9952 -0.0000
vn -0.0980 -0.9952 -0.0001
vn 0.3875 -0.5685 -0.7257
vn 0.3794 -0.5741 -0.7256
vn 0.0835 -0.6727 -0.7352
vn 0.1330 -0.6880 -0.7134
vn 0.0646 0.6998 -0.7114
vn 0.0933 0.7211 -0.6865
vn 0.3794 0.5741 -0.7256
vn 0.3875 0.5684 -0.7257
vn -0.8660 -0.5000 0.0119
vn -0.0000 -0.9999 0.0119
vt 0.882184 0.825266
vt 0.943487 0.825266
vt 0.943487 0.780311
vt 0.882184 0.780311
vt 1.000000 0.945494
vt 0.678162 0.946792
vt 0.678162 0.886247
vt 1.000000 0.886247
vt 0.712474 0.815958
vt 0.773236 0.815958
vt 0.781169 0.825266
vt 0.704541 0.825266
vt 0.681902 0.780311
vt 0.666227 0.780311
vt 0.678162 0.860345
vt 1.000000 0.859047
vt 0.678162 0.912255
vt 1.000000 0.913553
vt 0.803808 0.780311
vt 0.778738 0.188896
vt 0.706971 0.188896
vt 0.701048 0.182200
vt 0.784662 0.182200
vt 0.882184 0.193478
vt 0.882184 0.209307
vt 0.943487 0.209307
vt 0.943487 0.193482
vt 0.943487 0.183352
vt 0.882184 0.183352
vt 0.819483 0.780311
vt 0.882184 0.533391
vt 0.943487 0.533391
vt 0.882184 0.481482
vt 0.943487 0.481482
vt 0.681902 0.209307
vt 0.685971 0.199030
vt 0.778739 0.188896
vt 0.799739 0.199030
vt 0.803808 0.209307
vt 0.685971 0.199030
vt 0.666227 0.209307
vt 0.672486 0.193482
vt 0.799739 0.199030
vt 0.813224 0.193482
vt 0.819483 0.209307
vt 0.704541 0.735356
vt 0.781169 0.735356
vt 0.819483 0.780311
vt 0.222824 0.476887
vt 0.183426 0.476887
vt 0.183426 0.500000
vt 0.222824 0.500000
vt 0.183426 0.523113
vt 0.222824 0.523113
vt 0.222824 0.513344
vt 0.183426 0.513344
vt 0.183426 0.486656
vt 0.222824 0.486656
vt 0.183426 0.523113
vt 0.183426 0.500000
vt 0.222824 0.500000
vt 0.242522 0.500000
vt 0.222824 0.476887
vt 0.183426 0.476887
vt 0.163728 0.500000
vt 0.183426 0.523113
vt 0.222824 0.523113
vt 0.222824 0.476887
vt 0.183426 0.486656
vt 0.183426 0.513344
vt 0.222824 0.513344
vt 0.701550 0.178890
vt 0.784160 0.178890
vt 0.882184 0.179583
vt 0.943487 0.179584
vt 0.943487 0.179584
vt 0.813222 0.193478
vt 0.784722 0.178161
vt 0.700988 0.178161
vt 0.672487 0.193478
vt 0.678162 0.841292
vt 1.000000 0.839043
vt 0.678162 0.998702
vt 1.000000 1.000000
vt 0.784662 0.182200
vt 0.701048 0.182200
vt 0.701550 0.178890
vt 0.784160 0.178890
vt 0.943487 0.179584
vt 0.882184 0.179583
vt 0.943487 0.179584
vt 0.882184 0.179583
vt 0.678162 0.931201
vt 1.000000 0.933450
s 1
usemtl door_handle_2
f 414/725/232 429/726/232 433/727/233 419/728/233
f 416/729/234 414/730/234 419/731/235 423/732/235
f 427/733/236 430/734/237 429/735/238 428/736/239
f 431/737/240 427/733/236 428/736/239 432/738/241
f 419/731/235 420/739/242 424/740/242 423/732/235
f 424/740/242 420/739/242 418/741/243 422/742/243
f 427/733/244 431/737/244 434/743/244 430/734/244
f 459/744/245 458/745/246 456/746/247 461/747/248
f 453/748/249 426/749/250 437/750/251 462/751/249
f 425/749/252 452/748/253 455/751/253 436/750/254
f 461/752/255 456/752/256 451/753/257 454/753/258
f 430/734/237 434/743/259 433/754/260 429/735/238
f 413/755/261 417/728/262 432/727/262 428/756/261
f 414/757/232 413/755/261 428/756/261 429/758/232
f 435/759/244 457/760/244 458/745/244 459/761/244 460/762/244 438/763/244
f 457/764/263 435/759/264 436/765/265 455/766/266
f 438/763/267 460/767/268 462/768/269 437/769/270
f 434/743/259 438/763/267 437/769/270 433/754/260
f 433/727/233 437/750/251 426/749/250 419/728/233
f 431/737/244 435/759/244 438/763/244 434/743/244
f 417/728/262 425/749/252 436/750/254 432/727/262
f 426/769/271 425/765/271 417/738/271 418/770/271 420/771/271 419/772/271
f 432/738/241 436/765/265 435/759/264 431/737/240
f 439/773/272 440/774/272 442/775/272 441/776/272
f 441/776/273 442/775/273 444/777/273 443/778/273
f 443/779/244 444/780/244 446/781/244 445/782/244
f 445/778/274 446/783/274 448/784/274 447/785/274
f 442/786/275 440/787/275 450/788/275 448/789/275 446/790/275 444/791/275
f 447/785/276 448/784/276 450/788/276 449/792/276
f 449/782/271 450/793/271 440/794/271 439/795/271
f 456/796/247 458/745/246 457/764/263 455/766/266
f 459/744/245 461/797/248 462/768/269 460/767/268
f 455/751/253 452/748/253 451/798/257 456/799/256
f 461/800/255 454/798/258 453/748/249 462/751/249
f 425/765/271 426/769/271 453/801/271 454/802/271 451/803/271 452/804/271
f 464/757/232 479/758/232 478/756/261 463/755/261
f 466/729/277 473/732/278 469/731/278 464/730/277
f 471/732/279 467/731/279 468/805/280 472/806/280
f 464/730/277 463/807/281 465/808/281 466/729/277
f 469/731/278 473/732/278 474/740/282 470/739/282
f 481/737/283 482/738/284 478/736/285 477/733/286
f 474/740/282 472/742/280 468/741/280 470/739/282
f 464/725/232 469/728/287 483/727/287 479/726/232
f 477/733/271 480/734/271 484/743/271 481/737/271
f 509/744/288 511/809/289 506/810/290 508/745/291
f 503/748/292 512/751/292 487/750/293 476/749/294
f 475/749/295 486/750/296 505/751/297 502/748/297
f 511/752/298 504/753/299 501/753/300 506/752/301
f 480/734/302 479/735/303 483/754/304 484/743/305
f 477/733/286 478/736/285 479/735/303 480/734/302
f 463/755/261 478/756/261 482/727/306 467/728/307
f 485/759/271 488/763/271 510/762/271 509/761/271 508/745/271 507/760/271
f 507/764/308 505/766/309 486/765/310 485/759/311
f 488/763/312 487/769/313 512/768/314 510/767/315
f 484/743/305 483/754/304 487/769/313 488/763/312
f 483/727/287 469/728/287 476/749/294 487/750/293
f 481/737/271 484/743/271 488/763/271 485/759/271
f 467/728/307 482/727/306 486/750/296 475/749/295
f 476/769/244 469/772/244 470/771/244 468/770/244 467/738/244 475/765/244
f 482/738/284 481/737/283 485/759/311 486/765/310
f 489/773/273 491/776/273 492/775/273 490/774/273
f 491/776/272 493/778/272 494/777/272 492/775/272
f 493/779/271 495/782/271 496/781/271 494/780/271
f 495/778/276 497/785/276 498/784/276 496/783/276
f 492/786/275 494/791/275 496/790/275 498/789/275 500/788/275 490/787/275
f 497/785/274 499/792/274 500/788/274 498/784/274
f 499/782/244 489/795/244 490/794/244 500/793/244
f 506/811/290 505/766/309 507/764/308 508/745/291
f 509/744/288 510/767/315 512/768/314 511/812/289
f 505/751/297 506/813/301 501/814/300 502/748/297
f 511/815/298 512/751/292 503/748/292 504/816/299
f 475/765/244 502/804/244 501/803/244 504/802/244 503/801/244 476/769/244
f 413/817/316 415/818/316 421/732/317 417/731/317
f 414/730/234 416/729/234 415/808/316 413/807/316
f 421/732/317 422/806/243 418/805/243 417/731/317
f 463/817/281 467/731/279 471/732/279 465/818/281
