# Blender 5.0.1
# www.blender.org
mtllib door_mp_6_loose.mtl
o door_mp_6_loose
v -0.660000 1.177000 0.060001
v -0.660000 1.340000 0.060001
v -0.335000 1.177000 0.060001
v -0.335000 1.340000 0.060001
v 0.000000 2.100000 0.000001
v -0.934999 0.954185 0.060001
v -0.924999 0.954185 0.060001
v -0.934999 0.944185 0.060001
v -0.924999 0.944185 0.060001
v -0.934999 1.080000 0.060001
v -0.924999 1.080000 0.060001
v -0.934999 1.090000 0.060001
v -0.924999 1.090000 0.060001
v -0.934999 1.090000 0.110001
v -0.924999 1.090000 0.110001
v -0.934999 0.944185 0.110001
v -0.924999 0.944185 0.110001
v -0.930001 0.964185 -0.064999
v -0.937073 1.070000 -0.062070
v -0.922930 1.070000 -0.062070
v -0.930001 1.070000 -0.064999
v -0.920002 1.070000 -0.054999
v -0.937073 0.964185 -0.047928
v -0.940002 0.964185 -0.054999
v -0.922930 1.070000 -0.047928
v -0.930001 1.070000 -0.044999
v -0.922930 0.964185 -0.047928
v -0.930001 0.964185 -0.044999
v -0.920002 0.964185 -0.054999
v -0.935002 0.944185 -0.049999
v -0.925002 0.944185 -0.049999
v -0.935002 1.090000 -0.049999
v -0.925002 1.090000 -0.049999
v -0.935002 1.090000 0.000001
v -0.925002 1.090000 0.000001
v -0.935002 1.080000 0.000001
v -0.925002 1.080000 0.000001
v -0.935002 0.944185 0.000001
v -0.925002 0.944185 0.000001
v -0.935002 0.954185 0.000001
v -0.925002 0.954185 0.000001
v -0.939999 0.964185 0.115001
v -0.929999 0.964185 0.105001
v -0.937070 0.964185 0.107930
v -0.929999 1.070000 0.105001
v -0.937070 1.070000 0.107930
v -0.919999 0.964185 0.115001
v -0.922928 0.964185 0.107930
v -0.939999 1.070000 0.115001
v -0.929999 1.070000 0.125001
v -0.937070 1.070000 0.122072
v -0.922928 1.070000 0.122072
v -0.929999 0.964185 0.125001
v -0.937070 0.964185 0.122072
v -0.922928 0.964185 0.122072
v -0.919999 1.070000 0.115001
v -0.922928 1.070000 0.107930
v -0.934999 0.954185 0.120001
v -0.934999 1.080000 0.120001
v -0.924999 0.954185 0.120001
v -0.924999 1.080000 0.120001
v -0.934999 1.070000 0.110001
v -0.924999 1.070000 0.110001
v -0.934999 1.070000 0.120001
v -0.924999 1.070000 0.120001
v -0.934999 0.964185 0.110001
v -0.924999 0.964185 0.110001
v -0.934999 0.964185 0.120001
v -0.924999 0.964185 0.120001
v -0.934999 0.958185 0.110001
v -0.934999 0.954185 0.106001
v -0.924999 0.954185 0.106001
v -0.924999 0.958185 0.110001
v -0.934999 1.080000 0.106001
v -0.934999 1.076000 0.110001
v -0.924999 1.076000 0.110001
v -0.924999 1.080000 0.106001
v -0.922930 0.964185 -0.062070
v -0.937073 0.964185 -0.062070
v -0.940002 1.070000 -0.054999
v -0.937073 1.070000 -0.047928
v -0.925002 0.954185 -0.059999
v -0.925002 1.080000 -0.059999
v -0.935002 0.954185 -0.059999
v -0.935002 1.080000 -0.059999
v -0.925002 1.070000 -0.049999
v -0.935002 1.070000 -0.049999
v -0.925002 1.070000 -0.059999
v -0.935002 1.070000 -0.059999
v -0.925002 0.964185 -0.049999
v -0.935002 0.964185 -0.049999
v -0.925002 0.964185 -0.059999
v -0.935002 0.964185 -0.059999
v -0.925002 0.958185 -0.049999
v -0.925002 0.954185 -0.045999
v -0.935002 0.954185 -0.045999
v -0.935002 0.958185 -0.049999
v -0.925002 1.080000 -0.045999
v -0.925002 1.076000 -0.049999
v -0.935002 1.076000 -0.049999
v -0.935002 1.080000 -0.045999
v -1.000000 -0.000000 0.060000
v -1.000000 2.100000 0.060001
v 0.000000 2.100000 0.060001
v 0.000000 -0.000000 0.060000
v -0.660000 1.177000 0.000001
v -0.660000 1.340000 0.000001
v -0.335000 1.177000 0.000001
v -0.335000 1.340000 0.000001
v -1.000000 -0.000000 0.000000
v -1.000000 2.100000 0.000001
v 0.000000 -0.000000 0.000000
vn -1.0000 -0.0000 -0.0000
vn 1.0000 -0.0000 -0.0000
vn -0.0000 -1.0000 -0.0000
vn -0.0000 1.0000 -0.0000
vn -0.0000 -0.0000 -1.0000
vn 0.7071 -0.0000 0.7071
vn -0.7071 -0.0000 -0.7071
vn -0.0000 -0.0000 1.0000
vn 0.7071 -0.0000 -0.7071
vn -0.7071 -0.0000 0.7071
vn -0.0000 0.7071 0.7071
vn -0.0000 -0.7071 0.7071
vn -0.0000 0.7071 -0.7071
vn -0.0000 -0.7071 -0.7071
vt 0.264787 -0.002063
vt 0.264787 1.002063
vt 0.324787 1.002063
vt 0.324787 -0.002063
vt 0.983125 0.727491
vt 0.983125 0.249336
vt 0.923125 0.249336
vt 0.923125 0.727491
vt 0.340000 0.560726
vt -0.000000 -0.002063
vt -0.000000 1.002063
vt 0.340000 0.638665
vt 0.642325 0.540690
vt 0.642325 0.537309
vt 0.647324 0.534919
vt 0.654394 0.534919
vt 0.659393 0.537309
vt 0.659393 0.540690
vt 0.654394 0.543080
vt 0.647324 0.543080
vt 0.654394 0.551242
vt 0.647324 0.551242
vt 0.642325 0.548851
vt 0.642325 0.545471
vt 0.654394 0.543080
vt 0.659394 0.545471
vt 0.659394 0.548851
vt 0.441602 0.622999
vt 0.430495 0.628311
vt 0.419387 0.628311
vt 0.419387 0.623000
vt 0.426052 0.622999
vt 0.430494 0.620875
vt 0.430494 0.596444
vt 0.441602 0.596444
vt 0.408280 0.596444
vt 0.397172 0.591133
vt 0.397172 0.564577
vt 0.408280 0.564577
vt 0.408280 0.589008
vt 0.412723 0.591133
vt 0.419387 0.591133
vt 0.419387 0.596444
vt 0.392524 0.596444
vt 0.403631 0.601755
vt 0.403631 0.628311
vt 0.392524 0.628311
vt 0.392524 0.603880
vt 0.388081 0.601755
vt 0.381416 0.601755
vt 0.381416 0.596444
vt 0.403631 0.591133
vt 0.392524 0.596444
vt 0.381416 0.596444
vt 0.381417 0.591133
vt 0.388081 0.591133
vt 0.392524 0.589009
vt 0.392524 0.564578
vt 0.403632 0.564577
vt 0.419932 0.591133
vt 0.419932 0.564577
vt 0.431040 0.564577
vt 0.431040 0.591133
vt 0.442148 0.577399
vt 0.442148 0.603955
vt 0.431040 0.603955
vt 0.431040 0.577399
vt 0.553814 0.544481
vt 0.651562 0.544481
vt 0.651562 0.547861
vt 0.553814 0.547861
vt 0.553814 0.530958
vt 0.651562 0.530958
vt 0.651562 0.534339
vt 0.553814 0.534339
vt 0.651562 0.551242
vt 0.553814 0.551242
vt 0.651562 0.537719
vt 0.553814 0.537719
vt 0.651562 0.541100
vt 0.553814 0.541100
vt 0.392524 0.628311
vt 0.392524 0.603879
vt 0.388081 0.601755
vt 0.381416 0.601755
vt 0.403631 0.591133
vt 0.392524 0.596444
vt 0.381416 0.596444
vt 0.381416 0.591133
vt 0.388081 0.591133
vt 0.392524 0.589009
vt 0.392524 0.564577
vt 0.403632 0.564577
vt 0.659393 0.537309
vt 0.408280 0.596444
vt 0.412722 0.591133
vt 0.419387 0.622999
vt 0.426052 0.622999
vt 0.441602 0.596444
vt 0.651562 0.547861
vt 0.651562 0.551242
vt 0.651562 0.541100
vt 0.553814 0.534339
vt 0.651562 0.534339
vt 0.553814 0.527577
vt 0.651562 0.527577
vt 0.553814 0.524197
vt 0.651562 0.524197
vt 0.442148 0.628386
vt 0.431041 0.628386
vt 0.431041 0.603955
vt 0.442148 0.603955
vt 0.419932 0.593333
vt 0.431040 0.593333
vt 0.431040 0.598644
vt 0.419932 0.598644
vt 0.419933 0.610146
vt 0.431040 0.610146
vt 0.431040 0.634577
vt 0.419933 0.634577
vt 0.442148 0.569886
vt 0.431040 0.569886
vt 0.431040 0.564575
vt 0.442148 0.564575
vt 0.419932 0.587377
vt 0.431040 0.587377
vt 0.431040 0.594888
vt 0.419932 0.594888
vt 0.442148 0.584271
vt 0.431040 0.584271
vt 0.431040 0.576760
vt 0.442148 0.576760
vt 0.419933 0.590548
vt 0.431040 0.590548
vt 0.431040 0.593553
vt 0.419933 0.593553
vt 0.431040 0.583675
vt 0.419932 0.583675
vt 0.419932 0.580488
vt 0.431040 0.580488
vt 0.431040 0.624631
vt 0.442148 0.624631
vt 0.442148 0.627635
vt 0.431040 0.627635
vt 0.431041 0.626079
vt 0.442148 0.626079
vt 0.442148 0.629266
vt 0.431041 0.629266
vt 0.419932 0.587377
vt 0.431040 0.587377
vt 0.431040 0.594888
vt 0.419932 0.594888
vt 0.442148 0.584271
vt 0.431040 0.584271
vt 0.431040 0.576760
vt 0.442148 0.576760
vt 0.419933 0.590548
vt 0.431040 0.590548
vt 0.431040 0.593552
vt 0.419933 0.593552
vt 0.340000 0.638665
vt 0.665000 0.638665
vt 1.000000 1.002063
vt 0.665000 0.638665
vt 0.665000 0.560726
vt 1.000000 -0.002063
vt 0.665000 0.560726
vt 0.340000 0.560726
vt 0.659898 0.638350
vt 0.659898 0.611650
vt 0.340102 0.611650
vt 0.340102 0.638350
vt 0.416244 0.607100
vt 0.416244 0.580400
vt 0.583756 0.580400
vt 0.583756 0.607100
s 1
usemtl door_mp_6
f 102/1/1 103/2/1 111/3/1 110/4/1
f 112/4/2 5/3/2 104/2/2 105/1/2
f 110/5/3 112/6/3 105/7/3 102/8/3
f 5/6/4 111/5/4 103/8/4 104/7/4
f 106/9/5 110/10/5 111/11/5 107/12/5
f 53/13/3 54/14/3 42/15/3 44/16/3 43/17/3 48/18/3 47/19/3 55/20/3
f 50/21/4 52/22/4 56/23/4 57/24/4 45/20/4 46/25/4 49/26/4 51/27/4
f 15/28/2 61/29/2 65/30/2 63/31/2 76/32/2 77/33/2 11/34/2 13/35/2
f 59/36/1 14/37/1 12/38/1 10/39/1 74/40/1 75/41/1 62/42/1 64/43/1
f 60/44/2 17/45/2 9/46/2 7/47/2 72/48/2 73/49/2 67/50/2 69/51/2
f 16/52/1 58/53/1 68/54/1 66/55/1 70/56/1 71/57/1 6/58/1 8/59/1
f 15/60/4 13/61/4 12/62/4 14/63/4
f 16/64/3 8/65/3 9/66/3 17/67/3
f 29/68/2 22/69/2 25/70/6 27/71/6
f 24/72/1 80/73/1 19/74/7 79/75/7
f 27/71/6 25/70/6 26/76/8 28/77/8
f 79/75/7 19/74/7 21/78/5 18/79/5
f 18/79/5 21/78/5 20/80/9 78/81/9
f 78/81/9 20/80/9 22/69/2 29/68/2
f 84/53/1 30/45/1 38/46/1 40/82/1 96/83/1 97/84/1 91/85/1 93/54/1
f 31/86/2 82/87/2 92/88/2 90/89/2 94/90/2 95/91/2 41/92/2 39/93/2
f 32/60/4 34/61/4 35/62/4 33/63/4
f 31/64/3 39/65/3 38/66/3 30/67/3
f 18/13/3 78/14/3 29/15/3 27/16/3 28/94/3 23/18/3 24/19/3 79/20/3
f 21/21/4 19/22/4 80/23/4 81/24/4 26/20/4 25/25/4 22/26/4 20/27/4
f 83/95/2 33/37/2 35/38/2 37/39/2 98/40/2 99/96/2 86/42/2 88/43/2
f 32/28/1 85/29/1 89/30/1 87/97/1 100/98/1 101/33/1 36/34/1 34/99/1
f 42/68/1 49/69/1 46/70/7 44/71/7
f 44/71/7 46/100/7 45/101/5 43/77/5
f 53/79/8 50/78/8 51/80/10 54/81/10
f 54/81/10 51/102/10 49/69/1 42/68/1
f 47/72/2 56/73/2 52/74/6 55/103/6
f 55/75/6 52/104/6 50/78/8 53/79/8
f 56/73/2 47/72/2 48/105/9 57/106/9
f 57/106/9 48/105/9 43/107/5 45/108/5
f 77/109/3 74/110/3 10/111/3 11/112/3
f 61/113/8 59/114/8 64/115/8 65/116/8
f 71/117/4 72/118/4 7/119/4 6/120/4
f 58/121/8 60/122/8 69/123/8 68/124/8
f 15/125/11 14/126/11 59/127/11 61/128/11
f 16/129/12 17/130/12 60/131/12 58/132/12
f 70/133/13 73/134/13 72/135/13 71/136/13
f 73/137/5 70/138/5 66/139/5 67/140/5
f 74/141/14 77/142/14 76/143/14 75/144/14
f 75/145/5 76/146/5 63/147/5 62/148/5
f 80/73/1 24/72/1 23/105/10 81/106/10
f 81/106/10 23/105/10 28/107/8 26/108/8
f 101/109/3 98/110/3 37/111/3 36/112/3
f 85/113/5 83/114/5 88/115/5 89/116/5
f 95/117/4 96/118/4 40/119/4 41/120/4
f 82/121/5 84/122/5 93/123/5 92/124/5
f 32/149/13 33/150/13 83/151/13 85/152/13
f 31/153/14 30/154/14 84/155/14 82/156/14
f 94/157/11 97/158/11 96/159/11 95/160/11
f 97/137/8 94/138/8 90/139/8 91/140/8
f 98/141/12 101/142/12 100/143/12 99/144/12
f 99/145/8 100/146/8 87/147/8 86/148/8
f 1/9/8 2/12/8 103/11/8 102/10/8
f 2/161/8 4/162/8 104/163/8 103/11/8
f 4/164/8 3/165/8 105/166/8 104/163/8
f 3/167/8 1/168/8 102/10/8 105/166/8
f 107/161/5 111/11/5 5/163/5 109/162/5
f 109/164/5 5/163/5 112/166/5 108/165/5
f 108/167/5 112/166/5 110/10/5 106/168/5
f 3/169/4 108/170/4 106/171/4 1/172/4
f 1/173/2 106/174/2 107/175/2 2/176/2
f 109/170/3 4/169/3 2/172/3 107/171/3
f 109/175/1 108/174/1 3/173/1 4/176/1
