# Blender 5.0.1
# www.blender.org
mtllib double_single_doorway_2_1.mtl
o double_single_doorway_2_1
v 2.000000 0.000000 0.060000
v 2.000000 3.000000 0.060000
v 2.000000 0.000000 -0.060000
v 2.000000 3.000000 -0.060000
v 2.030000 0.000000 0.030000
v 2.030000 3.000000 0.030000
v 2.030000 0.000000 -0.030000
v 2.030000 3.000000 -0.030000
v 0.420000 0.000000 0.090000
v 2.000000 0.160000 0.060000
v 2.000000 0.110000 -0.090000
v 1.580000 0.000000 -0.060000
v 1.580000 0.110000 0.090000
v 1.580000 0.160000 0.070000
v 1.580000 0.000000 0.060000
v 1.580000 0.000000 0.090000
v 1.580000 0.000000 -0.090000
v 1.580000 0.110000 -0.090000
v 1.580000 0.160000 -0.070000
v 1.580000 0.160000 -0.060000
v 1.580000 0.160000 0.060000
v 1.580000 2.180000 0.060000
v 1.580000 2.180000 -0.060000
v 0.420000 2.180000 0.060000
v 0.420000 2.180000 -0.060000
v 0.420000 0.000000 -0.060000
v 0.420000 0.110000 0.090000
v 0.420000 0.160000 0.070000
v 0.420000 0.000000 0.060000
v 0.420000 0.000000 -0.090000
v 0.420000 0.110000 -0.090000
v 0.420000 0.160000 -0.070000
v 0.420000 0.160000 -0.060000
v 0.420000 0.160000 0.060000
v -2.000000 0.000000 -0.060000
v -2.000000 3.000000 -0.060000
v -2.000000 3.000000 0.060000
v -2.000000 0.160000 0.060000
v -2.000000 0.000000 -0.090000
v -0.420000 0.000000 -0.060000
v -0.420000 0.110000 0.090000
v -0.420000 0.160000 0.070000
v -0.420000 0.000000 0.060000
v -0.420000 0.000000 0.090000
v -0.420000 0.000000 -0.090000
v -0.420000 0.110000 -0.090000
v -0.420000 0.160000 -0.070000
v -0.420000 0.160000 -0.060000
v -0.420000 0.160000 0.060000
v -0.420000 2.180000 0.060000
v -0.420000 2.180000 -0.060000
v -1.580000 2.180000 0.060000
v -1.580000 2.180000 -0.060000
v -1.580000 0.000000 -0.060000
v -1.580000 0.110000 0.090000
v -1.580000 0.160000 0.070000
v -1.580000 0.000000 0.060000
v -1.580000 0.000000 0.090000
v -1.580000 0.000000 -0.090000
v -1.580000 0.110000 -0.090000
v -1.580000 0.160000 -0.070000
v -1.580000 0.160000 -0.060000
v -1.580000 0.160000 0.060000
v -2.000000 0.110000 0.090000
v 2.000000 0.000000 0.090000
v 2.000000 0.110000 0.090000
v -2.000000 0.110000 -0.090000
v 2.000000 0.000000 -0.090000
v 2.045000 0.000000 -0.045000
v 2.045000 0.110000 -0.045000
v 2.035000 0.160000 -0.035000
v 2.045000 0.000000 0.044999
v 2.045000 0.110000 0.044999
v 2.000000 0.160000 0.070000
v 2.000000 0.160000 -0.070000
v 2.000000 0.160000 -0.060000
v 2.030000 0.160000 -0.030000
v 2.030000 0.160000 0.029999
v 2.035000 0.160000 0.034999
v -2.000000 0.000000 0.060001
v -2.030000 0.000000 -0.030000
v -2.030000 3.000000 -0.030000
v -2.030000 0.000000 0.030001
v -2.030000 3.000000 0.030000
v -2.000000 0.160000 -0.060000
v -2.000000 0.000000 0.090000
v -2.000000 0.160000 -0.070000
v -2.045000 0.000000 -0.045000
v -2.045000 0.110000 -0.045000
v -2.045000 0.000000 0.045001
v -2.045000 0.110000 0.045000
v -2.035000 0.160000 0.035001
v -2.000000 0.160000 0.070000
v -2.030000 0.160000 -0.030000
v -2.035000 0.160000 -0.035000
v -2.030000 0.160000 0.030001
v 0.420001 2.180000 -0.100000
v 0.420001 2.180000 0.100000
v 1.500000 2.099999 -0.080000
v 1.500000 2.099999 0.080000
v 1.580000 2.180000 -0.100000
v 1.580000 2.180000 0.100000
v 0.499999 2.100000 -0.080000
v 0.500000 2.099999 0.080000
v 1.500000 0.000000 -0.080000
v 1.500000 -0.000000 0.080000
v 0.500000 0.000000 -0.080000
v 0.500000 -0.000000 0.080000
v 1.580000 0.000000 -0.100000
v 1.580000 -0.000000 0.100000
v 0.420000 0.000000 -0.100000
v 0.420000 -0.000000 0.100000
v 1.540000 2.140000 -0.100000
v 1.520000 2.120000 -0.080000
v 0.460000 2.140000 -0.100000
v 0.480000 2.119999 -0.080000
v 1.540000 0.000000 -0.100000
v 1.520000 0.000000 -0.080000
v 0.460000 0.000000 -0.100000
v 0.480000 0.000000 -0.080000
v 0.480000 2.120000 0.080000
v 0.460000 2.140000 0.100000
v 1.540000 2.140000 0.100000
v 1.520000 2.119999 0.080000
v 1.540000 -0.000000 0.100000
v 1.520000 -0.000000 0.080000
v 0.480000 -0.000000 0.080000
v 0.460000 -0.000000 0.100000
v -1.579999 2.180000 -0.100000
v -1.579999 2.180000 0.100000
v -0.500000 2.099999 -0.080000
v -0.500000 2.099999 0.080000
v -0.420000 2.180000 -0.100000
v -0.420000 2.180000 0.100000
v -1.500000 2.100000 -0.080000
v -1.500000 2.099999 0.080000
v -0.500000 0.000000 -0.080000
v -0.500000 -0.000000 0.080000
v -1.500000 0.000000 -0.080000
v -1.500000 -0.000000 0.080000
v -0.420000 0.000000 -0.100000
v -0.420000 -0.000000 0.100000
v -1.580000 0.000000 -0.100000
v -1.580000 -0.000000 0.100000
v -0.460000 2.140000 -0.100000
v -0.480000 2.120000 -0.080000
v -1.540000 2.140000 -0.100000
v -1.520000 2.119999 -0.080000
v -0.460000 0.000000 -0.100000
v -0.480000 0.000000 -0.080000
v -1.540000 0.000000 -0.100000
v -1.520000 0.000000 -0.080000
v -1.520000 2.120000 0.080000
v -1.540000 2.140000 0.100000
v -0.460000 2.140000 0.100000
v -0.480000 2.119999 0.080000
v -0.460000 -0.000000 0.100000
v -0.480000 -0.000000 0.080000
v -1.520000 -0.000000 0.080000
v -1.540000 -0.000000 0.100000
vn 0.7071 -0.0000 -0.7071
vn 0.7071 -0.0000 0.7071
vn -0.0000 -0.0000 1.0000
vn -0.0000 0.3714 0.9285
vn -0.0000 1.0000 -0.0000
vn -0.0000 -0.0000 -1.0000
vn -0.0000 0.3714 -0.9285
vn 1.0000 -0.0000 -0.0000
vn -1.0000 -0.0000 -0.0000
vn 0.6804 0.2722 -0.6804
vn 0.6804 0.2722 0.6804
vn -0.7071 -0.0000 0.7071
vn -0.7071 -0.0000 -0.7071
vn -0.6804 0.2722 -0.6804
vn -0.6804 0.2722 0.6804
vn -0.0000 -1.0000 -0.0000
vn -0.0000 -0.7071 -0.7071
vn -0.0000 -0.7071 0.7071
vt 0.992548 0.000002
vt 0.992548 1.000008
vt 0.999936 1.000008
vt 0.999936 0.000002
vt 0.889113 0.728428
vt 0.889113 0.000002
vt 1.833333 0.446667
vt 1.833333 0.520000
vt 1.553333 0.520000
vt 1.553333 0.446667
vt 1.833333 0.553333
vt 1.553333 0.553333
vt 1.833333 0.540000
vt 1.553333 0.540000
vt 1.553333 0.546667
vt 1.833333 0.546667
vt 1.553333 0.520000
vt 1.553333 0.460000
vt 1.833333 0.460000
vt 1.833333 0.453333
vt 1.553333 0.453333
vt 0.603435 0.733613
vt 0.603435 0.733613
vt 0.889113 0.000002
vt 0.553333 0.546667
vt 0.520000 0.560000
vt 0.446667 0.560000
vt 0.446667 0.540000
vt 0.553333 0.540000
vt 0.446667 0.440000
vt 0.520000 0.440000
vt 0.553333 0.453333
vt 0.553333 0.460000
vt 0.446667 0.460000
vt 0.520000 0.440000
vt 0.446667 0.440000
vt 0.446667 0.460000
vt 0.553333 0.460000
vt 0.553333 0.453333
vt 0.553333 0.546668
vt 0.553333 0.540001
vt 0.446667 0.540001
vt 0.446667 0.560001
vt 0.520000 0.560001
vt -0.000000 1.000008
vt 0.103435 0.733613
vt 0.103435 0.002990
vt 0.000000 0.002472
vt 2.113333 0.446667
vt 2.113333 0.520000
vt 2.113333 0.553333
vt 2.113334 0.540000
vt 2.113333 0.546667
vt 0.500000 0.446667
vt 0.500000 0.520000
vt 0.780000 0.520000
vt 0.780000 0.446667
vt 0.500000 0.553333
vt 0.780000 0.553333
vt 0.500000 0.460000
vt 0.780000 0.460000
vt 0.779999 0.453333
vt 0.500000 0.453333
vt 0.780000 0.520000
vt 0.500000 0.520000
vt 0.500000 0.446667
vt 0.780000 0.446667
vt 2.113333 0.520000
vt 2.113333 0.446667
vt 2.113333 0.553333
vt 2.113333 0.460000
vt 2.113333 0.453333
vt 0.780000 0.553333
vt 0.500000 0.553333
vt 0.780000 0.540000
vt 0.500000 0.540000
vt 0.500000 0.546667
vt 0.780000 0.546667
vt -0.000000 0.002472
vt 0.103435 0.002990
vt 0.103435 0.733613
vt 0.389113 0.728428
vt 0.389113 0.000002
vt 0.603435 0.002990
vt 0.996541 1.006582
vt 0.389113 0.000002
vt 0.603435 0.002990
vt 1.875267 -0.230000
vt 1.833267 -0.230000
vt 1.833267 -0.303333
vt 1.875267 -0.303333
vt -0.875332 -0.230000
vt -0.875333 -0.303333
vt -0.833332 -0.303333
vt -0.833332 -0.230000
vt 1.865839 -0.196667
vt 1.833172 -0.196667
vt -0.865894 -0.196667
vt -0.833227 -0.196667
vt 1.833333 -0.210001
vt 1.833333 -0.203334
vt 1.856667 -0.226667
vt 1.853333 -0.230000
vt 1.833333 -0.290000
vt 1.853333 -0.270000
vt 1.856667 -0.273334
vt 1.833333 -0.296667
vt -0.000116 0.000002
vt -0.000116 1.000008
vt -0.007505 1.000008
vt -0.007505 0.000002
vt 1.865838 -0.196667
vt 1.875266 -0.230000
vt 1.833266 -0.230000
vt 1.833172 -0.196667
vt -0.875333 -0.230000
vt -0.833333 -0.230000
vt -0.833333 -0.303333
vt -0.875334 -0.303333
vt 1.875266 -0.303333
vt 1.833266 -0.303333
vt -0.865895 -0.196667
vt -0.833228 -0.196667
vt -0.833333 -0.290000
vt -0.833333 -0.296667
vt -0.856667 -0.273333
vt -0.853333 -0.270000
vt -0.833333 -0.210000
vt -0.853333 -0.230000
vt -0.856667 -0.226666
vt -0.833333 -0.203333
vt 1.250000 0.560814
vt 1.250000 0.698428
vt 0.451836 0.698428
vt 0.451836 0.560814
vt -0.250000 0.203015
vt 1.250000 0.203015
vt 1.250000 0.340630
vt -0.250000 0.340630
vt -0.222476 0.792398
vt 1.250000 0.792398
vt 1.250000 0.819921
vt -0.249999 0.819921
vt 1.250000 0.065401
vt -0.250000 0.203015
vt -0.250000 0.065401
vt -0.194954 0.560814
vt -0.194954 0.450722
vt 1.250000 0.450722
vt 1.250000 0.560814
vt 1.250000 0.866905
vt 1.250000 0.880667
vt -0.194953 0.880667
vt -0.208715 0.866906
vt 0.479359 1.084728
vt 1.222478 1.084728
vt 1.250000 1.112251
vt 0.451836 1.112251
vt -0.194954 0.450722
vt -0.194954 0.340630
vt 1.250000 0.340630
vt 0.493120 1.159236
vt 1.208717 1.159235
vt 1.194956 1.172997
vt 0.506882 1.172997
vt -0.250000 0.927652
vt 1.208716 0.927652
vt 1.194954 0.941413
vt -0.250000 0.941413
vt 1.250000 0.745413
vt 1.250000 0.759175
vt -0.194954 0.759175
vt -0.208715 0.745413
vt 1.250000 1.051505
vt 0.561926 1.051505
vt 0.561926 0.941413
vt 1.250000 0.941413
vt 1.250000 0.698429
vt 1.250000 0.725952
vt -0.222477 0.725952
vt -0.250000 0.698429
vt -0.250000 0.880667
vt 1.250000 0.880668
vt 1.222477 0.908190
vt -0.250000 0.908190
vt 0.506882 1.051505
vt 1.194956 1.051505
vt 1.208717 1.065266
vt 0.493120 1.065267
vt 0.451836 1.112251
vt 1.222478 1.139774
vt 0.479359 1.139774
vt 1.250000 0.847444
vt -0.222477 0.847444
vt -0.250000 0.819922
vt -0.194954 0.759175
vt 1.250000 0.759175
vt 1.250000 0.772936
vt -0.208715 0.772936
s 0
usemtl wall_6
f 2/2/2 1/1/2 5/4/2 6/3/2
f 2/2/3 22/5/3 15/6/3 1/1/3
f 2/2/3 24/22/3 22/5/3
f 80/79/3 57/80/3 52/81/3 37/45/3
f 37/45/3 52/81/3 50/82/3
f 50/82/3 43/83/3 29/84/3 24/22/3
f 50/82/3 24/22/3 2/85/3 37/45/3
f 80/108/12 37/109/12 84/110/12 83/111/12
usemtl wall_6_rear
f 3/1/1 4/2/1 8/3/1 7/4/1
f 4/2/6 23/5/6 25/23/6
f 3/1/6 12/24/6 23/5/6 4/2/6
f 30/30/8 31/31/8 32/32/8 33/33/8 26/34/8
f 18/35/9 17/36/9 12/37/9 20/38/9 19/39/9
f 36/45/6 53/46/6 54/47/6 35/48/6
f 51/82/6 53/46/6 36/45/6
f 59/30/8 60/31/8 61/32/8 62/33/8 54/34/8
f 46/35/9 45/36/9 40/37/9 48/38/9 47/39/9
f 40/86/6 51/82/6 25/23/6 26/87/6
f 4/2/6 25/23/6 51/82/6 36/45/6
f 36/109/13 35/108/13 81/111/13 82/110/13
usemtl wood_painted_white
f 65/7/3 66/8/3 13/9/3 16/10/3
f 74/11/4 14/12/4 13/9/4 66/8/4
f 10/13/5 21/14/5 14/15/5 74/16/5
f 18/17/6 11/8/6 68/7/6 17/10/6
f 19/12/7 75/11/7 11/8/7 18/17/7
f 20/18/5 76/19/5 75/20/5 19/21/5
f 28/25/8 27/26/8 9/27/8 29/28/8 34/29/8
f 14/40/9 21/41/9 15/42/9 16/43/9 13/44/9
f 9/49/3 27/50/3 41/9/3 44/10/3
f 28/51/4 42/12/4 41/9/4 27/50/4
f 34/52/5 49/14/5 42/15/5 28/53/5
f 39/54/6 67/55/6 60/56/6 59/57/6
f 87/58/7 61/59/7 60/56/7 67/55/7
f 85/60/5 62/61/5 61/62/5 87/63/5
f 55/64/3 64/65/3 86/66/3 58/67/3
f 46/17/6 31/68/6 30/69/6 45/10/6
f 47/12/7 32/70/7 31/68/7 46/17/7
f 48/18/5 33/71/5 32/72/5 47/21/5
f 56/73/4 93/74/4 64/65/4 55/64/4
f 63/75/5 38/76/5 93/77/5 56/78/5
f 56/25/8 55/26/8 58/27/8 57/28/8 63/29/8
f 42/40/9 49/41/9 43/42/9 44/43/9 41/44/9
f 11/88/1 70/89/1 69/90/1 68/91/1
f 66/92/2 65/93/2 72/94/2 73/95/2
f 75/96/10 71/97/10 70/89/10 11/88/10
f 74/98/11 66/92/11 73/95/11 79/99/11
f 10/100/5 74/101/5 79/102/5 78/103/5
f 76/104/5 77/105/5 71/106/5 75/107/5
f 87/112/14 67/113/14 89/114/14 95/115/14
f 64/116/12 91/117/12 90/118/12 86/119/12
f 67/113/13 39/120/13 88/121/13 89/114/13
f 93/122/15 92/123/15 91/117/15 64/116/15
f 85/124/5 87/125/5 95/126/5 94/127/5
f 38/128/5 96/129/5 92/130/5 93/131/5
f 102/132/5 101/133/5 97/134/5 98/135/5
f 97/136/9 111/137/9 112/138/9 98/139/9
f 123/140/3 125/141/3 110/142/3 102/143/3
f 110/144/8 109/137/8 101/145/8 102/146/8
f 103/147/8 104/148/8 108/149/8 107/150/8
f 127/151/3 108/152/3 104/153/3 121/154/3
f 113/155/6 115/156/6 97/157/6 101/158/6
f 100/159/9 99/160/9 105/161/9 106/149/9
f 124/162/3 121/163/3 104/164/3 100/165/3
f 120/166/6 116/167/6 103/168/6 107/169/6
f 118/170/6 105/171/6 99/172/6 114/173/6
f 103/174/16 99/175/16 100/176/16 104/177/16
f 109/178/6 117/179/6 113/180/6 101/181/6
f 117/179/13 118/170/13 114/173/13 113/180/13
f 111/182/6 97/183/6 115/184/6 119/185/6
f 119/185/1 115/184/1 116/167/1 120/166/1
f 99/186/6 103/187/6 116/188/6 114/189/6
f 114/189/17 116/188/17 115/156/17 113/155/17
f 102/190/3 98/157/3 122/191/3 123/192/3
f 123/192/18 122/191/18 121/163/18 124/162/18
f 112/142/3 128/193/3 122/194/3 98/195/3
f 128/193/2 127/151/2 121/154/2 122/194/2
f 100/196/3 106/197/3 126/198/3 124/199/3
f 124/199/12 126/198/12 125/141/12 123/140/12
f 134/132/5 133/133/5 129/134/5 130/135/5
f 129/136/9 143/137/9 144/138/9 130/139/9
f 155/140/3 157/141/3 142/142/3 134/143/3
f 142/144/8 141/137/8 133/145/8 134/146/8
f 135/147/8 136/148/8 140/149/8 139/150/8
f 159/151/3 140/152/3 136/153/3 153/154/3
f 145/155/6 147/156/6 129/157/6 133/158/6
f 132/159/9 131/160/9 137/161/9 138/149/9
f 156/162/3 153/163/3 136/164/3 132/165/3
f 152/166/6 148/167/6 135/168/6 139/169/6
f 150/170/6 137/171/6 131/172/6 146/173/6
f 135/174/16 131/175/16 132/176/16 136/177/16
f 141/178/6 149/179/6 145/180/6 133/181/6
f 149/179/13 150/170/13 146/173/13 145/180/13
f 143/182/6 129/183/6 147/184/6 151/185/6
f 151/185/1 147/184/1 148/167/1 152/166/1
f 131/186/6 135/187/6 148/188/6 146/189/6
f 146/189/17 148/188/17 147/156/17 145/155/17
f 134/190/3 130/157/3 154/191/3 155/192/3
f 155/192/18 154/191/18 153/163/18 156/162/18
f 144/142/3 160/193/3 154/194/3 130/195/3
f 160/193/2 159/151/2 153/154/2 154/194/2
f 132/196/3 138/197/3 158/198/3 156/199/3
f 156/199/12 158/198/12 157/141/12 155/140/12
l 34 33
l 63 62
