# Blender 5.0.1
# www.blender.org
mtllib double_single_doorway_3.mtl
o double_single_doorway_3
v 2.000000 0.000000 0.060000
v 2.000000 3.000000 0.060000
v 2.000000 0.000000 -0.060000
v 2.000000 3.000000 -0.060000
v 2.030000 0.000000 0.030000
v 2.030000 3.000000 0.030000
v 2.030000 0.000000 -0.030000
v 2.030000 3.000000 -0.030000
v 1.580000 0.000000 -0.060000
v 1.580000 0.000000 0.060000
v 1.580000 2.180000 0.060000
v 1.580000 2.180000 -0.060000
v 0.420000 2.180000 0.060000
v 0.420000 2.180000 -0.060000
v 0.420000 0.000000 0.060000
v 0.420000 0.000000 -0.090000
v 0.420000 0.000000 -0.060000
v -2.000000 3.000000 -0.060000
v -0.420000 0.000000 -0.060000
v -0.420000 0.000000 0.060000
v -0.420000 2.180000 0.060000
v -0.420000 2.180000 -0.060000
v -1.580000 2.180000 0.060000
v -1.580000 2.180000 -0.060000
v -1.580000 0.000000 -0.060000
v -1.580000 0.000000 0.060000
v -2.000000 0.000000 -0.060000
v -2.000000 0.000000 0.060001
v -2.000000 3.000000 0.060000
v -2.030000 0.000000 -0.030000
v -2.030000 3.000000 -0.030000
v -2.030000 0.000000 0.030001
v -2.030000 3.000000 0.030000
v 0.420001 2.180000 -0.100000
v 0.420001 2.180000 0.100000
v 1.500000 2.099999 -0.080000
v 1.500000 2.099999 0.080000
v 1.580000 2.180000 -0.100000
v 1.580000 2.180000 0.100000
v 0.499999 2.100000 -0.080000
v 0.500000 2.099999 0.080000
v 1.500000 0.000000 -0.080000
v 1.500000 -0.000000 0.080000
v 0.500000 0.000000 -0.080000
v 0.500000 -0.000000 0.080000
v 1.580000 0.000000 -0.100000
v 1.580000 -0.000000 0.100000
v 0.420000 0.000000 -0.100000
v 0.420000 -0.000000 0.100000
v 1.540000 2.140000 -0.100000
v 1.520000 2.120000 -0.080000
v 0.460000 2.140000 -0.100000
v 0.480000 2.119999 -0.080000
v 1.540000 0.000000 -0.100000
v 1.520000 0.000000 -0.080000
v 0.460000 0.000000 -0.100000
v 0.480000 0.000000 -0.080000
v 0.480000 2.120000 0.080000
v 0.460000 2.140000 0.100000
v 1.540000 2.140000 0.100000
v 1.520000 2.119999 0.080000
v 1.540000 -0.000000 0.100000
v 1.520000 -0.000000 0.080000
v 0.480000 -0.000000 0.080000
v 0.460000 -0.000000 0.100000
v -1.579999 2.180000 -0.100000
v -1.579999 2.180000 0.100000
v -0.500000 2.099999 -0.080000
v -0.500000 2.099999 0.080000
v -0.420000 2.180000 -0.100000
v -0.420000 2.180000 0.100000
v -1.500000 2.100000 -0.080000
v -1.500000 2.099999 0.080000
v -0.500000 0.000000 -0.080000
v -0.500000 -0.000000 0.080000
v -1.500000 0.000000 -0.080000
v -1.500000 -0.000000 0.080000
v -0.420000 0.000000 -0.100000
v -0.420000 -0.000000 0.100000
v -1.580000 0.000000 -0.100000
v -1.580000 -0.000000 0.100000
v -0.460000 2.140000 -0.100000
v -0.480000 2.120000 -0.080000
v -1.540000 2.140000 -0.100000
v -1.520000 2.119999 -0.080000
v -0.460000 0.000000 -0.100000
v -0.480000 0.000000 -0.080000
v -1.540000 0.000000 -0.100000
v -1.520000 0.000000 -0.080000
v -1.520000 2.120000 0.080000
v -1.540000 2.140000 0.100000
v -0.460000 2.140000 0.100000
v -0.480000 2.119999 0.080000
v -0.460000 -0.000000 0.100000
v -0.480000 -0.000000 0.080000
v -1.520000 -0.000000 0.080000
v -1.540000 -0.000000 0.100000
vn 0.7071 -0.0000 -0.7071
vn 0.7071 -0.0000 0.7071
vn -0.0000 -0.0000 1.0000
vn -0.0000 -0.0000 -1.0000
vn -0.7071 -0.0000 0.7071
vn -0.7071 -0.0000 -0.7071
vn -0.0000 1.0000 -0.0000
vn -1.0000 -0.0000 -0.0000
vn 1.0000 -0.0000 -0.0000
vn -0.0000 -1.0000 -0.0000
vn -0.0000 -0.7071 -0.7071
vn -0.0000 -0.7071 0.7071
vt 0.992548 0.000002
vt 0.992548 1.000008
vt 0.999936 1.000008
vt 0.999936 0.000002
vt 0.889113 0.728428
vt 0.889113 0.000002
vt 0.603435 0.733613
vt 0.603435 0.733613
vt 0.889113 0.000002
vt -0.000000 1.000008
vt 0.103435 0.733613
vt 0.103435 0.002990
vt 0.000000 0.002472
vt -0.000000 0.002472
vt 0.103435 0.002990
vt 0.103435 0.733613
vt 0.389113 0.728428
vt 0.389113 0.000002
vt 0.603435 0.002990
vt 0.996541 1.006582
vt 0.389113 0.000002
vt 0.603435 0.002990
vt -0.000116 0.000002
vt -0.000116 1.000008
vt -0.007505 1.000008
vt -0.007505 0.000002
vt 1.250000 0.560814
vt 1.250000 0.698428
vt 0.451836 0.698428
vt 0.451836 0.560814
vt -0.250000 0.203015
vt 1.250000 0.203015
vt 1.250000 0.340630
vt -0.250000 0.340630
vt -0.222476 0.792398
vt 1.250000 0.792398
vt 1.250000 0.819921
vt -0.249999 0.819921
vt 1.250000 0.065401
vt -0.250000 0.203015
vt -0.250000 0.065401
vt -0.194954 0.560814
vt -0.194954 0.450722
vt 1.250000 0.450722
vt 1.250000 0.560814
vt 1.250000 0.866905
vt 1.250000 0.880667
vt -0.194953 0.880667
vt -0.208715 0.866906
vt 0.479359 1.084728
vt 1.222478 1.084728
vt 1.250000 1.112251
vt 0.451836 1.112251
vt -0.194954 0.450722
vt -0.194954 0.340630
vt 1.250000 0.340630
vt 0.493120 1.159236
vt 1.208717 1.159235
vt 1.194956 1.172997
vt 0.506882 1.172997
vt -0.250000 0.927652
vt 1.208716 0.927652
vt 1.194954 0.941413
vt -0.250000 0.941413
vt 1.250000 0.745413
vt 1.250000 0.759175
vt -0.194954 0.759175
vt -0.208715 0.745413
vt 1.250000 1.051505
vt 0.561926 1.051505
vt 0.561926 0.941413
vt 1.250000 0.941413
vt 1.250000 0.698429
vt 1.250000 0.725952
vt -0.222477 0.725952
vt -0.250000 0.698429
vt -0.250000 0.880667
vt 1.250000 0.880668
vt 1.222477 0.908190
vt -0.250000 0.908190
vt 0.506882 1.051505
vt 1.194956 1.051505
vt 1.208717 1.065266
vt 0.493120 1.065267
vt 0.451836 1.112251
vt 1.222478 1.139774
vt 0.479359 1.139774
vt 1.250000 0.847444
vt -0.222477 0.847444
vt -0.250000 0.819922
vt -0.194954 0.759175
vt 1.250000 0.759175
vt 1.250000 0.772936
vt -0.208715 0.772936
s 0
usemtl wall_mp_1
f 2/2/2 1/1/2 5/4/2 6/3/2
f 2/2/3 11/5/3 10/6/3 1/1/3
f 2/2/3 13/7/3 11/5/3
f 28/14/3 26/15/3 23/16/3 29/10/3
f 29/10/3 23/16/3 21/17/3
f 21/17/3 20/18/3 15/19/3 13/7/3
f 21/17/3 13/7/3 2/20/3 29/10/3
f 28/23/5 29/24/5 33/25/5 32/26/5
usemtl wall_mp_1_rear
f 3/1/1 4/2/1 8/3/1 7/4/1
f 4/2/4 12/5/4 14/8/4
f 3/1/4 9/9/4 12/5/4 4/2/4
f 18/10/4 24/11/4 25/12/4 27/13/4
f 22/17/4 24/11/4 18/10/4
f 19/21/4 22/17/4 14/8/4 17/22/4
f 4/2/4 14/8/4 22/17/4 18/10/4
f 18/24/6 27/23/6 30/26/6 31/25/6
usemtl door_frame_wood_1
f 39/27/7 38/28/7 34/29/7 35/30/7
f 34/31/8 48/32/8 49/33/8 35/34/8
f 60/35/3 62/36/3 47/37/3 39/38/3
f 47/39/9 46/32/9 38/40/9 39/41/9
f 40/42/9 41/43/9 45/44/9 44/45/9
f 64/46/3 45/47/3 41/48/3 58/49/3
f 50/50/4 52/51/4 34/52/4 38/53/4
f 37/54/8 36/55/8 42/56/8 43/44/8
f 61/57/3 58/58/3 41/59/3 37/60/3
f 57/61/4 53/62/4 40/63/4 44/64/4
f 55/65/4 42/66/4 36/67/4 51/68/4
f 40/69/10 36/70/10 37/71/10 41/72/10
f 46/73/4 54/74/4 50/75/4 38/76/4
f 54/74/6 55/65/6 51/68/6 50/75/6
f 48/77/4 34/78/4 52/79/4 56/80/4
f 56/80/1 52/79/1 53/62/1 57/61/1
f 36/81/4 40/82/4 53/83/4 51/84/4
f 51/84/11 53/83/11 52/51/11 50/50/11
f 39/85/3 35/52/3 59/86/3 60/87/3
f 60/87/12 59/86/12 58/58/12 61/57/12
f 49/37/3 65/88/3 59/89/3 35/90/3
f 65/88/2 64/46/2 58/49/2 59/89/2
f 37/91/3 43/92/3 63/93/3 61/94/3
f 61/94/5 63/93/5 62/36/5 60/35/5
f 71/27/7 70/28/7 66/29/7 67/30/7
f 66/31/8 80/32/8 81/33/8 67/34/8
f 92/35/3 94/36/3 79/37/3 71/38/3
f 79/39/9 78/32/9 70/40/9 71/41/9
f 72/42/9 73/43/9 77/44/9 76/45/9
f 96/46/3 77/47/3 73/48/3 90/49/3
f 82/50/4 84/51/4 66/52/4 70/53/4
f 69/54/8 68/55/8 74/56/8 75/44/8
f 93/57/3 90/58/3 73/59/3 69/60/3
f 89/61/4 85/62/4 72/63/4 76/64/4
f 87/65/4 74/66/4 68/67/4 83/68/4
f 72/69/10 68/70/10 69/71/10 73/72/10
f 78/73/4 86/74/4 82/75/4 70/76/4
f 86/74/6 87/65/6 83/68/6 82/75/6
f 80/77/4 66/78/4 84/79/4 88/80/4
f 88/80/1 84/79/1 85/62/1 89/61/1
f 68/81/4 72/82/4 85/83/4 83/84/4
f 83/84/11 85/83/11 84/51/11 82/50/11
f 71/85/3 67/52/3 91/86/3 92/87/3
f 92/87/12 91/86/12 90/58/12 93/57/12
f 81/37/3 97/88/3 91/89/3 67/90/3
f 97/88/2 96/46/2 90/49/2 91/89/2
f 69/91/3 75/92/3 95/93/3 93/94/3
f 93/94/5 95/93/5 94/36/5 92/35/5
l 17 16
