# Blender 5.0.1
# www.blender.org
mtllib elevator_1.mtl
o elevator_1
v -0.700000 0.000000 -0.330000
v -0.700000 0.010000 -0.330000
v 0.700000 0.000000 -0.330000
v 0.700000 0.010000 -0.330000
v -0.700000 0.010000 -0.280000
v 0.700000 0.010000 -0.280000
v 0.700000 0.020000 -0.280000
v -0.700000 0.020000 -0.280000
v -0.700000 0.010000 -0.220000
v 0.700000 0.010000 -0.220000
v -0.700000 0.020000 -0.220000
v 0.700000 0.020000 -0.220000
v -0.700000 0.000000 -0.170000
v -0.700000 0.010000 -0.170000
v 0.700000 0.000000 -0.170000
v 0.700000 0.010000 -0.170000
v -1.000000 0.000000 -0.300000
v -1.000000 -0.000000 -2.900000
v 1.000000 0.000000 -0.300000
v 1.000000 -0.000000 -2.900000
v -1.000001 3.000000 -2.900000
v 0.999999 3.000000 -2.900000
v -0.780001 0.000000 -0.300000
v 0.779999 0.000000 -0.300000
v 0.999999 3.000000 -0.300000
v -1.000001 3.000000 -0.300000
v 0.779999 2.380000 -0.300000
v -0.780001 2.380000 -0.300000
v 1.000000 1.155000 -0.700000
v 1.000000 1.245000 -0.700000
v 0.875000 1.165000 -0.700000
v 0.875000 1.235000 -0.700000
v 1.000000 1.155000 -0.730001
v 1.000000 1.245000 -0.730001
v 0.875000 1.165000 -0.730000
v 0.875000 1.235000 -0.730000
v 1.000000 1.245000 -2.500000
v 1.000000 1.155000 -2.500000
v 0.875000 1.235000 -2.500000
v 0.875000 1.165000 -2.500000
v 1.000000 1.245000 -2.470000
v 1.000000 1.155000 -2.470000
v 0.875000 1.235000 -2.470000
v 0.875000 1.165000 -2.470000
v 0.908000 1.170000 -0.730001
v 0.908000 1.230000 -0.730001
v 0.879970 1.170000 -0.730000
v 0.879970 1.230000 -0.730000
v 0.908000 1.230000 -2.470000
v 0.908000 1.170000 -2.470000
v 0.879970 1.230000 -2.470000
v 0.879970 1.170000 -2.470000
v -1.000000 1.155000 -2.500000
v -1.000000 1.245000 -2.500000
v -0.875000 1.165000 -2.500000
v -0.875000 1.235000 -2.500000
v -1.000000 1.155000 -2.470000
v -1.000000 1.245000 -2.470000
v -0.875000 1.165000 -2.470000
v -0.875000 1.235000 -2.470000
v -1.000000 1.245000 -0.700000
v -1.000000 1.155000 -0.700000
v -0.875000 1.235000 -0.700000
v -0.875000 1.165000 -0.700000
v -1.000000 1.245000 -0.730000
v -1.000000 1.155000 -0.730000
v -0.875000 1.235000 -0.730000
v -0.875000 1.165000 -0.730000
v -0.908000 1.170000 -2.470000
v -0.908000 1.230000 -2.470000
v -0.879970 1.170000 -2.470000
v -0.879970 1.230000 -2.470000
v -0.908000 1.230000 -0.730000
v -0.908000 1.170000 -0.730000
v -0.879970 1.230000 -0.730000
v -0.879970 1.170000 -0.730000
v -1.000000 0.160000 -2.900000
v -0.990000 0.160000 -2.889999
v -0.970000 0.110000 -2.870000
v -0.970000 -0.000000 -2.869999
v 1.000000 0.160000 -2.900001
v 0.990000 0.160000 -2.890001
v 0.970000 0.110000 -2.870001
v 0.970000 -0.000000 -2.870001
v 1.000000 0.160000 -2.900000
v 0.989999 0.160000 -2.890000
v 0.970000 0.110000 -2.870000
v 0.969999 -0.000000 -2.870000
v 1.000001 0.160000 -0.300000
v 0.990001 0.160000 -0.310000
v 0.970001 0.110000 -0.330000
v 0.970001 0.000000 -0.330000
v -1.000000 0.160000 -2.900000
v -0.989999 0.160000 -2.890000
v -0.970000 0.110000 -2.870000
v -0.969999 -0.000000 -2.870000
v -1.000001 0.160000 -0.300000
v -0.990001 0.160000 -0.310000
v -0.970001 0.110000 -0.330000
v -0.970001 0.000000 -0.330000
v 1.000000 0.160000 -0.300000
v 0.990000 0.160000 -0.310001
v 0.970000 0.110000 -0.330000
v 0.970000 0.000000 -0.330001
v 0.780000 0.160000 -0.299999
v 0.780000 0.160000 -0.309999
v 0.780000 0.110000 -0.329999
v 0.780000 0.000000 -0.329999
v -1.000000 0.160000 -0.300001
v -0.990000 0.160000 -0.310001
v -0.970000 0.110000 -0.330001
v -0.970000 0.000000 -0.330001
v -0.780000 0.160000 -0.299999
v -0.780000 0.160000 -0.309999
v -0.780000 0.110000 -0.329999
v -0.780000 0.000000 -0.329999
v -0.318200 2.790000 -0.300000
v -0.341731 2.767253 -0.300000
v -0.341731 2.610263 -0.300000
v -0.320706 2.590000 -0.300000
v 0.351731 2.615381 -0.300000
v 0.330250 2.590000 -0.300000
v 0.330349 2.790000 -0.300000
v 0.351731 2.763556 -0.300000
v -0.341731 2.610263 -0.314000
v -0.341731 2.767253 -0.314000
v -0.318200 2.790000 -0.314000
v 0.330250 2.590000 -0.314000
v -0.320706 2.590000 -0.314000
v 0.351731 2.763556 -0.314000
v 0.351731 2.615381 -0.314000
v 0.330349 2.790000 -0.314000
v 0.310000 2.606000 -0.314000
v 0.310000 2.774000 -0.314000
v -0.300000 2.606000 -0.314000
v -0.300000 2.774000 -0.314000
v -0.299998 2.645000 -0.353000
v -0.299998 2.655000 -0.353000
v -0.299998 2.645000 -0.342000
v -0.299998 2.655000 -0.342000
v -0.309998 2.645000 -0.353000
v -0.309998 2.655000 -0.353000
v -0.309998 2.645000 -0.342000
v -0.309998 2.655000 -0.342000
v -0.320605 2.645000 -0.348606
v -0.320605 2.655000 -0.348606
v -0.313534 2.645000 -0.340535
v -0.313534 2.655000 -0.340535
v -0.324998 2.645000 -0.337000
v -0.324998 2.655000 -0.337000
v -0.314998 2.645000 -0.337000
v -0.314998 2.655000 -0.337000
v -0.299998 2.725000 -0.353000
v -0.299998 2.735000 -0.353000
v -0.299998 2.725000 -0.342000
v -0.299998 2.735000 -0.342000
v -0.309998 2.725000 -0.353000
v -0.309998 2.735000 -0.353000
v -0.309998 2.725000 -0.342000
v -0.309998 2.735000 -0.342000
v -0.320605 2.725000 -0.348606
v -0.320605 2.735000 -0.348606
v -0.313534 2.725000 -0.340535
v -0.313534 2.735000 -0.340535
v -0.324998 2.725000 -0.337000
v -0.324998 2.735000 -0.337000
v -0.314998 2.725000 -0.337000
v -0.314998 2.735000 -0.337000
v -0.299998 2.745000 -0.353000
v -0.299998 2.755000 -0.353000
v -0.299998 2.745000 -0.342000
v -0.299998 2.755000 -0.342000
v -0.309998 2.745000 -0.353000
v -0.309998 2.755000 -0.353000
v -0.309998 2.745000 -0.342000
v -0.309998 2.755000 -0.342000
v -0.320605 2.745000 -0.348606
v -0.320605 2.755000 -0.348606
v -0.313534 2.745000 -0.340535
v -0.313534 2.755000 -0.340535
v -0.324998 2.745000 -0.337000
v -0.324998 2.755000 -0.337000
v -0.314998 2.745000 -0.337000
v -0.314998 2.755000 -0.337000
v -0.299998 2.625000 -0.353000
v -0.299998 2.635000 -0.353000
v -0.299998 2.625000 -0.342000
v -0.299998 2.635000 -0.342000
v -0.309998 2.625000 -0.353000
v -0.309998 2.635000 -0.353000
v -0.309998 2.625000 -0.342000
v -0.309998 2.635000 -0.342000
v -0.320605 2.625000 -0.348606
v -0.320605 2.635000 -0.348606
v -0.313534 2.625000 -0.340535
v -0.313534 2.635000 -0.340535
v -0.324998 2.625000 -0.337000
v -0.324998 2.635000 -0.337000
v -0.314998 2.625000 -0.337000
v -0.314998 2.635000 -0.337000
v -0.300000 2.774000 -0.358000
v 0.310000 2.774000 -0.336000
v 0.310000 2.774000 -0.358000
v 0.310000 2.606000 -0.358000
v -0.300000 2.606000 -0.336000
v -0.300000 2.774000 -0.336000
v 0.310000 2.606000 -0.336000
v 0.290000 2.626000 -0.358000
v 0.290000 2.754000 -0.358000
v -0.280000 2.626000 -0.358000
v -0.280000 2.754000 -0.358000
v -0.300000 2.606000 -0.358000
v 0.281000 2.635000 -0.348000
v 0.281000 2.745000 -0.348000
v -0.271000 2.745000 -0.348000
v -0.271000 2.635000 -0.348000
v -0.324998 2.645000 -0.314000
v -0.324998 2.655000 -0.314000
v -0.314998 2.645000 -0.314000
v -0.314998 2.655000 -0.314000
v -0.324998 2.725000 -0.314000
v -0.324998 2.735000 -0.314000
v -0.314998 2.725000 -0.314000
v -0.314998 2.735000 -0.314000
v -0.324998 2.745000 -0.314000
v -0.324998 2.755000 -0.314000
v -0.314998 2.745000 -0.314000
v -0.314998 2.755000 -0.314000
v -0.324998 2.625000 -0.314000
v -0.324998 2.635000 -0.314000
v -0.314998 2.625000 -0.314000
v -0.314998 2.635000 -0.314000
v 0.309998 2.645000 -0.353000
v 0.309998 2.655000 -0.353000
v 0.309998 2.645000 -0.342000
v 0.309998 2.655000 -0.342000
v 0.319998 2.645000 -0.353000
v 0.319998 2.655000 -0.353000
v 0.319998 2.645000 -0.342000
v 0.319998 2.655000 -0.342000
v 0.330605 2.645000 -0.348606
v 0.330605 2.655000 -0.348606
v 0.323534 2.645000 -0.340535
v 0.323534 2.655000 -0.340535
v 0.334998 2.645000 -0.337000
v 0.334998 2.655000 -0.337000
v 0.324998 2.645000 -0.337000
v 0.324998 2.655000 -0.337000
v 0.309998 2.725000 -0.353000
v 0.309998 2.735000 -0.353000
v 0.309998 2.725000 -0.342000
v 0.309998 2.735000 -0.342000
v 0.319998 2.725000 -0.353000
v 0.319998 2.735000 -0.353000
v 0.319998 2.725000 -0.342000
v 0.319998 2.735000 -0.342000
v 0.330605 2.725000 -0.348606
v 0.330605 2.735000 -0.348606
v 0.323534 2.725000 -0.340535
v 0.323534 2.735000 -0.340535
v 0.334998 2.725000 -0.337000
v 0.334998 2.735000 -0.337000
v 0.324998 2.725000 -0.337000
v 0.324998 2.735000 -0.337000
v 0.309998 2.745000 -0.353000
v 0.309998 2.755000 -0.353000
v 0.309998 2.745000 -0.342000
v 0.309998 2.755000 -0.342000
v 0.319998 2.745000 -0.353000
v 0.319998 2.755000 -0.353000
v 0.319998 2.745000 -0.342000
v 0.319998 2.755000 -0.342000
v 0.330605 2.745000 -0.348606
v 0.330605 2.755000 -0.348606
v 0.323534 2.745000 -0.340535
v 0.323534 2.755000 -0.340535
v 0.334998 2.745000 -0.337000
v 0.334998 2.755000 -0.337000
v 0.324998 2.745000 -0.337000
v 0.324998 2.755000 -0.337000
v 0.309998 2.625000 -0.353000
v 0.309998 2.635000 -0.353000
v 0.309998 2.625000 -0.342000
v 0.309998 2.635000 -0.342000
v 0.319998 2.625000 -0.353000
v 0.319998 2.635000 -0.353000
v 0.319998 2.625000 -0.342000
v 0.319998 2.635000 -0.342000
v 0.330605 2.625000 -0.348606
v 0.330605 2.635000 -0.348606
v 0.323534 2.625000 -0.340535
v 0.323534 2.635000 -0.340535
v 0.334998 2.625000 -0.337000
v 0.334998 2.635000 -0.337000
v 0.324998 2.625000 -0.337000
v 0.324998 2.635000 -0.337000
v 0.334998 2.645000 -0.314000
v 0.334998 2.655000 -0.314000
v 0.324998 2.645000 -0.314000
v 0.324998 2.655000 -0.314000
v 0.334998 2.725000 -0.314000
v 0.334998 2.735000 -0.314000
v 0.324998 2.725000 -0.314000
v 0.324998 2.735000 -0.314000
v 0.334998 2.745000 -0.314000
v 0.334998 2.755000 -0.314000
v 0.324998 2.745000 -0.314000
v 0.324998 2.755000 -0.314000
v 0.334998 2.625000 -0.314000
v 0.334998 2.635000 -0.314000
v 0.324998 2.625000 -0.314000
v 0.324998 2.635000 -0.314000
v -0.779999 2.380000 -0.370001
v -0.779999 2.380000 -0.100001
v 0.700000 2.299999 -0.350001
v 0.700000 2.299999 -0.120001
v 0.780000 2.380000 -0.370001
v 0.780000 2.380000 -0.100001
v -0.700001 2.300000 -0.350001
v -0.700000 2.299999 -0.120001
v 0.700000 0.000000 -0.350001
v 0.700000 0.000000 -0.120001
v -0.700000 0.000000 -0.350001
v -0.700000 0.000000 -0.120001
v 0.780000 0.000000 -0.370001
v 0.780000 0.000000 -0.100001
v -0.780000 0.000000 -0.370001
v -0.780000 0.000000 -0.100001
v 0.740000 2.340000 -0.370001
v 0.720000 2.320000 -0.350001
v -0.740000 2.340000 -0.370001
v -0.720000 2.319999 -0.350001
v 0.740000 0.000000 -0.370001
v 0.720000 0.000000 -0.350001
v -0.740000 0.000000 -0.370001
v -0.720000 0.000000 -0.350001
v -0.720000 2.320000 -0.120001
v -0.740000 2.340000 -0.100001
v 0.740000 2.340000 -0.100001
v 0.720000 2.319999 -0.120001
v 0.740000 0.000000 -0.100001
v 0.720000 0.000000 -0.120001
v -0.720000 0.000000 -0.120001
v -0.740000 0.000000 -0.100001
v 0.132599 1.250000 -2.900000
v -0.132595 1.250000 -2.900000
v 0.132599 1.750000 -2.900000
v -0.132595 1.750000 -2.900000
v 0.127599 1.745000 -2.885000
v 0.132599 1.750000 -2.890000
v 0.132599 1.250000 -2.890000
v 0.127599 1.255000 -2.885000
v -0.132595 1.250000 -2.890000
v -0.127595 1.255000 -2.885000
v -0.132595 1.750000 -2.890000
v -0.127595 1.745000 -2.885000
v -0.022214 1.358990 -2.885000
v 0.000002 1.336775 -2.885000
v 0.022217 1.358990 -2.885000
v 0.000002 1.381206 -2.885000
v -0.022212 1.358990 -2.875372
v 0.000002 1.336775 -2.875373
v 0.022217 1.358990 -2.875373
v 0.000002 1.381206 -2.875373
v 0.015175 1.343817 -2.885000
v -0.015172 1.343817 -2.885000
v -0.015172 1.374164 -2.885000
v 0.015175 1.374164 -2.885000
v 0.015174 1.343817 -2.875373
v -0.015172 1.343817 -2.875373
v -0.015172 1.374164 -2.875373
v 0.015174 1.374164 -2.875373
v -0.087087 1.358990 -2.885000
v -0.069998 1.341901 -2.885000
v -0.052909 1.358990 -2.885000
v -0.069998 1.376079 -2.885000
v -0.087085 1.358990 -2.875372
v -0.069998 1.341901 -2.875373
v -0.052909 1.358990 -2.875373
v -0.069998 1.376079 -2.875373
v -0.058326 1.347318 -2.885000
v -0.081670 1.347318 -2.885000
v -0.081670 1.370662 -2.885000
v -0.058326 1.370662 -2.885000
v -0.058326 1.347318 -2.875373
v -0.081670 1.347318 -2.875373
v -0.081670 1.370662 -2.875373
v -0.058326 1.370662 -2.875373
v 0.052913 1.358990 -2.885000
v 0.070002 1.341901 -2.885000
v 0.087091 1.358990 -2.885000
v 0.070002 1.376079 -2.885000
v 0.052913 1.358990 -2.875373
v 0.070002 1.341901 -2.875373
v 0.087091 1.358990 -2.875373
v 0.070002 1.376079 -2.875373
v 0.081674 1.347318 -2.885000
v 0.058330 1.347318 -2.885000
v 0.058330 1.370662 -2.885000
v 0.081674 1.370662 -2.885000
v 0.081674 1.347318 -2.875373
v 0.058330 1.347318 -2.875373
v 0.058330 1.370662 -2.875373
v 0.081674 1.370662 -2.875373
v -0.087087 1.405007 -2.885000
v -0.069998 1.387918 -2.885000
v -0.052909 1.405007 -2.885000
v -0.069998 1.422095 -2.885000
v -0.087087 1.405007 -2.875373
v -0.069998 1.387918 -2.875373
v -0.052909 1.405007 -2.875373
v -0.069998 1.422095 -2.875373
v -0.058326 1.393335 -2.885000
v -0.081670 1.393335 -2.885000
v -0.081670 1.416678 -2.885000
v -0.058326 1.416678 -2.885000
v -0.058326 1.393335 -2.875373
v -0.081668 1.393335 -2.875373
v -0.081670 1.416678 -2.875373
v -0.058326 1.416678 -2.875373
v 0.052913 1.405007 -2.885000
v 0.070002 1.387918 -2.885000
v 0.087091 1.405007 -2.885000
v 0.070002 1.422095 -2.885000
v 0.052913 1.405007 -2.875372
v 0.070002 1.387918 -2.875373
v 0.087091 1.405007 -2.875373
v 0.070002 1.422095 -2.875373
v 0.081674 1.393335 -2.885000
v 0.058330 1.393335 -2.885000
v 0.058330 1.416678 -2.885000
v 0.081674 1.416678 -2.885000
v 0.081674 1.393335 -2.875373
v 0.058330 1.393335 -2.875373
v 0.058330 1.416678 -2.875373
v 0.081674 1.416678 -2.875373
v -0.087087 1.449419 -2.885000
v -0.069998 1.432330 -2.885000
v -0.052909 1.449419 -2.885000
v -0.069998 1.466508 -2.885000
v -0.087087 1.449419 -2.875373
v -0.069998 1.432330 -2.875373
v -0.052909 1.449419 -2.875373
v -0.069998 1.466508 -2.875373
v -0.058326 1.437747 -2.885000
v -0.081670 1.437747 -2.885000
v -0.081670 1.461091 -2.885000
v -0.058326 1.461091 -2.885000
v -0.058327 1.437747 -2.875373
v -0.081668 1.437747 -2.875373
v -0.081670 1.461091 -2.875373
v -0.058327 1.461091 -2.875373
v 0.052913 1.449419 -2.885000
v 0.070002 1.432330 -2.885000
v 0.087091 1.449419 -2.885000
v 0.070002 1.466508 -2.885000
v 0.052913 1.449419 -2.875373
v 0.070002 1.432330 -2.875373
v 0.087091 1.449419 -2.875373
v 0.070002 1.466508 -2.875373
v 0.081674 1.437747 -2.885000
v 0.058330 1.437747 -2.885000
v 0.058330 1.461091 -2.885000
v 0.081674 1.461091 -2.885000
v 0.081674 1.437747 -2.875373
v 0.058330 1.437747 -2.875373
v 0.058330 1.461091 -2.875373
v 0.081674 1.461091 -2.875373
v -0.058326 1.509338 -2.875373
v -0.081670 1.509338 -2.875373
v -0.081670 1.485995 -2.875373
v -0.058327 1.485995 -2.875373
v -0.058326 1.509338 -2.885000
v -0.081670 1.509338 -2.885000
v -0.081670 1.485995 -2.885000
v -0.058326 1.485995 -2.885000
v -0.069998 1.514755 -2.875373
v -0.052909 1.497666 -2.875373
v -0.069998 1.480578 -2.875373
v -0.087085 1.497666 -2.875373
v -0.069998 1.514755 -2.885000
v -0.052909 1.497666 -2.885000
v -0.069998 1.480578 -2.885000
v -0.087087 1.497666 -2.885000
v 0.015175 1.512840 -2.875373
v 0.012134 1.509798 -2.875373
v -0.015172 1.512840 -2.875373
v -0.012130 1.509798 -2.875373
v -0.015172 1.482493 -2.875373
v -0.012130 1.485535 -2.875373
v 0.015175 1.482493 -2.875373
v 0.012134 1.485535 -2.875373
v 0.015175 1.512840 -2.885000
v -0.015172 1.512840 -2.885000
v -0.015172 1.482493 -2.885000
v 0.015175 1.482493 -2.885000
v 0.000002 1.515429 -2.875373
v 0.000002 1.519882 -2.875373
v 0.022217 1.497666 -2.875373
v 0.017764 1.497666 -2.875373
v 0.000002 1.475451 -2.875373
v 0.000002 1.479904 -2.875373
v -0.017761 1.497666 -2.875373
v -0.022214 1.497666 -2.875373
v 0.000002 1.519882 -2.885000
v 0.022217 1.497666 -2.885000
v 0.000002 1.475451 -2.885000
v -0.022214 1.497666 -2.885000
v 0.052913 1.497666 -2.885000
v 0.070002 1.480578 -2.885000
v 0.087091 1.497666 -2.885000
v 0.070002 1.514755 -2.885000
v 0.052913 1.497666 -2.875373
v 0.070002 1.480578 -2.875373
v 0.087091 1.497666 -2.875373
v 0.070002 1.514755 -2.875373
v 0.081674 1.485995 -2.885000
v 0.058330 1.485995 -2.885000
v 0.058330 1.509338 -2.885000
v 0.081674 1.509338 -2.885000
v 0.081674 1.485995 -2.875373
v 0.058330 1.485995 -2.875373
v 0.058330 1.509338 -2.875373
v 0.081674 1.509338 -2.875373
v -0.058326 1.659338 -2.875373
v -0.081670 1.659338 -2.875373
v -0.081670 1.635995 -2.875373
v -0.058327 1.635994 -2.875373
v -0.058326 1.659338 -2.885000
v -0.081670 1.659338 -2.885000
v -0.081670 1.635995 -2.885000
v -0.058326 1.635995 -2.885000
v -0.069998 1.664755 -2.875373
v -0.052909 1.647666 -2.875373
v -0.069998 1.630578 -2.875373
v -0.087085 1.647666 -2.875373
v -0.069998 1.664755 -2.885000
v -0.052909 1.647666 -2.885000
v -0.069998 1.630578 -2.885000
v -0.087087 1.647666 -2.885000
v 0.014008 1.661673 -2.875373
v -0.014004 1.661673 -2.875373
v -0.014004 1.633660 -2.875373
v 0.014008 1.633660 -2.875373
v 0.014008 1.661673 -2.885000
v -0.014004 1.661673 -2.885000
v -0.014004 1.633660 -2.885000
v 0.014008 1.633660 -2.885000
v 0.000002 1.668173 -2.875373
v 0.020508 1.647666 -2.875373
v 0.000002 1.627160 -2.875373
v -0.020504 1.647666 -2.875373
v 0.000002 1.668173 -2.885000
v 0.020509 1.647666 -2.885000
v 0.000002 1.627160 -2.885000
v -0.020505 1.647666 -2.885000
v 0.046077 1.647666 -2.885000
v 0.070002 1.623742 -2.885000
v 0.093926 1.647666 -2.885000
v 0.070002 1.671591 -2.885000
v 0.046077 1.647666 -2.875373
v 0.050873 1.647666 -2.875373
v 0.070002 1.628538 -2.875373
v 0.070002 1.623742 -2.875373
v 0.089131 1.647666 -2.875373
v 0.093926 1.647666 -2.875373
v 0.070002 1.671591 -2.875373
v 0.070002 1.666795 -2.875373
v 0.086342 1.631326 -2.885000
v 0.053661 1.631326 -2.885000
v 0.053661 1.664007 -2.885000
v 0.086342 1.664007 -2.885000
v 0.083067 1.634601 -2.875373
v 0.086342 1.631326 -2.875373
v 0.056937 1.634601 -2.875373
v 0.053661 1.631326 -2.875373
v 0.056937 1.660732 -2.875373
v 0.053661 1.664007 -2.875373
v 0.083067 1.660732 -2.875373
v 0.086342 1.664007 -2.875373
v 0.083067 1.634601 -2.865373
v 0.070002 1.628538 -2.865373
v 0.083067 1.660732 -2.865373
v 0.089131 1.647666 -2.865373
v 0.056937 1.634601 -2.865373
v 0.050873 1.647666 -2.865373
v 0.056937 1.660732 -2.865373
v 0.070002 1.666795 -2.865373
v 0.000002 1.515429 -2.877872
v 0.012134 1.509798 -2.877872
v 0.000002 1.479904 -2.877872
v -0.012130 1.485535 -2.877872
v -0.017761 1.497666 -2.877872
v 0.017764 1.497666 -2.877872
v 0.012134 1.485535 -2.877872
v -0.012130 1.509798 -2.877872
vn -0.0000 -0.0000 -1.0000
vn -0.0000 0.9806 -0.1961
vn -0.0000 -0.0000 1.0000
vn -0.0000 1.0000 -0.0000
vn -0.0000 0.9806 0.1961
vn 1.0000 -0.0000 -0.0000
vn -1.0000 -0.0000 -0.0000
vn -0.0000 -1.0000 -0.0000
vn 0.3541 0.9352 -0.0000
vn -0.0797 0.9968 -0.0000
vn -0.9040 -0.0000 0.4276
vn -0.9040 -0.0007 -0.4276
vn -0.9040 -0.0000 -0.4276
vn -0.0797 -0.9968 -0.0000
vn 0.3541 -0.9352 0.0007
vn 0.3541 -0.9352 -0.0000
vn 0.3541 -0.9352 0.0002
vn -0.9040 -0.0002 -0.4276
vn -0.9040 0.0003 0.4276
vn 0.3541 0.9352 -0.0003
vn -0.9014 -0.0002 -0.4329
vn -0.9014 -0.0000 -0.4329
vn -0.9014 0.0009 0.4329
vn -0.9014 -0.0000 0.4329
vn 0.4329 0.9014 -0.0009
vn 0.4329 0.9014 -0.0000
vn 0.4329 -0.9014 -0.0000
vn 0.4329 -0.9014 0.0002
vn -0.3541 0.9352 -0.0000
vn 0.0797 0.9968 -0.0000
vn 0.9040 -0.0000 -0.4276
vn 0.9040 -0.0007 0.4276
vn 0.9040 -0.0000 0.4276
vn 0.0797 -0.9968 -0.0000
vn -0.3541 -0.9352 -0.0007
vn -0.3541 -0.9352 -0.0000
vn -0.3541 -0.9352 -0.0002
vn 0.9040 -0.0002 0.4276
vn 0.9040 0.0003 -0.4276
vn -0.3541 0.9352 0.0003
vn 0.9014 -0.0002 0.4329
vn 0.9014 -0.0000 0.4329
vn 0.9014 0.0009 -0.4329
vn 0.9014 -0.0000 -0.4329
vn -0.4329 0.9014 0.0009
vn -0.4329 0.9014 -0.0000
vn -0.4329 -0.9014 -0.0000
vn -0.4329 -0.9014 -0.0002
vn -0.0000 0.3714 0.9285
vn -0.9285 0.3714 -0.0000
vn 0.9285 0.3714 -0.0000
vn -0.0000 0.3714 -0.9285
vn 0.7633 -0.6460 -0.0000
vn -0.6950 0.7190 -0.0000
vn -0.6939 -0.7200 -0.0000
vn 0.7776 0.6287 -0.0000
vn -0.9352 -0.0000 -0.3540
vn 0.3827 -0.0000 0.9239
vn -0.3827 -0.0000 -0.9239
vn 0.9239 -0.0000 0.3826
vn -0.0000 -0.7433 -0.6690
vn 0.7433 -0.0000 -0.6690
vn -0.0000 0.7433 -0.6690
vn -0.7433 -0.0000 -0.6690
vn 0.9352 -0.0000 -0.3540
vn -0.3827 -0.0000 0.9239
vn 0.3827 -0.0000 -0.9239
vn -0.9239 -0.0000 0.3826
vn -0.3828 -0.0000 0.9239
vn -0.7071 -0.0000 -0.7071
vn 0.7071 -0.0000 -0.7071
vn -0.0000 -0.7071 -0.7071
vn -0.0000 -0.7071 0.7071
vn 0.7071 -0.0000 0.7071
vn -0.7071 -0.0000 0.7071
vn -0.0000 0.7071 0.7071
vn -0.7071 -0.7071 -0.0000
vn -1.0000 -0.0000 0.0001
vn -0.7071 0.7071 -0.0000
vn 1.0000 -0.0000 0.0001
vn 0.7071 0.7071 -0.0000
vn 0.7071 -0.7071 -0.0000
vt 0.266667 0.000000
vt 0.266667 0.003333
vt 0.733334 0.003333
vt 0.733334 0.000000
vt 0.733334 0.324583
vt 0.733334 0.307917
vt 0.266667 0.307917
vt 0.266667 0.324583
vt 0.733334 0.006667
vt 0.266667 0.006667
vt 0.266667 0.344583
vt 0.733334 0.344583
vt 0.266667 0.361250
vt 0.733334 0.361250
vt 0.833333 0.000000
vt 0.833333 1.000000
vt 0.166666 1.000000
vt 0.166667 0.000000
vt 0.000000 0.911667
vt 0.000000 0.045000
vt 1.000000 0.045000
vt 1.000000 0.911667
vt 1.020000 1.366667
vt 1.166667 1.366667
vt 1.166667 -0.366667
vt 0.833333 0.045000
vt 0.833333 0.911667
vt 0.166666 0.911667
vt 0.166666 0.045000
vt -0.166667 -0.366667
vt -0.166667 1.366667
vt -0.020001 1.366667
vt 0.240000 0.000000
vt 0.166667 0.000000
vt 0.240000 0.793333
vt 0.760000 0.793333
vt 0.833333 0.000000
vt 0.760000 0.000000
vt 0.480000 0.805000
vt 0.521408 0.805000
vt 0.521408 0.795000
vt 0.480000 0.795000
vt 0.480000 0.511667
vt 0.480000 0.488333
vt 0.521667 0.485000
vt 0.521667 0.515000
vt 0.511667 0.795000
vt 0.488333 0.795000
vt 0.488333 0.805000
vt 0.511667 0.805000
vt 0.521147 0.805000
vt 0.480000 0.805000
vt 0.521147 0.795000
vt 0.480000 0.488333
vt 0.521667 0.485000
vt 0.480000 0.205000
vt 0.521147 0.205000
vt 0.521147 0.215000
vt 0.480000 0.215000
vt 0.480000 0.488333
vt 0.480000 0.511667
vt 0.521667 0.515000
vt 0.521667 0.485000
vt 0.488333 0.215000
vt 0.511667 0.215000
vt 0.511667 0.205000
vt 0.488333 0.205000
vt 0.521408 0.205000
vt 0.480000 0.205000
vt 0.521408 0.215000
vt 0.480000 0.511667
vt 0.480000 0.488333
vt 0.521667 0.485000
vt 0.521667 0.515000
vt -0.132143 0.478571
vt -0.132143 0.521428
vt 1.110714 0.521428
vt 1.110714 0.478571
vt 1.110714 0.510011
vt 1.110714 0.489989
vt -0.132143 0.489989
vt -0.132143 0.510011
vt 1.110714 0.489989
vt -0.132143 0.510011
vt -0.132143 0.489989
vt 1.110714 0.478571
vt 1.110714 0.521429
vt -0.132143 0.521429
vt -0.132143 0.478572
vt 1.146667 -0.303333
vt 1.146667 -0.230000
vt -0.146667 -0.230000
vt -0.146667 -0.303333
vt 1.160000 -0.196667
vt -0.160000 -0.196667
vt -0.146667 -0.230000
vt 1.166667 -0.210000
vt -0.166667 -0.210000
vt -0.160000 -0.203333
vt 1.160000 -0.203334
vt 1.546667 -0.303333
vt 1.546667 -0.230000
vt 1.560000 -0.196667
vt 1.546667 -0.230000
vt 1.566667 -0.210000
vt 1.560000 -0.203333
vt -0.020000 -0.303333
vt -0.020000 -0.230000
vt -0.020000 -0.196667
vt -0.020000 -0.230000
vt -0.020000 -0.210000
vt -0.020000 -0.203334
vt -0.020000 -0.230000
vt -0.020000 -0.196667
vt -0.020000 -0.230000
vt -0.020000 -0.210000
vt -0.020000 -0.203334
vt 0.915012 0.000000
vt 0.047425 0.000000
vt 0.047425 0.071917
vt 0.915012 0.071917
vt 0.587744 0.000000
vt 0.389525 0.000000
vt 0.389525 0.071917
vt 0.587744 0.071917
vt 0.047559 0.000000
vt 0.918365 0.000000
vt 0.918365 0.071917
vt 0.047559 0.071917
vt 0.369736 0.000000
vt 0.335782 0.000000
vt 0.335782 0.071917
vt 0.369736 0.071917
vt 0.382678 0.000000
vt 0.592690 0.000000
vt 0.592690 0.071917
vt 0.382678 0.071917
vt 0.946967 0.878975
vt 0.916881 0.990384
vt 0.068942 0.992656
vt 0.041222 0.864448
vt 0.040251 0.133591
vt 0.067374 0.009692
vt 0.918766 0.008301
vt 0.946064 0.106491
vt 0.609375 0.100000
vt 0.395833 0.100000
vt 0.395833 0.200000
vt 0.609375 0.200000
vt 0.098958 0.200000
vt 0.890625 0.200000
vt 0.890625 0.100000
vt 0.098958 0.100000
vt 0.972339 0.000000
vt 0.940860 0.000000
vt 0.940860 0.071917
vt 0.972339 0.071917
vt 0.944133 0.000000
vt 0.972258 0.000000
vt 0.972258 0.071917
vt 0.944133 0.071917
vt 0.642740 0.000000
vt 0.607365 0.000000
vt 0.607365 0.071917
vt 0.642740 0.071917
vt 0.755208 0.140000
vt 0.755208 0.200000
vt 0.776042 0.200000
vt 0.776042 0.140000
vt 0.869792 0.240000
vt 0.890625 0.240000
vt 0.880208 0.160000
vt 0.864583 0.220000
vt 0.869792 0.320000
vt 0.890625 0.320000
vt 0.812500 0.140000
vt 0.812500 0.200000
vt 0.786458 0.200000
vt 0.786458 0.140000
vt 0.781250 0.200000
vt 0.781250 0.140000
vt 0.796875 0.140000
vt 0.796875 0.200000
vt 0.859375 0.200000
vt 0.859375 0.140000
vt 0.135417 0.780000
vt 0.859375 0.780000
vt 0.875000 0.840000
vt 0.119792 0.840000
vt 0.120048 0.197619
vt 0.120048 0.822381
vt 0.093750 0.920000
vt 0.093750 0.100000
vt 0.869536 0.822381
vt 0.869536 0.197619
vt 0.895833 0.100000
vt 0.895833 0.920000
vt 0.857702 0.241548
vt 0.857702 0.778452
vt 0.131882 0.778452
vt 0.131882 0.241548
vt 0.859375 0.240000
vt 0.875000 0.180000
vt 0.135417 0.240000
vt 0.119792 0.180000
vt 0.744792 0.140000
vt 0.744792 0.200000
vt 1.020070 0.566406
vt 1.020070 0.387109
vt -0.020070 0.387109
vt -0.020070 0.566406
vt 1.367689 0.387109
vt -0.218750 0.387109
vt -0.218750 0.566406
vt 1.367689 0.566406
vt -0.371135 0.968749
vt 1.191172 0.968750
vt 1.191061 0.996094
vt -0.398341 0.996093
vt -0.218750 0.387109
vt 1.367689 0.387109
vt 1.312872 0.397461
vt 1.312872 0.554687
vt -0.218750 0.554688
vt -0.218750 0.397461
vt 1.228066 0.730469
vt 1.227805 0.746094
vt -0.289025 0.746094
vt -0.301068 0.730468
vt 0.994757 1.343752
vt 0.005046 1.343751
vt -0.021942 1.371094
vt 1.021702 1.371096
vt 1.312872 0.554688
vt 1.312872 0.397461
vt -0.218750 0.397461
vt 0.992509 1.308595
vt 0.005815 1.308593
vt 0.020218 1.296873
vt 0.978265 1.296874
vt 1.228065 0.730468
vt -0.301072 0.730468
vt -0.289027 0.746092
vt 1.227804 0.746096
vt 1.192909 0.937499
vt 1.192649 0.925781
vt -0.324181 0.925780
vt -0.336225 0.937498
vt 0.035156 0.397461
vt 0.964844 0.397461
vt 0.964844 0.554687
vt 0.035156 0.554688
vt 1.191061 0.996094
vt 1.191172 0.968750
vt -0.371136 0.968749
vt -0.398342 0.996093
vt 1.189978 0.911134
vt 1.190361 0.899415
vt -0.367087 0.899415
vt -0.382208 0.911134
vt 1.226218 0.710937
vt -0.363186 0.710932
vt -0.335979 0.738275
vt 1.226328 0.738281
vt 1.213886 0.790221
vt -0.335956 0.790052
vt -0.323885 0.801761
vt 1.213619 0.801876
vt 0.978265 1.296876
vt 0.020217 1.296876
vt 0.005814 1.308595
vt 0.992508 1.308594
vt 0.974662 0.366210
vt 0.026004 0.366211
vt 0.013412 0.354493
vt 0.987361 0.354491
vt 1.021702 1.371094
vt -0.021942 1.371094
vt 0.005046 1.343751
vt 0.994757 1.343751
vt 0.988390 0.625000
vt 0.012197 0.625000
vt 0.024649 0.613281
vt 0.975831 0.613281
vt 1.226218 0.710937
vt 1.226329 0.738281
vt -0.335980 0.738275
vt -0.363186 0.710932
vt 1.225706 0.816337
vt 1.225985 0.828126
vt -0.328721 0.828131
vt -0.343944 0.816407
vt -0.324182 0.925781
vt 1.192646 0.925781
vt 1.192908 0.937499
vt -0.336226 0.937499
vt -0.363877 0.878906
vt 1.190828 0.878907
vt 1.190551 0.890626
vt -0.379100 0.890625
vt 0.036200 0.234807
vt 0.000000 0.234807
vt 0.000000 0.765193
vt 0.036200 0.765193
vt 0.940000 0.011050
vt 0.940000 0.988950
vt 0.020000 0.988950
vt 0.020000 0.011050
vt 0.036200 0.765193
vt 0.000000 0.765193
vt 0.000000 0.234807
vt 0.036200 0.234807
vt 0.036200 0.000000
vt 0.000000 0.000000
vt 0.000000 1.000000
vt 0.036200 1.000000
vt 0.000000 0.000000
vt 0.026279 0.010000
vt 0.026279 0.990000
vt 0.000000 1.000000
vt 0.000000 0.234807
vt 0.026279 0.244807
vt 0.026279 0.755193
vt 0.000000 0.765193
vt 0.000000 1.000000
vt 0.000000 0.765193
vt 0.000000 0.234807
vt 0.036200 1.000000
vt 0.000001 1.000000
vt 0.000000 0.000000
vt 0.036200 0.000000
vt 0.998952 0.978105
vt 0.971867 0.978105
vt 0.971867 0.958105
vt 0.998952 0.958105
vt 0.998952 0.938105
vt 0.971867 0.938105
vt 0.971867 0.918105
vt 0.998952 0.918105
vt 0.998952 0.858105
vt 0.998952 0.878105
vt 0.971868 0.878105
vt 0.971868 0.858105
vt 0.475068 0.187292
vt 0.513525 0.196759
vt 0.531374 0.217158
vt 0.513525 0.237556
vt 0.475068 0.247023
vt 0.436611 0.237556
vt 0.418760 0.217158
vt 0.436611 0.196759
vt 0.998952 0.818105
vt 0.998952 0.838105
vt 0.971868 0.838105
vt 0.971868 0.818105
vt 0.971868 0.918105
vt 0.971868 0.898105
vt 0.998952 0.898105
vt 0.971867 0.958105
vt 0.998952 0.938105
vt 0.998952 0.898105
vt 0.971867 0.898105
vt 0.971868 0.878105
vt 0.998952 0.878105
vt 0.998952 0.858105
vt 0.971868 0.858105
vt 0.971868 0.838105
vt 0.998952 0.838105
vt 0.971867 0.978105
vt 0.971867 0.958105
vt 0.971867 0.938105
vt 0.971868 0.918105
vt 0.230381 0.187865
vt 0.271433 0.197972
vt 0.290491 0.219747
vt 0.271433 0.241523
vt 0.230381 0.251629
vt 0.189328 0.241523
vt 0.170274 0.219747
vt 0.189328 0.197972
vt 0.998952 0.818105
vt 0.971868 0.838105
vt 0.971868 0.818105
vt 0.971867 0.918105
vt 0.971867 0.898105
vt 0.971868 0.958105
vt 0.971867 0.938105
vt 0.971868 0.898105
vt 0.971868 0.878105
vt 0.971868 0.838105
vt 0.971868 0.858105
vt 0.730381 0.187865
vt 0.771439 0.197972
vt 0.790491 0.219747
vt 0.771439 0.241523
vt 0.730381 0.251629
vt 0.689322 0.241523
vt 0.670267 0.219747
vt 0.689322 0.197972
vt 0.971868 0.838105
vt 0.971868 0.818105
vt 0.971867 0.918105
vt 0.971867 0.898105
vt 0.971868 0.878105
vt 0.971868 0.858105
vt 0.971868 0.838105
vt 0.998952 0.978105
vt 0.971868 0.978105
vt 0.971867 0.958105
vt 0.971868 0.878105
vt 0.230381 0.278333
vt 0.271433 0.288439
vt 0.290491 0.310215
vt 0.271433 0.331991
vt 0.230381 0.342097
vt 0.189328 0.331991
vt 0.170274 0.310215
vt 0.189328 0.288439
vt 0.971868 0.838105
vt 0.971868 0.818105
vt 0.971868 0.898105
vt 0.971868 0.858105
vt 0.971867 0.938105
vt 0.971867 0.918105
vt 0.971868 0.858105
vt 0.730381 0.278061
vt 0.771439 0.288167
vt 0.790491 0.309943
vt 0.771439 0.331719
vt 0.730381 0.341825
vt 0.689322 0.331719
vt 0.670267 0.309943
vt 0.689322 0.288167
vt 0.971868 0.838105
vt 0.971867 0.918105
vt 0.971868 0.958105
vt 0.971867 0.938105
vt 0.971868 0.878105
vt 0.971867 0.978105
vt 0.971868 0.858105
vt 0.226397 0.368227
vt 0.267448 0.378333
vt 0.286507 0.400109
vt 0.267449 0.421885
vt 0.226397 0.431991
vt 0.185344 0.421885
vt 0.166290 0.400109
vt 0.185344 0.378333
vt 0.971868 0.818105
vt 0.971867 0.878105
vt 0.971868 0.938105
vt 0.730790 0.368849
vt 0.771849 0.378955
vt 0.790900 0.400731
vt 0.771849 0.422506
vt 0.730790 0.432613
vt 0.689731 0.422506
vt 0.670677 0.400731
vt 0.689731 0.378955
vt 0.971868 0.898105
vt 0.971868 0.878105
vt 0.971867 0.958105
vt 0.226822 0.461080
vt 0.267874 0.471187
vt 0.286932 0.492962
vt 0.267874 0.514738
vt 0.226822 0.524844
vt 0.185769 0.514738
vt 0.166715 0.492962
vt 0.185769 0.471187
vt 0.812500 0.940553
vt 0.856188 0.929351
vt 0.867141 0.935402
vt 0.812500 0.949412
vt 0.500000 0.676887
vt 0.500000 0.696041
vt 0.445359 0.696041
vt 0.445359 0.676887
vt 0.768812 0.881077
vt 0.748536 0.905214
vt 0.732500 0.905214
vt 0.757859 0.875025
vt 0.876464 0.905214
vt 0.856188 0.881077
vt 0.867141 0.875025
vt 0.892500 0.905214
vt 0.554641 0.696041
vt 0.554641 0.676887
vt 0.554641 0.676887
vt 0.554641 0.696041
vt 0.543688 0.696041
vt 0.543688 0.691067
vt 0.500000 0.691067
vt 0.812500 0.869875
vt 0.812500 0.861015
vt 0.445359 0.696041
vt 0.445359 0.676887
vt 0.768812 0.929351
vt 0.757859 0.935402
vt 0.971867 0.978105
vt 0.971867 0.958105
vt 0.732381 0.461933
vt 0.773439 0.472039
vt 0.792491 0.493815
vt 0.773439 0.515591
vt 0.732381 0.525697
vt 0.691322 0.515591
vt 0.672267 0.493815
vt 0.691322 0.472039
vt 0.971868 0.858105
vt 0.971868 0.878105
vt 0.971867 0.958105
vt 0.971868 0.878105
vt 0.971868 0.858105
vt 0.227881 0.764039
vt 0.271531 0.774785
vt 0.291795 0.797939
vt 0.271531 0.821093
vt 0.227881 0.831839
vt 0.184230 0.821094
vt 0.163970 0.797939
vt 0.184230 0.774785
vt 0.971868 0.938105
vt 0.971868 0.918105
vt 0.971867 0.838105
vt 0.971868 0.878105
vt 0.971868 0.958105
vt 0.481771 0.760334
vt 0.524313 0.770806
vt 0.544055 0.793369
vt 0.524312 0.815933
vt 0.481771 0.826405
vt 0.439228 0.815933
vt 0.419483 0.793369
vt 0.439228 0.770806
vt 0.971868 0.978105
vt 0.971868 0.958105
vt 0.971868 0.918105
vt 0.971868 0.898105
vt 0.500000 0.082634
vt 0.500000 0.104866
vt 0.431699 0.104866
vt 0.431699 0.082634
vt 0.500000 0.082634
vt 0.500000 0.104866
vt 0.568301 0.104866
vt 0.568301 0.082634
vt 1.000000 0.408840
vt 1.000000 0.375691
vt 0.960000 0.375691
vt 0.960000 0.408840
vt 0.568301 0.082634
vt 0.579955 0.093750
vt 0.554610 0.063579
vt 0.568301 0.056015
vt 0.600000 0.093750
vt 0.554610 0.123921
vt 0.568301 0.131485
vt 0.500000 0.049576
vt 0.445390 0.063579
vt 0.431699 0.056015
vt 0.500000 0.038501
vt 0.420045 0.093750
vt 0.445390 0.123921
vt 0.431699 0.131485
vt 0.400000 0.093750
vt 0.431699 0.082634
vt 0.431699 0.104866
vt 0.500000 0.137924
vt 0.500000 0.148999
vt 0.732881 0.760467
vt 0.781828 0.772515
vt 0.804544 0.798477
vt 0.781828 0.824438
vt 0.732881 0.836486
vt 0.683933 0.824438
vt 0.661213 0.798477
vt 0.683933 0.772515
vt 1.000000 0.342541
vt 0.960000 0.342541
vt 0.485837 0.463960
vt 0.521460 0.472728
vt 0.537993 0.491623
vt 0.521460 0.510517
vt 0.485837 0.519286
vt 0.450214 0.510517
vt 0.433679 0.491623
vt 0.450214 0.472729
vt 0.456312 0.696041
vt 0.456312 0.691067
vt 0.543688 0.696041
vt 0.543688 0.691067
vt 0.456312 0.696041
vt 0.456312 0.691067
s 0
usemtl floor_3_metal
f 24/23/4 19/24/4 20/25/4
f 18/30/4 17/31/4 23/32/4
f 23/32/4 24/23/4 20/25/4 18/30/4
usemtl concrete_4
f 20/15/3 22/16/3 21/17/3 18/18/3
f 17/19/6 18/20/6 21/21/6 26/22/6
f 20/20/7 19/19/7 25/22/7 22/21/7
f 22/26/8 25/27/8 26/28/8 21/29/8
f 23/33/1 17/34/1 26/17/1 28/35/1
f 27/36/1 28/35/1 26/17/1 25/16/1
f 19/37/1 24/38/1 27/36/1 25/16/1
usemtl metal_mp_1
f 1/1/1 2/2/1 4/3/1 3/4/1
f 7/5/2 4/6/2 2/7/2 8/8/2
f 6/3/3 7/9/3 8/10/3 5/2/3
f 10/3/1 9/2/1 11/10/1 12/9/1
f 6/5/4 5/8/4 9/11/4 10/12/4
f 15/4/3 16/3/3 14/2/3 13/1/3
f 12/12/5 11/11/5 14/13/5 16/14/5
s 1
f 32/39/9 30/40/10 34/41/10 36/42/9
f 32/43/3 31/44/3 29/45/3 30/46/3
f 36/47/11 35/48/11 31/49/12 32/50/13
f 29/51/14 31/52/15 35/42/16 33/53/14
f 35/54/1 36/43/1 34/46/1 33/55/1
f 40/56/16 38/57/14 42/58/14 44/59/17
f 40/60/1 39/61/1 37/62/1 38/63/1
f 44/64/18 43/65/13 39/66/19 40/67/11
f 37/68/10 39/69/20 43/59/9 41/70/10
f 43/71/3 44/72/3 42/73/3 41/74/3
f 56/39/29 54/40/30 58/41/30 60/42/29
f 56/43/1 55/44/1 53/45/1 54/46/1
f 60/47/31 59/48/31 55/49/32 56/50/33
f 53/51/34 55/52/35 59/42/36 57/53/34
f 59/54/3 60/43/3 58/46/3 57/55/3
f 64/56/36 62/57/34 66/58/34 68/59/37
f 64/60/3 63/61/3 61/62/3 62/63/3
f 68/64/38 67/65/33 63/66/39 64/67/31
f 61/68/30 63/69/40 67/59/29 65/70/30
f 67/71/1 68/72/1 66/73/1 65/74/1
usemtl wood_4
f 47/75/21 48/76/22 51/77/23 52/78/24
f 49/79/4 51/80/25 48/81/26 46/82/4
f 52/83/27 50/79/8 45/84/8 47/85/28
f 50/86/6 49/87/6 46/88/6 45/89/6
f 71/75/41 72/76/42 75/77/43 76/78/44
f 73/79/4 75/80/45 72/81/46 70/82/4
f 76/83/47 74/79/8 69/84/8 71/85/48
f 74/86/7 73/87/7 70/88/7 69/89/7
s 0
f 84/90/3 83/91/3 79/92/3 80/93/3
f 82/94/49 78/95/49 79/96/49 83/91/49
f 81/97/4 77/98/4 78/99/4 82/100/4
f 92/101/7 91/102/7 87/92/7 88/93/7
f 90/103/50 86/95/50 87/96/50 91/104/50
f 89/105/4 85/98/4 86/99/4 90/106/4
f 100/101/6 96/93/6 95/92/6 99/102/6
f 98/103/51 99/104/51 95/96/51 94/95/51
f 97/105/4 98/106/4 94/99/4 93/98/4
f 108/107/1 107/108/1 103/92/1 104/93/1
f 106/109/52 102/95/52 103/96/52 107/110/52
f 105/111/4 101/98/4 102/99/4 106/112/4
f 116/107/1 112/93/1 111/92/1 115/113/1
f 114/114/52 115/115/52 111/96/52 110/95/52
f 113/116/4 114/117/4 110/99/4 109/98/4
s 1
usemtl elevator_buttons_1
f 348/301/4 355/302/4 350/303/4 347/304/4
f 352/305/3 349/306/3 356/307/3 354/308/3
f 345/309/8 351/310/8 353/311/8 346/312/8
f 346/313/7 353/314/7 355/315/7 348/316/7
f 350/317/74 349/318/74 352/319/74 351/320/74
f 351/321/73 352/322/73 354/323/73 353/324/73
f 353/325/75 354/319/75 356/318/75 355/317/75
f 355/326/76 356/323/76 349/322/76 350/327/76
f 347/328/6 350/329/6 351/330/6 345/331/6
f 358/332/8 362/333/8 370/334/77 366/335/77
f 357/336/78 361/337/78 371/338/79 367/339/79
f 359/340/80 368/341/81 372/342/81 363/343/80
f 362/344/3 369/345/3 363/346/3 372/347/3 364/348/3 371/349/3 361/350/3 370/351/3
f 358/352/8 365/353/82 369/354/82 362/355/8
f 367/339/79 371/356/79 364/357/4 360/358/4
f 366/335/77 370/359/77 361/337/78 357/360/78
f 360/361/4 364/362/4 372/363/81 368/364/81
f 359/365/80 363/366/80 369/367/82 365/368/82
f 374/332/8 378/369/8 386/370/77 382/335/77
f 373/336/78 377/371/78 387/372/79 383/339/79
f 375/340/6 384/341/81 388/342/81 379/343/6
f 378/373/3 385/374/3 379/375/3 388/376/3 380/377/3 387/378/3 377/379/3 386/380/3
f 374/381/8 381/353/82 385/382/82 378/383/8
f 383/339/79 387/384/79 380/385/4 376/361/4
f 382/335/77 386/386/77 377/387/78 373/360/78
f 376/361/4 380/388/4 388/389/81 384/364/81
f 375/365/6 379/343/6 385/390/82 381/368/82
f 390/332/8 394/369/8 402/370/77 398/335/77
f 389/336/7 393/371/7 403/372/79 399/339/79
f 391/340/6 400/341/81 404/363/81 395/391/6
f 394/392/3 401/393/3 395/394/3 404/395/3 396/396/3 403/397/3 393/398/3 402/399/3
f 390/381/8 397/353/82 401/400/82 394/401/8
f 399/339/79 403/402/79 396/385/4 392/361/4
f 398/335/77 402/386/77 393/387/7 389/360/7
f 392/361/4 396/403/4 404/404/81 400/364/81
f 391/365/6 395/405/6 401/406/82 397/368/82
f 406/407/8 410/408/8 418/409/77 414/335/77
f 405/336/7 409/371/7 419/372/79 415/339/79
f 407/340/6 416/341/81 420/410/81 411/391/6
f 410/411/3 417/412/3 411/413/3 420/414/3 412/415/3 419/416/3 409/417/3 418/418/3
f 406/381/8 413/353/82 417/419/82 410/420/8
f 415/339/79 419/356/79 412/421/4 408/361/4
f 414/335/77 418/386/77 409/387/7 405/360/7
f 408/361/4 412/388/4 420/389/81 416/364/81
f 407/365/6 411/422/6 417/390/82 413/368/82
f 422/407/8 426/408/8 434/409/77 430/335/77
f 421/336/7 425/423/7 435/424/79 431/339/79
f 423/340/6 432/364/81 436/363/81 427/425/6
f 426/426/3 433/427/3 427/428/3 436/429/3 428/430/3 435/431/3 425/432/3 434/433/3
f 422/381/8 429/353/82 433/434/82 426/383/8
f 431/339/79 435/435/79 428/385/4 424/361/4
f 430/335/77 434/436/77 425/437/7 421/360/7
f 424/361/4 428/388/4 436/438/81 432/364/81
f 423/365/6 427/343/6 433/354/82 429/368/82
f 438/407/8 442/439/8 450/409/77 446/335/77
f 437/336/7 441/371/7 451/372/79 447/339/79
f 439/340/80 448/341/81 452/342/81 443/440/80
f 442/441/3 449/442/3 443/443/3 452/444/3 444/445/3 451/446/3 441/447/3 450/448/3
f 438/381/8 445/353/82 449/406/82 442/449/8
f 447/339/79 451/435/79 444/385/4 440/361/4
f 446/335/77 450/386/77 441/387/7 437/360/7
f 440/361/4 444/385/4 452/450/81 448/364/81
f 439/340/80 443/422/80 449/390/82 445/368/82
f 454/407/8 458/369/8 466/409/77 462/335/77
f 453/336/7 457/451/7 467/384/79 463/339/79
f 455/340/6 464/364/81 468/410/81 459/391/6
f 458/452/3 465/453/3 459/454/3 468/455/3 460/456/3 467/457/3 457/458/3 466/459/3
f 454/352/8 461/353/82 465/434/82 458/383/8
f 463/339/79 467/402/79 460/385/4 456/361/4
f 462/335/77 466/386/77 457/387/7 453/360/7
f 456/361/4 460/460/4 468/461/81 464/364/81
f 455/365/6 459/366/6 465/406/82 461/368/82
f 482/365/6 478/422/6 472/354/82 476/368/82
f 481/361/4 477/388/4 469/389/81 473/364/81
f 475/335/77 471/462/77 480/387/78 484/360/78
f 482/340/6 473/341/81 469/363/81 478/391/6
f 479/463/3 472/464/3 478/465/3 469/466/3 477/467/3 470/468/3 480/469/3 471/470/3
f 483/381/8 476/353/82 472/406/82 479/420/8
f 483/407/8 479/439/8 471/409/77 475/335/77
f 484/336/78 480/387/78 470/384/79 474/339/79
f 474/339/79 470/338/79 477/385/4 481/361/4
f 497/471/3 486/472/3 485/473/3 498/474/3
f 506/475/6 499/476/6 491/477/82 496/478/82
f 490/479/3 503/480/3 504/481/3 489/482/3
f 500/483/3 492/484/3 491/485/3 499/486/3
f 505/475/4 498/476/4 485/487/81 493/488/81
f 495/478/77 489/477/77 504/476/7 508/475/7
f 506/475/6 493/489/81 485/490/81 499/476/6
f 502/476/4 492/491/79 595/492/79 591/493/4
f 507/475/8 496/488/82 491/487/82 501/476/8
f 486/472/3 500/483/3 499/486/3 485/473/3
f 492/484/3 502/494/3 501/495/3 491/485/3
f 507/475/8 501/476/8 489/496/77 495/497/77
f 502/494/3 490/479/3 489/482/3 501/495/3
f 508/475/7 504/476/7 487/490/79 494/489/79
f 503/480/3 488/498/3 487/499/3 504/481/3
f 488/498/3 497/471/3 498/474/3 487/499/3
f 494/497/79 487/496/79 498/476/4 505/475/4
f 510/407/8 514/500/8 522/501/77 518/335/77
f 509/336/7 513/387/7 523/384/79 519/339/79
f 511/340/6 520/341/81 524/363/81 515/391/6
f 514/502/3 521/503/3 515/504/3 524/505/3 516/506/3 523/507/3 513/508/3 522/509/3
f 510/352/8 517/353/82 521/434/82 514/383/8
f 519/339/79 523/384/79 516/385/4 512/361/4
f 518/335/77 522/334/77 513/387/7 509/360/7
f 512/361/4 516/385/4 524/404/81 520/364/81
f 511/365/6 515/510/6 521/390/82 517/368/82
f 538/365/6 534/366/6 528/434/82 532/368/82
f 537/361/4 533/403/4 525/511/81 529/364/81
f 531/335/77 527/512/77 536/337/78 540/360/78
f 538/340/6 529/341/81 525/513/81 534/514/6
f 535/515/3 528/516/3 534/517/3 525/518/3 533/519/3 526/520/3 536/521/3 527/522/3
f 539/381/8 532/353/82 528/354/82 535/383/8
f 539/332/8 535/369/8 527/512/77 531/335/77
f 540/336/78 536/523/78 526/524/79 530/339/79
f 530/339/79 526/384/79 533/403/4 537/361/4
f 554/365/6 550/343/6 544/525/82 548/368/82
f 553/361/4 549/421/4 541/526/81 545/364/81
f 547/335/77 543/527/77 552/451/7 556/360/7
f 554/340/6 545/341/81 541/404/81 550/405/6
f 551/528/3 544/529/3 550/530/3 541/531/3 549/532/3 542/533/3 552/534/3 543/535/3
f 555/352/8 548/353/82 544/525/82 551/449/8
f 555/332/8 551/536/8 543/537/77 547/335/77
f 556/336/7 552/437/7 542/356/79 546/339/79
f 546/339/79 542/538/79 549/539/4 553/358/4
f 558/540/8 564/541/8 576/542/77 570/543/77
f 557/544/7 561/545/7 578/546/79 571/547/79
f 559/544/6 572/547/81 580/546/81 566/545/6
f 579/548/81 568/549/4 588/550/4 583/551/81
f 558/540/8 569/552/82 574/546/82 564/541/8
f 571/543/79 578/542/79 567/541/4 560/540/4
f 565/553/3 573/554/3 574/555/3 566/556/3
f 579/557/3 565/553/3 566/556/3 580/558/3
f 563/559/3 575/560/3 576/561/3 564/562/3
f 562/563/3 577/564/3 578/565/3 561/566/3
f 570/567/77 576/568/77 561/545/7 557/544/7
f 577/564/3 568/569/3 567/570/3 578/565/3
f 575/560/3 562/563/3 561/566/3 576/561/3
f 568/569/3 579/557/3 580/558/3 567/570/3
f 560/540/4 567/541/4 580/546/81 572/552/81
f 559/544/6 566/545/6 574/568/82 569/567/82
f 573/554/3 563/559/3 564/562/3 574/555/3
f 582/571/3 581/572/3 584/573/3 583/574/3 588/575/3 587/576/3 586/577/3 585/578/3
f 577/548/79 562/549/7 586/550/7 587/551/79
f 575/579/77 563/549/8 582/550/8 585/580/77
f 568/549/4 577/579/79 587/580/79 588/550/4
f 573/579/82 565/549/6 584/550/6 581/580/82
f 565/549/6 579/548/81 583/551/81 584/550/6
f 563/549/8 573/548/82 581/551/82 582/550/8
f 562/549/7 575/579/77 585/580/77 586/550/7
f 591/581/3 595/582/3 594/583/3 590/584/3 589/585/3 596/586/3 593/587/3 592/588/3
f 492/589/79 500/476/7 594/493/7 595/590/79
f 486/491/77 497/476/8 589/493/8 590/492/77
f 488/591/82 503/476/6 593/493/6 596/592/82
f 500/476/7 486/591/77 590/592/77 594/493/7
f 503/476/6 490/589/81 592/590/81 593/493/6
f 497/476/8 488/593/82 596/594/82 589/493/8
f 490/593/81 502/476/4 591/493/4 592/594/81
s 0
usemtl elevator_screen_1
f 117/118/4 123/119/4 132/120/4 127/121/4
f 124/122/6 121/123/6 131/124/6 130/125/6
f 122/126/8 120/127/8 129/128/8 128/129/8
f 121/130/53 122/131/53 128/132/53 131/133/53
f 119/134/7 118/135/7 126/136/7 125/137/7
f 126/138/1 127/139/1 132/140/1 130/141/1 131/142/1 128/143/1 129/144/1 125/145/1
f 207/146/6 202/147/6 134/148/6 133/149/6
f 135/149/7 136/148/7 206/147/7 205/146/7
f 133/150/8 135/151/8 205/152/8 207/153/8
f 136/151/4 134/150/4 202/153/4 206/152/4
f 118/154/54 117/155/54 127/156/54 126/157/54
f 120/158/55 119/159/55 125/160/55 129/161/55
f 123/162/56 124/163/56 130/164/56 132/165/56
f 139/166/3 140/167/3 144/168/3 143/169/3
f 144/170/4 142/171/4 146/172/4 148/173/4
f 141/169/1 142/168/1 138/167/1 137/166/1
f 139/174/8 143/170/8 141/171/8 137/175/8
f 144/170/4 140/174/4 138/175/4 142/171/4
f 146/176/57 145/177/57 149/178/57 150/179/57
f 143/169/58 144/168/58 148/180/58 147/181/58
f 142/168/59 141/169/59 145/182/59 146/183/59
f 141/171/8 143/170/8 147/173/8 145/172/8
f 145/172/8 147/173/8 151/184/8 149/185/8
f 148/173/4 146/172/4 150/185/4 152/184/4
f 147/183/60 148/182/60 152/179/60 151/178/60
f 155/166/3 156/167/3 160/168/3 159/169/3
f 160/170/4 158/171/4 162/172/4 164/173/4
f 157/169/1 158/168/1 154/167/1 153/166/1
f 155/174/8 159/170/8 157/171/8 153/175/8
f 160/170/4 156/174/4 154/175/4 158/171/4
f 162/176/57 161/177/57 165/178/57 166/179/57
f 159/169/58 160/168/58 164/180/58 163/181/58
f 158/168/59 157/169/59 161/182/59 162/183/59
f 157/171/8 159/170/8 163/173/8 161/172/8
f 161/172/8 163/173/8 167/184/8 165/185/8
f 164/173/4 162/172/4 166/185/4 168/184/4
f 163/183/60 164/182/60 168/179/60 167/178/60
f 171/166/3 172/167/3 176/168/3 175/169/3
f 176/170/4 174/171/4 178/172/4 180/173/4
f 173/169/1 174/168/1 170/167/1 169/166/1
f 171/174/8 175/170/8 173/171/8 169/175/8
f 176/170/4 172/174/4 170/175/4 174/171/4
f 178/176/57 177/177/57 181/178/57 182/179/57
f 175/169/58 176/168/58 180/180/58 179/181/58
f 174/168/59 173/169/59 177/182/59 178/183/59
f 173/171/8 175/170/8 179/173/8 177/172/8
f 177/172/8 179/173/8 183/184/8 181/185/8
f 180/173/4 178/172/4 182/185/4 184/184/4
f 179/183/60 180/182/60 184/179/60 183/178/60
f 187/166/3 188/167/3 192/168/3 191/169/3
f 192/170/4 190/171/4 194/172/4 196/173/4
f 189/169/1 190/168/1 186/167/1 185/166/1
f 187/174/8 191/170/8 189/171/8 185/175/8
f 192/170/4 188/174/4 186/175/4 190/171/4
f 194/176/57 193/177/57 197/178/57 198/179/57
f 191/169/58 192/168/58 196/180/58 195/181/58
f 190/168/59 189/169/59 193/182/59 194/183/59
f 189/171/8 191/170/8 195/173/8 193/172/8
f 193/172/8 195/173/8 199/184/8 197/185/8
f 196/173/4 194/172/4 198/185/4 200/184/4
f 195/183/60 196/182/60 200/179/60 199/178/60
f 206/151/4 202/150/4 203/153/4 201/152/4
f 207/150/8 205/151/8 212/152/8 204/153/8
f 205/149/7 206/148/7 201/147/7 212/146/7
f 204/146/6 203/147/6 202/148/6 207/149/6
f 214/186/61 215/187/61 211/188/61 209/189/61
f 208/190/1 209/191/1 203/192/1 204/193/1
f 211/194/1 210/195/1 212/196/1 201/197/1
f 210/195/1 208/190/1 204/193/1 212/196/1
f 209/191/1 211/194/1 201/197/1 203/192/1
f 216/198/1 215/199/1 214/200/1 213/201/1
f 215/187/62 216/202/62 210/203/62 211/188/62
f 216/202/63 213/204/63 208/205/63 210/203/63
f 213/204/64 214/186/64 209/189/64 208/205/64
f 199/178/6 200/179/6 232/206/6 231/207/6
f 167/178/6 168/179/6 224/206/6 223/207/6
f 197/185/8 199/184/8 231/177/8 229/176/8
f 165/185/8 167/184/8 223/177/8 221/176/8
f 200/184/4 198/185/4 230/176/4 232/177/4
f 151/178/6 152/179/6 220/206/6 219/207/6
f 168/184/4 166/185/4 222/176/4 224/177/4
f 198/179/7 197/178/7 229/207/7 230/206/7
f 183/178/6 184/179/6 228/206/6 227/207/6
f 149/185/8 151/184/8 219/177/8 217/176/8
f 166/179/7 165/178/7 221/207/7 222/206/7
f 181/185/8 183/184/8 227/177/8 225/176/8
f 152/184/4 150/185/4 218/176/4 220/177/4
f 150/179/7 149/178/7 217/207/7 218/206/7
f 184/184/4 182/185/4 226/176/4 228/177/4
f 182/179/7 181/178/7 225/207/7 226/206/7
f 235/166/3 239/169/3 240/168/3 236/167/3
f 240/170/4 244/173/4 242/172/4 238/171/4
f 237/169/1 233/166/1 234/167/1 238/168/1
f 235/174/8 233/175/8 237/171/8 239/170/8
f 240/170/4 238/171/4 234/175/4 236/174/4
f 242/176/65 246/179/65 245/178/65 241/177/65
f 239/169/66 243/181/66 244/180/66 240/168/66
f 238/168/67 242/183/67 241/182/67 237/169/67
f 237/171/8 241/172/8 243/173/8 239/170/8
f 241/172/8 245/185/8 247/184/8 243/173/8
f 244/173/4 248/184/4 246/185/4 242/172/4
f 243/183/68 247/178/68 248/179/68 244/182/68
f 251/166/3 255/169/3 256/168/3 252/167/3
f 256/170/4 260/173/4 258/172/4 254/171/4
f 253/169/1 249/166/1 250/167/1 254/168/1
f 251/174/8 249/175/8 253/171/8 255/170/8
f 256/170/4 254/171/4 250/175/4 252/174/4
f 258/176/65 262/179/65 261/178/65 257/177/65
f 255/169/69 259/181/69 260/180/69 256/168/69
f 254/168/67 258/183/67 257/182/67 253/169/67
f 253/171/8 257/172/8 259/173/8 255/170/8
f 257/172/8 261/185/8 263/184/8 259/173/8
f 260/173/4 264/184/4 262/185/4 258/172/4
f 259/183/68 263/178/68 264/179/68 260/182/68
f 267/166/3 271/169/3 272/168/3 268/167/3
f 272/170/4 276/173/4 274/172/4 270/171/4
f 269/169/1 265/166/1 266/167/1 270/168/1
f 267/174/8 265/175/8 269/171/8 271/170/8
f 272/170/4 270/171/4 266/175/4 268/174/4
f 274/176/65 278/179/65 277/178/65 273/177/65
f 271/169/69 275/181/69 276/180/69 272/168/69
f 270/168/67 274/183/67 273/182/67 269/169/67
f 269/171/8 273/172/8 275/173/8 271/170/8
f 273/172/8 277/185/8 279/184/8 275/173/8
f 276/173/4 280/184/4 278/185/4 274/172/4
f 275/183/68 279/178/68 280/179/68 276/182/68
f 283/166/3 287/169/3 288/168/3 284/167/3
f 288/170/4 292/173/4 290/172/4 286/171/4
f 285/169/1 281/166/1 282/167/1 286/168/1
f 283/174/8 281/175/8 285/171/8 287/170/8
f 288/170/4 286/171/4 282/175/4 284/174/4
f 290/176/65 294/179/65 293/178/65 289/177/65
f 287/169/66 291/181/66 292/180/66 288/168/66
f 286/168/67 290/183/67 289/182/67 285/169/67
f 285/171/8 289/172/8 291/173/8 287/170/8
f 289/172/8 293/185/8 295/184/8 291/173/8
f 292/173/4 296/184/4 294/185/4 290/172/4
f 291/183/68 295/178/68 296/179/68 292/182/68
f 295/178/7 311/207/7 312/206/7 296/179/7
f 263/178/7 303/207/7 304/206/7 264/179/7
f 293/185/8 309/176/8 311/177/8 295/184/8
f 261/185/8 301/176/8 303/177/8 263/184/8
f 296/184/4 312/177/4 310/176/4 294/185/4
f 247/178/7 299/207/7 300/206/7 248/179/7
f 264/184/4 304/177/4 302/176/4 262/185/4
f 294/179/6 310/206/6 309/207/6 293/178/6
f 279/178/7 307/207/7 308/206/7 280/179/7
f 245/185/8 297/176/8 299/177/8 247/184/8
f 262/179/6 302/206/6 301/207/6 261/178/6
f 277/185/8 305/176/8 307/177/8 279/184/8
f 248/184/4 300/177/4 298/176/4 246/185/4
f 246/179/6 298/206/6 297/207/6 245/178/6
f 280/184/4 308/177/4 306/176/4 278/185/4
f 278/179/6 306/206/6 305/207/6 277/178/6
usemtl wood_painted_white
f 318/208/4 317/209/4 313/210/4 314/211/4
f 313/212/7 327/213/7 328/214/7 314/215/7
f 339/216/3 341/217/3 326/218/3 318/219/3
f 326/214/6 325/220/6 317/221/6 318/215/6
f 319/222/6 320/223/6 324/224/6 323/225/6
f 343/226/3 324/227/3 320/228/3 337/229/3
f 329/230/1 331/231/1 313/232/1 317/233/1
f 316/234/7 315/235/7 321/236/7 322/224/7
f 340/237/3 337/238/3 320/239/3 316/240/3
f 336/241/1 332/242/1 319/243/1 323/244/1
f 334/245/1 321/246/1 315/247/1 330/248/1
f 319/249/8 315/250/8 316/251/8 320/252/8
f 325/253/1 333/254/1 329/255/1 317/256/1
f 333/257/70 334/258/70 330/259/70 329/260/70
f 327/261/1 313/262/1 331/263/1 335/264/1
f 335/265/71 331/266/71 332/267/71 336/268/71
f 315/269/1 319/270/1 332/271/1 330/272/1
f 330/273/72 332/274/72 331/275/72 329/276/72
f 318/277/3 314/278/3 338/279/3 339/280/3
f 339/281/73 338/282/73 337/283/73 340/284/73
f 328/285/3 344/286/3 338/287/3 314/288/3
f 344/289/74 343/290/74 337/291/74 338/292/74
f 316/293/3 322/294/3 342/295/3 340/296/3
f 340/297/75 342/298/75 341/299/75 339/300/75
o elevator_door_1_b
v -0.000001 0.000000 0.000000
v -0.000001 2.300000 0.000000
v -0.000001 0.000000 -0.060000
v -0.000001 2.300000 -0.060000
v -0.693001 2.300000 -0.060000
v -0.700001 2.300000 -0.053000
v -0.700001 0.000000 -0.053000
v -0.693001 0.000000 -0.060000
v -0.700001 2.300000 -0.007000
v -0.693001 2.300000 0.000000
v -0.693001 0.000000 0.000000
v -0.700001 0.000000 -0.007000
vn -1.0000 -0.0000 -0.0000
vn 1.0000 -0.0000 -0.0000
vn -0.0000 -0.0000 1.0000
vn -0.0000 -0.0000 -1.0000
vn -0.0000 -1.0000 -0.0000
vn -0.7071 -0.0000 -0.7071
vn -0.7071 -0.0000 0.7071
vn -0.0000 1.0000 -0.0000
vt 0.520000 0.000000
vt 0.487143 0.000000
vt 0.487143 1.000000
vt 0.520000 1.000000
vt 0.525000 0.000000
vt 0.525000 1.000000
vt 0.482143 1.000000
vt 0.482143 0.000000
vt 1.000000 0.000000
vt 1.000000 1.000000
vt 0.505000 1.000000
vt 0.505000 0.000000
vt 0.505000 1.000000
vt 0.505000 0.000000
vt 1.000000 0.515217
vt 1.000000 0.489130
vt 0.505000 0.489130
vt 0.500000 0.492174
vt 0.500000 0.512174
vt 0.505000 0.515217
vt 0.500000 0.000000
vt 0.500000 1.000000
vt 0.500000 1.000000
vt 0.500000 0.512174
vt 0.500000 0.492174
s 0
usemtl elevator_door_1
f 603/595/83 608/596/83 605/597/83 602/598/83
f 599/599/84 600/600/84 598/601/84 597/602/84
f 597/603/85 598/604/85 606/605/85 607/606/85
f 601/607/86 600/604/86 599/603/86 604/608/86
f 599/609/87 597/610/87 607/611/87 608/612/87 603/613/87 604/614/87
f 601/607/88 604/608/88 603/615/88 602/616/88
f 605/617/89 608/615/89 607/606/89 606/605/89
f 598/610/90 600/609/90 601/614/90 602/618/90 605/619/90 606/611/90
o elevator_door_2_a
v -0.000001 0.000000 0.010000
v -0.000001 2.300000 0.010000
v -0.000001 0.000000 -0.050000
v -0.000001 2.300000 -0.050000
v 0.699999 2.300000 -0.043000
v 0.692999 2.300000 -0.050000
v 0.692999 0.000000 -0.050000
v 0.699999 0.000000 -0.043000
v 0.692999 2.300000 0.010000
v 0.699999 2.300000 0.003000
v 0.699999 0.000000 0.003000
v 0.692999 0.000000 0.010000
vn -1.0000 -0.0000 -0.0000
vn 1.0000 -0.0000 -0.0000
vn -0.0000 -0.0000 1.0000
vn -0.0000 -0.0000 -1.0000
vn -0.0000 -1.0000 -0.0000
vn 0.7071 -0.0000 0.7071
vn 0.7071 -0.0000 -0.7071
vn -0.0000 1.0000 -0.0000
vt 0.475000 0.000000
vt 0.475000 1.000000
vt 0.517857 1.000000
vt 0.517857 0.000000
vt 0.512857 0.000000
vt 0.512857 1.000000
vt 0.480000 1.000000
vt 0.480000 0.000000
vt 0.000000 1.000000
vt 0.000000 0.000000
vt 0.495000 0.000000
vt 0.495000 1.000000
vt 0.495000 1.000000
vt 0.495000 0.000000
vt 0.500000 0.487826
vt 0.495000 0.484783
vt 0.000000 0.484783
vt 0.000000 0.510870
vt 0.495000 0.510870
vt 0.500000 0.507826
vt 0.500000 0.000000
vt 0.500000 1.000000
vt 0.500000 1.000000
vt 0.495000 0.510870
vt 0.495000 0.484783
s 0
usemtl elevator_door_1
f 609/620/91 610/621/91 612/622/91 611/623/91
f 616/624/92 613/625/92 618/626/92 619/627/92
f 610/628/93 609/629/93 620/630/93 617/631/93
f 611/629/94 612/628/94 614/632/94 615/633/94
f 619/634/95 620/635/95 609/636/95 611/637/95 615/638/95 616/639/95
f 617/631/96 620/630/96 619/640/96 618/641/96
f 613/642/97 616/640/97 615/633/97 614/632/97
f 613/639/98 614/643/98 612/637/98 610/636/98 617/644/98 618/634/98
o elevator_door_1_a
v -0.000001 0.000000 0.010000
v -0.000001 2.300000 0.010000
v -0.000001 0.000000 -0.050000
v -0.000001 2.300000 -0.050000
v 0.699999 2.300000 -0.043000
v 0.692999 2.300000 -0.050000
v 0.692999 0.000000 -0.050000
v 0.699999 0.000000 -0.043000
v 0.692999 2.300000 0.010000
v 0.699999 2.300000 0.003000
v 0.699999 0.000000 0.003000
v 0.692999 0.000000 0.010000
vn -1.0000 -0.0000 -0.0000
vn 1.0000 -0.0000 -0.0000
vn -0.0000 -0.0000 1.0000
vn -0.0000 -0.0000 -1.0000
vn -0.0000 -1.0000 -0.0000
vn 0.7071 -0.0000 0.7071
vn 0.7071 -0.0000 -0.7071
vn -0.0000 1.0000 -0.0000
vt 0.475000 0.000000
vt 0.475000 1.000000
vt 0.517857 1.000000
vt 0.517857 0.000000
vt 0.512857 0.000000
vt 0.512857 1.000000
vt 0.480000 1.000000
vt 0.480000 0.000000
vt 0.000000 1.000000
vt 0.000000 0.000000
vt 0.495000 0.000000
vt 0.495000 1.000000
vt 0.495000 1.000000
vt 0.495000 0.000000
vt 0.500000 0.487826
vt 0.495000 0.484783
vt 0.000000 0.484783
vt 0.000000 0.510870
vt 0.495000 0.510870
vt 0.500000 0.507826
vt 0.500000 0.000000
vt 0.500000 1.000000
vt 0.500000 1.000000
vt 0.495000 0.510870
vt 0.495000 0.484783
s 0
usemtl elevator_door_1
f 621/645/99 622/646/99 624/647/99 623/648/99
f 628/649/100 625/650/100 630/651/100 631/652/100
f 622/653/101 621/654/101 632/655/101 629/656/101
f 623/654/102 624/653/102 626/657/102 627/658/102
f 631/659/103 632/660/103 621/661/103 623/662/103 627/663/103 628/664/103
f 629/656/104 632/655/104 631/665/104 630/666/104
f 625/667/105 628/665/105 627/658/105 626/657/105
f 625/664/106 626/668/106 624/662/106 622/661/106 629/669/106 630/659/106
o elevator_door_2_b
v -0.000001 0.000000 0.000000
v -0.000001 2.300000 0.000000
v -0.000001 0.000000 -0.060000
v -0.000001 2.300000 -0.060000
v -0.693001 2.300000 -0.060000
v -0.700001 2.300000 -0.053000
v -0.700001 0.000000 -0.053000
v -0.693001 0.000000 -0.060000
v -0.700001 2.300000 -0.007000
v -0.693001 2.300000 0.000000
v -0.693001 0.000000 0.000000
v -0.700001 0.000000 -0.007000
vn -1.0000 -0.0000 -0.0000
vn 1.0000 -0.0000 -0.0000
vn -0.0000 -0.0000 1.0000
vn -0.0000 -0.0000 -1.0000
vn -0.0000 -1.0000 -0.0000
vn -0.7071 -0.0000 -0.7071
vn -0.7071 -0.0000 0.7071
vn -0.0000 1.0000 -0.0000
vt 0.520000 0.000000
vt 0.487143 0.000000
vt 0.487143 1.000000
vt 0.520000 1.000000
vt 0.525000 0.000000
vt 0.525000 1.000000
vt 0.482143 1.000000
vt 0.482143 0.000000
vt 1.000000 0.000000
vt 1.000000 1.000000
vt 0.505000 1.000000
vt 0.505000 0.000000
vt 0.505000 1.000000
vt 0.505000 0.000000
vt 1.000000 0.515217
vt 1.000000 0.489130
vt 0.505000 0.489130
vt 0.500000 0.492174
vt 0.500000 0.512174
vt 0.505000 0.515217
vt 0.500000 0.000000
vt 0.500000 1.000000
vt 0.500000 1.000000
vt 0.500000 0.512174
vt 0.500000 0.492174
s 0
usemtl elevator_door_1
f 639/670/107 644/671/107 641/672/107 638/673/107
f 635/674/108 636/675/108 634/676/108 633/677/108
f 633/678/109 634/679/109 642/680/109 643/681/109
f 637/682/110 636/679/110 635/678/110 640/683/110
f 635/684/111 633/685/111 643/686/111 644/687/111 639/688/111 640/689/111
f 637/682/112 640/683/112 639/690/112 638/691/112
f 641/692/113 644/690/113 643/681/113 642/680/113
f 634/685/114 636/684/114 637/689/114 638/693/114 641/694/114 642/686/114
