# Blender 5.0.1
# www.blender.org
mtllib elevator_doorway_3.mtl
o elevator_doorway_3
v 2.000000 0.000000 0.060000
v 2.000000 3.000000 0.060000
v 2.000000 0.000000 -0.060000
v 2.000000 3.000000 -0.060000
v 2.030000 0.000000 0.030000
v 2.030000 3.000000 0.030000
v 2.030000 0.000000 -0.030000
v 2.030000 3.000000 -0.030000
v -2.000000 0.000000 -0.060000
v -2.000000 3.000000 -0.060000
v -2.000000 0.000000 0.060001
v -2.000000 3.000000 0.060000
v -2.030000 0.000000 -0.030000
v -2.030000 3.000000 -0.030000
v -2.030000 0.000000 0.030001
v -2.030000 3.000000 0.030000
v 0.780001 0.000000 0.060000
v 0.780001 0.000000 -0.060000
v -0.780000 0.000000 -0.060000
v -0.780000 0.000000 0.060000
v -0.780000 2.380000 0.060000
v 0.780000 2.380000 0.060000
v 0.780000 2.380000 -0.060000
v -0.780000 2.380000 -0.060000
v -0.700000 0.000000 -0.150000
v -0.700000 0.010000 -0.150000
v 0.700000 0.000000 -0.150000
v 0.700000 0.010000 -0.150000
v -0.700000 0.010000 -0.050000
v 0.700000 0.010000 -0.050000
v 0.700000 0.020000 -0.050000
v -0.700000 0.020000 -0.050000
v -0.700000 0.010000 0.010000
v 0.700000 0.010000 0.010000
v -0.700000 0.020000 0.010000
v 0.700000 0.020000 0.010000
v -0.700000 -0.000000 0.060000
v -0.700000 0.010000 0.060000
v 0.700000 -0.000000 0.060000
v 0.700000 0.010000 0.060000
v -0.779999 2.380000 -0.100000
v -0.779999 2.380000 0.100000
v 0.700000 2.299999 -0.080000
v 0.700000 2.299999 0.080000
v 0.780000 2.380000 -0.100000
v 0.780000 2.380000 0.100000
v -0.700001 2.300000 -0.080000
v -0.700000 2.299999 0.080000
v 0.700000 0.000000 -0.080000
v 0.700000 -0.000000 0.080000
v -0.700000 0.000000 -0.080000
v -0.700000 -0.000000 0.080000
v 0.780000 0.000000 -0.100000
v 0.780000 -0.000000 0.100000
v -0.780000 0.000000 -0.100000
v -0.780000 -0.000000 0.100000
v 0.740000 2.340000 -0.100000
v 0.720000 2.320000 -0.080000
v -0.740000 2.340000 -0.100000
v -0.720000 2.319999 -0.080000
v 0.740000 0.000000 -0.100000
v 0.720000 0.000000 -0.080000
v -0.740000 0.000000 -0.100000
v -0.720000 0.000000 -0.080000
v -0.720000 2.320000 0.080000
v -0.740000 2.340000 0.100000
v 0.740000 2.340000 0.100000
v 0.720000 2.319999 0.080000
v 0.740000 -0.000000 0.100000
v 0.720000 -0.000000 0.080000
v -0.720000 -0.000000 0.080000
v -0.740000 -0.000000 0.100000
v 0.358200 2.800000 0.060000
v 0.381731 2.777254 0.060000
v 0.381731 2.620263 0.060000
v 0.360706 2.600000 0.060000
v -0.381731 2.625381 0.060000
v -0.360250 2.600000 0.060000
v -0.360349 2.800000 0.060000
v -0.381731 2.773556 0.060000
v 0.381731 2.620263 0.074000
v 0.381731 2.777254 0.074000
v 0.358200 2.800000 0.074000
v -0.360250 2.600000 0.074000
v 0.360706 2.600000 0.074000
v -0.381731 2.773556 0.074000
v -0.381731 2.625381 0.074000
v -0.360349 2.800000 0.074000
v -0.310000 2.616000 0.074000
v -0.310000 2.784000 0.074000
v 0.300000 2.616000 0.074000
v 0.300000 2.784000 0.074000
v 0.299998 2.655000 0.113000
v 0.299998 2.665000 0.113000
v 0.299998 2.655000 0.102000
v 0.299998 2.665000 0.102000
v 0.309998 2.655000 0.113000
v 0.309998 2.665000 0.113000
v 0.309998 2.655000 0.102000
v 0.309998 2.665000 0.102000
v 0.320605 2.655000 0.108606
v 0.320605 2.665000 0.108606
v 0.313534 2.655000 0.100535
v 0.313534 2.665000 0.100535
v 0.324998 2.655000 0.097000
v 0.324998 2.665000 0.097000
v 0.314998 2.655000 0.097000
v 0.314998 2.665000 0.097000
v 0.299998 2.735000 0.113000
v 0.299998 2.745000 0.113000
v 0.299998 2.735000 0.102000
v 0.299998 2.745000 0.102000
v 0.309998 2.735000 0.113000
v 0.309998 2.745000 0.113000
v 0.309998 2.735000 0.102000
v 0.309998 2.745000 0.102000
v 0.320605 2.735000 0.108606
v 0.320605 2.745000 0.108606
v 0.313534 2.735000 0.100535
v 0.313534 2.745000 0.100535
v 0.324998 2.735000 0.097000
v 0.324998 2.745000 0.097000
v 0.314998 2.735000 0.097000
v 0.314998 2.745000 0.097000
v -0.310000 2.616000 0.096000
v 0.299998 2.755000 0.113000
v 0.299998 2.765000 0.113000
v 0.299998 2.755000 0.102000
v 0.299998 2.765000 0.102000
v 0.309998 2.755000 0.113000
v 0.309998 2.765000 0.113000
v 0.309998 2.755000 0.102000
v 0.309998 2.765000 0.102000
v 0.320605 2.755000 0.108606
v 0.320605 2.765000 0.108606
v 0.313534 2.755000 0.100535
v 0.313534 2.765000 0.100535
v 0.324998 2.755000 0.097000
v 0.324998 2.765000 0.097000
v 0.314998 2.755000 0.097000
v 0.314998 2.765000 0.097000
v 0.299998 2.635000 0.113000
v 0.299998 2.645000 0.113000
v 0.299998 2.635000 0.102000
v 0.299998 2.645000 0.102000
v 0.309998 2.635000 0.113000
v 0.309998 2.645000 0.113000
v 0.309998 2.635000 0.102000
v 0.309998 2.645000 0.102000
v 0.320605 2.635000 0.108606
v 0.320605 2.645000 0.108606
v 0.313534 2.635000 0.100535
v 0.313534 2.645000 0.100535
v 0.324998 2.635000 0.097000
v 0.324998 2.645000 0.097000
v 0.314998 2.635000 0.097000
v 0.314998 2.645000 0.097000
v 0.300000 2.784000 0.140000
v -0.310000 2.784000 0.096000
v -0.310000 2.784000 0.140000
v -0.310000 2.616000 0.140000
v 0.300000 2.616000 0.096000
v 0.300000 2.784000 0.096000
v 0.300000 2.784000 0.118000
v 0.300000 2.616000 0.118000
v -0.310000 2.784000 0.118000
v -0.310000 2.616000 0.118000
v -0.290000 2.636000 0.140000
v -0.290000 2.764000 0.140000
v 0.280000 2.636000 0.140000
v 0.280000 2.764000 0.140000
v 0.300000 2.616000 0.140000
v -0.281000 2.645000 0.130000
v -0.281000 2.755000 0.130000
v 0.271000 2.755000 0.130000
v 0.271000 2.645000 0.130000
v 0.324998 2.655000 0.074000
v 0.324998 2.665000 0.074000
v 0.314998 2.655000 0.074000
v 0.314998 2.665000 0.074000
v 0.324998 2.735000 0.074000
v 0.324998 2.745000 0.074000
v 0.314998 2.735000 0.074000
v 0.314998 2.745000 0.074000
v 0.324998 2.755000 0.074000
v 0.324998 2.765000 0.074000
v 0.314998 2.755000 0.074000
v 0.314998 2.765000 0.074000
v 0.324998 2.635000 0.074000
v 0.324998 2.645000 0.074000
v 0.314998 2.635000 0.074000
v 0.314998 2.645000 0.074000
v -0.309998 2.655000 0.113000
v -0.309998 2.665000 0.113000
v -0.309998 2.655000 0.102000
v -0.309998 2.665000 0.102000
v -0.319998 2.655000 0.113000
v -0.319998 2.665000 0.113000
v -0.319998 2.655000 0.102000
v -0.319998 2.665000 0.102000
v -0.330605 2.655000 0.108606
v -0.330605 2.665000 0.108606
v -0.323534 2.655000 0.100535
v -0.323534 2.665000 0.100535
v -0.334998 2.655000 0.097000
v -0.334998 2.665000 0.097000
v -0.324998 2.655000 0.097000
v -0.324998 2.665000 0.097000
v -0.309998 2.735000 0.113000
v -0.309998 2.745000 0.113000
v -0.309998 2.735000 0.102000
v -0.309998 2.745000 0.102000
v -0.319998 2.735000 0.113000
v -0.319998 2.745000 0.113000
v -0.319998 2.735000 0.102000
v -0.319998 2.745000 0.102000
v -0.330605 2.735000 0.108606
v -0.330605 2.745000 0.108606
v -0.323534 2.735000 0.100535
v -0.323534 2.745000 0.100535
v -0.334998 2.735000 0.097000
v -0.334998 2.745000 0.097000
v -0.324998 2.735000 0.097000
v -0.324998 2.745000 0.097000
v -0.309998 2.755000 0.113000
v -0.309998 2.765000 0.113000
v -0.309998 2.755000 0.102000
v -0.309998 2.765000 0.102000
v -0.319998 2.755000 0.113000
v -0.319998 2.765000 0.113000
v -0.319998 2.755000 0.102000
v -0.319998 2.765000 0.102000
v -0.330605 2.755000 0.108606
v -0.330605 2.765000 0.108606
v -0.323534 2.755000 0.100535
v -0.323534 2.765000 0.100535
v -0.334998 2.755000 0.097000
v -0.334998 2.765000 0.097000
v -0.324998 2.755000 0.097000
v -0.324998 2.765000 0.097000
v -0.309998 2.635000 0.113000
v -0.309998 2.645000 0.113000
v -0.309998 2.635000 0.102000
v -0.309998 2.645000 0.102000
v -0.319998 2.635000 0.113000
v -0.319998 2.645000 0.113000
v -0.319998 2.635000 0.102000
v -0.319998 2.645000 0.102000
v -0.330605 2.635000 0.108606
v -0.330605 2.645000 0.108606
v -0.323534 2.635000 0.100535
v -0.323534 2.645000 0.100535
v -0.334998 2.635000 0.097000
v -0.334998 2.645000 0.097000
v -0.324998 2.635000 0.097000
v -0.324998 2.645000 0.097000
v -0.334998 2.655000 0.074000
v -0.334998 2.665000 0.074000
v -0.324998 2.655000 0.074000
v -0.324998 2.665000 0.074000
v -0.334998 2.735000 0.074000
v -0.334998 2.745000 0.074000
v -0.324998 2.735000 0.074000
v -0.324998 2.745000 0.074000
v -0.334998 2.755000 0.074000
v -0.334998 2.765000 0.074000
v -0.324998 2.755000 0.074000
v -0.324998 2.765000 0.074000
v -0.334998 2.635000 0.074000
v -0.334998 2.645000 0.074000
v -0.324998 2.635000 0.074000
v -0.324998 2.645000 0.074000
v -1.060004 1.110000 0.059996
v -1.060004 1.490000 0.059996
v -0.940004 1.110000 0.059996
v -0.940004 1.490000 0.059996
v -0.958004 1.110000 0.059996
v -1.042004 1.490000 0.059996
v -1.031753 1.511213 0.059996
v -0.958004 1.490000 0.059996
v -0.968255 1.511213 0.059996
v -1.042004 1.110000 0.059996
v -1.031753 1.088787 0.059996
v -0.968255 1.088787 0.059996
v -1.030004 1.372361 0.074996
v -1.000004 1.342361 0.074996
v -1.000004 1.402361 0.074996
v -0.970004 1.372361 0.074996
v -1.023486 1.372361 0.079996
v -1.000004 1.348879 0.079996
v -0.976522 1.372361 0.079996
v -1.000004 1.395843 0.079996
v -1.000004 1.342361 0.079996
v -1.000004 1.402361 0.079996
v -0.970004 1.372361 0.079996
v -1.030004 1.372361 0.079996
v -1.030004 1.230000 0.074996
v -1.000004 1.200000 0.074996
v -1.000004 1.260000 0.074996
v -0.970004 1.230000 0.074996
v -1.023486 1.230000 0.079996
v -1.000004 1.206518 0.079996
v -0.976522 1.230000 0.079996
v -1.000004 1.253482 0.079996
v -1.000004 1.200000 0.079996
v -1.000004 1.260000 0.079996
v -0.970004 1.230000 0.079996
v -1.030004 1.230000 0.079996
v -1.050019 1.119985 0.079996
v -1.046019 1.123985 0.074996
v -1.046019 1.476015 0.074996
v -1.050019 1.480015 0.079996
v -0.953989 1.123985 0.074996
v -0.949989 1.119985 0.079996
v -0.949989 1.480015 0.079996
v -0.953989 1.476015 0.074996
v -1.030893 1.476015 0.074996
v -1.034071 1.480015 0.079996
v -0.965938 1.480015 0.079996
v -0.969116 1.476015 0.074996
v -1.034071 1.119985 0.079996
v -1.030893 1.123985 0.074996
v -0.969116 1.123985 0.074996
v -0.965938 1.119985 0.079996
v -1.025085 1.503525 0.079996
v -1.022415 1.500445 0.074996
v -0.977594 1.500445 0.074996
v -0.974923 1.503525 0.079996
v -1.022415 1.099555 0.074996
v -1.025085 1.096475 0.079996
v -0.974923 1.096475 0.079996
v -0.977594 1.099555 0.074996
v -0.940004 1.490000 0.075996
v -0.944004 1.486000 0.079996
v -0.944004 1.114000 0.079996
v -0.940004 1.110000 0.075996
v -1.056004 1.486000 0.079996
v -1.060004 1.490000 0.075996
v -1.060004 1.110000 0.075996
v -1.056004 1.114000 0.079996
v -0.958004 1.490000 0.075996
v -0.961182 1.486000 0.079996
v -1.038826 1.486000 0.079996
v -1.042004 1.490000 0.075996
v -0.961182 1.114000 0.079996
v -0.958004 1.110000 0.075996
v -1.042004 1.110000 0.075996
v -1.038826 1.114000 0.079996
v -0.970926 1.508133 0.079996
v -0.968255 1.511213 0.075996
v -1.031753 1.511213 0.075996
v -1.029082 1.508133 0.079996
v -0.968255 1.088787 0.075996
v -0.970926 1.091867 0.079996
v -1.029082 1.091867 0.079996
v -1.031753 1.088787 0.075996
v -1.000004 1.350949 0.088996
v -1.000004 1.393772 0.088996
v -0.978592 1.372361 0.088996
v -1.021415 1.372361 0.088996
v -1.000004 1.208589 0.088996
v -1.000004 1.251411 0.088996
v -0.978592 1.230000 0.088996
v -1.021415 1.230000 0.088996
v -1.000004 1.520000 0.059996
v -1.000004 1.080000 0.059996
v -1.000004 1.516000 0.079996
v -1.000004 1.520000 0.075996
v -1.000004 1.080000 0.075996
v -1.000004 1.084000 0.079996
v -1.000004 1.506015 0.074996
v -1.000004 1.510015 0.079996
v -1.000004 1.089985 0.079996
v -1.000004 1.093985 0.074996
v -0.979513 1.351870 0.079996
v -0.979513 1.351870 0.074996
v -0.979513 1.392851 0.074996
v -0.979513 1.392851 0.079996
v -1.020494 1.351870 0.074996
v -1.020494 1.351870 0.079996
v -1.020494 1.392851 0.079996
v -1.020494 1.392851 0.074996
v -0.983965 1.356322 0.079996
v -0.983965 1.388399 0.079996
v -1.016042 1.356322 0.079996
v -1.016042 1.388399 0.079996
v -0.985380 1.357736 0.088996
v -0.985380 1.386985 0.088996
v -1.014628 1.357736 0.088996
v -1.014628 1.386985 0.088996
v -0.979513 1.209509 0.079996
v -0.979513 1.209509 0.074996
v -0.979513 1.250490 0.074996
v -0.979513 1.250490 0.079996
v -1.020494 1.209509 0.074996
v -1.020494 1.209509 0.079996
v -1.020494 1.250490 0.079996
v -1.020494 1.250490 0.074996
v -0.983965 1.213961 0.079996
v -0.983965 1.246038 0.079996
v -1.016042 1.213961 0.079996
v -1.016042 1.246038 0.079996
v -0.985380 1.215376 0.088996
v -0.985380 1.244624 0.088996
v -1.014628 1.215376 0.088996
v -1.014628 1.244624 0.088996
v -1.060004 1.110000 0.059996
v -1.060004 1.490000 0.059996
v -0.940004 1.110000 0.059996
v -0.940004 1.490000 0.059996
v -0.958004 1.110000 0.059996
v -1.042004 1.490000 0.059996
v -1.031753 1.511213 0.059996
v -0.958004 1.490000 0.059996
v -0.968255 1.511213 0.059996
v -1.042004 1.110000 0.059996
v -1.031753 1.088787 0.059996
v -0.968255 1.088787 0.059996
v -1.030004 1.372361 0.074996
v -1.000004 1.342361 0.074996
v -1.000004 1.402361 0.074996
v -0.970004 1.372361 0.074996
v -1.023486 1.372361 0.079996
v -1.000004 1.348879 0.079996
v -0.976522 1.372361 0.079996
v -1.000004 1.395843 0.079996
v -1.000004 1.342361 0.079996
v -1.000004 1.402361 0.079996
v -0.970004 1.372361 0.079996
v -1.030004 1.372361 0.079996
v -1.030004 1.230000 0.074996
v -1.000004 1.200000 0.074996
v -1.000004 1.260000 0.074996
v -0.970004 1.230000 0.074996
v -1.023486 1.230000 0.079996
v -1.000004 1.206518 0.079996
v -0.976522 1.230000 0.079996
v -1.000004 1.253482 0.079996
v -1.000004 1.200000 0.079996
v -1.000004 1.260000 0.079996
v -0.970004 1.230000 0.079996
v -1.030004 1.230000 0.079996
v -1.050019 1.119985 0.079996
v -1.046019 1.123985 0.074996
v -1.046019 1.476015 0.074996
v -1.050019 1.480015 0.079996
v -0.953989 1.123985 0.074996
v -0.949989 1.119985 0.079996
v -0.949989 1.480015 0.079996
v -0.953989 1.476015 0.074996
v -1.030893 1.476015 0.074996
v -1.034071 1.480015 0.079996
v -0.965938 1.480015 0.079996
v -0.969116 1.476015 0.074996
v -1.034071 1.119985 0.079996
v -1.030893 1.123985 0.074996
v -0.969116 1.123985 0.074996
v -0.965938 1.119985 0.079996
v -1.025085 1.503525 0.079996
v -1.022415 1.500445 0.074996
v -0.977594 1.500445 0.074996
v -0.974923 1.503525 0.079996
v -1.022415 1.099555 0.074996
v -1.025085 1.096475 0.079996
v -0.974923 1.096475 0.079996
v -0.977594 1.099555 0.074996
v -0.940004 1.490000 0.075996
v -0.944004 1.486000 0.079996
v -0.944004 1.114000 0.079996
v -0.940004 1.110000 0.075996
v -1.056004 1.486000 0.079996
v -1.060004 1.490000 0.075996
v -1.060004 1.110000 0.075996
v -1.056004 1.114000 0.079996
v -0.958004 1.490000 0.075996
v -0.961182 1.486000 0.079996
v -1.038826 1.486000 0.079996
v -1.042004 1.490000 0.075996
v -0.961182 1.114000 0.079996
v -0.958004 1.110000 0.075996
v -1.042004 1.110000 0.075996
v -1.038826 1.114000 0.079996
v -0.970926 1.508133 0.079996
v -0.968255 1.511213 0.075996
v -1.031753 1.511213 0.075996
v -1.029082 1.508133 0.079996
v -0.968255 1.088787 0.075996
v -0.970926 1.091867 0.079996
v -1.029082 1.091867 0.079996
v -1.031753 1.088787 0.075996
v -1.000004 1.350949 0.088996
v -1.000004 1.393772 0.088996
v -0.978592 1.372361 0.088996
v -1.021415 1.372361 0.088996
v -1.000004 1.208589 0.088996
v -1.000004 1.251411 0.088996
v -0.978592 1.230000 0.088996
v -1.021415 1.230000 0.088996
v -1.000004 1.520000 0.059996
v -1.000004 1.080000 0.059996
v -1.000004 1.516000 0.079996
v -1.000004 1.520000 0.075996
v -1.000004 1.080000 0.075996
v -1.000004 1.084000 0.079996
v -1.000004 1.506015 0.074996
v -1.000004 1.510015 0.079996
v -1.000004 1.089985 0.079996
v -1.000004 1.093985 0.074996
v -0.979513 1.351870 0.079996
v -0.979513 1.351870 0.074996
v -0.979513 1.392851 0.074996
v -0.979513 1.392851 0.079996
v -1.020494 1.351870 0.074996
v -1.020494 1.351870 0.079996
v -1.020494 1.392851 0.079996
v -1.020494 1.392851 0.074996
v -0.983965 1.356322 0.079996
v -0.983965 1.388399 0.079996
v -1.016042 1.356322 0.079996
v -1.016042 1.388399 0.079996
v -0.985380 1.357736 0.088996
v -0.985380 1.386985 0.088996
v -1.014628 1.357736 0.088996
v -1.014628 1.386985 0.088996
v -0.979513 1.209509 0.079996
v -0.979513 1.209509 0.074996
v -0.979513 1.250490 0.074996
v -0.979513 1.250490 0.079996
v -1.020494 1.209509 0.074996
v -1.020494 1.209509 0.079996
v -1.020494 1.250490 0.079996
v -1.020494 1.250490 0.074996
v -0.983965 1.213961 0.079996
v -0.983965 1.246038 0.079996
v -1.016042 1.213961 0.079996
v -1.016042 1.246038 0.079996
v -0.985380 1.215376 0.088996
v -0.985380 1.244624 0.088996
v -1.014628 1.215376 0.088996
v -1.014628 1.244624 0.088996
vn 0.7071 -0.0000 -0.7071
vn 0.7071 -0.0000 0.7071
vn -0.7071 -0.0000 0.7071
vn -0.7071 -0.0000 -0.7071
vn -0.0000 -0.0000 -1.0000
vn -0.0000 -0.0000 1.0000
vn -0.0000 0.9950 -0.0995
vn -0.0000 1.0000 -0.0000
vn -0.0000 0.9806 0.1961
vn -1.0000 -0.0000 -0.0000
vn 1.0000 -0.0000 -0.0000
vn -0.0000 -1.0000 -0.0000
vn -0.0000 -0.7071 -0.7071
vn -0.0000 -0.7071 0.7071
vn -0.7633 -0.6460 -0.0000
vn 0.6950 0.7190 -0.0000
vn 0.6939 -0.7200 -0.0000
vn -0.7776 0.6287 -0.0000
vn 0.9352 -0.0000 0.3540
vn -0.3827 -0.0000 -0.9239
vn 0.3827 -0.0000 0.9239
vn -0.9239 -0.0000 -0.3826
vn -0.0000 -0.7433 0.6690
vn -0.7433 -0.0000 0.6690
vn -0.0000 0.7433 0.6690
vn 0.7433 -0.0000 0.6690
vn -0.9352 -0.0000 0.3540
vn 0.3827 -0.0000 -0.9239
vn -0.3827 -0.0000 0.9239
vn 0.9239 -0.0000 -0.3826
vn 0.6903 -0.6903 0.2169
vn -0.0000 -0.9745 0.2242
vn -0.9071 -0.4210 -0.0000
vn 0.9004 -0.4351 -0.0000
vn 0.6903 0.6903 0.2169
vn 0.9745 -0.0000 0.2242
vn -0.6311 0.2911 0.7190
vn -0.9071 0.4210 -0.0000
vn 0.2667 0.9638 -0.0000
vn -0.9745 -0.0000 0.2242
vn -0.6903 0.6903 0.2169
vn -0.4210 0.9071 -0.0000
vn 0.1967 0.7747 0.6010
vn -0.9004 -0.4351 -0.0000
vn -0.6903 -0.6903 0.2169
vn -0.2667 0.9638 -0.0000
vn 0.9004 0.4351 -0.0000
vn -0.0000 -0.7809 0.6247
vn -0.0000 0.9745 0.2242
vn -0.2667 -0.9638 -0.0000
vn -0.4210 -0.9071 -0.0000
vn 0.4210 0.9071 -0.0000
vn 0.2667 -0.9638 -0.0000
vn -0.1922 0.7022 0.6856
vn 0.9071 -0.4210 -0.0000
vn 0.9071 0.4210 -0.0000
vn -0.7366 -0.2683 0.6208
vn 0.7809 -0.0000 0.6247
vn -0.0000 0.7809 0.6247
vn -0.0000 0.7071 0.7071
vn 0.6311 0.2911 0.7190
vn -0.6311 -0.2911 0.7190
vn 0.1922 0.7022 0.6856
vn 0.7366 -0.2683 0.6208
vn 0.1967 -0.7747 0.6010
vn -0.1967 -0.7747 0.6010
vn 0.6311 -0.2911 0.7190
vn -0.1967 0.7747 0.6010
vn 0.7366 0.2683 0.6208
vn -0.7366 0.2683 0.6208
vn -0.1922 -0.7022 0.6856
vn 0.1922 -0.7022 0.6856
vn -0.9004 0.4351 -0.0000
vn -0.7809 -0.0000 0.6247
vn 0.4210 -0.9071 -0.0000
vt -0.000000 0.000000
vt -0.000000 1.000000
vt -0.009766 1.000000
vt -0.009766 0.000000
vt 1.000000 1.000000
vt 1.000000 0.000000
vt 1.009766 0.000000
vt 1.009766 1.000000
vt -0.009766 0.000000
vt -0.009766 1.000000
vt -0.000000 1.000000
vt -0.000000 0.000000
vt 1.000000 0.000000
vt 1.000000 1.000000
vt 1.000000 1.000000
vt 1.000000 0.000000
vt 0.695000 0.000000
vt 0.695000 0.793333
vt 0.000000 1.000000
vt 0.305000 0.793333
vt 0.305000 0.000000
vt 0.000000 0.000000
vt 0.305000 0.793333
vt 0.695000 0.793333
vt 0.175000 0.865000
vt 0.175000 0.875000
vt 1.575000 0.875000
vt 1.575000 0.865000
vt 0.870000 1.575000
vt 0.770000 1.575000
vt 0.770000 0.175000
vt 0.870000 0.175000
vt 1.575000 0.885000
vt 0.175000 0.885000
vt 0.930000 0.175000
vt 0.930000 1.575000
vt 0.980000 0.175000
vt 0.980000 1.575000
vt 0.305000 0.000000
vt 0.695000 0.793333
vt 0.305000 0.793333
vt 1.020070 0.566406
vt 1.020070 0.433594
vt -0.020070 0.433594
vt -0.020070 0.566406
vt 1.367689 0.433594
vt -0.218750 0.433594
vt -0.218750 0.566406
vt 1.367689 0.566406
vt -0.371135 0.968749
vt 1.191172 0.968750
vt 1.191061 0.996094
vt -0.398341 0.996093
vt 1.367689 0.433594
vt 1.312872 0.445312
vt 1.312872 0.554687
vt -0.218750 0.554688
vt -0.218750 0.445312
vt 1.228066 0.730469
vt 1.227805 0.746094
vt -0.289025 0.746094
vt -0.301068 0.730468
vt 0.994757 1.343752
vt 0.005046 1.343751
vt -0.021942 1.371094
vt 1.021702 1.371096
vt 1.312872 0.554688
vt 1.312872 0.445312
vt 0.992509 1.308595
vt 0.005815 1.308593
vt 0.020218 1.296873
vt 0.978265 1.296874
vt 1.228065 0.730468
vt -0.301072 0.730468
vt -0.289027 0.746092
vt 1.227804 0.746096
vt 1.192909 0.937499
vt 1.192649 0.925781
vt -0.324181 0.925780
vt -0.336225 0.937498
vt 0.035156 0.445312
vt 0.964844 0.445312
vt 0.964844 0.554687
vt 0.035156 0.554688
vt 1.191061 0.996094
vt 1.191172 0.968750
vt -0.371136 0.968749
vt -0.398342 0.996093
vt 1.190551 0.890625
vt 1.190829 0.878906
vt -0.363877 0.878906
vt -0.379101 0.890625
vt 1.226218 0.710937
vt -0.363186 0.710932
vt -0.335979 0.738275
vt 1.226328 0.738281
vt 1.213487 0.810614
vt -0.338126 0.810547
vt -0.326126 0.822260
vt 1.213294 0.822265
vt 0.978265 1.296876
vt 0.020217 1.296876
vt 0.005814 1.308595
vt 0.992508 1.308594
vt 0.975831 0.386719
vt 0.024649 0.386719
vt 0.012197 0.375000
vt 0.988389 0.374999
vt 1.021702 1.371094
vt -0.021942 1.371094
vt 0.005046 1.343751
vt 0.994757 1.343751
vt 0.988390 0.625000
vt 0.012197 0.625000
vt 0.024649 0.613281
vt 0.975831 0.613281
vt 1.226218 0.710937
vt 1.226329 0.738281
vt -0.335980 0.738275
vt -0.363186 0.710932
vt 1.225706 0.816337
vt 1.225985 0.828126
vt -0.328721 0.828131
vt -0.343944 0.816407
vt -0.324182 0.925781
vt 1.192646 0.925781
vt 1.192908 0.937499
vt -0.336226 0.937499
vt -0.363877 0.878906
vt 1.190828 0.878907
vt 1.190551 0.890626
vt -0.379100 0.890625
vt 0.968522 0.000000
vt 0.007293 0.000000
vt 0.007293 0.071917
vt 0.968522 0.071917
vt 0.587744 0.000000
vt 0.389525 0.000000
vt 0.389525 0.071917
vt 0.587744 0.071917
vt 0.007427 0.000000
vt 0.971875 0.000000
vt 0.971875 0.071917
vt 0.007427 0.071917
vt 0.355572 0.000000
vt 0.355572 0.071917
vt 0.382678 0.000000
vt 0.592690 0.000000
vt 0.592690 0.071917
vt 0.382678 0.071917
vt 0.997846 0.881018
vt 0.969178 0.990244
vt 0.029719 0.992761
vt 0.002556 0.867780
vt 0.002253 0.131513
vt 0.028137 0.009756
vt 0.971083 0.008215
vt 0.997444 0.101313
vt 0.609375 0.100000
vt 0.395833 0.100000
vt 0.395833 0.200000
vt 0.609375 0.200000
vt 0.098958 0.200000
vt 0.890625 0.200000
vt 0.890625 0.100000
vt 0.098958 0.100000
vt 1.000000 0.071917
vt 0.623119 0.000000
vt 0.623119 0.071917
vt 0.755208 0.140000
vt 0.755208 0.200000
vt 0.776042 0.200000
vt 0.776042 0.140000
vt 0.869792 0.240000
vt 0.890625 0.240000
vt 0.880208 0.160000
vt 0.864583 0.220000
vt 0.869792 0.320000
vt 0.890625 0.320000
vt 0.812500 0.140000
vt 0.812500 0.200000
vt 0.786458 0.200000
vt 0.786458 0.140000
vt 0.781250 0.200000
vt 0.781250 0.140000
vt 0.796875 0.140000
vt 0.796875 0.200000
vt 0.859375 0.200000
vt 0.859375 0.140000
vt 0.135417 0.780000
vt 0.859375 0.780000
vt 0.875000 0.840000
vt 0.119792 0.840000
vt 0.120048 0.197619
vt 0.120048 0.822381
vt 0.093750 0.920000
vt 0.093750 0.100000
vt 0.869536 0.822381
vt 0.869536 0.197619
vt 0.895833 0.100000
vt 0.895833 0.920000
vt 0.857702 0.241548
vt 0.857702 0.778452
vt 0.131882 0.778452
vt 0.131882 0.241548
vt 0.859375 0.240000
vt 0.875000 0.180000
vt 0.135417 0.240000
vt 0.119792 0.180000
vt 0.744792 0.140000
vt 0.744792 0.200000
vt 0.275590 0.583327
vt 0.275590 0.619038
vt 0.318779 0.619039
vt 0.318779 0.583327
vt 0.400973 0.146664
vt 0.413628 0.158035
vt 0.371187 0.158035
vt 0.355259 0.146664
vt 0.521872 0.403323
vt 0.521872 0.375000
vt 0.498104 0.375000
vt 0.498104 0.406062
vt 0.318779 0.416673
vt 0.318779 0.380962
vt 0.275590 0.380962
vt 0.275590 0.416673
vt 0.504285 0.089675
vt 0.504285 0.101045
vt 0.437539 0.113374
vt 0.426904 0.104619
vt 0.659091 0.337500
vt 0.670455 0.337500
vt 0.670455 0.375000
vt 0.659091 0.375000
vt 0.318779 0.080958
vt 0.275590 0.080958
vt 0.275590 0.123045
vt 0.318779 0.123045
vt 0.521872 0.668948
vt 0.521872 0.640625
vt 0.498104 0.640625
vt 0.498104 0.671687
vt 0.392516 0.860934
vt 0.400973 0.853336
vt 0.426904 0.895381
vt 0.419796 0.901232
vt 0.607598 0.146664
vt 0.594943 0.158035
vt 0.571031 0.113374
vt 0.581667 0.104619
vt 0.607598 0.853335
vt 0.581667 0.895381
vt 0.571031 0.886626
vt 0.594943 0.841965
vt 0.670455 0.678125
vt 0.659091 0.678125
vt 0.659091 0.640625
vt 0.670455 0.640625
vt 0.318779 0.562989
vt 0.275590 0.562989
vt 0.275590 0.500000
vt 0.318779 0.500000
vt 0.422085 0.834367
vt 0.422085 0.165633
vt 0.586485 0.165633
vt 0.586485 0.834367
vt 0.444971 0.120135
vt 0.504615 0.109571
vt 0.626739 0.834367
vt 0.626739 0.165633
vt 0.275590 0.123045
vt 0.275590 0.080958
vt 0.318779 0.123045
vt 0.521872 0.612302
vt 0.498104 0.609563
vt 0.318779 0.437011
vt 0.275590 0.500000
vt 0.275590 0.437011
vt 0.275590 0.876955
vt 0.275590 0.919042
vt 0.318779 0.919042
vt 0.318779 0.876955
vt 0.437539 0.113374
vt 0.413628 0.158035
vt 0.381832 0.833417
vt 0.422085 0.833417
vt 0.413628 0.841965
vt 0.371188 0.841966
vt 0.581667 0.104619
vt 0.653312 0.146664
vt 0.637383 0.158035
vt 0.594943 0.158035
vt 0.355259 0.146664
vt 0.371187 0.158035
vt 0.371188 0.841966
vt 0.355259 0.853336
vt 0.659091 0.603125
vt 0.670455 0.603125
vt 0.400973 0.853336
vt 0.355259 0.853336
vt 0.653312 0.853336
vt 0.637383 0.841965
vt 0.637383 0.158035
vt 0.275590 0.437011
vt 0.275590 0.500000
vt 0.670455 0.412500
vt 0.659091 0.412500
vt 0.454777 0.675550
vt 0.465927 0.667373
vt 0.506099 0.681045
vt 0.506099 0.693017
vt 0.557422 0.334652
vt 0.546271 0.342829
vt 0.506099 0.329157
vt 0.506099 0.317185
vt 0.581240 0.372288
vt 0.564914 0.372288
vt 0.557422 0.409925
vt 0.546271 0.401748
vt 0.557422 0.675550
vt 0.546271 0.667373
vt 0.564914 0.637913
vt 0.581240 0.637913
vt 0.275590 0.562989
vt 0.329576 0.438366
vt 0.329576 0.500000
vt 0.459929 0.637913
vt 0.474564 0.614788
vt 0.537634 0.614788
vt 0.552269 0.637913
vt 0.506099 0.604055
vt 0.506099 0.671772
vt 0.474564 0.661039
vt 0.537634 0.661039
vt 0.275590 0.416673
vt 0.275590 0.380962
vt 0.454777 0.600277
vt 0.506099 0.582810
vt 0.506099 0.594782
vt 0.465927 0.608454
vt 0.506099 0.427392
vt 0.506099 0.415420
vt 0.454777 0.409925
vt 0.465927 0.401748
vt 0.562710 0.880460
vt 0.585201 0.834033
vt 0.557422 0.600277
vt 0.546271 0.608454
vt 0.498104 0.343938
vt 0.521872 0.346677
vt 0.498104 0.343938
vt 0.459929 0.372288
vt 0.474564 0.349163
vt 0.537634 0.349163
vt 0.552269 0.372288
vt 0.506099 0.338430
vt 0.474564 0.395414
vt 0.537634 0.395414
vt 0.506099 0.406147
vt 0.329576 0.869019
vt 0.318779 0.876955
vt 0.329576 0.130981
vt 0.383163 0.165633
vt 0.383163 0.834367
vt 0.329576 0.611103
vt 0.329576 0.583327
vt 0.381832 0.166583
vt 0.422085 0.166583
vt 0.444647 0.119224
vt 0.563924 0.119224
vt 0.329576 0.388897
vt 0.329576 0.416673
vt 0.616055 0.860934
vt 0.588774 0.901232
vt 0.392516 0.139066
vt 0.419796 0.098768
vt 0.329576 0.561634
vt 0.423369 0.834033
vt 0.445860 0.880460
vt 0.437539 0.886626
vt 0.504285 0.898955
vt 0.444971 0.879865
vt 0.504615 0.890429
vt 0.503956 0.890429
vt 0.563600 0.879865
vt 0.616055 0.139066
vt 0.588774 0.098768
vt 0.563600 0.120135
vt 0.503955 0.109571
vt 0.663956 0.139066
vt 0.663956 0.860934
vt 0.607598 0.853336
vt 0.594943 0.841965
vt 0.637383 0.841965
vt 0.626739 0.166583
vt 0.586485 0.166583
vt 0.586485 0.833417
vt 0.626739 0.833417
vt 0.445860 0.119540
vt 0.423369 0.165967
vt 0.275590 0.123045
vt 0.275590 0.876955
vt 0.585201 0.165967
vt 0.562710 0.119540
vt 0.504285 0.910325
vt 0.426904 0.895381
vt 0.381832 0.834367
vt 0.381832 0.165633
vt 0.275590 0.619039
vt 0.275590 0.583327
vt 0.454777 0.334652
vt 0.465927 0.342829
vt 0.447284 0.372288
vt 0.430958 0.372288
vt 0.329576 0.438366
vt 0.329576 0.500000
vt 0.504285 0.891356
vt 0.444647 0.880776
vt 0.563923 0.880776
vt 0.275590 0.919042
vt 0.275590 0.876955
vt 0.625408 0.834367
vt 0.625408 0.165633
vt 0.504285 0.108644
vt 0.275590 0.123045
vt 0.275590 0.876955
vt 0.430958 0.637913
vt 0.447284 0.637913
s 0
usemtl wall_mp_1
f 3/1/1 4/2/1 8/3/1 7/4/1
f 2/5/2 1/6/2 5/7/2 6/8/2
f 11/9/3 12/10/3 16/11/3 15/12/3
f 10/8/4 9/7/4 13/13/4 14/14/4
f 4/15/5 3/16/5 18/17/5 23/18/5
f 10/19/5 24/20/5 19/21/5 9/22/5
f 2/5/6 12/19/6 21/23/6 22/24/6
f 21/20/6 12/19/6 11/22/6 20/39/6
f 10/19/5 4/15/5 23/40/5 24/41/5
f 2/5/6 22/40/6 17/17/6 1/6/6
usemtl wood_4
f 46/42/8 45/43/8 41/44/8 42/45/8
f 41/46/10 55/47/10 56/48/10 42/49/10
f 67/50/6 69/51/6 54/52/6 46/53/6
f 54/48/11 53/47/11 45/54/11 46/49/11
f 47/55/11 48/56/11 52/57/11 51/58/11
f 71/59/6 52/60/6 48/61/6 65/62/6
f 57/63/5 59/64/5 41/65/5 45/66/5
f 44/67/10 43/68/10 49/58/10 50/57/10
f 68/69/6 65/70/6 48/71/6 44/72/6
f 64/73/5 60/74/5 47/75/5 51/76/5
f 62/77/5 49/78/5 43/79/5 58/80/5
f 47/81/12 43/82/12 44/83/12 48/84/12
f 53/85/5 61/86/5 57/87/5 45/88/5
f 61/89/4 62/90/4 58/91/4 57/92/4
f 55/93/5 41/94/5 59/95/5 63/96/5
f 63/97/1 59/98/1 60/99/1 64/100/1
f 43/101/5 47/102/5 60/103/5 58/104/5
f 58/105/13 60/106/13 59/107/13 57/108/13
f 46/109/6 42/110/6 66/111/6 67/112/6
f 67/113/14 66/114/14 65/115/14 68/116/14
f 56/117/6 72/118/6 66/119/6 42/120/6
f 72/121/2 71/122/2 65/123/2 66/124/2
f 44/125/6 50/126/6 70/127/6 68/128/6
f 68/129/3 70/130/3 69/131/3 67/132/3
usemtl metal_mp_1
f 25/25/5 26/26/5 28/27/5 27/28/5
f 31/29/7 28/30/7 26/31/7 32/32/7
f 30/27/6 31/33/6 32/34/6 29/26/6
f 34/27/5 33/26/5 35/34/5 36/33/5
f 30/29/8 29/32/8 33/35/8 34/36/8
f 39/28/6 40/27/6 38/26/6 37/25/6
f 36/36/9 35/35/9 38/37/9 40/38/9
usemtl elevator_sign_1
f 73/133/8 79/134/8 88/135/8 83/136/8
f 80/137/10 77/138/10 87/139/10 86/140/10
f 78/141/12 76/142/12 85/143/12 84/144/12
f 77/138/15 78/145/15 84/146/15 87/139/15
f 75/147/11 74/148/11 82/149/11 81/150/11
f 82/151/6 83/152/6 88/153/6 86/154/6 87/155/6 84/156/6 85/157/6 81/158/6
f 125/159/10 159/160/10 90/161/10 89/162/10
f 91/162/11 92/161/11 163/160/11 162/159/11
f 89/163/12 91/164/12 162/165/12 125/166/12
f 92/164/8 90/163/8 159/166/8 163/165/8
f 74/16/16 73/133/16 83/136/16 82/167/16
f 76/142/17 75/16/17 81/167/17 85/143/17
f 79/168/18 80/137/18 86/140/18 88/169/18
f 95/170/5 96/171/5 100/172/5 99/173/5
f 100/174/8 98/175/8 102/176/8 104/177/8
f 97/173/6 98/172/6 94/171/6 93/170/6
f 95/178/12 99/174/12 97/175/12 93/179/12
f 100/174/8 96/178/8 94/179/8 98/175/8
f 102/180/19 101/181/19 105/182/19 106/183/19
f 99/173/20 100/172/20 104/184/20 103/185/20
f 98/172/21 97/173/21 101/186/21 102/187/21
f 97/175/12 99/174/12 103/177/12 101/176/12
f 101/176/12 103/177/12 107/188/12 105/189/12
f 104/177/8 102/176/8 106/189/8 108/188/8
f 103/187/22 104/186/22 108/183/22 107/182/22
f 111/170/5 112/171/5 116/172/5 115/173/5
f 116/174/8 114/175/8 118/176/8 120/177/8
f 113/173/6 114/172/6 110/171/6 109/170/6
f 111/178/12 115/174/12 113/175/12 109/179/12
f 116/174/8 112/178/8 110/179/8 114/175/8
f 118/180/19 117/181/19 121/182/19 122/183/19
f 115/173/20 116/172/20 120/184/20 119/185/20
f 114/172/21 113/173/21 117/186/21 118/187/21
f 113/175/12 115/174/12 119/177/12 117/176/12
f 117/176/12 119/177/12 123/188/12 121/189/12
f 120/177/8 118/176/8 122/189/8 124/188/8
f 119/187/22 120/186/22 124/183/22 123/182/22
f 128/170/5 129/171/5 133/172/5 132/173/5
f 133/174/8 131/175/8 135/176/8 137/177/8
f 130/173/6 131/172/6 127/171/6 126/170/6
f 128/178/12 132/174/12 130/175/12 126/179/12
f 133/174/8 129/178/8 127/179/8 131/175/8
f 135/180/19 134/181/19 138/182/19 139/183/19
f 132/173/20 133/172/20 137/184/20 136/185/20
f 131/172/21 130/173/21 134/186/21 135/187/21
f 130/175/12 132/174/12 136/177/12 134/176/12
f 134/176/12 136/177/12 140/188/12 138/189/12
f 137/177/8 135/176/8 139/189/8 141/188/8
f 136/187/22 137/186/22 141/183/22 140/182/22
f 144/170/5 145/171/5 149/172/5 148/173/5
f 149/174/8 147/175/8 151/176/8 153/177/8
f 146/173/6 147/172/6 143/171/6 142/170/6
f 144/178/12 148/174/12 146/175/12 142/179/12
f 149/174/8 145/178/8 143/179/8 147/175/8
f 151/180/19 150/181/19 154/182/19 155/183/19
f 148/173/20 149/172/20 153/184/20 152/185/20
f 147/172/21 146/173/21 150/186/21 151/187/21
f 146/175/12 148/174/12 152/177/12 150/176/12
f 150/176/12 152/177/12 156/188/12 154/189/12
f 153/177/8 151/176/8 155/189/8 157/188/8
f 152/187/22 153/186/22 157/183/22 156/182/22
f 167/159/10 166/160/10 159/161/10 125/162/10
f 162/162/11 163/161/11 164/160/11 165/159/11
f 125/163/12 162/164/12 165/165/12 167/166/12
f 163/164/8 159/163/8 166/166/8 164/165/8
f 164/164/8 166/163/8 160/166/8 158/165/8
f 167/163/12 165/164/12 172/165/12 161/166/12
f 165/162/11 164/161/11 158/160/11 172/159/11
f 161/159/10 160/160/10 166/161/10 167/162/10
f 174/190/23 175/191/23 171/192/23 169/193/23
f 168/194/6 169/195/6 160/196/6 161/197/6
f 171/198/6 170/199/6 172/200/6 158/201/6
f 170/199/6 168/194/6 161/197/6 172/200/6
f 169/195/6 171/198/6 158/201/6 160/196/6
f 176/202/6 175/203/6 174/204/6 173/205/6
f 175/191/24 176/206/24 170/207/24 171/192/24
f 176/206/25 173/208/25 168/209/25 170/207/25
f 173/208/26 174/190/26 169/193/26 168/209/26
f 156/182/10 157/183/10 192/210/10 191/211/10
f 123/182/10 124/183/10 184/210/10 183/211/10
f 154/189/12 156/188/12 191/181/12 189/180/12
f 121/189/12 123/188/12 183/181/12 181/180/12
f 157/188/8 155/189/8 190/180/8 192/181/8
f 107/182/10 108/183/10 180/210/10 179/211/10
f 124/188/8 122/189/8 182/180/8 184/181/8
f 155/183/11 154/182/11 189/211/11 190/210/11
f 140/182/10 141/183/10 188/210/10 187/211/10
f 105/189/12 107/188/12 179/181/12 177/180/12
f 122/183/11 121/182/11 181/211/11 182/210/11
f 138/189/12 140/188/12 187/181/12 185/180/12
f 108/188/8 106/189/8 178/180/8 180/181/8
f 106/183/11 105/182/11 177/211/11 178/210/11
f 141/188/8 139/189/8 186/180/8 188/181/8
f 139/183/11 138/182/11 185/211/11 186/210/11
f 195/170/5 199/173/5 200/172/5 196/171/5
f 200/174/8 204/177/8 202/176/8 198/175/8
f 197/173/6 193/170/6 194/171/6 198/172/6
f 195/178/12 193/179/12 197/175/12 199/174/12
f 200/174/8 198/175/8 194/179/8 196/178/8
f 202/180/27 206/183/27 205/182/27 201/181/27
f 199/173/28 203/185/28 204/184/28 200/172/28
f 198/172/29 202/187/29 201/186/29 197/173/29
f 197/175/12 201/176/12 203/177/12 199/174/12
f 201/176/12 205/189/12 207/188/12 203/177/12
f 204/177/8 208/188/8 206/189/8 202/176/8
f 203/187/30 207/182/30 208/183/30 204/186/30
f 211/170/5 215/173/5 216/172/5 212/171/5
f 216/174/8 220/177/8 218/176/8 214/175/8
f 213/173/6 209/170/6 210/171/6 214/172/6
f 211/178/12 209/179/12 213/175/12 215/174/12
f 216/174/8 214/175/8 210/179/8 212/178/8
f 218/180/27 222/183/27 221/182/27 217/181/27
f 215/173/28 219/185/28 220/184/28 216/172/28
f 214/172/29 218/187/29 217/186/29 213/173/29
f 213/175/12 217/176/12 219/177/12 215/174/12
f 217/176/12 221/189/12 223/188/12 219/177/12
f 220/177/8 224/188/8 222/189/8 218/176/8
f 219/187/30 223/182/30 224/183/30 220/186/30
f 227/170/5 231/173/5 232/172/5 228/171/5
f 232/174/8 236/177/8 234/176/8 230/175/8
f 229/173/6 225/170/6 226/171/6 230/172/6
f 227/178/12 225/179/12 229/175/12 231/174/12
f 232/174/8 230/175/8 226/179/8 228/178/8
f 234/180/27 238/183/27 237/182/27 233/181/27
f 231/173/28 235/185/28 236/184/28 232/172/28
f 230/172/29 234/187/29 233/186/29 229/173/29
f 229/175/12 233/176/12 235/177/12 231/174/12
f 233/176/12 237/189/12 239/188/12 235/177/12
f 236/177/8 240/188/8 238/189/8 234/176/8
f 235/187/30 239/182/30 240/183/30 236/186/30
f 243/170/5 247/173/5 248/172/5 244/171/5
f 248/174/8 252/177/8 250/176/8 246/175/8
f 245/173/6 241/170/6 242/171/6 246/172/6
f 243/178/12 241/179/12 245/175/12 247/174/12
f 248/174/8 246/175/8 242/179/8 244/178/8
f 250/180/27 254/183/27 253/182/27 249/181/27
f 247/173/28 251/185/28 252/184/28 248/172/28
f 246/172/29 250/187/29 249/186/29 245/173/29
f 245/175/12 249/176/12 251/177/12 247/174/12
f 249/176/12 253/189/12 255/188/12 251/177/12
f 252/177/8 256/188/8 254/189/8 250/176/8
f 251/187/30 255/182/30 256/183/30 252/186/30
f 255/182/11 271/211/11 272/210/11 256/183/11
f 223/182/11 263/211/11 264/210/11 224/183/11
f 253/189/12 269/180/12 271/181/12 255/188/12
f 221/189/12 261/180/12 263/181/12 223/188/12
f 256/188/8 272/181/8 270/180/8 254/189/8
f 207/182/11 259/211/11 260/210/11 208/183/11
f 224/188/8 264/181/8 262/180/8 222/189/8
f 254/183/10 270/210/10 269/211/10 253/182/10
f 239/182/11 267/211/11 268/210/11 240/183/11
f 205/189/12 257/180/12 259/181/12 207/188/12
f 222/183/10 262/210/10 261/211/10 221/182/10
f 237/189/12 265/180/12 267/181/12 239/188/12
f 208/188/8 260/181/8 258/180/8 206/189/8
f 206/183/10 258/210/10 257/211/10 205/182/10
f 240/188/8 268/181/8 266/180/8 238/189/8
f 238/183/10 266/210/10 265/211/10 237/182/10
s 1
usemtl elevator_call_button_1
f 277/212/12 275/213/12 336/214/12 346/215/12
f 348/216/6 321/217/6 309/218/6 340/219/6
f 403/220/31 361/221/32 302/222/32 399/223/31
f 347/224/12 339/225/12 273/226/12 282/227/12
f 370/228/6 373/229/6 330/230/6 355/231/6
f 395/232/33 396/233/33 308/234/33 297/235/33
f 353/236/34 284/237/34 277/238/34 346/239/34
f 388/240/35 359/241/36 291/242/36 384/243/35
f 344/244/37 343/245/37 352/246/37 351/247/37
f 345/248/6 324/249/6 331/250/6 354/251/6
f 342/252/6 349/253/6 328/254/6 319/255/6
f 381/256/38 382/257/38 285/258/38 296/259/38
f 350/260/39 281/261/39 365/262/39 368/263/39
f 360/241/40 390/240/41 386/243/41 289/242/40
f 294/259/42 287/258/42 382/257/42 381/256/42
f 317/264/6 322/265/6 323/266/6 320/267/6
f 329/268/43 330/230/43 373/229/43 374/269/43
f 316/270/6 320/267/6 323/266/6 313/271/6
f 387/240/31 357/241/32 290/242/32 383/243/31
f 282/272/44 283/273/44 356/236/44 347/274/44
f 389/275/45 360/241/40 289/242/40 385/276/45
f 351/277/46 368/263/46 365/278/46 279/279/46
f 280/280/47 281/281/47 350/282/47 341/283/47
f 348/216/6 355/231/6 330/284/6 321/285/6
f 311/286/48 317/287/48 318/288/48 312/289/48
f 370/228/6 354/290/6 331/250/6 373/229/6
f 345/248/6 335/291/6 314/292/6 324/293/6
f 390/275/41 358/241/49 292/242/49 386/276/41
f 340/294/6 309/295/6 312/296/6 337/297/6
f 379/298/33 380/299/33 296/259/33 285/258/33
f 343/300/6 337/301/6 312/289/6 318/288/6
f 334/302/6 315/303/6 314/304/6 335/291/6
f 369/263/50 356/277/50 283/305/50 366/306/50
f 298/235/51 305/234/51 396/233/51 395/232/51
f 299/235/52 306/234/52 394/307/52 393/308/52
f 381/309/6 386/310/6 292/311/6 294/312/6
f 397/307/38 398/308/38 297/235/38 308/234/38
f 397/307/42 306/234/42 299/235/42 398/308/42
f 404/220/35 363/221/36 303/222/36 400/223/35
f 391/313/6 399/314/6 302/315/6 305/316/6
f 391/313/6 307/317/6 303/318/6 399/314/6
f 394/319/6 400/320/6 303/318/6 307/317/6
f 378/321/6 384/322/6 291/323/6 295/324/6
f 284/325/53 353/260/53 369/263/53 366/306/53
f 368/263/54 351/277/54 352/326/54 367/327/54
f 360/328/6 389/329/6 387/330/6 359/331/6
f 387/330/6 389/329/6 357/332/6
f 358/333/6 390/334/6 388/335/6
f 278/336/8 274/337/8 338/225/8 344/224/8
f 359/241/36 387/275/31 383/276/31 291/242/36
f 357/241/32 389/275/45 385/276/45 290/242/32
f 375/256/55 376/257/55 288/258/55 295/259/55
f 287/258/52 294/259/52 378/256/52 377/257/52
f 377/257/56 378/256/56 295/259/56 288/258/56
f 391/307/55 392/308/55 300/235/55 307/234/55
f 286/258/51 293/259/51 380/299/51 379/298/51
f 380/338/6 293/339/6 290/340/6 385/341/6
f 394/319/6 306/342/6 304/343/6 400/320/6
f 397/344/6 402/345/6 304/343/6 306/342/6
f 319/255/57 328/254/57 327/346/57 320/347/57
f 375/348/6 383/349/6 290/340/6 293/339/6
f 304/222/49 402/350/41 406/351/41 362/221/49
f 364/221/40 406/220/41 402/223/41 301/222/40
f 399/352/31 303/222/36 363/221/36 403/351/31
f 364/353/6 405/354/6 403/355/6 363/356/6
f 390/334/6 360/328/6 359/331/6 388/335/6
f 405/354/6 361/357/6 403/355/6
f 406/358/6 404/359/6 362/360/6
f 364/353/6 363/356/6 404/359/6 406/358/6
f 337/361/3 338/362/3 339/239/3 340/363/3
f 310/364/58 311/365/58 312/296/58 309/295/58
f 346/215/14 336/214/14 335/366/14 345/367/14
f 310/368/59 309/218/59 321/217/59 322/369/59
f 322/265/6 329/370/6 332/371/6 323/266/6
f 337/372/60 343/373/60 344/224/60 338/225/60
f 341/374/61 350/375/61 349/253/61 342/252/61
f 347/376/62 356/377/62 355/231/62 348/216/62
f 368/263/63 367/327/63 349/378/63 350/260/63
f 318/288/64 317/379/64 326/380/64 325/381/64
f 372/382/65 325/381/65 326/383/65 371/384/65
f 372/382/66 371/385/66 327/386/66 328/254/66
f 346/387/67 345/248/67 354/251/67 353/388/67
f 393/308/56 394/307/56 307/234/56 300/235/56
f 343/245/6 318/288/6 325/381/6 352/246/6
f 332/389/68 374/390/68 373/229/68 331/250/68
f 336/391/2 333/392/2 334/302/2 335/291/2
f 342/393/6 319/394/6 315/395/6 334/302/6
f 324/293/59 314/292/59 313/396/59 323/397/59
f 340/372/14 339/225/14 347/224/14 348/373/14
f 341/215/60 342/367/60 334/366/60 333/214/60
f 319/394/48 320/398/48 316/399/48 315/395/48
f 321/285/69 330/284/69 329/400/69 322/401/69
f 273/402/10 339/239/10 338/362/10 274/403/10
f 324/249/70 323/404/70 332/405/70 331/250/70
f 367/406/6 372/382/6 328/254/6 349/253/6
f 405/351/45 364/221/40 301/222/40 401/352/45
f 367/406/6 352/407/6 325/381/6 372/382/6
f 317/264/6 311/408/6 310/409/6 322/265/6
f 341/215/8 333/214/8 276/410/8 280/411/8
f 396/412/6 401/413/6 301/414/6 308/415/6
f 355/416/71 356/277/71 369/263/71 370/417/71
f 369/263/72 353/260/72 354/378/72 370/417/72
f 371/418/6 326/419/6 327/420/6
f 344/362/73 351/282/73 279/421/73 278/422/73
f 315/303/74 316/423/74 313/424/74 314/304/74
f 329/370/6 374/425/6 332/371/6
f 336/239/11 275/426/11 276/427/11 333/362/11
f 381/309/6 296/428/6 289/429/6 386/310/6
f 375/348/6 295/324/6 291/323/6 383/349/6
f 396/412/6 305/316/6 302/315/6 401/413/6
f 391/307/75 305/234/75 298/235/75 392/308/75
f 405/351/45 401/350/45 302/222/32 361/221/32
f 397/344/6 308/415/6 301/414/6 402/345/6
f 380/338/6 385/341/6 289/429/6 296/428/6
f 378/321/6 294/312/6 292/311/6 384/322/6
f 293/259/75 286/258/75 376/257/75 375/256/75
f 358/241/49 388/240/35 384/243/35 292/242/49
f 362/221/49 404/220/35 400/223/35 304/222/49
f 326/419/6 317/264/6 320/267/6 327/420/6
f 411/212/12 409/213/12 470/214/12 480/215/12
f 482/216/6 455/217/6 443/218/6 474/219/6
f 537/220/31 495/221/32 436/222/32 533/223/31
f 481/224/12 473/225/12 407/226/12 416/227/12
f 504/228/6 507/229/6 464/230/6 489/231/6
f 529/232/33 530/233/33 442/234/33 431/235/33
f 487/236/34 418/237/34 411/238/34 480/239/34
f 522/240/35 493/241/36 425/242/36 518/243/35
f 478/244/37 477/245/37 486/246/37 485/247/37
f 479/248/6 458/249/6 465/250/6 488/251/6
f 476/252/6 483/253/6 462/254/6 453/255/6
f 515/256/38 516/257/38 419/258/38 430/259/38
f 484/260/39 415/261/39 499/262/39 502/263/39
f 494/241/40 524/240/41 520/243/41 423/242/40
f 428/259/42 421/258/42 516/257/42 515/256/42
f 451/264/6 456/265/6 457/266/6 454/267/6
f 463/268/43 464/230/43 507/229/43 508/269/43
f 450/270/6 454/267/6 457/266/6 447/271/6
f 521/240/31 491/241/32 424/242/32 517/243/31
f 416/272/44 417/273/44 490/236/44 481/274/44
f 523/275/45 494/241/40 423/242/40 519/276/45
f 485/277/46 502/263/46 499/278/46 413/279/46
f 414/280/47 415/281/47 484/282/47 475/283/47
f 482/216/6 489/231/6 464/284/6 455/285/6
f 445/286/48 451/287/48 452/288/48 446/289/48
f 504/228/6 488/290/6 465/250/6 507/229/6
f 479/248/6 469/291/6 448/292/6 458/293/6
f 524/275/41 492/241/49 426/242/49 520/276/41
f 474/294/6 443/295/6 446/296/6 471/297/6
f 513/298/33 514/299/33 430/259/33 419/258/33
f 477/300/6 471/301/6 446/289/6 452/288/6
f 468/302/6 449/303/6 448/304/6 469/291/6
f 503/263/50 490/277/50 417/305/50 500/306/50
f 432/235/51 439/234/51 530/233/51 529/232/51
f 433/235/52 440/234/52 528/307/52 527/308/52
f 515/309/6 520/310/6 426/311/6 428/312/6
f 531/307/38 532/308/38 431/235/38 442/234/38
f 531/307/42 440/234/42 433/235/42 532/308/42
f 538/220/35 497/221/36 437/222/36 534/223/35
f 525/313/6 533/314/6 436/315/6 439/316/6
f 525/313/6 441/317/6 437/318/6 533/314/6
f 528/319/6 534/320/6 437/318/6 441/317/6
f 512/321/6 518/322/6 425/323/6 429/324/6
f 418/325/53 487/260/53 503/263/53 500/306/53
f 502/263/54 485/277/54 486/326/54 501/327/54
f 494/328/6 523/329/6 521/330/6 493/331/6
f 521/330/6 523/329/6 491/332/6
f 492/333/6 524/334/6 522/335/6
f 412/336/8 408/337/8 472/225/8 478/224/8
f 493/241/36 521/275/31 517/276/31 425/242/36
f 491/241/32 523/275/45 519/276/45 424/242/32
f 509/256/55 510/257/55 422/258/55 429/259/55
f 421/258/52 428/259/52 512/256/52 511/257/52
f 511/257/56 512/256/56 429/259/56 422/258/56
f 525/307/55 526/308/55 434/235/55 441/234/55
f 420/258/51 427/259/51 514/299/51 513/298/51
f 514/338/6 427/339/6 424/340/6 519/341/6
f 528/319/6 440/342/6 438/343/6 534/320/6
f 531/344/6 536/345/6 438/343/6 440/342/6
f 453/255/57 462/254/57 461/346/57 454/347/57
f 509/348/6 517/349/6 424/340/6 427/339/6
f 438/222/49 536/350/41 540/351/41 496/221/49
f 498/221/40 540/220/41 536/223/41 435/222/40
f 533/352/31 437/222/36 497/221/36 537/351/31
f 498/353/6 539/354/6 537/355/6 497/356/6
f 524/334/6 494/328/6 493/331/6 522/335/6
f 539/354/6 495/357/6 537/355/6
f 540/358/6 538/359/6 496/360/6
f 498/353/6 497/356/6 538/359/6 540/358/6
f 471/361/3 472/362/3 473/239/3 474/363/3
f 444/364/58 445/365/58 446/296/58 443/295/58
f 480/215/14 470/214/14 469/366/14 479/367/14
f 444/368/59 443/218/59 455/217/59 456/369/59
f 456/265/6 463/370/6 466/371/6 457/266/6
f 471/372/60 477/373/60 478/224/60 472/225/60
f 475/374/61 484/375/61 483/253/61 476/252/61
f 481/376/62 490/377/62 489/231/62 482/216/62
f 502/263/63 501/327/63 483/378/63 484/260/63
f 452/288/64 451/379/64 460/380/64 459/381/64
f 506/382/65 459/381/65 460/383/65 505/384/65
f 506/382/66 505/385/66 461/386/66 462/254/66
f 480/387/67 479/248/67 488/251/67 487/388/67
f 527/308/56 528/307/56 441/234/56 434/235/56
f 477/245/6 452/288/6 459/381/6 486/246/6
f 466/389/68 508/390/68 507/229/68 465/250/68
f 470/391/2 467/392/2 468/302/2 469/291/2
f 476/393/6 453/394/6 449/395/6 468/302/6
f 458/293/59 448/292/59 447/396/59 457/397/59
f 474/372/14 473/225/14 481/224/14 482/373/14
f 475/215/60 476/367/60 468/366/60 467/214/60
f 453/394/48 454/398/48 450/399/48 449/395/48
f 455/285/69 464/284/69 463/400/69 456/401/69
f 407/402/10 473/239/10 472/362/10 408/403/10
f 458/249/70 457/404/70 466/405/70 465/250/70
f 501/406/6 506/382/6 462/254/6 483/253/6
f 539/351/45 498/221/40 435/222/40 535/352/45
f 501/406/6 486/407/6 459/381/6 506/382/6
f 451/264/6 445/408/6 444/409/6 456/265/6
f 475/215/8 467/214/8 410/410/8 414/411/8
f 530/412/6 535/413/6 435/414/6 442/415/6
f 489/416/71 490/277/71 503/263/71 504/417/71
f 503/263/72 487/260/72 488/378/72 504/417/72
f 505/418/6 460/419/6 461/420/6
f 478/362/73 485/282/73 413/421/73 412/422/73
f 449/303/74 450/423/74 447/424/74 448/304/74
f 463/370/6 508/425/6 466/371/6
f 470/239/11 409/426/11 410/427/11 467/362/11
f 515/309/6 430/428/6 423/429/6 520/310/6
f 509/348/6 429/324/6 425/323/6 517/349/6
f 530/412/6 439/316/6 436/315/6 535/413/6
f 525/307/75 439/234/75 432/235/75 526/308/75
f 539/351/45 535/350/45 436/222/32 495/221/32
f 531/344/6 442/415/6 435/414/6 536/345/6
f 514/338/6 519/341/6 423/429/6 430/428/6
f 512/321/6 428/312/6 426/311/6 518/322/6
f 427/259/75 420/258/75 510/257/75 509/256/75
f 492/241/49 522/240/35 518/243/35 426/242/49
f 496/221/49 538/220/35 534/223/35 438/222/49
f 460/419/6 451/264/6 454/267/6 461/420/6
o elevator_door_6_b
v -0.000001 0.000000 0.000000
v -0.000001 2.300000 0.000000
v -0.000001 0.000000 -0.060000
v -0.000001 2.300000 -0.060000
v -0.693001 2.300000 -0.060000
v -0.700001 2.300000 -0.053000
v -0.700001 0.000000 -0.053000
v -0.693001 0.000000 -0.060000
v -0.700001 2.300000 -0.007000
v -0.693001 2.300000 0.000000
v -0.693001 0.000000 0.000000
v -0.700001 0.000000 -0.007000
vn -1.0000 -0.0000 -0.0000
vn 1.0000 -0.0000 -0.0000
vn -0.0000 -0.0000 1.0000
vn -0.0000 -0.0000 -1.0000
vn -0.0000 -1.0000 -0.0000
vn -0.7071 -0.0000 -0.7071
vn -0.7071 -0.0000 0.7071
vn -0.0000 1.0000 -0.0000
vt 0.520000 0.000000
vt 0.487143 0.000000
vt 0.487143 1.000000
vt 0.520000 1.000000
vt 0.525000 0.000000
vt 0.525000 1.000000
vt 0.482143 1.000000
vt 0.482143 0.000000
vt 1.000000 0.000000
vt 1.000000 1.000000
vt 0.505000 1.000000
vt 0.505000 0.000000
vt 0.505000 1.000000
vt 0.505000 0.000000
vt 1.000000 0.515217
vt 1.000000 0.489130
vt 0.505000 0.489130
vt 0.500000 0.492174
vt 0.500000 0.512174
vt 0.505000 0.515217
vt 0.500000 0.000000
vt 0.500000 1.000000
vt 0.500000 1.000000
vt 0.500000 0.512174
vt 0.500000 0.492174
s 0
usemtl elevator_door_2
f 547/430/76 552/431/76 549/432/76 546/433/76
f 543/434/77 544/435/77 542/436/77 541/437/77
f 541/438/78 542/439/78 550/440/78 551/441/78
f 545/442/79 544/439/79 543/438/79 548/443/79
f 543/444/80 541/445/80 551/446/80 552/447/80 547/448/80 548/449/80
f 545/442/81 548/443/81 547/450/81 546/451/81
f 549/452/82 552/450/82 551/441/82 550/440/82
f 542/445/83 544/444/83 545/449/83 546/453/83 549/454/83 550/446/83
o elevator_door_6_a
v -0.000001 0.000000 0.010000
v -0.000001 2.300000 0.010000
v -0.000001 0.000000 -0.050000
v -0.000001 2.300000 -0.050000
v 0.699999 2.300000 -0.043000
v 0.692999 2.300000 -0.050000
v 0.692999 0.000000 -0.050000
v 0.699999 0.000000 -0.043000
v 0.692999 2.300000 0.010000
v 0.699999 2.300000 0.003000
v 0.699999 0.000000 0.003000
v 0.692999 0.000000 0.010000
vn -1.0000 -0.0000 -0.0000
vn 1.0000 -0.0000 -0.0000
vn -0.0000 -0.0000 1.0000
vn -0.0000 -0.0000 -1.0000
vn -0.0000 -1.0000 -0.0000
vn 0.7071 -0.0000 0.7071
vn 0.7071 -0.0000 -0.7071
vn -0.0000 1.0000 -0.0000
vt 0.475000 0.000000
vt 0.475000 1.000000
vt 0.517857 1.000000
vt 0.517857 0.000000
vt 0.512857 0.000000
vt 0.512857 1.000000
vt 0.480000 1.000000
vt 0.480000 0.000000
vt 0.000000 1.000000
vt 0.000000 0.000000
vt 0.495000 0.000000
vt 0.495000 1.000000
vt 0.495000 1.000000
vt 0.495000 0.000000
vt 0.500000 0.487826
vt 0.495000 0.484783
vt 0.000000 0.484783
vt 0.000000 0.510870
vt 0.495000 0.510870
vt 0.500000 0.507826
vt 0.500000 0.000000
vt 0.500000 1.000000
vt 0.500000 1.000000
vt 0.495000 0.510870
vt 0.495000 0.484783
s 0
usemtl elevator_door_2
f 553/455/84 554/456/84 556/457/84 555/458/84
f 560/459/85 557/460/85 562/461/85 563/462/85
f 554/463/86 553/464/86 564/465/86 561/466/86
f 555/464/87 556/463/87 558/467/87 559/468/87
f 563/469/88 564/470/88 553/471/88 555/472/88 559/473/88 560/474/88
f 561/466/89 564/465/89 563/475/89 562/476/89
f 557/477/90 560/475/90 559/468/90 558/467/90
f 557/474/91 558/478/91 556/472/91 554/471/91 561/479/91 562/469/91
