# Blender 5.0.1
# www.blender.org
mtllib half_arc_pillar_1_wall_1_plain.mtl
o half_arc_pillar_1_wall_1_plain
v 0.000000 3.000000 -0.200001
v -0.400000 0.000000 0.199999
v -0.400000 0.000000 -0.200001
v 0.000000 0.000000 -0.200001
v 0.000000 0.000000 0.199999
v 0.000000 3.000000 0.199999
v -1.500000 2.600000 0.199999
v -0.400000 1.500000 0.199999
v -1.215299 2.562518 0.199999
v -0.950000 2.452628 0.199999
v -0.722182 2.277817 0.199999
v -0.547372 2.050000 0.199999
v -0.437481 1.784701 0.199999
v -0.400000 1.500000 -0.200001
v -0.437481 1.784701 -0.200001
v -0.547372 2.050000 -0.200001
v -0.722182 2.277817 -0.200001
v -0.950000 2.452628 -0.200001
v -1.215299 2.562518 -0.200001
v -1.500000 3.000000 0.199999
v -1.500000 2.600000 -0.200001
v -1.500000 3.000000 -0.200001
vn -0.0000 -0.0000 -1.0000
vn -0.0000 -0.0000 1.0000
vn -0.9979 -0.0654 -0.0000
vn -0.9659 -0.2588 -0.0000
vn -0.8660 -0.5000 -0.0000
vn -0.7071 -0.7071 -0.0000
vn -1.0000 -0.0000 -0.0000
vn -0.2588 -0.9659 -0.0000
vn -0.1305 -0.9914 -0.0000
vn -0.5000 -0.8660 -0.0000
vt 0.871504 0.866667
vt 0.872628 1.000000
vt 1.251044 1.000000
vt 0.873656 1.000000
vt 0.873656 0.866667
vt 1.252688 1.000000
vt 1.000000 1.000000
vt 0.861686 0.683334
vt 0.889454 0.594900
vt 0.889454 0.594900
vt 0.861686 0.683333
vt 0.620968 0.866667
vt 0.692908 0.854173
vt 0.759946 0.817543
vt 1.000000 0.000000
vt 0.898925 0.000000
vt 0.898925 0.500000
vt 0.817513 0.759273
vt 0.898925 0.500000
vt 0.692908 0.854173
vt 0.759946 0.817543
vt 0.817513 0.759273
vt 0.000307 0.501217
vt 0.000307 0.596063
vt 0.094332 0.596063
vt 0.094332 0.501217
vt 0.000307 0.685106
vt 0.000307 0.746103
vt 0.094332 0.746103
vt 0.094332 0.685106
vt 0.772581 0.866667
vt 0.772581 1.000000
vt 0.094332 0.000306
vt 0.000307 0.000306
vt 0.094332 0.913551
vt 0.000307 0.913551
vt 0.000307 0.999853
vt 0.094332 0.999853
vt 0.000307 0.835146
vt 0.094332 0.835146
s 1
usemtl wall_mp_1
f 21/1/1 22/2/1 1/3/1
f 20/4/2 7/5/2 6/6/2
f 6/7/2 12/8/2 13/9/2
f 1/7/1 15/10/1 16/11/1
f 6/7/2 7/12/2 9/13/2
f 6/7/2 9/13/2 10/14/2
f 4/15/1 3/16/1 14/17/1 1/7/1
f 6/7/2 10/14/2 11/18/2
f 6/7/2 11/18/2 12/8/2
f 13/9/2 8/19/2 6/7/2
f 19/20/1 21/12/1 1/7/1
f 18/21/1 19/20/1 1/7/1
f 17/22/1 18/21/1 1/7/1
f 1/7/1 14/17/1 15/10/1
f 16/11/1 17/22/1 1/7/1
f 8/23/3 13/24/4 15/25/4 14/26/3
f 12/27/5 11/28/6 17/29/6 16/30/5
f 15/25/4 13/24/4 12/27/5 16/30/5
f 21/31/7 7/5/7 20/4/7 22/32/7
f 14/26/3 3/33/7 2/34/7 8/23/3
f 19/35/8 9/36/8 7/37/9 21/38/9
f 11/28/6 10/39/10 18/40/10 17/29/6
f 10/39/10 9/36/8 19/35/8 18/40/10
f 5/15/2 6/7/2 8/19/2 2/16/2
