# Blender 5.0.1
# www.blender.org
mtllib pipe_valve_holder_large_2.mtl
o pipe_valve_holder_large_2
v -0.016238 0.009377 0.060007
v -0.016238 0.009377 0.080007
v 0.000000 0.018752 0.060007
v 0.000000 0.018752 0.080007
v 0.016238 0.009377 0.060007
v 0.016238 0.009377 0.080007
v 0.016238 -0.009373 0.060007
v 0.016238 -0.009373 0.080007
v 0.000000 -0.018749 0.060007
v 0.000000 -0.018749 0.080007
v -0.016238 -0.009373 0.060007
v -0.016238 -0.009373 0.080007
v -0.060000 -0.000000 0.000007
v -0.060000 0.000001 0.060007
v -0.051961 0.030000 0.000007
v -0.051961 0.030000 0.060007
v -0.030000 0.051961 0.000007
v -0.030000 0.051961 0.060007
v 0.000000 0.060000 0.000007
v 0.000000 0.060000 0.060007
v 0.030000 0.051961 0.000007
v 0.030000 0.051961 0.060007
v 0.051962 0.030000 0.000007
v 0.051962 0.030000 0.060007
v 0.060000 -0.000001 0.000007
v 0.060000 0.000000 0.060007
v 0.051962 -0.030000 0.000007
v 0.051962 -0.030000 0.060007
v 0.030000 -0.051962 0.000007
v 0.030000 -0.051962 0.060007
v 0.000000 -0.060000 0.000007
v 0.000000 -0.060000 0.060007
v -0.030000 -0.051961 0.000007
v -0.030000 -0.051961 0.060007
v -0.051961 -0.030000 0.000007
v -0.051961 -0.030000 0.060007
vn -0.8660 0.5000 -0.0000
vn -0.0000 1.0000 -0.0000
vn 0.8660 0.5000 -0.0000
vn 0.8660 -0.5000 -0.0000
vn -0.0000 -1.0000 -0.0000
vn -0.8660 -0.5000 -0.0000
vn -0.0000 -0.0000 1.0000
vn -1.0000 -0.0000 -0.0000
vn -0.5000 0.8660 -0.0000
vn 0.5000 0.8660 -0.0000
vn 1.0000 -0.0000 -0.0000
vn 0.5000 -0.8660 -0.0000
vn -0.5000 -0.8660 -0.0000
vt 0.408917 0.445678
vt 0.408917 0.437895
vt 0.416936 0.437895
vt 0.416936 0.445678
vt 0.408917 0.430111
vt 0.416936 0.430111
vt 0.408917 0.422328
vt 0.416936 0.422328
vt 0.408917 0.414545
vt 0.416936 0.414544
vt 0.408917 0.461245
vt 0.408917 0.453461
vt 0.416936 0.453461
vt 0.416936 0.461245
vt 0.376285 0.477581
vt 0.370968 0.482897
vt 0.363706 0.480952
vt 0.361761 0.473689
vt 0.367077 0.468373
vt 0.374339 0.470319
vt 0.220152 0.451905
vt 0.244210 0.451905
vt 0.244210 0.464358
vt 0.220152 0.464358
vt 0.244210 0.476812
vt 0.220152 0.476812
vt 0.244210 0.489265
vt 0.220152 0.489265
vt 0.244210 0.501718
vt 0.220152 0.501718
vt 0.244210 0.514172
vt 0.220152 0.514172
vt 0.244210 0.526625
vt 0.220152 0.526625
vt 0.244210 0.539079
vt 0.220152 0.539079
vt 0.244210 0.551532
vt 0.220152 0.551532
vt 0.244210 0.563985
vt 0.220152 0.563985
vt 0.220152 0.414544
vt 0.244210 0.414544
vt 0.244210 0.426998
vt 0.220152 0.426998
vt 0.286200 0.454795
vt 0.275415 0.461021
vt 0.262961 0.461021
vt 0.252176 0.454795
vt 0.245949 0.444010
vt 0.245949 0.431556
vt 0.252176 0.420771
vt 0.262961 0.414544
vt 0.275415 0.414545
vt 0.286199 0.420771
vt 0.292426 0.431556
vt 0.292426 0.444010
vt 0.244210 0.439451
vt 0.220152 0.439451
s 1
usemtl metal_mp_6
f 2/1/1 4/2/2 3/3/2 1/4/1
f 4/2/2 6/5/3 5/6/3 3/3/2
f 6/5/3 8/7/4 7/8/4 5/6/3
f 8/7/4 10/9/5 9/10/5 7/8/4
f 10/11/5 12/12/6 11/13/6 9/14/5
f 2/15/7 12/16/7 10/17/7 8/18/7 6/19/7 4/20/7
f 13/21/8 14/22/8 16/23/1 15/24/1
f 15/24/1 16/23/1 18/25/9 17/26/9
f 17/26/9 18/25/9 20/27/2 19/28/2
f 19/28/2 20/27/2 22/29/10 21/30/10
f 21/30/10 22/29/10 24/31/3 23/32/3
f 23/32/3 24/31/3 26/33/11 25/34/11
f 25/34/11 26/33/11 28/35/4 27/36/4
f 27/36/4 28/35/4 30/37/12 29/38/12
f 29/38/12 30/37/12 32/39/5 31/40/5
f 31/41/5 32/42/5 34/43/13 33/44/13
f 16/45/7 14/46/7 36/47/7 34/48/7 32/49/7 30/50/7 28/51/7 26/52/7 24/53/7 22/54/7 20/55/7 18/56/7
f 33/44/13 34/43/13 36/57/6 35/58/6
f 35/58/6 36/57/6 14/22/8 13/21/8
f 11/13/6 12/12/6 2/1/1 1/4/1
o valve_mp_1
v 0.000000 0.018717 0.067005
v -0.009360 0.016209 0.067005
v -0.016212 0.009357 0.067005
v -0.018720 -0.000002 0.067005
v -0.016212 -0.009363 0.067005
v -0.009360 -0.016215 0.067005
v 0.000000 -0.018723 0.067005
v 0.009360 -0.016215 0.067005
v 0.016212 -0.009363 0.067005
v 0.018720 -0.000003 0.067005
v 0.016212 0.009357 0.067005
v 0.009360 0.016209 0.067005
v 0.000000 0.018717 0.064005
v -0.009360 0.016209 0.064005
v -0.016212 0.009357 0.064005
v -0.018720 -0.000002 0.064005
v -0.016212 -0.009363 0.064005
v -0.009360 -0.016215 0.064005
v 0.000000 -0.018723 0.064005
v 0.009360 -0.016215 0.064005
v 0.016212 -0.009363 0.064005
v 0.018720 -0.000003 0.064005
v 0.016212 0.009357 0.064005
v 0.009360 0.016209 0.064005
v 0.000000 0.014516 0.067005
v 0.000000 0.014516 0.080005
v -0.012574 0.007257 0.067005
v -0.012574 0.007257 0.080005
v -0.012574 -0.007263 0.067005
v -0.012574 -0.007263 0.080005
v 0.000000 -0.014523 0.067005
v 0.000000 -0.014523 0.080005
v 0.012575 -0.007263 0.067005
v 0.012575 -0.007263 0.080005
v 0.012575 0.007257 0.067005
v 0.012575 0.007257 0.080005
v 0.000001 0.015440 0.009985
v 0.013375 0.007718 0.009985
v 0.013375 -0.007726 0.009985
v 0.000001 -0.015448 0.009985
v -0.013374 -0.007726 0.009985
v -0.013374 0.007719 0.009985
v -0.013374 0.007719 0.000005
v -0.013374 -0.007726 0.000005
v 0.000001 -0.015448 0.000005
v 0.013375 -0.007726 0.000005
v 0.013375 0.007718 0.000005
v 0.000001 0.015440 0.000005
v 0.000000 0.164142 0.124149
v 0.000000 0.135857 0.124149
v 0.000000 0.135857 0.095865
v 0.000000 0.164142 0.095865
v -0.082071 0.142151 0.124149
v -0.067929 0.117656 0.124149
v -0.067929 0.117656 0.095865
v -0.082071 0.142151 0.095865
v -0.142151 0.082070 0.124149
v -0.117656 0.067929 0.124149
v -0.117656 0.067929 0.095865
v -0.142151 0.082070 0.095865
v -0.164142 -0.000001 0.124149
v -0.135858 -0.000001 0.124149
v -0.135858 -0.000001 0.095865
v -0.164142 -0.000001 0.095865
v -0.142151 -0.082072 0.124149
v -0.117656 -0.067929 0.124150
v -0.117656 -0.067929 0.095865
v -0.142151 -0.082072 0.095865
v -0.082071 -0.142151 0.124149
v -0.067929 -0.117657 0.124149
v -0.067929 -0.117657 0.095865
v -0.082071 -0.142151 0.095865
v 0.000000 -0.164143 0.124149
v 0.000000 -0.135858 0.124149
v 0.000000 -0.135858 0.095865
v 0.000000 -0.164143 0.095865
v 0.082071 -0.142152 0.124149
v 0.067929 -0.117657 0.124149
v 0.067929 -0.117657 0.095865
v 0.082071 -0.142152 0.095865
v 0.142151 -0.082071 0.124149
v 0.117657 -0.067930 0.124149
v 0.117657 -0.067930 0.095865
v 0.142151 -0.082071 0.095865
v 0.164142 -0.000000 0.124149
v 0.135858 -0.000000 0.124149
v 0.135858 -0.000000 0.095865
v 0.164142 -0.000000 0.095865
v 0.142151 0.082071 0.124149
v 0.117657 0.067928 0.124149
v 0.117657 0.067928 0.095865
v 0.142151 0.082071 0.095865
v 0.082071 0.142150 0.124149
v 0.067929 0.117656 0.124149
v 0.067929 0.117656 0.095865
v 0.082071 0.142150 0.095865
v -0.025000 0.000001 0.010007
v -0.025000 0.000001 0.064007
v -0.021651 0.012500 0.010007
v -0.021651 0.012500 0.064007
v -0.012500 0.021651 0.010007
v -0.012500 0.021651 0.064007
v 0.000000 0.025000 0.010007
v 0.000000 0.025000 0.064007
v 0.012500 0.021651 0.010007
v 0.012500 0.021651 0.064007
v 0.021651 0.012500 0.010007
v 0.021651 0.012500 0.064007
v 0.025000 0.000000 0.010007
v 0.025000 0.000000 0.064007
v 0.021651 -0.012499 0.010007
v 0.021651 -0.012499 0.064007
v 0.012500 -0.021650 0.010007
v 0.012500 -0.021650 0.064007
v 0.000000 -0.024999 0.010007
v 0.000000 -0.024999 0.064007
v -0.012500 -0.021650 0.010007
v -0.012500 -0.021650 0.064007
v -0.021651 -0.012499 0.010007
v -0.021651 -0.012499 0.064007
v -0.032500 0.000001 0.020007
v -0.032500 0.000001 0.054007
v -0.028146 0.016251 0.020007
v -0.028146 0.016251 0.054007
v -0.016250 0.028146 0.020007
v -0.016250 0.028146 0.054007
v 0.000000 0.032501 0.020007
v 0.000000 0.032501 0.054007
v 0.016250 0.028146 0.020007
v 0.016250 0.028146 0.054007
v 0.028146 0.016251 0.020007
v 0.028146 0.016251 0.054007
v 0.032500 0.000000 0.020007
v 0.032500 0.000000 0.054007
v 0.028146 -0.016249 0.020007
v 0.028146 -0.016249 0.054007
v 0.016250 -0.028145 0.020007
v 0.016250 -0.028145 0.054007
v 0.000000 -0.032499 0.020007
v 0.000000 -0.032499 0.054007
v -0.016250 -0.028145 0.020007
v -0.016250 -0.028145 0.054007
v -0.028146 -0.016249 0.020007
v -0.028146 -0.016249 0.054007
v 0.010000 0.044000 0.045007
v 0.010000 0.118000 0.118007
v -0.010000 0.044000 0.045007
v -0.010000 0.118000 0.118007
v 0.010000 0.048000 0.029007
v 0.010000 0.121000 0.102007
v -0.010000 0.048000 0.029007
v -0.010000 0.121000 0.102007
v 0.010000 0.028146 0.045007
v -0.010000 0.028146 0.045007
v 0.010000 0.028146 0.029007
v -0.010000 0.028146 0.029007
v 0.010000 0.140000 0.118007
v -0.010000 0.140000 0.118007
v 0.010000 0.140000 0.102007
v -0.010000 0.140000 0.102007
v 0.033105 -0.030660 0.045007
v 0.097191 -0.067660 0.118007
v 0.043105 -0.013340 0.045007
v 0.107191 -0.050340 0.118007
v 0.036569 -0.032660 0.029007
v 0.099789 -0.069160 0.102007
v 0.046569 -0.015340 0.029007
v 0.109789 -0.051840 0.102007
v 0.019375 -0.022733 0.045007
v 0.029375 -0.005413 0.045007
v 0.019375 -0.022733 0.029007
v 0.029375 -0.005413 0.029007
v 0.116243 -0.078660 0.118007
v 0.126243 -0.061340 0.118007
v 0.116243 -0.078660 0.102007
v 0.126243 -0.061340 0.102007
v -0.043105 -0.013340 0.045007
v -0.107191 -0.050340 0.118007
v -0.033105 -0.030660 0.045007
v -0.097191 -0.067660 0.118007
v -0.046569 -0.015340 0.029007
v -0.109789 -0.051840 0.102007
v -0.036569 -0.032660 0.029007
v -0.099789 -0.069160 0.102007
v -0.029375 -0.005413 0.045007
v -0.019375 -0.022733 0.045007
v -0.029375 -0.005413 0.029007
v -0.019375 -0.022733 0.029007
v -0.126243 -0.061340 0.118007
v -0.116243 -0.078660 0.118007
v -0.126243 -0.061340 0.102007
v -0.116243 -0.078660 0.102007
vn -0.0000 -0.0000 1.0000
vn 0.8660 0.5000 -0.0000
vn 0.5000 0.8660 -0.0000
vn -0.0000 1.0000 -0.0000
vn -0.5000 0.8660 -0.0000
vn 0.5000 -0.8660 -0.0000
vn 0.8660 -0.5000 -0.0000
vn -0.8660 -0.5000 -0.0000
vn -0.5000 -0.8660 -0.0000
vn -0.8660 0.5000 -0.0000
vn 1.0000 -0.0000 -0.0000
vn -0.0000 -1.0000 -0.0000
vn -1.0000 -0.0000 -0.0000
vn -0.0000 -0.0000 -1.0000
vn -0.4620 0.8001 -0.3827
vn -0.8001 0.4620 -0.3827
vn -0.8001 0.4619 0.3827
vn -0.4620 0.8001 0.3827
vn 0.8001 -0.4619 0.3827
vn 0.8001 -0.4620 -0.3827
vn 0.4620 -0.8001 -0.3827
vn 0.4620 -0.8001 0.3827
vn -0.9239 -0.0000 -0.3827
vn -0.9239 -0.0000 0.3827
vn 0.9239 0.0001 0.3827
vn 0.9239 -0.0001 -0.3827
vn -0.8001 -0.4620 -0.3827
vn -0.8001 -0.4620 0.3827
vn 0.8001 0.4619 0.3827
vn 0.8001 0.4620 -0.3827
vn -0.4620 -0.8001 -0.3827
vn -0.4620 -0.8001 0.3827
vn 0.4619 0.8001 0.3827
vn 0.4619 0.8001 -0.3827
vn -0.0000 -0.9239 -0.3827
vn -0.0000 -0.9239 0.3827
vn -0.0000 0.9239 0.3827
vn -0.0001 0.9239 -0.3827
vn -0.4619 0.8001 0.3827
vn -0.4619 0.8001 -0.3827
vn 0.8001 -0.4619 -0.3827
vn 0.9239 -0.0000 -0.3827
vn 0.9239 -0.0000 0.3827
vn -0.9239 -0.0001 0.3827
vn -0.9239 0.0001 -0.3827
vn 0.8001 0.4619 -0.3827
vn 0.8001 0.4620 0.3827
vn -0.8001 -0.4619 0.3827
vn 0.4620 0.8001 -0.3827
vn 0.4620 0.8001 0.3827
vn -0.4619 -0.8001 0.3827
vn -0.4619 -0.8001 -0.3827
vn -0.0000 0.9239 -0.3827
vn -0.0000 -0.7023 0.7119
vn -0.0000 0.7071 -0.7071
vn -0.6082 0.3511 0.7119
vn 0.6124 -0.3536 -0.7071
vn 0.6082 0.3511 0.7119
vn -0.6124 -0.3536 -0.7071
vt 0.414225 0.462985
vt 0.418110 0.462985
vt 0.421475 0.464927
vt 0.423418 0.468292
vt 0.423418 0.472178
vt 0.421475 0.475542
vt 0.418110 0.477485
vt 0.414225 0.477485
vt 0.410860 0.475543
vt 0.408917 0.472178
vt 0.408917 0.468292
vt 0.410860 0.464927
vt 0.346855 0.445628
vt 0.345652 0.445628
vt 0.345652 0.441743
vt 0.346855 0.441743
vt 0.346855 0.437857
vt 0.345652 0.437857
vt 0.345652 0.433972
vt 0.346855 0.433972
vt 0.346855 0.457285
vt 0.345652 0.457285
vt 0.345652 0.453399
vt 0.346855 0.453399
vt 0.346855 0.422316
vt 0.345652 0.422316
vt 0.345652 0.418430
vt 0.346855 0.418430
vt 0.345652 0.430086
vt 0.346855 0.430086
vt 0.345652 0.449514
vt 0.346855 0.449514
vt 0.345652 0.414544
vt 0.346855 0.414544
vt 0.345652 0.426201
vt 0.346855 0.426201
vt 0.346855 0.461170
vt 0.345652 0.461170
vt 0.423888 0.432011
vt 0.423888 0.437833
vt 0.418676 0.437833
vt 0.418676 0.432011
vt 0.423888 0.443654
vt 0.418676 0.443654
vt 0.423888 0.449477
vt 0.418676 0.449477
vt 0.423888 0.414544
vt 0.423888 0.420367
vt 0.418676 0.420367
vt 0.418676 0.414544
vt 0.332930 0.484921
vt 0.332930 0.479099
vt 0.337972 0.476187
vt 0.343014 0.479099
vt 0.343014 0.484921
vt 0.337972 0.487831
vt 0.423888 0.426189
vt 0.418676 0.426189
vt 0.393717 0.487475
vt 0.388675 0.484564
vt 0.388675 0.478742
vt 0.393717 0.475831
vt 0.398759 0.478742
vt 0.398759 0.484564
vt 0.429630 0.446600
vt 0.429630 0.453011
vt 0.425628 0.453011
vt 0.425628 0.446600
vt 0.429630 0.427367
vt 0.429630 0.433778
vt 0.425628 0.433778
vt 0.425628 0.427367
vt 0.429630 0.420955
vt 0.425628 0.420955
vt 0.429630 0.440188
vt 0.425628 0.440188
vt 0.429630 0.414544
vt 0.425628 0.414544
vt 0.495305 0.466015
vt 0.495305 0.508089
vt 0.481284 0.508089
vt 0.481284 0.466015
vt 0.398511 0.401850
vt 0.395576 0.412805
vt 0.366072 0.395770
vt 0.374091 0.387750
vt 0.497332 0.388890
vt 0.510428 0.388795
vt 0.510789 0.419340
vt 0.497114 0.419342
vt 0.347299 0.366266
vt 0.336344 0.363330
vt 0.336344 0.335132
vt 0.347299 0.332197
vt 0.495305 0.550162
vt 0.481284 0.550162
vt 0.426710 0.401850
vt 0.429645 0.412805
vt 0.497459 0.360225
vt 0.509590 0.359979
vt 0.330264 0.395770
vt 0.322245 0.387751
vt 0.495305 0.592235
vt 0.481284 0.592235
vt 0.451130 0.387751
vt 0.459150 0.395771
vt 0.497396 0.334205
vt 0.508572 0.333973
vt 0.300760 0.412805
vt 0.297824 0.401850
vt 0.495305 0.634309
vt 0.481284 0.634309
vt 0.465230 0.363331
vt 0.476185 0.366266
vt 0.497124 0.309764
vt 0.507826 0.309541
vt 0.266691 0.412805
vt 0.269626 0.401850
vt 0.495305 0.676382
vt 0.481284 0.676382
vt 0.465230 0.335133
vt 0.476185 0.332198
vt 0.496862 0.285849
vt 0.507202 0.285658
vt 0.237186 0.395771
vt 0.245206 0.387751
vt 0.495305 0.171502
vt 0.495305 0.213575
vt 0.481284 0.213575
vt 0.481284 0.171502
vt 0.451131 0.310713
vt 0.459151 0.302693
vt 0.499809 0.591878
vt 0.510523 0.591653
vt 0.510789 0.615594
vt 0.500438 0.615787
vt 0.220152 0.366266
vt 0.231106 0.363331
vt 0.495305 0.255648
vt 0.481284 0.255648
vt 0.426711 0.296613
vt 0.429646 0.285658
vt 0.499063 0.567420
vt 0.510243 0.567186
vt 0.220152 0.332197
vt 0.231106 0.335133
vt 0.495305 0.297722
vt 0.481284 0.297722
vt 0.398513 0.296613
vt 0.395577 0.285658
vt 0.498046 0.541363
vt 0.510170 0.541115
vt 0.237186 0.302693
vt 0.245206 0.310712
vt 0.495305 0.339795
vt 0.481284 0.339795
vt 0.374092 0.310712
vt 0.366073 0.302692
vt 0.497209 0.512515
vt 0.510307 0.512419
vt 0.266691 0.285658
vt 0.269626 0.296613
vt 0.495305 0.381868
vt 0.481284 0.381868
vt 0.359993 0.335132
vt 0.349038 0.332197
vt 0.496851 0.481982
vt 0.510522 0.481979
vt 0.300759 0.285658
vt 0.297824 0.296613
vt 0.495305 0.423942
vt 0.481284 0.423942
vt 0.359992 0.363330
vt 0.349038 0.366265
vt 0.496891 0.450649
vt 0.510746 0.450677
vt 0.330264 0.302692
vt 0.322245 0.310712
vt 0.294166 0.430111
vt 0.315818 0.430111
vt 0.315818 0.435300
vt 0.294166 0.435300
vt 0.315818 0.440489
vt 0.294166 0.440489
vt 0.315818 0.445678
vt 0.294166 0.445678
vt 0.315818 0.450867
vt 0.294166 0.450867
vt 0.315818 0.456056
vt 0.294166 0.456056
vt 0.315818 0.461244
vt 0.294166 0.461244
vt 0.315818 0.466433
vt 0.294166 0.466433
vt 0.315818 0.471622
vt 0.294166 0.471622
vt 0.315818 0.476811
vt 0.294166 0.476811
vt 0.294166 0.414544
vt 0.315818 0.414544
vt 0.315818 0.419733
vt 0.294166 0.419733
vt 0.258226 0.482126
vt 0.253038 0.482126
vt 0.248544 0.479532
vt 0.245949 0.475038
vt 0.245950 0.469849
vt 0.248544 0.465355
vt 0.253038 0.462761
vt 0.258226 0.462761
vt 0.262720 0.465355
vt 0.265315 0.469849
vt 0.265314 0.475038
vt 0.262720 0.479532
vt 0.315818 0.424922
vt 0.294166 0.424922
vt 0.274142 0.462761
vt 0.279331 0.462761
vt 0.283825 0.465355
vt 0.286419 0.469849
vt 0.286419 0.475038
vt 0.283825 0.479532
vt 0.279331 0.482126
vt 0.274142 0.482126
vt 0.269648 0.479532
vt 0.267054 0.475038
vt 0.267054 0.469849
vt 0.269648 0.465355
vt 0.317557 0.434781
vt 0.331190 0.434781
vt 0.331190 0.441527
vt 0.317557 0.441527
vt 0.331190 0.448272
vt 0.317557 0.448272
vt 0.331190 0.455018
vt 0.317557 0.455018
vt 0.331190 0.461764
vt 0.317557 0.461764
vt 0.331190 0.468509
vt 0.317557 0.468509
vt 0.331190 0.475255
vt 0.317557 0.475255
vt 0.331190 0.482000
vt 0.317557 0.482000
vt 0.331190 0.488746
vt 0.317557 0.488746
vt 0.331190 0.495492
vt 0.317557 0.495492
vt 0.317557 0.414544
vt 0.331190 0.414544
vt 0.331190 0.421290
vt 0.317557 0.421290
vt 0.370975 0.441459
vt 0.377721 0.441459
vt 0.383563 0.444832
vt 0.386936 0.450674
vt 0.386935 0.457419
vt 0.383563 0.463261
vt 0.377721 0.466634
vt 0.370975 0.466634
vt 0.365133 0.463261
vt 0.361761 0.457419
vt 0.361761 0.450674
vt 0.365134 0.444832
vt 0.331190 0.428036
vt 0.317557 0.428036
vt 0.370975 0.414545
vt 0.377721 0.414544
vt 0.383563 0.417917
vt 0.386936 0.423759
vt 0.386936 0.430505
vt 0.383563 0.436347
vt 0.377721 0.439719
vt 0.370975 0.439719
vt 0.365133 0.436347
vt 0.361761 0.430505
vt 0.361761 0.423759
vt 0.365134 0.417917
vt 0.407178 0.421188
vt 0.407178 0.464750
vt 0.398796 0.464750
vt 0.398796 0.421188
vt 0.353727 0.465076
vt 0.349038 0.421767
vt 0.355072 0.424950
vt 0.360021 0.467930
vt 0.388675 0.465771
vt 0.388675 0.422507
vt 0.397057 0.422507
vt 0.397057 0.465772
vt 0.343913 0.421062
vt 0.338964 0.464043
vt 0.332930 0.467226
vt 0.337619 0.423917
vt 0.398796 0.414545
vt 0.407178 0.414544
vt 0.388675 0.414544
vt 0.397057 0.414544
vt 0.354850 0.474448
vt 0.349597 0.470280
vt 0.333489 0.418712
vt 0.338741 0.414544
vt 0.397057 0.474092
vt 0.388675 0.474092
vt 0.407178 0.473970
vt 0.398796 0.473970
vt 0.343913 0.470280
vt 0.338661 0.474448
vt 0.354769 0.414544
vt 0.360021 0.418712
s 1
usemtl metal_mp_6
f 47/59/14 48/60/14 37/61/14 38/62/14 39/63/14 40/64/14 41/65/14 42/66/14 43/67/14 44/68/14 45/69/14 46/70/14
f 47/71/15 59/72/15 60/73/16 48/74/16
f 37/75/17 49/76/17 50/77/18 38/78/18
f 44/79/19 56/80/19 57/81/20 45/82/20
f 41/83/21 53/84/21 54/85/22 42/86/22
f 48/74/16 60/73/16 49/76/17 37/75/17
f 38/78/18 50/77/18 51/87/23 39/88/23
f 45/82/20 57/81/20 58/89/24 46/90/24
f 42/86/22 54/85/22 55/91/25 43/92/25
f 39/88/23 51/87/23 52/93/26 40/94/26
f 46/90/24 58/89/24 59/72/15 47/71/15
f 43/95/25 55/96/25 56/80/19 44/79/19
f 40/94/26 52/93/26 53/84/21 41/83/21
f 61/97/18 63/98/18 64/99/18 62/100/18
f 63/98/26 65/101/26 66/102/26 64/99/26
f 65/101/22 67/103/22 68/104/22 66/102/22
f 67/105/19 69/106/19 70/107/19 68/108/19
f 64/109/14 66/110/14 68/111/14 70/112/14 72/113/14 62/114/14
f 69/106/24 71/115/24 72/116/24 70/107/24
f 71/115/16 61/97/16 62/100/16 72/116/16
f 61/117/27 71/118/27 69/119/27 67/120/27 65/121/27 63/122/27
f 80/123/21 81/124/25 76/125/25 77/126/21
f 83/127/15 84/128/17 73/129/17 74/130/15
f 82/131/20 83/127/15 74/130/15 75/132/20
f 84/128/17 79/133/23 78/134/23 73/129/17
f 81/135/25 82/131/20 75/132/20 76/136/25
f 92/137/28 96/138/29 93/139/30 89/140/31
f 91/141/27 92/142/27 88/143/27 87/144/27
f 94/145/32 95/146/33 91/147/34 90/148/35
f 93/149/14 94/150/14 90/151/14 89/152/14
f 96/138/29 100/153/36 97/154/37 93/139/30
f 95/155/27 96/156/27 92/142/27 91/141/27
f 98/157/38 99/158/39 95/146/33 94/145/32
f 97/159/14 98/160/14 94/150/14 93/149/14
f 100/153/36 104/161/40 101/162/41 97/154/37
f 99/163/27 100/164/27 96/156/27 95/155/27
f 102/165/42 103/166/43 99/158/39 98/157/38
f 101/167/14 102/168/14 98/160/14 97/159/14
f 104/161/40 108/169/44 105/170/45 101/162/41
f 103/171/27 104/172/27 100/164/27 99/163/27
f 106/173/46 107/174/47 103/166/43 102/165/42
f 105/175/14 106/176/14 102/168/14 101/167/14
f 108/169/44 112/177/48 109/178/49 105/170/45
f 107/179/27 108/180/27 104/172/27 103/171/27
f 110/181/50 111/182/51 107/174/47 106/173/46
f 109/183/14 110/184/14 106/176/14 105/175/14
f 112/185/48 116/186/34 113/187/35 109/188/49
f 111/189/27 112/190/27 108/180/27 107/179/27
f 114/191/52 115/192/53 111/193/51 110/194/50
f 113/195/14 114/196/14 110/184/14 109/183/14
f 116/186/34 120/197/54 117/198/32 113/187/35
f 115/199/27 116/200/27 112/190/27 111/189/27
f 118/201/30 119/202/29 115/192/53 114/191/52
f 117/203/14 118/204/14 114/196/14 113/195/14
f 120/197/54 124/205/55 121/206/56 117/198/32
f 119/207/27 120/208/27 116/200/27 115/199/27
f 122/209/57 123/210/58 119/202/29 118/201/30
f 121/211/14 122/212/14 118/204/14 117/203/14
f 124/205/55 128/213/59 125/214/60 121/206/56
f 123/215/27 124/216/27 120/208/27 119/207/27
f 126/217/61 127/218/40 123/210/58 122/209/57
f 125/219/14 126/220/14 122/212/14 121/211/14
f 128/213/59 132/221/62 129/222/63 125/214/60
f 127/223/27 128/224/27 124/216/27 123/215/27
f 130/225/64 131/226/65 127/218/40 126/217/61
f 129/227/14 130/228/14 126/220/14 125/219/14
f 132/221/62 88/229/66 85/230/50 129/222/63
f 131/231/27 132/232/27 128/224/27 127/223/27
f 86/233/49 87/234/48 131/226/65 130/225/64
f 85/235/14 86/236/14 130/228/14 129/227/14
f 87/144/27 88/143/27 132/232/27 131/231/27
f 133/237/26 134/238/26 136/239/23 135/240/23
f 135/240/23 136/239/23 138/241/18 137/242/18
f 137/242/18 138/241/18 140/243/17 139/244/17
f 139/244/17 140/243/17 142/245/16 141/246/16
f 141/246/16 142/245/16 144/247/15 143/248/15
f 143/248/15 144/247/15 146/249/24 145/250/24
f 145/250/24 146/249/24 148/251/20 147/252/20
f 147/252/20 148/251/20 150/253/19 149/254/19
f 149/254/19 150/253/19 152/255/25 151/256/25
f 151/257/25 152/258/25 154/259/22 153/260/22
f 136/261/14 134/262/14 156/263/14 154/264/14 152/265/14 150/266/14 148/267/14 146/268/14 144/269/14 142/270/14 140/271/14 138/272/14
f 153/260/22 154/259/22 156/273/21 155/274/21
f 155/274/21 156/273/21 134/238/26 133/237/26
f 133/275/27 135/276/27 137/277/27 139/278/27 141/279/27 143/280/27 145/281/27 147/282/27 149/283/27 151/284/27 153/285/27 155/286/27
f 157/287/26 158/288/26 160/289/23 159/290/23
f 159/290/23 160/289/23 162/291/18 161/292/18
f 161/292/18 162/291/18 164/293/17 163/294/17
f 163/294/17 164/293/17 166/295/16 165/296/16
f 165/296/16 166/295/16 168/297/15 167/298/15
f 167/298/15 168/297/15 170/299/24 169/300/24
f 169/300/24 170/299/24 172/301/20 171/302/20
f 171/302/20 172/301/20 174/303/19 173/304/19
f 173/304/19 174/303/19 176/305/25 175/306/25
f 175/307/25 176/308/25 178/309/22 177/310/22
f 160/311/14 158/312/14 180/313/14 178/314/14 176/315/14 174/316/14 172/317/14 170/318/14 168/319/14 166/320/14 164/321/14 162/322/14
f 177/310/22 178/309/22 180/323/21 179/324/21
f 179/324/21 180/323/21 158/288/26 157/287/26
f 157/325/27 159/326/27 161/327/27 163/328/27 165/329/27 167/330/27 169/331/27 171/332/27 173/333/27 175/334/27 177/335/27 179/336/27
f 89/152/14 90/151/14 86/236/14 85/235/14
f 181/337/67 182/338/67 184/339/67 183/340/67
f 183/341/26 184/342/26 188/343/26 187/344/26
f 187/345/68 188/346/68 186/347/68 185/348/68
f 185/349/24 186/350/24 182/351/24 181/352/24
f 181/337/14 183/340/14 190/353/14 189/354/14
f 186/347/27 188/346/27 196/355/27 195/356/27
f 183/341/26 187/344/26 192/357/26 190/358/26
f 185/349/24 181/352/24 189/359/24 191/360/24
f 187/345/27 185/348/27 191/361/27 192/362/27
f 184/339/14 182/338/14 193/363/14 194/364/14
f 182/351/24 186/350/24 195/365/24 193/366/24
f 188/343/26 184/342/26 194/367/26 196/368/26
f 197/337/69 198/338/69 200/339/69 199/340/69
f 199/341/16 200/342/16 204/343/16 203/344/16
f 203/345/70 204/346/70 202/347/70 201/348/70
f 201/349/22 202/350/22 198/351/22 197/352/22
f 197/337/14 199/340/14 206/353/14 205/354/14
f 202/347/27 204/346/27 212/355/27 211/356/27
f 199/341/16 203/344/16 208/357/16 206/358/16
f 201/349/22 197/352/22 205/359/22 207/360/22
f 203/345/27 201/348/27 207/361/27 208/362/27
f 200/339/14 198/338/14 209/363/14 210/364/14
f 198/351/22 202/350/22 211/365/22 209/366/22
f 204/343/16 200/342/16 210/367/16 212/368/16
f 213/337/71 214/338/71 216/339/71 215/340/71
f 215/341/19 216/342/19 220/343/19 219/344/19
f 219/345/72 220/346/72 218/347/72 217/348/72
f 217/349/18 218/350/18 214/351/18 213/352/18
f 213/337/14 215/340/14 222/353/14 221/354/14
f 218/347/27 220/346/27 228/355/27 227/356/27
f 215/341/19 219/344/19 224/357/19 222/358/19
f 217/349/18 213/352/18 221/359/18 223/360/18
f 219/345/27 217/348/27 223/361/27 224/362/27
f 216/339/14 214/338/14 225/363/14 226/364/14
f 214/351/18 218/350/18 227/365/18 225/366/18
f 220/343/19 216/342/19 226/367/19 228/368/19
f 78/134/23 79/133/23 80/123/21 77/126/21
f 88/229/66 92/137/28 89/140/31 85/230/50
f 90/148/35 91/147/34 87/234/48 86/233/49
