# Blender 5.0.1
# www.blender.org
mtllib side_doorway_3.mtl
o side_doorway_3
v 2.000000 0.000000 0.060000
v 2.000000 3.000000 0.060000
v 2.000000 0.000000 -0.060000
v 2.000000 3.000000 -0.060000
v 2.030000 0.000000 0.030000
v 2.030000 3.000000 0.030000
v 2.030000 0.000000 -0.030000
v 2.030000 3.000000 -0.030000
v -2.000000 0.000000 -0.060000
v -2.000000 3.000000 -0.060000
v -2.000000 0.000000 0.060001
v -2.000000 3.000000 0.060000
v -2.030000 0.000000 -0.030000
v -2.030000 3.000000 -0.030000
v -2.030000 0.000000 0.030001
v -2.030000 3.000000 0.030000
v 1.580000 0.000000 -0.060000
v 1.580000 0.000000 0.060000
v 1.580000 2.180000 0.060000
v 1.580000 2.180000 -0.060000
v 0.420000 2.180000 0.060000
v 0.420000 2.180000 -0.060000
v 0.420000 0.000000 -0.060000
v 0.420000 0.000000 0.060000
v 0.420000 0.160000 -0.060000
v 0.420000 0.160000 0.060000
v 0.420001 2.180000 -0.100000
v 0.420001 2.180000 0.100000
v 1.500000 2.099999 -0.080000
v 1.500000 2.099999 0.080000
v 1.580000 2.180000 -0.100000
v 1.580000 2.180000 0.100000
v 0.499999 2.100000 -0.080000
v 0.500000 2.099999 0.080000
v 1.500000 0.000000 -0.080000
v 1.500000 -0.000000 0.080000
v 0.500000 0.000000 -0.080000
v 0.500000 -0.000000 0.080000
v 1.580000 0.000000 -0.100000
v 1.580000 -0.000000 0.100000
v 0.420000 0.000000 -0.100000
v 0.420000 -0.000000 0.100000
v 1.540000 2.140000 -0.100000
v 1.520000 2.120000 -0.080000
v 0.460000 2.140000 -0.100000
v 0.480000 2.119999 -0.080000
v 1.540000 0.000000 -0.100000
v 1.520000 0.000000 -0.080000
v 0.460000 0.000000 -0.100000
v 0.480000 0.000000 -0.080000
v 0.480000 2.120000 0.080000
v 0.460000 2.140000 0.100000
v 1.540000 2.140000 0.100000
v 1.520000 2.119999 0.080000
v 1.540000 -0.000000 0.100000
v 1.520000 -0.000000 0.080000
v 0.480000 -0.000000 0.080000
v 0.460000 -0.000000 0.100000
vn -0.0000 -0.0000 -1.0000
vn 0.7071 -0.0000 -0.7071
vn 0.7071 -0.0000 0.7071
vn -0.7071 -0.0000 0.7071
vn -0.7071 -0.0000 -0.7071
vn -0.0000 -0.0000 1.0000
vn -0.0000 1.0000 -0.0000
vn -1.0000 -0.0000 -0.0000
vn 1.0000 -0.0000 -0.0000
vn -0.0000 -1.0000 -0.0000
vn -0.0000 -0.7071 -0.7071
vn -0.0000 -0.7071 0.7071
vt 0.007452 1.000008
vt 0.603435 0.733613
vt 0.603435 0.002990
vt 0.007452 0.000002
vt 0.992548 0.000002
vt 0.992548 1.000008
vt 0.999936 1.000008
vt 0.999936 0.000002
vt 0.000064 1.000008
vt 0.000064 0.000002
vt 0.889113 0.728428
vt 0.889113 0.000002
vt 0.603435 0.002990
vt 0.603435 0.733613
vt 0.889113 0.000002
vt 1.250000 0.560814
vt 1.250000 0.698428
vt 0.451836 0.698428
vt 0.451836 0.560814
vt -0.250000 0.203015
vt 1.250000 0.203015
vt 1.250000 0.340630
vt -0.250000 0.340630
vt -0.222476 0.792398
vt 1.250000 0.792398
vt 1.250000 0.819921
vt -0.249999 0.819921
vt 1.250000 0.065401
vt -0.250000 0.203015
vt -0.250000 0.065401
vt -0.194954 0.560814
vt -0.194954 0.450722
vt 1.250000 0.450722
vt 1.250000 0.560814
vt 1.250000 0.866905
vt 1.250000 0.880667
vt -0.194953 0.880667
vt -0.208715 0.866906
vt 0.479359 1.084728
vt 1.222478 1.084728
vt 1.250000 1.112251
vt 0.451836 1.112251
vt -0.194954 0.450722
vt -0.194954 0.340630
vt 1.250000 0.340630
vt 0.493120 1.159236
vt 1.208717 1.159235
vt 1.194956 1.172997
vt 0.506882 1.172997
vt -0.250000 0.927652
vt 1.208716 0.927652
vt 1.194954 0.941413
vt -0.250000 0.941413
vt 1.250000 0.745413
vt 1.250000 0.759175
vt -0.194954 0.759175
vt -0.208715 0.745413
vt 1.250000 1.051505
vt 0.561926 1.051505
vt 0.561926 0.941413
vt 1.250000 0.941413
vt 1.250000 0.698429
vt 1.250000 0.725952
vt -0.222477 0.725952
vt -0.250000 0.698429
vt -0.250000 0.880667
vt 1.250000 0.880668
vt 1.222477 0.908190
vt -0.250000 0.908190
vt 0.506882 1.051505
vt 1.194956 1.051505
vt 1.208717 1.065266
vt 0.493120 1.065267
vt 0.451836 1.112251
vt 1.222478 1.139774
vt 0.479359 1.139774
vt 1.250000 0.847444
vt -0.222477 0.847444
vt -0.250000 0.819922
vt -0.194954 0.759175
vt 1.250000 0.759175
vt 1.250000 0.772936
vt -0.208715 0.772936
s 0
usemtl wall_mp_1
f 2/6/3 1/5/3 5/8/3 6/7/3
f 11/4/4 12/1/4 16/9/4 15/10/4
f 2/6/6 19/11/6 18/12/6 1/5/6
f 11/4/6 24/13/6 21/14/6 12/1/6
f 12/1/6 21/14/6 19/11/6 2/6/6
usemtl wall_mp_1_rear
f 10/1/1 22/2/1 23/3/1 9/4/1
f 3/5/2 4/6/2 8/7/2 7/8/2
f 10/1/5 9/4/5 13/10/5 14/9/5
f 4/6/1 20/11/1 22/2/1 10/1/1
f 3/5/1 17/15/1 20/11/1 4/6/1
usemtl door_frame_wood_1
f 32/16/7 31/17/7 27/18/7 28/19/7
f 27/20/8 41/21/8 42/22/8 28/23/8
f 53/24/6 55/25/6 40/26/6 32/27/6
f 40/28/9 39/21/9 31/29/9 32/30/9
f 33/31/9 34/32/9 38/33/9 37/34/9
f 57/35/6 38/36/6 34/37/6 51/38/6
f 43/39/1 45/40/1 27/41/1 31/42/1
f 30/43/8 29/44/8 35/45/8 36/33/8
f 54/46/6 51/47/6 34/48/6 30/49/6
f 50/50/1 46/51/1 33/52/1 37/53/1
f 48/54/1 35/55/1 29/56/1 44/57/1
f 33/58/10 29/59/10 30/60/10 34/61/10
f 39/62/1 47/63/1 43/64/1 31/65/1
f 47/63/5 48/54/5 44/57/5 43/64/5
f 41/66/1 27/67/1 45/68/1 49/69/1
f 49/69/2 45/68/2 46/51/2 50/50/2
f 29/70/1 33/71/1 46/72/1 44/73/1
f 44/73/11 46/72/11 45/40/11 43/39/11
f 32/74/6 28/41/6 52/75/6 53/76/6
f 53/76/12 52/75/12 51/47/12 54/46/12
f 42/26/6 58/77/6 52/78/6 28/79/6
f 58/77/3 57/35/3 51/38/3 52/78/3
f 30/80/6 36/81/6 56/82/6 54/83/6
f 54/83/4 56/82/4 55/25/4 53/24/4
l 26 25
