# Blender 5.0.1
# www.blender.org
mtllib stairs_5_wood.mtl
o stairs_5_wood
v 0.999999 1.300000 -0.000000
v -1.000000 -0.200000 2.000000
v 1.000000 -0.200000 2.000000
v -1.000000 1.500000 -0.000000
v 1.000000 1.500000 -0.000000
v -1.000000 -0.000000 2.000000
v -1.000000 0.565602 1.644999
v -1.000000 0.600000 1.644999
v 1.000000 0.565602 1.644999
v -1.000000 0.265602 2.045001
v -1.000000 0.300000 2.045000
v 1.000000 0.300000 2.045000
v 1.000000 0.265602 2.045001
v -1.000000 1.465602 0.444999
v -1.000000 1.500000 0.445000
v 1.000000 1.500000 0.445000
v 1.000000 1.465602 0.444999
v -1.000000 1.165602 0.844999
v -1.000000 1.200000 0.844999
v 1.000000 1.200000 0.844999
v 1.000000 1.165602 0.844999
v -1.000000 0.865602 1.244999
v -1.000000 0.900000 1.244999
v 1.000000 0.900000 1.244999
v 1.000000 0.865602 1.244999
v -1.000000 0.600000 1.199999
v 1.000000 0.600000 1.199999
v -1.000000 0.300000 1.600000
v 1.000000 0.300000 1.600000
v -1.000000 1.200000 0.400000
v 1.000000 1.200000 0.399999
v -1.000000 0.900000 0.799999
v 1.000000 0.900000 0.799999
v 1.000000 -0.000000 2.000000
v 1.000000 0.600000 1.644999
v 0.999999 2.800000 -2.000000
v -1.000000 1.300000 0.000000
v -1.000000 2.800000 -2.000000
v -1.000000 3.000000 -2.000000
v -1.000000 2.065602 -0.355000
v -1.000000 2.100000 -0.355001
v 1.000000 2.065602 -0.355000
v -1.000000 1.765602 0.045000
v -1.000000 1.800000 0.045000
v 1.000000 1.800000 0.045000
v 1.000000 1.765602 0.045000
v -1.000000 2.965602 -1.555001
v -1.000000 3.000000 -1.555000
v 1.000000 3.000000 -1.555000
v 1.000000 2.965602 -1.555001
v -1.000000 2.665602 -1.155001
v -1.000000 2.700000 -1.155001
v 1.000000 2.700000 -1.155001
v 1.000000 2.665602 -1.155001
v -1.000000 2.365602 -0.755001
v -1.000000 2.400000 -0.755001
v 1.000000 2.400000 -0.755001
v 1.000000 2.365602 -0.755001
v -1.000000 2.100000 -0.800001
v 1.000000 2.100000 -0.800001
v -1.000000 1.800000 -0.400000
v 1.000000 1.800000 -0.400000
v -1.000000 2.700000 -1.600000
v 1.000000 2.700000 -1.600001
v -1.000000 2.400000 -1.200001
v 1.000000 2.400000 -1.200001
v 1.000000 2.100000 -0.355001
v 1.000000 3.000000 -2.000000
v 1.000000 1.765602 0.000000
v -1.000000 1.765602 0.000000
v -1.000000 2.065602 -0.400000
v 1.000000 2.065602 -0.400000
v -1.000000 0.865602 1.199998
v 1.000000 0.865602 1.199998
v -1.000000 0.565602 1.600001
v 1.000000 0.565602 1.600001
v -1.000000 1.465602 0.400000
v 1.000000 1.465602 0.400000
v -1.000000 1.165602 0.799999
v 1.000000 1.165602 0.799999
v 1.000000 0.265602 2.000000
v -1.000000 0.265602 2.000000
v -1.000000 2.365602 -0.800001
v 1.000000 2.365602 -0.800001
v -1.000000 2.965602 -1.600000
v 1.000000 2.965602 -1.600000
v -1.000000 2.665602 -1.200000
v 1.000000 2.665602 -1.200001
vn -0.0000 1.0000 -0.0000
vn -0.0000 -0.0000 1.0000
vn -1.0000 -0.0000 -0.0000
vn -0.0000 -1.0000 -0.0000
vn -0.0000 -0.8000 -0.6000
vn 1.0000 -0.0000 -0.0000
vn -0.0000 -0.0000 -1.0000
vt 0.889987 0.747219
vt 1.000000 0.747219
vt 1.000000 0.252781
vt 0.889988 0.252781
vt 0.367887 0.747219
vt 0.367887 0.252781
vt 0.376391 0.252781
vt 0.376391 0.747219
vt 0.376391 0.692212
vt 0.450556 0.593325
vt 0.475278 0.494438
vt 0.302225 0.791100
vt 0.593325 0.252781
vt 0.604450 0.252781
vt 0.604450 0.747219
vt 0.593325 0.747219
vt 0.889988 0.252781
vt 0.901112 0.252781
vt 0.901112 0.747219
vt 0.889988 0.747219
vt 0.442052 0.747219
vt 0.442052 0.252781
vt 0.450556 0.252781
vt 0.450556 0.747219
vt 0.219556 0.252781
vt 0.219556 0.747219
vt 0.153894 0.747219
vt 0.153894 0.252781
vt 0.791100 0.252781
vt 0.791100 0.747219
vt 0.901112 0.252781
vt 0.593325 0.747219
vt 0.703337 0.747219
vt 0.703337 0.252781
vt 0.593325 0.252781
vt 0.988875 0.747219
vt 0.494437 0.747219
vt 0.494438 0.252782
vt 0.988875 0.252781
vt 0.692212 0.252781
vt 0.703337 0.252781
vt 0.703337 0.747219
vt 0.692212 0.747219
vt 0.516218 0.747219
vt 0.516218 0.252781
vt 0.524722 0.252781
vt 0.524722 0.747219
vt 0.219556 0.747219
vt 0.228059 0.252781
vt 0.228059 0.747219
vt 0.791100 0.252781
vt 0.802225 0.252781
vt 0.802224 0.747219
vt 0.791100 0.747219
vt 0.692212 0.747219
vt 0.802225 0.747219
vt 0.802225 0.252781
vt 0.692212 0.252781
vt 0.302225 0.747219
vt 0.293721 0.747219
vt 0.293721 0.252781
vt 0.302225 0.252781
vt 0.516218 0.604450
vt 0.524722 0.604450
vt 0.524722 0.494437
vt 0.516218 0.593325
vt 0.623609 0.197776
vt 0.632113 0.197776
vt 0.632113 0.208901
vt 0.697775 0.208900
vt 0.623609 0.307788
vt 0.228059 1.000000
vt 0.228059 0.889987
vt 0.153894 0.988875
vt 0.219556 0.988875
vt 0.219556 1.000000
vt 0.524722 0.505563
vt 0.549444 0.406675
vt 0.450556 0.703337
vt 0.442052 0.692212
vt 0.442052 0.703337
vt 0.376391 0.802225
vt 0.367887 0.791100
vt 0.367887 0.802225
vt 0.104450 0.988875
vt 0.895550 0.011125
vt 0.771941 0.110013
vt 0.846106 0.011125
vt 0.771941 0.000000
vt 0.780445 0.000000
vt 0.780445 0.011125
vt 0.549444 0.296663
vt 0.557948 0.296663
vt 0.557948 0.307788
vt 0.697775 0.098888
vt 0.706279 0.098888
vt 0.706279 0.110012
vt 0.302225 0.901112
vt 0.293721 0.889988
vt 0.293721 0.901112
vt 0.494437 0.747219
vt 0.604450 0.747219
vt 0.604450 0.252781
vt 0.494437 0.252781
vt 0.104450 0.747219
vt 0.104450 0.252781
vt 0.395550 0.747219
vt 0.505562 0.747219
vt 0.505562 0.252781
vt 0.395550 0.252781
vt 0.738715 0.747219
vt 0.738715 0.252781
vt 0.747219 0.252781
vt 0.747219 0.747219
vt 0.747219 0.197775
vt 0.821384 0.098887
vt 0.846106 0.000000
vt 0.673053 0.296662
vt 0.098887 0.252781
vt 0.110012 0.252781
vt 0.110012 0.747219
vt 0.098887 0.747219
vt 0.395550 0.252781
vt 0.406675 0.252781
vt 0.406675 0.747219
vt 0.395550 0.747219
vt 0.812880 0.747219
vt 0.812881 0.252781
vt 0.821384 0.252781
vt 0.821384 0.747219
vt 0.590384 0.252781
vt 0.590384 0.747219
vt 0.296662 0.252781
vt 0.296662 0.747219
vt 0.406675 0.747219
vt 0.406675 0.252781
vt 0.098887 0.747219
vt 0.208900 0.747219
vt 0.208900 0.252781
vt 0.098887 0.252781
vt -0.000000 0.747219
vt 0.000000 0.252782
vt 0.197775 0.252781
vt 0.208900 0.252781
vt 0.208900 0.747219
vt 0.197775 0.747219
vt 0.475278 0.505563
vt 0.475278 0.395550
vt 0.483782 0.395550
vt 0.483782 0.406675
vt 0.887046 0.747219
vt 0.887046 0.252781
vt 0.895550 0.252781
vt 0.895550 0.747219
vt 0.598887 0.252781
vt 0.598887 0.747219
vt 0.296662 0.252781
vt 0.307787 0.252781
vt 0.307787 0.747219
vt 0.296662 0.747219
vt 0.197775 0.747219
vt 0.197775 0.252781
vt 0.673053 0.747219
vt 0.664549 0.747219
vt 0.664549 0.252781
vt 0.673053 0.252781
vt 0.887046 0.110012
vt 0.895550 0.110012
vt 0.895550 0.000000
vt 0.887046 0.098888
vt 0.252781 0.692213
vt 0.261285 0.692213
vt 0.261285 0.703338
vt 0.326947 0.703338
vt 0.252781 0.802225
vt 0.598887 0.505562
vt 0.598887 0.395550
vt 0.590384 0.494438
vt 0.590384 0.505562
vt 0.153894 1.000000
vt 0.178616 0.901113
vt 0.821384 0.208900
vt 0.812881 0.197775
vt 0.812881 0.208900
vt 0.747219 0.307787
vt 0.738715 0.296662
vt 0.738715 0.307787
vt 0.401113 0.604450
vt 0.401113 0.494438
vt 0.409616 0.494438
vt 0.409616 0.505563
vt 0.178616 0.791100
vt 0.187119 0.791100
vt 0.187119 0.802225
vt 0.326947 0.593325
vt 0.335451 0.593325
vt 0.335451 0.604450
vt 0.673053 0.406675
vt 0.664549 0.395550
vt 0.664549 0.406675
vt 0.110012 0.747219
vt 0.110012 0.252781
vt 0.000000 0.252781
vt 0.846106 0.252782
vt 0.846106 0.747219
vt 0.505562 0.252781
vt 0.505562 0.747219
vt 0.494438 0.252781
vt 0.104450 1.000000
vt 0.104450 0.889988
vt 0.112954 0.889988
vt 0.112954 0.901113
vt 0.673053 0.252781
vt 0.302225 0.252781
vt 1.000000 0.252781
vt 1.000000 0.747219
vt 0.988875 0.747219
vt 0.988875 0.252781
s 0
usemtl floor_1
f 28/1/1 11/2/1 12/3/1 29/4/1
f 22/5/2 25/6/2 24/7/2 23/8/2
f 32/9/3 30/10/3 37/11/3 26/12/3
f 78/13/4 17/14/4 14/15/4 77/16/4
f 76/17/4 9/18/4 7/19/4 75/20/4
f 18/21/2 21/22/2 20/23/2 19/24/2
f 81/25/2 82/26/2 6/27/2 34/28/2
f 27/29/1 26/30/1 8/19/1 35/31/1
f 30/32/1 19/33/1 20/34/1 31/35/1
f 2/36/5 37/37/5 1/38/5 3/39/5
f 80/40/4 21/41/4 18/42/4 79/43/4
f 14/44/2 17/45/2 16/46/2 15/47/2
f 10/48/2 13/25/2 12/49/2 11/50/2
f 74/51/4 25/52/4 22/53/4 73/54/4
f 32/55/1 23/56/1 24/57/1 33/58/1
f 8/59/2 7/60/2 9/61/2 35/62/2
f 14/63/3 15/64/3 4/65/3 37/11/3 30/10/3 77/66/3
f 24/67/6 25/68/6 74/69/6 27/70/6 33/71/6
f 11/72/3 28/73/3 6/74/3 82/75/3 10/76/3
f 1/77/6 31/78/6 33/71/6 27/70/6
f 19/79/3 30/10/3 32/9/3 79/80/3 18/81/3
f 23/82/3 32/9/3 26/12/3 73/83/3 22/84/3
f 2/85/3 28/73/3 26/12/3 37/11/3
f 3/86/6 29/87/6 34/88/6
f 29/87/6 3/86/6 1/77/6 27/70/6
f 28/73/3 2/85/3 6/74/3
f 29/87/6 12/89/6 13/90/6 81/91/6 34/88/6
f 20/92/6 21/93/6 80/94/6 33/71/6 31/78/6
f 35/95/6 9/96/6 76/97/6 29/87/6 27/70/6
f 8/98/3 26/12/3 28/73/3 75/99/3 7/100/3
f 4/101/1 15/102/1 16/103/1 5/104/1
f 34/28/2 6/27/2 2/105/2 3/106/2
f 61/107/1 44/108/1 45/109/1 62/110/1
f 55/111/2 58/112/2 57/113/2 56/114/2
f 65/115/3 63/116/3 38/117/3 59/118/3
f 86/119/4 50/120/4 47/121/4 85/122/4
f 72/123/4 42/124/4 40/125/4 71/126/4
f 51/127/2 54/128/2 53/129/2 52/130/2
f 69/131/2 70/132/2 4/47/2 5/46/2
f 60/133/1 59/134/1 41/135/1 67/136/1
f 63/137/1 52/138/1 53/139/1 64/140/1
f 37/37/5 38/141/5 36/142/5 1/38/5
f 88/143/4 54/144/4 51/145/4 87/146/4
f 31/78/6 1/77/6 5/147/6 16/148/6 17/149/6 78/150/6
f 47/151/2 50/152/2 49/153/2 48/154/2
f 43/132/2 46/131/2 45/155/2 44/156/2
f 84/157/4 58/158/4 55/159/4 83/160/4
f 65/161/1 56/159/1 57/158/1 66/162/1
f 41/163/2 40/164/2 42/165/2 67/166/2
f 47/167/3 48/168/3 39/169/3 38/117/3 63/116/3 85/170/3
f 57/171/6 58/172/6 84/173/6 60/174/6 66/175/6
f 44/176/3 61/177/3 4/65/3 70/178/3 43/179/3
f 36/180/6 64/181/6 66/175/6 60/174/6
f 52/182/3 63/116/3 65/115/3 87/183/3 51/184/3
f 56/185/3 65/115/3 59/118/3 83/186/3 55/187/3
f 37/11/3 61/177/3 59/118/3 38/117/3
f 1/77/6 62/188/6 5/147/6
f 62/188/6 1/77/6 36/180/6 60/174/6
f 61/177/3 37/11/3 4/65/3
f 62/188/6 45/189/6 46/190/6 69/191/6 5/147/6
f 53/192/6 54/193/6 88/194/6 66/175/6 64/181/6
f 67/195/6 42/196/6 72/197/6 62/188/6 60/174/6
f 41/198/3 59/118/3 61/177/3 71/199/3 40/200/3
f 39/141/1 48/201/1 49/202/1 68/203/1
f 68/153/7 36/204/7 38/205/7 39/154/7
f 46/206/4 43/207/4 70/37/4 69/208/4
f 62/155/2 72/165/2 71/164/2 61/156/2
f 64/181/6 36/180/6 68/209/6 49/210/6 50/211/6 86/212/6
f 60/213/2 84/112/2 83/111/2 59/163/2
f 66/113/2 88/128/2 87/127/2 65/114/2
f 64/129/2 86/152/2 85/151/2 63/130/2
f 27/214/2 74/6/2 73/5/2 26/59/2
f 33/7/2 80/22/2 79/21/2 32/8/2
f 13/215/4 10/216/4 82/217/4 81/218/4
f 29/49/2 76/61/2 75/60/2 28/50/2
f 31/23/2 78/45/2 77/44/2 30/24/2
