# Blender 5.0.1
# www.blender.org
mtllib stairs_4.mtl
o stairs_4
v -1.999999 1.300000 -2.000000
v -1.999999 1.500000 -2.000000
v 1.999999 1.300000 -0.000000
v 1.999999 1.300000 -2.000000
v 1.999999 1.500000 -2.000000
v -2.000001 -0.200000 2.000000
v 2.000000 -0.200000 2.000000
v -2.000001 1.300000 -0.000000
v -2.000001 1.500000 -0.000000
v 2.000000 1.500000 -0.000000
v -2.000001 -0.000000 2.000000
v -2.000001 0.565602 1.676582
v -2.000001 0.600000 1.644999
v 2.000000 0.565602 1.676582
v -2.000001 0.265602 2.076583
v -2.000001 0.300000 2.045000
v 2.000000 0.300000 2.045000
v 2.000000 0.265602 2.076583
v -2.000001 1.465602 0.476582
v -2.000001 1.500000 0.445000
v 2.000000 1.500000 0.445000
v 2.000000 1.465602 0.476582
v -2.000001 1.165602 0.876582
v -2.000001 1.200000 0.844999
v 2.000000 1.200000 0.844999
v 2.000000 1.165602 0.876582
v -2.000001 0.865602 1.276582
v -2.000001 0.900000 1.244999
v 2.000000 0.900000 1.244999
v 2.000000 0.865602 1.276582
v -2.000001 0.600000 1.199999
v 2.000000 0.600000 1.199999
v -2.000001 0.300000 1.600000
v 2.000000 0.300000 1.600000
v -2.000001 1.200000 0.400000
v 2.000000 1.200000 0.399999
v -2.000001 0.900000 0.799999
v 2.000000 0.900000 0.799999
v 2.000000 -0.000000 2.000000
v 2.000000 0.600000 1.644999
vn -0.0000 -0.0000 -1.0000
vn -0.0000 1.0000 -0.0000
vn -1.0000 -0.0000 -0.0000
vn 1.0000 -0.0000 -0.0000
vn -0.0000 0.6763 0.7366
vn -0.0000 -0.2770 0.9609
vn 0.0021 -0.2770 0.9609
vn 0.0022 -0.2770 0.9609
vn -0.0000 -0.8000 -0.6000
vn -0.0000 -0.2771 0.9609
vn -0.0000 -1.0000 -0.0000
vn -0.0000 -0.0000 1.0000
vt -0.166666 0.716667
vt -0.166666 0.783333
vt 1.166666 0.783333
vt 1.166666 0.716667
vt 1.166666 -0.179430
vt -0.166666 -0.179430
vt -0.166666 0.487236
vt 1.166666 0.487236
vt 0.716667 0.487236
vt 0.783333 0.487236
vt 0.783333 -0.179430
vt 0.716667 -0.179430
vt 0.783333 0.487236
vt -0.166667 1.020570
vt -0.166667 1.168903
vt 1.166666 1.168903
vt 1.166666 1.020570
vt -0.166667 0.571867
vt 1.166666 0.571867
vt 1.166666 0.583333
vt -0.166667 0.583333
vt 0.583333 0.753903
vt 0.683333 0.620569
vt 0.716667 0.487236
vt 0.483333 0.887236
vt 1.166666 0.683333
vt 1.166666 0.771867
vt -0.166666 0.771867
vt -0.166667 0.683333
vt 1.166666 0.383333
vt 1.166666 0.471867
vt -0.166667 0.471867
vt -0.166667 0.383333
vt -0.166667 0.671867
vt 1.166666 0.671867
vt -0.166667 0.683333
vt 1.166666 0.371867
vt -0.166667 0.371867
vt -0.166667 0.283333
vt 1.166666 0.283333
vt 1.166666 0.887236
vt -0.166667 0.887236
vt -0.166667 1.035569
vt 1.166667 1.035569
vt -0.166667 0.620569
vt -0.166667 0.768903
vt 1.166666 0.768903
vt 1.166666 0.620569
vt -0.166667 1.153903
vt -0.166667 0.487236
vt 1.166666 0.487236
vt 1.166666 1.153903
vt -0.166667 0.583333
vt 0.783333 0.635569
vt 1.166666 0.783333
vt -0.166667 0.783333
vt -0.166667 0.383333
vt 1.166666 0.483333
vt -0.166667 0.483333
vt -0.166667 0.753903
vt -0.166667 0.902236
vt 1.166666 0.902236
vt 1.166666 0.753903
vt -0.166667 0.483333
vt 1.166667 0.483333
vt 0.771867 0.646097
vt 0.683333 0.620569
vt 0.583333 0.902236
vt 0.571867 0.912763
vt 0.383333 1.168903
vt 0.383333 1.020570
vt 0.283333 1.153903
vt 0.371867 1.179430
vt 0.683333 0.768903
vt 0.671867 0.779430
vt 0.216667 1.153903
vt 0.283333 1.153903
vt 0.371867 1.179430
vt 0.483333 1.035569
vt 0.471867 1.046097
vt -0.166667 0.635569
vt 1.166666 0.635569
vt -0.166666 0.487236
vt -0.166667 0.216667
vt 1.166666 0.216667
s 0
usemtl concrete_4
f 1/1/1 2/2/1 5/3/1 4/4/1
f 5/5/2 2/6/2 9/7/2 10/8/2
f 8/9/3 9/10/3 2/11/3 1/12/3
f 4/12/4 5/11/4 10/13/4 3/9/4
f 33/14/2 16/15/2 17/16/2 34/17/2
f 27/18/5 30/19/5 29/20/5 28/21/5
f 37/22/3 35/23/3 8/24/3 31/25/3
f 36/26/6 22/27/6 19/28/6 35/29/6
f 34/30/7 14/31/8 12/32/7 33/33/7
f 23/34/5 26/35/5 25/26/5 24/36/5
f 18/37/6 15/38/6 11/39/6 39/40/6
f 32/41/2 31/42/2 13/43/2 40/44/2
f 35/45/2 24/46/2 25/47/2 36/48/2
f 6/49/9 8/50/9 3/51/9 7/52/9
f 38/20/10 26/35/10 23/34/10 37/53/10
f 8/24/3 35/23/3 20/54/3 9/13/3
f 19/28/5 22/27/5 21/55/5 20/56/5
f 15/38/5 18/37/5 17/30/5 16/57/5
f 32/58/6 30/19/6 27/18/6 31/59/6
f 37/60/2 28/61/2 29/62/2 38/63/2
f 13/64/5 12/32/5 14/31/5 40/65/5
f 21/54/4 22/66/4 36/67/4
f 29/68/4 30/69/4 32/25/4 38/22/4
f 16/70/3 33/71/3 11/72/3 15/73/3
f 3/9/4 36/67/4 38/22/4 32/25/4
f 24/74/3 35/23/3 37/22/3 23/75/3
f 28/68/3 37/22/3 31/25/3 27/69/3
f 6/76/3 33/71/3 31/25/3 8/24/3
f 7/76/4 34/71/4 39/77/4
f 19/66/3 20/54/3 35/23/3
f 21/54/4 36/67/4 3/9/4 10/13/4
f 34/71/4 7/76/4 3/9/4 32/25/4
f 33/71/3 6/76/3 11/72/3
f 34/71/4 17/70/4 18/78/4 39/77/4
f 25/74/4 26/75/4 38/22/4 36/67/4
f 40/79/4 14/80/4 34/71/4 32/25/4
f 13/79/3 31/25/3 33/71/3 12/80/3
f 9/50/2 20/81/2 21/82/2 10/8/2
f 4/5/11 3/51/11 8/83/11 1/6/11
f 39/40/12 11/39/12 6/84/12 7/85/12
