# Blender 5.0.1
# www.blender.org
mtllib toilet_cabin_mp_1.mtl
o toilet_cabin_mp_1
v -0.040000 -0.040000 0.040000
v -0.040000 2.340000 0.040000
v -0.040000 -0.040000 -0.040000
v -0.040000 2.340000 -0.040000
v 0.040000 -0.040000 0.040000
v 0.040000 2.340000 0.040000
v -0.020000 0.160000 -1.500000
v 0.020000 0.160000 -0.020000
v 0.020000 0.160000 -1.500000
v -0.020000 0.160000 0.020000
v 0.320000 0.160000 -0.020000
v 0.320000 2.060000 -0.020000
v 0.320000 0.160000 0.020000
v 0.320000 2.060000 0.020000
v 1.170000 0.160000 -0.020000
v 1.170000 2.060000 -0.020000
v 1.170000 0.160000 0.020000
v 1.170000 2.060000 0.020000
v 1.480000 0.160000 -0.020000
v 1.480000 0.160000 0.020000
v 1.480000 2.300000 -0.020000
v 1.480000 2.300000 0.020000
v -0.020000 2.300000 -1.500000
v 0.020000 2.300000 -0.020000
v 0.020000 2.300000 -1.500000
v -0.020001 2.300000 0.020000
v 0.000000 -0.040000 -0.040000
v 0.040000 -0.040000 0.000000
v 0.040000 2.340000 0.000000
v 0.000000 2.340000 -0.040000
v 1.184346 1.936667 0.024343
v 1.184346 2.003334 0.024343
v 1.195660 1.936667 0.024343
v 1.195660 2.003334 0.024343
v 1.184346 1.936667 0.020000
v 1.184346 2.003334 0.020000
v 1.195660 1.936667 0.020000
v 1.195660 2.003334 0.020000
v 1.184346 0.226667 0.024343
v 1.184346 0.293334 0.024343
v 1.195660 0.226667 0.024343
v 1.195660 0.293334 0.024343
v 1.184346 0.226667 0.020000
v 1.184346 0.293334 0.020000
v 1.195660 0.226667 0.020000
v 1.195660 0.293334 0.020000
v 1.184346 1.076667 0.024343
v 1.184346 1.143334 0.024343
v 1.195660 1.076667 0.024343
v 1.195660 1.143334 0.024343
v 1.184346 1.076667 0.020000
v 1.184346 1.143334 0.020000
v 1.195660 1.076667 0.020000
v 1.195660 1.143334 0.020000
vn -1.0000 -0.0000 -0.0000
vn 1.0000 -0.0000 -0.0000
vn -0.0000 1.0000 -0.0000
vn -0.0000 -0.0000 1.0000
vn -0.0000 -0.0000 -1.0000
vn -0.0000 -1.0000 -0.0000
vn 0.7071 -0.0000 -0.7071
vt 0.540097 0.000000
vt 0.540097 1.000000
vt 0.573710 1.000000
vt 0.573710 0.000000
vt 0.595145 0.000000
vt 0.595145 1.000000
vt 0.578338 1.000000
vt 0.578338 0.000000
vt 0.616154 0.193277
vt 0.599347 0.210084
vt 0.582540 0.210084
vt 0.582540 0.176471
vt 0.616154 0.176471
vt 0.616154 0.000000
vt 0.616154 1.000000
vt 0.582540 1.000000
vt 0.582540 0.000000
vt 0.599347 1.000000
vt 0.599347 0.000000
vt 0.144860 0.000000
vt 0.144860 1.000000
vt 0.163552 1.000000
vt 0.163552 0.000000
vt 0.850467 0.000000
vt 0.850467 1.000000
vt 0.158879 1.000000
vt 0.158879 0.000000
vt 0.140187 0.000000
vt 0.140187 1.000000
vt 0.163552 0.130841
vt 0.303738 0.130841
vt 0.303738 0.112150
vt 0.144860 0.112150
vt 0.303738 0.887850
vt 0.303738 0.000000
vt 0.859813 0.457944
vt 0.859813 0.476635
vt 0.149533 0.476636
vt 0.168224 0.457944
vt 0.700935 0.887850
vt 0.845794 1.000000
vt 0.845794 0.000000
vt 0.700935 0.000000
vt 0.700935 0.112150
vt 0.700935 0.130841
vt 0.845794 0.130841
vt 0.845794 0.112150
vt 0.140187 0.887850
vt 0.158879 0.887850
vt 0.144860 0.112150
vt 0.144860 1.000000
vt 0.149533 0.476635
vt 0.611952 0.000000
vt 0.611952 1.000000
vt 1.683594 1.361328
vt 1.656250 1.361328
vt 1.656250 1.359375
vt 1.683594 1.359375
vt 1.216012 1.361849
vt 1.211486 1.361849
vt 1.211486 1.360112
vt 1.216012 1.360112
vt 1.216012 1.361849
vt 1.211486 2.149446
vt 1.211486 2.122779
vt 1.216012 2.122779
vt 1.216012 2.149446
s 0
usemtl panel_mp_1
f 1/1/1 2/2/1 4/3/1 3/4/1
f 28/5/2 29/6/2 6/7/2 5/8/2
f 29/9/3 30/10/3 4/11/3 2/12/3 6/13/3
f 5/14/4 6/15/4 2/16/4 1/17/4
f 3/17/5 4/16/5 30/18/5 27/19/5
f 7/20/5 23/21/5 25/22/5 9/23/5
f 9/24/2 25/25/2 24/26/2 8/27/2
f 10/28/1 26/29/1 23/25/1 7/24/1
f 8/30/6 11/31/6 13/32/6 10/33/6
f 8/23/5 24/22/5 12/34/5 11/35/5
f 25/36/3 23/37/3 26/38/3 24/39/3
f 16/40/5 21/41/5 19/42/5 15/43/5
f 20/42/4 22/41/4 18/40/4 17/43/4
f 17/44/6 15/45/6 19/46/6 20/47/6
f 15/27/1 17/28/1 18/48/1 16/49/1
f 26/50/3 22/47/3 21/46/3 24/30/3
f 14/32/6 12/31/6 16/45/6 18/44/6
f 14/34/4 26/51/4 10/20/4 13/35/4
f 24/22/5 21/41/5 16/40/5 12/34/5
f 11/27/2 12/49/2 14/48/2 13/28/2
f 8/39/6 10/52/6 7/37/6 9/36/6
f 18/40/4 22/41/4 26/51/4 14/34/4
f 19/27/2 21/26/2 22/29/2 20/28/2
f 29/6/7 28/5/7 27/53/7 30/54/7
f 3/11/6 27/10/6 28/9/6 5/13/6 1/12/6
usemtl metal_mp_4
f 34/55/2 33/56/2 37/57/2 38/58/2
f 33/59/6 31/60/6 35/61/6 37/62/6
f 31/56/1 32/55/1 36/58/1 35/57/1
f 34/63/3 38/62/3 36/61/3 32/60/3
f 32/64/4 31/65/4 33/66/4 34/67/4
f 42/55/2 41/56/2 45/57/2 46/58/2
f 41/59/6 39/60/6 43/61/6 45/62/6
f 39/56/1 40/55/1 44/58/1 43/57/1
f 42/63/3 46/62/3 44/61/3 40/60/3
f 40/64/4 39/65/4 41/66/4 42/67/4
f 50/55/2 49/56/2 53/57/2 54/58/2
f 49/59/6 47/60/6 51/61/6 53/62/6
f 47/56/1 48/55/1 52/58/1 51/57/1
f 50/63/3 54/62/3 52/61/3 48/60/3
f 48/64/4 47/65/4 49/66/4 50/67/4
o toilet_cabin_mp_1_door
v -0.759996 0.100000 -0.010000
v -0.759996 1.790000 -0.010000
v -0.859996 -0.000000 -0.040000
v -0.129996 0.100000 -0.010000
v -0.129996 1.790000 -0.010000
v -0.029997 1.890000 -0.040000
v -0.029997 -0.000000 -0.040000
v -0.759998 1.790000 -0.040000
v -0.759998 0.100000 -0.040000
v -0.129998 1.790000 -0.040000
v -0.859997 -0.000000 -0.010000
v -0.859997 1.890000 -0.010000
v -0.859997 1.890000 -0.040000
v -0.129998 0.100000 -0.040000
v -0.029999 1.890000 -0.010000
v -0.029999 -0.000000 -0.010000
v -0.759998 0.899999 -0.010000
v -0.759998 1.000000 -0.010000
v -0.129997 1.000000 -0.010000
v -0.129997 0.899999 -0.010000
v -0.759998 1.000000 -0.020000
v -0.759996 1.790000 -0.020000
v -0.129997 0.899999 -0.020000
v -0.129996 0.100000 -0.020000
v -0.759996 0.100000 -0.020000
v -0.129996 1.790000 -0.020000
v -0.759998 0.899999 -0.020000
v -0.129997 1.000000 -0.020000
v -0.129996 0.899999 -0.040000
v -0.129996 1.000000 -0.040000
v -0.759997 1.000000 -0.040000
v -0.759997 0.899999 -0.040000
v -0.129996 1.000000 -0.030000
v -0.129998 1.790000 -0.030000
v -0.759997 0.899999 -0.030000
v -0.759998 0.100000 -0.030000
v -0.129998 0.100000 -0.030000
v -0.759998 1.790000 -0.030000
v -0.129996 0.899999 -0.030000
v -0.759997 1.000000 -0.030000
v -0.879996 -0.000000 0.000000
v -0.879996 -0.000000 -0.010000
v -0.849996 -0.000000 0.000000
v -0.849996 1.880000 0.000000
v -0.849996 -0.000000 -0.010000
v -0.849996 1.880000 -0.010000
v -0.879996 1.910000 0.000000
v -0.879996 1.910000 -0.010000
v -0.039996 1.880000 0.000000
v -0.039996 1.880000 -0.010000
v -0.009996 1.910000 0.000000
v -0.009996 1.910000 -0.010000
v -0.039996 0.000000 0.000000
v -0.039996 0.000000 -0.010000
v -0.009996 0.000000 0.000000
v -0.009996 0.000000 -0.010000
v -0.005653 1.770000 0.005657
v -0.007996 1.850000 0.000000
v -0.005653 1.850000 0.005657
v -0.007996 1.770000 0.000000
v -0.005653 1.770000 -0.005657
v 0.000004 1.850000 -0.008000
v -0.005653 1.850000 -0.005657
v 0.000004 1.770000 0.008000
v 0.005661 1.770000 0.005657
v 0.000004 1.850000 0.008000
v 0.008004 1.850000 0.000000
v 0.005661 1.850000 0.005657
v 0.000004 1.770000 -0.008000
v 0.008004 1.770000 0.000000
v 0.005661 1.770000 -0.005657
v 0.005661 1.850000 -0.005657
v -0.027998 1.770000 0.005657
v -0.033996 1.850000 0.000000
v -0.027998 1.850000 0.005657
v -0.033996 1.770000 0.000000
v -0.005653 0.060000 0.005657
v -0.007996 0.140000 -0.000000
v -0.005653 0.140000 0.005657
v -0.007996 0.060000 -0.000000
v -0.005653 0.060000 -0.005657
v 0.000004 0.140000 -0.008000
v -0.005653 0.140000 -0.005657
v 0.000004 0.060000 0.008000
v 0.005661 0.060000 0.005657
v 0.000004 0.140000 0.008000
v 0.008004 0.140000 -0.000000
v 0.005661 0.140000 0.005657
v 0.000004 0.060000 -0.008000
v 0.008004 0.060000 -0.000000
v 0.005661 0.060000 -0.005657
v 0.005661 0.140000 -0.005657
v -0.027998 0.060000 0.005657
v -0.033996 0.140000 -0.000000
v -0.027998 0.140000 0.005657
v -0.033996 0.060000 -0.000000
v -0.005653 0.910000 0.005657
v -0.007996 0.990000 0.000000
v -0.005653 0.990000 0.005657
v -0.007996 0.910000 0.000000
v -0.005653 0.910000 -0.005657
v 0.000004 0.990000 -0.008000
v -0.005653 0.990000 -0.005657
v 0.000004 0.910000 0.008000
v 0.005661 0.910000 0.005657
v 0.000004 0.990000 0.008000
v 0.008004 0.990000 0.000000
v 0.005661 0.990000 0.005657
v 0.000004 0.910000 -0.008000
v 0.008004 0.910000 0.000000
v 0.005661 0.910000 -0.005657
v 0.005661 0.990000 -0.005657
v -0.027998 0.910000 0.005657
v -0.033996 0.990000 0.000000
v -0.027998 0.990000 0.005657
v -0.033996 0.910000 0.000000
v -0.769994 1.070000 -0.040000
v -0.769994 1.100000 -0.040000
v -0.849995 1.100000 -0.040000
v -0.849995 1.070000 -0.040000
v -0.769994 1.070000 -0.045000
v -0.769994 1.100000 -0.045000
v -0.849995 1.100000 -0.045000
v -0.849995 1.070000 -0.045000
v -0.849995 1.092000 -0.045000
v -0.769994 1.092000 -0.045000
v -0.769994 1.080000 -0.045000
v -0.769994 1.089999 -0.045000
v -0.849999 1.089999 -0.045000
v -0.849999 1.080000 -0.045000
v -0.849995 1.092000 -0.045000
v -0.849995 1.078000 -0.045000
v -0.769994 1.078000 -0.045000
v -0.769994 1.092000 -0.045000
v -0.769994 1.080000 -0.045000
v -0.769994 1.090000 -0.045000
v -0.849999 1.080000 -0.055000
v -0.769994 1.090000 -0.055000
v -0.849999 1.090000 -0.055000
v -0.849999 1.090000 -0.045000
v -0.849999 1.080000 -0.045000
v -0.769994 1.080000 -0.055000
v -0.769994 1.087500 -0.055000
v -0.849998 1.078000 -0.057000
v -0.769996 1.078000 -0.057000
v -0.849998 1.092000 -0.057000
v -0.769996 1.092000 -0.057000
v -0.784662 1.082500 -0.055000
v -0.784662 1.087500 -0.055000
v -0.836331 1.087500 -0.055000
v -0.784661 1.087500 -0.057000
v -0.836328 1.087500 -0.057000
v -0.836328 1.082500 -0.057000
v -0.836331 1.082500 -0.055000
v -0.769994 1.082500 -0.055000
v -0.784661 1.082500 -0.057000
v -0.796755 1.001800 0.010431
v -0.794733 0.975900 0.021146
v -0.798311 1.019626 -0.005140
v -0.814946 1.001800 0.010431
v -0.816775 0.975900 0.021146
v -0.813388 1.019621 -0.005140
v -0.796755 0.898205 0.010434
v -0.794733 0.924105 0.021148
v -0.798312 0.880379 -0.005138
v -0.814946 0.898205 0.010434
v -0.816775 0.924105 0.021148
v -0.813389 0.880378 -0.005138
v -0.796755 1.001800 0.005574
v -0.794733 0.975900 0.016288
v -0.798311 1.019626 -0.009997
v -0.814946 1.001800 0.005574
v -0.816775 0.975900 0.016288
v -0.813388 1.019621 -0.009997
v -0.796755 0.898205 0.005577
v -0.794733 0.924105 0.016291
v -0.798312 0.880379 -0.009995
v -0.814946 0.898205 0.005577
v -0.816775 0.924105 0.016291
v -0.813389 0.880378 -0.009995
v -0.805847 1.001800 0.017574
v -0.805750 0.975900 0.028288
v -0.805847 1.019624 -0.005140
v -0.805851 0.898205 0.017577
v -0.805754 0.924105 0.028291
v -0.805850 0.880378 -0.005138
v -0.800596 1.038197 -0.005140
v -0.811102 1.038193 -0.005140
v -0.800596 1.038197 -0.009997
v -0.811102 1.038193 -0.009997
v -0.811103 0.861807 -0.005138
v -0.811103 0.861807 -0.009995
v -0.815959 1.029621 -0.005140
v -0.805847 1.029624 -0.005140
v -0.795739 1.029626 -0.005140
v -0.815959 1.029621 -0.009997
v -0.795739 1.029626 -0.009997
v -0.815960 0.870378 -0.005138
v -0.815960 0.870378 -0.009995
v -0.805850 0.870378 -0.005138
v -0.805849 1.039624 -0.005140
v -0.805850 0.860378 -0.009995
v -0.805850 0.860378 -0.005138
v -0.800905 0.870506 -0.005365
v -0.801872 0.870507 -0.002026
v -0.803324 0.866316 -0.005365
v -0.803808 0.867155 -0.002026
v -0.808162 0.866316 -0.005365
v -0.807678 0.867155 -0.002026
v -0.810582 0.870506 -0.005365
v -0.809614 0.870507 -0.002026
v -0.808162 0.874696 -0.005365
v -0.807678 0.873859 -0.002026
v -0.803324 0.874696 -0.005365
v -0.803808 0.873859 -0.002026
v -0.788905 1.036506 -0.005365
v -0.789872 1.036507 -0.002026
v -0.791324 1.032316 -0.005365
v -0.791808 1.033155 -0.002026
v -0.796162 1.032316 -0.005365
v -0.795678 1.033155 -0.002026
v -0.798582 1.036506 -0.005365
v -0.797614 1.036507 -0.002026
v -0.796162 1.040696 -0.005365
v -0.795678 1.039859 -0.002026
v -0.791324 1.040696 -0.005365
v -0.791808 1.039859 -0.002026
v -0.805849 1.039624 -0.009999
v -0.819802 1.043123 -0.005140
v -0.819802 1.043123 -0.009997
v -0.824659 1.034551 -0.005140
v -0.824659 1.034551 -0.009997
v -0.791896 1.043128 -0.005140
v -0.791896 1.043128 -0.009997
v -0.787039 1.034556 -0.009997
v -0.787039 1.034556 -0.005140
v -0.813973 1.043268 -0.005140
v -0.821788 1.029476 -0.005140
v -0.821788 1.029476 -0.009997
v -0.813973 1.043268 -0.009997
v -0.797725 1.043273 -0.009997
v -0.789910 1.029481 -0.009997
v -0.789910 1.029481 -0.005140
v -0.797725 1.043273 -0.005140
v -0.800598 0.861807 -0.009995
v -0.795740 0.870379 -0.005138
v -0.800598 0.861807 -0.005138
v -0.795740 0.870379 -0.009995
v -0.791897 0.856877 -0.009995
v -0.791897 0.856877 -0.005138
v -0.787040 0.865448 -0.009995
v -0.787040 0.865448 -0.005138
v -0.819803 0.856876 -0.009995
v -0.819803 0.856876 -0.005138
v -0.824661 0.865448 -0.005138
v -0.824661 0.865448 -0.009995
v -0.789911 0.870524 -0.009995
v -0.797727 0.856732 -0.009995
v -0.797727 0.856732 -0.005138
v -0.789911 0.870524 -0.005138
v -0.813974 0.856732 -0.005138
v -0.813974 0.856732 -0.009995
v -0.821790 0.870523 -0.005138
v -0.821790 0.870523 -0.009995
v -0.803808 1.032859 -0.002026
v -0.803324 1.033696 -0.005365
v -0.807678 1.032859 -0.002026
v -0.808162 1.033696 -0.005365
v -0.809614 1.029507 -0.002026
v -0.810582 1.029506 -0.005365
v -0.807678 1.026155 -0.002026
v -0.808162 1.025316 -0.005365
v -0.803808 1.026155 -0.002026
v -0.803324 1.025316 -0.005365
v -0.801872 1.029507 -0.002026
v -0.800905 1.029506 -0.005365
v -0.788905 0.863507 -0.005365
v -0.789872 0.863507 -0.002026
v -0.791324 0.859316 -0.005365
v -0.791807 0.860155 -0.002026
v -0.796162 0.859316 -0.005365
v -0.795678 0.860155 -0.002026
v -0.798581 0.863507 -0.005365
v -0.797614 0.863507 -0.002026
v -0.796162 0.867697 -0.005365
v -0.795678 0.866859 -0.002026
v -0.791324 0.867697 -0.005365
v -0.791807 0.866859 -0.002026
v -0.812905 0.863506 -0.005365
v -0.813872 0.863506 -0.002026
v -0.815324 0.859316 -0.005365
v -0.815808 0.860154 -0.002026
v -0.820162 0.859316 -0.005365
v -0.819678 0.860154 -0.002026
v -0.822582 0.863506 -0.005365
v -0.821614 0.863506 -0.002026
v -0.820162 0.867696 -0.005365
v -0.819678 0.866858 -0.002026
v -0.815324 0.867696 -0.005365
v -0.815808 0.866858 -0.002026
v -0.812905 1.036506 -0.005365
v -0.813872 1.036507 -0.002026
v -0.815324 1.032316 -0.005365
v -0.815808 1.033155 -0.002026
v -0.820162 1.032316 -0.005365
v -0.819678 1.033155 -0.002026
v -0.822582 1.036506 -0.005365
v -0.821614 1.036507 -0.002026
v -0.820162 1.040696 -0.005365
v -0.819678 1.039859 -0.002026
v -0.815324 1.040696 -0.005365
v -0.815808 1.039859 -0.002026
v -0.823971 1.039823 -0.005140
v -0.823971 1.039823 -0.009997
v -0.787728 1.039828 -0.009997
v -0.787728 1.039828 -0.005140
v -0.787729 0.860177 -0.009995
v -0.787729 0.860177 -0.005138
v -0.823972 0.860176 -0.005138
v -0.823972 0.860176 -0.009995
v -0.815091 1.001800 -0.060429
v -0.817114 0.975900 -0.071143
v -0.813536 1.019626 -0.044858
v -0.796901 1.001800 -0.060429
v -0.795072 0.975900 -0.071143
v -0.798459 1.019621 -0.044858
v -0.815091 0.898205 -0.060432
v -0.817114 0.924105 -0.071146
v -0.813535 0.880379 -0.044860
v -0.796901 0.898205 -0.060432
v -0.795072 0.924105 -0.071146
v -0.798458 0.880378 -0.044860
v -0.815091 1.001800 -0.055572
v -0.817114 0.975900 -0.066286
v -0.813536 1.019626 -0.040001
v -0.796901 1.001800 -0.055572
v -0.795072 0.975900 -0.066286
v -0.798459 1.019621 -0.040001
v -0.815091 0.898205 -0.055574
v -0.817114 0.924105 -0.066289
v -0.813535 0.880379 -0.040003
v -0.796901 0.898205 -0.055574
v -0.795072 0.924105 -0.066289
v -0.798458 0.880378 -0.040003
v -0.806000 1.001800 -0.067572
v -0.806097 0.975900 -0.078286
v -0.806000 1.019624 -0.044858
v -0.805996 0.898205 -0.067574
v -0.806093 0.924105 -0.078289
v -0.805996 0.880379 -0.044860
v -0.811251 1.038198 -0.044858
v -0.800745 1.038193 -0.044858
v -0.811251 1.038198 -0.040001
v -0.800745 1.038193 -0.040001
v -0.800744 0.861807 -0.044860
v -0.800744 0.861807 -0.040003
v -0.795888 1.029621 -0.044858
v -0.806000 1.029624 -0.044858
v -0.816108 1.029626 -0.044858
v -0.795888 1.029621 -0.040001
v -0.816108 1.029626 -0.040001
v -0.795887 0.870378 -0.044860
v -0.795887 0.870378 -0.040003
v -0.805996 0.870378 -0.044860
v -0.805998 1.039624 -0.044858
v -0.805996 0.860379 -0.040003
v -0.805996 0.860379 -0.044860
v -0.810942 0.870506 -0.044633
v -0.809975 0.870507 -0.047972
v -0.808523 0.866316 -0.044633
v -0.808039 0.867155 -0.047972
v -0.803685 0.866316 -0.044633
v -0.804169 0.867155 -0.047972
v -0.801265 0.870506 -0.044633
v -0.802233 0.870507 -0.047972
v -0.803685 0.874697 -0.044633
v -0.804169 0.873859 -0.047972
v -0.808523 0.874697 -0.044633
v -0.808039 0.873859 -0.047972
v -0.822942 1.036506 -0.044633
v -0.821975 1.036507 -0.047972
v -0.820523 1.032316 -0.044633
v -0.820039 1.033155 -0.047972
v -0.815685 1.032316 -0.044633
v -0.816169 1.033155 -0.047972
v -0.813265 1.036506 -0.044633
v -0.814233 1.036507 -0.047972
v -0.815685 1.040697 -0.044633
v -0.816169 1.039859 -0.047972
v -0.820523 1.040697 -0.044633
v -0.820039 1.039859 -0.047972
v -0.805998 1.039624 -0.039999
v -0.792045 1.043123 -0.044858
v -0.792045 1.043123 -0.040001
v -0.787188 1.034551 -0.044858
v -0.787188 1.034551 -0.040001
v -0.819951 1.043128 -0.044858
v -0.819951 1.043128 -0.040001
v -0.824808 1.034556 -0.040001
v -0.824808 1.034556 -0.044858
v -0.797874 1.043268 -0.044858
v -0.790059 1.029476 -0.044858
v -0.790059 1.029476 -0.040001
v -0.797874 1.043268 -0.040001
v -0.814122 1.043273 -0.040001
v -0.821937 1.029481 -0.040001
v -0.821937 1.029481 -0.044858
v -0.814122 1.043273 -0.044858
v -0.811249 0.861807 -0.040003
v -0.816106 0.870379 -0.044860
v -0.811249 0.861807 -0.044860
v -0.816106 0.870379 -0.040003
v -0.819950 0.856877 -0.040003
v -0.819950 0.856877 -0.044860
v -0.824807 0.865449 -0.040003
v -0.824807 0.865449 -0.044860
v -0.792043 0.856877 -0.040003
v -0.792043 0.856877 -0.044860
v -0.787186 0.865448 -0.044860
v -0.787186 0.865448 -0.040003
v -0.821936 0.870524 -0.040003
v -0.814120 0.856732 -0.040003
v -0.814120 0.856732 -0.044860
v -0.821936 0.870524 -0.044860
v -0.797873 0.856732 -0.044860
v -0.797873 0.856732 -0.040003
v -0.790057 0.870523 -0.044860
v -0.790057 0.870523 -0.040003
v -0.808039 1.032859 -0.047972
v -0.808523 1.033697 -0.044633
v -0.804169 1.032859 -0.047972
v -0.803685 1.033697 -0.044633
v -0.802233 1.029507 -0.047972
v -0.801265 1.029506 -0.044633
v -0.804169 1.026155 -0.047972
v -0.803685 1.025316 -0.044633
v -0.808039 1.026155 -0.047972
v -0.808523 1.025316 -0.044633
v -0.809975 1.029507 -0.047972
v -0.810942 1.029506 -0.044633
v -0.822942 0.863507 -0.044633
v -0.821975 0.863507 -0.047972
v -0.820523 0.859317 -0.044633
v -0.820039 0.860155 -0.047972
v -0.815685 0.859317 -0.044633
v -0.816169 0.860155 -0.047972
v -0.813265 0.863507 -0.044633
v -0.814233 0.863507 -0.047972
v -0.815685 0.867697 -0.044633
v -0.816169 0.866859 -0.047972
v -0.820523 0.867697 -0.044633
v -0.820039 0.866859 -0.047972
v -0.798942 0.863506 -0.044633
v -0.797975 0.863506 -0.047972
v -0.796523 0.859316 -0.044633
v -0.796039 0.860154 -0.047972
v -0.791684 0.859316 -0.044633
v -0.792168 0.860154 -0.047972
v -0.789265 0.863506 -0.044633
v -0.790233 0.863506 -0.047972
v -0.791684 0.867696 -0.044633
v -0.792168 0.866859 -0.047972
v -0.796523 0.867696 -0.044633
v -0.796039 0.866859 -0.047972
v -0.798942 1.036506 -0.044633
v -0.797975 1.036507 -0.047972
v -0.796523 1.032316 -0.044633
v -0.796039 1.033155 -0.047972
v -0.791685 1.032316 -0.044633
v -0.792169 1.033155 -0.047972
v -0.789265 1.036506 -0.044633
v -0.790233 1.036507 -0.047972
v -0.791685 1.040697 -0.044633
v -0.792169 1.039859 -0.047972
v -0.796523 1.040697 -0.044633
v -0.796039 1.039859 -0.047972
v -0.787876 1.039823 -0.044858
v -0.787876 1.039823 -0.040001
v -0.824119 1.039828 -0.040001
v -0.824119 1.039828 -0.044858
v -0.824118 0.860177 -0.040003
v -0.824118 0.860177 -0.044860
v -0.787875 0.860176 -0.044860
v -0.787875 0.860176 -0.040003
vn -0.0000 -0.0000 -1.0000
vn -0.0000 1.0000 -0.0000
vn 1.0000 -0.0000 -0.0000
vn -0.0000 -1.0000 -0.0000
vn -0.0000 -0.0000 1.0000
vn -1.0000 -0.0000 -0.0000
vn 0.3827 -0.0000 -0.9239
vn -0.3827 -0.0000 0.9239
vn -0.9239 -0.0000 -0.3827
vn -0.3827 -0.0000 -0.9239
vn 0.3827 -0.0000 0.9239
vn 0.9239 -0.0000 -0.3827
vn -0.6861 -0.0000 0.7275
vn 0.9239 -0.0000 0.3827
vn -0.0000 -0.0000 -0.0000
vn -1.0000 -0.0000 0.0030
vn -1.0000 -0.0001 0.0030
vn 1.0000 -0.0000 0.0001
vn 1.0000 -0.0001 -0.0000
vn 1.0000 -0.0002 0.0001
vn 1.0000 0.0002 0.0003
vn 1.0000 -0.0006 -0.0012
vn 1.0000 0.0004 -0.0001
vn -1.0000 0.0002 0.0002
vn -1.0000 0.0003 0.0002
vn -1.0000 0.0002 -0.0000
vn -1.0000 -0.0000 -0.0003
vn -0.0000 1.0000 0.0016
vn 0.0016 1.0000 -0.0000
vn -0.0000 -1.0000 0.0016
vn -0.0016 -1.0000 -0.0000
vn -1.0000 -0.0001 -0.0000
vn -1.0000 0.0005 0.0002
vn -1.0000 -0.0000 -0.0006
vn -1.0000 -0.0000 0.0008
vn -1.0000 0.0014 -0.0006
vn 1.0000 -0.0016 0.0011
vn 1.0000 -0.0000 0.0011
vn 1.0000 -0.0000 0.0025
vn 0.4581 0.4890 0.7423
vn 0.5527 0.1602 0.8178
vn 0.5528 0.1801 0.8137
vn 0.4008 0.5696 0.7175
vn -0.0000 -0.1908 -0.9816
vn -0.0000 -0.1903 -0.9817
vn -0.0000 0.1903 -0.9817
vn -0.0000 0.1907 -0.9816
vn 0.4580 -0.4890 0.7424
vn 0.4008 -0.5696 0.7176
vn 0.5527 -0.1801 0.8137
vn 0.5526 -0.1602 0.8179
vn -0.1533 -0.3902 0.9079
vn -0.4588 -0.4866 0.7434
vn -0.4010 -0.5687 0.7182
vn -0.1450 -0.3691 0.9180
vn -0.0000 0.6579 -0.7531
vn -0.0000 0.5212 -0.8534
vn -0.0000 0.5209 -0.8536
vn -0.9992 -0.0392 -0.0000
vn -0.9995 -0.0302 -0.0000
vn -0.9995 0.0302 -0.0000
vn -0.9992 0.0392 -0.0000
vn -0.9987 -0.0505 -0.0000
vn -0.9912 -0.1323 -0.0000
vn -0.9967 0.0814 -0.0000
vn -0.9971 0.0755 -0.0000
vn -0.9971 -0.0755 -0.0000
vn -0.9967 -0.0814 -0.0000
vn -0.9912 0.1324 -0.0000
vn -0.9987 0.0505 -0.0000
vn 0.9994 -0.0334 -0.0000
vn 0.9991 -0.0433 -0.0000
vn 0.9991 0.0433 -0.0000
vn 0.9994 0.0334 -0.0000
vn 0.9965 0.0838 -0.0000
vn 0.9967 0.0806 -0.0000
vn 0.9967 -0.0806 -0.0000
vn 0.9965 -0.0839 -0.0000
vn -0.5528 -0.1784 0.8140
vn -0.5527 -0.1581 0.8183
vn -0.5526 0.1582 0.8183
vn -0.5527 0.1785 0.8140
vn 0.9912 -0.1324 -0.0000
vn 0.9987 -0.0506 -0.0000
vn 0.9987 0.0505 -0.0000
vn 0.9912 0.1324 -0.0000
vn -0.0000 -0.5212 -0.8534
vn -0.0000 -0.5210 -0.8536
vn 0.1534 0.3903 0.9078
vn 0.1450 0.3690 0.9180
vn -0.1451 0.3692 0.9180
vn -0.4009 0.5687 0.7182
vn -0.4587 0.4867 0.7435
vn -0.1533 0.3902 0.9079
vn 0.1451 -0.3691 0.9180
vn 0.1533 -0.3902 0.9079
vn 0.4930 -0.8700 -0.0000
vn -0.3403 -0.9403 -0.0000
vn 0.0001 -0.6579 -0.7531
vn 0.9685 -0.2490 -0.0000
vn -0.9685 -0.2490 -0.0000
vn 0.9685 0.2490 -0.0000
vn -0.9685 0.2490 -0.0000
vn 0.2625 -0.9649 -0.0000
vn -0.2624 -0.9650 -0.0000
vn -0.8400 0.4849 0.2435
vn 0.8400 0.4850 0.2433
vn 0.8400 -0.4850 0.2435
vn -0.0000 -0.9699 0.2436
vn -0.0000 0.9699 0.2433
vn -0.8399 -0.4849 0.2436
vn 0.8400 0.4850 0.2434
vn 0.2621 0.9651 -0.0000
vn -0.0004 1.0000 -0.0000
vn -0.2629 0.9648 -0.0000
vn -0.8700 0.4930 -0.0000
vn -0.3403 0.9403 -0.0000
vn 0.4930 0.8700 -0.0000
vn -0.4930 -0.8700 -0.0000
vn -0.9815 -0.1913 -0.0000
vn 0.8700 0.4930 -0.0000
vn 0.3403 0.9403 -0.0000
vn -0.4930 0.8700 -0.0000
vn 0.9815 -0.1913 -0.0000
vn 0.0249 -0.9997 -0.0000
vn 0.8704 0.4924 -0.0000
vn -0.0249 -0.9997 -0.0000
vn -0.8704 0.4924 -0.0000
vn 0.8700 -0.4930 -0.0000
vn 0.3403 -0.9403 -0.0000
vn 0.9815 0.1913 -0.0000
vn -0.8700 -0.4930 -0.0000
vn -0.9815 0.1913 -0.0000
vn -0.0249 0.9997 -0.0000
vn -0.8704 -0.4924 -0.0000
vn 0.0249 0.9997 -0.0000
vn 0.8704 -0.4924 -0.0000
vn -0.8400 0.4850 0.2435
vn 0.8400 -0.4849 0.2435
vn -0.8400 0.4849 0.2434
vn -0.4581 0.4890 -0.7423
vn -0.5527 0.1602 -0.8178
vn -0.5527 0.1801 -0.8137
vn -0.4008 0.5696 -0.7175
vn -0.0000 -0.1908 0.9816
vn -0.0000 -0.1903 0.9817
vn -0.0000 0.1903 0.9817
vn -0.0000 0.1907 0.9816
vn -0.4580 -0.4890 -0.7424
vn -0.4008 -0.5696 -0.7176
vn -0.5527 -0.1801 -0.8137
vn -0.5526 -0.1602 -0.8179
vn 0.1533 -0.3902 -0.9079
vn 0.4588 -0.4866 -0.7434
vn 0.4010 -0.5687 -0.7182
vn 0.1450 -0.3691 -0.9180
vn -0.0000 0.6579 0.7531
vn -0.0000 0.5212 0.8534
vn -0.0000 0.5209 0.8536
vn 0.9992 -0.0392 -0.0000
vn 0.9995 -0.0302 -0.0000
vn 0.9995 0.0302 -0.0000
vn 0.9992 0.0392 -0.0000
vn 0.9987 -0.0505 -0.0000
vn 0.9912 -0.1323 -0.0000
vn 0.9967 0.0814 -0.0000
vn 0.9971 0.0755 -0.0000
vn 0.9971 -0.0755 -0.0000
vn 0.9967 -0.0814 -0.0000
vn -0.9994 -0.0334 -0.0000
vn -0.9991 -0.0433 -0.0000
vn -0.9991 0.0433 -0.0000
vn -0.9994 0.0334 -0.0000
vn -0.9965 0.0838 -0.0000
vn -0.9967 0.0806 -0.0000
vn -0.9967 -0.0806 -0.0000
vn -0.9965 -0.0839 -0.0000
vn 0.5528 -0.1784 -0.8140
vn 0.5527 -0.1581 -0.8183
vn 0.5526 0.1582 -0.8183
vn 0.5527 0.1785 -0.8140
vn -0.9912 -0.1324 -0.0000
vn -0.9987 -0.0506 -0.0000
vn -0.0000 -0.5212 0.8534
vn -0.0000 -0.5210 0.8536
vn -0.1534 0.3903 -0.9078
vn -0.1450 0.3690 -0.9180
vn 0.1451 0.3692 -0.9179
vn 0.4009 0.5687 -0.7182
vn 0.4587 0.4867 -0.7435
vn 0.1533 0.3902 -0.9079
vn -0.1451 -0.3691 -0.9180
vn -0.1533 -0.3902 -0.9079
vn -0.0001 -0.6579 0.7531
vn -0.2625 -0.9649 -0.0000
vn 0.2624 -0.9650 -0.0000
vn 0.8400 0.4850 -0.2435
vn -0.8400 0.4850 -0.2434
vn -0.8400 -0.4849 -0.2435
vn -0.0000 -0.9699 -0.2436
vn -0.0000 0.9699 -0.2433
vn 0.8399 -0.4849 -0.2436
vn -0.2621 0.9651 -0.0000
vn 0.0004 1.0000 -0.0000
vn 0.2629 0.9648 -0.0000
vn -0.8400 0.4850 -0.2433
vn 0.8400 0.4850 -0.2434
vn -0.8400 -0.4850 -0.2435
vn 0.8400 0.4849 -0.2434
vt 0.351570 0.047120
vt 0.648428 0.047120
vt 0.695549 0.000000
vt 0.304450 0.000000
vt 0.351570 0.424084
vt 0.695549 0.440576
vt 0.304450 0.440576
vt 0.304450 0.454712
vt 0.695548 0.454712
vt 0.893455 0.454712
vt 0.521204 0.454712
vt 0.521204 0.450000
vt 0.893455 0.450000
vt 0.304450 0.440576
vt 0.351570 0.471204
vt 0.351571 0.843455
vt 0.304450 0.890576
vt 0.648429 0.424084
vt 0.648429 0.047120
vt 0.695548 0.000000
vt 0.351571 0.047120
vt 0.304450 0.000000
vt 0.648429 0.843455
vt 0.695548 0.890576
vt 0.648429 0.471204
vt 0.351570 0.424084
vt 0.351571 0.454712
vt 0.648429 0.454712
vt 0.648429 0.450000
vt 0.351571 0.450000
vt 0.648429 0.471204
vt 0.648428 0.843455
vt 0.695549 0.890576
vt 0.050000 0.440576
vt 0.940576 0.440576
vt 0.940576 0.454712
vt 0.050000 0.454712
vt 0.893455 0.440576
vt 0.521204 0.440576
vt 0.521204 0.445288
vt 0.893455 0.445288
vt 0.940576 0.440576
vt 0.050000 0.440576
vt 0.351570 0.454712
vt 0.648429 0.454712
vt 0.648429 0.450000
vt 0.351570 0.450000
vt 0.474084 0.454712
vt 0.097121 0.454712
vt 0.097121 0.450000
vt 0.474084 0.450000
vt 0.351570 0.843455
vt 0.351570 0.471204
vt 0.648429 0.424084
vt 0.648428 0.440576
vt 0.351570 0.440576
vt 0.351570 0.445288
vt 0.648428 0.445288
vt 0.893455 0.440576
vt 0.648429 0.440576
vt 0.351570 0.440576
vt 0.351570 0.445288
vt 0.648429 0.445288
vt 0.474084 0.440576
vt 0.097121 0.440576
vt 0.097121 0.445288
vt 0.474084 0.445288
vt 0.351570 0.440576
vt 0.309162 0.885864
vt 0.295026 0.900000
vt 0.295026 0.000000
vt 0.309162 0.000000
vt 0.050000 0.454712
vt 0.935864 0.454712
vt 0.935864 0.459424
vt 0.050000 0.459424
vt 0.309162 0.459424
vt 0.309162 0.454712
vt 0.690838 0.454712
vt 0.690838 0.459424
vt 0.295026 0.459424
vt 0.704974 0.459424
vt 0.704974 0.454712
vt 0.295026 0.454712
vt 0.704974 0.900000
vt 0.690838 0.885864
vt 0.950000 0.459424
vt 0.050000 0.459424
vt 0.950000 0.454712
vt 0.704974 0.000000
vt 0.690838 0.000000
vt 0.893554 0.973469
vt 0.893208 0.975590
vt 0.891464 0.976846
vt 0.889343 0.976500
vt 0.888088 0.974756
vt 0.888434 0.972635
vt 0.890178 0.971380
vt 0.892299 0.971725
vt 0.888088 0.996798
vt 0.889343 0.995054
vt 0.891464 0.994708
vt 0.893208 0.995963
vt 0.893554 0.998084
vt 0.892299 0.999828
vt 0.890178 1.000174
vt 0.888434 0.998919
vt 0.888672 0.992188
vt 0.859375 0.992188
vt 0.859375 0.990234
vt 0.888672 0.990234
vt 0.859375 0.982422
vt 0.888672 0.982422
vt 0.888672 0.984375
vt 0.859375 0.984375
vt 0.859375 0.998047
vt 0.888672 0.998047
vt 0.888672 1.005859
vt 0.859375 1.005859
vt 0.859375 0.994141
vt 0.888672 0.994141
vt 0.888672 0.986328
vt 0.859375 0.986328
vt 0.859375 0.988281
vt 0.888672 0.988281
vt 0.859375 0.970703
vt 0.888672 0.970703
vt 0.888672 0.974609
vt 0.859375 0.974609
vt 0.893554 0.985728
vt 0.891139 0.984133
vt 0.891139 0.987420
vt 0.893554 0.985826
vt 0.526668 0.505667
vt 0.473334 0.505667
vt 0.473334 0.502333
vt 0.526668 0.502333
vt 0.490000 0.505667
vt 0.510000 0.505667
vt 0.510000 0.502333
vt 0.490000 0.502333
vt 0.473334 0.510000
vt 0.526668 0.510000
vt 0.526668 0.490000
vt 0.473334 0.490000
vt 0.504667 0.502333
vt 0.510000 0.502333
vt 0.496667 0.502333
vt 0.503333 0.502333
vt 0.510000 0.502333
vt 0.510000 0.505667
vt 0.490000 0.505667
vt 0.490000 0.502333
vt 0.510000 0.502333
vt 0.504667 0.502333
vt 0.526667 0.504667
vt 0.526667 0.495333
vt 0.516890 0.498333
vt 0.516890 0.501667
vt 0.473332 0.503333
vt 0.473332 0.496667
vt 0.526668 0.496667
vt 0.526668 0.498333
vt 0.516889 0.498333
vt 0.482444 0.498333
vt 0.482444 0.501667
vt 0.516889 0.501667
vt 0.526668 0.501667
vt 0.526668 0.503333
vt 0.501667 0.495667
vt 0.498333 0.495667
vt 0.496667 0.495667
vt 0.495333 0.494333
vt 0.504667 0.494333
vt 0.503333 0.495667
vt 0.482445 0.501667
vt 0.482445 0.498333
vt 0.473332 0.495333
vt 0.473332 0.504667
vt 0.495333 0.502333
vt 0.495333 0.494333
vt 0.495333 0.502333
vt 0.473332 0.494333
vt 0.526667 0.494333
vt 0.504667 0.494333
vt 0.482444 0.495667
vt 0.516889 0.495667
vt 0.516890 0.494333
vt 0.482445 0.494333
vt 0.526668 0.495667
vt 0.473332 0.495667
vt 0.473332 0.502333
vt 0.501667 0.494333
vt 0.498333 0.494333
vt 0.498333 0.495667
vt 0.498333 0.494333
vt 0.761821 0.199509
vt 0.757722 0.227393
vt 0.744546 0.228267
vt 0.751039 0.195161
vt 0.860639 0.197541
vt 0.882774 0.197541
vt 0.882774 0.249555
vt 0.860639 0.249555
vt 0.768927 0.306466
vt 0.758812 0.312202
vt 0.747997 0.280245
vt 0.761176 0.279370
vt 0.783971 0.331384
vt 0.780543 0.306053
vt 0.790569 0.327619
vt 0.864040 0.301471
vt 0.862476 0.277702
vt 0.880743 0.277702
vt 0.879180 0.301471
vt 0.834241 0.291614
vt 0.829363 0.291614
vt 0.829365 0.239601
vt 0.834243 0.239600
vt 0.855761 0.195561
vt 0.860638 0.195561
vt 0.845002 0.213526
vt 0.840124 0.213526
vt 0.840123 0.317688
vt 0.845001 0.317688
vt 0.860638 0.335658
vt 0.855761 0.335658
vt 0.798088 0.239618
vt 0.802965 0.239618
vt 0.802967 0.291632
vt 0.798089 0.291632
vt 0.813726 0.317720
vt 0.808848 0.317720
vt 0.808847 0.213530
vt 0.813725 0.213530
vt 0.774354 0.278497
vt 0.770904 0.226516
vt 0.829363 0.335690
vt 0.824485 0.335690
vt 0.824485 0.195561
vt 0.829363 0.195561
vt 0.862476 0.169394
vt 0.880743 0.169394
vt 0.773438 0.172817
vt 0.766550 0.169616
vt 0.780478 0.175680
vt 0.773394 0.198382
vt 0.777566 0.335467
vt 0.780583 0.345291
vt 0.789193 0.340037
vt 0.789149 0.350067
vt 0.797855 0.334868
vt 0.798088 0.344674
vt 0.792016 0.169957
vt 0.790301 0.154266
vt 0.795575 0.156695
vt 0.798088 0.161354
vt 0.796641 0.166447
vt 0.860639 0.374271
vt 0.855761 0.374271
vt 0.855761 0.368416
vt 0.860639 0.368416
vt 0.879181 0.145625
vt 0.864041 0.145629
vt 0.829363 0.346059
vt 0.824485 0.346059
vt 0.855761 0.185192
vt 0.860638 0.185192
vt 0.768241 0.159476
vt 0.777470 0.163547
vt 0.786742 0.167529
vt 0.824485 0.185192
vt 0.829363 0.185192
vt 0.860638 0.346027
vt 0.855761 0.346027
vt 0.824486 0.145625
vt 0.829363 0.145625
vt 0.829363 0.151092
vt 0.824486 0.151092
vt 0.785676 0.157777
vt 0.776103 0.153606
vt 0.781453 0.154396
vt 0.794348 0.348580
vt 0.855761 0.380127
vt 0.860639 0.380127
vt 0.860639 0.385593
vt 0.855761 0.385593
vt 0.944521 0.267653
vt 0.944584 0.267578
vt 0.944630 0.267630
vt 0.944580 0.267690
vt 0.944538 0.267838
vt 0.944468 0.267838
vt 0.944482 0.267742
vt 0.944549 0.267761
vt 0.944765 0.268136
vt 0.944765 0.268214
vt 0.944698 0.268253
vt 0.944630 0.268214
vt 0.944630 0.268136
vt 0.944698 0.268097
vt 0.944482 0.267934
vt 0.944549 0.267915
vt 0.944521 0.268023
vt 0.944580 0.267986
vt 0.944584 0.268097
vt 0.944630 0.268045
vt 0.944683 0.267134
vt 0.944746 0.267059
vt 0.944793 0.267111
vt 0.944743 0.267171
vt 0.944700 0.267319
vt 0.944630 0.267319
vt 0.944644 0.267223
vt 0.944711 0.267242
vt 0.944765 0.266890
vt 0.944765 0.266968
vt 0.944698 0.267007
vt 0.944630 0.266968
vt 0.944630 0.266890
vt 0.944698 0.266852
vt 0.944644 0.267415
vt 0.944711 0.267396
vt 0.944683 0.267504
vt 0.944743 0.267467
vt 0.944746 0.267578
vt 0.944793 0.267526
vt 0.829362 0.380159
vt 0.829363 0.385625
vt 0.824484 0.385625
vt 0.824484 0.380159
vt 0.855760 0.151092
vt 0.855760 0.145625
vt 0.860639 0.145625
vt 0.860638 0.151092
vt 0.855760 0.168142
vt 0.855760 0.162803
vt 0.860638 0.162803
vt 0.860638 0.168142
vt 0.855760 0.156948
vt 0.860638 0.156948
vt 0.860638 0.179337
vt 0.855761 0.179337
vt 0.855760 0.173481
vt 0.860638 0.173481
vt 0.829362 0.363109
vt 0.829362 0.368448
vt 0.824485 0.368448
vt 0.824485 0.363109
vt 0.775518 0.147828
vt 0.762868 0.157273
vt 0.762282 0.151496
vt 0.765022 0.146964
vt 0.770144 0.145625
vt 0.829362 0.374303
vt 0.824484 0.374303
vt 0.824485 0.351914
vt 0.829363 0.351914
vt 0.829362 0.357770
vt 0.824485 0.357770
vt 0.824485 0.168142
vt 0.824485 0.162803
vt 0.829363 0.162803
vt 0.829363 0.168142
vt 0.882774 0.286290
vt 0.896424 0.278100
vt 0.896424 0.283956
vt 0.893216 0.288223
vt 0.887941 0.289046
vt 0.824485 0.156947
vt 0.829363 0.156947
vt 0.829363 0.179336
vt 0.824485 0.179336
vt 0.824485 0.173481
vt 0.829363 0.173481
vt 0.860639 0.363077
vt 0.855761 0.363077
vt 0.882774 0.291802
vt 0.896424 0.299992
vt 0.891258 0.302747
vt 0.885982 0.301924
vt 0.882774 0.297657
vt 0.855761 0.351882
vt 0.860638 0.351882
vt 0.860639 0.357738
vt 0.855761 0.357738
vt 0.882774 0.280435
vt 0.891258 0.275345
vt 0.896424 0.294136
vt 0.944584 0.268616
vt 0.944521 0.268542
vt 0.944580 0.268505
vt 0.944630 0.268564
vt 0.944549 0.268280
vt 0.944482 0.268260
vt 0.944521 0.268172
vt 0.944580 0.268209
vt 0.944482 0.268453
vt 0.944549 0.268434
vt 0.944468 0.268357
vt 0.944538 0.268357
vt 0.944630 0.266657
vt 0.944630 0.266579
vt 0.944698 0.266541
vt 0.944765 0.266579
vt 0.944765 0.266657
vt 0.944698 0.266696
vt 0.944630 0.268149
vt 0.944521 0.267134
vt 0.944584 0.267059
vt 0.944630 0.267111
vt 0.944580 0.267171
vt 0.944538 0.267319
vt 0.944468 0.267319
vt 0.944482 0.267223
vt 0.944549 0.267242
vt 0.944765 0.267981
vt 0.944765 0.268058
vt 0.944630 0.268058
vt 0.944630 0.267981
vt 0.944698 0.267942
vt 0.944482 0.267415
vt 0.944549 0.267396
vt 0.944521 0.267504
vt 0.944580 0.267467
vt 0.944630 0.267526
vt 0.944521 0.266615
vt 0.944584 0.266541
vt 0.944630 0.266592
vt 0.944580 0.266652
vt 0.944538 0.266800
vt 0.944468 0.266800
vt 0.944482 0.266704
vt 0.944549 0.266723
vt 0.944765 0.266735
vt 0.944765 0.266813
vt 0.944630 0.266813
vt 0.944630 0.266735
vt 0.944482 0.266896
vt 0.944549 0.266877
vt 0.944521 0.266985
vt 0.944580 0.266948
vt 0.944630 0.267008
vt 0.944521 0.268690
vt 0.944630 0.268668
vt 0.944580 0.268728
vt 0.944538 0.268876
vt 0.944468 0.268876
vt 0.944482 0.268779
vt 0.944549 0.268799
vt 0.944765 0.267617
vt 0.944765 0.267695
vt 0.944698 0.267734
vt 0.944630 0.267695
vt 0.944630 0.267617
vt 0.944698 0.267578
vt 0.944482 0.268972
vt 0.944549 0.268952
vt 0.944521 0.269061
vt 0.944580 0.269024
vt 0.944584 0.269135
vt 0.944630 0.269083
s 0
usemtl panel_mp_1
f 63/68/8 68/69/8 61/70/8 57/71/8
f 86/72/8 63/68/8 57/71/8
f 60/73/9 67/74/9 66/75/9 69/76/9
f 56/77/10 72/78/10 75/79/10 76/80/10
f 57/81/11 61/73/11 70/76/11 65/75/11
f 72/82/12 56/83/12 66/84/12
f 74/85/12 58/86/12 70/87/12
f 58/86/12 55/88/12 65/89/12 70/87/12
f 56/83/12 59/90/12 69/91/12 66/84/12
f 59/90/12 73/92/12 69/91/12
f 73/92/12 74/85/12 70/87/12 69/91/12
f 55/88/12 71/93/12 65/89/12
f 71/93/12 72/82/12 66/84/12 65/89/12
f 55/94/9 58/95/9 78/96/9 79/97/9
f 74/85/12 73/92/12 72/82/12 71/93/12
f 84/98/8 64/99/8 60/100/8
f 61/101/10 60/102/10 69/103/10 70/104/10
f 64/105/13 84/106/13 87/107/13 88/108/13
f 65/104/13 66/103/13 67/109/13 57/110/13
f 82/92/12 80/90/12 76/83/12 75/82/12
f 78/86/12 77/85/12 81/93/12 79/88/12
f 73/78/13 59/77/13 80/80/13 82/79/13
f 72/111/9 73/112/9 82/113/9 75/114/9
f 71/115/10 55/116/10 79/117/10 81/118/10
f 59/95/11 56/94/11 76/97/11 80/96/11
f 58/116/13 74/115/13 77/118/13 78/117/13
f 74/112/11 71/111/11 81/114/11 77/113/11
f 64/99/8 62/119/8 67/84/8 60/100/8
f 62/119/8 85/120/8 67/84/8
f 85/120/8 86/72/8 57/71/8 67/84/8
f 68/69/8 83/121/8 61/70/8
f 83/121/8 84/98/8 60/100/8 61/70/8
f 68/122/9 63/123/9 90/124/9 91/125/9
f 86/72/8 85/120/8 84/98/8 83/121/8
f 94/120/8 92/119/8 88/99/8 87/98/8
f 90/68/8 89/72/8 93/121/8 91/69/8
f 85/106/10 62/126/10 92/108/10 94/107/10
f 84/127/9 85/128/9 94/129/9 87/130/9
f 83/131/13 68/132/13 91/133/13 93/134/13
f 62/135/11 64/122/11 88/125/11 92/124/11
f 63/132/10 86/131/10 89/134/10 90/133/10
f 86/128/11 83/127/11 93/130/11 89/129/11
f 98/136/12 101/137/12 95/138/12 97/139/12
f 99/140/10 100/141/10 98/142/10 97/143/10
f 98/144/11 100/145/11 104/146/11 103/147/11
f 96/138/8 102/137/8 100/136/8 99/139/8
f 101/148/9 105/149/9 106/150/9 102/151/9
f 96/151/11 99/145/11 97/144/11 95/148/11
f 102/137/8 106/152/8 104/153/8 100/136/8
f 105/154/10 109/155/10 110/104/10 106/156/10
f 106/152/8 110/157/8 108/158/8 104/153/8
f 95/143/13 101/154/13 102/156/13 96/140/13
f 103/153/12 105/152/12 101/137/12 98/136/12
f 107/147/11 108/146/11 110/150/11 109/149/11
f 103/142/13 104/141/13 108/104/13 107/155/13
f 103/153/12 107/158/12 109/157/12 105/152/12
usemtl metal_mp_4
f 116/159/9 117/160/9 112/161/9 113/162/9 120/163/9 122/164/9 121/165/9 126/166/9
f 118/167/11 111/168/11 114/169/11 115/170/11 123/171/11 125/172/11 124/173/11 119/174/11
f 123/175/14 116/176/14 126/177/14 125/178/14
f 113/179/15 111/180/15 118/181/15 120/182/15
f 112/183/8 114/184/8 130/185/8 128/186/8
f 117/187/16 115/188/16 114/184/16 112/183/16
f 115/188/17 117/187/17 116/176/17 123/175/17
f 119/189/18 122/190/18 120/182/18 118/181/18
f 121/191/19 124/192/19 125/178/19 126/177/19
f 128/193/20 130/194/20 127/195/20 129/196/20
f 113/179/12 129/196/12 127/195/12 111/180/12
f 113/162/9 112/161/9 128/197/9 129/198/9
f 114/169/11 111/168/11 127/199/11 130/200/11
f 122/190/21 119/189/21 124/192/21 121/191/21
f 136/159/9 137/160/9 132/161/9 133/162/9 140/163/9 142/164/9 141/165/9 146/166/9
f 138/167/11 131/168/11 134/169/11 135/170/11 143/171/11 145/172/11 144/173/11 139/174/11
f 143/175/14 136/176/14 146/177/14 145/178/14
f 133/179/15 131/180/15 138/181/15 140/182/15
f 132/183/8 134/184/8 150/185/8 148/186/8
f 137/187/16 135/188/16 134/184/16 132/183/16
f 135/188/17 137/187/17 136/176/17 143/175/17
f 139/189/18 142/190/18 140/182/18 138/181/18
f 141/191/19 144/192/19 145/178/19 146/177/19
f 148/193/20 150/194/20 147/195/20 149/196/20
f 133/179/12 149/196/12 147/195/12 131/180/12
f 133/162/9 132/161/9 148/197/9 149/198/9
f 134/169/11 131/168/11 147/199/11 150/200/11
f 142/190/21 139/189/21 144/192/21 141/191/21
f 156/159/9 157/160/9 152/161/9 153/162/9 160/163/9 162/164/9 161/165/9 166/166/9
f 158/167/11 151/168/11 154/169/11 155/170/11 163/171/11 165/172/11 164/173/11 159/174/11
f 163/175/14 156/176/14 166/177/14 165/178/14
f 153/179/15 151/180/15 158/181/15 160/182/15
f 152/183/8 154/184/8 170/185/8 168/186/8
f 157/187/16 155/188/16 154/184/16 152/183/16
f 155/188/17 157/187/17 156/176/17 163/175/17
f 159/189/18 162/190/18 160/182/18 158/181/18
f 161/191/19 164/192/19 165/178/19 166/177/19
f 168/193/20 170/194/20 167/195/20 169/196/20
f 153/179/12 169/196/12 167/195/12 151/180/12
f 153/162/9 152/161/9 168/197/9 169/198/9
f 154/169/11 151/168/11 167/199/11 170/200/11
f 162/190/21 159/189/21 164/192/21 161/191/21
f 171/201/11 174/202/11 178/203/11 175/204/11
f 174/205/13 173/206/13 177/207/13 178/208/13
f 173/202/9 172/201/9 176/204/9 177/203/9
f 177/209/8 176/210/8 175/211/8 178/212/8
f 180/213/22 176/214/22 181/215/22 182/216/22
f 176/217/10 172/218/10 171/219/10 175/220/10
f 177/221/23 179/222/23 183/216/23 184/215/24
f 201/223/8 199/224/8 210/225/8 205/226/8
f 193/227/12 191/228/12 196/229/12 209/230/12 202/231/12 208/232/12 204/233/12 203/234/12 197/235/12 192/236/12
f 197/237/25 209/238/26 196/239/26 199/240/26 201/241/27 192/242/28
f 206/243/8 207/244/8 198/245/8 200/246/8
f 187/247/26 199/240/26 196/239/26 189/215/26
f 192/242/29 201/241/30 188/213/27 190/216/27
f 191/239/31 198/248/32 186/249/33 195/215/33
f 186/203/11 198/250/11 199/251/11 187/204/11
f 201/251/9 200/250/9 185/203/9 188/204/9
f 200/252/34 198/248/34 191/239/34 193/242/34
f 197/235/12 203/234/12 202/231/12 209/230/12
f 208/253/35 202/254/36 210/255/9 207/256/9
f 204/253/11 206/256/37 205/255/38 203/254/11
f 206/243/8 200/246/8 201/223/8 205/226/8
f 196/257/9 191/258/9 195/259/9 189/204/9
f 190/204/11 194/259/11 193/258/11 192/257/11
f 198/245/8 207/244/8 210/225/8 199/224/8
f 185/222/39 200/252/40 193/242/39 194/216/39
f 203/237/41 205/260/42 210/261/43 202/262/41
f 206/260/44 204/237/45 208/238/45 207/263/46
s 1
usemtl metal_6
f 235/264/47 236/265/48 212/266/49 211/267/50
f 227/268/51 224/269/52 230/270/53 233/271/54
f 238/272/55 217/273/56 218/274/57 239/275/58
f 240/276/59 238/272/60 220/277/61 222/278/62
f 234/279/63 232/280/64 229/281/65 231/282/63
f 233/283/66 221/284/67 215/285/68 227/286/69
f 216/287/70 228/288/71 226/289/72 214/290/73
f 220/291/74 232/292/75 234/293/76 222/294/77
f 214/290/73 226/289/72 227/286/69 215/285/68
f 221/284/67 233/283/66 232/292/75 220/291/74
f 218/295/78 230/296/79 224/297/80 212/298/81
f 212/298/81 224/297/80 223/299/82 211/300/83
f 217/301/84 229/302/85 230/296/79 218/295/78
f 221/303/86 239/275/87 236/265/88 215/304/89
f 211/300/83 223/299/82 225/305/90 213/306/91
f 219/307/92 231/308/93 229/302/85 217/301/84
f 232/280/64 233/271/54 230/270/53 229/281/65
f 226/309/94 223/310/95 224/269/52 227/268/51
f 237/311/96 235/264/47 211/267/50 213/312/97
f 216/313/98 214/314/99 235/264/100 237/311/101
f 214/314/99 215/304/89 236/265/88 235/264/100
f 219/315/102 217/273/56 238/272/55 240/276/103
f 220/277/61 238/272/60 239/275/87 221/303/86
f 300/316/12 254/317/12 301/318/12
f 252/319/12 245/320/12 254/317/12
f 292/321/12 291/322/12 283/323/12 367/324/12 285/325/12
f 316/326/104 315/327/104 308/328/105 307/329/105
f 225/330/106 223/310/95 226/309/94 228/331/106
f 225/305/90 251/332/107 249/333/107 213/306/91
f 216/287/70 247/334/108 250/335/108 228/288/71
f 213/312/97 249/336/12 248/337/12 237/311/96
f 237/311/101 248/337/12 247/338/12 216/313/98
f 240/276/103 254/317/12 300/316/12 219/315/102
f 222/278/62 252/319/12 254/317/12 240/276/59
f 219/307/92 300/339/109 302/340/109 231/308/93
f 234/293/76 253/341/110 252/342/110 222/294/77
f 257/343/11 256/344/11 299/345/111 301/346/111
f 247/338/12 248/337/12 242/347/12
f 249/336/12 241/348/12 248/337/12
f 255/349/12 242/347/12 248/337/12
f 254/317/12 245/320/12 257/350/12
f 245/351/112 246/352/112 256/353/11 257/354/11
f 301/318/12 254/317/12 257/350/12
f 241/348/12 255/349/12 248/337/12
f 239/275/58 218/274/57 212/266/49 236/265/48
f 266/355/113 264/356/113 265/357/113 267/358/113
f 259/359/114 258/360/114 268/361/114 269/362/114
f 263/363/12 261/364/12 259/365/12 269/366/12 267/367/12 265/368/12
f 260/369/115 258/360/115 259/359/115 261/370/115
f 262/371/116 260/369/116 261/370/116 263/372/116
f 269/362/117 268/361/117 266/355/117 267/358/117
f 264/373/118 262/371/118 263/372/118 265/374/118
f 278/375/113 276/376/113 277/377/113 279/378/113
f 271/379/119 270/380/119 280/381/119 281/382/119
f 275/383/12 273/384/12 271/385/12 281/386/12 279/387/12 277/388/12
f 272/389/115 270/380/115 271/379/115 273/390/115
f 274/391/116 272/389/116 273/390/116 275/392/116
f 281/382/117 280/381/117 278/375/117 279/378/117
f 276/393/118 274/391/118 275/392/118 277/394/118
f 243/395/120 282/396/121 255/397/121 241/398/120
f 242/399/122 255/400/121 282/401/121 244/402/122
f 367/403/123 283/404/124 284/405/124 368/406/123
f 291/407/125 294/408/125 284/405/124 283/404/124
f 293/409/126 292/410/126 285/411/127 286/412/127
f 369/413/128 288/414/129 287/415/129 370/416/128
f 298/417/12 297/418/12 290/419/12 370/420/12 287/421/12
f 295/422/130 298/423/130 287/415/129 288/414/129
f 297/424/104 296/425/104 289/426/131 290/427/131
f 250/335/132 247/334/132 292/410/126 293/409/126
f 242/399/133 244/402/133 294/408/125 291/407/125
f 247/338/12 242/347/12 291/322/12 292/321/12
f 249/333/134 251/332/134 296/425/104 297/424/104
f 243/395/135 241/398/135 298/423/130 295/422/130
f 241/348/12 249/336/12 297/418/12 298/417/12
f 372/428/136 304/429/137 303/430/137 371/431/136
f 314/432/12 313/433/12 304/434/12 372/435/12 306/436/12
f 313/437/126 312/438/126 303/430/137 304/429/137
f 311/439/125 314/440/125 306/441/138 305/442/138
f 374/443/139 307/329/105 308/328/105 373/444/139
f 315/445/12 317/446/12 309/447/12 373/448/12 308/449/12
f 317/450/130 318/451/130 310/452/140 309/453/140
f 302/340/141 300/339/141 314/440/125 311/439/125
f 301/346/142 299/345/142 312/438/126 313/437/126
f 300/454/12 301/455/12 313/433/12 314/432/12
f 252/342/143 253/341/143 318/451/130 317/450/130
f 245/436/12 252/456/12 317/446/12 315/445/12
f 246/352/144 245/351/144 315/327/104 316/326/104
f 324/457/118 326/458/118 325/459/118 323/460/118
f 319/461/117 320/462/117 322/463/117 321/464/117
f 326/458/116 328/465/116 327/466/116 325/459/116
f 328/465/115 330/467/115 329/468/115 327/466/115
f 325/469/12 327/470/12 329/471/12 319/472/12 321/473/12 323/474/12
f 329/468/114 330/467/114 320/462/114 319/461/114
f 322/463/113 324/373/113 323/475/113 321/464/113
f 339/476/145 337/477/145 338/478/145 340/479/145
f 332/480/114 331/481/114 341/482/114 342/483/114
f 336/484/12 334/485/12 332/368/12 342/486/12 340/487/12 338/488/12
f 333/489/146 331/481/146 332/480/146 334/490/146
f 335/491/116 333/489/116 334/490/116 336/492/116
f 342/483/117 341/482/117 339/476/117 340/479/117
f 337/356/118 335/491/118 336/492/118 338/493/118
f 351/494/145 349/495/145 350/496/145 352/497/145
f 344/498/114 343/499/114 353/500/114 354/501/114
f 348/502/12 346/503/12 344/388/12 354/504/12 352/505/12 350/474/12
f 345/506/115 343/499/115 344/498/115 346/507/115
f 347/508/116 345/506/116 346/507/116 348/509/116
f 354/501/117 353/500/117 351/494/117 352/497/117
f 349/477/118 347/508/118 348/509/118 350/510/118
f 363/511/147 361/457/147 362/512/147 364/513/147
f 356/514/119 355/515/119 365/516/119 366/517/119
f 360/518/12 358/519/12 356/520/12 366/521/12 364/522/12 362/523/12
f 357/524/115 355/515/115 356/514/115 358/525/115
f 359/526/116 357/524/116 358/525/116 360/527/116
f 366/517/117 365/516/117 363/511/117 364/513/117
f 361/528/118 359/526/118 360/527/118 362/529/118
f 289/426/131 369/413/128 370/416/128 290/427/131
f 285/411/127 367/403/123 368/406/123 286/412/127
f 306/441/138 372/428/136 371/431/136 305/442/138
f 310/452/140 374/443/139 373/444/139 309/453/140
f 399/264/148 400/265/149 376/266/150 375/267/151
f 391/268/152 388/269/153 394/270/154 397/271/155
f 402/272/156 381/273/157 382/274/158 403/275/159
f 404/276/160 402/272/161 384/277/162 386/278/163
f 398/279/164 396/280/165 393/281/166 395/282/164
f 397/283/167 385/284/168 379/285/169 391/286/170
f 380/287/171 392/288/172 390/289/173 378/290/174
f 384/291/175 396/292/176 398/293/93 386/294/92
f 378/290/174 390/289/173 391/286/170 379/285/169
f 385/284/168 397/283/167 396/292/176 384/291/175
f 382/295/177 394/296/178 388/297/179 376/298/180
f 376/298/180 388/297/179 387/299/181 375/300/182
f 381/301/183 393/302/184 394/296/178 382/295/177
f 385/303/185 403/275/186 400/265/187 379/304/188
f 375/300/182 387/299/181 389/305/189 377/306/190
f 383/307/77 395/308/76 393/302/184 381/301/183
f 396/280/165 397/271/155 394/270/154 393/281/166
f 390/309/191 387/310/192 388/269/153 391/268/152
f 401/311/193 399/264/148 375/267/151 377/312/194
f 380/313/195 378/314/196 399/264/197 401/311/198
f 378/314/196 379/304/188 400/265/187 399/264/197
f 383/315/199 381/273/157 402/272/156 404/276/200
f 384/277/162 402/272/161 403/275/186 385/303/185
f 464/316/8 418/317/8 465/318/8
f 416/319/8 409/320/8 418/317/8
f 456/321/8 455/322/8 447/323/8 531/324/8 449/325/8
f 480/326/126 479/327/126 472/328/137 471/329/137
f 389/330/201 387/310/192 390/309/191 392/331/201
f 389/305/189 415/332/108 413/333/108 377/306/190
f 380/287/171 411/334/107 414/335/107 392/288/172
f 377/312/194 413/336/8 412/337/8 401/311/193
f 401/311/198 412/337/8 411/338/8 380/313/195
f 404/276/200 418/317/8 464/316/8 383/315/199
f 386/278/163 416/319/8 418/317/8 404/276/160
f 383/307/77 464/339/110 466/340/110 395/308/76
f 398/293/93 417/341/109 416/342/109 386/294/92
f 421/343/11 420/344/11 463/345/202 465/346/202
f 411/338/8 412/337/8 406/347/8
f 413/336/8 405/348/8 412/337/8
f 419/349/8 406/347/8 412/337/8
f 418/317/8 409/320/8 421/350/8
f 409/351/203 410/352/203 420/353/11 421/354/11
f 465/318/8 418/317/8 421/350/8
f 405/348/8 419/349/8 412/337/8
f 403/275/159 382/274/158 376/266/150 400/265/149
f 430/355/204 428/356/204 429/357/204 431/358/204
f 423/359/205 422/360/205 432/361/205 433/362/205
f 427/363/8 425/364/8 423/365/8 433/366/8 431/367/8 429/368/8
f 424/369/206 422/360/206 423/359/206 425/370/206
f 426/371/207 424/369/207 425/370/207 427/372/207
f 433/362/208 432/361/208 430/355/208 431/358/208
f 428/373/209 426/371/209 427/372/209 429/374/209
f 442/375/204 440/376/204 441/377/204 443/378/204
f 435/379/205 434/380/205 444/381/205 445/382/205
f 439/383/8 437/384/8 435/385/8 445/386/8 443/387/8 441/388/8
f 436/389/206 434/380/206 435/379/206 437/390/206
f 438/391/207 436/389/207 437/390/207 439/392/207
f 445/382/208 444/381/208 442/375/208 443/378/208
f 440/393/209 438/391/209 439/392/209 441/394/209
f 407/395/210 446/396/211 419/397/211 405/398/210
f 406/399/212 419/400/211 446/401/211 408/402/212
f 531/403/128 447/404/129 448/405/129 532/406/128
f 455/407/130 458/408/130 448/405/129 447/404/129
f 457/409/104 456/410/104 449/411/131 450/412/131
f 533/413/123 452/414/124 451/415/124 534/416/123
f 462/417/8 461/418/8 454/419/8 534/420/8 451/421/8
f 459/422/125 462/423/125 451/415/124 452/414/124
f 461/424/126 460/425/126 453/426/127 454/427/127
f 414/335/134 411/334/134 456/410/104 457/409/104
f 406/399/135 408/402/135 458/408/130 455/407/130
f 411/338/8 406/347/8 455/322/8 456/321/8
f 413/333/132 415/332/132 460/425/126 461/424/126
f 407/395/133 405/398/133 462/423/125 459/422/125
f 405/348/8 413/336/8 461/418/8 462/417/8
f 536/428/139 468/429/105 467/430/105 535/431/139
f 478/432/8 477/433/8 468/434/8 536/435/8 470/436/8
f 477/437/104 476/438/104 467/430/105 468/429/105
f 475/439/130 478/440/130 470/441/140 469/442/140
f 538/443/136 471/329/137 472/328/137 537/444/136
f 479/445/8 481/446/8 473/447/8 537/448/8 472/449/8
f 481/450/125 482/451/125 474/452/138 473/453/138
f 466/340/143 464/339/143 478/440/130 475/439/130
f 465/346/144 463/345/144 476/438/104 477/437/104
f 464/454/8 465/455/8 477/433/8 478/432/8
f 416/342/141 417/341/141 482/451/125 481/450/125
f 409/436/8 416/456/8 481/446/8 479/445/8
f 410/352/142 409/351/142 479/327/126 480/326/126
f 488/457/209 490/458/209 489/459/209 487/460/209
f 483/461/208 484/462/208 486/463/208 485/464/208
f 490/458/207 492/465/207 491/466/207 489/459/207
f 492/465/206 494/467/206 493/468/206 491/466/206
f 489/469/8 491/470/8 493/471/8 483/472/8 485/473/8 487/474/8
f 493/468/213 494/467/213 484/462/213 483/461/213
f 486/463/214 488/373/214 487/475/214 485/464/214
f 503/476/214 501/477/214 502/478/214 504/479/214
f 496/480/213 495/481/213 505/482/213 506/483/213
f 500/484/8 498/485/8 496/368/8 506/486/8 504/487/8 502/488/8
f 497/489/215 495/481/215 496/480/215 498/490/215
f 499/491/207 497/489/207 498/490/207 500/492/207
f 506/483/208 505/482/208 503/476/208 504/479/208
f 501/356/209 499/491/209 500/492/209 502/493/209
f 515/494/216 513/495/216 514/496/216 516/497/216
f 508/498/205 507/499/205 517/500/205 518/501/205
f 512/502/8 510/503/8 508/388/8 518/504/8 516/505/8 514/474/8
f 509/506/206 507/499/206 508/498/206 510/507/206
f 511/508/207 509/506/207 510/507/207 512/509/207
f 518/501/208 517/500/208 515/494/208 516/497/208
f 513/477/209 511/508/209 512/509/209 514/510/209
f 527/511/204 525/457/204 526/512/204 528/513/204
f 520/514/213 519/515/213 529/516/213 530/517/213
f 524/518/8 522/519/8 520/520/8 530/521/8 528/522/8 526/523/8
f 521/524/206 519/515/206 520/514/206 522/525/206
f 523/526/207 521/524/207 522/525/207 524/527/207
f 530/517/208 529/516/208 527/511/208 528/513/208
f 525/528/209 523/526/209 524/527/209 526/529/209
f 453/426/127 533/413/123 534/416/123 454/427/127
f 449/411/131 531/403/128 532/406/128 450/412/131
f 470/441/140 536/428/139 535/431/139 469/442/140
f 474/452/138 538/443/136 537/444/136 473/453/138
o toilet_cabin_mp_1_door_lock
v -0.044995 0.001913 0.004619
v -0.044995 -0.001914 0.004619
v -0.044995 -0.004620 0.001913
v 0.045006 -0.004620 0.001913
v 0.045006 -0.001914 0.004619
v 0.045006 0.001912 0.004619
v -0.044995 0.004619 0.001913
v -0.044995 0.004619 -0.001914
v -0.044995 0.001913 -0.004620
v -0.044995 -0.004620 -0.001914
v -0.044995 -0.001914 -0.004620
v 0.045006 -0.004620 -0.001914
v 0.045006 -0.001914 -0.004620
v 0.045006 0.001913 -0.004620
v 0.045006 0.004619 0.001913
v 0.045006 0.004618 -0.001914
v 0.020005 0.001913 -0.004620
v 0.020005 -0.001914 -0.004620
v 0.025005 0.001913 -0.004620
v 0.025005 -0.001914 -0.004620
v 0.025005 -0.001914 -0.014620
v 0.020005 -0.001914 -0.014620
v 0.020005 0.001913 -0.014620
v 0.025005 0.001913 -0.014620
v 0.026257 -0.002871 -0.014620
v 0.018756 -0.002871 -0.014620
v 0.018756 0.002869 -0.014620
v 0.026257 0.002869 -0.014620
v 0.026257 -0.002871 -0.024620
v 0.018756 -0.002871 -0.024620
v 0.018756 0.002869 -0.024620
v 0.026257 0.002869 -0.024620
vn -1.0000 -0.0000 -0.0000
vn 1.0000 -0.0000 -0.0000
vn -0.0000 0.7071 -0.7071
vn -0.0000 -1.0000 -0.0000
vn -0.0000 -0.7071 0.7071
vn -0.0000 -0.0000 1.0000
vn -0.0000 -0.0000 -1.0000
vn -0.0000 0.7071 0.7071
vn -0.0000 -0.7071 -0.7071
vn -0.0000 1.0000 -0.0000
vn -0.0000 0.0002 1.0000
vn -0.0000 -0.0002 1.0000
vn 0.0001 -0.0000 1.0000
vn -0.0001 -0.0000 1.0000
vt 0.499024 0.506281
vt 0.500001 0.508638
vt 0.502358 0.509615
vt 0.504715 0.508638
vt 0.505691 0.506281
vt 0.504715 0.503924
vt 0.502358 0.502948
vt 0.500001 0.503924
vt 0.505691 0.506281
vt 0.504715 0.508638
vt 0.502358 0.509615
vt 0.500001 0.508638
vt 0.499024 0.506281
vt 0.500001 0.503924
vt 0.502358 0.502948
vt 0.504715 0.503924
vt 0.470000 0.504715
vt 0.530000 0.504715
vt 0.516667 0.502358
vt 0.513333 0.502358
vt 0.470000 0.506281
vt 0.530000 0.506281
vt 0.530000 0.508638
vt 0.470000 0.508638
vt 0.470000 0.500001
vt 0.530000 0.500001
vt 0.530000 0.502358
vt 0.470000 0.502358
vt 0.516667 0.500001
vt 0.516667 0.503924
vt 0.530000 0.503924
vt 0.470000 0.503924
vt 0.513333 0.500001
vt 0.513333 0.503924
vt 0.513333 0.502948
vt 0.516667 0.502948
vt 0.516667 0.496789
vt 0.513333 0.496789
vt 0.513333 0.499806
vt 0.516667 0.499806
vt 0.517501 0.500396
vt 0.512501 0.500396
vt 0.497449 0.497765
vt 0.499806 0.496789
vt 0.513333 0.497765
vt 0.516667 0.497765
vt 0.497449 0.497765
vt 0.512501 0.496545
vt 0.517501 0.496545
vt 0.517501 0.490385
vt 0.512501 0.490385
vt 0.516667 0.497449
vt 0.513333 0.497449
vt 0.512501 0.496860
vt 0.517501 0.496860
vt 0.512501 0.497844
vt 0.517501 0.497844
vt 0.517501 0.494309
vt 0.512501 0.494309
vt 0.517501 0.498009
vt 0.512501 0.498009
vt 0.512501 0.491850
vt 0.517501 0.491850
vt 0.500396 0.496545
vt 0.496860 0.498009
vt 0.494309 0.491850
vt 0.497844 0.490385
vt 0.496860 0.498009
vt 0.500396 0.496545
vt 0.494309 0.491850
s 0
usemtl metal_mp_1
f 548/530/217 541/531/217 540/532/217 539/533/217 545/534/217 546/535/217 547/536/217 549/537/217
f 553/538/218 544/539/218 543/540/218 542/541/218 550/542/218 551/543/218 552/544/218 554/545/218
f 546/546/219 554/547/219 557/548/219 555/549/219
f 548/550/220 550/551/220 542/552/220 541/553/220
f 541/554/221 542/555/221 543/556/221 540/557/221
f 540/557/222 543/556/222 544/547/222 539/546/222
f 557/548/223 552/556/223 551/555/223 558/558/223
f 539/553/224 544/552/224 553/551/224 545/550/224
f 558/559/225 551/560/225 550/551/225
f 545/550/226 553/551/226 554/560/226 546/561/226
f 547/557/223 555/549/223 556/562/223 549/554/223
f 556/563/225 558/559/225 550/551/225 548/550/225
f 549/561/225 556/563/225 548/550/225
f 547/557/219 546/546/219 555/549/219
f 554/547/219 552/556/219 557/548/219
f 555/564/226 557/565/226 562/566/226 561/567/226
f 561/568/227 562/569/227 566/570/227 565/571/227
f 557/536/218 558/543/218 559/572/218 562/573/218
f 558/559/220 556/563/220 560/574/220 559/575/220
f 556/543/217 555/536/217 561/573/217 560/576/217
f 565/577/226 566/578/226 570/579/226 569/580/226
f 559/581/228 560/582/228 564/583/228 563/584/228
f 562/569/229 559/581/229 563/584/229 566/570/229
f 560/582/230 561/568/230 565/571/230 564/583/230
f 569/585/223 570/586/223 567/587/223 568/588/223
f 563/589/220 564/590/220 568/591/220 567/592/220
f 566/593/218 563/594/218 567/595/218 570/596/218
f 564/597/217 565/598/217 569/596/217 568/599/217
