# Blender 5.0.1
# www.blender.org
mtllib tunnel_mp_1_elbow.mtl
o tunnel_mp_1_elbow
v -1.000000 0.000000 3.000000
v 1.000000 0.000000 3.000000
v -1.000000 2.400000 3.000000
v -0.500000 2.900000 3.000000
v 0.500000 2.900000 3.000000
v 1.000000 2.400000 3.000000
v -0.999999 2.400000 -1.000000
v 1.000001 2.400000 0.999056
v 1.000000 0.000000 0.999056
v 0.500000 2.900000 0.500000
v 3.000000 0.000000 1.000000
v 3.000000 0.000000 -1.000000
v 3.000000 2.400000 1.000000
v 3.000000 2.900000 0.500000
v 3.000000 2.900000 -0.500000
v 3.000000 2.400000 -1.000000
v -0.500000 2.900000 -0.500000
v -0.999998 0.000000 -1.000000
v 1.000001 0.000000 1.000000
vn -0.0000 1.0000 -0.0000
vn -0.7071 -0.7071 -0.0000
vn -0.0000 -1.0000 -0.0000
vn -1.0000 -0.0000 -0.0000
vn 1.0000 -0.0000 -0.0000
vn 0.7071 -0.7071 -0.0000
vn -0.0000 -0.7071 0.7071
vn -0.0000 -0.0000 1.0000
vn 0.0002 -0.0002 -1.0000
vn 0.0001 -0.7067 -0.7075
vt 1.500000 1.000000
vt -0.500000 1.000000
vt -0.500000 -0.000000
vt 0.500472 -0.000000
vt 0.500236 0.000000
vt 0.000000 0.000000
vt 0.000000 0.292893
vt 0.625000 0.292893
vt 0.625000 0.292893
vt 0.000000 0.707107
vt 0.875000 0.707107
vt 0.500236 0.000000
vt 0.000000 0.000000
vt 0.000000 1.000000
vt 0.500236 1.000000
vt 1.000000 1.000000
vt 1.000000 0.000000
vt 0.000000 1.000000
vt 0.000000 1.000000
vt 1.000000 1.000000
vt 0.875000 0.707107
vt -0.000001 0.500000
vt -1.000000 0.500000
vt -1.000000 -0.500000
vt 0.999999 -0.500000
vt 0.749999 1.000000
vt -0.250000 1.000000
vt -0.250000 1.308447
vt 0.625000 1.308447
vt 0.625000 -0.121320
vt -0.250000 -0.121320
vt -0.250000 0.292893
vt 0.375000 0.292893
vt 0.749999 0.000000
vt -0.250000 0.000000
vt 0.749999 1.000000
vt 0.249999 0.000000
vt 0.250000 1.000000
vt -0.250000 0.000000
vt -0.250000 0.707107
vt 0.250000 0.706830
vt 0.375000 0.414213
vt -0.250000 0.414213
s 0
usemtl wall_mp_1
f 8/5/2 6/6/2 5/7/2 10/8/2
f 10/9/3 5/7/3 4/10/3 17/11/3
f 9/12/4 2/13/4 6/14/4 8/15/4
f 18/16/5 7/17/5 3/13/5 1/18/5
f 3/19/6 7/20/6 17/21/6 4/10/6
f 7/26/7 16/27/7 15/28/7 17/29/7
f 17/30/3 15/31/3 14/32/3 10/33/3
f 18/34/8 12/35/8 16/27/8 7/36/8
f 19/37/9 8/38/9 13/27/9 11/39/9
f 13/40/10 8/41/10 10/42/10 14/43/10
usemtl floor_3_metal_1
f 18/1/1 1/2/1 2/3/1 9/4/1
f 19/22/1 11/23/1 12/24/1 18/25/1
