# Blender 5.0.1
# www.blender.org
mtllib tunnel_mp_1_tee.mtl
o tunnel_mp_1_tee
v -1.000000 0.000000 3.000000
v 1.000000 0.000000 3.000000
v -1.000000 2.400000 3.000000
v -0.500000 2.900000 3.000000
v 0.500000 2.900000 3.000000
v 1.000000 2.400000 3.000000
v -3.000000 0.000000 -1.000000
v -3.000000 2.900000 -0.500000
v 1.000000 2.400000 0.999056
v 1.000000 0.000000 0.999056
v 0.500000 2.900000 0.500000
v 3.000000 0.000000 1.000000
v -3.000000 0.000000 1.000000
v 3.000000 0.000000 -1.000000
v 3.000000 2.400000 1.000000
v 3.000000 2.900000 0.500000
v -3.000000 2.900000 0.500000
v -3.000000 2.400000 1.000000
v 3.000000 2.900000 -0.500000
v 3.000000 2.400000 -1.000000
v -1.000000 2.400000 0.999528
v -1.000000 0.000000 0.999528
v -0.500000 2.900000 0.500000
v 0.999528 0.000000 1.000000
v -3.000000 2.400000 -1.000000
v 0.999056 2.400000 1.000000
vn -0.0000 1.0000 -0.0000
vn -0.7071 -0.7071 -0.0000
vn -0.0000 -1.0000 -0.0000
vn -1.0000 -0.0000 -0.0000
vn 1.0000 -0.0000 -0.0000
vn 0.7071 -0.7071 -0.0000
vn -0.0001 -0.7069 -0.7073
vn -0.0000 -0.7071 0.7071
vn -0.0000 -0.0000 1.0000
vn -0.0000 -0.0000 -1.0000
vn -0.0002 -0.0000 -1.0000
vn -0.0000 -0.7071 -0.7071
vt 0.500472 1.000000
vt -0.500000 1.000000
vt -0.500000 -0.000000
vt 0.500472 -0.000000
vt 0.500236 0.000000
vt 0.000000 0.000000
vt 0.000000 0.292893
vt 0.625000 0.292893
vt 0.625000 0.292893
vt 0.000000 0.707107
vt 0.625000 0.707107
vt 0.500236 0.000000
vt 0.000000 0.000000
vt 0.000000 1.000000
vt 0.500236 1.000000
vt 0.500236 0.000000
vt 0.500236 1.000000
vt 0.000000 0.000000
vt 0.000000 1.000000
vt 0.500236 1.000000
vt 0.625000 0.707107
vt 0.000472 0.500000
vt -1.000000 0.500000
vt -1.000000 -0.500000
vt 1.999999 -0.500000
vt 0.750000 0.707107
vt 1.250000 0.707107
vt 1.250000 0.414214
vt 0.625000 0.414213
vt -0.250250 1.000000
vt 1.250000 1.000000
vt 1.250000 1.308447
vt -0.250112 1.308448
vt -0.250000 -0.121320
vt -0.250000 0.292893
vt 0.375000 0.292893
vt -0.250354 0.000000
vt 1.250000 0.000000
vt 0.250236 0.000000
vt 0.250236 1.000000
vt -0.250000 1.000000
vt -0.250000 0.000000
vt 2.000000 0.500000
vt 1.000000 0.500000
vt 2.000000 -0.500000
vt 1.250000 -0.121320
vt 0.625000 0.292893
vt 1.250000 0.292893
vt 1.250000 0.000000
vt 1.250000 1.000000
vt 0.750000 1.000000
vt 0.750000 0.000000
vt -0.250000 0.707107
vt 0.250236 0.707107
vt 0.375000 0.414213
vt -0.250000 0.414213
vt 1.000000 0.500000
vt -0.000000 0.500000
vt 0.375000 0.292893
vt 0.625000 0.292893
s 0
usemtl wall_mp_1
f 9/5/2 6/6/2 5/7/2 11/8/2
f 11/9/3 5/7/3 4/10/3 23/11/3
f 10/12/4 2/13/4 6/14/4 9/15/4
f 22/16/5 21/17/5 3/14/5 1/18/5
f 3/19/6 21/20/6 23/21/6 4/10/6
f 21/26/7 18/27/7 17/28/7 23/29/7
f 25/30/8 20/31/8 19/32/8 8/33/8
f 19/34/3 16/35/3 11/36/3
f 7/37/9 14/38/9 20/31/9 25/30/9
f 24/39/10 26/40/10 15/41/10 12/42/10
f 8/46/3 23/47/3 17/48/3
f 13/49/11 18/50/11 21/51/11 22/52/11
f 15/53/12 26/54/12 11/55/12 16/56/12
f 11/59/3 23/60/3 8/46/3 19/34/3
usemtl floor_3_metal_1
f 22/1/1 1/2/1 2/3/1 10/4/1
f 24/22/1 12/23/1 14/24/1 7/25/1
f 13/43/1 22/44/1 7/45/1
f 7/45/1 22/57/1 24/58/1
