# Blender 5.0.1
# www.blender.org
mtllib wall_1_tunnel_hole.mtl
o wall_1_tunnel_hole
v 2.000000 0.000000 0.060000
v 2.000000 3.000000 0.060000
v 2.030000 0.000000 0.030000
v 2.030000 3.000000 0.030000
v -2.000000 0.000000 0.060001
v -2.000000 3.000000 0.060000
v -2.030000 0.000000 0.030001
v -2.030000 3.000000 0.030000
v 0.821272 0.205791 0.060000
v 0.821272 0.000000 0.060000
v 1.260072 1.160000 0.060000
v 1.205814 1.525780 0.060000
v 1.047712 0.459941 0.060000
v -1.164155 0.677791 0.060000
v 0.365780 2.365814 0.060000
v 0.593995 2.271284 0.060000
v 0.123508 2.414005 0.060000
v -2.000000 0.000000 -0.060000
v -2.000000 3.000000 -0.060000
v -2.030000 0.000000 -0.030000
v -2.030000 3.000000 -0.030000
v 2.000000 0.000000 -0.060001
v 2.000000 3.000000 -0.060001
v 2.030000 0.000000 -0.030001
v 2.030000 3.000000 -0.030001
v 1.047712 0.459941 -0.060001
v 0.891006 0.268994 -0.060001
v 0.821272 0.000000 -0.060001
v 0.821272 0.205791 -0.060001
v 1.260070 1.160000 -0.060001
v 1.254005 1.283509 -0.060001
v 1.235859 0.914172 -0.060001
v 1.205814 1.525780 -0.060001
v 1.164155 0.677791 -0.060001
v 1.111285 1.753994 -0.060000
v 0.123508 2.414005 -0.060000
v 0.365780 2.365814 -0.060000
v -0.821272 0.205791 -0.060000
v -0.772130 0.175590 -0.029961
v -0.775027 0.210785 -0.028693
v -0.816353 0.237932 -0.051985
v -0.794154 0.187851 -0.051985
v -0.793490 0.217999 -0.051985
v -0.810648 0.262485 -0.029961
v -0.786516 0.236703 -0.028693
v -0.821272 0.000000 -0.060000
v -0.791272 0.000000 -0.051962
v -0.769310 0.000000 -0.030000
v -0.891006 0.268994 -0.060000
v -0.869767 0.290233 -0.051962
v -0.854219 0.305781 -0.030000
v -1.164155 0.677791 -0.060000
v -1.136405 0.689286 -0.051962
v -1.116091 0.697700 -0.030000
v -1.111285 1.753994 -0.060000
v -1.084795 1.739835 -0.051962
v -1.065403 1.729470 -0.030000
v -1.235860 0.914172 -0.060000
v -1.206401 0.920032 -0.051962
v -1.184836 0.924322 -0.030000
v -1.260072 1.160000 -0.060000
v -1.230036 1.160000 -0.051962
v -1.208048 1.160000 -0.030000
v -1.254005 1.283509 -0.060000
v -1.202231 1.278410 -0.030000
v -1.224113 1.280565 -0.051962
v -1.205814 1.525780 -0.060000
v -1.156030 1.510678 -0.030000
v -1.177071 1.517061 -0.051962
v -1.047712 0.459941 -0.060000
v -1.004455 0.488844 -0.030000
v -1.022738 0.476628 -0.051962
v -0.974049 1.959381 -0.060000
v -0.933834 1.926378 -0.030000
v -0.950831 1.940327 -0.051962
v -0.365780 2.365814 -0.060000
v -0.350678 2.316030 -0.030000
v -0.357061 2.337071 -0.051962
v -0.593995 2.271284 -0.060000
v -0.579836 2.244795 -0.051962
v -0.569470 2.225404 -0.030000
v -0.799382 2.134049 -0.060000
v -0.780327 2.110831 -0.051962
v -0.766378 2.093834 -0.030000
v -0.123508 2.414005 -0.060000
v -0.120564 2.384113 -0.051962
v -0.118409 2.362231 -0.030000
v -0.817651 0.207397 -0.084048
v -0.797896 0.190327 -0.078961
v -0.797342 0.216189 -0.079015
v -0.817061 0.233304 -0.079015
v -0.123120 2.410068 -0.084851
v -0.120952 2.388050 -0.078930
v -1.107796 1.752129 -0.084851
v -1.088282 1.741699 -0.078929
v -0.795015 0.000000 -0.078836
v -0.817321 0.000000 -0.084851
v -1.140034 0.687783 -0.078914
v -1.160500 0.679305 -0.084851
v -1.233983 1.160000 -0.078925
v -1.256116 1.160000 -0.084851
v -1.228043 1.280952 -0.078926
v -1.250068 1.283121 -0.084851
v -1.180853 1.518208 -0.078928
v -1.202029 1.524631 -0.084851
v -1.025985 0.474459 -0.078902
v -1.044422 0.462139 -0.084851
v -1.210265 0.919263 -0.078921
v -1.231981 0.914944 -0.084851
v -0.953888 1.942835 -0.078929
v -0.970991 1.956872 -0.084851
v -0.358209 2.340857 -0.078930
v -0.364632 2.362028 -0.084851
v -0.796872 2.130991 -0.084851
v -0.782836 2.113888 -0.078929
v -0.581701 2.248283 -0.078930
v -0.592131 2.267795 -0.084851
v -0.888208 0.271791 -0.084851
v -0.872501 0.287499 -0.078881
v -1.047712 0.459941 0.060000
v -1.004455 0.488844 0.030000
v -1.022738 0.476628 0.051962
v -0.891006 0.268994 0.060000
v -0.869767 0.290233 0.051962
v -0.854219 0.305781 0.030000
v -0.821272 0.000000 0.060000
v -0.769310 0.000000 0.030000
v -0.791272 0.000000 0.051962
v -0.821272 0.205791 0.060000
v -0.810648 0.262485 0.029961
v -0.786516 0.236703 0.028693
v -0.794154 0.187851 0.051984
v -0.816353 0.237932 0.051984
v -0.793491 0.217999 0.051984
v -0.772130 0.175590 0.029961
v -0.775027 0.210785 0.028693
v -1.260072 1.160000 0.060000
v -1.208048 1.160000 0.030000
v -1.230036 1.160000 0.051962
v -1.254005 1.283509 0.060000
v -1.202231 1.278410 0.030000
v -1.224113 1.280565 0.051961
v -1.235860 0.914172 0.060000
v -1.206401 0.920032 0.051962
v -1.184836 0.924322 0.030000
v -1.205814 1.525780 0.060000
v -1.156030 1.510678 0.030000
v -1.177071 1.517061 0.051961
v -1.136405 0.689286 0.051962
v -1.116091 0.697700 0.030000
v -0.974049 1.959381 0.060000
v -0.950831 1.940327 0.051962
v -0.933834 1.926378 0.030000
v -1.111285 1.753994 0.060000
v -1.084795 1.739835 0.051961
v -1.065403 1.729470 0.030000
v -0.799382 2.134049 0.060000
v -0.766378 2.093834 0.030000
v -0.780327 2.110831 0.051962
v -0.593995 2.271284 0.060000
v -0.569470 2.225404 0.030000
v -0.579836 2.244795 0.051962
v -0.123508 2.414005 0.060000
v -0.118409 2.362231 0.030000
v -0.120564 2.384113 0.051962
v -0.365780 2.365814 0.060000
v -0.350678 2.316030 0.030000
v -0.357061 2.337071 0.051962
v -0.817651 0.207397 0.084048
v -0.817061 0.233304 0.079015
v -0.797343 0.216189 0.079015
v -0.797896 0.190327 0.078961
v -1.180853 1.518208 0.078927
v -1.202029 1.524631 0.084851
v -1.160500 0.679305 0.084851
v -1.140034 0.687783 0.078914
v -1.025985 0.474459 0.078902
v -1.044422 0.462139 0.084851
v -0.888208 0.271791 0.084851
v -0.872501 0.287499 0.078881
v -1.107796 1.752129 0.084851
v -1.088282 1.741699 0.078928
v -0.970991 1.956872 0.084851
v -0.953888 1.942835 0.078929
v -1.233983 1.160000 0.078925
v -1.256116 1.160000 0.084851
v -1.228043 1.280952 0.078926
v -1.250068 1.283121 0.084851
v -1.231981 0.914944 0.084851
v -1.210265 0.919263 0.078921
v -0.782836 2.113888 0.078929
v -0.796872 2.130991 0.084851
v -0.581701 2.248283 0.078929
v -0.592131 2.267795 0.084851
v -0.120952 2.388050 0.078930
v -0.123120 2.410068 0.084851
v -0.358209 2.340857 0.078930
v -0.364632 2.362028 0.084851
v -0.795015 -0.000000 0.078836
v -0.817321 0.000000 0.084851
v 0.772130 0.175590 0.029961
v 0.775027 0.210785 0.028693
v 0.816353 0.237932 0.051984
v 0.794154 0.187851 0.051984
v 0.793490 0.217999 0.051984
v 0.810648 0.262485 0.029961
v 0.786516 0.236703 0.028693
v 0.791272 0.000000 0.051962
v 0.769310 0.000000 0.030000
v 0.891006 0.268994 0.060000
v 0.869767 0.290233 0.051962
v 0.854219 0.305781 0.030000
v 1.164155 0.677791 0.060000
v 1.136405 0.689286 0.051962
v 1.116091 0.697700 0.030000
v 1.111285 1.753994 0.060000
v 1.084795 1.739835 0.051962
v 1.065403 1.729470 0.030000
v 1.235860 0.914172 0.060000
v 1.206401 0.920032 0.051962
v 1.184836 0.924322 0.030000
v 1.230036 1.160000 0.051962
v 1.208048 1.160000 0.030000
v 1.254005 1.283509 0.060000
v 1.202231 1.278410 0.030000
v 1.224113 1.280565 0.051962
v 1.156030 1.510678 0.030000
v 1.177071 1.517061 0.051962
v 1.004455 0.488844 0.030000
v 1.022738 0.476628 0.051962
v 0.974049 1.959381 0.060000
v 0.933834 1.926378 0.030000
v 0.950831 1.940327 0.051962
v 0.350678 2.316030 0.030000
v 0.357061 2.337071 0.051962
v 0.579836 2.244795 0.051962
v 0.569470 2.225404 0.030000
v 0.799382 2.134049 0.060000
v 0.780327 2.110831 0.051962
v 0.766378 2.093834 0.030000
v 0.120564 2.384113 0.051962
v 0.118409 2.362231 0.030000
v 0.817651 0.207397 0.084048
v 0.797896 0.190327 0.078961
v 0.797342 0.216189 0.079015
v 0.817061 0.233304 0.079015
v 0.123120 2.410068 0.084851
v 0.120952 2.388050 0.078930
v 1.107796 1.752129 0.084851
v 1.088282 1.741699 0.078928
v 0.795015 0.000000 0.078836
v 0.817321 0.000000 0.084851
v 1.140034 0.687783 0.078914
v 1.160500 0.679305 0.084851
v 1.233983 1.160000 0.078925
v 1.256116 1.160000 0.084851
v 1.228043 1.280952 0.078926
v 1.250068 1.283121 0.084851
v 1.180853 1.518208 0.078928
v 1.202029 1.524631 0.084851
v 1.025985 0.474459 0.078902
v 1.044422 0.462139 0.084851
v 1.210265 0.919263 0.078921
v 1.231981 0.914944 0.084851
v 0.953888 1.942835 0.078929
v 0.970991 1.956872 0.084851
v 0.358209 2.340857 0.078930
v 0.364632 2.362028 0.084851
v 0.796872 2.130991 0.084851
v 0.782836 2.113888 0.078929
v 0.581701 2.248283 0.078929
v 0.592131 2.267795 0.084851
v 0.888208 0.271791 0.084851
v 0.872501 0.287499 0.078881
v 1.004455 0.488844 -0.030000
v 1.022738 0.476628 -0.051962
v 0.869767 0.290233 -0.051962
v 0.854219 0.305781 -0.030000
v 0.769310 0.000000 -0.030000
v 0.791272 0.000000 -0.051962
v 0.810648 0.262485 -0.029961
v 0.786516 0.236703 -0.028693
v 0.794154 0.187851 -0.051984
v 0.816353 0.237932 -0.051984
v 0.793491 0.217999 -0.051984
v 0.772130 0.175590 -0.029961
v 0.775027 0.210785 -0.028693
v 1.208048 1.160000 -0.030000
v 1.230036 1.160000 -0.051962
v 1.202231 1.278410 -0.030000
v 1.224113 1.280565 -0.051962
v 1.206401 0.920032 -0.051962
v 1.184836 0.924322 -0.030000
v 1.156030 1.510678 -0.030000
v 1.177071 1.517061 -0.051962
v 1.136405 0.689286 -0.051962
v 1.116091 0.697700 -0.030000
v 0.974049 1.959381 -0.060000
v 0.950831 1.940327 -0.051962
v 0.933834 1.926378 -0.030000
v 1.084795 1.739835 -0.051962
v 1.065403 1.729470 -0.030000
v 0.799382 2.134049 -0.060000
v 0.766378 2.093834 -0.030000
v 0.780327 2.110831 -0.051962
v 0.593995 2.271284 -0.060000
v 0.569470 2.225404 -0.030000
v 0.579836 2.244795 -0.051962
v 0.118409 2.362231 -0.030000
v 0.120564 2.384113 -0.051962
v 0.350678 2.316030 -0.030000
v 0.357061 2.337071 -0.051962
v 0.817651 0.207397 -0.084048
v 0.817061 0.233304 -0.079015
v 0.797343 0.216189 -0.079015
v 0.797896 0.190327 -0.078961
v 1.180853 1.518208 -0.078928
v 1.202029 1.524631 -0.084851
v 1.160500 0.679305 -0.084851
v 1.140034 0.687783 -0.078914
v 1.025985 0.474459 -0.078902
v 1.044422 0.462139 -0.084851
v 0.888208 0.271791 -0.084851
v 0.872501 0.287499 -0.078881
v 1.107796 1.752129 -0.084851
v 1.088282 1.741699 -0.078929
v 0.970991 1.956872 -0.084851
v 0.953888 1.942835 -0.078929
v 1.233983 1.160000 -0.078925
v 1.256116 1.160000 -0.084851
v 1.228043 1.280952 -0.078926
v 1.250068 1.283121 -0.084851
v 1.231981 0.914944 -0.084851
v 1.210265 0.919263 -0.078921
v 0.782836 2.113888 -0.078929
v 0.796872 2.130991 -0.084851
v 0.581701 2.248283 -0.078930
v 0.592131 2.267795 -0.084851
v 0.120952 2.388050 -0.078930
v 0.123120 2.410068 -0.084851
v 0.358209 2.340857 -0.078930
v 0.364632 2.362028 -0.084851
v 0.795015 -0.000000 -0.078836
v 0.817321 0.000000 -0.084851
vn -0.7071 -0.0000 0.7071
vn -0.7071 -0.0000 -0.7071
vn -0.0000 -0.0000 -1.0000
vn 0.7071 -0.0000 0.7071
vn -0.0000 -0.0000 1.0000
vn 0.7174 0.6966 -0.0000
vn 0.8328 0.5536 -0.0000
vn -0.7161 -0.6805 0.1552
vn -0.8211 -0.5487 0.1572
vn -0.2103 -0.7373 0.6420
vn -0.0765 -0.7677 0.6363
vn 0.6699 0.7287 0.1424
vn 0.6496 0.7466 0.1437
vn 0.6725 0.7263 0.1422
vn 0.1741 0.1851 0.9672
vn 0.1907 0.1750 0.9659
vn 0.1902 0.1754 0.9659
vn 0.2100 0.0921 0.9734
vn 0.2155 0.1440 -0.9658
vn 0.2392 0.0991 -0.9659
vn 0.9900 -0.0216 -0.1395
vn 0.9904 -0.0023 -0.1382
vn 0.9904 -0.0044 -0.1383
vn -0.9882 -0.0005 -0.1531
vn -0.5186 -0.8486 -0.1046
vn -0.4461 -0.5727 -0.6878
vn 0.2566 0.0037 -0.9665
vn 0.2100 0.0921 -0.9734
vn 0.2529 0.0006 -0.9675
vn 0.9695 0.2453 -0.0000
vn 0.7257 0.0214 -0.6876
vn 0.7368 0.0281 -0.6756
vn 0.7034 0.3108 -0.6392
vn 0.7755 0.1562 -0.6117
vn 0.5216 0.5223 -0.6746
vn 0.5127 0.5160 -0.6862
vn 0.6362 0.4695 -0.6122
vn 0.9988 0.0487 -0.0000
vn 0.7399 0.6727 -0.0000
vn 0.7730 -0.6344 -0.0000
vn 0.8819 -0.4714 -0.0000
vn 0.2051 -0.6763 -0.7075
vn 0.0693 -0.7033 -0.7075
vn 0.7296 0.6691 -0.1417
vn 0.8229 0.5499 -0.1433
vn 0.8228 0.5499 -0.1433
vn 0.7299 0.6687 -0.1417
vn 0.6232 -0.3331 -0.7075
vn 0.6763 -0.2051 -0.7075
vn 0.6699 0.7287 -0.1424
vn 0.6725 0.7263 -0.1422
vn 0.9142 0.3787 -0.1441
vn 0.9705 0.1931 -0.1446
vn 0.9569 -0.2903 -0.0000
vn 0.9925 -0.1224 -0.0000
vn 0.7086 0.0111 -0.7055
vn 0.1902 0.1754 -0.9659
vn 0.1907 0.1750 -0.9659
vn -0.8211 -0.5487 -0.1572
vn -0.7161 -0.6805 -0.1552
vn -0.7705 -0.0383 -0.6363
vn -0.7617 0.0879 -0.6420
vn 0.2903 -0.9569 -0.0000
vn 0.4714 -0.8819 -0.0000
vn 0.6529 0.2704 -0.7075
vn 0.5876 0.3926 -0.7075
vn 0.9997 0.0245 -0.0000
vn 0.9808 0.1951 -0.0000
vn 0.6931 0.1379 -0.7075
vn 0.9892 0.0241 -0.1447
vn 0.9820 -0.1210 -0.1449
vn 0.9820 -0.1213 -0.1449
vn 0.9892 0.0245 -0.1447
vn 0.7066 0.0168 -0.7074
vn 0.7066 0.0179 -0.7074
vn 0.9239 0.3827 -0.0000
vn 0.8315 0.5556 -0.0000
vn 0.6344 -0.7730 -0.0000
vn 0.7015 -0.0860 -0.7074
vn 0.7014 -0.0871 -0.7074
vn 0.5463 -0.4483 -0.7075
vn 0.4483 -0.5463 -0.7075
vn -0.9686 -0.1927 -0.1572
vn -0.9124 -0.3779 -0.1572
vn -0.7299 0.2348 -0.6420
vn -0.6701 0.3727 -0.6420
vn 0.2586 0.0067 -0.9660
vn 0.2538 0.0505 -0.9659
vn 0.2586 0.0061 -0.9660
vn 0.0980 -0.9952 -0.0000
vn 0.3331 -0.6232 -0.7075
vn 0.9905 0.0150 -0.1370
vn -0.6644 -0.7315 -0.1531
vn -0.7239 0.0544 -0.6877
vn 0.5243 0.4777 -0.7049
vn 0.5233 0.4788 -0.7049
vn -0.0253 -0.2573 -0.9660
vn 0.0253 -0.2573 -0.9660
vn -0.0980 -0.9952 -0.0000
vn 0.1219 -0.2280 -0.9660
vn 0.1640 -0.1999 -0.9660
vn 0.9999 0.0161 -0.0000
vn 0.2567 -0.0320 -0.9660
vn 0.2568 -0.0314 -0.9660
vn 0.9468 -0.2872 -0.1450
vn 0.8726 -0.4664 -0.1451
vn -0.1370 0.7544 -0.6420
vn 0.0128 0.7666 -0.6420
vn -0.6265 0.7634 -0.1572
vn -0.7634 0.6265 -0.1572
vn 0.0750 -0.2474 -0.9660
vn 0.1999 -0.1640 -0.9660
vn 0.2280 -0.1219 -0.9660
vn -0.9801 0.1211 -0.1572
vn -0.9873 -0.0244 -0.1572
vn -0.5964 0.4883 -0.6371
vn -0.5185 0.5704 -0.6370
vn 0.7648 -0.6277 -0.1451
vn 0.6277 -0.7648 -0.1451
vn 0.4664 -0.8726 -0.1451
vn -0.4655 0.8710 -0.1572
vn 0.1621 0.7494 -0.6420
vn 0.4366 0.6303 -0.6420
vn -0.0968 0.9828 -0.1572
vn -0.2867 0.9450 -0.1572
vn 0.3052 0.7034 -0.6419
vn -0.4153 0.6445 -0.6420
vn -0.2815 0.7132 -0.6420
vn -0.8710 0.4655 -0.1572
vn -0.9450 0.2867 -0.1572
vn 0.2034 0.0885 -0.9751
vn 0.6496 0.7466 -0.1437
vn 0.1741 0.1851 -0.9672
vn 0.2474 -0.0751 -0.9660
vn 0.2872 -0.9468 -0.1451
vn 0.0970 -0.9846 -0.1451
vn 0.7014 -0.0871 0.7074
vn 0.6763 -0.2051 0.7075
vn 0.7015 -0.0860 0.7074
vn -0.0970 -0.9846 -0.1451
vn 0.2474 -0.0751 0.9660
vn 0.2280 -0.1219 0.9660
vn 0.5127 0.5160 0.6862
vn 0.5216 0.5223 0.6746
vn 0.7034 0.3108 0.6392
vn 0.6362 0.4695 0.6122
vn 0.7368 0.0281 0.6756
vn 0.7257 0.0214 0.6876
vn 0.7755 0.1562 0.6117
vn 0.6931 0.1379 0.7075
vn 0.6529 0.2704 0.7075
vn 0.1999 -0.1640 0.9660
vn 0.1640 -0.1999 0.9660
vn 0.5876 0.3926 0.7075
vn 0.5233 0.4788 0.7049
vn 0.5243 0.4777 0.7049
vn 0.6232 -0.3331 0.7075
vn 0.5463 -0.4483 0.7075
vn -0.5511 0.5330 0.6420
vn -0.6445 0.4153 0.6419
vn -0.2867 0.9450 0.1572
vn -0.0968 0.9828 0.1572
vn 0.4483 -0.5463 0.7075
vn 0.7066 0.0168 0.7074
vn 0.7066 0.0179 0.7074
vn 0.3331 -0.6232 0.7075
vn 0.2538 0.0505 0.9659
vn 0.2586 0.0067 0.9660
vn 0.2586 0.0061 0.9660
vn 0.0693 -0.7033 0.7075
vn 0.2051 -0.6763 0.7075
vn 0.2155 0.1440 0.9658
vn 0.2392 0.0991 0.9659
vn 0.9820 -0.1213 0.1449
vn 0.9468 -0.2872 0.1450
vn 0.9820 -0.1210 0.1449
vn 0.7086 0.0111 0.7055
vn 0.7299 0.6687 0.1417
vn 0.8228 0.5499 0.1433
vn 0.8229 0.5499 0.1433
vn 0.7296 0.6691 0.1417
vn -0.6644 -0.7315 0.1531
vn -0.7239 0.0544 0.6877
vn 0.8726 -0.4664 0.1451
vn 0.9892 0.0241 0.1447
vn 0.9892 0.0245 0.1447
vn -0.6265 0.7634 0.1572
vn -0.4655 0.8710 0.1572
vn -0.7132 0.2815 0.6420
vn -0.7544 0.1370 0.6420
vn 0.9705 0.1931 0.1446
vn 0.1219 -0.2280 0.9660
vn -0.3501 -0.6821 0.6420
vn -0.9124 -0.3779 0.1572
vn -0.9686 -0.1927 0.1572
vn -0.4765 -0.6007 0.6420
vn 0.9904 -0.0044 0.1383
vn 0.9905 0.0150 0.1370
vn 0.9904 -0.0023 0.1382
vn 0.2566 0.0037 0.9665
vn 0.2529 0.0006 0.9675
vn 0.0750 -0.2474 0.9660
vn -0.9873 -0.0244 0.1572
vn -0.9801 0.1211 0.1572
vn -0.6414 -0.4275 0.6371
vn -0.5719 -0.5169 0.6370
vn 0.9142 0.3787 0.1441
vn 0.9900 -0.0216 0.1395
vn 0.2872 -0.9468 0.1451
vn 0.4664 -0.8726 0.1451
vn 0.0970 -0.9846 0.1451
vn -0.0970 -0.9846 0.1451
vn -0.7634 0.6265 0.1572
vn -0.7666 -0.0128 0.6420
vn 0.2034 0.0885 0.9751
vn -0.7494 -0.1621 0.6420
vn -0.8710 0.4655 0.1572
vn 0.7648 -0.6277 0.1451
vn 0.6277 -0.7648 0.1451
vn -0.9450 0.2867 0.1572
vn -0.7034 -0.3052 0.6420
vn 0.2568 -0.0314 0.9660
vn 0.2567 -0.0320 0.9660
vn -0.9882 -0.0005 0.1531
vn -0.4461 -0.5727 0.6878
vn -0.4681 0.7687 0.4358
vn 0.0253 -0.2573 0.9660
vn -0.0253 -0.2573 0.9660
vn 0.5511 0.5330 -0.6420
vn 0.0968 0.9828 -0.1572
vn -0.0693 -0.7033 -0.7075
vn -0.0693 -0.7033 0.7075
vn -0.7174 0.6966 -0.0000
vn -0.8328 0.5536 -0.0000
vn 0.7161 -0.6805 -0.1552
vn 0.8211 -0.5487 -0.1572
vn 0.2103 -0.7373 -0.6420
vn 0.0765 -0.7677 -0.6363
vn -0.6699 0.7287 -0.1424
vn -0.6496 0.7466 -0.1437
vn -0.6725 0.7263 -0.1422
vn -0.1741 0.1851 -0.9672
vn -0.1907 0.1750 -0.9659
vn -0.1902 0.1754 -0.9659
vn -0.2100 0.0921 -0.9734
vn -0.2155 0.1440 0.9658
vn -0.2392 0.0991 0.9659
vn -0.9900 -0.0216 0.1395
vn -0.9904 -0.0023 0.1382
vn -0.9904 -0.0044 0.1383
vn 0.9882 -0.0005 0.1531
vn 0.4347 0.6219 0.6514
vn 0.4461 -0.5727 0.6877
vn -0.2566 0.0037 0.9665
vn -0.2100 0.0921 0.9734
vn -0.2529 0.0006 0.9675
vn -0.9695 0.2453 -0.0000
vn -0.7257 0.0214 0.6876
vn -0.7368 0.0281 0.6756
vn -0.7034 0.3108 0.6392
vn -0.7755 0.1562 0.6117
vn -0.5216 0.5223 0.6746
vn -0.5127 0.5160 0.6862
vn -0.6362 0.4695 0.6122
vn -0.9988 0.0487 -0.0000
vn -0.7399 0.6727 -0.0000
vn -0.7730 -0.6344 -0.0000
vn -0.8819 -0.4714 -0.0000
vn -0.2051 -0.6763 0.7075
vn -0.7296 0.6691 0.1417
vn -0.8229 0.5499 0.1433
vn -0.8228 0.5499 0.1433
vn -0.7299 0.6687 0.1417
vn -0.6232 -0.3331 0.7075
vn -0.6763 -0.2051 0.7075
vn -0.6699 0.7287 0.1424
vn -0.6725 0.7263 0.1422
vn -0.9142 0.3787 0.1441
vn -0.9705 0.1931 0.1446
vn -0.9569 -0.2903 -0.0000
vn -0.9925 -0.1224 -0.0000
vn -0.7086 0.0111 0.7055
vn -0.1902 0.1754 0.9659
vn -0.1907 0.1750 0.9659
vn 0.8211 -0.5487 0.1572
vn 0.7161 -0.6805 0.1552
vn 0.7705 -0.0383 0.6363
vn 0.7617 0.0879 0.6420
vn -0.2903 -0.9569 -0.0000
vn -0.4714 -0.8819 -0.0000
vn -0.6529 0.2704 0.7075
vn -0.5876 0.3926 0.7075
vn -0.9997 0.0245 -0.0000
vn -0.9808 0.1951 -0.0000
vn -0.6931 0.1379 0.7075
vn -0.9892 0.0241 0.1447
vn -0.9820 -0.1210 0.1449
vn -0.9820 -0.1213 0.1449
vn -0.9892 0.0245 0.1447
vn -0.7066 0.0168 0.7074
vn -0.7066 0.0179 0.7074
vn -0.9239 0.3827 -0.0000
vn -0.8315 0.5556 -0.0000
vn -0.6344 -0.7730 -0.0000
vn -0.7015 -0.0860 0.7074
vn -0.7014 -0.0871 0.7074
vn -0.5463 -0.4483 0.7075
vn -0.4483 -0.5463 0.7075
vn 0.9686 -0.1927 0.1572
vn 0.9124 -0.3779 0.1572
vn 0.7299 0.2348 0.6420
vn 0.6701 0.3727 0.6420
vn -0.2586 0.0067 0.9660
vn -0.2538 0.0505 0.9659
vn -0.2586 0.0061 0.9660
vn -0.3331 -0.6232 0.7075
vn -0.9905 0.0150 0.1370
vn 0.6644 -0.7315 0.1531
vn 0.7239 0.0543 0.6878
vn -0.5243 0.4777 0.7049
vn -0.5233 0.4788 0.7049
vn -0.1219 -0.2280 0.9660
vn -0.1640 -0.1999 0.9660
vn -0.9999 0.0161 -0.0000
vn -0.2567 -0.0320 0.9660
vn -0.2568 -0.0314 0.9660
vn -0.9468 -0.2872 0.1450
vn -0.8726 -0.4664 0.1451
vn 0.1370 0.7544 0.6420
vn -0.0128 0.7666 0.6420
vn 0.6265 0.7634 0.1572
vn 0.7634 0.6265 0.1572
vn -0.0750 -0.2474 0.9660
vn -0.1999 -0.1640 0.9660
vn -0.2280 -0.1219 0.9660
vn 0.9801 0.1211 0.1572
vn 0.9873 -0.0244 0.1572
vn 0.5964 0.4883 0.6371
vn 0.5185 0.5704 0.6370
vn -0.7648 -0.6277 0.1451
vn -0.6277 -0.7648 0.1451
vn -0.4664 -0.8726 0.1451
vn 0.4655 0.8710 0.1572
vn -0.1621 0.7494 0.6420
vn -0.4366 0.6303 0.6420
vn 0.0968 0.9828 0.1572
vn 0.2867 0.9450 0.1572
vn -0.3052 0.7034 0.6419
vn 0.4153 0.6445 0.6420
vn 0.2815 0.7132 0.6420
vn 0.8710 0.4655 0.1572
vn 0.9450 0.2867 0.1572
vn -0.2034 0.0885 0.9751
vn -0.6496 0.7466 0.1437
vn -0.1741 0.1851 0.9672
vn -0.2474 -0.0751 0.9660
vn -0.2872 -0.9468 0.1451
vn -0.7014 -0.0871 -0.7074
vn -0.6763 -0.2051 -0.7075
vn -0.7015 -0.0860 -0.7074
vn -0.2474 -0.0751 -0.9660
vn -0.2280 -0.1219 -0.9660
vn -0.5127 0.5160 -0.6862
vn -0.5216 0.5223 -0.6746
vn -0.7034 0.3108 -0.6392
vn -0.6362 0.4695 -0.6122
vn -0.7368 0.0281 -0.6756
vn -0.7257 0.0214 -0.6876
vn -0.7755 0.1562 -0.6117
vn -0.6931 0.1379 -0.7075
vn -0.6529 0.2704 -0.7075
vn -0.1999 -0.1640 -0.9660
vn -0.1640 -0.1999 -0.9660
vn -0.5876 0.3926 -0.7075
vn -0.5233 0.4788 -0.7049
vn -0.5243 0.4777 -0.7049
vn -0.6232 -0.3331 -0.7075
vn -0.5463 -0.4483 -0.7075
vn 0.6445 0.4153 -0.6419
vn 0.2867 0.9450 -0.1572
vn -0.4483 -0.5463 -0.7075
vn -0.7066 0.0168 -0.7074
vn -0.7066 0.0179 -0.7074
vn -0.3331 -0.6232 -0.7075
vn -0.2538 0.0505 -0.9659
vn -0.2586 0.0067 -0.9660
vn -0.2586 0.0061 -0.9660
vn -0.2051 -0.6763 -0.7075
vn -0.2155 0.1440 -0.9658
vn -0.2392 0.0991 -0.9659
vn -0.9820 -0.1213 -0.1449
vn -0.9468 -0.2872 -0.1450
vn -0.9820 -0.1210 -0.1449
vn -0.7086 0.0111 -0.7055
vn -0.7299 0.6687 -0.1417
vn -0.8228 0.5499 -0.1433
vn -0.8229 0.5499 -0.1433
vn -0.7296 0.6691 -0.1417
vn 0.6644 -0.7315 -0.1531
vn 0.7239 0.0543 -0.6878
vn -0.8726 -0.4664 -0.1451
vn -0.9892 0.0241 -0.1447
vn -0.9892 0.0245 -0.1447
vn 0.6265 0.7634 -0.1572
vn 0.4655 0.8710 -0.1572
vn 0.7132 0.2815 -0.6420
vn 0.7544 0.1370 -0.6420
vn -0.9705 0.1931 -0.1446
vn -0.1219 -0.2280 -0.9660
vn 0.3501 -0.6821 -0.6419
vn 0.9124 -0.3779 -0.1572
vn 0.9686 -0.1927 -0.1572
vn 0.4765 -0.6007 -0.6419
vn -0.9904 -0.0044 -0.1383
vn -0.9905 0.0150 -0.1370
vn -0.9904 -0.0023 -0.1382
vn -0.2566 0.0037 -0.9665
vn -0.2529 0.0006 -0.9675
vn -0.0750 -0.2474 -0.9660
vn 0.9873 -0.0244 -0.1571
vn 0.9801 0.1211 -0.1571
vn 0.6414 -0.4275 -0.6371
vn 0.5719 -0.5169 -0.6370
vn -0.9142 0.3787 -0.1441
vn -0.9900 -0.0216 -0.1395
vn -0.2872 -0.9468 -0.1451
vn -0.4664 -0.8726 -0.1451
vn 0.7634 0.6265 -0.1572
vn 0.7666 -0.0128 -0.6420
vn -0.2034 0.0885 -0.9751
vn 0.7494 -0.1621 -0.6420
vn 0.8710 0.4655 -0.1572
vn -0.7648 -0.6277 -0.1451
vn -0.6277 -0.7648 -0.1451
vn 0.9450 0.2867 -0.1572
vn 0.7034 -0.3052 -0.6420
vn -0.2568 -0.0314 -0.9660
vn -0.2567 -0.0320 -0.9660
vn 0.9882 -0.0005 -0.1531
vn 0.4461 -0.5727 -0.6877
vn 0.5362 0.8441 0.0033
vn 0.7071 -0.0000 -0.7071
vt -0.009766 1.000000
vt -0.000000 1.000000
vt -0.000000 0.000000
vt -0.009766 0.000000
vt 1.000000 0.000000
vt 1.009766 0.000000
vt 1.009766 1.000000
vt 1.000000 1.000000
vt 0.294682 0.000000
vt 0.294682 0.068597
vt 0.277249 0.089665
vt 0.000000 0.000000
vt 0.530877 0.804668
vt 0.591445 0.788605
vt 0.469123 0.804668
vt 0.216642 0.688825
vt 0.196522 0.688825
vt 0.196947 0.676968
vt 0.216216 0.676967
vt 0.229315 0.778494
vt 0.225936 0.861107
vt 0.217489 0.860892
vt 0.220879 0.778018
vt 0.088763 0.685807
vt 0.090273 0.676967
vt 0.099618 0.677964
vt 0.097838 0.688206
vt -0.007879 0.751467
vt -0.016820 0.775916
vt -0.024101 0.773340
vt -0.012016 0.743627
vt -0.088549 0.919854
vt -0.093146 0.837299
vt -0.085451 0.837601
vt -0.080927 0.918699
vt 0.315670 0.750242
vt 0.315790 0.740128
vt 0.324922 0.741015
vt 0.324847 0.749705
vt 0.245512 1.040091
vt 0.241075 1.109590
vt 0.232645 1.109017
vt 0.237329 1.040076
vt -0.085068 1.093237
vt -0.056390 1.029776
vt -0.052513 1.037821
vt -0.078000 1.096435
vt 0.245951 0.676967
vt 0.265220 0.676967
vt 0.265220 0.686487
vt 0.245951 0.686487
vt 0.305376 0.735937
vt 0.305675 0.747815
vt 0.132804 1.023129
vt 0.142801 1.017046
vt 0.144485 1.029334
vt 0.134586 1.033557
vt 0.265646 0.698344
vt 0.245526 0.698344
vt 0.196508 0.709450
vt 0.216655 0.709450
vt 0.307942 0.757075
vt 1.179853 0.086535
vt 1.179853 0.007016
vt 1.200000 0.007016
vt 1.200000 0.086535
vt 0.812652 0.503139
vt 0.807351 0.425035
vt 0.817492 0.424776
vt 0.822782 0.502018
vt 0.119583 0.998813
vt 0.111014 0.916458
vt 0.120280 0.915881
vt 0.128964 0.997540
vt 0.906989 0.798756
vt 0.943592 0.867868
vt 0.934618 0.873107
vt 0.897735 0.803160
vt 0.123562 1.025544
vt 0.109334 0.835229
vt 0.114307 0.755654
vt 0.123207 0.756577
vt 0.118447 0.835420
vt 1.200000 -0.072503
vt 1.179853 -0.072503
vt 1.179853 -0.152022
vt 1.200000 -0.152022
vt 0.305364 0.676967
vt 0.315793 0.677082
vt -0.068475 1.000062
vt -0.061194 0.997487
vt 0.240365 0.925450
vt 0.243744 1.008064
vt 0.235308 1.008539
vt 0.231918 0.925665
vt 1.179853 0.325091
vt 1.179853 0.245572
vt 1.200000 0.245572
vt 1.200000 0.325091
vt 0.128826 0.835593
vt 0.130834 0.915180
vt 0.196508 1.027526
vt 0.196508 0.948007
vt 0.216655 0.948007
vt 0.216655 1.027526
vt 0.133344 0.757598
vt 0.994688 0.980021
vt 0.970311 0.946342
vt 0.977988 0.941087
vt 1.002296 0.974410
vt 0.134498 0.678371
vt 0.144485 0.680531
vt 0.216655 0.868488
vt 0.196508 0.868488
vt 0.196508 0.788969
vt 0.216655 0.788969
vt 1.179853 0.166054
vt 1.200000 0.166054
vt 0.986621 0.934942
vt 0.867179 0.731039
vt 0.842691 0.656666
vt 0.852497 0.653881
vt 0.876721 0.727448
vt 0.241250 0.760106
vt 0.239533 0.842771
vt 0.231084 0.842726
vt 0.232806 0.759800
vt -0.048772 0.680094
vt -0.074602 0.757103
vt -0.082098 0.755357
vt -0.055802 0.676967
vt 1.200000 0.404610
vt 1.179853 0.404610
vt 0.824474 0.580524
vt 0.834476 0.578564
vt 0.324922 0.677105
vt 0.139601 0.995821
vt 1.179853 -0.191829
vt 1.200000 -0.191829
vt -0.188468 0.181761
vt -0.192318 0.262896
vt -0.200000 0.263261
vt -0.196081 0.180671
vt 1.010766 0.967739
vt 1.179853 0.484129
vt 1.200000 0.484129
vt -0.154338 0.420097
vt -0.113869 0.490524
vt -0.120144 0.494970
vt -0.161338 0.423280
vt 0.265659 0.757312
vt 0.245512 0.757312
vt 0.152678 0.663301
vt 0.192893 0.669313
vt 0.192117 0.676967
vt 0.151181 0.670847
vt 0.926714 0.877676
vt 0.889675 0.806976
vt 1.118282 0.796427
vt 1.108718 0.714037
vt 1.117125 0.713192
vt 1.126659 0.795323
vt -0.180804 0.343303
vt -0.188279 0.345109
vt -0.060849 0.552060
vt 0.002821 0.602497
vt -0.001362 0.608950
vt -0.066174 0.557609
vt 1.170370 1.039411
vt 1.179853 1.079701
vt 1.171643 1.081700
vt 1.162131 1.041282
vt 0.858799 0.734203
vt 0.834077 0.659122
vt 0.815687 0.582255
vt 0.125653 0.676967
vt 1.110127 0.630806
vt 1.101697 0.631392
vt 1.095310 0.465647
vt 1.103760 0.465582
vt 1.105670 0.548243
vt 1.097227 0.548569
vt 1.145001 0.960128
vt 1.130380 0.878483
vt 1.138719 0.877122
vt 1.153294 0.958510
vt -0.048772 1.029982
vt 0.125073 1.034544
vt -0.052253 1.021935
vt 0.074858 0.640026
vt 0.071966 0.647153
vt 0.803753 0.504134
vt 0.798356 0.425292
vt 0.237082 0.676967
vt 0.245512 0.677533
vt 0.774380 -0.146305
vt 0.731402 -0.077310
vt 0.722116 -0.082564
vt 0.765604 -0.152378
vt 0.808420 0.346024
vt 0.799352 0.345532
vt 0.467750 -0.154888
vt 0.395714 -0.117359
vt 0.391530 -0.123812
vt 0.464858 -0.162015
vt 0.107645 0.694212
vt 0.109334 0.682141
vt 0.296232 0.693914
vt 0.285818 0.698105
vt 0.286117 0.686227
vt 0.296112 0.683800
vt 0.288384 0.676967
vt 0.087722 0.953096
vt 0.083178 0.873379
vt 0.093571 0.873212
vt 0.098110 0.952060
vt 0.326719 -0.072471
vt 0.332044 -0.066922
vt 0.279024 -0.005387
vt 0.272749 -0.009833
vt 0.085278 0.793569
vt 0.093994 0.713341
vt 0.104441 0.715060
vt 0.095599 0.794277
vt 0.694409 -0.005093
vt 0.663545 0.069959
vt 0.653504 0.066313
vt 0.684708 -0.009560
vt 1.010767 0.424224
vt 1.012683 0.341302
vt 1.021126 0.341627
vt 1.019216 0.424288
vt 0.639028 0.147335
vt 0.628671 0.144512
vt 0.098953 1.033091
vt 0.109334 1.030885
vt 0.798356 -0.179636
vt 0.789841 -0.186221
vt 0.620949 0.225703
vt 0.610641 0.223777
vt -0.030228 1.016299
vt -0.004398 1.093308
vt -0.011428 1.096435
vt -0.037724 1.018045
vt 0.594825 0.381679
vt 0.599461 0.302778
vt 0.609651 0.303809
vt 0.605113 0.381846
vt -0.036554 0.854704
vt -0.041077 0.935802
vt -0.048772 0.936104
vt -0.044176 0.853549
vt 0.713936 -0.087180
vt 0.757765 -0.157638
vt 0.285806 0.757075
vt 0.296235 0.756960
vt 0.076131 0.792970
vt 0.084778 0.712064
vt 0.231084 0.746466
vt 0.222900 0.746482
vt 0.676180 -0.013476
vt 0.782117 -0.191829
vt 1.032582 0.176678
vt 1.025583 0.259064
vt 1.017154 0.258479
vt 1.024175 0.175833
vt 0.089905 1.034485
vt 0.078672 0.953998
vt 0.238555 0.065040
vt 0.231555 0.061857
vt 0.216655 0.943831
vt 0.225104 0.943786
vt 0.226821 1.026451
vt 0.218377 1.026757
vt 0.305364 0.693027
vt 0.305364 0.756937
vt -0.040694 0.680166
vt -0.033626 0.676967
vt -0.008139 0.735581
vt 0.204614 0.140028
vt 0.212089 0.141834
vt 1.095310 -0.189830
vt 1.085828 -0.149540
vt 1.077588 -0.151412
vt 1.087101 -0.191829
vt 0.074053 0.873536
vt 0.222653 1.109590
vt 0.231084 1.109024
vt 0.305289 0.684337
vt 0.590419 0.301890
vt 0.601577 0.222123
vt 0.596811 0.460690
vt 0.587790 0.461305
vt 0.585785 0.381542
vt 1.042116 0.094547
vt 1.033739 0.093444
vt -0.004398 0.743420
vt 1.045837 0.011387
vt 1.054176 0.012749
vt 0.619652 0.142075
vt 0.644680 0.063120
vt 1.068752 -0.068639
vt 1.060458 -0.070257
vt 0.544073 -0.185709
vt 0.585009 -0.191829
vt 0.585785 -0.184175
vt 0.545570 -0.178163
vt 0.226646 0.676967
vt 0.218217 0.677540
vt 0.200575 0.222241
vt 0.192893 0.221876
vt 0.204425 0.303376
vt 0.196812 0.304466
vt 1.095950 0.382707
vt 1.104397 0.382902
vt 0.818837 0.346613
vt 0.607079 0.460001
vt 0.164619 0.688825
vt 0.144499 0.688825
vt 0.144924 0.676967
vt 0.164193 0.676967
vt 0.178557 0.778511
vt 0.174546 0.861097
vt 0.166101 0.860817
vt 0.170125 0.777971
vt 0.014436 0.685673
vt 0.016131 0.676967
vt 0.025348 0.678166
vt 0.023355 0.688251
vt -0.150430 0.752600
vt -0.160516 0.776599
vt -0.167667 0.773682
vt -0.154192 0.744573
vt -0.138082 0.958947
vt -0.146573 0.876701
vt -0.138872 0.876639
vt -0.130523 0.957433
vt 0.354786 0.750242
vt 0.354906 0.740128
vt 0.364039 0.741015
vt 0.363963 0.749705
vt 0.196508 1.081445
vt 0.192603 1.150975
vt 0.184169 1.150467
vt 0.188325 1.081492
vt -0.126413 1.131972
vt -0.100765 1.067227
vt -0.096512 1.075080
vt -0.119202 1.134833
vt 0.266098 0.676967
vt 0.285367 0.676967
vt 0.285367 0.686487
vt 0.266098 0.686487
vt 0.344492 0.735937
vt 0.344792 0.747815
vt 0.062185 1.062713
vt 0.072115 1.056399
vt 0.074053 1.068720
vt 0.064184 1.073163
vt 0.285793 0.698345
vt 0.265672 0.698345
vt 0.144485 0.709450
vt 0.164632 0.709450
vt 0.347058 0.757075
vt 1.200000 0.802204
vt 1.200000 0.881723
vt 1.179853 0.881723
vt 1.179853 0.802204
vt 0.605361 0.539272
vt 0.615537 0.537732
vt 0.048410 1.038529
vt 0.038159 0.955899
vt 0.047463 0.955136
vt 0.057817 1.037063
vt 0.712498 0.833754
vt 0.752226 0.902013
vt 0.743383 0.907661
vt 0.703339 0.838572
vt 0.052942 1.065325
vt 0.034857 0.874266
vt 0.038277 0.794161
vt 0.047243 0.794917
vt 0.044023 0.874276
vt 1.179853 0.961242
vt 1.200000 0.961242
vt 1.200000 1.040761
vt 1.179853 1.040761
vt 0.344481 0.676967
vt 0.354909 0.677082
vt -0.114240 1.038118
vt -0.107089 1.035201
vt 0.190484 0.966846
vt 0.194495 1.049432
vt 0.186062 1.049971
vt 0.182039 0.967126
vt 1.200000 0.563648
vt 1.200000 0.643167
vt 1.179853 0.643167
vt 1.179853 0.563648
vt 0.054461 0.874245
vt 0.058060 0.954221
vt 0.144486 1.027526
vt 0.144486 0.948007
vt 0.164632 0.948007
vt 0.164632 1.027526
vt 0.057454 0.795738
vt 0.048142 0.715782
vt 0.055437 0.676967
vt 0.064160 0.678671
vt 0.056901 0.717198
vt 0.066863 0.718911
vt 0.164632 0.868488
vt 0.144486 0.868488
vt 0.144485 0.788969
vt 0.164632 0.788969
vt 1.200000 0.722685
vt 1.179853 0.722685
vt 0.790007 0.974666
vt 0.798356 0.967935
vt 0.669592 0.767033
vt 0.641876 0.692976
vt 0.651659 0.689769
vt 0.679075 0.763023
vt 0.190104 0.801500
vt 0.189020 0.884176
vt 0.180570 0.884195
vt 0.181658 0.801259
vt -0.109675 0.717575
vt -0.131839 0.795719
vt -0.139409 0.794329
vt -0.116845 0.714785
vt 0.620417 0.616880
vt 0.630431 0.614498
vt 0.364039 0.677105
vt 0.068476 1.035123
vt 0.164632 1.067333
vt 0.144486 1.067333
vt 0.074053 0.680901
vt 0.257120 0.456274
vt 0.304076 0.522552
vt 0.298249 0.527572
vt 0.250452 0.460105
vt 0.285806 0.757312
vt 0.265659 0.757312
vt -0.093146 0.680425
vt -0.100019 0.676967
vt 0.735592 0.912592
vt 0.695360 0.842749
vt 1.039479 0.837549
vt 1.028645 0.755317
vt 1.037038 0.754343
vt 1.047838 0.836317
vt 0.223501 0.382331
vt 0.216231 0.384837
vt 0.782360 0.980136
vt 0.362684 0.578791
vt 0.430844 0.622972
vt 0.427290 0.629793
vt 0.357909 0.584819
vt 0.196508 0.677599
vt 0.193735 0.718897
vt 0.185300 0.718396
vt 0.188082 0.676968
vt 0.661263 0.770564
vt 0.633284 0.695802
vt 0.611620 0.618982
vt 1.028769 0.672075
vt 1.020350 0.672790
vt 1.011406 0.507164
vt 1.019853 0.506968
vt 1.023039 0.589590
vt 1.014602 0.590046
vt 1.068721 1.000818
vt 1.052842 0.919410
vt 1.061159 0.917920
vt 1.076988 0.999073
vt -0.093146 1.067073
vt 0.054639 1.074343
vt -0.097004 1.059200
vt 1.095310 1.079700
vt 1.087101 1.081700
vt 0.506111 0.653511
vt 0.585785 0.669313
vt 0.585009 0.676967
vt 0.503907 0.660881
vt 0.596421 0.540635
vt 1.010766 -0.179601
vt 0.964339 -0.111409
vt 0.955213 -0.117061
vt 1.002262 -0.186300
vt 0.113219 -0.168373
vt 0.037952 -0.137834
vt 0.034398 -0.144655
vt 0.111015 -0.175743
vt 0.032910 0.694411
vt 0.034857 0.682518
vt 0.335348 0.693914
vt 0.324934 0.698105
vt 0.325234 0.686228
vt 0.335228 0.683801
vt 0.327500 0.676968
vt 0.007657 0.952915
vt 0.004760 0.872847
vt 0.015191 0.872900
vt 0.018068 0.952100
vt -0.034983 -0.099682
vt -0.030208 -0.093653
vt -0.088817 -0.037415
vt -0.094643 -0.042435
vt 0.008532 0.792828
vt 0.019023 0.713014
vt 0.029269 0.714926
vt 0.018902 0.793747
vt 0.924181 -0.040049
vt 0.890090 0.034412
vt 0.880109 0.030339
vt 0.914575 -0.044937
vt 1.099145 0.299825
vt 1.107583 0.300280
vt 0.862307 0.111467
vt 0.851975 0.108211
vt 0.017194 1.032713
vt 0.027554 1.030956
vt 0.034857 1.070472
vt 0.024461 1.072744
vt 0.840976 0.189778
vt 0.830658 0.187428
vt -0.185266 1.016080
vt -0.163102 1.094224
vt -0.170272 1.097015
vt -0.192836 1.017470
vt 0.816260 0.266650
vt 0.826495 0.268093
vt -0.183950 0.854367
vt -0.192299 0.935161
vt -0.200000 0.935098
vt -0.191509 0.852853
vt 0.947121 -0.122057
vt 0.994360 -0.191829
vt 0.324922 0.757075
vt 0.335351 0.756960
vt -0.000603 0.792029
vt 0.009899 0.711549
vt 0.180570 0.746498
vt 0.172387 0.746451
vt 0.906130 -0.049224
vt 0.015399 1.074440
vt 0.008150 1.034120
vt 1.121581 0.135528
vt 1.113312 0.217796
vt 1.104893 0.217080
vt 1.113188 0.134553
vt -0.001468 0.953637
vt -0.135772 0.028864
vt -0.142440 0.025032
vt 0.164632 0.943747
vt 0.173082 0.943767
vt 0.174166 1.026442
vt 0.165720 1.026683
vt 0.344481 0.693027
vt 0.344481 0.756937
vt -0.179840 0.679828
vt -0.172629 0.676967
vt -0.149939 0.736720
vt -0.176662 0.100301
vt -0.169392 0.102807
vt 0.177797 1.109046
vt 0.180570 1.150344
vt 0.172145 1.150975
vt 0.169362 1.109547
vt -0.004398 0.872811
vt 0.344405 0.684337
vt 0.807177 0.265397
vt 0.821584 0.185401
vt 1.132381 0.053553
vt 1.124022 0.052321
vt -0.146573 0.744727
vt 1.137385 -0.029539
vt 1.145702 -0.028049
vt 0.842976 0.105397
vt 0.871336 0.026769
vt 1.161531 -0.109203
vt 1.153264 -0.110948
vt -0.153445 1.134832
vt -0.146573 1.131375
vt 1.179853 -0.189830
vt 1.171643 -0.191829
vt 0.192893 -0.184175
vt 0.192117 -0.191829
vt 0.176665 0.676967
vt 0.168231 0.677476
vt 0.705318 0.000000
vt 0.722751 0.089665
vt 0.705318 0.068597
vt 0.791039 0.225930
vt 0.761928 0.153314
vt 0.238072 0.153314
vt 0.208961 0.225930
vt 0.815018 0.386667
vt 0.808965 0.304724
vt 0.801453 0.508593
vt 0.813501 0.427836
vt 0.186499 0.427836
vt 0.198546 0.508593
vt 0.000000 1.000000
vt 0.184982 0.386667
vt 0.222179 0.584665
vt 0.777821 0.584664
vt 0.699846 0.711350
vt 0.743512 0.653127
vt 0.648499 0.757095
vt 0.191035 0.304724
vt 0.256488 0.653127
vt 0.300155 0.711350
vt 0.351501 0.757095
vt 0.408555 0.788605
s 1
usemtl wall_mp_1
f 6/1/1 8/2/1 7/3/1 5/4/1
f 1/5/4 3/6/4 4/7/4 2/8/4
f 17/13/5 15/14/5 2/8/5 163/15/5
f 126/9/5 129/10/5 123/11/5 5/12/5
f 1/5/5 11/599/5 219/600/5 213/595/5
f 140/603/5 146/604/5 6/605/5 5/12/5
f 11/599/5 1/5/5 224/602/5
f 5/12/5 137/606/5 140/603/5
f 6/605/5 146/604/5 154/607/5
f 216/608/5 12/601/5 2/8/5
f 120/597/5 14/598/5 5/12/5 123/11/5
f 143/612/5 137/606/5 5/12/5 14/598/5
f 10/592/5 1/5/5 210/593/5 9/594/5
f 213/595/5 13/596/5 210/593/5 1/5/5
f 12/601/5 224/602/5 1/5/5 2/8/5
f 238/609/5 231/610/5 216/608/5 2/8/5
f 151/613/5 157/614/5 6/605/5 154/607/5
f 160/615/5 166/616/5 6/605/5 157/614/5
f 15/14/5 16/611/5 238/609/5 2/8/5
f 6/605/5 166/616/5 163/15/5 2/8/5
usemtl wall_mp_1_rear
f 18/5/2 20/6/2 21/7/2 19/8/2
f 28/9/3 29/10/3 27/11/3 22/12/3
f 46/592/3 18/5/3 49/593/3 38/594/3
f 52/595/3 70/596/3 49/593/3 18/5/3
f 26/597/3 34/598/3 22/12/3 27/11/3
f 18/5/3 61/599/3 58/600/3 52/595/3
f 67/601/3 64/602/3 18/5/3 19/8/3
f 82/609/3 73/610/3 55/608/3 19/8/3
f 76/14/3 79/611/3 82/609/3 19/8/3
f 298/613/3 303/614/3 23/605/3 35/607/3
f 31/603/3 33/604/3 23/605/3 22/12/3
f 306/615/3 37/616/3 23/605/3 303/614/3
f 32/612/3 30/606/3 22/12/3 34/598/3
f 85/13/3 76/14/3 19/8/3 36/15/3
f 23/605/3 37/616/3 36/15/3 19/8/3
f 61/599/3 18/5/3 64/602/3
f 22/12/3 30/606/3 31/603/3
f 23/605/3 33/604/3 35/607/3
f 55/608/3 67/601/3 19/8/3
f 23/1/442 25/2/442 24/3/442 22/4/442
usemtl metal_mp_6
f 44/16/6 130/17/6 131/18/7 45/19/7
f 179/20/8 178/21/9 120/22/10 123/23/11
f 170/24/12 171/25/13 134/26/13 133/27/14
f 170/28/15 180/29/16 179/30/17 169/31/18
f 107/32/19 99/33/20 98/34/20 106/35/19
f 43/36/21 42/37/22 89/38/23 90/39/21
f 88/40/24 97/41/24 46/42/25 38/43/26
f 97/44/27 88/45/28 89/46/29 96/47/27
f 45/48/7 131/49/7 136/50/30 40/51/30
f 39/52/31 42/37/32 43/36/33 40/53/34
f 41/54/35 44/55/36 45/56/37 43/57/33
f 40/51/30 136/50/30 135/58/38 39/59/38
f 125/60/39 130/17/6 44/16/6 51/61/39
f 40/53/34 43/36/33 45/62/37
f 153/63/40 156/64/41 57/65/41 74/66/40
f 78/67/42 86/68/43 87/69/43 77/70/42
f 119/71/44 106/72/45 72/73/46 50/74/47
f 57/75/48 68/76/49 69/77/49 56/78/48
f 91/79/50 119/71/44 50/74/47 41/54/51
f 98/80/52 108/81/53 59/82/53 53/83/52
f 68/84/54 147/85/54 141/86/55 65/87/55
f 39/52/31 48/88/56 47/89/56 42/37/32
f 118/90/57 107/32/19 106/35/19 119/91/58
f 107/92/59 118/93/60 49/94/61 70/95/62
f 167/96/63 161/97/64 81/98/64 77/99/63
f 54/100/65 71/101/66 72/73/66 53/83/65
f 138/102/67 145/103/68 60/104/68 63/105/67
f 60/106/69 54/100/65 53/83/65 59/82/69
f 100/107/70 102/108/71 66/109/72 62/110/73
f 59/82/69 62/111/74 63/112/75 60/106/69
f 54/113/76 150/114/76 121/115/77 71/116/77
f 161/97/64 158/117/78 84/118/78 81/98/64
f 66/109/79 69/77/49 68/76/49 65/119/80
f 75/120/81 83/121/82 84/122/82 74/123/81
f 109/124/83 99/125/84 52/126/85 58/127/86
f 100/128/87 108/129/88 109/130/88 101/131/89
f 77/99/63 87/132/90 164/133/90 167/96/63
f 158/117/78 153/63/40 74/66/40 84/118/78
f 83/121/82 80/134/91 81/135/91 84/122/82
f 80/134/91 78/67/42 77/70/42 81/135/91
f 74/123/81 57/75/48 56/78/48 75/120/81
f 96/136/92 89/38/23 42/37/22 47/89/92
f 118/93/60 88/40/93 38/43/94 49/94/61
f 71/101/66 51/137/95 50/74/96 72/73/66
f 65/87/55 141/86/55 138/138/67 63/139/67
f 339/140/97 93/141/98 92/142/98 340/143/97
f 62/110/74 66/109/79 65/119/80 63/144/75
f 145/103/68 150/114/76 54/113/76 60/104/68
f 41/54/35 50/74/96 51/137/95 44/55/36
f 121/115/77 125/60/39 51/61/39 71/116/77
f 242/145/99 164/133/90 87/132/90 309/146/99
f 116/147/100 115/148/101 114/149/101 117/150/100
f 39/59/38 135/58/38 127/151/102 48/152/102
f 102/153/103 100/154/87 101/155/89 103/156/104
f 104/157/105 95/158/106 56/78/106 69/77/105
f 73/159/107 82/160/108 114/161/109 111/162/110
f 112/163/111 116/147/100 117/150/100 113/164/111
f 102/108/71 104/157/105 69/77/105 66/109/72
f 110/165/112 95/166/113 94/167/113 111/168/112
f 106/72/45 98/80/52 53/83/52 72/73/46
f 103/169/114 101/170/115 61/171/116 64/172/117
f 95/158/106 110/173/118 75/120/118 56/78/106
f 115/174/119 116/175/120 80/134/120 83/121/119
f 62/111/73 59/82/53 108/81/53 100/176/70
f 110/173/118 115/174/119 83/121/119 75/120/118
f 117/177/121 114/161/109 82/160/108 79/178/122
f 85/179/123 92/180/124 113/181/125 76/182/126
f 67/183/127 55/184/128 94/185/129 105/186/130
f 111/162/110 94/185/129 55/184/128 73/159/107
f 88/45/28 90/187/131 89/46/29
f 90/188/132 91/79/50 41/54/51 43/57/132
f 91/189/133 90/187/131 88/45/28
f 105/186/130 103/169/114 64/172/117 67/183/127
f 99/33/20 109/130/88 108/129/88 98/34/20
f 99/125/84 107/92/59 70/95/62 52/126/85
f 104/190/134 102/153/103 103/156/104 105/191/134
f 105/191/134 94/167/113 95/166/113 104/190/134
f 112/192/135 93/193/136 86/68/136 78/67/135
f 116/175/120 112/192/135 78/67/135 80/134/120
f 113/181/125 117/177/121 79/178/122 76/182/126
f 61/194/116 101/195/115 109/124/83 58/127/86
f 119/91/58 91/189/133 88/45/28 118/90/57
f 141/196/137 147/197/138 148/198/138 142/199/139
f 115/148/101 110/165/112 111/168/112 114/149/101
f 113/164/111 92/142/98 93/141/98 112/163/111
f 310/200/140 86/68/136 93/193/136 339/201/140
f 173/202/141 182/203/142 181/204/142 174/205/141
f 130/206/143 133/27/144 134/26/145 131/207/146
f 132/208/147 135/209/148 136/210/149 134/211/145
f 131/212/146 134/211/145 136/210/149
f 144/213/150 149/214/151 150/215/151 145/216/150
f 183/217/152 184/218/152 191/219/153 192/220/153
f 122/221/154 124/222/155 125/223/156 121/224/154
f 156/225/157 153/226/158 152/227/158 155/228/157
f 163/229/159 166/230/160 198/231/161 196/232/162
f 124/222/155 133/27/144 130/206/143 125/223/156
f 153/226/158 158/233/163 159/234/163 152/227/158
f 139/235/164 144/213/150 145/216/150 138/236/165
f 121/224/154 150/215/151 149/214/151 122/221/154
f 138/237/165 141/196/137 142/199/139 139/238/164
f 147/197/138 156/225/157 155/228/157 148/198/138
f 158/233/163 161/239/166 162/240/166 159/234/163
f 190/241/167 185/242/168 186/243/169 189/244/167
f 57/65/41 156/64/41 147/85/54 68/84/54
f 165/245/170 168/246/171 167/247/171 164/248/170
f 168/246/171 162/240/166 161/239/166 167/247/171
f 177/249/172 176/250/173 175/251/173 178/252/172
f 142/199/174 148/198/175 173/253/175 187/254/176
f 127/255/177 135/209/148 132/208/147 128/256/177
f 124/222/178 122/221/179 177/257/180 180/258/181
f 178/252/172 179/30/17 180/29/16 177/249/172
f 169/259/182 179/20/8 123/23/11 129/260/183
f 182/261/184 173/253/175 148/198/175 155/228/184
f 187/254/176 185/262/185 139/238/186 142/199/174
f 192/263/187 194/264/188 160/265/189 157/266/190
f 185/267/185 190/268/191 144/213/191 139/235/186
f 191/219/153 193/269/192 194/270/192 192/220/153
f 14/271/193 175/272/194 189/273/195 143/274/196
f 178/21/9 175/272/194 14/271/193 120/22/10
f 172/275/197 199/276/198 128/256/198 132/208/199
f 169/31/18 200/277/200 199/278/200 172/279/201
f 181/204/142 182/203/142 184/218/152 183/217/152
f 198/280/202 194/270/192 193/269/192 197/281/202
f 186/282/203 188/283/204 140/284/205 137/285/206
f 194/264/188 198/231/161 166/230/160 160/265/189
f 176/286/207 177/257/180 122/221/179 149/214/207
f 137/287/206 143/274/196 189/273/195 186/288/203
f 171/289/208 172/275/197 132/208/199 134/211/208
f 197/290/209 193/291/210 162/240/210 168/246/209
f 165/245/211 241/292/212 248/293/212 195/294/211
f 183/295/213 192/263/187 157/266/190 151/296/214
f 169/31/18 171/297/215 170/28/15
f 172/279/201 171/297/215 169/31/18
f 149/214/207 144/213/191 190/268/191 176/286/207
f 154/298/216 181/299/217 183/295/213 151/296/214
f 152/227/218 159/234/219 191/300/219 184/301/218
f 184/301/218 182/261/184 155/228/184 152/227/218
f 180/258/181 170/24/12 133/27/14 124/222/178
f 174/302/220 181/299/217 154/298/216 146/303/221
f 188/304/222 186/305/169 185/306/168 187/307/223
f 176/250/173 190/241/167 189/244/167 175/251/173
f 193/291/210 191/300/219 159/234/219 162/240/210
f 188/283/204 174/302/220 146/303/221 140/284/205
f 187/307/223 173/202/141 174/205/141 188/304/222
f 195/294/211 197/290/209 168/246/209 165/245/211
f 200/308/224 169/259/224 129/260/225 126/309/226
f 197/281/202 195/310/227 196/311/227 198/280/202
f 195/310/227 248/312/228 247/313/228 196/311/227
f 36/314/229 340/315/230 92/180/124 85/179/123
f 310/200/231 309/316/231 87/69/43 86/68/43
f 241/292/232 165/245/170 164/248/170 242/317/232
f 206/318/233 281/319/233 282/320/234 207/321/234
f 323/322/235 322/323/236 26/324/237 27/325/238
f 314/326/239 315/327/240 285/328/240 284/329/241
f 314/330/242 324/331/243 323/332/244 313/333/245
f 262/334/246 254/335/247 253/336/247 261/337/246
f 205/338/248 204/339/249 244/340/250 245/341/248
f 243/342/251 252/343/251 10/344/252 9/345/253
f 252/346/254 243/347/255 244/348/256 251/349/254
f 207/350/234 282/351/234 287/352/257 202/353/257
f 201/354/258 204/339/259 205/338/260 202/355/261
f 203/356/262 206/357/263 207/358/264 205/359/260
f 202/353/257 287/352/257 286/360/265 201/361/265
f 278/362/266 281/319/233 206/318/233 212/363/266
f 202/355/261 205/338/260 207/364/264
f 300/365/267 302/366/268 218/367/268 232/368/267
f 235/369/269 241/292/232 242/317/232 234/370/269
f 274/371/270 261/372/271 230/373/272 211/374/273
f 218/375/274 227/376/275 228/377/275 217/378/274
f 246/379/276 274/371/270 211/374/273 203/356/277
f 253/380/278 263/381/279 220/382/279 214/383/278
f 227/384/280 294/385/280 290/386/281 225/387/281
f 201/354/258 209/388/282 208/389/282 204/339/259
f 273/390/283 262/334/246 261/337/246 274/391/284
f 262/392/285 273/393/286 210/394/287 13/395/288
f 311/396/289 307/397/290 237/398/290 234/399/289
f 215/400/291 229/401/292 230/373/292 214/383/291
f 288/402/293 293/403/294 221/404/294 223/405/293
f 221/406/295 215/400/291 214/383/291 220/382/295
f 255/407/296 257/408/297 226/409/298 222/410/299
f 220/382/295 222/410/300 223/411/301 221/406/295
f 215/412/302 297/413/302 275/414/303 229/415/303
f 307/397/290 304/416/304 240/417/304 237/398/290
f 226/418/305 228/377/275 227/376/275 225/419/306
f 233/420/307 239/421/308 240/422/308 232/423/307
f 264/424/309 254/425/310 213/426/311 219/427/312
f 255/428/313 263/429/314 264/430/314 256/431/315
f 234/399/289 242/145/99 309/146/99 311/396/289
f 304/416/304 300/365/267 232/368/267 240/417/304
f 239/421/308 236/432/316 237/433/316 240/422/308
f 236/432/316 235/369/269 234/370/269 237/433/316
f 232/423/307 218/375/274 217/378/274 233/420/307
f 251/434/317 244/340/250 204/339/249 208/389/317
f 273/393/286 243/342/318 9/345/319 210/394/287
f 229/401/292 212/435/320 211/374/321 230/373/292
f 225/436/281 290/437/281 288/402/293 223/405/293
f 222/410/300 226/409/305 225/438/306 223/411/301
f 293/403/294 297/413/302 215/412/302 221/404/294
f 203/356/262 211/374/321 212/435/320 206/357/263
f 275/414/303 278/362/266 212/363/266 229/415/303
f 271/439/322 270/440/323 269/441/323 272/442/322
f 201/361/265 286/360/265 279/443/324 209/444/324
f 257/445/325 255/428/313 256/431/315 258/446/326
f 259/447/327 250/448/328 217/378/328 228/377/327
f 231/449/329 238/450/330 269/451/331 266/452/332
f 267/453/333 271/439/322 272/442/322 268/454/333
f 257/455/297 259/447/327 228/377/327 226/418/298
f 265/456/334 250/457/335 249/458/335 266/459/334
f 261/372/271 253/380/278 214/383/278 230/373/272
f 258/460/336 256/461/337 11/462/338 224/463/339
f 250/448/328 265/464/340 233/420/340 217/378/328
f 270/465/341 271/466/342 236/432/342 239/421/341
f 222/410/299 220/382/279 263/381/279 255/407/296
f 265/464/340 270/465/341 239/421/341 233/420/340
f 272/467/343 269/451/331 238/450/330 16/468/344
f 17/469/345 247/470/346 268/471/347 15/472/348
f 12/473/349 216/474/350 249/475/351 260/476/352
f 266/452/332 249/475/351 216/474/350 231/449/329
f 243/347/255 245/477/353 244/348/256
f 245/478/354 246/379/276 203/356/277 205/359/354
f 246/479/355 245/477/353 243/347/255
f 260/476/352 258/480/336 224/481/339 12/473/349
f 254/335/247 264/430/314 263/429/314 253/336/247
f 254/425/310 262/392/285 13/395/288 213/426/311
f 259/482/356 257/483/325 258/484/326 260/485/356
f 260/485/356 249/458/335 250/457/335 259/482/356
f 267/486/357 248/293/212 241/292/212 235/369/357
f 271/466/342 267/486/357 235/369/357 236/432/342
f 268/471/347 272/467/343 16/468/344 15/472/348
f 11/462/338 256/461/337 264/424/309 219/427/312
f 274/391/284 246/479/355 243/347/255 273/390/283
f 290/487/358 294/488/359 295/489/359 291/490/360
f 270/440/323 265/456/334 266/459/334 269/441/323
f 268/454/333 247/313/228 248/312/228 267/453/333
f 317/491/361 326/492/362 325/493/362 318/494/361
f 281/495/363 284/329/364 285/328/365 282/496/366
f 283/497/367 286/498/368 287/499/369 285/500/365
f 282/501/366 285/500/365 287/499/369
f 292/502/370 296/503/371 297/504/371 293/505/370
f 327/506/372 328/507/372 335/508/373 336/509/373
f 276/510/374 277/511/375 278/512/376 275/513/374
f 302/514/377 300/515/378 299/516/378 301/517/377
f 36/314/229 37/518/379 342/519/380 340/315/230
f 277/511/375 284/329/364 281/495/363 278/512/376
f 300/515/378 304/520/381 305/521/381 299/516/378
f 289/522/382 292/502/370 293/505/370 288/523/383
f 275/513/374 297/504/371 296/503/371 276/510/374
f 288/523/383 290/524/358 291/525/360 289/522/382
f 294/488/359 302/514/377 301/517/377 295/489/359
f 304/520/381 307/526/384 308/527/384 305/521/381
f 334/528/385 329/529/386 330/530/387 333/531/385
f 218/367/268 302/366/268 294/385/280 227/384/280
f 310/200/231 312/532/388 311/533/388 309/316/231
f 312/532/388 308/527/384 307/526/384 311/533/388
f 321/534/389 320/535/390 319/536/390 322/537/389
f 291/490/391 295/489/392 317/538/392 331/539/393
f 279/540/394 286/498/368 283/497/367 280/541/394
f 277/511/395 276/510/396 321/542/397 324/543/398
f 322/537/389 323/332/244 324/331/243 321/534/389
f 313/544/399 323/322/235 27/325/238 29/545/400
f 326/546/401 317/538/392 295/489/392 301/517/401
f 331/547/393 329/548/402 289/522/403 291/525/391
f 336/549/404 338/550/405 306/551/406 303/552/407
f 329/548/402 334/553/408 292/502/408 289/522/403
f 335/508/373 337/554/409 338/555/409 336/509/373
f 34/556/410 319/557/411 333/558/412 32/559/413
f 322/323/236 319/557/411 34/556/410 26/324/237
f 316/560/414 343/561/415 280/541/415 283/497/416
f 313/333/245 344/562/417 343/563/417 316/564/418
f 325/493/362 326/492/362 328/507/372 327/506/372
f 342/565/419 338/555/409 337/554/409 341/566/419
f 330/567/420 332/568/421 31/569/422 30/570/423
f 338/550/405 342/519/380 37/518/379 306/551/406
f 320/571/424 321/542/397 276/510/396 296/503/424
f 30/570/423 32/559/413 333/558/412 330/567/420
f 315/572/425 316/560/414 283/497/416 285/500/425
f 341/573/426 337/574/427 308/527/427 312/532/426
f 327/575/428 336/549/404 303/552/407 298/576/429
f 313/333/245 315/577/430 314/330/242
f 316/564/418 315/577/430 313/333/245
f 296/503/424 292/502/408 334/553/408 320/571/424
f 35/578/431 325/579/432 327/575/428 298/576/429
f 299/516/433 305/521/434 335/580/434 328/581/433
f 328/581/433 326/546/401 301/517/401 299/516/433
f 324/543/398 314/326/239 284/329/241 277/511/395
f 318/582/435 325/579/432 35/578/431 33/583/436
f 332/584/437 330/530/387 329/529/386 331/585/438
f 320/535/390 334/528/385 333/531/385 319/536/390
f 337/574/427 335/580/434 305/521/434 308/527/427
f 332/586/421 318/582/435 33/583/436 31/587/422
f 331/588/438 317/491/361 318/494/361 332/589/437
f 339/201/140 341/573/426 312/532/426 310/200/140
f 344/590/439 313/544/439 29/545/440 28/591/441
f 341/566/419 339/140/97 340/143/97 342/565/419
f 196/232/162 247/470/346 17/469/345 163/229/159
