# Blender 5.0.1
# www.blender.org
mtllib wall_1_3_half.mtl
o wall_1_3_half
v 1.000000 0.000000 0.060000
v 1.000000 3.000000 0.060000
v 1.000000 0.000000 -0.060000
v 1.000000 3.000000 -0.060000
v 1.030000 0.000000 0.030000
v 1.030000 3.000000 0.030000
v 1.030000 0.000000 -0.030000
v 1.030000 3.000000 -0.030000
v -1.000000 0.000000 -0.060000
v -1.000000 3.000000 -0.060000
v -1.000000 0.000000 0.060001
v -1.000000 3.000000 0.060000
v -1.030000 0.000000 -0.030000
v -1.030000 3.000000 -0.030000
v -1.030000 0.000000 0.030001
v -1.030000 3.000000 0.030000
vn -0.0000 -0.0000 -1.0000
vn 0.7071 -0.0000 -0.7071
vn 0.7071 -0.0000 0.7071
vn -0.7071 -0.0000 0.7071
vn -0.7071 -0.0000 -0.7071
vn -0.0000 -0.0000 1.0000
vt 0.750000 0.000000
vt 0.250000 0.000000
vt 0.250000 1.000000
vt 0.750000 1.000000
vt 0.162761 0.000000
vt 0.162761 1.000000
vt 0.152995 1.000000
vt 0.152995 0.000000
vt 0.837239 1.000000
vt 0.837240 0.000000
vt 0.847006 0.000000
vt 0.847006 1.000000
vt -0.172525 0.000000
vt -0.172525 1.000000
vt -0.162760 1.000000
vt -0.162760 0.000000
vt 1.172526 1.000000
vt 1.172528 0.000000
vt 1.162762 0.000000
vt 1.162762 1.000000
vt 0.250000 0.000000
vt 0.250000 1.000000
s 0
usemtl wall_mp_1
f 2/9/3 1/10/3 5/11/3 6/12/3
f 11/13/4 12/14/4 16/15/4 15/16/4
f 11/21/6 1/1/6 2/4/6 12/22/6
usemtl wall_mp_1_rear
f 3/1/1 9/2/1 10/3/1 4/4/1
f 3/5/2 4/6/2 8/7/2 7/8/2
f 10/17/5 9/18/5 13/19/5 14/20/5
