# Blender 5.0.1
# www.blender.org
mtllib wall_1_plain.mtl
o wall_1_plain
v 2.000000 0.000000 0.060000
v 2.000000 3.000000 0.060000
v 2.000000 0.000000 -0.060000
v 2.000000 3.000000 -0.060000
v 2.030000 0.000000 0.030000
v 2.030000 3.000000 0.030000
v 2.030000 0.000000 -0.030000
v 2.030000 3.000000 -0.030000
v -2.000000 0.000000 -0.060000
v -2.000000 3.000000 -0.060000
v -2.000000 0.000000 0.060001
v -2.000000 3.000000 0.060000
v -2.030000 0.000000 -0.030000
v -2.030000 3.000000 -0.030000
v -2.030000 0.000000 0.030001
v -2.030000 3.000000 0.030000
vn -0.0000 -0.0000 -1.0000
vn 0.7071 -0.0000 -0.7071
vn 0.7071 -0.0000 0.7071
vn -0.7071 -0.0000 0.7071
vn -0.7071 -0.0000 -0.7071
vn -0.0000 -0.0000 1.0000
vt 1.000000 0.000000
vt -0.000000 0.000000
vt -0.000000 1.000000
vt 1.000000 1.000000
vt -0.000000 0.000000
vt -0.000000 1.000000
vt -0.009766 1.000000
vt -0.009766 0.000000
vt 1.000000 1.000000
vt 1.000000 0.000000
vt 1.009766 0.000000
vt 1.009766 1.000000
vt -0.009766 0.000000
vt -0.009766 1.000000
vt -0.000000 1.000000
vt -0.000000 0.000000
vt 1.000000 0.000000
vt 1.000000 1.000000
s 0
usemtl wall_mp_1
f 2/9/3 1/10/3 5/11/3 6/12/3
f 11/13/4 12/14/4 16/15/4 15/16/4
f 11/2/6 1/1/6 2/4/6 12/3/6
usemtl wall_mp_1_rear
f 3/1/1 9/2/1 10/3/1 4/4/1
f 3/5/2 4/6/2 8/7/2 7/8/2
f 10/12/5 9/11/5 13/17/5 14/18/5
