# Blender 5.0.1
# www.blender.org
mtllib wall_1_tunnel_hole_2.mtl
o wall_1_tunnel_hole_2
v 2.000000 0.000000 0.060000
v 2.000000 3.000000 0.060000
v 2.030000 0.000000 0.030000
v 2.030000 3.000000 0.030000
v -2.000000 0.000000 0.060001
v -2.000000 3.000000 0.060000
v -2.030000 0.000000 0.030001
v -2.030000 3.000000 0.030000
v -0.821272 0.205791 0.060000
v 0.891006 0.268994 0.060000
v 1.235860 0.914172 0.060000
v 1.260072 1.160000 0.060000
v 0.974049 1.959381 0.060000
v -1.260070 1.160000 0.060000
v -0.365780 2.365814 0.060000
v 0.365780 2.365814 0.060000
v 0.593995 2.271284 0.060000
v 0.123508 2.414005 0.060000
v -2.000000 0.000000 -0.060000
v -2.000000 3.000000 -0.060000
v -2.030000 0.000000 -0.030000
v -2.030000 3.000000 -0.030000
v 2.000000 0.000000 -0.060001
v 2.000000 3.000000 -0.060001
v 2.030000 0.000000 -0.030001
v 2.030000 3.000000 -0.030001
v 1.047712 0.459941 -0.060001
v 0.891006 0.268994 -0.060001
v 0.821272 0.000000 -0.060001
v 0.821272 0.205791 -0.060001
v -1.164155 0.677791 -0.060000
v -1.260072 1.160000 -0.060000
v -0.974049 1.959381 -0.060000
v 1.260070 1.160000 -0.060001
v 1.254005 1.283509 -0.060001
v 1.164155 0.677791 -0.060001
v 0.974049 1.959381 -0.060000
v 1.111285 1.753994 -0.060000
v 0.799382 2.134049 -0.060000
v 0.593995 2.271284 -0.060000
v 0.123508 2.414005 -0.060000
v -0.365780 2.365814 -0.060000
v -0.123508 2.414005 -0.060000
v -0.821272 0.205791 -0.060000
v -0.772130 0.175590 -0.029961
v -0.775027 0.210785 -0.028693
v -0.816353 0.237932 -0.051985
v -0.794154 0.187851 -0.051985
v -0.793490 0.217999 -0.051985
v -0.810648 0.262485 -0.029961
v -0.786516 0.236703 -0.028693
v -0.821272 0.000000 -0.060000
v -0.791272 0.000000 -0.051962
v -0.769310 0.000000 -0.030000
v -0.891006 0.268994 -0.060000
v -0.869767 0.290233 -0.051962
v -0.854219 0.305781 -0.030000
v -1.136405 0.689286 -0.051962
v -1.116091 0.697700 -0.030000
v -1.111285 1.753994 -0.060000
v -1.084795 1.739835 -0.051962
v -1.065403 1.729470 -0.030000
v -1.235860 0.914172 -0.060000
v -1.206401 0.920032 -0.051962
v -1.184836 0.924322 -0.030000
v -1.230036 1.160000 -0.051962
v -1.208048 1.160000 -0.030000
v -1.254005 1.283509 -0.060000
v -1.202231 1.278410 -0.030000
v -1.224113 1.280565 -0.051962
v -1.205814 1.525780 -0.060000
v -1.156030 1.510678 -0.030000
v -1.177071 1.517061 -0.051962
v -1.047712 0.459941 -0.060000
v -1.004455 0.488844 -0.030000
v -1.022738 0.476628 -0.051962
v -0.933834 1.926378 -0.030000
v -0.950831 1.940327 -0.051962
v -0.350678 2.316030 -0.030000
v -0.357061 2.337071 -0.051962
v -0.593995 2.271284 -0.060000
v -0.579836 2.244795 -0.051962
v -0.569470 2.225404 -0.030000
v -0.799382 2.134049 -0.060000
v -0.780327 2.110831 -0.051962
v -0.766378 2.093834 -0.030000
v -0.120564 2.384113 -0.051962
v -0.118409 2.362231 -0.030000
v -0.817651 0.207397 -0.084048
v -0.797896 0.190327 -0.078961
v -0.797342 0.216189 -0.079015
v -0.817061 0.233304 -0.079015
v -0.123120 2.410068 -0.084851
v -0.120952 2.388050 -0.078930
v -1.107796 1.752129 -0.084851
v -1.088282 1.741699 -0.078929
v -0.795015 0.000000 -0.078836
v -0.817321 0.000000 -0.084851
v -1.140034 0.687783 -0.078914
v -1.160500 0.679305 -0.084851
v -1.233983 1.160000 -0.078925
v -1.256116 1.160000 -0.084851
v -1.228043 1.280952 -0.078926
v -1.250068 1.283121 -0.084851
v -1.180853 1.518208 -0.078928
v -1.202029 1.524631 -0.084851
v -1.025985 0.474459 -0.078902
v -1.044422 0.462139 -0.084851
v -1.210265 0.919263 -0.078921
v -1.231981 0.914944 -0.084851
v -0.953888 1.942835 -0.078929
v -0.970991 1.956872 -0.084851
v -0.358209 2.340857 -0.078930
v -0.364632 2.362028 -0.084851
v -0.796872 2.130991 -0.084851
v -0.782836 2.113888 -0.078929
v -0.581701 2.248283 -0.078930
v -0.592131 2.267795 -0.084851
v -0.888208 0.271791 -0.084851
v -0.872501 0.287499 -0.078881
v -1.047712 0.459941 0.060000
v -1.004455 0.488844 0.030000
v -1.022738 0.476628 0.051962
v -0.891006 0.268994 0.060000
v -0.869767 0.290233 0.051962
v -0.854219 0.305781 0.030000
v -0.821272 0.000000 0.060000
v -0.769310 0.000000 0.030000
v -0.791272 0.000000 0.051962
v -0.810648 0.262485 0.029961
v -0.786516 0.236703 0.028693
v -0.794154 0.187851 0.051984
v -0.816353 0.237932 0.051984
v -0.793491 0.217999 0.051984
v -0.772130 0.175590 0.029961
v -0.775027 0.210785 0.028693
v -1.208048 1.160000 0.030000
v -1.230036 1.160000 0.051962
v -1.254005 1.283509 0.060000
v -1.202231 1.278410 0.030000
v -1.224113 1.280565 0.051961
v -1.235860 0.914172 0.060000
v -1.206401 0.920032 0.051962
v -1.184836 0.924322 0.030000
v -1.205814 1.525780 0.060000
v -1.156030 1.510678 0.030000
v -1.177071 1.517061 0.051961
v -1.164155 0.677791 0.060000
v -1.136405 0.689286 0.051962
v -1.116091 0.697700 0.030000
v -0.974049 1.959381 0.060000
v -0.950831 1.940327 0.051962
v -0.933834 1.926378 0.030000
v -1.111285 1.753994 0.060000
v -1.084795 1.739835 0.051961
v -1.065403 1.729470 0.030000
v -0.799382 2.134049 0.060000
v -0.766378 2.093834 0.030000
v -0.780327 2.110831 0.051962
v -0.593995 2.271284 0.060000
v -0.569470 2.225404 0.030000
v -0.579836 2.244795 0.051962
v -0.123508 2.414005 0.060000
v -0.118409 2.362231 0.030000
v -0.120564 2.384113 0.051962
v -0.350678 2.316030 0.030000
v -0.357061 2.337071 0.051962
v -0.817651 0.207397 0.084048
v -0.817061 0.233304 0.079015
v -0.797343 0.216189 0.079015
v -0.797896 0.190327 0.078961
v -1.180853 1.518208 0.078927
v -1.202029 1.524631 0.084851
v -1.160500 0.679305 0.084851
v -1.140034 0.687783 0.078914
v -1.025985 0.474459 0.078902
v -1.044422 0.462139 0.084851
v -0.888208 0.271791 0.084851
v -0.872501 0.287499 0.078881
v -1.107796 1.752129 0.084851
v -1.088282 1.741699 0.078928
v -0.970991 1.956872 0.084851
v -0.953888 1.942835 0.078929
v -1.233983 1.160000 0.078925
v -1.256116 1.160000 0.084851
v -1.228043 1.280952 0.078926
v -1.250068 1.283121 0.084851
v -1.231981 0.914944 0.084851
v -1.210265 0.919263 0.078921
v -0.782836 2.113888 0.078929
v -0.796872 2.130991 0.084851
v -0.581701 2.248283 0.078929
v -0.592131 2.267795 0.084851
v -0.120952 2.388050 0.078930
v -0.123120 2.410068 0.084851
v -0.358209 2.340857 0.078930
v -0.364632 2.362028 0.084851
v -0.795015 -0.000000 0.078836
v -0.817321 0.000000 0.084851
v 0.821272 0.205791 0.060000
v 0.772130 0.175590 0.029961
v 0.775027 0.210785 0.028693
v 0.816353 0.237932 0.051984
v 0.794154 0.187851 0.051984
v 0.793490 0.217999 0.051984
v 0.810648 0.262485 0.029961
v 0.786516 0.236703 0.028693
v 0.821272 0.000000 0.060000
v 0.791272 0.000000 0.051962
v 0.769310 0.000000 0.030000
v 0.869767 0.290233 0.051962
v 0.854219 0.305781 0.030000
v 1.164155 0.677791 0.060000
v 1.136405 0.689286 0.051962
v 1.116091 0.697700 0.030000
v 1.111285 1.753994 0.060000
v 1.084795 1.739835 0.051962
v 1.065403 1.729470 0.030000
v 1.206401 0.920032 0.051962
v 1.184836 0.924322 0.030000
v 1.230036 1.160000 0.051962
v 1.208048 1.160000 0.030000
v 1.254005 1.283509 0.060000
v 1.202231 1.278410 0.030000
v 1.224113 1.280565 0.051962
v 1.205814 1.525780 0.060000
v 1.156030 1.510678 0.030000
v 1.177071 1.517061 0.051962
v 1.047712 0.459941 0.060000
v 1.004455 0.488844 0.030000
v 1.022738 0.476628 0.051962
v 0.933834 1.926378 0.030000
v 0.950831 1.940327 0.051962
v 0.350678 2.316030 0.030000
v 0.357061 2.337071 0.051962
v 0.579836 2.244795 0.051962
v 0.569470 2.225404 0.030000
v 0.799382 2.134049 0.060000
v 0.780327 2.110831 0.051962
v 0.766378 2.093834 0.030000
v 0.120564 2.384113 0.051962
v 0.118409 2.362231 0.030000
v 0.817651 0.207397 0.084048
v 0.797896 0.190327 0.078961
v 0.797342 0.216189 0.079015
v 0.817061 0.233304 0.079015
v 0.123120 2.410068 0.084851
v 0.120952 2.388050 0.078930
v 1.107796 1.752129 0.084851
v 1.088282 1.741699 0.078928
v 0.795015 0.000000 0.078836
v 0.817321 0.000000 0.084851
v 1.140034 0.687783 0.078914
v 1.160500 0.679305 0.084851
v 1.233983 1.160000 0.078925
v 1.256116 1.160000 0.084851
v 1.228043 1.280952 0.078926
v 1.250068 1.283121 0.084851
v 1.180853 1.518208 0.078928
v 1.202029 1.524631 0.084851
v 1.025985 0.474459 0.078902
v 1.044422 0.462139 0.084851
v 1.210265 0.919263 0.078921
v 1.231981 0.914944 0.084851
v 0.953888 1.942835 0.078929
v 0.970991 1.956872 0.084851
v 0.358209 2.340857 0.078930
v 0.364632 2.362028 0.084851
v 0.796872 2.130991 0.084851
v 0.782836 2.113888 0.078929
v 0.581701 2.248283 0.078929
v 0.592131 2.267795 0.084851
v 0.888208 0.271791 0.084851
v 0.872501 0.287499 0.078881
v 1.004455 0.488844 -0.030000
v 1.022738 0.476628 -0.051962
v 0.869767 0.290233 -0.051962
v 0.854219 0.305781 -0.030000
v 0.769310 0.000000 -0.030000
v 0.791272 0.000000 -0.051962
v 0.810648 0.262485 -0.029961
v 0.786516 0.236703 -0.028693
v 0.794154 0.187851 -0.051984
v 0.816353 0.237932 -0.051984
v 0.793491 0.217999 -0.051984
v 0.772130 0.175590 -0.029961
v 0.775027 0.210785 -0.028693
v 1.208048 1.160000 -0.030000
v 1.230036 1.160000 -0.051962
v 1.202231 1.278410 -0.030000
v 1.224113 1.280565 -0.051962
v 1.235860 0.914172 -0.060000
v 1.206401 0.920032 -0.051962
v 1.184836 0.924322 -0.030000
v 1.205814 1.525780 -0.060000
v 1.156030 1.510678 -0.030000
v 1.177071 1.517061 -0.051962
v 1.136405 0.689286 -0.051962
v 1.116091 0.697700 -0.030000
v 0.950831 1.940327 -0.051962
v 0.933834 1.926378 -0.030000
v 1.084795 1.739835 -0.051962
v 1.065403 1.729470 -0.030000
v 0.766378 2.093834 -0.030000
v 0.780327 2.110831 -0.051962
v 0.569470 2.225404 -0.030000
v 0.579836 2.244795 -0.051962
v 0.118409 2.362231 -0.030000
v 0.120564 2.384113 -0.051962
v 0.365780 2.365814 -0.060000
v 0.350678 2.316030 -0.030000
v 0.357061 2.337071 -0.051962
v 0.817651 0.207397 -0.084048
v 0.817061 0.233304 -0.079015
v 0.797343 0.216189 -0.079015
v 0.797896 0.190327 -0.078961
v 1.180853 1.518208 -0.078928
v 1.202029 1.524631 -0.084851
v 1.160500 0.679305 -0.084851
v 1.140034 0.687783 -0.078914
v 1.025985 0.474459 -0.078902
v 1.044422 0.462139 -0.084851
v 0.888208 0.271791 -0.084851
v 0.872501 0.287499 -0.078881
v 1.107796 1.752129 -0.084851
v 1.088282 1.741699 -0.078929
v 0.970991 1.956872 -0.084851
v 0.953888 1.942835 -0.078929
v 1.233983 1.160000 -0.078925
v 1.256116 1.160000 -0.084851
v 1.228043 1.280952 -0.078926
v 1.250068 1.283121 -0.084851
v 1.231981 0.914944 -0.084851
v 1.210265 0.919263 -0.078921
v 0.782836 2.113888 -0.078929
v 0.796872 2.130991 -0.084851
v 0.581701 2.248283 -0.078930
v 0.592131 2.267795 -0.084851
v 0.120952 2.388050 -0.078930
v 0.123120 2.410068 -0.084851
v 0.358209 2.340857 -0.078930
v 0.364632 2.362028 -0.084851
v 0.795015 -0.000000 -0.078836
v 0.817321 0.000000 -0.084851
v -0.917320 0.000000 0.020000
v -0.917320 2.400000 0.020000
v -0.917320 0.000000 -0.000000
v -0.917320 2.400000 -0.000000
v -0.882679 0.000000 0.020000
v -0.882679 2.400000 0.020000
v -0.882679 0.000000 -0.000000
v -0.882679 2.400000 -0.000000
v 0.882680 0.000000 0.020000
v 0.882680 2.400000 0.020000
v 0.882680 0.000000 -0.000000
v 0.882680 2.400000 -0.000000
v 0.917321 0.000000 0.020000
v 0.917321 2.400000 0.020000
v 0.917321 0.000000 -0.000000
v 0.917321 2.400000 -0.000000
v 0.282680 0.000000 0.020000
v 0.282680 2.400000 0.020000
v 0.282680 0.000000 -0.000000
v 0.282680 2.400000 -0.000000
v 0.317321 0.000000 0.020000
v 0.317321 2.400000 0.020000
v 0.317321 0.000000 -0.000000
v 0.317321 2.400000 -0.000000
v 0.617321 2.400000 -0.000000
v 0.617321 0.000000 -0.000000
v 0.617321 2.400000 0.020000
v 0.617321 0.000000 0.020000
v 0.582680 2.400000 -0.000000
v 0.582680 0.000000 -0.000000
v 0.582680 2.400000 0.020000
v 0.582680 0.000000 0.020000
v 0.017321 2.400000 -0.000000
v 0.017321 0.000000 -0.000000
v 0.017321 2.400000 0.020000
v 0.017321 0.000000 0.020000
v -0.017320 2.400000 -0.000000
v -0.017320 0.000000 -0.000000
v -0.017320 2.400000 0.020000
v -0.017320 0.000000 0.020000
v -0.317320 0.000000 0.020000
v -0.317320 2.400000 0.020000
v -0.317320 0.000000 -0.000000
v -0.317320 2.400000 -0.000000
v -0.282679 0.000000 0.020000
v -0.282679 2.400000 0.020000
v -0.282679 0.000000 -0.000000
v -0.282679 2.400000 -0.000000
v -0.582679 2.400000 -0.000000
v -0.582679 0.000000 -0.000000
v -0.582679 2.400000 0.020000
v -0.582679 0.000000 0.020000
v -0.617320 2.400000 -0.000000
v -0.617320 0.000000 -0.000000
v -0.617320 2.400000 0.020000
v -1.250000 0.467320 -0.020000
v 1.250000 0.467320 -0.020000
v -1.250000 0.467320 -0.000000
v 1.250000 0.467320 -0.000000
v -1.250000 0.432679 -0.020000
v 1.250000 0.432679 -0.020000
v -1.250000 0.432679 -0.000000
v 1.250000 0.432679 -0.000000
v 1.250000 0.132679 -0.000000
v -1.250000 0.132679 -0.000000
v 1.250000 0.132679 -0.020000
v -1.250000 0.132679 -0.020000
v 1.250000 0.167320 -0.000000
v -1.250000 0.167320 -0.000000
v 1.250000 0.167320 -0.020000
v -1.250000 0.167320 -0.020000
v -1.250000 0.767320 -0.020000
v 1.250000 0.767320 -0.020000
v -1.250000 0.767320 -0.000000
v 1.250000 0.767320 -0.000000
v -1.250000 0.732679 -0.020000
v 1.250000 0.732679 -0.020000
v -1.250000 0.732679 -0.000000
v 1.250000 0.732679 -0.000000
v 1.250000 1.032679 -0.000000
v -1.250000 1.032679 -0.000000
v 1.250000 1.032679 -0.020000
v -1.250000 1.032679 -0.020000
v 1.250000 1.067320 -0.000000
v -1.250000 1.067320 -0.000000
v 1.250000 1.067320 -0.020000
v -1.250000 1.067320 -0.020000
v -1.250000 1.667320 -0.020000
v 1.250000 1.667320 -0.020000
v -1.250000 1.667320 -0.000000
v 1.250000 1.667320 -0.000000
v -1.250000 1.632679 -0.020000
v 1.250000 1.632679 -0.020000
v -1.250000 1.632679 -0.000000
v 1.250000 1.632679 -0.000000
v 1.250000 1.332679 -0.000000
v -1.250000 1.332679 -0.000000
v 1.250000 1.332679 -0.020000
v -1.250000 1.332679 -0.020000
v 1.250000 1.367320 -0.000000
v -1.250000 1.367320 -0.000000
v 1.250000 1.367320 -0.020000
v -1.250000 1.367320 -0.020000
v -1.250000 1.967320 -0.020000
v 1.250000 1.967320 -0.020000
v -1.250000 1.967320 -0.000000
v 1.250000 1.967320 -0.000000
v -1.250000 1.932679 -0.020000
v 1.250000 1.932679 -0.020000
v -1.250000 1.932679 -0.000000
v 1.250000 1.932679 -0.000000
v 1.250000 2.232679 -0.000000
v -1.250000 2.232679 -0.000000
v 1.250000 2.232679 -0.020000
v -1.250000 2.232679 -0.020000
v 1.250000 2.267320 -0.000000
v -1.250000 2.267320 -0.000000
v 1.250000 2.267320 -0.020000
v -1.250000 2.267320 -0.020000
v -0.617320 0.000000 0.020000
vn 0.7174 0.6966 -0.0000
vn 0.8328 0.5536 -0.0000
vn -0.7161 -0.6805 0.1552
vn -0.8211 -0.5487 0.1572
vn -0.7157 -0.6809 0.1552
vn 0.6699 0.7287 0.1424
vn 0.6496 0.7466 0.1437
vn 0.6725 0.7263 0.1422
vn 0.1741 0.1851 0.9672
vn 0.1907 0.1750 0.9659
vn 0.1902 0.1754 0.9659
vn 0.2100 0.0921 0.9734
vn 0.2155 0.1440 -0.9658
vn 0.2392 0.0991 -0.9659
vn 0.9900 -0.0216 -0.1395
vn 0.9904 -0.0023 -0.1382
vn 0.9904 -0.0044 -0.1383
vn -0.9882 -0.0005 -0.1531
vn 0.2566 0.0037 -0.9665
vn 0.2100 0.0921 -0.9734
vn 0.2529 0.0006 -0.9675
vn 0.9695 0.2453 -0.0000
vn 0.7257 0.0214 -0.6876
vn 0.7368 0.0281 -0.6756
vn 0.7034 0.3108 -0.6392
vn 0.7755 0.1562 -0.6117
vn 0.5216 0.5223 -0.6746
vn 0.5127 0.5160 -0.6862
vn 0.6362 0.4695 -0.6122
vn 0.9988 0.0487 -0.0000
vn 0.7399 0.6727 -0.0000
vn 0.7730 -0.6344 -0.0000
vn 0.8819 -0.4714 -0.0000
vn 0.2051 -0.6763 -0.7075
vn 0.0693 -0.7033 -0.7075
vn 0.7296 0.6691 -0.1417
vn 0.8229 0.5499 -0.1433
vn 0.8228 0.5499 -0.1433
vn 0.7299 0.6687 -0.1417
vn 0.6232 -0.3331 -0.7075
vn 0.6763 -0.2051 -0.7075
vn 0.6699 0.7287 -0.1424
vn 0.6725 0.7263 -0.1422
vn 0.9142 0.3787 -0.1441
vn 0.9705 0.1931 -0.1446
vn 0.9569 -0.2903 -0.0000
vn 0.9925 -0.1224 -0.0000
vn 0.7086 0.0111 -0.7055
vn 0.1902 0.1754 -0.9659
vn 0.1907 0.1750 -0.9659
vn -0.8211 -0.5487 -0.1572
vn -0.7161 -0.6805 -0.1552
vn -0.7157 -0.6809 -0.1552
vn 0.2903 -0.9569 -0.0000
vn 0.4714 -0.8819 -0.0000
vn 0.6529 0.2704 -0.7075
vn 0.5876 0.3926 -0.7075
vn 0.9997 0.0245 -0.0000
vn 0.9808 0.1951 -0.0000
vn 0.6931 0.1379 -0.7075
vn 0.9892 0.0241 -0.1447
vn 0.9820 -0.1210 -0.1449
vn 0.9820 -0.1213 -0.1449
vn 0.9892 0.0245 -0.1447
vn 0.7066 0.0168 -0.7074
vn 0.7066 0.0179 -0.7074
vn 0.9239 0.3827 -0.0000
vn 0.8315 0.5556 -0.0000
vn 0.6344 -0.7730 -0.0000
vn 0.7015 -0.0860 -0.7074
vn 0.7014 -0.0871 -0.7074
vn 0.5463 -0.4483 -0.7075
vn 0.4483 -0.5463 -0.7075
vn -0.9686 -0.1927 -0.1572
vn -0.9124 -0.3779 -0.1572
vn 0.2586 0.0067 -0.9660
vn 0.2538 0.0505 -0.9659
vn 0.2586 0.0061 -0.9660
vn 0.0980 -0.9952 -0.0000
vn 0.3331 -0.6232 -0.7075
vn 0.9905 0.0150 -0.1370
vn -0.6644 -0.7315 -0.1531
vn 0.5243 0.4777 -0.7049
vn 0.5233 0.4788 -0.7049
vn -0.0253 -0.2573 -0.9660
vn 0.0253 -0.2573 -0.9660
vn -0.0980 -0.9952 -0.0000
vn 0.1219 -0.2280 -0.9660
vn 0.1640 -0.1999 -0.9660
vn 0.9999 0.0161 -0.0000
vn 0.2567 -0.0320 -0.9660
vn 0.2568 -0.0314 -0.9660
vn 0.9468 -0.2872 -0.1450
vn 0.8726 -0.4664 -0.1451
vn -0.7634 0.6265 -0.1572
vn -0.6265 0.7634 -0.1572
vn 0.0750 -0.2474 -0.9660
vn 0.1999 -0.1640 -0.9660
vn 0.2280 -0.1219 -0.9660
vn -0.9801 0.1211 -0.1572
vn -0.9873 -0.0244 -0.1572
vn -0.9873 -0.0241 -0.1572
vn -0.9802 0.1207 -0.1572
vn 0.7648 -0.6277 -0.1451
vn 0.6277 -0.7648 -0.1451
vn 0.4664 -0.8726 -0.1451
vn -0.4655 0.8710 -0.1572
vn -0.0968 0.9828 -0.1572
vn -0.2867 0.9450 -0.1572
vn -0.9450 0.2867 -0.1572
vn -0.8710 0.4655 -0.1572
vn 0.2034 0.0885 -0.9751
vn 0.6496 0.7466 -0.1437
vn 0.1741 0.1851 -0.9672
vn 0.2474 -0.0751 -0.9660
vn 0.2872 -0.9468 -0.1451
vn 0.0970 -0.9846 -0.1451
vn 0.7014 -0.0871 0.7074
vn 0.6763 -0.2051 0.7075
vn 0.7015 -0.0860 0.7074
vn -0.0970 -0.9846 -0.1451
vn 0.2474 -0.0751 0.9660
vn 0.2280 -0.1219 0.9660
vn 0.5127 0.5160 0.6862
vn 0.5216 0.5223 0.6746
vn 0.7034 0.3108 0.6392
vn 0.6362 0.4695 0.6122
vn 0.7368 0.0281 0.6756
vn 0.7257 0.0214 0.6876
vn 0.7755 0.1562 0.6117
vn 0.6931 0.1379 0.7075
vn 0.6529 0.2704 0.7075
vn 0.1999 -0.1640 0.9660
vn 0.1640 -0.1999 0.9660
vn 0.5876 0.3926 0.7075
vn 0.5233 0.4788 0.7049
vn 0.5243 0.4777 0.7049
vn 0.6232 -0.3331 0.7075
vn 0.5463 -0.4483 0.7075
vn -0.0968 0.9828 0.1572
vn -0.2867 0.9450 0.1572
vn 0.4483 -0.5463 0.7075
vn 0.7066 0.0168 0.7074
vn 0.7066 0.0179 0.7074
vn 0.3331 -0.6232 0.7075
vn 0.2538 0.0505 0.9659
vn 0.2586 0.0067 0.9660
vn 0.2586 0.0061 0.9660
vn 0.0693 -0.7033 0.7075
vn 0.2051 -0.6763 0.7075
vn 0.2155 0.1440 0.9658
vn 0.2392 0.0991 0.9659
vn 0.9820 -0.1213 0.1449
vn 0.9468 -0.2872 0.1450
vn 0.9820 -0.1210 0.1449
vn 0.7086 0.0111 0.7055
vn 0.7299 0.6687 0.1417
vn 0.8228 0.5499 0.1433
vn 0.8229 0.5499 0.1433
vn 0.7296 0.6691 0.1417
vn -0.6644 -0.7315 0.1531
vn 0.8726 -0.4664 0.1451
vn 0.9892 0.0241 0.1447
vn 0.9892 0.0245 0.1447
vn -0.6265 0.7634 0.1572
vn -0.4655 0.8710 0.1572
vn 0.9705 0.1931 0.1446
vn 0.1219 -0.2280 0.9660
vn -0.9124 -0.3779 0.1572
vn -0.9686 -0.1927 0.1572
vn 0.9904 -0.0044 0.1383
vn 0.9905 0.0150 0.1370
vn 0.9904 -0.0023 0.1382
vn 0.2566 0.0037 0.9665
vn 0.2529 0.0006 0.9675
vn 0.0750 -0.2474 0.9660
vn -0.9873 -0.0244 0.1571
vn -0.9801 0.1211 0.1571
vn -0.9802 0.1207 0.1571
vn -0.9873 -0.0241 0.1571
vn 0.9142 0.3787 0.1441
vn 0.9900 -0.0216 0.1395
vn 0.2872 -0.9468 0.1451
vn 0.4664 -0.8726 0.1451
vn 0.0970 -0.9846 0.1451
vn -0.0970 -0.9846 0.1451
vn -0.7634 0.6265 0.1572
vn 0.2034 0.0885 0.9751
vn -0.8710 0.4655 0.1572
vn 0.7648 -0.6277 0.1451
vn 0.6277 -0.7648 0.1451
vn -0.9450 0.2867 0.1572
vn 0.2568 -0.0314 0.9660
vn 0.2567 -0.0320 0.9660
vn -0.9882 -0.0005 0.1531
vn 0.0253 -0.2573 0.9660
vn -0.0253 -0.2573 0.9660
vn 0.0968 0.9828 -0.1572
vn -0.0693 -0.7033 -0.7075
vn -0.0693 -0.7033 0.7075
vn -0.7174 0.6966 -0.0000
vn -0.8328 0.5536 -0.0000
vn 0.7161 -0.6805 -0.1552
vn 0.8211 -0.5487 -0.1572
vn 0.7157 -0.6809 -0.1552
vn -0.6699 0.7287 -0.1424
vn -0.6496 0.7466 -0.1437
vn -0.6725 0.7263 -0.1422
vn -0.1741 0.1851 -0.9672
vn -0.1907 0.1750 -0.9659
vn -0.1902 0.1754 -0.9659
vn -0.2100 0.0921 -0.9734
vn -0.2155 0.1440 0.9658
vn -0.2392 0.0991 0.9659
vn -0.9900 -0.0216 0.1395
vn -0.9904 -0.0023 0.1382
vn -0.9904 -0.0044 0.1383
vn 0.9882 -0.0005 0.1531
vn -0.2566 0.0037 0.9665
vn -0.2100 0.0921 0.9734
vn -0.2529 0.0006 0.9675
vn -0.9695 0.2453 -0.0000
vn -0.7257 0.0214 0.6876
vn -0.7368 0.0281 0.6756
vn -0.7034 0.3108 0.6392
vn -0.7755 0.1562 0.6117
vn -0.5216 0.5223 0.6746
vn -0.5127 0.5160 0.6862
vn -0.6362 0.4695 0.6122
vn -0.9988 0.0487 -0.0000
vn -0.7399 0.6727 -0.0000
vn -0.7730 -0.6344 -0.0000
vn -0.8819 -0.4714 -0.0000
vn -0.2051 -0.6763 0.7075
vn -0.7296 0.6691 0.1417
vn -0.8229 0.5499 0.1433
vn -0.8228 0.5499 0.1433
vn -0.7299 0.6687 0.1417
vn -0.6232 -0.3331 0.7075
vn -0.6763 -0.2051 0.7075
vn -0.6699 0.7287 0.1424
vn -0.6725 0.7263 0.1422
vn -0.9142 0.3787 0.1441
vn -0.9705 0.1931 0.1446
vn -0.9569 -0.2903 -0.0000
vn -0.9925 -0.1224 -0.0000
vn -0.7086 0.0111 0.7055
vn -0.1902 0.1754 0.9659
vn -0.1907 0.1750 0.9659
vn 0.8211 -0.5487 0.1572
vn 0.7161 -0.6805 0.1552
vn 0.7157 -0.6809 0.1552
vn -0.2903 -0.9569 -0.0000
vn -0.4714 -0.8819 -0.0000
vn -0.6529 0.2704 0.7075
vn -0.5876 0.3926 0.7075
vn -0.9997 0.0245 -0.0000
vn -0.9808 0.1951 -0.0000
vn -0.6931 0.1379 0.7075
vn -0.9892 0.0241 0.1447
vn -0.9820 -0.1210 0.1449
vn -0.9820 -0.1213 0.1449
vn -0.9892 0.0245 0.1447
vn -0.7066 0.0168 0.7074
vn -0.7066 0.0179 0.7074
vn -0.9239 0.3827 -0.0000
vn -0.8315 0.5556 -0.0000
vn -0.6344 -0.7730 -0.0000
vn -0.7015 -0.0860 0.7074
vn -0.7014 -0.0871 0.7074
vn -0.5463 -0.4483 0.7075
vn -0.4483 -0.5463 0.7075
vn 0.9686 -0.1927 0.1572
vn 0.9124 -0.3779 0.1572
vn -0.2586 0.0067 0.9660
vn -0.2538 0.0505 0.9659
vn -0.2586 0.0061 0.9660
vn -0.3331 -0.6232 0.7075
vn -0.9905 0.0150 0.1370
vn 0.6644 -0.7315 0.1531
vn -0.5243 0.4777 0.7049
vn -0.5233 0.4788 0.7049
vn -0.1219 -0.2280 0.9660
vn -0.1640 -0.1999 0.9660
vn -0.9999 0.0161 -0.0000
vn -0.2567 -0.0320 0.9660
vn -0.2568 -0.0314 0.9660
vn -0.9468 -0.2872 0.1450
vn -0.8726 -0.4664 0.1451
vn 0.7634 0.6265 0.1572
vn 0.6265 0.7634 0.1572
vn -0.0750 -0.2474 0.9660
vn -0.1999 -0.1640 0.9660
vn -0.2280 -0.1219 0.9660
vn 0.9801 0.1211 0.1572
vn 0.9873 -0.0244 0.1572
vn 0.9873 -0.0241 0.1572
vn 0.9802 0.1207 0.1572
vn -0.7648 -0.6277 0.1451
vn -0.6277 -0.7648 0.1451
vn -0.4664 -0.8726 0.1451
vn 0.4655 0.8710 0.1572
vn 0.0968 0.9828 0.1572
vn 0.2867 0.9450 0.1572
vn 0.9450 0.2867 0.1572
vn 0.8710 0.4655 0.1572
vn -0.2034 0.0885 0.9751
vn -0.6496 0.7466 0.1437
vn -0.1741 0.1851 0.9672
vn -0.2474 -0.0751 0.9660
vn -0.2872 -0.9468 0.1451
vn -0.7014 -0.0871 -0.7074
vn -0.6763 -0.2051 -0.7075
vn -0.7015 -0.0860 -0.7074
vn -0.2474 -0.0751 -0.9660
vn -0.2280 -0.1219 -0.9660
vn -0.5127 0.5160 -0.6862
vn -0.5216 0.5223 -0.6746
vn -0.7034 0.3108 -0.6392
vn -0.6362 0.4695 -0.6122
vn -0.7368 0.0281 -0.6756
vn -0.7257 0.0214 -0.6876
vn -0.7755 0.1562 -0.6117
vn -0.6931 0.1379 -0.7075
vn -0.6529 0.2704 -0.7075
vn -0.1999 -0.1640 -0.9660
vn -0.1640 -0.1999 -0.9660
vn -0.5876 0.3926 -0.7075
vn -0.5233 0.4788 -0.7049
vn -0.5243 0.4777 -0.7049
vn -0.6232 -0.3331 -0.7075
vn -0.5463 -0.4483 -0.7075
vn 0.2867 0.9450 -0.1572
vn -0.4483 -0.5463 -0.7075
vn -0.7066 0.0168 -0.7074
vn -0.7066 0.0179 -0.7074
vn -0.3331 -0.6232 -0.7075
vn -0.2538 0.0505 -0.9659
vn -0.2586 0.0067 -0.9660
vn -0.2586 0.0061 -0.9660
vn -0.2051 -0.6763 -0.7075
vn -0.2155 0.1440 -0.9658
vn -0.2392 0.0991 -0.9659
vn -0.9820 -0.1213 -0.1449
vn -0.9468 -0.2872 -0.1450
vn -0.9820 -0.1210 -0.1449
vn -0.7086 0.0111 -0.7055
vn -0.7299 0.6687 -0.1417
vn -0.8228 0.5499 -0.1433
vn -0.8229 0.5499 -0.1433
vn -0.7296 0.6691 -0.1417
vn 0.6644 -0.7315 -0.1531
vn -0.8726 -0.4664 -0.1451
vn -0.9892 0.0241 -0.1447
vn -0.9892 0.0245 -0.1447
vn 0.6265 0.7634 -0.1572
vn 0.4655 0.8710 -0.1572
vn -0.9705 0.1931 -0.1446
vn -0.1219 -0.2280 -0.9660
vn 0.9124 -0.3779 -0.1572
vn 0.9686 -0.1927 -0.1572
vn -0.9904 -0.0044 -0.1383
vn -0.9905 0.0150 -0.1370
vn -0.9904 -0.0023 -0.1382
vn -0.2566 0.0037 -0.9665
vn -0.2529 0.0006 -0.9675
vn -0.0750 -0.2474 -0.9660
vn 0.9873 -0.0244 -0.1571
vn 0.9801 0.1211 -0.1571
vn 0.9802 0.1207 -0.1571
vn 0.9873 -0.0241 -0.1571
vn -0.9142 0.3787 -0.1441
vn -0.9900 -0.0216 -0.1395
vn -0.2872 -0.9468 -0.1451
vn -0.4664 -0.8726 -0.1451
vn 0.7634 0.6265 -0.1572
vn -0.2034 0.0885 -0.9751
vn 0.8710 0.4655 -0.1572
vn -0.7648 -0.6277 -0.1451
vn -0.6277 -0.7648 -0.1451
vn 0.9450 0.2867 -0.1572
vn -0.2568 -0.0314 -0.9660
vn -0.2567 -0.0320 -0.9660
vn 0.9882 -0.0005 -0.1531
vn -0.0000 -1.0000 -0.0000
vn 0.0001 0.1951 -0.9808
vn -0.0000 0.1951 -0.9808
vn -0.0001 -0.1951 -0.9808
vn -0.0000 -0.1951 -0.9808
vn -0.0000 -0.1951 0.9808
vn -0.0000 0.1951 0.9808
vn 0.9808 -0.0000 -0.1951
vn 0.9808 -0.0001 0.1951
vn 0.9808 -0.0000 0.1951
vn -0.0000 1.0000 -0.0000
vn -0.9808 0.0001 0.1951
vn -0.9808 -0.0000 0.1951
vn -0.9808 -0.0000 -0.1951
vn 1.0000 -0.0000 -0.0000
vn 0.1951 -0.0000 0.9808
vn -0.1951 -0.0001 0.9808
vn -0.1951 -0.0000 0.9808
vn -0.0003 -0.9808 0.1951
vn -0.0000 -0.9808 0.1951
vn 0.0001 -0.9808 -0.1951
vn -0.0000 -0.9808 -0.1951
vn -1.0000 -0.0000 -0.0000
vn -0.0000 0.9808 -0.1951
vn 0.0002 0.9808 0.1951
vn -0.0000 0.9808 0.1951
vn -0.1951 0.0002 -0.9808
vn -0.1951 -0.0000 -0.9808
vn 0.1951 -0.0003 -0.9808
vn 0.1951 -0.0000 -0.9808
vn -0.0000 -0.0000 -1.0000
vn 0.7071 -0.0000 0.7071
vn -0.0000 -0.0000 1.0000
vn -0.7071 -0.0000 0.7071
vn -0.7071 -0.0000 -0.7071
vn 0.7071 -0.0000 -0.7071
vt 0.216642 0.688825
vt 0.196522 0.688825
vt 0.196947 0.676968
vt 0.216216 0.676967
vt 0.229315 0.778494
vt 0.225936 0.861107
vt 0.217489 0.860892
vt 0.220879 0.778018
vt 0.088763 0.685807
vt 0.090273 0.676967
vt 0.099618 0.677964
vt 0.097838 0.688206
vt -0.007879 0.751467
vt -0.016820 0.775916
vt -0.024101 0.773340
vt -0.012016 0.743627
vt -0.088549 0.919854
vt -0.093146 0.837299
vt -0.085451 0.837601
vt -0.080927 0.918699
vt 0.315670 0.750242
vt 0.315790 0.740128
vt 0.324922 0.741015
vt 0.324847 0.749705
vt 0.245512 1.040091
vt 0.241075 1.109590
vt 0.232645 1.109017
vt 0.237329 1.040076
vt -0.085068 1.093237
vt -0.056390 1.029776
vt -0.052513 1.037821
vt -0.078000 1.096435
vt 0.245951 0.676967
vt 0.265220 0.676967
vt 0.265220 0.686487
vt 0.245951 0.686487
vt 0.305376 0.735937
vt 0.305675 0.747815
vt 0.132804 1.023129
vt 0.142801 1.017046
vt 0.144485 1.029334
vt 0.134586 1.033557
vt 0.265646 0.698344
vt 0.245526 0.698344
vt 0.196508 0.709450
vt 0.216655 0.709450
vt 0.307942 0.757075
vt 1.179853 0.086535
vt 1.179853 0.007016
vt 1.200000 0.007016
vt 1.200000 0.086535
vt 0.812652 0.503139
vt 0.807351 0.425035
vt 0.817492 0.424776
vt 0.822782 0.502018
vt 0.119583 0.998813
vt 0.111014 0.916458
vt 0.120280 0.915881
vt 0.128964 0.997540
vt 0.906989 0.798756
vt 0.943592 0.867868
vt 0.934618 0.873107
vt 0.897735 0.803160
vt 0.123562 1.025544
vt 0.109334 0.835229
vt 0.114307 0.755654
vt 0.123207 0.756577
vt 0.118447 0.835420
vt 1.200000 -0.072503
vt 1.179853 -0.072503
vt 1.179853 -0.152022
vt 1.200000 -0.152022
vt 0.305364 0.676967
vt 0.315793 0.677082
vt -0.068475 1.000062
vt -0.061194 0.997487
vt 0.240365 0.925450
vt 0.243744 1.008064
vt 0.235308 1.008539
vt 0.231918 0.925665
vt 1.179853 0.325091
vt 1.179853 0.245572
vt 1.200000 0.245572
vt 1.200000 0.325091
vt 0.128826 0.835593
vt 0.130834 0.915180
vt 0.196508 1.027526
vt 0.196508 0.948007
vt 0.216655 0.948007
vt 0.216655 1.027526
vt 0.133344 0.757598
vt 0.994688 0.980021
vt 0.970311 0.946342
vt 0.977988 0.941087
vt 1.002296 0.974410
vt 0.134498 0.678371
vt 0.144485 0.680531
vt 0.216655 0.868488
vt 0.196508 0.868488
vt 0.196508 0.788969
vt 0.216655 0.788969
vt 1.179853 0.166054
vt 1.200000 0.166054
vt 0.986621 0.934942
vt 0.867179 0.731039
vt 0.842691 0.656666
vt 0.852497 0.653881
vt 0.876721 0.727448
vt 0.241250 0.760106
vt 0.239533 0.842771
vt 0.231084 0.842726
vt 0.232806 0.759800
vt -0.048772 0.680094
vt -0.074602 0.757103
vt -0.082098 0.755357
vt -0.055802 0.676967
vt 1.200000 0.404610
vt 1.179853 0.404610
vt 0.824474 0.580524
vt 0.834476 0.578564
vt 0.324922 0.677105
vt 0.139601 0.995821
vt 1.179853 -0.191829
vt 1.200000 -0.191829
vt -0.188468 0.181761
vt -0.192318 0.262896
vt -0.200000 0.263261
vt -0.196081 0.180671
vt 1.010766 0.967739
vt 1.179853 0.484129
vt 1.200000 0.484129
vt -0.154338 0.420097
vt -0.113869 0.490524
vt -0.120144 0.494970
vt -0.161338 0.423280
vt 0.265659 0.757312
vt 0.245512 0.757312
vt 0.152678 0.663301
vt 0.192893 0.669313
vt 0.192117 0.676967
vt 0.151181 0.670847
vt 0.926714 0.877676
vt 0.889675 0.806976
vt 1.118282 0.796427
vt 1.108718 0.714037
vt 1.117125 0.713192
vt 1.126659 0.795323
vt -0.180804 0.343303
vt -0.188279 0.345109
vt -0.060849 0.552060
vt 0.002821 0.602497
vt -0.001362 0.608950
vt -0.066174 0.557609
vt 1.170370 1.039411
vt 1.179853 1.079701
vt 1.171643 1.081700
vt 1.162131 1.041282
vt 0.858799 0.734203
vt 0.834077 0.659122
vt 0.815687 0.582255
vt 0.125653 0.676967
vt 1.110127 0.630806
vt 1.101697 0.631392
vt 1.095310 0.465647
vt 1.103760 0.465582
vt 1.105670 0.548243
vt 1.097227 0.548569
vt 1.145001 0.960128
vt 1.130380 0.878483
vt 1.138719 0.877122
vt 1.153294 0.958510
vt -0.048772 1.029982
vt 0.125073 1.034544
vt -0.052253 1.021935
vt 0.074858 0.640026
vt 0.071966 0.647153
vt 0.803753 0.504134
vt 0.798356 0.425292
vt 0.237082 0.676967
vt 0.245512 0.677533
vt 0.774380 -0.146305
vt 0.731402 -0.077310
vt 0.722116 -0.082564
vt 0.765604 -0.152378
vt 0.808420 0.346024
vt 0.799352 0.345532
vt 0.467750 -0.154888
vt 0.395714 -0.117359
vt 0.391530 -0.123812
vt 0.464858 -0.162015
vt 0.107645 0.694212
vt 0.109334 0.682141
vt 0.296232 0.693914
vt 0.285818 0.698105
vt 0.286117 0.686227
vt 0.296112 0.683800
vt 0.288384 0.676967
vt 0.087722 0.953096
vt 0.083178 0.873379
vt 0.093571 0.873212
vt 0.098110 0.952060
vt 0.326719 -0.072471
vt 0.332044 -0.066922
vt 0.279024 -0.005387
vt 0.272749 -0.009833
vt 0.085278 0.793569
vt 0.093994 0.713341
vt 0.104441 0.715060
vt 0.095599 0.794277
vt 0.694409 -0.005093
vt 0.663545 0.069959
vt 0.653504 0.066313
vt 0.684708 -0.009560
vt 1.010767 0.424224
vt 1.012683 0.341302
vt 1.021126 0.341627
vt 1.019216 0.424288
vt 0.639028 0.147335
vt 0.628671 0.144512
vt 0.098953 1.033091
vt 0.109334 1.030885
vt 0.798356 -0.179636
vt 0.789841 -0.186221
vt 0.620949 0.225703
vt 0.610641 0.223777
vt -0.030228 1.016299
vt -0.004398 1.093308
vt -0.011428 1.096435
vt -0.037724 1.018045
vt 0.594825 0.381679
vt 0.599461 0.302778
vt 0.609651 0.303809
vt 0.605113 0.381846
vt -0.036554 0.854704
vt -0.041077 0.935802
vt -0.048772 0.936104
vt -0.044176 0.853549
vt 0.713936 -0.087180
vt 0.757765 -0.157638
vt 0.285806 0.757075
vt 0.296235 0.756960
vt 0.076131 0.792970
vt 0.084778 0.712064
vt 0.231084 0.746466
vt 0.222900 0.746482
vt 0.676180 -0.013476
vt 0.782117 -0.191829
vt 1.032582 0.176678
vt 1.025583 0.259064
vt 1.017154 0.258479
vt 1.024175 0.175833
vt 0.089905 1.034485
vt 0.078672 0.953998
vt 0.238555 0.065040
vt 0.231555 0.061857
vt 0.216655 0.943831
vt 0.225104 0.943786
vt 0.226821 1.026451
vt 0.218377 1.026757
vt 0.305364 0.693027
vt 0.305364 0.756937
vt -0.040694 0.680166
vt -0.033626 0.676967
vt -0.008139 0.735581
vt 0.204614 0.140028
vt 0.212089 0.141834
vt 1.095310 -0.189830
vt 1.085828 -0.149540
vt 1.077588 -0.151412
vt 1.087101 -0.191829
vt 0.074053 0.873536
vt 0.222653 1.109590
vt 0.231084 1.109024
vt 0.305289 0.684337
vt 0.590419 0.301890
vt 0.601577 0.222123
vt 0.596811 0.460690
vt 0.587790 0.461305
vt 0.585785 0.381542
vt 1.042116 0.094547
vt 1.033739 0.093444
vt -0.004398 0.743420
vt 1.045837 0.011387
vt 1.054176 0.012749
vt 0.619652 0.142075
vt 0.644680 0.063120
vt 1.068752 -0.068639
vt 1.060458 -0.070257
vt 0.544073 -0.185709
vt 0.585009 -0.191829
vt 0.585785 -0.184175
vt 0.545570 -0.178163
vt 0.226646 0.676967
vt 0.218217 0.677540
vt 0.200575 0.222241
vt 0.192893 0.221876
vt 0.204425 0.303376
vt 0.196812 0.304466
vt 1.095950 0.382707
vt 1.104397 0.382902
vt 0.818837 0.346613
vt 0.607079 0.460001
vt 0.164619 0.688825
vt 0.144499 0.688825
vt 0.144924 0.676967
vt 0.164193 0.676967
vt 0.178557 0.778511
vt 0.174546 0.861097
vt 0.166101 0.860817
vt 0.170125 0.777971
vt 0.014436 0.685673
vt 0.016131 0.676967
vt 0.025348 0.678166
vt 0.023355 0.688251
vt -0.150430 0.752600
vt -0.160516 0.776599
vt -0.167667 0.773682
vt -0.154192 0.744573
vt -0.138082 0.958947
vt -0.146573 0.876701
vt -0.138872 0.876639
vt -0.130523 0.957433
vt 0.354786 0.750242
vt 0.354906 0.740128
vt 0.364039 0.741015
vt 0.363963 0.749705
vt 0.196508 1.081445
vt 0.192603 1.150975
vt 0.184169 1.150467
vt 0.188325 1.081492
vt -0.126413 1.131972
vt -0.100765 1.067227
vt -0.096512 1.075080
vt -0.119202 1.134833
vt 0.266098 0.676967
vt 0.285367 0.676967
vt 0.285367 0.686487
vt 0.266098 0.686487
vt 0.344492 0.735937
vt 0.344792 0.747815
vt 0.062185 1.062713
vt 0.072115 1.056399
vt 0.074053 1.068720
vt 0.064184 1.073163
vt 0.285793 0.698345
vt 0.265672 0.698345
vt 0.144485 0.709450
vt 0.164632 0.709450
vt 0.347058 0.757075
vt 1.200000 0.802204
vt 1.200000 0.881723
vt 1.179853 0.881723
vt 1.179853 0.802204
vt 0.605361 0.539272
vt 0.615537 0.537732
vt 0.048410 1.038529
vt 0.038159 0.955899
vt 0.047463 0.955136
vt 0.057817 1.037063
vt 0.712498 0.833754
vt 0.752226 0.902013
vt 0.743383 0.907661
vt 0.703339 0.838572
vt 0.052942 1.065325
vt 0.034857 0.874266
vt 0.038277 0.794161
vt 0.047243 0.794917
vt 0.044023 0.874276
vt 1.179853 0.961242
vt 1.200000 0.961242
vt 1.200000 1.040761
vt 1.179853 1.040761
vt 0.344481 0.676967
vt 0.354909 0.677082
vt -0.114240 1.038118
vt -0.107089 1.035201
vt 0.190484 0.966846
vt 0.194495 1.049432
vt 0.186062 1.049971
vt 0.182039 0.967126
vt 1.200000 0.563648
vt 1.200000 0.643167
vt 1.179853 0.643167
vt 1.179853 0.563648
vt 0.054461 0.874245
vt 0.058060 0.954221
vt 0.144486 1.027526
vt 0.144486 0.948007
vt 0.164632 0.948007
vt 0.164632 1.027526
vt 0.057454 0.795738
vt 0.048142 0.715782
vt 0.055437 0.676967
vt 0.064160 0.678671
vt 0.056901 0.717198
vt 0.066863 0.718911
vt 0.164632 0.868488
vt 0.144486 0.868488
vt 0.144485 0.788969
vt 0.164632 0.788969
vt 1.200000 0.722685
vt 1.179853 0.722685
vt 0.790007 0.974666
vt 0.798356 0.967935
vt 0.669592 0.767033
vt 0.641876 0.692976
vt 0.651659 0.689769
vt 0.679075 0.763023
vt 0.190104 0.801500
vt 0.189020 0.884176
vt 0.180570 0.884195
vt 0.181658 0.801259
vt -0.109675 0.717575
vt -0.131839 0.795719
vt -0.139409 0.794329
vt -0.116845 0.714785
vt 0.620417 0.616880
vt 0.630431 0.614498
vt 0.364039 0.677105
vt 0.068476 1.035123
vt 0.164632 1.067333
vt 0.144486 1.067333
vt 0.074053 0.680901
vt 0.257120 0.456274
vt 0.304076 0.522552
vt 0.298249 0.527572
vt 0.250452 0.460105
vt 0.285806 0.757312
vt 0.265659 0.757312
vt -0.093146 0.680425
vt -0.100019 0.676967
vt 0.735592 0.912592
vt 0.695360 0.842749
vt 1.039479 0.837549
vt 1.028645 0.755317
vt 1.037038 0.754343
vt 1.047838 0.836317
vt 0.223501 0.382331
vt 0.216231 0.384837
vt 0.782360 0.980136
vt 0.362684 0.578791
vt 0.430844 0.622972
vt 0.427290 0.629793
vt 0.357909 0.584819
vt 0.196508 0.677599
vt 0.193735 0.718897
vt 0.185300 0.718396
vt 0.188082 0.676968
vt 0.661263 0.770564
vt 0.633284 0.695802
vt 0.611620 0.618982
vt 1.028769 0.672075
vt 1.020350 0.672790
vt 1.011406 0.507164
vt 1.019853 0.506968
vt 1.023039 0.589590
vt 1.014602 0.590046
vt 1.068721 1.000818
vt 1.052842 0.919410
vt 1.061159 0.917920
vt 1.076988 0.999073
vt -0.093146 1.067073
vt 0.054639 1.074343
vt -0.097004 1.059200
vt 1.095310 1.079700
vt 1.087101 1.081700
vt 0.506111 0.653511
vt 0.585785 0.669313
vt 0.585009 0.676967
vt 0.503907 0.660881
vt 0.596421 0.540635
vt 1.010766 -0.179601
vt 0.964339 -0.111409
vt 0.955213 -0.117061
vt 1.002262 -0.186300
vt 0.113219 -0.168373
vt 0.037952 -0.137834
vt 0.034398 -0.144655
vt 0.111015 -0.175743
vt 0.032910 0.694411
vt 0.034857 0.682518
vt 0.335348 0.693914
vt 0.324934 0.698105
vt 0.325234 0.686228
vt 0.335228 0.683801
vt 0.327500 0.676968
vt 0.007657 0.952915
vt 0.004760 0.872847
vt 0.015191 0.872900
vt 0.018068 0.952100
vt -0.034983 -0.099682
vt -0.030208 -0.093653
vt -0.088817 -0.037415
vt -0.094643 -0.042435
vt 0.008532 0.792828
vt 0.019023 0.713014
vt 0.029269 0.714926
vt 0.018902 0.793747
vt 0.924181 -0.040049
vt 0.890090 0.034412
vt 0.880109 0.030339
vt 0.914575 -0.044937
vt 1.099145 0.299825
vt 1.107583 0.300280
vt 0.862307 0.111467
vt 0.851975 0.108211
vt 0.017194 1.032713
vt 0.027554 1.030956
vt 0.034857 1.070472
vt 0.024461 1.072744
vt 0.840976 0.189778
vt 0.830658 0.187428
vt -0.185266 1.016080
vt -0.163102 1.094224
vt -0.170272 1.097015
vt -0.192836 1.017470
vt 0.816260 0.266650
vt 0.826495 0.268093
vt -0.183950 0.854367
vt -0.192299 0.935161
vt -0.200000 0.935098
vt -0.191509 0.852853
vt 0.947121 -0.122057
vt 0.994360 -0.191829
vt 0.324922 0.757075
vt 0.335351 0.756960
vt -0.000603 0.792029
vt 0.009899 0.711549
vt 0.180570 0.746498
vt 0.172387 0.746451
vt 0.906130 -0.049224
vt 0.015399 1.074440
vt 0.008150 1.034120
vt 1.121581 0.135528
vt 1.113312 0.217796
vt 1.104893 0.217080
vt 1.113188 0.134553
vt -0.001468 0.953637
vt -0.135772 0.028864
vt -0.142440 0.025032
vt 0.164632 0.943747
vt 0.173082 0.943767
vt 0.174166 1.026442
vt 0.165720 1.026683
vt 0.344481 0.693027
vt 0.344481 0.756937
vt -0.179840 0.679828
vt -0.172629 0.676967
vt -0.149939 0.736720
vt -0.176662 0.100301
vt -0.169392 0.102807
vt 0.177797 1.109046
vt 0.180570 1.150344
vt 0.172145 1.150975
vt 0.169362 1.109547
vt -0.004398 0.872811
vt 0.344405 0.684337
vt 0.807177 0.265397
vt 0.821584 0.185401
vt 1.132381 0.053553
vt 1.124022 0.052321
vt -0.146573 0.744727
vt 1.137385 -0.029539
vt 1.145702 -0.028049
vt 0.842976 0.105397
vt 0.871336 0.026769
vt 1.161531 -0.109203
vt 1.153264 -0.110948
vt -0.153445 1.134832
vt -0.146573 1.131375
vt 1.179853 -0.189830
vt 1.171643 -0.191829
vt 0.192893 -0.184175
vt 0.192117 -0.191829
vt 0.176665 0.676967
vt 0.168231 0.677476
vt 0.708100 0.500000
vt 0.720472 0.500000
vt 0.720472 0.507143
vt 0.708100 0.507143
vt 0.613329 0.071429
vt 0.600957 0.071429
vt 0.600957 0.928571
vt 0.613329 0.928571
vt 0.600957 0.500000
vt 0.613329 0.500000
vt 0.613329 0.507143
vt 0.600957 0.507143
vt 0.708100 0.928571
vt 0.708100 0.071429
vt 0.720472 0.071429
vt 0.720472 0.928571
vt 0.928571 0.507143
vt 0.071429 0.507143
vt 0.071429 0.500000
vt 0.928571 0.500000
vt 0.184757 0.500000
vt 0.172386 0.500000
vt 0.172386 0.507143
vt 0.184757 0.507143
vt 0.184757 0.071429
vt 0.172386 0.071429
vt 0.172386 0.928571
vt 0.184757 0.928571
vt 0.172386 0.500000
vt 0.184757 0.500000
vt 0.184757 0.507143
vt 0.172386 0.507143
vt 0.720472 0.500000
vt 0.708100 0.500000
vt 0.708100 0.507143
vt 0.720472 0.507143
vt 0.493814 0.500000
vt 0.506186 0.500000
vt 0.506186 0.507143
vt 0.493814 0.507143
vt 0.506186 0.071429
vt 0.493814 0.071429
vt 0.493814 0.928571
vt 0.506186 0.928571
vt 0.506186 0.500000
vt 0.493814 0.500000
vt 0.493814 0.507143
vt 0.506186 0.507143
vt 0.399043 0.500000
vt 0.386671 0.500000
vt 0.386671 0.507143
vt 0.399043 0.507143
vt 0.399043 0.071429
vt 0.386671 0.071429
vt 0.386671 0.928571
vt 0.399043 0.928571
vt 0.279528 0.500000
vt 0.291900 0.500000
vt 0.291900 0.507143
vt 0.279528 0.507143
vt 0.386671 0.500000
vt 0.399043 0.500000
vt 0.399043 0.507143
vt 0.386671 0.507143
vt 0.827615 0.071429
vt 0.815243 0.071429
vt 0.815243 0.928571
vt 0.827615 0.928571
vt 0.827615 0.500000
vt 0.815243 0.500000
vt 0.815243 0.507143
vt 0.827615 0.507143
vt 0.291900 0.071429
vt 0.279528 0.071429
vt 0.279528 0.928571
vt 0.291900 0.928571
vt 0.613329 0.500000
vt 0.600957 0.500000
vt 0.600957 0.507143
vt 0.613329 0.507143
vt 0.291900 0.500000
vt 0.279528 0.500000
vt 0.279528 0.507143
vt 0.291900 0.507143
vt 0.815243 0.500000
vt 0.827615 0.500000
vt 0.827615 0.507143
vt 0.815243 0.507143
vt 0.225957 0.492857
vt 0.238329 0.492857
vt 0.238329 0.500000
vt 0.225957 0.500000
vt 0.053571 0.225957
vt 0.946429 0.225957
vt 0.946429 0.238329
vt 0.053571 0.238329
vt 0.053571 0.492857
vt 0.946429 0.492857
vt 0.946429 0.500000
vt 0.053571 0.500000
vt 0.118814 0.492857
vt 0.131186 0.492857
vt 0.131186 0.500000
vt 0.118814 0.500000
vt 0.131186 0.492857
vt 0.131186 0.500000
vt 0.053571 0.333100
vt 0.946429 0.333100
vt 0.946429 0.345472
vt 0.053571 0.345471
vt 0.053571 0.118814
vt 0.946429 0.118814
vt 0.946429 0.131186
vt 0.053571 0.131186
vt 0.238329 0.492857
vt 0.238329 0.500000
vt 0.452614 0.492857
vt 0.440243 0.492857
vt 0.440243 0.500000
vt 0.452614 0.500000
vt 0.345471 0.492857
vt 0.333100 0.492857
vt 0.333100 0.500000
vt 0.345471 0.500000
vt 0.452614 0.492857
vt 0.452614 0.500000
vt 0.345472 0.492857
vt 0.345472 0.500000
vt 0.053571 0.654528
vt 0.946429 0.654528
vt 0.946429 0.666900
vt 0.053571 0.666900
vt 0.053571 0.492857
vt 0.946429 0.492857
vt 0.946429 0.452614
vt 0.946429 0.440243
vt 0.053571 0.440243
vt 0.053571 0.452614
vt 0.654528 0.492857
vt 0.666900 0.492857
vt 0.666900 0.500000
vt 0.654528 0.500000
vt 0.547385 0.492857
vt 0.559757 0.492857
vt 0.559757 0.500000
vt 0.547385 0.500000
vt 0.666900 0.492857
vt 0.666900 0.500000
vt 0.559757 0.492857
vt 0.559757 0.500000
vt 0.946429 0.559757
vt 0.946429 0.547385
vt 0.053571 0.547385
vt 0.053571 0.559757
vt 0.774043 0.492857
vt 0.761671 0.492857
vt 0.761671 0.500000
vt 0.774043 0.500000
vt 0.946429 0.774043
vt 0.946429 0.761671
vt 0.053571 0.761671
vt 0.053571 0.774043
vt 0.774043 0.492857
vt 0.774043 0.500000
vt 0.881186 0.492857
vt 0.868814 0.492857
vt 0.868814 0.500000
vt 0.881186 0.500000
vt 0.053571 0.500000
vt 0.946429 0.500000
vt 0.946429 0.881186
vt 0.946429 0.868814
vt 0.053571 0.868814
vt 0.053571 0.881186
vt 0.881186 0.492857
vt 0.881186 0.500000
vt 0.294682 0.000000
vt 0.294682 0.068597
vt 0.277249 0.089665
vt 0.000000 0.000000
vt 1.009766 1.000000
vt 1.000000 1.000000
vt 1.000000 0.000000
vt 1.009766 0.000000
vt 0.705318 0.000000
vt 0.722751 0.089665
vt 0.705318 0.068597
vt 0.186499 0.427836
vt 0.198546 0.508593
vt 0.000000 1.000000
vt 0.238072 0.153314
vt 0.208961 0.225930
vt 0.351501 0.757095
vt 0.408555 0.788605
vt 0.300155 0.711350
vt 0.191035 0.304724
vt 0.184982 0.386667
vt 0.801453 0.508593
vt 0.813501 0.427836
vt 0.469123 0.804668
vt 0.530877 0.804668
vt 0.591445 0.788605
vt 0.815018 0.386667
vt 0.222179 0.584665
vt 0.777821 0.584664
vt 0.791039 0.225930
vt 0.761928 0.153314
vt 0.256488 0.653127
vt 0.808965 0.304724
vt 0.648499 0.757095
vt 0.699846 0.711350
vt -0.000000 0.000000
vt -0.009766 0.000000
vt -0.009766 1.000000
vt -0.000000 1.000000
vt 0.743512 0.653127
s 1
usemtl wall_mp_1
f 4/757/416 2/758/416 1/759/416 3/760/416
f 139/764/417 145/765/417 6/766/417 5/756/417
f 160/769/417 15/770/417 6/766/417 157/771/417
f 226/774/417 223/775/417 1/759/417 2/758/417
f 163/776/417 18/777/417 16/778/417 2/758/417
f 12/779/417 1/759/417 223/775/417
f 5/756/417 14/773/417 139/764/417
f 6/766/417 145/765/417 154/780/417
f 216/781/417 226/774/417 2/758/417
f 7/788/418 5/789/418 6/790/418 8/791/418
f 127/753/417 9/754/417 124/755/417 5/756/417
f 208/761/417 1/759/417 10/762/417 200/763/417
f 213/782/417 229/783/417 10/762/417 1/759/417
f 121/767/417 148/768/417 5/756/417 124/755/417
f 1/759/417 12/779/417 11/785/417 213/782/417
f 6/766/417 15/770/417 163/776/417 2/758/417
f 142/772/417 14/773/417 5/756/417 148/768/417
f 151/784/417 157/771/417 6/766/417 154/780/417
f 238/787/417 13/792/417 216/781/417 2/758/417
f 16/778/417 17/786/417 238/787/417 2/758/417
usemtl wall_mp_1_rear
f 29/753/415 30/754/415 28/755/415 23/756/415
f 52/761/415 19/759/415 55/762/415 44/763/415
f 27/767/415 36/768/415 23/756/415 28/755/415
f 292/772/415 34/773/415 23/756/415 36/768/415
f 71/774/415 68/775/415 19/759/415 20/758/415
f 31/782/415 74/783/415 55/762/415 19/759/415
f 37/784/415 39/771/415 24/766/415 38/780/415
f 19/759/415 32/779/415 63/785/415 31/782/415
f 42/778/415 81/786/415 84/787/415 20/758/415
f 41/776/415 43/777/415 42/778/415 20/758/415
f 24/766/415 310/770/415 41/776/415 20/758/415
f 22/757/419 20/758/419 19/759/419 21/760/419
f 35/764/415 295/765/415 24/766/415 23/756/415
f 32/779/415 19/759/415 68/775/415
f 23/756/415 34/773/415 35/764/415
f 24/766/415 295/765/415 38/780/415
f 60/781/415 71/774/415 20/758/415
f 40/769/415 310/770/415 24/766/415 39/771/415
f 84/787/415 33/792/415 60/781/415 20/758/415
f 25/788/420 23/789/420 24/790/420 26/791/420
usemtl metal_mp_6
f 50/1/1 130/2/1 131/3/2 51/4/2
f 178/5/3 177/6/4 121/7/4 124/8/5
f 169/9/6 170/10/7 134/11/7 133/12/8
f 169/13/9 179/14/10 178/15/11 168/16/12
f 108/17/13 100/18/14 99/19/14 107/20/13
f 49/21/15 48/22/16 90/23/17 91/24/15
f 89/25/18 98/26/18 52/27/18 44/28/18
f 98/29/19 89/30/20 90/31/21 97/32/19
f 51/33/2 131/34/2 136/35/22 46/36/22
f 45/37/23 48/22/24 49/21/25 46/38/26
f 47/39/27 50/40/28 51/41/29 49/42/25
f 46/36/22 136/35/22 135/43/30 45/44/30
f 126/45/31 130/2/1 50/1/1 57/46/31
f 46/38/26 49/21/25 51/47/29
f 153/48/32 156/49/33 62/50/33 77/51/32
f 80/52/34 87/53/35 88/54/35 79/55/34
f 120/56/36 107/57/37 76/58/38 56/59/39
f 62/60/40 72/61/41 73/62/41 61/63/40
f 92/64/42 120/56/36 56/59/39 47/39/43
f 99/65/44 109/66/45 64/67/45 58/68/44
f 72/69/46 146/70/46 140/71/47 69/72/47
f 45/37/23 54/73/48 53/74/48 48/22/24
f 119/75/49 108/17/13 107/20/13 120/76/50
f 108/77/51 119/78/52 55/79/53 74/80/51
f 166/81/54 161/82/55 83/83/55 79/84/54
f 59/85/56 75/86/57 76/58/57 58/68/56
f 137/87/58 144/88/59 65/89/59 67/90/58
f 65/91/60 59/85/56 58/68/56 64/67/60
f 101/92/61 103/93/62 70/94/63 66/95/64
f 64/67/60 66/96/65 67/97/66 65/91/60
f 59/98/67 150/99/67 122/100/68 75/101/68
f 161/82/55 158/102/69 86/103/69 83/83/55
f 70/94/70 73/62/41 72/61/41 69/104/71
f 78/105/72 85/106/73 86/107/73 77/108/72
f 110/109/74 100/110/75 31/111/75 63/112/74
f 101/113/76 109/114/77 110/115/77 102/116/78
f 79/84/54 88/117/79 164/118/79 166/81/54
f 158/102/69 153/48/32 77/51/32 86/103/69
f 85/106/73 82/119/80 83/120/80 86/107/73
f 82/119/80 80/52/34 79/55/34 83/120/80
f 77/108/72 62/60/40 61/63/40 78/105/72
f 97/121/81 90/23/17 48/22/16 53/74/81
f 119/78/52 89/25/82 44/28/82 55/79/53
f 75/86/57 57/122/83 56/59/84 76/58/57
f 69/72/47 140/71/47 137/123/58 67/124/58
f 339/125/85 94/126/86 93/127/86 340/128/85
f 66/95/65 70/94/70 69/104/71 67/129/66
f 144/88/59 150/99/67 59/98/67 65/89/59
f 47/39/27 56/59/84 57/122/83 50/40/28
f 122/100/68 126/45/31 57/46/31 75/101/68
f 242/130/87 164/118/79 88/117/79 308/131/87
f 117/132/88 116/133/89 115/134/89 118/135/88
f 45/44/30 135/43/30 128/136/90 54/137/90
f 103/138/91 101/139/76 102/140/78 104/141/92
f 105/142/93 96/143/94 61/63/94 73/62/93
f 33/144/95 84/145/96 115/146/96 112/147/95
f 113/148/97 117/132/88 118/135/88 114/149/97
f 103/93/62 105/142/93 73/62/93 70/94/63
f 111/150/98 96/151/99 95/152/99 112/153/98
f 107/57/37 99/65/44 58/68/44 76/58/38
f 104/154/100 102/155/101 32/156/102 68/157/103
f 96/143/94 111/158/104 78/105/104 61/63/94
f 116/159/105 117/160/106 82/119/106 85/106/105
f 66/96/64 64/67/45 109/66/45 101/161/61
f 111/158/104 116/159/105 85/106/105 78/105/104
f 118/162/107 115/146/96 84/145/96 81/163/107
f 43/164/108 93/165/108 114/166/109 42/167/109
f 71/168/110 60/169/111 95/170/111 106/171/110
f 112/147/95 95/170/111 60/169/111 33/144/95
f 89/30/20 91/172/112 90/31/21
f 91/173/113 92/64/42 47/39/43 49/42/113
f 92/174/114 91/172/112 89/30/20
f 106/171/110 104/154/100 68/157/103 71/168/110
f 100/18/14 110/115/77 109/114/77 99/19/14
f 100/110/75 108/77/51 74/80/51 31/111/75
f 105/175/115 103/138/91 104/141/92 106/176/115
f 106/176/115 95/152/99 96/151/99 105/175/115
f 113/177/116 94/178/117 87/53/117 80/52/116
f 117/160/106 113/177/116 80/52/116 82/119/106
f 114/166/109 118/162/107 81/163/107 42/167/109
f 32/179/102 102/180/101 110/109/74 63/112/74
f 120/76/50 92/174/114 89/30/20 119/75/49
f 140/181/118 146/182/119 147/183/119 141/184/120
f 116/133/89 111/150/98 112/153/98 115/134/89
f 114/149/97 93/127/86 94/126/86 113/148/97
f 309/185/121 87/53/117 94/178/117 339/186/121
f 172/187/122 181/188/123 180/189/123 173/190/122
f 130/191/124 133/12/125 134/11/126 131/192/127
f 132/193/128 135/194/129 136/195/130 134/196/126
f 131/197/127 134/196/126 136/195/130
f 143/198/131 149/199/132 150/200/132 144/201/131
f 182/202/133 183/203/133 190/204/134 191/205/134
f 123/206/135 125/207/136 126/208/137 122/209/135
f 156/210/138 153/211/139 152/212/139 155/213/138
f 163/214/140 15/215/141 197/216/141 195/217/140
f 125/207/136 133/12/125 130/191/124 126/208/137
f 153/211/139 158/218/142 159/219/142 152/212/139
f 138/220/143 143/198/131 144/201/131 137/221/144
f 122/209/135 150/200/132 149/199/132 123/206/135
f 137/222/144 140/181/118 141/184/120 138/223/143
f 146/182/119 156/210/138 155/213/138 147/183/119
f 158/218/142 161/224/145 162/225/145 159/219/142
f 189/226/146 184/227/147 185/228/148 188/229/146
f 62/50/33 156/49/33 146/70/46 72/69/46
f 165/230/149 167/231/150 166/232/150 164/233/149
f 167/231/150 162/225/145 161/224/145 166/232/150
f 176/234/151 175/235/152 174/236/152 177/237/151
f 141/184/153 147/183/154 172/238/154 186/239/155
f 128/240/156 135/194/129 132/193/128 129/241/156
f 125/207/157 123/206/158 176/242/159 179/243/160
f 177/237/151 178/15/11 179/14/10 176/234/151
f 168/244/161 178/5/3 124/8/5 9/245/161
f 181/246/162 172/238/154 147/183/154 155/213/162
f 186/239/155 184/247/163 138/223/164 141/184/153
f 191/248/165 193/249/166 160/250/166 157/251/165
f 184/252/163 189/253/167 143/198/167 138/220/164
f 190/204/134 192/254/168 193/255/168 191/205/134
f 148/256/169 174/257/169 188/258/170 142/259/170
f 177/6/4 174/257/169 148/256/169 121/7/4
f 171/260/171 198/261/172 129/241/172 132/193/173
f 168/16/12 199/262/174 198/263/174 171/264/175
f 180/189/123 181/188/123 183/203/133 182/202/133
f 197/265/176 193/255/168 192/254/168 196/266/176
f 185/267/177 187/268/178 139/269/179 14/270/180
f 193/249/166 197/216/141 15/215/141 160/250/166
f 175/271/181 176/242/159 123/206/158 149/199/181
f 14/272/180 142/259/170 188/258/170 185/273/177
f 170/274/182 171/260/171 132/193/173 134/196/182
f 196/275/183 192/276/184 162/225/184 167/231/183
f 165/230/185 241/277/186 248/278/186 194/279/185
f 182/280/187 191/248/165 157/251/165 151/281/187
f 168/16/12 170/282/188 169/13/9
f 171/264/175 170/282/188 168/16/12
f 149/199/181 143/198/167 189/253/167 175/271/181
f 154/283/189 180/284/189 182/280/187 151/281/187
f 152/212/190 159/219/191 190/285/191 183/286/190
f 183/286/190 181/246/162 155/213/162 152/212/190
f 179/243/160 169/9/6 133/12/8 125/207/157
f 173/287/192 180/284/189 154/283/189 145/288/192
f 187/289/193 185/290/148 184/291/147 186/292/194
f 175/235/152 189/226/146 188/229/146 174/236/152
f 192/276/184 190/285/191 159/219/191 162/225/184
f 187/268/178 173/287/192 145/288/192 139/269/179
f 186/292/194 172/187/122 173/190/122 187/289/193
f 194/279/185 196/275/183 167/231/183 165/230/185
f 199/293/195 168/244/195 9/245/195 127/294/195
f 196/266/176 194/295/196 195/296/196 197/265/176
f 194/295/196 248/297/197 247/298/197 195/296/196
f 41/299/198 340/300/198 93/165/108 43/164/108
f 309/185/199 308/301/199 88/54/35 87/53/35
f 241/277/200 165/230/149 164/233/149 242/302/200
f 206/303/201 281/304/201 282/305/202 207/306/202
f 323/307/203 322/308/204 27/309/204 28/310/205
f 314/311/206 315/312/207 285/313/207 284/314/208
f 314/315/209 324/316/210 323/317/211 313/318/212
f 262/319/213 254/320/214 253/321/214 261/322/213
f 205/323/215 204/324/216 244/325/217 245/326/215
f 243/327/218 252/328/218 208/329/218 200/330/218
f 252/331/219 243/332/220 244/333/221 251/334/219
f 207/335/202 282/336/202 287/337/222 202/338/222
f 201/339/223 204/324/224 205/323/225 202/340/226
f 203/341/227 206/342/228 207/343/229 205/344/225
f 202/338/222 287/337/222 286/345/230 201/346/230
f 278/347/231 281/304/201 206/303/201 212/348/231
f 202/340/226 205/323/225 207/349/229
f 301/350/232 303/351/233 218/352/233 232/353/232
f 235/354/234 241/277/200 242/302/200 234/355/234
f 274/356/235 261/357/236 231/358/237 211/359/238
f 218/360/239 227/361/240 228/362/240 217/363/239
f 246/364/241 274/356/235 211/359/238 203/341/242
f 253/365/243 263/366/244 219/367/244 214/368/243
f 227/369/245 296/370/245 290/371/246 224/372/246
f 201/339/223 210/373/247 209/374/247 204/324/224
f 273/375/248 262/319/213 261/322/213 274/376/249
f 262/377/250 273/378/251 10/379/252 229/380/250
f 311/381/253 306/382/254 237/383/254 234/384/253
f 215/385/255 230/386/256 231/358/256 214/368/255
f 288/387/257 294/388/258 220/389/258 222/390/257
f 220/391/259 215/385/255 214/368/255 219/367/259
f 255/392/260 257/393/261 225/394/262 221/395/263
f 219/367/259 221/395/264 222/396/265 220/391/259
f 215/397/266 299/398/266 275/399/267 230/400/267
f 306/382/254 304/401/268 240/402/268 237/383/254
f 225/403/269 228/362/240 227/361/240 224/404/270
f 233/405/271 239/406/272 240/407/272 232/408/271
f 264/409/273 254/410/274 213/411/274 11/412/273
f 255/413/275 263/414/276 264/415/276 256/416/277
f 234/384/253 242/130/87 308/131/87 311/381/253
f 304/401/268 301/350/232 232/353/232 240/402/268
f 239/406/272 236/417/278 237/418/278 240/407/272
f 236/417/278 235/354/234 234/355/234 237/418/278
f 232/408/271 218/360/239 217/363/239 233/405/271
f 251/419/279 244/325/217 204/324/216 209/374/279
f 273/378/251 243/327/280 200/330/280 10/379/252
f 230/386/256 212/420/281 211/359/282 231/358/256
f 224/421/246 290/422/246 288/387/257 222/390/257
f 221/395/264 225/394/269 224/423/270 222/396/265
f 294/388/258 299/398/266 215/397/266 220/389/258
f 203/341/227 211/359/282 212/420/281 206/342/228
f 275/399/267 278/347/231 212/348/231 230/400/267
f 271/424/283 270/425/284 269/426/284 272/427/283
f 201/346/230 286/345/230 279/428/285 210/429/285
f 257/430/286 255/413/275 256/416/277 258/431/287
f 259/432/288 250/433/289 217/363/289 228/362/288
f 13/434/290 238/435/291 269/436/291 266/437/290
f 267/438/292 271/424/283 272/427/283 268/439/292
f 257/440/261 259/432/288 228/362/288 225/403/262
f 265/441/293 250/442/294 249/443/294 266/444/293
f 261/357/236 253/365/243 214/368/243 231/358/237
f 258/445/295 256/446/296 12/447/297 223/448/298
f 250/433/289 265/449/299 233/405/299 217/363/289
f 270/450/300 271/451/301 236/417/301 239/406/300
f 221/395/263 219/367/244 263/366/244 255/392/260
f 265/449/299 270/450/300 239/406/300 233/405/299
f 272/452/302 269/436/291 238/435/291 17/453/302
f 18/454/303 247/455/303 268/456/304 16/457/304
f 226/458/305 216/459/306 249/460/306 260/461/305
f 266/437/290 249/460/306 216/459/306 13/434/290
f 243/332/220 245/462/307 244/333/221
f 245/463/308 246/364/241 203/341/242 205/344/308
f 246/464/309 245/462/307 243/332/220
f 260/461/305 258/465/295 223/466/298 226/458/305
f 254/320/214 264/415/276 263/414/276 253/321/214
f 254/410/274 262/377/250 229/380/250 213/411/274
f 259/467/310 257/468/286 258/469/287 260/470/310
f 260/470/310 249/443/294 250/442/294 259/467/310
f 267/471/311 248/278/186 241/277/186 235/354/311
f 271/451/301 267/471/311 235/354/311 236/417/301
f 268/456/304 272/452/302 17/453/302 16/457/304
f 12/447/297 256/446/296 264/409/273 11/412/273
f 274/376/249 246/464/309 243/332/220 273/375/248
f 290/472/312 296/473/313 297/474/313 291/475/314
f 270/425/284 265/441/293 266/444/293 269/426/284
f 268/439/292 247/298/197 248/297/197 267/438/292
f 317/476/315 326/477/316 325/478/316 318/479/315
f 281/480/317 284/314/318 285/313/319 282/481/320
f 283/482/321 286/483/322 287/484/323 285/485/319
f 282/486/320 285/485/319 287/484/323
f 293/487/324 298/488/325 299/489/325 294/490/324
f 327/491/326 328/492/326 335/493/327 336/494/327
f 276/495/328 277/496/329 278/497/330 275/498/328
f 303/499/331 301/500/332 300/501/332 302/502/331
f 41/299/198 310/503/333 342/504/333 340/300/198
f 277/496/329 284/314/318 281/480/317 278/497/330
f 301/500/332 304/505/334 305/506/334 300/501/332
f 289/507/335 293/487/324 294/490/324 288/508/336
f 275/498/328 299/489/325 298/488/325 276/495/328
f 288/508/336 290/509/312 291/510/314 289/507/335
f 296/473/313 303/499/331 302/502/331 297/474/313
f 304/505/334 306/511/337 307/512/337 305/506/334
f 334/513/338 329/514/339 330/515/340 333/516/338
f 218/352/233 303/351/233 296/370/245 227/369/245
f 309/185/199 312/517/341 311/518/341 308/301/199
f 312/517/341 307/512/337 306/511/337 311/518/341
f 321/519/342 320/520/343 319/521/343 322/522/342
f 291/475/344 297/474/345 317/523/345 331/524/346
f 279/525/347 286/483/322 283/482/321 280/526/347
f 277/496/348 276/495/349 321/527/350 324/528/351
f 322/522/342 323/317/211 324/316/210 321/519/342
f 313/529/352 323/307/203 28/310/205 30/530/352
f 326/531/353 317/523/345 297/474/345 302/502/353
f 331/532/346 329/533/354 289/507/355 291/510/344
f 336/534/356 338/535/357 40/536/357 39/537/356
f 329/533/354 334/538/358 293/487/358 289/507/355
f 335/493/327 337/539/359 338/540/359 336/494/327
f 36/541/360 319/542/360 333/543/361 292/544/361
f 322/308/204 319/542/360 36/541/360 27/309/204
f 316/545/362 343/546/363 280/526/363 283/482/364
f 313/318/212 344/547/365 343/548/365 316/549/366
f 325/478/316 326/477/316 328/492/326 327/491/326
f 342/550/367 338/540/359 337/539/359 341/551/367
f 330/552/368 332/553/369 35/554/370 34/555/371
f 338/535/357 342/504/333 310/503/333 40/536/357
f 320/556/372 321/527/350 276/495/349 298/488/372
f 34/555/371 292/544/361 333/543/361 330/552/368
f 315/557/373 316/545/362 283/482/364 285/485/373
f 341/558/374 337/559/375 307/512/375 312/517/374
f 327/560/376 336/534/356 39/537/356 37/561/376
f 313/318/212 315/562/377 314/315/209
f 316/549/366 315/562/377 313/318/212
f 298/488/372 293/487/358 334/538/358 320/556/372
f 38/563/378 325/564/378 327/560/376 37/561/376
f 300/501/379 305/506/380 335/565/380 328/566/379
f 328/566/379 326/531/353 302/502/353 300/501/379
f 324/528/351 314/311/206 284/314/208 277/496/348
f 318/567/381 325/564/378 38/563/378 295/568/381
f 332/569/382 330/515/340 329/514/339 331/570/383
f 320/520/343 334/513/338 333/516/338 319/521/343
f 337/559/375 335/565/380 305/506/380 307/512/375
f 332/571/369 318/567/381 295/568/381 35/572/370
f 331/573/383 317/476/315 318/479/315 332/574/382
f 339/186/121 341/558/374 312/517/374 309/185/121
f 344/575/384 313/529/384 30/530/384 29/576/384
f 341/551/367 339/125/85 340/128/85 342/550/367
f 195/217/140 247/455/303 18/454/303 163/214/140
f 374/577/385 370/578/385 372/579/385 376/580/385
f 367/581/386 363/582/387 364/583/388 368/584/389
f 362/583/390 361/582/391 365/581/391 366/584/390
f 363/585/385 367/586/385 365/587/385 361/588/385
f 375/589/390 376/590/391 372/591/391 371/592/390
f 366/593/392 365/594/392 367/595/393 368/596/394
f 352/597/395 348/598/395 346/599/395 350/600/395
f 348/596/396 347/595/397 345/594/398 346/593/398
f 351/601/386 347/602/387 348/603/388 352/604/389
f 346/603/390 345/602/391 349/601/391 350/604/390
f 350/593/392 349/594/392 351/595/393 352/596/394
f 347/605/385 351/606/385 349/607/385 345/608/385
f 371/593/392 372/594/392 370/595/393 369/596/394
f 370/591/386 374/590/387 373/589/388 369/592/389
f 369/609/395 373/610/395 375/611/395 371/612/395
f 373/596/396 374/595/397 376/594/398 375/593/398
f 379/593/392 380/594/392 378/595/393 377/596/394
f 382/613/385 378/614/385 380/615/385 384/616/385
f 378/617/386 382/618/387 381/619/388 377/620/389
f 383/619/390 384/618/391 380/617/391 379/620/390
f 377/621/395 381/622/395 383/623/395 379/624/395
f 381/596/396 382/595/397 384/594/398 383/593/398
f 392/625/395 388/626/395 386/627/395 390/628/395
f 388/596/396 387/595/397 385/594/398 386/593/398
f 390/593/392 389/594/392 391/595/393 392/596/394
f 391/629/386 387/630/387 388/631/388 392/632/389
f 386/631/390 385/630/391 389/629/391 390/632/390
f 398/633/385 394/634/385 396/635/385 464/636/385
f 395/593/392 396/594/392 394/595/393 393/596/394
f 387/637/385 391/638/385 389/639/385 385/640/385
f 359/641/386 355/642/387 356/643/388 360/644/389
f 360/645/395 356/646/395 354/647/395 358/648/395
f 394/649/386 398/650/387 397/651/388 393/652/389
f 399/651/390 464/650/391 396/649/391 395/652/390
f 358/593/392 357/594/392 359/595/393 360/596/394
f 368/653/395 364/654/395 362/655/395 366/656/395
f 393/657/395 397/658/395 399/659/395 395/660/395
f 397/596/396 398/595/397 464/594/398 399/593/398
f 354/643/390 353/642/391 357/641/391 358/644/390
f 355/661/385 359/662/385 357/663/385 353/664/385
f 364/596/396 363/595/397 361/594/398 362/593/398
f 356/596/396 355/595/397 353/594/398 354/593/398
f 405/665/399 401/666/399 403/667/399 407/668/399
f 406/669/400 407/670/401 403/671/402 402/672/400
f 411/673/403 410/674/404 408/675/405 409/676/406
f 410/677/399 414/678/399 412/679/399 408/680/399
f 415/681/407 411/677/407 409/680/407 413/682/407
f 402/676/408 403/675/408 401/674/409 400/673/410
f 404/673/403 405/674/404 407/675/405 406/676/406
f 422/683/400 423/684/401 419/685/402 418/686/400
f 417/685/411 421/684/412 420/683/413 416/686/414
f 409/687/400 408/688/401 412/689/402 413/690/400
f 413/676/408 412/675/408 414/674/409 415/673/410
f 400/691/407 404/665/407 406/668/407 402/692/407
f 414/689/411 410/688/412 411/687/413 415/690/414
f 401/671/411 405/670/412 404/669/413 400/672/414
f 431/693/407 427/694/407 425/695/407 429/696/407
f 418/676/408 419/675/408 417/674/409 416/673/410
f 416/697/407 420/698/407 422/699/407 418/700/407
f 429/676/408 428/675/408 430/674/409 431/673/410
f 427/673/403 426/674/404 424/675/405 425/676/406
f 426/694/399 430/701/399 428/702/399 424/695/399
f 421/698/399 417/703/399 419/704/399 423/699/399
f 438/705/400 439/706/401 435/707/402 434/708/400
f 433/707/411 437/706/412 436/705/413 432/708/414
f 436/709/403 437/710/404 439/675/405 438/676/406
f 430/711/411 426/712/412 427/713/413 431/714/414
f 425/713/400 424/712/401 428/711/402 429/714/400
f 437/715/399 433/716/399 435/717/399 439/718/399
f 420/673/403 421/674/404 423/675/405 422/676/406
f 442/719/399 446/720/399 444/721/399 440/722/399
f 432/723/407 436/715/407 438/718/407 434/724/407
f 434/676/408 435/675/408 433/710/409 432/709/410
f 443/709/403 442/710/404 440/675/405 441/676/406
f 445/676/408 444/675/408 446/710/409 447/709/410
f 447/725/407 443/719/407 441/722/407 445/726/407
f 446/727/411 442/728/412 443/729/413 447/730/414
f 450/676/408 451/675/408 449/710/409 448/709/410
f 448/731/407 452/732/407 454/733/407 450/734/407
f 449/735/411 453/736/412 452/737/413 448/738/414
f 453/732/399 449/739/399 451/740/399 455/733/399
f 452/709/403 453/710/404 455/675/405 454/676/406
f 454/737/400 455/736/401 451/735/402 450/738/400
f 441/729/400 440/728/401 444/727/402 445/730/400
f 463/741/407 459/742/407 457/743/407 461/744/407
f 461/745/408 460/746/408 462/710/409 463/709/410
f 462/747/411 458/748/412 459/749/413 463/750/414
f 457/749/400 456/748/401 460/747/402 461/750/400
f 459/709/403 458/710/404 456/746/405 457/745/406
f 458/742/399 462/751/399 460/752/399 456/743/399
