# Blender 5.0.1
# www.blender.org
mtllib window_1_single_no_glass.mtl
o window_1_single_no_glass
v 2.000000 0.000000 0.060000
v 2.000000 3.000000 0.060000
v 2.000000 0.000000 -0.060000
v 2.000000 3.000000 -0.060000
v 2.030000 0.000000 0.030000
v 2.030000 3.000000 0.030000
v 2.030000 0.000000 -0.030000
v 2.030000 3.000000 -0.030000
v -2.000000 0.000000 -0.060000
v -2.000000 3.000000 -0.060000
v -2.000000 0.000000 0.060001
v -2.000000 3.000000 0.060000
v -2.030000 0.000000 -0.030000
v -2.030000 3.000000 -0.030000
v -2.030000 0.000000 0.030001
v -2.030000 3.000000 0.030000
v -0.640000 0.820000 -0.060000
v -0.640000 2.580000 -0.060000
v 0.640000 0.820000 -0.060000
v 0.640000 2.580000 -0.060000
v 0.640000 0.820000 0.060000
v -0.640000 0.820000 0.060000
v -0.640000 2.580000 0.060000
v 0.640000 2.580000 0.060000
v 0.640000 0.820001 -0.100000
v 0.639998 0.820001 0.100000
v -0.560000 0.900001 -0.080000
v -0.560000 0.900001 0.080000
v -0.640000 0.820001 -0.100000
v -0.640000 0.820001 0.100000
v 0.560000 0.900001 -0.080000
v -0.580000 0.880001 -0.080000
v -0.600000 0.860001 -0.100000
v 0.600000 0.860001 -0.100000
v 0.580000 0.880001 -0.080000
v 0.600000 0.860000 0.100000
v -0.600000 0.860001 0.100000
v -0.580000 0.880001 0.080000
v 0.580000 0.880001 0.080000
v -0.640000 2.580000 -0.100000
v -0.640000 2.580000 0.100000
v 0.559999 2.500000 -0.080000
v 0.559999 2.500000 0.080000
v 0.639999 2.580000 -0.100000
v 0.639999 2.580000 0.100000
v -0.560001 2.500000 -0.080000
v -0.560001 2.500000 0.080000
v 0.559999 0.900000 0.080000
v 0.599999 2.540000 -0.100000
v 0.579999 2.520000 -0.080000
v -0.600001 2.540000 -0.100000
v -0.580001 2.520000 -0.080000
v -0.580001 2.520000 0.080000
v -0.600001 2.540000 0.100000
v 0.599999 2.540000 0.100000
v 0.579999 2.520000 0.080000
v 0.560001 0.900000 -0.020000
v -0.559998 0.900000 -0.020000
v 0.560001 2.500000 -0.020000
v -0.559998 2.500000 -0.020000
v 0.530001 2.470000 0.000000
v 0.530001 0.930000 0.000000
v -0.529999 0.930000 0.000000
v -0.529999 2.470000 0.000000
v 0.530001 1.420000 0.000000
v -0.529999 1.420000 0.000000
v -0.529999 1.480000 0.000000
v 0.530001 1.480000 0.000000
v -0.529999 1.990000 0.000000
v 0.530001 1.990000 0.000000
v 0.530001 1.930000 0.000000
v -0.529999 1.930000 0.000000
v -0.029999 0.930000 0.000000
v -0.029999 2.470000 0.000000
v -0.029999 1.420000 0.000000
v -0.029999 1.480000 0.000000
v -0.029999 1.990000 0.000000
v -0.029999 1.930000 0.000000
v 0.030001 2.470000 0.000000
v 0.030001 1.420000 0.000000
v 0.030001 1.480000 0.000000
v 0.030001 1.990000 0.000000
v 0.030001 1.930000 0.000000
v 0.030001 0.930000 0.000000
v -0.559998 1.960000 -0.020000
v 0.560001 1.960000 -0.020000
v 0.560001 1.450000 -0.020000
v -0.559998 1.450000 -0.020000
v 0.000000 0.900000 -0.020000
v 0.000000 2.500000 -0.020000
v 0.000000 1.960000 -0.020000
v 0.000000 1.450000 -0.020000
v -0.559998 0.900000 0.030000
v 0.560001 0.900000 0.030000
v -0.559998 2.500000 0.030000
v 0.560001 2.500000 0.030000
v -0.529999 2.470000 0.010000
v -0.529999 0.930000 0.010000
v 0.530001 0.930000 0.010000
v 0.530001 2.470000 0.010000
v -0.529999 1.420000 0.010000
v 0.530001 1.420000 0.010000
v 0.530001 1.480000 0.010000
v -0.529999 1.480000 0.010000
v 0.530001 1.990000 0.010000
v -0.529999 1.990000 0.010000
v -0.529999 1.930000 0.010000
v 0.530001 1.930000 0.010000
v 0.030001 0.930000 0.010000
v 0.030001 2.470000 0.010000
v 0.030001 1.420000 0.010000
v 0.030001 1.480000 0.010000
v 0.030001 1.990000 0.010000
v 0.030001 1.930000 0.010000
v -0.029999 2.470000 0.010000
v -0.029999 1.420000 0.010000
v -0.029999 1.480000 0.010000
v -0.029999 1.990000 0.010000
v -0.029999 1.930000 0.010000
v -0.029999 0.930000 0.010000
v 0.560001 1.960000 0.030000
v -0.559998 1.960000 0.030000
v -0.559998 1.450000 0.030000
v 0.560001 1.450000 0.030000
v 0.000000 0.900000 0.030000
v 0.000000 2.500000 0.030000
v 0.000000 1.960000 0.030000
v 0.000000 1.450000 0.030000
vn -0.0000 -0.0000 -1.0000
vn 0.7071 -0.0000 -0.7071
vn 0.7071 -0.0000 0.7071
vn -0.7071 -0.0000 0.7071
vn -0.7071 -0.0000 -0.7071
vn -0.0000 -0.0000 1.0000
vn -0.0000 -1.0000 -0.0000
vn -0.0000 1.0000 -0.0000
vn -0.0000 0.7071 -0.7071
vn -0.0000 0.7071 0.7071
vn -1.0000 -0.0000 -0.0000
vn 1.0000 -0.0000 -0.0000
vn -0.0000 -0.7071 -0.7071
vn -0.0000 -0.7071 0.7071
vn -0.5547 -0.0000 -0.8321
vn -0.0000 -0.5547 -0.8321
vn 0.5547 -0.0000 -0.8320
vn -0.0000 0.5547 -0.8321
vn 0.5547 -0.0000 -0.8321
vn -0.5547 -0.0000 -0.8320
vn -0.0000 0.5547 -0.8320
vn 0.5547 -0.0000 0.8320
vn -0.0000 0.5547 0.8320
vn -0.0000 -0.5547 0.8321
vn -0.0000 0.5547 0.8321
vn -0.5547 -0.0000 0.8320
vn 0.5547 -0.0000 0.8321
vn -0.5547 -0.0000 0.8321
vn 0.1110 -0.9473 0.3005
vn 0.1110 -0.9473 0.3004
vn -0.0000 -0.9473 0.3204
vn -0.0000 -0.9473 0.3203
vn 0.0350 -0.9473 0.3184
vn 0.0912 -0.9473 0.3071
vt 0.340007 0.860993
vt 0.000000 1.000000
vt 1.000000 1.000000
vt 0.659993 0.860993
vt 0.340007 0.272433
vt 0.000000 -0.000000
vt 0.340007 0.861032
vt 1.031021 0.006770
vt 1.031021 0.993230
vt 1.023689 0.993230
vt 1.023689 0.006770
vt 1.000229 0.993230
vt 1.000229 0.006770
vt 1.007560 0.006770
vt 1.007560 0.993230
vt 0.659993 0.272433
vt 1.000000 -0.000000
vt 0.659993 0.861032
vt 0.659993 0.860993
vt 0.340007 0.272431
vt 0.659993 0.272431
vt 0.340007 0.272433
vt 0.340007 0.272431
vt 0.659993 0.272433
vt 0.926724 0.566406
vt 0.926724 0.433594
vt 0.073276 0.433594
vt 0.073276 0.566406
vt 0.899379 1.207031
vt 0.100587 1.207031
vt 0.073377 1.234375
vt 0.926656 1.234375
vt 0.887519 1.191406
vt 0.112596 1.191406
vt 0.127745 1.179688
vt 0.872135 1.179688
vt 0.128125 0.445313
vt 0.871875 0.445312
vt 0.871875 0.554688
vt 0.128125 0.554688
vt 0.127746 1.179688
vt 0.112596 1.191406
vt 0.887519 1.191406
vt 0.887594 0.445312
vt 0.112488 0.445312
vt 0.100444 0.433594
vt 0.899476 0.433594
vt 0.073377 1.234375
vt 0.100587 1.207031
vt 0.899476 0.566406
vt 0.100444 0.566406
vt 0.112488 0.554688
vt 0.887594 0.554687
vt 1.234375 0.433594
vt 0.061210 0.433594
vt 0.061210 0.566406
vt 1.234375 0.566406
vt -0.235390 0.873047
vt 0.884876 0.873047
vt 0.911046 0.900391
vt -0.262702 0.900391
vt 0.061210 0.566406
vt 0.061210 0.433594
vt 1.179688 0.445312
vt 1.179688 0.554688
vt 0.114211 0.554688
vt 0.114211 0.445312
vt 0.908789 0.839844
vt 0.894411 0.855469
vt -0.166913 0.855468
vt -0.178811 0.839843
vt 0.114211 0.445312
vt 0.114211 0.554688
vt 0.908788 0.839844
vt -0.178812 0.839844
vt -0.166914 0.855470
vt 0.894409 0.855470
vt 0.873685 0.855469
vt 0.859247 0.843750
vt -0.202349 0.843750
vt -0.214150 0.855469
vt 0.911046 0.900391
vt 0.884876 0.873047
vt -0.235391 0.873047
vt -0.262702 0.900391
vt 0.883526 0.849609
vt 0.871921 0.837891
vt -0.222185 0.837891
vt -0.237727 0.849609
vt 0.946221 0.806641
vt -0.227576 0.806641
vt -0.200304 0.833984
vt 0.920027 0.833985
vt 0.907358 0.851561
vt -0.210511 0.851562
vt -0.198663 0.863281
vt 0.892878 0.863278
vt 0.946220 0.806641
vt 0.920027 0.833985
vt -0.200304 0.833984
vt -0.227576 0.806641
vt 0.918733 0.857423
vt 0.907065 0.869144
vt -0.187186 0.869141
vt -0.202626 0.857422
vt -0.202349 0.843750
vt 0.859246 0.843750
vt 0.873685 0.855469
vt -0.214151 0.855469
vt -0.222185 0.837891
vt 0.871920 0.837891
vt 0.883529 0.849609
vt -0.237727 0.849609
vt 0.570504 0.753697
vt 0.552498 0.777177
vt 0.943213 0.777177
vt 0.919733 0.753697
vt 0.168380 0.753697
vt -0.169095 0.753697
vt -0.193213 0.777177
vt 0.187523 0.777177
vt 0.123532 0.666254
vt 0.100146 0.687795
vt 0.499999 0.689327
vt 0.481895 0.666024
vt 0.518030 1.048699
vt 0.500000 1.070058
vt 0.900331 1.070058
vt 0.876334 1.048699
vt 0.552498 -0.023486
vt 0.570503 -0.000006
vt 0.919733 -0.000006
vt 0.943213 -0.023486
vt 0.900331 0.324348
vt 0.500000 0.324348
vt 0.518707 0.342353
vt 0.876851 0.342353
vt -0.169095 -0.000006
vt 0.168380 -0.000006
vt 0.190935 -0.023486
vt -0.193213 -0.023486
vt 0.168381 0.396022
vt 0.187523 0.377325
vt -0.193212 0.377336
vt -0.169093 0.396032
vt 0.500000 1.070058
vt 0.481972 1.048699
vt 0.123666 1.048699
vt 0.099668 1.070058
vt 0.500000 -0.066367
vt 0.518707 -0.042888
vt 0.876851 -0.042888
vt 0.900331 -0.066367
vt 0.552499 0.377315
vt 0.534492 0.358621
vt 0.212283 0.358633
vt 0.187525 0.377325
vt 0.481295 -0.042888
vt 0.099668 -0.066367
vt 0.123148 -0.042888
vt 0.499999 0.324348
vt 0.481295 0.306342
vt 0.123148 0.306342
vt 0.099668 0.324348
vt -0.193212 0.377315
vt 0.187523 0.377325
vt 0.168381 0.358633
vt -0.169093 0.358622
vt 0.534492 -0.000006
vt 0.190987 -0.023486
vt 0.212282 -0.000006
vt 0.518174 0.666408
vt 0.499999 0.689323
vt 0.900331 0.689323
vt 0.876444 0.666408
vt 0.552499 0.377336
vt 0.570505 0.396032
vt 0.919734 0.396022
vt 0.943213 0.377325
vt 0.518707 0.306342
vt 0.499999 0.324348
vt 0.876851 0.306342
vt 0.534492 0.396032
vt 0.552499 0.377336
vt 0.187525 0.377325
vt 0.212283 0.396022
vt 0.570505 0.358621
vt 0.552499 0.377315
vt 0.943213 0.377325
vt 0.919734 0.358633
vt 0.499999 0.689323
vt 0.518707 0.708466
vt 0.876851 0.708466
vt 0.481295 0.342353
vt 0.499999 0.324348
vt 0.123148 0.342353
vt 0.187514 -0.023486
vt 0.500001 0.689323
vt 0.518706 0.708466
vt 0.481969 1.048699
vt 0.500001 1.070058
vt 0.123666 1.048699
vt 0.500001 0.324348
vt 0.481293 0.342353
vt 0.168381 0.357670
vt 0.187523 0.376366
vt -0.193212 0.376355
vt -0.169093 0.357660
vt 0.518029 1.048699
vt 0.876334 1.048699
vt 0.500001 -0.066367
vt 0.481293 -0.042888
vt 0.552499 0.376376
vt 0.534492 0.395071
vt 0.212283 0.395060
vt 0.187525 0.376366
vt 0.518706 -0.042888
vt 0.500001 0.324348
vt 0.518706 0.306342
vt 0.500001 0.689323
vt 0.518173 0.666408
vt 0.876444 0.666408
vt -0.193212 0.376376
vt 0.187523 0.376366
vt 0.168381 0.395060
vt -0.169093 0.395071
vt 0.481826 0.666408
vt 0.500000 0.689323
vt 0.099673 0.689265
vt 0.123556 0.666408
vt 0.552499 0.376355
vt 0.570505 0.357659
vt 0.919734 0.357669
vt 0.943213 0.376366
vt 0.481293 0.306342
vt 0.500001 0.324348
vt 0.534492 0.357660
vt 0.552499 0.376355
vt 0.187525 0.376366
vt 0.212283 0.357669
vt 0.570505 0.395072
vt 0.552499 0.376376
vt 0.943213 0.376366
vt 0.919734 0.395060
vt 0.099676 0.689390
vt 0.481293 0.708466
vt 0.123148 0.708466
vt 0.518706 0.342353
vt 0.500001 0.324348
vt 0.212282 0.753697
vt 0.534492 0.753697
vt 0.212282 0.753697
vt 0.099121 0.688577
vt 0.481295 0.708466
vt 0.499999 0.689327
vt 0.212282 -0.000006
vt 0.187521 -0.023486
vt 0.212282 0.396778
vt 0.212282 0.394324
vt 0.534492 0.394397
vt 0.534492 0.396706
vt 0.876851 0.670180
vt 0.518706 0.670180
vt 0.518707 0.670180
vt 0.481293 0.342353
vt 0.481295 0.342353
vt 0.212282 0.359369
vt 0.534492 0.359296
vt 0.534492 0.356986
vt 0.212282 0.356913
vt 0.123148 0.670180
vt 0.481295 0.670180
vt 0.481293 0.670180
vt 0.518707 -0.042888
vt 0.518706 -0.042888
vt 0.570504 0.396779
vt 0.570504 0.394323
vt 0.919733 0.394397
vt 0.919733 0.396706
vt 0.518707 0.306342
vt 0.481295 0.306342
vt 0.481293 0.306342
vt 0.570504 0.359370
vt 0.919733 0.359296
vt 0.919733 0.356986
vt 0.570504 0.356912
vt 0.481295 -0.042888
vt 0.481293 -0.042888
vt 0.518707 0.708466
vt -0.169095 0.396778
vt -0.169095 0.394324
vt 0.168380 0.394397
vt 0.168380 0.396706
vt -0.169095 0.359368
vt 0.168380 0.359296
vt 0.168380 0.356986
vt -0.169095 0.356913
vt 0.481293 0.708466
vt 0.123148 1.052971
vt 0.481295 1.052971
vt 0.481293 1.052971
vt 0.518707 1.052971
vt 0.876851 1.052971
vt 0.518706 1.052971
s 0
usemtl wall_mp_1
f 2/12/3 1/13/3 5/14/3 6/15/3
f 11/13/4 12/12/4 16/15/4 15/14/4
f 21/16/6 1/17/6 2/3/6 24/18/6
f 24/19/6 2/3/6 12/2/6 23/1/6
f 22/20/6 11/6/6 1/17/6 21/21/6
f 23/7/6 12/2/6 11/6/6 22/22/6
usemtl wall_mp_1_rear
f 18/1/1 10/2/1 4/3/1 20/4/1
f 17/5/1 9/6/1 10/2/1 18/7/1
f 3/8/2 4/9/2 8/10/2 7/11/2
f 10/9/5 9/8/5 13/11/5 14/10/5
f 3/17/1 9/6/1 17/23/1 19/21/1
f 4/3/1 3/17/1 19/24/1 20/18/1
usemtl door_frame_wood_1
f 30/25/7 29/26/7 25/27/7 26/28/7
f 33/29/1 34/30/1 25/31/1 29/32/1
f 38/33/6 39/34/6 48/35/6 28/36/6
f 31/37/8 27/38/8 28/39/8 48/40/8
f 27/36/1 31/41/1 35/42/1 32/43/1
f 32/44/9 35/45/9 34/46/9 33/47/9
f 30/32/6 26/48/6 36/49/6 37/29/6
f 37/50/10 36/51/10 39/52/10 38/53/10
f 45/25/8 44/26/8 40/27/8 41/28/8
f 40/54/11 29/55/11 30/56/11 41/57/11
f 55/58/6 36/59/6 26/60/6 45/61/6
f 26/62/12 25/63/12 44/54/12 45/57/12
f 46/64/12 47/65/12 28/66/12 27/67/12
f 38/68/6 28/69/6 47/70/6 53/71/6
f 49/29/1 51/30/1 40/31/1 44/32/1
f 43/65/11 42/64/11 31/72/11 48/73/11
f 56/33/6 53/34/6 47/35/6 43/36/6
f 32/74/1 52/75/1 46/76/1 27/77/1
f 35/78/1 31/79/1 42/80/1 50/81/1
f 46/37/7 42/38/7 43/39/7 47/40/7
f 25/82/1 34/83/1 49/84/1 44/85/1
f 34/86/5 35/87/5 50/88/5 49/89/5
f 29/90/1 40/91/1 51/92/1 33/93/1
f 33/94/2 51/95/2 52/96/2 32/97/2
f 42/36/1 46/41/1 52/42/1 50/43/1
f 50/44/13 52/45/13 51/46/13 49/47/13
f 45/32/6 41/48/6 54/49/6 55/29/6
f 55/50/14 54/51/14 53/52/14 56/53/14
f 30/98/6 37/99/6 54/100/6 41/101/6
f 37/102/3 38/103/3 53/104/3 54/105/3
f 43/106/6 48/107/6 39/108/6 56/109/6
f 56/110/4 39/111/4 36/112/4 55/113/4
f 65/114/15 87/115/15 57/116/15 62/117/15
f 70/118/15 61/119/15 59/120/15 86/121/15
f 72/122/16 85/123/16 91/124/16 78/125/16
f 79/126/16 90/127/16 59/128/16 61/129/16
f 88/130/17 66/131/17 63/132/17 58/133/17
f 87/134/18 92/135/18 81/136/18 68/137/18
f 64/138/17 69/139/17 85/140/17 60/141/17
f 82/142/19 91/143/19 90/144/19 79/145/19
f 90/146/16 74/147/16 64/148/16 60/149/16
f 89/150/18 84/151/18 62/152/18 57/153/18
f 92/154/20 76/155/20 78/156/20 91/157/20
f 73/158/18 89/150/18 58/159/18 63/160/18
f 92/161/16 75/162/16 66/163/16 88/164/16
f 90/165/20 91/166/20 77/167/20 74/168/20
f 67/169/17 88/130/17 85/170/17 72/171/17
f 83/172/16 91/173/16 86/174/16 71/175/16
f 92/176/19 80/177/19 84/178/19 89/179/19
f 80/180/16 92/181/16 87/134/16 65/182/16
f 81/183/19 92/184/19 91/185/19 83/186/19
f 75/187/20 92/188/20 89/189/20 73/190/20
f 86/174/21 91/191/21 82/192/21 70/193/21
f 76/194/18 92/195/18 88/164/18 67/196/18
f 95/141/22 122/197/22 106/139/22 97/138/22
f 127/198/23 121/174/23 105/193/23 113/199/23
f 115/200/24 126/201/24 95/149/24 97/202/24
f 123/164/25 128/203/25 117/204/25 104/196/25
f 118/205/26 127/206/26 126/207/26 115/208/26
f 126/201/24 110/209/24 100/210/24 96/128/24
f 125/211/25 120/212/25 98/160/25 93/159/25
f 128/213/27 112/214/27 114/215/27 127/216/27
f 109/217/25 125/211/25 94/153/25 99/152/25
f 128/218/24 111/219/24 102/182/24 124/134/24
f 127/220/24 114/221/24 108/222/24 121/174/24
f 126/223/27 127/224/27 113/225/27 110/226/27
f 119/227/24 127/228/24 122/229/24 107/230/24
f 128/231/26 116/232/26 120/233/26 125/234/26
f 116/235/24 128/236/24 123/164/24 101/163/24
f 117/237/26 128/238/26 127/239/26 119/240/26
f 111/241/27 128/242/27 125/243/27 109/244/27
f 122/245/23 127/220/23 118/246/23 106/247/23
f 112/248/25 128/249/25 124/134/25 103/137/25
f 102/114/28 99/117/28 94/116/28 124/115/28
f 121/121/28 108/250/28 103/251/28 124/115/28
f 101/131/22 123/130/22 93/133/22 98/132/22
f 105/118/28 121/121/28 96/120/28 100/119/28
f 87/115/15 68/251/15 71/252/15 86/121/15
f 85/253/21 69/247/21 77/254/21 91/255/21
f 104/169/22 107/256/22 122/257/22 123/130/22
f 81/136/8 112/248/8 103/137/8 68/137/8
f 83/258/29 114/259/29 112/260/29 81/261/30
f 71/262/31 108/262/32 114/263/33 83/264/34
f 68/251/32 103/251/31 108/252/32 71/250/31
f 67/196/8 104/196/8 117/265/8 76/266/8
f 67/169/12 72/256/12 107/171/12 104/169/12
f 78/267/11 76/268/11 117/269/11 119/270/11
f 72/271/7 78/272/7 119/273/7 107/271/7
f 62/152/8 84/274/8 109/275/8 99/152/8
f 65/114/11 62/117/11 99/117/11 102/114/11
f 80/276/12 111/277/12 109/278/12 84/279/12
f 80/280/7 65/182/7 102/182/7 111/219/7
f 66/163/7 75/281/7 116/282/7 101/163/7
f 75/283/11 73/284/11 120/285/11 116/286/11
f 63/132/12 66/131/12 101/131/12 98/132/12
f 73/287/8 63/160/8 98/160/8 120/288/8
f 82/289/8 113/199/8 105/193/8 70/193/8
f 79/290/12 110/291/12 113/292/12 82/293/12
f 61/119/11 70/118/11 105/118/11 100/119/11
f 74/294/11 77/295/11 118/296/11 115/297/11
f 69/247/8 106/247/8 118/298/8 77/254/8
f 69/139/12 64/138/12 97/138/12 106/139/12
f 64/299/7 74/300/7 115/301/7 97/299/7
f 79/302/7 61/303/7 100/303/7 110/304/7
