# Blender 5.0.1
# www.blender.org
mtllib ammo_pistol_loose_4pcs_mp_3.mtl
o ammo_pistol_loose_4pcs_mp_3
v -0.002579 0.000000 0.009578
v -0.009579 0.000000 0.002578
v -0.007528 0.000000 0.007528
v -0.009579 0.024000 0.002578
v -0.002579 0.024000 0.009578
v -0.007528 0.024000 0.007528
v -0.002579 0.000000 -0.004422
v -0.007528 0.000000 -0.002372
v -0.002579 0.024000 -0.004422
v -0.007528 0.024000 -0.002372
v 0.004421 0.000000 0.002578
v 0.002371 0.000000 0.007528
v 0.004421 0.024000 0.002578
v 0.002371 0.024000 0.007528
v 0.002371 0.000000 -0.002372
v 0.002371 0.024000 -0.002372
v -0.009579 0.028671 0.002578
v -0.002579 0.037000 0.002578
v -0.007572 0.034146 0.002578
v -0.002579 0.028671 0.009578
v -0.002579 0.034146 0.007571
v -0.007528 0.028671 0.007528
v -0.006110 0.034146 0.006109
v -0.002579 0.028671 -0.004422
v -0.002579 0.034146 -0.002416
v -0.007528 0.028671 -0.002372
v -0.006110 0.034146 -0.000953
v 0.004421 0.028671 0.002578
v 0.002415 0.034146 0.002578
v 0.002371 0.028671 0.007528
v 0.000952 0.034146 0.006109
v 0.002371 0.028671 -0.002372
v 0.000952 0.034146 -0.000953
v -0.005486 0.036015 0.002578
v -0.000523 0.036015 0.004633
v -0.002579 0.036015 0.005485
v -0.002579 0.036015 -0.000329
v -0.000523 0.036015 0.000522
v -0.004634 0.036015 0.000522
v 0.000328 0.036015 0.002578
v -0.004634 0.036015 0.004633
v 0.002086 0.031409 0.007242
v -0.002579 0.031409 0.009174
v -0.002579 0.031409 -0.004019
v 0.002086 0.031409 -0.002086
v -0.009175 0.031409 0.002578
v -0.007243 0.031409 -0.002086
v 0.004018 0.031409 0.002578
v -0.007243 0.031409 0.007242
v 0.025679 0.007000 0.009117
v 0.027588 0.014000 0.015852
v 0.026238 0.011950 0.011090
v 0.004497 0.014000 0.022395
v 0.002589 0.007000 0.015660
v 0.003148 0.011950 0.017633
v 0.029496 0.007000 0.022587
v 0.028937 0.011950 0.020614
v 0.006406 0.007000 0.029130
v 0.005847 0.011950 0.027157
v 0.027588 0.000000 0.015852
v 0.026238 0.002050 0.011090
v 0.004497 -0.000000 0.022395
v 0.003148 0.002050 0.017633
v 0.028937 0.002050 0.020614
v 0.005847 0.002050 0.027157
v 0.000003 0.014000 0.023669
v -0.008010 0.007000 0.025939
v -0.005265 0.011994 0.025161
v -0.001905 0.007000 0.016934
v -0.006626 0.007000 0.020357
v -0.001346 0.011950 0.018906
v -0.006228 0.010531 0.021764
v 0.001911 0.007000 0.030403
v -0.003903 0.007000 0.029966
v 0.001352 0.011950 0.028431
v -0.004302 0.010531 0.028559
v 0.000003 -0.000000 0.023669
v -0.005265 0.002006 0.025161
v -0.001346 0.002050 0.018906
v -0.006228 0.003469 0.021764
v 0.001352 0.002050 0.028431
v -0.004302 0.003469 0.028559
v -0.007063 0.009907 0.025671
v -0.007623 0.004945 0.023693
v -0.007855 0.007000 0.022874
v -0.006270 0.007000 0.028468
v -0.006502 0.004945 0.027648
v -0.006502 0.009055 0.027648
v -0.007063 0.004093 0.025671
v -0.007623 0.009055 0.023693
v -0.003903 0.002336 0.019927
v -0.004429 0.007000 0.018068
v -0.000832 0.007000 0.030761
v -0.001359 0.002336 0.028903
v -0.002631 0.013596 0.024415
v -0.001359 0.011664 0.028903
v -0.002631 0.000404 0.024415
v -0.003903 0.011664 0.019927
v -0.023505 0.007000 0.003796
v -0.028374 0.014000 -0.001234
v -0.024931 0.011950 0.002323
v -0.011128 0.014000 -0.017925
v -0.006260 0.007000 -0.012895
v -0.007686 0.011950 -0.014368
v -0.033242 0.007000 -0.006263
v -0.031816 0.011950 -0.004790
v -0.015997 0.007000 -0.022955
v -0.014571 0.011950 -0.021481
v -0.028374 0.000000 -0.001234
v -0.024931 0.002050 0.002323
v -0.011128 0.000000 -0.017925
v -0.007686 0.002050 -0.014368
v -0.031816 0.002050 -0.004790
v -0.014571 0.002050 -0.021481
v -0.007772 0.014000 -0.021173
v -0.001787 0.007000 -0.026966
v -0.003838 0.011994 -0.024981
v -0.002904 0.007000 -0.016143
v -0.000365 0.007000 -0.021393
v -0.004330 0.011950 -0.017617
v -0.001382 0.010531 -0.022444
v -0.012640 0.007000 -0.026203
v -0.007310 0.007000 -0.028569
v -0.011214 0.011950 -0.024730
v -0.006293 0.010531 -0.027518
v -0.007772 0.000000 -0.021173
v -0.003838 0.002006 -0.024981
v -0.004330 0.002050 -0.017617
v -0.001382 0.003469 -0.022444
v -0.011214 0.002050 -0.024730
v -0.006293 0.003469 -0.027518
v -0.002495 0.009907 -0.026281
v -0.001065 0.004945 -0.024804
v -0.000473 0.007000 -0.024192
v -0.004516 0.007000 -0.028370
v -0.003924 0.004945 -0.027758
v -0.003924 0.009055 -0.027758
v -0.002495 0.004093 -0.026281
v -0.001065 0.009055 -0.024804
v -0.002561 0.002336 -0.019726
v -0.001217 0.007000 -0.018337
v -0.010392 0.007000 -0.027817
v -0.009049 0.002336 -0.026429
v -0.005805 0.013596 -0.023077
v -0.009049 0.011664 -0.026429
v -0.005805 0.000404 -0.023077
v -0.002561 0.011664 -0.019726
v 0.009628 0.000000 -0.001495
v 0.002628 0.000000 -0.008495
v 0.004679 0.000000 -0.003545
v 0.002628 0.024000 -0.008495
v 0.009628 0.024000 -0.001495
v 0.004679 0.024000 -0.003545
v 0.009628 0.000000 -0.015495
v 0.004679 0.000000 -0.013444
v 0.009628 0.024000 -0.015495
v 0.004679 0.024000 -0.013444
v 0.016628 0.000000 -0.008495
v 0.014578 0.000000 -0.003545
v 0.016628 0.024000 -0.008495
v 0.014578 0.024000 -0.003545
v 0.014578 0.000000 -0.013444
v 0.014578 0.024000 -0.013444
v 0.002628 0.028671 -0.008495
v 0.009628 0.037000 -0.008495
v 0.004635 0.034146 -0.008495
v 0.009628 0.028671 -0.001495
v 0.009628 0.034146 -0.003501
v 0.004679 0.028671 -0.003545
v 0.006097 0.034146 -0.004964
v 0.009628 0.028671 -0.015495
v 0.009628 0.034146 -0.013488
v 0.004679 0.028671 -0.013444
v 0.006097 0.034146 -0.012026
v 0.016628 0.028671 -0.008495
v 0.014622 0.034146 -0.008495
v 0.014578 0.028671 -0.003545
v 0.013159 0.034146 -0.004964
v 0.014578 0.028671 -0.013444
v 0.013159 0.034146 -0.012026
v 0.006721 0.036015 -0.008495
v 0.011684 0.036015 -0.006439
v 0.009628 0.036015 -0.005588
v 0.009628 0.036015 -0.011401
v 0.011684 0.036015 -0.010550
v 0.007573 0.036015 -0.010550
v 0.012535 0.036015 -0.008495
v 0.007573 0.036015 -0.006439
v 0.014293 0.031409 -0.003830
v 0.009628 0.031409 -0.001898
v 0.009628 0.031409 -0.015091
v 0.014293 0.031409 -0.013159
v 0.003032 0.031409 -0.008495
v 0.004964 0.031409 -0.013159
v 0.016225 0.031409 -0.008495
v 0.004964 0.031409 -0.003830
vn -0.0000 -0.0000 1.0000
vn 0.7071 -0.0000 0.7071
vn 0.7053 0.0718 0.7053
vn -0.0000 0.0718 0.9974
vn -0.7071 -0.0000 0.7071
vn -1.0000 -0.0000 -0.0000
vn -0.0000 -0.0000 -1.0000
vn -0.7071 -0.0000 -0.7071
vn 1.0000 -0.0000 -0.0000
vn 0.7071 -0.0000 -0.7071
vn -0.0000 -1.0000 -0.0000
vn -0.7053 0.0718 0.7053
vn -0.9974 0.0718 -0.0000
vn -0.0000 0.0718 -0.9974
vn 0.7053 0.0718 -0.7053
vn 0.9974 0.0718 -0.0000
vn -0.7053 0.0718 -0.7053
vn -0.0000 0.8420 0.5396
vn -0.0000 0.6147 0.7888
vn 0.5577 0.6147 0.5577
vn 0.3815 0.8420 0.3815
vn 0.6704 0.3179 0.6704
vn -0.0000 0.3179 0.9481
vn 0.3815 0.8420 -0.3815
vn 0.5577 0.6147 -0.5577
vn -0.0000 0.6147 -0.7888
vn -0.0000 0.8420 -0.5396
vn -0.0000 0.3179 -0.9481
vn 0.6704 0.3179 -0.6704
vn -0.3815 0.8420 -0.3815
vn -0.5577 0.6147 -0.5577
vn -0.7888 0.6147 -0.0000
vn -0.5396 0.8420 -0.0000
vn -0.9481 0.3179 -0.0000
vn -0.6704 0.3179 -0.6704
vn 0.5396 0.8420 -0.0000
vn 0.7888 0.6147 -0.0000
vn 0.9481 0.3179 -0.0000
vn -0.3815 0.8420 0.3815
vn -0.5577 0.6147 0.5577
vn -0.6704 0.3179 0.6704
vn -0.0000 1.0000 -0.0000
vn -0.2726 -0.0000 -0.9621
vn -0.1928 -0.7071 -0.6803
vn -0.2614 -0.7053 -0.6590
vn -0.3411 -0.0000 -0.9400
vn -0.1928 0.7071 -0.6803
vn 0.2726 -0.0000 0.9621
vn 0.1928 0.7071 0.6803
vn 0.1928 -0.7071 0.6803
vn 0.9621 -0.0000 -0.2726
vn -0.2614 0.7053 -0.6590
vn -0.0691 0.9974 0.0196
vn 0.2028 -0.0000 0.9792
vn 0.1232 -0.7053 0.6981
vn -0.0691 -0.9974 0.0196
vn 0.1232 0.7053 0.6981
vn -0.9572 -0.0000 -0.2896
vn -0.8064 -0.0000 -0.5913
vn -0.7435 -0.5577 -0.3690
vn -0.9141 -0.3815 -0.1375
vn -0.4887 -0.6704 -0.5583
vn -0.5644 -0.0000 -0.8255
vn -0.7060 -0.3815 0.5966
vn -0.4393 -0.5577 0.7042
vn -0.3764 -0.0000 0.9265
vn -0.6630 -0.0000 0.7487
vn -0.0474 -0.0000 0.9989
vn -0.1231 -0.6704 0.7317
vn -0.7060 0.3815 0.5966
vn -0.4393 0.5577 0.7042
vn -0.5914 0.7888 0.1676
vn -0.8101 0.5396 0.2295
vn -0.3059 0.9481 0.0867
vn -0.1231 0.6704 0.7317
vn -0.8101 -0.5396 0.2295
vn -0.5914 -0.7888 0.1676
vn -0.3059 -0.9481 0.0867
vn -0.9141 0.3815 -0.1375
vn -0.7435 0.5577 -0.3690
vn -0.4887 0.6704 -0.5583
vn -0.9621 -0.0000 0.2726
vn 0.6955 -0.0000 0.7186
vn 0.4918 -0.7071 0.5081
vn 0.5421 -0.7053 0.4568
vn 0.7453 -0.0000 0.6667
vn 0.4918 0.7071 0.5081
vn -0.6955 -0.0000 -0.7186
vn -0.4918 0.7071 -0.5081
vn -0.4918 -0.7071 -0.5081
vn -0.7186 -0.0000 0.6955
vn 0.5421 0.7053 0.4568
vn 0.0516 0.9974 -0.0500
vn -0.6420 -0.0000 -0.7667
vn -0.4389 -0.7053 -0.5568
vn 0.0516 -0.9974 -0.0500
vn -0.4389 0.7053 -0.5568
vn 0.9802 -0.0000 -0.1979
vn 0.9903 -0.0000 0.1393
vn 0.8296 -0.5577 -0.0267
vn 0.8703 -0.3815 -0.3114
vn 0.6947 -0.6704 0.2606
vn 0.8878 -0.0000 0.4602
vn 0.3397 -0.3815 -0.8597
vn 0.0538 -0.5577 -0.8283
vn -0.1069 -0.0000 -0.9943
vn 0.2298 -0.0000 -0.9732
vn -0.4309 -0.0000 -0.9024
vn -0.2378 -0.6704 -0.7028
vn 0.3397 0.3815 -0.8597
vn 0.0538 0.5577 -0.8283
vn 0.4417 0.7888 -0.4275
vn 0.6050 0.5396 -0.5856
vn 0.2284 0.9481 -0.2211
vn -0.2378 0.6704 -0.7028
vn 0.6050 -0.5396 -0.5856
vn 0.4417 -0.7888 -0.4275
vn 0.2284 -0.9481 -0.2211
vn 0.8703 0.3815 -0.3114
vn 0.8296 0.5577 -0.0267
vn 0.6947 0.6704 0.2606
vn 0.7186 -0.0000 -0.6955
vt 0.085938 0.580078
vt 0.091797 0.580078
vt 0.091794 0.584931
vt 0.085925 0.584931
vt 0.085938 0.556641
vt 0.091797 0.556641
vt 0.097656 0.580078
vt 0.097656 0.556641
vt 0.099491 0.644533
vt 0.095644 0.648380
vt 0.087950 0.648380
vt 0.084103 0.644533
vt 0.084103 0.636839
vt 0.087950 0.632992
vt 0.095644 0.632992
vt 0.099491 0.636839
vt 0.091794 0.584931
vt 0.085925 0.584931
vt 0.097664 0.584931
vt 0.097664 0.584931
vt 0.097664 0.584931
vt 0.091794 0.584931
vt 0.085925 0.584931
vt 0.093527 0.661969
vt 0.095028 0.658378
vt 0.099528 0.662895
vt 0.095923 0.664373
vt 0.091808 0.587808
vt 0.086222 0.587808
vt 0.093505 0.670160
vt 0.094986 0.673764
vt 0.088610 0.673738
vt 0.090111 0.670146
vt 0.097394 0.587808
vt 0.091808 0.587808
vt 0.087716 0.667742
vt 0.084111 0.669221
vt 0.084111 0.662837
vt 0.087715 0.664343
vt 0.097395 0.587808
vt 0.091808 0.587808
vt 0.095923 0.667772
vt 0.099528 0.669279
vt 0.090133 0.661955
vt 0.088652 0.658351
vt 0.097394 0.587808
vt 0.091808 0.587808
vt 0.086222 0.587808
vt 0.086222 0.587808
vt 0.097394 0.587808
vt 0.091819 0.666057
vt 0.096614 0.591063
vt 0.092625 0.591063
vt 0.091022 0.591063
vt 0.087033 0.591063
vt 0.091022 0.591063
vt 0.087033 0.591063
vt 0.096614 0.591063
vt 0.092625 0.591063
vt 0.091022 0.591063
vt 0.087033 0.591063
vt 0.096614 0.591063
vt 0.092625 0.591063
vt 0.096614 0.591063
vt 0.092625 0.591063
vt 0.091022 0.591063
vt 0.087033 0.591063
s 1
usemtl ammo_mp_1
f 5/1/1 14/2/2 30/3/3 20/4/4
f 1/5/1 5/1/1 6/2/5 3/6/5
f 3/6/5 6/2/5 4/7/6 2/8/6
f 9/7/7 7/8/7 8/6/8 10/2/8
f 10/2/8 8/6/8 2/5/6 4/1/6
f 13/7/9 11/8/9 15/6/10 16/2/10
f 16/2/10 15/6/10 7/5/7 9/1/7
f 5/7/1 1/8/1 12/6/2 14/2/2
f 14/2/2 12/6/2 11/5/9 13/1/9
f 2/9/11 8/10/11 7/11/11 15/12/11 11/13/11 12/14/11 1/15/11 3/16/11
f 4/1/6 6/2/5 22/17/12 17/18/13
f 16/2/10 9/7/7 24/19/14 32/17/15
f 14/2/2 13/7/9 28/20/16 30/3/3
f 13/1/9 16/2/10 32/17/15 28/4/16
f 10/2/8 4/7/6 17/21/13 26/22/17
f 9/1/7 10/2/8 26/22/17 24/23/14
f 6/2/5 5/7/1 20/20/4 22/17/12
f 36/24/18 21/25/19 31/26/20 35/27/21
f 42/28/22 43/29/23 20/4/4 30/3/3
f 38/30/24 33/31/25 25/32/26 37/33/27
f 44/34/28 45/35/29 32/17/15 24/19/14
f 39/36/30 27/37/31 19/38/32 34/39/33
f 46/40/34 47/41/35 26/22/17 17/21/13
f 40/42/36 29/43/37 33/31/25 38/30/24
f 45/35/29 48/29/38 28/4/16 32/17/15
f 41/44/39 23/45/40 21/25/19 36/24/18
f 43/46/23 49/47/41 22/17/12 20/20/4
f 34/39/33 19/38/32 23/45/40 41/44/39
f 49/47/41 46/48/34 17/18/13 22/17/12
f 37/33/27 25/32/26 27/37/31 39/36/30
f 47/41/35 44/49/28 24/23/14 26/22/17
f 35/27/21 31/26/20 29/43/37 40/42/36
f 48/50/38 42/28/22 30/3/3 28/20/16
f 18/51/42 35/27/21 40/42/36
f 18/51/42 37/33/27 39/36/30
f 18/51/42 34/39/33 41/44/39
f 18/51/42 41/44/39 36/24/18
f 18/51/42 40/42/36 38/30/24
f 18/51/42 39/36/30 34/39/33
f 18/51/42 38/30/24 37/33/27
f 18/51/42 36/24/18 35/27/21
f 29/52/37 31/53/20 42/28/22 48/50/38
f 27/54/31 25/55/26 44/49/28 47/41/35
f 23/56/40 19/57/32 46/48/34 49/47/41
f 21/58/19 23/59/40 49/47/41 43/46/23
f 33/60/25 29/61/37 48/29/38 45/35/29
f 19/62/32 27/63/31 47/41/35 46/40/34
f 25/64/26 33/65/25 45/35/29 44/34/28
f 31/66/20 21/67/19 43/29/23 42/28/22
f 54/1/43 63/2/44 79/3/45 69/4/46
f 50/5/43 54/1/43 55/2/47 52/6/47
f 52/6/47 55/2/47 53/7/42 51/8/42
f 58/7/48 56/8/48 57/6/49 59/2/49
f 59/2/49 57/6/49 51/5/42 53/1/42
f 62/7/11 60/8/11 64/6/50 65/2/50
f 65/2/50 64/6/50 56/5/48 58/1/48
f 54/7/43 50/8/43 61/6/44 63/2/44
f 63/2/44 61/6/44 60/5/11 62/1/11
f 51/9/51 57/10/51 56/11/51 64/12/51 60/13/51 61/14/51 50/15/51 52/16/51
f 53/1/42 55/2/47 71/17/52 66/18/53
f 65/2/50 58/7/48 73/19/54 81/17/55
f 63/2/44 62/7/11 77/20/56 79/3/45
f 62/1/11 65/2/50 81/17/55 77/4/56
f 59/2/49 53/7/42 66/21/53 75/22/57
f 58/1/48 59/2/49 75/22/57 73/23/54
f 55/2/47 54/7/43 69/20/46 71/17/52
f 85/24/58 70/25/59 80/26/60 84/27/61
f 91/28/62 92/29/63 69/4/46 79/3/45
f 87/30/64 82/31/65 74/32/66 86/33/67
f 93/34/68 94/35/69 81/17/55 73/19/54
f 88/36/70 76/37/71 68/38/72 83/39/73
f 95/40/74 96/41/75 75/22/57 66/21/53
f 89/42/76 78/43/77 82/31/65 87/30/64
f 94/35/69 97/29/78 77/4/56 81/17/55
f 90/44/79 72/45/80 70/25/59 85/24/58
f 92/46/63 98/47/81 71/17/52 69/20/46
f 83/39/73 68/38/72 72/45/80 90/44/79
f 98/47/81 95/48/74 66/18/53 71/17/52
f 86/33/67 74/32/66 76/37/71 88/36/70
f 96/41/75 93/49/68 73/23/54 75/22/57
f 84/27/61 80/26/60 78/43/77 89/42/76
f 97/50/78 91/28/62 79/3/45 77/20/56
f 67/51/82 84/27/61 89/42/76
f 67/51/82 86/33/67 88/36/70
f 67/51/82 83/39/73 90/44/79
f 67/51/82 90/44/79 85/24/58
f 67/51/82 89/42/76 87/30/64
f 67/51/82 88/36/70 83/39/73
f 67/51/82 87/30/64 86/33/67
f 67/51/82 85/24/58 84/27/61
f 78/52/77 80/53/60 91/28/62 97/50/78
f 76/54/71 74/55/66 93/49/68 96/41/75
f 72/56/80 68/57/72 95/48/74 98/47/81
f 70/58/59 72/59/80 98/47/81 92/46/63
f 82/60/65 78/61/77 97/29/78 94/35/69
f 68/62/72 76/63/71 96/41/75 95/40/74
f 74/64/66 82/65/65 94/35/69 93/34/68
f 80/66/60 70/67/59 92/29/63 91/28/62
f 103/1/83 112/2/84 128/3/85 118/4/86
f 99/5/83 103/1/83 104/2/87 101/6/87
f 101/6/87 104/2/87 102/7/42 100/8/42
f 107/7/88 105/8/88 106/6/89 108/2/89
f 108/2/89 106/6/89 100/5/42 102/1/42
f 111/7/11 109/8/11 113/6/90 114/2/90
f 114/2/90 113/6/90 105/5/88 107/1/88
f 103/7/83 99/8/83 110/6/84 112/2/84
f 112/2/84 110/6/84 109/5/11 111/1/11
f 100/9/91 106/10/91 105/11/91 113/12/91 109/13/91 110/14/91 99/15/91 101/16/91
f 102/1/42 104/2/87 120/17/92 115/18/93
f 114/2/90 107/7/88 122/19/94 130/17/95
f 112/2/84 111/7/11 126/20/96 128/3/85
f 111/1/11 114/2/90 130/17/95 126/4/96
f 108/2/89 102/7/42 115/21/93 124/22/97
f 107/1/88 108/2/89 124/22/97 122/23/94
f 104/2/87 103/7/83 118/20/86 120/17/92
f 134/24/98 119/25/99 129/26/100 133/27/101
f 140/28/102 141/29/103 118/4/86 128/3/85
f 136/30/104 131/31/105 123/32/106 135/33/107
f 142/34/108 143/35/109 130/17/95 122/19/94
f 137/36/110 125/37/111 117/38/112 132/39/113
f 144/40/114 145/41/115 124/22/97 115/21/93
f 138/42/116 127/43/117 131/31/105 136/30/104
f 143/35/109 146/29/118 126/4/96 130/17/95
f 139/44/119 121/45/120 119/25/99 134/24/98
f 141/46/103 147/47/121 120/17/92 118/20/86
f 132/39/113 117/38/112 121/45/120 139/44/119
f 147/47/121 144/48/114 115/18/93 120/17/92
f 135/33/107 123/32/106 125/37/111 137/36/110
f 145/41/115 142/49/108 122/23/94 124/22/97
f 133/27/101 129/26/100 127/43/117 138/42/116
f 146/50/118 140/28/102 128/3/85 126/20/96
f 116/51/122 133/27/101 138/42/116
f 116/51/122 135/33/107 137/36/110
f 116/51/122 132/39/113 139/44/119
f 116/51/122 139/44/119 134/24/98
f 116/51/122 138/42/116 136/30/104
f 116/51/122 137/36/110 132/39/113
f 116/51/122 136/30/104 135/33/107
f 116/51/122 134/24/98 133/27/101
f 127/52/117 129/53/100 140/28/102 146/50/118
f 125/54/111 123/55/106 142/49/108 145/41/115
f 121/56/120 117/57/112 144/48/114 147/47/121
f 119/58/99 121/59/120 147/47/121 141/46/103
f 131/60/105 127/61/117 146/29/118 143/35/109
f 117/62/112 125/63/111 145/41/115 144/40/114
f 123/64/106 131/65/105 143/35/109 142/34/108
f 129/66/100 119/67/99 141/29/103 140/28/102
f 152/1/1 161/2/2 177/3/3 167/4/4
f 148/5/1 152/1/1 153/2/5 150/6/5
f 150/6/5 153/2/5 151/7/6 149/8/6
f 156/7/7 154/8/7 155/6/8 157/2/8
f 157/2/8 155/6/8 149/5/6 151/1/6
f 160/7/9 158/8/9 162/6/10 163/2/10
f 163/2/10 162/6/10 154/5/7 156/1/7
f 152/7/1 148/8/1 159/6/2 161/2/2
f 161/2/2 159/6/2 158/5/9 160/1/9
f 149/9/11 155/10/11 154/11/11 162/12/11 158/13/11 159/14/11 148/15/11 150/16/11
f 151/1/6 153/2/5 169/17/12 164/18/13
f 163/2/10 156/7/7 171/19/14 179/17/15
f 161/2/2 160/7/9 175/20/16 177/3/3
f 160/1/9 163/2/10 179/17/15 175/4/16
f 157/2/8 151/7/6 164/21/13 173/22/17
f 156/1/7 157/2/8 173/22/17 171/23/14
f 153/2/5 152/7/1 167/20/4 169/17/12
f 183/24/18 168/25/19 178/26/20 182/27/21
f 189/28/22 190/29/23 167/4/4 177/3/3
f 185/30/24 180/31/25 172/32/26 184/33/27
f 191/34/28 192/35/29 179/17/15 171/19/14
f 186/36/30 174/37/31 166/38/32 181/39/33
f 193/40/34 194/41/35 173/22/17 164/21/13
f 187/42/36 176/43/37 180/31/25 185/30/24
f 192/35/29 195/29/38 175/4/16 179/17/15
f 188/44/39 170/45/40 168/25/19 183/24/18
f 190/46/23 196/47/41 169/17/12 167/20/4
f 181/39/33 166/38/32 170/45/40 188/44/39
f 196/47/41 193/48/34 164/18/13 169/17/12
f 184/33/27 172/32/26 174/37/31 186/36/30
f 194/41/35 191/49/28 171/23/14 173/22/17
f 182/27/21 178/26/20 176/43/37 187/42/36
f 195/50/38 189/28/22 177/3/3 175/20/16
f 165/51/42 182/27/21 187/42/36
f 165/51/42 184/33/27 186/36/30
f 165/51/42 181/39/33 188/44/39
f 165/51/42 188/44/39 183/24/18
f 165/51/42 187/42/36 185/30/24
f 165/51/42 186/36/30 181/39/33
f 165/51/42 185/30/24 184/33/27
f 165/51/42 183/24/18 182/27/21
f 176/52/37 178/53/20 189/28/22 195/50/38
f 174/54/31 172/55/26 191/49/28 194/41/35
f 170/56/40 166/57/32 193/48/34 196/47/41
f 168/58/19 170/59/40 196/47/41 190/46/23
f 180/60/25 176/61/37 195/29/38 192/35/29
f 166/62/32 174/63/31 194/41/35 193/40/34
f 172/64/26 180/65/25 192/35/29 191/34/28
f 178/66/20 168/67/19 190/29/23 189/28/22
