# Blender 5.0.1
# www.blender.org
mtllib ammo_pistol_loose_2pcs_mp_2.mtl
o ammo_pistol_loose_2pcs_mp_2
v -0.005447 0.000000 -0.005327
v -0.011747 0.000000 -0.011627
v -0.009902 0.000000 -0.007173
v -0.011747 0.021600 -0.011627
v -0.005447 0.021600 -0.005327
v -0.009902 0.021600 -0.007173
v -0.005447 0.000000 -0.017927
v -0.009902 0.000000 -0.016082
v -0.005447 0.021600 -0.017927
v -0.009902 0.021600 -0.016082
v 0.000853 0.000000 -0.011627
v -0.000993 0.000000 -0.007173
v 0.000853 0.021600 -0.011627
v -0.000993 0.021600 -0.007173
v -0.000993 0.000000 -0.016082
v -0.000993 0.021600 -0.016082
v -0.011747 0.025804 -0.011627
v -0.005447 0.029717 -0.011627
v -0.009942 0.032732 -0.011627
v -0.005447 0.025804 -0.005327
v -0.005447 0.032732 -0.007133
v -0.009902 0.025804 -0.007173
v -0.008625 0.032732 -0.008450
v -0.005447 0.025804 -0.017927
v -0.005447 0.032732 -0.016122
v -0.009902 0.025804 -0.016082
v -0.008625 0.032732 -0.014805
v 0.000853 0.025804 -0.011627
v -0.000953 0.032732 -0.011627
v -0.000993 0.025804 -0.007173
v -0.002270 0.032732 -0.008450
v -0.000993 0.025804 -0.016082
v -0.002270 0.032732 -0.014805
v -0.008064 0.031230 -0.011627
v -0.003597 0.031230 -0.009778
v -0.005447 0.031230 -0.009011
v -0.005447 0.031230 -0.014244
v -0.003597 0.031230 -0.013477
v -0.007297 0.031230 -0.013477
v -0.002831 0.031230 -0.011627
v -0.007297 0.031230 -0.009778
v -0.001249 0.030268 -0.007430
v -0.005447 0.030268 -0.005691
v -0.005447 0.030268 -0.017564
v -0.001249 0.030268 -0.015825
v -0.011384 0.030268 -0.011627
v -0.009645 0.030268 -0.015825
v 0.000489 0.030268 -0.011627
v -0.009645 0.030268 -0.007430
v 0.014561 0.000000 -0.006480
v 0.010107 0.006300 -0.010934
v 0.011411 0.001845 -0.009630
v -0.005167 0.006300 0.004339
v -0.000712 0.000000 0.008794
v -0.003862 0.001845 0.005644
v 0.014561 0.012600 -0.006480
v 0.011411 0.010755 -0.009630
v -0.000712 0.012600 0.008794
v -0.003862 0.010755 0.005644
v 0.019016 0.006300 -0.002025
v 0.017711 0.001845 -0.003330
v 0.003743 0.006300 0.013249
v 0.002438 0.001845 0.011944
v 0.017711 0.010755 -0.003330
v 0.002438 0.010755 0.011944
v -0.008139 0.006300 0.007312
v -0.006451 0.006300 0.014533
v -0.011761 0.006300 0.013487
v -0.003685 0.000000 0.011767
v -0.008583 0.001806 0.016665
v -0.006835 0.001845 0.008617
v -0.010830 0.003122 0.014418
v -0.003685 0.012600 0.011767
v -0.008583 0.010794 0.016665
v -0.006835 0.010755 0.008617
v -0.010830 0.009478 0.014418
v 0.000770 0.006300 0.016221
v -0.005405 0.006300 0.019843
v -0.000535 0.001845 0.014917
v -0.006336 0.003122 0.018912
v -0.000535 0.010755 0.014917
v -0.006336 0.009478 0.018912
v -0.009371 0.006300 0.013753
v -0.006213 0.004450 0.016911
v -0.007521 0.003684 0.015603
v -0.007521 0.008916 0.015603
v -0.006213 0.008150 0.016911
v -0.008829 0.008150 0.014295
v -0.005671 0.006300 0.017453
v -0.008829 0.004450 0.014295
v -0.003873 0.002102 0.017891
v -0.006841 0.000363 0.014923
v -0.006841 0.012237 0.014923
v -0.003873 0.010498 0.017891
v -0.011039 0.006300 0.010725
v -0.009809 0.010498 0.011955
v -0.002643 0.006300 0.019121
v -0.009809 0.002102 0.011955
vn -0.0000 -0.0000 1.0000
vn 0.7071 -0.0000 0.7071
vn 0.7065 0.0402 0.7065
vn -0.0000 0.0402 0.9992
vn -0.7071 -0.0000 0.7071
vn -1.0000 -0.0000 -0.0000
vn -0.0000 -0.0000 -1.0000
vn -0.7071 -0.0000 -0.7071
vn 1.0000 -0.0000 -0.0000
vn 0.7071 -0.0000 -0.7071
vn -0.0000 -1.0000 -0.0000
vn -0.7065 0.0402 0.7065
vn -0.9992 0.0402 -0.0000
vn -0.0000 0.0402 -0.9992
vn 0.7065 0.0402 -0.7065
vn 0.9992 0.0402 -0.0000
vn -0.7065 0.0402 -0.7065
vn -0.0000 0.8170 -0.5766
vn -0.0000 0.7809 -0.6246
vn -0.4417 0.7809 -0.4417
vn -0.4077 0.8170 -0.4077
vn 0.6775 0.2862 0.6775
vn -0.0000 0.2862 0.9582
vn -0.4077 0.8170 0.4077
vn -0.4417 0.7809 0.4417
vn -0.0000 0.7809 0.6246
vn -0.0000 0.8170 0.5766
vn -0.0000 0.2862 -0.9582
vn 0.6775 0.2862 -0.6775
vn 0.4077 0.8170 0.4077
vn 0.4417 0.7809 0.4417
vn 0.6246 0.7809 -0.0000
vn 0.5766 0.8170 -0.0000
vn -0.9582 0.2862 -0.0000
vn -0.6775 0.2862 -0.6775
vn -0.5766 0.8170 -0.0000
vn -0.6246 0.7809 -0.0000
vn 0.9582 0.2862 -0.0000
vn 0.4077 0.8170 -0.4077
vn 0.4417 0.7809 -0.4417
vn -0.6775 0.2862 0.6775
vn -0.0000 1.0000 -0.0000
vn 0.8630 0.5053 -0.0000
vn 0.6102 0.5053 0.6102
vn -0.6102 0.5053 -0.6102
vn -0.0000 0.5053 -0.8630
vn -0.6102 0.5053 0.6102
vn -0.8630 0.5053 -0.0000
vn -0.0000 0.5053 0.8630
vn 0.6102 0.5053 -0.6102
vn 0.5000 -0.7071 0.5000
vn 0.4712 -0.7065 0.5280
vn -0.0284 -0.9992 0.0284
vn -0.5000 -0.7071 -0.5000
vn -0.5000 0.7071 -0.5000
vn 0.5000 0.7071 0.5000
vn -0.5280 -0.7065 -0.4712
vn -0.7350 -0.0000 -0.6781
vn -0.0284 0.9992 0.0284
vn 0.4712 0.7065 0.5280
vn 0.6781 -0.0000 0.7350
vn -0.5280 0.7065 -0.4712
vn -0.5777 0.5766 0.5777
vn -0.5522 0.6246 0.5522
vn -0.8645 0.4417 0.2399
vn -0.8660 0.4077 0.2894
vn 0.2767 -0.6775 0.6815
vn -0.2024 -0.9582 0.2024
vn -0.8660 -0.4077 0.2894
vn -0.8645 -0.4417 0.2399
vn -0.5522 -0.6246 0.5522
vn -0.5777 -0.5766 0.5777
vn -0.2024 0.9582 0.2024
vn 0.2767 0.6775 0.6815
vn -0.2894 -0.4077 0.8660
vn -0.2399 -0.4417 0.8645
vn -0.1106 -0.0000 0.9939
vn -0.1700 -0.0000 0.9854
vn -0.8799 -0.0000 -0.4751
vn -0.6815 0.6775 -0.2767
vn -0.9854 -0.0000 0.1700
vn -0.9939 -0.0000 0.1106
vn 0.4751 -0.0000 0.8799
vn -0.2894 0.4077 0.8660
vn -0.2399 0.4417 0.8645
vn -0.6815 -0.6775 -0.2767
vn 0.2529 -0.0000 0.9675
vn 0.0742 -0.6102 0.7888
vn -0.7888 0.6102 -0.0742
vn -0.3573 0.8630 0.3573
vn -0.7888 -0.6102 -0.0742
vn -0.9675 -0.0000 -0.2529
vn -0.3573 -0.8630 0.3573
vn 0.0742 0.6102 0.7888
vt 0.035233 0.580078
vt 0.041093 0.580078
vt 0.041090 0.584931
vt 0.035220 0.584931
vt 0.035233 0.556641
vt 0.035233 0.582031
vt 0.041093 0.582031
vt 0.041093 0.556641
vt 0.046952 0.582031
vt 0.046952 0.556641
vt 0.048760 0.643988
vt 0.044348 0.648400
vt 0.037730 0.648400
vt 0.033317 0.643988
vt 0.033317 0.637370
vt 0.037730 0.632957
vt 0.044348 0.632957
vt 0.048760 0.637370
vt 0.041090 0.584931
vt 0.035220 0.584931
vt 0.046952 0.580078
vt 0.046960 0.584931
vt 0.046960 0.584931
vt 0.046960 0.584931
vt 0.041090 0.584931
vt 0.035220 0.584931
vt 0.043018 0.661337
vt 0.044306 0.658252
vt 0.048858 0.662822
vt 0.045762 0.664092
vt 0.041114 0.589988
vt 0.035627 0.589988
vt 0.042993 0.670718
vt 0.044265 0.673814
vt 0.037816 0.673787
vt 0.039105 0.670702
vt 0.046601 0.589988
vt 0.041114 0.589987
vt 0.036361 0.667948
vt 0.033265 0.669218
vt 0.033267 0.662763
vt 0.036362 0.664057
vt 0.046601 0.589988
vt 0.041114 0.589987
vt 0.045760 0.667983
vt 0.048856 0.669277
vt 0.035627 0.589988
vt 0.039129 0.661321
vt 0.037857 0.658226
vt 0.046601 0.589988
vt 0.041114 0.589988
vt 0.035627 0.589988
vt 0.035627 0.589988
vt 0.046601 0.589987
vt 0.041061 0.666019
vt 0.045933 0.593107
vt 0.041129 0.593107
vt 0.041129 0.593107
vt 0.036326 0.593107
vt 0.041129 0.593107
vt 0.036326 0.593107
vt 0.041129 0.593107
vt 0.036326 0.593107
vt 0.045933 0.593107
vt 0.045933 0.593107
vt 0.036326 0.593107
s 1
usemtl ammo_mp_1
f 5/1/1 14/2/2 30/3/3 20/4/4
f 1/5/1 5/6/1 6/7/5 3/8/5
f 3/8/5 6/7/5 4/9/6 2/10/6
f 9/9/7 7/10/7 8/8/8 10/7/8
f 10/7/8 8/8/8 2/5/6 4/6/6
f 13/9/9 11/10/9 15/8/10 16/7/10
f 16/7/10 15/8/10 7/5/7 9/6/7
f 5/9/1 1/10/1 12/8/2 14/7/2
f 14/7/2 12/8/2 11/5/9 13/6/9
f 2/11/11 8/12/11 7/13/11 15/14/11 11/15/11 12/16/11 1/17/11 3/18/11
f 4/1/6 6/2/5 22/19/12 17/20/13
f 16/2/10 9/21/7 24/22/14 32/19/15
f 14/2/2 13/21/9 28/23/16 30/3/3
f 13/1/9 16/2/10 32/19/15 28/4/16
f 10/2/8 4/21/6 17/24/13 26/25/17
f 9/1/7 10/2/8 26/25/17 24/26/14
f 6/2/5 5/21/1 20/23/4 22/19/12
f 36/27/18 21/28/19 31/29/20 35/30/21
f 42/31/22 43/32/23 20/4/4 30/3/3
f 38/33/24 33/34/25 25/35/26 37/36/27
f 44/37/28 45/38/29 32/19/15 24/22/14
f 39/39/30 27/40/31 19/41/32 34/42/33
f 46/43/34 47/44/35 26/25/17 17/24/13
f 40/45/36 29/46/37 33/34/25 38/33/24
f 45/38/29 48/47/38 28/4/16 32/19/15
f 41/48/39 23/49/40 21/28/19 36/27/18
f 43/50/23 49/51/41 22/19/12 20/23/4
f 34/42/33 19/41/32 23/49/40 41/48/39
f 49/51/41 46/52/34 17/20/13 22/19/12
f 37/36/27 25/35/26 27/40/31 39/39/30
f 47/44/35 44/53/28 24/26/14 26/25/17
f 35/30/21 31/29/20 29/46/37 40/45/36
f 48/54/38 42/31/22 30/3/3 28/23/16
f 18/55/42 35/30/21 40/45/36
f 18/55/42 37/36/27 39/39/30
f 18/55/42 34/42/33 41/48/39
f 18/55/42 41/48/39 36/27/18
f 18/55/42 40/45/36 38/33/24
f 18/55/42 39/39/30 34/42/33
f 18/55/42 38/33/24 37/36/27
f 18/55/42 36/27/18 35/30/21
f 29/56/43 31/57/44 42/31/22 48/54/38
f 27/58/45 25/59/46 44/53/28 47/44/35
f 23/60/47 19/61/48 46/52/34 49/51/41
f 21/56/49 23/60/47 49/51/41 43/50/23
f 33/62/50 29/63/43 48/47/38 45/38/29
f 19/64/48 27/58/45 47/44/35 46/43/34
f 25/65/46 33/62/50 45/38/29 44/37/28
f 31/57/44 21/66/49 43/32/23 42/31/22
f 54/1/11 63/2/51 79/3/52 69/4/53
f 50/5/11 54/6/11 55/7/54 52/8/54
f 52/8/54 55/7/54 53/9/8 51/10/8
f 58/9/42 56/10/42 57/8/55 59/7/55
f 59/7/55 57/8/55 51/5/8 53/6/8
f 62/9/2 60/10/2 64/8/56 65/7/56
f 65/7/56 64/8/56 56/5/42 58/6/42
f 54/9/11 50/10/11 61/8/51 63/7/51
f 63/7/51 61/8/51 60/5/2 62/6/2
f 51/11/10 57/12/10 56/13/10 64/14/10 60/15/10 61/16/10 50/17/10 52/18/10
f 53/1/8 55/2/54 71/19/57 66/20/58
f 65/2/56 58/21/42 73/22/59 81/19/60
f 63/2/51 62/21/2 77/23/61 79/3/52
f 62/1/2 65/2/56 81/19/60 77/4/61
f 59/2/55 53/21/8 66/24/58 75/25/62
f 58/1/42 59/2/55 75/25/62 73/26/59
f 55/2/54 54/21/11 69/23/53 71/19/57
f 85/27/63 70/28/64 80/29/65 84/30/66
f 91/31/67 92/32/68 69/4/53 79/3/52
f 87/33/69 82/34/70 74/35/71 86/36/72
f 93/37/73 94/38/74 81/19/60 73/22/59
f 88/39/75 76/40/76 68/41/77 83/42/78
f 95/43/79 96/44/80 75/25/62 66/24/58
f 89/45/81 78/46/82 82/34/70 87/33/69
f 94/38/74 97/47/83 77/4/61 81/19/60
f 90/48/84 72/49/85 70/28/64 85/27/63
f 92/50/68 98/51/86 71/19/57 69/23/53
f 83/42/78 68/41/77 72/49/85 90/48/84
f 98/51/86 95/52/79 66/20/58 71/19/57
f 86/36/72 74/35/71 76/40/76 88/39/75
f 96/44/80 93/53/73 73/26/59 75/25/62
f 84/30/66 80/29/65 78/46/82 89/45/81
f 97/54/83 91/31/67 79/3/52 77/23/61
f 67/55/5 84/30/66 89/45/81
f 67/55/5 86/36/72 88/39/75
f 67/55/5 83/42/78 90/48/84
f 67/55/5 90/48/84 85/27/63
f 67/55/5 89/45/81 87/33/69
f 67/55/5 88/39/75 83/42/78
f 67/55/5 87/33/69 86/36/72
f 67/55/5 85/27/63 84/30/66
f 78/56/87 80/57/88 91/31/67 97/54/83
f 76/58/89 74/59/90 93/53/73 96/44/80
f 72/60/91 68/61/92 95/52/79 98/51/86
f 70/56/93 72/60/91 98/51/86 92/50/68
f 82/62/94 78/63/87 97/47/83 94/38/74
f 68/64/92 76/58/89 96/44/80 95/43/79
f 74/65/90 82/62/94 94/38/74 93/37/73
f 80/57/88 70/66/93 92/32/68 91/31/67
