# Blender 5.0.1
# www.blender.org
mtllib ammo_box_mp_4_1.mtl
o ammo_box_mp_4_1
v -0.062348 0.060000 -0.030000
v 0.062351 0.060000 -0.030000
v 0.062351 -0.000000 -0.030000
v -0.062349 0.000000 0.030000
v -0.062349 0.060000 0.030000
v -0.062348 -0.000000 -0.030000
v 0.062351 0.060000 -0.030000
v 0.062351 -0.000000 -0.030000
v 0.062351 0.060000 0.030000
v 0.062351 0.000000 0.030000
vn -1.0000 -0.0000 -0.0000
vn -0.0000 -0.0000 -1.0000
vn -0.0000 -0.0000 -0.0000
vn 1.0000 -0.0000 -0.0000
vn -0.0000 -0.0000 1.0000
vn -0.0000 1.0000 -0.0000
vn -0.0000 -1.0000 -0.0000
vt 0.667969 0.837891
vt 0.750000 0.837891
vt 0.750000 0.919922
vt 0.667969 0.919922
vt 0.500000 0.675781
vt 0.667969 0.675781
vt 0.667969 0.757812
vt 0.500000 0.757812
vt 0.500000 0.837891
vt 0.500000 0.919922
vt 0.500000 1.000000
vt 0.667969 1.000000
s 0
usemtl ammo_mp_1
f 6/1/1 4/2/1 5/3/1 1/4/1
f 3/5/2 6/6/2 1/7/2 2/8/2
f 3/9/3 2/10/3 7/10/3 8/9/3
f 8/1/4 7/4/4 9/3/4 10/2/4
f 4/5/5 10/6/5 9/7/5 5/8/5
f 5/4/6 9/10/6 7/11/6 1/12/6
f 6/1/7 8/9/7 10/8/7 4/7/7
