# Blender 5.0.1
# www.blender.org
mtllib ammo_pistol_loose_mp_1_casing.mtl
o ammo_pistol_loose_mp_1_casing
v -0.000000 0.000000 0.007000
v -0.007000 0.000000 0.000000
v -0.004950 0.000000 0.004950
v -0.000000 0.024000 0.005918
v -0.000000 0.000000 -0.007000
v -0.004950 0.000000 -0.004950
v 0.007000 0.000000 0.000000
v 0.004950 0.000000 0.004950
v 0.004184 0.024000 0.004184
v 0.004950 0.000000 -0.004950
v -0.005918 0.024000 0.000000
v -0.004184 0.024000 0.004184
v -0.000000 0.024000 -0.005918
v -0.004184 0.024000 -0.004184
v 0.005918 0.024000 0.000000
v 0.004184 0.024000 -0.004184
v 0.004950 0.024000 0.004950
v -0.000000 0.024000 0.007000
v 0.004950 0.024000 -0.004950
v -0.000000 0.024000 -0.007000
v 0.007000 0.024000 0.000000
v -0.004950 0.024000 -0.004950
v -0.007000 0.024000 0.000000
v -0.004950 0.024000 0.004950
v 0.004184 0.001386 0.004184
v -0.000000 0.001386 0.005918
v 0.004184 0.001386 -0.004184
v -0.000000 0.001386 -0.005918
v 0.005918 0.001386 0.000000
v -0.004184 0.001386 -0.004184
v -0.005918 0.001386 0.000000
v -0.004184 0.001386 0.004184
vn -0.0000 -0.0000 1.0000
vn -0.7071 -0.0000 0.7071
vn -1.0000 -0.0000 -0.0000
vn -0.0000 -0.0000 -1.0000
vn -0.7071 -0.0000 -0.7071
vn 1.0000 -0.0000 -0.0000
vn 0.7071 -0.0000 -0.7071
vn 0.7071 -0.0000 0.7071
vn -0.0000 -1.0000 -0.0000
vn -0.0000 1.0000 -0.0000
vt 0.009766 0.556641
vt 0.009766 0.582031
vt 0.015625 0.582031
vt 0.015625 0.556641
vt 0.021484 0.582031
vt 0.021484 0.556641
vt 0.023403 0.643920
vt 0.019010 0.648313
vt 0.012421 0.648313
vt 0.008027 0.643920
vt 0.008027 0.637330
vt 0.012421 0.632937
vt 0.019010 0.632937
vt 0.023403 0.637330
vt 0.009766 0.560547
vt 0.015625 0.560547
vt 0.018478 0.563804
vt 0.019010 0.562625
vt 0.012421 0.562625
vt 0.012952 0.563804
vt 0.009207 0.573075
vt 0.008027 0.573607
vt 0.012421 0.578000
vt 0.012952 0.576821
vt 0.009207 0.567550
vt 0.008027 0.567018
vt 0.018478 0.576821
vt 0.019010 0.578000
vt 0.023403 0.573607
vt 0.022224 0.573075
vt 0.023403 0.567018
vt 0.022224 0.567549
vt 0.022224 0.573076
vt 0.022224 0.567550
vt 0.018478 0.563804
vt 0.012952 0.563804
vt 0.009207 0.567550
vt 0.009207 0.573075
vt 0.012952 0.576821
vt 0.018478 0.576821
vt 0.021484 0.560547
s 1
usemtl ammo_mp_1
f 1/1/1 18/2/1 24/3/2 3/4/2
f 3/4/2 24/3/2 23/5/3 2/6/3
f 20/5/4 5/6/4 6/4/5 22/3/5
f 22/3/5 6/4/5 2/1/3 23/2/3
f 21/5/6 7/6/6 10/4/7 19/3/7
f 19/3/7 10/4/7 5/1/4 20/2/4
f 18/5/1 1/6/1 8/4/8 17/3/8
f 17/3/8 8/4/8 7/1/6 21/2/6
f 2/7/9 6/8/9 5/9/9 10/10/9 7/11/9 8/12/9 1/13/9 3/14/9
f 11/2/6 31/15/6 30/16/8 14/3/8
f 4/17/10 18/18/10 17/19/10 9/20/10
f 16/21/10 19/22/10 20/23/10 13/24/10
f 15/25/10 21/26/10 19/22/10 16/21/10
f 14/27/10 22/28/10 23/29/10 11/30/10
f 11/30/10 23/29/10 24/31/10 12/32/10
f 13/24/10 20/23/10 22/28/10 14/27/10
f 12/32/10 24/31/10 18/18/10 4/17/10
f 9/20/10 17/19/10 21/26/10 15/25/10
f 31/33/10 32/34/10 26/35/10 25/36/10 29/37/10 27/38/10 28/39/10 30/40/10
f 13/2/1 28/15/1 27/16/2 16/3/2
f 4/2/4 26/15/4 32/16/7 12/3/7
f 12/3/7 32/16/7 31/41/6 11/5/6
f 16/3/2 27/16/2 29/41/3 15/5/3
f 9/3/5 25/16/5 26/41/4 4/5/4
f 15/2/3 29/15/3 25/16/5 9/3/5
f 14/3/8 30/16/8 28/41/1 13/5/1
