# Blender 5.0.1
# www.blender.org
mtllib ammo_pistol_loose_5pcs_mp_2.mtl
o ammo_pistol_loose_5pcs_mp_2
v 0.009140 0.000000 0.005128
v 0.002840 0.000000 -0.001172
v 0.004685 0.000000 0.003283
v 0.002840 0.021600 -0.001172
v 0.009140 0.021600 0.005128
v 0.004685 0.021600 0.003283
v 0.009140 0.000000 -0.007472
v 0.004685 0.000000 -0.005627
v 0.009140 0.021600 -0.007472
v 0.004685 0.021600 -0.005627
v 0.015440 0.000000 -0.001172
v 0.013595 0.000000 0.003283
v 0.015440 0.021600 -0.001172
v 0.013595 0.021600 0.003283
v 0.013595 0.000000 -0.005627
v 0.013595 0.021600 -0.005627
v 0.002840 0.025804 -0.001172
v 0.009140 0.029717 -0.001172
v 0.004646 0.032732 -0.001172
v 0.009140 0.025804 0.005128
v 0.009140 0.032732 0.003322
v 0.004685 0.025804 0.003283
v 0.005962 0.032732 0.002006
v 0.009140 0.025804 -0.007472
v 0.009140 0.032732 -0.005666
v 0.004685 0.025804 -0.005627
v 0.005962 0.032732 -0.004350
v 0.015440 0.025804 -0.001172
v 0.013634 0.032732 -0.001172
v 0.013595 0.025804 0.003283
v 0.012318 0.032732 0.002006
v 0.013595 0.025804 -0.005627
v 0.012318 0.032732 -0.004350
v 0.006524 0.031230 -0.001172
v 0.010990 0.031230 0.000678
v 0.009140 0.031230 0.001444
v 0.009140 0.031230 -0.003788
v 0.010990 0.031230 -0.003022
v 0.007290 0.031230 -0.003022
v 0.011756 0.031230 -0.001172
v 0.007290 0.031230 0.000678
v 0.013338 0.030268 0.003026
v 0.009140 0.030268 0.004765
v 0.009140 0.030268 -0.007109
v 0.013338 0.030268 -0.005370
v 0.003203 0.030268 -0.001172
v 0.004942 0.030268 -0.005370
v 0.015077 0.030268 -0.001172
v 0.004942 0.030268 0.003026
v -0.004888 0.000000 -0.006012
v -0.009343 0.006300 -0.010467
v -0.008038 0.001845 -0.009162
v -0.024616 0.006300 0.004807
v -0.020162 0.000000 0.009262
v -0.023312 0.001845 0.006112
v -0.004888 0.012600 -0.006012
v -0.008038 0.010755 -0.009162
v -0.020162 0.012600 0.009262
v -0.023312 0.010755 0.006112
v -0.000433 0.006300 -0.001557
v -0.001738 0.001845 -0.002862
v -0.015707 0.006300 0.013716
v -0.017012 0.001845 0.012412
v -0.001738 0.010755 -0.002862
v -0.017012 0.010755 0.012412
v -0.027589 0.006300 0.007779
v -0.025901 0.006300 0.015001
v -0.031211 0.006300 0.013955
v -0.023134 0.000000 0.012234
v -0.028033 0.001806 0.017133
v -0.026284 0.001845 0.009084
v -0.030280 0.003122 0.014886
v -0.023134 0.012600 0.012234
v -0.028033 0.010794 0.017133
v -0.026284 0.010755 0.009084
v -0.030280 0.009478 0.014886
v -0.018679 0.006300 0.016689
v -0.024855 0.006300 0.020311
v -0.019984 0.001845 0.015384
v -0.025786 0.003122 0.019380
v -0.019984 0.010755 0.015384
v -0.025786 0.009478 0.019380
v -0.028821 0.006300 0.014221
v -0.025663 0.004450 0.017379
v -0.026971 0.003684 0.016071
v -0.026971 0.008916 0.016071
v -0.025663 0.008150 0.017379
v -0.028279 0.008150 0.014763
v -0.025121 0.006300 0.017921
v -0.028279 0.004450 0.014763
v -0.023322 0.002102 0.018359
v -0.026291 0.000363 0.015391
v -0.026291 0.012237 0.015391
v -0.023322 0.010498 0.018359
v -0.030489 0.006300 0.011193
v -0.029259 0.010498 0.012422
v -0.022093 0.006300 0.019589
v -0.029259 0.002102 0.012422
v -0.000933 0.000000 0.019046
v 0.000546 0.006300 0.025170
v 0.000113 0.001845 0.023376
v 0.021542 0.006300 0.020098
v 0.020063 0.000000 0.013974
v 0.021109 0.001845 0.018304
v -0.000933 0.012600 0.019046
v 0.000113 0.010755 0.023376
v 0.020063 0.012600 0.013974
v 0.021109 0.010755 0.018304
v -0.002412 0.006300 0.012922
v -0.001979 0.001845 0.014716
v 0.018584 0.006300 0.007850
v 0.019017 0.001845 0.009643
v -0.001979 0.010755 0.014716
v 0.019017 0.010755 0.009643
v 0.025629 0.006300 0.019110
v 0.027953 0.006300 0.012068
v 0.031939 0.006300 0.015728
v 0.024149 0.000000 0.012987
v 0.030883 0.001806 0.011360
v 0.025195 0.001845 0.017317
v 0.031630 0.003122 0.014449
v 0.024149 0.012600 0.012987
v 0.030883 0.010794 0.011360
v 0.025195 0.010755 0.017317
v 0.031630 0.009478 0.014449
v 0.022670 0.006300 0.006863
v 0.029828 0.006300 0.006991
v 0.023103 0.001845 0.008656
v 0.030137 0.003122 0.008271
v 0.023103 0.010755 0.008656
v 0.030137 0.009478 0.008271
v 0.030038 0.006300 0.014255
v 0.028989 0.004450 0.009914
v 0.029423 0.003684 0.011712
v 0.029423 0.008916 0.011712
v 0.028989 0.008150 0.009914
v 0.029858 0.008150 0.013511
v 0.028809 0.006300 0.009169
v 0.029858 0.004450 0.013511
v 0.027503 0.002102 0.007858
v 0.028488 0.000363 0.011938
v 0.028488 0.012237 0.011938
v 0.027503 0.010498 0.007858
v 0.029882 0.006300 0.017709
v 0.029474 0.010498 0.016019
v 0.027094 0.006300 0.006167
v 0.029474 0.002102 0.016019
v 0.025183 0.000000 -0.007913
v 0.016328 0.000000 -0.008894
v 0.020552 0.000000 -0.006570
v 0.016328 0.021600 -0.008894
v 0.025183 0.021600 -0.007913
v 0.020552 0.021600 -0.006570
v 0.017308 0.000000 -0.017749
v 0.014984 0.000000 -0.013525
v 0.017308 0.021600 -0.017749
v 0.014984 0.021600 -0.013525
v 0.026164 0.000000 -0.016769
v 0.027507 0.000000 -0.012138
v 0.026164 0.021600 -0.016769
v 0.027507 0.021600 -0.012138
v 0.021939 0.000000 -0.019093
v 0.021939 0.021600 -0.019093
v 0.016328 0.025804 -0.008894
v 0.021246 0.029717 -0.012831
v 0.017737 0.032732 -0.010023
v 0.025183 0.025804 -0.007913
v 0.024054 0.032732 -0.009323
v 0.020552 0.025804 -0.006570
v 0.020751 0.032732 -0.008364
v 0.017308 0.025804 -0.017749
v 0.018437 0.032732 -0.016340
v 0.014984 0.025804 -0.013525
v 0.016779 0.032732 -0.013326
v 0.026164 0.025804 -0.016769
v 0.024754 0.032732 -0.015640
v 0.027507 0.025804 -0.012138
v 0.025712 0.032732 -0.012337
v 0.021939 0.025804 -0.019093
v 0.021740 0.032732 -0.017298
v 0.019203 0.031230 -0.011196
v 0.023846 0.031230 -0.012543
v 0.022881 0.031230 -0.010789
v 0.019611 0.031230 -0.014874
v 0.021534 0.031230 -0.015432
v 0.018645 0.031230 -0.013119
v 0.023288 0.031230 -0.014466
v 0.020958 0.031230 -0.010231
v 0.027146 0.030268 -0.012178
v 0.024956 0.030268 -0.008197
v 0.017535 0.030268 -0.017466
v 0.021899 0.030268 -0.018732
v 0.016611 0.030268 -0.009121
v 0.015345 0.030268 -0.013485
v 0.025880 0.030268 -0.016542
v 0.020592 0.030268 -0.006931
v -0.021079 0.000000 -0.012301
v -0.021466 0.000000 -0.021203
v -0.023116 0.000000 -0.016672
v -0.021466 0.021600 -0.021203
v -0.021079 0.021600 -0.012301
v -0.023116 0.021600 -0.016672
v -0.012565 0.000000 -0.021589
v -0.017095 0.000000 -0.023239
v -0.012565 0.021600 -0.021589
v -0.017095 0.021600 -0.023239
v -0.012178 0.000000 -0.012688
v -0.016549 0.000000 -0.010651
v -0.012178 0.021600 -0.012688
v -0.016549 0.021600 -0.010651
v -0.010528 0.000000 -0.017219
v -0.010528 0.021600 -0.017219
v -0.021466 0.025804 -0.021203
v -0.016822 0.029717 -0.016945
v -0.020135 0.032732 -0.019982
v -0.021079 0.025804 -0.012301
v -0.019859 0.032732 -0.013633
v -0.023116 0.025804 -0.016672
v -0.021312 0.032732 -0.016750
v -0.012565 0.025804 -0.021589
v -0.013785 0.032732 -0.020258
v -0.017095 0.025804 -0.023239
v -0.017017 0.032732 -0.021435
v -0.012178 0.025804 -0.012688
v -0.013509 0.032732 -0.013908
v -0.016549 0.025804 -0.010651
v -0.016627 0.032732 -0.012455
v -0.010528 0.025804 -0.017219
v -0.012332 0.032732 -0.017140
v -0.018751 0.031230 -0.018713
v -0.016709 0.031230 -0.014332
v -0.018590 0.031230 -0.015017
v -0.015054 0.031230 -0.018874
v -0.014208 0.031230 -0.017059
v -0.016936 0.031230 -0.019559
v -0.014894 0.031230 -0.015177
v -0.019436 0.031230 -0.016832
v -0.016564 0.030268 -0.011014
v -0.020834 0.030268 -0.012569
v -0.012810 0.030268 -0.021321
v -0.010891 0.030268 -0.017203
v -0.021198 0.030268 -0.020957
v -0.017080 0.030268 -0.022877
v -0.012446 0.030268 -0.012933
v -0.022753 0.030268 -0.016688
vn -0.0000 -0.0000 1.0000
vn 0.7071 -0.0000 0.7071
vn 0.7065 0.0402 0.7065
vn -0.0000 0.0402 0.9992
vn -0.7071 -0.0000 0.7071
vn -1.0000 -0.0000 -0.0000
vn -0.0000 -0.0000 -1.0000
vn -0.7071 -0.0000 -0.7071
vn 1.0000 -0.0000 -0.0000
vn 0.7071 -0.0000 -0.7071
vn -0.0000 -1.0000 -0.0000
vn -0.7065 0.0402 0.7065
vn -0.9992 0.0402 -0.0000
vn -0.0000 0.0402 -0.9992
vn 0.7065 0.0402 -0.7065
vn 0.9992 0.0402 -0.0000
vn -0.7065 0.0402 -0.7065
vn -0.0000 0.8170 -0.5766
vn -0.0000 0.7809 -0.6246
vn -0.4417 0.7809 -0.4417
vn -0.4077 0.8170 -0.4077
vn 0.6775 0.2862 0.6775
vn -0.0000 0.2862 0.9582
vn -0.4077 0.8170 0.4077
vn -0.4417 0.7809 0.4417
vn -0.0000 0.7809 0.6246
vn -0.0000 0.8170 0.5766
vn -0.0000 0.2862 -0.9582
vn 0.6775 0.2862 -0.6775
vn 0.4077 0.8170 0.4077
vn 0.4417 0.7809 0.4417
vn 0.6246 0.7809 -0.0000
vn 0.5766 0.8170 -0.0000
vn -0.9582 0.2862 -0.0000
vn -0.6775 0.2862 -0.6775
vn -0.5766 0.8170 -0.0000
vn -0.6246 0.7809 -0.0000
vn 0.9582 0.2862 -0.0000
vn 0.4077 0.8170 -0.4077
vn 0.4417 0.7809 -0.4417
vn -0.6775 0.2862 0.6775
vn -0.0000 1.0000 -0.0000
vn 0.8630 0.5053 -0.0000
vn 0.6102 0.5053 0.6102
vn -0.6102 0.5053 -0.6102
vn -0.0000 0.5053 -0.8630
vn -0.6102 0.5053 0.6102
vn -0.8630 0.5053 -0.0000
vn -0.0000 0.5053 0.8630
vn 0.6102 0.5053 -0.6102
vn 0.5000 -0.7071 0.5000
vn 0.4712 -0.7065 0.5280
vn -0.0284 -0.9992 0.0284
vn -0.5000 -0.7071 -0.5000
vn -0.5000 0.7071 -0.5000
vn 0.5000 0.7071 0.5000
vn -0.5280 -0.7065 -0.4712
vn -0.7350 -0.0000 -0.6781
vn -0.0284 0.9992 0.0284
vn 0.4712 0.7065 0.5280
vn 0.6781 -0.0000 0.7350
vn -0.5280 0.7065 -0.4712
vn -0.5777 0.5766 0.5777
vn -0.5522 0.6246 0.5522
vn -0.8645 0.4417 0.2399
vn -0.8660 0.4077 0.2894
vn 0.2767 -0.6775 0.6815
vn -0.2024 -0.9582 0.2024
vn -0.8660 -0.4077 0.2894
vn -0.8645 -0.4417 0.2399
vn -0.5522 -0.6246 0.5522
vn -0.5777 -0.5766 0.5777
vn -0.2024 0.9582 0.2024
vn 0.2767 0.6775 0.6815
vn -0.2894 -0.4077 0.8660
vn -0.2399 -0.4417 0.8645
vn -0.1106 -0.0000 0.9939
vn -0.1700 -0.0000 0.9854
vn -0.8799 -0.0000 -0.4751
vn -0.6815 0.6775 -0.2767
vn -0.9854 -0.0000 0.1700
vn -0.9939 -0.0000 0.1106
vn 0.4751 -0.0000 0.8799
vn -0.2894 0.4077 0.8660
vn -0.2399 0.4417 0.8645
vn -0.6815 -0.6775 -0.2767
vn 0.2529 -0.0000 0.9675
vn 0.0742 -0.6102 0.7888
vn -0.7888 0.6102 -0.0742
vn -0.3573 0.8630 0.3573
vn -0.7888 -0.6102 -0.0742
vn -0.9675 -0.0000 -0.2529
vn -0.3573 -0.8630 0.3573
vn 0.0742 0.6102 0.7888
vn -0.1660 -0.7071 -0.6873
vn -0.1268 -0.7065 -0.6962
vn 0.0391 -0.9992 -0.0094
vn 0.1660 -0.7071 0.6873
vn 0.2348 -0.0000 0.9720
vn 0.1660 0.7071 0.6873
vn -0.2348 -0.0000 -0.9720
vn -0.1660 0.7071 -0.6873
vn -0.9720 -0.0000 0.2348
vn 0.2050 -0.7065 0.6773
vn 0.2737 -0.0000 0.9618
vn 0.0391 0.9992 -0.0094
vn -0.1268 0.7065 -0.6962
vn -0.1956 -0.0000 -0.9807
vn 0.2050 0.7065 0.6773
vn 0.7942 0.5766 -0.1919
vn 0.7591 0.6246 -0.1834
vn 0.8628 0.4417 0.2459
vn 0.8899 0.4077 0.2045
vn 0.1191 -0.6775 -0.7258
vn 0.2782 -0.9582 -0.0672
vn 0.8899 -0.4077 0.2045
vn 0.8628 -0.4417 0.2459
vn 0.7591 -0.6246 -0.1834
vn 0.7942 -0.5766 -0.1919
vn 0.2782 0.9582 -0.0672
vn 0.1191 0.6775 -0.7258
vn 0.6984 -0.4077 -0.5882
vn 0.6554 -0.4417 -0.6127
vn 0.6124 -0.0000 -0.7905
vn 0.6588 -0.0000 -0.7523
vn 0.5032 -0.0000 0.8642
vn 0.4373 0.6775 0.5914
vn 0.9296 -0.0000 0.3686
vn 0.9058 -0.0000 0.4238
vn 0.0532 -0.0000 -0.9986
vn 0.6984 0.4077 -0.5882
vn 0.6554 0.4417 -0.6127
vn 0.4373 -0.6775 0.5914
vn 0.9720 -0.0000 -0.2348
vn 0.2885 -0.0000 -0.9575
vn 0.3479 -0.6102 -0.7118
vn 0.6344 0.6102 0.4745
vn 0.4911 0.8630 -0.1186
vn 0.6344 -0.6102 0.4745
vn 0.6938 -0.0000 0.7202
vn 0.4911 -0.8630 -0.1186
vn 0.3479 0.6102 -0.7118
vn 0.6250 -0.0000 0.7806
vn 0.9939 -0.0000 0.1101
vn 0.9931 0.0402 0.1100
vn 0.6245 0.0402 0.7800
vn -0.1101 -0.0000 0.9939
vn -0.7806 -0.0000 0.6250
vn -0.6250 -0.0000 -0.7806
vn -0.9939 -0.0000 -0.1101
vn 0.7806 -0.0000 -0.6250
vn 0.1101 -0.0000 -0.9939
vn -0.1100 0.0402 0.9931
vn -0.7800 0.0402 0.6245
vn -0.6245 0.0402 -0.7800
vn 0.1100 0.0402 -0.9931
vn 0.7800 0.0402 -0.6245
vn -0.9931 0.0402 -0.1100
vn -0.3604 0.8170 -0.4501
vn -0.3904 0.7809 -0.4876
vn -0.6208 0.7809 -0.0688
vn -0.5731 0.8170 -0.0635
vn 0.9523 0.2862 0.1055
vn 0.5988 0.2862 0.7480
vn -0.0635 0.8170 0.5731
vn -0.0688 0.7809 0.6208
vn 0.3904 0.7809 0.4876
vn 0.3604 0.8170 0.4501
vn -0.5988 0.2862 -0.7480
vn 0.1055 0.2862 -0.9523
vn 0.5731 0.8170 0.0635
vn 0.6208 0.7809 0.0688
vn 0.4876 0.7809 -0.3904
vn 0.4501 0.8170 -0.3604
vn -0.7480 0.2862 0.5988
vn -0.9523 0.2862 -0.1055
vn -0.4501 0.8170 0.3604
vn -0.4876 0.7809 0.3904
vn 0.7480 0.2862 -0.5988
vn 0.0635 0.8170 -0.5731
vn 0.0688 0.7809 -0.6208
vn -0.1055 0.2862 0.9523
vn 0.6737 0.5053 -0.5393
vn 0.8577 0.5053 0.0950
vn -0.8577 0.5053 -0.0950
vn -0.5393 0.5053 -0.6737
vn -0.0950 0.5053 0.8577
vn -0.6737 0.5053 0.5393
vn 0.5393 0.5053 0.6737
vn 0.0950 0.5053 -0.8577
vn -0.6758 -0.0000 0.7371
vn 0.0434 -0.0000 0.9991
vn 0.0434 0.0402 0.9983
vn -0.6752 0.0402 0.7365
vn -0.9991 -0.0000 0.0434
vn -0.7371 -0.0000 -0.6758
vn 0.6758 -0.0000 -0.7371
vn -0.0434 -0.0000 -0.9991
vn 0.7371 -0.0000 0.6758
vn 0.9991 -0.0000 -0.0434
vn -0.9983 0.0402 0.0434
vn -0.7365 0.0402 -0.6752
vn 0.6752 0.0402 -0.7365
vn 0.9983 0.0402 -0.0434
vn 0.7365 0.0402 0.6752
vn -0.0434 0.0402 -0.9983
vn 0.3897 0.8170 -0.4250
vn 0.4221 0.7809 -0.4604
vn -0.0271 0.7809 -0.6240
vn -0.0250 0.8170 -0.5761
vn 0.0416 0.2862 0.9573
vn -0.6475 0.2862 0.7063
vn -0.5761 0.8170 0.0250
vn -0.6240 0.7809 0.0271
vn -0.4221 0.7809 0.4604
vn -0.3897 0.8170 0.4250
vn 0.6475 0.2862 -0.7063
vn 0.9573 0.2862 -0.0416
vn 0.0250 0.8170 0.5761
vn 0.0271 0.7809 0.6240
vn 0.4604 0.7809 0.4221
vn 0.4250 0.8170 0.3897
vn -0.7063 0.2862 -0.6475
vn -0.0416 0.2862 -0.9573
vn -0.4250 0.8170 -0.3897
vn -0.4604 0.7809 -0.4221
vn 0.7063 0.2862 0.6475
vn 0.5761 0.8170 -0.0250
vn 0.6240 0.7809 -0.0271
vn -0.9573 0.2862 0.0416
vn 0.6361 0.5053 0.5832
vn 0.0374 0.5053 0.8621
vn -0.0374 0.5053 -0.8621
vn 0.5831 0.5053 -0.6361
vn -0.8621 0.5053 0.0375
vn -0.6361 0.5053 -0.5831
vn -0.5832 0.5053 0.6361
vn 0.8621 0.5053 -0.0374
vt 0.035233 0.580078
vt 0.041093 0.580078
vt 0.041090 0.584931
vt 0.035220 0.584931
vt 0.035233 0.556641
vt 0.035233 0.582031
vt 0.041093 0.582031
vt 0.041093 0.556641
vt 0.046952 0.582031
vt 0.046952 0.556641
vt 0.048760 0.643988
vt 0.044348 0.648400
vt 0.037730 0.648400
vt 0.033317 0.643988
vt 0.033317 0.637370
vt 0.037730 0.632957
vt 0.044348 0.632957
vt 0.048760 0.637370
vt 0.041090 0.584931
vt 0.035220 0.584931
vt 0.046952 0.580078
vt 0.046960 0.584931
vt 0.046960 0.584931
vt 0.046960 0.584931
vt 0.041090 0.584931
vt 0.035220 0.584931
vt 0.043018 0.661337
vt 0.044306 0.658252
vt 0.048858 0.662822
vt 0.045762 0.664092
vt 0.041114 0.589988
vt 0.035627 0.589988
vt 0.042993 0.670718
vt 0.044265 0.673814
vt 0.037816 0.673787
vt 0.039105 0.670702
vt 0.046601 0.589988
vt 0.041114 0.589987
vt 0.036361 0.667948
vt 0.033265 0.669218
vt 0.033267 0.662763
vt 0.036362 0.664057
vt 0.046601 0.589988
vt 0.041114 0.589987
vt 0.045760 0.667983
vt 0.048856 0.669277
vt 0.035627 0.589988
vt 0.039129 0.661321
vt 0.037857 0.658226
vt 0.046601 0.589988
vt 0.041114 0.589988
vt 0.035627 0.589988
vt 0.035627 0.589988
vt 0.046601 0.589987
vt 0.041061 0.666019
vt 0.045933 0.593107
vt 0.041129 0.593107
vt 0.041129 0.593107
vt 0.036326 0.593107
vt 0.041129 0.593107
vt 0.036326 0.593107
vt 0.041129 0.593107
vt 0.036326 0.593107
vt 0.045933 0.593107
vt 0.045933 0.593107
vt 0.036326 0.593107
s 1
usemtl ammo_mp_1
f 5/1/1 14/2/2 30/3/3 20/4/4
f 1/5/1 5/6/1 6/7/5 3/8/5
f 3/8/5 6/7/5 4/9/6 2/10/6
f 9/9/7 7/10/7 8/8/8 10/7/8
f 10/7/8 8/8/8 2/5/6 4/6/6
f 13/9/9 11/10/9 15/8/10 16/7/10
f 16/7/10 15/8/10 7/5/7 9/6/7
f 5/9/1 1/10/1 12/8/2 14/7/2
f 14/7/2 12/8/2 11/5/9 13/6/9
f 2/11/11 8/12/11 7/13/11 15/14/11 11/15/11 12/16/11 1/17/11 3/18/11
f 4/1/6 6/2/5 22/19/12 17/20/13
f 16/2/10 9/21/7 24/22/14 32/19/15
f 14/2/2 13/21/9 28/23/16 30/3/3
f 13/1/9 16/2/10 32/19/15 28/4/16
f 10/2/8 4/21/6 17/24/13 26/25/17
f 9/1/7 10/2/8 26/25/17 24/26/14
f 6/2/5 5/21/1 20/23/4 22/19/12
f 36/27/18 21/28/19 31/29/20 35/30/21
f 42/31/22 43/32/23 20/4/4 30/3/3
f 38/33/24 33/34/25 25/35/26 37/36/27
f 44/37/28 45/38/29 32/19/15 24/22/14
f 39/39/30 27/40/31 19/41/32 34/42/33
f 46/43/34 47/44/35 26/25/17 17/24/13
f 40/45/36 29/46/37 33/34/25 38/33/24
f 45/38/29 48/47/38 28/4/16 32/19/15
f 41/48/39 23/49/40 21/28/19 36/27/18
f 43/50/23 49/51/41 22/19/12 20/23/4
f 34/42/33 19/41/32 23/49/40 41/48/39
f 49/51/41 46/52/34 17/20/13 22/19/12
f 37/36/27 25/35/26 27/40/31 39/39/30
f 47/44/35 44/53/28 24/26/14 26/25/17
f 35/30/21 31/29/20 29/46/37 40/45/36
f 48/54/38 42/31/22 30/3/3 28/23/16
f 18/55/42 35/30/21 40/45/36
f 18/55/42 37/36/27 39/39/30
f 18/55/42 34/42/33 41/48/39
f 18/55/42 41/48/39 36/27/18
f 18/55/42 40/45/36 38/33/24
f 18/55/42 39/39/30 34/42/33
f 18/55/42 38/33/24 37/36/27
f 18/55/42 36/27/18 35/30/21
f 29/56/43 31/57/44 42/31/22 48/54/38
f 27/58/45 25/59/46 44/53/28 47/44/35
f 23/60/47 19/61/48 46/52/34 49/51/41
f 21/56/49 23/60/47 49/51/41 43/50/23
f 33/62/50 29/63/43 48/47/38 45/38/29
f 19/64/48 27/58/45 47/44/35 46/43/34
f 25/65/46 33/62/50 45/38/29 44/37/28
f 31/57/44 21/66/49 43/32/23 42/31/22
f 54/1/11 63/2/51 79/3/52 69/4/53
f 50/5/11 54/6/11 55/7/54 52/8/54
f 52/8/54 55/7/54 53/9/8 51/10/8
f 58/9/42 56/10/42 57/8/55 59/7/55
f 59/7/55 57/8/55 51/5/8 53/6/8
f 62/9/2 60/10/2 64/8/56 65/7/56
f 65/7/56 64/8/56 56/5/42 58/6/42
f 54/9/11 50/10/11 61/8/51 63/7/51
f 63/7/51 61/8/51 60/5/2 62/6/2
f 51/11/10 57/12/10 56/13/10 64/14/10 60/15/10 61/16/10 50/17/10 52/18/10
f 53/1/8 55/2/54 71/19/57 66/20/58
f 65/2/56 58/21/42 73/22/59 81/19/60
f 63/2/51 62/21/2 77/23/61 79/3/52
f 62/1/2 65/2/56 81/19/60 77/4/61
f 59/2/55 53/21/8 66/24/58 75/25/62
f 58/1/42 59/2/55 75/25/62 73/26/59
f 55/2/54 54/21/11 69/23/53 71/19/57
f 85/27/63 70/28/64 80/29/65 84/30/66
f 91/31/67 92/32/68 69/4/53 79/3/52
f 87/33/69 82/34/70 74/35/71 86/36/72
f 93/37/73 94/38/74 81/19/60 73/22/59
f 88/39/75 76/40/76 68/41/77 83/42/78
f 95/43/79 96/44/80 75/25/62 66/24/58
f 89/45/81 78/46/82 82/34/70 87/33/69
f 94/38/74 97/47/83 77/4/61 81/19/60
f 90/48/84 72/49/85 70/28/64 85/27/63
f 92/50/68 98/51/86 71/19/57 69/23/53
f 83/42/78 68/41/77 72/49/85 90/48/84
f 98/51/86 95/52/79 66/20/58 71/19/57
f 86/36/72 74/35/71 76/40/76 88/39/75
f 96/44/80 93/53/73 73/26/59 75/25/62
f 84/30/66 80/29/65 78/46/82 89/45/81
f 97/54/83 91/31/67 79/3/52 77/23/61
f 67/55/5 84/30/66 89/45/81
f 67/55/5 86/36/72 88/39/75
f 67/55/5 83/42/78 90/48/84
f 67/55/5 90/48/84 85/27/63
f 67/55/5 89/45/81 87/33/69
f 67/55/5 88/39/75 83/42/78
f 67/55/5 87/33/69 86/36/72
f 67/55/5 85/27/63 84/30/66
f 78/56/87 80/57/88 91/31/67 97/54/83
f 76/58/89 74/59/90 93/53/73 96/44/80
f 72/60/91 68/61/92 95/52/79 98/51/86
f 70/56/93 72/60/91 98/51/86 92/50/68
f 82/62/94 78/63/87 97/47/83 94/38/74
f 68/64/92 76/58/89 96/44/80 95/43/79
f 74/65/90 82/62/94 94/38/74 93/37/73
f 80/57/88 70/66/93 92/32/68 91/31/67
f 103/1/11 112/2/95 128/3/96 118/4/97
f 99/5/11 103/6/11 104/7/98 101/8/98
f 101/8/98 104/7/98 102/9/99 100/10/99
f 107/9/42 105/10/42 106/8/100 108/7/100
f 108/7/100 106/8/100 100/5/99 102/6/99
f 111/9/101 109/10/101 113/8/102 114/7/102
f 114/7/102 113/8/102 105/5/42 107/6/42
f 103/9/11 99/10/11 110/8/95 112/7/95
f 112/7/95 110/8/95 109/5/101 111/6/101
f 100/11/103 106/12/103 105/13/103 113/14/103 109/15/103 110/16/103 99/17/103 101/18/103
f 102/1/99 104/2/98 120/19/104 115/20/105
f 114/2/102 107/21/42 122/22/106 130/19/107
f 112/2/95 111/21/101 126/23/108 128/3/96
f 111/1/101 114/2/102 130/19/107 126/4/108
f 108/2/100 102/21/99 115/24/105 124/25/109
f 107/1/42 108/2/100 124/25/109 122/26/106
f 104/2/98 103/21/11 118/23/97 120/19/104
f 134/27/110 119/28/111 129/29/112 133/30/113
f 140/31/114 141/32/115 118/4/97 128/3/96
f 136/33/116 131/34/117 123/35/118 135/36/119
f 142/37/120 143/38/121 130/19/107 122/22/106
f 137/39/122 125/40/123 117/41/124 132/42/125
f 144/43/126 145/44/127 124/25/109 115/24/105
f 138/45/128 127/46/129 131/34/117 136/33/116
f 143/38/121 146/47/130 126/4/108 130/19/107
f 139/48/131 121/49/132 119/28/111 134/27/110
f 141/50/115 147/51/133 120/19/104 118/23/97
f 132/42/125 117/41/124 121/49/132 139/48/131
f 147/51/133 144/52/126 115/20/105 120/19/104
f 135/36/119 123/35/118 125/40/123 137/39/122
f 145/44/127 142/53/120 122/26/106 124/25/109
f 133/30/113 129/29/112 127/46/129 138/45/128
f 146/54/130 140/31/114 128/3/96 126/23/108
f 116/55/134 133/30/113 138/45/128
f 116/55/134 135/36/119 137/39/122
f 116/55/134 132/42/125 139/48/131
f 116/55/134 139/48/131 134/27/110
f 116/55/134 138/45/128 136/33/116
f 116/55/134 137/39/122 132/42/125
f 116/55/134 136/33/116 135/36/119
f 116/55/134 134/27/110 133/30/113
f 127/56/135 129/57/136 140/31/114 146/54/130
f 125/58/137 123/59/138 142/53/120 145/44/127
f 121/60/139 117/61/140 144/52/126 147/51/133
f 119/56/141 121/60/139 147/51/133 141/50/115
f 131/62/142 127/63/135 146/47/130 143/38/121
f 117/64/140 125/58/137 145/44/127 144/43/126
f 123/65/138 131/62/142 143/38/121 142/37/120
f 129/57/136 119/66/141 141/32/115 140/31/114
f 152/1/143 161/2/144 177/3/145 167/4/146
f 148/5/143 152/6/143 153/7/147 150/8/147
f 150/8/147 153/7/147 151/9/148 149/10/148
f 156/9/149 154/10/149 155/8/150 157/7/150
f 157/7/150 155/8/150 149/5/148 151/6/148
f 160/9/151 158/10/151 162/8/152 163/7/152
f 163/7/152 162/8/152 154/5/149 156/6/149
f 152/9/143 148/10/143 159/8/144 161/7/144
f 161/7/144 159/8/144 158/5/151 160/6/151
f 149/11/11 155/12/11 154/13/11 162/14/11 158/15/11 159/16/11 148/17/11 150/18/11
f 151/1/148 153/2/147 169/19/153 164/20/154
f 163/2/152 156/21/149 171/22/155 179/19/156
f 161/2/144 160/21/151 175/23/157 177/3/145
f 160/1/151 163/2/152 179/19/156 175/4/157
f 157/2/150 151/21/148 164/24/154 173/25/158
f 156/1/149 157/2/150 173/25/158 171/26/155
f 153/2/147 152/21/143 167/23/146 169/19/153
f 183/27/159 168/28/160 178/29/161 182/30/162
f 189/31/163 190/32/164 167/4/146 177/3/145
f 185/33/165 180/34/166 172/35/167 184/36/168
f 191/37/169 192/38/170 179/19/156 171/22/155
f 186/39/171 174/40/172 166/41/173 181/42/174
f 193/43/175 194/44/176 173/25/158 164/24/154
f 187/45/177 176/46/178 180/34/166 185/33/165
f 192/38/170 195/47/179 175/4/157 179/19/156
f 188/48/180 170/49/181 168/28/160 183/27/159
f 190/50/164 196/51/182 169/19/153 167/23/146
f 181/42/174 166/41/173 170/49/181 188/48/180
f 196/51/182 193/52/175 164/20/154 169/19/153
f 184/36/168 172/35/167 174/40/172 186/39/171
f 194/44/176 191/53/169 171/26/155 173/25/158
f 182/30/162 178/29/161 176/46/178 187/45/177
f 195/54/179 189/31/163 177/3/145 175/23/157
f 165/55/42 182/30/162 187/45/177
f 165/55/42 184/36/168 186/39/171
f 165/55/42 181/42/174 188/48/180
f 165/55/42 188/48/180 183/27/159
f 165/55/42 187/45/177 185/33/165
f 165/55/42 186/39/171 181/42/174
f 165/55/42 185/33/165 184/36/168
f 165/55/42 183/27/159 182/30/162
f 176/56/183 178/57/184 189/31/163 195/54/179
f 174/58/185 172/59/186 191/53/169 194/44/176
f 170/60/187 166/61/188 193/52/175 196/51/182
f 168/56/189 170/60/187 196/51/182 190/50/164
f 180/62/190 176/63/183 195/47/179 192/38/170
f 166/64/188 174/58/185 194/44/176 193/43/175
f 172/65/186 180/62/190 192/38/170 191/37/169
f 178/57/184 168/66/189 190/32/164 189/31/163
f 201/1/191 210/2/192 226/3/193 216/4/194
f 197/5/191 201/6/191 202/7/195 199/8/195
f 199/8/195 202/7/195 200/9/196 198/10/196
f 205/9/197 203/10/197 204/8/198 206/7/198
f 206/7/198 204/8/198 198/5/196 200/6/196
f 209/9/199 207/10/199 211/8/200 212/7/200
f 212/7/200 211/8/200 203/5/197 205/6/197
f 201/9/191 197/10/191 208/8/192 210/7/192
f 210/7/192 208/8/192 207/5/199 209/6/199
f 198/11/11 204/12/11 203/13/11 211/14/11 207/15/11 208/16/11 197/17/11 199/18/11
f 200/1/196 202/2/195 218/19/201 213/20/202
f 212/2/200 205/21/197 220/22/203 228/19/204
f 210/2/192 209/21/199 224/23/205 226/3/193
f 209/1/199 212/2/200 228/19/204 224/4/205
f 206/2/198 200/21/196 213/24/202 222/25/206
f 205/1/197 206/2/198 222/25/206 220/26/203
f 202/2/195 201/21/191 216/23/194 218/19/201
f 232/27/207 217/28/208 227/29/209 231/30/210
f 238/31/211 239/32/212 216/4/194 226/3/193
f 234/33/213 229/34/214 221/35/215 233/36/216
f 240/37/217 241/38/218 228/19/204 220/22/203
f 235/39/219 223/40/220 215/41/221 230/42/222
f 242/43/223 243/44/224 222/25/206 213/24/202
f 236/45/225 225/46/226 229/34/214 234/33/213
f 241/38/218 244/47/227 224/4/205 228/19/204
f 237/48/228 219/49/229 217/28/208 232/27/207
f 239/50/212 245/51/230 218/19/201 216/23/194
f 230/42/222 215/41/221 219/49/229 237/48/228
f 245/51/230 242/52/223 213/20/202 218/19/201
f 233/36/216 221/35/215 223/40/220 235/39/219
f 243/44/224 240/53/217 220/26/203 222/25/206
f 231/30/210 227/29/209 225/46/226 236/45/225
f 244/54/227 238/31/211 226/3/193 224/23/205
f 214/55/42 231/30/210 236/45/225
f 214/55/42 233/36/216 235/39/219
f 214/55/42 230/42/222 237/48/228
f 214/55/42 237/48/228 232/27/207
f 214/55/42 236/45/225 234/33/213
f 214/55/42 235/39/219 230/42/222
f 214/55/42 234/33/213 233/36/216
f 214/55/42 232/27/207 231/30/210
f 225/56/231 227/57/232 238/31/211 244/54/227
f 223/58/233 221/59/234 240/53/217 243/44/224
f 219/60/235 215/61/236 242/52/223 245/51/230
f 217/56/237 219/60/235 245/51/230 239/50/212
f 229/62/238 225/63/231 244/47/227 241/38/218
f 215/64/236 223/58/233 243/44/224 242/43/223
f 221/65/234 229/62/238 241/38/218 240/37/217
f 227/57/232 217/66/237 239/32/212 238/31/211
