# Blender 5.0.1
# www.blender.org
mtllib ammo_pistol_loose_5pcs_mp_1.mtl
o ammo_pistol_loose_5pcs_mp_1
v -0.004883 0.000000 0.007488
v -0.011883 0.000000 0.000488
v -0.009833 0.000000 0.005438
v -0.011883 0.024000 0.000488
v -0.004883 0.024000 0.007488
v -0.009833 0.024000 0.005438
v -0.004883 0.000000 -0.006512
v -0.009833 0.000000 -0.004462
v -0.004883 0.024000 -0.006512
v -0.009833 0.024000 -0.004462
v 0.002117 0.000000 0.000488
v 0.000067 0.000000 0.005438
v 0.002117 0.024000 0.000488
v 0.000067 0.024000 0.005438
v 0.000067 0.000000 -0.004462
v 0.000067 0.024000 -0.004462
v -0.011883 0.028671 0.000488
v -0.004883 0.037000 0.000488
v -0.009876 0.034146 0.000488
v -0.004883 0.028671 0.007488
v -0.004883 0.034146 0.005482
v -0.009833 0.028671 0.005438
v -0.008414 0.034146 0.004019
v -0.004883 0.028671 -0.006512
v -0.004883 0.034146 -0.004505
v -0.009833 0.028671 -0.004462
v -0.008414 0.034146 -0.003043
v 0.002117 0.028671 0.000488
v 0.000111 0.034146 0.000488
v 0.000067 0.028671 0.005438
v -0.001352 0.034146 0.004019
v 0.000067 0.028671 -0.004462
v -0.001352 0.034146 -0.003043
v -0.007790 0.036015 0.000488
v -0.002827 0.036015 0.002544
v -0.004883 0.036015 0.003395
v -0.004883 0.036015 -0.002419
v -0.002827 0.036015 -0.001567
v -0.006938 0.036015 -0.001567
v -0.001976 0.036015 0.000488
v -0.006938 0.036015 0.002544
v -0.000218 0.031409 0.005153
v -0.004883 0.031409 0.007085
v -0.004883 0.031409 -0.006108
v -0.000218 0.031409 -0.004176
v -0.011479 0.031409 0.000488
v -0.009547 0.031409 -0.004176
v 0.001714 0.031409 0.000488
v -0.009547 0.031409 0.005153
v -0.025595 0.000000 -0.010782
v -0.022923 0.000000 -0.020314
v -0.026233 0.000000 -0.016102
v -0.022923 0.024000 -0.020314
v -0.025595 0.024000 -0.010782
v -0.026233 0.024000 -0.016102
v -0.013391 0.000000 -0.017643
v -0.017604 0.000000 -0.020953
v -0.013391 0.024000 -0.017643
v -0.017604 0.024000 -0.020953
v -0.016063 0.000000 -0.008111
v -0.021382 0.000000 -0.007472
v -0.016063 0.024000 -0.008111
v -0.021382 0.024000 -0.007472
v -0.012753 0.000000 -0.012323
v -0.012753 0.024000 -0.012323
v -0.022923 0.028671 -0.020314
v -0.019493 0.037000 -0.014213
v -0.021940 0.034146 -0.018565
v -0.025595 0.028671 -0.010782
v -0.023846 0.034146 -0.011766
v -0.026233 0.028671 -0.016102
v -0.024301 0.034146 -0.015560
v -0.013391 0.028671 -0.017643
v -0.015140 0.034146 -0.016660
v -0.017604 0.028671 -0.020953
v -0.018145 0.034146 -0.019021
v -0.016063 0.028671 -0.008111
v -0.017046 0.034146 -0.009860
v -0.021382 0.028671 -0.007472
v -0.020841 0.034146 -0.009404
v -0.012753 0.028671 -0.012323
v -0.014685 0.034146 -0.012865
v -0.020918 0.036015 -0.016746
v -0.020278 0.036015 -0.011414
v -0.022027 0.036015 -0.012788
v -0.016959 0.036015 -0.015637
v -0.016694 0.036015 -0.013428
v -0.018709 0.036015 -0.017012
v -0.018069 0.036015 -0.011679
v -0.022292 0.036015 -0.014997
v -0.021273 0.031409 -0.007861
v -0.025243 0.031409 -0.010980
v -0.013743 0.031409 -0.017445
v -0.013141 0.031409 -0.012432
v -0.022726 0.031409 -0.019963
v -0.017713 0.031409 -0.020564
v -0.016261 0.031409 -0.008462
v -0.025845 0.031409 -0.015993
v 0.015184 0.000000 -0.011103
v 0.005719 0.000000 -0.014004
v 0.009851 0.000000 -0.010593
v 0.005719 0.024000 -0.014004
v 0.015184 0.024000 -0.011103
v 0.009851 0.024000 -0.010593
v 0.008620 0.000000 -0.023469
v 0.005209 0.000000 -0.019337
v 0.008620 0.024000 -0.023469
v 0.005209 0.024000 -0.019337
v 0.018085 0.000000 -0.020568
v 0.018595 0.000000 -0.015235
v 0.018085 0.024000 -0.020568
v 0.018595 0.024000 -0.015235
v 0.013953 0.000000 -0.023979
v 0.013953 0.024000 -0.023979
v 0.005719 0.028671 -0.014004
v 0.011902 0.037000 -0.017286
v 0.007491 0.034146 -0.014945
v 0.015184 0.028671 -0.011103
v 0.014243 0.034146 -0.012876
v 0.009851 0.028671 -0.010593
v 0.010439 0.034146 -0.012512
v 0.008620 0.028671 -0.023469
v 0.009560 0.034146 -0.021697
v 0.005209 0.028671 -0.019337
v 0.007127 0.034146 -0.018749
v 0.018085 0.028671 -0.020568
v 0.016312 0.034146 -0.019628
v 0.018595 0.028671 -0.015235
v 0.016676 0.034146 -0.015823
v 0.013953 0.028671 -0.023979
v 0.013365 0.034146 -0.022061
v 0.009334 0.036015 -0.015923
v 0.014681 0.036015 -0.016434
v 0.013265 0.036015 -0.014719
v 0.010539 0.036015 -0.019854
v 0.012754 0.036015 -0.020065
v 0.009123 0.036015 -0.018138
v 0.014469 0.036015 -0.018649
v 0.011050 0.036015 -0.014507
v 0.018209 0.031409 -0.015353
v 0.014995 0.031409 -0.011460
v 0.008809 0.031409 -0.023112
v 0.013835 0.031409 -0.023593
v 0.006076 0.031409 -0.014193
v 0.005595 0.031409 -0.019219
v 0.017728 0.031409 -0.020379
v 0.009969 0.031409 -0.010979
v -0.024879 0.014000 0.011668
v -0.021799 0.007000 0.005382
v -0.022701 0.011950 0.007223
v -0.000248 0.007000 0.015944
v -0.003328 0.014000 0.022229
v -0.001150 0.011950 0.017785
v -0.024879 0.000000 0.011668
v -0.022701 0.002050 0.007223
v -0.003328 0.000000 0.022229
v -0.001150 0.002050 0.017785
v -0.027960 0.007000 0.017954
v -0.027058 0.011950 0.016112
v -0.006409 0.007000 0.028515
v -0.005507 0.011950 0.026674
v -0.027058 0.002050 0.016112
v -0.005507 0.002050 0.026674
v 0.003947 0.007000 0.017999
v 0.008345 0.007000 0.027950
v 0.007980 0.007000 0.022210
v 0.000866 0.014000 0.024285
v 0.005783 0.011994 0.026694
v 0.003044 0.011950 0.019840
v 0.007337 0.010531 0.023524
v 0.000866 0.000000 0.024285
v 0.005783 0.002006 0.026694
v 0.003044 0.002050 0.019840
v 0.007337 0.003469 0.023524
v -0.002214 0.007000 0.030571
v 0.003585 0.007000 0.031178
v -0.001312 0.011950 0.028730
v 0.004229 0.010531 0.029865
v -0.001312 0.002050 0.028730
v 0.004229 0.003469 0.029865
v 0.008740 0.007000 0.024907
v 0.006556 0.009055 0.029363
v 0.007461 0.009907 0.027517
v 0.007461 0.004093 0.027517
v 0.006556 0.004945 0.029363
v 0.008365 0.004945 0.025671
v 0.006182 0.007000 0.030127
v 0.008365 0.009055 0.025671
v 0.001272 0.011664 0.029678
v 0.003324 0.013596 0.025490
v 0.003324 0.000404 0.025490
v 0.001272 0.002336 0.029678
v 0.006227 0.007000 0.019566
v 0.005377 0.002336 0.021301
v 0.000422 0.007000 0.031413
v 0.005377 0.011664 0.021301
v 0.008698 0.014000 0.011668
v 0.003950 0.007000 0.006524
v 0.005340 0.011950 0.008031
v 0.021585 0.007000 -0.009754
v 0.026333 0.014000 -0.004611
v 0.022976 0.011950 -0.008248
v 0.008698 0.000000 0.011668
v 0.005340 0.002050 0.008031
v 0.026333 0.000000 -0.004611
v 0.022976 0.002050 -0.008248
v 0.013445 0.007000 0.016811
v 0.012055 0.011950 0.015305
v 0.031081 0.007000 0.000533
v 0.029690 0.011950 -0.000974
v 0.012055 0.002050 0.015305
v 0.029690 0.002050 -0.000974
v 0.025017 0.007000 -0.012923
v 0.035886 0.007000 -0.013428
v 0.030402 0.007000 -0.015162
v 0.029765 0.014000 -0.007779
v 0.033789 0.011994 -0.011493
v 0.026408 0.011950 -0.011416
v 0.031394 0.010531 -0.014087
v 0.029765 0.000000 -0.007779
v 0.033789 0.002006 -0.011493
v 0.026408 0.002050 -0.011416
v 0.031394 0.003469 -0.014087
v 0.034513 0.007000 -0.002635
v 0.037176 0.007000 -0.007823
v 0.033123 0.011950 -0.004142
v 0.036184 0.010531 -0.008898
v 0.033123 0.002050 -0.004142
v 0.036184 0.003469 -0.008898
v 0.033190 0.007000 -0.014896
v 0.036556 0.009055 -0.011250
v 0.035162 0.009907 -0.012760
v 0.035162 0.004093 -0.012760
v 0.036556 0.004945 -0.011250
v 0.033768 0.004945 -0.014270
v 0.037134 0.007000 -0.010624
v 0.033768 0.009055 -0.014270
v 0.034941 0.011664 -0.006208
v 0.031777 0.013596 -0.009636
v 0.031777 0.000404 -0.009636
v 0.034941 0.002336 -0.006208
v 0.027303 0.007000 -0.014483
v 0.028613 0.002336 -0.013063
v 0.036251 0.007000 -0.004789
v 0.028613 0.011664 -0.013063
vn -0.0000 -0.0000 1.0000
vn 0.7071 -0.0000 0.7071
vn 0.7053 0.0718 0.7053
vn -0.0000 0.0718 0.9974
vn -0.7071 -0.0000 0.7071
vn -1.0000 -0.0000 -0.0000
vn -0.0000 -0.0000 -1.0000
vn -0.7071 -0.0000 -0.7071
vn 1.0000 -0.0000 -0.0000
vn 0.7071 -0.0000 -0.7071
vn -0.0000 -1.0000 -0.0000
vn -0.7053 0.0718 0.7053
vn -0.9974 0.0718 -0.0000
vn -0.0000 0.0718 -0.9974
vn 0.7053 0.0718 -0.7053
vn 0.9974 0.0718 -0.0000
vn -0.7053 0.0718 -0.7053
vn -0.0000 0.8420 0.5396
vn -0.0000 0.6147 0.7888
vn 0.5577 0.6147 0.5577
vn 0.3815 0.8420 0.3815
vn 0.6704 0.3179 0.6704
vn -0.0000 0.3179 0.9481
vn 0.3815 0.8420 -0.3815
vn 0.5577 0.6147 -0.5577
vn -0.0000 0.6147 -0.7888
vn -0.0000 0.8420 -0.5396
vn -0.0000 0.3179 -0.9481
vn 0.6704 0.3179 -0.6704
vn -0.3815 0.8420 -0.3815
vn -0.5577 0.6147 -0.5577
vn -0.7888 0.6147 -0.0000
vn -0.5396 0.8420 -0.0000
vn -0.9481 0.3179 -0.0000
vn -0.6704 0.3179 -0.6704
vn 0.5396 0.8420 -0.0000
vn 0.7888 0.6147 -0.0000
vn 0.9481 0.3179 -0.0000
vn -0.3815 0.8420 0.3815
vn -0.5577 0.6147 0.5577
vn -0.6704 0.3179 0.6704
vn -0.0000 1.0000 -0.0000
vn -0.8717 -0.0000 0.4900
vn -0.2699 -0.0000 0.9629
vn -0.2692 0.0718 0.9604
vn -0.8694 0.0718 0.4888
vn -0.9629 -0.0000 -0.2699
vn -0.4900 -0.0000 -0.8717
vn 0.8717 -0.0000 -0.4900
vn 0.2699 -0.0000 -0.9629
vn 0.4900 -0.0000 0.8717
vn 0.9629 -0.0000 0.2699
vn -0.9604 0.0718 -0.2692
vn -0.4888 0.0718 -0.8694
vn 0.8694 0.0718 -0.4888
vn 0.9604 0.0718 0.2692
vn 0.4888 0.0718 0.8694
vn 0.2692 0.0718 -0.9604
vn -0.4703 0.8420 0.2644
vn -0.6876 0.6147 0.3865
vn -0.2129 0.6147 0.7595
vn -0.1456 0.8420 0.5195
vn -0.2559 0.3179 0.9129
vn -0.8265 0.3179 0.4646
vn 0.5195 0.8420 0.1456
vn 0.7595 0.6147 0.2129
vn 0.6876 0.6147 -0.3865
vn 0.4703 0.8420 -0.2644
vn 0.8265 0.3179 -0.4646
vn 0.9129 0.3179 0.2559
vn 0.1456 0.8420 -0.5195
vn 0.2129 0.6147 -0.7595
vn -0.3865 0.6147 -0.6876
vn -0.2644 0.8420 -0.4703
vn -0.4646 0.3179 -0.8265
vn 0.2559 0.3179 -0.9129
vn 0.2644 0.8420 0.4703
vn 0.3865 0.6147 0.6876
vn 0.4646 0.3179 0.8265
vn -0.5195 0.8420 -0.1456
vn -0.7595 0.6147 -0.2129
vn -0.9129 0.3179 -0.2559
vn 0.4689 -0.0000 0.8833
vn 0.9561 -0.0000 0.2930
vn 0.9536 0.0718 0.2922
vn 0.4677 0.0718 0.8810
vn -0.2930 -0.0000 0.9561
vn -0.8833 -0.0000 0.4689
vn -0.4689 -0.0000 -0.8833
vn -0.9561 -0.0000 -0.2930
vn 0.8833 -0.0000 -0.4689
vn 0.2930 -0.0000 -0.9561
vn -0.2922 0.0718 0.9536
vn -0.8810 0.0718 0.4677
vn -0.4677 0.0718 -0.8810
vn 0.2922 0.0718 -0.9536
vn 0.8810 0.0718 -0.4677
vn -0.9536 0.0718 -0.2922
vn 0.2530 0.8420 0.4766
vn 0.3699 0.6147 0.6967
vn 0.7542 0.6147 0.2311
vn 0.5159 0.8420 0.1581
vn 0.9065 0.3179 0.2778
vn 0.4446 0.3179 0.8374
vn 0.1581 0.8420 -0.5159
vn 0.2311 0.6147 -0.7542
vn -0.3699 0.6147 -0.6967
vn -0.2530 0.8420 -0.4766
vn -0.4446 0.3179 -0.8374
vn 0.2778 0.3179 -0.9065
vn -0.5159 0.8420 -0.1581
vn -0.7542 0.6147 -0.2311
vn -0.6967 0.6147 0.3699
vn -0.4766 0.8420 0.2530
vn -0.8374 0.3179 0.4446
vn -0.9065 0.3179 -0.2778
vn 0.4766 0.8420 -0.2530
vn 0.6967 0.6147 -0.3699
vn 0.8374 0.3179 -0.4446
vn -0.1581 0.8420 0.5159
vn -0.2311 0.6147 0.7542
vn -0.2778 0.3179 0.9065
vn -0.3112 0.7071 0.6350
vn -0.2459 0.7053 0.6649
vn 0.0645 0.9974 0.0316
vn 0.3112 0.7071 -0.6350
vn 0.4401 -0.0000 -0.8980
vn 0.3112 -0.7071 -0.6350
vn -0.4401 -0.0000 0.8980
vn -0.3112 -0.7071 0.6350
vn -0.8980 -0.0000 -0.4401
vn 0.3749 0.7053 -0.6017
vn 0.5034 -0.0000 -0.8640
vn 0.0645 -0.9974 0.0316
vn -0.2459 -0.7053 0.6649
vn -0.3744 -0.0000 0.9273
vn 0.3749 -0.7053 -0.6017
vn 0.7560 0.5396 0.3705
vn 0.5520 0.7888 0.2705
vn 0.3065 0.5577 0.7713
vn 0.5881 0.3815 0.7131
vn -0.0096 0.6704 0.7419
vn 0.2855 0.9481 0.1399
vn 0.5881 -0.3815 0.7131
vn 0.3065 -0.5577 0.7713
vn 0.5520 -0.7888 0.2705
vn 0.7560 -0.5396 0.3705
vn 0.2855 -0.9481 0.1399
vn -0.0096 -0.6704 0.7419
vn 0.9239 -0.3815 0.0279
vn 0.7974 -0.5577 -0.2303
vn 0.8991 -0.0000 -0.4378
vn 0.9935 -0.0000 -0.1140
vn 0.7027 -0.0000 -0.7115
vn 0.5805 -0.6704 -0.4621
vn 0.5186 -0.0000 0.8550
vn 0.2049 -0.0000 0.9788
vn -0.1318 -0.0000 0.9913
vn 0.9239 0.3815 0.0279
vn 0.7974 0.5577 -0.2303
vn 0.5805 0.6704 -0.4621
vn 0.8980 -0.0000 0.4401
vn 0.4796 0.7071 0.5196
vn 0.5312 0.7053 0.4695
vn 0.0528 0.9974 -0.0487
vn -0.4796 0.7071 -0.5196
vn -0.6783 -0.0000 -0.7348
vn -0.4796 -0.7071 -0.5196
vn 0.6783 -0.0000 0.7348
vn 0.4796 -0.7071 0.5196
vn -0.7348 -0.0000 0.6783
vn -0.4256 0.7053 -0.5670
vn -0.6237 -0.0000 -0.7816
vn 0.0528 -0.9974 -0.0487
vn 0.5312 -0.7053 0.4695
vn 0.7293 -0.0000 0.6842
vn -0.4256 -0.7053 -0.5670
vn 0.6187 0.5396 -0.5711
vn 0.4517 0.7888 -0.4169
vn 0.8300 0.5577 -0.0071
vn 0.8775 0.3815 -0.2907
vn 0.6883 0.6704 0.2770
vn 0.2336 0.9481 -0.2156
vn 0.8775 -0.3815 -0.2907
vn 0.8300 -0.5577 -0.0071
vn 0.4517 -0.7888 -0.4169
vn 0.6187 -0.5396 -0.5711
vn 0.2336 -0.9481 -0.2156
vn 0.6883 -0.6704 0.2770
vn 0.3599 -0.3815 -0.8514
vn 0.0734 -0.5577 -0.8268
vn -0.0833 -0.0000 -0.9965
vn 0.2527 -0.0000 -0.9675
vn -0.4095 -0.0000 -0.9123
vn -0.2211 -0.6704 -0.7083
vn 0.9846 -0.0000 -0.1746
vn 0.9867 -0.0000 0.1627
vn 0.8767 -0.0000 0.4811
vn 0.3599 0.3815 -0.8514
vn 0.0734 0.5577 -0.8268
vn -0.2211 0.6704 -0.7083
vn 0.7348 -0.0000 -0.6783
vt 0.009766 0.603516
vt 0.015625 0.603516
vt 0.015623 0.608368
vt 0.009753 0.608368
vt 0.009766 0.556641
vt 0.009766 0.582031
vt 0.015625 0.582031
vt 0.015625 0.556641
vt 0.021484 0.582031
vt 0.021484 0.556641
vt 0.023403 0.643920
vt 0.019010 0.648313
vt 0.012421 0.648313
vt 0.008027 0.643920
vt 0.008027 0.637330
vt 0.012421 0.632937
vt 0.019010 0.632937
vt 0.023403 0.637330
vt 0.015623 0.608368
vt 0.009753 0.608368
vt 0.021484 0.603516
vt 0.021492 0.608368
vt 0.021492 0.608368
vt 0.021492 0.608368
vt 0.015623 0.608368
vt 0.009753 0.608368
vt 0.017395 0.661916
vt 0.018905 0.658304
vt 0.023430 0.662847
vt 0.019804 0.664333
vt 0.015636 0.611246
vt 0.010050 0.611246
vt 0.017373 0.670153
vt 0.018862 0.673777
vt 0.012451 0.673750
vt 0.013960 0.670138
vt 0.021223 0.611246
vt 0.015636 0.611246
vt 0.011552 0.667720
vt 0.007926 0.669208
vt 0.007926 0.662789
vt 0.011551 0.664303
vt 0.021223 0.611246
vt 0.015636 0.611246
vt 0.019805 0.667751
vt 0.023430 0.669266
vt 0.010050 0.611246
vt 0.013983 0.661901
vt 0.012493 0.658277
vt 0.021223 0.611246
vt 0.015636 0.611246
vt 0.010050 0.611246
vt 0.010050 0.611246
vt 0.021223 0.611246
vt 0.015678 0.666027
vt 0.020442 0.614501
vt 0.016453 0.614501
vt 0.014851 0.614501
vt 0.010861 0.614501
vt 0.014850 0.614501
vt 0.010861 0.614501
vt 0.020442 0.614501
vt 0.016453 0.614501
vt 0.014850 0.614501
vt 0.010861 0.614501
vt 0.020443 0.614501
vt 0.016453 0.614501
vt 0.020442 0.614501
vt 0.016453 0.614501
vt 0.014850 0.614501
vt 0.010861 0.614501
s 1
usemtl ammo_mp_1
f 5/1/1 14/2/2 30/3/3 20/4/4
f 1/5/1 5/6/1 6/7/5 3/8/5
f 3/8/5 6/7/5 4/9/6 2/10/6
f 9/9/7 7/10/7 8/8/8 10/7/8
f 10/7/8 8/8/8 2/5/6 4/6/6
f 13/9/9 11/10/9 15/8/10 16/7/10
f 16/7/10 15/8/10 7/5/7 9/6/7
f 5/9/1 1/10/1 12/8/2 14/7/2
f 14/7/2 12/8/2 11/5/9 13/6/9
f 2/11/11 8/12/11 7/13/11 15/14/11 11/15/11 12/16/11 1/17/11 3/18/11
f 4/1/6 6/2/5 22/19/12 17/20/13
f 16/2/10 9/21/7 24/22/14 32/19/15
f 14/2/2 13/21/9 28/23/16 30/3/3
f 13/1/9 16/2/10 32/19/15 28/4/16
f 10/2/8 4/21/6 17/24/13 26/25/17
f 9/1/7 10/2/8 26/25/17 24/26/14
f 6/2/5 5/21/1 20/23/4 22/19/12
f 36/27/18 21/28/19 31/29/20 35/30/21
f 42/31/22 43/32/23 20/4/4 30/3/3
f 38/33/24 33/34/25 25/35/26 37/36/27
f 44/37/28 45/38/29 32/19/15 24/22/14
f 39/39/30 27/40/31 19/41/32 34/42/33
f 46/43/34 47/44/35 26/25/17 17/24/13
f 40/45/36 29/46/37 33/34/25 38/33/24
f 45/38/29 48/47/38 28/4/16 32/19/15
f 41/48/39 23/49/40 21/28/19 36/27/18
f 43/50/23 49/51/41 22/19/12 20/23/4
f 34/42/33 19/41/32 23/49/40 41/48/39
f 49/51/41 46/52/34 17/20/13 22/19/12
f 37/36/27 25/35/26 27/40/31 39/39/30
f 47/44/35 44/53/28 24/26/14 26/25/17
f 35/30/21 31/29/20 29/46/37 40/45/36
f 48/54/38 42/31/22 30/3/3 28/23/16
f 18/55/42 35/30/21 40/45/36
f 18/55/42 37/36/27 39/39/30
f 18/55/42 34/42/33 41/48/39
f 18/55/42 41/48/39 36/27/18
f 18/55/42 40/45/36 38/33/24
f 18/55/42 39/39/30 34/42/33
f 18/55/42 38/33/24 37/36/27
f 18/55/42 36/27/18 35/30/21
f 29/56/37 31/57/20 42/31/22 48/54/38
f 27/58/31 25/59/26 44/53/28 47/44/35
f 23/60/40 19/61/32 46/52/34 49/51/41
f 21/62/19 23/63/40 49/51/41 43/50/23
f 33/64/25 29/65/37 48/47/38 45/38/29
f 19/66/32 27/67/31 47/44/35 46/43/34
f 25/68/26 33/69/25 45/38/29 44/37/28
f 31/70/20 21/71/19 43/32/23 42/31/22
f 54/1/43 63/2/44 79/3/45 69/4/46
f 50/5/43 54/6/43 55/7/47 52/8/47
f 52/8/47 55/7/47 53/9/48 51/10/48
f 58/9/49 56/10/49 57/8/50 59/7/50
f 59/7/50 57/8/50 51/5/48 53/6/48
f 62/9/51 60/10/51 64/8/52 65/7/52
f 65/7/52 64/8/52 56/5/49 58/6/49
f 54/9/43 50/10/43 61/8/44 63/7/44
f 63/7/44 61/8/44 60/5/51 62/6/51
f 51/11/11 57/12/11 56/13/11 64/14/11 60/15/11 61/16/11 50/17/11 52/18/11
f 53/1/48 55/2/47 71/19/53 66/20/54
f 65/2/52 58/21/49 73/22/55 81/19/56
f 63/2/44 62/21/51 77/23/57 79/3/45
f 62/1/51 65/2/52 81/19/56 77/4/57
f 59/2/50 53/21/48 66/24/54 75/25/58
f 58/1/49 59/2/50 75/25/58 73/26/55
f 55/2/47 54/21/43 69/23/46 71/19/53
f 85/27/59 70/28/60 80/29/61 84/30/62
f 91/31/63 92/32/64 69/4/46 79/3/45
f 87/33/65 82/34/66 74/35/67 86/36/68
f 93/37/69 94/38/70 81/19/56 73/22/55
f 88/39/71 76/40/72 68/41/73 83/42/74
f 95/43/75 96/44/76 75/25/58 66/24/54
f 89/45/77 78/46/78 82/34/66 87/33/65
f 94/38/70 97/47/79 77/4/57 81/19/56
f 90/48/80 72/49/81 70/28/60 85/27/59
f 92/50/64 98/51/82 71/19/53 69/23/46
f 83/42/74 68/41/73 72/49/81 90/48/80
f 98/51/82 95/52/75 66/20/54 71/19/53
f 86/36/68 74/35/67 76/40/72 88/39/71
f 96/44/76 93/53/69 73/26/55 75/25/58
f 84/30/62 80/29/61 78/46/78 89/45/77
f 97/54/79 91/31/63 79/3/45 77/23/57
f 67/55/42 84/30/62 89/45/77
f 67/55/42 86/36/68 88/39/71
f 67/55/42 83/42/74 90/48/80
f 67/55/42 90/48/80 85/27/59
f 67/55/42 89/45/77 87/33/65
f 67/55/42 88/39/71 83/42/74
f 67/55/42 87/33/65 86/36/68
f 67/55/42 85/27/59 84/30/62
f 78/56/78 80/57/61 91/31/63 97/54/79
f 76/58/72 74/59/67 93/53/69 96/44/76
f 72/60/81 68/61/73 95/52/75 98/51/82
f 70/62/60 72/63/81 98/51/82 92/50/64
f 82/64/66 78/65/78 97/47/79 94/38/70
f 68/66/73 76/67/72 96/44/76 95/43/75
f 74/68/67 82/69/66 94/38/70 93/37/69
f 80/70/61 70/71/60 92/32/64 91/31/63
f 103/1/83 112/2/84 128/3/85 118/4/86
f 99/5/83 103/6/83 104/7/87 101/8/87
f 101/8/87 104/7/87 102/9/88 100/10/88
f 107/9/89 105/10/89 106/8/90 108/7/90
f 108/7/90 106/8/90 100/5/88 102/6/88
f 111/9/91 109/10/91 113/8/92 114/7/92
f 114/7/92 113/8/92 105/5/89 107/6/89
f 103/9/83 99/10/83 110/8/84 112/7/84
f 112/7/84 110/8/84 109/5/91 111/6/91
f 100/11/11 106/12/11 105/13/11 113/14/11 109/15/11 110/16/11 99/17/11 101/18/11
f 102/1/88 104/2/87 120/19/93 115/20/94
f 114/2/92 107/21/89 122/22/95 130/19/96
f 112/2/84 111/21/91 126/23/97 128/3/85
f 111/1/91 114/2/92 130/19/96 126/4/97
f 108/2/90 102/21/88 115/24/94 124/25/98
f 107/1/89 108/2/90 124/25/98 122/26/95
f 104/2/87 103/21/83 118/23/86 120/19/93
f 134/27/99 119/28/100 129/29/101 133/30/102
f 140/31/103 141/32/104 118/4/86 128/3/85
f 136/33/105 131/34/106 123/35/107 135/36/108
f 142/37/109 143/38/110 130/19/96 122/22/95
f 137/39/111 125/40/112 117/41/113 132/42/114
f 144/43/115 145/44/116 124/25/98 115/24/94
f 138/45/117 127/46/118 131/34/106 136/33/105
f 143/38/110 146/47/119 126/4/97 130/19/96
f 139/48/120 121/49/121 119/28/100 134/27/99
f 141/50/104 147/51/122 120/19/93 118/23/86
f 132/42/114 117/41/113 121/49/121 139/48/120
f 147/51/122 144/52/115 115/20/94 120/19/93
f 135/36/108 123/35/107 125/40/112 137/39/111
f 145/44/116 142/53/109 122/26/95 124/25/98
f 133/30/102 129/29/101 127/46/118 138/45/117
f 146/54/119 140/31/103 128/3/85 126/23/97
f 116/55/42 133/30/102 138/45/117
f 116/55/42 135/36/108 137/39/111
f 116/55/42 132/42/114 139/48/120
f 116/55/42 139/48/120 134/27/99
f 116/55/42 138/45/117 136/33/105
f 116/55/42 137/39/111 132/42/114
f 116/55/42 136/33/105 135/36/108
f 116/55/42 134/27/99 133/30/102
f 127/56/118 129/57/101 140/31/103 146/54/119
f 125/58/112 123/59/107 142/53/109 145/44/116
f 121/60/121 117/61/113 144/52/115 147/51/122
f 119/62/100 121/63/121 147/51/122 141/50/104
f 131/64/106 127/65/118 146/47/119 143/38/110
f 117/66/113 125/67/112 145/44/116 144/43/115
f 123/68/107 131/69/106 143/38/110 142/37/109
f 129/70/101 119/71/100 141/32/104 140/31/103
f 152/1/42 161/2/123 177/3/124 167/4/125
f 148/5/42 152/6/42 153/7/126 150/8/126
f 150/8/126 153/7/126 151/9/127 149/10/127
f 156/9/11 154/10/11 155/8/128 157/7/128
f 157/7/128 155/8/128 149/5/127 151/6/127
f 160/9/129 158/10/129 162/8/130 163/7/130
f 163/7/130 162/8/130 154/5/11 156/6/11
f 152/9/42 148/10/42 159/8/123 161/7/123
f 161/7/123 159/8/123 158/5/129 160/6/129
f 149/11/131 155/12/131 154/13/131 162/14/131 158/15/131 159/16/131 148/17/131 150/18/131
f 151/1/127 153/2/126 169/19/132 164/20/133
f 163/2/130 156/21/11 171/22/134 179/19/135
f 161/2/123 160/21/129 175/23/136 177/3/124
f 160/1/129 163/2/130 179/19/135 175/4/136
f 157/2/128 151/21/127 164/24/133 173/25/137
f 156/1/11 157/2/128 173/25/137 171/26/134
f 153/2/126 152/21/42 167/23/125 169/19/132
f 183/27/138 168/28/139 178/29/140 182/30/141
f 189/31/142 190/32/143 167/4/125 177/3/124
f 185/33/144 180/34/145 172/35/146 184/36/147
f 191/37/148 192/38/149 179/19/135 171/22/134
f 186/39/150 174/40/151 166/41/152 181/42/153
f 193/43/154 194/44/155 173/25/137 164/24/133
f 187/45/156 176/46/157 180/34/145 185/33/144
f 192/38/149 195/47/158 175/4/136 179/19/135
f 188/48/159 170/49/160 168/28/139 183/27/138
f 190/50/143 196/51/161 169/19/132 167/23/125
f 181/42/153 166/41/152 170/49/160 188/48/159
f 196/51/161 193/52/154 164/20/133 169/19/132
f 184/36/147 172/35/146 174/40/151 186/39/150
f 194/44/155 191/53/148 171/26/134 173/25/137
f 182/30/141 178/29/140 176/46/157 187/45/156
f 195/54/158 189/31/142 177/3/124 175/23/136
f 165/55/162 182/30/141 187/45/156
f 165/55/162 184/36/147 186/39/150
f 165/55/162 181/42/153 188/48/159
f 165/55/162 188/48/159 183/27/138
f 165/55/162 187/45/156 185/33/144
f 165/55/162 186/39/150 181/42/153
f 165/55/162 185/33/144 184/36/147
f 165/55/162 183/27/138 182/30/141
f 176/56/157 178/57/140 189/31/142 195/54/158
f 174/58/151 172/59/146 191/53/148 194/44/155
f 170/60/160 166/61/152 193/52/154 196/51/161
f 168/62/139 170/63/160 196/51/161 190/50/143
f 180/64/145 176/65/157 195/47/158 192/38/149
f 166/66/152 174/67/151 194/44/155 193/43/154
f 172/68/146 180/69/145 192/38/149 191/37/148
f 178/70/140 168/71/139 190/32/143 189/31/142
f 201/1/42 210/2/163 226/3/164 216/4/165
f 197/5/42 201/6/42 202/7/166 199/8/166
f 199/8/166 202/7/166 200/9/167 198/10/167
f 205/9/11 203/10/11 204/8/168 206/7/168
f 206/7/168 204/8/168 198/5/167 200/6/167
f 209/9/169 207/10/169 211/8/170 212/7/170
f 212/7/170 211/8/170 203/5/11 205/6/11
f 201/9/42 197/10/42 208/8/163 210/7/163
f 210/7/163 208/8/163 207/5/169 209/6/169
f 198/11/171 204/12/171 203/13/171 211/14/171 207/15/171 208/16/171 197/17/171 199/18/171
f 200/1/167 202/2/166 218/19/172 213/20/173
f 212/2/170 205/21/11 220/22/174 228/19/175
f 210/2/163 209/21/169 224/23/176 226/3/164
f 209/1/169 212/2/170 228/19/175 224/4/176
f 206/2/168 200/21/167 213/24/173 222/25/177
f 205/1/11 206/2/168 222/25/177 220/26/174
f 202/2/166 201/21/42 216/23/165 218/19/172
f 232/27/178 217/28/179 227/29/180 231/30/181
f 238/31/182 239/32/183 216/4/165 226/3/164
f 234/33/184 229/34/185 221/35/186 233/36/187
f 240/37/188 241/38/189 228/19/175 220/22/174
f 235/39/190 223/40/191 215/41/192 230/42/193
f 242/43/194 243/44/195 222/25/177 213/24/173
f 236/45/196 225/46/197 229/34/185 234/33/184
f 241/38/189 244/47/198 224/4/176 228/19/175
f 237/48/199 219/49/200 217/28/179 232/27/178
f 239/50/183 245/51/201 218/19/172 216/23/165
f 230/42/193 215/41/192 219/49/200 237/48/199
f 245/51/201 242/52/194 213/20/173 218/19/172
f 233/36/187 221/35/186 223/40/191 235/39/190
f 243/44/195 240/53/188 220/26/174 222/25/177
f 231/30/181 227/29/180 225/46/197 236/45/196
f 244/54/198 238/31/182 226/3/164 224/23/176
f 214/55/202 231/30/181 236/45/196
f 214/55/202 233/36/187 235/39/190
f 214/55/202 230/42/193 237/48/199
f 214/55/202 237/48/199 232/27/178
f 214/55/202 236/45/196 234/33/184
f 214/55/202 235/39/190 230/42/193
f 214/55/202 234/33/184 233/36/187
f 214/55/202 232/27/178 231/30/181
f 225/56/197 227/57/180 238/31/182 244/54/198
f 223/58/191 221/59/186 240/53/188 243/44/195
f 219/60/200 215/61/192 242/52/194 245/51/201
f 217/62/179 219/63/200 245/51/201 239/50/183
f 229/64/185 225/65/197 244/47/198 241/38/189
f 215/66/192 223/67/191 243/44/195 242/43/194
f 221/68/186 229/69/185 241/38/189 240/37/188
f 227/70/180 217/71/179 239/32/183 238/31/182
