# Blender 5.0.1
# www.blender.org
mtllib ammo_pistol_loose_1pc_mp_2.mtl
o ammo_pistol_loose_1pc_mp_2
v -0.000000 0.000000 0.006300
v -0.006300 0.000000 0.000000
v -0.004455 0.000000 0.004455
v -0.006300 0.021600 0.000000
v -0.000000 0.021600 0.006300
v -0.004455 0.021600 0.004455
v -0.000000 0.000000 -0.006300
v -0.004455 0.000000 -0.004455
v -0.000000 0.021600 -0.006300
v -0.004455 0.021600 -0.004455
v 0.006300 0.000000 0.000000
v 0.004455 0.000000 0.004455
v 0.006300 0.021600 0.000000
v 0.004455 0.021600 0.004455
v 0.004455 0.000000 -0.004455
v 0.004455 0.021600 -0.004455
v -0.006300 0.025804 0.000000
v 0.000000 0.029717 -0.000000
v -0.004494 0.032732 0.000000
v -0.000000 0.025804 0.006300
v -0.000000 0.032732 0.004494
v -0.004455 0.025804 0.004455
v -0.003178 0.032732 0.003178
v -0.000000 0.025804 -0.006300
v -0.000000 0.032732 -0.004494
v -0.004455 0.025804 -0.004455
v -0.003178 0.032732 -0.003178
v 0.006300 0.025804 0.000000
v 0.004494 0.032732 0.000000
v 0.004455 0.025804 0.004455
v 0.003178 0.032732 0.003178
v 0.004455 0.025804 -0.004455
v 0.003178 0.032732 -0.003178
v -0.002616 0.031230 0.000000
v 0.001850 0.031230 0.001850
v -0.000000 0.031230 0.002616
v -0.000000 0.031230 -0.002616
v 0.001850 0.031230 -0.001850
v -0.001850 0.031230 -0.001850
v 0.002616 0.031230 0.000000
v -0.001850 0.031230 0.001850
v 0.004198 0.030268 0.004198
v -0.000000 0.030268 0.005937
v -0.000000 0.030268 -0.005937
v 0.004198 0.030268 -0.004198
v -0.005937 0.030268 0.000000
v -0.004198 0.030268 -0.004198
v 0.005937 0.030268 0.000000
v -0.004198 0.030268 0.004198
vn -0.0000 -0.0000 1.0000
vn 0.7071 -0.0000 0.7071
vn 0.7065 0.0402 0.7065
vn -0.0000 0.0402 0.9992
vn -0.7071 -0.0000 0.7071
vn -1.0000 -0.0000 -0.0000
vn -0.0000 -0.0000 -1.0000
vn -0.7071 -0.0000 -0.7071
vn 1.0000 -0.0000 -0.0000
vn 0.7071 -0.0000 -0.7071
vn -0.0000 -1.0000 -0.0000
vn -0.7065 0.0402 0.7065
vn -0.9992 0.0402 -0.0000
vn -0.0000 0.0402 -0.9992
vn 0.7065 0.0402 -0.7065
vn 0.9992 0.0402 -0.0000
vn -0.7065 0.0402 -0.7065
vn -0.0000 0.8170 -0.5766
vn -0.0000 0.7809 -0.6246
vn -0.4417 0.7809 -0.4417
vn -0.4077 0.8170 -0.4077
vn 0.6775 0.2862 0.6775
vn -0.0000 0.2862 0.9582
vn -0.4077 0.8170 0.4077
vn -0.4417 0.7809 0.4417
vn -0.0000 0.7809 0.6246
vn -0.0000 0.8170 0.5766
vn -0.0000 0.2862 -0.9582
vn 0.6775 0.2862 -0.6775
vn 0.4077 0.8170 0.4077
vn 0.4417 0.7809 0.4417
vn 0.6246 0.7809 -0.0000
vn 0.5766 0.8170 -0.0000
vn -0.9582 0.2862 -0.0000
vn -0.6775 0.2862 -0.6775
vn -0.5766 0.8170 -0.0000
vn -0.6246 0.7809 -0.0000
vn 0.9582 0.2862 -0.0000
vn 0.4077 0.8170 -0.4077
vn 0.4417 0.7809 -0.4417
vn -0.6775 0.2862 0.6775
vn -0.0000 1.0000 -0.0000
vn 0.8630 0.5053 -0.0000
vn 0.6102 0.5053 0.6102
vn -0.6102 0.5053 -0.6102
vn -0.0000 0.5053 -0.8630
vn -0.6102 0.5053 0.6102
vn -0.8630 0.5053 -0.0000
vn -0.0000 0.5053 0.8630
vn 0.6102 0.5053 -0.6102
vt 0.035233 0.580078
vt 0.041093 0.580078
vt 0.041090 0.584931
vt 0.035220 0.584931
vt 0.035233 0.556641
vt 0.035233 0.582031
vt 0.041093 0.582031
vt 0.041093 0.556641
vt 0.046952 0.582031
vt 0.046952 0.556641
vt 0.048760 0.643988
vt 0.044348 0.648400
vt 0.037730 0.648400
vt 0.033317 0.643988
vt 0.033317 0.637370
vt 0.037730 0.632957
vt 0.044348 0.632957
vt 0.048760 0.637370
vt 0.041090 0.584931
vt 0.035220 0.584931
vt 0.046952 0.580078
vt 0.046960 0.584931
vt 0.046960 0.584931
vt 0.046960 0.584931
vt 0.041090 0.584931
vt 0.035220 0.584931
vt 0.043018 0.661337
vt 0.044306 0.658252
vt 0.048858 0.662822
vt 0.045762 0.664092
vt 0.041114 0.589988
vt 0.035627 0.589988
vt 0.042993 0.670718
vt 0.044265 0.673814
vt 0.037816 0.673787
vt 0.039105 0.670702
vt 0.046601 0.589988
vt 0.041114 0.589987
vt 0.036361 0.667948
vt 0.033265 0.669218
vt 0.033267 0.662763
vt 0.036362 0.664057
vt 0.046601 0.589988
vt 0.041114 0.589987
vt 0.045760 0.667983
vt 0.048856 0.669277
vt 0.035627 0.589988
vt 0.039129 0.661321
vt 0.037857 0.658226
vt 0.046601 0.589988
vt 0.041114 0.589988
vt 0.035627 0.589988
vt 0.035627 0.589988
vt 0.046601 0.589987
vt 0.041061 0.666019
vt 0.045933 0.593107
vt 0.041129 0.593107
vt 0.041129 0.593107
vt 0.036326 0.593107
vt 0.041129 0.593107
vt 0.036326 0.593107
vt 0.041129 0.593107
vt 0.036326 0.593107
vt 0.045933 0.593107
vt 0.045933 0.593107
vt 0.036326 0.593107
s 1
usemtl ammo_mp_1
f 5/1/1 14/2/2 30/3/3 20/4/4
f 1/5/1 5/6/1 6/7/5 3/8/5
f 3/8/5 6/7/5 4/9/6 2/10/6
f 9/9/7 7/10/7 8/8/8 10/7/8
f 10/7/8 8/8/8 2/5/6 4/6/6
f 13/9/9 11/10/9 15/8/10 16/7/10
f 16/7/10 15/8/10 7/5/7 9/6/7
f 5/9/1 1/10/1 12/8/2 14/7/2
f 14/7/2 12/8/2 11/5/9 13/6/9
f 2/11/11 8/12/11 7/13/11 15/14/11 11/15/11 12/16/11 1/17/11 3/18/11
f 4/1/6 6/2/5 22/19/12 17/20/13
f 16/2/10 9/21/7 24/22/14 32/19/15
f 14/2/2 13/21/9 28/23/16 30/3/3
f 13/1/9 16/2/10 32/19/15 28/4/16
f 10/2/8 4/21/6 17/24/13 26/25/17
f 9/1/7 10/2/8 26/25/17 24/26/14
f 6/2/5 5/21/1 20/23/4 22/19/12
f 36/27/18 21/28/19 31/29/20 35/30/21
f 42/31/22 43/32/23 20/4/4 30/3/3
f 38/33/24 33/34/25 25/35/26 37/36/27
f 44/37/28 45/38/29 32/19/15 24/22/14
f 39/39/30 27/40/31 19/41/32 34/42/33
f 46/43/34 47/44/35 26/25/17 17/24/13
f 40/45/36 29/46/37 33/34/25 38/33/24
f 45/38/29 48/47/38 28/4/16 32/19/15
f 41/48/39 23/49/40 21/28/19 36/27/18
f 43/50/23 49/51/41 22/19/12 20/23/4
f 34/42/33 19/41/32 23/49/40 41/48/39
f 49/51/41 46/52/34 17/20/13 22/19/12
f 37/36/27 25/35/26 27/40/31 39/39/30
f 47/44/35 44/53/28 24/26/14 26/25/17
f 35/30/21 31/29/20 29/46/37 40/45/36
f 48/54/38 42/31/22 30/3/3 28/23/16
f 18/55/42 35/30/21 40/45/36
f 18/55/42 37/36/27 39/39/30
f 18/55/42 34/42/33 41/48/39
f 18/55/42 41/48/39 36/27/18
f 18/55/42 40/45/36 38/33/24
f 18/55/42 39/39/30 34/42/33
f 18/55/42 38/33/24 37/36/27
f 18/55/42 36/27/18 35/30/21
f 29/56/43 31/57/44 42/31/22 48/54/38
f 27/58/45 25/59/46 44/53/28 47/44/35
f 23/60/47 19/61/48 46/52/34 49/51/41
f 21/56/49 23/60/47 49/51/41 43/50/23
f 33/62/50 29/63/43 48/47/38 45/38/29
f 19/64/48 27/58/45 47/44/35 46/43/34
f 25/65/46 33/62/50 45/38/29 44/37/28
f 31/57/44 21/66/49 43/32/23 42/31/22
