# Blender 5.0.1
# www.blender.org
mtllib ammo_pistol_loose_1pc_mp_1.mtl
o ammo_pistol_loose_1pc_mp_1
v -0.000000 0.000000 0.007000
v -0.007000 0.000000 0.000000
v -0.004950 0.000000 0.004950
v -0.007000 0.024000 0.000000
v -0.000000 0.024000 0.007000
v -0.004950 0.024000 0.004950
v -0.000000 0.000000 -0.007000
v -0.004950 0.000000 -0.004950
v -0.000000 0.024000 -0.007000
v -0.004950 0.024000 -0.004950
v 0.007000 0.000000 0.000000
v 0.004950 0.000000 0.004950
v 0.007000 0.024000 0.000000
v 0.004950 0.024000 0.004950
v 0.004950 0.000000 -0.004950
v 0.004950 0.024000 -0.004950
v -0.007000 0.028671 0.000000
v 0.000000 0.037000 -0.000000
v -0.004994 0.034146 0.000000
v -0.000000 0.028671 0.007000
v -0.000000 0.034146 0.004994
v -0.004950 0.028671 0.004950
v -0.003531 0.034146 0.003531
v -0.000000 0.028671 -0.007000
v -0.000000 0.034146 -0.004994
v -0.004950 0.028671 -0.004950
v -0.003531 0.034146 -0.003531
v 0.007000 0.028671 0.000000
v 0.004994 0.034146 0.000000
v 0.004950 0.028671 0.004950
v 0.003531 0.034146 0.003531
v 0.004950 0.028671 -0.004950
v 0.003531 0.034146 -0.003531
v -0.002907 0.036015 0.000000
v 0.002055 0.036015 0.002055
v -0.000000 0.036015 0.002907
v -0.000000 0.036015 -0.002907
v 0.002055 0.036015 -0.002055
v -0.002055 0.036015 -0.002055
v 0.002907 0.036015 0.000000
v -0.002055 0.036015 0.002055
v 0.004664 0.031409 0.004664
v -0.000000 0.031409 0.006596
v -0.000000 0.031409 -0.006596
v 0.004664 0.031409 -0.004664
v -0.006596 0.031409 0.000000
v -0.004664 0.031409 -0.004664
v 0.006596 0.031409 0.000000
v -0.004664 0.031409 0.004664
vn -0.0000 -0.0000 1.0000
vn 0.7071 -0.0000 0.7071
vn 0.7053 0.0718 0.7053
vn -0.0000 0.0718 0.9974
vn -0.7071 -0.0000 0.7071
vn -1.0000 -0.0000 -0.0000
vn -0.0000 -0.0000 -1.0000
vn -0.7071 -0.0000 -0.7071
vn 1.0000 -0.0000 -0.0000
vn 0.7071 -0.0000 -0.7071
vn -0.0000 -1.0000 -0.0000
vn -0.7053 0.0718 0.7053
vn -0.9974 0.0718 -0.0000
vn -0.0000 0.0718 -0.9974
vn 0.7053 0.0718 -0.7053
vn 0.9974 0.0718 -0.0000
vn -0.7053 0.0718 -0.7053
vn -0.0000 0.8420 0.5396
vn -0.0000 0.6147 0.7888
vn 0.5577 0.6147 0.5577
vn 0.3815 0.8420 0.3815
vn 0.6704 0.3179 0.6704
vn -0.0000 0.3179 0.9481
vn 0.3815 0.8420 -0.3815
vn 0.5577 0.6147 -0.5577
vn -0.0000 0.6147 -0.7888
vn -0.0000 0.8420 -0.5396
vn -0.0000 0.3179 -0.9481
vn 0.6704 0.3179 -0.6704
vn -0.3815 0.8420 -0.3815
vn -0.5577 0.6147 -0.5577
vn -0.7888 0.6147 -0.0000
vn -0.5396 0.8420 -0.0000
vn -0.9481 0.3179 -0.0000
vn -0.6704 0.3179 -0.6704
vn 0.5396 0.8420 -0.0000
vn 0.7888 0.6147 -0.0000
vn 0.9481 0.3179 -0.0000
vn -0.3815 0.8420 0.3815
vn -0.5577 0.6147 0.5577
vn -0.6704 0.3179 0.6704
vn -0.0000 1.0000 -0.0000
vt 0.009766 0.603516
vt 0.015625 0.603516
vt 0.015623 0.608368
vt 0.009753 0.608368
vt 0.009766 0.556641
vt 0.009766 0.582031
vt 0.015625 0.582031
vt 0.015625 0.556641
vt 0.021484 0.582031
vt 0.021484 0.556641
vt 0.023403 0.643920
vt 0.019010 0.648313
vt 0.012421 0.648313
vt 0.008027 0.643920
vt 0.008027 0.637330
vt 0.012421 0.632937
vt 0.019010 0.632937
vt 0.023403 0.637330
vt 0.015623 0.608368
vt 0.009753 0.608368
vt 0.021484 0.603516
vt 0.021492 0.608368
vt 0.021492 0.608368
vt 0.021492 0.608368
vt 0.015623 0.608368
vt 0.009753 0.608368
vt 0.017395 0.661916
vt 0.018905 0.658304
vt 0.023430 0.662847
vt 0.019804 0.664333
vt 0.015636 0.611246
vt 0.010050 0.611246
vt 0.017373 0.670153
vt 0.018862 0.673777
vt 0.012451 0.673750
vt 0.013960 0.670138
vt 0.021223 0.611246
vt 0.015636 0.611246
vt 0.011552 0.667720
vt 0.007926 0.669208
vt 0.007926 0.662789
vt 0.011551 0.664303
vt 0.021223 0.611246
vt 0.015636 0.611246
vt 0.019805 0.667751
vt 0.023430 0.669266
vt 0.010050 0.611246
vt 0.013983 0.661901
vt 0.012493 0.658277
vt 0.021223 0.611246
vt 0.015636 0.611246
vt 0.010050 0.611246
vt 0.010050 0.611246
vt 0.021223 0.611246
vt 0.015678 0.666027
vt 0.020442 0.614501
vt 0.016453 0.614501
vt 0.014851 0.614501
vt 0.010861 0.614501
vt 0.014850 0.614501
vt 0.010861 0.614501
vt 0.020442 0.614501
vt 0.016453 0.614501
vt 0.014850 0.614501
vt 0.010861 0.614501
vt 0.020443 0.614501
vt 0.016453 0.614501
vt 0.020442 0.614501
vt 0.016453 0.614501
vt 0.014850 0.614501
vt 0.010861 0.614501
s 1
usemtl ammo_mp_1
f 5/1/1 14/2/2 30/3/3 20/4/4
f 1/5/1 5/6/1 6/7/5 3/8/5
f 3/8/5 6/7/5 4/9/6 2/10/6
f 9/9/7 7/10/7 8/8/8 10/7/8
f 10/7/8 8/8/8 2/5/6 4/6/6
f 13/9/9 11/10/9 15/8/10 16/7/10
f 16/7/10 15/8/10 7/5/7 9/6/7
f 5/9/1 1/10/1 12/8/2 14/7/2
f 14/7/2 12/8/2 11/5/9 13/6/9
f 2/11/11 8/12/11 7/13/11 15/14/11 11/15/11 12/16/11 1/17/11 3/18/11
f 4/1/6 6/2/5 22/19/12 17/20/13
f 16/2/10 9/21/7 24/22/14 32/19/15
f 14/2/2 13/21/9 28/23/16 30/3/3
f 13/1/9 16/2/10 32/19/15 28/4/16
f 10/2/8 4/21/6 17/24/13 26/25/17
f 9/1/7 10/2/8 26/25/17 24/26/14
f 6/2/5 5/21/1 20/23/4 22/19/12
f 36/27/18 21/28/19 31/29/20 35/30/21
f 42/31/22 43/32/23 20/4/4 30/3/3
f 38/33/24 33/34/25 25/35/26 37/36/27
f 44/37/28 45/38/29 32/19/15 24/22/14
f 39/39/30 27/40/31 19/41/32 34/42/33
f 46/43/34 47/44/35 26/25/17 17/24/13
f 40/45/36 29/46/37 33/34/25 38/33/24
f 45/38/29 48/47/38 28/4/16 32/19/15
f 41/48/39 23/49/40 21/28/19 36/27/18
f 43/50/23 49/51/41 22/19/12 20/23/4
f 34/42/33 19/41/32 23/49/40 41/48/39
f 49/51/41 46/52/34 17/20/13 22/19/12
f 37/36/27 25/35/26 27/40/31 39/39/30
f 47/44/35 44/53/28 24/26/14 26/25/17
f 35/30/21 31/29/20 29/46/37 40/45/36
f 48/54/38 42/31/22 30/3/3 28/23/16
f 18/55/42 35/30/21 40/45/36
f 18/55/42 37/36/27 39/39/30
f 18/55/42 34/42/33 41/48/39
f 18/55/42 41/48/39 36/27/18
f 18/55/42 40/45/36 38/33/24
f 18/55/42 39/39/30 34/42/33
f 18/55/42 38/33/24 37/36/27
f 18/55/42 36/27/18 35/30/21
f 29/56/37 31/57/20 42/31/22 48/54/38
f 27/58/31 25/59/26 44/53/28 47/44/35
f 23/60/40 19/61/32 46/52/34 49/51/41
f 21/62/19 23/63/40 49/51/41 43/50/23
f 33/64/25 29/65/37 48/47/38 45/38/29
f 19/66/32 27/67/31 47/44/35 46/43/34
f 25/68/26 33/69/25 45/38/29 44/37/28
f 31/70/20 21/71/19 43/32/23 42/31/22
