# Blender 5.0.1
# www.blender.org
mtllib ammo_box_1.mtl
o ammo_box_1
v -0.030800 -0.000000 0.057596
v -0.030800 0.057904 0.057596
v -0.030800 -0.000000 -0.057596
v -0.030800 0.057904 -0.057596
v 0.030800 -0.000000 0.057596
v 0.030800 0.057904 0.057596
v 0.030800 -0.000000 -0.057596
v 0.030800 0.057904 -0.057596
vn -1.0000 -0.0000 -0.0000
vn -0.0000 -0.0000 -1.0000
vn 1.0000 -0.0000 -0.0000
vn -0.0000 -0.0000 1.0000
vn -0.0000 -1.0000 -0.0000
vn -0.0000 1.0000 -0.0000
vt 0.429688 0.574219
vt 0.429688 0.623047
vt 0.328125 0.623047
vt 0.328125 0.574219
vt 0.478516 0.519531
vt 0.429688 0.519531
vt 0.478516 0.574219
vt 0.328125 0.519531
vt 0.328125 0.470703
vt 0.429688 0.470703
vt 0.279297 0.519531
vt 0.279297 0.574219
vt 0.429688 0.675781
vt 0.328125 0.675781
s 0
usemtl ammo_mp_1
f 1/1/1 2/2/1 4/3/1 3/4/1
f 3/5/2 4/6/2 8/1/2 7/7/2
f 7/8/3 8/9/3 6/10/3 5/6/3
f 5/8/4 6/11/4 2/12/4 1/4/4
f 3/4/5 7/8/5 5/6/5 1/1/5
f 8/13/6 4/2/6 2/3/6 6/14/6
