# Blender 5.0.1
# www.blender.org
mtllib ammo_pistol_loose_1pc_mp_3.mtl
o ammo_pistol_loose_1pc_mp_3
v -0.000000 0.000000 0.007000
v -0.007000 0.000000 0.000000
v -0.004950 0.000000 0.004950
v -0.007000 0.024000 0.000000
v -0.000000 0.024000 0.007000
v -0.004950 0.024000 0.004950
v -0.000000 0.000000 -0.007000
v -0.004950 0.000000 -0.004950
v -0.000000 0.024000 -0.007000
v -0.004950 0.024000 -0.004950
v 0.007000 0.000000 0.000000
v 0.004950 0.000000 0.004950
v 0.007000 0.024000 0.000000
v 0.004950 0.024000 0.004950
v 0.004950 0.000000 -0.004950
v 0.004950 0.024000 -0.004950
v -0.007000 0.028671 0.000000
v 0.000000 0.037000 -0.000000
v -0.004994 0.034146 0.000000
v -0.000000 0.028671 0.007000
v -0.000000 0.034146 0.004994
v -0.004950 0.028671 0.004950
v -0.003531 0.034146 0.003531
v -0.000000 0.028671 -0.007000
v -0.000000 0.034146 -0.004994
v -0.004950 0.028671 -0.004950
v -0.003531 0.034146 -0.003531
v 0.007000 0.028671 0.000000
v 0.004994 0.034146 0.000000
v 0.004950 0.028671 0.004950
v 0.003531 0.034146 0.003531
v 0.004950 0.028671 -0.004950
v 0.003531 0.034146 -0.003531
v -0.002907 0.036015 0.000000
v 0.002055 0.036015 0.002055
v -0.000000 0.036015 0.002907
v -0.000000 0.036015 -0.002907
v 0.002055 0.036015 -0.002055
v -0.002055 0.036015 -0.002055
v 0.002907 0.036015 0.000000
v -0.002055 0.036015 0.002055
v 0.004664 0.031409 0.004664
v -0.000000 0.031409 0.006596
v -0.000000 0.031409 -0.006596
v 0.004664 0.031409 -0.004664
v -0.006596 0.031409 0.000000
v -0.004664 0.031409 -0.004664
v 0.006596 0.031409 0.000000
v -0.004664 0.031409 0.004664
vn -0.0000 -0.0000 1.0000
vn 0.7071 -0.0000 0.7071
vn 0.7053 0.0718 0.7053
vn -0.0000 0.0718 0.9974
vn -0.7071 -0.0000 0.7071
vn -1.0000 -0.0000 -0.0000
vn -0.0000 -0.0000 -1.0000
vn -0.7071 -0.0000 -0.7071
vn 1.0000 -0.0000 -0.0000
vn 0.7071 -0.0000 -0.7071
vn -0.0000 -1.0000 -0.0000
vn -0.7053 0.0718 0.7053
vn -0.9974 0.0718 -0.0000
vn -0.0000 0.0718 -0.9974
vn 0.7053 0.0718 -0.7053
vn 0.9974 0.0718 -0.0000
vn -0.7053 0.0718 -0.7053
vn -0.0000 0.8420 0.5396
vn -0.0000 0.6147 0.7888
vn 0.5577 0.6147 0.5577
vn 0.3815 0.8420 0.3815
vn 0.6704 0.3179 0.6704
vn -0.0000 0.3179 0.9481
vn 0.3815 0.8420 -0.3815
vn 0.5577 0.6147 -0.5577
vn -0.0000 0.6147 -0.7888
vn -0.0000 0.8420 -0.5396
vn -0.0000 0.3179 -0.9481
vn 0.6704 0.3179 -0.6704
vn -0.3815 0.8420 -0.3815
vn -0.5577 0.6147 -0.5577
vn -0.7888 0.6147 -0.0000
vn -0.5396 0.8420 -0.0000
vn -0.9481 0.3179 -0.0000
vn -0.6704 0.3179 -0.6704
vn 0.5396 0.8420 -0.0000
vn 0.7888 0.6147 -0.0000
vn 0.9481 0.3179 -0.0000
vn -0.3815 0.8420 0.3815
vn -0.5577 0.6147 0.5577
vn -0.6704 0.3179 0.6704
vn -0.0000 1.0000 -0.0000
vt 0.085938 0.580078
vt 0.091797 0.580078
vt 0.091794 0.584931
vt 0.085925 0.584931
vt 0.085938 0.556641
vt 0.091797 0.556641
vt 0.097656 0.580078
vt 0.097656 0.556641
vt 0.099491 0.644533
vt 0.095644 0.648380
vt 0.087950 0.648380
vt 0.084103 0.644533
vt 0.084103 0.636839
vt 0.087950 0.632992
vt 0.095644 0.632992
vt 0.099491 0.636839
vt 0.091794 0.584931
vt 0.085925 0.584931
vt 0.097664 0.584931
vt 0.097664 0.584931
vt 0.097664 0.584931
vt 0.091794 0.584931
vt 0.085925 0.584931
vt 0.093527 0.661969
vt 0.095028 0.658378
vt 0.099528 0.662895
vt 0.095923 0.664373
vt 0.091808 0.587808
vt 0.086222 0.587808
vt 0.093505 0.670160
vt 0.094986 0.673764
vt 0.088610 0.673738
vt 0.090111 0.670146
vt 0.097394 0.587808
vt 0.091808 0.587808
vt 0.087716 0.667742
vt 0.084111 0.669221
vt 0.084111 0.662837
vt 0.087715 0.664343
vt 0.097395 0.587808
vt 0.091808 0.587808
vt 0.095923 0.667772
vt 0.099528 0.669279
vt 0.090133 0.661955
vt 0.088652 0.658351
vt 0.097394 0.587808
vt 0.091808 0.587808
vt 0.086222 0.587808
vt 0.086222 0.587808
vt 0.097394 0.587808
vt 0.091819 0.666057
vt 0.096614 0.591063
vt 0.092625 0.591063
vt 0.091022 0.591063
vt 0.087033 0.591063
vt 0.091022 0.591063
vt 0.087033 0.591063
vt 0.096614 0.591063
vt 0.092625 0.591063
vt 0.091022 0.591063
vt 0.087033 0.591063
vt 0.096614 0.591063
vt 0.092625 0.591063
vt 0.096614 0.591063
vt 0.092625 0.591063
vt 0.091022 0.591063
vt 0.087033 0.591063
s 1
usemtl ammo_mp_1
f 5/1/1 14/2/2 30/3/3 20/4/4
f 1/5/1 5/1/1 6/2/5 3/6/5
f 3/6/5 6/2/5 4/7/6 2/8/6
f 9/7/7 7/8/7 8/6/8 10/2/8
f 10/2/8 8/6/8 2/5/6 4/1/6
f 13/7/9 11/8/9 15/6/10 16/2/10
f 16/2/10 15/6/10 7/5/7 9/1/7
f 5/7/1 1/8/1 12/6/2 14/2/2
f 14/2/2 12/6/2 11/5/9 13/1/9
f 2/9/11 8/10/11 7/11/11 15/12/11 11/13/11 12/14/11 1/15/11 3/16/11
f 4/1/6 6/2/5 22/17/12 17/18/13
f 16/2/10 9/7/7 24/19/14 32/17/15
f 14/2/2 13/7/9 28/20/16 30/3/3
f 13/1/9 16/2/10 32/17/15 28/4/16
f 10/2/8 4/7/6 17/21/13 26/22/17
f 9/1/7 10/2/8 26/22/17 24/23/14
f 6/2/5 5/7/1 20/20/4 22/17/12
f 36/24/18 21/25/19 31/26/20 35/27/21
f 42/28/22 43/29/23 20/4/4 30/3/3
f 38/30/24 33/31/25 25/32/26 37/33/27
f 44/34/28 45/35/29 32/17/15 24/19/14
f 39/36/30 27/37/31 19/38/32 34/39/33
f 46/40/34 47/41/35 26/22/17 17/21/13
f 40/42/36 29/43/37 33/31/25 38/30/24
f 45/35/29 48/29/38 28/4/16 32/17/15
f 41/44/39 23/45/40 21/25/19 36/24/18
f 43/46/23 49/47/41 22/17/12 20/20/4
f 34/39/33 19/38/32 23/45/40 41/44/39
f 49/47/41 46/48/34 17/18/13 22/17/12
f 37/33/27 25/32/26 27/37/31 39/36/30
f 47/41/35 44/49/28 24/23/14 26/22/17
f 35/27/21 31/26/20 29/43/37 40/42/36
f 48/50/38 42/28/22 30/3/3 28/20/16
f 18/51/42 35/27/21 40/42/36
f 18/51/42 37/33/27 39/36/30
f 18/51/42 34/39/33 41/44/39
f 18/51/42 41/44/39 36/24/18
f 18/51/42 40/42/36 38/30/24
f 18/51/42 39/36/30 34/39/33
f 18/51/42 38/30/24 37/33/27
f 18/51/42 36/24/18 35/27/21
f 29/52/37 31/53/20 42/28/22 48/50/38
f 27/54/31 25/55/26 44/49/28 47/41/35
f 23/56/40 19/57/32 46/48/34 49/47/41
f 21/58/19 23/59/40 49/47/41 43/46/23
f 33/60/25 29/61/37 48/29/38 45/35/29
f 19/62/32 27/63/31 47/41/35 46/40/34
f 25/64/26 33/65/25 45/35/29 44/34/28
f 31/66/20 21/67/19 43/29/23 42/28/22
