# Blender 5.0.1
# www.blender.org
mtllib ammo_box_mp_3.mtl
o ammo_box_mp_3
v -0.077935 0.075000 -0.037500
v -0.077936 0.000000 0.037500
v -0.077936 0.075000 0.037500
v -0.077935 -0.000000 -0.037500
v 0.077938 0.075000 -0.037500
v 0.077938 -0.000000 -0.037500
v 0.077938 0.075000 0.037500
v 0.077938 0.000000 0.037500
v 0.097938 0.085000 -0.037500
v 0.097938 0.085000 0.037500
v -0.097935 0.085000 -0.037500
v -0.097936 0.085000 0.037500
v -0.077935 0.134594 -0.072605
v 0.077938 0.134594 -0.072605
v 0.107938 0.090000 -0.027500
v 0.107938 0.090000 0.027500
v -0.107935 0.090000 0.027500
v -0.107935 0.090000 -0.027500
v -0.067977 0.142372 -0.067656
v 0.067980 0.142372 -0.067656
v 0.077941 0.075894 0.037500
v 0.107491 0.090894 0.027500
v 0.097491 0.085894 0.037500
v 0.097491 0.085894 -0.037500
v 0.107491 0.090894 -0.027500
v -0.077935 0.075894 -0.037500
v 0.077938 0.075894 -0.037500
v -0.077939 0.075894 0.037500
v -0.107488 0.090894 -0.027500
v -0.097488 0.085894 -0.037500
v -0.097489 0.085894 0.037500
v -0.107488 0.090894 0.027500
v 0.067980 0.141835 -0.066812
v 0.077938 0.134585 -0.071234
v -0.077935 0.134585 -0.071234
v -0.067977 0.141835 -0.066812
v -0.077935 0.100878 -0.055376
v 0.077938 0.100878 -0.055376
v -0.077935 0.101263 -0.054367
v 0.077938 0.101263 -0.054367
v -0.077935 0.084357 -0.046385
v -0.077935 0.084866 -0.045531
v 0.077938 0.084357 -0.046385
v 0.077938 0.084866 -0.045531
v 0.077938 0.118191 -0.063377
v 0.077938 0.118634 -0.062250
v -0.077935 0.118191 -0.063377
v -0.077935 0.118634 -0.062250
vn -1.0000 -0.0000 -0.0000
vn -0.0000 -0.0000 -1.0000
vn 1.0000 -0.0000 -0.0000
vn -0.0000 -0.0000 1.0000
vn -0.0000 1.0000 -0.0000
vn -0.0000 -1.0000 -0.0000
vn 0.3192 0.1596 0.9342
vn 0.8165 0.4082 0.4082
vn 0.3201 0.1600 0.9338
vn 1.0000 0.0016 -0.0000
vn 0.6456 0.7415 0.1827
vn 0.3477 0.8538 0.3875
vn 0.3490 0.8536 0.3868
vn -0.8165 0.4082 0.4082
vn -0.3192 0.1596 0.9342
vn -0.3201 0.1600 0.9338
vn -0.4525 0.8917 -0.0000
vn -0.4472 0.8944 -0.0000
vn -0.4554 0.8903 -0.0000
vn 0.8165 0.4082 -0.4082
vn 0.3192 0.1596 -0.9342
vn 0.3201 0.1600 -0.9338
vn -1.0000 0.0016 -0.0000
vn -0.0000 0.4524 0.8918
vn -0.0000 0.4907 0.8713
vn 0.4525 0.8918 -0.0000
vn 0.4472 0.8944 -0.0000
vn 0.4554 0.8903 -0.0000
vn -0.3191 0.1596 -0.9342
vn -0.3201 0.1600 -0.9338
vn -0.8165 0.4082 -0.4083
vn -0.0000 -0.5207 0.8537
vn -0.3477 0.8538 0.3875
vn -0.6455 0.7415 0.1827
vn -0.3490 0.8536 0.3868
vn -0.0000 0.5369 -0.8437
vn -0.0000 -0.4553 -0.8903
vn -0.0000 -0.4903 -0.8715
vn -0.4472 -0.8944 -0.0000
vn 0.4472 -0.8944 -0.0000
vn -0.0000 -0.5883 -0.8086
vn -0.0000 -0.4490 -0.8935
vn -0.0000 0.5747 0.8184
vn -0.0000 0.4441 0.8960
vn -0.0000 0.6670 0.7451
vn -0.0000 -0.6886 -0.7252
vt 0.667969 0.837891
vt 0.750000 0.837891
vt 0.750000 0.919922
vt 0.667969 0.919922
vt 0.500000 0.837891
vt 0.500000 0.919922
vt 0.667969 0.675781
vt 0.750000 0.675781
vt 0.500000 0.757812
vt 0.667969 0.757812
vt 0.700117 0.951942
vt 0.709381 0.956574
vt 0.708967 0.957403
vt 0.699702 0.952771
vt 0.574637 0.942677
vt 0.644122 0.942677
vt 0.644122 0.943506
vt 0.574637 0.943506
vt 0.681587 0.940459
vt 0.672362 0.935873
vt 0.672362 0.935091
vt 0.681587 0.939188
vt 0.668096 0.982692
vt 0.676647 0.997889
vt 0.675376 0.997881
vt 0.667053 0.983102
vt 0.509381 0.956574
vt 0.518646 0.951942
vt 0.519060 0.952771
vt 0.509796 0.957403
vt 0.681587 0.942677
vt 0.681590 0.943506
vt 0.750000 0.908203
vt 0.667969 0.908203
vt 0.679688 0.919922
vt 0.738281 0.919922
vt 0.750000 0.880859
vt 0.667969 0.880859
vt 0.709381 0.956574
vt 0.699702 0.952771
vt 0.681587 0.943506
vt 0.583902 0.956574
vt 0.634858 0.956574
vt 0.634858 0.957403
vt 0.583902 0.957403
vt 0.644123 0.942677
vt 0.644123 0.943506
vt 0.500000 0.980469
vt 0.667969 0.980469
vt 0.667969 1.000000
vt 0.500000 1.000000
vt 0.537176 0.942677
vt 0.537176 0.943506
vt 0.652354 0.951346
vt 0.651563 0.951818
vt 0.518646 0.951942
vt 0.519061 0.952771
vt 0.509381 0.956574
vt 0.509796 0.957403
vt 0.583902 0.956574
vt 0.583902 0.957403
vt 0.537175 0.942677
vt 0.537172 0.943506
vt 0.667969 0.990234
vt 0.500000 0.990234
vt 0.509766 1.000000
vt 0.658203 1.000000
vt 0.546401 0.935873
vt 0.537176 0.940459
vt 0.537176 0.939188
vt 0.546401 0.935091
vt 0.500000 0.939453
vt 0.500000 0.958984
vt 0.667969 0.958984
vt 0.667969 0.939453
vt 0.660684 0.966653
vt 0.659749 0.967009
vt 0.667053 0.983102
vt 0.652354 0.951346
vt 0.651563 0.951818
vt 0.675376 0.997881
s 1
usemtl ammo_mp_1
f 4/1/1 2/2/1 3/3/1 1/4/1
f 6/5/2 4/1/2 1/4/2 5/6/2
f 6/1/3 5/4/3 7/3/3 8/2/3
f 2/5/4 8/1/4 7/4/4 3/6/4
f 3/7/5 7/1/5 5/2/5 1/8/5
f 4/1/6 6/5/6 8/9/6 2/10/6
f 10/11/7 16/12/8 22/13/8 23/14/9
f 3/15/10 1/16/10 26/17/10 28/18/10
f 14/19/11 20/20/12 33/21/13 34/22/11
f 45/23/3 14/24/3 34/25/3 46/26/3
f 17/27/14 12/28/15 31/29/16 32/30/14
f 7/31/4 10/11/7 23/14/9 21/32/4
f 24/33/17 23/34/17 22/35/18 25/36/18
f 27/37/19 21/38/19 23/34/17 24/33/17
f 15/39/20 9/11/21 24/40/22 25/13/20
f 9/11/21 5/31/2 27/41/2 24/40/22
f 16/42/8 15/43/20 25/44/20 22/45/8
f 5/46/23 7/15/23 21/18/23 27/47/23
f 48/48/24 46/49/24 34/50/25 35/51/25
f 1/52/4 5/31/4 27/41/4 26/53/4
f 41/54/1 1/16/1 26/17/1 42/55/1
f 31/34/26 30/33/26 29/36/27 32/35/27
f 28/38/28 26/37/28 30/33/26 31/34/26
f 1/52/2 11/56/29 30/57/30 26/53/2
f 11/56/29 18/58/31 29/59/31 30/57/30
f 18/43/31 17/60/14 32/61/14 29/44/31
f 12/28/15 3/62/4 28/63/4 31/29/16
f 35/64/32 34/65/32 33/66/32 36/67/32
f 19/68/33 13/69/34 35/70/34 36/71/35
f 20/20/12 19/68/33 36/71/35 33/21/13
f 20/67/36 14/64/36 13/65/36 19/66/36
f 47/48/37 13/51/38 14/50/38 45/49/37
f 3/38/39 12/34/39 17/35/39 18/36/39 11/33/39 1/37/39
f 5/37/40 9/33/40 15/36/40 16/35/40 10/34/40 7/38/40
f 41/72/41 37/73/42 38/74/42 43/75/41
f 47/23/1 37/76/1 39/77/1 48/78/1
f 42/72/43 44/75/43 40/74/44 39/73/44
f 43/79/3 38/76/3 40/77/3 44/80/3
f 5/46/3 43/79/3 44/80/3 27/47/3
f 26/6/45 27/4/45 44/75/43 42/72/43
f 1/6/46 41/72/41 43/75/41 5/4/46
f 37/76/1 41/54/1 42/55/1 39/77/1
f 13/24/1 47/23/1 48/78/1 35/81/1
f 37/73/42 47/48/37 45/49/37 38/74/42
f 39/73/44 40/74/44 46/49/24 48/48/24
f 38/76/3 45/23/3 46/26/3 40/77/3
