# Blender 5.0.1
# www.blender.org
mtllib ammo_box_mp_1_1.mtl
o ammo_box_mp_1_1
v -0.077935 0.045000 -0.037500
v 0.077938 0.045000 -0.037500
v 0.077938 0.000000 -0.037500
v -0.077936 0.000000 0.037500
v -0.077936 0.045000 0.037500
v -0.077935 0.000000 -0.037500
v 0.077938 0.045000 -0.037500
v 0.077938 0.000000 -0.037500
v 0.077938 0.045000 0.037500
v 0.077938 0.000000 0.037500
vn -1.0000 -0.0000 -0.0000
vn -0.0000 -0.0000 -1.0000
vn -0.0000 -0.0000 -0.0000
vn 1.0000 -0.0000 -0.0000
vn -0.0000 -0.0000 1.0000
vn -0.0000 1.0000 -0.0000
vn -0.0000 -1.0000 -0.0000
vt 0.167969 0.869141
vt 0.250000 0.869141
vt 0.250000 0.917969
vt 0.167969 0.917969
vt 0.000000 0.869141
vt 0.000000 0.917969
vt 0.000000 0.742188
vt 0.167969 0.742188
vt 0.167969 0.789062
vt 0.000000 0.789062
vt 0.000000 1.000000
vt 0.167969 1.000000
s 0
usemtl ammo_mp_1
f 6/1/1 4/2/1 5/3/1 1/4/1
f 3/5/2 6/1/2 1/4/2 2/6/2
f 3/5/3 2/6/3 7/6/3 8/5/3
f 8/1/4 7/4/4 9/3/4 10/2/4
f 4/7/5 10/8/5 9/9/5 5/10/5
f 5/4/6 9/6/6 7/11/6 1/12/6
f 6/1/7 8/5/7 10/10/7 4/9/7
