# Blender 5.0.1
# www.blender.org
mtllib ammo_box_1_1.mtl
o ammo_box_1_1
v -0.027900 0.055800 0.057984
v 0.030300 0.000000 0.057984
v 0.030300 0.055800 0.057984
v -0.027900 0.000000 0.057984
v -0.027900 0.055800 -0.057986
v -0.027900 0.000000 -0.057986
v 0.030300 0.055800 -0.057986
v 0.030300 0.000000 -0.057986
v -0.027900 0.063240 -0.072866
v 0.030300 0.063240 -0.072866
v -0.027900 0.063240 0.072864
v 0.030300 0.063240 0.072864
v -0.054018 0.100138 0.057984
v -0.054018 0.100138 -0.057986
v -0.020460 0.066960 -0.080306
v 0.022860 0.066960 -0.080306
v 0.022860 0.066960 0.080304
v -0.020460 0.066960 0.080304
v -0.050336 0.105925 0.050575
v -0.050336 0.105925 -0.050577
v 0.030300 0.056465 -0.057988
v 0.022860 0.067625 -0.079973
v 0.030300 0.063905 -0.072533
v -0.027900 0.063905 -0.072533
v -0.020460 0.067625 -0.079973
v -0.027900 0.056465 0.057984
v -0.027900 0.056465 -0.057986
v 0.030300 0.056465 0.057986
v -0.020460 0.067625 0.079971
v -0.027900 0.063905 0.072531
v 0.030300 0.063905 0.072532
v 0.022860 0.067625 0.079971
v -0.049708 0.105525 -0.050577
v -0.052998 0.100131 -0.057986
v -0.052998 0.100131 0.057984
v -0.049708 0.105525 0.050575
v -0.041200 0.075053 0.057984
v -0.041200 0.075053 -0.057986
v -0.040449 0.075340 0.057984
v -0.040449 0.075340 -0.057986
v -0.034510 0.062761 0.057984
v -0.033875 0.063140 0.057984
v -0.034510 0.062761 -0.057986
v -0.033875 0.063140 -0.057986
v -0.047152 0.087934 -0.057986
v -0.046314 0.088263 -0.057986
v -0.047152 0.087934 0.057984
v -0.046314 0.088263 0.057984
vn -0.0000 -0.0000 1.0000
vn -1.0000 -0.0000 -0.0000
vn -0.0000 -0.0000 -1.0000
vn 1.0000 -0.0000 -0.0000
vn -0.0000 1.0000 -0.0000
vn -0.0000 -1.0000 -0.0000
vn 0.9342 0.1596 -0.3191
vn 0.4083 0.4082 -0.8165
vn 0.4082 0.4082 -0.8165
vn 0.9338 0.1600 -0.3201
vn -0.0000 0.0016 -1.0000
vn 0.1827 0.7415 -0.6456
vn 0.3875 0.8538 -0.3477
vn 0.3868 0.8536 -0.3490
vn 0.4082 0.4082 0.8165
vn 0.9342 0.1596 0.3192
vn 0.9338 0.1600 0.3201
vn -0.0000 0.8917 0.4525
vn -0.0000 0.8944 0.4472
vn -0.0000 0.8903 0.4554
vn -0.4083 0.4082 -0.8165
vn -0.9342 0.1596 -0.3192
vn -0.9338 0.1600 -0.3201
vn -0.0000 0.0016 1.0000
vn 0.8918 0.4524 -0.0000
vn 0.8713 0.4907 -0.0000
vn -0.0000 0.8918 -0.4525
vn -0.0000 0.8944 -0.4472
vn -0.0000 0.8903 -0.4554
vn -0.9342 0.1596 0.3191
vn -0.9338 0.1600 0.3201
vn -0.4083 0.4082 0.8165
vn 0.8537 -0.5207 -0.0000
vn 0.3875 0.8538 0.3477
vn 0.1827 0.7415 0.6456
vn 0.3868 0.8536 0.3490
vn -0.8437 0.5369 -0.0000
vn -0.8903 -0.4553 -0.0000
vn -0.8715 -0.4903 -0.0000
vn -0.0000 -0.8944 0.4472
vn -0.0000 -0.8944 -0.4472
vn -0.8086 -0.5883 -0.0000
vn -0.8935 -0.4490 -0.0000
vn 0.8184 0.5747 -0.0000
vn 0.8960 0.4441 -0.0000
vn 0.7451 0.6670 -0.0000
vn -0.7252 -0.6886 -0.0000
vt 0.429688 0.574219
vt 0.429688 0.519531
vt 0.478516 0.519531
vt 0.478516 0.574219
vt 0.328125 0.574219
vt 0.429688 0.623047
vt 0.328125 0.623047
vt 0.328125 0.519531
vt 0.328125 0.470703
vt 0.429688 0.470703
vt 0.279297 0.574219
vt 0.279297 0.675781
vt 0.328125 0.675781
vt 0.478516 0.470703
vt 0.492188 0.574219
vt 0.492188 0.519531
vt 0.500000 0.527344
vt 0.500000 0.566406
vt 0.466797 0.675781
vt 0.466797 0.574219
vt 0.478516 0.675781
vt 0.427883 0.622559
vt 0.328507 0.622559
vt 0.328507 0.621640
vt 0.427883 0.621640
vt 0.470703 0.574219
vt 0.470703 0.675781
vt 0.478516 0.667969
vt 0.478516 0.582031
vt 0.328125 0.662109
vt 0.429688 0.675781
vt 0.429688 0.662109
vt 0.328125 0.636719
vt 0.328125 0.648438
vt 0.429688 0.648438
vt 0.429688 0.636719
vt 0.437500 0.675781
vt 0.437500 0.574219
vt 0.451172 0.574219
vt 0.451172 0.675781
s 1
usemtl ammo_mp_1
f 4/1/1 2/2/1 3/3/1 1/4/1
f 6/5/2 4/1/2 1/6/2 5/7/2
f 6/1/3 5/4/3 7/3/3 8/2/3
f 2/2/4 8/8/4 7/9/4 3/10/4
f 3/11/5 7/12/5 5/13/5 1/5/5
f 4/1/6 6/5/6 8/8/6 2/2/6
f 10/9/7 16/9/8 22/9/9 23/9/10
f 3/10/11 1/14/11 26/14/11 28/10/11
f 14/9/12 20/9/13 33/9/14 34/9/12
f 45/9/3 14/9/3 34/9/3 46/9/3
f 17/9/15 12/9/16 31/9/17 32/9/15
f 7/9/4 10/9/7 23/9/10 21/9/4
f 24/15/18 23/16/18 22/17/19 25/18/19
f 27/4/20 21/3/20 23/16/18 24/15/18
f 15/9/21 9/9/22 24/9/23 25/9/21
f 9/9/22 5/9/2 27/9/2 24/9/23
f 16/9/8 15/9/21 25/9/21 22/9/9
f 5/3/24 7/4/24 21/4/24 27/3/24
f 48/19/25 46/20/25 34/4/26 35/21/26
f 1/22/4 5/23/4 27/24/4 26/25/4
f 41/9/1 1/9/1 26/9/1 42/9/1
f 31/16/27 30/15/27 29/18/28 32/17/28
f 28/3/29 26/4/29 30/15/27 31/16/27
f 1/9/2 11/9/30 30/9/31 26/9/2
f 11/9/30 18/9/32 29/9/32 30/9/31
f 18/9/32 17/9/15 32/9/15 29/9/32
f 12/9/16 3/9/4 28/9/4 31/9/17
f 35/26/33 34/27/33 33/28/33 36/29/33
f 19/9/34 13/9/35 35/9/35 36/9/36
f 20/9/13 19/9/34 36/9/36 33/9/14
f 20/29/37 14/26/37 13/27/37 19/28/37
f 47/30/38 13/13/39 14/31/39 45/32/38
f 3/3/40 12/16/40 17/17/40 18/18/40 11/15/40 1/4/40
f 5/4/41 9/15/41 15/18/41 16/17/41 10/16/41 7/3/41
f 41/33/42 37/34/43 38/35/43 43/36/42
f 47/9/1 37/9/1 39/9/1 48/9/1
f 42/37/44 44/38/44 40/39/45 39/40/45
f 43/9/3 38/9/3 40/9/3 44/9/3
f 5/9/3 43/9/3 44/9/3 27/9/3
f 26/31/46 27/1/46 44/38/44 42/37/44
f 1/7/47 41/33/42 43/36/42 5/6/47
f 37/9/1 41/9/1 42/9/1 39/9/1
f 13/9/1 47/9/1 48/9/1 35/9/1
f 37/34/43 47/30/38 45/32/38 38/35/43
f 39/40/45 40/39/45 46/20/25 48/19/25
f 38/9/3 45/9/3 46/9/3 40/9/3
