# Blender 5.0.1
# www.blender.org
mtllib bandage_mp_2.mtl
o bandage_mp_2
v -0.047311 0.019527 0.078670
v -0.047315 0.019527 -0.077836
v 0.051989 0.029063 0.077226
v 0.045023 0.049863 0.077329
v 0.051995 0.029063 -0.078190
v 0.045028 0.049863 -0.078165
v -0.000005 0.029063 0.070200
v -0.000005 0.029063 -0.070200
v 0.048439 0.029063 0.024654
v -0.044236 0.020949 0.024654
v 0.041948 0.048441 0.024654
v -0.044387 0.020879 -0.027282
v 0.042100 0.048511 -0.027282
v 0.048614 0.029063 -0.027282
v 0.052138 0.029063 -0.027282
v 0.051951 0.029063 0.024654
v 0.042457 0.050379 0.024654
v -0.047278 0.019545 0.024654
v -0.047440 0.019469 -0.027282
v 0.042620 0.050454 -0.027282
v 0.042050 0.050182 0.077374
v 0.039178 0.048799 0.024654
v 0.039320 0.048878 -0.027282
v 0.042054 0.050385 -0.078154
v 0.018255 0.066123 -0.078048
v 0.018254 0.064823 0.077806
v 0.017366 0.063469 0.024654
v 0.017410 0.063600 -0.027282
v 0.018244 0.065350 0.024654
v 0.018291 0.065491 -0.027282
v -0.013003 0.066577 0.078193
v -0.013005 0.067877 -0.077953
v -0.012116 0.065222 0.024654
v -0.012160 0.065353 -0.027282
v -0.012994 0.067421 0.024654
v -0.013041 0.067561 -0.027282
v -0.035518 0.056827 0.078528
v -0.035521 0.057477 -0.077871
v -0.033093 0.055533 0.024654
v -0.033212 0.055629 -0.027282
v -0.035038 0.057453 0.024654
v -0.035166 0.057555 -0.027282
v -0.048516 0.039463 0.078722
v -0.048521 0.039463 -0.077823
v -0.045204 0.038752 0.024654
v -0.045367 0.038787 -0.027282
v -0.047671 0.039454 0.024654
v -0.047846 0.039492 -0.027282
v 0.039189 0.008253 0.077471
v 0.039193 0.008253 -0.078130
v 0.036764 0.010196 0.024654
v 0.036883 0.010101 -0.027282
v 0.039162 0.008277 0.024654
v 0.039291 0.008175 -0.027282
v 0.012995 0.000000 -0.078048
v 0.012994 0.000000 0.077806
v 0.012106 0.002654 0.024654
v 0.012150 0.002524 -0.027282
v 0.012984 0.000033 0.024654
v 0.013031 -0.000107 -0.027282
v -0.013005 0.000000 -0.077953
v -0.013003 0.000000 0.078193
v -0.012116 0.002654 0.024654
v -0.012160 0.002524 -0.027282
v -0.012994 0.000033 0.024654
v -0.013041 -0.000107 -0.027282
v -0.035521 0.006500 -0.077871
v -0.035518 0.006500 0.078528
v -0.033093 0.008443 0.024654
v -0.033212 0.008348 -0.027282
v -0.035492 0.006524 0.024654
v -0.035620 0.006422 -0.027282
vn -0.1402 -0.9901 0.0027
vn -0.1401 -0.9901 0.0027
vn -0.5294 -0.8484 0.0031
vn -0.5297 -0.8482 0.0031
vn -0.5253 -0.8491 -0.0563
vn -0.5328 -0.8444 -0.0564
vn -0.9216 -0.3830 -0.0625
vn -0.9216 -0.3831 -0.0625
vn -0.9294 -0.3690 0.0035
vn -0.9565 0.2918 0.0034
vn -0.9565 0.2917 0.0034
vn -0.6359 0.7696 0.0571
vn -0.9583 0.2786 0.0629
vn -0.9578 0.2804 0.0629
vn -0.6333 0.7718 0.0571
vn -0.1783 0.9840 0.0028
vn -0.1784 0.9840 0.0028
vn -0.6380 0.7701 0.0031
vn -0.6378 0.7702 0.0031
vn 0.1638 -0.0435 0.9855
vn 0.1647 0.0575 0.9847
vn 0.0146 0.0235 0.9996
vn 0.1521 -0.9884 0.0027
vn 0.1520 -0.9884 0.0027
vn 0.6148 -0.7887 0.0031
vn 0.6151 -0.7885 0.0031
vn 0.9978 -0.0662 0.0037
vn 0.9978 -0.0663 0.0037
vn 0.9462 0.3171 -0.0639
vn 0.9913 -0.1131 -0.0672
vn 0.9909 -0.1165 -0.0672
vn 0.1167 0.9926 -0.0330
vn -0.0000 -0.0000 1.0000
vn 0.0351 -0.1844 -0.9822
vn -0.0030 0.0266 -0.9996
vn 0.1091 -0.1296 -0.9855
vn -0.1264 0.1363 -0.9826
vn -0.1479 0.0046 -0.9890
vn 0.1464 -0.0414 -0.9884
vn 0.1477 0.0580 -0.9873
vn 0.3173 0.9468 0.0529
vn -0.1867 0.9810 0.0525
vn -0.1850 0.9813 0.0525
vn 0.3168 0.9470 0.0529
vn -0.1333 -0.0925 -0.9867
vn -0.1443 -0.0656 -0.9874
vn -0.0655 -0.1757 -0.9823
vn -0.1091 0.1385 0.9843
vn -0.0292 0.2409 0.9701
vn 0.1105 0.1595 -0.9810
vn 0.0361 0.2425 -0.9695
vn -0.0000 -0.0000 -1.0000
vn 0.3076 0.9509 -0.0342
vn -0.1787 0.9834 -0.0311
vn -0.1842 0.9824 -0.0312
vn 0.3079 0.9508 -0.0342
vn -0.0459 0.2412 -0.9694
vn -0.6246 0.7796 -0.0458
vn -0.9567 0.2847 -0.0600
vn -0.9575 0.2820 -0.0601
vn -0.6312 0.7743 -0.0461
vn 0.1266 -0.1330 0.9830
vn 0.0541 0.2422 0.9687
vn -0.1298 0.0058 0.9915
vn -0.1396 -0.9889 -0.0501
vn -0.1366 -0.9894 -0.0501
vn 0.1276 0.1605 0.9788
vn -0.5303 -0.8459 0.0570
vn -0.5249 -0.8492 0.0569
vn -0.9214 -0.3835 0.0635
vn -0.9209 -0.3847 0.0635
vn 0.7530 0.6580 0.0032
vn 0.7533 0.6577 0.0032
vn 0.3050 0.9524 0.0028
vn 0.3049 0.9524 0.0028
vn 0.9464 0.3169 0.0629
vn 0.9910 -0.1163 0.0662
vn 0.9915 -0.1121 0.0662
vn 0.1491 -0.9875 0.0505
vn -0.1363 -0.9894 0.0503
vn -0.1376 -0.9892 0.0503
vn 0.1512 -0.9872 0.0505
vn 0.6148 -0.7866 0.0573
vn 0.6095 -0.7907 0.0572
vn -0.1142 -0.0950 0.9889
vn -0.0472 -0.1847 0.9817
vn 0.5399 0.8407 -0.0409
vn 0.5539 0.8309 0.0525
vn 0.1525 0.9876 0.0362
vn 0.0512 -0.1911 0.9802
vn 0.1486 -0.9876 -0.0507
vn 0.1490 -0.9875 -0.0507
vn 0.6091 -0.7910 -0.0579
vn 0.6118 -0.7889 -0.0579
vn -0.1261 -0.0663 0.9898
vt 0.416667 0.156250
vt 0.484375 0.156250
vt 0.484375 0.187500
vt 0.416667 0.187500
vt 0.552083 0.187500
vt 0.552083 0.218750
vt 0.484375 0.218750
vt 0.416667 0.218750
vt 0.484375 0.250000
vt 0.416667 0.250000
vt 0.348958 0.281250
vt 0.348958 0.250000
vt 0.416667 0.281250
vt 0.484375 0.317708
vt 0.416667 0.317708
vt 0.484375 0.281250
vt 0.477076 0.505021
vt 0.449104 0.530643
vt 0.419275 0.471650
vt 0.416667 0.119792
vt 0.484375 0.119792
vt 0.484375 0.083333
vt 0.416667 0.083333
vt 0.416667 0.041667
vt 0.484375 0.041667
vt 0.484375 0.010417
vt 0.552083 0.010417
vt 0.552083 0.041667
vt 0.484375 0.385417
vt 0.552083 0.385417
vt 0.552083 0.390625
vt 0.484375 0.390625
vt 0.055963 0.107249
vt 0.050817 0.106653
vt 0.050450 0.065304
vt 0.055479 0.065372
vt 0.385904 0.529451
vt 0.419275 0.538392
vt 0.413215 0.404154
vt 0.370417 0.422792
vt 0.452646 0.529451
vt 0.478280 0.501487
vt 0.348958 0.354167
vt 0.348958 0.317708
vt 0.416667 0.354167
vt 0.354643 0.457200
vt 0.352533 0.453767
vt 0.358515 0.498094
vt 0.352091 0.465159
vt 0.361475 0.505021
vt 0.486017 0.471650
vt 0.477075 0.438279
vt 0.040301 0.057228
vt 0.046909 0.056835
vt 0.047862 0.102314
vt 0.041865 0.102591
vt 0.046138 0.208780
vt 0.052387 0.201885
vt 0.484375 0.354167
vt 0.552083 0.317708
vt 0.552083 0.354167
vt 0.033712 0.199626
vt 0.033699 0.153761
vt 0.039087 0.153003
vt 0.039098 0.200386
vt 0.452646 0.413850
vt 0.412761 0.404492
vt 0.477240 0.502763
vt 0.552083 0.250000
vt 0.552083 0.281250
vt 0.486017 0.471650
vt 0.385904 0.529451
vt 0.351754 0.465586
vt 0.370417 0.422792
vt 0.043560 0.244017
vt 0.037844 0.242386
vt 0.552083 0.156250
vt 0.055943 0.241524
vt 0.064421 0.274164
vt 0.058661 0.276628
vt 0.050249 0.243152
vt 0.419275 0.538392
vt 0.348958 0.187500
vt 0.348958 0.218750
vt 0.416667 0.390625
vt 0.348958 0.010417
vt 0.416667 0.010417
vt 0.348958 0.041667
vt 0.348958 0.156250
vt 0.348958 0.119792
vt 0.056959 0.152811
vt 0.052362 0.152305
vt 0.348958 0.083333
vt 0.404696 0.407146
vt 0.445426 0.411192
vt 0.056825 0.211014
vt 0.066852 0.261196
vt 0.061152 0.265019
vt 0.052730 0.211478
vt 0.053494 0.057085
vt 0.051928 0.102224
vt 0.045951 0.101952
vt 0.046909 0.056695
vt 0.041406 0.203132
vt 0.047676 0.209998
vt 0.043365 0.066461
vt 0.038313 0.066532
vt 0.066852 0.017318
vt 0.062158 0.019595
vt 0.060685 0.016352
vt 0.031603 0.019600
vt 0.033099 0.016352
vt 0.354649 0.457186
vt 0.358656 0.497990
vt 0.416667 0.385417
vt 0.348958 0.385417
vt 0.348958 0.390625
vt 0.026898 0.017303
vt 0.061406 0.209790
vt 0.057443 0.211155
vt 0.032374 0.211437
vt 0.036824 0.154287
vt 0.041441 0.153780
vt 0.036356 0.212806
vt 0.445685 0.410935
vt 0.477076 0.438279
vt 0.037824 0.108561
vt 0.042991 0.107961
vt 0.552083 0.119792
vt 0.060084 0.153232
vt 0.060070 0.198927
vt 0.054704 0.199686
vt 0.054716 0.152475
vt 0.037355 0.103301
vt 0.042968 0.101201
vt 0.056438 0.102934
vt 0.050848 0.100838
vt 0.552083 0.083333
vt 0.029376 0.275108
vt 0.035159 0.277577
vt 0.450408 0.529619
vt 0.026898 0.263059
vt 0.036953 0.212661
vt 0.041068 0.213128
vt 0.032612 0.266920
vt 0.401392 0.404908
vt 0.404714 0.407138
s 1
usemtl misc_mp_1
f 66/1/1 65/2/2 71/3/3 72/4/4
f 69/3/5 68/5/6 1/6/7 10/7/8
f 19/8/9 18/7/9 47/9/10 48/10/11
f 38/11/12 44/12/13 46/10/14 40/13/15
f 35/14/16 36/15/17 42/13/18 41/16/19
f 43/17/20 1/18/21 7/19/22
f 60/20/23 59/21/24 65/2/2 66/1/1
f 53/22/25 54/23/26 15/24/27 16/25/28
f 11/26/29 4/27/29 3/28/30 9/25/31
f 22/29/32 21/30/32 4/31/32 11/32/32
f 39/33/33 41/34/33 47/35/33 45/36/33
f 32/37/34 8/19/35 38/38/36
f 50/39/37 8/19/35 5/40/38
f 44/41/39 8/19/35 2/42/40
f 25/43/41 32/44/42 34/15/43 28/45/44
f 8/19/35 24/46/45 6/47/46 5/40/38
f 8/19/35 32/37/34 25/48/47
f 49/49/48 7/19/22 56/50/49
f 67/51/50 8/19/35 61/52/51
f 14/53/52 15/54/52 54/55/52 52/56/52
f 45/36/33 47/35/33 18/57/33 10/58/33
f 27/59/53 33/14/54 31/60/55 26/61/56
f 64/62/52 58/63/52 60/64/52 66/65/52
f 55/66/57 8/19/35 50/67/37
f 67/51/50 2/68/40 8/19/35
f 39/16/58 45/9/59 43/69/60 37/70/61
f 43/17/20 7/19/22 37/71/62
f 62/72/63 56/50/49 7/19/22
f 49/73/48 3/74/64 7/19/22
f 64/62/52 66/65/52 72/75/52 70/76/52
f 62/77/65 68/5/6 69/3/5 63/2/66
f 69/78/33 10/79/33 18/80/33 71/81/33
f 62/72/63 7/19/22 68/82/67
f 67/83/68 70/4/69 12/8/70 2/84/71
f 17/32/72 20/85/73 30/45/74 29/59/75
f 6/86/76 13/87/76 14/24/77 5/88/78
f 58/20/79 64/1/80 61/89/81 55/90/82
f 33/91/33 35/92/33 41/34/33 39/33/33
f 43/69/60 45/9/59 10/7/8 1/6/7
f 50/93/83 5/88/78 14/24/77 52/23/84
f 32/44/42 38/11/12 40/13/15 34/15/43
f 7/19/22 21/94/85 26/95/86
f 27/96/33 22/97/33 17/98/33 29/99/33
f 9/100/33 51/101/33 53/102/33 16/103/33
f 72/4/4 71/3/3 18/7/9 19/8/9
f 12/104/52 19/105/52 48/106/52 46/107/52
f 20/87/73 17/26/72 16/25/28 15/24/27
f 22/108/33 11/109/33 17/110/33
f 11/109/33 9/100/33 16/103/33 17/110/33
f 14/53/52 13/111/52 20/112/52 15/54/52
f 30/45/74 36/15/17 35/14/16 29/59/75
f 21/30/87 22/29/87 27/59/53 26/61/56
f 24/113/45 8/19/35 25/114/47
f 28/45/44 23/115/88 24/116/88 25/43/41
f 24/116/89 23/115/89 13/85/89 6/117/89
f 13/111/52 23/118/52 20/112/52
f 27/119/33 29/120/33 35/92/33 33/91/33
f 28/121/52 34/122/52 36/123/52 30/124/52
f 7/19/22 26/125/86 31/126/90
f 41/16/19 42/13/18 48/10/11 47/9/10
f 40/127/52 46/107/52 48/106/52 42/128/52
f 34/122/52 40/127/52 42/128/52 36/123/52
f 7/19/22 31/126/90 37/71/62
f 8/19/35 44/41/39 38/38/36
f 33/14/54 39/16/58 37/70/61 31/60/55
f 2/84/71 12/8/70 46/10/14 44/12/13
f 57/21/91 56/129/92 62/77/65 63/2/66
f 57/130/33 63/131/33 65/132/33 59/133/33
f 58/63/52 52/134/52 54/135/52 60/64/52
f 64/1/80 70/4/69 67/83/68 61/89/81
f 55/90/82 50/93/83 52/23/84 58/20/79
f 59/21/24 60/20/23 54/23/26 53/22/25
f 51/136/33 57/130/33 59/133/33 53/137/33
f 57/21/91 51/22/93 49/138/94 56/129/92
f 12/139/52 70/76/52 72/75/52 19/140/52
f 63/131/33 69/78/33 71/81/33 65/132/33
f 61/52/51 8/19/35 55/66/57
f 1/141/21 68/82/67 7/19/22
f 51/22/93 9/25/31 3/28/30 49/138/94
f 23/142/52 28/143/52 30/144/52 20/145/52
f 4/146/95 21/147/85 7/19/22 3/74/64
