# Blender 5.0.1
# www.blender.org
mtllib battery_mp_1_1.mtl
o battery_mp_1_1
v 0.045503 0.006715 -0.006515
v 0.045503 0.006715 0.006515
v -0.045503 0.018000 -0.013031
v -0.045503 0.011485 -0.011285
v -0.045503 0.006715 -0.006515
v -0.045503 0.006715 0.006515
v -0.045503 0.011485 0.011285
v -0.045503 0.024515 0.011285
v -0.045503 0.029285 0.006515
v -0.045503 0.031031 0.000000
v -0.045503 0.029285 -0.006515
v -0.045503 0.024515 -0.011285
v -0.045504 0.009000 -0.015588
v -0.045504 0.002412 -0.009000
v -0.045504 0.000000 -0.000000
v -0.045504 0.002412 0.009000
v -0.045504 0.009000 0.015588
v -0.045504 0.027000 0.015588
v -0.045504 0.033588 0.009000
v -0.045504 0.036000 0.000000
v -0.045504 0.033588 -0.009000
v -0.045504 0.027000 -0.015588
v -0.047997 0.018000 -0.010046
v -0.047997 0.012977 -0.008700
v -0.047997 0.009300 -0.005023
v -0.047997 0.007954 0.000000
v -0.047997 0.009300 0.005023
v -0.047997 0.012977 0.008700
v -0.047997 0.018000 0.010046
v -0.047997 0.023023 0.008700
v -0.047997 0.026700 0.005023
v -0.047997 0.028046 0.000000
v -0.047997 0.026700 -0.005023
v -0.047997 0.023023 -0.008700
v 0.048999 0.018000 -0.005266
v 0.048999 0.013439 -0.002633
v 0.048999 0.013439 0.002633
v 0.048999 0.018000 0.005266
v 0.048999 0.022561 0.002633
v 0.048999 0.022561 -0.002633
v 0.045500 0.018000 -0.006819
v 0.045500 0.012095 -0.003410
v 0.045500 0.012095 0.003410
v 0.045500 0.018000 0.006819
v 0.045500 0.023905 0.003410
v 0.045500 0.023905 -0.003410
v 0.045500 0.018000 -0.013031
v 0.045500 0.011485 -0.011285
v -0.045500 0.004969 0.000000
v 0.045500 0.004969 0.000000
v 0.045500 0.011485 0.011285
v -0.045500 0.018000 0.013031
v 0.045500 0.018000 0.013031
v 0.045500 0.024515 0.011285
v 0.045500 0.029285 0.006515
v 0.045500 0.031031 0.000000
v 0.045500 0.029285 -0.006515
v 0.045500 0.024515 -0.011285
v 0.045500 0.009000 -0.015588
v 0.045500 0.018000 -0.018000
v 0.045500 0.002412 -0.009000
v 0.045500 0.000000 0.000000
v 0.045500 0.002412 0.009000
v 0.045500 0.009000 0.015588
v 0.045500 0.018000 0.018000
v 0.045500 0.027000 0.015588
v 0.045500 0.033588 0.009000
v 0.045500 0.036000 0.000000
v 0.045500 0.033588 -0.009000
v 0.045500 0.027000 -0.015588
v -0.045500 0.018000 -0.018000
v -0.045500 0.018000 0.018000
v -0.047000 0.010242 -0.013437
v -0.047000 0.018000 -0.015515
v -0.047000 0.025758 -0.013437
v -0.047000 0.004563 -0.007758
v -0.047000 0.002485 0.000000
v -0.047000 0.004563 0.007758
v -0.047000 0.010242 0.013437
v -0.047000 0.018000 0.015515
v -0.047000 0.025758 0.013437
v -0.047000 0.031437 0.007758
v -0.047000 0.033515 0.000000
v -0.047000 0.031437 -0.007758
v 0.047000 0.018000 -0.015515
v 0.047000 0.010242 -0.013437
v 0.047000 0.025758 -0.013437
v 0.047000 0.004563 -0.007758
v 0.047000 0.002485 0.000000
v 0.047000 0.004563 0.007758
v 0.047000 0.010242 0.013437
v 0.047000 0.018000 0.015515
v 0.047000 0.025758 0.013437
v 0.047000 0.031437 0.007758
v 0.047000 0.033515 0.000000
v 0.047000 0.031437 -0.007758
v -0.047997 0.018000 0.000000
v 0.048999 0.018000 0.000000
vn -0.0000 -0.5000 -0.8660
vn -0.0000 -0.8660 -0.5000
vn -0.0000 0.5000 -0.8660
vn -0.0000 -0.0000 -1.0000
vn -0.0000 -1.0000 -0.0000
vn -0.0000 -0.8660 0.5000
vn -0.0000 -0.5000 0.8660
vn -0.0000 -0.0000 1.0000
vn -0.0000 0.5000 0.8660
vn -0.0000 0.8660 0.5000
vn -0.0000 1.0000 -0.0000
vn -0.0000 0.8660 -0.5000
vn -0.8564 -0.2582 -0.4471
vn -0.8563 -0.0000 -0.5164
vn 0.8561 -0.4476 0.2584
vn 0.8561 -0.5168 -0.0000
vn 0.8561 -0.0000 0.5168
vn 0.8562 0.2583 0.4474
vn -0.8565 -0.4469 -0.2580
vn -0.8568 -0.4466 -0.2579
vn -0.8568 -0.5157 -0.0000
vn -0.8564 0.4471 -0.2582
vn -0.8563 0.5164 -0.0000
vn -0.8565 -0.2580 0.4469
vn -0.8565 -0.4469 0.2580
vn 0.8561 0.2584 0.4476
vn -0.8565 -0.0000 0.5161
vn -0.8565 -0.5161 -0.0000
vn -0.8564 0.2582 -0.4471
vn 0.8561 -0.4476 -0.2584
vn 0.8561 -0.2584 -0.4476
vn 0.4056 0.7916 0.4570
vn 0.4056 0.7916 -0.4570
vn 0.4056 -0.7916 -0.4570
vn 0.4056 -0.7916 0.4570
vn 0.4056 -0.0000 0.9140
vn 1.0000 0.0002 -0.0001
vn 1.0000 0.0002 -0.0000
vn 1.0000 0.0002 0.0001
vn 0.4056 -0.0000 -0.9140
vn 1.0000 -0.0000 -0.0000
vn 1.0000 0.0004 -0.0002
vn 0.8561 -0.2584 0.4476
vn -0.7673 0.6413 -0.0000
vn -0.7673 0.5554 -0.3207
vn -0.7673 0.5554 -0.3206
vn 0.8563 0.4473 -0.2582
vn 0.8562 0.2583 -0.4474
vn 0.8561 0.4476 0.2584
vn 0.8561 -0.0000 -0.5168
vn 0.8561 0.2584 -0.4476
vn -0.8564 0.4471 0.2582
vn -0.8565 0.2580 0.4469
vn 0.8561 0.5168 -0.0000
vn 0.8561 0.4476 -0.2584
vn -0.7672 -0.5555 0.3206
vn -0.7672 -0.3206 0.5555
vn -0.7671 -0.0000 0.6416
vn -0.7672 0.3206 0.5555
vn -0.7673 0.5554 0.3207
vn -0.7673 0.3207 -0.5554
vn -0.7673 -0.0000 -0.6413
vn -0.7671 -0.6416 -0.0000
vn -0.7672 -0.5555 -0.3206
vn -1.0000 -0.0000 -0.0000
vn -0.7673 -0.3207 -0.5554
vn -0.8564 -0.0000 -0.5163
vn -0.8566 -0.2578 -0.4469
vn -0.8568 -0.4466 0.2579
vn -0.8566 0.2578 -0.4469
vn -0.8568 0.4466 0.2579
vn -0.8568 0.5157 -0.0000
vn -0.8566 -0.2578 0.4469
vn -0.8566 0.2578 0.4469
vn -0.8568 0.4466 -0.2579
vn -0.8564 -0.0000 0.5163
vn 1.0000 0.0004 0.0002
vn 0.8563 0.4473 0.2582
vn 0.8563 0.5164 -0.0000
vt 0.421875 0.703125
vt 0.421875 0.796875
vt 0.414062 0.796875
vt 0.414062 0.703125
vt 0.398438 0.703125
vt 0.398438 0.796875
vt 0.406250 0.796875
vt 0.406250 0.703125
vt 0.437500 0.703125
vt 0.437500 0.796875
vt 0.429688 0.796875
vt 0.429688 0.703125
vt 0.390625 0.703125
vt 0.390625 0.796875
vt 0.476562 0.703125
vt 0.476562 0.796875
vt 0.488281 0.796875
vt 0.488281 0.703125
vt 0.500000 0.796875
vt 0.500000 0.703125
vt 0.424191 0.753524
vt 0.414192 0.756203
vt 0.414192 0.760016
vt 0.426098 0.756826
vt 0.437338 0.685977
vt 0.433527 0.671757
vt 0.437453 0.671757
vt 0.440737 0.684014
vt 0.461968 0.651168
vt 0.451673 0.653926
vt 0.449710 0.650527
vt 0.461967 0.647242
vt 0.431511 0.746204
vt 0.434813 0.748110
vt 0.390267 0.722392
vt 0.386566 0.736204
vt 0.390380 0.736204
vt 0.393570 0.724298
vt 0.396872 0.746204
vt 0.394193 0.736204
vt 0.393570 0.748110
vt 0.424191 0.718885
vt 0.431511 0.726205
vt 0.434813 0.724298
vt 0.426097 0.715583
vt 0.476188 0.696387
vt 0.461968 0.700197
vt 0.461967 0.696271
vt 0.474225 0.692987
vt 0.414192 0.716206
vt 0.414192 0.712392
vt 0.434190 0.736204
vt 0.438003 0.736204
vt 0.404192 0.753524
vt 0.402286 0.756826
vt 0.437338 0.657537
vt 0.447747 0.647127
vt 0.440737 0.659499
vt 0.412489 0.645585
vt 0.417425 0.645585
vt 0.418274 0.647133
vt 0.411640 0.647133
vt 0.417425 0.634519
vt 0.412488 0.634519
vt 0.411639 0.632972
vt 0.418274 0.632972
vt 0.411399 0.635148
vt 0.408931 0.639423
vt 0.407167 0.639385
vt 0.410483 0.633639
vt 0.408931 0.640681
vt 0.411399 0.644956
vt 0.410483 0.646465
vt 0.407167 0.640720
vt 0.411816 0.633140
vt 0.414957 0.626246
vt 0.418098 0.633140
vt 0.422747 0.639385
vt 0.420982 0.639423
vt 0.418514 0.635148
vt 0.419430 0.633639
vt 0.410541 0.646228
vt 0.403000 0.646955
vt 0.407401 0.640788
vt 0.418991 0.647040
vt 0.426634 0.647632
vt 0.422006 0.652261
vt 0.422513 0.640788
vt 0.426913 0.646955
vt 0.419372 0.646228
vt 0.410923 0.633064
vt 0.403279 0.632472
vt 0.407908 0.627843
vt 0.409846 0.640052
vt 0.412401 0.635626
vt 0.414957 0.640052
vt 0.447747 0.696387
vt 0.449710 0.692987
vt 0.535946 0.659889
vt 0.525623 0.657123
vt 0.527894 0.653379
vt 0.535853 0.655512
vt 0.444137 0.682051
vt 0.451673 0.689587
vt 0.486598 0.685977
vt 0.483198 0.684014
vt 0.461968 0.643316
vt 0.476188 0.647127
vt 0.474225 0.650526
vt 0.396872 0.726205
vt 0.404192 0.718885
vt 0.402286 0.715583
vt 0.490408 0.671757
vt 0.486482 0.671757
vt 0.486598 0.657537
vt 0.483198 0.659499
vt 0.545148 0.623305
vt 0.552705 0.630863
vt 0.548866 0.632970
vt 0.543040 0.627143
vt 0.552404 0.630342
vt 0.555172 0.640665
vt 0.550793 0.640571
vt 0.548659 0.632612
vt 0.548868 0.647759
vt 0.552705 0.649867
vt 0.545148 0.657424
vt 0.543040 0.653586
vt 0.535439 0.655512
vt 0.543398 0.653379
vt 0.545668 0.657123
vt 0.535345 0.659889
vt 0.526144 0.657424
vt 0.518587 0.649867
vt 0.522425 0.647759
vt 0.528252 0.653586
vt 0.520499 0.640158
vt 0.522632 0.648117
vt 0.518888 0.650388
vt 0.516121 0.640064
vt 0.535853 0.625219
vt 0.527893 0.627351
vt 0.525623 0.623606
vt 0.535947 0.620840
vt 0.521861 0.648324
vt 0.519728 0.640364
vt 0.535646 0.640365
vt 0.535345 0.620840
vt 0.545668 0.623606
vt 0.543398 0.627351
vt 0.535439 0.625219
vt 0.520499 0.640571
vt 0.516121 0.640665
vt 0.518888 0.630342
vt 0.522632 0.632612
vt 0.526144 0.623305
vt 0.528252 0.627144
vt 0.522425 0.632970
vt 0.518587 0.630863
vt 0.423027 0.640052
vt 0.427360 0.633729
vt 0.429055 0.640052
vt 0.410541 0.633876
vt 0.407400 0.639317
vt 0.403000 0.633149
vt 0.411816 0.646964
vt 0.418098 0.646964
vt 0.414957 0.653859
vt 0.548661 0.648117
vt 0.550793 0.640158
vt 0.555172 0.640064
vt 0.552404 0.650387
vt 0.414192 0.708579
vt 0.400379 0.712280
vt 0.390267 0.750017
vt 0.428004 0.712280
vt 0.438116 0.750017
vt 0.441817 0.736204
vt 0.400379 0.760128
vt 0.428004 0.760128
vt 0.438116 0.722392
vt 0.414192 0.763829
vt 0.427360 0.646375
vt 0.423027 0.640052
vt 0.415682 0.653956
vt 0.418991 0.647040
vt 0.414231 0.626149
vt 0.410923 0.633064
vt 0.426634 0.632472
vt 0.418991 0.633064
vt 0.422006 0.627843
vt 0.415682 0.626149
vt 0.418991 0.633064
vt 0.402553 0.633729
vt 0.406887 0.640052
vt 0.400859 0.640052
vt 0.403279 0.647632
vt 0.410923 0.647040
vt 0.407908 0.652261
vt 0.402553 0.646375
vt 0.406887 0.640052
vt 0.414231 0.653956
vt 0.410923 0.647040
vt 0.418514 0.644956
vt 0.420982 0.640681
vt 0.422747 0.640720
vt 0.419430 0.646465
vt 0.422513 0.639317
vt 0.419372 0.633876
vt 0.426913 0.633149
vt 0.482556 0.671757
vt 0.479798 0.661462
vt 0.444137 0.661462
vt 0.441379 0.671757
vt 0.479798 0.682051
vt 0.472262 0.653926
vt 0.472262 0.689587
vt 0.461968 0.692345
vt 0.420067 0.640052
vt 0.417512 0.644478
vt 0.417512 0.635626
vt 0.535646 0.656283
vt 0.527687 0.654150
vt 0.549433 0.648324
vt 0.543605 0.654150
vt 0.551565 0.640365
vt 0.527687 0.626579
vt 0.521861 0.632406
vt 0.543604 0.626579
vt 0.549431 0.632406
vt 0.535646 0.624446
vt 0.412401 0.644478
s 1
usemtl batteries_mp_1
f 13/1/1 59/2/1 61/3/2 14/4/2
f 22/5/3 70/6/3 60/7/4 71/8/4
f 15/8/5 62/7/5 63/6/6 16/5/6
f 16/1/6 63/2/6 64/3/7 17/4/7
f 17/9/7 64/10/7 65/11/8 72/12/8
f 72/12/8 65/11/8 66/2/9 18/1/9
f 18/13/9 66/14/9 67/6/10 19/5/10
f 19/15/10 67/16/10 68/17/11 20/18/11
f 20/18/11 68/17/11 69/19/12 21/20/12
f 21/13/12 69/14/12 70/6/3 22/5/3
f 8/21/13 52/22/14 80/23/14 81/24/13
f 14/4/2 61/3/2 62/7/5 15/8/5
f 63/25/15 62/26/16 89/27/16 90/28/15
f 47/29/17 48/30/18 86/31/18 85/32/17
f 9/33/19 8/21/13 81/24/13 82/34/19
f 14/35/20 15/36/21 77/37/21 76/38/20
f 6/39/22 49/40/23 77/37/23 78/41/22
f 12/42/24 11/43/25 84/44/25 75/45/24
f 66/46/26 65/47/17 92/48/17 93/49/26
f 3/50/27 12/42/24 75/45/24 74/51/27
f 10/52/28 9/33/19 82/34/19 83/53/28
f 52/22/14 7/54/29 79/55/29 80/23/14
f 71/8/4 60/7/4 59/3/1 13/4/1
f 61/56/30 59/57/31 86/31/31 88/58/30
f 11/43/25 10/52/28 83/53/28 84/44/25
f 39/59/32 40/60/33 46/61/33 45/62/32
f 36/63/34 37/64/35 43/65/35 42/66/34
f 37/67/35 38/68/36 44/69/36 43/70/35
f 38/71/36 39/72/32 45/73/32 44/74/36
f 43/75/37 50/76/38 42/77/39
f 41/78/40 35/79/40 36/80/34 42/81/34
f 45/82/41 54/83/41 44/84/41
f 46/85/41 58/86/41 57/87/41
f 41/88/41 58/89/41 46/90/41
f 43/91/37 51/92/38 2/93/42
f 38/94/41 37/95/41 98/96/41
f 64/97/43 63/25/15 90/28/15 91/98/43
f 10/99/44 11/100/45 33/101/46 32/102/44
f 2/103/47 51/104/48 91/98/48 90/28/47
f 67/105/49 66/46/26 93/49/26 94/106/49
f 7/54/29 6/39/22 78/41/22 79/55/29
f 60/107/50 70/108/51 87/109/51 85/32/50
f 5/110/52 4/111/53 73/112/53 76/38/52
f 68/113/54 67/105/49 94/106/49 95/114/54
f 65/47/17 64/97/43 91/98/43 92/48/17
f 62/26/16 61/56/30 88/58/30 89/27/16
f 69/115/55 68/113/54 95/114/54 96/116/55
f 6/117/56 7/118/57 28/119/57 27/120/56
f 7/121/57 52/122/58 29/123/58 28/124/57
f 30/125/59 8/126/59 9/127/60 31/128/60
f 32/129/44 31/130/60 9/131/60 10/132/44
f 11/133/45 12/134/61 34/135/61 33/136/46
f 23/137/62 34/138/61 12/139/61 3/140/62
f 26/141/63 25/142/64 5/143/64 49/144/63
f 34/145/65 23/146/65 97/147/65
f 49/148/63 6/149/56 27/150/56 26/151/63
f 23/152/62 3/153/62 4/154/66 24/155/66
f 5/156/64 25/157/64 24/158/66 4/159/66
f 41/160/41 48/161/38 47/162/41
f 43/163/37 44/164/41 51/165/38
f 45/166/41 46/167/41 56/168/41
f 30/169/59 29/170/58 52/171/58 8/172/59
f 71/173/67 13/174/68 73/112/68 74/51/67
f 15/36/21 16/175/69 78/41/69 77/37/21
f 22/176/70 71/173/67 74/51/67 75/45/70
f 19/177/71 20/178/72 83/53/72 82/34/71
f 16/175/69 17/179/73 79/55/73 78/41/69
f 18/180/74 19/177/71 82/34/71 81/24/74
f 21/181/75 22/176/70 75/45/70 84/44/75
f 20/178/72 21/181/75 84/44/75 83/53/72
f 4/111/53 3/50/27 74/51/27 73/112/53
f 13/174/68 14/35/20 76/38/20 73/112/68
f 72/182/76 18/180/74 81/24/74 80/23/76
f 17/179/73 72/182/76 80/23/76 79/55/73
f 49/40/23 5/110/52 76/38/52 77/37/23
f 58/183/41 41/184/41 47/162/41
f 56/185/41 46/186/41 57/87/41
f 50/187/38 43/188/37 2/93/42
f 48/189/38 42/190/39 1/191/77
f 50/192/38 1/191/77 42/193/39
f 51/194/38 44/195/41 53/196/41
f 54/197/41 45/198/41 55/199/41
f 54/200/41 53/196/41 44/201/41
f 56/202/41 55/199/41 45/203/41
f 40/204/33 35/205/40 41/206/40 46/207/33
f 41/208/41 42/209/39 48/210/38
f 56/211/16 57/212/15 96/116/15 95/114/16
f 1/213/78 50/214/79 89/27/79 88/58/78
f 70/108/51 69/115/55 96/116/55 87/109/51
f 55/215/30 56/211/16 95/114/16 94/106/30
f 58/216/43 47/29/17 85/32/17 87/109/43
f 54/217/31 55/215/30 94/106/30 93/49/31
f 57/212/15 58/216/43 87/109/43 96/116/15
f 51/104/48 53/218/50 92/48/50 91/98/48
f 48/30/18 1/213/78 88/58/78 86/31/18
f 53/218/50 54/217/31 93/49/31 92/48/50
f 50/214/79 2/103/47 90/28/47 89/27/79
f 59/57/31 60/107/50 85/32/50 86/31/31
f 35/219/41 40/220/41 98/96/41
f 36/221/41 98/96/41 37/95/41
f 97/147/65 32/222/65 33/223/65
f 30/224/65 31/225/65 97/147/65
f 97/147/65 29/226/65 30/224/65
f 25/227/65 97/147/65 24/228/65
f 97/147/65 27/229/65 28/230/65
f 33/223/65 34/145/65 97/147/65
f 31/225/65 32/222/65 97/147/65
f 26/231/65 97/147/65 25/227/65
f 97/147/65 23/146/65 24/228/65
f 28/230/65 29/226/65 97/147/65
f 97/147/65 26/231/65 27/229/65
f 40/220/41 39/232/41 98/96/41
f 39/232/41 38/94/41 98/96/41
f 36/221/41 35/219/41 98/96/41
