# Blender 5.0.1
# www.blender.org
mtllib cash_3.mtl
o cash_3
v -0.052322 0.004391 -0.062048
v 0.052744 0.002000 -0.062048
v -0.051322 0.000000 0.050000
v -0.051322 0.001682 0.050000
v 0.051744 0.000000 0.050000
v -0.051570 0.002432 -0.007024
v -0.051822 0.001000 -0.007024
v -0.051322 0.001758 0.054243
v 0.051744 0.001758 0.054243
v -0.051322 0.006000 0.056000
v 0.051744 0.006000 0.056000
v 0.051744 0.006000 0.054319
v -0.051322 0.010243 0.054242
v -0.051322 0.009054 0.053053
v 0.051744 0.010243 0.054242
v -0.051322 0.010318 0.049999
v 0.051744 0.012000 0.049999
v -0.052322 0.013581 -0.061796
v 0.052744 0.011542 -0.062043
v 0.052744 0.009845 -0.061941
v -0.051322 0.012000 0.049998
v 0.023089 0.014370 -0.061796
v 0.023089 0.012673 -0.061693
v 0.052244 0.014740 -0.034092
v -0.051822 0.015887 -0.007144
v 0.051994 0.016096 -0.007144
v 0.052042 0.001000 -0.007023
v -0.052322 0.006072 -0.061798
v 0.052744 0.003682 -0.061798
v 0.051744 0.001682 0.050000
v 0.051893 0.002432 -0.007024
v 0.051744 0.002947 0.053054
v -0.051322 0.002947 0.053054
v -0.051322 0.006000 0.054318
v 0.051744 0.009054 0.053053
v 0.051744 0.010318 0.049999
v -0.052322 0.012279 -0.061693
v 0.052244 0.013169 -0.034230
v 0.051869 0.014609 -0.007144
v -0.051572 0.014504 -0.007144
vn -0.0000 0.9998 0.0180
vn 0.0079 0.9994 0.0331
vn -0.0000 0.9821 -0.1884
vn -0.0000 0.9821 -0.1885
vn -0.9967 0.0800 0.0122
vn -0.9967 0.0794 0.0164
vn -0.9967 0.0800 0.0120
vn 0.0071 0.9993 0.0363
vn 0.0227 0.9976 0.0660
vn 0.9988 0.0472 0.0099
vn 0.9998 0.0214 0.0021
vn 0.9996 0.0272 0.0026
vn 0.9988 0.0472 0.0098
vn -0.0000 -0.9998 -0.0179
vn -0.0000 -0.9825 0.1862
vn -0.0000 -0.9826 0.1859
vn -0.0079 -0.9994 -0.0329
vn -0.0227 -0.9979 -0.0613
vn -0.0071 -0.9995 -0.0316
vn -0.9993 0.0361 0.0035
vn -0.9989 0.0459 0.0044
vn -1.0000 -0.0000 -0.0000
vn -0.0000 -0.7071 0.7072
vn -0.0000 0.7071 -0.7071
vn -0.0000 -0.0001 -1.0000
vn -0.0000 0.0001 1.0000
vn -0.0000 0.7072 0.7070
vn -0.0000 -0.7072 -0.7070
vn 0.0003 -0.9730 -0.2310
vn 0.0003 -0.9729 -0.2311
vn -0.9989 -0.0474 0.0005
vn -0.9994 -0.0352 0.0003
vn -0.0005 0.9735 0.2289
vn -0.0005 0.9735 0.2287
vn -0.0248 -0.9979 0.0595
vn -0.0227 -0.9981 0.0577
vn -0.0933 -0.9888 0.1169
vn 0.0210 0.9983 -0.0549
vn 0.0228 0.9981 -0.0564
vn 0.0934 0.9894 -0.1115
vn 0.0003 -0.9998 -0.0174
vn 0.0003 -0.9998 -0.0175
vn -0.0025 0.9993 -0.0365
vn -0.0018 0.9999 0.0163
vn -0.0018 0.9999 0.0164
vn 0.0001 -0.9993 0.0385
vn 0.9992 -0.0404 0.0070
vn 0.9997 -0.0186 0.0161
vn 0.9996 -0.0231 0.0156
vn 0.9992 -0.0404 0.0071
vn -0.9956 -0.0921 0.0152
vn -0.9962 -0.0867 0.0079
vn -0.9962 -0.0868 0.0081
vn -0.0141 -0.0603 -0.9981
vn -0.0070 -0.0642 -0.9979
vn -0.0066 -0.0644 -0.9979
vn 0.9988 0.0466 0.0151
vn 0.9998 -0.0002 0.0180
vn 0.0005 -0.0683 -0.9977
vn 1.0000 -0.0000 -0.0000
vn 0.9999 -0.0170 0.0002
vn 0.9997 -0.0230 0.0002
vn 0.0033 0.1470 -0.9891
vt 0.308775 0.286695
vt 0.308762 0.081878
vt 0.370268 0.081865
vt 0.370281 0.286682
vt 0.438650 0.019509
vt 0.499792 0.019531
vt 0.500000 0.015625
vt 0.438615 0.015580
vt 0.250434 0.288695
vt 0.250294 0.079850
vt 0.438838 0.019500
vt 0.375000 0.019531
vt 0.375000 0.015625
vt 0.438991 0.015563
vt 0.443619 0.498509
vt 0.384584 0.497483
vt 0.384589 0.291456
vt 0.443281 0.290433
vt 0.500011 0.289353
vt 0.499908 0.499552
vt 0.379859 0.497482
vt 0.379864 0.291456
vt 0.372445 0.081864
vt 0.372458 0.286682
vt 0.374622 0.081864
vt 0.374635 0.286681
vt 0.375133 0.497482
vt 0.375138 0.291455
vt 0.375000 0.019531
vt 0.370407 0.497481
vt 0.370412 0.291455
vt 0.376798 0.081863
vt 0.376811 0.286681
vt 0.378975 0.081863
vt 0.378988 0.286680
vt 0.365682 0.497481
vt 0.365686 0.291454
vt 0.470218 0.287668
vt 0.499576 0.229709
vt 0.500077 0.288904
vt 0.250465 0.438470
vt 0.278959 0.498508
vt 0.250011 0.499777
vt 0.440796 0.081849
vt 0.440810 0.286667
vt 0.250456 0.289353
vt 0.306746 0.290419
vt 0.306726 0.497990
vt 0.499567 0.079849
vt 0.311209 0.019396
vt 0.280921 0.019494
vt 0.280976 0.015550
vt 0.311102 0.015355
vt 0.250208 0.019531
vt 0.311214 0.019649
vt 0.311114 0.015860
vt 0.250000 0.015625
vt 0.250104 0.019531
vt 0.220231 0.019531
vt 0.220231 0.015625
vt 0.144531 0.019531
vt 0.144531 0.015625
vt 0.375000 0.019531
vt 0.375000 0.019531
vt 0.250000 0.019531
s 1
usemtl money_1
f 31/1/1 6/2/2 4/3/3 30/4/4
f 6/5/5 28/6/6 1/7/6 7/8/7
f 29/9/8 28/10/9 6/2/2
f 31/11/10 30/12/11 5/13/12 27/14/13
f 27/15/14 5/16/15 3/17/16 7/18/17
f 31/1/1 29/9/8 6/2/2
f 1/19/18 2/20/19 7/18/17
f 4/12/20 3/13/21 8/13/22 33/12/22
f 3/17/16 5/16/15 9/21/23 8/22/23
f 30/4/4 4/3/3 33/23/24 32/24/24
f 32/24/24 33/23/24 34/25/25 12/26/25
f 33/12/22 8/13/22 10/13/22 34/12/22
f 8/22/23 9/21/23 11/27/26 10/28/26
f 34/12/22 10/13/22 13/13/22 14/29/22
f 10/28/26 11/27/26 15/30/27 13/31/27
f 12/26/25 34/25/25 14/32/28 35/33/28
f 35/33/28 14/32/28 16/34/29 36/35/30
f 14/29/22 13/13/22 21/13/31 16/12/32
f 13/31/27 15/30/27 17/36/33 21/37/34
f 38/38/35 23/39/36 20/40/37
f 22/41/38 24/42/39 19/43/40
f 36/35/30 16/34/29 40/44/41 39/45/42
f 2/20/19 27/15/14 7/18/17
f 18/46/43 25/47/44 26/48/45 24/42/39 22/41/38
f 39/45/42 40/44/41 37/49/46 23/39/36 38/38/35
f 39/50/47 38/51/48 24/52/49 26/53/50
f 25/47/44 21/37/34 17/36/33 26/48/45
f 37/54/51 40/55/52 25/56/53 18/57/51
f 40/55/52 16/12/32 21/13/31 25/56/53
f 3/13/21 4/12/20 6/5/5 7/8/7
f 19/57/54 20/58/54 23/59/55 22/60/56
f 2/7/57 29/6/57 31/11/10 27/14/13
f 24/52/49 38/51/48 20/58/58 19/57/58
f 22/60/56 23/59/55 37/61/59 18/62/59
f 15/13/60 35/63/60 36/64/61 17/13/62
f 11/13/60 12/12/60 35/63/60 15/13/60
f 9/13/60 32/63/60 12/12/60 11/13/60
f 5/13/12 30/12/11 32/63/60 9/13/60
f 1/62/63 28/61/63 29/65/63 2/57/63
f 17/13/62 36/64/61 39/50/47 26/53/50
