# Blender 5.0.1
# www.blender.org
mtllib cash_1.mtl
o cash_1
v -0.052322 0.000000 0.114048
v -0.052322 0.036363 0.111548
v -0.052322 0.000000 -0.114048
v -0.052322 0.036363 -0.111548
v 0.052744 0.000000 0.114048
v 0.052744 0.036363 0.111548
v 0.052744 0.000000 -0.114048
v 0.052744 0.036363 -0.111548
v -0.051322 0.000000 -0.000000
v -0.051322 0.031363 -0.000000
v 0.051744 0.000000 -0.000000
v 0.051744 0.031363 -0.000000
v 0.051744 0.033863 0.057024
v -0.051322 0.033863 0.057024
v -0.051322 0.033863 -0.057024
v 0.051744 0.033863 -0.057024
vn 0.9999 0.0079 0.0101
vn 1.0000 0.0032 -0.0000
vn 0.9999 0.0093 0.0120
vn -0.0000 0.0686 -0.9976
vn -0.0000 0.0686 0.9976
vn 0.9999 0.0079 -0.0101
vn 0.9999 0.0093 -0.0120
vn -0.0000 0.9990 -0.0448
vn -0.0000 0.9990 -0.0458
vn -0.0000 0.9990 0.0448
vn -0.0000 1.0000 -0.0000
vn -1.0000 0.0032 -0.0000
vn -0.9999 0.0079 0.0101
vn -0.9999 0.0093 0.0120
vn -0.0000 -1.0000 -0.0000
vn 1.0000 -0.0000 -0.0000
vn -0.0000 0.9990 0.0458
vn -1.0000 -0.0000 -0.0000
vn -0.9999 0.0079 -0.0101
vn -0.9999 0.0093 -0.0120
vt 0.187500 0.570312
vt 0.125000 0.500000
vt 0.250000 0.500000
vt 0.250000 0.570312
vt 0.144959 0.000000
vt 0.144531 0.070312
vt 0.250000 0.070312
vt 0.250000 0.000000
vt 0.062500 0.570312
vt 0.000000 0.570312
vt 0.000000 0.500000
vt 0.062500 0.789062
vt 0.062500 1.000000
vt 0.000000 1.000000
vt 0.000000 0.789062
vt 0.187500 0.789062
vt 0.187500 1.000000
vt 0.125000 1.000000
vt 0.125000 0.789062
vt 0.125000 0.796875
vt 0.125000 0.585938
vt 0.250000 0.585938
vt 0.250000 0.796875
vt 0.125000 0.570312
vt 0.000000 0.796875
vt 0.000000 0.585938
vt 0.250000 0.789062
vt 0.250000 1.000000
vt 0.062500 0.570312
s 1
usemtl money_1
f 16/1/1 11/2/2 7/3/3 8/4/3
f 3/5/4 4/6/4 8/7/4 7/8/4
f 5/8/5 6/7/5 2/6/5 1/5/5
f 11/2/2 13/9/6 6/10/7 5/11/7
f 13/12/8 14/13/8 2/14/9 6/15/9
f 16/16/10 15/17/10 10/18/11 12/19/11
f 9/2/12 15/1/13 4/4/14 3/3/14
f 9/20/15 11/21/15 5/22/15 1/23/15
f 12/19/11 10/18/11 14/13/8 13/12/8
f 11/2/2 12/24/16 13/9/6
f 3/25/15 7/26/15 11/21/15 9/20/15
f 8/27/17 4/28/17 15/17/10 16/16/10
f 9/2/12 10/24/18 15/1/13
f 14/29/19 9/2/12 1/11/20 2/10/20
f 11/2/2 16/1/1 12/24/16
f 9/2/12 14/29/19 10/24/18
