# Blender 5.0.1
# www.blender.org
mtllib cash_6_1.mtl
o cash_6_1
v -0.062786 0.004391 -0.062048
v 0.063293 0.002000 -0.062048
v -0.061586 0.000000 0.050000
v -0.061586 0.001682 0.050000
v 0.062093 0.000000 0.050000
v -0.061883 0.002432 -0.007024
v -0.062186 0.001000 -0.007024
v -0.061586 0.001758 0.054243
v 0.062093 0.001758 0.054243
v -0.061586 0.006000 0.056000
v 0.062093 0.006000 0.056000
v 0.062093 0.006000 0.054319
v -0.061586 0.010243 0.054242
v -0.061586 0.009054 0.053053
v 0.062093 0.010243 0.054242
v -0.061586 0.010318 0.049999
v 0.062093 0.012000 0.049999
v -0.062786 0.013581 -0.061796
v 0.063293 0.011542 -0.062043
v 0.063293 0.009845 -0.061941
v -0.061586 0.012000 0.049998
v 0.027706 0.014370 -0.061796
v 0.027706 0.012673 -0.061693
v 0.062693 0.014740 -0.034092
v -0.062186 0.015887 -0.007144
v 0.062393 0.016096 -0.007144
v 0.062450 0.001000 -0.007023
v -0.062786 0.006072 -0.061798
v 0.063293 0.003682 -0.061798
v 0.062093 0.001682 0.050000
v 0.062272 0.002432 -0.007024
v 0.062093 0.002947 0.053054
v -0.061586 0.002947 0.053054
v -0.061586 0.006000 0.054318
v 0.062093 0.009054 0.053053
v 0.062093 0.010318 0.049999
v -0.062786 0.012279 -0.061693
v 0.062693 0.013169 -0.034230
v 0.062243 0.014609 -0.007144
v -0.061886 0.014504 -0.007144
vn -0.0000 0.9998 0.0180
vn 0.0071 0.9994 0.0341
vn -0.0000 0.9821 -0.1883
vn -0.0000 0.9821 -0.1885
vn -0.9953 0.0959 0.0146
vn -0.9953 0.0951 0.0197
vn -0.9953 0.0959 0.0144
vn 0.0050 0.9994 0.0343
vn 0.0189 0.9976 0.0660
vn 0.9983 0.0566 0.0119
vn 0.9997 0.0256 0.0025
vn 0.9995 0.0326 0.0032
vn 0.9983 0.0566 0.0118
vn -0.0000 -0.9998 -0.0179
vn -0.0000 -0.9825 0.1861
vn -0.0000 -0.9826 0.1858
vn -0.0070 -0.9994 -0.0339
vn -0.0189 -0.9979 -0.0613
vn -0.0050 -0.9995 -0.0296
vn -0.9991 0.0432 0.0042
vn -0.9985 0.0551 0.0053
vn -1.0000 -0.0000 -0.0000
vn -0.0000 -0.7071 0.7072
vn -0.0000 0.7071 -0.7071
vn -0.0000 -0.0001 -1.0000
vn -0.0000 0.0001 1.0000
vn -0.0000 0.7072 0.7070
vn -0.0000 -0.7072 -0.7070
vn 0.0002 -0.9730 -0.2309
vn 0.0002 -0.9729 -0.2311
vn -0.9984 -0.0568 0.0006
vn -0.9991 -0.0422 0.0004
vn -0.0004 0.9735 0.2288
vn -0.0004 0.9735 0.2286
vn -0.0230 -0.9978 0.0618
vn -0.0167 -0.9983 0.0555
vn -0.0779 -0.9901 0.1171
vn 0.0152 0.9985 -0.0528
vn 0.0214 0.9981 -0.0586
vn 0.0780 0.9907 -0.1117
vn 0.0003 -0.9998 -0.0174
vn -0.0021 0.9993 -0.0365
vn -0.0015 0.9999 0.0163
vn -0.0015 0.9999 0.0164
vn 0.0001 -0.9993 0.0385
vn 0.9988 -0.0485 0.0084
vn 0.9996 -0.0223 0.0193
vn 0.9994 -0.0277 0.0187
vn 0.9988 -0.0485 0.0085
vn -0.9937 -0.1103 0.0182
vn -0.9946 -0.1038 0.0095
vn -0.9945 -0.1040 0.0097
vn -0.0117 -0.0603 -0.9981
vn -0.0058 -0.0642 -0.9979
vn -0.0055 -0.0644 -0.9979
vn 0.9983 0.0559 0.0181
vn 0.9998 -0.0002 0.0216
vn 0.0004 -0.0683 -0.9977
vn 1.0000 -0.0000 -0.0000
vn 0.9998 -0.0205 0.0002
vn 0.9996 -0.0275 0.0003
vn 0.0028 0.1471 -0.9891
vt 0.808698 0.997132
vt 0.808685 0.731129
vt 0.870191 0.731112
vt 0.870204 0.997115
vt 0.938573 0.394509
vt 0.999714 0.394531
vt 0.999923 0.390625
vt 0.938538 0.390580
vt 0.750357 0.999729
vt 0.750217 0.728495
vt 0.938761 0.394500
vt 0.874923 0.394531
vt 0.874923 0.390625
vt 0.938914 0.390563
vt 0.943542 0.725403
vt 0.884507 0.724071
vt 0.884512 0.456498
vt 0.943204 0.455168
vt 0.999934 0.453767
vt 0.999831 0.726759
vt 0.879782 0.724070
vt 0.879787 0.456497
vt 0.872368 0.731111
vt 0.872381 0.997114
vt 0.874545 0.731111
vt 0.874558 0.997114
vt 0.875056 0.724070
vt 0.875061 0.456496
vt 0.874923 0.394531
vt 0.870330 0.724069
vt 0.870335 0.456496
vt 0.876721 0.731110
vt 0.876734 0.997113
vt 0.878898 0.731109
vt 0.878911 0.997112
vt 0.865605 0.724069
vt 0.865609 0.456495
vt 0.970141 0.998395
vt 0.999499 0.923121
vt 1.000000 1.000000
vt 0.750388 0.647429
vt 0.778882 0.725403
vt 0.749934 0.727051
vt 0.940719 0.731092
vt 0.940733 0.997095
vt 0.750379 0.453767
vt 0.806669 0.455151
vt 0.806649 0.724729
vt 0.999490 0.728495
vt 0.811132 0.394396
vt 0.780844 0.394494
vt 0.780899 0.390550
vt 0.811025 0.390355
vt 0.750131 0.394531
vt 0.811137 0.394649
vt 0.811037 0.390860
vt 0.749923 0.390625
vt 0.859298 0.390625
vt 0.859402 0.394531
vt 0.829529 0.394531
vt 0.829529 0.390625
vt 0.750027 0.394531
vt 0.753829 0.394531
vt 0.753829 0.390625
vt 0.859298 0.394531
s 1
usemtl money_1
f 31/1/1 6/2/2 4/3/3 30/4/4
f 6/5/5 28/6/6 1/7/6 7/8/7
f 29/9/8 28/10/9 6/2/2
f 31/11/10 30/12/11 5/13/12 27/14/13
f 27/15/14 5/16/15 3/17/16 7/18/17
f 31/1/1 29/9/8 6/2/2
f 1/19/18 2/20/19 7/18/17
f 4/12/20 3/13/21 8/13/22 33/12/22
f 3/17/16 5/16/15 9/21/23 8/22/23
f 30/4/4 4/3/3 33/23/24 32/24/24
f 32/24/24 33/23/24 34/25/25 12/26/25
f 33/12/22 8/13/22 10/13/22 34/12/22
f 8/22/23 9/21/23 11/27/26 10/28/26
f 34/12/22 10/13/22 13/13/22 14/29/22
f 10/28/26 11/27/26 15/30/27 13/31/27
f 12/26/25 34/25/25 14/32/28 35/33/28
f 35/33/28 14/32/28 16/34/29 36/35/30
f 14/29/22 13/13/22 21/13/31 16/12/32
f 13/31/27 15/30/27 17/36/33 21/37/34
f 38/38/35 23/39/36 20/40/37
f 22/41/38 24/42/39 19/43/40
f 36/35/30 16/34/29 40/44/41 39/45/41
f 2/20/19 27/15/14 7/18/17
f 18/46/42 25/47/43 26/48/44 24/42/39 22/41/38
f 39/45/41 40/44/41 37/49/45 23/39/36 38/38/35
f 39/50/46 38/51/47 24/52/48 26/53/49
f 25/47/43 21/37/34 17/36/33 26/48/44
f 37/54/50 40/55/51 25/56/52 18/57/50
f 40/55/51 16/12/32 21/13/31 25/56/52
f 3/13/21 4/12/20 6/5/5 7/8/7
f 19/58/53 20/59/53 23/60/54 22/61/55
f 2/7/56 29/6/56 31/11/10 27/14/13
f 24/52/48 38/51/47 20/62/57 19/57/57
f 22/61/55 23/60/54 37/63/58 18/64/58
f 15/13/59 35/12/59 36/12/60 17/13/61
f 11/13/59 12/12/59 35/12/59 15/13/59
f 9/13/59 32/12/59 12/12/59 11/13/59
f 5/13/12 30/12/11 32/12/59 9/13/59
f 1/64/62 28/63/62 29/65/62 2/58/62
f 17/13/61 36/12/60 39/50/46 26/53/49
