# Blender 5.0.1
# www.blender.org
mtllib cash_1_2.mtl
o cash_1_2
v -0.052322 0.000000 0.114048
v -0.052322 0.036363 0.111548
v -0.052322 0.000000 -0.114048
v -0.052322 0.036363 -0.111548
v 0.052744 0.000000 0.114048
v 0.052744 0.036363 0.111548
v 0.052744 0.000000 -0.114048
v 0.052744 0.036363 -0.111548
v -0.051322 0.000000 -0.000000
v -0.051322 0.031363 -0.000000
v 0.051744 0.000000 -0.000000
v 0.051744 0.031363 -0.000000
v 0.051744 0.033863 0.057024
v -0.051322 0.033863 0.057024
v -0.051322 0.033863 -0.057024
v 0.051744 0.033863 -0.057024
vn 0.9999 0.0093 0.0120
vn 0.9999 0.0079 0.0101
vn 1.0000 0.0032 -0.0000
vn -0.0000 0.0686 -0.9976
vn -0.0000 0.0686 0.9976
vn 0.9999 0.0079 -0.0101
vn 0.9999 0.0093 -0.0120
vn -0.0000 0.9990 -0.0448
vn -0.0000 0.9990 -0.0458
vn -0.0000 0.9990 0.0448
vn -0.0000 1.0000 -0.0000
vn -1.0000 0.0032 -0.0000
vn -0.9999 0.0079 0.0101
vn -0.9999 0.0093 0.0120
vn 1.0000 -0.0000 -0.0000
vn -0.0000 -1.0000 -0.0000
vn -0.0000 0.9990 0.0458
vn -1.0000 -0.0000 -0.0000
vn -0.9999 0.0079 -0.0101
vn -0.9999 0.0093 -0.0120
vt 0.500000 0.500000
vt 0.500000 0.570312
vt 0.437500 0.570312
vt 0.375000 0.500000
vt 0.144959 0.000000
vt 0.144531 0.070312
vt 0.250000 0.070312
vt 0.250000 0.000000
vt 0.312500 0.570312
vt 0.250000 0.570312
vt 0.250000 0.500000
vt 0.312500 0.781250
vt 0.312500 1.000000
vt 0.250000 1.000000
vt 0.250000 0.781250
vt 0.437500 0.781250
vt 0.437500 1.000000
vt 0.375000 1.000000
vt 0.375000 0.781250
vt 0.375000 0.570312
vt 0.375000 0.789062
vt 0.375000 0.585938
vt 0.500000 0.585938
vt 0.500000 0.789062
vt 0.500000 0.781250
vt 0.500000 1.000000
vt 0.250000 0.789062
vt 0.250000 0.585938
vt 0.312500 0.570312
s 1
usemtl money_1
f 7/1/1 8/2/1 16/3/2 11/4/3
f 3/5/4 4/6/4 8/7/4 7/8/4
f 5/8/5 6/7/5 2/6/5 1/5/5
f 11/4/3 13/9/6 6/10/7 5/11/7
f 13/12/8 14/13/8 2/14/9 6/15/9
f 16/16/10 15/17/10 10/18/11 12/19/11
f 9/4/12 15/3/13 4/2/14 3/1/14
f 16/3/2 12/20/15 11/4/3
f 9/21/16 11/22/16 5/23/16 1/24/16
f 12/19/11 10/18/11 14/13/8 13/12/8
f 11/4/3 12/20/15 13/9/6
f 8/25/17 4/26/17 15/17/10 16/16/10
f 9/4/12 10/20/18 15/3/13
f 3/27/16 7/28/16 11/22/16 9/21/16
f 14/29/19 9/4/12 1/11/20 2/10/20
f 9/4/12 14/29/19 10/20/18
