# Blender 5.0.1
# www.blender.org
mtllib cig_1.mtl
o cig_1
v -0.076500 -0.000000 0.000000
v -0.076500 0.001977 0.004773
v -0.076500 0.006750 0.006750
v -0.076500 0.013500 0.000000
v -0.076500 0.011523 0.004773
v -0.076500 0.006750 -0.006750
v -0.076500 0.001977 -0.004773
v -0.076500 0.011523 -0.004773
v 0.076500 -0.000000 0.000000
v 0.076500 0.001977 0.004773
v 0.076500 0.013500 0.000000
v 0.076500 0.006750 0.006750
v 0.076500 0.011523 0.004773
v 0.076500 0.001977 -0.004773
v 0.076500 0.006750 -0.006750
v 0.076500 0.011523 -0.004773
v -0.076500 0.006750 0.000000
v 0.076500 0.006750 0.000000
vn 1.0000 -0.0000 -0.0000
vn -1.0000 -0.0000 -0.0000
vn -0.0000 -1.0000 -0.0000
vn -0.0000 -0.7071 -0.7071
vn -0.0000 -0.0000 -1.0000
vn -0.0000 1.0000 -0.0000
vn -0.0000 0.7071 -0.7071
vn -0.0000 -0.7071 0.7071
vn -0.0000 -0.0000 1.0000
vn -0.0000 0.7071 0.7071
vt 0.697650 0.952246
vt 0.718144 0.905678
vt 0.747128 0.932957
vt 0.697650 0.833835
vt 0.747128 0.814546
vt 0.747128 0.853124
vt 0.625000 0.233766
vt 0.625000 1.000000
vt 0.597222 1.000000
vt 0.597222 0.233766
vt 0.569444 1.000000
vt 0.569444 0.233766
vt 0.500000 1.000000
vt 0.500000 0.233766
vt 0.527778 0.233766
vt 0.527778 1.000000
vt 0.677155 0.998814
vt 0.718144 0.998814
vt 0.718145 0.880403
vt 0.677155 0.880403
vt 0.648171 0.853124
vt 0.677155 0.787267
vt 0.648171 0.814546
vt 0.648171 0.932957
vt 0.648171 0.971535
vt 0.747128 0.971535
vt 0.677155 0.905678
vt 0.718144 0.787267
s 1
usemtl cigs_packet_1
f 18/1/1 13/2/1 12/3/1
f 17/4/2 8/5/2 6/6/2
f 9/7/3 1/8/3 7/9/4 14/10/4
f 14/10/4 7/9/4 6/11/5 15/12/5
f 4/13/6 11/14/6 16/15/7 8/16/7
f 8/16/7 16/15/7 15/12/5 6/11/5
f 1/13/3 9/14/3 10/15/8 2/16/8
f 2/16/8 10/15/8 12/12/9 3/11/9
f 11/7/6 4/8/6 5/9/10 13/10/10
f 13/10/10 5/9/10 3/11/9 12/12/9
f 14/17/1 18/1/1 9/18/1
f 17/4/2 7/19/2 1/20/2
f 2/21/2 17/4/2 1/20/2
f 5/22/2 17/4/2 3/23/2
f 16/24/1 18/1/1 15/25/1
f 18/1/1 10/26/1 9/18/1
f 18/1/1 11/27/1 13/2/1
f 17/4/2 4/28/2 8/5/2
f 14/17/1 15/25/1 18/1/1
f 17/4/2 6/6/2 7/19/2
f 2/21/2 3/23/2 17/4/2
f 5/22/2 4/28/2 17/4/2
f 16/24/1 11/27/1 18/1/1
f 18/1/1 12/3/1 10/26/1
