# Blender 5.0.1
# www.blender.org
mtllib cigs_packet_1.mtl
o cigs_packet_1
v -0.081000 0.000000 -0.048601
v -0.081000 0.042120 -0.048601
v 0.081000 -0.000000 -0.048601
v 0.081000 0.042120 -0.048601
v -0.081000 0.000000 0.048601
v -0.081000 0.042120 0.048601
v 0.081000 0.000000 0.048600
v 0.081000 0.042120 0.048600
vn -1.0000 -0.0000 -0.0000
vn -0.0000 -0.0000 1.0000
vn -0.0000 -0.0000 -1.0000
vn 1.0000 -0.0000 -0.0000
vn -0.0000 -1.0000 -0.0000
vn -0.0000 1.0000 -0.0000
vt 0.500000 -0.000000
vt 0.500000 0.233766
vt 0.000000 0.233766
vt -0.000000 -0.000000
vt 1.000000 1.000000
vt 0.750000 1.000000
vt 0.750000 0.233766
vt 1.000000 0.233766
vt 1.000000 0.000000
vt 0.500000 0.233766
vt 0.500000 1.000000
vt 0.000000 1.000000
vt 0.000000 0.233766
s 1
usemtl cigs_packet_1
f 5/1/1 6/2/1 2/3/1 1/4/1
f 7/5/2 8/6/2 6/7/2 5/8/2
f 1/7/3 2/8/3 4/5/3 3/6/3
f 3/8/4 4/9/4 8/1/4 7/2/4
f 1/10/5 3/11/5 7/12/5 5/13/5
f 4/12/6 2/3/6 6/2/6 8/11/6
