# Blender 5.0.1
# www.blender.org
mtllib coin_mp_1.mtl
o coin_mp_1
v -0.005044 0.000000 0.018836
v -0.018833 0.000000 -0.005046
v -0.013786 0.000000 0.013789
v -0.018833 0.000000 0.005048
v -0.018833 0.003000 -0.005046
v -0.005044 0.003000 0.018836
v -0.018833 0.003000 0.005048
v -0.013786 0.003000 0.013789
v 0.005050 0.000000 -0.018835
v -0.013786 0.000000 -0.013788
v -0.005044 0.000000 -0.018835
v 0.005050 0.003000 -0.018835
v -0.005044 0.003000 -0.018835
v -0.013786 0.003000 -0.013788
v 0.018838 0.000000 0.005048
v 0.013791 0.000000 0.013789
v 0.005050 0.000000 0.018836
v 0.018838 0.003000 0.005048
v 0.005050 0.003000 0.018836
v 0.013791 0.003000 0.013789
v 0.013791 0.000000 -0.013788
v 0.018838 0.000000 -0.005046
v 0.018838 0.003000 -0.005046
v 0.013791 0.003000 -0.013788
v 0.000003 0.003000 0.000001
v 0.000003 0.000000 0.000001
vn -0.0000 1.0000 -0.0000
vn -0.2588 -0.0000 0.9659
vn -0.7071 -0.0000 0.7071
vn -0.9659 -0.0000 0.2588
vn -0.9659 -0.0000 -0.2588
vn 0.2588 -0.0000 -0.9659
vn -0.2588 -0.0000 -0.9659
vn -0.7071 -0.0000 -0.7071
vn 0.9659 -0.0000 0.2588
vn 0.9659 -0.0000 -0.2588
vn 0.7071 -0.0000 -0.7071
vn 0.2588 -0.0000 0.9659
vn 0.7071 -0.0000 0.7071
vn -0.0000 -1.0000 -0.0000
vt 0.101206 0.469818
vt 0.130942 0.409862
vt 0.120058 0.491763
vt 0.016519 0.328125
vt 0.016519 0.312500
vt 0.039956 0.312500
vt 0.039956 0.328125
vt 0.063394 0.312500
vt 0.063394 0.328125
vt 0.086831 0.312500
vt 0.086831 0.328125
vt 0.157144 0.312500
vt 0.157144 0.328125
vt 0.133706 0.328125
vt 0.133706 0.312500
vt 0.110269 0.328125
vt 0.110269 0.312500
vt 0.003965 0.431734
vt 0.044586 0.409789
vt 0.014849 0.469745
vt 0.160679 0.469818
vt 0.141827 0.491763
vt 0.120058 0.327960
vt 0.141827 0.327960
vt 0.090321 0.387916
vt 0.101206 0.349906
vt 0.090321 0.431807
vt 0.171563 0.387916
vt 0.171563 0.431807
vt 0.160679 0.349906
vt 0.055470 0.491690
vt 0.033702 0.491690
vt 0.014849 0.349832
vt 0.033702 0.327887
vt 0.055470 0.327887
vt 0.074323 0.349832
vt 0.003965 0.387843
vt 0.085207 0.431734
vt 0.074323 0.469745
vt 0.085207 0.387843
s 1
usemtl money_1
f 14/1/1 25/2/1 13/3/1
f 1/4/2 6/5/2 8/6/3 3/7/3
f 3/7/3 8/6/3 7/8/4 4/9/4
f 4/9/4 7/8/4 5/10/5 2/11/5
f 12/12/6 9/13/6 11/14/7 13/15/7
f 13/15/7 11/14/7 10/16/8 14/17/8
f 14/17/8 10/16/8 2/11/5 5/10/5
f 18/10/9 15/11/9 22/9/10 23/8/10
f 23/8/10 22/9/10 21/7/11 24/6/11
f 24/6/11 21/7/11 9/4/6 12/5/6
f 6/12/2 1/13/2 17/14/12 19/15/12
f 19/15/12 17/14/12 16/16/13 20/17/13
f 20/17/13 16/16/13 15/11/9 18/10/9
f 22/18/14 26/19/14 21/20/14
f 24/21/1 12/22/1 25/2/1
f 25/2/1 6/23/1 19/24/1
f 25/2/1 7/25/1 8/26/1
f 5/27/1 25/2/1 14/1/1
f 25/2/1 12/22/1 13/3/1
f 25/2/1 18/28/1 23/29/1
f 23/29/1 24/21/1 25/2/1
f 19/24/1 20/30/1 25/2/1
f 20/30/1 18/28/1 25/2/1
f 8/26/1 6/23/1 25/2/1
f 25/2/1 5/27/1 7/25/1
f 11/31/14 9/32/14 26/19/14
f 26/19/14 16/33/14 17/34/14
f 26/19/14 1/35/14 3/36/14
f 15/37/14 26/19/14 22/18/14
f 26/19/14 9/32/14 21/20/14
f 26/19/14 2/38/14 10/39/14
f 10/39/14 11/31/14 26/19/14
f 17/34/14 1/35/14 26/19/14
f 26/19/14 15/37/14 16/33/14
f 3/36/14 4/40/14 26/19/14
f 4/40/14 2/38/14 26/19/14
