# Blender 5.0.1
# www.blender.org
mtllib compact_disc_mp_1.mtl
o compact_disc_mp_1
v -0.003227 0.000000 0.012044
v -0.008817 0.000000 0.008817
v -0.012044 0.000000 0.003227
v -0.012044 0.001800 0.003227
v -0.008817 0.001800 0.008817
v -0.003227 0.001800 0.012044
v -0.012044 0.000000 -0.003227
v -0.008817 0.000000 -0.008817
v -0.003227 0.000000 -0.012044
v -0.003227 0.001800 -0.012044
v -0.008817 0.001800 -0.008817
v -0.012044 0.001800 -0.003227
v 0.012044 0.000000 0.003227
v 0.008817 0.000000 0.008817
v 0.003227 0.000000 0.012044
v 0.003227 0.000000 -0.012044
v 0.008817 0.000000 -0.008817
v 0.012044 0.000000 -0.003227
v 0.012044 0.001800 -0.003227
v 0.008817 0.001800 -0.008817
v 0.003227 0.001800 -0.012044
v 0.003227 0.001800 0.012044
v 0.008817 0.001800 0.008817
v 0.012044 0.001800 0.003227
v -0.086933 0.000000 -0.023294
v -0.090000 0.000000 0.000000
v 0.023294 0.001800 0.086933
v 0.000000 0.001800 0.090000
v 0.090000 0.001800 0.000000
v 0.086933 0.001800 0.023294
v -0.090000 0.001800 0.000000
v -0.086933 0.001800 -0.023294
v 0.023294 0.000000 -0.086933
v 0.000000 0.000000 -0.090000
v 0.000000 0.001800 -0.090000
v 0.023294 0.001800 -0.086933
v 0.090000 0.000000 0.000000
v 0.086933 0.000000 -0.023294
v 0.000000 0.000000 0.090000
v 0.023294 0.000000 0.086933
v 0.045000 0.000000 -0.077942
v 0.045000 0.001800 -0.077942
v 0.063640 0.000000 -0.063640
v 0.063640 0.001800 -0.063640
v 0.077942 0.000000 -0.045000
v 0.077942 0.001800 -0.045000
v 0.086933 0.001800 -0.023294
v 0.045000 0.001800 0.077942
v 0.045000 0.000000 0.077942
v 0.063640 0.001800 0.063640
v 0.063640 0.000000 0.063640
v 0.077942 0.001800 0.045000
v 0.077942 0.000000 0.045000
v 0.086933 0.000000 0.023294
v -0.086933 0.001800 0.023294
v -0.086933 0.000000 0.023294
v -0.077942 0.001800 0.045000
v -0.077942 0.000000 0.045000
v -0.063640 0.001800 0.063640
v -0.063640 0.000000 0.063640
v -0.045000 0.001800 0.077942
v -0.045000 0.000000 0.077942
v -0.023294 0.001800 0.086933
v -0.023294 0.000000 0.086933
v -0.023294 0.001800 -0.086933
v -0.023294 0.000000 -0.086933
v -0.045000 0.001800 -0.077942
v -0.045000 0.000000 -0.077942
v -0.063640 0.001800 -0.063640
v -0.063640 0.000000 -0.063640
v -0.077942 0.001800 -0.045000
v -0.077942 0.000000 -0.045000
vn -0.0000 -0.0000 -1.0000
vn 0.2588 -0.0000 -0.9659
vn 0.5000 -0.0000 -0.8660
vn 0.7071 -0.0000 -0.7071
vn 0.8660 -0.0000 -0.5000
vn 0.9659 -0.0000 -0.2588
vn 1.0000 -0.0000 -0.0000
vn -0.0000 -0.0000 1.0000
vn 0.2588 -0.0000 0.9659
vn 0.5000 -0.0000 0.8660
vn 0.7071 -0.0000 0.7071
vn 0.8660 -0.0000 0.5000
vn 0.9659 -0.0000 0.2588
vn -1.0000 -0.0000 -0.0000
vn -0.9659 -0.0000 0.2588
vn -0.8660 -0.0000 0.5000
vn -0.7071 -0.0000 0.7071
vn -0.5000 -0.0000 0.8660
vn -0.2588 -0.0000 0.9659
vn -0.2588 -0.0000 -0.9659
vn -0.5000 -0.0000 -0.8660
vn -0.7071 -0.0000 -0.7071
vn -0.8660 -0.0000 -0.5000
vn -0.9659 -0.0000 -0.2588
vn -0.0000 1.0000 -0.0000
vn -0.0000 -1.0000 -0.0000
vt 0.179688 0.022727
vt 0.179688 0.007576
vt 0.246094 0.007576
vt 0.246094 0.022727
vt 0.308594 0.007576
vt 0.308594 0.022727
vt 0.375000 0.007576
vt 0.375000 0.022727
vt 0.441406 0.007576
vt 0.441406 0.022727
vt 0.503906 0.007576
vt 0.503906 0.022727
vt 0.570312 0.007576
vt 0.570312 0.022727
vt 0.323867 0.007576
vt 0.340195 0.007576
vt 0.340195 0.022727
vt 0.323867 0.022727
vt 0.781817 0.530834
vt 0.781892 0.497728
vt 0.988031 0.516026
vt 0.511969 0.511997
vt 0.718183 0.497188
vt 0.718108 0.530295
vt 0.741326 0.575717
vt 0.758397 0.575862
vt 0.748962 0.975648
vt 0.758397 0.575862
vt 0.773217 0.559434
vt 0.868116 0.914807
vt 0.773217 0.559434
vt 0.781817 0.530834
vt 0.955622 0.746574
vt 0.869915 0.115230
vt 0.773421 0.468984
vt 0.758675 0.452306
vt 0.956661 0.284938
vt 0.781892 0.497728
vt 0.773421 0.468984
vt 0.919048 0.189010
vt 0.544378 0.281449
vt 0.726783 0.468590
vt 0.718183 0.497188
vt 0.781892 0.497728
vt 0.980190 0.396477
vt 0.718183 0.497188
vt 0.520349 0.392586
vt 0.631884 0.113216
vt 0.741604 0.452161
vt 0.726783 0.468589
vt 0.582421 0.186161
vt 0.630085 0.912793
vt 0.726579 0.559039
vt 0.741326 0.575717
vt 0.741604 0.452161
vt 0.689397 0.067584
vt 0.543340 0.743085
vt 0.718108 0.530295
vt 0.726579 0.559039
vt 0.726579 0.559039
vt 0.580952 0.839013
vt 0.340195 0.007576
vt 0.718108 0.530295
vt 0.519811 0.631546
vt 0.375352 0.007576
vt 0.375352 0.022727
vt 0.359023 0.022727
vt 0.359023 0.007576
vt 0.409805 0.007576
vt 0.426133 0.007576
vt 0.426133 0.022727
vt 0.409805 0.022727
vt 0.359023 0.007576
vt 0.375352 0.007576
vt 0.359023 0.022727
vt 0.410596 0.022727
vt 0.390186 0.022727
vt 0.390186 0.007576
vt 0.410596 0.007576
vt 0.426133 0.007576
vt 0.374648 0.007576
vt 0.390977 0.007576
vt 0.390977 0.022727
vt 0.374648 0.022727
vt 0.390186 0.022727
vt 0.390186 0.007576
vt 0.810604 0.960439
vt 0.758397 0.575862
vt 0.390977 0.022727
vt 0.374648 0.007576
vt 0.390977 0.007576
vt 0.339404 0.022727
vt 0.339404 0.007576
vt 0.359814 0.007576
vt 0.359814 0.022727
vt 0.339404 0.022727
vt 0.339404 0.007576
vt 0.359814 0.007576
vt 0.359814 0.022727
vt 0.773217 0.559434
vt 0.917579 0.841862
vt 0.726579 0.559039
vt 0.718183 0.497188
vt 0.741326 0.575717
vt 0.687390 0.959396
vt 0.773217 0.559434
vt 0.726783 0.468589
vt 0.979652 0.635437
vt 0.812610 0.068627
vt 0.751039 0.052375
vt 0.758675 0.452306
vt 0.741326 0.575718
vt 0.781892 0.497728
vt 0.773421 0.468984
vt 0.741604 0.452161
vt 0.281988 0.530925
vt 0.489310 0.516037
vt 0.282063 0.497640
vt 0.010691 0.511986
vt 0.217937 0.530383
vt 0.218012 0.497098
vt 0.241279 0.576049
vt 0.248956 0.978127
vt 0.258441 0.576194
vt 0.368751 0.916960
vt 0.273342 0.559677
vt 0.456726 0.747823
vt 0.281988 0.530925
vt 0.370559 0.113088
vt 0.258721 0.451974
vt 0.273547 0.468742
vt 0.457770 0.283708
vt 0.273547 0.468742
vt 0.282063 0.497640
vt 0.273547 0.468742
vt 0.419956 0.187264
vt 0.043274 0.280200
vt 0.226658 0.468346
vt 0.282063 0.497640
vt 0.481426 0.395846
vt 0.218012 0.497098
vt 0.019115 0.391934
vt 0.131250 0.111063
vt 0.226658 0.468345
vt 0.241559 0.451829
vt 0.226658 0.468345
vt 0.081521 0.184400
vt 0.129441 0.914935
vt 0.241279 0.576049
vt 0.226453 0.559281
vt 0.241559 0.451829
vt 0.189071 0.065186
vt 0.042230 0.744316
vt 0.226453 0.559281
vt 0.217937 0.530383
vt 0.226453 0.559281
vt 0.080044 0.840759
vt 0.018575 0.632177
vt 0.258442 0.576194
vt 0.310929 0.962837
vt 0.418479 0.843623
vt 0.273342 0.559677
vt 0.226453 0.559281
vt 0.218012 0.497098
vt 0.187054 0.961788
vt 0.241279 0.576049
vt 0.258442 0.576194
vt 0.273342 0.559677
vt 0.480885 0.636089
vt 0.281988 0.530925
vt 0.281988 0.530925
vt 0.312947 0.066235
vt 0.258721 0.451974
vt 0.251044 0.049896
vt 0.241559 0.451829
vt 0.258721 0.451974
vt 0.273547 0.468742
vt 0.217937 0.530383
vt 0.241559 0.451829
s 1
usemtl compact_disc_mp_1
f 34/1/1 35/2/1 36/3/2 33/4/2
f 33/4/2 36/3/2 42/5/3 41/6/3
f 41/6/3 42/5/3 44/7/4 43/8/4
f 43/8/4 44/7/4 46/9/5 45/10/5
f 45/10/5 46/9/5 47/11/6 38/12/6
f 38/12/6 47/11/6 29/13/7 37/14/7
f 28/1/8 39/2/8 40/3/9 27/4/9
f 27/4/9 40/3/9 49/5/10 48/6/10
f 48/6/10 49/5/10 51/7/11 50/8/11
f 50/8/11 51/7/11 53/9/12 52/10/12
f 52/10/12 53/9/12 54/11/13 30/12/13
f 30/12/13 54/11/13 37/13/7 29/14/7
f 31/13/14 26/14/14 56/12/15 55/11/15
f 55/11/15 56/12/15 58/10/16 57/9/16
f 57/9/16 58/10/16 60/8/17 59/7/17
f 59/7/17 60/8/17 62/6/18 61/5/18
f 61/5/18 62/6/18 64/4/19 63/3/19
f 63/3/19 64/4/19 39/1/8 28/2/8
f 35/1/1 34/2/1 66/3/20 65/4/20
f 65/4/20 66/3/20 68/5/21 67/6/21
f 67/6/21 68/5/21 70/7/22 69/8/22
f 69/8/22 70/7/22 72/9/23 71/10/23
f 71/10/23 72/9/23 25/11/24 32/12/24
f 32/12/24 25/11/24 26/13/14 31/14/14
f 15/15/20 1/16/2 6/17/2 22/18/20
f 19/19/25 24/20/25 29/21/25
f 31/22/25 4/23/25 12/24/25
f 10/25/25 21/26/25 35/27/25
f 21/28/25 20/29/25 42/30/25
f 20/31/25 19/32/25 46/33/25
f 48/34/25 23/35/25 22/36/25
f 52/37/25 24/38/25 23/35/25
f 23/39/25 48/34/25 50/40/25
f 57/41/25 5/42/25 4/43/25
f 24/44/25 52/37/25 30/45/25
f 4/46/25 31/22/25 55/47/25
f 61/48/25 6/49/25 5/50/25
f 5/42/25 57/41/25 59/51/25
f 67/52/25 11/53/25 10/54/25
f 6/55/25 61/48/25 63/56/25
f 71/57/25 12/58/25 11/59/25
f 11/60/25 67/52/25 69/61/25
f 16/62/19 21/17/19 10/18/9 9/15/9
f 12/63/25 71/57/25 32/64/25
f 18/65/15 19/66/15 20/67/17 17/68/17
f 8/69/11 9/70/9 10/71/9 11/72/11
f 2/73/4 3/74/6 4/66/6 5/75/4
f 23/76/22 24/77/24 13/78/24 14/79/22
f 15/80/20 22/71/20 23/72/22 14/69/22
f 3/81/6 7/82/13 12/83/13 4/84/6
f 8/79/11 11/76/11 12/85/13 7/86/13
f 42/30/25 36/87/25 21/88/25
f 24/89/24 19/84/15 18/90/15 13/91/24
f 6/92/2 1/93/2 2/94/4 5/95/4
f 21/96/19 16/97/19 17/98/17 20/99/17
f 42/30/25 20/100/25 44/101/25
f 71/57/25 11/102/25 69/61/25
f 57/41/25 4/103/25 55/47/25
f 67/52/25 10/104/25 65/105/25
f 35/27/25 21/28/25 36/87/25
f 46/33/25 44/101/25 20/106/25
f 61/48/25 5/107/25 59/51/25
f 46/33/25 19/19/25 47/108/25
f 29/21/25 47/108/25 19/19/25
f 48/34/25 22/36/25 27/109/25
f 28/110/25 6/55/25 63/56/25
f 28/110/25 27/109/25 22/111/25
f 35/27/25 65/105/25 10/112/25
f 29/21/25 24/113/25 30/45/25
f 52/37/25 23/114/25 50/40/25
f 31/22/25 12/24/25 32/64/25
f 22/111/25 6/115/25 28/110/25
f 18/116/26 37/117/26 13/118/26
f 26/119/26 7/120/26 3/121/26
f 9/122/26 34/123/26 16/124/26
f 16/124/26 41/125/26 17/126/26
f 17/126/26 45/127/26 18/128/26
f 49/129/26 15/130/26 14/131/26
f 53/132/26 14/133/26 13/134/26
f 14/135/26 51/136/26 49/129/26
f 58/137/26 3/121/26 2/138/26
f 13/139/26 54/140/26 53/132/26
f 3/141/26 56/142/26 26/119/26
f 62/143/26 2/144/26 1/145/26
f 2/146/26 60/147/26 58/137/26
f 68/148/26 9/149/26 8/150/26
f 1/151/26 64/152/26 62/143/26
f 72/153/26 8/154/26 7/155/26
f 8/156/26 70/157/26 68/148/26
f 7/155/26 25/158/26 72/153/26
f 41/125/26 16/159/26 33/160/26
f 41/125/26 43/161/26 17/162/26
f 72/153/26 70/157/26 8/163/26
f 58/137/26 56/142/26 3/164/26
f 68/148/26 66/165/26 9/166/26
f 34/123/26 33/160/26 16/167/26
f 45/127/26 17/168/26 43/161/26
f 62/143/26 60/147/26 2/138/26
f 45/127/26 38/169/26 18/170/26
f 37/117/26 18/171/26 38/169/26
f 49/129/26 40/172/26 15/173/26
f 39/174/26 64/152/26 1/175/26
f 39/174/26 15/176/26 40/172/26
f 34/123/26 9/122/26 66/165/26
f 37/117/26 54/140/26 13/139/26
f 53/132/26 51/136/26 14/177/26
f 26/119/26 25/158/26 7/178/26
f 15/176/26 39/174/26 1/179/26
