# Blender 5.0.1
# www.blender.org
mtllib dosimeter_1.mtl
o dosimeter_1
v -0.001407 0.048000 -0.063136
v -0.001519 0.040000 -0.071144
v -0.126725 0.040000 -0.052317
v -0.124493 0.048000 -0.044575
v -0.138963 0.040000 -0.047138
v -0.149318 0.040000 -0.038666
v -0.142983 0.048000 -0.033512
v -0.154966 0.040000 -0.027840
v -0.154496 0.040000 0.041353
v -0.146508 0.048000 0.039545
v -0.147435 0.040000 0.056414
v -0.140884 0.048000 0.051541
v -0.138492 0.040000 0.064416
v -0.134062 0.048000 0.057645
v -0.122018 0.040000 0.071948
v -0.120523 0.048000 0.063835
v -0.107426 0.040000 0.071007
v -0.107809 0.048000 0.063016
v -0.002931 0.040000 0.065829
v -0.002960 0.048000 0.057818
v 0.097328 0.040000 0.073359
v 0.098036 0.048000 0.065388
v 0.118508 0.040000 0.074772
v 0.117266 0.048000 0.066671
v 0.135453 0.040000 0.068182
v 0.130725 0.048000 0.061438
v 0.145338 0.040000 0.056886
v 0.138257 0.048000 0.052829
v 0.150044 0.040000 0.042764
v 0.142144 0.048000 0.041166
v 0.154753 0.040000 -0.017955
v 0.146664 0.048000 -0.017117
v 0.151457 0.040000 -0.029252
v 0.144282 0.048000 -0.025283
v 0.143926 0.040000 -0.037724
v 0.138369 0.048000 -0.031935
v 0.133571 0.040000 -0.046197
v 0.130064 0.048000 -0.038729
v 0.012130 0.040000 -0.070674
v 0.011122 0.048000 -0.062704
v -0.001519 0.008000 -0.071144
v -0.001407 -0.000000 -0.063136
v -0.124493 -0.000000 -0.044575
v -0.126725 0.008000 -0.052317
v -0.134787 -0.000000 -0.040219
v -0.138963 0.008000 -0.047138
v -0.142983 0.000000 -0.033512
v -0.149318 0.008000 -0.038666
v -0.146953 0.000000 -0.025904
v -0.154966 0.008000 -0.027840
v -0.146508 0.000000 0.039545
v -0.154496 0.008000 0.041353
v -0.140884 0.000000 0.051541
v -0.147435 0.008000 0.056414
v -0.134062 0.000000 0.057645
v -0.138492 0.008000 0.064416
v -0.120523 0.000000 0.063835
v -0.122018 0.008000 0.071948
v -0.107809 0.000000 0.063016
v -0.107426 0.008000 0.071007
v -0.002960 0.000000 0.057818
v -0.002931 0.008000 0.065829
v 0.098036 0.000000 0.065388
v 0.097328 0.008000 0.073359
v 0.117266 0.000000 0.066671
v 0.118508 0.008000 0.074772
v 0.130725 0.000000 0.061438
v 0.135453 0.008000 0.068182
v 0.138257 0.000000 0.052829
v 0.145338 0.008000 0.056886
v 0.142144 0.000000 0.041166
v 0.150044 0.008000 0.042764
v 0.146664 0.000000 -0.017117
v 0.154753 0.008000 -0.017955
v 0.144282 0.000000 -0.025283
v 0.151457 0.008000 -0.029252
v 0.138369 -0.000000 -0.031935
v 0.143926 0.008000 -0.037724
v 0.130064 -0.000000 -0.038729
v 0.133571 0.008000 -0.046197
v 0.011122 0.000000 -0.062704
v 0.012130 0.008000 -0.070674
v -0.134788 0.048000 -0.040219
v -0.146947 0.048000 -0.025904
v 0.129097 0.048000 0.004162
v 0.143037 0.048000 -0.014698
v 0.109417 0.048000 -0.036293
v 0.124997 0.048000 -0.036293
v 0.116250 0.048000 0.018923
v 0.104770 0.048000 0.021656
v 0.093016 0.048000 0.047077
v 0.108870 0.048000 0.061565
v 0.128550 0.048000 0.058283
v 0.135384 0.048000 0.049263
v 0.127457 0.048000 0.023569
v 0.097426 0.048000 -0.023675
v 0.099018 0.054400 -0.023038
v 0.095476 0.048000 -0.018799
v 0.097229 0.054400 -0.018563
v 0.097116 0.048000 -0.004311
v 0.098744 0.054400 -0.005174
v 0.104770 0.048000 0.002248
v 0.105589 0.054400 0.000692
v 0.117070 0.048000 0.005529
v 0.117199 0.054400 0.003789
v 0.128350 0.054400 0.002521
v 0.138664 0.048000 -0.004585
v 0.137236 0.054400 -0.005603
v 0.141237 0.054400 -0.014855
v 0.140547 0.048000 -0.025155
v 0.139011 0.054400 -0.024203
v 0.109948 0.054400 -0.034578
v 0.099849 0.048000 -0.029733
v 0.101248 0.054400 -0.028613
v 0.133744 0.048000 -0.030826
v 0.132736 0.054400 -0.029434
v 0.124505 0.054400 -0.034578
v 0.116106 0.054400 0.020720
v 0.105537 0.054400 0.023236
v 0.098209 0.048000 0.026850
v 0.099539 0.054400 0.027985
v 0.093289 0.048000 0.035597
v 0.094993 0.054400 0.036066
v 0.094743 0.054400 0.046604
v 0.098483 0.048000 0.055824
v 0.099701 0.054400 0.054538
v 0.109395 0.054400 0.059896
v 0.119257 0.048000 0.062657
v 0.118960 0.054400 0.060902
v 0.127438 0.054400 0.056911
v 0.133779 0.054400 0.048541
v 0.137297 0.048000 0.039696
v 0.135542 0.054400 0.039727
v 0.134837 0.048000 0.029309
v 0.133308 0.054400 0.030292
v 0.126586 0.054400 0.025064
v -0.002960 0.056000 0.057818
v -0.000719 0.056000 0.025484
v 0.008849 0.056000 0.029037
v 0.014863 0.056000 0.036417
v 0.004749 0.056000 0.054457
v -0.013018 0.056000 0.053637
v -0.018759 0.056000 0.035323
v -0.011925 0.056000 0.028217
v -0.000861 0.061657 0.027930
v 0.007436 0.061657 0.031011
v 0.012576 0.061657 0.037320
v 0.015410 0.056000 0.044344
v 0.013016 0.061657 0.043697
v 0.010763 0.056000 0.051178
v 0.009144 0.061657 0.049392
v 0.003718 0.061657 0.052350
v -0.002982 0.061657 0.055271
v -0.011521 0.061657 0.051722
v -0.018485 0.056000 0.046258
v -0.016161 0.061657 0.045458
v -0.016392 0.061657 0.036242
v -0.010708 0.061657 0.030332
v -0.001407 0.048000 -0.063136
v -0.015690 0.048000 -0.062243
v -0.002960 0.048000 0.057818
v 0.011122 0.048000 -0.062704
v -0.039452 0.048000 0.059864
v -0.058829 0.048000 -0.020821
v -0.039282 0.048000 -0.051874
v -0.055136 0.048000 -0.039026
v -0.059783 0.048000 -0.030553
v -0.052949 0.048000 0.039150
v -0.048576 0.048000 0.048444
v 0.057089 0.048000 -0.022290
v 0.035079 0.048000 0.059673
v 0.058028 0.048000 -0.029459
v 0.053928 0.048000 -0.038206
v 0.044360 0.048000 -0.046407
v 0.030967 0.048000 -0.054607
v 0.048188 0.048000 0.045710
v -0.015690 0.056000 -0.062243
v -0.001407 0.056000 -0.063136
v 0.035079 0.056000 0.059673
v -0.002960 0.056000 0.057818
v 0.011122 0.056000 -0.062704
v -0.033269 0.056000 -0.035747
v -0.040376 0.056000 -0.028913
v -0.044476 0.056000 -0.023719
v -0.043383 0.056000 -0.016612
v -0.034909 0.056000 -0.011146
v -0.023702 0.056000 -0.008959
v 0.033974 0.056000 -0.008958
v 0.041353 0.056000 -0.013058
v 0.042994 0.056000 -0.021806
v 0.040533 0.056000 -0.029185
v 0.031240 0.056000 -0.036293
v 0.019759 0.056000 -0.041486
v 0.000625 0.056000 -0.044494
v -0.015502 0.056000 -0.042307
v -0.039452 0.056000 0.059864
v -0.058829 0.056000 -0.020821
v -0.039282 0.056000 -0.051874
v -0.055136 0.056000 -0.039026
v -0.059783 0.056000 -0.030553
v -0.052949 0.056000 0.039150
v -0.048576 0.056000 0.048444
v 0.057089 0.056000 -0.022290
v 0.058028 0.056000 -0.029459
v 0.053928 0.056000 -0.038206
v 0.044360 0.056000 -0.046407
v 0.030967 0.056000 -0.054607
v 0.048188 0.056000 0.045710
v -0.033269 0.052000 -0.035747
v -0.040376 0.052000 -0.028913
v -0.044476 0.052000 -0.023719
v -0.043383 0.052000 -0.016612
v -0.034909 0.052000 -0.011146
v -0.023702 0.052000 -0.008959
v 0.033974 0.052000 -0.008958
v 0.041353 0.052000 -0.013058
v 0.042994 0.052000 -0.021806
v 0.040533 0.052000 -0.029185
v 0.031240 0.052000 -0.036293
v 0.019759 0.052000 -0.041486
v 0.000625 0.052000 -0.044494
v -0.015502 0.052000 -0.042307
v -0.129625 0.052800 -0.031405
v -0.125505 0.052800 -0.034594
v -0.118067 0.052800 -0.034366
v -0.114135 0.052800 -0.030721
v -0.111175 0.052800 0.049915
v -0.115502 0.052800 0.053787
v -0.121656 0.052800 0.053787
v -0.125524 0.052800 0.051509
v -0.129625 0.061600 -0.031405
v -0.125506 0.065600 -0.028995
v -0.125505 0.061600 -0.034594
v -0.118067 0.061600 -0.034366
v -0.118067 0.065600 -0.028803
v -0.114135 0.061600 -0.030721
v -0.111175 0.061600 0.049915
v -0.115245 0.065600 0.048186
v -0.115502 0.061600 0.053787
v -0.121656 0.061600 0.053787
v -0.121659 0.065600 0.048675
v -0.125524 0.061600 0.051509
v -0.134787 0.048000 -0.040219
v -0.142983 0.048000 -0.033512
v -0.146953 0.048000 -0.025904
v -0.146508 0.048000 0.039545
v -0.140884 0.048000 0.051541
v -0.134062 0.048000 0.057645
v -0.120523 0.048000 0.063835
v -0.107809 0.048000 0.063016
v -0.130058 0.048000 -0.042220
v -0.111210 0.048000 -0.042583
v -0.101871 0.048000 -0.037344
v -0.093443 0.048000 -0.029372
v -0.090937 0.048000 -0.014337
v -0.091620 0.048000 0.000468
v -0.093443 0.048000 0.018008
v -0.093215 0.048000 0.044431
v -0.096176 0.048000 0.051265
v -0.102099 0.048000 0.057415
v -0.146636 0.048000 0.020762
v -0.146757 0.048000 0.002992
v -0.143064 0.048000 0.001852
v -0.137370 0.048000 0.002991
v -0.133953 0.048000 0.006636
v -0.132358 0.048000 0.012103
v -0.135775 0.048000 0.017797
v -0.141014 0.048000 0.020986
v -0.097890 0.048000 -0.001308
v -0.104394 0.048000 0.000166
v -0.109449 0.048000 0.005147
v -0.109302 0.048000 0.012323
v -0.104114 0.048000 0.017136
v -0.098298 0.048000 0.018791
v -0.142983 0.052800 -0.033512
v -0.134787 0.052800 -0.040219
v -0.146953 0.052800 -0.025904
v -0.146757 0.052800 0.002992
v -0.140884 0.052800 0.051541
v -0.146508 0.052800 0.039545
v -0.134062 0.052800 0.057645
v -0.120523 0.052800 0.063835
v -0.107809 0.052800 0.063016
v -0.130058 0.052800 -0.042220
v -0.111210 0.052800 -0.042583
v -0.101871 0.052800 -0.037344
v -0.093443 0.052800 -0.029372
v -0.090937 0.052800 -0.014337
v -0.091620 0.052800 0.000468
v -0.093443 0.052800 0.018008
v -0.093215 0.052800 0.044431
v -0.096176 0.052800 0.051265
v -0.102099 0.052800 0.057415
v -0.146636 0.052800 0.020762
v -0.143064 0.052800 0.001852
v -0.137370 0.052800 0.002991
v -0.133953 0.052800 0.006636
v -0.132358 0.052800 0.012103
v -0.135775 0.052800 0.017797
v -0.141014 0.052800 0.020986
v -0.097890 0.052800 -0.001308
v -0.104394 0.052800 0.000166
v -0.109449 0.052800 0.005147
v -0.109302 0.052800 0.012323
v -0.104114 0.052800 0.017136
v -0.098298 0.052800 0.018791
v -0.091620 0.048000 0.000468
v -0.087748 0.048000 0.005253
v -0.087520 0.048000 0.011403
v -0.090937 0.048000 0.014591
v -0.093443 0.048000 0.018008
v -0.146636 0.048000 0.020762
v -0.143064 0.048000 0.001852
v -0.137370 0.048000 0.002991
v -0.133953 0.048000 0.006636
v -0.132358 0.048000 0.012103
v -0.135775 0.048000 0.017797
v -0.141014 0.048000 0.020986
v -0.097890 0.048000 -0.001308
v -0.104394 0.048000 0.000166
v -0.109449 0.048000 0.005147
v -0.109302 0.048000 0.012323
v -0.104114 0.048000 0.017136
v -0.098298 0.048000 0.018791
v -0.095053 0.052259 0.005671
v -0.093558 0.052259 0.008910
v -0.095398 0.052259 0.010628
v -0.142751 0.052154 0.007973
v -0.140402 0.052259 0.008444
v -0.139259 0.052259 0.009663
v -0.138789 0.052259 0.011273
v -0.140116 0.052259 0.013484
v -0.142570 0.052197 0.014978
v -0.098053 0.052259 0.004821
v -0.101430 0.052259 0.005586
v -0.103456 0.052259 0.007583
v -0.103413 0.052259 0.009682
v -0.101117 0.052259 0.011812
v -0.097941 0.052259 0.012716
v -0.149044 0.049226 0.007650
v -0.143512 0.052239 0.009863
v -0.150258 0.049226 0.011515
v -0.144087 0.052226 0.011695
v -0.146757 0.048000 0.002992
v -0.149044 0.045681 0.007650
v -0.150258 0.044441 0.011515
v -0.148980 0.045684 0.016604
v -0.148980 0.049226 0.016604
vn -0.7204 -0.3708 -0.5861
vn -0.9032 -0.3696 -0.2182
vn -0.9032 0.3697 -0.2181
vn -0.7204 0.3708 -0.5861
vn -0.9060 -0.3704 0.2051
vn -0.9060 0.3704 0.2051
vn 0.8129 -0.3702 -0.4496
vn 0.6415 -0.3767 -0.6683
vn 0.6415 0.3767 -0.6683
vn 0.8129 0.3702 -0.4496
vn 0.3950 -0.3696 -0.8411
vn 0.1163 -0.3760 -0.9193
vn 0.1163 0.3760 -0.9193
vn 0.3950 0.3696 -0.8411
vn -0.0000 -1.0000 -0.0000
vn 0.1408 -0.3703 0.9182
vn 0.5334 -0.3697 0.7608
vn 0.5334 0.3697 0.7608
vn 0.1408 0.3703 0.9182
vn -0.5080 -0.3728 0.7765
vn -0.1684 -0.3696 0.9138
vn -0.1684 0.3696 0.9138
vn -0.5080 0.3728 0.7765
vn 0.8058 -0.3709 0.4617
vn 0.8058 0.3709 0.4617
vn 0.0498 -0.3836 0.9222
vn 0.0498 0.3836 0.9222
vn -0.2568 -0.3744 -0.8910
vn -0.4794 -0.3732 -0.7943
vn -0.4794 0.3732 -0.7943
vn -0.2568 0.3743 -0.8910
vn 0.0034 -0.3876 0.9218
vn 0.0034 0.3876 0.9218
vn -0.0818 -0.3809 0.9210
vn -0.0818 0.3809 0.9210
vn -0.6815 -0.7154 0.1543
vn -0.5615 -0.7143 0.4177
vn -0.7451 -0.3708 0.5543
vn -0.3849 -0.7111 0.5883
vn -0.1261 -0.7179 0.6846
vn 0.0381 -0.7071 0.7061
vn -0.0129 -0.3788 -0.9254
vn -0.0129 0.3788 -0.9254
vn -0.0626 0.7072 0.7042
vn 0.0026 0.7076 0.7066
vn 0.1059 -0.7156 0.6905
vn -0.0626 -0.7072 0.7042
vn 0.3999 -0.7174 0.5705
vn 0.2959 0.7179 -0.6301
vn 0.4889 0.7082 -0.5093
vn 0.6111 -0.7158 -0.3380
vn 0.9235 -0.3715 -0.0957
vn 0.6976 -0.7129 -0.0723
vn 0.4889 -0.7082 -0.5093
vn 0.2960 -0.7179 -0.6301
vn 0.0885 -0.7086 -0.7001
vn -0.0099 -0.7075 -0.7066
vn 0.0380 0.7071 0.7061
vn -0.1261 0.7179 0.6846
vn -0.5429 0.7144 -0.4415
vn -0.3017 0.7089 -0.6375
vn -0.7031 0.7106 -0.0263
vn -0.1951 0.7096 -0.6770
vn -0.0099 0.7075 -0.7066
vn -0.3849 0.7111 0.5883
vn 0.0885 0.7086 -0.7001
vn -0.6769 -0.7176 -0.1635
vn 0.6074 0.7141 0.3480
vn 0.3999 0.7174 0.5705
vn 0.9089 0.3742 0.1838
vn 0.6905 0.7097 0.1396
vn 0.9235 0.3715 -0.0957
vn 0.6976 0.7129 -0.0723
vn 0.9089 -0.3742 0.1838
vn 0.6905 -0.7097 0.1396
vn 0.0026 -0.7076 0.7066
vn -0.0000 1.0000 -0.0000
vn -0.1951 -0.7096 -0.6770
vn -0.7451 0.3708 0.5543
vn -0.5615 0.7143 0.4177
vn -0.7014 0.7111 0.0487
vn 0.6074 -0.7141 0.3480
vn -0.5428 -0.7143 -0.4416
vn -0.3635 -0.7107 -0.6023
vn 0.1059 0.7156 0.6905
vn 0.6111 0.7158 -0.3380
vn 0.8793 0.2651 0.3957
vn 0.7936 0.4926 0.3571
vn 0.5479 0.4928 0.6760
vn 0.6070 0.2660 0.7488
vn -0.8041 0.5000 -0.3215
vn -0.8624 0.4928 -0.1161
vn -0.7665 0.4973 0.4064
vn -0.4054 0.4926 0.7700
vn -0.0641 0.4927 0.8678
vn 0.3599 0.4945 0.7912
vn 0.7087 0.4926 0.5050
vn 0.8658 0.4947 0.0756
vn 0.7387 0.4947 -0.4578
vn 0.5093 0.4960 -0.7033
vn 0.2398 0.4934 -0.8361
vn -0.2573 0.4940 -0.8305
vn -0.6788 0.4938 -0.5435
vn -0.8969 0.2588 -0.3586
vn -0.7517 0.2696 -0.6019
vn -0.9553 0.2663 -0.1286
vn 0.9587 0.2717 0.0838
vn 0.8180 0.2718 -0.5070
vn -0.7336 0.2634 -0.6264
vn -0.9295 0.2662 -0.2553
vn -0.8390 0.4928 -0.2305
vn -0.6618 0.4927 -0.5651
vn -0.3799 0.4926 -0.7830
vn -0.4209 0.2647 -0.8676
vn 0.1451 0.4933 0.8577
vn 0.1607 0.2680 0.9499
vn 0.0691 0.4945 -0.8664
vn 0.0766 0.2711 -0.9595
vn -0.9288 0.2694 0.2545
vn -0.8387 0.4937 0.2298
vn -0.4492 0.2650 0.8532
vn -0.8490 0.2767 0.4501
vn 0.5664 0.2594 -0.7822
vn 0.2655 0.2685 -0.9260
vn -0.0711 0.2631 0.9621
vn -0.2850 0.2701 -0.9197
vn 0.7854 0.2643 0.5597
vn 0.9642 0.2645 -0.0169
vn 0.8701 0.4926 -0.0153
vn -0.6629 0.2668 0.6995
vn -0.5985 0.4929 0.6315
vn 0.8093 0.2733 -0.5200
vn 0.7308 0.4955 -0.4696
vn -0.2612 0.4926 0.8301
vn 0.4374 0.4936 -0.7517
vn 0.3986 0.2711 0.8761
vn -0.2895 0.2637 0.9201
vn 0.4855 0.2610 -0.8344
vn 0.0424 0.6840 -0.7282
vn 0.4240 0.6852 -0.5922
vn 0.5349 0.3945 -0.7472
vn 0.0534 0.3975 -0.9160
vn 0.7050 0.6831 0.1907
vn 0.8841 0.4014 0.2391
vn 0.8530 0.3986 -0.3370
vn 0.6787 0.6837 -0.2682
vn -0.3635 0.6845 -0.6319
vn -0.6814 0.6824 -0.2646
vn -0.6900 0.6837 0.2374
vn -0.4487 0.6851 0.5739
vn 0.0063 0.6824 0.7309
vn 0.3131 0.7020 0.6396
vn 0.4883 0.6865 0.5387
vn 0.6179 0.3920 0.6816
vn -0.8673 0.3985 0.2984
vn -0.5659 0.3948 0.7238
vn 0.0078 0.4105 0.9118
vn -0.4579 0.3961 -0.7959
vn -0.8504 0.4095 -0.3303
vn 0.4061 0.3830 0.8297
vn -0.7676 -0.0000 -0.6409
vn -0.5206 -0.0000 -0.8538
vn -0.8489 -0.0000 0.5286
vn -0.9641 -0.0000 0.2655
vn -0.8112 -0.0000 -0.5847
vn -0.9977 -0.0000 0.0682
vn 0.3735 -0.0000 -0.9276
vn 0.8390 -0.0000 -0.5441
vn -0.0105 -0.0000 0.9999
vn -0.2863 -0.0000 0.9581
vn -0.2360 -0.0000 -0.9718
vn -0.0140 -0.0000 -0.9999
vn -0.4081 -0.0000 0.9130
vn 0.2094 -0.0000 -0.9778
vn 0.4515 -0.0000 -0.8923
vn 0.0036 -0.0000 1.0000
vn 0.3747 -0.0000 0.9271
vn 0.9915 -0.0000 0.1298
vn 0.9039 -0.0000 0.4277
vn 0.2418 -0.0000 0.9703
vn -0.9797 -0.0000 -0.2006
vn 0.7959 -0.0000 -0.6054
vn 0.9882 -0.0000 -0.1535
vn 0.5883 -0.0000 -0.8086
vn -0.2508 -0.0000 -0.9680
vn 0.0962 -0.0000 -0.9954
vn 0.5310 -0.0000 0.8474
vn -0.8140 -0.0000 0.5809
vn 0.9669 -0.0000 0.2550
vn 0.7407 -0.0000 0.6718
vn -0.5132 -0.0000 0.8583
vn -0.9952 -0.0000 0.0976
vn 0.3793 -0.0000 -0.9253
vn 0.3297 0.4094 -0.8507
vn 0.8436 0.3709 -0.3882
vn 0.9090 -0.0000 -0.4169
vn 0.9203 -0.0000 0.3913
vn 0.8551 0.3698 0.3635
vn 0.3143 0.4022 0.8599
vn 0.3570 -0.0000 0.9341
vn -0.9084 -0.0000 -0.4181
vn -0.8377 0.3808 -0.3914
vn -0.2686 0.4145 -0.8695
vn -0.3089 -0.0000 -0.9511
vn -0.3270 0.9129 -0.2444
vn -0.3081 0.9100 0.2773
vn 0.3423 0.9057 0.2500
vn 0.3300 0.9072 -0.2611
vn -0.8557 -0.0000 0.5175
vn -0.7887 0.3806 0.4828
vn -0.2250 0.4119 0.8830
vn -0.2630 -0.0000 0.9648
vn 0.0587 -0.0000 -0.9983
vn 0.6451 -0.0000 -0.7641
vn 0.9264 -0.0000 0.3766
vn 0.9124 -0.0000 -0.4093
vn 0.4798 -0.0000 0.8774
vn -0.4860 -0.0000 0.8739
vn 0.0510 -0.0000 0.9987
vn -0.5475 -0.0000 0.8368
vn -0.8023 -0.0000 0.5969
vn -0.5167 -0.0000 -0.8561
vn -0.2082 -0.0000 -0.9781
vn 0.7103 -0.0000 0.7039
vn 0.4078 -0.0000 0.9131
vn -0.9753 -0.0000 0.2208
vn 0.4905 -0.0000 -0.8715
vn -0.6953 -0.0000 -0.7187
vn 0.9800 -0.0000 0.1988
vn 0.8322 -0.0000 0.5544
vn -0.7757 -0.0000 -0.6311
vn -0.1812 -0.0000 0.9834
vn -0.9720 -0.0000 -0.2348
vn 0.2435 -0.0000 -0.9699
vn -0.8686 -0.0000 0.4955
vn 0.5927 -0.0000 -0.8054
vn -0.9918 -0.0000 -0.1280
vn 0.8827 -0.0000 -0.4699
vn -0.7093 -0.0000 -0.7049
vn -0.5910 -0.0000 0.8067
vn 0.9982 -0.0000 -0.0595
vn 0.5845 -0.0000 0.8114
vn -0.0266 -0.0000 0.9996
vn -0.7955 0.2262 0.5621
vn 0.0753 0.8527 0.5169
vn -0.0461 0.9460 0.3209
vn -0.9324 0.0073 0.3613
vn -0.1665 0.9406 0.2958
vn -0.1648 0.9392 -0.3014
vn -0.3260 0.9360 -0.1326
vn -0.3209 0.9361 0.1440
vn 0.2116 0.9352 -0.2840
vn 0.0091 0.9401 -0.3407
vn 0.2146 0.9534 0.2122
vn 0.3375 0.9393 0.0617
vn 0.2349 0.9414 0.2421
vn 0.3474 0.9366 0.0454
vn -0.2194 0.9669 -0.1302
vn -0.2686 0.9632 0.0079
vn 0.5048 0.8377 0.2084
vn 0.5224 0.8318 -0.1876
vn -0.1209 0.9271 -0.3547
vn -0.0332 0.8255 -0.5635
vn -0.7915 0.3277 -0.5159
vn 0.4024 0.8236 0.3998
vn -0.0336 0.8193 0.5723
vn 0.2710 0.8390 0.4719
vn 0.0718 0.9397 0.3345
vn -0.2805 0.8204 0.4983
vn -0.5025 0.8347 0.2254
vn 0.5444 0.8358 0.0703
vn 0.4967 0.8203 -0.2834
vn 0.2909 0.9412 -0.1716
vn 0.3183 0.8372 -0.4446
vn -0.5094 0.8353 -0.2071
vn -0.4641 0.8858 0.0021
vn 0.1571 0.9374 -0.3109
vn 0.2686 0.8282 -0.4919
vn 0.4022 0.8221 0.4030
vn -0.9300 0.0187 -0.3672
vn -0.2723 0.8233 -0.4980
vn 0.0152 0.8213 -0.5703
vn -0.9400 -0.0000 0.3412
vn -0.9998 -0.0000 -0.0222
vn -0.9351 -0.0000 -0.3544
vt 0.630698 0.488175
vt 0.595744 0.488175
vt 0.595744 0.574024
vt 0.630698 0.574024
vt 0.372339 0.488175
vt 0.372339 0.574024
vt 0.600303 0.488175
vt 0.627659 0.488175
vt 0.627659 0.574024
vt 0.600303 0.574024
vt 0.931610 0.488175
vt 0.539509 0.488175
vt 0.539509 0.574024
vt 0.931610 0.574024
vt 0.920289 0.359073
vt 0.816876 0.079748
vt 0.490787 0.100058
vt 0.536255 0.423390
vt 0.882977 0.488175
vt 0.937688 0.488175
vt 0.937688 0.574024
vt 0.882977 0.574024
vt 0.053191 0.488175
vt 0.106382 0.488175
vt 0.106382 0.574024
vt 0.053191 0.574024
vt 0.285713 0.488175
vt 0.322188 0.488175
vt 0.322188 0.574024
vt 0.285713 0.574024
vt 0.153495 0.488175
vt 0.153495 0.574024
vt 0.091183 0.488175
vt 0.051668 0.488175
vt 0.051668 0.574024
vt 0.091183 0.574024
vt 0.495802 0.424549
vt 0.152258 0.086113
vt 0.098389 0.374755
vt 0.490881 0.488175
vt 0.490881 0.574024
vt 0.814590 0.488175
vt 0.814590 0.574024
vt 0.027308 0.149080
vt 0.045466 0.116898
vt 0.024316 0.103824
vt 0.001517 0.144230
vt 0.067495 0.100520
vt 0.053191 0.082355
vt 0.111208 0.083915
vt 0.153495 0.064675
vt 0.106382 0.062149
vt 0.495440 0.488175
vt 0.495440 0.574024
vt 0.490840 0.620087
vt 0.804149 0.600534
vt 0.806361 0.621231
vt 0.490749 0.640888
vt 0.878967 0.076306
vt 0.882977 0.054574
vt 0.814590 0.058364
vt 0.922421 0.090347
vt 0.937688 0.072252
vt 0.949770 0.888972
vt 0.917409 0.910971
vt 0.906451 0.891581
vt 0.932403 0.873939
vt 0.966192 0.322999
vt 0.989361 0.333647
vt 1.000000 0.303340
vt 0.973883 0.301092
vt 0.947102 0.340845
vt 0.965045 0.356377
vt 0.931610 0.379106
vt 0.495440 0.446035
vt 0.539509 0.444772
vt 0.164294 0.606642
vt 0.163097 0.627392
vt 0.123365 0.625264
vt 0.118694 0.604197
vt 0.065739 0.913416
vt 0.033381 0.891416
vt 0.053177 0.878035
vt 0.078790 0.895448
vt 0.015731 0.863305
vt 0.040773 0.858279
vt 0.495253 0.975749
vt 0.103984 0.926863
vt 0.110958 0.906759
vt 0.495603 0.954954
vt 0.067213 0.623754
vt 0.081057 0.641336
vt 0.537906 0.974527
vt 0.534756 0.953832
vt 0.025873 0.324665
vt 0.000000 0.329858
vt 0.954181 0.643309
vt 0.932054 0.653842
vt 0.908515 0.631489
vt 0.923291 0.613976
vt 0.968889 0.679976
vt 0.944201 0.684125
vt 0.983602 0.837639
vt 0.958323 0.835464
vt 0.984799 0.140443
vt 0.959291 0.144730
vt 0.490881 0.078566
vt 0.950880 0.856667
vt 0.040790 0.858279
vt 0.042162 0.688336
vt 0.059736 0.657188
vt 0.866457 0.617900
vt 0.563829 0.488175
vt 0.563829 0.574024
vt 0.091183 0.395526
vt 0.367782 0.488175
vt 0.367782 0.574024
vt 0.323710 0.488175
vt 0.323710 0.574024
vt 0.018236 0.488175
vt 0.018236 0.574024
vt 0.024316 0.488175
vt 0.024316 0.574024
vt 0.965045 0.488175
vt 0.965045 0.574024
vt 0.039265 0.644533
vt 0.017200 0.683641
vt 0.490840 0.620087
vt 0.946741 0.113442
vt 0.969602 0.102559
vt 0.038689 0.345076
vt 0.018236 0.358902
vt 0.051668 0.381632
vt 0.065153 0.363069
vt 0.804148 0.600534
vt 0.870338 0.596866
vt 0.949770 0.888972
vt 0.973304 0.866972
vt 0.983602 0.837639
vt 0.973304 0.866972
vt 0.495253 0.975749
vt 0.042162 0.688336
vt 0.065739 0.913416
vt 0.078786 0.895448
vt 0.914710 0.669356
vt 0.910388 0.670957
vt 0.893245 0.652403
vt 0.896245 0.649362
vt 0.817083 0.848791
vt 0.812261 0.838872
vt 0.816357 0.809196
vt 0.834839 0.796192
vt 0.866189 0.789329
vt 0.896330 0.792139
vt 0.920327 0.810146
vt 0.931132 0.830654
vt 0.925117 0.851373
vt 0.908168 0.862969
vt 0.885929 0.874371
vt 0.846611 0.874371
vt 0.823115 0.861149
vt 0.812793 0.850203
vt 0.819325 0.863632
vt 0.807520 0.839395
vt 0.936002 0.830305
vt 0.929278 0.853483
vt 0.814288 0.719035
vt 0.801000 0.699646
vt 0.805596 0.698609
vt 0.817885 0.716519
vt 0.834076 0.727045
vt 0.831995 0.730548
vt 0.870329 0.643558
vt 0.871135 0.639667
vt 0.862620 0.732622
vt 0.863024 0.736605
vt 0.800258 0.674201
vt 0.804919 0.675249
vt 0.832613 0.792743
vt 0.811939 0.807283
vt 0.910893 0.866055
vt 0.887283 0.878172
vt 0.865867 0.785471
vt 0.845176 0.878172
vt 0.924182 0.807890
vt 0.919887 0.690561
vt 0.915146 0.690492
vt 0.815014 0.654814
vt 0.818320 0.657664
vt 0.913226 0.713585
vt 0.909098 0.711406
vt 0.844510 0.645788
vt 0.890939 0.722993
vt 0.898346 0.788501
vt 0.843091 0.642088
vt 0.893294 0.726308
vt 0.497716 0.724301
vt 0.527349 0.715267
vt 0.527654 0.715621
vt 0.497754 0.724846
vt 0.547357 0.676053
vt 0.548156 0.675873
vt 0.546446 0.696458
vt 0.545792 0.696243
vt 0.463031 0.717323
vt 0.442475 0.698943
vt 0.442894 0.671094
vt 0.459650 0.652097
vt 0.490739 0.641903
vt 0.514835 0.649625
vt 0.533354 0.658385
vt 0.533634 0.658129
vt 0.442234 0.670905
vt 0.459318 0.651744
vt 0.462735 0.717750
vt 0.441378 0.699297
vt 0.514841 0.649615
vt 0.327699 0.892351
vt 0.377242 0.925712
vt 0.348199 0.665229
vt 0.334535 0.689360
vt 0.629230 0.824924
vt 0.634356 0.847639
vt 0.390909 0.819958
vt 0.364428 0.834150
vt 0.501955 0.906549
vt 0.561748 0.898740
vt 0.681336 0.867511
vt 0.668524 0.890223
vt 0.626667 0.866800
vt 0.450970 0.952636
vt 0.376714 0.635575
vt 0.596771 0.932810
vt 0.609623 0.636070
vt 0.678404 0.848895
vt 0.650588 0.672327
vt 0.451558 0.900870
vt 0.313177 0.870350
vt 0.638626 0.911516
vt 0.606167 0.814278
vt 0.425932 0.814278
vt 0.396035 0.883837
vt 0.361011 0.852606
vt 0.373826 0.866093
vt 0.597625 0.885255
vt 0.316160 0.845080
vt 0.103554 0.768821
vt 0.134728 0.768820
vt 0.134728 0.757131
vt 0.103554 0.757131
vt 0.103554 0.748526
vt 0.134728 0.748526
vt 0.134728 0.761104
vt 0.103554 0.761104
vt 0.103554 0.802155
vt 0.134728 0.802155
vt 0.134728 0.789448
vt 0.103554 0.789516
vt 0.107809 0.866305
vt 0.119815 0.664628
vt 0.139873 0.665899
vt 0.131039 0.865807
vt 0.103554 0.897167
vt 0.134728 0.897167
vt 0.134728 0.656162
vt 0.103554 0.656162
vt 0.103554 0.658149
vt 0.134728 0.658149
vt 0.134728 0.892532
vt 0.103554 0.892532
vt 0.134728 0.778591
vt 0.103554 0.778591
vt 0.134728 0.790234
vt 0.103554 0.790234
vt 0.143328 0.870788
vt 0.130903 0.880124
vt 0.139745 0.665168
vt 0.139057 0.651354
vt 0.152579 0.661410
vt 0.131038 0.865807
vt 0.108153 0.880327
vt 0.107795 0.866304
vt 0.107738 0.657269
vt 0.119992 0.651719
vt 0.119825 0.664627
vt 0.094921 0.872563
vt 0.192818 0.742224
vt 0.207992 0.744257
vt 0.157972 0.777653
vt 0.158432 0.759019
vt 0.173769 0.790586
vt 0.070720 0.783250
vt 0.052924 0.786207
vt 0.093568 0.900645
vt 0.180942 0.641934
vt 0.174643 0.746522
vt 0.041763 0.737107
vt 0.208702 0.675647
vt 0.199450 0.657903
vt 0.152469 0.901587
vt 0.081397 0.773786
vt 0.181653 0.887984
vt 0.086380 0.759590
vt 0.207991 0.867283
vt 0.075703 0.744806
vt 0.041386 0.783247
vt 0.215821 0.828245
vt 0.059331 0.736525
vt 0.213687 0.789801
vt 0.194095 0.794413
vt 0.051836 0.753672
vt 0.034437 0.747902
vt 0.184008 0.760347
vt 0.183032 0.776512
vt 0.176699 0.771327
vt 0.176833 0.765878
vt 0.202960 0.776292
vt 0.193585 0.778499
vt 0.201880 0.763421
vt 0.207463 0.771669
vt 0.062139 0.756005
vt 0.066284 0.761745
vt 0.051525 0.765408
vt 0.049727 0.760650
vt 0.207632 0.767880
vt 0.226500 0.761409
vt 0.225787 0.777378
vt 0.053902 0.770315
vt 0.041386 0.783247
vt 0.215821 0.753130
vt 0.193934 0.757999
vt 0.064816 0.765926
vt 0.197520 0.758480
vt 0.030443 0.761117
vt 0.061244 0.769092
vt 0.054468 0.752124
vt 0.034236 0.771152
vt 0.030443 0.761117
vt 0.054518 0.770471
vt 0.173769 0.790586
vt 0.194095 0.794413
s 1
usemtl dosimeter_1
f 48/1/1 50/2/2 8/3/3 6/4/4
f 50/2/2 52/5/5 9/6/6 8/3/3
f 76/7/7 78/8/8 35/9/9 33/10/10
f 80/11/11 82/12/12 39/13/13 37/14/14
f 79/15/15 63/16/15 61/17/15 81/18/15
f 66/19/16 68/20/17 25/21/18 23/22/19
f 56/23/20 58/24/21 15/25/22 13/26/23
f 68/27/17 70/28/24 27/29/25 25/30/18
f 58/24/21 60/31/26 17/32/27 15/25/22
f 44/33/28 46/34/29 5/35/30 3/36/31
f 42/37/15 61/17/15 59/38/15 43/39/15
f 60/31/26 62/40/32 19/41/33 17/32/27
f 62/40/32 64/42/34 21/43/35 19/41/33
f 51/44/36 53/45/37 54/46/38 52/47/5
f 53/45/37 55/48/39 56/49/20 54/46/38
f 57/50/40 59/38/41 60/51/26 58/52/21
f 41/53/42 44/33/28 3/36/31 2/54/43
f 19/55/33 21/56/35 22/57/44 20/58/45
f 65/59/46 66/60/16 64/61/34 63/16/47
f 67/62/48 68/63/17 66/60/16 65/59/46
f 35/64/9 37/65/14 38/66/49 36/67/50
f 75/68/51 76/69/7 74/70/52 73/71/53
f 75/68/51 77/72/54 78/73/8 76/69/7
f 79/15/55 80/74/11 78/73/8 77/72/54
f 81/18/56 42/37/57 41/75/42 82/76/12
f 17/77/27 18/78/58 16/79/59 15/80/22
f 5/81/30 6/82/4 7/83/60 83/84/61
f 6/82/4 8/85/3 84/86/62 7/83/60
f 2/87/43 3/88/31 4/89/63 1/90/64
f 13/91/23 15/80/22 16/79/59 14/92/65
f 79/15/55 81/18/56 82/76/12 80/74/11
f 37/65/14 39/93/13 40/94/66 38/66/49
f 49/95/67 51/44/36 52/47/5 50/96/2
f 27/97/25 28/98/68 26/99/69 25/100/18
f 29/101/70 30/102/71 28/98/68 27/97/25
f 29/101/70 31/103/72 32/104/73 30/102/71
f 73/71/53 74/70/52 72/105/74 71/106/75
f 62/107/32 61/17/76 63/16/47 64/61/34
f 26/99/77 28/98/77 30/102/77 32/104/77 34/108/77 36/67/77 38/66/77 40/94/77 1/90/77 4/89/77 83/84/77 7/83/77 84/109/77 10/110/77 12/111/77 14/92/77 16/79/77 18/78/77 20/58/77 22/57/77 24/112/77
f 82/12/12 41/53/42 2/54/43 39/13/13
f 74/113/52 76/7/7 33/10/10 31/114/72
f 43/39/78 44/115/28 41/75/42 42/37/57
f 72/116/74 74/113/52 31/114/72 29/117/70
f 9/6/6 52/5/5 54/118/38 11/119/79
f 70/28/24 72/116/74 29/117/70 27/29/25
f 5/35/30 46/34/29 48/120/1 6/121/4
f 54/122/38 56/23/20 13/26/23 11/123/79
f 64/42/34 66/19/16 23/22/19 21/43/35
f 78/124/8 80/11/11 37/14/14 35/125/9
f 11/126/79 12/111/80 10/110/81 9/127/6
f 18/78/58 17/77/27 19/128/33 20/58/45
f 51/44/15 49/95/15 43/39/15 59/38/15
f 69/129/82 71/106/75 72/105/74 70/130/24
f 59/38/41 61/17/76 62/107/32 60/51/26
f 47/131/83 48/132/1 46/133/29 45/134/84
f 21/135/35 23/136/19 24/112/85 22/57/44
f 35/137/9 36/67/50 34/108/86 33/138/10
f 31/139/72 33/140/10 34/108/86 32/104/73
f 57/50/40 58/52/21 56/49/20 55/48/39
f 2/141/43 1/90/64 40/94/66 39/93/13
f 67/62/48 69/129/82 70/130/24 68/63/17
f 23/136/19 25/100/18 26/99/69 24/112/85
f 49/95/67 50/96/2 48/132/1 47/131/83
f 45/134/15 43/39/15 49/95/15 47/131/15
f 69/129/15 67/62/15 65/59/15
f 42/37/15 81/18/15 61/17/15
f 73/71/15 79/15/15 77/72/15 75/68/15
f 55/48/15 53/45/15 51/44/15
f 79/15/15 73/71/15 71/106/15 63/16/15
f 63/16/15 71/106/15 69/129/15 65/59/15
f 55/48/15 51/44/15 59/38/15 57/50/15
f 13/91/23 14/92/65 12/111/80 11/126/79
f 45/134/84 46/133/29 44/115/28 43/39/78
f 9/127/6 10/142/81 84/109/62 8/85/3
f 3/88/31 5/143/30 83/144/61 4/89/63
f 94/145/87 131/146/88 130/147/89 93/148/90
f 97/149/91 99/150/92 101/151/93 103/152/94 105/153/95 106/154/96 108/155/97 109/156/98 111/157/99 116/158/100 117/159/101 112/160/102 114/161/103
f 96/162/104 97/149/91 114/161/103 113/163/105
f 96/162/104 98/164/106 99/150/92 97/149/91
f 86/165/107 110/166/108 111/157/99 109/156/98
f 120/167/109 122/168/110 123/169/111 121/170/112
f 120/167/109 121/170/112 119/171/113 90/172/114
f 93/148/90 130/147/89 129/173/115 128/174/116
f 90/172/114 119/171/113 118/175/117 89/176/118
f 122/168/110 91/177/119 124/178/120 123/169/111
f 102/179/121 103/152/94 101/151/93 100/180/122
f 115/181/123 88/182/124 117/159/101 116/158/100
f 104/183/125 105/153/95 103/152/94 102/179/121
f 113/163/105 114/161/103 112/160/102 87/184/126
f 107/185/127 86/165/107 109/156/98 108/155/97
f 132/186/128 133/187/129 131/146/88 94/145/87
f 125/188/130 126/189/131 124/178/120 91/177/119
f 132/186/128 134/190/132 135/191/133 133/187/129
f 118/175/117 119/171/113 121/170/112 123/169/111 124/178/120 126/189/131 127/192/134 129/173/115 130/147/89 131/146/88 133/187/129 135/191/133 136/193/135
f 107/185/127 108/155/97 106/154/96 85/194/136
f 92/195/137 128/174/116 129/173/115 127/192/134
f 95/196/138 89/176/118 118/175/117 136/193/135
f 88/182/124 87/184/126 112/160/102 117/159/101
f 104/183/125 85/194/136 106/154/96 105/153/95
f 92/195/137 127/192/134 126/189/131 125/188/130
f 98/164/106 100/180/122 101/151/93 99/150/92
f 95/196/138 136/193/135 135/191/133 134/190/132
f 115/181/123 116/158/100 111/157/99 110/166/108
f 145/197/139 146/198/140 139/199/141 138/200/142
f 149/201/143 148/202/144 140/203/145 147/204/146
f 149/201/143 147/204/146 146/198/140 145/197/139 158/205/147 157/206/148 156/207/149 154/208/150 153/209/151 152/210/152 151/211/153
f 149/201/143 151/211/153 150/212/154 148/202/144
f 156/207/149 155/213/155 142/214/156 154/208/150
f 147/204/146 140/203/145 139/199/141 146/198/140
f 153/209/151 154/208/150 142/214/156 137/58/157
f 157/206/148 158/205/147 144/215/158 143/216/159
f 145/197/139 138/200/142 144/215/158 158/205/147
f 157/206/148 143/216/159 155/213/155 156/207/149
f 153/209/151 137/58/157 141/217/160 152/210/152
f 151/211/153 152/210/152 141/217/160 150/212/154
f 166/218/161 199/218/161 198/219/162 165/219/162
f 169/220/163 202/220/163 201/221/164 168/221/164
f 189/222/165 190/223/166 217/223/166 216/222/165
f 186/224/167 213/224/167 212/225/168 185/225/168
f 194/226/169 221/226/169 220/227/170 193/227/170
f 190/223/77 204/228/77 205/229/77 191/230/77
f 160/231/171 177/231/171 178/90/172 159/90/172
f 163/232/173 196/232/173 202/220/163 169/220/163
f 162/94/174 181/94/174 207/233/175 175/233/175
f 161/58/176 180/58/176 196/232/173 163/232/173
f 171/234/177 179/234/177 180/58/176 161/58/176
f 170/235/178 203/235/178 208/236/179 176/236/179
f 208/236/77 203/235/77 189/222/77
f 165/219/162 198/219/162 177/231/171 160/231/171
f 195/237/180 222/237/180 221/226/169 194/226/169
f 167/238/181 200/238/181 199/218/161 166/218/161
f 173/229/182 205/229/182 204/228/183 172/228/183
f 175/233/175 207/233/175 206/239/184 174/239/184
f 188/240/185 215/240/185 214/241/186 187/241/186
f 187/241/77 201/221/77 202/220/77 196/232/77 180/58/77 179/234/77 208/236/77 188/240/77
f 182/242/187 209/242/187 222/237/180 195/237/180
f 189/222/165 216/222/165 215/240/185 188/240/185
f 191/230/188 218/230/188 217/223/166 190/223/166
f 184/243/189 211/243/189 210/244/190 183/244/190
f 192/245/191 219/245/191 218/230/188 191/230/188
f 185/225/168 212/225/168 211/243/189 184/243/189
f 193/227/170 220/227/170 219/245/191 192/245/191
f 187/241/186 214/241/186 213/224/167 186/224/167
f 164/246/192 197/246/192 200/238/181 167/238/181
f 200/238/77 197/246/77 185/225/77 184/243/77
f 183/244/190 210/244/190 209/242/187 182/242/187
f 168/221/164 201/221/164 197/246/192 164/246/192
f 159/90/172 178/90/172 181/94/174 162/94/174
f 172/228/183 204/228/183 203/235/178 170/235/178
f 176/236/179 208/236/179 179/234/177 171/234/177
f 173/229/182 174/239/184 206/239/184 205/229/182
f 209/242/77 213/224/77 214/241/77 222/237/77
f 192/245/77 191/230/77 205/229/77 206/239/77
f 207/233/77 193/227/77 192/245/77 206/239/77
f 183/244/77 182/242/77 198/219/77 199/218/77
f 184/243/77 183/244/77 199/218/77 200/238/77
f 198/219/77 182/242/77 195/237/77 177/231/77
f 177/231/77 195/237/77 194/226/77 178/90/77
f 201/221/77 187/241/77 186/224/77
f 212/225/77 213/224/77 209/242/77 210/244/77
f 220/227/77 221/226/77 215/240/77 219/245/77
f 203/235/77 204/228/77 190/223/77 189/222/77
f 221/226/77 222/237/77 214/241/77 215/240/77
f 207/233/77 181/94/77 193/227/77
f 216/222/77 217/223/77 215/240/77
f 210/244/77 211/243/77 212/225/77
f 218/230/77 219/245/77 215/240/77 217/223/77
f 201/221/77 186/224/77 185/225/77 197/246/77
f 181/94/77 178/90/77 194/226/77 193/227/77
f 188/240/77 208/236/77 189/222/77
f 225/247/193 234/248/194 236/249/195 226/250/196
f 227/251/197 237/252/198 239/253/199 228/254/200
f 223/255/201 231/256/202 233/257/203 224/258/204
f 232/259/205 241/260/206 238/261/207 235/262/208
f 230/263/209 242/264/210 231/265/202 223/266/201
f 224/258/204 233/257/203 234/248/194 225/247/193
f 226/267/196 236/268/195 237/269/198 227/270/197
f 228/254/200 239/253/199 240/271/211 229/272/212
f 229/272/212 240/271/211 242/273/210 230/274/209
f 235/262/208 236/275/195 234/276/194
f 238/277/207 239/278/199 237/279/198
f 238/261/207 237/279/198 236/275/195 235/262/208
f 235/280/208 234/276/194 233/281/203 232/282/205
f 241/260/206 242/283/210 240/284/211
f 238/277/207 241/285/206 240/284/211 239/278/199
f 232/282/205 233/281/203 231/286/202
f 241/260/206 232/259/205 231/286/202 242/283/210
f 274/287/213 306/287/213 290/288/214 257/288/214
f 271/289/215 303/289/215 304/290/216 272/290/216
f 270/291/217 302/291/217 303/289/215 271/289/215
f 264/292/218 296/292/218 295/293/219 263/293/219
f 248/92/220 281/92/220 279/111/221 247/111/221
f 243/84/222 276/84/222 284/294/223 251/294/223
f 260/295/224 293/295/224 283/78/225 250/78/225
f 247/111/221 279/111/221 280/110/226 246/110/226
f 273/296/227 305/296/227 306/287/213 274/287/213
f 246/110/226 280/110/226 294/297/228 261/297/228
f 258/298/229 291/298/229 292/299/230 259/299/230
f 244/83/231 275/83/231 276/84/222 243/84/222
f 259/299/230 292/299/230 293/295/224 260/295/224
f 249/79/232 282/79/232 281/92/220 248/92/220
f 272/290/216 304/290/216 305/296/227 273/296/227
f 258/298/229 257/288/214 290/288/214 291/298/229
f 245/86/233 277/86/233 275/83/231 244/83/231
f 251/294/223 284/294/223 285/300/234 252/300/234
f 265/301/235 297/301/235 296/292/218 264/292/218
f 252/300/234 285/300/234 286/302/236 253/302/236
f 266/303/237 298/303/237 297/301/235 265/301/235
f 250/78/225 283/78/225 282/79/232 249/79/232
f 253/302/236 286/302/236 287/304/238 254/304/238
f 267/305/239 299/305/239 298/303/237 266/303/237
f 245/86/233 262/306/240 278/306/240 277/86/233
f 254/304/238 287/304/238 288/307/241 255/307/241
f 268/308/185 300/308/185 299/305/239 267/305/239
f 255/307/241 288/307/241 289/309/242 256/309/242
f 261/297/228 294/297/228 300/308/185 268/308/185
f 256/309/242 289/309/242 301/310/243 269/310/243
f 270/291/217 269/310/243 301/310/243 302/291/217
f 287/304/77 286/302/77 285/300/77 284/294/77 276/84/77 275/83/77 277/86/77 295/293/77 296/292/77 297/301/77 298/303/77 299/305/77 300/308/77 294/297/77 280/110/77 279/111/77 281/92/77 282/79/77 283/78/77 293/295/77 292/299/77 291/298/77 306/287/77 305/296/77 304/290/77 303/289/77 302/291/77 288/307/77
f 288/307/77 302/291/77 301/310/77 289/309/77
f 277/86/77 278/306/77 295/293/77
f 291/298/77 290/288/77 306/287/77
f 263/293/219 295/293/219 278/306/240 262/306/240
f 312/297/244 318/308/245 333/311/246 348/312/247
f 338/313/248 335/314/249 336/315/250 337/316/251
f 325/317/252 334/318/253 327/319/254 326/320/255
f 332/321/256 331/322/257 341/323/258 343/324/259
f 326/325/255 309/326/260 308/327/261
f 328/328/262 313/293/263 344/329/264
f 326/325/255 327/319/254 310/330/265 309/326/260
f 324/287/266 311/288/267 339/331/268
f 323/296/269 338/313/248 337/316/251 322/290/270
f 331/322/257 316/303/271 315/301/272 330/332/273
f 325/317/252 326/320/255 308/327/261 307/309/274
f 322/290/270 337/316/251 336/315/250 321/289/275
f 339/333/268 311/288/267 310/330/265 327/319/254
f 334/318/253 335/314/249 338/313/248 327/319/254
f 348/312/247 333/311/246 343/324/259 342/334/276
f 329/335/277 330/332/273 315/301/272 314/292/278
f 324/287/266 339/331/268 338/313/248 323/296/269
f 329/335/277 314/292/278 313/293/263 328/328/262
f 333/336/246 318/308/245 317/305/279 332/321/256
f 340/337/280 342/338/276 343/324/259 341/323/258
f 331/322/257 332/321/256 317/305/279 316/303/271
f 320/291/281 321/289/275 336/315/250 335/314/249
f 329/335/277 328/339/262 341/323/258 330/332/273
f 319/310/282 320/340/281 335/314/249 334/318/253
f 340/337/280 341/323/258 328/339/262 344/306/264
f 319/341/282 334/318/253 325/317/252 307/309/274
f 338/313/248 339/333/268 327/319/254
f 343/324/259 333/336/246 332/321/256
f 331/322/257 330/332/273 341/323/258
f 347/312/283 348/312/247 342/334/276 346/334/284
f 344/306/264 345/337/285 340/337/280
f 347/312/283 312/297/244 348/312/247
f 345/337/285 346/334/284 342/338/276 340/337/280
