# Blender 5.0.1
# www.blender.org
mtllib flashlight_1.mtl
o flashlight_1
v 0.148111 0.158975 -0.072000
v 0.145362 0.028277 -0.072000
v 0.148111 0.158975 0.072000
v 0.145362 0.028277 0.072000
v 0.172814 0.093396 -0.072000
v 0.208800 0.092400 -0.062824
v 0.172051 0.065854 -0.066519
v 0.208134 0.068368 -0.058042
v 0.171404 0.042504 -0.050912
v 0.207570 0.047994 -0.044423
v 0.170972 0.026903 -0.027553
v 0.207193 0.034381 -0.024042
v 0.170821 0.021424 0.000000
v 0.207061 0.029600 0.000000
v 0.170972 0.026903 0.027553
v 0.207193 0.034381 0.024042
v 0.171404 0.042504 0.050912
v 0.207570 0.047994 0.044423
v 0.172051 0.065854 0.066519
v 0.208134 0.068368 0.058042
v 0.172814 0.093396 0.072000
v 0.208800 0.092400 0.062824
v 0.173577 0.120939 0.066519
v 0.209466 0.116432 0.058042
v 0.174223 0.144289 0.050912
v 0.210030 0.136806 0.044423
v 0.174655 0.159890 0.027553
v 0.210407 0.150419 0.024042
v 0.174807 0.165369 0.000000
v 0.210539 0.155200 0.000000
v 0.174655 0.159890 -0.027553
v 0.210407 0.150419 -0.024042
v 0.174223 0.144289 -0.050912
v 0.210030 0.136806 -0.044423
v 0.173577 0.120939 -0.066519
v 0.209466 0.116432 -0.058042
v 0.144025 0.094194 -0.036000
v 0.143643 0.080422 -0.033260
v 0.143320 0.068748 -0.025456
v 0.143104 0.060947 -0.013777
v 0.143028 0.058207 0.000000
v 0.143104 0.060947 0.013777
v 0.143320 0.068748 0.025456
v 0.143643 0.080422 0.033260
v 0.144025 0.094194 0.036000
v 0.144406 0.107965 0.033260
v 0.144729 0.119640 0.025456
v 0.144946 0.127441 0.013777
v 0.145021 0.130180 0.000000
v 0.144946 0.127441 -0.013777
v 0.144729 0.119640 -0.025456
v 0.144406 0.107965 -0.033260
v 0.208037 0.064857 -0.066519
v 0.208800 0.092400 -0.072000
v 0.207391 0.041508 -0.050912
v 0.206959 0.025906 -0.027553
v 0.206807 0.020428 0.000000
v 0.206959 0.025906 0.027553
v 0.207391 0.041508 0.050912
v 0.208037 0.064857 0.066519
v 0.208800 0.092400 0.072000
v 0.209563 0.119943 0.066519
v 0.210209 0.143292 0.050912
v 0.210641 0.158894 0.027553
v 0.210793 0.164372 0.000000
v 0.210641 0.158894 -0.027553
v 0.210209 0.143292 -0.050912
v 0.209563 0.119943 -0.066519
v 0.140770 0.152185 0.079196
v 0.131895 0.143976 0.082800
v 0.129785 0.043601 0.082800
v 0.138310 0.035214 0.079196
v 0.115647 0.144902 0.082800
v 0.106673 0.154127 0.079196
v 0.118630 0.043183 0.082800
v 0.110190 0.034161 0.079196
v 0.138310 0.035214 -0.079196
v 0.129785 0.043601 -0.082800
v 0.131895 0.143976 -0.082800
v 0.140770 0.152185 -0.079196
v 0.110190 0.034161 -0.079196
v 0.118630 0.043183 -0.082800
v 0.115647 0.144902 -0.082800
v 0.106673 0.154127 -0.079196
v 0.051433 0.176695 0.055845
v 0.104665 0.028253 -0.072000
v 0.051433 0.176695 -0.055845
v -0.128899 0.021377 -0.072000
v -0.141066 0.145879 -0.072000
v 0.051588 0.161410 -0.072000
v 0.104664 0.028253 0.072000
v -0.128899 0.021377 0.072000
v -0.141066 0.145879 0.072000
v 0.051588 0.161410 0.072000
v 0.099340 0.161410 -0.072000
v 0.099340 0.161410 0.072000
v -0.143069 0.161195 -0.055844
v 0.099318 0.014312 -0.055844
v -0.143069 0.161195 0.055844
v 0.099318 0.014312 0.055844
v 0.157732 0.029557 -0.055844
v 0.154238 0.020480 -0.055844
v 0.157732 0.029557 0.055844
v 0.154238 0.020480 0.055844
v 0.150881 0.171737 -0.055885
v 0.160488 0.160621 -0.055844
v 0.157762 0.168019 -0.055846
v 0.160488 0.160621 0.055844
v 0.150881 0.171737 0.055885
v 0.157762 0.168019 0.055846
v -0.133814 0.006038 -0.055844
v -0.133814 0.006038 0.055844
v 0.146149 0.015080 -0.055844
v 0.146149 0.015080 0.055844
v -0.129293 0.006199 -0.051318
v -0.129293 0.006199 0.051318
v 0.111206 0.015008 -0.051318
v 0.141755 0.015008 -0.051318
v -0.112640 0.006790 -0.051318
v -0.117277 0.000343 -0.046681
v -0.124657 0.000343 -0.046681
v -0.124657 0.000343 0.046681
v -0.117277 0.000343 0.046681
v -0.112640 0.006790 0.051318
v 0.141755 0.006445 -0.051318
v 0.135653 0.000343 -0.045216
v 0.117308 0.000343 -0.045216
v 0.111206 0.006445 -0.051318
v 0.111206 0.006445 0.051318
v 0.117308 0.000343 0.045216
v 0.135653 0.000343 0.045216
v 0.141755 0.006445 0.051318
v 0.111206 0.015008 0.051318
v 0.141755 0.015008 0.051318
v 0.133714 0.238515 0.018000
v 0.133714 0.238515 -0.018000
v 0.151059 0.202379 -0.018000
v 0.067012 0.238515 0.018000
v 0.067012 0.238515 -0.018000
v 0.066966 0.191589 -0.018000
v 0.057444 0.176396 -0.028800
v 0.150878 0.171737 0.028800
v 0.150878 0.171737 -0.028800
v 0.062137 0.234519 0.013775
v 0.062186 0.190975 0.013802
v 0.053148 0.176610 0.024724
v 0.062137 0.234519 -0.013775
v 0.062186 0.190975 -0.013802
v 0.053148 0.176610 -0.024724
v 0.057439 0.176396 0.028800
v 0.066966 0.191589 0.018000
v 0.151063 0.202379 0.018000
v 0.102887 0.242838 0.008000
v 0.103903 0.255049 0.008000
v 0.107998 0.259079 0.008000
v 0.110515 0.259151 0.008000
v 0.114544 0.255285 0.008000
v 0.115510 0.242838 0.008000
v 0.102887 0.242838 -0.008000
v 0.103903 0.255049 -0.008000
v 0.107998 0.259079 -0.008000
v 0.110515 0.259151 -0.008000
v 0.114544 0.255285 -0.008000
v 0.115510 0.242838 -0.008000
v -0.104692 0.162883 0.025200
v -0.133096 0.160990 0.025200
v -0.139780 0.160544 0.018709
v -0.135520 0.225423 0.018000
v -0.142278 0.226646 0.011510
v -0.131135 0.231671 0.018000
v -0.134784 0.237352 0.011512
v 0.062054 0.268221 0.018000
v 0.062706 0.274822 0.011515
v 0.069416 0.264853 0.018000
v 0.073981 0.270183 0.011515
v 0.090969 0.238515 0.011515
v 0.083354 0.238515 0.018000
v -0.109654 0.220740 0.018000
v 0.057454 0.254258 0.018000
v 0.067012 0.238515 0.018000
v -0.104692 0.162883 -0.025200
v -0.139780 0.160544 -0.018709
v -0.133096 0.160990 -0.025200
v -0.142278 0.226646 -0.011510
v -0.135520 0.225423 -0.018000
v -0.134784 0.237352 -0.011512
v -0.131135 0.231671 -0.018000
v 0.062706 0.274822 -0.011515
v 0.062054 0.268221 -0.018000
v 0.073981 0.270183 -0.011515
v 0.069416 0.264853 -0.018000
v 0.083354 0.238515 -0.018000
v 0.090969 0.238515 -0.011515
v -0.109654 0.220740 -0.018000
v 0.057454 0.254258 -0.018000
v 0.067012 0.238515 -0.018000
v 0.012474 0.262946 0.018000
v 0.011167 0.269321 0.011514
v 0.014961 0.248847 0.018000
v 0.011167 0.269321 -0.011514
v 0.012474 0.262946 -0.018000
v 0.014961 0.248847 -0.018000
v -0.100409 0.163169 0.021545
v -0.105142 0.217442 0.014256
v 0.055228 0.249045 0.014188
v 0.062137 0.234519 0.013775
v -0.100409 0.163169 -0.021545
v -0.105142 0.217442 -0.014256
v 0.055228 0.249045 -0.014188
v 0.062137 0.234519 -0.013775
v 0.016086 0.244089 0.014175
v 0.016086 0.244089 -0.014175
v 0.203134 0.068368 -0.058042
v 0.203800 0.092400 -0.062824
v 0.202570 0.047994 -0.044423
v 0.202193 0.034381 -0.024042
v 0.202061 0.029600 0.000000
v 0.202193 0.034381 0.024042
v 0.202570 0.047994 0.044423
v 0.203134 0.068368 0.058042
v 0.203800 0.092400 0.062824
v 0.204466 0.116432 0.058042
v 0.205030 0.136806 0.044423
v 0.205407 0.150419 0.024042
v 0.205539 0.155200 0.000000
v 0.205407 0.150419 -0.024042
v 0.205030 0.136806 -0.044423
v 0.204466 0.116432 -0.058042
v 0.219229 0.082262 -0.025058
v 0.209089 0.072358 -0.048617
v 0.209613 0.092488 -0.052681
v 0.208646 0.055328 -0.037175
v 0.218837 0.067611 -0.010370
v 0.208350 0.043966 -0.020106
v 0.223604 0.092699 -0.000000
v 0.208246 0.039980 0.000000
v 0.218837 0.067611 0.010370
v 0.208350 0.043966 0.020106
v 0.208646 0.055328 0.037175
v 0.219229 0.082262 0.025058
v 0.209089 0.072358 0.048617
v 0.209613 0.092488 0.052681
v 0.219784 0.103025 0.025090
v 0.210138 0.112662 0.048725
v 0.210584 0.129801 0.037329
v 0.220177 0.117740 0.010402
v 0.210882 0.141271 0.020215
v 0.210987 0.145303 0.000000
v 0.220177 0.117740 -0.010402
v 0.210882 0.141271 -0.020215
v 0.210584 0.129801 -0.037329
v 0.219784 0.103025 -0.025090
v 0.210138 0.112662 -0.048725
v 0.066989 0.214559 0.018000
v 0.062162 0.212747 0.013788
v 0.062162 0.212747 -0.013788
v 0.143931 0.223256 -0.018000
v 0.143931 0.223256 0.018000
v 0.066989 0.214559 -0.018000
v -0.145804 0.017601 -0.055844
v -0.156510 0.146500 -0.055844
v -0.156510 0.146500 0.055844
v -0.145804 0.017601 0.055844
v 0.129630 0.238515 0.011700
v 0.129630 0.238515 -0.000000
v 0.129630 0.238515 -0.011700
v 0.097942 0.238515 0.011700
v 0.097942 0.238515 -0.000000
v 0.097942 0.238515 -0.011700
v 0.097942 0.242165 -0.011700
v 0.097942 0.242165 0.011700
v 0.129630 0.249720 -0.000000
v 0.129630 0.246585 0.011700
v 0.129630 0.246585 -0.011700
v 0.097942 0.246585 -0.011700
v 0.097942 0.246585 0.011700
v 0.127030 0.249720 -0.000000
v 0.127030 0.247258 0.009189
v 0.127030 0.247258 -0.009189
v 0.100542 0.247258 -0.009189
v 0.100542 0.247258 0.009189
v 0.100542 0.242838 0.009189
v 0.097942 0.242838 -0.000000
v 0.100542 0.242838 -0.009189
v 0.127030 0.242838 0.009189
v 0.127030 0.242838 -0.009189
v -0.112901 0.235603 -0.018000
v -0.114280 0.241856 -0.011513
v -0.114280 0.241856 0.011513
v -0.112901 0.235603 0.018000
vn -0.3629 0.3119 -0.8781
vn -0.6909 0.2068 -0.6927
vn -0.2956 0.6760 -0.6751
vn 0.5838 0.5081 -0.6333
vn 0.7808 0.1290 -0.6113
vn 0.5122 0.4619 -0.7241
vn 0.7914 -0.1410 -0.5948
vn 0.5085 -0.4903 -0.7078
vn 0.2024 0.7430 0.6380
vn 0.5122 0.4619 0.7241
vn 0.5838 0.5081 0.6333
vn 0.2120 -0.7472 0.6299
vn 0.6282 -0.5073 0.5899
vn 0.5085 -0.4903 0.7078
vn 0.2120 -0.7472 -0.6299
vn 0.0170 -0.7537 -0.6569
vn 0.0103 -0.5491 -0.8357
vn 0.7914 -0.1410 0.5948
vn -0.3642 -0.3835 -0.8487
vn -0.3571 0.3533 -0.8647
vn -0.1426 0.1466 -0.9789
vn -0.1428 -0.1527 -0.9779
vn -0.3642 -0.3835 0.8487
vn -0.1428 -0.1527 0.9779
vn -0.1426 0.1466 0.9789
vn -0.3571 0.3533 0.8647
vn 0.6282 -0.5073 -0.5899
vn 0.9996 -0.0277 -0.0000
vn -0.0085 0.4171 -0.9088
vn 0.0207 0.5509 -0.8343
vn 0.9812 -0.1930 -0.0000
vn 0.7808 -0.6247 -0.0000
vn 0.3670 0.3439 -0.8643
vn -0.4240 0.4061 -0.8095
vn 0.4295 0.4015 -0.8089
vn -0.0145 0.7462 -0.6656
vn -0.2943 -0.3617 0.8846
vn -0.2494 -0.6725 0.6968
vn 0.0170 -0.7537 0.6569
vn 0.0103 -0.5491 0.8357
vn -0.0106 -0.3825 0.9239
vn -0.0000 -0.0000 1.0000
vn 0.7552 0.6555 -0.0000
vn 0.2689 0.9632 -0.0000
vn 0.0196 0.7068 -0.7071
vn 0.0106 0.3825 -0.9239
vn 0.3565 -0.3724 -0.8569
vn 0.1515 -0.1490 -0.9772
vn 0.1552 0.1435 -0.9774
vn 0.2024 0.7430 -0.6380
vn 0.0196 0.7068 0.7071
vn 0.0106 0.3825 0.9239
vn 0.0259 -0.9997 -0.0000
vn -0.3578 -0.9338 -0.0000
vn 0.0256 0.9235 -0.3827
vn -0.2943 -0.3617 -0.8846
vn -0.2494 -0.6725 -0.6968
vn -0.6417 -0.2807 -0.7137
vn 0.7808 0.1290 0.6113
vn -0.0148 0.9999 -0.0000
vn 0.3565 -0.3724 0.8569
vn 0.3670 0.3439 0.8643
vn 0.1552 0.1435 0.9774
vn 0.1515 -0.1490 0.9772
vn 0.0277 0.9996 -0.0000
vn -0.0196 -0.7068 0.7071
vn -0.9034 -0.4289 -0.0000
vn -0.0277 -0.9996 -0.0000
vn -0.0256 -0.9235 -0.3827
vn -0.0256 -0.9235 0.3827
vn -0.0000 -0.0000 -1.0000
vn -0.0106 -0.3825 -0.9239
vn 0.0256 0.9235 0.3827
vn -0.0196 -0.7068 -0.7071
vn -0.7646 0.5985 0.2391
vn -0.7633 0.6461 -0.0000
vn -0.7646 0.5985 -0.2391
vn -0.7928 -0.4199 0.4417
vn -0.7872 -0.2174 0.5771
vn -0.7683 0.4632 0.4417
vn -0.7740 0.2606 0.5771
vn -0.7965 -0.5553 -0.2391
vn -0.7928 -0.4199 -0.4417
vn -0.7740 0.2606 -0.5771
vn -0.7806 0.0216 -0.6247
vn -0.7965 -0.5553 0.2391
vn -0.7979 -0.6028 -0.0000
vn -0.7806 0.0216 0.6247
vn -0.7872 -0.2174 -0.5771
vn -0.7683 0.4632 -0.4417
vn -0.0145 0.7462 0.6656
vn -0.0085 0.4171 0.9088
vn 0.0207 0.5509 0.8343
vn 0.4295 0.4015 0.8089
vn -0.4240 0.4061 0.8095
vn 0.4215 -0.4347 -0.7958
vn -0.4275 -0.4559 -0.7807
vn -0.3629 0.3119 0.8781
vn -0.4275 -0.4558 0.7807
vn 0.4215 -0.4347 0.7958
vn 0.2979 -0.9546 -0.0000
vn 0.2980 -0.9546 -0.0000
vn 0.9863 0.1653 -0.0000
vn -0.2956 0.6760 0.6751
vn -0.6909 0.2068 0.6927
vn -0.6417 -0.2807 0.7137
vn -0.4392 0.8984 -0.0000
vn -0.9464 0.3231 -0.0000
vn -0.0000 1.0000 -0.0000
vn -0.0000 -1.0000 -0.0000
vn -0.7840 -0.6208 -0.0000
vn 0.7071 -0.7071 -0.0000
vn -1.0000 -0.0000 -0.0000
vn -0.7071 -0.7071 -0.0000
vn 0.0148 -0.6019 -0.7985
vn 0.0148 -0.6019 0.7985
vn -0.0000 -0.7071 0.7071
vn -0.0000 -0.7071 -0.7071
vn 0.8118 -0.5839 -0.0000
vn 1.0000 -0.0000 -0.0000
vn -0.0148 0.4288 0.9033
vn -0.0148 0.4288 -0.9033
vn 0.8962 0.4436 -0.0000
vn 0.8309 0.5564 -0.0000
vn -1.0000 -0.0011 -0.0000
vn -0.5014 0.6943 0.5163
vn 1.0000 -0.0060 -0.0000
vn -0.5013 0.6943 -0.5164
vn -0.6577 0.0002 -0.7533
vn -0.6573 0.0002 -0.7537
vn -0.6587 0.0002 -0.7524
vn -0.6573 0.0002 0.7537
vn -0.6563 0.0002 0.7545
vn -0.6577 0.0002 0.7533
vn -0.8464 0.5325 -0.0000
vn -0.6339 0.7734 -0.0000
vn 0.9970 0.0774 -0.0000
vn 0.9040 0.4275 -0.0000
vn -0.9966 0.0829 -0.0000
vn -0.9055 0.4243 -0.0000
vn 0.3599 0.9330 -0.0000
vn -0.3921 0.9199 -0.0000
vn 0.0024 0.0471 -0.9989
vn 0.0033 0.0639 -0.9980
vn 0.6663 0.1520 -0.7301
vn 0.0024 0.0471 0.9989
vn 0.0033 0.0639 0.9980
vn -0.3861 0.5765 -0.7201
vn -0.3828 0.5788 -0.7201
vn -0.1512 0.6978 -0.7001
vn -0.1509 0.6941 -0.7039
vn 0.4638 0.4994 -0.7318
vn 0.1080 0.6861 -0.7195
vn 0.0995 0.6874 -0.7194
vn 0.4580 0.5048 -0.7317
vn 0.1256 -0.9921 -0.0000
vn 0.1699 -0.9855 -0.0000
vn 0.6663 0.1520 0.7301
vn 0.6171 0.3290 -0.7148
vn -0.6517 0.2414 -0.7190
vn -0.6921 0.0533 -0.7198
vn -0.6543 0.2322 -0.7197
vn -0.9030 -0.4295 -0.0000
vn -0.2138 0.9769 -0.0000
vn -0.1607 0.9870 -0.0000
vn -0.2137 0.9769 -0.0000
vn -0.5548 0.8320 -0.0000
vn -0.9623 0.2718 -0.0000
vn 0.2161 -0.9764 -0.0000
vn 0.1415 0.9899 -0.0000
vn 0.4580 0.5048 0.7317
vn 0.4638 0.4994 0.7318
vn 0.6171 0.3290 0.7148
vn -0.5226 -0.2952 0.7999
vn 0.0995 0.6874 0.7194
vn 0.1080 0.6861 0.7195
vn -0.5226 -0.2952 -0.7999
vn 0.6701 0.7422 -0.0000
vn -0.6921 0.0533 0.7198
vn -0.6517 0.2414 0.7190
vn -0.6543 0.2322 0.7197
vn 0.1048 -0.6065 -0.7881
vn 0.1065 -0.6062 -0.7882
vn 0.0776 -0.6117 -0.7873
vn -0.3862 0.5766 0.7200
vn -0.1512 0.6978 0.7002
vn -0.1510 0.6942 0.7038
vn -0.3828 0.5788 0.7201
vn -0.1124 0.6959 -0.7093
vn -0.1139 0.6959 -0.7090
vn 0.0776 -0.6117 0.7873
vn 0.1065 -0.6062 0.7881
vn 0.1048 -0.6065 0.7881
vn 0.1476 -0.6603 0.7363
vn 0.1475 -0.6601 0.7365
vn -0.9993 -0.0378 -0.0000
vn -0.1138 0.6958 0.7092
vn -0.1125 0.6962 0.7090
vn 0.0060 0.1173 0.9931
vn 0.0060 0.1173 -0.9931
vn 0.8812 0.4727 -0.0000
vn 0.9962 0.0869 -0.0000
vn -0.0000 0.9234 0.3838
vn -0.0000 0.9244 0.3813
vn -0.0000 -0.9244 -0.3813
vn -0.0000 -0.7090 -0.7053
vn -0.0000 -0.7055 -0.7087
vn -0.0000 -0.9234 -0.3838
vn -0.0000 0.7055 0.7087
vn -0.0000 0.7090 0.7053
vn -0.0000 -0.3857 -0.9226
vn -0.0000 -0.3799 -0.9250
vn -0.0000 0.3799 0.9250
vn -0.0000 0.3857 0.9226
vn -0.0000 -0.0034 -1.0000
vn -0.0000 0.0034 -1.0000
vn -0.0000 -0.0034 1.0000
vn -0.0000 -0.3857 0.9226
vn -0.0000 -0.3799 0.9250
vn -0.0000 0.0034 1.0000
vn -0.0000 0.3799 -0.9250
vn -0.0000 0.3857 -0.9226
vn -0.0000 -0.7090 0.7053
vn -0.0000 -0.7055 0.7087
vn -0.0000 0.7055 -0.7087
vn -0.0000 0.7090 -0.7053
vn -0.0000 -0.9244 0.3813
vn -0.0000 -0.9234 0.3838
vn -0.0000 0.9234 -0.3838
vn -0.0000 0.9244 -0.3813
vn 0.9664 0.0759 -0.2455
vn 0.9699 0.2211 -0.1023
vn 0.9997 -0.0259 -0.0000
vn 0.9584 -0.2674 0.1001
vn 0.9616 -0.1266 0.2434
vn 0.9664 0.0759 0.2455
vn 0.9699 0.2211 0.1023
vn 0.9617 -0.1265 -0.2433
vn 0.8906 -0.4548 -0.0000
vn 0.8590 -0.5119 -0.0000
vn 0.8597 -0.4756 -0.1866
vn 0.8911 -0.4226 -0.1651
vn 0.9047 0.2889 0.3131
vn 0.9065 0.3864 0.1700
vn 0.8754 0.4428 0.1939
vn 0.8735 0.3314 0.3566
vn 0.8956 -0.1906 0.4020
vn 0.8988 -0.0241 0.4378
vn 0.8674 -0.0252 0.4969
vn 0.8642 -0.2138 0.4555
vn 0.8989 -0.0241 -0.4375
vn 0.8674 -0.0252 -0.4969
vn 0.8707 0.1665 -0.4628
vn 0.9020 0.1445 -0.4069
vn 0.9020 0.1445 0.4069
vn 0.8707 0.1665 0.4628
vn 0.9047 0.2889 -0.3131
vn 0.8735 0.3314 -0.3566
vn 0.8754 0.4428 -0.1939
vn 0.9065 0.3864 -0.1700
vn 0.9072 0.4207 -0.0000
vn 0.8761 0.4822 -0.0000
vn 0.8911 -0.4226 0.1651
vn 0.8929 -0.3301 0.3060
vn 0.8615 -0.3714 0.3463
vn 0.8597 -0.4756 0.1866
vn 0.8615 -0.3714 -0.3463
vn 0.8929 -0.3302 -0.3061
vn 0.8956 -0.1906 -0.4020
vn 0.8642 -0.2138 -0.4555
vn 0.9585 -0.2669 -0.1000
vn -0.6587 0.0002 0.7524
vn -0.6563 0.0002 -0.7545
vn 0.9463 0.3232 -0.0000
vn -0.1989 0.9784 0.0563
vn -0.1053 0.9940 0.0298
vn -0.0356 0.9994 -0.0000
vn -0.6947 -0.0000 0.7193
vn -0.1053 0.9940 -0.0298
vn -0.1989 0.9784 -0.0563
vn -0.0000 0.9659 0.2588
vn -0.0000 0.9659 -0.2588
vn -0.6947 -0.0000 -0.7193
vn 0.1475 -0.6601 -0.7365
vn 0.1476 -0.6603 -0.7363
vt 0.045113 0.576259
vt 0.021167 0.578184
vt 0.042006 0.623747
vt 0.508371 0.644907
vt 0.512612 0.621966
vt 0.493411 0.616865
vt 0.508329 0.215597
vt 0.489159 0.211627
vt 0.497704 0.656434
vt 0.490377 0.170709
vt 0.502912 0.187455
vt 0.417771 0.168331
vt 0.426064 0.211555
vt 0.508329 0.215597
vt 0.434631 0.229871
vt 0.429172 0.601833
vt 0.443082 0.573230
vt 0.447712 0.257845
vt 0.434631 0.229871
vt 0.562672 0.410673
vt 0.591743 0.320195
vt 0.604316 0.344500
vt 0.578949 0.423447
vt 0.343779 0.624414
vt 0.417813 0.624414
vt 0.179688 0.187500
vt 0.179688 0.156250
vt 0.343750 0.156250
vt 0.343750 0.187500
vt 0.482031 0.595812
vt 0.343537 0.671805
vt 0.063979 0.190234
vt 0.056357 0.142677
vt 0.851562 0.078125
vt 0.851562 0.203125
vt 0.804688 0.203125
vt 0.804688 0.078125
vt 0.273438 0.531250
vt 0.289062 0.531250
vt 0.289062 0.187500
vt 0.273438 0.187500
vt 0.898438 0.078125
vt 0.898438 0.203125
vt 0.478230 0.233136
vt 0.465002 0.259140
vt 0.468278 0.570361
vt 0.497704 0.656433
vt 0.945312 0.078125
vt 0.945312 0.203125
vt 0.406442 0.566253
vt 0.046976 0.566253
vt 0.046976 0.219265
vt 0.406442 0.219265
vt 0.037764 0.178526
vt 0.437500 0.531250
vt 0.437500 0.187500
vt 0.992188 0.078125
vt 0.992188 0.203125
vt 0.212668 0.162167
vt 0.373543 0.162167
vt 0.373543 0.195723
vt 0.212668 0.195723
vt 0.546286 0.321331
vt 0.546286 0.260023
vt 0.625802 0.260023
vt 0.625802 0.321331
vt 0.624041 0.693141
vt 0.624041 0.754449
vt 0.547009 0.754449
vt 0.547009 0.693141
vt 0.625802 0.627872
vt 0.546286 0.627872
vt 0.546286 0.566564
vt 0.625802 0.566564
vt 0.625802 0.382639
vt 0.625802 0.443948
vt 0.546286 0.443948
vt 0.546286 0.382639
vt 0.624041 0.325292
vt 0.624041 0.386600
vt 0.547009 0.386600
vt 0.547009 0.325292
vt 0.624041 0.570525
vt 0.547009 0.570525
vt 0.547009 0.509217
vt 0.624041 0.509217
vt 0.625802 0.689181
vt 0.546286 0.689181
vt 0.547009 0.263984
vt 0.624041 0.263984
vt 0.625802 0.505256
vt 0.546286 0.505256
vt 0.547009 0.447908
vt 0.624041 0.447908
vt 0.546286 0.750489
vt 0.625802 0.750489
vt 0.547009 0.631833
vt 0.624041 0.631833
vt 0.592382 0.319597
vt 0.604919 0.343977
vt 0.579435 0.422773
vt 0.563176 0.409902
vt 0.553044 0.516411
vt 0.570549 0.515709
vt 0.562783 0.410882
vt 0.553186 0.516449
vt 0.570722 0.515712
vt 0.579096 0.423599
vt 0.580393 0.607238
vt 0.564326 0.621309
vt 0.562360 0.411808
vt 0.552919 0.517431
vt 0.570454 0.516590
vt 0.578691 0.424428
vt 0.564536 0.621135
vt 0.595105 0.709004
vt 0.607298 0.683725
vt 0.580625 0.607056
vt 0.570897 0.514984
vt 0.553392 0.515582
vt 0.580605 0.606571
vt 0.564518 0.620547
vt 0.606983 0.684101
vt 0.594800 0.709399
vt 0.607081 0.683592
vt 0.594861 0.708818
vt 0.607279 0.684385
vt 0.580493 0.607875
vt 0.564424 0.622050
vt 0.595124 0.709736
vt 0.591308 0.321259
vt 0.603950 0.345419
vt 0.591867 0.320506
vt 0.604473 0.344741
vt 0.045113 0.576259
vt 0.478652 0.566253
vt 0.478652 0.219264
vt 0.496133 0.219264
vt 0.496133 0.566253
vt 0.363443 0.496168
vt 0.363443 0.178692
vt 0.348777 0.176994
vt 0.348777 0.497866
vt 0.348777 0.497866
vt 0.156525 0.174810
vt 0.156525 0.500050
vt 0.406442 0.566253
vt 0.411081 0.173260
vt 0.478652 0.219264
vt 0.479278 0.177874
vt 0.445312 0.515625
vt 0.148438 0.515625
vt 0.148438 0.171875
vt 0.445312 0.171875
vt 0.406250 0.296875
vt 0.195312 0.296875
vt 0.195312 0.218750
vt 0.406250 0.218750
vt 0.568646 0.497332
vt 0.545541 0.689331
vt 0.625000 0.497332
vt 0.568646 0.689331
vt 0.625000 0.689331
vt 0.625000 0.705126
vt 0.568646 0.705126
vt 0.613743 0.333183
vt 0.613743 0.666817
vt 0.579903 0.666817
vt 0.579903 0.333183
vt 0.555428 0.672224
vt 0.546523 0.689331
vt 0.546523 0.310669
vt 0.555429 0.327776
vt 0.625000 0.310669
vt 0.545541 0.310669
vt 0.545541 0.689331
vt 0.553438 0.689331
vt 0.553438 0.310669
vt 0.534284 0.333183
vt 0.534284 0.666817
vt 0.546885 0.309914
vt 0.577542 0.307330
vt 0.569042 0.327776
vt 0.546885 0.690087
vt 0.569042 0.672224
vt 0.577542 0.692670
vt 0.568646 0.310669
vt 0.534284 0.672224
vt 0.534284 0.327776
vt 0.544507 0.310669
vt 0.544507 0.689331
vt 0.568646 0.294874
vt 0.625000 0.294874
vt 0.632898 0.310669
vt 0.632898 0.689331
vt 0.335136 0.339074
vt 0.195663 0.303285
vt 0.179878 0.252892
vt 0.334831 0.237440
vt 0.195702 0.379471
vt 0.195740 0.458929
vt 0.306368 0.458929
vt 0.323312 0.408317
vt 0.054110 0.384078
vt 0.120925 0.384078
vt 0.120925 0.447957
vt 0.054110 0.447957
vt 0.323312 0.408317
vt 0.306368 0.458929
vt 0.195740 0.458929
vt 0.195702 0.379471
vt 0.387404 0.422620
vt 0.425000 0.422573
vt 0.425000 0.327427
vt 0.387403 0.327380
vt 0.187744 0.301251
vt 0.172752 0.253603
vt 0.054110 0.306565
vt 0.051153 0.200581
vt 0.123883 0.200581
vt 0.120925 0.306565
vt 0.187702 0.373463
vt 0.187660 0.445676
vt 0.187702 0.373463
vt 0.320078 0.460389
vt 0.349807 0.422667
vt 0.349807 0.327333
vt 0.320078 0.289611
vt 0.289092 0.468750
vt 0.423238 0.468750
vt 0.423238 0.328125
vt 0.289092 0.328125
vt 0.061952 0.458557
vt 0.398049 0.869644
vt 0.378234 0.844716
vt 0.366239 0.841372
vt 0.610809 0.429617
vt 0.586405 0.429617
vt 0.588369 0.477012
vt 0.608941 0.477924
vt 0.582793 0.492176
vt 0.582793 0.430314
vt 0.607944 0.430314
vt 0.607944 0.492176
vt 0.606490 0.492176
vt 0.606490 0.430314
vt 0.596286 0.492595
vt 0.601152 0.492873
vt 0.601152 0.492176
vt 0.601152 0.430314
vt 0.596286 0.430314
vt 0.596286 0.492176
vt 0.588369 0.430314
vt 0.588369 0.492176
vt 0.616752 0.788366
vt 0.557286 0.741704
vt 0.577008 0.685691
vt 0.612889 0.718596
vt 0.579730 0.394242
vt 0.557885 0.290359
vt 0.546854 0.314530
vt 0.631237 0.429309
vt 0.630145 0.195752
vt 0.620949 0.196300
vt 0.622289 0.445247
vt 0.533267 0.304553
vt 0.533406 0.394555
vt 0.547117 0.394500
vt 0.548359 0.711944
vt 0.534450 0.717868
vt 0.547019 0.763695
vt 0.691391 0.379196
vt 0.691419 0.207568
vt 0.753080 0.207568
vt 0.753109 0.379196
vt 0.620949 0.196300
vt 0.616752 0.788366
vt 0.618531 0.820990
vt 0.568065 0.475895
vt 0.559952 0.199933
vt 0.545598 0.200787
vt 0.553898 0.483902
vt 0.624596 0.309499
vt 0.625831 0.222661
vt 0.541016 0.222661
vt 0.542251 0.309499
vt 0.747221 0.199668
vt 0.745959 0.733835
vt 0.695307 0.733804
vt 0.697761 0.199545
vt 0.581890 0.395396
vt 0.548969 0.395396
vt 0.548972 0.426012
vt 0.581887 0.426012
vt 0.753240 0.219608
vt 0.753083 0.731837
vt 0.698305 0.731837
vt 0.698148 0.219608
vt 0.706435 0.188497
vt 0.756525 0.188497
vt 0.756524 0.413974
vt 0.706436 0.413974
vt 0.587583 0.673722
vt 0.620175 0.696242
vt 0.620175 0.696242
vt 0.539647 0.225047
vt 0.577055 0.225047
vt 0.577054 0.262599
vt 0.539648 0.262599
vt 0.704933 0.220955
vt 0.703029 0.407260
vt 0.734096 0.411511
vt 0.734070 0.194615
vt 0.704483 0.220705
vt 0.733620 0.194365
vt 0.733645 0.411261
vt 0.702579 0.407010
vt 0.689600 0.404466
vt 0.691322 0.232872
vt 0.754034 0.414224
vt 0.754034 0.188747
vt 0.689149 0.404216
vt 0.690872 0.232622
vt 0.764100 0.219286
vt 0.737587 0.731590
vt 0.724036 0.738108
vt 0.753689 0.210600
vt 0.538679 0.615028
vt 0.592180 0.615028
vt 0.753584 0.413974
vt 0.753584 0.188497
vt 0.552178 0.263218
vt 0.539647 0.173276
vt 0.577055 0.173275
vt 0.577055 0.283388
vt 0.539647 0.283388
vt 0.633416 0.411367
vt 0.655235 0.736254
vt 0.526261 0.736254
vt 0.548079 0.411367
vt 0.565913 0.934329
vt 0.565913 0.853081
vt 0.574199 0.853081
vt 0.574199 0.934329
vt 0.565913 0.852764
vt 0.565913 0.771454
vt 0.574199 0.771454
vt 0.574199 0.852764
vt 0.565913 0.771828
vt 0.574199 0.771828
vt 0.565913 0.690155
vt 0.574199 0.690155
vt 0.565913 0.690566
vt 0.574199 0.690566
vt 0.565913 0.608867
vt 0.574199 0.608867
vt 0.565913 0.609292
vt 0.565913 0.528005
vt 0.574199 0.528005
vt 0.574199 0.609292
vt 0.565913 0.527593
vt 0.574199 0.527593
vt 0.565913 0.446705
vt 0.574199 0.446705
vt 0.565913 0.446331
vt 0.574199 0.446331
vt 0.565913 0.365395
vt 0.574199 0.365395
vt 0.565913 0.365078
vt 0.574199 0.365078
vt 0.565913 0.284080
vt 0.574199 0.284080
vt 0.565913 0.283830
vt 0.574199 0.283830
vt 0.565913 0.934080
vt 0.574199 0.934080
vt 0.923668 0.577101
vt 0.897365 0.629801
vt 0.878737 0.540115
vt 0.860166 0.450261
vt 0.878737 0.540115
vt 0.833863 0.502733
vt 0.833807 0.577100
vt 0.878737 0.540115
vt 0.860109 0.629801
vt 0.878737 0.540115
vt 0.923611 0.502733
vt 0.878737 0.351299
vt 0.878737 0.314124
vt 0.921790 0.331245
vt 0.914743 0.365576
vt 0.811890 0.672998
vt 0.842536 0.714081
vt 0.835684 0.746844
vt 0.799185 0.698087
vt 0.791675 0.467264
vt 0.784397 0.539359
vt 0.766234 0.539044
vt 0.774798 0.452971
vt 0.973077 0.539359
vt 0.991240 0.539044
vt 0.982677 0.625118
vt 0.965994 0.611615
vt 0.791481 0.611615
vt 0.774798 0.625118
vt 0.945585 0.672998
vt 0.958289 0.698087
vt 0.921790 0.746844
vt 0.914938 0.714081
vt 0.878737 0.728519
vt 0.878737 0.763965
vt 0.842731 0.365576
vt 0.812165 0.406269
vt 0.799185 0.380001
vt 0.835684 0.331245
vt 0.958289 0.380001
vt 0.945309 0.406269
vt 0.965799 0.467264
vt 0.982677 0.452971
vt 0.897308 0.450261
vt 0.878737 0.540115
vt 0.878737 0.540115
vt 0.335130 0.339074
vt 0.054110 0.306565
vt 0.120925 0.306565
vt 0.335132 0.339074
vt 0.421875 0.156250
vt 0.421875 0.531250
vt 0.257812 0.531250
vt 0.257812 0.156250
vt 0.329956 0.291966
vt 0.308026 0.291966
vt 0.308026 0.305649
vt 0.329956 0.308172
vt 0.300259 0.305649
vt 0.300259 0.322218
vt 0.359653 0.322218
vt 0.359653 0.291966
vt 0.300259 0.291966
vt 0.351886 0.291966
vt 0.351886 0.305649
vt 0.351886 0.291966
vt 0.351886 0.322218
vt 0.329956 0.333971
vt 0.300259 0.268640
vt 0.305133 0.278055
vt 0.300259 0.312500
vt 0.359653 0.291966
vt 0.300259 0.291966
vt 0.305133 0.308172
vt 0.305133 0.324741
vt 0.354779 0.308172
vt 0.354779 0.324741
vt 0.305133 0.346945
vt 0.300259 0.356360
vt 0.354779 0.312500
vt 0.354779 0.278055
vt 0.359653 0.268640
vt 0.359653 0.312500
vt 0.354779 0.346945
vt 0.359653 0.356360
vt 0.312733 0.308172
vt 0.312733 0.324741
vt 0.308026 0.322218
vt 0.308026 0.291966
vt 0.347179 0.324741
vt 0.347179 0.308172
vt 0.721171 0.203688
vt 0.692462 0.736544
vt 0.672307 0.733115
vt 0.701691 0.199478
vt 0.720569 0.204237
vt 0.701085 0.200096
vt 0.673208 0.734048
vt 0.693365 0.737406
vt 0.539652 0.903204
vt 0.539651 0.836588
vt 0.577051 0.836588
vt 0.577050 0.903204
vt 0.724941 0.738857
vt 0.753093 0.211033
s 1
usemtl flashlight_1
f 89/1/1 261/2/2 97/3/3
f 107/4/4 106/5/5 1/6/6
f 101/7/7 2/8/8 1/6/6 106/5/5
f 109/9/9 3/6/10 110/4/11
f 114/10/12 104/11/13 4/8/14
f 2/8/8 113/10/15 98/12/16 86/13/17
f 104/11/13 103/14/18 4/8/14
f 81/15/19 84/16/20 83/17/21 82/18/22
f 76/19/23 75/18/24 73/17/25 74/16/26
f 2/8/8 102/11/27 113/10/15
f 53/20/28 54/21/28 6/22/28 8/23/28
f 90/24/29 95/25/30 86/13/17
f 103/26/31 104/27/32 102/28/32 101/29/31
f 80/30/33 84/16/20 95/25/34 1/6/35
f 90/24/29 89/1/1 97/3/3 87/31/36
f 92/32/37 112/33/38 100/12/39 91/13/40
f 19/34/41 60/35/41 61/36/42 21/37/42
f 107/38/43 105/39/44 109/40/44 110/41/43
f 33/42/45 67/43/45 68/35/46 35/34/46
f 77/44/47 78/45/48 79/46/49 80/30/33
f 105/47/50 107/4/4 1/6/6
f 63/43/51 25/42/51 23/48/52 62/49/52
f 100/50/53 112/51/54 111/52/54 98/53/53
f 33/42/45 31/48/55 66/49/55 67/43/45
f 88/32/56 111/33/57 260/54/58
f 103/14/18 108/5/59 3/6/10 4/8/14
f 87/55/60 85/56/60 109/40/44 105/39/44
f 108/5/59 110/4/11 3/6/10
f 72/44/61 69/30/62 70/46/63 71/45/64
f 29/57/65 65/58/65 66/49/55 31/48/55
f 60/35/41 19/34/41 17/42/66 59/43/66
f 111/59/54 112/60/54 263/61/67 260/62/67
f 57/36/68 13/37/68 11/34/69 56/35/69
f 15/48/70 58/49/70 59/43/66 17/42/66
f 5/57/71 54/58/71 53/49/72 7/48/72
f 25/42/51 63/43/51 64/35/73 27/34/73
f 11/34/69 9/42/74 55/43/74 56/35/69
f 65/36/65 29/37/65 27/34/73 64/35/73
f 9/42/74 7/48/72 53/49/72 55/43/74
f 27/63/75 29/64/76 49/65/76 48/66/75
f 50/67/77 49/68/76 29/69/76 31/70/77
f 43/71/78 17/72/78 19/73/79 44/74/79
f 47/75/80 46/76/81 23/77/81 25/78/80
f 40/79/82 39/80/83 9/81/83 11/82/82
f 52/83/84 35/84/84 5/85/85 37/86/85
f 42/87/86 15/88/86 17/72/78 43/71/78
f 40/79/82 11/82/82 13/89/87 41/90/87
f 46/76/81 45/91/88 21/92/88 23/77/81
f 37/86/85 5/85/85 7/93/89 38/94/89
f 19/73/79 21/92/88 45/91/88 44/74/79
f 38/94/89 7/93/89 9/81/83 39/80/83
f 13/95/87 15/88/86 42/87/86 41/96/87
f 33/97/90 35/84/84 52/83/84 51/98/90
f 61/99/28 22/100/28 24/101/28 62/102/28
f 55/103/28 53/20/28 8/23/28 10/104/28
f 68/105/28 67/106/28 34/107/28 36/108/28
f 55/103/28 10/104/28 12/109/28 56/110/28
f 60/111/28 59/112/28 18/113/28 20/114/28
f 66/115/28 65/116/28 30/117/28 32/118/28
f 62/102/28 24/101/28 26/119/28 63/120/28
f 63/120/28 26/119/28 28/121/28 64/122/28
f 56/110/28 12/109/28 14/123/28 57/124/28
f 64/122/28 28/121/28 30/125/28 65/126/28
f 14/127/28 16/128/28 58/129/28 57/130/28
f 16/128/28 18/113/28 59/112/28 58/129/28
f 61/131/28 60/111/28 20/114/28 22/132/28
f 54/133/28 68/105/28 36/108/28 6/134/28
f 1/6/6 95/25/30 90/24/29 87/31/36 105/47/50
f 3/6/10 109/9/9 85/31/91 94/24/92 96/25/93
f 69/30/62 3/6/94 96/25/95 74/16/26
f 77/44/47 2/8/96 86/13/97 81/15/19
f 94/24/92 93/135/98 92/32/37 91/13/40
f 88/32/56 86/13/17 98/12/16 111/33/57
f 62/49/52 23/48/52 21/57/42 61/58/42
f 72/44/61 76/19/23 91/13/99 4/8/100
f 101/7/7 102/11/27 2/8/8
f 114/136/101 113/137/102 102/138/32 104/139/32
f 15/48/70 13/57/68 57/58/68 58/49/70
f 54/36/71 5/37/71 35/34/46 68/35/46
f 48/66/75 47/75/80 25/78/80 27/63/75
f 72/44/61 71/45/64 75/18/24 76/19/23
f 69/30/62 74/16/26 73/17/25 70/46/63
f 77/44/47 81/15/19 82/18/22 78/45/48
f 80/30/33 79/46/49 83/17/21 84/16/20
f 107/140/43 110/141/43 108/142/103 106/143/103
f 106/144/103 108/142/103 103/145/31 101/146/31
f 67/106/28 66/115/28 32/118/28 34/107/28
f 93/135/98 99/3/104 262/2/105
f 4/8/100 3/6/94 69/30/62 72/44/61
f 2/8/96 77/44/47 80/30/33 1/6/35
f 93/135/98 94/24/92 85/31/91 99/3/104
f 50/67/77 31/70/77 33/97/90 51/98/90
f 263/54/106 92/32/37 93/135/98 262/2/105
f 260/54/58 261/2/2 89/1/1 88/32/56
f 75/18/24 71/45/64 70/46/63 73/17/25
f 79/46/49 78/45/48 82/18/22 83/17/21
f 91/13/99 76/19/23 74/16/26 96/25/95
f 84/16/20 81/15/19 86/13/97 95/25/34
f 100/147/53 98/148/53 113/149/102 114/150/101
f 92/32/37 263/54/106 112/33/38
f 87/151/60 97/152/107 99/153/107 85/154/60
f 96/25/93 94/24/92 91/13/40
f 90/24/29 86/13/17 88/32/56 89/1/1
f 261/155/108 262/156/108 99/157/107 97/158/107
f 133/159/109 134/160/109 118/161/109 117/159/109
f 129/162/42 132/163/42 134/164/42 133/165/42
f 126/166/110 131/167/110 130/168/110 127/169/110
f 122/170/111 116/171/111 115/172/111 121/173/111
f 125/174/112 132/163/112 131/167/112 126/166/112
f 128/175/113 129/176/113 133/177/113 117/178/113
f 128/175/114 127/179/114 130/180/114 129/176/114
f 115/181/115 119/182/115 120/183/115 121/173/115
f 116/184/116 122/170/116 123/185/116 124/186/116
f 129/162/117 130/168/117 131/167/117 132/163/117
f 128/187/118 125/174/118 126/166/118 127/169/118
f 123/188/119 120/189/119 119/190/119 124/191/119
f 120/183/110 123/185/110 122/170/110 121/173/110
f 125/174/71 128/187/71 117/192/71 118/193/71
f 132/163/120 125/174/120 118/194/120 134/195/120
f 152/196/121 151/197/121 150/198/121 142/199/121
f 140/197/122 137/196/122 143/199/122 141/198/122
f 259/200/71 139/201/71 136/202/71 257/203/71
f 258/204/123 257/205/123 136/206/124 135/207/124
f 258/208/42 135/209/42 138/210/42 254/211/42
f 255/212/125 144/213/125 147/214/125 256/215/125
f 151/197/126 145/216/126 146/217/126 150/198/126
f 152/218/127 142/219/127 143/220/127 137/221/127
f 149/217/128 148/216/128 140/197/128 141/198/128
f 256/222/129 259/200/130 140/197/131 148/216/131
f 254/211/132 138/210/133 144/223/133 255/224/134
f 146/225/135 145/226/135 148/227/135 149/228/135
f 138/229/109 135/230/109 136/231/109 139/232/109
f 144/233/136 138/234/136 139/235/136 147/236/136
f 164/237/71 159/238/71 160/239/71 163/240/71
f 158/241/137 164/242/137 163/243/138 157/244/138
f 159/242/139 153/241/139 154/245/140 160/246/140
f 154/239/42 153/238/42 158/237/42 157/240/42
f 163/240/71 160/239/71 161/247/71 162/248/71
f 155/247/42 154/239/42 157/240/42 156/248/42
f 156/249/141 162/250/141 161/251/142 155/252/142
f 155/252/142 161/251/142 160/253/140 154/254/140
f 157/244/138 163/243/138 162/250/141 156/249/141
f 177/255/42 174/256/42 179/257/42 180/258/42
f 194/259/143 185/260/144 187/261/71
f 208/262/145 207/263/145 181/264/145 194/265/145
f 178/259/146 170/261/42 168/260/147
f 187/261/148 186/266/149 288/267/150 287/268/151
f 191/256/152 189/269/153 188/270/154 190/271/155
f 205/272/156 211/273/157 212/274/157 209/275/156
f 165/276/158 203/263/158 204/262/158 178/265/158
f 192/277/159 191/256/152 190/271/155 193/278/159
f 185/279/160 183/280/161 182/281/161 184/282/162
f 206/283/163 205/284/163 209/285/163 210/286/163
f 289/287/164 198/288/165 200/289/165 288/290/166
f 189/269/71 191/256/71 195/257/71
f 171/291/167 186/292/167 184/293/168 169/294/168
f 208/295/169 212/296/157 211/297/157 204/298/169
f 173/299/170 188/300/170 200/301/165 198/302/165
f 175/271/171 174/256/172 177/255/173 176/278/173
f 180/258/174 179/257/174 205/303/174 206/304/174
f 173/270/175 172/269/176 174/256/172 175/271/171
f 209/303/177 195/257/177 196/258/177 210/305/177
f 175/306/178 190/307/178 188/308/170 173/309/170
f 195/310/71 202/311/71 201/312/71 189/313/71
f 179/314/42 172/315/42 197/316/42 199/317/42
f 167/281/179 166/280/179 168/279/180 169/282/181
f 212/318/182 202/311/183 195/310/184 209/319/184
f 170/261/185 290/268/186 289/267/187 171/266/188
f 189/313/153 201/312/189 200/320/190 188/321/154
f 179/314/191 199/317/192 211/322/193 205/323/191
f 204/324/194 211/325/193 199/326/192 178/327/195
f 169/294/168 184/293/168 182/328/196 167/329/196
f 198/330/197 197/316/198 172/315/176 173/331/175
f 178/265/146 168/279/147 166/280/199 165/276/199
f 171/266/188 169/332/181 168/260/180 170/261/185
f 185/260/160 184/332/162 186/266/149 187/261/148
f 183/280/200 185/279/144 194/265/143 181/264/200
f 176/333/201 193/334/201 190/335/178 175/336/178
f 204/337/202 203/338/202 207/339/202 208/340/202
f 194/259/143 187/261/71 287/268/71
f 174/256/42 172/269/42 179/257/42
f 196/258/71 195/257/71 191/256/71 192/277/71
f 4/8/14 91/13/40 100/12/39 114/10/12
f 14/341/109 12/342/203 216/343/204 217/344/109
f 28/345/205 26/346/206 223/347/207 224/348/208
f 12/342/203 10/349/209 215/350/210 216/343/204
f 26/346/206 24/351/211 222/352/212 223/347/207
f 10/349/209 8/353/213 213/354/214 215/350/210
f 24/351/211 22/355/215 221/356/216 222/352/212
f 6/357/217 36/358/218 228/359/219 214/360/220
f 8/353/213 6/357/217 214/360/220 213/354/214
f 22/355/215 20/361/221 220/362/222 221/356/216
f 36/358/218 34/363/223 227/364/224 228/359/219
f 20/361/221 18/365/225 219/366/226 220/362/222
f 34/363/223 32/367/227 226/368/228 227/364/224
f 18/365/225 16/369/229 218/370/230 219/366/226
f 32/367/227 30/371/110 225/372/110 226/368/228
f 16/369/229 14/373/109 217/374/109 218/370/230
f 30/375/110 28/345/205 224/348/208 225/376/110
f 252/377/231 249/378/232 235/379/233
f 237/380/234 235/381/233 240/382/235
f 243/383/236 235/384/233 246/385/237
f 246/385/237 235/386/233 249/378/232
f 229/387/238 252/377/231 235/379/233
f 240/382/235 235/381/233 243/383/236
f 236/388/239 217/389/240 216/390/241 234/391/242
f 245/392/243 247/393/244 224/394/245 223/395/246
f 241/396/247 242/397/248 221/398/249 220/399/250
f 231/400/251 214/401/252 228/402/253 253/403/254
f 244/404/255 245/392/243 223/395/246 222/405/256
f 251/406/257 227/407/258 226/408/259 250/409/260
f 253/403/254 228/402/253 227/407/258 251/406/257
f 247/393/244 248/410/261 225/411/262 224/394/245
f 238/412/263 239/413/264 219/414/265 218/415/266
f 237/380/234 240/382/235 239/413/264
f 234/391/242 216/390/241 215/416/267 232/417/268
f 250/409/260 226/408/259 225/411/262 248/410/261
f 230/418/269 213/419/270 214/401/252 231/400/251
f 232/417/268 229/387/238 233/420/271
f 240/382/235 243/383/236 242/397/248
f 233/420/271 237/380/234 236/388/239
f 243/383/236 246/385/237 245/392/243
f 251/406/257 249/378/232 252/377/231
f 242/397/248 244/404/255 222/405/256 221/398/249
f 236/388/239 238/412/263 218/415/266 217/389/240
f 239/413/264 241/396/247 220/399/250 219/414/265
f 232/417/268 215/416/267 213/419/270 230/418/269
f 233/420/271 229/387/238 235/421/233
f 233/420/271 235/422/233 237/380/234
f 246/385/237 249/378/232 248/410/261
f 248/410/261 249/378/232 250/409/260
f 248/410/261 247/393/244 246/385/237
f 231/400/251 252/377/231 229/387/238
f 231/400/251 229/387/238 230/418/269
f 232/417/268 233/420/271 234/391/242
f 229/387/238 232/417/268 230/418/269
f 251/406/257 252/377/231 253/403/254
f 245/392/243 246/385/237 247/393/244
f 233/420/271 236/388/239 234/391/242
f 236/388/239 237/380/234 238/412/263
f 239/413/264 240/382/235 241/396/247
f 252/377/231 231/400/251 253/403/254
f 242/397/248 241/396/247 240/382/235
f 249/378/232 251/406/257 250/409/260
f 239/413/264 238/412/263 237/380/234
f 245/392/243 244/404/255 243/383/236
f 242/397/248 243/383/236 244/404/255
f 151/197/272 254/211/132 255/224/134 145/216/272
f 147/223/273 139/201/273 259/200/130 256/222/129
f 145/226/125 255/212/125 256/215/125 148/227/125
f 152/423/42 258/208/42 254/211/42 151/197/42
f 152/424/274 137/425/274 257/205/123 258/204/123
f 140/197/71 259/200/71 257/203/71 137/426/71
f 263/427/67 262/428/108 261/429/108 260/430/67
f 268/431/113 267/432/113 271/433/113 283/434/113
f 270/435/71 275/436/71 274/437/71 266/438/71 269/439/71
f 269/440/113 268/431/113 283/434/113 270/441/113
f 266/442/120 274/443/120 272/444/120 265/431/120
f 271/445/275 282/446/276 283/447/277
f 264/448/42 273/437/42 276/436/42 271/435/42 267/449/42
f 270/435/278 284/450/278 280/451/278 275/436/278
f 284/450/42 286/452/42 279/453/42 280/451/42
f 284/454/279 270/455/280 283/447/277
f 277/456/109 278/457/281 273/458/281 272/459/109
f 279/460/282 277/456/109 272/459/109 274/461/282
f 280/454/282 279/460/282 274/461/282 275/455/282
f 278/457/281 281/446/281 276/445/281 273/458/281
f 285/452/71 282/450/71 281/451/71 278/453/71
f 282/450/283 271/435/283 276/436/283 281/451/283
f 285/462/113 278/463/113 277/444/113
f 265/431/120 272/444/120 273/464/120 264/465/120
f 285/457/109 286/460/109 284/454/279 283/447/277 282/446/276
f 279/466/113 286/467/113 277/444/113
f 286/467/113 285/462/113 277/444/113
f 290/468/186 197/469/198 198/470/197 289/471/187
f 287/472/151 288/473/150 200/474/190 201/475/189
f 171/476/167 289/477/164 288/478/166 186/479/167
f 290/268/42 170/261/42 178/259/146
f 194/327/284 202/326/183 212/325/182 208/324/285
f 197/469/42 290/468/42 178/327/146 199/326/42
f 202/480/71 194/481/143 287/472/71 201/475/71
