# Blender 5.0.1
# www.blender.org
mtllib flashlight_mp_1.mtl
o flashlight_mp_1
v 0.093602 0.004285 0.019500
v 0.092358 0.018506 0.033775
v 0.090658 0.037932 0.039000
v 0.088958 0.057357 0.033775
v 0.087714 0.071578 0.019500
v 0.094057 -0.000920 0.000000
v 0.092358 0.018506 -0.033775
v 0.093602 0.004285 -0.019500
v 0.087259 0.076783 0.000000
v 0.090658 0.037932 -0.039000
v 0.087714 0.071578 -0.019500
v 0.088958 0.057357 -0.033775
v 0.066525 0.015478 0.011700
v 0.065778 0.024010 0.020265
v 0.064759 0.035666 0.023400
v 0.063739 0.047321 0.020265
v 0.062992 0.055854 0.011700
v 0.066798 0.012355 0.000000
v 0.065778 0.024010 -0.020265
v 0.066525 0.015478 -0.011700
v 0.062719 0.058977 0.000000
v 0.064759 0.035666 -0.023400
v 0.062992 0.055854 -0.011700
v 0.063739 0.047321 -0.020265
v -0.101832 0.000748 0.011700
v -0.102579 0.009281 0.020265
v -0.103598 0.020936 0.023400
v -0.104618 0.032592 0.020265
v -0.105364 0.041124 0.011700
v -0.101559 -0.002375 0.000000
v -0.102579 0.009281 -0.020265
v -0.101832 0.000748 -0.011700
v -0.105638 0.044247 0.000000
v -0.103598 0.020936 -0.023400
v -0.105364 0.041124 -0.011700
v -0.104618 0.032592 -0.020265
v -0.110890 0.029694 -0.016212
v -0.111487 0.036520 -0.009360
v -0.110074 0.020370 -0.018720
v -0.111705 0.039019 0.000000
v -0.108661 0.004219 -0.009360
v -0.109258 0.011045 -0.016212
v -0.108442 0.001721 0.000000
v -0.111487 0.036520 0.009360
v -0.110890 0.029694 0.016212
v -0.110074 0.020370 0.018720
v -0.109258 0.011045 0.016212
v -0.108661 0.004219 0.009360
v 0.118259 0.020772 0.033775
v 0.116559 0.040198 0.039000
v 0.113160 0.079049 0.000000
v 0.113615 0.073844 -0.019500
v 0.119503 0.006551 -0.019500
v 0.119958 0.001346 0.000000
v 0.116559 0.040198 -0.039000
v 0.118259 0.020772 -0.033775
v 0.114859 0.059623 -0.033775
v 0.119503 0.006551 0.019500
v 0.113615 0.073844 0.019500
v 0.114859 0.059623 0.033775
v 0.117965 0.024124 0.027947
v 0.113746 0.072346 0.000000
v 0.116559 0.040198 -0.032271
v 0.117965 0.024124 -0.027947
v 0.115153 0.056272 -0.027947
v 0.118995 0.012357 0.016135
v 0.114123 0.068039 0.016135
v 0.119372 0.008050 0.000000
v 0.116559 0.040198 0.032271
v 0.115153 0.056272 0.027947
v 0.118995 0.012357 -0.016135
v 0.114123 0.068039 -0.016135
v 0.113969 0.039971 -0.032271
v 0.115375 0.023897 -0.027947
v 0.112563 0.056045 -0.027947
v 0.116405 0.012130 0.016135
v 0.115375 0.023897 0.027947
v 0.111533 0.067812 0.016135
v 0.111156 0.072119 0.000000
v 0.120698 0.040560 0.012768
v 0.121662 0.029545 0.006384
v 0.117854 0.040311 0.023439
v 0.118875 0.028636 0.020298
v 0.113969 0.039971 0.032271
v 0.119735 0.051575 -0.006384
v 0.119735 0.051575 0.006384
v 0.116085 0.060532 -0.011719
v 0.115811 0.063660 0.000000
v 0.111533 0.067812 -0.016135
v 0.121662 0.029545 -0.006384
v 0.119623 0.020090 -0.011719
v 0.119897 0.016961 0.000000
v 0.116405 0.012130 -0.016135
v 0.116782 0.007823 0.000000
v 0.120698 0.040560 -0.012768
v 0.117854 0.040311 -0.023439
v 0.118875 0.028636 -0.020298
v 0.116833 0.051986 -0.020298
v 0.121739 0.040651 0.000000
v 0.119623 0.020090 0.011719
v 0.116085 0.060532 0.011719
v 0.116833 0.051986 0.020298
v 0.112563 0.056045 0.027947
v 0.093719 0.002867 0.000000
v 0.087995 0.068297 0.017599
v 0.090652 0.037931 -0.035198
v 0.089118 0.055463 -0.030482
v 0.093308 0.007565 0.017599
v 0.092185 0.020399 0.030482
v 0.087584 0.072995 0.000000
v 0.087995 0.068297 -0.017599
v 0.092185 0.020399 -0.030482
v 0.090652 0.037931 0.035198
v 0.093308 0.007565 -0.017599
v 0.089118 0.055463 0.030482
v 0.054643 0.055123 0.011700
v 0.054370 0.058246 0.000000
v 0.054643 0.055123 -0.011700
v 0.023076 0.052361 0.011700
v 0.022803 0.055484 0.000000
v 0.023076 0.052361 -0.011700
v 0.022736 0.056246 -0.011700
v 0.022736 0.056246 0.011700
v 0.053644 0.066534 0.000000
v 0.053918 0.063411 0.011700
v 0.053918 0.063411 -0.011700
v 0.022351 0.060650 -0.011700
v 0.022351 0.060650 0.011700
v 0.051054 0.066308 0.000000
v 0.051269 0.063855 0.009189
v 0.051269 0.063855 -0.009189
v 0.024882 0.061547 -0.009189
v 0.024882 0.061547 0.009189
v 0.025267 0.057143 0.009189
v 0.022463 0.059370 0.000000
v 0.025267 0.057143 -0.009189
v 0.051440 0.061905 0.000000
v 0.051654 0.059452 0.009189
v 0.051654 0.059452 -0.009189
v 0.041079 0.060998 0.000000
v 0.041235 0.059216 0.006677
v 0.041235 0.059216 -0.006677
v 0.027186 0.057987 -0.006677
v 0.027186 0.057987 0.006677
v 0.025135 0.059603 0.000000
v 0.024846 0.062900 0.000000
v 0.040807 0.064106 0.000000
v 0.026914 0.061095 0.006677
v 0.026914 0.061095 -0.006677
v 0.040963 0.062324 0.006677
v 0.040963 0.062324 -0.006677
v -0.110074 0.020370 0.000000
vn 0.0872 -0.9962 -0.0000
vn 0.0755 -0.8627 -0.5000
vn 0.0436 -0.4981 -0.8660
vn -0.0000 -0.0000 -1.0000
vn -0.0872 0.9962 -0.0000
vn -0.0755 0.8627 -0.5000
vn -0.0436 0.4981 -0.8660
vn 0.0755 -0.8627 0.5000
vn 0.0436 -0.4981 0.8660
vn -0.0000 -0.0000 1.0000
vn -0.0755 0.8627 0.5000
vn -0.0436 0.4981 0.8660
vn -0.3324 -0.9431 -0.0000
vn -0.3430 -0.8216 0.4553
vn -0.3721 -0.4896 0.7886
vn -0.4805 0.7496 0.4553
vn -0.4911 0.8711 -0.0000
vn -0.4805 0.7496 -0.4553
vn -0.4117 -0.0360 -0.9106
vn -0.3721 -0.4896 -0.7886
vn -0.4117 -0.0360 0.9106
vn -0.3430 -0.8216 -0.4553
vn -0.4514 0.4175 -0.7886
vn -0.4514 0.4175 0.7886
vn -0.5113 -0.8594 -0.0000
vn -0.5208 -0.7511 0.4058
vn -0.8171 -0.5165 0.2559
vn -0.8112 -0.5848 -0.0000
vn -0.5208 -0.7511 -0.4058
vn -0.8171 -0.5165 -0.2559
vn -0.6174 0.3533 -0.7028
vn -0.5821 -0.0509 -0.8115
vn -0.8558 -0.0749 -0.5119
vn -0.8781 0.1801 -0.4433
vn -0.5467 -0.4552 0.7028
vn -0.8335 -0.3298 0.4433
vn -0.6174 0.3533 0.7028
vn -0.6433 0.6492 0.4058
vn -0.8944 0.3667 0.2559
vn -0.8781 0.1801 0.4433
vn -0.5467 -0.4552 -0.7028
vn -0.8335 -0.3298 -0.4433
vn -0.6528 0.7575 -0.0000
vn -0.9004 0.4351 -0.0000
vn -0.5821 -0.0509 0.8115
vn -0.8558 -0.0749 0.5119
vn -0.9962 -0.0872 -0.0000
vn -0.6433 0.6492 -0.4058
vn -0.8944 0.3667 -0.2559
vn 0.9962 0.0872 -0.0000
vn 0.9521 -0.0867 0.2933
vn 0.9356 0.0819 0.3435
vn 0.9113 0.0797 0.4039
vn 0.9289 -0.1215 0.3498
vn 0.9938 -0.0673 0.0887
vn 0.9804 0.0858 0.1774
vn 0.9938 -0.0673 -0.0887
vn 0.9078 0.4194 -0.0000
vn 0.9096 0.3782 -0.1718
vn 0.8808 0.4282 -0.2020
vn 0.8761 0.4821 -0.0000
vn 0.9669 -0.2553 -0.0000
vn 0.9615 -0.2145 -0.1718
vn 0.9465 -0.3227 -0.0000
vn 0.9418 -0.2688 -0.2020
vn 0.9670 0.2388 0.0887
vn 0.9226 0.2507 0.2933
vn 0.9670 0.2388 -0.0887
vn 0.9804 0.0858 -0.1774
vn 0.9226 0.2507 -0.2933
vn 0.9356 0.0819 -0.3435
vn 0.9521 -0.0867 -0.2933
vn 0.9289 -0.1215 -0.3498
vn 0.9113 0.0797 -0.4039
vn 0.8937 0.2809 -0.3498
vn 0.9615 -0.2145 0.1718
vn 0.9418 -0.2688 0.2020
vn 0.9096 0.3782 0.1718
vn 0.8808 0.4282 0.2020
vn 0.8937 0.2809 0.3498
vn -0.9963 -0.0863 0.0015
vn -0.9963 -0.0857 0.0008
vn -0.9963 -0.0857 -0.0008
vn -0.9963 -0.0863 -0.0015
vn -0.9962 -0.0872 0.0017
vn -0.9961 -0.0886 -0.0008
vn -0.9960 -0.0888 -0.0000
vn -0.9962 -0.0872 -0.0017
vn -0.9961 -0.0880 -0.0015
vn -0.9961 -0.0880 0.0015
vn -0.9963 -0.0855 -0.0000
vn -0.9961 -0.0886 0.0008
vn -0.0842 0.9623 0.2588
vn -0.6921 -0.0606 0.7193
vn -0.0842 0.9623 -0.2588
vn -0.0842 0.9622 0.2588
vn -0.0842 0.9622 -0.2588
vn -0.6921 -0.0606 -0.7193
vn -0.0809 0.9967 -0.0000
vn -0.0779 0.9595 0.2707
vn -0.0779 0.9595 -0.2707
vn -0.9581 -0.0838 -0.2741
vn -0.9581 -0.0838 0.2741
vt 0.991985 0.203132
vt 0.991985 0.296868
vt 0.955594 0.296868
vt 0.955594 0.203132
vt 0.919203 0.296868
vt 0.919203 0.203132
vt 0.882812 0.296868
vt 0.882812 0.203132
vt 0.773640 0.296868
vt 0.773640 0.203132
vt 0.810031 0.203132
vt 0.810031 0.296868
vt 0.846422 0.203132
vt 0.846422 0.296868
vt 0.773640 0.296868
vt 0.773640 0.203132
vt 0.846422 0.296868
vt 0.882812 0.296868
vt 0.991985 0.203132
vt 0.991985 0.296868
vt 0.955594 0.296868
vt 0.955594 0.203132
vt 0.919203 0.203132
vt 0.456024 0.201129
vt 0.434582 0.254316
vt 0.478291 0.307929
vt 0.492085 0.274078
vt 0.420222 0.319215
vt 0.469454 0.347862
vt 0.432412 0.525679
vt 0.452993 0.580209
vt 0.490202 0.509604
vt 0.476956 0.474888
vt 0.490202 0.509603
vt 0.414934 0.389404
vt 0.420222 0.319215
vt 0.466201 0.391043
vt 0.414934 0.389404
vt 0.466201 0.391043
vt 0.434582 0.254316
vt 0.478291 0.307929
vt 0.419097 0.459894
vt 0.468762 0.434411
vt 0.492085 0.274078
vt 0.419097 0.459894
vt 0.559383 0.630131
vt 0.580334 0.605136
vt 0.584295 0.633947
vt 0.569931 0.651253
vt 0.547256 0.672507
vt 0.561679 0.680450
vt 0.581462 0.788698
vt 0.559479 0.765100
vt 0.570389 0.743254
vt 0.585203 0.759388
vt 0.604823 0.604020
vt 0.601067 0.633212
vt 0.638965 0.670751
vt 0.638965 0.719740
vt 0.624551 0.711891
vt 0.624382 0.678331
vt 0.547177 0.721685
vt 0.561817 0.714138
vt 0.626953 0.762197
vt 0.616360 0.741160
vt 0.626684 0.627575
vt 0.615811 0.649358
vt 0.593146 0.696207
vt 0.606044 0.787424
vt 0.602038 0.758583
vt 0.549692 0.357124
vt 0.549692 0.417348
vt 0.537975 0.423627
vt 0.537975 0.350845
vt 0.589687 0.499614
vt 0.615765 0.469503
vt 0.624342 0.486657
vt 0.592827 0.523048
vt 0.620937 0.274857
vt 0.590826 0.274857
vt 0.587686 0.251424
vt 0.624077 0.251424
vt 0.630821 0.357124
vt 0.615765 0.304969
vt 0.624342 0.287814
vt 0.642538 0.350845
vt 0.589687 0.274857
vt 0.592827 0.251424
vt 0.630821 0.417348
vt 0.642538 0.423627
vt 0.564748 0.304969
vt 0.556171 0.287814
vt 0.559576 0.499614
vt 0.556436 0.523048
vt 0.564748 0.469503
vt 0.590826 0.499614
vt 0.587686 0.523048
vt 0.556171 0.486657
vt 0.599624 0.456566
vt 0.599624 0.516789
vt 0.594937 0.516789
vt 0.594937 0.456566
vt 0.599624 0.938353
vt 0.599624 0.998576
vt 0.594937 0.998576
vt 0.594937 0.938353
vt 0.599624 0.817906
vt 0.599624 0.878130
vt 0.594937 0.878130
vt 0.594937 0.817906
vt 0.599624 0.275895
vt 0.599624 0.336119
vt 0.594937 0.336119
vt 0.594937 0.275895
vt 0.599624 0.396342
vt 0.594937 0.396342
vt 0.599624 0.577012
vt 0.594937 0.577012
vt 0.599624 0.637236
vt 0.599624 0.697459
vt 0.594937 0.697459
vt 0.594937 0.637236
vt 0.599624 0.757683
vt 0.594937 0.757683
vt 0.810937 0.461094
vt 0.800411 0.539940
vt 0.767346 0.539775
vt 0.782379 0.427886
vt 0.858122 0.466788
vt 0.879243 0.539623
vt 0.837135 0.539791
vt 0.900221 0.466622
vt 0.879399 0.697144
vt 0.918769 0.675950
vt 0.935187 0.733202
vt 0.879322 0.763153
vt 0.879088 0.382101
vt 0.918499 0.402987
vt 0.879164 0.316092
vt 0.935055 0.345892
vt 0.858266 0.612623
vt 0.811096 0.618691
vt 0.900365 0.612457
vt 0.921351 0.539455
vt 0.947549 0.618151
vt 0.958076 0.539305
vt 0.947391 0.460554
vt 0.976029 0.427612
vt 0.991140 0.539470
vt 0.976108 0.651359
vt 0.839717 0.403296
vt 0.823300 0.346044
vt 0.839987 0.676258
vt 0.823432 0.733354
vt 0.782458 0.651633
vt 0.556447 0.461575
vt 0.570104 0.529037
vt 0.573171 0.525413
vt 0.559912 0.459797
vt 0.570104 0.529036
vt 0.556447 0.461575
vt 0.559912 0.459797
vt 0.573171 0.525413
vt 0.552179 0.389295
vt 0.555755 0.389410
vt 0.572329 0.250772
vt 0.595319 0.194354
vt 0.596728 0.201518
vt 0.575336 0.254590
vt 0.555755 0.389410
vt 0.557601 0.317326
vt 0.561035 0.319324
vt 0.561035 0.319324
vt 0.592181 0.586896
vt 0.593703 0.579826
vt 0.592181 0.586896
vt 0.572329 0.250772
vt 0.575336 0.254590
vt 0.595319 0.194354
vt 0.992188 0.796875
vt 0.992190 0.843750
vt 0.679688 0.843750
vt 0.679688 0.796875
vt 0.992188 0.843750
vt 0.992188 0.984375
vt 0.679688 0.984375
vt 0.679688 0.937500
vt 0.992190 0.937500
vt 0.992188 0.937500
vt 0.992188 0.890625
vt 0.679688 0.890625
vt 0.992190 0.890625
vt 0.329956 0.302781
vt 0.308026 0.291029
vt 0.308026 0.305649
vt 0.329956 0.317401
vt 0.300259 0.305649
vt 0.300259 0.322218
vt 0.359653 0.322218
vt 0.359653 0.291029
vt 0.300259 0.291029
vt 0.351886 0.291029
vt 0.351886 0.305649
vt 0.351886 0.322218
vt 0.329956 0.333971
vt 0.300259 0.268640
vt 0.305133 0.278055
vt 0.300259 0.312500
vt 0.305133 0.308172
vt 0.305133 0.324741
vt 0.354779 0.308172
vt 0.354779 0.324741
vt 0.305133 0.346945
vt 0.300259 0.356360
vt 0.354779 0.312500
vt 0.354779 0.278055
vt 0.359653 0.268640
vt 0.359653 0.312500
vt 0.354779 0.346945
vt 0.359653 0.356360
vt 0.312733 0.308172
vt 0.312733 0.324741
vt 0.347179 0.308172
vt 0.347179 0.324741
vt 0.308026 0.322218
vt 0.579956 0.309650
vt 0.592471 0.302943
vt 0.592471 0.314639
vt 0.579956 0.321346
vt 0.568523 0.302943
vt 0.594956 0.302943
vt 0.594956 0.314639
vt 0.568523 0.314639
vt 0.594956 0.312500
vt 0.564956 0.312500
vt 0.568523 0.287469
vt 0.594956 0.287469
vt 0.568523 0.337531
vt 0.594956 0.337531
vt 0.579956 0.309650
vt 0.579956 0.322057
vt 0.567441 0.302943
vt 0.567441 0.314639
s 1
usemtl flashlight_1
f 54/1/1 6/2/1 8/3/2 53/4/2
f 53/4/2 8/3/2 7/5/3 56/6/3
f 56/6/3 7/5/3 10/7/4 55/8/4
f 9/9/5 51/10/5 52/11/6 11/12/6
f 11/12/6 52/11/6 57/13/7 12/14/7
f 12/14/7 57/13/7 55/8/4 10/7/4
f 6/15/1 54/16/1 58/11/8 1/12/8
f 1/12/8 58/11/8 49/13/9 2/17/9
f 2/17/9 49/13/9 50/8/10 3/18/10
f 51/19/5 9/20/5 5/21/11 59/22/11
f 59/22/11 5/21/11 4/5/12 60/23/12
f 60/23/12 4/5/12 3/18/10 50/8/10
f 104/24/13 108/25/14 13/26/14 18/27/13
f 108/25/14 109/28/15 14/29/15 13/26/14
f 105/30/16 110/31/17 21/32/17 17/33/16
f 110/31/17 111/30/18 23/33/18 21/34/17
f 106/35/19 112/36/20 19/29/20 22/37/19
f 109/28/15 113/38/21 15/39/21 14/29/15
f 112/36/20 114/40/22 20/41/22 19/29/20
f 107/42/23 106/35/19 22/37/19 24/43/23
f 114/40/22 104/24/13 18/44/13 20/41/22
f 113/38/21 115/45/24 16/43/24 15/39/21
f 111/30/18 107/42/23 24/43/23 23/33/18
f 30/46/25 25/47/26 48/48/27 43/49/28
f 32/50/29 30/46/25 43/49/28 41/51/30
f 36/52/31 34/53/32 39/54/33 37/55/34
f 25/47/26 26/56/35 47/57/36 48/48/27
f 28/58/37 29/59/38 44/60/39 45/61/40
f 34/53/32 31/62/41 42/63/42 39/54/33
f 29/59/38 33/64/43 40/65/44 44/60/39
f 26/56/35 27/66/45 46/67/46 47/57/36
f 44/60/39 152/68/47 45/61/40
f 35/69/48 36/52/31 37/55/34 38/70/49
f 31/62/41 32/50/29 41/51/30 42/63/42
f 33/64/43 35/69/48 38/70/49 40/65/44
f 27/66/45 28/58/37 45/61/40 46/67/46
f 61/71/50 69/72/50 50/73/50 49/74/50
f 62/75/50 72/76/50 52/77/50 51/78/50
f 71/79/50 68/80/50 54/81/50 53/82/50
f 63/83/50 64/84/50 56/85/50 55/86/50
f 64/84/50 71/87/50 53/88/50 56/85/50
f 72/76/50 65/89/50 57/90/50 52/77/50
f 65/89/50 63/83/50 55/86/50 57/90/50
f 68/80/50 66/91/50 58/92/50 54/81/50
f 66/91/50 61/71/50 49/74/50 58/92/50
f 67/93/50 62/75/50 51/78/50 59/94/50
f 70/95/50 67/96/50 59/97/50 60/98/50
f 69/72/50 70/95/50 60/98/50 50/73/50
f 63/99/10 65/100/9 75/101/9 73/102/10
f 66/103/6 68/104/5 94/105/5 76/106/6
f 69/107/4 61/108/7 77/109/7 84/110/4
f 68/111/5 71/112/11 93/113/11 94/114/5
f 64/115/12 63/99/10 73/102/10 74/116/12
f 65/100/9 72/117/8 89/118/8 75/101/9
f 62/119/1 67/120/2 78/121/2 79/122/1
f 71/112/11 64/115/12 74/116/12 93/113/11
f 61/108/7 66/103/6 76/106/6 77/109/7
f 67/120/2 70/123/3 103/124/3 78/121/2
f 70/123/3 69/107/4 84/110/4 103/124/3
f 72/117/8 62/119/1 79/122/1 89/118/8
f 83/125/51 82/126/52 84/127/53 77/128/54
f 81/129/55 99/130/50 80/131/56
f 99/130/50 81/129/55 90/132/57
f 88/133/58 87/134/59 89/135/60 79/136/61
f 92/137/62 90/132/57 81/129/55
f 90/132/57 92/137/62 91/138/63
f 91/138/63 92/137/62 94/139/64 93/140/65
f 80/131/56 86/141/66 102/142/67
f 85/143/68 95/144/69 98/145/70
f 96/146/71 97/147/72 74/148/73 73/149/74
f 97/147/72 91/138/63 93/140/65 74/148/73
f 99/130/50 90/132/57 95/144/69
f 87/134/59 98/145/70 75/150/75 89/135/60
f 80/131/56 99/130/50 86/141/66
f 98/145/70 96/146/71 73/149/74 75/150/75
f 90/132/57 97/147/72 95/144/69
f 92/137/62 100/151/76 76/152/77 94/139/64
f 86/141/66 85/143/68 88/133/58
f 100/151/76 83/125/51 77/128/54 76/152/77
f 101/153/78 88/133/58 79/136/61 78/154/79
f 99/130/50 95/144/69 85/143/68
f 86/141/66 99/130/50 85/143/68
f 102/142/67 101/153/78 78/154/79 103/155/80
f 82/126/52 102/142/67 103/155/80 84/127/53
f 81/129/55 80/131/56 83/125/51
f 98/145/70 95/144/69 96/146/71
f 83/125/51 100/151/76 81/129/55
f 102/142/67 86/141/66 101/153/78
f 88/133/58 85/143/68 87/134/59
f 97/147/72 96/146/71 95/144/69
f 98/145/70 87/134/59 85/143/68
f 92/137/62 81/129/55 100/151/76
f 88/133/58 101/153/78 86/141/66
f 102/142/67 82/126/52 80/131/56
f 83/125/51 80/131/56 82/126/52
f 97/147/72 90/132/57 91/138/63
f 4/156/81 5/157/82 105/158/82 115/159/81
f 11/160/83 12/161/84 107/162/84 111/163/83
f 3/164/85 4/156/81 115/159/81 113/165/85
f 8/166/86 6/167/87 104/168/87 114/169/86
f 12/161/84 10/164/88 106/170/88 107/162/84
f 7/171/89 8/166/86 114/169/86 112/172/89
f 2/171/90 3/164/85 113/165/85 109/173/90
f 10/164/88 7/171/89 112/172/89 106/170/88
f 9/174/91 11/160/83 111/163/83 110/175/91
f 5/157/82 9/176/91 110/175/91 105/158/82
f 1/177/92 2/171/90 109/173/90 108/178/92
f 6/179/87 1/177/92 108/178/92 104/168/87
f 115/45/24 105/30/16 17/33/16 16/43/24
f 16/180/12 17/181/11 29/182/11 28/183/12
f 18/180/1 13/184/8 25/182/8 30/183/1
f 24/185/7 36/186/7 35/187/6 23/188/6
f 20/189/2 18/185/1 30/186/1 32/187/2
f 15/189/10 16/185/12 28/186/12 27/187/10
f 22/184/4 19/190/3 31/191/3 34/182/4
f 24/180/7 22/184/4 34/182/4 36/183/7
f 33/191/5 29/182/11 17/181/11 21/192/5
f 19/190/3 20/189/2 32/187/2 31/191/3
f 35/187/6 33/191/5 21/192/5 23/188/6
f 13/184/8 14/190/9 26/191/9 25/182/8
f 14/190/9 15/189/10 27/187/10 26/191/9
f 120/193/47 119/194/47 123/195/47 135/196/47
f 122/197/4 127/198/4 126/199/4 118/200/4 121/201/4
f 121/202/47 120/193/47 135/196/47 122/203/47
f 118/202/50 126/204/50 124/205/50 117/193/50
f 123/206/93 134/207/93 135/208/5
f 116/200/10 125/199/10 128/198/10 123/197/10 119/201/10
f 122/197/94 136/209/94 132/210/94 127/198/94
f 136/209/10 139/211/10 131/212/10 132/210/10
f 136/213/95 122/214/95 135/208/5
f 129/215/5 130/216/96 125/217/96 124/218/5
f 131/219/97 129/215/5 124/218/5 126/220/97
f 132/213/95 131/219/95 126/220/95 127/214/95
f 130/216/93 133/207/93 128/206/93 125/217/93
f 138/211/4 134/209/4 133/210/4 130/212/4
f 134/209/98 123/197/98 128/198/98 133/210/98
f 137/196/47 138/221/47 130/222/47 129/205/47
f 139/223/47 137/196/47 129/205/47 131/224/47
f 117/193/50 124/205/50 125/225/50 116/194/50
f 134/207/93 138/216/93 137/215/5 135/208/5
f 135/208/5 137/215/5 139/219/95 136/213/95
f 140/226/50 142/227/50 151/228/50 147/229/50
f 144/230/10 141/231/10 150/232/10 148/233/10
f 147/234/99 146/235/99 148/236/100 150/237/100
f 149/238/101 146/235/99 147/234/99 151/239/101
f 143/227/102 145/240/47 146/241/47 149/228/102
f 142/231/4 143/230/4 149/233/4 151/232/4
f 141/242/50 140/226/50 147/229/50 150/243/50
f 145/240/47 144/242/103 148/243/103 146/241/47
f 152/68/47 38/70/49 37/55/34
f 47/57/36 46/67/46 152/68/47
f 152/68/47 39/54/33 42/63/42
f 40/65/44 152/68/47 44/60/39
f 152/68/47 46/67/46 45/61/40
f 37/55/34 39/54/33 152/68/47
f 152/68/47 40/65/44 38/70/49
f 152/68/47 43/49/28 48/48/27
f 48/48/27 47/57/36 152/68/47
f 42/63/42 41/51/30 152/68/47
f 41/51/30 43/49/28 152/68/47
