# Blender 5.0.1
# www.blender.org
mtllib glass_bottle_1.mtl
o glass_bottle_1
v 0.000000 0.015507 -0.047402
v 0.000000 0.178200 -0.051840
v 0.033519 0.015507 -0.033519
v 0.036656 0.178200 -0.036656
v 0.047402 0.015507 0.000000
v 0.051840 0.178200 0.000000
v 0.033519 0.015507 0.033519
v 0.036656 0.178200 0.036656
v 0.000000 0.015507 0.047402
v 0.000000 0.178200 0.051840
v -0.033519 0.015507 0.033519
v -0.036656 0.178200 0.036656
v -0.047402 0.015507 0.000000
v -0.051840 0.178200 0.000000
v -0.033519 0.015507 -0.033519
v -0.036656 0.178200 -0.036656
v 0.000000 0.005137 -0.020159
v 0.014255 0.005137 -0.014255
v 0.020159 0.005137 0.000000
v 0.014255 0.005137 0.014255
v 0.000000 0.005137 0.020159
v -0.014255 0.005137 0.014255
v -0.020159 0.005137 0.000000
v -0.014255 0.005137 -0.014255
v 0.000000 0.340200 -0.020736
v 0.014663 0.340200 -0.014663
v 0.020736 0.340200 0.000000
v 0.014663 0.340200 0.014663
v 0.000000 0.340200 0.020736
v -0.014663 0.340200 0.014663
v -0.020736 0.340200 0.000000
v -0.014663 0.340200 -0.014663
v 0.000000 0.000693 -0.038031
v 0.026892 0.000693 -0.026892
v 0.038031 0.000693 0.000000
v 0.026892 0.000693 0.026892
v 0.000000 0.000693 0.038031
v -0.026892 0.000693 0.026892
v -0.038031 0.000693 0.000000
v -0.026892 0.000693 -0.026892
v -0.045110 0.008100 0.000000
v -0.031897 0.008100 0.031897
v 0.000000 0.008100 0.045110
v 0.031897 0.008100 0.031897
v -0.031897 0.008100 -0.031897
v 0.045110 0.008100 0.000000
v 0.031897 0.008100 -0.031897
v 0.000000 0.008100 -0.045110
v -0.018965 0.291600 0.018965
v -0.026820 0.291600 0.000000
v 0.018965 0.291600 0.018965
v 0.000000 0.291600 0.026820
v 0.018965 0.291600 -0.018965
v 0.026820 0.291600 0.000000
v -0.018965 0.291600 -0.018965
v 0.000000 0.291600 -0.026820
v 0.000000 0.227986 -0.034334
v 0.000000 0.260998 -0.026489
v 0.000000 0.243874 -0.028038
v 0.024278 0.227986 -0.024278
v 0.018730 0.260998 -0.018730
v 0.019826 0.243874 -0.019826
v 0.034334 0.227986 0.000000
v 0.026489 0.260998 0.000000
v 0.028038 0.243874 0.000000
v 0.024278 0.227986 0.024278
v 0.018730 0.260998 0.018730
v 0.019826 0.243874 0.019826
v 0.000000 0.227986 0.034334
v 0.000000 0.260998 0.026489
v 0.000000 0.243874 0.028038
v -0.024278 0.227986 0.024278
v -0.018730 0.260998 0.018730
v -0.019826 0.243874 0.019826
v -0.034334 0.227986 0.000000
v -0.026489 0.260998 0.000000
v -0.028038 0.243874 0.000000
v -0.024278 0.227986 -0.024278
v -0.018730 0.260998 -0.018730
v -0.019826 0.243874 -0.019826
v 0.035460 0.040997 -0.035460
v 0.050148 0.040997 0.000000
v 0.035460 0.040997 0.035460
v 0.000000 0.040997 0.050148
v -0.035460 0.040997 0.035460
v -0.050148 0.040997 0.000000
v -0.035460 0.040997 -0.035460
v 0.000000 0.040997 -0.050148
v -0.016058 0.315900 0.016058
v 0.016058 0.315900 0.016058
v 0.016058 0.315900 -0.016058
v 0.000000 0.315900 -0.022710
v -0.022710 0.315900 0.000000
v 0.000000 0.315900 0.022710
v 0.022710 0.315900 0.000000
v -0.016058 0.315900 -0.016058
v 0.000000 0.276299 -0.027485
v 0.019435 0.276299 -0.019435
v 0.027485 0.276299 0.000000
v 0.019435 0.276299 0.019435
v 0.000000 0.276299 0.027485
v -0.019435 0.276299 0.019435
v -0.027485 0.276299 0.000000
v -0.019435 0.276299 -0.019435
v 0.036582 0.169625 -0.036582
v 0.051734 0.169625 0.000000
v 0.036582 0.169625 0.036582
v 0.000000 0.169625 0.051734
v -0.036582 0.169625 0.036582
v -0.051734 0.169625 0.000000
v -0.036582 0.169625 -0.036582
v 0.000000 0.169625 -0.051734
v 0.000000 0.340677 -0.022810
v 0.016129 0.340677 -0.016129
v 0.022810 0.340677 0.000000
v 0.016129 0.340677 0.016129
v 0.000000 0.340677 0.022810
v -0.016129 0.340677 0.016129
v -0.022810 0.340677 0.000000
v -0.016129 0.340677 -0.016129
v -0.000000 0.354468 -0.018842
v 0.013323 0.354468 -0.013323
v 0.018842 0.354468 0.000000
v 0.013323 0.354468 0.013323
v -0.000000 0.354468 0.018842
v -0.013323 0.354468 0.013323
v -0.018842 0.354468 0.000000
v -0.013323 0.354468 -0.013323
v -0.021772 0.351529 0.000000
v -0.015395 0.351529 -0.015395
v -0.000000 0.351529 0.021772
v -0.015395 0.351529 0.015395
v 0.021772 0.351529 0.000000
v 0.015395 0.351529 0.015395
v -0.000000 0.351529 -0.021772
v 0.015395 0.351529 -0.015395
v 0.032834 0.202500 -0.032834
v 0.000000 0.202500 0.046434
v -0.032834 0.202500 -0.032834
v 0.046434 0.202500 0.000000
v -0.032834 0.202500 0.032834
v 0.000000 0.202500 -0.046434
v 0.032834 0.202500 0.032834
v -0.046434 0.202500 0.000000
v 0.000000 0.354468 0.000000
v 0.000000 0.005137 0.000000
vn 0.7053 0.0723 0.7053
vn 0.9974 0.0723 -0.0000
vn 0.9455 0.3255 -0.0000
vn 0.6686 0.3255 0.6686
vn 0.9999 0.0128 -0.0000
vn 0.7070 0.0128 -0.7070
vn 0.7071 -0.0107 -0.7071
vn 0.9999 -0.0107 -0.0000
vn -0.9802 -0.1978 -0.0000
vn -0.8752 -0.4837 -0.0000
vn -0.6189 -0.4837 0.6189
vn -0.6931 -0.1978 0.6931
vn -0.1512 -0.9885 -0.0000
vn -0.1069 -0.9885 0.1069
vn -0.1706 -0.9704 0.1706
vn -0.2413 -0.9704 -0.0000
vn -0.0000 -0.1978 0.9802
vn -0.0000 -0.4837 0.8752
vn 0.6189 -0.4837 0.6189
vn 0.6931 -0.1978 0.6931
vn -0.6931 -0.1978 -0.6931
vn -0.6189 -0.4837 -0.6189
vn 0.9802 -0.1978 -0.0000
vn 0.8752 -0.4837 -0.0000
vn 0.6189 -0.4837 -0.6189
vn 0.6931 -0.1978 -0.6931
vn -0.0000 -0.1978 -0.9802
vn -0.0000 -0.4837 -0.8752
vn 0.5112 -0.6909 0.5112
vn 0.7229 -0.6909 -0.0000
vn -0.7070 0.0128 0.7070
vn -0.0000 0.0128 0.9999
vn -0.0000 -0.0107 0.9999
vn -0.7071 -0.0107 0.7071
vn 0.9942 -0.1071 -0.0000
vn 0.7030 -0.1071 0.7030
vn -0.0000 0.3255 0.9455
vn -0.0000 0.4264 0.9045
vn -0.6396 0.4264 0.6396
vn -0.6686 0.3255 0.6686
vn -0.0000 0.1038 0.9946
vn -0.7033 0.1038 0.7033
vn -0.9946 0.1038 -0.0000
vn -0.9999 -0.0107 -0.0000
vn 0.7071 -0.0107 0.7071
vn 0.7033 0.1038 0.7033
vn 0.6396 0.4264 0.6396
vn -0.0000 0.1253 0.9921
vn 0.7015 0.1253 0.7015
vn 0.7048 0.0810 0.7048
vn -0.0000 0.0810 0.9967
vn -0.7015 0.1253 -0.7015
vn -0.9921 0.1253 -0.0000
vn -0.9967 0.0810 -0.0000
vn -0.7048 0.0810 -0.7048
vn -0.7015 0.1253 0.7015
vn -0.7048 0.0810 0.7048
vn 0.9921 0.1253 -0.0000
vn 0.7015 0.1253 -0.7015
vn 0.7048 0.0810 -0.7048
vn 0.9967 0.0810 -0.0000
vn -0.6686 0.3255 -0.6686
vn -0.6396 0.4264 -0.6396
vn -0.0000 0.4264 -0.9045
vn -0.0000 0.3255 -0.9455
vn -0.0000 0.1253 -0.9921
vn -0.0000 0.0810 -0.9967
vn -0.0000 -0.9885 0.1512
vn -0.0000 -0.9704 0.2413
vn -0.1069 -0.9885 -0.1069
vn -0.1706 -0.9704 -0.1706
vn -0.0000 -0.9885 -0.1512
vn -0.0000 -0.9704 -0.2413
vn 0.1069 -0.9885 -0.1069
vn 0.1706 -0.9704 -0.1706
vn 0.1512 -0.9885 -0.0000
vn 0.2413 -0.9704 -0.0000
vn 0.1069 -0.9885 0.1069
vn 0.1706 -0.9704 0.1706
vn 0.7070 0.0128 0.7070
vn 0.9999 -0.0123 -0.0000
vn 0.7071 -0.0123 0.7071
vn 0.7071 -0.0123 -0.7071
vn -0.9999 0.0128 -0.0000
vn -0.7033 0.1038 -0.7033
vn -0.7071 -0.0107 -0.7071
vn 0.7030 -0.1071 -0.7030
vn -0.9045 0.4264 -0.0000
vn -0.9455 0.3255 -0.0000
vn 0.9045 0.4264 -0.0000
vn 0.6396 0.4264 -0.6396
vn 0.6686 0.3255 -0.6686
vn 0.7033 0.1038 -0.7033
vn 0.9946 0.1038 -0.0000
vn 0.5112 -0.6909 -0.5112
vn -0.0000 -0.6909 -0.7229
vn -0.7070 0.0128 -0.7070
vn -0.5112 -0.6909 -0.5112
vn -0.5112 -0.6909 0.5112
vn -0.0000 -0.6909 0.7229
vn -0.7229 -0.6909 -0.0000
vn 0.7053 0.0723 -0.7053
vn 0.9708 0.2399 -0.0000
vn 0.6865 0.2399 0.6865
vn -0.7053 0.0723 -0.7053
vn -0.0000 0.0723 -0.9974
vn -0.0000 -0.0123 -0.9999
vn -0.7071 -0.0123 -0.7071
vn -0.9974 0.0723 -0.0000
vn -0.9999 -0.0123 -0.0000
vn -0.0000 0.2399 -0.9708
vn 0.6865 0.2399 -0.6865
vn -0.0000 -1.0000 -0.0000
vn -0.7053 0.0723 0.7053
vn -0.7071 -0.0123 0.7071
vn -0.7030 -0.1071 -0.7030
vn -0.0000 -0.1071 -0.9942
vn -0.0000 0.0723 0.9974
vn -0.0000 -0.0123 0.9999
vn -0.9942 -0.1071 -0.0000
vn -0.7030 -0.1071 0.7030
vn -0.0000 -0.1071 0.9942
vn -0.0000 0.0128 -0.9999
vn -0.0000 -0.0107 -0.9999
vn -0.0000 0.2399 0.9708
vn -0.6865 0.2399 0.6865
vn -0.9708 0.2399 -0.0000
vn -0.6865 0.2399 -0.6865
vn -0.0000 0.1038 -0.9946
vn -0.9955 0.0952 -0.0000
vn -0.7039 0.0952 -0.7039
vn -0.5007 0.7061 -0.5007
vn -0.7082 0.7061 -0.0000
vn -0.0000 -0.9746 -0.2239
vn 0.1583 -0.9746 -0.1583
vn 0.2239 -0.9746 -0.0000
vn 0.1583 -0.9746 0.1583
vn -0.0000 -0.9746 0.2239
vn -0.1583 -0.9746 0.1584
vn -0.2239 -0.9746 -0.0000
vn -0.1584 -0.9746 -0.1583
vn -0.0000 0.0952 0.9955
vn -0.7039 0.0952 0.7039
vn 0.9955 0.0952 -0.0000
vn 0.7039 0.0952 0.7039
vn -0.0000 0.0952 -0.9955
vn 0.7039 0.0952 -0.7039
vn 0.7082 0.7061 -0.0000
vn 0.5007 0.7061 -0.5007
vn -0.0000 0.7061 0.7082
vn 0.5007 0.7061 0.5007
vn -0.0000 0.7061 -0.7082
vn -0.5007 0.7061 0.5007
vn -0.0000 1.0000 -0.0000
vt 0.023136 0.833984
vt 0.074177 0.833984
vt 0.074177 0.861328
vt 0.023136 0.861328
vt 0.074177 0.922332
vt 0.094594 0.922332
vt 0.094594 0.935450
vt 0.074177 0.935450
vt 0.224226 0.708574
vt 0.230935 0.708574
vt 0.244688 0.684552
vt 0.239945 0.681121
vt 0.300716 0.708574
vt 0.294032 0.720250
vt 0.306354 0.729165
vt 0.318143 0.708574
vt 0.277893 0.669749
vt 0.277893 0.674602
vt 0.311097 0.684552
vt 0.315841 0.681121
vt 0.239945 0.736028
vt 0.244688 0.732597
vt 0.331560 0.708574
vt 0.324851 0.708574
vt 0.311097 0.732597
vt 0.315841 0.736028
vt 0.277893 0.747400
vt 0.277893 0.742547
vt 0.306354 0.687984
vt 0.053761 0.922332
vt 0.053761 0.935450
vt 0.074177 0.687893
vt 0.023136 0.687893
vt 0.023136 0.667318
vt 0.074177 0.667318
vt 0.074177 0.890007
vt 0.023136 0.890007
vt 0.074177 0.948568
vt 0.053761 0.948568
vt 0.094594 0.948568
vt 0.125219 0.890007
vt 0.125219 0.861328
vt 0.074177 0.969401
vt 0.094594 0.969401
vt 0.094594 0.990234
vt 0.074177 0.990234
vt 0.053761 0.969401
vt 0.053761 0.990234
vt 0.277893 0.725086
vt 0.277893 0.737694
vt 0.294032 0.696899
vt 0.277893 0.692063
vt 0.277893 0.679455
vt 0.261754 0.696899
vt 0.249432 0.687984
vt 0.255069 0.708574
vt 0.237643 0.708574
vt 0.261754 0.720250
vt 0.249432 0.729165
vt 0.000000 0.817708
vt 0.055556 0.817708
vt 0.055556 0.692708
vt 0.000000 0.692708
vt 0.094594 0.922332
vt 0.166667 0.817708
vt 0.222222 0.817708
vt 0.222222 0.692708
vt 0.166667 0.692708
vt 0.125219 0.667318
vt 0.125219 0.687893
vt 0.125219 0.833984
vt 0.074177 0.906901
vt 0.023136 0.906901
vt 0.074177 0.825179
vt 0.023136 0.825179
vt 0.125219 0.825179
vt 0.125219 0.906901
vt 0.277893 0.708574
vt 0.125219 0.687893
vt 0.125219 0.825179
vt 0.094594 0.906901
vt 0.053761 0.906901
vt 0.111111 0.692708
vt 0.111111 0.817708
vt 0.074177 0.825179
vt 0.229167 0.911458
vt 0.229167 0.927083
vt 0.253672 0.927083
vt 0.253672 0.911458
vt 0.256807 0.978813
vt 0.248029 0.963677
vt 0.252063 0.963677
vt 0.259659 0.976776
vt 0.277986 0.985137
vt 0.299151 0.978875
vt 0.307918 0.963757
vt 0.299151 0.948639
vt 0.277986 0.942377
vt 0.256821 0.948639
vt 0.248054 0.963757
vt 0.256821 0.978875
vt 0.277778 0.911458
vt 0.277778 0.927083
vt 0.302400 0.927083
vt 0.302400 0.911458
vt 0.326389 0.927083
vt 0.326389 0.911458
vt 0.307964 0.963677
vt 0.299187 0.978813
vt 0.296335 0.976776
vt 0.303931 0.963677
vt 0.277997 0.942272
vt 0.299187 0.948541
vt 0.296335 0.950578
vt 0.277997 0.945153
vt 0.277997 0.985082
vt 0.277997 0.982202
vt 0.256807 0.948541
vt 0.259659 0.950578
vt 0.277997 0.963677
s 1
usemtl glass_bottles_1
f 8/1/1 6/2/2 140/3/3 143/4/4
f 64/5/5 61/6/6 98/7/7 99/8/8
f 13/9/9 41/10/10 42/11/11 11/12/12
f 19/13/13 18/14/14 34/15/15 35/16/16
f 9/17/17 43/18/18 44/19/19 7/20/20
f 15/21/21 45/22/22 41/10/10 13/9/9
f 5/23/23 46/24/24 47/25/25 3/26/26
f 11/12/12 42/11/11 43/18/18 9/17/17
f 1/27/27 48/28/28 45/22/22 15/21/21
f 3/26/26 47/25/25 48/28/28 1/27/27
f 7/20/20 44/19/19 46/24/24 5/23/23
f 46/24/24 44/19/19 36/29/29 35/16/30
f 73/30/31 70/5/32 101/8/33 102/31/34
f 82/32/35 83/33/36 7/34/20 5/35/23
f 138/3/37 69/36/38 72/37/39 141/4/40
f 101/8/33 52/38/41 49/39/42 102/31/34
f 102/31/34 49/39/42 50/38/43 103/8/44
f 101/8/33 100/7/45 51/40/46 52/38/41
f 66/41/47 69/36/38 138/3/37 143/42/4
f 94/43/48 90/44/49 28/45/50 29/46/51
f 96/44/52 93/43/53 31/46/54 32/45/55
f 89/47/56 94/43/48 29/46/51 30/48/57
f 95/43/58 91/44/59 26/45/60 27/46/61
f 90/47/49 95/43/58 27/46/61 28/48/50
f 139/4/62 78/37/63 57/36/64 142/3/65
f 91/44/59 92/43/66 25/46/67 26/45/60
f 18/14/14 17/49/68 33/50/69 34/15/15
f 20/51/70 19/13/13 35/16/16 36/29/71
f 21/52/72 20/51/70 36/29/71 37/53/73
f 22/54/74 21/52/72 37/53/73 38/55/75
f 23/56/76 22/54/74 38/55/75 39/57/77
f 24/58/78 23/56/76 39/57/77 40/59/79
f 92/43/66 96/47/52 32/48/55 25/46/67
f 67/30/80 64/5/5 99/8/8 100/31/45
f 106/60/81 107/61/82 83/62/82 82/63/81
f 67/64/80 100/7/45 101/8/33 70/5/32
f 105/65/83 106/66/81 82/67/81 81/68/83
f 76/5/84 73/30/31 102/31/34 103/8/44
f 103/8/44 50/38/43 55/40/85 104/7/86
f 3/69/26 81/70/87 82/32/35 5/35/23
f 72/37/39 75/36/88 144/3/89 141/4/40
f 63/36/90 66/37/47 143/4/4 140/3/3
f 57/36/64 60/41/91 137/42/92 142/3/65
f 98/7/7 53/40/93 54/38/94 99/8/8
f 48/28/28 47/25/25 34/15/95 33/50/96
f 137/42/92 60/41/91 63/36/90 140/3/3
f 93/43/53 89/47/56 30/48/57 31/46/54
f 79/6/97 76/5/84 103/8/44 104/7/86
f 45/22/22 48/28/28 33/50/96 40/59/98
f 47/25/25 46/24/24 35/16/30 34/15/95
f 43/18/18 42/11/11 38/55/99 37/53/100
f 41/10/10 45/22/22 40/59/98 39/57/101
f 6/2/2 4/71/102 137/42/92 140/3/3
f 44/19/19 43/18/18 37/53/100 36/29/29
f 42/11/11 41/10/10 39/57/101 38/55/99
f 66/37/47 63/36/90 65/72/103 68/73/104
f 16/1/105 2/2/106 112/74/107 111/75/108
f 14/2/109 16/71/105 111/76/108 110/74/110
f 60/41/91 57/36/64 59/72/111 62/77/112
f 146/78/113 24/58/78 17/49/68
f 12/1/114 14/2/109 110/74/110 109/75/115
f 87/33/116 88/32/117 1/35/27 15/34/21
f 10/2/118 12/1/114 109/75/115 108/74/119
f 86/32/120 87/79/116 15/69/21 13/35/9
f 8/71/1 10/2/118 108/74/119 107/80/82
f 85/33/121 86/32/120 13/35/9 11/34/12
f 17/49/68 24/58/78 40/59/79 33/50/69
f 84/32/122 85/33/121 11/34/12 9/35/17
f 83/70/36 84/32/122 9/35/17 7/69/20
f 146/78/113 18/14/14 19/13/13
f 62/81/112 59/72/111 58/5/123 61/6/6
f 63/36/90 60/41/91 62/77/112 65/72/103
f 65/72/103 62/81/112 61/6/6 64/5/5
f 61/6/6 58/5/123 97/8/124 98/7/7
f 68/82/104 65/72/103 64/5/5 67/30/80
f 69/36/38 66/41/47 68/77/104 71/72/125
f 71/72/125 68/81/104 67/64/80 70/5/32
f 72/37/39 69/36/38 71/72/125 74/73/126
f 74/82/126 71/72/125 70/5/32 73/30/31
f 75/36/88 72/37/39 74/73/126 77/72/127
f 77/72/127 74/82/126 73/30/31 76/5/84
f 78/41/63 75/36/88 77/72/127 80/77/128
f 80/81/128 77/72/127 76/5/84 79/6/97
f 57/36/64 78/37/63 80/73/128 59/72/111
f 59/72/111 80/82/128 79/30/97 58/5/123
f 104/31/86 55/39/85 56/38/129 97/8/124
f 105/80/83 112/74/107 2/2/106 4/71/102
f 1/35/27 88/32/117 81/70/87 3/69/26
f 53/40/93 56/38/129 92/43/66 91/44/59
f 56/38/129 55/39/85 96/47/52 92/43/66
f 58/5/123 79/30/97 104/31/86 97/8/124
f 50/38/43 49/39/42 89/47/56 93/43/53
f 97/8/124 56/38/129 53/40/93 98/7/7
f 52/38/41 51/40/46 90/44/49 94/43/48
f 55/40/85 50/38/43 93/43/53 96/44/52
f 49/39/42 52/38/41 94/43/48 89/47/56
f 54/38/94 53/40/93 91/44/59 95/43/58
f 51/39/46 54/38/94 95/43/58 90/47/49
f 99/8/8 54/38/94 51/39/46 100/31/45
f 88/83/107 112/84/107 105/65/83 81/68/83
f 107/61/82 108/84/119 84/83/119 83/62/82
f 108/84/119 109/65/115 85/68/115 84/83/119
f 109/65/115 110/66/110 86/67/110 85/68/115
f 110/60/110 111/61/108 87/62/108 86/63/110
f 111/61/108 112/84/107 88/83/107 87/62/108
f 4/71/102 6/2/2 106/85/81 105/80/83
f 6/2/2 8/1/1 107/75/82 106/85/81
f 119/86/130 129/87/130 130/88/131 120/89/131
f 130/90/132 129/91/133 127/92/133 128/93/132
f 113/94/134 114/95/135 115/96/136 116/97/137 117/98/138 118/99/139 119/100/140 120/101/141
f 117/102/142 131/103/142 132/104/143 118/105/143
f 115/86/144 133/87/144 134/88/145 116/89/145
f 113/102/146 135/103/146 136/104/147 114/105/147
f 120/89/131 130/88/131 135/103/146 113/102/146
f 118/105/143 132/104/143 129/106/130 119/107/130
f 116/89/145 134/88/145 131/103/142 117/102/142
f 114/105/147 136/104/147 133/106/144 115/107/144
f 133/108/148 136/109/149 122/110/149 123/111/148
f 131/112/150 134/113/151 124/114/151 125/115/150
f 136/109/149 135/116/152 121/117/152 122/110/149
f 129/91/133 132/118/153 126/119/153 127/92/133
f 135/116/152 130/90/132 128/93/132 121/117/152
f 134/113/151 133/108/148 123/111/148 124/114/151
f 132/118/153 131/112/150 125/115/150 126/119/153
f 145/120/154 126/119/154 125/115/154
f 12/1/114 10/2/118 138/3/37 141/4/40
f 2/2/106 16/1/105 139/4/62 142/3/65
f 2/2/106 142/3/65 137/42/92 4/71/102
f 14/2/109 12/1/114 141/4/40 144/3/89
f 10/2/118 8/71/1 143/42/4 138/3/37
f 16/71/105 14/2/109 144/3/89 139/42/62
f 20/51/70 146/78/113 19/13/13
f 75/36/88 78/41/63 139/42/62 144/3/89
f 128/93/154 145/120/154 121/117/154
f 145/120/154 124/114/154 123/111/154
f 122/110/154 145/120/154 123/111/154
f 145/120/154 127/92/154 126/119/154
f 128/93/154 127/92/154 145/120/154
f 145/120/154 125/115/154 124/114/154
f 122/110/154 121/117/154 145/120/154
f 22/54/74 146/78/113 21/52/72
f 146/78/113 23/56/76 24/58/78
f 146/78/113 17/49/68 18/14/14
f 20/51/70 21/52/72 146/78/113
f 22/54/74 23/56/76 146/78/113
