# Blender 5.0.1
# www.blender.org
mtllib hand_saw_1.mtl
o hand_saw_1
v 0.056671 0.018000 -0.097139
v -0.331773 0.018000 -0.078474
v -0.337767 0.018000 -0.026247
v 0.188893 0.018000 0.100629
v 0.056671 0.015000 -0.097139
v -0.331769 0.015000 -0.078474
v -0.337767 0.015000 -0.026247
v 0.188893 0.015000 0.100629
v 0.292120 0.033000 -0.089625
v 0.297755 0.033000 -0.094947
v 0.292746 0.033000 -0.101522
v 0.061052 0.033000 -0.099644
v 0.202401 0.033000 0.115998
v 0.348899 0.033000 0.086784
v 0.341723 0.033000 0.074826
v 0.307367 0.033000 -0.015378
v 0.283624 0.033000 -0.055037
v 0.283102 0.033000 -0.073562
v 0.067712 0.033000 -0.003485
v 0.107916 0.033000 0.008538
v 0.215769 0.027255 -0.070438
v 0.218322 0.033000 -0.076438
v 0.223956 0.027255 -0.064064
v 0.228611 0.033000 -0.068175
v 0.230401 0.027255 -0.054583
v 0.237600 0.033000 -0.054644
v 0.251817 0.027255 0.004405
v 0.258019 0.033000 0.002197
v 0.284129 0.027255 0.072411
v 0.290850 0.033000 0.072693
v 0.276990 0.027255 0.083307
v 0.281713 0.033000 0.086765
v 0.264967 0.027255 0.089318
v 0.265118 0.033000 0.096028
v 0.249562 0.027255 0.088942
v 0.247493 0.033000 0.095658
v 0.236036 0.027255 0.082180
v 0.230524 0.033000 0.086501
v 0.168031 0.027255 -0.036924
v 0.161498 0.033000 -0.035949
v 0.168031 0.027255 -0.051577
v 0.161467 0.033000 -0.052413
v 0.174418 0.027255 -0.063976
v 0.169472 0.033000 -0.067227
v 0.185314 0.027255 -0.069236
v 0.183362 0.033000 -0.075100
v 0.351508 0.033000 0.104831
v 0.358683 0.033000 0.099613
v 0.358466 0.033000 0.096134
v 0.292120 -0.000000 -0.089625
v 0.297755 -0.000000 -0.094947
v 0.292746 -0.000000 -0.101522
v 0.061052 -0.000000 -0.099644
v 0.056669 -0.000000 -0.097139
v 0.351508 -0.000000 0.104831
v 0.358683 -0.000000 0.099613
v 0.358466 -0.000000 0.096134
v 0.348899 -0.000000 0.086784
v 0.341723 -0.000000 0.074826
v 0.307367 -0.000000 -0.015378
v 0.283624 -0.000000 -0.055037
v 0.283102 -0.000000 -0.073562
v 0.067714 -0.000000 -0.003485
v 0.218322 -0.000000 -0.076438
v 0.215769 0.005745 -0.070438
v 0.228611 -0.000000 -0.068175
v 0.223956 0.005745 -0.064064
v 0.237600 -0.000000 -0.054644
v 0.230401 0.005745 -0.054583
v 0.258019 -0.000000 0.002197
v 0.251817 0.005745 0.004405
v 0.290850 -0.000000 0.072693
v 0.284129 0.005745 0.072411
v 0.281713 -0.000000 0.086765
v 0.276990 0.005745 0.083307
v 0.265118 -0.000000 0.096028
v 0.264967 0.005745 0.089318
v 0.247493 -0.000000 0.095658
v 0.249562 0.005745 0.088942
v 0.230524 -0.000000 0.086501
v 0.236036 0.005745 0.082180
v 0.161498 -0.000000 -0.035949
v 0.168031 0.005745 -0.036924
v 0.161467 -0.000000 -0.052413
v 0.168031 0.005745 -0.051577
v 0.169472 -0.000000 -0.067227
v 0.174418 0.005745 -0.063976
v 0.183362 -0.000000 -0.075100
v 0.185314 0.005745 -0.069236
v 0.056669 0.033000 -0.097139
v 0.202401 -0.000000 0.115998
v 0.107916 -0.000000 0.008538
vn -0.0000 -1.0000 -0.0000
vn -0.0000 1.0000 -0.0000
vn -0.0480 -0.0000 -0.9988
vn -0.9935 -0.0006 -0.1141
vn -0.2342 -0.0000 0.9722
vn 0.6866 -0.0000 0.7270
vn 1.0000 -0.0000 -0.0000
vn 0.0244 -0.0000 -0.9997
vn 0.3340 0.7007 0.6304
vn 0.8575 -0.0000 -0.5145
vn 0.6595 -0.7517 -0.0007
vn -0.9400 -0.0000 0.3413
vn 0.4347 -0.0000 0.9006
vn 0.0146 -0.7607 -0.6489
vn -0.4962 -0.0000 -0.8682
vn 0.9996 -0.0000 -0.0282
vn 0.5738 -0.7516 -0.3255
vn -0.5702 0.7271 0.3824
vn -0.6143 -0.0000 0.7891
vn 0.0270 0.7174 0.6961
vn 0.0747 -0.0000 0.9972
vn 0.8720 -0.0000 0.4896
vn 0.0395 -0.0000 0.9992
vn 0.8580 -0.0000 -0.5137
vn 0.3026 -0.7566 -0.5797
vn 0.5882 -0.0000 0.8087
vn -0.3362 0.7001 -0.6299
vn -0.0081 -0.0000 -1.0000
vn 0.7954 -0.0000 -0.6060
vn -0.9931 -0.0000 0.1171
vn -0.7510 -0.0000 0.6603
vn -0.6120 -0.7366 0.2878
vn -0.6128 -0.7586 0.2213
vn 0.8684 -0.0000 -0.4958
vn -0.5888 0.7114 -0.3838
vn 0.0146 0.7607 -0.6489
vn 0.3340 -0.7007 0.6304
vn 0.9345 -0.0000 -0.3559
vn 0.6091 -0.7248 0.3221
vn 0.3026 0.7566 -0.5797
vn 0.6595 0.7517 -0.0007
vn 0.6091 0.7248 0.3221
vn -0.2865 -0.0000 0.9581
vn -0.5702 -0.7271 0.3824
vn -0.4220 -0.7335 0.5328
vn 0.4472 -0.0000 -0.8944
vn -0.6120 0.7366 0.2878
vn -0.6128 0.7586 0.2213
vn -0.4220 0.7335 0.5328
vn -0.8365 -0.0000 -0.5480
vn -0.9032 -0.0000 0.4292
vn 0.6989 -0.0000 -0.7152
vn -0.4472 -0.0000 -0.8944
vn 0.9981 -0.0000 -0.0623
vn -0.8271 -0.0000 0.5621
vn 0.0270 -0.7174 0.6961
vn -0.5888 -0.7114 -0.3838
vn -0.3362 -0.7001 -0.6299
vn 0.8890 -0.0000 0.4580
vn 0.5738 0.7516 -0.3255
vt 0.563122 0.858081
vt 0.725628 0.341692
vt 0.078340 0.672975
vt 0.085707 0.809344
vt 0.563122 0.858081
vt 0.725628 0.341692
vt 0.563137 0.857424
vt 0.077061 0.809030
vt 0.725776 0.343002
vt 0.725776 0.343002
vt 0.932028 0.330721
vt 0.928822 0.377842
vt 0.940580 0.353430
vt 0.940847 0.344346
vt 0.817126 0.598708
vt 0.792030 0.747124
vt 0.848595 0.748150
vt 0.877777 0.644596
vt 0.748769 0.301562
vt 0.804189 0.354671
vt 0.825852 0.353706
vt 0.932028 0.330721
vt 0.775346 0.182090
vt 0.775346 0.239069
vt 0.768332 0.239069
vt 0.768332 0.182090
vt 0.725270 0.217251
vt 0.725270 0.174200
vt 0.739049 0.174200
vt 0.739049 0.217251
vt 0.700829 0.218216
vt 0.686339 0.218216
vt 0.686339 0.175165
vt 0.700829 0.175165
vt 0.726668 0.794521
vt 0.709230 0.776289
vt 0.714377 0.771489
vt 0.727769 0.785223
vt 0.717595 0.239069
vt 0.717595 0.182090
vt 0.732478 0.182090
vt 0.732478 0.239069
vt 0.706527 0.700854
vt 0.698498 0.698308
vt 0.698458 0.741298
vt 0.706527 0.739115
vt 0.751666 0.175165
vt 0.751666 0.218216
vt 0.692656 0.218216
vt 0.692656 0.175165
vt 0.712155 0.174200
vt 0.712155 0.217251
vt 0.700778 0.217251
vt 0.700778 0.174200
vt 0.826267 0.367743
vt 0.805147 0.367511
vt 0.806733 0.372207
vt 0.825666 0.371226
vt 0.632643 0.582149
vt 0.698498 0.698308
vt 0.783333 0.378581
vt 0.723566 0.182090
vt 0.718111 0.182090
vt 0.718111 0.239069
vt 0.723566 0.239069
vt 0.708298 0.779976
vt 0.698459 0.741299
vt 0.575045 0.864621
vt 0.725370 0.800531
vt 0.857477 0.414637
vt 0.920003 0.409067
vt 0.583230 0.613542
vt 0.569658 0.858081
vt 0.740743 0.239069
vt 0.740743 0.182090
vt 0.763798 0.182090
vt 0.763798 0.239069
vt 0.859038 0.838460
vt 0.780983 0.782453
vt 0.847954 0.796521
vt 0.790109 0.389866
vt 0.783876 0.379582
vt 0.781000 0.782412
vt 0.775275 0.771724
vt 0.783182 0.746963
vt 0.780983 0.782453
vt 0.848595 0.748150
vt 0.681876 0.175165
vt 0.681876 0.218216
vt 0.672119 0.218216
vt 0.672119 0.175165
vt 0.726062 0.790215
vt 0.765146 0.789034
vt 0.768060 0.794897
vt 0.656676 0.182090
vt 0.842242 0.182090
vt 0.842242 0.239069
vt 0.656676 0.239069
vt 0.783787 0.182090
vt 0.783787 0.239069
vt 0.672119 0.217251
vt 0.672119 0.174200
vt 0.691386 0.239069
vt 0.691386 0.182090
vt 0.790108 0.389866
vt 0.806733 0.372207
vt 0.806628 0.364991
vt 0.785692 0.386850
vt 0.851172 0.182090
vt 0.851172 0.239069
vt 0.845473 0.380911
vt 0.840443 0.386923
vt 0.825121 0.358326
vt 0.894174 0.182090
vt 0.605826 0.182090
vt 0.605826 0.239069
vt 0.894174 0.239069
vt 0.769112 0.182090
vt 0.769112 0.239069
vt 0.790412 0.239069
vt 0.790412 0.182090
vt 0.793139 0.182090
vt 0.676585 0.182090
vt 0.676585 0.239069
vt 0.793139 0.239069
vt 0.814974 0.182090
vt 0.814974 0.239069
vt 0.849216 0.415373
vt 0.809503 0.592940
vt 0.780983 0.782453
vt 0.672119 0.175165
vt 0.801084 0.175165
vt 0.801084 0.218216
vt 0.672119 0.218216
vt 0.846268 0.377999
vt 0.826267 0.367743
vt 0.805147 0.367511
vt 0.709230 0.776289
vt 0.726668 0.794521
vt 0.689655 0.183486
vt 0.689655 0.238532
vt 0.780172 0.238532
vt 0.780172 0.183486
vt 0.706527 0.739115
vt 0.699556 0.740102
vt 0.709098 0.778923
vt 0.714377 0.771489
vt 0.806628 0.364991
vt 0.785692 0.386850
vt 0.698458 0.741298
vt 0.698498 0.698308
vt 0.706527 0.700854
vt 0.709097 0.778922
vt 0.699556 0.740102
vt 0.736348 0.182090
vt 0.781889 0.182090
vt 0.781889 0.239069
vt 0.736348 0.239068
vt 0.775275 0.771724
vt 0.781000 0.782412
vt 0.764574 0.785994
vt 0.766743 0.797708
vt 0.780421 0.780656
vt 0.775515 0.772612
vt 0.672119 0.218216
vt 0.809503 0.592940
vt 0.583230 0.613542
vt 0.698460 0.741300
vt 0.764575 0.785994
vt 0.775515 0.772612
vt 0.780421 0.780656
vt 0.766744 0.797708
vt 0.783333 0.378576
vt 0.825852 0.353706
vt 0.804189 0.354671
vt 0.780983 0.782453
vt 0.847954 0.796521
vt 0.940847 0.344346
vt 0.928821 0.377842
vt 0.713469 0.218216
vt 0.713469 0.175165
vt 0.725717 0.175165
vt 0.725717 0.218216
vt 0.822464 0.218216
vt 0.822464 0.175165
vt 0.850901 0.239069
vt 0.850901 0.182090
vt 0.838995 0.182090
vt 0.838995 0.239069
vt 0.705960 0.182090
vt 0.705960 0.239069
vt 0.701630 0.239069
vt 0.701630 0.182090
vt 0.765146 0.789034
vt 0.726062 0.790215
vt 0.768060 0.794897
vt 0.859807 0.869527
vt 0.768350 0.804264
vt 0.846247 0.377893
vt 0.846268 0.377999
vt 0.840443 0.386923
vt 0.846247 0.377893
vt 0.783333 0.378581
vt 0.865964 0.852358
vt 0.708298 0.779976
vt 0.725369 0.800525
vt 0.583233 0.613542
vt 0.569658 0.858081
vt 0.583230 0.613542
vt 0.583230 0.613542
vt 0.920003 0.409067
vt 0.865964 0.852358
vt 0.768323 0.803791
vt 0.845473 0.380911
vt 0.825121 0.358326
vt 0.632643 0.582149
vt 0.583230 0.613542
vt 0.768337 0.804028
vt 0.783876 0.379582
vt 0.698498 0.698308
s 0
usemtl hand_saw_1
f 5/1/1 8/2/1 7/3/1 6/4/1
f 1/5/2 2/4/2 3/3/2 4/6/2
f 2/4/3 1/7/3 5/7/3 6/4/3
f 2/8/4 6/8/4 7/3/4 3/3/4
f 8/9/5 4/10/5 3/3/5 7/3/5
f 55/11/1 58/12/1 57/13/1 56/14/1
f 70/15/1 68/16/1 61/17/1 60/18/1
f 91/19/1 78/20/1 76/21/1 55/22/1
f 51/23/6 10/24/6 9/25/6 50/26/6
f 85/27/7 41/28/7 39/29/7 83/30/7
f 77/31/8 79/32/8 35/33/8 33/34/8
f 46/35/9 44/36/9 43/37/9 45/38/9
f 14/39/10 58/40/10 59/41/10 15/42/10
f 83/43/11 82/44/11 84/45/11 85/46/11
f 71/47/12 27/48/12 25/49/12 69/50/12
f 43/51/13 87/52/13 89/53/13 45/54/13
f 76/55/14 78/56/14 79/57/14 77/58/14
f 92/59/1 82/60/1 80/61/1 91/19/1
f 53/62/15 54/63/15 90/64/15 12/65/15
f 86/66/1 84/67/1 53/68/1 88/69/1
f 72/70/1 70/15/1 60/18/1 59/71/1
f 19/72/2 12/68/2 90/73/2
f 17/74/16 61/75/16 62/76/16 18/77/16
f 9/78/2 24/79/2 18/80/2
f 83/43/17 81/81/17 80/82/17 82/60/17
f 24/83/18 23/84/18 25/85/18 26/16/18
f 18/80/2 24/86/2 26/16/2 17/87/2
f 67/88/19 23/89/19 21/90/19 65/91/19
f 46/92/20 45/38/20 21/93/20 22/94/20
f 17/87/2 26/16/2 28/15/2 16/18/2
f 91/95/21 55/96/21 47/97/21 13/98/21
f 62/76/22 50/99/22 9/100/22 18/77/22
f 89/53/23 65/101/23 21/102/23 45/54/23
f 61/75/24 17/74/24 16/103/24 60/104/24
f 81/105/25 79/106/25 78/107/25 80/108/25
f 47/97/26 55/96/26 56/109/26 48/110/26
f 32/111/27 31/112/27 33/58/27 34/113/27
f 52/114/28 53/115/28 12/116/28 11/117/28
f 52/118/29 11/119/29 10/120/29 51/121/29
f 54/122/30 63/123/30 19/124/30 90/125/30
f 92/126/31 91/95/31 13/98/31 20/127/31
f 70/15/32 72/70/32 73/128/32 71/129/32
f 71/129/33 69/85/33 68/16/33 70/15/33
f 66/130/1 50/78/1 62/80/1
f 81/131/34 83/132/34 39/133/34 37/134/34
f 32/135/35 30/70/35 29/128/35 31/112/35
f 34/136/36 33/58/36 35/106/36 36/137/36
f 87/37/37 86/138/37 88/139/37 89/38/37
f 60/140/38 16/141/38 15/142/38 59/143/38
f 85/144/39 84/145/39 86/146/39 87/147/39
f 36/148/40 35/106/40 37/81/40 38/149/40
f 42/150/41 40/151/41 39/152/41 41/144/41
f 44/153/42 42/154/42 41/144/42 43/37/42
f 63/155/43 92/156/43 20/157/43 19/158/43
f 69/85/44 67/159/44 66/160/44 68/16/44
f 65/161/45 64/162/45 66/163/45 67/164/45
f 37/91/46 35/33/46 79/32/46 81/165/46
f 28/15/47 27/166/47 29/128/47 30/70/47
f 19/167/2 40/151/2 42/168/2 12/68/2
f 27/129/48 28/15/48 26/16/48 25/85/48
f 21/169/49 23/170/49 24/171/49 22/172/49
f 38/173/2 40/151/2 20/59/2 13/19/2
f 13/19/2 47/11/2 34/174/2 36/175/2
f 68/16/1 66/176/1 62/177/1 61/87/1
f 47/11/2 48/178/2 49/13/2 14/179/2
f 75/180/50 31/181/50 29/182/50 73/183/50
f 29/184/51 27/48/51 71/47/51 73/185/51
f 49/186/52 57/187/52 58/188/52 14/189/52
f 75/180/53 77/31/53 33/34/53 31/181/53
f 57/190/54 49/191/54 48/192/54 56/193/54
f 67/88/55 69/50/55 25/49/55 23/89/55
f 65/194/56 89/38/56 88/195/56 64/196/56
f 91/19/1 80/61/1 78/20/1
f 53/68/1 52/197/1 64/198/1 88/69/1
f 15/71/2 30/70/2 32/199/2 14/179/2
f 16/18/2 28/15/2 30/70/2 15/71/2
f 73/128/57 72/70/57 74/200/57 75/201/57
f 58/179/1 55/22/1 76/21/1 74/202/1
f 32/199/2 34/174/2 47/11/2 14/179/2
f 36/175/2 38/203/2 13/19/2
f 64/198/1 52/197/1 50/78/1 66/130/1
f 9/78/2 10/204/2 11/197/2
f 44/205/2 46/206/2 12/68/2 42/168/2
f 63/207/1 54/208/1 53/68/1
f 63/209/1 53/68/1 84/67/1 82/44/1
f 19/210/2 20/59/2 40/151/2
f 59/211/1 58/179/1 74/202/1 72/70/1
f 51/212/1 50/78/1 52/197/1
f 22/213/2 11/197/2 12/68/2 46/206/2
f 74/214/58 76/215/58 77/58/58 75/112/58
f 82/44/1 92/216/1 63/217/1
f 22/218/2 24/79/2 9/78/2 11/197/2
f 85/27/59 87/52/59 43/51/59 41/28/59
f 38/219/60 37/81/60 39/43/60 40/220/60
