# Blender 5.0.1
# www.blender.org
mtllib id_mp_1.mtl
o id_mp_1
v -0.068397 0.001800 0.039000
v -0.065397 0.001800 0.042000
v 0.060597 0.001800 0.042000
v 0.063597 0.001800 0.039000
v -0.065397 0.001800 -0.043200
v -0.068397 0.001800 -0.040200
v 0.063597 0.001800 -0.040200
v 0.060597 0.001800 -0.043200
v -0.068397 0.000000 -0.040200
v -0.065397 0.000000 -0.043200
v -0.065397 0.000000 0.042000
v -0.068397 0.000000 0.039000
v 0.063597 0.000000 0.039000
v 0.060597 0.000000 0.042000
v 0.060597 0.000000 -0.043200
v 0.063597 0.000000 -0.040200
vn -0.0000 -0.0000 -1.0000
vn -0.0000 -0.0000 1.0000
vn 1.0000 -0.0000 -0.0000
vn -0.0000 -1.0000 -0.0000
vn -0.0000 1.0000 -0.0000
vn -0.7071 -0.0000 -0.7071
vn 0.7071 -0.0000 -0.7071
vn 0.7071 -0.0000 0.7071
vn -0.7071 -0.0000 0.7071
vn -1.0000 -0.0000 -0.0000
vt 0.484375 0.708333
vt 0.484375 0.715278
vt 0.007812 0.715278
vt 0.007812 0.708333
vt 0.390625 0.708333
vt 0.390625 0.715278
vt 0.101562 0.715278
vt 0.101562 0.708333
vt 0.979036 0.718743
vt 0.989892 0.728563
vt 0.989892 0.987820
vt 0.979036 0.997641
vt 0.523136 0.997641
vt 0.512281 0.987820
vt 0.512281 0.728563
vt 0.523136 0.718743
vt 0.010108 0.728563
vt 0.020964 0.718743
vt 0.476864 0.718743
vt 0.487719 0.728563
vt 0.487719 0.987820
vt 0.476864 0.997641
vt 0.020964 0.997641
vt 0.010108 0.987820
vt 0.085938 0.715278
vt 0.085938 0.708333
vt 0.414062 0.708333
vt 0.414062 0.715278
s 0
usemtl identification_mp_1
f 8/1/1 15/2/1 10/3/1 5/4/1
f 11/4/2 14/1/2 3/2/2 2/3/2
f 4/5/3 13/6/3 16/7/3 7/8/3
f 11/9/4 12/10/4 9/11/4 10/12/4 15/13/4 16/14/4 13/15/4 14/16/4
f 1/17/5 2/18/5 3/19/5 4/20/5 7/21/5 8/22/5 5/23/5 6/24/5
f 9/8/6 6/7/6 5/25/6 10/26/6
f 7/8/7 16/7/7 15/25/7 8/26/7
f 13/6/8 4/5/8 3/27/8 14/28/8
f 1/6/9 12/5/9 11/27/9 2/28/9
f 9/8/10 12/5/10 1/6/10 6/7/10
