# Blender 5.0.1
# www.blender.org
mtllib incognito_mask_mp_1.mtl
o incognito_mask_mp_1
v -0.095174 0.007407 -0.060019
v -0.110619 -0.023958 -0.018416
v -0.028549 0.017397 -0.037741
v -0.034592 0.015823 -0.043785
v -0.044665 0.012599 -0.047553
v -0.056528 0.007953 -0.048672
v -0.076153 -0.000020 -0.045352
v -0.087420 -0.003790 -0.037518
v -0.075257 0.000248 -0.030989
v -0.056080 0.008247 -0.027930
v -0.044888 0.012600 -0.028826
v -0.034816 0.015769 -0.031959
v 0.000000 -0.011024 -0.149358
v -0.026829 0.028220 -0.072347
v -0.035743 0.026708 -0.079157
v -0.053507 0.021155 -0.087399
v -0.069915 0.014998 -0.089954
v -0.079264 0.011548 -0.087446
v -0.088082 0.009788 -0.078628
v 0.000000 0.018000 -0.074900
v -0.029918 0.027994 -0.060879
v -0.030004 0.027987 -0.060930
v -0.041844 0.026478 -0.065159
v -0.056280 0.022476 -0.067015
v -0.074987 0.015490 -0.066369
v -0.087960 0.004185 -0.019928
v -0.096167 0.000956 -0.015079
v -0.094489 0.000683 -0.004633
v -0.079007 0.005887 0.006932
v -0.064001 0.010562 0.007305
v -0.046100 0.017335 0.003761
v -0.021744 0.024057 -0.015825
v -0.038157 0.021601 -0.014332
v -0.051028 0.017669 -0.013027
v -0.063899 0.013223 -0.015638
v -0.076582 0.008642 -0.020488
v 0.000000 0.026430 0.043013
v 0.000000 0.027136 -0.044177
v -0.008221 0.039412 0.026144
v -0.013611 0.014024 0.038828
v -0.029018 0.009925 0.033045
v -0.034986 0.009348 0.025398
v -0.036293 0.011814 0.013647
v -0.009336 0.018000 -0.041050
v -0.013903 0.029622 0.008983
v -0.015588 0.028339 0.024858
v 0.000000 0.028570 0.085627
v -0.019371 0.017769 0.084732
v -0.038174 0.006734 0.080255
v -0.060781 -0.001645 0.068392
v -0.075106 -0.003823 0.046457
v 0.000000 0.020525 0.115990
v -0.090205 -0.006997 0.019675
v -0.069062 -0.002228 0.023402
v -0.048693 0.006757 0.018701
v -0.094157 -0.001564 -0.046417
v -0.025332 0.021872 -0.049684
v -0.018461 0.022226 -0.075192
v -0.031926 0.019962 -0.085477
v -0.051355 0.012754 -0.094492
v -0.070318 0.006156 -0.097446
v -0.083064 0.001987 -0.094026
v -0.094256 -0.000577 -0.082834
v -0.033122 0.020734 -0.054249
v -0.043567 0.018458 -0.057980
v -0.056624 0.014866 -0.059658
v -0.072851 0.008853 -0.059099
v 0.000000 0.044299 0.018989
v -0.104823 -0.007661 -0.027832
v -0.091253 -0.002590 -0.033714
v -0.019490 0.009995 0.112791
v -0.037844 -0.000441 0.101376
v -0.067613 -0.009334 0.075188
v -0.085072 -0.008300 0.049447
v -0.096711 -0.008649 0.022363
v 0.000000 0.043557 0.029063
v -0.026754 0.020190 0.011660
v -0.024008 0.023944 0.025336
v -0.028516 0.022612 0.021139
v 0.000000 0.038256 0.003902
v -0.036968 0.020937 -0.003583
v -0.109847 -0.023958 -0.052839
v -0.012866 0.016680 -0.120256
v -0.101178 -0.008126 -0.089968
v -0.092555 -0.006550 -0.106364
v 0.000000 0.017985 -0.119984
v -0.084011 -0.007162 -0.114408
v -0.058526 -0.000631 -0.121103
v -0.107598 -0.023958 0.003106
v -0.097278 -0.007199 0.010371
v -0.008717 0.018000 -0.074900
v -0.102081 -0.008264 -0.071092
v -0.101352 -0.010782 -0.059113
v -0.101003 -0.011901 -0.049219
v 0.095174 0.007407 -0.060019
v 0.110619 -0.023958 -0.018416
v 0.028549 0.017397 -0.037741
v 0.034592 0.015823 -0.043785
v 0.044665 0.012599 -0.047553
v 0.056528 0.007953 -0.048672
v 0.076153 -0.000020 -0.045352
v 0.087420 -0.003790 -0.037518
v 0.075257 0.000248 -0.030989
v 0.056080 0.008247 -0.027930
v 0.044888 0.012600 -0.028826
v 0.034816 0.015769 -0.031959
v 0.026829 0.028220 -0.072347
v 0.035743 0.026708 -0.079157
v 0.053507 0.021155 -0.087399
v 0.069915 0.014998 -0.089954
v 0.079264 0.011548 -0.087446
v 0.088082 0.009788 -0.078628
v 0.029918 0.027994 -0.060879
v 0.030004 0.027987 -0.060930
v 0.041844 0.026478 -0.065159
v 0.056280 0.022476 -0.067015
v 0.074987 0.015490 -0.066369
v 0.087960 0.004185 -0.019928
v 0.096167 0.000956 -0.015079
v 0.094489 0.000683 -0.004633
v 0.079007 0.005887 0.006932
v 0.064001 0.010562 0.007305
v 0.046100 0.017335 0.003761
v 0.021744 0.024057 -0.015825
v 0.038157 0.021601 -0.014332
v 0.051028 0.017669 -0.013027
v 0.063899 0.013223 -0.015638
v 0.076582 0.008642 -0.020488
v 0.008221 0.039412 0.026144
v 0.013611 0.014024 0.038828
v 0.029018 0.009925 0.033045
v 0.034986 0.009348 0.025398
v 0.036293 0.011814 0.013647
v 0.009336 0.018000 -0.041050
v 0.013903 0.029622 0.008983
v 0.015588 0.028339 0.024858
v 0.019371 0.017769 0.084732
v 0.038174 0.006734 0.080255
v 0.060781 -0.001645 0.068392
v 0.075106 -0.003823 0.046457
v 0.090205 -0.006997 0.019675
v 0.069062 -0.002228 0.023402
v 0.048693 0.006757 0.018701
v 0.094157 -0.001564 -0.046417
v 0.025332 0.021872 -0.049684
v 0.018461 0.022226 -0.075192
v 0.031926 0.019962 -0.085477
v 0.051355 0.012754 -0.094492
v 0.070318 0.006156 -0.097446
v 0.083064 0.001987 -0.094026
v 0.094256 -0.000577 -0.082834
v 0.033122 0.020734 -0.054249
v 0.043567 0.018458 -0.057980
v 0.056624 0.014866 -0.059658
v 0.072851 0.008853 -0.059099
v 0.104823 -0.007661 -0.027832
v 0.091253 -0.002590 -0.033714
v 0.019490 0.009995 0.112791
v 0.037844 -0.000441 0.101376
v 0.067613 -0.009334 0.075188
v 0.085072 -0.008300 0.049447
v 0.096711 -0.008649 0.022363
v 0.026754 0.020190 0.011660
v 0.024008 0.023944 0.025336
v 0.028516 0.022612 0.021139
v 0.036968 0.020937 -0.003583
v 0.109847 -0.023958 -0.052839
v 0.012866 0.016680 -0.120256
v 0.101178 -0.008126 -0.089968
v 0.092555 -0.006550 -0.106364
v 0.084011 -0.007162 -0.114408
v 0.058526 -0.000631 -0.121103
v 0.107598 -0.023958 0.003106
v 0.097278 -0.007199 0.010371
v 0.008717 0.018000 -0.074900
v 0.102081 -0.008264 -0.071092
v 0.101352 -0.010782 -0.059113
v 0.101003 -0.011901 -0.049219
v -0.064206 -0.020653 -0.142186
v -0.094044 -0.029176 -0.126564
v -0.108686 -0.029176 -0.097706
v -0.095174 0.000113 -0.060019
v -0.110619 -0.029176 -0.018416
v -0.109459 -0.029176 -0.005652
v -0.102884 -0.029176 0.025290
v -0.094375 -0.029176 0.051978
v -0.076583 -0.029697 0.079440
v -0.022820 -0.013148 0.139391
v -0.028549 0.012292 -0.037741
v -0.034592 0.010616 -0.043785
v -0.044665 0.007252 -0.047553
v -0.056528 0.002462 -0.048672
v -0.076153 -0.006348 -0.045352
v -0.087420 -0.010856 -0.037518
v -0.075257 -0.005847 -0.030989
v -0.056080 0.002756 -0.027930
v -0.044888 0.007235 -0.028826
v -0.034816 0.010543 -0.031959
v 0.000000 -0.010436 0.146353
v -0.026829 0.022863 -0.072347
v -0.035743 0.020926 -0.079157
v -0.053507 0.014726 -0.087399
v -0.069915 0.008041 -0.089954
v -0.079264 0.004475 -0.087446
v -0.088082 0.002597 -0.078628
v 0.000000 0.013000 -0.074900
v -0.029918 0.022599 -0.060879
v -0.030004 0.022586 -0.060930
v -0.041844 0.020138 -0.065159
v -0.056280 0.015375 -0.067015
v -0.074987 0.007926 -0.066369
v -0.087960 -0.003062 -0.019928
v -0.096167 -0.005906 -0.015079
v -0.094489 -0.005869 -0.004633
v -0.079007 -0.002095 0.006932
v -0.064001 0.001232 0.007305
v -0.046100 0.008152 0.003761
v -0.021744 0.018092 -0.015825
v -0.038157 0.014078 -0.014332
v -0.051028 0.009635 -0.013027
v -0.063899 0.005429 -0.015638
v -0.076582 0.001135 -0.020488
v 0.000000 0.019382 0.043013
v 0.000000 0.022136 -0.044177
v -0.008221 0.030020 0.026144
v -0.013611 0.005191 0.038828
v -0.029018 0.000016 0.033045
v -0.034986 -0.000528 0.025398
v -0.036293 0.002454 0.013647
v -0.009336 0.013000 -0.041050
v -0.013903 0.015857 0.008983
v -0.015588 0.016955 0.027263
v 0.000000 0.022219 0.085627
v -0.019371 0.011003 0.084732
v -0.038174 -0.000100 0.080255
v -0.060781 -0.009060 0.068392
v -0.075106 -0.011231 0.046457
v 0.000000 0.014852 0.115990
v -0.090205 -0.014051 0.019675
v -0.069062 -0.011217 0.023402
v -0.048693 -0.002844 0.018701
v -0.094157 -0.008688 -0.046417
v -0.025332 0.016722 -0.049684
v -0.018461 0.017128 -0.075192
v -0.031926 0.014132 -0.085477
v -0.051355 0.006344 -0.094492
v -0.070318 -0.000508 -0.097446
v -0.083064 -0.004766 -0.094026
v -0.094256 -0.007408 -0.082834
v -0.033122 0.015333 -0.054249
v -0.043567 0.012538 -0.057980
v -0.056624 0.007851 -0.059658
v -0.072851 0.001015 -0.059099
v 0.000000 0.035479 0.018989
v -0.104823 -0.014152 -0.027832
v -0.091253 -0.009970 -0.033714
v -0.019490 -0.001352 0.112791
v -0.037844 -0.008801 0.101376
v -0.067613 -0.015420 0.075188
v -0.085072 -0.014497 0.049447
v -0.096711 -0.014861 0.022363
v 0.000000 0.035020 0.026408
v -0.026754 0.011543 0.011660
v -0.024008 0.014983 0.025336
v -0.028516 0.013529 0.021139
v 0.000000 0.030759 0.007571
v -0.006117 0.025158 0.008146
v -0.036968 0.012712 -0.003583
v -0.109847 -0.029176 -0.052839
v -0.101178 -0.014316 -0.089968
v -0.092555 -0.012686 -0.106364
v 0.000000 0.012908 -0.119984
v -0.084011 -0.013318 -0.114408
v -0.058526 -0.006599 -0.121103
v -0.012866 0.011065 -0.120256
v -0.107598 -0.029176 0.003106
v -0.097278 -0.013754 0.010371
v -0.008717 0.013000 -0.074900
v -0.102081 -0.015026 -0.071092
v -0.101352 -0.017131 -0.059113
v -0.101003 -0.018168 -0.049219
v 0.064206 -0.020653 -0.142186
v 0.094044 -0.029176 -0.126564
v 0.108686 -0.029176 -0.097706
v 0.095174 0.000113 -0.060019
v 0.110619 -0.029176 -0.018416
v 0.109459 -0.029176 -0.005652
v 0.102884 -0.029176 0.025290
v 0.094375 -0.029176 0.051978
v 0.076583 -0.029697 0.079440
v 0.022820 -0.013148 0.139391
v 0.028549 0.012292 -0.037741
v 0.034592 0.010616 -0.043785
v 0.044665 0.007252 -0.047553
v 0.056528 0.002462 -0.048672
v 0.076153 -0.006348 -0.045352
v 0.087420 -0.010856 -0.037518
v 0.075257 -0.005847 -0.030989
v 0.056080 0.002756 -0.027930
v 0.044888 0.007235 -0.028826
v 0.034816 0.010543 -0.031959
v 0.026829 0.022863 -0.072347
v 0.035743 0.020926 -0.079157
v 0.053507 0.014726 -0.087399
v 0.069915 0.008041 -0.089954
v 0.079264 0.004475 -0.087446
v 0.088082 0.002597 -0.078628
v 0.029918 0.022599 -0.060879
v 0.030004 0.022586 -0.060930
v 0.041844 0.020138 -0.065159
v 0.056280 0.015375 -0.067015
v 0.074987 0.007926 -0.066369
v 0.087960 -0.003062 -0.019928
v 0.096167 -0.005906 -0.015079
v 0.094489 -0.005869 -0.004633
v 0.079007 -0.002095 0.006932
v 0.064001 0.001232 0.007305
v 0.046100 0.008152 0.003761
v 0.021744 0.018092 -0.015825
v 0.038157 0.014078 -0.014332
v 0.051028 0.009635 -0.013027
v 0.063899 0.005429 -0.015638
v 0.076582 0.001135 -0.020488
v 0.008221 0.030020 0.026144
v 0.013611 0.005191 0.038828
v 0.029018 0.000016 0.033045
v 0.034986 -0.000528 0.025398
v 0.036293 0.002454 0.013647
v 0.009336 0.013000 -0.041050
v 0.013903 0.015857 0.008983
v 0.015588 0.016955 0.027263
v 0.019371 0.011003 0.084732
v 0.038174 -0.000100 0.080255
v 0.060781 -0.009060 0.068392
v 0.075106 -0.011231 0.046457
v 0.090205 -0.014051 0.019675
v 0.069062 -0.011217 0.023402
v 0.048693 -0.002844 0.018701
v 0.094157 -0.008688 -0.046417
v 0.025332 0.016722 -0.049684
v 0.018461 0.017128 -0.075192
v 0.031926 0.014132 -0.085477
v 0.051355 0.006344 -0.094492
v 0.070318 -0.000508 -0.097446
v 0.083064 -0.004766 -0.094026
v 0.094256 -0.007408 -0.082834
v 0.033122 0.015333 -0.054249
v 0.043567 0.012538 -0.057980
v 0.056624 0.007851 -0.059658
v 0.072851 0.001015 -0.059099
v 0.104823 -0.014152 -0.027832
v 0.091253 -0.009970 -0.033714
v 0.019490 -0.001352 0.112791
v 0.037844 -0.008801 0.101376
v 0.067613 -0.015420 0.075188
v 0.085072 -0.014497 0.049447
v 0.096711 -0.014861 0.022363
v 0.026754 0.011543 0.011660
v 0.024008 0.014983 0.025336
v 0.028516 0.013529 0.021139
v 0.006117 0.025158 0.008146
v 0.036968 0.012712 -0.003583
v 0.109847 -0.029176 -0.052839
v 0.101178 -0.014316 -0.089968
v 0.092555 -0.012686 -0.106364
v 0.084011 -0.013318 -0.114408
v 0.058526 -0.006599 -0.121103
v 0.012866 0.011065 -0.120256
v 0.107598 -0.029176 0.003106
v 0.097278 -0.013754 0.010371
v 0.008717 0.013000 -0.074900
v 0.102081 -0.015026 -0.071092
v 0.101352 -0.017131 -0.059113
v 0.101003 -0.018168 -0.049219
v 0.032103 -0.014186 -0.145772
v -0.032103 -0.014186 -0.145772
vn -0.2978 0.9336 -0.1991
vn -0.2421 0.8385 -0.4881
vn -0.1801 0.8332 -0.5229
vn -0.2681 0.9228 -0.2766
vn -0.2860 0.9152 0.2840
vn -0.6002 0.7666 -0.2280
vn -0.6118 0.7551 0.2357
vn -0.0000 0.9281 -0.3724
vn -0.0000 0.9887 -0.1501
vn -0.0426 0.9960 -0.0785
vn 0.1310 0.8934 -0.4297
vn -0.0227 0.9811 0.1920
vn -0.3872 0.7822 0.4881
vn -0.3817 0.8634 0.3299
vn -0.1894 0.9814 -0.0300
vn -0.6802 0.6916 0.2431
vn -0.6694 0.6655 0.3301
vn -0.5132 0.5269 0.6775
vn -0.6372 0.7528 0.1650
vn -0.3611 0.8765 0.3185
vn -0.3386 0.9184 -0.2045
vn -0.0000 0.5876 0.8091
vn -0.0000 0.8799 0.4752
vn -0.3522 0.9277 0.1236
vn -0.2793 0.9217 0.2692
vn -0.3216 0.9202 0.2234
vn -0.6248 0.7717 -0.1184
vn -0.5359 0.8297 -0.1566
vn -0.3379 0.9375 -0.0825
vn -0.2219 0.9714 -0.0844
vn 0.0764 0.9755 -0.2064
vn 0.2942 0.8961 -0.3323
vn 0.3155 0.7932 -0.5208
vn -0.8490 0.5171 0.1088
vn -0.9632 0.2668 -0.0332
vn -0.7988 0.6015 -0.0133
vn 0.3085 0.9374 -0.1619
vn 0.0550 0.9414 0.3327
vn 0.3091 0.9445 -0.1111
vn 0.0252 0.9136 -0.4059
vn 0.2052 0.7133 -0.6702
vn -0.1488 0.8651 -0.4790
vn -0.0216 0.6586 -0.7521
vn -0.3072 0.8199 -0.4830
vn -0.2797 0.6292 -0.7252
vn -0.4598 0.7835 -0.4180
vn -0.5351 0.6062 -0.5884
vn -0.7161 0.6620 -0.2212
vn -0.2804 0.9090 0.3086
vn -0.2744 0.9154 0.2944
vn -0.3284 0.7594 0.5616
vn -0.3078 0.9019 0.3031
vn -0.2751 0.7534 0.5972
vn -0.1799 0.7956 0.5785
vn -0.4955 0.8267 0.2664
vn -0.5008 0.8425 0.1986
vn -0.6788 0.7192 0.1483
vn -0.4107 0.8725 0.2647
vn -0.0000 0.9560 -0.2935
vn -0.0000 0.9748 -0.2232
vn -0.2843 0.9078 -0.3084
vn -0.2651 0.9562 -0.1241
vn -0.2292 0.9152 0.3316
vn -0.0638 0.9542 0.2924
vn -0.1971 0.9129 0.3575
vn 0.0147 0.9995 -0.0265
vn -0.2867 0.9267 -0.2429
vn -0.3234 0.9364 -0.1362
vn -0.3171 0.8585 -0.4029
vn -0.3459 0.8321 0.4336
vn -0.2932 0.8241 0.4847
vn -0.1533 0.8721 0.4648
vn -0.9398 0.3189 0.1230
vn -0.9372 0.3306 0.1109
vn -0.9636 0.1275 0.2348
vn -0.7882 0.6149 -0.0243
vn 0.9398 0.3189 0.1230
vn 0.6789 0.7041 0.2082
vn 0.9032 0.3136 0.2929
vn 0.9636 0.1275 0.2348
vn -0.6789 0.7041 0.2082
vn -0.7116 0.6753 0.1942
vn -0.2881 0.8911 0.3507
vn -0.6272 0.7779 0.0372
vn -0.9667 0.2364 0.0983
vn 0.5462 -0.7676 -0.3353
vn 0.3493 -0.8686 -0.3514
vn 0.6579 -0.5795 -0.4809
vn -0.6253 0.6527 0.4277
vn -0.6458 0.6900 0.3270
vn -0.8195 0.3943 0.4159
vn -0.7234 0.4650 0.5104
vn -0.0000 0.8813 0.4726
vn -0.5157 0.7475 0.4187
vn -0.4994 0.6467 0.5765
vn -0.0000 0.7364 0.6765
vn 0.3170 -0.8402 0.4401
vn 0.1560 -0.9100 0.3841
vn 0.2061 -0.9535 0.2197
vn 0.3061 -0.8964 0.3207
vn 0.3110 -0.8763 0.3679
vn 0.3719 -0.8205 0.4342
vn -0.7816 0.5905 -0.2010
vn -0.5828 0.6956 -0.4200
vn -0.5974 0.5778 -0.5561
vn -0.8823 0.3896 -0.2640
vn -0.4209 0.8495 -0.3180
vn -0.8682 0.4935 -0.0523
vn -0.4906 0.7448 0.4523
vn 0.3379 0.9375 -0.0825
vn -0.0000 0.9864 -0.1645
vn 0.5359 0.8297 -0.1566
vn 0.0426 0.9960 -0.0785
vn -0.9994 -0.0000 0.0341
vn -0.9997 -0.0000 -0.0241
vn -0.1310 0.8934 -0.4297
vn 0.3902 0.7667 -0.5099
vn 0.5828 0.6956 -0.4200
vn 0.5974 0.5778 -0.5561
vn 0.3458 0.6906 -0.6352
vn -0.3902 0.7667 -0.5099
vn -0.3069 0.8691 -0.3879
vn -0.0000 0.9655 0.2603
vn -0.5241 0.8185 0.2353
vn -0.5255 0.8022 0.2835
vn -0.6209 0.6758 0.3973
vn -0.4756 0.8272 0.2994
vn -0.3104 0.9496 0.0430
vn -0.3550 0.9346 -0.0245
vn -0.3436 0.9391 -0.0094
vn -0.4656 0.8815 -0.0781
vn -0.4808 0.8732 -0.0802
vn -0.5467 0.5593 0.6231
vn -0.9032 0.3136 0.2929
vn 0.3069 0.8691 -0.3879
vn -0.0000 0.6948 -0.7192
vn -0.0000 0.9939 -0.1105
vn -0.3091 0.9445 -0.1111
vn 0.2978 0.9336 -0.1991
vn 0.2681 0.9228 -0.2766
vn 0.1801 0.8332 -0.5229
vn 0.2421 0.8385 -0.4881
vn 0.2860 0.9152 0.2840
vn 0.6118 0.7551 0.2357
vn 0.6002 0.7666 -0.2280
vn 0.0227 0.9811 0.1920
vn 0.1894 0.9814 -0.0300
vn 0.3817 0.8634 0.3299
vn 0.3872 0.7822 0.4881
vn 0.6802 0.6916 0.2431
vn 0.5132 0.5269 0.6775
vn 0.6694 0.6655 0.3301
vn 0.6372 0.7528 0.1650
vn 0.3386 0.9184 -0.2045
vn 0.3611 0.8765 0.3185
vn 0.3522 0.9277 0.1236
vn 0.3216 0.9202 0.2234
vn 0.2793 0.9217 0.2692
vn 0.6248 0.7717 -0.1184
vn 0.2219 0.9714 -0.0844
vn 0.9632 0.2668 -0.0332
vn 0.9667 0.2364 0.0983
vn 0.9994 -0.0000 0.0341
vn 0.9997 -0.0000 -0.0241
vn 0.8490 0.5171 0.1088
vn 0.7988 0.6015 -0.0133
vn -0.3085 0.9374 -0.1619
vn -0.0550 0.9414 0.3327
vn -0.0252 0.9136 -0.4059
vn -0.2052 0.7133 -0.6702
vn 0.1488 0.8651 -0.4790
vn 0.0216 0.6586 -0.7521
vn 0.3072 0.8199 -0.4830
vn 0.2797 0.6292 -0.7252
vn 0.4598 0.7835 -0.4180
vn 0.5351 0.6062 -0.5884
vn 0.7161 0.6620 -0.2212
vn 0.2804 0.9090 0.3086
vn 0.3284 0.7594 0.5616
vn 0.2744 0.9154 0.2944
vn 0.2751 0.7534 0.5972
vn 0.3078 0.9019 0.3031
vn 0.1799 0.7956 0.5785
vn 0.4955 0.8267 0.2664
vn 0.5008 0.8425 0.1986
vn 0.4107 0.8725 0.2647
vn 0.6788 0.7192 0.1483
vn 0.2843 0.9078 -0.3084
vn 0.2651 0.9562 -0.1241
vn 0.2292 0.9152 0.3316
vn 0.1971 0.9129 0.3575
vn 0.0638 0.9542 0.2924
vn -0.0147 0.9995 -0.0265
vn 0.2867 0.9267 -0.2429
vn 0.3234 0.9364 -0.1362
vn 0.3171 0.8585 -0.4029
vn 0.3459 0.8321 0.4336
vn 0.2932 0.8241 0.4847
vn 0.1533 0.8721 0.4648
vn 0.9372 0.3306 0.1109
vn 0.7882 0.6149 -0.0243
vn 0.7116 0.6753 0.1942
vn 0.2881 0.8911 0.3507
vn 0.6272 0.7779 0.0372
vn 0.6458 0.6900 0.3270
vn 0.6253 0.6527 0.4277
vn 0.7234 0.4650 0.5104
vn 0.8195 0.3943 0.4159
vn 0.5157 0.7475 0.4187
vn 0.4994 0.6467 0.5765
vn -0.3061 -0.8964 0.3207
vn -0.2061 -0.9535 0.2197
vn -0.1560 -0.9100 0.3841
vn -0.3170 -0.8402 0.4401
vn -0.3155 0.7932 -0.5208
vn -0.2942 0.8961 -0.3323
vn -0.3719 -0.8205 0.4342
vn -0.3110 -0.8763 0.3679
vn 0.7816 0.5905 -0.2010
vn 0.8823 0.3896 -0.2640
vn 0.4209 0.8495 -0.3180
vn 0.8682 0.4935 -0.0523
vn 0.4906 0.7448 0.4523
vn 0.3295 -0.7989 0.5031
vn 0.5482 -0.7514 0.3672
vn 0.5392 -0.6975 0.4720
vn 0.5241 0.8185 0.2353
vn 0.6209 0.6758 0.3973
vn 0.5255 0.8022 0.2835
vn 0.4756 0.8272 0.2994
vn 0.3104 0.9496 0.0430
vn 0.3550 0.9346 -0.0245
vn 0.3436 0.9391 -0.0094
vn 0.4656 0.8815 -0.0781
vn 0.4808 0.8732 -0.0802
vn 0.5467 0.5593 0.6231
vn -0.3181 -0.9408 0.1170
vn -0.1417 -0.9898 0.0122
vn 0.2971 -0.9478 0.1160
vn 0.2692 -0.9369 0.2228
vn 0.2238 -0.8580 0.4624
vn 0.2772 -0.8870 0.3693
vn 0.2899 -0.9098 -0.2968
vn 0.5989 -0.7645 -0.2384
vn 0.5924 -0.7759 0.2168
vn 0.1417 -0.9898 0.0122
vn -0.0000 -0.9999 0.0101
vn -0.0000 -0.9439 0.3302
vn 0.0349 -0.9809 -0.1915
vn 0.2036 -0.9790 0.0001
vn 0.3961 -0.8644 -0.3095
vn 0.4088 -0.7840 -0.4672
vn 0.7026 -0.6757 -0.2230
vn 0.5356 -0.5163 -0.6683
vn 0.6399 -0.6754 -0.3666
vn 0.5939 -0.7898 -0.1533
vn 0.3209 -0.9263 0.1975
vn 0.2956 -0.9498 -0.1022
vn -0.0000 -0.9307 -0.3658
vn -0.0000 -0.6336 -0.7737
vn 0.2866 -0.9548 -0.0794
vn 0.2360 -0.9492 -0.2082
vn 0.2241 -0.9419 -0.2503
vn 0.5201 -0.8526 0.0496
vn -0.0081 -0.9982 -0.0601
vn 0.6668 -0.7339 0.1294
vn 0.4637 -0.8801 0.1024
vn 0.8396 -0.5257 -0.1369
vn 0.8821 -0.4612 -0.0956
vn 0.5970 -0.8022 0.0118
vn 0.8335 -0.5429 -0.1031
vn 0.7732 -0.6341 0.0083
vn 0.8328 -0.5526 0.0316
vn -0.2722 -0.9473 0.1686
vn -0.0265 -0.9451 -0.3256
vn 0.0142 -0.9128 0.4082
vn -0.1813 -0.7097 0.6808
vn 0.1762 -0.8649 0.4700
vn 0.0402 -0.6594 0.7507
vn 0.3224 -0.8229 0.4678
vn 0.2905 -0.6374 0.7136
vn 0.4612 -0.7917 0.4007
vn 0.5359 -0.6181 0.5751
vn 0.7037 -0.6798 0.2066
vn 0.3262 -0.8980 -0.2954
vn 0.3642 -0.7691 -0.5252
vn 0.3231 -0.9020 -0.2862
vn 0.3171 -0.7686 -0.5557
vn 0.3429 -0.8876 -0.3076
vn 0.2044 -0.8121 -0.5465
vn 0.4786 -0.8396 -0.2570
vn 0.7762 -0.5458 -0.3157
vn 0.7830 -0.6217 -0.0214
vn 0.6352 -0.7609 -0.1328
vn 0.7159 -0.6716 0.1912
vn -0.0000 -0.9614 0.2753
vn -0.0000 -0.9750 0.2223
vn 0.3178 -0.9232 0.2161
vn 0.2136 -0.9739 0.0767
vn 0.3060 -0.9513 0.0383
vn 0.2166 -0.9194 -0.3283
vn 0.1078 -0.8271 -0.5517
vn -0.0575 -0.8530 -0.5187
vn 0.1205 -0.8811 -0.4574
vn 0.0337 -0.9992 0.0215
vn 0.2916 -0.9280 0.2318
vn 0.3332 -0.9420 0.0411
vn 0.3355 -0.8997 0.2793
vn -0.0830 -0.9965 0.0036
vn 0.3752 -0.8449 -0.3812
vn 0.3455 -0.8489 -0.3999
vn 0.1984 -0.8936 -0.4027
vn 0.7662 -0.6418 0.0315
vn 0.5234 -0.7771 -0.3496
vn -0.0000 -0.8720 -0.4895
vn 0.6074 -0.7727 -0.1843
vn 0.6777 -0.7078 -0.1993
vn 0.3013 -0.8175 -0.4909
vn 0.2011 -0.8034 -0.5605
vn 0.7525 -0.5518 -0.3595
vn 0.5633 -0.7770 -0.2812
vn 0.5659 -0.7070 -0.4241
vn 0.8554 -0.4491 -0.2581
vn -0.3493 -0.8686 -0.3514
vn -0.5462 -0.7676 -0.3353
vn -0.6579 -0.5795 -0.4809
vn -0.0000 -0.7666 0.6421
vn -0.2270 -0.7888 0.5712
vn -0.3295 -0.7989 0.5031
vn -0.5392 -0.6975 0.4720
vn -0.5482 -0.7514 0.3672
vn 0.4081 -0.8634 0.2967
vn 0.7384 -0.6554 0.1588
vn 0.8516 -0.5223 0.0447
vn 0.4440 -0.8182 -0.3652
vn -0.0000 -0.9728 0.2316
vn 0.3059 -0.9406 -0.1472
vn 0.3243 -0.9305 -0.1702
vn 0.2870 -0.9443 -0.1608
vn -0.1040 -0.8564 -0.5058
vn 0.8207 -0.5219 0.2327
vn 0.2086 0.7070 -0.6758
vn -0.0000 -0.9479 -0.3186
vn -0.0000 -0.8847 -0.4662
vn 0.5550 -0.7774 -0.2961
vn 0.5038 -0.7979 -0.3311
vn 0.4354 -0.8544 -0.2835
vn 0.2871 -0.9579 0.0027
vn 0.2593 -0.9609 -0.0972
vn 0.3548 -0.9318 0.0773
vn 0.3380 -0.9391 0.0611
vn 0.4845 -0.8667 0.1188
vn 0.5043 -0.8554 0.1186
vn 0.5697 -0.5333 -0.6254
vn 0.8504 -0.5033 -0.1534
vn -0.0000 -0.9585 0.2850
vn -0.0000 -0.9895 0.1448
vn -0.2971 -0.9478 0.1160
vn -0.2772 -0.8870 0.3693
vn -0.2238 -0.8580 0.4624
vn -0.2692 -0.9369 0.2228
vn -0.2899 -0.9098 -0.2968
vn -0.5924 -0.7759 0.2168
vn -0.5989 -0.7645 -0.2384
vn -0.0349 -0.9809 -0.1915
vn -0.4088 -0.7840 -0.4672
vn -0.3961 -0.8644 -0.3095
vn -0.2036 -0.9790 0.0001
vn -0.7026 -0.6757 -0.2230
vn -0.6399 -0.6754 -0.3666
vn -0.5356 -0.5163 -0.6683
vn -0.5939 -0.7898 -0.1533
vn -0.2956 -0.9498 -0.1022
vn -0.3209 -0.9263 0.1975
vn -0.2866 -0.9548 -0.0794
vn -0.2241 -0.9419 -0.2503
vn -0.2360 -0.9492 -0.2082
vn -0.5201 -0.8526 0.0496
vn -0.4637 -0.8801 0.1024
vn -0.6668 -0.7339 0.1294
vn 0.0081 -0.9982 -0.0601
vn -0.8396 -0.5257 -0.1369
vn -0.5970 -0.8022 0.0118
vn -0.8821 -0.4612 -0.0956
vn -0.8335 -0.5429 -0.1031
vn -0.8328 -0.5526 0.0316
vn -0.7732 -0.6341 0.0083
vn 0.2722 -0.9473 0.1686
vn 0.0265 -0.9451 -0.3256
vn 0.3181 -0.9408 0.1170
vn -0.0142 -0.9128 0.4082
vn 0.1813 -0.7097 0.6808
vn -0.1762 -0.8649 0.4700
vn -0.0402 -0.6594 0.7507
vn -0.3224 -0.8229 0.4678
vn -0.2905 -0.6374 0.7136
vn -0.4612 -0.7917 0.4007
vn -0.5359 -0.6181 0.5751
vn -0.7037 -0.6798 0.2066
vn -0.3262 -0.8980 -0.2954
vn -0.3231 -0.9020 -0.2862
vn -0.3642 -0.7691 -0.5252
vn -0.3429 -0.8876 -0.3076
vn -0.3171 -0.7686 -0.5557
vn -0.2044 -0.8121 -0.5465
vn -0.4786 -0.8396 -0.2570
vn -0.7762 -0.5458 -0.3157
vn -0.6352 -0.7609 -0.1328
vn -0.7830 -0.6217 -0.0214
vn -0.7159 -0.6716 0.1912
vn -0.3178 -0.9232 0.2161
vn -0.3060 -0.9513 0.0383
vn -0.2136 -0.9739 0.0767
vn -0.2166 -0.9194 -0.3283
vn -0.1205 -0.8811 -0.4574
vn 0.0575 -0.8530 -0.5187
vn -0.1078 -0.8271 -0.5517
vn -0.0337 -0.9992 0.0215
vn -0.2916 -0.9280 0.2318
vn -0.3332 -0.9420 0.0411
vn -0.3355 -0.8997 0.2793
vn 0.0830 -0.9965 0.0036
vn -0.3752 -0.8449 -0.3812
vn -0.3455 -0.8489 -0.3999
vn -0.1984 -0.8936 -0.4027
vn -0.7662 -0.6418 0.0315
vn -0.5234 -0.7771 -0.3496
vn -0.6039 -0.7794 -0.1668
vn -0.6777 -0.7078 -0.1993
vn -0.2011 -0.8034 -0.5605
vn -0.3013 -0.8175 -0.4909
vn -0.5659 -0.7070 -0.4241
vn -0.5511 -0.7826 -0.2895
vn -0.7539 -0.5300 -0.3884
vn 0.2270 -0.7888 0.5712
vn -0.4081 -0.8634 0.2967
vn -0.7384 -0.6554 0.1588
vn -0.8516 -0.5223 0.0447
vn -0.4440 -0.8182 -0.3652
vn -0.3059 -0.9406 -0.1472
vn -0.3243 -0.9305 -0.1702
vn -0.2870 -0.9443 -0.1608
vn 0.1040 -0.8564 -0.5058
vn -0.8207 -0.5219 0.2327
vn -0.2086 0.7070 -0.6758
vn -0.5550 -0.7774 -0.2961
vn -0.5038 -0.7979 -0.3311
vn -0.4354 -0.8544 -0.2835
vn -0.2871 -0.9579 0.0027
vn -0.2593 -0.9609 -0.0972
vn -0.3548 -0.9318 0.0773
vn -0.3380 -0.9391 0.0611
vn -0.4845 -0.8667 0.1188
vn -0.5043 -0.8554 0.1186
vn -0.5697 -0.5333 -0.6254
vn -0.8745 -0.4249 -0.2340
vn -0.8504 -0.5033 -0.1534
vn -0.9998 -0.0000 -0.0177
vn -0.9997 -0.0000 -0.0227
vn -0.4690 -0.0000 -0.8832
vn -0.5304 -0.0000 -0.8478
vn 0.9998 -0.0000 -0.0177
vn 0.9997 -0.0000 -0.0227
vn 0.5129 -0.0000 0.8585
vn 0.5692 -0.0000 0.8222
vn 0.1965 -0.0000 0.9805
vn 0.2520 -0.0000 0.9677
vn -0.0698 -0.0000 0.9976
vn -0.0052 -0.0000 1.0000
vn -0.4273 -0.0000 0.9041
vn -0.3363 -0.0000 0.9417
vn -0.9993 -0.0000 -0.0373
vn -0.9979 -0.0000 -0.0647
vn -0.3592 -0.0000 -0.9333
vn -0.2863 -0.0000 -0.9582
vn -0.0691 -0.0000 -0.9976
vn -0.0100 -0.0000 -0.9999
vn 0.1663 -0.0000 -0.9861
vn 0.2131 -0.0000 -0.9770
vn 0.4690 -0.0000 -0.8832
vn 0.5304 -0.0000 -0.8478
vn -0.5692 -0.0000 0.8222
vn -0.5129 -0.0000 0.8585
vn -0.2520 -0.0000 0.9677
vn -0.1965 -0.0000 0.9805
vn 0.0052 -0.0000 1.0000
vn 0.0698 -0.0000 0.9976
vn 0.3363 -0.0000 0.9417
vn 0.4273 -0.0000 0.9041
vn 0.9979 -0.0000 -0.0647
vn 0.9993 -0.0000 -0.0373
vn 0.2863 -0.0000 -0.9582
vn 0.3592 -0.0000 -0.9333
vn 0.0100 -0.0000 -0.9999
vn 0.0691 -0.0000 -0.9976
vn -0.2131 -0.0000 -0.9770
vn -0.1663 -0.0000 -0.9861
vn -0.0764 0.9755 -0.2064
vn -0.3458 0.6906 -0.6352
vt 0.157435 0.540963
vt 0.169048 0.577828
vt 0.140564 0.587002
vt 0.138596 0.555507
vt 0.140966 0.693112
vt 0.121516 0.729877
vt 0.110982 0.674065
vt 0.252340 0.853909
vt 0.252340 0.718696
vt 0.265287 0.718696
vt 0.271449 0.854726
vt 0.214716 0.643071
vt 0.203147 0.656762
vt 0.200963 0.625378
vt 0.209939 0.607253
vt 0.241698 0.416961
vt 0.229910 0.419465
vt 0.232125 0.377613
vt 0.112001 0.507957
vt 0.134995 0.473273
vt 0.121698 0.553829
vt 0.252340 0.365059
vt 0.252340 0.413385
vt 0.140790 0.354732
vt 0.149766 0.423876
vt 0.118363 0.435054
vt 0.212603 0.459092
vt 0.234258 0.463163
vt 0.238474 0.617176
vt 0.220046 0.541522
vt 0.299758 0.750418
vt 0.328616 0.777456
vt 0.339266 0.857266
vt 0.101807 0.671349
vt 0.089191 0.652534
vt 0.102326 0.641676
vt 0.212492 0.711040
vt 0.207905 0.676646
vt 0.224921 0.719571
vt 0.199253 0.731463
vt 0.204923 0.750418
vt 0.172870 0.756182
vt 0.176065 0.777456
vt 0.148500 0.763846
vt 0.147900 0.786314
vt 0.134613 0.756324
vt 0.128969 0.776057
vt 0.112346 0.742492
vt 0.207776 0.676798
vt 0.190191 0.689481
vt 0.187633 0.667950
vt 0.168750 0.695047
vt 0.168240 0.672985
vt 0.144138 0.671306
vt 0.112494 0.633271
vt 0.200377 0.417891
vt 0.209987 0.430663
vt 0.198437 0.453134
vt 0.252340 0.480419
vt 0.252340 0.438174
vt 0.200630 0.589911
vt 0.195667 0.537046
vt 0.180019 0.437974
vt 0.197433 0.504806
vt 0.183870 0.482783
vt 0.122501 0.606582
vt 0.116807 0.595174
vt 0.176551 0.533130
vt 0.185670 0.580513
vt 0.186002 0.636678
vt 0.168382 0.640035
vt 0.139234 0.630077
vt 0.092530 0.484746
vt 0.089766 0.511013
vt 0.096652 0.577533
vt 0.412151 0.484746
vt 0.395980 0.426991
vt 0.405149 0.418212
vt 0.108700 0.426991
vt 0.107858 0.462956
vt 0.157282 0.472154
vt 0.109508 0.539284
vt 0.088043 0.549293
vt 0.696132 0.190022
vt 0.718446 0.076010
vt 0.638596 0.255811
vt 0.151918 0.268564
vt 0.125987 0.345764
vt 0.112170 0.338172
vt 0.138596 0.255811
vt 0.252340 0.146192
vt 0.224948 0.161412
vt 0.218446 0.076010
vt 0.252340 0.055130
vt 0.665415 0.857266
vt 0.733232 0.854726
vt 0.704923 0.750418
vt 0.676065 0.777456
vt 0.647900 0.786314
vt 0.627563 0.837185
vt 0.102065 0.763888
vt 0.114872 0.813061
vt 0.112661 0.873644
vt 0.090914 0.787095
vt 0.100724 0.707275
vt 0.216682 0.418076
vt 0.266207 0.617176
vt 0.252340 0.626553
vt 0.270423 0.463163
vt 0.239394 0.718696
vt 0.233232 0.854726
vt 0.377118 0.837185
vt 0.389809 0.813061
vt 0.392020 0.873644
vt 0.347703 0.920495
vt 0.127563 0.837185
vt 0.252340 0.237255
vt 0.223569 0.239940
vt 0.225422 0.158632
vt 0.195643 0.253366
vt 0.196963 0.191373
vt 0.224781 0.159901
vt 0.162066 0.288945
vt 0.196874 0.191840
vt 0.209242 0.394955
vt 0.099532 0.418212
vt 0.356780 0.786314
vt 0.252340 0.942004
vt 0.279760 0.719571
vt 0.347246 0.540963
vt 0.366084 0.555507
vt 0.364117 0.587002
vt 0.335633 0.577828
vt 0.363714 0.693112
vt 0.393698 0.674065
vt 0.383165 0.729877
vt 0.289965 0.643071
vt 0.294742 0.607253
vt 0.303718 0.625378
vt 0.301534 0.656762
vt 0.262983 0.416961
vt 0.272556 0.377613
vt 0.274771 0.419465
vt 0.392680 0.507957
vt 0.382983 0.553829
vt 0.369686 0.473273
vt 0.363891 0.354732
vt 0.386317 0.435054
vt 0.354915 0.423876
vt 0.292077 0.459092
vt 0.284635 0.541522
vt 0.415490 0.652534
vt 0.416638 0.549293
vt 0.402874 0.671349
vt 0.402355 0.641676
vt 0.292188 0.711040
vt 0.296776 0.676646
vt 0.305428 0.731463
vt 0.331811 0.756182
vt 0.356181 0.763846
vt 0.370067 0.756324
vt 0.375712 0.776057
vt 0.392335 0.742492
vt 0.296904 0.676798
vt 0.317048 0.667950
vt 0.314490 0.689481
vt 0.336441 0.672985
vt 0.335930 0.695047
vt 0.360542 0.671306
vt 0.392187 0.633271
vt 0.304304 0.417891
vt 0.306244 0.453134
vt 0.294694 0.430663
vt 0.304051 0.589911
vt 0.309014 0.537046
vt 0.324662 0.437974
vt 0.320811 0.482783
vt 0.307247 0.504806
vt 0.382180 0.606582
vt 0.387874 0.595174
vt 0.328130 0.533130
vt 0.319010 0.580513
vt 0.318679 0.636678
vt 0.336299 0.640035
vt 0.365446 0.630077
vt 0.414915 0.511013
vt 0.408029 0.577533
vt 0.396822 0.462956
vt 0.347398 0.472154
vt 0.395173 0.539284
vt 0.197318 0.192321
vt 0.378693 0.345764
vt 0.352763 0.268564
vt 0.366085 0.255811
vt 0.392511 0.338172
vt 0.279733 0.161412
vt 0.286234 0.076010
vt 0.828616 0.777456
vt 0.799758 0.750418
vt 0.771449 0.854726
vt 0.839266 0.857266
vt 0.165415 0.857266
vt 0.877118 0.837185
vt 0.856780 0.786314
vt 0.402616 0.763888
vt 0.413767 0.787095
vt 0.403957 0.707275
vt 0.287999 0.418076
vt 0.656978 0.920495
vt 0.614872 0.813061
vt 0.612661 0.873644
vt 0.279259 0.158632
vt 0.281112 0.239940
vt 0.279900 0.159901
vt 0.307718 0.191373
vt 0.309038 0.253366
vt 0.307807 0.191840
vt 0.342615 0.288945
vt 0.295439 0.394955
vt 0.724921 0.719571
vt 0.739394 0.718696
vt 0.657435 0.540963
vt 0.638596 0.555507
vt 0.640564 0.587002
vt 0.669048 0.577828
vt 0.640966 0.693112
vt 0.610982 0.674065
vt 0.621516 0.729877
vt 0.765287 0.718696
vt 0.752340 0.718696
vt 0.752340 0.853909
vt 0.714716 0.643071
vt 0.709939 0.607253
vt 0.700963 0.625378
vt 0.703147 0.656762
vt 0.740131 0.415653
vt 0.732125 0.377613
vt 0.729188 0.412297
vt 0.612001 0.507957
vt 0.621698 0.553829
vt 0.634995 0.473273
vt 0.752340 0.414861
vt 0.752340 0.365059
vt 0.640790 0.354732
vt 0.618363 0.435054
vt 0.649766 0.423876
vt 0.712603 0.459092
vt 0.720046 0.541522
vt 0.738474 0.617176
vt 0.731691 0.467120
vt 0.589766 0.511013
vt 0.588043 0.549293
vt 0.609508 0.539284
vt 0.601807 0.671349
vt 0.602326 0.641676
vt 0.589191 0.652534
vt 0.712492 0.711040
vt 0.707905 0.676646
vt 0.699253 0.731463
vt 0.672870 0.756182
vt 0.648499 0.763846
vt 0.634613 0.756324
vt 0.628969 0.776057
vt 0.612346 0.742492
vt 0.707776 0.676798
vt 0.687633 0.667950
vt 0.690191 0.689481
vt 0.668240 0.672985
vt 0.668750 0.695047
vt 0.644138 0.671306
vt 0.612494 0.633271
vt 0.700377 0.417891
vt 0.698437 0.453134
vt 0.709987 0.430663
vt 0.743256 0.469631
vt 0.752340 0.471355
vt 0.752340 0.437112
vt 0.700630 0.589911
vt 0.695667 0.537046
vt 0.680019 0.437974
vt 0.683870 0.482783
vt 0.697433 0.504806
vt 0.622501 0.606582
vt 0.616807 0.595174
vt 0.676551 0.533130
vt 0.685670 0.580513
vt 0.686002 0.636678
vt 0.668382 0.640035
vt 0.639234 0.630077
vt 0.596652 0.577533
vt 0.723393 0.155786
vt 0.752340 0.055130
vt 0.608700 0.426991
vt 0.607858 0.462956
vt 0.657282 0.472154
vt 0.612170 0.338172
vt 0.625987 0.345764
vt 0.651918 0.268564
vt 0.599532 0.418212
vt 0.786234 0.076010
vt 0.808548 0.190022
vt 0.866085 0.255811
vt 0.752340 0.942004
vt 0.800021 0.931250
vt 0.847703 0.920495
vt 0.892020 0.873644
vt 0.889809 0.813061
vt 0.602065 0.763888
vt 0.600724 0.707275
vt 0.716682 0.418076
vt 0.752340 0.626553
vt 0.590914 0.787095
vt 0.300021 0.931250
vt 0.752340 0.237255
vt 0.752340 0.146192
vt 0.723569 0.239940
vt 0.695643 0.253366
vt 0.662066 0.288945
vt 0.709242 0.394955
vt 0.592530 0.484746
vt 0.847246 0.540963
vt 0.835633 0.577828
vt 0.864117 0.587002
vt 0.866084 0.555507
vt 0.863714 0.693112
vt 0.883165 0.729877
vt 0.893698 0.674065
vt 0.789965 0.643071
vt 0.801534 0.656762
vt 0.803718 0.625378
vt 0.794742 0.607253
vt 0.764550 0.415653
vt 0.775493 0.412297
vt 0.772556 0.377613
vt 0.892680 0.507957
vt 0.869686 0.473273
vt 0.882983 0.553829
vt 0.863891 0.354732
vt 0.854915 0.423876
vt 0.886317 0.435054
vt 0.792077 0.459092
vt 0.772990 0.467120
vt 0.766207 0.617176
vt 0.784635 0.541522
vt 0.914915 0.511013
vt 0.895173 0.539284
vt 0.916638 0.549293
vt 0.902874 0.671349
vt 0.915490 0.652534
vt 0.902355 0.641676
vt 0.792188 0.711040
vt 0.796776 0.676646
vt 0.779760 0.719571
vt 0.805428 0.731463
vt 0.831811 0.756182
vt 0.856181 0.763846
vt 0.870067 0.756324
vt 0.875712 0.776057
vt 0.892335 0.742492
vt 0.796904 0.676798
vt 0.814490 0.689481
vt 0.817048 0.667950
vt 0.835930 0.695047
vt 0.836441 0.672985
vt 0.860542 0.671306
vt 0.892187 0.633271
vt 0.804304 0.417891
vt 0.794694 0.430663
vt 0.806244 0.453134
vt 0.761425 0.469631
vt 0.804051 0.589911
vt 0.809014 0.537046
vt 0.824662 0.437974
vt 0.807247 0.504806
vt 0.820811 0.482783
vt 0.882180 0.606582
vt 0.887874 0.595174
vt 0.828130 0.533130
vt 0.819010 0.580513
vt 0.818679 0.636678
vt 0.836299 0.640035
vt 0.865446 0.630077
vt 0.908029 0.577533
vt 0.781288 0.155786
vt 0.895980 0.426991
vt 0.896822 0.462956
vt 0.847398 0.472154
vt 0.852763 0.268564
vt 0.878693 0.345764
vt 0.892511 0.338172
vt 0.704659 0.931250
vt 0.902616 0.763888
vt 0.903957 0.707275
vt 0.787999 0.418076
vt 0.913767 0.787095
vt 0.204659 0.931250
vt 0.781112 0.239940
vt 0.809038 0.253366
vt 0.842615 0.288945
vt 0.795439 0.394955
vt 0.905149 0.418212
vt 0.912151 0.484746
vt 0.307362 0.192321
vt 0.278772 0.160953
vt 0.156978 0.920495
vt 0.225909 0.160953
s 1
usemtl incognito_mask_mp_1
f 35/1/1 10/2/2 9/3/3 36/4/4
f 25/5/5 19/6/6 1/7/7
f 86/8/8 20/9/9 175/10/10 168/11/11
f 57/12/12 64/13/13 4/14/14 3/15/15
f 39/16/16 46/17/17 40/18/18
f 28/19/19 29/20/20 36/4/4 26/21/21
f 39/16/16 37/22/22 76/23/23
f 51/24/24 54/25/25 53/26/26
f 77/27/27 45/28/28 44/29/29 32/30/30
f 168/11/11 147/31/31 148/32/32 172/33/33
f 93/34/34 82/35/35 94/36/36
f 14/37/37 21/38/38 57/12/12 58/39/39
f 15/40/40 14/37/37 58/39/39 59/41/41
f 16/42/42 15/40/40 59/41/41 60/43/43
f 17/44/44 16/42/42 60/43/43 61/45/45
f 18/46/46 17/44/44 61/45/45 62/47/47
f 19/6/6 18/46/46 62/47/47 63/48/48
f 21/38/38 22/49/49 64/13/13 57/12/12
f 22/49/49 23/50/50 65/51/51 64/13/13
f 23/50/50 24/52/52 66/53/53 65/51/51
f 24/52/52 25/5/5 67/54/54 66/53/53
f 25/5/5 1/7/7 56/55/55 67/54/54
f 42/56/56 79/57/57 77/27/27 43/58/58
f 80/59/59 39/16/16 68/60/60
f 12/61/61 33/62/62 32/30/30 3/15/15
f 55/63/63 43/58/58 81/64/64 31/65/65
f 36/4/4 9/3/3 8/66/66 26/21/21
f 26/21/21 8/66/66 70/67/67
f 34/68/68 11/69/69 10/2/2 35/1/1
f 33/62/62 12/61/61 11/69/69 34/68/68
f 3/15/15 32/30/30 44/29/29 57/12/12
f 4/14/14 64/13/13 65/51/51 5/70/70
f 5/70/70 65/51/51 66/53/53 6/71/71
f 6/71/71 66/53/53 67/54/54 7/72/72
f 7/72/72 67/54/54 56/55/55 8/66/66
f 89/73/73 184/74/74 276/73/75
f 56/55/55 70/67/67 8/66/66
f 69/75/76 70/67/67 56/55/55 94/36/36
f 173/76/77 162/77/78 288/78/79 369/76/80
f 75/79/81 53/26/26 90/80/82
f 53/26/26 54/25/25 30/81/83 29/20/20
f 54/25/25 55/63/63 31/65/65 30/81/83
f 27/82/84 26/21/21 70/67/67 69/75/76
f 2/83/85 27/82/84 69/75/76
f 258/84/86 188/85/87 187/86/88
f 73/87/89 74/88/90 186/89/91 187/90/92
f 52/91/93 71/92/94 188/93/95 199/94/96
f 29/20/20 28/19/19 90/80/82 53/26/26
f 274/95/97 275/96/98 245/97/99 246/98/100
f 274/95/97 246/98/100 247/99/101 273/100/102
f 84/101/103 85/102/104 180/103/105 181/104/106
f 62/47/107 85/102/104 84/101/103 63/48/48
f 84/101/103 82/35/35 92/105/108
f 93/34/34 92/105/108 82/35/35
f 68/60/60 39/16/16 76/23/23
f 45/28/28 46/17/17 39/16/16
f 43/58/58 77/27/27 32/30/30
f 45/28/28 78/106/109 46/17/17
f 79/57/57 78/106/109 45/28/28
f 77/27/27 79/57/57 45/28/28
f 37/22/22 39/16/16 40/18/18
f 134/107/110 38/108/111 80/59/59 135/109/112
f 14/37/37 15/40/40 23/50/50 22/49/49 21/38/38
f 23/50/50 15/40/40 16/42/42 24/52/52
f 24/52/52 16/42/42 17/44/44 25/5/5
f 25/5/5 17/44/44 18/46/46
f 18/46/46 19/6/6 25/5/5
f 44/29/29 45/28/28 80/59/59 38/108/111
f 20/9/9 91/110/113 38/108/111
f 26/21/21 27/82/84 28/19/19
f 36/4/4 29/20/20 30/81/83 35/1/1
f 35/1/1 30/81/83 31/65/65 34/68/68
f 34/68/68 31/65/65 81/64/64 33/62/62
f 33/62/62 81/64/64 32/30/30
f 81/64/64 43/58/58 32/30/30
f 184/74/74 2/83/85 183/83/114
f 2/83/85 82/35/35 269/35/115 183/83/114
f 91/110/113 20/9/9 86/8/8 83/111/116
f 172/33/33 171/112/117 170/113/118 283/114/119 282/115/120
f 82/35/35 181/104/106 269/35/115
f 87/116/121 85/102/104 62/47/107 61/45/122
f 47/117/123 48/118/124 71/119/94 52/91/93
f 48/118/124 49/120/125 72/121/126 71/122/94
f 49/120/125 50/123/127 73/87/89 72/124/126
f 50/123/127 51/24/24 74/88/90 73/87/89
f 51/24/24 53/26/26 75/79/81 74/88/90
f 50/123/128 55/63/63 54/25/25 51/24/24
f 42/56/56 43/58/58 55/63/63
f 49/120/129 41/125/130 42/56/56 50/123/128
f 50/123/128 42/56/56 55/63/63
f 40/18/131 41/125/130 49/120/129 48/118/132
f 40/18/18 46/17/17 78/106/109 41/125/133
f 41/125/133 78/106/109 79/57/57 42/56/56
f 74/88/90 75/79/81 185/126/134 186/89/91
f 90/80/82 28/19/19 89/73/73
f 172/33/33 148/32/32 149/127/135 171/112/117
f 75/79/81 90/80/82 89/73/73
f 86/8/8 13/128/136 83/111/116
f 80/59/59 45/28/28 39/16/16
f 37/22/137 40/18/131 48/118/132 47/117/137
f 1/7/7 93/34/34 94/36/36 56/55/55
f 1/7/7 19/6/6 63/48/48 92/105/108 93/34/34
f 63/48/48 84/101/103 92/105/108
f 82/35/35 69/75/76 94/36/36
f 168/11/11 175/10/10 146/129/138 147/31/31
f 127/130/139 128/131/140 103/132/141 104/133/142
f 117/134/143 95/135/144 112/136/145
f 13/128/136 86/8/8 168/11/11
f 145/137/146 97/138/147 98/139/148 152/140/149
f 129/141/150 130/142/151 136/143/152
f 120/144/153 118/145/154 128/131/140 121/146/155
f 129/141/150 76/23/23 37/22/22
f 140/147/156 141/148/157 142/149/158
f 163/150/159 124/151/160 134/107/110 135/109/112
f 167/152/161 96/153/162 286/153/163 363/152/164
f 177/154/165 178/155/166 167/152/161
f 107/156/167 146/129/138 145/137/146 113/157/168
f 108/158/169 147/31/170 146/129/138 107/156/167
f 109/159/171 148/32/172 147/31/170 108/158/169
f 110/160/173 149/127/174 148/32/172 109/159/171
f 111/161/175 150/162/176 149/127/174 110/160/173
f 112/136/145 151/163/177 150/162/176 111/161/175
f 113/157/168 145/137/146 152/140/149 114/164/178
f 114/164/178 152/140/149 153/165/179 115/166/180
f 115/166/180 153/165/179 154/167/181 116/168/182
f 116/168/182 154/167/181 155/169/183 117/134/143
f 117/134/143 155/169/183 144/170/184 95/135/144
f 132/171/185 133/172/186 163/150/159 165/173/187
f 80/59/59 68/60/60 129/141/150
f 106/174/188 97/138/147 124/151/160 125/175/189
f 143/176/190 123/177/191 166/178/192 133/172/186
f 128/131/140 118/145/154 102/179/193 103/132/141
f 118/145/154 157/180/194 102/179/193
f 126/181/195 127/130/139 104/133/142 105/182/196
f 125/175/189 126/181/195 105/182/196 106/174/188
f 97/138/147 145/137/146 134/107/110 124/151/160
f 98/139/148 99/183/197 153/165/179 152/140/149
f 99/183/197 100/184/198 154/167/181 153/165/179
f 100/184/198 101/185/199 155/169/183 154/167/181
f 101/185/199 102/179/193 144/170/184 155/169/183
f 287/186/200 173/76/77 369/76/80
f 144/170/184 102/179/193 157/180/194
f 156/187/201 178/155/166 144/170/184 157/180/194
f 162/77/78 174/188/202 141/148/157
f 141/148/157 121/146/155 122/189/203 142/149/158
f 142/149/158 122/189/203 123/177/191 143/176/190
f 119/190/204 156/187/201 157/180/194 118/145/154
f 96/153/162 156/187/201 119/190/204
f 188/93/95 72/191/126 73/87/89 187/90/92
f 161/192/205 160/193/206 290/194/207 289/195/208
f 158/196/209 52/91/93 199/94/96 291/197/210
f 121/146/155 141/148/157 174/188/202 120/144/153
f 343/198/211 342/199/212 368/200/213 367/201/214
f 88/202/215 87/116/121 61/45/122 60/43/216
f 367/201/214 366/203/217 344/204/218 343/198/211
f 170/113/118 169/205/219 284/206/220 283/114/119
f 150/162/221 151/163/177 169/205/219 170/113/118
f 169/205/219 176/207/222 167/152/161
f 177/154/165 167/152/161 176/207/222
f 68/60/60 76/23/23 129/141/150
f 135/109/112 129/141/150 136/143/152
f 133/172/186 124/151/160 163/150/159
f 135/109/112 136/143/152 164/208/223
f 165/173/187 135/109/112 164/208/223
f 163/150/159 135/109/112 165/173/187
f 37/22/22 130/142/151 129/141/150
f 107/156/167 113/157/168 114/164/178 115/166/180 108/158/169
f 115/166/180 116/168/182 109/159/171 108/158/169
f 116/168/182 117/134/143 110/160/173 109/159/171
f 117/134/143 111/161/175 110/160/173
f 111/161/175 117/134/143 112/136/145
f 57/12/12 44/29/29 91/110/113 58/39/39
f 134/107/110 175/10/10 38/108/111
f 118/145/154 120/144/153 119/190/204
f 128/131/140 127/130/139 122/189/203 121/146/155
f 127/130/139 126/181/195 123/177/191 122/189/203
f 126/181/195 125/175/189 166/178/192 123/177/191
f 125/175/189 124/151/160 166/178/192
f 166/178/192 124/151/160 133/172/186
f 284/206/220 167/152/161 363/152/164
f 179/209/224 274/95/97 273/100/102 271/210/225 180/211/226
f 96/153/162 287/186/200 286/153/163
f 171/112/117 149/127/135 150/162/221 170/113/118
f 47/117/123 52/91/93 158/212/209 137/213/227
f 137/213/227 158/214/209 159/215/228 138/216/229
f 138/216/229 159/217/228 160/193/206 139/218/230
f 139/218/230 160/193/206 161/192/205 140/147/156
f 140/147/156 161/192/205 162/77/78 141/148/157
f 139/218/231 140/147/156 142/149/158 143/176/190
f 132/171/185 143/176/190 133/172/186
f 138/216/232 139/218/231 132/171/185 131/219/233
f 139/218/231 143/176/190 132/171/185
f 130/142/234 137/213/235 138/216/232 131/219/233
f 130/142/151 131/219/236 164/208/223 136/143/152
f 131/219/236 132/171/185 165/173/187 164/208/223
f 162/77/78 161/192/205 289/195/208 288/78/79
f 174/188/202 173/76/77 120/144/153
f 162/77/78 173/76/77 174/188/202
f 80/59/59 129/141/150 135/109/112
f 38/108/111 91/110/113 44/29/29
f 37/22/137 47/117/137 137/213/235 130/142/234
f 95/135/144 144/170/184 178/155/166 177/154/165
f 95/135/144 177/154/165 176/207/222 151/163/177 112/136/145
f 151/163/177 176/207/222 169/205/219
f 167/152/161 178/155/166 156/187/201
f 244/220/237 275/96/98 278/221/238
f 221/222/239 222/223/240 195/224/241 196/225/242
f 211/226/243 182/227/244 205/228/245
f 368/200/213 371/229/246 206/230/247 272/231/248
f 243/232/249 189/233/250 190/234/251 250/235/252
f 225/236/253 226/237/254 232/238/255
f 214/239/256 212/240/257 222/223/240 215/241/258
f 225/236/253 262/242/259 223/243/260
f 237/244/261 239/245/262 240/246/263
f 263/247/264 218/248/265 230/249/266 231/250/267
f 184/251/268 183/252/269 213/253/270 214/239/256
f 280/254/271 281/255/272 269/256/273
f 200/257/274 244/220/237 243/232/249 207/258/275
f 201/259/276 245/97/277 244/220/237 200/257/274
f 202/260/278 246/98/279 245/97/277 201/259/276
f 203/261/280 247/99/281 246/98/279 202/260/278
f 204/262/282 248/263/283 247/99/281 203/261/280
f 205/228/245 249/264/284 248/263/283 204/262/282
f 207/258/275 243/232/249 250/235/252 208/265/285
f 208/265/285 250/235/252 251/266/286 209/267/287
f 209/267/287 251/266/286 252/268/288 210/269/289
f 210/269/289 252/268/288 253/270/290 211/226/243
f 211/226/243 253/270/290 242/271/291 182/227/244
f 228/272/292 229/273/293 263/247/264 265/274/294
f 267/275/295 266/276/296 254/277/297 225/236/253
f 198/278/298 189/233/250 218/248/299 219/279/300
f 241/280/301 217/281/302 268/282/303 229/273/304
f 222/223/240 212/240/257 194/283/305 195/224/241
f 212/240/257 256/284/306 194/283/305
f 220/285/307 221/222/239 196/225/242 197/286/308
f 219/279/300 220/285/307 197/286/308 198/278/298
f 189/233/250 243/232/249 230/249/309 218/248/299
f 190/234/251 191/287/310 251/266/286 250/235/252
f 191/287/310 192/288/311 252/268/288 251/266/286
f 192/288/311 193/289/312 253/270/290 252/268/288
f 193/289/312 194/283/305 242/271/291 253/270/290
f 183/252/269 269/256/273 255/290/313
f 242/271/291 194/283/305 256/284/306
f 255/290/313 281/255/272 242/271/291 256/284/306
f 257/291/314 199/292/315 188/85/87
f 261/293/316 277/294/317 239/245/262
f 239/245/262 215/241/318 216/295/319 240/246/263
f 240/246/263 216/295/319 217/281/302 241/280/301
f 213/253/270 255/290/313 256/284/306 212/240/257
f 183/252/269 255/290/313 213/253/270
f 187/86/88 186/296/320 260/297/321 259/298/322
f 260/297/321 185/299/323 261/293/316
f 258/84/86 187/86/88 259/298/322
f 291/300/324 354/301/325 290/302/326
f 215/241/318 239/245/262 277/294/317 214/239/256
f 368/200/213 13/303/327 375/304/328
f 366/203/217 367/201/214 282/305/329 283/306/330 365/307/331
f 248/263/332 249/264/284 270/308/333 271/210/225
f 270/308/333 279/309/334 269/256/273
f 280/254/271 269/256/273 279/309/334
f 254/277/297 262/242/259 225/236/253
f 231/250/267 225/236/253 232/238/255
f 229/273/293 218/248/265 263/247/264
f 231/250/267 232/238/255 264/310/335
f 265/274/294 231/250/267 264/310/335
f 263/247/264 231/250/267 265/274/294
f 223/243/260 226/237/254 225/236/253
f 224/311/336 266/276/296 267/275/295
f 230/249/266 224/311/336 267/275/295 231/250/267
f 200/257/274 207/258/275 208/265/285 209/267/287 201/259/276
f 209/267/287 210/269/289 202/260/278 201/259/276
f 210/269/289 211/226/243 203/261/280 202/260/278
f 211/226/243 204/262/282 203/261/280
f 204/262/282 211/226/243 205/228/245
f 243/232/249 244/220/237 278/221/238 230/249/309
f 278/221/238 206/230/247 230/249/309
f 212/240/257 214/239/256 213/253/270
f 222/223/240 221/222/239 216/295/337 215/241/258
f 221/222/239 220/285/307 217/281/338 216/295/337
f 220/285/307 219/279/300 268/282/339 217/281/338
f 219/279/300 218/248/299 268/282/339
f 268/282/303 218/248/340 229/273/304
f 270/308/333 181/312/341 271/210/225
f 275/96/98 272/231/248 206/230/247 278/221/238
f 269/256/273 181/312/341 270/308/333
f 168/11/11 375/313/342 13/128/136
f 275/96/98 244/220/237 245/97/99
f 273/100/102 247/99/101 248/263/332 271/210/225
f 233/314/343 238/315/344 257/291/314 234/316/345
f 234/316/345 257/291/314 258/84/86 235/317/346
f 235/317/346 258/84/86 259/298/322 236/318/347
f 236/318/347 259/298/322 260/297/321 237/244/261
f 237/244/261 260/297/321 261/293/316 239/245/262
f 236/318/348 237/244/261 240/246/263 241/280/301
f 228/272/349 241/280/301 229/273/304
f 235/317/350 236/318/348 228/272/349 227/319/351
f 236/318/348 241/280/301 228/272/349
f 226/237/352 234/316/353 235/317/350 227/319/351
f 226/237/254 227/319/354 264/310/335 232/238/255
f 227/319/354 228/272/292 265/274/294 264/310/335
f 185/299/323 276/320/355 261/293/316
f 277/294/317 276/320/355 214/239/256
f 276/320/355 184/251/268 214/239/256
f 261/293/316 276/320/355 277/294/317
f 267/275/295 225/236/253 231/250/267
f 206/230/356 224/311/336 230/249/266
f 223/243/357 233/314/357 234/316/353 226/237/352
f 182/227/244 242/271/291 281/255/272 280/254/271
f 182/227/244 280/254/271 279/309/334 249/264/284 205/228/245
f 249/264/284 279/309/334 270/308/333
f 269/256/273 281/255/272 255/290/313
f 322/321/358 299/322/359 298/323/360 323/324/361
f 312/325/362 307/326/363 285/327/364
f 340/328/365 347/329/366 293/330/367 292/331/368
f 324/332/369 331/333/370 325/334/371
f 315/335/372 316/336/373 323/324/361 313/337/374
f 324/332/369 223/243/260 262/242/259
f 335/338/375 337/339/376 336/340/377
f 358/341/378 330/342/379 329/343/380 319/344/381
f 287/345/382 315/335/372 314/346/383 286/347/384
f 373/348/385 363/349/386 374/350/387
f 302/351/388 308/352/389 340/328/365 341/353/390
f 303/354/391 302/351/388 341/353/390 342/199/392
f 304/355/393 303/354/391 342/199/392 343/198/394
f 305/356/395 304/355/393 343/198/394 344/204/396
f 306/357/397 305/356/395 344/204/396 345/358/398
f 307/326/363 306/357/397 345/358/398 346/359/399
f 308/352/389 309/360/400 347/329/366 340/328/365
f 309/360/400 310/361/401 348/362/402 347/329/366
f 310/361/401 311/363/403 349/364/404 348/362/402
f 311/363/403 312/325/362 350/365/405 349/364/404
f 312/325/362 285/327/364 339/366/406 350/365/405
f 327/367/407 360/368/408 358/341/378 328/369/409
f 361/370/410 324/332/369 254/277/297 266/276/296
f 301/371/411 320/372/412 319/344/413 292/331/368
f 338/373/414 328/369/415 362/374/416 318/375/417
f 323/324/361 298/323/360 297/376/418 313/337/374
f 313/337/374 297/376/418 352/377/419
f 321/378/420 300/379/421 299/322/359 322/321/358
f 320/372/412 301/371/411 300/379/421 321/378/420
f 292/331/368 319/344/413 329/343/422 340/328/365
f 293/330/367 347/329/366 348/362/402 294/380/423
f 294/380/423 348/362/402 349/364/404 295/381/424
f 295/381/424 349/364/404 350/365/405 296/382/425
f 296/382/425 350/365/405 339/366/406 297/376/418
f 286/347/384 351/383/426 363/349/386
f 339/366/406 352/377/419 297/376/418
f 351/383/426 352/377/419 339/366/406 374/350/387
f 199/292/315 353/384/427 291/300/324
f 357/385/428 336/340/377 370/386/429
f 336/340/377 337/339/376 317/387/430 316/336/431
f 337/339/376 338/373/414 318/375/417 317/387/430
f 314/346/383 313/337/374 352/377/419 351/383/426
f 286/347/384 314/346/383 351/383/426
f 290/302/326 355/388/432 356/389/433 289/390/434
f 289/390/434 356/389/433 357/385/428
f 316/336/431 315/335/372 370/386/429 336/340/377
f 274/95/97 376/391/435 275/96/98
f 345/358/436 365/307/331 364/392/437 346/359/399
f 364/392/437 363/349/386 372/393/438
f 373/348/385 372/393/438 363/349/386
f 254/277/297 324/332/369 262/242/259
f 330/342/379 331/333/370 324/332/369
f 328/369/409 358/341/378 319/344/381
f 330/342/379 359/394/439 331/333/370
f 360/368/408 359/394/439 330/342/379
f 358/341/378 360/368/408 330/342/379
f 223/243/260 324/332/369 325/334/371
f 224/311/336 361/370/410 266/276/296
f 329/343/380 330/342/379 361/370/410 224/311/336
f 302/351/388 303/354/391 310/361/401 309/360/400 308/352/389
f 310/361/401 303/354/391 304/355/393 311/363/403
f 311/363/403 304/355/393 305/356/395 312/325/362
f 312/325/362 305/356/395 306/357/397
f 306/357/397 307/326/363 312/325/362
f 340/328/365 329/343/422 371/229/246 341/353/390
f 371/229/246 329/343/422 206/230/247
f 313/337/374 314/346/383 315/335/372
f 323/324/361 316/336/373 317/387/440 322/321/358
f 322/321/358 317/387/440 318/375/441 321/378/420
f 321/378/420 318/375/441 362/374/442 320/372/412
f 320/372/412 362/374/442 319/344/413
f 362/374/416 328/369/415 319/344/443
f 364/392/437 365/307/331 284/395/444
f 368/200/213 341/353/390 371/229/246
f 363/349/386 364/392/437 284/395/444
f 13/303/327 368/200/213 272/231/248
f 13/128/136 376/396/445 83/111/116
f 341/353/390 368/200/213 342/199/212
f 366/203/217 365/307/331 345/358/436 344/204/218
f 233/314/343 332/397/446 353/384/427 238/315/344
f 332/397/446 333/398/447 354/301/325 353/384/427
f 333/398/447 334/399/448 355/388/432 354/301/325
f 334/399/448 335/338/375 356/389/433 355/388/432
f 335/338/375 336/340/377 357/385/428 356/389/433
f 334/399/449 338/373/414 337/339/376 335/338/375
f 327/367/450 328/369/415 338/373/414
f 333/398/451 326/400/452 327/367/450 334/399/449
f 334/399/449 327/367/450 338/373/414
f 325/334/453 326/400/452 333/398/451 332/397/454
f 325/334/371 331/333/370 359/394/439 326/400/455
f 326/400/455 359/394/439 360/368/408 327/367/407
f 288/401/456 357/385/428 369/402/457
f 370/386/429 315/335/372 369/402/457
f 369/402/457 315/335/372 287/345/382
f 357/385/428 370/386/429 369/402/457
f 275/96/98 13/303/327 272/231/248
f 361/370/410 330/342/379 324/332/369
f 206/230/356 329/343/380 224/311/336
f 223/243/357 325/334/453 332/397/454 233/314/357
f 285/327/364 373/348/385 374/350/387 339/366/406
f 285/327/364 307/326/363 346/359/399 372/393/438 373/348/385
f 346/359/399 364/392/437 372/393/438
f 363/349/386 351/383/426 374/350/387
f 3/15/458 189/15/459 198/61/460 12/61/461
f 97/138/462 292/138/463 293/139/464 98/139/465
f 98/139/465 293/139/464 294/183/466 99/183/467
f 99/183/467 294/183/466 295/184/468 100/184/469
f 100/184/469 295/184/468 296/185/470 101/185/471
f 101/185/471 296/185/470 297/179/472 102/179/473
f 102/179/473 297/179/472 298/132/474 103/132/475
f 103/132/475 298/132/474 299/133/476 104/133/477
f 104/133/477 299/133/476 300/182/478 105/182/479
f 105/182/479 300/182/478 301/174/480 106/174/481
f 106/174/481 301/174/480 292/138/463 97/138/462
f 4/14/482 190/14/483 189/15/459 3/15/458
f 5/70/484 191/70/485 190/14/483 4/14/482
f 6/71/486 192/71/487 191/70/485 5/70/484
f 7/72/488 193/72/489 192/71/487 6/71/486
f 8/66/490 194/66/491 193/72/489 7/72/488
f 9/3/492 195/3/493 194/66/491 8/66/490
f 10/2/494 196/2/495 195/3/493 9/3/492
f 11/69/496 197/69/497 196/2/495 10/2/494
f 12/61/461 198/61/460 197/69/497 11/69/496
f 75/79/81 89/73/73 276/73/75 185/126/134
f 238/315/344 353/384/427 199/292/315
f 238/315/344 199/292/315 257/291/314
f 186/296/320 185/299/323 260/297/321
f 357/385/428 288/401/456 289/390/434
f 354/301/325 355/388/432 290/302/326
f 365/307/331 283/306/330 284/395/444
f 181/312/341 180/211/226 271/210/225
f 58/39/39 91/110/113 83/111/116 59/41/498
f 169/205/219 167/152/161 284/206/220
f 119/190/204 120/144/153 287/186/200 96/153/162
f 156/187/201 96/153/162 167/152/161
f 69/75/76 82/35/35 2/83/85
f 84/101/103 181/104/106 82/35/35
f 28/19/19 27/82/84 2/83/85 184/74/74
f 120/144/153 173/76/77 287/186/200
f 28/19/19 184/74/74 89/73/73
f 60/43/216 59/41/498 83/111/116 88/202/215
f 291/197/210 159/403/228 158/404/209
f 179/405/499 180/103/105 85/102/104 87/116/121 88/202/215
f 172/33/33 375/313/342 168/11/11
f 83/111/116 376/396/445 88/202/215
f 367/201/214 375/304/328 282/305/329
f 179/209/224 376/391/435 274/95/97
f 38/108/111 175/10/10 20/9/9
f 145/137/146 146/129/138 175/10/10 134/107/110
f 290/194/207 160/193/206 159/403/228 291/197/210
f 71/406/94 72/191/126 188/93/95
f 353/384/427 354/301/325 291/300/324
f 257/291/314 188/85/87 258/84/86
f 88/202/215 376/396/445 179/405/499
f 282/115/120 375/313/342 172/33/33
f 275/96/98 376/391/435 13/303/327
f 368/200/213 375/304/328 367/201/214
