# Blender 5.0.1
# www.blender.org
mtllib key_mp_1.mtl
o key_mp_1
v -0.007335 -0.000014 0.030951
v -0.006073 -0.000014 0.032528
v -0.006021 -0.000021 0.067098
v -0.002080 -0.000021 0.070514
v 0.004184 -0.000020 0.065390
v 0.004184 -0.000020 0.063287
v 0.004622 -0.000020 0.062324
v 0.003308 -0.000019 0.061097
v 0.003264 -0.000019 0.058776
v 0.004797 -0.000019 0.057068
v 0.003527 -0.000018 0.055316
v 0.004709 -0.000018 0.053520
v 0.003439 -0.000018 0.051944
v 0.003351 -0.000017 0.049710
v 0.003789 -0.000017 0.048396
v 0.002388 -0.000017 0.047345
v 0.002388 -0.000016 0.045199
v 0.006039 -0.000015 0.040927
v 0.006092 -0.000015 0.039876
v 0.006775 -0.000015 0.039508
v 0.008036 -0.000015 0.039245
v 0.008089 -0.000015 0.036459
v 0.006215 -0.000014 0.034743
v 0.005616 -0.000014 0.033164
v 0.006748 -0.000013 0.030390
v 0.013119 -0.000012 0.025379
v 0.016588 -0.000011 0.018336
v 0.016851 -0.000010 0.010767
v 0.015463 -0.000009 0.007359
v 0.013781 -0.000008 0.004258
v 0.008894 -0.000007 -0.000578
v 0.002534 -0.000007 -0.002995
v -0.004666 -0.000007 -0.002995
v -0.010763 -0.000007 -0.000262
v -0.015283 -0.000008 0.004363
v -0.016965 -0.000009 0.006991
v -0.017964 -0.000009 0.009829
v -0.018384 -0.000011 0.015926
v -0.016387 -0.000012 0.022075
v -0.013233 -0.000013 0.027068
v -0.000580 -0.000008 0.003154
v -0.002288 -0.000008 0.003504
v -0.003909 -0.000008 0.004731
v -0.004960 -0.000009 0.006351
v -0.005179 -0.000009 0.008147
v -0.004610 -0.000009 0.009767
v -0.003252 -0.000010 0.010906
v -0.001719 -0.000010 0.011694
v -0.000274 -0.000010 0.011826
v 0.001654 -0.000010 0.011256
v 0.002924 -0.000009 0.009767
v 0.003668 -0.000009 0.007709
v 0.003493 -0.000009 0.006088
v 0.002836 -0.000008 0.004862
v 0.001654 -0.000008 0.003723
v -0.007335 0.002986 0.030951
v -0.006073 0.002986 0.032528
v -0.006021 0.002979 0.067098
v -0.002080 0.002979 0.070515
v 0.004184 0.002980 0.065390
v 0.004184 0.002980 0.063288
v 0.004622 0.002980 0.062324
v 0.003308 0.002981 0.061098
v 0.003264 0.002981 0.058777
v 0.004797 0.002981 0.057069
v 0.003527 0.002982 0.055317
v 0.004709 0.002982 0.053521
v 0.003439 0.002982 0.051944
v 0.003351 0.002983 0.049710
v 0.003789 0.002983 0.048397
v 0.002388 0.002983 0.047345
v 0.002388 0.002984 0.045199
v 0.006039 0.002985 0.040927
v 0.006092 0.002985 0.039876
v 0.006775 0.002985 0.039508
v 0.008036 0.002985 0.039245
v 0.008089 0.002985 0.036460
v 0.006215 0.002986 0.034743
v 0.005616 0.002986 0.033165
v 0.006748 0.002987 0.030391
v 0.013119 0.002988 0.025379
v 0.016588 0.002989 0.018336
v 0.016851 0.002990 0.010768
v 0.015463 0.002991 0.007359
v 0.013781 0.002992 0.004258
v 0.008894 0.002993 -0.000577
v 0.002534 0.002993 -0.002995
v -0.004666 0.002993 -0.002995
v -0.010763 0.002993 -0.000262
v -0.015283 0.002992 0.004363
v -0.016965 0.002991 0.006991
v -0.017964 0.002991 0.009829
v -0.018384 0.002989 0.015926
v -0.016387 0.002988 0.022075
v -0.013233 0.002987 0.027068
v -0.000580 0.002992 0.003154
v -0.002288 0.002992 0.003505
v -0.003909 0.002992 0.004731
v -0.004960 0.002991 0.006352
v -0.005179 0.002991 0.008147
v -0.004610 0.002991 0.009768
v -0.003252 0.002990 0.010907
v -0.001719 0.002990 0.011695
v -0.000274 0.002990 0.011826
v 0.001654 0.002990 0.011257
v 0.002924 0.002991 0.009768
v 0.003668 0.002991 0.007709
v 0.003493 0.002991 0.006089
v 0.002836 0.002992 0.004863
v 0.001654 0.002992 0.003724
vn -0.0000 1.0000 0.0002
vn -0.0000 -1.0000 -0.0002
vn 0.7788 0.0001 -0.6273
vn 0.9998 -0.0000 0.0189
vn 0.8352 -0.0001 0.5500
vn 0.9773 -0.0000 0.2117
vn 0.9104 -0.0001 0.4138
vn 0.7602 -0.0001 0.6497
vn 0.5410 0.0002 -0.8410
vn 0.1806 0.0002 -0.9835
vn 1.0000 -0.0000 -0.0000
vn 0.2791 0.0002 -0.9603
vn 0.5534 0.0002 -0.8329
vn 0.7770 -0.0001 0.6295
vn 0.9698 -0.0000 0.2437
vn 0.6823 0.0001 -0.7311
vn -0.0982 0.0002 -0.9952
vn -0.9554 -0.0001 0.2953
vn -0.9928 -0.0000 -0.1194
vn -0.7137 -0.0001 0.7004
vn -0.6736 -0.0001 0.7391
vn 0.6332 -0.0002 0.7740
vn -0.6549 -0.0002 0.7557
vn 0.7322 -0.0001 0.6811
vn 0.4124 -0.0002 0.9110
vn -0.5722 0.0002 -0.8201
vn -0.7828 0.0001 -0.6222
vn -0.9434 -0.0001 0.3317
vn -0.9053 -0.0001 0.4247
vn 0.9988 -0.0000 0.0499
vn -0.8988 0.0001 -0.4384
vn 0.9846 -0.0000 -0.1750
vn -0.4865 -0.0002 0.8737
vn -0.7973 -0.0001 0.6036
vn 0.8096 0.0001 -0.5870
vn -0.2833 0.0002 -0.9590
vn 0.8277 0.0001 -0.5612
vn 0.9999 -0.0000 0.0125
vn 0.7998 0.0001 -0.6003
vn 0.9040 0.0001 -0.4275
vn -1.0000 -0.0000 0.0015
vn 0.9992 -0.0000 -0.0392
vn 0.9900 -0.0000 0.1408
vn 0.9399 -0.0001 0.3414
vn 0.9941 -0.0000 -0.1081
vn -0.8645 0.0001 -0.5026
vn -0.7608 0.0001 -0.6489
vn 0.6755 0.0001 -0.7374
vn 0.6426 0.0001 -0.7662
vn -0.9925 -0.0000 0.1223
vn -0.2092 0.0002 -0.9779
vn 0.9435 0.0001 -0.3315
vn -0.9793 -0.0000 -0.2022
vn 0.9998 -0.0000 -0.0189
vn 0.4741 -0.0002 0.8805
vn 0.3426 -0.0002 0.9395
vn 0.9487 -0.0001 0.3162
vn -0.0236 -0.0002 0.9997
vn 0.7986 -0.0001 0.6018
vn 0.7442 -0.0001 0.6679
vn 0.2040 -0.0002 0.9790
vn 0.6000 0.0002 -0.8000
vt 0.283878 0.899856
vt 0.283813 0.903377
vt 0.269961 0.890754
vt 0.304081 0.976205
vt 0.303689 0.964724
vt 0.283305 0.977722
vt 0.259202 0.951477
vt 0.254498 0.959052
vt 0.272067 0.977722
vt 0.274093 0.975994
vt 0.298515 0.954040
vt 0.281410 0.975463
vt 0.289010 0.946437
vt 0.268002 0.945587
vt 0.269883 0.943195
vt 0.287322 0.942230
vt 0.292211 0.993415
vt 0.283175 0.985163
vt 0.281410 0.986891
vt 0.282724 0.997082
vt 0.288215 0.939835
vt 0.289051 0.932607
vt 0.288031 0.932049
vt 0.287953 0.930454
vt 0.282506 0.923974
vt 0.276379 0.974798
vt 0.284074 0.913742
vt 0.283943 0.917130
vt 0.284597 0.919124
vt 0.282506 0.920718
vt 0.253635 0.981934
vt 0.271218 0.980180
vt 0.252146 0.977628
vt 0.251518 0.968380
vt 0.284205 0.908626
vt 0.285969 0.911350
vt 0.286099 0.905968
vt 0.285838 0.897996
vt 0.285185 0.896534
vt 0.291011 0.937231
vt 0.290932 0.933005
vt 0.285185 0.893345
vt 0.275843 0.885571
vt 0.271544 0.982904
vt 0.273112 0.985362
vt 0.262887 0.992936
vt 0.256144 0.985920
vt 0.275530 0.987223
vt 0.271982 0.997082
vt 0.278078 0.987754
vt 0.284155 0.983303
vt 0.299503 0.986080
vt 0.284416 0.980844
vt 0.302012 0.981376
vt 0.278536 0.974599
vt 0.275845 0.885571
vt 0.312425 0.971830
vt 0.307425 0.971830
vt 0.307425 0.969405
vt 0.312425 0.969405
vt 0.312425 0.948118
vt 0.307425 0.948118
vt 0.307425 0.943267
vt 0.312425 0.943267
vt 0.312425 0.975064
vt 0.307425 0.975064
vt 0.312425 0.988267
vt 0.307425 0.988267
vt 0.307425 0.986650
vt 0.312425 0.986650
vt 0.312425 0.958088
vt 0.307425 0.958088
vt 0.307425 0.950812
vt 0.312425 0.950812
vt 0.312425 0.922519
vt 0.307425 0.922519
vt 0.307425 0.933028
vt 0.312425 0.933028
vt 0.312425 0.991770
vt 0.307425 0.991770
vt 0.312425 0.940303
vt 0.307425 0.940303
vt 0.307425 0.942728
vt 0.312425 0.942728
vt 0.312425 0.924944
vt 0.307425 0.924944
vt 0.307425 0.913088
vt 0.312425 0.913088
vt 0.312425 0.929525
vt 0.307425 0.929525
vt 0.307425 0.931681
vt 0.312425 0.931681
vt 0.312425 0.937878
vt 0.307425 0.937878
vt 0.312425 0.892609
vt 0.307425 0.892609
vt 0.307425 0.895303
vt 0.312425 0.895303
vt 0.312425 0.959435
vt 0.307425 0.959435
vt 0.307425 0.949465
vt 0.312425 0.949465
vt 0.312500 1.000000
vt 0.308594 1.000000
vt 0.308594 0.984375
vt 0.312500 0.984375
vt 0.312425 0.947309
vt 0.307425 0.947309
vt 0.307425 0.940842
vt 0.312425 0.940842
vt 0.312425 0.943806
vt 0.307425 0.943806
vt 0.307425 0.941112
vt 0.312425 0.941112
vt 0.312425 0.955393
vt 0.307425 0.955393
vt 0.307425 0.889645
vt 0.312425 0.889645
vt 0.312425 0.934106
vt 0.307425 0.934106
vt 0.307425 0.936800
vt 0.312425 0.936800
vt 0.312425 0.919285
vt 0.307425 0.919285
vt 0.307425 0.927639
vt 0.312425 0.927639
vt 0.307425 0.949195
vt 0.312425 0.949195
vt 0.312425 0.893956
vt 0.307425 0.893956
vt 0.307425 0.900423
vt 0.312425 0.900423
vt 0.312425 0.934645
vt 0.307425 0.934645
vt 0.307425 0.932489
vt 0.312425 0.932489
vt 0.312425 0.977758
vt 0.307425 0.977758
vt 0.312425 0.940573
vt 0.307425 0.940573
vt 0.312425 0.889375
vt 0.312425 0.894764
vt 0.307425 0.894764
vt 0.307425 0.889375
vt 0.307425 0.994734
vt 0.312425 0.994734
vt 0.307425 0.965632
vt 0.312425 0.965632
vt 0.312425 0.892878
vt 0.312425 0.895842
vt 0.307425 0.895842
vt 0.307425 0.892878
vt 0.312425 0.898537
vt 0.307425 0.898537
vt 0.307425 0.901231
vt 0.312425 0.901231
vt 0.312425 0.923866
vt 0.307425 0.923866
vt 0.307425 0.926830
vt 0.312425 0.926830
vt 0.307425 0.944884
vt 0.312425 0.944884
vt 0.312425 0.909046
vt 0.307425 0.909046
vt 0.307425 0.945154
vt 0.312425 0.945154
vt 0.312425 0.890453
vt 0.307425 0.890453
vt 0.307425 0.898806
vt 0.312425 0.898806
vt 0.312425 0.980722
vt 0.312425 0.984495
vt 0.307425 0.984495
vt 0.307425 0.980722
vt 0.312425 0.927100
vt 0.307425 0.927100
vt 0.307425 0.926022
vt 0.312425 0.926022
vt 0.307425 0.963477
vt 0.312425 0.963477
vt 0.312425 0.938148
vt 0.307425 0.938148
vt 0.275845 0.885571
vt 0.307425 0.890184
vt 0.312425 0.890184
vt 0.312425 0.961591
vt 0.307425 0.961591
vt 0.312425 0.933297
vt 0.307425 0.933297
vt 0.312425 0.930872
vt 0.307425 0.930872
s 1
usemtl keys_mp_1
f 63/1/1 64/2/1 58/3/1
f 28/4/2 27/5/2 51/6/2
f 40/7/2 39/8/2 46/9/2 47/10/2
f 81/11/1 82/5/1 106/6/1 105/12/1
f 80/13/1 56/14/1 57/15/1 79/16/1
f 31/17/2 54/18/2 55/19/2 32/20/2
f 24/16/2 23/21/2 2/15/2
f 23/21/2 20/22/2 19/23/2
f 19/23/2 18/24/2 17/25/2
f 56/14/1 103/26/1 102/10/1 95/7/1
f 68/27/1 69/28/1 70/29/1 71/30/1
f 17/25/2 16/30/2 2/15/2
f 36/31/2 45/32/2 37/33/2
f 92/33/1 93/34/1 101/9/1 100/32/1
f 94/8/1 95/7/1 102/10/1 101/9/1
f 68/27/1 58/3/1 66/35/1 67/36/1
f 64/2/1 65/37/1 66/35/1 58/3/1
f 8/1/2 7/38/2 6/39/2
f 77/40/1 78/21/1 75/22/1 76/41/1
f 60/42/1 61/39/1 59/43/1
f 9/2/2 8/1/2 3/3/2
f 39/8/2 38/34/2 46/9/2
f 46/9/2 38/34/2 37/33/2 45/32/2
f 99/44/1 98/45/1 89/46/1 90/47/1
f 98/45/1 97/48/1 88/49/1 89/46/1
f 97/48/1 96/50/1 87/20/1 88/49/1
f 110/19/1 109/18/1 86/17/1 87/20/1
f 86/17/1 109/18/1 108/51/1 85/52/1
f 100/32/1 99/44/1 90/47/1 91/31/1
f 32/20/2 55/19/2 41/50/2
f 82/5/1 83/4/1 106/6/1
f 51/6/2 52/53/2 29/54/2 28/4/2
f 27/5/2 26/11/2 50/12/2 51/6/2
f 25/13/2 49/55/2 50/12/2 26/11/2
f 48/26/2 49/55/2 25/13/2 1/14/2
f 22/40/2 21/41/2 20/22/2 23/21/2
f 105/12/1 104/55/1 80/13/1 81/11/1
f 78/21/1 79/16/1 57/15/1
f 100/32/1 91/31/1 92/33/1
f 108/51/1 107/53/1 84/54/1 85/52/1
f 74/23/1 75/22/1 78/21/1
f 72/25/1 73/24/1 74/23/1
f 19/23/2 17/25/2 2/15/2 23/21/2
f 71/30/1 72/25/1 57/15/1
f 93/34/1 94/8/1 101/9/1
f 3/3/2 2/15/2 16/30/2 13/27/2
f 4/56/2 3/3/2 8/1/2 6/39/2
f 11/35/2 3/3/2 13/27/2 12/36/2
f 61/39/1 62/38/1 63/1/1
f 35/47/2 44/44/2 45/32/2 36/31/2
f 53/51/2 54/18/2 31/17/2 30/52/2
f 42/48/2 43/45/2 34/46/2 33/49/2
f 84/54/1 107/53/1 106/6/1 83/4/1
f 52/53/2 53/51/2 30/52/2 29/54/2
f 110/19/1 87/20/1 96/50/1
f 67/57/3 12/58/3 13/59/3 68/60/3
f 76/61/4 21/62/4 22/63/4 77/64/4
f 66/65/5 11/66/5 12/58/5 67/57/5
f 61/67/6 6/68/6 7/69/7 62/70/7
f 72/71/8 17/72/8 18/73/8 73/74/8
f 86/75/9 31/76/9 32/77/10 87/78/10
f 60/79/11 5/80/11 6/68/6 61/67/6
f 103/81/12 48/82/12 47/83/13 102/84/13
f 81/85/14 26/86/14 27/87/15 82/88/15
f 62/89/16 7/90/16 8/91/16 63/92/16
f 104/93/17 49/94/17 48/82/12 103/81/12
f 108/95/18 53/96/18 52/97/19 107/98/19
f 95/99/20 40/100/20 1/101/21 56/102/21
f 59/103/22 4/104/22 5/105/22 60/106/22
f 58/107/23 3/108/23 4/109/23 59/110/23
f 98/111/24 43/112/24 42/113/25 97/114/25
f 89/115/26 34/116/26 35/117/27 90/118/27
f 56/119/21 1/120/21 2/121/28 57/122/28
f 94/123/29 39/124/29 40/125/20 95/126/20
f 73/74/30 18/73/30 19/127/30 74/128/30
f 91/129/31 90/118/27 35/117/27 36/130/31
f 82/88/15 27/87/15 28/131/32 83/132/32
f 110/133/33 55/134/33 54/135/34 109/136/34
f 65/137/35 10/138/35 11/66/35 66/65/35
f 105/133/36 50/134/36 49/94/17 104/93/17
f 78/139/37 23/140/37 24/94/38 79/93/38
f 85/141/39 84/142/40 29/143/40 30/144/39
f 57/122/28 2/121/28 3/145/41 58/146/41
f 68/60/42 13/59/42 14/147/43 69/148/43
f 99/149/44 100/150/45 45/151/45 44/152/44
f 106/153/46 51/154/46 50/155/47 105/156/47
f 77/157/48 22/158/48 23/159/37 78/160/37
f 107/98/19 52/97/19 51/154/46 106/153/46
f 102/84/13 47/83/13 46/161/49 101/162/49
f 85/141/39 30/144/39 31/76/9 86/75/9
f 93/163/50 38/164/50 39/124/29 94/123/29
f 87/78/10 32/77/10 33/165/51 88/166/51
f 101/153/52 46/154/52 45/151/45 100/150/45
f 109/167/34 54/168/34 53/96/18 108/95/18
f 37/169/53 92/170/53 91/129/31 36/130/31
f 64/171/54 63/172/54 8/173/54 9/174/54
f 74/175/55 19/176/55 20/177/56 75/178/56
f 69/148/43 14/147/43 15/179/57 70/180/57
f 96/181/58 41/182/58 55/134/33 110/133/33
f 14/28/2 13/27/2 16/30/2 15/29/2
f 41/50/2 42/48/2 33/49/2 32/20/2
f 5/42/2 4/56/2 6/39/2
f 34/46/2 43/45/2 44/44/2 35/47/2
f 58/3/1 68/27/1 71/30/1 57/15/1
f 9/2/2 3/3/2 11/35/2 10/37/2
f 74/23/1 78/21/1 57/15/1 72/25/1
f 1/14/2 25/13/2 24/16/2 2/15/2
f 104/55/1 103/26/1 56/14/1 80/13/1
f 61/39/1 63/1/1 58/3/1 59/183/1
f 92/170/53 37/169/53 38/164/50 93/163/50
f 83/132/32 28/131/32 29/143/40 84/142/40
f 99/149/44 44/152/44 43/184/24 98/185/24
f 88/166/51 33/165/51 34/116/26 89/115/26
f 81/85/14 80/178/59 25/177/59 26/86/14
f 71/186/11 16/187/11 17/72/11 72/71/11
f 97/114/25 42/113/25 41/182/58 96/181/58
f 80/188/59 79/93/38 24/94/38 25/189/59
f 64/171/60 9/174/60 10/138/60 65/137/60
f 48/26/2 1/14/2 40/7/2 47/10/2
f 75/178/56 20/177/56 21/158/61 76/157/61
f 70/190/62 15/191/62 16/189/62 71/188/62
