# Blender 5.0.1
# www.blender.org
mtllib key_mp_2.mtl
o key_mp_2
v -0.007335 0.002822 0.030663
v -0.006073 0.002730 0.032237
v -0.006021 0.000703 0.066748
v -0.002080 0.000502 0.070159
v 0.004184 0.000803 0.065043
v 0.004184 0.000926 0.062944
v 0.004622 0.000983 0.061982
v 0.003308 0.001055 0.060758
v 0.003264 0.001191 0.058441
v 0.004797 0.001291 0.056736
v 0.003527 0.001394 0.054987
v 0.004709 0.001499 0.053194
v 0.003439 0.001591 0.051620
v 0.003351 0.001722 0.049390
v 0.003789 0.001799 0.048078
v 0.002388 0.001861 0.047029
v 0.002388 0.001987 0.044887
v 0.006039 0.002237 0.040622
v 0.006092 0.002299 0.039573
v 0.006775 0.002320 0.039206
v 0.008036 0.002336 0.038943
v 0.008089 0.002499 0.036162
v 0.006215 0.002600 0.034449
v 0.005616 0.002692 0.032873
v 0.006748 0.002855 0.030104
v 0.013119 0.003149 0.025101
v 0.016588 0.003562 0.018070
v 0.016851 0.004005 0.010515
v 0.015463 0.004205 0.007112
v 0.013781 0.004387 0.004016
v 0.008894 0.004671 -0.000811
v 0.002534 0.004812 -0.003224
v -0.004666 0.004812 -0.003224
v -0.010763 0.004652 -0.000496
v -0.015283 0.004381 0.004121
v -0.016965 0.004227 0.006745
v -0.017964 0.004060 0.009578
v -0.018384 0.003703 0.015664
v -0.016387 0.003342 0.021803
v -0.013233 0.003050 0.026787
v -0.000580 0.004452 0.002914
v -0.002288 0.004431 0.003264
v -0.003909 0.004359 0.004488
v -0.004960 0.004264 0.006106
v -0.005179 0.004159 0.007899
v -0.004610 0.004064 0.009516
v -0.003252 0.003997 0.010653
v -0.001719 0.003951 0.011440
v -0.000274 0.003943 0.011571
v 0.001654 0.003977 0.011003
v 0.002924 0.004064 0.009516
v 0.003668 0.004185 0.007461
v 0.003493 0.004280 0.005844
v 0.002836 0.004352 0.004619
v 0.001654 0.004418 0.003483
v -0.007335 0.005817 0.030839
v -0.006073 0.005724 0.032413
v -0.006021 0.003698 0.066924
v -0.002080 0.003497 0.070334
v 0.004184 0.003798 0.065219
v 0.004184 0.003921 0.063120
v 0.004622 0.003978 0.062158
v 0.003308 0.004049 0.060934
v 0.003264 0.004186 0.058617
v 0.004797 0.004286 0.056912
v 0.003527 0.004388 0.055163
v 0.004709 0.004494 0.053370
v 0.003439 0.004586 0.051796
v 0.003351 0.004717 0.049566
v 0.003789 0.004794 0.048254
v 0.002388 0.004856 0.047205
v 0.002388 0.004982 0.045063
v 0.006039 0.005232 0.040798
v 0.006092 0.005294 0.039749
v 0.006775 0.005315 0.039381
v 0.008036 0.005331 0.039119
v 0.008089 0.005494 0.036338
v 0.006215 0.005595 0.034625
v 0.005616 0.005687 0.033049
v 0.006748 0.005850 0.030280
v 0.013119 0.006144 0.025277
v 0.016588 0.006557 0.018246
v 0.016851 0.007000 0.010691
v 0.015463 0.007200 0.007288
v 0.013781 0.007382 0.004192
v 0.008894 0.007665 -0.000635
v 0.002534 0.007807 -0.003048
v -0.004666 0.007807 -0.003048
v -0.010763 0.007647 -0.000320
v -0.015283 0.007376 0.004297
v -0.016965 0.007222 0.006920
v -0.017964 0.007055 0.009754
v -0.018384 0.006698 0.015840
v -0.016387 0.006337 0.021979
v -0.013233 0.006045 0.026963
v -0.000580 0.007447 0.003090
v -0.002288 0.007426 0.003440
v -0.003909 0.007354 0.004664
v -0.004960 0.007259 0.006282
v -0.005179 0.007154 0.008075
v -0.004610 0.007059 0.009692
v -0.003252 0.006992 0.010829
v -0.001719 0.006946 0.011616
v -0.000274 0.006938 0.011747
v 0.001654 0.006972 0.011179
v 0.002924 0.007059 0.009692
v 0.003668 0.007180 0.007637
v 0.003493 0.007275 0.006020
v 0.002836 0.007347 0.004795
v 0.001654 0.007413 0.003658
v -0.000060 0.000139 -0.002206
v 0.001116 0.001357 -0.002188
v 0.000690 0.003121 -0.002153
v -0.000912 0.003667 -0.002135
v -0.002088 0.002450 -0.002153
v -0.001662 0.000686 -0.002188
v -0.000721 0.002876 -0.010332
v 0.000498 0.003915 -0.009784
v 0.000158 0.005322 -0.008689
v -0.001400 0.005690 -0.008142
v -0.002620 0.004651 -0.008689
v -0.002280 0.003244 -0.009784
v -0.002377 0.009733 -0.015251
v -0.001049 0.010325 -0.014383
v -0.001173 0.010838 -0.012646
v -0.002624 0.010758 -0.011777
v -0.003951 0.010167 -0.012646
v -0.003827 0.009654 -0.014383
v -0.004394 0.018092 -0.015084
v -0.002936 0.018138 -0.014227
v -0.002796 0.017560 -0.012512
v -0.004115 0.016936 -0.011654
v -0.005574 0.016890 -0.012512
v -0.005714 0.017467 -0.014227
v -0.006004 0.024758 -0.009895
v -0.004440 0.024370 -0.009376
v -0.004091 0.022923 -0.008338
v -0.005305 0.021864 -0.007819
v -0.006869 0.022252 -0.008338
v -0.007218 0.023699 -0.009376
v -0.006590 0.027187 -0.001667
v -0.004988 0.026640 -0.001684
v -0.004562 0.024876 -0.001719
v -0.005738 0.023659 -0.001737
v -0.007340 0.024206 -0.001719
v -0.007766 0.025970 -0.001684
v -0.005929 0.024450 0.006459
v -0.004370 0.024082 0.005912
v -0.004031 0.022675 0.004817
v -0.005250 0.021636 0.004269
v -0.006809 0.022004 0.004817
v -0.007149 0.023411 0.005912
v -0.004274 0.017593 0.011379
v -0.002823 0.017672 0.010510
v -0.002699 0.017159 0.008774
v -0.004026 0.016568 0.007905
v -0.005477 0.016489 0.008774
v -0.005601 0.017001 0.010510
v -0.002256 0.009235 0.011212
v -0.000937 0.009859 0.010355
v -0.001076 0.010437 0.008640
v -0.002535 0.010390 0.007782
v -0.003854 0.009766 0.008640
v -0.003715 0.009188 0.010355
v -0.000647 0.002568 0.006023
v 0.000568 0.003627 0.005504
v 0.000218 0.005074 0.004466
v -0.001346 0.005462 0.003947
v -0.002560 0.004404 0.004466
v -0.002210 0.002956 0.005504
v 0.004743 0.007411 -0.007084
v 0.011257 0.007157 -0.014336
v 0.013443 0.006591 -0.022505
v 0.013936 0.005913 -0.030931
v 0.011701 0.005108 -0.039113
v 0.007259 0.004161 -0.047558
v 0.002057 0.003229 -0.055342
v -0.004445 0.002409 -0.060934
v -0.011844 0.001689 -0.064764
v -0.019712 0.001123 -0.066433
v -0.027845 0.000685 -0.066410
v -0.035087 0.000587 -0.062910
v -0.041576 0.000714 -0.057195
v -0.044754 0.001251 -0.048721
v -0.045298 0.001985 -0.039587
v -0.044054 0.002762 -0.031101
v -0.040639 0.003653 -0.022669
v -0.035745 0.004529 -0.015361
v -0.029252 0.005390 -0.009257
v -0.022571 0.006111 -0.004962
v -0.014557 0.006747 -0.002543
v -0.006937 0.007157 -0.002572
v -0.000473 0.007354 -0.004387
v 0.001186 0.006951 -0.010287
v 0.002942 0.006828 -0.012889
v 0.002995 0.006558 -0.016149
v 0.001044 0.006264 -0.018406
v -0.002232 0.006018 -0.019220
v -0.004400 0.006002 -0.018014
v -0.006354 0.006076 -0.015871
v -0.006932 0.006313 -0.012663
v -0.004877 0.006664 -0.009789
v -0.002070 0.006836 -0.009550
v 0.004581 0.010396 -0.007334
v 0.011095 0.010142 -0.014585
v 0.013281 0.009577 -0.022755
v 0.013774 0.008898 -0.031181
v 0.011539 0.008093 -0.039363
v 0.007098 0.007146 -0.047808
v 0.001895 0.006214 -0.055591
v -0.004606 0.005394 -0.061184
v -0.012005 0.004674 -0.065014
v -0.019873 0.004109 -0.066683
v -0.028006 0.003671 -0.066660
v -0.035248 0.003572 -0.063160
v -0.041737 0.003699 -0.057444
v -0.044915 0.004236 -0.048971
v -0.045459 0.004971 -0.039837
v -0.044216 0.005748 -0.031351
v -0.040801 0.006638 -0.022919
v -0.035906 0.007514 -0.015611
v -0.029413 0.008376 -0.009507
v -0.022732 0.009096 -0.005212
v -0.014718 0.009732 -0.002793
v -0.007099 0.010142 -0.002822
v -0.000634 0.010340 -0.004637
v 0.001024 0.009936 -0.010537
v 0.002780 0.009813 -0.013138
v 0.002833 0.009543 -0.016398
v 0.000883 0.009249 -0.018656
v -0.002394 0.009004 -0.019470
v -0.004561 0.008987 -0.018264
v -0.006515 0.009061 -0.016121
v -0.007093 0.009298 -0.012913
v -0.005038 0.009650 -0.010038
v -0.002232 0.009821 -0.009800
vn -0.0000 0.9983 0.0586
vn 0.2346 -0.9719 -0.0194
vn 0.1871 -0.7752 -0.6033
vn 0.9154 -0.2292 -0.3311
vn 0.9414 -0.3371 -0.0106
vn 0.8154 0.5259 0.2420
vn 0.7963 0.6048 0.0078
vn -0.1871 0.7752 0.6033
vn -0.2346 0.9719 0.0194
vn -0.9655 0.0960 0.2420
vn -0.9846 0.1749 0.0078
vn -0.7100 -0.6215 -0.3311
vn -0.6839 -0.7295 -0.0106
vn 0.0682 -0.2824 -0.9569
vn 0.8501 0.0412 -0.5250
vn 0.8631 0.3282 0.3838
vn -0.0682 0.2824 0.9569
vn -0.9178 -0.1017 0.3838
vn -0.7753 -0.3512 -0.5250
vn -0.0768 0.3182 -0.9449
vn 0.7705 0.3708 -0.5185
vn 0.9213 0.0873 0.3790
vn 0.0768 -0.3182 0.9449
vn -0.8596 -0.3426 0.3790
vn -0.8548 -0.0216 -0.5185
vn -0.1925 0.7973 -0.5720
vn 0.7071 0.6337 -0.3139
vn 0.9677 -0.1048 0.2294
vn 0.1925 -0.7973 0.5720
vn -0.8133 -0.5348 0.2294
vn -0.9183 0.2413 -0.3139
vn 0.6839 0.7295 0.0106
vn 0.9846 -0.1749 -0.0078
vn -0.7963 -0.6048 -0.0078
vn -0.9414 0.3371 0.0106
vn 0.7100 0.6215 0.3311
vn 0.9655 -0.0960 -0.2420
vn -0.8154 -0.5259 -0.2420
vn -0.9154 0.2292 0.3311
vn 0.7753 0.3512 0.5250
vn 0.9178 0.1017 -0.3838
vn -0.8631 -0.3282 -0.3838
vn -0.8501 -0.0412 0.5250
vn 0.8548 0.0216 0.5185
vn 0.8596 0.3426 -0.3790
vn -0.9213 -0.0873 -0.3790
vn -0.7705 -0.3708 0.5185
vn 0.9183 -0.2413 0.3139
vn 0.8133 0.5348 -0.2294
vn -0.9677 0.1048 -0.2294
vn -0.7071 -0.6337 0.3139
vn -0.0538 0.9951 -0.0832
vn -0.0000 -0.9983 -0.0586
vn 0.0538 -0.9951 0.0832
vn 0.7788 0.0368 -0.6263
vn 0.8951 0.0850 0.4376
vn 0.6184 0.0987 0.7797
vn 0.9998 -0.0011 0.0188
vn 0.8352 -0.0322 0.5490
vn -0.1485 0.0745 0.9861
vn 0.1341 0.0898 0.9869
vn 0.9773 -0.0124 0.2113
vn 0.9104 -0.0243 0.4131
vn 0.7602 -0.0381 0.6486
vn 0.5410 0.0493 -0.8396
vn 0.1806 0.0577 -0.9819
vn 1.0000 -0.0000 -0.0000
vn 0.2791 0.0563 -0.9586
vn 0.5534 0.0488 -0.8315
vn 0.7770 -0.0369 0.6285
vn 0.9698 -0.0143 0.2433
vn -0.9391 -0.0221 0.3428
vn -0.5259 0.0426 0.8495
vn 0.8777 0.0869 0.4712
vn 0.6092 0.0988 0.7868
vn 0.6823 0.0429 -0.7298
vn -0.4223 0.0529 0.9049
vn -0.0982 0.0583 -0.9935
vn -0.9554 -0.0173 0.2948
vn -0.9928 0.0070 -0.1192
vn -0.7137 -0.0411 0.6992
vn -0.6736 -0.0433 0.7378
vn 0.6332 -0.0454 0.7726
vn -0.6549 -0.0443 0.7544
vn 0.3632 0.0972 0.9266
vn 0.7322 -0.0399 0.6799
vn 0.4124 -0.0534 0.9094
vn -0.8831 -0.0085 0.4691
vn -0.7635 0.0127 0.6457
vn -0.5722 0.0481 -0.8187
vn -0.7828 0.0365 -0.6212
vn -0.9434 -0.0194 0.3311
vn -0.9053 -0.0249 0.4240
vn 0.9988 -0.0029 0.0499
vn -0.8988 0.0257 -0.4376
vn 0.9846 0.0103 -0.1747
vn -0.4865 -0.0512 0.8722
vn -0.7973 -0.0354 0.6026
vn 0.8096 0.0344 -0.5860
vn -0.5446 0.0492 -0.8372
vn 0.1280 0.0895 0.9877
vn 0.8277 0.0329 -0.5602
vn 0.9999 -0.0007 0.0124
vn 0.7998 0.0352 -0.5993
vn 0.9040 0.0251 -0.4268
vn -1.0000 -0.0001 0.0015
vn 0.9992 0.0023 -0.0391
vn 0.9900 -0.0083 0.1406
vn 0.9399 -0.0200 0.3408
vn 0.9941 0.0063 -0.1079
vn -0.8645 0.0295 -0.5018
vn 0.6755 0.0432 -0.7361
vn 0.8223 0.0334 -0.5681
vn -0.9925 -0.0072 0.1221
vn -0.2092 0.0573 -0.9762
vn -0.9793 0.0119 -0.2018
vn 0.9998 0.0011 -0.0188
vn 0.4741 -0.0516 0.8790
vn 0.3426 -0.0551 0.9379
vn 0.9487 -0.0185 0.3157
vn -0.0236 -0.0586 0.9980
vn -0.8216 -0.0915 -0.5626
vn -0.5505 -0.0991 -0.8289
vn 0.3404 -0.0601 -0.9384
vn 0.5622 -0.0387 -0.8261
vn 0.7495 -0.0148 -0.6618
vn -0.6175 0.0323 0.7859
vn -0.0646 -0.0867 -0.9941
vn -0.5619 -0.0991 -0.8213
vn 0.9858 0.0662 0.1541
vn 0.9932 0.0447 -0.1077
vn -0.9639 -0.0300 0.2646
vn -0.9976 -0.0500 0.0472
vn 0.4970 -0.0456 -0.8666
vn 0.9745 0.0341 -0.2219
vn -0.2207 -0.0932 -0.9709
vn 0.1073 -0.0771 -0.9912
vn 0.7986 -0.0353 0.6008
vn 0.9295 0.0195 -0.3684
vn 0.8592 0.0037 -0.5116
vn -0.9768 -0.0698 -0.2024
vn -0.9524 -0.0762 -0.2952
vn 0.7442 -0.0392 0.6668
vn 0.2040 -0.0574 0.9773
vn 0.6000 0.0469 -0.7986
vt 0.283878 0.899856
vt 0.283813 0.903377
vt 0.269961 0.890754
vt 0.425382 0.895635
vt 0.425382 0.903508
vt 0.426758 0.902995
vt 0.426758 0.895635
vt 0.425431 0.883133
vt 0.432790 0.885524
vt 0.431763 0.886938
vt 0.425431 0.884880
vt 0.426758 0.901968
vt 0.425382 0.901454
vt 0.424007 0.901968
vt 0.424007 0.895635
vt 0.424007 0.902995
vt 0.425429 0.884818
vt 0.425429 0.891515
vt 0.426804 0.891784
vt 0.426804 0.885524
vt 0.437339 0.891784
vt 0.435677 0.892324
vt 0.426804 0.886938
vt 0.426804 0.892324
vt 0.425429 0.892594
vt 0.425429 0.887644
vt 0.424053 0.892324
vt 0.424053 0.886938
vt 0.424053 0.885524
vt 0.424053 0.891784
vt 0.425429 0.899793
vt 0.426804 0.899523
vt 0.437339 0.899523
vt 0.435677 0.898983
vt 0.426804 0.898983
vt 0.425429 0.898713
vt 0.424053 0.898983
vt 0.424053 0.899523
vt 0.425429 0.906490
vt 0.426804 0.905783
vt 0.432790 0.905783
vt 0.431763 0.904370
vt 0.426804 0.904370
vt 0.425429 0.903663
vt 0.424053 0.904370
vt 0.424053 0.905783
vt 0.425431 0.908174
vt 0.425431 0.906427
vt 0.424007 0.895635
vt 0.424007 0.901968
vt 0.424007 0.902995
vt 0.425382 0.887762
vt 0.426758 0.888276
vt 0.418071 0.905783
vt 0.419098 0.904370
vt 0.426758 0.889303
vt 0.425382 0.889816
vt 0.424007 0.889303
vt 0.424007 0.888276
vt 0.413523 0.899523
vt 0.415185 0.898983
vt 0.413523 0.891784
vt 0.415185 0.892324
vt 0.418071 0.885524
vt 0.419098 0.886938
vt 0.424007 0.889303
vt 0.424007 0.888276
vt 0.327317 0.091286
vt 0.292695 0.038057
vt 0.360994 0.031777
vt 0.366297 0.043290
vt 0.304081 0.976205
vt 0.303689 0.964724
vt 0.283305 0.977722
vt 0.259202 0.951477
vt 0.254498 0.959052
vt 0.272067 0.977722
vt 0.274093 0.975994
vt 0.298515 0.954040
vt 0.281410 0.975463
vt 0.289010 0.946437
vt 0.268002 0.945587
vt 0.269883 0.943195
vt 0.287322 0.942230
vt 0.319584 0.099523
vt 0.322284 0.103521
vt 0.310725 0.108391
vt 0.301392 0.100018
vt 0.292211 0.993415
vt 0.283175 0.985163
vt 0.281410 0.986891
vt 0.282724 0.997082
vt 0.288215 0.939835
vt 0.289051 0.932607
vt 0.288031 0.932049
vt 0.287953 0.930454
vt 0.282506 0.923974
vt 0.360570 0.092901
vt 0.334805 0.095889
vt 0.331490 0.092376
vt 0.365448 0.082225
vt 0.276379 0.974798
vt 0.284074 0.913742
vt 0.283943 0.917130
vt 0.284597 0.919124
vt 0.282506 0.920718
vt 0.253635 0.981934
vt 0.271218 0.980180
vt 0.252146 0.977628
vt 0.251518 0.968380
vt 0.284205 0.908626
vt 0.285969 0.911350
vt 0.352934 0.020892
vt 0.307331 0.019008
vt 0.329390 0.011054
vt 0.342116 0.012938
vt 0.286099 0.905968
vt 0.285838 0.897996
vt 0.285185 0.896534
vt 0.291011 0.937231
vt 0.290932 0.933005
vt 0.285185 0.893345
vt 0.275843 0.885571
vt 0.271544 0.982904
vt 0.273112 0.985362
vt 0.262887 0.992936
vt 0.256144 0.985920
vt 0.275530 0.987223
vt 0.271982 0.997082
vt 0.278078 0.987754
vt 0.284155 0.983303
vt 0.299503 0.986080
vt 0.284416 0.980844
vt 0.302012 0.981376
vt 0.278536 0.974599
vt 0.323775 0.092677
vt 0.288735 0.054792
vt 0.292102 0.041766
vt 0.328009 0.091817
vt 0.333420 0.111321
vt 0.331245 0.103642
vt 0.334559 0.101098
vt 0.342965 0.108391
vt 0.275845 0.885571
vt 0.368630 0.069456
vt 0.368842 0.056478
vt 0.361383 0.092332
vt 0.334873 0.096077
vt 0.331670 0.092261
vt 0.365942 0.080631
vt 0.353343 0.101956
vt 0.335213 0.100465
vt 0.320662 0.111483
vt 0.323314 0.103937
vt 0.327864 0.105885
vt 0.329291 0.112796
vt 0.312425 0.971830
vt 0.307425 0.971830
vt 0.307425 0.969405
vt 0.312425 0.969405
vt 0.312425 0.948118
vt 0.307425 0.948118
vt 0.307425 0.943267
vt 0.312425 0.943267
vt 0.312425 0.975064
vt 0.307425 0.975064
vt 0.352510 0.102320
vt 0.312425 0.988267
vt 0.307425 0.988267
vt 0.307425 0.986650
vt 0.312425 0.986650
vt 0.312425 0.958088
vt 0.307425 0.958088
vt 0.307425 0.950812
vt 0.312425 0.950812
vt 0.312425 0.922519
vt 0.307425 0.922519
vt 0.307425 0.933028
vt 0.312425 0.933028
vt 0.312425 0.991770
vt 0.307425 0.991770
vt 0.312425 0.940303
vt 0.307425 0.940303
vt 0.307425 0.942728
vt 0.312425 0.942728
vt 0.312425 0.924944
vt 0.307425 0.924944
vt 0.307425 0.913088
vt 0.312425 0.913088
vt 0.320198 0.095162
vt 0.324724 0.112158
vt 0.312425 0.929525
vt 0.307425 0.929525
vt 0.307425 0.931681
vt 0.312425 0.931681
vt 0.312425 0.937878
vt 0.307425 0.937878
vt 0.312425 0.892609
vt 0.307425 0.892609
vt 0.307425 0.895303
vt 0.312425 0.895303
vt 0.312425 0.959435
vt 0.307425 0.959435
vt 0.307425 0.949465
vt 0.312425 0.949465
vt 0.312500 1.000000
vt 0.308594 1.000000
vt 0.308594 0.984375
vt 0.312500 0.984375
vt 0.312425 0.947309
vt 0.307425 0.947309
vt 0.307425 0.940842
vt 0.312425 0.940842
vt 0.312425 0.943806
vt 0.307425 0.943806
vt 0.307425 0.941112
vt 0.312425 0.941112
vt 0.312425 0.955393
vt 0.307425 0.955393
vt 0.307425 0.889645
vt 0.312425 0.889645
vt 0.312425 0.934106
vt 0.307425 0.934106
vt 0.307425 0.936800
vt 0.312425 0.936800
vt 0.312425 0.919285
vt 0.307425 0.919285
vt 0.307425 0.927639
vt 0.312425 0.927639
vt 0.307425 0.949195
vt 0.312425 0.949195
vt 0.312425 0.893956
vt 0.307425 0.893956
vt 0.307425 0.900423
vt 0.312425 0.900423
vt 0.312425 0.934645
vt 0.307425 0.934645
vt 0.307425 0.932489
vt 0.312425 0.932489
vt 0.312425 0.977758
vt 0.307425 0.977758
vt 0.323635 0.091528
vt 0.312425 0.940573
vt 0.307425 0.940573
vt 0.312425 0.889375
vt 0.312425 0.894764
vt 0.307425 0.894764
vt 0.307425 0.889375
vt 0.307425 0.994734
vt 0.312425 0.994734
vt 0.307425 0.965632
vt 0.312425 0.965632
vt 0.312425 0.892878
vt 0.312425 0.895842
vt 0.307425 0.895842
vt 0.307425 0.892878
vt 0.312425 0.898537
vt 0.307425 0.898537
vt 0.307425 0.901231
vt 0.312425 0.901231
vt 0.312425 0.923866
vt 0.307425 0.923866
vt 0.307425 0.926830
vt 0.312425 0.926830
vt 0.307425 0.944884
vt 0.312425 0.944884
vt 0.312425 0.909046
vt 0.307425 0.909046
vt 0.307425 0.945154
vt 0.312425 0.945154
vt 0.312425 0.890453
vt 0.307425 0.890453
vt 0.307425 0.898806
vt 0.312425 0.898806
vt 0.312425 0.980722
vt 0.312425 0.984495
vt 0.307425 0.984495
vt 0.307425 0.980722
vt 0.312425 0.927100
vt 0.307425 0.927100
vt 0.307425 0.926022
vt 0.312425 0.926022
vt 0.307425 0.963477
vt 0.312425 0.963477
vt 0.312425 0.938148
vt 0.307425 0.938148
vt 0.288877 0.064013
vt 0.289090 0.050198
vt 0.290150 0.078038
vt 0.293968 0.089970
vt 0.360433 0.029584
vt 0.365905 0.040579
vt 0.298117 0.030564
vt 0.306845 0.020140
vt 0.352487 0.020760
vt 0.342730 0.013724
vt 0.330964 0.011610
vt 0.298847 0.027381
vt 0.368090 0.066700
vt 0.368744 0.052896
vt 0.326580 0.105338
vt 0.311317 0.108034
vt 0.302169 0.101451
vt 0.320165 0.101215
vt 0.317512 0.012519
vt 0.318142 0.012792
vt 0.288134 0.067759
vt 0.290511 0.080680
vt 0.320246 0.096002
vt 0.294712 0.091605
vt 0.332267 0.104307
vt 0.343502 0.109803
vt 0.275845 0.885571
vt 0.307425 0.890184
vt 0.312425 0.890184
vt 0.312425 0.961591
vt 0.307425 0.961591
vt 0.312425 0.933297
vt 0.307425 0.933297
vt 0.312425 0.930872
vt 0.307425 0.930872
s 1
usemtl keys_mp_1
f 63/1/1 64/2/1 58/3/1
f 111/4/2 117/5/3 118/6/4 112/7/5
f 112/8/5 118/9/4 119/10/6 113/11/7
f 113/7/7 119/12/6 120/13/8 114/4/9
f 114/4/9 120/13/8 121/14/10 115/15/11
f 115/11/11 121/10/10 122/9/12 116/8/13
f 116/15/13 122/16/12 117/5/3 111/4/2
f 117/17/3 123/18/14 124/19/15 118/20/4
f 118/9/4 124/21/15 125/22/16 119/10/6
f 119/23/6 125/24/16 126/25/17 120/26/8
f 120/26/8 126/25/17 127/27/18 121/28/10
f 121/10/10 127/22/18 128/21/19 122/9/12
f 122/29/12 128/30/19 123/18/14 117/17/3
f 123/18/14 129/31/20 130/32/21 124/19/15
f 124/21/15 130/33/21 131/34/22 125/22/16
f 125/24/16 131/35/22 132/36/23 126/25/17
f 126/25/17 132/36/23 133/37/24 127/27/18
f 127/22/18 133/34/24 134/33/25 128/21/19
f 128/30/19 134/38/25 129/31/20 123/18/14
f 129/31/20 135/39/26 136/40/27 130/32/21
f 130/33/21 136/41/27 137/42/28 131/34/22
f 131/35/22 137/43/28 138/44/29 132/36/23
f 132/36/23 138/44/29 139/45/30 133/37/24
f 133/34/24 139/42/30 140/41/31 134/33/25
f 134/38/25 140/46/31 135/39/26 129/31/20
f 135/5/26 141/4/9 142/7/32 136/6/27
f 136/41/27 142/47/32 143/48/33 137/42/28
f 137/12/28 143/7/33 144/4/2 138/13/29
f 138/13/29 144/4/2 145/49/34 139/50/30
f 139/42/30 145/48/34 146/47/35 140/41/31
f 140/51/31 146/49/35 141/4/9 135/5/26
f 141/4/9 147/52/8 148/53/36 142/7/32
f 142/47/32 148/54/36 149/55/37 143/48/33
f 143/7/33 149/56/37 150/57/3 144/4/2
f 144/4/2 150/57/3 151/58/38 145/49/34
f 145/48/34 151/55/38 152/54/39 146/47/35
f 146/49/35 152/59/39 147/52/8 141/4/9
f 147/39/8 153/31/17 154/32/40 148/40/36
f 148/54/36 154/60/40 155/61/41 149/55/37
f 149/43/37 155/35/41 156/36/14 150/44/3
f 150/44/3 156/36/14 157/37/42 151/45/38
f 151/55/38 157/61/42 158/60/43 152/54/39
f 152/46/39 158/38/43 153/31/17 147/39/8
f 153/31/17 159/18/23 160/19/44 154/32/40
f 154/60/40 160/62/44 161/63/45 155/61/41
f 155/35/41 161/24/45 162/25/20 156/36/14
f 156/36/14 162/25/20 163/27/46 157/37/42
f 157/61/42 163/63/46 164/62/47 158/60/43
f 158/38/43 164/30/47 159/18/23 153/31/17
f 159/18/23 165/17/29 166/20/48 160/19/44
f 160/62/44 166/64/48 167/65/49 161/63/45
f 161/24/45 167/23/49 168/26/26 162/25/20
f 162/25/20 168/26/26 169/28/50 163/27/46
f 163/63/46 169/65/50 170/64/51 164/62/47
f 164/30/47 170/29/51 165/17/29 159/18/23
f 165/52/29 111/4/2 112/7/5 166/53/48
f 166/64/48 112/8/5 113/11/7 167/65/49
f 167/56/49 113/7/7 114/4/9 168/57/26
f 168/57/26 114/4/9 115/15/11 169/66/50
f 169/65/50 115/11/11 116/8/13 170/64/51
f 170/67/51 116/15/13 111/4/2 165/52/29
f 232/68/52 211/69/52 218/70/52 219/71/52
f 28/72/53 27/73/53 51/74/53
f 40/75/53 39/76/53 46/77/53 47/78/53
f 81/79/1 82/73/1 106/74/1 105/80/1
f 80/81/1 56/82/1 57/83/1 79/84/1
f 229/85/52 228/86/52 205/87/52 206/88/52
f 31/89/53 54/90/53 55/91/53 32/92/53
f 24/84/53 23/93/53 2/83/53
f 23/93/53 20/94/53 19/95/53
f 19/95/53 18/96/53 17/97/53
f 223/98/52 234/99/52 233/100/52 222/101/52
f 56/82/1 103/102/1 102/78/1 95/75/1
f 68/103/1 69/104/1 70/105/1 71/106/1
f 17/97/53 16/106/53 2/83/53
f 36/107/53 45/108/53 37/109/53
f 92/109/1 93/110/1 101/77/1 100/108/1
f 94/76/1 95/75/1 102/78/1 101/77/1
f 68/103/1 58/3/1 66/111/1 67/112/1
f 217/113/52 213/114/52 215/115/52 216/116/52
f 64/2/1 65/117/1 66/111/1 58/3/1
f 8/1/53 7/118/53 6/119/53
f 77/120/1 78/93/1 75/94/1 76/121/1
f 60/122/1 61/119/1 59/123/1
f 9/2/53 8/1/53 3/3/53
f 39/76/53 38/110/53 46/77/53
f 46/77/53 38/110/53 37/109/53 45/108/53
f 99/124/1 98/125/1 89/126/1 90/127/1
f 98/125/1 97/128/1 88/129/1 89/126/1
f 97/128/1 96/130/1 87/92/1 88/129/1
f 110/91/1 109/90/1 86/89/1 87/92/1
f 86/89/1 109/90/1 108/131/1 85/132/1
f 100/108/1 99/124/1 90/127/1 91/107/1
f 32/92/53 55/91/53 41/130/53
f 82/73/1 83/72/1 106/74/1
f 51/74/53 52/133/53 29/134/53 28/72/53
f 27/73/53 26/79/53 50/80/53 51/74/53
f 25/81/53 49/135/53 50/80/53 26/79/53
f 200/136/54 187/137/54 186/138/54 199/139/54
f 48/102/53 49/135/53 25/81/53 1/82/53
f 22/120/53 21/121/53 20/94/53 23/93/53
f 105/80/1 104/135/1 80/81/1 81/79/1
f 78/93/1 79/84/1 57/83/1
f 226/140/52 236/141/52 235/142/52 225/143/52
f 100/108/1 91/107/1 92/109/1
f 108/131/1 107/133/1 84/134/1 85/132/1
f 74/95/1 75/94/1 78/93/1
f 72/97/1 73/96/1 74/95/1
f 19/95/53 17/97/53 2/83/53 23/93/53
f 71/106/1 72/97/1 57/83/1
f 93/110/1 94/76/1 101/77/1
f 3/3/53 2/83/53 16/106/53 13/103/53
f 4/144/53 3/3/53 8/1/53 6/119/53
f 221/145/52 222/101/52 233/100/52 220/146/52
f 174/147/54 197/148/54 198/149/54 175/150/54
f 11/111/53 3/3/53 13/103/53 12/112/53
f 61/119/1 62/118/1 63/1/1
f 35/127/53 44/124/53 45/108/53 36/107/53
f 53/131/53 54/90/53 31/89/53 30/132/53
f 42/128/53 43/125/53 34/126/53 33/129/53
f 84/134/1 107/133/1 106/74/1 83/72/1
f 173/151/54 196/152/54 197/148/54 174/147/54
f 52/133/53 53/131/53 30/132/53 29/134/53
f 193/153/54 203/154/54 194/155/54 171/156/54
f 110/91/1 87/92/1 96/130/1
f 67/157/55 12/158/55 13/159/55 68/160/55
f 233/100/56 200/100/56 199/68/57 232/68/57
f 76/161/58 21/162/58 22/163/58 77/164/58
f 66/165/59 11/166/59 12/158/59 67/157/59
f 224/167/60 191/167/60 192/143/61 225/143/61
f 61/168/62 6/169/62 7/170/63 62/171/63
f 72/172/64 17/173/64 18/174/64 73/175/64
f 86/176/65 31/177/65 32/178/66 87/179/66
f 60/180/67 5/181/67 6/169/62 61/168/62
f 103/182/68 48/183/68 47/184/69 102/185/69
f 81/186/70 26/187/70 27/188/71 82/189/71
f 229/85/72 230/190/73 197/190/73 196/85/72
f 205/87/74 204/191/75 171/191/75 172/87/74
f 62/192/76 7/193/76 8/194/76 63/195/76
f 223/98/77 190/98/77 191/167/60 224/167/60
f 104/196/78 49/197/78 48/183/68 103/182/68
f 108/198/79 53/199/79 52/200/80 107/201/80
f 95/202/81 40/203/81 1/204/82 56/205/82
f 59/206/83 4/207/83 5/208/83 60/209/83
f 58/210/84 3/211/84 4/212/84 59/213/84
f 226/140/85 193/140/85 171/191/75 204/191/75
f 98/214/86 43/215/86 42/216/87 97/217/87
f 220/146/88 187/146/88 188/145/89 221/145/89
f 89/218/90 34/219/90 35/220/91 90/221/91
f 56/222/82 1/223/82 2/224/92 57/225/92
f 94/226/93 39/227/93 40/228/81 95/229/81
f 73/175/94 18/174/94 19/230/94 74/231/94
f 91/232/95 90/221/91 35/220/91 36/233/95
f 82/189/71 27/188/71 28/234/96 83/235/96
f 110/236/97 55/237/97 54/238/98 109/239/98
f 65/240/99 10/241/99 11/166/99 66/165/99
f 105/236/100 50/237/100 49/197/78 104/196/78
f 231/242/101 232/68/57 199/68/57 198/242/101
f 230/190/73 231/242/101 198/242/101 197/190/73
f 78/243/102 23/244/102 24/197/103 79/196/103
f 85/245/104 84/246/105 29/247/105 30/248/104
f 57/225/92 2/224/92 3/249/106 58/250/106
f 68/160/107 13/159/107 14/251/108 69/252/108
f 225/143/61 192/143/61 193/140/85 226/140/85
f 99/253/109 100/254/110 45/255/110 44/256/109
f 106/257/111 51/258/111 50/259/100 105/260/100
f 77/261/112 22/262/112 23/263/102 78/264/102
f 107/201/80 52/200/80 51/258/111 106/257/111
f 102/185/69 47/184/69 46/265/113 101/266/113
f 85/245/104 30/248/104 31/177/65 86/176/65
f 93/267/114 38/268/114 39/227/93 94/226/93
f 87/179/66 32/178/66 33/269/115 88/270/115
f 101/257/113 46/258/113 45/255/110 100/254/110
f 109/271/98 54/272/98 53/199/79 108/198/79
f 37/273/116 92/274/116 91/232/95 36/233/95
f 64/275/117 63/276/117 8/277/117 9/278/117
f 74/279/118 19/280/118 20/281/119 75/282/119
f 69/252/108 14/251/108 15/283/120 70/284/120
f 96/285/121 41/286/121 55/237/97 110/236/97
f 209/287/52 210/288/52 231/242/52 208/289/52
f 231/242/52 230/190/52 207/290/52 208/289/52
f 206/88/52 207/290/52 230/190/52 229/85/52
f 179/291/54 178/292/54 185/293/54
f 185/293/54 184/294/54 180/295/54 179/291/54
f 235/142/52 234/99/52 223/98/52 224/167/52
f 181/296/54 180/295/54 182/297/54
f 213/114/52 217/113/52 218/70/52 212/298/52
f 14/104/53 13/103/53 16/106/53 15/105/53
f 220/146/52 233/100/52 232/68/52 219/71/52
f 176/299/54 175/150/54 198/149/54 177/300/54
f 41/130/53 42/128/53 33/129/53 32/92/53
f 231/242/52 210/288/52 211/69/52 232/68/52
f 5/122/53 4/144/53 6/119/53
f 227/301/52 204/191/52 205/87/52 228/86/52
f 227/301/52 236/141/52 226/140/52 204/191/52
f 34/126/53 43/125/53 44/124/53 35/127/53
f 192/302/54 191/303/54 202/304/54
f 58/3/1 68/103/1 71/106/1 57/83/1
f 177/300/54 198/149/54 199/139/54 178/292/54
f 211/69/52 212/298/52 218/70/52
f 9/2/53 3/3/53 11/111/53 10/117/53
f 213/114/52 214/305/52 215/115/52
f 182/297/54 180/295/54 184/294/54 183/306/54
f 186/138/54 185/293/54 178/292/54 199/139/54
f 74/95/1 78/93/1 57/83/1 72/97/1
f 188/307/54 187/137/54 200/136/54 189/308/54
f 200/136/54 201/309/54 190/310/54 189/308/54
f 201/309/54 202/304/54 191/303/54 190/310/54
f 1/82/53 25/81/53 24/84/53 2/83/53
f 171/156/54 194/155/54 195/311/54 172/312/54
f 195/311/54 196/152/54 173/151/54 172/312/54
f 104/135/1 103/102/1 56/82/1 80/81/1
f 61/119/1 63/1/1 58/3/1 59/313/1
f 224/167/52 225/143/52 235/142/52
f 202/304/54 203/154/54 193/153/54 192/302/54
f 216/116/122 215/115/123 182/115/123 183/116/122
f 92/274/116 37/273/116 38/268/114 93/267/114
f 212/298/124 211/69/125 178/69/125 179/298/124
f 83/235/96 28/234/96 29/247/105 84/246/105
f 210/288/126 177/288/126 178/69/125 211/69/125
f 221/145/89 188/145/89 189/101/127 222/101/127
f 236/141/128 227/301/129 194/301/129 203/141/128
f 206/88/130 173/88/130 174/290/131 207/290/131
f 219/71/132 218/70/133 185/70/133 186/71/132
f 219/71/132 186/71/132 187/146/88 220/146/88
f 222/101/127 189/101/127 190/98/77 223/98/77
f 99/253/109 44/256/109 43/314/86 98/315/86
f 236/141/128 203/141/128 202/142/134 235/142/134
f 233/100/56 234/99/135 201/99/135 200/100/56
f 88/270/115 33/269/115 34/219/90 89/218/90
f 214/305/136 213/114/137 180/114/137 181/305/136
f 81/186/70 80/282/138 25/281/138 26/187/70
f 208/289/139 175/289/139 176/287/140 209/287/140
f 209/287/140 176/287/140 177/288/126 210/288/126
f 205/87/74 172/87/74 173/88/130 206/88/130
f 207/290/131 174/290/131 175/289/139 208/289/139
f 71/316/67 16/317/67 17/173/67 72/172/67
f 97/217/87 42/216/87 41/286/121 96/285/121
f 216/116/122 183/116/122 184/113/141 217/113/141
f 228/86/142 229/85/72 196/85/72 195/86/142
f 235/142/134 202/142/134 201/99/135 234/99/135
f 80/318/138 79/196/103 24/197/103 25/319/138
f 228/86/142 195/86/142 194/301/129 227/301/129
f 213/114/137 212/298/124 179/298/124 180/114/137
f 218/70/133 217/113/141 184/113/141 185/70/133
f 64/275/143 9/278/143 10/241/143 65/240/143
f 48/102/53 1/82/53 40/75/53 47/78/53
f 75/282/119 20/281/119 21/262/144 76/261/144
f 215/115/123 214/305/136 181/305/136 182/115/123
f 70/320/145 15/321/145 16/319/145 71/318/145
