# Blender 5.0.1
# www.blender.org
mtllib key_mp_4_1.mtl
o key_mp_4_1
v 0.027338 0.001742 -0.002685
v 0.025687 0.000000 -0.001952
v 0.025687 0.001742 -0.003764
v -0.020606 0.000000 -0.001967
v -0.020606 0.001742 -0.003761
v -0.022358 0.001742 -0.005512
v -0.024155 0.000000 -0.003890
v -0.024567 0.001742 -0.005665
v -0.026162 0.000581 -0.002786
v -0.026162 0.001975 -0.003998
v -0.032029 0.000000 -0.001849
v -0.032029 0.001742 -0.003646
v -0.033780 0.001742 -0.004179
v -0.035251 0.001742 -0.010796
v -0.038107 0.001742 -0.016064
v -0.042614 0.001742 -0.019492
v -0.047883 0.001742 -0.020571
v -0.053342 0.001742 -0.019555
v -0.057722 0.001742 -0.016635
v -0.060705 0.001742 -0.012319
v -0.056896 0.001742 -0.010224
v -0.055246 0.001742 -0.013842
v -0.051945 0.001742 -0.016064
v -0.048010 0.001742 -0.017016
v -0.044074 0.001742 -0.015874
v -0.041154 0.001742 -0.013208
v -0.039758 0.001742 -0.009653
v 0.025595 0.000000 0.001926
v 0.027338 0.001742 0.002677
v 0.025687 0.001742 0.003756
v -0.020606 0.001742 0.003752
v -0.020606 0.000000 0.001945
v -0.022358 0.001742 0.005504
v -0.024567 0.001742 0.005657
v -0.024155 0.000000 0.003882
v -0.026162 0.001975 0.004271
v -0.026162 0.000581 0.002834
v -0.032029 0.001742 0.003638
v -0.032029 0.000000 0.001840
v -0.033780 0.001742 0.004172
v -0.035251 0.001742 0.010787
v -0.038107 0.001742 0.016056
v -0.042614 0.001742 0.019484
v -0.047883 0.001742 0.020563
v -0.053342 0.001742 0.019547
v -0.057722 0.001742 0.016627
v -0.060705 0.001742 0.012311
v -0.062927 0.001742 -0.000003
v -0.055627 0.001742 -0.000003
v -0.056896 0.001742 0.010216
v -0.055246 0.001742 0.013834
v -0.051945 0.001742 0.016056
v -0.048010 0.001742 0.017008
v -0.044074 0.001742 0.015866
v -0.041154 0.001742 0.013200
v -0.039758 0.001742 0.009645
v -0.041599 0.001742 -0.000003
v 0.027338 0.004066 -0.002685
v 0.025687 0.004066 -0.003764
v 0.025687 0.005808 -0.001952
v -0.020606 0.004066 -0.003761
v -0.020606 0.005808 -0.001967
v -0.022358 0.004066 -0.005512
v -0.024567 0.004066 -0.005665
v -0.024155 0.005808 -0.003890
v -0.026162 0.005227 -0.002797
v -0.026162 0.003833 -0.003998
v -0.032029 0.004066 -0.003646
v -0.032029 0.005808 -0.001836
v -0.033780 0.004066 -0.004180
v -0.035251 0.004066 -0.010796
v -0.038107 0.004066 -0.016064
v -0.042614 0.004066 -0.019492
v -0.047883 0.004066 -0.020571
v -0.053342 0.004066 -0.019555
v -0.057722 0.004066 -0.016635
v -0.060705 0.004066 -0.012319
v -0.056896 0.004066 -0.010224
v -0.055246 0.004066 -0.013842
v -0.051945 0.004066 -0.016064
v -0.048010 0.004066 -0.017016
v -0.044074 0.004066 -0.015874
v -0.041154 0.004066 -0.013208
v -0.039758 0.004066 -0.009653
v 0.027338 0.004066 0.002677
v 0.025595 0.005808 0.001926
v 0.025687 0.004066 0.003756
v -0.020606 0.004066 0.003752
v -0.020606 0.005808 0.001945
v -0.022358 0.004066 0.005504
v -0.024155 0.005808 0.003882
v -0.024567 0.004066 0.005657
v -0.026162 0.005227 0.002833
v -0.026162 0.003833 0.004271
v -0.032029 0.005808 0.001842
v -0.032029 0.004066 0.003638
v -0.033781 0.004066 0.004172
v -0.035251 0.004066 0.010787
v -0.038107 0.004066 0.016056
v -0.042614 0.004066 0.019484
v -0.047883 0.004066 0.020563
v -0.053342 0.004066 0.019547
v -0.057722 0.004066 0.016627
v -0.060705 0.004066 0.012311
v -0.062927 0.004066 -0.000003
v -0.055627 0.004066 -0.000003
v -0.056896 0.004066 0.010216
v -0.055246 0.004066 0.013834
v -0.051945 0.004066 0.016056
v -0.048010 0.004066 0.017008
v -0.044074 0.004066 0.015866
v -0.041154 0.004066 0.013200
v -0.039758 0.004066 0.009645
v -0.041599 0.004066 -0.000003
v 0.021998 0.001742 0.017114
v 0.021998 0.004066 0.017114
v 0.016345 0.001742 0.017114
v 0.016345 0.004066 0.017114
v 0.008669 0.001742 0.017113
v 0.014576 0.001742 0.017113
v 0.008669 0.004066 0.017113
v 0.014576 0.004066 0.017113
v 0.008669 0.001742 0.003755
v 0.014577 0.001742 0.003755
v 0.008669 0.004066 0.003755
v 0.014577 0.004066 0.003755
v 0.021999 0.001742 0.003756
v 0.021999 0.004066 0.003756
v 0.016346 0.001742 0.003755
v 0.016346 0.004066 0.003755
v 0.021999 0.000581 0.011306
v 0.021999 0.002904 0.011306
v 0.016345 0.000581 0.011306
v 0.016345 0.002904 0.011306
v 0.008669 0.000581 0.011305
v 0.014577 0.000581 0.011305
v 0.008669 0.002904 0.011305
v 0.014577 0.002904 0.011305
v 0.008669 0.000581 0.008401
v 0.008669 0.002904 0.008401
v 0.014577 0.000581 0.008401
v 0.014577 0.002904 0.008401
v 0.021999 0.000581 0.008402
v 0.016346 0.000581 0.008402
v 0.021999 0.002904 0.008402
v 0.016346 0.002904 0.008402
v 0.014577 0.001742 0.013483
v 0.014577 0.004066 0.013483
v 0.008669 0.001742 0.013483
v 0.008669 0.004066 0.013483
v 0.021999 0.004066 0.013484
v 0.016345 0.004066 0.013484
v 0.021999 0.001742 0.013484
v 0.016345 0.001742 0.013484
v 0.021999 0.001742 0.006950
v 0.016346 0.001742 0.006950
v 0.021999 0.004066 0.006950
v 0.016346 0.004066 0.006950
v 0.008669 0.001742 0.006949
v 0.008669 0.004066 0.006949
v 0.014577 0.001742 0.006949
v 0.014577 0.004066 0.006949
vn 0.5473 -0.0000 -0.8370
vn -0.8239 -0.0000 0.5668
vn -0.9957 0.0001 0.0928
vn 0.4031 -0.0000 -0.9152
vn 0.7628 -0.0000 -0.6466
vn -1.0000 0.0001 -0.0000
vn -0.9957 0.0001 -0.0927
vn -0.0226 -0.0000 -0.9997
vn -0.4893 -0.0000 -0.8721
vn 0.0001 -0.7221 0.6918
vn -0.8239 -0.0000 -0.5668
vn 0.7071 -0.0000 0.7071
vn -0.0000 1.0000 -0.0000
vn -0.7224 -0.0000 -0.6914
vn -0.6557 -0.0000 0.7550
vn 0.0688 -0.0000 0.9976
vn -0.0000 -1.0000 -0.0000
vn -0.2779 0.9606 -0.0000
vn 0.0985 -0.9951 -0.0000
vn -0.0073 -0.9988 -0.0484
vn 0.1297 -0.9852 -0.1117
vn -0.6320 -0.7723 0.0643
vn -0.6859 -0.7186 0.1143
vn -0.8662 -0.3645 -0.3418
vn -0.8031 -0.5186 0.2935
vn -0.0255 0.0501 0.9984
vn -0.1072 -0.0000 0.9942
vn -0.1071 -0.0001 0.9943
vn 0.6163 -0.3166 0.7211
vn 0.2442 0.0829 0.9662
vn 0.2913 -0.0001 0.9566
vn 0.4471 -0.2695 0.8529
vn 0.9884 -0.0000 0.1516
vn 0.7628 -0.0000 0.6466
vn 0.9884 -0.0000 -0.1516
vn 1.0000 -0.0000 -0.0000
vn 0.4031 -0.0000 0.9152
vn -0.9243 -0.0000 -0.3817
vn -1.0000 -0.0000 -0.0000
vn -0.0226 -0.0000 0.9997
vn -0.4893 -0.0000 0.8721
vn 0.7071 -0.0000 -0.7071
vn 0.0985 0.9951 -0.0000
vn -0.0001 -0.0000 1.0000
vn 0.3833 -0.7398 -0.5530
vn -0.0597 -0.0000 -0.9982
vn -0.0354 0.0926 -0.9951
vn 0.9367 -0.0000 0.3502
vn 0.9762 -0.0000 0.2170
vn 0.0688 -0.0000 -0.9976
vn 0.5473 -0.0000 0.8370
vn 0.9367 -0.0000 -0.3502
vn 0.7592 -0.0000 -0.6508
vn -0.9243 -0.0000 0.3817
vn -0.7054 0.7088 -0.0000
vn -0.6462 0.6817 0.3431
vn -0.5553 0.7822 -0.2824
vn 0.2014 0.0247 -0.9792
vn 0.5681 -0.1782 -0.8035
vn 0.5997 -0.0440 -0.7990
vn 0.2912 -0.0000 -0.9567
vn -0.5663 -0.6061 -0.5585
vn 0.4133 -0.0000 -0.9106
vn 0.0090 -0.0000 -1.0000
vn -0.3765 -0.0000 -0.9264
vn -0.7012 -0.0000 -0.7130
vn 0.9762 -0.0000 -0.2167
vn 0.7592 -0.0000 0.6508
vn 0.4133 -0.0000 0.9106
vn 0.0090 -0.0000 1.0000
vn -0.3765 -0.0000 0.9264
vn -0.7012 -0.0000 0.7130
vn 0.4128 -0.6565 -0.6313
vn 0.3837 -0.7407 0.5514
vn 0.0487 -0.7071 -0.7054
vn -0.5232 -0.6423 0.5601
vn -0.0312 -0.6920 -0.7212
vn -0.1382 -0.6566 -0.7415
vn 0.0642 -0.7050 -0.7063
vn 0.1016 -0.7458 -0.6583
vn 0.1753 -0.9071 -0.3825
vn 0.1789 -0.7672 -0.6160
vn 0.4052 -0.6722 0.6197
vn 0.0001 0.7221 0.6918
vn 0.3833 0.7398 -0.5530
vn 0.0487 -0.7071 0.7054
vn -0.5656 0.6055 -0.5599
vn 0.0121 -0.7841 0.6205
vn -0.0467 -0.7171 0.6954
vn 0.0042 -0.7721 0.6355
vn 0.0591 -0.9621 0.2662
vn 0.3186 -0.6699 0.6706
vn 0.1195 -0.7374 0.6648
vn 0.7165 -0.6976 0.0071
vn 0.4128 0.6565 -0.6313
vn 0.0001 -0.7190 -0.6950
vn 0.3837 0.7407 0.5514
vn 0.0487 0.7071 -0.7054
vn -0.5233 0.6423 0.5600
vn -0.0327 0.6923 -0.7209
vn 0.2065 0.7051 -0.6784
vn 0.3892 0.8265 -0.4067
vn 0.4052 0.6722 0.6197
vn 0.0001 0.7190 -0.6950
vn 0.0487 0.7071 0.7054
vn -0.0464 0.7172 0.6954
vn -0.0465 0.7171 0.6954
vn 0.4724 0.7327 0.4900
vn 0.2073 0.7023 0.6810
vn 0.2074 0.7022 0.6811
vn 0.7165 0.6976 0.0071
vn -0.0001 -0.0000 -1.0000
vn -0.2779 -0.9606 -0.0000
vn 1.0000 -0.0000 0.0001
vn -0.0000 -0.0000 1.0000
vn -0.0000 -0.8824 0.4706
vn -1.0000 -0.0000 -0.0001
vn -0.0000 -0.7809 -0.6247
vn -0.0000 0.7809 0.6247
vn -0.0000 0.8824 -0.4706
vt 0.199190 0.886667
vt 0.196202 0.886667
vt 0.196202 0.890625
vt 0.199190 0.890625
vt 0.103762 0.886602
vt 0.110272 0.886602
vt 0.110272 0.890606
vt 0.103762 0.890606
vt 0.041991 0.886667
vt 0.036016 0.886667
vt 0.036016 0.890625
vt 0.041991 0.890625
vt 0.127944 0.886602
vt 0.145610 0.886602
vt 0.145610 0.890606
vt 0.127944 0.890606
vt 0.049115 0.886667
vt 0.049115 0.890625
vt 0.056240 0.886667
vt 0.056240 0.890625
vt 0.099349 0.827865
vt 0.183792 0.827964
vt 0.183857 0.824773
vt 0.099332 0.824749
vt 0.061525 0.886667
vt 0.061525 0.890625
vt 0.103516 0.886667
vt 0.106688 0.886667
vt 0.106688 0.890625
vt 0.103516 0.890625
vt 0.152120 0.886602
vt 0.152120 0.890606
vt 0.100504 0.835232
vt 0.094537 0.838524
vt 0.094537 0.825226
vt 0.100504 0.828542
vt 0.096827 0.886667
vt 0.093349 0.887063
vt 0.093349 0.890229
vt 0.096827 0.890625
vt 0.093281 0.887062
vt 0.096387 0.886667
vt 0.096388 0.890625
vt 0.093281 0.890229
vt 0.091725 0.886667
vt 0.095723 0.886667
vt 0.095723 0.890625
vt 0.091725 0.890625
vt 0.075310 0.824702
vt 0.072628 0.813340
vt 0.064403 0.815301
vt 0.061045 0.831871
vt 0.064403 0.848446
vt 0.072628 0.850410
vt 0.075313 0.839044
vt 0.092908 0.825192
vt 0.092912 0.838551
vt 0.088811 0.836671
vt 0.088808 0.826995
vt 0.089240 0.836653
vt 0.089240 0.827000
vt 0.078508 0.828707
vt 0.078508 0.835042
vt 0.074843 0.824795
vt 0.073963 0.838536
vt 0.078044 0.886667
vt 0.088250 0.887063
vt 0.088250 0.890229
vt 0.078044 0.890625
vt 0.077422 0.839486
vt 0.075133 0.824665
vt 0.033128 0.814321
vt 0.026178 0.810723
vt 0.022123 0.831871
vt 0.035445 0.831871
vt 0.074872 0.886667
vt 0.074872 0.890625
vt 0.033029 0.886667
vt 0.033029 0.890625
vt 0.061855 0.809196
vt 0.056527 0.804618
vt 0.059191 0.798403
vt 0.067416 0.804290
vt 0.031621 0.803309
vt 0.036140 0.808106
vt 0.042163 0.804290
vt 0.039615 0.798294
vt 0.026178 0.853026
vt 0.033128 0.849428
vt 0.035327 0.886667
vt 0.035327 0.890625
vt 0.105390 0.886602
vt 0.105390 0.890606
vt 0.106688 0.886667
vt 0.103516 0.886667
vt 0.103516 0.890625
vt 0.106688 0.890625
vt 0.089240 0.827001
vt 0.089240 0.836671
vt 0.078508 0.835020
vt 0.078508 0.828704
vt 0.098724 0.886667
vt 0.182527 0.886667
vt 0.182527 0.890625
vt 0.098724 0.890625
vt 0.102649 0.838219
vt 0.096722 0.841722
vt 0.099448 0.844284
vt 0.102699 0.841590
vt 0.088216 0.887063
vt 0.088216 0.890229
vt 0.072213 0.886667
vt 0.072213 0.890625
vt 0.132850 0.886602
vt 0.123031 0.886602
vt 0.123031 0.890606
vt 0.132850 0.890606
vt 0.095723 0.886667
vt 0.091725 0.886667
vt 0.091725 0.890625
vt 0.095723 0.890625
vt 0.099339 0.835237
vt 0.099349 0.828525
vt 0.183754 0.828606
vt 0.183849 0.835228
vt 0.196202 0.886667
vt 0.199190 0.886667
vt 0.199190 0.890625
vt 0.196202 0.890625
vt 0.067041 0.886667
vt 0.067041 0.890625
vt 0.150492 0.886602
vt 0.150492 0.890606
vt 0.075313 0.824702
vt 0.074568 0.838933
vt 0.074700 0.824703
vt 0.091955 0.835779
vt 0.091535 0.838847
vt 0.094987 0.841135
vt 0.095944 0.837004
vt 0.058882 0.886667
vt 0.058882 0.890625
vt 0.049345 0.886667
vt 0.049345 0.890625
vt 0.039463 0.886667
vt 0.039463 0.890625
vt 0.031534 0.886667
vt 0.031534 0.890625
vt 0.026134 0.886667
vt 0.026134 0.890625
vt 0.191670 0.846508
vt 0.191669 0.849620
vt 0.194682 0.847767
vt 0.183849 0.835228
vt 0.183754 0.828606
vt 0.099349 0.828525
vt 0.099339 0.835237
vt 0.096727 0.822032
vt 0.102656 0.825557
vt 0.102703 0.822166
vt 0.099454 0.819467
vt 0.093673 0.839659
vt 0.092411 0.842741
vt 0.096442 0.842479
vt 0.091665 0.828055
vt 0.095624 0.826841
vt 0.094599 0.822855
vt 0.091338 0.824797
vt 0.089189 0.836789
vt 0.078508 0.838131
vt 0.089107 0.839534
vt 0.075310 0.839045
vt 0.056527 0.859131
vt 0.049345 0.861094
vt 0.049577 0.867199
vt 0.059191 0.865345
vt 0.049345 0.802655
vt 0.049577 0.796550
vt 0.191218 0.817673
vt 0.194397 0.816383
vt 0.191385 0.814529
vt 0.099332 0.824749
vt 0.183857 0.824773
vt 0.183792 0.827964
vt 0.099349 0.827864
vt 0.102699 0.841591
vt 0.099448 0.844284
vt 0.096722 0.841722
vt 0.102649 0.838219
vt 0.093673 0.824090
vt 0.096442 0.821270
vt 0.092411 0.821008
vt 0.094991 0.841147
vt 0.091540 0.838867
vt 0.091963 0.835814
vt 0.095944 0.837017
vt 0.089222 0.826888
vt 0.089154 0.823958
vt 0.078508 0.825618
vt 0.075314 0.824702
vt 0.042163 0.859459
vt 0.039615 0.865455
vt 0.036140 0.855643
vt 0.031621 0.860439
vt 0.067416 0.859459
vt 0.061855 0.854553
vt 0.205548 0.828663
vt 0.205599 0.835359
vt 0.208729 0.836583
vt 0.208777 0.827324
vt 0.194025 0.848102
vt 0.191013 0.849957
vt 0.190845 0.846928
vt 0.183834 0.835888
vt 0.099355 0.835911
vt 0.099355 0.838994
vt 0.183834 0.838995
vt 0.099454 0.819467
vt 0.102703 0.822166
vt 0.102656 0.825557
vt 0.096727 0.822033
vt 0.096442 0.842479
vt 0.092411 0.842741
vt 0.093673 0.839659
vt 0.091337 0.824798
vt 0.094599 0.822855
vt 0.095624 0.826841
vt 0.091665 0.828057
vt 0.089108 0.839530
vt 0.089191 0.836788
vt 0.075313 0.839045
vt 0.192046 0.814881
vt 0.195058 0.816736
vt 0.192046 0.818114
vt 0.099355 0.838994
vt 0.099355 0.835911
vt 0.092411 0.821008
vt 0.096442 0.821270
vt 0.093673 0.824090
vt 0.089154 0.823957
vt 0.089222 0.826887
vt 0.208777 0.827324
vt 0.208729 0.836582
vt 0.205598 0.835358
vt 0.205548 0.828663
vt 0.182527 0.886667
vt 0.098724 0.886667
vt 0.098724 0.890625
vt 0.100504 0.828542
vt 0.094537 0.825226
vt 0.094537 0.838524
vt 0.100504 0.835232
vt 0.092908 0.825220
vt 0.088808 0.827034
vt 0.088811 0.836706
vt 0.092912 0.838598
vt 0.140674 0.886602
vt 0.134824 0.886602
vt 0.134824 0.890606
vt 0.140674 0.890606
vt 0.140675 0.886602
vt 0.134826 0.886602
vt 0.134826 0.890606
vt 0.140675 0.890606
vt 0.159288 0.886602
vt 0.152640 0.886602
vt 0.152640 0.890606
vt 0.159288 0.890606
vt 0.187814 0.808710
vt 0.198596 0.808709
vt 0.198596 0.802474
vt 0.187814 0.802475
vt 0.200373 0.890625
vt 0.200373 0.890625
vt 0.200373 0.886667
vt 0.200373 0.886667
vt 0.201824 0.825418
vt 0.201824 0.819931
vt 0.212141 0.819931
vt 0.212141 0.825418
vt 0.200372 0.886667
vt 0.210606 0.886667
vt 0.210606 0.890625
vt 0.200372 0.890625
vt 0.212141 0.808709
vt 0.201823 0.808709
vt 0.201823 0.802474
vt 0.212140 0.802474
vt 0.186476 0.886667
vt 0.197170 0.886667
vt 0.197170 0.890625
vt 0.186476 0.890625
vt 0.187816 0.825418
vt 0.187816 0.819932
vt 0.198596 0.819932
vt 0.198597 0.825419
vt 0.212141 0.825418
vt 0.212141 0.819931
vt 0.201824 0.819931
vt 0.187816 0.819932
vt 0.198596 0.812146
vt 0.198596 0.808405
vt 0.187815 0.808406
vt 0.187816 0.812146
vt 0.201823 0.812450
vt 0.201823 0.808709
vt 0.201824 0.817437
vt 0.212141 0.817437
vt 0.212141 0.812450
vt 0.201824 0.812450
vt 0.201824 0.817437
vt 0.201824 0.812450
vt 0.212141 0.812450
vt 0.152639 0.890606
vt 0.148650 0.888604
vt 0.148650 0.884600
vt 0.152639 0.886602
vt 0.198596 0.817437
vt 0.187815 0.817438
vt 0.187815 0.812451
vt 0.198596 0.812450
vt 0.198596 0.812450
vt 0.187815 0.812451
vt 0.187815 0.819395
vt 0.198596 0.819395
vt 0.198596 0.816901
vt 0.187815 0.816902
vt 0.148650 0.888604
vt 0.143332 0.888604
vt 0.143332 0.884600
vt 0.148650 0.884600
vt 0.148652 0.884600
vt 0.143334 0.884600
vt 0.143334 0.888604
vt 0.148652 0.888604
vt 0.143334 0.884600
vt 0.140673 0.886602
vt 0.140673 0.890606
vt 0.143334 0.888604
vt 0.212141 0.819394
vt 0.201824 0.819394
vt 0.201824 0.816901
vt 0.212141 0.816901
vt 0.201824 0.812450
vt 0.201824 0.817437
vt 0.143334 0.888604
vt 0.200373 0.890625
vt 0.200373 0.890625
vt 0.200373 0.886667
vt 0.212141 0.808709
vt 0.212140 0.802474
vt 0.201823 0.802474
vt 0.159286 0.890606
vt 0.152639 0.890606
vt 0.152639 0.886602
vt 0.159286 0.886602
vt 0.187815 0.802475
vt 0.212141 0.812146
vt 0.212141 0.808405
vt 0.201823 0.808405
vt 0.201823 0.812146
vt 0.152640 0.886602
vt 0.148651 0.884600
vt 0.148652 0.888604
vt 0.152640 0.890606
vt 0.187816 0.812146
vt 0.187815 0.808406
vt 0.198596 0.808405
vt 0.198596 0.812146
vt 0.148651 0.884600
vt 0.148651 0.888604
vt 0.152640 0.890606
vt 0.212141 0.819395
vt 0.212141 0.816901
vt 0.201824 0.816901
vt 0.201824 0.817437
vt 0.201824 0.819931
vt 0.201824 0.819931
vt 0.198596 0.819396
vt 0.187815 0.819395
vt 0.187815 0.816902
vt 0.198596 0.816901
vt 0.143333 0.888604
vt 0.140674 0.890606
vt 0.140674 0.886602
vt 0.143333 0.884600
vt 0.143334 0.884600
vt 0.140675 0.886602
vt 0.140675 0.890606
vt 0.143334 0.888604
vt 0.201823 0.812146
vt 0.201823 0.808405
vt 0.212141 0.808405
vt 0.212141 0.812146
vt 0.140674 0.890606
vt 0.134824 0.890606
vt 0.134824 0.886602
vt 0.140674 0.886602
s 1
usemtl keys_mp_1
f 1/1/1 3/2/1 59/3/1 58/4/1
f 26/5/2 27/6/3 84/7/3 83/8/2
f 52/9/4 51/10/5 108/11/5 109/12/4
f 57/13/6 56/14/7 113/15/7 114/16/6
f 53/17/8 52/9/4 109/12/4 110/18/8
f 54/19/9 53/17/8 110/18/8 111/20/9
f 32/21/10 28/22/10 30/23/10 31/24/10
f 55/25/11 54/19/9 111/20/9 112/26/11
f 33/27/12 31/28/12 88/29/12 90/30/12
f 56/14/7 55/31/11 112/32/11 113/15/7
f 62/33/13 65/34/13 91/35/13 89/36/13
f 8/37/14 10/38/14 67/39/14 64/40/14
f 36/41/15 34/42/15 92/43/15 94/44/15
f 34/45/16 33/46/16 90/47/16 92/48/16
f 40/49/17 41/50/17 56/51/17 57/52/17 27/53/17 14/54/17 13/55/17
f 91/56/18 65/57/18 66/58/18 93/59/18
f 9/60/19 37/61/19 39/62/20 11/63/21
f 11/63/22 39/62/23 40/64/24 13/65/25
f 38/66/26 36/67/27 94/68/27 96/69/28
f 70/70/13 114/52/13 97/71/13
f 50/72/17 47/73/17 48/74/17 49/75/17
f 40/76/29 38/66/30 96/69/31 97/77/32
f 21/78/33 22/10/34 79/11/34 78/79/33
f 112/80/13 111/81/13 100/82/13 99/83/13
f 46/84/17 51/85/17 52/86/17 45/87/17
f 107/72/13 106/75/13 105/74/13 104/73/13
f 77/88/13 105/74/13 106/75/13 78/89/13
f 50/78/35 49/90/36 106/91/36 107/79/35
f 22/10/34 23/9/37 80/12/37 79/11/34
f 20/92/38 48/13/39 105/16/39 77/93/38
f 23/9/37 24/17/40 81/18/40 80/12/37
f 24/17/40 25/19/41 82/20/41 81/18/40
f 25/19/41 26/25/2 83/26/2 82/20/41
f 51/10/5 50/78/35 107/79/35 108/11/5
f 5/94/42 6/95/42 63/96/42 61/97/42
f 93/98/43 66/99/43 69/100/43 95/101/43
f 31/102/44 30/103/44 87/104/44 88/105/44
f 4/106/45 7/107/45 6/108/45 5/109/45
f 10/110/46 12/66/47 68/69/46 67/111/46
f 41/112/48 40/76/49 97/77/49 98/113/48
f 29/114/36 1/115/36 58/116/36 85/117/36
f 6/118/50 8/119/50 64/120/50 63/121/50
f 62/122/13 89/123/13 86/124/13 60/125/13
f 30/126/51 29/127/51 85/128/51 87/129/51
f 14/112/52 15/130/53 72/131/53 71/113/52
f 47/132/54 104/133/54 105/16/39 48/13/39
f 114/52/13 113/51/13 98/50/13 97/134/13
f 95/101/55 69/100/55 70/135/56 97/136/57
f 12/66/58 13/76/59 70/77/60 68/69/61
f 9/137/62 10/138/62 8/139/62 7/140/62
f 15/130/53 16/141/63 73/142/63 72/131/53
f 16/141/63 17/143/64 74/144/64 73/142/63
f 17/143/64 18/145/65 75/146/65 74/144/64
f 18/145/65 19/147/66 76/148/66 75/146/65
f 19/147/66 20/149/38 77/150/38 76/148/66
f 13/76/67 14/112/52 71/113/52 70/77/67
f 42/130/68 41/112/48 98/113/48 99/131/68
f 43/141/69 42/130/68 99/131/68 100/142/69
f 44/143/70 43/141/69 100/142/69 101/144/70
f 45/145/71 44/143/70 101/144/70 102/146/71
f 46/147/72 45/145/71 102/146/71 103/148/72
f 47/149/54 46/147/72 103/148/72 104/150/54
f 2/151/73 3/152/73 1/153/73
f 2/154/17 28/155/17 32/156/17 4/157/17
f 35/158/74 32/159/74 31/160/74 33/161/74
f 7/162/75 8/163/75 6/164/75
f 37/165/76 35/166/76 34/167/76 36/168/76
f 9/169/77 11/63/78 12/170/79 10/171/77
f 11/63/80 13/172/81 12/170/82
f 25/173/17 24/174/17 17/175/17 16/176/17
f 53/177/17 54/81/17 43/82/17 44/178/17
f 45/87/17 52/86/17 53/177/17 44/178/17
f 46/84/17 47/73/17 50/72/17 51/85/17
f 21/89/17 49/75/17 48/74/17 20/88/17
f 104/73/13 103/84/13 108/85/13 107/72/13
f 84/53/13 114/52/13 70/172/13 71/54/13
f 43/82/17 54/81/17 55/80/17 42/83/17
f 28/179/83 29/180/83 30/181/83
f 88/182/84 87/183/84 86/184/84 89/185/84
f 61/186/85 63/187/85 65/188/85 62/189/85
f 35/190/86 33/191/86 34/192/86
f 64/193/87 67/194/87 66/195/87 65/196/87
f 39/62/88 37/197/89 36/198/89 38/199/90
f 40/200/91 39/62/92 38/199/93
f 17/175/17 24/174/17 23/201/17 18/202/17
f 18/202/17 23/201/17 22/203/17 19/204/17
f 22/203/17 21/89/17 20/88/17 19/204/17
f 15/205/17 26/206/17 25/173/17 16/176/17
f 56/51/17 41/50/17 42/83/17 55/80/17
f 15/205/17 14/54/17 27/53/17 26/206/17
f 28/207/94 2/208/94 1/209/94 29/210/94
f 58/211/95 59/212/95 60/213/95
f 2/214/96 4/215/96 5/216/96 3/217/96
f 90/218/97 88/219/97 89/220/97 91/221/97
f 63/222/98 64/223/98 65/224/98
f 94/225/99 92/226/99 91/227/99 93/228/99
f 67/229/100 68/170/100 69/100/100 66/230/100
f 68/170/101 70/231/102 69/100/101
f 81/174/13 82/173/13 73/176/13 74/175/13
f 111/81/13 110/177/13 101/178/13 100/82/13
f 79/203/13 80/201/13 75/202/13 76/204/13
f 99/83/13 98/50/13 113/51/13 112/80/13
f 71/54/13 72/205/13 83/206/13 84/53/13
f 87/232/103 85/233/103 86/234/103
f 59/217/104 61/235/104 62/236/104 60/214/104
f 92/237/105 90/238/105 91/239/105
f 96/199/106 94/240/107 93/241/107 95/101/107
f 97/49/108 96/199/109 95/101/110
f 82/173/13 83/206/13 72/205/13 73/176/13
f 110/177/13 109/86/13 102/87/13 101/178/13
f 109/86/13 108/85/13 103/84/13 102/87/13
f 80/201/13 81/174/13 74/175/13 75/202/13
f 27/6/3 57/13/6 114/16/6 84/7/3
f 76/204/13 77/88/13 78/89/13 79/203/13
f 85/242/111 58/243/111 60/244/111 86/245/111
f 3/246/112 5/247/112 61/248/112 59/104/112
f 49/90/36 21/78/33 78/79/33 106/91/36
f 32/249/17 35/250/17 7/251/17 4/252/17
f 35/253/113 37/254/113 9/255/113 7/256/113
f 161/257/114 124/258/114 126/259/114 162/260/114
f 155/261/36 127/262/36 128/263/36 157/264/36
f 120/265/114 147/266/114 148/267/114 122/268/114
f 149/269/17 147/270/17 120/271/17 119/272/17
f 158/273/39 130/274/39 129/275/39 156/276/39
f 130/277/13 158/278/13 157/279/13 128/280/13
f 117/281/115 115/282/115 116/283/115 118/284/115
f 151/285/13 152/286/13 118/287/13 116/288/13
f 119/289/44 120/290/44 122/291/44 121/292/44
f 125/293/13 160/294/13 162/295/13 126/296/13
f 127/297/17 155/298/17 156/299/17 129/277/17
f 124/296/17 161/295/17 159/300/17 123/293/17
f 136/301/116 147/302/116 149/303/116 135/304/116
f 152/286/39 134/305/39 133/305/39 154/306/39
f 144/307/17 143/308/17 131/309/17 133/310/17
f 145/308/13 146/311/13 134/312/13 132/313/13
f 115/265/36 153/266/36 151/267/36 116/268/36
f 150/314/117 137/315/117 135/316/117 149/317/117
f 142/318/13 140/319/13 137/320/13 138/321/13
f 139/319/17 141/318/17 136/322/17 135/323/17
f 159/324/118 161/325/118 141/326/118 139/327/118
f 137/328/117 140/329/117 139/330/117 135/331/117
f 136/332/114 141/333/114 142/334/114 138/335/114
f 141/336/114 161/337/114 162/338/114 142/339/114
f 157/340/119 158/341/119 146/342/119 145/343/119
f 134/344/39 146/345/39 144/345/39 133/344/39
f 131/332/36 143/333/36 145/346/36 132/335/36
f 118/347/39 152/348/39 154/349/39 117/349/39
f 154/286/17 153/350/17 115/351/17 117/352/17
f 121/353/117 150/354/117 149/355/117 119/356/117
f 148/270/13 150/269/13 121/357/13 122/271/13
f 131/358/116 153/359/116 154/360/116 133/361/116
f 153/362/36 131/363/36 132/364/36 151/365/36
f 137/366/120 150/367/120 148/368/120 138/369/120
f 147/362/114 136/370/114 138/371/114 148/372/114
f 156/341/118 155/373/118 143/374/118 144/375/118
f 146/376/39 158/377/39 156/378/39 144/376/39
f 162/379/119 160/380/119 140/381/119 142/382/119
f 140/383/117 160/384/117 159/385/117 139/386/117
f 143/387/36 155/388/36 157/389/36 145/390/36
f 134/391/120 152/392/120 151/393/120 132/394/120
f 160/395/117 125/396/117 123/397/117 159/398/117
