# Blender 5.0.1
# www.blender.org
mtllib keycard_1.mtl
o keycard_1
v -0.068397 0.001800 0.039000
v -0.065397 0.001800 0.042000
v 0.060597 0.001800 0.042000
v 0.063597 0.001800 0.039000
v -0.065397 0.001800 -0.043200
v -0.068397 0.001800 -0.040200
v 0.063597 0.001800 -0.040200
v 0.060597 0.001800 -0.043200
v -0.068397 0.000000 -0.040200
v -0.065397 0.000000 -0.043200
v -0.065397 0.000000 0.042000
v -0.068397 0.000000 0.039000
v 0.063597 0.000000 0.039000
v 0.060597 0.000000 0.042000
v 0.060597 0.000000 -0.043200
v 0.063597 0.000000 -0.040200
vn -0.0000 -0.0000 -1.0000
vn -0.0000 -0.0000 1.0000
vn 1.0000 -0.0000 -0.0000
vn -0.0000 -1.0000 -0.0000
vn -0.0000 1.0000 -0.0000
vn -0.7071 -0.0000 -0.7071
vn 0.7071 -0.0000 -0.7071
vn 0.7071 -0.0000 0.7071
vn -0.7071 -0.0000 0.7071
vn -1.0000 -0.0000 -0.0000
vt 0.601829 0.785156
vt 0.601829 0.781250
vt 0.448953 0.781250
vt 0.448953 0.785156
vt 0.448953 0.781250
vt 0.601829 0.785156
vt 0.448953 0.785156
vt 0.472876 0.785156
vt 0.472876 0.781250
vt 0.581811 0.781250
vt 0.581811 0.785156
vt 0.601829 0.789062
vt 0.605469 0.792776
vt 0.605469 0.890818
vt 0.601829 0.894531
vt 0.448953 0.894531
vt 0.445312 0.890818
vt 0.445312 0.792776
vt 0.448953 0.789062
vt 0.445312 0.898245
vt 0.605469 0.898245
vt 0.605469 0.996286
vt 0.601829 1.000000
vt 0.448953 1.000000
vt 0.445312 0.996286
vt 0.445312 0.781250
vt 0.445312 0.785156
vt 0.585938 0.781250
vt 0.585938 0.785156
vt 0.468750 0.785156
vt 0.468750 0.781250
vt 0.472876 0.781250
vt 0.472876 0.785156
s 0
usemtl keys_mp_1
f 8/1/1 15/2/1 10/3/1 5/4/1
f 11/5/2 14/2/2 3/6/2 2/7/2
f 4/8/3 13/9/3 16/10/3 7/11/3
f 11/12/4 12/13/4 9/14/4 10/15/4 15/16/4 16/17/4 13/18/4 14/19/4
f 1/20/5 2/16/5 3/15/5 4/21/5 7/22/5 8/23/5 5/24/5 6/25/5
f 9/26/6 6/27/6 5/4/6 10/3/6
f 7/11/7 16/10/7 15/28/7 8/29/7
f 13/9/8 4/8/8 3/30/8 14/31/8
f 1/27/9 12/26/9 11/5/9 2/7/9
f 9/10/10 12/32/10 1/33/10 6/11/10
