# Blender 5.0.1
# www.blender.org
mtllib keycard_1_2.mtl
o keycard_1_2
v -0.068397 0.001800 0.039000
v -0.065397 0.001800 0.042000
v 0.060597 0.001800 0.042000
v 0.063597 0.001800 0.039000
v -0.065397 0.001800 -0.043200
v -0.068397 0.001800 -0.040200
v 0.063597 0.001800 -0.040200
v 0.060597 0.001800 -0.043200
v -0.068397 0.000000 -0.040200
v -0.065397 0.000000 -0.043200
v -0.065397 0.000000 0.042000
v -0.068397 0.000000 0.039000
v 0.063597 0.000000 0.039000
v 0.060597 0.000000 0.042000
v 0.060597 0.000000 -0.043200
v 0.063597 0.000000 -0.040200
vn -0.0000 -0.0000 -1.0000
vn -0.0000 -0.0000 1.0000
vn 1.0000 -0.0000 -0.0000
vn -0.0000 -1.0000 -0.0000
vn -0.0000 1.0000 -0.0000
vn -0.7071 -0.0000 -0.7071
vn 0.7071 -0.0000 -0.7071
vn 0.7071 -0.0000 0.7071
vn -0.7071 -0.0000 0.7071
vn -1.0000 -0.0000 -0.0000
vt 0.601829 0.339844
vt 0.601829 0.335938
vt 0.448953 0.335938
vt 0.448953 0.339844
vt 0.448953 0.335938
vt 0.601829 0.335938
vt 0.601829 0.339844
vt 0.448953 0.339844
vt 0.472876 0.339844
vt 0.472876 0.335938
vt 0.581811 0.335938
vt 0.581811 0.339844
vt 0.601829 0.343750
vt 0.605469 0.347464
vt 0.605469 0.445505
vt 0.601829 0.449219
vt 0.448953 0.449219
vt 0.445312 0.445505
vt 0.445312 0.347464
vt 0.448953 0.343750
vt 0.445312 0.452932
vt 0.448953 0.449219
vt 0.601829 0.449219
vt 0.605469 0.452932
vt 0.605469 0.550974
vt 0.601829 0.554688
vt 0.448953 0.554688
vt 0.445312 0.550974
vt 0.445312 0.335938
vt 0.445312 0.339844
vt 0.585938 0.335938
vt 0.585938 0.339844
vt 0.468750 0.339844
vt 0.468750 0.335938
vt 0.472876 0.335938
vt 0.472876 0.339844
s 0
usemtl keys_mp_1
f 8/1/1 15/2/1 10/3/1 5/4/1
f 11/5/2 14/6/2 3/7/2 2/8/2
f 4/9/3 13/10/3 16/11/3 7/12/3
f 11/13/4 12/14/4 9/15/4 10/16/4 15/17/4 16/18/4 13/19/4 14/20/4
f 1/21/5 2/22/5 3/23/5 4/24/5 7/25/5 8/26/5 5/27/5 6/28/5
f 9/29/6 6/30/6 5/4/6 10/3/6
f 7/12/7 16/11/7 15/31/7 8/32/7
f 13/10/8 4/9/8 3/33/8 14/34/8
f 1/30/9 12/29/9 11/5/9 2/8/9
f 9/11/10 12/35/10 1/36/10 6/12/10
