# Blender 5.0.1
# www.blender.org
mtllib keycard_1_3.mtl
o keycard_1_3
v -0.068397 0.001800 0.039000
v -0.065397 0.001800 0.042000
v 0.060597 0.001800 0.042000
v 0.063597 0.001800 0.039000
v -0.065397 0.001800 -0.043200
v -0.068397 0.001800 -0.040200
v 0.063597 0.001800 -0.040200
v 0.060597 0.001800 -0.043200
v -0.068397 0.000000 -0.040200
v -0.065397 0.000000 -0.043200
v -0.065397 0.000000 0.042000
v -0.068397 0.000000 0.039000
v 0.063597 0.000000 0.039000
v 0.060597 0.000000 0.042000
v 0.060597 0.000000 -0.043200
v 0.063597 0.000000 -0.040200
vn -0.0000 -0.0000 -1.0000
vn -0.0000 -0.0000 1.0000
vn 1.0000 -0.0000 -0.0000
vn -0.0000 -1.0000 -0.0000
vn -0.0000 1.0000 -0.0000
vn -0.7071 -0.0000 -0.7071
vn 0.7071 -0.0000 -0.7071
vn 0.7071 -0.0000 0.7071
vn -0.7071 -0.0000 0.7071
vn -1.0000 -0.0000 -0.0000
vt 0.601829 0.117188
vt 0.601829 0.113281
vt 0.448953 0.113281
vt 0.448953 0.117188
vt 0.448953 0.113281
vt 0.448953 0.117188
vt 0.472876 0.117188
vt 0.472876 0.113281
vt 0.581811 0.113281
vt 0.581811 0.117188
vt 0.601829 0.121094
vt 0.605469 0.124807
vt 0.605469 0.222849
vt 0.601829 0.226562
vt 0.448953 0.226562
vt 0.445312 0.222849
vt 0.445312 0.124807
vt 0.448953 0.121094
vt 0.445312 0.230276
vt 0.605469 0.230276
vt 0.605469 0.328318
vt 0.601829 0.332031
vt 0.448953 0.332031
vt 0.445312 0.328318
vt 0.445312 0.113281
vt 0.445312 0.117188
vt 0.585938 0.113281
vt 0.585938 0.117188
vt 0.468750 0.117188
vt 0.468750 0.113281
vt 0.472876 0.113281
vt 0.472876 0.117188
s 0
usemtl keys_mp_1
f 8/1/1 15/2/1 10/3/1 5/4/1
f 11/5/2 14/2/2 3/1/2 2/6/2
f 4/7/3 13/8/3 16/9/3 7/10/3
f 11/11/4 12/12/4 9/13/4 10/14/4 15/15/4 16/16/4 13/17/4 14/18/4
f 1/19/5 2/15/5 3/14/5 4/20/5 7/21/5 8/22/5 5/23/5 6/24/5
f 9/25/6 6/26/6 5/4/6 10/3/6
f 7/10/7 16/9/7 15/27/7 8/28/7
f 13/8/8 4/7/8 3/29/8 14/30/8
f 1/26/9 12/25/9 11/5/9 2/6/9
f 9/9/10 12/31/10 1/32/10 6/10/10
