# Blender 5.0.1
# www.blender.org
mtllib keycard_1_authorization_level_2.mtl
o keycard_1_authorization_level_2
v -0.068397 0.001800 0.039000
v -0.065397 0.001800 0.042000
v 0.060597 0.001800 0.042000
v 0.063597 0.001800 0.039000
v -0.065397 0.001800 -0.043200
v -0.068397 0.001800 -0.040200
v 0.063597 0.001800 -0.040200
v 0.060597 0.001800 -0.043200
v -0.068397 0.000000 -0.040200
v -0.065397 0.000000 -0.043200
v -0.065397 0.000000 0.042000
v -0.068397 0.000000 0.039000
v 0.063597 0.000000 0.039000
v 0.060597 0.000000 0.042000
v 0.060597 0.000000 -0.043200
v 0.063597 0.000000 -0.040200
vn -0.0000 -0.0000 -1.0000
vn -0.0000 -0.0000 1.0000
vn 1.0000 -0.0000 -0.0000
vn -0.0000 -1.0000 -0.0000
vn -0.0000 1.0000 -0.0000
vn -0.7071 -0.0000 -0.7071
vn 0.7071 -0.0000 -0.7071
vn 0.7071 -0.0000 0.7071
vn -0.7071 -0.0000 0.7071
vn -1.0000 -0.0000 -0.0000
vt 0.769797 0.562500
vt 0.769797 0.558594
vt 0.616921 0.558594
vt 0.616921 0.562500
vt 0.616921 0.558594
vt 0.769797 0.558594
vt 0.616921 0.562500
vt 0.640845 0.562500
vt 0.640845 0.558594
vt 0.749780 0.558594
vt 0.749780 0.562500
vt 0.769797 0.566406
vt 0.773438 0.570120
vt 0.773438 0.668161
vt 0.769797 0.671875
vt 0.616921 0.671875
vt 0.613281 0.668161
vt 0.613281 0.570120
vt 0.616921 0.566406
vt 0.613281 0.675589
vt 0.616921 0.671875
vt 0.769797 0.671875
vt 0.773438 0.675589
vt 0.773438 0.773630
vt 0.769797 0.777344
vt 0.616921 0.777344
vt 0.613281 0.773630
vt 0.613281 0.558594
vt 0.613281 0.562500
vt 0.753906 0.558594
vt 0.753906 0.562500
vt 0.636719 0.562500
vt 0.636719 0.558594
s 0
usemtl keys_mp_1
f 8/1/1 15/2/1 10/3/1 5/4/1
f 11/5/2 14/6/2 3/1/2 2/7/2
f 4/8/3 13/9/3 16/10/3 7/11/3
f 11/12/4 12/13/4 9/14/4 10/15/4 15/16/4 16/17/4 13/18/4 14/19/4
f 1/20/5 2/21/5 3/22/5 4/23/5 7/24/5 8/25/5 5/26/5 6/27/5
f 9/28/6 6/29/6 5/4/6 10/3/6
f 7/11/7 16/10/7 15/30/7 8/31/7
f 13/9/8 4/8/8 3/32/8 14/33/8
f 1/29/9 12/28/9 11/5/9 2/7/9
f 9/10/10 12/9/10 1/8/10 6/11/10
