# Blender 5.0.1
# www.blender.org
mtllib lighter_mp_1.mtl
o lighter_mp_1
v -0.018000 0.004957 0.072000
v -0.014044 0.001000 0.072000
v 0.016108 0.001000 0.072000
v 0.020000 0.004891 0.072000
v -0.014044 0.019000 0.072000
v -0.018000 0.015043 0.072000
v 0.020000 0.015109 0.072000
v 0.016108 0.019000 0.072000
v 0.016097 0.001000 -0.044000
v 0.020000 0.004903 -0.044000
v 0.020000 0.015097 -0.044000
v 0.016097 0.019000 -0.044000
v -0.018000 0.004971 -0.044000
v -0.014029 0.001000 -0.044000
v -0.014029 0.019000 -0.044000
v -0.018000 0.015029 -0.044000
v -0.015015 0.000000 -0.052000
v -0.019000 0.003985 -0.052000
v 0.017096 -0.000000 -0.044000
v 0.020999 0.003903 -0.044000
v -0.015016 0.020000 -0.052000
v -0.019000 0.016015 -0.052000
v 0.017108 0.020000 -0.052000
v 0.021000 0.016109 -0.052000
v -0.015015 0.020000 -0.044000
v -0.019000 0.016015 -0.044000
v 0.017097 0.020000 -0.044000
v 0.020999 0.016097 -0.044000
v 0.021000 0.003891 -0.052000
v 0.017108 0.000000 -0.052000
v -0.019000 0.003985 -0.044000
v -0.015015 0.000000 -0.044000
v 0.010000 0.017038 -0.065880
v 0.010000 0.002962 -0.065880
v 0.010000 0.001000 -0.052000
v 0.010000 0.019000 -0.052000
v -0.014029 0.001000 -0.052000
v -0.018000 0.004972 -0.052000
v -0.018000 0.015029 -0.052000
v -0.014029 0.019000 -0.052000
v 0.010000 0.019000 -0.063000
v 0.010000 0.001000 -0.063000
v -0.018000 0.004957 -0.072000
v -0.014044 0.001000 -0.072000
v -0.014044 0.019000 -0.072000
v -0.018000 0.015043 -0.072000
v -0.001426 0.002962 -0.072000
v -0.001426 0.017038 -0.072000
v 0.019998 0.017000 -0.062000
v 0.019998 0.003000 -0.062000
v 0.010000 0.003000 -0.053000
v 0.010000 0.017000 -0.053000
v 0.010000 0.017000 -0.061000
v 0.010000 0.003000 -0.061000
v 0.019998 0.003000 -0.058000
v 0.019998 0.017000 -0.058000
v 0.017992 0.005160 -0.056999
v 0.017992 0.014840 -0.056999
v 0.009998 0.005160 -0.053000
v 0.009998 0.014840 -0.053000
v 0.009998 0.005160 -0.052000
v 0.009998 0.014840 -0.052000
v 0.017992 0.005160 -0.052000
v 0.017992 0.014840 -0.052000
v 0.009241 0.016000 -0.064055
v 0.005001 0.016000 -0.062299
v 0.010997 0.016000 -0.068295
v 0.009241 0.004000 -0.064055
v 0.010997 0.004000 -0.068295
v 0.000753 0.004000 -0.072543
v -0.001000 0.004000 -0.068303
v 0.004992 0.004000 -0.074299
v 0.000753 0.016000 -0.072543
v 0.004992 0.016000 -0.074299
v 0.000760 0.004000 -0.064055
v 0.005001 0.004000 -0.062299
v 0.000760 0.016000 -0.064055
v -0.001000 0.016000 -0.068295
v 0.009241 0.004000 -0.072543
v 0.009241 0.016000 -0.072543
v 0.007036 0.016000 -0.070338
v 0.005001 0.016000 -0.065416
v 0.007880 0.016000 -0.068296
v 0.007036 0.016000 -0.066259
v 0.007880 0.004000 -0.068296
v 0.007036 0.004000 -0.066259
v 0.007036 0.004000 -0.070338
v 0.002117 0.004000 -0.068304
v 0.004993 0.004000 -0.071182
v 0.002959 0.004000 -0.070339
v 0.004993 0.016000 -0.071182
v 0.002960 0.016000 -0.070340
v 0.002117 0.016000 -0.068298
v 0.002963 0.016000 -0.066260
v 0.005001 0.004000 -0.065416
v 0.002964 0.004000 -0.066260
v 0.007036 0.017000 -0.066259
v 0.005001 0.017000 -0.065416
v 0.007880 0.017000 -0.068296
v 0.002960 0.017000 -0.070340
v 0.004993 0.017000 -0.071182
v 0.002963 0.017000 -0.066260
v 0.002117 0.017000 -0.068298
v 0.007036 0.017000 -0.070338
v 0.007036 0.003000 -0.066259
v 0.007880 0.003000 -0.068296
v 0.002959 0.003000 -0.070339
v 0.002117 0.003000 -0.068304
v 0.004993 0.003000 -0.071182
v 0.002964 0.003000 -0.066260
v 0.005001 0.003000 -0.065416
v 0.007036 0.003000 -0.070338
v 0.007000 0.001000 -0.072000
v 0.010000 0.001000 -0.069000
v 0.010000 0.019000 -0.069000
v 0.007000 0.019000 -0.072000
v 0.007000 0.017038 -0.072000
v 0.010000 0.017038 -0.069000
v 0.010000 0.002962 -0.069000
v 0.007000 0.002962 -0.072000
vn -0.0000 -0.0000 1.0000
vn -0.9239 -0.3826 -0.0000
vn -0.9239 -0.3827 -0.0000
vn -0.9239 0.3827 -0.0000
vn -0.9239 0.3826 -0.0000
vn 0.9239 -0.3827 -0.0000
vn 0.9239 -0.3826 -0.0000
vn 0.9239 0.3827 -0.0000
vn -0.3827 0.9239 -0.0000
vn 0.3827 0.9239 -0.0000
vn -0.0000 -0.0000 -1.0000
vn 0.3824 0.9240 0.0006
vn 0.3830 0.9238 0.0006
vn 0.9238 -0.3830 0.0006
vn 0.9238 0.3830 0.0006
vn 0.9240 0.3824 0.0006
vn 0.9240 -0.3824 0.0006
vn -0.3827 -0.9239 -0.0000
vn 0.3830 -0.9237 0.0006
vn 0.3824 -0.9240 0.0006
vn 0.3827 -0.9239 -0.0000
vn -1.0000 -0.0000 -0.0000
vn 1.0000 -0.0000 -0.0000
vn -0.7071 -0.7071 0.0005
vn -0.7071 0.7071 0.0005
vn -0.0000 1.0000 -0.0000
vn -0.0000 -1.0000 -0.0000
vn 0.4722 -0.0000 -0.8815
vn 0.0001 -0.0000 1.0000
vn 0.7071 -0.0000 0.7071
vn 1.0000 -0.0000 0.0003
vn -0.0004 -0.0000 -1.0000
vn 0.7071 -0.0000 -0.7071
vn -1.0000 -0.0000 0.0005
vn -1.0000 -0.0000 0.0008
vn -0.7075 0.0001 -0.7067
vn -0.7070 -0.0001 0.7073
vn -0.0995 -0.0000 -0.9950
vn 0.4473 -0.0000 0.8944
vn -0.7076 -0.0000 -0.7066
vn -1.0000 -0.0000 0.0010
vn -0.7068 -0.0000 0.7074
vn -1.0000 -0.0000 0.0003
vn -0.7074 -0.0000 -0.7068
vn -0.7071 -0.0000 0.7071
vt 0.333333 0.027023
vt 0.254386 0.027021
vt 0.271454 0.000000
vt 0.316267 0.000000
vt 0.231759 0.805555
vt 0.231822 0.000000
vt 0.187587 0.000000
vt 0.187649 0.805555
vt 0.232110 0.000000
vt 0.232060 0.805556
vt 0.187347 0.805555
vt 0.187297 0.000000
vt 0.017355 0.000000
vt 0.149600 0.000000
vt 0.149550 0.805556
vt 0.017418 0.805556
vt 0.255043 0.779938
vt 0.333333 0.779940
vt 0.333333 0.580835
vt 0.255043 0.580834
vt 0.316990 0.571597
vt 0.283010 0.571597
vt 0.279676 0.566321
vt 0.320323 0.566320
vt 0.330000 0.751196
vt 0.330000 0.592196
vt 0.333333 0.586918
vt 0.333333 0.756400
vt 0.013094 0.805556
vt 0.153935 0.805555
vt 0.153986 0.861111
vt 0.013091 0.861111
vt 0.236497 0.861111
vt 0.182912 0.861111
vt 0.182963 0.805556
vt 0.236446 0.805556
vt 0.013093 0.861111
vt 0.153987 0.861111
vt 0.153933 0.805556
vt 0.013090 0.805556
vt 0.236086 0.805556
vt 0.183322 0.805556
vt 0.183322 0.861111
vt 0.236086 0.861111
vt 0.283238 0.772156
vt 0.316762 0.772156
vt 0.320050 0.777431
vt 0.279949 0.777431
vt 0.269999 0.592195
vt 0.269999 0.751197
vt 0.266666 0.756401
vt 0.266666 0.586920
vt 0.017417 0.805556
vt 0.017355 0.000000
vt 0.000001 0.000000
vt 0.000001 0.805556
vt 0.187648 0.805555
vt 0.170231 0.000000
vt 0.170231 0.805556
vt 0.149601 0.000000
vt 0.149551 0.805556
vt 0.166667 0.805556
vt 0.166667 0.000000
vt 0.170231 0.805555
vt 0.270642 0.804635
vt 0.317735 0.804637
vt 0.175442 0.805555
vt 0.175439 0.861111
vt 0.149123 0.861111
vt 0.149120 0.805556
vt 0.000001 0.861111
vt 0.000000 0.805555
vt 0.026316 0.805556
vt 0.026316 0.861111
vt 0.149120 0.805556
vt 0.175443 0.805556
vt 0.026316 0.805556
vt 0.000000 0.805556
vt 0.017418 0.805555
vt 0.149551 0.805556
vt 0.254386 0.236411
vt 0.333333 0.236410
vt 0.271742 0.263889
vt 0.315978 0.263889
vt 0.318101 0.556717
vt 0.270276 0.556717
vt 0.232456 1.000000
vt 0.232456 0.861111
vt 0.184211 0.861111
vt 0.184211 1.000000
vt 0.254386 0.500000
vt 0.263158 0.416667
vt 0.263158 0.360965
vt 0.254386 0.360954
vt 0.333333 0.500000
vt 0.324562 0.416667
vt 0.333333 0.402778
vt 0.254386 0.402778
vt 0.254386 0.486111
vt 0.333333 0.486111
vt 0.324562 0.360965
vt 0.333333 0.360954
vt 0.250000 1.000000
vt 0.250000 0.861111
vt 0.227248 0.861111
vt 0.227248 1.000000
vt 0.189419 1.000000
vt 0.189419 0.861111
vt 0.166667 0.861111
vt 0.166667 1.000000
vt 0.263521 0.402778
vt 0.324198 0.402778
vt 0.333333 0.423611
vt 0.254386 0.423611
vt 0.122807 0.937500
vt 0.122807 0.979167
vt 0.109650 1.000000
vt 0.017356 1.000000
vt 0.017418 0.861111
vt 0.122807 0.861111
vt 0.017418 0.861111
vt 0.017355 1.000000
vt 0.109649 1.000000
vt 0.122807 0.979167
vt 0.122807 0.937500
vt 0.122807 0.861111
vt 0.324370 0.402282
vt 0.324370 0.378032
vt 0.333333 0.377679
vt 0.271930 0.527778
vt 0.315790 0.527778
vt 0.320702 0.354167
vt 0.320702 0.340822
vt 0.320702 0.348611
vt 0.320702 0.412674
vt 0.324562 0.902778
vt 0.263158 0.902778
vt 0.263158 1.000000
vt 0.324562 1.000000
vt 0.267018 0.340822
vt 0.267018 0.354167
vt 0.267018 0.412674
vt 0.267018 0.348611
vt 0.324562 0.319444
vt 0.263158 0.319444
vt 0.263158 0.361111
vt 0.324562 0.361111
vt 0.324562 0.402778
vt 0.263158 0.402778
vt 0.263158 0.361111
vt 0.324562 0.361111
vt 0.324562 0.402778
vt 0.263158 0.402778
vt 0.122807 0.916667
vt 0.166667 0.916667
vt 0.166667 0.888889
vt 0.240741 0.833333
vt 0.240741 0.861111
vt 0.175926 0.861111
vt 0.175926 0.833333
vt 0.268519 0.868056
vt 0.268519 0.798623
vt 0.333333 0.798623
vt 0.333333 0.868056
vt 0.263158 0.781112
vt 0.324562 0.781112
vt 0.324562 0.861111
vt 0.263158 0.861111
vt 0.272629 0.844589
vt 0.272145 0.781311
vt 0.272135 0.773038
vt 0.272513 0.827868
vt 0.315574 0.781311
vt 0.315091 0.844589
vt 0.315207 0.827868
vt 0.315585 0.773038
vt 0.315088 0.844588
vt 0.272632 0.844588
vt 0.272632 0.827818
vt 0.315088 0.827818
vt 0.283559 0.513565
vt 0.268401 0.489570
vt 0.268401 0.455576
vt 0.283539 0.431575
vt 0.304962 0.431571
vt 0.320154 0.455588
vt 0.320140 0.489574
vt 0.304988 0.513565
vt 0.305014 0.513551
vt 0.283545 0.513551
vt 0.268387 0.489583
vt 0.268399 0.455608
vt 0.283554 0.431607
vt 0.304988 0.431584
vt 0.320152 0.455556
vt 0.320169 0.489485
vt 0.304138 0.655159
vt 0.275045 0.655159
vt 0.275045 0.632540
vt 0.304138 0.632540
vt 0.333333 0.632540
vt 0.304168 0.632540
vt 0.304168 0.655159
vt 0.333333 0.655159
vt 0.304215 0.632540
vt 0.333296 0.632540
vt 0.333296 0.655159
vt 0.304215 0.655159
vt 0.275054 0.632540
vt 0.275054 0.655159
vt 0.304104 0.632540
vt 0.275057 0.632540
vt 0.275057 0.655159
vt 0.304104 0.655159
vt 0.275105 0.632540
vt 0.275105 0.655159
vt 0.333308 0.632540
vt 0.333308 0.655159
vt 0.333287 0.632540
vt 0.333287 0.655159
vt 0.304255 0.655159
vt 0.333327 0.655159
vt 0.333327 0.632540
vt 0.304255 0.632540
vt 0.275120 0.655159
vt 0.275120 0.632540
vt 0.275048 0.655159
vt 0.275048 0.632540
vt 0.275042 0.655159
vt 0.275042 0.632540
vt 0.333333 0.341131
vt 0.324562 0.341131
vt 0.263158 0.341131
vt 0.254386 0.341131
vt 0.263350 0.378032
vt 0.263350 0.402282
vt 0.254386 0.377679
s 1
usemtl lighters_mp_1
f 8/1/1 3/2/1 4/3/1 7/4/1
f 13/5/2 1/6/3 6/7/4 16/8/5
f 4/9/6 10/10/7 11/11/8 7/12/8
f 5/13/9 8/14/10 12/15/10 15/16/9
f 17/17/11 21/18/11 23/19/11 30/20/11
f 11/21/1 10/22/1 20/23/1 28/24/1
f 15/25/1 12/26/1 27/27/1 25/28/1
f 25/29/9 27/30/12 23/31/13 21/32/9
f 29/33/14 24/34/15 28/35/16 20/36/17
f 17/37/18 30/38/19 19/39/20 32/40/18
f 31/41/3 26/42/4 22/43/4 18/44/3
f 13/45/1 16/46/1 26/47/1 31/48/1
f 9/49/1 14/50/1 32/51/1 19/52/1
f 14/53/18 2/54/18 1/55/3 13/56/2
f 16/57/5 6/7/4 5/58/9 15/59/9
f 15/25/1 25/28/1 26/47/1 16/46/1
f 32/51/1 14/50/1 13/45/1 31/48/1
f 3/60/21 9/61/21 10/62/7 4/63/6
f 7/12/8 11/11/8 12/64/10 8/58/10
f 18/65/11 22/66/11 21/18/11 17/17/11
f 9/49/1 19/52/1 20/23/1 10/22/1
f 28/67/16 24/68/15 23/69/13 27/70/12
f 11/21/1 28/24/1 27/27/1 12/26/1
f 22/71/4 26/72/4 25/73/9 21/74/9
f 19/75/20 30/69/19 29/68/14 20/76/17
f 17/74/18 32/77/18 31/78/3 18/71/3
f 14/79/18 9/80/21 3/60/21 2/54/18
f 2/81/1 3/2/1 8/1/1 5/82/1
f 1/83/1 2/81/1 5/82/1 6/84/1
f 30/20/11 23/19/11 24/85/11 29/86/11
f 43/87/22 38/88/22 39/89/22 46/90/22
f 44/91/11 47/92/11 120/93/11 113/94/11
f 47/92/11 44/91/11 45/95/11 48/96/11
f 42/97/23 41/98/23 36/99/23 35/100/23
f 117/101/11 48/96/11 45/95/11 116/102/11
f 44/103/24 37/104/24 38/105/24 43/106/24
f 46/107/25 39/108/25 40/109/25 45/110/25
f 34/111/23 33/112/23 41/113/23 42/114/23
f 41/115/26 115/116/26 116/117/26 45/118/26 40/119/26 36/120/26
f 37/121/27 44/122/27 113/123/27 114/124/27 42/125/27 35/126/27
f 33/127/23 118/128/23 115/129/23 41/113/23
f 45/95/11 44/91/11 43/130/11 46/131/11
f 117/132/27 118/133/27 33/134/27 48/135/27
f 33/136/28 34/137/28 47/138/28 48/139/28
f 119/140/26 120/141/26 47/142/26 34/143/26
f 66/144/29 76/145/29 68/146/30 65/147/30
f 65/148/30 68/149/30 69/150/31 67/151/31
f 72/145/32 74/144/32 80/147/33 79/146/33
f 79/149/33 80/148/33 67/151/31 69/150/31
f 71/145/34 78/144/35 73/147/36 70/146/36
f 70/146/36 73/147/36 74/152/32 72/153/32
f 76/145/29 66/144/29 77/147/37 75/146/37
f 75/146/37 77/147/37 78/152/35 71/153/34
f 51/126/27 54/154/27 50/155/27 55/156/27
f 55/157/23 50/158/23 49/159/23 56/160/23
f 53/161/38 49/162/38 50/163/38 54/164/38
f 52/126/26 56/156/26 49/155/26 53/154/26
f 52/165/39 51/166/39 55/167/39 56/168/39
f 58/169/26 60/170/26 62/171/26 64/172/26
f 59/173/27 57/174/27 63/175/27 61/176/27
f 57/177/23 58/178/23 64/179/23 63/180/23
f 76/181/27 75/182/27 71/183/27 70/184/27 72/185/27 79/186/27 69/187/27 68/188/27
f 80/189/26 74/190/26 73/191/26 78/192/26 77/193/26 66/194/26 65/195/26 67/196/26
f 85/197/31 86/198/30 105/199/30 106/200/31
f 92/201/40 93/202/41 103/203/41 100/204/40
f 82/205/29 84/206/30 97/207/30 98/208/29
f 93/202/41 94/209/42 102/210/42 103/203/41
f 91/211/32 92/212/40 100/213/40 101/214/32
f 94/215/42 82/205/29 98/208/29 102/216/42
f 83/200/31 81/217/33 104/218/33 99/197/31
f 84/199/30 83/200/31 99/197/31 97/198/30
f 81/219/33 91/211/32 101/214/32 104/220/33
f 87/218/33 85/197/31 106/200/31 112/217/33
f 89/214/32 87/220/33 112/219/33 109/211/32
f 88/221/43 90/222/44 107/223/44 108/224/43
f 86/207/30 95/208/29 111/205/29 105/206/30
f 95/208/29 96/225/45 110/226/45 111/205/29
f 96/227/45 88/221/43 108/224/43 110/228/45
f 90/229/44 89/214/32 109/211/32 107/230/44
f 117/101/33 116/102/33 115/231/33 118/232/33
f 113/94/33 120/93/33 119/233/33 114/234/33
f 119/235/23 34/236/23 42/114/23 114/237/23
