# Blender 5.0.1
# www.blender.org
mtllib meat_1.mtl
o meat_1
v -0.149832 0.045000 0.130500
v -0.171000 0.045000 0.109331
v -0.171000 0.045000 -0.110231
v -0.149832 0.045000 -0.131400
v 0.171000 0.045000 0.109331
v 0.149831 0.045000 0.130500
v 0.149831 0.045000 -0.131400
v 0.171000 0.045000 -0.110231
v -0.134848 0.036000 0.117405
v -0.153900 0.036000 0.098353
v -0.144374 0.036000 0.114853
v -0.151348 0.036000 0.107879
v -0.153900 0.036000 -0.099253
v -0.134848 0.036000 -0.118305
v -0.151348 0.036000 -0.108779
v -0.144374 0.036000 -0.115753
v 0.153900 0.036000 0.098353
v 0.134848 0.036000 0.117405
v 0.151347 0.036000 0.107879
v 0.144374 0.036000 0.114853
v 0.134848 0.036000 -0.118305
v 0.153900 0.036000 -0.099253
v 0.144374 0.036000 -0.115753
v 0.151347 0.036000 -0.108779
v -0.106694 -0.000000 0.084834
v -0.112913 0.006720 0.098234
v -0.109006 0.001968 0.092487
v -0.128814 0.006659 0.082248
v -0.114120 -0.000000 0.077408
v -0.122152 0.001950 0.079316
v -0.120860 0.006684 0.096073
v -0.110841 -0.000000 0.083723
v -0.115705 0.001958 0.090683
v -0.126679 0.006661 0.090222
v -0.113009 -0.000000 0.081555
v -0.120355 0.001951 0.086023
v -0.114120 -0.000000 -0.078308
v -0.128814 0.006659 -0.083148
v -0.122152 0.001950 -0.080216
v -0.112913 0.006720 -0.099134
v -0.106694 -0.000000 -0.085734
v -0.109006 0.001968 -0.093387
v -0.113009 -0.000000 -0.082455
v -0.126679 0.006661 -0.091122
v -0.120355 0.001951 -0.086923
v -0.110841 -0.000000 -0.084623
v -0.120860 0.006684 -0.096973
v -0.115705 0.001958 -0.091583
v 0.114120 -0.000000 0.077408
v 0.128813 0.006659 0.082248
v 0.122151 0.001950 0.079316
v 0.112912 0.006720 0.098234
v 0.106693 -0.000000 0.084834
v 0.109006 0.001968 0.092487
v 0.113009 -0.000000 0.081555
v 0.126678 0.006661 0.090222
v 0.120355 0.001951 0.086023
v 0.110840 -0.000000 0.083723
v 0.120860 0.006684 0.096073
v 0.115705 0.001958 0.090683
v 0.106693 -0.000000 -0.085734
v 0.112912 0.006720 -0.099134
v 0.109006 0.001968 -0.093387
v 0.128813 0.006659 -0.083148
v 0.114120 -0.000000 -0.078308
v 0.122151 0.001950 -0.080216
v 0.110840 -0.000000 -0.084623
v 0.120860 0.006684 -0.096973
v 0.115705 0.001958 -0.091583
v 0.113009 -0.000000 -0.082455
v 0.126678 0.006661 -0.091122
v 0.120355 0.001951 -0.086923
v -0.149832 0.054000 0.130500
v -0.171000 0.054000 0.109331
v -0.149832 0.054000 -0.131400
v -0.171000 0.054000 -0.110231
v 0.171000 0.054000 -0.110231
v 0.149831 0.054000 -0.131400
v 0.149831 0.054000 0.130500
v 0.171000 0.054000 0.109331
v -0.114120 -0.000000 -0.000450
v 0.114120 -0.000000 -0.000450
v 0.114120 -0.000000 -0.076344
v -0.164290 0.045000 0.123790
v -0.164290 0.054000 0.123790
v -0.164290 0.054000 -0.124690
v -0.164290 0.045000 -0.124690
v 0.164290 0.054000 -0.124690
v 0.164290 0.045000 -0.124690
v 0.164290 0.054000 0.123790
v 0.164290 0.045000 0.123790
v -0.148128 0.054000 0.107628
v -0.148128 0.054000 -0.108528
v 0.148128 0.054000 -0.108528
v 0.125339 0.054000 -0.108528
v 0.079761 0.054000 -0.108528
v 0.034183 0.054000 -0.108528
v -0.011396 0.054000 -0.108535
v -0.056978 0.054000 -0.108580
v -0.102551 0.054000 -0.108531
v 0.102561 0.054000 0.107643
v 0.056973 0.054000 0.107630
v 0.011415 0.054000 0.107705
v -0.034181 0.054000 0.107656
v -0.079780 0.054000 0.107684
v -0.125340 0.054000 0.107628
v -0.148128 0.054000 0.091001
v -0.148128 0.054000 0.024491
v -0.148130 0.054000 -0.008764
v -0.148139 0.054000 -0.042022
v -0.148131 0.054000 -0.075274
v 0.148138 0.054000 0.074373
v 0.148199 0.054000 0.041122
v 0.148169 0.054000 0.007865
v 0.148128 0.054000 -0.025391
v 0.148128 0.054000 -0.058646
v 0.125509 0.055947 -0.075384
v 0.125381 0.055301 -0.042020
v 0.125591 0.057325 -0.008814
v 0.126265 0.059976 0.024522
v 0.125854 0.058056 0.057861
v 0.148128 0.054000 0.107628
v 0.080054 0.065825 -0.076367
v 0.080592 0.068500 -0.042331
v 0.080945 0.070686 -0.008827
v 0.080674 0.070859 0.024742
v 0.080461 0.071598 0.059223
v 0.079850 0.059858 0.091556
v 0.034358 0.063348 -0.076632
v 0.034459 0.071418 -0.042690
v 0.034493 0.076667 -0.008973
v 0.034617 0.074914 0.024833
v 0.034899 0.073437 0.059555
v 0.034453 0.059616 0.091758
v -0.011401 0.063816 -0.076539
v -0.011362 0.072888 -0.042702
v -0.010867 0.077467 -0.008948
v -0.011233 0.075584 0.024824
v -0.011369 0.072301 0.059438
v -0.011403 0.061584 0.092054
v -0.057117 0.064319 -0.076683
v -0.057045 0.071393 -0.042650
v -0.057599 0.074579 -0.008794
v -0.058040 0.075212 0.024970
v -0.057292 0.072507 0.059064
v -0.056970 0.062520 0.091713
v -0.103131 0.060248 -0.075848
v -0.103775 0.066634 -0.042446
v -0.104153 0.067581 -0.008586
v -0.104493 0.064873 0.024940
v -0.103892 0.065165 0.057897
v -0.102707 0.056755 0.091158
vn 0.2156 -0.0000 0.9765
vn -0.2156 -0.0000 0.9765
vn 0.9765 -0.0000 -0.2156
vn 0.9765 -0.0000 0.2156
vn -0.9765 -0.0000 0.2156
vn -0.9765 -0.0000 -0.2156
vn -0.2156 -0.0000 -0.9765
vn 0.2156 -0.0000 -0.9765
vn -0.7071 -0.0000 0.7071
vn 0.7071 -0.0000 -0.7071
vn -0.7071 -0.0000 -0.7071
vn -0.1219 -0.8668 -0.4834
vn -0.0921 -0.7466 -0.6589
vn -0.2895 -0.8208 -0.4925
vn -0.3019 -0.9088 -0.2881
vn 0.7071 -0.0000 0.7071
vn 0.3019 -0.9088 -0.2881
vn 0.4278 -0.8988 -0.0960
vn 0.5834 -0.8076 -0.0857
vn 0.4675 -0.8399 -0.2756
vn -0.1219 -0.8668 0.4834
vn -0.3019 -0.9088 0.2881
vn -0.2895 -0.8208 0.4925
vn -0.0921 -0.7466 0.6589
vn 0.5834 -0.8076 0.0857
vn 0.6544 -0.7519 0.0798
vn 0.6544 -0.7519 -0.0798
vn 0.3019 -0.9088 0.2881
vn 0.4675 -0.8399 0.2756
vn 0.4278 -0.8988 0.0960
vn -0.4278 -0.8988 -0.0960
vn -0.4675 -0.8399 -0.2756
vn -0.5834 -0.8076 -0.0857
vn 0.1219 -0.8668 0.4834
vn 0.0921 -0.7466 0.6589
vn 0.2895 -0.8208 0.4925
vn 0.2895 -0.8208 -0.4925
vn 0.0921 -0.7466 -0.6589
vn 0.1219 -0.8668 -0.4834
vn -0.4278 -0.8988 0.0960
vn -0.5834 -0.8076 0.0857
vn -0.4675 -0.8399 0.2756
vn -0.0835 -0.6924 0.7166
vn 0.0835 -0.6924 0.7166
vn 0.5448 -0.7791 0.3102
vn -0.5448 -0.7791 0.3102
vn -0.3133 -0.7571 0.5732
vn -0.0835 -0.6924 -0.7166
vn -0.3133 -0.7571 -0.5732
vn -0.5448 -0.7791 -0.3102
vn 0.5448 -0.7791 -0.3102
vn 0.3133 -0.7571 -0.5732
vn 0.3133 -0.7571 0.5732
vn 0.1188 -0.9929 -0.0000
vn 0.1251 -0.9920 0.0153
vn 0.0151 -0.9912 0.1313
vn -0.6544 -0.7519 0.0798
vn -0.6544 -0.7519 -0.0798
vn 0.0835 -0.6924 -0.7166
vn -0.0637 -0.9912 0.1160
vn -0.0151 -0.9912 0.1313
vn -0.0482 -0.8923 0.4489
vn -0.1978 -0.9082 0.3688
vn -0.1125 -0.9916 0.0644
vn -0.3506 -0.9151 0.1992
vn -0.1251 -0.9920 0.0153
vn -0.4124 -0.9097 0.0483
vn -0.0151 -0.9912 -0.1313
vn -0.0637 -0.9912 -0.1160
vn -0.1978 -0.9082 -0.3688
vn -0.0482 -0.8923 -0.4489
vn -0.1125 -0.9916 -0.0644
vn -0.3506 -0.9151 -0.1992
vn -0.1251 -0.9920 -0.0153
vn -0.4124 -0.9097 -0.0483
vn 0.1251 -0.9920 -0.0153
vn 0.1125 -0.9916 -0.0644
vn 0.3506 -0.9151 -0.1992
vn 0.4124 -0.9097 -0.0483
vn 0.0637 -0.9912 -0.1160
vn 0.1978 -0.9082 -0.3688
vn 0.0151 -0.9912 -0.1313
vn 0.0482 -0.8923 -0.4489
vn 0.0637 -0.9912 0.1160
vn 0.1978 -0.9082 0.3688
vn 0.0482 -0.8923 0.4489
vn 0.1125 -0.9916 0.0644
vn 0.3506 -0.9151 0.1992
vn 0.4124 -0.9097 0.0483
vn -0.1188 -0.9929 -0.0000
vn -0.0000 1.0000 -0.0000
vn 0.0221 0.9789 0.2030
vn 0.0458 0.9982 0.0392
vn -0.0066 0.9984 0.0567
vn 0.0029 0.9787 0.2051
vn -0.1028 0.9938 0.0431
vn -0.0799 0.9812 0.1759
vn -0.2209 0.9750 0.0250
vn -0.1819 0.9774 0.1081
vn -0.2079 0.9768 0.0521
vn -0.0889 0.9928 0.0804
vn 0.1600 0.9830 -0.0904
vn 0.0847 0.9804 -0.1780
vn 0.0013 0.9678 -0.2516
vn 0.0367 0.9857 -0.1643
vn 0.1712 0.9848 -0.0297
vn 0.0714 0.9974 0.0079
vn 0.1245 0.9901 -0.0650
vn 0.0671 0.9903 -0.1214
vn 0.2464 0.9691 -0.0093
vn 0.2047 0.9783 -0.0331
vn 0.2116 0.9762 -0.0478
vn 0.1878 0.9810 -0.0481
vn 0.1735 0.9848 0.0029
vn 0.1945 0.9792 0.0584
vn 0.1569 0.9700 0.1858
vn 0.0581 0.9490 0.3100
vn 0.0110 0.9356 0.3530
vn -0.0034 0.9830 -0.1838
vn 0.0051 0.9639 -0.2662
vn -0.0364 0.9690 -0.2444
vn -0.0694 0.9860 -0.1513
vn 0.2212 0.9749 0.0237
vn 0.0611 0.9971 -0.0444
vn -0.0101 0.9989 -0.0468
vn 0.0001 0.9397 0.3421
vn 0.0917 0.9925 0.0813
vn 0.0104 0.9249 0.3800
vn -0.0977 0.9947 -0.0325
vn -0.0020 0.9412 0.3378
vn -0.1046 0.9817 -0.1591
vn -0.1784 0.9796 -0.0925
vn -0.0441 0.9307 0.3631
vn -0.2158 0.9764 -0.0028
vn 0.0249 0.9223 0.3858
vn -0.0921 0.9772 0.1911
vn 0.0086 0.8907 0.4544
vn -0.0724 0.9423 0.3268
vn 0.1016 0.9945 -0.0246
vn 0.0412 0.9645 -0.2610
vn -0.0101 0.9537 -0.3005
vn 0.0053 0.9558 -0.2939
vn -0.0197 0.9613 -0.2749
vn -0.0573 0.9832 -0.1731
vn -0.0691 0.9931 -0.0947
vn -0.1389 0.9857 -0.0952
vn -0.0363 0.9959 0.0832
vn -0.2768 0.9609 0.0112
vn -0.2463 0.9676 -0.0550
vn 0.1789 0.9839 0.0002
vt 0.938102 0.130602
vt 0.938102 0.156918
vt 0.061896 0.156918
vt 0.061896 0.130602
vt 0.822314 0.130602
vt 0.822314 0.156918
vt 0.180318 0.156918
vt 0.180318 0.130602
vt 0.019620 0.156918
vt 0.019620 0.130602
vt 0.864590 0.130602
vt 0.864590 0.156918
vt 0.070462 0.189503
vt 0.113417 0.163702
vt 0.086107 0.163702
vt 0.029013 0.189503
vt 0.980379 0.130602
vt 0.980379 0.156918
vt 0.970989 0.189503
vt 0.865597 0.196682
vt 0.829037 0.166710
vt 0.933885 0.163702
vt 0.070462 0.189503
vt 0.029013 0.189503
vt 0.086107 0.163702
vt 0.113417 0.163702
vt 0.170963 0.166710
vt 0.224597 0.068999
vt 0.775403 0.068999
vt 0.970989 0.189503
vt 0.139239 0.166710
vt 0.134403 0.196682
vt 0.860761 0.166710
vt 0.929538 0.189503
vt 0.886585 0.163702
vt 0.913895 0.163702
vt 0.913895 0.163702
vt 0.886585 0.163702
vt 0.929538 0.189503
vt 0.066115 0.163702
vt 0.176300 0.079761
vt 0.823700 0.079761
vt 0.198042 0.069003
vt 0.136839 0.079591
vt 0.153519 0.079657
vt 0.176300 0.079761
vt 0.153519 0.079657
vt 0.066115 0.163702
vt 0.136839 0.079591
vt 0.863165 0.079591
vt 0.846485 0.079657
vt 0.846485 0.079657
vt 0.822167 0.243939
vt 0.822167 0.024142
vt 0.801202 0.003176
vt 0.801958 0.069003
vt 0.933885 0.163702
vt 0.863165 0.079591
vt 0.823700 0.079761
vt 0.182242 0.060497
vt 0.194129 0.060497
vt 0.187503 0.066139
vt 0.168296 0.066109
vt 0.176026 0.060497
vt 0.154965 0.066089
vt 0.267575 0.057832
vt 0.255196 0.057832
vt 0.241857 0.063656
vt 0.261878 0.063654
vt 0.234361 0.053318
vt 0.212026 0.053319
vt 0.194129 0.060497
vt 0.182242 0.060497
vt 0.168296 0.066109
vt 0.187503 0.066139
vt 0.176026 0.060497
vt 0.154965 0.066089
vt 0.744804 0.057832
vt 0.732425 0.057832
vt 0.738122 0.063654
vt 0.758144 0.063656
vt 0.787975 0.053319
vt 0.765640 0.053318
vt 0.758143 0.063656
vt 0.770678 0.077715
vt 0.746874 0.077712
vt 0.823976 0.060497
vt 0.817758 0.060497
vt 0.831704 0.066109
vt 0.845036 0.066089
vt 0.805871 0.060497
vt 0.812501 0.066139
vt 0.805871 0.060497
vt 0.817758 0.060497
vt 0.831704 0.066109
vt 0.812501 0.066139
vt 0.823976 0.060497
vt 0.845036 0.066089
vt 0.267575 0.057832
vt 0.241857 0.063656
vt 0.253126 0.077712
vt 0.229322 0.077715
vt 0.500000 0.057832
vt 0.500000 0.057832
vt 0.089662 0.256449
vt 0.910342 0.256449
vt 0.949937 0.274825
vt 0.968314 0.314423
vt 0.968314 0.915735
vt 0.949937 0.955332
vt 0.910342 0.973709
vt 0.089662 0.973709
vt 0.050063 0.955332
vt 0.031686 0.915735
vt 0.031686 0.314423
vt 0.050063 0.274825
vt 0.177830 0.245559
vt 0.198795 0.004796
vt 0.177830 0.031305
vt 0.177830 0.243939
vt 0.198795 0.003176
vt 0.177830 0.024141
vt 0.822167 0.025761
vt 0.801202 0.004796
vt 0.822167 0.245559
vt 0.726563 0.057832
vt 0.819030 0.012434
vt 0.812909 0.006313
vt 0.187089 0.007933
vt 0.180967 0.014054
vt 0.177830 0.025761
vt 0.187089 0.006313
vt 0.180967 0.012434
vt 0.819030 0.014054
vt 0.812909 0.007933
vt 0.595153 0.456733
vt 0.594198 0.547626
vt 0.469557 0.546671
vt 0.470512 0.455778
vt 0.344915 0.545716
vt 0.345870 0.454823
vt 0.220274 0.544761
vt 0.221229 0.453868
vt 0.095633 0.543805
vt 0.097543 0.362021
vt 0.716929 0.730365
vt 0.715974 0.821257
vt 0.591333 0.820302
vt 0.592288 0.729410
vt 0.841570 0.731320
vt 0.903413 0.777244
vt 0.840615 0.822212
vt 0.839660 0.913105
vt 0.901981 0.913582
vt 0.843480 0.549536
vt 0.905323 0.595459
vt 0.842525 0.640428
vt 0.717884 0.639473
vt 0.718839 0.548581
vt 0.844435 0.458643
vt 0.719794 0.457688
vt 0.720749 0.366796
vt 0.596108 0.365841
vt 0.467647 0.728455
vt 0.466692 0.819348
vt 0.342050 0.818393
vt 0.343005 0.727500
vt 0.906278 0.504567
vt 0.593243 0.638518
vt 0.468602 0.637563
vt 0.783547 0.321828
vt 0.906865 0.324125
vt 0.471467 0.364886
vt 0.343960 0.636608
vt 0.658906 0.320873
vt 0.217409 0.817437
vt 0.218364 0.726545
vt 0.346825 0.363931
vt 0.219319 0.635653
vt 0.534265 0.319918
vt 0.222184 0.362976
vt 0.409623 0.318963
vt 0.284982 0.318008
vt 0.904368 0.686352
vt 0.715019 0.912150
vt 0.590378 0.911195
vt 0.465737 0.910240
vt 0.341095 0.909285
vt 0.216454 0.908330
vt 0.091813 0.907375
vt 0.092768 0.816482
vt 0.160341 0.317053
vt 0.095633 0.543805
vt 0.094678 0.634698
vt 0.095633 0.543806
vt 0.093723 0.725590
vt 0.905016 0.325260
vt 0.098020 0.316575
vt 0.907233 0.413675
vt 0.908500 0.323334
s 1
usemtl meat_1
f 6/1/1 79/2/1 73/3/2 1/4/2
f 8/5/3 77/6/3 80/7/4 5/8/4
f 2/8/5 74/7/5 76/6/6 3/5/6
f 4/4/7 75/3/7 78/2/8 7/1/8
f 85/9/9 74/7/5 2/8/5 84/10/9
f 8/5/3 89/11/10 88/12/10 77/6/3
f 87/11/11 3/5/6 76/6/6 86/12/11
f 4/13/12 14/14/13 16/15/14 87/16/15
f 89/11/10 7/1/8 78/2/8 88/12/10
f 6/1/1 91/17/16 90/18/16 79/2/1
f 91/17/16 5/8/4 80/7/4 90/18/16
f 89/19/17 8/20/18 22/21/19 24/22/20
f 1/23/21 84/24/22 11/25/23 9/26/24
f 22/21/19 17/27/25 50/28/26 64/29/27
f 91/30/28 19/31/29 17/27/25 5/32/30
f 3/20/31 87/16/15 15/33/32 13/21/33
f 91/30/28 6/34/34 18/35/35 20/36/36
f 89/19/17 23/37/37 21/38/38 7/39/39
f 2/32/40 3/20/31 13/21/33 10/27/41
f 4/13/12 7/39/39 21/38/38 14/14/13
f 8/20/18 5/32/30 17/27/25 22/21/19
f 2/32/40 10/27/41 12/40/42 84/24/22
f 6/34/34 1/23/21 9/26/24 18/35/35
f 18/35/35 9/26/24 26/41/43 52/42/44
f 17/27/25 19/31/29 56/43/45 50/28/26
f 11/25/23 12/40/42 34/44/46 31/45/47
f 16/15/14 14/14/13 40/46/48 47/47/49
f 15/48/32 16/15/14 47/47/49 44/49/50
f 23/37/37 24/22/20 71/50/51 68/51/52
f 20/36/36 18/35/35 52/42/44 59/52/53
f 82/53/54 49/54/55 53/55/56
f 12/31/42 10/27/41 28/28/57 34/43/46
f 24/33/20 22/21/19 64/29/27 71/56/51
f 13/21/33 15/33/32 44/56/50 38/29/58
f 19/57/29 20/36/36 59/52/53 56/58/45
f 10/27/41 13/21/33 38/29/58 28/28/57
f 21/38/38 23/37/37 68/51/52 62/59/59
f 14/14/13 21/38/38 62/59/59 40/46/48
f 32/60/60 25/61/61 27/62/62 33/63/63
f 33/63/63 27/62/62 26/41/43 31/45/47
f 35/64/64 32/60/60 33/63/63 36/65/65
f 36/65/65 33/63/63 31/45/47 34/44/46
f 29/66/66 35/67/64 36/68/65 30/69/67
f 30/70/67 36/71/65 34/43/46 28/28/57
f 41/72/68 46/73/69 48/74/70 42/75/71
f 42/75/71 48/74/70 47/47/49 40/46/48
f 46/73/69 43/76/72 45/77/73 48/74/70
f 48/74/70 45/77/73 44/49/50 47/47/49
f 43/78/72 37/79/74 39/80/75 45/81/73
f 45/82/73 39/83/75 38/29/58 44/56/50
f 65/79/76 70/78/77 72/84/78 66/80/79
f 66/80/79 72/84/78 71/85/51 64/86/27
f 70/87/77 67/88/80 69/89/81 72/90/78
f 72/90/78 69/89/81 68/51/52 71/50/51
f 67/88/80 61/91/82 63/92/83 69/89/81
f 69/89/81 63/92/83 62/59/59 68/51/52
f 53/93/56 58/94/84 60/95/85 54/96/86
f 54/96/86 60/95/85 59/52/53 52/42/44
f 58/94/84 55/97/87 57/98/88 60/95/85
f 60/95/85 57/98/88 56/58/45 59/52/53
f 55/67/87 49/99/55 51/69/89 57/100/88
f 57/100/88 51/69/89 50/101/26 56/102/45
f 28/28/57 38/29/58 39/83/75 30/70/67
f 30/69/67 39/80/75 81/103/90
f 40/46/48 62/59/59 63/92/83 42/75/71
f 42/75/71 63/92/83 61/91/82 41/72/68
f 64/86/27 50/101/26 51/69/89 66/80/79
f 51/69/89 49/99/55 82/104/54
f 52/42/44 26/41/43 27/62/62 54/96/86
f 54/96/86 27/62/62 25/61/61 53/93/56
f 9/26/24 11/25/23 31/45/47 26/41/43
f 73/105/91 79/106/91 90/107/91 80/108/91 77/109/91 88/110/91 78/111/91 75/112/91 86/113/91 76/114/91 74/115/91 85/116/91
f 82/117/54 61/118/82 83/119/54
f 81/120/90 25/121/61 29/122/66
f 37/123/74 41/124/68 81/125/90
f 66/80/79 51/69/89 82/104/54
f 82/104/54 83/126/54 65/79/76 66/80/79
f 53/55/56 49/54/55 55/127/87 58/128/84
f 83/119/54 61/118/82 67/129/80 70/130/77 65/131/76
f 29/122/66 25/121/61 32/132/60 35/133/64
f 41/124/68 37/123/74 43/134/72 46/135/69
f 25/121/61 81/120/90 82/53/54 53/55/56
f 81/125/90 41/124/68 61/118/82 82/117/54
f 81/103/90 39/80/75 37/79/74
f 81/103/90 29/66/66 30/69/67
f 19/57/29 91/30/28 20/36/36
f 11/25/23 84/24/22 12/40/42
f 23/37/37 89/19/17 24/22/20
f 15/48/32 87/16/15 16/15/14
f 4/4/7 87/11/11 86/12/11 75/3/7
f 73/3/2 85/9/9 84/10/9 1/4/2
f 133/136/92 132/137/93 138/138/94 139/139/95
f 139/139/95 138/138/94 144/140/96 145/141/97
f 145/141/97 144/140/96 150/142/98 151/143/99
f 108/144/100 107/145/101 151/143/99
f 124/146/102 123/147/103 129/148/104 130/149/105
f 118/150/106 116/151/107 117/152/108
f 95/153/109 117/152/108 94/154/91
f 120/155/110 114/156/111 119/157/112
f 118/150/106 117/152/108 123/147/103 124/146/102
f 119/157/112 118/150/106 124/146/102 125/158/113
f 120/155/110 119/157/112 125/158/113 126/159/114
f 121/160/115 120/155/110 126/159/114 127/161/116
f 127/161/116 126/159/114 132/137/93 133/136/92
f 128/162/117 127/161/116 133/136/92 134/163/118
f 136/164/119 135/165/120 141/166/121 142/167/122
f 121/160/115 113/168/123 120/155/110
f 131/169/124 130/149/105 136/164/119 137/170/125
f 128/162/117 101/171/126 122/172/127
f 132/137/93 131/169/124 137/170/125 138/138/94
f 134/163/118 133/136/92 139/139/95 140/173/128
f 137/170/125 136/164/119 142/167/122 143/174/129
f 134/163/118 102/175/130 128/162/117
f 142/167/122 141/166/121 147/176/131 148/177/132
f 138/138/94 137/170/125 143/174/129 144/140/96
f 140/173/128 139/139/95 145/141/97 146/178/133
f 143/174/129 142/167/122 148/177/132 149/179/134
f 140/173/128 103/180/135 134/163/118
f 144/140/96 143/174/129 149/179/134 150/142/98
f 146/178/133 145/141/97 151/143/99 152/181/136
f 146/178/133 104/182/137 140/173/128
f 152/181/136 105/183/138 146/178/133
f 121/160/115 127/161/116 128/162/117
f 119/157/112 115/184/139 118/150/106
f 130/149/105 129/148/104 135/165/120 136/164/119
f 125/158/113 124/146/102 130/149/105 131/169/124
f 123/147/103 117/152/108 95/153/109
f 129/148/104 123/147/103 96/185/140 97/186/141
f 135/165/120 129/148/104 97/186/141 98/187/142
f 141/166/121 135/165/120 98/187/142 99/188/143
f 147/176/131 141/166/121 99/188/143 100/189/144
f 93/190/145 111/191/146 147/176/131
f 94/154/91 117/152/108 116/151/107
f 128/162/117 102/175/130 101/171/126
f 134/163/118 103/180/135 102/175/130
f 140/173/128 104/182/137 103/180/135
f 146/178/133 105/183/138 104/182/137
f 152/181/136 106/192/147 105/183/138
f 107/145/101 152/181/136 151/143/99
f 108/193/100 151/143/99 150/142/98
f 109/194/148 108/195/100 150/142/98 149/179/134
f 110/196/149 109/194/148 149/179/134 148/177/132
f 111/191/146 110/196/149 148/177/132
f 120/155/110 113/168/123 114/156/111
f 119/157/112 114/156/111 115/184/139
f 118/150/106 115/184/139 116/151/107
f 126/159/114 125/158/113 131/169/124 132/137/93
f 122/197/127 121/160/115 128/162/117
f 100/189/144 93/190/145 147/176/131
f 92/198/91 106/192/147 152/181/136
f 107/145/101 92/198/91 152/181/136
f 96/185/140 123/147/103 95/153/109
f 112/199/150 113/168/123 121/160/115 122/200/127
f 147/176/131 111/191/146 148/177/132
