# Blender 5.0.1
# www.blender.org
mtllib pills_bottle_1_2.mtl
o pills_bottle_1_2
v 0.000000 0.099630 -0.034020
v 0.024056 0.099630 -0.024056
v 0.034020 0.099630 -0.000000
v 0.024056 0.099630 0.024056
v 0.000000 0.099630 0.034020
v -0.024056 0.099630 0.024056
v -0.034020 0.099630 -0.000000
v -0.024056 0.099630 -0.024056
v 0.000000 0.099630 -0.037422
v 0.026461 0.099630 -0.026461
v 0.037422 0.099630 -0.000000
v 0.026461 0.099630 0.026461
v 0.000000 0.099630 0.037422
v -0.026461 0.099630 0.026461
v -0.037422 0.099630 -0.000000
v -0.026461 0.099630 -0.026461
v 0.000000 0.115042 -0.037422
v 0.026461 0.115042 -0.026461
v 0.037421 0.115042 -0.000000
v 0.026461 0.115042 0.026461
v 0.000000 0.115042 0.037422
v -0.026461 0.115042 0.026461
v -0.037421 0.115042 -0.000000
v -0.026461 0.115042 -0.026461
v 0.000000 0.115042 -0.000000
v 0.000000 0.001442 -0.000000
v 0.000000 0.005042 -0.034020
v 0.000000 0.001442 -0.030327
v 0.024056 0.005042 -0.024056
v 0.021444 0.001442 -0.021444
v 0.034020 0.005042 -0.000000
v 0.030327 0.001442 -0.000000
v 0.024056 0.005042 0.024056
v 0.021444 0.001442 0.021444
v 0.000000 0.005042 0.034020
v 0.000000 0.001442 0.030327
v -0.024056 0.005042 0.024056
v -0.021444 0.001442 0.021444
v -0.034020 0.005042 -0.000000
v -0.030327 0.001442 -0.000000
v -0.024056 0.005042 -0.024056
v -0.021444 0.001442 -0.021444
vn -0.0000 -1.0000 -0.0000
vn -0.0000 1.0000 -0.0000
vn -0.0000 -0.0000 1.0000
vn 0.7071 -0.0000 0.7071
vn -0.7071 -0.0000 0.7071
vn -1.0000 -0.0000 -0.0000
vn 0.7071 -0.0000 -0.7071
vn 1.0000 -0.0000 -0.0000
vn -0.7071 -0.0000 -0.7071
vn -0.0000 -0.0000 -1.0000
vn -0.0000 -0.7161 -0.6980
vn 0.4936 -0.7161 -0.4936
vn 0.6980 -0.7161 -0.0000
vn 0.4936 -0.7161 0.4936
vn -0.0000 -0.7161 0.6980
vn -0.4936 -0.7161 0.4936
vn -0.6980 -0.7161 -0.0000
vn -0.4936 -0.7161 -0.4936
vt 0.742573 0.875245
vt 0.748093 0.875231
vt 0.730359 0.961156
vt 0.726450 0.953358
vt 0.644373 0.789601
vt 0.687293 0.753923
vt 0.687299 0.764965
vt 0.648282 0.797399
vt 0.632124 0.875793
vt 0.687500 0.875641
vt 0.648397 0.954062
vt 0.750000 0.250000
vt 0.708333 0.250000
vt 0.708333 0.125000
vt 0.750000 0.125000
vt 0.648356 0.953294
vt 0.644453 0.961101
vt 0.626383 0.875000
vt 0.632187 0.875220
vt 0.750000 0.375000
vt 0.750000 0.500000
vt 0.708333 0.500000
vt 0.708333 0.375000
vt 0.644453 0.789338
vt 0.648356 0.797146
vt 0.726356 0.797210
vt 0.730255 0.789393
vt 0.687393 0.985633
vt 0.687393 0.996674
vt 0.708333 0.000000
vt 0.750000 0.000000
vt 0.726603 0.797221
vt 0.742876 0.875490
vt 0.632124 0.875793
vt 0.648290 0.797435
vt 0.687424 0.764893
vt 0.687576 0.986390
vt 0.744293 0.600033
vt 0.736486 0.687662
vt 0.729214 0.678360
vt 0.735862 0.603739
vt 0.726710 0.953848
vt 0.742876 0.875490
vt 0.699984 0.738585
vt 0.698131 0.721724
vt 0.656169 0.722972
vt 0.660820 0.708428
vt 0.630707 0.649967
vt 0.639138 0.646261
vt 0.638514 0.562338
vt 0.645786 0.571640
vt 0.675016 0.511415
vt 0.676870 0.528276
vt 0.718831 0.527028
vt 0.714180 0.541572
vt 0.687500 0.625000
vt 0.875000 0.500000
vt 0.937500 0.500000
vt 0.937500 0.927083
vt 0.875000 0.927083
vt 0.812500 0.500000
vt 0.812500 0.927083
vt 0.750000 0.927083
vt 1.000000 0.927083
vt 1.000000 0.500000
vt 0.730334 0.961101
vt 0.726430 0.953294
s 1
usemtl pills_bottle_1
f 8/1/1 16/2/1 9/3/1 1/4/1
f 13/5/1 14/6/1 6/7/1 5/8/1
f 21/9/2 25/10/2 22/11/2
f 21/12/3 13/13/3 12/14/4 20/15/4
f 3/16/1 11/17/1 12/18/1 4/19/1
f 22/20/5 23/21/6 15/22/6 14/23/5
f 4/19/1 12/18/1 13/24/1 5/25/1
f 7/26/1 15/27/1 16/2/1 8/1/1
f 10/23/7 18/20/7 19/21/8 11/22/8
f 16/14/9 24/15/9 17/12/10 9/13/10
f 2/28/1 10/29/1 11/17/1 3/16/1
f 15/30/6 23/31/6 24/15/9 16/14/9
f 20/15/4 12/14/4 11/30/8 19/31/8
f 18/32/2 17/33/2 25/10/2
f 25/10/2 21/34/2 20/35/2
f 18/32/2 25/10/2 19/36/2
f 20/35/2 19/36/2 25/10/2
f 14/6/1 15/27/1 7/26/1 6/7/1
f 25/10/2 23/37/2 22/11/2
f 27/38/11 29/39/12 30/40/12 28/41/11
f 22/20/5 14/23/5 13/13/3 21/12/3
f 24/42/2 25/10/2 17/43/2
f 24/42/2 23/37/2 25/10/2
f 29/39/12 31/44/13 32/45/13 30/40/12
f 31/44/13 33/46/14 34/47/14 32/45/13
f 33/46/14 35/48/15 36/49/15 34/47/14
f 35/48/15 37/50/16 38/51/16 36/49/15
f 37/50/16 39/52/17 40/53/17 38/51/16
f 39/52/17 41/54/18 42/55/18 40/53/17
f 41/54/18 27/38/11 28/41/11 42/55/18
f 42/55/1 28/41/1 26/56/1
f 27/57/10 41/58/9 8/59/9 1/60/10
f 29/61/7 27/57/10 1/60/10 2/62/7
f 30/40/1 26/56/1 28/41/1
f 2/62/7 3/63/8 31/21/8 29/61/7
f 32/45/1 26/56/1 30/40/1
f 3/64/8 4/59/4 33/58/4 31/65/8
f 34/47/1 26/56/1 32/45/1
f 4/59/4 5/60/3 35/57/3 33/58/4
f 36/49/1 26/56/1 34/47/1
f 5/60/3 6/62/5 37/61/5 35/57/3
f 38/51/1 26/56/1 36/49/1
f 6/62/5 7/63/6 39/21/6 37/61/5
f 40/53/1 26/56/1 38/51/1
f 7/64/6 8/59/9 41/58/9 39/65/6
f 42/55/1 26/56/1 40/53/1
f 9/13/10 17/12/10 18/20/7 10/23/7
f 9/66/1 10/29/1 2/28/1 1/67/1
