# Blender 5.0.1
# www.blender.org
mtllib pills_bottle_2_2.mtl
o pills_bottle_2_2
v 0.020785 0.101802 0.020783
v -0.020784 0.101802 0.020783
v 0.020785 0.101802 -0.020783
v 0.037721 0.101802 0.000000
v 0.026673 0.101802 0.026673
v 0.000000 0.101802 0.037721
v -0.026673 0.101802 0.026673
v -0.037721 0.101802 -0.000000
v -0.026673 0.101802 -0.026673
v 0.000000 0.101802 -0.037721
v 0.026673 0.101802 -0.026673
v 0.037721 0.120516 0.000000
v 0.029301 0.120516 0.000000
v 0.020719 0.120516 0.020719
v 0.026673 0.120516 0.026673
v 0.000000 0.120516 0.029301
v 0.000000 0.120516 0.037721
v -0.020719 0.120516 0.020719
v -0.026673 0.120516 0.026673
v -0.029301 0.120516 -0.000000
v -0.037721 0.120516 -0.000000
v -0.020719 0.120516 -0.020719
v -0.026673 0.120516 -0.026673
v 0.000000 0.120516 -0.029301
v 0.000000 0.120516 -0.037721
v 0.020719 0.120516 -0.020719
v 0.026673 0.120516 -0.026673
v 0.000000 0.134916 0.000000
v 0.020719 0.134916 -0.020719
v 0.020719 0.134916 0.020719
v 0.000000 0.134916 0.029301
v 0.000000 0.134916 -0.029301
v -0.029301 0.134916 -0.000000
v 0.029301 0.134916 0.000000
v -0.020719 0.134916 0.020719
v -0.020719 0.134916 -0.020719
v 0.029393 0.101802 0.000000
v 0.000000 0.101802 0.029392
v -0.029393 0.101802 -0.000000
v -0.020784 0.101802 -0.020783
v 0.000000 0.101802 -0.029392
v 0.000000 -0.000000 0.000000
v 0.025700 -0.000000 0.000000
v 0.029393 0.003600 0.000000
v 0.020784 0.003600 0.020784
v 0.018173 -0.000000 0.018173
v 0.000000 0.003600 0.029393
v 0.000000 -0.000000 0.025700
v -0.020784 0.003600 0.020784
v -0.018173 -0.000000 0.018173
v -0.025700 -0.000000 -0.000000
v -0.029393 0.003600 -0.000000
v -0.018173 -0.000000 -0.018173
v -0.020784 0.003600 -0.020784
v 0.000000 -0.000000 -0.025700
v 0.000000 0.003600 -0.029393
v 0.018173 -0.000000 -0.018173
v 0.020784 0.003600 -0.020784
vn -0.0000 -1.0000 -0.0000
vn 0.6980 -0.7161 -0.0000
vn 0.4936 -0.7161 0.4936
vn -0.0000 1.0000 -0.0000
vn -1.0000 -0.0000 -0.0000
vn -0.7071 -0.0000 0.7071
vn -0.0000 -0.0000 1.0000
vn 0.7071 -0.0000 0.7071
vn 1.0000 -0.0000 -0.0000
vn 0.7071 -0.0000 -0.7071
vn -0.0000 -0.0000 -1.0000
vn -0.7071 -0.0000 -0.7071
vn -0.0000 -0.7161 0.6980
vn -0.4936 -0.7161 0.4936
vn -0.0000 -0.7161 -0.6980
vn 0.4936 -0.7161 -0.4936
vn -0.4936 -0.7161 -0.4936
vn -0.6980 -0.7161 -0.0000
vt 0.678478 0.954373
vt 0.708955 0.944073
vt 0.715036 0.963461
vt 0.675922 0.976681
vt 0.699078 0.774602
vt 0.731410 0.820569
vt 0.721714 0.832727
vt 0.696522 0.796909
vt 0.700767 0.504000
vt 0.739661 0.558203
vt 0.730744 0.569622
vt 0.698499 0.524685
vt 0.643590 0.930713
vt 0.653286 0.918557
vt 0.666045 0.807211
vt 0.648136 0.857599
vt 0.636980 0.852485
vt 0.659964 0.787822
vt 0.549473 0.738930
vt 0.552381 0.713552
vt 0.586566 0.701998
vt 0.593482 0.724056
vt 0.750000 1.000000
vt 0.750000 0.927083
vt 0.812500 0.927083
vt 0.812500 1.000000
vt 0.738020 0.898797
vt 0.726864 0.893684
vt 0.611905 0.563282
vt 0.600876 0.577115
vt 0.572619 0.536941
vt 0.575527 0.511562
vt 0.538434 0.548495
vt 0.531518 0.526437
vt 0.606653 0.645484
vt 0.619342 0.651300
vt 0.518347 0.605009
vt 0.505658 0.599192
vt 0.535733 0.573081
vt 0.562649 0.549497
vt 0.563411 0.626318
vt 0.963542 0.927083
vt 0.920805 0.927083
vt 0.920805 1.000000
vt 0.963542 1.000000
vt 0.877988 0.927083
vt 0.877988 1.000000
vt 0.835170 0.927083
vt 0.835170 1.000000
vt 0.791667 0.927083
vt 0.791667 1.000000
vt 0.524124 0.673378
vt 0.513095 0.687210
vt 0.937500 0.927083
vt 0.937500 1.000000
vt 0.875000 1.000000
vt 0.875000 0.927083
vt 1.000000 0.927083
vt 1.000000 1.000000
vt 0.525005 0.627797
vt 0.591097 0.679534
vt 0.601818 0.624839
vt 0.564191 0.703116
vt 0.589984 0.571023
vt 0.536833 0.681583
vt 0.748000 0.651535
vt 0.737657 0.646998
vt 0.720898 0.729323
vt 0.715189 0.711488
vt 0.627000 0.598465
vt 0.654101 0.520677
vt 0.659811 0.538512
vt 0.637343 0.603002
vt 0.635339 0.691797
vt 0.644256 0.680378
vt 0.674232 0.746000
vt 0.676501 0.725315
vt 0.812500 0.500000
vt 0.812500 0.927083
vt 0.750000 0.927083
vt 0.750000 0.500000
vt 0.937500 0.500000
vt 1.000000 0.500000
vt 0.687500 0.625000
vt 0.875000 0.500000
vt 0.812500 0.500000
vt 0.750000 0.500000
vt 0.875000 0.500000
vt 0.875000 0.927083
s 1
usemtl pills_bottle_1
f 37/1/1 3/2/1 11/3/1 4/4/1
f 8/5/1 9/6/1 40/7/1 39/8/1
f 44/9/2 45/10/3 46/11/3 43/12/2
f 4/4/1 5/13/1 1/14/1 37/1/1
f 2/15/1 38/16/1 6/17/1 7/18/1
f 39/8/1 2/15/1 7/18/1 8/5/1
f 23/19/4 22/20/4 24/21/4 25/22/4
f 21/23/5 8/24/5 7/25/6 19/26/6
f 9/6/1 10/27/1 41/28/1 40/7/1
f 12/29/4 13/30/4 14/31/4 15/32/4
f 3/2/1 41/28/1 10/27/1 11/3/1
f 15/32/4 14/31/4 16/33/4 17/34/4
f 25/22/4 24/21/4 26/35/4 27/36/4
f 17/34/4 16/33/4 18/37/4 19/38/4
f 29/39/4 32/40/4 28/41/4
f 16/42/7 14/43/8 30/44/8 31/45/7
f 14/43/8 13/46/9 34/47/9 30/44/8
f 13/46/9 26/48/10 29/49/10 34/47/9
f 26/48/10 24/50/11 32/51/11 29/49/10
f 27/36/4 26/35/4 13/30/4 12/29/4
f 18/48/6 16/50/7 31/51/7 35/49/6
f 19/38/4 18/37/4 20/52/4 21/53/4
f 22/43/12 20/46/5 33/47/5 36/44/12
f 24/42/11 22/43/12 36/44/12 32/45/11
f 20/46/5 18/48/6 35/49/6 33/47/5
f 5/54/8 15/55/8 17/56/7 6/57/7
f 19/26/6 7/25/6 6/57/7 17/56/7
f 21/53/4 20/52/4 22/20/4 23/19/4
f 23/55/12 9/54/12 8/58/5 21/59/5
f 23/55/12 25/56/11 10/57/11 9/54/12
f 10/57/11 25/56/11 27/26/10 11/25/10
f 11/25/10 27/26/10 12/23/9 4/24/9
f 34/60/4 29/39/4 28/41/4
f 35/61/4 28/41/4 33/62/4
f 31/63/4 28/41/4 35/61/4
f 33/62/4 28/41/4 36/64/4
f 31/63/4 30/65/4 28/41/4
f 36/64/4 28/41/4 32/40/4
f 30/65/4 34/60/4 28/41/4
f 38/16/1 1/14/1 5/13/1 6/17/1
f 45/10/3 47/66/13 48/67/13 46/11/3
f 47/66/13 49/68/14 50/69/14 48/67/13
f 56/70/15 58/71/16 57/72/16 55/73/15
f 54/74/17 56/70/15 55/73/15 53/75/17
f 58/71/16 44/9/2 43/12/2 57/72/16
f 52/76/18 54/74/17 53/75/17 51/77/18
f 49/68/14 52/76/18 51/77/18 50/69/14
f 58/78/10 3/79/10 37/80/9 44/81/9
f 45/82/8 44/83/9 37/58/9 1/54/8
f 46/11/1 42/84/1 43/12/1
f 57/72/1 43/12/1 42/84/1
f 48/67/1 42/84/1 46/11/1
f 38/57/7 47/85/7 45/82/8 1/54/8
f 2/25/6 49/86/6 47/85/7 38/57/7
f 50/69/1 42/84/1 48/67/1
f 51/77/1 42/84/1 50/69/1
f 39/24/5 52/87/5 49/86/6 2/25/6
f 53/75/1 42/84/1 51/77/1
f 39/58/5 40/54/12 54/82/12 52/83/5
f 40/54/12 41/57/11 56/85/11 54/82/12
f 55/73/1 42/84/1 53/75/1
f 55/73/1 57/72/1 42/84/1
f 3/79/10 58/78/10 56/88/11 41/89/11
f 4/58/9 12/59/9 15/55/8 5/54/8
