# Blender 5.0.1
# www.blender.org
mtllib pills_packet_1.mtl
o pills_packet_1
v -0.059500 0.000000 0.034000
v -0.067000 0.000000 0.026500
v -0.064803 0.000000 0.031803
v 0.067000 0.000000 0.026500
v 0.059500 0.000000 0.034000
v 0.064804 0.000000 0.031803
v -0.067000 0.000000 -0.026502
v -0.059500 0.000000 -0.034002
v -0.064803 0.000000 -0.031805
v 0.059500 0.000000 -0.034002
v 0.067000 0.000000 -0.026502
v 0.064804 0.000000 -0.031805
v -0.067000 0.002000 0.026500
v -0.059500 0.002000 0.034000
v -0.064803 0.002000 0.031803
v 0.059500 0.002000 0.034000
v 0.067000 0.002000 0.026500
v 0.064804 0.002000 0.031803
v -0.059500 0.002000 -0.034002
v -0.067000 0.002000 -0.026502
v -0.064803 0.002000 -0.031805
v 0.067000 0.002000 -0.026502
v 0.059500 0.002000 -0.034002
v 0.064804 0.002000 -0.031805
v -0.061599 0.002000 -0.016014
v -0.049487 0.002000 -0.028102
v -0.058047 0.002000 -0.024567
v -0.049488 0.007500 -0.027002
v -0.060499 0.007500 -0.016013
v -0.057270 0.007500 -0.023788
v -0.037399 0.002000 -0.015990
v -0.040935 0.002000 -0.024550
v -0.038499 0.007500 -0.015992
v -0.041713 0.007500 -0.023773
v -0.049511 0.002000 -0.003902
v -0.058063 0.002000 -0.007455
v -0.049510 0.007500 -0.005002
v -0.057285 0.007500 -0.008232
v -0.040951 0.002000 -0.007438
v -0.041729 0.007500 -0.008217
v 0.037900 0.002000 -0.016014
v 0.050012 0.002000 -0.028102
v 0.041452 0.002000 -0.024567
v 0.050011 0.007500 -0.027002
v 0.039000 0.007500 -0.016013
v 0.042229 0.007500 -0.023788
v 0.062100 0.002000 -0.015990
v 0.058564 0.002000 -0.024550
v 0.061000 0.007500 -0.015992
v 0.057786 0.007500 -0.023773
v 0.049988 0.002000 -0.003902
v 0.041436 0.002000 -0.007455
v 0.049989 0.007500 -0.005002
v 0.042214 0.007500 -0.008232
v 0.058548 0.002000 -0.007438
v 0.057771 0.007500 -0.008217
v 0.037900 0.002000 0.015987
v 0.050012 0.002000 0.003899
v 0.041452 0.002000 0.007435
v 0.050011 0.007500 0.004999
v 0.039000 0.007500 0.015988
v 0.042229 0.007500 0.008213
v 0.062100 0.002000 0.016011
v 0.058564 0.002000 0.007452
v 0.061000 0.007500 0.016010
v 0.057786 0.007500 0.008229
v 0.049988 0.002000 0.028099
v 0.041436 0.002000 0.024547
v 0.049989 0.007500 0.026999
v 0.042214 0.007500 0.023770
v 0.058548 0.002000 0.024564
v 0.057771 0.007500 0.023785
v 0.004400 0.002000 -0.016014
v 0.016512 0.002000 -0.028102
v 0.007953 0.002000 -0.024567
v 0.016511 0.007500 -0.027002
v 0.005500 0.007500 -0.016013
v 0.008730 0.007500 -0.023788
v 0.028600 0.002000 -0.015990
v 0.025065 0.002000 -0.024550
v 0.027500 0.007500 -0.015992
v 0.024286 0.007500 -0.023773
v 0.016489 0.002000 -0.003902
v 0.007936 0.002000 -0.007455
v 0.016490 0.007500 -0.005002
v 0.008715 0.007500 -0.008232
v 0.025048 0.002000 -0.007438
v 0.024271 0.007500 -0.008217
v 0.004400 0.002000 0.015987
v 0.016512 0.002000 0.003899
v 0.007953 0.002000 0.007435
v 0.016511 0.007500 0.004999
v 0.005500 0.007500 0.015988
v 0.008730 0.007500 0.008213
v 0.028600 0.002000 0.016011
v 0.025065 0.002000 0.007452
v 0.027500 0.007500 0.016010
v 0.024286 0.007500 0.008229
v 0.016489 0.002000 0.028099
v 0.007936 0.002000 0.024547
v 0.016490 0.007500 0.026999
v 0.008715 0.007500 0.023770
v 0.025048 0.002000 0.024564
v 0.024271 0.007500 0.023785
v -0.028599 0.002000 -0.016014
v -0.016488 0.002000 -0.028102
v -0.025047 0.002000 -0.024567
v -0.016489 0.007500 -0.027002
v -0.027499 0.007500 -0.016013
v -0.024270 0.007500 -0.023788
v -0.004399 0.002000 -0.015990
v -0.007935 0.002000 -0.024550
v -0.005499 0.007500 -0.015992
v -0.008714 0.007500 -0.023773
v -0.016511 0.002000 -0.003902
v -0.025064 0.002000 -0.007455
v -0.016510 0.007500 -0.005002
v -0.024285 0.007500 -0.008232
v -0.007952 0.002000 -0.007438
v -0.008729 0.007500 -0.008217
v -0.028599 0.002000 0.015987
v -0.016488 0.002000 0.003899
v -0.025047 0.002000 0.007435
v -0.016489 0.007500 0.004999
v -0.027499 0.007500 0.015988
v -0.024270 0.007500 0.008213
v -0.004399 0.002000 0.016011
v -0.007935 0.002000 0.007452
v -0.005499 0.007500 0.016010
v -0.008714 0.007500 0.008229
v -0.016511 0.002000 0.028099
v -0.025064 0.002000 0.024547
v -0.016510 0.007500 0.026999
v -0.024285 0.007500 0.023770
v -0.007952 0.002000 0.024564
v -0.008729 0.007500 0.023785
v -0.061599 0.002000 0.015987
v -0.049487 0.002000 0.003899
v -0.058047 0.002000 0.007435
v -0.049488 0.007500 0.004999
v -0.060499 0.007500 0.015988
v -0.057270 0.007500 0.008213
v -0.037399 0.002000 0.016011
v -0.040935 0.002000 0.007452
v -0.038499 0.007500 0.016010
v -0.041713 0.007500 0.008229
v -0.049511 0.002000 0.028099
v -0.058063 0.002000 0.024547
v -0.049510 0.007500 0.026999
v -0.057285 0.007500 0.023770
v -0.040951 0.002000 0.024564
v -0.041729 0.007500 0.023785
v -0.049499 0.007500 0.015999
v -0.016499 0.007500 0.016000
v 0.016495 0.007500 0.015999
v 0.050000 0.007500 0.015998
v 0.049998 0.007500 -0.016002
v 0.016500 0.007500 -0.016002
v -0.016501 0.007500 -0.016002
v -0.049509 0.007500 -0.016002
vn -0.1951 -0.0000 0.9808
vn 0.1951 -0.0000 0.9808
vn 0.1951 -0.0000 -0.9808
vn -0.1951 -0.0000 -0.9808
vn -0.0000 -1.0000 -0.0000
vn -0.0000 1.0000 -0.0000
vn 0.9808 -0.0000 0.1951
vn 0.9808 -0.0000 -0.1951
vn 0.7071 -0.0000 -0.7071
vn 0.7071 -0.0000 0.7071
vn -0.7071 -0.0000 0.7071
vn -0.9808 -0.0000 0.1951
vn -0.7071 -0.0000 -0.7071
vn -0.9808 -0.0000 -0.1951
vn -0.9806 0.1961 -0.0010
vn -0.6927 0.1961 -0.6941
vn 0.0010 0.1961 -0.9806
vn 0.9806 0.1961 0.0010
vn 0.6941 0.1961 -0.6927
vn -0.0010 0.1961 0.9806
vn 0.6927 0.1961 0.6941
vn -0.6941 0.1961 0.6927
vt 0.980854 0.962122
vt 0.980854 0.755754
vt 0.984375 0.755754
vt 0.984375 0.962122
vt 0.984375 0.962122
vt 0.857961 0.749516
vt 0.969944 0.749516
vt 0.960608 0.745648
vt 0.867297 0.745648
vt 0.850226 0.749516
vt 0.840889 0.745648
vt 0.747579 0.745648
vt 0.738242 0.749516
vt 0.984375 0.873183
vt 0.984375 0.966493
vt 0.980854 0.966493
vt 0.980854 0.873183
vt 0.984375 0.972228
vt 0.980854 0.972228
vt 0.984375 0.976599
vt 0.980854 0.976599
vt 0.980854 0.745648
vt 0.984375 0.745648
vt 0.980854 0.863077
vt 0.984375 0.863077
vt 0.984375 0.972228
vt 0.984375 0.745648
vt 0.984375 0.755754
vt 0.984375 0.863077
vt 0.980854 0.852971
vt 0.984375 0.852971
vt 0.125000 0.218750
vt 0.114583 0.218750
vt 0.114583 0.187500
vt 0.125000 0.187500
vt 0.114583 0.156250
vt 0.125000 0.156250
vt 0.114583 0.093750
vt 0.125000 0.093750
vt 0.125000 0.125000
vt 0.114583 0.125000
vt 0.114583 0.281250
vt 0.125000 0.281250
vt 0.125000 0.312500
vt 0.114583 0.312500
vt 0.125000 0.343750
vt 0.114583 0.343750
vt 0.125000 0.250000
vt 0.114583 0.250000
vt 0.033750 0.086072
vt 0.019892 0.074591
vt 0.014152 0.046875
vt 0.019892 0.019159
vt 0.033750 0.007678
vt 0.047608 0.019159
vt 0.053348 0.046875
vt 0.047608 0.074591
vt 0.047608 0.074591
vt 0.033750 0.046841
vt 0.053348 0.046875
vt 0.033750 0.046868
vt 0.033747 0.046875
vt 0.033751 0.046875
vt 0.033750 0.046855
vt 0.033750 0.046868
vt 0.033750 0.046875
vt 0.019892 0.074591
vt 0.014152 0.046875
vt 0.854093 0.965220
vt 0.854093 0.758852
vt 0.734375 0.758852
vt 0.734375 0.965220
vt 0.850226 0.974557
vt 0.738242 0.974557
vt 0.840889 0.978424
vt 0.747579 0.978424
vt 0.854093 0.758852
vt 0.973812 0.758852
vt 0.854093 0.965220
vt 0.973812 0.965220
vt 0.969944 0.974557
vt 0.857961 0.974557
vt 0.960608 0.978424
vt 0.867297 0.978424
vt 0.033750 0.007678
vt 0.047608 0.019159
vt 0.033750 0.086072
s 1
usemtl misc_mp_3
f 1/1/1 5/2/2 16/3/2 14/4/1
f 10/1/3 8/2/4 19/3/4 23/5/3
f 6/6/5 12/7/5 11/8/5 4/9/5
f 21/10/6 20/11/6 13/12/6 15/13/6
f 4/14/7 11/15/8 22/16/8 17/17/7
f 10/1/3 23/5/3 24/18/9 12/19/9
f 12/20/9 24/21/9 22/16/8 11/15/8
f 16/3/2 5/2/2 6/22/10 18/23/10
f 18/24/10 6/25/10 4/14/7 17/17/7
f 1/1/1 14/4/1 15/26/11 3/19/11
f 3/22/11 15/27/11 13/28/12 2/2/12
f 19/3/4 8/2/4 9/22/13 21/23/13
f 21/29/13 9/24/13 7/30/14 20/31/14
f 7/30/14 2/2/12 13/28/12 20/31/14
f 23/69/6 19/70/6 14/71/6 16/72/6
f 24/73/6 23/69/6 16/72/6 18/74/6
f 22/75/6 24/73/6 18/74/6 17/76/6
f 5/77/5 10/78/5 12/7/5 6/6/5
f 1/79/5 8/80/5 10/78/5 5/77/5
f 9/81/5 8/80/5 1/79/5 3/82/5
f 7/83/5 9/81/5 3/82/5 2/84/5
f 19/70/6 21/10/6 15/13/6 14/71/6
usemtl pills_bottle_1
f 25/32/15 29/33/15 30/34/16 27/35/16
f 27/35/16 30/34/16 28/36/17 26/37/17
f 33/38/18 31/39/18 32/40/19 34/41/19
f 34/41/19 32/40/19 26/37/17 28/36/17
f 37/42/20 35/43/20 39/44/21 40/45/21
f 40/45/21 39/44/21 31/46/18 33/47/18
f 29/33/15 25/32/15 36/48/22 38/49/22
f 38/49/22 36/48/22 35/43/20 37/42/20
f 26/50/5 32/51/5 31/52/5 39/53/5 35/54/5 36/55/5 25/56/5 27/57/5
f 40/58/6 160/59/6 37/60/6
f 41/32/15 45/33/15 46/34/16 43/35/16
f 43/35/16 46/34/16 44/36/17 42/37/17
f 49/38/18 47/39/18 48/40/19 50/41/19
f 50/41/19 48/40/19 42/37/17 44/36/17
f 53/42/20 51/43/20 55/44/21 56/45/21
f 56/45/21 55/44/21 47/46/18 49/47/18
f 45/33/15 41/32/15 52/48/22 54/49/22
f 54/49/22 52/48/22 51/43/20 53/42/20
f 42/50/5 48/51/5 47/52/5 55/53/5 51/54/5 52/55/5 41/56/5 43/57/5
f 56/58/6 157/61/6 53/60/6
f 57/32/15 61/33/15 62/34/16 59/35/16
f 59/35/16 62/34/16 60/36/17 58/37/17
f 65/38/18 63/39/18 64/40/19 66/41/19
f 66/41/19 64/40/19 58/37/17 60/36/17
f 69/42/20 67/43/20 71/44/21 72/45/21
f 72/45/21 71/44/21 63/46/18 65/47/18
f 61/33/15 57/32/15 68/48/22 70/49/22
f 70/49/22 68/48/22 67/43/20 69/42/20
f 58/50/5 64/51/5 63/52/5 71/53/5 67/54/5 68/55/5 57/56/5 59/57/5
f 72/58/6 156/62/6 69/60/6
f 73/32/15 77/33/15 78/34/16 75/35/16
f 75/35/16 78/34/16 76/36/17 74/37/17
f 81/38/18 79/39/18 80/40/19 82/41/19
f 82/41/19 80/40/19 74/37/17 76/36/17
f 85/42/20 83/43/20 87/44/21 88/45/21
f 88/45/21 87/44/21 79/46/18 81/47/18
f 77/33/15 73/32/15 84/48/22 86/49/22
f 86/49/22 84/48/22 83/43/20 85/42/20
f 74/50/5 80/51/5 79/52/5 87/53/5 83/54/5 84/55/5 73/56/5 75/57/5
f 88/58/6 158/63/6 85/60/6
f 89/32/15 93/33/15 94/34/16 91/35/16
f 91/35/16 94/34/16 92/36/17 90/37/17
f 97/38/18 95/39/18 96/40/19 98/41/19
f 98/41/19 96/40/19 90/37/17 92/36/17
f 101/42/20 99/43/20 103/44/21 104/45/21
f 104/45/21 103/44/21 95/46/18 97/47/18
f 93/33/15 89/32/15 100/48/22 102/49/22
f 102/49/22 100/48/22 99/43/20 101/42/20
f 90/50/5 96/51/5 95/52/5 103/53/5 99/54/5 100/55/5 89/56/5 91/57/5
f 104/58/6 155/64/6 101/60/6
f 105/32/15 109/33/15 110/34/16 107/35/16
f 107/35/16 110/34/16 108/36/17 106/37/17
f 113/38/18 111/39/18 112/40/19 114/41/19
f 114/41/19 112/40/19 106/37/17 108/36/17
f 117/42/20 115/43/20 119/44/21 120/45/21
f 120/45/21 119/44/21 111/46/18 113/47/18
f 109/33/15 105/32/15 116/48/22 118/49/22
f 118/49/22 116/48/22 115/43/20 117/42/20
f 106/50/5 112/51/5 111/52/5 119/53/5 115/54/5 116/55/5 105/56/5 107/57/5
f 120/58/6 159/65/6 117/60/6
f 121/32/15 125/33/15 126/34/16 123/35/16
f 123/35/16 126/34/16 124/36/17 122/37/17
f 129/38/18 127/39/18 128/40/19 130/41/19
f 130/41/19 128/40/19 122/37/17 124/36/17
f 133/42/20 131/43/20 135/44/21 136/45/21
f 136/45/21 135/44/21 127/46/18 129/47/18
f 125/33/15 121/32/15 132/48/22 134/49/22
f 134/49/22 132/48/22 131/43/20 133/42/20
f 122/50/5 128/51/5 127/52/5 135/53/5 131/54/5 132/55/5 121/56/5 123/57/5
f 136/58/6 154/63/6 133/60/6
f 137/32/15 141/33/15 142/34/16 139/35/16
f 139/35/16 142/34/16 140/36/17 138/37/17
f 145/38/18 143/39/18 144/40/19 146/41/19
f 146/41/19 144/40/19 138/37/17 140/36/17
f 149/42/20 147/43/20 151/44/21 152/45/21
f 152/45/21 151/44/21 143/46/18 145/47/18
f 141/33/15 137/32/15 148/48/22 150/49/22
f 150/49/22 148/48/22 147/43/20 149/42/20
f 138/50/5 144/51/5 143/52/5 151/53/5 147/54/5 148/55/5 137/56/5 139/57/5
f 153/66/6 146/67/6 140/68/6
f 153/66/6 142/53/6 141/85/6
f 152/58/6 153/66/6 149/60/6
f 150/86/6 153/66/6 141/85/6
f 126/53/6 154/63/6 124/68/6
f 40/58/6 33/87/6 160/59/6
f 154/63/6 134/86/6 133/60/6
f 154/63/6 130/67/6 124/68/6
f 155/64/6 94/53/6 93/85/6
f 155/64/6 102/86/6 101/60/6
f 155/64/6 98/67/6 92/68/6
f 62/53/6 156/62/6 60/68/6
f 156/62/6 70/86/6 69/60/6
f 156/62/6 66/67/6 60/68/6
f 157/61/6 46/53/6 45/85/6
f 157/61/6 50/67/6 44/68/6
f 157/61/6 54/86/6 53/60/6
f 78/53/6 158/63/6 76/68/6
f 158/63/6 82/67/6 76/68/6
f 158/63/6 86/86/6 85/60/6
f 159/65/6 110/53/6 109/85/6
f 159/65/6 114/67/6 108/68/6
f 159/65/6 118/86/6 117/60/6
f 160/59/6 30/53/6 29/85/6
f 160/59/6 38/86/6 37/60/6
f 160/59/6 34/67/6 28/68/6
f 56/58/6 49/87/6 157/61/6
f 72/58/6 65/87/6 156/62/6
f 88/58/6 81/87/6 158/63/6
f 104/58/6 97/87/6 155/64/6
f 120/58/6 113/87/6 159/65/6
f 136/58/6 129/87/6 154/63/6
f 153/66/6 145/87/6 146/67/6
f 153/66/6 140/68/6 142/53/6
f 152/58/6 145/87/6 153/66/6
f 150/86/6 149/60/6 153/66/6
f 126/53/6 125/85/6 154/63/6
f 154/63/6 125/85/6 134/86/6
f 154/63/6 129/87/6 130/67/6
f 155/64/6 92/68/6 94/53/6
f 155/64/6 93/85/6 102/86/6
f 155/64/6 97/87/6 98/67/6
f 62/53/6 61/85/6 156/62/6
f 156/62/6 61/85/6 70/86/6
f 156/62/6 65/87/6 66/67/6
f 157/61/6 44/68/6 46/53/6
f 157/61/6 49/87/6 50/67/6
f 157/61/6 45/85/6 54/86/6
f 78/53/6 77/85/6 158/63/6
f 158/63/6 81/87/6 82/67/6
f 158/63/6 77/85/6 86/86/6
f 159/65/6 108/68/6 110/53/6
f 159/65/6 113/87/6 114/67/6
f 159/65/6 109/85/6 118/86/6
f 160/59/6 28/68/6 30/53/6
f 160/59/6 29/85/6 38/86/6
f 160/59/6 33/87/6 34/67/6
