# Blender 5.0.1
# www.blender.org
mtllib pistol_mp_1_mag_extended_empty.mtl
o pistol_mp_1_mag_extended_empty
v -0.026437 -0.137519 0.006448
v -0.035198 -0.136423 0.015000
v -0.035198 -0.136423 -0.015000
v -0.026437 -0.137519 -0.006448
v -0.074663 -0.130919 0.015000
v -0.074663 -0.130919 -0.015000
v -0.033192 -0.136699 0.018000
v -0.023963 -0.137860 0.008566
v -0.023963 -0.137860 -0.008565
v -0.033192 -0.136699 -0.018000
v -0.079616 -0.130238 0.018000
v -0.079616 -0.130238 -0.018000
v -0.036335 -0.143607 0.018000
v -0.027107 -0.144768 0.008566
v -0.027107 -0.144768 -0.008565
v -0.036335 -0.143607 -0.018000
v -0.081181 -0.133678 0.018000
v -0.078985 -0.137672 0.018000
v -0.078985 -0.137672 -0.018000
v -0.081181 -0.133678 -0.018000
v 0.049199 0.061581 0.015000
v 0.049199 0.061581 -0.015000
v 0.052965 0.061581 0.006448
v 0.052965 0.061581 -0.006448
v 0.009739 0.061581 0.015000
v 0.009739 0.061581 -0.015000
v 0.014739 0.061581 -0.006448
v 0.014739 0.061581 0.006448
v 0.051128 0.069081 0.015000
v 0.055509 0.066581 0.006448
v 0.055509 0.066581 -0.006448
v 0.051128 0.069081 -0.015000
v 0.013241 0.069081 0.015000
v 0.013241 0.069081 -0.015000
v 0.014738 0.066581 0.006448
v 0.014738 0.066581 -0.006448
v 0.057965 0.061581 0.006448
v 0.057965 0.061581 -0.006448
v 0.009739 0.061581 -0.011448
v 0.009739 0.061581 0.011448
v 0.055508 0.069081 0.009302
v 0.055508 0.069081 -0.009302
v 0.013241 0.069081 0.009302
v 0.013241 0.069081 -0.009302
v 0.012503 0.056581 -0.006448
v 0.012503 0.056581 0.006448
v 0.050728 0.056581 0.006448
v 0.050728 0.056581 -0.006448
vn 0.1300 0.9915 0.0056
vn 0.1300 0.9915 -0.0056
vn 0.1364 0.9907 -0.0000
vn 0.1380 0.9904 0.0009
vn 0.1380 0.9904 -0.0009
vn 0.1362 0.9907 -0.0000
vn -0.9102 0.4142 -0.0000
vn -0.0000 -0.0000 -1.0000
vn 0.4188 -0.1905 -0.8879
vn 0.3044 -0.1385 -0.9424
vn 0.8553 -0.3892 -0.3421
vn 0.8553 -0.3892 0.3421
vn 0.8375 -0.3811 0.3917
vn 0.8375 -0.3811 -0.3917
vn -0.1361 -0.9907 -0.0000
vn 0.4188 -0.1905 0.8879
vn 0.3044 -0.1385 0.9424
vn -0.8763 -0.4818 -0.0000
vn -0.0000 -0.0000 1.0000
vn 0.6612 -0.2811 -0.6955
vn 0.6734 -0.2367 -0.7004
vn 0.7019 -0.1914 -0.6860
vn -0.9158 0.4016 -0.0000
vn 0.6612 -0.2811 0.6955
vn 0.7019 -0.1914 0.6860
vn 0.6734 -0.2367 0.7004
vn 0.9207 -0.3903 -0.0000
vn -0.0000 1.0000 -0.0000
vn -0.0000 0.7523 -0.6589
vn 0.7288 -0.1069 0.6763
vn -0.9061 0.4230 -0.0000
vn -0.7469 0.0875 -0.6591
vn -0.7854 0.1990 -0.5861
vn -0.7579 0.1157 -0.6420
vn 0.8375 0.4113 0.3599
vn -0.0000 0.7523 0.6589
vn -0.7579 0.1157 0.6420
vn -0.7854 0.1990 0.5861
vn -0.7469 0.0875 0.6591
vn 0.7288 -0.1069 -0.6763
vn 0.7925 0.0277 -0.6093
vn 0.8375 0.4113 -0.3599
vn 0.7925 0.0277 0.6093
vn -0.7071 -0.0002 -0.7071
vn -0.7071 -0.0002 0.7071
vn -0.9128 0.4083 -0.0000
vn 0.9128 -0.4083 -0.0000
vt 0.018272 0.769573
vt 0.013299 0.772772
vt 0.026208 0.788148
vt 0.030381 0.783709
vt 0.050356 0.783709
vt 0.054529 0.788148
vt 0.067438 0.772772
vt 0.062466 0.769573
vt 0.018396 0.712666
vt 0.014002 0.705546
vt 0.066735 0.705546
vt 0.062341 0.712666
vt 0.066737 0.705225
vt 0.014000 0.705225
vt 0.067290 0.769564
vt 0.066783 0.710159
vt 0.025687 0.785139
vt 0.055049 0.785139
vt 0.013442 0.769558
vt 0.013953 0.710158
vt 0.061778 0.676751
vt 0.011063 0.662227
vt 0.011947 0.941577
vt 0.059704 0.963094
vt 0.069738 0.680126
vt 0.068579 0.968519
vt 0.011063 0.662227
vt 0.059704 0.963094
vt 0.011947 0.941578
vt 0.061718 0.682250
vt 0.022000 0.682250
vt 0.022000 0.937379
vt 0.061715 0.937380
vt 0.068579 0.968519
vt 0.070312 0.691406
vt 0.054688 0.691406
vt 0.054688 0.984375
vt 0.070312 0.984375
vt 0.051540 0.757471
vt 0.045320 0.757469
vt 0.045320 0.808195
vt 0.051541 0.805029
vt 0.011063 0.816899
vt 0.011387 0.827784
vt 0.058008 0.847472
vt 0.059136 0.838083
vt 0.054419 0.752723
vt 0.054533 0.808682
vt 0.061718 0.802882
vt 0.061717 0.752723
vt 0.029298 0.752723
vt 0.029141 0.808681
vt 0.033258 0.808683
vt 0.033320 0.754705
vt 0.069024 0.843648
vt 0.058008 0.847473
vt 0.057015 0.823512
vt 0.054185 0.831728
vt 0.061718 0.831709
vt 0.061718 0.823512
vt 0.051540 0.751250
vt 0.042372 0.754730
vt 0.011387 0.827785
vt 0.011063 0.816899
vt 0.069024 0.843648
vt 0.064818 0.850074
vt 0.066890 0.849296
vt 0.049161 0.754707
vt 0.053705 0.748087
vt 0.033323 0.748087
vt 0.037572 0.754707
vt 0.051541 0.811250
vt 0.049200 0.752736
vt 0.037620 0.752736
vt 0.035854 0.802444
vt 0.048750 0.802444
vt 0.022002 0.752723
vt 0.022000 0.802882
vt 0.050395 0.754705
vt 0.050395 0.808683
vt 0.042372 0.754731
vt 0.022000 0.823512
vt 0.022000 0.831709
vt 0.029533 0.831728
vt 0.026703 0.823512
vt 0.066890 0.849296
vt 0.054897 0.811250
vt 0.054897 0.805029
vt 0.038853 0.805029
vt 0.038853 0.811250
vt 0.048725 0.805314
vt 0.035751 0.805314
s 1
usemtl pistols_mp_1
f 2/1/1 7/2/1 8/3/1 1/4/1
f 4/5/2 9/6/2 10/7/2 3/8/2
f 1/4/3 8/3/3 9/6/3 4/5/3
f 5/9/4 11/10/4 7/2/4 2/1/4
f 3/8/5 10/7/5 12/11/5 6/12/5
f 6/12/6 12/11/6 11/10/6 5/9/6
f 11/10/7 12/11/7 20/13/7 17/14/7
f 12/11/8 10/7/9 16/15/10 19/16/8 20/13/8
f 9/6/11 8/3/12 14/17/13 15/18/14
f 19/16/15 16/15/15 15/18/15 14/17/15 13/19/15 18/20/15
f 8/3/12 7/2/16 13/19/17 14/17/13
f 10/7/9 9/6/11 15/18/14 16/15/10
f 19/16/18 18/20/18 17/14/18 20/13/18
f 7/2/16 11/10/19 17/14/19 18/20/19 13/19/17
f 3/21/8 6/22/8 26/23/8 22/24/8
f 4/25/20 3/21/20 22/24/21 38/26/22
f 5/27/19 2/21/19 21/28/19 25/29/19
f 6/30/23 5/31/23 25/32/23 26/33/23
f 2/21/24 1/25/24 37/34/25 21/28/26
f 1/35/27 4/36/27 38/37/27 37/38/27
f 28/39/8 35/40/8 30/41/8 23/42/8
f 26/43/8 34/44/8 32/45/8 22/46/8
f 44/47/28 42/48/28 32/49/28 34/50/28
f 43/51/29 41/52/29 30/53/29 35/54/29
f 37/55/25 29/56/30 21/46/26
f 39/57/31 44/58/31 34/59/31 26/60/31
f 40/61/32 43/62/33 35/40/34
f 21/46/19 29/56/19 33/63/19 25/64/19
f 36/40/19 27/39/19 24/42/19 31/41/19
f 38/65/35 42/66/35 31/67/35
f 27/68/28 39/69/28 40/70/28 28/71/28
f 30/41/8 37/72/8 23/42/8
f 45/73/28 46/74/28 47/75/28 48/76/28
f 33/77/28 29/78/28 41/52/28 43/51/28
f 36/79/36 31/80/36 42/48/36 44/47/36
f 36/40/37 44/81/38 39/61/39
f 25/82/31 33/83/31 43/84/31 40/85/31
f 22/46/21 32/45/40 38/65/22
f 32/45/40 42/66/41 38/65/22
f 30/86/42 41/66/42 37/55/42
f 41/66/43 29/56/30 37/55/25
f 28/39/44 40/61/32 35/40/34
f 27/39/45 36/40/37 39/61/39
f 31/41/19 24/42/19 38/72/19
f 38/87/28 24/88/28 23/89/28 37/90/28
f 27/68/19 45/73/19 48/76/19 24/91/19
f 24/91/46 48/76/46 47/75/46 23/92/46
f 23/92/8 47/75/8 46/74/8 28/71/8
f 28/71/47 46/74/47 45/73/47 27/68/47
