# Blender 5.0.1
# www.blender.org
mtllib pistol_mp_1_1.mtl
o pistol_mp_1_1
v 0.194089 0.057011 0.017000
v -0.050424 0.057011 0.017000
v 0.194092 0.057011 -0.017000
v 0.098776 0.074491 0.017000
v 0.093674 0.069322 0.017000
v 0.060390 0.069322 0.017000
v 0.055180 0.071925 0.017000
v 0.033632 -0.008331 0.006116
v 0.057878 -0.011252 0.006116
v 0.116165 -0.011252 0.006116
v 0.113734 0.006701 0.006116
v 0.114304 0.022482 0.006116
v 0.122290 0.033213 0.006116
v 0.100404 0.033213 0.006116
v 0.106585 0.022978 0.006116
v 0.106915 0.006694 0.006116
v 0.101523 -0.002109 0.006116
v 0.094041 -0.004419 0.006116
v 0.059602 -0.004969 0.006116
v 0.050140 -0.002155 0.006116
v 0.042221 0.011994 0.006116
v 0.033632 -0.008331 -0.006054
v 0.057878 -0.011252 -0.006054
v 0.116165 -0.011252 -0.006054
v 0.113734 0.006701 -0.006054
v 0.114304 0.022482 -0.006054
v 0.122290 0.033213 -0.006054
v 0.100404 0.033213 -0.006054
v 0.106585 0.022978 -0.006054
v 0.106915 0.006694 -0.006054
v 0.101523 -0.002109 -0.006054
v 0.094041 -0.004419 -0.006054
v 0.059602 -0.004969 -0.006054
v 0.050140 -0.002155 -0.006054
v 0.042221 0.011994 -0.006054
v -0.034759 0.038330 0.009709
v -0.053423 0.044491 0.020000
v -0.027922 0.029625 0.009709
v -0.017720 0.033767 0.020000
v -0.028308 0.017870 0.009709
v -0.017721 0.017688 0.020000
v -0.035373 -0.003677 0.009709
v -0.025817 -0.007818 0.020000
v -0.057852 -0.039302 0.009709
v -0.048662 -0.044023 0.020000
v -0.066065 -0.065084 0.009709
v -0.050845 -0.075119 0.015000
v -0.053423 0.044491 -0.020000
v -0.034759 0.038330 -0.009709
v -0.017720 0.033767 -0.020000
v -0.027922 0.029625 -0.009709
v -0.017721 0.017688 -0.020000
v -0.028308 0.017870 -0.009709
v -0.025817 -0.007818 -0.020000
v -0.035373 -0.003677 -0.009709
v -0.048662 -0.044023 -0.020000
v -0.057852 -0.039302 -0.009709
v -0.050845 -0.075119 -0.015000
v -0.066065 -0.065084 -0.009709
v -0.002619 -0.081719 0.006448
v -0.011380 -0.080623 0.015000
v 0.197089 0.033213 0.008566
v 0.197092 0.044648 0.020000
v 0.032290 0.017688 0.020000
v 0.042221 0.011994 0.008566
v 0.050779 0.025430 0.008566
v 0.042533 0.033767 0.020000
v 0.063300 0.033213 0.008566
v 0.060035 0.044491 0.020000
v -0.011380 -0.080623 -0.015000
v -0.002619 -0.081719 -0.006448
v 0.197089 0.033213 -0.008565
v 0.197092 0.044648 -0.020000
v 0.050779 0.025430 -0.008565
v 0.042533 0.033767 -0.020000
v 0.060035 0.044491 -0.020000
v 0.063300 0.033213 -0.008565
v 0.032290 0.017688 -0.020000
v 0.042221 0.011994 -0.008565
v -0.024552 0.044491 0.020000
v -0.024552 0.044491 -0.020000
v -0.050423 0.057011 -0.017000
v 0.060092 0.062813 0.007071
v 0.055181 0.082659 -0.012000
v 0.098738 0.082659 -0.012000
v 0.203000 0.079884 0.000000
v 0.203000 0.076955 -0.007071
v 0.203000 0.062813 -0.007071
v 0.203000 0.059884 0.000000
v 0.203000 0.069884 -0.010000
v 0.203000 0.062813 0.007071
v 0.203000 0.069884 0.010000
v 0.203000 0.076955 0.007071
v -0.009374 -0.080899 0.020000
v 0.002334 -0.082400 0.008566
v 0.002334 -0.082400 -0.008565
v -0.009374 -0.080899 -0.020000
v -0.055798 -0.074438 0.020000
v -0.055798 -0.074438 -0.020000
v 0.036204 0.031581 0.015000
v 0.044964 0.031581 0.006448
v 0.044964 0.031581 -0.006448
v 0.036204 0.031581 -0.015000
v -0.003261 0.031581 0.015000
v -0.003261 0.031581 -0.015000
v 0.098776 0.074491 0.015000
v 0.093674 0.069322 0.015000
v 0.060390 0.069322 0.015000
v 0.055180 0.071925 0.015000
v 0.098738 0.080659 -0.012000
v 0.197092 0.057011 -0.020000
v -0.053423 0.057011 -0.020000
v 0.197089 0.057011 0.020000
v -0.053424 0.057011 0.020000
v 0.194092 0.044648 -0.017000
v -0.050423 0.044491 -0.017000
v 0.194089 0.044648 0.017000
v -0.050424 0.044491 0.017000
v 0.060087 0.079884 0.000000
v 0.060087 0.076955 -0.007071
v 0.060087 0.062813 -0.007071
v 0.060087 0.059884 0.000000
v 0.060087 0.069884 -0.010000
v 0.060087 0.069884 0.010000
v 0.060087 0.076955 0.007071
v 0.098776 0.079814 0.017000
v 0.098773 0.082659 0.014155
v 0.055181 0.082659 0.014155
v 0.055181 0.079814 0.017000
v 0.098776 0.078814 0.015000
v 0.098772 0.080659 0.013155
v 0.055181 0.078814 0.015000
v 0.042041 0.044552 0.015000
v 0.042041 0.044552 -0.015000
v 0.002576 0.044552 -0.015000
v 0.050801 0.044552 -0.006448
v 0.050801 0.044552 0.006448
v 0.002581 0.044552 0.015000
v 0.055181 0.080659 0.013155
v 0.055181 0.080659 -0.012000
v -0.000221 0.044322 0.014391
v -0.033815 0.044322 0.014391
v -0.000261 0.072659 -0.011609
v -0.000221 0.044322 -0.014609
v -0.033815 0.044322 -0.014609
v -0.000223 0.069814 0.014391
v -0.000226 0.072659 0.011546
v -0.033818 0.072659 0.011546
v -0.033818 0.069814 0.014391
v -0.000223 0.069814 -0.014609
v -0.033818 0.069814 -0.014609
v -0.033818 0.072659 -0.011609
vn -0.0000 -1.0000 -0.0000
vn 0.2745 -0.9616 -0.0000
vn 1.0000 -0.0000 -0.0000
vn 1.0000 0.0001 -0.0000
vn 0.7032 -0.7110 -0.0000
vn -0.5411 -0.8409 -0.0000
vn -0.9503 -0.3112 -0.0000
vn -0.0000 -0.0000 -1.0000
vn -0.9848 0.1740 -0.0000
vn 0.8854 -0.4649 -0.0000
vn -0.9048 0.4258 -0.0000
vn -0.9066 0.4220 -0.0000
vn -0.3684 0.1616 -0.9155
vn 0.3030 -0.1280 -0.9444
vn -0.3083 0.0842 -0.9476
vn 0.3228 -0.1701 0.9310
vn -0.3430 0.0530 0.9378
vn -0.3212 0.1495 0.9352
vn -0.6735 -0.7392 -0.0000
vn -0.9220 0.3872 -0.0000
vn -1.0000 -0.0001 -0.0000
vn -0.0599 -0.9982 -0.0000
vn 0.9910 0.1342 -0.0000
vn 0.9988 0.0492 -0.0000
vn 0.9434 -0.3315 -0.0000
vn 0.8023 -0.5970 -0.0000
vn -0.8560 -0.5169 -0.0000
vn -0.9606 -0.2780 -0.0000
vn -0.9652 0.2616 -0.0000
vn -0.6134 0.7898 -0.0000
vn -0.1571 0.9876 -0.0000
vn 0.1362 0.9907 -0.0000
vn 0.6248 0.7808 -0.0000
vn -0.1196 -0.9928 -0.0000
vn 0.8726 0.4884 -0.0000
vn -0.0000 -0.0000 1.0000
vn -0.2762 -0.6908 0.6683
vn -0.6444 -0.1877 0.7413
vn -0.2854 -0.0913 0.9540
vn -0.2839 -0.4408 0.8515
vn -0.6922 0.1212 0.7114
vn -0.6382 0.2996 0.7092
vn -0.6277 0.2810 0.7260
vn -0.3684 0.1616 0.9155
vn -0.6515 0.1779 -0.7375
vn -0.6277 0.2810 -0.7260
vn -0.2839 -0.4408 -0.8515
vn -0.2854 -0.0913 -0.9540
vn -0.6444 -0.1877 -0.7413
vn -0.2762 -0.6908 -0.6683
vn -0.3430 0.0530 -0.9378
vn -0.6922 0.1212 -0.7114
vn -0.3212 0.1495 -0.9352
vn -0.6382 0.2996 -0.7092
vn -0.9528 0.3036 -0.0000
vn 0.3228 -0.1701 -0.9310
vn 0.6264 -0.3277 -0.7073
vn 0.6533 -0.2761 -0.7050
vn 0.1896 -0.6693 0.7184
vn 0.0004 -0.7095 0.7047
vn 0.1649 -0.5792 0.7983
vn 0.6264 -0.3277 0.7073
vn 0.4904 -0.4981 0.7151
vn 0.2308 -0.2342 0.9444
vn 0.1649 -0.5792 -0.7983
vn 0.0004 -0.7095 -0.7047
vn 0.1896 -0.6693 -0.7184
vn 0.2308 -0.2342 -0.9444
vn 0.4904 -0.4981 -0.7151
vn 0.9211 -0.3892 -0.0000
vn -0.0000 0.2700 0.9629
vn -0.0000 0.7111 0.7031
vn 0.3030 -0.1280 0.9444
vn -0.3083 0.0842 0.9476
vn -0.0000 -0.8580 0.5136
vn -0.0000 -0.8580 -0.5136
vn -0.3134 -0.9496 -0.0000
vn -0.0000 1.0000 -0.0000
vn -0.0000 0.7071 -0.7071
vn -0.0000 -1.0000 -0.0001
vn -0.0000 -0.7071 -0.7071
vn -0.0000 -0.7071 0.7071
vn -0.0000 0.0001 1.0000
vn -0.0000 0.7071 0.7071
vn 0.6533 -0.2761 0.7050
vn -0.6515 0.1779 0.7375
vn -0.1345 -0.9909 -0.0029
vn -0.1310 -0.9914 -0.0052
vn -0.1310 -0.9914 0.0052
vn -0.1345 -0.9909 0.0029
vn -0.1362 -0.9907 -0.0000
vn -0.1371 -0.9906 -0.0003
vn -0.1371 -0.9906 0.0003
vn -0.6617 0.2793 -0.6958
vn -0.3072 0.1297 -0.9428
vn -0.4386 0.1851 -0.8794
vn 0.9133 -0.4073 -0.0000
vn -0.3072 0.1297 0.9428
vn -0.6617 0.2793 0.6958
vn -0.4386 0.1851 0.8794
vn -0.8506 -0.5259 -0.0000
vn -1.0000 0.0001 -0.0000
vn -0.8202 0.4047 -0.4045
vn -0.8610 0.4405 0.2542
vn -0.7627 -0.4572 0.4573
vn -0.2295 -0.9733 -0.0000
vn -0.4405 0.2542 -0.8610
vn 0.4404 0.2542 -0.8611
vn -0.6468 -0.7627 -0.0000
vn -0.0000 -0.7627 -0.6467
vn 0.2542 -0.8611 0.4404
vn -0.2538 -0.8610 0.4408
vn -1.0000 -0.0000 -0.0001
vn -0.0009 1.0000 0.0004
vn -0.0010 1.0000 0.0004
vn -0.0007 1.0000 -0.0002
vn -0.0008 1.0000 0.0001
vn -0.0008 1.0000 -0.0000
vn -1.0000 -0.0001 0.0001
vn 1.0000 -0.0003 -0.0000
vn -0.5720 -0.5800 -0.5800
vn 0.5721 -0.5799 -0.5800
vn 0.6467 -0.5393 -0.5393
vn 0.0010 -0.9966 -0.0819
vn -0.8364 0.3764 -0.3985
vn -0.8614 0.3876 -0.3282
vn -0.8614 0.3876 0.3282
vn -0.8364 0.3764 0.3985
vn -0.2818 0.1268 0.9511
vn -0.4477 0.2015 0.8712
vn 0.5644 -0.2541 0.7855
vn 0.7362 -0.3315 0.5900
vn 0.7363 -0.3315 -0.5900
vn 0.5642 -0.2540 -0.7856
vn -0.4477 0.2015 -0.8712
vn -0.2818 0.1268 -0.9511
vn 1.0000 0.0025 -0.0002
vn -0.0000 0.7256 -0.6881
vn 1.0000 0.0074 -0.0007
vt 0.028938 0.451055
vt 0.028938 0.269431
vt 0.055705 0.269431
vt 0.055705 0.451055
vt 0.409509 0.310768
vt 0.464197 0.310768
vt 0.464197 0.328501
vt 0.409509 0.328501
vt 0.028938 0.250191
vt 0.055705 0.250191
vt 0.055705 0.270299
vt 0.028938 0.270299
vt 0.057492 0.373009
vt 0.027151 0.373009
vt 0.027151 0.355258
vt 0.057492 0.355258
vt 0.283434 0.310357
vt 0.120055 0.310315
vt 0.120055 0.328346
vt 0.480821 0.328345
vt 0.480820 0.310542
vt 0.057492 0.354415
vt 0.027151 0.354415
vt 0.027151 0.339906
vt 0.057492 0.339906
vt 0.028938 0.275625
vt 0.055705 0.275625
vt 0.055705 0.298485
vt 0.028938 0.298485
vt 0.057492 0.337155
vt 0.027151 0.337155
vt 0.027151 0.299293
vt 0.057492 0.299293
vt 0.027151 0.228981
vt 0.057492 0.228981
vt 0.126910 0.182847
vt 0.183489 0.129743
vt 0.116634 0.139047
vt 0.243490 0.271717
vt 0.171469 0.271717
vt 0.159809 0.234986
vt 0.057492 0.186012
vt 0.027151 0.186012
vt 0.011072 0.162575
vt 0.073572 0.162575
vt 0.050395 0.173512
vt 0.033323 0.173512
vt 0.033323 0.323512
vt 0.050395 0.323512
vt 0.127591 0.433327
vt 0.127591 0.378639
vt 0.109540 0.378639
vt 0.109540 0.433327
vt 0.032766 0.228981
vt 0.051781 0.228981
vt 0.051781 0.314918
vt 0.032766 0.314918
vt 0.051781 0.342262
vt 0.032766 0.342262
vt 0.032766 0.342262
vt 0.051781 0.365700
vt 0.032766 0.365700
vt 0.051781 0.365700
vt 0.051781 0.385231
vt 0.032766 0.385231
vt 0.032766 0.365700
vt 0.032863 0.346168
vt 0.032863 0.330543
vt 0.051877 0.330543
vt 0.051877 0.346168
vt 0.051877 0.330543
vt 0.032863 0.307106
vt 0.051877 0.307106
vt 0.051877 0.307106
vt 0.032863 0.307106
vt 0.032863 0.291481
vt 0.051877 0.291481
vt 0.051877 0.291481
vt 0.032863 0.291481
vt 0.032863 0.279762
vt 0.051877 0.279762
vt 0.051877 0.279762
vt 0.032863 0.228981
vt 0.051877 0.228981
vt 0.032863 0.228981
vt 0.032863 0.217262
vt 0.051877 0.217262
vt 0.032766 0.228981
vt 0.032766 0.192636
vt 0.051781 0.192636
vt 0.032863 0.189918
vt 0.051877 0.189918
vt 0.051877 0.217262
vt 0.282689 0.237508
vt 0.280102 0.228081
vt 0.367567 0.228081
vt 0.363919 0.255020
vt 0.353686 0.255010
vt 0.345596 0.241801
vt 0.334368 0.238334
vt 0.364775 0.278701
vt 0.353191 0.279446
vt 0.146933 0.301444
vt 0.156779 0.288908
vt 0.170396 0.294714
vt 0.161631 0.310315
vt 0.156222 0.271978
vt 0.146048 0.240949
vt 0.113677 0.189646
vt 0.101848 0.152518
vt 0.171469 0.271716
vt 0.159809 0.234986
vt 0.243490 0.271716
vt 0.257791 0.263517
vt 0.200350 0.127580
vt 0.288146 0.294075
vt 0.480815 0.294079
vt 0.480820 0.310542
vt 0.283434 0.310357
vt 0.270116 0.282866
vt 0.258240 0.294872
vt 0.480815 0.294079
vt 0.028938 0.138067
vt 0.055705 0.138067
vt 0.055705 0.276070
vt 0.028938 0.276070
vt 0.480823 0.328346
vt 0.120057 0.328346
vt 0.280246 0.312420
vt 0.108006 0.312346
vt 0.151834 0.312364
vt 0.280245 0.312419
vt 0.108006 0.312346
vt 0.376758 0.294805
vt 0.343916 0.294805
vt 0.256607 0.262963
vt 0.268490 0.241732
vt 0.243719 0.232463
vt 0.026337 0.265418
vt 0.058835 0.283337
vt 0.058835 0.213688
vt 0.026337 0.231607
vt 0.318273 0.523438
vt 0.097656 0.523438
vt 0.097656 0.535156
vt 0.318273 0.535156
vt 0.097656 0.546875
vt 0.318273 0.546875
vt 0.097656 0.570312
vt 0.318273 0.570312
vt 0.318273 0.558594
vt 0.097656 0.558594
vt 0.318278 0.523437
vt 0.318275 0.535156
vt 0.318275 0.546875
vt 0.318273 0.570312
vt 0.318273 0.558594
vt 0.273667 0.420420
vt 0.273667 0.410236
vt 0.281150 0.406329
vt 0.328013 0.406329
vt 0.335227 0.414142
vt 0.335227 0.420634
vt 0.277689 0.135369
vt 0.267493 0.140124
vt 0.256923 0.136289
vt 0.252161 0.126103
vt 0.255996 0.115533
vt 0.266182 0.110771
vt 0.276762 0.114601
vt 0.281514 0.124792
vt 0.018272 0.269573
vt 0.030381 0.283709
vt 0.026697 0.291481
vt 0.011072 0.271950
vt 0.050356 0.283709
vt 0.062466 0.269573
vt 0.069665 0.271950
vt 0.054040 0.291481
vt 0.018396 0.212666
vt 0.011072 0.205543
vt 0.062341 0.212666
vt 0.069665 0.205543
vt 0.073941 0.180719
vt 0.062815 0.177133
vt 0.057130 0.338387
vt 0.067642 0.343289
vt 0.022000 0.182250
vt 0.061718 0.182250
vt 0.061718 0.323512
vt 0.022000 0.323512
vt 0.012383 0.161655
vt 0.009777 0.316306
vt 0.300400 0.491521
vt 0.311593 0.491521
vt 0.310174 0.488684
vt 0.300400 0.488684
vt 0.315629 0.487485
vt 0.315629 0.450377
vt 0.312792 0.450377
vt 0.312792 0.486066
vt 0.280600 0.491521
vt 0.273208 0.491521
vt 0.273208 0.488684
vt 0.280600 0.488684
vt 0.327821 0.406510
vt 0.280600 0.406510
vt 0.273208 0.410202
vt 0.273068 0.419977
vt 0.335060 0.419977
vt 0.335060 0.413843
vt 0.335290 0.463282
vt 0.335290 0.498512
vt 0.273645 0.498512
vt 0.273645 0.463282
vt 0.335290 0.498512
vt 0.272790 0.498512
vt 0.272790 0.498512
vt 0.335053 0.425482
vt 0.273045 0.425482
vt 0.273026 0.463519
vt 0.335047 0.463519
vt 0.015625 0.301030
vt 0.070312 0.301030
vt 0.070312 0.281498
vt 0.015625 0.281498
vt 0.070312 0.105469
vt 0.069924 0.476266
vt 0.074164 0.480375
vt 0.074219 0.101562
vt 0.016013 0.476266
vt 0.015625 0.105469
vt 0.011719 0.101562
vt 0.011774 0.480375
vt 0.015625 0.476562
vt 0.032598 0.259102
vt 0.018842 0.245792
vt 0.018842 0.185913
vt 0.067096 0.185904
vt 0.034908 0.476562
vt 0.034908 0.105469
vt 0.054688 0.105469
vt 0.054439 0.476563
vt 0.070312 0.301030
vt 0.015625 0.301030
vt 0.015625 0.281250
vt 0.070312 0.281250
vt 0.034908 0.105469
vt 0.034908 0.476562
vt 0.054439 0.476562
vt 0.277689 0.135357
vt 0.281513 0.124780
vt 0.276761 0.114589
vt 0.266181 0.110759
vt 0.255995 0.115521
vt 0.252160 0.126091
vt 0.256922 0.136276
vt 0.267492 0.140112
vt 0.427376 0.328210
vt 0.454143 0.328210
vt 0.472009 0.309165
vt 0.409509 0.309165
vt 0.335222 0.424104
vt 0.273667 0.424093
vt 0.033323 0.338110
vt 0.050395 0.338110
vt 0.056117 0.355722
vt 0.009916 0.335147
vt 0.067906 0.360670
vt 0.056117 0.355722
vt 0.061718 0.337836
vt 0.022000 0.337836
vt 0.067096 0.245799
vt 0.053340 0.259097
vt 0.070312 0.476562
vt 0.253250 0.565749
vt 0.253256 0.523259
vt 0.309250 0.523259
vt 0.309247 0.565749
vt 0.238103 0.651122
vt 0.238103 0.602785
vt 0.280592 0.602784
vt 0.280593 0.651122
vt 0.253250 0.565749
vt 0.309247 0.565749
vt 0.309241 0.566301
vt 0.309183 0.527707
vt 0.253250 0.527707
vt 0.253251 0.566301
vt 0.253250 0.571044
vt 0.309247 0.571044
vt 0.300124 0.522706
vt 0.300124 0.571044
vt 0.304866 0.566301
vt 0.304866 0.527707
vt 0.309247 0.522706
vt 0.253250 0.522706
vt 0.285335 0.607785
vt 0.285335 0.646379
vt 0.257634 0.571044
vt 0.257634 0.522706
s 1
usemtl pistols_mp_1
f 62/1/1 68/2/2 77/3/2 72/4/1
f 63/5/3 73/6/3 111/7/4 113/8/4
f 66/9/5 74/10/5 77/11/2 68/12/2
f 36/13/6 49/14/6 51/15/7 38/16/7
f 76/17/8 48/18/8 112/19/8 111/20/8 73/21/8
f 38/22/7 51/23/7 53/24/9 40/25/9
f 65/26/10 79/27/10 74/28/5 66/29/5
f 40/30/9 53/31/9 55/32/11 42/33/11
f 42/33/11 55/32/11 57/34/12 44/35/12
f 56/36/13 97/37/14 99/38/15
f 64/39/16 41/40/17 43/41/18
f 46/42/19 59/43/19 99/44/19 98/45/19
f 71/46/20 60/47/20 101/48/20 102/49/20
f 114/50/21 112/51/21 48/52/21 37/53/21
f 9/54/22 23/55/22 24/56/1 10/57/1
f 10/57/23 24/56/23 25/58/24 11/59/24
f 11/60/24 25/58/24 26/61/25 12/62/25
f 26/63/25 27/64/26 13/65/26 12/66/25
f 28/67/27 29/68/28 15/69/28 14/70/27
f 15/71/28 29/68/28 30/72/29 16/73/29
f 16/74/29 30/75/29 31/76/30 17/77/30
f 17/78/30 31/79/30 32/80/31 18/81/31
f 18/82/31 32/80/31 33/83/32 19/84/32
f 19/84/32 33/85/32 34/86/33 20/87/33
f 23/55/22 9/88/22 8/89/34 22/90/34
f 35/91/35 21/92/35 20/93/33 34/86/33
f 19/94/36 9/95/36 10/96/36 11/97/36 16/98/36 17/99/36 18/100/36
f 12/101/36 15/102/36 16/98/36 11/97/36
f 23/95/8 33/94/8 32/100/8 31/99/8 30/98/8 25/97/8 24/96/8
f 26/101/8 25/97/8 30/98/8 29/102/8
f 36/103/37 38/104/38 39/105/39 80/106/40
f 38/104/38 40/107/41 41/40/17 39/105/39
f 40/107/41 42/108/42 43/41/18 41/40/17
f 42/108/42 44/109/43 45/36/44 43/41/18
f 56/36/13 99/38/15 59/110/45 57/109/46
f 81/106/47 50/105/48 51/104/49 49/103/50
f 50/105/48 52/111/51 53/107/52 51/104/49
f 52/111/51 54/112/53 55/108/54 53/107/52
f 54/112/53 56/36/13 57/109/46 55/108/54
f 57/34/12 59/43/55 46/42/55 44/35/12
f 97/37/14 78/113/56 79/114/57 96/115/58
f 68/116/59 62/117/60 63/118/60 69/119/61
f 65/114/62 66/120/63 67/121/64 64/39/16
f 66/120/63 68/116/59 69/119/61 67/121/64
f 76/17/65 73/21/66 72/122/66 77/116/67
f 75/121/68 76/17/65 77/116/67 74/120/69
f 78/113/56 75/121/68 74/120/69 79/114/57
f 95/123/70 96/124/70 79/125/10 65/126/10
f 37/18/36 69/119/36 63/118/36 113/127/36 114/128/36
f 69/129/36 37/130/36 80/131/71
f 76/132/8 81/131/72 48/133/8
f 94/37/73 45/36/44 98/38/74
f 67/121/64 69/119/61 80/106/40 39/105/39
f 37/18/75 36/103/37 80/106/40
f 75/121/68 50/105/48 81/106/47 76/17/65
f 48/18/76 81/106/47 49/103/50
f 13/134/36 14/135/36 15/102/36 12/101/36
f 27/134/8 26/101/8 29/102/8 28/135/8
f 35/136/8 34/137/8 33/94/8 23/95/8 22/138/8
f 21/136/36 8/138/36 9/95/36 19/94/36 20/137/36
f 36/139/6 37/140/77 48/141/77 49/142/6
f 119/143/78 86/144/78 87/145/79 120/146/79
f 120/146/79 87/145/79 90/147/8 123/148/8
f 89/149/1 122/150/80 121/151/81 88/152/81
f 88/152/81 121/151/81 123/148/8 90/147/8
f 122/153/80 89/144/1 91/145/82 83/154/82
f 83/154/82 91/145/82 92/147/36 124/155/83
f 86/149/78 119/156/78 125/157/84 93/152/84
f 93/152/84 125/157/84 124/155/83 92/147/36
f 64/39/16 67/121/64 39/105/39 41/40/17
f 75/121/68 78/113/56 52/111/51 50/105/48
f 95/115/85 65/114/62 64/39/16 94/37/73
f 78/113/56 97/37/14 56/36/13 54/112/53
f 94/37/73 64/39/16 43/41/18 45/36/44
f 52/111/51 78/113/56 54/112/53
f 129/158/36 7/159/36 6/160/36 5/161/36 4/162/36 126/163/36
f 92/164/3 91/165/3 89/166/3 88/167/3 90/168/3 87/169/3 86/170/3 93/171/3
f 44/109/43 46/110/86 98/38/74 45/36/44
f 61/172/87 60/173/88 95/174/88 94/175/87
f 71/176/89 70/177/90 97/178/90 96/179/89
f 60/173/91 71/176/91 96/179/91 95/174/91
f 47/180/92 61/172/87 94/175/87 98/181/92
f 70/177/90 58/182/93 99/183/93 97/178/90
f 58/182/93 47/180/92 98/181/92 99/183/93
f 60/184/94 61/185/95 100/186/96 101/187/94
f 47/188/97 58/189/97 105/190/97 104/191/97
f 61/185/95 47/192/8 104/193/8 100/186/96
f 70/185/98 71/184/99 102/187/99 103/186/100
f 58/192/36 70/185/98 103/186/100 105/193/36
f 7/194/101 129/195/102 132/196/103 109/197/101
f 128/198/102 84/199/102 140/200/104 139/201/105
f 6/202/106 7/203/101 109/204/101 108/205/106
f 107/206/8 108/207/8 109/208/8 132/209/8 130/210/8 106/211/8
f 127/212/78 85/213/78 84/214/78 128/215/78
f 85/213/8 110/216/107 140/217/108 84/218/8
f 131/219/109 139/220/110 140/221/111 110/222/112
f 1/223/113 3/224/113 115/225/113 117/226/113
f 82/227/78 3/228/78 111/229/78 112/230/78
f 1/231/78 2/232/78 114/233/78 113/234/78
f 3/228/78 1/231/78 113/234/78 111/229/78
f 2/232/78 82/227/78 112/230/78 114/233/78
f 116/227/114 118/232/115 117/235/116 137/236/117 133/237/115 138/238/115 135/239/118
f 3/240/36 82/241/36 116/242/36 115/243/36
f 82/244/3 2/245/3 118/246/3 116/247/3
f 2/248/8 1/249/8 117/250/8 118/242/8
f 124/251/119 125/252/119 119/253/119 120/254/119 123/255/119 121/256/119 122/257/119 83/258/119
f 62/259/120 72/260/120 73/261/3 63/262/3
f 127/263/84 128/264/84 129/158/84 126/163/84
f 132/196/103 129/195/102 128/198/102 139/201/105
f 130/210/121 132/209/122 139/220/123 131/219/124
f 101/48/125 137/265/126 136/266/127 102/49/128
f 103/186/129 134/267/130 135/268/131 105/193/132
f 102/187/128 136/269/127 134/267/130 103/186/129
f 104/193/133 138/268/134 133/270/135 100/186/136
f 105/190/132 135/271/131 138/272/134 104/191/133
f 100/186/136 133/270/135 137/269/126 101/187/125
f 134/273/116 136/274/116 137/236/117 117/235/116 115/275/116 116/227/114 135/239/118
f 149/276/36 142/277/36 141/278/36 146/279/36
f 141/280/4 144/281/4 150/282/137 146/283/137
f 144/278/8 145/277/8 151/284/8 150/285/8
f 147/286/78 143/287/78 152/288/78 148/289/78
f 147/286/84 148/289/84 149/290/84 146/291/84
f 151/292/21 149/293/21 148/294/102 152/295/102
f 150/296/138 151/297/138 152/288/138 143/287/138
f 146/283/137 150/282/137 143/298/139 147/299/139
f 142/300/21 149/293/21 151/292/21 145/301/21
o pistol_mp_1_1_slide
v 0.078780 0.004491 0.020000
v 0.073678 -0.000678 0.020000
v 0.040394 -0.000678 0.020000
v 0.035184 0.001925 0.020000
v 0.078780 0.004491 0.017000
v 0.073678 -0.000678 0.017000
v 0.040394 -0.000678 0.017000
v 0.177095 -0.012989 0.020000
v 0.177095 -0.012989 -0.020000
v -0.073418 -0.013146 0.020000
v -0.073418 -0.013146 -0.020000
v -0.056131 0.015669 0.017000
v -0.065104 0.015669 -0.017000
v -0.065104 0.015669 0.017000
v -0.056131 0.015669 -0.017000
v -0.056131 0.015669 -0.003562
v -0.065104 0.015669 -0.003562
v -0.056131 0.015669 0.003562
v -0.065104 0.015669 0.003562
v -0.058131 0.021169 0.014095
v -0.063104 0.021169 0.014095
v -0.058131 0.021169 -0.014095
v -0.063104 0.021169 -0.014095
v -0.058131 0.021169 -0.003562
v -0.063104 0.021169 -0.003562
v -0.058131 0.021169 0.003562
v -0.063104 0.021169 0.003562
v 0.168869 0.015669 0.003562
v 0.159896 0.015669 -0.003562
v 0.159896 0.015669 0.003562
v 0.168869 0.015669 -0.003562
v 0.164869 0.021169 -0.002793
v 0.159896 0.021169 -0.002793
v 0.164869 0.021169 0.002793
v 0.159896 0.021169 0.002793
v 0.035184 0.015669 -0.012000
v 0.078778 0.015669 -0.012000
v 0.035185 0.012660 -0.012000
v 0.078742 0.012660 -0.012000
v 0.035184 0.001925 0.017000
v 0.174095 0.012669 -0.017000
v 0.174095 -0.012989 0.017000
v 0.174095 -0.012989 -0.017000
v -0.070418 -0.013146 0.017000
v -0.070418 -0.013146 -0.017000
v -0.070419 0.012669 -0.017000
v 0.177095 0.015669 0.017000
v 0.177095 0.012669 0.020000
v 0.035198 0.015669 0.017000
v 0.035196 0.012669 0.020000
v -0.073419 0.012669 0.020000
v -0.073419 0.015669 0.017000
v 0.078781 0.012669 0.020000
v 0.078780 0.015669 0.017000
v 0.177095 0.012669 -0.020000
v 0.177095 0.015669 -0.017000
v -0.073419 0.015669 -0.017000
v -0.073419 0.012669 -0.020000
v 0.078780 0.009810 0.017000
v 0.078773 0.012660 0.014150
v 0.035184 0.009810 0.017000
v 0.035185 0.012660 0.014150
v 0.174095 0.009819 0.017000
v 0.174095 0.012669 0.014150
v -0.070419 0.012669 0.014150
v -0.070419 0.009819 0.017000
vn -0.0000 -0.0000 1.0000
vn -0.0000 1.0000 -0.0000
vn -0.0001 -1.0000 -0.0000
vn -0.0001 -1.0000 -0.0001
vn -0.0000 -1.0000 -0.0013
vn 0.4468 0.8946 -0.0000
vn -0.7117 0.7025 -0.0000
vn -0.0000 -0.0000 -1.0000
vn -0.9398 0.3417 -0.0000
vn 0.9398 0.3417 -0.0000
vn -0.0000 0.4671 0.8842
vn -0.0000 0.4671 -0.8842
vn -0.0000 0.1384 0.9904
vn -1.0000 -0.0000 -0.0000
vn -0.0000 0.1384 -0.9904
vn 0.8087 0.5882 -0.0000
vn -1.0000 0.0001 0.0009
vn -1.0000 0.0025 0.0011
vn -1.0000 0.0042 0.0009
vn -1.0000 0.0001 0.0006
vn 1.0000 -0.0021 -0.0013
vn 1.0000 -0.0017 -0.0018
vn 1.0000 -0.0013 -0.0017
vn 1.0000 -0.0020 -0.0009
vn 1.0000 -0.0000 -0.0000
vn -1.0000 0.0070 0.0006
vn -1.0000 0.0001 0.0001
vn 0.0001 -1.0000 -0.0001
vn 1.0000 -0.0007 -0.0016
vn 0.0003 -1.0000 -0.0000
vn 1.0000 -0.0018 -0.0003
vn -0.0000 0.7071 0.7071
vn -0.0000 0.7071 -0.7071
vn -0.0001 -0.7071 -0.7071
vn 0.0001 -0.7071 -0.7071
vn 0.0001 -1.0000 -0.0000
vt 0.120055 0.328119
vt 0.480820 0.328346
vt 0.480820 0.365296
vt 0.339804 0.365296
vt 0.339236 0.353519
vt 0.331889 0.346075
vt 0.283957 0.346075
vt 0.276453 0.349823
vt 0.276471 0.365296
vt 0.120055 0.365296
vt 0.340818 0.445226
vt 0.488338 0.487997
vt 0.488338 0.438192
vt 0.109431 0.438192
vt 0.109431 0.487997
vt 0.273664 0.445161
vt 0.273440 0.483765
vt 0.113961 0.483821
vt 0.113967 0.438183
vt 0.273635 0.445184
vt 0.429040 0.478981
vt 0.429040 0.439918
vt 0.425134 0.439918
vt 0.425134 0.478981
vt 0.429040 0.475123
vt 0.429040 0.471168
vt 0.425134 0.471168
vt 0.425134 0.475123
vt 0.429040 0.459450
vt 0.429040 0.451637
vt 0.425134 0.451702
vt 0.425134 0.459450
vt 0.480817 0.328346
vt 0.480820 0.365296
vt 0.296278 0.178005
vt 0.296169 0.206717
vt 0.308264 0.200507
vt 0.308262 0.177998
vt 0.333433 0.162835
vt 0.314260 0.162835
vt 0.318533 0.174588
vt 0.329159 0.174588
vt 0.329159 0.162776
vt 0.329159 0.140267
vt 0.318534 0.140267
vt 0.318534 0.162776
vt 0.329159 0.200507
vt 0.329159 0.177998
vt 0.318534 0.177998
vt 0.318534 0.200507
vt 0.294758 0.206718
vt 0.294880 0.178006
vt 0.306858 0.177998
vt 0.306858 0.200507
vt 0.294880 0.162769
vt 0.294758 0.134057
vt 0.306858 0.140267
vt 0.306858 0.162776
vt 0.314259 0.154833
vt 0.333433 0.154833
vt 0.329159 0.166729
vt 0.318533 0.166729
vt 0.329159 0.174588
vt 0.318533 0.174588
vt 0.296169 0.134057
vt 0.296278 0.162769
vt 0.308262 0.162777
vt 0.308264 0.140268
vt 0.333433 0.154833
vt 0.314260 0.154833
vt 0.318534 0.166729
vt 0.329159 0.166729
vt 0.336962 0.174324
vt 0.326336 0.175340
vt 0.326336 0.162706
vt 0.345510 0.162706
vt 0.336962 0.176356
vt 0.336962 0.164418
vt 0.326336 0.164418
vt 0.294731 0.162776
vt 0.294731 0.177998
vt 0.306485 0.176356
vt 0.306485 0.164418
vt 0.326336 0.174324
vt 0.326336 0.162706
vt 0.308515 0.176356
vt 0.296335 0.177998
vt 0.296335 0.162776
vt 0.308515 0.164418
vt 0.162752 0.433571
vt 0.167077 0.429469
vt 0.167078 0.382985
vt 0.162752 0.378883
vt 0.125533 0.378883
vt 0.125533 0.433571
vt 0.413611 0.328501
vt 0.413611 0.361215
vt 0.417507 0.365303
vt 0.460095 0.365303
vt 0.460095 0.328501
vt 0.429014 0.443116
vt 0.425497 0.439983
vt 0.421943 0.443490
vt 0.425197 0.446334
vt 0.272812 0.366505
vt 0.335714 0.366505
vt 0.336073 0.369606
vt 0.272813 0.369606
vt 0.425508 0.439930
vt 0.429023 0.443341
vt 0.425200 0.446741
vt 0.421937 0.443563
vt 0.162996 0.424108
vt 0.158887 0.428004
vt 0.125777 0.428004
vt 0.125777 0.381520
vt 0.162996 0.381520
vt 0.476496 0.328346
vt 0.476500 0.365296
vt 0.124375 0.365296
vt 0.124375 0.328119
vt 0.391545 0.439985
vt 0.391779 0.443788
vt 0.425197 0.446334
vt 0.483800 0.438192
vt 0.429040 0.455543
vt 0.425134 0.455612
vt 0.011719 0.109375
vt 0.015625 0.113281
vt 0.015625 0.480469
vt 0.011719 0.484375
vt 0.070312 0.109375
vt 0.066406 0.113281
vt 0.070312 0.484375
vt 0.066406 0.480469
vt 0.391540 0.439919
vt 0.421937 0.443563
vt 0.391778 0.443825
vt 0.124375 0.328119
vt 0.124375 0.361192
vt 0.276470 0.361188
vt 0.339606 0.361187
vt 0.476516 0.361192
vt 0.476500 0.328346
vt 0.276474 0.369977
vt 0.120055 0.369977
vt 0.480821 0.369977
vt 0.340029 0.369977
vt 0.340723 0.487970
vt 0.273417 0.487970
vt 0.273580 0.445226
vt 0.120055 0.369971
vt 0.480820 0.369971
vt 0.409509 0.328501
vt 0.464197 0.328501
vt 0.464197 0.365303
vt 0.460095 0.369606
vt 0.413611 0.369606
vt 0.409509 0.365303
vt 0.276475 0.365296
vt 0.339804 0.365296
vt 0.476517 0.365296
vt 0.483830 0.483821
vt 0.340733 0.483769
s 1
usemtl pistols_mp_1
f 162/302/140 160/303/140 200/304/140 205/305/140 153/306/140 154/307/140 155/308/140 156/309/140 202/310/140 203/311/140
f 189/312/141 199/313/141 208/314/141 209/315/141 204/316/141 188/317/141
f 214/318/142 217/319/142 198/320/143 190/321/144
f 155/322/141 154/323/141 158/324/141 159/325/141
f 156/326/145 155/327/145 159/328/145 192/329/145
f 154/330/146 153/331/146 157/332/146 158/333/146
f 161/334/147 163/302/147 210/311/147 207/335/147
f 171/336/148 166/337/148 173/338/148 179/339/148
f 170/340/147 171/341/147 179/342/147 178/343/147
f 176/344/141 174/345/141 175/346/141 177/347/141
f 172/348/141 178/349/141 179/350/141 173/351/141
f 164/352/149 170/353/149 178/354/149 172/355/149
f 168/356/149 167/357/149 174/358/149 176/359/149
f 166/360/150 164/361/150 172/362/150 173/363/150
f 169/341/140 168/340/140 176/364/140 177/365/140
f 165/366/148 169/367/148 177/368/148 175/369/148
f 167/370/151 165/371/151 175/372/151 174/373/151
f 186/374/152 187/375/152 182/376/152 180/377/152
f 186/378/141 184/379/141 185/380/141 187/375/141
f 181/381/153 182/382/153 187/383/153 185/384/153
f 185/385/154 184/374/154 183/377/154 181/386/154
f 186/387/155 180/388/155 183/389/155 184/390/155
f 203/391/153 204/392/153 209/393/153 210/394/153 163/395/153 162/396/153
f 194/397/153 215/398/153 216/399/153 193/400/153 195/401/153
f 205/402/156 206/403/157 212/404/158 211/405/159
f 190/406/140 191/407/140 189/408/140 188/409/140
f 201/410/160 202/411/161 213/412/162 214/413/163
f 217/414/164 218/415/164 196/416/164 197/417/164 198/418/164
f 195/419/140 193/420/140 198/421/140 197/422/140
f 206/403/157 189/423/165 191/424/165 212/404/158
f 153/331/166 205/402/156 211/425/159 157/332/166
f 191/312/144 190/321/144 198/320/143 193/426/167
f 202/411/161 156/427/168 192/428/168 213/412/162
f 162/429/169 196/430/169 194/431/169 160/432/169
f 162/429/169 163/433/169 197/434/169 196/430/169
f 161/435/169 195/436/169 197/434/169 163/433/169
f 160/432/169 194/431/169 195/436/169 161/435/169
f 188/437/170 201/410/160 214/438/163 190/439/170
f 196/440/147 218/441/147 213/442/147 192/309/147 159/308/147 158/307/147 157/306/147 211/443/147 215/444/147 194/445/147
f 201/446/171 204/447/171 203/311/171 202/310/171
f 199/448/171 206/449/171 205/305/171 200/304/171
f 189/312/141 206/450/141 199/313/141
f 201/451/141 188/452/141 204/316/141
f 207/335/172 210/311/172 209/453/172 208/454/172
f 160/455/164 161/456/164 207/457/164 208/458/164 199/459/164 200/460/164
f 213/442/173 218/441/173 217/421/173 214/461/173
f 215/444/174 211/443/174 212/462/174 216/463/174
f 191/312/144 193/426/167 216/464/175 212/465/175
o pistol_mp_1_1_trigger
v 0.012368 -0.028147 -0.004033
v -0.000289 -0.015156 -0.004033
v 0.015353 -0.026750 -0.004033
v 0.009072 -0.013205 -0.004033
v 0.005694 0.008020 -0.004033
v -0.007492 -0.000345 -0.004033
v 0.012368 -0.028147 0.003967
v -0.000289 -0.015156 0.003967
v 0.015353 -0.026750 0.003967
v 0.009072 -0.013205 0.003967
v 0.005694 0.008020 0.003967
v -0.007492 -0.000345 0.003967
v 0.005734 -0.025320 -0.004033
v 0.005734 -0.025320 0.003967
v -0.006395 -0.011742 -0.004033
v -0.006395 -0.011742 0.003967
vn -0.0000 -0.0000 -1.0000
vn -0.0000 -0.0000 1.0000
vn 0.9876 0.1572 -0.0000
vn -0.3920 -0.9200 -0.0000
vn 0.4237 -0.9058 -0.0000
vn 0.9072 0.4207 -0.0000
vn -0.4880 -0.8728 -0.0000
vn -0.8603 -0.5098 -0.0000
vn -0.9954 -0.0958 -0.0000
vt 0.389000 0.665294
vt 0.385665 0.662026
vt 0.377384 0.664081
vt 0.368875 0.675610
vt 0.359059 0.678867
vt 0.354951 0.692495
vt 0.378320 0.701784
vt 0.379668 0.679837
vt 0.378329 0.701784
vt 0.354946 0.692495
vt 0.359059 0.678867
vt 0.377384 0.664081
vt 0.379262 0.667207
vt 0.362879 0.681763
vt 0.379649 0.666893
vt 0.353122 0.691775
vt 0.363020 0.681618
vt 0.363020 0.681618
s 0
usemtl pistols_mp_1
f 221/466/176 219/467/176 231/468/176 220/469/176 233/470/176 224/471/176 223/472/176 222/473/176
f 227/466/177 228/473/177 229/474/177 230/475/177 234/476/177 226/469/177 232/477/177 225/467/177
f 222/473/178 223/472/178 229/472/178 228/473/178
f 231/478/179 219/467/179 225/467/179 232/478/179
f 219/467/180 221/466/180 227/466/180 225/467/180
f 221/466/181 222/473/181 228/473/181 227/466/181
f 233/479/182 220/469/182 226/469/182 234/479/182
f 220/469/183 231/480/183 232/480/183 226/469/183
f 224/481/184 233/482/184 234/483/184 230/481/184
o pistol_mp_1_1_mag_initial
v -0.026437 -0.137519 0.006448
v -0.035198 -0.136423 0.015000
v -0.035198 -0.136423 -0.015000
v -0.026437 -0.137519 -0.006448
v -0.074663 -0.130919 0.015000
v -0.074663 -0.130919 -0.015000
v -0.033192 -0.136699 0.018000
v -0.023963 -0.137860 0.008565
v -0.023963 -0.137860 -0.008566
v -0.033192 -0.136699 -0.018000
v -0.079616 -0.130238 0.018000
v -0.079616 -0.130238 -0.018000
v -0.036335 -0.143607 0.018000
v -0.027107 -0.144768 0.008565
v -0.027107 -0.144768 -0.008566
v -0.036335 -0.143607 -0.018000
v -0.081181 -0.133678 0.018000
v -0.078985 -0.137672 0.018000
v -0.078985 -0.137672 -0.018000
v -0.081181 -0.133678 -0.018000
v 0.049199 0.061581 0.015000
v 0.049199 0.061581 -0.015000
v 0.052965 0.061581 0.006448
v 0.052965 0.061581 -0.006448
v 0.009739 0.061581 0.015000
v 0.009739 0.061581 -0.015000
v 0.014739 0.061581 -0.006448
v 0.014739 0.061581 0.006448
v 0.051128 0.069081 0.015000
v 0.055509 0.066581 0.006448
v 0.055509 0.066581 -0.006448
v 0.051128 0.069081 -0.015000
v 0.013241 0.069081 0.015000
v 0.013241 0.069081 -0.015000
v 0.014738 0.066581 0.006448
v 0.014738 0.066581 -0.006448
v 0.057965 0.061581 0.006448
v 0.057965 0.061581 -0.006448
v 0.009739 0.061581 -0.011448
v 0.009739 0.061581 0.011448
v 0.055508 0.069081 0.009302
v 0.055508 0.069081 -0.009302
v 0.013241 0.069081 0.009302
v 0.013241 0.069081 -0.009302
v 0.012503 0.056581 -0.006448
v 0.012503 0.056581 0.006448
v 0.050728 0.056581 0.006448
v 0.050728 0.056581 -0.006448
v 0.015999 0.064000 0.007000
v 0.015999 0.071000 -0.000000
v 0.015999 0.068950 0.004950
v 0.039999 0.071000 -0.000000
v 0.039999 0.064000 0.007000
v 0.039999 0.068950 0.004950
v 0.015999 0.064000 -0.007000
v 0.015999 0.068950 -0.004950
v 0.039999 0.064000 -0.007000
v 0.039999 0.068950 -0.004950
v 0.015999 0.057000 -0.000000
v 0.015999 0.059050 0.004950
v 0.039999 0.057000 -0.000000
v 0.039999 0.059050 0.004950
v 0.015999 0.059050 -0.004950
v 0.039999 0.059050 -0.004950
v 0.044670 0.071000 -0.000000
v 0.052999 0.064000 -0.000000
v 0.050145 0.068993 -0.000000
v 0.044670 0.064000 0.007000
v 0.050145 0.064000 0.004993
v 0.044670 0.068950 0.004950
v 0.050145 0.067531 0.003531
v 0.044670 0.064000 -0.007000
v 0.050145 0.064000 -0.004994
v 0.044670 0.068950 -0.004950
v 0.050145 0.067531 -0.003531
v 0.044670 0.057000 -0.000000
v 0.050145 0.059006 -0.000000
v 0.044670 0.059050 0.004950
v 0.050145 0.060469 0.003531
v 0.044670 0.059050 -0.004950
v 0.050145 0.060469 -0.003531
v 0.052014 0.066907 -0.000000
v 0.052014 0.061944 0.002055
v 0.052014 0.064000 0.002907
v 0.052014 0.064000 -0.002907
v 0.052014 0.061944 -0.002056
v 0.052014 0.066055 -0.002056
v 0.052014 0.061093 -0.000000
v 0.052014 0.066055 0.002055
v 0.047407 0.059336 0.004664
v 0.047407 0.064000 0.006596
v 0.047407 0.064000 -0.006596
v 0.047407 0.059336 -0.004664
v 0.047407 0.070596 -0.000000
v 0.047407 0.068664 -0.004664
v 0.047407 0.057403 -0.000000
v 0.047407 0.068664 0.004664
vn 0.1300 0.9915 0.0056
vn 0.1300 0.9915 -0.0056
vn 0.1364 0.9907 -0.0000
vn 0.1380 0.9904 0.0009
vn 0.1380 0.9904 -0.0009
vn 0.1362 0.9907 -0.0000
vn -0.9102 0.4142 -0.0000
vn -0.0000 -0.0000 -1.0000
vn 0.4188 -0.1905 -0.8879
vn 0.3044 -0.1385 -0.9424
vn 0.8553 -0.3892 -0.3421
vn 0.8553 -0.3892 0.3421
vn 0.8375 -0.3811 0.3917
vn 0.8375 -0.3811 -0.3917
vn -0.1361 -0.9907 -0.0000
vn 0.4188 -0.1905 0.8879
vn 0.3044 -0.1385 0.9424
vn -0.8763 -0.4818 -0.0000
vn -0.0000 -0.0000 1.0000
vn 0.6612 -0.2811 -0.6955
vn 0.6734 -0.2367 -0.7004
vn 0.7019 -0.1914 -0.6860
vn -0.9158 0.4016 -0.0000
vn 0.6612 -0.2811 0.6955
vn 0.7019 -0.1914 0.6860
vn 0.6734 -0.2367 0.7004
vn 0.9207 -0.3903 -0.0000
vn -0.0000 1.0000 -0.0000
vn -0.0000 0.7523 -0.6589
vn 0.7288 -0.1069 0.6763
vn -0.9061 0.4230 -0.0000
vn -0.7469 0.0876 -0.6591
vn -0.7854 0.1990 -0.5861
vn -0.7579 0.1157 -0.6420
vn 0.8375 0.4113 0.3599
vn -0.0000 0.7523 0.6589
vn -0.7579 0.1157 0.6420
vn -0.7854 0.1990 0.5861
vn -0.7469 0.0875 0.6591
vn 0.7288 -0.1069 -0.6763
vn 0.7925 0.0277 -0.6093
vn 0.8375 0.4113 -0.3599
vn 0.7925 0.0277 0.6093
vn -0.7071 -0.0002 -0.7071
vn -0.7071 -0.0002 0.7071
vn -0.9128 0.4083 -0.0000
vn 0.9128 -0.4083 -0.0000
vn -0.0000 -0.7071 0.7071
vn 0.0718 -0.7053 0.7053
vn 0.0718 -0.0000 0.9974
vn -0.0000 0.7071 0.7071
vn -0.0000 0.7071 -0.7071
vn -0.0000 -1.0000 -0.0000
vn -0.0000 -0.7071 -0.7071
vn -1.0000 -0.0000 -0.0000
vn 0.0718 0.7053 0.7053
vn 0.0718 0.9974 -0.0000
vn 0.0718 -0.0000 -0.9974
vn 0.0718 -0.7053 -0.7053
vn 0.0718 -0.9974 -0.0000
vn 0.0718 0.7053 -0.7053
vn 0.8420 -0.0000 0.5396
vn 0.6147 -0.0000 0.7888
vn 0.6147 -0.5577 0.5577
vn 0.8420 -0.3815 0.3815
vn 0.3179 -0.6704 0.6704
vn 0.3179 -0.0000 0.9481
vn 0.8420 -0.3815 -0.3815
vn 0.6147 -0.5577 -0.5577
vn 0.6147 -0.0000 -0.7888
vn 0.8420 -0.0000 -0.5396
vn 0.3179 -0.0000 -0.9481
vn 0.3179 -0.6704 -0.6704
vn 0.8420 0.3815 -0.3815
vn 0.6147 0.5577 -0.5577
vn 0.6147 0.7888 -0.0000
vn 0.8420 0.5396 -0.0000
vn 0.3179 0.9481 -0.0000
vn 0.3179 0.6704 -0.6704
vn 0.8420 -0.5396 -0.0000
vn 0.6147 -0.7888 -0.0000
vn 0.3179 -0.9481 -0.0000
vn 0.8420 0.3815 0.3815
vn 0.6147 0.5577 0.5577
vn 0.3179 0.6704 0.6704
vn 1.0000 -0.0000 -0.0000
vt 0.018272 0.769573
vt 0.013299 0.772772
vt 0.026208 0.788148
vt 0.030381 0.783709
vt 0.050356 0.783709
vt 0.054529 0.788148
vt 0.067438 0.772772
vt 0.062466 0.769573
vt 0.018396 0.712666
vt 0.014002 0.705546
vt 0.066735 0.705546
vt 0.062341 0.712666
vt 0.066737 0.705225
vt 0.014000 0.705225
vt 0.067290 0.769564
vt 0.066783 0.710159
vt 0.025687 0.785139
vt 0.055049 0.785139
vt 0.013442 0.769558
vt 0.013953 0.710158
vt 0.061778 0.676751
vt 0.011063 0.662227
vt 0.011947 0.941577
vt 0.059704 0.963094
vt 0.069738 0.680126
vt 0.068579 0.968519
vt 0.011063 0.662227
vt 0.059704 0.963094
vt 0.011947 0.941578
vt 0.061718 0.682250
vt 0.022000 0.682250
vt 0.022000 0.937379
vt 0.061715 0.937380
vt 0.068579 0.968519
vt 0.070312 0.691406
vt 0.054688 0.691406
vt 0.054688 0.984375
vt 0.070312 0.984375
vt 0.051540 0.757471
vt 0.045320 0.757469
vt 0.045320 0.808195
vt 0.051541 0.805029
vt 0.011063 0.816899
vt 0.011387 0.827784
vt 0.058008 0.847472
vt 0.059136 0.838083
vt 0.054419 0.752723
vt 0.054533 0.808682
vt 0.061718 0.802882
vt 0.061717 0.752723
vt 0.029298 0.752723
vt 0.029141 0.808681
vt 0.033258 0.808683
vt 0.033320 0.754705
vt 0.069024 0.843648
vt 0.058008 0.847473
vt 0.057015 0.823512
vt 0.054185 0.831728
vt 0.061718 0.831709
vt 0.061718 0.823512
vt 0.051540 0.751250
vt 0.042372 0.754730
vt 0.011387 0.827785
vt 0.011063 0.816899
vt 0.069024 0.843648
vt 0.064818 0.850074
vt 0.066890 0.849296
vt 0.049161 0.754707
vt 0.053705 0.748087
vt 0.033323 0.748087
vt 0.037572 0.754707
vt 0.051541 0.811250
vt 0.049200 0.752736
vt 0.037620 0.752736
vt 0.035854 0.802444
vt 0.048750 0.802444
vt 0.022002 0.752723
vt 0.022000 0.802882
vt 0.050395 0.754705
vt 0.050395 0.808683
vt 0.042372 0.754731
vt 0.022000 0.823512
vt 0.022000 0.831709
vt 0.029533 0.831728
vt 0.026703 0.823512
vt 0.066890 0.849296
vt 0.054897 0.811250
vt 0.054897 0.805029
vt 0.038853 0.805029
vt 0.038853 0.811250
vt 0.048725 0.805314
vt 0.035751 0.805314
vt 0.009766 0.603516
vt 0.015625 0.603516
vt 0.015623 0.608368
vt 0.009753 0.608368
vt 0.009766 0.556641
vt 0.009766 0.582031
vt 0.015625 0.582031
vt 0.015625 0.556641
vt 0.021484 0.582031
vt 0.021484 0.556641
vt 0.023383 0.643928
vt 0.018973 0.648337
vt 0.012358 0.648337
vt 0.007949 0.643928
vt 0.007949 0.637313
vt 0.012358 0.632903
vt 0.018973 0.632903
vt 0.023383 0.637313
vt 0.015623 0.608368
vt 0.009753 0.608368
vt 0.021484 0.603516
vt 0.021492 0.608368
vt 0.021492 0.608368
vt 0.021492 0.608368
vt 0.015623 0.608368
vt 0.009753 0.608368
vt 0.017389 0.661810
vt 0.018912 0.658164
vt 0.023481 0.662749
vt 0.019821 0.664250
vt 0.015636 0.611246
vt 0.010050 0.611246
vt 0.017366 0.670125
vt 0.018870 0.673784
vt 0.012397 0.673757
vt 0.013921 0.670110
vt 0.021223 0.611246
vt 0.015636 0.611246
vt 0.011489 0.667670
vt 0.007830 0.669171
vt 0.007830 0.662691
vt 0.011489 0.664220
vt 0.021223 0.611246
vt 0.015636 0.611246
vt 0.019821 0.667701
vt 0.023481 0.669230
vt 0.010050 0.611246
vt 0.013944 0.661795
vt 0.012440 0.658137
vt 0.021223 0.611246
vt 0.015636 0.611246
vt 0.010050 0.611246
vt 0.010050 0.611246
vt 0.021223 0.611246
vt 0.015655 0.665960
vt 0.020442 0.614501
vt 0.016453 0.614501
vt 0.014851 0.614501
vt 0.010861 0.614501
vt 0.014850 0.614501
vt 0.010861 0.614501
vt 0.020442 0.614501
vt 0.016453 0.614501
vt 0.014850 0.614501
vt 0.010861 0.614501
vt 0.020443 0.614501
vt 0.016453 0.614501
vt 0.020442 0.614501
vt 0.016453 0.614501
vt 0.014850 0.614501
vt 0.010861 0.614501
s 1
usemtl pistols_mp_1
f 236/484/185 241/485/185 242/486/185 235/487/185
f 238/488/186 243/489/186 244/490/186 237/491/186
f 235/487/187 242/486/187 243/489/187 238/488/187
f 239/492/188 245/493/188 241/485/188 236/484/188
f 237/491/189 244/490/189 246/494/189 240/495/189
f 240/495/190 246/494/190 245/493/190 239/492/190
f 245/493/191 246/494/191 254/496/191 251/497/191
f 246/494/192 244/490/193 250/498/194 253/499/192 254/496/192
f 243/489/195 242/486/196 248/500/197 249/501/198
f 253/499/199 250/498/199 249/501/199 248/500/199 247/502/199 252/503/199
f 242/486/196 241/485/200 247/502/201 248/500/197
f 244/490/193 243/489/195 249/501/198 250/498/194
f 253/499/202 252/503/202 251/497/202 254/496/202
f 241/485/200 245/493/203 251/497/203 252/503/203 247/502/201
f 237/504/192 240/505/192 260/506/192 256/507/192
f 238/508/204 237/504/204 256/507/205 272/509/206
f 239/510/203 236/504/203 255/511/203 259/512/203
f 240/513/207 239/514/207 259/515/207 260/516/207
f 236/504/208 235/508/208 271/517/209 255/511/210
f 235/518/211 238/519/211 272/520/211 271/521/211
f 262/522/192 269/523/192 264/524/192 257/525/192
f 260/526/192 268/527/192 266/528/192 256/529/192
f 278/530/212 276/531/212 266/532/212 268/533/212
f 277/534/213 275/535/213 264/536/213 269/537/213
f 271/538/209 263/539/214 255/529/210
f 273/540/215 278/541/215 268/542/215 260/543/215
f 274/544/216 277/545/217 269/523/218
f 255/529/203 263/539/203 267/546/203 259/547/203
f 270/523/203 261/522/203 258/525/203 265/524/203
f 272/548/219 276/549/219 265/550/219
f 261/551/212 273/552/212 274/553/212 262/554/212
f 264/524/192 271/555/192 257/525/192
f 279/556/212 280/557/212 281/558/212 282/559/212
f 267/560/212 263/561/212 275/535/212 277/534/212
f 270/562/220 265/563/220 276/531/220 278/530/220
f 270/523/221 278/564/222 273/544/223
f 259/565/215 267/566/215 277/567/215 274/568/215
f 256/529/205 266/528/224 272/548/206
f 266/528/224 276/549/225 272/548/206
f 264/569/226 275/549/226 271/538/226
f 275/549/227 263/539/214 271/538/209
f 262/522/228 274/544/216 269/523/218
f 261/522/229 270/523/221 273/544/223
f 265/524/203 258/525/203 272/555/203
f 272/570/212 258/571/212 257/572/212 271/573/212
f 261/551/203 279/556/203 282/559/203 258/574/203
f 258/574/230 282/559/230 281/558/230 257/575/230
f 257/575/192 281/558/192 280/557/192 262/554/192
f 262/554/231 280/557/231 279/556/231 261/551/231
usemtl ammo_mp_1
f 287/576/203 296/577/232 312/578/233 302/579/234
f 283/580/203 287/581/203 288/582/235 285/583/235
f 285/583/235 288/582/235 286/584/212 284/585/212
f 291/584/192 289/585/192 290/583/236 292/582/236
f 292/582/236 290/583/236 284/580/212 286/581/212
f 295/584/237 293/585/237 297/583/238 298/582/238
f 298/582/238 297/583/238 289/580/192 291/581/192
f 287/584/203 283/585/203 294/583/232 296/582/232
f 296/582/232 294/583/232 293/580/237 295/581/237
f 284/586/239 290/587/239 289/588/239 297/589/239 293/590/239 294/591/239 283/592/239 285/593/239
f 286/576/212 288/577/235 304/594/240 299/595/241
f 298/577/238 291/596/192 306/597/242 314/594/243
f 296/577/232 295/596/237 310/598/244 312/578/233
f 295/576/237 298/577/238 314/594/243 310/579/244
f 292/577/236 286/596/212 299/599/241 308/600/245
f 291/576/192 292/577/236 308/600/245 306/601/242
f 288/577/235 287/596/203 302/598/234 304/594/240
f 318/602/246 303/603/247 313/604/248 317/605/249
f 324/606/250 325/607/251 302/579/234 312/578/233
f 320/608/252 315/609/253 307/610/254 319/611/255
f 326/612/256 327/613/257 314/594/243 306/597/242
f 321/614/258 309/615/259 301/616/260 316/617/261
f 328/618/262 329/619/263 308/600/245 299/599/241
f 322/620/264 311/621/265 315/609/253 320/608/252
f 327/613/257 330/622/266 310/579/244 314/594/243
f 323/623/267 305/624/268 303/603/247 318/602/246
f 325/625/251 331/626/269 304/594/240 302/598/234
f 316/617/261 301/616/260 305/624/268 323/623/267
f 331/626/269 328/627/262 299/595/241 304/594/240
f 319/611/255 307/610/254 309/615/259 321/614/258
f 329/619/263 326/628/256 306/601/242 308/600/245
f 317/605/249 313/604/248 311/621/265 322/620/264
f 330/629/266 324/606/250 312/578/233 310/598/244
f 300/630/270 317/605/249 322/620/264
f 300/630/270 319/611/255 321/614/258
f 300/630/270 316/617/261 323/623/267
f 300/630/270 323/623/267 318/602/246
f 300/630/270 322/620/264 320/608/252
f 300/630/270 321/614/258 316/617/261
f 300/630/270 320/608/252 319/611/255
f 300/630/270 318/602/246 317/605/249
f 311/631/265 313/632/248 324/606/250 330/629/266
f 309/633/259 307/634/254 326/628/256 329/619/263
f 305/635/268 301/636/260 328/627/262 331/626/269
f 303/637/247 305/638/268 331/626/269 325/625/251
f 315/639/253 311/640/265 330/622/266 327/613/257
f 301/641/260 309/642/259 329/619/263 328/618/262
f 307/643/254 315/644/253 327/613/257 326/612/256
f 313/645/248 303/646/247 325/607/251 324/606/250
