# Blender 5.0.1
# www.blender.org
mtllib screwdriver_mp_1_1.mtl
o screwdriver_mp_1_1
v 0.007781 0.013482 0.010000
v -0.007787 0.013482 0.010000
v -0.007787 -0.013482 0.010000
v -0.015571 -0.000000 0.010000
v 0.007781 -0.013482 0.010000
v 0.015564 -0.000000 0.010000
v 0.009825 0.017023 0.005000
v -0.009831 0.017023 0.005000
v -0.009831 -0.017023 0.005000
v -0.019659 -0.000000 0.005000
v 0.019653 -0.000000 0.005000
v 0.008297 -0.014372 -0.000000
v -0.008303 -0.014372 -0.000000
v -0.016603 -0.000000 -0.000000
v 0.009825 -0.017023 0.005000
v 0.016596 -0.000000 -0.000000
v 0.008297 0.014376 -0.000000
v -0.008303 0.014372 -0.000000
v 0.019216 0.000000 0.020000
v 0.009606 -0.016644 0.020000
v 0.009606 0.016644 0.020000
v -0.019222 -0.000000 0.020000
v -0.009613 -0.016644 0.020000
v -0.009613 0.016644 0.020000
v 0.004757 -0.008244 0.138000
v 0.009606 -0.016644 0.128000
v 0.019216 -0.000000 0.128000
v 0.009517 -0.000000 0.138000
v -0.009523 -0.000000 0.138000
v -0.019222 -0.000000 0.128000
v -0.009613 -0.016644 0.128000
v -0.004763 -0.008244 0.138000
v 0.009606 0.016644 0.128000
v 0.004757 0.008244 0.138000
v -0.004763 0.008244 0.138000
v -0.009613 0.016644 0.128000
v 0.003925 -0.000003 -0.000000
v 0.001962 0.003396 -0.000000
v -0.003925 -0.000003 -0.000000
v -0.001962 0.003396 -0.000000
v 0.001962 -0.003402 -0.000000
v -0.001962 -0.003402 -0.000000
v 0.003925 -0.000003 -0.144000
v 0.001962 0.003396 -0.144000
v -0.003925 -0.000003 -0.144000
v -0.001962 0.003396 -0.144000
v -0.001962 -0.003402 -0.144000
v 0.001962 -0.003402 -0.144000
v 0.004564 -0.000003 -0.152960
v 0.002282 0.002279 -0.152960
v -0.004564 -0.000003 -0.152960
v -0.002282 0.002279 -0.152960
v -0.002282 -0.002285 -0.152960
v 0.002282 -0.002285 -0.152960
v -0.004908 0.001959 -0.155200
v -0.004908 -0.001966 -0.155200
v 0.004908 0.001959 -0.155200
v 0.003924 0.000978 -0.177600
v -0.003924 0.000978 -0.177600
v -0.003924 -0.000984 -0.177600
v 0.003924 -0.000984 -0.177600
v 0.004902 -0.001966 -0.155200
vn 0.8257 0.4767 -0.3015
vn -0.0000 0.9535 -0.3015
vn -0.7653 -0.4419 -0.4680
vn -0.0000 -0.0000 -1.0000
vn 0.7653 -0.4419 -0.4680
vn -0.8257 -0.4767 -0.3015
vn -0.8257 0.4767 -0.3015
vn -0.0000 0.8161 0.5779
vn -0.0000 -0.8161 0.5779
vn -0.7068 -0.4080 0.5779
vn -0.7068 0.4080 0.5779
vn 0.7068 0.4080 0.5779
vn -0.0000 -0.8836 -0.4683
vn -0.0001 0.8837 -0.4681
vn -0.7653 0.4419 -0.4680
vn 0.7654 0.4419 -0.4679
vn 0.8257 -0.4767 -0.3015
vn -0.0000 -0.9535 -0.3015
vn 0.7068 -0.4080 0.5779
vn -0.0000 -1.0000 -0.0000
vn -0.8660 -0.5000 -0.0000
vn -0.0000 -0.0000 1.0000
vn 0.8660 0.5000 -0.0000
vn -0.0000 1.0000 -0.0000
vn -0.8660 0.5000 -0.0000
vn 0.6631 -0.3829 0.6432
vn -0.6631 -0.3829 0.6432
vn 0.6631 0.3829 0.6432
vn -0.6631 0.3829 0.6432
vn -0.0000 0.7657 0.6432
vn -0.0000 -0.7657 0.6432
vn 0.8660 -0.5000 -0.0000
vn -0.0000 0.9980 -0.0627
vn -0.0000 0.9923 -0.1237
vn -0.0000 -0.9980 -0.0627
vn -0.0000 -0.9923 -0.1237
vn 0.8364 -0.5482 0.0027
vn 0.8347 -0.5508 0.0028
vn -0.8364 0.5482 0.0027
vn -0.8347 0.5508 0.0028
vn -0.8347 -0.5508 0.0028
vn -0.8364 -0.5482 0.0027
vn 0.8347 0.5508 0.0028
vn 0.8364 0.5482 0.0027
vn -0.8011 -0.5985 0.0056
vn -0.0000 -0.9900 -0.1413
vn 0.8011 -0.5985 0.0056
vn -0.8011 0.5985 0.0056
vn 0.8011 0.5985 0.0056
vn -0.5717 0.5717 0.5885
vn 0.5717 0.5717 0.5885
vn -0.0000 0.9900 -0.1413
vn 0.9990 -0.0010 -0.0437
vn -0.0000 0.9990 -0.0438
vn -0.0000 -0.9990 -0.0438
vn -0.5717 -0.5717 0.5885
vn -0.9990 -0.0000 -0.0439
vn 0.5722 -0.5722 0.5875
vn 0.9886 -0.0015 0.1503
vn -0.9884 -0.0000 0.1516
vt 0.659205 0.861924
vt 0.664045 0.875403
vt 0.638574 0.879837
vt 0.638574 0.865516
vt 0.677409 0.851572
vt 0.686519 0.862622
vt 0.659578 0.935435
vt 0.681836 0.935705
vt 0.685691 0.942838
vt 0.655122 0.942718
vt 0.682040 0.935707
vt 0.659714 0.935709
vt 0.648553 0.916373
vt 0.659714 0.897033
vt 0.682044 0.897033
vt 0.693205 0.916369
vt 0.693318 0.916749
vt 0.683056 0.897068
vt 0.687503 0.889801
vt 0.701417 0.917025
vt 0.590630 0.862622
vt 0.573797 0.842999
vt 0.586104 0.835677
vt 0.599739 0.851572
vt 0.691044 0.835677
vt 0.703351 0.842999
vt 0.573797 0.803801
vt 0.582140 0.801378
vt 0.594045 0.818606
vt 0.588828 0.825554
vt 0.654024 0.803801
vt 0.638992 0.825554
vt 0.633775 0.818606
vt 0.645680 0.801378
vt 0.644855 0.780453
vt 0.652982 0.777380
vt 0.582966 0.780453
vt 0.574839 0.777380
vt 0.613910 0.825235
vt 0.613910 0.833923
vt 0.641102 0.915553
vt 0.656929 0.889801
vt 0.660858 0.896886
vt 0.649209 0.915739
vt 0.613104 0.875403
vt 0.617943 0.861924
vt 0.557292 0.989583
vt 0.557292 0.963542
vt 0.703125 0.963542
vt 0.703125 0.989583
vt 0.615138 0.920102
vt 0.589526 0.920102
vt 0.595929 0.909012
vt 0.608735 0.909012
vt 0.633063 0.919813
vt 0.619255 0.947535
vt 0.609282 0.929843
vt 0.613498 0.919791
vt 0.586035 0.893890
vt 0.616990 0.893890
vt 0.607008 0.910751
vt 0.595999 0.911575
vt 0.588285 0.947537
vt 0.598269 0.930700
vt 0.572255 0.921603
vt 0.591829 0.921609
vt 0.608735 0.931193
vt 0.595929 0.931193
vt 0.379138 0.795833
vt 0.373899 0.795834
vt 0.373394 0.783658
vt 0.379645 0.783657
vt 0.373906 0.989481
vt 0.379189 0.989483
vt 0.379196 0.795834
vt 0.373957 0.795833
vt 0.379701 0.783658
vt 0.373450 0.783657
vt 0.368622 0.989480
vt 0.368681 0.795620
vt 0.384473 0.989480
vt 0.379189 0.989481
vt 0.384414 0.795620
vt 0.384473 0.989483
vt 0.384473 0.795622
vt 0.373906 0.989483
vt 0.368622 0.989483
vt 0.368622 0.795622
vt 0.384114 0.783306
vt 0.348438 0.914220
vt 0.354578 0.914219
vt 0.358109 0.911175
vt 0.344914 0.911177
vt 0.369038 0.783306
vt 0.384057 0.783306
vt 0.368981 0.783306
vt 0.358819 0.915145
vt 0.354577 0.914218
vt 0.358110 0.911175
vt 0.348438 0.914218
vt 0.344196 0.915145
vt 0.344906 0.911175
vt 0.354957 0.817286
vt 0.352320 0.817171
vt 0.352320 0.786980
vt 0.357594 0.787211
vt 0.353161 0.825882
vt 0.353503 0.836435
vt 0.350865 0.836520
vt 0.350523 0.825968
vt 0.346229 0.881013
vt 0.356787 0.881013
vt 0.356781 0.881013
vt 0.346223 0.881015
vt 0.358819 0.915144
vt 0.355800 0.866538
vt 0.350523 0.866709
vt 0.344196 0.915144
vt 0.355091 0.784051
vt 0.353260 0.869670
s 1
usemtl misc_mp_1
f 1/1/1 21/2/1 19/3/1 6/4/1
f 2/5/2 24/6/2 21/2/2 1/1/2
f 14/7/3 13/8/3 9/9/3 10/10/3
f 13/11/4 14/12/4 18/13/4 17/14/4 16/15/4 12/16/4
f 12/17/5 16/18/5 11/19/5 15/20/5
f 23/21/6 22/22/6 4/23/6 3/24/6
f 4/25/7 22/26/7 24/6/7 2/5/7
f 8/27/8 2/28/8 1/29/8 7/30/8
f 9/31/9 15/32/9 5/33/9 3/34/9
f 3/34/10 4/35/10 10/36/10 9/31/10
f 4/37/11 2/28/11 8/27/11 10/38/11
f 1/29/12 6/39/12 11/40/12 7/30/12
f 13/8/13 12/17/13 15/20/13 9/9/13
f 8/41/14 7/42/14 17/43/14 18/44/14
f 14/7/15 10/10/15 8/41/15 18/44/15
f 16/18/16 17/43/16 7/42/16 11/19/16
f 6/4/17 19/3/17 20/45/17 5/46/17
f 3/24/18 5/46/18 20/45/18 23/21/18
f 5/33/19 15/32/19 11/40/19 6/39/19
f 23/47/20 20/48/20 26/49/20 31/50/20
f 22/47/21 23/48/21 31/49/21 30/50/21
f 29/51/22 28/52/22 34/53/22 35/54/22
f 19/47/23 21/48/23 33/49/23 27/50/23
f 21/47/24 24/48/24 36/49/24 33/50/24
f 24/49/25 22/50/25 30/47/25 36/48/25
f 26/55/26 27/56/26 28/57/26 25/58/26
f 30/59/27 31/60/27 32/61/27 29/62/27
f 27/56/28 33/63/28 34/64/28 28/57/28
f 36/65/29 30/59/29 29/62/29 35/66/29
f 33/63/30 36/65/30 35/66/30 34/64/30
f 31/60/31 26/55/31 25/58/31 32/61/31
f 20/47/32 19/48/32 27/49/32 26/50/32
f 32/67/22 25/68/22 28/52/22 29/51/22
f 46/69/33 44/70/33 50/71/34 52/72/34
f 41/73/20 42/74/20 47/75/35 48/76/35
f 48/76/35 47/75/35 53/77/36 54/78/36
f 37/79/32 41/73/32 48/76/37 43/80/38
f 39/81/25 40/82/25 46/69/39 45/83/40
f 42/74/21 39/84/21 45/85/41 47/75/42
f 38/86/23 37/87/23 43/88/43 44/70/44
f 47/75/42 45/85/41 51/89/45 53/77/45
f 54/90/46 53/91/46 56/92/46 62/93/46
f 43/80/38 48/76/37 54/78/47 49/94/47
f 45/83/40 46/69/39 52/72/48 51/95/48
f 44/70/44 43/88/43 49/96/49 50/71/49
f 40/82/24 38/86/24 44/70/33 46/69/33
f 51/97/50 52/98/50 55/99/50
f 50/100/51 49/101/51 57/102/51
f 52/98/52 50/100/52 57/102/52 55/99/52
f 61/103/53 58/104/53 57/105/53 62/106/53
f 61/107/4 60/108/4 59/109/4 58/110/4
f 55/99/54 57/102/54 58/111/54 59/112/54
f 62/93/55 56/92/55 60/113/55 61/114/55
f 53/91/56 51/115/56 56/92/56
f 59/109/57 60/108/57 56/116/57 55/117/57
f 54/90/58 62/93/58 49/118/58
f 62/106/59 57/105/59 49/119/59
f 56/116/60 51/120/60 55/117/60
