# Blender 5.0.1
# www.blender.org
mtllib sword_mp_1.mtl
o sword_mp_1
v -0.026271 0.000000 -0.169766
v -0.039624 0.000000 -0.162463
v -0.051581 0.000000 -0.151332
v -0.060928 0.000000 -0.134702
v -0.122259 0.000000 -0.132884
v -0.137585 0.000000 -0.136521
v -0.153954 0.000000 -0.148734
v -0.162272 0.000000 -0.146137
v -0.151881 0.000000 -0.089227
v -0.144085 0.000000 -0.091566
v -0.129272 0.000000 -0.100921
v 0.026271 0.000000 -0.169766
v 0.039624 0.000000 -0.162463
v 0.051581 0.000000 -0.151332
v 0.060928 0.000000 -0.134702
v 0.122259 0.000000 -0.132884
v 0.137585 0.000000 -0.136521
v 0.153954 0.000000 -0.148734
v 0.162272 0.000000 -0.146137
v 0.151881 0.000000 -0.089227
v 0.144085 0.000000 -0.091566
v 0.129272 0.000000 -0.100921
v 0.000000 0.000000 -0.174607
v -0.026271 0.024000 -0.169766
v -0.039624 0.024000 -0.162463
v -0.051581 0.024000 -0.151332
v -0.060928 0.024000 -0.134702
v -0.122259 0.024000 -0.132884
v -0.137585 0.024000 -0.136521
v -0.153954 0.024000 -0.148734
v -0.162272 0.024000 -0.146137
v -0.151881 0.024000 -0.089227
v -0.144085 0.024000 -0.091566
v -0.129272 0.024000 -0.100921
v 0.000000 0.024000 -0.174607
v 0.026271 0.024000 -0.169766
v 0.039624 0.024000 -0.162463
v 0.051581 0.024000 -0.151332
v 0.060928 0.024000 -0.134702
v 0.122259 0.024000 -0.132884
v 0.137585 0.024000 -0.136521
v 0.153954 0.024000 -0.148734
v 0.162272 0.024000 -0.146137
v 0.151881 0.024000 -0.089227
v 0.144085 0.024000 -0.091566
v 0.129272 0.024000 -0.100921
v 0.000000 0.012000 -0.895947
v -0.015920 0.012000 -0.872150
v -0.021158 0.012000 -0.854190
v -0.026271 0.012000 -0.169766
v 0.015920 0.012000 -0.872150
v 0.021158 0.012000 -0.854190
v 0.026271 0.012000 -0.169766
v 0.000000 0.003600 -0.174607
v 0.000000 0.020400 -0.174607
v 0.000000 0.020400 -0.854190
v 0.000000 0.003600 -0.854190
v 0.000000 0.017494 -0.872150
v 0.000000 0.006506 -0.872150
v -0.013098 0.000000 -0.100920
v -0.025136 0.006000 -0.100921
v -0.025136 0.006000 0.115472
v -0.013098 0.000000 0.115472
v 0.025136 0.006000 -0.100921
v 0.013098 0.000000 -0.100920
v 0.013098 0.000000 0.115472
v 0.025136 0.006000 0.115472
v -0.025136 0.018000 -0.100921
v -0.013098 0.024000 -0.100920
v -0.013098 0.024000 0.115472
v -0.025136 0.018000 0.115472
v 0.013098 0.024000 -0.100920
v 0.025136 0.018000 -0.100921
v 0.025136 0.018000 0.115472
v 0.013098 0.024000 0.115472
v -0.049136 0.018000 0.115472
v -0.037099 0.024000 0.139472
v 0.037098 0.000000 0.115472
v 0.049136 0.006000 0.115472
v 0.049136 0.018000 0.115472
v 0.037098 0.024000 0.115472
v 0.037099 0.000000 0.139472
v 0.049136 0.006000 0.139472
v 0.049136 0.018000 0.139472
v 0.037099 0.024000 0.139472
v -0.049136 0.006000 0.115472
v -0.037098 0.000000 0.115472
v -0.037098 0.024000 0.115472
v -0.049136 0.006000 0.139472
v -0.037099 0.000000 0.139472
v -0.049136 0.018000 0.139472
vn -0.0000 -1.0000 -0.0000
vn -0.0000 1.0000 -0.0000
vn -0.4145 -0.0000 0.9101
vn -0.5339 -0.0000 0.8455
vn -0.3348 -0.0000 -0.9423
vn -0.5852 -0.0000 -0.8109
vn -0.7859 -0.0000 -0.6183
vn -0.8717 -0.0000 -0.4900
vn -0.0296 -0.0000 -0.9996
vn 0.1015 -0.0000 -0.9948
vn 0.3348 -0.0000 -0.9423
vn 0.5852 -0.0000 -0.8109
vn 0.4232 -0.0000 -0.9060
vn 0.7859 -0.0000 -0.6183
vn 0.5980 -0.0000 -0.8015
vn 0.8717 -0.0000 -0.4900
vn -0.2981 -0.0000 -0.9545
vn 0.0296 -0.0000 -0.9996
vn -0.1015 -0.0000 -0.9948
vn -0.9837 -0.0000 0.1796
vn -0.4232 -0.0000 -0.9060
vn 0.2874 -0.0000 0.9578
vn 0.4145 -0.0000 0.9101
vn -0.5980 -0.0000 -0.8015
vn 0.5339 -0.0000 0.8455
vn 0.2981 -0.0000 -0.9545
vn -0.0000 -0.0000 1.0000
vn 0.9837 -0.0000 0.1796
vn -0.2874 -0.0000 0.9578
vn -0.0000 -0.0000 -1.0000
vn 0.3380 0.9279 -0.1572
vn 0.3187 0.9236 -0.2132
vn 0.3343 0.9274 -0.1680
vn -0.3380 -0.9279 -0.1572
vn -0.3187 -0.9236 -0.2132
vn -0.3343 -0.9274 -0.1680
vn -0.3380 0.9279 -0.1572
vn -0.3343 0.9274 -0.1680
vn -0.3187 0.9236 -0.2132
vn 0.3340 0.9426 -0.0013
vn 0.3411 0.9383 -0.0579
vn 0.3416 0.9378 -0.0625
vn -0.3340 0.9426 -0.0013
vn -0.3416 0.9378 -0.0625
vn -0.3411 0.9383 -0.0579
vn 0.3340 -0.9426 -0.0013
vn 0.3416 -0.9378 -0.0625
vn 0.3411 -0.9383 -0.0579
vn -0.3340 -0.9426 -0.0013
vn -0.3411 -0.9383 -0.0579
vn -0.3416 -0.9378 -0.0625
vn 0.3343 -0.9274 -0.1680
vn 0.3380 -0.9279 -0.1572
vn 0.3187 -0.9236 -0.2132
vn -0.2291 -0.9734 -0.0000
vn 0.2291 -0.9734 -0.0000
vn -0.2291 0.9734 -0.0000
vn 0.2291 0.9734 -0.0000
vn -0.4461 -0.8950 -0.0000
vn 0.4461 -0.8950 -0.0000
vn -0.4461 0.8950 -0.0000
vn 0.4461 0.8950 -0.0000
vn -1.0000 -0.0000 -0.0000
vn 1.0000 -0.0000 -0.0000
vn -0.1724 -0.7320 -0.6591
vn 0.1722 -0.7321 -0.6591
vn 0.7038 0.6150 -0.3555
vn 0.1723 0.7321 -0.6591
vn 0.8644 -0.3555 -0.3555
vn 0.8644 0.3555 -0.3555
vn 0.7038 -0.6151 -0.3555
vn -0.1724 0.7320 -0.6591
vn -0.7038 0.6151 -0.3555
vn -0.8644 0.3555 -0.3555
vn -0.8644 -0.3555 -0.3555
vn -0.7038 -0.6150 -0.3555
vt 0.666704 0.332938
vt 0.853684 0.305428
vt 0.146351 0.305428
vt 0.333332 0.332938
vt 0.571896 0.361496
vt 0.500018 0.365436
vt 0.428140 0.361496
vt 0.789062 0.537209
vt 0.882812 0.537209
vt 0.882812 0.558140
vt 0.789062 0.558140
vt 0.882812 0.774419
vt 0.882812 0.790698
vt 0.789062 0.790698
vt 0.789062 0.774419
vt 0.882812 0.809302
vt 0.789062 0.809302
vt 0.882812 0.832558
vt 0.789062 0.832558
vt 0.882812 0.902326
vt 0.789062 0.902326
vt 0.882812 0.711628
vt 0.789062 0.711628
vt 0.789062 0.693023
vt 0.882812 0.693023
vt 0.882812 0.923256
vt 0.789062 0.923256
vt 0.789062 0.672093
vt 0.882812 0.672093
vt 0.882812 0.948837
vt 0.789062 0.948837
vt 0.789062 0.651163
vt 0.882812 0.651163
vt 0.882812 0.958140
vt 0.789062 0.958140
vt 0.789062 0.579070
vt 0.882812 0.579070
vt 0.882812 0.386046
vt 0.882812 0.453488
vt 0.789062 0.453488
vt 0.789062 0.386046
vt 0.789062 0.560465
vt 0.882812 0.560465
vt 0.789062 0.888372
vt 0.789062 0.881395
vt 0.882812 0.881395
vt 0.882812 0.888372
vt 0.789062 0.860465
vt 0.882812 0.860465
vt 0.789062 0.525581
vt 0.882812 0.525581
vt 0.789062 0.523256
vt 0.882812 0.523256
vt 0.789062 0.741860
vt 0.882812 0.741860
vt 0.543887 0.930921
vt 0.500018 0.950235
vt 0.500018 0.930892
vt 0.456149 0.930921
vt 0.456149 0.930921
vt 0.571896 0.361495
vt 0.557907 0.916230
vt 0.500018 0.916186
vt 0.428140 0.361495
vt 0.442129 0.916230
vt 0.571896 0.361495
vt 0.428140 0.361495
vt 0.543934 0.930890
vt 0.456102 0.930890
vt 0.165541 0.331458
vt 0.123611 0.334420
vt 0.078820 0.344367
vt 0.105823 0.297809
vt 0.056068 0.342250
vt 0.084496 0.295905
vt 0.876436 0.334420
vt 0.834506 0.331458
vt 0.894213 0.297809
vt 0.921216 0.344367
vt 0.915540 0.295905
vt 0.943968 0.342250
vt 0.358898 0.346483
vt 0.641137 0.346483
vt 0.391613 0.355547
vt 0.608423 0.355547
vt 0.428141 0.361495
vt 0.391613 0.355547
vt 0.608422 0.355547
vt 0.571895 0.361495
vt 0.391613 0.355547
vt 0.571895 0.361495
vt 0.608422 0.355547
vt 0.445312 0.304618
vt 0.523438 0.304618
vt 0.523437 0.120959
vt 0.445313 0.120959
vt 0.523437 0.120959
vt 0.445313 0.120959
vt 0.445312 0.120960
vt 0.406249 0.120960
vt 0.406250 0.304618
vt 0.554688 0.304618
vt 0.554688 0.120960
vt 0.523438 0.120960
vt 0.554688 0.120960
vt 0.523438 0.120960
vt 0.593750 0.304618
vt 0.593750 0.120961
vt 0.554688 0.120961
vt 0.593750 0.120961
vt 0.554688 0.120961
vt 0.805459 0.628143
vt 0.866489 0.628143
vt 0.866489 0.571978
vt 0.805459 0.571978
vt 0.797330 0.440530
vt 0.873618 0.440530
vt 0.873618 0.510736
vt 0.797330 0.510736
vt 0.866489 0.571978
vt 0.805459 0.571978
vt 0.820716 0.562866
vt 0.851232 0.562866
vt 0.873619 0.427803
vt 0.797330 0.440530
vt 0.797331 0.427803
vt 0.873619 0.523463
vt 0.873619 0.534817
vt 0.797331 0.534817
vt 0.797331 0.523463
vt 0.873618 0.510736
vt 0.797330 0.510736
vt 0.851232 0.562865
vt 0.820716 0.562865
vt 0.873619 0.523463
vt 0.797331 0.523463
vt 0.797331 0.534817
vt 0.873619 0.427803
vt 0.866489 0.628143
vt 0.851232 0.637255
vt 0.820716 0.637255
vt 0.805459 0.628143
vt 0.820716 0.637255
vt 0.851232 0.637255
s 1
usemtl sword_mp_1
f 15/1/1 22/2/1 11/3/1 4/4/1
f 36/5/2 35/6/2 24/7/2
f 21/8/3 45/9/3 46/10/4 22/11/4
f 1/12/5 2/13/6 25/14/6 24/15/5
f 2/13/6 3/16/7 26/17/7 25/14/6
f 3/16/7 4/18/8 27/19/8 26/17/7
f 4/18/9 5/20/10 28/21/10 27/19/9
f 12/22/11 36/23/11 37/24/12 13/25/12
f 5/20/10 6/26/13 29/27/13 28/21/10
f 13/25/12 37/24/12 38/28/14 14/29/14
f 6/26/13 7/30/15 30/31/15 29/27/13
f 14/29/14 38/28/14 39/32/16 15/33/16
f 7/30/17 8/34/17 31/35/17 30/31/17
f 15/33/18 39/32/18 40/36/19 16/37/19
f 8/38/20 9/39/20 32/40/20 31/41/20
f 16/37/19 40/36/19 41/42/21 17/43/21
f 9/44/22 10/45/23 33/46/23 32/47/22
f 17/43/21 41/42/21 42/8/24 18/9/24
f 10/45/23 11/48/25 34/49/25 33/46/23
f 18/9/26 42/8/26 43/50/26 19/51/26
f 22/11/27 46/10/27 34/49/27 11/48/27
f 19/39/28 43/40/28 44/52/28 20/53/28
f 20/50/29 44/51/29 45/9/3 21/8/3
f 1/12/5 24/15/5 35/54/30 23/55/30
f 23/55/30 35/54/30 36/23/11 12/22/11
f 51/56/31 47/57/32 58/58/33
f 48/59/34 47/57/35 59/58/36
f 48/60/37 58/58/38 47/57/39
f 53/61/40 52/62/41 56/63/42 55/6/40
f 50/64/43 55/6/43 56/63/44 49/65/45
f 53/66/46 54/6/46 57/63/47 52/62/48
f 50/67/49 49/65/50 57/63/51 54/6/49
f 52/62/41 51/68/31 58/58/33 56/63/42
f 49/65/45 56/63/44 58/58/38 48/69/37
f 52/62/48 57/63/47 59/58/52 51/68/53
f 49/65/50 48/69/34 59/58/36 57/63/51
f 51/56/53 59/58/52 47/57/54
f 28/70/2 29/71/2 34/3/2
f 29/71/2 30/72/2 33/73/2 34/3/2
f 30/72/2 31/74/2 32/75/2 33/73/2
f 46/2/2 41/76/2 40/77/2
f 41/76/2 46/2/2 45/78/2 42/79/2
f 45/78/2 44/80/2 43/81/2 42/79/2
f 27/4/2 34/3/2 46/2/2 39/1/2
f 26/82/2 27/4/2 39/1/2 38/83/2
f 25/84/2 26/82/2 38/83/2 37/85/2
f 24/86/2 25/87/2 37/88/2 36/89/2
f 34/3/2 27/4/2 28/70/2
f 46/2/2 40/77/2 39/1/2
f 4/4/1 3/82/1 14/83/1 15/1/1
f 3/82/1 2/84/1 13/85/1 14/83/1
f 2/90/1 1/86/1 12/91/1 13/92/1
f 1/7/1 23/6/1 12/5/1
f 16/77/1 17/76/1 22/2/1
f 17/76/1 18/79/1 21/78/1 22/2/1
f 18/79/1 19/81/1 20/80/1 21/78/1
f 11/3/1 6/71/1 5/70/1
f 6/71/1 11/3/1 10/73/1 7/72/1
f 10/73/1 9/75/1 8/74/1 7/72/1
f 11/3/1 5/70/1 4/4/1
f 22/2/1 15/1/1 16/77/1
f 60/93/55 65/94/56 66/95/56 63/96/55
f 70/97/57 75/98/58 72/93/58 69/94/57
f 60/93/55 63/99/55 62/100/59 61/101/59
f 64/102/60 67/103/60 66/104/56 65/94/56
f 68/102/61 71/105/61 70/106/57 69/94/57
f 72/93/58 75/99/58 74/100/62 73/101/62
f 61/107/63 62/108/63 71/109/63 68/102/63
f 64/102/64 73/107/64 74/110/64 67/111/64
f 87/112/30 88/113/30 81/114/30 78/115/30
f 90/116/55 87/117/65 78/118/66 82/119/56
f 85/120/27 82/121/27 83/122/27 84/123/27
f 80/124/67 81/117/68 85/125/58 84/126/62
f 79/127/69 80/128/70 84/129/64 83/130/64
f 78/118/66 79/127/71 83/130/60 82/119/56
f 81/117/68 88/131/72 77/132/57 85/125/58
f 81/114/30 80/133/30 79/134/30 78/115/30
f 88/131/72 76/135/73 91/136/61 77/132/57
f 76/135/74 86/128/75 89/137/63 91/136/63
f 86/138/76 87/117/65 90/116/55 89/126/59
f 77/139/27 91/140/27 89/141/27 90/142/27
f 88/113/30 87/112/30 86/143/30 76/144/30
f 90/142/27 82/121/27 85/120/27 77/139/27
