# Blender 5.0.1
# www.blender.org
mtllib mushroom_n_2.mtl
o mushroom_n_2
v 0.009381 0.210000 0.053204
v -0.041385 0.210000 0.034726
v 0.050766 0.210000 0.018477
v 0.041385 0.210000 -0.034726
v -0.050766 0.210000 -0.018477
v -0.009381 0.210000 -0.053204
v -0.061414 0.014000 -0.022353
v 0.061414 0.014000 0.022353
v 0.011349 0.014000 0.064363
v 0.050065 0.014000 -0.042010
v -0.050065 0.014000 0.042010
v -0.011349 0.014000 -0.064363
v 0.011727 0.105000 0.066505
v -0.063458 0.105000 -0.023097
v -0.051731 0.105000 0.043408
v 0.051731 0.105000 -0.043408
v 0.063458 0.105000 0.023097
v -0.011727 0.105000 -0.066505
v -0.054499 0.052500 0.045730
v 0.054499 0.052500 -0.045730
v 0.066853 0.052500 0.024332
v 0.012354 0.052500 0.070062
v -0.066853 0.052500 -0.024332
v -0.012354 0.052500 -0.070062
v -0.050766 -0.000000 -0.018477
v 0.050766 -0.000000 0.018477
v 0.009381 -0.000000 0.053204
v 0.041385 -0.000000 -0.034726
v -0.041385 -0.000000 0.034726
v -0.009381 -0.000000 -0.053204
v 0.000874 0.287973 -0.002402
v 0.023148 0.238465 0.128165
v 0.019038 0.263988 0.102712
v 0.012674 0.280523 0.065205
v 0.044769 0.279801 0.050247
v 0.068780 0.262870 0.079529
v 0.084680 0.237081 0.099488
v -0.022608 0.280787 0.062115
v -0.035641 0.264398 0.097922
v -0.044492 0.238972 0.122240
v -0.066593 0.279801 0.009714
v -0.103809 0.262870 0.016712
v -0.128818 0.237081 0.021781
v -0.051622 0.280523 0.041804
v -0.080606 0.263988 0.066444
v -0.100115 0.238465 0.083301
v 0.123617 0.235191 0.043892
v 0.100255 0.261342 0.034587
v 0.065079 0.278815 0.021248
v 0.068161 0.277829 -0.014022
v 0.105032 0.259813 -0.020073
v 0.129525 0.233301 -0.023724
v 0.053189 0.277107 -0.046111
v 0.081829 0.258695 -0.069805
v 0.100822 0.231917 -0.085244
v 0.045199 0.231410 -0.124184
v 0.036864 0.258285 -0.101283
v 0.024176 0.276843 -0.066422
v -0.063511 0.278815 -0.025555
v -0.099032 0.261342 -0.037948
v -0.122909 0.235191 -0.045836
v -0.011106 0.277107 -0.069513
v -0.017815 0.258695 -0.106072
v -0.022441 0.231917 -0.130108
v -0.043201 0.277829 -0.054554
v -0.067556 0.259813 -0.082890
v -0.083972 0.233301 -0.101431
v -0.130130 0.209285 -0.047669
v -0.056599 0.204344 -0.020754
v -0.059314 0.205213 0.010320
v -0.136373 0.211282 0.023768
v 0.038803 0.205213 0.046032
v 0.089190 0.211282 0.105866
v 0.024181 0.212744 0.136164
v 0.010525 0.205849 0.059211
v 0.106244 0.205826 -0.089305
v 0.046222 0.202839 -0.038865
v 0.020659 0.202607 -0.056761
v 0.047478 0.205291 -0.130444
v -0.020560 0.206082 0.056489
v -0.047281 0.213280 0.129904
v -0.106048 0.212744 0.088765
v -0.046123 0.205849 0.038593
v 0.130327 0.209285 0.047129
v 0.056698 0.204344 0.020482
v 0.059413 0.203475 -0.010592
v 0.136569 0.207288 -0.024308
v -0.023984 0.205826 -0.136704
v -0.010426 0.202839 -0.059484
v -0.038704 0.203475 -0.046304
v -0.088993 0.207288 -0.106406
v -0.124698 0.204344 -0.045540
v -0.130677 0.206257 0.022890
v 0.101728 0.201031 -0.085423
v 0.045435 0.200518 -0.124831
v 0.023118 0.207658 0.130555
v 0.085391 0.206257 0.101533
v -0.101629 0.207658 0.085151
v -0.045336 0.208170 0.124559
v -0.023019 0.201031 -0.130827
v -0.085292 0.202431 -0.101805
v 0.124797 0.204344 0.045268
v 0.130776 0.202431 -0.023162
v -0.090648 0.194344 -0.033147
v -0.094996 0.195735 0.016605
v 0.073975 0.191935 -0.062144
v 0.033047 0.191562 -0.090796
v 0.016822 0.196753 0.094883
v 0.062097 0.195735 0.073783
v -0.073876 0.196753 0.061872
v -0.032948 0.197126 0.090524
v -0.016723 0.191935 -0.095155
v -0.061998 0.192953 -0.074055
v 0.090747 0.194344 0.032875
v 0.095095 0.192953 -0.016877
vn -0.1735 -0.0389 -0.9841
vn -0.1601 -0.3879 -0.9077
vn -0.8661 -0.3879 -0.3152
vn -0.9390 -0.0393 -0.3418
vn 0.7061 -0.3879 -0.5925
vn 0.3718 -0.8743 -0.3120
vn -0.0843 -0.8743 -0.4780
vn 0.7598 0.1276 -0.6375
vn 0.7624 0.0972 -0.6397
vn -0.1728 0.0972 -0.9801
vn -0.1722 0.1276 -0.9768
vn 0.7655 -0.0389 -0.6423
vn 0.9390 -0.0389 0.3418
vn 0.8661 -0.3879 0.3152
vn -0.7654 -0.0395 0.6423
vn -0.7061 -0.3879 0.5925
vn 0.1735 -0.0393 0.9840
vn 0.1601 -0.3879 0.9077
vn -0.4561 -0.8743 -0.1660
vn -0.3718 -0.8743 0.3120
vn 0.9320 0.1276 0.3392
vn 0.1722 0.1276 0.9768
vn 0.1728 0.0972 0.9801
vn 0.9352 0.0972 0.3404
vn -0.7598 0.1276 0.6375
vn -0.7624 0.0978 0.6397
vn -0.9320 0.1276 -0.3392
vn -0.9352 0.0978 -0.3404
vn 0.0843 -0.8743 0.4780
vn 0.4561 -0.8743 0.1660
vn 0.8280 0.4819 0.2866
vn 0.5680 0.4946 0.6579
vn 0.6167 -0.2542 0.7451
vn 0.9026 -0.2681 0.3368
vn 0.1570 0.5038 0.8494
vn -0.2948 0.5072 0.8099
vn -0.3320 -0.2403 0.9122
vn 0.1648 -0.2440 0.9557
vn -0.6663 0.5038 0.5498
vn -0.8580 0.4946 0.1389
vn -0.9513 -0.2542 0.1744
vn -0.7405 -0.2440 0.6262
vn 0.8675 0.4693 -0.1650
vn 0.9460 -0.2820 -0.1598
vn -0.1475 0.4601 -0.8755
vn 0.3043 0.4567 -0.8360
vn 0.3267 -0.2959 -0.8976
vn -0.1700 -0.2921 -0.9411
vn -0.8185 0.4819 -0.3127
vn -0.5585 0.4693 -0.6840
vn -0.6219 -0.2820 -0.7305
vn -0.9079 -0.2681 -0.3222
vn 0.6758 0.4601 -0.5759
vn 0.7352 -0.2921 -0.6116
vn 0.0099 0.9996 -0.0271
vn 0.2415 0.9450 -0.2205
vn 0.1130 0.9439 -0.3104
vn 0.4680 0.7841 -0.4076
vn 0.2133 0.7818 -0.5859
vn -0.2753 0.9526 -0.1294
vn -0.2890 0.9570 0.0267
vn -0.5566 0.7991 -0.2271
vn -0.5837 0.8078 0.0825
vn -0.0942 0.9613 0.2588
vn 0.0620 0.9602 0.2725
vn -0.1975 0.8164 0.5426
vn 0.1123 0.8141 0.5698
vn 0.2042 0.9570 0.2062
vn 0.2941 0.9526 0.0778
vn 0.3941 0.8078 0.4384
vn 0.5724 0.7991 0.1838
vn -0.2227 0.9602 0.1689
vn -0.4522 0.8141 0.3643
vn -0.0433 0.9450 -0.3241
vn -0.0965 0.7841 -0.6131
vn -0.1854 0.9482 -0.2579
vn -0.3783 0.7904 -0.4817
vn 0.3078 0.9482 -0.0784
vn 0.5995 0.7904 -0.1259
vn -0.6150 -0.7626 -0.2005
vn -0.6442 -0.7533 0.1328
vn 0.4877 -0.7787 -0.3947
vn 0.2135 -0.7812 -0.5866
vn 0.1048 -0.7465 0.6571
vn 0.4081 -0.7533 0.5158
vn -0.5027 -0.7465 0.4360
vn -0.2285 -0.7440 0.6279
vn -0.1199 -0.7787 -0.6158
vn -0.4231 -0.7719 -0.4745
vn 0.6000 -0.7626 0.2418
vn 0.6291 -0.7719 -0.0915
vn -0.0514 -0.9986 0.0118
vn -0.0524 -0.9980 0.0344
vn -0.2704 -0.9600 0.0723
vn -0.2595 -0.9636 -0.0646
vn 0.0253 -0.9997 -0.0026
vn 0.0060 -0.9998 -0.0164
vn 0.0821 -0.9708 -0.2256
vn 0.1956 -0.9698 -0.1457
vn -0.0024 -0.9976 0.0689
vn 0.0180 -0.9980 0.0601
vn 0.1606 -0.9600 0.2292
vn 0.0363 -0.9575 0.2863
vn -0.0424 -0.9976 0.0543
vn -0.0243 -0.9975 0.0667
vn -0.0998 -0.9565 0.2741
vn -0.2118 -0.9575 0.1960
vn -0.0178 -0.9997 -0.0182
vn -0.0388 -0.9992 -0.0077
vn -0.1813 -0.9672 -0.1782
vn -0.0561 -0.9698 -0.2374
vn 0.0318 -0.9986 0.0421
vn 0.0347 -0.9992 0.0191
vn 0.2534 -0.9672 -0.0200
vn 0.2403 -0.9636 0.1173
vn -0.2705 -0.9601 0.0717
vn -0.2120 -0.9575 0.1957
vn 0.1611 -0.9601 0.2288
vn 0.2405 -0.9636 0.1167
vn 0.0366 -0.9575 0.2862
vn 0.2533 -0.9672 -0.0206
vn 0.1954 -0.9698 -0.1460
vn -0.0558 -0.9698 -0.2374
vn -0.1808 -0.9672 -0.1786
vn -0.2592 -0.9636 -0.0653
vn -0.0099 -0.9996 0.0271
vt 0.417969 0.755208
vt 0.417969 0.692708
vt 0.500000 0.692708
vt 0.500000 0.755208
vt 0.332031 0.692708
vt 0.332031 0.666667
vt 0.417969 0.666667
vt 0.332031 1.000000
vt 0.332031 0.833333
vt 0.417969 0.833333
vt 0.417969 1.000000
vt 0.332031 0.755208
vt 0.250000 0.755208
vt 0.250000 0.692708
vt 0.250000 0.666667
vt 0.500000 1.000000
vt 0.500000 0.833333
vt 0.250000 1.000000
vt 0.250000 0.833333
vt 0.345002 0.177860
vt 0.353407 0.136039
vt 0.384773 0.124833
vt 0.407734 0.155448
vt 0.399329 0.197269
vt 0.367964 0.208475
vt 0.500000 0.666667
vt 0.458348 0.530911
vt 0.458811 0.471336
vt 0.486470 0.460362
vt 0.486413 0.539813
vt 0.436881 0.419389
vt 0.398374 0.389002
vt 0.405077 0.351464
vt 0.456747 0.391426
vt 0.353636 0.388462
vt 0.314719 0.417798
vt 0.293729 0.391391
vt 0.345344 0.351561
vt 0.435635 0.582217
vt 0.456626 0.608625
vt 0.313474 0.580626
vt 0.351981 0.611013
vt 0.345277 0.648552
vt 0.293608 0.608589
vt 0.292007 0.469104
vt 0.291544 0.528679
vt 0.263885 0.539653
vt 0.263942 0.460203
vt 0.396719 0.611553
vt 0.405011 0.648454
vt 0.375177 0.500008
vt 0.383085 0.545725
vt 0.364885 0.544879
vt 0.389109 0.576545
vt 0.358539 0.575596
vt 0.341538 0.486285
vt 0.351191 0.465692
vt 0.318522 0.477830
vt 0.334423 0.443027
vt 0.385470 0.455136
vt 0.400914 0.468012
vt 0.391816 0.424419
vt 0.417926 0.445654
vt 0.409458 0.489460
vt 0.408816 0.513730
vt 0.432566 0.481443
vt 0.431833 0.522185
vt 0.367270 0.454290
vt 0.361246 0.423471
vt 0.349441 0.532003
vt 0.332428 0.554362
vt 0.340897 0.510555
vt 0.317788 0.518573
vt 0.399164 0.534323
vt 0.415932 0.556989
vt 0.255851 0.457096
vt 0.287878 0.383310
vt 0.407054 0.659365
vt 0.342941 0.659365
vt 0.462830 0.383636
vt 0.494647 0.457669
vt 0.343301 0.340650
vt 0.407414 0.340650
vt 0.287525 0.616379
vt 0.255708 0.542347
vt 0.494504 0.542919
vt 0.462477 0.616705
vt 0.354175 0.055955
vt 0.315671 0.085596
vt 0.292870 0.055195
vt 0.345829 0.014426
vt 0.459371 0.196216
vt 0.459370 0.136935
vt 0.490517 0.125807
vt 0.490517 0.207343
vt 0.315671 0.247555
vt 0.354175 0.277195
vt 0.345829 0.318724
vt 0.292870 0.277956
vt 0.293440 0.136935
vt 0.293440 0.196216
vt 0.262294 0.207343
vt 0.262294 0.125807
vt 0.437140 0.085596
vt 0.398636 0.055955
vt 0.406981 0.014426
vt 0.459941 0.055194
vt 0.398636 0.277195
vt 0.437140 0.247555
vt 0.459941 0.277956
vt 0.406981 0.318724
vt 0.414339 0.217154
vt 0.428224 0.185088
vt 0.390290 0.097484
vt 0.362521 0.097484
vt 0.428224 0.148062
vt 0.414339 0.115997
vt 0.338472 0.115997
vt 0.324587 0.148062
vt 0.324587 0.185088
vt 0.338472 0.217154
vt 0.362521 0.235667
vt 0.390290 0.235667
s 1
usemtl mushrooms_n_1
f 24/1/1 12/2/2 7/3/3 23/4/4
f 10/5/5 28/6/6 30/7/7 12/2/2
f 4/8/8 16/9/9 18/10/10 6/11/11
f 20/12/12 21/13/13 8/14/14 10/5/5
f 19/12/15 23/13/4 7/14/3 11/5/16
f 21/4/13 22/1/17 9/2/18 8/3/14
f 11/5/16 7/14/3 25/15/19 29/6/20
f 3/16/21 1/11/22 13/10/23 17/17/24
f 18/10/10 16/9/9 20/12/12 24/1/1
f 1/11/22 2/8/25 15/9/26 13/10/23
f 5/18/27 14/19/28 15/9/26 2/8/25
f 3/18/21 17/19/24 16/9/9 4/8/8
f 5/16/27 6/11/11 18/10/10 14/17/28
f 17/17/24 13/10/23 22/1/17 21/4/13
f 24/1/1 20/12/12 10/5/5 12/2/2
f 13/10/23 15/9/26 19/12/15 22/1/17
f 15/9/26 14/19/28 23/13/4 19/12/15
f 16/9/9 17/19/24 21/13/13 20/12/12
f 14/17/28 18/10/10 24/1/1 23/4/4
f 27/20/29 29/21/20 25/22/19 30/23/7 28/24/6 26/25/30
f 8/3/14 9/2/18 27/7/29 26/26/30
f 8/14/14 26/15/30 28/6/6 10/5/5
f 7/3/3 12/2/2 30/7/7 25/26/19
f 9/2/18 11/5/16 29/6/20 27/7/29
f 47/27/31 37/28/32 73/29/33 84/30/34
f 32/31/35 40/32/36 81/33/37 74/34/38
f 46/35/39 43/36/40 71/37/41 82/38/42
f 52/39/43 47/27/31 84/30/34 87/40/44
f 64/41/45 56/42/46 79/43/47 88/44/48
f 61/45/49 67/46/50 91/47/51 68/48/52
f 67/46/50 64/41/45 88/44/48 91/47/51
f 55/49/53 52/39/43 87/40/44 76/50/54
f 31/51/55 53/52/56 58/53/57
f 58/53/57 53/52/56 54/54/58 57/55/59
f 57/55/59 54/54/58 55/49/53 56/42/46
f 31/51/55 59/56/60 41/57/61
f 41/57/61 59/56/60 60/58/62 42/59/63
f 42/59/63 60/58/62 61/45/49 43/36/40
f 31/51/55 38/60/64 34/61/65
f 34/61/65 38/60/64 39/62/66 33/63/67
f 33/63/67 39/62/66 40/32/36 32/31/35
f 56/42/46 55/49/53 76/50/54 79/43/47
f 31/51/55 35/64/68 49/65/69
f 49/65/69 35/64/68 36/66/70 48/67/71
f 48/67/71 36/66/70 37/28/32 47/27/31
f 31/51/55 34/61/65 35/64/68
f 35/64/68 34/61/65 33/63/67 36/66/70
f 36/66/70 33/63/67 32/31/35 37/28/32
f 31/51/55 41/57/61 44/68/72
f 44/68/72 41/57/61 42/59/63 45/69/73
f 45/69/73 42/59/63 43/36/40 46/35/39
f 37/28/32 32/31/35 74/34/38 73/29/33
f 31/51/55 44/68/72 38/60/64
f 38/60/64 44/68/72 45/69/73 39/62/66
f 39/62/66 45/69/73 46/35/39 40/32/36
f 31/51/55 58/53/57 62/70/74
f 62/70/74 58/53/57 57/55/59 63/71/75
f 63/71/75 57/55/59 56/42/46 64/41/45
f 40/32/36 46/35/39 82/38/42 81/33/37
f 31/51/55 62/70/74 65/72/76
f 65/72/76 62/70/74 63/71/75 66/73/77
f 66/73/77 63/71/75 64/41/45 67/46/50
f 31/51/55 65/72/76 59/56/60
f 59/56/60 65/72/76 66/73/77 60/58/62
f 60/58/62 66/73/77 67/46/50 61/45/49
f 31/51/55 49/65/69 50/74/78
f 50/74/78 49/65/69 48/67/71 51/75/79
f 51/75/79 48/67/71 47/27/31 52/39/43
f 31/51/55 50/74/78 53/52/56
f 53/52/56 50/74/78 51/75/79 54/54/58
f 54/54/58 51/75/79 52/39/43 55/49/53
f 92/76/80 93/77/81 71/37/41 68/48/52
f 94/78/82 95/79/83 79/43/47 76/50/54
f 96/80/84 97/81/85 73/29/33 74/34/38
f 98/82/86 99/83/87 81/33/37 82/38/42
f 100/84/88 101/85/89 91/47/51 88/44/48
f 102/86/90 103/87/91 87/40/44 84/30/34
f 97/81/85 102/86/90 84/30/34 73/29/33
f 99/83/87 96/80/84 74/34/38 81/33/37
f 93/77/81 98/82/86 82/38/42 71/37/41
f 95/79/83 100/84/88 88/44/48 79/43/47
f 101/85/89 92/76/80 68/48/52 91/47/51
f 103/87/91 94/78/82 76/50/54 87/40/44
f 43/36/40 61/45/49 68/48/52 71/37/41
f 104/88/92 105/89/93 93/90/94 92/91/95
f 106/92/96 107/93/97 95/94/98 94/95/99
f 108/96/100 109/97/101 97/98/102 96/99/103
f 110/100/104 111/101/105 99/102/106 98/103/107
f 112/104/108 113/105/109 101/106/110 100/107/111
f 114/108/112 115/109/113 103/110/114 102/111/115
f 109/97/101 114/108/112 102/111/115 97/98/102
f 111/101/105 108/96/100 96/99/103 99/102/106
f 105/89/93 110/100/104 98/103/107 93/90/94
f 107/93/97 112/104/108 100/107/111 95/94/98
f 113/105/109 104/88/92 92/91/95 101/106/110
f 115/109/113 106/92/96 94/95/99 103/110/114
f 86/112/116 77/113/117 106/92/96 115/109/113
f 90/114/118 69/115/119 104/88/92 113/105/109
f 78/116/106 89/117/120 112/104/108 107/93/97
f 70/118/121 83/119/122 110/100/104 105/89/93
f 80/120/98 75/121/123 108/96/100 111/101/105
f 72/122/124 85/123/125 114/108/112 109/97/101
f 85/123/125 86/112/116 115/109/113 114/108/112
f 89/117/120 90/114/118 113/105/109 112/104/108
f 83/119/122 80/120/98 111/101/105 110/100/104
f 75/121/123 72/122/124 109/97/101 108/96/100
f 77/113/117 78/116/106 107/93/97 106/92/96
f 69/115/119 70/118/121 105/89/93 104/88/92
f 19/12/15 11/5/16 9/2/18 22/1/17
f 89/117/126 78/116/126 77/113/126
f 77/113/126 86/112/126 85/123/126
f 90/114/126 89/117/126 77/113/126 69/115/126
f 75/121/126 80/120/126 83/119/126
f 83/119/126 70/118/126 69/115/126
f 72/122/126 75/121/126 77/113/126 85/123/126
f 83/119/126 69/115/126 77/113/126 75/121/126
