# Blender 5.0.1
# www.blender.org
mtllib mushroom_n_1_1.mtl
o mushroom_n_1_1
v 0.003363 0.150000 0.038442
v -0.031610 0.150000 0.022134
v 0.034973 0.150000 0.016308
v 0.031610 0.150000 -0.022134
v -0.034973 0.150000 -0.016308
v -0.003363 0.150000 -0.038442
v -0.042309 0.010000 -0.019729
v 0.042309 0.010000 0.019729
v 0.004069 0.010000 0.046505
v 0.038240 0.010000 -0.026776
v -0.038240 0.010000 0.026776
v -0.004069 0.010000 -0.046505
v 0.004204 0.075000 0.048053
v -0.043717 0.075000 -0.020385
v -0.039513 0.075000 0.027667
v 0.039513 0.075000 -0.027667
v 0.043717 0.075000 0.020385
v -0.004204 0.075000 -0.048053
v -0.041626 0.037500 0.029147
v 0.041626 0.037500 -0.029147
v 0.046055 0.037500 0.021476
v 0.004429 0.037500 0.050623
v -0.046055 0.037500 -0.021476
v -0.004429 0.037500 -0.050623
v -0.034973 -0.000000 -0.016308
v 0.034973 -0.000000 0.016308
v 0.003363 -0.000000 0.038442
v 0.031610 -0.000000 -0.022134
v -0.031610 -0.000000 0.022134
v -0.003363 -0.000000 -0.038442
v -0.002340 0.219729 0.005017
v 0.007438 0.166559 0.094901
v 0.005105 0.191031 0.078663
v 0.002234 0.208360 0.053030
v 0.025985 0.209717 0.044425
v 0.041914 0.193135 0.065326
v 0.052972 0.169163 0.078402
v -0.022672 0.207863 0.048620
v -0.033494 0.190260 0.071828
v -0.040310 0.165606 0.086446
v -0.050734 0.209717 0.008650
v -0.076984 0.193135 0.009883
v -0.094109 0.169163 0.009817
v -0.042060 0.208360 0.032376
v -0.063541 0.191031 0.046653
v -0.077479 0.166559 0.055303
v 0.084090 0.172719 0.041371
v 0.067069 0.196010 0.035391
v 0.042216 0.211572 0.025109
v 0.046580 0.213427 0.000259
v 0.073831 0.198885 -0.003122
v 0.092455 0.176275 -0.006270
v 0.037905 0.214785 -0.023467
v 0.060388 0.200989 -0.039892
v 0.075825 0.178878 -0.051756
v 0.038656 0.179831 -0.082898
v 0.030341 0.201759 -0.065067
v 0.018518 0.215282 -0.039711
v -0.046371 0.211572 -0.016200
v -0.070222 0.196010 -0.028629
v -0.085744 0.172719 -0.037824
v -0.006388 0.214785 -0.044121
v -0.008258 0.200989 -0.071901
v -0.009092 0.178878 -0.091353
v -0.030139 0.213427 -0.035516
v -0.045066 0.198885 -0.058564
v -0.054626 0.176275 -0.074855
v -0.089800 0.149646 -0.041653
v -0.038969 0.145245 -0.018320
v -0.042813 0.143611 0.003575
v -0.098638 0.145889 0.008680
v 0.024781 0.143611 0.035094
v 0.056754 0.145889 0.081140
v 0.008647 0.143138 0.098571
v 0.003855 0.142414 0.042677
v 0.080899 0.156153 -0.056372
v 0.035284 0.148076 -0.024722
v 0.018202 0.148514 -0.039035
v 0.041630 0.157160 -0.089275
v -0.018089 0.141976 0.038791
v -0.041799 0.142132 0.089639
v -0.081068 0.143138 0.056736
v -0.035170 0.142414 0.024479
v 0.089631 0.149646 0.042017
v 0.039082 0.145245 0.018076
v 0.042926 0.146879 -0.003818
v 0.098468 0.153403 -0.008316
v -0.008817 0.156153 -0.098207
v -0.003742 0.148076 -0.042920
v -0.024668 0.146879 -0.035338
v -0.056924 0.153403 -0.080777
v -0.085883 0.145245 -0.040196
v -0.094348 0.141646 0.008019
v 0.077632 0.151479 -0.054296
v 0.040015 0.152443 -0.085813
v 0.008421 0.139011 0.094126
v 0.054503 0.141646 0.077429
v -0.077518 0.139011 0.054052
v -0.039902 0.138047 0.085570
v -0.008308 0.151479 -0.094370
v -0.054390 0.148844 -0.077673
v 0.085996 0.145245 0.039952
v 0.094462 0.148844 -0.008262
v -0.062426 0.139122 -0.029258
v -0.068581 0.136506 0.005797
v 0.056458 0.143655 -0.039509
v 0.029109 0.144356 -0.062424
v 0.006138 0.134590 0.068401
v 0.039642 0.136506 0.056262
v -0.056344 0.134590 0.039265
v -0.028995 0.133889 0.062180
v -0.006025 0.143655 -0.068645
v -0.039529 0.141739 -0.056505
v 0.062539 0.139122 0.029014
v 0.068694 0.141739 -0.006040
vn -0.0871 -0.0389 -0.9954
vn -0.0803 -0.3879 -0.9182
vn -0.8354 -0.3879 -0.3895
vn -0.9056 -0.0389 -0.4223
vn 0.7550 -0.3879 -0.5287
vn 0.3976 -0.8743 -0.2784
vn -0.0423 -0.8743 -0.4836
vn 0.8125 0.1276 -0.5689
vn 0.8153 0.0972 -0.5709
vn -0.0867 0.0972 -0.9915
vn -0.0864 0.1276 -0.9881
vn 0.8185 -0.0389 -0.5731
vn 0.9056 -0.0393 0.4223
vn 0.8354 -0.3879 0.3895
vn -0.8185 -0.0389 0.5731
vn -0.7550 -0.3879 0.5287
vn 0.0871 -0.0389 0.9954
vn 0.0803 -0.3879 0.9182
vn -0.4399 -0.8743 -0.2051
vn -0.3976 -0.8743 0.2784
vn 0.8989 0.1276 0.4192
vn 0.0864 0.1276 0.9881
vn 0.0867 0.0972 0.9915
vn 0.9020 0.0976 0.4206
vn -0.8125 0.1276 0.5689
vn -0.8153 0.0972 0.5709
vn -0.8989 0.1276 -0.4192
vn -0.9020 0.0972 -0.4206
vn 0.0423 -0.8743 0.4836
vn 0.4399 -0.8743 0.2051
vn 0.8121 0.4118 0.4133
vn 0.5097 0.3773 0.7732
vn 0.5646 -0.2810 0.7761
vn 0.8866 -0.2442 0.3929
vn 0.0671 0.3520 0.9336
vn -0.3970 0.3427 0.8514
vn -0.4007 -0.3178 0.8593
vn 0.0934 -0.3080 0.9468
vn -0.7583 0.3520 0.5487
vn -0.9199 0.3773 0.1066
vn -0.9574 -0.2810 0.0664
vn -0.7853 -0.3080 0.5371
vn 0.8934 0.4464 -0.0498
vn 0.9731 -0.2074 -0.1001
vn -0.0936 0.4717 -0.8768
vn 0.3705 0.4810 -0.7946
vn 0.4164 -0.1706 -0.8930
vn -0.0777 -0.1805 -0.9805
vn -0.8386 0.4118 -0.3565
vn -0.5362 0.4464 -0.7164
vn -0.5488 -0.2074 -0.8098
vn -0.8708 -0.2442 -0.4266
vn 0.7318 0.4717 -0.4919
vn 0.8010 -0.1805 -0.5708
vn -0.0321 0.9971 0.0688
vn 0.2688 0.9523 -0.1445
vn 0.1240 0.9560 -0.2658
vn 0.5306 0.7780 -0.3364
vn 0.2619 0.7849 -0.5615
vn -0.3607 0.9283 -0.0902
vn -0.3933 0.9145 0.0954
vn -0.6375 0.7335 -0.2357
vn -0.6980 0.7078 0.1088
vn -0.1837 0.9006 0.3939
vn 0.0023 0.9043 0.4269
vn -0.3091 0.6821 0.6628
vn 0.0362 0.6890 0.7239
vn 0.1797 0.9145 0.3626
vn 0.3010 0.9283 0.2183
vn 0.3654 0.7078 0.6046
vn 0.5903 0.7335 0.3369
vn -0.3285 0.9043 0.2726
vn -0.5778 0.6890 0.4376
vn -0.0621 0.9523 -0.2988
vn -0.0834 0.7780 -0.6227
vn -0.2395 0.9422 -0.2345
vn -0.4125 0.7592 -0.5034
vn 0.3336 0.9422 0.0327
vn 0.6508 0.7592 -0.0075
vn -0.6370 -0.6845 -0.3545
vn -0.7019 -0.7121 0.0152
vn 0.6169 -0.6367 -0.4627
vn 0.3284 -0.6293 -0.7044
vn 0.0862 -0.7323 0.6755
vn 0.4395 -0.7121 0.5475
vn -0.5729 -0.7323 0.3682
vn -0.2844 -0.7397 0.6099
vn -0.0421 -0.6367 -0.7700
vn -0.3955 -0.6569 -0.6419
vn 0.6811 -0.6845 0.2601
vn 0.7460 -0.6569 -0.1097
vn -0.0027 -0.9964 -0.0846
vn -0.0080 -0.9979 -0.0650
vn -0.1993 -0.9788 -0.0475
vn -0.1766 -0.9704 -0.1645
vn 0.0606 -0.9942 -0.0885
vn 0.0465 -0.9939 -0.0997
vn 0.1264 -0.9542 -0.2710
vn 0.2162 -0.9564 -0.1965
vn 0.0356 -0.9990 -0.0273
vn 0.0549 -0.9979 -0.0357
vn 0.1645 -0.9788 0.1222
vn 0.0520 -0.9850 0.1647
vn -0.0020 -0.9990 -0.0448
vn 0.0143 -0.9994 -0.0306
vn -0.0672 -0.9873 0.1442
vn -0.1596 -0.9850 0.0660
vn 0.0289 -0.9942 -0.1033
vn 0.0111 -0.9951 -0.0982
vn -0.0991 -0.9623 -0.2534
vn 0.0116 -0.9564 -0.2919
vn 0.0666 -0.9964 -0.0523
vn 0.0681 -0.9951 -0.0716
vn 0.2578 -0.9623 -0.0870
vn 0.2395 -0.9704 0.0296
vn -0.1993 -0.9789 -0.0463
vn -0.1592 -0.9850 0.0666
vn 0.1635 -0.9789 0.1229
vn 0.2389 -0.9705 0.0309
vn 0.0513 -0.9850 0.1647
vn 0.2579 -0.9623 -0.0858
vn 0.2166 -0.9564 -0.1959
vn 0.0109 -0.9564 -0.2919
vn -0.1001 -0.9623 -0.2528
vn -0.1772 -0.9705 -0.1632
vn 0.0321 -0.9971 -0.0688
vt 0.167969 0.755208
vt 0.167969 0.692708
vt 0.250000 0.692708
vt 0.250000 0.755208
vt 0.082031 0.692708
vt 0.082031 0.666667
vt 0.167969 0.666667
vt 0.082031 1.000000
vt 0.082031 0.833333
vt 0.167969 0.833333
vt 0.167969 1.000000
vt 0.082031 0.755208
vt 0.000000 0.755208
vt 0.000000 0.692708
vt 0.000000 0.666667
vt 0.250000 1.000000
vt 0.250000 0.833333
vt 0.000000 1.000000
vt 0.000000 0.833333
vt 0.095002 0.177860
vt 0.103407 0.136039
vt 0.134773 0.124833
vt 0.157734 0.155448
vt 0.149329 0.197269
vt 0.117964 0.208475
vt 0.250000 0.666667
vt 0.208348 0.530911
vt 0.208811 0.471336
vt 0.236470 0.460362
vt 0.236413 0.539813
vt 0.186881 0.419389
vt 0.148374 0.389002
vt 0.155077 0.351464
vt 0.206747 0.391426
vt 0.103636 0.388462
vt 0.064719 0.417798
vt 0.043729 0.391391
vt 0.095344 0.351561
vt 0.185635 0.582217
vt 0.206626 0.608625
vt 0.063474 0.580626
vt 0.101981 0.611013
vt 0.095277 0.648552
vt 0.043608 0.608589
vt 0.042007 0.469104
vt 0.041544 0.528679
vt 0.013885 0.539653
vt 0.013942 0.460203
vt 0.146719 0.611553
vt 0.155011 0.648454
vt 0.125177 0.500008
vt 0.133085 0.545725
vt 0.114885 0.544879
vt 0.139109 0.576545
vt 0.108539 0.575596
vt 0.091538 0.486285
vt 0.101191 0.465692
vt 0.068522 0.477830
vt 0.084423 0.443027
vt 0.135470 0.455136
vt 0.150914 0.468012
vt 0.141816 0.424419
vt 0.167927 0.445654
vt 0.159458 0.489460
vt 0.158816 0.513730
vt 0.182566 0.481443
vt 0.181833 0.522185
vt 0.117270 0.454290
vt 0.111246 0.423471
vt 0.099441 0.532003
vt 0.082428 0.554362
vt 0.090897 0.510555
vt 0.067788 0.518573
vt 0.149164 0.534323
vt 0.165932 0.556989
vt 0.005851 0.457096
vt 0.037878 0.383310
vt 0.157054 0.659365
vt 0.092941 0.659365
vt 0.212830 0.383636
vt 0.244647 0.457669
vt 0.093301 0.340650
vt 0.157414 0.340650
vt 0.037525 0.616379
vt 0.005708 0.542347
vt 0.244504 0.542919
vt 0.212477 0.616705
vt 0.104175 0.055955
vt 0.065671 0.085596
vt 0.042870 0.055195
vt 0.095829 0.014426
vt 0.209370 0.196216
vt 0.209371 0.136935
vt 0.240517 0.125807
vt 0.240517 0.207343
vt 0.065671 0.247555
vt 0.104175 0.277195
vt 0.095829 0.318724
vt 0.042870 0.277956
vt 0.043440 0.136935
vt 0.043440 0.196216
vt 0.012294 0.207343
vt 0.012294 0.125807
vt 0.187140 0.085596
vt 0.148636 0.055955
vt 0.156981 0.014426
vt 0.209941 0.055194
vt 0.148636 0.277195
vt 0.187140 0.247555
vt 0.209941 0.277956
vt 0.156981 0.318724
vt 0.164339 0.217154
vt 0.178224 0.185088
vt 0.140290 0.097484
vt 0.112521 0.097484
vt 0.178224 0.148062
vt 0.164339 0.115997
vt 0.088472 0.115997
vt 0.074587 0.148062
vt 0.074587 0.185088
vt 0.088472 0.217154
vt 0.112521 0.235667
vt 0.140290 0.235667
s 1
usemtl mushrooms_n_1
f 24/1/1 12/2/2 7/3/3 23/4/4
f 10/5/5 28/6/6 30/7/7 12/2/2
f 4/8/8 16/9/9 18/10/10 6/11/11
f 20/12/12 21/13/13 8/14/14 10/5/5
f 19/12/15 23/13/4 7/14/3 11/5/16
f 21/4/13 22/1/17 9/2/18 8/3/14
f 11/5/16 7/14/3 25/15/19 29/6/20
f 3/16/21 1/11/22 13/10/23 17/17/24
f 18/10/10 16/9/9 20/12/12 24/1/1
f 1/11/22 2/8/25 15/9/26 13/10/23
f 5/18/27 14/19/28 15/9/26 2/8/25
f 3/18/21 17/19/24 16/9/9 4/8/8
f 5/16/27 6/11/11 18/10/10 14/17/28
f 17/17/24 13/10/23 22/1/17 21/4/13
f 24/1/1 20/12/12 10/5/5 12/2/2
f 13/10/23 15/9/26 19/12/15 22/1/17
f 15/9/26 14/19/28 23/13/4 19/12/15
f 16/9/9 17/19/24 21/13/13 20/12/12
f 14/17/28 18/10/10 24/1/1 23/4/4
f 27/20/29 29/21/20 25/22/19 30/23/7 28/24/6 26/25/30
f 8/3/14 9/2/18 27/7/29 26/26/30
f 8/14/14 26/15/30 28/6/6 10/5/5
f 7/3/3 12/2/2 30/7/7 25/26/19
f 9/2/18 11/5/16 29/6/20 27/7/29
f 47/27/31 37/28/32 73/29/33 84/30/34
f 32/31/35 40/32/36 81/33/37 74/34/38
f 46/35/39 43/36/40 71/37/41 82/38/42
f 52/39/43 47/27/31 84/30/34 87/40/44
f 64/41/45 56/42/46 79/43/47 88/44/48
f 61/45/49 67/46/50 91/47/51 68/48/52
f 67/46/50 64/41/45 88/44/48 91/47/51
f 55/49/53 52/39/43 87/40/44 76/50/54
f 31/51/55 53/52/56 58/53/57
f 58/53/57 53/52/56 54/54/58 57/55/59
f 57/55/59 54/54/58 55/49/53 56/42/46
f 31/51/55 59/56/60 41/57/61
f 41/57/61 59/56/60 60/58/62 42/59/63
f 42/59/63 60/58/62 61/45/49 43/36/40
f 31/51/55 38/60/64 34/61/65
f 34/61/65 38/60/64 39/62/66 33/63/67
f 33/63/67 39/62/66 40/32/36 32/31/35
f 56/42/46 55/49/53 76/50/54 79/43/47
f 31/51/55 35/64/68 49/65/69
f 49/65/69 35/64/68 36/66/70 48/67/71
f 48/67/71 36/66/70 37/28/32 47/27/31
f 31/51/55 34/61/65 35/64/68
f 35/64/68 34/61/65 33/63/67 36/66/70
f 36/66/70 33/63/67 32/31/35 37/28/32
f 31/51/55 41/57/61 44/68/72
f 44/68/72 41/57/61 42/59/63 45/69/73
f 45/69/73 42/59/63 43/36/40 46/35/39
f 37/28/32 32/31/35 74/34/38 73/29/33
f 31/51/55 44/68/72 38/60/64
f 38/60/64 44/68/72 45/69/73 39/62/66
f 39/62/66 45/69/73 46/35/39 40/32/36
f 31/51/55 58/53/57 62/70/74
f 62/70/74 58/53/57 57/55/59 63/71/75
f 63/71/75 57/55/59 56/42/46 64/41/45
f 40/32/36 46/35/39 82/38/42 81/33/37
f 31/51/55 62/70/74 65/72/76
f 65/72/76 62/70/74 63/71/75 66/73/77
f 66/73/77 63/71/75 64/41/45 67/46/50
f 31/51/55 65/72/76 59/56/60
f 59/56/60 65/72/76 66/73/77 60/58/62
f 60/58/62 66/73/77 67/46/50 61/45/49
f 31/51/55 49/65/69 50/74/78
f 50/74/78 49/65/69 48/67/71 51/75/79
f 51/75/79 48/67/71 47/27/31 52/39/43
f 31/51/55 50/74/78 53/52/56
f 53/52/56 50/74/78 51/75/79 54/54/58
f 54/54/58 51/75/79 52/39/43 55/49/53
f 92/76/80 93/77/81 71/37/41 68/48/52
f 94/78/82 95/79/83 79/43/47 76/50/54
f 96/80/84 97/81/85 73/29/33 74/34/38
f 98/82/86 99/83/87 81/33/37 82/38/42
f 100/84/88 101/85/89 91/47/51 88/44/48
f 102/86/90 103/87/91 87/40/44 84/30/34
f 97/81/85 102/86/90 84/30/34 73/29/33
f 99/83/87 96/80/84 74/34/38 81/33/37
f 93/77/81 98/82/86 82/38/42 71/37/41
f 95/79/83 100/84/88 88/44/48 79/43/47
f 101/85/89 92/76/80 68/48/52 91/47/51
f 103/87/91 94/78/82 76/50/54 87/40/44
f 43/36/40 61/45/49 68/48/52 71/37/41
f 104/88/92 105/89/93 93/90/94 92/91/95
f 106/92/96 107/93/97 95/94/98 94/95/99
f 108/96/100 109/97/101 97/98/102 96/99/103
f 110/100/104 111/101/105 99/102/106 98/103/107
f 112/104/108 113/105/109 101/106/110 100/107/111
f 114/108/112 115/109/113 103/110/114 102/111/115
f 109/97/101 114/108/112 102/111/115 97/98/102
f 111/101/105 108/96/100 96/99/103 99/102/106
f 105/89/93 110/100/104 98/103/107 93/90/94
f 107/93/97 112/104/108 100/107/111 95/94/98
f 113/105/109 104/88/92 92/91/95 101/106/110
f 115/109/113 106/92/96 94/95/99 103/110/114
f 86/112/116 77/113/117 106/92/96 115/109/113
f 90/114/118 69/115/119 104/88/92 113/105/109
f 78/116/106 89/117/120 112/104/108 107/93/97
f 70/118/121 83/119/122 110/100/104 105/89/93
f 80/120/98 75/121/123 108/96/100 111/101/105
f 72/122/124 85/123/125 114/108/112 109/97/101
f 85/123/125 86/112/116 115/109/113 114/108/112
f 89/117/120 90/114/118 113/105/109 112/104/108
f 83/119/122 80/120/98 111/101/105 110/100/104
f 75/121/123 72/122/124 109/97/101 108/96/100
f 77/113/117 78/116/106 107/93/97 106/92/96
f 69/115/119 70/118/121 105/89/93 104/88/92
f 19/12/15 11/5/16 9/2/18 22/1/17
f 69/115/126 90/114/126 89/117/126
f 89/117/126 78/116/126 77/113/126
f 77/113/126 86/112/126 85/123/126
f 70/118/126 69/115/126 75/121/126 83/119/126
f 75/121/126 80/120/126 83/119/126
f 77/113/126 85/123/126 72/122/126 75/121/126
f 89/117/126 77/113/126 75/121/126 69/115/126
