# Blender 5.0.1
# www.blender.org
mtllib mushroom_n_2_1.mtl
o mushroom_n_2_1
v -0.033419 0.150000 0.019294
v -0.033419 0.150000 -0.019294
v 0.000000 0.150000 0.038589
v 0.033419 0.150000 0.019294
v 0.000000 0.150000 -0.038589
v 0.033419 0.150000 -0.019294
v -0.000000 0.010000 -0.046683
v -0.000000 0.010000 0.046683
v -0.040428 0.010000 0.023341
v 0.040428 0.010000 0.023341
v -0.040428 0.010000 -0.023341
v 0.040428 0.010000 -0.023341
v -0.041774 0.075000 0.024118
v -0.000000 0.075000 -0.048236
v -0.041774 0.075000 -0.024118
v 0.041774 0.075000 0.024118
v -0.000000 0.075000 0.048236
v 0.041774 0.075000 -0.024118
v -0.044008 0.037500 -0.025408
v 0.044008 0.037500 0.025408
v -0.000000 0.037500 0.050816
v -0.044008 0.037500 0.025408
v -0.000000 0.037500 -0.050816
v 0.044008 0.037500 -0.025408
v -0.000000 -0.000000 -0.038589
v -0.000000 -0.000000 0.038589
v -0.033419 -0.000000 0.019294
v 0.033419 -0.000000 0.019294
v -0.033419 -0.000000 -0.019294
v 0.033419 -0.000000 -0.019294
v -0.005536 0.219729 0.000000
v -0.082866 0.166559 0.046848
v -0.069135 0.191031 0.037871
v -0.047118 0.208360 0.024436
v -0.029281 0.209717 0.042325
v -0.041492 0.193135 0.065594
v -0.048670 0.169163 0.081143
v -0.053647 0.207863 0.000000
v -0.079254 0.190260 0.000000
v -0.095382 0.165606 0.000000
v -0.029281 0.209717 -0.042325
v -0.041492 0.193135 -0.065594
v -0.048670 0.169163 -0.081143
v -0.047118 0.208360 -0.024436
v -0.069135 0.191031 -0.037871
v -0.082866 0.166559 -0.046848
v -0.001957 0.172719 0.093696
v -0.003730 0.196010 0.075742
v -0.004915 0.211572 0.048873
v 0.019451 0.213427 0.042325
v 0.034031 0.198885 0.065594
v 0.044755 0.176275 0.081143
v 0.037288 0.214785 0.024436
v 0.061675 0.200989 0.037871
v 0.078951 0.178878 0.046848
v 0.091468 0.179831 -0.000000
v 0.071793 0.201759 -0.000000
v 0.043817 0.215282 -0.000000
v -0.004915 0.211572 -0.048873
v -0.003730 0.196010 -0.075742
v -0.001957 0.172719 -0.093696
v 0.037288 0.214785 -0.024436
v 0.061675 0.200989 -0.037871
v 0.078951 0.178878 -0.046848
v 0.019451 0.213427 -0.042325
v 0.034031 0.198885 -0.065594
v 0.044755 0.176275 -0.081143
v -0.000201 0.149646 -0.098990
v 0.000134 0.145245 -0.043060
v -0.021333 0.143611 -0.037291
v -0.049553 0.145889 -0.085728
v -0.021333 0.143611 0.037291
v -0.049553 0.145889 0.085728
v -0.085681 0.143138 0.049495
v -0.037049 0.142414 0.021530
v 0.085280 0.156153 0.049495
v 0.037318 0.148076 0.021530
v 0.043070 0.148514 0.000000
v 0.098504 0.157160 -0.000000
v -0.042801 0.141976 0.000000
v -0.098905 0.142132 0.000000
v -0.085681 0.143138 -0.049495
v -0.037049 0.142414 -0.021530
v -0.000201 0.149646 0.098990
v 0.000134 0.145245 0.043060
v 0.021602 0.146879 0.037291
v 0.049152 0.153403 0.085728
v 0.085280 0.156153 -0.049495
v 0.037318 0.148076 -0.021530
v 0.021602 0.146879 -0.037291
v 0.049152 0.153403 -0.085728
v 0.000134 0.145245 -0.094824
v -0.047141 0.141646 -0.082120
v 0.082017 0.151479 0.047412
v 0.094684 0.152443 0.000000
v -0.081748 0.139011 0.047412
v -0.047141 0.141646 0.082120
v -0.081748 0.139011 -0.047412
v -0.094416 0.138047 0.000000
v 0.082017 0.151479 -0.047412
v 0.047409 0.148844 -0.082120
v 0.000134 0.145245 0.094824
v 0.047409 0.148844 0.082120
v 0.000134 0.139122 -0.068942
v -0.034237 0.136506 -0.059705
v 0.059667 0.143655 0.034471
v 0.068877 0.144356 0.000000
v -0.059399 0.134590 0.034471
v -0.034237 0.136506 0.059705
v -0.059399 0.134590 -0.034471
v -0.068608 0.133889 0.000000
v 0.059667 0.143655 -0.034471
v 0.034506 0.141739 -0.059705
v 0.000134 0.139122 0.068942
v 0.034506 0.141739 0.059705
vn 0.8654 -0.0389 -0.4996
vn 0.7982 -0.3879 -0.4609
vn -0.0000 -0.3879 -0.9217
vn -0.0000 -0.0389 -0.9992
vn 0.7982 -0.3879 0.4609
vn 0.4204 -0.8743 0.2427
vn 0.4204 -0.8743 -0.2427
vn 0.8589 0.1276 0.4959
vn 0.8619 0.0979 0.4976
vn 0.8619 0.0979 -0.4976
vn 0.8589 0.1276 -0.4959
vn 0.8654 -0.0394 0.4996
vn -0.0000 -0.0389 0.9992
vn -0.0000 -0.3879 0.9217
vn -0.8653 -0.0396 -0.4996
vn -0.7982 -0.3879 -0.4609
vn -0.8654 -0.0389 0.4996
vn -0.7982 -0.3879 0.4609
vn -0.0000 -0.8743 -0.4854
vn -0.4204 -0.8743 -0.2427
vn -0.0000 0.1276 0.9918
vn -0.8589 0.1276 0.4959
vn -0.8619 0.0972 0.4976
vn -0.0000 0.0972 0.9953
vn -0.8589 0.1276 -0.4959
vn -0.8619 0.0972 -0.4976
vn -0.0000 0.1276 -0.9918
vn -0.0000 0.0972 -0.9953
vn -0.4204 -0.8743 0.2427
vn -0.0000 -0.8743 0.4854
vn -0.0314 0.4118 0.9107
vn -0.4854 0.3773 0.7887
vn -0.4648 -0.2810 0.8396
vn 0.0186 -0.2442 0.9695
vn -0.8178 0.3520 0.4554
vn -0.9394 0.3427 -0.0000
vn -0.9482 -0.3178 -0.0000
vn -0.8186 -0.3080 0.4848
vn -0.8178 0.3520 -0.4554
vn -0.4854 0.3773 -0.7887
vn -0.4648 -0.2810 -0.8396
vn -0.8186 -0.3080 -0.4848
vn 0.4227 0.4464 0.7887
vn 0.5020 -0.2074 0.8396
vn 0.7551 0.4717 -0.4554
vn 0.8767 0.4810 -0.0000
vn 0.9853 -0.1706 -0.0000
vn 0.8558 -0.1805 -0.4848
vn -0.0314 0.4118 -0.9107
vn 0.4227 0.4464 -0.7887
vn 0.5020 -0.2074 -0.8396
vn 0.0186 -0.2442 -0.9695
vn 0.7551 0.4717 0.4554
vn 0.8558 -0.1805 0.4848
vn -0.0759 0.9971 -0.0000
vn 0.2446 0.9523 0.1825
vn 0.2933 0.9560 -0.0000
vn 0.5291 0.7780 0.3387
vn 0.6196 0.7849 -0.0000
vn -0.0707 0.9283 -0.3650
vn -0.2527 0.9145 -0.3161
vn -0.0558 0.7335 -0.6774
vn -0.3936 0.7078 -0.5866
vn -0.4347 0.9006 -0.0000
vn -0.3859 0.9043 0.1825
vn -0.7313 0.6821 -0.0000
vn -0.6408 0.6890 0.3387
vn -0.2527 0.9145 0.3161
vn -0.0707 0.9283 0.3650
vn -0.3936 0.7078 0.5866
vn -0.0558 0.7335 0.6774
vn -0.3859 0.9043 -0.1825
vn -0.6408 0.6890 -0.3387
vn 0.2445 0.9523 -0.1825
vn 0.5291 0.7780 -0.3387
vn 0.1113 0.9422 -0.3161
vn 0.2819 0.7592 -0.5866
vn 0.1113 0.9422 0.3161
vn 0.2819 0.7592 0.5866
vn 0.0521 -0.6845 -0.7272
vn -0.3104 -0.7121 -0.6297
vn 0.6800 -0.6367 0.3636
vn 0.7772 -0.6293 -0.0000
vn -0.5758 -0.7323 0.3636
vn -0.3104 -0.7121 0.6297
vn -0.5758 -0.7323 -0.3636
vn -0.6730 -0.7397 -0.0000
vn 0.6800 -0.6367 -0.3636
vn 0.4146 -0.6569 -0.6297
vn 0.0521 -0.6845 0.7272
vn 0.4146 -0.6569 0.6297
vn 0.0756 -0.9964 -0.0382
vn 0.0556 -0.9979 -0.0347
vn -0.0412 -0.9788 -0.2008
vn 0.0744 -0.9704 -0.2296
vn 0.1058 -0.9942 0.0175
vn 0.1100 -0.9939 -0.0000
vn 0.2990 -0.9542 -0.0000
vn 0.2694 -0.9564 0.1129
vn 0.0398 -0.9990 0.0207
vn 0.0556 -0.9979 0.0347
vn -0.0412 -0.9788 0.2008
vn -0.1272 -0.9850 0.1167
vn 0.0398 -0.9990 -0.0207
vn 0.0337 -0.9994 -0.0000
vn -0.1591 -0.9873 -0.0000
vn -0.1272 -0.9850 -0.1167
vn 0.1058 -0.9942 -0.0175
vn 0.0937 -0.9951 -0.0315
vn 0.1878 -0.9623 -0.1969
vn 0.2694 -0.9564 -0.1129
vn 0.0756 -0.9964 0.0382
vn 0.0937 -0.9951 0.0315
vn 0.1878 -0.9623 0.1969
vn 0.0744 -0.9704 0.2296
vn -0.0423 -0.9789 -0.2002
vn -0.1276 -0.9850 -0.1161
vn -0.0423 -0.9789 0.2002
vn 0.0730 -0.9705 0.2296
vn -0.1276 -0.9850 0.1161
vn 0.1868 -0.9623 0.1975
vn 0.2691 -0.9564 0.1135
vn 0.2691 -0.9564 -0.1135
vn 0.1868 -0.9623 -0.1975
vn 0.0730 -0.9705 -0.2296
vn 0.0759 -0.9971 -0.0000
vt 0.417969 0.755208
vt 0.417969 0.692708
vt 0.500000 0.692708
vt 0.500000 0.755208
vt 0.332031 0.692708
vt 0.332031 0.666667
vt 0.417969 0.666667
vt 0.332031 1.000000
vt 0.332031 0.833333
vt 0.417969 0.833333
vt 0.417969 1.000000
vt 0.332031 0.755208
vt 0.250000 0.755208
vt 0.250000 0.692708
vt 0.250000 0.666667
vt 0.500000 1.000000
vt 0.500000 0.833333
vt 0.250000 1.000000
vt 0.250000 0.833333
vt 0.345002 0.177860
vt 0.353407 0.136039
vt 0.384773 0.124833
vt 0.407734 0.155448
vt 0.399329 0.197269
vt 0.367964 0.208475
vt 0.500000 0.666667
vt 0.458348 0.530911
vt 0.458811 0.471336
vt 0.486470 0.460362
vt 0.486413 0.539813
vt 0.436881 0.419389
vt 0.398374 0.389002
vt 0.405077 0.351464
vt 0.456747 0.391426
vt 0.353636 0.388462
vt 0.314719 0.417798
vt 0.293729 0.391391
vt 0.345344 0.351561
vt 0.435635 0.582217
vt 0.456626 0.608625
vt 0.313474 0.580626
vt 0.351981 0.611013
vt 0.345277 0.648552
vt 0.293608 0.608589
vt 0.292007 0.469104
vt 0.291544 0.528679
vt 0.263885 0.539653
vt 0.263942 0.460203
vt 0.396719 0.611553
vt 0.405011 0.648454
vt 0.375177 0.500008
vt 0.383085 0.545725
vt 0.364885 0.544879
vt 0.389109 0.576545
vt 0.358539 0.575596
vt 0.341538 0.486285
vt 0.351191 0.465692
vt 0.318522 0.477830
vt 0.334423 0.443027
vt 0.385470 0.455136
vt 0.400914 0.468012
vt 0.391816 0.424419
vt 0.417926 0.445654
vt 0.409458 0.489460
vt 0.408816 0.513730
vt 0.432566 0.481443
vt 0.431833 0.522185
vt 0.367270 0.454290
vt 0.361246 0.423471
vt 0.349441 0.532003
vt 0.332428 0.554362
vt 0.340897 0.510555
vt 0.317788 0.518573
vt 0.399164 0.534323
vt 0.415932 0.556989
vt 0.255851 0.457096
vt 0.287878 0.383310
vt 0.407054 0.659365
vt 0.342941 0.659365
vt 0.462830 0.383636
vt 0.494647 0.457669
vt 0.343301 0.340650
vt 0.407414 0.340650
vt 0.287525 0.616379
vt 0.255708 0.542347
vt 0.494504 0.542919
vt 0.462477 0.616705
vt 0.354175 0.055955
vt 0.315671 0.085596
vt 0.292870 0.055195
vt 0.345829 0.014426
vt 0.459370 0.196216
vt 0.459371 0.136935
vt 0.490517 0.125807
vt 0.490517 0.207343
vt 0.315671 0.247555
vt 0.354175 0.277195
vt 0.345829 0.318724
vt 0.292870 0.277956
vt 0.293440 0.136935
vt 0.293440 0.196216
vt 0.262294 0.207343
vt 0.262294 0.125807
vt 0.437140 0.085596
vt 0.398636 0.055955
vt 0.406981 0.014426
vt 0.459941 0.055194
vt 0.398636 0.277195
vt 0.437140 0.247555
vt 0.459941 0.277956
vt 0.406981 0.318724
vt 0.414339 0.217154
vt 0.428224 0.185088
vt 0.390290 0.097484
vt 0.362521 0.097484
vt 0.428224 0.148062
vt 0.414339 0.115997
vt 0.338472 0.115997
vt 0.324587 0.148062
vt 0.324587 0.185088
vt 0.338472 0.217154
vt 0.362521 0.235667
vt 0.390290 0.235667
s 1
usemtl mushrooms_n_1
f 24/1/1 12/2/2 7/3/3 23/4/4
f 10/5/5 28/6/6 30/7/7 12/2/2
f 4/8/8 16/9/9 18/10/10 6/11/11
f 20/12/12 21/13/13 8/14/14 10/5/5
f 19/12/15 23/13/4 7/14/3 11/5/16
f 21/4/13 22/1/17 9/2/18 8/3/14
f 11/5/16 7/14/3 25/15/19 29/6/20
f 3/16/21 1/11/22 13/10/23 17/17/24
f 18/10/10 16/9/9 20/12/12 24/1/1
f 1/11/22 2/8/25 15/9/26 13/10/23
f 5/18/27 14/19/28 15/9/26 2/8/25
f 3/18/21 17/19/24 16/9/9 4/8/8
f 5/16/27 6/11/11 18/10/10 14/17/28
f 17/17/24 13/10/23 22/1/17 21/4/13
f 24/1/1 20/12/12 10/5/5 12/2/2
f 13/10/23 15/9/26 19/12/15 22/1/17
f 15/9/26 14/19/28 23/13/4 19/12/15
f 16/9/9 17/19/24 21/13/13 20/12/12
f 14/17/28 18/10/10 24/1/1 23/4/4
f 27/20/29 29/21/20 25/22/19 30/23/7 28/24/6 26/25/30
f 8/3/14 9/2/18 27/7/29 26/26/30
f 8/14/14 26/15/30 28/6/6 10/5/5
f 7/3/3 12/2/2 30/7/7 25/26/19
f 9/2/18 11/5/16 29/6/20 27/7/29
f 47/27/31 37/28/32 73/29/33 84/30/34
f 32/31/35 40/32/36 81/33/37 74/34/38
f 46/35/39 43/36/40 71/37/41 82/38/42
f 52/39/43 47/27/31 84/30/34 87/40/44
f 64/41/45 56/42/46 79/43/47 88/44/48
f 61/45/49 67/46/50 91/47/51 68/48/52
f 67/46/50 64/41/45 88/44/48 91/47/51
f 55/49/53 52/39/43 87/40/44 76/50/54
f 31/51/55 53/52/56 58/53/57
f 58/53/57 53/52/56 54/54/58 57/55/59
f 57/55/59 54/54/58 55/49/53 56/42/46
f 31/51/55 59/56/60 41/57/61
f 41/57/61 59/56/60 60/58/62 42/59/63
f 42/59/63 60/58/62 61/45/49 43/36/40
f 31/51/55 38/60/64 34/61/65
f 34/61/65 38/60/64 39/62/66 33/63/67
f 33/63/67 39/62/66 40/32/36 32/31/35
f 56/42/46 55/49/53 76/50/54 79/43/47
f 31/51/55 35/64/68 49/65/69
f 49/65/69 35/64/68 36/66/70 48/67/71
f 48/67/71 36/66/70 37/28/32 47/27/31
f 31/51/55 34/61/65 35/64/68
f 35/64/68 34/61/65 33/63/67 36/66/70
f 36/66/70 33/63/67 32/31/35 37/28/32
f 31/51/55 41/57/61 44/68/72
f 44/68/72 41/57/61 42/59/63 45/69/73
f 45/69/73 42/59/63 43/36/40 46/35/39
f 37/28/32 32/31/35 74/34/38 73/29/33
f 31/51/55 44/68/72 38/60/64
f 38/60/64 44/68/72 45/69/73 39/62/66
f 39/62/66 45/69/73 46/35/39 40/32/36
f 31/51/55 58/53/57 62/70/74
f 62/70/74 58/53/57 57/55/59 63/71/75
f 63/71/75 57/55/59 56/42/46 64/41/45
f 40/32/36 46/35/39 82/38/42 81/33/37
f 31/51/55 62/70/74 65/72/76
f 65/72/76 62/70/74 63/71/75 66/73/77
f 66/73/77 63/71/75 64/41/45 67/46/50
f 31/51/55 65/72/76 59/56/60
f 59/56/60 65/72/76 66/73/77 60/58/62
f 60/58/62 66/73/77 67/46/50 61/45/49
f 31/51/55 49/65/69 50/74/78
f 50/74/78 49/65/69 48/67/71 51/75/79
f 51/75/79 48/67/71 47/27/31 52/39/43
f 31/51/55 50/74/78 53/52/56
f 53/52/56 50/74/78 51/75/79 54/54/58
f 54/54/58 51/75/79 52/39/43 55/49/53
f 92/76/80 93/77/81 71/37/41 68/48/52
f 94/78/82 95/79/83 79/43/47 76/50/54
f 96/80/84 97/81/85 73/29/33 74/34/38
f 98/82/86 99/83/87 81/33/37 82/38/42
f 100/84/88 101/85/89 91/47/51 88/44/48
f 102/86/90 103/87/91 87/40/44 84/30/34
f 97/81/85 102/86/90 84/30/34 73/29/33
f 99/83/87 96/80/84 74/34/38 81/33/37
f 93/77/81 98/82/86 82/38/42 71/37/41
f 95/79/83 100/84/88 88/44/48 79/43/47
f 101/85/89 92/76/80 68/48/52 91/47/51
f 103/87/91 94/78/82 76/50/54 87/40/44
f 43/36/40 61/45/49 68/48/52 71/37/41
f 104/88/92 105/89/93 93/90/94 92/91/95
f 106/92/96 107/93/97 95/94/98 94/95/99
f 108/96/100 109/97/101 97/98/102 96/99/103
f 110/100/104 111/101/105 99/102/106 98/103/107
f 112/104/108 113/105/109 101/106/110 100/107/111
f 114/108/112 115/109/113 103/110/114 102/111/115
f 109/97/101 114/108/112 102/111/115 97/98/102
f 111/101/105 108/96/100 96/99/103 99/102/106
f 105/89/93 110/100/104 98/103/107 93/90/94
f 107/93/97 112/104/108 100/107/111 95/94/98
f 113/105/109 104/88/92 92/91/95 101/106/110
f 115/109/113 106/92/96 94/95/99 103/110/114
f 86/112/116 77/113/117 106/92/96 115/109/113
f 90/114/118 69/115/119 104/88/92 113/105/109
f 78/116/106 89/117/120 112/104/108 107/93/97
f 70/118/121 83/119/122 110/100/104 105/89/93
f 80/120/98 75/121/123 108/96/100 111/101/105
f 72/122/124 85/123/125 114/108/112 109/97/101
f 85/123/125 86/112/116 115/109/113 114/108/112
f 89/117/120 90/114/118 113/105/109 112/104/108
f 83/119/122 80/120/98 111/101/105 110/100/104
f 75/121/123 72/122/124 109/97/101 108/96/100
f 77/113/117 78/116/106 107/93/97 106/92/96
f 69/115/119 70/118/121 105/89/93 104/88/92
f 19/12/15 11/5/16 9/2/18 22/1/17
f 69/115/126 90/114/126 89/117/126
f 89/117/126 78/116/126 77/113/126
f 77/113/126 86/112/126 85/123/126
f 70/118/126 69/115/126 75/121/126 83/119/126
f 75/121/126 80/120/126 83/119/126
f 72/122/126 75/121/126 77/113/126 85/123/126
f 89/117/126 77/113/126 75/121/126 69/115/126
