# Blender 5.0.1
# www.blender.org
mtllib pine_tree_n_1.mtl
o pine_tree_n_1
v 0.251255 0.000000 0.128435
v 0.178761 0.000000 0.200743
v 0.080728 -0.000000 0.244545
v -0.023149 0.000000 0.259024
v -0.117054 0.000000 0.241975
v -0.219916 0.000000 0.194395
v -0.273044 0.000000 0.103966
v 0.277630 0.000000 0.026925
v 0.109376 0.000000 -0.235714
v 0.193065 0.000000 -0.172501
v 0.253872 0.000000 -0.088333
v -0.268350 0.000000 -0.015544
v 0.014465 0.000000 -0.286071
v -0.241975 -0.000000 -0.117054
v -0.178761 0.000000 -0.200743
v -0.089411 0.000000 -0.271592
v 0.106151 2.889600 0.077393
v 0.166033 0.521617 0.080316
v 0.122658 0.521617 0.137740
v 0.060610 0.521617 0.174194
v -0.174195 0.521617 0.060608
v -0.135267 2.889600 0.063409
v -0.137741 0.521617 0.122657
v -0.109400 2.889600 0.107437
v -0.080317 0.521617 0.166031
v -0.010665 0.521617 0.184129
v -0.019230 2.889600 0.151056
v -0.004094 2.889600 -0.110253
v 0.010665 0.521617 -0.184132
v -0.060610 0.521617 -0.174197
v -0.054669 2.889600 -0.103204
v -0.122658 0.521617 -0.137743
v -0.166033 0.521617 -0.080319
v -0.129475 2.889600 -0.036590
v -0.184130 0.521617 -0.010667
v 0.184130 0.521617 0.010664
v 0.174196 0.521617 -0.060612
v 0.137741 0.521617 -0.122660
v 0.080317 0.521617 -0.166034
v 0.045329 2.889600 -0.097412
v 0.198599 0.188076 0.096070
v 0.146717 0.188076 0.164757
v 0.072498 0.188076 0.208362
v 0.012757 0.188076 -0.220247
v 0.220246 0.188076 0.012756
v -0.208362 0.188076 0.072497
v -0.164758 0.188076 0.146716
v -0.096071 0.188076 0.198598
v -0.012757 0.188076 0.220245
v -0.072498 0.188076 -0.208363
v -0.146716 0.188076 -0.164759
v -0.198598 0.188076 -0.096072
v -0.220246 0.188076 -0.012758
v 0.208363 0.188076 -0.072499
v 0.164758 0.188076 -0.146717
v 0.096071 0.188076 -0.198599
v 0.013553 10.113601 0.006542
v -0.006555 10.113601 0.013539
v 0.006556 10.113601 -0.013565
v -0.013551 10.113601 -0.006569
v 0.023075 8.668800 0.039378
v 0.098647 4.334401 0.085316
v 0.075374 2.889600 0.118135
v -0.003824 8.668800 0.063331
v 0.030397 4.334401 0.146092
v 0.031346 2.889600 0.144002
v -0.121614 4.334401 0.072558
v -0.063735 8.668800 0.034350
v -0.068653 2.889600 0.138209
v -0.060838 4.334401 0.140808
v -0.039781 8.668800 0.061248
v -0.048080 4.334401 -0.079454
v -0.034753 8.668800 -0.025561
v -0.098697 2.889600 -0.077342
v -0.116330 4.334401 -0.018678
v -0.061652 8.668800 -0.001608
v -0.142316 2.889600 0.012828
v 0.118993 2.889600 0.027964
v 0.111944 2.889600 -0.022611
v 0.103932 4.334401 -0.005919
v 0.025158 8.668800 0.003420
v 0.086077 2.889600 -0.066639
v 0.043156 4.334401 -0.074169
v 0.001204 8.668800 -0.023478
vn -0.9780 0.1914 -0.0828
vn -0.9573 0.2696 -0.1042
vn -0.9027 0.3338 0.2716
vn -0.9299 0.2238 0.2921
vn -0.6668 0.3375 0.6644
vn -0.7062 0.2265 0.6708
vn -0.3507 0.2651 0.8982
vn -0.3907 0.1888 0.9010
vn -0.0423 0.2128 0.9762
vn -0.0447 0.1612 0.9859
vn 0.0904 0.2082 -0.9739
vn 0.1113 0.3036 -0.9463
vn -0.3428 0.3115 -0.8863
vn -0.3418 0.2127 -0.9154
vn -0.6687 0.2647 -0.6948
vn -0.6679 0.1888 -0.7199
vn -0.8720 0.2482 -0.4218
vn -0.8855 0.1800 -0.4284
vn 0.9789 0.1997 0.0433
vn 0.9568 0.2872 0.0450
vn 0.9011 0.2451 -0.3577
vn 0.9216 0.1783 -0.3447
vn 0.7133 0.2107 -0.6685
vn 0.7284 0.1606 -0.6661
vn 0.4772 0.2308 -0.8480
vn 0.4592 0.1705 -0.8718
vn 0.4350 0.0206 -0.9002
vn 0.4341 0.0791 -0.8974
vn 0.0576 0.0791 -0.9952
vn 0.0573 0.0207 -0.9981
vn 0.7465 0.0190 -0.6651
vn 0.7445 0.0791 -0.6629
vn 0.9443 0.0159 -0.3286
vn 0.9415 0.0791 -0.3276
vn 0.9982 0.0120 0.0580
vn 0.9952 0.0792 0.0576
vn -0.9003 0.0125 -0.4351
vn -0.8974 0.0791 -0.4341
vn -0.9952 0.0791 -0.0576
vn -0.9983 0.0084 -0.0576
vn -0.6653 0.0163 -0.7464
vn -0.6629 0.0791 -0.7445
vn -0.3291 0.0192 -0.9441
vn -0.3276 0.0791 -0.9415
vn -0.4358 -0.0003 0.9000
vn -0.4341 0.0791 0.8974
vn -0.0575 0.0791 0.9952
vn -0.0584 -0.0003 0.9983
vn -0.7470 0.0015 0.6648
vn -0.7445 0.0791 0.6630
vn -0.9445 0.0044 0.3286
vn -0.9415 0.0791 0.3276
vn 0.3107 0.1585 0.9372
vn 0.3276 0.0791 0.9415
vn 0.6275 0.1813 0.7572
vn 0.6629 0.0791 0.7445
vn 0.3281 0.0011 0.9446
vn 0.8736 0.2052 0.4413
vn 0.8974 0.0791 0.4341
vn 0.6646 0.0040 0.7472
vn 0.9000 0.0078 0.4358
vn 0.8424 0.2961 0.4502
vn 0.5943 0.2510 0.7641
vn 0.2915 0.2063 0.9341
vn -0.0000 1.0000 -0.0000
vn 0.8998 0.0260 0.4355
vn 0.9001 -0.0015 0.4357
vn 0.9438 0.0082 -0.3304
vn 0.9436 0.0114 -0.3310
vn 0.4380 0.0178 -0.8988
vn 0.9033 0.0289 0.4280
vn -0.9448 0.0243 0.3268
vn -0.4381 0.0101 0.8989
vn -0.4387 0.0329 0.8980
vn -0.9451 0.0214 0.3261
vn -0.3305 0.0330 -0.9432
vn 0.4328 0.0225 -0.9012
vn -0.8998 0.0337 -0.4350
vn 0.3257 0.0349 0.9448
vn -0.9003 0.0071 -0.4352
vn -0.3313 -0.0017 -0.9435
vn 0.4320 -0.0001 -0.9019
vn -0.4322 0.0529 0.9002
vn 0.3265 -0.0006 0.9452
vn -0.8959 0.0415 -0.4424
vt 0.293163 4.954233
vt 0.335707 5.102386
vt 0.256239 5.121584
vt 0.223221 4.968729
vt 0.175693 5.135822
vt 0.151320 4.980035
vt 0.094539 5.145764
vt 0.078096 4.988136
vt 0.013009 5.151849
vt 0.004029 4.993052
vt -0.584866 4.929314
vt -0.628081 5.079594
vt -0.705487 5.055523
vt -0.654285 4.908113
vt -0.781809 5.026679
vt -0.721407 4.883933
vt -0.856398 4.991970
vt -0.785538 4.857168
vt 0.360203 4.936266
vt 0.413236 5.077391
vt -0.294208 4.983969
vt -0.312405 5.141077
vt -0.392384 5.130301
vt -0.368125 4.974604
vt -0.471659 5.116520
vt -0.441375 4.962482
vt -0.550155 5.099669
vt -0.513767 4.947629
vt -0.241421 2.600050
vt -0.454062 4.662862
vt -0.515127 4.650397
vt -0.287054 2.595921
vt -0.195598 2.604594
vt -0.391993 4.673619
vt -0.150025 2.608824
vt -0.329131 4.682603
vt -0.104669 2.614618
vt -0.265684 4.689755
vt 0.291596 2.637558
vt 0.296685 4.672284
vt 0.237514 4.681082
vt 0.247348 2.636929
vt -0.377666 2.588654
vt -0.633482 4.620934
vt -0.690571 4.604454
vt -0.422271 2.585449
vt -0.332488 2.592063
vt -0.574999 4.636364
vt 0.115928 2.632380
vt 0.053039 4.697609
vt -0.010181 4.699712
vt 0.072286 2.630153
vt 0.159513 2.634044
vt 0.115548 4.693747
vt 0.203420 2.635470
vt 0.177114 4.688206
vt -0.070491 4.994807
vt -0.073886 4.700003
vt -0.145156 4.994168
vt -0.137853 4.698458
vt 0.028491 2.627731
vt -0.219813 4.990525
vt -0.201855 4.695044
vt -0.015437 2.624221
vt -0.059929 2.619581
vt -0.231749 5.148830
vt -0.150513 5.153232
vt -0.068815 5.154324
vt 1.104587 -4.154323
vt 1.123525 -4.154323
vt 1.123525 -4.135385
vt 1.104587 -4.135385
vt 0.262872 -2.691121
vt 0.021697 1.325903
vt -0.059621 1.320553
vt 0.227556 -2.693887
vt 0.348980 -4.153643
vt 0.369727 -4.151359
vt 0.267777 1.360989
vt 0.186338 1.351366
vt 0.332625 -2.685394
vt 0.367538 -2.682805
vt -0.218992 1.312943
vt -0.139579 1.316848
vt -0.298631 1.307354
vt 0.297854 -2.689647
vt 0.120471 -2.705412
vt 0.155733 -2.700286
vt 0.191549 -2.695756
vt 0.391185 -4.148102
vt 0.104144 1.337590
vt 0.402582 -2.679829
vt 0.413236 -4.148011
vt 0.349201 1.364312
vt 0.327761 -4.154325
s 1
usemtl pine_bark_2
f 53/1/1 12/2/2 7/3/3 46/4/4
f 46/4/4 7/3/3 6/5/5 47/6/6
f 47/6/6 6/5/5 5/7/7 48/8/8
f 48/8/8 5/7/7 4/9/9 49/10/10
f 44/11/11 13/12/12 16/13/13 50/14/14
f 50/14/14 16/13/13 15/15/15 51/16/16
f 51/16/16 15/15/15 14/17/17 52/18/18
f 52/19/18 14/20/17 12/2/2 53/1/1
f 45/21/19 8/22/20 11/23/21 54/24/22
f 54/24/22 11/23/21 10/25/23 55/26/24
f 55/26/24 10/25/23 9/27/25 56/28/26
f 56/28/26 9/27/25 13/12/12 44/11/11
f 40/29/27 39/30/28 29/31/29 28/32/30
f 82/33/31 38/34/32 39/30/28 40/29/27
f 79/35/33 37/36/34 38/34/32 82/33/31
f 78/37/35 36/38/36 37/36/34 79/35/33
f 34/39/37 33/40/38 35/41/39 77/42/40
f 74/43/41 32/44/42 33/45/38 34/46/37
f 31/47/43 30/48/44 32/44/42 74/43/41
f 28/32/30 29/31/29 30/48/44 31/47/43
f 69/49/45 25/50/46 26/51/47 27/52/48
f 24/53/49 23/54/50 25/50/46 69/49/45
f 22/55/51 21/56/52 23/54/50 24/53/49
f 43/57/53 20/58/54 26/51/47 49/10/10
f 77/42/40 35/41/39 21/56/52 22/55/51
f 42/59/55 19/60/56 20/58/54 43/57/53
f 20/58/54 66/61/57 27/52/48 26/51/47
f 41/62/58 18/63/59 19/60/56 42/59/55
f 19/60/56 63/64/60 66/61/57 20/58/54
f 45/21/19 36/38/36 18/63/59 41/62/58
f 18/63/59 17/65/61 63/64/60 19/60/56
f 8/22/20 45/21/19 41/62/58 1/66/62
f 1/66/62 41/62/58 42/59/55 2/67/63
f 2/67/63 42/59/55 43/57/53 3/68/64
f 3/68/64 43/57/53 49/10/10 4/9/9
f 39/30/28 56/28/26 44/11/11 29/31/29
f 38/34/32 55/26/24 56/28/26 39/30/28
f 37/36/34 54/24/22 55/26/24 38/34/32
f 36/38/36 45/21/19 54/24/22 37/36/34
f 33/40/38 52/19/18 53/1/1 35/41/39
f 32/44/42 51/16/16 52/18/18 33/45/38
f 30/48/44 50/14/14 51/16/16 32/44/42
f 29/31/29 44/11/11 50/14/14 30/48/44
f 25/50/46 48/8/8 49/10/10 26/51/47
f 23/54/50 47/6/6 48/8/8 25/50/46
f 21/56/52 46/4/4 47/6/6 23/54/50
f 35/41/39 53/1/1 46/4/4 21/56/52
f 60/69/65 58/70/65 57/71/65 59/72/65
f 36/38/36 78/37/35 17/65/61 18/63/59
f 61/73/66 62/74/67 80/75/68 81/76/69
f 59/77/70 57/78/71 81/76/69
f 67/79/72 70/80/73 71/81/74 68/82/75
f 28/32/30 72/83/76 83/84/77
f 72/83/76 74/43/41 75/85/78
f 57/78/71 64/86/79 61/73/66
f 72/83/76 75/85/78 76/87/80 73/88/81
f 80/75/68 83/84/77 84/89/82 81/76/69
f 62/74/67 78/37/35 80/75/68
f 80/75/68 82/33/31 83/84/77
f 64/86/79 57/78/71 58/90/83
f 65/91/84 64/86/79 71/81/74 70/80/73
f 76/92/80 68/82/75 60/93/85
f 77/42/40 67/79/72 75/94/78
f 83/84/77 72/83/76 73/88/81 84/89/82
f 84/89/82 73/88/81 59/77/70
f 64/86/79 65/91/84 62/74/67 61/73/66
f 27/52/48 65/91/84 70/80/73
f 75/94/78 67/79/72 68/82/75 76/92/80
f 66/61/57 65/91/84 27/52/48
f 63/64/60 65/91/84 66/61/57
f 65/91/84 63/64/60 62/74/67
f 17/65/61 62/74/67 63/64/60
f 78/37/35 62/74/67 17/65/61
f 80/75/68 78/37/35 79/35/33
f 82/33/31 80/75/68 79/35/33
f 83/84/77 82/33/31 40/29/27
f 28/32/30 83/84/77 40/29/27
f 72/83/76 28/32/30 31/47/43
f 74/43/41 72/83/76 31/47/43
f 75/85/78 74/43/41 34/46/37
f 77/42/40 75/94/78 34/39/37
f 67/79/72 77/42/40 22/55/51
f 70/80/73 24/53/49 69/49/45
f 24/53/49 67/79/72 22/55/51
f 27/52/48 70/80/73 69/49/45
f 67/79/72 24/53/49 70/80/73
f 59/77/70 73/88/81 60/95/85
f 59/77/70 81/76/69 84/89/82
f 57/78/71 61/73/66 81/76/69
f 60/95/85 73/88/81 76/87/80
f 58/90/83 68/82/75 71/81/74
f 64/86/79 58/90/83 71/81/74
f 60/93/85 68/82/75 58/90/83
o pine_tree_n_1_branches
v 0.057368 7.051574 -0.446539
v 0.005515 7.051574 0.448635
v 1.401460 6.814170 -0.368683
v 1.349608 6.814171 0.526491
v 1.373211 7.098823 0.123559
v 0.030989 7.336226 0.013402
v 1.132678 6.900628 -0.384253
v 0.863863 6.951867 -0.399823
v 0.595048 7.003268 -0.415394
v 0.326219 7.040088 -0.430966
v 0.274367 7.040088 0.464209
v 0.543195 7.003268 0.479780
v 0.812010 6.951867 0.495351
v 1.080825 6.900628 0.510922
v 1.104802 7.185280 0.101530
v 0.836361 7.236519 0.079499
v 0.567921 7.287920 0.057467
v 0.299467 7.324740 0.035435
v -0.012708 7.796853 -0.362292
v -0.008481 7.793821 0.382298
v 1.083063 7.500103 -0.369722
v 1.087290 7.497071 0.374868
v 1.106839 7.733838 0.040541
v 0.010915 8.030697 0.021102
v 0.866846 7.591687 -0.368121
v 0.647975 7.654144 -0.366625
v 0.429116 7.716736 -0.365127
v 0.209158 7.767270 -0.363672
v 0.213386 7.764237 0.380918
v 0.433343 7.713704 0.379463
v 0.652202 7.651111 0.377966
v 0.871073 7.588654 0.376469
v 0.890591 7.825442 0.036768
v 0.671689 7.887922 0.032891
v 0.452800 7.950536 0.029015
v 0.232812 8.001092 0.025096
v -0.400823 8.130472 0.002753
v 0.342296 8.129448 0.041737
v -0.345413 7.746862 -1.063544
v 0.397705 7.745838 -1.024560
v 0.065633 7.979072 -1.082304
v -0.016591 8.362719 -0.017414
v -0.356162 7.855458 -0.855789
v -0.367212 7.935253 -0.643060
v -0.378261 8.015181 -0.430355
v -0.389434 8.083183 -0.215590
v 0.353685 8.082160 -0.176605
v 0.364858 8.014156 -0.391371
v 0.375906 7.934229 -0.604076
v 0.386956 7.854434 -0.816805
v 0.049521 8.087674 -0.874830
v 0.033108 8.167478 -0.662383
v 0.016697 8.247412 -0.449958
v 0.000161 8.315423 -0.235475
v -0.471826 5.378008 -0.067987
v 0.450995 5.378008 -0.014534
v -0.391343 5.156401 -1.457464
v 0.531478 5.156400 -1.404011
v 0.115820 5.449808 -1.423468
v 0.002037 5.671416 -0.035920
v -0.407476 5.240897 -1.178938
v -0.423577 5.289093 -0.900982
v -0.439677 5.337455 -0.623023
v -0.455763 5.370788 -0.345300
v 0.467058 5.370788 -0.291847
v 0.483145 5.337455 -0.569570
v 0.499245 5.289093 -0.847530
v 0.515345 5.240898 -1.125485
v 0.093027 5.534306 -1.145328
v 0.070266 5.582501 -0.867757
v 0.047506 5.630863 -0.590185
v 0.024760 5.664196 -0.312847
v -0.552271 4.721261 -0.096041
v 0.505534 4.721261 -0.034770
v -0.460016 4.467238 -1.688761
v 0.597789 4.467238 -1.627489
v 0.121331 4.803563 -1.649792
v -0.009095 5.057587 -0.059283
v -0.478509 4.564095 -1.369494
v -0.496964 4.619340 -1.050881
v -0.515419 4.674776 -0.732264
v -0.533859 4.712985 -0.413917
v 0.523946 4.712985 -0.352646
v 0.542386 4.674776 -0.670992
v 0.560841 4.619340 -0.989609
v 0.579296 4.564095 -1.308223
v 0.095204 4.900420 -1.330968
v 0.069115 4.955666 -1.012796
v 0.043026 5.011101 -0.694621
v 0.016952 5.049310 -0.376717
v -0.523826 3.759778 -0.048849
v 0.565566 3.759778 0.014252
v -0.432597 3.231538 -1.623848
v 0.656795 3.231538 -1.560747
v 0.169408 3.574086 -1.640655
v 0.038868 4.102326 -0.067932
v -0.450434 3.384090 -1.315901
v -0.468641 3.494261 -1.001581
v -0.486845 3.604626 -0.687290
v -0.505203 3.697444 -0.370361
v 0.584189 3.697445 -0.307260
v 0.602547 3.604626 -0.624189
v 0.620751 3.494260 -0.938480
v 0.638958 3.384090 -1.252800
v 0.143708 3.726638 -1.333163
v 0.117640 3.836809 -1.019298
v 0.091573 3.947174 -0.705462
v 0.065353 4.039993 -0.388989
v -0.248360 7.141937 -0.315635
v 0.294299 7.141937 0.293755
v 0.673150 6.983184 -1.136237
v 1.215809 6.983184 -0.526847
v 0.962711 7.241951 -0.793290
v 0.021619 7.400704 0.005322
v 0.487639 7.050367 -0.971040
v 0.303220 7.085534 -0.806815
v 0.118796 7.120848 -0.642587
v -0.065175 7.142907 -0.478761
v 0.477484 7.142907 0.130629
v 0.661456 7.120848 -0.033197
v 0.845879 7.085534 -0.197426
v 1.030298 7.050367 -0.361650
v 0.773283 7.309135 -0.632491
v 0.584948 7.344302 -0.472664
v 0.396608 7.379616 -0.312834
v 0.208720 7.401675 -0.153406
v -0.265736 6.165093 -0.307462
v 0.294966 6.165093 0.322197
v 0.664836 5.849209 -1.136123
v 1.225537 5.849209 -0.506465
v 0.988058 6.116116 -0.803172
v 0.037253 6.432000 0.002768
v 0.480763 5.948933 -0.972209
v 0.294846 6.015634 -0.806652
v 0.108936 6.082486 -0.641103
v -0.077736 6.135666 -0.474873
v 0.482965 6.135666 0.154785
v 0.669638 6.082486 -0.011444
v 0.855547 6.015634 -0.176994
v 1.041465 5.948933 -0.342551
v 0.799939 6.215840 -0.643802
v 0.609975 6.282540 -0.482789
v 0.420019 6.349392 -0.321784
v 0.229300 6.402573 -0.160099
v 0.079488 6.458594 -0.434845
v 0.026816 6.458594 0.474507
v 1.447255 6.231411 -0.355620
v 1.394583 6.231411 0.553732
v 1.415611 6.520559 0.144248
v 0.049744 6.747742 0.032210
v 1.173334 6.316440 -0.371486
v 0.899746 6.365694 -0.387333
v 0.626155 6.415112 -0.403180
v 0.352702 6.449719 -0.419019
v 0.300030 6.449719 0.490333
v 0.573483 6.415112 0.506172
v 0.847074 6.365694 0.522019
v 1.120663 6.316440 0.537866
v 1.142070 6.605588 0.121819
v 0.868862 6.654842 0.099409
v 0.595651 6.704261 0.077000
v 0.322578 6.738868 0.054598
v 0.452135 5.769177 0.048914
v -0.423422 5.769177 0.157203
v 0.615016 5.549139 1.365849
v -0.260541 5.549139 1.474139
v 0.133256 5.829193 1.422812
v 0.001970 6.049232 0.101969
v 0.582396 5.631494 1.102108
v 0.549816 5.679199 0.838687
v 0.517235 5.727063 0.575264
v 0.484671 5.760582 0.311974
v -0.390886 5.760582 0.420264
v -0.358322 5.727064 0.683555
v -0.325741 5.679199 0.946977
v -0.293161 5.631494 1.210399
v 0.106955 5.911548 1.158290
v 0.080694 5.959253 0.894087
v 0.054432 6.007118 0.629883
v 0.028187 6.040637 0.365811
v 0.090163 5.635610 -0.414386
v 0.039859 5.635610 0.454085
v 1.396440 5.418640 -0.338723
v 1.346136 5.418640 0.529748
v 1.366218 5.694789 0.138673
v 0.061757 5.911759 0.031671
v 1.134834 5.499846 -0.353876
v 0.873545 5.546886 -0.369010
v 0.612254 5.594083 -0.384144
v 0.351095 5.627134 -0.399271
v 0.300791 5.627134 0.469199
v 0.561950 5.594083 0.484325
v 0.823241 5.546886 0.499460
v 1.084530 5.499846 0.514595
v 1.104975 5.775995 0.117252
v 0.844049 5.823035 0.095850
v 0.583122 5.870232 0.074448
v 0.322325 5.903284 0.053053
v 0.053347 5.004752 -0.484698
v -0.005961 5.004753 0.539241
v 1.534537 4.510712 -0.398906
v 1.475230 4.510713 0.625033
v 1.549801 4.832759 0.166898
v 0.070751 5.326799 0.044158
v 1.244854 4.653617 -0.415684
v 0.949249 4.756677 -0.432806
v 0.653670 4.859920 -0.449926
v 0.355639 4.946666 -0.467189
v 0.296331 4.946667 0.556750
v 0.594362 4.859921 0.574012
v 0.889941 4.756678 0.591132
v 1.185547 4.653618 0.608254
v 1.260546 4.975665 0.142730
v 0.965369 5.078724 0.118219
v 0.670218 5.181968 0.093709
v 0.372615 5.268714 0.069057
v -0.390448 2.842450 -0.269910
v 0.394600 2.842450 0.435341
v 0.606528 2.239758 -1.379690
v 1.391576 2.239758 -0.674440
v 1.084944 2.567387 -1.043928
v 0.059640 3.170079 0.040404
v 0.413534 2.405158 -1.164859
v 0.214755 2.530022 -0.943590
v 0.016004 2.655072 -0.722350
v -0.185142 2.763340 -0.498445
v 0.599906 2.763340 0.206805
v 0.801052 2.655072 -0.017099
v 0.999803 2.530022 -0.238339
v 1.198581 2.405158 -0.459609
v 0.886284 2.732786 -0.834186
v 0.681840 2.857651 -0.618007
v 0.477423 2.982701 -0.401857
v 0.270611 3.090969 -0.183042
v 0.089925 3.346166 -0.546706
v 0.031012 3.346166 0.470424
v 1.565730 2.869045 -0.461226
v 1.506817 2.869045 0.555905
v 1.577940 3.189378 0.100645
v 0.104261 3.666498 -0.021538
v 1.276677 3.008332 -0.477968
v 0.982105 3.107985 -0.495030
v 0.687558 3.207821 -0.512091
v 0.390727 3.291247 -0.529283
v 0.331813 3.291247 0.487847
v 0.628644 3.207820 0.505040
v 0.923191 3.107985 0.522101
v 1.217763 3.008332 0.539163
v 1.289312 3.328664 0.076562
v 0.995165 3.428317 0.052160
v 0.701044 3.528153 0.027759
v 0.404637 3.611580 0.003225
v -0.575920 6.628508 -0.015158
v 0.488638 6.628508 0.044270
v -0.489828 6.121758 -1.557359
v 0.574730 6.121757 -1.497932
v 0.098234 6.456757 -1.572978
v -0.026272 6.963508 -0.032920
v -0.506678 6.268977 -1.255532
v -0.523860 6.374751 -0.947729
v -0.541042 6.480714 -0.639954
v -0.558361 6.569518 -0.329705
v 0.506197 6.569518 -0.270277
v 0.523516 6.480714 -0.580526
v 0.540698 6.374751 -0.888302
v 0.557881 6.268977 -1.196105
v 0.073702 6.603978 -1.271579
v 0.048836 6.709751 -0.964205
v 0.023972 6.815714 -0.656859
v -0.001030 6.904518 -0.347039
v 0.010272 5.962079 0.505681
v 0.065694 5.962079 -0.451146
v -1.375863 5.506556 0.425392
v -1.320441 5.506556 -0.531436
v -1.388797 5.807690 -0.103251
v -0.004661 6.263214 0.011565
v -1.104580 5.638893 0.441105
v -0.827926 5.733974 0.457130
v -0.551297 5.829226 0.473153
v -0.272444 5.909051 0.489305
v -0.217022 5.909052 -0.467522
v -0.495875 5.829226 -0.483674
v -0.772504 5.733974 -0.499698
v -1.049158 5.638893 -0.515722
v -1.117913 5.940028 -0.080632
v -0.841660 6.035109 -0.057702
v -0.565430 6.130361 -0.034774
v -0.286977 6.210186 -0.011716
v -0.029785 6.647330 0.533505
v 0.027404 6.647330 -0.453835
v -1.460122 6.177280 0.450656
v -1.402933 6.177280 -0.536683
v -1.473468 6.488018 -0.094845
v -0.045195 6.958067 0.023632
v -1.180188 6.313838 0.466870
v -0.894712 6.411951 0.483406
v -0.609262 6.510240 0.499940
v -0.321517 6.592612 0.516607
v -0.264328 6.592612 -0.470733
v -0.552073 6.510241 -0.487399
v -0.837523 6.411951 -0.503933
v -1.122999 6.313838 -0.520469
v -1.193947 6.624577 -0.071505
v -0.908884 6.722689 -0.047843
v -0.623846 6.820978 -0.024184
v -0.336514 6.903350 -0.000391
v -0.377929 5.825475 0.286547
v 0.393217 5.825475 -0.124629
v -0.995927 5.601730 -0.872485
v -0.224781 5.601730 -1.283661
v -0.571261 5.879155 -1.097381
v 0.018911 6.102900 0.076489
v -0.872240 5.684466 -0.640515
v -0.748632 5.732878 -0.408693
v -0.625024 5.781447 -0.176870
v -0.501448 5.815806 0.054892
v 0.269698 5.815806 -0.356284
v 0.146122 5.781448 -0.588046
v 0.022514 5.732878 -0.819869
v -0.101094 5.684466 -1.051691
v -0.453139 5.961891 -0.862443
v -0.335096 6.010303 -0.627653
v -0.217053 6.058872 -0.392863
v -0.099043 6.093231 -0.158134
v -0.092788 4.437555 0.442929
v -0.039254 4.437555 -0.481318
v -1.481930 4.200528 0.362466
v -1.428396 4.200528 -0.561780
v -1.451058 4.494422 -0.145664
v -0.063848 4.731449 -0.031850
v -1.203905 4.288176 0.378570
v -0.926058 4.339461 0.394663
v -0.648210 4.390914 0.410757
v -0.370435 4.427312 0.426847
v -0.316901 4.427312 -0.497399
v -0.594675 4.390914 -0.513489
v -0.872523 4.339461 -0.529583
v -1.150371 4.288176 -0.545677
v -1.173420 4.582069 -0.122890
v -0.895959 4.633355 -0.100126
v -0.618497 4.684807 -0.077362
v -0.341109 4.721206 -0.054602
v -0.031328 5.210347 0.487592
v 0.023364 5.210347 -0.456633
v -1.450499 4.968196 0.405390
v -1.395807 4.968196 -0.538836
v -1.418959 5.268444 -0.113724
v -0.001762 5.510594 0.002550
v -1.166464 5.057739 0.421842
v -0.882611 5.110133 0.438284
v -0.598756 5.162698 0.454725
v -0.314977 5.199883 0.471162
v -0.260285 5.199883 -0.473063
v -0.544064 5.162698 -0.489500
v -0.827918 5.110133 -0.505942
v -1.111772 5.057739 -0.522384
v -1.135319 5.357985 -0.090457
v -0.851860 5.410379 -0.067202
v -0.568401 5.462945 -0.043946
v -0.285016 5.500130 -0.020694
v -0.383106 7.134867 0.302989
v 0.262026 7.134867 -0.271501
v -1.234848 6.827694 -0.653487
v -0.589715 6.827694 -1.227977
v -0.891370 7.101403 -0.982025
v -0.062908 7.408576 -0.004818
v -1.066041 6.926607 -0.463923
v -0.895841 6.991655 -0.272795
v -0.725648 7.056859 -0.081674
v -0.554878 7.108043 0.110095
v 0.090254 7.108044 -0.464395
v -0.080516 7.056859 -0.656163
v -0.250709 6.991655 -0.847285
v -0.420909 6.926607 -1.038413
v -0.727219 7.200316 -0.788315
v -0.561676 7.265364 -0.593041
v -0.396138 7.330568 -0.397773
v -0.230024 7.381752 -0.201858
v -0.373392 5.200609 0.315297
v 0.374163 5.200609 -0.350398
v -1.379808 5.003081 -0.814875
v -0.632253 5.003082 -1.480572
v -0.959494 5.320546 -1.170524
v 0.019947 5.518074 -0.016330
v -1.177257 5.086056 -0.587418
v -0.975851 5.129753 -0.361246
v -0.774441 5.173631 -0.135069
v -0.573504 5.201247 0.090577
v 0.174050 5.201247 -0.575119
v -0.026886 5.173631 -0.800764
v -0.228297 5.129754 -1.026941
v -0.429702 5.086056 -1.253114
v -0.762338 5.403521 -0.938262
v -0.566327 5.447217 -0.707286
v -0.370312 5.491095 -0.476303
v -0.174770 5.518711 -0.245854
v -0.259626 8.587022 -0.270490
v 0.151027 8.585996 0.362000
v 0.617714 8.110734 -0.840888
v 1.028367 8.109708 -0.208399
v 0.894048 8.341913 -0.525534
v 0.001889 8.818238 0.022042
v 0.449165 8.237723 -0.731250
v 0.274364 8.336041 -0.617598
v 0.099592 8.434489 -0.503964
v -0.077769 8.521069 -0.388670
v 0.332884 8.520042 0.243819
v 0.510245 8.433463 0.128525
v 0.685017 8.335014 0.014892
v 0.859818 8.236696 -0.098760
v 0.722535 8.468910 -0.420459
v 0.544771 8.567235 -0.311373
v 0.367035 8.665692 -0.202304
v 0.186711 8.752277 -0.091574
v 0.379804 7.797326 0.046231
v -0.397163 7.797326 0.001227
v 0.315325 7.391554 1.159418
v -0.461642 7.391554 1.114414
v -0.114397 7.634828 1.177711
v -0.021881 8.040600 0.066148
v 0.327879 7.506020 0.942674
v 0.340742 7.590385 0.720605
v 0.353604 7.674889 0.498560
v 0.366593 7.746933 0.274311
v -0.410374 7.746933 0.229306
v -0.423363 7.674890 0.453556
v -0.436225 7.590385 0.675600
v -0.449088 7.506020 0.897670
v -0.096235 7.749293 0.961292
v -0.077765 7.833660 0.739547
v -0.059296 7.918164 0.517827
v -0.040700 7.990206 0.293903
v 0.321547 7.262956 -0.002919
v -0.388017 7.262957 -0.044019
v 0.262661 6.892386 1.013697
v -0.446903 6.892386 0.972596
v -0.129782 7.114556 1.030402
v -0.045291 7.485126 0.015270
v 0.274127 6.996922 0.815756
v 0.285874 7.073969 0.612951
v 0.297620 7.151143 0.410169
v 0.309482 7.216935 0.205374
v -0.400082 7.216936 0.164274
v -0.411944 7.151143 0.369069
v -0.423690 7.073969 0.571851
v -0.435437 6.996922 0.774656
v -0.113195 7.219092 0.832758
v -0.096327 7.296139 0.630251
v -0.079461 7.373312 0.427765
v -0.062477 7.439106 0.223266
v 0.465883 5.327643 0.083382
v -0.462886 5.327643 0.029585
v 0.388348 4.864904 1.421956
v -0.540420 4.864904 1.368159
v -0.125050 5.156528 1.438971
v -0.014002 5.619267 0.102338
v 0.403486 4.997383 1.160622
v 0.418957 5.093781 0.893522
v 0.434427 5.190345 0.626449
v 0.450035 5.271971 0.356989
v -0.478734 5.271971 0.303192
v -0.494342 5.190345 0.572652
v -0.509812 5.093781 0.839725
v -0.525283 4.997383 1.106825
v -0.103210 5.289007 1.178025
v -0.081036 5.385405 0.911314
v -0.058864 5.481969 0.644628
v -0.036553 5.563595 0.375557
v 0.395755 3.222205 0.145209
v -0.538021 3.222205 0.091122
v 0.314485 2.980411 1.548279
v -0.619291 2.980412 1.494192
v -0.198913 3.277338 1.517579
v -0.083948 3.519131 0.116460
v 0.330747 3.069427 1.267534
v 0.347002 3.121706 0.986908
v 0.363257 3.174154 0.706280
v 0.379508 3.211392 0.425702
v -0.554268 3.211392 0.371615
v -0.570520 3.174154 0.652192
v -0.586775 3.121706 0.932820
v -0.603030 3.069427 1.213446
v -0.175912 3.366354 1.237223
v -0.152918 3.418632 0.956987
v -0.129925 3.471081 0.676750
v -0.106934 3.508318 0.396562
v 0.327445 7.093856 0.325043
v -0.314557 7.093856 -0.395905
v -0.695748 6.556069 1.236194
v -1.337750 6.556069 0.515245
v -1.094329 6.856393 0.880344
v -0.047970 7.394180 -0.004792
v -0.497348 6.704749 1.059520
v -0.293311 6.816272 0.877826
v -0.089300 6.927965 0.696154
v 0.117045 7.024274 0.512404
v -0.524957 7.024275 -0.208544
v -0.731302 6.927965 -0.024794
v -0.935313 6.816272 0.156877
v -1.139350 6.704749 0.338571
v -0.891296 7.005074 0.708872
v -0.682626 7.116596 0.532381
v -0.473982 7.228289 0.355913
v -0.263003 7.324599 0.177366
v -0.150882 7.525464 0.463807
v 0.118337 7.615538 -0.425640
v -1.431713 7.079937 0.031005
v -1.162494 7.170012 -0.858442
v -1.333217 7.421326 -0.443511
v -0.062100 7.863602 0.021386
v -1.182330 7.209006 0.119560
v -0.926818 7.301964 0.206313
v -0.671333 7.395089 0.293073
v -0.413312 7.473264 0.379088
v -0.144093 7.563338 -0.510359
v -0.402115 7.485163 -0.596374
v -0.657599 7.392039 -0.683135
v -0.913111 7.299080 -0.769888
v -1.085777 7.549744 -0.348538
v -0.832207 7.642054 -0.255366
v -0.578666 7.734528 -0.162186
v -0.322588 7.812052 -0.069752
v 0.247011 8.215950 0.287111
v -0.243624 8.215950 -0.263858
v -0.534941 7.804958 0.983436
v -1.025576 7.804958 0.432467
v -0.839548 8.034474 0.711485
v -0.039891 8.445465 0.035041
v -0.383319 7.918584 0.848417
v -0.227388 8.003812 0.709561
v -0.071477 8.089171 0.570723
v 0.086217 8.162773 0.430296
v -0.404418 8.162773 -0.120672
v -0.562113 8.089171 0.019755
v -0.718023 8.003812 0.158593
v -0.873954 7.918584 0.297449
v -0.684384 8.148099 0.580442
v -0.524913 8.233328 0.445563
v -0.365461 8.318687 0.310701
v -0.204226 8.392289 0.174251
v 0.386454 5.643251 0.480458
v -0.255985 5.643251 -0.240978
v -0.683805 5.303422 1.433524
v -1.326244 5.303422 0.712088
v -1.050615 5.609553 1.048899
v 0.042826 5.949380 0.121865
v -0.471609 5.413306 1.244563
v -0.257736 5.485313 1.054109
v -0.043871 5.557495 0.863662
v 0.170688 5.613995 0.672597
v -0.471751 5.613995 -0.048838
v -0.686310 5.557495 0.142227
v -0.900175 5.485313 0.332674
v -1.114048 5.413306 0.523127
v -0.833782 5.719435 0.865144
v -0.615273 5.791442 0.679898
v -0.396771 5.863625 0.494657
v -0.177576 5.920125 0.308799
v 0.329792 4.634820 0.422089
v -0.361820 4.634821 -0.354581
v -0.816746 4.238369 1.443063
v -1.508358 4.238369 0.666393
v -1.216524 4.567481 1.033346
v -0.045029 4.963932 0.040397
v -0.590106 4.362724 1.241243
v -0.361056 4.446359 1.037278
v -0.132016 4.530182 0.833322
v 0.098021 4.597146 0.628477
v -0.593591 4.597146 -0.148192
v -0.823629 4.530182 0.056652
v -1.052668 4.446360 0.260608
v -1.281718 4.362724 0.464574
v -0.984892 4.691835 0.837132
v -0.750850 4.775470 0.638771
v -0.516820 4.859293 0.440420
v -0.281791 4.926257 0.241181
v 0.289499 2.254846 0.123808
v -0.360860 2.254846 -0.062575
v 0.067863 1.609294 0.897179
v -0.582497 1.609294 0.710796
v -0.318250 1.797503 0.894146
v -0.073146 2.443056 0.127500
v 0.108287 1.764175 0.756123
v 0.152238 1.895771 0.602761
v 0.196173 2.027473 0.449456
v 0.241568 2.149535 0.291057
v -0.408792 2.149535 0.104675
v -0.454186 2.027473 0.263074
v -0.498121 1.895771 0.416379
v -0.542072 1.764175 0.569739
v -0.273132 1.952385 0.754434
v -0.224488 2.083980 0.602418
v -0.175859 2.215683 0.450459
v -0.125771 2.337744 0.293405
v 0.462874 3.764020 -0.076546
v -0.413175 3.764020 0.185698
v 0.852544 3.451705 1.225181
v -0.023505 3.451705 1.487425
v 0.375186 3.741606 1.383921
v 0.017128 4.053921 0.072731
v 0.775206 3.553863 0.966826
v 0.697330 3.620154 0.706673
v 0.619456 3.686609 0.446528
v 0.541359 3.738215 0.185638
v -0.334691 3.738215 0.447882
v -0.256594 3.686609 0.708772
v -0.178719 3.620154 0.968917
v -0.100843 3.553863 1.229071
v 0.304170 3.843764 1.123674
v 0.232616 3.910055 0.861628
v 0.161064 3.976511 0.599590
v 0.089290 4.028116 0.336808
v 0.408617 2.704450 -0.172410
v -0.500377 2.704450 0.361637
v 1.179278 2.185667 1.139321
v 0.270284 2.185668 1.673368
v 0.705628 2.516335 1.477530
v -0.032233 3.035117 0.146528
v 1.028730 2.334701 0.883075
v 0.874943 2.442823 0.621317
v 0.721172 2.551134 0.359585
v 0.566059 2.642506 0.095570
v -0.342935 2.642506 0.629617
v -0.187822 2.551134 0.893632
v -0.034050 2.442824 1.155365
v 0.119736 2.334701 1.417123
v 0.561640 2.665369 1.217430
v 0.414413 2.773491 0.951818
v 0.267202 2.881801 0.686231
v 0.118649 2.973173 0.418362
v 0.186627 4.152693 -0.550128
v -0.035536 4.152694 0.542282
v 1.804858 3.750460 -0.221030
v 1.582695 3.750460 0.871381
v 1.705331 4.103593 0.384254
v 0.095117 4.505827 0.015737
v 1.484311 3.879260 -0.286219
v 1.160964 3.964369 -0.351978
v 0.837629 4.049679 -0.417734
v 0.513135 4.116900 -0.483727
v 0.290972 4.116900 0.608684
v 0.615466 4.049679 0.674676
v 0.938801 3.964369 0.740433
v 1.262148 3.879260 0.806192
v 1.386387 4.232394 0.311181
v 1.064643 4.317503 0.237539
v 0.742912 4.402813 0.163899
v 0.420021 4.470035 0.090023
v -0.424746 4.327486 0.203381
v 0.339450 4.327486 -0.221653
v -1.031096 3.857074 -0.886813
v -0.266900 3.857074 -1.311848
v -0.635973 4.129829 -1.165625
v -0.057199 4.600242 -0.060094
v -0.913260 3.988504 -0.674950
v -0.792322 4.086187 -0.457506
v -0.671397 4.184026 -0.240088
v -0.549188 4.267893 -0.020361
v 0.215008 4.267893 -0.445395
v 0.092798 4.184026 -0.665123
v -0.028126 4.086187 -0.882540
v -0.149065 3.988504 -1.099984
v -0.523653 4.261260 -0.950694
v -0.408229 4.358943 -0.730183
v -0.292820 4.456782 -0.509698
v -0.176125 4.540648 -0.286903
v 0.357972 5.371751 -0.268839
v -0.303266 5.371751 0.319991
v 1.197991 4.895437 0.674476
v 0.536754 4.895437 1.263306
v 0.869148 5.171615 1.037278
v 0.052989 5.647929 0.072715
v 1.034746 5.028515 0.491157
v 0.867201 5.127425 0.303009
v 0.699675 5.226491 0.114883
v 0.530370 5.311411 -0.075242
v -0.130868 5.311411 0.513589
v 0.038438 5.226491 0.703713
v 0.205963 5.127425 0.891839
v 0.373508 5.028515 1.079987
v 0.710675 5.304694 0.849709
v 0.547902 5.403603 0.657312
v 0.385148 5.502669 0.464936
v 0.220615 5.587588 0.270562
v 0.115079 2.578047 -0.451706
v -0.169000 2.578047 0.516683
v 1.539948 2.174879 -0.033717
v 1.255869 2.174878 0.934672
v 1.411833 2.493911 0.507009
v -0.002785 2.897080 0.054076
v 1.258821 2.299196 -0.116187
v 0.974218 2.384042 -0.199675
v 0.689631 2.469069 -0.283160
v 0.403605 2.537754 -0.367066
v 0.119526 2.537755 0.601323
v 0.405552 2.469069 0.685229
v 0.690139 2.384042 0.768713
v 0.974742 2.299196 0.852202
v 1.132756 2.618229 0.417551
v 0.850203 2.703075 0.327073
v 0.567666 2.788103 0.236600
v 0.283691 2.856787 0.145705
v -0.449502 3.370340 0.359370
v 0.187087 3.370340 -0.483421
v -1.697304 2.985881 -0.583138
v -1.060715 2.985881 -1.425929
v -1.365300 3.320410 -1.060184
v -0.140468 3.704869 -0.087264
v -1.450213 3.108579 -0.396502
v -1.200891 3.189887 -0.208180
v -0.951579 3.271386 -0.019866
v -0.701343 3.335748 0.169145
v -0.064754 3.335749 -0.673645
v -0.314990 3.271386 -0.862656
v -0.564302 3.189888 -1.050971
v -0.813625 3.108579 -1.239293
v -1.122803 3.443109 -0.867465
v -0.878075 3.524417 -0.673061
v -0.633357 3.605915 -0.478665
v -0.387715 3.670278 -0.283570
v -0.353873 2.854557 0.417885
v 0.277050 2.854557 -0.417405
v -1.524705 2.226678 -0.466485
v -0.893782 2.226678 -1.301775
v -1.238420 2.550180 -0.971586
v -0.090354 3.178059 -0.057075
v -1.298842 2.396550 -0.295883
v -1.065476 2.526397 -0.119613
v -0.832145 2.656428 0.056630
v -0.595707 2.769887 0.235219
v 0.035216 2.769888 -0.600070
v -0.201222 2.656428 -0.778660
v -0.434553 2.526397 -0.954903
v -0.667919 2.396550 -1.131172
v -1.017110 2.720053 -0.794956
v -0.788297 2.849899 -0.612658
v -0.559519 2.979930 -0.430387
v -0.327635 3.093390 -0.245769
v -0.249270 3.720723 0.420828
v 0.014798 3.720723 -0.595499
v -1.766760 3.396766 0.026546
v -1.502692 3.396766 -0.989781
v -1.631281 3.729964 -0.534826
v -0.123319 4.053921 -0.103869
v -1.464593 3.507181 0.105057
v -1.161224 3.576372 0.183880
v -0.857860 3.645752 0.262702
v -0.553998 3.698064 0.341652
v -0.289930 3.698065 -0.674675
v -0.593792 3.645752 -0.753626
v -0.897156 3.576372 -0.832447
v -1.200526 3.507182 -0.911271
v -1.331020 3.840380 -0.448980
v -1.029556 3.909571 -0.362822
v -0.728097 3.978950 -0.276666
v -0.426141 4.031262 -0.190380
v -0.041648 3.356997 0.566415
v -0.195957 3.356997 -0.540668
v -1.704061 3.061866 0.798127
v -1.858370 3.061866 -0.308956
v -1.789064 3.416711 0.189400
v -0.121084 3.711841 -0.002364
v -1.371599 3.169480 0.751788
v -1.039119 3.233191 0.705446
v -0.706638 3.297104 0.659103
v -0.374150 3.342840 0.612760
v -0.528459 3.342841 -0.494323
v -0.860947 3.297104 -0.447980
v -1.193428 3.233191 -0.401637
v -1.525908 3.169480 -0.355295
v -1.455489 3.524325 0.151050
v -1.121895 3.588036 0.112697
v -0.788301 3.651949 0.074345
v -0.454699 3.697685 0.035991
v 0.292270 3.984059 0.442101
v -0.426252 3.984059 -0.364776
v -0.924729 3.743336 1.525835
v -1.643250 3.743337 0.718958
v -1.312917 4.086197 1.076012
v -0.069991 4.326921 0.021394
v -0.680384 3.838428 1.308246
v -0.436893 3.891099 1.091418
v -0.193398 3.943965 0.874587
v 0.049743 3.979269 0.658070
v -0.668778 3.979269 -0.148806
v -0.911919 3.943966 0.067710
v -1.155414 3.891099 0.284542
v -1.398905 3.838428 0.501369
v -1.063386 4.181289 0.864246
v -0.814710 4.233960 0.653241
v -0.566029 4.286827 0.442233
v -0.317703 4.322130 0.231540
v 0.289443 2.862752 0.443832
v -0.414272 2.862752 -0.346419
v -0.832270 2.273828 1.442713
v -1.535985 2.273829 0.652463
v -1.269074 2.603047 1.052575
v -0.121968 3.191971 0.082210
v -0.614753 2.436692 1.249016
v -0.391069 2.558824 1.049825
v -0.167413 2.681142 0.850661
v 0.058796 2.786597 0.649222
v -0.644919 2.786597 -0.141028
v -0.871128 2.681143 0.060410
v -1.094784 2.558824 0.259575
v -1.318469 2.436692 0.458765
v -1.046479 2.765911 0.864580
v -0.817716 2.888042 0.671094
v -0.588981 3.010361 0.477632
v -0.357693 3.115815 0.281896
v -0.088825 9.422969 -0.301491
v -0.119141 9.425159 0.305678
v 0.570855 8.772828 -0.266208
v 0.540540 8.775018 0.340961
v 0.663651 8.932897 0.072547
v 0.005064 9.582959 0.015355
v 0.453908 8.924609 -0.272595
v 0.323417 9.056734 -0.279587
v 0.192989 9.188951 -0.286576
v 0.056953 9.313029 -0.293816
v 0.026637 9.315220 0.313353
v 0.162673 9.191140 0.320593
v 0.293101 9.058925 0.327582
v 0.423593 8.926800 0.334574
v 0.546923 9.084663 0.061779
v 0.416651 9.216773 0.050405
v 0.286441 9.348972 0.039034
v 0.150624 9.473037 0.027412
v -0.053598 8.803064 -0.324673
v -0.089952 8.801749 0.356754
v 0.865125 8.317159 -0.276597
v 0.828772 8.315844 0.404830
v 0.911582 8.522585 0.102040
v -0.005830 9.008538 0.029375
v 0.690479 8.442567 -0.285673
v 0.507611 8.542470 -0.295236
v 0.324782 8.642489 -0.304797
v 0.138548 8.731950 -0.314560
v 0.102195 8.730636 0.366868
v 0.288428 8.641175 0.376630
v 0.471258 8.541155 0.386191
v 0.654125 8.441253 0.395754
v 0.737198 8.648005 0.088047
v 0.554593 8.747915 0.073566
v 0.372025 8.847945 0.059087
v 0.186054 8.937414 0.044407
v -0.257952 8.771737 0.279473
v 0.262400 8.770300 -0.189493
v -0.905361 8.316219 -0.437479
v -0.385009 8.314782 -0.906445
v -0.658191 8.529923 -0.739228
v -0.029559 8.985493 -0.005354
v -0.781213 8.436692 -0.300097
v -0.652246 8.530629 -0.157286
v -0.523300 8.624686 -0.014500
v -0.392360 8.707756 0.130534
v 0.127992 8.706319 -0.338431
v -0.002948 8.623249 -0.483465
v -0.131894 8.529192 -0.626251
v -0.260861 8.435256 -0.769063
v -0.537798 8.650408 -0.598462
v -0.412586 8.744354 -0.452266
v -0.287396 8.838422 -0.306096
v -0.160211 8.921502 -0.157677
v 0.228915 9.391144 0.178237
v -0.147045 9.388082 -0.232868
v -0.271109 8.882370 0.639305
v -0.647069 8.879307 0.228199
v -0.537370 9.038469 0.466519
v -0.023779 9.547354 0.020285
v -0.179256 9.005730 0.554385
v -0.080037 9.109568 0.462875
v 0.019148 9.213495 0.371395
v 0.121383 9.309341 0.277186
v -0.254577 9.306277 -0.133919
v -0.356812 9.210432 -0.039711
v -0.455997 9.106505 0.051769
v -0.555216 9.002666 0.143279
v -0.442803 9.161851 0.384565
v -0.340871 9.265712 0.296022
v -0.238973 9.369662 0.207509
v -0.134025 9.465529 0.116268
v 0.337479 8.554271 0.020738
v -0.370023 8.553256 -0.016639
v 0.284825 8.167439 1.027921
v -0.422677 8.166425 0.990545
v -0.106794 8.387634 1.050350
v -0.028610 8.774501 0.044515
v 0.295002 8.275032 0.832369
v 0.305499 8.355312 0.631501
v 0.315994 8.435719 0.430655
v 0.326621 8.504818 0.227609
v -0.380881 8.503803 0.190233
v -0.391509 8.434705 0.393279
v -0.402004 8.354300 0.594124
v -0.412500 8.274017 0.794993
v -0.091512 8.495234 0.855068
v -0.075909 8.575522 0.654468
v -0.060308 8.655935 0.453894
v -0.044574 8.725041 0.251117
v 0.104851 8.951562 0.283183
v -0.089517 8.950158 -0.261073
v -0.646860 8.579085 0.552599
v -0.841227 8.577682 0.008343
v -0.798772 8.755477 0.268957
v -0.040047 9.128003 0.019180
v -0.502684 8.677839 0.500856
v -0.352937 8.754674 0.447179
v -0.203214 8.831608 0.393511
v -0.051186 8.899469 0.339042
v -0.245554 8.898066 -0.205214
v -0.397582 8.830205 -0.150746
v -0.547304 8.753270 -0.097077
v -0.697052 8.676436 -0.043401
v -0.653193 8.854240 0.221141
v -0.502043 8.931086 0.171392
v -0.350918 9.008030 0.121652
v -0.197487 9.075899 0.071111
v 0.395634 6.396115 0.442356
v -0.261617 6.396115 -0.428683
v -0.875192 5.913095 1.401271
v -1.532444 5.913096 0.530232
v -1.269959 6.256966 0.947491
v 0.024584 6.739986 0.020007
v -0.625596 6.056785 1.212935
v -0.371871 6.157929 1.021485
v -0.118165 6.259269 0.830049
v 0.137250 6.342994 0.637323
v -0.520001 6.342994 -0.233716
v -0.775416 6.259269 -0.040991
v -1.029122 6.157929 0.150445
v -1.282847 6.056785 0.341896
v -1.015619 6.400656 0.765442
v -0.757151 6.501800 0.580277
v -0.498702 6.603139 0.395127
v -0.238544 6.686864 0.208687
v -0.277584 2.419688 0.185701
v 0.207682 2.419688 -0.209951
v -0.748072 1.822247 -0.391351
v -0.262806 1.822247 -0.787003
v -0.541743 1.996430 -0.683114
v -0.088766 2.593870 -0.091785
v -0.662259 1.965586 -0.286101
v -0.568960 2.087373 -0.171671
v -0.475696 2.209260 -0.057282
v -0.379332 2.322225 0.060907
v 0.105934 2.322225 -0.334745
v 0.009570 2.209260 -0.452934
v -0.083694 2.087373 -0.567322
v -0.176993 1.965586 -0.681754
v -0.459432 2.139768 -0.575009
v -0.369635 2.261556 -0.457723
v -0.279873 2.383443 -0.340479
v -0.187012 2.496408 -0.219434
v -0.200352 9.871598 -0.016333
v 0.118710 9.867138 0.147282
v -0.074569 9.406257 -0.274308
v 0.244493 9.401795 -0.110692
v 0.140550 9.479383 -0.259655
v 0.003254 9.944888 -0.007585
v -0.094293 9.509673 -0.233025
v -0.118926 9.603740 -0.182425
v -0.143536 9.697850 -0.131867
v -0.170179 9.788088 -0.077452
v 0.148884 9.783627 0.086163
v 0.175526 9.693388 0.031748
v 0.200136 9.599279 -0.018809
v 0.224769 9.505212 -0.069410
v 0.118524 9.582833 -0.219553
v 0.091589 9.676933 -0.170133
v 0.064676 9.771073 -0.120756
v 0.035731 9.861344 -0.067522
v 0.095164 10.015168 0.137650
v 0.022563 10.011653 -0.162703
v -0.160882 9.625284 0.204103
v -0.233483 9.621770 -0.096251
v -0.269465 9.691614 0.054746
v -0.010799 10.081624 -0.000869
v -0.119075 9.712607 0.192975
v -0.068772 9.791486 0.179893
v -0.018508 9.870402 0.166820
v 0.035272 9.945823 0.152938
v -0.037329 9.942309 -0.147415
v -0.091109 9.866888 -0.133533
v -0.141373 9.787971 -0.120460
v -0.191676 9.709093 -0.107378
v -0.227133 9.778963 0.045786
v -0.176306 9.857866 0.034872
v -0.125519 9.936809 0.023967
v -0.071214 10.012254 0.012252
vn 0.3004 0.8317 -0.4669
vn -0.0028 0.8351 0.5501
vn 0.2157 0.7937 0.5689
vn 0.1156 0.8144 0.5686
vn 0.1172 0.8183 0.5627
vn 0.0743 0.8269 0.5575
vn 0.0727 0.8516 -0.5192
vn 0.1518 0.8491 -0.5059
vn 0.1966 0.8465 -0.4948
vn 0.1963 0.8494 -0.4898
vn 0.3438 0.8058 -0.4822
vn 0.1070 0.8269 0.5521
vn 0.3216 0.7659 0.5567
vn 0.2240 0.7955 0.5630
vn 0.2256 0.7993 0.5570
vn 0.1834 0.8117 0.5545
vn 0.1160 0.8464 -0.5197
vn 0.1951 0.8368 -0.5116
vn 0.2401 0.8300 -0.5034
vn 0.2404 0.8330 -0.4983
vn -0.4603 0.7741 -0.4347
vn 0.5586 0.8173 -0.1411
vn 0.5756 0.7393 -0.3495
vn 0.5762 0.7767 -0.2544
vn 0.5703 0.7804 -0.2566
vn 0.5654 0.7961 -0.2158
vn -0.5109 0.8327 -0.2134
vn -0.4982 0.8168 -0.2910
vn -0.4874 0.8065 -0.3347
vn -0.4823 0.8094 -0.3350
vn -0.4677 0.8361 -0.2865
vn 0.5493 0.8355 0.0167
vn 0.5681 0.7977 -0.2024
vn 0.5678 0.8168 -0.1020
vn 0.5619 0.8207 -0.1036
vn 0.5567 0.8285 -0.0606
vn -0.5200 0.8522 -0.0586
vn -0.5068 0.8510 -0.1377
vn -0.4956 0.8491 -0.1825
vn -0.4906 0.8521 -0.1822
vn -0.4600 0.7822 -0.4203
vn 0.5572 0.8216 -0.1203
vn 0.5755 0.7482 -0.3302
vn 0.5755 0.7835 -0.2343
vn 0.5696 0.7872 -0.2365
vn 0.5645 0.8020 -0.1953
vn -0.5119 0.8359 -0.1981
vn -0.4988 0.8217 -0.2759
vn -0.4877 0.8123 -0.3198
vn -0.4826 0.8153 -0.3200
vn -0.1469 0.8435 -0.5166
vn 0.3579 0.8355 0.4168
vn 0.5269 0.8044 0.2745
vn 0.4553 0.8205 0.3457
vn 0.4522 0.8244 0.3405
vn 0.4179 0.8309 0.3673
vn -0.3453 0.8526 -0.3921
vn -0.2801 0.8539 -0.4387
vn -0.2404 0.8534 -0.4626
vn -0.2372 0.8563 -0.4587
vn -0.0725 0.8094 -0.5828
vn 0.4329 0.8307 0.3501
vn 0.5979 0.7732 0.2113
vn 0.5283 0.8013 0.2807
vn 0.5255 0.8051 0.2752
vn 0.4920 0.8168 0.3013
vn -0.2689 0.8461 -0.4602
vn -0.2040 0.8378 -0.5065
vn -0.1646 0.8318 -0.5301
vn -0.1611 0.8348 -0.5265
vn 0.2919 0.8345 -0.4674
vn -0.0113 0.8354 0.5496
vn 0.2076 0.7962 0.5684
vn 0.1072 0.8159 0.5681
vn 0.1089 0.8198 0.5622
vn 0.0659 0.8279 0.5570
vn 0.0641 0.8520 -0.5197
vn 0.1431 0.8503 -0.5065
vn 0.1880 0.8481 -0.4953
vn 0.1876 0.8511 -0.4903
vn 0.5123 0.8345 0.2030
vn -0.5427 0.8354 0.0878
vn -0.5218 0.7962 0.3064
vn -0.5396 0.8159 0.2077
vn -0.5334 0.8198 0.2082
vn -0.5360 0.8279 0.1650
vn 0.5227 0.8520 -0.0305
vn 0.5239 0.8503 0.0497
vn 0.5211 0.8481 0.0958
vn 0.5161 0.8511 0.0964
vn 0.1088 0.8198 0.5622
vn 0.4190 0.7828 -0.4600
vn 0.1189 0.8219 0.5571
vn 0.3290 0.7488 0.5754
vn 0.2330 0.7840 0.5754
vn 0.2352 0.7876 0.5695
vn 0.1940 0.8024 0.5644
vn 0.1967 0.8362 -0.5120
vn 0.2745 0.8221 -0.4988
vn 0.3185 0.8128 -0.4878
vn 0.3186 0.8158 -0.4827
vn -0.0657 0.7568 -0.6503
vn 0.5436 0.8108 0.2169
vn 0.6857 0.7247 0.0679
vn 0.6274 0.7658 0.1411
vn 0.6243 0.7694 0.1355
vn 0.5952 0.7867 0.1637
vn -0.2426 0.8241 -0.5119
vn -0.1844 0.8051 -0.5637
vn -0.1487 0.7931 -0.5906
vn -0.1446 0.7960 -0.5877
vn 0.4118 0.7864 -0.4605
vn 0.1113 0.8232 0.5567
vn 0.3220 0.7521 0.5750
vn 0.2257 0.7864 0.5750
vn 0.2279 0.7901 0.5691
vn 0.1866 0.8044 0.5640
vn 0.1890 0.8377 -0.5124
vn 0.2670 0.8243 -0.4993
vn 0.3110 0.8155 -0.4882
vn 0.3111 0.8184 -0.4832
vn -0.4611 0.7845 -0.4146
vn 0.5567 0.8225 -0.1165
vn 0.5745 0.7504 -0.3269
vn 0.5747 0.7851 -0.2307
vn 0.5688 0.7888 -0.2329
vn 0.5638 0.8034 -0.1916
vn -0.5126 0.8369 -0.1920
vn -0.4996 0.8231 -0.2699
vn -0.4886 0.8141 -0.3139
vn -0.4836 0.8170 -0.3140
vn -0.4155 0.7845 0.4602
vn -0.1153 0.8225 -0.5569
vn -0.3257 0.7504 -0.5752
vn -0.2295 0.7851 -0.5752
vn -0.2317 0.7888 -0.5693
vn -0.1905 0.8034 -0.5642
vn -0.1930 0.8369 0.5122
vn -0.2709 0.8231 0.4991
vn -0.3149 0.8141 0.4880
vn -0.3150 0.8170 0.4829
vn -0.5528 0.8333 -0.0091
vn 0.4734 0.8353 -0.2798
vn 0.3755 0.7951 -0.4763
vn 0.4275 0.8153 -0.3906
vn 0.4216 0.8192 -0.3889
vn 0.4395 0.8275 -0.3495
vn -0.4788 0.8518 0.2126
vn -0.5087 0.8498 0.1382
vn -0.5225 0.8474 0.0942
vn -0.5181 0.8504 0.0918
vn -0.2956 0.8333 0.4672
vn 0.0076 0.8353 -0.5498
vn -0.2110 0.7951 -0.5686
vn -0.1108 0.8153 -0.5683
vn -0.1124 0.8192 -0.5624
vn -0.0695 0.8275 -0.5572
vn -0.0678 0.8518 0.5195
vn -0.1469 0.8498 0.5062
vn -0.1917 0.8474 0.4951
vn -0.1914 0.8504 0.4901
vn -0.5759 0.8136 0.0803
vn 0.3572 0.8318 -0.4249
vn 0.2180 0.7771 -0.5904
vn 0.2876 0.8039 -0.5206
vn 0.2821 0.8077 -0.5177
vn 0.3083 0.8189 -0.4841
vn -0.4529 0.8474 0.2771
vn -0.4993 0.8401 0.2120
vn -0.5229 0.8347 0.1727
vn -0.5193 0.8377 0.1692
vn -0.5176 0.8431 0.1457
vn 0.4158 0.8356 -0.3591
vn 0.2735 0.8040 -0.5280
vn 0.3447 0.8203 -0.4565
vn 0.3394 0.8242 -0.4533
vn 0.3663 0.8308 -0.4190
vn -0.3932 0.8526 0.3442
vn -0.4398 0.8537 0.2789
vn -0.4636 0.8531 0.2393
vn -0.4598 0.8561 0.2360
vn 0.1332 0.7378 -0.6618
vn 0.4983 0.8006 0.3327
vn 0.6709 0.7057 0.2278
vn 0.5971 0.7508 0.2824
vn 0.5957 0.7542 0.2761
vn 0.5610 0.7733 0.2954
vn -0.0709 0.8146 -0.5757
vn -0.0020 0.7923 -0.6101
vn 0.0390 0.7784 -0.6266
vn 0.0423 0.7813 -0.6228
vn 0.4588 0.7717 0.4404
vn -0.5585 0.8174 0.1415
vn -0.5766 0.7385 0.3494
vn -0.5767 0.7763 0.2544
vn -0.5708 0.7799 0.2567
vn -0.5657 0.7958 0.2160
vn 0.5107 0.8312 0.2197
vn 0.4975 0.8150 0.2971
vn 0.4865 0.8045 0.3407
vn 0.4814 0.8074 0.3410
vn -0.5584 0.8174 0.1415
vn 0.4595 0.7785 0.4275
vn -0.5577 0.8202 0.1278
vn -0.5759 0.7448 0.3371
vn -0.5759 0.7810 0.2415
vn -0.5700 0.7847 0.2437
vn -0.5649 0.7999 0.2027
vn 0.5115 0.8343 0.2058
vn 0.4983 0.8193 0.2835
vn 0.4872 0.8096 0.3273
vn 0.4822 0.8125 0.3275
vn 0.4671 0.8329 0.2969
vn -0.5499 0.8352 -0.0063
vn -0.5687 0.7947 0.2124
vn -0.5684 0.8151 0.1122
vn -0.5625 0.8189 0.1138
vn -0.5573 0.8273 0.0709
vn 0.5194 0.8517 0.0692
vn 0.5062 0.8496 0.1483
vn 0.4950 0.8472 0.1931
vn 0.4900 0.8501 0.1928
vn -0.0013 0.7611 0.6486
vn -0.5102 0.8128 -0.2813
vn -0.6685 0.7287 -0.1484
vn -0.6021 0.7689 -0.2150
vn -0.5997 0.7725 -0.2091
vn -0.5675 0.7894 -0.2341
vn 0.1903 0.8262 0.5302
vn 0.1266 0.8080 0.5754
vn 0.0881 0.7964 0.5983
vn 0.0843 0.7994 0.5949
vn -0.5350 0.7331 0.4198
vn -0.0078 0.8713 -0.4908
vn -0.2058 0.7994 -0.5644
vn -0.1134 0.8348 -0.5387
vn -0.1170 0.8379 -0.5331
vn -0.0786 0.8523 -0.5172
vn -0.3324 0.7821 0.5271
vn -0.4047 0.7690 0.4948
vn -0.4446 0.7607 0.4730
vn -0.4436 0.7641 0.4683
vn 0.0819 0.8144 0.5745
vn -0.4233 0.8320 -0.3586
vn -0.5889 0.7779 -0.2193
vn -0.5190 0.8044 -0.2890
vn -0.5162 0.8082 -0.2835
vn -0.4826 0.8193 -0.3097
vn 0.2787 0.8476 0.4515
vn 0.2136 0.8405 0.4978
vn 0.1743 0.8353 0.5215
vn 0.1708 0.8382 0.5179
vn 0.0698 0.8079 0.5852
vn -0.4356 0.8303 -0.3476
vn -0.6005 0.7719 -0.2090
vn -0.5309 0.8004 -0.2784
vn -0.5281 0.8041 -0.2728
vn -0.4947 0.8160 -0.2989
vn 0.2661 0.8456 0.4627
vn 0.2012 0.8370 0.5089
vn 0.1619 0.8308 0.5325
vn 0.1584 0.8338 0.5289
vn 0.2887 0.5980 0.7477
vn -0.6457 0.7182 0.2592
vn -0.6990 0.5765 0.4231
vn -0.6830 0.6428 0.3469
vn -0.6780 0.6456 0.3515
vn -0.6661 0.6738 0.3198
vn 0.3792 0.7261 0.5735
vn 0.3520 0.6857 0.6372
vn 0.3332 0.6615 0.6718
vn 0.3279 0.6641 0.6718
vn 0.5536 0.8166 0.1634
vn -0.5056 0.8325 0.2264
vn -0.4493 0.7799 0.4358
vn -0.4830 0.8058 0.3428
vn -0.4768 0.8096 0.3425
vn -0.4864 0.8203 0.3009
vn 0.5253 0.8483 -0.0672
vn 0.5398 0.8417 0.0114
vn 0.5446 0.8367 0.0571
vn 0.5399 0.8397 0.0587
vn 0.6181 0.7800 0.0977
vn -0.3942 0.8207 0.4135
vn -0.2930 0.7462 0.5978
vn -0.3462 0.7820 0.5183
vn -0.3400 0.7857 0.5168
vn -0.3586 0.8007 0.4798
vn 0.5380 0.8349 -0.1157
vn 0.5703 0.8203 -0.0438
vn 0.5855 0.8107 -0.0011
vn 0.5814 0.8136 0.0018
vn 0.4157 0.8124 -0.4089
vn -0.0284 0.8315 0.5548
vn 0.1821 0.7760 0.6038
vn 0.0845 0.8032 0.5897
vn 0.0872 0.8070 0.5841
vn 0.0462 0.8183 0.5729
vn 0.1995 0.8471 -0.4926
vn 0.2755 0.8395 -0.4684
vn 0.3180 0.8339 -0.4510
vn 0.3172 0.8369 -0.4461
vn -0.6277 0.7669 -0.1338
vn 0.3911 0.8153 -0.4269
vn 0.2955 0.7340 -0.6114
vn 0.3462 0.7730 -0.5317
vn 0.3400 0.7765 -0.5305
vn 0.3574 0.7929 -0.4935
vn -0.5536 0.8290 0.0797
vn -0.5839 0.8118 0.0075
vn -0.5978 0.8008 -0.0352
vn -0.5937 0.8038 -0.0381
vn 0.6418 0.7669 -0.0063
vn -0.2885 0.8153 0.5020
vn -0.1550 0.7340 0.6612
vn -0.2219 0.7730 0.5944
vn -0.2160 0.7765 0.5919
vn -0.2411 0.7929 0.5596
vn 0.5228 0.8290 -0.1986
vn 0.5682 0.8118 -0.1347
vn 0.5911 0.8008 -0.0961
vn 0.5877 0.8038 -0.0923
vn 0.4691 0.8036 -0.3663
vn -0.0544 0.8290 0.5565
vn 0.1497 0.7680 0.6228
vn 0.0544 0.7977 0.6006
vn 0.0577 0.8014 0.5953
vn 0.0180 0.8139 0.5808
vn 0.2617 0.8442 -0.4678
vn 0.3352 0.8346 -0.4372
vn 0.3759 0.8278 -0.4164
vn 0.3748 0.8308 -0.4115
vn -0.5528 0.8117 0.1884
vn 0.2637 0.8313 -0.4893
vn 0.0951 0.7754 -0.6243
vn 0.1769 0.8028 -0.5694
vn 0.1720 0.8066 -0.5656
vn 0.2042 0.8180 -0.5378
vn -0.3940 0.8468 0.3572
vn -0.4521 0.8391 0.3025
vn -0.4830 0.8334 0.2685
vn -0.4801 0.8364 0.2644
vn -0.6546 0.7477 0.1115
vn 0.1568 0.8065 -0.5700
vn -0.0023 0.7163 -0.6978
vn 0.0749 0.7593 -0.6465
vn 0.0696 0.7627 -0.6429
vn 0.0999 0.7809 -0.6166
vn -0.5028 0.8195 0.2750
vn -0.5591 0.7989 0.2217
vn -0.5887 0.7860 0.1886
vn -0.5862 0.7889 0.1842
vn -0.4091 0.8234 0.3932
vn 0.0865 0.8339 -0.5451
vn -0.1229 0.7861 -0.6058
vn -0.0254 0.8098 -0.5862
vn -0.0283 0.8136 -0.5807
vn 0.0125 0.8234 -0.5673
vn -0.1967 0.8500 0.4888
vn -0.2715 0.8452 0.4604
vn -0.3132 0.8412 0.4408
vn -0.3120 0.8442 0.4359
vn -0.2031 0.8319 0.5165
vn -0.1042 0.8351 -0.5401
vn -0.3221 0.7938 -0.5159
vn -0.2239 0.8145 -0.5352
vn -0.2243 0.8184 -0.5291
vn -0.1812 0.8269 -0.5323
vn 0.0303 0.8516 0.5233
vn -0.0498 0.8492 0.5258
vn -0.0959 0.8465 0.5236
vn -0.0966 0.8495 0.5186
vn 0.1351 0.8390 0.5271
vn -0.3696 0.8356 -0.4064
vn -0.5381 0.8003 -0.2645
vn -0.4668 0.8183 -0.3355
vn -0.4637 0.8222 -0.3302
vn -0.4295 0.8295 -0.3570
vn 0.3334 0.8524 0.4028
vn 0.2681 0.8522 0.4493
vn 0.2285 0.8508 0.4732
vn 0.2253 0.8538 0.4694
vn -0.0011 0.7613 0.6484
vn -0.5099 0.8129 -0.2815
vn -0.6683 0.7289 -0.1486
vn -0.6019 0.7690 -0.2152
vn -0.5994 0.7726 -0.2093
vn -0.5673 0.7895 -0.2343
vn 0.1905 0.8263 0.5300
vn 0.1268 0.8081 0.5752
vn 0.0883 0.7966 0.5981
vn 0.0845 0.7995 0.5947
vn 0.7197 0.5286 -0.4501
vn 0.4695 0.6734 0.5710
vn 0.6260 0.5150 0.5855
vn 0.5553 0.5888 0.5873
vn 0.5589 0.5913 0.5814
vn 0.5284 0.6227 0.5771
vn 0.5435 0.6754 -0.4985
vn 0.6072 0.6282 -0.4865
vn 0.6426 0.6004 -0.4761
vn 0.6440 0.6028 -0.4710
vn 0.5396 0.7090 -0.4540
vn 0.2537 0.7850 0.5652
vn 0.4491 0.6784 0.5815
vn 0.3601 0.7288 0.5824
vn 0.3629 0.7321 0.5765
vn 0.3246 0.7534 0.5718
vn 0.3288 0.7986 -0.5042
vn 0.4033 0.7718 -0.4916
vn 0.4452 0.7554 -0.4809
vn 0.4458 0.7582 -0.4758
vn -0.6807 0.7317 -0.0354
vn 0.2435 0.7969 -0.5528
vn 0.1136 0.6993 -0.7057
vn 0.1787 0.7456 -0.6419
vn 0.1727 0.7491 -0.6396
vn 0.1971 0.7687 -0.6086
vn -0.5643 0.8115 0.1518
vn -0.6090 0.7881 0.0895
vn -0.6315 0.7736 0.0518
vn -0.6283 0.7765 0.0478
vn -0.1325 0.6220 0.7717
vn -0.6704 0.7293 -0.1368
vn -0.8046 0.5935 -0.0213
vn -0.7496 0.6570 -0.0795
vn -0.7477 0.6600 -0.0732
vn -0.7204 0.6870 -0.0946
vn 0.0385 0.7438 0.6673
vn -0.0189 0.7056 0.7084
vn -0.0535 0.6827 0.7287
vn -0.0579 0.6854 0.7259
vn 0.4592 0.7652 0.4512
vn -0.5596 0.8135 0.1583
vn -0.5765 0.7310 0.3650
vn -0.5772 0.7705 0.2706
vn -0.5713 0.7740 0.2730
vn -0.5664 0.7907 0.2325
vn 0.5098 0.8286 0.2313
vn 0.4971 0.8110 0.3085
vn 0.4863 0.7997 0.3520
vn 0.4813 0.8026 0.3523
vn -0.2890 0.7339 0.6147
vn -0.4154 0.7978 -0.4370
vn -0.6067 0.7010 -0.3749
vn -0.5227 0.7469 -0.4109
vn -0.5228 0.7503 -0.4045
vn -0.4848 0.7698 -0.4152
vn -0.0713 0.8128 0.5782
vn -0.1461 0.7897 0.5958
vn -0.1896 0.7754 0.6023
vn -0.1920 0.7783 0.5979
vn -0.0046 0.7931 0.6091
vn -0.4337 0.8256 -0.3609
vn -0.6071 0.7582 -0.2377
vn -0.5332 0.7908 -0.3004
vn -0.5310 0.7945 -0.2946
vn -0.4960 0.8082 -0.3175
vn 0.1996 0.8403 0.5040
vn 0.1315 0.8284 0.5446
vn 0.0906 0.8203 0.5647
vn 0.0873 0.8233 0.5609
vn -0.7787 0.5980 -0.1899
vn 0.1559 0.7182 -0.6781
vn 0.0518 0.5765 -0.8154
vn 0.1052 0.6428 -0.7588
vn 0.0986 0.6456 -0.7573
vn 0.1178 0.6738 -0.7295
vn -0.6874 0.7261 -0.0162
vn -0.7241 0.6857 -0.0748
vn -0.7418 0.6615 -0.1101
vn -0.7388 0.6641 -0.1144
vn -0.0600 0.3549 -0.9330
vn 0.7882 0.5265 -0.3187
vn 0.8438 0.3352 -0.4191
vn 0.8265 0.4236 -0.3707
vn 0.8229 0.4253 -0.3768
vn 0.8107 0.4632 -0.3580
vn -0.1558 0.5407 -0.8267
vn -0.1254 0.4794 -0.8686
vn -0.1054 0.4436 -0.8900
vn -0.0999 0.4455 -0.8897
vn -0.6523 0.3890 0.6506
vn -0.7326 0.5546 -0.3946
vn -0.8530 0.3684 -0.3696
vn -0.8014 0.4545 -0.3888
vn -0.8036 0.4564 -0.3821
vn -0.7798 0.4933 -0.3854
vn -0.5015 0.5685 0.6522
vn -0.5556 0.5095 0.6570
vn -0.5864 0.4750 0.6561
vn -0.5896 0.4770 0.6517
vt 0.000000 0.800000
vt 0.542651 0.800000
vt 0.549868 1.000000
vt 0.000000 1.000000
vt 0.521000 0.200000
vt 0.513783 0.000000
vt 1.000000 0.000000
vt 1.000000 0.200000
vt 1.000000 0.800000
vt 1.000000 1.000000
vt 0.535434 0.600000
vt 1.000000 0.600000
vt 0.528217 0.400000
vt 1.000000 0.400000
vt 0.000000 0.000000
vt 0.000000 0.200000
vt 0.000000 0.400000
vt 0.000000 0.600000
s 1
usemtl pine_branch_3
f 91/96/86 99/97/86 89/98/86 87/99/86
f 102/100/87 90/101/87 86/102/87 95/103/87
f 89/98/88 99/97/88 98/104/88 88/105/88
f 99/97/89 100/106/89 97/107/89 98/104/89
f 100/106/90 101/108/90 96/109/90 97/107/90
f 101/108/91 102/100/91 95/103/91 96/109/91
f 85/110/92 90/101/92 102/100/92 94/111/92
f 94/111/93 102/100/93 101/108/93 93/112/93
f 93/112/94 101/108/94 100/106/94 92/113/94
f 92/113/95 100/106/95 99/97/95 91/96/95
f 109/96/96 117/97/96 107/98/96 105/99/96
f 120/100/97 108/101/97 104/102/97 113/103/97
f 107/98/98 117/97/98 116/104/98 106/105/98
f 117/97/99 118/106/99 115/107/99 116/104/99
f 118/106/100 119/108/100 114/109/100 115/107/100
f 119/108/101 120/100/101 113/103/101 114/109/101
f 103/110/102 108/101/102 120/100/102 112/111/102
f 112/111/103 120/100/103 119/108/103 111/112/103
f 111/112/104 119/108/104 118/106/104 110/113/104
f 110/113/105 118/106/105 117/97/105 109/96/105
f 127/96/106 135/97/106 125/98/106 123/99/106
f 138/100/107 126/101/107 122/102/107 131/103/107
f 125/98/108 135/97/108 134/104/108 124/105/108
f 135/97/109 136/106/109 133/107/109 134/104/109
f 136/106/110 137/108/110 132/109/110 133/107/110
f 137/108/111 138/100/111 131/103/111 132/109/111
f 121/110/112 126/101/112 138/100/112 130/111/112
f 130/111/113 138/100/113 137/108/113 129/112/113
f 129/112/114 137/108/114 136/106/114 128/113/114
f 128/113/115 136/106/115 135/97/115 127/96/115
f 145/96/116 153/97/116 143/98/116 141/99/116
f 156/100/117 144/101/117 140/102/117 149/103/117
f 143/98/118 153/97/118 152/104/118 142/105/118
f 153/97/119 154/106/119 151/107/119 152/104/119
f 154/106/120 155/108/120 150/109/120 151/107/120
f 155/108/121 156/100/121 149/103/121 150/109/121
f 139/110/122 144/101/122 156/100/122 148/111/122
f 148/111/123 156/100/123 155/108/123 147/112/123
f 147/112/124 155/108/124 154/106/124 146/113/124
f 146/113/125 154/106/125 153/97/125 145/96/125
f 163/96/116 171/97/116 161/98/116 159/99/116
f 174/100/117 162/101/117 158/102/117 167/103/117
f 161/98/118 171/97/118 170/104/118 160/105/118
f 171/97/119 172/106/119 169/107/119 170/104/119
f 172/106/120 173/108/120 168/109/120 169/107/120
f 173/108/121 174/100/121 167/103/121 168/109/121
f 157/110/122 162/101/122 174/100/122 166/111/122
f 166/111/123 174/100/123 173/108/123 165/112/123
f 165/112/124 173/108/124 172/106/124 164/113/124
f 164/113/125 172/106/125 171/97/125 163/96/125
f 181/96/126 189/97/126 179/98/126 177/99/126
f 192/100/127 180/101/127 176/102/127 185/103/127
f 179/98/128 189/97/128 188/104/128 178/105/128
f 189/97/129 190/106/129 187/107/129 188/104/129
f 190/106/130 191/108/130 186/109/130 187/107/130
f 191/108/131 192/100/131 185/103/131 186/109/131
f 175/110/132 180/101/132 192/100/132 184/111/132
f 184/111/133 192/100/133 191/108/133 183/112/133
f 183/112/134 191/108/134 190/106/134 182/113/134
f 182/113/135 190/106/135 189/97/135 181/96/135
f 199/96/136 207/97/136 197/98/136 195/99/136
f 210/100/137 198/101/137 194/102/137 203/103/137
f 197/98/138 207/97/138 206/104/138 196/105/138
f 207/97/139 208/106/139 205/107/139 206/104/139
f 208/106/140 209/108/140 204/109/140 205/107/140
f 209/108/141 210/100/141 203/103/141 204/109/141
f 193/110/142 198/101/142 210/100/142 202/111/142
f 202/111/143 210/100/143 209/108/143 201/112/143
f 201/112/144 209/108/144 208/106/144 200/113/144
f 200/113/145 208/106/145 207/97/145 199/96/145
f 217/96/146 225/97/146 215/98/146 213/99/146
f 228/100/147 216/101/147 212/102/147 221/103/147
f 215/98/148 225/97/148 224/104/148 214/105/148
f 225/97/149 226/106/149 223/107/149 224/104/149
f 226/106/150 227/108/150 222/109/150 223/107/150
f 227/108/151 228/100/151 221/103/151 222/109/151
f 211/110/152 216/101/152 228/100/152 220/111/152
f 220/111/153 228/100/153 227/108/153 219/112/153
f 219/112/154 227/108/154 226/106/154 218/113/154
f 218/113/155 226/106/155 225/97/155 217/96/155
f 235/96/156 243/97/156 233/98/156 231/99/156
f 246/100/157 234/101/157 230/102/157 239/103/157
f 233/98/158 243/97/158 242/104/158 232/105/158
f 243/97/159 244/106/159 241/107/159 242/104/159
f 244/106/160 245/108/160 240/109/160 241/107/160
f 245/108/161 246/100/161 239/103/161 240/109/161
f 229/110/162 234/101/162 246/100/162 238/111/162
f 238/111/163 246/100/163 245/108/163 237/112/163
f 237/112/164 245/108/164 244/106/164 236/113/164
f 236/113/165 244/106/165 243/97/165 235/96/165
f 253/96/166 261/97/166 251/98/166 249/99/166
f 264/100/167 252/101/167 248/102/167 257/103/167
f 251/98/168 261/97/168 260/104/168 250/105/168
f 261/97/169 262/106/169 259/107/169 260/104/169
f 262/106/170 263/108/170 258/109/170 259/107/170
f 263/108/171 264/100/171 257/103/171 258/109/171
f 247/110/172 252/101/172 264/100/172 256/111/172
f 256/111/173 264/100/173 263/108/173 255/112/173
f 255/112/174 263/108/174 262/106/174 254/113/174
f 254/113/175 262/106/175 261/97/175 253/96/175
f 271/96/156 279/97/156 269/98/156 267/99/156
f 282/100/157 270/101/157 266/102/157 275/103/157
f 269/98/158 279/97/158 278/104/158 268/105/158
f 279/97/159 280/106/159 277/107/159 278/104/159
f 280/106/176 281/108/176 276/109/176 277/107/176
f 281/108/161 282/100/161 275/103/161 276/109/161
f 265/110/162 270/101/162 282/100/162 274/111/162
f 274/111/163 282/100/163 281/108/163 273/112/163
f 273/112/164 281/108/164 280/106/164 272/113/164
f 272/113/165 280/106/165 279/97/165 271/96/165
f 289/96/177 297/97/177 287/98/177 285/99/177
f 300/100/178 288/101/178 284/102/178 293/103/178
f 287/98/179 297/97/179 296/104/179 286/105/179
f 297/97/180 298/106/180 295/107/180 296/104/180
f 298/106/181 299/108/181 294/109/181 295/107/181
f 299/108/182 300/100/182 293/103/182 294/109/182
f 283/110/183 288/101/183 300/100/183 292/111/183
f 292/111/184 300/100/184 299/108/184 291/112/184
f 291/112/185 299/108/185 298/106/185 290/113/185
f 290/113/186 298/106/186 297/97/186 289/96/186
f 307/96/187 315/97/187 305/98/187 303/99/187
f 318/100/188 306/101/188 302/102/188 311/103/188
f 305/98/189 315/97/189 314/104/189 304/105/189
f 315/97/190 316/106/190 313/107/190 314/104/190
f 316/106/191 317/108/191 312/109/191 313/107/191
f 317/108/192 318/100/192 311/103/192 312/109/192
f 301/110/193 306/101/193 318/100/193 310/111/193
f 310/111/194 318/100/194 317/108/194 309/112/194
f 309/112/195 317/108/195 316/106/195 308/113/195
f 308/113/196 316/106/196 315/97/196 307/96/196
f 325/96/197 333/97/197 323/98/197 321/99/197
f 336/100/198 324/101/198 320/102/198 329/103/198
f 323/98/199 333/97/199 332/104/199 322/105/199
f 333/97/200 334/106/200 331/107/200 332/104/200
f 334/106/201 335/108/201 330/109/201 331/107/201
f 335/108/202 336/100/202 329/103/202 330/109/202
f 319/110/203 324/101/203 336/100/203 328/111/203
f 328/111/204 336/100/204 335/108/204 327/112/204
f 327/112/205 335/108/205 334/106/205 326/113/205
f 326/113/206 334/106/206 333/97/206 325/96/206
f 343/96/207 351/97/207 341/98/207 339/99/207
f 354/100/208 342/101/208 338/102/208 347/103/208
f 341/98/209 351/97/209 350/104/209 340/105/209
f 351/97/210 352/106/210 349/107/210 350/104/210
f 352/106/211 353/108/211 348/109/211 349/107/211
f 353/108/212 354/100/212 347/103/212 348/109/212
f 337/110/213 342/101/213 354/100/213 346/111/213
f 346/111/214 354/100/214 353/108/214 345/112/214
f 345/112/215 353/108/215 352/106/215 344/113/215
f 344/113/216 352/106/216 351/97/216 343/96/216
f 361/96/217 369/97/217 359/98/217 357/99/217
f 372/100/218 360/101/218 356/102/218 365/103/218
f 359/98/219 369/97/219 368/104/219 358/105/219
f 369/97/220 370/106/220 367/107/220 368/104/220
f 370/106/221 371/108/221 366/109/221 367/107/221
f 371/108/222 372/100/222 365/103/222 366/109/222
f 355/110/223 360/101/223 372/100/223 364/111/223
f 364/111/224 372/100/224 371/108/224 363/112/224
f 363/112/225 371/108/225 370/106/225 362/113/225
f 362/113/226 370/106/226 369/97/226 361/96/226
f 379/96/217 387/97/217 377/98/217 375/99/217
f 390/100/218 378/101/218 374/102/218 383/103/218
f 377/98/219 387/97/219 386/104/219 376/105/219
f 387/97/220 388/106/220 385/107/220 386/104/220
f 388/106/221 389/108/221 384/109/221 385/107/221
f 389/108/222 390/100/222 383/103/222 384/109/222
f 373/110/223 378/101/223 390/100/223 382/111/223
f 382/111/224 390/100/224 389/108/224 381/112/224
f 381/112/225 389/108/225 388/106/225 380/113/225
f 380/113/226 388/106/226 387/97/226 379/96/226
f 397/96/227 405/97/227 395/98/227 393/99/227
f 408/100/228 396/101/228 392/102/228 401/103/228
f 395/98/229 405/97/229 404/104/229 394/105/229
f 405/97/230 406/106/230 403/107/230 404/104/230
f 406/106/231 407/108/231 402/109/231 403/107/231
f 407/108/232 408/100/232 401/103/232 402/109/232
f 391/110/233 396/101/233 408/100/233 400/111/233
f 400/111/234 408/100/234 407/108/234 399/112/234
f 399/112/235 407/108/235 406/106/235 398/113/235
f 398/113/236 406/106/236 405/97/236 397/96/236
f 415/96/237 423/97/237 413/98/237 411/99/237
f 426/100/238 414/101/238 410/102/238 419/103/238
f 413/98/239 423/97/239 422/104/239 412/105/239
f 423/97/240 424/106/240 421/107/240 422/104/240
f 424/106/241 425/108/241 420/109/241 421/107/241
f 425/108/242 426/100/242 419/103/242 420/109/242
f 409/110/243 414/101/243 426/100/243 418/111/243
f 418/111/244 426/100/244 425/108/244 417/112/244
f 417/112/245 425/108/245 424/106/245 416/113/245
f 416/113/246 424/106/246 423/97/246 415/96/246
f 433/96/237 441/97/237 431/98/237 429/99/237
f 444/100/238 432/101/238 428/102/238 437/103/238
f 431/98/239 441/97/239 440/104/239 430/105/239
f 441/97/240 442/106/240 439/107/240 440/104/240
f 442/106/241 443/108/241 438/109/241 439/107/241
f 443/108/242 444/100/242 437/103/242 438/109/242
f 427/110/243 432/101/243 444/100/243 436/111/243
f 436/111/244 444/100/244 443/108/244 435/112/244
f 435/112/245 443/108/245 442/106/245 434/113/245
f 434/113/246 442/106/246 441/97/246 433/96/246
f 451/96/247 459/97/247 449/98/247 447/99/247
f 462/100/248 450/101/248 446/102/248 455/103/248
f 449/98/249 459/97/249 458/104/249 448/105/249
f 459/97/250 460/106/250 457/107/250 458/104/250
f 460/106/251 461/108/251 456/109/251 457/107/251
f 461/108/252 462/100/252 455/103/252 456/109/252
f 445/110/253 450/101/253 462/100/253 454/111/253
f 454/111/254 462/100/254 461/108/254 453/112/254
f 453/112/255 461/108/255 460/106/255 452/113/255
f 452/113/256 460/106/256 459/97/256 451/96/256
f 469/96/257 477/97/257 467/98/257 465/99/257
f 480/100/258 468/101/258 464/102/258 473/103/258
f 467/98/259 477/97/259 476/104/259 466/105/259
f 477/97/260 478/106/260 475/107/260 476/104/260
f 478/106/261 479/108/261 474/109/261 475/107/261
f 479/108/262 480/100/262 473/103/262 474/109/262
f 463/110/263 468/101/263 480/100/263 472/111/263
f 472/111/264 480/100/264 479/108/264 471/112/264
f 471/112/265 479/108/265 478/106/265 470/113/265
f 470/113/266 478/106/266 477/97/266 469/96/266
f 487/96/267 495/97/267 485/98/267 483/99/267
f 498/100/268 486/101/268 482/102/268 491/103/268
f 485/98/269 495/97/269 494/104/269 484/105/269
f 495/97/270 496/106/270 493/107/270 494/104/270
f 496/106/271 497/108/271 492/109/271 493/107/271
f 497/108/272 498/100/272 491/103/272 492/109/272
f 481/110/273 486/101/273 498/100/273 490/111/273
f 490/111/274 498/100/274 497/108/274 489/112/274
f 489/112/275 497/108/275 496/106/275 488/113/275
f 488/113/276 496/106/276 495/97/276 487/96/276
f 505/96/277 513/97/277 503/98/277 501/99/277
f 516/100/278 504/101/278 500/102/278 509/103/278
f 503/98/279 513/97/279 512/104/279 502/105/279
f 513/97/280 514/106/280 511/107/280 512/104/280
f 514/106/281 515/108/281 510/109/281 511/107/281
f 515/108/282 516/100/282 509/103/282 510/109/282
f 499/110/283 504/101/283 516/100/283 508/111/283
f 508/111/284 516/100/284 515/108/284 507/112/284
f 507/112/285 515/108/285 514/106/285 506/113/285
f 506/113/286 514/106/286 513/97/286 505/96/286
f 523/96/277 531/97/277 521/98/277 519/99/277
f 534/100/287 522/101/287 518/102/287 527/103/287
f 521/98/279 531/97/279 530/104/279 520/105/279
f 531/97/280 532/106/280 529/107/280 530/104/280
f 532/106/281 533/108/281 528/109/281 529/107/281
f 533/108/282 534/100/282 527/103/282 528/109/282
f 517/110/283 522/101/283 534/100/283 526/111/283
f 526/111/284 534/100/284 533/108/284 525/112/284
f 525/112/285 533/108/285 532/106/285 524/113/285
f 524/113/286 532/106/286 531/97/286 523/96/286
f 541/96/288 549/97/288 539/98/288 537/99/288
f 552/100/289 540/101/289 536/102/289 545/103/289
f 539/98/290 549/97/290 548/104/290 538/105/290
f 549/97/291 550/106/291 547/107/291 548/104/291
f 550/106/292 551/108/292 546/109/292 547/107/292
f 551/108/293 552/100/293 545/103/293 546/109/293
f 535/110/294 540/101/294 552/100/294 544/111/294
f 544/111/295 552/100/295 551/108/295 543/112/295
f 543/112/296 551/108/296 550/106/296 542/113/296
f 542/113/297 550/106/297 549/97/297 541/96/297
f 559/96/298 567/97/298 557/98/298 555/99/298
f 570/100/299 558/101/299 554/102/299 563/103/299
f 557/98/300 567/97/300 566/104/300 556/105/300
f 567/97/301 568/106/301 565/107/301 566/104/301
f 568/106/302 569/108/302 564/109/302 565/107/302
f 569/108/303 570/100/303 563/103/303 564/109/303
f 553/110/304 558/101/304 570/100/304 562/111/304
f 562/111/305 570/100/305 569/108/305 561/112/305
f 561/112/306 569/108/306 568/106/306 560/113/306
f 560/113/307 568/106/307 567/97/307 559/96/307
f 577/96/308 585/97/308 575/98/308 573/99/308
f 588/100/309 576/101/309 572/102/309 581/103/309
f 575/98/310 585/97/310 584/104/310 574/105/310
f 585/97/311 586/106/311 583/107/311 584/104/311
f 586/106/312 587/108/312 582/109/312 583/107/312
f 587/108/313 588/100/313 581/103/313 582/109/313
f 571/110/314 576/101/314 588/100/314 580/111/314
f 580/111/315 588/100/315 587/108/315 579/112/315
f 579/112/316 587/108/316 586/106/316 578/113/316
f 578/113/317 586/106/317 585/97/317 577/96/317
f 595/96/318 603/97/318 593/98/318 591/99/318
f 606/100/319 594/101/319 590/102/319 599/103/319
f 593/98/320 603/97/320 602/104/320 592/105/320
f 603/97/321 604/106/321 601/107/321 602/104/321
f 604/106/322 605/108/322 600/109/322 601/107/322
f 605/108/323 606/100/323 599/103/323 600/109/323
f 589/110/324 594/101/324 606/100/324 598/111/324
f 598/111/325 606/100/325 605/108/325 597/112/325
f 597/112/326 605/108/326 604/106/326 596/113/326
f 596/113/327 604/106/327 603/97/327 595/96/327
f 613/96/308 621/97/308 611/98/308 609/99/308
f 624/100/309 612/101/309 608/102/309 617/103/309
f 611/98/310 621/97/310 620/104/310 610/105/310
f 621/97/311 622/106/311 619/107/311 620/104/311
f 622/106/312 623/108/312 618/109/312 619/107/312
f 623/108/313 624/100/313 617/103/313 618/109/313
f 607/110/314 612/101/314 624/100/314 616/111/314
f 616/111/315 624/100/315 623/108/315 615/112/315
f 615/112/316 623/108/316 622/106/316 614/113/316
f 614/113/317 622/106/317 621/97/317 613/96/317
f 631/96/328 639/97/328 629/98/328 627/99/328
f 642/100/329 630/101/329 626/102/329 635/103/329
f 629/98/330 639/97/330 638/104/330 628/105/330
f 639/97/331 640/106/331 637/107/331 638/104/331
f 640/106/332 641/108/332 636/109/332 637/107/332
f 641/108/333 642/100/333 635/103/333 636/109/333
f 625/110/334 630/101/334 642/100/334 634/111/334
f 634/111/335 642/100/335 641/108/335 633/112/335
f 633/112/336 641/108/336 640/106/336 632/113/336
f 632/113/337 640/106/337 639/97/337 631/96/337
f 649/96/338 657/97/338 647/98/338 645/99/338
f 660/100/339 648/101/339 644/102/339 653/103/339
f 647/98/340 657/97/340 656/104/340 646/105/340
f 657/97/341 658/106/341 655/107/341 656/104/341
f 658/106/342 659/108/342 654/109/342 655/107/342
f 659/108/343 660/100/343 653/103/343 654/109/343
f 643/110/344 648/101/344 660/100/344 652/111/344
f 652/111/345 660/100/345 659/108/345 651/112/345
f 651/112/346 659/108/346 658/106/346 650/113/346
f 650/113/347 658/106/347 657/97/347 649/96/347
f 667/96/348 675/97/348 665/98/348 663/99/348
f 678/100/349 666/101/349 662/102/349 671/103/349
f 665/98/350 675/97/350 674/104/350 664/105/350
f 675/97/351 676/106/351 673/107/351 674/104/351
f 676/106/352 677/108/352 672/109/352 673/107/352
f 677/108/353 678/100/353 671/103/353 672/109/353
f 661/110/354 666/101/354 678/100/354 670/111/354
f 670/111/355 678/100/355 677/108/355 669/112/355
f 669/112/356 677/108/356 676/106/356 668/113/356
f 668/113/357 676/106/357 675/97/357 667/96/357
f 685/96/358 693/97/358 683/98/358 681/99/358
f 696/100/359 684/101/359 680/102/359 689/103/359
f 683/98/360 693/97/360 692/104/360 682/105/360
f 693/97/361 694/106/361 691/107/361 692/104/361
f 694/106/362 695/108/362 690/109/362 691/107/362
f 695/108/363 696/100/363 689/103/363 690/109/363
f 679/110/364 684/101/364 696/100/364 688/111/364
f 688/111/365 696/100/365 695/108/365 687/112/365
f 687/112/366 695/108/366 694/106/366 686/113/366
f 686/113/367 694/106/367 693/97/367 685/96/367
f 703/96/368 711/97/368 701/98/368 699/99/368
f 714/100/369 702/101/369 698/102/369 707/103/369
f 701/98/370 711/97/370 710/104/370 700/105/370
f 711/97/371 712/106/371 709/107/371 710/104/371
f 712/106/372 713/108/372 708/109/372 709/107/372
f 713/108/373 714/100/373 707/103/373 708/109/373
f 697/110/374 702/101/374 714/100/374 706/111/374
f 706/111/375 714/100/375 713/108/375 705/112/375
f 705/112/376 713/108/376 712/106/376 704/113/376
f 704/113/377 712/106/377 711/97/377 703/96/377
f 721/96/378 729/97/378 719/98/378 717/99/378
f 732/100/379 720/101/379 716/102/379 725/103/379
f 719/98/380 729/97/380 728/104/380 718/105/380
f 729/97/381 730/106/381 727/107/381 728/104/381
f 730/106/382 731/108/382 726/109/382 727/107/382
f 731/108/383 732/100/383 725/103/383 726/109/383
f 715/110/384 720/101/384 732/100/384 724/111/384
f 724/111/385 732/100/385 731/108/385 723/112/385
f 723/112/386 731/108/386 730/106/386 722/113/386
f 722/113/387 730/106/387 729/97/387 721/96/387
f 739/96/388 747/97/388 737/98/388 735/99/388
f 750/100/389 738/101/389 734/102/389 743/103/389
f 737/98/390 747/97/390 746/104/390 736/105/390
f 747/97/391 748/106/391 745/107/391 746/104/391
f 748/106/392 749/108/392 744/109/392 745/107/392
f 749/108/393 750/100/393 743/103/393 744/109/393
f 733/110/394 738/101/394 750/100/394 742/111/394
f 742/111/395 750/100/395 749/108/395 741/112/395
f 741/112/396 749/108/396 748/106/396 740/113/396
f 740/113/397 748/106/397 747/97/397 739/96/397
f 757/96/398 765/97/398 755/98/398 753/99/398
f 768/100/399 756/101/399 752/102/399 761/103/399
f 755/98/400 765/97/400 764/104/400 754/105/400
f 765/97/401 766/106/401 763/107/401 764/104/401
f 766/106/402 767/108/402 762/109/402 763/107/402
f 767/108/403 768/100/403 761/103/403 762/109/403
f 751/110/404 756/101/404 768/100/404 760/111/404
f 760/111/405 768/100/405 767/108/405 759/112/405
f 759/112/406 767/108/406 766/106/406 758/113/406
f 758/113/407 766/106/407 765/97/407 757/96/407
f 775/96/408 783/97/408 773/98/408 771/99/408
f 786/100/409 774/101/409 770/102/409 779/103/409
f 773/98/410 783/97/410 782/104/410 772/105/410
f 783/97/411 784/106/411 781/107/411 782/104/411
f 784/106/412 785/108/412 780/109/412 781/107/412
f 785/108/413 786/100/413 779/103/413 780/109/413
f 769/110/414 774/101/414 786/100/414 778/111/414
f 778/111/415 786/100/415 785/108/415 777/112/415
f 777/112/416 785/108/416 784/106/416 776/113/416
f 776/113/417 784/106/417 783/97/417 775/96/417
f 793/96/418 801/97/418 791/98/418 789/99/418
f 804/100/419 792/101/419 788/102/419 797/103/419
f 791/98/420 801/97/420 800/104/420 790/105/420
f 801/97/421 802/106/421 799/107/421 800/104/421
f 802/106/422 803/108/422 798/109/422 799/107/422
f 803/108/423 804/100/423 797/103/423 798/109/423
f 787/110/424 792/101/424 804/100/424 796/111/424
f 796/111/425 804/100/425 803/108/425 795/112/425
f 795/112/426 803/108/426 802/106/426 794/113/426
f 794/113/427 802/106/427 801/97/427 793/96/427
f 811/96/428 819/97/428 809/98/428 807/99/428
f 822/100/429 810/101/429 806/102/429 815/103/429
f 809/98/430 819/97/430 818/104/430 808/105/430
f 819/97/431 820/106/431 817/107/431 818/104/431
f 820/106/432 821/108/432 816/109/432 817/107/432
f 821/108/433 822/100/433 815/103/433 816/109/433
f 805/110/434 810/101/434 822/100/434 814/111/434
f 814/111/435 822/100/435 821/108/435 813/112/435
f 813/112/436 821/108/436 820/106/436 812/113/436
f 812/113/437 820/106/437 819/97/437 811/96/437
f 829/96/438 837/97/438 827/98/438 825/99/438
f 840/100/439 828/101/439 824/102/439 833/103/439
f 827/98/440 837/97/440 836/104/440 826/105/440
f 837/97/441 838/106/441 835/107/441 836/104/441
f 838/106/442 839/108/442 834/109/442 835/107/442
f 839/108/443 840/100/443 833/103/443 834/109/443
f 823/110/444 828/101/444 840/100/444 832/111/444
f 832/111/445 840/100/445 839/108/445 831/112/445
f 831/112/446 839/108/446 838/106/446 830/113/446
f 830/113/447 838/106/447 837/97/447 829/96/447
f 847/96/448 855/97/448 845/98/448 843/99/448
f 858/100/449 846/101/449 842/102/449 851/103/449
f 845/98/450 855/97/450 854/104/450 844/105/450
f 855/97/451 856/106/451 853/107/451 854/104/451
f 856/106/452 857/108/452 852/109/452 853/107/452
f 857/108/453 858/100/453 851/103/453 852/109/453
f 841/110/454 846/101/454 858/100/454 850/111/454
f 850/111/455 858/100/455 857/108/455 849/112/455
f 849/112/456 857/108/456 856/106/456 848/113/456
f 848/113/457 856/106/457 855/97/457 847/96/457
f 865/96/458 873/97/458 863/98/458 861/99/458
f 876/100/459 864/101/459 860/102/459 869/103/459
f 863/98/460 873/97/460 872/104/460 862/105/460
f 873/97/461 874/106/461 871/107/461 872/104/461
f 874/106/462 875/108/462 870/109/462 871/107/462
f 875/108/463 876/100/463 869/103/463 870/109/463
f 859/110/464 864/101/464 876/100/464 868/111/464
f 868/111/465 876/100/465 875/108/465 867/112/465
f 867/112/466 875/108/466 874/106/466 866/113/466
f 866/113/467 874/106/467 873/97/467 865/96/467
f 883/96/468 891/97/468 881/98/468 879/99/468
f 894/100/469 882/101/469 878/102/469 887/103/469
f 881/98/470 891/97/470 890/104/470 880/105/470
f 891/97/471 892/106/471 889/107/471 890/104/471
f 892/106/472 893/108/472 888/109/472 889/107/472
f 893/108/473 894/100/473 887/103/473 888/109/473
f 877/110/474 882/101/474 894/100/474 886/111/474
f 886/111/475 894/100/475 893/108/475 885/112/475
f 885/112/476 893/108/476 892/106/476 884/113/476
f 884/113/477 892/106/477 891/97/477 883/96/477
f 901/96/478 909/97/478 899/98/478 897/99/478
f 912/100/479 900/101/479 896/102/479 905/103/479
f 899/98/480 909/97/480 908/104/480 898/105/480
f 909/97/481 910/106/481 907/107/481 908/104/481
f 910/106/482 911/108/482 906/109/482 907/107/482
f 911/108/483 912/100/483 905/103/483 906/109/483
f 895/110/484 900/101/484 912/100/484 904/111/484
f 904/111/485 912/100/485 911/108/485 903/112/485
f 903/112/486 911/108/486 910/106/486 902/113/486
f 902/113/487 910/106/487 909/97/487 901/96/487
f 919/96/488 927/97/488 917/98/488 915/99/488
f 930/100/489 918/101/489 914/102/489 923/103/489
f 917/98/490 927/97/490 926/104/490 916/105/490
f 927/97/491 928/106/491 925/107/491 926/104/491
f 928/106/492 929/108/492 924/109/492 925/107/492
f 929/108/493 930/100/493 923/103/493 924/109/493
f 913/110/494 918/101/494 930/100/494 922/111/494
f 922/111/495 930/100/495 929/108/495 921/112/495
f 921/112/496 929/108/496 928/106/496 920/113/496
f 920/113/497 928/106/497 927/97/497 919/96/497
f 937/96/498 945/97/498 935/98/498 933/99/498
f 948/100/499 936/101/499 932/102/499 941/103/499
f 935/98/500 945/97/500 944/104/500 934/105/500
f 945/97/501 946/106/501 943/107/501 944/104/501
f 946/106/502 947/108/502 942/109/502 943/107/502
f 947/108/503 948/100/503 941/103/503 942/109/503
f 931/110/504 936/101/504 948/100/504 940/111/504
f 940/111/505 948/100/505 947/108/505 939/112/505
f 939/112/506 947/108/506 946/106/506 938/113/506
f 938/113/507 946/106/507 945/97/507 937/96/507
f 955/96/508 963/97/508 953/98/508 951/99/508
f 966/100/509 954/101/509 950/102/509 959/103/509
f 953/98/510 963/97/510 962/104/510 952/105/510
f 963/97/511 964/106/511 961/107/511 962/104/511
f 964/106/512 965/108/512 960/109/512 961/107/512
f 965/108/513 966/100/513 959/103/513 960/109/513
f 949/110/514 954/101/514 966/100/514 958/111/514
f 958/111/515 966/100/515 965/108/515 957/112/515
f 957/112/516 965/108/516 964/106/516 956/113/516
f 956/113/517 964/106/517 963/97/517 955/96/517
f 973/96/518 981/97/518 971/98/518 969/99/518
f 984/100/519 972/101/519 968/102/519 977/103/519
f 971/98/520 981/97/520 980/104/520 970/105/520
f 981/97/521 982/106/521 979/107/521 980/104/521
f 982/106/522 983/108/522 978/109/522 979/107/522
f 983/108/523 984/100/523 977/103/523 978/109/523
f 967/110/524 972/101/524 984/100/524 976/111/524
f 976/111/525 984/100/525 983/108/525 975/112/525
f 975/112/526 983/108/526 982/106/526 974/113/526
f 974/113/527 982/106/527 981/97/527 973/96/527
f 991/96/528 999/97/528 989/98/528 987/99/528
f 1002/100/529 990/101/529 986/102/529 995/103/529
f 989/98/530 999/97/530 998/104/530 988/105/530
f 999/97/531 1000/106/531 997/107/531 998/104/531
f 1000/106/532 1001/108/532 996/109/532 997/107/532
f 1001/108/533 1002/100/533 995/103/533 996/109/533
f 985/110/534 990/101/534 1002/100/534 994/111/534
f 994/111/535 1002/100/535 1001/108/535 993/112/535
f 993/112/536 1001/108/536 1000/106/536 992/113/536
f 992/113/537 1000/106/537 999/97/537 991/96/537
f 1009/96/538 1017/97/538 1007/98/538 1005/99/538
f 1020/100/539 1008/101/539 1004/102/539 1013/103/539
f 1007/98/540 1017/97/540 1016/104/540 1006/105/540
f 1017/97/541 1018/106/541 1015/107/541 1016/104/541
f 1018/106/542 1019/108/542 1014/109/542 1015/107/542
f 1019/108/543 1020/100/543 1013/103/543 1014/109/543
f 1003/110/544 1008/101/544 1020/100/544 1012/111/544
f 1012/111/545 1020/100/545 1019/108/545 1011/112/545
f 1011/112/546 1019/108/546 1018/106/546 1010/113/546
f 1010/113/547 1018/106/547 1017/97/547 1009/96/547
f 1027/96/548 1035/97/548 1025/98/548 1023/99/548
f 1038/100/549 1026/101/549 1022/102/549 1031/103/549
f 1025/98/550 1035/97/550 1034/104/550 1024/105/550
f 1035/97/551 1036/106/551 1033/107/551 1034/104/551
f 1036/106/552 1037/108/552 1032/109/552 1033/107/552
f 1037/108/553 1038/100/553 1031/103/553 1032/109/553
f 1021/110/554 1026/101/554 1038/100/554 1030/111/554
f 1030/111/555 1038/100/555 1037/108/555 1029/112/555
f 1029/112/556 1037/108/556 1036/106/556 1028/113/556
f 1028/113/557 1036/106/557 1035/97/557 1027/96/557
f 1045/96/558 1053/97/558 1043/98/558 1041/99/558
f 1056/100/559 1044/101/559 1040/102/559 1049/103/559
f 1043/98/560 1053/97/560 1052/104/560 1042/105/560
f 1053/97/561 1054/106/561 1051/107/561 1052/104/561
f 1054/106/562 1055/108/562 1050/109/562 1051/107/562
f 1055/108/563 1056/100/563 1049/103/563 1050/109/563
f 1039/110/564 1044/101/564 1056/100/564 1048/111/564
f 1048/111/565 1056/100/565 1055/108/565 1047/112/565
f 1047/112/566 1055/108/566 1054/106/566 1046/113/566
f 1046/113/567 1054/106/567 1053/97/567 1045/96/567
f 1063/96/568 1071/97/568 1061/98/568 1059/99/568
f 1074/100/569 1062/101/569 1058/102/569 1067/103/569
f 1061/98/570 1071/97/570 1070/104/570 1060/105/570
f 1071/97/571 1072/106/571 1069/107/571 1070/104/571
f 1072/106/572 1073/108/572 1068/109/572 1069/107/572
f 1073/108/573 1074/100/573 1067/103/573 1068/109/573
f 1057/110/574 1062/101/574 1074/100/574 1066/111/574
f 1066/111/575 1074/100/575 1073/108/575 1065/112/575
f 1065/112/576 1073/108/576 1072/106/576 1064/113/576
f 1064/113/577 1072/106/577 1071/97/577 1063/96/577
