# Blender 5.0.1
# www.blender.org
mtllib pine_tree_n_2_3.mtl
o pine_tree_n_2_3
v -0.017788 -0.000000 0.159003
v -0.070666 -0.000000 0.135037
v -0.113540 -0.000000 0.091813
v -0.142031 0.000000 0.039615
v -0.151801 -0.000000 -0.013610
v -0.147171 0.000000 -0.077704
v -0.109849 0.000000 -0.124001
v 0.041340 -0.000000 0.152657
v 0.146942 0.000000 0.010792
v 0.130178 0.000000 0.067848
v 0.097715 0.000000 0.116963
v -0.045517 0.000000 -0.145454
v 0.154638 0.000000 -0.049640
v 0.013610 0.000000 -0.151801
v 0.070666 0.000000 -0.135037
v 0.126147 0.000000 -0.101838
v -0.019784 1.638403 0.071810
v -0.009338 0.295757 0.104159
v -0.048487 0.295757 0.092656
v -0.080254 0.295757 0.067048
v -0.067047 0.295757 -0.080255
v -0.060734 1.638403 -0.059046
v -0.092656 0.295757 -0.048488
v -0.078905 1.638403 -0.036504
v -0.104158 0.295757 -0.009339
v -0.099803 0.295757 0.031232
v -0.083977 1.638403 0.020063
v 0.057661 1.638403 -0.024260
v 0.099805 0.295757 -0.031232
v 0.080256 0.295757 -0.067048
v 0.043789 1.638403 -0.049674
v 0.048489 0.295757 -0.092657
v 0.009340 0.295757 -0.104159
v -0.006531 1.638403 -0.076007
v -0.031231 0.295757 -0.099804
v 0.031233 0.295757 0.099804
v 0.067049 0.295757 0.080255
v 0.092657 0.295757 0.048488
v 0.104160 0.295757 0.009339
v 0.060751 1.638403 0.004528
v -0.011170 0.106639 0.124589
v -0.057998 0.106639 0.110830
v -0.095996 0.106639 0.080199
v 0.119380 0.106639 -0.037358
v 0.037358 0.106639 0.119380
v -0.080198 0.106639 -0.095997
v -0.110830 0.106639 -0.057998
v -0.124588 0.106639 -0.011171
v -0.119379 0.106639 0.037358
v 0.095997 0.106639 -0.080199
v 0.057999 0.106639 -0.110831
v 0.011171 0.106639 -0.124589
v -0.037357 0.106639 -0.119380
v 0.080199 0.106639 0.095996
v 0.110831 0.106639 0.057998
v 0.124589 0.106639 0.011170
v -0.000755 5.734412 0.008500
v -0.008495 5.734412 -0.000765
v 0.008509 5.734412 0.000760
v 0.000770 5.734412 -0.008504
v -0.016264 4.915210 0.020129
v -0.025491 2.457605 0.069418
v -0.047561 1.638403 0.063648
v -0.034358 4.915210 0.010660
v -0.071401 2.457605 0.045392
v -0.070102 1.638403 0.045476
v -0.062851 2.457605 -0.049971
v -0.030989 4.915210 -0.026925
v -0.087064 1.638403 -0.008726
v -0.086877 2.457605 -0.004060
v -0.040458 4.915210 -0.008831
v 0.032512 2.457605 -0.041421
v 0.006596 4.915210 -0.023555
v 0.021251 1.638403 -0.067846
v -0.013399 2.457605 -0.065446
v -0.011499 4.915210 -0.033024
v -0.035317 1.638403 -0.072918
v 0.009006 1.638403 0.068720
v 0.034421 1.638403 0.054848
v 0.023962 2.457605 0.053942
v 0.003226 4.915210 0.014029
v 0.052592 1.638403 0.032307
v 0.047987 2.457605 0.008032
v 0.012695 4.915210 -0.004065
vn -0.2681 0.1914 -0.9442
vn -0.2408 0.2696 -0.9324
vn -0.5730 0.3338 -0.7485
vn -0.6018 0.2238 -0.7667
vn -0.8572 0.3375 -0.3891
vn -0.8770 0.2265 -0.4237
vn -0.9642 0.2651 -0.0107
vn -0.9809 0.1888 -0.0471
vn -0.9282 0.2128 0.3053
vn -0.9381 0.1612 0.3066
vn 0.9430 0.2082 -0.2595
vn 0.9246 0.3036 -0.2302
vn 0.7080 0.3115 -0.6338
vn 0.7356 0.2127 -0.6432
vn 0.4137 0.2647 -0.8711
vn 0.4374 0.1888 -0.8792
vn 0.0865 0.2482 -0.9648
vn 0.0878 0.1800 -0.9797
vn 0.3054 0.1997 0.9310
vn 0.2960 0.2872 0.9110
vn 0.6530 0.2451 0.7166
vn 0.6481 0.1783 0.7404
vn 0.8774 0.2107 0.4311
vn 0.8805 0.1606 0.4461
vn 0.9619 0.2308 0.1468
vn 0.9778 0.1705 0.1216
vn 0.9958 0.0206 0.0889
vn 0.9929 0.0791 0.0890
vn 0.9514 0.0791 -0.2977
vn 0.9540 0.0207 -0.2991
vn 0.8860 0.0190 0.4634
vn 0.8832 0.0791 0.4622
vn 0.6411 0.0159 0.7673
vn 0.6391 0.0791 0.7650
vn 0.2984 0.0120 0.9544
vn 0.2977 0.0792 0.9514
vn 0.0889 0.0125 -0.9960
vn 0.0890 0.0791 -0.9929
vn -0.2977 0.0791 -0.9514
vn -0.2988 0.0084 -0.9543
vn 0.4631 0.0163 -0.8861
vn 0.4622 0.0791 -0.8832
vn 0.7669 0.0192 -0.6414
vn 0.7650 0.0791 -0.6391
vn -0.9960 -0.0003 -0.0897
vn -0.9929 0.0791 -0.0890
vn -0.9513 0.0791 0.2979
vn -0.9545 -0.0003 0.2981
vn -0.8859 0.0015 -0.4639
vn -0.8832 0.0791 -0.4622
vn -0.6411 0.0044 -0.7674
vn -0.6391 0.0791 -0.7650
vn -0.7670 0.1585 0.6218
vn -0.7650 0.0791 0.6391
vn -0.4866 0.1813 0.8546
vn -0.4622 0.0791 0.8832
vn -0.7678 0.0011 0.6407
vn -0.1041 0.2052 0.9732
vn -0.0890 0.0791 0.9929
vn -0.4641 0.0040 0.8858
vn -0.0897 0.0078 0.9959
vn -0.1235 0.2961 0.9471
vn -0.5048 0.2510 0.8259
vn -0.7708 0.2063 0.6027
vn -0.0000 1.0000 -0.0000
vn -0.0895 0.0260 0.9957
vn -0.0895 -0.0015 0.9960
vn 0.6425 0.0082 0.7662
vn 0.6431 0.0114 0.7657
vn 0.9956 0.0178 0.0921
vn -0.0812 0.0289 0.9963
vn -0.6395 0.0243 -0.7684
vn -0.9957 0.0101 -0.0922
vn -0.9951 0.0329 -0.0931
vn -0.6390 0.0214 -0.7689
vn 0.7656 0.0330 -0.6425
vn 0.9960 0.0225 0.0865
vn 0.0890 0.0337 -0.9955
vn -0.7688 0.0349 0.6385
vn 0.0891 0.0071 -0.9960
vn 0.7656 -0.0017 -0.6433
vn 0.9963 -0.0001 0.0855
vn -0.9949 0.0529 -0.0863
vn -0.7689 -0.0006 0.6394
vn 0.0973 0.0415 -0.9944
vt 0.293163 4.954233
vt 0.335707 5.102386
vt 0.256239 5.121584
vt 0.223221 4.968729
vt 0.175693 5.135822
vt 0.151320 4.980035
vt 0.094539 5.145764
vt 0.078096 4.988136
vt 0.013009 5.151849
vt 0.004029 4.993052
vt -0.584866 4.929314
vt -0.628081 5.079594
vt -0.705487 5.055523
vt -0.654285 4.908113
vt -0.781809 5.026679
vt -0.721407 4.883933
vt -0.856398 4.991970
vt -0.785538 4.857168
vt 0.360203 4.936266
vt 0.413236 5.077391
vt -0.294208 4.983969
vt -0.312405 5.141077
vt -0.392384 5.130301
vt -0.368125 4.974604
vt -0.471659 5.116520
vt -0.441375 4.962482
vt -0.550155 5.099669
vt -0.513767 4.947629
vt -0.241421 2.600050
vt -0.454062 4.662862
vt -0.515127 4.650397
vt -0.287054 2.595921
vt -0.195598 2.604594
vt -0.391993 4.673619
vt -0.150025 2.608824
vt -0.329131 4.682603
vt -0.104669 2.614618
vt -0.265684 4.689755
vt 0.291596 2.637558
vt 0.296685 4.672284
vt 0.237514 4.681082
vt 0.247348 2.636929
vt -0.377666 2.588654
vt -0.633482 4.620934
vt -0.690571 4.604454
vt -0.422271 2.585449
vt -0.332488 2.592063
vt -0.574999 4.636364
vt 0.115928 2.632380
vt 0.053039 4.697609
vt -0.010181 4.699712
vt 0.072286 2.630153
vt 0.159513 2.634044
vt 0.115548 4.693747
vt 0.203420 2.635470
vt 0.177114 4.688206
vt -0.070491 4.994807
vt -0.073886 4.700003
vt -0.145156 4.994168
vt -0.137853 4.698458
vt 0.028491 2.627731
vt -0.219813 4.990525
vt -0.201855 4.695044
vt -0.015437 2.624221
vt -0.059929 2.619581
vt -0.231749 5.148830
vt -0.150513 5.153232
vt -0.068815 5.154324
vt 1.104587 -4.154323
vt 1.123525 -4.154323
vt 1.123525 -4.135385
vt 1.104587 -4.135385
vt 0.262872 -2.691121
vt 0.021697 1.325903
vt -0.059621 1.320553
vt 0.227556 -2.693887
vt 0.348980 -4.153643
vt 0.369727 -4.151359
vt 0.267777 1.360989
vt 0.186338 1.351366
vt 0.332625 -2.685394
vt 0.367538 -2.682805
vt -0.218992 1.312943
vt -0.139579 1.316848
vt -0.298631 1.307354
vt 0.297854 -2.689647
vt 0.120471 -2.705412
vt 0.155733 -2.700286
vt 0.191549 -2.695756
vt 0.391185 -4.148102
vt 0.104144 1.337590
vt 0.402582 -2.679829
vt 0.413236 -4.148011
vt 0.349201 1.364312
vt 0.327761 -4.154325
s 1
usemtl pine_bark_1
f 53/1/1 12/2/2 7/3/3 46/4/4
f 46/4/4 7/3/3 6/5/5 47/6/6
f 47/6/6 6/5/5 5/7/7 48/8/8
f 48/8/8 5/7/7 4/9/9 49/10/10
f 44/11/11 13/12/12 16/13/13 50/14/14
f 50/14/14 16/13/13 15/15/15 51/16/16
f 51/16/16 15/15/15 14/17/17 52/18/18
f 52/19/18 14/20/17 12/2/2 53/1/1
f 45/21/19 8/22/20 11/23/21 54/24/22
f 54/24/22 11/23/21 10/25/23 55/26/24
f 55/26/24 10/25/23 9/27/25 56/28/26
f 56/28/26 9/27/25 13/12/12 44/11/11
f 40/29/27 39/30/28 29/31/29 28/32/30
f 82/33/31 38/34/32 39/30/28 40/29/27
f 79/35/33 37/36/34 38/34/32 82/33/31
f 78/37/35 36/38/36 37/36/34 79/35/33
f 34/39/37 33/40/38 35/41/39 77/42/40
f 74/43/41 32/44/42 33/45/38 34/46/37
f 31/47/43 30/48/44 32/44/42 74/43/41
f 28/32/30 29/31/29 30/48/44 31/47/43
f 69/49/45 25/50/46 26/51/47 27/52/48
f 24/53/49 23/54/50 25/50/46 69/49/45
f 22/55/51 21/56/52 23/54/50 24/53/49
f 43/57/53 20/58/54 26/51/47 49/10/10
f 77/42/40 35/41/39 21/56/52 22/55/51
f 42/59/55 19/60/56 20/58/54 43/57/53
f 20/58/54 66/61/57 27/52/48 26/51/47
f 41/62/58 18/63/59 19/60/56 42/59/55
f 19/60/56 63/64/60 66/61/57 20/58/54
f 45/21/19 36/38/36 18/63/59 41/62/58
f 18/63/59 17/65/61 63/64/60 19/60/56
f 8/22/20 45/21/19 41/62/58 1/66/62
f 1/66/62 41/62/58 42/59/55 2/67/63
f 2/67/63 42/59/55 43/57/53 3/68/64
f 3/68/64 43/57/53 49/10/10 4/9/9
f 39/30/28 56/28/26 44/11/11 29/31/29
f 38/34/32 55/26/24 56/28/26 39/30/28
f 37/36/34 54/24/22 55/26/24 38/34/32
f 36/38/36 45/21/19 54/24/22 37/36/34
f 33/40/38 52/19/18 53/1/1 35/41/39
f 32/44/42 51/16/16 52/18/18 33/45/38
f 30/48/44 50/14/14 51/16/16 32/44/42
f 29/31/29 44/11/11 50/14/14 30/48/44
f 25/50/46 48/8/8 49/10/10 26/51/47
f 23/54/50 47/6/6 48/8/8 25/50/46
f 21/56/52 46/4/4 47/6/6 23/54/50
f 35/41/39 53/1/1 46/4/4 21/56/52
f 60/69/65 58/70/65 57/71/65 59/72/65
f 36/38/36 78/37/35 17/65/61 18/63/59
f 61/73/66 62/74/67 80/75/68 81/76/69
f 59/77/70 57/78/71 81/76/69
f 67/79/72 70/80/73 71/81/74 68/82/75
f 28/32/30 72/83/76 83/84/77
f 72/83/76 74/43/41 75/85/78
f 57/78/71 64/86/79 61/73/66
f 72/83/76 75/85/78 76/87/80 73/88/81
f 80/75/68 83/84/77 84/89/82 81/76/69
f 62/74/67 78/37/35 80/75/68
f 80/75/68 82/33/31 83/84/77
f 64/86/79 57/78/71 58/90/83
f 65/91/84 64/86/79 71/81/74 70/80/73
f 76/92/80 68/82/75 60/93/85
f 77/42/40 67/79/72 75/94/78
f 83/84/77 72/83/76 73/88/81 84/89/82
f 84/89/82 73/88/81 59/77/70
f 64/86/79 65/91/84 62/74/67 61/73/66
f 27/52/48 65/91/84 70/80/73
f 75/94/78 67/79/72 68/82/75 76/92/80
f 66/61/57 65/91/84 27/52/48
f 63/64/60 65/91/84 66/61/57
f 65/91/84 63/64/60 62/74/67
f 17/65/61 62/74/67 63/64/60
f 78/37/35 62/74/67 17/65/61
f 80/75/68 78/37/35 79/35/33
f 82/33/31 80/75/68 79/35/33
f 83/84/77 82/33/31 40/29/27
f 28/32/30 83/84/77 40/29/27
f 72/83/76 28/32/30 31/47/43
f 74/43/41 72/83/76 31/47/43
f 75/85/78 74/43/41 34/46/37
f 77/42/40 75/94/78 34/39/37
f 67/79/72 77/42/40 22/55/51
f 70/80/73 24/53/49 69/49/45
f 24/53/49 67/79/72 22/55/51
f 27/52/48 70/80/73 69/49/45
f 67/79/72 24/53/49 70/80/73
f 59/77/70 73/88/81 60/95/85
f 59/77/70 81/76/69 84/89/82
f 57/78/71 61/73/66 81/76/69
f 60/95/85 73/88/81 76/87/80
f 58/90/83 68/82/75 71/81/74
f 64/86/79 58/90/83 71/81/74
f 60/93/85 68/82/75 58/90/83
o pine_tree_n_2_3_branches
v 0.248350 3.998243 -0.059032
v -0.236862 3.998243 0.092806
v 0.476333 3.863634 0.669507
v -0.008880 3.863635 0.821345
v 0.209575 4.025033 0.753140
v -0.000900 4.159640 0.019122
v 0.430742 3.912656 0.523819
v 0.385146 3.941709 0.378113
v 0.339550 3.970853 0.232407
v 0.293952 3.991730 0.086694
v -0.191260 3.991730 0.238532
v -0.145662 3.970853 0.384245
v -0.100066 3.941709 0.529951
v -0.054470 3.912656 0.675657
v 0.167486 4.074054 0.606356
v 0.125392 4.103106 0.459554
v 0.083297 4.132251 0.312752
v 0.041201 4.153128 0.165943
v 0.189624 4.420816 -0.079324
v -0.204479 4.419097 0.072091
v 0.413095 4.252559 0.500413
v 0.018992 4.250840 0.651828
v 0.200244 4.385086 0.595217
v -0.009006 4.553406 0.010016
v 0.368928 4.304487 0.386046
v 0.324285 4.339900 0.270251
v 0.279644 4.375390 0.154463
v 0.234805 4.404042 0.038083
v -0.159298 4.402323 0.189499
v -0.114459 4.373670 0.305878
v -0.069818 4.338181 0.421667
v -0.025175 4.302767 0.537462
v 0.158922 4.437026 0.479758
v 0.117123 4.472452 0.362870
v 0.075326 4.507954 0.245989
v 0.033331 4.536619 0.128516
v -0.081761 4.609978 -0.212056
v 0.046439 4.609397 0.189923
v 0.494931 4.392471 -0.396290
v 0.623132 4.391891 0.005689
v 0.587232 4.524134 -0.182019
v 0.005914 4.741662 -0.012290
v 0.382579 4.454045 -0.360370
v 0.267528 4.499289 -0.323612
v 0.152490 4.544607 -0.286859
v 0.036335 4.583165 -0.249758
v 0.164535 4.582585 0.152221
v 0.280691 4.544027 0.115121
v 0.395729 4.498708 0.078367
v 0.510779 4.453465 0.041610
v 0.473955 4.585711 -0.149000
v 0.357979 4.630960 -0.115143
v 0.242015 4.676283 -0.081291
v 0.124935 4.714845 -0.047091
v -0.058465 3.049330 -0.263890
v 0.098063 3.049331 0.236307
v 0.694674 2.923679 -0.499572
v 0.851203 2.923679 0.000626
v 0.778249 3.090041 -0.223749
v 0.019461 3.215693 -0.006116
v 0.543705 2.971589 -0.452329
v 0.393044 2.998916 -0.405182
v 0.242382 3.026337 -0.358035
v 0.091848 3.045237 -0.310928
v 0.248376 3.045237 0.189270
v 0.398910 3.026337 0.142162
v 0.549572 2.998916 0.095015
v 0.700233 2.971589 0.047869
v 0.626149 3.137951 -0.180115
v 0.474359 3.165278 -0.136579
v 0.322567 3.192699 -0.093041
v 0.170903 3.211599 -0.049544
v -0.059701 2.676955 -0.312181
v 0.119723 2.676955 0.261182
v 0.803602 2.532924 -0.582336
v 0.983026 2.532924 -0.008974
v 0.899401 2.723620 -0.266168
v 0.029624 2.867652 -0.016701
v 0.630550 2.587842 -0.528183
v 0.457852 2.619166 -0.474140
v 0.285152 2.650598 -0.420096
v 0.112598 2.672262 -0.366098
v 0.292022 2.672262 0.207264
v 0.464576 2.650598 0.153267
v 0.637276 2.619166 0.099223
v 0.809974 2.587842 0.045180
v 0.725054 2.778538 -0.216152
v 0.551061 2.809862 -0.166247
v 0.377066 2.841295 -0.116341
v 0.203217 2.862959 -0.066481
v -0.079034 2.131794 -0.287638
v 0.105748 2.131794 0.302846
v 0.774664 1.832282 -0.554788
v 0.959446 1.832282 0.035696
v 0.904186 2.026507 -0.238836
v 0.043820 2.326019 0.007007
v 0.607747 1.918779 -0.502554
v 0.437376 1.981246 -0.449239
v 0.267021 2.043823 -0.395930
v 0.095236 2.096451 -0.342172
v 0.280017 2.096451 0.248311
v 0.451803 2.043823 0.194554
v 0.622158 1.981246 0.141244
v 0.792529 1.918779 0.087930
v 0.735935 2.113004 -0.190864
v 0.564231 2.175471 -0.141810
v 0.392542 2.238048 -0.092762
v 0.219423 2.290676 -0.043266
v 0.117664 4.049479 -0.194973
v -0.096854 4.049479 0.214955
v 0.737551 3.959466 0.129418
v 0.523033 3.959466 0.539346
v 0.613655 4.106187 0.351716
v 0.001509 4.196200 0.012533
v 0.612760 3.997558 0.064115
v 0.488705 4.017498 -0.000805
v 0.364645 4.037521 -0.065726
v 0.240891 4.050028 -0.130488
v 0.026373 4.050028 0.279440
v 0.150127 4.037521 0.344202
v 0.274187 4.017498 0.409123
v 0.398242 3.997558 0.474042
v 0.490412 4.144279 0.283454
v 0.367904 4.164219 0.215576
v 0.245394 4.184242 0.147696
v 0.123187 4.196750 0.079976
v 0.109848 3.495608 -0.202552
v -0.111807 3.495608 0.221007
v 0.735825 3.316501 0.125031
v 0.514171 3.316501 0.548590
v 0.623974 3.467838 0.363181
v 0.005996 3.646944 0.020314
v 0.612003 3.373045 0.060233
v 0.486940 3.410864 -0.005214
v 0.361883 3.448770 -0.070658
v 0.236312 3.478923 -0.136371
v 0.014657 3.478923 0.287187
v 0.140228 3.448770 0.352900
v 0.265286 3.410864 0.418344
v 0.390349 3.373045 0.483792
v 0.501752 3.524381 0.295326
v 0.378289 3.562200 0.226822
v 0.254831 3.600106 0.158321
v 0.130860 3.630259 0.089551
v 0.246578 3.662023 -0.044956
v -0.246318 3.662023 0.109287
v 0.478578 3.533210 0.696415
v -0.014318 3.533210 0.850659
v 0.207096 3.697157 0.779775
v -0.007118 3.825970 0.032838
v 0.432116 3.581421 0.547942
v 0.385710 3.609349 0.399648
v 0.339304 3.637369 0.251354
v 0.292921 3.656991 0.103134
v -0.199976 3.656991 0.257378
v -0.153593 3.637369 0.405598
v -0.107186 3.609349 0.553892
v -0.060780 3.581421 0.702186
v 0.164191 3.745369 0.630189
v 0.121342 3.773296 0.480782
v 0.078492 3.801316 0.331375
v 0.035667 3.820938 0.182041
v 0.064638 3.271124 0.249623
v -0.168214 3.271124 -0.193100
v -0.601267 3.146362 0.599858
v -0.834118 3.146362 0.157135
v -0.727999 3.305153 0.355732
v -0.053692 3.429914 0.021473
v -0.467907 3.193057 0.529717
v -0.334709 3.220106 0.459661
v -0.201510 3.247245 0.389604
v -0.068378 3.266251 0.319583
v -0.301230 3.266251 -0.123140
v -0.434362 3.247245 -0.053118
v -0.567561 3.220106 0.016938
v -0.700759 3.193057 0.086994
v -0.592959 3.351848 0.288786
v -0.458080 3.378897 0.221925
v -0.323201 3.406036 0.155064
v -0.188388 3.425041 0.088238
v 0.237865 3.195391 -0.035195
v -0.232872 3.195391 0.112115
v 0.459435 3.072369 0.672847
v -0.011303 3.072369 0.820156
v 0.200157 3.228945 0.752459
v -0.004426 3.351968 0.039102
v 0.415061 3.118413 0.531048
v 0.370741 3.145085 0.389422
v 0.326422 3.171845 0.247794
v 0.282124 3.190585 0.106238
v -0.188613 3.190585 0.253547
v -0.144315 3.171845 0.395104
v -0.099996 3.145085 0.536731
v -0.055676 3.118413 0.678358
v 0.159181 3.274989 0.609598
v 0.118258 3.301661 0.466908
v 0.077336 3.328422 0.324217
v 0.036436 3.347162 0.181598
v 0.267784 2.837694 -0.068810
v -0.287221 2.837695 0.104871
v 0.519024 2.557574 0.734040
v -0.035981 2.557574 0.907721
v 0.221965 2.740175 0.855491
v -0.009248 3.020295 0.046374
v 0.469888 2.638601 0.577023
v 0.419747 2.697036 0.416796
v 0.369611 2.755575 0.256583
v 0.319059 2.804760 0.095042
v -0.235946 2.804760 0.268722
v -0.185394 2.755575 0.430264
v -0.135258 2.697036 0.590477
v -0.085117 2.638601 0.750704
v 0.176834 2.821202 0.697221
v 0.130699 2.879637 0.535740
v 0.084568 2.938176 0.374274
v 0.038022 2.987361 0.211479
v 0.064944 1.611669 -0.261178
v -0.151860 1.611669 0.296523
v 0.853337 1.269943 0.045307
v 0.636533 1.269943 0.603009
v 0.771088 1.455708 0.366338
v -0.009482 1.797435 0.039729
v 0.700720 1.363724 -0.014023
v 0.543530 1.434522 -0.075130
v 0.386360 1.505426 -0.136229
v 0.227297 1.566814 -0.198064
v 0.010493 1.566814 0.359637
v 0.169555 1.505426 0.421473
v 0.326725 1.434522 0.482572
v 0.483916 1.363724 0.543679
v 0.620035 1.549490 0.302984
v 0.464409 1.620288 0.237852
v 0.308804 1.691192 0.172728
v 0.151306 1.752580 0.106868
v 0.308003 1.897276 -0.061830
v -0.243312 1.897276 0.110695
v 0.558329 1.626749 0.738100
v 0.007014 1.626749 0.910626
v 0.262745 1.808377 0.857144
v 0.032313 2.078905 0.050988
v 0.509300 1.705724 0.581425
v 0.459335 1.762228 0.421758
v 0.409374 1.818835 0.262105
v 0.359025 1.866137 0.101213
v -0.192290 1.866137 0.273739
v -0.141941 1.818835 0.434630
v -0.091981 1.762228 0.594283
v -0.042015 1.705724 0.753950
v 0.217694 1.887353 0.699223
v 0.171708 1.943856 0.538311
v 0.125726 2.000463 0.377413
v 0.079356 2.047766 0.215276
v -0.107341 3.758364 -0.308521
v 0.074414 3.758364 0.268055
v 0.727931 3.471036 -0.571824
v 0.909686 3.471036 0.004751
v 0.854030 3.660981 -0.263030
v 0.012199 3.948309 -0.020532
v 0.564458 3.554510 -0.520293
v 0.397749 3.614484 -0.467741
v 0.231055 3.674565 -0.415194
v 0.063021 3.724917 -0.362224
v 0.244776 3.724917 0.214351
v 0.412810 3.674565 0.161382
v 0.579504 3.614484 0.108834
v 0.746213 3.554510 0.056283
v 0.689245 3.744456 -0.215659
v 0.521224 3.804429 -0.167269
v 0.353218 3.864510 -0.118882
v 0.183873 3.914862 -0.070074
v -0.266168 3.380499 0.106757
v 0.252462 3.380499 -0.055539
v -0.501283 3.122217 -0.644570
v 0.017347 3.122217 -0.806866
v -0.223468 3.292960 -0.757340
v -0.007068 3.551242 -0.000156
v -0.455268 3.197253 -0.497526
v -0.408342 3.251163 -0.347571
v -0.361421 3.305171 -0.197630
v -0.314122 3.350432 -0.046483
v 0.204508 3.350433 -0.208780
v 0.157209 3.305171 -0.359926
v 0.110287 3.251163 -0.509868
v 0.063362 3.197253 -0.659822
v -0.181196 3.367996 -0.609125
v -0.138013 3.421907 -0.457999
v -0.094835 3.475915 -0.306886
v -0.051279 3.521176 -0.154568
v -0.288951 3.769036 0.091084
v 0.246217 3.769036 -0.076388
v -0.531564 3.502518 -0.684202
v 0.003603 3.502518 -0.851673
v -0.244890 3.678706 -0.800568
v -0.021589 3.945225 -0.019239
v -0.484082 3.579947 -0.532469
v -0.435660 3.635576 -0.377732
v -0.387242 3.691306 -0.223009
v -0.338435 3.738011 -0.067043
v 0.196733 3.738011 -0.234515
v 0.147926 3.691307 -0.390481
v 0.099508 3.635576 -0.545204
v 0.051086 3.579947 -0.699941
v -0.201270 3.756135 -0.647627
v -0.156710 3.811765 -0.491681
v -0.112155 3.867495 -0.335750
v -0.067210 3.914200 -0.178575
v -0.227707 3.303044 -0.143056
v 0.144885 3.303044 0.183603
v 0.263262 3.176181 -0.703063
v 0.635855 3.176181 -0.376403
v 0.467632 3.333481 -0.522865
v -0.036783 3.460345 0.025354
v 0.164999 3.223092 -0.590982
v 0.066799 3.250542 -0.478973
v -0.031402 3.278081 -0.366964
v -0.129577 3.297562 -0.254984
v 0.243015 3.297562 0.071675
v 0.341190 3.278081 -0.040305
v 0.439391 3.250542 -0.152314
v 0.537591 3.223092 -0.264323
v 0.366679 3.380392 -0.413142
v 0.265790 3.407842 -0.303490
v 0.164900 3.435381 -0.193839
v 0.064036 3.454862 -0.084216
v -0.253530 2.516094 0.039520
v 0.247440 2.516094 -0.117250
v -0.489155 2.381700 -0.713437
v 0.011814 2.381700 -0.870207
v -0.213445 2.548337 -0.798862
v 0.004103 2.682731 -0.040248
v -0.441997 2.431396 -0.562739
v -0.394869 2.460474 -0.412138
v -0.347740 2.489648 -0.261535
v -0.300624 2.510286 -0.110973
v 0.200345 2.510286 -0.267743
v 0.153229 2.489648 -0.418306
v 0.106101 2.460475 -0.568908
v 0.058973 2.431396 -0.719509
v -0.169902 2.598033 -0.647033
v -0.126389 2.627112 -0.495300
v -0.082876 2.656286 -0.343566
v -0.039376 2.676924 -0.191872
v -0.264907 2.954267 0.081068
v 0.246891 2.954267 -0.079091
v -0.505626 2.816968 -0.688166
v 0.006173 2.816968 -0.848325
v -0.223956 2.987207 -0.775437
v -0.001705 3.124507 -0.000424
v -0.457448 2.867738 -0.534210
v -0.409301 2.897445 -0.380353
v -0.361154 2.927250 -0.226495
v -0.313020 2.948334 -0.072678
v 0.198779 2.948334 -0.232837
v 0.150645 2.927250 -0.386654
v 0.102498 2.897445 -0.540512
v 0.054351 2.867738 -0.694369
v -0.179472 3.037978 -0.620326
v -0.135018 3.067685 -0.465313
v -0.090565 3.097490 -0.310299
v -0.046124 3.118574 -0.155326
v -0.237465 4.045470 -0.142508
v 0.196507 4.045470 0.084591
v 0.099234 3.871303 -0.785917
v 0.533206 3.871303 -0.558818
v 0.342312 4.026495 -0.669548
v -0.010047 4.200663 -0.034334
v 0.032504 3.927387 -0.658400
v -0.034777 3.964269 -0.529831
v -0.102056 4.001239 -0.401266
v -0.169562 4.030261 -0.272266
v 0.264410 4.030261 -0.045166
v 0.331916 4.001239 -0.174166
v 0.399195 3.964269 -0.302731
v 0.466476 3.927387 -0.431301
v 0.272450 4.082579 -0.543670
v 0.202037 4.119462 -0.416740
v 0.131627 4.156432 -0.289814
v 0.060988 4.185454 -0.162452
v -0.242048 2.948746 -0.134889
v 0.260822 2.948746 0.128265
v 0.155797 2.836747 -0.895141
v 0.658667 2.836747 -0.631986
v 0.428649 3.016749 -0.743447
v 0.012659 3.128748 0.007308
v 0.075727 2.883794 -0.742133
v -0.003890 2.908570 -0.589990
v -0.083509 2.933449 -0.437844
v -0.162941 2.949107 -0.286056
v 0.339928 2.949107 -0.022901
v 0.419360 2.933449 -0.174689
v 0.498979 2.908571 -0.326836
v 0.578597 2.883794 -0.478978
v 0.344950 3.063796 -0.592338
v 0.261703 3.088573 -0.442095
v 0.178455 3.113451 -0.291848
v 0.095394 3.129109 -0.141958
v 0.091461 4.868842 -0.191904
v -0.161756 4.868260 0.152632
v 0.569785 4.598786 0.159185
v 0.316567 4.598204 0.503721
v 0.457874 4.729865 0.368939
v -0.011312 4.999941 0.005417
v 0.477862 4.670789 0.091747
v 0.382558 4.726535 0.021798
v 0.287269 4.782356 -0.048141
v 0.190581 4.831446 -0.119119
v -0.062636 4.830864 0.225417
v 0.034052 4.781774 0.296395
v 0.129340 4.725954 0.366334
v 0.224644 4.670208 0.436283
v 0.367778 4.801872 0.299015
v 0.274302 4.857622 0.226578
v 0.180841 4.913447 0.154154
v 0.085980 4.962542 0.080689
v 0.051570 4.421084 0.210719
v -0.080219 4.421084 -0.210420
v -0.551812 4.191011 0.399537
v -0.683600 4.191011 -0.021603
v -0.647606 4.328948 0.175266
v -0.039470 4.559020 0.001645
v -0.434330 4.255913 0.362773
v -0.313961 4.303748 0.325106
v -0.193606 4.351662 0.287443
v -0.072057 4.392511 0.249406
v -0.203845 4.392511 -0.171734
v -0.325395 4.351663 -0.133697
v -0.445750 4.303748 -0.096034
v -0.566118 4.255913 -0.058367
v -0.529173 4.393849 0.141542
v -0.407854 4.441685 0.106914
v -0.286548 4.489599 0.072290
v -0.164047 4.530447 0.037292
v 0.065969 4.118096 0.169971
v -0.054387 4.118097 -0.214634
v -0.485068 3.907983 0.342409
v -0.605424 3.907983 -0.042197
v -0.572552 4.033954 0.137594
v -0.017173 4.244067 -0.020965
v -0.377778 3.967255 0.308834
v -0.267852 4.010941 0.274435
v -0.157938 4.054698 0.240039
v -0.046933 4.092002 0.205302
v -0.167288 4.092003 -0.179303
v -0.278293 4.054698 -0.144566
v -0.388207 4.010941 -0.110171
v -0.498134 3.967255 -0.075771
v -0.464394 4.093225 0.106795
v -0.353599 4.136911 0.075171
v -0.242816 4.180668 0.043551
v -0.130943 4.217973 0.011590
v 0.049109 3.020774 0.263821
v -0.108428 3.020774 -0.239600
v -0.676439 2.758401 0.490868
v -0.833976 2.758401 -0.012552
v -0.788320 2.923751 0.221957
v -0.057088 3.186125 0.013075
v -0.534788 2.833516 0.446541
v -0.390012 2.888174 0.401236
v -0.245250 2.942926 0.355935
v -0.099195 2.989208 0.310230
v -0.256731 2.989208 -0.193191
v -0.402787 2.942926 -0.147486
v -0.547549 2.888174 -0.102185
v -0.692325 2.833516 -0.056880
v -0.645532 2.998867 0.181263
v -0.499619 3.053525 0.139591
v -0.353720 3.108277 0.097923
v -0.206528 3.154558 0.055851
v 0.002264 1.826990 0.239010
v -0.156122 1.826990 -0.267125
v -0.758242 1.689894 0.476998
v -0.916629 1.689894 -0.029138
v -0.844814 1.858251 0.198527
v -0.078591 1.995347 -0.021196
v -0.606070 1.740366 0.429378
v -0.453962 1.770008 0.381779
v -0.301853 1.799746 0.334179
v -0.149771 1.820859 0.286587
v -0.308158 1.820860 -0.219548
v -0.460239 1.799746 -0.171957
v -0.612348 1.770008 -0.124357
v -0.764456 1.740366 -0.076757
v -0.691498 1.908723 0.154560
v -0.538247 1.938365 0.110613
v -0.384995 1.968103 0.066666
v -0.231770 1.989217 0.022728
v -0.106809 4.022217 0.238805
v 0.146980 4.022217 -0.246166
v -0.795097 3.717291 -0.121381
v -0.541308 3.717292 -0.606352
v -0.686198 3.887575 -0.404091
v -0.007068 4.192501 -0.026405
v -0.661636 3.801593 -0.051540
v -0.524384 3.864826 0.020286
v -0.387148 3.928156 0.092102
v -0.248343 3.982764 0.164740
v 0.005446 3.982764 -0.320232
v -0.133359 3.928156 -0.392870
v -0.270595 3.864826 -0.464686
v -0.407847 3.801593 -0.536511
v -0.554569 3.971877 -0.330750
v -0.419147 4.035110 -0.255424
v -0.283744 4.098440 -0.180108
v -0.146770 4.153048 -0.103970
v -0.276243 4.266938 0.012888
v 0.249479 4.318010 -0.022506
v -0.303279 4.014325 -0.753207
v 0.222443 4.065397 -0.788600
v -0.031850 4.207892 -0.796028
v -0.023784 4.458663 -0.028656
v -0.300288 4.087507 -0.603186
v -0.295114 4.140214 -0.450276
v -0.289950 4.193016 -0.297378
v -0.283881 4.237340 -0.143285
v 0.241841 4.288413 -0.178678
v 0.235772 4.244088 -0.332772
v 0.230608 4.191287 -0.485669
v 0.225434 4.138578 -0.638580
v -0.032654 4.280705 -0.645752
v -0.031274 4.333045 -0.492586
v -0.029903 4.385478 -0.339433
v -0.027629 4.429434 -0.185084
v -0.102803 4.658444 0.188541
v 0.091150 4.658444 -0.182088
v -0.628811 4.425412 -0.086723
v -0.434858 4.425412 -0.457351
v -0.545587 4.555547 -0.302778
v -0.026578 4.788579 -0.014140
v -0.526817 4.489837 -0.033349
v -0.421924 4.538162 0.021542
v -0.317045 4.586560 0.076426
v -0.210966 4.628293 0.131938
v -0.017014 4.628293 -0.238690
v -0.123093 4.586560 -0.294202
v -0.227972 4.538162 -0.349086
v -0.332864 4.489837 -0.403977
v -0.444993 4.619972 -0.246729
v -0.341500 4.668297 -0.189163
v -0.238021 4.716696 -0.131604
v -0.133342 4.758428 -0.073418
v -0.177424 3.199723 0.301241
v 0.076537 3.199723 -0.184060
v -0.897373 3.007041 -0.075512
v -0.643413 3.007041 -0.560813
v -0.766846 3.180616 -0.347134
v -0.056060 3.373299 0.047131
v -0.754632 3.069345 -0.000815
v -0.610762 3.110173 0.074473
v -0.466898 3.151100 0.149758
v -0.322566 3.183135 0.225287
v -0.068606 3.183135 -0.260014
v -0.212938 3.151100 -0.335543
v -0.356802 3.110173 -0.410828
v -0.500672 3.069345 -0.486116
v -0.625937 3.242920 -0.268935
v -0.483901 3.283748 -0.190145
v -0.341869 3.324675 -0.111357
v -0.199370 3.356711 -0.032326
v -0.157815 2.627943 0.259492
v 0.115591 2.627944 -0.262957
v -0.929067 2.403156 -0.144116
v -0.655661 2.403156 -0.666566
v -0.791835 2.589762 -0.438252
v -0.030449 2.814549 -0.015792
v -0.776611 2.473665 -0.064333
v -0.622534 2.521086 0.016298
v -0.468464 2.568613 0.096925
v -0.313722 2.606582 0.177904
v -0.040316 2.606582 -0.344546
v -0.195058 2.568613 -0.425525
v -0.349128 2.521086 -0.506152
v -0.503205 2.473665 -0.586783
v -0.641352 2.660270 -0.354699
v -0.489248 2.707692 -0.270298
v -0.337151 2.755219 -0.185900
v -0.184383 2.793188 -0.101151
v -0.007672 1.278498 0.178361
v -0.039104 1.278498 -0.203946
v -0.462291 0.912470 0.215739
v -0.493724 0.912470 -0.166569
v -0.538037 1.019184 0.010327
v -0.082284 1.385213 -0.013255
v -0.379372 1.000287 0.208922
v -0.289220 1.074902 0.201510
v -0.199101 1.149577 0.194100
v -0.105988 1.218786 0.186445
v -0.137421 1.218786 -0.195863
v -0.230534 1.149577 -0.188208
v -0.320653 1.074902 -0.180798
v -0.410805 1.000287 -0.173386
v -0.454892 1.107002 0.006269
v -0.364513 1.181617 0.001616
v -0.274167 1.256292 -0.003034
v -0.180827 1.325501 -0.007931
v 0.133336 2.134199 0.230185
v -0.181275 2.134200 -0.181956
v -0.479066 1.957117 0.697668
v -0.793678 1.957117 0.285527
v -0.658902 2.121491 0.476267
v -0.035147 2.298573 0.023656
v -0.357522 2.015040 0.604886
v -0.235132 2.052627 0.511459
v -0.112746 2.090307 0.418034
v 0.009991 2.119568 0.324342
v -0.304621 2.119568 -0.087799
v -0.427358 2.090307 0.005893
v -0.549744 2.052627 0.099318
v -0.672134 2.015041 0.192746
v -0.535087 2.179415 0.386460
v -0.410426 2.217001 0.296006
v -0.285770 2.254682 0.205556
v -0.160763 2.283942 0.114838
v 0.173314 1.533423 0.182200
v -0.292069 1.533423 -0.192962
v -0.368065 1.239274 0.853775
v -0.833448 1.239274 0.478613
v -0.642353 1.426762 0.670296
v -0.084180 1.720912 0.012259
v -0.262307 1.323776 0.722583
v -0.154274 1.385081 0.588569
v -0.046251 1.446493 0.454568
v 0.062713 1.498301 0.319399
v -0.402670 1.498301 -0.055762
v -0.511634 1.446493 0.079407
v -0.619657 1.385081 0.213408
v -0.727690 1.323776 0.347422
v -0.533236 1.511264 0.541812
v -0.421844 1.572569 0.410505
v -0.310463 1.633981 0.279212
v -0.198139 1.685789 0.146750
v 0.329192 2.354577 -0.011223
v -0.294760 2.354577 0.089793
v 0.478831 2.126511 0.913061
v -0.145121 2.126511 1.014077
v 0.137833 2.326738 0.981534
v 0.010709 2.554804 0.053605
v 0.449190 2.199541 0.729975
v 0.419290 2.247797 0.545289
v 0.389390 2.296168 0.360610
v 0.359385 2.334282 0.175269
v -0.264567 2.334282 0.276285
v -0.234561 2.296168 0.461626
v -0.204662 2.247797 0.646304
v -0.174762 2.199541 0.830991
v 0.112695 2.399768 0.797718
v 0.087298 2.448025 0.612303
v 0.061902 2.496395 0.426895
v 0.036398 2.534510 0.240825
v -0.192973 2.453685 -0.184551
v 0.185577 2.453685 0.135646
v 0.263816 2.186960 -0.724587
v 0.642367 2.186960 -0.404391
v 0.490865 2.341613 -0.570862
v 0.020416 2.608337 -0.042379
v 0.175046 2.261482 -0.619639
v 0.083938 2.316868 -0.511927
v -0.007160 2.372343 -0.404227
v -0.099226 2.419895 -0.295383
v 0.279325 2.419895 0.024814
v 0.371390 2.372343 -0.084031
v 0.462488 2.316868 -0.191730
v 0.553596 2.261482 -0.299443
v 0.399363 2.416134 -0.468224
v 0.305523 2.471521 -0.362823
v 0.211693 2.526995 -0.257434
v 0.116896 2.574548 -0.150901
v 0.214317 3.045783 0.136017
v -0.230489 3.045783 -0.096753
v -0.117750 2.775713 0.770572
v -0.562555 2.775713 0.537802
v -0.376071 2.932306 0.668830
v -0.027953 3.202376 0.042674
v -0.053218 2.851168 0.647255
v 0.013014 2.907250 0.520691
v 0.079239 2.963421 0.394141
v 0.146166 3.011570 0.266247
v -0.298639 3.011570 0.033478
v -0.365567 2.963421 0.161372
v -0.431791 2.907250 0.287921
v -0.498023 2.851168 0.414486
v -0.308328 3.007761 0.547193
v -0.238887 3.063843 0.422309
v -0.169452 3.120013 0.297439
v -0.099314 3.168163 0.171225
v 0.262652 1.461753 -0.029455
v -0.307920 1.461753 0.013872
v 0.326402 1.233156 0.810074
v -0.244169 1.233156 0.853400
v 0.013920 1.414048 0.850449
v -0.029241 1.642644 0.009356
v 0.313825 1.303644 0.644434
v 0.301091 1.351752 0.476747
v 0.288358 1.399962 0.309069
v 0.275561 1.438907 0.140543
v -0.295011 1.438907 0.183870
v -0.282214 1.399962 0.352396
v -0.269481 1.351752 0.520074
v -0.256747 1.303644 0.687761
v 0.005460 1.484536 0.684496
v -0.003156 1.532644 0.516497
v -0.011771 1.580854 0.348506
v -0.020450 1.619798 0.179668
v -0.280673 1.910983 -0.166431
v 0.293901 1.910983 0.002385
v -0.030731 1.692994 -1.017122
v 0.543843 1.692995 -0.848306
v 0.288821 1.882673 -0.936591
v 0.018145 2.100661 -0.091991
v -0.080225 1.762564 -0.848667
v -0.130166 1.808666 -0.678692
v -0.180105 1.854876 -0.508722
v -0.230228 1.891369 -0.338124
v 0.344346 1.891370 -0.169308
v 0.394470 1.854876 -0.339906
v 0.444409 1.808666 -0.509876
v 0.494349 1.762564 -0.679852
v 0.235181 1.952242 -0.769355
v 0.181093 1.998344 -0.600597
v 0.127008 2.044554 -0.431847
v 0.072737 2.081048 -0.262466
v -0.292553 1.618534 -0.103984
v 0.276908 1.618534 0.063330
v -0.058028 1.262527 -0.902200
v 0.511433 1.262526 -0.734887
v 0.267246 1.445952 -0.851541
v 0.012173 1.801960 -0.059361
v -0.103270 1.358844 -0.748218
v -0.150014 1.432467 -0.589120
v -0.196752 1.506195 -0.430046
v -0.244112 1.570526 -0.268854
v 0.325348 1.570526 -0.101541
v 0.372708 1.506195 -0.262733
v 0.419446 1.432467 -0.421807
v 0.466191 1.358844 -0.580904
v 0.217895 1.542270 -0.698765
v 0.167040 1.615893 -0.540875
v 0.116193 1.689620 -0.383009
v 0.064723 1.753952 -0.223025
v -0.273157 2.109650 -0.047910
v 0.318833 2.109650 -0.111455
v -0.368039 1.925967 -0.931817
v 0.223952 1.925966 -0.995363
v -0.043130 2.114890 -0.972423
v 0.030389 2.298573 -0.086222
v -0.349145 1.988572 -0.755811
v -0.330177 2.027803 -0.579105
v -0.311210 2.067141 -0.402401
v -0.292211 2.096803 -0.225407
v 0.299780 2.096803 -0.288953
v 0.280781 2.067142 -0.465947
v 0.261813 2.027803 -0.642650
v 0.242845 1.988572 -0.819357
v -0.028509 2.177495 -0.795958
v -0.013814 2.216727 -0.618792
v 0.000882 2.256065 -0.441630
v 0.015609 2.285726 -0.264178
v -0.308785 1.903417 0.091385
v 0.247526 1.903417 -0.212260
v -0.764744 1.736078 -0.743979
v -0.208433 1.736078 -1.047625
v -0.458889 1.937275 -0.911022
v -0.023004 2.104614 -0.064700
v -0.673558 1.797095 -0.576917
v -0.582367 1.833220 -0.409845
v -0.491175 1.869458 -0.242773
v -0.399982 1.895391 -0.075697
v 0.156329 1.895391 -0.379343
v 0.065136 1.869458 -0.546419
v -0.026056 1.833220 -0.713491
v -0.117247 1.797095 -0.880563
v -0.371717 1.998292 -0.741768
v -0.284541 2.034416 -0.572505
v -0.197365 2.070655 -0.403241
v -0.110186 2.096587 -0.233974
v -0.175947 2.258961 0.243599
v 0.108090 2.258961 -0.299176
v -0.994605 2.122472 -0.184810
v -0.710567 2.122472 -0.727585
v -0.833778 2.316874 -0.480834
v -0.025369 2.453364 -0.032839
v -0.830237 2.176389 -0.098796
v -0.666445 2.206253 -0.013082
v -0.502649 2.236228 0.072634
v -0.339092 2.256246 0.158224
v -0.055054 2.256246 -0.384550
v -0.218612 2.236229 -0.470141
v -0.382407 2.206253 -0.555856
v -0.546200 2.176389 -0.641570
v -0.671460 2.370791 -0.390902
v -0.509717 2.400656 -0.301271
v -0.347972 2.430631 -0.211639
v -0.186464 2.450648 -0.122131
v -0.177432 1.623181 0.242446
v 0.100753 1.623181 -0.289144
v -0.931991 1.289261 -0.152420
v -0.653807 1.289261 -0.684010
v -0.812563 1.475928 -0.462274
v -0.068041 1.809847 -0.048225
v -0.785672 1.381605 -0.075850
v -0.635202 1.450853 0.002892
v -0.484752 1.520208 0.081623
v -0.332584 1.580001 0.161254
v -0.054400 1.580001 -0.370336
v -0.206567 1.520208 -0.449967
v -0.357018 1.450853 -0.528698
v -0.507487 1.381605 -0.607440
v -0.668250 1.568272 -0.381867
v -0.519789 1.637520 -0.299289
v -0.371346 1.706875 -0.216721
v -0.221186 1.766667 -0.133254
v 0.142124 5.342824 -0.107518
v -0.186008 5.344065 -0.001956
v 0.255571 4.974194 0.249463
v -0.072560 4.975435 0.355025
v 0.094478 5.064953 0.366551
v -0.007129 5.433538 0.005762
v 0.235530 5.060254 0.186152
v 0.213096 5.135169 0.115535
v 0.190672 5.210135 0.044952
v 0.167259 5.280488 -0.028656
v -0.160873 5.281730 0.076906
v -0.137460 5.211377 0.150513
v -0.115036 5.136411 0.221097
v -0.092602 5.061496 0.291713
v 0.076804 5.151004 0.302478
v 0.056738 5.225911 0.231100
v 0.036683 5.300868 0.159755
v 0.015637 5.371212 0.085386
v 0.161478 4.991337 -0.093477
v -0.207252 4.990592 0.023759
v 0.320037 4.715829 0.403470
v -0.048693 4.715084 0.520706
v 0.128505 4.832306 0.503969
v -0.016748 5.107841 0.002792
v 0.289862 4.786936 0.309014
v 0.258298 4.843580 0.210101
v 0.226741 4.900291 0.111208
v 0.194609 4.951016 0.010469
v -0.174121 4.950271 0.127705
v -0.141989 4.899546 0.228444
v -0.110432 4.842835 0.327337
v -0.078868 4.786190 0.426251
v 0.100991 4.903419 0.408668
v 0.072088 4.960068 0.308908
v 0.043192 5.016785 0.209169
v 0.013721 5.067514 0.107584
v -0.199918 4.973576 -0.080835
v 0.153083 4.972761 0.101219
v 0.050668 4.715297 -0.567874
v 0.403669 4.714481 -0.385819
v 0.260243 4.836466 -0.497221
v -0.003081 5.094775 -0.016752
v 0.002670 4.783605 -0.474499
v -0.047244 4.836867 -0.377480
v -0.097148 4.890197 -0.280478
v -0.147845 4.937298 -0.181967
v 0.205156 4.936483 0.000087
v 0.255853 4.889382 -0.098424
v 0.305757 4.836052 -0.195426
v 0.355670 4.782790 -0.292445
v 0.209697 4.904782 -0.405161
v 0.157236 4.958049 -0.309456
v 0.104784 5.011385 -0.213767
v 0.051540 5.058492 -0.116570
v -0.048679 5.324779 0.157130
v 0.094061 5.323042 -0.124651
v -0.393418 5.036304 -0.015724
v -0.250678 5.034567 -0.297505
v -0.355111 5.124813 -0.191572
v -0.015523 5.413350 -0.008550
v -0.329972 5.106249 0.015984
v -0.261555 5.165125 0.050279
v -0.193160 5.224052 0.084562
v -0.122708 5.278397 0.119916
v 0.020032 5.276660 -0.161865
v -0.050420 5.222315 -0.197219
v -0.118814 5.163388 -0.231502
v -0.187232 5.104512 -0.265797
v -0.292695 5.194770 -0.157830
v -0.225308 5.253659 -0.121502
v -0.157944 5.312599 -0.085185
v -0.088522 5.366956 -0.047798
v 0.056613 4.850272 0.183162
v -0.065305 4.849697 -0.199604
v -0.488172 4.630938 0.357015
v -0.610090 4.630363 -0.025751
v -0.578528 4.755789 0.153783
v -0.029343 4.975142 -0.006258
v -0.382408 4.691943 0.323235
v -0.273759 4.737463 0.288560
v -0.165123 4.783052 0.253889
v -0.055293 4.822232 0.218848
v -0.177210 4.821657 -0.163918
v -0.287041 4.782477 -0.128877
v -0.395676 4.736888 -0.094206
v -0.504326 4.691368 -0.059530
v -0.471883 4.816798 0.122766
v -0.362354 4.862321 0.090853
v -0.252838 4.907916 0.058945
v -0.142128 4.947098 0.026665
v -0.129201 5.075536 0.112349
v 0.120547 5.074739 -0.099787
v -0.422706 4.864342 -0.232403
v -0.172959 4.863546 -0.444538
v -0.302689 4.964355 -0.369807
v -0.018196 5.175578 -0.017400
v -0.366375 4.920335 -0.166295
v -0.307903 4.963900 -0.097618
v -0.249440 5.007522 -0.028954
v -0.190091 5.045999 0.040774
v 0.059657 5.045204 -0.171362
v 0.000307 5.006726 -0.241090
v -0.058156 4.963104 -0.309754
v -0.116628 4.919539 -0.378430
v -0.248161 5.020354 -0.302168
v -0.191491 5.063926 -0.231961
v -0.134830 5.107553 -0.161765
v -0.077284 5.146035 -0.090506
v -0.155374 3.626598 0.298477
v 0.174972 3.626598 -0.224653
v -0.918609 3.352725 -0.183491
v -0.588263 3.352726 -0.706620
v -0.757001 3.547700 -0.483797
v -0.005686 3.821572 0.017048
v -0.768706 3.434197 -0.088830
v -0.616323 3.491546 0.007397
v -0.463952 3.549006 0.103616
v -0.310555 3.596478 0.200483
v 0.019791 3.596478 -0.322646
v -0.133606 3.549006 -0.419514
v -0.285977 3.491546 -0.515733
v -0.438360 3.434197 -0.611960
v -0.609482 3.629172 -0.385361
v -0.459484 3.686521 -0.285359
v -0.309497 3.743980 -0.185364
v -0.158483 3.791452 -0.084721
v -0.154112 1.371963 -0.110034
v 0.152971 1.371963 0.068098
v 0.057712 1.033214 -0.475201
v 0.364796 1.033214 -0.297070
v 0.253807 1.131976 -0.424212
v 0.030902 1.470725 -0.065472
v 0.019077 1.114487 -0.408598
v -0.022928 1.183541 -0.336184
v -0.064918 1.252651 -0.263798
v -0.108303 1.316701 -0.189006
v 0.198781 1.316702 -0.010874
v 0.242166 1.252651 -0.085666
v 0.284155 1.183541 -0.158053
v 0.326161 1.114487 -0.230466
v 0.212956 1.213249 -0.358894
v 0.168735 1.282302 -0.287766
v 0.124529 1.351412 -0.216665
v 0.078927 1.415463 -0.143158
v -0.031475 5.597197 -0.109545
v -0.054338 5.594668 0.092473
v 0.130562 5.333348 -0.094510
v 0.107697 5.330818 0.107508
v 0.165887 5.374811 0.022531
v 0.004676 5.638752 0.000206
v 0.104713 5.391985 -0.096701
v 0.072938 5.445321 -0.099630
v 0.041190 5.498681 -0.102555
v 0.006989 5.549846 -0.105785
v -0.015875 5.547317 0.096233
v 0.018326 5.496151 0.099463
v 0.050074 5.442791 0.102388
v 0.081849 5.389455 0.105317
v 0.140203 5.433467 0.018881
v 0.108593 5.486821 0.014495
v 0.077011 5.540199 0.010112
v 0.042975 5.591383 0.005424
v -0.053947 5.678600 0.078054
v 0.090823 5.676608 -0.020630
v -0.140492 5.457536 -0.044446
v 0.004278 5.455544 -0.143130
v -0.083023 5.495146 -0.131964
v -0.001702 5.716281 -0.005903
v -0.126214 5.507049 -0.024500
v -0.109197 5.551773 -0.000439
v -0.092193 5.596519 0.023603
v -0.074055 5.639282 0.049348
v 0.070715 5.637289 -0.049335
v 0.052577 5.594526 -0.075080
v 0.035573 5.549780 -0.099122
v 0.018556 5.505056 -0.123183
v -0.069790 5.544672 -0.111305
v -0.053818 5.589411 -0.086532
v -0.037858 5.634171 -0.061778
v -0.020765 5.676948 -0.035320
vn 0.5429 0.8317 0.1160
vn -0.5156 0.8351 0.1918
vn -0.4560 0.7937 0.4027
vn -0.4911 0.8144 0.3090
vn -0.4850 0.8183 0.3085
vn -0.4952 0.8269 0.2665
vn 0.5114 0.8516 -0.1154
vn 0.5269 0.8491 -0.0368
vn 0.5324 0.8465 0.0091
vn 0.5276 0.8494 0.0106
vn 0.5725 0.8058 0.1512
vn -0.4787 0.8269 0.2952
vn -0.4072 0.7659 0.4976
vn -0.4475 0.7955 0.4085
vn -0.4413 0.7993 0.4078
vn -0.4539 0.8117 0.3675
vn 0.5272 0.8464 -0.0752
vn 0.5475 0.8368 0.0018
vn 0.5557 0.8300 0.0468
vn 0.5511 0.8330 0.0489
vn 0.2440 0.7741 -0.5842
vn 0.3294 0.8173 0.4727
vn 0.5303 0.7393 0.4149
vn 0.4415 0.7767 0.4491
vn 0.4416 0.7804 0.4428
vn 0.4016 0.7961 0.4527
vn 0.0191 0.8327 -0.5533
vn 0.0962 0.8168 -0.5689
vn 0.1409 0.8065 -0.5742
vn 0.1429 0.8094 -0.5696
vn 0.1028 0.8361 -0.5388
vn 0.1785 0.8355 0.5197
vn 0.3901 0.7977 0.4599
vn 0.2961 0.8168 0.4952
vn 0.2954 0.8207 0.4891
vn 0.2533 0.8285 0.4994
vn -0.1289 0.8522 -0.5072
vn -0.0503 0.8510 -0.5227
vn -0.0044 0.8491 -0.5282
vn -0.0029 0.8521 -0.5234
vn 0.2307 0.7822 -0.5788
vn 0.3094 0.8216 0.4788
vn 0.5122 0.7482 0.4217
vn 0.4225 0.7835 0.4556
vn 0.4225 0.7872 0.4493
vn 0.3822 0.8020 0.4590
vn 0.0044 0.8359 -0.5489
vn 0.0819 0.8217 -0.5641
vn 0.1269 0.8123 -0.5692
vn 0.1288 0.8153 -0.5646
vn 0.4314 0.8435 -0.3199
vn -0.2635 0.8355 0.4821
vn -0.0706 0.8044 0.5899
vn -0.1625 0.8205 0.5481
vn -0.1587 0.8244 0.5433
vn -0.1960 0.8309 0.5207
vn 0.2448 0.8526 -0.4616
vn 0.3115 0.8539 -0.4170
vn 0.3478 0.8534 -0.3884
vn 0.3453 0.8563 -0.3840
vn 0.5196 0.8094 -0.2738
vn -0.1746 0.8307 0.5287
vn 0.0136 0.7732 0.6340
vn -0.0760 0.8013 0.5934
vn -0.0718 0.8051 0.5888
vn -0.1080 0.8168 0.5667
vn 0.3355 0.8461 -0.4142
vn 0.4017 0.8378 -0.3698
vn 0.4377 0.8318 -0.3413
vn 0.4356 0.8348 -0.3368
vn 0.5404 0.8345 0.1079
vn -0.5181 0.8354 0.1836
vn -0.4584 0.7962 0.3950
vn -0.4936 0.8159 0.3011
vn -0.4875 0.8198 0.3005
vn -0.4978 0.8279 0.2584
vn 0.5088 0.8520 -0.1237
vn 0.5244 0.8503 -0.0451
vn 0.5298 0.8481 0.0008
vn 0.5250 0.8511 0.0023
vn -0.0089 0.8345 0.5510
vn -0.2738 0.8354 -0.4767
vn -0.4710 0.7962 -0.3798
vn -0.3850 0.8159 -0.4314
vn -0.3833 0.8198 -0.4255
vn -0.3438 0.8279 -0.4431
vn 0.2132 0.8520 0.4782
vn 0.1387 0.8503 0.5077
vn 0.0945 0.8481 0.5213
vn 0.0922 0.8511 0.5168
vn 0.5784 0.7828 0.2294
vn -0.4792 0.8219 0.3081
vn -0.4221 0.7488 0.5111
vn -0.4560 0.7840 0.4213
vn -0.4497 0.7876 0.4212
vn -0.4594 0.8024 0.3809
vn 0.5485 0.8362 0.0031
vn 0.5637 0.8221 0.0806
vn 0.5688 0.8128 0.1256
vn 0.5642 0.8158 0.1275
vn 0.5851 0.7568 -0.2913
vn -0.0108 0.8108 0.5852
vn 0.1788 0.7247 0.6654
vn 0.0897 0.7658 0.6368
vn 0.0938 0.7694 0.6319
vn 0.0571 0.7867 0.6147
vn 0.3932 0.8241 -0.4078
vn 0.4622 0.8051 -0.3717
vn 0.5000 0.7931 -0.3478
vn 0.4987 0.7960 -0.3429
vn 0.5762 0.7864 0.2225
vn -0.4815 0.8232 0.3009
vn -0.4241 0.7521 0.5044
vn -0.4582 0.7864 0.4143
vn -0.4519 0.7901 0.4143
vn -0.4617 0.8044 0.3738
vn 0.5462 0.8377 -0.0043
vn 0.5614 0.8243 0.0733
vn 0.5666 0.8155 0.1184
vn 0.5619 0.8184 0.1203
vn 0.2249 0.7845 -0.5778
vn 0.3056 0.8225 0.4796
vn 0.5088 0.7504 0.4220
vn 0.4189 0.7851 0.4561
vn 0.4188 0.7888 0.4499
vn 0.3785 0.8034 0.4597
vn -0.0016 0.8369 -0.5474
vn 0.0759 0.8231 -0.5627
vn 0.1210 0.8141 -0.5680
vn 0.1229 0.8170 -0.5634
vn -0.5774 0.7845 -0.2261
vn 0.4803 0.8225 -0.3046
vn 0.4231 0.7504 -0.5079
vn 0.4570 0.7851 -0.4180
vn 0.4507 0.7888 -0.4179
vn 0.4605 0.8034 -0.3775
vn -0.5474 0.8369 0.0004
vn -0.5626 0.8231 -0.0771
vn -0.5678 0.8141 -0.1222
vn -0.5631 0.8170 -0.1241
vn 0.4570 0.7851 -0.4179
vn -0.1868 0.8333 -0.5203
vn 0.4290 0.8353 0.3440
vn 0.5782 0.7951 0.1830
vn 0.5164 0.8153 0.2619
vn 0.5127 0.8192 0.2570
vn 0.4822 0.8275 0.2876
vn -0.3681 0.8518 -0.3728
vn -0.3091 0.8498 -0.4270
vn -0.2727 0.8474 -0.4555
vn -0.2690 0.8504 -0.4522
vn -0.5415 0.8333 -0.1114
vn 0.5170 0.8353 -0.1871
vn 0.4573 0.7951 -0.3983
vn 0.4925 0.8153 -0.3045
vn 0.4864 0.8192 -0.3039
vn 0.4967 0.8275 -0.2619
vn -0.5099 0.8518 0.1201
vn -0.5255 0.8498 0.0415
vn -0.5309 0.8474 -0.0044
vn -0.5261 0.8504 -0.0059
vn -0.2786 0.8136 -0.5103
vn 0.5237 0.8318 0.1840
vn 0.6294 0.7771 -0.0047
vn 0.5886 0.8039 0.0851
vn 0.5840 0.8077 0.0810
vn 0.5619 0.8189 0.1174
vn -0.4192 0.8474 -0.3258
vn -0.3748 0.8401 -0.3922
vn -0.3463 0.8347 -0.4282
vn -0.3418 0.8377 -0.4260
vn -0.3192 0.8431 -0.4328
vn 0.4828 0.8356 0.2621
vn 0.5906 0.8040 0.0693
vn 0.5488 0.8203 0.1612
vn 0.5440 0.8242 0.1574
vn 0.5214 0.8308 0.1946
vn -0.4609 0.8526 -0.2462
vn -0.4163 0.8537 -0.3128
vn -0.3877 0.8531 -0.3492
vn -0.3833 0.8561 -0.3467
vn 0.6661 0.7378 -0.1092
vn -0.1352 0.8006 0.5838
vn 0.0240 0.7057 0.7081
vn -0.0532 0.7508 0.6584
vn -0.0478 0.7542 0.6549
vn -0.0781 0.7733 0.6292
vn 0.5135 0.8146 -0.2697
vn 0.5701 0.7923 -0.2174
vn 0.5999 0.7784 -0.1849
vn 0.5975 0.7813 -0.1805
vn -0.2499 0.7717 0.5848
vn -0.3297 0.8174 -0.4724
vn -0.5306 0.7385 -0.4159
vn -0.4418 0.7763 -0.4496
vn -0.4419 0.7799 -0.4432
vn -0.4019 0.7958 -0.4529
vn -0.0251 0.8312 0.5553
vn -0.1021 0.8150 0.5704
vn -0.1469 0.8045 0.5755
vn -0.1489 0.8074 0.5709
vn -0.2375 0.7785 0.5809
vn -0.3166 0.8202 -0.4765
vn -0.5188 0.7448 -0.4196
vn -0.4294 0.7810 -0.4534
vn -0.4294 0.7847 -0.4471
vn -0.3892 0.7999 -0.4568
vn -0.0118 0.8343 0.5512
vn -0.0891 0.8193 0.5663
vn -0.1340 0.8096 0.5715
vn -0.1360 0.8125 0.5668
vn -0.1127 0.8329 0.5419
vn -0.1884 0.8352 -0.5166
vn -0.3996 0.7947 -0.4570
vn -0.3058 0.8151 -0.4921
vn -0.3052 0.8189 -0.4860
vn -0.2632 0.8273 -0.4963
vn 0.1188 0.8517 0.5103
vn 0.0401 0.8496 0.5259
vn -0.0057 0.8472 0.5313
vn -0.0072 0.8501 0.5265
vn -0.6072 0.7611 0.2279
vn 0.0829 0.8128 -0.5766
vn -0.0974 0.7287 -0.6778
vn -0.0116 0.7689 -0.6393
vn -0.0162 0.7725 -0.6349
vn 0.0184 0.7894 -0.6136
vn -0.4288 0.8262 0.3653
vn -0.4936 0.8080 0.3217
vn -0.5285 0.7964 0.2938
vn -0.5267 0.7994 0.2891
vn -0.5818 0.7331 -0.3522
vn 0.4564 0.8713 -0.1807
vn 0.4552 0.7994 -0.3920
vn 0.4638 0.8348 -0.2965
vn 0.4574 0.8379 -0.2979
vn 0.4560 0.8523 -0.2563
vn -0.6105 0.7821 -0.1248
vn -0.6059 0.7690 -0.2037
vn -0.5995 0.7607 -0.2488
vn -0.5949 0.7641 -0.2495
vn -0.5085 0.8144 0.2796
vn 0.1859 0.8320 -0.5227
vn -0.0030 0.7779 -0.6284
vn 0.0869 0.8044 -0.5877
vn 0.0828 0.8082 -0.5830
vn 0.1192 0.8193 -0.5609
vn -0.3239 0.8476 0.4202
vn -0.3902 0.8405 0.3758
vn -0.4263 0.8353 0.3473
vn -0.4241 0.8382 0.3428
vn -0.5228 0.8079 0.2721
vn 0.1713 0.8303 -0.5304
vn -0.0166 0.7719 -0.6356
vn 0.0728 0.8004 -0.5951
vn 0.0686 0.8041 -0.5905
vn 0.1048 0.8160 -0.5684
vn -0.3388 0.8456 0.4124
vn -0.4050 0.8370 0.3680
vn -0.4410 0.8308 0.3396
vn -0.4389 0.8338 0.3351
vn -0.5975 0.5980 0.5342
vn -0.4706 0.7182 -0.5125
vn -0.6428 0.5765 -0.5045
vn -0.5659 0.6428 -0.5164
vn -0.5684 0.6456 -0.5101
vn -0.5346 0.6738 -0.5101
vn -0.4025 0.7261 0.5574
vn -0.4717 0.6857 0.5544
vn -0.5108 0.6615 0.5491
vn -0.5126 0.6641 0.5442
vn 0.0428 0.8166 0.5756
vn -0.3905 0.8325 -0.3930
vn -0.5664 0.7799 -0.2664
vn -0.4913 0.8058 -0.3307
vn -0.4889 0.8096 -0.3250
vn -0.4533 0.8203 -0.3487
vn 0.2485 0.8483 0.4677
vn 0.1801 0.8417 0.5090
vn 0.1390 0.8367 0.5297
vn 0.1358 0.8397 0.5258
vn 0.1271 0.7800 0.6128
vn -0.5261 0.8207 -0.2226
vn -0.6628 0.7462 -0.0628
vn -0.6071 0.7820 -0.1407
vn -0.6036 0.7857 -0.1355
vn -0.5756 0.8007 -0.1659
vn 0.2983 0.8349 0.4625
vn 0.2425 0.8203 0.5180
vn 0.2079 0.8107 0.5473
vn 0.2037 0.8136 0.5445
vn 0.5294 0.8124 0.2444
vn -0.5291 0.8315 0.1694
vn -0.5006 0.7760 0.3837
vn -0.5218 0.8032 0.2874
vn -0.5156 0.8070 0.2880
vn -0.5197 0.8183 0.2456
vn 0.5314 0.8471 0.0125
vn 0.5355 0.8395 0.0923
vn 0.5343 0.8339 0.1382
vn 0.5294 0.8369 0.1391
vn -0.0966 0.7669 -0.6345
vn 0.5376 0.8153 0.2150
vn 0.6764 0.7340 0.0604
vn 0.6197 0.7730 0.1360
vn 0.6164 0.7765 0.1306
vn 0.5880 0.7929 0.1600
vn -0.2702 0.8290 -0.4897
vn -0.2133 0.8118 -0.5435
vn -0.1783 0.8008 -0.5717
vn -0.1741 0.8038 -0.5689
vn 0.2327 0.7669 0.5981
vn -0.5716 0.8153 -0.0926
vn -0.6733 0.7340 0.0887
vn -0.6344 0.7730 0.0025
vn -0.6300 0.7765 0.0070
vn -0.6087 0.7929 -0.0278
vn 0.3705 0.8290 0.4189
vn 0.3268 0.8118 0.4839
vn 0.2988 0.8008 0.5190
vn 0.2941 0.8038 0.5172
vn 0.5084 0.8036 0.3094
vn -0.5398 0.8291 0.1457
vn -0.5297 0.7680 0.3601
vn -0.5426 0.7977 0.2631
vn -0.5365 0.8014 0.2643
vn -0.5370 0.8139 0.2221
vn 0.5301 0.8442 0.0795
vn 0.5274 0.8346 0.1591
vn 0.5223 0.8278 0.2046
vn 0.5174 0.8308 0.2052
vn -0.3715 0.8117 -0.4506
vn 0.5509 0.8313 0.0738
vn 0.6176 0.7754 -0.1317
vn 0.5952 0.8028 -0.0357
vn 0.5899 0.8066 -0.0389
vn 0.5753 0.8180 0.0010
vn -0.4734 0.8468 -0.2424
vn -0.4427 0.8391 -0.3161
vn -0.4218 0.8334 -0.3570
vn -0.4170 0.8364 -0.3557
vn -0.3356 0.7477 -0.5730
vn 0.5886 0.8065 -0.0548
vn 0.6520 0.7163 -0.2487
vn 0.6312 0.7593 -0.1583
vn 0.6261 0.7627 -0.1621
vn 0.6121 0.7809 -0.1245
vn -0.4350 0.8195 -0.3732
vn -0.4050 0.7989 -0.4447
vn -0.3845 0.7860 -0.4841
vn -0.3795 0.7889 -0.4833
vn -0.5124 0.8234 -0.2438
vn 0.5405 0.8339 -0.1117
vn 0.5233 0.7861 -0.3290
vn 0.5394 0.8098 -0.2309
vn 0.5333 0.8136 -0.2316
vn 0.5351 0.8234 -0.1887
vn -0.5267 0.8500 -0.0113
vn -0.5266 0.8452 -0.0913
vn -0.5230 0.8412 -0.1373
vn -0.5180 0.8442 -0.1379
vn -0.5549 0.8319 -0.0075
vn 0.4685 0.8351 -0.2883
vn 0.3688 0.7938 -0.4836
vn 0.4216 0.8145 -0.3985
vn 0.4157 0.8184 -0.3968
vn 0.4339 0.8269 -0.3576
vn -0.4789 0.8516 0.2133
vn -0.5094 0.8492 0.1392
vn -0.5237 0.8465 0.0953
vn -0.5193 0.8495 0.0929
vn -0.4453 0.8390 0.3127
vn 0.2496 0.8356 -0.4894
vn 0.0573 0.8003 -0.5969
vn 0.1489 0.8183 -0.5552
vn 0.1451 0.8222 -0.5504
vn 0.1822 0.8295 -0.5279
vn -0.2590 0.8524 0.4542
vn -0.3256 0.8522 0.4096
vn -0.3619 0.8508 0.3810
vn -0.3595 0.8538 0.3766
vn -0.6070 0.7613 0.2281
vn 0.0831 0.8129 -0.5765
vn -0.0971 0.7289 -0.6777
vn -0.0114 0.7690 -0.6391
vn -0.0160 0.7726 -0.6347
vn 0.0187 0.7895 -0.6135
vn -0.4285 0.8263 0.3655
vn -0.4933 0.8081 0.3219
vn -0.5283 0.7966 0.2939
vn -0.5265 0.7995 0.2892
vn 0.6753 0.5286 0.5143
vn -0.3683 0.6734 0.6410
vn -0.3266 0.5150 0.7925
vn -0.3532 0.5888 0.7270
vn -0.3465 0.5913 0.7283
vn -0.3531 0.6227 0.6982
vn 0.6583 0.6754 0.3323
vn 0.6696 0.6282 0.3961
vn 0.6724 0.6004 0.4329
vn 0.6682 0.6028 0.4361
vn 0.6154 0.7090 0.3443
vn -0.4391 0.7850 0.4371
vn -0.3853 0.6784 0.6256
vn -0.4176 0.7288 0.5427
vn -0.4111 0.7321 0.5432
vn -0.4202 0.7534 0.5057
vn 0.5878 0.7986 0.1294
vn 0.6024 0.7718 0.2036
vn 0.6072 0.7554 0.2466
vn 0.6026 0.7582 0.2489
vn -0.2074 0.7317 -0.6493
vn 0.6032 0.7969 0.0325
vn 0.7003 0.6993 -0.1431
vn 0.6637 0.7456 -0.0596
vn 0.6594 0.7491 -0.0644
vn 0.6389 0.7687 -0.0307
vn -0.3414 0.8115 -0.4743
vn -0.2989 0.7881 -0.5381
vn -0.2716 0.7736 -0.5725
vn -0.2667 0.7765 -0.5709
vn -0.7687 0.6220 0.1487
vn -0.1089 0.7293 -0.6755
vn -0.2643 0.5935 -0.7602
vn -0.1905 0.6570 -0.7294
vn -0.1958 0.6600 -0.7254
vn -0.1660 0.6870 -0.7074
vn -0.6107 0.7438 0.2718
vn -0.6693 0.7056 0.2327
vn -0.7006 0.6827 0.2074
vn -0.6995 0.6854 0.2023
vn -0.2599 0.7652 0.5890
vn -0.3458 0.8135 -0.4676
vn -0.5451 0.7310 -0.4104
vn -0.4571 0.7705 -0.4443
vn -0.4572 0.7740 -0.4380
vn -0.4176 0.7907 -0.4477
vn -0.0362 0.8286 0.5587
vn -0.1129 0.8110 0.5741
vn -0.1575 0.7997 0.5793
vn -0.1595 0.8026 0.5747
vn -0.6772 0.7339 -0.0532
vn 0.2620 0.7978 -0.5431
vn 0.1364 0.7010 -0.7000
vn 0.1997 0.7469 -0.6342
vn 0.1937 0.7503 -0.6320
vn 0.2172 0.7698 -0.6002
vn -0.5661 0.8128 0.1376
vn -0.6090 0.7897 0.0739
vn -0.6305 0.7754 0.0355
vn -0.6271 0.7783 0.0316
vn -0.5714 0.7931 0.2110
vn 0.1844 0.8256 -0.5333
vn 0.0079 0.7582 -0.6519
vn 0.0926 0.7908 -0.6050
vn 0.0879 0.7945 -0.6008
vn 0.1218 0.8082 -0.5762
vn -0.4010 0.8403 0.3648
vn -0.4630 0.8284 0.3154
vn -0.4963 0.8203 0.2843
vn -0.4939 0.8233 0.2799
vn -0.0975 0.5980 -0.7955
vn 0.6895 0.7182 -0.0938
vn 0.7811 0.5765 -0.2397
vn 0.7470 0.6428 -0.1697
vn 0.7433 0.6456 -0.1754
vn 0.7240 0.6738 -0.1476
vn -0.2278 0.7261 -0.6487
vn -0.1858 0.6857 -0.7038
vn -0.1591 0.6615 -0.7328
vn -0.1541 0.6641 -0.7316
vn 0.8516 0.3549 -0.3858
vn 0.5766 0.5265 0.6247
vn 0.6902 0.3352 0.6413
vn 0.6389 0.4236 0.6422
vn 0.6433 0.4253 0.6367
vn 0.6214 0.4632 0.6319
vn 0.7183 0.5406 -0.4378
vn 0.7683 0.4794 -0.4242
vn 0.7953 0.4436 -0.4131
vn 0.7970 0.4455 -0.4078
vn -0.8391 0.3890 -0.3803
vn 0.1103 0.5546 -0.8248
vn 0.0443 0.3684 -0.9286
vn 0.0805 0.4545 -0.8871
vn 0.0735 0.4564 -0.8868
vn 0.0850 0.4933 -0.8657
vn -0.7873 0.5685 -0.2387
vn -0.8110 0.5095 -0.2876
vn -0.8210 0.4750 -0.3167
vn -0.8180 0.4770 -0.3213
vt 0.000000 0.800000
vt 0.542651 0.800000
vt 0.549868 1.000000
vt 0.000000 1.000000
vt 0.521000 0.200000
vt 0.513783 0.000000
vt 1.000000 0.000000
vt 1.000000 0.200000
vt 1.000000 0.800000
vt 1.000000 1.000000
vt 0.535434 0.600000
vt 1.000000 0.600000
vt 0.528217 0.400000
vt 1.000000 0.400000
vt 0.000000 0.000000
vt 0.000000 0.200000
vt 0.000000 0.400000
vt 0.000000 0.600000
s 1
usemtl pine_branch_1
f 91/96/86 99/97/86 89/98/86 87/99/86
f 102/100/87 90/101/87 86/102/87 95/103/87
f 89/98/88 99/97/88 98/104/88 88/105/88
f 99/97/89 100/106/89 97/107/89 98/104/89
f 100/106/90 101/108/90 96/109/90 97/107/90
f 101/108/91 102/100/91 95/103/91 96/109/91
f 85/110/92 90/101/92 102/100/92 94/111/92
f 94/111/93 102/100/93 101/108/93 93/112/93
f 93/112/94 101/108/94 100/106/94 92/113/94
f 92/113/95 100/106/95 99/97/95 91/96/95
f 109/96/96 117/97/96 107/98/96 105/99/96
f 120/100/97 108/101/97 104/102/97 113/103/97
f 107/98/98 117/97/98 116/104/98 106/105/98
f 117/97/99 118/106/99 115/107/99 116/104/99
f 118/106/100 119/108/100 114/109/100 115/107/100
f 119/108/101 120/100/101 113/103/101 114/109/101
f 103/110/102 108/101/102 120/100/102 112/111/102
f 112/111/103 120/100/103 119/108/103 111/112/103
f 111/112/104 119/108/104 118/106/104 110/113/104
f 110/113/105 118/106/105 117/97/105 109/96/105
f 127/96/106 135/97/106 125/98/106 123/99/106
f 138/100/107 126/101/107 122/102/107 131/103/107
f 125/98/108 135/97/108 134/104/108 124/105/108
f 135/97/109 136/106/109 133/107/109 134/104/109
f 136/106/110 137/108/110 132/109/110 133/107/110
f 137/108/111 138/100/111 131/103/111 132/109/111
f 121/110/112 126/101/112 138/100/112 130/111/112
f 130/111/113 138/100/113 137/108/113 129/112/113
f 129/112/114 137/108/114 136/106/114 128/113/114
f 128/113/115 136/106/115 135/97/115 127/96/115
f 145/96/116 153/97/116 143/98/116 141/99/116
f 156/100/117 144/101/117 140/102/117 149/103/117
f 143/98/118 153/97/118 152/104/118 142/105/118
f 153/97/119 154/106/119 151/107/119 152/104/119
f 154/106/120 155/108/120 150/109/120 151/107/120
f 155/108/121 156/100/121 149/103/121 150/109/121
f 139/110/122 144/101/122 156/100/122 148/111/122
f 148/111/123 156/100/123 155/108/123 147/112/123
f 147/112/124 155/108/124 154/106/124 146/113/124
f 146/113/125 154/106/125 153/97/125 145/96/125
f 163/96/116 171/97/116 161/98/116 159/99/116
f 174/100/117 162/101/117 158/102/117 167/103/117
f 161/98/118 171/97/118 170/104/118 160/105/118
f 171/97/119 172/106/119 169/107/119 170/104/119
f 172/106/120 173/108/120 168/109/120 169/107/120
f 173/108/121 174/100/121 167/103/121 168/109/121
f 157/110/122 162/101/122 174/100/122 166/111/122
f 166/111/123 174/100/123 173/108/123 165/112/123
f 165/112/124 173/108/124 172/106/124 164/113/124
f 164/113/125 172/106/125 171/97/125 163/96/125
f 181/96/126 189/97/126 179/98/126 177/99/126
f 192/100/127 180/101/127 176/102/127 185/103/127
f 179/98/128 189/97/128 188/104/128 178/105/128
f 189/97/129 190/106/129 187/107/129 188/104/129
f 190/106/130 191/108/130 186/109/130 187/107/130
f 191/108/131 192/100/131 185/103/131 186/109/131
f 175/110/132 180/101/132 192/100/132 184/111/132
f 184/111/133 192/100/133 191/108/133 183/112/133
f 183/112/134 191/108/134 190/106/134 182/113/134
f 182/113/135 190/106/135 189/97/135 181/96/135
f 199/96/136 207/97/136 197/98/136 195/99/136
f 210/100/137 198/101/137 194/102/137 203/103/137
f 197/98/138 207/97/138 206/104/138 196/105/138
f 207/97/139 208/106/139 205/107/139 206/104/139
f 208/106/140 209/108/140 204/109/140 205/107/140
f 209/108/141 210/100/141 203/103/141 204/109/141
f 193/110/142 198/101/142 210/100/142 202/111/142
f 202/111/143 210/100/143 209/108/143 201/112/143
f 201/112/144 209/108/144 208/106/144 200/113/144
f 200/113/145 208/106/145 207/97/145 199/96/145
f 217/96/146 225/97/146 215/98/146 213/99/146
f 228/100/147 216/101/147 212/102/147 221/103/147
f 215/98/148 225/97/148 224/104/148 214/105/148
f 225/97/149 226/106/149 223/107/149 224/104/149
f 226/106/150 227/108/150 222/109/150 223/107/150
f 227/108/151 228/100/151 221/103/151 222/109/151
f 211/110/152 216/101/152 228/100/152 220/111/152
f 220/111/153 228/100/153 227/108/153 219/112/153
f 219/112/154 227/108/154 226/106/154 218/113/154
f 218/113/155 226/106/155 225/97/155 217/96/155
f 235/96/156 243/97/156 233/98/156 231/99/156
f 246/100/157 234/101/157 230/102/157 239/103/157
f 233/98/158 243/97/158 242/104/158 232/105/158
f 243/97/159 244/106/159 241/107/159 242/104/159
f 244/106/160 245/108/160 240/109/160 241/107/160
f 245/108/161 246/100/161 239/103/161 240/109/161
f 229/110/162 234/101/162 246/100/162 238/111/162
f 238/111/163 246/100/163 245/108/163 237/112/163
f 237/112/164 245/108/164 244/106/164 236/113/164
f 236/113/165 244/106/165 243/97/165 235/96/165
f 253/96/166 261/97/166 251/98/166 249/99/166
f 264/100/167 252/101/167 248/102/167 257/103/167
f 251/98/168 261/97/168 260/104/168 250/105/168
f 261/97/169 262/106/169 259/107/169 260/104/169
f 262/106/170 263/108/170 258/109/170 259/107/170
f 263/108/171 264/100/171 257/103/171 258/109/171
f 247/110/172 252/101/172 264/100/172 256/111/172
f 256/111/173 264/100/173 263/108/173 255/112/173
f 255/112/174 263/108/174 262/106/174 254/113/174
f 254/113/175 262/106/175 261/97/175 253/96/175
f 271/96/156 279/97/156 269/98/156 267/99/156
f 282/100/157 270/101/157 266/102/157 275/103/157
f 269/98/158 279/97/158 278/104/158 268/105/158
f 279/97/159 280/106/159 277/107/159 278/104/159
f 280/106/160 281/108/160 276/109/160 277/107/160
f 281/108/161 282/100/161 275/103/161 276/109/161
f 265/110/162 270/101/162 282/100/162 274/111/162
f 274/111/163 282/100/163 281/108/163 273/112/163
f 273/112/164 281/108/164 280/106/164 272/113/164
f 272/113/165 280/106/165 279/97/165 271/96/165
f 289/96/176 297/97/176 287/98/176 285/99/176
f 300/100/177 288/101/177 284/102/177 293/103/177
f 287/98/178 297/97/178 296/104/178 286/105/178
f 297/97/179 298/106/179 295/107/179 296/104/179
f 298/106/180 299/108/180 294/109/180 295/107/180
f 299/108/181 300/100/181 293/103/181 294/109/181
f 283/110/182 288/101/182 300/100/182 292/111/182
f 292/111/183 300/100/183 299/108/183 291/112/183
f 291/112/184 299/108/184 298/106/184 290/113/184
f 290/113/185 298/106/185 297/97/185 289/96/185
f 307/96/186 315/97/186 305/98/186 303/99/186
f 318/100/187 306/101/187 302/102/187 311/103/187
f 305/98/188 315/97/188 314/104/188 304/105/188
f 315/97/189 316/106/189 313/107/189 314/104/189
f 316/106/190 317/108/190 312/109/190 313/107/190
f 317/108/191 318/100/191 311/103/191 312/109/191
f 301/110/192 306/101/192 318/100/192 310/111/192
f 310/111/193 318/100/193 317/108/193 309/112/193
f 309/112/194 317/108/194 316/106/194 308/113/194
f 308/113/195 316/106/195 315/97/195 307/96/195
f 325/96/196 333/97/196 323/98/196 321/99/196
f 336/100/197 324/101/197 320/102/197 329/103/197
f 323/98/198 333/97/198 332/104/198 322/105/198
f 333/97/199 334/106/199 331/107/199 332/104/199
f 334/106/200 335/108/200 330/109/200 331/107/200
f 335/108/201 336/100/201 329/103/201 330/109/201
f 319/110/202 324/101/202 336/100/202 328/111/202
f 328/111/203 336/100/203 335/108/203 327/112/203
f 327/112/204 335/108/204 334/106/204 326/113/204
f 326/113/205 334/106/205 333/97/205 325/96/205
f 343/96/206 351/97/206 341/98/206 339/99/206
f 354/100/207 342/101/207 338/102/207 347/103/207
f 341/98/208 351/97/208 350/104/208 340/105/208
f 351/97/209 352/106/209 349/107/209 350/104/209
f 352/106/210 353/108/210 348/109/210 349/107/210
f 353/108/211 354/100/211 347/103/211 348/109/211
f 337/110/212 342/101/212 354/100/212 346/111/212
f 346/111/213 354/100/213 353/108/213 345/112/213
f 345/112/214 353/108/214 352/106/214 344/113/214
f 344/113/215 352/106/215 351/97/215 343/96/215
f 361/96/216 369/97/216 359/98/216 357/99/216
f 372/100/217 360/101/217 356/102/217 365/103/217
f 359/98/218 369/97/218 368/104/218 358/105/218
f 369/97/219 370/106/219 367/107/219 368/104/219
f 370/106/220 371/108/220 366/109/220 367/107/220
f 371/108/221 372/100/221 365/103/221 366/109/221
f 355/110/222 360/101/222 372/100/222 364/111/222
f 364/111/223 372/100/223 371/108/223 363/112/223
f 363/112/224 371/108/224 370/106/224 362/113/224
f 362/113/225 370/106/225 369/97/225 361/96/225
f 379/96/216 387/97/216 377/98/216 375/99/216
f 390/100/217 378/101/217 374/102/217 383/103/217
f 377/98/218 387/97/218 386/104/218 376/105/218
f 387/97/226 388/106/226 385/107/226 386/104/226
f 388/106/220 389/108/220 384/109/220 385/107/220
f 389/108/221 390/100/221 383/103/221 384/109/221
f 373/110/222 378/101/222 390/100/222 382/111/222
f 382/111/223 390/100/223 389/108/223 381/112/223
f 381/112/224 389/108/224 388/106/224 380/113/224
f 380/113/225 388/106/225 387/97/225 379/96/225
f 397/96/227 405/97/227 395/98/227 393/99/227
f 408/100/228 396/101/228 392/102/228 401/103/228
f 395/98/229 405/97/229 404/104/229 394/105/229
f 405/97/230 406/106/230 403/107/230 404/104/230
f 406/106/231 407/108/231 402/109/231 403/107/231
f 407/108/232 408/100/232 401/103/232 402/109/232
f 391/110/233 396/101/233 408/100/233 400/111/233
f 400/111/234 408/100/234 407/108/234 399/112/234
f 399/112/235 407/108/235 406/106/235 398/113/235
f 398/113/236 406/106/236 405/97/236 397/96/236
f 415/96/237 423/97/237 413/98/237 411/99/237
f 426/100/238 414/101/238 410/102/238 419/103/238
f 413/98/239 423/97/239 422/104/239 412/105/239
f 423/97/240 424/106/240 421/107/240 422/104/240
f 424/106/241 425/108/241 420/109/241 421/107/241
f 425/108/242 426/100/242 419/103/242 420/109/242
f 409/110/243 414/101/243 426/100/243 418/111/243
f 418/111/244 426/100/244 425/108/244 417/112/244
f 417/112/245 425/108/245 424/106/245 416/113/245
f 416/113/246 424/106/246 423/97/246 415/96/246
f 433/96/237 441/97/237 431/98/237 429/99/237
f 444/100/238 432/101/238 428/102/238 437/103/238
f 431/98/239 441/97/239 440/104/239 430/105/239
f 441/97/240 442/106/240 439/107/240 440/104/240
f 442/106/241 443/108/241 438/109/241 439/107/241
f 443/108/242 444/100/242 437/103/242 438/109/242
f 427/110/243 432/101/243 444/100/243 436/111/243
f 436/111/244 444/100/244 443/108/244 435/112/244
f 435/112/245 443/108/245 442/106/245 434/113/245
f 434/113/246 442/106/246 441/97/246 433/96/246
f 451/96/247 459/97/247 449/98/247 447/99/247
f 462/100/248 450/101/248 446/102/248 455/103/248
f 449/98/249 459/97/249 458/104/249 448/105/249
f 459/97/250 460/106/250 457/107/250 458/104/250
f 460/106/251 461/108/251 456/109/251 457/107/251
f 461/108/252 462/100/252 455/103/252 456/109/252
f 445/110/253 450/101/253 462/100/253 454/111/253
f 454/111/254 462/100/254 461/108/254 453/112/254
f 453/112/255 461/108/255 460/106/255 452/113/255
f 452/113/256 460/106/256 459/97/256 451/96/256
f 469/96/257 477/97/257 467/98/257 465/99/257
f 480/100/258 468/101/258 464/102/258 473/103/258
f 467/98/259 477/97/259 476/104/259 466/105/259
f 477/97/260 478/106/260 475/107/260 476/104/260
f 478/106/261 479/108/261 474/109/261 475/107/261
f 479/108/262 480/100/262 473/103/262 474/109/262
f 463/110/263 468/101/263 480/100/263 472/111/263
f 472/111/264 480/100/264 479/108/264 471/112/264
f 471/112/265 479/108/265 478/106/265 470/113/265
f 470/113/266 478/106/266 477/97/266 469/96/266
f 487/96/267 495/97/267 485/98/267 483/99/267
f 498/100/268 486/101/268 482/102/268 491/103/268
f 485/98/269 495/97/269 494/104/269 484/105/269
f 495/97/270 496/106/270 493/107/270 494/104/270
f 496/106/271 497/108/271 492/109/271 493/107/271
f 497/108/272 498/100/272 491/103/272 492/109/272
f 481/110/273 486/101/273 498/100/273 490/111/273
f 490/111/274 498/100/274 497/108/274 489/112/274
f 489/112/275 497/108/275 496/106/275 488/113/275
f 488/113/276 496/106/276 495/97/276 487/96/276
f 505/96/277 513/97/277 503/98/277 501/99/277
f 516/100/278 504/101/278 500/102/278 509/103/278
f 503/98/279 513/97/279 512/104/279 502/105/279
f 513/97/280 514/106/280 511/107/280 512/104/280
f 514/106/281 515/108/281 510/109/281 511/107/281
f 515/108/282 516/100/282 509/103/282 510/109/282
f 499/110/283 504/101/283 516/100/283 508/111/283
f 508/111/284 516/100/284 515/108/284 507/112/284
f 507/112/285 515/108/285 514/106/285 506/113/285
f 506/113/286 514/106/286 513/97/286 505/96/286
f 523/96/277 531/97/277 521/98/277 519/99/277
f 534/100/278 522/101/278 518/102/278 527/103/278
f 521/98/279 531/97/279 530/104/279 520/105/279
f 531/97/280 532/106/280 529/107/280 530/104/280
f 532/106/281 533/108/281 528/109/281 529/107/281
f 533/108/282 534/100/282 527/103/282 528/109/282
f 517/110/283 522/101/283 534/100/283 526/111/283
f 526/111/284 534/100/284 533/108/284 525/112/284
f 525/112/285 533/108/285 532/106/285 524/113/285
f 524/113/286 532/106/286 531/97/286 523/96/286
f 541/96/287 549/97/287 539/98/287 537/99/287
f 552/100/288 540/101/288 536/102/288 545/103/288
f 539/98/289 549/97/289 548/104/289 538/105/289
f 549/97/290 550/106/290 547/107/290 548/104/290
f 550/106/291 551/108/291 546/109/291 547/107/291
f 551/108/292 552/100/292 545/103/292 546/109/292
f 535/110/293 540/101/293 552/100/293 544/111/293
f 544/111/294 552/100/294 551/108/294 543/112/294
f 543/112/295 551/108/295 550/106/295 542/113/295
f 542/113/296 550/106/296 549/97/296 541/96/296
f 559/96/297 567/97/297 557/98/297 555/99/297
f 570/100/298 558/101/298 554/102/298 563/103/298
f 557/98/299 567/97/299 566/104/299 556/105/299
f 567/97/300 568/106/300 565/107/300 566/104/300
f 568/106/301 569/108/301 564/109/301 565/107/301
f 569/108/302 570/100/302 563/103/302 564/109/302
f 553/110/303 558/101/303 570/100/303 562/111/303
f 562/111/304 570/100/304 569/108/304 561/112/304
f 561/112/305 569/108/305 568/106/305 560/113/305
f 560/113/306 568/106/306 567/97/306 559/96/306
f 577/96/307 585/97/307 575/98/307 573/99/307
f 588/100/308 576/101/308 572/102/308 581/103/308
f 575/98/309 585/97/309 584/104/309 574/105/309
f 585/97/310 586/106/310 583/107/310 584/104/310
f 586/106/311 587/108/311 582/109/311 583/107/311
f 587/108/312 588/100/312 581/103/312 582/109/312
f 571/110/313 576/101/313 588/100/313 580/111/313
f 580/111/314 588/100/314 587/108/314 579/112/314
f 579/112/315 587/108/315 586/106/315 578/113/315
f 578/113/316 586/106/316 585/97/316 577/96/316
f 595/96/317 603/97/317 593/98/317 591/99/317
f 606/100/318 594/101/318 590/102/318 599/103/318
f 593/98/319 603/97/319 602/104/319 592/105/319
f 603/97/320 604/106/320 601/107/320 602/104/320
f 604/106/321 605/108/321 600/109/321 601/107/321
f 605/108/322 606/100/322 599/103/322 600/109/322
f 589/110/323 594/101/323 606/100/323 598/111/323
f 598/111/324 606/100/324 605/108/324 597/112/324
f 597/112/325 605/108/325 604/106/325 596/113/325
f 596/113/326 604/106/326 603/97/326 595/96/326
f 613/96/307 621/97/307 611/98/307 609/99/307
f 624/100/308 612/101/308 608/102/308 617/103/308
f 611/98/309 621/97/309 620/104/309 610/105/309
f 621/97/310 622/106/310 619/107/310 620/104/310
f 622/106/311 623/108/311 618/109/311 619/107/311
f 623/108/312 624/100/312 617/103/312 618/109/312
f 607/110/313 612/101/313 624/100/313 616/111/313
f 616/111/314 624/100/314 623/108/314 615/112/314
f 615/112/315 623/108/315 622/106/315 614/113/315
f 614/113/316 622/106/316 621/97/316 613/96/316
f 631/96/327 639/97/327 629/98/327 627/99/327
f 642/100/328 630/101/328 626/102/328 635/103/328
f 629/98/329 639/97/329 638/104/329 628/105/329
f 639/97/330 640/106/330 637/107/330 638/104/330
f 640/106/331 641/108/331 636/109/331 637/107/331
f 641/108/332 642/100/332 635/103/332 636/109/332
f 625/110/333 630/101/333 642/100/333 634/111/333
f 634/111/334 642/100/334 641/108/334 633/112/334
f 633/112/335 641/108/335 640/106/335 632/113/335
f 632/113/336 640/106/336 639/97/336 631/96/336
f 649/96/337 657/97/337 647/98/337 645/99/337
f 660/100/338 648/101/338 644/102/338 653/103/338
f 647/98/339 657/97/339 656/104/339 646/105/339
f 657/97/340 658/106/340 655/107/340 656/104/340
f 658/106/341 659/108/341 654/109/341 655/107/341
f 659/108/342 660/100/342 653/103/342 654/109/342
f 643/110/343 648/101/343 660/100/343 652/111/343
f 652/111/344 660/100/344 659/108/344 651/112/344
f 651/112/345 659/108/345 658/106/345 650/113/345
f 650/113/346 658/106/346 657/97/346 649/96/346
f 667/96/347 675/97/347 665/98/347 663/99/347
f 678/100/348 666/101/348 662/102/348 671/103/348
f 665/98/349 675/97/349 674/104/349 664/105/349
f 675/97/350 676/106/350 673/107/350 674/104/350
f 676/106/351 677/108/351 672/109/351 673/107/351
f 677/108/352 678/100/352 671/103/352 672/109/352
f 661/110/353 666/101/353 678/100/353 670/111/353
f 670/111/354 678/100/354 677/108/354 669/112/354
f 669/112/355 677/108/355 676/106/355 668/113/355
f 668/113/356 676/106/356 675/97/356 667/96/356
f 685/96/357 693/97/357 683/98/357 681/99/357
f 696/100/358 684/101/358 680/102/358 689/103/358
f 683/98/359 693/97/359 692/104/359 682/105/359
f 693/97/360 694/106/360 691/107/360 692/104/360
f 694/106/361 695/108/361 690/109/361 691/107/361
f 695/108/362 696/100/362 689/103/362 690/109/362
f 679/110/363 684/101/363 696/100/363 688/111/363
f 688/111/364 696/100/364 695/108/364 687/112/364
f 687/112/365 695/108/365 694/106/365 686/113/365
f 686/113/366 694/106/366 693/97/366 685/96/366
f 703/96/367 711/97/367 701/98/367 699/99/367
f 714/100/368 702/101/368 698/102/368 707/103/368
f 701/98/369 711/97/369 710/104/369 700/105/369
f 711/97/370 712/106/370 709/107/370 710/104/370
f 712/106/371 713/108/371 708/109/371 709/107/371
f 713/108/372 714/100/372 707/103/372 708/109/372
f 697/110/373 702/101/373 714/100/373 706/111/373
f 706/111/374 714/100/374 713/108/374 705/112/374
f 705/112/375 713/108/375 712/106/375 704/113/375
f 704/113/376 712/106/376 711/97/376 703/96/376
f 721/96/377 729/97/377 719/98/377 717/99/377
f 732/100/378 720/101/378 716/102/378 725/103/378
f 719/98/379 729/97/379 728/104/379 718/105/379
f 729/97/380 730/106/380 727/107/380 728/104/380
f 730/106/381 731/108/381 726/109/381 727/107/381
f 731/108/382 732/100/382 725/103/382 726/109/382
f 715/110/383 720/101/383 732/100/383 724/111/383
f 724/111/384 732/100/384 731/108/384 723/112/384
f 723/112/385 731/108/385 730/106/385 722/113/385
f 722/113/386 730/106/386 729/97/386 721/96/386
f 739/96/387 747/97/387 737/98/387 735/99/387
f 750/100/388 738/101/388 734/102/388 743/103/388
f 737/98/389 747/97/389 746/104/389 736/105/389
f 747/97/390 748/106/390 745/107/390 746/104/390
f 748/106/391 749/108/391 744/109/391 745/107/391
f 749/108/392 750/100/392 743/103/392 744/109/392
f 733/110/393 738/101/393 750/100/393 742/111/393
f 742/111/394 750/100/394 749/108/394 741/112/394
f 741/112/395 749/108/395 748/106/395 740/113/395
f 740/113/396 748/106/396 747/97/396 739/96/396
f 757/96/397 765/97/397 755/98/397 753/99/397
f 768/100/398 756/101/398 752/102/398 761/103/398
f 755/98/399 765/97/399 764/104/399 754/105/399
f 765/97/400 766/106/400 763/107/400 764/104/400
f 766/106/401 767/108/401 762/109/401 763/107/401
f 767/108/402 768/100/402 761/103/402 762/109/402
f 751/110/403 756/101/403 768/100/403 760/111/403
f 760/111/404 768/100/404 767/108/404 759/112/404
f 759/112/405 767/108/405 766/106/405 758/113/405
f 758/113/406 766/106/406 765/97/406 757/96/406
f 775/96/407 783/97/407 773/98/407 771/99/407
f 786/100/408 774/101/408 770/102/408 779/103/408
f 773/98/409 783/97/409 782/104/409 772/105/409
f 783/97/410 784/106/410 781/107/410 782/104/410
f 784/106/411 785/108/411 780/109/411 781/107/411
f 785/108/412 786/100/412 779/103/412 780/109/412
f 769/110/413 774/101/413 786/100/413 778/111/413
f 778/111/414 786/100/414 785/108/414 777/112/414
f 777/112/415 785/108/415 784/106/415 776/113/415
f 776/113/416 784/106/416 783/97/416 775/96/416
f 793/96/417 801/97/417 791/98/417 789/99/417
f 804/100/418 792/101/418 788/102/418 797/103/418
f 791/98/419 801/97/419 800/104/419 790/105/419
f 801/97/420 802/106/420 799/107/420 800/104/420
f 802/106/421 803/108/421 798/109/421 799/107/421
f 803/108/422 804/100/422 797/103/422 798/109/422
f 787/110/423 792/101/423 804/100/423 796/111/423
f 796/111/424 804/100/424 803/108/424 795/112/424
f 795/112/425 803/108/425 802/106/425 794/113/425
f 794/113/426 802/106/426 801/97/426 793/96/426
f 811/96/427 819/97/427 809/98/427 807/99/427
f 822/100/428 810/101/428 806/102/428 815/103/428
f 809/98/429 819/97/429 818/104/429 808/105/429
f 819/97/430 820/106/430 817/107/430 818/104/430
f 820/106/431 821/108/431 816/109/431 817/107/431
f 821/108/432 822/100/432 815/103/432 816/109/432
f 805/110/433 810/101/433 822/100/433 814/111/433
f 814/111/434 822/100/434 821/108/434 813/112/434
f 813/112/435 821/108/435 820/106/435 812/113/435
f 812/113/436 820/106/436 819/97/436 811/96/436
f 829/96/437 837/97/437 827/98/437 825/99/437
f 840/100/438 828/101/438 824/102/438 833/103/438
f 827/98/439 837/97/439 836/104/439 826/105/439
f 837/97/440 838/106/440 835/107/440 836/104/440
f 838/106/441 839/108/441 834/109/441 835/107/441
f 839/108/442 840/100/442 833/103/442 834/109/442
f 823/110/443 828/101/443 840/100/443 832/111/443
f 832/111/444 840/100/444 839/108/444 831/112/444
f 831/112/445 839/108/445 838/106/445 830/113/445
f 830/113/446 838/106/446 837/97/446 829/96/446
f 847/96/447 855/97/447 845/98/447 843/99/447
f 858/100/448 846/101/448 842/102/448 851/103/448
f 845/98/449 855/97/449 854/104/449 844/105/449
f 855/97/450 856/106/450 853/107/450 854/104/450
f 856/106/451 857/108/451 852/109/451 853/107/451
f 857/108/452 858/100/452 851/103/452 852/109/452
f 841/110/453 846/101/453 858/100/453 850/111/453
f 850/111/454 858/100/454 857/108/454 849/112/454
f 849/112/455 857/108/455 856/106/455 848/113/455
f 848/113/456 856/106/456 855/97/456 847/96/456
f 865/96/457 873/97/457 863/98/457 861/99/457
f 876/100/458 864/101/458 860/102/458 869/103/458
f 863/98/459 873/97/459 872/104/459 862/105/459
f 873/97/460 874/106/460 871/107/460 872/104/460
f 874/106/461 875/108/461 870/109/461 871/107/461
f 875/108/462 876/100/462 869/103/462 870/109/462
f 859/110/463 864/101/463 876/100/463 868/111/463
f 868/111/464 876/100/464 875/108/464 867/112/464
f 867/112/465 875/108/465 874/106/465 866/113/465
f 866/113/466 874/106/466 873/97/466 865/96/466
f 883/96/467 891/97/467 881/98/467 879/99/467
f 894/100/468 882/101/468 878/102/468 887/103/468
f 881/98/469 891/97/469 890/104/469 880/105/469
f 891/97/470 892/106/470 889/107/470 890/104/470
f 892/106/471 893/108/471 888/109/471 889/107/471
f 893/108/472 894/100/472 887/103/472 888/109/472
f 877/110/473 882/101/473 894/100/473 886/111/473
f 886/111/474 894/100/474 893/108/474 885/112/474
f 885/112/475 893/108/475 892/106/475 884/113/475
f 884/113/476 892/106/476 891/97/476 883/96/476
f 901/96/477 909/97/477 899/98/477 897/99/477
f 912/100/478 900/101/478 896/102/478 905/103/478
f 899/98/479 909/97/479 908/104/479 898/105/479
f 909/97/480 910/106/480 907/107/480 908/104/480
f 910/106/481 911/108/481 906/109/481 907/107/481
f 911/108/482 912/100/482 905/103/482 906/109/482
f 895/110/483 900/101/483 912/100/483 904/111/483
f 904/111/484 912/100/484 911/108/484 903/112/484
f 903/112/485 911/108/485 910/106/485 902/113/485
f 902/113/486 910/106/486 909/97/486 901/96/486
f 919/96/487 927/97/487 917/98/487 915/99/487
f 930/100/488 918/101/488 914/102/488 923/103/488
f 917/98/489 927/97/489 926/104/489 916/105/489
f 927/97/490 928/106/490 925/107/490 926/104/490
f 928/106/491 929/108/491 924/109/491 925/107/491
f 929/108/492 930/100/492 923/103/492 924/109/492
f 913/110/493 918/101/493 930/100/493 922/111/493
f 922/111/494 930/100/494 929/108/494 921/112/494
f 921/112/495 929/108/495 928/106/495 920/113/495
f 920/113/496 928/106/496 927/97/496 919/96/496
f 937/96/497 945/97/497 935/98/497 933/99/497
f 948/100/498 936/101/498 932/102/498 941/103/498
f 935/98/499 945/97/499 944/104/499 934/105/499
f 945/97/500 946/106/500 943/107/500 944/104/500
f 946/106/501 947/108/501 942/109/501 943/107/501
f 947/108/502 948/100/502 941/103/502 942/109/502
f 931/110/503 936/101/503 948/100/503 940/111/503
f 940/111/504 948/100/504 947/108/504 939/112/504
f 939/112/505 947/108/505 946/106/505 938/113/505
f 938/113/506 946/106/506 945/97/506 937/96/506
f 955/96/507 963/97/507 953/98/507 951/99/507
f 966/100/508 954/101/508 950/102/508 959/103/508
f 953/98/509 963/97/509 962/104/509 952/105/509
f 963/97/510 964/106/510 961/107/510 962/104/510
f 964/106/511 965/108/511 960/109/511 961/107/511
f 965/108/512 966/100/512 959/103/512 960/109/512
f 949/110/513 954/101/513 966/100/513 958/111/513
f 958/111/514 966/100/514 965/108/514 957/112/514
f 957/112/515 965/108/515 964/106/515 956/113/515
f 956/113/516 964/106/516 963/97/516 955/96/516
f 973/96/517 981/97/517 971/98/517 969/99/517
f 984/100/518 972/101/518 968/102/518 977/103/518
f 971/98/519 981/97/519 980/104/519 970/105/519
f 981/97/520 982/106/520 979/107/520 980/104/520
f 982/106/521 983/108/521 978/109/521 979/107/521
f 983/108/522 984/100/522 977/103/522 978/109/522
f 967/110/523 972/101/523 984/100/523 976/111/523
f 976/111/524 984/100/524 983/108/524 975/112/524
f 975/112/525 983/108/525 982/106/525 974/113/525
f 974/113/526 982/106/526 981/97/526 973/96/526
f 991/96/527 999/97/527 989/98/527 987/99/527
f 1002/100/528 990/101/528 986/102/528 995/103/528
f 989/98/529 999/97/529 998/104/529 988/105/529
f 999/97/530 1000/106/530 997/107/530 998/104/530
f 1000/106/531 1001/108/531 996/109/531 997/107/531
f 1001/108/532 1002/100/532 995/103/532 996/109/532
f 985/110/533 990/101/533 1002/100/533 994/111/533
f 994/111/534 1002/100/534 1001/108/534 993/112/534
f 993/112/535 1001/108/535 1000/106/535 992/113/535
f 992/113/536 1000/106/536 999/97/536 991/96/536
f 1009/96/537 1017/97/537 1007/98/537 1005/99/537
f 1020/100/538 1008/101/538 1004/102/538 1013/103/538
f 1007/98/539 1017/97/539 1016/104/539 1006/105/539
f 1017/97/540 1018/106/540 1015/107/540 1016/104/540
f 1018/106/541 1019/108/541 1014/109/541 1015/107/541
f 1019/108/542 1020/100/542 1013/103/542 1014/109/542
f 1003/110/543 1008/101/543 1020/100/543 1012/111/543
f 1012/111/544 1020/100/544 1019/108/544 1011/112/544
f 1011/112/545 1019/108/545 1018/106/545 1010/113/545
f 1010/113/546 1018/106/546 1017/97/546 1009/96/546
f 1027/96/547 1035/97/547 1025/98/547 1023/99/547
f 1038/100/548 1026/101/548 1022/102/548 1031/103/548
f 1025/98/549 1035/97/549 1034/104/549 1024/105/549
f 1035/97/550 1036/106/550 1033/107/550 1034/104/550
f 1036/106/551 1037/108/551 1032/109/551 1033/107/551
f 1037/108/552 1038/100/552 1031/103/552 1032/109/552
f 1021/110/553 1026/101/553 1038/100/553 1030/111/553
f 1030/111/554 1038/100/554 1037/108/554 1029/112/554
f 1029/112/555 1037/108/555 1036/106/555 1028/113/555
f 1028/113/556 1036/106/556 1035/97/556 1027/96/556
f 1045/96/557 1053/97/557 1043/98/557 1041/99/557
f 1056/100/558 1044/101/558 1040/102/558 1049/103/558
f 1043/98/559 1053/97/559 1052/104/559 1042/105/559
f 1053/97/560 1054/106/560 1051/107/560 1052/104/560
f 1054/106/561 1055/108/561 1050/109/561 1051/107/561
f 1055/108/562 1056/100/562 1049/103/562 1050/109/562
f 1039/110/563 1044/101/563 1056/100/563 1048/111/563
f 1048/111/564 1056/100/564 1055/108/564 1047/112/564
f 1047/112/565 1055/108/565 1054/106/565 1046/113/565
f 1046/113/566 1054/106/566 1053/97/566 1045/96/566
f 1063/96/567 1071/97/567 1061/98/567 1059/99/567
f 1074/100/568 1062/101/568 1058/102/568 1067/103/568
f 1061/98/569 1071/97/569 1070/104/569 1060/105/569
f 1071/97/570 1072/106/570 1069/107/570 1070/104/570
f 1072/106/571 1073/108/571 1068/109/571 1069/107/571
f 1073/108/572 1074/100/572 1067/103/572 1068/109/572
f 1057/110/573 1062/101/573 1074/100/573 1066/111/573
f 1066/111/574 1074/100/574 1073/108/574 1065/112/574
f 1065/112/575 1073/108/575 1072/106/575 1064/113/575
f 1064/113/576 1072/106/576 1071/97/576 1063/96/576
