# Blender 5.0.1
# www.blender.org
mtllib stone_3.mtl
o stone_3
v -0.552894 1.725693 -1.582170
v 1.215120 0.577728 -0.731349
v 0.380861 -0.136283 -1.802815
v -1.080681 0.111893 -0.309880
v 0.245248 0.907234 0.586528
v 0.562357 1.303516 -1.303118
v -1.194016 0.979659 -0.832534
v -0.040845 1.447465 -0.068190
v -0.172404 1.020822 -2.002741
v -0.745421 0.666285 0.469255
v 0.438782 0.152719 0.413522
v 1.062996 -0.061751 -1.499640
v -0.505793 -0.131944 0.174562
v 0.902014 0.897483 0.275437
v -1.171360 0.845680 -0.409835
v -0.528517 -0.348242 -1.095016
v 1.024851 1.010511 -0.072764
v -0.840728 0.300425 0.570192
v 0.901991 0.123250 -1.656114
v -0.313329 -0.177287 -1.543278
v 0.889852 -0.094503 -0.657347
v 0.629518 1.041940 0.433384
v -1.181118 0.783447 -1.130390
v 0.318547 -0.310392 -0.703847
v 0.207555 1.642375 -1.353549
v 0.939680 0.756676 -1.292592
v -0.303124 1.294348 -1.967768
v 0.160626 0.467775 -2.010097
v -1.024747 1.303663 -1.393226
v -1.224921 0.556416 -0.811990
v -0.204012 1.672148 -0.686892
v 0.007966 1.241765 0.263074
v -0.022841 1.724358 -0.969938
v 0.742326 1.286858 -0.347041
v -0.313885 1.559757 -1.892816
v -0.824633 1.422694 -1.696039
v -0.851110 1.597363 -0.962233
v -0.632295 0.558914 0.610774
v -0.029101 0.291635 0.631430
v 1.293923 0.190381 -1.138132
v -0.731275 -0.207225 -0.316246
v -0.082799 -0.089320 0.135816
v 1.122365 0.656194 -0.153204
v 0.576499 0.801745 0.547919
v -1.197715 0.465140 -0.193564
v -0.947257 0.995404 -0.199202
v -0.083871 -0.339982 -1.474734
v -0.849708 -0.176589 -0.693968
v -0.897840 0.003748 0.195320
v -0.426258 0.402298 0.656085
v 0.485144 0.197651 -1.913688
v 0.363564 0.790261 -1.685391
v -0.006604 0.098641 -1.880809
v -0.591630 0.438802 -1.550697
v 1.202618 0.050896 -0.836171
v 0.715277 1.154859 0.150120
v -1.003139 0.025173 -0.839010
v 0.641489 -0.263532 -1.304095
v 0.122217 1.443609 -1.662536
v -0.406940 0.929666 -1.923458
v -0.440609 0.708803 -1.855449
v -1.064267 0.914057 -1.350431
v -0.649183 1.145190 -0.018199
v 0.874598 1.237581 -0.623602
v 0.674576 1.391851 -0.829710
v 1.023626 -0.127296 -1.013125
v -0.333511 -0.394403 -0.919194
v -0.475171 -0.028276 0.454552
v 0.760941 0.178012 0.224965
v 0.833079 0.319971 0.285143
v 1.170569 0.392035 -1.336158
v -0.886993 0.202439 -1.194086
v -0.703335 -0.148379 -1.256491
v -0.925417 0.473561 0.464466
v -1.048779 1.348633 -1.002487
v 0.505965 0.333380 0.544860
v 1.053392 0.260959 -0.092628
v -1.050060 0.296124 0.295783
vn -0.3009 0.8620 -0.4079
vn 0.9704 0.2416 -0.0034
vn 0.1291 -0.6997 -0.7027
vn -0.8461 -0.5286 0.0687
vn 0.0217 0.4404 0.8976
vn 0.7006 0.5537 -0.4500
vn -0.9658 0.2581 0.0248
vn -0.0489 0.8933 0.4467
vn 0.1186 0.1007 -0.9878
vn -0.4415 0.6098 0.6582
vn 0.2858 -0.7671 0.5743
vn 0.6762 -0.5511 -0.4889
vn -0.0956 -0.9455 0.3112
vn 0.7581 0.2697 0.5937
vn -0.8958 0.3577 0.2638
vn -0.4050 -0.8906 -0.2067
vn 0.8208 0.5151 0.2468
vn -0.5050 -0.2279 0.8325
vn 0.5837 -0.0021 -0.8120
vn -0.4643 -0.5693 -0.6785
vn 0.4192 -0.8597 0.2918
vn 0.3864 0.6204 0.6825
vn -0.9281 -0.0957 -0.3599
vn 0.1914 -0.9637 0.1863
vn 0.4437 0.8522 -0.2772
vn 0.7150 0.4701 -0.5175
vn -0.1031 0.2561 -0.9611
vn 0.1548 0.0265 -0.9876
vn -0.8711 0.3645 -0.3292
vn -0.9759 -0.1728 -0.1333
vn -0.0871 0.9490 0.3030
vn -0.1408 0.7515 0.6445
vn 0.1650 0.9816 0.0960
vn 0.4675 0.8612 0.1993
vn -0.0952 0.5589 -0.8237
vn -0.6809 0.3278 -0.6550
vn -0.5475 0.8218 0.1580
vn -0.2870 0.3514 0.8911
vn 0.1036 -0.3231 0.9407
vn 0.9765 -0.1416 -0.1624
vn -0.4081 -0.8970 0.1697
vn 0.1852 -0.9184 0.3497
vn 0.9545 0.0474 0.2945
vn 0.4029 0.1105 0.9085
vn -0.9773 -0.0607 0.2029
vn -0.6777 0.5915 0.4368
vn -0.1041 -0.8952 -0.4334
vn -0.6098 -0.7924 -0.0125
vn -0.6089 -0.7143 0.3449
vn -0.0679 -0.1079 0.9918
vn 0.3655 -0.0626 -0.9287
vn 0.5707 0.3467 -0.7444
vn -0.2730 -0.4079 -0.8713
vn -0.6564 -0.3199 -0.6833
vn 0.8315 -0.5161 0.2055
vn 0.4399 0.8163 0.3742
vn -0.8294 -0.5117 -0.2242
vn 0.2487 -0.9597 -0.1311
vn 0.5149 0.5476 -0.6595
vn -0.4325 -0.0694 -0.8990
vn -0.5443 -0.2613 -0.7972
vn -0.7874 -0.1449 -0.5991
vn -0.4513 0.7129 0.5367
vn 0.7440 0.6652 -0.0635
vn 0.6208 0.7790 -0.0887
vn 0.5292 -0.8460 0.0652
vn -0.0876 -0.9954 0.0385
vn -0.0874 -0.7603 0.6436
vn 0.4715 -0.7408 0.4785
vn 0.6979 -0.3263 0.6375
vn 0.7848 0.3313 -0.5237
vn -0.7404 -0.3261 -0.5878
vn -0.6538 -0.5454 -0.5245
vn -0.7236 0.3142 0.6146
vn -0.8459 0.5315 0.0441
vn 0.3743 -0.3202 0.8703
vn 0.8242 -0.4218 0.3779
vn -0.8933 -0.1795 0.4121
vt 0.457128 0.646328
vt 0.477035 0.542359
vt 0.540875 0.616628
vt 0.565582 0.164708
vt 0.635601 0.141241
vt 0.629193 0.250552
vt 0.905031 0.510526
vt 0.867426 0.538365
vt 0.905031 0.438370
vt 0.518677 0.574388
vt 0.386626 0.484771
vt 0.317836 0.473492
vt 0.295877 0.413075
vt 0.379221 0.413282
vt 0.444147 0.243937
vt 0.487113 0.241478
vt 0.355076 0.348070
vt 0.416709 0.092042
vt 0.540875 0.123393
vt 0.373731 0.212934
vt 0.288772 0.284736
vt 0.168877 0.964565
vt 0.156874 0.900932
vt 0.239521 0.976515
vt 0.804796 0.331181
vt 0.808650 0.283198
vt 0.856091 0.374922
vt 0.864663 0.262286
vt 0.302531 0.163149
vt 0.369679 0.067677
vt 0.298301 0.054867
vt 0.241529 0.135843
vt 0.178132 0.074734
vt 0.901308 0.324946
vt 0.891856 0.193882
vt 0.192102 0.007495
vt 0.864688 0.125029
vt 0.290234 0.841670
vt 0.170593 0.833948
vt 0.290234 0.723035
vt 0.789117 0.770871
vt 0.847387 0.743871
vt 0.851891 0.924315
vt 0.962390 0.749339
vt 0.953133 0.683171
vt 0.794429 0.640874
vt 0.802579 0.605659
vt 0.163868 0.776686
vt 0.153931 0.849469
vt 0.115727 0.694155
vt 0.156874 0.734541
vt 0.010468 0.843816
vt 0.034970 0.927631
vt 0.059201 0.975554
vt 0.156874 0.699881
vt 0.000000 0.759944
vt 0.751567 0.219869
vt 0.743989 0.323967
vt 0.540875 0.270287
vt 0.541991 0.211585
vt 0.204134 0.495566
vt 0.192548 0.420005
vt 0.127118 0.476963
vt 0.111849 0.335096
vt 0.189274 0.250548
vt 0.227424 0.234613
vt 0.257009 0.317504
vt 0.694715 0.681830
vt 0.745089 0.628397
vt 0.745089 0.837284
vt 0.200993 0.157699
vt 0.139655 0.143658
vt 0.045908 0.127952
vt 0.085440 0.064467
vt 0.705275 0.594732
vt 0.419561 0.713820
vt 0.475978 0.754516
vt 0.421329 0.856223
vt 0.607907 0.614438
vt 0.589745 0.702439
vt 0.552660 0.689113
vt 0.540875 0.758982
vt 0.569262 0.760504
vt 0.554113 0.832215
vt 0.026109 0.000000
vt 0.092177 0.002565
vt 0.376619 0.702340
vt 0.389713 0.646328
vt 0.950603 0.037614
vt 0.948337 0.182936
vt 0.749981 0.632875
vt 0.295139 0.841064
vt 0.346843 0.868948
vt 0.324084 0.908922
vt 0.376619 0.936421
vt 0.681186 0.334089
vt 0.753522 0.390063
vt 0.246386 0.504566
vt 0.804796 0.047840
vt 0.736874 0.094764
vt 0.762270 0.000000
vt 0.368889 0.565527
vt 0.261747 0.623628
vt 0.833483 0.442139
vt 0.804796 0.554670
vt 0.507962 0.508247
vt 0.239521 0.857880
vt 0.187706 0.841670
vt 0.840374 0.438371
vt 0.810713 0.216256
vt 0.956394 0.864505
vt 0.950603 0.348455
vt 0.962390 0.595077
vt 0.156874 0.916024
vt 0.128783 1.000000
vt 0.773067 0.169119
vt 0.277515 0.652009
vt 0.191811 0.646328
vt 0.055225 0.646328
vt 0.356648 0.728458
vt 0.290234 0.775787
vt 0.333662 0.681103
vt 0.376619 0.646328
vt 0.150756 0.554406
vt 0.094291 0.523983
vt 0.621560 0.948451
vt 0.654902 0.891115
vt 0.674397 0.953363
vt 0.475978 0.656019
vt 0.000000 0.093210
vt 0.767099 0.464206
vt 0.804796 0.511635
vt 0.722438 0.594732
vt 0.695618 0.504471
vt 0.665306 0.438740
vt 0.625333 0.373787
vt 0.204757 0.574075
vt 0.268015 0.213952
vt 0.903436 0.040870
vt 0.946543 0.000000
vt 0.745089 0.594732
vt 0.347012 0.815247
s 1
usemtl stone_1
f 59/1/59 9/2/9 35/3/35
f 71/4/71 26/5/26 2/6/2
f 35/7/35 27/8/27 1/9/1
f 9/2/9 27/10/27 35/3/35
f 28/11/28 51/12/51 3/13/3
f 53/14/53 28/11/28 3/13/3
f 61/15/61 60/16/60 53/17/53
f 62/18/62 36/19/36 61/15/61
f 54/20/54 61/15/61 20/21/20
f 36/22/36 29/23/29 1/24/1
f 62/25/62 23/26/23 29/27/29
f 29/27/29 23/26/23 7/28/7
f 72/29/72 23/30/23 62/18/62
f 30/31/30 57/32/57 4/33/4
f 30/31/30 23/30/23 57/32/57
f 7/28/7 75/34/75 29/27/29
f 7/28/7 15/35/15 75/34/75
f 4/33/4 45/36/45 30/31/30
f 45/37/45 15/35/15 7/28/7
f 37/38/37 31/39/31 1/40/1
f 46/41/46 63/42/63 37/43/37
f 8/44/8 63/42/63 32/45/32
f 63/42/63 10/46/10 38/47/38
f 31/39/31 33/48/33 1/40/1
f 8/49/8 33/50/33 31/51/31
f 34/52/34 33/50/33 56/53/56
f 56/53/56 8/49/8 22/54/22
f 33/48/33 25/55/25 1/40/1
f 34/52/34 65/56/65 33/50/33
f 2/6/2 64/57/64 17/58/17
f 2/6/2 55/59/55 40/60/40
f 12/61/12 58/62/58 3/13/3
f 58/62/58 66/63/66 24/64/24
f 24/64/24 67/65/67 58/62/58
f 67/65/67 16/66/16 47/67/47
f 42/68/42 13/69/13 24/70/24
f 48/71/48 41/72/41 4/33/4
f 41/72/41 67/65/67 13/73/13
f 41/72/41 49/74/49 4/33/4
f 13/73/13 49/74/49 41/72/41
f 42/68/42 68/75/68 13/69/13
f 50/76/50 39/77/39 5/78/5
f 39/79/39 68/75/68 11/80/11
f 11/80/11 76/81/76 39/79/39
f 70/82/70 69/83/69 77/84/77
f 40/60/40 71/4/71 2/6/2
f 57/32/57 48/71/48 4/33/4
f 18/85/18 78/86/78 49/74/49
f 38/87/38 50/76/50 5/78/5
f 38/87/38 18/88/18 50/76/50
f 15/35/15 74/89/74 46/90/46
f 74/91/74 10/46/10 63/42/63
f 14/92/14 22/93/22 44/94/44
f 44/94/44 22/93/22 5/95/5
f 17/58/17 43/96/43 2/6/2
f 17/58/17 14/97/14 43/96/43
f 19/98/19 51/12/51 28/11/28 9/2/9
f 25/99/25 6/100/6 59/101/59
f 26/5/26 59/101/59 6/100/6
f 52/102/52 9/2/9 59/1/59
f 52/102/52 59/1/59 26/103/26
f 52/102/52 19/98/19 9/2/9
f 36/104/36 1/9/1 27/8/27 60/105/60
f 9/2/9 28/11/28 53/14/53 60/106/60
f 27/10/27 9/2/9 60/106/60
f 60/16/60 61/15/61 36/19/36
f 20/21/20 61/15/61 53/17/53
f 37/107/37 1/24/1 29/23/29 75/108/75
f 54/20/54 62/18/62 61/15/61
f 36/109/36 62/25/62 29/27/29
f 54/20/54 72/29/72 62/18/62
f 7/28/7 23/26/23 30/110/30
f 8/44/8 31/111/31 37/43/37 63/42/63
f 75/34/75 15/35/15 37/112/37
f 30/110/30 45/37/45 7/28/7
f 46/90/46 37/112/37 15/35/15
f 38/47/38 5/113/5 32/45/32 63/42/63
f 32/114/32 5/115/5 22/54/22 8/49/8
f 65/116/65 64/57/64 26/5/26 6/100/6
f 56/53/56 33/50/33 8/49/8
f 35/117/35 1/40/1 25/55/25 59/118/59
f 33/50/33 65/56/65 25/119/25
f 25/99/25 65/116/65 6/100/6
f 34/120/34 17/121/17 64/122/64
f 34/120/34 64/122/64 65/123/65
f 26/5/26 64/57/64 2/6/2
f 66/63/66 12/61/12 40/124/40 55/125/55
f 55/126/55 21/127/21 66/128/66
f 69/83/69 42/68/42 24/70/24 21/127/21
f 47/67/47 3/13/3 58/62/58 67/65/67
f 24/70/24 66/128/66 21/127/21
f 12/61/12 66/63/66 58/62/58
f 67/65/67 41/72/41 48/71/48 16/66/16
f 24/64/24 13/73/13 67/65/67
f 68/129/68 39/77/39 50/76/50 18/88/18
f 49/74/49 13/73/13 68/130/68
f 49/74/49 68/130/68 18/85/18
f 11/80/11 68/75/68 42/68/42
f 44/131/44 5/132/5 39/133/39 76/134/76
f 69/83/69 70/82/70 76/81/76 11/80/11
f 70/135/70 14/97/14 44/131/44 76/134/76
f 55/59/55 2/6/2 43/96/43 77/136/77
f 42/68/42 69/83/69 11/80/11
f 77/136/77 43/96/43 14/97/14 70/135/70
f 21/127/21 55/126/55 77/84/77 69/83/69
f 71/137/71 40/124/40 12/61/12 19/98/19
f 19/98/19 12/61/12 3/13/3 51/12/51
f 19/98/19 52/102/52 26/103/26 71/137/71
f 53/17/53 3/13/3 47/67/47 20/21/20
f 20/21/20 47/67/47 16/66/16 73/138/73
f 16/66/16 48/71/48 57/32/57 73/138/73
f 23/30/23 72/29/72 57/32/57
f 57/32/57 72/29/72 73/138/73
f 73/138/73 72/29/72 54/20/54 20/21/20
f 45/36/45 4/33/4 49/74/49 78/86/78
f 74/89/74 15/35/15 45/37/45 78/139/78
f 78/139/78 18/140/18 74/89/74
f 74/91/74 18/141/18 38/47/38 10/46/10
f 14/92/14 17/121/17 56/142/56 22/93/22
f 46/41/46 74/91/74 63/42/63
f 34/120/34 56/142/56 17/121/17
