# Blender 5.0.1
# www.blender.org
mtllib stone_5.mtl
o stone_5
v -0.112500 0.011250 0.112500
v -0.053947 0.141621 0.068320
v -0.065838 0.011250 -0.112500
v -0.047642 0.118888 -0.112500
v 0.070123 0.011250 0.112500
v 0.019267 0.137983 0.067146
v 0.091073 0.011250 -0.112500
v 0.065282 0.118888 -0.112500
v 0.006471 0.007500 -0.125000
v 0.003482 0.122478 -0.125000
v -0.010866 0.007500 0.125000
v -0.113035 0.007500 -0.000000
v -0.057018 0.155762 -0.012856
v 0.108640 0.007500 -0.000000
v 0.061582 0.155095 -0.011629
v -0.005010 0.177781 -0.015182
v -0.000879 -0.000000 -0.000000
v -0.115483 0.055385 0.114921
v -0.064537 0.052600 -0.125000
v 0.092607 0.052600 -0.125000
v 0.060974 0.057496 0.113371
v -0.020994 0.054384 0.137595
v 0.006780 0.050620 -0.150000
v 0.119111 0.059519 -0.002326
v -0.121375 0.059519 -0.002326
v -0.121363 0.008142 0.070255
v -0.093402 0.098122 0.094394
v -0.052312 0.139307 -0.071862
v -0.066944 0.024874 -0.122859
v -0.037091 0.008142 -0.122859
v 0.039111 0.121904 -0.122859
v 0.096605 0.024874 -0.122859
v 0.105957 0.008142 -0.070255
v 0.038648 0.152463 0.037354
v 0.070939 0.025486 0.121405
v 0.039513 0.008142 0.122859
v 0.056207 0.008142 -0.122859
v -0.028051 0.121904 -0.122859
v -0.071613 0.008142 0.122859
v -0.006358 0.000937 0.071875
v -0.013762 0.024611 0.145324
v 0.007480 0.024140 -0.146875
v -0.089009 0.008142 -0.070255
v -0.063596 0.155287 0.033804
v 0.091431 0.008142 0.070255
v 0.069420 0.139223 -0.071708
v 0.002641 0.157051 -0.073773
v 0.003611 0.000937 -0.071875
v -0.065105 0.000937 -0.000000
v 0.026065 0.174445 -0.013818
v -0.029133 0.175863 -0.016426
v 0.062358 0.000937 -0.000000
v 0.126245 0.025252 -0.000291
v -0.131033 0.025252 -0.000291
v -0.121669 0.025222 0.121599
v -0.057530 0.089432 -0.122859
v 0.079882 0.089432 -0.122859
v 0.037972 0.103284 0.089958
v 0.004891 0.084906 -0.146875
v 0.095034 0.110120 -0.006978
v -0.091928 0.110203 -0.007131
v -0.130475 0.058986 0.065091
v 0.117228 0.056435 -0.072166
v -0.031165 0.050867 -0.146875
v 0.022980 0.056356 0.133404
v -0.073138 0.051871 0.136699
v 0.096622 0.059250 0.064897
v 0.051624 0.050867 -0.146875
v -0.096611 0.056435 -0.072166
v -0.012087 0.144312 0.068849
v -0.025647 0.174670 0.028183
v -0.037703 0.095703 0.110822
v -0.077583 0.100833 -0.072361
v 0.045347 0.085357 -0.143866
v 0.071622 0.109089 0.050961
v -0.071525 0.095703 0.118383
v 0.051933 0.001840 0.071470
v -0.038739 0.176465 0.019034
v 0.003336 0.170699 0.032016
v -0.071405 0.001840 0.071470
v 0.001286 0.101207 0.105149
v -0.030303 0.085357 -0.143866
v -0.050816 0.001840 -0.071470
v 0.036210 0.154841 -0.073197
v -0.026348 0.155018 -0.073523
v 0.061863 0.001840 -0.071470
v 0.097696 0.100822 -0.072342
v -0.100115 0.108887 0.051052
v -0.140283 0.025307 0.070622
v 0.122658 0.024988 -0.071506
v -0.032001 0.024292 -0.143866
v 0.033496 0.024979 0.142182
v -0.073020 0.024418 0.142594
v 0.105018 0.025340 0.070598
v 0.054362 0.024292 -0.143866
v -0.102499 0.024988 -0.071506
vn -0.3805 -0.8553 0.3516
vn -0.2977 0.7675 0.5678
vn -0.4423 -0.7892 -0.4260
vn -0.6089 0.5826 -0.5384
vn 0.4561 -0.7703 0.4457
vn 0.3344 0.6847 0.6475
vn 0.4031 -0.8369 -0.3703
vn 0.5339 0.6356 -0.5577
vn -0.0024 -0.9226 -0.3859
vn -0.0032 0.6814 -0.7319
vn 0.0053 -0.9132 0.4074
vn -0.4596 -0.8809 -0.1131
vn -0.6988 0.6894 -0.1910
vn 0.4826 -0.8740 0.0570
vn 0.6320 0.7702 0.0862
vn 0.0380 0.9922 -0.1191
vn 0.0002 -1.0000 -0.0003
vn -0.6993 0.3970 0.5945
vn -0.7140 0.1125 -0.6911
vn 0.7107 0.1630 -0.6844
vn 0.5620 0.4579 0.6888
vn 0.0309 0.3884 0.9210
vn -0.0053 -0.0104 -0.9999
vn 0.9336 0.3322 0.1343
vn -0.9107 0.3491 -0.2207
vn -0.4549 -0.8881 0.0657
vn -0.6306 0.6180 0.4695
vn -0.6555 0.6694 -0.3497
vn -0.6521 -0.3002 -0.6962
vn -0.1672 -0.8859 -0.4327
vn 0.2131 0.6772 -0.7042
vn 0.6747 -0.3289 -0.6608
vn 0.4722 -0.8708 -0.1368
vn 0.4994 0.7440 0.4439
vn 0.6495 -0.1129 0.7519
vn 0.1670 -0.8696 0.4646
vn 0.1323 -0.9027 -0.4095
vn -0.2690 0.6576 -0.7036
vn -0.1112 -0.9030 0.4150
vn 0.0009 -0.9977 0.0685
vn 0.0170 -0.2946 0.9555
vn -0.0039 -0.4850 -0.8745
vn -0.4796 -0.8387 -0.2579
vn -0.6290 0.7573 0.1755
vn 0.5030 -0.8300 0.2410
vn 0.6213 0.7341 -0.2740
vn 0.0091 0.8962 -0.4436
vn -0.0005 -0.9976 -0.0691
vn -0.0798 -0.9967 -0.0151
vn 0.2913 0.9563 -0.0238
vn -0.3025 0.9344 -0.1882
vn 0.0834 -0.9965 0.0076
vn 0.9607 -0.2512 0.1184
vn -0.9404 -0.2540 -0.2259
vn -0.7113 -0.2393 0.6609
vn -0.6950 0.3337 -0.6369
vn 0.6516 0.3969 -0.6465
vn 0.4388 0.6038 0.6655
vn -0.0059 0.3004 -0.9538
vn 0.8355 0.5312 0.1403
vn -0.8332 0.5209 -0.1854
vn -0.9092 0.4064 0.0910
vn 0.9339 0.2718 -0.2324
vn -0.3211 0.0102 -0.9470
vn 0.2257 0.4474 0.8654
vn -0.2242 0.3542 0.9079
vn 0.8093 0.3971 0.4329
vn 0.2768 0.0369 -0.9602
vn -0.8734 0.2534 -0.4158
vn 0.0849 0.7306 0.6775
vn -0.0822 0.9306 0.3568
vn 0.0583 0.5977 0.7996
vn -0.8305 0.4375 -0.3448
vn 0.2515 0.3179 -0.9142
vn 0.6936 0.5638 0.4484
vn -0.2148 0.6005 0.7703
vn 0.0867 -0.9927 0.0844
vn -0.3725 0.9208 0.1159
vn 0.1895 0.8971 0.3991
vn -0.0705 -0.9957 0.0603
vn 0.1395 0.6155 0.7757
vn -0.3118 0.2890 -0.9051
vn -0.0890 -0.9920 -0.0893
vn 0.2495 0.8879 -0.3865
vn -0.2803 0.8605 -0.4254
vn 0.0793 -0.9944 -0.0699
vn 0.8502 0.4803 -0.2157
vn -0.7879 0.6056 0.1116
vn -0.9661 -0.2356 0.1053
vn 0.9341 -0.2755 -0.2270
vn -0.2653 -0.4307 -0.8626
vn 0.2632 -0.2084 0.9420
vn -0.2075 -0.2858 0.9356
vn 0.8957 -0.1582 0.4155
vn 0.2357 -0.4351 -0.8690
vn -0.8694 -0.2390 -0.4325
vt 0.578970 0.505302
vt 0.566242 0.502907
vt 0.568513 0.487820
vt 0.579248 0.489209
vt 0.553290 0.499824
vt 0.557957 0.486137
vt 0.563191 0.476690
vt 0.570754 0.475163
vt 0.579527 0.475156
vt 0.604210 0.493208
vt 0.611590 0.492755
vt 0.611648 0.501522
vt 0.604165 0.502787
vt 0.621523 0.492227
vt 0.621523 0.500871
vt 0.621457 0.507888
vt 0.613393 0.510782
vt 0.604254 0.513362
vt 0.514916 0.560017
vt 0.526936 0.560707
vt 0.526819 0.574673
vt 0.514011 0.575043
vt 0.539908 0.561910
vt 0.539908 0.574897
vt 0.527341 0.586823
vt 0.513903 0.588821
vt 0.565732 0.553965
vt 0.576715 0.556976
vt 0.576031 0.564562
vt 0.565968 0.565115
vt 0.591416 0.560375
vt 0.580009 0.570701
vt 0.568522 0.575817
vt 0.526328 0.503616
vt 0.512073 0.504221
vt 0.513759 0.488031
vt 0.526880 0.487372
vt 0.501523 0.504660
vt 0.504737 0.488605
vt 0.509095 0.478780
vt 0.515997 0.476208
vt 0.527384 0.475238
vt 0.607501 0.560879
vt 0.612603 0.561130
vt 0.613863 0.568503
vt 0.610953 0.570307
vt 0.620570 0.562040
vt 0.619980 0.573545
vt 0.616989 0.582250
vt 0.591770 0.559795
vt 0.600892 0.560435
vt 0.604662 0.570686
vt 0.595594 0.572178
vt 0.606857 0.581421
vt 0.599061 0.580873
vt 0.551731 0.502548
vt 0.540803 0.503002
vt 0.541538 0.486839
vt 0.552907 0.486575
vt 0.541149 0.475156
vt 0.550535 0.477065
vt 0.566547 0.534756
vt 0.579561 0.538769
vt 0.577898 0.548027
vt 0.565686 0.544530
vt 0.589962 0.542613
vt 0.591416 0.550258
vt 0.604502 0.476013
vt 0.613420 0.477580
vt 0.611647 0.485160
vt 0.604262 0.485174
vt 0.621018 0.479317
vt 0.621108 0.484638
vt 0.542201 0.528520
vt 0.535716 0.531066
vt 0.538249 0.519230
vt 0.546980 0.518677
vt 0.525873 0.531966
vt 0.526002 0.519853
vt 0.593136 0.534398
vt 0.599712 0.533040
vt 0.599627 0.546735
vt 0.591416 0.545077
vt 0.608191 0.533274
vt 0.607141 0.547432
vt 0.615608 0.534359
vt 0.613621 0.547975
vt 0.620441 0.536622
vt 0.620570 0.547499
vt 0.514590 0.531966
vt 0.512875 0.520316
vt 0.506536 0.530012
vt 0.502805 0.520529
vt 0.517142 0.532089
vt 0.526579 0.533072
vt 0.526444 0.546033
vt 0.515840 0.545333
vt 0.534582 0.535984
vt 0.537650 0.546876
vt 0.578908 0.531767
vt 0.567026 0.526889
vt 0.566309 0.516230
vt 0.579070 0.519738
vt 0.553045 0.520256
vt 0.552907 0.511038
vt 0.591182 0.531547
vt 0.586695 0.533040
vt 0.586419 0.520922
vt 0.592048 0.521183
vt 0.586581 0.506198
vt 0.592048 0.505210
vt 0.506080 0.533245
vt 0.510349 0.531966
vt 0.509107 0.545064
vt 0.503878 0.543880
vt 0.507495 0.559689
vt 0.502029 0.559720
vt 0.593566 0.475156
vt 0.597666 0.475735
vt 0.598574 0.484883
vt 0.592994 0.482551
vt 0.598494 0.493313
vt 0.592048 0.492953
vt 0.554296 0.533040
vt 0.558236 0.533618
vt 0.558724 0.542989
vt 0.553501 0.540689
vt 0.558956 0.552779
vt 0.552907 0.552285
vt 0.559984 0.565275
vt 0.554279 0.566340
vt 0.561015 0.577418
vt 0.556338 0.576500
vt 0.506252 0.575092
vt 0.501523 0.575986
vt 0.505588 0.588864
vt 0.502044 0.587016
vt 0.598417 0.503375
vt 0.592624 0.504744
vt 0.597452 0.513953
vt 0.593210 0.513405
vt 0.586278 0.489776
vt 0.590908 0.488498
vt 0.585982 0.475653
vt 0.589582 0.477428
vt 0.537975 0.583953
s 1
usemtl stone_1
f 25/1/25 61/2/61 73/3/73 69/4/69
f 61/2/61 13/5/13 28/6/28 73/3/73
f 73/3/73 28/6/28 4/7/4 56/8/56
f 69/4/69 73/3/73 56/8/56 19/9/19
f 23/10/23 59/11/59 74/12/74 68/13/68
f 59/11/59 10/14/10 31/15/31 74/12/74
f 74/12/74 31/15/31 8/16/8 57/17/57
f 68/13/68 74/12/74 57/17/57 20/18/20
f 24/19/24 60/20/60 75/21/75 67/22/67
f 60/20/60 15/23/15 34/24/34 75/21/75
f 67/22/67 75/21/75 58/25/58 21/26/21
f 22/27/22 72/28/72 76/29/76 66/30/66
f 2/31/2 27/32/27 76/29/76
f 18/33/18 66/30/66 76/29/76 27/32/27
f 17/34/17 52/35/52 77/36/77 40/37/40
f 52/35/52 14/38/14 45/39/45 77/36/77
f 77/36/77 45/39/45 5/40/5 36/41/36
f 40/37/40 77/36/77 36/41/36 11/42/11
f 16/43/16 51/44/51 78/45/78 71/46/71
f 13/47/13 44/48/44 78/45/78 51/44/51
f 2/49/2 71/46/71 78/45/78 44/48/44
f 15/50/15 50/51/50 79/52/79 34/53/34
f 50/51/50 16/43/16 71/46/71 79/52/79
f 79/52/79 71/46/71 2/49/2 70/54/70
f 34/53/34 79/52/79 70/54/70 6/55/6
f 12/56/12 49/57/49 80/58/80 26/59/26
f 49/57/49 17/34/17 40/37/40 80/58/80
f 80/58/80 40/37/40 11/42/11 39/60/39
f 26/59/26 80/58/80 39/60/39 1/61/1
f 21/62/21 58/63/58 81/64/81 65/65/65
f 58/63/58 6/66/6 70/67/70 81/64/81
f 81/64/81 70/67/70 2/31/2 72/28/72
f 65/65/65 81/64/81 72/28/72 22/27/22
f 19/68/19 56/69/56 82/70/82 64/71/64
f 56/69/56 4/72/4 38/73/38 82/70/82
f 82/70/82 38/73/38 10/14/10 59/11/59
f 64/71/64 82/70/82 59/11/59 23/10/23
f 3/74/3 30/75/30 83/76/83 43/77/43
f 30/75/30 9/78/9 48/79/48 83/76/83
f 83/76/83 48/79/48 17/34/17 49/57/49
f 43/77/43 83/76/83 49/57/49 12/56/12
f 8/80/8 31/81/31 84/82/84 46/83/46
f 31/81/31 10/84/10 47/85/47 84/82/84
f 84/82/84 47/85/47 16/43/16 50/51/50
f 46/83/46 84/82/84 50/51/50 15/50/15
f 10/84/10 38/86/38 85/87/85 47/85/47
f 38/86/38 4/88/4 28/89/28 85/87/85
f 85/87/85 28/89/28 13/47/13 51/44/51
f 47/85/47 85/87/85 51/44/51 16/43/16
f 9/78/9 37/90/37 86/91/86 48/79/48
f 37/90/37 7/92/7 33/93/33 86/91/86
f 86/91/86 33/93/33 14/38/14 52/35/52
f 48/79/48 86/91/86 52/35/52 17/34/17
f 20/94/20 57/95/57 87/96/87 63/97/63
f 57/95/57 8/98/8 46/99/46 87/96/87
f 87/96/87 46/99/46 15/23/15 60/20/60
f 63/97/63 87/96/87 60/20/60 24/19/24
f 18/100/18 27/101/27 88/102/88 62/103/62
f 27/101/27 2/104/2 44/105/44 88/102/88
f 88/102/88 44/105/44 13/5/13 61/2/61
f 62/103/62 88/102/88 61/2/61 25/1/25
f 1/106/1 55/107/55 89/108/89 26/109/26
f 55/107/55 18/100/18 62/103/62 89/108/89
f 89/108/89 62/103/62 25/1/25 54/110/54
f 26/109/26 89/108/89 54/110/54 12/111/12
f 7/112/7 32/113/32 90/114/90 33/115/33
f 32/113/32 20/94/20 63/97/63 90/114/90
f 90/114/90 63/97/63 24/19/24 53/116/53
f 33/115/33 90/114/90 53/116/53 14/117/14
f 3/118/3 29/119/29 91/120/91 30/121/30
f 29/119/29 19/68/19 64/71/64 91/120/91
f 91/120/91 64/71/64 23/10/23 42/122/42
f 30/121/30 91/120/91 42/122/42 9/123/9
f 5/124/5 35/125/35 92/126/92 36/127/36
f 35/125/35 21/62/21 65/65/65 92/126/92
f 92/126/92 65/65/65 22/27/22 41/128/41
f 36/127/36 92/126/92 41/128/41 11/129/11
f 11/129/11 41/128/41 93/130/93 39/131/39
f 41/128/41 22/27/22 66/30/66 93/130/93
f 93/130/93 66/30/66 18/33/18 55/132/55
f 39/131/39 93/130/93 55/132/55 1/133/1
f 14/117/14 53/116/53 94/134/94 45/135/45
f 53/116/53 24/19/24 67/22/67 94/134/94
f 94/134/94 67/22/67 21/26/21 35/136/35
f 45/135/45 94/134/94 35/136/35 5/137/5
f 9/123/9 42/122/42 95/138/95 37/139/37
f 42/122/42 23/10/23 68/13/68 95/138/95
f 95/138/95 68/13/68 20/18/20 32/140/32
f 37/139/37 95/138/95 32/140/32 7/141/7
f 12/111/12 54/110/54 96/142/96 43/143/43
f 54/110/54 25/1/25 69/4/69 96/142/96
f 96/142/96 69/4/69 19/9/19 29/144/29
f 43/143/43 96/142/96 29/144/29 3/145/3
f 58/25/58 75/21/75 34/24/34 6/146/6
f 72/28/72 2/31/2 76/29/76
