# Blender 5.0.1
# www.blender.org
mtllib tree_stump_1.mtl
o tree_stump_1
v 0.416199 0.000000 0.010720
v 0.302545 0.000000 -0.069961
v 0.231832 0.000000 -0.101730
v 0.235361 0.000000 -0.239721
v 0.121159 0.000000 -0.375350
v 0.090836 0.000000 -0.427354
v 0.016325 0.000000 -0.467303
v -0.095613 0.000000 -0.445284
v -0.170911 0.000000 -0.392098
v -0.253296 0.000000 -0.272009
v -0.260897 0.000000 -0.199094
v -0.386075 0.000000 -0.151623
v -0.430303 0.000000 -0.091455
v -0.462384 0.000000 -0.007722
v -0.389915 0.000000 0.070325
v -0.364959 0.000000 0.114520
v -0.218471 0.000000 0.280214
v -0.170379 0.000000 0.318847
v -0.150298 0.000000 0.365025
v -0.092893 0.000000 0.437000
v -0.001007 0.000000 0.461703
v 0.045737 0.000000 0.435235
v 0.117281 0.000000 0.409027
v 0.179689 0.000000 0.403603
v 0.319686 0.000000 0.330814
v 0.014743 0.024703 -0.408160
v -0.155302 0.032818 -0.337171
v -0.351869 0.024880 -0.136132
v -0.389822 0.038036 -0.006688
v -0.250333 0.032261 0.244265
v -0.080370 0.050388 0.356015
v 0.110160 0.018118 0.380387
v 0.373191 0.053858 0.000000
v 0.262116 0.066327 -0.092305
v 0.225881 0.063537 -0.143041
v 0.217614 0.118650 -0.219364
v -0.233126 0.114530 -0.210137
v -0.302918 0.075931 0.142091
v -0.007835 0.075187 0.358791
v 0.237878 0.096777 0.245102
v 0.038790 0.133861 -0.335360
v -0.284286 0.171559 -0.124144
v -0.217116 0.141574 0.235648
v -0.123523 0.201066 -0.283886
v -0.299673 0.255007 0.006374
v 0.135679 0.249477 0.269915
v 0.266382 0.258281 0.138258
v 0.299430 0.249528 -0.000618
v 0.231845 0.395403 -0.159466
v 0.155942 0.261923 -0.252992
v -0.001799 0.289390 -0.297284
v -0.010586 0.363574 0.281776
v -0.259273 0.436859 0.112172
v -0.160582 0.414584 0.231946
v 0.150924 0.520675 -0.235018
v 0.232914 0.493772 -0.151777
v -0.228399 0.524026 -0.150488
v -0.272187 0.499657 0.005221
v 0.273796 0.499459 0.007486
v 0.253352 0.472901 0.142674
v -0.094706 0.522630 -0.257371
v -0.154151 0.519816 -0.225205
v -0.003906 0.512554 -0.274102
v 0.124034 0.477488 0.258612
v -0.011395 0.475906 0.276695
v -0.157074 0.480357 0.225816
v -0.011395 0.493201 0.279796
v -0.254042 0.490880 0.102153
v -0.157074 0.506187 0.228916
vn 0.1695 0.3735 -0.9120
vn 0.8279 0.1498 -0.5405
vn 0.4729 0.5794 -0.6638
vn -0.4468 0.8928 0.0577
vn -0.5711 0.7363 0.3630
vn -0.7197 0.6903 0.0746
vn -0.8190 0.3100 -0.4829
vn -0.7053 0.3178 -0.6337
vn -0.7903 0.4260 -0.4404
vn 0.8397 0.4347 -0.3255
vn 0.9884 0.1289 -0.0803
vn 0.8633 0.1658 0.4766
vn 0.6031 0.5558 0.5721
vn -0.7999 0.4007 0.4468
vn 0.0682 0.7952 -0.6025
vn -0.4288 0.6668 -0.6095
vn -0.4684 0.2477 -0.8481
vn -0.6388 0.1977 0.7436
vn -0.7085 0.1941 0.6785
vn -0.5711 0.4239 0.7030
vn -0.1518 0.9202 -0.3608
vn 0.0593 0.9459 -0.3191
vn -0.9780 0.2079 -0.0157
vn -0.8212 0.3064 0.4815
vn 0.1763 0.8108 0.5582
vn 0.4423 0.7903 0.4240
vn 0.2463 0.7117 0.6579
vn -0.3480 0.5864 0.7315
vn -0.6320 0.2301 0.7401
vn -0.8181 0.2544 -0.5158
vn -0.5803 0.6266 -0.5201
vn 0.7579 -0.0197 -0.6521
vn 0.9310 -0.2153 -0.2947
vn -0.1091 0.1396 0.9842
vn -0.5696 0.1418 0.8096
vn 0.8502 0.0560 -0.5234
vn 0.5184 0.1240 -0.8461
vn -0.4144 0.8283 -0.3771
vn 0.5019 0.0751 -0.8616
vn 0.8521 0.0500 -0.5210
vn -0.9908 0.1266 -0.0469
vn -0.8527 0.0919 -0.5143
vn -0.8973 0.1403 0.4184
vn -0.9104 0.1257 0.3942
vn 0.0540 0.1273 -0.9904
vn 0.9951 0.0598 -0.0792
vn 0.8770 0.0662 0.4759
vn 0.8181 -0.0681 -0.5710
vn -0.6120 0.0854 -0.7863
vn -0.3280 0.1075 -0.9385
vn 0.1464 0.5346 0.8323
vn 0.4277 0.2265 0.8751
vn 0.4118 0.0444 0.9102
vn -0.1018 -0.0493 0.9936
vn 0.9166 0.1895 -0.3519
vn 0.5516 0.1279 -0.8242
vn 0.1126 0.8521 0.5111
vn 0.7699 0.6120 -0.1808
vn 0.0275 0.8194 0.5725
vn 0.2726 0.7860 0.5549
vn -0.5804 0.0017 0.8144
vn -0.4127 0.8752 -0.2524
vn 0.0398 0.0944 -0.9947
vn 0.2355 0.9341 -0.2685
vn -0.3307 0.8130 0.4792
vn -0.5202 0.7829 0.3412
vn -0.3329 0.7840 -0.5240
vn 0.0089 0.9817 0.1904
vn 0.0076 0.9773 0.2119
vn 0.0393 0.9358 -0.3502
vn 0.0497 0.9923 0.1136
vn 0.0202 0.9956 0.0910
vn -0.5722 -0.1097 0.8127
vn 0.0318 0.9963 0.0801
vn 0.2789 0.9337 0.2246
vn 0.0456 0.9953 0.0858
vn 0.0236 0.9991 0.0354
vn 0.0542 0.9973 0.0488
vn 0.1182 0.9776 -0.1742
vn -0.1167 -0.1578 0.9805
vn 0.2319 0.9473 0.2212
vt 0.465023 0.087211
vt 0.255560 0.082192
vt 0.387056 -0.000091
vt 0.994786 0.000000
vt 1.057557 0.000000
vt 0.996607 0.028602
vt 0.792722 0.000176
vt 0.763543 0.070689
vt 0.744170 0.001088
vt 1.999574 0.052360
vt 2.000000 0.173057
vt 1.855232 0.179461
vt 1.746126 0.069382
vt 1.097992 0.000153
vt 0.488890 0.018558
vt 0.633330 0.025786
vt 0.633330 0.139266
vt 1.288890 0.000016
vt 1.241443 0.019489
vt 1.344440 0.000190
vt 0.567133 0.000000
vt 0.488890 0.000000
vt 1.003492 0.176794
vt 1.133330 0.053518
vt 1.633330 0.000000
vt 1.744440 0.000124
vt 1.590857 0.012420
vt 1.433330 0.037831
vt 1.247932 0.098662
vt 0.875124 0.119371
vt 0.881488 0.019400
vt 0.111528 0.052136
vt 0.179215 0.047463
vt 1.488944 0.255035
vt 1.327022 0.290137
vt 0.149831 0.281572
vt 0.298891 0.183831
vt 0.630848 0.000000
vt 0.285929 0.394042
vt 0.152595 0.364017
vt 0.991226 0.367997
vt 0.794514 0.381778
vt 0.991241 0.367999
vt 1.154202 0.307169
vt 1.136244 0.350888
vt 0.491022 0.200610
vt 1.999995 0.376592
vt 1.840951 0.345339
vt 0.130043 0.001022
vt 0.682883 0.377281
vt 0.610945 0.381183
vt 1.500000 0.053921
vt 1.644959 0.172825
vt 1.639467 0.343482
vt 1.480164 0.347117
vt 0.256021 0.000066
vt 0.077780 0.001150
vt 1.588890 0.000000
vt 0.000000 0.037260
vt 0.000000 0.008030
vt 1.500000 0.000142
vt 1.533330 0.000000
vt 0.000000 0.163978
vt 0.152141 0.363682
vt 0.000023 0.369375
vt 1.317572 0.345602
vt 1.137644 0.350724
vt 1.999801 0.012420
vt 1.318923 0.345530
vt 1.479368 0.347092
vt 0.401025 0.000594
vt 0.933330 0.000000
vt 0.485932 0.380211
vt 0.319453 0.395693
vt 0.433330 0.000000
vt 1.840063 0.345285
vt 1.641026 0.343483
vt 1.433330 0.000000
vt 0.793920 0.381365
vt 0.682535 0.377279
vt 1.375158 0.000064
vt 0.879045 0.000000
vt 0.172770 0.936152
vt 0.375057 0.899334
vt 0.247547 0.963709
vt 0.123814 0.883171
vt 0.442578 0.762228
vt 1.316740 0.366491
vt 0.026606 0.503639
vt 0.062666 0.760106
vt 0.612522 0.382053
vt 0.511899 0.377303
vt 0.476247 0.499910
vt 0.041549 0.343983
vt 0.352912 0.086282
vt 0.121405 0.135193
vt 0.241379 0.051390
vt 1.639396 0.343274
vt 1.479686 0.360422
vt 1.478753 0.361443
vt 1.317390 0.366845
vt 0.459409 0.277241
s 1
usemtl tree_bark_5
f 41/1/1 36/2/2 5/3/3
f 14/4/4 15/5/5 29/6/6
f 11/7/7 37/8/8 10/9/9
f 33/10/10 48/11/11 47/12/12 40/13/13
f 29/6/6 15/5/5 16/14/14
f 41/1/1 26/15/15 27/16/16 44/17/17
f 16/14/14 17/18/18 30/19/19
f 17/18/18 18/20/20 30/19/19
f 8/21/21 27/16/16 26/15/15 7/22/22
f 10/9/9 37/8/8 44/17/17 27/16/16
f 45/23/23 29/6/6 16/14/14 38/24/24
f 24/25/25 25/26/26 40/13/13 32/27/27
f 31/28/28 43/29/29 30/19/19 18/20/20
f 29/6/6 45/23/23 42/30/30 28/31/31
f 34/32/32 35/33/33 36/2/2
f 31/28/28 52/34/34 54/35/35 43/29/29
f 42/30/30 37/8/8 11/7/7 28/31/31
f 44/17/17 37/8/8 42/30/30
f 49/36/36 36/2/2 50/37/37
f 9/38/38 10/9/9 27/16/16 8/21/21
f 55/39/39 56/40/40 49/36/36 50/37/37
f 42/30/30 45/23/23 58/41/41 57/42/42
f 58/43/41 45/23/23 38/24/24 53/44/43 68/45/44
f 50/37/37 36/2/2 41/1/1 51/46/45
f 59/47/46 60/48/47 47/12/12 48/11/11
f 3/49/48 35/33/33 34/32/32
f 44/17/17 62/50/49 61/51/50
f 39/52/51 46/53/52 52/34/34 31/28/28
f 52/34/34 46/53/52 64/54/53 65/55/54
f 4/56/55 36/2/2 35/33/33 3/49/48
f 2/57/56 3/49/48 34/32/32
f 40/13/13 46/53/52 39/52/51 32/27/27
f 23/58/57 24/25/25 32/27/27
f 33/59/10 1/60/58 2/57/56 34/32/32
f 16/14/14 30/19/19 43/29/29 38/24/24
f 21/61/59 22/62/60 32/27/27 39/52/51
f 53/44/43 38/24/24 43/29/29 54/35/35
f 48/63/11 34/32/32 36/2/2 49/36/36 56/64/40 59/65/46
f 53/44/43 54/35/35 66/66/61 68/67/44
f 40/13/13 47/12/12 46/53/52
f 1/68/58 33/10/10 40/13/13 25/26/26
f 66/69/61 54/35/35 52/34/34 65/70/54
f 23/58/57 32/27/27 22/62/60
f 5/71/3 26/15/15 41/1/1
f 36/2/2 4/56/55 5/3/3
f 51/46/45 41/1/1 44/17/17
f 29/6/6 28/31/31 13/72/62 14/4/4
f 50/37/37 51/46/45 63/73/63 55/74/39
f 26/15/15 5/71/3 6/75/64 7/22/22
f 46/53/52 47/12/12 60/76/47 64/77/53
f 21/61/59 39/52/51 31/28/28 20/78/65
f 33/59/10 34/32/32 48/63/11
f 44/17/17 42/30/30 57/79/42 62/80/49
f 18/20/20 19/81/66 20/78/65 31/28/28
f 12/82/67 13/72/62 28/31/31 11/7/7
f 68/67/44 66/66/61 69/88/73
f 51/46/45 44/17/17 61/91/50 63/92/63
f 65/55/54 64/98/53 67/99/80
f 66/69/61 65/70/54 67/100/80 69/101/73
usemtl log_ends_1
f 61/83/68 55/84/69 63/85/70
f 62/86/71 56/87/72 55/84/69 61/83/68
f 58/89/74 62/86/71 57/90/75
f 59/93/76 58/89/74 68/94/77 64/95/78
f 64/95/78 68/94/77 69/96/79 67/97/79
f 60/102/81 59/93/76 64/95/78
f 59/93/76 56/87/72 62/86/71 58/89/74
