# Blender 5.0.1
# www.blender.org
mtllib tree_log_1.mtl
o tree_log_1
v 0.779471 0.458469 0.504879
v 1.044466 0.485488 0.473314
v 1.338181 0.297636 0.400191
v 1.451530 0.151231 0.938242
v 0.865943 0.141034 0.280191
v 0.946351 0.050713 0.422411
v 0.814692 0.260633 0.696039
v 0.646519 0.372733 0.571686
v 0.728793 0.030951 0.480915
v 0.570957 0.393093 0.243389
v 0.454103 0.267261 0.103144
v 0.326301 0.078155 0.411549
v -0.584970 0.257089 -0.049479
v -0.658464 0.280403 -0.208700
v -0.379825 0.258500 -0.201576
v -0.213376 0.158185 -0.183615
v -0.180643 0.046227 -0.113417
v -0.612071 -0.015683 -0.181411
v -0.134713 0.184721 0.231597
v -0.941268 0.011537 -0.190256
v -0.437436 0.151888 0.079651
v -0.950832 0.179542 -0.409684
v -0.906175 0.060260 -0.395780
v -1.258891 0.239309 -0.337291
v -1.044350 0.125625 -0.162330
v -1.583184 0.120631 -0.425811
v -1.539710 0.017590 -0.601375
v -1.545222 0.019666 -0.475333
v 1.595312 0.467125 0.545418
v 1.453997 0.512860 0.837435
v 1.422884 0.430881 0.923935
v 1.635643 0.296136 0.500182
v 1.508365 0.052387 0.818002
v 1.412303 0.282397 0.982453
v 1.496370 0.541755 0.690089
v 1.547722 0.032589 0.707143
v 1.636223 0.173553 0.528515
v 1.618093 0.093180 0.595053
v 1.596602 0.062760 0.626275
v -1.567767 0.092771 -0.676580
v -1.566597 0.117304 -0.674959
v -1.597404 0.016085 -0.625933
v -1.586273 0.212147 -0.616794
v -1.596980 0.211903 -0.593874
v -1.646431 0.016160 -0.520782
v -1.665276 0.112886 -0.464084
v -1.634669 0.206875 -0.513897
v 0.422388 0.229265 0.504127
v 0.485091 0.357574 0.490262
v 0.407151 0.350255 0.450948
v 0.569659 0.432487 0.400759
v 0.469691 0.420108 0.351150
v 0.447909 0.304162 0.470973
v 0.505620 0.374217 0.368560
v -0.342871 0.297516 -0.091134
v -0.359005 0.288693 -0.104642
v -0.340247 0.420802 -0.167318
v -0.364911 0.276640 -0.123095
v -0.359005 0.264588 -0.141547
v -0.342871 0.255765 -0.155055
v -0.355544 0.406313 -0.189501
v -0.340247 0.391824 -0.211683
v -0.320831 0.300745 -0.086190
v -0.282657 0.288693 -0.104642
v -0.298792 0.297516 -0.091134
v -0.309653 0.420802 -0.167318
v -0.320831 0.252535 -0.159999
v -0.276752 0.276640 -0.123095
v -0.298792 0.255765 -0.155055
v -0.282657 0.264588 -0.141547
v -0.294356 0.406313 -0.189501
v -0.309653 0.391824 -0.211683
v -0.357276 0.454473 -0.307336
v -0.368891 0.471643 -0.296853
v -0.357276 0.488814 -0.286369
v -0.322431 0.471643 -0.296853
v -0.334046 0.454473 -0.307336
v -0.334046 0.488814 -0.286369
v 1.278418 0.395985 0.834377
v 1.279617 0.366855 0.851173
v 1.214941 0.429394 1.062733
v 1.264482 0.338832 0.862024
v 1.237069 0.319425 0.864023
v 1.204724 0.313834 0.856635
v 1.208142 0.385227 1.056540
v 1.167772 0.370296 1.043025
v 1.261207 0.418417 0.816138
v 1.200251 0.422549 0.793952
v 1.232596 0.428140 0.801341
v 1.181371 0.458629 1.055412
v 1.176113 0.323557 0.841838
v 1.172838 0.403141 0.795951
v 1.158902 0.345989 0.823598
v 1.157703 0.375119 0.806803
v 1.141001 0.443698 1.041898
v 1.134202 0.399532 1.035705
v 1.075496 0.317063 1.218164
v 1.100899 0.327425 1.238677
v 1.101131 0.359458 1.250812
v 1.050556 0.370769 1.221922
v 1.050324 0.338735 1.209786
v 1.075960 0.381130 1.242435
vn -0.2972 -0.6637 0.6864
vn -0.2267 -0.8266 0.5151
vn 0.0820 -0.9727 -0.2172
vn -0.0410 -0.9836 0.1754
vn 0.3397 0.2838 -0.8967
vn 0.3181 -0.4628 -0.8274
vn 0.3481 -0.0970 -0.9324
vn 0.3129 0.0581 -0.9480
vn 0.3548 0.3123 -0.8812
vn 0.3194 0.3732 -0.8710
vn 0.3263 -0.3524 -0.8771
vn 0.3648 -0.3475 -0.8638
vn -0.2370 0.9138 0.3298
vn -0.2215 0.9543 0.2007
vn -0.3971 0.5983 0.6960
vn -0.3773 0.5859 0.7172
vn 0.3177 0.0290 -0.9477
vn 0.2182 0.6306 -0.7448
vn 0.1489 -0.9240 -0.3522
vn -0.1529 -0.9247 0.3487
vn -0.2600 0.8555 0.4477
vn -0.4379 0.0145 0.8989
vn -0.4065 -0.0005 0.9136
vn 0.2372 -0.8157 -0.5276
vn -0.4283 -0.0476 0.9024
vn -0.4270 0.0134 0.9041
vn -0.3113 -0.6193 0.7208
vn -0.0279 0.9851 -0.1697
vn 0.0008 0.9470 -0.3214
vn 0.0422 -0.9794 -0.1975
vn -0.3147 0.7514 0.5799
vn -0.0263 0.9836 -0.1785
vn 0.1929 0.6554 -0.7302
vn -0.1047 0.9937 -0.0406
vn 0.1004 0.8402 -0.5329
vn 0.2916 -0.4492 -0.8445
vn 0.2192 -0.7538 -0.6194
vn -0.2148 -0.8562 0.4698
vn 0.1537 -0.9200 -0.3605
vn 0.1760 -0.8412 -0.5112
vn -0.3851 0.6729 0.6316
vn -0.4460 0.0580 0.8931
vn -0.4374 -0.0237 0.8990
vn -0.4230 -0.0464 0.9049
vn -0.1698 -0.8760 0.4515
vn -0.0770 0.9970 -0.0049
vn -0.2842 0.8472 0.4489
vn 0.1883 -0.9057 -0.3798
vn 0.1224 0.8900 -0.4393
vn -0.4395 0.0659 0.8958
vn 0.8991 0.1485 0.4118
vn 0.8255 0.4596 0.3275
vn 0.8987 0.1527 0.4110
vn -0.9040 0.0710 -0.4216
vn 0.9014 0.1146 0.4176
vn 0.9016 0.1014 0.4204
vn 0.9014 0.1143 0.4176
vn 0.9037 0.0810 0.4205
vn 0.9030 0.0990 0.4181
vn 0.8992 -0.0864 0.4290
vn 0.8993 -0.0815 0.4297
vn 0.8469 -0.3829 0.3690
vn 0.5263 0.6431 0.5563
vn 0.3255 0.5810 0.7460
vn 0.1587 0.4964 0.8535
vn 0.5123 0.6406 0.5719
vn -0.6816 0.7243 -0.1041
vn -0.8127 0.5299 0.2425
vn -0.7589 0.6503 0.0330
vn -0.6717 0.7315 -0.1169
vn -0.1612 0.9829 0.0895
vn -0.4167 0.5406 0.7309
vn 0.6270 0.6524 0.4257
vn -0.8211 0.4405 0.3630
vn 0.0061 0.4030 0.9152
vn -0.6032 0.7725 -0.1984
vn 0.4775 0.5261 0.7037
vn -0.4920 0.5001 0.7126
vn 0.0046 0.5380 0.8429
vn -0.5114 -0.2837 -0.8111
vn -0.8510 -0.1752 -0.4951
vn -0.9941 0.1046 -0.0272
vn -0.8721 0.2829 0.3993
vn 0.0043 -0.3713 -0.9285
vn 0.4942 -0.2618 -0.8290
vn 0.9869 0.1512 -0.0571
vn 0.9924 0.0933 -0.0808
vn 0.8474 -0.1319 -0.5144
vn -0.9867 0.0459 0.1558
vn -0.3882 0.7754 0.4981
vn -0.5300 0.7017 0.4761
vn -0.9936 -0.0760 0.0838
vn 0.8723 0.3221 0.3680
vn -0.5040 0.4618 0.7299
vn 0.5109 0.4840 0.7104
vn 0.4867 -0.3023 -0.8196
vn -0.4825 -0.3286 -0.8119
vn -0.9977 0.0462 -0.0505
vn -0.0000 0.5211 -0.8535
vn 0.5935 -0.5973 -0.5394
vn -0.4950 -0.7620 -0.4176
vn -0.5162 -0.7529 -0.4082
vn 0.4545 -0.6889 -0.5647
vn 0.9591 0.2725 -0.0769
vn 0.9761 0.1462 -0.1608
vn 0.4428 0.8170 0.3694
vn 0.4312 0.8210 0.3742
vn 0.2078 0.9774 -0.0385
vn 0.8865 0.4053 0.2231
vn 0.5300 0.8477 0.0237
vn -0.2385 -0.9316 0.2744
vn 0.3357 -0.8800 0.3361
vn 0.7184 -0.5767 0.3889
vn 0.9557 -0.0411 0.2913
vn -0.6652 -0.7376 0.1161
vn -0.9661 -0.2582 -0.0091
vn -0.6783 0.7162 -0.1641
vn -0.7405 0.6411 -0.2016
vn -0.9665 0.2091 -0.1490
vn 0.7733 -0.5726 0.2722
vn 0.7455 0.3332 0.5773
vn 0.7667 0.2889 0.5733
vn 0.7403 -0.6304 0.2338
vn -0.3605 0.9156 -0.1784
vn 0.8575 0.4866 0.1672
vn 0.0831 0.9913 -0.1022
vn -0.9524 -0.3028 -0.0345
vn -0.1795 -0.9508 0.2524
vn 0.7631 -0.5429 0.3505
vn -0.5229 -0.2987 0.7984
vn -0.8259 -0.2729 -0.4933
vn -0.0213 -0.9537 -0.3001
vn -0.0387 -0.9504 -0.3085
vn -0.8024 -0.3260 -0.4999
vn -0.7187 0.6901 -0.0854
vn -0.7649 0.6305 -0.1316
vn 0.0729 0.9057 0.4175
vn 0.0436 0.9135 0.4046
vt 1.771633 1.733603
vt 1.714995 3.467062
vt 1.450654 3.057003
vt 1.581235 1.332113
vt 0.888890 1.725157
vt 1.179662 1.284223
vt 1.000000 2.560431
vt 0.960325 0.851299
vt 0.970016 4.741678
vt 0.857140 3.587642
vt 1.142860 3.524267
vt 1.028431 4.744944
vt 0.345461 0.629393
vt 0.411872 1.264784
vt 0.211597 1.355947
vt 0.169657 0.626420
vt 0.975968 0.606865
vt 0.750349 0.593158
vt 1.402181 1.156357
vt 1.620343 0.593276
vt 0.308221 4.007242
vt 0.000000 4.566765
vt 0.000000 3.587810
vt 1.250000 2.494489
vt 2.000000 0.625655
vt 2.000000 1.164900
vt 1.819685 0.602087
vt 0.543081 0.611921
vt 0.720871 0.593349
vt 0.598383 1.048859
vt 1.454109 0.616908
vt 0.272614 2.922576
vt 0.557512 3.101672
vt 0.750000 2.744685
vt 0.443248 1.660512
vt 0.666670 1.545675
vt 0.000000 1.164900
vt 0.000000 0.620719
vt 1.145341 0.607200
vt 1.278319 0.618687
vt 1.666670 4.517989
vt 1.333330 4.595989
vt 1.335975 0.617606
vt 0.223457 1.660458
vt 1.814014 0.669512
vt 0.000000 2.260580
vt 0.000000 1.617646
vt 2.000000 4.643488
vt 2.000000 4.781733
vt 1.666670 4.715926
vt 2.000000 3.587810
vt 0.593633 4.708159
vt 0.321046 4.740926
vt 1.333330 4.704247
vt 0.656227 4.716671
vt 0.000000 4.723915
vt 2.000000 2.674880
vt 2.000000 2.260580
vt 2.000000 1.617646
vt 0.000000 2.694939
vt 0.458197 0.371147
vt 0.448211 0.663066
vt 0.364742 0.851387
vt 0.641500 0.590128
vt 0.641760 0.331897
vt 0.753995 0.218671
vt 0.842528 0.314092
vt 0.867148 0.343713
vt 0.869637 0.600291
vt 0.855952 0.649039
vt 0.753699 0.728289
vt 0.732392 0.595978
vt 0.261581 0.075841
vt 0.360188 0.126474
vt 0.274236 0.921363
vt 0.149078 0.891018
vt 0.175326 0.102245
vt 0.063138 0.700916
vt 0.139297 0.136337
vt 0.040367 0.439114
vt 0.075621 0.253999
vt 0.064634 0.630867
vt 0.067731 0.324383
vt 0.137204 0.283439
vt 0.129487 0.589402
vt 0.135296 0.408004
vt 0.137883 0.714313
vt 0.068442 0.652650
vt 0.038440 0.335611
vt 0.433122 1.532809
vt 0.219595 1.561307
vt 0.165649 0.900000
vt 0.176634 0.890040
vt 0.165649 0.100000
vt 0.176634 0.100000
vt 0.429202 0.389422
vt 0.383417 0.395671
vt 0.391333 0.161824
vt 0.289245 0.426552
vt 0.237638 0.182761
vt 0.338218 0.411314
vt 0.311891 0.170713
vt 0.621560 0.176757
vt 0.573662 0.428095
vt 0.522975 0.412577
vt 0.475737 0.395675
vt 0.511238 0.157313
vt 0.550127 0.160542
vt 0.391252 0.622139
vt 0.352192 0.626704
vt 0.472204 0.156780
vt 0.351583 0.166073
vt 0.431734 0.158729
vt 0.586208 0.167025
vt 0.657868 0.190895
vt 0.200000 0.192241
vt 0.274668 0.176154
vt 0.730827 0.493558
vt 0.730828 0.446380
vt 0.750975 0.422791
vt 0.771123 0.446380
vt 0.771123 0.493558
vt 0.750975 0.517147
vt 0.549617 0.627119
vt 0.510772 0.616448
vt 0.473024 0.611567
vt 0.432486 0.615198
vt 0.311640 0.627119
s 1
usemtl tree_bark_5
f 12/1/1 20/2/2 18/3/3 9/4/4
f 11/5/5 5/6/6 16/7/7
f 3/8/8 5/6/6 11/5/5
f 41/9/9 22/10/10 23/11/11 40/12/12
f 30/13/13 1/14/14 8/15/15 31/16/16
f 32/17/17 3/8/8 29/18/18
f 9/4/4 6/19/19 33/20/20
f 24/21/21 26/22/22 25/23/23
f 17/24/24 18/3/3 23/11/11 16/7/7
f 34/25/25 7/26/26 4/27/27
f 35/28/28 29/29/18 2/30/29
f 6/19/19 36/31/30 33/20/20
f 24/21/21 13/32/31 14/33/32
f 17/24/24 16/7/7 5/6/6 6/19/19
f 22/10/10 15/34/33 16/7/7 23/11/11
f 14/33/32 52/35/34 10/36/35 15/34/33
f 15/34/33 22/10/10 14/33/32
f 31/16/16 8/15/15 7/37/26 34/38/25
f 37/39/36 38/40/37 5/6/6
f 28/41/38 27/42/39 18/3/3 20/2/2
f 2/30/29 10/36/35 1/14/14
f 15/34/33 10/36/35 11/5/5 16/7/7
f 39/43/40 36/31/30 6/19/19 5/6/6 38/40/37
f 18/3/3 17/24/24 6/19/19 9/4/4
f 13/32/31 50/44/41 52/35/34 14/33/32
f 9/4/4 4/45/27 12/1/1
f 19/46/42 48/47/43 50/44/41 13/32/31
f 28/41/38 26/48/22 46/49/44 45/50/45
f 26/48/22 28/41/38 20/2/2 25/51/23
f 24/21/21 44/52/46 47/53/47
f 42/54/48 27/42/39 28/41/38 45/50/45
f 22/10/10 41/9/9 43/55/49 14/33/32
f 26/22/22 24/21/21 47/53/47 46/56/44
f 35/28/28 2/30/29 1/14/14 30/13/13
f 20/2/2 21/57/50 25/51/23
f 21/57/50 20/2/2 12/1/1 19/58/42
f 12/1/1 4/45/27 7/26/26 48/59/43
f 21/60/50 19/46/42 13/32/31
f 11/5/5 10/36/35 2/30/29 29/72/18
f 29/18/18 3/8/8 11/5/5
f 32/17/17 37/39/36 5/6/6 3/8/8
f 4/45/27 9/4/4 33/20/20
f 18/3/3 27/42/39 40/12/12 23/11/11
f 40/12/12 27/42/39 42/54/48
f 51/90/71 49/91/72 8/15/15 1/14/14
f 10/36/35 51/90/71 1/14/14
f 49/91/72 48/47/43 7/37/26 8/15/15
f 19/58/42 12/1/1 48/59/43
f 44/52/46 24/21/21 14/33/32 43/55/49
f 25/23/23 21/60/50 13/32/31 24/21/21
f 66/96/77 57/97/78 63/98/79
f 62/99/80 59/100/81 61/101/82
f 57/97/78 61/101/82 56/102/83
f 67/103/84 62/104/80 72/105/85
f 71/106/86 68/107/87 70/108/88
f 61/101/89 57/97/90 75/109/91 74/110/92
f 71/106/86 66/96/77 64/111/93
f 55/112/94 57/97/78 56/102/83
f 57/97/78 55/112/94 63/98/79
f 66/96/77 63/98/79 65/113/95
f 64/111/93 66/96/77 65/113/95
f 71/106/86 64/111/93 68/107/87
f 72/105/85 71/106/86 70/108/88
f 72/105/85 70/108/88 69/114/96
f 67/103/84 72/105/85 69/114/96
f 62/104/80 67/103/84 60/115/97
f 59/100/81 62/99/80 60/116/97
f 61/101/82 58/117/98 56/102/83
f 61/101/82 59/100/81 58/117/98
f 72/105/100 62/104/101 73/124/102 77/125/103
f 71/106/104 72/105/100 77/125/103 76/126/105
f 66/96/106 71/106/104 76/126/105 78/127/107
f 57/97/90 66/96/106 78/127/107 75/109/91
f 62/99/101 61/101/89 74/110/92 73/128/102
f 90/96/108 81/97/109 87/98/110
f 86/99/111 83/100/112 85/101/113
f 81/97/109 85/101/113 80/102/114
f 91/103/115 86/104/111 96/105/116
f 95/106/117 92/107/118 94/108/119
f 85/101/120 81/97/121 99/109/122 98/110/123
f 95/106/117 90/96/108 88/111/124
f 79/112/125 81/97/109 80/102/114
f 81/97/109 79/112/125 87/98/110
f 90/96/108 87/98/110 89/113/126
f 88/111/124 90/96/108 89/113/126
f 95/106/117 88/111/124 92/107/118
f 96/105/116 95/106/117 94/108/119
f 96/105/116 94/108/119 93/114/127
f 91/103/115 96/105/116 93/114/127
f 86/104/111 91/103/115 84/115/128
f 83/100/112 86/99/111 84/116/128
f 85/101/113 82/117/129 80/102/114
f 85/101/113 83/100/112 82/117/129
f 96/105/131 86/104/132 97/124/133 101/125/134
f 95/106/135 96/105/131 101/125/134 100/126/136
f 90/96/137 95/106/135 100/126/136 102/127/138
f 81/97/121 90/96/137 102/127/138 99/109/122
f 86/99/132 85/101/120 98/110/123 97/128/133
usemtl log_ends_1
f 29/61/51 35/62/52 30/63/53
f 45/64/54 46/65/54 47/66/54 44/67/54 43/68/54 41/69/54 40/70/54 42/71/54
f 37/73/55 32/74/56 31/75/56 34/76/57
f 38/77/58 37/73/55 34/76/57 4/78/59
f 39/79/60 38/77/58 4/78/59 33/80/61
f 36/81/62 39/79/60 33/80/61
f 32/74/56 29/61/51 30/63/53 31/75/56
f 52/82/63 50/83/64 53/84/65 54/85/66
f 54/86/67 53/87/68 49/88/69 51/89/70
f 10/92/73 52/82/63 54/85/66
f 48/93/74 49/88/69 53/87/68
f 50/83/64 48/94/75 53/84/65
f 51/89/70 10/95/76 54/86/67
f 73/118/99 74/119/99 75/120/99 78/121/99 76/122/99 77/123/99
f 97/118/130 98/119/130 99/120/130 102/121/130 100/122/130 101/123/130
