# Blender 5.0.1
# www.blender.org
mtllib grass_2.mtl
o grass_2
v -0.334473 -0.040000 -0.017949
v 0.406268 -0.040000 -0.017949
v -0.334473 0.960000 -0.176718
v 0.406268 0.960000 -0.176718
v -0.334473 0.626667 -0.095487
v -0.334473 0.293333 -0.047487
v 0.406268 0.293333 -0.047487
v 0.406268 0.626667 -0.095487
v 0.056193 -0.035453 -0.316393
v 0.056193 -0.035453 0.343177
v 0.282285 0.837311 -0.316393
v 0.282285 0.837311 0.343177
v 0.181831 0.548806 -0.316393
v 0.110830 0.257465 -0.316393
v 0.110831 0.257465 0.343177
v 0.181831 0.548806 0.343177
v 0.316296 -0.035078 0.009497
v -0.337289 -0.035078 0.009497
v 0.316296 0.826407 0.246119
v -0.337289 0.826407 0.246119
v 0.316296 0.542002 0.142421
v 0.316296 0.254361 0.067864
v -0.337289 0.254361 0.067864
v -0.337289 0.542002 0.142421
v 0.033856 -0.031298 0.299262
v -0.094832 -0.031298 -0.274869
v -0.220756 0.729455 0.356332
v -0.349444 0.729455 -0.217800
v -0.114272 0.479741 0.332464
v -0.033160 0.225483 0.314283
v -0.161849 0.225483 -0.259848
v -0.242960 0.479741 -0.241667
vn -0.0000 0.0883 0.9961
vn -0.0000 0.1154 0.9933
vn -0.0000 0.1899 0.9818
vn -0.0000 0.2368 0.9716
vn -0.9830 0.1834 -0.0000
vn -0.9777 0.2101 -0.0000
vn -0.9591 0.2831 -0.0000
vn -0.9444 0.3288 -0.0000
vn -0.0000 0.1977 -0.9803
vn -0.0000 0.2244 -0.9745
vn -0.0000 0.2971 -0.9549
vn -0.0000 0.3426 -0.9395
vn 0.9427 0.2584 -0.2113
vn 0.9354 0.2847 -0.2097
vn 0.9119 0.3560 -0.2044
vn 0.8941 0.4004 -0.2004
vt 0.000000 0.000000
vt 1.000000 0.000000
vt 1.000000 0.333333
vt 0.000000 0.333333
vt 0.000000 0.666667
vt 1.000000 0.666667
vt 1.000000 1.000000
vt 0.000000 1.000000
s 1
usemtl grass_2
f 1/1/1 2/2/1 7/3/2 6/4/2
f 5/5/3 8/6/3 4/7/4 3/8/4
f 6/4/2 7/3/2 8/6/3 5/5/3
f 9/1/5 10/2/5 15/3/6 14/4/6
f 13/5/7 16/6/7 12/7/8 11/8/8
f 14/4/6 15/3/6 16/6/7 13/5/7
f 17/1/9 18/2/9 23/3/10 22/4/10
f 21/5/11 24/6/11 20/7/12 19/8/12
f 22/4/10 23/3/10 24/6/11 21/5/11
f 25/1/13 26/2/13 31/3/14 30/4/14
f 29/5/15 32/6/15 28/7/16 27/8/16
f 30/4/14 31/3/14 32/6/15 29/5/15
