# Blender 5.0.1
# www.blender.org
mtllib mushroom_n_1.mtl
o mushroom_n_1
v -0.050766 0.210000 -0.018477
v -0.009381 0.210000 -0.053204
v -0.041385 0.210000 0.034726
v 0.009381 0.210000 0.053204
v 0.041385 0.210000 -0.034726
v 0.050766 0.210000 0.018477
v 0.050065 0.014000 -0.042010
v -0.050065 0.014000 0.042010
v -0.061414 0.014000 -0.022353
v 0.011349 0.014000 0.064363
v -0.011349 0.014000 -0.064363
v 0.061414 0.014000 0.022353
v -0.063458 0.105000 -0.023097
v 0.051731 0.105000 -0.043408
v -0.011727 0.105000 -0.066505
v 0.011727 0.105000 0.066505
v -0.051731 0.105000 0.043408
v 0.063458 0.105000 0.023097
v -0.012354 0.052500 -0.070062
v 0.012354 0.052500 0.070062
v -0.054499 0.052500 0.045730
v -0.066853 0.052500 -0.024332
v 0.054499 0.052500 -0.045730
v 0.066853 0.052500 0.024332
v 0.041385 -0.000000 -0.034726
v -0.041385 -0.000000 0.034726
v -0.050766 -0.000000 -0.018477
v 0.009381 -0.000000 0.053204
v -0.009381 -0.000000 -0.053204
v 0.050766 -0.000000 0.018477
v 0.001643 0.287973 0.001958
v -0.122568 0.238465 -0.044036
v -0.098470 0.263988 -0.034868
v -0.062806 0.280523 -0.021627
v -0.065900 0.279801 0.013648
v -0.103264 0.262870 0.019800
v -0.128499 0.237081 0.023591
v -0.042489 0.280787 -0.050636
v -0.066983 0.264398 -0.079827
v -0.083617 0.238972 -0.099651
v 0.024884 0.279801 -0.062529
v 0.037431 0.262870 -0.098257
v 0.045546 0.237081 -0.122450
v -0.010392 0.280523 -0.065607
v -0.017239 0.263988 -0.103029
v -0.022083 0.238465 -0.128353
v -0.099820 0.235191 0.085109
v -0.080081 0.261342 0.069530
v -0.050941 0.278815 0.045736
v -0.021937 0.277829 0.066040
v -0.035132 0.259813 0.100997
v -0.044217 0.233301 0.124034
v 0.013339 0.277107 0.069119
v 0.019538 0.258695 0.105768
v 0.023413 0.231917 0.129937
v 0.084947 0.231410 0.101235
v 0.069282 0.258285 0.082566
v 0.045436 0.276843 0.054148
v 0.053887 0.278815 -0.042225
v 0.082380 0.261342 -0.066791
v 0.101150 0.235191 -0.083525
v 0.065753 0.277107 0.025138
v 0.100769 0.258695 0.037608
v 0.123897 0.231917 0.045620
v 0.068846 0.277829 -0.010136
v 0.105563 0.259813 -0.017060
v 0.129828 0.233301 -0.022007
v 0.106348 0.209285 -0.088861
v 0.046273 0.204344 -0.038639
v 0.020719 0.205213 -0.056528
v 0.047602 0.211282 -0.129986
v -0.059267 0.205213 0.010589
v -0.136278 0.211282 0.024307
v -0.130012 0.212744 -0.047141
v -0.056541 0.205849 -0.020491
v 0.024218 0.205826 0.136663
v 0.010547 0.202839 0.059462
v 0.038827 0.202607 0.046272
v 0.089229 0.205291 0.106339
v -0.038641 0.206082 -0.046050
v -0.088860 0.213280 -0.105899
v -0.023849 0.212744 -0.136223
v -0.010361 0.205849 -0.059240
v -0.105979 0.209285 0.089302
v -0.046087 0.204344 0.038861
v -0.020533 0.203475 0.056749
v -0.047233 0.207288 0.130426
v 0.130381 0.205826 0.047581
v 0.056727 0.202839 0.020712
v 0.059453 0.203475 -0.010367
v 0.136647 0.207288 -0.023867
v 0.101788 0.204344 -0.085221
v 0.045515 0.206257 -0.124615
v 0.023115 0.201031 0.130811
v 0.085390 0.200518 0.101763
v -0.124623 0.207658 -0.045257
v -0.130625 0.206257 0.023184
v -0.022929 0.207658 -0.130589
v -0.085204 0.208170 -0.101542
v 0.124809 0.201031 0.045478
v 0.130812 0.202431 -0.022963
v -0.101602 0.204344 0.085443
v -0.045329 0.202431 0.124837
v 0.074030 0.194344 -0.061930
v 0.033117 0.195735 -0.090571
v 0.016831 0.191935 0.095136
v 0.062108 0.191562 0.074018
v -0.090582 0.196753 -0.032874
v -0.094946 0.195735 0.016886
v -0.016645 0.196753 -0.094915
v -0.061922 0.197126 -0.073796
v 0.090768 0.191935 0.033095
v 0.095132 0.192953 -0.016665
v -0.073844 0.194344 0.062152
v -0.032931 0.192953 0.090793
vn 0.9390 -0.0389 0.3418
vn 0.8711 -0.3750 0.3171
vn 0.7101 -0.3750 -0.5959
vn 0.7655 -0.0389 -0.6423
vn 0.1610 -0.3750 0.9129
vn 0.0924 -0.8465 0.5242
vn 0.5002 -0.8465 0.1821
vn 0.1722 0.1276 0.9768
vn 0.1728 0.0972 0.9801
vn 0.9352 0.0972 0.3404
vn 0.9320 0.1276 0.3392
vn 0.1735 -0.0389 0.9841
vn -0.7655 -0.0389 0.6423
vn -0.7101 -0.3750 0.5959
vn -0.1735 -0.0389 -0.9841
vn -0.1610 -0.3750 -0.9129
vn -0.9390 -0.0389 -0.3418
vn -0.8711 -0.3750 -0.3171
vn 0.4078 -0.8465 -0.3422
vn -0.0924 -0.8465 -0.5242
vn -0.7598 0.1276 0.6375
vn -0.9320 0.1276 -0.3392
vn -0.9352 0.0972 -0.3404
vn -0.7624 0.0972 0.6397
vn -0.1722 0.1276 -0.9768
vn -0.1728 0.0972 -0.9801
vn 0.7598 0.1276 -0.6375
vn 0.7624 0.0972 -0.6397
vn -0.5002 -0.8465 -0.1821
vn -0.4078 -0.8465 0.3422
vn -0.6622 0.4819 0.5738
vn -0.8537 0.4946 0.1629
vn -0.9536 -0.2542 0.1615
vn -0.7429 -0.2681 0.6133
vn -0.8141 0.5038 -0.2888
vn -0.5540 0.5072 -0.6602
vn -0.6239 -0.2403 -0.7436
vn -0.9100 -0.2440 -0.3351
vn -0.1430 0.5038 -0.8519
vn 0.3087 0.4946 -0.8125
vn 0.3246 -0.2542 -0.9110
vn -0.1720 -0.2440 -0.9544
vn -0.2908 0.4693 0.8338
vn -0.3346 -0.2820 0.8992
vn 0.8320 0.4601 0.3100
vn 0.5718 0.4567 0.6815
vn 0.6140 -0.2959 0.7317
vn 0.9001 -0.2921 0.3233
vn 0.6801 0.4819 -0.5525
vn 0.8716 0.4693 -0.1416
vn 0.9436 -0.2820 -0.1734
vn 0.7330 -0.2681 -0.6252
vn 0.1609 0.4601 0.8732
vn 0.1621 -0.2921 0.9425
vn 0.0185 0.9996 0.0221
vn 0.0702 0.9450 0.3194
vn 0.2123 0.9439 0.2531
vn 0.1190 0.7841 0.6091
vn 0.4008 0.7818 0.4777
vn 0.2498 0.9526 -0.1737
vn 0.1213 0.9570 -0.2636
vn 0.4750 0.7991 -0.3685
vn 0.2204 0.8078 -0.5468
vn -0.1770 0.9613 -0.2110
vn -0.2670 0.9602 -0.0825
vn -0.3712 0.8164 -0.4424
vn -0.5496 0.8141 -0.1877
vn -0.2807 0.9570 0.0737
vn -0.2145 0.9526 0.2158
vn -0.5767 0.8078 0.1221
vn -0.4454 0.7991 0.4038
vn -0.0349 0.9602 -0.2773
vn -0.0894 0.8141 -0.5738
vn 0.3023 0.9450 0.1246
vn 0.5792 0.7841 0.2230
vn 0.3160 0.9482 -0.0316
vn 0.6064 0.7904 -0.0868
vn -0.0860 0.9482 0.3057
vn -0.1907 0.7904 0.5821
vn 0.4811 -0.7626 -0.4324
vn 0.2071 -0.7533 -0.6243
vn 0.0980 -0.7787 0.6197
vn 0.4013 -0.7812 0.4782
vn -0.6215 -0.7465 -0.2378
vn -0.6507 -0.7533 0.0955
vn -0.1262 -0.7465 -0.6534
vn -0.4295 -0.7440 -0.5119
vn 0.5932 -0.7787 0.2041
vn 0.6225 -0.7719 -0.1292
vn -0.5094 -0.7626 0.3987
vn -0.2353 -0.7719 0.5906
vn 0.0155 -0.9986 -0.0504
vn -0.0036 -0.9980 -0.0626
vn 0.0726 -0.9600 -0.2703
vn 0.1857 -0.9636 -0.1924
vn -0.0105 -0.9997 0.0232
vn 0.0112 -0.9998 0.0134
vn 0.1543 -0.9708 0.1839
vn 0.0284 -0.9698 0.2423
vn -0.0585 -0.9976 -0.0365
vn -0.0611 -0.9980 -0.0144
vn -0.2788 -0.9600 0.0245
vn -0.2661 -0.9575 -0.1117
vn -0.0258 -0.9976 -0.0639
vn -0.0456 -0.9975 -0.0544
vn -0.1875 -0.9565 -0.2234
vn -0.0638 -0.9575 -0.2814
vn 0.0247 -0.9997 -0.0063
vn 0.0261 -0.9992 -0.0298
vn 0.2449 -0.9672 -0.0679
vn 0.2336 -0.9698 0.0701
vn -0.0523 -0.9986 0.0065
vn -0.0339 -0.9992 0.0205
vn -0.1094 -0.9672 0.2294
vn -0.2217 -0.9636 0.1494
vn 0.0731 -0.9601 -0.2701
vn -0.0635 -0.9575 -0.2815
vn -0.2787 -0.9601 0.0251
vn -0.2213 -0.9636 0.1500
vn -0.2662 -0.9575 -0.1114
vn -0.1088 -0.9672 0.2296
vn 0.0288 -0.9698 0.2422
vn 0.2335 -0.9698 0.0704
vn 0.2450 -0.9672 -0.0673
vn 0.1861 -0.9636 -0.1919
vn -0.0185 -0.9996 -0.0221
vt 0.167969 0.755208
vt 0.167969 0.692708
vt 0.250000 0.692708
vt 0.250000 0.755208
vt 0.082031 0.692708
vt 0.082031 0.666667
vt 0.167969 0.666667
vt 0.082031 1.000000
vt 0.082031 0.833333
vt 0.167969 0.833333
vt 0.167969 1.000000
vt 0.082031 0.755208
vt 0.000000 0.755208
vt 0.000000 0.692708
vt 0.000000 0.666667
vt 0.250000 1.000000
vt 0.250000 0.833333
vt 0.000000 1.000000
vt 0.000000 0.833333
vt 0.095002 0.177860
vt 0.103407 0.136039
vt 0.134773 0.124833
vt 0.157734 0.155448
vt 0.149329 0.197269
vt 0.117964 0.208475
vt 0.250000 0.666667
vt 0.208348 0.530911
vt 0.208811 0.471336
vt 0.236470 0.460362
vt 0.236413 0.539813
vt 0.186881 0.419389
vt 0.148374 0.389002
vt 0.155077 0.351464
vt 0.206747 0.391426
vt 0.103636 0.388462
vt 0.064719 0.417798
vt 0.043729 0.391391
vt 0.095344 0.351561
vt 0.185635 0.582217
vt 0.206626 0.608625
vt 0.063474 0.580626
vt 0.101981 0.611013
vt 0.095277 0.648552
vt 0.043608 0.608589
vt 0.042007 0.469104
vt 0.041544 0.528679
vt 0.013885 0.539653
vt 0.013942 0.460203
vt 0.146719 0.611553
vt 0.155011 0.648454
vt 0.125177 0.500008
vt 0.133085 0.545725
vt 0.114885 0.544879
vt 0.139109 0.576545
vt 0.108539 0.575596
vt 0.091538 0.486285
vt 0.101191 0.465692
vt 0.068522 0.477830
vt 0.084423 0.443027
vt 0.135470 0.455136
vt 0.150914 0.468012
vt 0.141816 0.424419
vt 0.167927 0.445654
vt 0.159458 0.489460
vt 0.158816 0.513730
vt 0.182566 0.481443
vt 0.181833 0.522185
vt 0.117270 0.454290
vt 0.111246 0.423471
vt 0.099441 0.532003
vt 0.082428 0.554362
vt 0.090897 0.510555
vt 0.067788 0.518573
vt 0.149164 0.534323
vt 0.165932 0.556989
vt 0.005851 0.457096
vt 0.037878 0.383310
vt 0.157054 0.659365
vt 0.092941 0.659365
vt 0.212830 0.383636
vt 0.244647 0.457669
vt 0.093301 0.340650
vt 0.157414 0.340650
vt 0.037525 0.616379
vt 0.005708 0.542347
vt 0.244504 0.542919
vt 0.212477 0.616705
vt 0.104175 0.055955
vt 0.065671 0.085596
vt 0.042870 0.055195
vt 0.095829 0.014426
vt 0.209371 0.196216
vt 0.209370 0.136935
vt 0.240517 0.125807
vt 0.240517 0.207343
vt 0.065671 0.247555
vt 0.104175 0.277195
vt 0.095829 0.318724
vt 0.042870 0.277956
vt 0.043440 0.136935
vt 0.043440 0.196216
vt 0.012294 0.207343
vt 0.012294 0.125807
vt 0.187140 0.085596
vt 0.148636 0.055955
vt 0.156981 0.014426
vt 0.209941 0.055194
vt 0.148636 0.277195
vt 0.187140 0.247555
vt 0.209941 0.277956
vt 0.156981 0.318724
vt 0.164339 0.217154
vt 0.178224 0.185088
vt 0.140290 0.097484
vt 0.112521 0.097484
vt 0.178224 0.148062
vt 0.164339 0.115997
vt 0.088472 0.115997
vt 0.074587 0.148062
vt 0.074587 0.185088
vt 0.088472 0.217154
vt 0.112521 0.235667
vt 0.140290 0.235667
s 1
usemtl mushrooms_n_1
f 24/1/1 12/2/2 7/3/3 23/4/4
f 10/5/5 28/6/6 30/7/7 12/2/2
f 4/8/8 16/9/9 18/10/10 6/11/11
f 20/12/12 21/13/13 8/14/14 10/5/5
f 19/12/15 23/13/4 7/14/3 11/5/16
f 21/4/13 22/1/17 9/2/18 8/3/14
f 11/5/16 7/14/3 25/15/19 29/6/20
f 3/16/21 1/11/22 13/10/23 17/17/24
f 18/10/10 16/9/9 20/12/12 24/1/1
f 1/11/22 2/8/25 15/9/26 13/10/23
f 5/18/27 14/19/28 15/9/26 2/8/25
f 3/18/21 17/19/24 16/9/9 4/8/8
f 5/16/27 6/11/11 18/10/10 14/17/28
f 17/17/24 13/10/23 22/1/17 21/4/13
f 24/1/1 20/12/12 10/5/5 12/2/2
f 13/10/23 15/9/26 19/12/15 22/1/17
f 15/9/26 14/19/28 23/13/4 19/12/15
f 16/9/9 17/19/24 21/13/13 20/12/12
f 14/17/28 18/10/10 24/1/1 23/4/4
f 27/20/29 29/21/20 25/22/19 30/23/7 28/24/6 26/25/30
f 8/3/14 9/2/18 27/7/29 26/26/30
f 8/14/14 26/15/30 28/6/6 10/5/5
f 7/3/3 12/2/2 30/7/7 25/26/19
f 9/2/18 11/5/16 29/6/20 27/7/29
f 47/27/31 37/28/32 73/29/33 84/30/34
f 32/31/35 40/32/36 81/33/37 74/34/38
f 46/35/39 43/36/40 71/37/41 82/38/42
f 52/39/43 47/27/31 84/30/34 87/40/44
f 64/41/45 56/42/46 79/43/47 88/44/48
f 61/45/49 67/46/50 91/47/51 68/48/52
f 67/46/50 64/41/45 88/44/48 91/47/51
f 55/49/53 52/39/43 87/40/44 76/50/54
f 31/51/55 53/52/56 58/53/57
f 58/53/57 53/52/56 54/54/58 57/55/59
f 57/55/59 54/54/58 55/49/53 56/42/46
f 31/51/55 59/56/60 41/57/61
f 41/57/61 59/56/60 60/58/62 42/59/63
f 42/59/63 60/58/62 61/45/49 43/36/40
f 31/51/55 38/60/64 34/61/65
f 34/61/65 38/60/64 39/62/66 33/63/67
f 33/63/67 39/62/66 40/32/36 32/31/35
f 56/42/46 55/49/53 76/50/54 79/43/47
f 31/51/55 35/64/68 49/65/69
f 49/65/69 35/64/68 36/66/70 48/67/71
f 48/67/71 36/66/70 37/28/32 47/27/31
f 31/51/55 34/61/65 35/64/68
f 35/64/68 34/61/65 33/63/67 36/66/70
f 36/66/70 33/63/67 32/31/35 37/28/32
f 31/51/55 41/57/61 44/68/72
f 44/68/72 41/57/61 42/59/63 45/69/73
f 45/69/73 42/59/63 43/36/40 46/35/39
f 37/28/32 32/31/35 74/34/38 73/29/33
f 31/51/55 44/68/72 38/60/64
f 38/60/64 44/68/72 45/69/73 39/62/66
f 39/62/66 45/69/73 46/35/39 40/32/36
f 31/51/55 58/53/57 62/70/74
f 62/70/74 58/53/57 57/55/59 63/71/75
f 63/71/75 57/55/59 56/42/46 64/41/45
f 40/32/36 46/35/39 82/38/42 81/33/37
f 31/51/55 62/70/74 65/72/76
f 65/72/76 62/70/74 63/71/75 66/73/77
f 66/73/77 63/71/75 64/41/45 67/46/50
f 31/51/55 65/72/76 59/56/60
f 59/56/60 65/72/76 66/73/77 60/58/62
f 60/58/62 66/73/77 67/46/50 61/45/49
f 31/51/55 49/65/69 50/74/78
f 50/74/78 49/65/69 48/67/71 51/75/79
f 51/75/79 48/67/71 47/27/31 52/39/43
f 31/51/55 50/74/78 53/52/56
f 53/52/56 50/74/78 51/75/79 54/54/58
f 54/54/58 51/75/79 52/39/43 55/49/53
f 92/76/80 93/77/81 71/37/41 68/48/52
f 94/78/82 95/79/83 79/43/47 76/50/54
f 96/80/84 97/81/85 73/29/33 74/34/38
f 98/82/86 99/83/87 81/33/37 82/38/42
f 100/84/88 101/85/89 91/47/51 88/44/48
f 102/86/90 103/87/91 87/40/44 84/30/34
f 97/81/85 102/86/90 84/30/34 73/29/33
f 99/83/87 96/80/84 74/34/38 81/33/37
f 93/77/81 98/82/86 82/38/42 71/37/41
f 95/79/83 100/84/88 88/44/48 79/43/47
f 101/85/89 92/76/80 68/48/52 91/47/51
f 103/87/91 94/78/82 76/50/54 87/40/44
f 43/36/40 61/45/49 68/48/52 71/37/41
f 104/88/92 105/89/93 93/90/94 92/91/95
f 106/92/96 107/93/97 95/94/98 94/95/99
f 108/96/100 109/97/101 97/98/102 96/99/103
f 110/100/104 111/101/105 99/102/106 98/103/107
f 112/104/108 113/105/109 101/106/110 100/107/111
f 114/108/112 115/109/113 103/110/114 102/111/115
f 109/97/101 114/108/112 102/111/115 97/98/102
f 111/101/105 108/96/100 96/99/103 99/102/106
f 105/89/93 110/100/104 98/103/107 93/90/94
f 107/93/97 112/104/108 100/107/111 95/94/98
f 113/105/109 104/88/92 92/91/95 101/106/110
f 115/109/113 106/92/96 94/95/99 103/110/114
f 86/112/116 77/113/117 106/92/96 115/109/113
f 90/114/118 69/115/119 104/88/92 113/105/109
f 78/116/106 89/117/120 112/104/108 107/93/97
f 70/118/121 83/119/122 110/100/104 105/89/93
f 80/120/98 75/121/123 108/96/100 111/101/105
f 72/122/124 85/123/125 114/108/112 109/97/101
f 85/123/125 86/112/116 115/109/113 114/108/112
f 89/117/120 90/114/118 113/105/109 112/104/108
f 83/119/122 80/120/98 111/101/105 110/100/104
f 75/121/123 72/122/124 109/97/101 108/96/100
f 77/113/117 78/116/106 107/93/97 106/92/96
f 69/115/119 70/118/121 105/89/93 104/88/92
f 19/12/15 11/5/16 9/2/18 22/1/17
f 89/117/126 78/116/126 77/113/126
f 77/113/126 86/112/126 85/123/126
f 90/114/126 89/117/126 77/113/126 69/115/126
f 75/121/126 80/120/126 83/119/126
f 83/119/126 70/118/126 69/115/126
f 72/122/126 75/121/126 77/113/126 85/123/126
f 83/119/126 69/115/126 77/113/126 75/121/126
