# Blender 5.0.1
# www.blender.org
mtllib pine_tree_n_1_4.mtl
o pine_tree_n_1_4
v 0.075026 -0.000000 0.103702
v 0.030826 -0.000000 0.117967
v -0.017814 -0.000000 0.115447
v -0.062767 -0.000000 0.099876
v -0.097190 -0.000000 0.073623
v -0.128937 -0.000000 0.033189
v -0.131754 0.000000 -0.014302
v 0.106615 -0.000000 0.068129
v 0.092797 0.000000 -0.072677
v 0.113574 0.000000 -0.029880
v 0.120784 0.000000 0.016664
v -0.105212 0.000000 -0.061618
v 0.064836 0.000000 -0.112594
v -0.073623 -0.000000 -0.097190
v -0.030826 0.000000 -0.117967
v 0.019883 0.000000 -0.128165
v 0.026927 1.310723 0.053158
v 0.050518 0.236605 0.066687
v 0.021152 0.236605 0.080943
v -0.011434 0.236605 0.082876
v -0.082876 0.236605 -0.011435
v -0.067726 1.310723 -0.002276
v -0.080943 0.236605 0.021151
v -0.066354 1.310723 0.020846
v -0.066687 0.236605 0.050517
v -0.042279 0.236605 0.072191
v -0.038919 1.310723 0.057064
v 0.021082 1.310723 -0.045388
v 0.042280 0.236605 -0.072193
v 0.011435 0.236605 -0.082877
v -0.000805 1.310723 -0.052970
v -0.021151 0.236605 -0.080944
v -0.050517 0.236605 -0.066688
v -0.044765 1.310723 -0.041482
v -0.072192 0.236605 -0.042280
v 0.072192 0.236605 0.042279
v 0.082877 0.236605 0.011434
v 0.080944 0.236605 -0.021152
v 0.066688 0.236605 -0.050518
v 0.038401 1.310723 -0.030008
v 0.060426 0.085311 0.079768
v 0.025300 0.085311 0.096820
v -0.013677 0.085311 0.099132
v 0.050572 0.085311 -0.086352
v 0.086352 0.085311 0.050572
v -0.099132 0.085311 -0.013677
v -0.096820 0.085311 0.025300
v -0.079768 0.085311 0.060425
v -0.050572 0.085311 0.086352
v 0.013677 0.085311 -0.099132
v -0.025300 0.085311 -0.096820
v -0.060426 0.085311 -0.079768
v -0.086352 0.085311 -0.050572
v 0.099132 0.085311 0.013677
v 0.096820 0.085311 -0.025301
v 0.079768 0.085311 -0.060426
v 0.004126 4.587530 0.005438
v -0.005440 4.587530 0.004118
v 0.005446 4.587530 -0.004129
v -0.004120 4.587530 -0.005448
v 0.001202 3.932168 0.020668
v 0.022262 1.966084 0.054812
v 0.006091 1.310723 0.063271
v -0.014605 3.932168 0.024798
v -0.017845 1.966084 0.065292
v -0.017031 1.310723 0.064643
v -0.064097 1.966084 0.004236
v -0.032833 3.932168 0.000735
v -0.056238 1.310723 0.041682
v -0.053616 1.966084 0.044343
v -0.028703 3.932168 0.016542
v -0.003040 1.966084 -0.042015
v -0.008770 3.932168 -0.017494
v -0.023926 1.310723 -0.051600
v -0.043147 1.966084 -0.031535
v -0.024577 3.932168 -0.013363
v -0.060143 1.310723 -0.024165
v 0.042308 1.310723 0.035836
v 0.049890 1.310723 0.013949
v 0.043211 1.966084 0.019041
v 0.009459 3.932168 0.006570
v 0.048518 1.310723 -0.009173
v 0.032730 1.966084 -0.021066
v 0.005328 3.932168 -0.009237
v 0.115256 3.198594 -0.168581
v -0.090291 3.198594 0.182391
v 0.642236 3.090908 0.140045
v 0.436689 3.090908 0.491017
v 0.529315 3.220026 0.333094
v 0.009753 3.327712 0.011803
v 0.536854 3.130125 0.078328
v 0.431460 3.153367 0.016604
v 0.326065 3.176682 -0.045120
v 0.220665 3.193384 -0.106848
v 0.015118 3.193384 0.244124
v 0.120518 3.176682 0.305851
v 0.225912 3.153367 0.367576
v 0.331307 3.130125 0.429300
v 0.425416 3.259243 0.268844
v 0.321505 3.282485 0.204586
v 0.217594 3.305801 0.140329
v 0.113678 3.322502 0.076069
v 0.069572 3.536653 -0.148995
v -0.082266 3.535278 0.152703
v 0.513813 3.402047 0.073968
v 0.361975 3.400672 0.375665
v 0.438816 3.508069 0.244623
v 0.000054 3.642725 0.010774
v 0.426127 3.443589 0.030027
v 0.337392 3.471920 -0.014502
v 0.248660 3.500312 -0.059029
v 0.159494 3.523233 -0.103800
v 0.007657 3.521858 0.197898
v 0.096823 3.498936 0.242668
v 0.185554 3.470545 0.287195
v 0.274290 3.442214 0.331725
v 0.352227 3.549620 0.198505
v 0.264586 3.577962 0.151798
v 0.176951 3.606363 0.105094
v 0.088881 3.629295 0.058146
v -0.162510 3.687982 -0.081546
v 0.129682 3.687518 0.087446
v 0.079762 3.513977 -0.500920
v 0.371955 3.513512 -0.331928
v 0.249700 3.619307 -0.423736
v -0.003116 3.793330 -0.010459
v 0.032577 3.563236 -0.419200
v -0.015755 3.599431 -0.335533
v -0.064082 3.635686 -0.251875
v -0.112883 3.666532 -0.167411
v 0.179309 3.666068 0.001581
v 0.228111 3.635221 -0.082883
v 0.276437 3.598967 -0.166541
v 0.324769 3.562772 -0.250208
v 0.200406 3.668569 -0.343235
v 0.149965 3.704768 -0.260788
v 0.099530 3.741026 -0.178349
v 0.048619 3.771876 -0.095105
v -0.176609 2.439464 -0.124767
v 0.185202 2.439465 0.087128
v 0.142438 2.338943 -0.669541
v 0.504249 2.338943 -0.457646
v 0.340329 2.472033 -0.551222
v 0.008226 2.572554 -0.014094
v 0.078484 2.377271 -0.560339
v 0.014660 2.399132 -0.451361
v -0.049164 2.421070 -0.342381
v -0.112933 2.436189 -0.233494
v 0.248878 2.436189 -0.021599
v 0.312648 2.421070 -0.130486
v 0.376472 2.399132 -0.239466
v 0.440295 2.377271 -0.348444
v 0.273764 2.510361 -0.443549
v 0.207329 2.532223 -0.336100
v 0.140894 2.554160 -0.228649
v 0.074513 2.569279 -0.121292
v -0.203325 2.141564 -0.152691
v 0.211410 2.141564 0.090199
v 0.162390 2.026339 -0.777150
v 0.577124 2.026339 -0.534260
v 0.389227 2.178896 -0.641524
v 0.008547 2.294122 -0.025829
v 0.089081 2.070273 -0.651975
v 0.015922 2.095333 -0.527055
v -0.057238 2.120478 -0.402135
v -0.130335 2.137810 -0.277321
v 0.284399 2.137810 -0.034431
v 0.357497 2.120479 -0.159246
v 0.430657 2.095333 -0.284166
v 0.503815 2.070273 -0.409085
v 0.312925 2.222831 -0.518101
v 0.236773 2.247890 -0.394935
v 0.160620 2.273036 -0.271768
v 0.084530 2.290367 -0.148706
v -0.201564 1.705435 -0.127758
v 0.225555 1.705435 0.122384
v 0.160081 1.465826 -0.745270
v 0.587201 1.465826 -0.495128
v 0.406766 1.621206 -0.627918
v 0.029708 1.860815 -0.019432
v 0.089372 1.535023 -0.624533
v 0.017199 1.584997 -0.501297
v -0.054968 1.635058 -0.378073
v -0.127740 1.677161 -0.253814
v 0.299379 1.677161 -0.003672
v 0.372151 1.635058 -0.127930
v 0.444318 1.584997 -0.251155
v 0.516491 1.535023 -0.374390
v 0.332974 1.690403 -0.508986
v 0.257719 1.740376 -0.387555
v 0.182470 1.790438 -0.266136
v 0.106615 1.832541 -0.143683
v -0.035257 3.239583 -0.178739
v 0.058321 3.239583 0.179368
v 0.506268 3.167572 -0.320246
v 0.599846 3.167572 0.037861
v 0.552534 3.284950 -0.121979
v 0.007633 3.356960 0.006606
v 0.397252 3.198047 -0.291759
v 0.288879 3.213998 -0.263440
v 0.180503 3.230017 -0.235120
v 0.072392 3.240023 -0.206869
v 0.165970 3.240023 0.151238
v 0.274080 3.230017 0.122987
v 0.382457 3.213998 0.094667
v 0.490830 3.198047 0.066348
v 0.442844 3.315424 -0.096076
v 0.333795 3.331375 -0.070341
v 0.224743 3.347394 -0.044606
v 0.115957 3.357400 -0.018939
v -0.043962 2.796487 -0.179020
v 0.052725 2.796487 0.190996
v 0.502885 2.653201 -0.321915
v 0.599573 2.653201 0.048102
v 0.564813 2.774271 -0.120744
v 0.014476 2.917555 0.008798
v 0.394716 2.698436 -0.293650
v 0.285462 2.728692 -0.265101
v 0.176213 2.759016 -0.236553
v 0.066515 2.783139 -0.207889
v 0.163203 2.783139 0.162128
v 0.272900 2.759016 0.133463
v 0.382149 2.728692 0.104916
v 0.491403 2.698436 0.076367
v 0.455945 2.819505 -0.095149
v 0.345994 2.849760 -0.069271
v 0.236047 2.880085 -0.043394
v 0.125651 2.904207 -0.017400
v 0.121782 2.929619 -0.159295
v -0.087020 2.929619 0.197236
v 0.658044 2.826568 0.154767
v 0.449242 2.826568 0.511298
v 0.542179 2.957726 0.350196
v 0.013451 3.060776 0.023269
v 0.550647 2.865137 0.091870
v 0.443381 2.887479 0.029050
v 0.336114 2.909895 -0.033771
v 0.228901 2.925593 -0.096560
v 0.020099 2.925593 0.259970
v 0.127312 2.909895 0.322760
v 0.234579 2.887479 0.385580
v 0.341846 2.865137 0.448401
v 0.436290 2.996295 0.284726
v 0.330530 3.018636 0.219333
v 0.224770 3.041053 0.153939
v 0.119064 3.056751 0.088576
v 0.172579 2.616899 0.112996
v -0.203490 2.616899 -0.023805
v -0.033186 2.517090 0.678647
v -0.409255 2.517090 0.541845
v -0.239571 2.644122 0.602315
v -0.020236 2.743932 0.041601
v 0.008022 2.554446 0.565365
v 0.049181 2.576085 0.452220
v 0.090339 2.597796 0.339075
v 0.131477 2.613001 0.225986
v -0.244592 2.613001 0.089185
v -0.285730 2.597796 0.202273
v -0.326889 2.576085 0.315419
v -0.368047 2.554446 0.428564
v -0.195649 2.681479 0.490021
v -0.151776 2.703117 0.377863
v -0.107904 2.724829 0.265705
v -0.064052 2.740033 0.153604
v 0.121876 2.556313 -0.148827
v -0.077539 2.556313 0.191675
v 0.634029 2.457895 0.151115
v 0.434614 2.457895 0.491617
v 0.523373 2.583156 0.337758
v 0.018416 2.681574 0.025529
v 0.531461 2.494730 0.091046
v 0.429017 2.516068 0.031050
v 0.326573 2.537476 -0.028947
v 0.224180 2.552468 -0.088913
v 0.024765 2.552468 0.251589
v 0.127158 2.537476 0.311555
v 0.229602 2.516068 0.371552
v 0.332046 2.494730 0.431548
v 0.422244 2.619992 0.275232
v 0.321240 2.641329 0.212778
v 0.220234 2.662737 0.150324
v 0.119280 2.677729 0.087900
v 0.121501 2.270156 -0.184827
v -0.113611 2.270156 0.216630
v 0.702233 2.046059 0.155278
v 0.467121 2.046059 0.556735
v 0.591723 2.192140 0.387019
v 0.019475 2.416236 0.032428
v 0.588657 2.110881 0.088762
v 0.472758 2.157629 0.020886
v 0.356870 2.204460 -0.046983
v 0.240021 2.243808 -0.115416
v 0.004909 2.243808 0.286041
v 0.121758 2.204460 0.354474
v 0.237646 2.157629 0.422343
v 0.353545 2.110881 0.490219
v 0.479844 2.256962 0.317606
v 0.365642 2.303710 0.246833
v 0.251451 2.350541 0.176066
v 0.136298 2.389889 0.104736
v -0.102091 1.289335 -0.189566
v 0.069647 1.289336 0.257255
v 0.529555 1.015954 -0.432343
v 0.701294 1.015954 0.014477
v 0.653604 1.164567 -0.198034
v 0.015760 1.437948 0.028620
v 0.407281 1.090979 -0.385347
v 0.281343 1.147618 -0.336941
v 0.155421 1.204341 -0.288543
v 0.027983 1.253451 -0.239561
v 0.199721 1.253451 0.207260
v 0.327160 1.204341 0.158278
v 0.453081 1.147618 0.109879
v 0.579020 1.090979 0.061474
v 0.530090 1.239592 -0.154262
v 0.402912 1.296230 -0.109081
v 0.275751 1.352953 -0.063907
v 0.147073 1.402064 -0.018150
v 0.149066 1.517821 -0.202336
v -0.084483 1.517821 0.196452
v 0.727687 1.301399 0.136532
v 0.494138 1.301399 0.535320
v 0.616754 1.446702 0.366054
v 0.046561 1.663124 0.012796
v 0.614357 1.364579 0.070161
v 0.498864 1.409782 0.002523
v 0.383381 1.455068 -0.065110
v 0.267002 1.492910 -0.133267
v 0.033453 1.492910 0.265520
v 0.149832 1.455068 0.333677
v 0.265315 1.409782 0.401310
v 0.380808 1.364579 0.468949
v 0.505110 1.509882 0.296805
v 0.391302 1.555085 0.226289
v 0.277505 1.600370 0.155778
v 0.162811 1.638213 0.084743
v -0.229559 3.006691 -0.124889
v 0.188284 3.006691 0.118648
v 0.123248 2.776829 -0.730209
v 0.541091 2.776829 -0.486672
v 0.364055 2.928785 -0.615253
v -0.003830 3.158647 -0.018720
v 0.054200 2.843608 -0.611741
v -0.016216 2.891587 -0.490927
v -0.086625 2.939652 -0.370124
v -0.157600 2.979934 -0.248351
v 0.260243 2.979934 -0.004813
v 0.331218 2.939652 -0.126587
v 0.401627 2.891587 -0.247390
v 0.472043 2.843608 -0.368204
v 0.291991 2.995564 -0.498542
v 0.218560 3.043543 -0.379486
v 0.145135 3.091608 -0.260440
v 0.071144 3.131890 -0.140424
v -0.100133 2.704399 0.206419
v 0.119571 2.704399 -0.168725
v -0.643596 2.497774 -0.111860
v -0.423893 2.497774 -0.487005
v -0.539807 2.634368 -0.328107
v -0.004272 2.840994 0.003709
v -0.537234 2.557802 -0.049569
v -0.428766 2.600931 0.013955
v -0.320307 2.644137 0.077474
v -0.210977 2.680346 0.141503
v 0.008726 2.680346 -0.233642
v -0.100604 2.644137 -0.297671
v -0.209063 2.600931 -0.361189
v -0.317530 2.557802 -0.424714
v -0.435031 2.694397 -0.263109
v -0.328148 2.737526 -0.196877
v -0.221276 2.780732 -0.130651
v -0.113531 2.816941 -0.063915
v -0.122054 3.015229 0.209400
v 0.104655 3.015229 -0.177708
v -0.682848 2.802015 -0.119029
v -0.456139 2.802015 -0.506136
v -0.575750 2.942965 -0.342172
v -0.023137 3.156180 0.000226
v -0.573094 2.863957 -0.054751
v -0.461167 2.908461 0.010799
v -0.349250 2.953045 0.076343
v -0.236433 2.990409 0.142414
v -0.009724 2.990409 -0.244694
v -0.122541 2.953046 -0.310765
v -0.234458 2.908461 -0.376309
v -0.346385 2.863957 -0.441859
v -0.467632 3.004908 -0.275100
v -0.357341 3.049412 -0.206757
v -0.247060 3.093996 -0.138419
v -0.135880 3.131360 -0.069554
v -0.211783 2.642435 0.037833
v 0.184562 2.642435 0.030733
v -0.222455 2.540945 -0.557875
v 0.173891 2.540945 -0.564975
v -0.004506 2.666785 -0.561163
v -0.008137 2.768276 0.034800
v -0.220319 2.578474 -0.438649
v -0.218184 2.600433 -0.319500
v -0.216050 2.622465 -0.200349
v -0.213916 2.638050 -0.081231
v 0.182429 2.638050 -0.088331
v 0.180295 2.622465 -0.207449
v 0.178161 2.600434 -0.326600
v 0.176027 2.578474 -0.445749
v -0.005231 2.704314 -0.441886
v -0.005957 2.726273 -0.322686
v -0.006683 2.748305 -0.203484
v -0.007409 2.763890 -0.084315
v -0.128830 2.012875 0.159814
v 0.083392 2.012875 -0.202557
v -0.673472 1.905360 -0.159156
v -0.461251 1.905360 -0.521526
v -0.556216 2.038670 -0.358082
v -0.019231 2.146185 -0.026037
v -0.564467 1.945116 -0.095317
v -0.455531 1.968380 -0.031519
v -0.346595 1.991719 0.032280
v -0.237687 2.008229 0.096061
v -0.025466 2.008229 -0.266309
v -0.134373 1.991719 -0.330090
v -0.243309 1.968380 -0.393889
v -0.352245 1.945117 -0.457687
v -0.448742 2.078427 -0.291628
v -0.341338 2.101690 -0.225214
v -0.233933 2.125029 -0.158801
v -0.126557 2.141539 -0.092404
v -0.113209 2.363414 0.190532
v 0.103600 2.363414 -0.179671
v -0.669625 2.253574 -0.135332
v -0.452816 2.253574 -0.505536
v -0.549834 2.389766 -0.338559
v -0.001242 2.499606 0.000665
v -0.558263 2.294190 -0.070113
v -0.446973 2.317956 -0.004936
v -0.335682 2.341800 0.060241
v -0.224420 2.358667 0.125402
v -0.007611 2.358667 -0.244801
v -0.118872 2.341800 -0.309962
v -0.230163 2.317956 -0.375139
v -0.341454 2.294190 -0.440317
v -0.440037 2.430382 -0.270668
v -0.330311 2.454148 -0.202819
v -0.220584 2.477992 -0.134970
v -0.110887 2.494859 -0.067137
v -0.217266 3.236376 0.043408
v 0.161846 3.236376 -0.055659
v -0.364143 3.097042 -0.518665
v 0.014969 3.097042 -0.617732
v -0.157623 3.221196 -0.580569
v -0.024426 3.360530 -0.014922
v -0.335033 3.141909 -0.407268
v -0.305683 3.171415 -0.294951
v -0.276335 3.200991 -0.182639
v -0.246886 3.224209 -0.069946
v 0.132225 3.224209 -0.169014
v 0.102777 3.200991 -0.281706
v 0.073428 3.171415 -0.394018
v 0.044078 3.141909 -0.506335
v -0.131250 3.266063 -0.468457
v -0.104636 3.295569 -0.355426
v -0.078023 3.325146 -0.242398
v -0.051311 3.348363 -0.128991
v -0.215879 2.358997 0.050384
v 0.223421 2.358997 -0.064411
v -0.389428 2.269398 -0.613761
v 0.049872 2.269398 -0.728556
v -0.146275 2.413399 -0.670774
v 0.011423 2.502998 -0.002486
v -0.354500 2.307035 -0.480096
v -0.319769 2.326856 -0.347186
v -0.285037 2.346759 -0.214273
v -0.250387 2.359286 -0.081673
v 0.188913 2.359286 -0.196467
v 0.154263 2.346759 -0.329068
v 0.119531 2.326856 -0.461981
v 0.084800 2.307035 -0.594890
v -0.114517 2.451037 -0.536280
v -0.082956 2.470858 -0.402542
v -0.051395 2.490761 -0.268800
v -0.019915 2.503288 -0.135371
v -0.049118 3.895073 -0.162823
v -0.013636 3.894608 0.177395
v 0.422966 3.679029 -0.212353
v 0.458447 3.678563 0.127866
v 0.469578 3.783892 -0.027960
v -0.003786 3.999953 0.009293
v 0.332260 3.736631 -0.202814
v 0.238201 3.781228 -0.192944
v 0.144158 3.825885 -0.183075
v 0.048726 3.865157 -0.173068
v 0.084208 3.864691 0.167150
v 0.179639 3.825419 0.157144
v 0.273683 3.780763 0.147275
v 0.367742 3.736166 0.137404
v 0.378616 3.841498 -0.020877
v 0.284302 3.886098 -0.013462
v 0.190002 3.930758 -0.006048
v 0.094314 3.970033 0.001503
v 0.143909 3.536867 0.096997
v -0.160717 3.536867 -0.081407
v -0.111697 3.352809 0.533445
v -0.416323 3.352809 0.355041
v -0.289083 3.463158 0.452221
v -0.022485 3.647216 0.022210
v -0.061929 3.404731 0.448466
v -0.010938 3.442999 0.361399
v 0.040047 3.481330 0.274342
v 0.091539 3.514009 0.186420
v -0.213088 3.514009 0.008016
v -0.264579 3.481330 0.095938
v -0.315564 3.442999 0.182995
v -0.366555 3.404731 0.270062
v -0.237117 3.515079 0.368529
v -0.183928 3.553348 0.282750
v -0.130744 3.591679 0.196980
v -0.077054 3.624358 0.110346
v 0.130508 3.294477 0.065126
v -0.147691 3.294477 -0.097801
v -0.102924 3.126387 0.463712
v -0.381123 3.126387 0.300784
v -0.264922 3.227163 0.389533
v -0.021451 3.395253 -0.003173
v -0.057473 3.173804 0.386105
v -0.010906 3.208753 0.306591
v 0.035656 3.243758 0.227086
v 0.082681 3.273602 0.146792
v -0.195519 3.273602 -0.016136
v -0.242543 3.243758 0.064159
v -0.289105 3.208753 0.143663
v -0.335672 3.173804 0.223177
v -0.217463 3.274580 0.313102
v -0.168888 3.309529 0.234765
v -0.120319 3.344534 0.156435
v -0.071286 3.374378 0.077317
v 0.171025 2.416619 0.129757
v -0.193118 2.416619 -0.083503
v -0.136333 2.206721 0.654573
v -0.500476 2.206721 0.441313
v -0.347263 2.339001 0.555577
v -0.026764 2.548900 0.038457
v -0.076326 2.266813 0.552112
v -0.014996 2.310539 0.447390
v 0.046328 2.354341 0.342678
v 0.108201 2.391366 0.237031
v -0.255942 2.391366 0.023770
v -0.317815 2.354341 0.129418
v -0.379139 2.310539 0.234129
v -0.440470 2.266813 0.338851
v -0.284628 2.399094 0.454655
v -0.220670 2.442820 0.351472
v -0.156717 2.486621 0.248299
v -0.092217 2.523647 0.144191
v 0.129943 1.461592 0.140275
v -0.236164 1.461592 -0.074135
v -0.192225 1.351915 0.690378
v -0.558331 1.351915 0.475968
v -0.393315 1.486601 0.572105
v -0.057936 1.596278 0.029738
v -0.127761 1.392292 0.580306
v -0.063324 1.416006 0.470281
v 0.001112 1.439796 0.360255
v 0.065538 1.456687 0.250248
v -0.300569 1.456688 0.035838
v -0.364994 1.439796 0.145844
v -0.429431 1.416006 0.255870
v -0.493868 1.392292 0.365896
v -0.326208 1.526978 0.463580
v -0.259130 1.550692 0.355102
v -0.192051 1.574482 0.246623
v -0.124984 1.591373 0.138164
v 0.065261 3.217773 0.198844
v -0.045448 3.217773 -0.224820
v -0.536018 2.973833 0.355966
v -0.646727 2.973833 -0.067699
v -0.623670 3.110060 0.130004
v -0.018396 3.354001 -0.011830
v -0.419429 3.041275 0.325500
v -0.299527 3.091861 0.294168
v -0.179640 3.142525 0.262840
v -0.058381 3.186211 0.231153
v -0.169090 3.186211 -0.192511
v -0.290348 3.142525 -0.160825
v -0.410235 3.091861 -0.129497
v -0.530137 3.041275 -0.098165
v -0.506281 3.177501 0.102595
v -0.385580 3.228088 0.074321
v -0.264894 3.278752 0.046050
v -0.142837 3.322438 0.017421
v -0.156606 3.413551 0.156269
v 0.135579 3.454408 -0.147565
v -0.584832 3.211460 -0.282716
v -0.292646 3.252317 -0.586549
v -0.447186 3.366314 -0.454116
v -0.029503 3.566930 -0.004168
v -0.502338 3.270005 -0.195512
v -0.416997 3.312171 -0.107772
v -0.331669 3.354413 -0.020035
v -0.245162 3.389872 0.067924
v 0.047024 3.430731 -0.235910
v -0.039483 3.395270 -0.323869
v -0.124811 3.353029 -0.411606
v -0.210153 3.310863 -0.499346
v -0.366801 3.424564 -0.364720
v -0.283569 3.466436 -0.274787
v -0.200349 3.508382 -0.184857
v -0.115950 3.543547 -0.094705
v 0.040586 3.726755 0.166932
v -0.044020 3.726755 -0.156844
v -0.418927 3.540329 0.287008
v -0.503534 3.540329 -0.036768
v -0.485913 3.644438 0.114322
v -0.023346 3.830863 0.005929
v -0.329826 3.591870 0.263725
v -0.238194 3.630529 0.239781
v -0.146573 3.669248 0.215839
v -0.053904 3.702634 0.191623
v -0.138511 3.702634 -0.132153
v -0.231180 3.669248 -0.107937
v -0.322801 3.630529 -0.083995
v -0.414433 3.591870 -0.060051
v -0.396201 3.695978 0.093375
v -0.303958 3.734638 0.071767
v -0.211727 3.773357 0.050162
v -0.118447 3.806742 0.028283
v 0.057052 2.559779 0.273803
v -0.053733 2.559779 -0.150149
v -0.571885 2.405633 0.438153
v -0.682670 2.405633 0.014202
v -0.640767 2.544493 0.207117
v -0.007832 2.698639 0.058065
v -0.447188 2.455476 0.405568
v -0.321506 2.488138 0.372725
v -0.195828 2.520880 0.339884
v -0.069742 2.546508 0.306936
v -0.180527 2.546508 -0.117015
v -0.306613 2.520880 -0.084068
v -0.432291 2.488138 -0.051226
v -0.557973 2.455476 -0.018384
v -0.515270 2.594336 0.177592
v -0.388789 2.626998 0.147809
v -0.262311 2.659740 0.118027
v -0.135426 2.685369 0.088139
v 0.046197 2.102355 0.238536
v -0.073065 2.102355 -0.217871
v -0.627563 1.922524 0.414593
v -0.746824 1.922524 -0.041814
v -0.704589 2.071810 0.166621
v -0.026527 2.251640 0.007033
v -0.494378 1.978932 0.379791
v -0.359778 2.016869 0.344619
v -0.225184 2.054890 0.309449
v -0.090003 2.085266 0.274126
v -0.209264 2.085266 -0.182281
v -0.344445 2.054891 -0.146958
v -0.479039 2.016869 -0.111788
v -0.613640 1.978932 -0.076616
v -0.570544 2.128217 0.135113
v -0.435083 2.166153 0.103235
v -0.299628 2.204176 0.071359
v -0.163587 2.234550 0.039329
v 0.091427 1.022798 0.109717
v -0.132893 1.022798 -0.099698
v -0.157598 0.729976 0.376466
v -0.381918 0.729976 0.167051
v -0.312968 0.815348 0.295619
v -0.055848 1.108170 0.036426
v -0.112178 0.800230 0.327814
v -0.062795 0.859922 0.274917
v -0.013431 0.919662 0.222039
v 0.037573 0.975029 0.167404
v -0.186747 0.975029 -0.042011
v -0.237752 0.919662 0.012624
v -0.287116 0.859922 0.065502
v -0.336498 0.800230 0.118398
v -0.265929 0.885602 0.248477
v -0.214928 0.945293 0.197092
v -0.163945 1.005034 0.145726
v -0.111322 1.060401 0.092602
v 0.202790 1.707360 0.064524
v -0.205227 1.707360 -0.010180
v 0.091787 1.565693 0.670797
v -0.316229 1.565693 0.596094
v -0.133808 1.697193 0.636492
v -0.008082 1.838859 0.032914
v 0.113818 1.612032 0.550470
v 0.136002 1.642102 0.429304
v 0.158185 1.672246 0.308143
v 0.180432 1.695654 0.186634
v -0.227584 1.695654 0.111931
v -0.249831 1.672246 0.233440
v -0.272014 1.642102 0.354601
v -0.294198 1.612033 0.475766
v -0.108832 1.743532 0.516704
v -0.083703 1.773601 0.396078
v -0.058576 1.803746 0.275456
v -0.033384 1.827154 0.154486
v 0.200637 1.226738 0.014604
v -0.276739 1.226739 0.042920
v 0.241498 0.991419 0.703486
v -0.235878 0.991419 0.731801
v -0.019607 1.141410 0.742454
v -0.043243 1.376729 0.052551
v 0.233516 1.059021 0.568913
v 0.225362 1.108065 0.431446
v 0.217209 1.157194 0.293992
v 0.208985 1.198641 0.155339
v -0.268391 1.198641 0.183655
v -0.260167 1.157194 0.322308
v -0.252014 1.108065 0.459762
v -0.243860 1.059021 0.597229
v -0.024144 1.209011 0.607677
v -0.028853 1.258056 0.470005
v -0.033561 1.307185 0.332347
v -0.038340 1.348632 0.193490
v 0.188841 1.883662 -0.183777
v -0.126187 1.883662 0.211760
v 0.774767 1.701209 0.282886
v 0.459738 1.701209 0.678424
v 0.609738 1.861390 0.506907
v 0.035180 2.043844 0.025970
v 0.658703 1.759632 0.190448
v 0.541627 1.798238 0.097201
v 0.424554 1.836934 0.003958
v 0.307062 1.867426 -0.089619
v -0.007966 1.867426 0.305919
v 0.109526 1.836934 0.399496
v 0.226598 1.798238 0.492739
v 0.343675 1.759632 0.585985
v 0.495948 1.919814 0.411613
v 0.381145 1.958420 0.315512
v 0.266346 1.997116 0.219415
v 0.151127 2.027608 0.122983
v -0.213548 1.962948 -0.005422
v 0.182847 1.962948 -0.019554
v -0.233709 1.749568 -0.570915
v 0.162686 1.749568 -0.585048
v -0.016578 1.873290 -0.602080
v -0.010721 2.086670 -0.036076
v -0.229791 1.809185 -0.461020
v -0.225770 1.853495 -0.348230
v -0.221749 1.897874 -0.235453
v -0.217685 1.935916 -0.121479
v 0.178710 1.935916 -0.135611
v 0.174646 1.897874 -0.249586
v 0.170625 1.853495 -0.362362
v 0.166604 1.809185 -0.475152
v -0.015521 1.932907 -0.492082
v -0.014360 1.977217 -0.379190
v -0.013200 2.021596 -0.266312
v -0.011998 2.059638 -0.152235
v 0.200061 2.436626 -0.034798
v -0.188515 2.436626 0.066741
v 0.344917 2.220570 0.519540
v -0.043659 2.220570 0.621080
v 0.137244 2.345845 0.598305
v 0.006410 2.561901 0.040303
v 0.316766 2.280935 0.411812
v 0.287874 2.325800 0.301248
v 0.258985 2.370737 0.190696
v 0.229790 2.409256 0.078969
v -0.158786 2.409256 0.180509
v -0.129590 2.370737 0.292235
v -0.100702 2.325800 0.402787
v -0.071810 2.280935 0.513352
v 0.111897 2.406209 0.489845
v 0.085810 2.451074 0.378547
v 0.059726 2.496011 0.267262
v 0.033334 2.534530 0.154803
v 0.139638 1.169402 -0.158767
v -0.174830 1.169402 0.173896
v 0.629112 0.986525 0.303936
v 0.314644 0.986525 0.636598
v 0.465846 1.131238 0.495978
v -0.012280 1.314115 0.021271
v 0.532539 1.042915 0.212644
v 0.434771 1.081402 0.120224
v 0.337010 1.119970 0.027809
v 0.238753 1.151125 -0.065073
v -0.075715 1.151126 0.267590
v 0.022541 1.119970 0.360472
v 0.120303 1.081402 0.452887
v 0.218071 1.042915 0.545307
v 0.371542 1.187629 0.402286
v 0.276044 1.226115 0.307465
v 0.180552 1.264683 0.212649
v 0.084565 1.295839 0.117366
v -0.255717 1.528786 0.052495
v 0.175271 1.528786 -0.156732
v -0.565490 1.354396 -0.585608
v -0.134502 1.354396 -0.794835
v -0.332981 1.506138 -0.709878
v -0.038760 1.680529 -0.064225
v -0.504148 1.410051 -0.459250
v -0.442253 1.446933 -0.331751
v -0.380360 1.483901 -0.204258
v -0.318238 1.513095 -0.076292
v 0.112750 1.513096 -0.285518
v 0.050628 1.483901 -0.413484
v -0.011265 1.446933 -0.540978
v -0.073161 1.410051 -0.668477
v -0.274750 1.561794 -0.582010
v -0.215965 1.598675 -0.453001
v -0.157182 1.635643 -0.323998
v -0.098170 1.664838 -0.194521
v -0.229148 1.294827 0.095856
v 0.198004 1.294827 -0.111508
v -0.519812 1.010021 -0.502886
v -0.092661 1.010021 -0.710250
v -0.299989 1.156762 -0.647918
v -0.024739 1.441568 -0.041694
v -0.463741 1.087075 -0.387383
v -0.405807 1.145974 -0.268044
v -0.347881 1.204956 -0.148723
v -0.289185 1.256421 -0.027813
v 0.137967 1.256421 -0.235178
v 0.079270 1.204956 -0.356088
v 0.021345 1.145974 -0.475409
v -0.036589 1.087075 -0.594748
v -0.247001 1.233816 -0.530919
v -0.192149 1.292714 -0.410084
v -0.137306 1.351696 -0.289266
v -0.081692 1.403162 -0.166860
v -0.187494 1.687720 0.118616
v 0.128775 1.687720 -0.237541
v -0.719277 1.540773 -0.353609
v -0.403008 1.540773 -0.709766
v -0.548778 1.691912 -0.552474
v -0.028407 1.838859 -0.067397
v -0.613387 1.590858 -0.259578
v -0.507075 1.622242 -0.165173
v -0.400765 1.653713 -0.070770
v -0.294281 1.677442 0.023788
v 0.021988 1.677442 -0.332369
v -0.084496 1.653713 -0.426927
v -0.190806 1.622242 -0.521331
v -0.297118 1.590858 -0.615736
v -0.445170 1.741996 -0.455873
v -0.341141 1.773381 -0.358897
v -0.237114 1.804852 -0.261924
v -0.132912 1.828581 -0.164795
v -0.133633 1.522734 0.220250
v 0.032320 1.522734 -0.258850
v -0.853056 1.388862 -0.028948
v -0.687103 1.388862 -0.508048
v -0.761871 1.549820 -0.292413
v -0.048436 1.683691 -0.025926
v -0.709181 1.437676 0.020888
v -0.565297 1.466576 0.070728
v -0.421413 1.495566 0.120567
v -0.277526 1.516312 0.170407
v -0.111573 1.516312 -0.308692
v -0.255460 1.495566 -0.358533
v -0.399344 1.466576 -0.408372
v -0.543227 1.437676 -0.458211
v -0.619193 1.598634 -0.239119
v -0.476507 1.627533 -0.185822
v -0.333821 1.656524 -0.132525
v -0.191131 1.677270 -0.079227
v 0.026910 1.807169 0.238884
v -0.096994 1.807169 -0.235276
v -0.688258 1.697978 0.425766
v -0.812162 1.697978 -0.048394
v -0.752332 1.853499 0.163981
v -0.032693 1.962691 -0.005792
v -0.544669 1.741111 0.388245
v -0.401582 1.765003 0.350854
v -0.258492 1.788983 0.313463
v -0.115610 1.804996 0.276126
v -0.239515 1.804997 -0.198034
v -0.382396 1.788983 -0.160697
v -0.525486 1.765003 -0.123306
v -0.668573 1.741111 -0.085916
v -0.607848 1.896633 0.129881
v -0.463867 1.920524 0.095913
v -0.319883 1.944505 0.061943
v -0.176108 1.960518 0.028029
v 0.025411 1.298545 0.239000
v -0.095940 1.298545 -0.225389
v -0.633762 1.031409 0.411250
v -0.755113 1.031409 -0.053139
v -0.729786 1.180742 0.163553
v -0.066233 1.447878 0.008060
v -0.505939 1.105284 0.377849
v -0.374491 1.160683 0.343500
v -0.243060 1.216166 0.309155
v -0.110128 1.264001 0.274418
v -0.231479 1.264001 -0.189971
v -0.364411 1.216166 -0.155235
v -0.495842 1.160683 -0.120890
v -0.627290 1.105284 -0.086541
v -0.601087 1.254617 0.133503
v -0.468763 1.310016 0.102505
v -0.336456 1.365500 0.071512
v -0.202648 1.413334 0.040127
v 0.026281 4.274259 -0.140127
v -0.111174 4.275252 0.098928
v 0.285527 3.979355 0.010164
v 0.148072 3.980348 0.249218
v 0.253161 4.051962 0.166162
v -0.001124 4.346830 0.007246
v 0.239595 4.048203 -0.016532
v 0.188317 4.108135 -0.046267
v 0.137063 4.168108 -0.075987
v 0.083595 4.224390 -0.106964
v -0.053860 4.225384 0.132090
v -0.000393 4.169101 0.163068
v 0.050862 4.109128 0.192788
v 0.102140 4.049197 0.222522
v 0.208222 4.120803 0.137741
v 0.157935 4.180728 0.106281
v 0.107673 4.240694 0.074836
v 0.055198 4.296970 0.042133
v 0.045294 3.993070 -0.142228
v -0.109914 3.992474 0.125582
v 0.406559 3.772664 0.066649
v 0.251351 3.772067 0.334460
v 0.347247 3.865845 0.229205
v -0.008417 4.086273 0.010663
v 0.337870 3.829549 0.026968
v 0.265961 3.874864 -0.014605
v 0.194066 3.920233 -0.056170
v 0.120839 3.960813 -0.098519
v -0.034369 3.960217 0.169292
v 0.038859 3.919637 0.211640
v 0.110753 3.874268 0.253205
v 0.182663 3.828952 0.294779
v 0.279679 3.922735 0.187591
v 0.208890 3.968055 0.144085
v 0.138116 4.013428 0.100587
v 0.066008 4.054011 0.056306
v -0.161852 3.978861 0.059716
v 0.145086 3.978209 -0.022450
v -0.275569 3.772238 -0.363449
v 0.031369 3.771585 -0.445615
v -0.113483 3.869173 -0.434391
v -0.010842 4.075820 -0.008261
v -0.253742 3.826884 -0.282344
v -0.231087 3.869493 -0.198051
v -0.208435 3.912158 -0.113773
v -0.185441 3.949838 -0.028175
v 0.121497 3.949186 -0.110340
v 0.098503 3.911506 -0.195938
v 0.075851 3.868842 -0.280216
v 0.053196 3.826232 -0.364509
v -0.093871 3.923826 -0.352692
v -0.073431 3.966439 -0.267806
v -0.052995 4.009109 -0.182935
v -0.032216 4.046793 -0.096744
v 0.055726 4.259823 0.119214
v -0.011391 4.258434 -0.124408
v -0.241370 4.029043 0.202380
v -0.308488 4.027654 -0.041242
v -0.313313 4.099850 0.077665
v -0.013794 4.330680 0.003290
v -0.186748 4.084999 0.187013
v -0.127792 4.132101 0.170502
v -0.068855 4.179242 0.153996
v -0.008123 4.222718 0.137016
v -0.075241 4.221328 -0.106605
v -0.135972 4.177852 -0.089626
v -0.194909 4.130711 -0.073120
v -0.253866 4.083610 -0.056609
v -0.258206 4.155816 0.064055
v -0.198765 4.202927 0.049303
v -0.139344 4.250079 0.034555
v -0.078128 4.293565 0.019334
v 0.132067 3.880217 0.077969
v -0.146068 3.879757 -0.083029
v -0.096902 3.704751 0.474029
v -0.375037 3.704290 0.313031
v -0.259748 3.804631 0.402333
v -0.020742 3.980114 0.012082
v -0.052465 3.753555 0.397122
v -0.006802 3.789970 0.318132
v 0.038855 3.826442 0.239152
v 0.085020 3.857785 0.159309
v -0.193114 3.857326 -0.001689
v -0.239279 3.825982 0.078154
v -0.284937 3.789510 0.157134
v -0.330600 3.753094 0.236124
v -0.213304 3.853439 0.326587
v -0.165633 3.889857 0.248760
v -0.117969 3.926332 0.170941
v -0.069797 3.957679 0.092261
v -0.016039 4.060429 0.136030
v 0.017667 4.059792 -0.123940
v -0.375299 3.891474 0.089865
v -0.341593 3.890837 -0.170105
v -0.378183 3.971484 -0.056058
v -0.020139 4.140462 -0.000512
v -0.306380 3.936268 0.098690
v -0.234810 3.971120 0.107884
v -0.163253 4.006018 0.117076
v -0.090599 4.036799 0.126421
v -0.056893 4.036163 -0.133549
v -0.129547 4.005381 -0.142893
v -0.201105 3.970484 -0.152085
v -0.272674 3.935632 -0.161279
v -0.309507 4.016284 -0.045356
v -0.238181 4.051141 -0.034286
v -0.166867 4.086042 -0.023218
v -0.094456 4.116828 -0.011997
v 0.068618 2.901278 0.260302
v -0.017300 2.901278 -0.227146
v -0.642558 2.682180 0.385656
v -0.728477 2.682181 -0.101793
v -0.708474 2.838160 0.120915
v 0.005803 3.057258 0.013150
v -0.502879 2.747358 0.361036
v -0.360891 2.793237 0.336008
v -0.218912 2.839205 0.310983
v -0.075978 2.877182 0.285789
v -0.161897 2.877182 -0.201659
v -0.304831 2.839205 -0.176465
v -0.446809 2.793237 -0.151440
v -0.588798 2.747358 -0.126413
v -0.568175 2.903337 0.099813
v -0.425566 2.949217 0.078303
v -0.282968 2.995184 0.056796
v -0.139414 3.033162 0.035120
v -0.150446 1.097570 0.017782
v 0.127198 1.097570 -0.041998
v -0.221534 0.826571 -0.312377
v 0.056110 0.826571 -0.372158
v -0.078008 0.905581 -0.387706
v -0.016939 1.176580 -0.055389
v -0.208568 0.891590 -0.252159
v -0.194471 0.946833 -0.186688
v -0.180380 1.002120 -0.121240
v -0.165820 1.053361 -0.053618
v 0.111824 1.053361 -0.113399
v 0.097264 1.002120 -0.181021
v 0.083173 0.946833 -0.246468
v 0.069076 0.891590 -0.311940
v -0.067046 0.970599 -0.327056
v -0.054953 1.025842 -0.261153
v -0.042865 1.081130 -0.195275
v -0.030309 1.132370 -0.127221
v -0.077581 4.477757 -0.047917
v 0.017585 4.475734 0.083981
v 0.026435 4.266678 -0.126204
v 0.121601 4.264655 0.005694
v 0.110325 4.299849 -0.075923
v 0.002875 4.511002 -0.002396
v 0.009954 4.313588 -0.113593
v -0.010433 4.356256 -0.098229
v -0.030802 4.398945 -0.082878
v -0.052787 4.439877 -0.066388
v 0.042379 4.437853 0.065511
v 0.064365 4.396921 0.049020
v 0.084733 4.354233 0.033669
v 0.105120 4.311564 0.018305
v 0.093157 4.346774 -0.064264
v 0.072083 4.389457 -0.049852
v 0.051028 4.432159 -0.035453
v 0.028356 4.473106 -0.019914
v 0.010058 4.542881 0.075234
v 0.042664 4.541286 -0.061084
v -0.107092 4.366029 0.049282
v -0.074486 4.364435 -0.087037
v -0.120161 4.396117 -0.033452
v -0.004187 4.573025 -0.002580
v -0.087906 4.405639 0.053408
v -0.064885 4.441419 0.058496
v -0.041882 4.477215 0.063579
v -0.017291 4.511425 0.069061
v 0.015314 4.509831 -0.067258
v -0.009277 4.475621 -0.072740
v -0.032280 4.439825 -0.077823
v -0.055301 4.404045 -0.082911
v -0.101211 4.435738 -0.028342
v -0.078425 4.471529 -0.022270
v -0.055658 4.507337 -0.016203
v -0.031302 4.541559 -0.009738
vn -0.8335 0.1914 -0.5184
vn -0.8053 0.2696 -0.5281
vn -0.9275 0.3338 -0.1685
vn -0.9610 0.2238 -0.1626
vn -0.8960 0.3375 0.2886
vn -0.9340 0.2265 0.2764
vn -0.7207 0.2651 0.6406
vn -0.7576 0.1888 0.6249
vn -0.4815 0.2128 0.8502
vn -0.4880 0.1612 0.8578
vn 0.5233 0.2082 -0.8263
vn 0.5293 0.3036 -0.7922
vn 0.0976 0.3115 -0.9452
vn 0.1117 0.2127 -0.9707
vn -0.2797 0.2647 -0.9229
vn -0.2676 0.1888 -0.9448
vn -0.5849 0.2482 -0.7722
vn -0.5940 0.1800 -0.7841
vn 0.8522 0.1997 0.4836
vn 0.8318 0.2872 0.4751
vn 0.9652 0.2451 0.0911
vn 0.9776 0.1783 0.1120
vn 0.9392 0.2107 -0.2711
vn 0.9516 0.1606 -0.2621
vn 0.8105 0.2308 -0.5383
vn 0.8054 0.1705 -0.5677
vn 0.7967 0.0206 -0.6040
vn 0.7946 0.0791 -0.6019
vn 0.5038 0.0791 -0.8602
vn 0.5048 0.0207 -0.8630
vn 0.9673 0.0190 -0.2530
vn 0.9645 0.0791 -0.2520
vn 0.9905 0.0159 0.1367
vn 0.9875 0.0791 0.1362
vn 0.8627 0.0120 0.5055
vn 0.8602 0.0792 0.5038
vn -0.6041 0.0125 -0.7968
vn -0.6019 0.0791 -0.7946
vn -0.8602 0.0791 -0.5038
vn -0.8630 0.0084 -0.5052
vn -0.2533 0.0163 -0.9673
vn -0.2520 0.0791 -0.9645
vn 0.1361 0.0192 -0.9905
vn 0.1362 0.0791 -0.9875
vn -0.7974 -0.0003 0.6035
vn -0.7946 0.0791 0.6019
vn -0.5036 0.0791 0.8603
vn -0.5058 -0.0003 0.8626
vn -0.9676 0.0015 0.2525
vn -0.9645 0.0791 0.2520
vn -0.9906 0.0044 -0.1367
vn -0.9875 0.0791 -0.1362
vn -0.1493 0.1585 0.9760
vn -0.1362 0.0791 0.9875
vn 0.2147 0.1813 0.9597
vn 0.2520 0.0791 0.9645
vn -0.1372 0.0011 0.9905
vn 0.5775 0.2052 0.7902
vn 0.6019 0.0791 0.7946
vn 0.2523 0.0040 0.9676
vn 0.6035 0.0078 0.7973
vn 0.5456 0.2961 0.7840
vn 0.1819 0.2510 0.9507
vn -0.1650 0.2063 0.9645
vn -0.0000 1.0000 -0.0000
vn 0.6035 0.0260 0.7970
vn 0.6036 -0.0015 0.7973
vn 0.9908 0.0082 0.1348
vn 0.9909 0.0114 0.1341
vn 0.7987 0.0178 -0.6014
vn 0.6100 0.0289 0.7919
vn -0.9901 0.0243 -0.1384
vn -0.7988 0.0101 0.6015
vn -0.7990 0.0329 0.6004
vn -0.9900 0.0214 -0.1392
vn 0.1344 0.0330 -0.9904
vn 0.7952 0.0225 -0.6059
vn -0.6037 0.0337 -0.7965
vn -0.1394 0.0349 0.9896
vn -0.6040 0.0071 -0.7969
vn 0.1338 -0.0017 -0.9910
vn 0.7948 -0.0001 -0.6069
vn -0.7942 0.0529 0.6053
vn -0.1389 -0.0006 0.9903
vn -0.5968 0.0415 -0.8013
vn 0.4798 0.8317 -0.2793
vn -0.2526 0.8351 0.4887
vn -0.0665 0.7937 0.6047
vn -0.1556 0.8144 0.5590
vn -0.1514 0.8183 0.5545
vn -0.1872 0.8269 0.5303
vn 0.3008 0.8516 -0.4294
vn 0.3652 0.8491 -0.3816
vn 0.4001 0.8465 -0.3513
vn 0.3975 0.8494 -0.3470
vn 0.5254 0.8058 -0.2732
vn -0.1557 0.8269 0.5404
vn 0.0334 0.7659 0.6421
vn -0.0564 0.7955 0.6033
vn -0.0523 0.7993 0.5986
vn -0.0887 0.8117 0.5773
vn 0.3396 0.8464 -0.4102
vn 0.4064 0.8368 -0.3670
vn 0.4427 0.8300 -0.3392
vn 0.4407 0.8330 -0.3345
vn -0.2124 0.7741 -0.5964
vn 0.5617 0.8173 0.1283
vn 0.6715 0.7393 -0.0496
vn 0.6288 0.7767 0.0354
vn 0.6246 0.7804 0.0307
vn 0.6017 0.7961 0.0649
vn -0.3580 0.8327 -0.4224
vn -0.3115 0.8168 -0.4857
vn -0.2819 0.8065 -0.5197
vn -0.2773 0.8094 -0.5176
vn -0.2863 0.8361 -0.4678
vn 0.4817 0.8355 0.2646
vn 0.5980 0.7977 0.0780
vn 0.5521 0.8168 0.1673
vn 0.5476 0.8207 0.1632
vn 0.5233 0.8285 0.1991
vn -0.4365 0.8522 -0.2886
vn -0.3888 0.8510 -0.3530
vn -0.3585 0.8491 -0.3879
vn -0.3542 0.8521 -0.3853
vn -0.2186 0.7822 -0.5835
vn 0.5510 0.8216 0.1462
vn 0.6627 0.7482 -0.0325
vn 0.6191 0.7835 0.0530
vn 0.6148 0.7872 0.0483
vn 0.5916 0.8020 0.0826
vn -0.3659 0.8359 -0.4092
vn -0.3188 0.8217 -0.4725
vn -0.2890 0.8123 -0.5066
vn -0.2844 0.8153 -0.5044
vn 0.1040 0.8435 -0.5269
vn 0.1293 0.8355 0.5340
vn 0.3445 0.8044 0.4841
vn 0.2484 0.8205 0.5149
vn 0.2480 0.8244 0.5088
vn 0.2052 0.8309 0.5171
vn -0.1293 0.8526 -0.5063
vn -0.0500 0.8539 -0.5181
vn -0.0039 0.8534 -0.5213
vn -0.0027 0.8563 -0.5164
vn 0.2004 0.8094 -0.5521
vn 0.2264 0.8307 0.5086
vn 0.4365 0.7732 0.4600
vn 0.3429 0.8013 0.4902
vn 0.3429 0.8051 0.4840
vn 0.3012 0.8168 0.4921
vn -0.0303 0.8461 -0.5321
vn 0.0486 0.8378 -0.5438
vn 0.0943 0.8318 -0.5470
vn 0.0958 0.8348 -0.5422
vn 0.4725 0.8345 -0.2836
vn -0.2599 0.8354 0.4844
vn -0.0735 0.7962 0.6006
vn -0.1628 0.8159 0.5548
vn -0.1586 0.8198 0.5502
vn -0.1945 0.8279 0.5260
vn 0.2933 0.8520 -0.4337
vn 0.3577 0.8503 -0.3860
vn 0.3926 0.8481 -0.3557
vn 0.3900 0.8511 -0.3514
vn 0.3640 0.8345 0.4137
vn -0.5232 0.8354 -0.1685
vn -0.6040 0.7962 0.0357
vn -0.5750 0.8159 -0.0603
vn -0.5698 0.8198 -0.0570
vn -0.5525 0.8279 -0.0967
vn 0.4794 0.8520 0.2105
vn 0.4441 0.8503 0.2824
vn 0.4206 0.8481 0.3222
vn 0.4159 0.8511 0.3204
vn 0.5823 0.7828 -0.2193
vn -0.1474 0.8219 0.5503
vn 0.0314 0.7488 0.6621
vn -0.0541 0.7840 0.6184
vn -0.0495 0.7876 0.6142
vn -0.0838 0.8024 0.5909
vn 0.4080 0.8362 -0.3666
vn 0.4713 0.8221 -0.3195
vn 0.5054 0.8128 -0.2897
vn 0.5033 0.8158 -0.2851
vn 0.2371 0.7568 -0.6091
vn 0.3856 0.8108 0.4403
vn 0.5799 0.7247 0.3722
vn 0.4946 0.7658 0.4109
vn 0.4944 0.7694 0.4045
vn 0.4557 0.7867 0.4164
vn 0.0167 0.8241 -0.5662
vn 0.0920 0.8051 -0.5859
vn 0.1360 0.7931 -0.5937
vn 0.1384 0.7960 -0.5892
vn 0.5761 0.7864 -0.2229
vn -0.1539 0.8232 0.5465
vn 0.0254 0.7521 0.6586
vn -0.0604 0.7864 0.6148
vn -0.0557 0.7901 0.6105
vn -0.0902 0.8044 0.5871
vn 0.4013 0.8377 -0.3705
vn 0.4648 0.8243 -0.3233
vn 0.4989 0.8155 -0.2935
vn 0.4967 0.8184 -0.2889
vn -0.2222 0.7845 -0.5789
vn 0.5488 0.8225 0.1494
vn 0.6603 0.7504 -0.0299
vn 0.6168 0.7851 0.0558
vn 0.6125 0.7888 0.0512
vn 0.5893 0.8034 0.0856
vn -0.3693 0.8369 -0.4040
vn -0.3223 0.8231 -0.4675
vn -0.2925 0.8141 -0.5017
vn -0.2880 0.8170 -0.4995
vn -0.5793 0.7845 0.2210
vn 0.1505 0.8225 -0.5485
vn -0.0285 0.7504 -0.6604
vn 0.0571 0.7851 -0.6167
vn 0.0525 0.7888 -0.6124
vn 0.0869 0.8034 -0.5891
vn -0.4048 0.8369 0.3685
vn -0.4682 0.8231 0.3213
vn -0.5023 0.8141 0.2915
vn -0.5001 0.8170 0.2869
vn -0.4882 0.8333 -0.2594
vn 0.5488 0.8353 -0.0340
vn 0.5510 0.7951 -0.2535
vn 0.5583 0.8153 -0.1535
vn 0.5523 0.8192 -0.1547
vn 0.5503 0.8275 -0.1115
vn -0.5231 0.8518 -0.0283
vn -0.5159 0.8498 -0.1081
vn -0.5082 0.8474 -0.1537
vn -0.5032 0.8504 -0.1537
vn -0.4756 0.8333 0.2817
vn 0.2568 0.8353 -0.4862
vn 0.0705 0.7951 -0.6024
vn 0.1597 0.8153 -0.5566
vn 0.1555 0.8192 -0.5521
vn 0.1914 0.8275 -0.5279
vn -0.2965 0.8518 0.4319
vn -0.3609 0.8498 0.3841
vn -0.3958 0.8474 0.3538
vn -0.3933 0.8504 0.3495
vn -0.5494 0.8136 -0.1902
vn 0.5113 0.8318 -0.2160
vn 0.4626 0.7771 -0.4268
vn 0.4928 0.8039 -0.3329
vn 0.4866 0.8077 -0.3329
vn 0.4947 0.8189 -0.2911
vn -0.5294 0.8474 0.0409
vn -0.5411 0.8401 -0.0381
vn -0.5443 0.8347 -0.0839
vn -0.5395 0.8377 -0.0854
vn -0.5273 0.8431 -0.1055
vn 0.5336 0.8356 -0.1308
vn 0.4837 0.8040 -0.3460
vn 0.5145 0.8203 -0.2499
vn 0.5084 0.8242 -0.2494
vn 0.5168 0.8308 -0.2067
vn -0.5067 0.8526 0.1278
vn -0.5185 0.8537 0.0485
vn -0.5217 0.8531 0.0024
vn -0.5168 0.8561 0.0012
vn 0.4195 0.7378 -0.5289
vn 0.2926 0.8006 0.5229
vn 0.4940 0.7057 0.5079
vn 0.4035 0.7508 0.5230
vn 0.4051 0.7542 0.5168
vn 0.3654 0.7733 0.5182
vn 0.1986 0.8146 -0.5449
vn 0.2756 0.7923 -0.5443
vn 0.3195 0.7784 -0.5404
vn 0.3208 0.7813 -0.5354
vn 0.2084 0.7717 0.6008
vn -0.5617 0.8174 -0.1279
vn -0.6724 0.7385 0.0491
vn -0.6293 0.7763 -0.0355
vn -0.6251 0.7799 -0.0308
vn -0.6020 0.7958 -0.0648
vn 0.3550 0.8312 0.4278
vn 0.3081 0.8150 0.4908
vn 0.2784 0.8045 0.5247
vn 0.2738 0.8074 0.5226
vn 0.2150 0.7785 0.5897
vn -0.5548 0.8202 -0.1397
vn -0.6662 0.7448 0.0384
vn -0.6227 0.7810 -0.0467
vn -0.6185 0.7847 -0.0421
vn -0.5953 0.7999 -0.0763
vn 0.3620 0.8343 0.4158
vn 0.3150 0.8193 0.4790
vn 0.2852 0.8096 0.5130
vn 0.2806 0.8125 0.5109
vn 0.2810 0.8329 0.4768
vn -0.4869 0.8352 -0.2556
vn -0.6030 0.7947 -0.0694
vn -0.5573 0.8151 -0.1585
vn -0.5527 0.8189 -0.1544
vn -0.5286 0.8273 -0.1902
vn 0.4311 0.8517 0.2978
vn 0.3834 0.8496 0.3622
vn 0.3531 0.8472 0.3970
vn 0.3488 0.8501 0.3945
vn -0.2960 0.7611 0.5771
vn -0.3265 0.8128 -0.4825
vn -0.5280 0.7287 -0.4361
vn -0.4386 0.7689 -0.4652
vn -0.4390 0.7725 -0.4589
vn -0.3991 0.7894 -0.4665
vn -0.0716 0.8262 0.5588
vn -0.1488 0.8080 0.5700
vn -0.1935 0.7964 0.5729
vn -0.1954 0.7994 0.5682
vn -0.6674 0.7331 0.1307
vn 0.2162 0.8713 -0.4407
vn 0.0732 0.7994 -0.5963
vn 0.1438 0.8348 -0.5314
vn 0.1381 0.8379 -0.5281
vn 0.1651 0.8523 -0.4964
vn -0.5357 0.7821 0.3183
vn -0.5854 0.7690 0.2568
vn -0.6110 0.7607 0.2192
vn -0.6080 0.7641 0.2155
vn -0.1882 0.8144 0.5489
vn -0.2140 0.8320 -0.5119
vn -0.4249 0.7779 -0.4631
vn -0.3309 0.8044 -0.4934
vn -0.3309 0.8082 -0.4871
vn -0.2890 0.8193 -0.4952
vn 0.0430 0.8476 0.5288
vn -0.0360 0.8405 0.5406
vn -0.0819 0.8353 0.5437
vn -0.0833 0.8382 0.5389
vn -0.2038 0.8079 0.5530
vn -0.2300 0.8303 -0.5077
vn -0.4398 0.7719 -0.4592
vn -0.3464 0.8004 -0.4893
vn -0.3464 0.8041 -0.4831
vn -0.3047 0.8160 -0.4911
vn 0.0267 0.8456 0.5331
vn -0.0522 0.8370 0.5448
vn -0.0979 0.8308 0.5479
vn -0.0994 0.8338 0.5431
vn -0.0828 0.5980 0.7972
vn -0.6930 0.7182 -0.0627
vn -0.8150 0.5765 0.0590
vn -0.7660 0.6428 -0.0015
vn -0.7637 0.6456 0.0048
vn -0.7387 0.6738 -0.0180
vn 0.0770 0.7261 0.6832
vn 0.0238 0.6857 0.7275
vn -0.0087 0.6615 0.7499
vn -0.0133 0.6641 0.7475
vn 0.4188 0.8166 0.3972
vn -0.5533 0.8325 -0.0282
vn -0.5983 0.7799 0.1839
vn -0.5860 0.8058 0.0857
vn -0.5804 0.8096 0.0883
vn -0.5700 0.8203 0.0469
vn 0.4984 0.8483 0.1790
vn 0.4756 0.8417 0.2556
vn 0.4591 0.8367 0.2985
vn 0.4542 0.8397 0.2977
vn 0.5062 0.7800 0.3680
vn -0.5391 0.8207 0.1891
vn -0.5327 0.7462 0.3993
vn -0.5439 0.7820 0.3042
vn -0.5378 0.7857 0.3058
vn -0.5375 0.8007 0.2644
vn 0.5318 0.8349 0.1416
vn 0.5279 0.8203 0.2203
vn 0.5220 0.8107 0.2651
vn 0.5170 0.8136 0.2659
vn 0.5561 0.8124 -0.1752
vn -0.2776 0.8315 0.4812
vn -0.1124 0.7760 0.6206
vn -0.1928 0.8032 0.5636
vn -0.1878 0.8070 0.5599
vn -0.2193 0.8183 0.5313
vn 0.4016 0.8471 -0.3481
vn 0.4583 0.8395 -0.2919
vn 0.4883 0.8339 -0.2571
vn 0.4853 0.8369 -0.2531
vn -0.4982 0.7669 -0.4046
vn 0.5425 0.8153 -0.2025
vn 0.5412 0.7340 -0.4103
vn 0.5501 0.7730 -0.3161
vn 0.5440 0.7765 -0.3179
vn 0.5427 0.7929 -0.2771
vn -0.5293 0.8290 -0.1807
vn -0.5234 0.8118 -0.2588
vn -0.5165 0.8008 -0.3031
vn -0.5115 0.8038 -0.3039
vn 0.5745 0.7669 0.2861
vn -0.4852 0.8153 0.3159
vn -0.4386 0.7340 0.5185
vn -0.4678 0.7730 0.4286
vn -0.4615 0.7765 0.4290
vn -0.4692 0.7929 0.3888
vn 0.5560 0.8290 0.0608
vn 0.5673 0.8118 0.1383
vn 0.5702 0.8008 0.1831
vn 0.5655 0.8038 0.1849
vn 0.5843 0.8036 -0.1130
vn -0.3015 0.8290 0.4709
vn -0.1498 0.7680 0.6227
vn -0.2245 0.7977 0.5597
vn -0.2192 0.8014 0.5565
vn -0.2480 0.8139 0.5255
vn 0.4458 0.8442 -0.2977
vn 0.4973 0.8346 -0.2370
vn 0.5241 0.8278 -0.1999
vn 0.5209 0.8308 -0.1961
vn -0.5780 0.8117 -0.0836
vn 0.4573 0.8313 -0.3159
vn 0.3685 0.7754 -0.5128
vn 0.4164 0.8028 -0.4268
vn 0.4103 0.8066 -0.4255
vn 0.4264 0.8180 -0.3862
vn -0.5133 0.8468 0.1390
vn -0.5402 0.8391 0.0639
vn -0.5523 0.8334 0.0196
vn -0.5478 0.8364 0.0172
vn -0.6337 0.7477 -0.1983
vn 0.3988 0.8065 -0.4364
vn 0.3152 0.7163 -0.6226
vn 0.3606 0.7593 -0.5417
vn 0.3543 0.7627 -0.5410
vn 0.3693 0.7809 -0.5038
vn -0.5729 0.8195 0.0164
vn -0.5987 0.7989 -0.0567
vn -0.6101 0.7860 -0.0996
vn -0.6059 0.7889 -0.1024
vn -0.5432 0.8234 0.1643
vn 0.3248 0.8339 -0.4462
vn 0.1660 0.7861 -0.5954
vn 0.2439 0.8098 -0.5337
vn 0.2388 0.8136 -0.5301
vn 0.2691 0.8234 -0.4996
vn -0.3974 0.8500 0.3459
vn -0.4512 0.8452 0.2866
vn -0.4794 0.8412 0.2502
vn -0.4761 0.8442 0.2464
vn -0.4157 0.8319 0.3677
vn 0.1528 0.8351 -0.5284
vn -0.0524 0.7938 -0.6059
vn 0.0439 0.8145 -0.5785
vn 0.0407 0.8184 -0.5732
vn 0.0806 0.8269 -0.5565
vn -0.2109 0.8516 0.4799
vn -0.2833 0.8492 0.4457
vn -0.3234 0.8465 0.4228
vn -0.3218 0.8495 0.4180
vn -0.1193 0.8390 0.5309
vn -0.1444 0.8356 -0.5300
vn -0.3591 0.8003 -0.4803
vn -0.2632 0.8183 -0.5110
vn -0.2629 0.8222 -0.5049
vn -0.2202 0.8295 -0.5132
vn 0.1139 0.8524 0.5103
vn 0.0346 0.8522 0.5221
vn -0.0116 0.8508 0.5253
vn -0.0127 0.8538 0.5205
vn -0.2958 0.7613 0.5770
vn -0.3262 0.8129 -0.4825
vn -0.5277 0.7289 -0.4362
vn -0.4383 0.7690 -0.4653
vn -0.4388 0.7726 -0.4590
vn -0.3988 0.7895 -0.4666
vn -0.0713 0.8263 0.5587
vn -0.1486 0.8081 0.5700
vn -0.1932 0.7966 0.5728
vn -0.1951 0.7995 0.5681
vn 0.8457 0.5286 -0.0737
vn 0.1586 0.6734 0.7221
vn 0.2914 0.5150 0.8061
vn 0.2276 0.5888 0.7755
vn 0.2334 0.5913 0.7720
vn 0.2083 0.6227 0.7542
vn 0.7107 0.6754 -0.1969
vn 0.7620 0.6282 -0.1573
vn 0.7888 0.6004 -0.1319
vn 0.7877 0.6028 -0.1267
vn 0.6870 0.7090 -0.1591
vn -0.0309 0.7850 0.6187
vn 0.1356 0.6784 0.7221
vn 0.0560 0.7288 0.6825
vn 0.0611 0.7321 0.6785
vn 0.0292 0.7534 0.6569
vn 0.5221 0.7986 -0.2996
vn 0.5827 0.7718 -0.2545
vn 0.6151 0.7554 -0.2259
vn 0.6134 0.7582 -0.2211
vn -0.5902 0.7317 -0.3410
vn 0.4682 0.7969 -0.3817
vn 0.4220 0.6993 -0.5769
vn 0.4510 0.7456 -0.4905
vn 0.4446 0.7491 -0.4911
vn 0.4522 0.7687 -0.4524
vn -0.5717 0.8115 -0.1213
vn -0.5831 0.7881 -0.1972
vn -0.5860 0.7736 -0.2410
vn -0.5814 0.7765 -0.2431
vn -0.4688 0.6220 0.6271
vn -0.5349 0.7293 -0.4266
vn -0.7069 0.5935 -0.3848
vn -0.6315 0.6570 -0.4117
vn -0.6327 0.6600 -0.4051
vn -0.5987 0.6870 -0.4118
vn -0.2691 0.7438 0.6119
vn -0.3388 0.7056 0.6224
vn -0.3790 0.6827 0.6247
vn -0.3816 0.6854 0.6202
vn 0.2039 0.7652 0.6107
vn -0.5704 0.8135 -0.1134
vn -0.6794 0.7310 0.0630
vn -0.6371 0.7705 -0.0213
vn -0.6329 0.7740 -0.0166
vn -0.6102 0.7907 -0.0504
vn 0.3490 0.8286 0.4378
vn 0.3026 0.8110 0.5008
vn 0.2731 0.7997 0.5346
vn 0.2685 0.8026 0.5326
vn -0.5369 0.7339 0.4161
vn -0.1714 0.7978 -0.5781
vn -0.3699 0.7010 -0.6098
vn -0.2788 0.7469 -0.6037
vn -0.2818 0.7503 -0.5980
vn -0.2430 0.7698 -0.5902
vn -0.3264 0.8128 0.4826
vn -0.4010 0.7897 0.4643
vn -0.4427 0.7754 0.4503
vn -0.4428 0.7783 0.4452
vn -0.2810 0.7931 0.5405
vn -0.2222 0.8256 -0.5186
vn -0.4327 0.7582 -0.4877
vn -0.3384 0.7908 -0.5100
vn -0.3391 0.7945 -0.5038
vn -0.2974 0.8082 -0.5083
vn -0.0514 0.8403 0.5396
vn -0.1305 0.8283 0.5448
vn -0.1760 0.8203 0.5442
vn -0.1772 0.8233 0.5393
vn -0.6072 0.5980 -0.5232
vn 0.4471 0.7182 -0.5331
vn 0.4168 0.5765 -0.7028
vn 0.4386 0.6428 -0.6280
vn 0.4321 0.6456 -0.6297
vn 0.4365 0.6738 -0.5962
vn -0.6049 0.7261 -0.3269
vn -0.6109 0.6857 -0.3958
vn -0.6107 0.6615 -0.4353
vn -0.6061 0.6641 -0.4377
vn 0.3707 0.3549 -0.8583
vn 0.8469 0.5265 0.0745
vn 0.9421 0.3352 0.0104
vn 0.9047 0.4236 0.0456
vn 0.9043 0.4253 0.0385
vn 0.8849 0.4632 0.0497
vn 0.2371 0.5406 -0.8071
vn 0.2832 0.4794 -0.8307
vn 0.3107 0.4436 -0.8406
vn 0.3155 0.4455 -0.8378
vn -0.8767 0.3890 0.2829
vn -0.4731 0.5546 -0.6845
vn -0.5918 0.3684 -0.7170
vn -0.5371 0.4545 -0.7106
vn -0.5420 0.4564 -0.7056
vn -0.5193 0.4933 -0.6978
vn -0.7432 0.5685 0.3529
vn -0.7936 0.5095 0.3326
vn -0.8206 0.4750 0.3178
vn -0.8215 0.4770 0.3124
vt 0.293163 4.954233
vt 0.335707 5.102386
vt 0.256239 5.121584
vt 0.223221 4.968729
vt 0.175693 5.135822
vt 0.151320 4.980035
vt 0.094539 5.145764
vt 0.078096 4.988136
vt 0.013009 5.151849
vt 0.004029 4.993052
vt -0.584866 4.929314
vt -0.628081 5.079594
vt -0.705487 5.055523
vt -0.654285 4.908113
vt -0.781809 5.026679
vt -0.721407 4.883933
vt -0.856398 4.991970
vt -0.785538 4.857168
vt 0.360203 4.936266
vt 0.413236 5.077391
vt -0.294208 4.983969
vt -0.312405 5.141077
vt -0.392384 5.130301
vt -0.368125 4.974604
vt -0.471659 5.116520
vt -0.441375 4.962482
vt -0.550155 5.099669
vt -0.513767 4.947629
vt -0.241421 2.600050
vt -0.454062 4.662862
vt -0.515127 4.650397
vt -0.287054 2.595921
vt -0.195598 2.604594
vt -0.391993 4.673619
vt -0.150025 2.608824
vt -0.329131 4.682603
vt -0.104669 2.614618
vt -0.265684 4.689755
vt 0.291596 2.637558
vt 0.296685 4.672284
vt 0.237514 4.681082
vt 0.247348 2.636929
vt -0.377666 2.588654
vt -0.633482 4.620934
vt -0.690571 4.604454
vt -0.422271 2.585449
vt -0.332488 2.592063
vt -0.574999 4.636364
vt 0.115928 2.632380
vt 0.053039 4.697609
vt -0.010181 4.699712
vt 0.072286 2.630153
vt 0.159513 2.634044
vt 0.115548 4.693747
vt 0.203420 2.635470
vt 0.177114 4.688206
vt -0.070491 4.994807
vt -0.073886 4.700003
vt -0.145156 4.994168
vt -0.137853 4.698458
vt 0.028491 2.627731
vt -0.219813 4.990525
vt -0.201855 4.695044
vt -0.015437 2.624221
vt -0.059929 2.619581
vt -0.231749 5.148830
vt -0.150513 5.153232
vt -0.068815 5.154324
vt 1.104587 -4.154323
vt 1.123525 -4.154323
vt 1.123525 -4.135385
vt 1.104587 -4.135385
vt 0.262872 -2.691121
vt 0.021697 1.325903
vt -0.059621 1.320553
vt 0.227556 -2.693887
vt 0.348980 -4.153643
vt 0.369727 -4.151359
vt 0.267777 1.360989
vt 0.186338 1.351366
vt 0.332625 -2.685394
vt 0.367538 -2.682805
vt -0.218992 1.312943
vt -0.139579 1.316848
vt -0.298631 1.307354
vt 0.297854 -2.689647
vt 0.120471 -2.705412
vt 0.155733 -2.700286
vt 0.191549 -2.695756
vt 0.391185 -4.148102
vt 0.104144 1.337590
vt 0.402582 -2.679829
vt 0.413236 -4.148011
vt 0.349201 1.364312
vt 0.327761 -4.154325
vt 0.000000 0.800000
vt 0.542651 0.800000
vt 0.549868 1.000000
vt 0.000000 1.000000
vt 0.521000 0.200000
vt 0.513783 0.000000
vt 1.000000 0.000000
vt 1.000000 0.200000
vt 1.000000 0.800000
vt 1.000000 1.000000
vt 0.535434 0.600000
vt 1.000000 0.600000
vt 0.528217 0.400000
vt 1.000000 0.400000
vt 0.000000 0.000000
vt 0.000000 0.200000
vt 0.000000 0.400000
vt 0.000000 0.600000
s 1
usemtl pine_bark_2
f 53/1/1 12/2/2 7/3/3 46/4/4
f 46/4/4 7/3/3 6/5/5 47/6/6
f 47/6/6 6/5/5 5/7/7 48/8/8
f 48/8/8 5/7/7 4/9/9 49/10/10
f 44/11/11 13/12/12 16/13/13 50/14/14
f 50/14/14 16/13/13 15/15/15 51/16/16
f 51/16/16 15/15/15 14/17/17 52/18/18
f 52/19/18 14/20/17 12/2/2 53/1/1
f 45/21/19 8/22/20 11/23/21 54/24/22
f 54/24/22 11/23/21 10/25/23 55/26/24
f 55/26/24 10/25/23 9/27/25 56/28/26
f 56/28/26 9/27/25 13/12/12 44/11/11
f 40/29/27 39/30/28 29/31/29 28/32/30
f 82/33/31 38/34/32 39/30/28 40/29/27
f 79/35/33 37/36/34 38/34/32 82/33/31
f 78/37/35 36/38/36 37/36/34 79/35/33
f 34/39/37 33/40/38 35/41/39 77/42/40
f 74/43/41 32/44/42 33/45/38 34/46/37
f 31/47/43 30/48/44 32/44/42 74/43/41
f 28/32/30 29/31/29 30/48/44 31/47/43
f 69/49/45 25/50/46 26/51/47 27/52/48
f 24/53/49 23/54/50 25/50/46 69/49/45
f 22/55/51 21/56/52 23/54/50 24/53/49
f 43/57/53 20/58/54 26/51/47 49/10/10
f 77/42/40 35/41/39 21/56/52 22/55/51
f 42/59/55 19/60/56 20/58/54 43/57/53
f 20/58/54 66/61/57 27/52/48 26/51/47
f 41/62/58 18/63/59 19/60/56 42/59/55
f 19/60/56 63/64/60 66/61/57 20/58/54
f 45/21/19 36/38/36 18/63/59 41/62/58
f 18/63/59 17/65/61 63/64/60 19/60/56
f 8/22/20 45/21/19 41/62/58 1/66/62
f 1/66/62 41/62/58 42/59/55 2/67/63
f 2/67/63 42/59/55 43/57/53 3/68/64
f 3/68/64 43/57/53 49/10/10 4/9/9
f 39/30/28 56/28/26 44/11/11 29/31/29
f 38/34/32 55/26/24 56/28/26 39/30/28
f 37/36/34 54/24/22 55/26/24 38/34/32
f 36/38/36 45/21/19 54/24/22 37/36/34
f 33/40/38 52/19/18 53/1/1 35/41/39
f 32/44/42 51/16/16 52/18/18 33/45/38
f 30/48/44 50/14/14 51/16/16 32/44/42
f 29/31/29 44/11/11 50/14/14 30/48/44
f 25/50/46 48/8/8 49/10/10 26/51/47
f 23/54/50 47/6/6 48/8/8 25/50/46
f 21/56/52 46/4/4 47/6/6 23/54/50
f 35/41/39 53/1/1 46/4/4 21/56/52
f 60/69/65 58/70/65 57/71/65 59/72/65
f 36/38/36 78/37/35 17/65/61 18/63/59
f 61/73/66 62/74/67 80/75/68 81/76/69
f 59/77/70 57/78/71 81/76/69
f 67/79/72 70/80/73 71/81/74 68/82/75
f 28/32/30 72/83/76 83/84/77
f 72/83/76 74/43/41 75/85/78
f 57/78/71 64/86/79 61/73/66
f 72/83/76 75/85/78 76/87/80 73/88/81
f 80/75/68 83/84/77 84/89/82 81/76/69
f 62/74/67 78/37/35 80/75/68
f 80/75/68 82/33/31 83/84/77
f 64/86/79 57/78/71 58/90/83
f 65/91/84 64/86/79 71/81/74 70/80/73
f 76/92/80 68/82/75 60/93/85
f 77/42/40 67/79/72 75/94/78
f 83/84/77 72/83/76 73/88/81 84/89/82
f 84/89/82 73/88/81 59/77/70
f 64/86/79 65/91/84 62/74/67 61/73/66
f 27/52/48 65/91/84 70/80/73
f 75/94/78 67/79/72 68/82/75 76/92/80
f 66/61/57 65/91/84 27/52/48
f 63/64/60 65/91/84 66/61/57
f 65/91/84 63/64/60 62/74/67
f 17/65/61 62/74/67 63/64/60
f 78/37/35 62/74/67 17/65/61
f 80/75/68 78/37/35 79/35/33
f 82/33/31 80/75/68 79/35/33
f 83/84/77 82/33/31 40/29/27
f 28/32/30 83/84/77 40/29/27
f 72/83/76 28/32/30 31/47/43
f 74/43/41 72/83/76 31/47/43
f 75/85/78 74/43/41 34/46/37
f 77/42/40 75/94/78 34/39/37
f 67/79/72 77/42/40 22/55/51
f 70/80/73 24/53/49 69/49/45
f 24/53/49 67/79/72 22/55/51
f 27/52/48 70/80/73 69/49/45
f 67/79/72 24/53/49 70/80/73
f 59/77/70 73/88/81 60/95/85
f 59/77/70 81/76/69 84/89/82
f 57/78/71 61/73/66 81/76/69
f 60/95/85 73/88/81 76/87/80
f 58/90/83 68/82/75 71/81/74
f 64/86/79 58/90/83 71/81/74
f 60/93/85 68/82/75 58/90/83
usemtl pine_branch_3
f 91/96/86 99/97/86 89/98/86 87/99/86
f 102/100/87 90/101/87 86/102/87 95/103/87
f 89/98/88 99/97/88 98/104/88 88/105/88
f 99/97/89 100/106/89 97/107/89 98/104/89
f 100/106/90 101/108/90 96/109/90 97/107/90
f 101/108/91 102/100/91 95/103/91 96/109/91
f 85/110/92 90/101/92 102/100/92 94/111/92
f 94/111/93 102/100/93 101/108/93 93/112/93
f 93/112/94 101/108/94 100/106/94 92/113/94
f 92/113/95 100/106/95 99/97/95 91/96/95
f 109/96/96 117/97/96 107/98/96 105/99/96
f 120/100/97 108/101/97 104/102/97 113/103/97
f 107/98/98 117/97/98 116/104/98 106/105/98
f 117/97/99 118/106/99 115/107/99 116/104/99
f 118/106/100 119/108/100 114/109/100 115/107/100
f 119/108/101 120/100/101 113/103/101 114/109/101
f 103/110/102 108/101/102 120/100/102 112/111/102
f 112/111/103 120/100/103 119/108/103 111/112/103
f 111/112/104 119/108/104 118/106/104 110/113/104
f 110/113/105 118/106/105 117/97/105 109/96/105
f 127/96/106 135/97/106 125/98/106 123/99/106
f 138/100/107 126/101/107 122/102/107 131/103/107
f 125/98/108 135/97/108 134/104/108 124/105/108
f 135/97/109 136/106/109 133/107/109 134/104/109
f 136/106/110 137/108/110 132/109/110 133/107/110
f 137/108/111 138/100/111 131/103/111 132/109/111
f 121/110/112 126/101/112 138/100/112 130/111/112
f 130/111/113 138/100/113 137/108/113 129/112/113
f 129/112/114 137/108/114 136/106/114 128/113/114
f 128/113/115 136/106/115 135/97/115 127/96/115
f 145/96/116 153/97/116 143/98/116 141/99/116
f 156/100/117 144/101/117 140/102/117 149/103/117
f 143/98/118 153/97/118 152/104/118 142/105/118
f 153/97/119 154/106/119 151/107/119 152/104/119
f 154/106/120 155/108/120 150/109/120 151/107/120
f 155/108/121 156/100/121 149/103/121 150/109/121
f 139/110/122 144/101/122 156/100/122 148/111/122
f 148/111/123 156/100/123 155/108/123 147/112/123
f 147/112/124 155/108/124 154/106/124 146/113/124
f 146/113/125 154/106/125 153/97/125 145/96/125
f 163/96/116 171/97/116 161/98/116 159/99/116
f 174/100/117 162/101/117 158/102/117 167/103/117
f 161/98/118 171/97/118 170/104/118 160/105/118
f 171/97/119 172/106/119 169/107/119 170/104/119
f 172/106/120 173/108/120 168/109/120 169/107/120
f 173/108/121 174/100/121 167/103/121 168/109/121
f 157/110/122 162/101/122 174/100/122 166/111/122
f 166/111/123 174/100/123 173/108/123 165/112/123
f 165/112/124 173/108/124 172/106/124 164/113/124
f 164/113/125 172/106/125 171/97/125 163/96/125
f 181/96/126 189/97/126 179/98/126 177/99/126
f 192/100/127 180/101/127 176/102/127 185/103/127
f 179/98/128 189/97/128 188/104/128 178/105/128
f 189/97/129 190/106/129 187/107/129 188/104/129
f 190/106/130 191/108/130 186/109/130 187/107/130
f 191/108/131 192/100/131 185/103/131 186/109/131
f 175/110/132 180/101/132 192/100/132 184/111/132
f 184/111/133 192/100/133 191/108/133 183/112/133
f 183/112/134 191/108/134 190/106/134 182/113/134
f 182/113/135 190/106/135 189/97/135 181/96/135
f 199/96/136 207/97/136 197/98/136 195/99/136
f 210/100/137 198/101/137 194/102/137 203/103/137
f 197/98/138 207/97/138 206/104/138 196/105/138
f 207/97/139 208/106/139 205/107/139 206/104/139
f 208/106/140 209/108/140 204/109/140 205/107/140
f 209/108/141 210/100/141 203/103/141 204/109/141
f 193/110/142 198/101/142 210/100/142 202/111/142
f 202/111/143 210/100/143 209/108/143 201/112/143
f 201/112/144 209/108/144 208/106/144 200/113/144
f 200/113/145 208/106/145 207/97/145 199/96/145
f 217/96/146 225/97/146 215/98/146 213/99/146
f 228/100/147 216/101/147 212/102/147 221/103/147
f 215/98/148 225/97/148 224/104/148 214/105/148
f 225/97/149 226/106/149 223/107/149 224/104/149
f 226/106/150 227/108/150 222/109/150 223/107/150
f 227/108/151 228/100/151 221/103/151 222/109/151
f 211/110/152 216/101/152 228/100/152 220/111/152
f 220/111/153 228/100/153 227/108/153 219/112/153
f 219/112/154 227/108/154 226/106/154 218/113/154
f 218/113/155 226/106/155 225/97/155 217/96/155
f 235/96/156 243/97/156 233/98/156 231/99/156
f 246/100/157 234/101/157 230/102/157 239/103/157
f 233/98/158 243/97/158 242/104/158 232/105/158
f 243/97/159 244/106/159 241/107/159 242/104/159
f 244/106/160 245/108/160 240/109/160 241/107/160
f 245/108/161 246/100/161 239/103/161 240/109/161
f 229/110/162 234/101/162 246/100/162 238/111/162
f 238/111/163 246/100/163 245/108/163 237/112/163
f 237/112/164 245/108/164 244/106/164 236/113/164
f 236/113/165 244/106/165 243/97/165 235/96/165
f 253/96/166 261/97/166 251/98/166 249/99/166
f 264/100/167 252/101/167 248/102/167 257/103/167
f 251/98/168 261/97/168 260/104/168 250/105/168
f 261/97/169 262/106/169 259/107/169 260/104/169
f 262/106/170 263/108/170 258/109/170 259/107/170
f 263/108/171 264/100/171 257/103/171 258/109/171
f 247/110/172 252/101/172 264/100/172 256/111/172
f 256/111/173 264/100/173 263/108/173 255/112/173
f 255/112/174 263/108/174 262/106/174 254/113/174
f 254/113/175 262/106/175 261/97/175 253/96/175
f 271/96/156 279/97/156 269/98/156 267/99/156
f 282/100/157 270/101/157 266/102/157 275/103/157
f 269/98/158 279/97/158 278/104/158 268/105/158
f 279/97/159 280/106/159 277/107/159 278/104/159
f 280/106/160 281/108/160 276/109/160 277/107/160
f 281/108/161 282/100/161 275/103/161 276/109/161
f 265/110/162 270/101/162 282/100/162 274/111/162
f 274/111/163 282/100/163 281/108/163 273/112/163
f 273/112/164 281/108/164 280/106/164 272/113/164
f 272/113/165 280/106/165 279/97/165 271/96/165
f 289/96/176 297/97/176 287/98/176 285/99/176
f 300/100/177 288/101/177 284/102/177 293/103/177
f 287/98/178 297/97/178 296/104/178 286/105/178
f 297/97/179 298/106/179 295/107/179 296/104/179
f 298/106/180 299/108/180 294/109/180 295/107/180
f 299/108/181 300/100/181 293/103/181 294/109/181
f 283/110/182 288/101/182 300/100/182 292/111/182
f 292/111/183 300/100/183 299/108/183 291/112/183
f 291/112/184 299/108/184 298/106/184 290/113/184
f 290/113/185 298/106/185 297/97/185 289/96/185
f 307/96/186 315/97/186 305/98/186 303/99/186
f 318/100/187 306/101/187 302/102/187 311/103/187
f 305/98/188 315/97/188 314/104/188 304/105/188
f 315/97/189 316/106/189 313/107/189 314/104/189
f 316/106/190 317/108/190 312/109/190 313/107/190
f 317/108/191 318/100/191 311/103/191 312/109/191
f 301/110/192 306/101/192 318/100/192 310/111/192
f 310/111/193 318/100/193 317/108/193 309/112/193
f 309/112/194 317/108/194 316/106/194 308/113/194
f 308/113/195 316/106/195 315/97/195 307/96/195
f 325/96/196 333/97/196 323/98/196 321/99/196
f 336/100/197 324/101/197 320/102/197 329/103/197
f 323/98/198 333/97/198 332/104/198 322/105/198
f 333/97/199 334/106/199 331/107/199 332/104/199
f 334/106/200 335/108/200 330/109/200 331/107/200
f 335/108/201 336/100/201 329/103/201 330/109/201
f 319/110/202 324/101/202 336/100/202 328/111/202
f 328/111/203 336/100/203 335/108/203 327/112/203
f 327/112/204 335/108/204 334/106/204 326/113/204
f 326/113/205 334/106/205 333/97/205 325/96/205
f 343/96/206 351/97/206 341/98/206 339/99/206
f 354/100/207 342/101/207 338/102/207 347/103/207
f 341/98/208 351/97/208 350/104/208 340/105/208
f 351/97/209 352/106/209 349/107/209 350/104/209
f 352/106/210 353/108/210 348/109/210 349/107/210
f 353/108/211 354/100/211 347/103/211 348/109/211
f 337/110/212 342/101/212 354/100/212 346/111/212
f 346/111/213 354/100/213 353/108/213 345/112/213
f 345/112/214 353/108/214 352/106/214 344/113/214
f 344/113/215 352/106/215 351/97/215 343/96/215
f 361/96/216 369/97/216 359/98/216 357/99/216
f 372/100/217 360/101/217 356/102/217 365/103/217
f 359/98/218 369/97/218 368/104/218 358/105/218
f 369/97/219 370/106/219 367/107/219 368/104/219
f 370/106/220 371/108/220 366/109/220 367/107/220
f 371/108/221 372/100/221 365/103/221 366/109/221
f 355/110/222 360/101/222 372/100/222 364/111/222
f 364/111/223 372/100/223 371/108/223 363/112/223
f 363/112/224 371/108/224 370/106/224 362/113/224
f 362/113/225 370/106/225 369/97/225 361/96/225
f 379/96/216 387/97/216 377/98/216 375/99/216
f 390/100/217 378/101/217 374/102/217 383/103/217
f 377/98/218 387/97/218 386/104/218 376/105/218
f 387/97/219 388/106/219 385/107/219 386/104/219
f 388/106/220 389/108/220 384/109/220 385/107/220
f 389/108/221 390/100/221 383/103/221 384/109/221
f 373/110/222 378/101/222 390/100/222 382/111/222
f 382/111/223 390/100/223 389/108/223 381/112/223
f 381/112/224 389/108/224 388/106/224 380/113/224
f 380/113/225 388/106/225 387/97/225 379/96/225
f 397/96/226 405/97/226 395/98/226 393/99/226
f 408/100/227 396/101/227 392/102/227 401/103/227
f 395/98/228 405/97/228 404/104/228 394/105/228
f 405/97/229 406/106/229 403/107/229 404/104/229
f 406/106/230 407/108/230 402/109/230 403/107/230
f 407/108/231 408/100/231 401/103/231 402/109/231
f 391/110/232 396/101/232 408/100/232 400/111/232
f 400/111/233 408/100/233 407/108/233 399/112/233
f 399/112/234 407/108/234 406/106/234 398/113/234
f 398/113/235 406/106/235 405/97/235 397/96/235
f 415/96/236 423/97/236 413/98/236 411/99/236
f 426/100/237 414/101/237 410/102/237 419/103/237
f 413/98/238 423/97/238 422/104/238 412/105/238
f 423/97/239 424/106/239 421/107/239 422/104/239
f 424/106/240 425/108/240 420/109/240 421/107/240
f 425/108/241 426/100/241 419/103/241 420/109/241
f 409/110/242 414/101/242 426/100/242 418/111/242
f 418/111/243 426/100/243 425/108/243 417/112/243
f 417/112/244 425/108/244 424/106/244 416/113/244
f 416/113/245 424/106/245 423/97/245 415/96/245
f 433/96/236 441/97/236 431/98/236 429/99/236
f 444/100/237 432/101/237 428/102/237 437/103/237
f 431/98/238 441/97/238 440/104/238 430/105/238
f 441/97/239 442/106/239 439/107/239 440/104/239
f 442/106/240 443/108/240 438/109/240 439/107/240
f 443/108/241 444/100/241 437/103/241 438/109/241
f 427/110/242 432/101/242 444/100/242 436/111/242
f 436/111/243 444/100/243 443/108/243 435/112/243
f 435/112/244 443/108/244 442/106/244 434/113/244
f 434/113/245 442/106/245 441/97/245 433/96/245
f 451/96/246 459/97/246 449/98/246 447/99/246
f 462/100/247 450/101/247 446/102/247 455/103/247
f 449/98/248 459/97/248 458/104/248 448/105/248
f 459/97/249 460/106/249 457/107/249 458/104/249
f 460/106/250 461/108/250 456/109/250 457/107/250
f 461/108/251 462/100/251 455/103/251 456/109/251
f 445/110/252 450/101/252 462/100/252 454/111/252
f 454/111/253 462/100/253 461/108/253 453/112/253
f 453/112/254 461/108/254 460/106/254 452/113/254
f 452/113/255 460/106/255 459/97/255 451/96/255
f 469/96/256 477/97/256 467/98/256 465/99/256
f 480/100/257 468/101/257 464/102/257 473/103/257
f 467/98/258 477/97/258 476/104/258 466/105/258
f 477/97/259 478/106/259 475/107/259 476/104/259
f 478/106/260 479/108/260 474/109/260 475/107/260
f 479/108/261 480/100/261 473/103/261 474/109/261
f 463/110/262 468/101/262 480/100/262 472/111/262
f 472/111/263 480/100/263 479/108/263 471/112/263
f 471/112/264 479/108/264 478/106/264 470/113/264
f 470/113/265 478/106/265 477/97/265 469/96/265
f 487/96/266 495/97/266 485/98/266 483/99/266
f 498/100/267 486/101/267 482/102/267 491/103/267
f 485/98/268 495/97/268 494/104/268 484/105/268
f 495/97/269 496/106/269 493/107/269 494/104/269
f 496/106/270 497/108/270 492/109/270 493/107/270
f 497/108/271 498/100/271 491/103/271 492/109/271
f 481/110/272 486/101/272 498/100/272 490/111/272
f 490/111/273 498/100/273 497/108/273 489/112/273
f 489/112/274 497/108/274 496/106/274 488/113/274
f 488/113/275 496/106/275 495/97/275 487/96/275
f 505/96/276 513/97/276 503/98/276 501/99/276
f 516/100/277 504/101/277 500/102/277 509/103/277
f 503/98/278 513/97/278 512/104/278 502/105/278
f 513/97/279 514/106/279 511/107/279 512/104/279
f 514/106/280 515/108/280 510/109/280 511/107/280
f 515/108/281 516/100/281 509/103/281 510/109/281
f 499/110/282 504/101/282 516/100/282 508/111/282
f 508/111/283 516/100/283 515/108/283 507/112/283
f 507/112/284 515/108/284 514/106/284 506/113/284
f 506/113/285 514/106/285 513/97/285 505/96/285
f 523/96/276 531/97/276 521/98/276 519/99/276
f 534/100/277 522/101/277 518/102/277 527/103/277
f 521/98/278 531/97/278 530/104/278 520/105/278
f 531/97/279 532/106/279 529/107/279 530/104/279
f 532/106/280 533/108/280 528/109/280 529/107/280
f 533/108/281 534/100/281 527/103/281 528/109/281
f 517/110/282 522/101/282 534/100/282 526/111/282
f 526/111/283 534/100/283 533/108/283 525/112/283
f 525/112/284 533/108/284 532/106/284 524/113/284
f 524/113/285 532/106/285 531/97/285 523/96/285
f 541/96/286 549/97/286 539/98/286 537/99/286
f 552/100/287 540/101/287 536/102/287 545/103/287
f 539/98/288 549/97/288 548/104/288 538/105/288
f 549/97/289 550/106/289 547/107/289 548/104/289
f 550/106/290 551/108/290 546/109/290 547/107/290
f 551/108/291 552/100/291 545/103/291 546/109/291
f 535/110/292 540/101/292 552/100/292 544/111/292
f 544/111/293 552/100/293 551/108/293 543/112/293
f 543/112/294 551/108/294 550/106/294 542/113/294
f 542/113/295 550/106/295 549/97/295 541/96/295
f 559/96/296 567/97/296 557/98/296 555/99/296
f 570/100/297 558/101/297 554/102/297 563/103/297
f 557/98/298 567/97/298 566/104/298 556/105/298
f 567/97/299 568/106/299 565/107/299 566/104/299
f 568/106/300 569/108/300 564/109/300 565/107/300
f 569/108/301 570/100/301 563/103/301 564/109/301
f 553/110/302 558/101/302 570/100/302 562/111/302
f 562/111/303 570/100/303 569/108/303 561/112/303
f 561/112/304 569/108/304 568/106/304 560/113/304
f 560/113/305 568/106/305 567/97/305 559/96/305
f 577/96/306 585/97/306 575/98/306 573/99/306
f 588/100/307 576/101/307 572/102/307 581/103/307
f 575/98/308 585/97/308 584/104/308 574/105/308
f 585/97/309 586/106/309 583/107/309 584/104/309
f 586/106/310 587/108/310 582/109/310 583/107/310
f 587/108/311 588/100/311 581/103/311 582/109/311
f 571/110/312 576/101/312 588/100/312 580/111/312
f 580/111/313 588/100/313 587/108/313 579/112/313
f 579/112/314 587/108/314 586/106/314 578/113/314
f 578/113/315 586/106/315 585/97/315 577/96/315
f 595/96/316 603/97/316 593/98/316 591/99/316
f 606/100/317 594/101/317 590/102/317 599/103/317
f 593/98/318 603/97/318 602/104/318 592/105/318
f 603/97/319 604/106/319 601/107/319 602/104/319
f 604/106/320 605/108/320 600/109/320 601/107/320
f 605/108/321 606/100/321 599/103/321 600/109/321
f 589/110/322 594/101/322 606/100/322 598/111/322
f 598/111/323 606/100/323 605/108/323 597/112/323
f 597/112/324 605/108/324 604/106/324 596/113/324
f 596/113/325 604/106/325 603/97/325 595/96/325
f 613/96/306 621/97/306 611/98/306 609/99/306
f 624/100/307 612/101/307 608/102/307 617/103/307
f 611/98/308 621/97/308 620/104/308 610/105/308
f 621/97/309 622/106/309 619/107/309 620/104/309
f 622/106/310 623/108/310 618/109/310 619/107/310
f 623/108/311 624/100/311 617/103/311 618/109/311
f 607/110/312 612/101/312 624/100/312 616/111/312
f 616/111/313 624/100/313 623/108/313 615/112/313
f 615/112/314 623/108/314 622/106/314 614/113/314
f 614/113/315 622/106/315 621/97/315 613/96/315
f 631/96/326 639/97/326 629/98/326 627/99/326
f 642/100/327 630/101/327 626/102/327 635/103/327
f 629/98/328 639/97/328 638/104/328 628/105/328
f 639/97/329 640/106/329 637/107/329 638/104/329
f 640/106/330 641/108/330 636/109/330 637/107/330
f 641/108/331 642/100/331 635/103/331 636/109/331
f 625/110/332 630/101/332 642/100/332 634/111/332
f 634/111/333 642/100/333 641/108/333 633/112/333
f 633/112/334 641/108/334 640/106/334 632/113/334
f 632/113/335 640/106/335 639/97/335 631/96/335
f 649/96/336 657/97/336 647/98/336 645/99/336
f 660/100/337 648/101/337 644/102/337 653/103/337
f 647/98/338 657/97/338 656/104/338 646/105/338
f 657/97/339 658/106/339 655/107/339 656/104/339
f 658/106/340 659/108/340 654/109/340 655/107/340
f 659/108/341 660/100/341 653/103/341 654/109/341
f 643/110/342 648/101/342 660/100/342 652/111/342
f 652/111/343 660/100/343 659/108/343 651/112/343
f 651/112/344 659/108/344 658/106/344 650/113/344
f 650/113/345 658/106/345 657/97/345 649/96/345
f 667/96/346 675/97/346 665/98/346 663/99/346
f 678/100/347 666/101/347 662/102/347 671/103/347
f 665/98/348 675/97/348 674/104/348 664/105/348
f 675/97/349 676/106/349 673/107/349 674/104/349
f 676/106/350 677/108/350 672/109/350 673/107/350
f 677/108/351 678/100/351 671/103/351 672/109/351
f 661/110/352 666/101/352 678/100/352 670/111/352
f 670/111/353 678/100/353 677/108/353 669/112/353
f 669/112/354 677/108/354 676/106/354 668/113/354
f 668/113/355 676/106/355 675/97/355 667/96/355
f 685/96/356 693/97/356 683/98/356 681/99/356
f 696/100/357 684/101/357 680/102/357 689/103/357
f 683/98/358 693/97/358 692/104/358 682/105/358
f 693/97/359 694/106/359 691/107/359 692/104/359
f 694/106/360 695/108/360 690/109/360 691/107/360
f 695/108/361 696/100/361 689/103/361 690/109/361
f 679/110/362 684/101/362 696/100/362 688/111/362
f 688/111/363 696/100/363 695/108/363 687/112/363
f 687/112/364 695/108/364 694/106/364 686/113/364
f 686/113/365 694/106/365 693/97/365 685/96/365
f 703/96/366 711/97/366 701/98/366 699/99/366
f 714/100/367 702/101/367 698/102/367 707/103/367
f 701/98/368 711/97/368 710/104/368 700/105/368
f 711/97/369 712/106/369 709/107/369 710/104/369
f 712/106/370 713/108/370 708/109/370 709/107/370
f 713/108/371 714/100/371 707/103/371 708/109/371
f 697/110/372 702/101/372 714/100/372 706/111/372
f 706/111/373 714/100/373 713/108/373 705/112/373
f 705/112/374 713/108/374 712/106/374 704/113/374
f 704/113/375 712/106/375 711/97/375 703/96/375
f 721/96/376 729/97/376 719/98/376 717/99/376
f 732/100/377 720/101/377 716/102/377 725/103/377
f 719/98/378 729/97/378 728/104/378 718/105/378
f 729/97/379 730/106/379 727/107/379 728/104/379
f 730/106/380 731/108/380 726/109/380 727/107/380
f 731/108/381 732/100/381 725/103/381 726/109/381
f 715/110/382 720/101/382 732/100/382 724/111/382
f 724/111/383 732/100/383 731/108/383 723/112/383
f 723/112/384 731/108/384 730/106/384 722/113/384
f 722/113/385 730/106/385 729/97/385 721/96/385
f 739/96/386 747/97/386 737/98/386 735/99/386
f 750/100/387 738/101/387 734/102/387 743/103/387
f 737/98/388 747/97/388 746/104/388 736/105/388
f 747/97/389 748/106/389 745/107/389 746/104/389
f 748/106/390 749/108/390 744/109/390 745/107/390
f 749/108/391 750/100/391 743/103/391 744/109/391
f 733/110/392 738/101/392 750/100/392 742/111/392
f 742/111/393 750/100/393 749/108/393 741/112/393
f 741/112/394 749/108/394 748/106/394 740/113/394
f 740/113/395 748/106/395 747/97/395 739/96/395
f 757/96/396 765/97/396 755/98/396 753/99/396
f 768/100/397 756/101/397 752/102/397 761/103/397
f 755/98/398 765/97/398 764/104/398 754/105/398
f 765/97/399 766/106/399 763/107/399 764/104/399
f 766/106/400 767/108/400 762/109/400 763/107/400
f 767/108/401 768/100/401 761/103/401 762/109/401
f 751/110/402 756/101/402 768/100/402 760/111/402
f 760/111/403 768/100/403 767/108/403 759/112/403
f 759/112/404 767/108/404 766/106/404 758/113/404
f 758/113/405 766/106/405 765/97/405 757/96/405
f 775/96/406 783/97/406 773/98/406 771/99/406
f 786/100/407 774/101/407 770/102/407 779/103/407
f 773/98/408 783/97/408 782/104/408 772/105/408
f 783/97/409 784/106/409 781/107/409 782/104/409
f 784/106/410 785/108/410 780/109/410 781/107/410
f 785/108/411 786/100/411 779/103/411 780/109/411
f 769/110/412 774/101/412 786/100/412 778/111/412
f 778/111/413 786/100/413 785/108/413 777/112/413
f 777/112/414 785/108/414 784/106/414 776/113/414
f 776/113/415 784/106/415 783/97/415 775/96/415
f 793/96/416 801/97/416 791/98/416 789/99/416
f 804/100/417 792/101/417 788/102/417 797/103/417
f 791/98/418 801/97/418 800/104/418 790/105/418
f 801/97/419 802/106/419 799/107/419 800/104/419
f 802/106/420 803/108/420 798/109/420 799/107/420
f 803/108/421 804/100/421 797/103/421 798/109/421
f 787/110/422 792/101/422 804/100/422 796/111/422
f 796/111/423 804/100/423 803/108/423 795/112/423
f 795/112/424 803/108/424 802/106/424 794/113/424
f 794/113/425 802/106/425 801/97/425 793/96/425
f 811/96/426 819/97/426 809/98/426 807/99/426
f 822/100/427 810/101/427 806/102/427 815/103/427
f 809/98/428 819/97/428 818/104/428 808/105/428
f 819/97/429 820/106/429 817/107/429 818/104/429
f 820/106/430 821/108/430 816/109/430 817/107/430
f 821/108/431 822/100/431 815/103/431 816/109/431
f 805/110/432 810/101/432 822/100/432 814/111/432
f 814/111/433 822/100/433 821/108/433 813/112/433
f 813/112/434 821/108/434 820/106/434 812/113/434
f 812/113/435 820/106/435 819/97/435 811/96/435
f 829/96/436 837/97/436 827/98/436 825/99/436
f 840/100/437 828/101/437 824/102/437 833/103/437
f 827/98/438 837/97/438 836/104/438 826/105/438
f 837/97/439 838/106/439 835/107/439 836/104/439
f 838/106/440 839/108/440 834/109/440 835/107/440
f 839/108/441 840/100/441 833/103/441 834/109/441
f 823/110/442 828/101/442 840/100/442 832/111/442
f 832/111/443 840/100/443 839/108/443 831/112/443
f 831/112/444 839/108/444 838/106/444 830/113/444
f 830/113/445 838/106/445 837/97/445 829/96/445
f 847/96/446 855/97/446 845/98/446 843/99/446
f 858/100/447 846/101/447 842/102/447 851/103/447
f 845/98/448 855/97/448 854/104/448 844/105/448
f 855/97/449 856/106/449 853/107/449 854/104/449
f 856/106/450 857/108/450 852/109/450 853/107/450
f 857/108/451 858/100/451 851/103/451 852/109/451
f 841/110/452 846/101/452 858/100/452 850/111/452
f 850/111/453 858/100/453 857/108/453 849/112/453
f 849/112/454 857/108/454 856/106/454 848/113/454
f 848/113/455 856/106/455 855/97/455 847/96/455
f 865/96/456 873/97/456 863/98/456 861/99/456
f 876/100/457 864/101/457 860/102/457 869/103/457
f 863/98/458 873/97/458 872/104/458 862/105/458
f 873/97/459 874/106/459 871/107/459 872/104/459
f 874/106/460 875/108/460 870/109/460 871/107/460
f 875/108/461 876/100/461 869/103/461 870/109/461
f 859/110/462 864/101/462 876/100/462 868/111/462
f 868/111/463 876/100/463 875/108/463 867/112/463
f 867/112/464 875/108/464 874/106/464 866/113/464
f 866/113/465 874/106/465 873/97/465 865/96/465
f 883/96/466 891/97/466 881/98/466 879/99/466
f 894/100/467 882/101/467 878/102/467 887/103/467
f 881/98/468 891/97/468 890/104/468 880/105/468
f 891/97/469 892/106/469 889/107/469 890/104/469
f 892/106/470 893/108/470 888/109/470 889/107/470
f 893/108/471 894/100/471 887/103/471 888/109/471
f 877/110/472 882/101/472 894/100/472 886/111/472
f 886/111/473 894/100/473 893/108/473 885/112/473
f 885/112/474 893/108/474 892/106/474 884/113/474
f 884/113/475 892/106/475 891/97/475 883/96/475
f 901/96/476 909/97/476 899/98/476 897/99/476
f 912/100/477 900/101/477 896/102/477 905/103/477
f 899/98/478 909/97/478 908/104/478 898/105/478
f 909/97/479 910/106/479 907/107/479 908/104/479
f 910/106/480 911/108/480 906/109/480 907/107/480
f 911/108/481 912/100/481 905/103/481 906/109/481
f 895/110/482 900/101/482 912/100/482 904/111/482
f 904/111/483 912/100/483 911/108/483 903/112/483
f 903/112/484 911/108/484 910/106/484 902/113/484
f 902/113/485 910/106/485 909/97/485 901/96/485
f 919/96/486 927/97/486 917/98/486 915/99/486
f 930/100/487 918/101/487 914/102/487 923/103/487
f 917/98/488 927/97/488 926/104/488 916/105/488
f 927/97/489 928/106/489 925/107/489 926/104/489
f 928/106/490 929/108/490 924/109/490 925/107/490
f 929/108/491 930/100/491 923/103/491 924/109/491
f 913/110/492 918/101/492 930/100/492 922/111/492
f 922/111/493 930/100/493 929/108/493 921/112/493
f 921/112/494 929/108/494 928/106/494 920/113/494
f 920/113/495 928/106/495 927/97/495 919/96/495
f 937/96/496 945/97/496 935/98/496 933/99/496
f 948/100/497 936/101/497 932/102/497 941/103/497
f 935/98/498 945/97/498 944/104/498 934/105/498
f 945/97/499 946/106/499 943/107/499 944/104/499
f 946/106/500 947/108/500 942/109/500 943/107/500
f 947/108/501 948/100/501 941/103/501 942/109/501
f 931/110/502 936/101/502 948/100/502 940/111/502
f 940/111/503 948/100/503 947/108/503 939/112/503
f 939/112/504 947/108/504 946/106/504 938/113/504
f 938/113/505 946/106/505 945/97/505 937/96/505
f 955/96/506 963/97/506 953/98/506 951/99/506
f 966/100/507 954/101/507 950/102/507 959/103/507
f 953/98/508 963/97/508 962/104/508 952/105/508
f 963/97/509 964/106/509 961/107/509 962/104/509
f 964/106/510 965/108/510 960/109/510 961/107/510
f 965/108/511 966/100/511 959/103/511 960/109/511
f 949/110/512 954/101/512 966/100/512 958/111/512
f 958/111/513 966/100/513 965/108/513 957/112/513
f 957/112/514 965/108/514 964/106/514 956/113/514
f 956/113/515 964/106/515 963/97/515 955/96/515
f 973/96/516 981/97/516 971/98/516 969/99/516
f 984/100/517 972/101/517 968/102/517 977/103/517
f 971/98/518 981/97/518 980/104/518 970/105/518
f 981/97/519 982/106/519 979/107/519 980/104/519
f 982/106/520 983/108/520 978/109/520 979/107/520
f 983/108/521 984/100/521 977/103/521 978/109/521
f 967/110/522 972/101/522 984/100/522 976/111/522
f 976/111/523 984/100/523 983/108/523 975/112/523
f 975/112/524 983/108/524 982/106/524 974/113/524
f 974/113/525 982/106/525 981/97/525 973/96/525
f 991/96/526 999/97/526 989/98/526 987/99/526
f 1002/100/527 990/101/527 986/102/527 995/103/527
f 989/98/528 999/97/528 998/104/528 988/105/528
f 999/97/529 1000/106/529 997/107/529 998/104/529
f 1000/106/530 1001/108/530 996/109/530 997/107/530
f 1001/108/531 1002/100/531 995/103/531 996/109/531
f 985/110/532 990/101/532 1002/100/532 994/111/532
f 994/111/533 1002/100/533 1001/108/533 993/112/533
f 993/112/534 1001/108/534 1000/106/534 992/113/534
f 992/113/535 1000/106/535 999/97/535 991/96/535
f 1009/96/536 1017/97/536 1007/98/536 1005/99/536
f 1020/100/537 1008/101/537 1004/102/537 1013/103/537
f 1007/98/538 1017/97/538 1016/104/538 1006/105/538
f 1017/97/539 1018/106/539 1015/107/539 1016/104/539
f 1018/106/540 1019/108/540 1014/109/540 1015/107/540
f 1019/108/541 1020/100/541 1013/103/541 1014/109/541
f 1003/110/542 1008/101/542 1020/100/542 1012/111/542
f 1012/111/543 1020/100/543 1019/108/543 1011/112/543
f 1011/112/544 1019/108/544 1018/106/544 1010/113/544
f 1010/113/545 1018/106/545 1017/97/545 1009/96/545
f 1027/96/546 1035/97/546 1025/98/546 1023/99/546
f 1038/100/547 1026/101/547 1022/102/547 1031/103/547
f 1025/98/548 1035/97/548 1034/104/548 1024/105/548
f 1035/97/549 1036/106/549 1033/107/549 1034/104/549
f 1036/106/550 1037/108/550 1032/109/550 1033/107/550
f 1037/108/551 1038/100/551 1031/103/551 1032/109/551
f 1021/110/552 1026/101/552 1038/100/552 1030/111/552
f 1030/111/553 1038/100/553 1037/108/553 1029/112/553
f 1029/112/554 1037/108/554 1036/106/554 1028/113/554
f 1028/113/555 1036/106/555 1035/97/555 1027/96/555
f 1045/96/556 1053/97/556 1043/98/556 1041/99/556
f 1056/100/557 1044/101/557 1040/102/557 1049/103/557
f 1043/98/558 1053/97/558 1052/104/558 1042/105/558
f 1053/97/559 1054/106/559 1051/107/559 1052/104/559
f 1054/106/560 1055/108/560 1050/109/560 1051/107/560
f 1055/108/561 1056/100/561 1049/103/561 1050/109/561
f 1039/110/562 1044/101/562 1056/100/562 1048/111/562
f 1048/111/563 1056/100/563 1055/108/563 1047/112/563
f 1047/112/564 1055/108/564 1054/106/564 1046/113/564
f 1046/113/565 1054/106/565 1053/97/565 1045/96/565
f 1063/96/566 1071/97/566 1061/98/566 1059/99/566
f 1074/100/567 1062/101/567 1058/102/567 1067/103/567
f 1061/98/568 1071/97/568 1070/104/568 1060/105/568
f 1071/97/569 1072/106/569 1069/107/569 1070/104/569
f 1072/106/570 1073/108/570 1068/109/570 1069/107/570
f 1073/108/571 1074/100/571 1067/103/571 1068/109/571
f 1057/110/572 1062/101/572 1074/100/572 1066/111/572
f 1066/111/573 1074/100/573 1073/108/573 1065/112/573
f 1065/112/574 1073/108/574 1072/106/574 1064/113/574
f 1064/113/575 1072/106/575 1071/97/575 1063/96/575
