# Blender 5.0.1
# www.blender.org
mtllib pine_tree_n_1.mtl
o pine_tree_n_1
v 0.251255 0.000000 0.128435
v 0.178761 0.000000 0.200743
v 0.080728 -0.000000 0.244545
v -0.023149 0.000000 0.259024
v -0.117054 0.000000 0.241975
v -0.219916 0.000000 0.194395
v -0.273044 0.000000 0.103966
v 0.277630 0.000000 0.026925
v 0.109376 0.000000 -0.235714
v 0.193065 0.000000 -0.172501
v 0.253872 0.000000 -0.088333
v -0.268350 0.000000 -0.015544
v 0.014465 0.000000 -0.286071
v -0.241975 -0.000000 -0.117054
v -0.178761 0.000000 -0.200743
v -0.089411 0.000000 -0.271592
v 0.106151 2.889600 0.077393
v 0.166033 0.521617 0.080316
v 0.122658 0.521617 0.137740
v 0.060610 0.521617 0.174194
v -0.174195 0.521617 0.060608
v -0.135267 2.889600 0.063409
v -0.137741 0.521617 0.122657
v -0.109400 2.889600 0.107437
v -0.080317 0.521617 0.166031
v -0.010665 0.521617 0.184129
v -0.019230 2.889600 0.151056
v -0.004094 2.889600 -0.110253
v 0.010665 0.521617 -0.184132
v -0.060610 0.521617 -0.174197
v -0.054669 2.889600 -0.103204
v -0.122658 0.521617 -0.137743
v -0.166033 0.521617 -0.080319
v -0.129475 2.889600 -0.036590
v -0.184130 0.521617 -0.010667
v 0.184130 0.521617 0.010664
v 0.174196 0.521617 -0.060612
v 0.137741 0.521617 -0.122660
v 0.080317 0.521617 -0.166034
v 0.045329 2.889600 -0.097412
v 0.198599 0.188076 0.096070
v 0.146717 0.188076 0.164757
v 0.072498 0.188076 0.208362
v 0.012757 0.188076 -0.220247
v 0.220246 0.188076 0.012756
v -0.208362 0.188076 0.072497
v -0.164758 0.188076 0.146716
v -0.096071 0.188076 0.198598
v -0.012757 0.188076 0.220245
v -0.072498 0.188076 -0.208363
v -0.146716 0.188076 -0.164759
v -0.198598 0.188076 -0.096072
v -0.220246 0.188076 -0.012758
v 0.208363 0.188076 -0.072499
v 0.164758 0.188076 -0.146717
v 0.096071 0.188076 -0.198599
v 0.013553 10.113601 0.006542
v -0.006555 10.113601 0.013539
v 0.006556 10.113601 -0.013565
v -0.013551 10.113601 -0.006569
v 0.023075 8.668800 0.039378
v 0.098647 4.334401 0.085316
v 0.075374 2.889600 0.118135
v -0.003824 8.668800 0.063331
v 0.030397 4.334401 0.146092
v 0.031346 2.889600 0.144002
v -0.121614 4.334401 0.072558
v -0.063735 8.668800 0.034350
v -0.068653 2.889600 0.138209
v -0.060838 4.334401 0.140808
v -0.039781 8.668800 0.061248
v -0.048080 4.334401 -0.079454
v -0.034753 8.668800 -0.025561
v -0.098697 2.889600 -0.077342
v -0.116330 4.334401 -0.018678
v -0.061652 8.668800 -0.001608
v -0.142316 2.889600 0.012828
v 0.118993 2.889600 0.027964
v 0.111944 2.889600 -0.022611
v 0.103932 4.334401 -0.005919
v 0.025158 8.668800 0.003420
v 0.086077 2.889600 -0.066639
v 0.043156 4.334401 -0.074169
v 0.001204 8.668800 -0.023478
v 0.057369 7.051574 -0.446540
v 0.005517 7.051574 0.448635
v 1.401462 6.814170 -0.368684
v 1.349609 6.814171 0.526490
v 1.373212 7.098823 0.123559
v 0.030991 7.336226 0.013401
v 1.132679 6.900628 -0.384254
v 0.863864 6.951867 -0.399824
v 0.595049 7.003268 -0.415395
v 0.326221 7.040088 -0.430967
v 0.274369 7.040088 0.464208
v 0.543197 7.003268 0.479779
v 0.812012 6.951867 0.495351
v 1.080827 6.900628 0.510921
v 1.104804 7.185280 0.101529
v 0.836363 7.236519 0.079498
v 0.567922 7.287920 0.057467
v 0.299468 7.324740 0.035435
v -0.012707 7.796853 -0.362293
v -0.008480 7.793821 0.382297
v 1.083065 7.500103 -0.369723
v 1.087292 7.497071 0.374867
v 1.106840 7.733838 0.040540
v 0.010916 8.030697 0.021102
v 0.866848 7.591687 -0.368122
v 0.647977 7.654144 -0.366625
v 0.429118 7.716736 -0.365128
v 0.209160 7.767270 -0.363673
v 0.213387 7.764237 0.380917
v 0.433345 7.713704 0.379462
v 0.652204 7.651111 0.377965
v 0.871075 7.588654 0.376468
v 0.890593 7.825442 0.036767
v 0.671691 7.887922 0.032890
v 0.452802 7.950536 0.029014
v 0.232814 8.001092 0.025095
v -0.400821 8.130472 0.002752
v 0.342297 8.129448 0.041736
v -0.345411 7.746862 -1.063545
v 0.397707 7.745838 -1.024561
v 0.065635 7.979072 -1.082305
v -0.016590 8.362719 -0.017415
v -0.356161 7.855458 -0.855790
v -0.367211 7.935253 -0.643061
v -0.378259 8.015181 -0.430356
v -0.389432 8.083183 -0.215591
v 0.353687 8.082160 -0.176606
v 0.364860 8.014156 -0.391371
v 0.375908 7.934229 -0.604077
v 0.386958 7.854434 -0.816806
v 0.049523 8.087674 -0.874831
v 0.033110 8.167478 -0.662384
v 0.016698 8.247412 -0.449959
v 0.000162 8.315423 -0.235476
v -0.471825 5.378008 -0.067987
v 0.450997 5.378008 -0.014535
v -0.391342 5.156400 -1.457465
v 0.531480 5.156400 -1.404012
v 0.115821 5.449808 -1.423469
v 0.002039 5.671416 -0.035920
v -0.407475 5.240897 -1.178939
v -0.423575 5.289093 -0.900983
v -0.439675 5.337455 -0.623024
v -0.455762 5.370788 -0.345301
v 0.467060 5.370788 -0.291848
v 0.483146 5.337455 -0.569571
v 0.499246 5.289093 -0.847530
v 0.515346 5.240898 -1.125486
v 0.093028 5.534306 -1.145329
v 0.070268 5.582501 -0.867758
v 0.047508 5.630863 -0.590185
v 0.024762 5.664196 -0.312848
v -0.552269 4.721261 -0.096042
v 0.505536 4.721261 -0.034770
v -0.460014 4.467238 -1.688761
v 0.597791 4.467238 -1.627490
v 0.121333 4.803563 -1.649793
v -0.009093 5.057587 -0.059284
v -0.478507 4.564095 -1.369495
v -0.496962 4.619340 -1.050881
v -0.515418 4.674776 -0.732265
v -0.533857 4.712985 -0.413918
v 0.523948 4.712985 -0.352647
v 0.542388 4.674776 -0.670993
v 0.560843 4.619340 -0.989610
v 0.579298 4.564095 -1.308224
v 0.095206 4.900420 -1.330968
v 0.069117 4.955666 -1.012797
v 0.043027 5.011101 -0.694622
v 0.016954 5.049310 -0.376718
v -0.523824 3.759778 -0.048850
v 0.565568 3.759778 0.014251
v -0.432595 3.231538 -1.623849
v 0.656797 3.231538 -1.560748
v 0.169409 3.574086 -1.640656
v 0.038870 4.102326 -0.067933
v -0.450433 3.384090 -1.315902
v -0.468639 3.494261 -1.001582
v -0.486844 3.604626 -0.687291
v -0.505201 3.697444 -0.370362
v 0.584191 3.697445 -0.307261
v 0.602548 3.604626 -0.624190
v 0.620753 3.494260 -0.938481
v 0.638960 3.384090 -1.252801
v 0.143710 3.726638 -1.333163
v 0.117641 3.836808 -1.019299
v 0.091575 3.947174 -0.705463
v 0.065355 4.039993 -0.388990
v -0.248359 7.141937 -0.315636
v 0.294300 7.141937 0.293754
v 0.673152 6.983184 -1.136238
v 1.215811 6.983184 -0.526848
v 0.962712 7.241951 -0.793291
v 0.021620 7.400704 0.005322
v 0.487640 7.050367 -0.971041
v 0.303222 7.085534 -0.806816
v 0.118798 7.120848 -0.642588
v -0.065173 7.142907 -0.478762
v 0.477486 7.142907 0.130628
v 0.661457 7.120848 -0.033198
v 0.845881 7.085534 -0.197427
v 1.030300 7.050367 -0.361651
v 0.773285 7.309135 -0.632492
v 0.584950 7.344302 -0.472665
v 0.396610 7.379616 -0.312835
v 0.208722 7.401675 -0.153406
v -0.265734 6.165093 -0.307463
v 0.294967 6.165093 0.322196
v 0.664838 5.849209 -1.136124
v 1.225539 5.849209 -0.506466
v 0.988060 6.116116 -0.803173
v 0.037255 6.432000 0.002768
v 0.480765 5.948933 -0.972210
v 0.294847 6.015634 -0.806653
v 0.108938 6.082486 -0.641104
v -0.077735 6.135666 -0.474874
v 0.482967 6.135666 0.154784
v 0.669640 6.082486 -0.011445
v 0.855549 6.015634 -0.176995
v 1.041466 5.948933 -0.342552
v 0.799940 6.215840 -0.643803
v 0.609976 6.282540 -0.482790
v 0.420021 6.349392 -0.321785
v 0.229301 6.402573 -0.160100
v 0.079489 6.458594 -0.434846
v 0.026817 6.458594 0.474506
v 1.447257 6.231411 -0.355621
v 1.394585 6.231411 0.553731
v 1.415612 6.520559 0.144247
v 0.049746 6.747742 0.032209
v 1.173336 6.316440 -0.371487
v 0.899747 6.365694 -0.387334
v 0.626157 6.415112 -0.403181
v 0.352704 6.449719 -0.419020
v 0.300032 6.449719 0.490332
v 0.573485 6.415112 0.506171
v 0.847075 6.365694 0.522018
v 1.120664 6.316440 0.537865
v 1.142072 6.605588 0.121818
v 0.868863 6.654842 0.099409
v 0.595653 6.704261 0.076999
v 0.322580 6.738868 0.054597
v 0.452137 5.769177 0.048913
v -0.423420 5.769177 0.157203
v 0.615017 5.549139 1.365848
v -0.260539 5.549139 1.474138
v 0.133258 5.829193 1.422811
v 0.001971 6.049232 0.101968
v 0.582398 5.631494 1.102107
v 0.549817 5.679199 0.838686
v 0.517237 5.727063 0.575263
v 0.484673 5.760582 0.311973
v -0.390884 5.760582 0.420263
v -0.358320 5.727064 0.683554
v -0.325739 5.679199 0.946976
v -0.293159 5.631494 1.210398
v 0.106957 5.911548 1.158289
v 0.080695 5.959253 0.894086
v 0.054434 6.007118 0.629882
v 0.028188 6.040637 0.365810
v 0.090165 5.635610 -0.414386
v 0.039861 5.635610 0.454084
v 1.396441 5.418640 -0.338723
v 1.346138 5.418640 0.529747
v 1.366220 5.694789 0.138672
v 0.061759 5.911759 0.031670
v 1.134836 5.499846 -0.353877
v 0.873546 5.546886 -0.369011
v 0.612256 5.594083 -0.384145
v 0.351097 5.627134 -0.399272
v 0.300793 5.627134 0.469198
v 0.561952 5.594083 0.484324
v 0.823243 5.546886 0.499459
v 1.084532 5.499846 0.514594
v 1.104977 5.775995 0.117251
v 0.844051 5.823035 0.095849
v 0.583123 5.870232 0.074447
v 0.322327 5.903284 0.053052
v 0.053348 5.004752 -0.484698
v -0.005959 5.004753 0.539240
v 1.534539 4.510712 -0.398907
v 1.475232 4.510713 0.625032
v 1.549803 4.832759 0.166897
v 0.070752 5.326799 0.044157
v 1.244856 4.653617 -0.415685
v 0.949250 4.756677 -0.432807
v 0.653671 4.859920 -0.449927
v 0.355640 4.946666 -0.467189
v 0.296333 4.946667 0.556749
v 0.594364 4.859921 0.574011
v 0.889943 4.756678 0.591132
v 1.185549 4.653618 0.608253
v 1.260548 4.975665 0.142729
v 0.965370 5.078724 0.118218
v 0.670219 5.181968 0.093708
v 0.372616 5.268714 0.069056
v -0.390446 2.842450 -0.269911
v 0.394602 2.842450 0.435340
v 0.606530 2.239758 -1.379691
v 1.391578 2.239758 -0.674441
v 1.084946 2.567387 -1.043929
v 0.059642 3.170079 0.040403
v 0.413535 2.405158 -1.164860
v 0.214757 2.530021 -0.943591
v 0.016006 2.655072 -0.722351
v -0.185140 2.763340 -0.498446
v 0.599908 2.763340 0.206804
v 0.801054 2.655072 -0.017100
v 0.999805 2.530022 -0.238340
v 1.198583 2.405158 -0.459609
v 0.886285 2.732786 -0.834187
v 0.681842 2.857651 -0.618008
v 0.477424 2.982701 -0.401858
v 0.270613 3.090969 -0.183043
v 0.089927 3.346166 -0.546707
v 0.031013 3.346166 0.470423
v 1.565732 2.869045 -0.461226
v 1.506818 2.869045 0.555905
v 1.577942 3.189378 0.100645
v 0.104263 3.666498 -0.021539
v 1.276679 3.008332 -0.477969
v 0.982107 3.107985 -0.495030
v 0.687560 3.207821 -0.512092
v 0.390729 3.291247 -0.529284
v 0.331815 3.291247 0.487846
v 0.628646 3.207821 0.505039
v 0.923193 3.107985 0.522100
v 1.217765 3.008332 0.539162
v 1.289314 3.328664 0.076561
v 0.995167 3.428317 0.052159
v 0.701045 3.528153 0.027758
v 0.404639 3.611580 0.003224
v -0.575919 6.628508 -0.015159
v 0.488639 6.628508 0.044269
v -0.489827 6.121757 -1.557360
v 0.574731 6.121757 -1.497932
v 0.098235 6.456757 -1.572979
v -0.026271 6.963508 -0.032921
v -0.506676 6.268977 -1.255533
v -0.523859 6.374751 -0.947730
v -0.541040 6.480714 -0.639955
v -0.558359 6.569518 -0.329706
v 0.506199 6.569518 -0.270278
v 0.523518 6.480714 -0.580527
v 0.540699 6.374751 -0.888303
v 0.557882 6.268977 -1.196105
v 0.073703 6.603978 -1.271580
v 0.048838 6.709751 -0.964206
v 0.023974 6.815714 -0.656860
v -0.001029 6.904518 -0.347040
v 0.010273 5.962079 0.505680
v 0.065696 5.962079 -0.451147
v -1.375861 5.506556 0.425391
v -1.320439 5.506556 -0.531437
v -1.388795 5.807690 -0.103252
v -0.004660 6.263214 0.011564
v -1.104578 5.638893 0.441104
v -0.827924 5.733974 0.457129
v -0.551295 5.829226 0.473152
v -0.272443 5.909051 0.489304
v -0.217020 5.909052 -0.467523
v -0.495873 5.829226 -0.483675
v -0.772502 5.733974 -0.499698
v -1.049156 5.638893 -0.515723
v -1.117912 5.940028 -0.080633
v -0.841658 6.035109 -0.057703
v -0.565428 6.130361 -0.034775
v -0.286976 6.210186 -0.011717
v -0.029784 6.647330 0.533504
v 0.027405 6.647330 -0.453836
v -1.460120 6.177280 0.450655
v -1.402931 6.177280 -0.536684
v -1.473466 6.488018 -0.094846
v -0.045193 6.958067 0.023631
v -1.180186 6.313838 0.466870
v -0.894710 6.411951 0.483405
v -0.609260 6.510240 0.499939
v -0.321515 6.592612 0.516606
v -0.264326 6.592612 -0.470734
v -0.552071 6.510241 -0.487400
v -0.837521 6.411951 -0.503934
v -1.122997 6.313838 -0.520470
v -1.193945 6.624577 -0.071505
v -0.908882 6.722689 -0.047844
v -0.623844 6.820978 -0.024185
v -0.336512 6.903350 -0.000392
v -0.377927 5.825475 0.286546
v 0.393218 5.825475 -0.124630
v -0.995926 5.601730 -0.872486
v -0.224780 5.601730 -1.283662
v -0.571259 5.879155 -1.097381
v 0.018913 6.102900 0.076488
v -0.872239 5.684466 -0.640516
v -0.748631 5.732878 -0.408694
v -0.625022 5.781447 -0.176871
v -0.501446 5.815806 0.054891
v 0.269699 5.815806 -0.356285
v 0.146124 5.781448 -0.588047
v 0.022515 5.732878 -0.819870
v -0.101093 5.684466 -1.051692
v -0.453137 5.961891 -0.862443
v -0.335095 6.010303 -0.627654
v -0.217051 6.058872 -0.392864
v -0.099041 6.093231 -0.158134
v -0.092787 4.437555 0.442928
v -0.039252 4.437555 -0.481319
v -1.481928 4.200528 0.362465
v -1.428394 4.200528 -0.561781
v -1.451056 4.494422 -0.145665
v -0.063846 4.731449 -0.031851
v -1.203903 4.288176 0.378569
v -0.926056 4.339461 0.394662
v -0.648208 4.390914 0.410756
v -0.370434 4.427312 0.426846
v -0.316899 4.427312 -0.497400
v -0.594674 4.390914 -0.513490
v -0.872522 4.339461 -0.529583
v -1.150369 4.288176 -0.545677
v -1.173418 4.582069 -0.122891
v -0.895957 4.633355 -0.100127
v -0.618495 4.684807 -0.077363
v -0.341107 4.721206 -0.054603
v -0.031327 5.210347 0.487591
v 0.023366 5.210347 -0.456634
v -1.450497 4.968196 0.405389
v -1.395805 4.968196 -0.538837
v -1.418957 5.268444 -0.113725
v -0.001760 5.510594 0.002549
v -1.166462 5.057739 0.421841
v -0.882609 5.110133 0.438283
v -0.598754 5.162698 0.454724
v -0.314975 5.199883 0.471161
v -0.260283 5.199883 -0.473064
v -0.544062 5.162698 -0.489501
v -0.827917 5.110133 -0.505943
v -1.111770 5.057739 -0.522384
v -1.135317 5.357985 -0.090458
v -0.851859 5.410379 -0.067203
v -0.568399 5.462945 -0.043947
v -0.285015 5.500130 -0.020695
v -0.383105 7.134867 0.302988
v 0.262028 7.134867 -0.271502
v -1.234846 6.827694 -0.653488
v -0.589714 6.827694 -1.227977
v -0.891368 7.101403 -0.982026
v -0.062906 7.408576 -0.004819
v -1.066039 6.926607 -0.463924
v -0.895840 6.991655 -0.272796
v -0.725646 7.056859 -0.081674
v -0.554877 7.108043 0.110094
v 0.090256 7.108044 -0.464396
v -0.080514 7.056859 -0.656164
v -0.250708 6.991655 -0.847285
v -0.420907 6.926607 -1.038414
v -0.727218 7.200316 -0.788316
v -0.561674 7.265364 -0.593042
v -0.396137 7.330568 -0.397774
v -0.230022 7.381752 -0.201859
v -0.373390 5.200609 0.315296
v 0.374165 5.200609 -0.350399
v -1.379806 5.003081 -0.814876
v -0.632251 5.003081 -1.480573
v -0.959492 5.320545 -1.170525
v 0.019949 5.518074 -0.016331
v -1.177255 5.086056 -0.587419
v -0.975850 5.129753 -0.361247
v -0.774439 5.173631 -0.135069
v -0.573502 5.201247 0.090576
v 0.174052 5.201247 -0.575119
v -0.026884 5.173631 -0.800765
v -0.228295 5.129754 -1.026942
v -0.429701 5.086056 -1.253114
v -0.762336 5.403521 -0.938262
v -0.566326 5.447217 -0.707287
v -0.370310 5.491095 -0.476304
v -0.174769 5.518711 -0.245855
v -0.259625 8.587022 -0.270491
v 0.151029 8.585996 0.361999
v 0.617716 8.110734 -0.840889
v 1.028369 8.109708 -0.208400
v 0.894050 8.341913 -0.525534
v 0.001891 8.818238 0.022041
v 0.449166 8.237723 -0.731250
v 0.274366 8.336041 -0.617599
v 0.099593 8.434489 -0.503965
v -0.077767 8.521069 -0.388671
v 0.332886 8.520042 0.243818
v 0.510247 8.433463 0.128524
v 0.685019 8.335014 0.014891
v 0.859820 8.236696 -0.098761
v 0.722537 8.468910 -0.420460
v 0.544772 8.567235 -0.311373
v 0.367036 8.665692 -0.202304
v 0.186712 8.752277 -0.091575
v 0.379806 7.797326 0.046230
v -0.397161 7.797326 0.001226
v 0.315326 7.391554 1.159417
v -0.461641 7.391554 1.114413
v -0.114395 7.634828 1.177710
v -0.021880 8.040600 0.066147
v 0.327881 7.506020 0.942673
v 0.340744 7.590385 0.720604
v 0.353606 7.674889 0.498559
v 0.366595 7.746933 0.274310
v -0.410372 7.746933 0.229305
v -0.423362 7.674890 0.453555
v -0.436223 7.590385 0.675599
v -0.449086 7.506020 0.897669
v -0.096234 7.749293 0.961291
v -0.077764 7.833660 0.739547
v -0.059295 7.918164 0.517826
v -0.040698 7.990206 0.293902
v 0.321549 7.262956 -0.002920
v -0.388015 7.262957 -0.044020
v 0.262663 6.892386 1.013696
v -0.446901 6.892386 0.972596
v -0.129780 7.114556 1.030401
v -0.045290 7.485126 0.015269
v 0.274128 6.996922 0.815755
v 0.285875 7.073969 0.612950
v 0.297621 7.151143 0.410169
v 0.309484 7.216935 0.205374
v -0.400080 7.216936 0.164273
v -0.411943 7.151143 0.369068
v -0.423688 7.073969 0.571850
v -0.435435 6.996922 0.774655
v -0.113194 7.219092 0.832757
v -0.096326 7.296139 0.630250
v -0.079459 7.373312 0.427764
v -0.062476 7.439106 0.223266
v 0.465884 5.327643 0.083381
v -0.462884 5.327643 0.029584
v 0.388350 4.864904 1.421955
v -0.540419 4.864904 1.368158
v -0.125049 5.156528 1.438970
v -0.014000 5.619267 0.102338
v 0.403487 4.997383 1.160621
v 0.418959 5.093781 0.893521
v 0.434428 5.190345 0.626448
v 0.450036 5.271971 0.356988
v -0.478732 5.271971 0.303191
v -0.494340 5.190345 0.572651
v -0.509810 5.093781 0.839724
v -0.525281 4.997383 1.106824
v -0.103208 5.289007 1.178024
v -0.081034 5.385405 0.911313
v -0.058862 5.481969 0.644627
v -0.036551 5.563595 0.375556
v 0.395757 3.222205 0.145209
v -0.538020 3.222205 0.091121
v 0.314487 2.980411 1.548278
v -0.619290 2.980412 1.494191
v -0.198911 3.277338 1.517578
v -0.083946 3.519131 0.116459
v 0.330749 3.069427 1.267533
v 0.347003 3.121706 0.986907
v 0.363258 3.174154 0.706279
v 0.379510 3.211392 0.425701
v -0.554267 3.211392 0.371614
v -0.570519 3.174154 0.652192
v -0.586773 3.121706 0.932819
v -0.603028 3.069428 1.213446
v -0.175910 3.366354 1.237222
v -0.152917 3.418633 0.956986
v -0.129923 3.471081 0.676749
v -0.106932 3.508318 0.396561
v 0.327447 7.093856 0.325043
v -0.314555 7.093856 -0.395906
v -0.695746 6.556069 1.236193
v -1.337748 6.556069 0.515244
v -1.094328 6.856393 0.880343
v -0.047968 7.394180 -0.004792
v -0.497347 6.704749 1.059519
v -0.293310 6.816272 0.877825
v -0.089298 6.927965 0.696153
v 0.117047 7.024274 0.512404
v -0.524955 7.024275 -0.208545
v -0.731300 6.927965 -0.024795
v -0.935312 6.816272 0.156876
v -1.139349 6.704749 0.338571
v -0.891295 7.005074 0.708871
v -0.682624 7.116596 0.532380
v -0.473980 7.228289 0.355912
v -0.263002 7.324599 0.177366
v -0.150880 7.525464 0.463806
v 0.118339 7.615538 -0.425641
v -1.431711 7.079937 0.031004
v -1.162492 7.170012 -0.858443
v -1.333215 7.421326 -0.443512
v -0.062099 7.863602 0.021385
v -1.182328 7.209006 0.119559
v -0.926816 7.301964 0.206312
v -0.671332 7.395089 0.293072
v -0.413310 7.473264 0.379087
v -0.144091 7.563338 -0.510360
v -0.402113 7.485163 -0.596375
v -0.657597 7.392039 -0.683136
v -0.913109 7.299080 -0.769888
v -1.085775 7.549744 -0.348539
v -0.832206 7.642054 -0.255366
v -0.578665 7.734528 -0.162187
v -0.322586 7.812052 -0.069753
v 0.247013 8.215950 0.287110
v -0.243623 8.215950 -0.263859
v -0.534939 7.804958 0.983435
v -1.025574 7.804958 0.432466
v -0.839546 8.034474 0.711484
v -0.039890 8.445465 0.035040
v -0.383317 7.918584 0.848416
v -0.227386 8.003812 0.709560
v -0.071475 8.089171 0.570722
v 0.086219 8.162773 0.430295
v -0.404416 8.162773 -0.120673
v -0.562111 8.089171 0.019754
v -0.718022 8.003812 0.158592
v -0.873952 7.918584 0.297448
v -0.684383 8.148099 0.580441
v -0.524911 8.233328 0.445562
v -0.365460 8.318687 0.310700
v -0.204224 8.392289 0.174250
v 0.386455 5.643251 0.480457
v -0.255984 5.643251 -0.240979
v -0.683803 5.303422 1.433523
v -1.326242 5.303422 0.712087
v -1.050613 5.609553 1.048898
v 0.042828 5.949380 0.121865
v -0.471607 5.413306 1.244562
v -0.257735 5.485313 1.054109
v -0.043870 5.557495 0.863662
v 0.170690 5.613995 0.672596
v -0.471749 5.613995 -0.048839
v -0.686309 5.557495 0.142226
v -0.900174 5.485313 0.332673
v -1.114046 5.413306 0.523127
v -0.833781 5.719435 0.865144
v -0.615271 5.791442 0.679897
v -0.396770 5.863625 0.494656
v -0.177574 5.920125 0.308798
v 0.329794 4.634820 0.422088
v -0.361818 4.634821 -0.354582
v -0.816744 4.238369 1.443062
v -1.508357 4.238369 0.666392
v -1.216522 4.567481 1.033345
v -0.045027 4.963932 0.040397
v -0.590104 4.362724 1.241243
v -0.361054 4.446359 1.037277
v -0.132014 4.530182 0.833321
v 0.098023 4.597146 0.628477
v -0.593589 4.597146 -0.148193
v -0.823627 4.530182 0.056651
v -1.052666 4.446360 0.260607
v -1.281717 4.362724 0.464573
v -0.984890 4.691835 0.837131
v -0.750849 4.775470 0.638770
v -0.516818 4.859293 0.440420
v -0.281789 4.926257 0.241180
v 0.289500 2.254846 0.123807
v -0.360859 2.254846 -0.062576
v 0.067864 1.609294 0.897178
v -0.582495 1.609294 0.710795
v -0.318249 1.797503 0.894145
v -0.073145 2.443056 0.127499
v 0.108289 1.764175 0.756122
v 0.152240 1.895771 0.602760
v 0.196175 2.027473 0.449455
v 0.241569 2.149535 0.291057
v -0.408790 2.149535 0.104674
v -0.454185 2.027473 0.263073
v -0.498119 1.895771 0.416378
v -0.542070 1.764175 0.569739
v -0.273131 1.952385 0.754433
v -0.224486 2.083980 0.602418
v -0.175858 2.215683 0.450458
v -0.125769 2.337744 0.293404
v 0.462876 3.764020 -0.076547
v -0.413173 3.764020 0.185697
v 0.852546 3.451705 1.225180
v -0.023503 3.451705 1.487424
v 0.375188 3.741606 1.383920
v 0.017129 4.053921 0.072730
v 0.775208 3.553863 0.966825
v 0.697332 3.620154 0.706672
v 0.619457 3.686609 0.446527
v 0.541360 3.738215 0.185637
v -0.334689 3.738215 0.447881
v -0.256592 3.686609 0.708771
v -0.178718 3.620154 0.968917
v -0.100841 3.553863 1.229070
v 0.304172 3.843764 1.123673
v 0.232618 3.910055 0.861627
v 0.161066 3.976511 0.599589
v 0.089291 4.028116 0.336807
v 0.408619 2.704450 -0.172411
v -0.500375 2.704450 0.361637
v 1.179280 2.185667 1.139320
v 0.270286 2.185668 1.673367
v 0.705629 2.516335 1.477529
v -0.032231 3.035117 0.146527
v 1.028732 2.334701 0.883074
v 0.874945 2.442824 0.621316
v 0.721173 2.551134 0.359584
v 0.566061 2.642506 0.095569
v -0.342933 2.642506 0.629616
v -0.187820 2.551134 0.893631
v -0.034049 2.442824 1.155364
v 0.119738 2.334701 1.417122
v 0.561642 2.665369 1.217429
v 0.414415 2.773491 0.951817
v 0.267203 2.881801 0.686230
v 0.118651 2.973173 0.418361
v 0.186629 4.152693 -0.550129
v -0.035534 4.152694 0.542282
v 1.804860 3.750460 -0.221031
v 1.582697 3.750460 0.871380
v 1.705333 4.103593 0.384254
v 0.095118 4.505827 0.015736
v 1.484313 3.879260 -0.286219
v 1.160965 3.964369 -0.351979
v 0.837631 4.049679 -0.417735
v 0.513137 4.116900 -0.483727
v 0.290974 4.116900 0.608684
v 0.615468 4.049679 0.674676
v 0.938802 3.964369 0.740432
v 1.262150 3.879260 0.806191
v 1.386389 4.232394 0.311180
v 1.064645 4.317503 0.237538
v 0.742913 4.402813 0.163898
v 0.420023 4.470035 0.090022
v -0.424744 4.327486 0.203380
v 0.339451 4.327486 -0.221654
v -1.031094 3.857074 -0.886814
v -0.266899 3.857074 -1.311848
v -0.635971 4.129829 -1.165626
v -0.057197 4.600242 -0.060094
v -0.913259 3.988504 -0.674951
v -0.792320 4.086187 -0.457507
v -0.671395 4.184026 -0.240089
v -0.549186 4.267893 -0.020362
v 0.215009 4.267893 -0.445396
v 0.092800 4.184026 -0.665124
v -0.028125 4.086187 -0.882541
v -0.149063 3.988504 -1.099985
v -0.523651 4.261260 -0.950695
v -0.408227 4.358943 -0.730184
v -0.292818 4.456782 -0.509699
v -0.176124 4.540648 -0.286904
v 0.357973 5.371751 -0.268840
v -0.303264 5.371751 0.319991
v 1.197993 4.895437 0.674475
v 0.536756 4.895437 1.263306
v 0.869150 5.171615 1.037277
v 0.052991 5.647929 0.072714
v 1.034747 5.028515 0.491156
v 0.867202 5.127425 0.303008
v 0.699677 5.226491 0.114882
v 0.530371 5.311411 -0.075243
v -0.130866 5.311411 0.513588
v 0.038439 5.226491 0.703712
v 0.205965 5.127425 0.891838
v 0.373510 5.028515 1.079986
v 0.710676 5.304694 0.849708
v 0.547903 5.403603 0.657311
v 0.385150 5.502669 0.464935
v 0.220617 5.587588 0.270561
v 0.115081 2.578047 -0.451707
v -0.168998 2.578047 0.516682
v 1.539950 2.174879 -0.033717
v 1.255871 2.174878 0.934671
v 1.411835 2.493911 0.507008
v -0.002783 2.897080 0.054075
v 1.258823 2.299196 -0.116187
v 0.974220 2.384042 -0.199676
v 0.689633 2.469069 -0.283161
v 0.403607 2.537754 -0.367067
v 0.119528 2.537755 0.601322
v 0.405553 2.469069 0.685229
v 0.690140 2.384042 0.768712
v 0.974743 2.299196 0.852201
v 1.132758 2.618229 0.417550
v 0.850205 2.703075 0.327073
v 0.567668 2.788103 0.236599
v 0.283692 2.856787 0.145704
v -0.449500 3.370340 0.359369
v 0.187088 3.370340 -0.483422
v -1.697303 2.985881 -0.583139
v -1.060714 2.985881 -1.425930
v -1.365298 3.320410 -1.060185
v -0.140467 3.704869 -0.087265
v -1.450212 3.108579 -0.396502
v -1.200889 3.189887 -0.208181
v -0.951577 3.271386 -0.019867
v -0.701341 3.335748 0.169145
v -0.064753 3.335749 -0.673645
v -0.314988 3.271386 -0.862657
v -0.564301 3.189888 -1.050972
v -0.813623 3.108579 -1.239293
v -1.122801 3.443109 -0.867466
v -0.878073 3.524416 -0.673062
v -0.633355 3.605915 -0.478666
v -0.387713 3.670278 -0.283571
v -0.353872 2.854557 0.417884
v 0.277052 2.854557 -0.417406
v -1.524704 2.226678 -0.466486
v -0.893780 2.226678 -1.301776
v -1.238418 2.550180 -0.971587
v -0.090352 3.178059 -0.057076
v -1.298840 2.396550 -0.295883
v -1.065475 2.526397 -0.119614
v -0.832143 2.656428 0.056629
v -0.595706 2.769887 0.235218
v 0.035217 2.769888 -0.600071
v -0.201220 2.656428 -0.778661
v -0.434551 2.526397 -0.954904
v -0.667917 2.396550 -1.131173
v -1.017108 2.720053 -0.794957
v -0.788296 2.849899 -0.612659
v -0.559517 2.979930 -0.430387
v -0.327633 3.093390 -0.245770
v -0.249268 3.720723 0.420828
v 0.014799 3.720723 -0.595500
v -1.766758 3.396766 0.026545
v -1.502691 3.396766 -0.989782
v -1.631279 3.729964 -0.534827
v -0.123318 4.053921 -0.103870
v -1.464592 3.507181 0.105056
v -1.161222 3.576372 0.183879
v -0.857858 3.645752 0.262701
v -0.553996 3.698064 0.341652
v -0.289928 3.698064 -0.674676
v -0.593790 3.645752 -0.753627
v -0.897154 3.576372 -0.832448
v -1.200524 3.507182 -0.911271
v -1.331018 3.840380 -0.448981
v -1.029554 3.909570 -0.362823
v -0.728096 3.978950 -0.276666
v -0.426139 4.031262 -0.190381
v -0.041647 3.356997 0.566414
v -0.195956 3.356997 -0.540669
v -1.704059 3.061866 0.798126
v -1.858368 3.061866 -0.308956
v -1.789062 3.416711 0.189399
v -0.121082 3.711841 -0.002365
v -1.371597 3.169480 0.751787
v -1.039117 3.233191 0.705445
v -0.706637 3.297104 0.659102
v -0.374149 3.342840 0.612759
v -0.528458 3.342841 -0.494324
v -0.860946 3.297104 -0.447981
v -1.193426 3.233191 -0.401638
v -1.525906 3.169480 -0.355296
v -1.455487 3.524325 0.151049
v -1.121893 3.588036 0.112696
v -0.788299 3.651949 0.074344
v -0.454698 3.697685 0.035990
v 0.292271 3.984059 0.442100
v -0.426250 3.984059 -0.364776
v -0.924727 3.743337 1.525834
v -1.643248 3.743337 0.718957
v -1.312915 4.086197 1.076011
v -0.069989 4.326921 0.021393
v -0.680382 3.838428 1.308245
v -0.436891 3.891099 1.091417
v -0.193396 3.943965 0.874586
v 0.049745 3.979269 0.658069
v -0.668777 3.979269 -0.148807
v -0.911918 3.943966 0.067710
v -1.155412 3.891099 0.284541
v -1.398903 3.838428 0.501369
v -1.063384 4.181289 0.864245
v -0.814708 4.233960 0.653240
v -0.566028 4.286827 0.442232
v -0.317701 4.322130 0.231539
v 0.289445 2.862752 0.443831
v -0.414270 2.862752 -0.346419
v -0.832268 2.273829 1.442712
v -1.535983 2.273829 0.652462
v -1.269072 2.603047 1.052574
v -0.121966 3.191971 0.082209
v -0.614752 2.436692 1.249015
v -0.391067 2.558824 1.049824
v -0.167411 2.681142 0.850660
v 0.058798 2.786597 0.649221
v -0.644917 2.786597 -0.141029
v -0.871127 2.681143 0.060409
v -1.094783 2.558824 0.259574
v -1.318467 2.436692 0.458765
v -1.046477 2.765911 0.864579
v -0.817714 2.888042 0.671093
v -0.588979 3.010361 0.477631
v -0.357691 3.115815 0.281895
v -0.088824 9.422969 -0.301492
v -0.119139 9.425159 0.305677
v 0.570857 8.772828 -0.266209
v 0.540541 8.775018 0.340960
v 0.663653 8.932897 0.072546
v 0.005066 9.582959 0.015354
v 0.453910 8.924609 -0.272596
v 0.323419 9.056734 -0.279588
v 0.192990 9.188951 -0.286577
v 0.056954 9.313029 -0.293817
v 0.026639 9.315220 0.313352
v 0.162674 9.191140 0.320592
v 0.293103 9.058925 0.327581
v 0.423594 8.926800 0.334573
v 0.546925 9.084663 0.061778
v 0.416652 9.216773 0.050404
v 0.286442 9.348972 0.039033
v 0.150626 9.473037 0.027411
v -0.053597 8.803064 -0.324674
v -0.089950 8.801749 0.356753
v 0.865127 8.317159 -0.276598
v 0.828773 8.315844 0.404829
v 0.911583 8.522585 0.102039
v -0.005828 9.008538 0.029374
v 0.690480 8.442567 -0.285674
v 0.507613 8.542470 -0.295237
v 0.324783 8.642489 -0.304798
v 0.138550 8.731950 -0.314560
v 0.102196 8.730636 0.366867
v 0.288430 8.641175 0.376630
v 0.471260 8.541155 0.386190
v 0.654127 8.441253 0.395754
v 0.737199 8.648005 0.088046
v 0.554594 8.747915 0.073565
v 0.372027 8.847945 0.059086
v 0.186056 8.937414 0.044406
v -0.257951 8.771737 0.279472
v 0.262402 8.770300 -0.189494
v -0.905359 8.316219 -0.437480
v -0.385007 8.314782 -0.906446
v -0.658189 8.529923 -0.739229
v -0.029557 8.985493 -0.005355
v -0.781211 8.436692 -0.300098
v -0.652244 8.530629 -0.157287
v -0.523299 8.624686 -0.014501
v -0.392358 8.707756 0.130533
v 0.127994 8.706319 -0.338432
v -0.002947 8.623249 -0.483466
v -0.131892 8.529192 -0.626252
v -0.260859 8.435256 -0.769064
v -0.537796 8.650408 -0.598463
v -0.412584 8.744354 -0.452267
v -0.287394 8.838422 -0.306096
v -0.160209 8.921502 -0.157678
v 0.228917 9.391144 0.178236
v -0.147043 9.388082 -0.232869
v -0.271107 8.882370 0.639304
v -0.647067 8.879307 0.228198
v -0.537368 9.038469 0.466518
v -0.023777 9.547354 0.020285
v -0.179254 9.005730 0.554384
v -0.080035 9.109568 0.462874
v 0.019150 9.213495 0.371394
v 0.121384 9.309341 0.277186
v -0.254576 9.306277 -0.133920
v -0.356810 9.210432 -0.039712
v -0.455995 9.106505 0.051768
v -0.555214 9.002666 0.143278
v -0.442801 9.161851 0.384564
v -0.340869 9.265712 0.296021
v -0.238971 9.369662 0.207508
v -0.134023 9.465529 0.116267
v 0.337481 8.554271 0.020737
v -0.370021 8.553256 -0.016640
v 0.284827 8.167439 1.027920
v -0.422675 8.166425 0.990544
v -0.106793 8.387634 1.050349
v -0.028609 8.774501 0.044514
v 0.295004 8.275032 0.832368
v 0.305500 8.355312 0.631500
v 0.315995 8.435719 0.430654
v 0.326623 8.504818 0.227608
v -0.380879 8.503803 0.190232
v -0.391507 8.434705 0.393278
v -0.402002 8.354300 0.594123
v -0.412499 8.274017 0.794992
v -0.091510 8.495234 0.855067
v -0.075907 8.575522 0.654468
v -0.060306 8.655935 0.453893
v -0.044573 8.725041 0.251116
v 0.104853 8.951562 0.283182
v -0.089515 8.950158 -0.261074
v -0.646858 8.579085 0.552598
v -0.841226 8.577682 0.008342
v -0.798770 8.755477 0.268956
v -0.040046 9.128003 0.019179
v -0.502682 8.677839 0.500855
v -0.352935 8.754674 0.447178
v -0.203213 8.831608 0.393510
v -0.051184 8.899469 0.339041
v -0.245552 8.898066 -0.205215
v -0.397581 8.830205 -0.150746
v -0.547303 8.753270 -0.097078
v -0.697050 8.676436 -0.043401
v -0.653192 8.854240 0.221140
v -0.502042 8.931086 0.171391
v -0.350917 9.008030 0.121651
v -0.197485 9.075899 0.071111
v 0.395636 6.396115 0.442355
v -0.261615 6.396115 -0.428684
v -0.875191 5.913095 1.401270
v -1.532442 5.913096 0.530231
v -1.269958 6.256966 0.947490
v 0.024586 6.739986 0.020006
v -0.625594 6.056785 1.212934
v -0.371869 6.157929 1.021484
v -0.118163 6.259269 0.830048
v 0.137252 6.342994 0.637322
v -0.520000 6.342994 -0.233717
v -0.775415 6.259269 -0.040992
v -1.029121 6.157929 0.150445
v -1.282845 6.056785 0.341895
v -1.015617 6.400656 0.765441
v -0.757149 6.501800 0.580276
v -0.498700 6.603139 0.395127
v -0.238542 6.686864 0.208687
v -0.277583 2.419688 0.185700
v 0.207684 2.419688 -0.209951
v -0.748070 1.822247 -0.391351
v -0.262804 1.822247 -0.787004
v -0.541741 1.996430 -0.683115
v -0.088764 2.593870 -0.091786
v -0.662257 1.965586 -0.286102
v -0.568958 2.087373 -0.171672
v -0.475694 2.209260 -0.057283
v -0.379331 2.322225 0.060906
v 0.105936 2.322225 -0.334746
v 0.009572 2.209260 -0.452935
v -0.083692 2.087373 -0.567323
v -0.176991 1.965586 -0.681754
v -0.459430 2.139768 -0.575010
v -0.369633 2.261556 -0.457724
v -0.279871 2.383443 -0.340480
v -0.187010 2.496408 -0.219435
v -0.200351 9.871598 -0.016334
v 0.118711 9.867138 0.147281
v -0.074568 9.406257 -0.274309
v 0.244494 9.401795 -0.110693
v 0.140552 9.479383 -0.259656
v 0.003256 9.944888 -0.007585
v -0.094291 9.509673 -0.233026
v -0.118924 9.603740 -0.182426
v -0.143534 9.697850 -0.131868
v -0.170177 9.788088 -0.077453
v 0.148885 9.783627 0.086163
v 0.175528 9.693388 0.031747
v 0.200138 9.599279 -0.018810
v 0.224771 9.505212 -0.069411
v 0.118526 9.582833 -0.219554
v 0.091590 9.676933 -0.170134
v 0.064677 9.771073 -0.120757
v 0.035732 9.861344 -0.067523
v 0.095165 10.015168 0.137649
v 0.022564 10.011653 -0.162704
v -0.160880 9.625284 0.204102
v -0.233482 9.621770 -0.096251
v -0.269463 9.691614 0.054746
v -0.010797 10.081624 -0.000870
v -0.119073 9.712607 0.192974
v -0.068770 9.791486 0.179892
v -0.018507 9.870402 0.166819
v 0.035274 9.945823 0.152937
v -0.037327 9.942309 -0.147416
v -0.091108 9.866888 -0.133534
v -0.141372 9.787971 -0.120461
v -0.191674 9.709093 -0.107379
v -0.227131 9.778963 0.045785
v -0.176305 9.857866 0.034872
v -0.125517 9.936809 0.023966
v -0.071212 10.012254 0.012251
vn -0.9780 0.1914 -0.0828
vn -0.9573 0.2696 -0.1042
vn -0.9027 0.3338 0.2716
vn -0.9299 0.2238 0.2921
vn -0.6668 0.3375 0.6644
vn -0.7062 0.2265 0.6708
vn -0.3507 0.2651 0.8982
vn -0.3907 0.1888 0.9010
vn -0.0423 0.2128 0.9762
vn -0.0447 0.1612 0.9859
vn 0.0904 0.2082 -0.9739
vn 0.1113 0.3036 -0.9463
vn -0.3428 0.3115 -0.8863
vn -0.3418 0.2127 -0.9154
vn -0.6687 0.2647 -0.6948
vn -0.6679 0.1888 -0.7199
vn -0.8720 0.2482 -0.4218
vn -0.8855 0.1800 -0.4284
vn 0.9789 0.1997 0.0433
vn 0.9568 0.2872 0.0450
vn 0.9011 0.2451 -0.3577
vn 0.9216 0.1783 -0.3447
vn 0.7133 0.2107 -0.6685
vn 0.7284 0.1606 -0.6661
vn 0.4772 0.2308 -0.8480
vn 0.4592 0.1705 -0.8718
vn 0.4350 0.0206 -0.9002
vn 0.4341 0.0791 -0.8974
vn 0.0576 0.0791 -0.9952
vn 0.0573 0.0207 -0.9981
vn 0.7465 0.0190 -0.6651
vn 0.7445 0.0791 -0.6629
vn 0.9443 0.0159 -0.3286
vn 0.9415 0.0791 -0.3276
vn 0.9982 0.0120 0.0580
vn 0.9952 0.0792 0.0576
vn -0.9003 0.0125 -0.4351
vn -0.8974 0.0791 -0.4341
vn -0.9952 0.0791 -0.0576
vn -0.9983 0.0084 -0.0576
vn -0.6653 0.0163 -0.7464
vn -0.6629 0.0791 -0.7445
vn -0.3291 0.0192 -0.9441
vn -0.3276 0.0791 -0.9415
vn -0.4358 -0.0003 0.9000
vn -0.4341 0.0791 0.8974
vn -0.0575 0.0791 0.9952
vn -0.0584 -0.0003 0.9983
vn -0.7470 0.0015 0.6648
vn -0.7445 0.0791 0.6630
vn -0.9445 0.0044 0.3286
vn -0.9415 0.0791 0.3276
vn 0.3107 0.1585 0.9372
vn 0.3276 0.0791 0.9415
vn 0.6275 0.1813 0.7572
vn 0.6629 0.0791 0.7445
vn 0.3281 0.0011 0.9446
vn 0.8736 0.2052 0.4413
vn 0.8974 0.0791 0.4341
vn 0.6646 0.0040 0.7472
vn 0.9000 0.0078 0.4358
vn 0.8424 0.2961 0.4502
vn 0.5943 0.2510 0.7641
vn 0.2915 0.2063 0.9341
vn -0.0000 1.0000 -0.0000
vn 0.8998 0.0260 0.4355
vn 0.9001 -0.0015 0.4357
vn 0.9438 0.0082 -0.3304
vn 0.9436 0.0114 -0.3310
vn 0.4380 0.0178 -0.8988
vn 0.9033 0.0289 0.4280
vn -0.9448 0.0243 0.3268
vn -0.4381 0.0101 0.8989
vn -0.4387 0.0329 0.8980
vn -0.9451 0.0214 0.3261
vn -0.3305 0.0330 -0.9432
vn 0.4328 0.0225 -0.9012
vn -0.8998 0.0337 -0.4350
vn 0.3257 0.0349 0.9448
vn -0.9003 0.0071 -0.4352
vn -0.3313 -0.0017 -0.9435
vn 0.4320 -0.0001 -0.9019
vn -0.4322 0.0529 0.9002
vn 0.3265 -0.0006 0.9452
vn -0.8959 0.0415 -0.4424
vn 0.3004 0.8317 -0.4669
vn -0.0028 0.8351 0.5501
vn 0.2157 0.7937 0.5689
vn 0.1156 0.8144 0.5686
vn 0.1172 0.8183 0.5627
vn 0.0743 0.8269 0.5575
vn 0.0727 0.8516 -0.5192
vn 0.1518 0.8491 -0.5059
vn 0.1966 0.8465 -0.4948
vn 0.1963 0.8494 -0.4898
vn 0.3438 0.8058 -0.4822
vn 0.1070 0.8269 0.5521
vn 0.3216 0.7659 0.5567
vn 0.2240 0.7955 0.5630
vn 0.2256 0.7993 0.5570
vn 0.1834 0.8117 0.5545
vn 0.1160 0.8464 -0.5197
vn 0.1951 0.8368 -0.5116
vn 0.2401 0.8300 -0.5034
vn 0.2404 0.8330 -0.4983
vn -0.4603 0.7741 -0.4347
vn 0.5586 0.8173 -0.1411
vn 0.5756 0.7393 -0.3495
vn 0.5762 0.7767 -0.2544
vn 0.5703 0.7804 -0.2566
vn 0.5654 0.7961 -0.2158
vn -0.5109 0.8327 -0.2134
vn -0.4982 0.8168 -0.2910
vn -0.4874 0.8065 -0.3347
vn -0.4823 0.8094 -0.3350
vn -0.4677 0.8361 -0.2865
vn 0.5493 0.8355 0.0167
vn 0.5681 0.7977 -0.2024
vn 0.5678 0.8168 -0.1020
vn 0.5619 0.8207 -0.1036
vn 0.5567 0.8285 -0.0606
vn -0.5200 0.8522 -0.0586
vn -0.5068 0.8510 -0.1377
vn -0.4956 0.8491 -0.1825
vn -0.4906 0.8521 -0.1822
vn -0.4600 0.7822 -0.4203
vn 0.5572 0.8216 -0.1203
vn 0.5755 0.7482 -0.3302
vn 0.5755 0.7835 -0.2343
vn 0.5696 0.7872 -0.2365
vn 0.5645 0.8020 -0.1953
vn -0.5119 0.8359 -0.1981
vn -0.4988 0.8217 -0.2759
vn -0.4877 0.8123 -0.3198
vn -0.4826 0.8153 -0.3200
vn -0.1469 0.8435 -0.5166
vn 0.3579 0.8355 0.4168
vn 0.5269 0.8044 0.2745
vn 0.4553 0.8205 0.3457
vn 0.4522 0.8244 0.3405
vn 0.4179 0.8309 0.3673
vn -0.3453 0.8526 -0.3921
vn -0.2801 0.8539 -0.4387
vn -0.2404 0.8534 -0.4626
vn -0.2372 0.8563 -0.4587
vn -0.0725 0.8094 -0.5828
vn 0.4329 0.8307 0.3501
vn 0.5979 0.7732 0.2113
vn 0.5283 0.8013 0.2807
vn 0.5255 0.8051 0.2752
vn 0.4920 0.8168 0.3013
vn -0.2689 0.8461 -0.4602
vn -0.2040 0.8378 -0.5065
vn -0.1646 0.8318 -0.5301
vn -0.1611 0.8348 -0.5265
vn 0.2919 0.8345 -0.4674
vn -0.0113 0.8354 0.5496
vn 0.2076 0.7962 0.5684
vn 0.1072 0.8159 0.5681
vn 0.1088 0.8198 0.5622
vn 0.0659 0.8279 0.5570
vn 0.0641 0.8520 -0.5197
vn 0.1431 0.8503 -0.5065
vn 0.1880 0.8481 -0.4953
vn 0.1876 0.8511 -0.4903
vn 0.5123 0.8345 0.2030
vn -0.5427 0.8354 0.0878
vn -0.5218 0.7962 0.3064
vn -0.5396 0.8159 0.2077
vn -0.5334 0.8198 0.2082
vn -0.5360 0.8279 0.1650
vn 0.5227 0.8520 -0.0305
vn 0.5239 0.8503 0.0497
vn 0.5211 0.8481 0.0958
vn 0.5161 0.8511 0.0964
vn 0.4190 0.7828 -0.4600
vn 0.1189 0.8219 0.5571
vn 0.3290 0.7488 0.5754
vn 0.2330 0.7840 0.5754
vn 0.2352 0.7876 0.5695
vn 0.1940 0.8024 0.5644
vn 0.1967 0.8362 -0.5120
vn 0.2745 0.8221 -0.4988
vn 0.3185 0.8128 -0.4878
vn 0.3186 0.8158 -0.4827
vn -0.0657 0.7568 -0.6503
vn 0.5436 0.8108 0.2169
vn 0.6857 0.7247 0.0679
vn 0.6274 0.7658 0.1411
vn 0.6243 0.7694 0.1355
vn 0.5952 0.7867 0.1637
vn -0.2426 0.8241 -0.5119
vn -0.1844 0.8051 -0.5637
vn -0.1487 0.7931 -0.5906
vn -0.1446 0.7960 -0.5877
vn 0.4118 0.7864 -0.4605
vn 0.1113 0.8232 0.5567
vn 0.3220 0.7521 0.5750
vn 0.2257 0.7864 0.5750
vn 0.2279 0.7901 0.5691
vn 0.1866 0.8044 0.5640
vn 0.1890 0.8377 -0.5124
vn 0.2670 0.8243 -0.4993
vn 0.3110 0.8155 -0.4882
vn 0.3111 0.8184 -0.4832
vn -0.4611 0.7845 -0.4146
vn 0.5567 0.8225 -0.1165
vn 0.5745 0.7504 -0.3269
vn 0.5747 0.7851 -0.2307
vn 0.5688 0.7888 -0.2329
vn 0.5638 0.8034 -0.1916
vn -0.5126 0.8369 -0.1920
vn -0.4996 0.8231 -0.2699
vn -0.4886 0.8141 -0.3139
vn -0.4836 0.8170 -0.3140
vn -0.4155 0.7845 0.4602
vn -0.1153 0.8225 -0.5569
vn -0.3257 0.7504 -0.5752
vn -0.2295 0.7851 -0.5752
vn -0.2317 0.7888 -0.5693
vn -0.1905 0.8034 -0.5642
vn -0.1930 0.8369 0.5122
vn -0.2709 0.8231 0.4991
vn -0.3149 0.8141 0.4880
vn -0.3150 0.8170 0.4829
vn -0.5528 0.8333 -0.0091
vn 0.4734 0.8353 -0.2798
vn 0.3755 0.7951 -0.4763
vn 0.4275 0.8153 -0.3906
vn 0.4216 0.8192 -0.3889
vn 0.4395 0.8275 -0.3495
vn -0.4788 0.8518 0.2126
vn -0.5087 0.8498 0.1382
vn -0.5225 0.8474 0.0942
vn -0.5181 0.8504 0.0918
vn -0.2956 0.8333 0.4672
vn 0.0076 0.8353 -0.5498
vn -0.2110 0.7951 -0.5686
vn -0.1108 0.8153 -0.5683
vn -0.1124 0.8192 -0.5624
vn -0.0695 0.8275 -0.5572
vn -0.0678 0.8518 0.5195
vn -0.1469 0.8498 0.5062
vn -0.1917 0.8474 0.4951
vn -0.1914 0.8504 0.4901
vn -0.5759 0.8136 0.0803
vn 0.3572 0.8318 -0.4249
vn 0.2180 0.7771 -0.5904
vn 0.2876 0.8039 -0.5206
vn 0.2821 0.8077 -0.5177
vn 0.3083 0.8189 -0.4841
vn -0.4529 0.8474 0.2771
vn -0.4993 0.8401 0.2120
vn -0.5229 0.8347 0.1727
vn -0.5193 0.8377 0.1692
vn -0.5176 0.8431 0.1457
vn 0.4158 0.8356 -0.3591
vn 0.2735 0.8040 -0.5280
vn 0.3447 0.8203 -0.4565
vn 0.3394 0.8242 -0.4533
vn 0.3663 0.8308 -0.4190
vn -0.3932 0.8526 0.3442
vn -0.4398 0.8537 0.2789
vn -0.4636 0.8531 0.2393
vn -0.4598 0.8561 0.2360
vn 0.1332 0.7378 -0.6618
vn 0.4983 0.8006 0.3327
vn 0.6709 0.7057 0.2278
vn 0.5971 0.7508 0.2824
vn 0.5957 0.7542 0.2761
vn 0.5610 0.7733 0.2954
vn -0.0709 0.8146 -0.5757
vn -0.0020 0.7923 -0.6101
vn 0.0390 0.7784 -0.6266
vn 0.0423 0.7813 -0.6228
vn 0.4588 0.7717 0.4404
vn -0.5584 0.8174 0.1415
vn -0.5766 0.7385 0.3494
vn -0.5767 0.7763 0.2544
vn -0.5708 0.7799 0.2567
vn -0.5657 0.7958 0.2160
vn 0.5107 0.8312 0.2197
vn 0.4975 0.8150 0.2971
vn 0.4865 0.8045 0.3407
vn 0.4814 0.8074 0.3410
vn 0.4595 0.7785 0.4275
vn -0.5577 0.8202 0.1278
vn -0.5759 0.7448 0.3371
vn -0.5759 0.7810 0.2415
vn -0.5700 0.7847 0.2437
vn -0.5649 0.7999 0.2027
vn 0.5115 0.8343 0.2058
vn 0.4983 0.8193 0.2835
vn 0.4872 0.8096 0.3273
vn 0.4822 0.8125 0.3275
vn 0.4671 0.8329 0.2969
vn -0.5499 0.8352 -0.0063
vn -0.5687 0.7947 0.2124
vn -0.5684 0.8151 0.1122
vn -0.5625 0.8189 0.1138
vn -0.5573 0.8273 0.0709
vn 0.5194 0.8517 0.0692
vn 0.5062 0.8496 0.1483
vn 0.4950 0.8472 0.1931
vn 0.4900 0.8501 0.1928
vn -0.0013 0.7611 0.6486
vn -0.5102 0.8128 -0.2813
vn -0.6685 0.7287 -0.1484
vn -0.6021 0.7689 -0.2150
vn -0.5997 0.7725 -0.2091
vn -0.5675 0.7894 -0.2341
vn 0.1903 0.8262 0.5302
vn 0.1266 0.8080 0.5754
vn 0.0881 0.7964 0.5983
vn 0.0843 0.7994 0.5949
vn -0.5350 0.7331 0.4198
vn -0.0078 0.8713 -0.4908
vn -0.2058 0.7994 -0.5644
vn -0.1134 0.8348 -0.5387
vn -0.1170 0.8379 -0.5331
vn -0.0786 0.8523 -0.5172
vn -0.3324 0.7821 0.5271
vn -0.4047 0.7690 0.4948
vn -0.4446 0.7607 0.4730
vn -0.4436 0.7641 0.4683
vn -0.5997 0.7724 -0.2091
vn 0.0819 0.8144 0.5745
vn -0.4233 0.8320 -0.3586
vn -0.5889 0.7779 -0.2193
vn -0.5190 0.8044 -0.2890
vn -0.5162 0.8082 -0.2835
vn -0.4826 0.8193 -0.3097
vn 0.2787 0.8476 0.4515
vn 0.2136 0.8405 0.4978
vn 0.1743 0.8353 0.5215
vn 0.1708 0.8382 0.5179
vn 0.0698 0.8079 0.5852
vn -0.4356 0.8303 -0.3476
vn -0.6005 0.7719 -0.2090
vn -0.5309 0.8004 -0.2784
vn -0.5281 0.8041 -0.2728
vn -0.4947 0.8160 -0.2989
vn 0.2661 0.8456 0.4627
vn 0.2012 0.8370 0.5089
vn 0.1619 0.8308 0.5325
vn 0.1584 0.8338 0.5289
vn 0.2887 0.5980 0.7477
vn -0.6457 0.7182 0.2592
vn -0.6990 0.5765 0.4231
vn -0.6830 0.6428 0.3469
vn -0.6780 0.6456 0.3515
vn -0.6661 0.6738 0.3198
vn 0.3792 0.7261 0.5735
vn 0.3520 0.6857 0.6372
vn 0.3332 0.6615 0.6718
vn 0.3279 0.6641 0.6718
vn 0.5536 0.8166 0.1634
vn -0.5057 0.8325 0.2264
vn -0.4493 0.7799 0.4358
vn -0.4830 0.8058 0.3428
vn -0.4768 0.8096 0.3425
vn -0.4864 0.8203 0.3009
vn 0.5253 0.8483 -0.0672
vn 0.5398 0.8417 0.0114
vn 0.5446 0.8367 0.0571
vn 0.5399 0.8397 0.0587
vn 0.6181 0.7800 0.0977
vn -0.3942 0.8207 0.4135
vn -0.2930 0.7462 0.5978
vn -0.3462 0.7820 0.5183
vn -0.3400 0.7857 0.5168
vn -0.3586 0.8007 0.4798
vn 0.5380 0.8349 -0.1157
vn 0.5703 0.8203 -0.0438
vn 0.5855 0.8107 -0.0011
vn 0.5814 0.8136 0.0018
vn 0.4157 0.8124 -0.4089
vn -0.0284 0.8315 0.5548
vn 0.1821 0.7760 0.6038
vn 0.0845 0.8032 0.5897
vn 0.0872 0.8070 0.5841
vn 0.0462 0.8183 0.5729
vn 0.1995 0.8471 -0.4926
vn 0.2755 0.8395 -0.4684
vn 0.3180 0.8339 -0.4510
vn 0.3172 0.8369 -0.4461
vn -0.6277 0.7669 -0.1338
vn 0.3911 0.8153 -0.4269
vn 0.2955 0.7340 -0.6114
vn 0.3462 0.7730 -0.5317
vn 0.3400 0.7765 -0.5305
vn 0.3574 0.7929 -0.4935
vn -0.5536 0.8290 0.0797
vn -0.5839 0.8118 0.0075
vn -0.5978 0.8008 -0.0352
vn -0.5937 0.8038 -0.0381
vn 0.6418 0.7669 -0.0063
vn -0.2885 0.8153 0.5020
vn -0.1550 0.7340 0.6612
vn -0.2219 0.7730 0.5944
vn -0.2160 0.7765 0.5919
vn -0.2411 0.7929 0.5596
vn 0.5228 0.8290 -0.1986
vn 0.5682 0.8118 -0.1347
vn 0.5911 0.8008 -0.0961
vn 0.5877 0.8038 -0.0923
vn 0.4691 0.8036 -0.3663
vn -0.0544 0.8290 0.5565
vn 0.1497 0.7680 0.6228
vn 0.0544 0.7977 0.6006
vn 0.0577 0.8014 0.5953
vn 0.0180 0.8139 0.5808
vn 0.2617 0.8442 -0.4678
vn 0.3352 0.8346 -0.4372
vn 0.3759 0.8278 -0.4164
vn 0.3748 0.8308 -0.4115
vn -0.5528 0.8117 0.1884
vn 0.2637 0.8313 -0.4893
vn 0.0951 0.7754 -0.6243
vn 0.1769 0.8028 -0.5694
vn 0.1720 0.8066 -0.5656
vn 0.2042 0.8180 -0.5378
vn -0.3940 0.8468 0.3572
vn -0.4521 0.8391 0.3025
vn -0.4830 0.8334 0.2685
vn -0.4801 0.8364 0.2644
vn -0.6546 0.7477 0.1115
vn 0.1568 0.8065 -0.5700
vn -0.0023 0.7163 -0.6978
vn 0.0749 0.7593 -0.6465
vn 0.0696 0.7627 -0.6429
vn 0.0999 0.7809 -0.6166
vn -0.5028 0.8195 0.2750
vn -0.5591 0.7989 0.2217
vn -0.5887 0.7860 0.1886
vn -0.5862 0.7889 0.1842
vn -0.4091 0.8234 0.3932
vn 0.0865 0.8339 -0.5451
vn -0.1229 0.7861 -0.6058
vn -0.0254 0.8098 -0.5862
vn -0.0283 0.8136 -0.5807
vn 0.0125 0.8234 -0.5673
vn -0.1967 0.8500 0.4888
vn -0.2715 0.8452 0.4604
vn -0.3132 0.8412 0.4408
vn -0.3120 0.8442 0.4359
vn -0.2031 0.8319 0.5165
vn -0.1042 0.8351 -0.5401
vn -0.3221 0.7938 -0.5159
vn -0.2239 0.8145 -0.5352
vn -0.2243 0.8184 -0.5291
vn -0.1812 0.8269 -0.5323
vn 0.0303 0.8516 0.5233
vn -0.0498 0.8492 0.5258
vn -0.0959 0.8465 0.5236
vn -0.0966 0.8495 0.5186
vn 0.1351 0.8390 0.5271
vn -0.3696 0.8356 -0.4064
vn -0.5381 0.8003 -0.2645
vn -0.4668 0.8183 -0.3355
vn -0.4637 0.8222 -0.3302
vn -0.4295 0.8295 -0.3570
vn 0.3334 0.8524 0.4028
vn 0.2681 0.8522 0.4493
vn 0.2285 0.8508 0.4732
vn 0.2253 0.8538 0.4694
vn -0.0011 0.7613 0.6484
vn -0.5099 0.8129 -0.2815
vn -0.6683 0.7289 -0.1486
vn -0.6019 0.7690 -0.2152
vn -0.5994 0.7726 -0.2093
vn -0.5673 0.7895 -0.2343
vn 0.1905 0.8263 0.5300
vn 0.1268 0.8081 0.5752
vn 0.0883 0.7966 0.5981
vn 0.0845 0.7995 0.5947
vn 0.7197 0.5286 -0.4501
vn 0.4695 0.6734 0.5710
vn 0.6260 0.5150 0.5855
vn 0.5553 0.5888 0.5873
vn 0.5589 0.5913 0.5814
vn 0.5284 0.6227 0.5771
vn 0.5435 0.6754 -0.4985
vn 0.6072 0.6282 -0.4865
vn 0.6426 0.6004 -0.4761
vn 0.6440 0.6028 -0.4710
vn 0.5396 0.7090 -0.4540
vn 0.2537 0.7850 0.5652
vn 0.4491 0.6784 0.5815
vn 0.3601 0.7288 0.5824
vn 0.3629 0.7321 0.5765
vn 0.3246 0.7534 0.5718
vn 0.3288 0.7986 -0.5042
vn 0.4033 0.7718 -0.4916
vn 0.4452 0.7554 -0.4809
vn 0.4458 0.7582 -0.4758
vn -0.6807 0.7317 -0.0354
vn 0.2435 0.7969 -0.5528
vn 0.1136 0.6993 -0.7057
vn 0.1787 0.7456 -0.6419
vn 0.1727 0.7491 -0.6396
vn 0.1971 0.7687 -0.6086
vn -0.5643 0.8115 0.1518
vn -0.6090 0.7881 0.0895
vn -0.6315 0.7736 0.0518
vn -0.6283 0.7765 0.0478
vn -0.1325 0.6220 0.7717
vn -0.6704 0.7293 -0.1368
vn -0.8046 0.5935 -0.0213
vn -0.7496 0.6570 -0.0795
vn -0.7477 0.6600 -0.0732
vn -0.7204 0.6870 -0.0946
vn 0.0385 0.7438 0.6673
vn -0.0189 0.7056 0.7084
vn -0.0535 0.6827 0.7287
vn -0.0579 0.6854 0.7259
vn 0.4592 0.7652 0.4512
vn -0.5596 0.8135 0.1583
vn -0.5765 0.7310 0.3650
vn -0.5772 0.7705 0.2706
vn -0.5713 0.7740 0.2730
vn -0.5664 0.7907 0.2325
vn 0.5098 0.8286 0.2313
vn 0.4971 0.8110 0.3085
vn 0.4863 0.7997 0.3520
vn 0.4813 0.8026 0.3523
vn -0.2890 0.7339 0.6147
vn -0.4154 0.7978 -0.4370
vn -0.6067 0.7010 -0.3749
vn -0.5227 0.7469 -0.4109
vn -0.5228 0.7503 -0.4045
vn -0.4848 0.7698 -0.4152
vn -0.0713 0.8128 0.5782
vn -0.1461 0.7897 0.5958
vn -0.1896 0.7754 0.6023
vn -0.1920 0.7783 0.5979
vn -0.0046 0.7931 0.6091
vn -0.4337 0.8256 -0.3609
vn -0.6071 0.7582 -0.2377
vn -0.5332 0.7908 -0.3004
vn -0.5310 0.7945 -0.2946
vn -0.4960 0.8082 -0.3175
vn 0.1996 0.8403 0.5040
vn 0.1315 0.8283 0.5446
vn 0.0906 0.8203 0.5647
vn 0.0873 0.8233 0.5609
vn -0.7787 0.5980 -0.1899
vn 0.1559 0.7182 -0.6781
vn 0.0518 0.5765 -0.8154
vn 0.1052 0.6428 -0.7588
vn 0.0986 0.6456 -0.7573
vn 0.1178 0.6738 -0.7295
vn -0.6874 0.7261 -0.0162
vn -0.7241 0.6857 -0.0748
vn -0.7418 0.6615 -0.1101
vn -0.7388 0.6641 -0.1144
vn -0.0600 0.3549 -0.9330
vn 0.7882 0.5265 -0.3187
vn 0.8438 0.3352 -0.4191
vn 0.8265 0.4236 -0.3707
vn 0.8229 0.4253 -0.3768
vn 0.8107 0.4632 -0.3580
vn -0.1558 0.5407 -0.8267
vn -0.1254 0.4794 -0.8686
vn -0.1054 0.4436 -0.8900
vn -0.0999 0.4455 -0.8897
vn -0.6523 0.3890 0.6506
vn -0.7326 0.5546 -0.3946
vn -0.8530 0.3684 -0.3696
vn -0.8014 0.4545 -0.3888
vn -0.8036 0.4564 -0.3821
vn -0.7798 0.4933 -0.3854
vn -0.5015 0.5685 0.6522
vn -0.5556 0.5095 0.6571
vn -0.5864 0.4750 0.6561
vn -0.5896 0.4770 0.6517
vt 0.293163 4.954233
vt 0.335707 5.102386
vt 0.256239 5.121584
vt 0.223221 4.968729
vt 0.175693 5.135822
vt 0.151320 4.980035
vt 0.094539 5.145764
vt 0.078096 4.988136
vt 0.013009 5.151849
vt 0.004029 4.993052
vt -0.584866 4.929314
vt -0.628081 5.079594
vt -0.705487 5.055523
vt -0.654285 4.908113
vt -0.781809 5.026679
vt -0.721407 4.883933
vt -0.856398 4.991970
vt -0.785538 4.857168
vt 0.360203 4.936266
vt 0.413236 5.077391
vt -0.294208 4.983969
vt -0.312405 5.141077
vt -0.392384 5.130301
vt -0.368125 4.974604
vt -0.471659 5.116520
vt -0.441375 4.962482
vt -0.550155 5.099669
vt -0.513767 4.947629
vt -0.241421 2.600050
vt -0.454062 4.662862
vt -0.515127 4.650397
vt -0.287054 2.595921
vt -0.195598 2.604594
vt -0.391993 4.673619
vt -0.150025 2.608824
vt -0.329131 4.682603
vt -0.104669 2.614618
vt -0.265684 4.689755
vt 0.291596 2.637558
vt 0.296685 4.672284
vt 0.237514 4.681082
vt 0.247348 2.636929
vt -0.377666 2.588654
vt -0.633482 4.620934
vt -0.690571 4.604454
vt -0.422271 2.585449
vt -0.332488 2.592063
vt -0.574999 4.636364
vt 0.115928 2.632380
vt 0.053039 4.697609
vt -0.010181 4.699712
vt 0.072286 2.630153
vt 0.159513 2.634044
vt 0.115548 4.693747
vt 0.203420 2.635470
vt 0.177114 4.688206
vt -0.070491 4.994807
vt -0.073886 4.700003
vt -0.145156 4.994168
vt -0.137853 4.698458
vt 0.028491 2.627731
vt -0.219813 4.990525
vt -0.201855 4.695044
vt -0.015437 2.624221
vt -0.059929 2.619581
vt -0.231749 5.148830
vt -0.150513 5.153232
vt -0.068815 5.154324
vt 1.104587 -4.154323
vt 1.123525 -4.154323
vt 1.123525 -4.135385
vt 1.104587 -4.135385
vt 0.262872 -2.691121
vt 0.021697 1.325903
vt -0.059621 1.320553
vt 0.227556 -2.693887
vt 0.348980 -4.153643
vt 0.369727 -4.151359
vt 0.267777 1.360989
vt 0.186338 1.351366
vt 0.332625 -2.685394
vt 0.367538 -2.682805
vt -0.218992 1.312943
vt -0.139579 1.316848
vt -0.298631 1.307354
vt 0.297854 -2.689647
vt 0.120471 -2.705412
vt 0.155733 -2.700286
vt 0.191549 -2.695756
vt 0.391185 -4.148102
vt 0.104144 1.337590
vt 0.402582 -2.679829
vt 0.413236 -4.148011
vt 0.349201 1.364312
vt 0.327761 -4.154325
vt 0.000000 0.800000
vt 0.542651 0.800000
vt 0.549868 1.000000
vt 0.000000 1.000000
vt 0.521000 0.200000
vt 0.513783 0.000000
vt 1.000000 0.000000
vt 1.000000 0.200000
vt 1.000000 0.800000
vt 1.000000 1.000000
vt 0.535434 0.600000
vt 1.000000 0.600000
vt 0.528217 0.400000
vt 1.000000 0.400000
vt 0.000000 0.000000
vt 0.000000 0.200000
vt 0.000000 0.400000
vt 0.000000 0.600000
s 1
usemtl pine_bark_2
f 53/1/1 12/2/2 7/3/3 46/4/4
f 46/4/4 7/3/3 6/5/5 47/6/6
f 47/6/6 6/5/5 5/7/7 48/8/8
f 48/8/8 5/7/7 4/9/9 49/10/10
f 44/11/11 13/12/12 16/13/13 50/14/14
f 50/14/14 16/13/13 15/15/15 51/16/16
f 51/16/16 15/15/15 14/17/17 52/18/18
f 52/19/18 14/20/17 12/2/2 53/1/1
f 45/21/19 8/22/20 11/23/21 54/24/22
f 54/24/22 11/23/21 10/25/23 55/26/24
f 55/26/24 10/25/23 9/27/25 56/28/26
f 56/28/26 9/27/25 13/12/12 44/11/11
f 40/29/27 39/30/28 29/31/29 28/32/30
f 82/33/31 38/34/32 39/30/28 40/29/27
f 79/35/33 37/36/34 38/34/32 82/33/31
f 78/37/35 36/38/36 37/36/34 79/35/33
f 34/39/37 33/40/38 35/41/39 77/42/40
f 74/43/41 32/44/42 33/45/38 34/46/37
f 31/47/43 30/48/44 32/44/42 74/43/41
f 28/32/30 29/31/29 30/48/44 31/47/43
f 69/49/45 25/50/46 26/51/47 27/52/48
f 24/53/49 23/54/50 25/50/46 69/49/45
f 22/55/51 21/56/52 23/54/50 24/53/49
f 43/57/53 20/58/54 26/51/47 49/10/10
f 77/42/40 35/41/39 21/56/52 22/55/51
f 42/59/55 19/60/56 20/58/54 43/57/53
f 20/58/54 66/61/57 27/52/48 26/51/47
f 41/62/58 18/63/59 19/60/56 42/59/55
f 19/60/56 63/64/60 66/61/57 20/58/54
f 45/21/19 36/38/36 18/63/59 41/62/58
f 18/63/59 17/65/61 63/64/60 19/60/56
f 8/22/20 45/21/19 41/62/58 1/66/62
f 1/66/62 41/62/58 42/59/55 2/67/63
f 2/67/63 42/59/55 43/57/53 3/68/64
f 3/68/64 43/57/53 49/10/10 4/9/9
f 39/30/28 56/28/26 44/11/11 29/31/29
f 38/34/32 55/26/24 56/28/26 39/30/28
f 37/36/34 54/24/22 55/26/24 38/34/32
f 36/38/36 45/21/19 54/24/22 37/36/34
f 33/40/38 52/19/18 53/1/1 35/41/39
f 32/44/42 51/16/16 52/18/18 33/45/38
f 30/48/44 50/14/14 51/16/16 32/44/42
f 29/31/29 44/11/11 50/14/14 30/48/44
f 25/50/46 48/8/8 49/10/10 26/51/47
f 23/54/50 47/6/6 48/8/8 25/50/46
f 21/56/52 46/4/4 47/6/6 23/54/50
f 35/41/39 53/1/1 46/4/4 21/56/52
f 60/69/65 58/70/65 57/71/65 59/72/65
f 36/38/36 78/37/35 17/65/61 18/63/59
f 61/73/66 62/74/67 80/75/68 81/76/69
f 59/77/70 57/78/71 81/76/69
f 67/79/72 70/80/73 71/81/74 68/82/75
f 28/32/30 72/83/76 83/84/77
f 72/83/76 74/43/41 75/85/78
f 57/78/71 64/86/79 61/73/66
f 72/83/76 75/85/78 76/87/80 73/88/81
f 80/75/68 83/84/77 84/89/82 81/76/69
f 62/74/67 78/37/35 80/75/68
f 80/75/68 82/33/31 83/84/77
f 64/86/79 57/78/71 58/90/83
f 65/91/84 64/86/79 71/81/74 70/80/73
f 76/92/80 68/82/75 60/93/85
f 77/42/40 67/79/72 75/94/78
f 83/84/77 72/83/76 73/88/81 84/89/82
f 84/89/82 73/88/81 59/77/70
f 64/86/79 65/91/84 62/74/67 61/73/66
f 27/52/48 65/91/84 70/80/73
f 75/94/78 67/79/72 68/82/75 76/92/80
f 66/61/57 65/91/84 27/52/48
f 63/64/60 65/91/84 66/61/57
f 65/91/84 63/64/60 62/74/67
f 17/65/61 62/74/67 63/64/60
f 78/37/35 62/74/67 17/65/61
f 80/75/68 78/37/35 79/35/33
f 82/33/31 80/75/68 79/35/33
f 83/84/77 82/33/31 40/29/27
f 28/32/30 83/84/77 40/29/27
f 72/83/76 28/32/30 31/47/43
f 74/43/41 72/83/76 31/47/43
f 75/85/78 74/43/41 34/46/37
f 77/42/40 75/94/78 34/39/37
f 67/79/72 77/42/40 22/55/51
f 70/80/73 24/53/49 69/49/45
f 24/53/49 67/79/72 22/55/51
f 27/52/48 70/80/73 69/49/45
f 67/79/72 24/53/49 70/80/73
f 59/77/70 73/88/81 60/95/85
f 59/77/70 81/76/69 84/89/82
f 57/78/71 61/73/66 81/76/69
f 60/95/85 73/88/81 76/87/80
f 58/90/83 68/82/75 71/81/74
f 64/86/79 58/90/83 71/81/74
f 60/93/85 68/82/75 58/90/83
usemtl pine_branch_3
f 91/96/86 99/97/86 89/98/86 87/99/86
f 102/100/87 90/101/87 86/102/87 95/103/87
f 89/98/88 99/97/88 98/104/88 88/105/88
f 99/97/89 100/106/89 97/107/89 98/104/89
f 100/106/90 101/108/90 96/109/90 97/107/90
f 101/108/91 102/100/91 95/103/91 96/109/91
f 85/110/92 90/101/92 102/100/92 94/111/92
f 94/111/93 102/100/93 101/108/93 93/112/93
f 93/112/94 101/108/94 100/106/94 92/113/94
f 92/113/95 100/106/95 99/97/95 91/96/95
f 109/96/96 117/97/96 107/98/96 105/99/96
f 120/100/97 108/101/97 104/102/97 113/103/97
f 107/98/98 117/97/98 116/104/98 106/105/98
f 117/97/99 118/106/99 115/107/99 116/104/99
f 118/106/100 119/108/100 114/109/100 115/107/100
f 119/108/101 120/100/101 113/103/101 114/109/101
f 103/110/102 108/101/102 120/100/102 112/111/102
f 112/111/103 120/100/103 119/108/103 111/112/103
f 111/112/104 119/108/104 118/106/104 110/113/104
f 110/113/105 118/106/105 117/97/105 109/96/105
f 127/96/106 135/97/106 125/98/106 123/99/106
f 138/100/107 126/101/107 122/102/107 131/103/107
f 125/98/108 135/97/108 134/104/108 124/105/108
f 135/97/109 136/106/109 133/107/109 134/104/109
f 136/106/110 137/108/110 132/109/110 133/107/110
f 137/108/111 138/100/111 131/103/111 132/109/111
f 121/110/112 126/101/112 138/100/112 130/111/112
f 130/111/113 138/100/113 137/108/113 129/112/113
f 129/112/114 137/108/114 136/106/114 128/113/114
f 128/113/115 136/106/115 135/97/115 127/96/115
f 145/96/116 153/97/116 143/98/116 141/99/116
f 156/100/117 144/101/117 140/102/117 149/103/117
f 143/98/118 153/97/118 152/104/118 142/105/118
f 153/97/119 154/106/119 151/107/119 152/104/119
f 154/106/120 155/108/120 150/109/120 151/107/120
f 155/108/121 156/100/121 149/103/121 150/109/121
f 139/110/122 144/101/122 156/100/122 148/111/122
f 148/111/123 156/100/123 155/108/123 147/112/123
f 147/112/124 155/108/124 154/106/124 146/113/124
f 146/113/125 154/106/125 153/97/125 145/96/125
f 163/96/116 171/97/116 161/98/116 159/99/116
f 174/100/117 162/101/117 158/102/117 167/103/117
f 161/98/118 171/97/118 170/104/118 160/105/118
f 171/97/119 172/106/119 169/107/119 170/104/119
f 172/106/120 173/108/120 168/109/120 169/107/120
f 173/108/121 174/100/121 167/103/121 168/109/121
f 157/110/122 162/101/122 174/100/122 166/111/122
f 166/111/123 174/100/123 173/108/123 165/112/123
f 165/112/124 173/108/124 172/106/124 164/113/124
f 164/113/125 172/106/125 171/97/125 163/96/125
f 181/96/126 189/97/126 179/98/126 177/99/126
f 192/100/127 180/101/127 176/102/127 185/103/127
f 179/98/128 189/97/128 188/104/128 178/105/128
f 189/97/129 190/106/129 187/107/129 188/104/129
f 190/106/130 191/108/130 186/109/130 187/107/130
f 191/108/131 192/100/131 185/103/131 186/109/131
f 175/110/132 180/101/132 192/100/132 184/111/132
f 184/111/133 192/100/133 191/108/133 183/112/133
f 183/112/134 191/108/134 190/106/134 182/113/134
f 182/113/135 190/106/135 189/97/135 181/96/135
f 199/96/136 207/97/136 197/98/136 195/99/136
f 210/100/137 198/101/137 194/102/137 203/103/137
f 197/98/138 207/97/138 206/104/138 196/105/138
f 207/97/139 208/106/139 205/107/139 206/104/139
f 208/106/140 209/108/140 204/109/140 205/107/140
f 209/108/141 210/100/141 203/103/141 204/109/141
f 193/110/142 198/101/142 210/100/142 202/111/142
f 202/111/143 210/100/143 209/108/143 201/112/143
f 201/112/144 209/108/144 208/106/144 200/113/144
f 200/113/145 208/106/145 207/97/145 199/96/145
f 217/96/146 225/97/146 215/98/146 213/99/146
f 228/100/147 216/101/147 212/102/147 221/103/147
f 215/98/148 225/97/148 224/104/148 214/105/148
f 225/97/149 226/106/149 223/107/149 224/104/149
f 226/106/150 227/108/150 222/109/150 223/107/150
f 227/108/151 228/100/151 221/103/151 222/109/151
f 211/110/152 216/101/152 228/100/152 220/111/152
f 220/111/153 228/100/153 227/108/153 219/112/153
f 219/112/154 227/108/154 226/106/154 218/113/154
f 218/113/155 226/106/155 225/97/155 217/96/155
f 235/96/156 243/97/156 233/98/156 231/99/156
f 246/100/157 234/101/157 230/102/157 239/103/157
f 233/98/158 243/97/158 242/104/158 232/105/158
f 243/97/159 244/106/159 241/107/159 242/104/159
f 244/106/160 245/108/160 240/109/160 241/107/160
f 245/108/161 246/100/161 239/103/161 240/109/161
f 229/110/162 234/101/162 246/100/162 238/111/162
f 238/111/163 246/100/163 245/108/163 237/112/163
f 237/112/164 245/108/164 244/106/164 236/113/164
f 236/113/165 244/106/165 243/97/165 235/96/165
f 253/96/166 261/97/166 251/98/166 249/99/166
f 264/100/167 252/101/167 248/102/167 257/103/167
f 251/98/168 261/97/168 260/104/168 250/105/168
f 261/97/169 262/106/169 259/107/169 260/104/169
f 262/106/170 263/108/170 258/109/170 259/107/170
f 263/108/171 264/100/171 257/103/171 258/109/171
f 247/110/172 252/101/172 264/100/172 256/111/172
f 256/111/173 264/100/173 263/108/173 255/112/173
f 255/112/174 263/108/174 262/106/174 254/113/174
f 254/113/175 262/106/175 261/97/175 253/96/175
f 271/96/156 279/97/156 269/98/156 267/99/156
f 282/100/157 270/101/157 266/102/157 275/103/157
f 269/98/158 279/97/158 278/104/158 268/105/158
f 279/97/159 280/106/159 277/107/159 278/104/159
f 280/106/160 281/108/160 276/109/160 277/107/160
f 281/108/161 282/100/161 275/103/161 276/109/161
f 265/110/162 270/101/162 282/100/162 274/111/162
f 274/111/163 282/100/163 281/108/163 273/112/163
f 273/112/164 281/108/164 280/106/164 272/113/164
f 272/113/165 280/106/165 279/97/165 271/96/165
f 289/96/176 297/97/176 287/98/176 285/99/176
f 300/100/177 288/101/177 284/102/177 293/103/177
f 287/98/178 297/97/178 296/104/178 286/105/178
f 297/97/179 298/106/179 295/107/179 296/104/179
f 298/106/180 299/108/180 294/109/180 295/107/180
f 299/108/181 300/100/181 293/103/181 294/109/181
f 283/110/182 288/101/182 300/100/182 292/111/182
f 292/111/183 300/100/183 299/108/183 291/112/183
f 291/112/184 299/108/184 298/106/184 290/113/184
f 290/113/185 298/106/185 297/97/185 289/96/185
f 307/96/186 315/97/186 305/98/186 303/99/186
f 318/100/187 306/101/187 302/102/187 311/103/187
f 305/98/188 315/97/188 314/104/188 304/105/188
f 315/97/189 316/106/189 313/107/189 314/104/189
f 316/106/190 317/108/190 312/109/190 313/107/190
f 317/108/191 318/100/191 311/103/191 312/109/191
f 301/110/192 306/101/192 318/100/192 310/111/192
f 310/111/193 318/100/193 317/108/193 309/112/193
f 309/112/194 317/108/194 316/106/194 308/113/194
f 308/113/195 316/106/195 315/97/195 307/96/195
f 325/96/196 333/97/196 323/98/196 321/99/196
f 336/100/197 324/101/197 320/102/197 329/103/197
f 323/98/198 333/97/198 332/104/198 322/105/198
f 333/97/199 334/106/199 331/107/199 332/104/199
f 334/106/200 335/108/200 330/109/200 331/107/200
f 335/108/201 336/100/201 329/103/201 330/109/201
f 319/110/202 324/101/202 336/100/202 328/111/202
f 328/111/203 336/100/203 335/108/203 327/112/203
f 327/112/204 335/108/204 334/106/204 326/113/204
f 326/113/205 334/106/205 333/97/205 325/96/205
f 343/96/206 351/97/206 341/98/206 339/99/206
f 354/100/207 342/101/207 338/102/207 347/103/207
f 341/98/208 351/97/208 350/104/208 340/105/208
f 351/97/209 352/106/209 349/107/209 350/104/209
f 352/106/210 353/108/210 348/109/210 349/107/210
f 353/108/211 354/100/211 347/103/211 348/109/211
f 337/110/212 342/101/212 354/100/212 346/111/212
f 346/111/213 354/100/213 353/108/213 345/112/213
f 345/112/214 353/108/214 352/106/214 344/113/214
f 344/113/215 352/106/215 351/97/215 343/96/215
f 361/96/216 369/97/216 359/98/216 357/99/216
f 372/100/217 360/101/217 356/102/217 365/103/217
f 359/98/218 369/97/218 368/104/218 358/105/218
f 369/97/219 370/106/219 367/107/219 368/104/219
f 370/106/220 371/108/220 366/109/220 367/107/220
f 371/108/221 372/100/221 365/103/221 366/109/221
f 355/110/222 360/101/222 372/100/222 364/111/222
f 364/111/223 372/100/223 371/108/223 363/112/223
f 363/112/224 371/108/224 370/106/224 362/113/224
f 362/113/225 370/106/225 369/97/225 361/96/225
f 379/96/216 387/97/216 377/98/216 375/99/216
f 390/100/217 378/101/217 374/102/217 383/103/217
f 377/98/218 387/97/218 386/104/218 376/105/218
f 387/97/219 388/106/219 385/107/219 386/104/219
f 388/106/220 389/108/220 384/109/220 385/107/220
f 389/108/221 390/100/221 383/103/221 384/109/221
f 373/110/222 378/101/222 390/100/222 382/111/222
f 382/111/223 390/100/223 389/108/223 381/112/223
f 381/112/224 389/108/224 388/106/224 380/113/224
f 380/113/225 388/106/225 387/97/225 379/96/225
f 397/96/226 405/97/226 395/98/226 393/99/226
f 408/100/227 396/101/227 392/102/227 401/103/227
f 395/98/228 405/97/228 404/104/228 394/105/228
f 405/97/229 406/106/229 403/107/229 404/104/229
f 406/106/230 407/108/230 402/109/230 403/107/230
f 407/108/231 408/100/231 401/103/231 402/109/231
f 391/110/232 396/101/232 408/100/232 400/111/232
f 400/111/233 408/100/233 407/108/233 399/112/233
f 399/112/234 407/108/234 406/106/234 398/113/234
f 398/113/235 406/106/235 405/97/235 397/96/235
f 415/96/236 423/97/236 413/98/236 411/99/236
f 426/100/237 414/101/237 410/102/237 419/103/237
f 413/98/238 423/97/238 422/104/238 412/105/238
f 423/97/239 424/106/239 421/107/239 422/104/239
f 424/106/240 425/108/240 420/109/240 421/107/240
f 425/108/241 426/100/241 419/103/241 420/109/241
f 409/110/242 414/101/242 426/100/242 418/111/242
f 418/111/243 426/100/243 425/108/243 417/112/243
f 417/112/244 425/108/244 424/106/244 416/113/244
f 416/113/245 424/106/245 423/97/245 415/96/245
f 433/96/236 441/97/236 431/98/236 429/99/236
f 444/100/237 432/101/237 428/102/237 437/103/237
f 431/98/238 441/97/238 440/104/238 430/105/238
f 441/97/239 442/106/239 439/107/239 440/104/239
f 442/106/240 443/108/240 438/109/240 439/107/240
f 443/108/241 444/100/241 437/103/241 438/109/241
f 427/110/242 432/101/242 444/100/242 436/111/242
f 436/111/243 444/100/243 443/108/243 435/112/243
f 435/112/244 443/108/244 442/106/244 434/113/244
f 434/113/245 442/106/245 441/97/245 433/96/245
f 451/96/246 459/97/246 449/98/246 447/99/246
f 462/100/247 450/101/247 446/102/247 455/103/247
f 449/98/248 459/97/248 458/104/248 448/105/248
f 459/97/249 460/106/249 457/107/249 458/104/249
f 460/106/250 461/108/250 456/109/250 457/107/250
f 461/108/251 462/100/251 455/103/251 456/109/251
f 445/110/252 450/101/252 462/100/252 454/111/252
f 454/111/253 462/100/253 461/108/253 453/112/253
f 453/112/254 461/108/254 460/106/254 452/113/254
f 452/113/255 460/106/255 459/97/255 451/96/255
f 469/96/256 477/97/256 467/98/256 465/99/256
f 480/100/257 468/101/257 464/102/257 473/103/257
f 467/98/258 477/97/258 476/104/258 466/105/258
f 477/97/259 478/106/259 475/107/259 476/104/259
f 478/106/260 479/108/260 474/109/260 475/107/260
f 479/108/261 480/100/261 473/103/261 474/109/261
f 463/110/262 468/101/262 480/100/262 472/111/262
f 472/111/263 480/100/263 479/108/263 471/112/263
f 471/112/264 479/108/264 478/106/264 470/113/264
f 470/113/265 478/106/265 477/97/265 469/96/265
f 487/96/266 495/97/266 485/98/266 483/99/266
f 498/100/267 486/101/267 482/102/267 491/103/267
f 485/98/268 495/97/268 494/104/268 484/105/268
f 495/97/269 496/106/269 493/107/269 494/104/269
f 496/106/270 497/108/270 492/109/270 493/107/270
f 497/108/271 498/100/271 491/103/271 492/109/271
f 481/110/272 486/101/272 498/100/272 490/111/272
f 490/111/273 498/100/273 497/108/273 489/112/273
f 489/112/274 497/108/274 496/106/274 488/113/274
f 488/113/275 496/106/275 495/97/275 487/96/275
f 505/96/276 513/97/276 503/98/276 501/99/276
f 516/100/277 504/101/277 500/102/277 509/103/277
f 503/98/278 513/97/278 512/104/278 502/105/278
f 513/97/279 514/106/279 511/107/279 512/104/279
f 514/106/280 515/108/280 510/109/280 511/107/280
f 515/108/281 516/100/281 509/103/281 510/109/281
f 499/110/282 504/101/282 516/100/282 508/111/282
f 508/111/283 516/100/283 515/108/283 507/112/283
f 507/112/284 515/108/284 514/106/284 506/113/284
f 506/113/285 514/106/285 513/97/285 505/96/285
f 523/96/276 531/97/276 521/98/276 519/99/276
f 534/100/277 522/101/277 518/102/277 527/103/277
f 521/98/278 531/97/278 530/104/278 520/105/278
f 531/97/279 532/106/279 529/107/279 530/104/279
f 532/106/280 533/108/280 528/109/280 529/107/280
f 533/108/281 534/100/281 527/103/281 528/109/281
f 517/110/282 522/101/282 534/100/282 526/111/282
f 526/111/283 534/100/283 533/108/283 525/112/283
f 525/112/284 533/108/284 532/106/284 524/113/284
f 524/113/285 532/106/285 531/97/285 523/96/285
f 541/96/286 549/97/286 539/98/286 537/99/286
f 552/100/287 540/101/287 536/102/287 545/103/287
f 539/98/288 549/97/288 548/104/288 538/105/288
f 549/97/289 550/106/289 547/107/289 548/104/289
f 550/106/290 551/108/290 546/109/290 547/107/290
f 551/108/291 552/100/291 545/103/291 546/109/291
f 535/110/292 540/101/292 552/100/292 544/111/292
f 544/111/293 552/100/293 551/108/293 543/112/293
f 543/112/294 551/108/294 550/106/294 542/113/294
f 542/113/295 550/106/295 549/97/295 541/96/295
f 559/96/296 567/97/296 557/98/296 555/99/296
f 570/100/297 558/101/297 554/102/297 563/103/297
f 557/98/298 567/97/298 566/104/298 556/105/298
f 567/97/299 568/106/299 565/107/299 566/104/299
f 568/106/300 569/108/300 564/109/300 565/107/300
f 569/108/301 570/100/301 563/103/301 564/109/301
f 553/110/302 558/101/302 570/100/302 562/111/302
f 562/111/303 570/100/303 569/108/303 561/112/303
f 561/112/304 569/108/304 568/106/304 560/113/304
f 560/113/305 568/106/305 567/97/305 559/96/305
f 577/96/306 585/97/306 575/98/306 573/99/306
f 588/100/307 576/101/307 572/102/307 581/103/307
f 575/98/308 585/97/308 584/104/308 574/105/308
f 585/97/309 586/106/309 583/107/309 584/104/309
f 586/106/310 587/108/310 582/109/310 583/107/310
f 587/108/311 588/100/311 581/103/311 582/109/311
f 571/110/312 576/101/312 588/100/312 580/111/312
f 580/111/313 588/100/313 587/108/313 579/112/313
f 579/112/314 587/108/314 586/106/314 578/113/314
f 578/113/315 586/106/315 585/97/315 577/96/315
f 595/96/316 603/97/316 593/98/316 591/99/316
f 606/100/317 594/101/317 590/102/317 599/103/317
f 593/98/318 603/97/318 602/104/318 592/105/318
f 603/97/319 604/106/319 601/107/319 602/104/319
f 604/106/320 605/108/320 600/109/320 601/107/320
f 605/108/321 606/100/321 599/103/321 600/109/321
f 589/110/322 594/101/322 606/100/322 598/111/322
f 598/111/323 606/100/323 605/108/323 597/112/323
f 597/112/324 605/108/324 604/106/324 596/113/324
f 596/113/325 604/106/325 603/97/325 595/96/325
f 613/96/306 621/97/306 611/98/306 609/99/306
f 624/100/307 612/101/307 608/102/307 617/103/307
f 611/98/308 621/97/308 620/104/308 610/105/308
f 621/97/309 622/106/309 619/107/309 620/104/309
f 622/106/326 623/108/326 618/109/326 619/107/326
f 623/108/311 624/100/311 617/103/311 618/109/311
f 607/110/312 612/101/312 624/100/312 616/111/312
f 616/111/313 624/100/313 623/108/313 615/112/313
f 615/112/314 623/108/314 622/106/314 614/113/314
f 614/113/315 622/106/315 621/97/315 613/96/315
f 631/96/327 639/97/327 629/98/327 627/99/327
f 642/100/328 630/101/328 626/102/328 635/103/328
f 629/98/329 639/97/329 638/104/329 628/105/329
f 639/97/330 640/106/330 637/107/330 638/104/330
f 640/106/331 641/108/331 636/109/331 637/107/331
f 641/108/332 642/100/332 635/103/332 636/109/332
f 625/110/333 630/101/333 642/100/333 634/111/333
f 634/111/334 642/100/334 641/108/334 633/112/334
f 633/112/335 641/108/335 640/106/335 632/113/335
f 632/113/336 640/106/336 639/97/336 631/96/336
f 649/96/337 657/97/337 647/98/337 645/99/337
f 660/100/338 648/101/338 644/102/338 653/103/338
f 647/98/339 657/97/339 656/104/339 646/105/339
f 657/97/340 658/106/340 655/107/340 656/104/340
f 658/106/341 659/108/341 654/109/341 655/107/341
f 659/108/342 660/100/342 653/103/342 654/109/342
f 643/110/343 648/101/343 660/100/343 652/111/343
f 652/111/344 660/100/344 659/108/344 651/112/344
f 651/112/345 659/108/345 658/106/345 650/113/345
f 650/113/346 658/106/346 657/97/346 649/96/346
f 667/96/347 675/97/347 665/98/347 663/99/347
f 678/100/348 666/101/348 662/102/348 671/103/348
f 665/98/349 675/97/349 674/104/349 664/105/349
f 675/97/350 676/106/350 673/107/350 674/104/350
f 676/106/351 677/108/351 672/109/351 673/107/351
f 677/108/352 678/100/352 671/103/352 672/109/352
f 661/110/353 666/101/353 678/100/353 670/111/353
f 670/111/354 678/100/354 677/108/354 669/112/354
f 669/112/355 677/108/355 676/106/355 668/113/355
f 668/113/356 676/106/356 675/97/356 667/96/356
f 685/96/357 693/97/357 683/98/357 681/99/357
f 696/100/358 684/101/358 680/102/358 689/103/358
f 683/98/359 693/97/359 692/104/359 682/105/359
f 693/97/360 694/106/360 691/107/360 692/104/360
f 694/106/361 695/108/361 690/109/361 691/107/361
f 695/108/362 696/100/362 689/103/362 690/109/362
f 679/110/363 684/101/363 696/100/363 688/111/363
f 688/111/364 696/100/364 695/108/364 687/112/364
f 687/112/365 695/108/365 694/106/365 686/113/365
f 686/113/366 694/106/366 693/97/366 685/96/366
f 703/96/367 711/97/367 701/98/367 699/99/367
f 714/100/368 702/101/368 698/102/368 707/103/368
f 701/98/369 711/97/369 710/104/369 700/105/369
f 711/97/370 712/106/370 709/107/370 710/104/370
f 712/106/371 713/108/371 708/109/371 709/107/371
f 713/108/372 714/100/372 707/103/372 708/109/372
f 697/110/373 702/101/373 714/100/373 706/111/373
f 706/111/374 714/100/374 713/108/374 705/112/374
f 705/112/375 713/108/375 712/106/375 704/113/375
f 704/113/376 712/106/376 711/97/376 703/96/376
f 721/96/377 729/97/377 719/98/377 717/99/377
f 732/100/378 720/101/378 716/102/378 725/103/378
f 719/98/379 729/97/379 728/104/379 718/105/379
f 729/97/380 730/106/380 727/107/380 728/104/380
f 730/106/381 731/108/381 726/109/381 727/107/381
f 731/108/382 732/100/382 725/103/382 726/109/382
f 715/110/383 720/101/383 732/100/383 724/111/383
f 724/111/384 732/100/384 731/108/384 723/112/384
f 723/112/385 731/108/385 730/106/385 722/113/385
f 722/113/386 730/106/386 729/97/386 721/96/386
f 739/96/387 747/97/387 737/98/387 735/99/387
f 750/100/388 738/101/388 734/102/388 743/103/388
f 737/98/389 747/97/389 746/104/389 736/105/389
f 747/97/390 748/106/390 745/107/390 746/104/390
f 748/106/391 749/108/391 744/109/391 745/107/391
f 749/108/392 750/100/392 743/103/392 744/109/392
f 733/110/393 738/101/393 750/100/393 742/111/393
f 742/111/394 750/100/394 749/108/394 741/112/394
f 741/112/395 749/108/395 748/106/395 740/113/395
f 740/113/396 748/106/396 747/97/396 739/96/396
f 757/96/397 765/97/397 755/98/397 753/99/397
f 768/100/398 756/101/398 752/102/398 761/103/398
f 755/98/399 765/97/399 764/104/399 754/105/399
f 765/97/400 766/106/400 763/107/400 764/104/400
f 766/106/401 767/108/401 762/109/401 763/107/401
f 767/108/402 768/100/402 761/103/402 762/109/402
f 751/110/403 756/101/403 768/100/403 760/111/403
f 760/111/404 768/100/404 767/108/404 759/112/404
f 759/112/405 767/108/405 766/106/405 758/113/405
f 758/113/406 766/106/406 765/97/406 757/96/406
f 775/96/407 783/97/407 773/98/407 771/99/407
f 786/100/408 774/101/408 770/102/408 779/103/408
f 773/98/409 783/97/409 782/104/409 772/105/409
f 783/97/410 784/106/410 781/107/410 782/104/410
f 784/106/411 785/108/411 780/109/411 781/107/411
f 785/108/412 786/100/412 779/103/412 780/109/412
f 769/110/413 774/101/413 786/100/413 778/111/413
f 778/111/414 786/100/414 785/108/414 777/112/414
f 777/112/415 785/108/415 784/106/415 776/113/415
f 776/113/416 784/106/416 783/97/416 775/96/416
f 793/96/417 801/97/417 791/98/417 789/99/417
f 804/100/418 792/101/418 788/102/418 797/103/418
f 791/98/419 801/97/419 800/104/419 790/105/419
f 801/97/420 802/106/420 799/107/420 800/104/420
f 802/106/421 803/108/421 798/109/421 799/107/421
f 803/108/422 804/100/422 797/103/422 798/109/422
f 787/110/423 792/101/423 804/100/423 796/111/423
f 796/111/424 804/100/424 803/108/424 795/112/424
f 795/112/425 803/108/425 802/106/425 794/113/425
f 794/113/426 802/106/426 801/97/426 793/96/426
f 811/96/427 819/97/427 809/98/427 807/99/427
f 822/100/428 810/101/428 806/102/428 815/103/428
f 809/98/429 819/97/429 818/104/429 808/105/429
f 819/97/430 820/106/430 817/107/430 818/104/430
f 820/106/431 821/108/431 816/109/431 817/107/431
f 821/108/432 822/100/432 815/103/432 816/109/432
f 805/110/433 810/101/433 822/100/433 814/111/433
f 814/111/434 822/100/434 821/108/434 813/112/434
f 813/112/435 821/108/435 820/106/435 812/113/435
f 812/113/436 820/106/436 819/97/436 811/96/436
f 829/96/437 837/97/437 827/98/437 825/99/437
f 840/100/438 828/101/438 824/102/438 833/103/438
f 827/98/439 837/97/439 836/104/439 826/105/439
f 837/97/440 838/106/440 835/107/440 836/104/440
f 838/106/441 839/108/441 834/109/441 835/107/441
f 839/108/442 840/100/442 833/103/442 834/109/442
f 823/110/443 828/101/443 840/100/443 832/111/443
f 832/111/444 840/100/444 839/108/444 831/112/444
f 831/112/445 839/108/445 838/106/445 830/113/445
f 830/113/446 838/106/446 837/97/446 829/96/446
f 847/96/447 855/97/447 845/98/447 843/99/447
f 858/100/448 846/101/448 842/102/448 851/103/448
f 845/98/449 855/97/449 854/104/449 844/105/449
f 855/97/450 856/106/450 853/107/450 854/104/450
f 856/106/451 857/108/451 852/109/451 853/107/451
f 857/108/452 858/100/452 851/103/452 852/109/452
f 841/110/453 846/101/453 858/100/453 850/111/453
f 850/111/454 858/100/454 857/108/454 849/112/454
f 849/112/455 857/108/455 856/106/455 848/113/455
f 848/113/456 856/106/456 855/97/456 847/96/456
f 865/96/457 873/97/457 863/98/457 861/99/457
f 876/100/458 864/101/458 860/102/458 869/103/458
f 863/98/459 873/97/459 872/104/459 862/105/459
f 873/97/460 874/106/460 871/107/460 872/104/460
f 874/106/461 875/108/461 870/109/461 871/107/461
f 875/108/462 876/100/462 869/103/462 870/109/462
f 859/110/463 864/101/463 876/100/463 868/111/463
f 868/111/464 876/100/464 875/108/464 867/112/464
f 867/112/465 875/108/465 874/106/465 866/113/465
f 866/113/466 874/106/466 873/97/466 865/96/466
f 883/96/467 891/97/467 881/98/467 879/99/467
f 894/100/468 882/101/468 878/102/468 887/103/468
f 881/98/469 891/97/469 890/104/469 880/105/469
f 891/97/470 892/106/470 889/107/470 890/104/470
f 892/106/471 893/108/471 888/109/471 889/107/471
f 893/108/472 894/100/472 887/103/472 888/109/472
f 877/110/473 882/101/473 894/100/473 886/111/473
f 886/111/474 894/100/474 893/108/474 885/112/474
f 885/112/475 893/108/475 892/106/475 884/113/475
f 884/113/476 892/106/476 891/97/476 883/96/476
f 901/96/477 909/97/477 899/98/477 897/99/477
f 912/100/478 900/101/478 896/102/478 905/103/478
f 899/98/479 909/97/479 908/104/479 898/105/479
f 909/97/480 910/106/480 907/107/480 908/104/480
f 910/106/481 911/108/481 906/109/481 907/107/481
f 911/108/482 912/100/482 905/103/482 906/109/482
f 895/110/483 900/101/483 912/100/483 904/111/483
f 904/111/484 912/100/484 911/108/484 903/112/484
f 903/112/485 911/108/485 910/106/485 902/113/485
f 902/113/486 910/106/486 909/97/486 901/96/486
f 919/96/487 927/97/487 917/98/487 915/99/487
f 930/100/488 918/101/488 914/102/488 923/103/488
f 917/98/489 927/97/489 926/104/489 916/105/489
f 927/97/490 928/106/490 925/107/490 926/104/490
f 928/106/491 929/108/491 924/109/491 925/107/491
f 929/108/492 930/100/492 923/103/492 924/109/492
f 913/110/493 918/101/493 930/100/493 922/111/493
f 922/111/494 930/100/494 929/108/494 921/112/494
f 921/112/495 929/108/495 928/106/495 920/113/495
f 920/113/496 928/106/496 927/97/496 919/96/496
f 937/96/497 945/97/497 935/98/497 933/99/497
f 948/100/498 936/101/498 932/102/498 941/103/498
f 935/98/499 945/97/499 944/104/499 934/105/499
f 945/97/500 946/106/500 943/107/500 944/104/500
f 946/106/501 947/108/501 942/109/501 943/107/501
f 947/108/502 948/100/502 941/103/502 942/109/502
f 931/110/503 936/101/503 948/100/503 940/111/503
f 940/111/504 948/100/504 947/108/504 939/112/504
f 939/112/505 947/108/505 946/106/505 938/113/505
f 938/113/506 946/106/506 945/97/506 937/96/506
f 955/96/507 963/97/507 953/98/507 951/99/507
f 966/100/508 954/101/508 950/102/508 959/103/508
f 953/98/509 963/97/509 962/104/509 952/105/509
f 963/97/510 964/106/510 961/107/510 962/104/510
f 964/106/511 965/108/511 960/109/511 961/107/511
f 965/108/512 966/100/512 959/103/512 960/109/512
f 949/110/513 954/101/513 966/100/513 958/111/513
f 958/111/514 966/100/514 965/108/514 957/112/514
f 957/112/515 965/108/515 964/106/515 956/113/515
f 956/113/516 964/106/516 963/97/516 955/96/516
f 973/96/517 981/97/517 971/98/517 969/99/517
f 984/100/518 972/101/518 968/102/518 977/103/518
f 971/98/519 981/97/519 980/104/519 970/105/519
f 981/97/520 982/106/520 979/107/520 980/104/520
f 982/106/521 983/108/521 978/109/521 979/107/521
f 983/108/522 984/100/522 977/103/522 978/109/522
f 967/110/523 972/101/523 984/100/523 976/111/523
f 976/111/524 984/100/524 983/108/524 975/112/524
f 975/112/525 983/108/525 982/106/525 974/113/525
f 974/113/526 982/106/526 981/97/526 973/96/526
f 991/96/527 999/97/527 989/98/527 987/99/527
f 1002/100/528 990/101/528 986/102/528 995/103/528
f 989/98/529 999/97/529 998/104/529 988/105/529
f 999/97/530 1000/106/530 997/107/530 998/104/530
f 1000/106/531 1001/108/531 996/109/531 997/107/531
f 1001/108/532 1002/100/532 995/103/532 996/109/532
f 985/110/533 990/101/533 1002/100/533 994/111/533
f 994/111/534 1002/100/534 1001/108/534 993/112/534
f 993/112/535 1001/108/535 1000/106/535 992/113/535
f 992/113/536 1000/106/536 999/97/536 991/96/536
f 1009/96/537 1017/97/537 1007/98/537 1005/99/537
f 1020/100/538 1008/101/538 1004/102/538 1013/103/538
f 1007/98/539 1017/97/539 1016/104/539 1006/105/539
f 1017/97/540 1018/106/540 1015/107/540 1016/104/540
f 1018/106/541 1019/108/541 1014/109/541 1015/107/541
f 1019/108/542 1020/100/542 1013/103/542 1014/109/542
f 1003/110/543 1008/101/543 1020/100/543 1012/111/543
f 1012/111/544 1020/100/544 1019/108/544 1011/112/544
f 1011/112/545 1019/108/545 1018/106/545 1010/113/545
f 1010/113/546 1018/106/546 1017/97/546 1009/96/546
f 1027/96/547 1035/97/547 1025/98/547 1023/99/547
f 1038/100/548 1026/101/548 1022/102/548 1031/103/548
f 1025/98/549 1035/97/549 1034/104/549 1024/105/549
f 1035/97/550 1036/106/550 1033/107/550 1034/104/550
f 1036/106/551 1037/108/551 1032/109/551 1033/107/551
f 1037/108/552 1038/100/552 1031/103/552 1032/109/552
f 1021/110/553 1026/101/553 1038/100/553 1030/111/553
f 1030/111/554 1038/100/554 1037/108/554 1029/112/554
f 1029/112/555 1037/108/555 1036/106/555 1028/113/555
f 1028/113/556 1036/106/556 1035/97/556 1027/96/556
f 1045/96/557 1053/97/557 1043/98/557 1041/99/557
f 1056/100/558 1044/101/558 1040/102/558 1049/103/558
f 1043/98/559 1053/97/559 1052/104/559 1042/105/559
f 1053/97/560 1054/106/560 1051/107/560 1052/104/560
f 1054/106/561 1055/108/561 1050/109/561 1051/107/561
f 1055/108/562 1056/100/562 1049/103/562 1050/109/562
f 1039/110/563 1044/101/563 1056/100/563 1048/111/563
f 1048/111/564 1056/100/564 1055/108/564 1047/112/564
f 1047/112/565 1055/108/565 1054/106/565 1046/113/565
f 1046/113/566 1054/106/566 1053/97/566 1045/96/566
f 1063/96/567 1071/97/567 1061/98/567 1059/99/567
f 1074/100/568 1062/101/568 1058/102/568 1067/103/568
f 1061/98/569 1071/97/569 1070/104/569 1060/105/569
f 1071/97/570 1072/106/570 1069/107/570 1070/104/570
f 1072/106/571 1073/108/571 1068/109/571 1069/107/571
f 1073/108/572 1074/100/572 1067/103/572 1068/109/572
f 1057/110/573 1062/101/573 1074/100/573 1066/111/573
f 1066/111/574 1074/100/574 1073/108/574 1065/112/574
f 1065/112/575 1073/108/575 1072/106/575 1064/113/575
f 1064/113/576 1072/106/576 1071/97/576 1063/96/576
