# Blender 5.0.1
# www.blender.org
mtllib pine_tree_n_2_1.mtl
o pine_tree_n_2_1
v -0.181055 -0.000000 0.178087
v -0.222214 -0.000000 0.095637
v -0.231772 -0.000000 -0.000526
v -0.214629 -0.000000 -0.093348
v -0.173394 -0.000000 -0.168700
v -0.103542 -0.000000 -0.243028
v -0.011224 0.000000 -0.262712
v -0.101859 -0.000000 0.229447
v 0.170229 0.000000 0.160365
v 0.092471 0.000000 0.213878
v 0.003320 -0.000000 0.241897
v 0.089503 0.000000 -0.224754
v 0.240194 0.000000 0.093616
v 0.168700 0.000000 -0.173394
v 0.222214 0.000000 -0.095637
v 0.257337 0.000000 0.000793
v -0.096247 2.600640 0.068668
v -0.115753 0.469455 0.118976
v -0.152472 0.469455 0.065622
v -0.165978 0.469455 0.002278
v -0.002276 0.469455 -0.165979
v -0.015726 2.600640 -0.133530
v -0.065621 0.469455 -0.152473
v -0.060674 2.600640 -0.123946
v -0.118974 0.469455 -0.115754
v -0.154215 0.469455 -0.061413
v -0.123539 2.600640 -0.059332
v 0.095319 2.600640 0.027823
v 0.154218 0.469455 0.061414
v 0.165981 0.469455 -0.002277
v 0.103665 2.600640 -0.017371
v 0.152475 0.469455 -0.065621
v 0.115756 0.469455 -0.118975
v 0.068027 2.600640 -0.100177
v 0.061415 0.469455 -0.154216
v -0.061412 0.469455 0.154217
v 0.002279 0.469455 0.165980
v 0.065623 0.469455 0.152474
v 0.118977 0.469455 0.115755
v 0.070312 2.600640 0.066382
v -0.138458 0.169269 0.142312
v -0.182379 0.169269 0.078493
v -0.198534 0.169269 0.002725
v 0.184466 0.169269 0.073459
v -0.073458 0.169269 0.184465
v -0.002724 0.169269 -0.198534
v -0.078492 0.169269 -0.182379
v -0.142311 0.169269 -0.138458
v -0.184464 0.169269 -0.073459
v 0.198535 0.169269 -0.002724
v 0.182380 0.169269 -0.078493
v 0.138460 0.169269 -0.142311
v 0.073460 0.169269 -0.184464
v 0.002725 0.169269 0.198535
v 0.078494 0.169269 0.182380
v 0.142313 0.169269 0.138459
v -0.009437 9.102241 0.009716
v -0.009700 9.102241 -0.009444
v 0.009722 9.102241 0.009453
v 0.009459 9.102241 -0.009707
v -0.040183 7.801920 0.008520
v -0.100882 3.900960 0.060009
v -0.122297 2.600640 0.030811
v -0.052998 7.801920 -0.021256
v -0.133397 3.900960 -0.015541
v -0.131881 2.600640 -0.014137
v -0.027418 3.900960 -0.124469
v -0.011230 7.801920 -0.064187
v -0.098528 2.600640 -0.097890
v -0.102967 3.900960 -0.091954
v -0.041005 7.801920 -0.051372
v 0.081511 3.900960 -0.018490
v 0.031701 7.801920 -0.022418
v 0.094086 2.600640 -0.062317
v 0.048996 3.900960 -0.094039
v 0.018886 7.801920 -0.052194
v 0.029472 2.600640 -0.125181
v -0.057683 2.600640 0.093676
v -0.012490 2.600640 0.102022
v -0.024468 3.900960 0.090439
v -0.010067 7.801920 0.020513
v 0.032458 2.600640 0.092439
v 0.051081 3.900960 0.057924
v 0.019708 7.801920 0.007698
v 0.365048 6.346417 0.175845
v -0.384696 6.346417 -0.122724
v -0.083250 6.132753 1.301577
v -0.832995 6.132754 1.003007
v -0.495598 6.388941 1.137623
v -0.020246 6.602604 0.022665
v 0.006398 6.210565 1.076461
v 0.096056 6.256680 0.851317
v 0.185715 6.302941 0.626174
v 0.275378 6.336079 0.401019
v -0.474367 6.336079 0.102450
v -0.564030 6.302941 0.327604
v -0.653689 6.256680 0.552748
v -0.743347 6.210565 0.777891
v -0.400539 6.466753 0.914661
v -0.305470 6.512867 0.691673
v -0.210401 6.559128 0.468684
v -0.115327 6.592266 0.245684
v 0.313008 7.017168 0.092069
v -0.324068 7.014439 -0.115833
v 0.008083 6.750093 1.029962
v -0.628994 6.747364 0.822060
v -0.349034 6.960454 0.933725
v -0.021119 7.227628 0.003334
v 0.068135 6.832518 0.844860
v 0.129031 6.888730 0.657520
v 0.189922 6.945063 0.470190
v 0.251162 6.990543 0.281934
v -0.385914 6.987814 0.074032
v -0.447154 6.942333 0.262288
v -0.508046 6.886000 0.449618
v -0.568941 6.829789 0.636958
v -0.284383 7.042898 0.750123
v -0.218890 7.099130 0.564283
v -0.153400 7.155482 0.378454
v -0.087563 7.200983 0.191698
v 0.111512 7.317425 -0.343075
v -0.132874 7.316503 0.280470
v 1.006384 6.972176 0.007142
v 0.761997 6.971254 0.630687
v 0.905641 7.181165 0.363503
v 0.019588 7.526447 -0.009215
v 0.832015 7.069912 -0.061054
v 0.653485 7.141727 -0.130919
v 0.474974 7.213662 -0.200776
v 0.294740 7.274865 -0.271325
v 0.050353 7.273944 0.352220
v 0.230588 7.212741 0.422769
v 0.409099 7.140806 0.492626
v 0.587629 7.068991 0.562492
v 0.733036 7.278907 0.290807
v 0.556270 7.350729 0.216441
v 0.379522 7.422671 0.142084
v 0.201052 7.483881 0.067035
v 0.192092 4.840207 -0.383617
v -0.115698 4.840208 0.389283
v 1.355836 4.640760 0.079817
v 1.048046 4.640760 0.852718
v 1.182736 4.904827 0.503274
v 0.030099 5.104275 0.011950
v 1.122559 4.716807 -0.013080
v 0.889760 4.760184 -0.105787
v 0.656958 4.803710 -0.198495
v 0.424353 4.833709 -0.291124
v 0.116564 4.833709 0.481776
v 0.349168 4.803710 0.574405
v 0.581970 4.760184 0.667113
v 0.814769 4.716808 0.759820
v 0.951681 4.980875 0.404799
v 0.721102 5.024251 0.306514
v 0.490522 5.067777 0.208228
v 0.260139 5.097776 0.110021
v 0.238902 4.249135 -0.444347
v -0.113909 4.249135 0.441608
v 1.572869 4.020514 0.086874
v 1.220058 4.020514 0.972829
v 1.374450 4.323207 0.572272
v 0.053213 4.551828 0.009081
v 1.305471 4.107685 -0.019611
v 1.038619 4.157406 -0.125878
v 0.771764 4.207298 -0.232147
v 0.505136 4.241686 -0.338326
v 0.152325 4.241686 0.547629
v 0.418953 4.207299 0.653808
v 0.685808 4.157406 0.760076
v 0.952660 4.107685 0.866344
v 1.109597 4.410378 0.459393
v 0.845291 4.460099 0.346731
v 0.580983 4.509991 0.234069
v 0.316901 4.544379 0.121497
v 0.190520 3.383800 -0.433461
v -0.172827 3.383800 0.478949
v 1.509645 2.908384 0.091851
v 1.146299 2.908384 1.004261
v 1.352989 3.216677 0.610734
v 0.046974 3.692094 0.052498
v 1.251727 3.045681 -0.010860
v 0.988471 3.144834 -0.115695
v 0.725240 3.244163 -0.220521
v 0.459799 3.327700 -0.326227
v 0.096453 3.327700 0.586184
v 0.361894 3.244163 0.691889
v 0.625125 3.144834 0.796715
v 0.888381 3.045681 0.901551
v 1.097693 3.353974 0.501439
v 0.837059 3.453128 0.390018
v 0.576450 3.552457 0.278608
v 0.313632 3.635994 0.166317
v 0.340104 6.427743 -0.122430
v -0.334462 6.427743 0.167891
v 0.779124 6.284865 0.897639
v 0.104558 6.284865 1.187961
v 0.403996 6.517756 1.047503
v -0.010684 6.660634 0.016958
v 0.690744 6.345330 0.692287
v 0.602884 6.376981 0.488144
v 0.515022 6.408763 0.283995
v 0.427376 6.428616 0.080348
v -0.247190 6.428616 0.370669
v -0.159544 6.408763 0.574317
v -0.071682 6.376981 0.778466
v 0.016178 6.345330 0.982609
v 0.320484 6.578221 0.840056
v 0.237492 6.609871 0.633817
v 0.154499 6.641654 0.427574
v 0.071720 6.661508 0.221831
v 0.338059 5.548584 -0.139591
v -0.358941 5.548584 0.160382
v 0.781389 5.264288 0.890507
v 0.084388 5.264288 1.190479
v 0.405234 5.504505 1.071957
v -0.012944 5.788800 0.031035
v 0.693696 5.354039 0.686747
v 0.605124 5.414070 0.480946
v 0.516556 5.474237 0.275153
v 0.427624 5.522100 0.068516
v -0.269377 5.522100 0.368488
v -0.180445 5.474237 0.575126
v -0.091877 5.414070 0.780918
v -0.003305 5.354039 0.986720
v 0.322571 5.594256 0.866032
v 0.239029 5.654286 0.658066
v 0.155491 5.714453 0.450109
v 0.071590 5.762316 0.241306
v 0.348778 5.812735 0.191414
v -0.412842 5.812735 -0.111883
v -0.107415 5.608269 1.336975
v -0.869034 5.608269 1.033678
v -0.525310 5.868503 1.167956
v -0.041635 6.072968 0.033339
v -0.016054 5.684796 1.107555
v 0.075197 5.729125 0.878413
v 0.166447 5.773601 0.649270
v 0.257652 5.804748 0.420242
v -0.503967 5.804748 0.116945
v -0.595172 5.773601 0.345973
v -0.686423 5.729125 0.575116
v -0.777673 5.684796 0.804258
v -0.428453 5.945029 0.940725
v -0.331706 5.989358 0.713772
v -0.234959 6.033835 0.486817
v -0.138257 6.064981 0.259978
v -0.170205 5.192259 0.372234
v -0.013969 5.192259 -0.406248
v -1.341130 4.994225 0.137237
v -1.184893 4.994225 -0.641245
v -1.252925 5.246274 -0.290364
v -0.087638 5.444309 -0.027276
v -1.106630 5.068344 0.184300
v -0.872415 5.111279 0.231305
v -0.638199 5.154357 0.278311
v -0.404100 5.184525 0.325293
v -0.247864 5.184525 -0.453189
v -0.481963 5.154357 -0.500172
v -0.716179 5.111279 -0.547177
v -0.950395 5.068345 -0.594182
v -1.019553 5.320394 -0.237683
v -0.786465 5.363328 -0.185060
v -0.553377 5.406406 -0.132436
v -0.320405 5.436573 -0.079836
v 0.328273 5.072049 0.194719
v -0.399106 5.072049 -0.094943
v -0.107410 4.876776 1.288779
v -0.834790 4.876776 0.999117
v -0.506519 5.125310 1.127358
v -0.044588 5.320583 0.043751
v -0.020157 4.949862 1.069673
v 0.066991 4.992198 0.850833
v 0.154139 5.034675 0.631991
v 0.241244 5.064421 0.413260
v -0.486135 5.064421 0.123598
v -0.573239 5.034675 0.342330
v -0.660388 4.992198 0.561172
v -0.747536 4.949862 0.780012
v -0.414016 5.198396 0.910343
v -0.321618 5.240732 0.693593
v -0.229220 5.283209 0.476842
v -0.136866 5.312955 0.260201
v 0.398777 4.504277 0.183251
v -0.458813 4.504277 -0.158263
v -0.095243 4.059641 1.423809
v -0.952834 4.059641 1.082296
v -0.582773 4.349483 1.276119
v -0.057806 4.794120 0.047884
v 0.001374 4.188256 1.181188
v 0.099968 4.281010 0.933606
v 0.198552 4.373928 0.686046
v 0.297954 4.452000 0.436433
v -0.559637 4.452000 0.094919
v -0.659039 4.373929 0.344533
v -0.757623 4.281010 0.592092
v -0.856216 4.188256 0.839675
v -0.479966 4.478098 1.035963
v -0.375183 4.570852 0.790845
v -0.270410 4.663771 0.545750
v -0.164819 4.741843 0.298602
v 0.341416 2.558205 -0.256761
v -0.483869 2.558205 0.213329
v 1.005956 2.015782 0.909901
v 0.180671 2.015782 1.379991
v 0.583316 2.310648 1.223087
v -0.051444 2.853071 0.039462
v 0.877315 2.164642 0.684059
v 0.744818 2.277019 0.451449
v 0.612339 2.389565 0.218869
v 0.478264 2.487006 -0.016512
v -0.347021 2.487006 0.453578
v -0.212946 2.389565 0.688959
v -0.080467 2.277020 0.921538
v 0.052030 2.164642 1.154148
v 0.460630 2.459508 0.993852
v 0.334089 2.571886 0.757849
v 0.207567 2.684431 0.521878
v 0.079447 2.781872 0.283104
v 0.441341 3.011549 0.232104
v -0.410547 3.011549 -0.107140
v -0.050884 2.582141 1.468151
v -0.902773 2.582141 1.128907
v -0.534187 2.870440 1.318970
v -0.011221 3.299849 0.095164
v 0.045524 2.707499 1.226057
v 0.143773 2.797187 0.979341
v 0.242013 2.887039 0.732646
v 0.341015 2.962123 0.484037
v -0.510873 2.962123 0.144793
v -0.609875 2.887039 0.393402
v -0.708116 2.797187 0.640097
v -0.806364 2.707499 0.886813
v -0.431631 2.995798 1.079324
v -0.327234 3.085486 0.835056
v -0.222846 3.175338 0.590810
v -0.117696 3.250422 0.344649
v 0.176546 5.965657 -0.487520
v -0.176609 5.965657 0.404726
v 1.469122 5.509581 0.024088
v 1.115968 5.509581 0.916334
v 1.315413 5.811081 0.530727
v 0.035579 6.267157 -0.013078
v 1.216150 5.642080 -0.076040
v 0.958169 5.737276 -0.178150
v 0.700211 5.832643 -0.280251
v 0.440180 5.912566 -0.383172
v 0.087025 5.912566 0.509073
v 0.347056 5.832643 0.611995
v 0.605014 5.737276 0.714096
v 0.862995 5.642080 0.816206
v 1.064988 5.943580 0.424159
v 0.809556 6.038775 0.315610
v 0.554147 6.134143 0.207070
v 0.296664 6.214067 0.097709
v -0.434764 5.365871 -0.134867
v 0.366618 5.365871 0.184265
v 0.027555 4.955900 -1.295812
v 0.828937 4.955900 -0.976680
v 0.482687 5.226921 -1.156688
v -0.008550 5.636892 -0.007259
v -0.062927 5.075004 -1.068601
v -0.155199 5.160577 -0.836892
v -0.247464 5.246303 -0.605204
v -0.340470 5.318147 -0.371653
v 0.460912 5.318147 -0.052521
v 0.553918 5.246303 -0.286072
v 0.646183 5.160577 -0.517760
v 0.738456 5.075004 -0.749469
v 0.386422 5.346025 -0.931780
v 0.288366 5.431598 -0.702374
v 0.190318 5.517324 -0.472989
v 0.091528 5.589168 -0.241742
v -0.447147 5.982597 -0.176979
v 0.379791 5.982597 0.152329
v 0.029915 5.559553 -1.374945
v 0.856851 5.559553 -1.045637
v 0.499560 5.839216 -1.231385
v -0.007341 6.262261 -0.045302
v -0.063452 5.682455 -1.140489
v -0.158667 5.770756 -0.901391
v -0.253873 5.859216 -0.662314
v -0.349845 5.933351 -0.421316
v 0.477092 5.933351 -0.092008
v 0.573063 5.859217 -0.333007
v 0.668270 5.770756 -0.572083
v 0.763485 5.682455 -0.811181
v 0.400226 5.962119 -0.999305
v 0.299043 6.050420 -0.762584
v 0.197868 6.138881 -0.525884
v 0.095929 6.213015 -0.287262
v -0.137351 5.242927 -0.404140
v -0.005264 5.242927 0.371215
v 1.028008 5.041557 -0.602667
v 1.160095 5.041557 0.172689
v 1.099435 5.291240 -0.176119
v -0.070691 5.492610 -0.005571
v 0.794772 5.116020 -0.562933
v 0.561685 5.159590 -0.523225
v 0.328596 5.203302 -0.483517
v 0.095569 5.234225 -0.443820
v 0.227656 5.234225 0.331536
v 0.460682 5.203303 0.291838
v 0.693771 5.159591 0.252130
v 0.926858 5.116020 0.212422
v 0.865245 5.365702 -0.141981
v 0.631204 5.409272 -0.107869
v 0.397162 5.452985 -0.073756
v 0.163182 5.483908 -0.039654
v -0.351899 3.993800 -0.205054
v 0.422195 3.993800 0.103211
v 0.111423 3.780475 -1.368517
v 0.885517 3.780475 -1.060253
v 0.536593 4.044980 -1.197811
v 0.045339 4.258304 -0.045471
v 0.018693 3.859358 -1.135660
v -0.073977 3.905515 -0.902951
v -0.166649 3.951823 -0.670242
v -0.259295 3.984581 -0.437595
v 0.514799 3.984581 -0.129330
v 0.607445 3.951823 -0.361978
v 0.700116 3.905515 -0.594687
v 0.792787 3.859358 -0.827395
v 0.438277 4.123862 -0.967178
v 0.340020 4.170019 -0.736694
v 0.241762 4.216327 -0.506210
v 0.143529 4.249085 -0.275787
v -0.407499 4.689312 -0.165255
v 0.383327 4.689312 0.149674
v 0.065838 4.471377 -1.353868
v 0.856665 4.471377 -1.038940
v 0.500199 4.741599 -1.179471
v -0.001675 4.959535 -0.002222
v -0.028897 4.551965 -1.115977
v -0.123571 4.599120 -0.878238
v -0.218244 4.646428 -0.640499
v -0.312894 4.679895 -0.402822
v 0.477933 4.679895 -0.087894
v 0.572582 4.646428 -0.325570
v 0.667257 4.599120 -0.563310
v 0.761931 4.551965 -0.801049
v 0.399757 4.822187 -0.943853
v 0.299376 4.869341 -0.708387
v 0.198995 4.916650 -0.472920
v 0.098638 4.950117 -0.237517
v -0.149921 6.421381 -0.413232
v 0.157431 6.421381 0.300900
v 0.908854 6.144925 -0.868913
v 1.216206 6.144925 -0.154781
v 1.091854 6.391263 -0.482259
v 0.021988 6.667718 -0.052347
v 0.699016 6.233946 -0.778602
v 0.487446 6.292490 -0.687545
v 0.275883 6.351173 -0.596492
v 0.063604 6.397239 -0.505130
v 0.370956 6.397239 0.209002
v 0.583235 6.351173 0.117640
v 0.794797 6.292490 0.026587
v 1.006367 6.233946 -0.064470
v 0.879797 6.480284 -0.397101
v 0.666009 6.538828 -0.311198
v 0.452228 6.597511 -0.225299
v 0.237731 6.643577 -0.139091
v -0.163192 4.680548 -0.408432
v 0.192954 4.680548 0.419076
v 1.087857 4.502773 -0.946863
v 1.444004 4.502773 -0.119355
v 1.272182 4.788491 -0.486890
v 0.008282 4.966266 0.021681
v 0.836072 4.577451 -0.838499
v 0.585710 4.616778 -0.730747
v 0.335342 4.656268 -0.622992
v 0.085563 4.681122 -0.515492
v 0.441709 4.681122 0.312017
v 0.691488 4.656268 0.204516
v 0.941856 4.616778 0.096761
v 1.192218 4.577451 -0.010990
v 1.017826 4.863169 -0.384498
v 0.764894 4.902496 -0.282718
v 0.511955 4.941985 -0.180936
v 0.259606 4.966840 -0.079407
v 0.304751 7.728320 -0.144876
v -0.352045 7.727396 0.026152
v 0.542646 7.299661 0.766399
v -0.114149 7.298737 0.937426
v 0.194838 7.507722 0.912805
v -0.019357 7.936414 -0.004641
v 0.496894 7.413951 0.591314
v 0.449491 7.502437 0.409751
v 0.402095 7.591041 0.228217
v 0.354017 7.668962 0.044001
v -0.302778 7.668038 0.215028
v -0.254700 7.590117 0.399244
v -0.207304 7.501513 0.580778
v -0.159901 7.413027 0.762342
v 0.153826 7.622019 0.736486
v 0.111163 7.710511 0.553689
v 0.068507 7.799123 0.370920
v 0.025169 7.877050 0.185470
v -0.147368 7.017593 0.311225
v 0.111775 7.017593 -0.339516
v -1.079707 6.652399 -0.060057
v -0.820564 6.652399 -0.710799
v -0.973260 6.871345 -0.432234
v -0.050272 7.236540 -0.037470
v -0.898175 6.755417 0.012234
v -0.712183 6.831347 0.086301
v -0.526211 6.907400 0.160360
v -0.338394 6.972239 0.235154
v -0.079251 6.972239 -0.415588
v -0.267069 6.907401 -0.490382
v -0.453040 6.831347 -0.564441
v -0.639032 6.755417 -0.638508
v -0.793598 6.974364 -0.355247
v -0.609476 7.050294 -0.276483
v -0.425375 7.126348 -0.197728
v -0.239427 7.191186 -0.118238
v -0.088845 6.536661 0.275436
v 0.147817 6.536661 -0.318853
v -0.940302 6.203148 -0.063637
v -0.703640 6.203148 -0.657926
v -0.843089 6.403101 -0.403527
v -0.000172 6.736614 -0.043009
v -0.774518 6.297230 0.002382
v -0.604661 6.366572 0.070024
v -0.434823 6.436028 0.137658
v -0.263299 6.495242 0.205964
v -0.026637 6.495243 -0.388325
v -0.198161 6.436028 -0.456631
v -0.367999 6.366572 -0.524265
v -0.537857 6.297230 -0.591906
v -0.679013 6.497183 -0.333218
v -0.510865 6.566525 -0.261288
v -0.342734 6.635981 -0.189365
v -0.172918 6.695195 -0.116770
v -0.203547 4.794879 0.374183
v 0.106227 4.794879 -0.403699
v -1.324657 4.378414 -0.072273
v -1.014884 4.378414 -0.850155
v -1.193349 4.640875 -0.515546
v -0.083417 5.057340 -0.041021
v -1.105779 4.497645 0.014890
v -0.882072 4.584403 0.103976
v -0.658387 4.671310 0.193053
v -0.432704 4.744774 0.282926
v -0.122930 4.744774 -0.494955
v -0.348614 4.671310 -0.584829
v -0.572299 4.584404 -0.673906
v -0.796006 4.497645 -0.762992
v -0.976706 4.760107 -0.422769
v -0.755235 4.846865 -0.328070
v -0.533786 4.933773 -0.233378
v -0.310338 5.007235 -0.137891
v -0.236427 2.899984 0.296732
v 0.075017 2.899984 -0.485345
v -1.411555 2.682371 -0.171236
v -1.100111 2.682371 -0.953312
v -1.239498 2.949604 -0.600954
v -0.075608 3.167218 -0.104766
v -1.176419 2.762485 -0.077599
v -0.941383 2.809536 0.015999
v -0.706346 2.856739 0.109597
v -0.471351 2.890253 0.203178
v -0.159907 2.890253 -0.578898
v -0.394902 2.856739 -0.672479
v -0.629939 2.809536 -0.766077
v -0.864975 2.762485 -0.859675
v -1.006610 3.029718 -0.501673
v -0.773821 3.076769 -0.402431
v -0.541032 3.123972 -0.303189
v -0.308284 3.157486 -0.203963
v -0.370598 6.384471 0.187310
v 0.427458 6.384471 -0.156160
v -0.858063 5.900462 -0.945317
v -0.060006 5.900463 -1.288787
v -0.440945 6.170754 -1.184619
v 0.017721 6.654762 -0.039597
v -0.763542 6.034274 -0.725698
v -0.666336 6.134645 -0.499839
v -0.569142 6.235168 -0.274008
v -0.470836 6.321846 -0.045593
v 0.327220 6.321847 -0.389063
v 0.228914 6.235168 -0.617478
v 0.131720 6.134645 -0.843309
v 0.034514 6.034274 -1.069168
v -0.352184 6.304566 -0.962521
v -0.260738 6.404936 -0.734183
v -0.169303 6.505460 -0.505873
v -0.076757 6.592139 -0.274980
v -0.353226 6.772918 -0.260596
v 0.329882 6.853984 0.221976
v 0.380224 6.371944 -1.231475
v 1.063331 6.453011 -0.748903
v 0.757479 6.679193 -1.012567
v -0.000620 7.077242 -0.059101
v 0.233758 6.488106 -1.043658
v 0.087089 6.571768 -0.850096
v -0.059577 6.655580 -0.656560
v -0.206329 6.725937 -0.460645
v 0.476779 6.807004 0.021928
v 0.623530 6.736647 -0.173987
v 0.770197 6.652835 -0.367523
v 0.916865 6.569172 -0.561086
v 0.606083 6.794770 -0.828233
v 0.454485 6.877848 -0.638153
v 0.302888 6.961075 -0.448099
v 0.151206 7.030847 -0.255667
v -0.315355 7.394355 0.129395
v 0.294542 7.394355 -0.133094
v -0.687888 7.024463 -0.736189
v -0.077991 7.024463 -0.998678
v -0.369115 7.231027 -0.919070
v -0.018590 7.600919 -0.044014
v -0.615653 7.126725 -0.568350
v -0.541365 7.203431 -0.395742
v -0.467087 7.280254 -0.223156
v -0.391959 7.346496 -0.048596
v 0.217937 7.346496 -0.311085
v 0.142809 7.280254 -0.485645
v 0.068531 7.203431 -0.658231
v -0.005757 7.126725 -0.830840
v -0.301282 7.333289 -0.749337
v -0.231396 7.409996 -0.574835
v -0.161520 7.486818 -0.400354
v -0.090793 7.553061 -0.223899
v -0.520084 5.078926 0.193555
v 0.278513 5.078926 -0.150149
v -1.029974 4.773080 -0.991173
v -0.231377 4.773080 -1.334877
v -0.597309 5.048597 -1.195168
v -0.116235 5.354442 0.001963
v -0.928880 4.871975 -0.756281
v -0.826988 4.936782 -0.519534
v -0.725098 5.001745 -0.282795
v -0.622878 5.052596 -0.045287
v 0.175718 5.052596 -0.388992
v 0.073498 5.001745 -0.626500
v -0.028391 4.936782 -0.863239
v -0.130283 4.871975 -1.099986
v -0.501978 5.147492 -0.957796
v -0.405849 5.212298 -0.718568
v -0.309723 5.277262 -0.479348
v -0.213267 5.328112 -0.239360
v -0.454142 4.171339 0.161747
v 0.405593 4.171339 -0.208261
v -1.000357 3.814533 -1.107413
v -0.140622 3.814533 -1.477422
v -0.536898 4.110733 -1.332435
v -0.021706 4.467538 -0.049922
v -0.892385 3.926452 -0.856534
v -0.783264 4.001723 -0.602987
v -0.674149 4.077164 -0.349451
v -0.564559 4.137432 -0.094812
v 0.295176 4.137432 -0.464820
v 0.185586 4.077164 -0.719460
v 0.076470 4.001724 -0.972995
v -0.032650 3.926452 -1.226543
v -0.435131 4.222651 -1.078885
v -0.332215 4.297923 -0.822668
v -0.229304 4.373364 -0.566462
v -0.125918 4.433631 -0.309152
v -0.187966 2.029361 0.212068
v 0.155948 2.029361 -0.290390
v -0.785462 1.448364 -0.196895
v -0.441548 1.448364 -0.699354
v -0.673190 1.617753 -0.525772
v -0.088104 2.198750 -0.098678
v -0.676484 1.587758 -0.122304
v -0.557999 1.706194 -0.041205
v -0.439557 1.824726 0.039863
v -0.317181 1.934581 0.123626
v 0.026733 1.934581 -0.378833
v -0.095643 1.824726 -0.462595
v -0.214085 1.706194 -0.543664
v -0.332569 1.587758 -0.624762
v -0.566694 1.757146 -0.447555
v -0.450691 1.875582 -0.362830
v -0.334732 1.994114 -0.278135
v -0.214837 2.103970 -0.190747
v -0.066115 3.387618 0.417044
v -0.041214 3.387618 -0.405592
v -1.288474 3.106534 0.380045
v -1.263574 3.106534 -0.442591
v -1.288437 3.367446 -0.072710
v -0.066975 3.648529 -0.006026
v -1.045872 3.198477 0.387388
v -0.801580 3.258139 0.394782
v -0.557296 3.317948 0.402176
v -0.312313 3.364393 0.409592
v -0.287413 3.364393 -0.413044
v -0.532396 3.317948 -0.420460
v -0.776681 3.258139 -0.427854
v -1.020972 3.198477 -0.435248
v -1.046014 3.459388 -0.059429
v -0.801902 3.519050 -0.046098
v -0.557798 3.578860 -0.032767
v -0.312994 3.625305 -0.019415
v 0.031165 2.434005 0.397940
v -0.166695 2.434005 -0.530040
v -1.307964 1.967101 0.683463
v -1.505824 1.967101 -0.244517
v -1.462245 2.264702 0.182895
v -0.115976 2.731606 -0.069143
v -1.046366 2.101231 0.627687
v -0.779141 2.198541 0.570710
v -0.511942 2.296021 0.513739
v -0.242412 2.378255 0.456271
v -0.440272 2.378256 -0.471709
v -0.709802 2.296021 -0.414241
v -0.977001 2.198541 -0.357270
v -1.244227 2.101232 -0.300294
v -1.199219 2.398832 0.133816
v -0.930566 2.496142 0.083536
v -0.661939 2.593621 0.033262
v -0.390982 2.675856 -0.017509
v 0.416794 3.737424 0.315658
v -0.453010 3.737424 -0.184383
v -0.323937 3.375414 1.604133
v -1.193742 3.375414 1.104092
v -0.812575 3.693234 1.347198
v -0.040456 4.055245 0.076766
v -0.177210 3.491334 1.348906
v -0.029200 3.567932 1.091449
v 0.118803 3.644711 0.834002
v 0.267338 3.705210 0.575632
v -0.602466 3.705210 0.075590
v -0.751001 3.644711 0.333960
v -0.899004 3.567933 0.591407
v -1.047014 3.491334 0.848864
v -0.659569 3.809155 1.095579
v -0.505283 3.885753 0.841730
v -0.351002 3.962532 0.587892
v -0.196190 4.023031 0.333131
v -0.053029 3.894737 -0.420497
v 0.092867 3.894737 0.352860
v 1.050234 3.471366 -0.628630
v 1.196130 3.471366 0.144726
v 1.176097 3.716846 -0.211997
v 0.067570 4.140217 -0.031770
v 0.835831 3.589653 -0.588182
v 0.615781 3.677568 -0.546669
v 0.395757 3.765623 -0.505161
v 0.173395 3.841104 -0.463212
v 0.319291 3.841104 0.310144
v 0.541653 3.765623 0.268195
v 0.761676 3.677568 0.226687
v 0.981727 3.589653 0.185174
v 0.960641 3.835134 -0.177130
v 0.739539 3.923049 -0.141198
v 0.518461 4.011104 -0.105272
v 0.295047 4.086584 -0.068904
v 0.127902 4.834576 0.382081
v -0.187121 4.834576 -0.349879
v -0.916305 4.405893 0.831491
v -1.231328 4.405893 0.099531
v -1.132723 4.654453 0.447601
v -0.077148 5.083136 0.024604
v -0.713378 4.525664 0.744154
v -0.505107 4.614682 0.654518
v -0.296861 4.703842 0.564892
v -0.086401 4.780270 0.474314
v -0.401425 4.780270 -0.257646
v -0.611884 4.703842 -0.167068
v -0.820131 4.614683 -0.077442
v -1.028401 4.525664 0.012195
v -0.927522 4.774224 0.365547
v -0.716978 4.863243 0.281193
v -0.506458 4.952402 0.196850
v -0.293725 5.028830 0.111554
v 0.353066 2.320242 0.226599
v -0.393236 2.320242 -0.291089
v -0.408650 1.957391 1.324693
v -1.154952 1.957391 0.807005
v -0.834034 2.244520 1.061682
v -0.045388 2.607372 -0.017732
v -0.258363 2.069277 1.108039
v -0.106218 2.145638 0.888705
v 0.045918 2.222162 0.669385
v 0.198824 2.283979 0.448955
v -0.547478 2.283979 -0.068733
v -0.700384 2.222162 0.151697
v -0.852520 2.145638 0.371018
v -1.004665 2.069277 0.590351
v -0.678361 2.356406 0.848763
v -0.520830 2.432768 0.633166
v -0.363308 2.509292 0.417582
v -0.205016 2.571109 0.200888
v -0.179210 3.033306 -0.485949
v 0.359696 3.033306 0.297102
v 0.980143 2.687292 -1.283832
v 1.519050 2.687293 -0.500781
v 1.293227 2.988369 -0.864790
v 0.114427 3.334382 -0.095163
v 0.750567 2.797721 -1.125835
v 0.518918 2.870899 -0.966410
v 0.287278 2.944247 -0.806993
v 0.054780 3.002174 -0.646984
v 0.593685 3.002174 0.136067
v 0.826184 2.944247 -0.023942
v 1.057824 2.870898 -0.183359
v 1.289473 2.797721 -0.342784
v 1.059762 3.098797 -0.712444
v 0.824223 3.171975 -0.558671
v 0.588694 3.245324 -0.404904
v 0.352306 3.303250 -0.250547
v -0.256347 2.569101 -0.420905
v 0.277763 2.569101 0.355177
v 0.831493 2.004010 -1.169571
v 1.365603 2.004010 -0.393489
v 1.181523 2.295162 -0.781602
v 0.074410 2.860253 -0.060941
v 0.621640 2.156895 -1.025147
v 0.404816 2.273757 -0.875925
v 0.188023 2.390785 -0.726726
v -0.031655 2.492899 -0.575541
v 0.502455 2.492899 0.200541
v 0.722133 2.390785 0.049355
v 0.938925 2.273757 -0.099844
v 1.155749 2.156895 -0.249065
v 0.967815 2.448047 -0.642780
v 0.747136 2.564909 -0.499159
v 0.526489 2.681937 -0.355561
v 0.302957 2.784051 -0.209977
v -0.288574 3.348651 -0.332411
v 0.504351 3.348651 0.181805
v 0.479206 3.057090 -1.516337
v 1.272132 3.057089 -1.002122
v 0.920130 3.356967 -1.241172
v 0.123737 3.648529 -0.075801
v 0.326324 3.156463 -1.280590
v 0.172833 3.218735 -1.043905
v 0.019344 3.281177 -0.807225
v -0.134396 3.328258 -0.570155
v 0.658530 3.328258 -0.055939
v 0.812270 3.281177 -0.293009
v 0.965758 3.218735 -0.529690
v 1.119250 3.156463 -0.766375
v 0.761525 3.456342 -1.009137
v 0.602311 3.518613 -0.776163
v 0.443100 3.581055 -0.543193
v 0.283637 3.628136 -0.309834
v -0.471882 3.021297 -0.196459
v 0.517394 3.021297 -0.013754
v -0.197530 2.755679 -1.681971
v 0.791746 2.755679 -1.499267
v 0.346466 3.075040 -1.581646
v 0.036417 3.340657 -0.102726
v -0.252397 2.852532 -1.384888
v -0.307268 2.909872 -1.087787
v -0.362137 2.967394 -0.790686
v -0.417009 3.008556 -0.493579
v 0.572268 3.008557 -0.310874
v 0.627139 2.967394 -0.607982
v 0.682009 2.909872 -0.905082
v 0.736880 2.852532 -1.202183
v 0.284460 3.171892 -1.285880
v 0.222451 3.229232 -0.990098
v 0.160440 3.286754 -0.694316
v 0.098430 3.327917 -0.398527
v -0.460573 3.585653 0.124019
v 0.432602 3.585653 -0.260389
v -1.040370 3.369003 -1.223142
v -0.147194 3.369003 -1.607550
v -0.545953 3.677578 -1.426874
v 0.001614 3.894228 -0.065841
v -0.923960 3.454585 -0.952664
v -0.807957 3.501989 -0.683131
v -0.691953 3.549569 -0.413593
v -0.576117 3.581342 -0.144447
v 0.317058 3.581342 -0.528855
v 0.201222 3.549569 -0.798001
v 0.085218 3.501989 -1.067538
v -0.030785 3.454585 -1.337072
v -0.435989 3.763160 -1.153621
v -0.326432 3.810564 -0.881313
v -0.216873 3.858144 -0.609002
v -0.107484 3.889917 -0.337082
v -0.461249 2.576477 0.121113
v 0.413522 2.576477 -0.255373
v -0.995648 2.046446 -1.120571
v -0.120878 2.046446 -1.497057
v -0.538392 2.342742 -1.382774
v -0.035558 2.872774 -0.127505
v -0.892021 2.193023 -0.879791
v -0.785454 2.302941 -0.632182
v -0.678902 2.413028 -0.384606
v -0.571132 2.507937 -0.134202
v 0.303638 2.507937 -0.510688
v 0.195869 2.413028 -0.761092
v 0.089316 2.302941 -1.008669
v -0.017251 2.193023 -1.256277
v -0.441077 2.489320 -1.139277
v -0.340824 2.599238 -0.888952
v -0.240584 2.709325 -0.638658
v -0.139128 2.804234 -0.385537
v 0.282707 8.480672 0.009794
v -0.227201 8.482643 -0.188571
v 0.065183 7.895545 0.563135
v -0.444724 7.897516 0.364770
v -0.250472 8.039607 0.546154
v -0.014549 8.624663 -0.000030
v 0.103858 8.032148 0.465077
v 0.146897 8.151061 0.355625
v 0.189916 8.270056 0.246225
v 0.234742 8.381726 0.132107
v -0.275166 8.383698 -0.066258
v -0.319991 8.272027 0.047859
v -0.363010 8.153032 0.157260
v -0.406049 8.034120 0.266712
v -0.208117 8.176197 0.449527
v -0.161398 8.295095 0.341506
v -0.114699 8.414075 0.233538
v -0.066194 8.525733 0.120852
v 0.292498 7.922758 0.046463
v -0.279111 7.921575 -0.178153
v -0.009536 7.485443 0.817391
v -0.581145 7.484260 0.592776
v -0.346087 7.670327 0.749507
v -0.023427 8.107684 -0.013316
v 0.047825 7.598310 0.670822
v 0.107938 7.688223 0.517371
v 0.168039 7.778241 0.363951
v 0.229278 7.858755 0.207682
v -0.342330 7.857572 -0.016933
v -0.403570 7.777057 0.139336
v -0.463670 7.687040 0.292755
v -0.523784 7.597127 0.446207
v -0.284601 7.783204 0.604559
v -0.220362 7.873124 0.452729
v -0.156137 7.963151 0.300930
v -0.090772 8.043673 0.146282
v -0.165390 7.894564 -0.299671
v 0.087290 7.893270 0.277924
v 0.630789 7.484598 -0.648894
v 0.883470 7.483304 -0.071299
v 0.818269 7.676931 -0.352095
v 0.012972 8.086944 -0.023715
v 0.478200 7.593023 -0.581897
v 0.319605 7.677566 -0.512328
v 0.161037 7.762218 -0.442770
v -0.000017 7.836981 -0.372146
v 0.252663 7.835687 0.205449
v 0.413717 7.760924 0.134825
v 0.572285 7.676272 0.065267
v 0.730880 7.591730 -0.004303
v 0.663856 7.785367 -0.289267
v 0.503437 7.869919 -0.223866
v 0.343046 7.954579 -0.158476
v 0.180169 8.029352 -0.092021
v -0.217237 8.452029 0.144869
v 0.240642 8.449273 -0.059418
v -0.468948 7.994133 -0.413123
v -0.011068 7.991376 -0.617410
v -0.245753 8.134623 -0.591426
v -0.010566 8.592619 -0.026062
v -0.422518 8.105156 -0.310558
v -0.372554 8.198611 -0.199831
v -0.322606 8.292146 -0.089141
v -0.271193 8.378407 0.024928
v 0.186686 8.375649 -0.179359
v 0.135274 8.289390 -0.293428
v 0.085326 8.195854 -0.404118
v 0.035361 8.102400 -0.514845
v -0.202629 8.245667 -0.487386
v -0.155969 8.339141 -0.375184
v -0.109325 8.432695 -0.263020
v -0.061217 8.518976 -0.147477
v -0.113573 7.698843 0.282322
v 0.119324 7.697931 -0.311264
v -0.958745 7.350695 -0.048750
v -0.725849 7.349782 -0.642336
v -0.866654 7.548871 -0.389562
v -0.029885 7.897051 -0.037071
v -0.794636 7.447529 0.015490
v -0.626077 7.519782 0.081514
v -0.457537 7.592147 0.147530
v -0.287156 7.654336 0.214284
v -0.054260 7.653423 -0.379302
v -0.224641 7.591234 -0.446056
v -0.393180 7.518869 -0.512072
v -0.561740 7.446616 -0.578096
v -0.704225 7.645711 -0.321038
v -0.537346 7.717970 -0.250730
v -0.370488 7.790342 -0.180431
v -0.201787 7.852537 -0.109393
v -0.271618 8.056406 0.009107
v 0.248387 8.055142 -0.002278
v -0.288164 7.721177 -0.709382
v 0.231842 7.719914 -0.720766
v -0.002781 7.879930 -0.758541
v -0.005001 8.215202 -0.039641
v -0.284930 7.810056 -0.571558
v -0.281628 7.879206 -0.428427
v -0.278327 7.948448 -0.285319
v -0.274997 8.009522 -0.140015
v 0.245008 8.008259 -0.151400
v 0.241678 7.947185 -0.296704
v 0.238377 7.877943 -0.439811
v 0.235075 7.808793 -0.582943
v -0.003301 7.968817 -0.620635
v -0.003752 8.037977 -0.477422
v -0.004203 8.107227 -0.334232
v -0.004627 8.168309 -0.188846
v -0.490153 5.756504 0.212219
v 0.440412 5.756504 -0.101638
v -0.948064 5.321786 -1.145455
v -0.017499 5.321787 -1.459312
v -0.448399 5.631269 -1.353681
v -0.024067 6.065988 0.015319
v -0.858128 5.451107 -0.878801
v -0.766705 5.542137 -0.607737
v -0.675288 5.633342 -0.336693
v -0.583256 5.708694 -0.063823
v 0.347309 5.708694 -0.377680
v 0.255277 5.633342 -0.650550
v 0.163861 5.542137 -0.921594
v 0.072437 5.451107 -1.192658
v -0.365178 5.760590 -1.084761
v -0.280471 5.851620 -0.811432
v -0.195770 5.942825 -0.538123
v -0.110454 6.018178 -0.262988
v -0.079734 2.177719 -0.289799
v 0.120303 2.177719 0.237006
v 0.546714 1.640022 -0.527673
v 0.746752 1.640022 -0.000867
v 0.737267 1.796787 -0.268589
v 0.103601 2.334483 -0.049725
v 0.432455 1.769027 -0.484287
v 0.308229 1.878636 -0.437116
v 0.184049 1.988334 -0.389962
v 0.055742 2.090002 -0.341242
v 0.255780 2.090003 0.185564
v 0.384086 1.988334 0.136843
v 0.508266 1.878636 0.089690
v 0.632493 1.769027 0.042519
v 0.621565 1.925792 -0.229005
v 0.495895 2.035400 -0.185636
v 0.370271 2.145099 -0.142284
v 0.240521 2.246767 -0.097366
v 0.070865 8.884439 -0.166453
v -0.159496 8.880424 0.059547
v 0.255443 8.465631 0.014247
v 0.025082 8.461616 0.240246
v 0.181821 8.531446 0.193795
v 0.005556 8.950399 0.004941
v 0.225791 8.558706 -0.014324
v 0.189576 8.643366 -0.049734
v 0.153391 8.728065 -0.085113
v 0.114489 8.809279 -0.123323
v -0.115873 8.805264 0.102677
v -0.076970 8.724050 0.140887
v -0.040786 8.639351 0.176265
v -0.004570 8.554691 0.211676
v 0.153832 8.624550 0.163594
v 0.119279 8.709240 0.126552
v 0.084756 8.793966 0.089543
v 0.047517 8.875211 0.049702
v -0.144582 9.013651 0.042175
v 0.132542 9.010489 0.065494
v -0.128598 8.662756 -0.195364
v 0.148525 8.659593 -0.172045
v 0.029796 8.722453 -0.245666
v 0.003813 9.073462 -0.008968
v -0.130972 8.741347 -0.156499
v -0.134089 8.812338 -0.109825
v -0.137203 8.883363 -0.063187
v -0.140625 8.951241 -0.013315
v 0.136499 8.948078 0.010004
v 0.139921 8.880199 -0.039868
v 0.143035 8.809175 -0.086506
v 0.146152 8.738184 -0.133181
v 0.025422 8.801067 -0.206969
v 0.020305 8.872080 -0.160463
v 0.015191 8.943128 -0.113993
v 0.009770 9.011029 -0.064290
vn 0.3873 0.1914 -0.9019
vn 0.4011 0.2696 -0.8755
vn 0.0272 0.3338 -0.9423
vn 0.0163 0.2238 -0.9745
vn -0.4200 0.3375 -0.8425
vn -0.4136 0.2265 -0.8819
vn -0.7416 0.2651 -0.6163
vn -0.7316 0.1888 -0.6551
vn -0.9129 0.2128 -0.3483
vn -0.9214 0.1612 -0.3536
vn 0.8956 0.2082 0.3932
vn 0.8628 0.3036 0.4043
vn 0.9492 0.3115 -0.0455
vn 0.9765 0.2127 -0.0354
vn 0.8704 0.2647 -0.4152
vn 0.8939 0.1888 -0.4066
vn 0.6755 0.2482 -0.6943
vn 0.6859 0.1800 -0.7050
vn -0.3500 0.1997 0.9152
vn -0.3447 0.2872 0.8937
vn 0.0550 0.2451 0.9679
vn 0.0361 0.1783 0.9833
vn 0.4092 0.2107 0.8878
vn 0.4021 0.1606 0.9014
vn 0.6540 0.2308 0.7204
vn 0.6823 0.1705 0.7109
vn 0.7169 0.0206 0.6969
vn 0.7145 0.0791 0.6952
vn 0.9261 0.0791 0.3688
vn 0.9290 0.0207 0.3694
vn 0.3955 0.0190 0.9183
vn 0.3941 0.0791 0.9157
vn 0.0137 0.0159 0.9998
vn 0.0137 0.0791 0.9968
vn -0.3701 0.0120 0.9289
vn -0.3688 0.0792 0.9261
vn 0.6970 0.0125 -0.7170
vn 0.6952 0.0791 -0.7145
vn 0.3688 0.0791 -0.9261
vn 0.3698 0.0084 -0.9291
vn 0.9182 0.0163 -0.3958
vn 0.9157 0.0791 -0.3941
vn 0.9997 0.0192 -0.0143
vn 0.9968 0.0791 -0.0137
vn -0.7165 -0.0003 -0.6976
vn -0.7145 0.0791 -0.6952
vn -0.9262 0.0791 -0.3686
vn -0.9288 -0.0003 -0.3705
vn -0.3951 0.0015 -0.9187
vn -0.3941 0.0791 -0.9157
vn -0.0137 0.0044 -0.9999
vn -0.0137 0.0791 -0.9968
vn -0.9874 0.1585 -0.0010
vn -0.9968 0.0791 0.0137
vn -0.9166 0.1813 0.3564
vn -0.9157 0.0791 0.3941
vn -0.9999 0.0011 0.0132
vn -0.6945 0.2052 0.6897
vn -0.6952 0.0791 0.7145
vn -0.9188 0.0040 0.3948
vn -0.6976 0.0078 0.7164
vn -0.6931 0.2961 0.6572
vn -0.9126 0.2510 0.3227
vn -0.9783 0.2063 -0.0182
vn -0.0000 1.0000 -0.0000
vn -0.6972 0.0260 0.7164
vn -0.6975 -0.0015 0.7166
vn 0.0156 0.0082 0.9998
vn 0.0163 0.0114 0.9998
vn 0.7146 0.0178 0.6993
vn -0.6913 0.0289 0.7220
vn -0.0119 0.0243 -0.9996
vn -0.7147 0.0101 -0.6994
vn -0.7136 0.0329 -0.6997
vn -0.0112 0.0214 -0.9997
vn 0.9993 0.0330 -0.0159
vn 0.7185 0.0225 0.6951
vn 0.6967 0.0337 -0.7165
vn -0.9993 0.0349 0.0108
vn 0.6971 0.0071 -0.7169
vn 0.9999 -0.0017 -0.0166
vn 0.7194 -0.0001 0.6946
vn -0.7178 0.0529 -0.6943
vn -0.9999 -0.0006 0.0115
vn 0.7025 0.0415 -0.7104
vn 0.3482 0.8317 0.4324
vn -0.5211 0.8351 -0.1763
vn -0.6078 0.7937 0.0251
vn -0.5760 0.8144 -0.0698
vn -0.5709 0.8183 -0.0664
vn -0.5524 0.8269 -0.1054
vn 0.4697 0.8516 0.2329
vn 0.4322 0.8491 0.3037
vn 0.4075 0.8465 0.3427
vn 0.4028 0.8494 0.3409
vn 0.3490 0.8058 0.4784
vn -0.5577 0.8269 -0.0727
vn -0.6298 0.7659 0.1295
vn -0.6049 0.7955 0.0348
vn -0.5997 0.7993 0.0383
vn -0.5840 0.8117 -0.0010
vn 0.4566 0.8464 0.2741
vn 0.4239 0.8368 0.3466
vn 0.4018 0.8300 0.3867
vn 0.3970 0.8330 0.3854
vn 0.5577 0.7741 -0.2996
vn -0.0424 0.8173 0.5746
vn 0.1500 0.7393 0.6564
vn 0.0595 0.7767 0.6270
vn 0.0635 0.7804 0.6221
vn 0.0263 0.7961 0.6046
vn 0.3638 0.8327 -0.4174
vn 0.4333 0.8168 -0.3809
vn 0.4715 0.8065 -0.3568
vn 0.4701 0.8094 -0.3520
vn 0.4195 0.8361 -0.3534
vn -0.1892 0.8355 0.5159
vn 0.0128 0.7977 0.6029
vn -0.0824 0.8168 0.5710
vn -0.0791 0.8207 0.5659
vn -0.1182 0.8285 0.5473
vn 0.2197 0.8522 -0.4749
vn 0.2906 0.8510 -0.4374
vn 0.3296 0.8491 -0.4127
vn 0.3277 0.8521 -0.4081
vn 0.5440 0.7822 -0.3038
vn -0.0617 0.8216 0.5667
vn 0.1317 0.7482 0.6503
vn 0.0406 0.7835 0.6200
vn 0.0446 0.7872 0.6151
vn 0.0072 0.8020 0.5973
vn 0.3496 0.8359 -0.4232
vn 0.4192 0.8217 -0.3862
vn 0.4574 0.8123 -0.3618
vn 0.4560 0.8153 -0.3570
vn 0.5366 0.8435 0.0237
vn -0.5085 0.8355 0.2081
vn -0.4268 0.8044 0.4134
vn -0.4717 0.8205 0.3230
vn -0.4658 0.8244 0.3216
vn -0.4804 0.8309 0.2806
vn 0.4811 0.8526 -0.2039
vn 0.5047 0.8539 -0.1273
vn 0.5148 0.8534 -0.0822
vn 0.5102 0.8563 -0.0803
vn 0.5759 0.8094 0.1151
vn -0.4688 0.8307 0.3003
vn -0.3892 0.7732 0.5006
vn -0.4331 0.8013 0.4127
vn -0.4270 0.8051 0.4118
vn -0.4412 0.8168 0.3718
vn 0.5215 0.8461 -0.1099
vn 0.5450 0.8378 -0.0337
vn 0.5549 0.8318 0.0111
vn 0.5504 0.8348 0.0133
vn 0.3514 0.8345 0.4245
vn -0.5179 0.8354 -0.1842
vn -0.6048 0.7962 0.0175
vn -0.5729 0.8159 -0.0776
vn -0.5678 0.8198 -0.0742
vn -0.5493 0.8279 -0.1133
vn 0.4729 0.8520 0.2248
vn 0.4354 0.8503 0.2957
vn 0.4107 0.8481 0.3347
vn 0.4060 0.8511 0.3328
vn -0.3544 0.8345 0.4220
vn 0.0880 0.8354 -0.5426
vn -0.1261 0.7962 -0.5918
vn -0.0268 0.8159 -0.5776
vn -0.0292 0.8198 -0.5719
vn 0.0126 0.8279 -0.5607
vn -0.1361 0.8520 0.5056
vn -0.2125 0.8503 0.4815
vn -0.2553 0.8481 0.4642
vn -0.2543 0.8511 0.4593
vn 0.3043 0.7828 0.5428
vn -0.5662 0.8219 -0.0630
vn -0.6498 0.7488 0.1305
vn -0.6195 0.7840 0.0394
vn -0.6146 0.7876 0.0434
vn -0.5968 0.8024 0.0059
vn 0.4237 0.8362 0.3483
vn 0.3867 0.8221 0.4180
vn 0.3623 0.8128 0.4562
vn 0.3575 0.8158 0.4547
vn 0.6378 0.7568 0.1429
vn -0.3774 0.8108 0.4474
vn -0.2808 0.7247 0.6292
vn -0.3319 0.7658 0.5508
vn -0.3256 0.7694 0.5496
vn -0.3432 0.7867 0.5131
vn 0.5623 0.8241 -0.0686
vn 0.5931 0.8051 0.0030
vn 0.6074 0.7931 0.0453
vn 0.6033 0.7960 0.0483
vn 0.3070 0.7864 0.5360
vn -0.5634 0.8232 -0.0701
vn -0.6473 0.7521 0.1241
vn -0.6169 0.7864 0.0327
vn -0.6119 0.7901 0.0366
vn -0.5940 0.8044 -0.0009
vn 0.4266 0.8377 0.3411
vn 0.3895 0.8243 0.4109
vn 0.3651 0.8155 0.4492
vn 0.3603 0.8184 0.4477
vn 0.5389 0.7845 -0.3067
vn -0.0652 0.8225 0.5650
vn 0.1288 0.7504 0.6483
vn 0.0375 0.7851 0.6182
vn 0.0414 0.7888 0.6133
vn 0.0039 0.8034 0.5955
vn 0.3439 0.8369 -0.4258
vn 0.4138 0.8231 -0.3889
vn 0.4521 0.8141 -0.3646
vn 0.4506 0.8170 -0.3598
vn -0.3056 0.7845 -0.5396
vn 0.5649 0.8225 0.0664
vn 0.6486 0.7504 -0.1274
vn 0.6183 0.7851 -0.0362
vn 0.6133 0.7888 -0.0402
vn 0.5955 0.8034 -0.0026
vn -0.4251 0.8369 -0.3448
vn -0.3880 0.8231 -0.4146
vn -0.3636 0.8141 -0.4528
vn -0.3588 0.8170 -0.4513
vn 0.1831 0.8333 -0.5216
vn 0.1161 0.8353 0.5375
vn 0.3334 0.7951 0.5066
vn 0.2357 0.8153 0.5289
vn 0.2359 0.8192 0.5228
vn 0.1929 0.8275 0.5273
vn -0.0506 0.8518 -0.5214
vn 0.0294 0.8498 -0.5263
vn 0.0756 0.8474 -0.5255
vn 0.0764 0.8504 -0.5206
vn -0.3500 0.8333 -0.4279
vn 0.5193 0.8353 0.1808
vn 0.6061 0.7951 -0.0208
vn 0.5743 0.8153 0.0742
vn 0.5692 0.8192 0.0708
vn 0.5506 0.8275 0.1099
vn -0.4715 0.8518 -0.2283
vn -0.4340 0.8498 -0.2991
vn -0.4093 0.8474 -0.3382
vn -0.4046 0.8504 -0.3363
vn 0.1055 0.8136 -0.5718
vn 0.2904 0.8318 0.4731
vn 0.4915 0.7771 0.3932
vn 0.4032 0.8039 0.4372
vn 0.4022 0.8077 0.4311
vn 0.3621 0.8189 0.4454
vn -0.1199 0.8474 -0.5172
vn -0.0436 0.8401 -0.5407
vn 0.0012 0.8347 -0.5507
vn 0.0034 0.8377 -0.5462
vn 0.0251 0.8431 -0.5372
vn 0.2095 0.8356 0.5079
vn 0.4147 0.8040 0.4262
vn 0.3243 0.8203 0.4711
vn 0.3230 0.8242 0.4652
vn 0.2820 0.8308 0.4798
vn -0.2025 0.8526 -0.4817
vn -0.1258 0.8537 -0.5053
vn -0.0807 0.8531 -0.5154
vn -0.0789 0.8561 -0.5108
vn 0.5859 0.7378 0.3353
vn -0.4730 0.8006 0.3679
vn -0.4279 0.7057 0.5647
vn -0.4564 0.7508 0.4775
vn -0.4500 0.7542 0.4781
vn -0.4574 0.7733 0.4391
vn 0.5686 0.8146 0.1145
vn 0.5796 0.7923 0.1907
vn 0.5822 0.7784 0.2347
vn 0.5776 0.7813 0.2367
vn -0.5627 0.7717 0.2963
vn 0.0420 0.8174 -0.5746
vn -0.1496 0.7385 -0.6574
vn -0.0594 0.7763 -0.6275
vn -0.0635 0.7799 -0.6226
vn -0.0264 0.7958 -0.6049
vn -0.3696 0.8312 0.4152
vn -0.4389 0.8150 0.3783
vn -0.4769 0.8045 0.3541
vn -0.4755 0.8074 0.3492
vn -0.5507 0.7785 0.3011
vn 0.0547 0.8202 -0.5695
vn -0.1381 0.7448 -0.6528
vn -0.0474 0.7810 -0.6227
vn -0.0513 0.7847 -0.6178
vn -0.0140 0.7999 -0.6000
vn -0.3567 0.8343 0.4204
vn -0.4263 0.8193 0.3834
vn -0.4644 0.8096 0.3590
vn -0.4629 0.8125 0.3542
vn -0.4292 0.8329 0.3495
vn 0.1795 0.8352 -0.5198
vn -0.0220 0.7947 -0.6066
vn 0.0730 0.8151 -0.5748
vn 0.0696 0.8189 -0.5697
vn 0.1086 0.8273 -0.5511
vn -0.2296 0.8517 0.4710
vn -0.3004 0.8496 0.4335
vn -0.3395 0.8472 0.4088
vn -0.3376 0.8501 0.4041
vn -0.6150 0.7611 -0.2060
vn 0.4279 0.8128 -0.3953
vn 0.3518 0.7287 -0.5875
vn 0.3940 0.7689 -0.5035
vn 0.3877 0.7725 -0.5030
vn 0.4012 0.7894 -0.4647
vn -0.5632 0.8262 0.0132
vn -0.5859 0.8080 -0.0615
vn -0.5955 0.7964 -0.1053
vn -0.5911 0.7994 -0.1078
vn -0.2295 0.7331 -0.6402
vn 0.4682 0.8713 0.1475
vn 0.6005 0.7994 -0.0172
vn 0.5469 0.8348 0.0624
vn 0.5428 0.8379 0.0572
vn 0.5155 0.8523 0.0886
vn -0.3952 0.7821 -0.4818
vn -0.3418 0.7690 -0.5402
vn -0.3085 0.7607 -0.5711
vn -0.3044 0.7641 -0.5687
vn -0.5710 0.8144 -0.1036
vn 0.4739 0.8320 -0.2885
vn 0.3940 0.7779 -0.4896
vn 0.4380 0.8044 -0.4013
vn 0.4319 0.8082 -0.4003
vn 0.4462 0.8193 -0.3601
vn -0.5164 0.8476 0.1219
vn -0.5398 0.8405 0.0456
vn -0.5499 0.8353 0.0007
vn -0.5453 0.8382 -0.0014
vn -0.5773 0.8079 -0.1184
vn 0.4674 0.8303 -0.3036
vn 0.3879 0.7719 -0.5038
vn 0.4317 0.8004 -0.4159
vn 0.4256 0.8041 -0.4150
vn 0.4398 0.8160 -0.3751
vn -0.5230 0.8456 0.1065
vn -0.5464 0.8370 0.0303
vn -0.5564 0.8308 -0.0145
vn -0.5519 0.8338 -0.0167
vn -0.8006 0.5980 0.0379
vn -0.0421 0.7182 -0.6945
vn -0.1808 0.5765 -0.7968
vn -0.1136 0.6428 -0.7576
vn -0.1195 0.6456 -0.7543
vn -0.0932 0.6738 -0.7330
vn -0.6639 0.7261 0.1788
vn -0.7157 0.6857 0.1329
vn -0.7427 0.6615 0.1041
vn -0.7410 0.6641 0.0991
vn -0.3297 0.8166 0.4737
vn -0.0552 0.8325 -0.5513
vn -0.2717 0.7799 -0.5639
vn -0.1728 0.8058 -0.5665
vn -0.1745 0.8096 -0.5605
vn -0.1320 0.8203 -0.5565
vn -0.1020 0.8483 0.5197
vn -0.1812 0.8417 0.5086
vn -0.2261 0.8367 0.4987
vn -0.2261 0.8397 0.4937
vn -0.2878 0.7800 0.5557
vn -0.2680 0.8207 -0.5046
vn -0.4748 0.7462 -0.4667
vn -0.3825 0.7820 -0.4920
vn -0.3831 0.7857 -0.4858
vn -0.3421 0.8007 -0.4917
vn -0.0600 0.8349 0.5471
vn -0.1385 0.8203 0.5550
vn -0.1837 0.8107 0.5559
vn -0.1852 0.8136 0.5511
vn 0.2568 0.8124 0.5235
vn -0.5175 0.8315 -0.2021
vn -0.6304 0.7760 -0.0178
vn -0.5862 0.8032 -0.1059
vn -0.5817 0.8070 -0.1016
vn -0.5582 0.8183 -0.1370
vn 0.4045 0.8471 0.3448
vn 0.3575 0.8395 0.4093
vn 0.3276 0.8339 0.4441
vn 0.3231 0.8369 0.4418
vn 0.3251 0.7669 -0.5534
vn 0.2817 0.8153 0.5059
vn 0.4869 0.7340 0.4734
vn 0.3952 0.7730 0.4963
vn 0.3961 0.7765 0.4900
vn 0.3555 0.7929 0.4949
vn 0.0991 0.8290 -0.5504
vn 0.1772 0.8118 -0.5564
vn 0.2221 0.8008 -0.5562
vn 0.2236 0.8038 -0.5513
vn -0.1965 0.7669 0.6110
vn -0.3853 0.8153 -0.4322
vn -0.5785 0.7340 -0.3557
vn -0.4940 0.7730 -0.3981
vn -0.4934 0.7765 -0.3918
vn -0.4549 0.7929 -0.4054
vn 0.0234 0.8290 0.5588
vn -0.0515 0.8118 0.5816
vn -0.0954 0.8008 0.5912
vn -0.0979 0.8038 0.5868
vn 0.1995 0.8036 0.5607
vn -0.5109 0.8291 -0.2273
vn -0.6382 0.7680 -0.0545
vn -0.5871 0.7977 -0.1379
vn -0.5831 0.8014 -0.1331
vn -0.5568 0.8139 -0.1662
vn 0.3612 0.8442 0.3960
vn 0.3091 0.8346 0.4561
vn 0.2764 0.8278 0.4881
vn 0.2722 0.8308 0.4855
vn -0.0042 0.8117 -0.5840
vn 0.3810 0.8313 0.4046
vn 0.5624 0.7754 0.2872
vn 0.4845 0.8028 0.3476
vn 0.4824 0.8066 0.3417
vn 0.4458 0.8180 0.3635
vn -0.2146 0.8468 -0.4866
vn -0.1443 0.8391 -0.5245
vn -0.1023 0.8334 -0.5430
vn -0.0993 0.8364 -0.5390
vn 0.1009 0.7477 -0.6563
vn 0.4914 0.8065 0.3287
vn 0.6629 0.7163 0.2181
vn 0.5898 0.7593 0.2751
vn 0.5881 0.7627 0.2689
vn 0.5536 0.7809 0.2894
vn -0.1023 0.8195 -0.5639
vn -0.0339 0.7989 -0.6005
vn 0.0068 0.7860 -0.6182
vn 0.0102 0.7889 -0.6144
vn -0.2440 0.8234 -0.5123
vn 0.4900 0.8339 0.2541
vn 0.6136 0.7861 0.0746
vn 0.5642 0.8098 0.1610
vn 0.5600 0.8136 0.1565
vn 0.5344 0.8234 0.1909
vn -0.4017 0.8500 -0.3409
vn -0.3512 0.8452 -0.4030
vn -0.3194 0.8412 -0.4363
vn -0.3151 0.8442 -0.4337
vn -0.4260 0.8319 -0.3558
vn 0.5454 0.8351 0.0716
vn 0.5912 0.7938 -0.1428
vn 0.5785 0.8145 -0.0435
vn 0.5728 0.8184 -0.0459
vn 0.5623 0.8269 -0.0040
vn -0.5062 0.8516 -0.1364
vn -0.4832 0.8492 -0.2132
vn -0.4666 0.8465 -0.2562
vn -0.4616 0.8495 -0.2553
vn -0.5428 0.8390 -0.0381
vn 0.5023 0.8356 -0.2224
vn 0.4209 0.8003 -0.4271
vn 0.4657 0.8183 -0.3370
vn 0.4597 0.8222 -0.3357
vn 0.4743 0.8295 -0.2949
vn -0.4874 0.8524 0.1893
vn -0.5110 0.8522 0.1126
vn -0.5211 0.8508 0.0675
vn -0.5165 0.8538 0.0656
vn -0.6149 0.7613 -0.2057
vn 0.4280 0.8129 -0.3950
vn 0.3519 0.7289 -0.5873
vn 0.3942 0.7690 -0.5032
vn 0.3878 0.7726 -0.5027
vn 0.4013 0.7895 -0.4644
vn -0.5631 0.8263 0.0135
vn -0.5858 0.8081 -0.0612
vn -0.5954 0.7966 -0.1050
vn -0.5910 0.7995 -0.1075
vn 0.1999 0.5286 0.8250
vn -0.6900 0.6734 0.2653
vn -0.7532 0.5150 0.4092
vn -0.7325 0.5888 0.3416
vn -0.7281 0.5913 0.3468
vn -0.7143 0.6227 0.3193
vn 0.3015 0.6754 0.6730
vn 0.2700 0.6282 0.7297
vn 0.2489 0.6004 0.7600
vn 0.2436 0.6028 0.7598
vn 0.2605 0.7090 0.6553
vn -0.6164 0.7850 0.0624
vn -0.6935 0.6784 0.2426
vn -0.6663 0.7288 0.1579
vn -0.6616 0.7321 0.1624
vn -0.6450 0.7534 0.1276
vn 0.3746 0.7986 0.4711
vn 0.3392 0.7718 0.5379
vn 0.3158 0.7554 0.5742
vn 0.3108 0.7582 0.5732
vn 0.2484 0.7317 -0.6348
vn 0.4477 0.7969 0.4055
vn 0.6338 0.6993 0.3306
vn 0.5527 0.7456 0.3722
vn 0.5524 0.7491 0.3658
vn 0.5152 0.7687 0.3791
vn 0.0341 0.8115 -0.5834
vn 0.1073 0.7881 -0.6061
vn 0.1502 0.7736 -0.6156
vn 0.1529 0.7765 -0.6113
vn -0.6905 0.6220 -0.3693
vn 0.3414 0.7293 -0.5929
vn 0.2742 0.5935 -0.7567
vn 0.3121 0.6570 -0.6862
vn 0.3054 0.6600 -0.6864
vn 0.3172 0.6870 -0.6537
vn -0.6454 0.7438 -0.1741
vn -0.6662 0.7056 -0.2415
vn -0.6746 0.6827 -0.2808
vn -0.6705 0.6854 -0.2841
vn -0.5731 0.7652 0.2933
vn 0.0264 0.8135 -0.5810
vn -0.1643 0.7310 -0.6623
vn -0.0746 0.7705 -0.6331
vn -0.0787 0.7740 -0.6282
vn -0.0418 0.7907 -0.6108
vn -0.3804 0.8286 0.4108
vn -0.4496 0.8110 0.3744
vn -0.4875 0.7997 0.3504
vn -0.4862 0.8026 0.3455
vn -0.4921 0.7339 -0.4683
vn 0.5458 0.7978 -0.2563
vn 0.5473 0.7010 -0.4573
vn 0.5549 0.7469 -0.3663
vn 0.5489 0.7503 -0.3684
vn 0.5470 0.7698 -0.3289
vn -0.5261 0.8128 -0.2502
vn -0.5192 0.7897 -0.3267
vn -0.5117 0.7754 -0.3700
vn -0.5067 0.7783 -0.3709
vn -0.5766 0.7931 -0.1966
vn 0.4794 0.8256 -0.2976
vn 0.4172 0.7582 -0.5010
vn 0.4534 0.7908 -0.4112
vn 0.4471 0.7945 -0.4109
vn 0.4579 0.8082 -0.3704
vn -0.5412 0.8403 0.0303
vn -0.5582 0.8284 -0.0471
vn -0.5644 0.8203 -0.0923
vn -0.5598 0.8233 -0.0942
vn 0.4260 0.5980 -0.6789
vn 0.5942 0.7182 0.3620
vn 0.7574 0.5765 0.3065
vn 0.6868 0.6428 0.3393
vn 0.6875 0.6456 0.3326
vn 0.6550 0.6738 0.3420
vn 0.2323 0.7261 -0.6471
vn 0.2995 0.6857 -0.6634
vn 0.3386 0.6615 -0.6691
vn 0.3417 0.6641 -0.6649
vn 0.9042 0.3549 0.2375
vn 0.0536 0.5265 0.8485
vn 0.1313 0.3352 0.9330
vn 0.0909 0.4236 0.9013
vn 0.0978 0.4253 0.8998
vn 0.0838 0.4632 0.8823
vn 0.8336 0.5406 0.1131
vn 0.8638 0.4794 0.1551
vn 0.8778 0.4436 0.1809
vn 0.8757 0.4455 0.1860
vn -0.4114 0.3890 -0.8243
vn 0.6057 0.5546 -0.5706
vn 0.6199 0.3684 -0.6928
vn 0.6219 0.4545 -0.6377
vn 0.6162 0.4564 -0.6419
vn 0.6119 0.4933 -0.6183
vn -0.4605 0.5685 -0.6817
vn -0.4481 0.5095 -0.7346
vn -0.4375 0.4750 -0.7635
vn -0.4323 0.4770 -0.7652
vt 0.293163 4.954233
vt 0.335707 5.102386
vt 0.256239 5.121584
vt 0.223221 4.968729
vt 0.175693 5.135822
vt 0.151320 4.980035
vt 0.094539 5.145764
vt 0.078096 4.988136
vt 0.013009 5.151849
vt 0.004029 4.993052
vt -0.584866 4.929314
vt -0.628081 5.079594
vt -0.705487 5.055523
vt -0.654285 4.908113
vt -0.781809 5.026679
vt -0.721407 4.883933
vt -0.856398 4.991970
vt -0.785538 4.857168
vt 0.360203 4.936266
vt 0.413236 5.077391
vt -0.294208 4.983969
vt -0.312405 5.141077
vt -0.392384 5.130301
vt -0.368125 4.974604
vt -0.471659 5.116520
vt -0.441375 4.962482
vt -0.550155 5.099669
vt -0.513767 4.947629
vt -0.241421 2.600050
vt -0.454062 4.662862
vt -0.515127 4.650397
vt -0.287054 2.595921
vt -0.195598 2.604594
vt -0.391993 4.673619
vt -0.150025 2.608824
vt -0.329131 4.682603
vt -0.104669 2.614618
vt -0.265684 4.689755
vt 0.291596 2.637558
vt 0.296685 4.672284
vt 0.237514 4.681082
vt 0.247348 2.636929
vt -0.377666 2.588654
vt -0.633482 4.620934
vt -0.690571 4.604454
vt -0.422271 2.585449
vt -0.332488 2.592063
vt -0.574999 4.636364
vt 0.115928 2.632380
vt 0.053039 4.697609
vt -0.010181 4.699712
vt 0.072286 2.630153
vt 0.159513 2.634044
vt 0.115548 4.693747
vt 0.203420 2.635470
vt 0.177114 4.688206
vt -0.070491 4.994807
vt -0.073886 4.700003
vt -0.145156 4.994168
vt -0.137853 4.698458
vt 0.028491 2.627731
vt -0.219813 4.990525
vt -0.201855 4.695044
vt -0.015437 2.624221
vt -0.059929 2.619581
vt -0.231749 5.148830
vt -0.150513 5.153232
vt -0.068815 5.154324
vt 1.104587 -4.154323
vt 1.123525 -4.154323
vt 1.123525 -4.135385
vt 1.104587 -4.135385
vt 0.262872 -2.691121
vt 0.021697 1.325903
vt -0.059621 1.320553
vt 0.227556 -2.693887
vt 0.348980 -4.153643
vt 0.369727 -4.151359
vt 0.267777 1.360989
vt 0.186338 1.351366
vt 0.332625 -2.685394
vt 0.367538 -2.682805
vt -0.218992 1.312943
vt -0.139579 1.316848
vt -0.298631 1.307354
vt 0.297854 -2.689647
vt 0.120471 -2.705412
vt 0.155733 -2.700286
vt 0.191549 -2.695756
vt 0.391185 -4.148102
vt 0.104144 1.337590
vt 0.402582 -2.679829
vt 0.413236 -4.148011
vt 0.349201 1.364312
vt 0.327761 -4.154325
vt 0.000000 0.800000
vt 0.542651 0.800000
vt 0.549868 1.000000
vt 0.000000 1.000000
vt 0.521000 0.200000
vt 0.513783 0.000000
vt 1.000000 0.000000
vt 1.000000 0.200000
vt 1.000000 0.800000
vt 1.000000 1.000000
vt 0.535434 0.600000
vt 1.000000 0.600000
vt 0.528217 0.400000
vt 1.000000 0.400000
vt 0.000000 0.000000
vt 0.000000 0.200000
vt 0.000000 0.400000
vt 0.000000 0.600000
s 1
usemtl pine_bark_1
f 53/1/1 12/2/2 7/3/3 46/4/4
f 46/4/4 7/3/3 6/5/5 47/6/6
f 47/6/6 6/5/5 5/7/7 48/8/8
f 48/8/8 5/7/7 4/9/9 49/10/10
f 44/11/11 13/12/12 16/13/13 50/14/14
f 50/14/14 16/13/13 15/15/15 51/16/16
f 51/16/16 15/15/15 14/17/17 52/18/18
f 52/19/18 14/20/17 12/2/2 53/1/1
f 45/21/19 8/22/20 11/23/21 54/24/22
f 54/24/22 11/23/21 10/25/23 55/26/24
f 55/26/24 10/25/23 9/27/25 56/28/26
f 56/28/26 9/27/25 13/12/12 44/11/11
f 40/29/27 39/30/28 29/31/29 28/32/30
f 82/33/31 38/34/32 39/30/28 40/29/27
f 79/35/33 37/36/34 38/34/32 82/33/31
f 78/37/35 36/38/36 37/36/34 79/35/33
f 34/39/37 33/40/38 35/41/39 77/42/40
f 74/43/41 32/44/42 33/45/38 34/46/37
f 31/47/43 30/48/44 32/44/42 74/43/41
f 28/32/30 29/31/29 30/48/44 31/47/43
f 69/49/45 25/50/46 26/51/47 27/52/48
f 24/53/49 23/54/50 25/50/46 69/49/45
f 22/55/51 21/56/52 23/54/50 24/53/49
f 43/57/53 20/58/54 26/51/47 49/10/10
f 77/42/40 35/41/39 21/56/52 22/55/51
f 42/59/55 19/60/56 20/58/54 43/57/53
f 20/58/54 66/61/57 27/52/48 26/51/47
f 41/62/58 18/63/59 19/60/56 42/59/55
f 19/60/56 63/64/60 66/61/57 20/58/54
f 45/21/19 36/38/36 18/63/59 41/62/58
f 18/63/59 17/65/61 63/64/60 19/60/56
f 8/22/20 45/21/19 41/62/58 1/66/62
f 1/66/62 41/62/58 42/59/55 2/67/63
f 2/67/63 42/59/55 43/57/53 3/68/64
f 3/68/64 43/57/53 49/10/10 4/9/9
f 39/30/28 56/28/26 44/11/11 29/31/29
f 38/34/32 55/26/24 56/28/26 39/30/28
f 37/36/34 54/24/22 55/26/24 38/34/32
f 36/38/36 45/21/19 54/24/22 37/36/34
f 33/40/38 52/19/18 53/1/1 35/41/39
f 32/44/42 51/16/16 52/18/18 33/45/38
f 30/48/44 50/14/14 51/16/16 32/44/42
f 29/31/29 44/11/11 50/14/14 30/48/44
f 25/50/46 48/8/8 49/10/10 26/51/47
f 23/54/50 47/6/6 48/8/8 25/50/46
f 21/56/52 46/4/4 47/6/6 23/54/50
f 35/41/39 53/1/1 46/4/4 21/56/52
f 60/69/65 58/70/65 57/71/65 59/72/65
f 36/38/36 78/37/35 17/65/61 18/63/59
f 61/73/66 62/74/67 80/75/68 81/76/69
f 59/77/70 57/78/71 81/76/69
f 67/79/72 70/80/73 71/81/74 68/82/75
f 28/32/30 72/83/76 83/84/77
f 72/83/76 74/43/41 75/85/78
f 57/78/71 64/86/79 61/73/66
f 72/83/76 75/85/78 76/87/80 73/88/81
f 80/75/68 83/84/77 84/89/82 81/76/69
f 62/74/67 78/37/35 80/75/68
f 80/75/68 82/33/31 83/84/77
f 64/86/79 57/78/71 58/90/83
f 65/91/84 64/86/79 71/81/74 70/80/73
f 76/92/80 68/82/75 60/93/85
f 77/42/40 67/79/72 75/94/78
f 83/84/77 72/83/76 73/88/81 84/89/82
f 84/89/82 73/88/81 59/77/70
f 64/86/79 65/91/84 62/74/67 61/73/66
f 27/52/48 65/91/84 70/80/73
f 75/94/78 67/79/72 68/82/75 76/92/80
f 66/61/57 65/91/84 27/52/48
f 63/64/60 65/91/84 66/61/57
f 65/91/84 63/64/60 62/74/67
f 17/65/61 62/74/67 63/64/60
f 78/37/35 62/74/67 17/65/61
f 80/75/68 78/37/35 79/35/33
f 82/33/31 80/75/68 79/35/33
f 83/84/77 82/33/31 40/29/27
f 28/32/30 83/84/77 40/29/27
f 72/83/76 28/32/30 31/47/43
f 74/43/41 72/83/76 31/47/43
f 75/85/78 74/43/41 34/46/37
f 77/42/40 75/94/78 34/39/37
f 67/79/72 77/42/40 22/55/51
f 70/80/73 24/53/49 69/49/45
f 24/53/49 67/79/72 22/55/51
f 27/52/48 70/80/73 69/49/45
f 67/79/72 24/53/49 70/80/73
f 59/77/70 73/88/81 60/95/85
f 59/77/70 81/76/69 84/89/82
f 57/78/71 61/73/66 81/76/69
f 60/95/85 73/88/81 76/87/80
f 58/90/83 68/82/75 71/81/74
f 64/86/79 58/90/83 71/81/74
f 60/93/85 68/82/75 58/90/83
usemtl pine_branch_1
f 91/96/86 99/97/86 89/98/86 87/99/86
f 102/100/87 90/101/87 86/102/87 95/103/87
f 89/98/88 99/97/88 98/104/88 88/105/88
f 99/97/89 100/106/89 97/107/89 98/104/89
f 100/106/90 101/108/90 96/109/90 97/107/90
f 101/108/91 102/100/91 95/103/91 96/109/91
f 85/110/92 90/101/92 102/100/92 94/111/92
f 94/111/93 102/100/93 101/108/93 93/112/93
f 93/112/94 101/108/94 100/106/94 92/113/94
f 92/113/95 100/106/95 99/97/95 91/96/95
f 109/96/96 117/97/96 107/98/96 105/99/96
f 120/100/97 108/101/97 104/102/97 113/103/97
f 107/98/98 117/97/98 116/104/98 106/105/98
f 117/97/99 118/106/99 115/107/99 116/104/99
f 118/106/100 119/108/100 114/109/100 115/107/100
f 119/108/101 120/100/101 113/103/101 114/109/101
f 103/110/102 108/101/102 120/100/102 112/111/102
f 112/111/103 120/100/103 119/108/103 111/112/103
f 111/112/104 119/108/104 118/106/104 110/113/104
f 110/113/105 118/106/105 117/97/105 109/96/105
f 127/96/106 135/97/106 125/98/106 123/99/106
f 138/100/107 126/101/107 122/102/107 131/103/107
f 125/98/108 135/97/108 134/104/108 124/105/108
f 135/97/109 136/106/109 133/107/109 134/104/109
f 136/106/110 137/108/110 132/109/110 133/107/110
f 137/108/111 138/100/111 131/103/111 132/109/111
f 121/110/112 126/101/112 138/100/112 130/111/112
f 130/111/113 138/100/113 137/108/113 129/112/113
f 129/112/114 137/108/114 136/106/114 128/113/114
f 128/113/115 136/106/115 135/97/115 127/96/115
f 145/96/116 153/97/116 143/98/116 141/99/116
f 156/100/117 144/101/117 140/102/117 149/103/117
f 143/98/118 153/97/118 152/104/118 142/105/118
f 153/97/119 154/106/119 151/107/119 152/104/119
f 154/106/120 155/108/120 150/109/120 151/107/120
f 155/108/121 156/100/121 149/103/121 150/109/121
f 139/110/122 144/101/122 156/100/122 148/111/122
f 148/111/123 156/100/123 155/108/123 147/112/123
f 147/112/124 155/108/124 154/106/124 146/113/124
f 146/113/125 154/106/125 153/97/125 145/96/125
f 163/96/116 171/97/116 161/98/116 159/99/116
f 174/100/117 162/101/117 158/102/117 167/103/117
f 161/98/118 171/97/118 170/104/118 160/105/118
f 171/97/119 172/106/119 169/107/119 170/104/119
f 172/106/120 173/108/120 168/109/120 169/107/120
f 173/108/121 174/100/121 167/103/121 168/109/121
f 157/110/122 162/101/122 174/100/122 166/111/122
f 166/111/123 174/100/123 173/108/123 165/112/123
f 165/112/124 173/108/124 172/106/124 164/113/124
f 164/113/125 172/106/125 171/97/125 163/96/125
f 181/96/126 189/97/126 179/98/126 177/99/126
f 192/100/127 180/101/127 176/102/127 185/103/127
f 179/98/128 189/97/128 188/104/128 178/105/128
f 189/97/129 190/106/129 187/107/129 188/104/129
f 190/106/130 191/108/130 186/109/130 187/107/130
f 191/108/131 192/100/131 185/103/131 186/109/131
f 175/110/132 180/101/132 192/100/132 184/111/132
f 184/111/133 192/100/133 191/108/133 183/112/133
f 183/112/134 191/108/134 190/106/134 182/113/134
f 182/113/135 190/106/135 189/97/135 181/96/135
f 199/96/136 207/97/136 197/98/136 195/99/136
f 210/100/137 198/101/137 194/102/137 203/103/137
f 197/98/138 207/97/138 206/104/138 196/105/138
f 207/97/139 208/106/139 205/107/139 206/104/139
f 208/106/140 209/108/140 204/109/140 205/107/140
f 209/108/141 210/100/141 203/103/141 204/109/141
f 193/110/142 198/101/142 210/100/142 202/111/142
f 202/111/143 210/100/143 209/108/143 201/112/143
f 201/112/144 209/108/144 208/106/144 200/113/144
f 200/113/145 208/106/145 207/97/145 199/96/145
f 217/96/146 225/97/146 215/98/146 213/99/146
f 228/100/147 216/101/147 212/102/147 221/103/147
f 215/98/148 225/97/148 224/104/148 214/105/148
f 225/97/149 226/106/149 223/107/149 224/104/149
f 226/106/150 227/108/150 222/109/150 223/107/150
f 227/108/151 228/100/151 221/103/151 222/109/151
f 211/110/152 216/101/152 228/100/152 220/111/152
f 220/111/153 228/100/153 227/108/153 219/112/153
f 219/112/154 227/108/154 226/106/154 218/113/154
f 218/113/155 226/106/155 225/97/155 217/96/155
f 235/96/156 243/97/156 233/98/156 231/99/156
f 246/100/157 234/101/157 230/102/157 239/103/157
f 233/98/158 243/97/158 242/104/158 232/105/158
f 243/97/159 244/106/159 241/107/159 242/104/159
f 244/106/160 245/108/160 240/109/160 241/107/160
f 245/108/161 246/100/161 239/103/161 240/109/161
f 229/110/162 234/101/162 246/100/162 238/111/162
f 238/111/163 246/100/163 245/108/163 237/112/163
f 237/112/164 245/108/164 244/106/164 236/113/164
f 236/113/165 244/106/165 243/97/165 235/96/165
f 253/96/166 261/97/166 251/98/166 249/99/166
f 264/100/167 252/101/167 248/102/167 257/103/167
f 251/98/168 261/97/168 260/104/168 250/105/168
f 261/97/169 262/106/169 259/107/169 260/104/169
f 262/106/170 263/108/170 258/109/170 259/107/170
f 263/108/171 264/100/171 257/103/171 258/109/171
f 247/110/172 252/101/172 264/100/172 256/111/172
f 256/111/173 264/100/173 263/108/173 255/112/173
f 255/112/174 263/108/174 262/106/174 254/113/174
f 254/113/175 262/106/175 261/97/175 253/96/175
f 271/96/156 279/97/156 269/98/156 267/99/156
f 282/100/157 270/101/157 266/102/157 275/103/157
f 269/98/158 279/97/158 278/104/158 268/105/158
f 279/97/159 280/106/159 277/107/159 278/104/159
f 280/106/160 281/108/160 276/109/160 277/107/160
f 281/108/161 282/100/161 275/103/161 276/109/161
f 265/110/162 270/101/162 282/100/162 274/111/162
f 274/111/163 282/100/163 281/108/163 273/112/163
f 273/112/164 281/108/164 280/106/164 272/113/164
f 272/113/165 280/106/165 279/97/165 271/96/165
f 289/96/176 297/97/176 287/98/176 285/99/176
f 300/100/177 288/101/177 284/102/177 293/103/177
f 287/98/178 297/97/178 296/104/178 286/105/178
f 297/97/179 298/106/179 295/107/179 296/104/179
f 298/106/180 299/108/180 294/109/180 295/107/180
f 299/108/181 300/100/181 293/103/181 294/109/181
f 283/110/182 288/101/182 300/100/182 292/111/182
f 292/111/183 300/100/183 299/108/183 291/112/183
f 291/112/184 299/108/184 298/106/184 290/113/184
f 290/113/185 298/106/185 297/97/185 289/96/185
f 307/96/186 315/97/186 305/98/186 303/99/186
f 318/100/187 306/101/187 302/102/187 311/103/187
f 305/98/188 315/97/188 314/104/188 304/105/188
f 315/97/189 316/106/189 313/107/189 314/104/189
f 316/106/190 317/108/190 312/109/190 313/107/190
f 317/108/191 318/100/191 311/103/191 312/109/191
f 301/110/192 306/101/192 318/100/192 310/111/192
f 310/111/193 318/100/193 317/108/193 309/112/193
f 309/112/194 317/108/194 316/106/194 308/113/194
f 308/113/195 316/106/195 315/97/195 307/96/195
f 325/96/196 333/97/196 323/98/196 321/99/196
f 336/100/197 324/101/197 320/102/197 329/103/197
f 323/98/198 333/97/198 332/104/198 322/105/198
f 333/97/199 334/106/199 331/107/199 332/104/199
f 334/106/200 335/108/200 330/109/200 331/107/200
f 335/108/201 336/100/201 329/103/201 330/109/201
f 319/110/202 324/101/202 336/100/202 328/111/202
f 328/111/203 336/100/203 335/108/203 327/112/203
f 327/112/204 335/108/204 334/106/204 326/113/204
f 326/113/205 334/106/205 333/97/205 325/96/205
f 343/96/206 351/97/206 341/98/206 339/99/206
f 354/100/207 342/101/207 338/102/207 347/103/207
f 341/98/208 351/97/208 350/104/208 340/105/208
f 351/97/209 352/106/209 349/107/209 350/104/209
f 352/106/210 353/108/210 348/109/210 349/107/210
f 353/108/211 354/100/211 347/103/211 348/109/211
f 337/110/212 342/101/212 354/100/212 346/111/212
f 346/111/213 354/100/213 353/108/213 345/112/213
f 345/112/214 353/108/214 352/106/214 344/113/214
f 344/113/215 352/106/215 351/97/215 343/96/215
f 361/96/216 369/97/216 359/98/216 357/99/216
f 372/100/217 360/101/217 356/102/217 365/103/217
f 359/98/218 369/97/218 368/104/218 358/105/218
f 369/97/219 370/106/219 367/107/219 368/104/219
f 370/106/220 371/108/220 366/109/220 367/107/220
f 371/108/221 372/100/221 365/103/221 366/109/221
f 355/110/222 360/101/222 372/100/222 364/111/222
f 364/111/223 372/100/223 371/108/223 363/112/223
f 363/112/224 371/108/224 370/106/224 362/113/224
f 362/113/225 370/106/225 369/97/225 361/96/225
f 379/96/216 387/97/216 377/98/216 375/99/216
f 390/100/217 378/101/217 374/102/217 383/103/217
f 377/98/218 387/97/218 386/104/218 376/105/218
f 387/97/219 388/106/219 385/107/219 386/104/219
f 388/106/220 389/108/220 384/109/220 385/107/220
f 389/108/221 390/100/221 383/103/221 384/109/221
f 373/110/222 378/101/222 390/100/222 382/111/222
f 382/111/223 390/100/223 389/108/223 381/112/223
f 381/112/224 389/108/224 388/106/224 380/113/224
f 380/113/225 388/106/225 387/97/225 379/96/225
f 397/96/226 405/97/226 395/98/226 393/99/226
f 408/100/227 396/101/227 392/102/227 401/103/227
f 395/98/228 405/97/228 404/104/228 394/105/228
f 405/97/229 406/106/229 403/107/229 404/104/229
f 406/106/230 407/108/230 402/109/230 403/107/230
f 407/108/231 408/100/231 401/103/231 402/109/231
f 391/110/232 396/101/232 408/100/232 400/111/232
f 400/111/233 408/100/233 407/108/233 399/112/233
f 399/112/234 407/108/234 406/106/234 398/113/234
f 398/113/235 406/106/235 405/97/235 397/96/235
f 415/96/236 423/97/236 413/98/236 411/99/236
f 426/100/237 414/101/237 410/102/237 419/103/237
f 413/98/238 423/97/238 422/104/238 412/105/238
f 423/97/239 424/106/239 421/107/239 422/104/239
f 424/106/240 425/108/240 420/109/240 421/107/240
f 425/108/241 426/100/241 419/103/241 420/109/241
f 409/110/242 414/101/242 426/100/242 418/111/242
f 418/111/243 426/100/243 425/108/243 417/112/243
f 417/112/244 425/108/244 424/106/244 416/113/244
f 416/113/245 424/106/245 423/97/245 415/96/245
f 433/96/236 441/97/236 431/98/236 429/99/236
f 444/100/237 432/101/237 428/102/237 437/103/237
f 431/98/238 441/97/238 440/104/238 430/105/238
f 441/97/239 442/106/239 439/107/239 440/104/239
f 442/106/240 443/108/240 438/109/240 439/107/240
f 443/108/241 444/100/241 437/103/241 438/109/241
f 427/110/242 432/101/242 444/100/242 436/111/242
f 436/111/243 444/100/243 443/108/243 435/112/243
f 435/112/244 443/108/244 442/106/244 434/113/244
f 434/113/245 442/106/245 441/97/245 433/96/245
f 451/96/246 459/97/246 449/98/246 447/99/246
f 462/100/247 450/101/247 446/102/247 455/103/247
f 449/98/248 459/97/248 458/104/248 448/105/248
f 459/97/249 460/106/249 457/107/249 458/104/249
f 460/106/250 461/108/250 456/109/250 457/107/250
f 461/108/251 462/100/251 455/103/251 456/109/251
f 445/110/252 450/101/252 462/100/252 454/111/252
f 454/111/253 462/100/253 461/108/253 453/112/253
f 453/112/254 461/108/254 460/106/254 452/113/254
f 452/113/255 460/106/255 459/97/255 451/96/255
f 469/96/256 477/97/256 467/98/256 465/99/256
f 480/100/257 468/101/257 464/102/257 473/103/257
f 467/98/258 477/97/258 476/104/258 466/105/258
f 477/97/259 478/106/259 475/107/259 476/104/259
f 478/106/260 479/108/260 474/109/260 475/107/260
f 479/108/261 480/100/261 473/103/261 474/109/261
f 463/110/262 468/101/262 480/100/262 472/111/262
f 472/111/263 480/100/263 479/108/263 471/112/263
f 471/112/264 479/108/264 478/106/264 470/113/264
f 470/113/265 478/106/265 477/97/265 469/96/265
f 487/96/266 495/97/266 485/98/266 483/99/266
f 498/100/267 486/101/267 482/102/267 491/103/267
f 485/98/268 495/97/268 494/104/268 484/105/268
f 495/97/269 496/106/269 493/107/269 494/104/269
f 496/106/270 497/108/270 492/109/270 493/107/270
f 497/108/271 498/100/271 491/103/271 492/109/271
f 481/110/272 486/101/272 498/100/272 490/111/272
f 490/111/273 498/100/273 497/108/273 489/112/273
f 489/112/274 497/108/274 496/106/274 488/113/274
f 488/113/275 496/106/275 495/97/275 487/96/275
f 505/96/276 513/97/276 503/98/276 501/99/276
f 516/100/277 504/101/277 500/102/277 509/103/277
f 503/98/278 513/97/278 512/104/278 502/105/278
f 513/97/279 514/106/279 511/107/279 512/104/279
f 514/106/280 515/108/280 510/109/280 511/107/280
f 515/108/281 516/100/281 509/103/281 510/109/281
f 499/110/282 504/101/282 516/100/282 508/111/282
f 508/111/283 516/100/283 515/108/283 507/112/283
f 507/112/284 515/108/284 514/106/284 506/113/284
f 506/113/285 514/106/285 513/97/285 505/96/285
f 523/96/276 531/97/276 521/98/276 519/99/276
f 534/100/277 522/101/277 518/102/277 527/103/277
f 521/98/278 531/97/278 530/104/278 520/105/278
f 531/97/279 532/106/279 529/107/279 530/104/279
f 532/106/280 533/108/280 528/109/280 529/107/280
f 533/108/281 534/100/281 527/103/281 528/109/281
f 517/110/282 522/101/282 534/100/282 526/111/282
f 526/111/283 534/100/283 533/108/283 525/112/283
f 525/112/284 533/108/284 532/106/284 524/113/284
f 524/113/285 532/106/285 531/97/285 523/96/285
f 541/96/286 549/97/286 539/98/286 537/99/286
f 552/100/287 540/101/287 536/102/287 545/103/287
f 539/98/288 549/97/288 548/104/288 538/105/288
f 549/97/289 550/106/289 547/107/289 548/104/289
f 550/106/290 551/108/290 546/109/290 547/107/290
f 551/108/291 552/100/291 545/103/291 546/109/291
f 535/110/292 540/101/292 552/100/292 544/111/292
f 544/111/293 552/100/293 551/108/293 543/112/293
f 543/112/294 551/108/294 550/106/294 542/113/294
f 542/113/295 550/106/295 549/97/295 541/96/295
f 559/96/296 567/97/296 557/98/296 555/99/296
f 570/100/297 558/101/297 554/102/297 563/103/297
f 557/98/298 567/97/298 566/104/298 556/105/298
f 567/97/299 568/106/299 565/107/299 566/104/299
f 568/106/300 569/108/300 564/109/300 565/107/300
f 569/108/301 570/100/301 563/103/301 564/109/301
f 553/110/302 558/101/302 570/100/302 562/111/302
f 562/111/303 570/100/303 569/108/303 561/112/303
f 561/112/304 569/108/304 568/106/304 560/113/304
f 560/113/305 568/106/305 567/97/305 559/96/305
f 577/96/306 585/97/306 575/98/306 573/99/306
f 588/100/307 576/101/307 572/102/307 581/103/307
f 575/98/308 585/97/308 584/104/308 574/105/308
f 585/97/309 586/106/309 583/107/309 584/104/309
f 586/106/310 587/108/310 582/109/310 583/107/310
f 587/108/311 588/100/311 581/103/311 582/109/311
f 571/110/312 576/101/312 588/100/312 580/111/312
f 580/111/313 588/100/313 587/108/313 579/112/313
f 579/112/314 587/108/314 586/106/314 578/113/314
f 578/113/315 586/106/315 585/97/315 577/96/315
f 595/96/316 603/97/316 593/98/316 591/99/316
f 606/100/317 594/101/317 590/102/317 599/103/317
f 593/98/318 603/97/318 602/104/318 592/105/318
f 603/97/319 604/106/319 601/107/319 602/104/319
f 604/106/320 605/108/320 600/109/320 601/107/320
f 605/108/321 606/100/321 599/103/321 600/109/321
f 589/110/322 594/101/322 606/100/322 598/111/322
f 598/111/323 606/100/323 605/108/323 597/112/323
f 597/112/324 605/108/324 604/106/324 596/113/324
f 596/113/325 604/106/325 603/97/325 595/96/325
f 613/96/306 621/97/306 611/98/306 609/99/306
f 624/100/307 612/101/307 608/102/307 617/103/307
f 611/98/308 621/97/308 620/104/308 610/105/308
f 621/97/309 622/106/309 619/107/309 620/104/309
f 622/106/310 623/108/310 618/109/310 619/107/310
f 623/108/311 624/100/311 617/103/311 618/109/311
f 607/110/312 612/101/312 624/100/312 616/111/312
f 616/111/313 624/100/313 623/108/313 615/112/313
f 615/112/314 623/108/314 622/106/314 614/113/314
f 614/113/315 622/106/315 621/97/315 613/96/315
f 631/96/326 639/97/326 629/98/326 627/99/326
f 642/100/327 630/101/327 626/102/327 635/103/327
f 629/98/328 639/97/328 638/104/328 628/105/328
f 639/97/329 640/106/329 637/107/329 638/104/329
f 640/106/330 641/108/330 636/109/330 637/107/330
f 641/108/331 642/100/331 635/103/331 636/109/331
f 625/110/332 630/101/332 642/100/332 634/111/332
f 634/111/333 642/100/333 641/108/333 633/112/333
f 633/112/334 641/108/334 640/106/334 632/113/334
f 632/113/335 640/106/335 639/97/335 631/96/335
f 649/96/336 657/97/336 647/98/336 645/99/336
f 660/100/337 648/101/337 644/102/337 653/103/337
f 647/98/338 657/97/338 656/104/338 646/105/338
f 657/97/339 658/106/339 655/107/339 656/104/339
f 658/106/340 659/108/340 654/109/340 655/107/340
f 659/108/341 660/100/341 653/103/341 654/109/341
f 643/110/342 648/101/342 660/100/342 652/111/342
f 652/111/343 660/100/343 659/108/343 651/112/343
f 651/112/344 659/108/344 658/106/344 650/113/344
f 650/113/345 658/106/345 657/97/345 649/96/345
f 667/96/346 675/97/346 665/98/346 663/99/346
f 678/100/347 666/101/347 662/102/347 671/103/347
f 665/98/348 675/97/348 674/104/348 664/105/348
f 675/97/349 676/106/349 673/107/349 674/104/349
f 676/106/350 677/108/350 672/109/350 673/107/350
f 677/108/351 678/100/351 671/103/351 672/109/351
f 661/110/352 666/101/352 678/100/352 670/111/352
f 670/111/353 678/100/353 677/108/353 669/112/353
f 669/112/354 677/108/354 676/106/354 668/113/354
f 668/113/355 676/106/355 675/97/355 667/96/355
f 685/96/356 693/97/356 683/98/356 681/99/356
f 696/100/357 684/101/357 680/102/357 689/103/357
f 683/98/358 693/97/358 692/104/358 682/105/358
f 693/97/359 694/106/359 691/107/359 692/104/359
f 694/106/360 695/108/360 690/109/360 691/107/360
f 695/108/361 696/100/361 689/103/361 690/109/361
f 679/110/362 684/101/362 696/100/362 688/111/362
f 688/111/363 696/100/363 695/108/363 687/112/363
f 687/112/364 695/108/364 694/106/364 686/113/364
f 686/113/365 694/106/365 693/97/365 685/96/365
f 703/96/366 711/97/366 701/98/366 699/99/366
f 714/100/367 702/101/367 698/102/367 707/103/367
f 701/98/368 711/97/368 710/104/368 700/105/368
f 711/97/369 712/106/369 709/107/369 710/104/369
f 712/106/370 713/108/370 708/109/370 709/107/370
f 713/108/371 714/100/371 707/103/371 708/109/371
f 697/110/372 702/101/372 714/100/372 706/111/372
f 706/111/373 714/100/373 713/108/373 705/112/373
f 705/112/374 713/108/374 712/106/374 704/113/374
f 704/113/375 712/106/375 711/97/375 703/96/375
f 721/96/376 729/97/376 719/98/376 717/99/376
f 732/100/377 720/101/377 716/102/377 725/103/377
f 719/98/378 729/97/378 728/104/378 718/105/378
f 729/97/379 730/106/379 727/107/379 728/104/379
f 730/106/380 731/108/380 726/109/380 727/107/380
f 731/108/381 732/100/381 725/103/381 726/109/381
f 715/110/382 720/101/382 732/100/382 724/111/382
f 724/111/383 732/100/383 731/108/383 723/112/383
f 723/112/384 731/108/384 730/106/384 722/113/384
f 722/113/385 730/106/385 729/97/385 721/96/385
f 739/96/386 747/97/386 737/98/386 735/99/386
f 750/100/387 738/101/387 734/102/387 743/103/387
f 737/98/388 747/97/388 746/104/388 736/105/388
f 747/97/389 748/106/389 745/107/389 746/104/389
f 748/106/390 749/108/390 744/109/390 745/107/390
f 749/108/391 750/100/391 743/103/391 744/109/391
f 733/110/392 738/101/392 750/100/392 742/111/392
f 742/111/393 750/100/393 749/108/393 741/112/393
f 741/112/394 749/108/394 748/106/394 740/113/394
f 740/113/395 748/106/395 747/97/395 739/96/395
f 757/96/396 765/97/396 755/98/396 753/99/396
f 768/100/397 756/101/397 752/102/397 761/103/397
f 755/98/398 765/97/398 764/104/398 754/105/398
f 765/97/399 766/106/399 763/107/399 764/104/399
f 766/106/400 767/108/400 762/109/400 763/107/400
f 767/108/401 768/100/401 761/103/401 762/109/401
f 751/110/402 756/101/402 768/100/402 760/111/402
f 760/111/403 768/100/403 767/108/403 759/112/403
f 759/112/404 767/108/404 766/106/404 758/113/404
f 758/113/405 766/106/405 765/97/405 757/96/405
f 775/96/406 783/97/406 773/98/406 771/99/406
f 786/100/407 774/101/407 770/102/407 779/103/407
f 773/98/408 783/97/408 782/104/408 772/105/408
f 783/97/409 784/106/409 781/107/409 782/104/409
f 784/106/410 785/108/410 780/109/410 781/107/410
f 785/108/411 786/100/411 779/103/411 780/109/411
f 769/110/412 774/101/412 786/100/412 778/111/412
f 778/111/413 786/100/413 785/108/413 777/112/413
f 777/112/414 785/108/414 784/106/414 776/113/414
f 776/113/415 784/106/415 783/97/415 775/96/415
f 793/96/416 801/97/416 791/98/416 789/99/416
f 804/100/417 792/101/417 788/102/417 797/103/417
f 791/98/418 801/97/418 800/104/418 790/105/418
f 801/97/419 802/106/419 799/107/419 800/104/419
f 802/106/420 803/108/420 798/109/420 799/107/420
f 803/108/421 804/100/421 797/103/421 798/109/421
f 787/110/422 792/101/422 804/100/422 796/111/422
f 796/111/423 804/100/423 803/108/423 795/112/423
f 795/112/424 803/108/424 802/106/424 794/113/424
f 794/113/425 802/106/425 801/97/425 793/96/425
f 811/96/426 819/97/426 809/98/426 807/99/426
f 822/100/427 810/101/427 806/102/427 815/103/427
f 809/98/428 819/97/428 818/104/428 808/105/428
f 819/97/429 820/106/429 817/107/429 818/104/429
f 820/106/430 821/108/430 816/109/430 817/107/430
f 821/108/431 822/100/431 815/103/431 816/109/431
f 805/110/432 810/101/432 822/100/432 814/111/432
f 814/111/433 822/100/433 821/108/433 813/112/433
f 813/112/434 821/108/434 820/106/434 812/113/434
f 812/113/435 820/106/435 819/97/435 811/96/435
f 829/96/436 837/97/436 827/98/436 825/99/436
f 840/100/437 828/101/437 824/102/437 833/103/437
f 827/98/438 837/97/438 836/104/438 826/105/438
f 837/97/439 838/106/439 835/107/439 836/104/439
f 838/106/440 839/108/440 834/109/440 835/107/440
f 839/108/441 840/100/441 833/103/441 834/109/441
f 823/110/442 828/101/442 840/100/442 832/111/442
f 832/111/443 840/100/443 839/108/443 831/112/443
f 831/112/444 839/108/444 838/106/444 830/113/444
f 830/113/445 838/106/445 837/97/445 829/96/445
f 847/96/446 855/97/446 845/98/446 843/99/446
f 858/100/447 846/101/447 842/102/447 851/103/447
f 845/98/448 855/97/448 854/104/448 844/105/448
f 855/97/449 856/106/449 853/107/449 854/104/449
f 856/106/450 857/108/450 852/109/450 853/107/450
f 857/108/451 858/100/451 851/103/451 852/109/451
f 841/110/452 846/101/452 858/100/452 850/111/452
f 850/111/453 858/100/453 857/108/453 849/112/453
f 849/112/454 857/108/454 856/106/454 848/113/454
f 848/113/455 856/106/455 855/97/455 847/96/455
f 865/96/456 873/97/456 863/98/456 861/99/456
f 876/100/457 864/101/457 860/102/457 869/103/457
f 863/98/458 873/97/458 872/104/458 862/105/458
f 873/97/459 874/106/459 871/107/459 872/104/459
f 874/106/460 875/108/460 870/109/460 871/107/460
f 875/108/461 876/100/461 869/103/461 870/109/461
f 859/110/462 864/101/462 876/100/462 868/111/462
f 868/111/463 876/100/463 875/108/463 867/112/463
f 867/112/464 875/108/464 874/106/464 866/113/464
f 866/113/465 874/106/465 873/97/465 865/96/465
f 883/96/466 891/97/466 881/98/466 879/99/466
f 894/100/467 882/101/467 878/102/467 887/103/467
f 881/98/468 891/97/468 890/104/468 880/105/468
f 891/97/469 892/106/469 889/107/469 890/104/469
f 892/106/470 893/108/470 888/109/470 889/107/470
f 893/108/471 894/100/471 887/103/471 888/109/471
f 877/110/472 882/101/472 894/100/472 886/111/472
f 886/111/473 894/100/473 893/108/473 885/112/473
f 885/112/474 893/108/474 892/106/474 884/113/474
f 884/113/475 892/106/475 891/97/475 883/96/475
f 901/96/476 909/97/476 899/98/476 897/99/476
f 912/100/477 900/101/477 896/102/477 905/103/477
f 899/98/478 909/97/478 908/104/478 898/105/478
f 909/97/479 910/106/479 907/107/479 908/104/479
f 910/106/480 911/108/480 906/109/480 907/107/480
f 911/108/481 912/100/481 905/103/481 906/109/481
f 895/110/482 900/101/482 912/100/482 904/111/482
f 904/111/483 912/100/483 911/108/483 903/112/483
f 903/112/484 911/108/484 910/106/484 902/113/484
f 902/113/485 910/106/485 909/97/485 901/96/485
f 919/96/486 927/97/486 917/98/486 915/99/486
f 930/100/487 918/101/487 914/102/487 923/103/487
f 917/98/488 927/97/488 926/104/488 916/105/488
f 927/97/489 928/106/489 925/107/489 926/104/489
f 928/106/490 929/108/490 924/109/490 925/107/490
f 929/108/491 930/100/491 923/103/491 924/109/491
f 913/110/492 918/101/492 930/100/492 922/111/492
f 922/111/493 930/100/493 929/108/493 921/112/493
f 921/112/494 929/108/494 928/106/494 920/113/494
f 920/113/495 928/106/495 927/97/495 919/96/495
f 937/96/496 945/97/496 935/98/496 933/99/496
f 948/100/497 936/101/497 932/102/497 941/103/497
f 935/98/498 945/97/498 944/104/498 934/105/498
f 945/97/499 946/106/499 943/107/499 944/104/499
f 946/106/500 947/108/500 942/109/500 943/107/500
f 947/108/501 948/100/501 941/103/501 942/109/501
f 931/110/502 936/101/502 948/100/502 940/111/502
f 940/111/503 948/100/503 947/108/503 939/112/503
f 939/112/504 947/108/504 946/106/504 938/113/504
f 938/113/505 946/106/505 945/97/505 937/96/505
f 955/96/506 963/97/506 953/98/506 951/99/506
f 966/100/507 954/101/507 950/102/507 959/103/507
f 953/98/508 963/97/508 962/104/508 952/105/508
f 963/97/509 964/106/509 961/107/509 962/104/509
f 964/106/510 965/108/510 960/109/510 961/107/510
f 965/108/511 966/100/511 959/103/511 960/109/511
f 949/110/512 954/101/512 966/100/512 958/111/512
f 958/111/513 966/100/513 965/108/513 957/112/513
f 957/112/514 965/108/514 964/106/514 956/113/514
f 956/113/515 964/106/515 963/97/515 955/96/515
f 973/96/516 981/97/516 971/98/516 969/99/516
f 984/100/517 972/101/517 968/102/517 977/103/517
f 971/98/518 981/97/518 980/104/518 970/105/518
f 981/97/519 982/106/519 979/107/519 980/104/519
f 982/106/520 983/108/520 978/109/520 979/107/520
f 983/108/521 984/100/521 977/103/521 978/109/521
f 967/110/522 972/101/522 984/100/522 976/111/522
f 976/111/523 984/100/523 983/108/523 975/112/523
f 975/112/524 983/108/524 982/106/524 974/113/524
f 974/113/525 982/106/525 981/97/525 973/96/525
f 991/96/526 999/97/526 989/98/526 987/99/526
f 1002/100/527 990/101/527 986/102/527 995/103/527
f 989/98/528 999/97/528 998/104/528 988/105/528
f 999/97/529 1000/106/529 997/107/529 998/104/529
f 1000/106/530 1001/108/530 996/109/530 997/107/530
f 1001/108/531 1002/100/531 995/103/531 996/109/531
f 985/110/532 990/101/532 1002/100/532 994/111/532
f 994/111/533 1002/100/533 1001/108/533 993/112/533
f 993/112/534 1001/108/534 1000/106/534 992/113/534
f 992/113/535 1000/106/535 999/97/535 991/96/535
f 1009/96/536 1017/97/536 1007/98/536 1005/99/536
f 1020/100/537 1008/101/537 1004/102/537 1013/103/537
f 1007/98/538 1017/97/538 1016/104/538 1006/105/538
f 1017/97/539 1018/106/539 1015/107/539 1016/104/539
f 1018/106/540 1019/108/540 1014/109/540 1015/107/540
f 1019/108/541 1020/100/541 1013/103/541 1014/109/541
f 1003/110/542 1008/101/542 1020/100/542 1012/111/542
f 1012/111/543 1020/100/543 1019/108/543 1011/112/543
f 1011/112/544 1019/108/544 1018/106/544 1010/113/544
f 1010/113/545 1018/106/545 1017/97/545 1009/96/545
f 1027/96/546 1035/97/546 1025/98/546 1023/99/546
f 1038/100/547 1026/101/547 1022/102/547 1031/103/547
f 1025/98/548 1035/97/548 1034/104/548 1024/105/548
f 1035/97/549 1036/106/549 1033/107/549 1034/104/549
f 1036/106/550 1037/108/550 1032/109/550 1033/107/550
f 1037/108/551 1038/100/551 1031/103/551 1032/109/551
f 1021/110/552 1026/101/552 1038/100/552 1030/111/552
f 1030/111/553 1038/100/553 1037/108/553 1029/112/553
f 1029/112/554 1037/108/554 1036/106/554 1028/113/554
f 1028/113/555 1036/106/555 1035/97/555 1027/96/555
f 1045/96/556 1053/97/556 1043/98/556 1041/99/556
f 1056/100/557 1044/101/557 1040/102/557 1049/103/557
f 1043/98/558 1053/97/558 1052/104/558 1042/105/558
f 1053/97/559 1054/106/559 1051/107/559 1052/104/559
f 1054/106/560 1055/108/560 1050/109/560 1051/107/560
f 1055/108/561 1056/100/561 1049/103/561 1050/109/561
f 1039/110/562 1044/101/562 1056/100/562 1048/111/562
f 1048/111/563 1056/100/563 1055/108/563 1047/112/563
f 1047/112/564 1055/108/564 1054/106/564 1046/113/564
f 1046/113/565 1054/106/565 1053/97/565 1045/96/565
f 1063/96/566 1071/97/566 1061/98/566 1059/99/566
f 1074/100/567 1062/101/567 1058/102/567 1067/103/567
f 1061/98/568 1071/97/568 1070/104/568 1060/105/568
f 1071/97/569 1072/106/569 1069/107/569 1070/104/569
f 1072/106/570 1073/108/570 1068/109/570 1069/107/570
f 1073/108/571 1074/100/571 1067/103/571 1068/109/571
f 1057/110/572 1062/101/572 1074/100/572 1066/111/572
f 1066/111/573 1074/100/573 1073/108/573 1065/112/573
f 1065/112/574 1073/108/574 1072/106/574 1064/113/574
f 1064/113/575 1072/106/575 1071/97/575 1063/96/575
