# Blender 5.0.1
# www.blender.org
mtllib pine_tree_n_2_3.mtl
o pine_tree_n_2_3
v -0.017788 -0.000000 0.159003
v -0.070666 -0.000000 0.135037
v -0.113540 -0.000000 0.091813
v -0.142031 0.000000 0.039615
v -0.151801 -0.000000 -0.013610
v -0.147171 0.000000 -0.077704
v -0.109849 0.000000 -0.124001
v 0.041340 -0.000000 0.152657
v 0.146942 0.000000 0.010792
v 0.130178 0.000000 0.067848
v 0.097715 0.000000 0.116963
v -0.045517 0.000000 -0.145454
v 0.154638 0.000000 -0.049640
v 0.013610 0.000000 -0.151801
v 0.070666 0.000000 -0.135037
v 0.126147 0.000000 -0.101838
v -0.019784 1.638403 0.071810
v -0.009338 0.295757 0.104159
v -0.048487 0.295757 0.092656
v -0.080254 0.295757 0.067048
v -0.067047 0.295757 -0.080255
v -0.060734 1.638403 -0.059046
v -0.092656 0.295757 -0.048488
v -0.078905 1.638403 -0.036504
v -0.104158 0.295757 -0.009339
v -0.099803 0.295757 0.031232
v -0.083977 1.638403 0.020063
v 0.057661 1.638403 -0.024260
v 0.099805 0.295757 -0.031232
v 0.080256 0.295757 -0.067048
v 0.043789 1.638403 -0.049674
v 0.048489 0.295757 -0.092657
v 0.009340 0.295757 -0.104159
v -0.006531 1.638403 -0.076007
v -0.031231 0.295757 -0.099804
v 0.031233 0.295757 0.099804
v 0.067049 0.295757 0.080255
v 0.092657 0.295757 0.048488
v 0.104160 0.295757 0.009339
v 0.060751 1.638403 0.004528
v -0.011170 0.106639 0.124589
v -0.057998 0.106639 0.110830
v -0.095996 0.106639 0.080199
v 0.119380 0.106639 -0.037358
v 0.037358 0.106639 0.119380
v -0.080198 0.106639 -0.095997
v -0.110830 0.106639 -0.057998
v -0.124588 0.106639 -0.011171
v -0.119379 0.106639 0.037358
v 0.095997 0.106639 -0.080199
v 0.057999 0.106639 -0.110831
v 0.011171 0.106639 -0.124589
v -0.037357 0.106639 -0.119380
v 0.080199 0.106639 0.095996
v 0.110831 0.106639 0.057998
v 0.124589 0.106639 0.011170
v -0.000755 5.734412 0.008500
v -0.008495 5.734412 -0.000765
v 0.008509 5.734412 0.000760
v 0.000770 5.734412 -0.008504
v -0.016264 4.915210 0.020129
v -0.025491 2.457605 0.069418
v -0.047561 1.638403 0.063648
v -0.034358 4.915210 0.010660
v -0.071401 2.457605 0.045392
v -0.070102 1.638403 0.045476
v -0.062851 2.457605 -0.049971
v -0.030989 4.915210 -0.026925
v -0.087064 1.638403 -0.008726
v -0.086877 2.457605 -0.004060
v -0.040458 4.915210 -0.008831
v 0.032512 2.457605 -0.041421
v 0.006596 4.915210 -0.023555
v 0.021251 1.638403 -0.067846
v -0.013399 2.457605 -0.065446
v -0.011499 4.915210 -0.033024
v -0.035317 1.638403 -0.072918
v 0.009006 1.638403 0.068720
v 0.034421 1.638403 0.054848
v 0.023962 2.457605 0.053942
v 0.003226 4.915210 0.014029
v 0.052592 1.638403 0.032307
v 0.047987 2.457605 0.008032
v 0.012695 4.915210 -0.004065
v 0.248348 3.998243 -0.059034
v -0.236864 3.998243 0.092804
v 0.476331 3.863634 0.669506
v -0.008881 3.863635 0.821344
v 0.209573 4.025033 0.753139
v -0.000901 4.159640 0.019120
v 0.430741 3.912656 0.523817
v 0.385145 3.941709 0.378111
v 0.339549 3.970853 0.232405
v 0.293951 3.991730 0.086692
v -0.191262 3.991730 0.238530
v -0.145663 3.970853 0.384244
v -0.100067 3.941709 0.529950
v -0.054471 3.912656 0.675655
v 0.167484 4.074054 0.606355
v 0.125390 4.103106 0.459553
v 0.083296 4.132251 0.312751
v 0.041199 4.153128 0.165942
v 0.189622 4.420816 -0.079326
v -0.204480 4.419097 0.072090
v 0.413093 4.252559 0.500412
v 0.018991 4.250840 0.651827
v 0.200242 4.385086 0.595216
v -0.009007 4.553406 0.010015
v 0.368927 4.304487 0.386045
v 0.324284 4.339900 0.270250
v 0.279642 4.375390 0.154462
v 0.234804 4.404042 0.038082
v -0.159299 4.402323 0.189497
v -0.114460 4.373670 0.305877
v -0.069819 4.338181 0.421666
v -0.025176 4.302767 0.537461
v 0.158920 4.437026 0.479757
v 0.117121 4.472452 0.362869
v 0.075324 4.507954 0.245988
v 0.033330 4.536619 0.128515
v -0.081763 4.609978 -0.212057
v 0.046438 4.609397 0.189922
v 0.494930 4.392471 -0.396292
v 0.623130 4.391891 0.005688
v 0.587231 4.524134 -0.182021
v 0.005912 4.741662 -0.012292
v 0.382577 4.454045 -0.360371
v 0.267527 4.499289 -0.323614
v 0.152489 4.544607 -0.286860
v 0.036333 4.583165 -0.249760
v 0.164534 4.582585 0.152220
v 0.280689 4.544027 0.115120
v 0.395727 4.498708 0.078366
v 0.510778 4.453465 0.041608
v 0.473953 4.585711 -0.149001
v 0.357977 4.630960 -0.115145
v 0.242014 4.676283 -0.081292
v 0.124933 4.714845 -0.047093
v -0.058466 3.049330 -0.263891
v 0.098062 3.049331 0.236306
v 0.694673 2.923679 -0.499573
v 0.851201 2.923679 0.000624
v 0.778247 3.090041 -0.223750
v 0.019460 3.215693 -0.006118
v 0.543703 2.971589 -0.452330
v 0.393043 2.998916 -0.405183
v 0.242381 3.026337 -0.358036
v 0.091846 3.045237 -0.310929
v 0.248374 3.045237 0.189268
v 0.398909 3.026337 0.142161
v 0.549571 2.998916 0.095014
v 0.700232 2.971589 0.047867
v 0.626148 3.137951 -0.180117
v 0.474357 3.165278 -0.136580
v 0.322566 3.192699 -0.093043
v 0.170902 3.211599 -0.049545
v -0.059702 2.676955 -0.312182
v 0.119722 2.676955 0.261181
v 0.803601 2.532924 -0.582337
v 0.983025 2.532924 -0.008975
v 0.899400 2.723620 -0.266169
v 0.029622 2.867652 -0.016703
v 0.630548 2.587842 -0.528184
v 0.457850 2.619166 -0.474141
v 0.285150 2.650598 -0.420097
v 0.112597 2.672262 -0.366100
v 0.292021 2.672262 0.207263
v 0.464574 2.650598 0.153265
v 0.637274 2.619166 0.099222
v 0.809972 2.587842 0.045179
v 0.725052 2.778538 -0.216153
v 0.551059 2.809862 -0.166248
v 0.377064 2.841295 -0.116342
v 0.203216 2.862959 -0.066483
v -0.079035 2.131794 -0.287639
v 0.105747 2.131794 0.302845
v 0.774662 1.832282 -0.554789
v 0.959444 1.832282 0.035695
v 0.904185 2.026507 -0.238837
v 0.043819 2.326019 0.007005
v 0.607745 1.918779 -0.502555
v 0.437375 1.981246 -0.449241
v 0.267019 2.043823 -0.395931
v 0.095234 2.096451 -0.342174
v 0.280016 2.096451 0.248310
v 0.451801 2.043823 0.194553
v 0.622156 1.981246 0.141243
v 0.792527 1.918779 0.087929
v 0.735934 2.113004 -0.190865
v 0.564229 2.175471 -0.141812
v 0.392540 2.238048 -0.092763
v 0.219422 2.290676 -0.043268
v 0.117663 4.049479 -0.194974
v -0.096855 4.049479 0.214953
v 0.737550 3.959466 0.129417
v 0.523032 3.959466 0.539345
v 0.613653 4.106187 0.351715
v 0.001507 4.196200 0.012531
v 0.612759 3.997558 0.064113
v 0.488703 4.017498 -0.000806
v 0.364644 4.037521 -0.065727
v 0.240889 4.050028 -0.130489
v 0.026371 4.050028 0.279439
v 0.150126 4.037521 0.344200
v 0.274185 4.017498 0.409121
v 0.398241 3.997558 0.474041
v 0.490411 4.144279 0.283452
v 0.367903 4.164219 0.215575
v 0.245392 4.184242 0.147695
v 0.123185 4.196750 0.079975
v 0.109846 3.495608 -0.202553
v -0.111808 3.495608 0.221005
v 0.735824 3.316501 0.125030
v 0.514169 3.316501 0.548588
v 0.623973 3.467838 0.363180
v 0.005994 3.646944 0.020313
v 0.612002 3.373045 0.060232
v 0.486939 3.410864 -0.005215
v 0.361881 3.448770 -0.070660
v 0.236310 3.478923 -0.136373
v 0.014656 3.478923 0.287186
v 0.140227 3.448770 0.352899
v 0.265284 3.410864 0.418343
v 0.390347 3.373045 0.483790
v 0.501751 3.524381 0.295325
v 0.378287 3.562200 0.226821
v 0.254830 3.600106 0.158320
v 0.130858 3.630259 0.089550
v 0.246577 3.662023 -0.044958
v -0.246320 3.662023 0.109286
v 0.478577 3.533210 0.696414
v -0.014320 3.533210 0.850658
v 0.207094 3.697157 0.779774
v -0.007120 3.825970 0.032837
v 0.432115 3.581421 0.547941
v 0.385709 3.609349 0.399647
v 0.339302 3.637369 0.251353
v 0.292919 3.656991 0.103133
v -0.199977 3.656991 0.257377
v -0.153594 3.637369 0.405596
v -0.107188 3.609349 0.553891
v -0.060782 3.581421 0.702184
v 0.164189 3.745369 0.630187
v 0.121340 3.773296 0.480781
v 0.078491 3.801316 0.331373
v 0.035666 3.820938 0.182040
v 0.064636 3.271124 0.249622
v -0.168215 3.271124 -0.193101
v -0.601269 3.146362 0.599857
v -0.834120 3.146362 0.157134
v -0.728000 3.305153 0.355731
v -0.053693 3.429914 0.021472
v -0.467909 3.193057 0.529716
v -0.334710 3.220106 0.459660
v -0.201511 3.247245 0.389603
v -0.068380 3.266251 0.319582
v -0.301231 3.266251 -0.123141
v -0.434363 3.247245 -0.053120
v -0.567562 3.220106 0.016937
v -0.700760 3.193057 0.086993
v -0.592960 3.351848 0.288785
v -0.458081 3.378897 0.221924
v -0.323202 3.406036 0.155063
v -0.188390 3.425041 0.088237
v 0.237864 3.195391 -0.035196
v -0.232874 3.195391 0.112113
v 0.459433 3.072369 0.672845
v -0.011304 3.072369 0.820155
v 0.200156 3.228945 0.752458
v -0.004428 3.351968 0.039101
v 0.415060 3.118413 0.531047
v 0.370740 3.145085 0.389421
v 0.326420 3.171845 0.247793
v 0.282122 3.190585 0.106237
v -0.188615 3.190585 0.253546
v -0.144317 3.171845 0.395102
v -0.099997 3.145085 0.536730
v -0.055677 3.118413 0.678356
v 0.159179 3.274989 0.609596
v 0.118257 3.301661 0.466907
v 0.077334 3.328422 0.324216
v 0.036434 3.347162 0.181597
v 0.267783 2.837694 -0.068811
v -0.287223 2.837695 0.104870
v 0.519023 2.557574 0.734039
v -0.035983 2.557574 0.907719
v 0.221964 2.740175 0.855490
v -0.009249 3.020295 0.046373
v 0.469887 2.638601 0.577022
v 0.419746 2.697036 0.416795
v 0.369610 2.755575 0.256582
v 0.319058 2.804760 0.095040
v -0.235948 2.804760 0.268721
v -0.185396 2.755575 0.430263
v -0.135259 2.697036 0.590475
v -0.085119 2.638601 0.750703
v 0.176833 2.821202 0.697220
v 0.130698 2.879637 0.535739
v 0.084567 2.938176 0.374273
v 0.038020 2.987361 0.211478
v 0.064943 1.611669 -0.261180
v -0.151862 1.611669 0.296522
v 0.853336 1.269942 0.045305
v 0.636532 1.269943 0.603007
v 0.771086 1.455708 0.366337
v -0.009484 1.797435 0.039728
v 0.700719 1.363724 -0.014024
v 0.543528 1.434522 -0.075131
v 0.386358 1.505426 -0.136230
v 0.227295 1.566814 -0.198066
v 0.010491 1.566814 0.359636
v 0.169554 1.505426 0.421471
v 0.326724 1.434522 0.482571
v 0.483915 1.363724 0.543678
v 0.620034 1.549490 0.302983
v 0.464408 1.620288 0.237851
v 0.308803 1.691192 0.172727
v 0.151304 1.752580 0.106867
v 0.308002 1.897276 -0.061832
v -0.243313 1.897276 0.110694
v 0.558328 1.626749 0.738099
v 0.007012 1.626749 0.910625
v 0.262743 1.808377 0.857143
v 0.032311 2.078905 0.050986
v 0.509299 1.705724 0.581424
v 0.459333 1.762228 0.421757
v 0.409373 1.818835 0.262103
v 0.359024 1.866137 0.101212
v -0.192291 1.866137 0.273737
v -0.141943 1.818835 0.434629
v -0.091982 1.762228 0.594282
v -0.042017 1.705724 0.753949
v 0.217693 1.887353 0.699222
v 0.171706 1.943856 0.538310
v 0.125724 2.000463 0.377411
v 0.079354 2.047766 0.215275
v -0.107342 3.758364 -0.308522
v 0.074412 3.758364 0.268053
v 0.727929 3.471036 -0.571826
v 0.909684 3.471036 0.004750
v 0.854028 3.660981 -0.263031
v 0.012197 3.948309 -0.020533
v 0.564457 3.554510 -0.520294
v 0.397748 3.614484 -0.467742
v 0.231054 3.674565 -0.415195
v 0.063020 3.724917 -0.362225
v 0.244774 3.724917 0.214350
v 0.412808 3.674565 0.161380
v 0.579503 3.614484 0.108833
v 0.746212 3.554510 0.056281
v 0.689243 3.744456 -0.215661
v 0.521223 3.804429 -0.167270
v 0.353217 3.864510 -0.118884
v 0.183871 3.914862 -0.070075
v -0.266169 3.380499 0.106756
v 0.252460 3.380499 -0.055540
v -0.501284 3.122217 -0.644571
v 0.017345 3.122217 -0.806868
v -0.223470 3.292960 -0.757341
v -0.007069 3.551242 -0.000158
v -0.455269 3.197253 -0.497527
v -0.408344 3.251163 -0.347573
v -0.361422 3.305171 -0.197631
v -0.314123 3.350432 -0.046485
v 0.204506 3.350433 -0.208781
v 0.157208 3.305171 -0.359927
v 0.110286 3.251163 -0.509869
v 0.063360 3.197253 -0.659824
v -0.181198 3.367996 -0.609126
v -0.138015 3.421907 -0.458000
v -0.094836 3.475915 -0.306887
v -0.051280 3.521176 -0.154569
v -0.288953 3.769036 0.091083
v 0.246215 3.769036 -0.076389
v -0.531566 3.502518 -0.684203
v 0.003602 3.502518 -0.851675
v -0.244892 3.678706 -0.800569
v -0.021590 3.945225 -0.019240
v -0.484084 3.579947 -0.532470
v -0.435661 3.635576 -0.377733
v -0.387243 3.691306 -0.223011
v -0.338436 3.738011 -0.067044
v 0.196732 3.738011 -0.234516
v 0.147924 3.691307 -0.390483
v 0.099507 3.635576 -0.545205
v 0.051084 3.579947 -0.699942
v -0.201272 3.756135 -0.647628
v -0.156712 3.811765 -0.491683
v -0.112156 3.867495 -0.335751
v -0.067211 3.914200 -0.178576
v -0.227708 3.303044 -0.143058
v 0.144884 3.303044 0.183602
v 0.263261 3.176181 -0.703064
v 0.635853 3.176181 -0.376404
v 0.467630 3.333481 -0.522866
v -0.036784 3.460345 0.025353
v 0.164998 3.223092 -0.590984
v 0.066797 3.250542 -0.478975
v -0.031404 3.278081 -0.366965
v -0.129579 3.297562 -0.254986
v 0.243014 3.297562 0.071674
v 0.341189 3.278081 -0.040306
v 0.439390 3.250542 -0.152315
v 0.537590 3.223092 -0.264324
v 0.366678 3.380392 -0.413143
v 0.265788 3.407842 -0.303492
v 0.164899 3.435381 -0.193840
v 0.064035 3.454862 -0.084218
v -0.253532 2.516094 0.039519
v 0.247438 2.516094 -0.117251
v -0.489157 2.381700 -0.713438
v 0.011813 2.381700 -0.870209
v -0.213446 2.548337 -0.798863
v 0.004102 2.682731 -0.040249
v -0.441998 2.431396 -0.562740
v -0.394870 2.460474 -0.412139
v -0.347742 2.489648 -0.261537
v -0.300626 2.510286 -0.110974
v 0.200344 2.510286 -0.267744
v 0.153228 2.489648 -0.418307
v 0.106099 2.460475 -0.568909
v 0.058971 2.431396 -0.719511
v -0.169903 2.598033 -0.647034
v -0.126391 2.627112 -0.495301
v -0.082878 2.656286 -0.343567
v -0.039377 2.676924 -0.191874
v -0.264909 2.954267 0.081066
v 0.246890 2.954267 -0.079092
v -0.505628 2.816968 -0.688167
v 0.006171 2.816968 -0.848326
v -0.223957 2.987207 -0.775439
v -0.001707 3.124507 -0.000426
v -0.457450 2.867738 -0.534212
v -0.409303 2.897445 -0.380354
v -0.361155 2.927250 -0.226497
v -0.313021 2.948334 -0.072680
v 0.198778 2.948334 -0.232838
v 0.150643 2.927250 -0.386655
v 0.102496 2.897445 -0.540513
v 0.054349 2.867738 -0.694370
v -0.179473 3.037978 -0.620327
v -0.135020 3.067685 -0.465314
v -0.090566 3.097490 -0.310301
v -0.046125 3.118574 -0.155328
v -0.237467 4.045470 -0.142510
v 0.196505 4.045470 0.084590
v 0.099232 3.871303 -0.785919
v 0.533205 3.871303 -0.558819
v 0.342311 4.026495 -0.669550
v -0.010048 4.200663 -0.034335
v 0.032502 3.927387 -0.658402
v -0.034779 3.964269 -0.529832
v -0.102058 4.001239 -0.401267
v -0.169564 4.030261 -0.272267
v 0.264408 4.030261 -0.045167
v 0.331915 4.001239 -0.174168
v 0.399193 3.964269 -0.302732
v 0.466474 3.927387 -0.431302
v 0.272449 4.082579 -0.543671
v 0.202036 4.119462 -0.416741
v 0.131625 4.156432 -0.289815
v 0.060986 4.185454 -0.162454
v -0.242049 2.948746 -0.134891
v 0.260820 2.948746 0.128264
v 0.155795 2.836747 -0.895142
v 0.658665 2.836747 -0.631987
v 0.428648 3.016749 -0.743449
v 0.012657 3.128748 0.007307
v 0.075726 2.883794 -0.742134
v -0.003892 2.908570 -0.589992
v -0.083511 2.933449 -0.437845
v -0.162943 2.949107 -0.286057
v 0.339927 2.949107 -0.022902
v 0.419359 2.933449 -0.174690
v 0.498978 2.908571 -0.326837
v 0.578595 2.883794 -0.478980
v 0.344948 3.063796 -0.592340
v 0.261702 3.088573 -0.442096
v 0.178453 3.113451 -0.291849
v 0.095392 3.129109 -0.141960
v 0.091460 4.868842 -0.191905
v -0.161758 4.868260 0.152631
v 0.569783 4.598786 0.159183
v 0.316566 4.598204 0.503719
v 0.457872 4.729865 0.368937
v -0.011314 4.999941 0.005416
v 0.477860 4.670789 0.091746
v 0.382556 4.726535 0.021796
v 0.287268 4.782356 -0.048142
v 0.190580 4.831446 -0.119120
v -0.062638 4.830864 0.225416
v 0.034050 4.781774 0.296394
v 0.129339 4.725954 0.366332
v 0.224643 4.670208 0.436282
v 0.367777 4.801872 0.299013
v 0.274300 4.857622 0.226577
v 0.180839 4.913447 0.154153
v 0.085979 4.962542 0.080688
v 0.051568 4.421084 0.210718
v -0.080220 4.421084 -0.210422
v -0.551813 4.191011 0.399536
v -0.683602 4.191011 -0.021604
v -0.647608 4.328948 0.175265
v -0.039471 4.559020 0.001644
v -0.434331 4.255913 0.362772
v -0.313963 4.303748 0.325105
v -0.193608 4.351662 0.287442
v -0.072058 4.392511 0.249405
v -0.203846 4.392511 -0.171735
v -0.325396 4.351663 -0.133698
v -0.445751 4.303748 -0.096035
v -0.566120 4.255913 -0.058368
v -0.529175 4.393849 0.141540
v -0.407856 4.441685 0.106912
v -0.286549 4.489599 0.072289
v -0.164048 4.530447 0.037291
v 0.065967 4.118096 0.169970
v -0.054388 4.118097 -0.214635
v -0.485070 3.907983 0.342407
v -0.605425 3.907983 -0.042198
v -0.572554 4.033954 0.137592
v -0.017174 4.244067 -0.020967
v -0.377779 3.967255 0.308833
v -0.267853 4.010941 0.274433
v -0.157939 4.054698 0.240038
v -0.046934 4.092002 0.205301
v -0.167289 4.092003 -0.179305
v -0.278295 4.054698 -0.144568
v -0.388209 4.010941 -0.110172
v -0.498135 3.967255 -0.075772
v -0.464395 4.093225 0.106794
v -0.353601 4.136911 0.075170
v -0.242818 4.180668 0.043550
v -0.130944 4.217973 0.011588
v 0.049107 3.020774 0.263820
v -0.108429 3.020774 -0.239601
v -0.676440 2.758401 0.490867
v -0.833977 2.758401 -0.012554
v -0.788321 2.923751 0.221956
v -0.057089 3.186125 0.013074
v -0.534789 2.833516 0.446540
v -0.390013 2.888174 0.401235
v -0.245252 2.942926 0.355934
v -0.099196 2.989208 0.310229
v -0.256733 2.989208 -0.193192
v -0.402788 2.942926 -0.147487
v -0.547550 2.888174 -0.102186
v -0.692326 2.833516 -0.056881
v -0.645533 2.998867 0.181262
v -0.499620 3.053525 0.139590
v -0.353721 3.108277 0.097922
v -0.206529 3.154558 0.055850
v 0.002263 1.826990 0.239009
v -0.156124 1.826990 -0.267126
v -0.758244 1.689894 0.476997
v -0.916630 1.689894 -0.029139
v -0.844815 1.858251 0.198526
v -0.078593 1.995347 -0.021198
v -0.606071 1.740366 0.429377
v -0.453963 1.770008 0.381777
v -0.301854 1.799746 0.334177
v -0.149773 1.820859 0.286586
v -0.308159 1.820860 -0.219550
v -0.460241 1.799746 -0.171958
v -0.612350 1.770008 -0.124358
v -0.764457 1.740366 -0.076759
v -0.691499 1.908723 0.154559
v -0.538248 1.938365 0.110612
v -0.384996 1.968103 0.066665
v -0.231771 1.989217 0.022727
v -0.106811 4.022217 0.238804
v 0.146978 4.022217 -0.246168
v -0.795098 3.717291 -0.121382
v -0.541309 3.717292 -0.606353
v -0.686199 3.887575 -0.404092
v -0.007070 4.192501 -0.026406
v -0.661638 3.801593 -0.051541
v -0.524385 3.864826 0.020284
v -0.387150 3.928156 0.092101
v -0.248344 3.982764 0.164738
v 0.005445 3.982764 -0.320233
v -0.133360 3.928156 -0.392871
v -0.270596 3.864826 -0.464687
v -0.407849 3.801593 -0.536513
v -0.554570 3.971877 -0.330751
v -0.419149 4.035110 -0.255426
v -0.283745 4.098440 -0.180110
v -0.146771 4.153048 -0.103972
v -0.276244 4.266938 0.012887
v 0.249478 4.318010 -0.022507
v -0.303280 4.014325 -0.753208
v 0.222442 4.065397 -0.788602
v -0.031852 4.207892 -0.796029
v -0.023786 4.458663 -0.028657
v -0.300290 4.087507 -0.603187
v -0.295116 4.140214 -0.450277
v -0.289951 4.193016 -0.297380
v -0.283883 4.237340 -0.143286
v 0.241839 4.288413 -0.178680
v 0.235771 4.244088 -0.332774
v 0.230607 4.191287 -0.485671
v 0.225432 4.138578 -0.638581
v -0.032655 4.280705 -0.645753
v -0.031275 4.333045 -0.492587
v -0.029905 4.385478 -0.339435
v -0.027631 4.429434 -0.185085
v -0.102805 4.658444 0.188540
v 0.091148 4.658444 -0.182089
v -0.628812 4.425412 -0.086724
v -0.434860 4.425412 -0.457353
v -0.545588 4.555547 -0.302779
v -0.026579 4.788579 -0.014141
v -0.526818 4.489837 -0.033350
v -0.421926 4.538162 0.021541
v -0.317047 4.586560 0.076425
v -0.210968 4.628293 0.131937
v -0.017015 4.628293 -0.238692
v -0.123094 4.586560 -0.294203
v -0.227973 4.538162 -0.349087
v -0.332866 4.489837 -0.403978
v -0.444994 4.619972 -0.246730
v -0.341502 4.668297 -0.189164
v -0.238022 4.716696 -0.131605
v -0.133343 4.758428 -0.073419
v -0.177425 3.199723 0.301240
v 0.076535 3.199723 -0.184061
v -0.897375 3.007041 -0.075513
v -0.643415 3.007041 -0.560814
v -0.766847 3.180616 -0.347136
v -0.056061 3.373299 0.047129
v -0.754633 3.069345 -0.000816
v -0.610764 3.110173 0.074472
v -0.466899 3.151100 0.149756
v -0.322568 3.183135 0.225286
v -0.068608 3.183135 -0.260015
v -0.212939 3.151100 -0.335545
v -0.356804 3.110173 -0.410829
v -0.500673 3.069345 -0.486117
v -0.625938 3.242920 -0.268936
v -0.483902 3.283748 -0.190146
v -0.341870 3.324675 -0.111359
v -0.199372 3.356711 -0.032327
v -0.157816 2.627943 0.259491
v 0.115590 2.627944 -0.262958
v -0.929068 2.403156 -0.144118
v -0.655662 2.403156 -0.666567
v -0.791837 2.589762 -0.438254
v -0.030450 2.814549 -0.015793
v -0.776612 2.473665 -0.064335
v -0.622535 2.521086 0.016296
v -0.468465 2.568613 0.096924
v -0.313724 2.606582 0.177902
v -0.040318 2.606582 -0.344547
v -0.195059 2.568613 -0.425526
v -0.349129 2.521086 -0.506153
v -0.503206 2.473665 -0.586784
v -0.641354 2.660270 -0.354701
v -0.489250 2.707692 -0.270299
v -0.337153 2.755219 -0.185901
v -0.184385 2.793188 -0.101152
v -0.007673 1.278498 0.178360
v -0.039106 1.278498 -0.203948
v -0.462292 0.912470 0.215738
v -0.493725 0.912470 -0.166570
v -0.538039 1.019184 0.010326
v -0.082285 1.385213 -0.013257
v -0.379374 1.000287 0.208921
v -0.289222 1.074902 0.201509
v -0.199103 1.149577 0.194099
v -0.105989 1.218786 0.186444
v -0.137422 1.218786 -0.195864
v -0.230535 1.149577 -0.188209
v -0.320654 1.074902 -0.180799
v -0.410806 1.000287 -0.173387
v -0.454893 1.107002 0.006268
v -0.364514 1.181617 0.001615
v -0.274169 1.256292 -0.003036
v -0.180828 1.325501 -0.007932
v 0.133334 2.134199 0.230183
v -0.181277 2.134200 -0.181957
v -0.479067 1.957117 0.697666
v -0.793679 1.957117 0.285526
v -0.658903 2.121491 0.476266
v -0.035148 2.298573 0.023654
v -0.357524 2.015040 0.604885
v -0.235134 2.052627 0.511457
v -0.112747 2.090307 0.418033
v 0.009989 2.119568 0.324340
v -0.304622 2.119568 -0.087800
v -0.427359 2.090307 0.005892
v -0.549745 2.052627 0.099317
v -0.672135 2.015041 0.192744
v -0.535088 2.179415 0.386458
v -0.410428 2.217001 0.296005
v -0.285771 2.254682 0.205555
v -0.160764 2.283942 0.114837
v 0.173313 1.533423 0.182198
v -0.292070 1.533423 -0.192963
v -0.368066 1.239274 0.853773
v -0.833450 1.239274 0.478612
v -0.642354 1.426762 0.670295
v -0.084181 1.720912 0.012257
v -0.262308 1.323776 0.722582
v -0.154275 1.385081 0.588568
v -0.046253 1.446493 0.454567
v 0.062712 1.498301 0.319398
v -0.402671 1.498301 -0.055764
v -0.511636 1.446493 0.079406
v -0.619658 1.385081 0.213407
v -0.727692 1.323776 0.347420
v -0.533237 1.511264 0.541810
v -0.421845 1.572569 0.410504
v -0.310464 1.633981 0.279211
v -0.198141 1.685789 0.146749
v 0.329191 2.354577 -0.011224
v -0.294761 2.354577 0.089792
v 0.478830 2.126511 0.913060
v -0.145122 2.126511 1.014076
v 0.137832 2.326738 0.981533
v 0.010708 2.554804 0.053603
v 0.449188 2.199541 0.729974
v 0.419288 2.247797 0.545287
v 0.389389 2.296168 0.360608
v 0.359383 2.334282 0.175267
v -0.264569 2.334282 0.276283
v -0.234563 2.296168 0.461624
v -0.204664 2.247797 0.646303
v -0.174764 2.199541 0.830989
v 0.112693 2.399768 0.797717
v 0.087296 2.448025 0.612302
v 0.061900 2.496395 0.426894
v 0.036397 2.534510 0.240824
v -0.192975 2.453685 -0.184552
v 0.185576 2.453685 0.135644
v 0.263815 2.186960 -0.724588
v 0.642365 2.186960 -0.404392
v 0.490864 2.341613 -0.570863
v 0.020415 2.608337 -0.042381
v 0.175044 2.261482 -0.619640
v 0.083936 2.316868 -0.511928
v -0.007162 2.372343 -0.404228
v -0.099227 2.419895 -0.295384
v 0.279323 2.419895 0.024812
v 0.371389 2.372343 -0.084032
v 0.462486 2.316868 -0.191731
v 0.553595 2.261482 -0.299444
v 0.399362 2.416134 -0.468226
v 0.305521 2.471521 -0.362824
v 0.211692 2.526995 -0.257435
v 0.116894 2.574548 -0.150902
v 0.214316 3.045783 0.136016
v -0.230490 3.045783 -0.096754
v -0.117752 2.775713 0.770571
v -0.562557 2.775713 0.537801
v -0.376073 2.932306 0.668828
v -0.027955 3.202376 0.042673
v -0.053219 2.851168 0.647254
v 0.013013 2.907250 0.520690
v 0.079237 2.963421 0.394140
v 0.146165 3.011570 0.266246
v -0.298640 3.011570 0.033476
v -0.365568 2.963421 0.161370
v -0.431792 2.907250 0.287920
v -0.498024 2.851168 0.414484
v -0.308330 3.007761 0.547192
v -0.238888 3.063843 0.422307
v -0.169453 3.120013 0.297438
v -0.099315 3.168163 0.171223
v 0.262651 1.461753 -0.029457
v -0.307921 1.461753 0.013870
v 0.326401 1.233156 0.810072
v -0.244171 1.233156 0.853399
v 0.013919 1.414048 0.850447
v -0.029242 1.642644 0.009355
v 0.313823 1.303644 0.644433
v 0.301090 1.351752 0.476746
v 0.288357 1.399962 0.309068
v 0.275560 1.438907 0.140542
v -0.295012 1.438907 0.183869
v -0.282215 1.399962 0.352395
v -0.269482 1.351752 0.520072
v -0.256749 1.303644 0.687760
v 0.005459 1.484536 0.684495
v -0.003157 1.532644 0.516495
v -0.011772 1.580854 0.348505
v -0.020452 1.619798 0.179666
v -0.280675 1.910983 -0.166432
v 0.293899 1.910983 0.002384
v -0.030733 1.692994 -1.017123
v 0.543842 1.692995 -0.848307
v 0.288820 1.882673 -0.936593
v 0.018144 2.100661 -0.091992
v -0.080226 1.762564 -0.848669
v -0.130167 1.808666 -0.678693
v -0.180106 1.854876 -0.508724
v -0.230229 1.891369 -0.338125
v 0.344344 1.891370 -0.169309
v 0.394468 1.854876 -0.339908
v 0.444407 1.808666 -0.509877
v 0.494348 1.762564 -0.679853
v 0.235179 1.952242 -0.769356
v 0.181092 1.998344 -0.600598
v 0.127007 2.044554 -0.431848
v 0.072736 2.081048 -0.262467
v -0.292554 1.618534 -0.103985
v 0.276906 1.618534 0.063329
v -0.058030 1.262526 -0.902202
v 0.511431 1.262526 -0.734888
v 0.267245 1.445952 -0.851542
v 0.012171 1.801960 -0.059362
v -0.103271 1.358844 -0.748219
v -0.150016 1.432467 -0.589122
v -0.196754 1.506195 -0.430047
v -0.244113 1.570526 -0.268856
v 0.325347 1.570526 -0.101542
v 0.372707 1.506195 -0.262734
v 0.419445 1.432467 -0.421808
v 0.466189 1.358844 -0.580905
v 0.217893 1.542270 -0.698767
v 0.167039 1.615893 -0.540877
v 0.116191 1.689620 -0.383010
v 0.064722 1.753952 -0.223026
v -0.273159 2.109650 -0.047911
v 0.318832 2.109650 -0.111457
v -0.368040 1.925967 -0.931819
v 0.223950 1.925966 -0.995364
v -0.043131 2.114890 -0.972424
v 0.030388 2.298573 -0.086223
v -0.349147 1.988572 -0.755813
v -0.330179 2.027803 -0.579106
v -0.311211 2.067141 -0.402402
v -0.292212 2.096803 -0.225409
v 0.299779 2.096803 -0.288954
v 0.280780 2.067142 -0.465948
v 0.261812 2.027803 -0.642652
v 0.242844 1.988572 -0.819358
v -0.028511 2.177495 -0.795959
v -0.013815 2.216727 -0.618794
v 0.000880 2.256065 -0.441631
v 0.015607 2.285726 -0.264179
v -0.308786 1.903417 0.091384
v 0.247525 1.903417 -0.212262
v -0.764745 1.736078 -0.743980
v -0.208434 1.736078 -1.047626
v -0.458890 1.937275 -0.911023
v -0.023005 2.104614 -0.064701
v -0.673559 1.797095 -0.576918
v -0.582368 1.833220 -0.409846
v -0.491177 1.869458 -0.242774
v -0.399983 1.895391 -0.075699
v 0.156328 1.895391 -0.379344
v 0.065134 1.869458 -0.546420
v -0.026057 1.833219 -0.713492
v -0.117248 1.797095 -0.880564
v -0.371719 1.998292 -0.741769
v -0.284542 2.034416 -0.572506
v -0.197366 2.070655 -0.403242
v -0.110188 2.096587 -0.233975
v -0.175949 2.258961 0.243598
v 0.108089 2.258961 -0.299177
v -0.994606 2.122472 -0.184811
v -0.710568 2.122472 -0.727586
v -0.833779 2.316874 -0.480835
v -0.025371 2.453364 -0.032840
v -0.830239 2.176389 -0.098797
v -0.666446 2.206253 -0.013083
v -0.502651 2.236228 0.072632
v -0.339093 2.256246 0.158223
v -0.055055 2.256246 -0.384551
v -0.218613 2.236229 -0.470142
v -0.382408 2.206253 -0.555857
v -0.546201 2.176389 -0.641571
v -0.671461 2.370791 -0.390904
v -0.509719 2.400656 -0.301273
v -0.347973 2.430631 -0.211640
v -0.186465 2.450648 -0.122132
v -0.177433 1.623181 0.242445
v 0.100752 1.623181 -0.289145
v -0.931993 1.289261 -0.152422
v -0.653808 1.289261 -0.684011
v -0.812564 1.475928 -0.462275
v -0.068043 1.809847 -0.048226
v -0.785673 1.381605 -0.075851
v -0.635204 1.450853 0.002890
v -0.484754 1.520208 0.081622
v -0.332586 1.580001 0.161253
v -0.054401 1.580001 -0.370337
v -0.206569 1.520208 -0.449968
v -0.357019 1.450853 -0.528700
v -0.507488 1.381605 -0.607441
v -0.668252 1.568272 -0.381868
v -0.519790 1.637520 -0.299290
v -0.371348 1.706875 -0.216722
v -0.221187 1.766667 -0.133255
v 0.142123 5.342824 -0.107519
v -0.186009 5.344065 -0.001957
v 0.255570 4.974194 0.249462
v -0.072562 4.975435 0.355023
v 0.094476 5.064953 0.366550
v -0.007131 5.433538 0.005760
v 0.235528 5.060254 0.186150
v 0.213094 5.135169 0.115533
v 0.190671 5.210135 0.044950
v 0.167257 5.280488 -0.028657
v -0.160875 5.281730 0.076905
v -0.137461 5.211377 0.150512
v -0.115038 5.136411 0.221095
v -0.092604 5.061496 0.291712
v 0.076803 5.151004 0.302477
v 0.056736 5.225911 0.231098
v 0.036681 5.300868 0.159754
v 0.015636 5.371212 0.085384
v 0.161476 4.991337 -0.093478
v -0.207253 4.990592 0.023758
v 0.320036 4.715829 0.403468
v -0.048694 4.715084 0.520705
v 0.128504 4.832306 0.503968
v -0.016750 5.107841 0.002791
v 0.289860 4.786936 0.309013
v 0.258297 4.843580 0.210100
v 0.226739 4.900291 0.111207
v 0.194607 4.951016 0.010468
v -0.174123 4.950271 0.127704
v -0.141991 4.899546 0.228443
v -0.110433 4.842835 0.327336
v -0.078870 4.786190 0.426249
v 0.100990 4.903419 0.408666
v 0.072087 4.960068 0.308907
v 0.043191 5.016785 0.209167
v 0.013720 5.067514 0.107582
v -0.199919 4.973576 -0.080836
v 0.153081 4.972761 0.101218
v 0.050667 4.715297 -0.567875
v 0.403667 4.714481 -0.385821
v 0.260242 4.836466 -0.497223
v -0.003083 5.094775 -0.016753
v 0.002668 4.783605 -0.474500
v -0.047245 4.836867 -0.377481
v -0.097149 4.890197 -0.280479
v -0.147846 4.937298 -0.181968
v 0.205155 4.936483 0.000086
v 0.255851 4.889382 -0.098425
v 0.305755 4.836052 -0.195427
v 0.355669 4.782790 -0.292446
v 0.209695 4.904782 -0.405162
v 0.157234 4.958049 -0.309457
v 0.104783 5.011385 -0.213769
v 0.051538 5.058492 -0.116572
v -0.048681 5.324779 0.157129
v 0.094060 5.323042 -0.124652
v -0.393419 5.036304 -0.015725
v -0.250679 5.034567 -0.297506
v -0.355113 5.124813 -0.191573
v -0.015524 5.413350 -0.008551
v -0.329973 5.106249 0.015983
v -0.261556 5.165125 0.050278
v -0.193162 5.224052 0.084561
v -0.122709 5.278397 0.119915
v 0.020031 5.276660 -0.161866
v -0.050422 5.222315 -0.197220
v -0.118816 5.163388 -0.231503
v -0.187233 5.104512 -0.265798
v -0.292697 5.194770 -0.157832
v -0.225310 5.253659 -0.121503
v -0.157945 5.312599 -0.085187
v -0.088523 5.366956 -0.047799
v 0.056611 4.850272 0.183160
v -0.065306 4.849697 -0.199606
v -0.488174 4.630938 0.357013
v -0.610092 4.630363 -0.025752
v -0.578529 4.755789 0.153782
v -0.029344 4.975142 -0.006260
v -0.382409 4.691943 0.323234
v -0.273760 4.737463 0.288559
v -0.165124 4.783052 0.253888
v -0.055294 4.822232 0.218846
v -0.177212 4.821657 -0.163920
v -0.287042 4.782477 -0.128878
v -0.395678 4.736888 -0.094207
v -0.504327 4.691368 -0.059532
v -0.471885 4.816798 0.122765
v -0.362356 4.862321 0.090852
v -0.252840 4.907916 0.058943
v -0.142130 4.947098 0.026664
v -0.129202 5.075536 0.112347
v 0.120545 5.074739 -0.099788
v -0.422708 4.864342 -0.232404
v -0.172960 4.863546 -0.444540
v -0.302691 4.964355 -0.369808
v -0.018197 5.175578 -0.017402
v -0.366377 4.920335 -0.166296
v -0.307904 4.963900 -0.097620
v -0.249442 5.007522 -0.028955
v -0.190092 5.045999 0.040772
v 0.059655 5.045204 -0.171363
v 0.000306 5.006726 -0.241091
v -0.058157 4.963104 -0.309755
v -0.116629 4.919539 -0.378432
v -0.248162 5.020354 -0.302169
v -0.191492 5.063926 -0.231962
v -0.134832 5.107553 -0.161766
v -0.077285 5.146035 -0.090508
v -0.155376 3.626598 0.298476
v 0.174971 3.626598 -0.224654
v -0.918610 3.352725 -0.183492
v -0.588264 3.352726 -0.706622
v -0.757002 3.547700 -0.483798
v -0.005688 3.821572 0.017046
v -0.768707 3.434197 -0.088831
v -0.616325 3.491546 0.007395
v -0.463954 3.549006 0.103615
v -0.310556 3.596478 0.200482
v 0.019790 3.596478 -0.322648
v -0.133607 3.549006 -0.419515
v -0.285978 3.491546 -0.515734
v -0.438361 3.434197 -0.611961
v -0.609483 3.629172 -0.385362
v -0.459485 3.686521 -0.285360
v -0.309498 3.743980 -0.185365
v -0.158485 3.791452 -0.084723
v -0.154114 1.371963 -0.110036
v 0.152970 1.371963 0.068096
v 0.057710 1.033214 -0.475203
v 0.364794 1.033214 -0.297071
v 0.253806 1.131976 -0.424213
v 0.030900 1.470725 -0.065474
v 0.019075 1.114487 -0.408599
v -0.022930 1.183541 -0.336186
v -0.064920 1.252651 -0.263799
v -0.108305 1.316701 -0.189007
v 0.198779 1.316702 -0.010875
v 0.242164 1.252651 -0.085667
v 0.284154 1.183541 -0.158054
v 0.326159 1.114487 -0.230467
v 0.212955 1.213249 -0.358895
v 0.168733 1.282302 -0.287767
v 0.124527 1.351412 -0.216666
v 0.078926 1.415463 -0.143160
v -0.031476 5.597197 -0.109547
v -0.054340 5.594668 0.092471
v 0.130560 5.333348 -0.094511
v 0.107696 5.330818 0.107507
v 0.165885 5.374811 0.022529
v 0.004674 5.638752 0.000204
v 0.104711 5.391985 -0.096703
v 0.072936 5.445321 -0.099631
v 0.041189 5.498681 -0.102556
v 0.006988 5.549846 -0.105786
v -0.015876 5.547317 0.096232
v 0.018325 5.496151 0.099462
v 0.050072 5.442791 0.102387
v 0.081847 5.389455 0.105315
v 0.140202 5.433467 0.018880
v 0.108592 5.486821 0.014494
v 0.077009 5.540199 0.010111
v 0.042973 5.591383 0.005423
v -0.053948 5.678600 0.078052
v 0.090822 5.676608 -0.020631
v -0.140493 5.457536 -0.044448
v 0.004277 5.455544 -0.143131
v -0.083025 5.495146 -0.131965
v -0.001703 5.716281 -0.005904
v -0.126215 5.507049 -0.024501
v -0.109199 5.551773 -0.000440
v -0.092194 5.596519 0.023602
v -0.074056 5.639282 0.049347
v 0.070714 5.637289 -0.049336
v 0.052576 5.594526 -0.075081
v 0.035571 5.549780 -0.099124
v 0.018555 5.505056 -0.123185
v -0.069791 5.544672 -0.111306
v -0.053819 5.589411 -0.086533
v -0.037860 5.634171 -0.061779
v -0.020766 5.676948 -0.035321
vn -0.2681 0.1914 -0.9442
vn -0.2408 0.2696 -0.9324
vn -0.5730 0.3338 -0.7485
vn -0.6018 0.2238 -0.7667
vn -0.8572 0.3375 -0.3891
vn -0.8770 0.2265 -0.4237
vn -0.9642 0.2651 -0.0107
vn -0.9809 0.1888 -0.0471
vn -0.9282 0.2128 0.3053
vn -0.9381 0.1612 0.3066
vn 0.9430 0.2082 -0.2595
vn 0.9246 0.3036 -0.2302
vn 0.7080 0.3115 -0.6338
vn 0.7356 0.2127 -0.6432
vn 0.4137 0.2647 -0.8711
vn 0.4374 0.1888 -0.8792
vn 0.0865 0.2482 -0.9648
vn 0.0878 0.1800 -0.9797
vn 0.3054 0.1997 0.9310
vn 0.2960 0.2872 0.9110
vn 0.6530 0.2451 0.7166
vn 0.6481 0.1783 0.7404
vn 0.8774 0.2107 0.4311
vn 0.8805 0.1606 0.4461
vn 0.9619 0.2308 0.1468
vn 0.9778 0.1705 0.1216
vn 0.9958 0.0206 0.0889
vn 0.9929 0.0791 0.0890
vn 0.9514 0.0791 -0.2977
vn 0.9540 0.0207 -0.2991
vn 0.8860 0.0190 0.4634
vn 0.8832 0.0791 0.4622
vn 0.6411 0.0159 0.7673
vn 0.6391 0.0791 0.7650
vn 0.2984 0.0120 0.9544
vn 0.2977 0.0792 0.9514
vn 0.0889 0.0125 -0.9960
vn 0.0890 0.0791 -0.9929
vn -0.2977 0.0791 -0.9514
vn -0.2988 0.0084 -0.9543
vn 0.4631 0.0163 -0.8861
vn 0.4622 0.0791 -0.8832
vn 0.7669 0.0192 -0.6414
vn 0.7650 0.0791 -0.6391
vn -0.9960 -0.0003 -0.0897
vn -0.9929 0.0791 -0.0890
vn -0.9513 0.0791 0.2979
vn -0.9545 -0.0003 0.2981
vn -0.8859 0.0015 -0.4639
vn -0.8832 0.0791 -0.4622
vn -0.6411 0.0044 -0.7674
vn -0.6391 0.0791 -0.7650
vn -0.7670 0.1585 0.6218
vn -0.7650 0.0791 0.6391
vn -0.4866 0.1813 0.8546
vn -0.4622 0.0791 0.8832
vn -0.7678 0.0011 0.6407
vn -0.1041 0.2052 0.9732
vn -0.0890 0.0791 0.9929
vn -0.4641 0.0040 0.8858
vn -0.0897 0.0078 0.9959
vn -0.1235 0.2961 0.9471
vn -0.5048 0.2510 0.8259
vn -0.7708 0.2063 0.6027
vn -0.0000 1.0000 -0.0000
vn -0.0895 0.0260 0.9957
vn -0.0895 -0.0015 0.9960
vn 0.6425 0.0082 0.7662
vn 0.6431 0.0114 0.7657
vn 0.9956 0.0178 0.0921
vn -0.0812 0.0289 0.9963
vn -0.6395 0.0243 -0.7684
vn -0.9957 0.0101 -0.0922
vn -0.9951 0.0329 -0.0931
vn -0.6390 0.0214 -0.7689
vn 0.7656 0.0330 -0.6425
vn 0.9960 0.0225 0.0865
vn 0.0890 0.0337 -0.9955
vn -0.7688 0.0349 0.6385
vn 0.0891 0.0071 -0.9960
vn 0.7656 -0.0017 -0.6433
vn 0.9963 -0.0001 0.0855
vn -0.9949 0.0529 -0.0863
vn -0.7689 -0.0006 0.6394
vn 0.0973 0.0415 -0.9944
vn 0.5429 0.8317 0.1160
vn -0.5156 0.8351 0.1918
vn -0.4560 0.7937 0.4027
vn -0.4911 0.8144 0.3090
vn -0.4850 0.8183 0.3085
vn -0.4952 0.8269 0.2665
vn 0.5114 0.8516 -0.1154
vn 0.5269 0.8491 -0.0368
vn 0.5324 0.8465 0.0091
vn 0.5276 0.8494 0.0106
vn 0.5725 0.8058 0.1512
vn -0.4787 0.8269 0.2952
vn -0.4072 0.7659 0.4976
vn -0.4475 0.7955 0.4085
vn -0.4413 0.7993 0.4078
vn -0.4539 0.8117 0.3675
vn 0.5272 0.8464 -0.0752
vn 0.5475 0.8368 0.0018
vn 0.5557 0.8300 0.0468
vn 0.5511 0.8330 0.0489
vn 0.2440 0.7741 -0.5842
vn 0.3294 0.8173 0.4727
vn 0.5303 0.7393 0.4149
vn 0.4415 0.7767 0.4491
vn 0.4416 0.7804 0.4428
vn 0.4016 0.7961 0.4527
vn 0.0191 0.8327 -0.5533
vn 0.0962 0.8168 -0.5689
vn 0.1409 0.8065 -0.5742
vn 0.1429 0.8094 -0.5696
vn 0.1028 0.8361 -0.5388
vn 0.1785 0.8355 0.5197
vn 0.3901 0.7977 0.4599
vn 0.2961 0.8168 0.4952
vn 0.2954 0.8207 0.4891
vn 0.2533 0.8285 0.4994
vn -0.1289 0.8522 -0.5072
vn -0.0503 0.8510 -0.5227
vn -0.0044 0.8491 -0.5282
vn -0.0029 0.8521 -0.5234
vn 0.2307 0.7822 -0.5788
vn 0.3094 0.8216 0.4788
vn 0.5122 0.7482 0.4217
vn 0.4225 0.7835 0.4556
vn 0.4225 0.7872 0.4493
vn 0.3822 0.8020 0.4590
vn 0.0044 0.8359 -0.5489
vn 0.0819 0.8217 -0.5641
vn 0.1269 0.8123 -0.5692
vn 0.1288 0.8153 -0.5646
vn 0.4314 0.8435 -0.3199
vn -0.2635 0.8355 0.4821
vn -0.0706 0.8044 0.5899
vn -0.1625 0.8205 0.5481
vn -0.1587 0.8244 0.5433
vn -0.1960 0.8309 0.5207
vn 0.2448 0.8526 -0.4616
vn 0.3115 0.8539 -0.4170
vn 0.3478 0.8534 -0.3884
vn 0.3453 0.8563 -0.3840
vn 0.5196 0.8094 -0.2738
vn -0.1746 0.8307 0.5287
vn 0.0136 0.7732 0.6340
vn -0.0760 0.8013 0.5934
vn -0.0718 0.8051 0.5888
vn -0.1080 0.8168 0.5667
vn 0.3355 0.8461 -0.4142
vn 0.4017 0.8378 -0.3698
vn 0.4377 0.8318 -0.3413
vn 0.4356 0.8348 -0.3368
vn 0.5404 0.8345 0.1079
vn -0.5181 0.8354 0.1836
vn -0.4584 0.7962 0.3950
vn -0.4936 0.8159 0.3011
vn -0.4875 0.8198 0.3005
vn -0.4978 0.8279 0.2584
vn 0.5088 0.8520 -0.1237
vn 0.5244 0.8503 -0.0451
vn 0.5298 0.8481 0.0008
vn 0.5250 0.8511 0.0023
vn -0.0089 0.8345 0.5510
vn -0.2738 0.8354 -0.4767
vn -0.4710 0.7962 -0.3798
vn -0.3850 0.8159 -0.4314
vn -0.3833 0.8198 -0.4255
vn -0.3438 0.8279 -0.4431
vn 0.2132 0.8520 0.4782
vn 0.1387 0.8503 0.5077
vn 0.0945 0.8481 0.5213
vn 0.0922 0.8511 0.5168
vn 0.5784 0.7828 0.2294
vn -0.4792 0.8219 0.3081
vn -0.4221 0.7488 0.5111
vn -0.4560 0.7840 0.4213
vn -0.4497 0.7876 0.4212
vn -0.4594 0.8024 0.3809
vn 0.5485 0.8362 0.0031
vn 0.5637 0.8221 0.0806
vn 0.5688 0.8128 0.1256
vn 0.5642 0.8158 0.1275
vn 0.5851 0.7568 -0.2913
vn -0.0108 0.8108 0.5852
vn 0.1788 0.7247 0.6654
vn 0.0897 0.7658 0.6368
vn 0.0938 0.7694 0.6319
vn 0.0571 0.7867 0.6147
vn 0.3932 0.8241 -0.4078
vn 0.4622 0.8051 -0.3717
vn 0.5000 0.7931 -0.3478
vn 0.4987 0.7960 -0.3429
vn 0.5762 0.7864 0.2225
vn -0.4815 0.8232 0.3009
vn -0.4241 0.7521 0.5044
vn -0.4582 0.7864 0.4143
vn -0.4519 0.7901 0.4143
vn -0.4617 0.8044 0.3738
vn 0.5462 0.8377 -0.0043
vn 0.5614 0.8243 0.0733
vn 0.5666 0.8155 0.1184
vn 0.5619 0.8184 0.1203
vn 0.2249 0.7845 -0.5778
vn 0.3056 0.8225 0.4796
vn 0.5088 0.7504 0.4220
vn 0.4189 0.7851 0.4561
vn 0.4188 0.7888 0.4499
vn 0.3785 0.8034 0.4597
vn -0.0016 0.8369 -0.5474
vn 0.0759 0.8231 -0.5627
vn 0.1210 0.8141 -0.5680
vn 0.1229 0.8170 -0.5634
vn -0.5774 0.7845 -0.2261
vn 0.4803 0.8225 -0.3046
vn 0.4231 0.7504 -0.5079
vn 0.4570 0.7851 -0.4180
vn 0.4507 0.7888 -0.4179
vn 0.4605 0.8034 -0.3775
vn -0.5474 0.8369 0.0004
vn -0.5626 0.8231 -0.0771
vn -0.5678 0.8141 -0.1222
vn -0.5631 0.8170 -0.1241
vn -0.1868 0.8333 -0.5203
vn 0.4290 0.8353 0.3440
vn 0.5782 0.7951 0.1830
vn 0.5164 0.8153 0.2619
vn 0.5127 0.8192 0.2570
vn 0.4822 0.8275 0.2876
vn -0.3681 0.8518 -0.3728
vn -0.3091 0.8498 -0.4270
vn -0.2727 0.8474 -0.4555
vn -0.2690 0.8504 -0.4522
vn -0.5415 0.8333 -0.1114
vn 0.5170 0.8353 -0.1871
vn 0.4573 0.7951 -0.3983
vn 0.4925 0.8153 -0.3045
vn 0.4864 0.8192 -0.3039
vn 0.4967 0.8275 -0.2619
vn -0.5099 0.8518 0.1201
vn -0.5255 0.8498 0.0415
vn -0.5309 0.8474 -0.0044
vn -0.5261 0.8504 -0.0059
vn -0.2786 0.8136 -0.5103
vn 0.5237 0.8318 0.1840
vn 0.6294 0.7771 -0.0047
vn 0.5886 0.8039 0.0851
vn 0.5840 0.8077 0.0810
vn 0.5619 0.8189 0.1174
vn -0.4192 0.8474 -0.3258
vn -0.3748 0.8401 -0.3922
vn -0.3463 0.8347 -0.4282
vn -0.3418 0.8377 -0.4260
vn -0.3192 0.8431 -0.4328
vn 0.4828 0.8356 0.2621
vn 0.5906 0.8040 0.0693
vn 0.5488 0.8203 0.1612
vn 0.5440 0.8242 0.1574
vn 0.5214 0.8308 0.1946
vn -0.4609 0.8526 -0.2462
vn -0.4163 0.8537 -0.3128
vn -0.3877 0.8531 -0.3492
vn -0.3833 0.8561 -0.3467
vn 0.6661 0.7378 -0.1092
vn -0.1352 0.8006 0.5838
vn 0.0240 0.7057 0.7081
vn -0.0532 0.7508 0.6584
vn -0.0478 0.7542 0.6549
vn -0.0781 0.7733 0.6292
vn 0.5135 0.8146 -0.2697
vn 0.5701 0.7923 -0.2174
vn 0.5999 0.7784 -0.1849
vn 0.5975 0.7813 -0.1805
vn -0.2499 0.7717 0.5848
vn -0.3297 0.8174 -0.4724
vn -0.5306 0.7385 -0.4159
vn -0.4418 0.7763 -0.4496
vn -0.4419 0.7799 -0.4432
vn -0.4019 0.7958 -0.4529
vn -0.0251 0.8312 0.5553
vn -0.1021 0.8150 0.5704
vn -0.1469 0.8045 0.5755
vn -0.1489 0.8074 0.5709
vn -0.2375 0.7785 0.5809
vn -0.3166 0.8202 -0.4765
vn -0.5188 0.7448 -0.4196
vn -0.4294 0.7810 -0.4534
vn -0.4294 0.7847 -0.4471
vn -0.3892 0.7999 -0.4568
vn -0.0118 0.8343 0.5512
vn -0.0891 0.8193 0.5663
vn -0.1340 0.8096 0.5715
vn -0.1360 0.8125 0.5668
vn -0.1127 0.8329 0.5419
vn -0.1884 0.8352 -0.5166
vn -0.3996 0.7947 -0.4570
vn -0.3058 0.8151 -0.4921
vn -0.3052 0.8189 -0.4860
vn -0.2632 0.8273 -0.4963
vn 0.1188 0.8517 0.5103
vn 0.0402 0.8496 0.5259
vn -0.0057 0.8472 0.5313
vn -0.0072 0.8501 0.5265
vn -0.6072 0.7611 0.2279
vn 0.0829 0.8128 -0.5766
vn -0.0974 0.7287 -0.6778
vn -0.0116 0.7689 -0.6393
vn -0.0162 0.7725 -0.6349
vn 0.0184 0.7894 -0.6136
vn -0.4288 0.8262 0.3653
vn -0.4936 0.8080 0.3217
vn -0.5285 0.7964 0.2938
vn -0.5267 0.7994 0.2891
vn -0.5818 0.7331 -0.3522
vn 0.4564 0.8713 -0.1807
vn 0.4552 0.7994 -0.3920
vn 0.4638 0.8348 -0.2965
vn 0.4574 0.8379 -0.2979
vn 0.4560 0.8523 -0.2563
vn -0.6105 0.7821 -0.1248
vn -0.6059 0.7690 -0.2037
vn -0.5995 0.7607 -0.2488
vn -0.5949 0.7641 -0.2495
vn -0.5085 0.8144 0.2796
vn 0.1859 0.8320 -0.5227
vn -0.0030 0.7779 -0.6284
vn 0.0869 0.8044 -0.5877
vn 0.0828 0.8082 -0.5830
vn 0.1192 0.8193 -0.5609
vn -0.3239 0.8476 0.4202
vn -0.3902 0.8405 0.3758
vn -0.4263 0.8353 0.3473
vn -0.4241 0.8382 0.3428
vn -0.5228 0.8079 0.2721
vn 0.1713 0.8303 -0.5304
vn -0.0166 0.7719 -0.6356
vn 0.0728 0.8004 -0.5951
vn 0.0686 0.8041 -0.5905
vn 0.1048 0.8160 -0.5684
vn -0.3388 0.8456 0.4124
vn -0.4050 0.8370 0.3680
vn -0.4410 0.8308 0.3396
vn -0.4389 0.8338 0.3351
vn -0.5975 0.5980 0.5342
vn -0.4706 0.7182 -0.5125
vn -0.6428 0.5765 -0.5045
vn -0.5659 0.6428 -0.5164
vn -0.5684 0.6456 -0.5101
vn -0.5346 0.6738 -0.5101
vn -0.4026 0.7261 0.5574
vn -0.4717 0.6857 0.5544
vn -0.5108 0.6615 0.5491
vn -0.5126 0.6641 0.5442
vn 0.0428 0.8166 0.5756
vn -0.3905 0.8325 -0.3930
vn -0.5664 0.7799 -0.2664
vn -0.4913 0.8058 -0.3307
vn -0.4889 0.8096 -0.3250
vn -0.4533 0.8203 -0.3487
vn 0.2485 0.8483 0.4677
vn 0.1801 0.8417 0.5090
vn 0.1390 0.8367 0.5297
vn 0.1358 0.8397 0.5258
vn 0.1271 0.7800 0.6128
vn -0.5261 0.8207 -0.2226
vn -0.6628 0.7462 -0.0628
vn -0.6071 0.7820 -0.1407
vn -0.6036 0.7857 -0.1355
vn -0.5756 0.8007 -0.1659
vn 0.2983 0.8349 0.4625
vn 0.2425 0.8203 0.5180
vn 0.2079 0.8107 0.5473
vn 0.2037 0.8136 0.5445
vn 0.5294 0.8124 0.2444
vn -0.5291 0.8315 0.1694
vn -0.5006 0.7760 0.3837
vn -0.5218 0.8032 0.2874
vn -0.5156 0.8070 0.2880
vn -0.5197 0.8183 0.2456
vn 0.5313 0.8471 0.0125
vn 0.5355 0.8395 0.0923
vn 0.5343 0.8339 0.1382
vn 0.5294 0.8369 0.1391
vn -0.0966 0.7669 -0.6345
vn 0.5376 0.8153 0.2150
vn 0.6764 0.7340 0.0604
vn 0.6197 0.7730 0.1360
vn 0.6164 0.7765 0.1306
vn 0.5880 0.7929 0.1600
vn -0.2702 0.8290 -0.4897
vn -0.2133 0.8118 -0.5435
vn -0.1783 0.8008 -0.5717
vn -0.1741 0.8038 -0.5689
vn 0.2327 0.7669 0.5981
vn -0.5716 0.8153 -0.0926
vn -0.6733 0.7340 0.0887
vn -0.6344 0.7730 0.0025
vn -0.6300 0.7765 0.0070
vn -0.6087 0.7929 -0.0278
vn 0.3705 0.8290 0.4189
vn 0.3268 0.8118 0.4839
vn 0.2988 0.8008 0.5190
vn 0.2941 0.8038 0.5172
vn 0.5084 0.8036 0.3094
vn -0.5398 0.8291 0.1457
vn -0.5297 0.7680 0.3601
vn -0.5426 0.7977 0.2631
vn -0.5365 0.8014 0.2643
vn -0.5370 0.8139 0.2221
vn 0.5301 0.8442 0.0795
vn 0.5274 0.8346 0.1591
vn 0.5223 0.8278 0.2046
vn 0.5174 0.8308 0.2052
vn -0.3715 0.8117 -0.4506
vn 0.5509 0.8313 0.0738
vn 0.6176 0.7754 -0.1317
vn 0.5952 0.8028 -0.0357
vn 0.5899 0.8066 -0.0389
vn 0.5753 0.8180 0.0010
vn -0.4734 0.8468 -0.2424
vn -0.4427 0.8391 -0.3161
vn -0.4218 0.8334 -0.3570
vn -0.4170 0.8364 -0.3557
vn -0.3356 0.7477 -0.5730
vn 0.5886 0.8065 -0.0548
vn 0.6520 0.7163 -0.2487
vn 0.6312 0.7593 -0.1583
vn 0.6261 0.7627 -0.1621
vn 0.6121 0.7809 -0.1245
vn -0.4350 0.8195 -0.3732
vn -0.4050 0.7989 -0.4447
vn -0.3845 0.7860 -0.4841
vn -0.3795 0.7889 -0.4833
vn -0.5124 0.8234 -0.2438
vn 0.5405 0.8339 -0.1117
vn 0.5233 0.7861 -0.3290
vn 0.5394 0.8098 -0.2309
vn 0.5333 0.8136 -0.2316
vn 0.5351 0.8234 -0.1887
vn -0.5267 0.8500 -0.0113
vn -0.5266 0.8452 -0.0913
vn -0.5230 0.8412 -0.1373
vn -0.5180 0.8442 -0.1379
vn -0.5549 0.8319 -0.0075
vn 0.4685 0.8351 -0.2883
vn 0.3688 0.7938 -0.4836
vn 0.4216 0.8145 -0.3985
vn 0.4157 0.8184 -0.3968
vn 0.4339 0.8269 -0.3576
vn -0.4789 0.8516 0.2133
vn -0.5094 0.8492 0.1392
vn -0.5237 0.8465 0.0953
vn -0.5193 0.8495 0.0929
vn -0.4453 0.8390 0.3127
vn 0.2496 0.8356 -0.4894
vn 0.0573 0.8003 -0.5969
vn 0.1489 0.8183 -0.5552
vn 0.1451 0.8222 -0.5504
vn 0.1822 0.8295 -0.5279
vn -0.2590 0.8524 0.4542
vn -0.3256 0.8522 0.4096
vn -0.3619 0.8508 0.3810
vn -0.3595 0.8538 0.3766
vn -0.6070 0.7613 0.2281
vn 0.0831 0.8129 -0.5765
vn -0.0971 0.7289 -0.6777
vn -0.0114 0.7690 -0.6391
vn -0.0160 0.7726 -0.6347
vn 0.0187 0.7895 -0.6135
vn -0.4285 0.8263 0.3655
vn -0.4933 0.8081 0.3219
vn -0.5283 0.7966 0.2939
vn -0.5265 0.7995 0.2892
vn 0.6753 0.5286 0.5143
vn -0.3683 0.6734 0.6410
vn -0.3266 0.5150 0.7925
vn -0.3532 0.5888 0.7270
vn -0.3465 0.5913 0.7283
vn -0.3531 0.6227 0.6982
vn 0.6583 0.6754 0.3323
vn 0.6696 0.6282 0.3961
vn 0.6724 0.6004 0.4329
vn 0.6682 0.6028 0.4361
vn 0.6154 0.7090 0.3443
vn -0.4391 0.7850 0.4371
vn -0.3853 0.6784 0.6256
vn -0.4176 0.7288 0.5427
vn -0.4111 0.7321 0.5432
vn -0.4202 0.7534 0.5057
vn 0.5878 0.7986 0.1294
vn 0.6024 0.7718 0.2036
vn 0.6072 0.7554 0.2466
vn 0.6026 0.7582 0.2489
vn -0.2074 0.7317 -0.6493
vn 0.6032 0.7969 0.0325
vn 0.7003 0.6993 -0.1431
vn 0.6637 0.7456 -0.0596
vn 0.6594 0.7491 -0.0644
vn 0.6389 0.7687 -0.0307
vn -0.3414 0.8115 -0.4743
vn -0.2989 0.7881 -0.5381
vn -0.2716 0.7736 -0.5725
vn -0.2667 0.7765 -0.5709
vn -0.7687 0.6220 0.1487
vn -0.1089 0.7293 -0.6755
vn -0.2643 0.5935 -0.7602
vn -0.1905 0.6570 -0.7294
vn -0.1958 0.6600 -0.7254
vn -0.1660 0.6870 -0.7074
vn -0.6107 0.7438 0.2718
vn -0.6693 0.7056 0.2327
vn -0.7006 0.6827 0.2074
vn -0.6995 0.6854 0.2023
vn -0.2599 0.7652 0.5890
vn -0.3458 0.8135 -0.4676
vn -0.5451 0.7310 -0.4104
vn -0.4571 0.7705 -0.4443
vn -0.4572 0.7740 -0.4380
vn -0.4176 0.7907 -0.4477
vn -0.0362 0.8286 0.5587
vn -0.1129 0.8110 0.5741
vn -0.1575 0.7997 0.5793
vn -0.1595 0.8026 0.5747
vn -0.6772 0.7339 -0.0532
vn 0.2620 0.7978 -0.5431
vn 0.1364 0.7010 -0.7000
vn 0.1997 0.7469 -0.6342
vn 0.1937 0.7503 -0.6320
vn 0.2172 0.7698 -0.6002
vn -0.5661 0.8128 0.1376
vn -0.6090 0.7897 0.0739
vn -0.6305 0.7754 0.0355
vn -0.6271 0.7783 0.0316
vn -0.5714 0.7931 0.2110
vn 0.1844 0.8256 -0.5333
vn 0.0079 0.7582 -0.6519
vn 0.0926 0.7908 -0.6050
vn 0.0879 0.7945 -0.6008
vn 0.1218 0.8082 -0.5762
vn -0.4010 0.8403 0.3648
vn -0.4630 0.8284 0.3154
vn -0.4963 0.8203 0.2843
vn -0.4939 0.8233 0.2799
vn -0.0975 0.5980 -0.7955
vn 0.6894 0.7182 -0.0938
vn 0.7811 0.5765 -0.2397
vn 0.7470 0.6428 -0.1697
vn 0.7433 0.6456 -0.1754
vn 0.7240 0.6738 -0.1476
vn -0.2278 0.7261 -0.6487
vn -0.1858 0.6857 -0.7038
vn -0.1591 0.6615 -0.7328
vn -0.1541 0.6641 -0.7316
vn 0.8516 0.3549 -0.3858
vn 0.5766 0.5265 0.6247
vn 0.6902 0.3352 0.6413
vn 0.6389 0.4236 0.6422
vn 0.6433 0.4253 0.6367
vn 0.6214 0.4632 0.6319
vn 0.7183 0.5406 -0.4378
vn 0.7683 0.4794 -0.4242
vn 0.7953 0.4436 -0.4131
vn 0.7970 0.4455 -0.4078
vn -0.8391 0.3890 -0.3803
vn 0.1103 0.5546 -0.8248
vn 0.0443 0.3684 -0.9286
vn 0.0805 0.4545 -0.8871
vn 0.0735 0.4564 -0.8868
vn 0.0850 0.4933 -0.8657
vn -0.7873 0.5685 -0.2387
vn -0.8110 0.5095 -0.2876
vn -0.8210 0.4750 -0.3167
vn -0.8180 0.4770 -0.3213
vt 0.293163 4.954233
vt 0.335707 5.102386
vt 0.256239 5.121584
vt 0.223221 4.968729
vt 0.175693 5.135822
vt 0.151320 4.980035
vt 0.094539 5.145764
vt 0.078096 4.988136
vt 0.013009 5.151849
vt 0.004029 4.993052
vt -0.584866 4.929314
vt -0.628081 5.079594
vt -0.705487 5.055523
vt -0.654285 4.908113
vt -0.781809 5.026679
vt -0.721407 4.883933
vt -0.856398 4.991970
vt -0.785538 4.857168
vt 0.360203 4.936266
vt 0.413236 5.077391
vt -0.294208 4.983969
vt -0.312405 5.141077
vt -0.392384 5.130301
vt -0.368125 4.974604
vt -0.471659 5.116520
vt -0.441375 4.962482
vt -0.550155 5.099669
vt -0.513767 4.947629
vt -0.241421 2.600050
vt -0.454062 4.662862
vt -0.515127 4.650397
vt -0.287054 2.595921
vt -0.195598 2.604594
vt -0.391993 4.673619
vt -0.150025 2.608824
vt -0.329131 4.682603
vt -0.104669 2.614618
vt -0.265684 4.689755
vt 0.291596 2.637558
vt 0.296685 4.672284
vt 0.237514 4.681082
vt 0.247348 2.636929
vt -0.377666 2.588654
vt -0.633482 4.620934
vt -0.690571 4.604454
vt -0.422271 2.585449
vt -0.332488 2.592063
vt -0.574999 4.636364
vt 0.115928 2.632380
vt 0.053039 4.697609
vt -0.010181 4.699712
vt 0.072286 2.630153
vt 0.159513 2.634044
vt 0.115548 4.693747
vt 0.203420 2.635470
vt 0.177114 4.688206
vt -0.070491 4.994807
vt -0.073886 4.700003
vt -0.145156 4.994168
vt -0.137853 4.698458
vt 0.028491 2.627731
vt -0.219813 4.990525
vt -0.201855 4.695044
vt -0.015437 2.624221
vt -0.059929 2.619581
vt -0.231749 5.148830
vt -0.150513 5.153232
vt -0.068815 5.154324
vt 1.104587 -4.154323
vt 1.123525 -4.154323
vt 1.123525 -4.135385
vt 1.104587 -4.135385
vt 0.262872 -2.691121
vt 0.021697 1.325903
vt -0.059621 1.320553
vt 0.227556 -2.693887
vt 0.348980 -4.153643
vt 0.369727 -4.151359
vt 0.267777 1.360989
vt 0.186338 1.351366
vt 0.332625 -2.685394
vt 0.367538 -2.682805
vt -0.218992 1.312943
vt -0.139579 1.316848
vt -0.298631 1.307354
vt 0.297854 -2.689647
vt 0.120471 -2.705412
vt 0.155733 -2.700286
vt 0.191549 -2.695756
vt 0.391185 -4.148102
vt 0.104144 1.337590
vt 0.402582 -2.679829
vt 0.413236 -4.148011
vt 0.349201 1.364312
vt 0.327761 -4.154325
vt 0.000000 0.800000
vt 0.542651 0.800000
vt 0.549868 1.000000
vt 0.000000 1.000000
vt 0.521000 0.200000
vt 0.513783 0.000000
vt 1.000000 0.000000
vt 1.000000 0.200000
vt 1.000000 0.800000
vt 1.000000 1.000000
vt 0.535434 0.600000
vt 1.000000 0.600000
vt 0.528217 0.400000
vt 1.000000 0.400000
vt 0.000000 0.000000
vt 0.000000 0.200000
vt 0.000000 0.400000
vt 0.000000 0.600000
s 1
usemtl pine_bark_1
f 53/1/1 12/2/2 7/3/3 46/4/4
f 46/4/4 7/3/3 6/5/5 47/6/6
f 47/6/6 6/5/5 5/7/7 48/8/8
f 48/8/8 5/7/7 4/9/9 49/10/10
f 44/11/11 13/12/12 16/13/13 50/14/14
f 50/14/14 16/13/13 15/15/15 51/16/16
f 51/16/16 15/15/15 14/17/17 52/18/18
f 52/19/18 14/20/17 12/2/2 53/1/1
f 45/21/19 8/22/20 11/23/21 54/24/22
f 54/24/22 11/23/21 10/25/23 55/26/24
f 55/26/24 10/25/23 9/27/25 56/28/26
f 56/28/26 9/27/25 13/12/12 44/11/11
f 40/29/27 39/30/28 29/31/29 28/32/30
f 82/33/31 38/34/32 39/30/28 40/29/27
f 79/35/33 37/36/34 38/34/32 82/33/31
f 78/37/35 36/38/36 37/36/34 79/35/33
f 34/39/37 33/40/38 35/41/39 77/42/40
f 74/43/41 32/44/42 33/45/38 34/46/37
f 31/47/43 30/48/44 32/44/42 74/43/41
f 28/32/30 29/31/29 30/48/44 31/47/43
f 69/49/45 25/50/46 26/51/47 27/52/48
f 24/53/49 23/54/50 25/50/46 69/49/45
f 22/55/51 21/56/52 23/54/50 24/53/49
f 43/57/53 20/58/54 26/51/47 49/10/10
f 77/42/40 35/41/39 21/56/52 22/55/51
f 42/59/55 19/60/56 20/58/54 43/57/53
f 20/58/54 66/61/57 27/52/48 26/51/47
f 41/62/58 18/63/59 19/60/56 42/59/55
f 19/60/56 63/64/60 66/61/57 20/58/54
f 45/21/19 36/38/36 18/63/59 41/62/58
f 18/63/59 17/65/61 63/64/60 19/60/56
f 8/22/20 45/21/19 41/62/58 1/66/62
f 1/66/62 41/62/58 42/59/55 2/67/63
f 2/67/63 42/59/55 43/57/53 3/68/64
f 3/68/64 43/57/53 49/10/10 4/9/9
f 39/30/28 56/28/26 44/11/11 29/31/29
f 38/34/32 55/26/24 56/28/26 39/30/28
f 37/36/34 54/24/22 55/26/24 38/34/32
f 36/38/36 45/21/19 54/24/22 37/36/34
f 33/40/38 52/19/18 53/1/1 35/41/39
f 32/44/42 51/16/16 52/18/18 33/45/38
f 30/48/44 50/14/14 51/16/16 32/44/42
f 29/31/29 44/11/11 50/14/14 30/48/44
f 25/50/46 48/8/8 49/10/10 26/51/47
f 23/54/50 47/6/6 48/8/8 25/50/46
f 21/56/52 46/4/4 47/6/6 23/54/50
f 35/41/39 53/1/1 46/4/4 21/56/52
f 60/69/65 58/70/65 57/71/65 59/72/65
f 36/38/36 78/37/35 17/65/61 18/63/59
f 61/73/66 62/74/67 80/75/68 81/76/69
f 59/77/70 57/78/71 81/76/69
f 67/79/72 70/80/73 71/81/74 68/82/75
f 28/32/30 72/83/76 83/84/77
f 72/83/76 74/43/41 75/85/78
f 57/78/71 64/86/79 61/73/66
f 72/83/76 75/85/78 76/87/80 73/88/81
f 80/75/68 83/84/77 84/89/82 81/76/69
f 62/74/67 78/37/35 80/75/68
f 80/75/68 82/33/31 83/84/77
f 64/86/79 57/78/71 58/90/83
f 65/91/84 64/86/79 71/81/74 70/80/73
f 76/92/80 68/82/75 60/93/85
f 77/42/40 67/79/72 75/94/78
f 83/84/77 72/83/76 73/88/81 84/89/82
f 84/89/82 73/88/81 59/77/70
f 64/86/79 65/91/84 62/74/67 61/73/66
f 27/52/48 65/91/84 70/80/73
f 75/94/78 67/79/72 68/82/75 76/92/80
f 66/61/57 65/91/84 27/52/48
f 63/64/60 65/91/84 66/61/57
f 65/91/84 63/64/60 62/74/67
f 17/65/61 62/74/67 63/64/60
f 78/37/35 62/74/67 17/65/61
f 80/75/68 78/37/35 79/35/33
f 82/33/31 80/75/68 79/35/33
f 83/84/77 82/33/31 40/29/27
f 28/32/30 83/84/77 40/29/27
f 72/83/76 28/32/30 31/47/43
f 74/43/41 72/83/76 31/47/43
f 75/85/78 74/43/41 34/46/37
f 77/42/40 75/94/78 34/39/37
f 67/79/72 77/42/40 22/55/51
f 70/80/73 24/53/49 69/49/45
f 24/53/49 67/79/72 22/55/51
f 27/52/48 70/80/73 69/49/45
f 67/79/72 24/53/49 70/80/73
f 59/77/70 73/88/81 60/95/85
f 59/77/70 81/76/69 84/89/82
f 57/78/71 61/73/66 81/76/69
f 60/95/85 73/88/81 76/87/80
f 58/90/83 68/82/75 71/81/74
f 64/86/79 58/90/83 71/81/74
f 60/93/85 68/82/75 58/90/83
usemtl pine_branch_1
f 91/96/86 99/97/86 89/98/86 87/99/86
f 102/100/87 90/101/87 86/102/87 95/103/87
f 89/98/88 99/97/88 98/104/88 88/105/88
f 99/97/89 100/106/89 97/107/89 98/104/89
f 100/106/90 101/108/90 96/109/90 97/107/90
f 101/108/91 102/100/91 95/103/91 96/109/91
f 85/110/92 90/101/92 102/100/92 94/111/92
f 94/111/93 102/100/93 101/108/93 93/112/93
f 93/112/94 101/108/94 100/106/94 92/113/94
f 92/113/95 100/106/95 99/97/95 91/96/95
f 109/96/96 117/97/96 107/98/96 105/99/96
f 120/100/97 108/101/97 104/102/97 113/103/97
f 107/98/98 117/97/98 116/104/98 106/105/98
f 117/97/99 118/106/99 115/107/99 116/104/99
f 118/106/100 119/108/100 114/109/100 115/107/100
f 119/108/101 120/100/101 113/103/101 114/109/101
f 103/110/102 108/101/102 120/100/102 112/111/102
f 112/111/103 120/100/103 119/108/103 111/112/103
f 111/112/104 119/108/104 118/106/104 110/113/104
f 110/113/105 118/106/105 117/97/105 109/96/105
f 127/96/106 135/97/106 125/98/106 123/99/106
f 138/100/107 126/101/107 122/102/107 131/103/107
f 125/98/108 135/97/108 134/104/108 124/105/108
f 135/97/109 136/106/109 133/107/109 134/104/109
f 136/106/110 137/108/110 132/109/110 133/107/110
f 137/108/111 138/100/111 131/103/111 132/109/111
f 121/110/112 126/101/112 138/100/112 130/111/112
f 130/111/113 138/100/113 137/108/113 129/112/113
f 129/112/114 137/108/114 136/106/114 128/113/114
f 128/113/115 136/106/115 135/97/115 127/96/115
f 145/96/116 153/97/116 143/98/116 141/99/116
f 156/100/117 144/101/117 140/102/117 149/103/117
f 143/98/118 153/97/118 152/104/118 142/105/118
f 153/97/119 154/106/119 151/107/119 152/104/119
f 154/106/120 155/108/120 150/109/120 151/107/120
f 155/108/121 156/100/121 149/103/121 150/109/121
f 139/110/122 144/101/122 156/100/122 148/111/122
f 148/111/123 156/100/123 155/108/123 147/112/123
f 147/112/124 155/108/124 154/106/124 146/113/124
f 146/113/125 154/106/125 153/97/125 145/96/125
f 163/96/116 171/97/116 161/98/116 159/99/116
f 174/100/117 162/101/117 158/102/117 167/103/117
f 161/98/118 171/97/118 170/104/118 160/105/118
f 171/97/119 172/106/119 169/107/119 170/104/119
f 172/106/120 173/108/120 168/109/120 169/107/120
f 173/108/121 174/100/121 167/103/121 168/109/121
f 157/110/122 162/101/122 174/100/122 166/111/122
f 166/111/123 174/100/123 173/108/123 165/112/123
f 165/112/124 173/108/124 172/106/124 164/113/124
f 164/113/125 172/106/125 171/97/125 163/96/125
f 181/96/126 189/97/126 179/98/126 177/99/126
f 192/100/127 180/101/127 176/102/127 185/103/127
f 179/98/128 189/97/128 188/104/128 178/105/128
f 189/97/129 190/106/129 187/107/129 188/104/129
f 190/106/130 191/108/130 186/109/130 187/107/130
f 191/108/131 192/100/131 185/103/131 186/109/131
f 175/110/132 180/101/132 192/100/132 184/111/132
f 184/111/133 192/100/133 191/108/133 183/112/133
f 183/112/134 191/108/134 190/106/134 182/113/134
f 182/113/135 190/106/135 189/97/135 181/96/135
f 199/96/136 207/97/136 197/98/136 195/99/136
f 210/100/137 198/101/137 194/102/137 203/103/137
f 197/98/138 207/97/138 206/104/138 196/105/138
f 207/97/139 208/106/139 205/107/139 206/104/139
f 208/106/140 209/108/140 204/109/140 205/107/140
f 209/108/141 210/100/141 203/103/141 204/109/141
f 193/110/142 198/101/142 210/100/142 202/111/142
f 202/111/143 210/100/143 209/108/143 201/112/143
f 201/112/144 209/108/144 208/106/144 200/113/144
f 200/113/145 208/106/145 207/97/145 199/96/145
f 217/96/146 225/97/146 215/98/146 213/99/146
f 228/100/147 216/101/147 212/102/147 221/103/147
f 215/98/148 225/97/148 224/104/148 214/105/148
f 225/97/149 226/106/149 223/107/149 224/104/149
f 226/106/150 227/108/150 222/109/150 223/107/150
f 227/108/151 228/100/151 221/103/151 222/109/151
f 211/110/152 216/101/152 228/100/152 220/111/152
f 220/111/153 228/100/153 227/108/153 219/112/153
f 219/112/154 227/108/154 226/106/154 218/113/154
f 218/113/155 226/106/155 225/97/155 217/96/155
f 235/96/156 243/97/156 233/98/156 231/99/156
f 246/100/157 234/101/157 230/102/157 239/103/157
f 233/98/158 243/97/158 242/104/158 232/105/158
f 243/97/159 244/106/159 241/107/159 242/104/159
f 244/106/160 245/108/160 240/109/160 241/107/160
f 245/108/161 246/100/161 239/103/161 240/109/161
f 229/110/162 234/101/162 246/100/162 238/111/162
f 238/111/163 246/100/163 245/108/163 237/112/163
f 237/112/164 245/108/164 244/106/164 236/113/164
f 236/113/165 244/106/165 243/97/165 235/96/165
f 253/96/166 261/97/166 251/98/166 249/99/166
f 264/100/167 252/101/167 248/102/167 257/103/167
f 251/98/168 261/97/168 260/104/168 250/105/168
f 261/97/169 262/106/169 259/107/169 260/104/169
f 262/106/170 263/108/170 258/109/170 259/107/170
f 263/108/171 264/100/171 257/103/171 258/109/171
f 247/110/172 252/101/172 264/100/172 256/111/172
f 256/111/173 264/100/173 263/108/173 255/112/173
f 255/112/174 263/108/174 262/106/174 254/113/174
f 254/113/175 262/106/175 261/97/175 253/96/175
f 271/96/156 279/97/156 269/98/156 267/99/156
f 282/100/157 270/101/157 266/102/157 275/103/157
f 269/98/158 279/97/158 278/104/158 268/105/158
f 279/97/159 280/106/159 277/107/159 278/104/159
f 280/106/160 281/108/160 276/109/160 277/107/160
f 281/108/161 282/100/161 275/103/161 276/109/161
f 265/110/162 270/101/162 282/100/162 274/111/162
f 274/111/163 282/100/163 281/108/163 273/112/163
f 273/112/164 281/108/164 280/106/164 272/113/164
f 272/113/165 280/106/165 279/97/165 271/96/165
f 289/96/176 297/97/176 287/98/176 285/99/176
f 300/100/177 288/101/177 284/102/177 293/103/177
f 287/98/178 297/97/178 296/104/178 286/105/178
f 297/97/179 298/106/179 295/107/179 296/104/179
f 298/106/180 299/108/180 294/109/180 295/107/180
f 299/108/181 300/100/181 293/103/181 294/109/181
f 283/110/182 288/101/182 300/100/182 292/111/182
f 292/111/183 300/100/183 299/108/183 291/112/183
f 291/112/184 299/108/184 298/106/184 290/113/184
f 290/113/185 298/106/185 297/97/185 289/96/185
f 307/96/186 315/97/186 305/98/186 303/99/186
f 318/100/187 306/101/187 302/102/187 311/103/187
f 305/98/188 315/97/188 314/104/188 304/105/188
f 315/97/189 316/106/189 313/107/189 314/104/189
f 316/106/190 317/108/190 312/109/190 313/107/190
f 317/108/191 318/100/191 311/103/191 312/109/191
f 301/110/192 306/101/192 318/100/192 310/111/192
f 310/111/193 318/100/193 317/108/193 309/112/193
f 309/112/194 317/108/194 316/106/194 308/113/194
f 308/113/195 316/106/195 315/97/195 307/96/195
f 325/96/196 333/97/196 323/98/196 321/99/196
f 336/100/197 324/101/197 320/102/197 329/103/197
f 323/98/198 333/97/198 332/104/198 322/105/198
f 333/97/199 334/106/199 331/107/199 332/104/199
f 334/106/200 335/108/200 330/109/200 331/107/200
f 335/108/201 336/100/201 329/103/201 330/109/201
f 319/110/202 324/101/202 336/100/202 328/111/202
f 328/111/203 336/100/203 335/108/203 327/112/203
f 327/112/204 335/108/204 334/106/204 326/113/204
f 326/113/205 334/106/205 333/97/205 325/96/205
f 343/96/206 351/97/206 341/98/206 339/99/206
f 354/100/207 342/101/207 338/102/207 347/103/207
f 341/98/208 351/97/208 350/104/208 340/105/208
f 351/97/209 352/106/209 349/107/209 350/104/209
f 352/106/210 353/108/210 348/109/210 349/107/210
f 353/108/211 354/100/211 347/103/211 348/109/211
f 337/110/212 342/101/212 354/100/212 346/111/212
f 346/111/213 354/100/213 353/108/213 345/112/213
f 345/112/214 353/108/214 352/106/214 344/113/214
f 344/113/215 352/106/215 351/97/215 343/96/215
f 361/96/216 369/97/216 359/98/216 357/99/216
f 372/100/217 360/101/217 356/102/217 365/103/217
f 359/98/218 369/97/218 368/104/218 358/105/218
f 369/97/219 370/106/219 367/107/219 368/104/219
f 370/106/220 371/108/220 366/109/220 367/107/220
f 371/108/221 372/100/221 365/103/221 366/109/221
f 355/110/222 360/101/222 372/100/222 364/111/222
f 364/111/223 372/100/223 371/108/223 363/112/223
f 363/112/224 371/108/224 370/106/224 362/113/224
f 362/113/225 370/106/225 369/97/225 361/96/225
f 379/96/216 387/97/216 377/98/216 375/99/216
f 390/100/217 378/101/217 374/102/217 383/103/217
f 377/98/218 387/97/218 386/104/218 376/105/218
f 387/97/219 388/106/219 385/107/219 386/104/219
f 388/106/220 389/108/220 384/109/220 385/107/220
f 389/108/221 390/100/221 383/103/221 384/109/221
f 373/110/222 378/101/222 390/100/222 382/111/222
f 382/111/223 390/100/223 389/108/223 381/112/223
f 381/112/224 389/108/224 388/106/224 380/113/224
f 380/113/225 388/106/225 387/97/225 379/96/225
f 397/96/226 405/97/226 395/98/226 393/99/226
f 408/100/227 396/101/227 392/102/227 401/103/227
f 395/98/228 405/97/228 404/104/228 394/105/228
f 405/97/229 406/106/229 403/107/229 404/104/229
f 406/106/230 407/108/230 402/109/230 403/107/230
f 407/108/231 408/100/231 401/103/231 402/109/231
f 391/110/232 396/101/232 408/100/232 400/111/232
f 400/111/233 408/100/233 407/108/233 399/112/233
f 399/112/234 407/108/234 406/106/234 398/113/234
f 398/113/235 406/106/235 405/97/235 397/96/235
f 415/96/236 423/97/236 413/98/236 411/99/236
f 426/100/237 414/101/237 410/102/237 419/103/237
f 413/98/238 423/97/238 422/104/238 412/105/238
f 423/97/239 424/106/239 421/107/239 422/104/239
f 424/106/240 425/108/240 420/109/240 421/107/240
f 425/108/241 426/100/241 419/103/241 420/109/241
f 409/110/242 414/101/242 426/100/242 418/111/242
f 418/111/243 426/100/243 425/108/243 417/112/243
f 417/112/244 425/108/244 424/106/244 416/113/244
f 416/113/245 424/106/245 423/97/245 415/96/245
f 433/96/236 441/97/236 431/98/236 429/99/236
f 444/100/237 432/101/237 428/102/237 437/103/237
f 431/98/238 441/97/238 440/104/238 430/105/238
f 441/97/239 442/106/239 439/107/239 440/104/239
f 442/106/240 443/108/240 438/109/240 439/107/240
f 443/108/241 444/100/241 437/103/241 438/109/241
f 427/110/242 432/101/242 444/100/242 436/111/242
f 436/111/243 444/100/243 443/108/243 435/112/243
f 435/112/244 443/108/244 442/106/244 434/113/244
f 434/113/245 442/106/245 441/97/245 433/96/245
f 451/96/246 459/97/246 449/98/246 447/99/246
f 462/100/247 450/101/247 446/102/247 455/103/247
f 449/98/248 459/97/248 458/104/248 448/105/248
f 459/97/249 460/106/249 457/107/249 458/104/249
f 460/106/250 461/108/250 456/109/250 457/107/250
f 461/108/251 462/100/251 455/103/251 456/109/251
f 445/110/252 450/101/252 462/100/252 454/111/252
f 454/111/253 462/100/253 461/108/253 453/112/253
f 453/112/254 461/108/254 460/106/254 452/113/254
f 452/113/255 460/106/255 459/97/255 451/96/255
f 469/96/256 477/97/256 467/98/256 465/99/256
f 480/100/257 468/101/257 464/102/257 473/103/257
f 467/98/258 477/97/258 476/104/258 466/105/258
f 477/97/259 478/106/259 475/107/259 476/104/259
f 478/106/260 479/108/260 474/109/260 475/107/260
f 479/108/261 480/100/261 473/103/261 474/109/261
f 463/110/262 468/101/262 480/100/262 472/111/262
f 472/111/263 480/100/263 479/108/263 471/112/263
f 471/112/264 479/108/264 478/106/264 470/113/264
f 470/113/265 478/106/265 477/97/265 469/96/265
f 487/96/266 495/97/266 485/98/266 483/99/266
f 498/100/267 486/101/267 482/102/267 491/103/267
f 485/98/268 495/97/268 494/104/268 484/105/268
f 495/97/269 496/106/269 493/107/269 494/104/269
f 496/106/270 497/108/270 492/109/270 493/107/270
f 497/108/271 498/100/271 491/103/271 492/109/271
f 481/110/272 486/101/272 498/100/272 490/111/272
f 490/111/273 498/100/273 497/108/273 489/112/273
f 489/112/274 497/108/274 496/106/274 488/113/274
f 488/113/275 496/106/275 495/97/275 487/96/275
f 505/96/276 513/97/276 503/98/276 501/99/276
f 516/100/277 504/101/277 500/102/277 509/103/277
f 503/98/278 513/97/278 512/104/278 502/105/278
f 513/97/279 514/106/279 511/107/279 512/104/279
f 514/106/280 515/108/280 510/109/280 511/107/280
f 515/108/281 516/100/281 509/103/281 510/109/281
f 499/110/282 504/101/282 516/100/282 508/111/282
f 508/111/283 516/100/283 515/108/283 507/112/283
f 507/112/284 515/108/284 514/106/284 506/113/284
f 506/113/285 514/106/285 513/97/285 505/96/285
f 523/96/276 531/97/276 521/98/276 519/99/276
f 534/100/277 522/101/277 518/102/277 527/103/277
f 521/98/278 531/97/278 530/104/278 520/105/278
f 531/97/279 532/106/279 529/107/279 530/104/279
f 532/106/280 533/108/280 528/109/280 529/107/280
f 533/108/281 534/100/281 527/103/281 528/109/281
f 517/110/282 522/101/282 534/100/282 526/111/282
f 526/111/283 534/100/283 533/108/283 525/112/283
f 525/112/284 533/108/284 532/106/284 524/113/284
f 524/113/285 532/106/285 531/97/285 523/96/285
f 541/96/286 549/97/286 539/98/286 537/99/286
f 552/100/287 540/101/287 536/102/287 545/103/287
f 539/98/288 549/97/288 548/104/288 538/105/288
f 549/97/289 550/106/289 547/107/289 548/104/289
f 550/106/290 551/108/290 546/109/290 547/107/290
f 551/108/291 552/100/291 545/103/291 546/109/291
f 535/110/292 540/101/292 552/100/292 544/111/292
f 544/111/293 552/100/293 551/108/293 543/112/293
f 543/112/294 551/108/294 550/106/294 542/113/294
f 542/113/295 550/106/295 549/97/295 541/96/295
f 559/96/296 567/97/296 557/98/296 555/99/296
f 570/100/297 558/101/297 554/102/297 563/103/297
f 557/98/298 567/97/298 566/104/298 556/105/298
f 567/97/299 568/106/299 565/107/299 566/104/299
f 568/106/300 569/108/300 564/109/300 565/107/300
f 569/108/301 570/100/301 563/103/301 564/109/301
f 553/110/302 558/101/302 570/100/302 562/111/302
f 562/111/303 570/100/303 569/108/303 561/112/303
f 561/112/304 569/108/304 568/106/304 560/113/304
f 560/113/305 568/106/305 567/97/305 559/96/305
f 577/96/306 585/97/306 575/98/306 573/99/306
f 588/100/307 576/101/307 572/102/307 581/103/307
f 575/98/308 585/97/308 584/104/308 574/105/308
f 585/97/309 586/106/309 583/107/309 584/104/309
f 586/106/310 587/108/310 582/109/310 583/107/310
f 587/108/311 588/100/311 581/103/311 582/109/311
f 571/110/312 576/101/312 588/100/312 580/111/312
f 580/111/313 588/100/313 587/108/313 579/112/313
f 579/112/314 587/108/314 586/106/314 578/113/314
f 578/113/315 586/106/315 585/97/315 577/96/315
f 595/96/316 603/97/316 593/98/316 591/99/316
f 606/100/317 594/101/317 590/102/317 599/103/317
f 593/98/318 603/97/318 602/104/318 592/105/318
f 603/97/319 604/106/319 601/107/319 602/104/319
f 604/106/320 605/108/320 600/109/320 601/107/320
f 605/108/321 606/100/321 599/103/321 600/109/321
f 589/110/322 594/101/322 606/100/322 598/111/322
f 598/111/323 606/100/323 605/108/323 597/112/323
f 597/112/324 605/108/324 604/106/324 596/113/324
f 596/113/325 604/106/325 603/97/325 595/96/325
f 613/96/306 621/97/306 611/98/306 609/99/306
f 624/100/307 612/101/307 608/102/307 617/103/307
f 611/98/308 621/97/308 620/104/308 610/105/308
f 621/97/309 622/106/309 619/107/309 620/104/309
f 622/106/310 623/108/310 618/109/310 619/107/310
f 623/108/311 624/100/311 617/103/311 618/109/311
f 607/110/312 612/101/312 624/100/312 616/111/312
f 616/111/313 624/100/313 623/108/313 615/112/313
f 615/112/314 623/108/314 622/106/314 614/113/314
f 614/113/315 622/106/315 621/97/315 613/96/315
f 631/96/326 639/97/326 629/98/326 627/99/326
f 642/100/327 630/101/327 626/102/327 635/103/327
f 629/98/328 639/97/328 638/104/328 628/105/328
f 639/97/329 640/106/329 637/107/329 638/104/329
f 640/106/330 641/108/330 636/109/330 637/107/330
f 641/108/331 642/100/331 635/103/331 636/109/331
f 625/110/332 630/101/332 642/100/332 634/111/332
f 634/111/333 642/100/333 641/108/333 633/112/333
f 633/112/334 641/108/334 640/106/334 632/113/334
f 632/113/335 640/106/335 639/97/335 631/96/335
f 649/96/336 657/97/336 647/98/336 645/99/336
f 660/100/337 648/101/337 644/102/337 653/103/337
f 647/98/338 657/97/338 656/104/338 646/105/338
f 657/97/339 658/106/339 655/107/339 656/104/339
f 658/106/340 659/108/340 654/109/340 655/107/340
f 659/108/341 660/100/341 653/103/341 654/109/341
f 643/110/342 648/101/342 660/100/342 652/111/342
f 652/111/343 660/100/343 659/108/343 651/112/343
f 651/112/344 659/108/344 658/106/344 650/113/344
f 650/113/345 658/106/345 657/97/345 649/96/345
f 667/96/346 675/97/346 665/98/346 663/99/346
f 678/100/347 666/101/347 662/102/347 671/103/347
f 665/98/348 675/97/348 674/104/348 664/105/348
f 675/97/349 676/106/349 673/107/349 674/104/349
f 676/106/350 677/108/350 672/109/350 673/107/350
f 677/108/351 678/100/351 671/103/351 672/109/351
f 661/110/352 666/101/352 678/100/352 670/111/352
f 670/111/353 678/100/353 677/108/353 669/112/353
f 669/112/354 677/108/354 676/106/354 668/113/354
f 668/113/355 676/106/355 675/97/355 667/96/355
f 685/96/356 693/97/356 683/98/356 681/99/356
f 696/100/357 684/101/357 680/102/357 689/103/357
f 683/98/358 693/97/358 692/104/358 682/105/358
f 693/97/359 694/106/359 691/107/359 692/104/359
f 694/106/360 695/108/360 690/109/360 691/107/360
f 695/108/361 696/100/361 689/103/361 690/109/361
f 679/110/362 684/101/362 696/100/362 688/111/362
f 688/111/363 696/100/363 695/108/363 687/112/363
f 687/112/364 695/108/364 694/106/364 686/113/364
f 686/113/365 694/106/365 693/97/365 685/96/365
f 703/96/366 711/97/366 701/98/366 699/99/366
f 714/100/367 702/101/367 698/102/367 707/103/367
f 701/98/368 711/97/368 710/104/368 700/105/368
f 711/97/369 712/106/369 709/107/369 710/104/369
f 712/106/370 713/108/370 708/109/370 709/107/370
f 713/108/371 714/100/371 707/103/371 708/109/371
f 697/110/372 702/101/372 714/100/372 706/111/372
f 706/111/373 714/100/373 713/108/373 705/112/373
f 705/112/374 713/108/374 712/106/374 704/113/374
f 704/113/375 712/106/375 711/97/375 703/96/375
f 721/96/376 729/97/376 719/98/376 717/99/376
f 732/100/377 720/101/377 716/102/377 725/103/377
f 719/98/378 729/97/378 728/104/378 718/105/378
f 729/97/379 730/106/379 727/107/379 728/104/379
f 730/106/380 731/108/380 726/109/380 727/107/380
f 731/108/381 732/100/381 725/103/381 726/109/381
f 715/110/382 720/101/382 732/100/382 724/111/382
f 724/111/383 732/100/383 731/108/383 723/112/383
f 723/112/384 731/108/384 730/106/384 722/113/384
f 722/113/385 730/106/385 729/97/385 721/96/385
f 739/96/386 747/97/386 737/98/386 735/99/386
f 750/100/387 738/101/387 734/102/387 743/103/387
f 737/98/388 747/97/388 746/104/388 736/105/388
f 747/97/389 748/106/389 745/107/389 746/104/389
f 748/106/390 749/108/390 744/109/390 745/107/390
f 749/108/391 750/100/391 743/103/391 744/109/391
f 733/110/392 738/101/392 750/100/392 742/111/392
f 742/111/393 750/100/393 749/108/393 741/112/393
f 741/112/394 749/108/394 748/106/394 740/113/394
f 740/113/395 748/106/395 747/97/395 739/96/395
f 757/96/396 765/97/396 755/98/396 753/99/396
f 768/100/397 756/101/397 752/102/397 761/103/397
f 755/98/398 765/97/398 764/104/398 754/105/398
f 765/97/399 766/106/399 763/107/399 764/104/399
f 766/106/400 767/108/400 762/109/400 763/107/400
f 767/108/401 768/100/401 761/103/401 762/109/401
f 751/110/402 756/101/402 768/100/402 760/111/402
f 760/111/403 768/100/403 767/108/403 759/112/403
f 759/112/404 767/108/404 766/106/404 758/113/404
f 758/113/405 766/106/405 765/97/405 757/96/405
f 775/96/406 783/97/406 773/98/406 771/99/406
f 786/100/407 774/101/407 770/102/407 779/103/407
f 773/98/408 783/97/408 782/104/408 772/105/408
f 783/97/409 784/106/409 781/107/409 782/104/409
f 784/106/410 785/108/410 780/109/410 781/107/410
f 785/108/411 786/100/411 779/103/411 780/109/411
f 769/110/412 774/101/412 786/100/412 778/111/412
f 778/111/413 786/100/413 785/108/413 777/112/413
f 777/112/414 785/108/414 784/106/414 776/113/414
f 776/113/415 784/106/415 783/97/415 775/96/415
f 793/96/416 801/97/416 791/98/416 789/99/416
f 804/100/417 792/101/417 788/102/417 797/103/417
f 791/98/418 801/97/418 800/104/418 790/105/418
f 801/97/419 802/106/419 799/107/419 800/104/419
f 802/106/420 803/108/420 798/109/420 799/107/420
f 803/108/421 804/100/421 797/103/421 798/109/421
f 787/110/422 792/101/422 804/100/422 796/111/422
f 796/111/423 804/100/423 803/108/423 795/112/423
f 795/112/424 803/108/424 802/106/424 794/113/424
f 794/113/425 802/106/425 801/97/425 793/96/425
f 811/96/426 819/97/426 809/98/426 807/99/426
f 822/100/427 810/101/427 806/102/427 815/103/427
f 809/98/428 819/97/428 818/104/428 808/105/428
f 819/97/429 820/106/429 817/107/429 818/104/429
f 820/106/430 821/108/430 816/109/430 817/107/430
f 821/108/431 822/100/431 815/103/431 816/109/431
f 805/110/432 810/101/432 822/100/432 814/111/432
f 814/111/433 822/100/433 821/108/433 813/112/433
f 813/112/434 821/108/434 820/106/434 812/113/434
f 812/113/435 820/106/435 819/97/435 811/96/435
f 829/96/436 837/97/436 827/98/436 825/99/436
f 840/100/437 828/101/437 824/102/437 833/103/437
f 827/98/438 837/97/438 836/104/438 826/105/438
f 837/97/439 838/106/439 835/107/439 836/104/439
f 838/106/440 839/108/440 834/109/440 835/107/440
f 839/108/441 840/100/441 833/103/441 834/109/441
f 823/110/442 828/101/442 840/100/442 832/111/442
f 832/111/443 840/100/443 839/108/443 831/112/443
f 831/112/444 839/108/444 838/106/444 830/113/444
f 830/113/445 838/106/445 837/97/445 829/96/445
f 847/96/446 855/97/446 845/98/446 843/99/446
f 858/100/447 846/101/447 842/102/447 851/103/447
f 845/98/448 855/97/448 854/104/448 844/105/448
f 855/97/449 856/106/449 853/107/449 854/104/449
f 856/106/450 857/108/450 852/109/450 853/107/450
f 857/108/451 858/100/451 851/103/451 852/109/451
f 841/110/452 846/101/452 858/100/452 850/111/452
f 850/111/453 858/100/453 857/108/453 849/112/453
f 849/112/454 857/108/454 856/106/454 848/113/454
f 848/113/455 856/106/455 855/97/455 847/96/455
f 865/96/456 873/97/456 863/98/456 861/99/456
f 876/100/457 864/101/457 860/102/457 869/103/457
f 863/98/458 873/97/458 872/104/458 862/105/458
f 873/97/459 874/106/459 871/107/459 872/104/459
f 874/106/460 875/108/460 870/109/460 871/107/460
f 875/108/461 876/100/461 869/103/461 870/109/461
f 859/110/462 864/101/462 876/100/462 868/111/462
f 868/111/463 876/100/463 875/108/463 867/112/463
f 867/112/464 875/108/464 874/106/464 866/113/464
f 866/113/465 874/106/465 873/97/465 865/96/465
f 883/96/466 891/97/466 881/98/466 879/99/466
f 894/100/467 882/101/467 878/102/467 887/103/467
f 881/98/468 891/97/468 890/104/468 880/105/468
f 891/97/469 892/106/469 889/107/469 890/104/469
f 892/106/470 893/108/470 888/109/470 889/107/470
f 893/108/471 894/100/471 887/103/471 888/109/471
f 877/110/472 882/101/472 894/100/472 886/111/472
f 886/111/473 894/100/473 893/108/473 885/112/473
f 885/112/474 893/108/474 892/106/474 884/113/474
f 884/113/475 892/106/475 891/97/475 883/96/475
f 901/96/476 909/97/476 899/98/476 897/99/476
f 912/100/477 900/101/477 896/102/477 905/103/477
f 899/98/478 909/97/478 908/104/478 898/105/478
f 909/97/479 910/106/479 907/107/479 908/104/479
f 910/106/480 911/108/480 906/109/480 907/107/480
f 911/108/481 912/100/481 905/103/481 906/109/481
f 895/110/482 900/101/482 912/100/482 904/111/482
f 904/111/483 912/100/483 911/108/483 903/112/483
f 903/112/484 911/108/484 910/106/484 902/113/484
f 902/113/485 910/106/485 909/97/485 901/96/485
f 919/96/486 927/97/486 917/98/486 915/99/486
f 930/100/487 918/101/487 914/102/487 923/103/487
f 917/98/488 927/97/488 926/104/488 916/105/488
f 927/97/489 928/106/489 925/107/489 926/104/489
f 928/106/490 929/108/490 924/109/490 925/107/490
f 929/108/491 930/100/491 923/103/491 924/109/491
f 913/110/492 918/101/492 930/100/492 922/111/492
f 922/111/493 930/100/493 929/108/493 921/112/493
f 921/112/494 929/108/494 928/106/494 920/113/494
f 920/113/495 928/106/495 927/97/495 919/96/495
f 937/96/496 945/97/496 935/98/496 933/99/496
f 948/100/497 936/101/497 932/102/497 941/103/497
f 935/98/498 945/97/498 944/104/498 934/105/498
f 945/97/499 946/106/499 943/107/499 944/104/499
f 946/106/500 947/108/500 942/109/500 943/107/500
f 947/108/501 948/100/501 941/103/501 942/109/501
f 931/110/502 936/101/502 948/100/502 940/111/502
f 940/111/503 948/100/503 947/108/503 939/112/503
f 939/112/504 947/108/504 946/106/504 938/113/504
f 938/113/505 946/106/505 945/97/505 937/96/505
f 955/96/506 963/97/506 953/98/506 951/99/506
f 966/100/507 954/101/507 950/102/507 959/103/507
f 953/98/508 963/97/508 962/104/508 952/105/508
f 963/97/509 964/106/509 961/107/509 962/104/509
f 964/106/510 965/108/510 960/109/510 961/107/510
f 965/108/511 966/100/511 959/103/511 960/109/511
f 949/110/512 954/101/512 966/100/512 958/111/512
f 958/111/513 966/100/513 965/108/513 957/112/513
f 957/112/514 965/108/514 964/106/514 956/113/514
f 956/113/515 964/106/515 963/97/515 955/96/515
f 973/96/516 981/97/516 971/98/516 969/99/516
f 984/100/517 972/101/517 968/102/517 977/103/517
f 971/98/518 981/97/518 980/104/518 970/105/518
f 981/97/519 982/106/519 979/107/519 980/104/519
f 982/106/520 983/108/520 978/109/520 979/107/520
f 983/108/521 984/100/521 977/103/521 978/109/521
f 967/110/522 972/101/522 984/100/522 976/111/522
f 976/111/523 984/100/523 983/108/523 975/112/523
f 975/112/524 983/108/524 982/106/524 974/113/524
f 974/113/525 982/106/525 981/97/525 973/96/525
f 991/96/526 999/97/526 989/98/526 987/99/526
f 1002/100/527 990/101/527 986/102/527 995/103/527
f 989/98/528 999/97/528 998/104/528 988/105/528
f 999/97/529 1000/106/529 997/107/529 998/104/529
f 1000/106/530 1001/108/530 996/109/530 997/107/530
f 1001/108/531 1002/100/531 995/103/531 996/109/531
f 985/110/532 990/101/532 1002/100/532 994/111/532
f 994/111/533 1002/100/533 1001/108/533 993/112/533
f 993/112/534 1001/108/534 1000/106/534 992/113/534
f 992/113/535 1000/106/535 999/97/535 991/96/535
f 1009/96/536 1017/97/536 1007/98/536 1005/99/536
f 1020/100/537 1008/101/537 1004/102/537 1013/103/537
f 1007/98/538 1017/97/538 1016/104/538 1006/105/538
f 1017/97/539 1018/106/539 1015/107/539 1016/104/539
f 1018/106/540 1019/108/540 1014/109/540 1015/107/540
f 1019/108/541 1020/100/541 1013/103/541 1014/109/541
f 1003/110/542 1008/101/542 1020/100/542 1012/111/542
f 1012/111/543 1020/100/543 1019/108/543 1011/112/543
f 1011/112/544 1019/108/544 1018/106/544 1010/113/544
f 1010/113/545 1018/106/545 1017/97/545 1009/96/545
f 1027/96/546 1035/97/546 1025/98/546 1023/99/546
f 1038/100/547 1026/101/547 1022/102/547 1031/103/547
f 1025/98/548 1035/97/548 1034/104/548 1024/105/548
f 1035/97/549 1036/106/549 1033/107/549 1034/104/549
f 1036/106/550 1037/108/550 1032/109/550 1033/107/550
f 1037/108/551 1038/100/551 1031/103/551 1032/109/551
f 1021/110/552 1026/101/552 1038/100/552 1030/111/552
f 1030/111/553 1038/100/553 1037/108/553 1029/112/553
f 1029/112/554 1037/108/554 1036/106/554 1028/113/554
f 1028/113/555 1036/106/555 1035/97/555 1027/96/555
f 1045/96/556 1053/97/556 1043/98/556 1041/99/556
f 1056/100/557 1044/101/557 1040/102/557 1049/103/557
f 1043/98/558 1053/97/558 1052/104/558 1042/105/558
f 1053/97/559 1054/106/559 1051/107/559 1052/104/559
f 1054/106/560 1055/108/560 1050/109/560 1051/107/560
f 1055/108/561 1056/100/561 1049/103/561 1050/109/561
f 1039/110/562 1044/101/562 1056/100/562 1048/111/562
f 1048/111/563 1056/100/563 1055/108/563 1047/112/563
f 1047/112/564 1055/108/564 1054/106/564 1046/113/564
f 1046/113/565 1054/106/565 1053/97/565 1045/96/565
f 1063/96/566 1071/97/566 1061/98/566 1059/99/566
f 1074/100/567 1062/101/567 1058/102/567 1067/103/567
f 1061/98/568 1071/97/568 1070/104/568 1060/105/568
f 1071/97/569 1072/106/569 1069/107/569 1070/104/569
f 1072/106/570 1073/108/570 1068/109/570 1069/107/570
f 1073/108/571 1074/100/571 1067/103/571 1068/109/571
f 1057/110/572 1062/101/572 1074/100/572 1066/111/572
f 1066/111/573 1074/100/573 1073/108/573 1065/112/573
f 1065/112/574 1073/108/574 1072/106/574 1064/113/574
f 1064/113/575 1072/106/575 1071/97/575 1063/96/575
