# Blender 5.0.1
# www.blender.org
mtllib pine_tree_n_2_2.mtl
o pine_tree_n_2_2
v 0.175293 -0.000000 0.146677
v 0.105020 -0.000000 0.190725
v 0.019713 -0.000000 0.207662
v -0.064929 -0.000000 0.200389
v -0.136018 -0.000000 0.170014
v -0.208682 0.000000 0.113914
v -0.234354 0.000000 0.032932
v 0.214403 -0.000000 0.071262
v 0.128827 0.000000 -0.166452
v 0.183535 0.000000 -0.101459
v 0.216397 0.000000 -0.024039
v -0.209124 0.000000 -0.060603
v 0.062942 0.000000 -0.223313
v -0.170014 0.000000 -0.136018
v -0.105020 0.000000 -0.190725
v -0.021699 0.000000 -0.230586
v 0.069893 2.340576 0.080236
v 0.116656 0.422510 0.093328
v 0.072061 0.422510 0.130866
v 0.016495 0.422510 0.148481
v -0.148482 0.422510 0.016493
v -0.118243 2.340576 0.025715
v -0.130867 0.422510 0.072059
v -0.105744 2.340576 0.065144
v -0.093329 0.422510 0.116655
v -0.041582 0.422510 0.143490
v -0.042390 2.340576 0.115830
v 0.016622 2.340576 -0.087807
v 0.041583 0.422510 -0.143493
v -0.016494 0.422510 -0.148483
v -0.024588 2.340576 -0.091348
v -0.072060 0.422510 -0.130869
v -0.116656 0.422510 -0.093331
v -0.095660 2.340576 -0.052213
v -0.143491 0.422510 -0.041584
v 0.143492 0.422510 0.041582
v 0.148482 0.422510 -0.016496
v 0.130868 0.422510 -0.072062
v 0.093330 0.422510 -0.116657
v 0.053341 2.340576 -0.068765
v 0.139537 0.152342 0.111634
v 0.086195 0.152342 0.156535
v 0.019730 0.152342 0.177605
v 0.049739 0.152342 -0.171637
v 0.171637 0.152342 0.049738
v -0.177605 0.152342 0.019729
v -0.156536 0.152342 0.086194
v -0.111635 0.152342 0.139536
v -0.049739 0.152342 0.171636
v -0.019729 0.152342 -0.177606
v -0.086194 0.152342 -0.156537
v -0.139537 0.152342 -0.111636
v -0.171636 0.152342 -0.049740
v 0.177606 0.152342 -0.019730
v 0.156536 0.152342 -0.086195
v 0.111635 0.152342 -0.139538
v 0.009525 8.192017 0.007607
v -0.007615 8.192017 0.009511
v 0.007621 8.192017 -0.009532
v -0.009519 8.192017 -0.007628
v 0.011131 7.021729 0.035253
v 0.062540 3.510864 0.085142
v 0.038250 2.340576 0.106868
v -0.014425 7.021729 0.049325
v -0.002304 3.510864 0.120847
v -0.001179 2.340576 0.119367
v -0.109109 3.510864 0.035399
v -0.056519 7.021729 0.015649
v -0.079107 2.340576 0.096784
v -0.073404 3.510864 0.100243
v -0.042447 7.021729 0.041205
v -0.023661 3.510864 -0.071406
v -0.022842 7.021729 -0.026445
v -0.064015 2.340576 -0.078853
v -0.088505 3.510864 -0.035700
v -0.048398 7.021729 -0.012373
v -0.114701 2.340576 -0.015499
v 0.088936 2.340576 0.043514
v 0.092477 2.340576 0.002303
v 0.083144 3.510864 0.014042
v 0.019252 7.021729 0.007232
v 0.079978 2.340576 -0.037125
v 0.047438 3.510864 -0.050802
v 0.005179 7.021729 -0.018325
v 0.125719 5.711775 -0.342315
v -0.076442 5.711775 0.355290
v 1.173163 5.519478 -0.038772
v 0.971002 5.519478 0.658833
v 1.062206 5.750047 0.344877
v 0.022057 5.942344 0.016162
v 0.963703 5.589509 -0.099473
v 0.754217 5.631012 -0.160180
v 0.544730 5.672647 -0.220888
v 0.335234 5.702471 -0.281599
v 0.133073 5.702471 0.416006
v 0.342569 5.672647 0.476717
v 0.552055 5.631012 0.537425
v 0.761541 5.589509 0.598132
v 0.854204 5.820077 0.279142
v 0.646177 5.861581 0.213400
v 0.438150 5.903216 0.147658
v 0.230112 5.933040 0.081913
v 0.055207 6.315451 -0.288403
v -0.075549 6.312995 0.300380
v 0.921904 6.075084 -0.096932
v 0.791149 6.072628 0.491851
v 0.866796 6.264409 0.231345
v 0.004816 6.504865 0.018628
v 0.750863 6.149267 -0.134607
v 0.577746 6.199857 -0.172842
v 0.404637 6.250557 -0.211073
v 0.230669 6.291489 -0.249537
v 0.099914 6.289033 0.339246
v 0.273882 6.248100 0.377710
v 0.446990 6.197401 0.415942
v 0.620108 6.146810 0.454176
v 0.696699 6.338608 0.189421
v 0.524525 6.389217 0.146937
v 0.352360 6.439934 0.104456
v 0.179335 6.480885 0.061743
v -0.317039 6.585682 -0.070013
v 0.262801 6.584853 0.094602
v -0.081250 6.274959 -0.902117
v 0.498589 6.274129 -0.737502
v 0.246742 6.463049 -0.842907
v -0.009969 6.773803 -0.016743
v -0.127154 6.362921 -0.739983
v -0.174191 6.427555 -0.573976
v -0.221222 6.492296 -0.407986
v -0.268723 6.547379 -0.240393
v 0.311116 6.546550 -0.075777
v 0.358617 6.491467 -0.243371
v 0.405649 6.426726 -0.409360
v 0.452685 6.362092 -0.575368
v 0.196654 6.551017 -0.681961
v 0.145432 6.615657 -0.517142
v 0.094216 6.680404 -0.352340
v 0.042531 6.735493 -0.185935
v -0.360372 4.356186 -0.138665
v 0.358777 4.356187 0.069740
v -0.046581 4.176684 -1.221477
v 0.672569 4.176684 -1.013073
v 0.347816 4.414345 -1.103294
v 0.008075 4.593847 -0.028002
v -0.109482 4.245127 -1.004423
v -0.172254 4.284165 -0.787814
v -0.235026 4.323339 -0.571202
v -0.297746 4.350338 -0.354774
v 0.421404 4.350338 -0.146369
v 0.484124 4.323339 -0.362797
v 0.546896 4.284165 -0.579409
v 0.609668 4.245127 -0.796019
v 0.279726 4.482788 -0.887745
v 0.211763 4.521826 -0.672639
v 0.143801 4.560999 -0.457531
v 0.075892 4.587999 -0.242607
v -0.418849 3.824222 -0.175307
v 0.405493 3.824222 0.063581
v -0.059160 3.618463 -1.416505
v 0.765183 3.618463 -1.177617
v 0.392928 3.890886 -1.281036
v 0.003492 4.096645 -0.048457
v -0.131261 3.696916 -1.167703
v -0.203214 3.741665 -0.919409
v -0.275169 3.786569 -0.671112
v -0.347062 3.817518 -0.423027
v 0.477280 3.817518 -0.184138
v 0.549173 3.786569 -0.432224
v 0.621128 3.741665 -0.680520
v 0.693081 3.696917 -0.928814
v 0.314877 3.969341 -1.033957
v 0.236974 4.014089 -0.787387
v 0.159071 4.058992 -0.540815
v 0.081228 4.089942 -0.294453
v -0.404884 3.045420 -0.132916
v 0.444073 3.045420 0.113106
v -0.049196 2.617545 -1.360304
v 0.799762 2.617546 -1.114282
v 0.429249 2.895010 -1.265161
v 0.042927 3.322884 -0.046650
v -0.118741 2.741113 -1.120322
v -0.189725 2.830351 -0.875374
v -0.260703 2.919747 -0.630449
v -0.332276 2.994930 -0.383468
v 0.516681 2.994930 -0.137447
v 0.588255 2.919747 -0.384428
v 0.659232 2.830351 -0.629353
v 0.730216 2.741113 -0.874301
v 0.353578 3.018577 -1.026955
v 0.276467 3.107815 -0.783782
v 0.199362 3.197211 -0.540633
v 0.121662 3.272394 -0.295427
v -0.139297 5.784969 -0.293995
v 0.179510 5.784969 0.284983
v 0.736227 5.656379 -0.776091
v 1.055034 5.656379 -0.197112
v 0.903139 5.865981 -0.453110
v 0.016112 5.994571 0.008094
v 0.559973 5.710798 -0.679039
v 0.384758 5.739283 -0.582559
v 0.209538 5.767887 -0.486076
v 0.034747 5.785755 -0.389830
v 0.353554 5.785755 0.189148
v 0.528345 5.767887 0.092902
v 0.703565 5.739283 -0.003580
v 0.878780 5.710798 -0.100061
v 0.724585 5.920400 -0.360237
v 0.547069 5.948884 -0.267935
v 0.369548 5.977489 -0.175631
v 0.192456 5.995358 -0.083563
v -0.154490 4.993726 -0.290670
v 0.174915 4.993726 0.307565
v 0.729641 4.737859 -0.777498
v 1.059046 4.737859 -0.179264
v 0.924936 4.954054 -0.456349
v 0.028919 5.209920 0.008893
v 0.554754 4.818635 -0.681201
v 0.378115 4.872663 -0.583938
v 0.201484 4.926814 -0.486680
v 0.024127 4.969890 -0.389022
v 0.353533 4.969890 0.209213
v 0.530889 4.926814 0.111555
v 0.707520 4.872663 0.014297
v 0.884160 4.818635 -0.082966
v 0.747672 5.034831 -0.364369
v 0.568656 5.088858 -0.271423
v 0.389648 5.143008 -0.178482
v 0.209914 5.186084 -0.085142
v 0.141082 5.231462 -0.329096
v -0.064280 5.231462 0.379558
v 1.206976 5.047442 -0.020208
v 1.001614 5.047442 0.688445
v 1.091965 5.281653 0.368852
v 0.033481 5.465672 0.034393
v 0.993512 5.116316 -0.082069
v 0.780305 5.156212 -0.143854
v 0.567097 5.196241 -0.205640
v 0.353997 5.224273 -0.267395
v 0.148635 5.224273 0.441259
v 0.361735 5.196241 0.503014
v 0.574943 5.156212 0.564799
v 0.788149 5.116316 0.626585
v 0.879982 5.350527 0.301877
v 0.668258 5.390422 0.234977
v 0.456532 5.430451 0.168077
v 0.244913 5.458483 0.101208
v 0.348252 4.673034 0.120051
v -0.362700 4.673034 0.047891
v 0.239715 4.494803 1.189403
v -0.471237 4.494803 1.117242
v -0.151002 4.721647 1.147627
v -0.016811 4.899878 0.080880
v 0.261452 4.561510 0.975245
v 0.283162 4.600152 0.761347
v 0.304872 4.638921 0.547448
v 0.326571 4.666072 0.333656
v -0.384381 4.666072 0.261496
v -0.406080 4.638922 0.475288
v -0.427790 4.600152 0.689187
v -0.449501 4.561511 0.903086
v -0.124134 4.788354 0.933991
v -0.097293 4.826995 0.720613
v -0.070452 4.865766 0.507235
v -0.043622 4.892916 0.293964
v 0.145829 4.564844 -0.311016
v -0.050301 4.564844 0.365779
v 1.163803 4.389099 -0.016015
v 0.967674 4.389099 0.660779
v 1.053962 4.612779 0.355554
v 0.043065 4.788525 0.036131
v 0.959935 4.454875 -0.075095
v 0.756314 4.492978 -0.134102
v 0.552691 4.531208 -0.193110
v 0.349171 4.557979 -0.252089
v 0.153042 4.557979 0.424706
v 0.356562 4.531208 0.483684
v 0.560184 4.492978 0.542692
v 0.763806 4.454875 0.601700
v 0.851509 4.678556 0.291590
v 0.649304 4.716659 0.227698
v 0.447097 4.754888 0.163806
v 0.244992 4.781660 0.099942
v 0.129416 4.053849 -0.373173
v -0.101822 4.053850 0.424777
v 1.283701 3.653677 -0.038673
v 1.052463 3.653677 0.759277
v 1.193859 3.914536 0.410906
v 0.047919 4.314708 0.047612
v 1.057952 3.769430 -0.104093
v 0.827588 3.852909 -0.170850
v 0.597245 3.936535 -0.237601
v 0.364991 4.006800 -0.304906
v 0.133753 4.006800 0.493044
v 0.366007 3.936536 0.560349
v 0.596350 3.852909 0.627100
v 0.826714 3.769431 0.693858
v 0.969780 4.030289 0.339728
v 0.741084 4.113767 0.267212
v 0.512410 4.197394 0.194702
v 0.281824 4.267659 0.121638
v -0.259741 2.302385 -0.283473
v 0.233223 2.302385 0.414862
v 0.727458 1.814204 -0.980350
v 1.220422 1.814204 -0.282015
v 1.044808 2.079583 -0.629031
v 0.039820 2.567764 0.042647
v 0.536356 1.948178 -0.845448
v 0.339527 2.049318 -0.706504
v 0.142725 2.150609 -0.567579
v -0.056449 2.238306 -0.426979
v 0.436516 2.238306 0.271355
v 0.635689 2.150609 0.130756
v 0.832491 2.049318 -0.008169
v 1.029320 1.948178 -0.147114
v 0.850148 2.213557 -0.499170
v 0.649762 2.314697 -0.365265
v 0.449401 2.415988 -0.231380
v 0.246670 2.503685 -0.095820
v 0.169471 2.710394 -0.415555
v -0.060231 2.710395 0.377089
v 1.319558 2.323927 -0.082271
v 1.089857 2.323927 0.710374
v 1.228013 2.583396 0.363652
v 0.086214 2.969864 0.001765
v 1.094300 2.436749 -0.147548
v 0.864742 2.517468 -0.214072
v 0.635203 2.598335 -0.280591
v 0.403884 2.665910 -0.347625
v 0.174182 2.665910 0.445020
v 0.405502 2.598335 0.512054
v 0.635040 2.517468 0.578573
v 0.864599 2.436749 0.645096
v 1.004413 2.696218 0.292654
v 0.776512 2.776937 0.220410
v 0.548631 2.857804 0.148171
v 0.318969 2.925380 0.075416
v -0.452092 5.369092 -0.115691
v 0.377915 5.369092 0.122958
v -0.106367 4.958623 -1.318103
v 0.723640 4.958623 -1.079455
v 0.360853 5.229973 -1.224534
v -0.014822 5.640441 -0.030732
v -0.174030 5.077872 -1.082777
v -0.243032 5.163549 -0.842791
v -0.312028 5.249379 -0.602827
v -0.381578 5.321310 -0.360935
v 0.448429 5.321310 -0.122287
v 0.517979 5.249379 -0.364179
v 0.586975 5.163549 -0.604143
v 0.655977 5.077872 -0.844129
v 0.287201 5.349222 -0.990929
v 0.212209 5.434898 -0.752666
v 0.137223 5.520729 -0.514424
v 0.061682 5.592660 -0.274254
v -0.082959 4.829284 0.401197
v 0.133125 4.829284 -0.344454
v -1.163167 4.460310 0.088161
v -0.947083 4.460310 -0.657490
v -1.078177 4.704229 -0.331651
v -0.005767 5.073203 0.008291
v -0.951757 4.567504 0.149426
v -0.736162 4.644519 0.211904
v -0.520587 4.721673 0.274376
v -0.303278 4.786332 0.337350
v -0.087194 4.786333 -0.408301
v -0.304503 4.721673 -0.471275
v -0.520078 4.644519 -0.533747
v -0.735673 4.567504 -0.596225
v -0.868327 4.811423 -0.265005
v -0.654292 4.888439 -0.197146
v -0.440275 4.965592 -0.129293
v -0.224526 5.030251 -0.060937
v -0.119604 5.384337 0.415956
v 0.103370 5.384337 -0.353473
v -1.234258 5.003598 0.092938
v -1.011284 5.003598 -0.676490
v -1.146558 5.255295 -0.340261
v -0.039950 5.636035 0.010521
v -1.016107 5.114210 0.156157
v -0.793637 5.193681 0.220627
v -0.571187 5.273295 0.285091
v -0.346949 5.340016 0.350073
v -0.123975 5.340016 -0.419355
v -0.348213 5.273295 -0.484337
v -0.570663 5.193681 -0.548802
v -0.793133 5.114210 -0.613272
v -0.930016 5.365907 -0.271490
v -0.709156 5.445378 -0.201467
v -0.488315 5.524993 -0.131450
v -0.265686 5.591714 -0.060915
v -0.350067 4.718635 0.158230
v 0.332975 4.718635 -0.027611
v -0.629386 4.537402 -0.868384
v 0.053657 4.537402 -1.054224
v -0.253514 4.762116 -0.969511
v 0.001157 4.943349 0.063809
v -0.573483 4.604418 -0.662916
v -0.517615 4.643631 -0.457580
v -0.461748 4.682972 -0.252242
v -0.405895 4.710803 -0.046959
v 0.277148 4.710803 -0.232800
v 0.221295 4.682973 -0.438083
v 0.165428 4.643631 -0.643420
v 0.109560 4.604418 -0.848757
v -0.202541 4.829132 -0.762702
v -0.151603 4.868345 -0.556024
v -0.100664 4.907687 -0.349346
v -0.049741 4.935517 -0.142721
v -0.153047 3.594420 0.333080
v 0.055679 3.594420 -0.387181
v -1.235598 3.402428 0.019365
v -1.026873 3.402428 -0.700895
v -1.119708 3.640482 -0.376358
v -0.044689 3.832474 -0.036654
v -1.018935 3.473422 0.082153
v -0.802410 3.514964 0.144900
v -0.585884 3.556641 0.207647
v -0.369416 3.586123 0.270378
v -0.160690 3.586123 -0.449882
v -0.377159 3.556641 -0.512613
v -0.593684 3.514964 -0.575361
v -0.810209 3.473423 -0.638108
v -0.904551 3.711476 -0.308373
v -0.689533 3.753018 -0.240428
v -0.474514 3.794694 -0.172482
v -0.259551 3.824177 -0.104553
v -0.112554 4.220382 0.379420
v 0.100684 4.220382 -0.356410
v -1.218506 4.024240 0.058924
v -1.005268 4.024240 -0.676906
v -1.100111 4.267439 -0.345354
v -0.001853 4.463582 0.001694
v -0.997159 4.096768 0.123068
v -0.775954 4.139208 0.187172
v -0.554748 4.181786 0.251275
v -0.333600 4.211905 0.315362
v -0.120362 4.211905 -0.420467
v -0.341510 4.181786 -0.484554
v -0.562716 4.139208 -0.548658
v -0.783922 4.096768 -0.612762
v -0.880303 4.339969 -0.275899
v -0.660636 4.382408 -0.206485
v -0.440969 4.424985 -0.137071
v -0.221361 4.455105 -0.067674
v -0.357117 5.779243 0.170282
v 0.255821 5.779243 -0.167226
v -0.857507 5.530432 -0.738463
v -0.244570 5.530432 -1.075970
v -0.527088 5.752136 -0.936061
v -0.048815 6.000947 -0.015137
v -0.758335 5.610552 -0.558359
v -0.658344 5.663241 -0.376769
v -0.558357 5.716056 -0.195185
v -0.458032 5.757515 -0.012986
v 0.154906 5.757515 -0.350494
v 0.054580 5.716056 -0.532692
v -0.045407 5.663241 -0.714276
v -0.145397 5.610552 -0.895866
v -0.432339 5.832256 -0.753521
v -0.336772 5.884945 -0.569495
v -0.241208 5.937760 -0.385476
v -0.145306 5.979220 -0.200841
v -0.351662 4.212494 0.181752
v 0.358587 4.212494 -0.209338
v -0.942921 4.052496 -0.892021
v -0.232673 4.052496 -1.283111
v -0.546940 4.309642 -1.097191
v 0.018691 4.469640 -0.009306
v -0.823925 4.119706 -0.675914
v -0.705601 4.155100 -0.461029
v -0.587274 4.190641 -0.246139
v -0.469226 4.213010 -0.031754
v 0.241023 4.213010 -0.422844
v 0.122975 4.190641 -0.637229
v 0.004648 4.155101 -0.852119
v -0.113676 4.119706 -1.067004
v -0.433069 4.376852 -0.878262
v -0.319871 4.412247 -0.660555
v -0.206670 4.447787 -0.442841
v -0.093747 4.470156 -0.225634
v -0.156324 6.955488 -0.260372
v 0.054074 6.954657 0.313077
v 0.639258 6.569695 -0.552830
v 0.849657 6.568863 0.020618
v 0.800694 6.756950 -0.254021
v -0.002480 7.142773 0.017744
v 0.486405 6.672556 -0.496600
v 0.327893 6.752193 -0.438326
v 0.169407 6.831937 -0.380061
v 0.008577 6.902066 -0.320952
v 0.218975 6.901235 0.252497
v 0.379805 6.831106 0.193387
v 0.538291 6.751362 0.135123
v 0.696804 6.671725 0.076849
v 0.646323 6.859818 -0.201929
v 0.486292 6.939460 -0.147794
v 0.326287 7.019211 -0.093668
v 0.163939 7.089345 -0.038697
v 0.291613 6.315834 0.104906
v -0.313874 6.315834 -0.070559
v 0.040217 5.987159 0.972407
v -0.565269 5.987159 0.796942
v -0.302440 6.184211 0.909464
v -0.029196 6.512886 0.048295
v 0.089166 6.079876 0.803500
v 0.139316 6.148212 0.630442
v 0.189462 6.216660 0.457404
v 0.240105 6.275016 0.282648
v -0.365382 6.275016 0.107182
v -0.416025 6.216661 0.281938
v -0.466170 6.148212 0.454976
v -0.516321 6.079876 0.628034
v -0.249122 6.276928 0.741823
v -0.194601 6.345265 0.570032
v -0.140086 6.413713 0.398260
v -0.085073 6.472067 0.224770
v 0.254457 5.882995 0.055599
v -0.298502 5.882996 -0.104644
v 0.024871 5.582833 0.847843
v -0.528089 5.582833 0.687599
v -0.288060 5.762791 0.790361
v -0.038520 6.062953 0.003899
v 0.069573 5.667507 0.693589
v 0.115373 5.729916 0.535544
v 0.161168 5.792426 0.377517
v 0.207417 5.845718 0.217922
v -0.345542 5.845718 0.057678
v -0.391792 5.792426 0.217274
v -0.437587 5.729916 0.375300
v -0.483387 5.667507 0.533345
v -0.239368 5.847465 0.637263
v -0.189577 5.909873 0.480375
v -0.139791 5.972383 0.323504
v -0.089551 6.025676 0.165065
v 0.352901 4.315391 0.149748
v -0.370884 4.315391 -0.060000
v 0.050606 3.940573 1.192891
v -0.673179 3.940573 0.983144
v -0.357903 4.176788 1.113870
v -0.029490 4.551607 0.078295
v 0.109624 4.047881 0.989235
v 0.169944 4.125963 0.781086
v 0.230258 4.204180 0.572957
v 0.291111 4.270297 0.362968
v -0.432673 4.270297 0.153221
v -0.493527 4.204180 0.363210
v -0.553841 4.125963 0.571338
v -0.614161 4.047881 0.779488
v -0.293661 4.284096 0.911727
v -0.228118 4.362178 0.705092
v -0.162580 4.440395 0.498477
v -0.096503 4.506512 0.290002
v 0.286385 2.609986 0.185945
v -0.441302 2.609986 -0.024933
v -0.030475 2.414134 1.279351
v -0.758163 2.414134 1.068472
v -0.430391 2.654644 1.162647
v -0.087271 2.850496 0.076851
v 0.032926 2.486237 1.060567
v 0.096301 2.528582 0.841877
v 0.159677 2.571065 0.623185
v 0.223040 2.601228 0.404532
v -0.504647 2.601228 0.193654
v -0.568011 2.571065 0.412306
v -0.631386 2.528582 0.630998
v -0.694761 2.486237 0.849689
v -0.361737 2.726747 0.945385
v -0.293110 2.769093 0.728217
v -0.224483 2.811575 0.511047
v -0.155868 2.841738 0.293916
v 0.200052 5.746024 0.315662
v -0.177118 5.746024 -0.369308
v -0.772080 5.310416 0.850954
v -1.149249 5.310417 0.165984
v -1.022765 5.553679 0.498150
v -0.037023 5.989286 -0.012426
v -0.583581 5.430847 0.747160
v -0.389726 5.521181 0.640417
v -0.195896 5.611652 0.533686
v 0.000152 5.689662 0.425735
v -0.377018 5.689663 -0.259235
v -0.573066 5.611652 -0.151284
v -0.766896 5.521181 -0.044553
v -0.960751 5.430847 0.062190
v -0.831544 5.674110 0.399298
v -0.634967 5.764443 0.297498
v -0.438415 5.854915 0.195711
v -0.239645 5.932925 0.092704
v -0.202685 6.095626 0.339106
v 0.170105 6.168586 -0.314830
v -1.136247 5.734750 -0.233355
v -0.763457 5.807710 -0.887291
v -0.973007 6.011274 -0.590355
v -0.052896 6.369518 0.005703
v -0.955251 5.839295 -0.118510
v -0.769090 5.914591 -0.003983
v -0.582952 5.990022 0.110544
v -0.394676 6.053344 0.224939
v -0.021886 6.126304 -0.428997
v -0.210162 6.062983 -0.543392
v -0.396299 5.987552 -0.657920
v -0.582461 5.912255 -0.772446
v -0.794701 6.115293 -0.470790
v -0.611230 6.190063 -0.351544
v -0.427783 6.264968 -0.232298
v -0.242197 6.327763 -0.113183
v 0.143362 6.654920 0.271220
v -0.144881 6.654920 -0.252253
v -0.599567 6.322017 0.680305
v -0.887810 6.322017 0.156831
v -0.791147 6.507925 0.410681
v -0.037816 6.840827 0.020486
v -0.455511 6.414053 0.600982
v -0.307362 6.483088 0.519406
v -0.159232 6.552229 0.437839
v -0.009407 6.611846 0.355340
v -0.297650 6.611846 -0.168132
v -0.447475 6.552229 -0.085633
v -0.595605 6.483088 -0.004067
v -0.743755 6.414053 0.077509
v -0.645011 6.599960 0.335136
v -0.494782 6.668996 0.257338
v -0.344571 6.738137 0.179550
v -0.192666 6.797755 0.100828
v 0.218664 4.571033 0.449024
v -0.158763 4.571033 -0.236409
v -0.798185 4.295773 1.008942
v -1.175613 4.295773 0.323509
v -1.018597 4.543738 0.639135
v 0.011872 4.818998 0.103950
v -0.596579 4.384778 0.897930
v -0.393379 4.443104 0.786040
v -0.190186 4.501571 0.674154
v 0.013666 4.547336 0.561904
v -0.363761 4.547336 -0.123529
v -0.567613 4.501571 -0.011280
v -0.770806 4.443104 0.100606
v -0.974006 4.384778 0.212496
v -0.814266 4.632743 0.533069
v -0.608343 4.691069 0.426126
v -0.402426 4.749536 0.319186
v -0.195850 4.795301 0.211884
v 0.184429 3.754205 0.392725
v -0.221885 3.754205 -0.345184
v -0.904890 3.433079 0.992534
v -1.311204 3.433079 0.254625
v -1.146819 3.699660 0.596974
v -0.042838 4.020785 0.023791
v -0.689561 3.533807 0.873968
v -0.471941 3.601551 0.754141
v -0.254332 3.669447 0.634319
v -0.035775 3.723689 0.513976
v -0.442089 3.723689 -0.223934
v -0.660646 3.669448 -0.103590
v -0.878255 3.601552 0.016231
v -1.095874 3.533807 0.136059
v -0.928557 3.800386 0.483733
v -0.708005 3.868131 0.369231
v -0.487464 3.936028 0.254735
v -0.265975 3.990268 0.139717
v 0.206326 1.826425 0.149908
v -0.273714 1.826425 -0.114406
v -0.107983 1.303528 0.720745
v -0.588023 1.303528 0.456431
v -0.412360 1.455978 0.648815
v -0.080730 1.978875 0.087515
v -0.050656 1.428982 0.616629
v 0.011673 1.535574 0.503431
v 0.073978 1.642253 0.390274
v 0.138353 1.741123 0.273358
v -0.341687 1.741123 0.009043
v -0.406062 1.642253 0.125960
v -0.468367 1.535574 0.239116
v -0.530696 1.428982 0.352314
v -0.351569 1.581432 0.546606
v -0.285776 1.688024 0.435316
v -0.220007 1.794703 0.324067
v -0.152167 1.893573 0.209058
v 0.379327 3.048856 0.022907
v -0.359740 3.048856 0.072239
v 0.452631 2.795881 1.121090
v -0.286436 2.795881 1.170423
v 0.047061 3.030701 1.160484
v 0.000426 3.283676 0.060520
v 0.438082 2.878629 0.903133
v 0.423432 2.932325 0.683659
v 0.408783 2.986154 0.464191
v 0.394091 3.027954 0.244094
v -0.344976 3.027954 0.293427
v -0.330284 2.986154 0.513524
v -0.315635 2.932325 0.732992
v -0.300985 2.878629 0.952466
v 0.037846 3.113449 0.942171
v 0.028530 3.167145 0.722340
v 0.019214 3.220974 0.502516
v 0.009856 3.262774 0.282064
v 0.353742 2.190604 -0.062570
v -0.460291 2.190605 0.195480
v 0.726124 1.770391 1.112126
v -0.087909 1.770391 1.370176
v 0.291161 2.038232 1.293919
v -0.051846 2.458445 0.109910
v 0.653379 1.891108 0.882650
v 0.579070 1.978687 0.648238
v 0.504768 2.066419 0.413848
v 0.429818 2.140430 0.177414
v -0.384215 2.140430 0.435464
v -0.309265 2.066419 0.671898
v -0.234963 1.978688 0.906288
v -0.160654 1.891109 1.140700
v 0.224292 2.158949 1.062580
v 0.155857 2.246528 0.826306
v 0.087430 2.334259 0.590053
v 0.018355 2.408271 0.351757
v 0.246455 3.363682 -0.400843
v -0.125726 3.363682 0.421853
v 1.465146 3.037873 0.150483
v 1.092966 3.037873 0.973179
v 1.277542 3.323911 0.610567
v 0.072280 3.649720 0.029555
v 1.223742 3.142201 0.041274
v 0.980229 3.211139 -0.068890
v 0.736725 3.280240 -0.179049
v 0.492348 3.334689 -0.289603
v 0.120168 3.334689 0.533093
v 0.364544 3.280240 0.643647
v 0.608048 3.211139 0.753806
v 0.851561 3.142201 0.863970
v 1.038823 3.428240 0.495421
v 0.797996 3.497178 0.379320
v 0.557178 3.566279 0.263224
v 0.315487 3.620728 0.146733
v -0.372062 3.505264 0.084121
v 0.307987 3.505264 -0.113916
v -0.654579 3.124229 -0.886032
v 0.025470 3.124229 -1.084069
v -0.292329 3.345161 -1.035059
v -0.034352 3.726196 -0.057761
v -0.599676 3.230688 -0.697497
v -0.543327 3.309812 -0.503996
v -0.486985 3.389061 -0.310519
v -0.430044 3.456994 -0.114985
v 0.250006 3.456994 -0.313021
v 0.193065 3.389061 -0.508555
v 0.136722 3.309812 -0.702033
v 0.080373 3.230688 -0.895534
v -0.242334 3.451620 -0.845095
v -0.190893 3.530744 -0.650165
v -0.139458 3.609993 -0.455258
v -0.087425 3.677926 -0.258295
v 0.331112 4.351119 -0.147845
v -0.297127 4.351119 0.198088
v 0.824616 3.965304 0.748396
v 0.196377 3.965304 1.094328
v 0.499583 4.189008 0.975689
v 0.028749 4.574823 0.066965
v 0.728711 4.073098 0.574225
v 0.630279 4.153214 0.395466
v 0.531860 4.233458 0.216729
v 0.432395 4.302243 0.036092
v -0.195845 4.302243 0.382024
v -0.096379 4.233458 0.562661
v 0.002040 4.153214 0.741398
v 0.100471 4.073098 0.920157
v 0.408211 4.296802 0.799021
v 0.314314 4.376919 0.617766
v 0.220429 4.457162 0.436531
v 0.125497 4.525947 0.253398
v 0.172227 2.088218 -0.336001
v -0.226516 2.088218 0.377601
v 1.222207 1.761652 0.250701
v 0.823465 1.761652 0.964303
v 1.023652 2.020068 0.654654
v -0.011940 2.346635 0.042202
v 1.015046 1.862349 0.134944
v 0.805323 1.931074 0.017757
v 0.595612 1.999946 -0.099424
v 0.384840 2.055581 -0.217198
v -0.013902 2.055581 0.496404
v 0.196869 1.999946 0.614178
v 0.406580 1.931074 0.731358
v 0.616303 1.862349 0.848546
v 0.819368 2.120766 0.533747
v 0.612523 2.189491 0.411410
v 0.405689 2.258363 0.289079
v 0.197795 2.313998 0.166155
v -0.419705 2.729975 0.202851
v 0.234804 2.729975 -0.348080
v -1.235391 2.418563 -0.766189
v -0.580881 2.418564 -1.317120
v -0.887287 2.689532 -1.083135
v -0.095219 3.000944 -0.094214
v -1.073868 2.517949 -0.574299
v -0.910886 2.583809 -0.380676
v -0.747912 2.649822 -0.187061
v -0.584333 2.701956 0.007271
v 0.070176 2.701957 -0.543658
v -0.093402 2.649823 -0.737991
v -0.256377 2.583809 -0.931607
v -0.419358 2.517949 -1.125230
v -0.730487 2.788918 -0.887268
v -0.572229 2.854778 -0.689669
v -0.413978 2.920792 -0.492078
v -0.255123 2.972925 -0.293769
v -0.354723 2.312191 0.266283
v 0.293962 2.312191 -0.279743
v -1.120093 1.803609 -0.642982
v -0.471408 1.803609 -1.189009
v -0.803041 2.065646 -0.990317
v -0.061079 2.574228 -0.061348
v -0.972446 1.941205 -0.467577
v -0.819896 2.046381 -0.286346
v -0.667368 2.151707 -0.105141
v -0.512809 2.243609 0.078476
v 0.135875 2.243609 -0.467551
v -0.018683 2.151707 -0.651168
v -0.171211 2.046382 -0.832373
v -0.323762 1.941205 -1.013604
v -0.660077 2.203243 -0.810971
v -0.512208 2.308419 -0.625799
v -0.364361 2.413743 -0.440653
v -0.214484 2.505646 -0.253096
v -0.272645 3.013786 0.287446
v 0.118927 3.013786 -0.467618
v -1.400040 2.751381 -0.297214
v -1.008468 2.751380 -1.052278
v -1.191951 3.021271 -0.716146
v -0.078685 3.283676 -0.104239
v -1.175550 2.840817 -0.180795
v -0.950166 2.896861 -0.063913
v -0.724787 2.953059 0.052968
v -0.499037 2.995432 0.170040
v -0.107465 2.995432 -0.585024
v -0.333215 2.953059 -0.702097
v -0.558594 2.896862 -0.818977
v -0.783978 2.840817 -0.935860
v -0.970286 3.110708 -0.594277
v -0.747729 3.166752 -0.471945
v -0.525175 3.222950 -0.349616
v -0.302252 3.265323 -0.227094
v -0.134899 2.719167 0.439810
v -0.057386 2.719167 -0.462272
v -1.489479 2.480112 0.323415
v -1.411966 2.480112 -0.578667
v -1.446982 2.767536 -0.172621
v -0.095200 3.006592 -0.023675
v -1.218580 2.567279 0.346693
v -0.947666 2.618885 0.369972
v -0.676752 2.670654 0.393250
v -0.405831 2.707701 0.416530
v -0.328318 2.707701 -0.485552
v -0.599238 2.670654 -0.508832
v -0.870153 2.618885 -0.532110
v -1.141067 2.567279 -0.555390
v -1.176643 2.854703 -0.142834
v -0.906288 2.906309 -0.113045
v -0.635933 2.958079 -0.083255
v -0.365572 2.995125 -0.053466
v 0.151192 3.227088 0.401771
v -0.270932 3.227088 -0.364839
v -1.005073 3.032103 1.038455
v -1.427197 3.032103 0.271844
v -1.230626 3.309820 0.613309
v -0.059129 3.504806 0.004288
v -0.772922 3.109127 0.910623
v -0.541582 3.151790 0.783239
v -0.310239 3.194612 0.655853
v -0.079231 3.223208 0.528651
v -0.501356 3.223208 -0.237959
v -0.732363 3.194613 -0.110757
v -0.963707 3.151791 0.016629
v -1.195046 3.109127 0.144013
v -0.995429 3.386844 0.491010
v -0.761043 3.429508 0.369158
v -0.526653 3.472330 0.247304
v -0.292599 3.500925 0.125636
v 0.148648 2.318830 0.402630
v -0.264777 2.318830 -0.348184
v -0.917086 1.841801 0.989462
v -1.330512 1.841801 0.238649
v -1.191782 2.108468 0.602696
v -0.111129 2.585496 0.042956
v -0.710425 1.973721 0.875667
v -0.497903 2.072647 0.758645
v -0.285409 2.171725 0.641638
v -0.070488 2.257144 0.523294
v -0.483914 2.257144 -0.227519
v -0.698835 2.171726 -0.109176
v -0.911329 2.072647 0.007831
v -1.123851 1.973721 0.124854
v -0.982137 2.240388 0.494319
v -0.766632 2.339314 0.382716
v -0.551153 2.438392 0.271127
v -0.333248 2.523811 0.158201
v -0.015855 7.632605 -0.254095
v -0.149141 7.634379 0.219943
v 0.498758 7.105991 -0.107429
v 0.365472 7.107765 0.366609
v 0.511035 7.235647 0.176806
v 0.001231 7.762197 0.013035
v 0.407552 7.228934 -0.133534
v 0.305759 7.335955 -0.162556
v 0.204015 7.443050 -0.191565
v 0.097888 7.543554 -0.221781
v -0.035399 7.545329 0.252257
v 0.070728 7.444824 0.282473
v 0.172473 7.337729 0.311482
v 0.274266 7.230708 0.340504
v 0.420791 7.358578 0.147281
v 0.319960 7.465587 0.114838
v 0.219177 7.572668 0.082408
v 0.114012 7.673160 0.048771
v 0.016140 7.130482 -0.266059
v -0.135288 7.129417 0.265535
v 0.733022 6.736899 -0.062638
v 0.581594 6.735834 0.468955
v 0.701521 6.903295 0.244748
v -0.009897 7.296916 0.022145
v 0.596733 6.838480 -0.101258
v 0.454040 6.919401 -0.141743
v 0.311377 7.000417 -0.182219
v 0.166062 7.072880 -0.223468
v 0.014634 7.071815 0.308126
v 0.159949 6.999352 0.349375
v 0.302613 6.918336 0.389851
v 0.445305 6.837415 0.430336
v 0.566325 7.004884 0.202292
v 0.424725 7.085812 0.157971
v 0.283154 7.166836 0.113658
v 0.138932 7.239306 0.068573
v -0.254045 7.105108 0.174249
v 0.241347 7.103944 -0.102395
v -0.636204 6.736138 -0.508539
v -0.140812 6.734973 -0.785183
v -0.386665 6.909238 -0.702325
v -0.022382 7.278250 -0.009554
v -0.562903 6.833722 -0.377687
v -0.486773 6.909810 -0.241679
v -0.410655 6.985996 -0.105695
v -0.333367 7.053283 0.032423
v 0.162024 7.052119 -0.244221
v 0.084736 6.984832 -0.382339
v 0.008619 6.908646 -0.518323
v -0.067511 6.832557 -0.654331
v -0.316939 7.006831 -0.569477
v -0.244384 7.082927 -0.431472
v -0.171842 7.159122 -0.293492
v -0.098129 7.226417 -0.153377
v 0.148679 7.606827 0.181981
v -0.074190 7.604346 -0.210387
v -0.329237 7.194720 0.456049
v -0.552107 7.192239 0.063681
v -0.508393 7.321161 0.271644
v -0.022435 7.733357 0.011734
v -0.241405 7.294641 0.405527
v -0.146569 7.378750 0.351128
v -0.051765 7.462931 0.296746
v 0.045938 7.540567 0.240758
v -0.176932 7.538085 -0.151610
v -0.274635 7.460451 -0.095622
v -0.369439 7.376269 -0.041241
v -0.464274 7.292161 0.013159
v -0.418953 7.421100 0.223954
v -0.322508 7.505227 0.172386
v -0.226096 7.589427 0.120836
v -0.126784 7.667079 0.067680
v 0.262779 6.928959 0.077151
v -0.289223 6.928138 -0.079781
v 0.039813 6.615626 0.863067
v -0.512189 6.614804 0.706136
v -0.273499 6.793984 0.810253
v -0.030614 7.107347 0.029999
v 0.083066 6.702776 0.710468
v 0.127530 6.767804 0.553727
v 0.171989 6.832932 0.397004
v 0.216949 6.888903 0.238567
v -0.335053 6.888082 0.081636
v -0.380013 6.832111 0.240073
v -0.424472 6.766983 0.396795
v -0.468936 6.701955 0.553536
v -0.226262 6.881140 0.658786
v -0.177814 6.946174 0.503177
v -0.129371 7.011308 0.347588
v -0.080428 7.067284 0.190283
v 0.031802 7.250766 0.242517
v -0.023680 7.249628 -0.222301
v -0.610363 6.949060 0.319906
v -0.665845 6.947923 -0.144911
v -0.679250 7.091937 0.068548
v -0.035083 7.393683 0.007932
v -0.487185 7.029050 0.305007
v -0.359259 7.091286 0.289585
v -0.231354 7.153603 0.274166
v -0.101484 7.208570 0.258529
v -0.156966 7.207434 -0.206288
v -0.286836 7.152466 -0.190652
v -0.414741 7.090149 -0.175232
v -0.542667 7.027914 -0.159810
v -0.555672 7.171935 0.057004
v -0.427346 7.234179 0.044937
v -0.299040 7.296504 0.032871
v -0.168770 7.351479 0.020590
v 0.232776 5.180854 0.420588
v -0.129407 5.180854 -0.385660
v -0.943520 4.789608 0.949004
v -1.305703 4.789608 0.142757
v -1.173557 5.068143 0.519549
v 0.015809 5.459389 0.020225
v -0.712490 4.905996 0.845220
v -0.477639 4.987923 0.739721
v -0.242804 5.070008 0.634228
v -0.006388 5.137825 0.528025
v -0.368571 5.137825 -0.278222
v -0.604987 5.070008 -0.172019
v -0.839821 4.987923 -0.066527
v -1.074673 4.905996 0.038973
v -0.939912 5.184531 0.421583
v -0.702447 5.266458 0.321902
v -0.464999 5.348543 0.222228
v -0.225969 5.416360 0.121844
v -0.252661 1.959947 0.096661
v 0.201820 1.959947 -0.128404
v -0.520296 1.476020 -0.443782
v -0.065815 1.476020 -0.668847
v -0.304809 1.617108 -0.637037
v -0.053574 2.101035 -0.088472
v -0.471481 1.592124 -0.345210
v -0.418409 1.690773 -0.238039
v -0.365356 1.789501 -0.130907
v -0.310540 1.881002 -0.020216
v 0.143941 1.881002 -0.245281
v 0.089125 1.789501 -0.355972
v 0.036072 1.690773 -0.463104
v -0.017001 1.592124 -0.570275
v -0.259274 1.733212 -0.536841
v -0.209481 1.831860 -0.428046
v -0.159708 1.930589 -0.319290
v -0.108172 2.022090 -0.206974
v -0.155285 7.995996 -0.048984
v 0.067221 7.992383 0.137687
v -0.009492 7.619068 -0.230061
v 0.213014 7.615455 -0.043389
v 0.157755 7.678301 -0.179748
v 0.003933 8.055360 -0.005407
v -0.032503 7.702836 -0.201011
v -0.061069 7.779030 -0.165486
v -0.089609 7.855259 -0.129992
v -0.120449 7.928351 -0.091817
v 0.102057 7.924738 0.094855
v 0.132897 7.851645 0.056680
v 0.161437 7.775416 0.021185
v 0.190003 7.699222 -0.014339
v 0.133138 7.762095 -0.152045
v 0.102967 7.838316 -0.117868
v 0.072820 7.914570 -0.083720
v 0.040375 7.987689 -0.046892
v 0.050361 8.112287 0.125841
v 0.047117 8.109440 -0.124431
v -0.163812 7.796480 0.132209
v -0.167057 7.793633 -0.118063
v -0.222665 7.850208 -0.005296
v -0.008374 8.166116 -0.002634
v -0.128792 7.867213 0.130950
v -0.086711 7.931104 0.129678
v -0.044662 7.995027 0.128406
v 0.000310 8.056117 0.127128
v -0.002934 8.053270 -0.123144
v -0.047906 7.992180 -0.121866
v -0.089955 7.928257 -0.120593
v -0.132037 7.864366 -0.119321
v -0.187621 7.920961 -0.004749
v -0.145517 7.984872 -0.004215
v -0.103444 8.048816 -0.003681
v -0.058449 8.109926 -0.003153
vn -0.9351 0.1914 -0.2982
vn -0.9102 0.2696 -0.3145
vn -0.9405 0.3338 0.0641
vn -0.9715 0.2238 0.0780
vn -0.7979 0.3375 0.4995
vn -0.8377 0.2265 0.4969
vn -0.5416 0.2651 0.7978
vn -0.5812 0.1888 0.7915
vn -0.2583 0.2128 0.9423
vn -0.2628 0.1612 0.9513
vn 0.3047 0.2082 -0.9294
vn 0.3189 0.3036 -0.8978
vn -0.1372 0.3115 -0.9403
vn -0.1298 0.2127 -0.9685
vn -0.4975 0.2647 -0.8261
vn -0.4912 0.1888 -0.8504
vn -0.7564 0.2482 -0.6052
vn -0.7681 0.1800 -0.6145
vn 0.9448 0.1997 0.2598
vn 0.9229 0.2872 0.2566
vn 0.9581 0.2451 -0.1484
vn 0.9752 0.1783 -0.1311
vn 0.8440 0.2107 -0.4932
vn 0.8583 0.1606 -0.4874
vn 0.6538 0.2308 -0.7206
vn 0.6416 0.1705 -0.7479
vn 0.6243 0.0206 -0.7809
vn 0.6228 0.0791 -0.7784
vn 0.2775 0.0791 -0.9575
vn 0.2778 0.0207 -0.9604
vn 0.8757 0.0190 -0.4825
vn 0.8732 0.0791 -0.4808
vn 0.9938 0.0159 -0.1104
vn 0.9908 0.0791 -0.1101
vn 0.9604 0.0120 0.2785
vn 0.9575 0.0792 0.2775
vn -0.7811 0.0125 -0.6243
vn -0.7784 0.0791 -0.6228
vn -0.9575 0.0791 -0.2775
vn -0.9605 0.0084 -0.2781
vn -0.4827 0.0163 -0.8756
vn -0.4808 0.0791 -0.8732
vn -0.1109 0.0192 -0.9936
vn -0.1101 0.0791 -0.9908
vn -0.6250 -0.0003 0.7806
vn -0.6228 0.0791 0.7784
vn -0.2773 0.0791 0.9575
vn -0.2789 -0.0003 0.9603
vn -0.8761 0.0015 0.4821
vn -0.8732 0.0791 0.4808
vn -0.9939 0.0044 0.1104
vn -0.9908 0.0791 0.1101
vn 0.0946 0.1585 0.9828
vn 0.1101 0.0791 0.9908
vn 0.4435 0.1813 0.8778
vn 0.4808 0.0791 0.8732
vn 0.1099 0.0011 0.9939
vn 0.7536 0.2052 0.6245
vn 0.7784 0.0791 0.6228
vn 0.4819 0.0040 0.8762
vn 0.7806 0.0078 0.6250
vn 0.7212 0.2961 0.6263
vn 0.4095 0.2510 0.8771
vn 0.0765 0.2063 0.9755
vn 0.0001 1.0000 -0.0000
vn 0.7805 0.0260 0.6247
vn 0.7807 -0.0015 0.6249
vn 0.9936 0.0082 -0.1123
vn 0.9935 0.0114 -0.1130
vn 0.6269 0.0178 -0.7789
vn 0.7855 0.0289 0.6181
vn -0.9938 0.0243 0.1086
vn -0.6270 0.0101 0.7790
vn -0.6274 0.0329 0.7780
vn -0.9939 0.0214 0.1078
vn -0.1125 0.0330 -0.9931
vn 0.6224 0.0225 -0.7824
vn -0.7806 0.0337 -0.6241
vn 0.1075 0.0349 0.9936
vn -0.7810 0.0071 -0.6245
vn -0.1133 -0.0017 -0.9936
vn 0.6217 -0.0001 -0.7832
vn -0.6215 0.0529 0.7816
vn 0.1082 -0.0006 0.9941
vn -0.7751 0.0415 -0.6305
vn 0.3967 0.8317 -0.3884
vn -0.1250 0.8351 0.5357
vn 0.0838 0.7937 0.6026
vn -0.0138 0.8144 0.5801
vn -0.0108 0.8183 0.5747
vn -0.0515 0.8269 0.5600
vn 0.1864 0.8516 -0.4900
vn 0.2605 0.8491 -0.4595
vn 0.3017 0.8465 -0.4387
vn 0.3003 0.8494 -0.4339
vn 0.4424 0.8058 -0.3937
vn -0.0184 0.8269 0.5621
vn 0.1898 0.7659 0.6143
vn 0.0932 0.7955 0.5987
vn 0.0961 0.7993 0.5932
vn 0.0555 0.8117 0.5814
vn 0.2286 0.8464 -0.4810
vn 0.3040 0.8368 -0.4554
vn 0.3460 0.8300 -0.4374
vn 0.3452 0.8330 -0.4324
vn -0.3521 0.7741 -0.5261
vn 0.5760 0.8173 -0.0134
vn 0.6388 0.7393 -0.2128
vn 0.6183 0.7767 -0.1199
vn 0.6130 0.7804 -0.1234
vn 0.5992 0.7961 -0.0846
vn -0.4506 0.8327 -0.3217
vn -0.4210 0.8168 -0.3945
vn -0.4008 0.8065 -0.4347
vn -0.3958 0.8094 -0.4338
vn -0.3923 0.8361 -0.3834
vn 0.5318 0.8355 0.1384
vn 0.5989 0.7977 -0.0711
vn 0.5763 0.8168 0.0268
vn 0.5709 0.8207 0.0239
vn 0.5562 0.8285 0.0647
vn -0.4940 0.8522 -0.1727
vn -0.4635 0.8510 -0.2469
vn -0.4426 0.8491 -0.2881
vn -0.4378 0.8521 -0.2867
vn -0.3550 0.7822 -0.5120
vn 0.5700 0.8216 0.0066
vn 0.6345 0.7482 -0.1940
vn 0.6132 0.7835 -0.1005
vn 0.6079 0.7872 -0.1039
vn 0.5938 0.8020 -0.0649
vn -0.4551 0.8359 -0.3070
vn -0.4249 0.8217 -0.3799
vn -0.4044 0.8123 -0.4203
vn -0.3994 0.8153 -0.4193
vn -0.0283 0.8435 -0.5363
vn 0.2563 0.8355 0.4860
vn 0.4527 0.8044 0.3848
vn 0.3671 0.8205 0.4383
vn 0.3652 0.8244 0.4325
vn 0.3258 0.8309 0.4510
vn -0.2495 0.8526 -0.4591
vn -0.1755 0.8539 -0.4900
vn -0.1316 0.8534 -0.5045
vn -0.1293 0.8563 -0.5000
vn 0.0589 0.8094 -0.5844
vn 0.3442 0.8307 0.4376
vn 0.5359 0.7732 0.3390
vn 0.4527 0.8013 0.3912
vn 0.4511 0.8051 0.3851
vn 0.4127 0.8168 0.4032
vn -0.1599 0.8461 -0.5085
vn -0.0862 0.8378 -0.5391
vn -0.0427 0.8318 -0.5534
vn -0.0401 0.8348 -0.5491
vn 0.3885 0.8345 -0.3908
vn -0.1332 0.8354 0.5333
vn 0.0760 0.7962 0.6003
vn -0.0218 0.8159 0.5778
vn -0.0189 0.8198 0.5723
vn -0.0596 0.8279 0.5577
vn 0.1780 0.8520 -0.4924
vn 0.2521 0.8503 -0.4620
vn 0.2934 0.8481 -0.4411
vn 0.2920 0.8511 -0.4363
vn 0.4543 0.8345 0.3119
vn -0.5486 0.8354 -0.0351
vn -0.5768 0.7962 0.1828
vn -0.5722 0.8159 0.0826
vn -0.5664 0.8198 0.0844
vn -0.5593 0.8279 0.0417
vn 0.5164 0.8520 0.0865
vn 0.4998 0.8503 0.1649
vn 0.4867 0.8481 0.2092
vn 0.4817 0.8511 0.2087
vn 0.5108 0.7828 -0.3554
vn -0.0079 0.8219 0.5696
vn 0.1928 0.7488 0.6342
vn 0.0992 0.7840 0.6128
vn 0.1027 0.7876 0.6076
vn 0.0637 0.8024 0.5934
vn 0.3056 0.8362 -0.4554
vn 0.3786 0.8221 -0.4253
vn 0.4190 0.8128 -0.4047
vn 0.4180 0.8158 -0.3998
vn 0.0805 0.7568 -0.6486
vn 0.4818 0.8108 0.3323
vn 0.6534 0.7247 0.2186
vn 0.5803 0.7658 0.2770
vn 0.5785 0.7694 0.2709
vn 0.5439 0.7867 0.2920
vn -0.1227 0.8241 -0.5530
vn -0.0544 0.8051 -0.5906
vn -0.0137 0.7931 -0.6089
vn -0.0103 0.7960 -0.6052
vn 0.5038 0.7864 -0.3574
vn -0.0152 0.8232 0.5675
vn 0.1861 0.7521 0.6322
vn 0.0922 0.7864 0.6108
vn 0.0957 0.7901 0.6055
vn 0.0565 0.8044 0.5913
vn 0.2982 0.8377 -0.4576
vn 0.3713 0.8243 -0.4274
vn 0.4117 0.8155 -0.4068
vn 0.4107 0.8184 -0.4019
vn -0.3574 0.7845 -0.5067
vn 0.5687 0.8225 0.0102
vn 0.6328 0.7504 -0.1909
vn 0.6116 0.7851 -0.0972
vn 0.6064 0.7888 -0.1006
vn 0.5923 0.8034 -0.0615
vn -0.4571 0.8369 -0.3011
vn -0.4271 0.8231 -0.3742
vn -0.4066 0.8141 -0.4147
vn -0.4017 0.8170 -0.4137
vn -0.5075 0.7845 0.3563
vn 0.0114 0.8225 -0.5686
vn -0.1896 0.7504 -0.6332
vn -0.0959 0.7851 -0.6119
vn -0.0993 0.7888 -0.6066
vn -0.0602 0.8034 -0.5924
vn -0.3021 0.8369 0.4565
vn -0.3751 0.8231 0.4263
vn -0.4155 0.8141 0.4057
vn -0.4145 0.8170 0.4008
vn -0.5369 0.8333 -0.1317
vn 0.5237 0.8353 -0.1675
vn 0.4720 0.7951 -0.3808
vn 0.5036 0.8153 -0.2857
vn 0.4975 0.8192 -0.2854
vn 0.5062 0.8275 -0.2430
vn -0.5141 0.8518 0.1009
vn -0.5267 0.8498 0.0217
vn -0.5304 0.8474 -0.0244
vn -0.5255 0.8504 -0.0256
vn -0.3920 0.8333 0.3898
vn 0.1297 0.8353 -0.5344
vn -0.0793 0.7951 -0.6013
vn 0.0183 0.8153 -0.5788
vn 0.0154 0.8192 -0.5733
vn 0.0561 0.8275 -0.5587
vn -0.1816 0.8518 0.4914
vn -0.2557 0.8498 0.4609
vn -0.2970 0.8474 0.4401
vn -0.2955 0.8504 0.4353
vn -0.5793 0.8136 -0.0497
vn 0.4427 0.8318 -0.3348
vn 0.3438 0.7771 -0.5272
vn 0.3962 0.8039 -0.4436
vn 0.3901 0.8077 -0.4420
vn 0.4082 0.8189 -0.4035
vn -0.5032 0.8474 0.1694
vn -0.5339 0.8401 0.0957
vn -0.5482 0.8347 0.0521
vn -0.5439 0.8377 0.0495
vn -0.5371 0.8431 0.0270
vn 0.4852 0.8356 -0.2576
vn 0.3841 0.8040 -0.4540
vn 0.4376 0.8203 -0.3684
vn 0.4317 0.8242 -0.3665
vn 0.4503 0.8308 -0.3271
vn -0.4599 0.8526 0.2481
vn -0.4908 0.8537 0.1741
vn -0.5052 0.8531 0.1302
vn -0.5008 0.8561 0.1279
vn 0.2770 0.7378 -0.6156
vn 0.4119 0.8006 0.4352
vn 0.6035 0.7057 0.3713
vn 0.5194 0.7508 0.4081
vn 0.5194 0.7542 0.4017
vn 0.4813 0.7733 0.4128
vn 0.0589 0.8146 -0.5770
vn 0.1337 0.7923 -0.5953
vn 0.1773 0.7784 -0.6022
vn 0.1797 0.7813 -0.5978
vn 0.3494 0.7717 0.5314
vn -0.5759 0.8174 0.0138
vn -0.6399 0.7385 0.2125
vn -0.6188 0.7763 0.1199
vn -0.6136 0.7799 0.1234
vn -0.5995 0.7958 0.0848
vn 0.4490 0.8312 0.3277
vn 0.4190 0.8150 0.4003
vn 0.3985 0.8045 0.4404
vn 0.3936 0.8074 0.4395
vn 0.3530 0.7785 0.5190
vn -0.5721 0.8202 0.0007
vn -0.6364 0.7448 0.2006
vn -0.6152 0.7810 0.1074
vn -0.6099 0.7847 0.1109
vn -0.5958 0.7999 0.0720
vn 0.4529 0.8343 0.3144
vn 0.4228 0.8193 0.3872
vn 0.4023 0.8096 0.4274
vn 0.3973 0.8125 0.4265
vn 0.3894 0.8329 0.3934
vn -0.5347 0.8352 -0.1284
vn -0.6016 0.7947 0.0806
vn -0.5791 0.8151 -0.0170
vn -0.5737 0.8189 -0.0141
vn -0.5591 0.8273 -0.0548
vn 0.4910 0.8517 0.1829
vn 0.4605 0.8496 0.2571
vn 0.4397 0.8472 0.2983
vn 0.4349 0.8501 0.2969
vn -0.1455 0.7611 0.6321
vn -0.4349 0.8128 -0.3877
vn -0.6188 0.7287 -0.2933
vn -0.5393 0.7689 -0.3435
vn -0.5382 0.7725 -0.3372
vn -0.5013 0.7894 -0.3544
vn 0.0676 0.8262 0.5593
vn -0.0045 0.8080 0.5891
vn -0.0471 0.7964 0.6029
vn -0.0501 0.7994 0.5988
vn -0.6150 0.7331 0.2904
vn 0.1015 0.8713 -0.4802
vn -0.0752 0.7994 -0.5960
vn 0.0092 0.8348 -0.5504
vn 0.0044 0.8379 -0.5458
vn 0.0383 0.8523 -0.5217
vn -0.4413 0.7821 0.4400
vn -0.5046 0.7690 0.3925
vn -0.5386 0.7607 0.3623
vn -0.5366 0.7641 0.3580
vn -0.0479 0.8144 0.5783
vn -0.3330 0.8320 -0.4438
vn -0.5255 0.7779 -0.3447
vn -0.4418 0.8044 -0.3971
vn -0.4402 0.8082 -0.3911
vn -0.4016 0.8193 -0.4093
vn 0.1713 0.8476 0.5022
vn 0.0976 0.8405 0.5329
vn 0.0539 0.8353 0.5472
vn 0.0514 0.8382 0.5429
vn -0.0620 0.8079 0.5861
vn -0.3474 0.8303 -0.4358
vn -0.5389 0.7719 -0.3373
vn -0.4558 0.8004 -0.3895
vn -0.4543 0.8041 -0.3834
vn -0.4159 0.8160 -0.4014
vn 0.1566 0.8456 0.5103
vn 0.0830 0.8370 0.5409
vn 0.0394 0.8308 0.5552
vn 0.0368 0.8338 0.5509
vn 0.1152 0.5980 0.7932
vn -0.6872 0.7182 0.1091
vn -0.7756 0.5765 0.2571
vn -0.7430 0.6428 0.1864
vn -0.7392 0.6456 0.1919
vn -0.7205 0.6738 0.1637
vn 0.2422 0.7261 0.6435
vn 0.2015 0.6857 0.6995
vn 0.1754 0.6615 0.7291
vn 0.1704 0.6641 0.7279
vn 0.5034 0.8166 0.2824
vn -0.5433 0.8325 0.1083
vn -0.5350 0.7799 0.3250
vn -0.5471 0.8058 0.2268
vn -0.5410 0.8096 0.2279
vn -0.5411 0.8203 0.1852
vn 0.5271 0.8483 0.0513
vn 0.5238 0.8417 0.1311
vn 0.5183 0.8367 0.1768
vn 0.5133 0.8397 0.1773
vn 0.5810 0.7800 0.2326
vn -0.4763 0.8207 0.3155
vn -0.4185 0.7462 0.5177
vn -0.4527 0.7820 0.4283
vn -0.4464 0.7857 0.4283
vn -0.4563 0.8007 0.3881
vn 0.5503 0.8349 0.0068
vn 0.5658 0.8203 0.0841
vn 0.5711 0.8107 0.1291
vn 0.5664 0.8136 0.1310
vn 0.4962 0.8124 -0.3062
vn -0.1511 0.8315 0.5346
vn 0.0432 0.7760 0.6292
vn -0.0487 0.8032 0.5937
vn -0.0448 0.8070 0.5888
vn -0.0824 0.8183 0.5688
vn 0.3040 0.8471 -0.4360
vn 0.3728 0.8395 -0.3954
vn 0.4104 0.8339 -0.3690
vn 0.4085 0.8369 -0.3644
vn -0.5822 0.7669 -0.2700
vn 0.4763 0.8153 -0.3293
vn 0.4240 0.7340 -0.5304
vn 0.4558 0.7730 -0.4414
vn 0.4494 0.7765 -0.4416
vn 0.4582 0.7929 -0.4017
vn -0.5574 0.8290 -0.0454
vn -0.5709 0.8118 -0.1225
vn -0.5751 0.8008 -0.1672
vn -0.5704 0.8038 -0.1692
vn 0.6271 0.7669 0.1365
vn -0.3929 0.8153 0.4253
vn -0.2981 0.7340 0.6102
vn -0.3485 0.7730 0.5302
vn -0.3422 0.7765 0.5290
vn -0.3595 0.7929 0.4920
vn 0.5539 0.8290 -0.0774
vn 0.5839 0.8118 -0.0050
vn 0.5977 0.8008 0.0377
vn 0.5936 0.8038 0.0406
vn 0.5388 0.8036 -0.2528
vn -0.1768 0.8291 0.5305
vn 0.0075 0.7680 0.6405
vn -0.0805 0.7977 0.5977
vn -0.0761 0.8014 0.5932
vn -0.1116 0.8139 0.5703
vn 0.3592 0.8442 -0.3979
vn 0.4240 0.8346 -0.3517
vn 0.4591 0.8278 -0.3224
vn 0.4569 0.8308 -0.3179
vn -0.5809 0.8117 0.0607
vn 0.3659 0.8313 -0.4184
vn 0.2315 0.7754 -0.5875
vn 0.2991 0.8028 -0.5158
vn 0.2935 0.8066 -0.5132
vn 0.3187 0.8180 -0.4789
vn -0.4636 0.8468 0.2607
vn -0.5081 0.8391 0.1944
vn -0.5306 0.8334 0.1544
vn -0.5269 0.8364 0.1510
vn -0.6630 0.7477 -0.0369
vn 0.2796 0.8065 -0.5209
vn 0.1529 0.7163 -0.6809
vn 0.2168 0.7593 -0.6136
vn 0.2108 0.7627 -0.6114
vn 0.2345 0.7809 -0.5790
vn -0.5514 0.8195 0.1564
vn -0.5944 0.7989 0.0919
vn -0.6159 0.7860 0.0530
vn -0.6125 0.7889 0.0493
vn -0.4863 0.8234 0.2924
vn 0.2055 0.8339 -0.5122
vn 0.0149 0.7861 -0.6180
vn 0.1056 0.8098 -0.5772
vn 0.1016 0.8136 -0.5725
vn 0.1383 0.8234 -0.5503
vn -0.3004 0.8500 0.4328
vn -0.3671 0.8452 0.3885
vn -0.4034 0.8412 0.3601
vn -0.4011 0.8442 0.3556
vn -0.3129 0.8319 0.4584
vn 0.0185 0.8351 -0.5498
vn -0.1993 0.7938 -0.5746
vn -0.0993 0.8145 -0.5716
vn -0.1011 0.8184 -0.5657
vn -0.0584 0.8269 -0.5593
vn -0.0868 0.8516 0.5170
vn -0.1654 0.8492 0.5016
vn -0.2099 0.8465 0.4892
vn -0.2095 0.8495 0.4842
vn 0.0146 0.8390 0.5439
vn -0.2700 0.8356 -0.4784
vn -0.4659 0.8003 -0.3776
vn -0.3805 0.8183 -0.4309
vn -0.3787 0.8222 -0.4250
vn -0.3394 0.8295 -0.4435
vn 0.2355 0.8524 0.4668
vn 0.1615 0.8522 0.4977
vn 0.1176 0.8508 0.5121
vn 0.1153 0.8538 0.5077
vn -0.1452 0.7613 0.6319
vn -0.4346 0.8129 -0.3878
vn -0.6186 0.7289 -0.2935
vn -0.5390 0.7690 -0.3436
vn -0.5379 0.7726 -0.3374
vn -0.5010 0.7895 -0.3545
vn 0.0679 0.8263 0.5591
vn -0.0043 0.8081 0.5890
vn -0.0469 0.7966 0.6027
vn -0.0498 0.7995 0.5986
vn 0.8018 0.5286 -0.2788
vn 0.3308 0.6734 0.6611
vn 0.4802 0.5150 0.7101
vn 0.4108 0.5888 0.6961
vn 0.4156 0.5913 0.6911
vn 0.3869 0.6227 0.6801
vn 0.6407 0.6754 -0.3652
vn 0.7001 0.6282 -0.3393
vn 0.7324 0.6004 -0.3213
vn 0.7326 0.6028 -0.3160
vn 0.6270 0.7090 -0.3227
vn 0.1217 0.7850 0.6074
vn 0.3086 0.6784 0.6668
vn 0.2216 0.7288 0.6479
vn 0.2256 0.7321 0.6428
vn 0.1894 0.7534 0.6297
vn 0.4327 0.7986 -0.4185
vn 0.5025 0.7718 -0.3896
vn 0.5410 0.7554 -0.3699
vn 0.5405 0.7582 -0.3648
vn -0.6558 0.7317 -0.1858
vn 0.3603 0.7969 -0.4848
vn 0.2677 0.6993 -0.6628
vn 0.3170 0.7456 -0.5861
vn 0.3106 0.7491 -0.5852
vn 0.3274 0.7687 -0.5495
vn -0.5840 0.8115 0.0226
vn -0.6136 0.7881 -0.0482
vn -0.6272 0.7736 -0.0899
vn -0.6232 0.7765 -0.0931
vn -0.3007 0.6220 0.7229
vn -0.6232 0.7293 -0.2824
vn -0.7797 0.5935 -0.1997
vn -0.7132 0.6570 -0.2442
vn -0.7128 0.6600 -0.2376
vn -0.6814 0.6870 -0.2524
vn -0.1108 0.7438 0.6592
vn -0.1759 0.7056 0.6864
vn -0.2142 0.6827 0.6986
vn -0.2179 0.6854 0.6948
vn 0.3474 0.7652 0.5420
vn -0.5808 0.8135 0.0299
vn -0.6432 0.7310 0.2276
vn -0.6229 0.7705 0.1355
vn -0.6177 0.7740 0.1391
vn -0.6039 0.7907 0.1007
vn 0.4457 0.8286 0.3389
vn 0.4161 0.8110 0.4113
vn 0.3959 0.7997 0.4513
vn 0.3909 0.8026 0.4505
vn -0.4185 0.7339 0.5351
vn -0.3079 0.7978 -0.5184
vn -0.5081 0.7010 -0.5004
vn -0.4183 0.7469 -0.5169
vn -0.4198 0.7503 -0.5106
vn -0.3803 0.7698 -0.5126
vn -0.1981 0.8128 0.5479
vn -0.2749 0.7897 0.5484
vn -0.3188 0.7754 0.5451
vn -0.3201 0.7783 0.5402
vn -0.1399 0.7931 0.5929
vn -0.3426 0.8256 -0.4483
vn -0.5391 0.7582 -0.3667
vn -0.4531 0.7908 -0.4115
vn -0.4522 0.7945 -0.4052
vn -0.4130 0.8082 -0.4199
vn 0.0825 0.8403 0.5357
vn 0.0071 0.8284 0.5602
vn -0.0372 0.8203 0.5707
vn -0.0396 0.8233 0.5663
vn -0.7170 0.5980 -0.3583
vn 0.3028 0.7182 -0.6265
vn 0.2318 0.5765 -0.7835
vn 0.2712 0.6428 -0.7164
vn 0.2645 0.6456 -0.7164
vn 0.2770 0.6738 -0.6850
vn -0.6666 0.7261 -0.1686
vn -0.6893 0.6857 -0.2339
vn -0.6988 0.6615 -0.2722
vn -0.6949 0.6641 -0.2758
vn 0.1489 0.3549 -0.9230
vn 0.8393 0.5265 -0.1355
vn 0.9159 0.3352 -0.2210
vn 0.8883 0.4236 -0.1777
vn 0.8861 0.4253 -0.1844
vn 0.8700 0.4632 -0.1688
vn 0.0319 0.5407 -0.8406
vn 0.0708 0.4794 -0.8747
vn 0.0951 0.4436 -0.8912
vn 0.1004 0.4455 -0.8896
vn -0.7806 0.3890 0.4893
vn -0.6265 0.5546 -0.5476
vn -0.7495 0.3684 -0.5500
vn -0.6949 0.4545 -0.5572
vn -0.6985 0.4564 -0.5512
vn -0.6746 0.4933 -0.5492
vn -0.6339 0.5685 0.5243
vn -0.6878 0.5095 0.5171
vn -0.7176 0.4750 0.5093
vn -0.7198 0.4770 0.5043
vt 0.293163 4.954233
vt 0.335707 5.102386
vt 0.256239 5.121584
vt 0.223221 4.968729
vt 0.175693 5.135822
vt 0.151320 4.980035
vt 0.094539 5.145764
vt 0.078096 4.988136
vt 0.013009 5.151849
vt 0.004029 4.993052
vt -0.584866 4.929314
vt -0.628081 5.079594
vt -0.705487 5.055523
vt -0.654285 4.908113
vt -0.781809 5.026679
vt -0.721407 4.883933
vt -0.856398 4.991970
vt -0.785538 4.857168
vt 0.360203 4.936266
vt 0.413236 5.077391
vt -0.294208 4.983969
vt -0.312405 5.141077
vt -0.392384 5.130301
vt -0.368125 4.974604
vt -0.471659 5.116520
vt -0.441375 4.962482
vt -0.550155 5.099669
vt -0.513767 4.947629
vt -0.241421 2.600050
vt -0.454062 4.662862
vt -0.515127 4.650397
vt -0.287054 2.595921
vt -0.195598 2.604594
vt -0.391993 4.673619
vt -0.150025 2.608824
vt -0.329131 4.682603
vt -0.104669 2.614618
vt -0.265684 4.689755
vt 0.291596 2.637558
vt 0.296685 4.672284
vt 0.237514 4.681082
vt 0.247348 2.636929
vt -0.377666 2.588654
vt -0.633482 4.620934
vt -0.690571 4.604454
vt -0.422271 2.585449
vt -0.332488 2.592063
vt -0.574999 4.636364
vt 0.115928 2.632380
vt 0.053039 4.697609
vt -0.010181 4.699712
vt 0.072286 2.630153
vt 0.159513 2.634044
vt 0.115548 4.693747
vt 0.203420 2.635470
vt 0.177114 4.688206
vt -0.070491 4.994807
vt -0.073886 4.700003
vt -0.145156 4.994168
vt -0.137853 4.698458
vt 0.028491 2.627731
vt -0.219813 4.990525
vt -0.201855 4.695044
vt -0.015437 2.624221
vt -0.059929 2.619581
vt -0.231749 5.148830
vt -0.150513 5.153232
vt -0.068815 5.154324
vt 1.104587 -4.154323
vt 1.123525 -4.154323
vt 1.123525 -4.135385
vt 1.104587 -4.135385
vt 0.262872 -2.691121
vt 0.021697 1.325903
vt -0.059621 1.320553
vt 0.227556 -2.693887
vt 0.348980 -4.153643
vt 0.369727 -4.151359
vt 0.267777 1.360989
vt 0.186338 1.351366
vt 0.332625 -2.685394
vt 0.367538 -2.682805
vt -0.218992 1.312943
vt -0.139579 1.316848
vt -0.298631 1.307354
vt 0.297854 -2.689647
vt 0.120471 -2.705412
vt 0.155733 -2.700286
vt 0.191549 -2.695756
vt 0.391185 -4.148102
vt 0.104144 1.337590
vt 0.402582 -2.679829
vt 0.413236 -4.148011
vt 0.349201 1.364312
vt 0.327761 -4.154325
vt 0.000000 0.800000
vt 0.542651 0.800000
vt 0.549868 1.000000
vt 0.000000 1.000000
vt 0.521000 0.200000
vt 0.513783 0.000000
vt 1.000000 0.000000
vt 1.000000 0.200000
vt 1.000000 0.800000
vt 1.000000 1.000000
vt 0.535434 0.600000
vt 1.000000 0.600000
vt 0.528217 0.400000
vt 1.000000 0.400000
vt 0.000000 0.000000
vt 0.000000 0.200000
vt 0.000000 0.400000
vt 0.000000 0.600000
s 1
usemtl pine_bark_1
f 53/1/1 12/2/2 7/3/3 46/4/4
f 46/4/4 7/3/3 6/5/5 47/6/6
f 47/6/6 6/5/5 5/7/7 48/8/8
f 48/8/8 5/7/7 4/9/9 49/10/10
f 44/11/11 13/12/12 16/13/13 50/14/14
f 50/14/14 16/13/13 15/15/15 51/16/16
f 51/16/16 15/15/15 14/17/17 52/18/18
f 52/19/18 14/20/17 12/2/2 53/1/1
f 45/21/19 8/22/20 11/23/21 54/24/22
f 54/24/22 11/23/21 10/25/23 55/26/24
f 55/26/24 10/25/23 9/27/25 56/28/26
f 56/28/26 9/27/25 13/12/12 44/11/11
f 40/29/27 39/30/28 29/31/29 28/32/30
f 82/33/31 38/34/32 39/30/28 40/29/27
f 79/35/33 37/36/34 38/34/32 82/33/31
f 78/37/35 36/38/36 37/36/34 79/35/33
f 34/39/37 33/40/38 35/41/39 77/42/40
f 74/43/41 32/44/42 33/45/38 34/46/37
f 31/47/43 30/48/44 32/44/42 74/43/41
f 28/32/30 29/31/29 30/48/44 31/47/43
f 69/49/45 25/50/46 26/51/47 27/52/48
f 24/53/49 23/54/50 25/50/46 69/49/45
f 22/55/51 21/56/52 23/54/50 24/53/49
f 43/57/53 20/58/54 26/51/47 49/10/10
f 77/42/40 35/41/39 21/56/52 22/55/51
f 42/59/55 19/60/56 20/58/54 43/57/53
f 20/58/54 66/61/57 27/52/48 26/51/47
f 41/62/58 18/63/59 19/60/56 42/59/55
f 19/60/56 63/64/60 66/61/57 20/58/54
f 45/21/19 36/38/36 18/63/59 41/62/58
f 18/63/59 17/65/61 63/64/60 19/60/56
f 8/22/20 45/21/19 41/62/58 1/66/62
f 1/66/62 41/62/58 42/59/55 2/67/63
f 2/67/63 42/59/55 43/57/53 3/68/64
f 3/68/64 43/57/53 49/10/10 4/9/9
f 39/30/28 56/28/26 44/11/11 29/31/29
f 38/34/32 55/26/24 56/28/26 39/30/28
f 37/36/34 54/24/22 55/26/24 38/34/32
f 36/38/36 45/21/19 54/24/22 37/36/34
f 33/40/38 52/19/18 53/1/1 35/41/39
f 32/44/42 51/16/16 52/18/18 33/45/38
f 30/48/44 50/14/14 51/16/16 32/44/42
f 29/31/29 44/11/11 50/14/14 30/48/44
f 25/50/46 48/8/8 49/10/10 26/51/47
f 23/54/50 47/6/6 48/8/8 25/50/46
f 21/56/52 46/4/4 47/6/6 23/54/50
f 35/41/39 53/1/1 46/4/4 21/56/52
f 60/69/65 58/70/65 57/71/65 59/72/65
f 36/38/36 78/37/35 17/65/61 18/63/59
f 61/73/66 62/74/67 80/75/68 81/76/69
f 59/77/70 57/78/71 81/76/69
f 67/79/72 70/80/73 71/81/74 68/82/75
f 28/32/30 72/83/76 83/84/77
f 72/83/76 74/43/41 75/85/78
f 57/78/71 64/86/79 61/73/66
f 72/83/76 75/85/78 76/87/80 73/88/81
f 80/75/68 83/84/77 84/89/82 81/76/69
f 62/74/67 78/37/35 80/75/68
f 80/75/68 82/33/31 83/84/77
f 64/86/79 57/78/71 58/90/83
f 65/91/84 64/86/79 71/81/74 70/80/73
f 76/92/80 68/82/75 60/93/85
f 77/42/40 67/79/72 75/94/78
f 83/84/77 72/83/76 73/88/81 84/89/82
f 84/89/82 73/88/81 59/77/70
f 64/86/79 65/91/84 62/74/67 61/73/66
f 27/52/48 65/91/84 70/80/73
f 75/94/78 67/79/72 68/82/75 76/92/80
f 66/61/57 65/91/84 27/52/48
f 63/64/60 65/91/84 66/61/57
f 65/91/84 63/64/60 62/74/67
f 17/65/61 62/74/67 63/64/60
f 78/37/35 62/74/67 17/65/61
f 80/75/68 78/37/35 79/35/33
f 82/33/31 80/75/68 79/35/33
f 83/84/77 82/33/31 40/29/27
f 28/32/30 83/84/77 40/29/27
f 72/83/76 28/32/30 31/47/43
f 74/43/41 72/83/76 31/47/43
f 75/85/78 74/43/41 34/46/37
f 77/42/40 75/94/78 34/39/37
f 67/79/72 77/42/40 22/55/51
f 70/80/73 24/53/49 69/49/45
f 24/53/49 67/79/72 22/55/51
f 27/52/48 70/80/73 69/49/45
f 67/79/72 24/53/49 70/80/73
f 59/77/70 73/88/81 60/95/85
f 59/77/70 81/76/69 84/89/82
f 57/78/71 61/73/66 81/76/69
f 60/95/85 73/88/81 76/87/80
f 58/90/83 68/82/75 71/81/74
f 64/86/79 58/90/83 71/81/74
f 60/93/85 68/82/75 58/90/83
usemtl pine_branch_1
f 91/96/86 99/97/86 89/98/86 87/99/86
f 102/100/87 90/101/87 86/102/87 95/103/87
f 89/98/88 99/97/88 98/104/88 88/105/88
f 99/97/89 100/106/89 97/107/89 98/104/89
f 100/106/90 101/108/90 96/109/90 97/107/90
f 101/108/91 102/100/91 95/103/91 96/109/91
f 85/110/92 90/101/92 102/100/92 94/111/92
f 94/111/93 102/100/93 101/108/93 93/112/93
f 93/112/94 101/108/94 100/106/94 92/113/94
f 92/113/95 100/106/95 99/97/95 91/96/95
f 109/96/96 117/97/96 107/98/96 105/99/96
f 120/100/97 108/101/97 104/102/97 113/103/97
f 107/98/98 117/97/98 116/104/98 106/105/98
f 117/97/99 118/106/99 115/107/99 116/104/99
f 118/106/100 119/108/100 114/109/100 115/107/100
f 119/108/101 120/100/101 113/103/101 114/109/101
f 103/110/102 108/101/102 120/100/102 112/111/102
f 112/111/103 120/100/103 119/108/103 111/112/103
f 111/112/104 119/108/104 118/106/104 110/113/104
f 110/113/105 118/106/105 117/97/105 109/96/105
f 127/96/106 135/97/106 125/98/106 123/99/106
f 138/100/107 126/101/107 122/102/107 131/103/107
f 125/98/108 135/97/108 134/104/108 124/105/108
f 135/97/109 136/106/109 133/107/109 134/104/109
f 136/106/110 137/108/110 132/109/110 133/107/110
f 137/108/111 138/100/111 131/103/111 132/109/111
f 121/110/112 126/101/112 138/100/112 130/111/112
f 130/111/113 138/100/113 137/108/113 129/112/113
f 129/112/114 137/108/114 136/106/114 128/113/114
f 128/113/115 136/106/115 135/97/115 127/96/115
f 145/96/116 153/97/116 143/98/116 141/99/116
f 156/100/117 144/101/117 140/102/117 149/103/117
f 143/98/118 153/97/118 152/104/118 142/105/118
f 153/97/119 154/106/119 151/107/119 152/104/119
f 154/106/120 155/108/120 150/109/120 151/107/120
f 155/108/121 156/100/121 149/103/121 150/109/121
f 139/110/122 144/101/122 156/100/122 148/111/122
f 148/111/123 156/100/123 155/108/123 147/112/123
f 147/112/124 155/108/124 154/106/124 146/113/124
f 146/113/125 154/106/125 153/97/125 145/96/125
f 163/96/116 171/97/116 161/98/116 159/99/116
f 174/100/117 162/101/117 158/102/117 167/103/117
f 161/98/118 171/97/118 170/104/118 160/105/118
f 171/97/119 172/106/119 169/107/119 170/104/119
f 172/106/120 173/108/120 168/109/120 169/107/120
f 173/108/121 174/100/121 167/103/121 168/109/121
f 157/110/122 162/101/122 174/100/122 166/111/122
f 166/111/123 174/100/123 173/108/123 165/112/123
f 165/112/124 173/108/124 172/106/124 164/113/124
f 164/113/125 172/106/125 171/97/125 163/96/125
f 181/96/126 189/97/126 179/98/126 177/99/126
f 192/100/127 180/101/127 176/102/127 185/103/127
f 179/98/128 189/97/128 188/104/128 178/105/128
f 189/97/129 190/106/129 187/107/129 188/104/129
f 190/106/130 191/108/130 186/109/130 187/107/130
f 191/108/131 192/100/131 185/103/131 186/109/131
f 175/110/132 180/101/132 192/100/132 184/111/132
f 184/111/133 192/100/133 191/108/133 183/112/133
f 183/112/134 191/108/134 190/106/134 182/113/134
f 182/113/135 190/106/135 189/97/135 181/96/135
f 199/96/136 207/97/136 197/98/136 195/99/136
f 210/100/137 198/101/137 194/102/137 203/103/137
f 197/98/138 207/97/138 206/104/138 196/105/138
f 207/97/139 208/106/139 205/107/139 206/104/139
f 208/106/140 209/108/140 204/109/140 205/107/140
f 209/108/141 210/100/141 203/103/141 204/109/141
f 193/110/142 198/101/142 210/100/142 202/111/142
f 202/111/143 210/100/143 209/108/143 201/112/143
f 201/112/144 209/108/144 208/106/144 200/113/144
f 200/113/145 208/106/145 207/97/145 199/96/145
f 217/96/146 225/97/146 215/98/146 213/99/146
f 228/100/147 216/101/147 212/102/147 221/103/147
f 215/98/148 225/97/148 224/104/148 214/105/148
f 225/97/149 226/106/149 223/107/149 224/104/149
f 226/106/150 227/108/150 222/109/150 223/107/150
f 227/108/151 228/100/151 221/103/151 222/109/151
f 211/110/152 216/101/152 228/100/152 220/111/152
f 220/111/153 228/100/153 227/108/153 219/112/153
f 219/112/154 227/108/154 226/106/154 218/113/154
f 218/113/155 226/106/155 225/97/155 217/96/155
f 235/96/156 243/97/156 233/98/156 231/99/156
f 246/100/157 234/101/157 230/102/157 239/103/157
f 233/98/158 243/97/158 242/104/158 232/105/158
f 243/97/159 244/106/159 241/107/159 242/104/159
f 244/106/160 245/108/160 240/109/160 241/107/160
f 245/108/161 246/100/161 239/103/161 240/109/161
f 229/110/162 234/101/162 246/100/162 238/111/162
f 238/111/163 246/100/163 245/108/163 237/112/163
f 237/112/164 245/108/164 244/106/164 236/113/164
f 236/113/165 244/106/165 243/97/165 235/96/165
f 253/96/166 261/97/166 251/98/166 249/99/166
f 264/100/167 252/101/167 248/102/167 257/103/167
f 251/98/168 261/97/168 260/104/168 250/105/168
f 261/97/169 262/106/169 259/107/169 260/104/169
f 262/106/170 263/108/170 258/109/170 259/107/170
f 263/108/171 264/100/171 257/103/171 258/109/171
f 247/110/172 252/101/172 264/100/172 256/111/172
f 256/111/173 264/100/173 263/108/173 255/112/173
f 255/112/174 263/108/174 262/106/174 254/113/174
f 254/113/175 262/106/175 261/97/175 253/96/175
f 271/96/156 279/97/156 269/98/156 267/99/156
f 282/100/157 270/101/157 266/102/157 275/103/157
f 269/98/158 279/97/158 278/104/158 268/105/158
f 279/97/159 280/106/159 277/107/159 278/104/159
f 280/106/160 281/108/160 276/109/160 277/107/160
f 281/108/161 282/100/161 275/103/161 276/109/161
f 265/110/162 270/101/162 282/100/162 274/111/162
f 274/111/163 282/100/163 281/108/163 273/112/163
f 273/112/164 281/108/164 280/106/164 272/113/164
f 272/113/165 280/106/165 279/97/165 271/96/165
f 289/96/176 297/97/176 287/98/176 285/99/176
f 300/100/177 288/101/177 284/102/177 293/103/177
f 287/98/178 297/97/178 296/104/178 286/105/178
f 297/97/179 298/106/179 295/107/179 296/104/179
f 298/106/180 299/108/180 294/109/180 295/107/180
f 299/108/181 300/100/181 293/103/181 294/109/181
f 283/110/182 288/101/182 300/100/182 292/111/182
f 292/111/183 300/100/183 299/108/183 291/112/183
f 291/112/184 299/108/184 298/106/184 290/113/184
f 290/113/185 298/106/185 297/97/185 289/96/185
f 307/96/186 315/97/186 305/98/186 303/99/186
f 318/100/187 306/101/187 302/102/187 311/103/187
f 305/98/188 315/97/188 314/104/188 304/105/188
f 315/97/189 316/106/189 313/107/189 314/104/189
f 316/106/190 317/108/190 312/109/190 313/107/190
f 317/108/191 318/100/191 311/103/191 312/109/191
f 301/110/192 306/101/192 318/100/192 310/111/192
f 310/111/193 318/100/193 317/108/193 309/112/193
f 309/112/194 317/108/194 316/106/194 308/113/194
f 308/113/195 316/106/195 315/97/195 307/96/195
f 325/96/196 333/97/196 323/98/196 321/99/196
f 336/100/197 324/101/197 320/102/197 329/103/197
f 323/98/198 333/97/198 332/104/198 322/105/198
f 333/97/199 334/106/199 331/107/199 332/104/199
f 334/106/200 335/108/200 330/109/200 331/107/200
f 335/108/201 336/100/201 329/103/201 330/109/201
f 319/110/202 324/101/202 336/100/202 328/111/202
f 328/111/203 336/100/203 335/108/203 327/112/203
f 327/112/204 335/108/204 334/106/204 326/113/204
f 326/113/205 334/106/205 333/97/205 325/96/205
f 343/96/206 351/97/206 341/98/206 339/99/206
f 354/100/207 342/101/207 338/102/207 347/103/207
f 341/98/208 351/97/208 350/104/208 340/105/208
f 351/97/209 352/106/209 349/107/209 350/104/209
f 352/106/210 353/108/210 348/109/210 349/107/210
f 353/108/211 354/100/211 347/103/211 348/109/211
f 337/110/212 342/101/212 354/100/212 346/111/212
f 346/111/213 354/100/213 353/108/213 345/112/213
f 345/112/214 353/108/214 352/106/214 344/113/214
f 344/113/215 352/106/215 351/97/215 343/96/215
f 361/96/216 369/97/216 359/98/216 357/99/216
f 372/100/217 360/101/217 356/102/217 365/103/217
f 359/98/218 369/97/218 368/104/218 358/105/218
f 369/97/219 370/106/219 367/107/219 368/104/219
f 370/106/220 371/108/220 366/109/220 367/107/220
f 371/108/221 372/100/221 365/103/221 366/109/221
f 355/110/222 360/101/222 372/100/222 364/111/222
f 364/111/223 372/100/223 371/108/223 363/112/223
f 363/112/224 371/108/224 370/106/224 362/113/224
f 362/113/225 370/106/225 369/97/225 361/96/225
f 379/96/216 387/97/216 377/98/216 375/99/216
f 390/100/217 378/101/217 374/102/217 383/103/217
f 377/98/218 387/97/218 386/104/218 376/105/218
f 387/97/219 388/106/219 385/107/219 386/104/219
f 388/106/220 389/108/220 384/109/220 385/107/220
f 389/108/221 390/100/221 383/103/221 384/109/221
f 373/110/222 378/101/222 390/100/222 382/111/222
f 382/111/223 390/100/223 389/108/223 381/112/223
f 381/112/224 389/108/224 388/106/224 380/113/224
f 380/113/225 388/106/225 387/97/225 379/96/225
f 397/96/226 405/97/226 395/98/226 393/99/226
f 408/100/227 396/101/227 392/102/227 401/103/227
f 395/98/228 405/97/228 404/104/228 394/105/228
f 405/97/229 406/106/229 403/107/229 404/104/229
f 406/106/230 407/108/230 402/109/230 403/107/230
f 407/108/231 408/100/231 401/103/231 402/109/231
f 391/110/232 396/101/232 408/100/232 400/111/232
f 400/111/233 408/100/233 407/108/233 399/112/233
f 399/112/234 407/108/234 406/106/234 398/113/234
f 398/113/235 406/106/235 405/97/235 397/96/235
f 415/96/236 423/97/236 413/98/236 411/99/236
f 426/100/237 414/101/237 410/102/237 419/103/237
f 413/98/238 423/97/238 422/104/238 412/105/238
f 423/97/239 424/106/239 421/107/239 422/104/239
f 424/106/240 425/108/240 420/109/240 421/107/240
f 425/108/241 426/100/241 419/103/241 420/109/241
f 409/110/242 414/101/242 426/100/242 418/111/242
f 418/111/243 426/100/243 425/108/243 417/112/243
f 417/112/244 425/108/244 424/106/244 416/113/244
f 416/113/245 424/106/245 423/97/245 415/96/245
f 433/96/236 441/97/236 431/98/236 429/99/236
f 444/100/237 432/101/237 428/102/237 437/103/237
f 431/98/238 441/97/238 440/104/238 430/105/238
f 441/97/239 442/106/239 439/107/239 440/104/239
f 442/106/240 443/108/240 438/109/240 439/107/240
f 443/108/241 444/100/241 437/103/241 438/109/241
f 427/110/242 432/101/242 444/100/242 436/111/242
f 436/111/243 444/100/243 443/108/243 435/112/243
f 435/112/244 443/108/244 442/106/244 434/113/244
f 434/113/245 442/106/245 441/97/245 433/96/245
f 451/96/246 459/97/246 449/98/246 447/99/246
f 462/100/247 450/101/247 446/102/247 455/103/247
f 449/98/248 459/97/248 458/104/248 448/105/248
f 459/97/249 460/106/249 457/107/249 458/104/249
f 460/106/250 461/108/250 456/109/250 457/107/250
f 461/108/251 462/100/251 455/103/251 456/109/251
f 445/110/252 450/101/252 462/100/252 454/111/252
f 454/111/253 462/100/253 461/108/253 453/112/253
f 453/112/254 461/108/254 460/106/254 452/113/254
f 452/113/255 460/106/255 459/97/255 451/96/255
f 469/96/256 477/97/256 467/98/256 465/99/256
f 480/100/257 468/101/257 464/102/257 473/103/257
f 467/98/258 477/97/258 476/104/258 466/105/258
f 477/97/259 478/106/259 475/107/259 476/104/259
f 478/106/260 479/108/260 474/109/260 475/107/260
f 479/108/261 480/100/261 473/103/261 474/109/261
f 463/110/262 468/101/262 480/100/262 472/111/262
f 472/111/263 480/100/263 479/108/263 471/112/263
f 471/112/264 479/108/264 478/106/264 470/113/264
f 470/113/265 478/106/265 477/97/265 469/96/265
f 487/96/266 495/97/266 485/98/266 483/99/266
f 498/100/267 486/101/267 482/102/267 491/103/267
f 485/98/268 495/97/268 494/104/268 484/105/268
f 495/97/269 496/106/269 493/107/269 494/104/269
f 496/106/270 497/108/270 492/109/270 493/107/270
f 497/108/271 498/100/271 491/103/271 492/109/271
f 481/110/272 486/101/272 498/100/272 490/111/272
f 490/111/273 498/100/273 497/108/273 489/112/273
f 489/112/274 497/108/274 496/106/274 488/113/274
f 488/113/275 496/106/275 495/97/275 487/96/275
f 505/96/276 513/97/276 503/98/276 501/99/276
f 516/100/277 504/101/277 500/102/277 509/103/277
f 503/98/278 513/97/278 512/104/278 502/105/278
f 513/97/279 514/106/279 511/107/279 512/104/279
f 514/106/280 515/108/280 510/109/280 511/107/280
f 515/108/281 516/100/281 509/103/281 510/109/281
f 499/110/282 504/101/282 516/100/282 508/111/282
f 508/111/283 516/100/283 515/108/283 507/112/283
f 507/112/284 515/108/284 514/106/284 506/113/284
f 506/113/285 514/106/285 513/97/285 505/96/285
f 523/96/276 531/97/276 521/98/276 519/99/276
f 534/100/277 522/101/277 518/102/277 527/103/277
f 521/98/278 531/97/278 530/104/278 520/105/278
f 531/97/279 532/106/279 529/107/279 530/104/279
f 532/106/280 533/108/280 528/109/280 529/107/280
f 533/108/281 534/100/281 527/103/281 528/109/281
f 517/110/282 522/101/282 534/100/282 526/111/282
f 526/111/283 534/100/283 533/108/283 525/112/283
f 525/112/284 533/108/284 532/106/284 524/113/284
f 524/113/285 532/106/285 531/97/285 523/96/285
f 541/96/286 549/97/286 539/98/286 537/99/286
f 552/100/287 540/101/287 536/102/287 545/103/287
f 539/98/288 549/97/288 548/104/288 538/105/288
f 549/97/289 550/106/289 547/107/289 548/104/289
f 550/106/290 551/108/290 546/109/290 547/107/290
f 551/108/291 552/100/291 545/103/291 546/109/291
f 535/110/292 540/101/292 552/100/292 544/111/292
f 544/111/293 552/100/293 551/108/293 543/112/293
f 543/112/294 551/108/294 550/106/294 542/113/294
f 542/113/295 550/106/295 549/97/295 541/96/295
f 559/96/296 567/97/296 557/98/296 555/99/296
f 570/100/297 558/101/297 554/102/297 563/103/297
f 557/98/298 567/97/298 566/104/298 556/105/298
f 567/97/299 568/106/299 565/107/299 566/104/299
f 568/106/300 569/108/300 564/109/300 565/107/300
f 569/108/301 570/100/301 563/103/301 564/109/301
f 553/110/302 558/101/302 570/100/302 562/111/302
f 562/111/303 570/100/303 569/108/303 561/112/303
f 561/112/304 569/108/304 568/106/304 560/113/304
f 560/113/305 568/106/305 567/97/305 559/96/305
f 577/96/306 585/97/306 575/98/306 573/99/306
f 588/100/307 576/101/307 572/102/307 581/103/307
f 575/98/308 585/97/308 584/104/308 574/105/308
f 585/97/309 586/106/309 583/107/309 584/104/309
f 586/106/310 587/108/310 582/109/310 583/107/310
f 587/108/311 588/100/311 581/103/311 582/109/311
f 571/110/312 576/101/312 588/100/312 580/111/312
f 580/111/313 588/100/313 587/108/313 579/112/313
f 579/112/314 587/108/314 586/106/314 578/113/314
f 578/113/315 586/106/315 585/97/315 577/96/315
f 595/96/316 603/97/316 593/98/316 591/99/316
f 606/100/317 594/101/317 590/102/317 599/103/317
f 593/98/318 603/97/318 602/104/318 592/105/318
f 603/97/319 604/106/319 601/107/319 602/104/319
f 604/106/320 605/108/320 600/109/320 601/107/320
f 605/108/321 606/100/321 599/103/321 600/109/321
f 589/110/322 594/101/322 606/100/322 598/111/322
f 598/111/323 606/100/323 605/108/323 597/112/323
f 597/112/324 605/108/324 604/106/324 596/113/324
f 596/113/325 604/106/325 603/97/325 595/96/325
f 613/96/306 621/97/306 611/98/306 609/99/306
f 624/100/307 612/101/307 608/102/307 617/103/307
f 611/98/308 621/97/308 620/104/308 610/105/308
f 621/97/309 622/106/309 619/107/309 620/104/309
f 622/106/310 623/108/310 618/109/310 619/107/310
f 623/108/311 624/100/311 617/103/311 618/109/311
f 607/110/312 612/101/312 624/100/312 616/111/312
f 616/111/313 624/100/313 623/108/313 615/112/313
f 615/112/314 623/108/314 622/106/314 614/113/314
f 614/113/315 622/106/315 621/97/315 613/96/315
f 631/96/326 639/97/326 629/98/326 627/99/326
f 642/100/327 630/101/327 626/102/327 635/103/327
f 629/98/328 639/97/328 638/104/328 628/105/328
f 639/97/329 640/106/329 637/107/329 638/104/329
f 640/106/330 641/108/330 636/109/330 637/107/330
f 641/108/331 642/100/331 635/103/331 636/109/331
f 625/110/332 630/101/332 642/100/332 634/111/332
f 634/111/333 642/100/333 641/108/333 633/112/333
f 633/112/334 641/108/334 640/106/334 632/113/334
f 632/113/335 640/106/335 639/97/335 631/96/335
f 649/96/336 657/97/336 647/98/336 645/99/336
f 660/100/337 648/101/337 644/102/337 653/103/337
f 647/98/338 657/97/338 656/104/338 646/105/338
f 657/97/339 658/106/339 655/107/339 656/104/339
f 658/106/340 659/108/340 654/109/340 655/107/340
f 659/108/341 660/100/341 653/103/341 654/109/341
f 643/110/342 648/101/342 660/100/342 652/111/342
f 652/111/343 660/100/343 659/108/343 651/112/343
f 651/112/344 659/108/344 658/106/344 650/113/344
f 650/113/345 658/106/345 657/97/345 649/96/345
f 667/96/346 675/97/346 665/98/346 663/99/346
f 678/100/347 666/101/347 662/102/347 671/103/347
f 665/98/348 675/97/348 674/104/348 664/105/348
f 675/97/349 676/106/349 673/107/349 674/104/349
f 676/106/350 677/108/350 672/109/350 673/107/350
f 677/108/351 678/100/351 671/103/351 672/109/351
f 661/110/352 666/101/352 678/100/352 670/111/352
f 670/111/353 678/100/353 677/108/353 669/112/353
f 669/112/354 677/108/354 676/106/354 668/113/354
f 668/113/355 676/106/355 675/97/355 667/96/355
f 685/96/356 693/97/356 683/98/356 681/99/356
f 696/100/357 684/101/357 680/102/357 689/103/357
f 683/98/358 693/97/358 692/104/358 682/105/358
f 693/97/359 694/106/359 691/107/359 692/104/359
f 694/106/360 695/108/360 690/109/360 691/107/360
f 695/108/361 696/100/361 689/103/361 690/109/361
f 679/110/362 684/101/362 696/100/362 688/111/362
f 688/111/363 696/100/363 695/108/363 687/112/363
f 687/112/364 695/108/364 694/106/364 686/113/364
f 686/113/365 694/106/365 693/97/365 685/96/365
f 703/96/366 711/97/366 701/98/366 699/99/366
f 714/100/367 702/101/367 698/102/367 707/103/367
f 701/98/368 711/97/368 710/104/368 700/105/368
f 711/97/369 712/106/369 709/107/369 710/104/369
f 712/106/370 713/108/370 708/109/370 709/107/370
f 713/108/371 714/100/371 707/103/371 708/109/371
f 697/110/372 702/101/372 714/100/372 706/111/372
f 706/111/373 714/100/373 713/108/373 705/112/373
f 705/112/374 713/108/374 712/106/374 704/113/374
f 704/113/375 712/106/375 711/97/375 703/96/375
f 721/96/376 729/97/376 719/98/376 717/99/376
f 732/100/377 720/101/377 716/102/377 725/103/377
f 719/98/378 729/97/378 728/104/378 718/105/378
f 729/97/379 730/106/379 727/107/379 728/104/379
f 730/106/380 731/108/380 726/109/380 727/107/380
f 731/108/381 732/100/381 725/103/381 726/109/381
f 715/110/382 720/101/382 732/100/382 724/111/382
f 724/111/383 732/100/383 731/108/383 723/112/383
f 723/112/384 731/108/384 730/106/384 722/113/384
f 722/113/385 730/106/385 729/97/385 721/96/385
f 739/96/386 747/97/386 737/98/386 735/99/386
f 750/100/387 738/101/387 734/102/387 743/103/387
f 737/98/388 747/97/388 746/104/388 736/105/388
f 747/97/389 748/106/389 745/107/389 746/104/389
f 748/106/390 749/108/390 744/109/390 745/107/390
f 749/108/391 750/100/391 743/103/391 744/109/391
f 733/110/392 738/101/392 750/100/392 742/111/392
f 742/111/393 750/100/393 749/108/393 741/112/393
f 741/112/394 749/108/394 748/106/394 740/113/394
f 740/113/395 748/106/395 747/97/395 739/96/395
f 757/96/396 765/97/396 755/98/396 753/99/396
f 768/100/397 756/101/397 752/102/397 761/103/397
f 755/98/398 765/97/398 764/104/398 754/105/398
f 765/97/399 766/106/399 763/107/399 764/104/399
f 766/106/400 767/108/400 762/109/400 763/107/400
f 767/108/401 768/100/401 761/103/401 762/109/401
f 751/110/402 756/101/402 768/100/402 760/111/402
f 760/111/403 768/100/403 767/108/403 759/112/403
f 759/112/404 767/108/404 766/106/404 758/113/404
f 758/113/405 766/106/405 765/97/405 757/96/405
f 775/96/406 783/97/406 773/98/406 771/99/406
f 786/100/407 774/101/407 770/102/407 779/103/407
f 773/98/408 783/97/408 782/104/408 772/105/408
f 783/97/409 784/106/409 781/107/409 782/104/409
f 784/106/410 785/108/410 780/109/410 781/107/410
f 785/108/411 786/100/411 779/103/411 780/109/411
f 769/110/412 774/101/412 786/100/412 778/111/412
f 778/111/413 786/100/413 785/108/413 777/112/413
f 777/112/414 785/108/414 784/106/414 776/113/414
f 776/113/415 784/106/415 783/97/415 775/96/415
f 793/96/416 801/97/416 791/98/416 789/99/416
f 804/100/417 792/101/417 788/102/417 797/103/417
f 791/98/418 801/97/418 800/104/418 790/105/418
f 801/97/419 802/106/419 799/107/419 800/104/419
f 802/106/420 803/108/420 798/109/420 799/107/420
f 803/108/421 804/100/421 797/103/421 798/109/421
f 787/110/422 792/101/422 804/100/422 796/111/422
f 796/111/423 804/100/423 803/108/423 795/112/423
f 795/112/424 803/108/424 802/106/424 794/113/424
f 794/113/425 802/106/425 801/97/425 793/96/425
f 811/96/426 819/97/426 809/98/426 807/99/426
f 822/100/427 810/101/427 806/102/427 815/103/427
f 809/98/428 819/97/428 818/104/428 808/105/428
f 819/97/429 820/106/429 817/107/429 818/104/429
f 820/106/430 821/108/430 816/109/430 817/107/430
f 821/108/431 822/100/431 815/103/431 816/109/431
f 805/110/432 810/101/432 822/100/432 814/111/432
f 814/111/433 822/100/433 821/108/433 813/112/433
f 813/112/434 821/108/434 820/106/434 812/113/434
f 812/113/435 820/106/435 819/97/435 811/96/435
f 829/96/436 837/97/436 827/98/436 825/99/436
f 840/100/437 828/101/437 824/102/437 833/103/437
f 827/98/438 837/97/438 836/104/438 826/105/438
f 837/97/439 838/106/439 835/107/439 836/104/439
f 838/106/440 839/108/440 834/109/440 835/107/440
f 839/108/441 840/100/441 833/103/441 834/109/441
f 823/110/442 828/101/442 840/100/442 832/111/442
f 832/111/443 840/100/443 839/108/443 831/112/443
f 831/112/444 839/108/444 838/106/444 830/113/444
f 830/113/445 838/106/445 837/97/445 829/96/445
f 847/96/446 855/97/446 845/98/446 843/99/446
f 858/100/447 846/101/447 842/102/447 851/103/447
f 845/98/448 855/97/448 854/104/448 844/105/448
f 855/97/449 856/106/449 853/107/449 854/104/449
f 856/106/450 857/108/450 852/109/450 853/107/450
f 857/108/451 858/100/451 851/103/451 852/109/451
f 841/110/452 846/101/452 858/100/452 850/111/452
f 850/111/453 858/100/453 857/108/453 849/112/453
f 849/112/454 857/108/454 856/106/454 848/113/454
f 848/113/455 856/106/455 855/97/455 847/96/455
f 865/96/456 873/97/456 863/98/456 861/99/456
f 876/100/457 864/101/457 860/102/457 869/103/457
f 863/98/458 873/97/458 872/104/458 862/105/458
f 873/97/459 874/106/459 871/107/459 872/104/459
f 874/106/460 875/108/460 870/109/460 871/107/460
f 875/108/461 876/100/461 869/103/461 870/109/461
f 859/110/462 864/101/462 876/100/462 868/111/462
f 868/111/463 876/100/463 875/108/463 867/112/463
f 867/112/464 875/108/464 874/106/464 866/113/464
f 866/113/465 874/106/465 873/97/465 865/96/465
f 883/96/466 891/97/466 881/98/466 879/99/466
f 894/100/467 882/101/467 878/102/467 887/103/467
f 881/98/468 891/97/468 890/104/468 880/105/468
f 891/97/469 892/106/469 889/107/469 890/104/469
f 892/106/470 893/108/470 888/109/470 889/107/470
f 893/108/471 894/100/471 887/103/471 888/109/471
f 877/110/472 882/101/472 894/100/472 886/111/472
f 886/111/473 894/100/473 893/108/473 885/112/473
f 885/112/474 893/108/474 892/106/474 884/113/474
f 884/113/475 892/106/475 891/97/475 883/96/475
f 901/96/476 909/97/476 899/98/476 897/99/476
f 912/100/477 900/101/477 896/102/477 905/103/477
f 899/98/478 909/97/478 908/104/478 898/105/478
f 909/97/479 910/106/479 907/107/479 908/104/479
f 910/106/480 911/108/480 906/109/480 907/107/480
f 911/108/481 912/100/481 905/103/481 906/109/481
f 895/110/482 900/101/482 912/100/482 904/111/482
f 904/111/483 912/100/483 911/108/483 903/112/483
f 903/112/484 911/108/484 910/106/484 902/113/484
f 902/113/485 910/106/485 909/97/485 901/96/485
f 919/96/486 927/97/486 917/98/486 915/99/486
f 930/100/487 918/101/487 914/102/487 923/103/487
f 917/98/488 927/97/488 926/104/488 916/105/488
f 927/97/489 928/106/489 925/107/489 926/104/489
f 928/106/490 929/108/490 924/109/490 925/107/490
f 929/108/491 930/100/491 923/103/491 924/109/491
f 913/110/492 918/101/492 930/100/492 922/111/492
f 922/111/493 930/100/493 929/108/493 921/112/493
f 921/112/494 929/108/494 928/106/494 920/113/494
f 920/113/495 928/106/495 927/97/495 919/96/495
f 937/96/496 945/97/496 935/98/496 933/99/496
f 948/100/497 936/101/497 932/102/497 941/103/497
f 935/98/498 945/97/498 944/104/498 934/105/498
f 945/97/499 946/106/499 943/107/499 944/104/499
f 946/106/500 947/108/500 942/109/500 943/107/500
f 947/108/501 948/100/501 941/103/501 942/109/501
f 931/110/502 936/101/502 948/100/502 940/111/502
f 940/111/503 948/100/503 947/108/503 939/112/503
f 939/112/504 947/108/504 946/106/504 938/113/504
f 938/113/505 946/106/505 945/97/505 937/96/505
f 955/96/506 963/97/506 953/98/506 951/99/506
f 966/100/507 954/101/507 950/102/507 959/103/507
f 953/98/508 963/97/508 962/104/508 952/105/508
f 963/97/509 964/106/509 961/107/509 962/104/509
f 964/106/510 965/108/510 960/109/510 961/107/510
f 965/108/511 966/100/511 959/103/511 960/109/511
f 949/110/512 954/101/512 966/100/512 958/111/512
f 958/111/513 966/100/513 965/108/513 957/112/513
f 957/112/514 965/108/514 964/106/514 956/113/514
f 956/113/515 964/106/515 963/97/515 955/96/515
f 973/96/516 981/97/516 971/98/516 969/99/516
f 984/100/517 972/101/517 968/102/517 977/103/517
f 971/98/518 981/97/518 980/104/518 970/105/518
f 981/97/519 982/106/519 979/107/519 980/104/519
f 982/106/520 983/108/520 978/109/520 979/107/520
f 983/108/521 984/100/521 977/103/521 978/109/521
f 967/110/522 972/101/522 984/100/522 976/111/522
f 976/111/523 984/100/523 983/108/523 975/112/523
f 975/112/524 983/108/524 982/106/524 974/113/524
f 974/113/525 982/106/525 981/97/525 973/96/525
f 991/96/526 999/97/526 989/98/526 987/99/526
f 1002/100/527 990/101/527 986/102/527 995/103/527
f 989/98/528 999/97/528 998/104/528 988/105/528
f 999/97/529 1000/106/529 997/107/529 998/104/529
f 1000/106/530 1001/108/530 996/109/530 997/107/530
f 1001/108/531 1002/100/531 995/103/531 996/109/531
f 985/110/532 990/101/532 1002/100/532 994/111/532
f 994/111/533 1002/100/533 1001/108/533 993/112/533
f 993/112/534 1001/108/534 1000/106/534 992/113/534
f 992/113/535 1000/106/535 999/97/535 991/96/535
f 1009/96/536 1017/97/536 1007/98/536 1005/99/536
f 1020/100/537 1008/101/537 1004/102/537 1013/103/537
f 1007/98/538 1017/97/538 1016/104/538 1006/105/538
f 1017/97/539 1018/106/539 1015/107/539 1016/104/539
f 1018/106/540 1019/108/540 1014/109/540 1015/107/540
f 1019/108/541 1020/100/541 1013/103/541 1014/109/541
f 1003/110/542 1008/101/542 1020/100/542 1012/111/542
f 1012/111/543 1020/100/543 1019/108/543 1011/112/543
f 1011/112/544 1019/108/544 1018/106/544 1010/113/544
f 1010/113/545 1018/106/545 1017/97/545 1009/96/545
f 1027/96/546 1035/97/546 1025/98/546 1023/99/546
f 1038/100/547 1026/101/547 1022/102/547 1031/103/547
f 1025/98/548 1035/97/548 1034/104/548 1024/105/548
f 1035/97/549 1036/106/549 1033/107/549 1034/104/549
f 1036/106/550 1037/108/550 1032/109/550 1033/107/550
f 1037/108/551 1038/100/551 1031/103/551 1032/109/551
f 1021/110/552 1026/101/552 1038/100/552 1030/111/552
f 1030/111/553 1038/100/553 1037/108/553 1029/112/553
f 1029/112/554 1037/108/554 1036/106/554 1028/113/554
f 1028/113/555 1036/106/555 1035/97/555 1027/96/555
f 1045/96/556 1053/97/556 1043/98/556 1041/99/556
f 1056/100/557 1044/101/557 1040/102/557 1049/103/557
f 1043/98/558 1053/97/558 1052/104/558 1042/105/558
f 1053/97/559 1054/106/559 1051/107/559 1052/104/559
f 1054/106/560 1055/108/560 1050/109/560 1051/107/560
f 1055/108/561 1056/100/561 1049/103/561 1050/109/561
f 1039/110/562 1044/101/562 1056/100/562 1048/111/562
f 1048/111/563 1056/100/563 1055/108/563 1047/112/563
f 1047/112/564 1055/108/564 1054/106/564 1046/113/564
f 1046/113/565 1054/106/565 1053/97/565 1045/96/565
f 1063/96/566 1071/97/566 1061/98/566 1059/99/566
f 1074/100/567 1062/101/567 1058/102/567 1067/103/567
f 1061/98/568 1071/97/568 1070/104/568 1060/105/568
f 1071/97/569 1072/106/569 1069/107/569 1070/104/569
f 1072/106/570 1073/108/570 1068/109/570 1069/107/570
f 1073/108/571 1074/100/571 1067/103/571 1068/109/571
f 1057/110/572 1062/101/572 1074/100/572 1066/111/572
f 1066/111/573 1074/100/573 1073/108/573 1065/112/573
f 1065/112/574 1073/108/574 1072/106/574 1064/113/574
f 1064/113/575 1072/106/575 1071/97/575 1063/96/575
