# Blender 5.0.1
# www.blender.org
mtllib stone_1.mtl
o stone_1
v -0.278417 0.506613 0.512257
v -0.811912 0.058762 0.018022
v 0.262508 0.598489 -0.491642
v -0.191142 0.472778 -0.373589
v -0.279343 0.147675 0.584731
v -0.674233 0.299376 0.402862
v 0.068898 0.712914 -0.038205
v 0.269801 0.433307 0.340738
v 0.658170 0.198180 -0.082798
v 0.365408 0.349555 -0.751136
v 0.589539 0.497205 -0.313368
v 0.243446 0.185311 0.336926
v 0.665503 0.272066 -0.492830
v -0.600199 0.216198 -0.199896
v -0.305593 0.340378 0.584034
v -0.313249 -0.022226 0.481645
v -0.510059 0.419813 0.503891
v -0.783781 0.173488 0.234595
v -0.119780 0.629127 0.289275
v -0.359979 -0.028911 -0.432355
v 0.596437 -0.035892 -0.166411
v 0.067245 0.593594 0.374115
v 0.606644 0.427855 -0.030767
v 0.315538 0.022891 -0.778341
v -0.431952 -0.050520 0.384282
v -0.681946 -0.024986 0.094484
v 0.419695 0.597903 -0.355702
v 0.626665 0.457276 -0.162119
v 0.449487 -0.044166 -0.661311
v 0.575229 -0.077522 -0.320024
v -0.298754 0.322429 0.124353
v -0.033137 0.518929 -0.163958
v 0.404522 0.644310 -0.014835
v 0.271114 0.705735 -0.020434
v 0.427510 0.048808 0.098325
v 0.490631 0.222775 0.165311
v -0.113898 0.246594 -0.611145
v -0.637446 0.168706 0.505894
v -0.559683 0.053781 0.494861
v -0.532450 0.210512 0.574798
v -0.285208 -0.094901 0.196488
v -0.118649 -0.100808 -0.340145
v 0.707468 0.230364 -0.302630
v 0.645363 0.091160 -0.543881
v 0.542031 0.346088 -0.647606
v -0.016694 0.357975 0.502399
v -0.721448 0.097973 0.346579
v 0.699949 0.060348 -0.346350
v 0.530953 0.125803 -0.701665
vn -0.0988 0.7076 0.6996
vn -0.5245 0.8369 0.1567
vn -0.4283 0.8089 0.4029
vn -0.6484 0.7610 0.0201
vn -0.4027 0.9120 0.0777
vn -0.7568 0.6076 -0.2408
vn 0.2646 0.7196 0.6420
vn 0.5666 0.7827 0.2576
vn 0.2567 0.9610 0.1023
vn 0.8267 0.3658 0.4275
vn 0.5787 0.2618 0.7724
vn 0.0362 0.2279 0.9730
vn 0.1692 -0.3062 0.9368
vn 0.3767 0.1162 0.9190
vn 0.5103 -0.6330 0.5822
vn 0.7148 -0.1515 0.6828
vn 0.4881 -0.3485 0.8002
vn -0.5181 -0.5816 -0.6272
vn -0.9514 -0.1587 -0.2637
vn -0.9614 0.2230 0.1611
vn -0.5303 0.3621 -0.7666
vn -0.2274 0.8891 -0.3973
vn 0.0037 0.7568 -0.6536
vn -0.1128 0.4208 -0.9001
vn -0.3610 -0.0137 0.9325
vn -0.3935 -0.6468 0.6533
vn -0.6955 -0.0993 0.7116
vn -0.7736 -0.4601 0.4357
vn -0.0106 -0.9924 0.1224
vn -0.0878 -0.9818 -0.1684
vn 0.4353 -0.8995 -0.0386
vn -0.2187 -0.9270 0.3046
vn -0.4764 -0.8773 0.0574
vn 0.6130 -0.7136 0.3392
vn 0.0896 -0.7781 0.6217
vn 0.3812 0.8797 -0.2843
vn 0.7183 0.6693 -0.1902
vn 0.6120 0.4391 -0.6578
vn 0.9201 -0.3863 -0.0649
vn -0.2504 0.8992 -0.3589
vn -0.3381 0.9403 0.0397
vn 0.8599 0.4992 0.1068
vn 0.8995 -0.1254 0.4185
vn -0.0178 -0.4461 -0.8948
vn 0.3345 -0.8056 -0.4890
vn 0.9959 0.0873 0.0216
vn 0.9004 0.2522 -0.3544
vn 0.8450 -0.3039 -0.4401
vn 0.6183 -0.1259 -0.7758
vt 0.600041 0.810620
vt 0.636875 0.717211
vt 0.640429 0.892133
vt 0.705039 0.945309
vt 0.754613 0.780360
vt 0.892578 0.854359
vt 0.457630 0.821355
vt 0.531042 0.845517
vt 0.530375 0.942775
vt 0.415255 0.639737
vt 0.469590 0.659920
vt 0.325502 0.610002
vt 0.384756 0.765158
vt 0.089944 0.002985
vt 0.154049 0.009291
vt 0.088860 0.118576
vt 0.229142 0.327644
vt 0.156770 0.341118
vt 0.159534 0.227918
vt 0.071507 0.250071
vt 0.095756 0.428364
vt 0.870081 0.131546
vt 0.725542 0.184608
vt 0.877302 0.000000
vt 0.787021 0.974166
vt 0.877539 0.972382
vt 0.754450 0.317083
vt 0.880092 0.315011
vt 0.847774 0.489399
vt 0.709061 0.504506
vt 0.119639 0.925896
vt 0.135147 1.000000
vt 0.070571 0.997689
vt 0.183158 0.900735
vt 0.137686 0.880410
vt 0.169921 0.826414
vt 0.522009 0.383839
vt 0.406642 0.229396
vt 0.548531 0.033919
vt 0.545416 0.476998
vt 0.421074 0.493307
vt 0.327275 0.287437
vt 0.597113 0.072064
vt 0.596452 0.448621
vt 0.038812 0.590739
vt 0.093459 0.540559
vt 0.181855 0.628721
vt 0.181663 0.709958
vt 0.035288 0.673930
vt 0.244083 0.507842
vt 0.270663 0.429405
vt 0.308102 0.494655
vt 0.733081 0.599098
vt 0.851383 0.504506
vt 0.817548 0.634821
vt 0.885332 0.663488
vt 0.535225 0.685159
vt 0.452005 0.522569
vt 0.531003 0.528066
vt 0.350111 0.571439
vt 0.391658 0.538254
vt 0.022711 0.146511
vt 0.021018 0.024673
vt 0.233390 0.020207
vt 0.182678 0.432913
vt 0.606837 0.434505
vt 0.000000 0.997429
vt 0.042677 0.912108
vt 0.092434 0.839765
vt 0.155544 0.773598
vt 0.227435 0.709958
vt 0.237992 0.786625
vt 0.249708 0.921657
vt 0.218540 0.988666
vt 0.361443 0.018136
vt 0.425830 0.000503
vt 0.351050 0.522569
vt 0.189801 0.505690
vt 0.095955 0.481945
vt 0.192186 0.567764
vt 0.251941 0.572304
vt 0.324152 0.632857
vt 0.255909 0.636704
vt 0.314752 0.705595
s 1
usemtl stone_1
f 1/1/1 19/2/2 17/3/3
f 6/4/4 31/5/5 14/6/6
f 22/7/7 19/8/2 1/9/1
f 33/10/8 34/11/9 22/7/7
f 23/12/10 33/10/8 8/13/11
f 15/14/12 5/15/13 46/16/14
f 35/17/15 36/18/16 12/19/17
f 8/20/11 36/18/16 23/21/10
f 12/19/17 36/18/16 8/20/11
f 14/22/6 20/23/18 2/24/19
f 18/25/20 6/4/4 14/6/6 2/26/19
f 37/27/21 4/28/22 3/29/23 10/30/24
f 40/31/25 5/32/13 15/33/12
f 39/34/26 38/35/27 47/36/28
f 41/37/29 42/38/30 30/39/31
f 25/40/32 26/41/33 41/37/29
f 20/42/18 42/38/30 26/41/33
f 30/39/31 21/43/34 16/44/35
f 27/45/36 11/46/37 45/47/38
f 45/47/38 10/48/24 3/49/23
f 48/50/39 21/51/34 30/52/31
f 7/53/40 3/54/23 32/55/41
f 3/54/23 4/56/22 32/55/41
f 14/6/6 31/5/5 32/55/41 4/56/22
f 31/5/5 19/2/2 7/53/40 32/55/41
f 7/57/40 19/8/2 22/7/7 34/11/9
f 8/13/11 33/10/8 22/7/7
f 34/11/9 27/58/36 3/59/23 7/57/40
f 23/12/10 28/60/42 33/10/8
f 28/60/42 11/61/37 33/10/8
f 33/10/8 11/61/37 27/58/36 34/11/9
f 46/16/14 22/62/7 1/63/1 15/14/12
f 12/19/17 8/20/11 46/16/14 5/15/13
f 12/19/17 5/15/13 16/64/35 35/17/15
f 22/62/7 46/16/14 8/20/11
f 9/65/43 36/18/16 35/17/15 21/51/34
f 16/64/35 21/51/34 35/17/15
f 6/4/4 17/3/3 19/2/2 31/5/5
f 36/18/16 9/65/43 23/21/10
f 4/28/22 37/27/21 14/22/6
f 14/22/6 37/27/21 20/23/18
f 24/66/44 20/23/18 37/27/21
f 15/33/12 1/67/1 17/68/3 40/31/25
f 40/31/25 17/68/3 6/69/4 38/35/27
f 18/70/20 2/71/19 26/72/33 47/36/28
f 47/36/28 26/72/33 25/73/32 39/34/26
f 6/69/4 18/70/20 47/36/28 38/35/27
f 40/31/25 39/34/26 16/74/35 5/32/13
f 16/74/35 39/34/26 25/73/32
f 24/75/44 29/76/45 42/38/30 20/42/18
f 39/34/26 40/31/25 38/35/27
f 16/44/35 25/40/32 41/37/29
f 41/37/29 30/39/31 16/44/35
f 2/77/19 20/42/18 26/41/33
f 41/37/29 26/41/33 42/38/30
f 9/65/43 43/78/46 28/79/42 23/21/10
f 42/38/30 29/76/45 30/39/31
f 27/45/36 45/47/38 3/49/23
f 45/47/38 11/46/37 13/80/47
f 43/78/46 13/80/47 11/46/37 28/79/42
f 48/50/39 44/81/48 13/80/47 43/78/46
f 21/51/34 48/50/39 43/78/46 9/65/43
f 30/52/31 29/82/45 44/81/48 48/50/39
f 49/83/49 24/84/44 10/48/24 45/47/38
f 44/81/48 49/83/49 45/47/38 13/80/47
f 49/83/49 44/81/48 29/82/45
f 24/84/44 49/83/49 29/82/45
f 24/66/44 37/27/21 10/30/24
