# Blender 5.0.1
# www.blender.org
mtllib tree_5.mtl
o tree_5
v -0.297292 0.000000 0.007375
v -0.213302 -0.000000 0.060828
v -0.161711 -0.000000 0.080939
v -0.159248 0.000000 0.179505
v -0.072884 -0.000000 0.272138
v -0.049376 0.000000 0.308142
v 0.005220 0.000000 0.333951
v 0.084279 0.000000 0.314203
v 0.136075 0.000000 0.273544
v 0.190512 0.000000 0.184902
v 0.193303 -0.000000 0.132612
v 0.280888 0.000000 0.094229
v 0.310267 0.000000 0.049711
v 0.330131 0.000000 -0.011180
v 0.275617 0.000000 -0.064241
v 0.256218 0.000000 -0.094868
v 0.145737 -0.000000 -0.207783
v 0.110035 0.000000 -0.233607
v 0.094044 0.000000 -0.265824
v 0.050495 -0.000000 -0.315097
v -0.015946 0.000000 -0.329403
v -0.048336 0.000000 -0.308834
v -0.098428 0.000000 -0.287556
v -0.142752 -0.000000 -0.281434
v -0.239995 0.000000 -0.224455
v 0.004215 0.017645 0.291703
v 0.122958 0.023441 0.234923
v 0.255927 0.017771 0.084413
v 0.278330 0.027169 -0.009299
v 0.169765 0.023043 -0.183287
v 0.044484 0.035992 -0.256873
v -0.092315 0.012942 -0.267382
v -0.266224 0.038470 0.013470
v -0.183655 0.047377 0.075308
v -0.155975 0.045384 0.110194
v -0.147322 0.084750 0.164343
v 0.173890 0.081807 0.141492
v 0.210965 0.054237 -0.112297
v -0.007361 0.053705 -0.256235
v -0.178542 0.069127 -0.166263
v -0.015568 0.095615 0.240637
v 0.207282 0.122542 0.078301
v 0.146379 0.101125 -0.175941
v 0.098364 0.143618 0.198058
v 0.213549 0.182148 -0.015363
v -0.106532 0.178198 -0.187653
v -0.195020 0.184487 -0.089015
v -0.213583 0.178234 0.011248
v -0.159636 0.282431 0.122126
v -0.102114 0.187088 0.186106
v 0.012013 0.206707 0.212009
v -0.002618 0.259696 -0.201393
v 0.136132 0.551687 0.117124
v 0.180910 0.312042 -0.089378
v 0.106183 0.296131 -0.171260
v -0.085705 1.128706 0.117673
v 0.015570 0.966687 0.131873
v 0.144617 0.798620 -0.009008
v -0.088774 0.544297 -0.173451
v -0.171097 0.637553 -0.099527
v 0.074177 1.140553 -0.117446
v 0.003208 1.045569 -0.178452
v -0.205818 1.048200 -0.017742
v -0.172075 1.194607 0.060725
v -0.100920 1.168747 -0.187318
v 0.018135 1.342627 0.065662
v 0.069037 1.460609 -0.026908
v -0.175714 1.450245 -0.149773
v -0.145918 2.179338 -0.023308
v -0.064292 2.274980 -0.010763
v 0.014317 2.092449 -0.030405
v 0.049266 1.979274 -0.103919
v 0.009708 1.936893 -0.181990
v -0.078635 2.236709 -0.221798
v -0.194510 1.803010 -0.072607
v -0.171181 2.452489 -0.197648
v -0.188723 2.044850 -0.096382
v -0.026133 2.524919 -0.084830
v -0.025965 2.491812 -0.170149
v -0.163656 2.702492 -0.035126
v -0.216196 2.510790 -0.113775
v -0.208477 2.939148 -0.117737
v -0.084558 3.080890 -0.063523
v -0.046864 3.130991 -0.140110
v -0.085581 2.964002 -0.197650
v -0.168658 2.929523 -0.191962
v -0.209630 3.201470 -0.140167
v -0.164187 3.292392 -0.080188
v -0.109107 3.556766 -0.215133
v -0.176838 3.409974 -0.208914
v -0.208298 3.433191 -0.142592
v -0.101728 3.537125 -0.091084
v -0.180414 3.639741 -0.094949
v -0.084658 3.676910 -0.162517
v -0.207718 4.057975 -0.186930
v -0.126898 4.516932 -0.184136
v -0.176734 4.469271 -0.176107
v -0.130261 4.514615 -0.270026
v -0.177189 4.275810 -0.249000
v -0.202255 4.275670 -0.199180
v -0.110822 4.707567 -0.241408
v -0.186914 4.693814 -0.274294
v -0.204896 4.479750 -0.222047
v -0.145945 5.104306 -0.222280
v -0.093302 5.263238 -0.236831
v -0.106547 5.121839 -0.295839
v -0.150236 5.271029 -0.269737
v -0.139069 5.458788 -0.279679
v -0.065883 5.646449 -0.277094
v -0.151002 5.000000 -0.214696
v -0.091652 5.000000 -0.258052
v -0.105152 5.000000 -0.218244
v -0.160356 5.000000 -0.289648
v -0.079137 1.358630 -0.038420
v -0.011289 1.366257 -0.037215
v 0.012163 1.336862 -0.094588
v -0.053141 1.311090 -0.129277
v -0.098794 1.324500 -0.096599
v -0.124615 1.659572 -0.411497
v -0.108750 1.618049 -0.280897
v -0.043041 1.964534 -0.666192
v -0.084478 2.034511 -0.709709
v -0.055273 2.016807 -0.778351
v -0.119780 1.938250 -0.679182
v -0.078641 2.128979 -0.880466
v 0.016957 2.407087 -1.173561
v 0.029902 2.375383 -1.194530
v -0.000592 2.419450 -1.241401
v 0.135776 2.657512 -1.576786
v 0.178849 2.704022 -1.616097
v 0.167013 2.645979 -1.570516
v -0.138023 2.452192 -0.105785
v -0.112832 2.461528 -0.161059
v -0.055085 2.440001 -0.157396
v -0.050890 2.416791 -0.090983
v -0.096257 2.424836 -0.066984
v 0.120861 2.745874 0.079971
v 0.025214 2.700289 0.015243
v 0.334218 3.039871 0.116170
v 0.347433 3.104019 0.167173
v 0.415608 3.093966 0.170699
v 0.316472 3.014277 0.183225
v 0.479825 3.200654 0.230485
v 0.731737 3.473741 0.270458
v 0.756210 3.447247 0.268180
v 0.778471 3.488812 0.311567
v 1.083650 3.730448 0.335191
v 1.128646 3.776483 0.316143
v 1.091824 3.720865 0.307418
v -0.167202 4.466685 -0.193290
v -0.178565 4.473220 -0.234264
v -0.145950 4.458151 -0.258283
v -0.113818 4.441904 -0.224558
v -0.127348 4.447536 -0.191276
v 0.055201 4.672262 -0.210167
v -0.025213 4.640353 -0.201840
v 0.185897 4.878060 -0.286757
v 0.215933 4.922964 -0.265353
v 0.254076 4.915927 -0.294138
v 0.206552 4.860145 -0.242815
v 0.315412 4.990608 -0.290973
v 0.468482 5.181769 -0.382886
v 0.480579 5.163223 -0.395120
v 0.512039 5.192319 -0.381870
v 0.686314 5.361464 -0.506518
v 0.701872 5.393688 -0.536978
v 0.678201 5.354756 -0.525089
v -0.124371 3.347420 -0.180487
v -0.082043 3.355902 -0.145071
v -0.099200 3.336344 -0.095377
v -0.158383 3.315256 -0.107745
v -0.168443 3.322565 -0.153278
v -0.349602 3.614249 0.001391
v -0.269805 3.572832 -0.066748
v -0.432845 3.881363 0.179519
v -0.480709 3.939647 0.178774
v -0.500265 3.930513 0.237634
v -0.487289 3.858110 0.147778
v -0.568141 4.027445 0.279438
v -0.664003 4.275563 0.490423
v -0.667919 4.251491 0.512408
v -0.711298 4.289256 0.521426
v -0.805706 4.508797 0.783014
v -0.799892 4.550622 0.827026
v -0.783355 4.500091 0.796883
v -0.105484 2.726372 -0.119225
v -0.104745 2.735059 -0.175735
v -0.154794 2.715030 -0.195571
v -0.184681 2.693435 -0.141349
v -0.156028 2.700920 -0.103149
v -0.397056 2.999612 -0.065653
v -0.290880 2.957200 -0.082163
v -0.590963 3.273145 -0.119866
v -0.622325 3.332828 -0.082191
v -0.681094 3.323475 -0.106280
v -0.602641 3.249333 -0.056396
v -0.758860 3.422736 -0.081456
v -0.986709 3.676815 -0.147794
v -1.006398 3.652165 -0.159423
v -1.042350 3.690837 -0.131747
v -1.308534 3.915653 -0.232983
v -1.338840 3.958484 -0.266869
v -1.304391 3.906738 -0.259598
v -0.034453 1.672372 -0.055779
v -0.101207 1.679999 -0.067972
v -0.133653 1.650604 -0.015162
v -0.074840 1.624832 0.029659
v -0.024491 1.638242 0.004818
v -0.050087 1.973314 0.319735
v -0.044559 1.931791 0.188291
v -0.171890 2.278276 0.557827
v -0.138060 2.348253 0.607489
v -0.178011 2.330549 0.670485
v -0.098274 2.251992 0.583092
v -0.171514 2.442721 0.775038
v -0.313385 2.720829 1.048748
v -0.329559 2.689125 1.067339
v -0.307070 2.733191 1.118536
v -0.496030 2.971254 1.427362
v -0.544908 3.017764 1.459166
v -0.525836 2.959721 1.416108
v -0.067831 5.363398 -0.278734
v -0.104421 5.644878 -0.321987
v -0.110059 5.647571 -0.262362
v -0.127901 5.646548 -0.289621
v -0.168958 5.000000 -0.253402
v -0.111305 5.000000 -0.290660
v 0.031969 5.000000 -0.260526
v 0.105070 5.000000 -0.252885
v 0.068360 5.000000 -0.232410
v 0.075296 5.000000 -0.322398
v 0.044607 5.000000 -0.301280
v 0.112360 5.000000 -0.290253
v 0.221098 1.665226 -0.282671
v 0.760874 1.484278 0.592462
v 0.954432 2.380445 -0.484265
v 1.000286 2.499656 0.551903
v 0.632598 2.230940 -0.731781
v -0.250752 1.997286 -0.226704
v 0.610905 3.117774 -0.181273
v -0.427547 3.026177 -0.238125
v 0.590099 2.192416 -0.702032
v -0.041220 2.556051 0.045775
v 1.083077 3.108198 -0.610809
v 0.141512 3.493401 -0.376115
v 0.162519 1.500315 -0.216654
v 0.324328 0.838782 0.574702
v 0.921187 0.970909 -0.700601
v 1.318387 0.836129 0.255495
v 0.091323 1.375894 -0.120601
v 0.307137 0.551268 0.482250
v 1.075104 1.278742 -0.456383
v 1.278502 0.933134 0.507566
v 0.229056 1.648544 -0.281909
v 0.703928 1.477912 0.632075
v 0.532523 2.639537 -0.156101
v 0.417195 2.454420 0.864887
v 0.368247 1.901577 -0.474608
v 0.909893 1.116182 -0.050661
v 1.296981 2.363468 -0.593213
v 1.562128 1.860295 0.282270
v 0.180369 1.699511 -0.337971
v -0.274294 2.463285 0.209700
v 0.429741 2.452538 -1.016776
v -0.466924 2.897452 -0.720034
v 0.028813 1.401907 -0.076522
v -0.441084 1.066173 0.793236
v 0.164368 2.295956 0.445301
v -0.739002 2.059684 0.912309
v 0.113362 1.596483 -0.290341
v -0.763903 1.039423 -0.190167
v -0.509939 2.430422 -0.212977
v -1.222696 1.833887 -0.688442
v 0.261028 1.821524 -0.437343
v -0.655933 2.077625 -0.008888
v 0.503216 2.829213 -0.311299
v -0.513936 3.004064 -0.468808
v 0.420473 2.025957 -0.602396
v -0.025113 1.869852 0.328793
v 0.102298 3.014226 -0.492320
v -0.703445 2.605470 0.030868
v 0.534073 2.099845 -0.679381
v -0.156933 1.604087 -1.284951
v 1.150870 2.087406 -1.521632
v 0.679671 1.183310 -1.746494
v 0.165969 1.694722 -0.336514
v -0.339494 1.164807 0.407612
v -0.566476 2.424795 -0.193185
v -1.197959 1.624054 0.030575
v 0.501211 2.075874 -0.665462
v -0.514616 2.064473 -0.906307
v 0.657530 2.056481 -1.697560
v -0.223577 1.497543 -1.733305
v 0.228992 1.722952 -0.431058
v -0.560535 1.154472 -0.809881
v -0.300540 2.544549 -0.797943
v -0.624550 1.892170 -1.545906
v 0.313968 1.757803 -0.439994
v 0.466279 0.729604 -0.341933
v 1.175169 1.741576 -1.029975
v 1.482134 0.961329 -0.407886
v 0.236653 1.724848 -0.429014
v -0.791392 1.884159 -0.517100
v 0.308047 2.254638 -1.325809
v -0.622985 1.836853 -1.546380
v 0.352388 3.460947 0.726728
v 0.956331 3.705343 -0.089061
v 1.017517 4.042440 1.283018
v 1.738212 3.714119 0.602729
v 0.151512 3.111378 0.364107
v 0.216706 2.069607 0.385457
v 1.122252 3.093603 0.747955
v 0.826286 2.211272 1.221123
v 0.231223 3.175756 0.437709
v -0.698713 2.916735 0.040032
v -0.246553 3.120857 1.364389
v -1.094901 3.444507 0.849050
v 0.167529 3.023838 0.300573
v -0.075652 2.020042 0.148016
v 0.387681 2.732204 1.278582
v -0.373786 2.029870 1.148535
v 0.174525 3.024327 0.335523
v -0.382307 2.334235 -0.215611
v -0.745998 3.325067 0.725691
v -1.130099 3.062797 -0.209038
v 0.049201 2.540480 -0.119561
v 0.140147 1.509829 0.020070
v -0.094549 2.580463 0.913758
v -0.539905 1.642940 0.800980
v 0.056954 2.662156 -0.012821
v 0.204957 1.639634 -0.162914
v 0.359405 2.473868 0.968533
v -0.085911 1.539109 0.834721
v 0.033629 2.524908 -0.136556
v -0.382578 1.568224 -0.097270
v 0.185292 2.406991 0.889656
v -0.687401 1.834435 0.865139
v -0.009500 2.579161 -0.061202
v 0.776110 2.246969 -0.663219
v 0.681301 3.267961 0.310697
v 1.389729 2.521343 0.135623
v 0.120450 3.029707 0.306651
v 0.491304 2.288433 -0.328127
v 1.086410 3.052965 0.702054
v 1.111813 2.034870 0.472272
v 0.130101 3.052407 0.377172
v 0.035961 3.348339 -0.619604
v 0.221941 4.072224 0.580979
v 0.675699 4.130656 -0.357471
v 0.367770 3.474750 0.738700
v 0.449404 3.467100 -0.302107
v 0.748145 4.444931 0.674932
v 1.272993 4.091799 -0.155631
v 0.529758 3.639605 0.877622
v -0.347548 3.096430 0.718714
v 0.261048 3.612889 1.886105
v -0.722140 3.628239 1.535302
v 0.189404 3.127216 0.433304
v -0.098620 2.920483 -0.548693
v -0.226215 4.070067 0.265063
v 0.081564 3.933932 -0.723244
v 0.034910 2.715825 0.115523
v 0.198499 3.743708 0.033694
v 1.069070 2.629686 0.001091
v 0.986559 3.480403 -0.598471
v 0.106315 2.813301 0.195894
v -0.863865 2.985008 -0.149433
v 0.031243 3.764681 0.619242
v -0.575475 3.987096 -0.200763
v 0.450842 5.012380 -0.029541
v 0.313379 4.240881 0.660339
v 1.146648 5.383555 0.654654
v 0.525417 4.965020 1.381937
v 0.285786 4.801471 -0.120095
v 0.169269 4.147347 0.685226
v 0.183850 5.558388 0.591720
v -0.446044 4.889015 1.086864
v 0.612392 5.153854 0.026067
v -0.412540 4.976255 0.115302
v 0.376763 6.137294 0.285516
v -0.523933 5.961292 -0.212240
v 0.118966 4.606852 -0.213595
v -0.145273 3.680922 -0.617168
v 0.528388 4.051332 0.569865
v -0.240848 3.372635 0.375739
v 0.172461 4.682962 -0.129246
v -0.299917 3.878844 -0.598546
v 0.375685 5.016690 -1.097397
v 0.419855 4.003287 -1.344491
v 0.330016 4.900169 -0.067642
v 0.331091 3.869439 0.098420
v 1.359464 4.840217 0.095531
v 1.122884 4.062698 0.750876
v 0.698096 5.238030 0.061085
v 1.318727 5.782660 -0.577811
v 0.135095 5.039961 -0.795531
v 0.445366 5.984952 -1.112893
v 0.137265 4.579093 -0.172947
v -0.747490 4.408365 -0.700241
v 0.176327 5.479123 -0.700581
v -0.292305 4.949302 -1.468469
v -0.727408 4.179165 -0.114087
v -0.403995 3.244743 0.220965
v -1.655060 3.901824 0.276483
v -1.377797 2.929979 0.014483
v -0.608186 4.064001 -0.144913
v -0.883634 3.160567 0.300010
v -1.053096 4.510038 0.687630
v -1.702010 3.692328 0.670837
v -0.177304 3.582211 -0.157091
v -0.309392 2.562683 0.024965
v -1.165626 3.561993 -0.493006
v -0.950795 2.587021 -0.798465
v -0.626296 4.036800 -0.126501
v -0.162698 3.567600 -0.935766
v -0.633372 4.885831 -0.734020
v 0.254899 4.504812 -1.128712
v -0.302164 3.730603 -0.190203
v -0.087064 2.729111 -0.391987
v -1.292981 3.411656 -0.109422
v -1.033413 2.704413 -0.832197
v -0.118139 3.521854 -0.227733
v 0.179571 2.792306 0.457200
v -0.878714 3.730412 0.456399
v -0.836814 2.711889 0.681924
v -0.646920 4.058941 -0.148116
v 0.114536 4.711794 -0.437916
v -1.106627 4.908669 0.247671
v -0.134605 5.246815 0.423302
v -0.891349 4.299398 -0.042701
v -0.507848 4.251314 -1.012560
v -1.387309 5.156261 -0.374094
v -0.555993 5.294005 -0.990496
v -1.011163 4.413436 -0.013965
v -0.043952 4.150525 -0.306072
v -0.564184 4.726727 0.875982
v 0.114863 3.952051 0.706514
v -0.366341 3.743158 -0.221581
v 0.298636 4.343124 0.314893
v -0.325065 3.107671 0.605711
v 0.657917 3.444583 0.706683
v -0.363793 3.724501 -0.186218
v 0.300956 4.158742 -0.864092
v -0.907937 4.609965 -0.285369
v 0.021729 5.063969 -0.425267
v -0.640616 3.667757 -0.767979
v 0.266429 3.739337 -0.255984
v -0.341253 4.546636 -1.245418
v 0.135581 4.771365 -0.344241
v -0.450899 3.400174 -0.542319
v 0.310984 3.607471 0.140727
v -0.313096 4.384161 -0.862895
v -0.063995 4.581789 0.131531
v -0.162946 2.960147 -0.354418
v -0.383864 2.052701 -0.821043
v -0.441251 3.395276 -1.261728
v -0.064130 2.523992 -1.696062
v -0.206213 2.974279 -0.364291
v -0.734557 2.133030 -0.685520
v -0.998861 3.519813 -0.769430
v -1.063297 2.744301 -1.465465
v -0.048730 2.833450 -0.277146
v 0.888851 2.397899 -0.131441
v 0.371715 3.243050 -1.140539
v 1.263007 3.254219 -0.596970
v -0.048099 2.808093 -0.204764
v 0.765145 3.046097 0.405141
v -0.333863 3.802358 -0.064157
v 0.107590 3.705624 0.876989
v -0.092352 2.878769 -0.246386
v 0.868368 2.492632 -0.380338
v 0.389535 3.792837 -0.097077
v 1.163139 3.220410 0.307760
v -0.028412 2.718130 -0.173570
v -0.203091 2.071176 0.627017
v -0.198381 3.481205 0.518403
v -0.858749 2.808808 0.967623
v -0.348851 3.222562 -0.418540
v 0.539967 3.288440 0.125220
v -0.221795 4.245440 -0.584633
v 0.223683 4.255431 0.359540
v -0.486850 3.407422 -0.600502
v 0.212654 2.645880 -0.456407
v -0.895659 2.776633 -1.325069
v 0.086287 2.455239 -1.475085
v -0.361173 3.265252 -0.443313
v 0.443708 3.320681 0.219324
v -0.544594 4.255348 -0.167520
v -0.160336 3.976618 0.762346
v -0.724716 3.762254 -0.879588
v -1.564802 4.197088 -1.321387
v -1.407732 3.300337 -0.239173
v -1.977650 4.166296 -0.362941
v -0.309716 3.117106 -0.424861
v -0.867785 2.283178 -0.713221
v -0.878208 3.634035 -1.131705
v -0.888915 2.731242 -1.655993
v -0.220011 2.962926 -0.323710
v -0.680466 2.098223 0.037180
v -0.879531 3.472470 0.305074
v -1.539114 2.688137 0.105715
v -0.538220 2.372239 0.373199
v 0.219100 2.479906 -0.337333
v -0.815370 3.340405 0.097841
v 0.203418 3.490129 -0.074305
v -0.564395 2.393143 0.382922
v 0.073594 3.174810 0.114647
v -1.259701 3.145221 0.585238
v -0.429966 3.722142 0.847353
v -0.142918 1.732372 -0.048058
v -0.069370 0.871316 -0.633829
v -1.046680 1.889721 -0.546465
v -0.581402 1.423841 -1.356667
v -0.280967 1.916908 0.126782
v -0.332664 1.088534 0.760154
v -0.839216 2.405027 0.861721
v -1.264624 1.468092 1.038403
v -0.232213 1.857564 0.061065
v -0.886804 1.047164 -0.007637
v -1.096598 2.442442 0.087800
v -1.510066 1.705539 -0.525368
v -0.192428 1.839759 0.009907
v -0.507096 1.064994 -0.615153
v -1.132619 2.254404 -0.174719
v -1.051347 1.803853 -1.113002
v -0.262475 2.003297 0.127806
v 0.324257 1.805726 -0.712862
v -0.518881 2.886800 -0.365845
v 0.444713 2.841472 -0.765150
v -0.262639 2.014948 0.142250
v -0.295557 2.195493 -0.885527
v 0.014362 3.018393 0.222080
v 0.475936 2.874906 -0.703319
v -0.076348 1.728172 0.036996
v 0.473166 1.054378 0.614952
v 0.100629 2.404243 0.812628
v 0.074904 1.565389 1.433642
v -0.470445 2.274837 0.355498
v 0.528336 2.435362 0.613603
v -0.625532 3.248532 0.698740
v 0.144776 3.041364 1.372279
v -0.440699 2.260736 0.313133
v 0.036074 1.668369 -0.402234
v -0.126286 3.067044 -0.270797
v 0.698979 2.469236 -0.497788
v -0.670037 2.426693 0.436147
v -0.212478 1.525728 0.698624
v -1.549650 1.979394 0.777024
v -1.124174 1.087391 0.440429
v -0.486560 2.287563 0.312088
v 0.258380 2.185228 -0.412208
v -0.947175 2.923697 -0.375794
v 0.024465 3.170129 -0.667686
v -0.359179 2.045496 0.223857
v 0.143235 1.139426 0.094965
v -0.300902 1.833299 1.244431
v -0.368118 0.833272 0.952160
v -0.304910 1.977244 0.187501
v 0.129058 1.029901 0.252391
v -0.770982 1.730456 1.088540
v -0.758005 0.751066 0.727121
v -0.038609 1.645865 -0.009433
v 0.274255 0.755816 0.437671
v 0.089879 2.065725 0.937763
v -0.188710 1.125926 1.297120
v 0.123549 5.202065 -0.262211
v 1.041115 4.736607 -0.439429
v 0.666103 6.093178 -0.301404
v 1.450514 5.532186 0.098558
v 0.118399 5.592793 -0.254064
v -0.140906 6.098295 0.621861
v 0.430725 6.527635 -0.598358
v -0.341524 6.907133 -0.007066
v 0.101125 5.596362 -0.301859
v -0.808116 5.307435 -0.725846
v -0.419580 6.438818 0.028438
v -0.977594 6.330421 -0.847252
v 0.099030 5.392531 -0.308381
v -0.020008 4.536018 -0.893406
v -0.508819 5.857160 -1.018789
v -0.069377 5.198241 -1.699050
v 0.132847 5.438660 -0.274082
v 1.168899 5.344990 -0.185661
v 0.298731 6.457876 -0.120207
v 1.098284 6.149417 0.476084
v 0.134681 5.364925 -0.251630
v 0.827787 4.633431 -0.524601
v 0.965856 5.910681 0.066633
v 1.383818 4.979989 0.288247
v 0.069957 5.101349 -0.239791
v -0.237845 4.179334 0.141165
v 0.292788 5.339161 0.752062
v -0.513124 4.719916 0.990855
vn -0.1232 0.3735 0.9194
vn -0.7961 0.1429 0.5880
vn -0.4387 0.5794 0.6869
vn 0.4693 -0.0446 -0.8819
vn -0.5305 -0.0519 -0.8461
vn -0.6782 0.0106 -0.7348
vn 0.4433 0.8928 -0.0802
vn 0.5520 0.7363 -0.3914
vn 0.7150 0.6903 -0.1109
vn 0.8423 0.3100 0.4409
vn 0.7364 0.3178 0.5973
vn 0.8115 0.4260 0.3999
vn -0.9998 0.0175 -0.0020
vn -0.9998 0.0110 0.0135
vn -0.5520 -0.0297 -0.8333
vn -0.8222 0.4347 0.3675
vn -0.9891 0.1044 0.1038
vn -0.8649 0.1451 -0.4806
vn -0.6313 0.5558 -0.5409
vn 0.7763 0.4007 -0.4866
vn -0.0377 0.7952 0.6051
vn 0.4591 0.6668 0.5871
vn 0.5261 0.2493 0.8131
vn 0.6004 0.1977 -0.7749
vn 0.6733 0.1941 -0.7134
vn 0.5348 0.4239 -0.7309
vn 0.1699 0.9202 0.3527
vn -0.0431 0.9459 0.3217
vn 0.9787 0.2045 -0.0183
vn 0.7956 0.3057 -0.5230
vn -0.2043 0.8108 -0.5486
vn -0.4632 0.7903 -0.4011
vn -0.2793 0.7117 -0.6446
vn -0.7739 -0.0249 -0.6329
vn -0.6037 -0.0122 -0.7971
vn 0.1825 0.0175 -0.9831
vn -0.2674 -0.0392 -0.9628
vn -0.4718 0.0346 0.8810
vn 0.4883 0.0803 0.8690
vn 0.5295 0.0768 0.8448
vn -0.5140 0.0690 0.8550
vn 0.3106 0.5864 -0.7481
vn 0.5938 0.2301 -0.7711
vn 0.8392 0.2535 0.4811
vn 0.6059 0.6266 0.4901
vn -0.9964 -0.0099 0.0847
vn -0.9994 -0.0012 0.0348
vn -0.7193 -0.0262 0.6942
vn -0.9149 -0.2153 0.3414
vn -0.9999 0.0154 0.0063
vn -0.4745 0.0972 0.8749
vn -0.4614 0.0857 0.8831
vn -0.9810 0.0760 0.1787
vn -0.5161 0.0923 0.8515
vn -0.5120 0.0930 0.8539
vn -0.9972 0.0737 0.0094
vn -0.9974 0.0716 0.0054
vn 0.0843 0.1321 -0.9876
vn 0.6101 0.1269 -0.7821
vn -0.7876 0.0443 0.6146
vn -0.4466 0.1248 0.8860
vn 0.9988 0.0309 -0.0380
vn 0.9953 -0.0470 -0.0842
vn 0.5879 0.0732 0.8056
vn 0.4329 0.8283 0.3557
vn 0.5387 -0.0650 -0.8400
vn 0.9941 -0.0531 -0.0946
vn 0.4529 -0.0715 -0.8887
vn 0.4551 -0.0698 -0.8877
vn 0.9866 -0.0253 -0.1615
vn 0.9948 -0.0597 -0.0826
vn 0.9668 0.0710 0.2453
vn 0.9128 0.0694 -0.4024
vn 0.9860 0.0786 -0.1470
vn 0.6062 0.0276 0.7948
vn 0.7389 0.6496 0.1790
vn -0.3069 0.6286 0.7146
vn 0.9741 0.1106 -0.1974
vn 0.7684 0.1268 0.6272
vn 0.9447 0.0782 0.3184
vn 0.9156 0.0755 -0.3950
vn 0.9967 0.0566 -0.0578
vn -0.2248 0.1165 0.9674
vn -0.7359 0.0697 0.6735
vn 0.3490 0.0165 -0.9370
vn 0.4587 -0.0171 -0.8884
vn 0.1596 0.0097 -0.9871
vn -0.4194 0.0275 -0.9074
vn -0.7731 0.0009 -0.6343
vn 0.6788 0.0162 0.7342
vn 0.5562 0.0260 0.8306
vn 0.9036 0.1217 -0.4108
vn -0.9972 0.0738 0.0136
vn -0.7918 0.6099 0.0331
vn -0.1334 0.5726 -0.8089
vn -0.5702 0.0017 -0.8215
vn -0.5033 0.0383 0.8632
vn -0.9982 0.0161 0.0570
vn -0.9993 -0.0097 0.0365
vn 0.0792 0.1345 0.9877
vn 0.5364 0.0080 -0.8439
vn -0.9972 0.0066 0.0751
vn -0.7882 -0.0681 0.6117
vn 0.3192 0.1362 0.9379
vn -0.6419 0.0122 -0.7667
vn -0.1883 0.5346 -0.8239
vn -0.4672 0.2206 -0.8562
vn -0.8977 0.1895 0.3978
vn -0.5093 0.1279 0.8511
vn 0.2399 0.1088 0.9647
vn -0.6208 0.0467 0.7826
vn 0.5491 0.1310 0.8254
vn -0.1383 0.8521 -0.5047
vn -0.7598 0.6120 0.2194
vn -0.0564 0.8194 -0.5704
vn -0.3002 0.7860 -0.5404
vn 0.7720 0.1339 0.6214
vn -0.5531 -0.0051 -0.8331
vn -0.9944 0.0222 0.1031
vn 0.4250 0.8752 0.2312
vn -0.9869 -0.0071 0.1613
vn -0.2216 0.9341 0.2800
vn 0.3060 0.8130 -0.4953
vn 0.5023 0.7829 -0.3670
vn 0.3590 0.7840 0.5065
vn 0.0333 0.7759 0.6300
vn -0.9346 -0.0168 -0.3552
vn -0.9408 -0.1172 -0.3180
vn -0.2313 0.7537 0.6152
vn -0.8551 0.0495 -0.5161
vn 0.3049 0.5582 -0.7717
vn 0.7496 -0.5885 -0.3030
vn 0.9683 0.1904 0.1618
vn 0.7638 -0.5898 -0.2621
vn 0.2044 -0.6574 -0.7253
vn 0.2668 -0.7321 -0.6267
vn 0.9943 -0.0262 -0.1037
vn 0.5476 0.6131 0.5695
vn -0.5847 0.5515 0.5949
vn -0.5277 0.5751 0.6251
vn -0.9315 -0.2384 -0.2747
vn -0.9265 -0.2917 -0.2376
vn -0.9376 -0.2066 -0.2796
vn -0.6165 0.7264 -0.3038
vn -0.7173 0.6942 -0.0598
vn -0.1176 -0.1323 0.9842
vn -0.0903 -0.0292 0.9955
vn 0.0827 0.0526 0.9952
vn 0.6508 -0.5314 -0.5422
vn 0.7754 0.6278 0.0685
vn 0.2630 0.2183 -0.9398
vn 0.6205 -0.5353 -0.5730
vn 0.7957 -0.5909 0.1328
vn 0.5307 0.0238 -0.8472
vn 0.7413 -0.6703 0.0331
vn -0.3229 0.5905 -0.7396
vn -0.8365 0.4794 0.2655
vn -0.8406 0.5030 0.2012
vn -0.1681 -0.3116 0.9352
vn -0.1417 -0.2559 0.9563
vn -0.1427 -0.2241 0.9641
vn -0.6676 0.7263 0.1636
vn -0.5879 0.6942 0.4152
vn 0.5426 -0.1323 0.8295
vn 0.5707 -0.0292 0.8206
vn 0.7030 0.0526 0.7092
vn 0.1500 -0.5314 -0.8337
vn 0.6380 0.6278 -0.4460
vn -0.4026 0.2183 -0.8890
vn 0.1070 -0.5353 -0.8378
vn 0.6949 -0.5909 -0.4097
vn -0.1380 0.0238 -0.9901
vn 0.5892 -0.6703 -0.4511
vn -0.7228 0.5905 -0.3590
vn -0.4701 0.4794 0.7411
vn -0.5146 0.5030 0.6944
vn 0.4724 -0.3116 0.8245
vn 0.5061 -0.2559 0.8236
vn 0.5103 -0.2241 0.8303
vn 0.4568 0.7264 -0.5136
vn 0.2484 0.6942 -0.6756
vn -0.9175 -0.1323 -0.3750
vn -0.9356 -0.0292 -0.3517
vn -0.9814 0.0526 -0.1849
vn 0.3497 -0.5314 0.7715
vn -0.2721 0.6278 0.7293
vn 0.8360 0.2182 0.5034
vn 0.3874 -0.5353 0.7506
vn -0.3396 -0.5909 0.7317
vn 0.6756 0.0238 0.7369
vn -0.2290 -0.6703 0.7058
vn 0.7989 0.5905 -0.1146
vn -0.0336 0.4794 -0.8770
vn 0.0296 0.5030 -0.8638
vn -0.8569 -0.3116 -0.4107
vn -0.8842 -0.2559 -0.3908
vn -0.8914 -0.2241 -0.3939
vn 0.6872 0.7264 -0.0118
vn -0.3429 -0.0292 0.9389
vn -0.3135 -0.1323 0.9403
vn 0.6743 0.6942 0.2519
vn -0.4993 0.0526 0.8648
vn -0.7305 0.6278 -0.2688
vn -0.3573 -0.5314 -0.7680
vn 0.1630 0.2183 -0.9622
vn -0.3168 -0.5353 -0.7830
vn -0.7763 -0.5909 -0.2193
vn -0.6846 -0.6703 -0.2863
vn -0.1187 0.0238 -0.9927
vn 0.6075 0.5905 -0.5312
vn 0.6433 0.4794 0.5970
vn 0.6744 0.5030 0.5405
vn -0.2797 -0.2559 0.9253
vn -0.2469 -0.3116 0.9176
vn -0.2821 -0.2241 0.9328
vn 0.0693 0.7759 -0.6270
vn 0.8647 -0.0168 0.5021
vn 0.8768 -0.1172 0.4664
vn 0.3280 0.7537 -0.5695
vn 0.7601 0.0496 0.6479
vn -0.4260 0.5582 0.7120
vn -0.7888 -0.5885 0.1774
vn -0.9292 0.1904 -0.3167
vn -0.7962 -0.5898 0.1348
vn -0.3194 -0.6574 0.6826
vn -0.3649 -0.7321 0.5752
vn -0.9979 -0.0262 -0.0590
vn -0.4479 0.6131 -0.6507
vn 0.6735 0.5515 -0.4922
vn 0.6221 0.5751 -0.5312
vn 0.8746 -0.2384 0.4221
vn 0.8757 -0.2917 0.3847
vn 0.8799 -0.2066 0.4280
vn -0.0000 -1.0000 -0.0000
vn -0.8113 0.2130 0.5444
vn -0.7044 0.7080 -0.0503
vn -0.4759 -0.0915 -0.8747
vn -0.0000 0.5274 -0.8496
vn -0.7865 -0.1194 -0.6059
vn -0.1655 0.1856 -0.9686
vn 0.1963 0.7717 0.6049
vn 0.5260 0.8447 -0.0994
vn -0.2311 0.5340 0.8132
vn 0.1930 0.9359 0.2948
vn -0.8582 -0.3430 0.3819
vn -0.9529 0.2986 -0.0535
vn -0.5311 0.0885 0.8426
vn -0.3173 0.7775 0.5430
vn -0.8726 -0.4863 -0.0463
vn -0.4837 -0.4922 -0.7237
vn -0.8323 -0.1870 -0.5218
vn -0.4979 0.4922 -0.7140
vn 0.1823 -0.4447 -0.8769
vn 0.3225 0.3236 -0.8895
vn -0.4739 -0.3322 -0.8155
vn 0.1664 0.0829 -0.9826
vn -0.5878 -0.7037 -0.3992
vn -0.5174 -0.0716 -0.8527
vn -0.0239 -0.7600 0.6495
vn 0.6984 -0.4930 0.5188
vn -0.1307 -0.7635 -0.6325
vn -0.2560 -0.0676 -0.9643
vn -0.1170 -0.8379 0.5332
vn 0.5304 -0.8423 0.0962
vn 0.6424 -0.5126 -0.5697
vn 0.7860 0.2552 -0.5631
vn 0.0415 0.1010 0.9940
vn 0.4331 0.6599 0.6140
vn -0.1548 -0.9877 0.0201
vn 0.4525 -0.7831 -0.4266
vn 0.1622 -0.9718 -0.1710
vn 0.1960 -0.7856 0.5868
vn -0.8042 -0.0382 0.5931
vn -0.3040 0.5274 0.7933
vn 0.0003 0.8376 -0.5463
vn 0.2501 0.9504 0.1852
vn -0.9232 0.2658 -0.2777
vn -0.6672 0.6592 0.3468
vn 0.3655 0.3828 -0.8485
vn 0.1646 0.9300 -0.3286
vn -0.7580 -0.1528 -0.6341
vn -0.8877 0.4386 -0.1405
vn -0.9530 -0.0957 -0.2875
vn -0.8677 0.3651 0.3375
vn -0.8572 0.3577 -0.3705
vn -0.5435 0.8210 0.1747
vn -0.0922 -0.9178 0.3861
vn -0.1446 -0.3539 0.9240
vn -0.6944 -0.6359 0.3369
vn -0.3657 -0.2136 0.9059
vn 0.7893 -0.5643 -0.2421
vn 0.8920 -0.1645 0.4211
vn 0.5975 -0.8001 0.0527
vn 0.7625 -0.2600 0.5924
vn -0.3305 0.7143 -0.6168
vn 0.0056 0.9996 0.0280
vn 0.9494 -0.2092 -0.2344
vn 0.8789 0.4258 0.2151
vn -0.6180 0.0358 -0.7853
vn -0.1372 -0.5795 -0.8034
vn 0.3105 -0.1375 -0.9406
vn 0.8049 0.2931 -0.5160
vn -0.9723 0.2260 0.0590
vn -0.5121 0.8571 0.0558
vn -0.7917 -0.4131 -0.4501
vn -0.7836 0.3663 -0.5017
vn -0.0274 -0.3182 -0.9476
vn 0.4086 0.3231 -0.8536
vn -0.9608 0.2770 -0.0065
vn -0.5888 0.4816 0.6492
vn 0.6060 -0.6353 0.4787
vn 0.9791 -0.0069 0.2032
vn -0.6486 0.1204 0.7515
vn -0.0806 0.6566 0.7499
vn -0.1493 0.8194 0.5535
vn -0.8031 0.4092 0.4332
vn 0.3833 -0.8467 -0.3691
vn 0.8936 -0.2552 -0.3692
vn 0.2747 -0.2389 -0.9314
vn -0.4163 0.1241 -0.9007
vn -0.5262 -0.2412 -0.8154
vn -0.6198 0.5042 -0.6014
vn 0.7687 -0.2076 -0.6049
vn 0.2958 0.3443 -0.8910
vn 0.7816 -0.2288 0.5804
vn 0.5216 0.4994 0.6918
vn 0.4013 0.2630 -0.8774
vn -0.2648 0.6400 -0.7213
vn -0.1002 -0.7024 -0.7046
vn -0.6848 -0.1843 -0.7051
vn 0.6603 -0.5372 0.5248
vn -0.0142 -0.4285 0.9034
vn 0.9300 0.0352 0.3660
vn 0.4442 0.5350 0.7186
vn -0.2985 -0.9444 -0.1383
vn -0.5858 -0.6261 0.5146
vn 0.6602 -0.0624 -0.7485
vn 0.3157 -0.7448 -0.5879
vn 0.7403 -0.0943 0.6656
vn 0.0726 0.1549 0.9853
vn -0.4922 0.0120 0.8704
vn -0.8279 0.4579 0.3239
vn -0.6144 -0.2293 0.7549
vn -0.9591 0.1997 0.2006
vn 0.9334 -0.3153 0.1712
vn 0.9017 0.4263 -0.0722
vn 0.7848 -0.2821 -0.5519
vn 0.6388 0.4838 -0.5982
vn 0.0718 0.4520 0.8891
vn -0.2138 0.9188 0.3318
vn -0.2669 -0.7224 0.6378
vn -0.8740 -0.3047 0.3786
vn -0.1548 -0.6449 0.7484
vn -0.4193 0.0733 0.9049
vn -0.7465 -0.4284 -0.5091
vn -0.7439 0.3504 -0.5691
vn -0.4698 -0.3500 0.8104
vn -0.8906 0.1785 0.4183
vn 0.7394 0.6392 -0.2113
vn 0.1273 0.7114 -0.6911
vn -0.3724 -0.7708 0.5168
vn -0.9183 -0.2546 0.3032
vn 0.3711 0.9091 0.1891
vn 0.4579 0.4138 0.7868
vn 0.8427 -0.4787 -0.2464
vn 0.8369 0.2674 -0.4776
vn -0.2505 -0.2562 -0.9336
vn -0.3605 0.5028 -0.7856
vn 0.6869 -0.1731 0.7059
vn 0.1155 0.3022 0.9462
vn 0.6624 -0.3060 0.6838
vn -0.0740 -0.3223 0.9437
vn 0.8710 0.3251 -0.3685
vn 0.3311 0.8876 -0.3202
vn -0.4335 -0.5301 -0.7287
vn -0.7133 0.1970 -0.6726
vn 0.4279 -0.2726 -0.8617
vn 0.3120 0.4981 -0.8090
vn 0.7802 0.1690 -0.6022
vn 0.4347 0.8259 -0.3589
vn 0.8111 -0.0650 0.5813
vn 0.3454 0.5321 0.7730
vn 0.6731 -0.7244 -0.1488
vn 0.8443 -0.2699 0.4630
vn -0.7797 -0.6260 0.0115
vn -0.9855 0.1195 0.1207
vn -0.0319 -0.7887 0.6139
vn -0.6692 -0.3396 0.6609
vn 0.5795 -0.3946 0.7130
vn 0.4899 0.3779 0.7856
vn 0.3201 -0.1115 -0.9408
vn -0.4185 0.1390 -0.8975
vn 0.6808 0.3312 0.6534
vn 0.0149 0.7390 0.6735
vn -0.7513 -0.3358 -0.5681
vn -0.9966 0.0475 0.0668
vn -0.3974 -0.2426 -0.8850
vn -0.8945 0.1443 -0.4232
vn -0.8566 -0.4381 -0.2727
vn -0.9584 0.2854 0.0035
vn -0.1007 -0.5212 0.8475
vn -0.3079 0.2281 0.9237
vn -0.9449 -0.3119 -0.0997
vn -0.6291 -0.0748 -0.7737
vn 0.4316 -0.0355 -0.9014
vn 0.6462 0.5895 -0.4847
vn 0.9918 -0.0617 -0.1115
vn 0.7219 0.6680 -0.1807
vn -0.1225 -0.6369 0.7611
vn -0.6032 -0.0222 0.7973
vn -0.4603 -0.6584 0.5956
vn -0.3840 0.0471 0.9221
vn -0.9108 0.1442 -0.3868
vn -0.6177 0.7849 -0.0494
vt 0.465023 0.087211
vt 0.255560 0.082192
vt 0.387056 -0.000091
vt 1.333330 9.614366
vt 1.666670 8.640991
vt 1.666670 10.378304
vt 0.994786 0.000000
vt 1.057557 0.000000
vt 0.996607 0.028602
vt 0.792722 0.000176
vt 0.763543 0.070689
vt 0.744170 0.001088
vt 2.000000 7.833192
vt 2.000000 8.634130
vt 1.666670 5.798510
vt 1.999574 0.052360
vt 2.000000 0.173057
vt 1.855232 0.179461
vt 1.746126 0.069382
vt 1.097992 0.000153
vt 0.488890 0.018558
vt 0.633330 0.025786
vt 0.633330 0.139266
vt 1.288890 0.000016
vt 1.241443 0.019489
vt 1.344440 0.000190
vt 0.567133 0.000000
vt 0.488890 0.000000
vt 1.003492 0.176794
vt 1.133330 0.053518
vt 1.633330 0.000000
vt 1.744440 0.000124
vt 1.590857 0.012420
vt 1.771633 1.733603
vt 1.714995 3.467062
vt 1.450654 3.057003
vt 1.581235 1.332113
vt 0.333330 5.443702
vt 0.666670 4.887525
vt 0.666670 6.138253
vt 0.333330 6.447740
vt 1.433330 0.037831
vt 1.247932 0.098662
vt 0.875124 0.119371
vt 0.881488 0.019400
vt 0.000000 5.837546
vt 0.000000 5.204510
vt 0.111528 0.052136
vt 0.179215 0.047463
vt 0.000000 9.446940
vt 0.000000 8.634130
vt 0.333330 9.415894
vt 0.333330 11.847870
vt 0.000000 11.901470
vt 0.333330 12.325836
vt 0.000000 13.180180
vt 1.488944 0.255035
vt 1.327022 0.290137
vt 0.149831 0.281572
vt 0.298891 0.183831
vt 1.000000 6.557020
vt 1.000000 10.433626
vt 0.666670 9.613831
vt 0.630848 0.000000
vt 1.333330 11.883221
vt 1.000000 11.902135
vt 1.333330 12.452738
vt 1.000000 13.727005
vt 0.888890 1.725157
vt 1.179662 1.284223
vt 1.000000 2.560431
vt 0.666670 13.190062
vt 0.833480 15.395790
vt 0.333330 15.395776
vt 0.960325 0.851299
vt 0.728233 0.565969
vt 0.857140 3.587642
vt 1.142860 3.524267
vt 1.000000 5.048226
vt 0.411872 1.264784
vt 0.211597 1.355947
vt 1.333330 4.595989
vt 1.333330 6.208902
vt 1.402181 1.156357
vt 1.634685 0.556261
vt 1.814014 0.669512
vt 0.666670 11.928648
vt 2.000000 5.204510
vt 2.000000 5.810140
vt 1.154202 0.307169
vt 2.000000 14.287728
vt 2.000000 15.395669
vt 1.500290 15.394072
vt 1.613106 11.993081
vt 2.000000 11.901216
vt 2.000000 13.179788
vt 0.308221 4.007242
vt 0.000000 4.566765
vt 0.000000 3.587810
vt 0.000000 7.821762
vt 0.491022 0.200610
vt 1.250000 2.494489
vt 2.000000 1.164900
vt 0.130043 0.001022
vt 0.598383 1.048859
vt 1.500000 0.053921
vt 1.644959 0.172825
vt 0.256021 0.000066
vt 0.000000 14.256880
vt 0.000000 15.395790
vt 0.077780 0.001150
vt 0.557512 3.101672
vt 0.272614 2.922576
vt 0.666670 1.545675
vt 1.588890 0.000000
vt 0.000000 0.037260
vt 0.000000 0.008030
vt 1.500000 0.000142
vt 1.533330 0.000000
vt 0.750000 2.744685
vt 0.000000 1.164900
vt 0.000000 0.163978
vt 1.666670 4.517989
vt 1.999801 0.012420
vt 0.000000 2.260580
vt 2.000000 4.643488
vt 2.000000 3.587810
vt 0.401025 0.000594
vt 0.933330 0.000000
vt 2.000000 9.446940
vt 2.000000 2.674880
vt 2.000000 2.260580
vt 0.433330 0.000000
vt 1.433330 0.000000
vt 0.000000 2.694939
vt 1.375158 0.000064
vt 0.879045 0.000000
vt 0.333330 5.693309
vt 0.000000 5.855580
vt 0.000000 4.431301
vt 0.250000 4.016989
vt 0.000000 7.532367
vt 0.333330 7.891711
vt 0.666670 7.513898
vt 0.500000 3.832213
vt 0.666670 5.656991
vt 0.800000 2.260489
vt 0.750000 4.069993
vt 0.600000 2.260733
vt 0.400000 2.260614
vt 0.211437 2.823206
vt 0.200000 2.260580
vt 0.000000 3.041699
vt 0.000000 3.770800
vt 1.000000 4.443574
vt 1.000000 5.855580
vt 1.000000 3.770800
vt 1.000000 3.019924
vt 1.000000 2.260580
vt 0.732505 0.500000
vt 0.730508 0.500000
vt 0.731811 0.500000
vt 0.737941 0.500000
vt 0.740188 0.500000
vt 0.738251 0.500000
vt 0.000000 0.000000
vt 1.000000 0.000000
vt 1.000000 1.000000
vt 0.000000 1.000000
s 1
usemtl tree_bark_6
f 41/1/1 36/2/2 5/3/3
f 98/4/4 99/5/5 102/6/6
f 14/7/7 15/8/8 29/9/9
f 11/10/10 37/11/11 10/12/12
f 95/13/13 100/14/14 99/5/5 90/15/15
f 33/16/16 48/17/17 47/18/18 40/19/19
f 29/9/9 15/8/8 16/20/20
f 41/1/1 26/21/21 27/22/22 44/23/23
f 16/20/20 17/24/24 30/25/25
f 17/24/24 18/26/26 30/25/25
f 8/27/27 27/22/22 26/21/21 7/28/28
f 10/12/12 37/11/11 44/23/23 27/22/22
f 45/29/29 29/9/9 16/20/20 38/30/30
f 24/31/31 25/32/32 40/19/19 32/33/33
f 68/34/34 76/35/35 74/36/36 65/37/37
f 88/38/38 83/39/39 92/40/40 93/41/41
f 31/42/42 43/43/43 30/25/25 18/26/26
f 29/9/9 45/29/29 42/44/44 28/45/45
f 88/38/38 93/41/41 91/46/46 87/47/47
f 34/48/48 35/49/49 36/2/2
f 103/50/50 100/51/14 97/52/51 110/53/52 226/54/53
f 110/53/54 104/55/55 107/56/56 226/54/57
f 31/42/42 52/57/58 55/58/59 43/43/43
f 42/44/44 37/11/11 11/10/10 28/45/45
f 44/23/23 37/11/11 42/44/44
f 49/59/60 36/2/2 50/60/61
f 94/61/62 101/62/63 96/63/64 92/40/40
f 9/64/65 10/12/12 27/22/22 8/27/27
f 101/62/63 98/4/4 227/65/66 111/66/67
f 227/65/68 106/67/69 222/68/70 111/66/71
f 67/69/72 61/70/73 72/71/74
f 105/72/75 109/73/76 224/74/77 104/55/55
f 58/75/78 61/70/73 67/69/72 53/76/79
f 78/77/80 79/78/81 84/79/82
f 50/60/61 56/80/83 64/81/84 49/59/60
f 94/61/62 84/79/82 85/82/85 89/83/86
f 58/75/78 53/76/79 42/44/44 45/29/29
f 62/84/87 59/85/88 60/86/89 65/37/37
f 96/63/64 101/62/63 111/66/67 112/87/90
f 111/66/71 222/68/70 105/72/75 112/87/91
f 90/15/15 87/88/47 91/89/46
f 38/30/30 54/90/92 58/75/78 45/29/29
f 108/91/93 225/92/94 223/93/95 113/94/96 226/95/57 107/96/56
f 80/97/97 82/98/98 81/99/99
f 91/46/46 93/41/41 95/100/13
f 50/60/61 36/2/2 41/1/1 51/101/100
f 100/51/14 95/100/13 93/41/41 97/52/51
f 73/102/101 74/36/36 79/78/81 72/71/74
f 48/17/17 63/103/102 60/86/89 47/18/18
f 3/104/103 35/49/49 34/48/48
f 94/61/62 89/83/86 98/4/4 101/62/63
f 44/23/23 53/76/79 57/105/104 51/101/100
f 84/79/82 94/61/62 92/40/40 83/39/39
f 97/52/51 93/41/41 92/40/40 96/63/64
f 227/65/66 98/4/4 102/6/6 113/94/105
f 223/93/95 106/67/69 227/65/68 113/94/96
f 39/106/106 46/107/107 52/57/58 31/42/42
f 52/57/58 46/107/107 59/85/88 62/84/87
f 4/108/108 36/2/2 35/49/49 3/104/103
f 108/109/93 224/74/77 225/110/94
f 2/111/109 3/104/103 34/48/48
f 70/112/110 83/39/39 80/97/97 69/113/111
f 40/19/19 46/107/107 39/106/106 32/33/33
f 66/114/112 57/105/104 53/76/79 67/69/72
f 73/102/101 72/71/74 61/70/73 62/84/87
f 23/115/113 24/31/31 32/33/33
f 33/116/16 1/117/114 2/111/109 34/48/48
f 16/20/20 30/25/25 43/43/43 38/30/30
f 21/118/115 22/119/116 32/33/33 39/106/106
f 78/77/80 71/120/117 72/71/74 79/78/81
f 85/82/85 84/79/82 79/78/81 74/36/36
f 70/112/110 56/80/83 66/114/112 71/120/117
f 54/90/92 38/30/30 43/43/43 55/58/59
f 71/120/117 78/77/80 70/112/110
f 63/121/102 48/122/17 34/48/48 36/2/2 49/59/60 64/81/84
f 61/70/73 58/75/78 54/90/92 55/58/59
f 40/19/19 47/18/18 46/107/107
f 86/123/118 85/82/85 74/36/36 76/35/35
f 57/105/104 66/114/112 56/80/83
f 71/120/117 66/114/112 67/69/72 72/71/74
f 1/124/114 33/16/16 40/19/19 25/32/32
f 62/84/87 61/70/73 55/58/59 52/57/58
f 106/67/69 223/93/95 109/73/76 222/68/70
f 74/36/36 73/102/101 62/84/87 65/37/37
f 69/113/111 64/81/84 56/80/83 70/112/110
f 65/37/37 60/86/89 68/34/34
f 75/125/119 63/121/102 64/81/84 69/113/111
f 87/88/47 90/15/15 86/123/118 82/126/98
f 23/115/113 32/33/33 22/119/116
f 99/5/5 98/4/4 89/83/86 90/15/15
f 109/73/76 105/72/75 222/68/70
f 95/13/13 90/15/15 91/89/46
f 82/126/98 86/123/118 76/35/35 81/127/99
f 5/128/3 26/21/21 41/1/1
f 36/2/2 4/108/108 5/3/3
f 88/38/38 80/97/97 83/39/39
f 90/15/15 89/83/86 85/82/85 86/123/118
f 104/55/55 224/74/77 108/109/93 107/56/56
f 51/101/100 41/1/1 44/23/23
f 29/9/9 28/45/45 13/129/120 14/7/7
f 83/39/39 70/112/110 78/77/80 84/79/82
f 103/130/50 102/6/6 99/5/5 100/14/14
f 88/38/38 87/47/47 82/98/98 80/97/97
f 56/80/83 50/60/61 51/101/100 57/105/104
f 76/35/35 77/131/121 81/127/99
f 77/131/121 76/35/35 68/34/34 75/132/119
f 97/52/51 96/63/64 112/87/90 110/53/52
f 105/72/75 104/55/55 110/53/54 112/87/91
f 26/21/21 5/128/3 6/133/122 7/28/28
f 60/86/89 59/85/88 46/107/107 47/18/18
f 21/118/115 39/106/106 31/42/42 20/134/123
f 33/116/16 34/48/48 48/122/17
f 53/76/79 44/23/23 42/44/44
f 68/34/34 60/86/89 63/103/102 75/132/119
f 77/135/121 75/125/119 69/113/111 80/97/97 81/99/99
f 109/73/76 223/93/95 225/92/94 224/74/77
f 18/26/26 19/136/124 20/134/123 31/42/42
f 12/137/125 13/129/120 28/45/45 11/10/10
f 126/138/126 128/139/127 125/140/128 122/141/129
f 129/142/130 130/143/131 131/144/132
f 121/145/133 127/146/134 126/138/126 122/141/129
f 117/147/135 123/148/136 121/145/133 116/149/137
f 115/150/138 116/149/137 121/145/133
f 121/145/133 123/148/136 127/146/134
f 120/151/139 114/152/140 115/150/138 121/145/133
f 120/151/139 119/153/141 118/125/142 114/152/140
f 120/151/139 122/141/129 124/154/143 119/153/141
f 125/140/128 124/154/143 122/141/129
f 125/155/128 128/156/127 127/146/134 123/148/136
f 122/141/129 120/151/139 121/145/133
f 127/146/134 131/144/132 130/143/131 126/138/126
f 126/138/126 130/143/131 129/142/130 128/139/127
f 123/148/136 124/157/143 125/155/128
f 131/144/132 127/146/134 128/156/127 129/142/130
f 119/158/141 124/157/143 123/148/136 117/147/135 118/159/142
f 144/138/144 140/141/145 143/140/146 146/139/147
f 147/142/148 149/144/149 148/143/150
f 139/145/151 140/141/145 144/138/144 145/146/152
f 135/147/153 134/149/154 139/145/151 141/148/155
f 133/150/156 139/145/151 134/149/154
f 139/145/151 145/146/152 141/148/155
f 138/151/157 139/145/151 133/150/156 132/152/158
f 138/151/157 132/152/158 136/125/159 137/153/160
f 138/151/157 137/153/160 142/154/161 140/141/145
f 143/140/146 140/141/145 142/154/161
f 143/155/146 141/148/155 145/146/152 146/156/147
f 140/141/145 139/145/151 138/151/157
f 145/146/152 144/138/144 148/143/150 149/144/149
f 144/138/144 146/139/147 147/142/148 148/143/150
f 141/148/155 143/155/146 142/157/161
f 149/144/149 147/142/148 146/156/147 145/146/152
f 137/158/160 136/159/159 135/147/153 141/148/155 142/157/161
f 162/138/162 158/141/163 161/140/164 164/139/165
f 165/142/166 167/144/167 166/143/168
f 157/145/169 158/141/163 162/138/162 163/146/170
f 153/147/171 152/149/172 157/145/169 159/148/173
f 151/150/174 157/145/169 152/149/172
f 157/145/169 163/146/170 159/148/173
f 156/151/175 157/145/169 151/150/174 150/152/176
f 156/151/175 150/152/176 154/125/177 155/153/178
f 156/151/175 155/153/178 160/154/179 158/141/163
f 161/140/164 158/141/163 160/154/179
f 161/155/164 159/148/173 163/146/170 164/156/165
f 158/141/163 157/145/169 156/151/175
f 163/146/170 162/138/162 166/143/168 167/144/167
f 162/138/162 164/139/165 165/142/166 166/143/168
f 159/148/173 161/155/164 160/157/179
f 167/144/167 165/142/166 164/156/165 163/146/170
f 155/158/178 154/159/177 153/147/171 159/148/173 160/157/179
f 180/138/180 176/141/181 179/140/182 182/139/183
f 183/142/184 185/144/185 184/143/186
f 175/145/187 176/141/181 180/138/180 181/146/188
f 171/147/189 170/149/190 175/145/187 177/148/191
f 169/150/192 175/145/187 170/149/190
f 175/145/187 181/146/188 177/148/191
f 174/151/193 175/145/187 169/150/192 168/152/194
f 174/151/193 168/152/194 172/125/195 173/153/196
f 174/151/193 173/153/196 178/154/197 176/141/181
f 179/140/182 176/141/181 178/154/197
f 179/155/182 177/148/191 181/146/188 182/156/183
f 176/141/181 175/145/187 174/151/193
f 181/146/188 180/138/180 184/143/186 185/144/185
f 180/138/180 182/139/183 183/142/184 184/143/186
f 177/148/191 179/155/182 178/157/197
f 185/144/185 183/142/184 182/156/183 181/146/188
f 173/158/196 172/159/195 171/147/189 177/148/191 178/157/197
f 198/138/198 200/139/199 197/140/200 194/141/201
f 201/142/202 202/143/203 203/144/204
f 193/145/205 199/146/206 198/138/198 194/141/201
f 189/147/207 195/148/208 193/145/205 188/149/209
f 187/150/210 188/149/209 193/145/205
f 193/145/205 195/148/208 199/146/206
f 192/151/211 186/152/212 187/150/210 193/145/205
f 192/151/211 191/153/213 190/125/214 186/152/212
f 192/151/211 194/141/201 196/154/215 191/153/213
f 197/140/200 196/154/215 194/141/201
f 197/155/200 200/156/199 199/146/206 195/148/208
f 194/141/201 192/151/211 193/145/205
f 199/146/206 203/144/204 202/143/203 198/138/198
f 198/138/198 202/143/203 201/142/202 200/139/199
f 195/148/208 196/157/215 197/155/200
f 203/144/204 199/146/206 200/156/199 201/142/202
f 191/158/213 196/157/215 195/148/208 189/147/207 190/159/214
f 216/138/216 218/139/217 215/140/218 212/141/219
f 219/142/220 220/143/221 221/144/222
f 211/145/223 217/146/224 216/138/216 212/141/219
f 207/147/225 213/148/226 211/145/223 206/149/227
f 205/150/228 206/149/227 211/145/223
f 211/145/223 213/148/226 217/146/224
f 210/151/229 204/152/230 205/150/228 211/145/223
f 210/151/229 209/153/231 208/125/232 204/152/230
f 210/151/229 212/141/219 214/154/233 209/153/231
f 215/140/218 214/154/233 212/141/219
f 215/155/218 218/156/217 217/146/224 213/148/226
f 212/141/219 210/151/229 211/145/223
f 217/146/224 221/144/222 220/143/221 216/138/216
f 216/138/216 220/143/221 219/142/220 218/139/217
f 213/148/226 214/157/233 215/155/218
f 221/144/222 217/146/224 218/156/217 219/142/220
f 209/158/231 214/157/233 213/148/226 207/147/225 208/159/232
f 226/95/53 113/94/105 102/6/6 103/130/50
s 0
usemtl branch_1
f 228/160/234 232/161/234 231/162/234 233/163/234 229/164/234 230/165/234
s 1
f 234/166/235 235/167/235 237/168/235
f 236/169/236 234/166/236 237/168/236
f 238/166/237 239/167/237 241/168/237
f 240/169/238 238/166/238 241/168/238
f 242/166/239 243/167/239 245/168/239
f 244/169/240 242/166/240 245/168/240
f 246/166/241 247/167/241 249/168/241
f 248/169/242 246/166/242 249/168/242
f 250/166/243 251/167/243 253/168/243
f 252/169/244 250/166/244 253/168/244
f 254/166/245 255/167/245 257/168/245
f 256/169/246 254/166/246 257/168/246
f 258/166/247 259/167/247 261/168/247
f 260/169/248 258/166/248 261/168/248
f 262/166/249 263/167/249 265/168/249
f 264/169/250 262/166/250 265/168/250
f 266/166/251 267/167/251 269/168/251
f 268/169/252 266/166/252 269/168/252
f 270/166/253 271/167/253 273/168/253
f 272/169/254 270/166/254 273/168/254
f 274/166/255 275/167/255 277/168/255
f 276/169/256 274/166/256 277/168/256
f 278/166/257 279/167/257 281/168/257
f 280/169/258 278/166/258 281/168/258
f 282/166/259 283/167/259 285/168/259
f 284/169/260 282/166/260 285/168/260
f 286/166/261 287/167/261 289/168/261
f 288/169/262 286/166/262 289/168/262
f 290/166/263 291/167/263 293/168/263
f 292/169/264 290/166/264 293/168/264
f 294/166/265 295/167/265 297/168/265
f 296/169/266 294/166/266 297/168/266
f 298/166/267 299/167/267 301/168/267
f 300/169/268 298/166/268 301/168/268
f 302/166/269 303/167/269 305/168/269
f 304/169/270 302/166/270 305/168/270
f 306/166/271 307/167/271 309/168/271
f 308/169/272 306/166/272 309/168/272
f 310/166/273 311/167/273 313/168/273
f 312/169/274 310/166/274 313/168/274
f 314/166/275 315/167/275 317/168/275
f 316/169/276 314/166/276 317/168/276
f 318/166/277 319/167/277 321/168/277
f 320/169/278 318/166/278 321/168/278
f 322/166/279 323/167/279 325/168/279
f 324/169/280 322/166/280 325/168/280
f 326/166/281 327/167/281 329/168/281
f 328/169/282 326/166/282 329/168/282
f 330/166/283 331/167/283 333/168/283
f 332/169/284 330/166/284 333/168/284
f 334/166/285 335/167/285 337/168/285
f 336/169/286 334/166/286 337/168/286
f 338/166/287 339/167/287 341/168/287
f 340/169/288 338/166/288 341/168/288
f 342/166/289 343/167/289 345/168/289
f 344/169/290 342/166/290 345/168/290
f 346/166/291 347/167/291 349/168/291
f 348/169/292 346/166/292 349/168/292
f 350/166/293 351/167/293 353/168/293
f 352/169/294 350/166/294 353/168/294
f 354/166/295 355/167/295 357/168/295
f 356/169/296 354/166/296 357/168/296
f 358/166/297 359/167/297 361/168/297
f 360/169/298 358/166/298 361/168/298
f 362/166/299 363/167/299 365/168/299
f 364/169/300 362/166/300 365/168/300
f 366/166/301 367/167/301 369/168/301
f 368/169/302 366/166/302 369/168/302
f 370/166/303 371/167/303 373/168/303
f 372/169/304 370/166/304 373/168/304
f 374/166/305 375/167/305 377/168/305
f 376/169/306 374/166/306 377/168/306
f 378/166/307 379/167/307 381/168/307
f 380/169/308 378/166/308 381/168/308
f 382/166/309 383/167/309 385/168/309
f 384/169/310 382/166/310 385/168/310
f 386/166/311 387/167/311 389/168/311
f 388/169/312 386/166/312 389/168/312
f 390/166/313 391/167/313 393/168/313
f 392/169/314 390/166/314 393/168/314
f 394/166/315 395/167/315 397/168/315
f 396/169/316 394/166/316 397/168/316
f 398/166/317 399/167/317 401/168/317
f 400/169/318 398/166/318 401/168/318
f 402/166/319 403/167/319 405/168/319
f 404/169/320 402/166/320 405/168/320
f 406/166/321 407/167/321 409/168/321
f 408/169/322 406/166/322 409/168/322
f 410/166/323 411/167/323 413/168/323
f 412/169/324 410/166/324 413/168/324
f 414/166/325 415/167/325 417/168/325
f 416/169/326 414/166/326 417/168/326
f 418/166/327 419/167/327 421/168/327
f 420/169/328 418/166/328 421/168/328
f 422/166/329 423/167/329 425/168/329
f 424/169/330 422/166/330 425/168/330
f 426/166/331 427/167/331 429/168/331
f 428/169/332 426/166/332 429/168/332
f 430/166/333 431/167/333 433/168/333
f 432/169/334 430/166/334 433/168/334
f 434/166/335 435/167/335 437/168/335
f 436/169/336 434/166/336 437/168/336
f 438/166/337 439/167/337 441/168/337
f 440/169/338 438/166/338 441/168/338
f 442/166/339 443/167/339 445/168/339
f 444/169/340 442/166/340 445/168/340
f 446/166/341 447/167/341 449/168/341
f 448/169/342 446/166/342 449/168/342
f 450/166/343 451/167/343 453/168/343
f 452/169/344 450/166/344 453/168/344
f 454/166/345 455/167/345 457/168/345
f 456/169/346 454/166/346 457/168/346
f 458/166/347 459/167/347 461/168/347
f 460/169/348 458/166/348 461/168/348
f 462/166/349 463/167/349 465/168/349
f 464/169/350 462/166/350 465/168/350
f 466/166/351 467/167/351 469/168/351
f 468/169/352 466/166/352 469/168/352
f 470/166/353 471/167/353 473/168/353
f 472/169/354 470/166/354 473/168/354
f 474/166/355 475/167/355 477/168/355
f 476/169/356 474/166/356 477/168/356
f 478/166/357 479/167/357 481/168/357
f 480/169/358 478/166/358 481/168/358
f 482/166/359 483/167/359 485/168/359
f 484/169/360 482/166/360 485/168/360
f 486/166/361 487/167/361 489/168/361
f 488/169/362 486/166/362 489/168/362
f 490/166/363 491/167/363 493/168/363
f 492/169/364 490/166/364 493/168/364
f 494/166/365 495/167/365 497/168/365
f 496/169/366 494/166/366 497/168/366
f 498/166/367 499/167/367 501/168/367
f 500/169/368 498/166/368 501/168/368
f 502/166/369 503/167/369 505/168/369
f 504/169/370 502/166/370 505/168/370
f 506/166/371 507/167/371 509/168/371
f 508/169/372 506/166/372 509/168/372
f 510/166/373 511/167/373 513/168/373
f 512/169/374 510/166/374 513/168/374
f 514/166/375 515/167/375 517/168/375
f 516/169/376 514/166/376 517/168/376
f 518/166/377 519/167/377 521/168/377
f 520/169/378 518/166/378 521/168/378
f 522/166/379 523/167/379 525/168/379
f 524/169/380 522/166/380 525/168/380
f 526/166/381 527/167/381 529/168/381
f 528/169/382 526/166/382 529/168/382
f 530/166/383 531/167/383 533/168/383
f 532/169/384 530/166/384 533/168/384
f 534/166/385 535/167/385 537/168/385
f 536/169/386 534/166/386 537/168/386
f 538/166/387 539/167/387 541/168/387
f 540/169/388 538/166/388 541/168/388
f 542/166/389 543/167/389 545/168/389
f 544/169/390 542/166/390 545/168/390
f 546/166/391 547/167/391 549/168/391
f 548/169/392 546/166/392 549/168/392
f 550/166/393 551/167/393 553/168/393
f 552/169/394 550/166/394 553/168/394
f 554/166/395 555/167/395 557/168/395
f 556/169/396 554/166/396 557/168/396
f 558/166/397 559/167/397 561/168/397
f 560/169/398 558/166/398 561/168/398
f 562/166/399 563/167/399 565/168/399
f 564/169/400 562/166/400 565/168/400
f 566/166/401 567/167/401 569/168/401
f 568/169/402 566/166/402 569/168/402
f 570/166/403 571/167/403 573/168/403
f 572/169/404 570/166/404 573/168/404
f 574/166/405 575/167/405 577/168/405
f 576/169/406 574/166/406 577/168/406
f 578/166/407 579/167/407 581/168/407
f 580/169/408 578/166/408 581/168/408
f 582/166/409 583/167/409 585/168/409
f 584/169/410 582/166/410 585/168/410
f 586/166/411 587/167/411 589/168/411
f 588/169/412 586/166/412 589/168/412
f 590/166/413 591/167/413 593/168/413
f 592/169/414 590/166/414 593/168/414
