# Blender 5.0.1
# www.blender.org
mtllib tree_1.mtl
o tree_1
v 0.072846 -0.171502 -0.749437
v -0.057785 -0.171502 0.594494
v 0.263068 3.579234 -0.669337
v 0.412566 3.579234 0.672627
v 0.335963 3.043414 -0.649696
v 0.164230 2.507595 -0.674813
v 0.147518 1.971776 -0.729317
v 0.016886 1.971776 0.614614
v 0.313728 2.507595 0.667150
v 0.485461 3.043414 0.692268
v -0.356060 -0.147582 -0.613890
v 0.305695 -0.169955 0.466793
v -0.766603 3.332418 -0.222947
v -0.341138 3.283022 0.969879
v -0.779308 2.824794 -0.211920
v -0.604757 2.341979 -0.338033
v -0.572588 1.844946 -0.425957
v 0.089167 1.822573 0.654725
v -0.179292 2.292583 0.854794
v -0.353843 2.775398 0.980906
v -0.102572 -0.140129 -0.581892
v 0.144321 -0.106468 0.357979
v -0.808969 2.484327 -0.818126
v -0.757417 2.478361 0.152828
v -0.776295 2.095323 -0.699674
v -0.577446 1.740285 -0.622903
v -0.489850 1.362983 -0.546603
v -0.242957 1.396644 0.393267
v -0.525893 1.734319 0.348052
v -0.724742 2.089357 0.271280
v -0.227861 0.861444 -0.537238
v -0.144245 0.360816 -0.568455
v 0.102649 0.394477 0.371416
v 0.019033 0.895105 0.402632
v -0.430867 -0.150958 0.287872
v 0.401985 -0.098589 -0.221646
v -0.267410 2.487142 0.831280
v 0.652643 2.500144 0.500633
v -0.252639 2.097013 0.797962
v -0.344247 1.740085 0.623188
v -0.406003 1.360654 0.556377
v 0.426849 1.413023 0.046859
v 0.575807 1.753086 0.292541
v 0.667414 2.110014 0.467315
v -0.370146 0.856783 0.401895
v -0.415139 0.352913 0.327261
v 0.417714 0.405282 -0.182258
v 0.462706 0.909152 -0.107624
v 0.227435 -0.178844 0.537524
v -0.157784 -0.116801 -0.553152
v 0.959110 2.955171 -0.157442
v 0.802657 2.970574 -1.305093
v 0.952261 2.490205 0.023506
v 0.740813 2.065997 0.186779
v 0.660289 1.615283 0.330744
v 0.275069 1.677326 -0.759931
v 0.584360 2.081401 -0.960871
v 0.795808 2.505608 -1.124144
v 0.374529 1.015056 0.495255
v 0.276955 0.418106 0.529003
v -0.108264 0.480149 -0.561672
v -0.010691 1.077098 -0.595420
v -0.493628 -0.167000 0.346324
v 0.328487 -0.109066 -0.354209
v -0.439752 2.746315 1.194724
v 0.508527 2.760698 0.674593
v -0.329367 2.316243 1.100918
v -0.341583 1.923175 0.861000
v -0.300165 1.505250 0.732598
v 0.521951 1.563184 0.032065
v 0.606696 1.937558 0.340870
v 0.618913 2.330626 0.580788
v -0.407594 0.947833 0.460436
v -0.469642 0.390416 0.386649
v 0.352473 0.448351 -0.313883
v 0.414521 1.005767 -0.240096
v -0.593339 -0.195656 0.051502
v 0.496741 -0.086033 0.017894
v -0.862766 2.713441 -0.821910
v 0.202475 2.767049 -1.074512
v -0.807623 2.279822 -0.778579
v -0.768113 1.892230 -0.539312
v -0.765071 1.471879 -0.418374
v 0.325008 1.581503 -0.451982
v 0.297129 1.945838 -0.791914
v 0.257618 2.333430 -1.031181
v 0.825397 -0.260364 0.060122
v -0.657077 -0.133304 -0.129115
v 1.111219 3.902481 0.076191
v -0.376985 4.044483 0.197721
v 1.033190 3.316299 0.183860
v 1.011559 2.712430 0.021681
v 1.018050 2.114006 0.032411
v -0.464424 2.241066 -0.156827
v -0.476644 2.854432 0.143211
v -0.455014 3.458301 0.305391
vn -0.9947 0.0356 -0.0967
vn -0.9859 0.1610 -0.0447
vn -0.9868 0.1551 -0.0472
vn -0.9900 0.0883 0.1103
vn -0.9903 0.0845 0.1103
vn -0.9854 -0.1300 0.1098
vn -0.9550 0.2906 0.0598
vn -0.9557 0.2894 0.0534
vn -0.8456 -0.1405 0.5149
vn -0.8505 -0.2629 0.4556
vn -0.8506 -0.2571 0.4586
vn -0.9277 -0.1867 0.3232
vn -0.9284 -0.1830 0.3236
vn -0.9410 0.0309 0.3369
vn -0.8580 -0.3857 0.3393
vn -0.8560 -0.3847 0.3454
vn -0.9164 -0.3111 0.2519
vn -0.8747 -0.4418 0.1994
vn -0.8775 -0.4408 0.1892
vn -0.9149 -0.3155 0.2516
vn -0.9678 -0.2466 0.0499
vn -0.9472 -0.3169 0.0483
vn -0.9963 -0.0677 0.0525
vn -0.8841 -0.4564 0.1004
vn -0.8825 -0.4622 0.0875
vn -0.9628 -0.0870 0.2560
vn -0.9575 -0.1323 0.2563
vn -0.9579 -0.1297 0.2563
vn 0.5209 -0.1927 0.8316
vn 0.4650 -0.3375 0.8184
vn 0.4615 -0.3447 0.8175
vn 0.5208 -0.1942 0.8313
vn 0.3280 -0.2824 0.9015
vn 0.3283 -0.2787 0.9025
vn 0.3383 -0.0674 0.9386
vn 0.3471 -0.4721 0.8103
vn 0.3532 -0.4709 0.8084
vn 0.5239 -0.0826 0.8478
vn 0.5234 -0.1279 0.8424
vn 0.5235 -0.1254 0.8428
vn 0.8815 -0.3371 -0.3305
vn 0.8376 -0.4778 -0.2649
vn 0.8339 -0.4778 -0.2764
vn 0.8879 -0.3186 -0.3317
vn 0.9361 -0.3261 -0.1320
vn 0.9621 -0.2373 -0.1343
vn 0.9885 -0.0674 -0.1357
vn 0.8617 -0.4799 -0.1646
vn 0.8585 -0.4793 -0.1826
vn 0.9382 -0.0826 -0.3361
vn 0.9329 -0.1279 -0.3368
vn 0.9332 -0.1254 -0.3367
vn 0.6297 -0.3067 0.7137
vn 0.5667 -0.4384 0.6976
vn 0.5587 -0.4376 0.7046
vn 0.6290 -0.3112 0.7124
vn 0.4690 -0.2462 0.8482
vn 0.4599 -0.3166 0.8296
vn 0.4806 -0.0674 0.8743
vn 0.4818 -0.4550 0.7489
vn 0.4695 -0.4610 0.7530
vn 0.6497 -0.0826 0.7557
vn 0.6485 -0.1279 0.7504
vn 0.6486 -0.1254 0.7508
vn 0.0024 0.2714 0.9625
vn 0.0399 0.3945 0.9180
vn 0.0381 0.3888 0.9205
vn 0.2011 0.3371 0.9197
vn 0.2016 0.3335 0.9209
vn 0.2230 0.1250 0.9668
vn 0.1264 0.5201 0.8447
vn 0.1204 0.5187 0.8465
vn 0.1248 -0.0217 -0.9919
vn 0.0842 0.1082 -0.9906
vn 0.0862 0.1021 -0.9910
vn -0.0766 0.0496 -0.9958
vn -0.0770 0.0458 -0.9960
vn -0.0961 -0.1674 -0.9812
vn -0.0087 0.2480 -0.9687
vn -0.0025 0.2462 -0.9692
vt 1.000000 0.000000
vt 1.000000 0.571429
vt 0.000000 0.571429
vt 0.000000 0.000000
vt 0.000000 0.857143
vt 1.000000 0.857143
vt 1.000000 1.000000
vt 0.000000 1.000000
vt 1.000000 0.714286
vt 0.000000 0.714286
vt 1.000000 0.380952
vt 0.000000 0.380952
vt 1.000000 0.190476
vt 0.000000 0.190476
s 1
usemtl tree_1
f 2/1/1 8/2/2 7/3/3 1/4/1
f 5/5/4 10/6/5 4/7/6 3/8/6
f 7/3/3 8/2/2 9/9/7 6/10/8
f 6/10/8 9/9/7 10/6/5 5/5/4
f 12/1/9 18/2/10 17/3/11 11/4/9
f 15/5/12 20/6/13 14/7/14 13/8/14
f 17/3/11 18/2/10 19/9/15 16/10/16
f 16/10/16 19/9/15 20/6/13 15/5/12
f 34/11/17 28/2/18 27/3/19 31/12/20
f 25/5/21 30/6/22 24/7/23 23/8/23
f 27/3/19 28/2/18 29/9/24 26/10/25
f 26/10/25 29/9/24 30/6/22 25/5/21
f 22/1/26 33/13/27 32/14/28 21/4/26
f 33/13/27 34/11/17 31/12/20 32/14/28
f 48/11/29 42/2/30 41/3/31 45/12/32
f 39/5/33 44/6/34 38/7/35 37/8/35
f 41/3/31 42/2/30 43/9/36 40/10/37
f 40/10/37 43/9/36 44/6/34 39/5/33
f 36/1/38 47/13/39 46/14/40 35/4/38
f 47/13/39 48/11/29 45/12/32 46/14/40
f 62/11/41 56/2/42 55/3/43 59/12/44
f 53/5/45 58/6/46 52/7/47 51/8/47
f 55/3/43 56/2/42 57/9/48 54/10/49
f 54/10/49 57/9/48 58/6/46 53/5/45
f 50/1/50 61/13/51 60/14/52 49/4/50
f 61/13/51 62/11/41 59/12/44 60/14/52
f 76/11/53 70/2/54 69/3/55 73/12/56
f 67/5/57 72/6/58 66/7/59 65/8/59
f 69/3/55 70/2/54 71/9/60 68/10/61
f 68/10/61 71/9/60 72/6/58 67/5/57
f 64/1/62 75/13/63 74/14/64 63/4/62
f 75/13/63 76/11/53 73/12/56 74/14/64
f 78/1/65 84/2/66 83/3/67 77/4/65
f 81/5/68 86/6/69 80/7/70 79/8/70
f 83/3/67 84/2/66 85/9/71 82/10/72
f 82/10/72 85/9/71 86/6/69 81/5/68
f 88/1/73 94/2/74 93/3/75 87/4/73
f 91/5/76 96/6/77 90/7/78 89/8/78
f 93/3/75 94/2/74 95/9/79 92/10/80
f 92/10/80 95/9/79 96/6/77 91/5/76
