# Blender 5.0.1
# www.blender.org
mtllib book_mp_8.mtl
o book_mp_8
v 0.090006 0.004053 0.134999
v 0.090013 0.043953 0.134999
v 0.090006 0.004053 -0.135001
v 0.090013 0.043953 -0.135001
v 0.090000 0.000003 -0.135001
v 0.090000 0.000003 0.134999
v 0.090000 0.048003 0.134999
v 0.090000 0.048003 -0.135001
v -0.085951 0.004531 0.134999
v -0.085951 0.004531 -0.135001
v -0.085951 0.042905 0.134999
v -0.085951 0.042905 -0.135001
v -0.087300 0.046929 0.134999
v -0.090000 0.044212 0.134999
v -0.087300 0.000493 -0.135001
v -0.090000 0.003200 -0.135001
v -0.090000 0.003200 0.134999
v -0.087300 0.000493 0.134999
v -0.090000 0.044212 -0.135001
v -0.087300 0.046929 -0.135001
v 0.087006 0.004053 -0.132001
v 0.087013 0.043953 -0.132001
v 0.087006 0.004053 0.131999
v 0.087013 0.043953 0.131999
v -0.085951 0.042905 0.131999
v -0.085951 0.004531 -0.132001
v -0.085950 0.004531 0.131999
v -0.085951 0.042905 -0.132001
vn -0.0000 -0.0000 -1.0000
vn -0.0000 -0.0000 1.0000
vn 0.0027 1.0000 -0.0000
vn 1.0000 -0.0000 -0.0000
vn -0.0028 -1.0000 -0.0000
vn 1.0000 -0.0015 -0.0000
vn 0.0060 -1.0000 -0.0000
vn -0.7094 0.7048 -0.0000
vn 1.0000 0.0032 -0.0000
vn -1.0000 -0.0000 -0.0000
vn -0.7081 -0.7061 -0.0000
vn -0.0061 1.0000 -0.0000
vn 1.0000 -0.0002 -0.0000
vt 0.339844 0.273438
vt 0.343750 0.277344
vt 0.343750 0.273438
vt 0.339844 0.136719
vt 0.343750 0.136719
vt 0.375000 0.277344
vt 0.375000 0.273438
vt 0.488281 0.093750
vt 0.339844 0.093750
vt 0.339844 0.320312
vt 0.488281 0.320312
vt 0.378906 0.273438
vt 0.527344 0.093750
vt 0.527344 0.320312
vt 0.492188 0.093750
vt 0.492188 0.320312
vt 0.343750 0.093750
vt 0.343750 0.320312
vt 0.523438 0.093750
vt 0.523438 0.320312
vt 0.378906 0.320312
vt 0.375000 0.320312
vt 0.375000 0.093750
vt 0.378906 0.093750
vt 0.378906 0.136719
vt 0.375000 0.136719
vt 0.679688 0.320312
vt 0.679688 0.093750
vt 0.261719 0.000000
vt 0.417969 0.000000
vt 0.417969 0.035156
vt 0.261719 0.035156
vt 0.226562 0.000000
vt 0.453125 0.000000
vt 0.453125 0.035156
vt 0.226562 0.035156
s 1
usemtl books_mp_1
f 15/1/1 16/2/1 10/3/1
f 6/4/2 1/5/2 9/3/2 18/1/2
f 14/6/2 17/2/2 9/3/2 11/7/2
f 3/8/3 10/9/3 9/10/3 1/11/3
f 14/6/2 11/7/2 13/12/2
f 19/6/1 20/12/1 12/7/1
f 10/8/4 12/13/4 11/14/4 9/11/4
f 5/10/5 6/9/5 18/15/5 15/16/5
f 5/9/6 3/17/6 1/18/6 6/10/6
f 12/9/7 4/8/7 2/11/7 11/10/7
f 14/19/8 13/13/8 20/14/8 19/20/8
f 7/21/9 2/22/9 4/23/9 8/24/9
f 16/16/10 17/15/10 14/19/10 19/20/10
f 8/25/1 4/26/1 12/7/1 20/12/1
f 7/25/2 13/12/2 11/7/2 2/26/2
f 18/8/11 17/15/11 16/16/11 15/11/11
f 18/1/2 9/3/2 17/2/2
f 8/27/12 20/14/12 13/13/12 7/28/12
f 19/6/1 12/7/1 10/3/1 16/2/1
f 5/4/1 15/1/1 10/3/1 3/5/1
f 27/29/2 23/30/2 24/31/2 25/32/2
f 28/31/1 22/32/1 21/29/1 26/30/1
f 23/33/13 21/34/13 22/35/13 24/36/13
