# Blender 5.0.1
# www.blender.org
mtllib brick_1_3.mtl
o brick_1_3
v -0.210000 0.140000 0.105000
v -0.203000 0.140000 0.112000
v -0.203000 0.140000 -0.112000
v -0.210000 0.140000 -0.105000
v 0.203000 0.140000 0.112000
v 0.210000 0.140000 0.105000
v 0.210000 0.140000 -0.105000
v 0.203000 0.140000 -0.112000
v -0.154000 0.140000 -0.077000
v -0.161000 0.140000 -0.084000
v -0.126000 0.140000 -0.077000
v -0.105000 0.140000 -0.084000
v -0.119000 0.140000 -0.084000
v -0.070000 0.140000 -0.077000
v -0.098000 0.140000 -0.077000
v -0.049000 0.140000 -0.084000
v -0.042000 0.140000 -0.077000
v -0.014000 0.140000 -0.049000
v -0.063000 0.140000 -0.084000
v -0.007000 0.140000 -0.042000
v -0.007000 0.140000 -0.014000
v 0.007000 0.140000 -0.014000
v 0.007000 0.140000 -0.042000
v 0.007000 0.140000 -0.084000
v -0.007000 0.140000 -0.084000
v 0.042000 0.140000 -0.077000
v 0.014000 0.140000 -0.077000
v 0.014000 0.140000 -0.007000
v 0.042000 0.140000 0.007000
v 0.014000 0.140000 -0.049000
v 0.049000 0.140000 0.014000
v 0.049000 0.140000 -0.084000
v -0.014000 0.140000 -0.077000
v 0.070000 0.140000 0.007000
v 0.098000 0.140000 -0.007000
v 0.105000 0.140000 -0.014000
v 0.105000 0.140000 -0.042000
v 0.098000 0.140000 -0.077000
v 0.098000 0.140000 -0.049000
v 0.070000 0.140000 -0.077000
v 0.119000 0.140000 -0.042000
v 0.119000 0.140000 -0.014000
v 0.126000 0.140000 -0.007000
v 0.126000 0.140000 -0.049000
v 0.119000 0.140000 -0.084000
v 0.126000 0.140000 -0.077000
v 0.105000 0.140000 -0.084000
v 0.154000 0.140000 0.049000
v 0.154000 0.140000 0.007000
v 0.161000 0.140000 0.042000
v 0.161000 0.140000 0.014000
v 0.161000 0.140000 -0.084000
v 0.154000 0.140000 -0.077000
v 0.175000 0.140000 0.042000
v 0.175000 0.140000 0.014000
v 0.182000 0.140000 -0.077000
v 0.182000 0.140000 0.077000
v 0.182000 0.140000 0.049000
v 0.182000 0.140000 0.007000
v 0.175000 0.140000 0.084000
v 0.175000 0.140000 -0.084000
v 0.154000 0.140000 0.077000
v 0.154000 0.140000 0.077000
v 0.063000 0.140000 0.014000
v 0.063000 0.140000 -0.084000
v -0.182000 0.140000 0.077000
v -0.182000 0.140000 0.049000
v -0.182000 0.140000 0.007000
v -0.175000 0.140000 0.042000
v -0.175000 0.140000 0.014000
v -0.175000 0.140000 0.084000
v -0.182000 0.140000 -0.077000
v -0.161000 0.140000 0.042000
v -0.161000 0.140000 0.014000
v -0.154000 0.140000 0.077000
v -0.154000 0.140000 0.007000
v -0.161000 0.140000 0.084000
v -0.154000 0.140000 0.049000
v -0.175000 0.140000 -0.084000
v -0.126000 0.140000 -0.049000
v -0.119000 0.140000 -0.014000
v -0.119000 0.140000 -0.042000
v -0.119000 0.140000 0.084000
v -0.126000 0.140000 -0.007000
v -0.105000 0.140000 -0.042000
v -0.105000 0.140000 -0.014000
v -0.098000 0.140000 0.077000
v -0.098000 0.140000 -0.049000
v -0.070000 0.140000 0.077000
v -0.070000 0.140000 0.049000
v -0.098000 0.140000 -0.007000
v -0.070000 0.140000 0.007000
v -0.105000 0.140000 0.084000
v -0.126000 0.140000 0.077000
v -0.063000 0.140000 0.042000
v -0.063000 0.140000 0.014000
v -0.042000 0.140000 0.077000
v -0.049000 0.140000 0.042000
v -0.049000 0.140000 0.014000
v -0.049000 0.140000 0.084000
v -0.014000 0.140000 -0.007000
v -0.042000 0.140000 0.007000
v -0.007000 0.140000 0.084000
v 0.014000 0.140000 0.077000
v 0.007000 0.140000 0.084000
v -0.014000 0.140000 0.077000
v -0.042000 0.140000 0.049000
v 0.049000 0.140000 0.084000
v 0.042000 0.140000 0.049000
v 0.070000 0.140000 0.077000
v 0.063000 0.140000 0.042000
v 0.063000 0.140000 0.084000
v 0.042000 0.140000 0.077000
v 0.070000 0.140000 0.049000
v 0.049000 0.140000 0.042000
v 0.119000 0.140000 0.084000
v 0.105000 0.140000 0.084000
v 0.161000 0.140000 0.084000
v 0.126000 0.140000 0.077000
v 0.098000 0.140000 0.077000
v -0.063000 0.140000 0.084000
v 0.203000 -0.000000 0.112000
v -0.203000 -0.000000 0.112000
v 0.210000 0.000000 -0.105000
v 0.210000 -0.000000 0.105000
v -0.007000 -0.000000 -0.042000
v -0.007000 -0.000000 -0.014000
v 0.007000 -0.000000 -0.014000
v 0.014000 -0.000000 -0.007000
v 0.014000 -0.000000 0.077000
v -0.049000 -0.000000 0.014000
v -0.049000 -0.000000 0.042000
v 0.042000 -0.000000 0.007000
v 0.042000 0.000000 -0.077000
v 0.014000 0.000000 -0.077000
v 0.014000 -0.000000 -0.049000
v 0.007000 -0.000000 -0.042000
v 0.126000 -0.000000 -0.007000
v 0.154000 -0.000000 0.007000
v 0.070000 -0.000000 0.007000
v 0.098000 -0.000000 -0.007000
v 0.119000 -0.000000 -0.014000
v 0.119000 -0.000000 -0.042000
v 0.105000 -0.000000 -0.042000
v 0.105000 -0.000000 -0.014000
v 0.126000 -0.000000 0.077000
v 0.154000 -0.000000 0.077000
v 0.154000 -0.000000 0.077000
v 0.154000 -0.000000 0.049000
v 0.161000 -0.000000 0.042000
v 0.175000 -0.000000 0.042000
v 0.175000 -0.000000 0.014000
v 0.161000 -0.000000 0.014000
v 0.154000 0.000000 -0.077000
v 0.126000 0.000000 -0.077000
v 0.126000 -0.000000 -0.049000
v -0.175000 -0.000000 0.042000
v -0.161000 -0.000000 0.042000
v -0.154000 -0.000000 0.049000
v -0.154000 -0.000000 0.077000
v -0.126000 -0.000000 0.077000
v -0.126000 -0.000000 -0.007000
v -0.042000 0.000000 -0.077000
v -0.014000 -0.000000 -0.049000
v -0.154000 -0.000000 0.007000
v -0.161000 -0.000000 0.014000
v -0.175000 -0.000000 0.014000
v -0.182000 -0.000000 0.007000
v -0.182000 0.000000 -0.077000
v -0.210000 0.000000 -0.105000
v -0.210000 -0.000000 0.105000
v -0.175000 -0.000000 0.084000
v -0.182000 -0.000000 0.077000
v -0.182000 -0.000000 0.049000
v -0.105000 -0.000000 -0.042000
v -0.119000 -0.000000 -0.042000
v -0.119000 -0.000000 -0.014000
v -0.105000 -0.000000 -0.014000
v -0.098000 -0.000000 -0.007000
v -0.098000 -0.000000 0.077000
v -0.070000 -0.000000 0.077000
v -0.070000 -0.000000 0.049000
v -0.063000 -0.000000 0.042000
v -0.042000 -0.000000 0.049000
v -0.042000 -0.000000 0.077000
v -0.014000 -0.000000 0.077000
v -0.014000 -0.000000 -0.007000
v -0.070000 -0.000000 0.007000
v -0.042000 -0.000000 0.007000
v -0.063000 -0.000000 0.014000
v -0.070000 0.000000 -0.077000
v -0.098000 0.000000 -0.077000
v -0.098000 -0.000000 -0.049000
v -0.014000 0.000000 -0.077000
v -0.007000 0.000000 -0.084000
v 0.007000 0.000000 -0.084000
v 0.049000 0.000000 -0.084000
v 0.063000 0.000000 -0.084000
v 0.070000 0.000000 -0.077000
v 0.098000 -0.000000 -0.049000
v 0.098000 0.000000 -0.077000
v 0.105000 0.000000 -0.084000
v 0.119000 0.000000 -0.084000
v 0.161000 0.000000 -0.084000
v 0.175000 0.000000 -0.084000
v 0.182000 0.000000 -0.077000
v 0.182000 -0.000000 0.007000
v 0.182000 -0.000000 0.049000
v 0.182000 -0.000000 0.077000
v 0.175000 -0.000000 0.084000
v 0.161000 -0.000000 0.084000
v 0.119000 -0.000000 0.084000
v 0.105000 -0.000000 0.084000
v 0.098000 -0.000000 0.077000
v 0.070000 -0.000000 0.077000
v 0.063000 -0.000000 0.084000
v 0.049000 -0.000000 0.084000
v 0.042000 -0.000000 0.077000
v 0.042000 -0.000000 0.049000
v 0.049000 -0.000000 0.042000
v 0.063000 -0.000000 0.042000
v 0.070000 -0.000000 0.049000
v 0.063000 -0.000000 0.014000
v 0.049000 -0.000000 0.014000
v 0.007000 -0.000000 0.084000
v -0.007000 -0.000000 0.084000
v -0.049000 -0.000000 0.084000
v -0.063000 -0.000000 0.084000
v -0.105000 -0.000000 0.084000
v -0.119000 -0.000000 0.084000
v -0.161000 -0.000000 0.084000
v 0.203000 0.000000 -0.112000
v -0.203000 0.000000 -0.112000
v -0.175000 0.000000 -0.084000
v -0.161000 0.000000 -0.084000
v -0.154000 0.000000 -0.077000
v -0.126000 -0.000000 -0.049000
v -0.126000 0.000000 -0.077000
v -0.119000 0.000000 -0.084000
v -0.105000 0.000000 -0.084000
v -0.063000 0.000000 -0.084000
v -0.049000 0.000000 -0.084000
vn -0.0000 1.0000 -0.0000
vn -0.0000 -1.0000 -0.0000
vn 0.9239 -0.0000 -0.3827
vn 0.9239 -0.0000 0.3827
vn 1.0000 -0.0000 -0.0000
vn 0.3827 -0.0000 0.9239
vn 0.3827 -0.0000 -0.9239
vn -0.3827 -0.0000 0.9239
vn -0.3827 -0.0000 -0.9239
vn -0.9239 -0.0000 0.3827
vn -0.9239 -0.0000 -0.3827
vt 0.764000 0.336381
vt 0.792000 0.308381
vt 0.764000 0.308381
vt 0.820000 0.392381
vt 0.820000 0.434381
vt 0.848000 0.462381
vt 0.848000 0.378381
vt 0.904000 0.392381
vt 0.876000 0.378381
vt 0.876000 0.462381
vt 0.904000 0.434381
vt 0.575000 0.427381
vt 0.575000 0.399381
vt 0.568000 0.392381
vt 0.568000 0.434381
vt 0.652000 0.462381
vt 0.680000 0.462381
vt 0.680000 0.434381
vt 0.652000 0.378381
vt 0.652000 0.336381
vt 0.645000 0.343381
vt 0.645000 0.371381
vt 0.792000 0.434381
vt 0.764000 0.462381
vt 0.792000 0.462381
vt 0.736000 0.378381
vt 0.708000 0.392381
vt 0.708000 0.434381
vt 0.736000 0.462381
vt 0.540000 0.490381
vt 0.568000 0.462381
vt 0.596000 0.434381
vt 0.596000 0.462381
vt 0.624000 0.462381
vt 0.589000 0.427381
vt 0.589000 0.399381
vt 0.596000 0.392381
vt 0.589000 0.469381
vt 0.631000 0.469381
vt 0.645000 0.469381
vt 0.687000 0.469381
vt 0.701000 0.469381
vt 0.743000 0.469381
vt 0.708000 0.462381
vt 0.757000 0.469381
vt 0.799000 0.469381
vt 0.813000 0.469381
vt 0.855000 0.469381
vt 0.820000 0.462381
vt 0.869000 0.469381
vt 0.911000 0.469381
vt 0.904000 0.462381
vt 0.932000 0.434381
vt 0.932000 0.392381
vt 0.925000 0.399381
vt 0.925000 0.427381
vt 0.911000 0.427381
vt 0.911000 0.399381
vt 0.792000 0.392381
vt 0.799000 0.427381
vt 0.799000 0.399381
vt 0.813000 0.427381
vt 0.813000 0.399381
vt 0.708000 0.308381
vt 0.736000 0.336381
vt 0.701000 0.399381
vt 0.701000 0.427381
vt 0.687000 0.399381
vt 0.687000 0.427381
vt 0.680000 0.392381
vt 0.652000 0.308381
vt 0.680000 0.308381
vt 0.631000 0.343381
vt 0.631000 0.371381
vt 0.624000 0.336381
vt 0.624000 0.378381
vt 0.624000 0.308381
vt 0.596000 0.308381
vt 0.820000 0.308381
vt 0.848000 0.336381
vt 0.764000 0.378381
vt 0.701000 0.301381
vt 0.743000 0.301381
vt 0.547000 0.273381
vt 0.869000 0.343381
vt 0.869000 0.371381
vt 0.876000 0.336381
vt 0.904000 0.308381
vt 0.855000 0.343381
vt 0.855000 0.371381
vt 0.911000 0.301381
vt 0.869000 0.301381
vt 0.876000 0.308381
vt 0.855000 0.301381
vt 0.813000 0.301381
vt 0.848000 0.308381
vt 0.687000 0.301381
vt 0.645000 0.301381
vt 0.631000 0.301381
vt 0.589000 0.301381
vt 0.799000 0.301381
vt 0.757000 0.301381
vt 0.736000 0.308381
vt 0.904000 0.462381
vt 0.575000 0.301381
vt 0.540000 0.280381
vt 0.568000 0.308381
vt 0.547000 0.497381
vt 0.575000 0.469381
vt 0.953000 0.497381
vt 0.925000 0.469381
vt 0.960000 0.490381
vt 0.932000 0.462381
vt 0.960000 0.280381
vt 0.932000 0.308381
vt 0.953000 0.273381
vt 0.925000 0.301381
vt 0.743000 0.371381
vt 0.743000 0.343381
vt 0.757000 0.343381
vt 0.757000 0.371381
vt 0.913065 0.005960
vt 0.913065 0.129952
vt 0.882295 0.129952
vt 0.882295 0.005960
vt 0.966911 0.005960
vt 0.966911 0.129952
vt 0.936142 0.129952
vt 0.936142 0.005960
vt 0.859375 0.000000
vt 0.859375 0.130208
vt 0.848958 0.130208
vt 0.848958 0.000000
vt 0.874603 0.129952
vt 0.874603 0.005960
vt 0.909218 0.129952
vt 0.909218 0.005960
vt 0.916911 0.005960
vt 0.916911 0.129952
vt 0.645833 0.000000
vt 0.645833 0.130208
vt 0.635417 0.130208
vt 0.635417 0.000000
vt 0.916911 0.129952
vt 0.916911 0.005960
vt 0.932295 0.005960
vt 0.932295 0.129952
vt 0.953125 0.270800
vt 0.953125 0.135383
vt 0.546875 0.135383
vt 0.546875 0.270800
vt 0.939988 0.005960
vt 0.939988 0.129952
vt 0.928449 0.129952
vt 0.928449 0.005960
vt 0.951526 0.005960
vt 0.951526 0.129952
vt 0.932295 0.005960
vt 0.932295 0.129952
vt 0.959218 0.005960
vt 0.959218 0.129952
vt 0.974603 0.005960
vt 0.974603 0.129952
vt 0.882295 0.129952
vt 0.939988 0.005960
vt 0.939988 0.129952
vt 0.909219 0.129952
vt 0.909219 0.005960
vt 0.920757 0.005960
vt 0.920757 0.129952
vt 0.889988 0.129952
vt 0.889988 0.005960
vt 0.897680 0.005960
vt 0.897680 0.129952
vt 0.974603 0.129952
vt 0.974603 0.005960
vt 0.909218 0.005960
vt 0.909218 0.129952
vt 0.939988 0.129952
vt 0.939988 0.005960
s 1
usemtl bricks_1
f 30/1/1 26/2/1 27/3/1
f 34/4/1 114/5/1 120/6/1 35/7/1
f 49/8/1 43/9/1 119/10/1 48/11/1
f 69/12/1 70/13/1 68/14/1 67/15/1
f 87/16/1 89/17/1 90/18/1
f 91/19/1 88/20/1 85/21/1 86/22/1
f 109/23/1 104/24/1 113/25/1
f 101/26/1 102/27/1 107/28/1 106/29/1
f 67/15/1 1/30/1 66/31/1
f 78/32/1 75/33/1 94/34/1
f 70/13/1 69/12/1 73/35/1 74/36/1
f 74/36/1 73/35/1 78/32/1 76/37/1
f 77/38/1 83/39/1 94/34/1 75/33/1
f 93/40/1 121/41/1 89/17/1 87/16/1
f 100/42/1 103/43/1 106/29/1 97/44/1
f 105/45/1 108/46/1 113/25/1 104/24/1
f 112/47/1 117/48/1 120/6/1 110/49/1
f 116/50/1 118/51/1 62/52/1 119/10/1
f 58/53/1 59/54/1 55/55/1 54/56/1
f 49/8/1 48/11/1 50/57/1 51/58/1
f 51/58/1 50/57/1 54/56/1 55/55/1
f 29/59/1 109/23/1 115/60/1 31/61/1
f 31/61/1 115/60/1 111/62/1 64/63/1
f 64/63/1 111/62/1 114/5/1 34/4/1
f 17/64/1 102/27/1 101/26/1 18/65/1
f 107/28/1 102/27/1 99/66/1 98/67/1
f 98/67/1 99/66/1 96/68/1 95/69/1
f 95/69/1 96/68/1 92/70/1 90/18/1
f 91/19/1 87/16/1 90/18/1 92/70/1
f 15/71/1 88/20/1 14/72/1
f 86/22/1 85/21/1 82/73/1 81/74/1
f 88/20/1 91/19/1 92/70/1 14/72/1
f 80/75/1 84/76/1 81/74/1 82/73/1
f 11/77/1 9/78/1 80/75/1
f 40/79/1 34/4/1 35/7/1 39/80/1
f 80/75/1 9/78/1 76/37/1 84/76/1
f 84/76/1 76/37/1 78/32/1 94/34/1
f 29/59/1 26/2/1 30/1/1 28/81/1
f 16/82/1 25/83/1 3/84/1
f 41/85/1 42/86/1 43/9/1 44/87/1
f 44/87/1 43/9/1 49/8/1 53/88/1
f 42/86/1 41/85/1 37/89/1 36/90/1
f 39/80/1 35/7/1 36/90/1 37/89/1
f 52/91/1 45/92/1 46/93/1 53/88/1
f 47/94/1 65/95/1 40/79/1 38/96/1
f 38/96/1 40/79/1 39/80/1
f 19/97/1 12/98/1 15/71/1 14/72/1
f 13/99/1 10/100/1 9/78/1 11/77/1
f 32/101/1 24/102/1 27/3/1 26/2/1
f 25/83/1 16/82/1 17/64/1 33/103/1
f 33/103/1 17/64/1 18/65/1
f 48/11/1 119/10/1 62/52/1 63/104/1
f 120/6/1 114/5/1 110/49/1
f 104/24/1 109/23/1 29/59/1 28/81/1
f 106/29/1 107/28/1 97/44/1
f 53/88/1 46/93/1 44/87/1
f 79/105/1 3/84/1 4/106/1 72/107/1
f 66/31/1 1/30/1 2/108/1 71/109/1
f 5/110/1 60/111/1 118/51/1
f 6/112/1 57/113/1 60/111/1 5/110/1
f 7/114/1 56/115/1 59/54/1
f 8/116/1 61/117/1 56/115/1 7/114/1
f 6/112/1 58/53/1 57/113/1
f 59/54/1 58/53/1 6/112/1 7/114/1
f 4/106/1 68/14/1 72/107/1
f 1/30/1 67/15/1 68/14/1 4/106/1
f 18/65/1 101/26/1 21/118/1 20/119/1
f 28/81/1 30/1/1 23/120/1 22/121/1
f 22/121/1 23/120/1 20/119/1 21/118/1
f 2/108/1 77/38/1 71/109/1
f 2/108/1 93/40/1 83/39/1
f 83/39/1 77/38/1 2/108/1
f 2/108/1 121/41/1 93/40/1
f 2/108/1 100/42/1 121/41/1
f 2/108/1 103/43/1 100/42/1
f 118/51/1 116/50/1 5/110/1
f 116/50/1 117/48/1 5/110/1
f 105/45/1 103/43/1 2/108/1 5/110/1
f 5/110/1 108/46/1 105/45/1
f 108/46/1 5/110/1 112/47/1
f 112/47/1 5/110/1 117/48/1
f 3/84/1 25/83/1 24/102/1 8/116/1
f 8/116/1 24/102/1 32/101/1
f 3/84/1 79/105/1 10/100/1
f 10/100/1 13/99/1 3/84/1
f 13/99/1 12/98/1 3/84/1
f 3/84/1 12/98/1 19/97/1
f 19/97/1 16/82/1 3/84/1
f 32/101/1 65/95/1 8/116/1
f 65/95/1 47/94/1 8/116/1
f 47/94/1 45/92/1 8/116/1
f 45/92/1 52/91/1 8/116/1
f 52/91/1 61/117/1 8/116/1
f 136/1/2 135/3/2 134/2/2
f 140/4/2 141/7/2 214/6/2 222/5/2
f 139/8/2 149/11/2 146/10/2 138/9/2
f 157/12/2 174/15/2 168/14/2 167/13/2
f 180/16/2 182/18/2 181/17/2
f 179/19/2 178/22/2 175/21/2 193/20/2
f 219/23/2 218/25/2 130/24/2
f 187/26/2 186/29/2 184/28/2 189/27/2
f 174/15/2 173/31/2 171/30/2
f 159/32/2 161/34/2 160/33/2
f 167/13/2 166/36/2 158/35/2 157/12/2
f 166/36/2 165/37/2 159/32/2 158/35/2
f 231/38/2 160/33/2 161/34/2 230/39/2
f 229/40/2 180/16/2 181/17/2 228/41/2
f 227/42/2 185/44/2 186/29/2 226/43/2
f 225/45/2 130/24/2 218/25/2 217/46/2
f 216/47/2 215/49/2 214/6/2 213/48/2
f 212/50/2 146/10/2 147/52/2 211/51/2
f 208/53/2 151/56/2 152/55/2 207/54/2
f 139/8/2 153/58/2 150/57/2 149/11/2
f 153/58/2 152/55/2 151/56/2 150/57/2
f 133/59/2 224/61/2 220/60/2 219/23/2
f 224/61/2 223/63/2 221/62/2 220/60/2
f 223/63/2 140/4/2 222/5/2 221/62/2
f 163/64/2 164/65/2 187/26/2 189/27/2
f 184/28/2 132/67/2 131/66/2 189/27/2
f 132/67/2 183/69/2 190/68/2 131/66/2
f 183/69/2 182/18/2 188/70/2 190/68/2
f 179/19/2 188/70/2 182/18/2 180/16/2
f 192/71/2 191/72/2 193/20/2
f 178/22/2 177/74/2 176/73/2 175/21/2
f 193/20/2 191/72/2 188/70/2 179/19/2
f 237/75/2 176/73/2 177/74/2 162/76/2
f 238/77/2 237/75/2 236/78/2
f 199/79/2 200/80/2 141/7/2 140/4/2
f 237/75/2 162/76/2 165/37/2 236/78/2
f 162/76/2 161/34/2 159/32/2 165/37/2
f 133/59/2 129/81/2 136/1/2 134/2/2
f 242/82/2 233/84/2 195/83/2
f 143/85/2 156/87/2 138/9/2 142/86/2
f 156/87/2 154/88/2 139/8/2 138/9/2
f 142/86/2 145/90/2 144/89/2 143/85/2
f 200/80/2 144/89/2 145/90/2 141/7/2
f 204/91/2 154/88/2 155/93/2 203/92/2
f 202/94/2 201/96/2 199/79/2 198/95/2
f 201/96/2 200/80/2 199/79/2
f 241/97/2 191/72/2 192/71/2 240/98/2
f 239/99/2 238/77/2 236/78/2 235/100/2
f 197/101/2 134/2/2 135/3/2 196/102/2
f 195/83/2 194/103/2 163/64/2 242/82/2
f 194/103/2 164/65/2 163/64/2
f 149/11/2 148/104/2 147/52/2 146/10/2
f 214/6/2 215/49/2 222/5/2
f 130/24/2 129/81/2 133/59/2 219/23/2
f 186/29/2 185/44/2 184/28/2
f 154/88/2 156/87/2 155/93/2
f 234/105/2 169/107/2 170/106/2 233/84/2
f 173/31/2 172/109/2 123/108/2 171/30/2
f 122/110/2 211/51/2 210/111/2
f 125/112/2 122/110/2 210/111/2 209/113/2
f 124/114/2 207/54/2 206/115/2
f 232/116/2 124/114/2 206/115/2 205/117/2
f 125/112/2 209/113/2 208/53/2
f 207/54/2 124/114/2 125/112/2 208/53/2
f 170/106/2 169/107/2 168/14/2
f 171/30/2 170/106/2 168/14/2 174/15/2
f 164/65/2 126/119/2 127/118/2 187/26/2
f 129/81/2 128/121/2 137/120/2 136/1/2
f 128/121/2 127/118/2 126/119/2 137/120/2
f 123/108/2 172/109/2 231/38/2
f 123/108/2 230/39/2 229/40/2
f 230/39/2 123/108/2 231/38/2
f 123/108/2 229/40/2 228/41/2
f 123/108/2 228/41/2 227/42/2
f 123/108/2 227/42/2 226/43/2
f 211/51/2 122/110/2 212/50/2
f 212/50/2 122/110/2 213/48/2
f 225/45/2 122/110/2 123/108/2 226/43/2
f 122/110/2 225/45/2 217/46/2
f 217/46/2 216/47/2 122/110/2
f 216/47/2 213/48/2 122/110/2
f 233/84/2 232/116/2 196/102/2 195/83/2
f 232/116/2 197/101/2 196/102/2
f 233/84/2 235/100/2 234/105/2
f 235/100/2 233/84/2 239/99/2
f 239/99/2 233/84/2 240/98/2
f 233/84/2 241/97/2 240/98/2
f 241/97/2 233/84/2 242/82/2
f 197/101/2 232/116/2 198/95/2
f 198/95/2 232/116/2 202/94/2
f 202/94/2 232/116/2 203/92/2
f 203/92/2 232/116/2 204/91/2
f 204/91/2 232/116/2 205/117/2
f 18/122/3 164/123/3 194/124/4 33/125/4
f 63/126/5 148/127/5 149/128/4 48/129/4
f 5/130/6 122/131/6 125/132/4 6/133/4
f 33/125/4 194/124/4 195/134/6 25/135/6
f 48/136/4 149/137/4 150/138/6 50/139/6
f 7/140/3 124/141/3 232/142/7 8/143/7
f 25/144/6 195/145/6 196/146/8 24/147/8
f 50/139/6 150/138/6 151/146/8 54/147/8
f 8/148/7 232/149/7 233/150/9 3/151/9
f 24/147/8 196/146/8 135/152/10 27/153/10
f 3/143/9 233/142/9 170/141/11 4/140/11
f 26/154/4 134/155/4 197/129/6 32/128/6
f 55/147/9 152/146/9 153/138/7 51/139/7
f 72/136/4 169/137/4 234/138/6 79/139/6
f 32/128/6 197/129/6 198/156/8 65/157/8
f 51/139/7 153/138/7 139/137/3 49/136/3
f 79/139/6 234/138/6 235/158/8 10/159/8
f 65/157/8 198/156/8 199/160/10 40/161/10
f 49/162/3 139/163/3 154/164/4 53/125/4
f 10/159/8 235/158/8 236/165/10 9/166/10
f 40/125/10 199/164/10 140/163/11 34/162/11
f 9/125/10 236/164/10 165/163/11 76/162/11
f 35/167/4 141/168/4 145/138/6 36/139/6
f 46/125/10 155/124/10 156/123/11 44/122/11
f 37/169/7 144/170/7 200/123/3 39/122/3
f 44/153/11 156/152/11 143/146/9 41/147/9
f 84/136/4 162/137/4 177/138/6 81/139/6
f 39/122/3 200/123/3 201/124/4 38/125/4
f 69/139/6 157/138/6 158/158/8 73/159/8
f 82/139/7 176/138/7 237/137/3 80/136/3
f 38/125/4 201/124/4 202/134/6 47/135/6
f 73/159/8 158/158/8 159/165/10 78/166/10
f 80/122/3 237/123/3 238/124/4 11/125/4
f 47/139/6 202/138/6 203/146/8 45/147/8
f 78/129/10 159/128/10 160/127/11 75/126/11
f 11/125/4 238/124/4 239/134/6 13/135/6
f 45/147/8 203/146/8 155/152/10 46/153/10
f 13/139/6 239/138/6 240/146/8 12/147/8
f 53/136/4 154/137/4 204/138/6 52/139/6
f 94/126/3 161/127/3 162/134/4 84/135/4
f 12/135/8 240/134/8 192/124/10 15/125/10
f 52/139/6 204/138/6 205/146/8 61/147/8
f 14/171/4 191/172/4 241/173/6 19/174/6
f 61/147/8 205/146/8 206/165/10 56/166/10
f 76/166/11 165/165/11 166/158/9 74/159/9
f 19/174/6 241/173/6 242/122/8 16/123/8
f 56/125/10 206/164/10 207/163/11 59/162/11
f 74/159/9 166/158/9 167/138/7 70/139/7
f 16/123/8 242/122/8 163/169/10 17/170/10
f 59/166/11 207/165/11 152/146/9 55/147/9
f 70/152/7 167/153/7 168/147/3 68/146/3
f 17/125/10 163/164/10 189/163/11 102/162/11
f 54/147/8 151/146/8 208/165/10 58/166/10
f 68/162/3 168/163/3 169/164/4 72/125/4
f 120/126/3 214/127/3 141/134/4 35/135/4
f 58/129/10 208/128/10 209/127/11 57/126/11
f 114/129/10 222/128/10 215/127/11 110/126/11
f 57/166/11 209/165/11 210/146/9 60/147/9
f 4/140/11 170/141/11 171/132/10 1/133/10
f 60/147/9 210/146/9 211/138/7 118/139/7
f 1/133/10 171/132/10 123/131/8 2/130/8
f 118/139/7 211/138/7 147/137/3 62/136/3
f 119/126/11 146/127/11 212/175/9 116/176/9
f 71/139/7 172/138/7 173/137/3 66/136/3
f 116/147/9 212/146/9 213/138/7 117/139/7
f 66/126/3 173/127/3 174/128/4 67/129/4
f 117/139/7 213/138/7 214/177/3 120/178/3
f 67/136/4 174/137/4 157/138/6 69/139/6
f 85/147/9 175/146/9 176/138/7 82/139/7
f 110/126/11 215/127/11 216/175/9 112/176/9
f 2/151/8 123/150/8 122/149/6 5/148/6
f 112/157/9 216/156/9 217/129/7 108/128/7
f 81/139/6 177/138/6 178/146/8 86/147/8
f 6/133/4 125/132/4 124/141/3 7/140/3
f 108/128/7 217/129/7 218/155/3 113/154/3
f 86/147/8 178/146/8 179/152/10 91/153/10
f 113/126/3 218/127/3 219/128/4 109/129/4
f 91/135/10 179/134/10 180/127/11 87/126/11
f 21/144/6 127/145/6 128/146/8 22/147/8
f 109/154/4 219/155/4 220/129/6 115/128/6
f 22/147/8 128/146/8 129/152/10 28/153/10
f 115/128/6 220/129/6 221/156/8 111/157/8
f 89/126/3 181/127/3 182/128/4 90/129/4
f 28/135/10 129/134/10 130/127/11 104/126/11
f 111/155/8 221/154/8 222/128/10 114/129/10
f 90/129/4 182/128/4 183/154/6 95/155/6
f 95/174/6 183/173/6 132/122/8 98/123/8
f 29/162/3 133/163/3 134/164/4 26/125/4
f 98/123/8 132/122/8 184/169/10 107/170/10
f 34/146/11 140/147/11 223/153/9 64/152/9
f 107/129/10 184/128/10 185/127/11 97/126/11
f 27/125/10 135/124/10 136/123/11 30/122/11
f 64/157/9 223/156/9 224/129/7 31/128/7
f 30/153/11 136/152/11 137/146/9 23/147/9
f 31/128/7 224/129/7 133/155/3 29/154/3
f 106/126/3 186/127/3 187/134/4 101/135/4
f 23/147/9 137/146/9 126/145/7 20/144/7
f 104/179/11 130/180/11 225/146/9 105/147/9
f 102/170/11 189/169/11 131/122/9 99/123/9
f 105/147/9 225/146/9 226/138/7 103/139/7
f 99/123/9 131/122/9 190/173/7 96/174/7
f 103/139/7 226/138/7 186/177/3 106/178/3
f 96/152/7 190/153/7 188/147/3 92/146/3
f 97/170/11 185/169/11 227/122/9 100/123/9
f 92/162/3 188/163/3 191/164/4 14/125/4
f 41/147/9 143/146/9 144/138/7 37/139/7
f 100/123/9 227/122/9 228/173/7 121/174/7
f 121/176/7 228/175/7 181/127/3 89/126/3
f 15/125/10 192/124/10 193/123/11 88/122/11
f 36/139/6 145/138/6 142/146/8 42/147/8
f 87/166/11 180/165/11 229/146/9 93/147/9
f 88/153/11 193/152/11 175/146/9 85/147/9
f 42/168/8 142/167/8 138/144/10 43/145/10
f 93/147/9 229/146/9 230/138/7 83/139/7
f 43/135/10 138/134/10 146/127/11 119/126/11
f 83/139/7 230/138/7 161/177/3 94/178/3
f 101/136/4 187/137/4 127/145/6 21/144/6
f 75/166/11 160/165/11 231/158/9 77/159/9
f 20/144/7 126/145/7 164/137/3 18/136/3
f 62/126/3 147/127/3 148/127/5 63/126/5
f 77/159/9 231/158/9 172/138/7 71/139/7
