# Blender 5.0.1
# www.blender.org
mtllib car_battery_1.mtl
o car_battery_1
v -0.183499 0.187200 0.097172
v -0.167134 0.187200 0.112320
v -0.178300 0.187200 0.107883
v -0.167134 0.187200 -0.112320
v -0.182612 0.187023 -0.098059
v -0.178041 0.187148 -0.108143
v 0.167134 0.187200 0.112320
v 0.182612 0.187023 0.098059
v 0.178041 0.187148 0.108143
v 0.183499 0.187200 -0.097172
v 0.167134 0.187200 -0.112320
v 0.178300 0.187200 -0.107883
v -0.171841 0.187200 -0.117000
v -0.187200 0.187200 -0.101021
v -0.182701 0.187200 -0.112320
v -0.187200 0.187200 0.101021
v -0.171841 0.187200 0.117000
v -0.182701 0.187200 0.112320
v 0.187200 0.187200 -0.101021
v 0.171841 0.187200 -0.117000
v 0.182701 0.187200 -0.112320
v 0.171841 0.187200 0.117000
v 0.187200 0.187200 0.101021
v 0.182701 0.187200 0.112320
v -0.170890 0.180180 -0.114566
v -0.186170 0.180180 -0.100260
v -0.181695 0.180180 -0.110376
v -0.186170 0.180180 0.100260
v -0.170890 0.180180 0.114566
v -0.181695 0.180180 0.110376
v 0.186170 0.180180 -0.100260
v 0.170890 0.180180 -0.114566
v 0.181695 0.180180 -0.110376
v 0.170890 0.180180 0.114566
v 0.186170 0.180180 0.100260
v 0.181695 0.180180 0.110376
v -0.186170 0.000000 -0.100269
v -0.170935 0.000000 -0.114566
v -0.181708 0.000000 -0.110379
v -0.170935 0.000000 0.114566
v -0.186170 0.000000 0.100269
v -0.181708 0.000000 0.110379
v 0.170935 0.000000 -0.114566
v 0.186170 0.000000 -0.100269
v 0.181708 0.000000 -0.110379
v 0.186170 0.000000 0.100269
v 0.170935 0.000000 0.114566
v 0.181708 0.000000 0.110379
v -0.187200 0.234000 0.101081
v -0.171882 0.234000 0.117000
v -0.182713 0.234000 0.112337
v -0.171882 0.234000 -0.117000
v -0.187200 0.234000 -0.101081
v -0.182713 0.234000 -0.112337
v 0.171882 0.234000 0.117000
v 0.187200 0.234000 0.101081
v 0.182713 0.234000 0.112337
v 0.187200 0.234000 -0.101081
v 0.171882 0.234000 -0.117000
v 0.182713 0.234000 -0.112337
v 0.112320 0.234000 0.023400
v 0.175500 0.234000 0.023400
v 0.175500 0.234000 -0.098280
v -0.175500 0.234000 0.023400
v -0.175500 0.234000 -0.098280
v -0.112320 0.234000 0.098280
v -0.112320 0.234000 0.023400
v 0.112320 0.234000 0.098280
v -0.175500 0.252720 0.023400
v -0.170820 0.257400 0.018720
v -0.170820 0.257400 -0.093600
v -0.175500 0.252720 -0.098280
v -0.112320 0.252720 0.023400
v -0.107640 0.257400 0.018720
v 0.107640 0.257400 0.018720
v 0.112320 0.252720 0.023400
v 0.170820 0.257400 0.018720
v 0.175500 0.252720 0.023400
v 0.170820 0.257400 -0.093600
v 0.175500 0.252720 -0.098280
v -0.107640 0.257400 0.093600
v -0.112320 0.252720 0.098280
v 0.107640 0.257400 0.093600
v 0.112320 0.252720 0.098280
v -0.166468 0.261400 0.060840
v -0.149760 0.261400 0.077548
v -0.161574 0.261400 0.072654
v -0.149760 0.261400 0.044132
v -0.161574 0.261400 0.049026
v -0.133052 0.261400 0.060840
v -0.137946 0.261400 0.072654
v -0.137946 0.261400 0.049026
v -0.166464 0.238000 0.060840
v -0.149760 0.238000 0.044132
v -0.149760 0.238000 0.077548
v -0.161576 0.238000 0.072654
v -0.161576 0.238000 0.049025
v -0.133052 0.238000 0.060840
v -0.137948 0.238000 0.072654
v -0.137948 0.238000 0.049025
v -0.171475 0.238000 0.060840
v -0.149760 0.238000 0.039120
v -0.149760 0.238000 0.082560
v -0.165120 0.238000 0.076198
v -0.165120 0.238000 0.045481
v -0.128039 0.238000 0.060840
v -0.134404 0.238000 0.076198
v -0.134404 0.238000 0.045481
v -0.171475 0.234000 0.060840
v -0.149760 0.234000 0.039120
v -0.149760 0.234000 0.082560
v -0.165120 0.234000 0.076198
v -0.165120 0.234000 0.045481
v -0.128039 0.234000 0.060840
v -0.134404 0.234000 0.076198
v -0.134404 0.234000 0.045481
v -0.149760 0.261400 0.060840
v 0.133532 0.261400 0.060840
v 0.150239 0.261400 0.077548
v 0.138425 0.261400 0.072654
v 0.150239 0.261400 0.044132
v 0.138425 0.261400 0.049026
v 0.166947 0.261400 0.060840
v 0.162053 0.261400 0.072654
v 0.162053 0.261400 0.049026
v 0.133535 0.238000 0.060840
v 0.150239 0.238000 0.044132
v 0.150239 0.238000 0.077548
v 0.138424 0.238000 0.072654
v 0.138424 0.238000 0.049025
v 0.166947 0.238000 0.060840
v 0.162051 0.238000 0.072654
v 0.162051 0.238000 0.049025
v 0.128524 0.238000 0.060840
v 0.150240 0.238000 0.039120
v 0.150240 0.238000 0.082560
v 0.134879 0.238000 0.076198
v 0.134879 0.238000 0.045481
v 0.171960 0.238000 0.060840
v 0.165595 0.238000 0.076198
v 0.165595 0.238000 0.045481
v 0.128524 0.234000 0.060840
v 0.150240 0.234000 0.039120
v 0.150240 0.234000 0.082560
v 0.134879 0.234000 0.076198
v 0.134879 0.234000 0.045481
v 0.171960 0.234000 0.060840
v 0.165595 0.234000 0.076198
v 0.165595 0.234000 0.045481
v 0.150239 0.261400 0.060840
vn -0.0175 -0.9998 -0.0077
vn -0.0189 -0.9998 -0.0047
vn -0.0141 -0.9999 0.0003
vn -0.0059 -1.0000 0.0001
vn -0.0079 -0.9999 -0.0092
vn -0.0073 -0.9999 -0.0090
vn 0.2020 -0.0002 -0.9794
vn 0.7168 -0.0004 -0.6973
vn 0.2018 -0.0002 -0.9794
vn -0.8546 0.4798 -0.1986
vn -0.8559 0.4658 0.2248
vn -0.8795 0.4507 0.1529
vn -0.8692 0.4677 -0.1603
vn -0.9821 -0.0002 0.1886
vn -0.9821 -0.0002 0.1883
vn -0.7168 -0.0004 0.6973
vn -0.2086 0.3967 -0.8940
vn -0.1240 0.3615 -0.9241
vn 0.1258 0.3649 -0.9225
vn 0.2106 0.4019 -0.8912
vn 0.9821 -0.0002 -0.1886
vn 0.9821 -0.0002 -0.1883
vn 0.0175 -0.9998 0.0077
vn 0.0189 -0.9998 0.0047
vn 0.0141 -0.9999 -0.0003
vn 0.0059 -1.0000 -0.0001
vn -0.1841 -0.0000 -0.9829
vn -0.6908 0.0001 -0.7231
vn -0.6907 0.0001 -0.7231
vn -0.0000 -1.0000 -0.0000
vn -0.0000 -1.0000 -0.0019
vn -0.0000 -1.0000 -0.0042
vn -0.2018 -0.0002 -0.9794
vn -0.2020 -0.0002 -0.9794
vn 0.0674 -0.9308 -0.3593
vn 0.2452 -0.9349 -0.2565
vn 0.3562 -0.9314 -0.0751
vn 0.3562 -0.9314 0.0751
vn 0.2452 -0.9349 0.2565
vn 0.0674 -0.9308 0.3593
vn -0.0674 -0.9308 0.3593
vn -0.2452 -0.9349 0.2565
vn -0.3562 -0.9314 0.0751
vn -0.3562 -0.9314 -0.0751
vn -0.2452 -0.9349 -0.2565
vn -0.0674 -0.9308 -0.3593
vn 0.1841 -0.0000 -0.9829
vn 0.6907 0.0001 -0.7231
vn 0.6908 0.0001 -0.7231
vn -0.2018 -0.0002 0.9794
vn -0.2020 -0.0002 0.9794
vn -0.9784 -0.0000 0.2066
vn -0.6908 0.0001 0.7231
vn -0.6907 0.0001 0.7231
vn -0.9784 -0.0000 0.2065
vn 0.9821 -0.0002 0.1886
vn 0.7168 -0.0004 0.6973
vn 0.9821 -0.0002 0.1883
vn 0.2018 -0.0002 0.9794
vn 0.2020 -0.0002 0.9794
vn -0.7168 -0.0004 -0.6973
vn -0.9821 -0.0002 -0.1886
vn -0.9821 -0.0002 -0.1883
vn 0.0079 -0.9999 0.0092
vn 0.0073 -0.9999 0.0090
vn -0.5793 0.4942 0.6482
vn -0.6072 0.4966 0.6202
vn -0.2106 0.4019 0.8912
vn -0.1258 0.3649 0.9225
vn 0.5679 0.5060 0.6492
vn 0.1240 0.3615 0.9241
vn 0.2086 0.3967 0.8940
vn 0.6092 0.5131 0.6046
vn 0.8546 0.4798 0.1986
vn 0.8692 0.4677 0.1603
vn -0.5679 0.5060 -0.6492
vn -0.6092 0.5131 -0.6046
vn 0.8559 0.4658 -0.2248
vn 0.6072 0.4966 -0.6202
vn 0.5793 0.4942 -0.6482
vn 0.8795 0.4507 -0.1529
vn -0.9784 -0.0000 -0.2065
vn -0.9784 -0.0000 -0.2066
vn 0.1841 -0.0000 0.9829
vn -0.1841 -0.0000 0.9829
vn 0.9784 -0.0000 -0.2065
vn 0.9784 -0.0000 -0.2066
vn 0.6907 0.0001 0.7231
vn 0.6908 0.0001 0.7231
vn 0.9784 -0.0000 0.2066
vn 0.9784 -0.0000 0.2065
vn -0.0000 1.0000 -0.0000
vn 1.0000 -0.0000 -0.0000
vn -0.0000 -1.0000 0.0019
vn -0.0000 -1.0000 0.0042
vn -1.0000 -0.0000 -0.0000
vn -0.0000 -0.0000 -1.0000
vn -0.0000 -0.0000 1.0000
vn -0.0000 0.7071 -0.7071
vn 0.7071 0.7071 -0.0000
vn -0.7071 0.7071 -0.0000
vn -0.0000 0.7071 0.7071
vn -0.7072 -0.0000 -0.7070
vn -0.7072 -0.0000 -0.7071
vn 0.7071 -0.0000 -0.7071
vn 0.7071 -0.0000 0.7071
vn -0.7072 -0.0000 0.7070
vn -0.7072 -0.0000 0.7071
vn 0.0001 -0.0000 1.0000
vn 0.0001 -0.0000 -1.0000
vt 0.000000 0.748867
vt 0.004591 0.745856
vt 0.003703 0.559335
vt 0.000000 0.555422
vt 0.004592 0.760444
vt 0.004683 0.760352
vt 0.015330 0.760519
vt 0.000002 0.760519
vt 0.000000 0.721033
vt 0.015369 0.721033
vt 0.219538 0.499434
vt 0.014621 0.499434
vt 0.014621 0.504251
vt 0.219538 0.504130
vt 0.014565 0.546614
vt 0.000000 0.504251
vt 0.000003 0.546614
vt 0.359279 0.715087
vt 0.359285 0.721033
vt 0.015375 0.715087
vt 0.234159 0.504251
vt 0.234155 0.546614
vt 0.219594 0.546614
vt 0.219538 0.504251
vt 0.374654 0.555422
vt 0.370063 0.558433
vt 0.370951 0.744954
vt 0.374654 0.748867
vt 0.359324 0.545783
vt 0.374654 0.545782
vt 0.374654 0.715087
vt 0.015369 0.765110
vt 0.020080 0.760352
vt 0.354575 0.760352
vt 0.359285 0.765110
vt 0.359324 0.760519
vt 0.359657 0.066105
vt 0.370506 0.070323
vt 0.375000 0.080505
vt 0.375000 0.282476
vt 0.370506 0.292658
vt 0.359657 0.296875
vt 0.015344 0.296875
vt 0.004494 0.292658
vt 0.000000 0.282476
vt 0.000000 0.080505
vt 0.004494 0.070323
vt 0.015344 0.066105
vt 0.015330 0.545783
vt 0.000000 0.715087
vt 0.000000 0.545783
vt 0.000000 0.721033
vt 0.015369 0.721033
vt 0.015330 0.760519
vt 0.000002 0.760519
vt 0.014611 0.358926
vt 0.000000 0.358926
vt 0.000000 0.499434
vt 0.359285 0.721033
vt 0.359324 0.760519
vt 0.374654 0.721033
vt 0.374652 0.760519
vt 0.374654 0.721033
vt 0.370062 0.543844
vt 0.369971 0.543937
vt 0.369971 0.760352
vt 0.370062 0.760444
vt 0.000000 0.715087
vt 0.234159 0.499434
vt 0.219548 0.358926
vt 0.234159 0.358926
vt 0.359324 0.545782
vt 0.015375 0.715087
vt 0.015330 0.545782
vt 0.000000 0.545782
vt 0.359657 0.062500
vt 0.015343 0.062500
vt 0.004494 0.067170
vt 0.000000 0.078444
vt 0.000000 0.280930
vt 0.004494 0.292205
vt 0.015343 0.296875
vt 0.359657 0.296875
vt 0.370506 0.292205
vt 0.375000 0.280931
vt 0.375000 0.078444
vt 0.370507 0.067170
vt 0.152344 0.746094
vt 0.152344 0.761719
vt 0.070312 0.761719
vt 0.070312 0.746094
vt 0.234159 0.499434
vt 0.015369 0.539179
vt 0.020080 0.543937
vt 0.354575 0.543937
vt 0.359285 0.539179
vt 0.004683 0.543937
vt 0.004592 0.543844
vt 0.375000 0.746094
vt 0.000000 0.746094
vt 0.000000 0.761719
vt 0.375000 0.761719
vt 0.016478 0.977357
vt 0.016478 0.862085
vt 0.080736 0.862085
vt 0.304688 0.746094
vt 0.304688 0.761719
vt 0.358176 0.977357
vt 0.362946 0.982160
vt 0.011708 0.982160
vt 0.293918 0.784808
vt 0.293918 0.862113
vt 0.080736 0.862113
vt 0.080736 0.784808
vt 0.281250 0.746094
vt 0.281250 0.761719
vt 0.358176 0.862085
vt 0.362946 0.857282
vt 0.076102 0.857282
vt 0.076102 0.779976
vt 0.011708 0.857282
vt 0.080872 0.862085
vt 0.293783 0.862085
vt 0.298553 0.857282
vt 0.298553 0.779976
vt 0.301652 0.390161
vt 0.287438 0.404375
vt 0.287438 0.384274
vt 0.339844 0.394531
vt 0.339844 0.367188
vt 0.355469 0.367188
vt 0.355469 0.394531
vt 0.308594 0.394531
vt 0.308594 0.367188
vt 0.324219 0.367188
vt 0.324219 0.394531
vt 0.371094 0.367188
vt 0.371094 0.394531
vt 0.426681 0.404375
vt 0.420794 0.390163
vt 0.425059 0.385900
vt 0.432711 0.404374
vt 0.392366 0.390162
vt 0.386477 0.404373
vt 0.380447 0.404372
vt 0.388102 0.385898
vt 0.406578 0.424471
vt 0.420793 0.418590
vt 0.425057 0.422855
vt 0.406578 0.430500
vt 0.406580 0.384272
vt 0.406580 0.378241
vt 0.392365 0.418589
vt 0.388101 0.422853
vt 0.386719 0.429688
vt 0.406250 0.429688
vt 0.406250 0.433594
vt 0.386719 0.433594
vt 0.425781 0.429688
vt 0.425781 0.433594
vt 0.445312 0.429688
vt 0.445312 0.433594
vt 0.464844 0.429688
vt 0.464844 0.433594
vt 0.267337 0.404375
vt 0.273225 0.390161
vt 0.301652 0.418589
vt 0.307540 0.404375
vt 0.287438 0.424476
vt 0.273225 0.418589
vt 0.301652 0.468286
vt 0.287438 0.482500
vt 0.287438 0.462399
vt 0.339844 0.472656
vt 0.339844 0.445312
vt 0.355469 0.445312
vt 0.355469 0.472656
vt 0.308594 0.472656
vt 0.308594 0.445312
vt 0.324219 0.445312
vt 0.324219 0.472656
vt 0.371094 0.445312
vt 0.371094 0.472656
vt 0.426681 0.482500
vt 0.420794 0.468288
vt 0.425059 0.464025
vt 0.432711 0.482499
vt 0.392366 0.468287
vt 0.386477 0.482498
vt 0.380447 0.482497
vt 0.388102 0.464023
vt 0.406578 0.502596
vt 0.420793 0.496715
vt 0.425057 0.500980
vt 0.406578 0.508625
vt 0.406580 0.462397
vt 0.406580 0.456366
vt 0.392365 0.496714
vt 0.388101 0.500978
vt 0.386719 0.507812
vt 0.406250 0.507812
vt 0.406250 0.511719
vt 0.386719 0.511719
vt 0.425781 0.507812
vt 0.425781 0.511719
vt 0.445312 0.507812
vt 0.445312 0.511719
vt 0.464844 0.507812
vt 0.464844 0.511719
vt 0.267337 0.482500
vt 0.273225 0.468286
vt 0.301652 0.496714
vt 0.307540 0.482500
vt 0.287438 0.502601
vt 0.273225 0.496714
s 1
usemtl batteries_mp_1
f 14/1/1 5/2/2 1/3/3 16/4/4
f 14/1/1 15/5/5 6/6/6 5/2/2
f 59/7/7 60/8/8 21/9/8 20/10/9
f 26/11/10 28/12/11 1/13/12 5/14/13
f 49/15/14 16/13/15 18/16/16 51/17/16
f 25/18/17 4/19/18 11/10/19 32/20/20
f 21/21/8 60/22/8 58/23/21 19/24/22
f 23/25/23 8/26/24 10/27/25 19/28/26
f 38/29/27 39/30/28 27/31/29 25/18/27
f 20/32/30 11/33/30 4/34/31 13/35/32
f 20/10/9 13/19/33 52/36/34 59/7/7
f 43/37/35 45/38/36 44/39/37 46/40/38 48/41/39 47/42/40 40/43/41 42/44/42 41/45/43 37/46/44 39/47/45 38/48/46
f 43/49/47 32/20/47 33/50/48 45/51/49
f 18/52/16 17/53/50 50/54/51 51/55/16
f 41/56/52 42/57/53 30/58/54 28/12/55
f 56/15/56 57/17/57 24/16/57 23/13/58
f 17/53/50 22/59/59 55/60/60 50/54/51
f 15/61/61 54/62/61 52/36/34 13/19/33
f 24/63/57 57/62/57 55/60/60 22/59/59
f 53/23/62 54/22/61 15/21/61 14/24/63
f 14/24/63 16/13/15 49/15/14 53/23/62
f 23/25/23 24/64/64 9/65/65 8/26/24
f 20/32/30 21/5/30 12/6/30 11/33/30
f 12/66/30 21/67/30 19/28/26 10/27/25
f 6/66/6 15/67/5 13/35/32 4/34/31
f 3/52/66 30/68/67 29/20/68 2/53/69
f 9/63/70 7/59/71 34/18/72 36/31/73
f 35/12/74 8/13/75 9/16/70 36/58/73
f 6/61/76 4/19/18 25/18/17 27/31/77
f 31/11/78 33/69/79 12/21/80 10/24/81
f 41/56/52 28/12/55 26/11/82 37/70/83
f 27/69/29 39/71/28 37/70/83 26/11/82
f 47/72/84 34/18/84 29/73/85 40/74/85
f 33/69/48 31/11/86 44/70/87 45/71/49
f 30/50/54 42/75/53 40/74/85 29/73/85
f 38/29/27 25/18/27 32/20/47 43/49/47
f 36/31/88 34/18/84 47/72/84 48/30/89
f 35/12/74 31/11/78 10/24/81 8/13/75
f 46/56/90 35/12/91 36/58/88 48/57/89
f 59/76/92 52/77/92 54/78/92 53/79/92 49/80/92 51/81/92 50/82/92 55/83/92 57/84/92 56/85/92 58/86/92 60/87/92
f 28/12/11 30/58/67 3/16/66 1/13/12
f 61/88/93 76/89/93 84/90/93 68/91/93
f 23/13/58 19/24/22 58/23/21 56/15/56
f 26/11/10 5/24/13 6/21/76 27/92/77
f 17/93/30 2/94/30 7/95/94 22/96/95
f 9/65/65 24/64/64 22/96/95 7/95/94
f 3/97/30 2/94/30 17/93/30 18/98/30
f 34/18/72 7/59/71 2/53/69 29/20/68
f 44/70/87 31/11/86 35/12/91 46/56/90
f 16/4/4 1/3/3 3/97/30 18/98/30
f 12/9/80 33/50/79 32/20/20 11/10/19
f 66/91/96 82/90/96 73/89/96 67/88/96
f 63/99/97 65/100/97 72/101/97 80/102/97
f 71/103/92 70/104/92 74/105/92
f 61/106/98 62/99/98 78/102/98 76/107/98
f 79/108/99 80/109/99 72/110/99 71/103/99
f 83/111/92 75/112/92 74/113/92 81/114/92
f 65/115/96 64/88/96 69/89/96 72/116/96
f 66/91/98 68/106/98 84/107/98 82/90/98
f 62/88/93 63/115/93 80/116/93 78/89/93
f 77/117/100 78/118/100 80/109/100 79/108/100
f 67/91/98 73/90/98 69/101/98 64/100/98
f 81/114/101 74/113/101 73/119/101 82/120/101
f 69/121/101 70/104/101 71/103/101 72/110/101
f 70/104/102 69/121/102 73/119/102 74/122/102
f 77/117/102 75/123/102 76/124/102 78/118/102
f 81/114/102 82/120/102 84/125/102 83/111/102
f 76/124/100 75/112/100 83/111/100 84/125/100
f 91/126/92 117/127/92 86/128/92
f 88/129/97 94/130/97 97/131/103 89/132/104
f 90/133/93 98/134/93 100/135/105 92/136/105
f 95/130/98 99/131/106 91/132/106 86/129/98
f 93/134/96 96/135/107 87/136/108 85/133/96
f 96/135/107 95/130/98 86/129/98 87/136/108
f 94/130/97 88/129/97 92/136/105 100/135/105
f 99/131/106 98/137/93 90/138/93 91/132/106
f 97/131/103 93/137/96 85/138/96 89/132/104
f 94/139/92 100/140/92 108/141/92 102/142/92
f 99/143/92 95/144/92 103/145/92 107/146/92
f 93/147/92 97/148/92 105/149/92 101/150/92
f 98/151/92 99/143/92 107/146/92 106/152/92
f 97/148/92 94/139/92 102/142/92 105/149/92
f 95/144/92 96/153/92 104/154/92 103/145/92
f 96/153/92 93/147/92 101/150/92 104/154/92
f 100/140/92 98/151/92 106/152/92 108/141/92
f 101/155/96 105/156/103 113/157/103 109/158/96
f 107/156/106 103/159/109 111/160/109 115/157/106
f 102/159/110 108/161/105 116/162/105 110/160/110
f 105/156/103 102/159/110 110/160/110 113/157/103
f 104/161/107 101/163/96 109/164/96 112/162/107
f 103/159/109 104/161/107 112/162/107 111/160/109
f 106/155/93 107/156/106 115/157/106 114/158/93
f 108/161/105 106/163/93 114/164/93 116/162/105
f 85/165/92 87/166/92 117/127/92
f 92/167/92 117/127/92 90/168/92
f 117/127/92 92/167/92 88/169/92
f 90/168/92 117/127/92 91/126/92
f 117/127/92 87/166/92 86/128/92
f 88/169/92 89/170/92 117/127/92
f 89/170/92 85/165/92 117/127/92
f 124/171/92 150/172/92 119/173/92
f 121/174/97 127/175/97 130/176/103 122/177/104
f 123/178/93 131/179/93 133/180/105 125/181/105
f 128/175/98 132/176/106 124/177/106 119/174/98
f 126/179/96 129/180/107 120/181/108 118/178/96
f 129/180/107 128/175/98 119/174/98 120/181/108
f 127/175/97 121/174/97 125/181/105 133/180/105
f 132/176/106 131/182/93 123/183/93 124/177/106
f 130/176/103 126/182/96 118/183/96 122/177/104
f 127/184/92 133/185/92 141/186/92 135/187/92
f 132/188/92 128/189/92 136/190/92 140/191/92
f 126/192/92 130/193/92 138/194/92 134/195/92
f 131/196/92 132/188/92 140/191/92 139/197/92
f 130/193/92 127/184/92 135/187/92 138/194/92
f 128/189/92 129/198/92 137/199/92 136/190/92
f 129/198/92 126/192/92 134/195/92 137/199/92
f 133/185/92 131/196/92 139/197/92 141/186/92
f 134/200/96 138/201/103 146/202/103 142/203/96
f 140/201/106 136/204/109 144/205/109 148/202/106
f 135/204/110 141/206/105 149/207/105 143/205/110
f 138/201/103 135/204/110 143/205/110 146/202/103
f 137/206/107 134/208/96 142/209/96 145/207/107
f 136/204/109 137/206/107 145/207/107 144/205/109
f 139/200/93 140/201/106 148/202/106 147/203/93
f 141/206/105 139/208/93 147/209/93 149/207/105
f 118/210/92 120/211/92 150/172/92
f 125/212/92 150/172/92 123/213/92
f 150/172/92 125/212/92 121/214/92
f 123/213/92 150/172/92 124/171/92
f 150/172/92 120/211/92 119/173/92
f 121/214/92 122/215/92 150/172/92
f 122/215/92 118/210/92 150/172/92
f 77/117/92 79/108/92 75/123/92
f 79/108/92 71/103/92 74/105/92 75/123/92
