# Blender 5.0.1
# www.blender.org
mtllib cig_3.mtl
o cig_3
v 0.031499 -0.000000 0.000282
v 0.031499 0.001977 0.005055
v 0.031499 0.013500 0.000282
v 0.031499 0.006750 0.007032
v 0.031499 0.011523 0.005055
v 0.031499 0.001977 -0.004491
v 0.031499 0.006750 -0.006468
v 0.031499 0.011523 -0.004491
v -0.034072 0.006750 -0.009764
v -0.012215 0.006750 -0.006749
v -0.034072 0.001977 -0.007181
v -0.012215 0.001977 -0.004772
v -0.012215 0.011523 -0.004772
v -0.034072 0.011523 -0.007255
v -0.034072 -0.000000 -0.001124
v -0.012215 -0.000000 0.000001
v -0.012215 0.001977 0.004774
v -0.034072 0.001977 0.004858
v -0.012215 0.013500 0.000001
v -0.034072 0.013500 -0.001198
v -0.034072 0.011523 0.004858
v -0.012215 0.011523 0.004774
v -0.034072 0.006750 0.007367
v -0.012215 0.006750 0.006751
v -0.023144 0.006750 -0.005479
v -0.023144 0.001977 -0.003473
v -0.023144 0.011523 -0.003502
v -0.023144 -0.000000 0.001300
v -0.023144 0.001977 0.006044
v -0.023144 0.013500 0.001271
v -0.023144 0.011523 0.006044
v -0.023144 0.006750 0.008021
v -0.028608 0.011523 -0.005575
v -0.028608 0.001977 0.003971
v -0.028608 0.013500 -0.000802
v -0.028608 0.006750 -0.007552
v -0.028608 0.001977 -0.005531
v -0.028608 -0.000000 -0.000758
v -0.028608 0.011523 0.003971
v -0.028608 0.006750 0.005948
v -0.001286 0.006750 -0.005003
v -0.001286 0.001977 -0.003026
v -0.001286 0.011523 -0.003026
v -0.001286 -0.000000 0.001747
v -0.001286 0.001977 0.006520
v -0.001286 0.013500 0.001747
v -0.001286 0.011523 0.006520
v -0.001286 0.006750 0.008497
v 0.020571 0.006750 -0.006454
v 0.020571 0.001977 -0.004477
v 0.020571 -0.000000 0.000296
v 0.020571 0.011523 0.005069
v 0.020571 0.006750 0.007046
v 0.020571 0.011523 -0.004477
v 0.020571 0.001977 0.005069
v 0.020571 0.013500 0.000296
v -0.034072 0.006750 -0.001161
v 0.031499 0.006750 0.000282
vn 1.0000 -0.0000 -0.0000
vn -0.0005 1.0000 -0.0079
vn -0.0000 1.0000 -0.0003
vn -0.0009 0.7069 -0.7073
vn -0.0240 0.7030 -0.7108
vn -0.0013 -0.0000 -1.0000
vn -0.0335 -0.0000 -0.9994
vn -0.0005 -1.0000 -0.0079
vn -0.0000 -1.0000 -0.0003
vn 0.0009 -0.7073 0.7069
vn 0.0238 -0.7109 0.7029
vn 0.0013 -0.0000 1.0000
vn 0.0341 -0.0000 0.9994
vn -1.0000 -0.0000 -0.0000
vn -0.0025 0.9996 0.0273
vn -0.0333 0.6934 0.7197
vn 0.0238 0.7109 0.7029
vn -0.0148 0.7241 0.6896
vn -0.0221 -0.0000 0.9998
vn -0.0448 -0.0000 0.9990
vn -0.0734 0.7537 0.6531
vn 0.1170 0.7145 0.6897
vn 0.2066 -0.0000 0.9784
vn -0.0845 -0.0000 0.9964
vn -0.0333 -0.6934 0.7197
vn 0.0014 0.9994 -0.0333
vn 0.0376 0.9987 -0.0354
vn 0.0440 0.9989 -0.0156
vn -0.0920 -0.6769 0.7303
vn -0.0146 -0.7239 0.6898
vn -0.1167 -0.0000 0.9932
vn -0.0025 -0.9996 0.0273
vn -0.0152 -0.9981 0.0590
vn 0.0013 -0.9994 -0.0334
vn 0.0473 -0.0000 -0.9989
vn 0.0321 0.7207 -0.6925
vn 0.0856 0.7351 -0.6726
vn 0.0155 0.6908 -0.7229
vn 0.0204 -0.0006 -0.9998
vn 0.1302 -0.0025 -0.9915
vn -0.0150 0.9982 0.0579
vn 0.0321 -0.7207 -0.6925
vn -0.0240 -0.7030 -0.7108
vn 0.0149 -0.6911 -0.7226
vn 0.2254 -0.7105 -0.6667
vn 0.2163 -0.6922 -0.6886
vn 0.3343 -0.0044 -0.9425
vn 0.3435 -0.0042 -0.9392
vn 0.0369 -0.9987 -0.0343
vn 0.0434 -0.9990 -0.0127
vn 0.0841 -0.7366 -0.6711
vn 0.2278 0.7077 -0.6688
vn -0.0731 -0.7525 0.6545
vn -0.0921 0.6774 0.7298
vn 0.1175 -0.7134 0.6909
vn 0.2200 0.6873 -0.6922
vn -0.0009 -0.7069 -0.7073
vn 0.0009 0.7073 0.7069
vt 0.697650 0.598836
vt 0.718144 0.552268
vt 0.747128 0.579547
vt 0.500000 0.285714
vt 0.500000 0.233766
vt 0.527778 0.233766
vt 0.527778 0.285714
vt 0.569444 0.233766
vt 0.569444 0.285714
vt 0.677155 0.645404
vt 0.718144 0.645404
vt 0.699746 0.715828
vt 0.679926 0.670397
vt 0.719986 0.670397
vt 0.625000 0.285714
vt 0.625000 0.402597
vt 0.597222 0.402597
vt 0.597222 0.285714
vt 0.597222 0.454545
vt 0.569444 0.454545
vt 0.569444 0.402597
vt 0.722222 0.428571
vt 0.722222 0.454545
vt 0.694444 0.454545
vt 0.694444 0.428571
vt 0.527778 0.402597
vt 0.625000 0.454545
vt 0.750000 0.428571
vt 0.750000 0.454545
vt 0.527778 0.506494
vt 0.527778 0.454545
vt 0.569444 0.506494
vt 0.500000 0.402597
vt 0.500000 0.506494
vt 0.500000 0.454545
vt 0.719567 0.761258
vt 0.748312 0.734761
vt 0.651599 0.734761
vt 0.651599 0.697058
vt 0.748312 0.697058
vt 0.625000 0.506494
vt 0.597222 0.506494
vt 0.625000 0.428571
vt 0.625000 0.389610
vt 0.652778 0.389610
vt 0.652778 0.428571
vt 0.694444 0.389610
vt 0.652778 0.454545
vt 0.750000 0.389610
vt 0.722222 0.389610
vt 0.625000 0.233766
vt 0.597222 0.233766
vt 0.648171 0.579547
vt 0.648171 0.618125
vt 0.747128 0.618125
vt 0.677155 0.552268
vt 0.679507 0.761258
s 1
usemtl cigs_packet_1
f 58/1/1 5/2/1 4/3/1
f 56/4/2 3/5/3 8/6/4 54/7/5
f 54/7/5 8/6/4 7/8/6 49/9/7
f 51/4/8 1/5/9 2/6/10 55/7/11
f 55/7/11 2/6/10 4/8/12 53/9/13
f 6/10/1 58/1/1 1/11/1
f 57/12/14 21/13/14 20/14/14
f 56/15/2 46/16/15 47/17/16 52/18/17
f 47/17/16 22/19/18 24/20/19 48/21/20
f 39/22/21 21/23/22 23/24/23 40/25/24
f 55/7/11 53/9/13 48/21/20 45/26/25
f 46/16/15 19/27/26 22/19/18 47/17/16
f 35/28/27 20/29/28 21/23/22 39/22/21
f 29/30/29 17/31/30 24/20/19 32/32/31
f 44/33/32 51/4/8 55/7/11 45/26/25
f 28/34/33 16/35/34 17/31/30 29/30/29
f 54/7/5 49/9/7 41/21/35 43/26/36
f 27/30/37 13/31/38 10/20/39 25/32/40
f 56/4/2 54/7/5 43/26/36 46/33/15
f 30/34/41 19/35/26 13/31/38 27/30/37
f 42/17/42 41/21/35 49/9/7 50/18/43
f 44/16/32 42/17/42 50/18/43 51/15/8
f 42/17/42 12/19/44 10/20/39 41/21/35
f 37/22/45 11/23/46 9/24/47 36/25/48
f 44/16/32 16/27/34 12/19/44 42/17/42
f 38/28/49 15/29/50 11/23/46 37/22/45
f 11/36/14 57/12/14 9/37/14
f 57/12/14 18/38/14 23/39/14
f 14/40/14 57/12/14 20/14/14
f 16/27/34 28/41/33 26/42/51 12/19/44
f 12/19/44 26/42/51 25/32/40 10/20/39
f 35/43/27 30/44/41 27/45/37 33/46/52
f 33/46/52 27/45/37 25/47/40 36/25/48
f 38/43/49 28/44/33 29/45/29 34/46/53
f 34/46/53 29/45/29 32/47/31 40/25/24
f 19/27/26 30/41/41 31/42/54 22/19/18
f 22/19/18 31/42/54 32/32/31 24/20/19
f 18/48/55 34/46/53 40/25/24 23/24/23
f 15/27/50 38/43/49 34/46/53 18/48/55
f 14/48/56 33/46/52 36/25/48 9/24/47
f 20/27/28 35/43/27 33/46/52 14/48/56
f 28/49/33 38/28/49 37/22/45 26/50/51
f 26/50/51 37/22/45 36/25/48 25/47/40
f 30/49/41 35/28/27 39/22/21 31/50/54
f 31/50/54 39/22/21 40/25/24 32/47/31
f 19/35/26 46/33/15 43/26/36 13/31/38
f 13/31/38 43/26/36 41/21/35 10/20/39
f 16/35/34 44/33/32 45/26/25 17/31/30
f 17/31/30 45/26/25 48/21/20 24/20/19
f 1/51/9 51/15/8 50/18/43 6/52/57
f 6/52/57 50/18/43 49/9/7 7/8/6
f 3/51/3 56/15/2 52/18/17 5/52/58
f 5/52/58 52/18/17 53/9/13 4/8/12
f 47/17/16 48/21/20 53/9/13 52/18/17
f 8/53/1 58/1/1 7/54/1
f 58/1/1 2/55/1 1/11/1
f 58/1/1 3/56/1 5/2/1
f 6/10/1 7/54/1 58/1/1
f 57/12/14 23/39/14 21/13/14
f 11/36/14 15/57/14 57/12/14
f 57/12/14 15/57/14 18/38/14
f 14/40/14 9/37/14 57/12/14
f 8/53/1 3/56/1 58/1/1
f 58/1/1 4/3/1 2/55/1
