# Blender 5.0.1
# www.blender.org
mtllib cig_2.mtl
o cig_2
v 0.040501 -0.000000 0.000281
v 0.040501 0.001977 0.005054
v 0.040501 0.013500 0.000281
v 0.040501 0.006750 0.007031
v 0.040501 0.011523 0.005054
v 0.040501 0.001977 -0.004492
v 0.040501 0.006750 -0.006469
v 0.040501 0.011523 -0.004492
v -0.046928 0.006750 -0.006750
v -0.025071 0.006750 -0.011308
v -0.003214 0.006750 -0.007372
v -0.046928 0.001977 -0.004773
v -0.025071 0.001977 -0.009273
v -0.003214 0.001977 -0.005395
v -0.003214 0.011523 -0.005395
v -0.025071 0.011523 -0.009331
v -0.046928 0.011523 -0.004773
v -0.046928 -0.000000 0.000000
v -0.025071 -0.000000 -0.004500
v -0.003214 -0.000000 -0.000622
v -0.003214 0.001977 0.004151
v -0.025071 0.001977 0.000215
v -0.046928 0.001977 0.004773
v -0.003214 0.013500 -0.000622
v -0.025071 0.013500 -0.004558
v -0.046928 0.013500 0.000000
v -0.046928 0.011523 0.004773
v -0.025071 0.011523 0.000215
v -0.003214 0.011523 0.004151
v -0.046928 0.006750 0.006750
v -0.025071 0.006750 0.002192
v -0.003214 0.006750 0.006128
v -0.051261 0.006750 -0.009369
v -0.051261 0.001977 -0.006955
v -0.051261 0.011523 -0.006955
v -0.051261 -0.000000 -0.001126
v -0.051261 0.001977 0.004703
v -0.051261 0.013500 -0.001126
v -0.051261 0.011523 0.004703
v -0.051261 0.006750 0.007118
v -0.014142 0.006750 -0.008095
v -0.014142 0.001977 -0.006088
v -0.014142 0.011523 -0.006118
v -0.014142 -0.000000 -0.001315
v -0.014142 0.001977 0.003428
v -0.014142 0.013500 -0.001345
v -0.014142 0.011523 0.003428
v -0.014142 0.006750 0.005405
v -0.035999 0.006750 -0.010150
v -0.035999 0.001977 -0.008144
v -0.035999 0.011523 -0.008173
v -0.035999 -0.000000 -0.003371
v -0.035999 0.001977 0.001373
v -0.035999 0.013500 -0.003400
v -0.035999 0.011523 0.001373
v -0.035999 0.006750 0.003350
v 0.029572 0.006750 -0.006766
v 0.029572 0.001977 -0.004789
v 0.029572 -0.000000 -0.000016
v 0.029572 0.011523 0.004757
v 0.029572 0.006750 0.006734
v 0.029572 0.011523 -0.004789
v 0.029572 0.001977 0.004757
v 0.029572 0.013500 -0.000016
v 0.007715 0.006750 -0.008401
v 0.007715 0.001977 -0.006424
v 0.007715 0.011523 -0.006424
v 0.007715 -0.000000 -0.001651
v 0.007715 0.001977 0.003122
v 0.007715 0.013500 -0.001651
v 0.007715 0.011523 0.003122
v 0.007715 0.006750 0.005099
v -0.051261 0.006750 -0.001126
v 0.040501 0.006750 0.000281
vn 1.0000 -0.0000 -0.0000
vn -0.0006 1.0000 0.0058
vn -0.0002 1.0000 0.0066
vn 0.0191 0.7103 -0.7036
vn 0.0358 0.7097 -0.7036
vn 0.0271 -0.0000 -0.9996
vn 0.0512 -0.0000 -0.9987
vn -0.0006 -1.0000 0.0058
vn -0.0002 -1.0000 0.0066
vn -0.0193 -0.7037 0.7102
vn -0.0361 -0.7039 0.7094
vn -0.0271 -0.0000 0.9996
vn -0.0506 -0.0000 0.9987
vn -1.0000 -0.0000 -0.0000
vn -0.0004 0.9998 -0.0205
vn 0.0067 0.7175 0.6965
vn -0.0361 0.7039 0.7094
vn 0.0100 0.6975 0.7165
vn 0.0137 -0.0000 0.9999
vn 0.0098 -0.0000 1.0000
vn -0.1272 0.6902 0.7124
vn -0.0625 0.7305 0.6800
vn -0.0946 -0.0000 0.9955
vn -0.1706 -0.0000 0.9853
vn 0.1422 0.7138 0.6858
vn 0.1057 0.6994 0.7069
vn 0.1624 -0.0000 0.9867
vn 0.2071 -0.0000 0.9783
vn 0.0067 -0.7175 0.6965
vn 0.0005 0.9998 0.0194
vn -0.0097 0.9996 0.0266
vn 0.0088 0.9988 -0.0475
vn -0.0100 0.9997 -0.0236
vn 0.0267 0.9975 0.0650
vn -0.0095 -0.7347 0.6783
vn 0.1056 -0.6993 0.7070
vn 0.0343 -0.0000 0.9994
vn 0.1420 -0.7130 0.6866
vn -0.0626 -0.7293 0.6814
vn -0.1271 -0.6895 0.7131
vn 0.0101 -0.6973 0.7167
vn -0.0004 -0.9998 -0.0205
vn 0.0597 -0.9967 -0.0555
vn 0.0268 -0.9975 0.0650
vn -0.0095 -0.9997 -0.0226
vn 0.0086 -0.9989 -0.0454
vn -0.0101 -0.9996 0.0278
vn 0.0004 -0.9998 0.0194
vn -0.0094 -0.0000 -1.0000
vn -0.0069 0.6970 -0.7170
vn 0.3534 0.6388 -0.6833
vn 0.0453 0.7690 -0.6376
vn 0.1124 -0.0007 -0.9937
vn 0.4846 -0.0000 -0.8747
vn -0.1467 0.6903 -0.7085
vn 0.0666 0.6831 -0.7272
vn 0.0861 -0.0037 -0.9963
vn -0.1970 -0.0026 -0.9804
vn 0.1227 0.7166 -0.6866
vn -0.0097 0.7169 -0.6971
vn -0.0145 -0.0007 -0.9999
vn 0.1792 -0.0027 -0.9838
vn 0.0597 0.9967 -0.0555
vn -0.0069 -0.6970 -0.7170
vn 0.0358 -0.7097 -0.7036
vn -0.0103 -0.7172 -0.6968
vn 0.1211 -0.7184 -0.6850
vn 0.0664 -0.6864 -0.7242
vn -0.1453 -0.6922 -0.7069
vn 0.0460 -0.7692 -0.6374
vn 0.3534 -0.6388 -0.6833
vn -0.0095 0.7347 0.6783
vn 0.0191 -0.7103 -0.7036
vn -0.0193 0.7037 0.7102
vt 0.697650 0.598836
vt 0.718144 0.552268
vt 0.747128 0.579547
vt 0.500000 0.285714
vt 0.500000 0.233766
vt 0.527778 0.233766
vt 0.527778 0.285714
vt 0.569444 0.233766
vt 0.569444 0.285714
vt 0.648171 0.579547
vt 0.648171 0.618125
vt 0.651656 0.696937
vt 0.700011 0.715788
vt 0.651656 0.734639
vt 0.625000 0.285714
vt 0.625000 0.402597
vt 0.597222 0.402597
vt 0.597222 0.285714
vt 0.597222 0.454545
vt 0.569444 0.454545
vt 0.569444 0.402597
vt 0.597222 0.506494
vt 0.597222 0.558442
vt 0.569444 0.558442
vt 0.569444 0.506494
vt 0.722222 0.337662
vt 0.722222 0.402597
vt 0.694444 0.402597
vt 0.694444 0.337662
vt 0.527778 0.402597
vt 0.625000 0.454545
vt 0.625000 0.506494
vt 0.625000 0.558442
vt 0.750000 0.337662
vt 0.750000 0.402597
vt 0.652778 0.454545
vt 0.652778 0.402597
vt 0.694444 0.454545
vt 0.652778 0.337662
vt 0.652778 0.285714
vt 0.694444 0.285714
vt 0.527778 0.506494
vt 0.527778 0.454545
vt 0.500000 0.402597
vt 0.625000 0.337662
vt 0.500000 0.506494
vt 0.500000 0.454545
vt 0.750000 0.454545
vt 0.722222 0.454545
vt 0.748366 0.734639
vt 0.720040 0.761299
vt 0.679982 0.761299
vt 0.720040 0.670278
vt 0.679982 0.670278
vt 0.500000 0.558442
vt 0.527778 0.558442
vt 0.750000 0.285714
vt 0.722222 0.285714
vt 0.625000 0.233766
vt 0.597222 0.233766
vt 0.747128 0.618125
vt 0.718144 0.645404
vt 0.677155 0.645404
vt 0.677155 0.552268
vt 0.748366 0.696937
s 1
usemtl cigs_packet_1
f 74/1/1 5/2/1 4/3/1
f 64/4/2 3/5/3 8/6/4 62/7/5
f 62/7/5 8/6/4 7/8/6 57/9/7
f 59/4/8 1/5/9 2/6/10 63/7/11
f 63/7/11 2/6/10 4/8/12 61/9/13
f 8/10/1 74/1/1 7/11/1
f 37/12/14 73/13/14 36/14/14
f 64/15/2 70/16/15 71/17/16 60/18/17
f 71/17/16 29/19/18 32/20/19 72/21/20
f 47/22/21 28/23/22 31/24/23 48/25/24
f 55/26/25 27/27/26 30/28/27 56/29/28
f 63/7/11 61/9/13 72/21/20 69/30/29
f 70/16/15 24/31/30 29/19/18 71/17/16
f 46/32/31 25/33/32 28/23/22 47/22/21
f 54/34/33 26/35/34 27/27/26 55/26/25
f 37/36/35 23/37/36 30/28/27 40/38/37
f 53/39/38 22/40/39 31/41/23 56/29/28
f 45/42/40 21/43/41 32/20/19 48/25/24
f 68/44/42 59/4/8 63/7/11 69/30/29
f 36/31/43 18/16/44 23/37/36 37/36/35
f 52/45/45 19/15/46 22/40/39 53/39/38
f 44/46/47 20/47/48 21/43/41 45/42/40
f 62/7/5 57/9/7 65/21/49 67/30/50
f 35/36/51 17/37/52 9/28/53 33/38/54
f 51/39/55 16/40/56 10/41/57 49/29/58
f 43/42/59 15/43/60 11/20/61 41/25/62
f 64/4/2 62/7/5 67/30/50 70/44/15
f 38/31/63 26/16/34 17/37/52 35/36/51
f 54/45/33 25/15/32 16/40/56 51/39/55
f 46/46/31 24/47/30 15/43/60 43/42/59
f 66/17/64 65/21/49 57/9/7 58/18/65
f 68/16/42 66/17/64 58/18/65 59/15/8
f 66/17/64 14/19/66 11/20/61 65/21/49
f 42/22/67 13/23/68 10/24/57 41/25/62
f 50/26/69 12/27/70 9/28/53 49/29/58
f 68/16/42 20/31/48 14/19/66 66/17/64
f 44/32/47 19/33/46 13/23/68 42/22/67
f 52/34/45 18/35/44 12/27/70 50/26/69
f 18/35/44 36/48/43 34/49/71 12/27/70
f 12/27/70 34/49/71 33/38/54 9/28/53
f 26/35/34 38/48/63 39/49/72 27/27/26
f 27/27/26 39/49/72 40/38/37 30/28/27
f 73/13/14 35/50/14 33/51/14
f 73/13/14 34/52/14 36/14/14
f 39/53/14 73/13/14 40/54/14
f 20/31/48 44/32/47 42/22/67 14/19/66
f 14/19/66 42/22/67 41/25/62 11/20/61
f 25/55/32 46/46/31 43/42/59 16/56/56
f 16/56/56 43/42/59 41/25/62 10/24/57
f 19/55/46 44/46/47 45/42/40 22/56/39
f 22/56/39 45/42/40 48/25/24 31/24/23
f 24/31/30 46/32/31 47/22/21 29/19/18
f 29/19/18 47/22/21 48/25/24 32/20/19
f 19/57/46 52/34/45 50/26/69 13/58/68
f 13/58/68 50/26/69 49/29/58 10/41/57
f 26/16/34 54/45/33 51/39/55 17/37/52
f 17/37/52 51/39/55 49/29/58 9/28/53
f 18/16/44 52/45/45 53/39/38 23/37/36
f 23/37/36 53/39/38 56/29/28 30/28/27
f 25/57/32 54/34/33 55/26/25 28/58/22
f 28/58/22 55/26/25 56/29/28 31/41/23
f 1/59/9 59/15/8 58/18/65 6/60/73
f 6/60/73 58/18/65 57/9/7 7/8/6
f 3/59/3 64/15/2 60/18/17 5/60/74
f 5/60/74 60/18/17 61/9/13 4/8/12
f 24/47/30 70/44/15 67/30/50 15/43/60
f 15/43/60 67/30/50 65/21/49 11/20/61
f 20/47/48 68/44/42 69/30/29 21/43/41
f 21/43/41 69/30/29 72/21/20 32/20/19
f 71/17/16 72/21/20 61/9/13 60/18/17
f 74/1/1 2/61/1 1/62/1
f 6/63/1 74/1/1 1/62/1
f 74/1/1 3/64/1 5/2/1
f 8/10/1 3/64/1 74/1/1
f 37/12/14 40/54/14 73/13/14
f 73/13/14 38/65/14 35/50/14
f 73/13/14 33/51/14 34/52/14
f 39/53/14 38/65/14 73/13/14
f 74/1/1 4/3/1 2/61/1
f 6/63/1 7/11/1 74/1/1
