# Blender 5.0.1
# www.blender.org
mtllib clock_1.mtl
o clock_1
v -0.000002 0.200000 -0.030000
v 0.062955 0.190211 -0.030000
v 0.118709 0.161803 -0.030000
v 0.162955 0.117557 -0.030000
v 0.201152 0.000000 -0.030000
v -0.000006 -0.200000 -0.030000
v 0.162955 -0.117557 -0.030000
v 0.118709 -0.161803 -0.030000
v 0.062955 -0.190211 -0.030000
v -0.191369 0.061803 -0.030000
v -0.118713 0.161803 -0.030000
v -0.062959 0.190211 -0.030000
v -0.062966 -0.190211 -0.030000
v -0.118719 -0.161803 -0.030000
v -0.162964 -0.117557 -0.030000
v -0.191371 -0.061803 -0.030000
v 0.159213 0.000000 -0.015000
v -0.049999 0.150325 -0.015000
v -0.094062 0.127874 -0.015000
v -0.129031 0.092906 -0.015000
v -0.151483 0.048843 -0.015000
v -0.000006 -0.158190 -0.015000
v -0.050006 -0.150325 -0.015000
v 0.094058 0.127874 -0.015000
v 0.049995 -0.150325 -0.015000
v 0.094058 -0.127874 -0.015000
v 0.129026 -0.092906 -0.015000
v 0.151477 -0.048844 -0.015000
v -0.000002 0.158191 -0.015000
v 0.151477 0.048844 -0.015000
v 0.129026 0.092906 -0.015000
v 0.049995 0.150325 -0.015000
v -0.159220 -0.000001 -0.015000
v -0.151485 -0.048844 -0.015000
v -0.129035 -0.092906 -0.015000
v -0.094068 -0.127874 -0.015000
v -0.000006 -0.164535 -0.008677
v -0.000006 -0.185551 0.000000
v 0.165556 0.000000 -0.008677
v 0.186568 0.000000 -0.000000
v 0.051955 -0.156358 -0.008677
v 0.058448 -0.176341 -0.000000
v 0.097786 -0.133006 -0.008677
v 0.110136 -0.150005 -0.000000
v 0.134157 -0.096634 -0.008677
v 0.151156 -0.108985 -0.000000
v 0.157509 -0.050804 -0.008677
v 0.177493 -0.057297 -0.000000
v -0.000002 0.185551 -0.000000
v -0.000002 0.164535 -0.008677
v 0.177493 0.057297 -0.000000
v 0.157509 0.050804 -0.008677
v 0.151156 0.108985 -0.000000
v 0.134157 0.096634 -0.008677
v 0.110136 0.150005 -0.000000
v 0.097786 0.133006 -0.008677
v 0.058448 0.176341 -0.000000
v 0.051955 0.156358 -0.008677
v -0.186575 -0.000000 0.000000
v -0.165563 -0.000001 -0.008677
v -0.157517 -0.050804 -0.008677
v -0.177501 -0.057297 0.000000
v -0.134166 -0.096635 -0.008677
v -0.151166 -0.108985 0.000000
v -0.097796 -0.133006 -0.008677
v -0.110146 -0.150005 0.000000
v -0.051966 -0.156358 -0.008677
v -0.058459 -0.176341 0.000000
v -0.058452 0.176341 0.000000
v -0.051959 0.156358 -0.008677
v -0.110140 0.150005 0.000000
v -0.097790 0.133006 -0.008677
v -0.151161 0.108985 0.000000
v -0.134163 0.096634 -0.008677
v -0.177499 0.057297 0.000000
v -0.157515 0.050803 -0.008677
v 0.201152 0.000000 -0.002000
v -0.201159 0.000000 -0.002000
v -0.000002 0.200000 -0.002000
v -0.062959 0.190211 -0.002000
v -0.118713 0.161803 -0.002000
v -0.162960 0.117557 -0.002000
v -0.191369 0.061803 -0.002000
v -0.000006 -0.200000 -0.002000
v -0.062966 -0.190211 -0.002000
v -0.118719 -0.161803 -0.002000
v -0.162964 -0.117557 -0.002000
v -0.191371 -0.061803 -0.002000
v 0.191363 0.061803 -0.002000
v 0.162955 0.117557 -0.002000
v 0.118709 0.161803 -0.002000
v 0.062955 0.190211 -0.002000
v 0.191363 -0.061803 -0.002000
v 0.162955 -0.117557 -0.002000
v 0.118709 -0.161803 -0.002000
v 0.062955 -0.190211 -0.002000
v -0.201152 0.000000 -0.030000
v 0.191369 0.061803 -0.030000
v 0.191371 -0.061803 -0.030000
v -0.162955 0.117557 -0.030000
v 0.000002 0.193042 -0.030000
v 0.060824 -0.183587 -0.030000
v 0.114627 -0.156172 -0.030000
v 0.157333 -0.113466 -0.030000
v 0.184751 -0.059653 -0.030000
v -0.194191 0.000000 -0.030000
v -0.184743 -0.059652 -0.030000
v -0.157324 -0.113466 -0.030000
v -0.114617 -0.156172 -0.030000
v -0.060813 -0.183587 -0.030000
v 0.060816 0.183587 -0.030000
v 0.114621 0.156172 -0.030000
v 0.157329 0.113466 -0.030000
v 0.184749 0.059652 -0.030000
v 0.194198 -0.000000 -0.030000
v 0.000006 -0.193042 -0.030000
v -0.184743 0.059652 -0.030000
v -0.157324 0.113466 -0.030000
v -0.114617 0.156172 -0.030000
v -0.060813 0.183587 -0.030000
v 0.000002 0.144339 -0.020000
v 0.045822 0.137215 -0.020000
v 0.085982 0.116753 -0.020000
v 0.117910 0.084825 -0.020000
v 0.138409 0.044595 -0.020000
v 0.145473 -0.000001 -0.020000
v 0.045829 -0.137215 -0.020000
v 0.000005 -0.144339 -0.020000
v 0.085987 -0.116753 -0.020000
v 0.117913 -0.084826 -0.020000
v 0.138411 -0.044596 -0.020000
v -0.145466 0.000000 -0.020000
v -0.138403 0.044596 -0.020000
v -0.117904 0.084826 -0.020000
v -0.085977 0.116753 -0.020000
v -0.045818 0.137215 -0.020000
v -0.138403 -0.044596 -0.020000
v -0.117904 -0.084826 -0.020000
v -0.085977 -0.116753 -0.020000
v -0.045818 -0.137215 -0.020000
v 0.054390 0.163713 -0.020000
v 0.102347 0.139278 -0.020000
v 0.140435 0.101191 -0.020000
v 0.164889 0.053199 -0.020000
v 0.173316 -0.000000 -0.020000
v 0.000005 -0.172170 -0.020000
v -0.164883 0.053200 -0.020000
v -0.140430 0.101191 -0.020000
v -0.102343 0.139278 -0.020000
v -0.054387 0.163713 -0.020000
v 0.000002 0.131183 -0.030000
v 0.041772 0.124689 -0.030000
v 0.078245 0.106104 -0.030000
v 0.107262 0.077089 -0.030000
v 0.125891 0.040527 -0.030000
v 0.132311 -0.000001 -0.030000
v 0.041779 -0.124688 -0.030000
v 0.000005 -0.131183 -0.030000
v 0.078251 -0.106105 -0.030000
v 0.107265 -0.077090 -0.030000
v 0.125893 -0.040529 -0.030000
v -0.132304 0.000000 -0.030000
v -0.125885 0.040528 -0.030000
v -0.107256 0.077089 -0.030000
v -0.078241 0.106105 -0.030000
v -0.041768 0.124689 -0.030000
v -0.125885 -0.040528 -0.030000
v -0.107256 -0.077089 -0.030000
v -0.078241 -0.106104 -0.030000
v -0.041768 -0.124688 -0.030000
v 0.058674 0.176962 -0.020000
v 0.000002 0.172170 -0.020000
v 0.110530 0.150541 -0.020000
v 0.151697 0.109374 -0.020000
v 0.178129 0.057501 -0.020000
v 0.187237 -0.000000 -0.020000
v 0.000006 -0.186085 -0.020000
v 0.054397 -0.163713 -0.020000
v 0.102353 -0.139278 -0.020000
v 0.140439 -0.101192 -0.020000
v 0.164891 -0.053200 -0.020000
v -0.178123 0.057501 -0.020000
v -0.173309 0.000000 -0.020000
v -0.151692 0.109374 -0.020000
v -0.110526 0.150541 -0.020000
v -0.058671 0.176962 -0.020000
v -0.164883 -0.053199 -0.020000
v -0.140430 -0.101191 -0.020000
v -0.102343 -0.139278 -0.020000
v -0.054387 -0.163713 -0.020000
v 0.000002 0.186085 -0.020000
v 0.058682 -0.176962 -0.020000
v 0.110536 -0.150541 -0.020000
v 0.151702 -0.109374 -0.020000
v 0.178131 -0.057502 -0.020000
v -0.187230 0.000000 -0.020000
v -0.178123 -0.057501 -0.020000
v -0.151692 -0.109374 -0.020000
v -0.110526 -0.150541 -0.020000
v -0.058671 -0.176962 -0.020000
v 0.060816 0.183587 -0.020000
v 0.114621 0.156172 -0.020000
v 0.157329 0.113466 -0.020000
v 0.184749 0.059652 -0.020000
v 0.194198 -0.000000 -0.020000
v 0.000006 -0.193042 -0.020000
v -0.184743 0.059652 -0.020000
v -0.157324 0.113466 -0.020000
v -0.114617 0.156172 -0.020000
v -0.060813 0.183587 -0.020000
v 0.000002 0.193042 -0.020000
v 0.060824 -0.183587 -0.020000
v 0.114627 -0.156172 -0.020000
v 0.157333 -0.113466 -0.020000
v 0.184751 -0.059653 -0.020000
v -0.194191 0.000000 -0.020000
v -0.184743 -0.059652 -0.020000
v -0.157324 -0.113466 -0.020000
v -0.114617 -0.156172 -0.020000
v -0.060813 -0.183587 -0.020000
v -0.040937 0.048445 -0.030000
v 0.046047 0.048444 -0.030000
v -0.040937 -0.037171 -0.030000
v 0.046049 -0.037171 -0.030000
v -0.040937 0.048445 -0.025000
v 0.046047 0.048444 -0.025000
v -0.040937 -0.037171 -0.025000
v 0.046049 -0.037171 -0.025000
v -0.000004 -0.000000 -0.015000
vn -0.0000 1.0000 -0.0000
vn -0.3077 0.9515 -0.0000
vn -0.5878 0.8090 -0.0000
vn -0.8090 0.5878 -0.0001
vn -0.9511 0.3090 -0.0001
vn -0.0799 -0.1099 0.9907
vn -0.0419 -0.1295 0.9907
vn 0.0313 0.0963 0.9949
vn 0.0597 0.0821 0.9948
vn -0.0000 -0.1365 0.9906
vn -0.0000 0.1013 0.9949
vn 0.0419 0.1295 0.9907
vn -0.0000 0.1365 0.9906
vn -0.0000 -0.1013 0.9949
vn -0.0313 -0.0963 0.9949
vn -0.0000 -1.0000 -0.0000
vn -0.3077 -0.9515 -0.0000
vn -0.5878 -0.8090 -0.0000
vn -0.8090 -0.5878 -0.0000
vn -0.9511 -0.3090 -0.0001
vn 0.9511 0.3090 0.0001
vn 0.8090 0.5878 -0.0000
vn -0.1015 -0.0000 0.9948
vn 0.1359 -0.0000 0.9907
vn 0.1292 0.0420 0.9907
vn -0.0965 -0.0314 0.9948
vn 1.0000 -0.0000 0.0001
vn 0.9511 -0.3090 0.0001
vn 0.5878 0.8090 -0.0000
vn 0.3077 0.9515 -0.0000
vn 0.8090 -0.5878 0.0001
vn -0.0799 0.1099 0.9907
vn -0.1099 0.0799 0.9907
vn 0.0821 -0.0597 0.9948
vn 0.0597 -0.0821 0.9948
vn -1.0000 -0.0000 -0.0001
vn 0.5878 -0.8090 -0.0000
vn 0.3077 -0.9515 -0.0000
vn -0.0000 -0.0000 1.0000
vn 0.1099 0.0799 0.9907
vn -0.0821 -0.0597 0.9948
vn -0.4150 0.5712 0.7082
vn -0.2178 0.6715 0.7082
vn -0.1668 0.5142 0.8413
vn -0.3178 0.4374 0.8412
vn -0.0000 -0.7060 0.7082
vn -0.0000 -0.5408 0.8411
vn 0.1668 -0.5142 0.8413
vn 0.2178 -0.6715 0.7082
vn -0.4150 -0.5712 0.7082
vn -0.5712 -0.4150 0.7082
vn -0.4374 -0.3178 0.8412
vn -0.3178 -0.4374 0.8412
vn -0.6715 0.2182 0.7082
vn -0.5712 0.4150 0.7082
vn -0.4374 0.3178 0.8412
vn -0.5142 0.1671 0.8412
vn 0.5712 0.4150 0.7082
vn 0.6715 0.2182 0.7082
vn 0.5143 0.1671 0.8412
vn 0.4374 0.3178 0.8412
vn -0.2178 -0.6715 0.7082
vn -0.1668 -0.5142 0.8413
vn 0.7060 -0.0000 0.7082
vn 0.5407 -0.0000 0.8412
vn -0.6715 -0.2182 0.7082
vn -0.7060 -0.0000 0.7082
vn -0.5407 -0.0000 0.8412
vn -0.5142 -0.1671 0.8412
vn 0.4150 -0.5712 0.7082
vn 0.3178 -0.4375 0.8412
vn 0.6715 -0.2182 0.7082
vn 0.5142 -0.1671 0.8412
vn 0.2178 0.6715 0.7082
vn 0.4150 0.5712 0.7082
vn 0.3178 0.4374 0.8412
vn 0.1668 0.5142 0.8413
vn 0.5712 -0.4150 0.7082
vn 0.4374 -0.3178 0.8412
vn -0.0419 0.1295 0.9907
vn 0.0313 -0.0963 0.9949
vn -0.1292 0.0420 0.9907
vn 0.0965 -0.0314 0.9948
vn -0.1359 -0.0000 0.9907
vn 0.1015 -0.0000 0.9948
vn -0.1099 -0.0799 0.9907
vn 0.0821 0.0597 0.9948
vn -0.1292 -0.0420 0.9907
vn 0.0965 0.0314 0.9948
vn 0.0799 0.1099 0.9907
vn -0.0597 -0.0821 0.9948
vn 0.1099 -0.0799 0.9907
vn 0.1292 -0.0420 0.9907
vn -0.0965 0.0314 0.9948
vn -0.0821 0.0597 0.9948
vn -0.0000 0.7060 0.7082
vn -0.0000 0.5408 0.8411
vn 0.0799 -0.1099 0.9907
vn -0.0597 0.0821 0.9948
vn 0.0419 -0.1295 0.9907
vn -0.0313 0.0963 0.9949
vn -0.0000 -0.0001 -1.0000
vn -0.0000 -0.0000 -1.0000
vn -0.0000 0.0001 -1.0000
vn 1.0000 -0.0000 -0.0000
vn 0.9511 -0.3090 -0.0000
vn -0.9511 -0.3090 -0.0000
vn 0.8090 -0.5878 -0.0000
vn -1.0000 -0.0000 -0.0000
vn 0.9511 0.3090 -0.0000
vn -0.8090 0.5878 -0.0000
vn -0.9511 0.3090 -0.0000
vn 0.1861 0.5755 -0.7963
vn -0.0000 0.6051 -0.7961
vn 0.3556 0.4894 -0.7963
vn 0.4894 0.3556 -0.7963
vn 0.5754 0.1870 -0.7963
vn 0.6050 -0.0000 -0.7963
vn -0.0000 -0.6051 -0.7961
vn 0.1861 -0.5755 -0.7963
vn 0.3556 -0.4894 -0.7963
vn 0.4894 -0.3556 -0.7963
vn 0.5754 -0.1869 -0.7963
vn -0.5754 0.1869 -0.7963
vn -0.6050 -0.0000 -0.7963
vn -0.4894 0.3556 -0.7963
vn -0.3556 0.4894 -0.7963
vn -0.1861 0.5755 -0.7963
vn -0.5754 -0.1869 -0.7963
vn -0.4894 -0.3556 -0.7963
vn -0.3556 -0.4894 -0.7963
vn -0.1861 -0.5755 -0.7963
vt 0.958656 1.000000
vt 1.000000 1.000000
vt 1.000000 0.798883
vt 0.958656 0.798883
vt 1.000000 0.597765
vt 1.000000 0.396648
vt 0.958656 0.396648
vt 0.958656 0.597765
vt 1.000000 0.201117
vt 0.958656 0.201117
vt 0.558065 0.093907
vt 0.621494 0.024066
vt 0.626621 0.058167
vt 0.567819 0.122915
vt 0.691801 0.000000
vt 0.692446 0.035523
vt 0.764736 0.959347
vt 0.694429 0.983413
vt 0.693784 0.947889
vt 0.759609 0.925246
vt 0.905362 0.491706
vt 0.921954 0.491706
vt 0.910819 0.643652
vt 0.895039 0.632572
vt 0.958656 0.000000
vt 1.000000 0.000000
vt 0.558074 0.889505
vt 0.507745 0.780724
vt 0.521166 0.759649
vt 0.567827 0.860497
vt 0.511996 0.491704
vt 0.693120 0.491705
vt 0.520797 0.611788
vt 0.878494 0.780724
vt 0.865073 0.759649
vt 0.800120 0.177323
vt 0.749994 0.122127
vt 0.752223 0.107296
vt 0.804361 0.164707
vt 0.693676 0.880623
vt 0.693393 0.896220
vt 0.634016 0.876116
vt 0.636245 0.861285
vt 0.800120 0.806089
vt 0.839899 0.720119
vt 0.845736 0.729285
vt 0.804361 0.818705
vt 0.865440 0.371623
vt 0.839898 0.263294
vt 0.845736 0.254128
vt 0.872303 0.366804
vt 0.546335 0.263293
vt 0.520796 0.371621
vt 0.513933 0.366803
vt 0.540497 0.254127
vt 0.749994 0.861286
vt 0.752223 0.876117
vt 0.845736 0.254128
vt 0.504780 0.491705
vt 0.692563 0.880623
vt 0.692846 0.896220
vt 0.865440 0.611790
vt 0.874242 0.491706
vt 0.881458 0.491706
vt 0.872303 0.616609
vt 0.872303 0.616609
vt 0.845736 0.729285
vt 0.586119 0.806089
vt 0.634016 0.876116
vt 0.581877 0.818705
vt 0.513934 0.616607
vt 0.872303 0.366804
vt 0.636237 0.122127
vt 0.586113 0.177323
vt 0.581871 0.164707
vt 0.634007 0.107296
vt 0.546339 0.720118
vt 0.540502 0.729284
vt 0.581871 0.164707
vt 0.621503 0.959347
vt 0.626630 0.925246
vt 0.475420 0.643652
vt 0.491199 0.632572
vt 0.464285 0.491706
vt 0.480876 0.491706
vt 0.491199 0.632571
vt 0.507736 0.202689
vt 0.521159 0.223763
vt 0.475420 0.339761
vt 0.491199 0.350840
vt 0.480876 0.491706
vt 0.828165 0.889505
vt 0.818412 0.860497
vt 0.865073 0.759649
vt 0.878494 0.202689
vt 0.910819 0.339761
vt 0.895039 0.350841
vt 0.865073 0.223764
vt 0.818412 0.860497
vt 0.910819 0.339761
vt 0.905363 0.491706
vt 0.693668 0.102790
vt 0.634007 0.107296
vt 0.693384 0.087192
vt 0.828165 0.093907
vt 0.818412 0.122915
vt 0.764736 0.024066
vt 0.818412 0.122915
vt 0.759609 0.058167
vt 0.694429 0.000000
vt 0.693784 0.035523
vt 0.692455 0.947890
vt 0.692846 0.087192
vt 0.692563 0.102790
vt 0.691809 0.983413
vt 0.163730 0.943060
vt 0.231739 0.966307
vt 0.231627 0.983413
vt 0.161320 0.959347
vt 0.102537 0.875660
vt 0.097891 0.889505
vt 0.053965 0.770665
vt 0.047562 0.780724
vt 0.022767 0.638363
vt 0.015237 0.643652
vt 0.012020 0.491706
vt 0.004102 0.491706
vt 0.234133 0.017105
vt 0.163774 0.040353
vt 0.161311 0.024066
vt 0.234247 0.000000
vt 0.102545 0.107752
vt 0.097882 0.093907
vt 0.053962 0.212747
vt 0.047553 0.202689
vt 0.022769 0.345049
vt 0.015237 0.339761
vt 0.443104 0.638364
vt 0.453853 0.491706
vt 0.461771 0.491706
vt 0.450637 0.643652
vt 0.411902 0.770665
vt 0.418311 0.780724
vt 0.363319 0.875660
vt 0.367982 0.889505
vt 0.302090 0.943060
vt 0.304553 0.959347
vt 0.443106 0.345049
vt 0.450637 0.339761
vt 0.411908 0.212747
vt 0.418311 0.202689
vt 0.363336 0.107752
vt 0.367982 0.093907
vt 0.302143 0.040353
vt 0.304553 0.024066
vt 0.984741 0.999987
vt 0.984741 0.800742
vt 1.000000 0.800742
vt 1.000000 0.999987
vt 0.984741 0.601500
vt 0.984741 0.800748
vt 1.000000 0.800748
vt 1.000000 0.601500
vt 1.000000 0.203050
vt 0.984741 0.203050
vt 0.984741 0.000000
vt 0.984741 0.601496
vt 1.000000 0.601496
vt 0.984741 0.999994
vt 1.000000 0.999994
vt 0.984741 0.203037
vt 1.000000 0.203037
vt 0.984741 0.402250
vt 1.000000 0.402250
vt 0.984741 0.203049
vt 1.000000 0.000000
vt 1.000000 0.203049
vt 0.984741 0.402260
vt 1.000000 0.402260
vt 1.000000 0.800754
vt 0.984741 1.000000
vt 0.984741 0.800754
vt 0.984741 0.601504
vt 1.000000 0.601504
vt 0.984741 0.203038
vt 1.000000 0.203038
vt 1.000000 0.601508
vt 0.984741 0.601508
vt 0.984741 0.800748
vt 1.000000 0.800748
vt 0.984741 0.402252
vt 1.000000 0.402252
vt 1.000000 0.402262
vt 0.984741 0.402262
vt 0.984741 0.999993
vt 1.000000 0.999993
vt 0.180879 0.620112
vt 0.113446 0.691675
vt 0.092763 0.603922
vt 0.186148 0.805920
vt 0.232520 0.821508
vt 0.232520 0.853085
vt 0.181651 0.835986
vt 0.145655 0.761316
vt 0.137067 0.786873
vt 0.101626 0.710243
vt 0.078866 0.613685
vt 0.085635 0.506648
vt 0.071024 0.506649
vt 0.232514 0.191794
vt 0.186139 0.207382
vt 0.181643 0.177317
vt 0.232514 0.160218
vt 0.145652 0.251986
vt 0.137064 0.226428
vt 0.113440 0.321625
vt 0.101621 0.303056
vt 0.092763 0.409375
vt 0.078863 0.399614
vt 0.372272 0.603924
vt 0.379399 0.506651
vt 0.394010 0.506651
vt 0.386165 0.613687
vt 0.351589 0.691676
vt 0.363411 0.710245
vt 0.319377 0.761316
vt 0.327962 0.786874
vt 0.278887 0.805920
vt 0.283386 0.835986
vt 0.372272 0.409378
vt 0.386165 0.399616
vt 0.351589 0.321626
vt 0.363411 0.303058
vt 0.319377 0.251986
vt 0.327962 0.226429
vt 0.278887 0.207382
vt 0.283386 0.177317
vt 0.232530 0.846569
vt 0.284850 0.829054
vt 0.294702 0.894200
vt 0.299627 0.926774
vt 0.231852 0.949202
vt 0.232078 0.914991
vt 0.285273 0.154359
vt 0.233341 0.136844
vt 0.233794 0.068422
vt 0.234020 0.034211
vt 0.234133 0.017105
vt 0.299733 0.056639
vt 0.294913 0.089213
vt 0.330812 0.204666
vt 0.358690 0.121597
vt 0.349397 0.149287
vt 0.367091 0.283159
vt 0.405506 0.222806
vt 0.392701 0.242924
vt 0.390396 0.382067
vt 0.435576 0.350337
vt 0.420516 0.360914
vt 0.398422 0.491706
vt 0.453853 0.491706
vt 0.445934 0.491706
vt 0.430097 0.491706
vt 0.330680 0.778747
vt 0.349331 0.834126
vt 0.358657 0.861816
vt 0.363320 0.875660
vt 0.367041 0.700254
vt 0.392676 0.740489
vt 0.405493 0.760607
vt 0.390377 0.601346
vt 0.420507 0.622499
vt 0.435572 0.633076
vt 0.075494 0.382065
vt 0.067450 0.491704
vt 0.035776 0.491705
vt 0.019939 0.491706
vt 0.012020 0.491706
vt 0.022769 0.345049
vt 0.030301 0.350337
vt 0.045365 0.360913
vt 0.098827 0.283158
vt 0.053962 0.212747
vt 0.060372 0.222806
vt 0.073190 0.242923
vt 0.135186 0.204665
vt 0.102545 0.107752
vt 0.107208 0.121597
vt 0.116534 0.149286
vt 0.181016 0.154359
vt 0.166237 0.056639
vt 0.171163 0.089213
vt 0.075476 0.601344
vt 0.045357 0.622498
vt 0.030297 0.633075
vt 0.098782 0.700252
vt 0.073172 0.740488
vt 0.060367 0.760606
vt 0.053965 0.770665
vt 0.135062 0.778746
vt 0.116476 0.834126
vt 0.107184 0.861816
vt 0.180602 0.829054
vt 0.170961 0.894200
vt 0.166140 0.926774
vt 0.163730 0.943060
vt 0.281654 0.620112
vt 0.963824 0.150838
vt 0.963824 0.351955
vt 0.968992 0.351955
vt 0.968992 0.150838
vt 0.281654 0.396648
vt 0.180879 0.396648
s 1
usemtl clock_1
f 79/1/1 1/2/1 12/3/2 80/4/2
f 11/5/3 100/6/4 82/7/4 81/8/3
f 100/6/4 10/9/5 83/10/5 82/7/4
f 86/11/6 85/12/7 68/13/8 66/14/9
f 85/12/7 84/15/10 38/16/11 68/13/8
f 92/17/12 79/18/13 49/19/14 57/20/15
f 6/2/16 84/1/16 85/4/17 13/3/17
f 86/8/18 87/7/19 15/6/19 14/5/18
f 87/7/19 88/10/20 16/9/20 15/6/19
f 98/9/21 4/6/22 90/7/22 89/10/21
f 40/21/23 77/22/24 89/23/25 51/24/26
f 77/25/27 93/10/28 99/9/28 5/26/27
f 77/25/27 5/26/27 98/9/21 89/10/21
f 4/6/22 3/5/29 91/8/29 90/7/22
f 3/5/29 2/3/30 92/4/30 91/8/29
f 93/10/28 94/7/31 7/6/31 99/9/28
f 2/3/30 1/2/1 79/1/1 92/4/30
f 81/27/32 82/28/33 73/29/34 71/30/35
f 16/9/20 88/10/20 78/25/36 97/26/36
f 94/7/31 95/8/37 8/5/37 7/6/31
f 95/8/37 96/4/38 9/3/38 8/5/37
f 33/31/39 229/32/39 21/33/39
f 85/4/17 86/8/18 14/5/18 13/3/17
f 89/23/25 90/34/40 53/35/41 51/24/26
f 26/36/42 25/37/43 41/38/44 43/39/45
f 29/40/46 50/41/47 70/42/48 18/43/49
f 24/44/50 31/45/51 54/46/52 56/47/53
f 28/48/54 27/49/55 45/50/56 47/51/57
f 35/52/58 34/53/59 61/54/60 63/55/61
f 32/56/62 24/44/50 56/47/53 58/57/63
f 27/49/55 26/36/42 43/39/45 45/58/56
f 9/3/38 96/4/38 84/1/16 6/2/16
f 34/53/59 33/31/64 60/59/65 61/54/60
f 29/60/46 32/56/62 58/57/63 50/61/47
f 30/62/66 17/63/67 39/64/68 52/65/69
f 31/45/51 30/62/66 52/66/69 54/67/52
f 19/68/70 18/43/49 70/69/48 72/70/71
f 33/31/64 21/33/72 76/71/73 60/59/65
f 28/48/54 47/72/57 39/64/68 17/63/67
f 23/73/74 36/74/75 65/75/76 67/76/77
f 20/77/78 19/68/70 72/70/71 74/78/79
f 36/74/75 35/52/58 63/55/61 65/79/76
f 21/33/72 20/77/78 74/78/79 76/71/73
f 83/10/5 10/9/5 97/26/36 78/25/36
f 80/80/80 81/27/32 71/30/35 69/81/81
f 82/28/33 83/82/82 75/83/83 73/29/34
f 83/82/82 78/84/84 59/85/85 75/86/83
f 87/87/86 86/11/6 66/14/9 64/88/87
f 88/89/88 87/87/86 64/88/87 62/90/89
f 78/84/84 88/89/88 62/90/89 59/91/85
f 90/34/40 91/92/90 55/93/91 53/94/41
f 94/95/92 93/96/93 48/97/94 46/98/95
f 91/92/90 92/17/12 57/20/15 55/99/91
f 93/100/93 77/22/24 40/101/23 48/97/94
f 12/3/2 11/5/3 81/8/3 80/4/2
f 22/102/96 23/73/74 67/103/77 37/104/97
f 95/105/98 94/95/92 46/98/95 44/106/99
f 96/107/100 95/105/98 44/108/99 42/109/101
f 84/110/10 96/107/100 42/109/101 38/111/11
f 75/86/83 59/85/85 60/59/65 76/71/73
f 49/112/14 69/81/81 70/42/48 50/41/47
f 69/81/81 71/30/35 72/70/71 70/69/48
f 71/30/35 73/29/34 74/78/79 72/70/71
f 73/29/34 75/83/83 76/71/73 74/78/79
f 68/13/8 38/16/11 37/104/97 67/103/77
f 66/14/9 68/13/8 67/76/77 65/75/76
f 64/88/87 66/14/9 65/79/76 63/55/61
f 62/90/89 64/88/87 63/55/61 61/54/60
f 59/91/85 62/90/89 61/54/60 60/59/65
f 51/24/26 53/35/41 54/67/52 52/66/69
f 53/94/41 55/93/91 56/47/53 54/46/52
f 55/99/91 57/20/15 58/57/63 56/47/53
f 57/20/15 49/19/14 50/61/47 58/57/63
f 48/97/94 40/101/23 39/64/68 47/72/57
f 46/98/95 48/97/94 47/51/57 45/50/56
f 44/106/99 46/98/95 45/58/56 43/39/45
f 42/109/101 44/108/99 43/39/45 41/38/44
f 38/111/11 42/109/101 41/38/44 37/113/97
f 25/37/43 22/114/96 37/113/97 41/38/44
f 24/44/39 32/56/39 229/32/39
f 31/45/39 24/44/39 229/32/39
f 30/62/39 31/45/39 229/32/39
f 229/32/39 17/63/39 30/62/39
f 21/33/39 229/32/39 20/77/39
f 32/56/39 29/40/39 229/32/39
f 19/68/39 20/77/39 229/32/39
f 36/74/39 23/73/39 229/32/39
f 26/36/39 27/49/39 229/32/39
f 40/21/23 51/24/26 52/65/69 39/64/68
f 79/115/13 80/80/80 69/81/81 49/112/14
f 111/116/102 101/117/102 1/118/102 2/119/102
f 112/120/103 111/116/102 2/119/102 3/121/103
f 113/122/103 112/120/103 3/121/103 4/123/103
f 114/124/103 113/122/103 4/123/103 98/125/103
f 115/126/103 114/124/103 98/125/103 5/127/103
f 116/128/104 102/129/104 9/130/104 6/131/104
f 102/129/104 103/132/103 8/133/103 9/130/104
f 103/132/103 104/134/103 7/135/103 8/133/103
f 104/134/103 105/136/103 99/137/103 7/135/103
f 105/136/103 115/126/103 5/127/103 99/137/103
f 117/138/103 106/139/103 97/140/103 10/141/103
f 118/142/103 117/138/103 10/141/103 100/143/103
f 119/144/103 118/142/103 100/143/103 11/145/103
f 120/146/102 119/144/103 11/145/103 12/147/102
f 106/139/103 107/148/103 16/149/103 97/140/103
f 107/148/103 108/150/103 15/151/103 16/149/103
f 108/150/103 109/152/103 14/153/103 15/151/103
f 109/152/103 110/154/104 13/155/104 14/153/103
f 110/154/104 116/128/104 6/131/104 13/155/104
f 101/117/102 120/146/102 12/147/102 1/118/102
f 106/156/105 117/157/106 207/158/106 216/159/105
f 113/160/19 114/161/107 204/162/107 203/163/19
f 116/26/1 110/164/30 220/165/30 206/166/1
f 117/157/106 118/167/108 208/168/108 207/158/106
f 114/161/107 115/169/109 205/170/109 204/162/107
f 120/171/38 101/166/16 211/26/16 210/172/38
f 118/167/108 119/173/37 209/174/37 208/168/108
f 102/175/2 116/166/1 206/176/1 212/177/2
f 119/173/37 120/171/38 210/172/38 209/174/37
f 103/178/3 102/175/2 212/177/2 213/179/3
f 107/180/110 106/2/105 216/181/105 217/182/110
f 104/183/111 103/178/3 213/179/3 214/184/111
f 101/166/16 111/185/17 201/186/17 211/26/16
f 108/187/22 107/180/110 217/182/110 218/188/22
f 105/189/112 104/183/111 214/184/111 215/190/112
f 111/185/17 112/191/18 202/192/18 201/186/17
f 109/193/29 108/187/22 218/188/22 219/194/29
f 115/195/109 105/189/112 215/190/112 205/196/109
f 112/191/18 113/160/19 203/163/19 202/192/18
f 110/164/30 109/193/29 219/194/29 220/165/30
f 222/197/103 154/198/103 155/199/103
f 152/200/113 151/201/114 121/202/114 122/203/113
f 153/204/115 152/200/113 122/203/113 123/205/115
f 154/198/116 153/204/115 123/205/115 124/206/116
f 155/199/117 154/198/116 124/206/116 125/207/117
f 156/208/118 155/199/117 125/207/117 126/209/118
f 158/210/119 157/211/120 127/212/120 128/213/119
f 157/211/120 159/214/121 129/215/121 127/212/120
f 159/214/121 160/216/122 130/217/122 129/215/121
f 160/216/122 161/218/123 131/219/123 130/217/122
f 161/218/123 156/208/118 126/209/118 131/219/123
f 163/220/124 162/221/125 132/222/125 133/223/124
f 164/224/126 163/220/124 133/223/124 134/225/126
f 165/226/127 164/224/126 134/225/126 135/227/127
f 166/228/128 165/226/127 135/227/127 136/229/128
f 162/221/125 167/230/129 137/231/129 132/222/125
f 167/230/129 168/232/130 138/233/130 137/231/129
f 168/232/130 169/234/131 139/235/131 138/233/130
f 169/234/131 170/236/132 140/237/132 139/235/131
f 170/236/132 158/210/119 128/213/119 140/237/132
f 151/201/114 166/228/128 136/229/128 121/202/114
f 121/238/103 136/239/103 150/240/103 186/241/103 210/146/103 211/117/103 191/242/103 172/243/103
f 140/244/103 128/245/103 146/246/103 177/247/103 206/248/103 220/154/103 200/249/103 190/250/103
f 139/251/103 140/244/103 190/250/103 200/249/103 220/154/103 219/152/103 199/252/103 189/253/103
f 138/254/103 139/251/103 189/253/103 199/252/103 219/152/103 218/150/103 198/255/103 188/256/103
f 137/257/103 138/254/103 188/256/103 198/255/103 218/150/103 217/148/103 197/258/103 187/259/103
f 132/260/103 137/257/103 187/259/103 197/258/103 217/148/103 216/261/103 196/262/103 183/263/103
f 136/239/103 135/264/103 149/265/103 185/266/103 209/267/103 210/146/103 186/241/103 150/240/103
f 135/264/103 134/268/103 148/269/103 184/270/103 208/142/103 209/267/103 185/266/103 149/265/103
f 134/268/103 133/271/103 147/272/103 182/273/103 207/138/103 208/142/103 184/270/103 148/269/103
f 133/271/103 132/260/103 183/263/103 196/262/103 216/261/103 207/138/103 182/273/103 147/272/103
f 131/274/103 126/275/103 145/276/103 176/277/103 205/278/103 215/279/103 195/280/103 181/281/103
f 130/282/103 131/274/103 181/281/103 195/280/103 215/279/103 214/283/103 194/284/103 180/285/103
f 129/286/103 130/282/103 180/285/103 194/284/103 214/283/103 213/287/103 193/288/103 179/289/103
f 127/290/103 129/286/103 179/289/103 193/288/103 213/287/103 212/129/103 192/291/103 178/292/103
f 128/245/103 127/290/103 178/292/103 192/291/103 212/129/103 206/248/103 177/247/103 146/246/103
f 126/275/103 125/293/103 144/294/103 175/295/103 204/124/103 205/278/103 176/277/103 145/276/103
f 125/293/103 124/296/103 143/297/103 174/298/103 203/299/103 204/124/103 175/295/103 144/294/103
f 124/296/103 123/300/103 142/301/103 173/302/103 202/120/103 203/299/103 174/298/103 143/297/103
f 123/300/103 122/303/103 141/304/103 171/305/103 201/306/103 202/120/103 173/302/103 142/301/103
f 122/303/103 121/238/103 172/243/103 191/242/103 211/117/103 201/306/103 171/305/103 141/304/103
f 221/307/103 165/226/103 166/228/103
f 222/197/103 151/201/103 152/200/103
f 224/308/1 223/309/1 227/310/1 228/311/1
f 167/230/103 223/312/103 168/232/103
f 224/313/103 222/197/103 156/208/103
f 170/236/103 223/312/103 158/210/103
f 162/221/103 221/307/103 223/312/103
f 157/211/103 224/313/103 159/214/103
f 227/312/103 225/307/103 226/197/103 228/313/103
f 223/308/105 221/309/105 225/310/105 227/311/105
f 222/309/109 224/308/109 228/311/109 226/310/109
f 221/309/16 222/308/16 226/311/16 225/310/16
f 221/307/103 166/228/103 151/201/103
f 222/197/103 221/307/103 151/201/103
f 164/224/103 165/226/103 221/307/103
f 163/220/103 164/224/103 221/307/103
f 167/230/103 162/221/103 223/312/103
f 221/307/103 162/221/103 163/220/103
f 154/198/103 222/197/103 153/204/103
f 153/204/103 222/197/103 152/200/103
f 159/214/103 224/313/103 160/216/103
f 160/216/103 224/313/103 161/218/103
f 156/208/103 161/218/103 224/313/103
f 156/208/103 222/197/103 155/199/103
f 158/210/103 224/313/103 157/211/103
f 224/313/103 158/210/103 223/312/103
f 168/232/103 223/312/103 169/234/103
f 169/234/103 223/312/103 170/236/103
f 229/32/39 29/40/39 18/43/39
f 18/43/39 19/68/39 229/32/39
f 23/73/39 22/114/39 229/32/39
f 229/32/39 33/31/39 34/53/39
f 34/53/39 35/52/39 229/32/39
f 35/52/39 36/74/39 229/32/39
f 27/49/39 28/48/39 229/32/39
f 28/48/39 17/63/39 229/32/39
f 229/32/39 22/114/39 25/37/39
f 26/36/39 229/32/39 25/37/39
o clock_1_arm_minutes
v 0.004310 0.047060 0.000000
v 0.002099 -0.128517 -0.000000
v 0.004318 0.013296 0.000000
v 0.002411 0.007577 0.000000
v 0.005906 0.001858 0.000000
v -0.003945 0.047060 0.000000
v -0.002668 -0.128517 -0.000000
v -0.005531 0.001858 0.000000
v -0.002670 0.007577 0.000000
v -0.003624 0.013296 0.000000
v 0.004310 0.047060 0.002000
v 0.004318 0.013296 0.002000
v 0.002411 0.007577 0.002000
v 0.005906 0.001858 0.002000
v 0.002099 -0.128517 0.002000
v -0.003945 0.047060 0.002000
v -0.002668 -0.128517 0.002000
v -0.005531 0.001858 0.002000
v -0.002670 0.007577 0.002000
v -0.003624 0.013296 0.002000
vn -0.0000 -0.0000 -1.0000
vn -0.0000 -0.0000 1.0000
vn -0.9998 -0.0219 -0.0000
vn 0.9996 -0.0292 -0.0000
vn 1.0000 0.0002 -0.0000
vn -0.8943 0.4474 -0.0000
vn -0.0000 1.0000 -0.0000
vn 0.9486 -0.3164 -0.0000
vn -0.9864 -0.1645 -0.0000
vn -0.0000 -1.0000 -0.0000
vn 0.8533 0.5214 -0.0000
vn -1.0000 -0.0095 -0.0000
vt 0.941870 0.500167
vt 0.935883 0.500167
vt 0.932288 0.876105
vt 0.946650 0.876105
vt 0.935881 0.890403
vt 0.934683 0.904700
vt 0.944657 0.904700
vt 0.942262 0.890403
vt 0.934280 0.989109
vt 0.944646 0.989109
s 0
usemtl clock_1
f 231/314/133 236/315/133 237/316/133 234/317/133
f 238/318/133 239/319/133 232/320/133 233/321/133
f 239/319/133 235/322/133 230/323/133 232/320/133
f 237/316/133 238/318/133 233/321/133 234/317/133
f 244/314/134 243/317/134 247/316/134 246/315/134
f 248/318/134 242/321/134 241/320/134 249/319/134
f 249/319/134 241/320/134 240/323/134 245/322/134
f 247/316/134 243/317/134 242/321/134 248/318/134
f 237/316/135 236/315/135 246/315/135 247/316/135
f 231/314/136 234/317/136 243/317/136 244/314/136
f 232/320/137 230/323/137 240/323/137 241/320/137
f 238/318/138 237/316/138 247/316/138 248/318/138
f 230/323/139 235/322/139 245/322/139 240/323/139
f 233/321/140 232/320/140 241/320/140 242/321/140
f 239/319/141 238/318/141 248/318/141 249/319/141
f 236/315/142 231/314/142 244/314/142 246/315/142
f 234/317/143 233/321/143 242/321/143 243/317/143
f 235/322/144 239/319/144 249/319/144 245/322/144
o clock_1_arm_hours
v 0.004198 0.042433 -0.000000
v -0.003711 0.042433 -0.000000
v 0.002040 -0.089933 -0.000000
v -0.005673 0.001864 -0.000000
v 0.005701 0.001864 -0.000000
v -0.001836 0.008376 -0.000000
v 0.002118 0.008376 -0.000000
v -0.003676 0.012972 -0.000000
v 0.004033 0.012972 -0.000000
v -0.004009 -0.089933 -0.000000
v 0.004198 0.042433 0.001800
v -0.003711 0.042433 0.001800
v -0.005673 0.001864 0.001800
v 0.005701 0.001864 0.001800
v -0.001836 0.008376 0.001800
v 0.002118 0.008376 0.001800
v -0.003676 0.012972 0.001800
v 0.004033 0.012972 0.001800
v 0.002040 -0.089933 0.001800
v -0.004009 -0.089933 0.001800
vn -0.0000 -0.0000 -1.0000
vn -0.0000 -0.0000 1.0000
vn 0.9992 -0.0399 -0.0000
vn -0.0000 1.0000 -0.0000
vn -1.0000 -0.0012 -0.0000
vn 0.8761 0.4821 -0.0000
vn -0.0000 -1.0000 -0.0000
vn 0.9231 -0.3846 -0.0000
vn -0.8615 0.5077 -0.0000
vn -0.9998 -0.0181 -0.0000
vn -0.9284 -0.3716 -0.0000
vn 1.0000 -0.0056 -0.0000
vt 0.946047 0.285795
vt 0.930175 0.285795
vt 0.935529 0.303883
vt 0.941047 0.303883
vt 0.943719 0.316652
vt 0.932962 0.316652
vt 0.932914 0.398488
vt 0.943949 0.398488
vt 0.940938 0.030804
vt 0.932497 0.030804
s 0
usemtl clock_1
f 254/324/145 253/325/145 255/326/145 256/327/145
f 258/328/145 257/329/145 251/330/145 250/331/145
f 256/327/145 255/326/145 257/329/145 258/328/145
f 252/332/145 259/333/145 253/325/145 254/324/145
f 263/324/146 265/327/146 264/326/146 262/325/146
f 267/328/146 260/331/146 261/330/146 266/329/146
f 265/327/146 267/328/146 266/329/146 264/326/146
f 268/332/146 263/324/146 262/325/146 269/333/146
f 252/332/147 254/324/147 263/324/147 268/332/147
f 250/331/148 251/330/148 261/330/148 260/331/148
f 251/330/149 257/329/149 266/329/149 261/330/149
f 254/324/150 256/327/150 265/327/150 263/324/150
f 259/333/151 252/332/151 268/332/151 269/333/151
f 256/327/152 258/328/152 267/328/152 265/327/152
f 255/326/153 253/325/153 262/325/153 264/326/153
f 253/325/154 259/333/154 269/333/154 262/325/154
f 257/329/155 255/326/155 264/326/155 266/329/155
f 258/328/156 250/331/156 260/331/156 267/328/156
