# Blender 5.0.1
# www.blender.org
mtllib concrete_block_1.mtl
o concrete_block_1
v -0.211680 0.000320 0.108000
v -0.216000 0.000320 0.103680
v -0.211680 0.207680 0.108000
v -0.216000 0.207680 0.103680
v -0.216000 0.000320 -0.103680
v -0.211680 0.000320 -0.108000
v -0.211680 0.207680 -0.108000
v -0.216000 0.207680 -0.103680
v 0.216000 0.000320 0.103680
v 0.211680 0.000320 0.108000
v 0.216000 0.207680 0.103680
v 0.211680 0.207680 0.108000
v 0.211680 0.000320 -0.108000
v 0.216000 0.000320 -0.103680
v 0.211680 0.207680 -0.108000
v -0.030560 0.000320 -0.064800
v -0.021600 0.000320 -0.055840
v 0.021600 0.000320 -0.055840
v 0.030560 0.000320 -0.064800
v 0.177120 0.000320 0.052840
v 0.177120 0.000320 -0.055840
v 0.168160 0.000320 0.064800
v 0.168160 0.000320 -0.064800
v -0.177120 0.000320 0.051840
v -0.177120 0.000320 -0.055840
v -0.168160 0.000320 0.064800
v -0.168160 0.000320 -0.064800
v 0.021600 0.000320 0.052840
v -0.021600 0.000320 0.051840
v -0.030560 0.000320 0.064800
v 0.030560 0.000320 0.064800
v -0.177120 0.207680 0.051840
v -0.177120 0.207680 -0.055840
v -0.168160 0.207680 0.064800
v -0.168160 0.207680 -0.064800
v -0.021600 0.207680 -0.055840
v -0.030560 0.207680 -0.064800
v 0.030560 0.207680 -0.064800
v 0.021600 0.207680 -0.055840
v -0.030560 0.207680 0.064800
v -0.021600 0.207680 0.051840
v 0.021600 0.207680 0.052840
v 0.030560 0.207680 0.064800
v 0.177120 0.207680 0.052840
v 0.177120 0.207680 -0.055840
v 0.168160 0.207680 0.064800
v 0.168160 0.207680 -0.064800
v 0.216000 0.207680 -0.103680
vn -0.0000 1.0000 -0.0000
vn -0.3103 -0.0000 -0.9506
vn -0.9929 -0.0000 -0.1187
vn -0.3103 -0.0001 -0.9506
vn -0.0000 -1.0000 -0.0000
vn 0.2155 -0.0000 0.9765
vn 0.9765 -0.0000 0.2155
vn 0.2155 0.0001 0.9765
vn 0.9929 -0.0000 -0.1187
vn 0.3103 -0.0000 -0.9506
vn -0.2155 0.0002 0.9765
vn 0.2155 -0.0001 0.9765
vn -0.2155 -0.0000 0.9765
vn -1.0000 -0.0000 -0.0000
vn -0.9765 -0.0000 0.2155
vn -0.0000 -0.0000 -1.0000
vn 0.7071 -0.0000 -0.7071
vn -0.7071 -0.0000 -0.7071
vn -0.9765 -0.0000 0.2156
vn -0.9765 -0.0001 0.2156
vn -0.9903 -0.0000 -0.1392
vn 0.9903 -0.0000 -0.1392
vn 0.2906 0.0001 -0.9569
vn 0.2906 -0.0000 -0.9569
vn 0.9903 -0.0001 -0.1392
vn 0.7071 -0.0000 0.7071
vn -0.2906 -0.0000 -0.9569
vn -0.7071 -0.0000 0.7071
vn -0.2156 -0.0000 0.9765
vn 1.0000 -0.0000 -0.0000
vn -0.0000 -0.0000 1.0000
vt -0.000054 0.510000
vt 0.009946 0.500000
vt 0.108682 0.595330
vt 0.084492 0.628436
vt 0.854167 0.489583
vt 0.812500 0.489583
vt 0.812500 0.010417
vt 0.854167 0.010417
vt 0.989946 0.500000
vt 0.999946 0.510000
vt 0.915319 0.626013
vt 0.891312 0.595320
vt -0.000054 0.990000
vt 0.083963 0.630000
vt 0.085239 0.881255
vt 0.545615 0.626063
vt 0.454999 0.630000
vt 0.453126 0.881724
vt 0.546541 0.881723
vt 0.999946 0.990000
vt 0.915319 0.626013
vt 0.914756 0.881256
vt 0.083963 0.630000
vt 0.085239 0.881255
vt 0.885417 0.010000
vt 0.929445 0.010000
vt 0.929445 0.490000
vt 0.885417 0.490000
vt 0.645727 0.010000
vt 0.374078 0.010000
vt 0.374078 0.490000
vt 0.645727 0.490000
vt 0.430465 0.905619
vt 0.570817 0.905757
vt 0.989946 1.000000
vt 0.009946 1.000000
vt 0.740000 0.490000
vt 0.740000 0.010000
vt 0.260000 0.010000
vt 0.260000 0.490000
vt 0.154972 0.010000
vt 0.154972 0.490000
vt 0.354167 0.490000
vt 0.354167 0.010000
vt 0.990000 0.010000
vt 0.010000 0.010000
vt 0.010000 0.490000
vt 0.990000 0.490000
vt 0.750000 0.010000
vt 0.750000 0.490000
vt 0.740000 0.490000
vt 0.675894 0.010000
vt 0.675894 0.490000
vt 0.398195 0.490000
vt 0.398195 0.010000
vt 0.132467 0.490000
vt 0.132467 0.010000
vt 0.354167 0.010000
vt 0.354167 0.490000
vt 0.163358 0.010000
vt 0.163358 0.490000
vt 0.362990 0.490000
vt 0.362990 0.010000
vt 0.809461 0.010000
vt 0.851206 0.010000
vt 0.851206 0.490000
vt 0.809461 0.490000
vt 0.429182 0.905768
vt 0.569534 0.905608
vt 1.000000 0.010000
vt 1.000000 0.490000
vt 0.990000 0.490000
vt 0.429182 0.594270
vt 0.569533 0.594419
vt 0.545359 0.627251
vt 0.454829 0.628707
vt 0.453525 0.881688
vt 0.546939 0.881760
vt 0.675891 0.010000
vt 0.675891 0.490000
vt 0.398081 0.490000
vt 0.398081 0.010000
vt 0.000000 0.010000
vt 0.010000 0.490000
vt 0.000000 0.490000
vt 0.654615 0.010000
vt 0.375313 0.010000
vt 0.375313 0.490000
vt 0.654615 0.490000
vt 0.133798 0.490000
vt 0.133798 0.010000
vt 0.356336 0.010000
vt 0.356336 0.490000
vt 0.084492 0.628437
vt 0.108682 0.595330
vt 0.260000 0.010000
vt 0.740000 0.490000
vt 0.260000 0.490000
vt 0.914757 0.881255
vt 0.430466 0.594419
vt 0.570817 0.594270
vt 0.891312 0.904681
vt 0.108685 0.904673
vt 0.108685 0.904673
vt 0.891312 0.904681
vt 0.891312 0.595320
s 1
usemtl concrete_block_1
f 4/1/1 3/2/1 34/3/1 32/4/1
f 40/5/2 41/6/3 29/7/3 30/8/4
f 12/9/1 11/10/1 44/11/1 46/12/1
f 8/13/1 4/1/1 32/14/1 33/15/1
f 28/16/5 29/17/5 17/18/5 18/19/5
f 14/20/5 9/10/5 20/21/5 21/22/5
f 24/23/5 2/1/5 5/13/5 25/24/5
f 38/7/6 39/8/7 18/5/7 19/6/8
f 32/25/9 34/26/10 26/27/10 24/28/9
f 37/29/11 35/30/6 27/31/12 16/32/13
f 37/33/1 38/34/1 15/35/1 7/36/1
f 8/37/14 5/38/14 2/39/14 4/40/14
f 36/41/15 17/42/15 29/43/3 41/44/3
f 13/45/16 6/46/16 7/47/16 15/48/16
f 14/38/17 13/49/17 15/50/17 48/51/17
f 7/50/18 6/49/18 5/38/18 8/37/18
f 40/52/2 30/53/4 26/54/10 34/55/10
f 25/56/7 33/57/7 32/58/9 24/59/9
f 16/5/13 17/6/15 36/7/15 37/8/11
f 45/60/19 21/61/20 20/62/21 44/63/21
f 42/64/22 43/65/23 31/66/24 28/67/25
f 18/19/5 17/18/5 16/68/5 19/69/5
f 10/45/26 9/70/26 11/71/26 12/72/26
f 40/73/1 43/74/1 42/75/1 41/76/1
f 36/77/1 41/76/1 42/75/1 39/78/1
f 46/79/27 22/80/27 31/81/24 43/82/23
f 2/83/28 1/46/28 3/84/28 4/85/28
f 47/86/29 38/87/6 19/88/8 23/89/29
f 18/90/7 39/91/7 42/92/22 28/93/25
f 1/2/5 2/1/5 24/94/5 26/95/5
f 9/96/30 14/38/30 48/97/30 11/98/30
f 11/10/1 48/20/1 45/99/1 44/11/1
f 1/46/31 10/45/31 12/72/31 3/84/31
f 43/74/1 12/9/1 46/12/1
f 26/95/5 30/100/5 1/2/5
f 30/100/5 29/17/5 28/16/5 31/101/5
f 15/35/1 47/102/1 45/99/1 48/20/1
f 15/35/1 38/34/1 47/102/1
f 7/36/1 35/103/1 37/33/1
f 35/103/1 7/36/1 8/13/1 33/15/1
f 12/9/1 43/74/1 40/73/1 3/2/1
f 3/2/1 40/73/1 34/3/1
f 16/68/5 27/104/5 6/36/5
f 6/36/5 13/35/5 19/69/5 16/68/5
f 13/35/5 23/105/5 19/69/5
f 1/2/5 30/100/5 31/101/5 10/9/5
f 10/9/5 31/101/5 22/106/5
f 6/36/5 27/104/5 25/24/5 5/13/5
f 10/9/5 22/106/5 20/21/5 9/10/5
f 14/20/5 21/22/5 23/105/5 13/35/5
f 25/7/7 27/8/12 35/5/6 33/6/7
f 45/7/19 47/8/29 23/5/29 21/6/20
f 20/7/21 22/8/27 46/5/27 44/6/21
f 38/34/1 37/33/1 36/77/1 39/78/1
