# Blender 5.0.1
# www.blender.org
mtllib fish_skeleton_mp_1.mtl
o fish_skeleton_mp_1
v -0.295453 0.007587 -0.086625
v 0.137968 0.011987 -0.086625
v -0.295453 0.007587 0.079353
v 0.137968 0.011987 0.079353
v -0.295453 0.007037 -0.086625
v 0.137968 0.011437 -0.086625
v -0.295453 0.007037 0.079353
v 0.137968 0.011437 0.079353
v -0.178503 0.007083 0.000000
v -0.178503 0.011712 0.006714
v -0.178503 0.016341 0.000000
v -0.178503 0.011712 -0.006714
v 0.140496 0.011712 0.008630
v 0.147096 0.005426 -0.000486
v 0.147096 0.017998 -0.000486
v 0.140496 0.011712 -0.009601
v -0.200503 0.013912 0.000000
v -0.200503 0.013912 0.000000
v -0.200503 0.013912 0.000000
v -0.200503 0.013912 0.000000
v -0.019003 0.011712 -0.007056
v -0.019003 0.006254 0.000858
v -0.019003 0.011712 0.008773
v -0.019003 0.017170 0.000859
v 0.060747 0.005872 -0.010715
v 0.060747 0.000000 -0.002199
v 0.060747 0.005872 0.006315
v 0.060747 0.011743 -0.002200
v -0.098753 0.005044 0.010498
v -0.098753 0.010087 0.003184
v -0.098753 0.005044 -0.004130
v -0.098753 0.000000 0.003184
v -0.098752 0.005319 -0.086625
v -0.098752 0.005319 0.079353
v -0.178501 0.011987 -0.086625
v -0.178501 0.011987 0.079353
v -0.230339 0.015287 -0.086625
v -0.230339 0.015287 0.079353
v -0.019004 0.011987 -0.086625
v -0.019004 0.011987 0.079353
v 0.060749 0.006147 -0.086625
v 0.060749 0.006147 0.079353
v -0.098752 0.004769 -0.086625
v -0.098752 0.004769 0.079353
v -0.019004 0.011437 -0.086625
v -0.019004 0.011437 0.079353
v 0.060749 0.005597 -0.086625
v 0.060749 0.005597 0.079353
v -0.178501 0.011437 0.079353
v -0.178501 0.011437 -0.086625
v -0.230339 0.014737 0.079353
v -0.230339 0.014737 -0.086625
v 0.173660 0.020512 -0.029664
v 0.223993 0.011756 0.018100
v 0.142990 0.017835 -0.033006
v 0.140497 0.023111 0.008630
v 0.140495 0.023111 -0.009601
v 0.224249 0.011756 0.008735
v 0.221123 0.011756 0.002660
v 0.219688 0.011756 -0.003921
v 0.146321 0.011756 0.036444
v 0.199693 0.011756 -0.022145
v 0.162970 0.011756 0.041439
v 0.142170 0.011756 -0.052651
v 0.206036 0.017050 0.009606
v 0.179950 0.011756 -0.038598
v 0.213310 0.017081 0.012688
v 0.181477 0.020512 0.020379
v 0.147895 0.017835 0.026460
v 0.140495 0.000401 -0.009601
v 0.140497 0.000401 0.008630
v 0.142990 0.005677 -0.033006
v 0.173660 0.003000 -0.029664
v 0.206036 0.006462 0.009606
v 0.213310 0.006431 0.012688
v 0.180906 0.011756 0.032839
v 0.181476 0.003000 0.020378
v 0.147895 0.005677 0.026460
v 0.165506 0.011756 -0.048160
v 0.166226 0.017835 -0.035913
v 0.166226 0.005677 -0.035913
v 0.192535 0.018797 -0.013933
v 0.192535 0.004715 -0.013933
v 0.177569 0.022795 -0.004643
v 0.177568 0.000717 -0.004643
v 0.157214 0.007531 0.037025
v 0.181097 0.005671 0.030998
v 0.221371 0.015456 0.017157
v 0.181097 0.017841 0.030998
v 0.221371 0.008056 0.017157
v 0.157214 0.015981 0.037025
vn 0.0222 -0.9998 -0.0000
vn 0.1431 -0.9897 -0.0000
vn -0.0890 -0.9959 0.0137
vn -0.0879 -0.9960 -0.0150
vn 0.0359 0.0425 -0.9985
vn 0.0286 -0.0447 -0.9986
vn -0.0748 0.9971 -0.0107
vn -0.0751 0.9971 0.0071
vn 0.0101 0.0469 -0.9989
vn 0.0148 -0.0199 -0.9997
vn 0.0653 -0.9978 -0.0107
vn 0.0650 -0.9979 0.0075
vn -0.0310 0.0451 0.9985
vn -0.0264 -0.0216 0.9994
vn 0.0776 0.9969 0.0149
vn 0.0787 0.9968 -0.0138
vn -0.0436 0.0452 0.9980
vn -0.0509 -0.0420 0.9978
vn -0.2952 -0.0390 -0.9546
vn -0.2965 -0.9550 -0.0000
vn -0.6396 -0.7687 -0.0000
vn -0.2181 0.6594 -0.7195
vn -0.2181 0.6594 0.7195
vn -0.0684 0.9977 -0.0000
vn -0.2952 -0.0390 0.9546
vn -0.1098 0.9940 -0.0000
vn 0.0673 0.9976 -0.0143
vn 0.0684 0.9976 0.0133
vn 0.0335 0.0373 0.9987
vn 0.0279 -0.0391 0.9988
vn 0.0785 -0.9969 0.0100
vn 0.0779 -0.9969 -0.0110
vn 0.0179 0.0443 0.9989
vn 0.0252 -0.0429 0.9988
vn -0.0881 0.9960 0.0110
vn -0.0887 0.9960 -0.0100
vn -0.0402 0.0424 -0.9983
vn -0.0329 -0.0448 -0.9985
vn -0.0787 -0.9968 -0.0132
vn -0.0776 -0.9969 0.0143
vn -0.0429 0.0396 -0.9983
vn -0.0485 -0.0369 -0.9981
vn -0.0052 1.0000 -0.0000
vn -0.0000 1.0000 -0.0000
vn 0.0914 0.9958 -0.0000
vn -0.0012 1.0000 -0.0000
vn -0.0754 0.9972 -0.0000
vn 0.0052 -1.0000 -0.0000
vn -0.0000 -1.0000 -0.0000
vn 0.0012 -1.0000 -0.0000
vn 0.0754 -0.9972 -0.0000
vn -0.0914 -0.9958 -0.0000
vn -0.0221 0.9998 -0.0000
vn -0.5079 -0.0000 0.8614
vn 0.1568 -0.0000 0.9876
vn -0.1132 0.7922 0.5996
vn 0.5050 0.7827 0.3638
vn 0.1757 0.7956 0.5797
vn 0.3169 -0.0000 0.9485
vn 0.8275 -0.0000 0.5615
vn 0.9516 -0.0000 -0.3072
vn 0.2604 0.9608 -0.0950
vn 0.3031 0.9507 -0.0661
vn 0.3137 0.9364 -0.1570
vn 0.2873 0.9366 -0.2008
vn 0.3613 0.8727 -0.3283
vn 0.1832 0.9304 -0.3175
vn 0.3311 0.8174 -0.4714
vn 0.0983 0.9302 -0.3535
vn 0.1040 0.9039 -0.4148
vn -0.9878 -0.0000 -0.1557
vn -0.9805 -0.0000 0.1965
vn -0.9991 -0.0000 0.0417
vn -0.9990 -0.0000 -0.0448
vn -0.9988 -0.0000 -0.0490
vn -0.9842 -0.0000 0.1773
vn 0.0983 -0.9302 -0.3535
vn 0.1040 -0.9039 -0.4148
vn 0.3311 -0.8174 -0.4714
vn 0.1832 -0.9304 -0.3175
vn 0.3613 -0.8727 -0.3283
vn 0.2873 -0.9366 -0.2008
vn 0.3137 -0.9364 -0.1570
vn 0.2604 -0.9608 -0.0950
vn 0.3031 -0.9507 -0.0661
vn 0.5050 -0.7827 0.3638
vn 0.1757 -0.7957 0.5797
vn -0.1132 -0.7922 0.5996
vn 0.0954 -0.9953 -0.0161
vn 0.0114 0.9955 0.0945
vn -0.0886 0.9620 0.2581
vn 0.0807 0.9841 0.1585
vn 0.0954 0.9953 -0.0161
vn 0.0807 -0.9841 0.1585
vn -0.0886 -0.9620 0.2581
vn 0.0114 -0.9955 0.0945
vn 0.4182 -0.0000 0.9084
vn 0.4087 -0.0000 0.9127
vn 0.9138 -0.0000 -0.4062
vn -0.2778 -0.0000 -0.9606
vn -0.3399 -0.0000 -0.9405
vn -0.0045 -0.9662 -0.2576
vn 0.0121 -0.9341 -0.3567
vn -0.0045 0.9662 -0.2576
vn 0.0121 0.9341 -0.3567
vn -0.0056 0.9958 -0.0914
vn -0.0056 -0.9958 -0.0914
vn 0.1961 -0.9773 0.0805
vn 0.1961 0.9773 0.0805
vn -0.1431 0.9897 -0.0000
vt 0.144610 0.937500
vt 0.144610 0.099230
vt 0.029098 0.099230
vt 0.029098 0.937500
vt 0.391000 0.483175
vt 0.253922 0.498312
vt 0.253922 0.526958
vt 0.390958 0.514859
vt 0.665121 0.505919
vt 0.813512 0.498490
vt 0.802171 0.539518
vt 0.665124 0.545150
vt 0.665143 0.511528
vt 0.813507 0.498318
vt 0.802165 0.460098
vt 0.665095 0.470912
vt 0.253922 0.468366
vt 0.391000 0.450882
vt 0.253809 0.526911
vt 0.253809 0.498312
vt 0.216111 0.498312
vt 0.253809 0.468412
vt 0.528020 0.501587
vt 0.528021 0.465776
vt 0.527990 0.498435
vt 0.528010 0.534736
vt 0.665179 0.510982
vt 0.527988 0.498278
vt 0.813513 0.498484
vt 0.665062 0.511031
vt 0.802171 0.539518
vt 0.813505 0.498346
vt 0.528060 0.498444
vt 0.665065 0.511690
vt 0.253922 0.526958
vt 0.253922 0.468366
vt 0.528062 0.498254
vt 0.519516 0.937500
vt 0.378043 0.937500
vt 0.378043 0.099230
vt 0.519516 0.099230
vt 0.378043 0.937500
vt 0.236570 0.937500
vt 0.236570 0.099230
vt 0.378043 0.099230
vt 0.660996 0.937500
vt 0.519516 0.099230
vt 0.660996 0.099230
vt 0.797987 0.937500
vt 0.660996 0.937500
vt 0.797987 0.099230
vt 0.378043 0.099230
vt 0.378043 0.937500
vt 0.519516 0.099230
vt 0.519516 0.937500
vt 0.797987 0.937500
vt 0.797987 0.099230
vt 0.236570 0.937500
vt 0.144610 0.937500
vt 0.236570 0.099230
vt 0.832621 0.341072
vt 0.857062 0.320212
vt 0.848614 0.338641
vt 0.942789 0.421602
vt 0.883673 0.363809
vt 0.883387 0.356125
vt 0.946638 0.417662
vt 0.947011 0.456765
vt 0.920277 0.453132
vt 0.942427 0.482129
vt 0.940320 0.509617
vt 0.900464 0.551416
vt 0.910968 0.585704
vt 0.872756 0.617103
vt 0.881989 0.654409
vt 0.861842 0.643194
vt 0.860781 0.694332
vt 0.843750 0.342758
vt 0.834733 0.385399
vt 0.852767 0.385399
vt 0.843750 0.726034
vt 0.852767 0.643076
vt 0.834733 0.643076
vt 0.860592 0.543766
vt 0.826908 0.543766
vt 0.860592 0.466844
vt 0.826908 0.466844
vt 0.883669 0.363809
vt 0.878487 0.512625
vt 0.824071 0.457203
vt 0.834934 0.382755
vt 0.884227 0.408152
vt 0.878495 0.512625
vt 0.843753 0.626010
vt 0.851604 0.555932
vt 0.835900 0.555935
vt 0.856738 0.442781
vt 0.830762 0.442781
vt 0.856738 0.440771
vt 0.851651 0.578946
vt 0.835854 0.578948
vt 0.830762 0.440771
vt 0.843754 0.628020
vt 0.827733 0.631057
vt 0.826530 0.713087
vt 0.824071 0.533332
vt 0.930959 0.440264
vt 0.144610 0.099230
vt 0.236570 0.937500
vt 0.144610 0.937500
s 1
usemtl fish_skeleton_mp_1
f 52/1/1 51/2/1 7/3/2 5/4/2
f 32/5/3 9/6/4 12/7/5 31/8/6
f 28/9/7 15/10/8 16/11/9 25/12/10
f 26/13/11 14/14/12 13/15/13 27/16/14
f 30/5/15 11/6/16 10/17/17 29/18/18
f 12/19/19 9/20/20 17/21/21 20/21/22
f 17/21/21 18/21/23 19/21/24 20/21/22
f 10/22/25 11/20/26 19/21/24 18/21/23
f 9/20/20 10/22/25 18/21/23 17/21/21
f 11/20/26 12/19/19 20/21/22 19/21/24
f 28/9/27 24/23/28 23/24/29 27/16/30
f 32/5/31 22/25/32 23/24/33 29/18/34
f 30/5/35 24/23/36 21/26/37 31/8/38
f 26/27/39 22/28/40 21/26/41 25/12/42
f 14/29/12 26/30/11 25/12/10 16/31/9
f 15/32/8 28/9/7 27/16/14 13/15/13
f 22/33/40 26/34/39 27/16/30 23/24/29
f 24/23/28 28/9/27 25/12/42 21/26/41
f 11/6/16 30/5/15 31/8/6 12/35/5
f 9/6/4 32/5/3 29/18/18 10/36/17
f 24/23/36 30/5/35 29/18/34 23/24/33
f 22/37/32 32/5/31 31/8/38 21/26/37
f 39/38/43 33/39/44 34/40/44 40/41/43
f 33/42/44 35/43/45 36/44/45 34/45/44
f 41/46/46 39/38/43 40/47/43 42/48/46
f 2/49/47 41/50/46 42/48/46 4/51/47
f 45/38/48 46/47/48 44/52/49 43/53/49
f 47/46/50 48/48/50 46/54/48 45/55/48
f 6/56/51 8/57/51 48/48/50 47/50/50
f 43/42/49 44/45/49 49/44/52 50/43/52
f 35/58/45 37/59/53 38/2/53 36/60/45
f 61/61/54 63/62/55 91/63/56
f 88/64/57 89/65/58 76/66/59 54/67/60
f 88/64/57 54/67/60 58/68/61
f 65/69/62 59/70/63 60/71/64
f 82/72/65 65/69/62 60/71/64 62/73/66
f 53/74/67 82/72/65 62/73/66 66/75/68
f 80/76/69 53/74/67 66/75/68 79/77/70
f 61/78/71 69/79/72 78/80/72
f 64/81/73 72/82/74 55/83/74
f 55/83/74 72/82/74 70/84/75 57/85/75
f 57/85/75 70/84/75 71/86/76 56/87/76
f 56/87/76 71/86/76 78/80/72 69/79/72
f 81/76/77 79/77/78 66/75/79 73/74/80
f 73/74/80 66/75/79 62/73/81 83/72/82
f 83/72/82 62/73/81 60/71/83 74/69/84
f 74/69/84 60/71/83 59/70/85
f 90/64/86 58/68/61 54/67/60
f 90/64/86 54/67/60 76/66/59 87/88/87
f 61/61/54 86/63/88 63/62/55
f 73/74/80 83/72/82 85/89/89
f 56/90/90 69/91/91 68/92/92 84/93/93
f 85/89/89 77/92/94 78/91/95 71/90/96
f 53/74/67 84/93/93 82/72/65
f 59/94/97 65/95/98 74/96/98
f 65/95/98 68/97/99 77/98/99 74/96/98
f 68/99/99 67/100/100 75/101/100 77/102/99
f 58/103/101 75/101/100 67/100/100
f 89/65/58 91/63/56 63/62/55 76/66/59
f 87/88/87 76/66/59 63/62/55 86/63/88
f 72/104/102 64/105/103 79/77/78 81/76/77
f 55/104/104 80/76/69 79/77/70 64/105/105
f 84/93/93 68/92/92 65/69/62 82/72/65
f 85/89/89 83/72/82 74/69/84 77/92/94
f 55/104/104 57/106/106 84/93/93 53/74/67 80/76/69
f 57/106/106 56/90/90 84/93/93
f 70/106/107 85/89/89 71/90/96
f 72/104/102 81/76/77 73/74/80 85/89/89 70/106/107
f 77/92/94 87/88/87 86/63/88 78/91/95
f 68/92/92 69/91/91 91/63/56 89/65/58
f 75/107/108 90/64/86 87/88/87 77/92/94
f 67/107/109 68/92/92 89/65/58 88/64/57
f 69/91/91 61/61/54 91/63/56
f 78/91/95 86/63/88 61/61/54
f 67/107/109 88/64/57 58/68/61
f 75/107/108 58/68/61 90/64/86
f 37/1/53 1/4/110 3/3/110 38/108/53
f 50/109/52 49/60/52 51/108/1 52/110/1
