# Blender 5.0.1
# www.blender.org
mtllib fork_mp_1.mtl
o fork_mp_1
v -0.014641 0.010021 -0.055873
v 0.014632 0.010021 -0.055873
v -0.014641 0.007423 -0.055967
v 0.014632 0.007423 -0.055967
v 0.020486 0.003981 -0.063080
v -0.020496 0.003981 -0.063080
v 0.020486 0.006580 -0.063080
v -0.020496 0.006580 -0.063080
v 0.009654 0.011558 -0.050192
v -0.009666 0.011558 -0.050192
v 0.009654 0.008960 -0.050287
v -0.009666 0.008960 -0.050287
v 0.008775 0.003071 0.130319
v 0.008775 0.000473 0.130224
v -0.008788 0.000473 0.130224
v -0.000007 0.002740 0.139413
v -0.000007 0.000142 0.139318
v 0.006203 0.002837 0.136749
v -0.008788 0.003071 0.130319
v -0.006216 0.002837 0.136749
v 0.006203 0.000239 0.136655
v -0.006216 0.000239 0.136655
v 0.008651 0.006241 0.043276
v 0.008651 0.003643 0.043182
v -0.008664 0.003643 0.043182
v -0.008664 0.006241 0.043276
v -0.006379 0.010123 -0.039187
v 0.006364 0.012721 -0.039092
v 0.006364 0.010123 -0.039187
v -0.006379 0.012721 -0.039092
v 0.007252 0.010387 0.002125
v 0.007252 0.007788 0.002030
v -0.007267 0.010387 0.002125
v -0.007267 0.007788 0.002030
v -0.006426 0.010285 -0.018530
v 0.006410 0.012883 -0.018435
v 0.006410 0.010285 -0.018530
v -0.006426 0.012883 -0.018435
v 0.007945 0.007983 0.022689
v 0.007945 0.005384 0.022594
v -0.007959 0.007983 0.022689
v -0.007959 0.005384 0.022594
v -0.006056 0.010399 -0.028836
v 0.006041 0.012997 -0.028741
v 0.006041 0.010399 -0.028836
v -0.006056 0.012997 -0.028741
v 0.006769 0.011808 -0.008149
v 0.006769 0.009209 -0.008243
v -0.006783 0.011808 -0.008149
v -0.006783 0.009209 -0.008243
v -0.014641 0.000981 -0.073080
v -0.008787 0.000981 -0.073080
v -0.002932 0.000981 -0.073080
v 0.002922 0.000981 -0.073080
v 0.008777 0.000981 -0.073080
v 0.014631 0.000981 -0.073080
v -0.014641 0.003580 -0.073080
v -0.008787 0.003580 -0.073080
v -0.002932 0.003580 -0.073080
v 0.002922 0.003580 -0.073080
v 0.008777 0.003580 -0.073080
v 0.014631 0.003580 -0.073080
v -0.017496 0.011021 -0.133080
v 0.007277 0.008423 -0.133080
v 0.004422 0.008423 -0.133080
v -0.004432 0.008423 -0.133080
v -0.007287 0.008423 -0.133080
v -0.017496 0.008423 -0.133080
v -0.014641 0.011021 -0.133080
v -0.014641 0.008423 -0.133080
v 0.017486 0.011021 -0.133080
v 0.014631 0.011021 -0.133080
v 0.017486 0.008423 -0.133080
v 0.014631 0.008423 -0.133080
v -0.007287 0.011021 -0.133080
v -0.004432 0.011021 -0.133080
v 0.004422 0.011021 -0.133080
v 0.007277 0.011021 -0.133080
v 0.022486 0.000981 -0.073080
v 0.022486 0.003580 -0.073080
v -0.022496 0.003580 -0.073080
v -0.022496 0.000981 -0.073080
v -0.014641 0.003580 -0.103184
v -0.014641 0.000981 -0.103184
v -0.021496 0.000981 -0.103184
v -0.021496 0.003580 -0.103184
v -0.008787 0.000981 -0.103184
v -0.002932 0.000981 -0.103184
v -0.002932 0.003580 -0.103184
v -0.008787 0.003580 -0.103184
v 0.008777 0.003580 -0.103184
v 0.002922 0.003580 -0.103184
v 0.002922 0.000981 -0.103184
v 0.008777 0.000981 -0.103184
v 0.021486 0.000981 -0.103184
v 0.014631 0.003580 -0.103184
v 0.014631 0.000981 -0.103184
v 0.021486 0.003580 -0.103184
v 0.014631 -0.000019 -0.088132
v 0.022486 0.002580 -0.088132
v 0.022486 -0.000019 -0.088132
v 0.014631 0.002580 -0.088132
v 0.002922 0.002580 -0.088132
v 0.008777 -0.000019 -0.088132
v 0.008777 0.002580 -0.088132
v 0.002922 -0.000019 -0.088132
v -0.002932 -0.000019 -0.088132
v -0.002932 0.002580 -0.088132
v -0.008787 -0.000019 -0.088132
v -0.008787 0.002580 -0.088132
v -0.022496 0.002580 -0.088132
v -0.014641 0.002580 -0.088132
v -0.014641 -0.000019 -0.088132
v -0.022496 -0.000019 -0.088132
v -0.014641 0.006580 -0.118132
v -0.014641 0.003981 -0.118132
v -0.019496 0.003981 -0.118132
v -0.019496 0.006580 -0.118132
v -0.008287 0.003981 -0.118132
v -0.008287 0.006580 -0.118132
v -0.003432 0.003981 -0.118132
v -0.003432 0.006580 -0.118132
v 0.008277 0.006580 -0.118132
v 0.003422 0.003981 -0.118132
v 0.003422 0.006580 -0.118132
v 0.008277 0.003981 -0.118132
v 0.019486 0.003981 -0.118132
v 0.014631 0.006580 -0.118132
v 0.014631 0.003981 -0.118132
v 0.019486 0.006580 -0.118132
vn 0.7578 -0.0191 0.6522
vn 0.8866 -0.0168 0.4621
vn 0.8618 -0.0185 0.5068
vn 0.7622 -0.0167 0.6471
vn -0.7623 -0.0167 0.6470
vn -0.8620 -0.0184 0.5066
vn -0.8868 -0.0168 0.4619
vn -0.7579 -0.0191 0.6521
vn 0.9246 -0.0047 0.3810
vn 0.8806 -0.0072 0.4739
vn -0.0000 0.9411 -0.3382
vn -0.0000 0.9766 -0.2149
vn -0.9998 0.0006 -0.0175
vn -0.9821 -0.0069 0.1882
vn -0.9998 0.0007 -0.0180
vn -0.0000 -0.9787 0.2051
vn -0.0000 -0.9218 0.3877
vn -0.0000 0.9232 -0.3842
vn -0.0000 0.9233 -0.3842
vn -0.0000 0.9787 -0.2051
vn -0.0000 0.9993 0.0364
vn -0.0000 -0.0364 0.9993
vn -0.7160 -0.0254 0.6977
vn -0.0000 -0.9982 -0.0601
vn -0.0000 -0.9993 -0.0364
vn 0.9998 0.0007 -0.0180
vn 0.9821 -0.0069 0.1882
vn 0.9998 0.0006 -0.0175
vn -0.0000 -0.9976 0.0691
vn -0.9859 -0.0061 0.1673
vn -0.9885 -0.0055 0.1511
vn 0.7160 -0.0254 0.6977
vn -0.0000 0.9950 0.0999
vn -0.0000 0.9982 0.0601
vn 0.9994 0.0012 -0.0338
vn 0.9994 0.0012 -0.0339
vn -0.0000 -0.9950 -0.0999
vn -0.9994 0.0012 -0.0338
vn -0.9992 0.0015 -0.0410
vn -0.9992 0.0014 -0.0398
vn -0.9992 0.0015 -0.0405
vn -0.9992 0.0015 -0.0404
vn -0.0000 -0.9927 -0.1209
vn -0.0000 -0.9920 -0.1263
vn 0.9992 0.0015 -0.0404
vn 0.9992 0.0015 -0.0405
vn 0.9992 0.0014 -0.0398
vn 0.9992 0.0015 -0.0411
vn -0.0000 0.9927 0.1209
vn -0.0000 0.9920 0.1263
vn -0.0000 1.0000 -0.0078
vn -0.0000 0.9983 0.0586
vn 1.0000 0.0001 -0.0033
vn 0.9994 0.0013 -0.0353
vn 0.9994 0.0013 -0.0352
vn 1.0000 0.0001 -0.0014
vn -0.0000 -1.0000 0.0078
vn -0.0000 -0.9983 -0.0586
vn -1.0000 0.0001 -0.0014
vn -0.9994 0.0013 -0.0352
vn -1.0000 0.0001 -0.0033
vn 0.9885 -0.0055 0.1512
vn 0.9859 -0.0061 0.1674
vn -0.0000 0.9976 -0.0691
vn -0.8806 -0.0072 0.4739
vn -0.9245 -0.0047 0.3810
vn -0.0000 -0.9405 0.3397
vn -0.0000 -0.9766 0.2149
vn -1.0000 -0.0000 -0.0000
vn -0.0000 -0.0000 -1.0000
vn -0.0000 0.9709 0.2397
vn -0.0000 0.9586 0.2848
vn 0.9912 -0.0000 -0.1326
vn -0.0000 -0.9709 -0.2397
vn -0.0000 -0.9586 -0.2848
vn 0.9986 -0.0000 -0.0526
vn 0.9989 -0.0000 -0.0474
vn 0.9978 -0.0000 -0.0667
vn -0.0000 0.9853 -0.1708
vn -0.0000 -0.9705 -0.2411
vn -0.0000 -0.9714 -0.2374
vn -0.9989 -0.0000 -0.0474
vn -0.9986 -0.0000 -0.0526
vn -0.9978 -0.0000 -0.0667
vn -0.0000 0.9705 0.2411
vn -0.0000 0.9714 0.2374
vn 1.0000 -0.0000 -0.0000
vn -0.0000 -0.9853 0.1708
vn -0.9912 -0.0000 -0.1326
vn -0.9941 -0.0000 0.1089
vn -0.9962 -0.0000 0.0866
vn 0.9962 -0.0000 0.0866
vn 0.9941 -0.0000 0.1089
vn -0.0000 1.0000 -0.0000
vn -0.0000 1.0000 -0.0014
vn -0.0000 -1.0000 -0.0000
vn -0.0000 -1.0000 0.0014
vn -0.0000 -0.9913 -0.1318
vn -0.0000 -0.9918 -0.1276
vn -0.9994 -0.0000 -0.0332
vn -0.9995 -0.0000 -0.0332
vn -0.9948 -0.0000 -0.1022
vn -0.9953 -0.0000 -0.0966
vn -0.0000 0.9913 0.1318
vn -0.0000 0.9918 0.1276
vn -0.0000 0.9914 0.1311
vn -0.9998 -0.0000 -0.0181
vn -0.9999 -0.0000 -0.0153
vn 0.9999 -0.0000 -0.0153
vn 0.9998 -0.0000 -0.0181
vn -0.0000 -0.9914 -0.1311
vn 0.9994 -0.0000 -0.0332
vn 0.9953 -0.0000 -0.0966
vn 0.9948 -0.0000 -0.1022
vt 0.019731 0.427787
vt 0.019731 0.435983
vt 0.016967 0.435983
vt 0.016967 0.427787
vt 0.016967 0.551941
vt 0.016967 0.543773
vt 0.019733 0.543773
vt 0.019733 0.551941
vt 0.016967 0.417292
vt 0.019731 0.417292
vt 0.076259 0.433636
vt 0.032676 0.433636
vt 0.051354 0.422533
vt 0.057581 0.422533
vt 0.016967 0.443698
vt 0.016967 0.351389
vt 0.019733 0.351389
vt 0.019733 0.443698
vt 0.064739 0.448343
vt 0.044193 0.448343
vt 0.038902 0.442084
vt 0.070033 0.442084
vt 0.038902 0.442130
vt 0.070033 0.442130
vt 0.064742 0.448388
vt 0.044196 0.448388
vt 0.061073 0.647724
vt 0.054469 0.650558
vt 0.047866 0.647724
vt 0.019733 0.336883
vt 0.019733 0.344044
vt 0.016967 0.344044
vt 0.016967 0.336883
vt 0.063673 0.548205
vt 0.063805 0.640835
vt 0.045126 0.640835
vt 0.045258 0.548205
vt 0.019731 0.536406
vt 0.019731 0.629036
vt 0.016967 0.629036
vt 0.016967 0.536406
vt 0.061240 0.460212
vt 0.047689 0.460212
vt 0.016967 0.531442
vt 0.019733 0.531442
vt 0.045130 0.640880
vt 0.063809 0.640880
vt 0.061069 0.647678
vt 0.054465 0.650513
vt 0.047862 0.647678
vt 0.019731 0.636405
vt 0.016967 0.636405
vt 0.062926 0.526278
vt 0.063677 0.548251
vt 0.045262 0.548251
vt 0.046012 0.526278
vt 0.019731 0.514420
vt 0.016967 0.514420
vt 0.062922 0.526232
vt 0.046008 0.526232
vt 0.016967 0.465607
vt 0.019733 0.465607
vt 0.016967 0.498565
vt 0.016967 0.487561
vt 0.019733 0.487561
vt 0.019733 0.498565
vt 0.061671 0.493184
vt 0.062186 0.504214
vt 0.046744 0.504214
vt 0.047259 0.493184
vt 0.019731 0.481348
vt 0.019731 0.492390
vt 0.016967 0.492390
vt 0.016967 0.481348
vt 0.061676 0.493230
vt 0.062191 0.504260
vt 0.046749 0.504260
vt 0.047264 0.493230
vt 0.060903 0.471270
vt 0.061296 0.482230
vt 0.047645 0.482230
vt 0.048038 0.471270
vt 0.019731 0.459374
vt 0.019731 0.470342
vt 0.016967 0.470342
vt 0.016967 0.459374
vt 0.060897 0.471224
vt 0.061290 0.482185
vt 0.047639 0.482185
vt 0.048032 0.471224
vt 0.016967 0.520463
vt 0.016967 0.509533
vt 0.019733 0.509533
vt 0.019733 0.520463
vt 0.019731 0.448357
vt 0.016967 0.448357
vt 0.061246 0.460257
vt 0.047695 0.460257
vt 0.019731 0.643592
vt 0.016967 0.643592
vt 0.019733 0.562399
vt 0.016967 0.562399
vt 0.076259 0.433681
vt 0.032676 0.433681
vt 0.051354 0.422578
vt 0.057581 0.422578
vt 0.016967 0.464026
vt 0.019731 0.464026
vt 0.019731 0.480678
vt 0.016967 0.480678
vt 0.016967 0.408115
vt 0.019731 0.408115
vt 0.019731 0.414341
vt 0.016967 0.414341
vt 0.050823 0.374233
vt 0.045660 0.374233
vt 0.046723 0.357649
vt 0.049759 0.357649
vt 0.016967 0.403405
vt 0.019731 0.403405
vt 0.019731 0.421760
vt 0.016967 0.421760
vt 0.019731 0.357600
vt 0.016967 0.357600
vt 0.016967 0.340948
vt 0.019731 0.340948
vt 0.016967 0.415640
vt 0.016967 0.409413
vt 0.019731 0.409413
vt 0.019731 0.415640
vt 0.050823 0.374279
vt 0.045660 0.374279
vt 0.046723 0.357695
vt 0.049759 0.357695
vt 0.020003 0.468403
vt 0.020003 0.471166
vt 0.016967 0.471166
vt 0.016967 0.468403
vt 0.020003 0.473929
vt 0.016967 0.473929
vt 0.020003 0.476693
vt 0.016967 0.476693
vt 0.020003 0.479456
vt 0.016967 0.479456
vt 0.020003 0.476693
vt 0.063275 0.374279
vt 0.058112 0.374279
vt 0.059176 0.357695
vt 0.062211 0.357695
vt 0.019731 0.361105
vt 0.016967 0.361105
vt 0.016967 0.344487
vt 0.019731 0.344487
vt 0.038902 0.422533
vt 0.030549 0.422533
vt 0.070033 0.374279
vt 0.070033 0.357695
vt 0.073069 0.357694
vt 0.075196 0.374279
vt 0.019731 0.355097
vt 0.016967 0.355097
vt 0.016967 0.338479
vt 0.019731 0.338479
vt 0.070033 0.374233
vt 0.070033 0.357649
vt 0.073069 0.357649
vt 0.075196 0.374233
vt 0.016967 0.470068
vt 0.019731 0.470068
vt 0.019731 0.486687
vt 0.016967 0.486687
vt 0.016967 0.462727
vt 0.019731 0.462727
vt 0.019731 0.479379
vt 0.016967 0.479379
vt 0.019731 0.359807
vt 0.016967 0.359807
vt 0.016967 0.343188
vt 0.019731 0.343188
vt 0.038902 0.422578
vt 0.030549 0.422578
vt 0.063275 0.374233
vt 0.058112 0.374233
vt 0.059176 0.357649
vt 0.062211 0.357649
vt 0.016967 0.621884
vt 0.019733 0.621884
vt 0.019733 0.638479
vt 0.016967 0.638479
vt 0.063807 0.422578
vt 0.070033 0.422578
vt 0.045128 0.422578
vt 0.063807 0.422533
vt 0.070033 0.422533
vt 0.045128 0.422533
vt 0.019733 0.573665
vt 0.016967 0.573665
vt 0.016967 0.405987
vt 0.019731 0.405987
vt 0.038902 0.406490
vt 0.030549 0.406490
vt 0.078386 0.422533
vt 0.078386 0.422578
vt 0.038902 0.406535
vt 0.030549 0.406535
vt 0.038902 0.374279
vt 0.038902 0.390493
vt 0.031612 0.390493
vt 0.033739 0.374279
vt 0.016967 0.589653
vt 0.019733 0.589653
vt 0.019733 0.605657
vt 0.016967 0.605657
vt 0.016967 0.430383
vt 0.019731 0.430383
vt 0.019731 0.446444
vt 0.016967 0.446444
vt 0.070033 0.406490
vt 0.070033 0.390447
vt 0.077323 0.390447
vt 0.078386 0.406490
vt 0.063807 0.406490
vt 0.057581 0.406490
vt 0.057581 0.390447
vt 0.063807 0.390447
vt 0.019731 0.392072
vt 0.016967 0.392072
vt 0.016967 0.376029
vt 0.019731 0.376029
vt 0.016967 0.437803
vt 0.019731 0.437803
vt 0.019731 0.453846
vt 0.016967 0.453846
vt 0.051354 0.406535
vt 0.045128 0.406535
vt 0.045128 0.390493
vt 0.051354 0.390493
vt 0.019731 0.387362
vt 0.016967 0.387362
vt 0.016967 0.371319
vt 0.019731 0.371319
vt 0.019731 0.393371
vt 0.016967 0.393371
vt 0.016967 0.377328
vt 0.019731 0.377328
vt 0.063807 0.406535
vt 0.057581 0.406535
vt 0.057581 0.390493
vt 0.063807 0.390493
vt 0.051354 0.406490
vt 0.045128 0.406490
vt 0.045128 0.390447
vt 0.051354 0.390447
vt 0.038902 0.374233
vt 0.038902 0.390447
vt 0.031612 0.390447
vt 0.033739 0.374233
vt 0.070033 0.406535
vt 0.070033 0.390492
vt 0.077323 0.390492
vt 0.078386 0.406535
vt 0.019731 0.389944
vt 0.016967 0.389944
vt 0.016967 0.373884
vt 0.019731 0.373884
vt 0.016967 0.431682
vt 0.019731 0.431682
vt 0.019731 0.447743
vt 0.016967 0.447743
vt 0.038902 0.357695
vt 0.035866 0.357695
vt 0.038902 0.357649
vt 0.035866 0.357649
s 1
usemtl misc_mp_1
f 2/1/1 9/2/2 11/3/3 4/4/4
f 3/5/5 12/6/6 10/7/7 1/8/8
f 2/1/1 4/4/4 5/9/9 7/10/10
f 8/11/11 7/12/11 60/13/12 59/14/12
f 25/15/13 15/16/14 19/17/14 26/18/15
f 11/19/16 12/20/16 3/21/17 4/22/17
f 2/23/18 1/24/19 10/25/20 9/26/20
f 20/27/21 16/28/21 18/29/21
f 16/30/22 20/31/23 22/32/23 17/33/22
f 24/34/24 14/35/25 15/36/25 25/37/24
f 23/38/26 13/39/27 14/40/27 24/41/28
f 11/19/16 29/42/29 27/43/29 12/20/16
f 10/7/7 12/6/6 27/44/30 30/45/31
f 13/46/21 19/47/21 20/27/21 18/29/21
f 15/16/14 22/32/23 20/31/23 19/17/14
f 21/48/25 17/49/25 22/50/25
f 13/39/27 18/51/32 21/52/32 14/40/27
f 14/35/25 21/48/25 22/50/25 15/36/25
f 41/53/33 26/54/34 23/55/34 39/56/33
f 39/57/35 23/38/26 24/41/28 40/58/36
f 40/59/37 24/34/24 25/37/24 42/60/37
f 42/61/38 25/15/13 26/18/15 41/62/38
f 26/54/34 19/47/21 13/46/21 23/55/34
f 50/63/39 34/64/40 33/65/41 49/66/42
f 48/67/43 32/68/44 34/69/44 50/70/43
f 47/71/45 31/72/46 32/73/47 48/74/48
f 49/75/49 33/76/50 31/77/50 47/78/49
f 46/79/51 38/80/52 36/81/52 44/82/51
f 44/83/53 36/84/54 37/85/55 45/86/56
f 45/87/57 37/88/58 35/89/58 43/90/57
f 43/91/59 35/92/60 38/93/60 46/94/61
f 34/64/40 42/61/38 41/62/38 33/65/41
f 32/68/44 40/59/37 42/60/37 34/69/44
f 31/72/46 39/57/35 40/58/36 32/73/47
f 33/76/50 41/53/33 39/56/33 31/77/50
f 27/44/30 43/91/59 46/94/61 30/45/31
f 29/42/29 45/87/57 43/90/57 27/43/29
f 28/95/62 44/83/53 45/86/56 29/96/63
f 30/97/64 46/79/51 44/82/51 28/98/64
f 38/80/52 49/75/49 47/78/49 36/81/52
f 36/84/54 47/71/45 48/74/48 37/85/55
f 37/88/58 48/67/43 50/70/43 35/89/58
f 35/92/60 50/63/39 49/66/42 38/93/60
f 11/3/3 9/2/2 28/95/62 29/96/63
f 30/97/64 28/98/64 9/26/20 10/25/20
f 18/51/32 16/99/22 17/100/22 21/52/32
f 3/5/5 1/8/8 8/101/65 6/102/66
f 5/103/67 6/104/67 53/105/68 54/106/68
f 129/107/69 128/108/69 72/109/69 74/110/69
f 58/111/70 52/112/70 51/113/70 57/114/70
f 125/115/71 123/116/71 78/117/72 77/118/72
f 60/119/70 54/120/70 53/121/70 59/122/70
f 130/123/73 127/124/73 73/125/73 71/126/73
f 56/127/70 55/128/70 61/129/70 62/130/70
f 121/131/74 119/132/74 67/133/75 66/134/75
f 69/135/70 70/136/70 68/137/70 63/138/70
f 76/136/70 66/139/70 67/140/70 75/137/70
f 78/139/70 64/141/70 65/142/70 77/140/70
f 73/143/70 74/144/70 72/142/70 71/145/70
f 126/146/74 124/147/74 65/148/75 64/149/75
f 123/150/76 126/151/77 64/152/78 78/153/78
f 62/154/12 7/12/11 80/155/79
f 129/156/80 74/157/75 73/158/75 127/159/81
f 124/160/82 125/161/83 77/162/84 65/163/84
f 115/164/85 69/165/72 63/166/72 118/167/86
f 122/168/76 121/169/77 66/170/78 76/171/78
f 115/172/87 116/173/87 70/174/87 69/175/87
f 119/176/82 120/177/83 75/178/84 67/179/84
f 51/180/68 6/104/67 82/181/88
f 120/182/71 122/183/71 76/184/72 75/185/72
f 117/186/89 118/187/89 63/188/89 68/189/89
f 2/23/18 7/12/11 8/11/11 1/24/19
f 54/106/68 55/190/68 5/103/67
f 55/190/68 56/191/68 5/103/67
f 53/105/68 6/104/67 52/192/68
f 52/192/68 6/104/67 51/180/68
f 59/14/12 58/193/12 8/11/11
f 58/193/12 57/194/12 8/11/11
f 60/13/12 7/12/11 61/195/12
f 61/195/12 7/12/11 62/154/12
f 5/103/67 4/22/17 3/21/17 6/104/67
f 6/102/66 8/101/65 81/196/90 82/197/91
f 7/10/10 5/9/9 79/198/92 80/199/93
f 102/200/94 62/154/12 80/155/79 100/201/95
f 8/11/11 57/194/12 81/202/79
f 5/103/67 56/191/68 79/203/88
f 113/204/96 51/180/68 82/181/88 114/205/97
f 116/206/80 84/207/98 85/208/99 117/209/81
f 114/210/100 111/211/101 86/212/102 85/213/103
f 112/214/87 113/215/87 84/216/87 83/217/87
f 112/218/94 83/219/104 86/220/105 111/221/95
f 110/222/94 108/223/94 89/224/106 90/225/106
f 109/226/69 110/227/69 90/228/107 87/229/108
f 108/230/87 107/231/87 88/232/109 89/233/110
f 107/234/96 109/235/96 87/236/111 88/237/111
f 106/238/69 103/239/69 92/240/107 93/241/108
f 105/242/87 104/243/87 94/244/109 91/245/110
f 104/246/96 106/247/96 93/248/111 94/249/111
f 103/250/94 105/251/94 91/252/106 92/253/106
f 128/254/85 96/255/104 98/256/105 130/257/86
f 99/258/96 97/259/98 95/260/99 101/261/97
f 100/262/112 101/263/112 95/264/113 98/265/114
f 99/266/69 102/267/69 96/268/69 97/269/69
f 56/127/69 62/130/69 102/267/69 99/266/69
f 80/199/93 79/198/92 101/263/112 100/262/112
f 56/191/68 99/258/96 101/261/97 79/203/88
f 96/255/104 102/200/94 100/201/95 98/256/105
f 60/13/12 61/195/12 105/251/94 103/250/94
f 55/190/68 54/106/68 106/247/96 104/246/96
f 61/129/87 55/128/87 104/243/87 105/242/87
f 54/120/69 60/119/69 103/239/69 106/238/69
f 53/105/68 52/192/68 109/235/96 107/234/96
f 59/122/87 53/121/87 107/231/87 108/230/87
f 52/112/69 58/111/69 110/227/69 109/226/69
f 58/193/12 59/14/12 108/223/94 110/222/94
f 57/194/12 112/218/94 111/221/95 81/202/79
f 57/114/87 51/113/87 113/215/87 112/214/87
f 82/197/91 81/196/90 111/211/101 114/210/100
f 84/207/98 113/204/96 114/205/97 85/208/99
f 70/270/75 116/206/80 117/209/81 68/271/75
f 85/213/103 86/212/102 118/187/89 117/186/89
f 83/217/87 84/216/87 116/173/87 115/172/87
f 83/219/104 115/164/85 118/167/86 86/220/105
f 90/225/106 89/224/106 122/183/71 120/182/71
f 87/229/108 90/228/107 120/177/83 119/176/82
f 89/233/110 88/232/109 121/169/77 122/168/76
f 88/237/111 87/236/111 119/132/74 121/131/74
f 93/241/108 92/240/107 125/161/83 124/160/82
f 91/245/110 94/244/109 126/151/77 123/150/76
f 94/249/111 93/248/111 124/147/74 126/146/74
f 92/253/106 91/252/106 123/116/71 125/115/71
f 72/272/72 128/254/85 130/257/86 71/273/72
f 97/259/98 129/156/80 127/159/81 95/260/99
f 98/265/114 95/264/113 127/124/73 130/123/73
f 97/269/69 96/268/69 128/108/69 129/107/69
