# Blender 5.0.1
# www.blender.org
mtllib jerrycan_1_1.mtl
o jerrycan_1_1
v 0.148957 0.042075 0.151470
v -0.148958 0.042075 0.151470
v 0.148958 0.042075 -0.235620
v -0.148957 0.042075 -0.235620
v 0.155404 0.479659 0.115566
v -0.155404 0.479659 0.115566
v 0.148958 0.475448 -0.235620
v -0.148957 0.475448 -0.235620
v -0.100397 0.028050 0.157080
v 0.100397 0.028050 0.157080
v 0.100397 0.028050 -0.241230
v -0.100397 0.028050 -0.241230
v -0.100822 0.485265 -0.241230
v 0.100822 0.485265 -0.241230
v -0.155405 0.028050 -0.193545
v 0.155405 0.028050 -0.193545
v -0.155405 0.485265 -0.193545
v 0.155405 0.485265 -0.193545
v -0.100822 0.502472 -0.133237
v -0.100822 0.502472 -0.193545
v 0.100822 0.502472 -0.133237
v 0.100822 0.502472 -0.193545
v -0.100397 0.000000 -0.193545
v 0.100397 0.000000 -0.193545
v 0.057862 0.438702 0.154836
v -0.057862 0.438702 0.154836
v 0.019905 0.447198 0.039012
v -0.053373 0.502472 -0.193263
v 0.053373 0.502472 -0.193263
v -0.019907 0.447198 -0.009474
v 0.019907 0.447198 -0.009474
v -0.021677 0.502472 -0.142120
v 0.021677 0.502472 -0.142120
v -0.021677 0.481805 -0.142120
v 0.021677 0.481805 -0.142120
v -0.019904 0.489033 0.014352
v 0.019903 0.489033 0.014352
v -0.019904 0.475145 -0.001783
v 0.019903 0.475145 -0.001783
v -0.054737 0.450886 -0.134758
v 0.148957 0.441507 0.152031
v -0.148958 0.441507 0.152031
v 0.100822 0.439138 0.160820
v -0.100822 0.439138 0.160820
v 0.128351 0.030452 0.156119
v -0.154301 0.030452 0.128303
v -0.128351 0.030452 -0.240269
v 0.154301 0.030452 -0.217712
v -0.154301 0.483583 -0.217712
v 0.128662 0.483583 -0.240269
v 0.154301 0.441917 -0.240269
v 0.154301 0.419333 0.153226
v -0.153196 0.462581 0.135167
v -0.154301 0.441917 -0.240269
v -0.128351 0.030452 0.156119
v 0.128351 0.030452 -0.240269
v -0.081615 0.471740 0.135559
v -0.128662 0.483583 -0.240269
v -0.100822 0.465981 0.147744
v 0.100822 0.465981 0.147744
v 0.100822 0.443190 -0.251047
v -0.100822 0.443190 -0.251047
v -0.100822 0.502472 -0.218439
v 0.100822 0.502472 -0.218439
v -0.100397 0.003506 0.129030
v 0.100397 0.003506 0.129030
v -0.154301 0.030452 -0.217712
v 0.154301 0.483583 -0.217712
v -0.100397 0.003506 -0.218439
v 0.100397 0.003506 -0.218439
v -0.129186 0.003506 -0.193545
v 0.080089 0.502472 -0.183263
v 0.080601 0.476058 -0.131328
v -0.166688 0.443190 -0.193545
v 0.129186 0.003506 -0.193545
v 0.166688 0.443190 -0.193545
v 0.081614 0.471740 0.135559
v -0.000000 0.439334 0.156580
v -0.080089 0.502472 -0.183263
v -0.080601 0.476058 -0.131328
v 0.154301 0.030452 0.128303
v -0.037097 0.502472 -0.183263
v 0.037097 0.502472 -0.183263
v 0.037279 0.460300 -0.168720
v -0.037279 0.460300 -0.168720
v -0.025760 0.477406 -0.157112
v -0.025760 0.502472 -0.162389
v 0.025760 0.502472 -0.162389
v 0.025760 0.477406 -0.157112
v 0.020125 0.502472 -0.120096
v 0.020125 0.483186 -0.120096
v -0.020125 0.483186 -0.120096
v -0.020125 0.502472 -0.120096
v -0.019903 0.481986 -0.011655
v -0.019903 0.502472 -0.004885
v 0.019903 0.502471 -0.004885
v 0.019903 0.481986 -0.011655
v 0.054737 0.450886 -0.134758
v -0.054737 0.447375 0.135027
v 0.054737 0.447375 0.135027
v -0.019906 0.460046 0.003521
v -0.019905 0.447198 0.039012
v 0.019906 0.460046 0.003521
v 0.153196 0.462581 0.135167
v -0.154301 0.419333 0.153226
v 0.128662 0.440425 0.158707
v 0.081614 0.438702 0.161388
v -0.128662 0.440425 0.158707
v -0.081615 0.438702 0.161388
v 0.165136 0.442872 -0.218257
v 0.128978 0.006883 -0.218258
v -0.164904 0.442166 0.117375
v -0.128662 0.442872 -0.249697
v 0.128662 0.468689 0.144162
v -0.128662 0.468690 0.144162
v 0.085951 0.458421 0.149579
v 0.128662 0.442872 -0.249697
v 0.080601 0.476058 0.091142
v -0.128977 0.006883 -0.218258
v -0.128662 0.502472 -0.218257
v -0.165136 0.442872 -0.218257
v 0.128662 0.502472 -0.218257
v -0.080601 0.476058 0.091142
v -0.085951 0.458421 0.149579
v 0.164904 0.442166 0.117375
v 0.128978 0.006883 0.128848
v -0.128978 0.006883 0.128848
v 0.128983 0.411897 0.165493
v 0.079615 0.410568 0.167419
v -0.128983 0.411897 0.165493
v -0.079615 0.410568 0.167419
v 0.152223 0.373730 0.150274
v -0.152237 0.373730 0.150275
v 0.151695 0.373730 -0.236493
v -0.151709 0.373730 -0.236493
v -0.098020 0.373730 -0.247433
v 0.098007 0.373730 -0.247433
v -0.164296 0.373730 -0.189968
v 0.164282 0.373730 -0.189968
v -0.126513 0.373730 0.161663
v -0.162719 0.373730 -0.214261
v 0.126109 0.373730 -0.246066
v 0.162909 0.373730 0.120242
v -0.153777 0.081934 0.155663
v 0.153777 0.081934 0.155663
v 0.153777 0.081481 -0.239813
v -0.153777 0.081481 -0.239813
v 0.126500 0.373730 0.161663
v -0.126123 0.373730 -0.246066
v -0.100397 0.081481 -0.250295
v 0.097962 0.095552 -0.246130
v 0.162705 0.373730 -0.214260
v -0.162797 0.095550 -0.189920
v 0.165826 0.081481 -0.193545
v -0.162923 0.373730 0.120243
v -0.125740 0.096000 0.160705
v 0.125728 0.095552 -0.244868
v 0.161299 0.096001 0.124653
v -0.161349 0.095550 -0.213897
v -0.125741 0.095551 -0.244868
v 0.125726 0.096001 0.160705
v 0.161335 0.095552 -0.213897
v -0.164279 0.081934 0.128805
v -0.129163 0.387892 0.166568
v -0.155289 0.387892 0.155336
v -0.150562 0.096000 0.151347
v -0.128928 0.081934 0.164799
v 0.168177 0.387892 -0.193545
v 0.166569 0.387892 -0.218425
v 0.155319 0.387892 -0.241155
v 0.129170 0.387892 -0.250944
v 0.150583 0.095552 -0.235493
v 0.128928 0.081481 -0.248949
v 0.100397 0.081481 -0.250295
v 0.166553 0.387892 0.124225
v 0.155289 0.387892 0.155336
v 0.150548 0.096001 0.151346
v 0.164279 0.081934 0.128805
v -0.166569 0.387892 -0.218425
v -0.155319 0.387892 -0.241155
v -0.150597 0.095551 -0.235494
v -0.164278 0.081481 -0.218214
v -0.165826 0.081481 -0.193545
v -0.166553 0.387892 0.124225
v -0.100397 0.387892 -0.252343
v -0.129170 0.387892 -0.250944
v 0.100397 0.387892 -0.252343
v -0.097976 0.095551 -0.246130
v -0.128928 0.081481 -0.248950
v 0.129163 0.387892 0.166568
v 0.128928 0.081934 0.164800
v -0.168177 0.387892 -0.193545
v -0.161313 0.096000 0.124654
v 0.162783 0.095552 -0.189919
v 0.164278 0.081481 -0.218214
v 0.100822 0.487572 0.125129
v 0.100822 0.502472 0.091141
v -0.100822 0.502472 0.091141
v -0.100822 0.487572 0.125129
v -0.128662 0.488523 0.120482
v -0.128662 0.502472 0.091142
v 0.128662 0.502472 0.091142
v 0.128662 0.488523 0.120482
v 0.128662 0.502472 -0.193666
v -0.128662 0.502472 -0.193666
v 0.054406 0.477172 -0.168635
v 0.066545 0.474911 -0.157348
v -0.054406 0.477172 -0.168635
v -0.066545 0.474911 -0.157348
v -0.014855 0.453090 0.127852
v -0.035868 0.453090 0.106839
v -0.035868 0.453090 0.077121
v 0.014863 0.453090 0.127852
v 0.035876 0.453090 0.106839
v 0.035876 0.453090 0.077121
v -0.014855 0.453090 0.056108
v 0.014863 0.453090 0.056108
v 0.035876 0.461636 0.077121
v 0.035876 0.461636 0.106839
v -0.035868 0.461636 0.077121
v -0.014855 0.461636 0.056108
v -0.014855 0.461636 0.127852
v -0.035868 0.461636 0.106839
v 0.014863 0.461636 0.127852
v 0.014863 0.461636 0.056108
v -0.032980 0.461636 0.105643
v -0.032980 0.461636 0.078318
v -0.013659 0.461636 0.124964
v 0.032988 0.461636 0.078318
v 0.032988 0.461636 0.105643
v 0.013666 0.461636 0.124964
v 0.013666 0.461636 0.058996
v -0.013659 0.461636 0.058996
v 0.014903 0.484465 0.056010
v 0.014903 0.484465 0.127950
v -0.035966 0.484465 0.077081
v -0.035966 0.484465 0.106879
v 0.035974 0.484465 0.077081
v -0.014895 0.484465 0.127950
v -0.014895 0.484465 0.056010
v 0.035974 0.484465 0.106879
v 0.024946 0.481465 0.102311
v 0.024946 0.481465 0.081649
v 0.010335 0.481465 0.067038
v -0.010327 0.481465 0.067038
v -0.024938 0.481465 0.081649
v -0.024938 0.481465 0.102311
v -0.010327 0.481465 0.116922
v 0.010335 0.481465 0.116922
v 0.017834 0.453090 0.048933
v 0.017834 0.453090 0.135027
v -0.043043 0.453090 0.109811
v -0.017827 0.453090 0.135027
v -0.017827 0.453090 0.048933
v -0.043043 0.453090 0.074150
v 0.043051 0.453090 0.109811
v 0.043051 0.453090 0.074150
v 0.017834 0.435090 0.135027
v 0.043051 0.435090 0.109811
v 0.017834 0.435090 0.048933
v -0.017827 0.435090 0.048933
v 0.043051 0.435090 0.074150
v -0.043043 0.435090 0.074150
v -0.043043 0.435090 0.109811
v -0.017827 0.435090 0.135027
v 0.032678 0.487999 0.105514
v 0.032678 0.487999 0.078446
v 0.013538 0.487999 0.059306
v -0.013530 0.487999 0.059306
v -0.032670 0.487999 0.078446
v -0.032670 0.487999 0.105514
v -0.013530 0.487999 0.124654
v 0.013538 0.487999 0.124654
v 0.000004 0.481465 0.091980
vn 0.9071 -0.3258 -0.2664
vn 0.9622 -0.2701 -0.0337
vn 0.9634 -0.2669 -0.0239
vn 0.9223 -0.3167 -0.2215
vn -0.6938 -0.1760 0.6984
vn -0.9688 -0.1819 0.1685
vn -0.8362 -0.4973 0.2313
vn -0.6590 -0.3555 0.6628
vn 0.9992 0.0278 -0.0291
vn 0.9658 0.0260 -0.2579
vn 0.9594 0.1350 -0.2478
vn 0.9893 0.1428 -0.0291
vn 0.9711 0.1541 0.1822
vn 0.9821 0.0481 0.1819
vn 0.6700 0.0256 -0.7419
vn 0.2012 0.0234 -0.9793
vn 0.1928 0.1193 -0.9740
vn 0.6674 0.1217 -0.7347
vn 0.6141 0.3945 -0.6836
vn 0.7806 0.5612 -0.2752
vn 0.8202 0.5715 -0.0238
vn 0.0595 -0.9962 -0.0638
vn 0.0534 -0.8877 -0.4573
vn 0.3754 -0.8274 -0.4176
vn 0.4166 -0.9072 -0.0581
vn 0.0345 -0.4472 -0.8938
vn 0.2623 -0.4499 -0.8537
vn 0.6331 -0.3250 -0.7026
vn 0.8183 -0.4814 -0.3142
vn 0.8708 -0.4900 -0.0405
vn 0.0329 -0.4862 0.8732
vn 0.1686 -0.1519 0.9739
vn -0.1686 -0.1519 0.9739
vn -0.0329 -0.4862 0.8732
vn 0.6654 -0.1739 -0.7259
vn 0.9545 -0.1830 -0.2353
vn -0.9074 -0.3250 -0.2666
vn -0.6149 -0.3835 -0.6891
vn -0.6245 -0.3832 -0.6806
vn -0.9226 -0.3159 -0.2216
vn 0.6938 -0.1760 0.6984
vn 0.2750 -0.4955 0.8239
vn 0.6590 -0.3555 0.6628
vn -0.6623 -0.3724 0.6502
vn -0.9376 -0.2928 0.1877
vn -0.9478 -0.2848 0.1435
vn -0.6977 -0.3683 0.6145
vn -0.6654 -0.1739 -0.7259
vn -0.1847 -0.1616 -0.9694
vn -0.2623 -0.4499 -0.8537
vn -0.6331 -0.3250 -0.7026
vn -0.0242 0.0232 -0.9994
vn -0.2012 0.0234 -0.9793
vn -0.1928 0.1193 -0.9740
vn -0.0244 0.1258 -0.9917
vn 0.3856 -0.8655 0.3197
vn 0.0553 -0.9343 0.3522
vn -0.1938 -0.0025 0.9810
vn -0.7182 -0.0019 0.6958
vn -0.7158 -0.0019 0.6984
vn -0.1933 -0.0025 0.9811
vn -0.2750 -0.4955 0.8239
vn -0.6022 0.3074 0.7368
vn -0.6759 0.4525 0.5818
vn -0.9711 0.1541 0.1822
vn -0.7220 0.1279 0.6800
vn -0.0000 1.0000 -0.0000
vn -0.1585 0.9619 0.2228
vn -0.9811 -0.1913 -0.0287
vn -0.9545 -0.1830 -0.2353
vn -0.8183 -0.4814 -0.3142
vn -0.8708 -0.4900 -0.0405
vn -0.6674 0.1217 -0.7347
vn -0.6141 0.3945 -0.6836
vn -0.2340 0.5286 -0.8159
vn -0.0223 0.5412 -0.8406
vn 0.0214 0.3380 0.9409
vn 0.2036 0.3387 0.9186
vn 0.2045 0.6158 0.7609
vn -0.0548 0.6107 0.7899
vn 0.6022 0.3074 0.7368
vn 0.6759 0.4525 0.5818
vn -0.2036 0.3387 0.9186
vn -0.2045 0.6158 0.7609
vn -0.0214 0.3380 0.9409
vn 0.0548 0.6107 0.7899
vn -0.1608 0.6201 0.7679
vn -0.1291 0.3611 0.9235
vn -0.2524 0.6093 0.7517
vn 0.0242 0.0232 -0.9994
vn 0.0244 0.1258 -0.9917
vn 0.0236 -0.1675 -0.9856
vn 0.1847 -0.1616 -0.9694
vn 0.0223 0.5412 -0.8406
vn 0.2340 0.5287 -0.8159
vn 0.6622 -0.3729 0.6499
vn 0.2021 -0.3590 0.9112
vn 0.1772 -0.3559 0.9176
vn 0.6974 -0.3689 0.6144
vn 0.7430 0.6504 0.1580
vn 0.7537 0.6565 0.0312
vn 0.3252 0.9046 0.2758
vn 0.3993 0.8929 0.2083
vn 0.5059 0.7445 0.4357
vn -0.2029 0.3193 -0.9257
vn -0.6235 0.3479 -0.7002
vn -0.6355 0.3473 -0.6896
vn -0.1750 0.3146 -0.9330
vn -0.1998 -0.3571 -0.9124
vn -0.1764 -0.3542 -0.9184
vn -0.0236 -0.1675 -0.9856
vn -0.0345 -0.4472 -0.8938
vn 0.1843 0.3169 0.9304
vn 0.6487 0.3474 0.6771
vn 0.6657 0.3463 0.6610
vn 0.1503 0.3107 0.9385
vn 0.7298 0.0676 0.6803
vn 0.7220 0.1279 0.6800
vn -0.3754 -0.8274 -0.4176
vn -0.4166 -0.9072 -0.0581
vn -0.0534 -0.8877 -0.4573
vn -0.0595 -0.9962 -0.0638
vn -0.3252 0.9046 0.2758
vn -0.5059 0.7445 0.4357
vn -0.7537 0.6565 0.0312
vn -0.9412 0.2661 0.2082
vn -0.6488 0.3469 0.6773
vn -0.6660 0.3457 0.6610
vn -0.9550 0.2522 0.1559
vn -0.9756 0.2169 -0.0328
vn -0.9764 0.2147 -0.0229
vn -0.0097 0.9454 -0.3257
vn 0.8362 -0.4973 0.2313
vn -0.0553 -0.9343 0.3522
vn -0.3856 -0.8655 0.3197
vn -0.7430 0.6504 0.1580
vn -0.5847 0.6788 0.4443
vn -0.2215 0.0424 0.9742
vn 0.0168 0.1221 0.9924
vn -0.2147 0.1236 0.9688
vn -0.3891 0.9182 0.0746
vn -0.7806 0.5612 -0.2752
vn -0.2778 0.9086 -0.3119
vn -0.3057 0.9521 -0.0089
vn 0.3891 0.9182 0.0746
vn -0.3960 0.9040 0.1612
vn 0.2798 0.9450 0.1693
vn 0.3057 0.9521 -0.0089
vn -0.9658 0.0260 -0.2579
vn -0.9992 0.0278 -0.0291
vn -0.9893 0.1428 -0.0291
vn -0.9594 0.1350 -0.2478
vn -0.6700 0.0256 -0.7420
vn -0.8202 0.5715 -0.0238
vn -0.7298 0.0676 0.6803
vn 0.0097 0.9454 -0.3257
vn 0.2778 0.9086 -0.3119
vn 0.7296 0.6122 0.3048
vn 0.9373 -0.2936 0.1876
vn 0.9475 -0.2857 0.1435
vn -0.0244 0.2868 -0.9577
vn -0.0199 0.2863 -0.9579
vn 0.9811 -0.1913 -0.0287
vn 0.9688 -0.1819 0.1685
vn -0.0251 -0.3312 -0.9432
vn -0.0207 -0.3306 -0.9436
vn -0.0000 -0.7580 0.6523
vn 0.0369 0.6193 0.7843
vn -0.0369 0.6193 0.7843
vn 0.6149 -0.3841 -0.6888
vn 0.6242 -0.3837 -0.6805
vn -0.1504 0.3106 0.9386
vn -0.1842 0.3167 0.9305
vn -0.1773 -0.3557 0.9176
vn -0.2020 -0.3588 0.9113
vn 0.1585 0.9619 0.2228
vn 0.5847 0.6788 0.4443
vn 0.1630 0.9149 0.3693
vn -0.1630 0.9149 0.3693
vn -0.9148 0.0990 0.3916
vn -0.9097 0.1036 0.4020
vn -0.9879 0.0142 0.1545
vn -0.9891 0.0129 0.1468
vn 0.1560 0.9581 0.2402
vn 0.1066 0.9794 -0.1713
vn 1.0000 0.0001 -0.0000
vn -0.0168 0.1221 0.9924
vn 0.2215 0.0424 0.9742
vn 0.2147 0.1236 0.9688
vn 0.0251 -0.3312 -0.9432
vn 0.1999 -0.3573 -0.9123
vn 0.1763 -0.3543 -0.9183
vn 0.0207 -0.3306 -0.9435
vn 0.9410 0.2670 0.2081
vn 0.9754 0.2178 -0.0327
vn 0.9762 0.2156 -0.0229
vn 0.9548 0.2531 0.1559
vn -0.3993 0.8929 0.2083
vn 0.1291 0.3611 0.9235
vn 0.2524 0.6093 0.7517
vn 1.0000 -0.0000 -0.0000
vn -0.9821 0.0481 0.1819
vn 0.9205 0.2811 -0.2713
vn 0.9383 0.2679 -0.2187
vn -0.3543 0.5778 0.7353
vn 0.9148 0.0990 0.3916
vn 0.9097 0.1036 0.4020
vn 0.9879 0.0142 0.1545
vn 0.9891 0.0129 0.1468
vn 0.9993 -0.0002 0.0362
vn 0.9993 -0.0002 0.0367
vn 1.0000 -0.0002 0.0010
vn -0.9993 -0.0002 0.0367
vn -1.0000 -0.0002 0.0010
vn -0.9993 -0.0002 0.0362
vn -0.0000 -0.9829 0.1839
vn -0.0000 -0.9996 0.0266
vn -0.0000 -0.9528 -0.3035
vn -0.0000 -0.6062 -0.7953
vn -1.0000 -0.0000 -0.0000
vn -0.0000 0.9539 0.3000
vn -0.0000 0.6793 0.7339
vn -0.1560 0.9581 0.2402
vn -0.1066 0.9794 -0.1713
vn -0.0000 0.2247 -0.9744
vn -1.0000 0.0001 -0.0000
vn -0.0000 0.7027 0.7115
vn 0.1608 0.6201 0.7679
vn 0.6234 0.3484 -0.7000
vn 0.2030 0.3195 -0.9256
vn 0.1749 0.3147 -0.9329
vn 0.6352 0.3479 -0.6896
vn -0.9625 -0.2692 -0.0337
vn -0.9637 -0.2660 -0.0239
vn 0.0244 0.2869 -0.9577
vn 0.0199 0.2863 -0.9579
vn -0.9207 0.2803 -0.2714
vn -0.9385 0.2670 -0.2188
vn -0.9836 -0.0039 0.1801
vn -0.9996 -0.0054 -0.0290
vn -0.9830 -0.0038 0.1837
vn 0.9996 -0.0054 -0.0290
vn 0.9836 -0.0039 0.1801
vn 0.9830 -0.0038 0.1837
vn 0.2018 -0.0046 -0.9794
vn 0.6704 -0.0052 -0.7420
vn 0.6702 -0.0052 -0.7422
vn 0.2017 -0.0046 -0.9794
vn -0.0235 -0.0046 -0.9997
vn 0.0235 -0.0046 -0.9997
vn 0.7182 -0.0019 0.6958
vn 0.7158 -0.0019 0.6983
vn -0.9659 -0.0052 -0.2587
vn -0.6704 -0.0052 -0.7420
vn -0.6702 -0.0052 -0.7422
vn -0.9659 -0.0052 -0.2588
vn -0.2018 -0.0046 -0.9794
vn -0.2017 -0.0046 -0.9794
vn 0.1938 -0.0025 0.9810
vn 0.1933 -0.0025 0.9811
vn 0.9659 -0.0052 -0.2587
vn 0.3543 0.5778 0.7353
vn 0.3960 0.9040 0.1612
vn -0.1897 0.8324 0.5207
vn 0.1994 0.8242 0.5300
vn -0.2798 0.9450 0.1693
vn -0.1994 0.8242 0.5300
vn 0.1897 0.8324 0.5207
vn -0.7296 0.6122 0.3048
vn -0.3594 0.3435 -0.8677
vn -0.2772 -0.6894 -0.6692
vn 0.2772 -0.6894 -0.6692
vn 0.3594 0.3435 -0.8677
vn 0.6692 -0.6894 -0.2772
vn 0.8677 0.3435 -0.3594
vn -0.6692 -0.6894 -0.2772
vn -0.8677 0.3435 -0.3594
vn 0.6692 -0.6894 0.2772
vn 0.8677 0.3435 0.3594
vn 0.2772 -0.6894 0.6692
vn 0.3594 0.3435 0.8677
vn -0.2772 -0.6894 0.6692
vn -0.3594 0.3435 0.8677
vn -0.6692 -0.6894 0.2772
vn -0.8677 0.3435 0.3594
vn -0.0000 -1.0000 -0.0000
vn -0.3827 -0.0046 0.9239
vn -0.9239 -0.0046 0.3827
vn 0.9239 -0.0046 0.3827
vn 0.3827 -0.0046 0.9239
vn -0.3827 -0.0046 -0.9239
vn 0.3827 -0.0046 -0.9239
vn -0.9239 -0.0046 -0.3827
vn 0.9239 -0.0046 -0.3827
vn 0.6502 0.7104 -0.2693
vn 0.2693 0.7104 -0.6502
vn -0.2693 0.7104 0.6502
vn 0.2693 0.7104 0.6502
vn -0.2693 0.7104 -0.6502
vn -0.6502 0.7104 -0.2693
vn -0.6502 0.7104 0.2693
vn 0.6502 0.7104 0.2693
vn -0.3827 -0.0000 -0.9239
vn 0.3827 -0.0000 -0.9239
vn -0.9239 -0.0000 -0.3827
vn -0.9239 -0.0000 0.3827
vn 0.3827 -0.0000 0.9239
vn -0.3827 -0.0000 0.9239
vn 0.9239 -0.0000 -0.3827
vn 0.9239 -0.0000 0.3827
vn -0.5685 0.7883 0.2355
vn -0.5685 0.7883 -0.2355
vn -0.2355 0.7883 0.5685
vn 0.2355 0.7883 0.5685
vn 0.5685 0.7883 0.2355
vn 0.5685 0.7883 -0.2355
vn 0.2355 0.7883 -0.5685
vn -0.2355 0.7883 -0.5685
vt 0.315562 0.088320
vt 0.332894 0.088730
vt 0.335117 0.099276
vt 0.317733 0.098874
vt 0.582467 0.425311
vt 0.562147 0.425117
vt 0.562721 0.387891
vt 0.580281 0.396044
vt 0.315730 0.050400
vt 0.332999 0.050013
vt 0.554418 0.050979
vt 0.559220 0.088922
vt 0.029106 0.575231
vt 0.048933 0.575874
vt 0.049233 0.614510
vt 0.029532 0.614276
vt 0.298320 0.050407
vt 0.301177 0.025814
vt 0.314989 0.020558
vt 0.332328 0.019159
vt 0.072037 0.279575
vt 0.073027 0.295821
vt 0.055104 0.297561
vt 0.052993 0.281676
vt 0.072701 0.317417
vt 0.054258 0.317674
vt 0.037924 0.321980
vt 0.032756 0.305840
vt 0.027739 0.287527
vt 0.058424 0.687783
vt 0.038632 0.726230
vt 0.221540 0.726231
vt 0.201749 0.687783
vt 0.298590 0.309800
vt 0.315290 0.309949
vt 0.314600 0.346356
vt 0.300814 0.338396
vt 0.315563 0.647187
vt 0.297831 0.646627
vt 0.300090 0.635767
vt 0.317735 0.636636
vt 0.020139 0.726440
vt 0.038391 0.689507
vt 0.022938 0.697569
vt 0.582566 0.645988
vt 0.559222 0.646580
vt 0.556803 0.636086
vt 0.579536 0.635296
vt 0.033935 0.350528
vt 0.052747 0.351650
vt 0.056314 0.316886
vt 0.039898 0.321061
vt 0.213318 0.574926
vt 0.233648 0.575080
vt 0.233675 0.613686
vt 0.213894 0.614223
vt 0.047280 0.047905
vt 0.067173 0.047746
vt 0.220619 0.937623
vt 0.240742 0.936505
vt 0.238712 0.737331
vt 0.219887 0.736708
vt 0.221782 0.689507
vt 0.581557 0.685463
vt 0.568346 0.700147
vt 0.554420 0.684523
vt 0.581477 0.668901
vt 0.690235 0.090707
vt 0.669851 0.098704
vt 0.654376 0.090829
vt 0.332414 0.425808
vt 0.315281 0.425572
vt 0.314588 0.389164
vt 0.331882 0.387324
vt 0.253349 0.613280
vt 0.250096 0.638083
vt 0.234746 0.643701
vt 0.214574 0.645236
vt 0.645047 0.350544
vt 0.621071 0.351381
vt 0.620224 0.325298
vt 0.641501 0.327073
vt 0.602510 0.348031
vt 0.598025 0.324316
vt 0.847042 0.348123
vt 0.828569 0.351381
vt 0.829523 0.325436
vt 0.851599 0.324561
vt 0.804716 0.350462
vt 0.808336 0.327103
vt 0.679984 0.340610
vt 0.660986 0.348052
vt 0.653869 0.330594
vt 0.069272 0.575548
vt 0.069034 0.614865
vt 0.211670 0.353755
vt 0.231488 0.352385
vt 0.228229 0.317612
vt 0.209785 0.317355
vt 0.068660 0.645934
vt 0.048436 0.644584
vt 0.033009 0.639093
vt 0.241657 0.943010
vt 0.221748 0.943415
vt 0.220316 0.932811
vt 0.240857 0.931835
vt 0.778886 0.141756
vt 0.790730 0.285244
vt 0.767728 0.322983
vt 0.756493 0.144356
vt 0.795410 0.315747
vt 0.034559 0.361844
vt 0.053749 0.362332
vt 0.253455 0.574275
vt 0.232041 0.564266
vt 0.251669 0.563212
vt 0.072558 0.353183
vt 0.074808 0.316804
vt 0.021470 0.737332
vt 0.040294 0.736708
vt 0.582564 0.089516
vt 0.581476 0.066601
vt 0.252498 0.286363
vt 0.247654 0.304865
vt 0.225135 0.296820
vt 0.227023 0.280921
vt 0.242588 0.321122
vt 0.226173 0.316947
vt 0.207678 0.316866
vt 0.207250 0.295272
vt 0.208050 0.279103
vt 0.682195 0.323117
vt 0.654529 0.315740
vt 0.659435 0.285173
vt 0.580220 0.436118
vt 0.559686 0.435466
vt 0.334781 0.436135
vt 0.797565 0.091910
vt 0.762111 0.091297
vt 0.797526 0.073641
vt 0.023038 0.043578
vt 0.213697 0.048828
vt 0.233381 0.049265
vt 0.672595 0.141387
vt 0.684172 0.125282
vt 0.038443 0.943415
vt 0.073120 0.959408
vt 0.038241 0.959903
vt 0.650720 0.135498
vt 0.835644 0.056620
vt 0.838044 0.071392
vt 0.816274 0.074323
vt 0.819345 0.054688
vt 0.817684 0.090915
vt 0.800704 0.136215
vt 0.638481 0.281421
vt 0.621046 0.280403
vt 0.634037 0.089571
vt 0.798694 0.052996
vt 0.332896 0.646778
vt 0.333001 0.685495
vt 0.315733 0.685109
vt 0.332332 0.716349
vt 0.314993 0.714951
vt 0.298322 0.685103
vt 0.301180 0.709695
vt 0.018533 0.943010
vt 0.018583 0.965534
vt 0.653753 0.051381
vt 0.654662 0.072257
vt 0.635668 0.072760
vt 0.632800 0.052848
vt 0.613671 0.069561
vt 0.616268 0.054624
vt 0.554748 0.023512
vt 0.568345 0.035355
vt 0.556802 0.099419
vt 0.073528 0.363395
vt 0.331894 0.348195
vt 0.332422 0.309711
vt 0.562145 0.310401
vt 0.562718 0.347627
vt 0.211776 0.564104
vt 0.871449 0.300600
vt 0.879445 0.314950
vt 0.827689 0.314950
vt 0.835685 0.300600
vt 0.297832 0.088882
vt 0.300088 0.099746
vt 0.039865 0.932810
vt 0.782156 0.099498
vt 0.767528 0.125625
vt 0.750949 0.340847
vt 0.699445 0.340847
vt 0.707315 0.326357
vt 0.743079 0.326357
vt 0.827689 0.307149
vt 0.810270 0.303577
vt 0.813343 0.292797
vt 0.827689 0.292797
vt 0.789319 0.167021
vt 0.789319 0.200679
vt 0.780400 0.191658
vt 0.187071 0.959408
vt 0.221950 0.959903
vt 0.050460 0.565040
vt 0.070733 0.564707
vt 0.334788 0.299380
vt 0.559686 0.300048
vt 0.695208 0.144279
vt 0.188948 0.979990
vt 0.171418 0.981388
vt 0.788849 0.347935
vt 0.795997 0.330559
vt 0.064852 0.020299
vt 0.216386 0.021677
vt 0.769918 0.195340
vt 0.760278 0.184139
vt 0.241608 0.965534
vt 0.581556 0.050039
vt 0.043137 0.022548
vt 0.317699 0.299715
vt 0.257404 0.045351
vt 0.237855 0.024236
vt 0.701787 0.097333
vt 0.705262 0.124462
vt 0.692466 0.117934
vt 0.579536 0.100212
vt 0.751283 0.323635
vt 0.750949 0.307149
vt 0.768368 0.303577
vt 0.780810 0.314305
vt 0.746471 0.124458
vt 0.765296 0.292797
vt 0.750949 0.292797
vt 0.750949 0.277470
vt 0.764337 0.277470
vt 0.750949 0.197493
vt 0.765170 0.202193
vt 0.710149 0.312287
vt 0.740245 0.312287
vt 0.711227 0.296998
vt 0.739167 0.296998
vt 0.814301 0.277470
vt 0.813468 0.202193
vt 0.827689 0.197493
vt 0.827689 0.277470
vt 0.838519 0.289754
vt 0.868615 0.289754
vt 0.839597 0.274435
vt 0.867537 0.274435
vt 0.839751 0.199153
vt 0.867383 0.199153
vt 0.839750 0.190816
vt 0.867383 0.190816
vt 0.808720 0.195340
vt 0.818360 0.184139
vt 0.739013 0.217021
vt 0.711381 0.217021
vt 0.711381 0.200732
vt 0.739014 0.200732
vt 0.711186 0.253380
vt 0.739570 0.253817
vt 0.738300 0.220798
vt 0.867386 0.167021
vt 0.867385 0.179707
vt 0.839749 0.179707
vt 0.839748 0.167021
vt 0.712639 0.221047
vt 0.789319 0.167021
vt 0.798238 0.191658
vt 0.711380 0.167021
vt 0.739015 0.167021
vt 0.724979 0.340466
vt 0.769931 0.340472
vt 0.238064 0.981471
vt 0.222804 0.980526
vt 0.202721 0.980080
vt 0.037387 0.980526
vt 0.022127 0.981471
vt 0.240034 0.726441
vt 0.237235 0.697570
vt 0.030813 0.564146
vt 0.250302 0.351413
vt 0.244562 0.321918
vt 0.582466 0.310205
vt 0.580279 0.339473
vt 0.298580 0.425720
vt 0.300803 0.397125
vt 0.230391 0.363059
vt 0.249582 0.362723
vt 0.580220 0.299394
vt 0.335119 0.636234
vt 0.210602 0.363960
vt 0.317692 0.435803
vt 0.300608 0.436470
vt 0.300614 0.299045
vt 0.232027 0.564341
vt 0.251698 0.563447
vt 0.070726 0.563416
vt 0.211738 0.564019
vt 0.019325 0.931836
vt 0.050446 0.563568
vt 0.030794 0.562512
vt 0.019440 0.936504
vt 0.039561 0.937623
vt 0.759376 0.118138
vt 0.057470 0.980080
vt 0.750590 0.097801
vt 0.130096 0.981221
vt 0.088773 0.981388
vt 0.071245 0.979990
vt 0.024720 0.023411
vt 0.256057 0.025379
vt 0.811620 0.281658
vt 0.639045 0.305162
vt 0.619692 0.302400
vt 0.828979 0.280769
vt 0.830174 0.302658
vt 0.810901 0.305296
vt 0.852819 0.302112
vt 0.596904 0.301722
vt 0.554750 0.711990
vt 0.840060 0.088755
vt 0.611480 0.087117
vt 0.827355 0.323635
vt 0.797828 0.314304
vt 0.762216 0.784795
vt 0.752509 0.799952
vt 0.748655 0.782371
vt 0.742803 0.815109
vt 0.734928 0.803806
vt 0.737352 0.790245
vt 0.807926 0.778588
vt 0.813278 0.779320
vt 0.811299 0.798159
vt 0.806967 0.799436
vt 0.821184 0.810955
vt 0.819070 0.814728
vt 0.826639 0.771628
vt 0.825681 0.766747
vt 0.836927 0.813018
vt 0.837981 0.817125
vt 0.849541 0.803803
vt 0.853121 0.806045
vt 0.852315 0.788320
vt 0.856525 0.787463
vt 0.843338 0.774922
vt 0.845876 0.771222
vt 0.880721 0.796260
vt 0.880721 0.776019
vt 0.882100 0.775785
vt 0.882101 0.796260
vt 0.882100 0.898634
vt 0.882101 0.919109
vt 0.880721 0.919109
vt 0.880722 0.898634
vt 0.897119 0.878159
vt 0.897119 0.898634
vt 0.882100 0.878159
vt 0.882100 0.837210
vt 0.897119 0.837210
vt 0.897119 0.857684
vt 0.882100 0.857684
vt 0.880721 0.878159
vt 0.882100 0.816735
vt 0.880722 0.837210
vt 0.880721 0.816735
vt 0.880721 0.857684
vt 0.882100 0.939584
vt 0.880721 0.939350
vt 0.897119 0.775785
vt 0.897119 0.796260
vt 0.897119 0.919109
vt 0.897119 0.816735
vt 0.897119 0.939584
vt 0.900405 0.796260
vt 0.900405 0.816735
vt 0.900405 0.857684
vt 0.900405 0.878159
vt 0.900405 0.919109
vt 0.900405 0.939584
vt 0.900405 0.775785
vt 0.900405 0.898634
vt 0.900405 0.837210
vt 0.767666 0.809659
vt 0.756363 0.817533
vt 0.932292 0.776042
vt 0.932292 0.799479
vt 0.919271 0.799479
vt 0.919271 0.776042
vt 0.932292 0.950521
vt 0.919271 0.950521
vt 0.919271 0.924479
vt 0.932292 0.924479
vt 0.932292 0.875000
vt 0.932292 0.901042
vt 0.919271 0.901042
vt 0.919271 0.875000
vt 0.932292 0.825521
vt 0.919271 0.825521
vt 0.932292 0.973958
vt 0.919271 0.973958
vt 0.932292 0.848958
vt 0.919271 0.848958
vt 0.861408 0.786502
vt 0.857262 0.808648
vt 0.839219 0.821875
vt 0.816639 0.819124
vt 0.801992 0.800979
vt 0.803000 0.776158
vt 0.824733 0.761106
vt 0.848887 0.766975
vt 0.770090 0.796098
vt 0.765665 0.779409
vt 0.776338 0.794728
vt 0.773052 0.813108
vt 0.757733 0.823781
vt 0.739354 0.820495
vt 0.728681 0.805176
vt 0.731966 0.786796
vt 0.747286 0.776124
s 1
usemtl jerrycan_1_1
f 169/1/1 168/2/2 139/3/3 152/4/4
f 144/5/5 163/6/6 46/7/7 2/8/8
f 168/2/9 169/1/10 110/9/11 76/10/12
f 168/2/9 76/10/12 125/11/13 175/12/14
f 170/13/15 171/14/16 117/15/17 51/16/18
f 110/9/11 51/17/18 7/18/19 68/19/20
f 76/10/12 110/9/11 68/19/20 18/20/21
f 24/21/22 70/22/23 111/23/24 75/24/25
f 70/22/23 11/25/26 56/26/27 111/23/24
f 56/26/27 3/27/28 48/28/29
f 75/24/25 111/23/24 48/28/29 16/29/30
f 10/30/31 191/31/32 167/32/33 9/33/34
f 146/34/35 195/35/36 48/36/29 3/37/28
f 179/38/37 180/39/38 135/40/39 141/41/40
f 145/42/41 191/31/32 45/43/42 1/44/43
f 165/45/44 184/46/45 155/47/46 133/48/47
f 147/49/48 189/50/49 47/51/50 4/52/51
f 185/53/52 186/54/53 113/55/54 62/56/55
f 24/21/22 75/24/25 126/57/56 66/58/57
f 140/59/58 133/60/59 166/61/60 156/62/61
f 167/32/33 55/63/62 9/33/34
f 42/64/63 53/65/64 112/66/65 105/67/66
f 29/68/67 72/69/68 22/70/67
f 183/71/69 182/72/70 67/73/71 15/74/72
f 113/55/54 54/75/73 8/76/74 58/77/75
f 62/56/55 113/55/54 58/77/75 13/78/76
f 43/79/77 106/80/78 114/81/79 60/82/80
f 106/80/78 41/83/81 104/84/82 114/81/79
f 42/85/63 108/86/83 115/87/84 53/88/64
f 108/86/83 44/89/85 59/90/86 115/87/84
f 25/91/87 107/92/88 116/93/89
f 43/79/77 60/82/80 116/93/89 107/92/88
f 171/14/16 187/94/90 61/95/91 117/15/17
f 174/96/92 173/97/93 56/98/27 11/99/26
f 117/15/17 61/95/91 14/100/94 50/101/95
f 51/16/18 117/15/17 50/101/95 7/102/19
f 176/103/96 190/104/97 148/105/98 132/106/99
f 61/95/91 62/56/55 13/78/76 14/100/94
f 80/107/100 123/108/101 99/109/102 40/110/103
f 123/108/101 57/111/104 99/109/102
f 189/50/105 147/49/106 181/112/107 160/113/108
f 180/114/38 186/54/109 149/115/110 135/116/39
f 150/117/111 174/96/92 11/99/26 12/118/112
f 191/31/113 145/42/114 177/119/115 161/120/116
f 176/121/117 175/12/14 125/11/13 52/122/118
f 15/123/72 67/124/71 119/125/119 71/126/120
f 67/124/71 4/127/51 47/128/50
f 119/125/119 47/128/50 12/129/112 69/130/121
f 71/126/120 119/125/119 69/130/121 23/131/122
f 70/22/23 24/21/22 23/131/122 69/130/121
f 100/132/123 77/133/124 118/134/125
f 62/56/55 61/95/91 187/94/90 185/53/52
f 163/6/126 144/5/127 166/135/128 193/136/129
f 183/71/130 163/6/126 193/136/129 153/137/131
f 20/138/67 28/139/67 63/140/132
f 75/24/25 16/29/30 81/141/133 126/57/56
f 71/126/120 23/131/122 65/142/134 127/143/135
f 73/144/136 72/69/68 207/145/137
f 164/146/138 131/147/139 130/148/140
f 72/69/68 73/144/136 21/149/141
f 8/150/74 49/151/142 120/152/143 58/153/75
f 205/154/144 19/155/145 20/138/67
f 21/149/141 197/156/146 202/157/147 204/158/148
f 58/153/75 120/152/143 63/140/132 13/159/76
f 179/38/149 192/160/150 74/161/151 121/162/152
f 186/54/53 180/114/153 54/75/73 113/55/54
f 121/162/152 74/161/151 17/163/154 49/164/142
f 54/165/73 121/162/152 49/164/142 8/166/74
f 165/167/155 164/146/138 130/148/140 105/168/66
f 14/169/94 64/170/156 122/171/157 50/172/95
f 50/172/95 122/171/157 68/173/20 7/174/19
f 5/175/158 104/176/82 125/11/13
f 168/2/2 175/12/159 143/177/160 139/3/3
f 15/74/72 46/7/7 163/6/6 183/71/69
f 150/117/161 189/50/105 160/113/108 188/178/162
f 16/179/30 154/180/163 178/181/164 81/182/133
f 186/54/109 185/53/165 136/183/166 149/115/110
f 64/170/156 29/68/67 22/70/67
f 86/184/167 85/185/168 84/186/169 89/187/167
f 170/188/170 169/1/1 152/4/4 134/189/171
f 161/120/116 156/62/172 167/32/173 191/31/113
f 140/190/174 148/105/98 190/104/97 164/146/175
f 24/21/22 66/58/57 65/142/134 23/131/122
f 169/1/10 170/188/15 51/17/18 110/9/11
f 19/155/145 80/107/100 79/191/176
f 80/107/100 40/110/103 209/192/177
f 83/193/178 82/194/179 87/195/67 88/196/67
f 87/197/180 86/198/181 34/199/182 32/200/183
f 69/130/121 12/129/112 11/25/26 70/22/23
f 27/201/184 31/202/185 103/203/186
f 129/204/187 190/104/188 128/205/189
f 187/94/190 171/14/191 142/206/192 137/207/193
f 178/181/194 154/180/195 194/208/196 158/209/197
f 100/132/123 118/134/125 73/144/136 98/210/198
f 129/204/187 107/211/88 25/212/87
f 190/104/188 129/204/187 131/147/139 164/146/138
f 44/89/85 109/213/199 124/214/200 59/90/86
f 65/142/134 66/58/57 10/215/31 9/216/34
f 185/53/165 187/94/190 137/207/193 136/183/166
f 27/201/184 103/203/186 39/217/201 37/218/201
f 190/104/188 176/103/117 52/219/118 128/205/189
f 41/220/81 52/122/118 125/11/13 104/176/82
f 10/215/31 66/58/57 126/57/56 45/221/42
f 45/221/42 126/57/56 81/141/133
f 74/161/151 192/160/150 184/46/202 112/66/65
f 154/180/195 195/35/203 162/222/204 194/208/196
f 46/223/7 127/143/135 55/224/62
f 55/224/62 127/143/135 65/142/134 9/216/34
f 83/225/178 84/226/169 206/227/205
f 175/12/159 176/121/96 132/228/99 143/177/160
f 180/39/153 179/38/149 121/162/152 54/165/73
f 83/229/178 88/230/206 89/231/207 84/232/169
f 40/110/103 98/210/198 84/226/169 85/233/168
f 35/234/208 33/235/209 90/236/210 91/237/211
f 90/236/210 96/238/212 97/239/212 91/237/211
f 88/196/67 87/195/67 32/240/67 33/241/67
f 32/240/67 93/242/67 90/243/67 33/241/67
f 89/231/207 88/230/206 33/235/209 35/234/208
f 92/244/213 94/245/214 95/246/214 93/247/215
f 86/184/167 89/187/167 35/248/216 34/249/216
f 35/248/216 91/250/217 92/251/217 34/249/216
f 91/250/217 97/252/218 94/253/218 92/251/217
f 34/199/182 92/244/213 93/247/215 32/200/183
f 94/253/218 97/252/218 39/254/219 38/255/219
f 95/246/214 94/245/214 38/256/220 36/257/220
f 96/258/221 95/259/221 36/260/222 37/261/222
f 97/239/212 96/238/212 37/218/201 39/217/201
f 27/262/184 102/263/223 99/109/102 100/132/123
f 102/263/223 30/264/224 40/110/103 99/109/102
f 30/265/224 101/266/225 103/267/225 31/268/185
f 98/210/198 40/110/103 30/264/224 31/269/185
f 27/262/184 100/132/123 98/210/198 31/269/185
f 102/270/223 101/271/226 30/202/224
f 103/267/225 101/266/225 38/255/219 39/254/219
f 102/272/223 27/273/184 37/261/222 36/260/222
f 78/274/227 25/91/87 100/132/123 99/109/102 26/275/228
f 101/271/226 102/270/223 36/257/220 38/256/220
f 128/205/189 52/219/118 41/276/81 106/277/78
f 128/205/189 106/277/78 43/278/77
f 165/45/155 105/67/66 112/66/65 184/46/202
f 105/168/66 130/148/140 108/279/83 42/280/63
f 167/32/33 144/281/5 2/282/8 55/63/62
f 171/14/191 170/13/170 134/283/171 142/206/192
f 173/97/93 146/284/35 3/285/28 56/98/27
f 178/181/164 145/286/41 1/287/43 81/182/133
f 182/72/70 147/288/48 4/289/51 67/73/71
f 146/284/229 173/97/230 157/290/231 172/291/232
f 189/50/49 150/117/111 12/118/112 47/51/50
f 145/286/114 178/181/194 158/209/197 177/292/115
f 192/160/233 179/38/37 141/41/40 138/293/234
f 191/31/32 10/30/31 45/43/42
f 173/97/230 174/96/235 151/294/236 157/290/231
f 138/293/234 155/47/46 184/46/45 192/160/233
f 147/288/106 182/72/237 159/295/238 181/296/107
f 195/35/203 146/34/229 172/297/232 162/222/204
f 195/35/36 154/180/163 16/179/30 48/36/29
f 182/72/237 183/71/130 153/137/131 159/295/238
f 155/47/239 138/293/240 153/137/240 193/136/241
f 174/96/235 150/117/161 188/178/162 151/294/236
f 139/3/242 143/177/243 158/209/244 194/208/242
f 142/298/245 134/299/246 172/291/247 157/290/248
f 136/300/249 137/301/250 151/294/250 188/178/249
f 137/301/250 142/298/245 157/290/248 151/294/250
f 143/177/243 132/228/251 177/292/252 158/209/244
f 141/41/253 135/40/254 181/296/255 159/295/256
f 164/146/175 165/167/44 133/302/47 140/190/174
f 138/293/240 141/41/253 159/295/256 153/137/240
f 149/303/257 136/300/249 188/178/249 160/113/258
f 135/304/254 149/303/257 160/113/258 181/112/255
f 177/119/252 132/305/251 148/306/259 161/120/260
f 133/48/59 155/47/239 193/136/241 166/135/60
f 152/4/261 139/3/242 194/208/242 162/222/261
f 134/189/246 152/4/261 162/222/261 172/297/247
f 148/306/259 140/59/58 156/62/61 161/120/260
f 206/227/205 207/145/137 72/69/68
f 209/192/177 208/307/262 79/191/176
f 20/138/67 79/191/176 28/139/67
f 108/279/83 130/148/140 44/308/85
f 107/211/88 129/204/187 128/205/189 43/278/77
f 82/309/179 83/225/178 29/68/67 28/139/67
f 131/147/139 78/310/227 26/311/228
f 64/170/156 14/169/94 13/159/76 63/140/132
f 22/70/67 72/69/68 21/149/141
f 20/138/67 19/155/145 79/191/176
f 46/223/7 15/123/72 71/126/120 127/143/135
f 144/281/127 167/32/173 156/62/172 166/61/128
f 109/312/199 131/147/139 26/311/228
f 1/313/43 45/221/42 81/141/133
f 111/23/24 56/26/27 48/28/29
f 119/125/119 67/124/71 47/128/50
f 2/314/8 46/223/7 55/224/62
f 57/111/104 123/108/101 198/315/263
f 196/316/264 203/317/265 202/157/147 197/156/146
f 198/315/263 201/318/266 200/319/267 199/320/268
f 60/82/80 114/81/79 203/317/265 196/316/264
f 196/316/264 77/133/124 116/93/89 60/82/80
f 73/144/136 118/134/125 197/156/146 21/149/141
f 199/320/268 59/90/86 124/214/200 57/111/104
f 115/87/84 59/90/86 199/320/268 200/319/267
f 198/315/263 123/108/101 80/107/100 19/155/145
f 53/88/64 115/87/84 200/319/267 6/321/269
f 6/321/269 200/319/267 201/318/266
f 202/157/147 203/317/265 5/322/158
f 114/81/79 104/84/82 5/322/158 203/317/265
f 77/133/124 196/316/264 197/156/146
f 18/20/21 5/175/158 125/11/13 76/10/12
f 53/65/64 6/323/269 112/66/65
f 74/161/151 112/66/65 6/323/269 17/163/154
f 29/68/67 64/170/156 63/140/132 28/139/67
f 129/204/187 25/212/87 78/310/227
f 131/147/139 129/204/187 78/310/227
f 109/213/199 26/275/228 124/214/200
f 57/111/104 124/214/200 26/275/228 99/109/102
f 100/132/123 25/91/87 116/93/89 77/133/124
f 44/308/85 130/148/140 131/147/139 109/312/199
f 201/318/266 205/154/144 17/324/154 6/321/269
f 20/138/67 63/140/132 120/152/143 205/154/144
f 204/158/148 18/325/21 68/173/20 122/171/157
f 202/157/147 5/322/158 18/325/21 204/158/148
f 205/154/144 120/152/143 49/151/142 17/324/154
f 208/307/262 85/233/168 82/309/179
f 22/70/67 204/158/148 122/171/157 64/170/156
f 201/318/266 198/315/263 19/155/145 205/154/144
f 22/70/67 21/149/141 204/158/148
f 84/226/169 98/210/198 207/145/137 206/227/205
f 72/69/68 29/68/67 83/225/178
f 98/210/198 73/144/136 207/145/137
f 40/110/103 85/233/168 208/307/262 209/192/177
f 79/191/176 80/107/100 209/192/177
f 206/227/205 72/69/68 83/225/178
f 208/307/262 82/309/179 79/191/176
f 28/139/67 79/191/176 82/309/179
f 199/320/268 57/111/104 198/315/263
f 118/134/125 77/133/124 197/156/146
f 93/242/67 95/259/221 96/258/221 90/243/67
f 87/197/180 82/326/179 85/327/168 86/198/181
f 242/328/67 274/329/67 249/330/67
f 274/329/67 246/331/67 247/332/67
f 248/333/67 274/329/67 247/332/67
f 216/334/270 233/335/271 232/336/272 217/337/273
f 232/336/272 229/338/274 215/339/275 217/337/273
f 227/340/276 233/335/271 216/334/270 212/341/277
f 229/338/274 230/342/278 214/343/279 215/339/275
f 230/342/278 231/344/280 213/345/281 214/343/279
f 231/344/280 228/346/282 210/347/283 213/345/281
f 226/348/284 227/340/276 212/341/277 211/349/285
f 232/350/272 233/351/271 221/352/286 225/353/286
f 223/354/286 220/355/286 227/356/276 226/357/284
f 239/358/287 237/359/288 223/354/288 222/360/287
f 219/361/289 241/362/289 235/363/290 224/364/290
f 222/360/286 223/354/286 226/357/284 228/365/282
f 218/366/286 219/361/286 230/367/278 229/368/274
f 224/364/286 231/369/280 230/367/278 219/361/286
f 225/353/286 218/366/286 229/368/274 232/350/272
f 224/364/286 222/360/286 228/365/282 231/369/280
f 220/355/286 221/370/286 233/371/271 227/356/276
f 240/372/291 234/373/292 225/353/292 221/352/291
f 223/354/288 237/359/288 236/374/293 220/355/293
f 234/373/292 238/375/294 218/366/294 225/353/292
f 220/355/293 236/374/293 240/376/291 221/370/291
f 238/375/294 241/362/289 219/361/289 218/366/294
f 224/364/290 235/363/290 239/358/287 222/360/287
f 238/375/295 234/373/296 268/377/296 267/378/295
f 239/358/297 235/363/298 273/379/298 272/380/297
f 240/376/299 236/374/300 270/381/300 269/382/299
f 234/373/296 240/372/299 269/383/299 268/377/296
f 236/374/300 237/359/301 271/384/301 270/381/300
f 237/359/301 239/358/297 272/380/297 271/384/301
f 241/362/302 238/375/295 267/378/295 266/385/302
f 235/363/298 241/362/302 266/385/302 273/379/298
f 274/329/67 244/386/67 245/387/67
f 254/388/303 250/389/304 260/390/304 261/391/303
f 255/392/305 263/393/305 264/394/306 252/395/306
f 251/396/307 253/397/308 265/398/308 258/399/307
f 253/397/308 252/395/306 264/394/306 265/398/308
f 250/389/304 257/400/309 262/401/309 260/390/304
f 255/392/305 254/402/303 261/403/303 263/393/305
f 256/404/310 251/396/307 258/399/307 259/405/310
f 253/406/67 251/407/67 256/408/67 257/409/67 250/410/67 254/411/67 255/412/67 252/413/67
f 257/400/309 256/404/310 259/405/310 262/401/309
f 228/346/282 226/348/284 211/349/285 210/347/283
f 243/414/311 242/328/312 266/415/312 267/416/311
f 244/386/313 243/414/311 267/416/311 268/417/313
f 245/387/314 244/386/313 268/417/313 269/418/314
f 246/331/315 245/387/314 269/418/314 270/419/315
f 247/332/316 246/331/315 270/419/315 271/420/316
f 248/333/317 247/332/316 271/420/316 272/421/317
f 249/330/318 248/333/317 272/421/317 273/422/318
f 242/328/312 249/330/318 273/422/318 266/415/312
f 242/328/67 243/414/67 274/329/67
f 274/329/67 245/387/67 246/331/67
f 248/333/67 249/330/67 274/329/67
f 274/329/67 243/414/67 244/386/67
