# Blender 5.0.1
# www.blender.org
mtllib keypad_1.mtl
o keypad_1
v -0.150000 -0.130000 0.000000
v -0.150000 0.120000 0.000000
v 0.140000 -0.130000 0.000000
v 0.140000 0.120000 0.000000
v -0.129000 -0.109000 0.020000
v -0.129000 0.099000 0.020000
v 0.119000 0.099000 0.020000
v 0.119000 -0.109000 0.020000
v 0.003290 0.001150 0.020000
v 0.003290 0.021936 0.020000
v 0.025076 0.001150 0.020000
v 0.025076 0.021936 0.020000
v 0.030543 0.001150 0.020000
v 0.030543 0.021936 0.020000
v 0.052328 0.001150 0.020000
v 0.052328 0.021936 0.020000
v 0.057543 0.001150 0.020000
v 0.057543 0.021936 0.020000
v 0.079328 0.001150 0.020000
v 0.079328 0.021936 0.020000
v 0.003290 -0.026126 0.020000
v 0.003290 -0.005341 0.020000
v 0.025076 -0.026126 0.020000
v 0.025076 -0.005341 0.020000
v 0.030543 -0.026126 0.020000
v 0.030543 -0.005341 0.020000
v 0.052328 -0.026126 0.020000
v 0.052328 -0.005341 0.020000
v 0.057543 -0.026126 0.020000
v 0.057543 -0.005341 0.020000
v 0.079328 -0.026126 0.020000
v 0.079328 -0.005341 0.020000
v 0.003290 -0.053356 0.020000
v 0.003290 -0.032570 0.020000
v 0.025076 -0.053356 0.020000
v 0.025076 -0.032570 0.020000
v 0.030543 -0.053356 0.020000
v 0.030543 -0.032570 0.020000
v 0.052328 -0.053356 0.020000
v 0.052328 -0.032570 0.020000
v 0.057543 -0.053356 0.020000
v 0.057543 -0.032570 0.020000
v 0.079328 -0.053356 0.020000
v 0.079328 -0.032570 0.020000
v 0.003290 -0.080600 0.020000
v 0.003290 -0.059814 0.020000
v 0.025076 -0.080600 0.020000
v 0.025076 -0.059814 0.020000
v 0.030543 -0.080600 0.020000
v 0.030543 -0.059814 0.020000
v 0.052328 -0.080600 0.020000
v 0.052328 -0.059814 0.020000
v 0.057543 -0.080600 0.020000
v 0.057543 -0.059814 0.020000
v 0.079328 -0.080600 0.020000
v 0.079328 -0.059814 0.020000
v -0.096017 -0.019786 0.025393
v -0.096017 -0.014000 0.021393
v -0.096017 -0.019786 0.019393
v -0.096017 -0.014000 0.019393
v -0.072232 -0.019786 0.025393
v -0.072232 -0.014000 0.021393
v -0.072232 -0.019786 0.019393
v -0.072232 -0.014000 0.019393
v -0.064017 -0.019786 0.025393
v -0.064017 -0.014000 0.021393
v -0.064017 -0.019786 0.019393
v -0.064017 -0.014000 0.019393
v -0.040232 -0.019786 0.025393
v -0.040232 -0.014000 0.021393
v -0.040232 -0.019786 0.019393
v -0.040232 -0.014000 0.019393
v -0.096017 -0.029786 0.025393
v -0.096017 -0.024000 0.021393
v -0.096017 -0.029786 0.019393
v -0.096017 -0.024000 0.019393
v -0.072232 -0.029786 0.025393
v -0.072232 -0.024000 0.021393
v -0.072232 -0.029786 0.019393
v -0.072232 -0.024000 0.019393
v -0.064017 -0.029786 0.025393
v -0.064017 -0.024000 0.021393
v -0.064017 -0.029786 0.019393
v -0.064017 -0.024000 0.019393
v -0.040232 -0.029786 0.025393
v -0.040232 -0.024000 0.021393
v -0.040232 -0.029786 0.019393
v -0.040232 -0.024000 0.019393
v -0.096017 -0.039786 0.025393
v -0.096017 -0.034000 0.021393
v -0.096017 -0.039786 0.019393
v -0.096017 -0.034000 0.019393
v -0.072232 -0.039786 0.025393
v -0.072232 -0.034000 0.021393
v -0.072232 -0.039786 0.019393
v -0.072232 -0.034000 0.019393
v -0.064017 -0.039786 0.025393
v -0.064017 -0.034000 0.021393
v -0.064017 -0.039786 0.019393
v -0.064017 -0.034000 0.019393
v -0.040232 -0.039786 0.025393
v -0.040232 -0.034000 0.021393
v -0.040232 -0.039786 0.019393
v -0.040232 -0.034000 0.019393
v -0.131000 -0.111000 0.025000
v -0.129000 -0.109000 0.023000
v -0.129000 0.099000 0.023000
v -0.131000 0.101000 0.025000
v 0.121000 -0.111000 0.025000
v 0.119000 -0.109000 0.023000
v 0.119000 0.099000 0.023000
v 0.121000 0.101000 0.025000
v -0.150000 -0.130000 0.023000
v -0.148000 -0.128000 0.025000
v -0.148000 0.118000 0.025000
v -0.150000 0.120000 0.023000
v 0.138000 0.118000 0.025000
v 0.140000 0.120000 0.023000
v 0.140000 -0.130000 0.023000
v 0.138000 -0.128000 0.025000
v -0.122930 0.092245 0.017428
v -0.122930 0.092245 0.024988
v -0.115826 0.094831 0.017428
v -0.115826 0.094831 0.024988
v -0.110035 0.089971 0.017428
v -0.110035 0.089971 0.024988
v -0.111347 0.082526 0.017428
v -0.111347 0.082526 0.024988
v -0.118451 0.079940 0.017428
v -0.118451 0.079940 0.024988
v -0.124243 0.084800 0.017428
v -0.124243 0.084800 0.024988
v 0.102667 0.094237 0.017428
v 0.102667 0.094237 0.024988
v 0.110198 0.093578 0.017428
v 0.110198 0.093578 0.024988
v 0.113393 0.086727 0.017428
v 0.113393 0.086727 0.024988
v 0.109057 0.080534 0.017428
v 0.109057 0.080534 0.024988
v 0.101525 0.081193 0.017428
v 0.101525 0.081193 0.024988
v 0.098330 0.088045 0.017428
v 0.098330 0.088045 0.024988
v -0.115181 -0.089731 0.017428
v -0.115181 -0.089731 0.024988
v -0.109836 -0.095076 0.017428
v -0.109836 -0.095076 0.024988
v -0.111792 -0.102379 0.017428
v -0.111792 -0.102379 0.024988
v -0.119095 -0.104335 0.017428
v -0.119095 -0.104335 0.024988
v -0.124440 -0.098990 0.017428
v -0.124440 -0.098990 0.024988
v -0.122484 -0.091687 0.017428
v -0.122484 -0.091687 0.024988
v 0.099314 -0.093253 0.017428
v 0.099314 -0.093253 0.024988
v 0.105861 -0.089473 0.017428
v 0.105861 -0.089473 0.024988
v 0.112408 -0.093253 0.017428
v 0.112408 -0.093253 0.024988
v 0.112408 -0.100813 0.017428
v 0.112408 -0.100813 0.024988
v 0.105861 -0.104593 0.017428
v 0.105861 -0.104593 0.024988
v 0.099314 -0.100813 0.017428
v 0.099314 -0.100813 0.024988
v 0.006879 0.004689 0.030000
v 0.004109 0.001931 0.027514
v 0.006879 0.018397 0.030000
v 0.004109 0.021155 0.027514
v 0.021486 0.004689 0.030000
v 0.024257 0.001931 0.027514
v 0.021486 0.018397 0.030000
v 0.024257 0.021155 0.027514
v 0.034132 0.004689 0.030000
v 0.031361 0.001931 0.027514
v 0.034132 0.018397 0.030000
v 0.031361 0.021155 0.027514
v 0.048739 0.004689 0.030000
v 0.051509 0.001931 0.027514
v 0.048739 0.018397 0.030000
v 0.051509 0.021155 0.027514
v 0.061132 0.004689 0.030000
v 0.058361 0.001931 0.027514
v 0.061132 0.018397 0.030000
v 0.058361 0.021155 0.027514
v 0.075739 0.004689 0.030000
v 0.078509 0.001931 0.027514
v 0.075739 0.018397 0.030000
v 0.078509 0.021155 0.027514
v 0.006879 -0.022587 0.030000
v 0.004109 -0.025345 0.027514
v 0.006879 -0.008880 0.030000
v 0.004109 -0.006121 0.027514
v 0.021486 -0.022587 0.030000
v 0.024257 -0.025345 0.027514
v 0.021486 -0.008880 0.030000
v 0.024257 -0.006121 0.027514
v 0.034132 -0.022587 0.030000
v 0.031361 -0.025345 0.027514
v 0.034132 -0.008880 0.030000
v 0.031361 -0.006121 0.027514
v 0.048739 -0.022587 0.030000
v 0.051509 -0.025345 0.027514
v 0.048739 -0.008880 0.030000
v 0.051509 -0.006121 0.027514
v 0.061132 -0.022587 0.030000
v 0.058361 -0.025345 0.027514
v 0.061132 -0.008880 0.030000
v 0.058361 -0.006121 0.027514
v 0.075739 -0.022587 0.030000
v 0.078509 -0.025345 0.027514
v 0.075739 -0.008880 0.030000
v 0.078509 -0.006121 0.027514
v 0.006879 -0.049817 0.030000
v 0.004109 -0.052575 0.027514
v 0.006879 -0.036110 0.030000
v 0.004109 -0.033351 0.027514
v 0.021486 -0.049817 0.030000
v 0.024257 -0.052575 0.027514
v 0.021486 -0.036110 0.030000
v 0.024257 -0.033351 0.027514
v 0.034132 -0.049817 0.030000
v 0.031361 -0.052575 0.027514
v 0.034132 -0.036110 0.030000
v 0.031361 -0.033351 0.027514
v 0.048739 -0.049817 0.030000
v 0.051509 -0.052575 0.027514
v 0.048739 -0.036110 0.030000
v 0.051509 -0.033351 0.027514
v 0.061132 -0.049817 0.030000
v 0.058361 -0.052575 0.027514
v 0.061132 -0.036110 0.030000
v 0.058361 -0.033351 0.027514
v 0.075739 -0.049817 0.030000
v 0.078509 -0.052575 0.027514
v 0.075739 -0.036110 0.030000
v 0.078509 -0.033351 0.027514
v 0.006879 -0.077060 0.030000
v 0.004109 -0.079819 0.027514
v 0.006879 -0.063353 0.030000
v 0.004109 -0.060595 0.027514
v 0.021486 -0.077060 0.030000
v 0.024257 -0.079819 0.027514
v 0.021486 -0.063353 0.030000
v 0.024257 -0.060595 0.027514
v 0.034132 -0.077060 0.030000
v 0.031361 -0.079819 0.027514
v 0.034132 -0.063353 0.030000
v 0.031361 -0.060595 0.027514
v 0.048739 -0.077060 0.030000
v 0.051509 -0.079819 0.027514
v 0.048739 -0.063353 0.030000
v 0.051509 -0.060595 0.027514
v 0.061132 -0.077060 0.030000
v 0.058361 -0.079819 0.027514
v 0.061132 -0.063353 0.030000
v 0.058361 -0.060595 0.027514
v 0.075739 -0.077060 0.030000
v 0.078509 -0.079819 0.027514
v 0.075739 -0.063353 0.030000
v 0.078509 -0.060595 0.027514
v 0.001019 0.071175 0.020000
v 0.001019 0.052915 0.020000
v 0.082615 0.052839 0.020000
v 0.082615 0.071252 0.020000
v -0.129000 -0.108732 0.020000
v 0.001019 0.071175 0.017000
v 0.001019 0.052915 0.017000
v 0.082615 0.052839 0.017000
v 0.082615 0.071252 0.017000
vn 0.0567 0.9984 -0.0000
vn 0.7071 0.7071 -0.0000
vn 1.0000 -0.0000 -0.0000
vn 0.2588 -0.9659 -0.0000
vn -0.9659 0.2588 -0.0000
vn 0.0010 -1.0000 -0.0000
vn -0.0000 -1.0000 -0.0000
vn -0.0000 -0.0000 1.0000
vn -0.0000 -0.9946 0.1034
vn -0.9941 -0.0000 0.1083
vn -0.0000 0.9946 0.1034
vn 0.9941 -0.0000 0.1083
vn -0.0000 0.5687 0.8226
vn 0.5000 -0.8660 -0.0000
vn -0.0000 1.0000 -0.0000
vn -1.0000 -0.0000 -0.0000
vn -0.0872 -0.9962 -0.0000
vn -0.0000 0.7071 0.7071
vn -0.0000 -0.7071 0.7071
vn 0.7071 -0.0000 0.7071
vn -0.7071 -0.0000 0.7071
vn 0.6678 -0.0000 0.7443
vn -0.8191 0.5736 -0.0000
vn -0.3420 0.9397 -0.0000
vn -0.2588 0.9659 -0.0000
vn 0.5000 0.8660 -0.0000
vn -0.9848 0.1737 -0.0000
vn 0.0872 0.9962 -0.0000
vn 0.9063 0.4226 -0.0000
vn -0.5000 -0.8660 -0.0000
vn 0.9848 -0.1737 -0.0000
vn -0.9063 -0.4226 -0.0000
vn 0.6428 0.7660 -0.0000
vn 0.9659 -0.2588 -0.0000
vn -0.5000 0.8660 -0.0000
vn 0.8192 -0.5736 -0.0000
vn -0.6428 -0.7660 -0.0000
vn 0.3420 -0.9397 -0.0000
vn -0.6678 -0.0000 0.7443
vn -0.0000 -0.6695 0.7428
vn -0.0000 0.6695 0.7428
vn -0.7071 -0.7071 -0.0000
vn 0.0009 1.0000 -0.0000
vt 0.036207 0.084000
vt 0.036207 0.085073
vt 0.011292 0.195727
vt 0.011292 0.165023
vt 0.024868 0.165023
vt 0.024868 0.195727
vt 0.024867 0.165023
vt 0.011292 0.165023
vt 0.011292 0.195727
vt 0.024867 0.195727
vt 0.928711 0.784784
vt 0.928711 0.876993
vt 0.500000 0.876993
vt 0.500000 0.784784
vt 0.401061 0.805010
vt 0.260379 0.804698
vt 0.463793 0.916000
vt 0.463793 0.916000
vt 0.036207 0.916000
vt 0.269718 0.536345
vt 0.297434 0.536346
vt 0.297434 0.597009
vt 0.269718 0.597009
vt 0.003448 0.008000
vt 0.032759 0.076000
vt 0.032759 0.924000
vt 0.003448 0.992000
vt 0.496552 0.008000
vt 0.467241 0.076000
vt 0.032759 0.076000
vt 0.003448 0.008000
vt 0.496552 0.992000
vt 0.467241 0.924000
vt 0.496552 0.008000
vt 0.316906 0.319242
vt 0.344620 0.319242
vt 0.344620 0.379906
vt 0.316906 0.379906
vt 0.564561 0.051893
vt 0.529033 0.051893
vt 0.527589 0.020988
vt 0.566003 0.020988
vt 0.528941 0.051893
vt 0.527498 0.020988
vt 0.565911 0.020988
vt 0.564468 0.051893
vt 0.541504 0.062144
vt 0.540036 0.031335
vt 0.506839 0.031335
vt 0.505371 0.062144
vt 0.540036 0.031335
vt 0.506839 0.031335
vt 0.564468 0.051893
vt 0.528941 0.051893
vt 0.540036 0.031335
vt 0.506839 0.031335
vt 0.363011 0.210728
vt 0.390725 0.210728
vt 0.390725 0.271391
vt 0.363011 0.271391
vt 0.564544 0.051893
vt 0.565988 0.020988
vt 0.527573 0.020988
vt 0.529016 0.051893
vt 0.564544 0.051893
vt 0.540036 0.031335
vt 0.506839 0.031335
vt 0.506839 0.031335
vt 0.564561 0.051893
vt 0.529033 0.051893
vt 0.564544 0.051893
vt 0.529016 0.051893
vt 0.540036 0.031335
vt 0.564561 0.051893
vt 0.529033 0.051893
vt 0.528941 0.051893
vt 0.564468 0.051893
vt 0.528941 0.051893
vt 0.564468 0.051893
vt 0.093325 0.362879
vt 0.135047 0.362879
vt 0.135047 0.386551
vt 0.093325 0.386551
vt 0.011292 0.159972
vt 0.024867 0.159972
vt 0.024867 0.215028
vt 0.004504 0.187500
vt 0.011292 0.187500
vt 0.024867 0.159972
vt 0.024867 0.187500
vt 0.529016 0.051893
vt 0.564544 0.051893
vt 0.564561 0.051893
vt 0.529033 0.051893
vt 0.529016 0.051893
vt 0.564561 0.051893
vt 0.191176 0.462116
vt 0.191176 0.438444
vt 0.093325 0.438444
vt 0.093325 0.462116
vt 0.135047 0.462116
vt 0.135047 0.438444
vt 0.135047 0.423480
vt 0.135047 0.399807
vt 0.269718 0.210728
vt 0.297434 0.210728
vt 0.297434 0.271391
vt 0.269718 0.271391
vt 0.149454 0.438444
vt 0.149454 0.462116
vt 0.023467 0.237504
vt 0.012692 0.237504
vt 0.012692 0.137496
vt 0.023467 0.137496
vt 0.149454 0.362879
vt 0.149454 0.386551
vt 0.149454 0.399807
vt 0.149454 0.423480
vt 0.191176 0.423480
vt 0.191176 0.399807
vt 0.093325 0.399807
vt 0.093325 0.423480
vt 0.191176 0.386551
vt 0.191176 0.362879
vt 0.011292 0.205729
vt 0.011292 0.174063
vt 0.024867 0.174063
vt 0.024867 0.205729
vt 0.363011 0.319242
vt 0.390725 0.319242
vt 0.390725 0.379906
vt 0.363011 0.379906
vt 0.316906 0.536346
vt 0.344620 0.536345
vt 0.344620 0.597009
vt 0.316906 0.597009
vt 0.463793 0.084000
vt 0.000000 0.000000
vt 0.500000 0.000000
vt 0.000000 1.000000
vt 0.003448 0.992000
vt 0.500000 1.000000
vt 0.511631 0.021142
vt 0.535244 0.021142
vt 0.024868 0.158691
vt 0.011292 0.158691
vt 0.011292 0.184729
vt 0.024868 0.184729
vt 0.011291 0.181983
vt 0.011291 0.211853
vt 0.024867 0.211853
vt 0.024867 0.181983
vt 0.463793 0.084000
vt 0.022723 0.157630
vt 0.031449 0.181980
vt 0.026806 0.211850
vt 0.013436 0.217370
vt 0.004710 0.193020
vt 0.005776 0.174066
vt 0.016896 0.155834
vt 0.030383 0.200934
vt 0.006959 0.205732
vt 0.024868 0.179273
vt 0.011292 0.179273
vt 0.011292 0.209977
vt 0.024868 0.209977
vt 0.024867 0.171607
vt 0.011292 0.171607
vt 0.011292 0.203393
vt 0.024867 0.203393
vt 0.011292 0.187500
vt 0.024867 0.187500
vt 0.024867 0.167068
vt 0.011291 0.167068
vt 0.011291 0.198372
vt 0.024867 0.198372
vt 0.029200 0.169268
vt 0.019263 0.219166
vt 0.011292 0.169265
vt 0.011292 0.200930
vt 0.024867 0.200930
vt 0.024867 0.169265
vt 0.011292 0.190271
vt 0.011292 0.161462
vt 0.024868 0.161462
vt 0.024868 0.190271
vt 0.401061 0.731354
vt 0.260379 0.731659
vt 0.024867 0.215028
vt 0.011292 0.215028
vt 0.928711 0.784784
vt 0.500000 0.784784
vt 0.011291 0.207933
vt 0.011291 0.176629
vt 0.024867 0.176629
vt 0.024867 0.207933
vt 0.008480 0.165023
vt 0.021593 0.156796
vt 0.031193 0.179273
vt 0.027679 0.209977
vt 0.014566 0.218204
vt 0.009353 0.163150
vt 0.011292 0.213538
vt 0.024868 0.213538
vt 0.011291 0.157633
vt 0.024867 0.157633
vt 0.011292 0.209977
vt 0.011292 0.179273
vt 0.024867 0.179273
vt 0.024867 0.209977
vt 0.011292 0.215028
vt 0.024867 0.215028
vt 0.011292 0.216309
vt 0.024868 0.216309
vt 0.031655 0.187500
vt 0.004966 0.195727
vt 0.024867 0.217373
vt 0.011291 0.217373
vt 0.011291 0.193023
vt 0.024867 0.193023
vt 0.011292 0.156796
vt 0.024868 0.156796
vt 0.316906 0.210728
vt 0.344620 0.210728
vt 0.344620 0.271391
vt 0.316906 0.271391
vt 0.011292 0.171607
vt 0.024867 0.171607
vt 0.023467 0.237504
vt 0.012692 0.237504
vt 0.012692 0.137496
vt 0.023467 0.137496
vt 0.269718 0.427701
vt 0.297434 0.427701
vt 0.297434 0.488364
vt 0.269718 0.488364
vt 0.316906 0.427701
vt 0.344620 0.427701
vt 0.344620 0.488364
vt 0.316906 0.488364
vt 0.011291 0.163153
vt 0.024867 0.163153
vt 0.312163 0.525281
vt 0.349364 0.525281
vt 0.302177 0.499429
vt 0.264975 0.499429
vt 0.349364 0.608073
vt 0.312163 0.608073
vt 0.312163 0.416637
vt 0.349364 0.416637
vt 0.363011 0.427701
vt 0.358268 0.416637
vt 0.395468 0.416637
vt 0.390725 0.427701
vt 0.302177 0.608073
vt 0.264975 0.608073
vt 0.264975 0.525281
vt 0.302177 0.525281
vt 0.297434 0.319242
vt 0.269718 0.319242
vt 0.264975 0.308178
vt 0.302177 0.308178
vt 0.349364 0.390970
vt 0.312163 0.390970
vt 0.395468 0.282455
vt 0.358268 0.282455
vt 0.511631 0.021142
vt 0.395468 0.390970
vt 0.358268 0.390970
vt 0.363011 0.536345
vt 0.358268 0.525281
vt 0.395468 0.525281
vt 0.390725 0.536345
vt 0.297434 0.379906
vt 0.302177 0.390970
vt 0.264975 0.390970
vt 0.269718 0.379906
vt 0.264975 0.416637
vt 0.302177 0.416637
vt 0.349364 0.499429
vt 0.312163 0.499429
vt 0.312163 0.308178
vt 0.349364 0.308178
vt 0.358268 0.199664
vt 0.395468 0.199664
vt 0.363011 0.488364
vt 0.390725 0.488364
vt 0.395468 0.499429
vt 0.358268 0.499429
vt 0.363011 0.597009
vt 0.390725 0.597009
vt 0.395468 0.608073
vt 0.358268 0.608073
vt 0.312163 0.199664
vt 0.349364 0.199664
vt 0.349364 0.282455
vt 0.312163 0.282455
vt 0.302177 0.282455
vt 0.302177 0.199664
vt 0.358268 0.308178
vt 0.395468 0.308178
vt 0.264975 0.282455
vt 0.264975 0.199664
vt 0.564468 0.051893
vt 0.500000 0.905695
vt 1.000000 1.000000
vt 1.000000 0.905695
vt 0.503430 0.776765
vt 0.925281 0.776765
vt 0.011292 0.218204
vt 0.024868 0.218204
s 1
usemtl keypad_1
f 106/1/1 5/1/2 269/2/3
f 151/3/4 149/4/4 150/5/4 152/6/4
f 156/7/5 155/8/5 153/9/5 154/10/5
f 119/11/3 3/12/3 4/13/3 118/14/3
f 273/15/6 268/15/6 265/16/6 270/16/6
f 7/17/7 111/18/7 107/19/7 6/19/7
f 169/20/8 173/21/8 175/22/8 171/23/8
f 114/24/8 105/25/8 108/26/8 115/27/8
f 120/28/8 109/29/8 105/30/8 114/31/8
f 117/32/8 112/33/8 109/29/8 120/34/8
f 225/35/8 229/36/8 231/37/8 227/38/8
f 206/39/9 202/40/9 25/41/9 27/42/9
f 234/43/9 41/44/9 43/45/9 238/46/9
f 53/47/10 258/48/10 260/49/10 54/50/10
f 13/47/10 178/51/10 180/52/10 14/50/10
f 240/53/11 44/45/11 42/44/11 236/54/11
f 232/39/11 40/42/11 38/41/11 228/40/11
f 17/47/10 186/55/10 188/56/10 18/50/10
f 192/56/12 190/51/12 19/47/12 20/50/12
f 257/57/8 261/58/8 263/59/8 259/60/8
f 176/61/11 12/62/11 10/63/11 172/64/11
f 242/64/9 45/63/9 47/62/9 246/65/9
f 9/47/10 170/66/10 172/67/10 10/50/10
f 176/68/12 174/66/12 11/47/12 12/50/12
f 256/69/11 52/42/11 50/41/11 252/70/11
f 224/71/11 36/62/11 34/63/11 220/72/11
f 240/52/12 238/51/12 43/47/12 44/50/12
f 224/49/12 222/73/12 35/47/12 36/50/12
f 194/72/9 21/63/9 23/62/9 198/71/9
f 230/74/9 226/75/9 37/41/9 39/42/9
f 37/47/10 226/51/10 228/67/10 38/50/10
f 25/47/10 202/51/10 204/67/10 26/50/10
f 258/76/9 53/44/9 55/45/9 262/77/9
f 210/78/9 29/44/9 31/45/9 214/79/9
f 33/47/10 218/73/10 220/68/10 34/50/10
f 232/49/12 230/66/12 39/47/12 40/50/12
f 89/80/13 93/81/13 94/82/13 90/83/13
f 164/84/8 162/85/8 158/86/8 166/87/8
f 170/72/9 9/63/9 11/62/9 174/71/9
f 198/66/12 23/47/12 24/50/12 200/68/12
f 21/47/10 194/66/10 196/68/10 22/50/10
f 165/88/14 163/84/14 164/89/14 166/90/14
f 218/91/9 33/63/9 35/62/9 222/92/9
f 178/40/9 13/41/9 15/42/9 182/39/9
f 29/47/10 210/55/10 212/52/10 30/50/10
f 184/52/12 182/51/12 15/47/12 16/50/12
f 260/54/11 264/53/11 56/45/11 54/44/11
f 216/77/11 32/45/11 30/44/11 212/76/11
f 214/66/12 31/47/12 32/50/12 216/68/12
f 41/47/10 234/66/10 236/67/10 42/50/10
f 184/69/11 16/42/11 14/41/11 180/70/11
f 254/93/9 250/94/9 49/41/9 51/42/9
f 254/51/12 51/47/12 52/50/12 256/52/12
f 200/65/11 24/62/11 22/63/11 196/95/11
f 192/53/11 20/45/11 18/44/11 188/54/11
f 208/96/11 28/42/11 26/41/11 204/94/11
f 262/51/12 55/47/12 56/50/12 264/52/12
f 49/47/10 250/66/10 252/52/10 50/50/10
f 94/82/15 96/82/15 92/83/15 90/83/15
f 248/61/11 48/62/11 46/63/11 244/64/11
f 45/47/10 242/73/10 244/67/10 46/50/10
f 246/51/12 47/47/12 48/50/12 248/52/12
f 70/97/3 69/98/3 71/98/3 72/97/3
f 59/99/16 57/99/16 58/100/16 60/100/16
f 62/101/15 64/101/15 60/100/15 58/100/15
f 62/101/3 61/102/3 63/102/3 64/101/3
f 78/103/3 77/104/3 79/104/3 80/103/3
f 241/105/8 245/106/8 247/107/8 243/108/8
f 65/109/13 69/98/13 70/97/13 66/110/13
f 65/111/7 67/112/7 71/113/7 69/114/7
f 99/115/16 97/115/16 98/116/16 100/116/16
f 83/117/16 81/117/16 82/118/16 84/118/16
f 86/119/3 85/120/3 87/120/3 88/119/3
f 75/121/16 73/121/16 74/122/16 76/122/16
f 78/103/15 80/103/15 76/122/15 74/122/15
f 81/117/13 85/120/13 86/119/13 82/118/13
f 102/123/3 101/124/3 103/124/3 104/123/3
f 141/125/17 139/126/17 140/127/17 142/128/17
f 94/82/3 93/81/3 95/81/3 96/82/3
f 91/80/16 89/80/16 90/83/16 92/83/16
f 233/129/8 237/130/8 239/131/8 235/132/8
f 177/133/8 181/134/8 183/135/8 179/136/8
f 97/111/7 99/112/7 103/113/7 101/114/7
f 106/1/18 105/30/18 109/29/18 110/137/18
f 114/31/19 113/138/19 119/139/19 120/28/19
f 116/140/18 115/141/18 117/32/18 118/142/18
f 108/26/20 105/25/20 106/1/20 107/19/20
f 116/140/21 113/138/21 114/24/21 115/27/21
f 108/26/19 107/19/19 111/18/19 112/33/19
f 232/49/22 231/143/22 229/144/22 230/66/22
f 110/137/21 109/29/21 112/33/21 111/18/21
f 134/145/23 133/146/23 143/147/23 144/148/23
f 123/149/24 121/150/24 122/151/24 124/152/24
f 5/1/2 106/1/1 110/137/15 8/153/15
f 97/115/13 101/124/13 102/123/13 98/116/13
f 126/154/8 124/155/8 122/156/8
f 122/156/8 132/157/8 130/158/8
f 140/159/8 138/160/8 134/161/8 142/162/8
f 146/163/25 145/164/25 155/165/25 156/166/25
f 158/167/16 157/168/16 167/169/16 168/170/16
f 161/84/26 159/171/26 160/172/26 162/89/26
f 122/173/27 121/174/27 131/175/27 132/176/27
f 138/160/8 136/177/8 134/161/8
f 134/161/8 144/178/8 142/162/8
f 67/109/16 65/109/16 66/110/16 68/110/16
f 135/179/28 133/180/28 134/181/28 136/182/28
f 137/183/29 135/184/29 136/185/29 138/186/29
f 272/187/8 273/15/8 270/16/8 271/188/8
f 168/189/30 167/190/30 165/88/30 166/90/30
f 1/12/16 113/191/16 116/192/16 2/13/16
f 127/193/31 125/194/31 126/195/31 128/196/31
f 150/197/8 148/198/8 146/199/8
f 146/199/8 156/200/8 154/201/8
f 128/202/8 126/154/8 122/156/8 130/158/8
f 144/148/32 143/147/32 141/203/32 142/204/32
f 125/205/33 123/149/33 124/152/33 126/206/33
f 149/207/34 147/208/34 148/209/34 150/210/34
f 159/171/35 157/211/35 158/212/35 160/172/35
f 139/213/36 137/183/36 138/186/36 140/214/36
f 162/85/8 160/215/8 158/86/8
f 158/86/8 168/190/8 166/87/8
f 152/216/8 150/197/8 146/199/8 154/201/8
f 132/217/37 131/218/37 129/219/37 130/220/37
f 147/221/2 145/164/2 146/163/2 148/222/2
f 249/223/8 253/224/8 255/225/8 251/226/8
f 163/169/3 161/227/3 162/228/3 164/170/3
f 89/229/7 91/230/7 95/231/7 93/232/7
f 193/233/8 197/234/8 199/235/8 195/236/8
f 57/99/13 61/102/13 62/101/13 58/100/13
f 201/237/8 205/238/8 207/239/8 203/240/8
f 57/229/7 59/230/7 63/231/7 61/232/7
f 129/219/38 127/241/38 128/242/38 130/220/38
f 86/119/15 88/119/15 84/118/15 82/118/15
f 200/68/22 199/143/22 197/144/22 198/66/22
f 202/51/39 201/144/39 203/143/39 204/67/39
f 177/133/40 178/243/40 182/244/40 181/134/40
f 199/235/41 200/245/41 196/246/41 195/236/41
f 176/68/22 175/143/22 173/144/22 174/66/22
f 236/67/39 234/66/39 233/144/39 235/143/39
f 183/135/41 184/247/41 180/248/41 179/136/41
f 201/237/40 202/249/40 206/250/40 205/238/40
f 208/67/22 207/143/22 205/144/22 206/51/22
f 240/52/22 239/143/22 237/144/22 238/51/22
f 209/251/40 210/252/40 214/253/40 213/254/40
f 175/22/41 176/255/41 172/256/41 171/23/41
f 252/52/39 250/66/39 249/144/39 251/143/39
f 178/51/39 177/144/39 179/143/39 180/52/39
f 169/20/40 170/257/40 174/258/40 173/21/40
f 221/259/40 217/260/40 218/261/40 222/262/40
f 264/52/22 263/143/22 261/144/22 262/51/22
f 212/52/39 210/55/39 209/144/39 211/143/39
f 231/37/41 232/263/41 228/264/41 227/38/41
f 259/60/41 263/59/41 264/265/41 260/266/41
f 184/52/22 183/267/22 181/144/22 182/51/22
f 192/56/22 191/143/22 189/144/22 190/51/22
f 235/132/41 239/131/41 240/268/41 236/269/41
f 185/270/40 186/271/40 190/272/40 189/273/40
f 194/66/39 193/144/39 195/143/39 196/68/39
f 226/51/39 225/144/39 227/143/39 228/67/39
f 223/274/41 224/275/41 220/276/41 219/277/41
f 193/233/40 194/278/40 198/279/40 197/234/40
f 170/66/39 169/144/39 171/143/39 172/67/39
f 186/55/39 185/144/39 187/143/39 188/56/39
f 207/239/41 208/280/41 204/281/41 203/240/41
f 225/35/40 226/282/40 230/283/40 229/36/40
f 256/52/22 255/143/22 253/144/22 254/51/22
f 257/57/40 258/284/40 262/285/40 261/58/40
f 211/286/41 215/287/41 216/288/41 212/289/41
f 187/290/41 191/291/41 192/292/41 188/293/41
f 218/73/39 217/144/39 219/143/39 220/68/39
f 224/49/22 223/143/22 221/144/22 222/73/22
f 249/223/40 250/294/40 254/295/40 253/224/40
f 255/225/41 256/296/41 252/297/41 251/226/41
f 248/298/22 247/107/22 245/106/22 246/299/22
f 260/49/39 258/48/39 257/144/39 259/143/39
f 233/129/40 234/300/40 238/301/40 237/130/40
f 244/302/39 242/303/39 241/105/39 243/108/39
f 216/68/22 215/143/22 213/144/22 214/66/22
f 241/105/40 242/303/40 246/299/40 245/106/40
f 247/107/41 248/298/41 244/302/41 243/108/41
f 186/54/9 17/44/9 19/45/9 190/304/9
f 70/97/15 72/97/15 68/110/15 66/110/15
f 73/121/13 77/104/13 78/103/13 74/122/13
f 73/229/7 75/230/7 79/231/7 77/232/7
f 81/111/7 83/112/7 87/113/7 85/114/7
f 267/187/8 8/153/8 7/17/8 268/15/8
f 209/251/8 213/254/8 215/287/8 211/286/8
f 217/260/8 221/259/8 223/274/8 219/277/8
f 8/153/16 110/137/16 111/18/16 7/17/16
f 185/270/8 189/273/8 191/291/8 187/290/8
f 8/153/8 266/188/8 269/2/8 5/1/8
f 7/17/8 6/19/8 265/16/8 268/15/8
f 102/123/15 104/123/15 100/116/15 98/116/15
f 6/19/8 269/2/8 266/188/8 265/16/8
f 8/153/8 267/187/8 266/188/8
f 113/305/7 1/142/7 3/306/7 119/307/7
f 118/14/20 117/308/20 120/309/20 119/11/20
f 206/51/12 27/47/12 28/50/12 208/67/12
f 269/2/3 6/19/3 107/19/3 106/1/3
f 153/310/42 151/3/42 152/6/42 154/311/42
f 271/188/43 266/188/43 267/187/43 272/187/43
f 272/187/16 267/187/16 268/15/16 273/15/16
f 270/16/3 265/16/3 266/188/3 271/188/3
f 115/141/8 108/26/8 112/33/8 117/32/8
f 118/307/15 4/306/15 2/142/15 116/305/15
