# Blender 5.0.1
# www.blender.org
mtllib keypad_2.mtl
o keypad_2
v -0.059003 -0.098819 0.030000
v 0.059003 -0.098819 0.030000
v -0.059003 0.098819 0.030000
v 0.059003 0.098819 0.030000
v -0.064204 0.104020 0.000000
v -0.064204 -0.104020 -0.000000
v 0.064204 -0.104020 -0.000000
v 0.064204 0.104020 0.000000
v -0.064204 0.104020 0.030000
v -0.064204 -0.104020 0.030000
v 0.064204 -0.104020 0.030000
v 0.064204 0.104020 0.030000
v -0.059003 0.098819 0.020000
v -0.059003 -0.098819 0.020000
v 0.059003 -0.098819 0.020000
v 0.059003 0.098819 0.020000
v -0.053802 0.063803 0.030000
v 0.053802 0.063806 0.030000
v -0.053802 -0.064212 0.030000
v 0.053802 -0.063884 0.030000
v 0.059003 -0.069070 0.020000
v 0.059003 0.069007 0.020000
v -0.059003 0.069004 0.020000
v -0.059003 -0.069429 0.020000
v -0.040087 0.045152 0.030000
v -0.040342 0.021436 0.030000
v -0.016116 0.021564 0.030000
v -0.016243 0.045152 0.030000
v -0.012165 0.045152 0.030000
v 0.011807 0.045152 0.030000
v -0.012165 0.021819 0.030000
v 0.011807 0.021564 0.030000
v 0.016510 0.045152 0.030000
v 0.016510 0.021564 0.030000
v 0.039731 0.021308 0.030000
v 0.040114 0.045152 0.030000
v -0.040085 0.018484 0.030000
v -0.040085 -0.004773 0.030000
v -0.016369 -0.005079 0.030000
v -0.016369 0.018484 0.030000
v -0.012112 0.018484 0.030000
v -0.011959 -0.004620 0.030000
v 0.011604 -0.004926 0.030000
v 0.011604 0.018484 0.030000
v 0.016510 0.018484 0.030000
v 0.016510 -0.004773 0.030000
v 0.039784 -0.005079 0.030000
v 0.039937 0.018484 0.030000
v -0.040184 -0.010915 0.030000
v -0.040184 -0.034019 0.030000
v -0.016468 -0.034172 0.030000
v -0.016468 -0.010915 0.030000
v -0.012210 -0.034172 0.030000
v 0.011659 -0.034478 0.030000
v 0.011659 -0.010915 0.030000
v -0.012363 -0.010915 0.030000
v 0.016510 -0.010915 0.030000
v 0.039685 -0.034172 0.030000
v 0.039685 -0.010915 0.030000
v 0.016510 -0.034325 0.030000
v -0.016468 -0.037422 0.030000
v -0.039877 -0.037422 0.030000
v -0.040336 -0.061024 0.030000
v -0.016468 -0.061024 0.030000
v -0.012103 -0.037422 0.030000
v -0.011751 -0.061024 0.030000
v 0.011812 -0.061024 0.030000
v 0.011659 -0.037422 0.030000
v 0.016510 -0.037422 0.030000
v 0.039991 -0.037422 0.030000
v 0.016510 -0.061024 0.030000
v 0.039838 -0.061024 0.030000
v -0.037000 0.041887 0.038000
v -0.040087 0.045152 0.034879
v -0.040342 0.021436 0.034879
v -0.037187 0.024573 0.038000
v -0.016116 0.021564 0.034879
v -0.019254 0.024668 0.038000
v -0.016243 0.045152 0.034879
v -0.019347 0.041793 0.038000
v 0.008686 0.041870 0.038000
v 0.011807 0.045152 0.034879
v -0.012165 0.045152 0.034879
v -0.009044 0.041682 0.038000
v -0.012165 0.021819 0.034879
v -0.009044 0.024906 0.038000
v 0.011807 0.021564 0.034879
v 0.008686 0.024718 0.038000
v 0.016510 0.045152 0.034879
v 0.019042 0.041858 0.038000
v 0.016510 0.021564 0.034879
v 0.019229 0.024651 0.038000
v 0.039731 0.021308 0.034879
v 0.036660 0.024462 0.038000
v 0.040114 0.045152 0.034879
v 0.036942 0.042329 0.038000
v -0.036964 0.015251 0.038000
v -0.040085 0.018484 0.034879
v -0.040085 -0.004773 0.034879
v -0.036964 -0.001692 0.038000
v -0.016369 -0.005079 0.034879
v -0.019489 -0.001918 0.038000
v -0.016369 0.018484 0.034879
v -0.019489 0.015476 0.038000
v -0.008971 0.015271 0.038000
v -0.012112 0.018484 0.034879
v -0.011959 -0.004620 0.034879
v -0.008858 -0.001539 0.038000
v 0.011604 -0.004926 0.034879
v 0.008484 -0.001764 0.038000
v 0.011604 0.018484 0.034879
v 0.008484 0.015609 0.038000
v 0.019587 0.015136 0.038000
v 0.016510 0.018484 0.034879
v 0.016510 -0.004773 0.034879
v 0.019251 -0.001693 0.038000
v 0.039784 -0.005079 0.034879
v 0.036684 -0.001918 0.038000
v 0.039937 0.018484 0.034879
v 0.036795 0.015586 0.038000
v -0.037063 -0.013903 0.038000
v -0.040184 -0.010915 0.034879
v -0.040184 -0.034019 0.034879
v -0.037063 -0.030918 0.038000
v -0.016468 -0.034172 0.034879
v -0.019588 -0.031031 0.038000
v -0.016468 -0.010915 0.034879
v -0.019588 -0.014015 0.038000
v -0.009110 -0.031091 0.038000
v -0.012210 -0.034172 0.034879
v 0.011659 -0.034478 0.034879
v 0.008538 -0.031317 0.038000
v 0.011659 -0.010915 0.034879
v 0.008538 -0.013810 0.038000
v -0.009223 -0.014263 0.038000
v -0.012363 -0.010915 0.034879
v 0.036565 -0.031071 0.038000
v 0.039685 -0.034172 0.034879
v 0.039685 -0.010915 0.034879
v 0.036565 -0.014046 0.038000
v 0.016510 -0.010915 0.034879
v 0.020184 -0.014101 0.038000
v 0.016510 -0.034325 0.034879
v 0.019392 -0.031183 0.038000
v -0.019588 -0.040659 0.038000
v -0.016468 -0.037422 0.034879
v -0.039877 -0.037422 0.034879
v -0.036817 -0.040659 0.038000
v -0.040336 -0.061024 0.034879
v -0.037155 -0.058133 0.038000
v -0.016468 -0.061024 0.034879
v -0.019588 -0.058133 0.038000
v -0.008934 -0.040346 0.038000
v -0.012103 -0.037422 0.034879
v -0.011751 -0.061024 0.034879
v -0.008676 -0.057581 0.038000
v 0.011812 -0.061024 0.034879
v 0.008670 -0.057918 0.038000
v 0.011659 -0.037422 0.034879
v 0.008558 -0.040742 0.038000
v 0.019203 -0.040753 0.038000
v 0.016510 -0.037422 0.034879
v 0.016510 -0.061024 0.034879
v 0.018978 -0.058020 0.038000
v 0.039838 -0.061024 0.034879
v 0.036738 -0.058246 0.038000
v 0.039991 -0.037422 0.034879
v 0.036851 -0.040414 0.038000
v 0.034605 0.063805 0.030000
v -0.034502 0.063804 0.030000
v 0.040087 0.059035 0.030000
v 0.040215 0.053424 0.030000
v 0.034732 0.047942 0.030000
v -0.034376 0.047814 0.030000
v -0.039476 0.053042 0.030000
v -0.039476 0.058652 0.030000
v 0.034605 0.063805 0.035000
v -0.034502 0.063804 0.035000
v 0.040087 0.059035 0.035000
v 0.040215 0.053424 0.035000
v 0.034732 0.047942 0.035000
v -0.034376 0.047814 0.035000
v -0.039476 0.053042 0.035000
v -0.039476 0.058652 0.035000
vn -1.0000 -0.0000 -0.0000
vn -0.9999 -0.0149 -0.0000
vn -0.0000 1.0000 -0.0000
vn -0.0000 -1.0000 -0.0000
vn -0.0000 -0.0000 1.0000
vn 1.0000 -0.0000 -0.0000
vn 0.0027 -0.8872 0.4614
vn -0.0000 0.8872 0.4614
vn -0.8872 -0.0000 0.4614
vn 0.9999 -0.0160 -0.0000
vn -0.9999 0.0107 -0.0000
vn -0.0132 -0.9999 -0.0000
vn -0.0128 -0.9999 -0.0000
vn 1.0000 0.0065 -0.0000
vn -0.0129 -0.9999 -0.0000
vn 0.0066 -1.0000 -0.0000
vn -1.0000 -0.0066 -0.0000
vn -0.0110 -0.9999 -0.0000
vn 1.0000 -0.0065 -0.0000
vn 0.9997 0.0228 -0.0000
vn -0.0000 -0.0000 -1.0000
vn 0.6565 0.7543 -0.0000
vn 0.0018 -1.0000 -0.0000
vn -0.0064 -1.0000 -0.0000
vn -0.9998 0.0194 -0.0000
vn 0.0053 -1.0000 -0.0000
vn -0.0106 -0.9999 -0.0000
vn 0.7070 0.0046 0.7072
vn -0.7071 -0.0047 0.7070
vn 0.0020 0.7158 0.6983
vn 0.7071 -0.0000 0.7071
vn -0.0091 -0.7070 0.7071
vn 0.0068 0.7070 0.7072
vn 0.7070 0.0038 0.7072
vn -0.7705 0.0042 0.6374
vn -0.0092 -0.7074 0.7068
vn 0.0046 -0.7069 0.7073
vn 0.0045 -0.7066 0.7076
vn 0.0048 -0.7074 0.7068
vn -0.0081 0.7146 0.6995
vn 0.0037 -0.7071 0.7071
vn -0.0058 0.7027 0.7115
vn -0.0000 -0.7336 0.6796
vn -0.7071 -0.0000 0.7071
vn -0.0078 0.7069 0.7073
vn -0.6894 0.0135 0.7243
vn 0.7067 -0.0113 0.7075
vn -0.0000 0.6940 0.7199
vn -0.0010 0.7028 0.7114
vn 0.0016 0.6858 0.7278
vn -0.0075 -0.7071 0.7071
vn -0.0046 -0.7071 0.7071
vn -0.0057 -0.6899 0.7239
vn -0.0092 -0.7070 0.7071
vn -0.0040 -0.7338 0.6794
vn -0.7313 0.0061 0.6820
vn -0.0077 0.7070 0.7072
vn -0.7652 -0.0035 0.6437
vn -0.7066 0.0137 0.7075
vn -0.7070 0.0076 0.7072
vn -0.0039 0.7071 0.7071
vn -0.7072 -0.0047 0.7070
vn -0.0059 0.7158 0.6983
vn 0.7070 -0.0046 0.7072
vn -0.0077 -0.7073 0.7069
vn -0.0031 0.6788 0.7343
vn 0.8872 -0.0000 0.4614
vn 0.7068 -0.0046 0.7074
vn 0.7072 -0.0045 0.7070
vn -0.7194 0.6946 -0.0000
vn -0.7158 -0.6983 -0.0000
vn 0.7071 -0.7071 -0.0000
vn 1.0000 0.0054 -0.0000
vn -0.7065 -0.0105 0.7077
vn -0.0130 -0.9999 -0.0000
vt 0.565879 0.510000
vt 0.565879 0.503333
vt 0.546005 0.503333
vt 0.434121 0.510000
vt 0.187830 0.588849
vt 0.187830 0.477059
vt 0.416712 0.320123
vt 0.416712 0.320123
vt 0.419462 0.206670
vt 0.457198 0.510000
vt 0.542802 0.510000
vt 0.542802 0.490000
vt 0.457198 0.490000
vt 0.539335 0.503333
vt 0.539335 0.510000
vt 0.460665 0.510000
vt 0.460665 0.503333
vt 0.232291 0.729832
vt 0.231307 0.806689
vt 0.192572 0.781927
vt 0.192572 0.754960
vt 0.457198 0.430653
vt 0.460665 0.434121
vt 0.460665 0.565879
vt 0.457198 0.569347
vt 0.542802 0.430653
vt 0.539335 0.434121
vt 0.542802 0.569347
vt 0.539335 0.565879
vt 0.809058 0.335744
vt 0.809058 0.335744
vt 0.809058 0.447534
vt 0.809058 0.447534
vt 0.811414 0.321034
vt 0.811414 0.321034
vt 0.628615 0.318865
vt 0.453714 0.503333
vt 0.546003 0.503333
vt 0.434121 0.503333
vt 0.959496 0.167998
vt 0.918992 0.192922
vt 0.081008 0.191348
vt 0.040504 0.166272
vt 0.040504 0.831686
vt 0.081008 0.806687
vt 0.918992 0.806701
vt 0.959496 0.831702
vt 0.959496 0.025000
vt 0.040504 0.025000
vt 0.347452 0.432631
vt 0.211363 0.433172
vt 0.211363 0.351382
vt 0.347453 0.350841
vt 0.809415 0.602425
vt 0.812346 0.717035
vt 0.187822 0.717035
vt 0.187822 0.717035
vt 0.185828 0.603038
vt 0.628575 0.477032
vt 0.628575 0.477032
vt 0.809827 0.475588
vt 0.415841 0.335744
vt 0.601727 0.334272
vt 0.623708 0.717002
vt 0.623708 0.717002
vt 0.625712 0.603632
vt 0.602915 0.206669
vt 0.602915 0.206669
vt 0.601714 0.320122
vt 0.601666 0.449004
vt 0.414710 0.446064
vt 0.414710 0.446064
vt 0.416194 0.717035
vt 0.416194 0.717035
vt 0.416194 0.604877
vt 0.371755 0.335744
vt 0.371755 0.447534
vt 0.372524 0.475588
vt 0.652539 0.572757
vt 0.649920 0.491863
vt 0.785681 0.490782
vt 0.786553 0.574920
vt 0.784756 0.350647
vt 0.784756 0.432484
vt 0.657188 0.432219
vt 0.651020 0.350110
vt 0.601727 0.447534
vt 0.628575 0.335020
vt 0.628575 0.335020
vt 0.373490 0.715810
vt 0.373490 0.715810
vt 0.187806 0.716422
vt 0.372508 0.589585
vt 0.372508 0.589585
vt 0.187845 0.588114
vt 0.187845 0.588114
vt 0.601258 0.590319
vt 0.601258 0.590319
vt 0.416633 0.588114
vt 0.416633 0.588114
vt 0.810953 0.590319
vt 0.810953 0.590319
vt 0.628638 0.587377
vt 0.371755 0.447534
vt 0.187069 0.448269
vt 0.371755 0.206669
vt 0.371755 0.206669
vt 0.371755 0.320123
vt 0.371755 0.320122
vt 0.601680 0.318829
vt 0.416728 0.321416
vt 0.414633 0.447534
vt 0.414633 0.447534
vt 0.415841 0.335744
vt 0.602878 0.603652
vt 0.602878 0.717035
vt 0.628575 0.603632
vt 0.430653 0.510000
vt 0.569347 0.510000
vt 0.569347 0.490000
vt 0.430653 0.490000
vt 0.809827 0.475588
vt 0.811000 0.588849
vt 0.811000 0.588849
vt 0.040504 0.975000
vt 0.959496 0.975000
vt 0.443366 0.223223
vt 0.578454 0.221599
vt 0.577580 0.304162
vt 0.441358 0.306068
vt 0.441945 0.492602
vt 0.577001 0.491519
vt 0.577001 0.575027
vt 0.441072 0.573403
vt 0.813180 0.756798
vt 0.812185 0.783766
vt 0.633999 0.447379
vt 0.633999 0.447379
vt 0.625563 0.335094
vt 0.625563 0.335094
vt 0.628753 0.588847
vt 0.628753 0.588847
vt 0.625135 0.477102
vt 0.625135 0.477102
vt 0.810269 0.206669
vt 0.810269 0.206669
vt 0.811433 0.320123
vt 0.811433 0.320123
vt 0.213282 0.304563
vt 0.210650 0.220566
vt 0.347452 0.220566
vt 0.347453 0.304563
vt 0.786103 0.220022
vt 0.786983 0.305741
vt 0.649550 0.304110
vt 0.647797 0.221110
vt 0.769495 0.806699
vt 0.770483 0.730445
vt 0.628567 0.206260
vt 0.628567 0.206260
vt 0.810211 0.204831
vt 0.810211 0.204831
vt 0.578576 0.618812
vt 0.578576 0.701261
vt 0.440496 0.700355
vt 0.440496 0.619718
vt 0.372524 0.475588
vt 0.372524 0.588849
vt 0.602889 0.716422
vt 0.602889 0.716422
vt 0.416226 0.715196
vt 0.601304 0.476323
vt 0.601304 0.476323
vt 0.601304 0.588849
vt 0.187061 0.336479
vt 0.187061 0.336479
vt 0.189463 0.320122
vt 0.185907 0.206669
vt 0.185907 0.206669
vt 0.419475 0.208507
vt 0.419475 0.208507
vt 0.602908 0.206302
vt 0.602908 0.206302
vt 0.785497 0.617585
vt 0.787694 0.703467
vt 0.648291 0.701204
vt 0.649753 0.618491
vt 0.577425 0.349466
vt 0.577425 0.433618
vt 0.439110 0.431443
vt 0.439984 0.350554
vt 0.374492 0.603652
vt 0.348221 0.490783
vt 0.348221 0.574391
vt 0.212132 0.573306
vt 0.212132 0.491867
vt 0.185873 0.205566
vt 0.371755 0.205566
vt 0.416602 0.588849
vt 0.416602 0.588849
vt 0.417802 0.477794
vt 0.602917 0.206669
vt 0.601721 0.320122
vt 0.416606 0.588849
vt 0.371755 0.447534
vt 0.187065 0.447901
vt 0.371755 0.206669
vt 0.371755 0.320123
vt 0.601704 0.319476
vt 0.416704 0.320769
vt 0.349330 0.700889
vt 0.350057 0.618572
vt 0.373495 0.717035
vt 0.371755 0.319564
vt 0.189445 0.319563
vt 0.627081 0.320135
vt 0.625882 0.206691
vt 0.628575 0.477046
vt 0.628575 0.335014
vt 0.812353 0.717955
vt 0.628600 0.716461
vt 0.210396 0.618118
vt 0.811428 0.320578
vt 0.628595 0.319493
vt 0.185873 0.206118
vt 0.371755 0.206118
vt 0.809058 0.447534
vt 0.601727 0.447534
vt 0.810984 0.589584
vt 0.628607 0.588113
vt 0.631287 0.447456
vt 0.627069 0.335051
vt 0.812369 0.717035
vt 0.371755 0.319843
vt 0.189445 0.319843
vt 0.809058 0.447534
vt 0.628576 0.447347
vt 0.211851 0.701343
vt 0.373495 0.716422
vt 0.187809 0.716729
vt 0.419446 0.207588
vt 0.602913 0.206486
vt 0.628571 0.206464
vt 0.810231 0.205750
vt 0.602878 0.717035
vt 0.628665 0.588848
vt 0.626855 0.477081
vt 0.371755 0.447534
vt 0.601697 0.448269
vt 0.414680 0.446799
vt 0.626141 0.717018
vt 0.627144 0.603641
vt 0.187061 0.447534
vt 0.189454 0.320122
vt 0.185890 0.206669
vt 0.187817 0.717035
vt 0.372516 0.589217
vt 0.187837 0.588482
vt 0.414641 0.447534
vt 0.601281 0.589584
vt 0.416621 0.588482
vt 0.811008 0.588849
vt 0.628575 0.603642
vt 0.602884 0.716728
vt 0.416210 0.716115
vt 0.625585 0.320147
vt 0.625585 0.320147
vt 0.623189 0.206713
vt 0.623189 0.206713
vt 0.810260 0.206669
vt 0.811438 0.320122
vt 0.187061 0.447534
vt 0.453954 0.503333
vt 0.812312 0.718872
vt 0.628626 0.715889
vt 0.628625 0.715889
vt 0.812312 0.718872
vt 0.809058 0.447534
vt 0.809058 0.447534
vt 0.628577 0.447160
vt 0.628577 0.447160
vt 0.373489 0.717035
vt 0.373489 0.717035
vt 0.416696 0.320123
vt 0.419440 0.206670
s 1
usemtl keypad_2
f 98/5/1 37/5/1 38/6/1 99/6/1
f 154/7/2 65/8/2 66/9/2 155/9/2
f 182/18/5 178/19/5 184/20/5 183/21/5
f 138/30/6 58/31/6 59/32/6 139/33/6
f 167/34/3 70/35/3 69/36/3 162/36/3
f 21/40/7 20/41/7 19/42/7 24/43/7
f 23/44/8 17/45/8 18/46/8 22/47/8
f 23/44/9 24/43/9 19/42/9 17/45/9
f 15/48/5 21/40/5 24/43/5 14/49/5
f 17/45/5 19/42/5 20/41/5 18/46/5
f 128/50/5 121/51/5 124/52/5 126/53/5
f 93/54/10 35/54/10 36/55/10 95/55/10
f 74/56/11 25/57/11 26/58/11 75/58/11
f 115/59/12 46/60/12 47/61/12 117/61/12
f 130/62/13 53/62/13 54/63/13 131/63/13
f 89/64/1 33/65/1 34/66/1 91/66/1
f 157/67/14 67/68/14 68/69/14 159/69/14
f 133/70/3 55/70/3 56/71/3 136/72/3
f 83/73/1 29/74/1 31/75/1 85/75/1
f 125/76/6 51/76/6 52/77/6 127/77/6
f 99/6/15 38/6/15 39/78/15 101/78/15
f 113/79/5 116/80/5 118/81/5 120/82/5
f 137/83/5 140/84/5 142/85/5 144/86/5
f 131/63/6 54/63/6 55/87/6 133/87/6
f 143/88/16 60/89/16 58/31/16 138/31/16
f 79/90/3 28/91/3 25/92/3 74/92/3
f 103/93/3 40/94/3 37/95/3 98/96/3
f 111/97/3 44/98/3 41/99/3 106/100/3
f 119/101/3 48/102/3 45/103/3 114/103/3
f 127/104/3 52/104/3 49/105/3 122/105/3
f 151/106/6 64/107/6 61/108/6 146/109/6
f 159/110/3 68/110/3 65/111/3 154/111/3
f 136/112/17 56/113/17 53/62/17 130/114/17
f 87/115/6 32/115/6 30/116/6 82/116/6
f 91/117/18 34/117/18 35/54/18 93/54/18
f 117/122/19 47/61/19 48/123/19 119/124/19
f 13/125/5 23/44/5 22/47/5 16/126/5
f 156/127/5 158/128/5 160/129/5 153/130/5
f 108/131/5 110/132/5 112/133/5 105/134/5
f 180/135/20 172/135/20 171/136/20 179/136/20
f 141/137/1 57/138/1 60/139/1 143/140/1
f 114/141/1 45/142/1 46/143/1 115/144/1
f 165/145/19 72/146/19 70/147/19 167/148/19
f 148/149/5 150/150/5 152/151/5 145/152/5
f 166/153/5 168/154/5 161/155/5 164/156/5
f 179/136/22 171/136/22 169/157/22 177/157/22
f 184/20/1 176/20/1 175/21/1 183/21/1
f 182/18/23 174/18/23 173/158/23 181/158/23
f 163/159/4 71/160/4 72/161/4 165/162/4
f 88/163/5 81/164/5 84/165/5 86/166/5
f 101/167/6 39/78/6 40/168/6 103/168/6
f 182/18/5 181/158/5 177/157/5 178/19/5
f 82/169/3 30/170/3 29/171/3 83/171/3
f 109/172/6 43/173/6 44/174/6 111/174/6
f 123/175/24 50/176/24 51/76/24 125/76/24
f 147/177/25 62/177/25 63/178/25 149/179/25
f 155/180/4 66/181/4 67/182/4 157/183/4
f 94/184/5 96/185/5 90/186/5 92/187/5
f 132/188/5 134/189/5 135/190/5 129/191/5
f 75/58/26 26/58/26 27/192/26 77/192/26
f 102/193/5 104/194/5 97/195/5 100/196/5
f 149/197/4 63/197/4 64/198/4 151/198/4
f 85/75/27 31/75/27 32/115/27 87/115/27
f 106/199/17 41/200/17 42/201/17 107/201/17
f 160/129/28 158/128/28 157/202/28 159/203/28
f 105/134/29 106/204/29 107/201/29 108/131/29
f 121/51/30 128/50/30 127/205/30 122/206/30
f 145/152/31 152/151/31 151/207/31 146/208/31
f 132/188/32 129/191/32 130/62/32 131/63/32
f 153/130/33 160/129/33 159/209/33 154/210/33
f 99/6/32 101/78/32 102/193/32 100/196/32
f 80/211/34 78/212/34 77/192/34 79/213/34
f 146/214/3 61/214/3 62/215/3 147/215/3
f 161/155/35 162/216/35 163/217/35 164/156/35
f 118/81/36 116/80/36 115/218/36 117/61/36
f 137/83/37 144/86/38 143/219/37 138/31/39
f 96/185/40 95/220/40 89/221/40 90/186/40
f 76/222/41 75/58/41 77/192/41 78/212/41
f 168/154/42 167/223/42 162/224/42 161/155/42
f 150/150/43 149/225/43 151/226/43 152/151/43
f 97/195/44 98/5/44 99/6/44 100/196/44
f 140/84/31 137/83/31 138/30/31 139/227/31
f 132/188/31 131/63/31 133/228/31 134/189/31
f 120/82/45 119/229/45 114/230/45 113/79/45
f 144/86/46 142/85/46 141/231/46 143/232/46
f 94/184/47 93/54/47 95/233/47 96/185/47
f 145/152/48 146/234/48 147/235/48 148/149/48
f 142/85/49 140/84/49 139/236/49 141/237/49
f 73/238/50 80/211/50 79/239/50 74/240/50
f 88/163/51 86/166/51 85/75/51 87/115/51
f 126/53/52 124/52/52 123/175/52 125/76/52
f 158/128/53 156/127/53 155/241/53 157/242/53
f 110/132/54 108/131/54 107/201/54 109/173/54
f 166/153/55 164/156/55 163/243/55 165/244/55
f 81/164/31 88/163/31 87/115/31 82/245/31
f 113/79/56 114/246/56 115/247/56 116/80/56
f 126/53/31 125/76/31 127/248/31 128/50/31
f 134/189/57 133/249/57 136/250/57 135/190/57
f 90/186/58 89/251/58 91/252/58 92/187/58
f 110/132/31 109/172/31 111/174/31 112/133/31
f 124/52/44 121/51/44 122/253/44 123/176/44
f 102/193/31 101/167/31 103/168/31 104/194/31
f 84/165/44 83/73/44 85/75/44 86/166/44
f 148/149/59 147/254/59 149/255/59 150/150/59
f 73/238/60 74/256/60 75/58/60 76/222/60
f 104/194/61 103/257/61 98/258/61 97/195/61
f 135/190/62 136/259/62 130/114/62 129/191/62
f 112/133/63 111/260/63 106/261/63 105/134/63
f 180/135/5 179/136/5 177/157/5 181/158/5
f 118/81/64 117/122/64 119/262/64 120/82/64
f 94/184/65 92/187/65 91/263/65 93/54/65
f 81/164/66 82/264/66 83/265/66 84/165/66
f 162/266/1 69/267/1 71/268/1 163/269/1
f 21/40/67 22/47/67 18/46/67 20/41/67
f 168/154/68 166/153/69 165/270/69 167/271/69
f 122/253/1 49/272/1 50/176/1 123/176/1
f 78/212/5 80/211/5 73/238/5 76/222/5
f 36/274/3 33/275/3 89/276/3 95/277/3
f 177/157/3 169/157/3 170/19/3 178/19/3
f 178/19/70 170/19/70 176/20/70 184/20/70
f 183/21/71 175/21/71 174/18/71 182/18/71
f 181/158/72 173/158/72 172/135/72 180/135/72
f 139/278/3 59/279/3 57/280/3 141/281/3
f 77/192/73 27/192/73 28/282/73 79/283/73
f 156/127/74 153/130/74 154/284/74 155/285/74
f 107/201/75 42/201/75 43/173/75 109/173/75
usemtl metal_mp_4
f 4/1/1 16/2/1 22/3/1 2/4/1
f 9/10/3 12/11/3 8/12/3 5/13/3
f 11/11/4 10/10/4 6/13/4 7/12/4
f 16/14/4 4/15/4 3/16/4 13/17/4
f 10/22/5 1/23/5 3/24/5 9/25/5
f 11/26/5 2/27/5 1/23/5 10/22/5
f 12/28/5 4/29/5 2/27/5 11/26/5
f 24/37/6 23/38/6 1/4/6 14/39/6
f 9/25/5 3/24/5 4/29/5 12/28/5
f 14/17/3 1/16/3 2/15/3 15/14/3
f 10/118/1 9/119/1 5/120/1 6/121/1
f 12/119/6 11/118/6 7/121/6 8/120/6
f 7/26/21 6/22/21 5/25/21 8/28/21
f 2/4/1 22/3/1 21/273/1 15/39/1
f 3/1/6 1/4/6 23/38/6 13/2/6
