# Blender 5.0.1
# www.blender.org
mtllib notebook_1.mtl
o notebook_1
v -0.056872 0.000995 -0.100254
v -0.056872 0.002810 -0.100219
v -0.059730 0.002810 -0.100219
v -0.059730 0.000995 -0.100254
v -0.056872 0.003627 -0.107850
v -0.056872 0.005074 -0.106755
v -0.059730 0.005074 -0.106755
v -0.059730 0.003627 -0.107850
v -0.056872 0.010221 -0.112448
v -0.056872 0.010748 -0.110712
v -0.059730 0.010748 -0.110712
v -0.059730 0.010221 -0.112448
v -0.056872 0.018258 -0.112293
v -0.056872 0.017664 -0.110578
v -0.059730 0.017664 -0.110578
v -0.059730 0.018258 -0.112293
v -0.056872 0.024669 -0.107442
v -0.056872 0.023181 -0.106404
v -0.059730 0.023181 -0.106404
v -0.059730 0.024669 -0.107442
v -0.056872 0.027005 -0.099750
v -0.056872 0.025190 -0.099785
v -0.059730 0.025190 -0.099785
v -0.059730 0.027005 -0.099750
v -0.056872 0.024373 -0.092154
v -0.056872 0.022926 -0.093249
v -0.059730 0.022926 -0.093249
v -0.059730 0.024373 -0.092154
v -0.056872 0.017779 -0.087556
v -0.056872 0.017252 -0.089292
v -0.059730 0.017252 -0.089292
v -0.059730 0.017779 -0.087556
v -0.056872 0.009742 -0.087711
v -0.056872 0.010336 -0.089426
v -0.059730 0.010336 -0.089426
v -0.059730 0.009742 -0.087711
v -0.056872 0.003331 -0.092562
v -0.056872 0.004819 -0.093600
v -0.059730 0.004819 -0.093600
v -0.059730 0.003331 -0.092562
v -0.050271 0.000995 -0.100253
v -0.050271 0.002810 -0.100218
v -0.053129 0.002810 -0.100218
v -0.053129 0.000995 -0.100253
v -0.050271 0.003627 -0.107849
v -0.050271 0.005074 -0.106754
v -0.053129 0.005074 -0.106754
v -0.053129 0.003627 -0.107849
v -0.050271 0.010221 -0.112447
v -0.050271 0.010748 -0.110711
v -0.053129 0.010748 -0.110711
v -0.053129 0.010221 -0.112447
v -0.050271 0.018258 -0.112292
v -0.050271 0.017664 -0.110577
v -0.053129 0.017664 -0.110577
v -0.053129 0.018258 -0.112292
v -0.050271 0.024669 -0.107441
v -0.050271 0.023181 -0.106403
v -0.053129 0.023181 -0.106403
v -0.053129 0.024669 -0.107441
v -0.050271 0.027005 -0.099749
v -0.050271 0.025190 -0.099784
v -0.053129 0.025190 -0.099784
v -0.053129 0.027005 -0.099749
v -0.050271 0.024373 -0.092153
v -0.050271 0.022926 -0.093248
v -0.053129 0.022926 -0.093248
v -0.053129 0.024373 -0.092153
v -0.050271 0.017779 -0.087555
v -0.050271 0.017252 -0.089291
v -0.053129 0.017252 -0.089291
v -0.053129 0.017779 -0.087555
v -0.050271 0.009742 -0.087710
v -0.050271 0.010336 -0.089425
v -0.053129 0.010336 -0.089425
v -0.053129 0.009742 -0.087710
v -0.050271 0.003331 -0.092561
v -0.050271 0.004819 -0.093599
v -0.053129 0.004819 -0.093599
v -0.053129 0.003331 -0.092561
v 0.053128 0.000995 -0.100254
v 0.053128 0.002810 -0.100219
v 0.050270 0.002810 -0.100219
v 0.050270 0.000995 -0.100254
v 0.053128 0.003627 -0.107850
v 0.053128 0.005074 -0.106755
v 0.050270 0.005074 -0.106755
v 0.050270 0.003627 -0.107850
v 0.053128 0.010221 -0.112448
v 0.053128 0.010748 -0.110712
v 0.050270 0.010748 -0.110712
v 0.050270 0.010221 -0.112448
v 0.053128 0.018258 -0.112293
v 0.053128 0.017664 -0.110578
v 0.050270 0.017664 -0.110578
v 0.050270 0.018258 -0.112293
v 0.053128 0.024669 -0.107442
v 0.053128 0.023181 -0.106404
v 0.050270 0.023181 -0.106404
v 0.050270 0.024669 -0.107442
v 0.053128 0.027005 -0.099750
v 0.053128 0.025190 -0.099785
v 0.050270 0.025190 -0.099785
v 0.050270 0.027005 -0.099750
v 0.053128 0.024373 -0.092154
v 0.053128 0.022926 -0.093249
v 0.050270 0.022926 -0.093249
v 0.050270 0.024373 -0.092154
v 0.053128 0.017779 -0.087556
v 0.053128 0.017252 -0.089292
v 0.050270 0.017252 -0.089292
v 0.050270 0.017779 -0.087556
v 0.053128 0.009742 -0.087711
v 0.053128 0.010336 -0.089426
v 0.050270 0.010336 -0.089426
v 0.050270 0.009742 -0.087711
v 0.053128 0.003331 -0.092562
v 0.053128 0.004819 -0.093600
v 0.050270 0.004819 -0.093600
v 0.050270 0.003331 -0.092562
v 0.059729 0.000995 -0.100253
v 0.059729 0.002810 -0.100218
v 0.056871 0.002810 -0.100218
v 0.056871 0.000995 -0.100253
v 0.059729 0.003627 -0.107849
v 0.059729 0.005074 -0.106754
v 0.056871 0.005074 -0.106754
v 0.056871 0.003627 -0.107849
v 0.059729 0.010221 -0.112447
v 0.059729 0.010748 -0.110711
v 0.056871 0.010748 -0.110711
v 0.056871 0.010221 -0.112447
v 0.059729 0.018258 -0.112292
v 0.059729 0.017664 -0.110577
v 0.056871 0.017664 -0.110577
v 0.056871 0.018258 -0.112292
v 0.059729 0.024669 -0.107441
v 0.059729 0.023181 -0.106403
v 0.056871 0.023181 -0.106403
v 0.056871 0.024669 -0.107441
v 0.059729 0.027005 -0.099749
v 0.059729 0.025190 -0.099784
v 0.056871 0.025190 -0.099784
v 0.056871 0.027005 -0.099749
v 0.059729 0.024373 -0.092153
v 0.059729 0.022926 -0.093248
v 0.056871 0.022926 -0.093248
v 0.056871 0.024373 -0.092153
v 0.059729 0.017779 -0.087555
v 0.059729 0.017252 -0.089291
v 0.056871 0.017252 -0.089291
v 0.056871 0.017779 -0.087555
v 0.059729 0.009742 -0.087710
v 0.059729 0.010336 -0.089425
v 0.056871 0.010336 -0.089425
v 0.056871 0.009742 -0.087710
v 0.059729 0.003331 -0.092561
v 0.059729 0.004819 -0.093599
v 0.056871 0.004819 -0.093599
v 0.056871 0.003331 -0.092561
v 0.009128 0.000995 -0.100254
v 0.009128 0.002810 -0.100219
v 0.006270 0.002810 -0.100219
v 0.006270 0.000995 -0.100254
v 0.009128 0.003627 -0.107850
v 0.009128 0.005074 -0.106755
v 0.006270 0.005074 -0.106755
v 0.006270 0.003627 -0.107850
v 0.009128 0.010221 -0.112448
v 0.009128 0.010748 -0.110712
v 0.006270 0.010748 -0.110712
v 0.006270 0.010221 -0.112448
v 0.009128 0.018258 -0.112293
v 0.009128 0.017664 -0.110578
v 0.006270 0.017664 -0.110578
v 0.006270 0.018258 -0.112293
v 0.009128 0.024669 -0.107442
v 0.009128 0.023181 -0.106404
v 0.006270 0.023181 -0.106404
v 0.006270 0.024669 -0.107442
v 0.009128 0.027005 -0.099750
v 0.009128 0.025190 -0.099785
v 0.006270 0.025190 -0.099785
v 0.006270 0.027005 -0.099750
v 0.009128 0.024373 -0.092154
v 0.009128 0.022926 -0.093249
v 0.006270 0.022926 -0.093249
v 0.006270 0.024373 -0.092154
v 0.009128 0.017779 -0.087556
v 0.009128 0.017252 -0.089292
v 0.006270 0.017252 -0.089292
v 0.006270 0.017779 -0.087556
v 0.009128 0.009742 -0.087711
v 0.009128 0.010336 -0.089426
v 0.006270 0.010336 -0.089426
v 0.006270 0.009742 -0.087711
v 0.009128 0.003331 -0.092562
v 0.009128 0.004819 -0.093600
v 0.006270 0.004819 -0.093600
v 0.006270 0.003331 -0.092562
v 0.015729 0.000995 -0.100253
v 0.015729 0.002810 -0.100218
v 0.012871 0.002810 -0.100218
v 0.012871 0.000995 -0.100253
v 0.015729 0.003627 -0.107849
v 0.015729 0.005074 -0.106754
v 0.012871 0.005074 -0.106754
v 0.012871 0.003627 -0.107849
v 0.015729 0.010221 -0.112447
v 0.015729 0.010748 -0.110711
v 0.012871 0.010748 -0.110711
v 0.012871 0.010221 -0.112447
v 0.015729 0.018258 -0.112292
v 0.015729 0.017664 -0.110577
v 0.012871 0.017664 -0.110577
v 0.012871 0.018258 -0.112292
v 0.015729 0.024669 -0.107441
v 0.015729 0.023181 -0.106403
v 0.012871 0.023181 -0.106403
v 0.012871 0.024669 -0.107441
v 0.015729 0.027005 -0.099749
v 0.015729 0.025190 -0.099784
v 0.012871 0.025190 -0.099784
v 0.012871 0.027005 -0.099749
v 0.015729 0.024373 -0.092153
v 0.015729 0.022926 -0.093248
v 0.012871 0.022926 -0.093248
v 0.012871 0.024373 -0.092153
v 0.015729 0.017779 -0.087555
v 0.015729 0.017252 -0.089291
v 0.012871 0.017252 -0.089291
v 0.012871 0.017779 -0.087555
v 0.015729 0.009742 -0.087710
v 0.015729 0.010336 -0.089425
v 0.012871 0.010336 -0.089425
v 0.012871 0.009742 -0.087710
v 0.015729 0.003331 -0.092561
v 0.015729 0.004819 -0.093599
v 0.012871 0.004819 -0.093599
v 0.012871 0.003331 -0.092561
v 0.031128 0.000995 -0.100254
v 0.031128 0.002810 -0.100219
v 0.028270 0.002810 -0.100219
v 0.028270 0.000995 -0.100254
v 0.031128 0.003627 -0.107850
v 0.031128 0.005074 -0.106755
v 0.028270 0.005074 -0.106755
v 0.028270 0.003627 -0.107850
v 0.031128 0.010221 -0.112448
v 0.031128 0.010748 -0.110712
v 0.028270 0.010748 -0.110712
v 0.028270 0.010221 -0.112448
v 0.031128 0.018258 -0.112293
v 0.031128 0.017664 -0.110578
v 0.028270 0.017664 -0.110578
v 0.028270 0.018258 -0.112293
v 0.031128 0.024669 -0.107442
v 0.031128 0.023181 -0.106404
v 0.028270 0.023181 -0.106404
v 0.028270 0.024669 -0.107442
v 0.031128 0.027005 -0.099750
v 0.031128 0.025190 -0.099785
v 0.028270 0.025190 -0.099785
v 0.028270 0.027005 -0.099750
v 0.031128 0.024373 -0.092154
v 0.031128 0.022926 -0.093249
v 0.028270 0.022926 -0.093249
v 0.028270 0.024373 -0.092154
v 0.031128 0.017779 -0.087556
v 0.031128 0.017252 -0.089292
v 0.028270 0.017252 -0.089292
v 0.028270 0.017779 -0.087556
v 0.031128 0.009742 -0.087711
v 0.031128 0.010336 -0.089426
v 0.028270 0.010336 -0.089426
v 0.028270 0.009742 -0.087711
v 0.031128 0.003331 -0.092562
v 0.031128 0.004819 -0.093600
v 0.028270 0.004819 -0.093600
v 0.028270 0.003331 -0.092562
v 0.037728 0.000995 -0.100253
v 0.037728 0.002810 -0.100218
v 0.034870 0.002810 -0.100218
v 0.034870 0.000995 -0.100253
v 0.037728 0.003627 -0.107849
v 0.037728 0.005074 -0.106754
v 0.034870 0.005074 -0.106754
v 0.034870 0.003627 -0.107849
v 0.037728 0.010221 -0.112447
v 0.037728 0.010748 -0.110711
v 0.034870 0.010748 -0.110711
v 0.034870 0.010221 -0.112447
v 0.037728 0.018258 -0.112292
v 0.037728 0.017664 -0.110577
v 0.034870 0.017664 -0.110577
v 0.034870 0.018258 -0.112292
v 0.037728 0.024669 -0.107441
v 0.037728 0.023181 -0.106403
v 0.034870 0.023181 -0.106403
v 0.034870 0.024669 -0.107441
v 0.037728 0.027005 -0.099749
v 0.037728 0.025190 -0.099784
v 0.034870 0.025190 -0.099784
v 0.034870 0.027005 -0.099749
v 0.037728 0.024373 -0.092153
v 0.037728 0.022926 -0.093248
v 0.034870 0.022926 -0.093248
v 0.034870 0.024373 -0.092153
v 0.037728 0.017779 -0.087555
v 0.037728 0.017252 -0.089291
v 0.034870 0.017252 -0.089291
v 0.034870 0.017779 -0.087555
v 0.037728 0.009742 -0.087710
v 0.037728 0.010336 -0.089425
v 0.034870 0.010336 -0.089425
v 0.034870 0.009742 -0.087710
v 0.037728 0.003331 -0.092561
v 0.037728 0.004819 -0.093599
v 0.034870 0.004819 -0.093599
v 0.034870 0.003331 -0.092561
v -0.034872 0.000995 -0.100254
v -0.034872 0.002810 -0.100219
v -0.037730 0.002810 -0.100219
v -0.037730 0.000995 -0.100254
v -0.034872 0.003627 -0.107850
v -0.034872 0.005074 -0.106755
v -0.037730 0.005074 -0.106755
v -0.037730 0.003627 -0.107850
v -0.034872 0.010221 -0.112448
v -0.034872 0.010748 -0.110712
v -0.037730 0.010748 -0.110712
v -0.037730 0.010221 -0.112448
v -0.034872 0.018258 -0.112293
v -0.034872 0.017664 -0.110578
v -0.037730 0.017664 -0.110578
v -0.037730 0.018258 -0.112293
v -0.034872 0.024669 -0.107442
v -0.034872 0.023181 -0.106404
v -0.037730 0.023181 -0.106404
v -0.037730 0.024669 -0.107442
v -0.034872 0.027005 -0.099750
v -0.034872 0.025190 -0.099785
v -0.037730 0.025190 -0.099785
v -0.037730 0.027005 -0.099750
v -0.034872 0.024373 -0.092154
v -0.034872 0.022926 -0.093249
v -0.037730 0.022926 -0.093249
v -0.037730 0.024373 -0.092154
v -0.034872 0.017779 -0.087556
v -0.034872 0.017252 -0.089292
v -0.037730 0.017252 -0.089292
v -0.037730 0.017779 -0.087556
v -0.034872 0.009742 -0.087711
v -0.034872 0.010336 -0.089426
v -0.037730 0.010336 -0.089426
v -0.037730 0.009742 -0.087711
v -0.034872 0.003331 -0.092562
v -0.034872 0.004819 -0.093600
v -0.037730 0.004819 -0.093600
v -0.037730 0.003331 -0.092562
v -0.028272 0.000995 -0.100253
v -0.028272 0.002810 -0.100218
v -0.031130 0.002810 -0.100218
v -0.031130 0.000995 -0.100253
v -0.028272 0.003627 -0.107849
v -0.028272 0.005074 -0.106754
v -0.031130 0.005074 -0.106754
v -0.031130 0.003627 -0.107849
v -0.028272 0.010221 -0.112447
v -0.028272 0.010748 -0.110711
v -0.031130 0.010748 -0.110711
v -0.031130 0.010221 -0.112447
v -0.028272 0.018258 -0.112292
v -0.028272 0.017664 -0.110577
v -0.031130 0.017664 -0.110577
v -0.031130 0.018258 -0.112292
v -0.028272 0.024669 -0.107441
v -0.028272 0.023181 -0.106403
v -0.031130 0.023181 -0.106403
v -0.031130 0.024669 -0.107441
v -0.028272 0.027005 -0.099749
v -0.028272 0.025190 -0.099784
v -0.031130 0.025190 -0.099784
v -0.031130 0.027005 -0.099749
v -0.028272 0.024373 -0.092153
v -0.028272 0.022926 -0.093248
v -0.031130 0.022926 -0.093248
v -0.031130 0.024373 -0.092153
v -0.028272 0.017779 -0.087555
v -0.028272 0.017252 -0.089291
v -0.031130 0.017252 -0.089291
v -0.031130 0.017779 -0.087555
v -0.028272 0.009742 -0.087710
v -0.028272 0.010336 -0.089425
v -0.031130 0.010336 -0.089425
v -0.031130 0.009742 -0.087710
v -0.028272 0.003331 -0.092561
v -0.028272 0.004819 -0.093599
v -0.031130 0.004819 -0.093599
v -0.031130 0.003331 -0.092561
v -0.012872 0.000995 -0.100254
v -0.012872 0.002810 -0.100219
v -0.015730 0.002810 -0.100219
v -0.015730 0.000995 -0.100254
v -0.012872 0.003627 -0.107850
v -0.012872 0.005074 -0.106755
v -0.015730 0.005074 -0.106755
v -0.015730 0.003627 -0.107850
v -0.012872 0.010221 -0.112448
v -0.012872 0.010748 -0.110712
v -0.015730 0.010748 -0.110712
v -0.015730 0.010221 -0.112448
v -0.012872 0.018258 -0.112293
v -0.012872 0.017664 -0.110578
v -0.015730 0.017664 -0.110578
v -0.015730 0.018258 -0.112293
v -0.012872 0.024669 -0.107442
v -0.012872 0.023181 -0.106404
v -0.015730 0.023181 -0.106404
v -0.015730 0.024669 -0.107442
v -0.012872 0.027005 -0.099750
v -0.012872 0.025190 -0.099785
v -0.015730 0.025190 -0.099785
v -0.015730 0.027005 -0.099750
v -0.012872 0.024373 -0.092154
v -0.012872 0.022926 -0.093249
v -0.015730 0.022926 -0.093249
v -0.015730 0.024373 -0.092154
v -0.012872 0.017779 -0.087556
v -0.012872 0.017252 -0.089292
v -0.015730 0.017252 -0.089292
v -0.015730 0.017779 -0.087556
v -0.012872 0.009742 -0.087711
v -0.012872 0.010336 -0.089426
v -0.015730 0.010336 -0.089426
v -0.015730 0.009742 -0.087711
v -0.012872 0.003331 -0.092562
v -0.012872 0.004819 -0.093600
v -0.015730 0.004819 -0.093600
v -0.015730 0.003331 -0.092562
v -0.006272 0.000995 -0.100253
v -0.006272 0.002810 -0.100218
v -0.009130 0.002810 -0.100218
v -0.009130 0.000995 -0.100253
v -0.006272 0.003627 -0.107849
v -0.006272 0.005074 -0.106754
v -0.009130 0.005074 -0.106754
v -0.009130 0.003627 -0.107849
v -0.006272 0.010221 -0.112447
v -0.006272 0.010748 -0.110711
v -0.009130 0.010748 -0.110711
v -0.009130 0.010221 -0.112447
v -0.006272 0.018258 -0.112292
v -0.006272 0.017664 -0.110577
v -0.009130 0.017664 -0.110577
v -0.009130 0.018258 -0.112292
v -0.006272 0.024669 -0.107441
v -0.006272 0.023181 -0.106403
v -0.009130 0.023181 -0.106403
v -0.009130 0.024669 -0.107441
v -0.006272 0.027005 -0.099749
v -0.006272 0.025190 -0.099784
v -0.009130 0.025190 -0.099784
v -0.009130 0.027005 -0.099749
v -0.006272 0.024373 -0.092153
v -0.006272 0.022926 -0.093248
v -0.009130 0.022926 -0.093248
v -0.009130 0.024373 -0.092153
v -0.006272 0.017779 -0.087555
v -0.006272 0.017252 -0.089291
v -0.009130 0.017252 -0.089291
v -0.009130 0.017779 -0.087555
v -0.006272 0.009742 -0.087710
v -0.006272 0.010336 -0.089425
v -0.009130 0.010336 -0.089425
v -0.009130 0.009742 -0.087710
v -0.006272 0.003331 -0.092561
v -0.006272 0.004819 -0.093599
v -0.009130 0.004819 -0.093599
v -0.009130 0.003331 -0.092561
v -0.073700 0.004697 0.096189
v -0.067635 0.004580 0.102255
v -0.067633 0.008501 -0.100107
v -0.073700 0.008383 -0.094041
v 0.067633 0.004580 0.102255
v 0.073701 0.004697 0.096189
v 0.073700 0.008383 -0.094041
v 0.067635 0.008501 -0.100107
v -0.073700 0.015695 0.096402
v -0.067635 0.015578 0.102468
v -0.067633 0.019499 -0.099894
v -0.073700 0.019381 -0.093828
v 0.073700 0.015695 0.096402
v 0.067633 0.015578 0.102468
v 0.067633 0.019499 -0.099894
v 0.073700 0.019381 -0.093828
v -0.073700 0.018994 0.096488
v -0.067657 0.018877 0.102532
v -0.067654 0.022798 -0.099830
v -0.073700 0.022681 -0.093786
v 0.067655 0.018877 0.102532
v 0.073700 0.018994 0.096488
v 0.073700 0.022681 -0.093786
v 0.067655 0.022798 -0.099830
v -0.073700 0.001397 0.096147
v -0.067657 0.001280 0.102191
v -0.073700 0.005085 -0.094126
v -0.067654 0.005202 -0.100171
v 0.067655 0.001280 0.102191
v 0.073700 0.001397 0.096147
v 0.067655 0.005202 -0.100171
v 0.073700 0.005085 -0.094126
v -0.071500 0.004740 0.093969
v -0.065412 0.004622 0.100056
v -0.071500 0.015738 0.094182
v -0.065414 0.015620 0.100269
v -0.065412 0.008458 -0.097907
v -0.071502 0.008340 -0.091821
v -0.065412 0.019456 -0.097694
v -0.071502 0.019338 -0.091607
v 0.065412 0.004622 0.100056
v 0.071502 0.004740 0.093969
v 0.071500 0.015738 0.094182
v 0.065412 0.015620 0.100269
v 0.071500 0.008340 -0.091821
v 0.065414 0.008458 -0.097907
v 0.071500 0.019338 -0.091607
v 0.065414 0.019456 -0.097694
vn -0.0000 -0.8203 0.5720
vn -0.0000 -0.9998 -0.0194
vn 1.0000 -0.0000 -0.0000
vn -0.0000 -0.7975 -0.6033
vn -0.0000 -0.2905 -0.9569
vn -1.0000 -0.0000 -0.0000
vn -0.0000 0.7975 0.6033
vn -0.0000 0.5720 0.8203
vn -0.0000 0.3274 -0.9449
vn -0.0000 0.6033 -0.7975
vn -0.0000 0.8203 -0.5720
vn -0.0000 -0.3274 0.9449
vn -0.0000 -0.5720 -0.8203
vn -0.0000 0.9998 0.0194
vn -0.7837 -0.6210 -0.0120
vn -0.7837 -0.5095 0.3553
vn -0.0000 0.2905 0.9569
vn -0.0000 -0.6033 0.7975
vn -0.7837 0.6210 0.0120
vn -0.7837 0.4953 0.3748
vn -0.7837 -0.2033 0.5869
vn -0.7837 -0.4953 -0.3748
vn -0.7682 -0.3662 -0.5251
vn -0.7682 0.3862 -0.5105
vn -0.7837 0.5095 -0.3553
vn -0.7837 0.1805 0.5943
vn 0.7070 -0.0136 0.7070
vn 1.0000 0.0001 -0.0000
vn -0.0000 -0.0194 0.9998
vn -0.7070 0.0137 -0.7071
vn -0.7072 -0.0138 0.7069
vn -0.0000 0.0194 -0.9998
vn 0.7072 0.0137 -0.7069
vn 0.7072 0.0181 -0.7068
vn -0.7072 -0.0184 0.7067
vn -1.0000 -0.0001 -0.0000
vn 1.0000 -0.0002 -0.0000
vn -1.0000 0.0001 -0.0000
vn -0.7072 -0.0090 0.7069
vn 0.7071 -0.0092 0.7071
vn 0.7071 0.0090 -0.7071
vn 0.7071 -0.0183 0.7069
vn -0.7071 0.0091 -0.7071
vn -0.7071 0.0183 -0.7069
vt -0.115053 0.702357
vt -0.118110 0.702357
vt -0.118110 0.710534
vt -0.115053 0.710534
vt -0.082101 0.738074
vt -0.077753 0.744059
vt -0.078894 0.745630
vt -0.083948 0.738674
vt -0.232700 0.723120
vt -0.235757 0.723120
vt -0.235757 0.730076
vt -0.232700 0.730076
vt -0.138583 0.723120
vt -0.141640 0.723120
vt -0.141640 0.730076
vt -0.138583 0.730076
vt -0.070716 0.720463
vt -0.070716 0.722404
vt -0.063680 0.724691
vt -0.062539 0.723120
vt -0.209171 0.745630
vt -0.212228 0.745630
vt -0.212228 0.738674
vt -0.209171 0.738674
vt -0.115053 0.738674
vt -0.115053 0.730076
vt -0.118110 0.730076
vt -0.118110 0.738674
vt -0.212228 0.730676
vt -0.209171 0.730676
vt -0.209171 0.724691
vt -0.212228 0.724691
vt -0.141640 0.717570
vt -0.138583 0.717570
vt -0.138583 0.710534
vt -0.141640 0.710534
vt -0.059331 0.730676
vt -0.057485 0.730076
vt -0.165169 0.738074
vt -0.162112 0.738074
vt -0.162112 0.744059
vt -0.165169 0.744059
vt -0.107994 0.738674
vt -0.111051 0.738674
vt -0.111051 0.745630
vt -0.107994 0.745630
vt -0.059331 0.738074
vt -0.057485 0.738674
vt -0.062539 0.745630
vt -0.063680 0.744059
vt -0.155053 0.738674
vt -0.155053 0.745630
vt -0.158110 0.745630
vt -0.158110 0.738674
vt -0.111051 0.744059
vt -0.107994 0.744059
vt -0.107994 0.738074
vt -0.111051 0.738074
vt -0.070716 0.746346
vt -0.070716 0.748287
vt -0.225641 0.710533
vt -0.228698 0.710533
vt -0.228698 0.702356
vt -0.225641 0.702356
vt -0.131524 0.717569
vt -0.131524 0.710533
vt -0.134581 0.710533
vt -0.134581 0.717569
vt -0.115053 0.724691
vt -0.115053 0.730676
vt -0.118110 0.730676
vt -0.118110 0.724691
vt -0.111051 0.710533
vt -0.111051 0.717569
vt -0.107994 0.717569
vt -0.107994 0.710533
vt -0.232700 0.730676
vt -0.232700 0.724691
vt -0.235757 0.724691
vt -0.235757 0.730676
vt -0.162112 0.730076
vt -0.165169 0.730076
vt -0.165169 0.723120
vt -0.162112 0.723120
vt -0.205169 0.703497
vt -0.202112 0.703497
vt -0.202112 0.710533
vt -0.205169 0.710533
vt -0.077752 0.744059
vt -0.078893 0.745630
vt -0.232700 0.738074
vt -0.235757 0.738074
vt -0.232700 0.745630
vt -0.235757 0.745630
vt -0.235757 0.738674
vt -0.232700 0.738674
vt -0.118110 0.738074
vt -0.115053 0.738074
vt -0.115053 0.744059
vt -0.118110 0.744059
vt -0.062540 0.723120
vt -0.070717 0.720463
vt -0.070717 0.722404
vt -0.063681 0.724691
vt -0.209171 0.710534
vt -0.212228 0.710534
vt -0.212228 0.702357
vt -0.209171 0.702357
vt -0.155053 0.710533
vt -0.158110 0.710533
vt -0.158110 0.702356
vt -0.155053 0.702356
vt -0.235757 0.744059
vt -0.232700 0.744059
vt -0.078893 0.723120
vt -0.077752 0.724691
vt -0.202112 0.702356
vt -0.205169 0.702356
vt -0.082101 0.730676
vt -0.083947 0.730076
vt -0.155053 0.718710
vt -0.158110 0.718710
vt -0.225641 0.717569
vt -0.228698 0.717569
vt -0.115053 0.718711
vt -0.118110 0.718711
vt -0.212228 0.703498
vt -0.209171 0.703498
vt -0.209171 0.717570
vt -0.212228 0.717570
vt -0.118110 0.717570
vt -0.115053 0.717570
vt -0.165169 0.703498
vt -0.162112 0.703498
vt -0.162112 0.710534
vt -0.165169 0.710534
vt -0.202112 0.723120
vt -0.205169 0.723120
vt -0.205169 0.730076
vt -0.202112 0.730076
vt -0.178583 0.710533
vt -0.178583 0.702356
vt -0.181640 0.702356
vt -0.181640 0.710533
vt -0.078894 0.723120
vt -0.083948 0.730076
vt -0.082101 0.730676
vt -0.077753 0.724691
vt -0.158110 0.730676
vt -0.155053 0.730676
vt -0.155053 0.738074
vt -0.158110 0.738074
vt -0.131524 0.730076
vt -0.134581 0.730076
vt -0.134581 0.723120
vt -0.131524 0.723120
vt -0.057486 0.730076
vt -0.059332 0.730676
vt -0.205169 0.738674
vt -0.202112 0.738674
vt -0.181640 0.730676
vt -0.178583 0.730676
vt -0.178583 0.724691
vt -0.181640 0.724691
vt -0.107994 0.730676
vt -0.107994 0.724691
vt -0.111051 0.724691
vt -0.111051 0.730676
vt -0.131524 0.745630
vt -0.131524 0.738674
vt -0.134581 0.738674
vt -0.134581 0.745630
vt -0.202112 0.745630
vt -0.205169 0.745630
vt -0.155053 0.744059
vt -0.158110 0.744059
vt -0.057486 0.738674
vt -0.059332 0.738074
vt -0.202112 0.738074
vt -0.202112 0.744059
vt -0.205169 0.744059
vt -0.205169 0.738074
vt -0.062540 0.745630
vt -0.063681 0.744059
vt -0.178583 0.703497
vt -0.181640 0.703497
vt -0.077753 0.744059
vt -0.225641 0.730076
vt -0.228698 0.730076
vt -0.228698 0.738674
vt -0.225641 0.738674
vt -0.165169 0.730676
vt -0.165169 0.724691
vt -0.162112 0.724691
vt -0.162112 0.730676
vt -0.178583 0.738674
vt -0.181640 0.738674
vt -0.181640 0.745630
vt -0.178583 0.745630
vt -0.155053 0.723120
vt -0.158110 0.723120
vt -0.158110 0.730076
vt -0.155053 0.730076
vt -0.205169 0.730676
vt -0.202112 0.730676
vt -0.070717 0.748287
vt -0.070717 0.746346
vt -0.131524 0.718710
vt -0.134581 0.718710
vt -0.115053 0.703498
vt -0.118110 0.703498
vt -0.235757 0.717570
vt -0.235757 0.710534
vt -0.232700 0.710534
vt -0.232700 0.717570
vt -0.141640 0.702357
vt -0.138583 0.702357
vt -0.134581 0.730676
vt -0.131524 0.730676
vt -0.131524 0.724691
vt -0.134581 0.724691
vt -0.107994 0.730076
vt -0.111051 0.730076
vt -0.111051 0.723120
vt -0.107994 0.723120
vt -0.209171 0.730076
vt -0.209171 0.723120
vt -0.212228 0.723120
vt -0.212228 0.730076
vt -0.209171 0.738074
vt -0.209171 0.744059
vt -0.212228 0.744059
vt -0.212228 0.738074
vt -0.188699 0.730676
vt -0.188699 0.724691
vt -0.185642 0.724691
vt -0.185642 0.730676
vt -0.185642 0.710534
vt -0.185642 0.717570
vt -0.188699 0.717570
vt -0.188699 0.710534
vt -0.141640 0.738674
vt -0.138583 0.738674
vt -0.138583 0.703498
vt -0.141640 0.703498
vt -0.141640 0.745630
vt -0.138583 0.745630
vt -0.209171 0.718711
vt -0.212228 0.718711
vt -0.181640 0.738074
vt -0.178583 0.738074
vt -0.178583 0.744059
vt -0.181640 0.744059
vt -0.235757 0.710534
vt -0.235757 0.702357
vt -0.232700 0.702357
vt -0.115053 0.745630
vt -0.118110 0.745630
vt -0.158110 0.717569
vt -0.155053 0.717569
vt -0.162112 0.717570
vt -0.165169 0.717570
vt -0.228698 0.703497
vt -0.225641 0.703497
vt -0.225641 0.710533
vt -0.185642 0.730076
vt -0.188699 0.730076
vt -0.188699 0.738674
vt -0.185642 0.738674
vt -0.082101 0.738074
vt -0.083947 0.738674
vt -0.138583 0.724691
vt -0.138583 0.730676
vt -0.141640 0.730676
vt -0.141640 0.724691
vt -0.107994 0.702356
vt -0.111051 0.702356
vt -0.205169 0.718710
vt -0.202112 0.718710
vt -0.232700 0.703498
vt -0.235757 0.703498
vt -0.235757 0.703498
vt -0.235757 0.717570
vt -0.131524 0.744059
vt -0.131524 0.738074
vt -0.134581 0.738074
vt -0.134581 0.744059
vt -0.228698 0.730676
vt -0.225641 0.730676
vt -0.225641 0.738074
vt -0.228698 0.738074
vt -0.188699 0.718711
vt -0.185642 0.718711
vt -0.225641 0.723120
vt -0.228698 0.723120
vt -0.063681 0.744059
vt -0.228698 0.724691
vt -0.225641 0.724691
vt -0.225641 0.744059
vt -0.228698 0.744059
vt -0.178583 0.730076
vt -0.181640 0.730076
vt -0.178583 0.718710
vt -0.181640 0.718710
vt -0.138583 0.744059
vt -0.138583 0.738074
vt -0.141640 0.738074
vt -0.141640 0.744059
vt -0.228698 0.745630
vt -0.225641 0.745630
vt -0.141640 0.718711
vt -0.138583 0.718711
vt -0.165169 0.718711
vt -0.162112 0.718711
vt -0.162112 0.738674
vt -0.165169 0.738674
vt -0.165169 0.745630
vt -0.162112 0.745630
vt -0.111051 0.703497
vt -0.107994 0.703497
vt -0.185642 0.723120
vt -0.188699 0.723120
vt -0.205169 0.717569
vt -0.202112 0.717569
vt -0.185642 0.702357
vt -0.188699 0.702357
vt -0.202112 0.702356
vt -0.205169 0.702356
vt -0.181640 0.702356
vt -0.178583 0.702356
vt -0.235757 0.702357
vt -0.134581 0.703497
vt -0.131524 0.703497
vt -0.131524 0.702356
vt -0.134581 0.702356
vt -0.188699 0.703498
vt -0.185642 0.703498
vt -0.205169 0.724691
vt -0.202112 0.724691
vt -0.178583 0.723120
vt -0.181640 0.723120
vt -0.178583 0.717569
vt -0.181640 0.717569
vt -0.134581 0.702356
vt -0.131524 0.702356
vt -0.232700 0.718711
vt -0.235757 0.718711
vt -0.162112 0.702357
vt -0.165169 0.702357
vt -0.115053 0.723120
vt -0.118110 0.723120
vt -0.107994 0.718710
vt -0.111051 0.718710
vt -0.225641 0.718710
vt -0.228698 0.718710
vt -0.107994 0.702356
vt -0.111051 0.702356
vt -0.188699 0.744059
vt -0.188699 0.738074
vt -0.185642 0.738074
vt -0.185642 0.744059
vt -0.225641 0.702356
vt -0.228698 0.702356
vt -0.155053 0.702356
vt -0.158110 0.702356
vt -0.158110 0.724691
vt -0.155053 0.724691
vt -0.155053 0.703497
vt -0.158110 0.703497
vt -0.225641 0.718710
vt -0.188699 0.745630
vt -0.185642 0.745630
vt 0.495607 0.159624
vt 0.495607 0.962576
vt 0.530190 0.962576
vt 0.530190 0.159624
vt 0.529416 0.244372
vt 0.530190 0.278453
vt 0.495607 0.278453
vt 0.495607 0.246691
vt 0.495607 0.843748
vt 0.530190 0.843748
vt 0.495607 0.875510
vt 0.529416 0.877829
vt 0.495607 0.994328
vt 0.529416 0.996647
vt 0.529416 0.125554
vt 0.495607 0.127873
vt 0.480422 0.951705
vt 0.478560 0.984889
vt 0.470021 0.983254
vt 0.470047 0.951611
vt 0.998354 0.971884
vt 0.534940 0.971884
vt 0.534940 0.149553
vt 0.998354 0.149553
vt 0.478607 0.096155
vt 0.470073 0.097845
vt 0.470047 0.129374
vt 0.480422 0.129469
vt 0.000914 0.149553
vt 0.019921 0.123430
vt 0.445322 0.123430
vt 0.464329 0.149553
vt 0.464329 0.971790
vt 0.445254 0.998007
vt 0.019989 0.998007
vt 0.000914 0.971790
vt 0.481613 0.248203
vt 0.481613 0.832877
vt 0.491988 0.832783
vt 0.491988 0.248297
vt 0.464329 0.971884
vt 0.000914 0.971884
vt 0.464329 0.149647
vt 0.000914 0.149647
vt 0.019989 0.123430
vt 0.445254 0.123430
vt 0.445322 0.998007
vt 0.019921 0.998007
vt 0.480422 0.129374
vt 0.470047 0.129469
vt 0.481613 0.832783
vt 0.481613 0.248297
vt 0.491988 0.248203
vt 0.491988 0.832877
vt 0.480422 0.951611
vt 0.470047 0.951705
vt 0.979348 0.998007
vt 0.553946 0.998007
vt 0.553946 0.123430
vt 0.979348 0.123430
vt 0.470021 0.097826
vt 0.478560 0.096192
vt 0.490123 0.866063
vt 0.481587 0.864431
vt 0.478607 0.984925
vt 0.470073 0.983234
vt 0.490172 0.866103
vt 0.481639 0.864407
vt 0.490171 0.214976
vt 0.481639 0.216672
vt 0.481587 0.216648
vt 0.490123 0.215017
vt -0.235757 0.718711
s 1
usemtl notebook_1
f 518/373/6 513/374/6 515/375/6 520/376/6
f 523/377/27 524/378/27 521/379/27 522/380/27
f 522/374/28 525/373/28 527/376/28 523/375/28
f 514/381/29 521/379/29 524/378/29 516/382/29
f 518/383/30 520/384/30 519/382/30 517/381/30
f 513/374/31 514/385/31 516/386/31 515/375/31
f 526/379/32 517/381/32 519/382/32 528/378/32
f 528/387/33 527/376/33 525/373/33 526/388/33
f 512/389/34 511/390/34 488/391/34 487/392/34
f 507/393/2 512/394/2 510/395/2 505/396/2
f 490/397/35 498/398/35 497/399/35 489/400/35
f 497/401/14 498/402/14 501/403/14 502/404/14
f 487/405/14 488/406/14 483/407/14 484/408/14
f 499/409/32 504/410/32 495/411/32 491/412/32
f 495/406/2 496/405/2 492/408/2 491/407/2
f 503/413/14 500/414/14 497/401/14 502/404/14
f 486/415/14 481/416/14 482/417/14 485/418/14
f 496/405/2 493/415/2 489/416/2 492/408/2
f 504/419/14 499/420/14 500/414/14 503/413/14
f 484/392/36 507/389/36 505/421/36 481/422/36
f 494/418/2 490/417/2 489/416/2 493/415/2
f 485/423/29 482/424/29 506/425/29 509/426/29
f 496/427/28 503/428/28 502/399/28 493/400/28
f 510/421/37 512/389/37 487/392/37 486/422/37
f 508/429/2 511/430/2 512/394/2 507/393/2
f 511/426/32 508/425/32 483/424/32 488/423/32
f 510/395/2 509/431/2 506/432/2 505/396/2
f 497/399/38 500/428/38 492/427/38 489/400/38
f 482/433/39 481/422/39 505/421/39 506/434/39
f 509/426/40 510/435/40 486/436/40 485/423/40
f 495/437/41 504/438/41 503/428/41 496/427/41
f 501/410/29 498/409/29 490/412/29 494/411/29
f 501/410/42 494/411/42 493/439/42 502/440/42
f 499/409/43 491/412/43 492/441/43 500/442/43
f 484/443/44 483/424/44 508/425/44 507/444/44
f 484/408/14 481/416/14 486/415/14 487/405/14
usemtl metal_mp_1
f 117/1/1 120/2/1 84/3/2 81/4/2
f 470/5/3 466/6/3 465/7/3 469/8/3
f 5/9/4 8/10/4 12/11/5 9/12/5
f 245/13/4 248/14/4 252/15/5 249/16/5
f 244/17/6 243/18/6 247/19/6 248/20/6
f 345/21/7 348/22/7 352/23/8 349/24/8
f 93/25/9 89/26/5 92/27/5 96/28/9
f 355/29/10 354/30/10 358/31/11 359/32/11
f 259/33/1 258/34/1 262/35/2 263/36/2
f 10/37/3 6/19/3 5/20/3 9/38/3
f 175/39/12 174/40/12 178/41/1 179/42/1
f 133/43/9 136/44/9 140/45/11 137/46/11
f 334/47/3 333/48/3 337/49/3 338/50/3
f 229/51/8 225/52/7 228/53/7 232/54/8
f 147/55/4 146/56/4 150/57/13 151/58/13
f 262/59/3 258/50/3 257/49/3 261/60/3
f 61/61/14 64/62/14 68/63/7 65/64/7
f 298/65/1 302/66/2 303/67/15 299/68/16
f 404/17/6 403/18/6 407/19/6 408/20/6
f 86/69/7 90/70/17 91/71/17 87/72/7
f 14/47/3 13/48/3 17/49/3 18/50/3
f 143/73/2 139/74/1 138/75/1 142/76/2
f 34/77/10 38/78/11 39/79/11 35/80/10
f 182/59/3 178/50/3 177/49/3 181/60/3
f 193/81/18 196/82/18 200/83/1 197/84/1
f 33/12/18 36/11/18 40/10/1 37/9/1
f 100/49/6 99/50/6 103/59/6 104/60/6
f 101/4/14 104/3/14 108/2/7 105/1/7
f 399/85/11 398/86/11 362/87/14 363/88/14
f 344/60/6 343/59/6 347/89/6 348/90/6
f 10/77/17 14/91/12 15/92/12 11/80/17
f 424/60/6 423/59/6 427/89/6 428/90/6
f 25/93/7 28/94/7 32/95/8 29/96/8
f 95/97/12 94/98/12 98/99/1 99/100/1
f 288/101/6 284/102/6 283/103/19 287/104/20
f 341/105/14 344/106/14 348/107/7 345/108/7
f 221/109/14 224/110/14 228/111/7 225/112/7
f 19/113/1 15/92/12 14/91/12 18/114/1
f 200/115/6 199/116/6 163/18/6 164/17/6
f 361/87/2 397/117/1 400/118/1 364/88/2
f 38/116/3 34/119/3 33/120/3 37/115/3
f 217/121/11 220/122/11 224/110/14 221/109/14
f 58/123/1 62/61/2 63/62/2 59/124/1
f 191/39/13 187/42/4 186/41/4 190/40/13
f 97/125/11 100/126/11 104/3/14 101/4/14
f 323/106/14 359/127/11 358/128/11 322/105/14
f 402/18/3 438/116/3 437/115/3 401/17/3
f 338/129/1 342/105/2 343/106/2 339/130/1
f 87/131/7 83/3/14 82/4/14 86/132/7
f 280/115/6 279/116/6 243/18/6 244/17/6
f 199/133/11 198/134/11 162/135/14 163/136/14
f 365/137/4 368/138/4 372/139/5 369/140/5
f 128/101/6 124/102/6 123/103/6 127/104/6
f 441/141/2 477/142/1 480/143/1 444/144/2
f 80/145/6 76/146/6 75/147/6 79/148/6
f 211/149/17 210/150/17 214/151/12 215/152/12
f 313/153/18 316/154/18 320/155/1 317/156/1
f 126/104/3 125/101/3 129/157/3 130/158/3
f 369/140/5 372/139/5 376/159/9 373/160/9
f 475/161/10 474/162/10 478/163/11 479/164/11
f 364/102/6 400/145/6 399/148/6 363/103/6
f 154/165/10 158/166/11 159/167/11 155/168/10
f 297/169/11 293/170/9 296/171/9 300/172/11
f 42/103/3 41/102/3 45/101/3 46/104/3
f 389/160/8 385/173/7 388/174/7 392/159/8
f 215/152/12 214/151/12 218/175/1 219/176/1
f 50/158/3 49/157/3 53/177/3 54/178/3
f 286/104/3 285/101/3 289/157/3 290/158/3
f 342/105/2 346/128/4 347/127/4 343/106/2
f 374/179/12 378/180/1 379/181/1 375/182/12
f 140/183/6 136/177/6 135/178/6 139/184/6
f 309/170/8 305/169/7 308/172/7 312/171/8
f 462/141/2 466/185/4 467/186/4 463/144/2
f 66/187/3 65/7/3 69/8/3 70/5/3
f 446/163/7 450/162/17 451/161/17 447/164/7
f 49/188/5 52/189/5 56/190/9 53/191/9
f 171/192/17 167/193/7 166/194/7 170/195/17
f 453/196/9 456/197/9 460/198/11 457/199/11
f 20/49/6 16/48/6 15/47/6 19/50/6
f 205/200/4 208/201/4 212/202/5 209/203/5
f 371/204/17 370/205/17 374/179/12 375/182/12
f 144/206/6 143/207/6 147/187/6 148/7/6
f 297/208/11 300/209/11 304/67/14 301/66/14
f 300/183/6 296/177/6 295/178/21 299/184/16
f 465/199/7 468/198/7 472/197/8 469/196/8
f 102/4/2 106/210/4 107/211/4 103/3/2
f 308/7/6 307/187/22 311/5/23 312/8/6
f 127/167/7 126/166/7 130/165/17 131/168/17
f 281/66/2 284/67/2 288/209/4 285/208/4
f 48/101/6 44/102/6 43/103/6 47/104/6
f 139/55/1 135/58/12 134/57/12 138/56/1
f 394/147/3 393/146/3 397/145/3 398/148/3
f 7/212/7 3/213/14 2/214/14 6/215/7
f 386/6/3 382/207/3 381/206/3 385/7/3
f 261/35/14 264/36/14 268/216/7 265/217/7
f 124/102/6 160/145/6 159/148/6 123/103/6
f 315/218/24 314/219/10 318/220/11 319/221/25
f 153/222/18 156/223/18 160/224/1 157/225/1
f 326/19/3 322/18/3 321/17/3 325/20/3
f 329/226/5 325/227/4 328/228/4 332/229/5
f 324/17/6 323/18/6 327/19/6 328/20/6
f 334/230/12 338/231/1 339/232/1 335/233/12
f 250/37/3 246/19/3 245/20/3 249/38/3
f 411/234/17 407/235/7 406/236/7 410/237/17
f 402/238/14 406/239/7 407/240/7 403/241/14
f 330/37/3 326/19/3 325/20/3 329/38/3
f 249/16/5 252/15/5 256/242/9 253/243/9
f 254/47/3 250/37/3 249/38/3 253/48/3
f 262/35/2 266/244/4 267/245/4 263/36/2
f 174/47/3 170/37/3 169/38/3 173/48/3
f 253/243/9 256/242/9 260/246/11 257/247/11
f 337/248/11 340/249/11 344/106/14 341/105/14
f 174/47/3 173/48/3 177/49/3 178/50/3
f 247/33/7 243/36/14 242/35/14 246/34/7
f 285/156/4 288/155/4 292/154/5 289/153/5
f 414/47/3 413/48/3 417/49/3 418/50/3
f 455/250/12 454/251/12 458/252/1 459/253/1
f 21/214/14 24/254/14 28/255/7 25/256/7
f 420/49/6 416/48/6 415/47/6 419/50/6
f 105/257/7 108/258/7 112/28/8 109/25/8
f 223/110/2 219/259/1 218/260/1 222/109/2
f 180/49/6 179/50/6 183/59/6 184/60/6
f 178/261/1 182/135/2 183/136/2 179/262/1
f 171/192/17 170/195/17 174/40/12 175/39/12
f 186/89/3 182/59/3 181/60/3 185/90/3
f 335/233/12 331/29/17 330/30/17 334/230/12
f 79/263/11 78/264/11 42/265/14 43/62/14
f 24/60/6 23/59/6 27/89/6 28/90/6
f 241/35/2 277/217/1 280/216/1 244/36/2
f 409/266/5 412/267/5 416/268/9 413/269/9
f 430/270/3 426/89/3 425/90/3 429/271/3
f 331/29/17 327/32/7 326/31/7 330/30/17
f 246/272/7 250/273/17 251/274/17 247/275/7
f 188/90/6 187/89/6 191/270/6 192/271/6
f 130/158/3 129/157/3 133/177/3 134/178/3
f 157/276/1 160/277/1 124/73/2 121/76/2
f 142/207/3 138/184/3 137/183/3 141/206/3
f 361/87/2 364/88/2 368/278/4 365/279/4
f 2/18/3 38/116/3 37/115/3 1/17/3
f 217/52/11 213/51/9 216/54/9 220/53/11
f 346/231/4 350/230/13 351/233/13 347/232/4
f 198/116/3 194/119/3 193/120/3 197/115/3
f 22/214/2 26/280/4 27/281/4 23/254/2
f 60/183/6 59/184/6 63/207/6 64/206/6
f 39/282/11 38/280/11 2/214/14 3/213/14
f 360/115/6 359/116/6 323/18/6 324/17/6
f 19/283/1 18/215/1 22/214/2 23/254/2
f 306/284/4 310/285/13 311/286/23 307/287/22
f 440/115/6 439/116/6 403/18/6 404/17/6
f 51/288/17 50/289/17 54/290/12 55/291/12
f 240/145/6 236/146/6 235/147/6 239/148/6
f 401/238/2 404/241/2 408/292/4 405/293/4
f 122/103/3 121/102/3 125/101/3 126/104/3
f 131/168/17 130/165/17 134/57/12 135/58/12
f 77/294/1 73/188/18 76/189/18 80/295/1
f 380/183/6 376/177/6 375/178/6 379/296/6
f 294/285/12 298/284/1 299/287/16 295/286/21
f 47/297/7 46/298/7 50/289/17 51/288/17
f 46/104/3 45/101/3 49/157/3 50/158/3
f 42/265/14 46/123/7 47/124/7 43/62/14
f 373/160/9 376/159/9 380/174/11 377/173/11
f 290/158/3 289/157/3 293/177/3 294/178/3
f 54/290/12 58/299/1 59/300/1 55/291/12
f 337/21/11 333/24/9 336/23/9 340/22/11
f 296/177/6 292/157/6 291/158/26 295/178/21
f 93/25/9 96/28/9 100/258/11 97/257/11
f 372/157/6 368/101/6 367/104/6 371/158/6
f 417/293/11 420/292/11 424/241/14 421/238/14
f 453/196/9 449/301/5 452/302/5 456/197/9
f 446/104/3 445/101/3 449/157/3 450/158/3
f 283/67/19 282/66/14 286/65/7 287/68/20
f 295/286/21 291/218/26 290/219/17 294/285/12
f 304/206/6 303/207/15 307/187/22 308/7/6
f 13/96/9 9/12/5 12/11/5 16/95/9
f 10/37/3 9/38/3 13/48/3 14/47/3
f 321/105/2 324/106/2 328/249/4 325/248/4
f 457/303/11 460/304/11 464/144/14 461/141/14
f 310/5/3 306/187/3 305/7/3 309/8/3
f 266/305/4 270/306/13 271/307/13 267/308/4
f 300/183/6 299/184/16 303/207/15 304/206/6
f 53/191/9 56/190/9 60/309/11 57/310/11
f 241/35/2 244/36/2 248/311/4 245/312/4
f 161/135/2 164/136/2 168/313/4 165/314/4
f 173/315/9 176/316/9 180/317/11 177/318/11
f 466/252/4 470/251/13 471/250/13 467/253/4
f 400/145/6 396/146/6 395/147/6 399/148/6
f 67/263/4 63/62/2 62/61/2 66/264/4
f 474/147/3 473/146/3 477/145/3 478/148/3
f 147/319/4 143/73/2 142/76/2 146/320/4
f 204/102/6 240/145/6 239/148/6 203/103/6
f 31/92/13 27/113/4 26/114/4 30/91/13
f 238/148/3 237/145/3 201/102/3 202/103/3
f 405/321/4 408/322/4 412/267/5 409/266/5
f 165/84/4 168/83/4 172/82/5 169/81/5
f 334/47/3 330/37/3 329/38/3 333/48/3
f 383/88/2 379/323/1 378/324/1 382/87/2
f 84/17/6 83/18/6 87/19/6 88/20/6
f 437/325/1 440/326/1 404/241/2 401/238/2
f 168/20/6 167/19/6 171/37/6 172/38/6
f 385/327/7 381/87/14 384/88/14 388/328/7
f 461/141/14 464/144/14 468/329/7 465/330/7
f 408/20/6 407/19/6 411/37/6 412/38/6
f 169/81/5 172/82/5 176/316/9 173/315/9
f 414/47/3 410/37/3 409/38/3 413/48/3
f 412/38/6 411/37/6 415/47/6 416/48/6
f 100/49/6 96/48/6 95/47/6 99/50/6
f 450/162/17 454/251/12 455/250/12 451/161/17
f 162/135/14 166/261/7 167/262/7 163/136/14
f 94/47/3 93/48/3 97/49/3 98/50/3
f 102/59/3 98/50/3 97/49/3 101/60/3
f 220/183/6 219/184/6 223/207/6 224/206/6
f 226/175/4 230/151/13 231/152/13 227/176/4
f 37/256/1 40/331/1 4/213/2 1/214/2
f 346/89/3 342/59/3 341/60/3 345/90/3
f 479/186/11 478/185/11 442/141/14 443/144/14
f 319/332/25 318/333/11 282/66/14 283/67/19
f 106/89/3 102/59/3 101/60/3 105/90/3
f 185/318/7 188/317/7 192/316/8 189/315/8
f 7/79/7 6/78/7 10/77/17 11/80/17
f 243/36/14 279/245/11 278/244/11 242/35/14
f 28/90/6 27/89/6 31/270/6 32/271/6
f 36/120/6 35/119/6 39/116/6 40/115/6
f 81/4/2 84/3/2 88/126/4 85/125/4
f 356/120/6 355/119/6 359/116/6 360/115/6
f 317/334/1 320/335/1 284/67/2 281/66/2
f 291/218/26 287/221/20 286/220/7 290/219/17
f 462/207/3 458/296/3 457/183/3 461/206/3
f 129/222/5 132/223/5 136/44/9 133/43/9
f 403/241/14 439/336/11 438/337/11 402/238/14
f 13/96/9 16/95/9 20/94/11 17/93/11
f 279/275/11 275/274/10 274/273/10 278/272/11
f 162/18/3 198/116/3 197/115/3 161/17/3
f 421/238/14 424/241/14 428/326/7 425/325/7
f 382/87/2 386/86/4 387/85/4 383/88/2
f 208/101/6 204/102/6 203/103/6 207/104/6
f 367/338/7 366/339/7 370/205/17 371/204/17
f 448/101/6 444/102/6 443/103/6 447/104/6
f 445/340/4 448/341/4 452/302/5 449/301/5
f 289/153/5 292/154/5 296/171/9 293/170/9
f 54/178/3 53/177/3 57/183/3 58/184/3
f 106/99/4 110/98/13 111/97/13 107/100/4
f 366/104/3 365/101/3 369/157/3 370/158/3
f 350/270/3 346/89/3 345/90/3 349/271/3
f 450/158/3 449/157/3 453/177/3 454/178/3
f 422/238/2 426/337/4 427/336/4 423/241/2
f 294/178/3 293/177/3 297/183/3 298/184/3
f 443/144/14 442/141/14 446/342/7 447/343/7
f 134/178/3 133/177/3 137/183/3 138/184/3
f 301/66/14 304/67/14 308/344/7 305/345/7
f 420/49/6 419/50/6 423/59/6 424/60/6
f 395/204/10 394/205/10 398/339/11 399/338/11
f 68/7/6 67/187/6 71/5/6 72/8/6
f 146/187/3 142/207/3 141/206/3 145/7/3
f 45/294/4 48/295/4 52/189/5 49/188/5
f 64/206/6 63/207/6 67/187/6 68/7/6
f 201/109/2 204/110/2 208/122/4 205/121/4
f 150/5/3 146/187/3 145/7/3 149/8/3
f 230/5/3 226/187/3 225/7/3 229/8/3
f 187/133/4 183/136/2 182/135/2 186/134/4
f 320/145/6 316/146/6 315/147/24 319/148/25
f 386/180/4 390/179/13 391/182/13 387/181/4
f 88/20/6 87/19/6 91/37/6 92/38/6
f 202/103/3 201/102/3 205/101/3 206/104/3
f 444/102/6 480/145/6 479/148/6 443/103/6
f 17/346/11 20/347/11 24/254/14 21/214/14
f 78/148/3 77/145/3 41/102/3 42/103/3
f 6/19/3 2/18/3 1/17/3 5/20/3
f 197/348/1 200/349/1 164/136/2 161/135/2
f 266/89/3 262/59/3 261/60/3 265/90/3
f 85/350/4 88/351/4 92/27/5 89/26/5
f 255/307/12 254/306/12 258/305/1 259/308/1
f 74/147/3 73/146/3 77/145/3 78/148/3
f 90/37/3 86/19/3 85/20/3 89/38/3
f 252/38/6 251/37/6 255/47/6 256/48/6
f 137/352/11 140/353/11 144/73/14 141/76/14
f 159/319/11 158/320/11 122/76/14 123/73/14
f 332/38/6 331/37/6 335/47/6 336/48/6
f 57/354/11 60/355/11 64/62/14 61/61/14
f 122/76/14 126/75/7 127/74/7 123/73/14
f 256/48/6 255/47/6 259/50/6 260/49/6
f 145/356/7 141/76/14 144/73/14 148/357/7
f 246/19/3 242/18/3 241/17/3 245/20/3
f 260/49/6 259/50/6 263/59/6 264/60/6
f 113/26/18 116/27/18 120/351/1 117/350/1
f 358/116/3 354/119/3 353/120/3 357/115/3
f 322/105/14 326/129/7 327/130/7 323/106/14
f 91/71/17 90/70/17 94/98/12 95/97/12
f 264/60/6 263/59/6 267/89/6 268/90/6
f 265/247/7 268/246/7 272/242/8 269/243/8
f 184/60/6 183/59/6 187/89/6 188/90/6
f 273/16/18 276/15/18 280/14/1 277/13/1
f 419/358/1 415/359/12 414/360/12 418/361/1
f 268/90/6 267/89/6 271/270/6 272/271/6
f 199/193/11 195/192/10 194/195/10 198/194/11
f 8/20/6 7/19/6 11/37/6 12/38/6
f 41/265/2 77/362/1 80/363/1 44/62/2
f 201/109/2 237/364/1 240/365/1 204/110/2
f 140/183/6 139/184/6 143/207/6 144/206/6
f 473/301/18 476/302/18 480/341/1 477/340/1
f 118/116/3 114/119/3 113/120/3 117/115/3
f 436/120/6 435/119/6 439/116/6 440/115/6
f 209/203/5 212/202/5 216/54/9 213/51/9
f 82/18/3 118/116/3 117/115/3 81/17/3
f 172/38/6 171/37/6 175/47/6 176/48/6
f 190/270/3 186/89/3 185/90/3 189/271/3
f 282/103/3 281/102/3 285/101/3 286/104/3
f 292/157/6 288/101/6 287/104/20 291/158/26
f 257/312/11 260/311/11 264/36/14 261/35/14
f 128/101/6 127/104/6 131/158/6 132/157/6
f 177/314/11 180/313/11 184/136/14 181/135/14
f 456/177/6 452/157/6 451/158/6 455/178/6
f 149/43/8 145/46/7 148/45/7 152/44/8
f 56/177/6 52/157/6 51/158/6 55/178/6
f 460/183/6 456/177/6 455/178/6 459/184/6
f 362/87/14 366/324/7 367/323/7 363/88/14
f 60/183/6 56/177/6 55/178/6 59/184/6
f 222/207/3 218/184/3 217/183/3 221/206/3
f 397/137/1 393/140/18 396/139/18 400/138/1
f 460/183/6 459/184/6 463/207/6 464/206/6
f 114/70/10 118/69/11 119/72/11 115/71/10
f 226/187/3 222/207/3 221/206/3 225/7/3
f 224/206/6 223/207/6 227/187/6 228/7/6
f 211/149/17 207/366/7 206/367/7 210/150/17
f 388/7/6 387/6/6 391/5/6 392/8/6
f 148/7/6 147/187/6 151/5/6 152/8/6
f 270/270/3 266/89/3 265/90/3 269/271/3
f 314/147/3 313/146/3 317/145/3 318/148/3
f 222/109/2 226/368/4 227/369/4 223/110/2
f 284/102/6 320/145/6 319/148/25 283/103/19
f 458/342/1 462/141/2 463/144/2 459/343/1
f 158/148/3 157/145/3 121/102/3 122/103/3
f 357/108/1 360/107/1 324/106/2 321/105/2
f 390/5/3 386/6/3 385/7/3 389/8/3
f 4/17/6 3/18/6 7/19/6 8/20/6
f 333/24/9 329/226/5 332/229/5 336/23/9
f 328/20/6 327/19/6 331/37/6 332/38/6
f 248/20/6 247/19/6 251/37/6 252/38/6
f 92/38/6 91/37/6 95/47/6 96/48/6
f 12/38/6 11/37/6 15/47/6 16/48/6
f 307/332/22 303/67/15 302/66/2 306/333/4
f 302/207/3 298/184/3 297/183/3 301/206/3
f 181/135/14 184/136/14 188/349/7 185/348/7
f 22/59/3 18/50/3 17/49/3 21/60/3
f 433/266/18 436/267/18 440/322/1 437/321/1
f 20/49/6 19/50/6 23/59/6 24/60/6
f 26/89/3 22/59/3 21/60/3 25/90/3
f 410/237/17 414/360/12 415/359/12 411/234/17
f 104/60/6 103/59/6 107/89/6 108/90/6
f 353/226/18 356/229/18 360/228/1 357/227/1
f 136/177/6 132/157/6 131/158/6 135/178/6
f 98/132/1 102/4/2 103/3/2 99/131/1
f 108/90/6 107/89/6 111/270/6 112/271/6
f 254/47/3 253/48/3 257/49/3 258/50/3
f 422/59/3 418/50/3 417/49/3 421/60/3
f 438/116/3 434/119/3 433/120/3 437/115/3
f 41/265/2 44/62/2 48/355/4 45/370/4
f 380/183/6 379/296/6 383/207/6 384/206/6
f 434/237/10 438/236/11 439/235/11 435/234/10
f 40/115/6 39/116/6 3/18/6 4/17/6
f 66/299/4 70/290/13 71/291/13 67/300/4
f 322/18/3 358/116/3 357/115/3 321/17/3
f 119/211/11 118/210/11 82/4/14 83/3/14
f 129/222/5 125/225/4 128/224/4 132/223/5
f 30/270/3 26/89/3 25/90/3 29/271/3
f 110/270/3 106/89/3 105/90/3 109/271/3
f 206/104/3 205/101/3 209/157/3 210/158/3
f 431/359/13 427/358/4 426/361/4 430/360/13
f 212/157/6 208/101/6 207/104/6 211/158/6
f 376/177/6 372/157/6 371/158/6 375/178/6
f 210/158/3 209/157/3 213/177/3 214/178/3
f 65/310/7 68/309/7 72/190/8 69/191/8
f 454/178/3 453/177/3 457/183/3 458/296/3
f 374/178/3 373/177/3 377/183/3 378/296/3
f 377/279/11 380/278/11 384/88/14 381/87/14
f 196/120/6 195/119/6 199/116/6 200/115/6
f 75/288/10 74/289/10 78/298/11 79/297/11
f 233/203/18 236/202/18 240/201/1 237/200/1
f 382/207/3 378/296/3 377/183/3 381/206/3
f 384/206/6 383/207/6 387/6/6 388/7/6
f 466/6/3 462/207/3 461/206/3 465/7/3
f 468/7/6 467/187/6 471/5/6 472/8/6
f 164/17/6 163/18/6 167/19/6 168/20/6
f 428/90/6 427/89/6 431/270/6 432/271/6
f 480/145/6 476/146/6 475/147/6 479/148/6
f 160/145/6 156/146/6 155/147/6 159/148/6
f 170/37/3 166/19/3 165/20/3 169/38/3
f 239/369/11 238/368/11 202/109/14 203/110/14
f 478/148/3 477/145/3 441/102/3 442/103/3
f 44/102/6 80/145/6 79/148/6 43/103/6
f 166/19/3 162/18/3 161/17/3 165/20/3
f 406/19/3 402/18/3 401/17/3 405/20/3
f 410/37/3 406/19/3 405/20/3 409/38/3
f 441/141/2 444/144/2 448/304/4 445/303/4
f 94/47/3 90/37/3 89/38/3 93/48/3
f 413/269/9 416/268/9 420/371/11 417/372/11
f 340/49/6 336/48/6 335/47/6 339/50/6
f 180/49/6 176/48/6 175/47/6 179/50/6
f 342/59/3 338/50/3 337/49/3 341/60/3
f 340/49/6 339/50/6 343/59/6 344/60/6
f 250/273/17 254/306/12 255/307/12 251/274/17
f 62/207/3 58/184/3 57/183/3 61/206/3
f 426/89/3 422/59/3 421/60/3 425/90/3
f 425/372/7 428/371/7 432/268/8 429/269/8
f 362/103/3 361/102/3 365/101/3 366/104/3
f 419/240/1 418/239/1 422/238/2 423/241/2
f 348/90/6 347/89/6 351/270/6 352/271/6
f 116/120/6 115/119/6 119/116/6 120/115/6
f 278/116/3 274/119/3 273/120/3 277/115/3
f 120/115/6 119/116/6 83/18/6 84/17/6
f 242/18/3 278/116/3 277/115/3 241/17/3
f 368/101/6 364/102/6 363/103/6 367/104/6
f 442/103/3 441/102/3 445/101/3 446/104/3
f 452/157/6 448/101/6 447/104/6 451/158/6
f 235/149/10 234/150/10 238/367/11 239/366/11
f 214/178/3 213/177/3 217/183/3 218/184/3
f 370/158/3 369/157/3 373/177/3 374/178/3
f 216/177/6 212/157/6 211/158/6 215/178/6
f 202/109/14 206/260/7 207/259/7 203/110/14
f 318/148/3 317/145/3 281/102/3 282/103/3
f 220/183/6 216/177/6 215/178/6 219/184/6
f 276/120/6 275/119/6 279/116/6 280/115/6
f 66/187/3 62/207/3 61/206/3 65/7/3
f 464/206/6 463/207/6 467/187/6 468/7/6
f 306/187/3 302/207/3 301/206/3 305/7/3
f 86/19/3 82/18/3 81/17/3 85/20/3
f 228/7/6 227/187/6 231/5/6 232/8/6
f 154/147/3 153/146/3 157/145/3 158/148/3
f 234/147/3 233/146/3 237/145/3 238/148/3
f 52/157/6 48/101/6 47/104/6 51/158/6
f 398/148/3 397/145/3 361/102/3 362/103/3
f 121/76/2 124/73/2 128/353/4 125/352/4
f 1/214/2 4/213/2 8/445/4 5/346/4
