# Blender 5.0.1
# www.blender.org
mtllib padlock_2.mtl
o padlock_2
v 0.000500 -0.070333 0.011000
v 0.002000 -0.067333 0.011000
v 0.000500 -0.070333 0.013000
v 0.002000 -0.067333 0.013000
v -0.000500 -0.070333 0.011000
v -0.002000 -0.067333 0.011000
v -0.000500 -0.070333 0.013000
v -0.002000 -0.067333 0.013000
v 0.037579 -0.047905 -0.011050
v 0.040668 -0.098058 -0.011050
v 0.038630 -0.108918 -0.011050
v 0.029781 -0.117750 -0.011050
v 0.015554 -0.123790 -0.011050
v -0.000034 -0.125275 -0.011050
v -0.015620 -0.124125 -0.011050
v -0.030901 -0.117756 -0.011050
v -0.037026 -0.108634 -0.011050
v -0.039066 -0.098983 -0.011050
v 0.037579 -0.047905 0.011050
v 0.040668 -0.098058 0.011050
v 0.038630 -0.108918 0.011050
v 0.029781 -0.117750 0.011050
v 0.015554 -0.123790 0.011050
v -0.000034 -0.125275 0.011050
v -0.015620 -0.124125 0.011050
v -0.030901 -0.117756 0.011050
v -0.037026 -0.108634 0.011050
v -0.039066 -0.098983 0.011050
v 0.024178 -0.045532 -0.011050
v 0.017285 -0.048267 -0.011050
v 0.010481 -0.056308 -0.011050
v -0.009932 -0.056308 -0.011050
v -0.015623 -0.048638 -0.011050
v -0.023025 -0.045442 -0.011050
v 0.041516 -0.057212 -0.011050
v -0.039003 -0.056985 -0.011050
v -0.034042 -0.047271 -0.011050
v 0.024178 -0.045532 0.011050
v 0.017285 -0.048267 0.011050
v 0.010481 -0.056308 0.011050
v -0.009932 -0.056308 0.011050
v -0.015623 -0.048638 0.011050
v -0.023025 -0.045442 0.011050
v 0.041516 -0.057212 0.011050
v -0.039003 -0.056985 0.011050
v -0.034042 -0.047271 0.011050
vn -0.0000 -0.0000 -1.0000
vn 0.9821 0.1886 -0.0000
vn 0.6233 0.7820 -0.0000
vn -0.0000 -1.0000 -0.0000
vn 0.5588 -0.8293 -0.0000
vn 0.8842 -0.4670 -0.0000
vn -0.2321 -0.9727 -0.0000
vn 0.0107 -0.9999 -0.0000
vn -0.0000 1.0000 -0.0000
vn -0.5904 0.8071 -0.0000
vn -0.9721 0.2346 -0.0000
vn -0.0000 -0.0000 1.0000
vn -0.6344 -0.7730 -0.0000
vn -0.9211 -0.3892 -0.0000
vn -0.8944 -0.4472 -0.0000
vn -0.7634 0.6459 -0.0000
vn -0.5835 0.8121 -0.0000
vn 0.1212 0.9926 -0.0000
vn 0.8031 0.5958 -0.0000
vn 0.6210 0.7838 -0.0000
vn 0.9947 -0.1030 -0.0000
vn -0.9947 -0.1032 -0.0000
vn -0.1010 0.9949 -0.0000
vn 0.2457 -0.9693 -0.0000
vn 0.8944 -0.4472 -0.0000
vt 0.218330 0.577537
vt 0.194054 0.556027
vt 0.175392 0.504467
vt 0.270731 0.499909
vt 0.293060 0.250980
vt 0.386423 0.250980
vt 0.386423 0.170394
vt 0.293060 0.170394
vt 0.968747 0.120828
vt 0.968747 0.140828
vt 0.989055 0.140828
vt 0.989055 0.120828
vt 0.293060 0.770835
vt 0.386423 0.770835
vt 0.386423 0.694811
vt 0.293060 0.694811
vt 0.293060 0.349605
vt 0.386423 0.349605
vt 0.386423 0.483514
vt 0.293060 0.483514
vt 0.968747 0.170828
vt 0.968747 0.090828
vt 0.989055 0.090828
vt 0.989055 0.170828
vt 0.386495 0.190953
vt 0.386423 0.249013
vt 0.293060 0.249013
vt 0.293060 0.189052
vt 0.994131 0.090828
vt 0.963670 0.120828
vt 0.963670 0.140828
vt 0.994131 0.170828
vt 0.086135 0.558531
vt 0.063529 0.576895
vt 0.019584 0.560907
vt 0.006671 0.498432
vt 0.108449 0.504467
vt 0.045155 0.091545
vt 0.091812 0.050897
vt 0.009452 0.223875
vt 0.016136 0.150904
vt 0.142931 0.040880
vt 0.270937 0.217600
vt 0.264244 0.152739
vt 0.244157 0.091450
vt 0.194047 0.048650
vt 0.218330 0.577537
vt 0.254460 0.565209
vt 0.021190 0.557603
vt 0.293060 0.348209
vt 0.293060 0.224918
vt 0.386423 0.224918
vt 0.386423 0.348209
vt 0.293060 0.763914
vt 0.293060 0.689513
vt 0.386423 0.689513
vt 0.386423 0.763914
vt 0.994131 0.150828
vt 0.963670 0.150828
vt 0.963670 0.110828
vt 0.994131 0.110828
vt 0.293060 0.574555
vt 0.293060 0.173525
vt 0.386423 0.173525
vt 0.386423 0.574555
vt 0.293060 0.284445
vt 0.386423 0.284445
vt 0.293060 0.397811
vt 0.386423 0.397811
vt 0.386423 0.176739
vt 0.293060 0.176739
vt 0.293060 0.604642
vt 0.386423 0.604642
vt 0.293060 0.691460
vt 0.386423 0.691460
vt 0.293060 0.612343
vt 0.386423 0.612343
vt 0.386438 0.693257
vt 0.386423 0.633469
vt 0.293060 0.633469
vt 0.293060 0.693154
vt 0.293060 0.615903
vt 0.386423 0.615902
vt 0.386423 0.691089
vt 0.293060 0.691089
vt 0.386423 0.348537
vt 0.293060 0.348537
vt 0.270936 0.217603
vt 0.175392 0.504467
vt 0.194055 0.556027
vt 0.194048 0.048648
vt 0.244160 0.091444
vt 0.264246 0.152734
vt 0.091812 0.050897
vt 0.045153 0.091549
vt 0.016131 0.150914
vt 0.293060 0.809179
vt 0.386424 0.809154
vt 0.386423 0.618482
vt 0.293060 0.618482
vt 0.293060 0.574555
vt 0.386423 0.397811
vt 0.386423 0.738414
vt 0.293060 0.738414
s 1
usemtl padlock_2
f 34/1/1 33/2/1 32/3/1 36/4/1
f 44/5/2 35/6/2 9/7/3 19/8/3
s 0
f 5/9/4 1/10/4 3/11/4 7/12/4
s 1
f 22/13/5 12/14/5 11/15/6 21/16/6
f 25/17/7 15/18/7 14/19/8 24/20/8
s 0
f 2/21/9 6/22/9 8/23/9 4/24/9
s 1
f 37/25/10 36/26/11 45/27/11 46/28/10
s 0
f 8/29/12 7/30/12 3/31/12 4/32/12
s 1
f 30/33/1 29/34/1 9/35/1 35/36/1
f 40/37/12 44/36/12 39/33/12
f 12/38/1 13/39/1 10/40/1 11/41/1
f 32/3/1 14/42/1 18/43/1 36/4/1
f 27/44/12 26/45/12 25/46/12
f 10/40/1 13/39/1 31/37/1 35/36/1
f 43/47/12 46/48/12 45/4/12
f 38/34/12 39/33/12 44/36/12 19/49/12
f 25/50/7 26/51/13 16/52/13 15/53/7
f 26/54/13 27/55/14 17/56/14 16/57/13
s 0
f 6/58/15 5/59/15 7/60/15 8/61/15
s 1
f 40/62/16 39/63/17 30/64/17 31/65/16
f 43/66/18 34/67/18 37/25/10 46/28/10
f 14/42/1 32/3/1 31/37/1 13/39/1
f 41/68/19 32/69/19 33/70/20 42/71/20
f 20/72/21 10/73/21 35/6/2 44/5/2
f 21/74/6 11/75/6 10/73/21 20/72/21
f 28/76/22 45/27/11 36/26/11 18/77/22
f 29/78/23 30/79/17 39/80/17 38/81/23
f 28/82/22 18/83/22 17/84/14 27/85/14
f 33/86/20 34/67/18 43/66/18 42/87/20
f 28/88/12 24/42/12 41/89/12 45/4/12
f 36/4/1 37/48/1 34/1/1
f 42/90/12 43/47/12 45/4/12 41/89/12
f 28/88/12 27/44/12 25/46/12 24/42/12
f 15/91/1 16/92/1 17/93/1
f 41/89/12 24/42/12 23/94/12 40/37/12
f 23/94/12 22/95/12 21/96/12 20/40/12
f 40/37/12 23/94/12 20/40/12 44/36/12
f 14/42/1 15/91/1 17/93/1 18/43/1
f 31/37/1 30/33/1 35/36/1
f 19/97/3 9/98/3 29/78/23 38/81/23
f 24/20/8 14/19/8 13/99/24 23/100/24
f 41/68/9 40/101/9 31/65/9 32/102/9
f 23/100/24 13/99/24 12/103/5 22/104/5
s 0
f 4/61/25 3/60/25 1/59/25 2/58/25
o padlock_2_knob
v -0.009965 -0.005753 0.008000
v -0.005753 -0.009965 0.008000
v -0.011507 0.000000 0.008000
v -0.005753 0.009965 0.008000
v -0.009965 0.005753 0.008000
v 0.000000 -0.011507 0.008000
v 0.005753 -0.009965 0.008000
v 0.009965 -0.005753 0.008000
v 0.011507 0.000000 0.008000
v 0.000000 0.011507 0.008000
v 0.009965 0.005753 0.008000
v 0.005753 0.009965 0.008000
v 0.025000 -0.000000 -0.000000
v 0.000000 0.025000 -0.000000
v -0.025000 0.000000 0.000000
v -0.000000 -0.025000 0.000000
v -0.012500 -0.021651 0.000000
v -0.021651 -0.012500 0.000000
v -0.012500 0.021651 -0.000000
v -0.021651 0.012500 0.000000
v 0.021651 0.012500 -0.000000
v 0.012500 0.021651 -0.000000
v 0.012500 -0.021651 0.000000
v 0.021651 -0.012500 -0.000000
v 0.025000 -0.000000 0.003000
v 0.000000 0.025000 0.003000
v -0.025000 0.000000 0.003000
v -0.000000 -0.025000 0.003000
v -0.012500 -0.021651 0.003000
v -0.021651 -0.012500 0.003000
v -0.012500 0.021651 0.003000
v -0.021651 0.012500 0.003000
v 0.021651 0.012500 0.003000
v 0.012500 0.021651 0.003000
v 0.012500 -0.021651 0.003000
v 0.021651 -0.012500 0.003000
v 0.008985 0.000000 0.016000
v 0.011507 0.000000 0.013500
v 0.000000 0.011507 0.013500
v 0.000000 0.008985 0.016000
v -0.011507 0.000000 0.013500
v -0.008985 0.000000 0.016000
v 0.000000 -0.008985 0.016000
v 0.000000 -0.011507 0.013500
v -0.005753 -0.009965 0.013500
v -0.004493 -0.007781 0.016000
v -0.009965 -0.005753 0.013500
v -0.007781 -0.004493 0.016000
v -0.004493 0.007781 0.016000
v -0.005753 0.009965 0.013500
v -0.007781 0.004493 0.016000
v -0.009965 0.005753 0.013500
v 0.007781 0.004493 0.016000
v 0.009965 0.005753 0.013500
v 0.004493 0.007781 0.016000
v 0.005753 0.009965 0.013500
v 0.004493 -0.007781 0.016000
v 0.005753 -0.009965 0.013500
v 0.007781 -0.004493 0.016000
v 0.009965 -0.005753 0.013500
v 0.000000 0.000000 0.016000
vn -1.0000 -0.0000 -0.0000
vn -0.8660 0.5000 -0.0000
vn 1.0000 -0.0000 -0.0000
vn 0.8660 0.5000 -0.0000
vn 0.6097 -0.3520 0.7101
vn 0.7041 -0.0000 0.7101
vn -0.8660 -0.5000 -0.0000
vn -0.5000 0.8660 -0.0000
vn 0.5000 0.8660 -0.0000
vn 0.5000 -0.8660 -0.0000
vn -0.0000 -1.0000 -0.0000
vn 0.8660 -0.5000 -0.0000
vn -0.0000 1.0000 -0.0000
vn -0.5000 -0.8660 -0.0000
vn 0.1737 -0.3009 0.9377
vn 0.3009 -0.1737 0.9377
vn -0.0000 -0.3475 0.9377
vn -0.1737 -0.3009 0.9377
vn 0.3009 0.1737 0.9377
vn 0.1737 0.3009 0.9377
vn -0.1737 0.3009 0.9377
vn -0.0000 0.3475 0.9377
vn -0.3009 0.1737 0.9377
vn 0.3475 -0.0000 0.9377
vn -0.0000 0.7041 0.7101
vn 0.3520 0.6097 0.7101
vn -0.3009 -0.1737 0.9377
vn -0.3475 -0.0000 0.9377
vn -0.0000 -0.0000 1.0000
vn -0.7041 -0.0000 0.7101
vn -0.6097 -0.3520 0.7101
vn -0.3520 0.6097 0.7101
vn -0.6097 0.3520 0.7101
vn 0.3520 -0.6097 0.7101
vn 0.6097 0.3520 0.7101
vn -0.0000 -0.7041 0.7101
vn -0.3520 -0.6097 0.7101
vt 0.447269 0.500000
vt 0.477731 0.500000
vt 0.477731 0.250000
vt 0.447269 0.250000
vt 0.468611 0.306818
vt 0.395812 0.306818
vt 0.395812 0.156818
vt 0.468611 0.156818
vt 0.828635 0.411093
vt 0.850586 0.386142
vt 0.866117 0.500000
vt 0.840782 0.500000
vt 0.477731 0.750000
vt 0.447269 0.750000
vt 0.468611 0.456818
vt 0.395812 0.456818
vt 0.468611 0.456818
vt 0.395812 0.456818
vt 0.395812 0.306818
vt 0.468611 0.306818
vt 0.876008 0.071540
vt 0.968064 0.252628
vt 0.808245 0.302792
vt 0.750461 0.005257
vt 0.750461 0.272284
vt 0.692676 0.302792
vt 0.624914 0.071540
vt 0.968064 0.747371
vt 0.876008 0.928460
vt 0.808245 0.697208
vt 0.850586 0.613858
vt 0.624914 0.928460
vt 0.692676 0.697208
vt 0.750461 0.727717
vt 0.750461 0.994743
vt 0.532945 0.747371
vt 0.650335 0.613858
vt 1.001642 0.500000
vt 0.750461 0.677815
vt 0.795665 0.653993
vt 0.650335 0.386142
vt 0.532945 0.252628
vt 0.634892 0.500000
vt 0.499281 0.500000
vt 0.750461 0.500000
vt 0.828635 0.588908
vt 0.672288 0.411093
vt 0.705344 0.346008
vt 0.672288 0.588908
vt 0.705344 0.653992
vt 0.660227 0.500000
vt 0.795665 0.346008
vt 0.750461 0.322185
s 1
usemtl padlock_2
f 61/105/26 73/106/26 78/107/27 66/108/27
f 84/109/28 55/110/28 57/111/29 100/112/29
f 105/113/30 106/114/30 84/115/31 83/116/31
f 76/117/32 73/106/26 61/105/26 64/118/32
f 96/119/33 50/120/33 51/111/27 98/112/27
f 68/108/34 80/107/34 79/107/29 67/108/29
f 69/108/35 81/107/35 74/106/36 62/105/36
f 106/121/37 104/112/35 53/111/35 54/122/37
f 67/108/29 79/107/29 71/106/28 59/105/28
f 78/107/27 77/117/33 65/118/33 66/108/27
f 102/112/34 58/111/34 56/123/38 85/124/38
f 70/118/37 82/117/37 81/107/35 69/108/35
f 47/122/32 48/120/39 91/119/39 93/121/32
f 59/105/28 71/106/28 82/117/37 70/118/37
f 81/125/40 82/126/41 54/114/41 53/127/40
f 62/105/36 74/106/36 75/117/39 63/118/39
f 106/121/37 54/122/37 55/110/28 84/109/28
f 90/124/36 91/119/39 48/120/39 52/123/36
f 74/128/42 52/129/42 48/130/43 75/131/43
f 79/132/44 80/133/45 58/134/45 57/135/44
f 77/136/46 50/137/46 56/138/47 72/139/47
f 77/136/46 78/140/48 51/141/48 50/137/46
f 56/138/47 58/134/45 80/133/45 72/139/47
f 79/132/44 57/135/44 55/115/49 71/142/49
f 86/143/50 101/144/51 102/134/51 85/138/50
f 75/131/43 48/130/43 47/145/52 76/146/52
f 76/146/52 47/145/52 49/147/53 73/148/53
f 101/144/54 107/149/54 99/150/54
f 71/142/49 55/115/49 54/114/41 82/126/41
f 81/125/40 53/127/40 52/129/42 74/128/42
f 90/124/36 52/123/36 53/111/35 104/112/35
f 98/112/27 51/111/27 49/123/26 87/124/26
f 105/113/54 83/116/54 107/149/54
f 107/149/54 94/151/54 92/152/54
f 97/153/54 107/149/54 95/154/54
f 63/118/39 75/117/39 76/117/32 64/118/32
f 85/124/38 56/123/38 50/120/33 96/119/33
f 88/155/55 87/147/55 93/145/56 94/151/56
f 65/118/33 77/117/33 72/106/38 60/105/38
f 100/112/29 57/111/29 58/111/34 102/112/34
f 96/137/57 95/154/57 86/143/50 85/138/50
f 88/155/55 97/153/58 98/141/58 87/147/55
f 105/113/30 103/156/59 104/127/59 106/114/30
f 83/116/31 84/115/31 100/135/60 99/150/60
f 97/153/58 95/154/57 96/137/57 98/141/58
f 49/147/53 51/141/48 78/140/48 73/148/53
f 87/124/26 49/123/26 47/122/32 93/121/32
f 104/127/59 103/156/59 89/157/61 90/129/61
f 101/144/51 99/150/60 100/135/60 102/134/51
f 92/152/62 91/130/62 90/129/61 89/157/61
f 94/151/56 93/145/56 91/130/62 92/152/62
f 60/105/38 72/106/38 80/107/34 68/108/34
f 86/143/54 107/149/54 101/144/54
f 107/149/54 83/116/54 99/150/54
f 89/157/54 103/156/54 107/149/54
f 103/156/54 105/113/54 107/149/54
f 92/152/54 89/157/54 107/149/54
f 107/149/54 88/155/54 94/151/54
f 88/155/54 107/149/54 97/153/54
f 107/149/54 86/143/54 95/154/54
o padlock_2_shackle
v -0.022745 -0.090556 -0.000000
v -0.027308 -0.090556 -0.004550
v -0.024081 -0.090556 -0.003217
v -0.027219 -0.025727 -0.004550
v -0.024011 -0.025727 -0.003217
v -0.025203 -0.015431 -0.004550
v -0.022327 -0.017044 -0.003217
v -0.015135 -0.010039 -0.000000
v -0.017784 -0.006229 -0.004550
v -0.015911 -0.008923 -0.003217
v -0.009353 -0.007194 -0.000000
v -0.009353 -0.002752 -0.004550
v -0.009353 -0.005893 -0.003217
v -0.000057 -0.001625 -0.004550
v -0.000047 -0.004863 -0.003217
v 0.008490 -0.007070 -0.000000
v 0.008490 -0.002627 -0.004550
v 0.008490 -0.005769 -0.003217
v 0.017936 -0.006670 -0.004550
v 0.015983 -0.009315 -0.003217
v 0.025277 -0.014748 -0.004550
v 0.022639 -0.016624 -0.003217
v 0.028614 -0.025711 -0.004550
v 0.025409 -0.025711 -0.003217
v -0.026396 -0.014762 -0.004550
v -0.029255 -0.013160 -0.003217
v -0.018501 -0.005099 -0.004550
v -0.020684 -0.002667 -0.003217
v -0.009353 -0.000802 -0.004550
v -0.009353 0.003633 -0.000000
v -0.009353 0.002334 -0.003217
v -0.000071 0.000029 -0.004550
v -0.000071 0.004579 -0.000000
v -0.000071 0.003246 -0.003217
v 0.008490 -0.000815 -0.004550
v 0.008490 0.002331 -0.003217
v 0.018851 -0.005295 -0.004550
v 0.020780 -0.002687 -0.003217
v 0.026359 -0.013770 -0.004550
v 0.030268 -0.011412 -0.000000
v 0.029123 -0.012103 -0.003217
v -0.029225 -0.090556 -0.004550
v -0.032433 -0.090556 -0.003217
v -0.029286 -0.025727 -0.004550
v -0.032480 -0.025727 -0.003217
v 0.030307 -0.025711 -0.004550
v 0.033491 -0.025711 -0.003217
v 0.030247 -0.059356 -0.004550
v 0.033461 -0.059356 -0.003217
v 0.028531 -0.059356 -0.004550
v 0.023982 -0.059356 -0.000000
v 0.025314 -0.059356 -0.003217
v -0.027308 -0.090556 0.004550
v -0.024081 -0.090556 0.003217
v -0.027219 -0.025727 0.004550
v -0.022682 -0.025727 -0.000000
v -0.024011 -0.025727 0.003217
v -0.025203 -0.015431 0.004550
v -0.021136 -0.017711 -0.000000
v -0.022327 -0.017044 0.003217
v -0.017784 -0.006229 0.004550
v -0.015911 -0.008923 0.003217
v -0.009353 -0.002752 0.004550
v -0.009353 -0.005893 0.003217
v -0.000057 -0.001625 0.004550
v -0.000042 -0.006204 -0.000000
v -0.000047 -0.004863 0.003217
v 0.008490 -0.002627 0.004550
v 0.008490 -0.005769 0.003217
v 0.017936 -0.006670 0.004550
v 0.015174 -0.010410 -0.000000
v 0.015983 -0.009315 0.003217
v 0.025277 -0.014748 0.004550
v 0.021547 -0.017401 -0.000000
v 0.022639 -0.016624 0.003217
v 0.028614 -0.025711 0.004550
v 0.024082 -0.025711 -0.000000
v 0.025409 -0.025711 0.003217
v -0.026396 -0.014762 0.004550
v -0.030439 -0.012496 -0.000000
v -0.029255 -0.013160 0.003217
v -0.021588 -0.001660 -0.000000
v -0.018501 -0.005099 0.004550
v -0.020684 -0.002667 0.003217
v -0.009353 -0.000802 0.004550
v -0.009353 0.002334 0.003217
v -0.000071 0.000029 0.004550
v -0.000071 0.003246 0.003217
v 0.008490 0.003633 -0.000000
v 0.008490 -0.000815 0.004550
v 0.008490 0.002331 0.003217
v 0.021579 -0.001607 -0.000000
v 0.018851 -0.005295 0.004550
v 0.020780 -0.002687 0.003217
v 0.026359 -0.013770 0.004550
v 0.029123 -0.012103 0.003217
v -0.033762 -0.090556 -0.000000
v -0.029225 -0.090556 0.004550
v -0.032433 -0.090556 0.003217
v -0.033802 -0.025727 -0.000000
v -0.029286 -0.025727 0.004550
v -0.032480 -0.025727 0.003217
v 0.034810 -0.025711 -0.000000
v 0.030307 -0.025711 0.004550
v 0.033491 -0.025711 0.003217
v 0.030247 -0.059356 0.004550
v 0.034793 -0.059356 -0.000000
v 0.033461 -0.059356 0.003217
v 0.028531 -0.059356 0.004550
v 0.025314 -0.059356 0.003217
vn -0.4436 0.5863 -0.6778
vn -0.1335 0.1794 -0.9747
vn -0.1953 0.0973 -0.9759
vn -0.6509 0.3281 -0.6846
vn 0.4243 0.6008 -0.6775
vn 0.1290 0.1824 -0.9747
vn 0.0591 0.2113 -0.9756
vn 0.1788 0.7076 -0.6836
vn -0.1958 0.0005 -0.9807
vn -0.1838 -0.0136 -0.9829
vn 0.2027 0.0159 -0.9791
vn 0.1958 -0.0003 -0.9806
vn 0.7126 0.0473 0.6999
vn 0.9982 0.0602 -0.0000
vn 0.8675 0.4938 0.0599
vn 0.6070 0.3977 0.6880
vn -0.5754 -0.3758 -0.7265
vn -0.1467 -0.0960 -0.9845
vn -0.6922 -0.0590 -0.7193
vn -0.0631 0.2137 0.9749
vn -0.1866 0.7085 0.6806
vn -0.4436 0.5863 0.6778
vn -0.1335 0.1794 0.9747
vn 0.1788 0.7076 0.6836
vn 0.0031 0.7220 0.6919
vn 0.0010 0.2084 0.9780
vn 0.0591 0.2113 0.9756
vn 0.4243 0.6008 0.6775
vn 0.1290 0.1824 0.9747
vn 0.1775 0.1187 0.9769
vn 0.7084 -0.0006 0.7058
vn 1.0000 -0.0007 -0.0000
vn -0.7180 0.0907 0.6901
vn -0.7083 -0.0005 0.7059
vn -0.1959 -0.0002 0.9806
vn -0.2101 0.0289 0.9772
vn 0.0004 -0.1822 0.9833
vn -0.0436 -0.1758 0.9835
vn -0.1838 -0.0136 0.9829
vn 0.2038 0.0154 0.9789
vn -0.1467 -0.0960 0.9845
vn 0.0988 -0.1320 0.9863
vn 0.1478 -0.0703 0.9865
vn 0.6110 -0.2797 0.7406
vn 0.4177 -0.5324 0.7362
vn 0.0434 -0.1769 0.9833
vn 0.1949 -0.0002 0.9808
vn 0.1839 -0.0170 0.9828
vn -0.6509 0.3281 0.6846
vn -0.1953 0.0973 0.9759
vn -1.0000 0.0029 -0.0000
vn -0.7080 0.0020 0.7062
vn -0.6914 -0.0588 0.7201
vn -0.9963 -0.0859 -0.0000
vn 0.1839 -0.0170 -0.9828
vn -0.2101 0.0289 -0.9772
vn 0.1478 -0.0703 -0.9865
vn -0.1958 0.0005 0.9807
vn -0.8918 0.4524 -0.0000
vn -0.7180 0.0907 -0.6901
vn -0.9927 0.1207 -0.0000
vn 0.1775 0.1187 -0.9769
vn 0.6070 0.3977 -0.6880
vn 0.7123 0.0474 -0.7003
vn -0.0995 -0.1381 -0.9854
vn 0.1958 -0.0003 0.9806
vn 0.0004 -0.1822 -0.9833
vn 0.0010 0.2084 -0.9780
vn -0.0436 -0.1758 -0.9835
vn -0.1878 -0.6659 0.7220
vn 0.0016 -0.6957 0.7183
vn 0.0023 -1.0000 -0.0000
vn -0.2854 -0.9584 -0.0000
vn -0.4057 -0.5508 -0.7294
vn -0.5749 -0.3757 0.7269
vn -0.4057 -0.5508 0.7294
vn -0.5986 -0.8011 -0.0000
vn -0.8681 -0.4910 -0.0728
vn -0.0995 -0.1381 0.9854
vn 0.0031 0.7220 -0.6919
vn -0.1866 0.7085 -0.6806
vn -0.2442 0.9697 -0.0000
vn 0.0042 1.0000 -0.0000
vn 0.1863 -0.6672 0.7212
vn 0.2835 -0.9590 -0.0000
vn -0.6074 0.7944 -0.0000
vn 0.0434 -0.1769 -0.9833
vn 0.0988 -0.1320 -0.9863
vn -0.0631 0.2137 -0.9749
vn 0.2361 0.9717 -0.0000
vn -0.1878 -0.6659 -0.7220
vn 0.0016 -0.6957 -0.7183
vn 0.5774 0.8164 -0.0000
vn 0.1949 -0.0002 -0.9808
vn -0.1959 -0.0002 -0.9806
vn -1.0000 -0.0007 -0.0000
vn 0.6939 -0.0673 0.7169
vn 0.7070 -0.0008 0.7073
vn 1.0000 -0.0010 -0.0000
vn 0.9952 -0.0982 -0.0000
vn -0.7080 0.0020 -0.7062
vn 0.6939 -0.0673 -0.7169
vn 0.7070 -0.0008 -0.7073
vn 0.6110 -0.2797 -0.7406
vn 0.9116 -0.4111 -0.0000
vn 0.4177 -0.5325 -0.7362
vn 0.6269 -0.7791 -0.0000
vn 0.1863 -0.6672 -0.7212
vn 0.7084 -0.0006 -0.7058
vn -0.7083 -0.0005 -0.7059
vt 0.452312 0.320167
vt 0.460880 0.319053
vt 0.461301 0.384361
vt 0.452383 0.383799
vt 0.435185 0.407862
vt 0.426497 0.407927
vt 0.424793 0.344721
vt 0.434120 0.338965
vt 0.417530 0.713776
vt 0.420860 0.530525
vt 0.425236 0.532431
vt 0.422237 0.714077
vt 0.451622 0.535919
vt 0.442847 0.536885
vt 0.443175 0.466325
vt 0.451401 0.466529
vt 0.413024 0.469276
vt 0.422816 0.467841
vt 0.411561 0.526350
vt 0.425648 0.263376
vt 0.434623 0.257380
vt 0.435738 0.320241
vt 0.427167 0.319203
vt 0.453416 0.339325
vt 0.455900 0.286990
vt 0.467482 0.292555
vt 0.462688 0.345428
vt 0.451710 0.408170
vt 0.460395 0.408559
vt 0.459807 0.466860
vt 0.452008 0.715021
vt 0.442017 0.715021
vt 0.435127 0.447019
vt 0.434642 0.800000
vt 0.424911 0.799953
vt 0.426105 0.444175
vt 0.472618 0.295749
vt 0.467638 0.349509
vt 0.464889 0.531346
vt 0.460496 0.533089
vt 0.463517 0.468600
vt 0.423639 0.320107
vt 0.423385 0.384795
vt 0.413459 0.385273
vt 0.413454 0.321553
vt 0.420423 0.267744
vt 0.419581 0.799906
vt 0.420512 0.442324
vt 0.435808 0.383873
vt 0.426892 0.384514
vt 0.485755 0.714174
vt 0.476003 0.714451
vt 0.474225 0.527519
vt 0.484312 0.525664
vt 0.467810 0.442112
vt 0.462221 0.444014
vt 0.464809 0.384610
vt 0.466511 0.714690
vt 0.444096 0.383616
vt 0.453206 0.446938
vt 0.444167 0.448022
vt 0.426541 0.466240
vt 0.434949 0.466222
vt 0.434082 0.535592
vt 0.422125 0.408559
vt 0.461802 0.714815
vt 0.415327 0.294680
vt 0.420492 0.291679
vt 0.419806 0.348616
vt 0.477484 0.357585
vt 0.483560 0.302771
vt 0.494365 0.308536
vt 0.488293 0.363305
vt 0.411988 0.409027
vt 0.473294 0.470401
vt 0.474891 0.410200
vt 0.485714 0.411752
vt 0.483916 0.471493
vt 0.464760 0.409355
vt 0.455687 0.201653
vt 0.453287 0.257297
vt 0.443952 0.254933
vt 0.443891 0.200000
vt 0.393745 0.221954
vt 0.404527 0.216477
vt 0.410732 0.275825
vt 0.400045 0.281575
vt 0.444025 0.320522
vt 0.467509 0.267534
vt 0.464410 0.319925
vt 0.462275 0.263212
vt 0.472351 0.209602
vt 0.467228 0.206775
vt 0.432098 0.201758
vt 0.443779 0.336748
vt 0.444020 0.284979
vt 0.409886 0.356324
vt 0.399026 0.361640
vt 0.393465 0.306654
vt 0.404321 0.301293
vt 0.443449 0.407699
vt 0.469539 0.799683
vt 0.464209 0.799777
vt 0.444560 0.800000
vt 0.411026 0.438900
vt 0.409866 0.799835
vt 0.400283 0.799770
vt 0.400903 0.436942
vt 0.408041 0.713183
vt 0.477288 0.438604
vt 0.479253 0.799525
vt 0.487407 0.436555
vt 0.488836 0.799374
vt 0.474736 0.384999
vt 0.485535 0.384750
vt 0.474598 0.321280
vt 0.485511 0.322785
vt 0.477218 0.275528
vt 0.487918 0.281182
vt 0.483291 0.216125
vt 0.494085 0.221506
vt 0.415452 0.209856
vt 0.401153 0.410175
vt 0.402659 0.385120
vt 0.420569 0.206983
vt 0.432124 0.286547
vt 0.398294 0.712542
vt 0.401494 0.524119
vt 0.432028 0.714648
vt 0.454477 0.799911
vt 0.402545 0.323156
vt 0.402393 0.469972
s 1
usemtl padlock_2
f 135/158/63 134/159/64 132/160/65 133/161/66
f 145/162/67 144/163/68 142/164/69 143/165/70
f 157/166/71 130/167/72 153/168/73 155/169/74
f 212/170/75 210/171/76 147/172/77 203/173/78
f 129/174/79 128/175/80 130/167/72 131/176/81
f 192/177/82 193/178/83 191/179/84 190/180/85
f 198/181/86 195/182/87 194/183/88 197/184/89
f 201/185/90 198/181/86 197/184/89 200/186/91
f 203/173/78 201/185/90 200/186/91 202/187/92
f 215/188/93 214/189/94 210/171/76 212/170/75
f 209/190/95 206/191/96 205/192/97 208/193/98
f 197/184/89 194/183/88 172/194/99 175/195/100
f 183/196/101 211/197/102 202/187/92 180/198/103
f 168/199/104 165/200/105 167/201/106 169/202/107
f 170/203/108 192/177/82 190/180/85 168/199/104
f 208/193/98 205/192/97 160/204/109 162/205/110
f 188/206/111 209/190/95 208/193/98 186/207/112
f 158/208/113 217/209/114 185/210/115 184/211/116
f 111/212/117 151/213/118 132/160/65 113/214/119
f 217/209/114 216/215/120 183/196/101 185/210/115
f 187/216/121 133/161/66 152/217/122 207/218/123
f 153/168/73 146/219/124 148/220/125 154/221/126
f 126/222/127 144/163/68 146/219/124 128/175/80
f 216/215/120 213/223/128 211/197/102 183/196/101
f 121/224/129 139/225/130 142/164/69 124/226/131
f 176/227/132 174/228/133 173/229/134 123/230/135
f 175/195/100 172/194/99 174/228/133 176/227/132
f 128/175/80 129/174/79 127/231/136 126/222/127
f 182/232/137 179/233/138 178/234/139 181/235/140
f 180/198/103 177/236/141 179/233/138 182/232/137
f 203/173/78 202/187/92 211/197/102 212/170/75
f 186/207/112 208/193/98 162/205/110 165/200/105
f 184/211/116 185/210/115 182/232/137 181/235/140
f 141/237/142 138/238/143 137/239/144 140/240/145
f 173/241/134 174/242/133 171/243/146 118/244/147
f 191/179/84 188/206/111 186/207/112 190/180/85
f 189/245/148 187/216/121 188/206/111 191/179/84
f 138/238/143 135/158/63 189/245/148 137/239/144
f 119/246/149 116/247/150 134/159/64 136/248/151
f 121/249/129 119/246/149 136/248/151 139/250/130
f 195/251/87 140/240/145 137/239/144 193/178/83
f 196/252/152 140/253/145 195/182/87 198/181/86
f 125/254/153 123/255/135 173/256/134 122/257/154
f 199/258/155 145/162/67 143/165/70 196/252/152
f 147/172/77 148/220/125 145/162/67 199/258/155
f 109/259/156 149/260/157 151/213/118 111/212/117
f 180/198/103 182/232/137 185/210/115 183/196/101
f 207/218/123 204/261/158 206/191/96 209/190/95
f 164/262/159 161/263/160 108/264/161 163/265/162
f 168/199/104 190/180/85 186/207/112 165/200/105
f 187/216/121 207/218/123 209/190/95 188/206/111
f 147/172/77 199/258/155 201/185/90 203/173/78
f 159/266/163 131/176/81 130/167/72 157/166/71
f 111/212/117 112/267/164 110/268/165 109/259/156
f 112/267/164 163/269/162 108/270/161 110/268/165
f 113/214/119 114/271/166 112/267/164 111/212/117
f 114/271/166 166/272/167 163/269/162 112/267/164
f 116/247/150 117/273/168 114/271/166 113/214/119
f 117/273/168 115/274/169 166/272/167 114/271/166
f 120/275/170 117/273/168 116/247/150 119/246/149
f 118/276/147 115/274/169 117/273/168 120/275/170
f 122/277/154 120/275/170 119/246/149 121/249/129
f 173/278/134 118/276/147 120/275/170 122/277/154
f 174/242/133 172/279/99 170/203/108 171/243/146
f 213/223/128 215/188/93 212/170/75 211/197/102
f 126/222/127 127/231/136 125/254/153 124/226/131
f 127/231/136 178/280/139 123/255/135 125/254/153
f 189/245/148 135/158/63 133/161/66 187/216/121
f 167/201/106 164/262/159 163/265/162 166/281/167
f 194/282/88 195/251/87 193/178/83 192/177/82
f 196/252/152 143/165/70 141/283/142 140/253/145
f 158/284/113 184/285/116 131/176/81 159/266/163
f 156/286/171 154/221/126 210/171/76 214/189/94
f 128/175/80 146/219/124 153/168/73 130/167/72
f 199/258/155 196/252/152 198/181/86 201/185/90
f 124/226/131 142/164/69 144/163/68 126/222/127
f 139/250/130 136/248/151 138/238/143 141/237/142
f 192/177/82 170/203/108 172/279/99 194/282/88
f 177/236/141 175/195/100 176/227/132 179/233/138
f 154/221/126 148/220/125 147/172/77 210/171/76
f 152/217/122 151/213/118 149/260/157 150/287/172
f 124/226/131 125/254/153 122/257/154 121/224/129
f 133/161/66 132/160/65 151/213/118 152/217/122
f 155/169/74 153/168/73 154/221/126 156/286/171
f 169/202/107 167/201/106 166/281/167 115/288/169
f 116/247/150 113/214/119 132/160/65 134/159/64
f 171/243/146 170/203/108 168/199/104 169/202/107
f 179/233/138 176/227/132 123/230/135 178/234/139
f 202/187/92 200/186/91 177/236/141 180/198/103
f 200/186/91 197/184/89 175/195/100 177/236/141
f 143/165/70 142/164/69 139/225/130 141/283/142
f 207/218/123 152/217/122 150/287/172 204/261/158
f 148/220/125 146/219/124 144/163/68 145/162/67
f 136/248/151 134/159/64 135/158/63 138/238/143
f 162/205/110 160/204/109 161/263/160 164/262/159
f 118/244/147 171/243/146 169/202/107 115/288/169
f 165/200/105 162/205/110 164/262/159 167/201/106
f 193/178/83 137/239/144 189/245/148 191/179/84
f 129/174/79 181/289/140 178/280/139 127/231/136
f 184/285/116 181/289/140 129/174/79 131/176/81
