# Blender 5.0.1
# www.blender.org
mtllib pen_mp_1.mtl
o pen_mp_1
v 0.008396 0.004926 0.065000
v 0.003471 0.000001 0.065000
v -0.008419 0.011891 0.065000
v -0.003494 0.000001 0.065000
v -0.008419 0.004926 0.065000
v 0.008396 0.004926 -0.065000
v 0.003471 0.016816 0.065000
v 0.008396 0.011891 0.065000
v -0.003494 0.016816 0.065000
v 0.008396 0.011891 -0.065000
v 0.008396 0.004926 -0.091000
v 0.003471 0.000001 -0.091000
v -0.003494 0.000001 -0.091000
v -0.008419 0.011891 -0.091000
v -0.008419 0.004926 -0.091000
v 0.003471 0.016816 -0.091000
v 0.008396 0.011891 -0.091000
v -0.003494 0.016816 -0.091000
v 0.010996 0.004926 -0.065000
v 0.010996 0.011891 -0.065000
v 0.012296 0.004926 -0.026000
v 0.012296 0.011891 -0.026000
v 0.001855 0.012916 -0.094900
v -0.001879 0.012916 -0.094900
v -0.004519 0.010275 -0.094900
v -0.001879 0.003901 -0.094900
v 0.001855 0.003901 -0.094900
v 0.004496 0.006541 -0.094900
v 0.004496 0.010275 -0.094900
v -0.004519 0.006541 -0.094900
v -0.000012 0.008408 -0.094900
v -0.001941 0.010340 0.091000
v 0.001920 0.006479 0.091000
v 0.001920 0.010340 0.091000
v -0.001941 0.006479 0.091000
v 0.001124 0.007275 0.091000
v -0.001145 0.007275 0.091000
v 0.001124 0.009544 0.091000
v -0.001145 0.009544 0.091000
v 0.001124 0.007275 0.093600
v -0.001145 0.007275 0.093600
v 0.001124 0.009544 0.093600
v -0.001145 0.009544 0.093600
v -0.000011 0.008405 0.094900
v 0.014896 0.004926 -0.026000
v 0.014896 0.011891 -0.026000
v 0.011907 0.007526 -0.037703
v 0.011907 0.009291 -0.037703
v 0.012298 0.007526 -0.028603
v 0.012298 0.009291 -0.028603
v 0.009698 0.007526 -0.036403
v 0.009698 0.009291 -0.036403
v 0.009698 0.007526 -0.029903
v 0.009698 0.009291 -0.029903
v 0.014898 0.011891 -0.084489
v 0.014898 0.004926 -0.084489
vn -1.0000 -0.0000 -0.0000
vn 0.7071 -0.7071 -0.0000
vn -0.7071 -0.7071 -0.0000
vn 0.7071 0.7071 -0.0000
vn 1.0000 -0.0000 -0.0000
vn -0.0000 -1.0000 -0.0000
vn -0.7071 0.7071 -0.0000
vn -0.9994 -0.0000 0.0333
vn 0.1675 0.4044 -0.8991
vn -0.1675 0.4044 -0.8991
vn -0.2597 0.6269 -0.7345
vn 0.2597 0.6269 -0.7345
vn -0.4044 0.1675 -0.8991
vn -0.6269 0.2597 -0.7345
vn -0.1675 -0.4044 -0.8991
vn 0.1675 -0.4044 -0.8991
vn 0.2597 -0.6269 -0.7345
vn -0.2597 -0.6269 -0.7345
vn 0.4044 -0.1675 -0.8991
vn 0.4044 0.1675 -0.8991
vn 0.6269 0.2597 -0.7345
vn 0.6269 -0.2597 -0.7345
vn -0.4044 -0.1675 -0.8991
vn -0.6269 -0.2597 -0.7345
vn -0.0000 -0.0000 -1.0000
vn -0.0000 -0.9703 0.2418
vn 0.9704 -0.0000 0.2417
vn -0.9703 -0.0000 0.2418
vn -0.0000 -0.0000 1.0000
vn -0.6908 0.6908 0.2133
vn 0.6908 0.6908 0.2133
vn 0.6908 -0.6908 0.2133
vn -0.6908 -0.6908 0.2134
vn -0.0000 1.0000 -0.0000
vn -0.4445 0.4449 0.7775
vn -0.4459 -0.4455 0.7763
vn -0.0000 -0.0017 1.0000
vn 0.4445 0.4449 0.7775
vn 0.4459 -0.4455 0.7763
vn -0.0000 0.9704 0.2417
vn 0.9991 -0.0000 -0.0430
vn -0.4472 -0.0000 0.8944
vn -0.5072 -0.0000 -0.8618
vn 0.7076 -0.0000 -0.7066
vt 0.953125 0.755208
vt 0.953125 0.531250
vt 0.963542 0.531250
vt 0.963542 0.755208
vt 0.901042 0.755208
vt 0.901042 0.531250
vt 0.911458 0.567708
vt 0.911458 0.755208
vt 0.973958 0.531250
vt 0.973958 0.755208
vt 0.921875 0.567708
vt 0.932292 0.531250
vt 0.932292 0.755208
vt 0.921875 0.755208
vt 0.890625 0.755208
vt 0.890625 0.531250
vt 0.942708 0.755208
vt 0.942708 0.531250
vt 0.921875 0.531250
vt 0.979406 0.797097
vt 0.989344 0.797097
vt 0.989344 0.852746
vt 0.979406 0.852746
vt 0.919442 0.914938
vt 0.919592 0.910007
vt 0.927194 0.906614
vt 0.927284 0.917907
vt 0.916157 0.906318
vt 0.919388 0.898756
vt 0.907657 0.909902
vt 0.907761 0.914716
vt 0.899877 0.917772
vt 0.900091 0.906286
vt 0.911009 0.918365
vt 0.915891 0.918190
vt 0.919131 0.926000
vt 0.907746 0.926000
vt 0.911117 0.906385
vt 0.908315 0.898546
vt 0.913577 0.912354
vt 0.908136 0.779046
vt 0.908455 0.773546
vt 0.946752 0.773546
vt 0.946177 0.783468
vt 0.943758 0.793107
vt 0.939580 0.802124
vt 0.905820 0.784044
vt 0.918245 0.822445
vt 0.909035 0.826179
vt 0.896726 0.789913
vt 0.901831 0.787844
vt 0.905253 0.857180
vt 0.899744 0.857180
vt 0.899744 0.851671
vt 0.905253 0.851671
vt 0.926595 0.817056
vt 0.933791 0.810202
vt 0.899289 0.828125
vt 0.352869 0.892633
vt 0.352869 0.895871
vt 0.349159 0.895871
vt 0.349159 0.892633
vt 0.349159 0.889396
vt 0.352869 0.889396
vt 0.362370 0.886915
vt 0.358378 0.886914
vt 0.360371 0.884918
vt 0.352869 0.882921
vt 0.352869 0.886158
vt 0.349159 0.886158
vt 0.349159 0.882921
vt 0.362370 0.882921
vt 0.358378 0.882922
vt 0.979406 0.793387
vt 0.989344 0.793387
vt 0.989344 0.800807
vt 0.979406 0.800807
vt 0.979406 0.856456
vt 0.989344 0.856456
vt 0.989344 0.860166
vt 0.979406 0.860166
vt 0.911458 0.531250
vt 0.989344 0.956613
vt 0.979406 0.956613
vt 0.979406 0.945481
vt 0.989344 0.945481
vt 0.989344 0.939914
vt 0.979406 0.939914
vt 0.979406 0.856456
vt 0.945770 0.837899
vt 0.949432 0.865715
vt 0.949329 0.921364
vt 0.945619 0.921357
vt 0.956921 0.828629
vt 0.956852 0.865729
vt 0.949432 0.865715
vt 0.944809 0.837897
vt 0.956852 0.865729
vt 0.956921 0.828629
vt 0.944809 0.837897
vt 0.949432 0.865715
vt 0.949432 0.865715
vt 0.945772 0.837899
vt 0.945619 0.921357
vt 0.949329 0.921364
s 1
usemtl misc_mp_1
f 3/1/1 14/2/1 15/3/1 5/4/1
f 2/5/2 12/6/2 6/7/2 1/8/2
f 5/4/3 15/3/3 13/9/3 4/10/3
f 10/11/4 16/12/4 7/13/4 8/14/4
f 1/8/5 6/7/5 10/11/5 8/14/5
f 4/15/6 13/16/6 12/6/6 2/5/6
f 9/17/7 18/18/7 14/2/7 3/1/7
f 10/11/4 17/19/4 16/12/4
f 20/20/8 19/21/8 21/22/8 22/23/8
f 23/24/9 24/25/10 18/26/11 16/27/12
f 24/25/10 25/28/13 14/29/14 18/26/11
f 26/30/15 27/31/16 12/32/17 13/33/18
f 28/34/19 29/35/20 17/36/21 11/37/22
f 27/31/16 28/34/19 11/37/22 12/32/17
f 25/28/13 30/38/23 15/39/24 14/29/14
f 30/38/23 26/30/15 13/33/18 15/39/24
f 29/35/20 23/24/9 16/27/12 17/36/21
f 25/28/13 24/25/10 31/40/25
f 23/24/9 31/40/25 24/25/10
f 27/31/16 26/30/15 31/40/25
f 31/40/25 23/24/9 29/35/20
f 31/40/25 26/30/15 30/38/23
f 30/38/23 25/28/13 31/40/25
f 29/35/20 28/34/19 31/40/25
f 28/34/19 27/31/16 31/40/25
f 33/41/26 35/42/26 4/43/26 2/44/26
f 1/45/27 8/46/27 34/47/27 33/41/27
f 3/48/28 5/49/28 35/50/28 32/51/28
f 32/52/29 35/53/29 33/54/29 34/55/29
f 9/56/30 3/48/30 32/51/30
f 8/46/31 7/57/31 34/47/31
f 2/44/32 1/45/32 33/41/32
f 5/49/33 4/58/33 35/50/33
f 39/59/1 37/60/1 41/61/1 43/62/1
f 39/59/34 43/62/34 42/63/34 38/64/34
f 43/65/35 41/66/36 44/67/37
f 37/68/6 36/69/6 40/70/6 41/71/6
f 38/64/5 42/63/5 40/70/5 36/69/5
f 42/72/38 44/67/37 40/73/39
f 43/65/35 44/67/37 42/72/38
f 41/66/36 40/73/39 44/67/37
f 7/57/40 9/56/40 32/51/40 34/47/40
f 10/74/29 6/75/29 19/76/29 20/77/29
f 22/78/29 21/79/29 45/80/29 46/81/29
f 11/82/2 6/7/2 12/6/2
f 7/13/34 16/12/34 18/18/34 9/17/34
f 48/78/41 50/81/41 49/80/41 47/79/41
f 52/78/1 51/79/1 53/80/1 54/81/1
f 50/81/34 48/78/34 52/78/34 54/81/34
f 49/80/42 50/81/42 54/81/42 53/80/42
f 47/79/6 49/80/6 53/80/6 51/79/6
f 48/78/43 47/79/43 51/79/43 52/78/43
f 11/83/44 17/84/44 55/85/44 56/86/44
f 56/87/5 55/88/5 46/89/5 45/79/5
f 55/90/34 20/91/34 22/92/34 46/93/34
f 17/94/34 10/95/34 20/96/34 55/97/34
f 6/98/6 11/99/6 56/100/6 19/101/6
f 19/102/6 56/103/6 45/104/6 21/105/6
