# Blender 5.0.1
# www.blender.org
mtllib photo_frame_mp_1.mtl
o photo_frame_mp_1
v -0.092540 0.000000 0.000000
v -0.092540 0.246202 -0.043412
v 0.092556 0.000000 0.000000
v 0.092556 0.246202 -0.043412
v -0.079540 0.232415 -0.040981
v -0.079540 0.012803 -0.002257
v 0.078556 0.232415 -0.040981
v 0.078556 0.012803 -0.002257
v -0.092540 0.001736 0.009848
v -0.092540 0.247938 -0.033564
v 0.092556 0.001736 0.009848
v 0.092556 0.247938 -0.033564
v -0.079540 0.233457 -0.035072
v -0.079540 0.013844 0.003651
v 0.078556 0.233457 -0.035072
v 0.078556 0.013844 0.003651
v -0.079540 0.233109 -0.037042
v -0.079540 0.013497 0.001682
v 0.078556 0.233109 -0.037042
v 0.078556 0.013497 0.001682
v 0.059031 0.000011 -0.104352
v 0.067734 0.059840 -0.081027
v 0.006554 -0.000010 -0.084717
v 0.012840 0.143958 -0.023105
v -0.035217 0.115771 -0.017638
v 0.007763 0.140980 -0.022527
v -0.030143 0.118747 -0.018216
v 0.005907 0.000758 -0.086447
v 0.058384 0.000780 -0.106081
v 0.067086 0.060609 -0.082757
v 0.012193 0.144726 -0.024834
v -0.035864 0.116539 -0.019368
v -0.032643 0.123581 -0.017445
v -0.031271 0.121222 -0.016693
v 0.006338 0.143520 -0.020865
v 0.004840 0.145804 -0.021602
v 0.007116 0.141748 -0.024256
v -0.030790 0.119515 -0.019945
v 0.005913 0.143582 -0.024849
v -0.031892 0.121409 -0.020549
v -0.032581 0.122921 -0.019619
v 0.005003 0.145204 -0.023787
v -0.086753 0.241800 -0.032482
v -0.086764 0.007425 0.008845
v 0.086313 0.241790 -0.032480
v 0.086324 0.007436 0.008843
vn -0.0000 0.9848 -0.1736
vn -0.0000 -0.1736 -0.9848
vn -0.0000 -0.9848 0.1736
vn -1.0000 -0.0000 -0.0000
vn 1.0000 -0.0000 -0.0000
vn -0.0000 0.1736 0.9848
vn 0.3237 -0.3842 0.8647
vn -0.3237 0.3842 -0.8647
vn -0.1343 -0.9233 -0.3599
vn -0.8980 -0.4125 0.1529
vn 0.9366 0.0004 -0.3504
vn -0.3979 0.7739 0.4928
vn 0.8192 0.5711 -0.0529
vn -0.0557 0.2736 0.9602
vn 0.8454 0.5278 -0.0819
vn 0.0524 -0.2756 -0.9599
vn -0.8742 -0.4709 0.1180
vn -0.5135 0.8169 -0.2626
vn 0.4847 0.1519 0.8614
vn -0.0000 -0.2968 0.9549
vn -0.0000 0.6293 0.7772
vn -0.4581 0.1543 0.8754
vt 0.291667 0.142857
vt 0.291667 0.857143
vt 0.286111 0.857143
vt 0.286111 0.142857
vt 0.566667 0.052632
vt 0.547222 0.000000
vt 0.547222 1.000000
vt 0.566667 0.947368
vt 0.819444 1.000000
vt 0.800000 0.947368
vt 0.800000 0.052632
vt 0.819444 0.000000
vt 0.286111 0.127820
vt 0.286111 0.872180
vt 0.272222 0.872180
vt 0.272222 0.127820
vt 0.286111 1.000000
vt 0.286111 0.000000
vt 0.272222 0.000000
vt 0.272222 1.000000
vt 0.019444 0.052632
vt 0.255556 0.052632
vt 0.255556 0.947368
vt 0.019444 0.947368
vt 0.291667 1.000000
vt 0.291667 0.000000
vt 1.000000 0.259209
vt 0.916893 0.000000
vt 1.000000 0.000000
vt 0.824065 0.501724
vt 0.831415 0.514609
vt 0.536111 0.353383
vt 0.541667 0.353383
vt 0.541667 0.759399
vt 0.536111 0.759399
vt 0.536111 1.000000
vt 0.541667 1.000000
vt 0.541667 0.105263
vt 0.536111 0.105263
vt 0.536111 0.323308
vt 0.541667 0.323308
vt 0.541667 0.774436
vt 0.536111 0.774436
vt 0.536111 0.789474
vt 0.541667 0.789474
vt 0.541667 0.751880
vt 0.536111 0.751880
vt 0.536111 0.225564
vt 0.541667 0.225564
vt 0.541667 0.879699
vt 0.536111 0.879699
vt 0.536111 0.488722
vt 0.541667 0.488722
vt 0.541667 0.451128
vt 0.536111 0.451128
vt 0.777778 0.969925
vt 0.777778 0.984962
vt 0.702778 0.984962
vt 0.702778 0.969925
vt 0.702778 1.000000
vt 0.777778 1.000000
vt 0.702778 0.977444
vt 0.777778 0.977444
vt 0.777778 0.992481
vt 0.702778 0.992481
vt 0.773881 0.988613
vt 0.770957 0.972279
vt 0.774541 0.972279
vt 0.777229 0.979554
vt 0.774971 0.987904
vt 0.772493 0.971517
vt 0.777229 0.971515
vt 0.777225 0.981808
vt 0.886328 0.610870
vt 0.893683 0.623764
vt 0.771169 0.987904
vt 0.768803 0.981496
vt 0.768269 0.988613
vt 0.768268 0.979554
vt 0.008657 0.976568
vt 0.008640 0.023387
vt 0.266329 0.976529
vt 0.266343 0.023432
vt 0.275000 1.000000
vt 0.000000 1.000000
vt 0.000000 0.000000
vt 0.275000 0.000000
s 0
usemtl photo_frames_mp_1
f 8/1/1 6/2/1 18/3/1 20/4/1
f 6/5/2 1/6/2 2/7/2 5/8/2
f 5/8/2 2/7/2 4/9/2 7/10/2
f 8/11/2 3/12/2 1/6/2 6/5/2
f 7/10/2 4/9/2 3/12/2 8/11/2
f 1/13/3 3/14/3 11/15/3 9/16/3
f 2/17/4 1/18/4 9/19/4 10/20/4
f 3/18/5 4/17/5 12/20/5 11/19/5
f 4/14/1 2/13/1 10/16/1 12/15/1
f 14/21/6 16/22/6 15/23/6 13/24/6
f 18/5/2 17/8/2 19/10/2 20/11/2
f 6/25/5 5/26/5 17/18/5 18/17/5
f 7/26/4 8/25/4 20/17/4 19/18/4
f 5/2/3 7/1/3 19/4/3 17/3/3
f 22/27/7 23/28/7 21/29/7
f 28/28/8 32/30/8 38/31/8
f 23/32/9 28/33/9 29/34/9 21/35/9
f 25/36/10 32/37/10 28/38/10 23/39/10
f 21/40/11 29/41/11 30/42/11 22/43/11
f 24/44/12 31/45/12 37/46/12 26/47/12
f 22/48/13 30/49/13 31/50/13 24/51/13
f 27/52/12 38/53/12 32/54/12 25/55/12
f 33/56/14 34/57/14 35/58/14 36/59/14
f 26/60/7 35/58/7 34/57/7 27/61/7
f 41/62/8 42/63/8 39/64/8 40/65/8
f 35/66/15 39/67/15 42/68/15 36/69/15
f 39/64/16 37/61/16 38/60/16 40/65/16
f 40/70/17 34/71/17 33/72/17 41/73/17
f 41/62/18 33/59/18 36/56/18 42/63/18
f 30/27/8 37/74/8 31/75/8
f 30/27/8 28/28/8 38/31/8 37/74/8
f 29/29/8 28/28/8 30/27/8
f 23/28/7 27/31/7 25/30/7
f 24/75/7 26/74/7 22/27/7
f 22/27/7 26/74/7 27/31/7 23/28/7
f 38/76/17 27/77/17 34/71/17 40/70/17
f 26/78/15 37/79/15 39/67/15 35/66/15
f 43/80/19 44/81/19 14/21/19 13/24/19
f 45/82/20 43/80/20 13/24/20 15/23/20
f 44/81/21 46/83/21 16/22/21 14/21/21
f 46/82/22 45/83/22 15/22/22 16/23/22
f 43/80/6 45/82/6 12/84/6 10/85/6
f 44/81/6 43/80/6 10/85/6 9/86/6
f 46/83/6 44/81/6 9/86/6 11/87/6
f 45/82/6 46/83/6 11/87/6 12/84/6
