# Blender 5.0.1
# www.blender.org
mtllib planter_pot_mp_1_full.mtl
o planter_pot_mp_1_full
v 0.043779 0.166400 -0.105692
v 0.080893 0.166400 -0.080893
v 0.105692 0.166400 -0.043779
v 0.000000 0.166400 -0.114400
v 0.114400 0.166400 0.000000
v 0.105692 0.166400 0.043779
v 0.080893 0.166400 0.080893
v 0.043779 0.166400 0.105692
v -0.000000 0.166400 0.114400
v -0.105692 0.166400 -0.043779
v -0.005057 -0.000000 0.012209
v -0.012209 -0.000000 0.005057
v -0.080893 0.166400 -0.080893
v -0.043779 0.166400 -0.105692
v -0.096083 0.166400 0.039799
v -0.073539 0.166400 0.073539
v -0.039799 0.166400 0.096083
v -0.114400 0.166400 -0.000000
v -0.012209 -0.000000 -0.005057
v -0.005057 -0.000000 -0.012209
v -0.043779 0.166400 0.105692
v -0.104000 0.166400 -0.000000
v -0.039799 0.166400 -0.096083
v -0.073539 0.166400 -0.073539
v -0.096083 0.166400 -0.039799
v -0.080893 0.166400 0.080893
v 0.012209 -0.000000 0.005057
v 0.005057 -0.000000 0.012209
v -0.000000 0.166400 0.104000
v -0.105692 0.166400 0.043779
v 0.039799 0.166400 0.096083
v 0.073539 0.166400 0.073539
v 0.096083 0.166400 0.039799
v 0.005057 -0.000000 -0.012209
v 0.012209 -0.000000 -0.005057
v 0.104000 0.166400 0.000000
v 0.000000 0.166400 -0.104000
v 0.096083 0.166400 -0.039799
v 0.073539 0.166400 -0.073539
v 0.039799 0.166400 -0.096083
v 0.091977 0.187200 0.038098
v 0.070396 0.187200 0.070396
v 0.038098 0.187200 0.091977
v -0.000000 0.187200 0.099555
v 0.000000 0.187200 -0.099555
v 0.038098 0.187200 -0.091977
v 0.070396 0.187200 -0.070396
v 0.091977 0.187200 -0.038098
v 0.099555 0.187200 0.000000
v -0.099555 0.187200 -0.000000
v -0.091977 0.187200 -0.038098
v -0.070396 0.187200 -0.070396
v -0.038098 0.187200 -0.091977
v -0.070396 0.187200 0.070396
v -0.091977 0.187200 0.038098
v -0.038098 0.187200 0.091977
v 0.038098 0.200720 -0.091977
v 0.070396 0.200720 -0.070396
v 0.075644 0.208000 -0.075644
v 0.091977 0.200720 -0.038098
v 0.000000 0.208000 -0.106977
v 0.000000 0.200720 -0.099555
v 0.099555 0.200720 0.000000
v 0.106977 0.208000 0.000000
v 0.091977 0.200720 0.038098
v 0.070396 0.200720 0.070396
v 0.075644 0.208000 0.075644
v 0.038098 0.200720 0.091977
v -0.000000 0.200720 0.099555
v -0.000000 0.208000 0.106977
v -0.091977 0.200720 -0.038098
v -0.070396 0.200720 -0.070396
v -0.038098 0.200720 -0.091977
v -0.106977 0.208000 -0.000000
v -0.099555 0.200720 -0.000000
v -0.038098 0.200720 0.091977
v -0.075644 0.208000 0.075644
v -0.070396 0.200720 0.070396
v -0.091977 0.200720 0.038098
v 0.105692 0.200720 0.043779
v 0.098834 0.208000 0.040938
v 0.080893 0.200720 0.080893
v 0.040938 0.208000 0.098834
v 0.043779 0.200720 0.105692
v -0.000000 0.200720 0.114400
v 0.000000 0.200720 -0.114400
v 0.040938 0.208000 -0.098834
v 0.043779 0.200720 -0.105692
v 0.080893 0.200720 -0.080893
v 0.098834 0.208000 -0.040938
v 0.105692 0.200720 -0.043779
v 0.114400 0.200720 0.000000
v -0.114400 0.200720 -0.000000
v -0.098834 0.208000 -0.040938
v -0.105692 0.200720 -0.043779
v -0.075644 0.208000 -0.075644
v -0.080893 0.200720 -0.080893
v -0.040938 0.208000 -0.098834
v -0.043779 0.200720 -0.105692
v -0.080893 0.200720 0.080893
v -0.098834 0.208000 0.040938
v -0.105692 0.200720 0.043779
v -0.043779 0.200720 0.105692
v -0.040938 0.208000 0.098834
v -0.000000 -0.000000 -0.083200
v -0.031839 -0.000000 -0.076867
v -0.031839 -0.000000 0.076867
v 0.000000 -0.000000 0.083200
v -0.083200 -0.000000 0.000000
v -0.076867 -0.000000 0.031839
v 0.076867 -0.000000 0.031839
v 0.083200 -0.000000 -0.000000
v -0.058831 -0.000000 0.058831
v -0.058831 -0.000000 -0.058831
v -0.076867 -0.000000 -0.031839
v 0.076867 -0.000000 -0.031839
v 0.058831 -0.000000 -0.058831
v 0.031839 -0.000000 -0.076867
v 0.031839 -0.000000 0.076867
v 0.058831 -0.000000 0.058831
v -0.012209 0.006500 0.005057
v -0.005057 0.006500 0.012209
v -0.005057 0.006500 -0.012209
v -0.012209 0.006500 -0.005057
v 0.012209 0.006500 0.005057
v 0.012209 0.006500 -0.005057
v 0.005057 0.006500 -0.012209
v 0.005057 0.006500 0.012209
vn -0.0000 -1.0000 -0.0000
vn -0.0000 -0.1240 0.9923
vn -0.3797 -0.1240 0.9167
vn -0.7016 -0.1240 0.7016
vn -0.9167 -0.1240 0.3797
vn -0.9923 -0.1240 -0.0000
vn -0.0000 -0.1240 -0.9923
vn -0.3797 -0.1240 -0.9167
vn -0.7016 -0.1240 -0.7016
vn -0.9167 -0.1240 -0.3797
vn 0.9923 -0.1240 -0.0000
vn 0.9167 -0.1240 -0.3797
vn 0.7016 -0.1240 -0.7016
vn 0.3797 -0.1240 -0.9167
vn 0.3797 -0.1240 0.9167
vn 0.7016 -0.1240 0.7016
vn 0.9167 -0.1240 0.3797
vn -0.9239 -0.0000 -0.3827
vn -0.3827 -0.0000 -0.9239
vn 0.0392 0.9985 -0.0392
vn 0.0212 0.9985 -0.0512
vn -0.0000 0.9985 -0.0554
vn -0.0212 0.9985 -0.0512
vn -0.0392 0.9985 -0.0392
vn -0.0512 0.9985 -0.0212
vn -0.0554 0.9985 -0.0000
vn -0.0512 0.9985 0.0212
vn -0.0392 0.9985 0.0392
vn -0.0212 0.9985 0.0512
vn -0.0000 0.9985 0.0554
vn 0.0212 0.9985 0.0512
vn 0.0392 0.9985 0.0392
vn 0.0512 0.9985 0.0212
vn 0.0554 0.9985 -0.0000
vn 0.0512 0.9985 -0.0212
vn 0.0803 0.9962 0.0333
vn 0.0614 0.9962 0.0614
vn 0.4951 0.7139 0.4951
vn 0.6469 0.7139 0.2680
vn 0.0333 0.9962 0.0803
vn 0.2680 0.7139 0.6469
vn -0.0000 0.9962 0.0869
vn -0.0000 0.7139 0.7002
vn -0.0000 0.9962 -0.0869
vn 0.0333 0.9962 -0.0803
vn 0.2680 0.7139 -0.6469
vn -0.0000 0.7139 -0.7002
vn 0.0614 0.9962 -0.0614
vn 0.4951 0.7139 -0.4951
vn 0.0803 0.9962 -0.0333
vn 0.6469 0.7139 -0.2680
vn 0.0869 0.9962 -0.0000
vn 0.7002 0.7139 -0.0000
vn -0.0869 0.9962 -0.0000
vn -0.0803 0.9962 -0.0333
vn -0.6469 0.7139 -0.2680
vn -0.7002 0.7139 -0.0000
vn -0.0614 0.9962 -0.0614
vn -0.4951 0.7139 -0.4951
vn -0.0333 0.9962 -0.0803
vn -0.2680 0.7139 -0.6469
vn -0.0614 0.9962 0.0614
vn -0.0803 0.9962 0.0333
vn -0.6469 0.7139 0.2680
vn -0.4951 0.7139 0.4951
vn -0.0333 0.9962 0.0803
vn -0.2680 0.7139 0.6469
vn -0.3827 -0.0000 0.9239
vn -0.0000 -0.0000 1.0000
vn -0.7071 -0.0000 0.7071
vn -0.9239 -0.0000 0.3827
vn -1.0000 -0.0000 -0.0000
vn 0.3827 -0.0000 0.9239
vn -0.7071 -0.0000 -0.7071
vn -0.0000 -0.0000 -1.0000
vn 0.3827 -0.0000 -0.9239
vn 0.9239 -0.0000 0.3827
vn 1.0000 -0.0000 -0.0000
vn 0.7071 -0.0000 0.7071
vn 0.9239 -0.0000 -0.3827
vn 0.7071 -0.0000 -0.7071
vt 0.219677 0.534859
vt 0.242168 0.589159
vt 0.229644 0.597528
vt 0.204903 0.537798
vt 0.396802 0.357733
vt 0.338028 0.357733
vt 0.335090 0.342960
vt 0.399741 0.342960
vt 0.338028 0.653211
vt 0.396802 0.653211
vt 0.399741 0.667985
vt 0.335089 0.667985
vt 0.451102 0.630719
vt 0.492662 0.589159
vt 0.505187 0.597528
vt 0.459471 0.643244
vt 0.242168 0.421785
vt 0.219677 0.476085
vt 0.204903 0.473146
vt 0.229644 0.413416
vt 0.515154 0.476085
vt 0.492662 0.421785
vt 0.505187 0.413416
vt 0.529928 0.473146
vt 0.589844 0.046875
vt 0.589844 0.292969
vt 0.542969 0.292969
vt 0.542969 0.046875
vt 0.496094 0.292969
vt 0.496094 0.046875
vt 0.449219 0.292969
vt 0.449219 0.046875
vt 0.402344 0.292969
vt 0.402344 0.046875
vt 0.214844 0.292969
vt 0.214844 0.046875
vt 0.261719 0.046875
vt 0.261719 0.292969
vt 0.308594 0.046875
vt 0.308594 0.292969
vt 0.355469 0.046875
vt 0.355469 0.292969
vt 0.777344 0.292969
vt 0.777344 0.046875
vt 0.824219 0.046875
vt 0.824219 0.292969
vt 0.871094 0.046875
vt 0.871094 0.292969
vt 0.917969 0.046875
vt 0.917969 0.292969
vt 0.964844 0.046875
vt 0.964844 0.292969
vt 0.636719 0.046875
vt 0.636719 0.292969
vt 0.683594 0.046875
vt 0.683594 0.292969
vt 0.730469 0.046875
vt 0.730469 0.292969
vt 0.160156 0.886719
vt 0.160156 0.898438
vt 0.167969 0.898438
vt 0.167969 0.886719
vt 0.451102 0.380225
vt 0.459471 0.367701
vt 0.283728 0.380225
vt 0.275359 0.367701
vt 0.515154 0.534859
vt 0.529928 0.537798
vt 0.283728 0.630719
vt 0.275359 0.643243
vt 0.639527 0.608019
vt 0.607734 0.560676
vt 0.596469 0.504772
vt 0.607464 0.448815
vt 0.639027 0.401319
vt 0.686369 0.369526
vt 0.742272 0.358261
vt 0.798229 0.369256
vt 0.845724 0.400819
vt 0.877518 0.448162
vt 0.888785 0.504065
vt 0.877792 0.560024
vt 0.846229 0.607522
vt 0.798886 0.639317
vt 0.742981 0.650582
vt 0.687022 0.639585
vt 0.031250 0.675781
vt 0.031250 0.617188
vt 0.054688 0.617188
vt 0.054688 0.675781
vt 0.031250 0.562500
vt 0.054688 0.562500
vt 0.031250 0.503906
vt 0.054688 0.503906
vt 0.031250 0.949219
vt 0.031250 0.894531
vt 0.054688 0.894531
vt 0.054688 0.949219
vt 0.031250 0.839844
vt 0.054688 0.839844
vt 0.031250 0.785156
vt 0.054688 0.785156
vt 0.031250 0.730469
vt 0.054688 0.730469
vt 0.031250 0.281250
vt 0.031250 0.222656
vt 0.054688 0.222656
vt 0.054688 0.281250
vt 0.031250 0.171875
vt 0.054688 0.171875
vt 0.031250 0.117188
vt 0.054688 0.117188
vt 0.031250 0.394531
vt 0.031250 0.335938
vt 0.054688 0.335938
vt 0.054688 0.394531
vt 0.031250 0.449219
vt 0.054688 0.449219
vt 0.031250 0.058594
vt 0.054688 0.058594
vt 0.144531 0.675781
vt 0.144531 0.617188
vt 0.125000 0.617188
vt 0.125000 0.675781
vt 0.144531 0.562500
vt 0.125000 0.562500
vt 0.144531 0.503906
vt 0.125000 0.503906
vt 0.144531 0.949219
vt 0.144531 0.898438
vt 0.125000 0.898438
vt 0.125000 0.949219
vt 0.144531 0.843750
vt 0.125000 0.843750
vt 0.144531 0.785156
vt 0.125000 0.785156
vt 0.144531 0.730469
vt 0.125000 0.730469
vt 0.144531 0.281250
vt 0.144531 0.222656
vt 0.125000 0.222656
vt 0.125000 0.281250
vt 0.144531 0.167969
vt 0.125000 0.167969
vt 0.144531 0.113281
vt 0.125000 0.113281
vt 0.144531 0.394531
vt 0.144531 0.335938
vt 0.125000 0.335938
vt 0.125000 0.394531
vt 0.144531 0.449219
vt 0.125000 0.449219
vt 0.144531 0.058594
vt 0.125000 0.058594
vt 0.167969 0.949219
vt 0.167969 0.843750
vt 0.167969 0.785156
vt 0.167969 0.730469
vt 0.167969 0.113281
vt 0.167969 0.058594
vt 0.167969 0.675781
vt 0.167969 0.617188
vt 0.167969 0.562500
vt 0.167969 0.503906
vt 0.167969 0.449219
vt 0.167969 0.281250
vt 0.167969 0.222656
vt 0.167969 0.167969
vt 0.167969 0.335938
vt 0.167969 0.394531
vt 0.097656 0.617188
vt 0.097656 0.675781
vt 0.097656 0.730469
vt 0.097656 0.562500
vt 0.097656 0.503906
vt 0.097656 0.449219
vt 0.097656 0.894531
vt 0.097656 0.949219
vt 0.097656 0.058594
vt 0.097656 0.117188
vt 0.097656 0.839844
vt 0.097656 0.785156
vt 0.097656 0.222656
vt 0.097656 0.281250
vt 0.097656 0.335938
vt 0.097656 0.171875
vt 0.097656 0.394531
vt 0.249224 0.528982
vt 0.348642 0.501738
vt 0.351500 0.516106
vt 0.249224 0.481962
vt 0.390925 0.623663
vt 0.363681 0.524245
vt 0.378049 0.521387
vt 0.343906 0.623663
vt 0.383330 0.494838
vt 0.371149 0.486699
vt 0.434365 0.405275
vt 0.467613 0.572422
vt 0.386188 0.509206
vt 0.356781 0.489557
vt 0.267218 0.438522
vt 0.434365 0.605669
vt 0.300465 0.605669
vt 0.485606 0.481962
vt 0.485606 0.528982
vt 0.267218 0.572422
vt 0.343905 0.387281
vt 0.467613 0.438522
vt 0.300465 0.405275
vt 0.390925 0.387281
vt 0.726500 0.516106
vt 0.761188 0.509206
vt 0.753049 0.521387
vt 0.738681 0.524245
vt 0.160156 0.851562
vt 0.160156 0.863281
vt 0.167969 0.863281
vt 0.167969 0.851562
vt 0.160156 0.875000
vt 0.167969 0.875000
vt 0.160156 0.839844
vt 0.167969 0.839844
vt 0.160156 0.910156
vt 0.167969 0.910156
vt 0.160156 0.828125
vt 0.167969 0.828125
vt 0.160156 0.816406
vt 0.167969 0.816406
vt 0.731781 0.489557
vt 0.746149 0.486699
vt 0.758330 0.494838
vt 0.723642 0.501738
s 1
usemtl potted_cactus_mp_1
f 15/1/1 16/2/1 26/3/1 30/4/1
f 37/5/1 23/6/1 14/7/1 4/8/1
f 29/9/1 31/10/1 8/11/1 9/12/1
f 32/13/1 33/14/1 6/15/1 7/16/1
f 25/17/1 22/18/1 18/19/1 10/20/1
f 38/21/1 39/22/1 2/23/1 3/24/1
f 108/25/2 29/26/2 17/27/3 107/28/3
f 107/28/3 17/27/3 16/29/4 113/30/4
f 113/30/4 16/29/4 15/31/5 110/32/5
f 110/32/5 15/31/5 22/33/6 109/34/6
f 37/35/7 105/36/7 106/37/8 23/38/8
f 23/38/8 106/37/8 114/39/9 24/40/9
f 24/40/9 114/39/9 115/41/10 25/42/10
f 25/42/10 115/41/10 109/34/6 22/33/6
f 36/43/11 112/44/11 116/45/12 38/46/12
f 38/46/12 116/45/12 117/47/13 39/48/13
f 39/48/13 117/47/13 118/49/14 40/50/14
f 40/50/14 118/49/14 105/51/7 37/52/7
f 29/26/2 108/25/2 119/53/15 31/54/15
f 31/54/15 119/53/15 120/55/16 32/56/16
f 32/56/16 120/55/16 111/57/17 33/58/17
f 33/58/17 111/57/17 112/44/11 36/43/11
f 27/59/18 28/60/19 128/61/19 125/62/18
f 40/63/1 37/5/1 4/8/1 1/64/1
f 31/10/1 32/13/1 7/16/1 8/11/1
f 24/65/1 25/17/1 10/20/1 13/66/1
f 33/14/1 36/67/1 5/68/1 6/15/1
f 23/6/1 24/65/1 13/66/1 14/7/1
f 22/18/1 15/1/1 30/4/1 18/19/1
f 17/69/1 29/9/1 9/12/1 21/70/1
f 39/22/1 40/63/1 1/64/1 2/23/1
f 36/67/1 38/21/1 3/24/1 5/68/1
f 16/2/1 17/69/1 21/70/1 26/3/1
f 54/71/20 56/72/21 44/73/22 43/74/23 42/75/24 41/76/25 49/77/26 48/78/27 47/79/28 46/80/29 45/81/30 53/82/31 52/83/32 51/84/33 50/85/34 55/86/35
f 81/87/36 67/88/37 82/89/38 80/90/39
f 67/88/37 83/91/40 84/92/41 82/89/38
f 83/91/40 70/93/42 85/94/43 84/92/41
f 61/95/44 87/96/45 88/97/46 86/98/47
f 87/96/45 59/99/48 89/100/49 88/97/46
f 59/99/48 90/101/50 91/102/51 89/100/49
f 90/101/50 64/103/52 92/104/53 91/102/51
f 74/105/54 94/106/55 95/107/56 93/108/57
f 94/106/55 96/109/58 97/110/59 95/107/56
f 96/109/58 98/111/60 99/112/61 97/110/59
f 77/113/62 101/114/63 102/115/64 100/116/65
f 104/117/66 77/113/62 100/116/65 103/118/67
f 70/93/42 104/117/66 103/118/67 85/94/43
f 101/114/63 74/105/54 93/108/57 102/115/64
f 98/111/60 61/119/44 86/120/47 99/112/61
f 64/103/52 81/87/36 80/90/39 92/104/53
f 65/121/56 66/122/59 67/123/37 81/124/36
f 66/122/59 68/125/61 83/126/40 67/123/37
f 68/125/61 69/127/47 70/128/42 83/126/40
f 62/129/43 57/130/67 87/131/45 61/132/44
f 57/130/67 58/133/65 59/134/48 87/131/45
f 58/133/65 60/135/64 90/136/50 59/134/48
f 60/135/64 63/137/57 64/138/52 90/136/50
f 75/139/53 71/140/39 94/141/55 74/142/54
f 71/140/39 72/143/38 96/144/58 94/141/55
f 72/143/38 73/145/41 98/146/60 96/144/58
f 78/147/49 79/148/51 101/149/63 77/150/62
f 76/151/46 78/147/49 77/150/62 104/152/66
f 69/127/47 76/151/46 104/152/66 70/128/42
f 79/148/51 75/139/53 74/142/54 101/149/63
f 73/145/41 62/153/43 61/154/44 98/146/60
f 63/137/57 65/121/56 81/124/36 64/138/52
f 57/130/68 62/129/69 45/155/69 46/61/68
f 58/133/70 57/130/68 46/61/68 47/156/70
f 60/135/71 58/133/70 47/156/70 48/157/71
f 63/137/72 60/135/71 48/157/71 49/158/72
f 62/153/69 73/145/73 53/159/73 45/160/69
f 65/121/18 63/137/72 49/158/72 41/161/18
f 66/122/74 65/121/18 41/161/18 42/162/74
f 68/125/19 66/122/74 42/162/74 43/163/19
f 69/127/75 68/125/19 43/163/19 44/164/75
f 76/151/76 69/127/75 44/164/75 56/165/76
f 71/140/77 75/139/78 50/166/78 51/167/77
f 72/143/79 71/140/77 51/167/77 52/168/79
f 73/145/73 72/143/79 52/168/79 53/159/73
f 75/139/78 79/148/80 55/169/80 50/166/78
f 78/147/81 76/151/76 56/165/76 54/170/81
f 79/148/80 78/147/81 54/170/81 55/169/80
f 7/171/79 6/172/77 80/90/77 82/89/79
f 6/172/77 5/173/78 92/104/78 80/90/77
f 8/174/73 7/171/79 82/89/79 84/92/73
f 9/175/69 8/174/73 84/92/73 85/94/69
f 21/176/68 9/175/69 85/94/69 103/118/68
f 1/177/76 4/178/75 86/98/75 88/97/76
f 4/179/75 14/180/19 99/112/19 86/120/75
f 2/181/81 1/177/76 88/97/76 89/100/81
f 3/182/80 2/181/81 89/100/81 91/102/80
f 5/173/78 3/182/80 91/102/80 92/104/78
f 10/183/18 18/184/72 93/108/72 95/107/18
f 18/184/72 30/185/71 102/115/71 93/108/72
f 13/186/74 10/183/18 95/107/18 97/110/74
f 14/180/19 13/186/74 97/110/74 99/112/19
f 30/185/71 26/187/70 100/116/70 102/115/71
f 26/187/70 21/176/68 103/118/68 100/116/70
f 108/188/1 11/189/1 28/190/1
f 11/189/1 108/188/1 107/191/1
f 112/192/1 27/193/1 35/194/1
f 27/193/1 112/192/1 111/195/1
f 20/196/1 19/197/1 114/198/1
f 117/199/1 35/194/1 34/200/1
f 12/201/1 11/189/1 113/202/1
f 35/194/1 117/199/1 116/203/1
f 120/204/1 28/190/1 27/193/1
f 34/200/1 105/205/1 118/206/1
f 28/190/1 119/207/1 108/188/1
f 28/190/1 120/204/1 119/207/1
f 19/197/1 12/201/1 109/208/1
f 105/205/1 20/196/1 106/209/1
f 109/208/1 12/201/1 110/210/1
f 112/192/1 35/194/1 116/203/1
f 113/202/1 11/189/1 107/191/1
f 117/199/1 34/200/1 118/206/1
f 113/202/1 110/210/1 12/201/1
f 114/198/1 106/209/1 20/196/1
f 120/204/1 27/193/1 111/195/1
f 114/198/1 19/197/1 115/211/1
f 109/208/1 115/211/1 19/197/1
f 105/205/1 34/200/1 20/196/1
f 128/212/1 127/213/1 126/214/1 125/215/1
f 20/216/73 34/217/68 127/218/68 123/219/73
f 35/220/71 27/59/18 125/62/18 126/221/71
f 19/222/77 20/216/73 123/219/73 124/223/77
f 28/60/19 11/224/76 122/225/76 128/61/19
f 34/217/68 35/220/71 126/221/71 127/218/68
f 12/226/80 19/222/77 124/223/77 121/227/80
f 11/228/76 12/226/80 121/227/80 122/229/76
f 121/230/1 124/231/1 123/232/1 122/233/1
f 122/233/1 123/232/1 127/213/1 128/212/1
