# Blender 5.0.1
# www.blender.org
mtllib planter_pot_mp_1_empty.mtl
o planter_pot_mp_1_empty
v 0.037044 0.140800 -0.089432
v 0.068448 0.140800 -0.068448
v 0.089432 0.140800 -0.037044
v 0.000000 0.140800 -0.096800
v 0.096800 0.140800 0.000000
v 0.089432 0.140800 0.037044
v 0.068448 0.140800 0.068448
v 0.037044 0.140800 0.089432
v -0.000000 0.140800 0.096800
v -0.089432 0.140800 -0.037044
v -0.004279 -0.000000 0.010331
v -0.010331 -0.000000 0.004279
v -0.068448 0.140800 -0.068448
v -0.037044 0.140800 -0.089432
v -0.081301 0.140800 0.033676
v -0.062225 0.140800 0.062225
v -0.033676 0.140800 0.081301
v -0.096800 0.140800 -0.000000
v -0.010331 -0.000000 -0.004279
v -0.004279 -0.000000 -0.010331
v -0.037044 0.140800 0.089432
v -0.088000 0.140800 -0.000000
v -0.033676 0.140800 -0.081301
v -0.062225 0.140800 -0.062225
v -0.081301 0.140800 -0.033676
v -0.068448 0.140800 0.068448
v 0.010331 -0.000000 0.004279
v 0.004279 -0.000000 0.010331
v -0.000000 0.140800 0.088000
v -0.089432 0.140800 0.037044
v 0.033676 0.140800 0.081301
v 0.062225 0.140800 0.062225
v 0.081301 0.140800 0.033676
v 0.004279 -0.000000 -0.010331
v 0.010331 -0.000000 -0.004279
v 0.088000 0.140800 0.000000
v 0.000000 0.140800 -0.088000
v 0.081301 0.140800 -0.033676
v 0.062225 0.140800 -0.062225
v 0.033676 0.140800 -0.081301
v 0.077826 0.169840 0.032237
v 0.059566 0.169840 0.059566
v 0.032237 0.169840 0.077826
v -0.000000 0.169840 0.084239
v 0.000000 0.169840 -0.084239
v 0.032237 0.169840 -0.077826
v 0.059566 0.169840 -0.059566
v 0.077826 0.169840 -0.032237
v 0.084239 0.169840 0.000000
v -0.084239 0.169840 -0.000000
v -0.077826 0.169840 -0.032237
v -0.059566 0.169840 -0.059566
v -0.032237 0.169840 -0.077826
v -0.059566 0.169840 0.059566
v -0.077826 0.169840 0.032237
v -0.032237 0.169840 0.077826
v 0.064007 0.176000 -0.064007
v 0.000000 0.176000 -0.090519
v 0.090519 0.176000 0.000000
v 0.064007 0.176000 0.064007
v -0.000000 0.176000 0.090519
v -0.090519 0.176000 -0.000000
v -0.064007 0.176000 0.064007
v 0.089432 0.169840 0.037044
v 0.083629 0.176000 0.034640
v 0.068448 0.169840 0.068448
v 0.034640 0.176000 0.083629
v 0.037044 0.169840 0.089432
v -0.000000 0.169840 0.096800
v 0.000000 0.169840 -0.096800
v 0.034640 0.176000 -0.083629
v 0.037044 0.169840 -0.089432
v 0.068448 0.169840 -0.068448
v 0.083629 0.176000 -0.034640
v 0.089432 0.169840 -0.037044
v 0.096800 0.169840 0.000000
v -0.096800 0.169840 -0.000000
v -0.083629 0.176000 -0.034640
v -0.089432 0.169840 -0.037044
v -0.064007 0.176000 -0.064007
v -0.068448 0.169840 -0.068448
v -0.034640 0.176000 -0.083629
v -0.037044 0.169840 -0.089432
v -0.068448 0.169840 0.068448
v -0.083629 0.176000 0.034640
v -0.089432 0.169840 0.037044
v -0.037044 0.169840 0.089432
v -0.034640 0.176000 0.083629
v -0.000000 -0.000000 -0.070400
v -0.026941 -0.000000 -0.065041
v -0.026941 -0.000000 0.065041
v 0.000000 -0.000000 0.070400
v -0.070400 -0.000000 0.000000
v -0.065041 -0.000000 0.026941
v 0.065041 -0.000000 0.026941
v 0.070400 -0.000000 -0.000000
v -0.049780 -0.000000 0.049780
v -0.049780 -0.000000 -0.049780
v -0.065041 -0.000000 -0.026941
v 0.065041 -0.000000 -0.026941
v 0.049780 -0.000000 -0.049780
v 0.026941 -0.000000 -0.065041
v 0.026941 -0.000000 0.065041
v 0.049780 -0.000000 0.049780
v -0.010331 0.005500 0.004279
v -0.010331 0.005500 -0.004279
v 0.010331 0.005500 0.004279
v 0.010331 0.005500 -0.004279
v 0.062259 0.005500 0.025789
v -0.000000 0.005500 0.067389
v 0.067389 0.005500 0.000000
v -0.025789 0.005500 -0.062259
v -0.047651 0.005500 0.047651
v -0.004279 0.005500 0.010331
v -0.004279 0.005500 -0.010331
v 0.004279 0.005500 0.010331
v 0.004279 0.005500 -0.010331
v 0.000000 0.005500 -0.067389
v -0.025789 0.005500 0.062259
v -0.067389 0.005500 -0.000000
v -0.062259 0.005500 0.025789
v -0.047651 0.005500 -0.047651
v -0.062259 0.005500 -0.025789
v 0.062259 0.005500 -0.025789
v 0.047651 0.005500 -0.047651
v 0.025789 0.005500 -0.062259
v 0.025789 0.005500 0.062259
v 0.047651 0.005500 0.047651
vn -0.0000 -1.0000 -0.0000
vn -0.0000 -0.1240 0.9923
vn -0.3797 -0.1240 0.9167
vn -0.7016 -0.1240 0.7016
vn -0.9167 -0.1240 0.3797
vn -0.9923 -0.1240 -0.0000
vn -0.0000 -0.1240 -0.9923
vn -0.3797 -0.1240 -0.9167
vn -0.7016 -0.1240 -0.7016
vn -0.9167 -0.1240 -0.3797
vn 0.9923 -0.1240 -0.0000
vn 0.9167 -0.1240 -0.3797
vn 0.7016 -0.1240 -0.7016
vn 0.3797 -0.1240 -0.9167
vn 0.3797 -0.1240 0.9167
vn 0.7016 -0.1240 0.7016
vn 0.9167 -0.1240 0.3797
vn -0.9239 -0.0000 -0.3827
vn -0.3827 -0.0000 -0.9239
vn 0.3797 0.1236 0.9168
vn 0.7017 0.1236 0.7017
vn 0.3798 0.1236 0.9168
vn 0.0803 0.9962 0.0333
vn 0.0614 0.9962 0.0614
vn 0.4951 0.7139 0.4951
vn 0.6469 0.7139 0.2680
vn 0.0333 0.9962 0.0803
vn 0.2680 0.7139 0.6469
vn -0.0000 0.9962 0.0869
vn -0.0000 0.7139 0.7002
vn -0.0000 0.9962 -0.0869
vn 0.0333 0.9962 -0.0803
vn 0.2680 0.7139 -0.6469
vn -0.0000 0.7139 -0.7002
vn 0.0614 0.9962 -0.0614
vn 0.4951 0.7139 -0.4951
vn 0.0803 0.9962 -0.0333
vn 0.6469 0.7139 -0.2680
vn 0.0869 0.9962 -0.0000
vn 0.7002 0.7139 -0.0000
vn -0.0869 0.9962 -0.0000
vn -0.0803 0.9962 -0.0333
vn -0.6469 0.7139 -0.2680
vn -0.7002 0.7139 -0.0000
vn -0.0614 0.9962 -0.0614
vn -0.4951 0.7139 -0.4951
vn -0.0333 0.9962 -0.0803
vn -0.2680 0.7139 -0.6469
vn -0.0614 0.9962 0.0614
vn -0.0803 0.9962 0.0333
vn -0.6469 0.7139 0.2680
vn -0.4951 0.7139 0.4951
vn -0.0333 0.9962 0.0803
vn -0.2680 0.7139 0.6469
vn 0.7071 -0.0000 0.7071
vn 0.9239 -0.0000 0.3827
vn 1.0000 -0.0000 -0.0000
vn 0.3827 -0.0000 0.9239
vn -0.0000 -0.0000 1.0000
vn -0.3827 -0.0000 0.9239
vn 0.3827 -0.0000 -0.9239
vn -0.0000 -0.0000 -1.0000
vn 0.7071 -0.0000 -0.7071
vn 0.9239 -0.0000 -0.3827
vn -1.0000 -0.0000 -0.0000
vn -0.9239 -0.0000 0.3827
vn -0.7071 -0.0000 -0.7071
vn -0.7071 -0.0000 0.7071
vn -0.0000 1.0000 -0.0000
vn -0.0000 0.1236 -0.9923
vn -0.3797 0.1236 -0.9168
vn -0.3798 0.1236 -0.9168
vn 0.9168 0.1236 -0.3797
vn 0.7017 0.1236 -0.7017
vn 0.9168 0.1236 -0.3798
vn -0.3798 0.1236 0.9168
vn -0.0000 0.1236 0.9923
vn -0.3797 0.1236 0.9168
vn 0.3798 0.1236 -0.9168
vn 0.3797 0.1236 -0.9168
vn -0.7017 0.1236 0.7017
vn -0.9168 0.1236 0.3797
vn -0.9168 0.1236 0.3798
vn 0.9923 0.1236 -0.0000
vn -0.9923 0.1236 -0.0000
vn 0.9168 0.1236 0.3798
vn 0.9168 0.1236 0.3797
vn -0.7017 0.1236 -0.7017
vn -0.9168 0.1236 -0.3798
vn -0.9168 0.1236 -0.3797
vt 0.219677 0.534859
vt 0.242168 0.589159
vt 0.229644 0.597528
vt 0.204903 0.537798
vt 0.396802 0.357733
vt 0.338028 0.357733
vt 0.335090 0.342960
vt 0.399741 0.342960
vt 0.338028 0.653211
vt 0.396802 0.653211
vt 0.399741 0.667985
vt 0.335089 0.667985
vt 0.451102 0.630719
vt 0.492662 0.589159
vt 0.505187 0.597528
vt 0.459471 0.643244
vt 0.242168 0.421785
vt 0.219677 0.476085
vt 0.204903 0.473146
vt 0.229644 0.413416
vt 0.515154 0.476085
vt 0.492662 0.421785
vt 0.505187 0.413416
vt 0.529928 0.473146
vt 0.589844 0.046875
vt 0.589844 0.292969
vt 0.542969 0.292969
vt 0.542969 0.046875
vt 0.496094 0.292969
vt 0.496094 0.046875
vt 0.449219 0.292969
vt 0.449219 0.046875
vt 0.402344 0.292969
vt 0.402344 0.046875
vt 0.214844 0.292969
vt 0.214844 0.046875
vt 0.261719 0.046875
vt 0.261719 0.292969
vt 0.308594 0.046875
vt 0.308594 0.292969
vt 0.355469 0.046875
vt 0.355469 0.292969
vt 0.777344 0.292969
vt 0.777344 0.046875
vt 0.824219 0.046875
vt 0.824219 0.292969
vt 0.871094 0.046875
vt 0.871094 0.292969
vt 0.917969 0.046875
vt 0.917969 0.292969
vt 0.964844 0.046875
vt 0.964844 0.292969
vt 0.636719 0.046875
vt 0.636719 0.292969
vt 0.683594 0.046875
vt 0.683594 0.292969
vt 0.730469 0.046875
vt 0.730469 0.292969
vt 0.160156 0.886719
vt 0.160156 0.898438
vt 0.167969 0.898438
vt 0.167969 0.886719
vt 0.451102 0.380225
vt 0.459471 0.367701
vt 0.283728 0.380225
vt 0.275359 0.367701
vt 0.515154 0.534859
vt 0.529928 0.537798
vt 0.283728 0.630719
vt 0.275359 0.643243
vt 0.031250 0.675781
vt 0.031250 0.617188
vt 0.054688 0.617188
vt 0.054688 0.675781
vt 0.031250 0.562500
vt 0.054688 0.562500
vt 0.031250 0.503906
vt 0.054688 0.503906
vt 0.031250 0.949219
vt 0.031250 0.894531
vt 0.054688 0.894531
vt 0.054688 0.949219
vt 0.031250 0.839844
vt 0.054688 0.839844
vt 0.031250 0.785156
vt 0.054688 0.785156
vt 0.031250 0.730469
vt 0.054688 0.730469
vt 0.031250 0.281250
vt 0.031250 0.222656
vt 0.054688 0.222656
vt 0.054688 0.281250
vt 0.031250 0.171875
vt 0.054688 0.171875
vt 0.031250 0.117188
vt 0.054688 0.117188
vt 0.031250 0.394531
vt 0.031250 0.335938
vt 0.054688 0.335938
vt 0.054688 0.394531
vt 0.031250 0.449219
vt 0.054688 0.449219
vt 0.031250 0.058594
vt 0.054688 0.058594
vt 0.050781 0.675781
vt 0.050781 0.617188
vt 0.050781 0.562500
vt 0.050781 0.503906
vt 0.050781 0.949219
vt 0.050781 0.898438
vt 0.031250 0.898438
vt 0.050781 0.843750
vt 0.031250 0.843750
vt 0.050781 0.785156
vt 0.050781 0.730469
vt 0.050781 0.281250
vt 0.050781 0.222656
vt 0.050781 0.167969
vt 0.031250 0.167969
vt 0.050781 0.113281
vt 0.031250 0.113281
vt 0.050781 0.394531
vt 0.050781 0.335938
vt 0.050781 0.449219
vt 0.050781 0.058594
vt 0.097656 0.617188
vt 0.097656 0.675781
vt 0.097656 0.730469
vt 0.097656 0.562500
vt 0.097656 0.503906
vt 0.097656 0.449219
vt 0.097656 0.894531
vt 0.097656 0.949219
vt 0.097656 0.058594
vt 0.097656 0.117188
vt 0.097656 0.839844
vt 0.097656 0.785156
vt 0.097656 0.222656
vt 0.097656 0.281250
vt 0.097656 0.335938
vt 0.097656 0.171875
vt 0.097656 0.394531
vt 0.249224 0.528982
vt 0.348642 0.501738
vt 0.351500 0.516106
vt 0.249224 0.481962
vt 0.390925 0.623663
vt 0.363681 0.524245
vt 0.378049 0.521387
vt 0.343906 0.623663
vt 0.383330 0.494838
vt 0.371149 0.486699
vt 0.434365 0.405275
vt 0.467613 0.572422
vt 0.386188 0.509206
vt 0.356781 0.489557
vt 0.267218 0.438522
vt 0.434365 0.605669
vt 0.300465 0.605669
vt 0.485606 0.481962
vt 0.485606 0.528982
vt 0.267218 0.572422
vt 0.343905 0.387281
vt 0.467613 0.438522
vt 0.300465 0.405275
vt 0.390925 0.387281
vt 0.473787 0.484313
vt 0.381739 0.495901
vt 0.384311 0.508833
vt 0.160156 0.851562
vt 0.160156 0.863281
vt 0.167969 0.863281
vt 0.167969 0.851562
vt 0.160156 0.875000
vt 0.167969 0.875000
vt 0.160156 0.839844
vt 0.167969 0.839844
vt 0.160156 0.910156
vt 0.167969 0.910156
vt 0.160156 0.828125
vt 0.167969 0.828125
vt 0.160156 0.816406
vt 0.167969 0.816406
vt 0.346256 0.399100
vt 0.370776 0.488576
vt 0.388574 0.399100
vt 0.427670 0.415294
vt 0.307160 0.595650
vt 0.346257 0.611844
vt 0.364054 0.522368
vt 0.457593 0.445217
vt 0.277237 0.445217
vt 0.357844 0.491148
vt 0.307160 0.415294
vt 0.457593 0.565727
vt 0.473787 0.526631
vt 0.261043 0.484313
vt 0.350519 0.502111
vt 0.388574 0.611844
vt 0.427670 0.595650
vt 0.376986 0.519796
vt 0.353092 0.515043
vt 0.277237 0.565727
vt 0.261043 0.526631
s 1
usemtl potted_cactus_mp_1
f 15/1/1 16/2/1 26/3/1 30/4/1
f 37/5/1 23/6/1 14/7/1 4/8/1
f 29/9/1 31/10/1 8/11/1 9/12/1
f 32/13/1 33/14/1 6/15/1 7/16/1
f 25/17/1 22/18/1 18/19/1 10/20/1
f 38/21/1 39/22/1 2/23/1 3/24/1
f 92/25/2 29/26/2 17/27/3 91/28/3
f 91/28/3 17/27/3 16/29/4 97/30/4
f 97/30/4 16/29/4 15/31/5 94/32/5
f 94/32/5 15/31/5 22/33/6 93/34/6
f 37/35/7 89/36/7 90/37/8 23/38/8
f 23/38/8 90/37/8 98/39/9 24/40/9
f 24/40/9 98/39/9 99/41/10 25/42/10
f 25/42/10 99/41/10 93/34/6 22/33/6
f 36/43/11 96/44/11 100/45/12 38/46/12
f 38/46/12 100/45/12 101/47/13 39/48/13
f 39/48/13 101/47/13 102/49/14 40/50/14
f 40/50/14 102/49/14 89/51/7 37/52/7
f 29/26/2 92/25/2 103/53/15 31/54/15
f 31/54/15 103/53/15 104/55/16 32/56/16
f 32/56/16 104/55/16 95/57/17 33/58/17
f 33/58/17 95/57/17 96/44/11 36/43/11
f 27/59/18 28/60/19 116/61/19 107/62/18
f 40/63/1 37/5/1 4/8/1 1/64/1
f 31/10/1 32/13/1 7/16/1 8/11/1
f 24/65/1 25/17/1 10/20/1 13/66/1
f 33/14/1 36/67/1 5/68/1 6/15/1
f 23/6/1 24/65/1 13/66/1 14/7/1
f 22/18/1 15/1/1 30/4/1 18/19/1
f 17/69/1 29/9/1 9/12/1 21/70/1
f 39/22/1 40/63/1 1/64/1 2/23/1
f 36/67/1 38/21/1 3/24/1 5/68/1
f 16/2/1 17/69/1 21/70/1 26/3/1
f 53/26/20 52/54/21 122/53/21 112/25/22
f 65/71/23 60/72/24 66/73/25 64/74/26
f 60/72/24 67/75/27 68/76/28 66/73/25
f 67/75/27 61/77/29 69/78/30 68/76/28
f 58/79/31 71/80/32 72/81/33 70/82/34
f 71/80/32 57/83/35 73/84/36 72/81/33
f 57/83/35 74/85/37 75/86/38 73/84/36
f 74/85/37 59/87/39 76/88/40 75/86/38
f 62/89/41 78/90/42 79/91/43 77/92/44
f 78/90/42 80/93/45 81/94/46 79/91/43
f 80/93/45 82/95/47 83/96/48 81/94/46
f 63/97/49 85/98/50 86/99/51 84/100/52
f 88/101/53 63/97/49 84/100/52 87/102/54
f 61/77/29 88/101/53 87/102/54 69/78/30
f 85/98/50 62/89/41 77/92/44 86/99/51
f 82/95/47 58/103/31 70/104/34 83/96/48
f 59/87/39 65/71/23 64/74/26 76/88/40
f 41/105/43 42/106/46 60/72/24 65/71/23
f 42/106/46 43/107/48 67/75/27 60/72/24
f 43/107/48 44/108/34 61/77/29 67/75/27
f 45/109/30 46/110/54 71/111/32 58/79/31
f 46/110/54 47/112/52 57/113/35 71/111/32
f 47/112/52 48/114/51 74/85/37 57/113/35
f 48/114/51 49/115/44 59/87/39 74/85/37
f 50/116/40 51/117/26 78/90/42 62/89/41
f 51/117/26 52/118/25 80/119/45 78/90/42
f 52/118/25 53/120/28 82/121/47 80/119/45
f 54/122/36 55/123/38 85/98/50 63/97/49
f 56/124/33 54/122/36 63/97/49 88/101/53
f 44/108/34 56/124/33 88/101/53 61/77/29
f 55/123/38 50/116/40 62/89/41 85/98/50
f 53/120/28 45/125/30 58/103/31 82/121/47
f 49/115/44 41/105/43 65/71/23 59/87/39
f 7/126/55 6/127/56 64/74/56 66/73/55
f 6/127/56 5/128/57 76/88/57 64/74/56
f 8/129/58 7/126/55 66/73/55 68/76/58
f 9/130/59 8/129/58 68/76/58 69/78/59
f 21/131/60 9/130/59 69/78/59 87/102/60
f 1/132/61 4/133/62 70/82/62 72/81/61
f 4/134/62 14/135/19 83/96/19 70/104/62
f 2/136/63 1/132/61 72/81/61 73/84/63
f 3/137/64 2/136/63 73/84/63 75/86/64
f 5/128/57 3/137/64 75/86/64 76/88/57
f 10/138/18 18/139/65 77/92/65 79/91/18
f 18/139/65 30/140/66 86/99/66 77/92/65
f 13/141/67 10/138/18 79/91/18 81/94/67
f 14/135/19 13/141/67 81/94/67 83/96/19
f 30/140/66 26/142/68 84/100/68 86/99/66
f 26/142/68 21/131/60 87/102/60 84/100/68
f 92/143/1 11/144/1 28/145/1
f 11/144/1 92/143/1 91/146/1
f 96/147/1 27/148/1 35/149/1
f 27/148/1 96/147/1 95/150/1
f 20/151/1 19/152/1 98/153/1
f 101/154/1 35/149/1 34/155/1
f 12/156/1 11/144/1 97/157/1
f 35/149/1 101/154/1 100/158/1
f 104/159/1 28/145/1 27/148/1
f 34/155/1 89/160/1 102/161/1
f 28/145/1 103/162/1 92/143/1
f 28/145/1 104/159/1 103/162/1
f 19/152/1 12/156/1 93/163/1
f 89/160/1 20/151/1 90/164/1
f 93/163/1 12/156/1 94/165/1
f 96/147/1 35/149/1 100/158/1
f 97/157/1 11/144/1 91/146/1
f 101/154/1 34/155/1 102/161/1
f 97/157/1 94/165/1 12/156/1
f 98/153/1 90/164/1 20/151/1
f 104/159/1 27/148/1 95/150/1
f 98/153/1 19/152/1 99/166/1
f 93/163/1 99/166/1 19/152/1
f 89/160/1 34/155/1 20/151/1
f 118/167/69 115/168/69 117/169/69
f 20/170/58 34/171/60 117/172/60 115/173/58
f 35/174/66 27/59/18 107/62/18 108/175/66
f 19/176/56 20/170/58 115/173/58 106/177/56
f 28/60/19 11/178/61 114/179/61 116/61/19
f 34/171/60 35/174/66 108/175/66 117/172/60
f 12/180/64 19/176/56 106/177/56 105/181/64
f 11/182/61 12/180/64 105/181/64 114/183/61
f 120/184/69 106/185/69 123/186/69
f 122/187/69 123/186/69 106/185/69
f 128/188/69 109/189/69 107/190/69
f 44/50/70 43/52/71 127/51/72 110/49/70
f 55/43/73 54/46/74 113/45/74 121/44/75
f 46/29/76 45/27/77 118/28/77 126/30/78
f 54/46/74 56/48/79 119/47/80 113/45/74
f 47/31/81 46/29/76 126/30/78 125/32/81
f 56/48/79 44/50/70 110/49/70 119/47/80
f 48/33/82 47/31/81 125/32/81 124/34/83
f 50/58/84 55/43/73 121/44/75 120/57/84
f 49/42/85 48/33/82 124/34/83 111/41/85
f 45/27/77 53/26/20 112/25/22 118/28/77
f 51/56/86 50/58/84 120/57/84 123/55/87
f 42/38/88 41/40/89 109/39/90 128/37/88
f 41/40/89 49/42/85 111/41/85 109/39/90
f 52/54/21 51/56/86 123/55/87 122/53/21
f 43/35/71 42/38/88 128/37/88 127/36/72
f 122/187/69 115/168/69 112/191/69
f 113/192/69 105/193/69 121/194/69
f 125/195/69 126/196/69 117/169/69
f 113/192/69 119/197/69 114/198/69
f 111/199/69 124/200/69 108/201/69
f 120/184/69 121/194/69 105/193/69
f 118/167/69 112/191/69 115/168/69
f 106/185/69 120/184/69 105/193/69
f 116/202/69 127/203/69 128/188/69
f 116/202/69 110/204/69 127/203/69
f 117/169/69 126/196/69 118/167/69
f 128/188/69 107/190/69 116/202/69
f 108/201/69 124/200/69 125/195/69
f 105/193/69 113/192/69 114/198/69
f 125/195/69 117/169/69 108/201/69
f 115/168/69 122/187/69 106/185/69
f 107/190/69 109/189/69 111/199/69
f 111/199/69 108/201/69 107/190/69
f 114/198/69 119/197/69 110/204/69
f 110/204/69 116/202/69 114/198/69
