# Blender 5.0.1
# www.blender.org
mtllib sponge_mp_1.mtl
o sponge_mp_1
v -0.050000 -0.000000 0.070000
v -0.047604 0.045788 0.067604
v -0.050000 -0.000000 -0.070000
v -0.047604 0.045788 -0.067604
v 0.050000 -0.000000 0.070000
v 0.047845 0.045788 0.067604
v 0.050000 -0.000000 -0.070000
v 0.047845 0.045788 -0.067604
v -0.046782 -0.000000 -0.000231
v -0.044387 0.041003 -0.000231
v 0.046782 -0.000000 -0.000231
v 0.044627 0.041003 -0.000231
v 0.006613 -0.000000 -0.067113
v 0.006613 0.042580 -0.064717
v -0.010210 -0.000000 0.067113
v -0.010210 0.042580 0.065198
v -0.001412 0.037904 -0.000231
vn -0.9986 0.0538 0.0002
vn -0.9974 0.0537 0.0487
vn -0.0083 0.0526 -0.9986
vn -0.0086 0.0526 -0.9986
vn -0.0700 0.0523 -0.9962
vn 0.9988 0.0483 0.0002
vn 0.9977 0.0482 -0.0482
vn 0.0122 0.0472 0.9988
vn 0.0127 0.0472 0.9988
vn 0.0703 0.0467 0.9964
vn -0.0000 -1.0000 -0.0000
vn 0.0023 1.0000 0.0005
vn 0.0695 0.9976 0.0050
vn 0.0762 0.9951 -0.0638
vn 0.0148 0.9976 -0.0682
vn -0.0090 0.9975 0.0694
vn 0.0624 0.9953 0.0737
vn 0.9977 0.0482 0.0485
vn -0.9974 0.0537 -0.0484
vn -0.0698 0.9954 0.0655
vn -0.0644 0.9979 -0.0038
vn -0.0586 0.9956 -0.0731
vn -0.0460 0.0476 0.9978
vn 0.0535 0.0526 -0.9972
vt 0.316406 0.886719
vt 0.269531 0.886719
vt 0.269531 0.824219
vt 0.316406 0.824219
vt 0.230469 0.996094
vt 0.230469 0.949219
vt 0.269531 0.949219
vt 0.269531 0.996094
vt 0.316406 0.949219
vt 0.234375 0.996094
vt 0.234375 0.949219
vt 0.408203 0.886719
vt 0.408203 0.824219
vt 0.353516 0.826172
vt 0.222656 0.886719
vt 0.179688 0.886719
vt 0.179688 0.824219
vt 0.214844 0.826172
vt 0.179688 0.949219
vt 0.369141 0.949219
vt 0.408203 0.949219
vt 0.179688 0.996094
s 1
usemtl misc_mp_2
f 9/1/1 10/2/1 4/3/2 3/4/2
f 13/5/3 14/6/4 8/7/5 7/8/5
f 11/1/6 12/2/6 6/7/7 5/9/7
f 15/10/8 16/11/9 2/7/10 1/8/10
f 11/12/11 5/13/11 15/14/11
f 17/15/12 10/16/13 2/17/14 16/18/15
f 14/6/16 4/19/17 10/16/13 17/15/12
f 13/20/11 7/21/11 11/12/11
f 7/4/18 8/3/18 12/2/6 11/1/6
f 1/9/19 2/7/19 10/2/1 9/1/1
f 8/7/20 14/6/16 17/15/12 12/2/21
f 12/2/21 17/15/12 16/18/15 6/3/22
f 5/22/23 6/19/23 16/11/9 15/10/8
f 3/22/24 4/19/24 14/6/4 13/5/3
f 13/20/11 11/12/11 15/14/11 9/1/11
f 3/9/11 13/20/11 9/1/11
f 1/4/11 9/1/11 15/14/11
