# Blender 5.0.1
# www.blender.org
mtllib sponge_mp_2.mtl
o sponge_mp_2
v -0.050000 0.045788 0.070000
v -0.043000 -0.000000 -0.070000
v -0.050000 0.045788 -0.070000
v 0.043000 -0.000000 0.070000
v 0.050000 0.045788 0.070000
v 0.043000 -0.000000 -0.070000
v 0.050000 0.045788 -0.070000
v -0.050000 0.032421 0.070000
v -0.050000 0.032421 -0.070000
v 0.050000 0.032421 -0.070000
v 0.050000 0.032421 0.070000
v -0.050000 0.005640 -0.070000
v -0.050000 0.017307 -0.070000
v 0.050000 0.017307 -0.070000
v 0.050000 0.005640 -0.070000
v 0.050000 0.005640 0.070000
v 0.050000 0.017307 0.070000
v -0.043000 -0.000000 0.070000
v -0.050000 0.017307 0.070000
v -0.050000 0.005640 0.070000
v -0.043000 0.029684 -0.070000
v 0.043000 0.029684 -0.070000
v 0.043000 0.029684 0.070000
v -0.043000 0.029684 0.070000
v -0.042998 0.021578 -0.070000
v 0.040999 0.025631 0.070000
v -0.040999 0.025631 0.070000
v 0.042998 0.021578 -0.070000
v 0.042998 0.021578 0.070000
v 0.040999 0.025631 -0.070000
v -0.040999 0.025631 -0.070000
v -0.042998 0.021578 0.070000
v -0.047000 0.043536 0.000000
v 0.040000 -0.000000 0.000000
v 0.047000 0.043536 0.000000
v 0.047000 0.032421 0.000000
v -0.047000 0.032421 0.000000
v -0.047000 0.017307 0.000000
v -0.047000 0.005640 0.000000
v 0.047000 0.017307 0.000000
v 0.047000 0.005640 0.000000
v -0.040000 0.029684 0.000000
v 0.040000 0.029684 0.000000
v -0.040000 -0.000000 0.000000
v 0.037999 0.025631 0.000000
v -0.037999 0.025631 0.000000
v 0.039998 0.021578 0.000000
v -0.039998 0.021578 0.000000
v 0.000000 -0.000000 -0.067000
v 0.000000 0.043894 -0.067000
v 0.000000 0.043894 0.067000
v 0.000000 0.032421 -0.067000
v 0.000000 0.032421 0.067000
v 0.000000 0.029684 0.067000
v 0.000000 0.029684 -0.067000
v 0.000000 -0.000000 0.067000
v 0.000000 0.021578 -0.067000
v 0.000000 0.025631 0.067000
v 0.000000 0.025631 -0.067000
v 0.000000 0.021578 0.067000
v 0.000000 0.038585 0.000000
vn -0.0000 0.0411 -0.9992
vn -0.0000 -0.0000 -1.0000
vn -0.0599 -0.0000 -0.9982
vn -0.0608 0.0159 -0.9980
vn 1.0000 -0.0000 -0.0000
vn 0.9991 -0.0000 -0.0428
vn 0.3245 -0.9459 -0.0000
vn 0.3483 -0.9373 -0.0149
vn -0.0000 -1.0000 -0.0000
vn -0.0000 -0.0000 1.0000
vn 0.0599 -0.0000 0.9982
vn 0.0608 0.0159 0.9980
vn -0.0000 0.0411 0.9992
vn -0.0000 1.0000 -0.0000
vn 0.0687 0.9976 -0.0000
vn 0.0686 0.9962 -0.0535
vn -0.0000 0.9986 -0.0536
vn 0.6814 -0.7319 -0.0000
vn 0.3641 -0.9313 -0.0000
vn 0.3641 -0.9312 -0.0156
vn 0.6704 -0.7414 -0.0287
vn -0.0000 0.0500 -0.9988
vn -0.0662 0.0636 -0.9958
vn -0.0000 0.0500 0.9988
vn 0.0662 0.0636 0.9958
vn -0.6814 -0.7319 -0.0000
vn -0.3641 -0.9313 -0.0000
vn -0.3641 -0.9312 0.0156
vn -0.6704 -0.7414 0.0287
vn 0.0509 -0.0053 -0.9987
vn 0.0444 -0.0000 -0.9990
vn -0.0000 -0.0088 1.0000
vn 0.0509 -0.0053 0.9987
vn 0.0444 -0.0000 0.9990
vn 1.0000 -0.0002 -0.0000
vn 0.9991 -0.0002 -0.0428
vn -0.0509 -0.0053 0.9987
vn -0.0712 -0.0000 0.9975
vn -0.8687 0.4953 -0.0000
vn -0.8745 0.4835 0.0375
vn -0.9035 -0.4268 0.0387
vn -0.8998 -0.4363 -0.0000
vn -0.3483 -0.9373 0.0149
vn -0.3245 -0.9459 -0.0000
vn 0.8687 0.4953 -0.0000
vn 0.8745 0.4835 -0.0375
vn 0.9035 -0.4268 -0.0387
vn 0.8998 -0.4363 -0.0000
vn -0.0444 -0.0000 -0.9990
vn -0.0509 -0.0053 -0.9987
vn -0.0000 -0.0088 -1.0000
vn 0.0712 -0.0000 -0.9975
vn -1.0000 -0.0002 -0.0000
vn -0.9991 -0.0002 0.0428
vn -0.0662 0.0636 0.9958
vn 0.0662 0.0636 -0.9958
vn -0.7415 0.6710 -0.0000
vn -0.7342 0.6782 0.0315
vn 0.7415 0.6710 -0.0000
vn 0.7342 0.6782 -0.0315
vn -0.0444 -0.0000 0.9990
vn -1.0000 -0.0000 -0.0000
vn -0.9991 -0.0000 0.0428
vn -0.9991 -0.0000 -0.0428
vn 0.7342 0.6782 0.0315
vn 0.8745 0.4835 0.0375
vn 0.9991 -0.0002 0.0428
vn -0.7342 0.6782 -0.0315
vn -0.8745 0.4835 -0.0375
vn -0.9991 -0.0002 -0.0428
vn -0.6704 -0.7414 -0.0287
vn 0.9035 -0.4268 0.0387
vn 0.3483 -0.9373 0.0149
vn -0.9035 -0.4268 -0.0387
vn -0.3483 -0.9373 -0.0149
vn 0.6704 -0.7414 0.0287
vn -0.3641 -0.9312 -0.0156
vn 0.3641 -0.9312 0.0156
vn -0.0000 0.9986 0.0536
vn 0.0686 0.9962 0.0535
vn 0.9991 -0.0000 0.0428
vn -0.0686 0.9962 0.0535
vn -0.0687 0.9976 -0.0000
vn -0.0712 -0.0000 -0.9975
vn 0.0712 -0.0000 0.9975
vn -0.0608 0.0159 0.9980
vn 0.0608 0.0159 -0.9980
vn -0.0686 0.9962 -0.0535
vn -0.0599 -0.0000 0.9982
vn 0.0599 -0.0000 -0.9982
vt 0.224609 0.962891
vt 0.224609 0.949219
vt 0.269531 0.949219
vt 0.269531 0.962891
vt 0.283203 0.886719
vt 0.269531 0.886719
vt 0.269531 0.824219
vt 0.283203 0.824219
vt 0.402344 0.886719
vt 0.402344 0.824219
vt 0.362305 0.824219
vt 0.224609 0.886719
vt 0.179688 0.886719
vt 0.179688 0.824219
vt 0.224609 0.824219
vt 0.289062 0.886719
vt 0.289062 0.824219
vt 0.224731 0.965101
vt 0.263087 0.965101
vt 0.179688 0.988669
vt 0.179688 0.977234
vt 0.186377 0.973045
vt 0.186376 0.994011
vt 0.224731 0.994011
vt 0.224731 0.973045
vt 0.263085 0.973045
vt 0.263087 0.994011
vt 0.292969 0.886719
vt 0.292969 0.824219
vt 0.269531 0.977234
vt 0.269531 0.988669
vt 0.187988 0.969073
vt 0.224731 0.969073
vt 0.304793 0.886719
vt 0.304793 0.824219
vt 0.314337 0.824219
vt 0.314337 0.886719
vt 0.322266 0.824219
vt 0.322266 0.886719
vt 0.224731 0.994011
vt 0.186376 0.965101
vt 0.298828 0.886719
vt 0.298828 0.824219
vt 0.186376 0.994011
vt 0.283203 0.949219
vt 0.298828 0.949219
vt 0.304793 0.949219
vt 0.292969 0.949219
vt 0.289062 0.949219
vt 0.314337 0.949219
vt 0.322266 0.949219
vt 0.179688 0.949219
vt 0.362305 0.949219
vt 0.402344 0.949219
vt 0.261474 0.969073
vt 0.179688 0.962891
s 1
usemtl misc_mp_2
f 52/1/1 50/2/2 7/3/3 10/4/4
f 36/5/5 35/6/5 5/7/6 11/8/6
f 34/9/7 4/10/8 56/11/9
f 51/2/10 1/3/11 8/4/12 53/1/13
f 61/12/14 33/13/15 1/14/16 51/15/17
f 43/16/18 36/5/19 11/8/20 23/17/21
f 55/18/22 52/1/1 10/4/4 22/19/23
f 54/18/24 53/1/13 8/4/12 24/19/25
f 42/16/26 37/5/27 9/8/28 21/17/29
f 12/20/2 13/21/2 25/22/30 2/23/31
f 56/24/10 60/25/32 32/26/33 18/27/34
f 45/28/35 43/16/18 23/17/21 26/29/36
f 18/27/34 32/26/33 19/30/10 20/31/10
f 60/25/32 29/22/37 26/32/38 58/33/10
f 38/34/39 13/35/40 12/36/41 39/37/42
f 39/37/42 12/36/41 2/38/43 44/39/44
f 40/34/45 17/35/46 16/36/47 41/37/48
f 41/37/48 16/36/47 4/38/8 34/39/7
f 6/27/49 28/26/50 14/30/2 15/31/2
f 49/40/2 57/25/51 28/26/50 6/27/49
f 57/25/51 25/22/30 31/32/52 59/33/2
f 46/28/53 42/16/26 21/17/29 31/29/54
f 58/33/10 26/32/38 23/41/55 54/18/24
f 59/33/2 31/32/52 21/41/56 55/18/22
f 48/42/57 46/28/53 31/29/54 25/43/58
f 48/42/57 25/43/58 13/35/40 38/34/39
f 47/42/59 45/28/35 26/29/36 29/43/60
f 47/42/59 29/43/60 17/35/46 40/34/45
f 16/20/10 17/21/10 29/22/37 4/44/61
f 33/6/62 3/7/63 9/8/63 37/5/62
f 1/3/64 33/6/62 37/5/62 8/45/64
f 28/46/65 47/42/59 40/34/45 14/47/66
f 28/46/65 30/48/67 45/28/35 47/42/59
f 32/46/68 48/42/57 38/34/39 19/47/69
f 32/46/68 27/48/70 46/28/53 48/42/57
f 27/48/70 24/49/71 42/16/26 46/28/53
f 15/50/72 41/37/48 34/39/7 6/51/73
f 14/47/66 40/34/45 41/37/48 15/50/72
f 20/50/74 39/37/42 44/39/44 18/51/75
f 19/47/69 38/34/39 39/37/42 20/50/74
f 30/48/67 22/49/76 43/16/18 45/28/35
f 24/49/71 8/45/77 37/5/27 42/16/26
f 22/49/76 10/45/78 36/5/19 43/16/18
f 50/2/79 3/52/80 33/13/15 61/12/14
f 49/53/9 6/54/73 34/9/7
f 10/45/81 7/3/81 35/6/5 36/5/5
f 7/3/82 50/2/79 61/12/14 35/6/83
f 30/55/84 59/33/2 55/18/22 22/19/23
f 27/55/85 58/33/10 54/18/24 24/19/25
f 28/26/50 57/25/51 59/33/2 30/55/84
f 2/23/31 25/22/30 57/25/51 49/40/2
f 32/26/33 60/25/32 58/33/10 27/55/85
f 4/44/61 29/22/37 60/25/32 56/24/10
f 23/41/55 11/56/86 53/1/13 54/18/24
f 21/41/56 9/56/87 52/1/1 55/18/22
f 35/6/83 61/12/14 51/15/17 5/7/88
f 5/52/89 51/2/10 53/1/13 11/56/86
f 9/56/87 3/52/90 50/2/2 52/1/1
f 18/38/75 44/39/44 56/11/9
f 49/53/9 34/9/7 56/11/9 44/39/44
f 2/51/43 49/53/9 44/39/44
