# Blender 5.0.1
# www.blender.org
mtllib toy_brick_1_2.mtl
o toy_brick_1_2
v -0.012335 0.000000 0.027337
v -0.012335 0.000000 -0.027337
v 0.012736 0.000000 0.027337
v 0.012736 0.000000 -0.027337
v -0.014999 0.020000 -0.030001
v -0.014999 0.020000 0.030001
v 0.015000 0.020000 -0.030001
v 0.015000 0.020000 0.030001
v -0.014999 0.000000 -0.030001
v -0.014999 0.000000 0.030001
v 0.015000 0.000000 -0.030001
v 0.015000 0.000000 0.030001
v -0.012335 0.017000 -0.027337
v -0.012335 0.017000 0.027337
v 0.012736 0.017000 -0.027337
v 0.012736 0.017000 0.027337
v 0.007988 0.025000 -0.028000
v 0.004453 0.025000 -0.026535
v 0.002989 0.025000 -0.022998
v 0.007988 0.025000 -0.017998
v 0.004453 0.025000 -0.019463
v 0.011524 0.025000 -0.026535
v 0.012988 0.025000 -0.022998
v 0.011524 0.025000 -0.019463
v 0.007988 0.020000 -0.028000
v 0.004453 0.020000 -0.026535
v 0.007988 0.020000 -0.017998
v 0.002989 0.020000 -0.022998
v 0.004453 0.020000 -0.019463
v 0.011524 0.020000 -0.026535
v 0.012988 0.020000 -0.022998
v 0.011524 0.020000 -0.019463
v -0.008012 0.025000 -0.027999
v -0.011547 0.025000 -0.026534
v -0.013011 0.025000 -0.022997
v -0.008012 0.025000 -0.017997
v -0.011547 0.025000 -0.019462
v -0.004476 0.025000 -0.026534
v -0.003012 0.025000 -0.022997
v -0.004476 0.025000 -0.019462
v -0.008012 0.020000 -0.027999
v -0.011547 0.020000 -0.026534
v -0.008012 0.020000 -0.017997
v -0.013011 0.020000 -0.022997
v -0.011547 0.020000 -0.019462
v -0.004476 0.020000 -0.026534
v -0.003012 0.020000 -0.022997
v -0.004476 0.020000 -0.019462
v -0.008012 0.025000 -0.013000
v -0.011547 0.025000 -0.011535
v -0.013011 0.025000 -0.007998
v -0.008012 0.025000 -0.002998
v -0.011547 0.025000 -0.004463
v -0.004476 0.025000 -0.011535
v -0.003012 0.025000 -0.007998
v -0.004476 0.025000 -0.004463
v -0.008012 0.020000 -0.013000
v -0.011547 0.020000 -0.011535
v -0.008012 0.020000 -0.002998
v -0.013011 0.020000 -0.007998
v -0.011547 0.020000 -0.004463
v -0.004476 0.020000 -0.011535
v -0.003012 0.020000 -0.007998
v -0.004476 0.020000 -0.004463
v 0.007988 0.025000 -0.013000
v 0.004453 0.025000 -0.011535
v 0.002989 0.025000 -0.007998
v 0.007988 0.025000 -0.002998
v 0.004453 0.025000 -0.004463
v 0.011524 0.025000 -0.011535
v 0.012988 0.025000 -0.007998
v 0.011524 0.025000 -0.004463
v 0.007988 0.020000 -0.013000
v 0.004453 0.020000 -0.011535
v 0.007988 0.020000 -0.002998
v 0.002989 0.020000 -0.007998
v 0.004453 0.020000 -0.004463
v 0.011524 0.020000 -0.011535
v 0.012988 0.020000 -0.007998
v 0.011524 0.020000 -0.004463
v -0.008012 0.025000 0.002662
v -0.011547 0.025000 0.004127
v -0.013011 0.025000 0.007664
v -0.008012 0.025000 0.012664
v -0.011547 0.025000 0.011199
v -0.004476 0.025000 0.004127
v -0.003012 0.025000 0.007664
v -0.004476 0.025000 0.011199
v -0.008012 0.020000 0.002662
v -0.011547 0.020000 0.004127
v -0.008012 0.020000 0.012664
v -0.013011 0.020000 0.007664
v -0.011547 0.020000 0.011199
v -0.004476 0.020000 0.004127
v -0.003012 0.020000 0.007664
v -0.004476 0.020000 0.011199
v 0.007988 0.025000 0.002662
v 0.004453 0.025000 0.004127
v 0.002989 0.025000 0.007664
v 0.007988 0.025000 0.012664
v 0.004453 0.025000 0.011199
v 0.011524 0.025000 0.004127
v 0.012988 0.025000 0.007664
v 0.011524 0.025000 0.011199
v 0.007988 0.020000 0.002662
v 0.004453 0.020000 0.004127
v 0.007988 0.020000 0.012664
v 0.002989 0.020000 0.007664
v 0.004453 0.020000 0.011199
v 0.011524 0.020000 0.004127
v 0.012988 0.020000 0.007664
v 0.011524 0.020000 0.011199
v -0.008012 0.025000 0.018000
v -0.011547 0.025000 0.019465
v -0.013011 0.025000 0.023002
v -0.008012 0.025000 0.028002
v -0.011547 0.025000 0.026537
v -0.004476 0.025000 0.019465
v -0.003012 0.025000 0.023002
v -0.004476 0.025000 0.026537
v -0.008012 0.020000 0.018000
v -0.011547 0.020000 0.019465
v -0.008012 0.020000 0.028002
v -0.013011 0.020000 0.023002
v -0.011547 0.020000 0.026537
v -0.004476 0.020000 0.019465
v -0.003012 0.020000 0.023002
v -0.004476 0.020000 0.026537
v 0.007988 0.025000 0.018000
v 0.004453 0.025000 0.019465
v 0.002989 0.025000 0.023002
v 0.007988 0.025000 0.028002
v 0.004453 0.025000 0.026537
v 0.011524 0.025000 0.019465
v 0.012988 0.025000 0.023002
v 0.011524 0.025000 0.026537
v 0.007988 0.020000 0.018000
v 0.004453 0.020000 0.019465
v 0.007988 0.020000 0.028002
v 0.002989 0.020000 0.023002
v 0.004453 0.020000 0.026537
v 0.011524 0.020000 0.019465
v 0.012988 0.020000 0.023002
v 0.011524 0.020000 0.026537
v 0.000006 0.002000 -0.006501
v 0.004602 0.002000 -0.004597
v 0.006505 0.002000 0.000002
v 0.000006 0.002000 0.006501
v 0.004602 0.002000 0.004597
v -0.004590 0.002000 -0.004597
v -0.006493 0.002000 0.000002
v -0.004590 0.002000 0.004597
v 0.000006 0.017000 -0.006501
v 0.004602 0.017000 -0.004597
v 0.000006 0.017000 0.006501
v 0.006505 0.017000 0.000002
v 0.004602 0.017000 0.004597
v -0.004590 0.017000 -0.004597
v -0.006493 0.017000 0.000002
v -0.004590 0.017000 0.004597
v 0.000006 0.002000 -0.021500
v 0.004602 0.002000 -0.019597
v 0.006505 0.002000 -0.014998
v 0.000006 0.002000 -0.008499
v 0.004602 0.002000 -0.010402
v -0.004590 0.002000 -0.019597
v -0.006493 0.002000 -0.014998
v -0.004590 0.002000 -0.010402
v 0.000006 0.017000 -0.021500
v 0.004602 0.017000 -0.019597
v 0.000006 0.017000 -0.008499
v 0.006505 0.017000 -0.014998
v 0.004602 0.017000 -0.010402
v -0.004590 0.017000 -0.019597
v -0.006493 0.017000 -0.014998
v -0.004590 0.017000 -0.010402
v 0.000006 0.002000 0.008499
v 0.004602 0.002000 0.010402
v 0.006505 0.002000 0.015001
v 0.000006 0.002000 0.021500
v 0.004602 0.002000 0.019597
v -0.004590 0.002000 0.010402
v -0.006493 0.002000 0.015001
v -0.004590 0.002000 0.019597
v 0.000006 0.017000 0.008499
v 0.004602 0.017000 0.010402
v 0.000006 0.017000 0.021500
v 0.006505 0.017000 0.015001
v 0.004602 0.017000 0.019597
v -0.004590 0.017000 0.010402
v -0.006493 0.017000 0.015001
v -0.004590 0.017000 0.019597
vn -0.0000 -0.0000 -1.0000
vn -0.0000 1.0000 -0.0000
vn -0.0000 -0.0000 1.0000
vn -1.0000 -0.0000 -0.0000
vn 1.0000 -0.0000 -0.0000
vn -0.0000 -1.0000 -0.0000
vn -1.0000 -0.0000 0.0001
vn -0.7072 -0.0000 -0.7070
vn 1.0000 -0.0000 0.0001
vn 0.7072 -0.0000 -0.7070
vn 0.7071 -0.0000 0.7071
vn -0.7071 -0.0000 0.7071
vt 0.831461 0.316667
vt 0.831461 0.433333
vt 1.000000 0.433333
vt 1.000000 0.316667
vt 0.247191 0.250000
vt 0.516854 0.250000
vt 0.516854 0.500000
vt 0.247191 0.500000
vt 0.573034 0.311111
vt 0.573034 0.438889
vt 0.752809 0.438889
vt 0.752809 0.311111
vt 0.573034 0.250000
vt 0.573034 0.500000
vt 0.752809 0.500000
vt 0.752809 0.250000
vt 0.022472 0.488889
vt 0.022472 0.261111
vt 0.000000 0.250000
vt 0.000000 0.500000
vt 0.224719 0.488889
vt 0.224719 0.261111
vt 0.831461 0.500000
vt 0.831461 0.250000
vt 1.000000 0.250000
vt 1.000000 0.500000
vt 0.396975 0.473270
vt 0.409481 0.458541
vt 0.439673 0.452440
vt 0.469865 0.458541
vt 0.482371 0.473281
vt 0.469865 0.488011
vt 0.439673 0.494112
vt 0.409481 0.488011
vt 0.573034 0.272222
vt 0.617977 0.272222
vt 0.617977 0.250000
vt 0.617977 0.438889
vt 0.617977 0.416667
vt 0.573034 0.416667
vt 0.617977 0.394444
vt 0.573034 0.394444
vt 0.617977 0.294444
vt 0.573034 0.294444
vt 0.271975 0.473270
vt 0.284481 0.458541
vt 0.314673 0.452440
vt 0.344865 0.458541
vt 0.357371 0.473281
vt 0.344865 0.488011
vt 0.314673 0.494112
vt 0.284481 0.488011
vt 0.271975 0.406864
vt 0.284481 0.392135
vt 0.314673 0.386034
vt 0.344865 0.392135
vt 0.357371 0.406875
vt 0.344865 0.421604
vt 0.314673 0.427705
vt 0.284481 0.421604
vt 0.396975 0.410771
vt 0.409481 0.396041
vt 0.439673 0.389940
vt 0.469865 0.396041
vt 0.482371 0.410781
vt 0.469865 0.425511
vt 0.439673 0.431612
vt 0.409481 0.425511
vt 0.271975 0.340458
vt 0.284481 0.325729
vt 0.314673 0.319628
vt 0.344865 0.325729
vt 0.357371 0.340469
vt 0.344865 0.355198
vt 0.314673 0.361299
vt 0.284481 0.355198
vt 0.396975 0.344364
vt 0.409481 0.329635
vt 0.439673 0.323534
vt 0.469865 0.329635
vt 0.482371 0.344375
vt 0.469865 0.359104
vt 0.439673 0.365205
vt 0.409481 0.359104
vt 0.271975 0.278833
vt 0.284481 0.264104
vt 0.314673 0.258002
vt 0.344865 0.264104
vt 0.357371 0.278844
vt 0.344865 0.293573
vt 0.314673 0.299674
vt 0.284481 0.293573
vt 0.396975 0.277958
vt 0.409481 0.263229
vt 0.439673 0.257128
vt 0.469865 0.263229
vt 0.482371 0.277969
vt 0.469865 0.292698
vt 0.439673 0.298799
vt 0.409481 0.292698
vt 0.070402 0.312698
vt 0.086552 0.293460
vt 0.125540 0.285491
vt 0.164529 0.293459
vt 0.180678 0.312712
vt 0.164529 0.331951
vt 0.125540 0.339920
vt 0.086552 0.331951
vt 0.865169 0.272222
vt 1.000000 0.272222
vt 1.000000 0.250000
vt 0.865169 0.250000
vt 0.865169 0.338889
vt 1.000000 0.338889
vt 1.000000 0.316667
vt 0.865169 0.316667
vt 1.000000 0.294444
vt 0.865169 0.294444
s 0
usemtl toy_bricks_1
f 3/1/1 1/2/1 14/3/1 16/4/1
f 6/5/2 8/6/2 7/7/2 5/8/2
f 11/9/1 9/10/1 5/11/1 7/12/1
f 10/10/3 12/9/3 8/12/3 6/11/3
f 9/13/4 10/14/4 6/15/4 5/16/4
f 12/14/5 11/13/5 7/16/5 8/15/5
f 2/17/6 1/18/6 10/19/6 9/20/6
f 4/21/6 2/17/6 9/20/6 11/8/6
f 1/18/6 3/22/6 12/5/6 10/19/6
f 3/22/6 4/21/6 11/8/6 12/5/6
f 14/18/6 13/17/6 15/21/6 16/22/6
f 1/23/5 2/24/5 13/25/5 14/26/5
f 4/24/4 3/23/4 16/26/4 15/25/4
f 2/2/3 4/1/3 15/4/3 13/3/3
s 1
f 19/27/2 21/28/2 20/29/2 24/30/2 23/31/2 22/32/2 17/33/2 18/34/2
f 28/35/7 19/36/7 18/37/8 26/13/8
f 26/10/8 18/38/8 17/39/1 25/40/1
f 23/36/9 31/35/9 30/13/10 22/37/10
f 22/41/10 30/42/10 25/40/1 17/39/1
f 31/35/9 23/36/9 24/43/11 32/44/11
f 32/42/11 24/41/11 20/39/3 27/40/3
f 19/36/7 28/35/7 29/44/12 21/43/12
f 21/38/12 29/10/12 27/40/3 20/39/3
f 35/45/2 37/46/2 36/47/2 40/48/2 39/49/2 38/50/2 33/51/2 34/52/2
f 44/35/7 35/36/7 34/37/8 42/13/8
f 42/10/8 34/38/8 33/39/1 41/40/1
f 39/36/9 47/35/9 46/13/10 38/37/10
f 38/41/10 46/42/10 41/40/1 33/39/1
f 47/35/9 39/36/9 40/43/11 48/44/11
f 48/42/11 40/41/11 36/39/3 43/40/3
f 35/36/7 44/35/7 45/44/12 37/43/12
f 37/38/12 45/10/12 43/40/3 36/39/3
f 51/53/2 53/54/2 52/55/2 56/56/2 55/57/2 54/58/2 49/59/2 50/60/2
f 60/35/7 51/36/7 50/37/8 58/13/8
f 58/10/8 50/38/8 49/39/1 57/40/1
f 55/36/9 63/35/9 62/13/10 54/37/10
f 54/41/10 62/42/10 57/40/1 49/39/1
f 63/35/9 55/36/9 56/43/11 64/44/11
f 64/42/11 56/41/11 52/39/3 59/40/3
f 51/36/7 60/35/7 61/44/12 53/43/12
f 53/38/12 61/10/12 59/40/3 52/39/3
f 67/61/2 69/62/2 68/63/2 72/64/2 71/65/2 70/66/2 65/67/2 66/68/2
f 76/35/7 67/36/7 66/37/8 74/13/8
f 74/10/8 66/38/8 65/39/1 73/40/1
f 71/36/9 79/35/9 78/13/10 70/37/10
f 70/41/10 78/42/10 73/40/1 65/39/1
f 79/35/9 71/36/9 72/43/11 80/44/11
f 80/42/11 72/41/11 68/39/3 75/40/3
f 67/36/7 76/35/7 77/44/12 69/43/12
f 69/38/12 77/10/12 75/40/3 68/39/3
f 83/69/2 85/70/2 84/71/2 88/72/2 87/73/2 86/74/2 81/75/2 82/76/2
f 92/35/7 83/36/7 82/37/8 90/13/8
f 90/10/8 82/38/8 81/39/1 89/40/1
f 87/36/9 95/35/9 94/13/10 86/37/10
f 86/41/10 94/42/10 89/40/1 81/39/1
f 95/35/9 87/36/9 88/43/11 96/44/11
f 96/42/11 88/41/11 84/39/3 91/40/3
f 83/36/7 92/35/7 93/44/12 85/43/12
f 85/38/12 93/10/12 91/40/3 84/39/3
f 99/77/2 101/78/2 100/79/2 104/80/2 103/81/2 102/82/2 97/83/2 98/84/2
f 108/35/7 99/36/7 98/37/8 106/13/8
f 106/10/8 98/38/8 97/39/1 105/40/1
f 103/36/9 111/35/9 110/13/10 102/37/10
f 102/41/10 110/42/10 105/40/1 97/39/1
f 111/35/9 103/36/9 104/43/11 112/44/11
f 112/42/11 104/41/11 100/39/3 107/40/3
f 99/36/7 108/35/7 109/44/12 101/43/12
f 101/38/12 109/10/12 107/40/3 100/39/3
f 115/85/2 117/86/2 116/87/2 120/88/2 119/89/2 118/90/2 113/91/2 114/92/2
f 124/35/7 115/36/7 114/37/8 122/13/8
f 122/10/8 114/38/8 113/39/1 121/40/1
f 119/36/9 127/35/9 126/13/10 118/37/10
f 118/41/10 126/42/10 121/40/1 113/39/1
f 127/35/9 119/36/9 120/43/11 128/44/11
f 128/42/11 120/41/11 116/39/3 123/40/3
f 115/36/7 124/35/7 125/44/12 117/43/12
f 117/38/12 125/10/12 123/40/3 116/39/3
f 131/93/2 133/94/2 132/95/2 136/96/2 135/97/2 134/98/2 129/99/2 130/100/2
f 140/35/7 131/36/7 130/37/8 138/13/8
f 138/10/8 130/38/8 129/39/1 137/40/1
f 135/36/9 143/35/9 142/13/10 134/37/10
f 134/41/10 142/42/10 137/40/1 129/39/1
f 143/35/9 135/36/9 136/43/11 144/44/11
f 144/42/11 136/41/11 132/39/3 139/40/3
f 131/36/7 140/35/7 141/44/12 133/43/12
f 133/38/12 141/10/12 139/40/3 132/39/3
f 147/101/6 149/102/6 148/103/6 152/104/6 151/105/6 150/106/6 145/107/6 146/108/6
f 156/109/9 147/110/9 146/111/10 154/112/10
f 154/113/10 146/114/10 145/115/1 153/116/1
f 151/110/7 159/109/7 158/112/8 150/111/8
f 150/117/8 158/118/8 153/116/1 145/115/1
f 159/109/7 151/110/7 152/117/12 160/118/12
f 160/118/12 152/117/12 148/115/3 155/116/3
f 147/110/9 156/109/9 157/118/11 149/117/11
f 149/114/11 157/113/11 155/116/3 148/115/3
f 163/101/6 165/102/6 164/103/6 168/104/6 167/105/6 166/106/6 161/107/6 162/108/6
f 172/109/9 163/110/9 162/111/10 170/112/10
f 170/113/10 162/114/10 161/115/1 169/116/1
f 167/110/7 175/109/7 174/112/8 166/111/8
f 166/117/8 174/118/8 169/116/1 161/115/1
f 175/109/7 167/110/7 168/117/12 176/118/12
f 176/118/12 168/117/12 164/115/3 171/116/3
f 163/110/9 172/109/9 173/118/11 165/117/11
f 165/114/11 173/113/11 171/116/3 164/115/3
f 179/101/6 181/102/6 180/103/6 184/104/6 183/105/6 182/106/6 177/107/6 178/108/6
f 188/109/9 179/110/9 178/111/10 186/112/10
f 186/113/10 178/114/10 177/115/1 185/116/1
f 183/110/7 191/109/7 190/112/8 182/111/8
f 182/117/8 190/118/8 185/116/1 177/115/1
f 191/109/7 183/110/7 184/117/12 192/118/12
f 192/118/12 184/117/12 180/115/3 187/116/3
f 179/110/9 188/109/9 189/118/11 181/117/11
f 181/114/11 189/113/11 187/116/3 180/115/3
