# Blender 5.0.1
# www.blender.org
mtllib underwear_mp_1.mtl
o underwear_mp_1
v 0.175954 0.000000 -0.148390
v -0.174079 0.000000 -0.148390
v -0.218035 0.002560 0.106526
v -0.028577 0.002560 0.147745
v -0.008509 0.000000 0.120540
v -0.000001 0.000000 0.115353
v 0.008446 0.000000 0.120540
v 0.029564 0.002560 0.147746
v 0.219613 0.002560 0.106525
v -0.008509 0.010563 0.120540
v -0.000001 0.012819 0.115353
v 0.008446 0.010563 0.120540
v 0.004717 0.031264 0.021297
v 0.002953 0.021550 0.077708
v -0.211953 0.004000 0.033919
v 0.219682 0.004000 0.029890
v 0.204602 0.004000 -0.020500
v -0.192253 0.004000 -0.019095
v -0.196263 0.004000 -0.080207
v 0.185130 0.004000 -0.080878
v 0.004532 0.033167 -0.037237
v 0.175954 0.004000 -0.148390
v -0.174079 0.004000 -0.148390
v -0.090019 0.014035 -0.117537
v -0.053294 0.014756 -0.102235
v -0.025343 0.015667 -0.096727
v 0.004348 0.017403 -0.095707
v 0.041378 0.015667 -0.097951
v 0.072185 0.014756 -0.106317
v 0.122033 0.012000 -0.126417
v -0.053294 0.010756 -0.102235
v -0.025343 0.011667 -0.096727
v 0.004348 0.013403 -0.095707
v 0.041378 0.011667 -0.097951
v 0.072185 0.010756 -0.106317
v 0.122033 0.008000 -0.126417
v -0.090019 0.010035 -0.117537
v 0.041268 0.030348 -0.045965
v 0.078002 0.024050 -0.054693
v 0.043606 0.026283 0.012938
v 0.082495 0.021101 0.004579
v 0.132261 0.018832 -0.003781
v -0.035765 0.026283 0.013219
v -0.076247 0.021101 0.005140
v -0.131285 0.018832 -0.002938
v -0.110106 0.022832 -0.063019
v -0.071895 0.024050 -0.054425
v -0.033681 0.030348 -0.045831
v 0.125612 0.022832 -0.063421
v -0.090019 0.004000 -0.109537
v -0.053294 0.004000 -0.094235
v -0.025343 0.004000 -0.088727
v 0.004348 0.004000 -0.087707
v 0.041378 0.004000 -0.089951
v 0.072185 0.004000 -0.098317
v 0.122033 0.004000 -0.118417
v -0.025343 0.008000 -0.088727
v 0.004348 0.008000 -0.087707
v 0.041378 0.008000 -0.089951
v 0.072185 0.008000 -0.098317
v 0.122033 0.008000 -0.118417
v -0.090019 0.008000 -0.109537
v -0.053294 0.008000 -0.094235
v -0.036532 0.020549 0.071698
v -0.104351 0.018832 0.057101
v 0.047934 0.020549 0.069210
v 0.101788 0.018832 0.056419
v -0.171585 0.014444 0.116632
v -0.123306 0.018930 0.127135
v -0.075026 0.014444 0.137639
v 0.076132 0.013217 0.137646
v 0.124588 0.017752 0.127135
v 0.173045 0.013217 0.116625
v 0.148806 0.014051 0.044709
v -0.157131 0.015014 0.048930
v -0.220536 0.000000 0.105982
v -0.026075 0.000000 0.148289
v -0.074690 0.016983 0.137712
v -0.026075 0.002560 0.148289
v -0.220536 0.002560 0.105982
v -0.171921 0.016983 0.116559
v -0.123306 0.021500 0.127135
v 0.027062 0.000000 0.148289
v 0.222115 0.000000 0.105982
v 0.173352 0.015759 0.116559
v 0.222115 0.002560 0.105982
v 0.027062 0.002560 0.148289
v 0.075825 0.015759 0.137712
v 0.124588 0.020322 0.127135
v 0.034827 0.003320 0.126140
v 0.205871 0.003320 0.089040
v 0.163960 0.012911 0.098131
v 0.076738 0.012911 0.117049
v 0.120349 0.016992 0.107590
v -0.204310 0.003378 0.089045
v -0.033798 0.003378 0.126141
v -0.075603 0.014074 0.117046
v -0.162505 0.014074 0.098140
v -0.119054 0.018111 0.107593
v -0.196264 0.000000 -0.080207
v -0.192253 0.000000 -0.019094
v -0.211951 0.000000 0.033919
v 0.219680 0.000000 0.029890
v 0.204600 0.000000 -0.020499
v 0.185131 0.000000 -0.080877
vn -0.0129 -0.0000 -0.9999
vn 0.1165 -0.0000 -0.9932
vn 0.1119 -0.0000 -0.9937
vn -0.0133 -0.0000 -0.9999
vn 0.0108 0.9770 0.2131
vn 0.0032 0.9834 0.1816
vn -0.0066 0.9940 0.1088
vn -0.1291 0.9883 0.0815
vn 0.0053 0.9932 0.1166
vn 0.1330 0.9878 0.0806
vn -0.1515 0.9879 -0.0322
vn -0.0366 0.9993 0.0059
vn -0.1316 0.9913 0.0073
vn 0.2920 -0.0000 -0.9564
vn 0.2889 -0.0000 -0.9574
vn 0.7485 0.6387 -0.1781
vn 0.1171 0.9912 -0.0611
vn 0.1302 0.9913 0.0189
vn 0.7505 0.6296 -0.2009
vn -0.6928 -0.0000 0.7212
vn -0.8304 -0.0000 0.5571
vn -0.6694 -0.0000 0.7429
vn 0.9751 -0.0000 -0.2217
vn 0.9909 0.0001 -0.1347
vn 0.8058 0.5722 -0.1526
vn -0.0000 -0.0000 -1.0000
vn -0.7750 0.6042 -0.1850
vn -0.7349 0.6703 -0.1028
vn -0.9895 -0.0000 -0.1446
vn -0.9720 -0.0002 -0.2350
vn -0.9923 0.0001 -0.1242
vn -0.7884 0.6028 -0.1227
vn -0.7175 0.6375 -0.2808
vn -0.9509 0.0001 -0.3094
vn -0.0087 -0.9992 0.0400
vn 0.1607 -0.9821 0.0985
vn 0.1397 -0.9863 0.0883
vn 0.8449 -0.0000 0.5349
vn 0.7011 -0.0000 0.7130
vn 0.6761 -0.0000 0.7368
vn -0.7683 0.6320 -0.1011
vn -0.9930 -0.0003 -0.1183
vn -0.0016 -0.0000 1.0000
vn -0.0013 -0.0000 1.0000
vn 0.1154 0.9849 -0.1291
vn -0.0391 0.9649 -0.2598
vn -0.0877 0.9904 -0.1064
vn -0.0000 0.9961 -0.0878
vn -0.0031 0.9635 -0.2679
vn -0.1646 -0.0000 -0.9864
vn -0.1597 -0.0000 -0.9872
vn -0.3200 -0.0000 -0.9474
vn -0.3171 -0.0000 -0.9484
vn -0.3757 -0.0000 -0.9267
vn -0.3756 -0.0000 -0.9268
vn -0.0939 0.9940 -0.0569
vn -0.0553 0.9885 -0.1405
vn 0.3641 -0.0000 -0.9313
vn 0.3446 -0.0000 -0.9388
vn 0.3655 -0.0000 -0.9308
vn -0.0823 -0.9945 -0.0641
vn -0.0740 -0.9973 -0.0000
vn -0.0881 -0.9900 -0.1098
vn 0.1464 -0.9546 -0.2594
vn 0.1114 -0.9404 -0.3212
vn 0.1044 -0.9359 -0.3364
vn 0.1392 -0.9530 -0.2692
vn 0.0666 -0.9004 -0.4299
vn -0.0044 -0.8699 -0.4932
vn -0.0036 -0.8699 -0.4932
vn 0.0638 -0.8971 -0.4372
vn -0.3774 -0.0000 -0.9261
vn 0.0140 0.9804 -0.1963
vn 0.0589 0.9952 -0.0781
vn 0.0345 0.9690 -0.2448
vn 0.0866 0.9911 -0.1015
vn -0.0144 0.9778 -0.2088
vn -0.0528 0.9955 -0.0783
vn 0.4022 -0.0000 -0.9156
vn 0.4196 -0.0000 -0.9077
vn 0.4019 -0.0000 -0.9157
vn -0.0857 0.9953 0.0459
vn 0.0914 0.9947 0.0480
vn -0.4858 -0.0000 -0.8740
vn -0.4307 -0.0000 -0.9025
vn -0.4296 -0.0000 -0.9030
vn 0.2904 -0.0000 -0.9569
vn -0.3186 -0.0000 -0.9479
vn -0.1621 -0.0000 -0.9868
vn -0.0131 -0.0000 -0.9999
vn 0.1142 -0.0000 -0.9935
vn -0.0000 1.0000 -0.0000
vn -0.1036 -0.9620 -0.2528
vn -0.1072 -0.9506 -0.2914
vn -0.0849 -0.8999 -0.4277
vn -0.0792 -0.8952 -0.4387
vn 0.0128 0.9944 0.1048
vn 0.0464 0.9988 0.0141
vn 0.1382 0.9904 -0.0095
vn 0.1380 0.9895 -0.0425
vn 0.7440 0.6668 -0.0437
vn 0.7763 0.6185 -0.1218
vn 0.0357 0.9993 -0.0123
vn -0.1010 0.9752 0.1970
vn -0.1015 0.9750 0.1978
vn -0.0571 0.9927 0.1062
vn 0.1580 -0.9570 -0.2434
vn -0.0000 -1.0000 -0.0000
vn -0.1509 0.9874 -0.0468
vn 0.1238 0.9694 0.2121
vn 0.0631 0.9934 0.0961
vn -0.0274 0.9994 -0.0191
vn -0.2126 -0.0000 0.9771
vn 0.2120 -0.0000 0.9773
vn -0.1982 -0.9736 0.1135
vn -0.1487 -0.9848 0.0894
vn -0.1310 -0.9881 0.0807
vn 0.0080 -0.9993 0.0371
vn 0.1724 -0.9848 0.0197
vn 0.2274 -0.9736 0.0212
vn 0.1527 -0.9881 0.0192
vn 0.0080 0.9993 0.0371
vn -0.2528 -0.9672 0.0244
vn -0.1871 -0.9821 0.0229
vn -0.1637 -0.9863 0.0223
vn 0.2198 -0.9672 0.1273
vn -0.0087 0.9992 0.0400
vn 0.1240 0.9691 0.2132
vn 0.9995 -0.0002 -0.0320
vn 0.9870 -0.0003 -0.1607
vn 0.9549 -0.0003 -0.2968
vt 0.254022 0.797447
vt 0.222562 0.800613
vt 0.249413 0.142673
vt 0.252544 0.259461
vt 0.210709 0.278104
vt 0.211519 0.459527
vt 0.254414 0.434461
vt 0.295618 0.460396
vt 0.082921 0.348736
vt 0.138847 0.323388
vt 0.110307 0.509650
vt 0.192944 0.817698
vt 0.448839 0.751442
vt 0.382513 0.697286
vt 0.389561 0.512262
vt 0.460448 0.564129
vt 0.257426 0.147169
vt 0.280164 0.051835
vt 0.282652 0.056949
vt 0.267691 0.168271
vt 0.448838 0.751438
vt 0.435857 0.960884
vt 0.064963 0.960884
vt 0.029682 0.395306
vt 0.039940 0.559770
vt 0.039941 0.559770
vt 0.029682 0.395308
vt 0.051768 0.749359
vt 0.051768 0.749360
vt 0.118762 0.106119
vt 0.067605 0.138702
vt 0.077226 0.196072
vt 0.123269 0.166745
vt 0.218037 0.060500
vt 0.243082 0.148124
vt 0.233482 0.171772
vt 0.215710 0.066231
vt 0.015736 0.171744
vt 0.250681 0.174711
vt 0.239030 0.203410
vt 0.250681 0.175451
vt 0.263139 0.201060
vt 0.378720 0.892719
vt 0.213728 0.642714
vt 0.254218 0.616052
vt 0.293258 0.804407
vt 0.325901 0.830361
vt 0.132748 0.696037
vt 0.154032 0.865169
vt 0.378720 0.867898
vt 0.192944 0.792878
vt 0.154032 0.840351
vt 0.254022 0.772626
vt 0.222562 0.775792
vt 0.332065 0.670207
vt 0.293142 0.643131
vt 0.173235 0.669379
vt 0.168626 0.484584
vt 0.336825 0.486331
vt 0.325901 0.805540
vt 0.293258 0.779590
vt 0.300207 0.285821
vt 0.357267 0.325503
vt 0.407089 0.361831
vt 0.433096 0.138932
vt 0.484768 0.171744
vt 0.470134 0.407803
vt 0.381429 0.106119
vt 0.258364 0.126581
vt 0.278090 0.040495
vt 0.329760 0.073307
vt 0.740401 0.126581
vt 0.721786 0.040495
vt 0.515736 0.171744
vt 0.984768 0.171744
vt 0.778090 0.040495
vt 0.758364 0.126581
vt 0.935857 0.960884
vt 0.749413 0.142673
vt 0.564963 0.960884
vt 0.529684 0.395307
vt 0.970135 0.407804
vt 0.067249 0.138932
vt 0.240401 0.126581
vt 0.170276 0.073307
vt 0.219136 0.042181
vt 0.018389 0.170054
vt 0.221786 0.040495
vt 0.169920 0.073533
vt 0.482116 0.170061
vt 0.280743 0.042177
vt 0.432775 0.138725
vt 0.330084 0.073514
vt 0.286315 0.109206
vt 0.467556 0.224303
vt 0.423147 0.196102
vt 0.376937 0.166753
vt 0.330726 0.137407
vt 0.032929 0.224288
vt 0.213603 0.109202
vt 0.169309 0.137418
vt 0.470137 0.407805
vt 0.460448 0.564129
vt 0.948841 0.751439
vt 0.960446 0.564128
vt 0.551767 0.749359
vt 0.539941 0.559770
s 1
usemtl underwear_mp_1
f 33/1/1 32/2/2 26/2/3 27/1/4
f 11/3/5 14/4/6 64/5/7
f 43/6/8 14/4/6 13/7/9
f 40/8/10 13/7/9 14/4/6
f 75/9/11 65/10/12 45/11/13
f 32/2/2 31/12/14 25/12/15 26/2/3
f 20/13/16 49/14/17 42/15/18 17/16/19
f 7/17/20 83/18/21 87/19/21 12/20/22
f 105/21/23 1/22/24 22/22/25 20/13/16
f 1/22/26 2/23/26 23/23/26 22/22/26
f 15/24/27 18/25/28 101/26/29 102/27/30
f 100/28/31 19/29/32 23/23/33 2/23/34
f 69/30/35 68/31/36 98/32/37 99/33/35
f 77/34/38 5/35/39 10/36/40 79/37/38
f 80/38/41 15/24/27 102/27/30 76/38/42
f 5/35/39 6/39/43 11/40/44 10/36/40
f 6/41/43 7/17/20 12/20/22 11/42/44
f 30/43/45 49/14/17 20/13/16 22/22/25
f 26/2/46 48/44/47 21/45/48 27/1/49
f 34/46/50 33/1/1 27/1/4 28/46/51
f 35/47/52 34/46/50 28/46/51 29/47/53
f 36/43/54 35/47/52 29/47/53 30/43/55
f 19/29/32 46/48/56 24/49/57 23/23/33
f 37/49/58 23/23/59 24/49/60
f 31/12/14 37/49/58 24/49/60 25/12/15
f 36/43/61 22/22/62 61/50/63
f 37/49/64 31/12/65 63/51/66 62/52/67
f 32/2/68 33/1/69 58/53/70 57/54/71
f 31/12/65 32/2/68 57/54/71 63/51/66
f 22/22/72 36/43/54 30/43/55
f 29/47/73 39/55/74 49/14/17 30/43/45
f 28/46/75 38/56/76 39/55/74 29/47/73
f 27/1/49 21/45/48 38/56/76 28/46/75
f 25/12/77 47/57/78 48/44/47 26/2/46
f 24/49/57 46/48/56 47/57/78 25/12/77
f 50/52/79 23/23/80 62/52/81
f 46/48/56 45/11/13 44/58/82 47/57/78
f 47/57/78 44/58/82 43/6/8 48/44/47
f 48/44/47 43/6/8 13/7/9 21/45/48
f 40/8/10 38/56/76 21/45/48 13/7/9
f 41/59/83 39/55/74 38/56/76 40/8/10
f 42/15/18 49/14/17 39/55/74 41/59/83
f 22/22/84 56/50/85 61/50/86
f 51/51/87 50/52/79 62/52/81 63/51/87
f 18/25/28 45/11/13 46/48/56 19/29/32
f 56/50/85 55/60/88 60/60/88 61/50/86
f 55/60/88 54/61/89 59/61/89 60/60/88
f 54/61/89 53/53/90 58/53/90 59/61/89
f 52/54/91 51/51/87 63/51/87 57/54/91
f 53/53/90 52/54/91 57/54/91 58/53/90
f 22/22/92 53/53/92 54/61/92
f 35/47/93 36/43/61 61/50/63 60/60/94
f 34/46/95 35/47/93 60/60/94 59/61/96
f 33/1/69 34/46/95 59/61/96 58/53/70
f 11/3/5 66/62/97 14/4/6
f 42/15/18 67/63/98 74/64/99
f 41/59/83 66/62/97 67/63/98
f 40/8/10 14/4/6 66/62/97
f 64/5/7 14/4/6 43/6/8
f 65/10/12 64/5/7 44/58/82
f 74/64/99 85/65/100 86/66/101 16/67/102
f 67/63/98 89/68/103 85/65/100 74/64/99
f 12/69/104 87/70/105 88/71/106
f 17/16/19 42/15/18 74/64/99 16/67/102
f 23/23/107 37/49/64 62/52/67
f 41/59/83 40/8/10 66/62/97
f 45/11/13 65/10/12 44/58/82
f 44/58/82 64/5/7 43/6/8
f 42/15/18 41/59/83 67/63/98
f 5/72/108 77/73/108 76/74/108
f 84/75/108 83/76/108 7/77/108
f 1/78/108 6/79/108 2/80/108
f 5/72/108 76/74/108 102/81/108
f 7/77/108 103/82/108 84/75/108
f 81/83/109 75/9/11 15/24/27 80/38/41
f 10/84/110 11/3/5 64/5/7
f 66/62/97 88/71/106 89/68/103 67/63/98
f 78/85/111 64/5/7 65/10/12 82/30/112
f 82/30/112 65/10/12 75/9/11 81/83/109
f 15/24/27 75/9/11 45/11/13 18/25/28
f 4/86/113 3/87/113 76/38/113 77/88/113
f 70/89/113 4/86/113 79/88/113 78/85/113
f 3/87/113 80/38/113 76/38/113
f 4/86/113 77/88/113 79/88/113
f 3/87/113 68/31/113 81/83/113 80/38/113
f 68/31/113 69/30/113 82/30/113 81/83/113
f 69/30/113 70/89/113 78/85/113 82/30/113
f 9/90/114 8/91/114 83/70/114 84/66/114
f 73/92/114 9/90/114 86/66/114 85/65/114
f 8/91/114 87/70/114 83/70/114
f 9/90/114 84/66/114 86/66/114
f 8/91/114 71/93/114 88/71/114 87/70/114
f 71/93/114 72/68/114 89/68/114 88/71/114
f 72/68/114 73/92/114 85/65/114 89/68/114
f 90/94/114 91/95/114 92/96/114 94/97/114 93/98/114
f 9/90/115 73/92/116 92/96/117 91/95/115
f 73/92/116 72/68/118 94/97/118 92/96/117
f 71/93/119 8/91/120 90/94/120 93/98/121
f 8/91/122 9/90/122 91/95/122 90/94/122
f 72/68/118 71/93/119 93/98/121 94/97/118
f 95/99/113 96/100/113 97/101/113 99/33/113 98/32/113
f 4/86/123 70/89/124 97/101/125 96/100/123
f 70/89/124 69/30/35 99/33/35 97/101/125
f 68/31/36 3/87/126 95/99/126 98/32/37
f 3/87/127 4/86/127 96/100/127 95/99/127
f 11/3/5 12/69/104 66/62/97
f 10/84/110 64/5/7 78/85/111
f 79/88/128 10/84/110 78/85/111
f 66/62/97 12/69/104 88/71/106
f 18/25/28 19/29/32 100/28/31 101/26/29
f 84/66/129 103/102/130 16/67/102 86/66/101
f 103/102/130 104/103/131 17/16/19 16/67/102
f 104/103/131 105/21/23 20/13/16 17/16/19
f 1/78/108 105/104/108 7/77/108 6/79/108
f 104/105/108 103/82/108 7/77/108
f 105/104/108 104/105/108 7/77/108
f 2/80/108 6/79/108 100/106/108
f 6/79/108 5/72/108 101/107/108 100/106/108
f 101/107/108 5/72/108 102/81/108
f 23/23/92 50/52/92 51/51/92 52/54/92
f 22/22/92 23/23/92 53/53/92
f 53/53/92 23/23/92 52/54/92
f 56/50/92 22/22/92 54/61/92 55/60/92
