# Blender 5.0.1
# www.blender.org
mtllib vhs_tape_1.mtl
o vhs_tape_1
v -0.080000 -0.000000 0.150000
v -0.080000 0.045000 0.150000
v -0.080000 -0.000000 -0.150000
v -0.080000 0.045000 -0.150000
v 0.088000 -0.000000 0.135000
v 0.073000 -0.000000 0.150000
v 0.085991 -0.000000 0.142500
v 0.080500 -0.000000 0.147990
v 0.073000 0.045000 0.150000
v 0.088000 0.045000 0.135000
v 0.080500 0.045000 0.147990
v 0.085991 0.045000 0.142500
v 0.073000 -0.000000 -0.150000
v 0.088000 -0.000000 -0.135000
v 0.080500 -0.000000 -0.147990
v 0.085991 -0.000000 -0.142500
v 0.088000 0.045000 -0.135000
v 0.073000 0.045000 -0.150000
v 0.085991 0.045000 -0.142500
v 0.080500 0.045000 -0.147990
vn -1.0000 -0.0000 -0.0000
vn 0.1305 -0.0000 0.9914
vn -0.0000 -0.0000 1.0000
vn -0.0000 1.0000 -0.0000
vn 0.9914 -0.0000 -0.1305
vn 0.9914 -0.0000 0.1305
vn -0.0000 -0.0000 -1.0000
vn 0.1305 -0.0000 -0.9914
vn 0.8660 -0.0000 -0.5000
vn 0.5000 -0.0000 -0.8660
vn 0.5000 -0.0000 0.8660
vn 0.8660 -0.0000 0.5000
vn -0.0000 -1.0000 -0.0000
vt 0.774194 1.000000
vt 0.860215 1.000000
vt 0.860215 0.000000
vt 0.774194 0.000000
vt 0.860215 0.050223
vt 0.946237 0.050223
vt 0.946237 0.562500
vt 0.860215 0.562500
vt 0.352535 0.000000
vt 0.352535 1.000000
vt 0.000000 1.000000
vt 0.000000 0.000000
vt 0.774194 0.050000
vt 0.860215 0.050000
vt 0.860215 0.950000
vt 0.774194 0.950000
vt 0.946237 0.050223
vt 0.860215 0.050223
vt 0.774194 0.025000
vt 0.860215 0.025000
vt 0.946237 0.000000
vt 0.774194 0.975000
vt 0.860215 0.975000
vt 0.387097 1.000000
vt 0.739631 1.000000
vt 0.739631 0.000000
vt 0.387097 0.000000
vt 0.387097 0.050000
vt 0.387097 0.950000
vt 0.382466 0.975000
vt 0.369816 0.993301
vt 0.369816 0.006699
vt 0.382466 0.025000
vt 0.769563 0.025000
vt 0.756912 0.006699
vt 0.756912 0.993301
vt 0.769563 0.975000
s 1
usemtl vhs_tape_1
f 1/1/1 2/2/1 4/3/1 3/4/1
f 6/5/2 9/6/2 2/7/3 1/8/3
f 9/9/4 18/10/4 4/11/4 2/12/4
f 14/13/5 17/14/5 10/15/6 5/16/6
f 3/8/7 4/7/7 18/17/8 13/18/8
f 17/14/5 14/13/5 16/19/9 19/20/9
f 19/20/9 16/19/9 15/4/10 20/3/10
f 20/21/10 15/3/10 13/18/8 18/17/8
f 9/6/2 6/5/2 8/3/11 11/21/11
f 11/2/11 8/1/11 7/22/12 12/23/12
f 12/23/12 7/22/12 5/16/6 10/15/6
f 3/24/13 13/25/13 6/26/13 1/27/13
f 18/10/4 9/9/4 10/28/4 17/29/4
f 19/30/4 20/31/4 18/10/4 17/29/4
f 11/32/4 12/33/4 10/28/4 9/9/4
f 7/34/13 8/35/13 6/26/13 5/13/13
f 15/36/13 16/37/13 14/16/13 13/25/13
f 14/16/13 5/13/13 6/26/13 13/25/13
