# Blender 5.0.1
# www.blender.org
mtllib armchair_2.mtl
o armchair_2
v -0.446001 0.143000 0.946000
v -0.446001 0.143000 0.880000
v -0.380001 0.143000 0.946000
v -0.380001 0.143000 0.880000
v -0.458532 0.000000 0.958532
v -0.458532 0.000000 0.911467
v -0.411468 0.000000 0.958532
v -0.411468 0.000000 0.911467
v -0.446001 0.143000 0.109999
v -0.446001 0.143000 0.044000
v -0.380001 0.143000 0.109999
v -0.380001 0.143000 0.044000
v -0.458532 0.000000 0.078532
v -0.458532 0.000000 0.031467
v -0.411468 0.000000 0.078532
v -0.411468 0.000000 0.031467
v 0.379999 0.143000 0.946000
v 0.379999 0.143000 0.880000
v 0.445999 0.143000 0.946000
v 0.445999 0.143000 0.880000
v 0.411467 0.000000 0.958532
v 0.411467 0.000000 0.911467
v 0.458532 0.000000 0.958532
v 0.458532 0.000000 0.911467
v 0.379999 0.143000 0.109999
v 0.379999 0.143000 0.044000
v 0.445999 0.143000 0.109999
v 0.445999 0.143000 0.044000
v 0.411467 0.000000 0.078532
v 0.411467 0.000000 0.031467
v 0.458532 0.000000 0.078532
v 0.458532 0.000000 0.031467
v -0.468000 0.363000 0.946001
v -0.468000 0.385000 0.968001
v -0.490000 0.385000 0.946001
v -0.468000 0.495000 0.968001
v -0.468000 0.517000 0.946001
v -0.490000 0.495000 0.946001
v -0.490000 0.385000 0.154001
v -0.468000 0.385000 0.132001
v -0.468000 0.363000 0.154001
v -0.490000 0.528000 0.154001
v -0.468000 0.550000 0.154001
v -0.468000 0.528000 0.132001
v 0.468000 0.363000 0.946001
v 0.490000 0.385000 0.946001
v 0.468000 0.385000 0.968001
v 0.468000 0.517000 0.946001
v 0.468000 0.495000 0.968001
v 0.490000 0.495000 0.946001
v 0.468000 0.385000 0.132001
v 0.490000 0.385000 0.154001
v 0.468000 0.363000 0.154001
v 0.468000 0.528000 0.132001
v 0.468000 0.550000 0.154001
v 0.490000 0.528000 0.154001
v -0.005000 0.363000 0.154001
v -0.005000 0.385000 0.132001
v -0.005000 0.550000 0.154001
v -0.005000 0.528000 0.132001
v -0.005000 0.363000 0.946001
v -0.005000 0.385000 0.968001
v -0.005000 0.517000 0.946001
v -0.005000 0.495000 0.968001
v 0.468000 0.363000 0.715001
v 0.490000 0.385000 0.715001
v 0.468000 0.550000 0.715001
v 0.490000 0.528000 0.715001
v -0.005000 0.550000 0.715001
v -0.468000 0.363000 0.715001
v -0.490000 0.385000 0.715001
v -0.468000 0.550000 0.715001
v -0.490000 0.528000 0.715001
v -0.296500 0.363000 0.154001
v -0.296500 0.544500 0.132001
v -0.296500 0.363000 0.946001
v -0.296500 0.511500 0.968001
v -0.296500 0.566500 0.715001
v 0.286500 0.385000 0.132001
v 0.286500 0.566500 0.154001
v 0.286500 0.363000 0.946001
v 0.286500 0.511500 0.968001
v 0.286500 0.363000 0.154001
v 0.286500 0.544500 0.132001
v 0.286500 0.385000 0.968001
v 0.286500 0.533500 0.946001
v 0.286500 0.566500 0.715001
v -0.296500 0.385000 0.968001
v -0.296500 0.533500 0.946001
v -0.296500 0.385000 0.132001
v -0.296500 0.566500 0.154001
v -0.468000 0.578752 0.108448
v -0.468000 0.561000 0.126201
v -0.490000 0.578752 0.126201
v -0.468000 0.561000 0.298714
v -0.468000 0.578752 0.316466
v -0.490000 0.578752 0.298714
v 0.468000 0.578752 0.108448
v 0.490000 0.578752 0.126201
v 0.468000 0.561000 0.126201
v 0.468000 0.578752 0.316466
v 0.468000 0.561000 0.298714
v 0.490000 0.578752 0.298714
v -0.468000 0.677600 0.108448
v -0.490000 0.677600 0.126087
v -0.468000 0.677600 0.315558
v -0.490000 0.677600 0.297920
v 0.468000 0.677600 0.108448
v 0.490000 0.677600 0.126087
v 0.468000 0.677600 0.315558
v 0.490000 0.677600 0.297920
v -0.490000 0.775286 0.114787
v -0.490000 0.929190 0.068991
v -0.468000 0.956942 0.234613
v -0.468000 0.802682 0.289666
v 0.468000 0.925185 0.051635
v 0.468000 0.771383 0.097704
v 0.490000 0.798760 0.272513
v 0.490000 0.953008 0.217224
v -0.468000 0.771383 0.097704
v -0.468000 0.925185 0.051635
v -0.490000 0.798760 0.272513
v -0.490000 0.953008 0.217224
v 0.490000 0.929190 0.068991
v 0.490000 0.775286 0.114787
v 0.468000 0.802682 0.289666
v 0.468000 0.956942 0.234613
v -0.468000 0.955518 0.037439
v -0.391191 1.010364 0.011771
v -0.445503 0.994300 0.019289
v -0.391007 1.042121 0.194749
v -0.468000 0.984060 0.221922
v -0.445450 1.025115 0.202707
v 0.391191 1.010364 0.011771
v 0.468000 0.955518 0.037439
v 0.445503 0.994300 0.019289
v 0.468000 0.984060 0.221922
v 0.391007 1.042121 0.194749
v 0.445450 1.025115 0.202707
v -0.413395 1.031706 0.027158
v -0.490000 0.974581 0.050469
v -0.467563 1.014974 0.033986
v -0.490000 0.998142 0.198807
v -0.413330 1.055523 0.175392
v -0.467544 1.038717 0.182250
v 0.490000 0.974581 0.050469
v 0.413395 1.031706 0.027158
v 0.467564 1.014974 0.033986
v 0.413330 1.055523 0.175392
v 0.490000 0.998142 0.198807
v 0.467544 1.038717 0.182250
v -0.005000 0.578752 0.294466
v -0.005000 0.561000 0.276714
v -0.005000 0.677600 0.293558
v -0.005000 0.802682 0.267666
v -0.005000 0.967942 0.212613
v -0.005000 1.021364 0.011771
v -0.005000 1.042706 0.027158
v -0.005000 1.053121 0.172749
v -0.005000 1.066523 0.153392
v -0.005000 0.578752 0.108448
v -0.005000 0.561000 0.126201
v -0.005000 0.677600 0.108448
v -0.005000 0.771383 0.097704
v -0.005000 0.936185 0.051635
v 0.521112 0.165000 0.990000
v 0.511999 0.143000 0.968000
v 0.489999 0.165000 0.968000
v 0.511999 0.174113 0.990000
v 0.521112 0.726000 0.990000
v 0.511999 0.748000 0.968000
v 0.607999 0.143000 0.968000
v 0.598886 0.165000 0.990000
v 0.607999 0.174113 0.990000
v 0.629999 0.165000 0.968000
v 0.511999 0.716887 0.990000
v 0.489999 0.726000 0.968000
v 0.598886 0.726000 0.990000
v 0.607999 0.748000 0.968000
v 0.607999 0.716887 0.990000
v 0.629999 0.726000 0.968000
v 0.511999 0.174113 -0.000000
v 0.489999 0.165000 0.022000
v 0.521112 0.726000 -0.000000
v 0.511999 0.748000 0.022000
v 0.598887 0.165000 -0.000000
v 0.607999 0.143000 0.022000
v 0.607999 0.716887 -0.000000
v 0.629999 0.726000 0.022000
v 0.521112 0.165000 -0.000000
v 0.511999 0.143000 0.022000
v 0.607999 0.174113 -0.000000
v 0.629999 0.165000 0.022000
v 0.511999 0.716887 -0.000000
v 0.489999 0.726000 0.022000
v 0.598887 0.726000 -0.000000
v 0.607999 0.748000 0.022000
v -0.598889 0.165000 0.990000
v -0.608002 0.143000 0.968000
v -0.630002 0.165000 0.968000
v -0.608002 0.174113 0.990000
v -0.598889 0.726000 0.990000
v -0.608002 0.748000 0.968000
v -0.512002 0.143000 0.968000
v -0.521114 0.165000 0.990000
v -0.512002 0.174113 0.990000
v -0.490002 0.165000 0.968000
v -0.608002 0.716887 0.990000
v -0.630002 0.726000 0.968000
v -0.521114 0.726000 0.990000
v -0.512002 0.748000 0.968000
v -0.512002 0.716887 0.990000
v -0.490002 0.726000 0.968000
v -0.608002 0.174113 -0.000000
v -0.630002 0.165000 0.022000
v -0.598889 0.726000 -0.000000
v -0.608002 0.748000 0.022000
v -0.521114 0.165000 -0.000000
v -0.512002 0.143000 0.022000
v -0.512002 0.716887 -0.000000
v -0.490002 0.726000 0.022000
v -0.598889 0.165000 -0.000000
v -0.608002 0.143000 0.022000
v -0.512002 0.174113 -0.000000
v -0.490002 0.165000 0.022000
v -0.608002 0.716887 -0.000000
v -0.630002 0.726000 0.022000
v -0.521114 0.726000 -0.000000
v -0.512002 0.748000 0.022000
v -0.468000 0.143000 0.967999
v -0.468000 0.165000 0.989999
v -0.490000 0.165000 0.967999
v -0.468000 0.341000 0.989999
v -0.468000 0.363000 0.967999
v -0.490000 0.341000 0.967999
v 0.468000 0.143000 0.967999
v 0.490000 0.165000 0.967999
v 0.468000 0.165000 0.989999
v 0.468000 0.363000 0.967999
v 0.468000 0.341000 0.989999
v 0.490000 0.341000 0.967999
v 0.468000 0.363000 0.109999
v -0.468000 0.143000 0.021999
v -0.468000 0.165000 -0.000001
v -0.490000 0.174113 0.021999
v -0.490000 0.726000 0.031112
v -0.468000 0.748000 0.021999
v -0.490000 0.165000 0.031112
v -0.490000 0.716887 0.021999
v -0.468000 0.726000 -0.000000
v -0.490000 0.726000 0.078887
v -0.468000 0.748000 0.087999
v -0.490000 0.716887 0.087999
v -0.468000 0.726000 0.109999
v 0.490000 0.174113 0.021999
v 0.468000 0.165000 -0.000001
v 0.490000 0.726000 0.031112
v 0.468000 0.748000 0.021999
v 0.468000 0.143000 0.021999
v 0.490000 0.716887 0.087999
v 0.468000 0.726000 0.109999
v 0.490000 0.165000 0.031112
v 0.490000 0.716887 0.021999
v 0.468000 0.726000 -0.000000
v 0.490000 0.726000 0.078887
v 0.468000 0.748000 0.087999
v -0.468000 0.363000 0.109999
v 0.490000 0.341000 0.087999
v -0.490000 0.341000 0.087999
vn -0.0000 -0.2149 -0.9766
vn -0.0000 -1.0000 -0.0000
vn -0.9962 0.0873 -0.0000
vn 0.9766 -0.2149 -0.0000
vn -0.0000 0.0873 0.9962
vn -0.0000 0.0873 -0.9962
vn -0.0000 -0.2149 0.9766
vn -0.9766 -0.2149 -0.0000
vn 0.9962 0.0873 -0.0000
vn -0.0196 0.9973 0.0706
vn -0.0955 0.9929 0.0709
vn -0.0854 0.8872 0.4534
vn -0.0175 0.8973 0.4411
vn -0.0000 -0.3827 -0.9239
vn -0.0348 0.3622 -0.9315
vn -0.0081 0.3983 -0.9172
vn -0.0000 -0.3827 0.9239
vn -0.0081 0.3983 0.9172
vn -0.0348 0.3622 0.9315
vn -0.6861 -0.6861 0.2418
vn -0.6861 -0.2418 0.6861
vn -0.8756 -0.3416 0.3416
vn -0.6861 0.2418 0.6861
vn -0.6760 0.6760 0.2934
vn -0.8740 0.3210 0.3649
vn -0.8756 -0.3416 -0.3416
vn -0.6861 -0.2418 -0.6861
vn -0.6861 -0.6861 -0.2418
vn -0.8756 0.3416 -0.3416
vn -0.6861 0.6861 -0.2418
vn -0.6861 0.2418 -0.6861
vn -0.7071 -0.7071 -0.0000
vn -0.9239 -0.3827 -0.0000
vn -0.7063 0.7063 0.0487
vn -0.9174 0.3968 0.0291
vn -0.0000 -0.7071 -0.7071
vn 0.9239 -0.3827 -0.0000
vn 0.8756 -0.3416 -0.3416
vn 0.8756 0.3416 -0.3416
vn 0.9174 0.3968 0.0291
vn 0.6861 -0.6861 0.2418
vn 0.8756 -0.3416 0.3416
vn 0.6861 -0.2418 0.6861
vn 0.6760 0.6760 0.2934
vn 0.6861 0.2418 0.6861
vn 0.8740 0.3210 0.3649
vn 0.6861 -0.2418 -0.6861
vn 0.6861 -0.6861 -0.2418
vn 0.6861 0.2418 -0.6861
vn 0.6861 0.6861 -0.2418
vn 0.0117 0.7071 -0.7071
vn 0.0642 0.7057 -0.7057
vn 0.0330 0.3633 -0.9311
vn 0.0070 0.3977 -0.9175
vn 0.7071 -0.7071 -0.0000
vn 0.7063 0.7063 0.0487
vn -0.0000 -0.7071 0.7071
vn 0.0152 0.8972 0.4414
vn -0.0000 0.8921 0.4518
vn -0.0000 0.3708 0.9287
vn 0.0070 0.3977 0.9175
vn -0.0135 0.7070 -0.7070
vn -0.0000 0.7071 -0.7071
vn -0.0000 0.3708 -0.9287
vn 0.0170 0.9974 0.0706
vn -0.0000 0.9975 0.0711
vn 0.0171 0.9999 -0.0000
vn -0.0000 1.0000 -0.0000
vn -0.0197 0.9998 -0.0000
vn -0.0958 0.9954 -0.0000
vn 0.0905 0.9959 -0.0000
vn 0.0903 0.9934 0.0709
vn 0.0807 0.8878 0.4532
vn 0.0330 0.3633 0.9311
vn -0.0679 0.7055 -0.7055
vn -0.0000 -0.0570 -0.9984
vn -0.6041 -0.2687 -0.7502
vn -0.6049 -0.7497 -0.2685
vn -0.8451 -0.3780 -0.3780
vn -0.6049 -0.7497 0.2685
vn -0.6047 -0.2652 0.7510
vn -0.8452 -0.3762 0.3796
vn 0.6359 -0.2658 -0.7246
vn 0.6135 -0.1899 -0.7665
vn 0.8920 0.0772 -0.4454
vn 0.9093 -0.1410 -0.3915
vn -0.0002 0.9798 0.1998
vn -0.0003 0.8478 -0.5303
vn -0.1896 0.7977 -0.5725
vn -0.1518 0.9582 0.2424
vn 0.6041 -0.2687 -0.7502
vn 0.8451 -0.3780 -0.3780
vn 0.6049 -0.7497 -0.2685
vn 0.6047 -0.2652 0.7510
vn 0.6049 -0.7497 0.2685
vn 0.8452 -0.3762 0.3796
vn 0.0005 0.1068 0.9943
vn 0.0472 0.1060 0.9932
vn 0.0440 -0.3740 0.9264
vn 0.0005 -0.3825 0.9239
vn 0.0005 0.2653 0.9642
vn 0.0439 0.2640 0.9635
vn -0.0000 -0.1965 -0.9805
vn -0.0016 -0.1965 -0.9805
vn -0.6249 -0.0460 -0.7794
vn -0.9075 -0.0237 -0.4194
vn 0.0336 -0.7067 0.7067
vn 0.0003 -0.7071 0.7071
vn 0.0001 0.8244 0.5660
vn 0.0407 0.7999 0.5988
vn 0.1517 0.9583 0.2422
vn 0.6258 0.0802 0.7758
vn 0.8908 0.0505 0.4515
vn -0.6251 -0.1562 -0.7648
vn -0.9107 -0.0833 -0.4046
vn -0.8908 0.0505 0.4515
vn 0.6249 -0.0460 -0.7794
vn 0.9075 -0.0237 -0.4194
vn -0.6143 0.2877 0.7348
vn -0.5333 0.4012 0.7448
vn -0.8443 0.3775 0.3803
vn -0.8956 0.1638 0.4135
vn -0.6258 0.0802 0.7758
vn -0.6135 -0.1899 -0.7665
vn -0.6359 -0.2658 -0.7246
vn -0.9093 -0.1410 -0.3915
vn -0.8920 0.0772 -0.4454
vn 0.6251 -0.1562 -0.7648
vn 0.9107 -0.0833 -0.4046
vn -0.6236 0.2107 0.7528
vn -0.8935 0.1222 0.4320
vn 0.8935 0.1222 0.4320
vn 0.6236 0.2107 0.7528
vn 0.0017 -0.1965 -0.9805
vn 0.0069 -0.3529 -0.9357
vn 0.0001 -0.3549 -0.9349
vn -0.0429 0.2641 0.9635
vn -0.0372 0.3676 0.9292
vn 0.0004 0.3699 0.9291
vn 0.8956 0.1638 0.4135
vn 0.6143 0.2877 0.7348
vn 0.8443 0.3775 0.3803
vn 0.0004 0.4111 0.9116
vn 0.0347 0.4107 0.9111
vn 0.0380 0.3674 0.9293
vn 0.0001 -0.4277 -0.9039
vn -0.0103 -0.4277 -0.9039
vn -0.0067 -0.3528 -0.9357
vn 0.5333 0.4012 0.7448
vn -0.6187 0.5533 -0.5577
vn -0.5603 0.7789 0.2818
vn -0.0406 0.7999 0.5987
vn -0.2651 0.6542 0.7084
vn -0.0867 0.5240 -0.8473
vn -0.3900 0.2104 -0.8965
vn 0.6187 0.5533 -0.5577
vn 0.5603 0.7789 0.2818
vn 0.1893 0.7978 -0.5725
vn 0.2651 0.6542 0.7084
vn 0.3899 0.2104 -0.8965
vn 0.0865 0.5241 -0.8473
vn -0.0002 0.5794 -0.8150
vn -0.0431 -0.3741 0.9264
vn -0.0329 -0.7067 0.7067
vn -0.0462 0.1060 0.9933
vn 0.0105 -0.4277 -0.9038
vn -0.0339 0.4110 0.9110
vn -0.4044 0.1675 0.8991
vn 0.4044 0.1675 0.8991
vn 0.1675 0.4044 0.8991
vn -0.1675 0.4044 0.8991
vn 0.4044 -0.1675 -0.8991
vn 0.1675 -0.4044 -0.8991
vn -0.1675 -0.4044 -0.8991
vn -0.4044 -0.1675 -0.8991
vn -0.3827 0.9239 -0.0000
vn -0.9239 0.3827 -0.0000
vn -0.3827 -0.9239 -0.0000
vn 0.3827 0.9239 -0.0000
vn 0.9239 0.3827 -0.0000
vn -1.0000 -0.0000 -0.0000
vn 0.1675 -0.4044 0.8991
vn -0.1675 -0.4044 0.8991
vn -0.2597 -0.6269 0.7345
vn 0.6269 0.2597 0.7345
vn 0.2597 0.6269 0.7345
vn 0.5000 -0.5000 0.7071
vn 0.6269 -0.2597 0.7345
vn 0.4044 -0.1675 0.8991
vn -0.4044 -0.1675 0.8991
vn -0.6269 0.2597 0.7345
vn -0.7071 -0.0000 0.7071
vn -0.2597 0.6269 0.7345
vn -0.5000 -0.5000 0.7071
vn 0.6269 0.2597 -0.7345
vn 0.6269 -0.2597 -0.7345
vn 0.4044 0.1675 -0.8991
vn -0.2597 -0.6269 -0.7345
vn -0.6269 -0.2597 -0.7345
vn -0.6269 0.2597 -0.7345
vn -0.4044 0.1675 -0.8991
vn 0.2597 0.6269 -0.7345
vn 0.1675 0.4044 -0.8991
vn 0.2597 -0.6269 -0.7345
vn -0.1675 0.4044 -0.8991
vn -0.2597 0.6269 -0.7345
vn -0.0000 0.9239 0.3827
vn -0.0000 0.3827 0.9239
vn -0.6861 0.6861 0.2418
vn -0.8756 0.3416 0.3416
vn 0.6861 0.6861 0.2418
vn 0.8756 0.3416 0.3416
vn -0.7345 -0.6269 -0.2597
vn -0.8991 -0.4044 -0.1675
vn -0.8165 0.4082 0.4083
vn -0.9878 0.1101 0.1101
vn 0.7345 -0.6269 -0.2597
vn 0.8991 -0.4044 -0.1675
vn 0.8165 0.4082 0.4083
vn 0.9878 0.1101 0.1101
vn -0.8991 0.1675 -0.4044
vn -0.8991 0.1675 0.4044
vn -0.8991 0.4044 0.1675
vn -0.8991 0.4044 -0.1675
vn -0.0000 0.9239 -0.3827
vn -0.0000 0.3827 -0.9239
vn -0.0000 -0.0000 1.0000
vn -0.7345 0.2597 0.6269
vn -0.7345 0.6269 0.2597
vn -0.7345 0.6269 -0.2597
vn -0.7345 0.2597 -0.6269
vn -0.8991 -0.1675 -0.4044
vn -0.7345 -0.2597 -0.6269
vn 0.7345 -0.2597 -0.6269
vn 0.8991 -0.1675 -0.4044
vn 0.7345 0.6269 0.2597
vn 0.7345 0.2597 0.6269
vn 0.8991 0.1675 0.4044
vn 0.8991 0.4044 0.1675
vn 0.8991 0.4044 -0.1675
vn 0.8991 0.1675 -0.4044
vn 0.7345 0.2597 -0.6269
vn 0.7345 0.6269 -0.2597
vt 0.910895 -0.475108
vt 0.910895 -0.515108
vt 0.819153 -0.496037
vt 0.819153 -0.467512
vt 0.826434 -0.467510
vt 0.826433 -0.496035
vt 0.797909 -0.496035
vt 0.797909 -0.467510
vt 0.976187 0.225749
vt 0.976186 0.185749
vt 0.885975 0.204819
vt 0.885975 0.233343
vt 1.064614 0.138873
vt 1.064613 0.178873
vt 0.972871 0.186468
vt 0.972871 0.157944
vt 0.911740 -0.515105
vt 0.911740 -0.475104
vt 0.821526 -0.467509
vt 0.821525 -0.496033
vt 0.910973 -0.600104
vt 0.910973 -0.640105
vt 0.820761 -0.621034
vt 0.820760 -0.592509
vt 0.826432 -0.592507
vt 0.826432 -0.621031
vt 0.797910 -0.621031
vt 0.797909 -0.592506
vt 0.976185 0.127416
vt 0.976185 0.087416
vt 0.885975 0.079819
vt 0.885975 0.108344
vt 1.064612 0.040543
vt 1.064612 0.080544
vt 0.972870 0.061471
vt 0.972870 0.032947
vt 0.911661 -0.640108
vt 0.911660 -0.600109
vt 0.819919 -0.592514
vt 0.819920 -0.621038
vt 0.910891 0.139915
vt 0.910891 0.099915
vt 0.819150 0.092318
vt 0.819150 0.120842
vt 0.826430 0.120844
vt 0.826430 0.092320
vt 0.797906 0.092320
vt 0.797906 0.120844
vt 0.929968 0.100746
vt 0.929968 0.060746
vt 0.838227 0.079819
vt 0.838227 0.108343
vt 0.921335 0.107623
vt 0.921335 0.147623
vt 0.831122 0.155218
vt 0.831121 0.126694
vt 0.903930 0.131166
vt 0.903930 0.171166
vt 0.837155 0.152093
vt 0.837155 0.123569
vt 0.910973 0.311791
vt 0.910973 0.271791
vt 0.820761 0.264194
vt 0.820760 0.292718
vt 0.826430 0.292718
vt 0.826430 0.264194
vt 0.797906 0.264194
vt 0.797906 0.292719
vt 0.929968 0.299287
vt 0.929968 0.259288
vt 0.838227 0.251694
vt 0.838227 0.280217
vt 0.921335 0.306164
vt 0.921335 0.346164
vt 0.831122 0.327093
vt 0.831122 0.298569
vt 0.903847 0.303040
vt 0.903847 0.343040
vt 0.835544 0.323968
vt 0.835544 0.295444
vt 0.402111 0.764205
vt 0.347507 0.763752
vt 0.347305 0.686776
vt 0.402020 0.686776
vt 0.565815 0.772844
vt 0.565475 0.720886
vt 0.523149 0.720854
vt 0.518605 0.772809
vt 0.402263 0.642107
vt 0.402304 0.676894
vt 0.349357 0.677472
vt 0.348323 0.645319
vt 0.345764 0.635324
vt 0.338000 0.644003
vt 0.347305 0.687050
vt 0.339859 0.679362
vt 0.688984 0.588816
vt 0.688985 0.595482
vt 0.695651 0.595483
vt 0.395852 0.589929
vt 0.389185 0.596595
vt 0.395852 0.596595
vt 0.755051 0.494579
vt 0.755054 0.424579
vt 0.748387 0.424580
vt 0.748385 0.494580
vt 0.340454 0.494579
vt 0.339239 0.664581
vt 0.345552 0.664581
vt 0.346770 0.494579
vt 0.573541 0.772918
vt 0.573542 0.720948
vt 0.566875 0.720948
vt 0.566874 0.772918
vt 0.563542 0.526100
vt 0.520208 0.526101
vt 0.520208 0.532768
vt 0.563541 0.532767
vt 0.563650 0.494583
vt 0.563542 0.424583
vt 0.530409 0.424583
vt 0.520704 0.494583
vt 0.563542 0.494583
vt 0.563542 0.664583
vt 0.520208 0.664583
vt 0.520208 0.494583
vt 0.654593 0.635108
vt 0.662000 0.643155
vt 0.652443 0.644761
vt 0.653886 0.686776
vt 0.651485 0.676894
vt 0.661698 0.678537
vt 0.587984 0.662360
vt 0.587985 0.669027
vt 0.594651 0.662360
vt 0.496876 0.661251
vt 0.490210 0.661251
vt 0.496876 0.667917
vt 0.510527 0.583425
vt 0.512345 0.638427
vt 0.518175 0.638401
vt 0.516356 0.583399
vt 0.530000 0.671249
vt 0.360000 0.671249
vt 0.360000 0.677916
vt 0.530000 0.677916
vt 0.535027 0.671781
vt 0.605084 0.676052
vt 0.605084 0.682441
vt 0.535028 0.678167
vt 0.595732 0.631881
vt 0.595478 0.642045
vt 0.563541 0.674583
vt 0.520207 0.674583
vt 0.520207 0.681249
vt 0.563541 0.681249
vt 0.595621 0.686776
vt 0.498809 0.686776
vt 0.498812 0.676894
vt 0.595329 0.676894
vt 0.401975 0.631881
vt 0.498827 0.632233
vt 0.498828 0.642574
vt 0.510769 0.406446
vt 0.512103 0.494721
vt 0.518157 0.494740
vt 0.516792 0.406466
vt 0.573542 0.582917
vt 0.573542 0.494584
vt 0.566876 0.494584
vt 0.566875 0.582917
vt 0.563542 0.582917
vt 0.563224 0.494573
vt 0.520036 0.494578
vt 0.516052 0.582943
vt 0.595435 0.764315
vt 0.498775 0.763788
vt 0.595678 0.949870
vt 0.498598 0.949870
vt 0.360001 0.670638
vt 0.530000 0.672593
vt 0.530000 0.678854
vt 0.360000 0.677008
vt 0.600000 0.671250
vt 0.530000 0.671249
vt 0.530000 0.677916
vt 0.600000 0.677916
vt 0.563542 0.424583
vt 0.563542 0.494583
vt 0.520208 0.494583
vt 0.530208 0.424583
vt 0.563458 0.664583
vt 0.563782 0.494583
vt 0.520995 0.494583
vt 0.520331 0.664583
vt 0.342942 0.398057
vt 0.338264 0.468112
vt 0.344651 0.468112
vt 0.349329 0.398057
vt 0.755062 0.664587
vt 0.755059 0.494587
vt 0.748393 0.494588
vt 0.748395 0.664587
vt 0.401921 0.949817
vt 0.347049 0.949716
vt 0.573542 0.494584
vt 0.573542 0.406250
vt 0.566875 0.406250
vt 0.566875 0.494584
vt 0.563590 0.494582
vt 0.563844 0.406241
vt 0.516659 0.406204
vt 0.520630 0.494570
vt 0.653916 0.949768
vt 0.653601 0.763940
vt 0.563542 0.637917
vt 0.563820 0.582925
vt 0.516678 0.582963
vt 0.521122 0.637945
vt 0.573542 0.637917
vt 0.573542 0.582917
vt 0.566875 0.582917
vt 0.566875 0.637917
vt 0.511401 0.494628
vt 0.510075 0.582881
vt 0.516108 0.582861
vt 0.517460 0.494609
vt 0.514361 0.719314
vt 0.512521 0.771242
vt 0.518351 0.771268
vt 0.520190 0.719340
vt 0.345092 0.288068
vt 0.515477 0.287353
vt 0.512246 0.322028
vt 0.345432 0.324342
vt 0.185045 0.324968
vt 0.184040 0.333588
vt 0.175639 0.327410
vt 0.179999 0.336950
vt 0.181386 0.345840
vt 0.171296 0.344005
vt 0.514224 0.192684
vt 0.513038 0.180377
vt 0.523236 0.174263
vt 0.524799 0.192802
vt 0.121832 0.501790
vt 0.167866 0.501791
vt 0.168596 0.648189
vt 0.114795 0.648211
vt 0.521953 0.324257
vt 0.513483 0.330811
vt 0.512326 0.346512
vt 0.513750 0.337625
vt 0.522427 0.344716
vt 0.345000 0.379355
vt 0.179668 0.379837
vt 0.345072 0.342783
vt 0.160972 0.840178
vt 0.099937 0.850000
vt 0.098328 0.839998
vt 0.159362 0.830177
vt 0.344903 0.426295
vt 0.178940 0.424766
vt 0.344766 0.254625
vt 0.516483 0.252234
vt 0.180778 0.291395
vt 0.170488 0.292787
vt 0.099937 0.150000
vt 0.160971 0.159821
vt 0.159362 0.169823
vt 0.098327 0.160001
vt 0.345520 0.333834
vt 0.345091 0.333834
vt 0.344685 0.524305
vt 0.487214 0.516906
vt 0.495415 0.525376
vt 0.344667 0.532849
vt 0.513919 0.380533
vt 0.524031 0.380903
vt 0.178838 0.257017
vt 0.168597 0.257098
vt 0.153775 0.795198
vt 0.092981 0.804982
vt 0.526068 0.288458
vt 0.178744 0.482824
vt 0.178632 0.493407
vt 0.169238 0.501804
vt 0.168597 0.483949
vt 0.169559 0.380168
vt 0.179764 0.185987
vt 0.179025 0.198173
vt 0.168597 0.198661
vt 0.169483 0.180313
vt 0.526893 0.251989
vt 0.168839 0.424976
vt 0.152211 0.759994
vt 0.095072 0.760669
vt 0.153775 0.204801
vt 0.152211 0.240005
vt 0.095072 0.239331
vt 0.092981 0.195019
vt 0.514475 0.425482
vt 0.524578 0.425733
vt 0.344024 0.194014
vt 0.514432 0.483560
vt 0.344764 0.489973
vt 0.524578 0.484729
vt 0.105851 0.702949
vt 0.159651 0.702936
vt 0.159652 0.297063
vt 0.105852 0.297051
vt 0.163621 0.314176
vt 0.109798 0.314068
vt 0.205810 0.516278
vt 0.186457 0.509541
vt 0.343473 0.159575
vt 0.484755 0.161087
vt 0.504105 0.165910
vt 0.109797 0.685932
vt 0.163620 0.685823
vt 0.514500 0.494147
vt 0.523859 0.502587
vt 0.167148 0.668601
vt 0.113341 0.668646
vt 0.197575 0.524709
vt 0.177789 0.517762
vt 0.198290 0.156896
vt 0.207018 0.165954
vt 0.188072 0.171394
vt 0.178500 0.164268
vt 0.167149 0.331399
vt 0.113342 0.331353
vt 0.168597 0.351810
vt 0.114797 0.351789
vt 0.515237 0.518513
vt 0.506602 0.510251
vt 0.513528 0.158355
vt 0.493246 0.151627
vt 0.343306 0.150000
vt 0.554424 0.461925
vt 0.585359 0.462300
vt 0.582406 0.465317
vt 0.557352 0.464998
vt 0.587310 0.288934
vt 0.590280 0.285824
vt 0.615799 0.285922
vt 0.618825 0.289034
vt 0.238700 0.500000
vt 0.547525 0.500000
vt 0.547525 0.510157
vt 0.238700 0.510157
vt 0.547525 0.734794
vt 0.238700 0.734794
vt 0.238700 0.703454
vt 0.547525 0.703454
vt 0.547525 0.471529
vt 0.238700 0.471529
vt 0.238700 0.461372
vt 0.547525 0.461372
vt 0.547525 0.285157
vt 0.547525 0.468297
vt 0.238700 0.468297
vt 0.238700 0.285157
vt 0.238700 0.468660
vt 0.547525 0.468660
vt 0.547525 0.500000
vt 0.238700 0.281925
vt 0.547525 0.281925
vt 0.547525 0.292082
vt 0.238700 0.292082
vt 0.547525 0.693297
vt 0.238700 0.693297
vt 0.547525 0.510157
vt 0.584348 0.286198
vt 0.557969 0.285808
vt 0.553370 0.275000
vt 0.588526 0.275710
vt 0.581537 0.463639
vt 0.584903 0.460366
vt 0.594686 0.465594
vt 0.586450 0.473564
vt 0.587697 0.277629
vt 0.596017 0.285995
vt 0.585826 0.291184
vt 0.582430 0.287750
vt 0.554751 0.288836
vt 0.544260 0.467210
vt 0.544260 0.283647
vt 0.553133 0.475589
vt 0.582515 0.463643
vt 0.583463 0.287708
vt 0.593855 0.282906
vt 0.592526 0.468497
vt 0.587363 0.475452
vt 0.583381 0.465166
vt 0.583241 0.467800
vt 0.582096 0.283091
vt 0.592440 0.287878
vt 0.593294 0.463026
vt 0.618506 0.276926
vt 0.627510 0.285358
vt 0.617230 0.290941
vt 0.614043 0.287742
vt 0.626918 0.284131
vt 0.626989 0.466530
vt 0.616818 0.461567
vt 0.616449 0.289539
vt 0.588699 0.471602
vt 0.580503 0.463561
vt 0.590314 0.458348
vt 0.593677 0.461659
vt 0.585263 0.277879
vt 0.619836 0.277475
vt 0.615722 0.288370
vt 0.589304 0.288419
vt 0.592861 0.289292
vt 0.589433 0.292695
vt 0.579299 0.287455
vt 0.587655 0.279191
vt 0.614278 0.463267
vt 0.617509 0.460157
vt 0.627556 0.465311
vt 0.618951 0.473633
vt 0.590102 0.462553
vt 0.615856 0.462615
vt 0.620242 0.473089
vt 0.586319 0.472846
vt 0.547525 0.703454
vt 0.547525 0.693297
vt 0.586175 0.289270
vt 0.585388 0.462296
vt 0.583236 0.286114
vt 0.586124 0.289256
vt 0.591133 0.464979
vt 0.588255 0.461937
vt 0.619133 0.461971
vt 0.615999 0.464980
vt 0.588151 0.461922
vt 0.587331 0.288945
vt 0.519394 0.213333
vt 1.086667 0.213333
vt 1.086667 0.786666
vt 0.519394 0.786667
vt 0.640478 0.889091
vt 0.351806 0.889091
vt 0.351806 0.624474
vt 0.640478 0.624474
vt 0.344880 0.558204
vt 0.343919 0.614415
vt 0.056729 0.614098
vt 0.057691 0.557888
vt 0.055543 0.547828
vt 0.047022 0.556038
vt 0.054641 0.624474
vt 0.046461 0.615990
vt 0.346969 0.547828
vt 0.355149 0.556312
vt 0.346067 0.624474
vt 0.354587 0.616265
vt 0.345084 0.538007
vt 0.046461 0.538006
vt 0.046461 0.528185
vt 0.342208 0.528185
vt 0.351806 0.889091
vt 0.342210 0.895876
vt 0.342210 0.624474
vt 0.046461 0.538006
vt 0.345085 0.538007
vt 0.342208 0.547828
vt 0.046461 0.547828
vt 0.640478 0.889091
vt 0.650074 0.624474
vt 0.650074 0.895876
vt 0.363473 0.963280
vt 0.047311 0.967806
vt 0.046461 0.908413
vt 0.576180 0.342344
vt 0.575694 0.462178
vt 0.572739 0.465200
vt 0.544260 0.500000
vt 0.544260 0.510157
vt 0.544260 0.478454
vt 0.238700 0.478454
vt 0.544260 0.468297
vt 0.544260 0.349795
vt 0.238700 0.349795
vt 0.544260 0.693297
vt 0.585682 0.467281
vt 0.577187 0.475410
vt 0.620067 0.275000
vt 0.629299 0.283557
vt 0.596295 0.475227
vt 0.587821 0.467018
vt 0.597852 0.461938
vt 0.600785 0.464990
vt 0.629299 0.467004
vt 0.620553 0.475468
vt 0.544260 0.703454
vt 0.648646 0.904137
vt 0.576111 0.342335
vt 0.587189 0.349032
vt 0.597322 0.341502
vt 0.576224 0.341693
vt 0.586349 0.349256
vt 0.946461 0.959278
vt 0.615824 0.286121
vt 0.945611 0.899885
s 1
usemtl fabric_1
f 78/81/10 72/82/11 37/83/12 89/84/13
f 90/85/14 40/86/14 44/87/15 75/88/16
f 88/89/17 77/90/18 36/91/19 34/92/17
f 33/93/20 34/92/21 35/94/22
f 36/91/23 37/95/24 38/96/25
f 39/97/26 40/98/27 41/99/28
f 42/100/29 43/101/30 44/102/31
f 70/103/32 33/104/20 35/105/22 71/106/33
f 34/92/21 36/91/23 38/96/25 35/94/22
f 72/107/34 43/108/30 42/109/29 73/110/35
f 74/111/36 41/112/36 40/113/14 90/114/14
f 89/84/13 37/95/12 36/91/19 77/90/18
f 39/115/26 42/116/29 44/117/31 40/118/27
f 71/119/33 35/120/22 38/121/25 73/122/35
f 66/123/37 52/124/38 56/125/39 68/126/40
f 45/127/41 46/128/42 47/129/43
f 48/130/44 49/131/45 50/132/46
f 51/133/47 52/134/38 53/135/48
f 54/136/49 55/137/50 56/138/39
f 80/139/51 55/140/52 54/141/53 84/142/54
f 65/143/55 53/144/48 52/145/38 66/146/37
f 67/147/56 48/148/44 50/149/46 68/150/40
f 49/131/45 47/129/43 46/128/42 50/132/46
f 81/151/57 45/127/57 47/129/17 85/152/17
f 51/153/47 54/154/49 56/155/39 52/156/38
f 86/157/58 63/158/59 64/159/60 82/160/61
f 76/161/57 61/162/57 62/163/17 88/89/17
f 91/164/62 59/165/63 60/166/64 75/167/16
f 83/168/36 57/169/36 58/170/14 79/171/14
f 85/152/17 82/160/61 64/159/60 62/163/17
f 79/172/14 58/173/14 60/174/64 84/175/54
f 87/176/65 69/177/66 63/158/59 86/157/58
f 80/178/67 59/179/68 69/177/66 87/176/65
f 55/180/50 67/181/56 68/182/40 56/183/39
f 45/184/41 65/185/55 66/186/37 46/187/42
f 46/188/42 66/189/37 68/190/40 50/191/46
f 39/192/26 71/193/33 73/194/35 42/195/29
f 37/196/24 72/197/34 73/198/35 38/199/25
f 41/200/28 70/201/32 71/202/33 39/203/26
f 91/204/69 43/205/70 72/82/11 78/81/10
f 59/179/68 91/204/69 78/81/10 69/177/66
f 63/158/59 89/84/13 77/90/18 64/159/60
f 57/206/36 74/207/36 90/208/14 58/209/14
f 62/163/17 64/159/60 77/90/18 88/89/17
f 58/210/14 90/211/14 75/212/16 60/213/64
f 69/177/66 78/81/10 89/84/13 63/158/59
f 55/214/71 80/178/67 87/176/65 67/215/72
f 67/215/72 87/176/65 86/157/58 48/130/73
f 51/216/14 79/217/14 84/218/54 54/219/53
f 47/129/17 49/131/74 82/160/61 85/152/17
f 53/220/36 83/221/36 79/222/14 51/223/14
f 48/130/73 86/157/58 82/160/61 49/131/74
f 61/162/57 81/151/57 85/152/17 62/163/17
f 59/224/63 80/225/51 84/226/54 60/227/64
f 43/228/75 91/229/62 75/230/16 44/231/15
f 33/93/57 76/161/57 88/89/17 34/92/17
f 163/232/76 108/233/76 98/234/14 161/235/14
f 92/236/77 93/237/78 94/238/79
f 95/239/80 96/240/81 97/241/82
f 116/242/83 135/243/84 146/244/85 124/245/86
f 160/246/87 158/247/88 140/248/89 144/249/90
f 98/234/91 99/250/92 100/251/93
f 101/252/94 102/253/95 103/254/96
f 154/255/97 106/256/98 96/240/99 152/257/100
f 93/258/78 95/259/80 97/260/82 94/261/79
f 155/262/101 115/263/102 106/256/98 154/255/97
f 164/264/103 117/265/104 108/233/76 163/232/76
f 104/266/105 92/236/77 94/238/79 105/267/106
f 102/268/95 100/269/93 99/270/92 103/271/96
f 161/235/14 98/234/14 100/251/36 162/272/36
f 152/257/100 96/240/99 95/239/107 153/273/108
f 159/274/109 138/275/110 149/276/111 160/277/87
f 110/278/112 101/252/94 103/254/96 111/279/113
f 120/280/114 104/266/105 105/267/106 112/281/115
f 105/282/106 94/261/79 97/260/82 107/283/116
f 98/234/91 108/233/117 109/284/118 99/250/92
f 114/285/119 132/286/120 143/287/121 123/288/122
f 96/240/81 106/256/123 107/289/116 97/241/82
f 128/290/124 121/291/125 113/292/126 141/293/127
f 108/233/117 117/265/128 125/294/129 109/284/118
f 106/256/123 115/263/130 122/295/131 107/289/116
f 112/296/115 105/282/106 107/283/116 122/297/131
f 109/298/118 125/299/129 118/300/132 111/301/113
f 126/302/133 110/278/112 111/279/113 118/303/132
f 99/270/92 109/298/118 111/301/113 103/271/96
f 164/264/103 120/280/134 121/291/135 165/304/136
f 155/262/101 126/302/137 127/305/138 156/306/139
f 120/280/114 112/281/115 113/292/126 121/291/125
f 126/302/133 118/303/132 119/307/140 127/305/141
f 112/296/115 122/297/131 123/308/122 113/309/126
f 116/242/83 124/245/86 125/294/129 117/265/128
f 114/285/119 123/288/122 122/295/131 115/263/130
f 124/310/86 119/311/140 118/300/132 125/299/129
f 124/310/86 146/312/85 150/313/142 119/311/140
f 156/306/139 159/274/143 131/314/144 133/315/144 132/286/144 114/285/145
f 165/304/136 157/316/146 134/317/147 136/318/147 135/243/147 116/242/148
f 113/309/126 123/308/122 143/319/121 141/320/127
f 137/321/149 127/305/141 119/307/140 150/322/142
f 144/249/90 140/248/89 142/323/150 145/324/151
f 145/324/151 142/323/150 141/320/127 143/319/121
f 131/314/152 144/325/90 145/326/151 133/315/153
f 133/315/153 145/326/151 143/287/121 132/286/120
f 140/327/89 129/328/154 130/329/155 142/330/150
f 142/330/150 130/329/155 128/290/124 141/293/127
f 150/313/142 146/312/85 148/331/156 151/332/157
f 151/332/157 148/331/156 147/333/158 149/334/111
f 137/321/149 150/322/142 151/335/157 139/336/159
f 139/336/159 151/335/157 149/276/111 138/275/110
f 146/244/85 135/243/84 136/318/160 148/337/156
f 148/337/156 136/318/160 134/317/161 147/338/158
f 157/316/162 129/328/154 140/327/89 158/339/88
f 115/263/102 155/262/101 156/306/139 114/285/145
f 101/252/163 152/257/100 153/273/108 102/253/164
f 126/302/137 155/262/101 154/255/97 110/278/165
f 110/278/165 154/255/97 152/257/100 101/252/163
f 134/317/161 157/316/162 158/339/88 147/338/158
f 131/314/152 159/274/109 160/277/87 144/325/90
f 149/334/111 147/333/158 158/247/88 160/246/87
f 117/265/104 164/264/103 165/304/136 116/242/148
f 92/236/14 161/235/14 162/272/36 93/237/36
f 120/280/134 164/264/103 163/232/76 104/266/76
f 104/266/76 163/232/76 161/235/14 92/236/14
f 128/290/166 130/329/166 129/328/166 157/316/146 165/304/136 121/291/135
f 137/321/167 139/336/167 138/275/167 159/274/143 156/306/139 127/305/138
f 176/340/168 180/341/169 178/342/170 170/343/171
f 192/344/172 186/345/173 190/346/174 182/347/175
f 171/348/176 185/349/176 195/350/177 177/351/177
f 187/352/2 172/353/2 167/354/178 191/355/178
f 197/356/179 179/357/179 181/358/180 189/359/180
f 193/360/37 189/361/180 181/362/180 175/363/37
f 179/364/179 197/365/179 185/366/176 171/348/176
f 172/367/55 187/368/55 193/369/37 175/370/37
f 183/371/181 168/372/181 177/351/177 195/373/177
f 173/374/182 166/375/183 167/376/184 172/377/57
f 178/378/170 180/379/169 181/380/185 179/381/186
f 172/382/187 175/383/188 174/384/189 173/385/182
f 169/386/190 176/340/168 177/387/191 168/388/192
f 171/389/193 177/387/191 176/340/168 170/343/171
f 166/375/183 169/386/190 168/388/194 167/376/184
f 180/390/169 174/391/189 175/392/188 181/393/185
f 179/394/186 171/389/193 170/343/171 178/395/170
f 189/396/195 193/397/196 192/398/172 188/399/197
f 191/400/198 183/401/199 182/402/175 190/403/174
f 183/404/199 195/405/200 194/406/201 182/407/175
f 197/408/202 189/409/195 188/410/197 196/411/203
f 187/412/204 191/413/198 190/414/174 186/415/173
f 186/416/173 192/417/172 193/418/196 187/419/204
f 184/420/205 194/421/201 195/422/200 185/423/206
f 196/424/203 184/425/205 185/426/206 197/427/202
f 191/428/178 167/354/178 168/372/32 183/429/32
f 169/386/190 174/430/189 180/431/169 176/340/168
f 166/375/183 173/432/182 174/433/189 169/386/190
f 196/434/203 188/435/197 194/436/201 184/437/205
f 188/438/197 192/439/172 182/347/175 194/436/201
f 208/340/168 212/341/169 210/342/170 202/343/171
f 224/344/172 218/345/173 222/346/174 214/347/175
f 203/348/176 217/349/176 227/350/177 209/351/177
f 219/352/2 204/353/2 199/354/178 223/355/178
f 229/356/179 211/357/179 213/358/180 221/359/180
f 225/360/37 221/361/180 213/362/180 207/363/37
f 211/364/179 229/365/179 217/366/176 203/348/176
f 204/367/55 219/368/55 225/369/37 207/370/37
f 215/371/181 200/372/181 209/351/177 227/373/177
f 205/374/182 198/375/183 199/376/184 204/377/57
f 210/378/170 212/379/169 213/380/185 211/381/186
f 204/382/187 207/383/188 206/384/189 205/385/182
f 201/386/190 208/340/168 209/387/191 200/388/192
f 203/389/193 209/387/191 208/340/168 202/343/171
f 198/375/183 201/386/190 200/388/194 199/376/184
f 212/390/169 206/391/189 207/392/188 213/393/185
f 211/394/186 203/389/193 202/343/171 210/395/170
f 221/396/195 225/397/196 224/398/172 220/399/197
f 223/400/198 215/401/199 214/402/175 222/403/174
f 215/404/199 227/405/200 226/406/201 214/407/175
f 229/408/202 221/409/195 220/410/197 228/411/203
f 219/412/204 223/413/198 222/414/174 218/415/173
f 218/416/173 224/417/172 225/418/196 219/419/204
f 216/420/205 226/421/201 227/422/200 217/423/206
f 228/424/203 216/425/205 217/426/206 229/427/202
f 223/428/178 199/354/178 200/372/32 215/429/32
f 201/386/190 206/430/189 212/431/169 208/340/168
f 198/375/183 205/432/182 206/433/189 201/386/190
f 228/434/203 220/435/197 226/436/201 216/437/205
f 220/438/197 224/439/172 214/347/175 226/436/201
f 242/444/68 267/445/68 234/446/207 239/447/207
f 238/448/17 240/449/208 233/450/208 231/451/17
f 230/452/20 231/451/21 232/453/22
f 233/450/23 234/454/209 235/455/210
f 236/456/41 237/457/42 238/448/43
f 239/458/211 240/449/45 241/459/212
f 243/460/213 230/461/20 232/462/22 248/463/214
f 231/451/21 233/450/23 235/455/210 232/453/22
f 234/446/209 267/464/215 269/465/216 235/466/210
f 236/467/41 259/468/217 262/469/218 237/470/42
f 242/471/219 239/447/211 241/472/212 268/473/220
f 240/449/45 238/448/43 237/457/42 241/459/212
f 230/452/57 236/456/57 238/448/17 231/451/17
f 239/458/207 234/454/207 233/450/208 240/449/208
f 248/474/214 232/475/22 235/476/210 269/477/216
f 249/340/221 253/478/222 251/479/223 246/343/224
f 247/348/225 258/480/225 264/481/226 250/351/226
f 266/482/207 252/483/207 254/362/208 261/484/208
f 242/485/227 261/484/208 254/362/208 267/486/227
f 252/483/207 266/482/207 258/480/225 247/348/225
f 244/372/14 250/351/226 264/481/226 256/487/14
f 251/479/223 253/478/222 254/488/228 252/489/229
f 247/389/230 250/387/231 249/340/221 246/343/224
f 248/375/214 245/386/232 244/388/233 243/376/213
f 252/489/229 247/389/230 246/343/224 251/479/223
f 259/490/217 256/491/234 255/347/235 262/346/218
f 266/492/236 261/493/237 260/494/238 265/495/239
f 257/437/240 263/436/241 264/496/242 258/497/243
f 265/495/239 257/437/240 258/497/243 266/492/236
f 259/498/36 243/354/36 244/372/14 256/487/14
f 255/347/235 263/436/241 260/494/238 268/499/220
f 265/495/239 260/494/238 263/436/241 257/437/240
f 245/386/232 248/474/214 269/500/216
f 261/493/237 242/501/219 268/502/220 260/494/238
f 253/478/222 269/503/216 267/504/215 254/488/228
f 249/340/221 250/387/231 244/388/233 245/386/232
f 264/496/242 263/436/241 255/347/235 256/491/234
f 249/340/221 245/386/232 269/500/216 253/478/222
f 237/505/42 262/506/218 268/499/220 241/507/212
f 262/506/218 255/347/235 268/499/220
s 0
usemtl wood_6
f 2/1/1 4/2/1 8/3/1 6/4/1
f 6/5/2 8/6/2 7/7/2 5/8/2
f 1/9/3 2/10/3 6/11/3 5/12/3
f 4/13/4 3/14/4 7/15/4 8/16/4
f 3/17/5 1/18/5 5/19/5 7/20/5
f 10/21/6 12/22/6 16/23/6 14/24/6
f 14/25/2 16/26/2 15/27/2 13/28/2
f 9/29/3 10/30/3 14/31/3 13/32/3
f 12/33/4 11/34/4 15/35/4 16/36/4
f 11/37/7 9/38/7 13/39/7 15/40/7
f 18/41/1 20/42/1 24/43/1 22/44/1
f 22/45/2 24/46/2 23/47/2 21/48/2
f 17/49/8 18/50/8 22/51/8 21/52/8
f 20/53/9 19/54/9 23/55/9 24/56/9
f 19/57/5 17/58/5 21/59/5 23/60/5
f 26/61/6 28/62/6 32/63/6 30/64/6
f 30/65/2 32/66/2 31/67/2 29/68/2
f 25/69/8 26/70/8 30/71/8 29/72/8
f 28/73/9 27/74/9 31/75/9 32/76/9
f 27/77/7 25/78/7 29/79/7 31/80/7
s 1
f 243/440/2 259/441/2 236/442/2 230/443/2
