# Blender 5.0.1
# www.blender.org
mtllib armchair_1_2.mtl
o armchair_1_2
v -0.468000 0.143000 0.967999
v -0.468000 0.165000 0.989999
v -0.490000 0.165000 0.967999
v -0.468000 0.341000 0.989999
v -0.468000 0.363000 0.967999
v -0.490000 0.341000 0.967999
v -0.490000 0.165000 0.087999
v -0.468000 0.165000 0.065999
v -0.468000 0.143000 0.087999
v -0.490000 0.341000 0.087999
v -0.468000 0.363000 0.087999
v -0.468000 0.341000 0.065999
v 0.468000 0.143000 0.967999
v 0.490000 0.165000 0.967999
v 0.468000 0.165000 0.989999
v 0.468000 0.363000 0.967999
v 0.468000 0.341000 0.989999
v 0.490000 0.341000 0.967999
v 0.468000 0.165000 0.065999
v 0.490000 0.165000 0.087999
v 0.468000 0.143000 0.087999
v 0.468000 0.341000 0.065999
v 0.468000 0.363000 0.087999
v 0.490000 0.341000 0.087999
v -0.446001 0.143000 0.946000
v -0.446001 0.143000 0.880000
v -0.380001 0.143000 0.946000
v -0.380001 0.143000 0.880000
v -0.458532 0.000000 0.958532
v -0.458532 0.000000 0.911467
v -0.411468 0.000000 0.958532
v -0.411468 0.000000 0.911467
v -0.446001 0.143000 0.109999
v -0.446001 0.143000 0.044000
v -0.380001 0.143000 0.109999
v -0.380001 0.143000 0.044000
v -0.458532 0.000000 0.078532
v -0.458532 0.000000 0.031467
v -0.411468 0.000000 0.078532
v -0.411468 0.000000 0.031467
v 0.379999 0.143000 0.946000
v 0.379999 0.143000 0.880000
v 0.445999 0.143000 0.946000
v 0.445999 0.143000 0.880000
v 0.411467 0.000000 0.958532
v 0.411467 0.000000 0.911467
v 0.458532 0.000000 0.958532
v 0.458532 0.000000 0.911467
v 0.379999 0.143000 0.109999
v 0.379999 0.143000 0.044000
v 0.445999 0.143000 0.109999
v 0.445999 0.143000 0.044000
v 0.411467 0.000000 0.078532
v 0.411467 0.000000 0.031467
v 0.458532 0.000000 0.078532
v 0.458532 0.000000 0.031467
v -0.490000 0.165000 0.031112
v -0.468000 0.143000 0.021999
v -0.468000 0.165000 -0.000001
v -0.490000 0.174113 0.021999
v -0.490000 0.726000 0.031112
v -0.468000 0.748000 0.021999
v -0.468000 0.143000 0.087999
v -0.490000 0.165000 0.078887
v -0.490000 0.174113 0.087999
v -0.468000 0.165000 0.109999
v -0.490000 0.716887 0.021999
v -0.468000 0.726000 -0.000000
v -0.490000 0.726000 0.078887
v -0.468000 0.748000 0.087999
v -0.490000 0.716887 0.087999
v -0.468000 0.726000 0.109999
v 0.490000 0.174113 0.021999
v 0.468000 0.165000 -0.000001
v 0.490000 0.726000 0.031112
v 0.468000 0.748000 0.021999
v 0.490000 0.165000 0.078887
v 0.468000 0.143000 0.087999
v 0.490000 0.716887 0.087999
v 0.468000 0.726000 0.109999
v 0.490000 0.165000 0.031112
v 0.468000 0.143000 0.021999
v 0.490000 0.174113 0.087999
v 0.468000 0.165000 0.109999
v 0.490000 0.716887 0.021999
v 0.468000 0.726000 -0.000000
v 0.490000 0.726000 0.078887
v 0.468000 0.748000 0.087999
v -0.468000 0.363000 0.946001
v -0.468000 0.385000 0.968001
v -0.490000 0.385000 0.946001
v -0.468000 0.495000 0.968001
v -0.468000 0.517000 0.946001
v -0.490000 0.495000 0.946001
v -0.490000 0.385000 0.154001
v -0.468000 0.385000 0.132001
v -0.468000 0.363000 0.154001
v -0.490000 0.528000 0.154001
v -0.468000 0.550000 0.154001
v -0.468000 0.528000 0.132001
v 0.468000 0.363000 0.946001
v 0.490000 0.385000 0.946001
v 0.468000 0.385000 0.968001
v 0.468000 0.517000 0.946001
v 0.468000 0.495000 0.968001
v 0.490000 0.495000 0.946001
v 0.468000 0.385000 0.132001
v 0.490000 0.385000 0.154001
v 0.468000 0.363000 0.154001
v 0.468000 0.528000 0.132001
v 0.468000 0.550000 0.154001
v 0.490000 0.528000 0.154001
v -0.005000 0.363000 0.154001
v -0.005000 0.385000 0.132001
v -0.005000 0.550000 0.154001
v -0.005000 0.528000 0.132001
v -0.005000 0.363000 0.946001
v -0.005000 0.385000 0.968001
v -0.005000 0.517000 0.946001
v -0.005000 0.495000 0.968001
v 0.468000 0.363000 0.715001
v 0.490000 0.385000 0.715001
v 0.468000 0.550000 0.715001
v 0.490000 0.528000 0.715001
v -0.005000 0.550000 0.715001
v -0.468000 0.363000 0.715001
v -0.490000 0.385000 0.715001
v -0.468000 0.550000 0.715001
v -0.490000 0.528000 0.715001
v -0.296500 0.363000 0.154001
v -0.296500 0.544500 0.132001
v -0.296500 0.363000 0.946001
v -0.296500 0.511500 0.968001
v -0.296500 0.566500 0.715001
v 0.286500 0.385000 0.132001
v 0.286500 0.566500 0.154001
v 0.286500 0.363000 0.946001
v 0.286500 0.511500 0.968001
v 0.286500 0.363000 0.154001
v 0.286500 0.544500 0.132001
v 0.286500 0.385000 0.968001
v 0.286500 0.533500 0.946001
v 0.286500 0.566500 0.715001
v -0.296500 0.385000 0.968001
v -0.296500 0.533500 0.946001
v -0.296500 0.385000 0.132001
v -0.296500 0.566500 0.154001
v -0.468000 0.578752 0.108448
v -0.468000 0.561000 0.126201
v -0.490000 0.578752 0.126201
v -0.468000 0.561000 0.298714
v -0.468000 0.578752 0.316466
v -0.490000 0.578752 0.298714
v 0.468000 0.578752 0.108448
v 0.490000 0.578752 0.126201
v 0.468000 0.561000 0.126201
v 0.468000 0.578752 0.316466
v 0.468000 0.561000 0.298714
v 0.490000 0.578752 0.298714
v -0.468000 0.677600 0.108448
v -0.490000 0.677600 0.126087
v -0.468000 0.677600 0.315558
v -0.490000 0.677600 0.297920
v 0.468000 0.677600 0.108448
v 0.490000 0.677600 0.126087
v 0.468000 0.677600 0.315558
v 0.490000 0.677600 0.297920
v -0.490000 0.775286 0.114787
v -0.490000 0.929190 0.068991
v -0.468000 0.956942 0.234613
v -0.468000 0.802682 0.289666
v 0.468000 0.925185 0.051635
v 0.468000 0.771383 0.097704
v 0.490000 0.798760 0.272513
v 0.490000 0.953008 0.217224
v -0.468000 0.771383 0.097704
v -0.468000 0.925185 0.051635
v -0.490000 0.798760 0.272513
v -0.490000 0.953008 0.217224
v 0.490000 0.929190 0.068991
v 0.490000 0.775286 0.114787
v 0.468000 0.802682 0.289666
v 0.468000 0.956942 0.234613
v -0.468000 0.955518 0.037439
v -0.391191 1.010364 0.011771
v -0.445503 0.994300 0.019289
v -0.391007 1.042121 0.194749
v -0.468000 0.984060 0.221922
v -0.445450 1.025115 0.202707
v 0.391191 1.010364 0.011771
v 0.468000 0.955518 0.037439
v 0.445503 0.994300 0.019289
v 0.468000 0.984060 0.221922
v 0.391007 1.042121 0.194749
v 0.445450 1.025115 0.202707
v -0.413395 1.031706 0.027158
v -0.490000 0.974581 0.050469
v -0.467563 1.014974 0.033986
v -0.490000 0.998142 0.198807
v -0.413330 1.055523 0.175392
v -0.467544 1.038717 0.182250
v 0.490000 0.974581 0.050469
v 0.413395 1.031706 0.027158
v 0.467564 1.014974 0.033986
v 0.413330 1.055523 0.175392
v 0.490000 0.998142 0.198807
v 0.467544 1.038717 0.182250
v -0.005000 0.578752 0.294466
v -0.005000 0.561000 0.276714
v -0.005000 0.677600 0.293558
v -0.005000 0.802682 0.267666
v -0.005000 0.967942 0.212613
v -0.005000 1.021364 0.011771
v -0.005000 1.042706 0.027158
v -0.005000 1.053121 0.172749
v -0.005000 1.066523 0.153392
v -0.005000 0.578752 0.108448
v -0.005000 0.561000 0.126201
v -0.005000 0.677600 0.108448
v -0.005000 0.771383 0.097704
v -0.005000 0.936185 0.051635
v 0.511998 0.657104 -0.000001
v 0.489998 0.660000 0.021987
v 0.521512 0.692612 -0.000001
v 0.501906 0.704440 0.021984
v 0.534438 0.736972 0.021979
v 0.545386 0.716486 -0.000001
v 0.634483 0.627388 -0.000001
v 0.655847 0.615561 0.021954
v 0.623315 0.583029 0.021952
v 0.601174 0.594078 -0.000001
v 0.577998 0.725224 -0.000001
v 0.578877 0.748879 0.021973
v 0.667755 0.660000 0.021956
v 0.643222 0.660000 -0.000001
v 0.623316 0.736971 0.021967
v 0.610610 0.716486 -0.000001
v 0.655847 0.704439 0.021961
v 0.634483 0.692612 -0.000001
v 0.489998 0.143000 0.021990
v 0.534438 0.143000 0.021992
v 0.511998 0.165000 -0.000001
v 0.544998 0.652759 0.990001
v 0.489998 0.660000 0.935022
v 0.506107 0.657879 0.973894
v 0.584028 0.724242 0.990001
v 0.554359 0.771478 0.935057
v 0.563546 0.758503 0.973907
v 0.507243 0.724361 0.935037
v 0.556876 0.697090 0.989996
v 0.521913 0.716870 0.973898
v 0.747452 0.660000 0.935151
v 0.695301 0.660000 0.990019
v 0.734161 0.660000 0.973950
v 0.637123 0.574670 0.990038
v 0.683090 0.548518 0.935170
v 0.671114 0.555319 0.973963
v 0.730207 0.595636 0.935162
v 0.685363 0.622909 0.990023
v 0.718923 0.603128 0.973956
v 0.618722 0.788724 0.935081
v 0.621119 0.734181 0.990006
v 0.620417 0.773742 0.973918
v 0.685362 0.697090 0.990015
v 0.730205 0.724363 0.935132
v 0.718922 0.716871 0.973941
v 0.658210 0.724243 0.990010
v 0.683086 0.771479 0.935107
v 0.677289 0.758504 0.973930
v 0.489998 0.143000 0.935011
v 0.528917 0.198000 0.989989
v 0.506107 0.159109 0.973885
v 0.554357 0.143000 0.935002
v 0.542693 0.159109 0.973883
v -0.511998 0.657104 -0.000001
v -0.489998 0.660000 0.021987
v -0.521512 0.692612 -0.000001
v -0.501906 0.704440 0.021984
v -0.534438 0.736972 0.021979
v -0.545386 0.716486 -0.000001
v -0.634483 0.627388 -0.000001
v -0.655847 0.615561 0.021954
v -0.623315 0.583029 0.021952
v -0.601174 0.594078 -0.000001
v -0.577998 0.725224 -0.000001
v -0.578877 0.748879 0.021973
v -0.667755 0.660000 0.021956
v -0.643222 0.660000 -0.000001
v -0.623316 0.736971 0.021967
v -0.610610 0.716486 -0.000001
v -0.655847 0.704439 0.021961
v -0.634483 0.692612 -0.000001
v -0.489998 0.143000 0.021990
v -0.534438 0.143000 0.021992
v -0.511998 0.165000 -0.000001
v -0.544998 0.652759 0.990001
v -0.489998 0.660000 0.935022
v -0.506107 0.657879 0.973894
v -0.584028 0.724242 0.990001
v -0.554359 0.771478 0.935057
v -0.563546 0.758503 0.973907
v -0.507243 0.724361 0.935037
v -0.556876 0.697090 0.989996
v -0.521913 0.716870 0.973898
v -0.747452 0.660000 0.935151
v -0.695301 0.660000 0.990019
v -0.734161 0.660000 0.973950
v -0.637123 0.574670 0.990038
v -0.683090 0.548518 0.935170
v -0.671114 0.555319 0.973963
v -0.730207 0.595636 0.935162
v -0.685363 0.622909 0.990023
v -0.718923 0.603128 0.973956
v -0.618722 0.788724 0.935081
v -0.621119 0.734181 0.990006
v -0.620417 0.773742 0.973918
v -0.685362 0.697090 0.990015
v -0.730205 0.724363 0.935132
v -0.718922 0.716871 0.973941
v -0.658210 0.724243 0.990010
v -0.683086 0.771479 0.935107
v -0.677289 0.758504 0.973930
v -0.489998 0.143000 0.935011
v -0.528917 0.198000 0.989989
v -0.506107 0.159109 0.973885
v -0.554357 0.143000 0.935002
v -0.542693 0.159109 0.973883
vn -0.0000 -1.0000 -0.0000
vn -0.0000 1.0000 -0.0000
vn -0.0000 0.9239 0.3827
vn -0.0000 -0.3827 -0.9239
vn -0.0000 0.3827 -0.9239
vn -0.0000 -0.3827 0.9239
vn -0.0000 0.3827 0.9239
vn -0.6861 -0.6861 0.2418
vn -0.6861 -0.2418 0.6861
vn -0.8756 -0.3416 0.3416
vn -0.6861 0.2418 0.6861
vn -0.6861 0.6861 0.2418
vn -0.8756 0.3416 0.3416
vn -0.8756 -0.3416 -0.3416
vn -0.6861 -0.2418 -0.6861
vn -0.6861 -0.6861 -0.2418
vn -0.8756 0.3416 -0.3416
vn -0.6861 0.6861 -0.2418
vn -0.6861 0.2418 -0.6861
vn 0.6861 -0.6861 0.2418
vn 0.8756 -0.3416 0.3416
vn 0.6861 -0.2418 0.6861
vn 0.6861 0.6861 0.2418
vn 0.6861 0.2418 0.6861
vn 0.8756 0.3416 0.3416
vn 0.6861 -0.2418 -0.6861
vn 0.8756 -0.3416 -0.3416
vn 0.6861 -0.6861 -0.2418
vn 0.6861 0.2418 -0.6861
vn 0.6861 0.6861 -0.2418
vn 0.8756 0.3416 -0.3416
vn -0.0000 -0.7071 -0.7071
vn -0.0000 0.7071 -0.7071
vn -0.0000 -0.7071 0.7071
vn -0.0000 -0.2149 -0.9766
vn -0.9962 0.0873 -0.0000
vn 0.9766 -0.2149 -0.0000
vn -0.0000 0.0873 0.9962
vn -0.0000 0.0873 -0.9962
vn -0.0000 -0.2149 0.9766
vn -0.9766 -0.2149 -0.0000
vn 0.9962 0.0873 -0.0000
vn -0.8991 0.1675 -0.4044
vn -0.8991 0.1675 0.4044
vn -0.8991 0.4044 0.1675
vn -0.8991 0.4044 -0.1675
vn 0.8991 -0.1675 0.4044
vn 0.8991 -0.4044 0.1675
vn 0.8991 -0.4044 -0.1675
vn 0.8991 -0.1675 -0.4044
vn -0.0000 0.9239 -0.3827
vn -0.0000 -0.9239 -0.3827
vn -0.0000 -0.0000 -1.0000
vn -0.8991 -0.4044 0.1675
vn -0.8991 -0.4044 -0.1675
vn -0.7345 -0.6269 -0.2597
vn -0.7071 -0.7071 -0.0000
vn -0.7345 0.2597 0.6269
vn -0.7345 0.6269 0.2597
vn -0.7071 -0.5000 0.5000
vn -0.7345 -0.2597 0.6269
vn -0.8991 -0.1675 0.4044
vn -0.8991 -0.1675 -0.4044
vn -0.7345 0.2597 -0.6269
vn -0.7071 -0.0000 -0.7071
vn -0.7345 0.6269 -0.2597
vn -0.7071 -0.5000 -0.5000
vn 0.7345 0.2597 0.6269
vn 0.7345 -0.2597 0.6269
vn 0.8991 0.1675 0.4044
vn 0.7345 -0.6269 -0.2597
vn 0.7345 -0.2597 -0.6269
vn 0.7345 0.2597 -0.6269
vn 0.8991 0.1675 -0.4044
vn 0.7345 0.6269 0.2597
vn 0.8991 0.4044 0.1675
vn 0.7345 -0.6269 0.2597
vn 0.8991 0.4044 -0.1675
vn 0.7345 0.6269 -0.2597
vn 0.0219 0.9973 0.0708
vn -0.0955 0.9929 0.0709
vn -0.0854 0.8872 0.4534
vn 0.0197 0.8956 0.4444
vn -0.0348 0.3622 -0.9315
vn 0.0083 0.3897 -0.9209
vn 0.0083 0.3898 0.9209
vn -0.0348 0.3622 0.9315
vn -0.6760 0.6760 0.2934
vn -0.8740 0.3210 0.3649
vn -0.9239 -0.3827 -0.0000
vn -0.7063 0.7063 0.0487
vn -0.9174 0.3968 0.0291
vn 0.9239 -0.3827 -0.0000
vn 0.9174 0.3968 0.0291
vn 0.6760 0.6760 0.2934
vn 0.8740 0.3210 0.3649
vn 0.0117 0.7071 -0.7071
vn 0.0642 0.7057 -0.7057
vn 0.0330 0.3633 -0.9311
vn 0.0070 0.3977 -0.9175
vn 0.7071 -0.7071 -0.0000
vn 0.7063 0.7063 0.0487
vn 0.0152 0.8972 0.4414
vn -0.0000 0.8921 0.4518
vn -0.0000 0.3708 0.9287
vn 0.0070 0.3977 0.9175
vn 0.0156 0.7070 -0.7070
vn -0.0000 0.3708 -0.9287
vn 0.0170 0.9974 0.0706
vn -0.0000 0.9975 0.0711
vn 0.0171 0.9999 -0.0000
vn 0.0219 0.9998 -0.0000
vn -0.0958 0.9954 -0.0000
vn 0.0905 0.9959 -0.0000
vn 0.0903 0.9934 0.0709
vn 0.0807 0.8878 0.4532
vn 0.0330 0.3633 0.9311
vn -0.0679 0.7055 -0.7055
vn -0.0000 -0.0570 -0.9984
vn -0.6041 -0.2687 -0.7502
vn -0.6049 -0.7497 -0.2685
vn -0.8451 -0.3780 -0.3780
vn -0.6049 -0.7497 0.2685
vn -0.6047 -0.2652 0.7510
vn -0.8452 -0.3762 0.3796
vn 0.6359 -0.2658 -0.7246
vn 0.6135 -0.1899 -0.7665
vn 0.8920 0.0772 -0.4454
vn 0.9093 -0.1410 -0.3915
vn -0.0002 0.9798 0.1998
vn -0.0003 0.8478 -0.5303
vn -0.1896 0.7977 -0.5725
vn -0.1518 0.9582 0.2424
vn 0.6041 -0.2687 -0.7502
vn 0.8451 -0.3780 -0.3780
vn 0.6049 -0.7497 -0.2685
vn 0.6047 -0.2652 0.7510
vn 0.6049 -0.7497 0.2685
vn 0.8452 -0.3762 0.3796
vn 0.0005 0.1068 0.9943
vn 0.0472 0.1060 0.9932
vn 0.0440 -0.3740 0.9264
vn 0.0005 -0.3825 0.9239
vn 0.0005 0.2653 0.9642
vn 0.0439 0.2640 0.9635
vn -0.0000 -0.1965 -0.9805
vn -0.0016 -0.1965 -0.9805
vn -0.6249 -0.0460 -0.7794
vn -0.9075 -0.0237 -0.4194
vn 0.0336 -0.7067 0.7067
vn 0.0003 -0.7071 0.7071
vn 0.0001 0.8244 0.5660
vn 0.0407 0.7999 0.5988
vn 0.1517 0.9583 0.2422
vn 0.6258 0.0802 0.7758
vn 0.8908 0.0505 0.4515
vn -0.6251 -0.1562 -0.7648
vn -0.9107 -0.0833 -0.4046
vn -0.8908 0.0505 0.4515
vn 0.6249 -0.0460 -0.7794
vn 0.9075 -0.0237 -0.4194
vn -0.6143 0.2877 0.7348
vn -0.5333 0.4012 0.7448
vn -0.8443 0.3775 0.3803
vn -0.8956 0.1638 0.4135
vn -0.6258 0.0802 0.7758
vn -0.6135 -0.1899 -0.7665
vn -0.6359 -0.2658 -0.7246
vn -0.9093 -0.1410 -0.3915
vn -0.8920 0.0772 -0.4454
vn 0.6251 -0.1562 -0.7648
vn 0.9107 -0.0833 -0.4046
vn -0.6236 0.2107 0.7528
vn -0.8935 0.1222 0.4320
vn 0.8935 0.1222 0.4320
vn 0.6236 0.2107 0.7528
vn 0.0017 -0.1965 -0.9805
vn 0.0069 -0.3529 -0.9357
vn 0.0001 -0.3549 -0.9349
vn -0.0429 0.2641 0.9635
vn -0.0372 0.3676 0.9292
vn 0.0004 0.3699 0.9291
vn 0.8956 0.1638 0.4135
vn 0.6143 0.2877 0.7348
vn 0.8443 0.3775 0.3803
vn 0.0004 0.4111 0.9116
vn 0.0347 0.4107 0.9111
vn 0.0380 0.3674 0.9293
vn 0.0001 -0.4277 -0.9039
vn -0.0103 -0.4277 -0.9039
vn -0.0067 -0.3528 -0.9357
vn 0.5333 0.4012 0.7448
vn -0.6187 0.5533 -0.5577
vn -0.5603 0.7789 0.2818
vn -0.0406 0.7999 0.5987
vn -0.2651 0.6542 0.7084
vn -0.0867 0.5240 -0.8473
vn -0.3900 0.2104 -0.8965
vn 0.6187 0.5533 -0.5577
vn 0.5603 0.7789 0.2818
vn 0.1893 0.7978 -0.5725
vn 0.2651 0.6542 0.7084
vn 0.3899 0.2104 -0.8965
vn 0.0865 0.5241 -0.8473
vn -0.0002 0.5794 -0.8150
vn -0.0431 -0.3741 0.9264
vn -0.0329 -0.7067 0.7067
vn -0.0462 0.1060 0.9933
vn 0.0105 -0.4277 -0.9038
vn -0.0339 0.4110 0.9110
vn -0.0072 0.9990 -0.0433
vn 0.0072 0.9990 -0.0439
vn 0.5043 0.8611 -0.0655
vn 0.4935 0.8673 -0.0651
vn 0.8667 -0.4949 -0.0621
vn 0.8668 -0.4948 -0.0621
vn 0.9674 -0.2490 -0.0469
vn -0.5053 0.8627 -0.0216
vn -0.4945 0.8689 -0.0220
vn 0.8613 -0.5015 -0.0811
vn 0.8649 -0.4953 -0.0812
vn 0.8649 0.4953 -0.0812
vn 0.8614 0.5015 -0.0811
vn -0.8678 0.4969 -0.0058
vn -0.8642 0.5031 -0.0059
vn 0.9962 -0.0000 -0.0869
vn -0.9914 0.1305 -0.0000
vn -0.0023 0.4160 -0.9094
vn 0.2039 0.3572 -0.9115
vn 0.3527 0.2049 -0.9130
vn -0.2121 0.3634 -0.9072
vn -0.3680 0.2111 -0.9055
vn -0.5992 0.3474 -0.7213
vn -0.3418 0.5965 -0.7262
vn 0.2557 -0.1377 -0.9569
vn 0.3526 -0.2048 -0.9131
vn 0.5797 -0.3332 -0.7436
vn 0.5736 -0.3156 -0.7558
vn 0.0025 0.6805 -0.7327
vn 0.3387 0.5824 -0.7390
vn 0.5798 0.3334 -0.7435
vn 0.4066 -0.0000 -0.9136
vn 0.6669 -0.0000 -0.7451
vn -0.4035 0.0531 -0.9134
vn -0.6979 0.0919 -0.7103
vn -0.0551 -0.2652 -0.9626
vn -0.4081 -0.4082 -0.8166
vn 0.3853 -0.4398 -0.8112
vn -1.0000 -0.0000 -0.0000
vn -0.4674 0.7994 0.3775
vn -0.7989 0.4579 0.3899
vn -0.6314 0.3665 0.6834
vn -0.3651 0.6385 0.6775
vn -0.1900 0.1101 0.9756
vn -0.1099 0.1915 0.9753
vn -0.9147 0.1204 0.3857
vn -0.6100 -0.6101 0.5056
vn -0.4860 -0.5132 0.7074
vn -0.7291 0.0952 0.6778
vn -0.0232 -0.1131 0.9933
vn -0.2289 0.0296 0.9730
vn 0.7988 -0.4906 0.3481
vn 0.8163 -0.4747 0.3291
vn 0.6555 -0.3762 0.6548
vn 0.6026 -0.3614 0.7115
vn 0.1952 -0.1121 0.9743
vn 0.1847 -0.1057 0.9771
vn 0.9460 0.0001 0.3241
vn 0.7578 0.0001 0.6525
vn 0.2256 0.0001 0.9742
vn 0.4652 0.8163 0.3423
vn -0.0059 0.9329 0.3601
vn 0.0036 0.7430 0.6693
vn 0.3779 0.6484 0.6609
vn 0.0006 0.2224 0.9750
vn 0.1124 0.1938 0.9746
vn 0.8163 0.4749 0.3290
vn 0.6555 0.3764 0.6548
vn 0.1951 0.1124 0.9743
vn 0.5312 -0.7234 0.4411
vn 0.4203 -0.6009 0.6800
vn 0.0072 0.9990 -0.0433
vn -0.4935 0.8673 -0.0651
vn -0.5043 0.8611 -0.0655
vn -0.0072 0.9990 -0.0439
vn -0.8667 -0.4949 -0.0621
vn -0.9674 -0.2490 -0.0469
vn -0.8668 -0.4948 -0.0621
vn 0.4945 0.8689 -0.0220
vn 0.5053 0.8627 -0.0216
vn -0.8649 -0.4953 -0.0812
vn -0.8613 -0.5015 -0.0811
vn -0.8614 0.5015 -0.0811
vn -0.8649 0.4953 -0.0812
vn 0.8642 0.5031 -0.0059
vn 0.8678 0.4969 -0.0058
vn -0.9962 -0.0000 -0.0869
vn 0.9914 0.1305 -0.0000
vn 0.0023 0.4160 -0.9094
vn -0.3527 0.2049 -0.9130
vn -0.2039 0.3572 -0.9115
vn 0.2121 0.3634 -0.9072
vn 0.3418 0.5965 -0.7262
vn 0.5992 0.3474 -0.7213
vn 0.3680 0.2111 -0.9055
vn -0.2557 -0.1377 -0.9569
vn -0.5736 -0.3156 -0.7558
vn -0.5797 -0.3332 -0.7436
vn -0.3526 -0.2048 -0.9131
vn -0.3387 0.5824 -0.7390
vn -0.0025 0.6805 -0.7327
vn -0.5798 0.3334 -0.7435
vn -0.4066 -0.0000 -0.9136
vn -0.6669 -0.0000 -0.7451
vn 0.6979 0.0919 -0.7103
vn 0.4035 0.0531 -0.9134
vn 0.4081 -0.4082 -0.8166
vn 0.0551 -0.2652 -0.9626
vn -0.3853 -0.4398 -0.8112
vn 1.0000 -0.0000 -0.0000
vn 0.4674 0.7994 0.3775
vn 0.3651 0.6385 0.6775
vn 0.6314 0.3665 0.6834
vn 0.7989 0.4579 0.3899
vn 0.1099 0.1915 0.9753
vn 0.1900 0.1101 0.9756
vn 0.9147 0.1204 0.3857
vn 0.7291 0.0952 0.6778
vn 0.4860 -0.5132 0.7074
vn 0.6100 -0.6101 0.5056
vn 0.2289 0.0296 0.9730
vn 0.0232 -0.1131 0.9933
vn -0.7988 -0.4906 0.3481
vn -0.6026 -0.3614 0.7115
vn -0.6555 -0.3762 0.6548
vn -0.8163 -0.4747 0.3291
vn -0.1793 -0.0638 0.9817
vn -0.1952 -0.1121 0.9743
vn -0.7578 0.0001 0.6525
vn -0.9460 0.0001 0.3241
vn -0.2256 0.0001 0.9742
vn -0.4652 0.8163 0.3423
vn -0.3779 0.6484 0.6609
vn -0.0036 0.7430 0.6692
vn 0.0059 0.9329 0.3601
vn -0.1124 0.1938 0.9746
vn -0.0006 0.2224 0.9750
vn -0.8163 0.4749 0.3290
vn -0.6555 0.3764 0.6548
vn -0.1951 0.1124 0.9743
vn -0.5312 -0.7234 0.4411
vn -0.4203 -0.6009 0.6800
vt 0.519394 0.253333
vt 1.086667 0.253333
vt 1.086667 0.786666
vt 0.519394 0.786667
vt 0.640478 0.895876
vt 0.351806 0.895876
vt 0.351806 0.624474
vt 0.640478 0.624474
vt 0.638888 0.961859
vt 0.354417 0.961529
vt 0.354034 0.905831
vt 0.638505 0.906162
vt 0.344880 0.558204
vt 0.343919 0.614415
vt 0.056729 0.614098
vt 0.057691 0.557888
vt 0.055543 0.547828
vt 0.047022 0.556038
vt 0.054641 0.624474
vt 0.046461 0.615990
vt 0.344276 0.963554
vt 0.352444 0.971815
vt 0.343425 0.904161
vt 0.346969 0.547828
vt 0.355149 0.556312
vt 0.346067 0.624474
vt 0.354587 0.616265
vt 0.649496 0.963529
vt 0.641116 0.971815
vt 0.648646 0.904137
vt 0.324250 0.538006
vt 0.046461 0.538006
vt 0.046461 0.528185
vt 0.324250 0.528185
vt 0.342210 0.895876
vt 0.342210 0.624474
vt 0.046461 0.538006
vt 0.324250 0.538006
vt 0.324250 0.547828
vt 0.046461 0.547828
vt 0.650074 0.624474
vt 0.650074 0.895876
vt 0.910895 -0.475108
vt 0.910895 -0.515108
vt 0.819153 -0.496037
vt 0.819153 -0.467512
vt 0.826434 -0.467510
vt 0.826433 -0.496035
vt 0.797909 -0.496035
vt 0.797909 -0.467510
vt 0.976187 0.225749
vt 0.976186 0.185749
vt 0.885975 0.204819
vt 0.885975 0.233343
vt 1.064614 0.138873
vt 1.064613 0.178873
vt 0.972871 0.186468
vt 0.972871 0.157944
vt 0.911740 -0.515105
vt 0.911740 -0.475104
vt 0.821526 -0.467509
vt 0.821525 -0.496033
vt 0.910973 -0.600104
vt 0.910973 -0.640105
vt 0.820761 -0.621034
vt 0.820760 -0.592509
vt 0.826432 -0.592507
vt 0.826432 -0.621031
vt 0.797910 -0.621031
vt 0.797909 -0.592506
vt 0.976185 0.127416
vt 0.976185 0.087416
vt 0.885975 0.079819
vt 0.885975 0.108344
vt 1.064612 0.040543
vt 1.064612 0.080544
vt 0.972870 0.061471
vt 0.972870 0.032947
vt 0.911661 -0.640108
vt 0.911660 -0.600109
vt 0.819919 -0.592514
vt 0.819920 -0.621038
vt 0.910891 0.139915
vt 0.910891 0.099915
vt 0.819150 0.092318
vt 0.819150 0.120842
vt 0.826430 0.120844
vt 0.826430 0.092320
vt 0.797906 0.092320
vt 0.797906 0.120844
vt 0.929968 0.100746
vt 0.929968 0.060746
vt 0.838227 0.079819
vt 0.838227 0.108343
vt 0.921335 0.107623
vt 0.921335 0.147623
vt 0.831122 0.155218
vt 0.831121 0.126694
vt 0.903930 0.131166
vt 0.903930 0.171166
vt 0.837155 0.152093
vt 0.837155 0.123569
vt 0.910973 0.311791
vt 0.910973 0.271791
vt 0.820761 0.264194
vt 0.820760 0.292718
vt 0.826430 0.292718
vt 0.826430 0.264194
vt 0.797906 0.264194
vt 0.797906 0.292719
vt 0.929968 0.299287
vt 0.929968 0.259288
vt 0.838227 0.251694
vt 0.838227 0.280217
vt 0.921335 0.306164
vt 0.921335 0.346164
vt 0.831122 0.327093
vt 0.831122 0.298569
vt 0.903847 0.303040
vt 0.903847 0.343040
vt 0.835544 0.323968
vt 0.835544 0.295444
vt 0.945611 0.899885
vt 0.946461 0.959278
vt 0.047311 0.967806
vt 0.046461 0.908413
vt 0.554424 0.461925
vt 0.575694 0.462178
vt 0.572739 0.465200
vt 0.557352 0.464998
vt 0.597154 0.288971
vt 0.600129 0.285855
vt 0.615799 0.285922
vt 0.618825 0.289034
vt 0.238700 0.500000
vt 0.544260 0.500000
vt 0.544260 0.510157
vt 0.238700 0.510157
vt 0.544260 0.725000
vt 0.238700 0.725000
vt 0.238700 0.703454
vt 0.544260 0.703454
vt 0.544260 0.478454
vt 0.238700 0.478454
vt 0.238700 0.468297
vt 0.544260 0.468297
vt 0.544260 0.285157
vt 0.238700 0.285157
vt 0.238700 0.275000
vt 0.544260 0.275000
vt 0.544260 0.693297
vt 0.238700 0.693297
vt 0.573429 0.285982
vt 0.557969 0.285808
vt 0.553370 0.275000
vt 0.578182 0.275545
vt 0.585682 0.467281
vt 0.577187 0.475410
vt 0.586788 0.284086
vt 0.576372 0.289137
vt 0.554751 0.288836
vt 0.544260 0.467210
vt 0.544260 0.283647
vt 0.553133 0.475589
vt 0.587821 0.467018
vt 0.586788 0.283878
vt 0.597852 0.461938
vt 0.620067 0.275000
vt 0.629299 0.283557
vt 0.629299 0.467004
vt 0.619133 0.461971
vt 0.596295 0.475227
vt 0.600785 0.464990
vt 0.595437 0.275429
vt 0.615999 0.464980
vt 0.620553 0.475468
vt 0.402111 0.764205
vt 0.347507 0.763752
vt 0.347305 0.686776
vt 0.402020 0.686776
vt 0.565815 0.772844
vt 0.565475 0.720886
vt 0.523149 0.720854
vt 0.518605 0.772809
vt 0.402263 0.642107
vt 0.402304 0.676894
vt 0.349357 0.677472
vt 0.348323 0.645319
vt 0.345764 0.635324
vt 0.338000 0.644003
vt 0.347305 0.687050
vt 0.339859 0.679362
vt 0.688984 0.588816
vt 0.688985 0.595482
vt 0.695651 0.595483
vt 0.395852 0.589929
vt 0.389185 0.596595
vt 0.395852 0.596595
vt 0.755051 0.494579
vt 0.755054 0.424579
vt 0.748387 0.424580
vt 0.748385 0.494580
vt 0.340454 0.494579
vt 0.339239 0.664581
vt 0.345552 0.664581
vt 0.346770 0.494579
vt 0.573541 0.772918
vt 0.573542 0.720948
vt 0.566875 0.720948
vt 0.566874 0.772918
vt 0.563542 0.526100
vt 0.520208 0.526101
vt 0.520208 0.532768
vt 0.563541 0.532767
vt 0.563650 0.494583
vt 0.563542 0.424583
vt 0.530409 0.424583
vt 0.520704 0.494583
vt 0.563542 0.494583
vt 0.563542 0.664583
vt 0.520208 0.664583
vt 0.520208 0.494583
vt 0.654593 0.635108
vt 0.662000 0.643155
vt 0.652443 0.644761
vt 0.653886 0.686776
vt 0.651485 0.676894
vt 0.661698 0.678537
vt 0.587984 0.662360
vt 0.587985 0.669027
vt 0.594651 0.662360
vt 0.496876 0.661251
vt 0.490210 0.661251
vt 0.496876 0.667917
vt 0.510527 0.583425
vt 0.512345 0.638427
vt 0.518175 0.638401
vt 0.516356 0.583399
vt 0.530000 0.671249
vt 0.360000 0.671249
vt 0.360000 0.677916
vt 0.530000 0.677916
vt 0.535027 0.671781
vt 0.605084 0.676052
vt 0.605084 0.682441
vt 0.535028 0.678167
vt 0.595732 0.631881
vt 0.595478 0.642045
vt 0.563541 0.674583
vt 0.520207 0.674583
vt 0.520207 0.681249
vt 0.563541 0.681249
vt 0.595621 0.686776
vt 0.498809 0.686776
vt 0.498812 0.676894
vt 0.595329 0.676894
vt 0.401975 0.631881
vt 0.498827 0.632233
vt 0.498828 0.642574
vt 0.510769 0.406446
vt 0.512103 0.494721
vt 0.518157 0.494740
vt 0.516792 0.406466
vt 0.573542 0.582917
vt 0.573542 0.494584
vt 0.566876 0.494584
vt 0.566875 0.582917
vt 0.563542 0.582917
vt 0.563224 0.494573
vt 0.520036 0.494578
vt 0.516052 0.582943
vt 0.595435 0.764315
vt 0.498775 0.763788
vt 0.595678 0.949870
vt 0.498598 0.949870
vt 0.360001 0.670638
vt 0.530000 0.672593
vt 0.530000 0.678854
vt 0.360000 0.677008
vt 0.600000 0.671250
vt 0.530000 0.671249
vt 0.530000 0.677916
vt 0.600000 0.677916
vt 0.563542 0.424583
vt 0.563542 0.494583
vt 0.520208 0.494583
vt 0.530208 0.424583
vt 0.563458 0.664583
vt 0.563782 0.494583
vt 0.520995 0.494583
vt 0.520331 0.664583
vt 0.342942 0.398057
vt 0.338264 0.468112
vt 0.344651 0.468112
vt 0.349329 0.398057
vt 0.755062 0.664587
vt 0.755059 0.494587
vt 0.748393 0.494588
vt 0.748395 0.664587
vt 0.401921 0.949817
vt 0.347049 0.949716
vt 0.573542 0.494584
vt 0.573542 0.406250
vt 0.566875 0.406250
vt 0.566875 0.494584
vt 0.563590 0.494582
vt 0.563844 0.406241
vt 0.516659 0.406204
vt 0.520630 0.494570
vt 0.653916 0.949768
vt 0.653601 0.763940
vt 0.563542 0.637917
vt 0.563820 0.582925
vt 0.516678 0.582963
vt 0.521122 0.637945
vt 0.573542 0.637917
vt 0.573542 0.582917
vt 0.566875 0.582917
vt 0.566875 0.637917
vt 0.511401 0.494628
vt 0.510075 0.582881
vt 0.516108 0.582861
vt 0.517460 0.494609
vt 0.514361 0.719314
vt 0.512521 0.771242
vt 0.518351 0.771268
vt 0.520190 0.719340
vt 0.345092 0.288068
vt 0.515477 0.287353
vt 0.512246 0.322028
vt 0.345432 0.324342
vt 0.185045 0.324968
vt 0.184040 0.333588
vt 0.175639 0.327410
vt 0.179999 0.336950
vt 0.181386 0.345840
vt 0.171296 0.344005
vt 0.514224 0.192684
vt 0.513038 0.180377
vt 0.523236 0.174263
vt 0.524799 0.192802
vt 0.121832 0.501790
vt 0.167866 0.501791
vt 0.168596 0.648189
vt 0.114795 0.648211
vt 0.521953 0.324257
vt 0.513483 0.330811
vt 0.512326 0.346512
vt 0.513750 0.337625
vt 0.522427 0.344716
vt 0.345000 0.379355
vt 0.179668 0.379837
vt 0.345072 0.342783
vt 0.160972 0.840178
vt 0.099937 0.850000
vt 0.098328 0.839998
vt 0.159362 0.830177
vt 0.344903 0.426295
vt 0.178940 0.424766
vt 0.344766 0.254625
vt 0.516483 0.252234
vt 0.180778 0.291395
vt 0.170488 0.292787
vt 0.099937 0.150000
vt 0.160971 0.159821
vt 0.159362 0.169823
vt 0.098327 0.160001
vt 0.345520 0.333834
vt 0.345091 0.333834
vt 0.344685 0.524305
vt 0.487214 0.516906
vt 0.495415 0.525376
vt 0.344667 0.532849
vt 0.513919 0.380533
vt 0.524031 0.380903
vt 0.178838 0.257017
vt 0.168597 0.257098
vt 0.153775 0.795198
vt 0.092981 0.804982
vt 0.526068 0.288458
vt 0.178744 0.482824
vt 0.178632 0.493407
vt 0.169238 0.501804
vt 0.168597 0.483949
vt 0.169559 0.380168
vt 0.179764 0.185987
vt 0.179025 0.198173
vt 0.168597 0.198661
vt 0.169483 0.180313
vt 0.526893 0.251989
vt 0.168839 0.424976
vt 0.152211 0.759994
vt 0.095072 0.760669
vt 0.153775 0.204801
vt 0.152211 0.240005
vt 0.095072 0.239331
vt 0.092981 0.195019
vt 0.514475 0.425482
vt 0.524578 0.425733
vt 0.344024 0.194014
vt 0.514432 0.483560
vt 0.344764 0.489973
vt 0.524578 0.484729
vt 0.105851 0.702949
vt 0.159651 0.702936
vt 0.159652 0.297063
vt 0.105852 0.297051
vt 0.163621 0.314176
vt 0.109798 0.314068
vt 0.205810 0.516278
vt 0.186457 0.509541
vt 0.343473 0.159575
vt 0.484755 0.161087
vt 0.504105 0.165910
vt 0.109797 0.685932
vt 0.163620 0.685823
vt 0.514500 0.494147
vt 0.523859 0.502587
vt 0.167148 0.668601
vt 0.113341 0.668646
vt 0.197575 0.524709
vt 0.177789 0.517762
vt 0.198290 0.156896
vt 0.207018 0.165954
vt 0.188072 0.171394
vt 0.178500 0.164268
vt 0.167149 0.331399
vt 0.113342 0.331353
vt 0.168597 0.351810
vt 0.114797 0.351789
vt 0.515237 0.518513
vt 0.506602 0.510251
vt 0.513528 0.158355
vt 0.493246 0.151627
vt 0.343306 0.150000
vt 0.506972 0.495397
vt 0.209046 0.496183
vt 0.208312 0.474496
vt 0.506473 0.480423
vt 0.510359 0.420689
vt 0.213913 0.387979
vt 0.226541 0.250000
vt 0.522886 0.275034
vt 0.507809 0.510357
vt 0.210268 0.517849
vt 0.508425 0.435546
vt 0.211115 0.409497
vt 0.225097 0.729093
vt 0.521696 0.708201
vt 0.522712 0.722637
vt 0.226573 0.750000
vt 0.208312 0.452796
vt 0.506481 0.465441
vt 0.508815 0.525305
vt 0.211734 0.539498
vt 0.209225 0.431115
vt 0.507117 0.450472
vt 0.509866 0.540251
vt 0.213263 0.561144
vt 0.561336 0.658810
vt 0.550551 0.659502
vt 0.540895 0.654613
vt 0.570383 0.652727
vt 0.575408 0.642864
vt 0.586024 0.645833
vt 0.578218 0.660490
vt 0.540086 0.619964
vt 0.533939 0.634432
vt 0.522886 0.633155
vt 0.528708 0.618238
vt 0.564262 0.669466
vt 0.547756 0.670219
vt 0.533249 0.662636
vt 0.534792 0.645481
vt 0.524406 0.649144
vt 0.575161 0.630657
vt 0.586067 0.629265
vt 0.533680 0.484963
vt 0.540148 0.473333
vt 0.522886 0.477126
vt 0.713637 0.576200
vt 0.703458 0.553591
vt 0.717731 0.550951
vt 0.725702 0.567774
vt 0.731628 0.548546
vt 0.736416 0.559732
vt 0.703632 0.528328
vt 0.764849 0.352049
vt 0.777289 0.362525
vt 0.718976 0.530661
vt 0.782279 0.379363
vt 0.733244 0.533629
vt 0.804641 0.519060
vt 0.807847 0.544621
vt 0.793225 0.543967
vt 0.788241 0.520108
vt 0.779281 0.543781
vt 0.772647 0.521532
vt 0.801365 0.569450
vt 0.787919 0.561916
vt 0.776672 0.555927
vt 0.758619 0.596725
vt 0.733436 0.592019
vt 0.740360 0.578950
vt 0.758441 0.581927
vt 0.745964 0.566893
vt 0.757662 0.568909
vt 0.783283 0.588679
vt 0.775773 0.575785
vt 0.768714 0.564832
vt 0.807847 0.363767
vt 0.793427 0.370353
vt 0.791289 0.346725
vt 0.784289 0.361815
vt 0.713637 0.482450
vt 0.725702 0.474024
vt 0.717731 0.457201
vt 0.703458 0.459841
vt 0.736416 0.465982
vt 0.731628 0.454796
vt 0.703632 0.434578
vt 0.718976 0.436911
vt 0.777289 0.268775
vt 0.764849 0.258299
vt 0.733244 0.439879
vt 0.782279 0.285613
vt 0.804641 0.425310
vt 0.788241 0.426358
vt 0.793225 0.450217
vt 0.807847 0.450871
vt 0.772647 0.427782
vt 0.779281 0.450031
vt 0.787919 0.468166
vt 0.801365 0.475700
vt 0.776672 0.462177
vt 0.758619 0.502975
vt 0.758441 0.488177
vt 0.740360 0.485200
vt 0.733436 0.498269
vt 0.757662 0.475159
vt 0.745964 0.473143
vt 0.783283 0.494929
vt 0.775773 0.482035
vt 0.768714 0.471082
vt 0.807847 0.270017
vt 0.793427 0.276603
vt 0.791289 0.252975
vt 0.784289 0.268065
s 1
usemtl fabric_6
f 23/5/2 11/6/2 5/7/3 16/8/3
f 19/9/4 8/10/4 12/11/5 22/12/5
f 15/13/6 17/14/7 4/15/7 2/16/6
f 1/17/8 2/16/9 3/18/10
f 4/15/11 5/19/12 6/20/13
f 7/21/14 8/10/15 9/22/16
f 10/23/17 11/6/18 12/11/19
f 13/24/20 14/25/21 15/13/22
f 16/26/23 17/14/24 18/27/25
f 19/9/26 20/28/27 21/29/28
f 22/12/29 23/5/30 24/30/31
f 9/31/16 1/32/8 3/33/10 7/34/14
f 2/16/9 4/15/11 6/20/13 3/18/10
f 5/7/12 11/6/18 10/35/17 6/36/13
f 21/29/32 9/22/32 8/10/4 19/9/4
f 11/6/33 23/5/33 22/12/5 12/11/5
f 13/37/20 21/38/28 20/39/27 14/40/21
f 23/5/30 16/8/23 18/41/25 24/42/31
f 17/14/24 15/13/22 14/25/21 18/27/25
f 1/17/34 13/24/34 15/13/6 2/16/6
f 16/26/3 5/19/3 4/15/7 17/14/7
f 19/9/26 22/12/29 24/30/31 20/28/27
f 7/21/14 10/23/17 12/11/19 8/10/15
f 20/28/27 24/30/31 18/123/25 14/124/21
f 3/125/10 6/126/13 10/23/17 7/21/14
f 67/127/43 71/128/44 69/129/45 61/130/46
f 83/131/47 77/132/48 81/133/49 73/134/50
f 62/135/51 76/136/51 86/137/5 68/138/5
f 88/143/3 70/144/3 72/145/7 80/146/7
f 84/147/6 80/146/7 72/145/7 66/148/6
f 70/144/3 88/143/3 76/136/51 62/135/51
f 63/149/34 78/150/34 84/147/6 66/148/6
f 74/151/53 59/152/53 68/138/5 86/137/5
f 64/153/54 57/154/55 58/155/56 63/156/57
f 69/129/45 71/128/44 72/157/58 70/158/59
f 63/156/60 66/159/61 65/160/62 64/153/54
f 60/161/63 67/127/43 68/162/64 59/163/65
f 62/164/66 68/162/64 67/127/43 61/130/46
f 57/154/55 60/161/63 59/163/67 58/155/56
f 71/128/44 65/160/62 66/159/61 72/157/58
f 70/158/59 62/164/66 61/130/46 69/129/45
f 80/165/68 84/166/69 83/131/47 79/167/70
f 82/168/71 74/169/72 73/134/50 81/133/49
f 74/169/72 86/170/73 85/171/74 73/134/50
f 88/172/75 80/165/68 79/167/70 87/173/76
f 78/174/77 82/168/71 81/133/49 77/132/48
f 77/132/48 83/131/47 84/166/69 78/174/77
f 75/175/78 85/171/74 86/170/73 76/176/79
f 87/173/76 75/175/78 76/176/79 88/172/75
f 82/142/52 58/141/52 59/152/32 74/151/32
f 60/161/63 65/160/62 71/128/44 67/127/43
f 57/154/55 64/153/54 65/160/62 60/161/63
f 87/173/76 79/167/70 85/171/74 75/175/78
f 79/167/70 83/131/47 73/134/50 85/171/74
f 134/177/80 128/178/81 93/179/82 145/180/83
f 146/181/4 96/182/4 100/183/84 131/184/85
f 144/185/6 133/186/86 92/187/87 90/188/6
f 89/189/8 90/188/9 91/190/10
f 92/187/11 93/191/88 94/192/89
f 95/193/14 96/194/15 97/195/16
f 98/196/17 99/197/18 100/198/19
f 126/199/57 89/200/8 91/201/10 127/202/90
f 90/188/9 92/187/11 94/192/89 91/190/10
f 128/203/91 99/204/18 98/205/17 129/206/92
f 130/207/32 97/208/32 96/209/4 146/210/4
f 145/180/83 93/191/82 92/187/87 133/186/86
f 95/211/14 98/212/17 100/213/19 96/214/15
f 127/215/90 91/216/10 94/217/89 129/218/92
f 122/219/93 108/220/27 112/221/31 124/222/94
f 101/223/20 102/224/21 103/225/22
f 104/226/95 105/227/24 106/228/96
f 107/229/26 108/230/27 109/231/28
f 110/232/29 111/233/30 112/234/31
f 136/235/97 111/236/98 110/237/99 140/238/100
f 121/239/101 109/240/28 108/241/27 122/242/93
f 123/243/102 104/244/95 106/245/96 124/246/94
f 105/227/24 103/225/22 102/224/21 106/228/96
f 137/247/34 101/223/34 103/225/6 141/248/6
f 107/249/26 110/250/29 112/251/31 108/252/27
f 142/253/103 119/254/104 120/255/105 138/256/106
f 132/257/34 117/258/34 118/259/6 144/185/6
f 147/260/107 115/261/33 116/262/108 131/263/85
f 139/264/32 113/265/32 114/266/4 135/267/4
f 141/248/6 138/256/106 120/255/105 118/259/6
f 135/268/4 114/269/4 116/270/108 140/271/100
f 143/272/109 125/273/110 119/254/104 142/253/103
f 136/274/111 115/275/2 125/273/110 143/272/109
f 111/276/30 123/277/102 124/278/94 112/279/31
f 101/280/20 121/281/101 122/282/93 102/283/21
f 102/284/21 122/285/93 124/286/94 106/287/96
f 95/288/14 127/289/90 129/290/92 98/291/17
f 93/292/88 128/293/91 129/294/92 94/295/89
f 97/296/16 126/297/57 127/298/90 95/299/14
f 147/300/112 99/301/113 128/178/81 134/177/80
f 115/275/2 147/300/112 134/177/80 125/273/110
f 119/254/104 145/180/83 133/186/86 120/255/105
f 113/302/32 130/303/32 146/304/4 114/305/4
f 118/259/6 120/255/105 133/186/86 144/185/6
f 114/306/4 146/307/4 131/308/85 116/309/108
f 125/273/110 134/177/80 145/180/83 119/254/104
f 111/310/114 136/274/111 143/272/109 123/311/115
f 123/311/115 143/272/109 142/253/103 104/226/116
f 107/312/4 135/313/4 140/314/100 110/315/99
f 103/225/6 105/227/117 138/256/106 141/248/6
f 109/316/32 139/317/32 135/318/4 107/319/4
f 104/226/116 142/253/103 138/256/106 105/227/117
f 117/258/34 137/247/34 141/248/6 118/259/6
f 115/320/33 136/321/97 140/322/100 116/323/108
f 99/324/118 147/325/107 131/326/85 100/327/84
f 89/189/34 132/257/34 144/185/6 90/188/6
f 219/328/119 164/329/119 154/330/4 217/331/4
f 148/332/120 149/333/121 150/334/122
f 151/335/123 152/336/124 153/337/125
f 172/338/126 191/339/127 202/340/128 180/341/129
f 216/342/130 214/343/131 196/344/132 200/345/133
f 154/330/134 155/346/135 156/347/136
f 157/348/137 158/349/138 159/350/139
f 210/351/140 162/352/141 152/336/142 208/353/143
f 149/354/121 151/355/123 153/356/125 150/357/122
f 211/358/144 171/359/145 162/352/141 210/351/140
f 220/360/146 173/361/147 164/329/119 219/328/119
f 160/362/148 148/332/120 150/334/122 161/363/149
f 158/364/138 156/365/136 155/366/135 159/367/139
f 217/331/4 154/330/4 156/347/32 218/368/32
f 208/353/143 152/336/142 151/335/150 209/369/151
f 215/370/152 194/371/153 205/372/154 216/373/130
f 166/374/155 157/348/137 159/350/139 167/375/156
f 176/376/157 160/362/148 161/363/149 168/377/158
f 161/378/149 150/357/122 153/356/125 163/379/159
f 154/330/134 164/329/160 165/380/161 155/346/135
f 170/381/162 188/382/163 199/383/164 179/384/165
f 152/336/124 162/352/166 163/385/159 153/337/125
f 184/386/167 177/387/168 169/388/169 197/389/170
f 164/329/160 173/361/171 181/390/172 165/380/161
f 162/352/166 171/359/173 178/391/174 163/385/159
f 168/392/158 161/378/149 163/379/159 178/393/174
f 165/394/161 181/395/172 174/396/175 167/397/156
f 182/398/176 166/374/155 167/375/156 174/399/175
f 155/366/135 165/394/161 167/397/156 159/367/139
f 220/360/146 176/376/177 177/387/178 221/400/179
f 211/358/144 182/398/180 183/401/181 212/402/182
f 176/376/157 168/377/158 169/388/169 177/387/168
f 182/398/176 174/399/175 175/403/183 183/401/184
f 168/392/158 178/393/174 179/404/165 169/405/169
f 172/338/126 180/341/129 181/390/172 173/361/171
f 170/381/162 179/384/165 178/391/174 171/359/173
f 180/406/129 175/407/183 174/396/175 181/395/172
f 180/406/129 202/408/128 206/409/185 175/407/183
f 212/402/182 215/370/186 187/410/187 189/411/187 188/382/187 170/381/188
f 221/400/179 213/412/189 190/413/190 192/414/190 191/339/190 172/338/191
f 169/405/169 179/404/165 199/415/164 197/416/170
f 193/417/192 183/401/184 175/403/183 206/418/185
f 200/345/133 196/344/132 198/419/193 201/420/194
f 201/420/194 198/419/193 197/416/170 199/415/164
f 187/410/195 200/421/133 201/422/194 189/411/196
f 189/411/196 201/422/194 199/383/164 188/382/163
f 196/423/132 185/424/197 186/425/198 198/426/193
f 198/426/193 186/425/198 184/386/167 197/389/170
f 206/409/185 202/408/128 204/427/199 207/428/200
f 207/428/200 204/427/199 203/429/201 205/430/154
f 193/417/192 206/418/185 207/431/200 195/432/202
f 195/432/202 207/431/200 205/372/154 194/371/153
f 202/340/128 191/339/127 192/414/203 204/433/199
f 204/433/199 192/414/203 190/413/204 203/434/201
f 213/412/205 185/424/197 196/423/132 214/435/131
f 171/359/145 211/358/144 212/402/182 170/381/188
f 157/348/206 208/353/143 209/369/151 158/349/207
f 182/398/180 211/358/144 210/351/140 166/374/208
f 166/374/208 210/351/140 208/353/143 157/348/206
f 190/413/204 213/412/205 214/435/131 203/434/201
f 187/410/195 215/370/152 216/373/130 200/421/133
f 205/430/154 203/429/201 214/343/131 216/342/130
f 173/361/147 220/360/146 221/400/179 172/338/191
f 148/332/4 217/331/4 218/368/32 149/333/32
f 176/376/177 220/360/146 219/328/119 160/362/119
f 160/362/119 219/328/119 217/331/4 148/332/4
f 184/386/209 186/425/209 185/424/209 213/412/189 221/400/179 177/387/178
f 193/417/210 195/432/210 194/371/210 215/370/186 212/402/182 183/401/181
f 233/436/211 261/437/212 268/438/213 236/439/214
f 230/440/215 256/441/216 273/442/217 241/443/217
f 261/437/212 233/436/211 226/444/218 247/445/219
f 256/441/216 230/440/215 229/446/220 258/447/221
f 270/448/1 240/449/1 241/450/1 273/451/1
f 236/439/214 268/438/213 265/452/222 238/453/223
f 247/445/219 226/444/218 225/454/224 249/455/225
f 238/453/223 265/452/222 252/456/226 234/457/226
f 258/447/221 229/446/220 234/457/226 252/456/226
f 249/455/225 225/454/224 223/458/227 244/459/227
f 232/460/228 237/461/229 239/462/230
f 227/463/231 224/464/232 225/465/233 226/466/234
f 231/467/235 228/468/236 229/469/237 230/470/238
f 237/461/229 232/460/228 233/471/239 236/472/240
f 239/462/230 237/461/229 236/472/240 238/473/241
f 235/474/242 239/462/230 238/473/241 234/475/243
f 232/460/228 227/463/231 226/466/234 233/471/239
f 224/464/232 222/476/244 223/477/245 225/465/233
f 228/468/236 235/474/242 234/475/243 229/469/237
f 222/476/244 242/478/246 240/479/247 223/477/245
f 230/470/238 241/480/248 242/478/246 231/467/235
f 242/478/246 241/480/248 240/479/247
f 244/459/227 223/458/227 240/449/249 270/448/249
f 242/478/246 222/476/244 231/467/235
f 222/476/244 224/464/232 228/468/236 231/467/235
f 224/464/232 227/463/231 235/474/242 228/468/236
f 227/463/231 232/460/228 239/462/230 235/474/242
f 247/481/250 249/482/251 251/483/252 248/484/253
f 248/484/253 251/483/252 250/485/254 246/486/255
f 244/487/256 270/488/257 272/489/258 245/490/259
f 245/490/259 272/489/258 271/491/260 243/492/261
f 256/493/262 258/494/263 260/495/264 257/496/265
f 257/496/265 260/495/264 259/497/266 255/498/267
f 258/494/263 252/499/268 254/500/269 260/495/264
f 260/495/264 254/500/269 253/501/270 259/497/266
f 268/502/271 261/503/272 263/504/273 269/505/274
f 269/505/274 263/504/273 262/506/275 267/507/276
f 265/508/277 268/502/271 269/505/274 266/509/278
f 266/509/278 269/505/274 267/507/276 264/510/279
f 261/503/272 247/481/250 248/484/253 263/504/273
f 263/504/273 248/484/253 246/486/255 262/506/275
f 249/482/251 244/487/256 245/490/259 251/483/252
f 251/483/252 245/490/259 243/492/261 250/485/254
f 252/499/268 265/508/277 266/509/278 254/500/269
f 254/500/269 266/509/278 264/510/279 253/501/270
f 273/511/280 256/493/262 257/496/265 274/512/281
f 274/512/281 257/496/265 255/498/267 271/491/260
f 270/513/257 273/511/280 274/512/281 272/514/258
f 272/514/258 274/512/281 271/491/260
f 255/498/267 259/497/266 253/501/270 264/510/279 267/507/276 262/506/275 246/486/255 250/485/254 243/492/261
f 271/491/260 255/498/267 243/492/261
f 286/436/282 289/439/283 321/438/284 314/437/285
f 283/440/286 294/443/287 326/442/287 309/441/288
f 314/437/285 300/445/289 279/444/290 286/436/282
f 309/441/288 311/447/291 282/446/292 283/440/286
f 323/448/1 326/451/1 294/450/1 293/449/1
f 289/439/283 291/453/293 318/452/294 321/438/284
f 300/445/289 302/455/295 278/454/296 279/444/290
f 291/453/293 287/457/297 305/456/297 318/452/294
f 311/447/291 305/456/297 287/457/297 282/446/292
f 302/455/295 297/459/298 276/458/298 278/454/296
f 285/460/299 292/462/300 290/461/301
f 280/463/302 279/466/303 278/465/304 277/464/305
f 284/467/306 283/470/307 282/469/308 281/468/309
f 290/461/301 289/472/310 286/471/311 285/460/299
f 292/462/300 291/473/312 289/472/310 290/461/301
f 288/474/313 287/475/314 291/473/312 292/462/300
f 285/460/299 286/471/311 279/466/303 280/463/302
f 277/464/305 278/465/304 276/477/315 275/476/316
f 281/468/309 282/469/308 287/475/314 288/474/313
f 275/476/316 276/477/315 293/479/317 295/478/318
f 283/470/307 284/467/306 295/478/318 294/480/319
f 295/478/318 293/479/317 294/480/319
f 297/459/298 323/448/320 293/449/320 276/458/298
f 295/478/318 284/467/306 275/476/316
f 275/476/316 284/467/306 281/468/309 277/464/305
f 277/464/305 281/468/309 288/474/313 280/463/302
f 280/463/302 288/474/313 292/462/300 285/460/299
f 300/515/321 301/516/322 304/517/323 302/518/324
f 301/516/322 299/519/325 303/520/326 304/517/323
f 297/521/327 298/522/328 325/523/329 323/524/330
f 298/522/328 296/525/331 324/526/332 325/523/329
f 309/527/333 310/528/334 313/529/335 311/530/336
f 310/528/334 308/531/337 312/532/338 313/529/335
f 311/530/336 313/529/335 307/533/339 305/534/340
f 313/529/335 312/532/338 306/535/341 307/533/339
f 321/536/342 322/537/343 316/538/344 314/539/345
f 322/537/343 320/540/346 315/541/347 316/538/344
f 318/542/348 319/543/349 322/537/343 321/536/342
f 319/543/349 317/544/350 320/540/346 322/537/343
f 314/539/345 316/538/344 301/516/322 300/515/321
f 316/538/344 315/541/347 299/519/325 301/516/322
f 302/518/324 304/517/323 298/522/328 297/521/327
f 304/517/323 303/520/326 296/525/331 298/522/328
f 305/534/340 307/533/339 319/543/349 318/542/348
f 307/533/339 306/535/341 317/544/350 319/543/349
f 326/545/351 327/546/352 310/528/334 309/527/333
f 327/546/352 324/526/332 308/531/337 310/528/334
f 323/547/330 325/548/329 327/546/352 326/545/351
f 325/548/329 324/526/332 327/546/352
f 308/531/337 296/525/331 303/520/326 299/519/325 315/541/347 320/540/346 317/544/350 306/535/341 312/532/338
f 324/526/332 296/525/331 308/531/337
usemtl wood_6
f 9/1/1 21/2/1 13/3/1 1/4/1
s 0
f 26/43/35 28/44/35 32/45/35 30/46/35
f 30/47/1 32/48/1 31/49/1 29/50/1
f 25/51/36 26/52/36 30/53/36 29/54/36
f 28/55/37 27/56/37 31/57/37 32/58/37
f 27/59/38 25/60/38 29/61/38 31/62/38
f 34/63/39 36/64/39 40/65/39 38/66/39
f 38/67/1 40/68/1 39/69/1 37/70/1
f 33/71/36 34/72/36 38/73/36 37/74/36
f 36/75/37 35/76/37 39/77/37 40/78/37
f 35/79/40 33/80/40 37/81/40 39/82/40
f 42/83/35 44/84/35 48/85/35 46/86/35
f 46/87/1 48/88/1 47/89/1 45/90/1
f 41/91/41 42/92/41 46/93/41 45/94/41
f 44/95/42 43/96/42 47/97/42 48/98/42
f 43/99/38 41/100/38 45/101/38 47/102/38
f 50/103/39 52/104/39 56/105/39 54/106/39
f 54/107/1 56/108/1 55/109/1 53/110/1
f 49/111/41 50/112/41 54/113/41 53/114/41
f 52/115/42 51/116/42 55/117/42 56/118/42
f 51/119/40 49/120/40 53/121/40 55/122/40
s 1
f 78/139/1 63/140/1 58/141/52 82/142/52
