# Blender 5.0.1
# www.blender.org
mtllib bed_2_1.mtl
o bed_2_1
v 1.310000 0.000000 0.700000
v 1.310000 2.500000 0.700000
v 1.310000 0.000000 0.660000
v 1.310000 2.500000 0.660000
v 1.350000 0.000000 0.700000
v 1.350000 2.500000 0.700000
v 1.350000 0.000000 0.660000
v 1.350000 2.500000 0.660000
v 1.310000 2.565056 0.687059
v 1.310000 2.549749 0.650104
v 1.350000 2.565056 0.687059
v 1.350000 2.549749 0.650104
v 1.310000 2.620208 0.650208
v 1.310000 2.591924 0.621924
v 1.350000 2.620208 0.650208
v 1.350000 2.591924 0.621924
v 1.310000 2.657059 0.595056
v 1.310000 2.620104 0.579749
v 1.350000 2.657059 0.595056
v 1.350000 2.620104 0.579749
v 1.310000 2.670000 0.530000
v 1.310000 2.630000 0.530000
v 1.350000 2.670000 0.530000
v 1.350000 2.630000 0.530000
v 1.350001 0.000000 -0.700000
v 1.350001 2.500000 -0.700000
v 1.350001 0.000000 -0.660000
v 1.350001 2.500000 -0.660000
v 1.310001 0.000000 -0.700000
v 1.310001 2.500000 -0.700000
v 1.310001 0.000000 -0.660000
v 1.310001 2.500000 -0.660000
v 1.350001 2.565056 -0.687059
v 1.350001 2.549749 -0.650104
v 1.310001 2.565056 -0.687059
v 1.310001 2.549749 -0.650104
v 1.350001 2.620208 -0.650208
v 1.350001 2.591924 -0.621924
v 1.310001 2.620208 -0.650208
v 1.310001 2.591924 -0.621924
v 1.350001 2.657059 -0.595056
v 1.350001 2.620104 -0.579748
v 1.310001 2.657059 -0.595056
v 1.310001 2.620104 -0.579748
v 1.350001 2.670000 -0.530000
v 1.350001 2.630000 -0.530000
v 1.310001 2.670000 -0.530000
v 1.310001 2.630000 -0.530000
v 1.315001 0.590000 -0.660000
v 1.315001 0.590000 0.660000
v 1.315001 0.620000 -0.660000
v 1.315001 0.620000 0.660000
v 1.345001 0.590000 -0.660000
v 1.345001 0.590000 0.660000
v 1.345001 0.620000 -0.660000
v 1.345001 0.620000 0.660000
v 1.320000 0.620000 -0.490000
v 1.320000 1.235000 -0.490000
v 1.320000 0.620000 -0.510000
v 1.320000 1.235000 -0.510000
v 1.340000 0.620000 -0.490000
v 1.340000 1.235000 -0.490000
v 1.340000 0.620000 -0.510000
v 1.340000 1.235000 -0.510000
v 1.320000 0.620000 -0.290000
v 1.320000 1.235000 -0.290000
v 1.320000 0.620000 -0.310000
v 1.320000 1.235000 -0.310000
v 1.340000 0.620000 -0.290000
v 1.340000 1.235000 -0.290000
v 1.340000 0.620000 -0.310000
v 1.340000 1.235000 -0.310000
v 1.320000 0.620000 -0.090000
v 1.320000 1.235000 -0.090000
v 1.320000 0.620000 -0.110000
v 1.320000 1.235000 -0.110000
v 1.340000 0.620000 -0.090000
v 1.340000 1.235000 -0.090000
v 1.340000 0.620000 -0.110000
v 1.340000 1.235000 -0.110000
v 1.320000 0.620000 0.110000
v 1.320000 1.235000 0.110000
v 1.320000 0.620000 0.090000
v 1.320000 1.235000 0.090000
v 1.340000 0.620000 0.110000
v 1.340000 1.235000 0.110000
v 1.340000 0.620000 0.090000
v 1.340000 1.235000 0.090000
v 1.320000 0.620000 0.310000
v 1.320000 1.235000 0.310000
v 1.320000 0.620000 0.290000
v 1.320000 1.235000 0.290000
v 1.340000 0.620000 0.310000
v 1.340000 1.235000 0.310000
v 1.340000 0.620000 0.290000
v 1.340000 1.235000 0.290000
v 1.320000 0.620000 0.510000
v 1.320000 1.235000 0.510000
v 1.320000 0.620000 0.490000
v 1.320000 1.235000 0.490000
v 1.340000 0.620000 0.510000
v 1.340000 1.235000 0.510000
v 1.340000 0.620000 0.490000
v 1.340000 1.235000 0.490000
v -1.350001 0.000000 0.700000
v -1.350001 1.930000 0.700000
v -1.350001 0.000000 0.660000
v -1.350001 1.930000 0.660000
v -1.310001 0.000000 0.700000
v -1.310001 1.930000 0.700000
v -1.310001 0.000000 0.660000
v -1.310001 1.930000 0.660000
v -1.310000 0.000000 -0.700000
v -1.310000 1.930000 -0.700000
v -1.310000 0.000000 -0.660000
v -1.310000 1.930000 -0.660000
v -1.350000 0.000000 -0.700000
v -1.350000 1.930000 -0.700000
v -1.350000 0.000000 -0.660000
v -1.350000 1.930000 -0.660000
v -1.310000 0.485000 0.685000
v -1.310000 0.505000 0.685000
v -1.310000 0.485000 0.675000
v -1.310000 0.505000 0.675000
v -1.205001 0.590000 0.685000
v -1.225001 0.590000 0.685000
v -1.205001 0.590001 0.675000
v -1.225001 0.590001 0.675000
v -1.325000 0.485000 0.660001
v -1.325000 0.505000 0.660001
v -1.335000 0.485000 0.660001
v -1.335000 0.505000 0.660001
v -1.325000 0.590000 0.555001
v -1.325000 0.590000 0.575001
v -1.335000 0.590000 0.555001
v -1.335000 0.590000 0.575001
v -1.335000 0.485000 -0.660000
v -1.335000 0.505000 -0.660000
v -1.325000 0.485000 -0.660000
v -1.325000 0.505000 -0.660000
v -1.335000 0.590000 -0.555001
v -1.335000 0.590000 -0.575001
v -1.325000 0.590000 -0.555001
v -1.325000 0.590000 -0.575001
v -1.310001 0.485000 -0.675000
v -1.310001 0.505000 -0.675000
v -1.310001 0.485000 -0.685000
v -1.310001 0.505000 -0.685000
v -1.205001 0.590000 -0.675000
v -1.225001 0.590000 -0.675000
v -1.205001 0.590000 -0.685000
v -1.225001 0.590000 -0.685000
v 1.310000 0.485000 -0.685000
v 1.310000 0.505000 -0.685000
v 1.310000 0.485000 -0.675000
v 1.310000 0.505000 -0.675000
v 1.205001 0.590001 -0.685000
v 1.225001 0.590001 -0.685000
v 1.205001 0.590000 -0.675000
v 1.225001 0.590000 -0.675000
v 1.325000 0.485000 -0.660001
v 1.325000 0.505000 -0.660001
v 1.335000 0.485000 -0.660001
v 1.335000 0.505000 -0.660001
v 1.325000 0.590000 -0.555001
v 1.325000 0.590000 -0.575001
v 1.335000 0.590000 -0.555001
v 1.335000 0.590000 -0.575001
v 1.335000 0.485000 0.660001
v 1.335000 0.505000 0.660001
v 1.325000 0.485000 0.660001
v 1.325000 0.505000 0.660001
v 1.335000 0.590001 0.555001
v 1.335000 0.590001 0.575001
v 1.325000 0.590001 0.555001
v 1.325000 0.590001 0.575001
v 1.310001 0.485000 0.675000
v 1.310001 0.505000 0.675000
v 1.310001 0.485000 0.685000
v 1.310001 0.505000 0.685000
v 1.205001 0.590000 0.675000
v 1.225001 0.590000 0.675000
v 1.205001 0.590000 0.685000
v 1.225001 0.590000 0.685000
v 1.315001 1.890000 -0.660000
v 1.315001 1.890000 0.660000
v 1.315001 1.920000 -0.660000
v 1.315001 1.920000 0.660000
v 1.345001 1.890000 -0.660000
v 1.345001 1.890000 0.660000
v 1.345001 1.920000 -0.660000
v 1.345001 1.920000 0.660000
v 1.320000 1.920000 -0.490000
v 1.320000 1.920000 -0.510000
v 1.340000 1.920000 -0.490000
v 1.340000 1.920000 -0.510000
v 1.320000 1.920000 -0.290000
v 1.320000 1.920000 -0.310000
v 1.340000 1.920000 -0.290000
v 1.340000 1.920000 -0.310000
v 1.320000 1.920000 -0.090000
v 1.320000 1.920000 -0.110000
v 1.340000 1.920000 -0.090000
v 1.340000 1.920000 -0.110000
v 1.320000 1.920000 0.110000
v 1.320000 1.920000 0.090000
v 1.340000 1.920000 0.110000
v 1.340000 1.920000 0.090000
v 1.320000 1.920000 0.310000
v 1.320000 1.920000 0.290000
v 1.340000 1.920000 0.310000
v 1.340000 1.920000 0.290000
v 1.320000 1.920000 0.510000
v 1.320000 1.920000 0.490000
v 1.340000 1.920000 0.510000
v 1.340000 1.920000 0.490000
v -1.350001 1.930000 0.700000
v -1.350001 1.930000 0.660000
v -1.310001 1.930000 0.700000
v -1.310001 1.930000 0.660000
v -1.310000 1.930000 -0.700000
v -1.310000 1.930000 -0.660000
v -1.350000 1.930000 -0.700000
v -1.350000 1.930000 -0.660000
v -1.310000 1.785000 0.685000
v -1.310000 1.805000 0.685000
v -1.310000 1.785000 0.675000
v -1.310000 1.805000 0.675000
v -1.205001 1.890001 0.685000
v -1.225001 1.890001 0.685000
v -1.205001 1.890001 0.675000
v -1.225001 1.890001 0.675000
v -1.325000 1.785000 0.660001
v -1.325000 1.805000 0.660001
v -1.335000 1.785000 0.660001
v -1.335000 1.805000 0.660001
v -1.325000 1.890001 0.555001
v -1.325000 1.890001 0.575001
v -1.335000 1.890001 0.555001
v -1.335000 1.890001 0.575001
v -1.335000 1.785000 -0.660000
v -1.335000 1.805000 -0.660000
v -1.325000 1.785000 -0.660000
v -1.325000 1.805000 -0.660000
v -1.335000 1.890001 -0.555001
v -1.335000 1.890001 -0.575001
v -1.325000 1.890001 -0.555001
v -1.325000 1.890001 -0.575001
v -1.310001 1.785000 -0.675000
v -1.310001 1.805000 -0.675000
v -1.310001 1.785000 -0.685000
v -1.310001 1.805000 -0.685000
v -1.205001 1.890000 -0.675000
v -1.225001 1.890000 -0.675000
v -1.205001 1.890000 -0.685000
v -1.225001 1.890000 -0.685000
v 1.310000 1.785000 -0.685000
v 1.310000 1.805000 -0.685000
v 1.310000 1.785000 -0.675000
v 1.310000 1.805000 -0.675000
v 1.205001 1.890001 -0.685000
v 1.225001 1.890001 -0.685000
v 1.205001 1.890001 -0.675000
v 1.225001 1.890001 -0.675000
v 1.325000 1.785000 -0.660001
v 1.325000 1.805000 -0.660001
v 1.335000 1.785000 -0.660001
v 1.335000 1.805000 -0.660001
v 1.325000 1.890001 -0.555001
v 1.325000 1.890001 -0.575001
v 1.335000 1.890001 -0.555001
v 1.335000 1.890001 -0.575001
v 1.335000 1.785000 0.660001
v 1.335000 1.805000 0.660001
v 1.325000 1.785000 0.660001
v 1.325000 1.805000 0.660001
v 1.335000 1.890001 0.555001
v 1.335000 1.890001 0.575001
v 1.325000 1.890001 0.555001
v 1.325000 1.890001 0.575001
v 1.310001 1.785000 0.675000
v 1.310001 1.805000 0.675000
v 1.310001 1.785000 0.685000
v 1.310001 1.805000 0.685000
v 1.205001 1.890001 0.675000
v 1.225001 1.890001 0.675000
v 1.205001 1.890001 0.685000
v 1.225001 1.890001 0.685000
v 1.315001 1.235000 -0.660000
v 1.315001 1.235000 0.660000
v 1.315001 1.265000 -0.660000
v 1.315001 1.265000 0.660000
v 1.345001 1.235000 -0.660000
v 1.345001 1.235000 0.660000
v 1.345001 1.265000 -0.660000
v 1.345001 1.265000 0.660000
v 1.320000 1.920000 -0.490000
v 1.320000 2.630000 -0.490000
v 1.320000 1.920000 -0.510000
v 1.320000 2.630000 -0.510000
v 1.340000 1.920000 -0.490000
v 1.340000 2.630000 -0.490000
v 1.340000 1.920000 -0.510000
v 1.340000 2.630000 -0.510000
v 1.320000 1.920000 -0.290000
v 1.320000 2.630000 -0.290000
v 1.320000 1.920000 -0.310000
v 1.320000 2.630000 -0.310000
v 1.340000 1.920000 -0.290000
v 1.340000 2.630000 -0.290000
v 1.340000 1.920000 -0.310000
v 1.340000 2.630000 -0.310000
v 1.320000 1.920000 -0.090000
v 1.320000 2.630000 -0.090000
v 1.320000 1.920000 -0.110000
v 1.320000 2.630000 -0.110000
v 1.340000 1.920000 -0.090000
v 1.340000 2.630000 -0.090000
v 1.340000 1.920000 -0.110000
v 1.340000 2.630000 -0.110000
v 1.320000 1.920000 0.110000
v 1.320000 2.630000 0.110000
v 1.320000 1.920000 0.090000
v 1.320000 2.630000 0.090000
v 1.340000 1.920000 0.110000
v 1.340000 2.630000 0.110000
v 1.340000 1.920000 0.090000
v 1.340000 2.630000 0.090000
v 1.320000 1.920000 0.310000
v 1.320000 2.630000 0.310000
v 1.320000 1.920000 0.290000
v 1.320000 2.630000 0.290000
v 1.340000 1.920000 0.310000
v 1.340000 2.630000 0.310000
v 1.340000 1.920000 0.290000
v 1.340000 2.630000 0.290000
v 1.320000 1.920000 0.510000
v 1.320000 2.630000 0.510000
v 1.320000 1.920000 0.490000
v 1.320000 2.630000 0.490000
v 1.340000 1.920000 0.510000
v 1.340000 2.630000 0.510000
v 1.340000 1.920000 0.490000
v 1.340000 2.630000 0.490000
v -1.310000 0.590000 0.685000
v -1.310000 0.620000 0.685000
v -1.310000 0.590000 0.675000
v -1.310000 0.620000 0.675000
v 1.310000 0.590000 0.685000
v 1.310000 0.620000 0.685000
v 1.310000 0.590000 0.675000
v 1.310000 0.620000 0.675000
v -1.335000 0.590000 -0.660000
v -1.335000 0.590000 0.660000
v -1.335000 0.620000 -0.660000
v -1.335000 0.620000 0.660000
v -1.325000 0.590000 -0.660000
v -1.325000 0.590000 0.660000
v -1.325000 0.620000 -0.660000
v -1.325000 0.620000 0.660000
v -1.310000 0.590000 -0.675000
v -1.310000 0.620000 -0.675000
v -1.310000 0.590000 -0.685000
v -1.310000 0.620000 -0.685000
v 1.310000 0.590000 -0.675000
v 1.310000 0.620000 -0.675000
v 1.310000 0.590000 -0.685000
v 1.310000 0.620000 -0.685000
v -1.235000 0.610000 0.675000
v -1.265000 0.610000 0.675000
v -1.235000 0.610000 -0.675000
v -1.265000 0.610000 -0.675000
v -1.235000 0.600000 0.675000
v -1.265000 0.600000 0.675000
v -1.235000 0.600000 -0.675000
v -1.265000 0.600000 -0.675000
v -0.915000 0.600000 -0.675000
v -0.885000 0.600000 -0.675000
v -0.915000 0.600000 0.675000
v -0.885000 0.600000 0.675000
v -0.915000 0.610000 -0.675000
v -0.885000 0.610000 -0.675000
v -0.915000 0.610000 0.675000
v -0.885000 0.610000 0.675000
v -1.085000 0.610000 0.675000
v -1.115000 0.610000 0.675000
v -1.085000 0.610000 -0.675000
v -1.115000 0.610000 -0.675000
v -1.085000 0.600000 0.675000
v -1.115000 0.600000 0.675000
v -1.085000 0.600000 -0.675000
v -1.115000 0.600000 -0.675000
v -0.515000 0.600000 -0.675000
v -0.485000 0.600000 -0.675000
v -0.515000 0.600000 0.675000
v -0.485000 0.600000 0.675000
v -0.515000 0.610000 -0.675000
v -0.485000 0.610000 -0.675000
v -0.515000 0.610000 0.675000
v -0.485000 0.610000 0.675000
v -0.685000 0.610000 0.675000
v -0.715000 0.610000 0.675000
v -0.685000 0.610000 -0.675000
v -0.715000 0.610000 -0.675000
v -0.685000 0.600000 0.675000
v -0.715000 0.600000 0.675000
v -0.685000 0.600000 -0.675000
v -0.715000 0.600000 -0.675000
v -0.115000 0.600000 -0.675000
v -0.085000 0.600000 -0.675000
v -0.115000 0.600000 0.675000
v -0.085000 0.600000 0.675000
v -0.115000 0.610000 -0.675000
v -0.085000 0.610000 -0.675000
v -0.115000 0.610000 0.675000
v -0.085000 0.610000 0.675000
v -0.285000 0.610000 0.675000
v -0.315000 0.610000 0.675000
v -0.285000 0.610000 -0.675000
v -0.315000 0.610000 -0.675000
v -0.285000 0.600000 0.675000
v -0.315000 0.600000 0.675000
v -0.285000 0.600000 -0.675000
v -0.315000 0.600000 -0.675000
v 0.285000 0.600000 -0.675000
v 0.315000 0.600000 -0.675000
v 0.285000 0.600000 0.675000
v 0.315000 0.600000 0.675000
v 0.285000 0.610000 -0.675000
v 0.315000 0.610000 -0.675000
v 0.285000 0.610000 0.675000
v 0.315000 0.610000 0.675000
v 0.115000 0.610000 0.675000
v 0.085000 0.610000 0.675000
v 0.115000 0.610000 -0.675000
v 0.085000 0.610000 -0.675000
v 0.115000 0.600000 0.675000
v 0.085000 0.600000 0.675000
v 0.115000 0.600000 -0.675000
v 0.085000 0.600000 -0.675000
v 0.685000 0.600000 -0.675000
v 0.715000 0.600000 -0.675000
v 0.685000 0.600000 0.675000
v 0.715000 0.600000 0.675000
v 0.685000 0.610000 -0.675000
v 0.715000 0.610000 -0.675000
v 0.685000 0.610000 0.675000
v 0.715000 0.610000 0.675000
v 0.515000 0.610000 0.675000
v 0.485000 0.610000 0.675000
v 0.515000 0.610000 -0.675000
v 0.485000 0.610000 -0.675000
v 0.515000 0.600000 0.675000
v 0.485000 0.600000 0.675000
v 0.515000 0.600000 -0.675000
v 0.485000 0.600000 -0.675000
v 1.085000 0.600000 -0.675000
v 1.115000 0.600000 -0.675000
v 1.085000 0.600000 0.675000
v 1.115000 0.600000 0.675000
v 1.085000 0.610000 -0.675000
v 1.115000 0.610000 -0.675000
v 1.085000 0.610000 0.675000
v 1.115000 0.610000 0.675000
v 0.915000 0.610000 0.675000
v 0.885000 0.610000 0.675000
v 0.915000 0.610000 -0.675000
v 0.885000 0.610000 -0.675000
v 0.915000 0.600000 0.675000
v 0.885000 0.600000 0.675000
v 0.915000 0.600000 -0.675000
v 0.885000 0.600000 -0.675000
v 1.235000 0.600000 -0.675000
v 1.265000 0.600000 -0.675000
v 1.235000 0.600000 0.675000
v 1.265000 0.600000 0.675000
v 1.235000 0.610000 -0.675000
v 1.265000 0.610000 -0.675000
v 1.235000 0.610000 0.675000
v 1.265000 0.610000 0.675000
v -1.310000 1.890000 0.685000
v -1.310000 1.920000 0.685000
v -1.310000 1.890000 0.675000
v -1.310000 1.920000 0.675000
v 1.310000 1.890000 0.685000
v 1.310000 1.920000 0.685000
v 1.310000 1.890000 0.675000
v 1.310000 1.920000 0.675000
v -1.335000 1.890000 -0.660000
v -1.335000 1.890000 0.660000
v -1.335000 1.920000 -0.660000
v -1.335000 1.920000 0.660000
v -1.325000 1.890000 -0.660000
v -1.325000 1.890000 0.660000
v -1.325000 1.920000 -0.660000
v -1.325000 1.920000 0.660000
v -1.310000 1.890000 -0.675000
v -1.310000 1.920000 -0.675000
v -1.310000 1.890000 -0.685000
v -1.310000 1.920000 -0.685000
v 1.310000 1.890000 -0.675000
v 1.310000 1.920000 -0.675000
v 1.310000 1.890000 -0.685000
v 1.310000 1.920000 -0.685000
v -1.235000 1.910000 0.675000
v -1.265000 1.910000 0.675000
v -1.235000 1.910000 -0.675000
v -1.265000 1.910000 -0.675000
v -1.235000 1.900000 0.675000
v -1.265000 1.900000 0.675000
v -1.235000 1.900000 -0.675000
v -1.265000 1.900000 -0.675000
v -0.915000 1.900000 -0.675000
v -0.885000 1.900000 -0.675000
v -0.915000 1.900000 0.675000
v -0.885000 1.900000 0.675000
v -0.915000 1.910000 -0.675000
v -0.885000 1.910000 -0.675000
v -0.915000 1.910000 0.675000
v -0.885000 1.910000 0.675000
v -1.085000 1.910000 0.675000
v -1.115000 1.910000 0.675000
v -1.085000 1.910000 -0.675000
v -1.115000 1.910000 -0.675000
v -1.085000 1.900000 0.675000
v -1.115000 1.900000 0.675000
v -1.085000 1.900000 -0.675000
v -1.115000 1.900000 -0.675000
v -0.515000 1.900000 -0.675000
v -0.485000 1.900000 -0.675000
v -0.515000 1.900000 0.675000
v -0.485000 1.900000 0.675000
v -0.515000 1.910000 -0.675000
v -0.485000 1.910000 -0.675000
v -0.515000 1.910000 0.675000
v -0.485000 1.910000 0.675000
v -0.685000 1.910000 0.675000
v -0.715000 1.910000 0.675000
v -0.685000 1.910000 -0.675000
v -0.715000 1.910000 -0.675000
v -0.685000 1.900000 0.675000
v -0.715000 1.900000 0.675000
v -0.685000 1.900000 -0.675000
v -0.715000 1.900000 -0.675000
v -0.115000 1.900000 -0.675000
v -0.085000 1.900000 -0.675000
v -0.115000 1.900000 0.675000
v -0.085000 1.900000 0.675000
v -0.115000 1.910000 -0.675000
v -0.085000 1.910000 -0.675000
v -0.115000 1.910000 0.675000
v -0.085000 1.910000 0.675000
v -0.285000 1.910000 0.675000
v -0.315000 1.910000 0.675000
v -0.285000 1.910000 -0.675000
v -0.315000 1.910000 -0.675000
v -0.285000 1.900000 0.675000
v -0.315000 1.900000 0.675000
v -0.285000 1.900000 -0.675000
v -0.315000 1.900000 -0.675000
v 0.285000 1.900000 -0.675000
v 0.315000 1.900000 -0.675000
v 0.285000 1.900000 0.675000
v 0.315000 1.900000 0.675000
v 0.285000 1.910000 -0.675000
v 0.315000 1.910000 -0.675000
v 0.285000 1.910000 0.675000
v 0.315000 1.910000 0.675000
v 0.115000 1.910000 0.675000
v 0.085000 1.910000 0.675000
v 0.115000 1.910000 -0.675000
v 0.085000 1.910000 -0.675000
v 0.115000 1.900000 0.675000
v 0.085000 1.900000 0.675000
v 0.115000 1.900000 -0.675000
v 0.085000 1.900000 -0.675000
v 0.685000 1.900000 -0.675000
v 0.715000 1.900000 -0.675000
v 0.685000 1.900000 0.675000
v 0.715000 1.900000 0.675000
v 0.685000 1.910000 -0.675000
v 0.715000 1.910000 -0.675000
v 0.685000 1.910000 0.675000
v 0.715000 1.910000 0.675000
v 0.515000 1.910000 0.675000
v 0.485000 1.910000 0.675000
v 0.515000 1.910000 -0.675000
v 0.485000 1.910000 -0.675000
v 0.515000 1.900000 0.675000
v 0.485000 1.900000 0.675000
v 0.515000 1.900000 -0.675000
v 0.485000 1.900000 -0.675000
v 1.085000 1.900000 -0.675000
v 1.115000 1.900000 -0.675000
v 1.085000 1.900000 0.675000
v 1.115000 1.900000 0.675000
v 1.085000 1.910000 -0.675000
v 1.115000 1.910000 -0.675000
v 1.085000 1.910000 0.675000
v 1.115000 1.910000 0.675000
v 0.915000 1.910000 0.675000
v 0.885000 1.910000 0.675000
v 0.915000 1.910000 -0.675000
v 0.885000 1.910000 -0.675000
v 0.915000 1.900000 0.675000
v 0.885000 1.900000 0.675000
v 0.915000 1.900000 -0.675000
v 0.885000 1.900000 -0.675000
v 1.235000 1.900000 -0.675000
v 1.265000 1.900000 -0.675000
v 1.235000 1.900000 0.675000
v 1.265000 1.900000 0.675000
v 1.235000 1.910000 -0.675000
v 1.265000 1.910000 -0.675000
v 1.235000 1.910000 0.675000
v 1.265000 1.910000 0.675000
v -0.670000 0.590000 0.685000
v -0.670000 0.590000 0.715000
v -0.680000 0.590000 0.685000
v -0.680000 0.590000 0.715000
v -0.670000 1.930000 0.685000
v -0.670000 1.930000 0.715000
v -0.680000 1.930000 0.685000
v -0.680000 1.930000 0.715000
v -1.130000 0.590000 0.685000
v -1.130000 0.590000 0.715000
v -1.140000 0.590000 0.685000
v -1.140000 0.590000 0.715000
v -1.130000 1.930000 0.685000
v -1.130000 1.930000 0.715000
v -1.140000 1.930000 0.685000
v -1.140000 1.930000 0.715000
v -1.130000 1.085000 0.695000
v -1.130000 1.115000 0.695000
v -0.680000 1.085000 0.695000
v -0.680000 1.115000 0.695000
v -1.130000 1.085000 0.705000
v -1.130000 1.115000 0.705000
v -0.680000 1.085000 0.705000
v -0.680000 1.115000 0.705000
v -1.130000 1.385000 0.695000
v -1.130000 1.415000 0.695000
v -0.680000 1.385000 0.695000
v -0.680000 1.415000 0.695000
v -1.130000 1.385000 0.705000
v -1.130000 1.415000 0.705000
v -0.680000 1.385000 0.705000
v -0.680000 1.415000 0.705000
v -1.130000 1.685000 0.695000
v -1.130000 1.715000 0.695000
v -0.680000 1.685000 0.695000
v -0.680000 1.715000 0.695000
v -1.130000 1.685000 0.705000
v -1.130000 1.715000 0.705000
v -0.680000 1.685000 0.705000
v -0.680000 1.715000 0.705000
v -0.680000 0.815000 0.705000
v -0.680000 0.785000 0.705000
v -1.130000 0.815000 0.705000
v -1.130000 0.785000 0.705000
v -0.680000 0.815000 0.695000
v -0.680000 0.785000 0.695000
v -1.130000 0.815000 0.695000
v -1.130000 0.785000 0.695000
v -1.200000 0.609998 0.650000
v -1.300000 0.609998 0.550000
v -1.250000 0.609998 0.636603
v -1.286603 0.609998 0.600000
v -1.300000 0.809998 0.550001
v -1.200000 0.809998 0.650001
v -1.286603 0.809998 0.600001
v -1.250000 0.809998 0.636603
v -1.300000 0.610002 -0.550000
v -1.200000 0.610002 -0.650000
v -1.286603 0.610002 -0.600000
v -1.250000 0.610002 -0.636603
v -1.200000 0.810002 -0.649999
v -1.300000 0.810002 -0.549999
v -1.250000 0.810002 -0.636602
v -1.286603 0.810002 -0.599999
v 1.300000 0.609998 0.540000
v 1.200000 0.609998 0.640000
v 1.286602 0.609998 0.590000
v 1.250000 0.609998 0.626603
v 1.200000 0.809998 0.640001
v 1.300000 0.809998 0.540001
v 1.250000 0.809998 0.626603
v 1.286602 0.809998 0.590001
v 1.200000 0.610002 -0.660000
v 1.300000 0.610002 -0.560000
v 1.250000 0.610002 -0.646603
v 1.286602 0.610002 -0.610000
v 1.300000 0.810002 -0.559999
v 1.200000 0.810002 -0.659999
v 1.286602 0.810002 -0.609999
v 1.250000 0.810002 -0.646602
v -1.210000 0.638569 0.660000
v -1.260000 0.781426 0.646603
v -1.260000 0.638569 0.646603
v -1.296603 0.638569 0.610000
v -1.310000 0.781427 0.560001
v -1.310000 0.638569 0.560000
v -1.210000 0.638574 -0.660000
v -1.260000 0.638574 -0.646602
v -1.296603 0.638574 -0.610000
v -1.310000 0.638573 -0.560000
v 1.296602 0.638574 -0.620000
v 1.260000 0.638574 -0.656602
v 1.210000 0.638574 -0.670000
v 1.210000 0.638569 0.650000
v 1.260000 0.781426 0.636603
v 1.296602 0.638569 0.600000
v 1.310000 0.638570 0.550000
v 1.310000 0.781427 0.550001
v 1.301511 0.709998 0.541512
v 1.296240 0.780134 0.599639
v 1.288106 0.709998 0.591504
v 1.259638 0.639862 0.636241
v 1.251503 0.709998 0.628107
v 1.209651 0.780186 -0.669651
v 1.201511 0.710002 -0.661511
v 1.259638 0.780138 -0.656240
v 1.251503 0.710002 -0.648106
v 1.296240 0.780138 -0.619637
v 1.288106 0.710002 -0.611503
v -1.309651 0.780185 -0.559651
v -1.301512 0.710002 -0.551511
v -1.296241 0.780138 -0.609637
v -1.288106 0.710002 -0.601503
v -1.259638 0.780138 -0.646240
v -1.251504 0.710002 -0.638106
v -1.209651 0.780181 0.659652
v -1.201512 0.709998 0.651512
v 1.209651 0.780181 0.649652
v 1.201511 0.709998 0.641512
v 1.309651 0.639819 -0.569651
v 1.309651 0.780185 -0.569651
v 1.301511 0.710002 -0.561511
v -1.209651 0.780186 -0.659651
v -1.201512 0.710002 -0.651511
v -1.301512 0.709998 0.551512
v -1.296241 0.780134 0.609639
v -1.288106 0.709998 0.601504
v -1.251504 0.709998 0.638107
v 0.722540 0.609998 0.650000
v 0.240848 0.609998 0.660000
v -0.240847 0.609998 0.670000
v -0.722539 0.609998 0.660000
v 0.722540 0.789998 0.650001
v 0.240848 0.789998 0.660001
v -0.240847 0.779998 0.670001
v -0.722539 0.789998 0.660001
v 0.722540 0.638569 0.660000
v 0.240848 0.638569 0.670000
v -0.240847 0.638569 0.680000
v -0.722539 0.638569 0.670000
v 0.722540 0.760181 0.659652
v 0.240848 0.760181 0.669652
v -0.240847 0.750181 0.679652
v -0.722539 0.760181 0.669652
v -0.722539 0.709998 0.661512
v -0.240847 0.689998 0.671512
v 0.240848 0.709998 0.661512
v 0.722540 0.699998 0.651512
v -0.722539 0.610002 -0.640000
v -0.240847 0.610002 -0.630000
v 0.240848 0.610002 -0.640000
v 0.722540 0.610002 -0.650000
v 0.722540 0.790002 -0.649999
v 0.240848 0.790002 -0.639999
v -0.240847 0.780002 -0.629999
v -0.722539 0.790002 -0.639999
v -0.722539 0.638574 -0.650000
v -0.240847 0.638574 -0.640000
v 0.240848 0.638574 -0.650000
v 0.722540 0.638574 -0.660000
v -0.722539 0.760186 -0.649651
v -0.240847 0.750186 -0.639651
v 0.240848 0.760186 -0.649651
v 0.722540 0.760186 -0.659651
v 0.722540 0.700002 -0.651511
v 0.240848 0.710002 -0.641511
v -0.240847 0.690002 -0.631511
v -0.722539 0.710002 -0.641511
v 1.200000 0.809998 0.540385
v 0.722540 0.789998 0.541389
v 0.240848 0.789998 0.542409
v -0.240847 0.779998 0.545094
v -0.722539 0.789998 0.546114
v -1.200000 0.809998 0.549616
v 1.200000 0.810002 -0.559615
v 0.722540 0.790002 -0.556952
v 0.240848 0.790002 -0.554273
v -0.240847 0.780002 -0.553247
v -0.722539 0.790002 -0.550568
v -1.200000 0.810002 -0.550384
v 1.200000 0.610002 -0.559615
v 0.722540 0.610002 -0.557779
v 0.240848 0.610002 -0.555926
v -0.240847 0.610002 -0.554074
v -0.722539 0.610002 -0.552221
v -1.200000 0.610002 -0.550385
v 1.200000 0.609998 0.540385
v 0.722540 0.609998 0.542221
v 0.240848 0.609998 0.544074
v -0.240847 0.609998 0.545926
v -0.722539 0.609998 0.547779
v -1.200000 0.609998 0.549616
v -1.290000 0.610000 0.000000
v 1.290000 0.610000 -0.010000
v -1.290000 0.780000 0.000001
v 1.290000 0.780000 -0.009999
v -1.300000 0.638571 0.000000
v 1.291511 0.690000 -0.010000
v -1.291512 0.690000 0.000000
v -1.299826 0.750806 0.000175
v 1.299825 0.639194 -0.009826
v 1.299825 0.750806 -0.009825
v 1.190000 0.780000 -0.009615
v 0.722540 0.760000 -0.007782
v 0.240848 0.760000 -0.005932
v -0.240847 0.750000 -0.004076
v -0.722539 0.760000 -0.002227
v -1.190000 0.780000 -0.000384
v 1.190000 0.610000 -0.009615
v 0.722540 0.610000 -0.007779
v 0.240848 0.610000 -0.005926
v -0.240847 0.610000 -0.004074
v -0.722539 0.610000 -0.002221
v -1.190000 0.610000 -0.000384
v -1.200000 1.909998 0.650000
v -1.300000 1.909998 0.550000
v -1.250000 1.909998 0.636603
v -1.286603 1.909998 0.600000
v -1.300000 2.109998 0.550001
v -1.200000 2.109998 0.650001
v -1.286603 2.109998 0.600001
v -1.250000 2.109998 0.636603
v -1.300000 1.910002 -0.550000
v -1.200000 1.910002 -0.650000
v -1.286603 1.910002 -0.600000
v -1.250000 1.910002 -0.636603
v -1.200000 2.110003 -0.649999
v -1.300000 2.110002 -0.549999
v -1.250000 2.110002 -0.636602
v -1.286603 2.110002 -0.599999
v 1.300000 1.909998 0.540000
v 1.200000 1.909998 0.640000
v 1.286602 1.909998 0.590000
v 1.250000 1.909998 0.626603
v 1.200000 2.109998 0.640001
v 1.300000 2.109998 0.540001
v 1.250000 2.109998 0.626603
v 1.286602 2.109998 0.590001
v 1.200000 1.910002 -0.660000
v 1.300000 1.910002 -0.560000
v 1.250000 1.910002 -0.646603
v 1.286602 1.910002 -0.610000
v 1.300000 2.110002 -0.559999
v 1.200000 2.110003 -0.659999
v 1.286602 2.110002 -0.609999
v 1.250000 2.110003 -0.646602
v -1.210000 1.938569 0.660000
v -1.260000 2.081426 0.646603
v -1.260000 1.938569 0.646603
v -1.296603 1.938569 0.610000
v -1.310000 2.081427 0.560001
v -1.310000 1.938570 0.560000
v -1.210000 1.938574 -0.660000
v -1.260000 1.938574 -0.646602
v -1.296603 1.938574 -0.610000
v -1.310000 1.938573 -0.560000
v 1.296602 1.938574 -0.620000
v 1.260000 1.938574 -0.656602
v 1.210000 1.938574 -0.670000
v 1.210000 1.938569 0.650000
v 1.260000 2.081426 0.636603
v 1.296602 1.938569 0.600000
v 1.310000 1.938570 0.550000
v 1.310000 2.081427 0.550001
v 1.301511 2.009998 0.541512
v 1.296240 2.080134 0.599639
v 1.288106 2.009998 0.591504
v 1.259638 1.939862 0.636241
v 1.251503 2.009998 0.628107
v 1.209651 2.080186 -0.669651
v 1.201511 2.010002 -0.661511
v 1.259638 2.080138 -0.656240
v 1.251503 2.010002 -0.648106
v 1.296240 2.080138 -0.619637
v 1.288106 2.010002 -0.611503
v -1.309651 2.080185 -0.559651
v -1.301512 2.010002 -0.551511
v -1.296241 2.080138 -0.609637
v -1.288106 2.010002 -0.601503
v -1.259638 2.080138 -0.646240
v -1.251504 2.010002 -0.638106
v -1.209651 2.080181 0.659652
v -1.201512 2.009998 0.651512
v 1.209651 2.080181 0.649652
v 1.201511 2.009998 0.641512
v 1.309651 1.939819 -0.569651
v 1.309651 2.080185 -0.569651
v 1.301511 2.010002 -0.561511
v -1.209651 2.080186 -0.659651
v -1.201512 2.010002 -0.651511
v -1.301512 2.009998 0.551512
v -1.296241 2.080134 0.609639
v -1.288106 2.009998 0.601504
v -1.251504 2.009998 0.638107
v 0.722540 1.909998 0.650000
v 0.240848 1.909998 0.660000
v -0.240847 1.909998 0.670000
v -0.722539 1.909998 0.660000
v 0.722540 2.089998 0.650001
v 0.240848 2.089998 0.660001
v -0.240847 2.079998 0.670001
v -0.722539 2.089998 0.660001
v 0.722540 1.938569 0.660000
v 0.240848 1.938569 0.670000
v -0.240847 1.938569 0.680000
v -0.722539 1.938569 0.670000
v 0.722540 2.060181 0.659652
v 0.240848 2.060181 0.669652
v -0.240847 2.050181 0.679652
v -0.722539 2.060181 0.669652
v -0.722539 2.009998 0.661512
v -0.240847 1.989998 0.671512
v 0.240848 2.009998 0.661512
v 0.722540 1.999998 0.651512
v -0.722539 1.910002 -0.640000
v -0.240847 1.910002 -0.630000
v 0.240848 1.910002 -0.640000
v 0.722540 1.910002 -0.650000
v 0.722540 2.090002 -0.649999
v 0.240848 2.090002 -0.639999
v -0.240847 2.080002 -0.629999
v -0.722539 2.090002 -0.639999
v -0.722539 1.938574 -0.650000
v -0.240847 1.938574 -0.640000
v 0.240848 1.938574 -0.650000
v 0.722540 1.938574 -0.660000
v -0.722539 2.060186 -0.649651
v -0.240847 2.050186 -0.639651
v 0.240848 2.060186 -0.649651
v 0.722540 2.060186 -0.659651
v 0.722540 2.000002 -0.651511
v 0.240848 2.010002 -0.641511
v -0.240847 1.990002 -0.631511
v -0.722539 2.010002 -0.641511
v 1.200000 2.109998 0.540385
v 0.722540 2.089998 0.541389
v 0.240848 2.089998 0.542409
v -0.240847 2.079998 0.545094
v -0.722539 2.089998 0.546114
v -1.200000 2.109998 0.549616
v 1.200000 2.110002 -0.559615
v 0.722540 2.090002 -0.556952
v 0.240848 2.090002 -0.554273
v -0.240847 2.080002 -0.553247
v -0.722539 2.090002 -0.550568
v -1.200000 2.110002 -0.550384
v 1.200000 1.910002 -0.559615
v 0.722540 1.910002 -0.557779
v 0.240848 1.910002 -0.555926
v -0.240847 1.910002 -0.554074
v -0.722539 1.910002 -0.552221
v -1.200000 1.910002 -0.550385
v 1.200000 1.909998 0.540385
v 0.722540 1.909998 0.542221
v 0.240848 1.909998 0.544074
v -0.240847 1.909998 0.545926
v -0.722539 1.909998 0.547779
v -1.200000 1.909998 0.549616
v -1.290000 1.910000 0.000000
v 1.290000 1.910000 -0.010000
v -1.290000 2.080000 0.000001
v 1.290000 2.080000 -0.009999
v -1.300000 1.938571 0.000000
v 1.291511 1.990000 -0.010000
v -1.291512 1.990000 0.000000
v -1.299826 2.050806 0.000175
v 1.299825 1.939194 -0.009826
v 1.299825 2.050806 -0.009825
v 1.190000 2.080000 -0.009615
v 0.722540 2.060000 -0.007782
v 0.240848 2.060000 -0.005932
v -0.240847 2.050000 -0.004076
v -0.722539 2.060000 -0.002227
v -1.190000 2.080000 -0.000384
v 1.190000 1.910000 -0.009615
v 0.722540 1.910000 -0.007779
v 0.240848 1.910000 -0.005926
v -0.240847 1.910000 -0.004074
v -0.722539 1.910000 -0.002221
v -1.190000 1.910000 -0.000384
vn -1.0000 -0.0000 -0.0000
vn -0.0000 -0.0000 -1.0000
vn -0.0000 -0.0980 -0.9952
vn 1.0000 -0.0000 -0.0000
vn -0.0000 -0.0000 1.0000
vn -0.0000 0.0980 0.9952
vn -0.0000 -1.0000 -0.0000
vn -0.0000 0.3827 0.9239
vn -0.0000 -0.3827 -0.9239
vn -0.0000 0.7071 0.7071
vn -0.0000 -0.7071 -0.7071
vn -0.0000 0.9239 0.3827
vn -0.0000 -0.9239 -0.3827
vn -0.0000 0.9952 0.0980
vn -0.0000 -0.9952 -0.0980
vn -0.0000 -0.9952 0.0980
vn -0.0000 -0.0980 0.9952
vn -0.0000 0.0980 -0.9952
vn -0.0000 0.3827 -0.9239
vn -0.0000 -0.3827 0.9239
vn -0.0000 0.7071 -0.7071
vn -0.0000 -0.7071 0.7071
vn -0.0000 0.9239 -0.3827
vn -0.0000 -0.9239 0.3827
vn -0.0000 0.9952 -0.0980
vn -0.0000 1.0000 -0.0000
vn -0.7071 0.7071 -0.0000
vn 0.7071 -0.7071 -0.0000
vn 0.7071 0.7071 -0.0000
vn -0.7071 -0.7071 -0.0000
vn -0.0177 0.0847 0.9963
vn -0.0101 0.3085 0.9512
vn -0.1036 0.3415 0.9342
vn -0.1474 0.1085 0.9831
vn 0.9960 0.0898 -0.0004
vn 0.9495 0.3139 -0.0005
vn 0.9331 0.3495 0.0854
vn 0.9833 0.1191 0.1374
vn 0.0210 0.9994 0.0271
vn 0.0227 0.9997 -0.0000
vn 0.0001 0.9996 0.0296
vn -0.9960 0.0898 -0.0004
vn -0.9495 0.3139 -0.0005
vn -0.9376 0.3373 -0.0847
vn -0.9848 0.1110 -0.1339
vn -0.4382 0.4155 0.7971
vn -0.5063 0.1339 0.8519
vn -0.8540 0.1258 0.5049
vn -0.7966 0.4153 0.4393
vn -0.9331 0.3495 0.0854
vn -0.9833 0.1191 0.1374
vn -0.1353 -0.1200 -0.9835
vn -0.0881 -0.3582 -0.9295
vn -0.4349 -0.4293 -0.7916
vn -0.5053 -0.1362 -0.8521
vn -0.7916 -0.4293 -0.4349
vn -0.8521 -0.1362 -0.5053
vn -0.9293 -0.3584 -0.0897
vn -0.9839 -0.1156 -0.1360
vn 0.9855 -0.1064 -0.1324
vn 0.9353 -0.3426 -0.0883
vn 0.7971 -0.4219 -0.4320
vn 0.8536 -0.1351 -0.5031
vn 0.4349 -0.4293 -0.7916
vn 0.5053 -0.1362 -0.8521
vn 0.0881 -0.3582 -0.9295
vn 0.1350 -0.1180 -0.9838
vn 0.1560 -0.1175 0.9807
vn 0.1155 -0.3563 0.9272
vn 0.4393 -0.4153 0.7966
vn 0.5049 -0.1258 0.8540
vn 0.7915 -0.4229 0.4412
vn 0.8504 -0.1350 0.5085
vn 0.9306 -0.3550 0.0895
vn 0.9841 -0.1146 0.1359
vn -0.4349 -0.4293 0.7916
vn -0.5053 -0.1362 0.8521
vn -0.8521 -0.1362 0.5053
vn -0.7916 -0.4293 0.4349
vn 0.7966 0.4153 0.4393
vn 0.8540 0.1258 0.5049
vn 0.4382 0.4155 0.7971
vn 0.5063 0.1339 0.8519
vn 0.1036 0.3415 0.9342
vn 0.1476 0.1109 0.9828
vn 0.4424 0.4018 -0.8018
vn 0.5058 0.1238 -0.8537
vn 0.1331 0.1092 -0.9851
vn 0.0849 0.3341 -0.9387
vn 0.8018 0.4018 -0.4423
vn 0.8537 0.1238 -0.5058
vn 0.9376 0.3373 -0.0847
vn 0.9848 0.1110 -0.1339
vn -0.8018 0.4018 -0.4423
vn -0.8537 0.1238 -0.5058
vn -0.4424 0.4018 -0.8018
vn -0.5058 0.1238 -0.8537
vn -0.0849 0.3341 -0.9387
vn -0.1329 0.1069 -0.9854
vn -0.9839 -0.1156 0.1360
vn -0.9293 -0.3584 0.0897
vn -0.1113 -0.3610 0.9259
vn -0.1529 -0.1208 0.9808
vn -0.9448 -0.3277 -0.0000
vn -0.9951 -0.0990 -0.0000
vn 0.9486 -0.3164 -0.0002
vn 0.9956 -0.0938 -0.0003
vn -0.0196 -0.3318 0.9431
vn -0.0199 -0.1047 0.9943
vn -0.1335 -0.0040 0.9910
vn -0.0219 -0.0083 0.9997
vn 0.9935 0.0014 0.1140
vn 1.0000 0.0078 -0.0000
vn -0.9935 0.0025 -0.1136
vn -1.0000 0.0085 -0.0000
vn -0.4937 0.0010 0.8696
vn -0.9935 0.0016 0.1141
vn -0.8696 0.0010 0.4937
vn -0.4938 0.0020 -0.8696
vn -0.1120 -0.0035 -0.9937
vn -0.8696 0.0020 -0.4938
vn 0.8699 0.0015 -0.4932
vn 0.9936 0.0015 -0.1132
vn 0.4938 0.0020 -0.8696
vn 0.1119 0.0007 -0.9937
vn 0.4938 -0.0000 0.8696
vn 0.1340 -0.0001 0.9910
vn 0.8693 0.0005 0.4943
vn -0.0201 -0.0025 -0.9998
vn -0.0206 -0.1041 -0.9944
vn -0.0232 0.0850 -0.9961
vn -0.0196 -0.3288 -0.9442
vn -0.0261 0.3055 -0.9518
vn -0.0001 0.9996 -0.0296
vn -0.0210 0.9994 -0.0271
vn -0.0230 0.9997 -0.0000
vn 0.0315 0.9991 0.0272
vn 0.0314 0.9995 -0.0000
vn -0.0208 0.9994 0.0271
vn -0.0227 0.9997 -0.0000
vn -0.0212 0.9998 -0.0000
vn -0.0209 0.9994 0.0272
vn -0.0102 0.9999 -0.0000
vn -0.0103 0.9996 0.0273
vn 0.0001 0.9996 0.0273
vn 0.0293 0.3054 -0.9518
vn 0.0236 0.0839 -0.9962
vn -0.0000 0.3080 -0.9514
vn -0.0000 0.0805 -0.9968
vn -0.0229 0.3079 -0.9511
vn -0.0216 0.0847 -0.9962
vn 0.0213 -0.1037 -0.9944
vn 0.0196 -0.3288 -0.9442
vn -0.0000 -0.0998 -0.9950
vn -0.0000 -0.3303 -0.9439
vn -0.0210 -0.1020 -0.9946
vn -0.0196 -0.3303 -0.9437
vn 0.0196 -0.0082 -0.9998
vn -0.0000 -0.0009 -1.0000
vn -0.0203 -0.0099 -0.9997
vn 0.0213 -0.0024 0.9998
vn 0.0206 -0.1051 0.9943
vn 0.0212 -0.0099 0.9997
vn 0.0203 -0.1020 0.9946
vn -0.0000 -0.0008 1.0000
vn -0.0000 -0.0992 0.9951
vn 0.0181 0.0858 0.9961
vn 0.0198 0.0847 0.9962
vn -0.0000 0.0800 0.9968
vn 0.0196 -0.3318 0.9431
vn 0.0196 -0.3303 0.9437
vn -0.0000 -0.3304 0.9439
vn 0.0132 0.3084 0.9512
vn 0.0166 0.3079 0.9513
vn -0.0000 0.3080 0.9514
vn 0.0312 0.9995 -0.0000
vn 0.0313 0.9991 -0.0272
vn 0.0208 0.9994 -0.0271
vn 0.0230 0.9997 -0.0000
vn -0.0001 0.9996 -0.0273
vn -0.0105 0.9999 -0.0000
vn -0.0105 0.9996 -0.0273
vn -0.0207 0.9998 -0.0000
vn -0.0211 0.9994 -0.0272
vn 0.0001 0.9996 0.0295
vn -0.0001 0.9996 -0.0295
vn 0.0315 0.9995 -0.0000
vn 0.0214 0.9998 -0.0000
vn -0.0104 0.9999 -0.0000
vn -0.0211 0.9998 -0.0000
vn -0.0214 0.9998 -0.0000
vn -0.0000 1.0000 0.0001
vn -0.0000 1.0000 -0.0001
vn 0.9495 0.3138 -0.0005
vt -0.167500 0.850000
vt 1.082500 0.850000
vt 1.082500 0.830000
vt -0.167500 0.830000
vt 1.155000 -0.167500
vt 1.155000 1.082500
vt 1.175000 1.082500
vt 1.175000 -0.167500
vt 1.155000 0.830000
vt 1.175000 0.830000
vt 1.175000 0.850000
vt 1.155000 0.850000
vt 1.115028 0.843530
vt 1.107374 0.825052
vt 1.175000 1.115028
vt 1.155000 1.115028
vt 1.155000 1.107374
vt 1.175000 1.107374
vt 1.175000 1.142604
vt 1.155000 1.142604
vt 1.155000 1.128462
vt 1.175000 1.128462
vt 1.128462 0.810962
vt 1.142604 0.825104
vt 1.142552 0.789874
vt 1.161030 0.797528
vt 1.155000 0.825104
vt 1.175000 0.825104
vt 1.175000 0.797528
vt 1.155000 0.797528
vt 1.175000 0.810962
vt 1.155000 0.810962
vt 1.155000 0.789874
vt 1.175000 0.789874
vt 1.175000 0.765000
vt 1.155000 0.765000
vt 1.155000 0.765000
vt 1.175000 0.765000
vt 1.147500 0.765000
vt 1.167500 0.765000
vt 1.147500 0.235000
vt 1.167500 0.235000
vt 1.155001 0.235000
vt 1.175001 0.235000
vt -0.167500 0.150000
vt 1.082500 0.150000
vt 1.082500 0.170000
vt -0.167500 0.170000
vt 1.175001 -0.167500
vt 1.175001 1.082500
vt 1.155001 1.082500
vt 1.155001 -0.167500
vt 1.175001 0.170000
vt 1.155001 0.170000
vt 1.155001 0.150000
vt 1.175001 0.150000
vt 1.115028 0.156470
vt 1.107374 0.174948
vt 1.155001 1.115028
vt 1.175001 1.115028
vt 1.175001 1.107374
vt 1.155001 1.107374
vt 1.155001 1.142604
vt 1.175001 1.142604
vt 1.175001 1.128462
vt 1.155001 1.128462
vt 1.128462 0.189038
vt 1.142604 0.174896
vt 1.142604 0.174896
vt 1.142552 0.210126
vt 1.161030 0.202472
vt 1.175001 0.174896
vt 1.155001 0.174896
vt 1.155001 0.202472
vt 1.175001 0.202472
vt 1.155001 0.189038
vt 1.175001 0.189038
vt 1.175001 0.210126
vt 1.155001 0.210126
vt 1.155001 0.235000
vt 1.175001 0.235000
vt 0.127500 0.170000
vt 0.127500 0.830000
vt 0.142500 0.830000
vt 0.142500 0.170000
vt 1.157501 0.170000
vt 1.157501 0.830000
vt 1.172501 0.830000
vt 1.172501 0.170000
vt 1.157501 0.142500
vt 1.172501 0.142500
vt 1.172501 0.127500
vt 1.157501 0.127500
vt 0.718750 0.505208
vt 0.718750 0.184896
vt 0.729167 0.184896
vt 0.729167 0.505208
vt 0.739583 0.184896
vt 0.739583 0.505208
vt 0.750000 0.184896
vt 0.750000 0.505208
vt 0.708333 0.505208
vt 0.708333 0.184896
vt 0.572917 0.526042
vt 0.562500 0.526042
vt 0.562500 0.515625
vt 0.572917 0.515625
vt 0.552083 0.505208
vt 0.552083 0.184896
vt 0.562500 0.184896
vt 0.562500 0.505208
vt 0.572917 0.184896
vt 0.572917 0.505208
vt 0.583333 0.184896
vt 0.583333 0.505208
vt 0.541667 0.505208
vt 0.541667 0.184896
vt 0.510417 0.515625
vt 0.500000 0.515625
vt 0.500000 0.505208
vt 0.510417 0.505208
vt 0.531250 0.184896
vt 0.531250 0.505208
vt 0.520833 0.505208
vt 0.520833 0.184896
vt 0.510417 0.184896
vt 0.500000 0.505208
vt 0.500000 0.184896
vt 0.541667 0.184896
vt 0.552083 0.515625
vt 0.541667 0.515625
vt 0.593750 0.505208
vt 0.593750 0.184896
vt 0.604167 0.184896
vt 0.604167 0.505208
vt 0.614583 0.184896
vt 0.614583 0.505208
vt 0.625000 0.184896
vt 0.625000 0.505208
vt 0.583333 0.505208
vt 0.531250 0.515625
vt 0.635417 0.505208
vt 0.635417 0.184896
vt 0.645833 0.184896
vt 0.645833 0.505208
vt 0.656250 0.184896
vt 0.656250 0.505208
vt 0.666667 0.184896
vt 0.666667 0.505208
vt 0.625000 0.505208
vt 0.625000 0.184896
vt 0.562500 0.505208
vt 0.572917 0.505208
vt 0.697917 0.184896
vt 0.697917 0.505208
vt 0.687500 0.505208
vt 0.687500 0.184896
vt 0.677083 0.505208
vt 0.677083 0.184896
vt 0.666667 0.505208
vt 0.666667 0.184896
vt 0.708333 0.184896
vt 0.708333 0.505208
vt 0.531250 0.526042
vt 0.531250 0.515625
vt 0.541667 0.515625
vt 0.541667 0.526042
vt 0.797500 0.850000
vt 0.797500 0.830000
vt -0.175001 -0.167500
vt -0.175001 0.797500
vt -0.155001 0.797500
vt -0.155001 -0.167500
vt -0.175001 0.830000
vt -0.155001 0.830000
vt -0.155001 0.850000
vt -0.175001 0.850000
vt 0.797500 0.150000
vt 0.797500 0.170000
vt -0.155000 -0.167500
vt -0.155000 0.797500
vt -0.175000 0.797500
vt -0.175000 -0.167500
vt -0.155000 0.170000
vt -0.175000 0.170000
vt -0.175000 0.150000
vt -0.155000 0.150000
vt -0.155001 0.830000
vt -0.175001 0.830000
vt 0.127500 0.837500
vt 0.085000 0.837500
vt 0.085000 0.842500
vt 0.127500 0.842500
vt -0.102500 0.127500
vt -0.112500 0.127500
vt -0.155000 0.085000
vt -0.155000 0.075000
vt -0.112500 0.127500
vt -0.102500 0.127500
vt 0.075000 0.842500
vt 0.075000 0.837500
vt -0.167500 0.127500
vt -0.167500 0.085000
vt -0.162500 0.085000
vt -0.162500 0.127500
vt 0.127500 0.777501
vt 0.127500 0.787501
vt 0.085000 0.830000
vt 0.075000 0.830000
vt 0.127500 0.787501
vt 0.127500 0.777501
vt -0.162500 0.075000
vt -0.167500 0.075000
vt -0.162500 0.127500
vt -0.162500 0.085000
vt -0.167500 0.085000
vt 0.127500 0.222500
vt 0.127500 0.212500
vt 0.085000 0.170000
vt 0.075000 0.170000
vt 0.127500 0.212500
vt 0.127500 0.222500
vt -0.167500 0.075000
vt -0.162500 0.075000
vt 0.127500 0.157500
vt 0.085000 0.157500
vt 0.085000 0.162500
vt 0.127500 0.162500
vt -0.102501 0.127500
vt -0.112501 0.127500
vt -0.155000 0.085000
vt -0.155000 0.075000
vt -0.112501 0.127500
vt -0.102501 0.127500
vt 0.075000 0.162500
vt 0.075000 0.157500
vt 0.127500 0.162500
vt 0.085000 0.162500
vt 0.085000 0.157500
vt 0.127500 0.157500
vt 1.102500 0.127500
vt 1.112500 0.127500
vt 1.155000 0.085000
vt 1.155000 0.075000
vt 1.102500 0.127500
vt 0.075000 0.157500
vt 0.075000 0.162500
vt 1.167500 0.127500
vt 1.167500 0.085000
vt 1.162500 0.085000
vt 1.162500 0.127500
vt 0.127500 0.222499
vt 0.127500 0.212499
vt 0.085000 0.170000
vt 0.075000 0.170000
vt 0.127500 0.212499
vt 0.127500 0.222499
vt 1.162500 0.075000
vt 1.167500 0.075000
vt 1.162500 0.127500
vt 1.162500 0.085000
vt 1.167500 0.085000
vt 1.167500 0.127500
vt 0.127500 0.777500
vt 0.127500 0.787501
vt 0.085000 0.830000
vt 0.075000 0.830000
vt 0.127500 0.787501
vt 0.127500 0.777501
vt 1.167500 0.075000
vt 1.162500 0.075000
vt 0.127500 0.842500
vt 0.085000 0.842500
vt 0.085000 0.837500
vt 0.127500 0.837500
vt 1.102501 0.127500
vt 1.112501 0.127500
vt 1.155000 0.085000
vt 1.155000 0.075000
vt 1.102501 0.127500
vt 0.075000 0.837500
vt 0.075000 0.842500
vt 0.777500 0.170000
vt 0.777500 0.830000
vt 0.792500 0.830000
vt 0.792500 0.170000
vt 1.157501 0.792500
vt 1.172501 0.792500
vt 1.172501 0.777500
vt 1.157501 0.777500
vt 1.160000 0.245000
vt 1.170000 0.245000
vt 1.170000 0.255000
vt 1.160000 0.255000
vt 1.160000 0.345000
vt 1.170000 0.345000
vt 1.170000 0.355000
vt 1.160000 0.355000
vt 1.160000 0.445000
vt 1.170000 0.445000
vt 1.170000 0.455000
vt 1.160000 0.455000
vt 1.160000 0.545000
vt 1.170000 0.545000
vt 1.170000 0.555000
vt 1.160000 0.555000
vt 1.160000 0.645000
vt 1.170000 0.645000
vt 1.170000 0.655000
vt 1.160000 0.655000
vt 1.160000 0.745000
vt 1.170000 0.745000
vt 1.170000 0.755000
vt 1.160000 0.755000
vt 0.777500 0.837500
vt 0.735000 0.837500
vt 0.735000 0.842500
vt 0.777500 0.842500
vt -0.102500 0.777500
vt -0.112500 0.777500
vt -0.155000 0.735000
vt -0.155000 0.725000
vt -0.112500 0.777500
vt -0.102500 0.777500
vt 0.725000 0.842500
vt 0.725000 0.837500
vt -0.167500 0.777500
vt -0.167500 0.735000
vt -0.162500 0.735000
vt -0.162500 0.777500
vt 0.777500 0.777501
vt 0.777500 0.787501
vt 0.735000 0.830000
vt 0.725000 0.830000
vt 0.777500 0.787501
vt 0.777500 0.777501
vt -0.162500 0.725000
vt -0.167500 0.725000
vt -0.162500 0.777500
vt -0.162500 0.735000
vt -0.167500 0.735000
vt 0.777500 0.222500
vt 0.777500 0.212500
vt 0.735000 0.170000
vt 0.725000 0.170000
vt 0.777500 0.212500
vt 0.777500 0.222500
vt -0.167500 0.725000
vt -0.162500 0.725000
vt 0.777500 0.157500
vt 0.735000 0.157500
vt 0.735000 0.162500
vt 0.777500 0.162500
vt -0.102501 0.777500
vt -0.112501 0.777500
vt -0.155000 0.735000
vt -0.155000 0.725000
vt -0.112501 0.777500
vt -0.102501 0.777500
vt 0.725000 0.162500
vt 0.725000 0.157500
vt 0.777500 0.162500
vt 0.735000 0.162500
vt 0.735000 0.157500
vt 0.777500 0.157500
vt 1.102500 0.777500
vt 1.112500 0.777500
vt 1.155000 0.735000
vt 1.155000 0.725000
vt 1.102500 0.777500
vt 0.725000 0.157500
vt 1.167500 0.777500
vt 1.167500 0.735000
vt 1.162500 0.735000
vt 1.162500 0.777500
vt 0.777500 0.222499
vt 0.777500 0.212499
vt 0.735000 0.170000
vt 0.725000 0.170000
vt 0.777500 0.212499
vt 0.777500 0.222499
vt 1.162500 0.725000
vt 1.167500 0.725000
vt 1.162500 0.735000
vt 1.167500 0.735000
vt 0.777500 0.777500
vt 0.777500 0.787501
vt 0.735000 0.830000
vt 0.725000 0.830000
vt 0.777500 0.787501
vt 0.777500 0.777501
vt 0.777500 0.842500
vt 0.735000 0.842500
vt 0.735000 0.837500
vt 0.777500 0.837500
vt 1.102501 0.777500
vt 1.112501 0.777500
vt 1.155000 0.735000
vt 1.155000 0.725000
vt 1.102501 0.777500
vt 0.725000 0.837500
vt 0.725000 0.842500
vt 0.450000 0.170000
vt 0.450000 0.830000
vt 0.465000 0.830000
vt 0.465000 0.170000
vt 1.157501 0.465000
vt 1.172501 0.465000
vt 1.172501 0.450000
vt 1.157501 0.450000
vt 0.489583 0.184896
vt 0.489583 0.554688
vt 0.479167 0.554688
vt 0.479167 0.184896
vt 0.468750 0.554688
vt 0.468750 0.184896
vt 0.458333 0.554688
vt 0.458333 0.184896
vt 0.500000 0.554688
vt 0.583333 0.515625
vt 0.583333 0.505208
vt 0.281250 0.184896
vt 0.281250 0.554688
vt 0.270833 0.554688
vt 0.270833 0.184896
vt 0.260417 0.554688
vt 0.260417 0.184896
vt 0.250000 0.554688
vt 0.250000 0.184896
vt 0.291667 0.184896
vt 0.291667 0.554688
vt 0.520833 0.515625
vt 0.302083 0.554688
vt 0.302083 0.184896
vt 0.312500 0.184896
vt 0.312500 0.554688
vt 0.322917 0.184896
vt 0.322917 0.554688
vt 0.333333 0.184896
vt 0.333333 0.554688
vt 0.291667 0.554688
vt 0.364583 0.184896
vt 0.364583 0.554688
vt 0.354167 0.554688
vt 0.354167 0.184896
vt 0.343750 0.554688
vt 0.343750 0.184896
vt 0.333333 0.554688
vt 0.333333 0.184896
vt 0.375000 0.184896
vt 0.375000 0.554688
vt 0.520833 0.515625
vt 0.531250 0.505208
vt 0.385417 0.554688
vt 0.385417 0.184896
vt 0.395833 0.184896
vt 0.395833 0.554688
vt 0.406250 0.184896
vt 0.406250 0.554688
vt 0.416667 0.184896
vt 0.416667 0.554688
vt 0.375000 0.554688
vt 0.375000 0.184896
vt 0.552083 0.526042
vt 0.427083 0.554688
vt 0.427083 0.184896
vt 0.437500 0.184896
vt 0.437500 0.554688
vt 0.447917 0.184896
vt 0.447917 0.554688
vt 0.458333 0.184896
vt 0.458333 0.554688
vt 0.416667 0.554688
vt 0.520833 0.526042
vt 0.520833 0.515625
vt 0.531250 0.526042
vt 1.155000 0.837500
vt -0.155000 0.837500
vt -0.155000 0.842500
vt 1.155000 0.842500
vt 1.155000 0.477500
vt 1.155000 0.492500
vt -0.155000 0.492500
vt -0.155000 0.477500
vt 0.477500 0.170000
vt 0.477500 0.830000
vt 0.492500 0.830000
vt 0.492500 0.170000
vt -0.167500 0.170000
vt -0.167500 0.830000
vt -0.162500 0.830000
vt -0.162500 0.170000
vt -0.162500 0.830000
vt -0.167500 0.492500
vt -0.162500 0.492500
vt -0.162500 0.477500
vt -0.167500 0.477500
vt 1.155000 0.157500
vt -0.155000 0.157500
vt -0.155000 0.162500
vt 1.155000 0.162500
vt 1.154981 0.477500
vt 1.154981 0.492500
vt -0.155000 0.492500
vt -0.155000 0.477500
vt 1.154981 0.492500
vt 0.482500 0.162500
vt 0.482500 0.837500
vt 0.487500 0.837500
vt 0.487500 0.162500
vt -0.132500 0.162500
vt -0.132500 0.837500
vt -0.117500 0.837500
vt -0.117500 0.162500
vt 0.487500 0.162500
vt 0.482500 0.162500
vt -0.117500 0.837500
vt -0.132500 0.837500
vt -0.132500 0.487500
vt -0.117500 0.487500
vt -0.117500 0.482500
vt -0.132500 0.482500
vt 0.042500 0.487500
vt 0.057500 0.487500
vt 0.057500 0.482500
vt 0.042500 0.482500
vt 0.057500 0.162500
vt 0.057500 0.837500
vt 0.042500 0.837500
vt 0.042500 0.162500
vt 0.042500 0.837500
vt 0.057500 0.837500
vt -0.057500 0.162500
vt -0.057500 0.837500
vt -0.042500 0.837500
vt -0.042500 0.162500
vt -0.042500 0.837500
vt -0.057500 0.837500
vt -0.057500 0.487500
vt -0.042500 0.487500
vt -0.042500 0.482500
vt -0.057500 0.482500
vt 0.242500 0.487500
vt 0.257500 0.487500
vt 0.257500 0.482500
vt 0.242500 0.482500
vt 0.257500 0.162500
vt 0.257500 0.837500
vt 0.242500 0.837500
vt 0.242500 0.162500
vt 0.242500 0.837500
vt 0.257500 0.837500
vt 0.142500 0.162500
vt 0.142500 0.837500
vt 0.157500 0.837500
vt 0.157500 0.162500
vt 0.157500 0.837500
vt 0.142500 0.837500
vt 0.142500 0.487500
vt 0.157500 0.487500
vt 0.157500 0.482500
vt 0.142500 0.482500
vt 0.442500 0.487500
vt 0.457500 0.487500
vt 0.457500 0.482500
vt 0.442500 0.482500
vt 0.457500 0.162500
vt 0.457500 0.837500
vt 0.442500 0.837500
vt 0.442500 0.162500
vt 0.442500 0.837500
vt 0.457500 0.837500
vt 0.342500 0.162500
vt 0.342500 0.837500
vt 0.357500 0.837500
vt 0.357500 0.162500
vt 0.357500 0.837500
vt 0.342500 0.837500
vt 0.342500 0.487500
vt 0.357500 0.487500
vt 0.357500 0.482500
vt 0.342500 0.482500
vt 0.642500 0.487500
vt 0.657500 0.487500
vt 0.657500 0.482500
vt 0.642500 0.482500
vt 0.657500 0.162500
vt 0.657500 0.837500
vt 0.642500 0.837500
vt 0.642500 0.162500
vt 0.642500 0.837500
vt 0.657500 0.837500
vt 0.542500 0.162500
vt 0.542500 0.837500
vt 0.557500 0.837500
vt 0.557500 0.162500
vt 0.557500 0.837500
vt 0.542500 0.837500
vt 0.542500 0.487500
vt 0.557500 0.487500
vt 0.557500 0.482500
vt 0.542500 0.482500
vt 0.842500 0.487500
vt 0.857500 0.487500
vt 0.857500 0.482500
vt 0.842500 0.482500
vt 0.857500 0.162500
vt 0.857500 0.837500
vt 0.842500 0.837500
vt 0.842500 0.162500
vt 0.842500 0.837500
vt 0.857500 0.837500
vt 0.742500 0.162500
vt 0.742500 0.837500
vt 0.757500 0.837500
vt 0.757500 0.162500
vt 0.757500 0.837500
vt 0.742500 0.837500
vt 0.742500 0.487500
vt 0.757500 0.487500
vt 0.757500 0.482500
vt 0.742500 0.482500
vt 1.042500 0.487500
vt 1.057500 0.487500
vt 1.057500 0.482500
vt 1.042500 0.482500
vt 1.057500 0.162500
vt 1.057500 0.837500
vt 1.042500 0.837500
vt 1.042500 0.162500
vt 1.042500 0.837500
vt 1.057500 0.837500
vt 0.942500 0.162500
vt 0.942500 0.837500
vt 0.957500 0.837500
vt 0.957500 0.162500
vt 0.957500 0.837500
vt 0.942500 0.837500
vt 0.942500 0.487500
vt 0.957500 0.487500
vt 0.957500 0.482500
vt 0.942500 0.482500
vt 1.117500 0.487500
vt 1.132500 0.487500
vt 1.132500 0.482500
vt 1.117500 0.482500
vt 1.132500 0.162500
vt 1.132500 0.837500
vt 1.117500 0.837500
vt 1.117500 0.162500
vt 1.117500 0.837500
vt 1.132500 0.837500
vt 0.835000 0.612500
vt 0.165000 0.612500
vt 0.165000 0.617500
vt 0.835000 0.617500
vt 0.835000 0.492500
vt 0.835000 0.507500
vt 0.165000 0.507500
vt 0.165000 0.492500
vt 0.835000 0.382500
vt 0.165000 0.382500
vt 0.165000 0.387500
vt 0.835000 0.387500
vt 0.835000 0.492500
vt 0.165000 0.492500
vt 0.502500 0.387500
vt 0.502500 0.612500
vt 0.497500 0.612500
vt 0.497500 0.387500
vt 0.377500 0.387500
vt 0.377500 0.612500
vt 0.362500 0.612500
vt 0.362500 0.387500
vt 0.577500 0.387500
vt 0.577500 0.612500
vt 0.562500 0.612500
vt 0.562500 0.387500
vt 0.777500 0.387500
vt 0.777500 0.612500
vt 0.762500 0.612500
vt 0.762500 0.387500
vt 0.227501 0.387500
vt 0.227501 0.612500
vt 0.212501 0.612500
vt 0.212501 0.387500
vt 0.212501 0.387500
vt 0.212501 0.612500
vt 0.227501 0.612500
vt 0.492500 0.617500
vt 0.492500 0.612500
vt 0.507500 0.612500
vt 0.507500 0.617500
vt 0.492500 0.387500
vt 0.492500 0.382500
vt 0.507500 0.382500
vt 0.507500 0.387500
vt 0.492500 0.612500
vt 0.492500 0.617500
vt 0.507500 0.617500
vt 0.507500 0.612500
vt 0.492500 0.382500
vt 0.492500 0.387500
vt 0.507500 0.387500
vt 0.507500 0.382500
vt 0.198722 0.060529
vt 0.198722 0.038544
vt 0.039064 0.038544
vt 0.039064 0.060487
vt 0.965738 0.604928
vt 0.978750 0.604928
vt 0.978750 0.903033
vt 0.965714 0.903033
vt 0.048894 0.920993
vt 0.048894 0.978587
vt 0.032572 0.970841
vt 0.020623 0.949679
vt 0.016250 0.920771
vt 0.401250 0.059957
vt 0.401250 0.038544
vt 0.700000 0.038544
vt 0.700000 0.059957
vt 0.676493 0.925268
vt 0.676493 0.978587
vt 0.832356 0.978587
vt 0.832356 0.920549
vt 0.022500 0.038544
vt 0.022500 0.060487
vt 0.073750 0.059957
vt 0.073750 0.038544
vt 0.103750 0.038544
vt 0.103750 0.059957
vt 0.039063 0.170776
vt 0.039063 0.192719
vt 0.022500 0.192719
vt 0.022500 0.170776
vt 0.760000 0.171306
vt 0.760000 0.192719
vt 0.728750 0.192719
vt 0.728750 0.171306
vt 0.700000 0.192719
vt 0.700000 0.171306
vt 0.900894 0.306823
vt 0.887500 0.306823
vt 0.887500 0.278373
vt 0.900894 0.278373
vt 0.901288 0.278373
vt 0.887500 0.246253
vt 0.901288 0.246253
vt 0.852500 0.170776
vt 0.852500 0.192719
vt 0.835936 0.192719
vt 0.835936 0.170776
vt 0.835937 0.170776
vt 0.835937 0.192719
vt 0.852500 0.170776
vt 0.901288 0.963597
vt 0.887500 0.963597
vt 0.887500 0.933619
vt 0.901288 0.933619
vt 0.900894 0.933619
vt 0.887500 0.903033
vt 0.900894 0.903033
vt 0.848678 0.970841
vt 0.860626 0.949679
vt 0.865000 0.920771
vt 0.043750 0.059957
vt 0.043750 0.038544
vt 0.043750 0.192719
vt 0.043750 0.171306
vt 0.073750 0.171306
vt 0.073750 0.192719
vt 0.978750 0.933619
vt 0.965356 0.933619
vt 0.965356 0.903033
vt 0.978750 0.963597
vt 0.964962 0.963597
vt 0.964962 0.933619
vt 0.835937 0.038544
vt 0.835937 0.060487
vt 0.852500 0.060487
vt 0.852500 0.038544
vt 0.852500 0.060487
vt 0.835936 0.060487
vt 0.835936 0.038544
vt 0.978750 0.278373
vt 0.964962 0.278373
vt 0.964962 0.246253
vt 0.978750 0.246253
vt 0.978750 0.306823
vt 0.965356 0.306823
vt 0.965356 0.278373
vt 0.728750 0.038544
vt 0.728750 0.059957
vt 0.760000 0.038544
vt 0.760000 0.059957
vt 0.039063 0.038544
vt 0.039063 0.060487
vt 0.022500 0.060487
vt 0.022500 0.038544
vt 0.103750 0.171306
vt 0.103750 0.192719
vt 0.039064 0.192719
vt 0.039064 0.170776
vt 0.022500 0.170776
vt 0.022500 0.192719
vt 0.401250 0.192719
vt 0.401250 0.171306
vt 0.887500 0.604928
vt 0.900512 0.604928
vt 0.900536 0.903033
vt 0.198722 0.192719
vt 0.198722 0.170734
vt 0.198722 0.060529
vt 0.039064 0.115632
vt 0.198722 0.115632
vt 0.198722 0.115632
vt 0.198722 0.170734
vt 0.965762 0.903033
vt 0.933125 0.903033
vt 0.933125 0.604928
vt 0.900488 0.903033
vt 0.700000 0.115632
vt 0.401250 0.115632
vt 0.022500 0.115632
vt 0.103750 0.115632
vt 0.073750 0.115632
vt 0.022500 0.115632
vt 0.039063 0.115632
vt 0.728750 0.115632
vt 0.760000 0.115632
vt 0.900050 0.306823
vt 0.900072 0.278373
vt 0.933125 0.278373
vt 0.933125 0.306823
vt 0.966178 0.278373
vt 0.966200 0.306823
vt 0.899641 0.278373
vt 0.899641 0.246253
vt 0.933125 0.246253
vt 0.933125 0.278373
vt 0.966609 0.246253
vt 0.966609 0.278373
vt 0.835936 0.115632
vt 0.852500 0.115632
vt 0.835937 0.115632
vt 0.899641 0.963597
vt 0.899641 0.933619
vt 0.933125 0.933619
vt 0.933125 0.963597
vt 0.966609 0.933619
vt 0.966609 0.963597
vt 0.900072 0.933619
vt 0.900050 0.903033
vt 0.933125 0.933619
vt 0.966200 0.903033
vt 0.966178 0.933619
vt 0.043750 0.115632
vt 0.676278 0.115632
vt 0.676278 0.170734
vt 0.676278 0.060529
vt 0.676278 0.170734
vt 0.676278 0.192719
vt 0.016250 0.920771
vt 0.032572 0.970841
vt 0.048894 0.978587
vt 0.048894 0.920993
vt 0.676278 0.038544
vt 0.676278 0.060529
vt 0.865000 0.284797
vt 0.832356 0.284574
vt 0.832356 0.226981
vt 0.848678 0.234727
vt 0.860626 0.255889
vt 0.204758 0.926881
vt 0.204758 0.978587
vt 0.832356 0.920548
vt 0.832356 0.978587
vt 0.676493 0.924791
vt 0.676493 0.924791
vt 0.676493 0.978587
vt 0.519248 0.978587
vt 0.519248 0.929024
vt 0.362003 0.978587
vt 0.362003 0.934212
vt 0.362003 0.934212
vt 0.362003 0.978587
vt 0.204758 0.978587
vt 0.204758 0.926881
vt 0.198722 0.038544
vt 0.198722 0.060529
vt 0.198722 0.038544
vt 0.357907 0.038544
vt 0.357907 0.060529
vt 0.198722 0.060529
vt 0.517093 0.038544
vt 0.517093 0.060529
vt 0.517093 0.038544
vt 0.676278 0.060529
vt 0.517093 0.060529
vt 0.198722 0.170734
vt 0.198722 0.192719
vt 0.198722 0.170734
vt 0.357907 0.170734
vt 0.357907 0.192719
vt 0.198722 0.192719
vt 0.357907 0.170734
vt 0.517093 0.170734
vt 0.517093 0.192719
vt 0.357907 0.192720
vt 0.517093 0.192719
vt 0.198722 0.060529
vt 0.198722 0.115632
vt 0.357907 0.060529
vt 0.357907 0.115632
vt 0.198722 0.115632
vt 0.517093 0.115632
vt 0.676278 0.060529
vt 0.517093 0.115632
vt 0.198722 0.170734
vt 0.357907 0.170734
vt 0.357907 0.115632
vt 0.517093 0.115632
vt 0.676278 0.115632
vt 0.676278 0.115632
vt 0.676278 0.170734
vt 0.676278 0.115632
vt 0.517093 0.115632
vt 0.517093 0.170734
vt 0.676278 0.170734
vt 0.517093 0.115632
vt 0.357907 0.115632
vt 0.357907 0.170734
vt 0.357907 0.115632
vt 0.198722 0.170734
vt 0.357907 0.170734
vt 0.676278 0.060529
vt 0.676278 0.060529
vt 0.517093 0.060529
vt 0.357907 0.060529
vt 0.517093 0.115632
vt 0.357907 0.060529
vt 0.198722 0.060529
vt 0.198722 0.115632
vt 0.676278 0.192719
vt 0.517093 0.170734
vt 0.517093 0.192720
vt 0.357907 0.192719
vt 0.357907 0.192719
vt 0.357907 0.170734
vt 0.198722 0.192719
vt 0.204758 0.978587
vt 0.204758 0.927837
vt 0.204758 0.927836
vt 0.204758 0.978587
vt 0.362003 0.978587
vt 0.362003 0.934689
vt 0.362003 0.934689
vt 0.362003 0.978587
vt 0.519248 0.978587
vt 0.519248 0.929979
vt 0.519248 0.929979
vt 0.519248 0.978587
vt 0.676493 0.925268
vt 0.676278 0.038544
vt 0.676278 0.060529
vt 0.676278 0.060529
vt 0.517093 0.038544
vt 0.517093 0.060529
vt 0.357907 0.038544
vt 0.357907 0.038544
vt 0.204758 0.226981
vt 0.204758 0.292825
vt 0.048894 0.285019
vt 0.048894 0.226981
vt 0.362003 0.226981
vt 0.362003 0.299196
vt 0.204758 0.226981
vt 0.519248 0.226981
vt 0.519248 0.294967
vt 0.362003 0.226981
vt 0.676493 0.226981
vt 0.676493 0.289776
vt 0.519248 0.294967
vt 0.519248 0.226981
vt 0.676493 0.226981
vt 0.865000 0.920771
vt 0.016250 0.284796
vt 0.020623 0.255889
vt 0.032572 0.234727
vt 0.204758 0.609853
vt 0.048894 0.603006
vt 0.362002 0.616704
vt 0.519248 0.611995
vt 0.676493 0.607283
vt 0.832356 0.602561
vt 0.865000 0.602784
vt 0.016250 0.602784
vt 0.204758 0.609849
vt 0.362003 0.616702
vt 0.519248 0.611992
vt 0.676493 0.607281
vt 0.832356 0.602561
vt 0.865000 0.602784
vt 0.016250 0.602784
vt 0.048894 0.226981
vt 0.048894 0.285019
vt 0.204758 0.291862
vt 0.204758 0.226981
vt 0.204758 0.226981
vt 0.204758 0.291862
vt 0.362003 0.298715
vt 0.362003 0.226981
vt 0.362003 0.226981
vt 0.362003 0.298715
vt 0.519248 0.294005
vt 0.519248 0.226981
vt 0.676493 0.289294
vt 0.832356 0.284574
vt 0.832356 0.226981
vt 0.865000 0.284796
vt 0.848678 0.234727
vt 0.020623 0.255889
vt 0.016250 0.284797
vt 0.032572 0.234727
vt 0.900488 0.306823
vt 0.965762 0.306823
vt 0.900536 0.306823
vt 0.965714 0.306823
s 1
usemtl metal_mp_5
f 1/1/1 2/2/1 4/3/1 3/4/1
f 3/5/2 4/6/3 8/7/3 7/8/2
f 7/4/4 8/3/4 6/2/4 5/1/4
f 5/8/5 6/7/6 2/6/6 1/5/5
f 3/9/7 7/10/7 5/11/7 1/12/7
f 4/3/1 2/2/1 9/13/1 10/14/1
f 2/6/6 6/7/6 11/15/8 9/16/8
f 8/7/3 4/6/3 10/17/9 12/18/9
f 6/2/4 8/3/4 12/14/4 11/13/4
f 9/16/8 11/15/8 15/19/10 13/20/10
f 12/18/9 10/17/9 14/21/11 16/22/11
f 11/13/4 12/14/4 16/23/4 15/24/4
f 10/14/1 9/13/1 13/24/1 14/23/1
f 15/24/4 16/23/4 20/25/4 19/26/4
f 14/23/1 13/24/1 17/26/1 18/25/1
f 13/27/10 15/28/10 19/29/12 17/30/12
f 16/31/11 14/32/11 18/33/13 20/34/13
f 17/30/12 19/29/12 23/35/14 21/36/14
f 20/34/13 18/33/13 22/37/15 24/38/15
f 19/26/4 20/25/4 24/39/4 23/40/4
f 18/25/1 17/26/1 21/40/1 22/39/1
f 46/41/4 45/42/4 23/40/4 24/39/4
f 24/38/15 22/37/15 48/43/16 46/44/16
f 25/45/4 26/46/4 28/47/4 27/48/4
f 27/49/5 28/50/17 32/51/17 31/52/5
f 31/48/1 32/47/1 30/46/1 29/45/1
f 29/52/2 30/51/18 26/50/18 25/49/2
f 27/53/7 31/54/7 29/55/7 25/56/7
f 28/47/4 26/46/4 33/57/4 34/58/4
f 26/50/18 30/51/18 35/59/19 33/60/19
f 32/51/17 28/50/17 34/61/20 36/62/20
f 30/46/1 32/47/1 36/58/1 35/57/1
f 33/60/19 35/59/19 39/63/21 37/64/21
f 36/62/20 34/61/20 38/65/22 40/66/22
f 35/57/1 36/58/1 40/67/1 39/68/1
f 34/58/4 33/57/4 37/69/4 38/67/4
f 39/68/1 40/67/1 44/70/1 43/71/1
f 38/67/4 37/69/4 41/71/4 42/70/4
f 37/72/21 39/73/21 43/74/23 41/75/23
f 40/76/22 38/77/22 42/78/24 44/79/24
f 41/75/23 43/74/23 47/80/25 45/81/25
f 44/79/24 42/78/24 46/44/16 48/43/16
f 43/71/1 44/70/1 48/41/1 47/42/1
f 42/70/4 41/71/4 45/42/4 46/41/4
f 47/42/1 48/41/1 22/39/1 21/40/1
f 45/81/25 47/80/25 21/36/14 23/35/14
f 49/82/1 50/83/1 52/84/1 51/85/1
f 51/86/26 52/87/26 56/88/26 55/89/26
f 55/85/4 56/84/4 54/83/4 53/82/4
f 53/89/7 54/88/7 50/87/7 49/86/7
f 51/90/2 55/91/2 53/92/2 49/93/2
f 57/94/1 58/95/1 60/96/1 59/97/1
f 59/97/2 60/96/2 64/98/2 63/99/2
f 63/99/4 64/98/4 62/100/4 61/101/4
f 61/102/5 62/103/5 58/95/5 57/94/5
f 59/104/7 63/105/7 61/106/7 57/107/7
f 65/108/1 66/109/1 68/110/1 67/111/1
f 67/111/2 68/110/2 72/112/2 71/113/2
f 71/113/4 72/112/4 70/114/4 69/115/4
f 69/116/5 70/117/5 66/109/5 65/108/5
f 67/118/7 71/119/7 69/120/7 65/121/7
f 73/122/1 74/123/1 76/124/1 75/125/1
f 75/125/2 76/124/2 80/121/2 79/126/2
f 79/126/4 80/121/4 78/127/4 77/128/4
f 77/129/5 78/116/5 74/123/5 73/122/5
f 75/130/7 79/131/7 77/116/7 73/108/7
f 81/132/1 82/133/1 84/134/1 83/135/1
f 83/135/2 84/134/2 88/136/2 87/137/2
f 87/137/4 88/136/4 86/138/4 85/139/4
f 85/140/5 86/114/5 82/133/5 81/132/5
f 83/131/7 87/141/7 85/123/7 81/116/7
f 89/142/1 90/143/1 92/144/1 91/145/1
f 91/145/2 92/144/2 96/146/2 95/147/2
f 95/147/4 96/146/4 94/148/4 93/149/4
f 93/150/5 94/151/5 90/143/5 89/142/5
f 91/107/7 95/106/7 93/152/7 89/153/7
f 97/154/1 98/155/1 100/156/1 99/157/1
f 99/157/2 100/156/2 104/158/2 103/159/2
f 103/159/4 104/158/4 102/160/4 101/161/4
f 101/162/5 102/163/5 98/155/5 97/154/5
f 99/164/7 103/165/7 101/166/7 97/167/7
f 105/1/1 106/168/1 108/169/1 107/4/1
f 107/170/2 108/171/2 112/172/2 111/173/2
f 111/4/4 112/169/4 110/168/4 109/1/4
f 109/173/5 110/172/5 106/171/5 105/170/5
f 107/174/7 111/175/7 109/176/7 105/177/7
f 113/45/4 114/178/4 116/179/4 115/48/4
f 115/180/5 116/181/5 120/182/5 119/183/5
f 119/48/1 120/179/1 118/178/1 117/45/1
f 117/183/2 118/182/2 114/181/2 113/180/2
f 115/184/7 119/185/7 117/186/7 113/187/7
f 106/177/26 110/176/26 112/188/26 108/189/26
f 114/187/26 118/186/26 120/185/26 116/184/26
f 128/190/27 124/191/27 122/192/27 126/193/27
f 125/194/5 126/195/5 122/196/5 121/197/5
f 123/197/2 124/196/2 128/198/2 127/199/2
f 127/190/28 125/193/28 121/200/28 123/201/28
f 136/202/10 132/203/10 130/204/10 134/205/10
f 133/206/4 134/207/4 130/208/4 129/209/4
f 131/209/1 132/208/1 136/210/1 135/211/1
f 135/202/11 133/205/11 129/212/11 131/213/11
f 144/214/21 140/215/21 138/216/21 142/202/21
f 141/217/1 142/218/1 138/219/1 137/220/1
f 139/220/4 140/219/4 144/221/4 143/222/4
f 143/214/22 141/202/22 137/223/22 139/224/22
f 152/225/27 148/226/27 146/227/27 150/228/27
f 149/229/5 150/230/5 146/231/5 145/232/5
f 147/232/2 148/231/2 152/233/2 151/234/2
f 151/225/28 149/228/28 145/235/28 147/236/28
f 160/237/29 156/238/29 154/239/29 158/240/29
f 157/241/2 158/242/2 154/243/2 153/244/2
f 155/244/5 156/243/5 160/242/5 159/245/5
f 159/237/30 157/240/30 153/246/30 155/247/30
f 168/248/21 164/249/21 162/250/21 166/251/21
f 165/252/1 166/253/1 162/254/1 161/255/1
f 163/255/4 164/254/4 168/256/4 167/257/4
f 167/248/22 165/251/22 161/258/22 163/259/22
f 176/260/10 172/261/10 170/262/10 174/263/10
f 173/264/4 174/265/4 170/266/4 169/267/4
f 171/267/1 172/266/1 176/268/1 175/269/1
f 175/260/11 173/263/11 169/270/11 171/271/11
f 184/272/29 180/273/29 178/274/29 182/275/29
f 181/276/2 182/277/2 178/278/2 177/279/2
f 179/279/5 180/278/5 184/277/5 183/280/5
f 183/272/30 181/275/30 177/281/30 179/282/30
f 185/283/1 186/284/1 188/285/1 187/286/1
f 187/86/26 188/87/26 192/88/26 191/89/26
f 191/286/4 192/285/4 190/284/4 189/283/4
f 189/89/7 190/88/7 186/87/7 185/86/7
f 187/287/2 191/288/2 189/289/2 185/290/2
f 194/291/7 196/292/7 195/293/7 193/294/7
f 198/295/7 200/296/7 199/297/7 197/298/7
f 202/299/7 204/300/7 203/301/7 201/302/7
f 206/303/7 208/304/7 207/305/7 205/306/7
f 210/307/7 212/308/7 211/309/7 209/310/7
f 214/311/7 216/312/7 215/313/7 213/314/7
f 217/177/26 219/176/26 220/188/26 218/189/26
f 221/187/26 223/186/26 224/185/26 222/184/26
f 232/315/27 228/316/27 226/317/27 230/318/27
f 229/319/5 230/320/5 226/321/5 225/322/5
f 227/322/2 228/321/2 232/323/2 231/324/2
f 231/315/28 229/318/28 225/325/28 227/326/28
f 240/327/10 236/328/10 234/329/10 238/330/10
f 237/331/4 238/332/4 234/333/4 233/334/4
f 235/334/1 236/333/1 240/335/1 239/336/1
f 239/327/11 237/330/11 233/337/11 235/338/11
f 248/339/21 244/340/21 242/341/21 246/327/21
f 245/342/1 246/343/1 242/344/1 241/345/1
f 243/345/4 244/344/4 248/346/4 247/347/4
f 247/339/22 245/327/22 241/348/22 243/349/22
f 256/350/27 252/351/27 250/352/27 254/353/27
f 253/354/5 254/355/5 250/356/5 249/357/5
f 251/357/2 252/356/2 256/358/2 255/359/2
f 255/350/28 253/353/28 249/360/28 251/361/28
f 264/362/29 260/363/29 258/364/29 262/365/29
f 261/366/2 262/367/2 258/368/2 257/369/2
f 259/369/5 260/368/5 264/367/5 263/370/5
f 263/362/30 261/365/30 257/371/30 259/360/30
f 272/372/21 268/373/21 266/374/21 270/375/21
f 269/376/1 270/377/1 266/378/1 265/379/1
f 267/379/4 268/378/4 272/380/4 271/381/4
f 271/372/22 269/375/22 265/382/22 267/383/22
f 280/375/10 276/384/10 274/385/10 278/372/10
f 277/386/4 278/387/4 274/388/4 273/389/4
f 275/389/1 276/388/1 280/390/1 279/391/1
f 279/375/11 277/372/11 273/383/11 275/382/11
f 288/392/29 284/393/29 282/394/29 286/395/29
f 285/396/2 286/397/2 282/398/2 281/399/2
f 283/399/5 284/398/5 288/397/5 287/400/5
f 287/392/30 285/395/30 281/401/30 283/402/30
f 289/403/1 290/404/1 292/405/1 291/406/1
f 291/86/26 292/87/26 296/88/26 295/89/26
f 295/406/4 296/405/4 294/404/4 293/403/4
f 293/89/7 294/88/7 290/87/7 289/86/7
f 291/407/2 295/408/2 293/409/2 289/410/2
f 297/411/1 298/412/1 300/413/1 299/414/1
f 299/414/2 300/413/2 304/415/2 303/416/2
f 303/416/4 304/415/4 302/417/4 301/418/4
f 301/128/5 302/419/5 298/412/5 297/411/5
f 299/420/7 303/107/7 301/153/7 297/421/7
f 305/422/1 306/423/1 308/424/1 307/425/1
f 307/425/2 308/424/2 312/426/2 311/427/2
f 311/427/4 312/426/4 310/428/4 309/429/4
f 309/430/5 310/431/5 306/423/5 305/422/5
f 307/432/7 311/118/7 309/121/7 305/124/7
f 313/433/1 314/434/1 316/435/1 315/436/1
f 315/436/2 316/435/2 320/437/2 319/438/2
f 319/438/4 320/437/4 318/439/4 317/440/4
f 317/441/5 318/430/5 314/434/5 313/433/5
f 315/106/7 319/130/7 317/108/7 313/152/7
f 321/442/1 322/443/1 324/444/1 323/445/1
f 323/445/2 324/444/2 328/446/2 327/447/2
f 327/447/4 328/446/4 326/448/4 325/449/4
f 325/450/5 326/451/5 322/443/5 321/442/5
f 323/165/7 327/452/7 325/124/7 321/453/7
f 329/454/1 330/455/1 332/456/1 331/457/1
f 331/457/2 332/456/2 336/458/2 335/459/2
f 335/459/4 336/458/4 334/460/4 333/461/4
f 333/462/5 334/463/5 330/455/5 329/454/5
f 331/105/7 335/464/7 333/130/7 329/106/7
f 337/465/1 338/466/1 340/467/1 339/468/1
f 339/468/2 340/467/2 344/469/2 343/470/2
f 343/470/4 344/469/4 342/471/4 341/472/4
f 341/473/5 342/460/5 338/466/5 337/465/5
f 339/474/7 343/475/7 341/141/7 337/476/7
f 352/477/26 348/478/26 346/479/26 350/480/26
f 349/481/5 350/482/5 346/483/5 345/484/5
f 347/484/2 348/483/2 352/482/2 351/481/2
f 351/477/7 349/480/7 345/479/7 347/478/7
f 353/485/1 354/486/1 356/487/1 355/488/1
f 355/489/26 356/490/26 360/491/26 359/492/26
f 359/488/4 360/487/4 358/486/4 357/485/4
f 357/492/7 358/493/7 354/490/7 353/489/7
f 355/494/2 359/495/2 357/496/2 353/497/2
f 368/498/26 364/499/26 362/500/26 366/501/26
f 365/502/5 366/503/5 362/504/5 361/505/5
f 363/505/2 364/504/2 368/506/2 367/502/2
f 367/498/7 365/501/7 361/500/7 363/499/7
f 376/507/1 374/508/1 370/509/1 372/510/1
f 372/511/26 370/512/26 369/513/26 371/514/26
f 371/515/4 369/509/4 373/508/4 375/516/4
f 375/514/7 373/517/7 374/518/7 376/511/7
f 372/519/2 371/520/2 375/521/2 376/522/2
f 382/515/4 384/509/4 380/508/4 378/516/4
f 381/523/2 382/524/2 378/525/2 377/526/2
f 378/527/7 380/528/7 379/529/7 377/530/7
f 377/507/1 379/508/1 383/509/1 381/510/1
f 381/530/26 383/531/26 384/532/26 382/527/26
f 392/507/1 390/508/1 386/509/1 388/510/1
f 388/533/26 386/534/26 385/535/26 387/536/26
f 387/515/4 385/509/4 389/508/4 391/516/4
f 391/536/7 389/537/7 390/538/7 392/533/7
f 388/539/2 387/540/2 391/541/2 392/542/2
f 398/515/4 400/509/4 396/508/4 394/516/4
f 397/543/2 398/544/2 394/545/2 393/546/2
f 394/547/7 396/548/7 395/549/7 393/550/7
f 393/507/1 395/508/1 399/509/1 397/510/1
f 397/550/26 399/551/26 400/552/26 398/547/26
f 408/507/1 406/508/1 402/509/1 404/510/1
f 404/553/26 402/554/26 401/555/26 403/556/26
f 403/515/4 401/509/4 405/508/4 407/516/4
f 407/556/7 405/557/7 406/558/7 408/553/7
f 404/559/2 403/560/2 407/561/2 408/562/2
f 414/515/4 416/509/4 412/508/4 410/516/4
f 413/563/2 414/564/2 410/565/2 409/566/2
f 410/567/7 412/568/7 411/569/7 409/570/7
f 409/507/1 411/508/1 415/509/1 413/510/1
f 413/570/26 415/571/26 416/572/26 414/567/26
f 424/507/1 422/508/1 418/509/1 420/510/1
f 420/573/26 418/574/26 417/575/26 419/576/26
f 419/515/4 417/509/4 421/508/4 423/516/4
f 423/576/7 421/577/7 422/578/7 424/573/7
f 420/579/2 419/580/2 423/581/2 424/582/2
f 430/515/4 432/509/4 428/508/4 426/516/4
f 429/583/2 430/584/2 426/585/2 425/586/2
f 426/587/7 428/588/7 427/589/7 425/590/7
f 425/507/1 427/508/1 431/509/1 429/510/1
f 429/590/26 431/591/26 432/592/26 430/587/26
f 440/507/1 438/508/1 434/509/1 436/510/1
f 436/593/26 434/594/26 433/595/26 435/596/26
f 435/515/4 433/509/4 437/508/4 439/516/4
f 439/596/7 437/597/7 438/598/7 440/593/7
f 436/599/2 435/600/2 439/601/2 440/602/2
f 446/515/4 448/509/4 444/508/4 442/516/4
f 445/603/2 446/604/2 442/605/2 441/606/2
f 442/607/7 444/608/7 443/609/7 441/610/7
f 441/507/1 443/508/1 447/509/1 445/510/1
f 445/610/26 447/611/26 448/612/26 446/607/26
f 456/507/1 454/508/1 450/509/1 452/510/1
f 452/613/26 450/614/26 449/615/26 451/616/26
f 451/515/4 449/509/4 453/508/4 455/516/4
f 455/616/7 453/617/7 454/618/7 456/613/7
f 452/619/2 451/620/2 455/621/2 456/622/2
f 462/515/4 464/509/4 460/508/4 458/516/4
f 461/623/2 462/624/2 458/625/2 457/626/2
f 458/627/7 460/628/7 459/629/7 457/630/7
f 457/507/1 459/508/1 463/509/1 461/510/1
f 461/630/26 463/631/26 464/632/26 462/627/26
f 472/507/1 470/508/1 466/509/1 468/510/1
f 468/633/26 466/634/26 465/635/26 467/636/26
f 467/515/4 465/509/4 469/508/4 471/516/4
f 471/636/7 469/637/7 470/638/7 472/633/7
f 468/639/2 467/640/2 471/641/2 472/642/2
f 478/515/4 480/509/4 476/508/4 474/516/4
f 477/643/2 478/644/2 474/645/2 473/646/2
f 474/647/7 476/648/7 475/649/7 473/650/7
f 473/507/1 475/508/1 479/509/1 477/510/1
f 477/650/26 479/651/26 480/652/26 478/647/26
f 488/477/26 484/478/26 482/479/26 486/480/26
f 485/481/5 486/482/5 482/483/5 481/484/5
f 483/484/2 484/483/2 488/482/2 487/481/2
f 487/477/7 485/480/7 481/479/7 483/478/7
f 489/485/1 490/486/1 492/487/1 491/488/1
f 491/489/26 492/490/26 496/491/26 495/492/26
f 495/488/4 496/487/4 494/486/4 493/485/4
f 493/492/7 494/493/7 490/490/7 489/489/7
f 491/494/2 495/495/2 493/496/2 489/497/2
f 504/498/26 500/499/26 498/500/26 502/501/26
f 501/502/5 502/503/5 498/504/5 497/505/5
f 499/505/2 500/504/2 504/506/2 503/502/2
f 503/498/7 501/501/7 497/500/7 499/499/7
f 512/507/1 510/508/1 506/509/1 508/510/1
f 508/511/26 506/512/26 505/513/26 507/514/26
f 507/515/4 505/509/4 509/508/4 511/516/4
f 511/514/7 509/517/7 510/518/7 512/511/7
f 508/519/2 507/520/2 511/521/2 512/522/2
f 518/515/4 520/509/4 516/508/4 514/516/4
f 517/523/2 518/524/2 514/525/2 513/526/2
f 514/527/7 516/528/7 515/529/7 513/530/7
f 513/507/1 515/508/1 519/509/1 517/510/1
f 517/530/26 519/531/26 520/532/26 518/527/26
f 528/507/1 526/508/1 522/509/1 524/510/1
f 524/533/26 522/534/26 521/535/26 523/536/26
f 523/515/4 521/509/4 525/508/4 527/516/4
f 527/536/7 525/537/7 526/538/7 528/533/7
f 524/539/2 523/540/2 527/541/2 528/542/2
f 534/515/4 536/509/4 532/508/4 530/516/4
f 533/543/2 534/544/2 530/545/2 529/546/2
f 530/547/7 532/548/7 531/549/7 529/550/7
f 529/507/1 531/508/1 535/509/1 533/510/1
f 533/550/26 535/551/26 536/552/26 534/547/26
f 544/507/1 542/508/1 538/509/1 540/510/1
f 540/553/26 538/554/26 537/555/26 539/556/26
f 539/515/4 537/509/4 541/508/4 543/516/4
f 543/556/7 541/557/7 542/558/7 544/553/7
f 540/559/2 539/560/2 543/561/2 544/562/2
f 550/515/4 552/509/4 548/508/4 546/516/4
f 549/563/2 550/564/2 546/565/2 545/566/2
f 546/567/7 548/568/7 547/569/7 545/570/7
f 545/507/1 547/508/1 551/509/1 549/510/1
f 549/570/26 551/571/26 552/572/26 550/567/26
f 560/507/1 558/508/1 554/509/1 556/510/1
f 556/573/26 554/574/26 553/575/26 555/576/26
f 555/515/4 553/509/4 557/508/4 559/516/4
f 559/576/7 557/577/7 558/578/7 560/573/7
f 556/579/2 555/580/2 559/581/2 560/582/2
f 566/515/4 568/509/4 564/508/4 562/516/4
f 565/583/2 566/584/2 562/585/2 561/586/2
f 562/587/7 564/588/7 563/589/7 561/590/7
f 561/507/1 563/508/1 567/509/1 565/510/1
f 565/590/26 567/591/26 568/592/26 566/587/26
f 576/507/1 574/508/1 570/509/1 572/510/1
f 572/593/26 570/594/26 569/595/26 571/596/26
f 571/515/4 569/509/4 573/508/4 575/516/4
f 575/596/7 573/597/7 574/598/7 576/593/7
f 572/599/2 571/600/2 575/601/2 576/602/2
f 582/515/4 584/509/4 580/508/4 578/516/4
f 581/603/2 582/604/2 578/605/2 577/606/2
f 578/607/7 580/608/7 579/609/7 577/610/7
f 577/507/1 579/508/1 583/509/1 581/510/1
f 581/610/26 583/611/26 584/612/26 582/607/26
f 592/507/1 590/508/1 586/509/1 588/510/1
f 588/613/26 586/614/26 585/615/26 587/616/26
f 587/515/4 585/509/4 589/508/4 591/516/4
f 591/616/7 589/617/7 590/618/7 592/613/7
f 588/619/2 587/620/2 591/621/2 592/622/2
f 598/515/4 600/509/4 596/508/4 594/516/4
f 597/623/2 598/624/2 594/625/2 593/626/2
f 594/627/7 596/628/7 595/629/7 593/630/7
f 593/507/1 595/508/1 599/509/1 597/510/1
f 597/630/26 599/631/26 600/632/26 598/627/26
f 608/507/1 606/508/1 602/509/1 604/510/1
f 604/633/26 602/634/26 601/635/26 603/636/26
f 603/515/4 601/509/4 605/508/4 607/516/4
f 607/636/7 605/637/7 606/638/7 608/633/7
f 604/639/2 603/640/2 607/641/2 608/642/2
f 614/515/4 616/509/4 612/508/4 610/516/4
f 613/643/2 614/644/2 610/645/2 609/646/2
f 610/647/7 612/648/7 611/649/7 609/650/7
f 609/507/1 611/508/1 615/509/1 613/510/1
f 613/650/26 615/651/26 616/652/26 614/647/26
f 624/653/5 620/654/5 618/655/5 622/656/5
f 621/657/4 622/658/4 618/659/4 617/660/4
f 619/660/1 620/659/1 624/658/1 623/657/1
f 623/653/2 621/656/2 617/655/2 619/654/2
f 632/661/5 628/662/5 626/663/5 630/664/5
f 629/665/4 630/658/4 626/659/4 625/666/4
f 627/666/1 628/659/1 632/658/1 631/665/1
f 631/661/2 629/664/2 625/663/2 627/662/2
f 638/667/26 640/668/26 636/669/26 634/670/26
f 634/671/2 636/672/2 635/673/2 633/674/2
f 633/670/7 635/669/7 639/668/7 637/667/7
f 637/674/5 639/673/5 640/672/5 638/671/5
f 646/667/26 648/668/26 644/669/26 642/670/26
f 642/675/2 644/676/2 643/677/2 641/678/2
f 641/670/7 643/669/7 647/668/7 645/667/7
f 645/678/5 647/677/5 648/676/5 646/675/5
f 654/667/26 656/668/26 652/669/26 650/670/26
f 650/679/2 652/680/2 651/681/2 649/682/2
f 649/670/7 651/669/7 655/668/7 653/667/7
f 653/682/5 655/681/5 656/680/5 654/679/5
f 659/667/26 657/668/26 661/669/26 663/670/26
f 664/670/7 662/669/7 658/668/7 660/667/7
f 663/683/2 661/684/2 662/685/2 664/686/2
f 660/687/5 658/688/5 657/689/5 659/683/5
f 621/690/26 623/691/26 624/692/26 622/693/26
f 629/694/26 631/695/26 632/696/26 630/697/26
f 619/698/7 617/699/7 618/700/7 620/701/7
f 627/702/7 625/703/7 626/704/7 628/705/7
usemtl old_mattress_mp_1
f 760/706/31 752/707/32 670/708/33 732/709/34
f 818/710/35 812/711/36 686/712/37 714/713/38
f 796/714/39 677/715/40 679/716/26 680/717/26 678/718/41
f 816/719/42 811/720/43 678/721/44 726/722/45
f 798/723/7 768/724/7 689/725/7 797/726/7
f 732/709/34 670/708/33 672/727/46 698/728/47
f 742/729/48 671/730/49 669/731/50 701/732/51
f 703/733/52 674/734/53 676/735/54 704/736/55
f 704/737/55 676/738/54 675/739/56 705/740/57
f 705/740/57 675/739/56 673/741/58 706/742/59
f 736/743/60 690/744/61 692/745/62 707/746/63
f 707/747/63 692/745/62 691/748/64 708/749/65
f 708/750/65 691/751/64 689/752/66 709/753/67
f 710/754/68 682/755/69 684/751/70 718/756/71
f 718/757/71 684/758/70 683/759/72 712/760/73
f 712/761/73 683/759/72 681/762/74 713/763/75
f 797/726/7 689/725/7 691/764/7 692/765/7 690/766/7
f 698/767/47 672/768/46 671/730/49 742/729/48
f 667/769/76 699/770/77 700/771/78 668/772/79
f 688/773/80 716/774/81 714/775/38 686/712/37
f 687/776/82 711/777/83 716/778/81 688/773/80
f 685/779/84 734/780/85 711/781/83 687/782/82
f 696/782/86 722/783/87 720/784/88 694/785/89
f 695/786/90 724/787/91 722/788/87 696/789/86
f 693/790/92 737/791/93 724/792/91 695/786/90
f 680/793/94 728/794/95 726/722/45 678/721/44
f 679/795/96 730/796/97 728/794/95 680/793/94
f 677/797/98 739/798/99 730/799/97 679/800/96
f 668/772/79 700/771/78 702/801/100 666/802/101
f 665/803/102 697/804/103 699/805/77 667/806/76
f 809/807/104 813/808/105 706/742/59 673/741/58
f 810/809/106 817/810/107 713/811/75 681/762/74
f 748/812/108 756/813/109 697/804/103 665/803/102
f 760/814/31 732/709/34 733/815/110 761/816/111
f 761/817/111 733/815/110 697/804/103 756/818/109
f 818/710/35 714/819/38 715/820/112 814/821/113
f 814/821/113 715/820/112 713/822/75 817/810/107
f 816/719/42 726/722/45 727/823/114 815/824/115
f 815/824/115 727/823/114 706/742/59 813/808/105
f 732/709/34 698/728/47 744/825/116 733/815/110
f 733/815/110 744/825/116 699/805/77 697/804/103
f 742/729/48 701/732/51 741/826/117 743/827/118
f 743/827/118 741/826/117 702/801/100 700/771/78
f 703/733/52 704/736/55 731/828/119 740/829/120
f 740/829/120 731/828/119 730/799/97 739/798/99
f 704/737/55 705/740/57 729/830/121 731/831/119
f 731/831/119 729/830/121 728/794/95 730/796/97
f 705/740/57 706/742/59 727/823/114 729/830/121
f 729/830/121 727/823/114 726/722/45 728/794/95
f 736/832/60 707/833/63 725/834/122 738/835/123
f 738/835/123 725/834/122 724/836/91 737/837/93
f 707/838/63 708/839/65 723/840/124 725/841/122
f 725/841/122 723/840/124 722/842/87 724/843/91
f 708/750/65 709/753/67 721/844/125 723/845/124
f 723/845/124 721/844/125 720/784/88 722/783/87
f 710/754/68 718/756/71 719/845/126 735/846/127
f 735/846/127 719/845/126 711/781/83 734/780/85
f 718/847/71 712/848/73 717/849/128 719/850/126
f 719/850/126 717/849/128 716/851/81 711/852/83
f 712/853/73 713/854/75 715/820/112 717/855/128
f 717/855/128 715/820/112 714/856/38 716/857/81
f 698/767/47 742/729/48 743/827/118 744/858/116
f 744/858/116 743/827/118 700/771/78 699/770/77
f 781/859/129 721/844/125 709/753/67 776/860/130
f 780/861/131 720/784/88 721/844/125 781/859/129
f 776/862/130 709/753/67 689/752/66 768/863/132
f 673/864/7 675/717/7 676/865/7 674/866/7 802/867/7
f 769/868/133 694/785/89 720/784/88 780/869/131
f 686/870/134 785/871/135 685/872/136 687/873/26 688/874/26
f 795/875/137 772/876/138 677/715/40 796/714/39
f 791/877/139 694/878/140 769/724/141 792/879/142
f 792/880/142 769/881/141 770/882/143 793/883/144
f 793/883/144 770/882/143 771/884/26 794/885/145
f 794/886/145 771/887/26 772/888/138 795/889/137
f 677/797/98 772/890/146 777/891/147 739/798/99
f 772/892/146 771/893/148 778/894/149 777/895/147
f 771/893/148 770/896/150 779/897/151 778/894/149
f 770/898/150 769/868/133 780/899/131 779/900/151
f 703/733/52 773/901/152 765/902/153 674/734/53
f 773/903/152 774/904/154 766/905/155 765/906/153
f 774/907/154 775/908/156 767/909/157 766/910/155
f 775/908/156 776/862/130 768/863/132 767/911/157
f 739/798/99 777/912/147 784/913/158 740/829/120
f 777/895/147 778/914/149 783/915/159 784/916/158
f 778/894/149 779/897/151 782/917/160 783/915/159
f 779/897/151 780/918/131 781/859/129 782/919/160
f 740/829/120 784/913/158 773/920/152 703/733/52
f 784/913/158 783/915/159 774/921/154 773/903/152
f 783/922/159 782/923/160 775/908/156 774/907/154
f 782/919/160 781/924/129 776/862/130 775/908/156
f 735/846/127 764/925/161 753/926/162 710/754/68
f 764/927/161 763/928/163 754/929/164 753/930/162
f 763/931/163 762/932/165 755/933/166 754/929/164
f 762/934/165 761/816/111 756/935/109 755/936/166
f 734/780/85 757/937/167 764/925/161 735/846/127
f 757/938/167 758/939/168 763/928/163 764/925/161
f 758/939/168 759/940/169 762/934/165 763/941/163
f 759/942/169 760/943/31 761/944/111 762/934/165
f 682/755/69 710/754/68 753/930/162 745/945/170
f 745/945/170 753/930/162 754/946/164 746/947/171
f 746/947/171 754/929/164 755/933/166 747/948/172
f 747/949/172 755/950/166 756/935/109 748/951/108
f 802/867/7 674/866/7 765/952/7 801/953/7
f 801/954/7 765/955/7 766/956/7 800/957/7
f 800/958/7 766/959/7 767/960/7 799/961/7
f 799/962/7 767/963/7 768/881/7 798/964/7
f 734/780/85 685/779/84 749/965/173 757/966/167
f 757/967/167 749/965/173 750/968/174 758/969/168
f 758/939/168 750/968/174 751/970/175 759/940/169
f 759/940/169 751/971/175 752/707/32 760/943/31
f 752/972/176 789/973/177 790/974/178 670/975/179
f 751/976/26 788/977/180 789/973/177 752/978/176
f 750/979/181 787/980/182 788/977/180 751/981/26
f 749/982/183 786/983/184 787/984/182 750/985/181
f 685/872/136 785/871/135 786/983/184 749/986/183
f 693/987/185 695/765/26 696/764/26 694/878/140 791/877/139
f 670/975/179 790/974/178 669/988/186 671/989/26 672/990/26
f 823/991/187 795/875/137 796/714/39 824/992/188
f 822/993/26 794/886/145 795/889/137 823/991/187
f 821/994/189 793/883/144 794/885/145 822/993/26
f 820/995/190 792/880/142 793/883/144 821/994/189
f 819/996/191 791/877/139 792/879/142 820/995/190
f 812/997/192 693/987/185 791/877/139 819/996/191
f 824/992/188 796/714/39 678/718/41 811/998/193
f 830/992/7 802/867/7 801/953/7 829/999/7
f 829/999/7 801/954/7 800/957/7 828/1000/7
f 828/1000/7 800/958/7 799/961/7 827/1001/7
f 827/1001/7 799/962/7 798/964/7 826/1002/7
f 826/1002/7 798/723/7 797/726/7 825/1003/7
f 825/1003/7 797/726/7 690/766/7 810/1004/7
f 809/1005/7 673/864/7 802/867/7 830/992/7
f 665/1006/7 808/1007/7 807/1008/7 748/1009/7
f 748/1010/7 807/1011/7 806/1012/7 747/1013/7
f 747/1014/7 806/1015/7 805/1016/7 746/1017/7
f 746/1017/7 805/1016/7 804/1018/7 745/982/7
f 745/986/7 804/1018/7 803/1019/7 682/1020/7
f 682/1020/7 803/1019/7 681/1021/7 683/874/7 684/1022/7
f 668/1023/7 666/1024/7 808/1007/7 665/1006/7 667/1025/7
f 666/1024/7 809/1005/7 830/992/7 808/1007/7
f 803/1019/7 825/1003/7 810/1004/7 681/1021/7
f 804/1018/7 826/1002/7 825/1003/7 803/1019/7
f 805/1016/7 827/1001/7 826/1002/7 804/1018/7
f 806/1015/7 828/1000/7 827/1001/7 805/1016/7
f 807/1011/7 829/999/7 828/1000/7 806/1012/7
f 808/1007/7 830/992/7 829/999/7 807/1008/7
f 790/974/178 824/992/188 811/998/193 669/988/186
f 686/870/134 812/997/192 819/996/191 785/871/135
f 785/871/135 819/996/191 820/995/190 786/983/184
f 786/983/184 820/995/190 821/994/189 787/984/182
f 787/980/182 821/994/189 822/993/26 788/977/180
f 788/977/180 822/993/26 823/991/187 789/973/177
f 789/973/177 823/991/187 824/992/188 790/974/178
f 741/826/117 815/824/115 813/808/105 702/801/100
f 701/732/51 816/719/42 815/824/115 741/826/117
f 738/835/123 814/821/113 817/810/107 736/1026/60
f 737/1027/93 818/710/35 814/821/113 738/835/123
f 690/744/61 736/1028/60 817/810/107 810/809/106
f 666/802/101 702/801/100 813/808/105 809/807/104
f 701/732/51 669/731/50 811/720/43 816/719/42
f 737/1029/93 693/790/92 812/711/36 818/710/35
f 926/706/31 918/707/32 836/708/33 898/709/34
f 984/710/35 978/711/194 852/712/37 880/713/38
f 962/714/39 843/715/40 845/716/26 846/717/26 844/718/41
f 982/719/42 977/720/43 844/721/44 892/722/45
f 964/723/7 934/724/7 855/725/7 963/726/7
f 898/709/34 836/708/33 838/727/46 864/728/47
f 908/729/48 837/730/49 835/731/50 867/732/51
f 869/733/52 840/734/53 842/735/54 870/736/55
f 870/737/55 842/738/54 841/739/56 871/740/57
f 871/740/57 841/739/56 839/741/58 872/742/59
f 902/743/60 856/744/61 858/745/62 873/746/63
f 873/747/63 858/745/62 857/748/64 874/749/65
f 874/750/65 857/751/64 855/752/66 875/753/67
f 876/754/68 848/755/69 850/751/70 884/756/71
f 884/757/71 850/758/70 849/759/72 878/760/73
f 878/761/73 849/759/72 847/762/74 879/763/75
f 963/726/7 855/725/7 857/764/7 858/765/7 856/766/7
f 864/767/47 838/768/46 837/730/49 908/729/48
f 833/769/76 865/770/77 866/771/78 834/772/79
f 854/773/80 882/774/81 880/775/38 852/712/37
f 853/776/82 877/777/83 882/778/81 854/773/80
f 851/779/84 900/780/85 877/781/83 853/782/82
f 862/782/86 888/783/87 886/784/88 860/785/89
f 861/786/90 890/787/91 888/788/87 862/789/86
f 859/790/92 903/791/93 890/792/91 861/786/90
f 846/793/94 894/794/95 892/722/45 844/721/44
f 845/795/96 896/796/97 894/794/95 846/793/94
f 843/797/98 905/798/99 896/799/97 845/800/96
f 834/772/79 866/771/78 868/801/100 832/802/101
f 831/803/102 863/804/103 865/805/77 833/806/76
f 975/807/104 979/808/105 872/742/59 839/741/58
f 976/809/106 983/810/107 879/811/75 847/762/74
f 914/812/108 922/813/109 863/804/103 831/803/102
f 926/814/31 898/709/34 899/815/110 927/816/111
f 927/817/111 899/815/110 863/804/103 922/818/109
f 984/710/35 880/819/38 881/820/112 980/821/113
f 980/821/113 881/820/112 879/822/75 983/810/107
f 982/719/42 892/722/45 893/823/114 981/824/115
f 981/824/115 893/823/114 872/742/59 979/808/105
f 898/709/34 864/728/47 910/825/116 899/815/110
f 899/815/110 910/825/116 865/805/77 863/804/103
f 908/729/48 867/732/51 907/826/117 909/827/118
f 909/827/118 907/826/117 868/801/100 866/771/78
f 869/733/52 870/736/55 897/828/119 906/829/120
f 906/829/120 897/828/119 896/799/97 905/798/99
f 870/737/55 871/740/57 895/830/121 897/831/119
f 897/831/119 895/830/121 894/794/95 896/796/97
f 871/740/57 872/742/59 893/823/114 895/830/121
f 895/830/121 893/823/114 892/722/45 894/794/95
f 902/832/60 873/833/63 891/834/122 904/835/123
f 904/835/123 891/834/122 890/836/91 903/837/93
f 873/838/63 874/839/65 889/840/124 891/841/122
f 891/841/122 889/840/124 888/842/87 890/843/91
f 874/750/65 875/753/67 887/844/125 889/845/124
f 889/845/124 887/844/125 886/784/88 888/783/87
f 876/754/68 884/756/71 885/845/126 901/846/127
f 901/846/127 885/845/126 877/781/83 900/780/85
f 884/847/71 878/848/73 883/849/128 885/850/126
f 885/850/126 883/849/128 882/851/81 877/852/83
f 878/853/73 879/854/75 881/820/112 883/855/128
f 883/855/128 881/820/112 880/856/38 882/857/81
f 864/767/47 908/729/48 909/827/118 910/858/116
f 910/858/116 909/827/118 866/771/78 865/770/77
f 947/859/129 887/844/125 875/753/67 942/860/130
f 946/861/131 886/784/88 887/844/125 947/859/129
f 942/862/130 875/753/67 855/752/66 934/863/132
f 839/864/7 841/717/7 842/865/7 840/866/7 968/867/7
f 935/868/133 860/785/89 886/784/88 946/869/131
f 852/870/134 951/871/135 851/872/136 853/873/26 854/874/26
f 961/875/137 938/876/138 843/715/40 962/714/39
f 957/877/139 860/878/140 935/724/141 958/879/142
f 958/880/142 935/881/141 936/882/143 959/883/144
f 959/883/144 936/882/143 937/884/26 960/885/145
f 960/886/145 937/887/26 938/888/138 961/889/137
f 843/797/98 938/890/146 943/891/147 905/798/99
f 938/892/146 937/893/148 944/894/149 943/895/147
f 937/893/148 936/896/150 945/897/151 944/894/149
f 936/898/150 935/868/133 946/899/131 945/900/151
f 869/733/52 939/901/152 931/902/153 840/734/53
f 939/903/152 940/904/154 932/905/155 931/906/153
f 940/907/154 941/908/156 933/909/157 932/910/155
f 941/908/156 942/862/130 934/863/132 933/911/157
f 905/798/99 943/912/147 950/913/158 906/829/120
f 943/895/147 944/914/149 949/915/159 950/916/158
f 944/894/149 945/897/151 948/917/160 949/915/159
f 945/897/151 946/918/131 947/859/129 948/919/160
f 906/829/120 950/913/158 939/920/152 869/733/52
f 950/913/158 949/915/159 940/921/154 939/903/152
f 949/922/159 948/923/160 941/908/156 940/907/154
f 948/919/160 947/924/129 942/862/130 941/908/156
f 901/846/127 930/925/161 919/926/162 876/754/68
f 930/927/161 929/928/163 920/929/164 919/930/162
f 929/931/163 928/932/165 921/933/166 920/929/164
f 928/934/165 927/816/111 922/935/109 921/936/166
f 900/780/85 923/937/167 930/925/161 901/846/127
f 923/938/167 924/939/168 929/928/163 930/925/161
f 924/939/168 925/940/169 928/934/165 929/941/163
f 925/942/169 926/943/31 927/944/111 928/934/165
f 848/755/69 876/754/68 919/930/162 911/945/170
f 911/945/170 919/930/162 920/946/164 912/947/171
f 912/947/171 920/929/164 921/933/166 913/948/172
f 913/949/172 921/950/166 922/935/109 914/951/108
f 968/867/7 840/866/7 931/952/7 967/953/7
f 967/954/7 931/955/7 932/956/7 966/957/7
f 966/958/7 932/959/7 933/960/7 965/961/7
f 965/962/7 933/963/7 934/881/7 964/964/7
f 900/780/85 851/779/84 915/965/173 923/966/167
f 923/967/167 915/965/173 916/968/174 924/969/168
f 924/939/168 916/968/174 917/970/175 925/940/169
f 925/940/169 917/971/175 918/707/32 926/943/31
f 918/972/176 955/973/177 956/974/178 836/975/179
f 917/976/26 954/977/180 955/973/177 918/978/176
f 916/979/181 953/980/182 954/977/180 917/981/26
f 915/982/183 952/983/184 953/984/182 916/985/181
f 851/872/136 951/871/135 952/983/184 915/986/183
f 859/987/185 861/765/26 862/764/26 860/878/140 957/877/139
f 836/975/179 956/974/178 835/988/186 837/989/26 838/990/26
f 989/991/187 961/875/137 962/714/39 990/992/188
f 988/993/26 960/886/145 961/889/137 989/991/187
f 987/994/189 959/883/144 960/885/145 988/993/26
f 986/995/190 958/880/142 959/883/144 987/994/189
f 985/996/191 957/877/139 958/879/142 986/995/190
f 978/997/192 859/987/185 957/877/139 985/996/191
f 990/992/188 962/714/39 844/718/41 977/998/193
f 996/992/7 968/867/7 967/953/7 995/999/7
f 995/999/7 967/954/7 966/957/7 994/1000/7
f 994/1000/7 966/958/7 965/961/7 993/1001/7
f 993/1001/7 965/962/7 964/964/7 992/1002/7
f 992/1002/7 964/723/7 963/726/7 991/1003/7
f 991/1003/7 963/726/7 856/766/7 976/1004/7
f 975/1005/7 839/864/7 968/867/7 996/992/7
f 831/1006/7 974/1007/7 973/1008/7 914/1009/7
f 914/1010/7 973/1011/7 972/1012/7 913/1013/7
f 913/1014/7 972/1015/7 971/1016/7 912/1017/7
f 912/1017/7 971/1016/7 970/1018/7 911/982/7
f 911/986/7 970/1018/7 969/1019/7 848/1020/7
f 848/1020/7 969/1019/7 847/1021/7 849/874/7 850/1022/7
f 834/1023/7 832/1024/7 974/1007/7 831/1006/7 833/1025/7
f 832/1024/7 975/1005/7 996/992/7 974/1007/7
f 969/1019/7 991/1003/7 976/1004/7 847/1021/7
f 970/1018/7 992/1002/7 991/1003/7 969/1019/7
f 971/1016/7 993/1001/7 992/1002/7 970/1018/7
f 972/1015/7 994/1000/7 993/1001/7 971/1016/7
f 973/1011/7 995/999/7 994/1000/7 972/1012/7
f 974/1007/7 996/992/7 995/999/7 973/1008/7
f 956/974/178 990/992/188 977/998/193 835/988/186
f 852/870/134 978/997/192 985/996/191 951/871/135
f 951/871/135 985/996/191 986/995/190 952/983/184
f 952/983/184 986/995/190 987/994/189 953/984/182
f 953/980/182 987/994/189 988/993/26 954/977/180
f 954/977/180 988/993/26 989/991/187 955/973/177
f 955/973/177 989/991/187 990/992/188 956/974/178
f 907/826/117 981/824/115 979/808/105 868/801/100
f 867/732/51 982/719/42 981/824/115 907/826/117
f 904/835/123 980/821/113 983/810/107 902/1026/60
f 903/1027/93 984/710/35 980/821/113 904/835/123
f 856/744/61 902/1028/60 983/810/107 976/809/106
f 832/802/101 868/801/100 979/808/105 975/807/104
f 867/732/51 835/731/50 977/720/43 982/719/42
f 903/1029/93 859/790/92 978/711/194 984/710/35
