# Blender 5.0.1
# www.blender.org
mtllib bed_1_frame.mtl
o bed_1_frame
v -1.310000 0.590000 0.685000
v -1.310000 0.620000 0.685000
v -1.310000 0.590000 0.675000
v -1.310000 0.620000 0.675000
v 1.310000 0.590000 0.685000
v 1.310000 0.620000 0.685000
v 1.310000 0.590000 0.675000
v 1.310000 0.620000 0.675000
v 1.310000 0.000000 0.700000
v 1.310000 1.100000 0.700000
v 1.310000 0.000000 0.660000
v 1.310000 1.100000 0.660000
v 1.350000 0.000000 0.700000
v 1.350000 1.100000 0.700000
v 1.350000 0.000000 0.660000
v 1.350000 1.100000 0.660000
v 1.310000 1.165056 0.687059
v 1.310000 1.149749 0.650104
v 1.350000 1.165056 0.687059
v 1.350000 1.149749 0.650104
v 1.310000 1.220208 0.650208
v 1.310000 1.191924 0.621924
v 1.350000 1.220208 0.650208
v 1.350000 1.191924 0.621924
v 1.310000 1.257059 0.595056
v 1.310000 1.220104 0.579749
v 1.350000 1.257059 0.595056
v 1.350000 1.220104 0.579749
v 1.310000 1.270000 0.530000
v 1.310000 1.230000 0.530000
v 1.350000 1.270000 0.530000
v 1.350000 1.230000 0.530000
v 1.350001 0.000000 -0.700000
v 1.350001 1.100000 -0.700000
v 1.350001 0.000000 -0.660000
v 1.350001 1.100000 -0.660000
v 1.310001 0.000000 -0.700000
v 1.310001 1.100000 -0.700000
v 1.310001 0.000000 -0.660000
v 1.310001 1.100000 -0.660000
v 1.350001 1.165056 -0.687059
v 1.350001 1.149749 -0.650104
v 1.310001 1.165056 -0.687059
v 1.310001 1.149749 -0.650104
v 1.350001 1.220208 -0.650208
v 1.350001 1.191924 -0.621924
v 1.310001 1.220208 -0.650208
v 1.310001 1.191924 -0.621924
v 1.350001 1.257059 -0.595056
v 1.350001 1.220104 -0.579748
v 1.310001 1.257059 -0.595056
v 1.310001 1.220104 -0.579748
v 1.350001 1.270000 -0.530000
v 1.350001 1.230000 -0.530000
v 1.310001 1.270000 -0.530000
v 1.310001 1.230000 -0.530000
v 1.315001 0.590000 -0.660000
v 1.315001 0.590000 0.660000
v 1.315001 0.620000 -0.660000
v 1.315001 0.620000 0.660000
v 1.345001 0.590000 -0.660000
v 1.345001 0.590000 0.660000
v 1.345001 0.620000 -0.660000
v 1.345001 0.620000 0.660000
v 1.320000 0.620000 -0.490000
v 1.320000 1.230000 -0.490000
v 1.320000 0.620000 -0.510000
v 1.320000 1.230000 -0.510000
v 1.340000 0.620000 -0.490000
v 1.340000 1.230000 -0.490000
v 1.340000 0.620000 -0.510000
v 1.340000 1.230000 -0.510000
v 1.320000 0.620000 -0.290000
v 1.320000 1.230000 -0.290000
v 1.320000 0.620000 -0.310000
v 1.320000 1.230000 -0.310000
v 1.340000 0.620000 -0.290000
v 1.340000 1.230000 -0.290000
v 1.340000 0.620000 -0.310000
v 1.340000 1.230000 -0.310000
v 1.320000 0.620000 -0.090000
v 1.320000 1.230000 -0.090000
v 1.320000 0.620000 -0.110000
v 1.320000 1.230000 -0.110000
v 1.340000 0.620000 -0.090000
v 1.340000 1.230000 -0.090000
v 1.340000 0.620000 -0.110000
v 1.340000 1.230000 -0.110000
v 1.320000 0.620000 0.110000
v 1.320000 1.230000 0.110000
v 1.320000 0.620000 0.090000
v 1.320000 1.230000 0.090000
v 1.340000 0.620000 0.110000
v 1.340000 1.230000 0.110000
v 1.340000 0.620000 0.090000
v 1.340000 1.230000 0.090000
v 1.320000 0.620000 0.310000
v 1.320000 1.230000 0.310000
v 1.320000 0.620000 0.290000
v 1.320000 1.230000 0.290000
v 1.340000 0.620000 0.310000
v 1.340000 1.230000 0.310000
v 1.340000 0.620000 0.290000
v 1.340000 1.230000 0.290000
v 1.320000 0.620000 0.510000
v 1.320000 1.230000 0.510000
v 1.320000 0.620000 0.490000
v 1.320000 1.230000 0.490000
v 1.340000 0.620000 0.510000
v 1.340000 1.230000 0.510000
v 1.340000 0.620000 0.490000
v 1.340000 1.230000 0.490000
v -1.350001 0.000000 0.700000
v -1.350001 0.630000 0.700000
v -1.350001 0.000000 0.660000
v -1.350001 0.630000 0.660000
v -1.310001 0.000000 0.700000
v -1.310001 0.630000 0.700000
v -1.310001 0.000000 0.660000
v -1.310001 0.630000 0.660000
v -1.310000 0.000000 -0.700000
v -1.310000 0.630000 -0.700000
v -1.310000 0.000000 -0.660000
v -1.310000 0.630000 -0.660000
v -1.350000 0.000000 -0.700000
v -1.350000 0.630000 -0.700000
v -1.350000 0.000000 -0.660000
v -1.350000 0.630000 -0.660000
v -1.335000 0.590000 -0.660000
v -1.335000 0.590000 0.660000
v -1.335000 0.620000 -0.660000
v -1.335000 0.620000 0.660000
v -1.325000 0.590000 -0.660000
v -1.325000 0.590000 0.660000
v -1.325000 0.620000 -0.660000
v -1.325000 0.620000 0.660000
v -1.310000 0.590000 -0.675000
v -1.310000 0.620000 -0.675000
v -1.310000 0.590000 -0.685000
v -1.310000 0.620000 -0.685000
v 1.310000 0.590000 -0.675000
v 1.310000 0.620000 -0.675000
v 1.310000 0.590000 -0.685000
v 1.310000 0.620000 -0.685000
v -1.235000 0.610000 0.675000
v -1.265000 0.610000 0.675000
v -1.235000 0.610000 -0.675000
v -1.265000 0.610000 -0.675000
v -1.235000 0.600000 0.675000
v -1.265000 0.600000 0.675000
v -1.235000 0.600000 -0.675000
v -1.265000 0.600000 -0.675000
v -0.915000 0.600000 -0.675000
v -0.885000 0.600000 -0.675000
v -0.915000 0.600000 0.675000
v -0.885000 0.600000 0.675000
v -0.915000 0.610000 -0.675000
v -0.885000 0.610000 -0.675000
v -0.915000 0.610000 0.675000
v -0.885000 0.610000 0.675000
v -1.085000 0.610000 0.675000
v -1.115000 0.610000 0.675000
v -1.085000 0.610000 -0.675000
v -1.115000 0.610000 -0.675000
v -1.085000 0.600000 0.675000
v -1.115000 0.600000 0.675000
v -1.085000 0.600000 -0.675000
v -1.115000 0.600000 -0.675000
v -0.515000 0.600000 -0.675000
v -0.485000 0.600000 -0.675000
v -0.515000 0.600000 0.675000
v -0.485000 0.600000 0.675000
v -0.515000 0.610000 -0.675000
v -0.485000 0.610000 -0.675000
v -0.515000 0.610000 0.675000
v -0.485000 0.610000 0.675000
v -0.685000 0.610000 0.675000
v -0.715000 0.610000 0.675000
v -0.685000 0.610000 -0.675000
v -0.715000 0.610000 -0.675000
v -0.685000 0.600000 0.675000
v -0.715000 0.600000 0.675000
v -0.685000 0.600000 -0.675000
v -0.715000 0.600000 -0.675000
v -0.115000 0.600000 -0.675000
v -0.085000 0.600000 -0.675000
v -0.115000 0.600000 0.675000
v -0.085000 0.600000 0.675000
v -0.115000 0.610000 -0.675000
v -0.085000 0.610000 -0.675000
v -0.115000 0.610000 0.675000
v -0.085000 0.610000 0.675000
v -0.285000 0.610000 0.675000
v -0.315000 0.610000 0.675000
v -0.285000 0.610000 -0.675000
v -0.315000 0.610000 -0.675000
v -0.285000 0.600000 0.675000
v -0.315000 0.600000 0.675000
v -0.285000 0.600000 -0.675000
v -0.315000 0.600000 -0.675000
v 0.285000 0.600000 -0.675000
v 0.315000 0.600000 -0.675000
v 0.285000 0.600000 0.675000
v 0.315000 0.600000 0.675000
v 0.285000 0.610000 -0.675000
v 0.315000 0.610000 -0.675000
v 0.285000 0.610000 0.675000
v 0.315000 0.610000 0.675000
v 0.115000 0.610000 0.675000
v 0.085000 0.610000 0.675000
v 0.115000 0.610000 -0.675000
v 0.085000 0.610000 -0.675000
v 0.115000 0.600000 0.675000
v 0.085000 0.600000 0.675000
v 0.115000 0.600000 -0.675000
v 0.085000 0.600000 -0.675000
v 0.685000 0.600000 -0.675000
v 0.715000 0.600000 -0.675000
v 0.685000 0.600000 0.675000
v 0.715000 0.600000 0.675000
v 0.685000 0.610000 -0.675000
v 0.715000 0.610000 -0.675000
v 0.685000 0.610000 0.675000
v 0.715000 0.610000 0.675000
v 0.515000 0.610000 0.675000
v 0.485000 0.610000 0.675000
v 0.515000 0.610000 -0.675000
v 0.485000 0.610000 -0.675000
v 0.515000 0.600000 0.675000
v 0.485000 0.600000 0.675000
v 0.515000 0.600000 -0.675000
v 0.485000 0.600000 -0.675000
v 1.085000 0.600000 -0.675000
v 1.115000 0.600000 -0.675000
v 1.085000 0.600000 0.675000
v 1.115000 0.600000 0.675000
v 1.085000 0.610000 -0.675000
v 1.115000 0.610000 -0.675000
v 1.085000 0.610000 0.675000
v 1.115000 0.610000 0.675000
v 0.915000 0.610000 0.675000
v 0.885000 0.610000 0.675000
v 0.915000 0.610000 -0.675000
v 0.885000 0.610000 -0.675000
v 0.915000 0.600000 0.675000
v 0.885000 0.600000 0.675000
v 0.915000 0.600000 -0.675000
v 0.885000 0.600000 -0.675000
v 1.235000 0.600000 -0.675000
v 1.265000 0.600000 -0.675000
v 1.235000 0.600000 0.675000
v 1.265000 0.600000 0.675000
v 1.235000 0.610000 -0.675000
v 1.265000 0.610000 -0.675000
v 1.235000 0.610000 0.675000
v 1.265000 0.610000 0.675000
v -1.310000 0.485000 0.685000
v -1.310000 0.505000 0.685000
v -1.310000 0.485000 0.675000
v -1.310000 0.505000 0.675000
v -1.205001 0.590000 0.685000
v -1.225001 0.590000 0.685000
v -1.205001 0.590001 0.675000
v -1.225001 0.590001 0.675000
v -1.325000 0.485000 0.660001
v -1.325000 0.505000 0.660001
v -1.335000 0.485000 0.660001
v -1.335000 0.505000 0.660001
v -1.325000 0.590000 0.555001
v -1.325000 0.590000 0.575001
v -1.335000 0.590000 0.555001
v -1.335000 0.590000 0.575001
v -1.335000 0.485000 -0.660000
v -1.335000 0.505000 -0.660000
v -1.325000 0.485000 -0.660000
v -1.325000 0.505000 -0.660000
v -1.335000 0.590000 -0.555001
v -1.335000 0.590000 -0.575001
v -1.325000 0.590000 -0.555001
v -1.325000 0.590000 -0.575001
v -1.310001 0.485000 -0.675000
v -1.310001 0.505000 -0.675000
v -1.310001 0.485000 -0.685000
v -1.310001 0.505000 -0.685000
v -1.205001 0.590000 -0.675000
v -1.225001 0.590000 -0.675000
v -1.205001 0.590000 -0.685000
v -1.225001 0.590000 -0.685000
v 1.310000 0.485000 -0.685000
v 1.310000 0.505000 -0.685000
v 1.310000 0.485000 -0.675000
v 1.310000 0.505000 -0.675000
v 1.205001 0.590001 -0.685000
v 1.225001 0.590001 -0.685000
v 1.205001 0.590000 -0.675000
v 1.225001 0.590000 -0.675000
v 1.325000 0.485000 -0.660001
v 1.325000 0.505000 -0.660001
v 1.335000 0.485000 -0.660001
v 1.335000 0.505000 -0.660001
v 1.325000 0.590000 -0.555001
v 1.325000 0.590000 -0.575001
v 1.335000 0.590000 -0.555001
v 1.335000 0.590000 -0.575001
v 1.335000 0.485000 0.660001
v 1.335000 0.505000 0.660001
v 1.325000 0.485000 0.660001
v 1.325000 0.505000 0.660001
v 1.335000 0.590001 0.555001
v 1.335000 0.590001 0.575001
v 1.325000 0.590001 0.555001
v 1.325000 0.590001 0.575001
v 1.310001 0.485000 0.675000
v 1.310001 0.505000 0.675000
v 1.310001 0.485000 0.685000
v 1.310001 0.505000 0.685000
v 1.205001 0.590000 0.675000
v 1.225001 0.590000 0.675000
v 1.205001 0.590000 0.685000
v 1.225001 0.590000 0.685000
vn -0.0000 1.0000 -0.0000
vn -0.0000 -0.0000 1.0000
vn -0.0000 -0.0000 -1.0000
vn -0.0000 -1.0000 -0.0000
vn -1.0000 -0.0000 -0.0000
vn -0.0000 -0.0980 -0.9952
vn 1.0000 -0.0000 -0.0000
vn -0.0000 0.0980 0.9952
vn -0.0000 0.3827 0.9239
vn -0.0000 -0.3827 -0.9239
vn -0.0000 0.7071 0.7071
vn -0.0000 -0.7071 -0.7071
vn -0.0000 0.9239 0.3827
vn -0.0000 -0.9239 -0.3827
vn -0.0000 0.9952 0.0980
vn -0.0000 -0.9952 -0.0980
vn -0.0000 -0.9952 0.0980
vn -0.0000 -0.0980 0.9952
vn -0.0000 0.0980 -0.9952
vn -0.0000 0.3827 -0.9239
vn -0.0000 -0.3827 0.9239
vn -0.0000 0.7071 -0.7071
vn -0.0000 -0.7071 0.7071
vn -0.0000 0.9239 -0.3827
vn -0.0000 -0.9239 0.3827
vn -0.0000 0.9952 -0.0980
vn -0.7071 0.7071 -0.0000
vn 0.7071 -0.7071 -0.0000
vn 0.7071 0.7071 -0.0000
vn -0.7071 -0.7071 -0.0000
vt 1.155000 0.837500
vt -0.155000 0.837500
vt -0.155000 0.842500
vt 1.155000 0.842500
vt 1.155000 0.477500
vt 1.155000 0.492500
vt -0.155000 0.492500
vt -0.155000 0.477500
vt 0.182500 0.850000
vt 0.732500 0.850000
vt 0.732500 0.830000
vt 0.182500 0.830000
vt 1.155000 0.182500
vt 1.155000 0.732500
vt 1.175000 0.732500
vt 1.175000 0.182500
vt 1.155000 0.830000
vt 1.175000 0.830000
vt 1.175000 0.850000
vt 1.155000 0.850000
vt 0.765028 0.843530
vt 0.757374 0.825052
vt 1.175000 0.765028
vt 1.155000 0.765028
vt 1.155000 0.757374
vt 1.175000 0.757374
vt 1.175000 0.792604
vt 1.155000 0.792604
vt 1.155000 0.778462
vt 1.175000 0.778462
vt 0.778462 0.810962
vt 0.792604 0.825104
vt 0.792552 0.789874
vt 0.811030 0.797528
vt 1.155000 0.825104
vt 1.175000 0.825104
vt 1.175000 0.797528
vt 1.155000 0.797528
vt 1.175000 0.810962
vt 1.155000 0.810962
vt 1.155000 0.789874
vt 1.175000 0.789874
vt 1.175000 0.765000
vt 1.155000 0.765000
vt 1.155000 0.765000
vt 1.175000 0.765000
vt 0.797500 0.765000
vt 0.817500 0.765000
vt 0.797500 0.235000
vt 0.817500 0.235000
vt 1.155001 0.235000
vt 1.175001 0.235000
vt 0.182500 0.150000
vt 0.732500 0.150000
vt 0.732500 0.170000
vt 0.182500 0.170000
vt 1.175001 0.182500
vt 1.175001 0.732500
vt 1.155001 0.732500
vt 1.155001 0.182500
vt 1.175001 0.170000
vt 1.155001 0.170000
vt 1.155001 0.150000
vt 1.175001 0.150000
vt 0.765028 0.156470
vt 0.757374 0.174948
vt 1.155001 0.765028
vt 1.175001 0.765028
vt 1.175001 0.757374
vt 1.155001 0.757374
vt 1.155001 0.792604
vt 1.175001 0.792604
vt 1.175001 0.778462
vt 1.155001 0.778462
vt 0.778462 0.189038
vt 0.792604 0.174896
vt 0.792604 0.174896
vt 0.792552 0.210126
vt 0.811030 0.202472
vt 1.175001 0.174896
vt 1.155001 0.174896
vt 1.155001 0.202472
vt 1.175001 0.202472
vt 1.155001 0.189038
vt 1.175001 0.189038
vt 1.175001 0.210126
vt 1.155001 0.210126
vt 1.155001 0.235000
vt 1.175001 0.235000
vt 0.477500 0.170000
vt 0.477500 0.830000
vt 0.492500 0.830000
vt 0.492500 0.170000
vt 1.157501 0.170000
vt 1.157501 0.830000
vt 1.172501 0.830000
vt 1.172501 0.170000
vt 1.157501 0.492500
vt 1.172501 0.492500
vt 1.172501 0.477500
vt 1.157501 0.477500
vt 0.493443 0.650000
vt 0.493443 0.350000
vt 0.503279 0.350000
vt 0.503279 0.650000
vt 0.513115 0.350000
vt 0.513115 0.650000
vt 0.522951 0.350000
vt 0.522951 0.650000
vt 0.483607 0.650000
vt 0.483607 0.350000
vt 0.532787 0.389344
vt 0.522951 0.389344
vt 0.522951 0.379508
vt 0.532787 0.379508
vt 0.454099 0.650000
vt 0.454099 0.350000
vt 0.463935 0.350000
vt 0.463935 0.650000
vt 0.473771 0.350000
vt 0.473771 0.650000
vt 0.483607 0.650000
vt 0.444262 0.650000
vt 0.444263 0.350000
vt 0.532787 0.359836
vt 0.522951 0.359836
vt 0.532787 0.350000
vt 0.355738 0.350000
vt 0.355738 0.650000
vt 0.345902 0.650000
vt 0.345902 0.350000
vt 0.336066 0.650000
vt 0.336066 0.350000
vt 0.326230 0.650000
vt 0.326230 0.350000
vt 0.365574 0.350000
vt 0.365574 0.650000
vt 0.522951 0.369672
vt 0.532787 0.369672
vt 0.414754 0.650000
vt 0.414754 0.350000
vt 0.424590 0.350000
vt 0.424590 0.650000
vt 0.434426 0.350000
vt 0.434426 0.650000
vt 0.444262 0.350000
vt 0.444262 0.650000
vt 0.404918 0.650000
vt 0.404918 0.350000
vt 0.522951 0.359836
vt 0.532787 0.359836
vt 0.316394 0.350000
vt 0.316394 0.650000
vt 0.306557 0.650000
vt 0.306558 0.350000
vt 0.296721 0.650000
vt 0.296721 0.350000
vt 0.286885 0.650000
vt 0.286885 0.350000
vt 0.326230 0.350000
vt 0.326230 0.650000
vt 0.532787 0.399180
vt 0.522951 0.399180
vt 0.395082 0.350000
vt 0.395082 0.650000
vt 0.385246 0.650000
vt 0.385246 0.350000
vt 0.375410 0.650000
vt 0.375410 0.350000
vt 0.365574 0.650000
vt 0.365574 0.350000
vt 0.404918 0.350000
vt 0.404918 0.650000
vt 0.522951 0.409016
vt 0.522951 0.399180
vt 0.532787 0.399180
vt 0.532787 0.409016
vt 0.497500 0.850000
vt 0.497500 0.830000
vt -0.175001 0.182500
vt -0.175001 0.497500
vt -0.155001 0.497500
vt -0.155001 0.182500
vt -0.175001 0.830000
vt -0.155001 0.830000
vt -0.155001 0.850000
vt -0.175001 0.850000
vt 0.497500 0.150000
vt 0.497500 0.170000
vt -0.155000 0.182500
vt -0.155000 0.497500
vt -0.175000 0.497500
vt -0.175000 0.182500
vt -0.155000 0.170000
vt -0.175000 0.170000
vt -0.175000 0.150000
vt -0.155000 0.150000
vt -0.167500 0.170000
vt -0.167500 0.830000
vt -0.162500 0.830000
vt -0.162500 0.170000
vt -0.162500 0.830000
vt -0.167500 0.492500
vt -0.162500 0.492500
vt -0.162500 0.477500
vt -0.167500 0.477500
vt 1.155000 0.157500
vt -0.155000 0.157500
vt -0.155000 0.162500
vt 1.155000 0.162500
vt 1.154981 0.477500
vt 1.154981 0.492500
vt -0.155000 0.492500
vt -0.155000 0.477500
vt 1.154981 0.492500
vt -0.155001 0.830000
vt -0.175001 0.830000
vt 0.482500 0.162500
vt 0.482500 0.837500
vt 0.487500 0.837500
vt 0.487500 0.162500
vt -0.132500 0.162500
vt -0.132500 0.837500
vt -0.117500 0.837500
vt -0.117500 0.162500
vt 0.487500 0.162500
vt 0.482500 0.162500
vt -0.117500 0.837500
vt -0.132500 0.837500
vt -0.132500 0.487500
vt -0.117500 0.487500
vt -0.117500 0.482500
vt -0.132500 0.482500
vt 0.042500 0.487500
vt 0.057500 0.487500
vt 0.057500 0.482500
vt 0.042500 0.482500
vt 0.057500 0.162500
vt 0.057500 0.837500
vt 0.042500 0.837500
vt 0.042500 0.162500
vt 0.042500 0.837500
vt 0.057500 0.837500
vt -0.057500 0.162500
vt -0.057500 0.837500
vt -0.042500 0.837500
vt -0.042500 0.162500
vt -0.042500 0.837500
vt -0.057500 0.837500
vt -0.057500 0.487500
vt -0.042500 0.487500
vt -0.042500 0.482500
vt -0.057500 0.482500
vt 0.242500 0.487500
vt 0.257500 0.487500
vt 0.257500 0.482500
vt 0.242500 0.482500
vt 0.257500 0.162500
vt 0.257500 0.837500
vt 0.242500 0.837500
vt 0.242500 0.162500
vt 0.242500 0.837500
vt 0.257500 0.837500
vt 0.142500 0.162500
vt 0.142500 0.837500
vt 0.157500 0.837500
vt 0.157500 0.162500
vt 0.157500 0.837500
vt 0.142500 0.837500
vt 0.142500 0.487500
vt 0.157500 0.487500
vt 0.157500 0.482500
vt 0.142500 0.482500
vt 0.442500 0.487500
vt 0.457500 0.487500
vt 0.457500 0.482500
vt 0.442500 0.482500
vt 0.457500 0.162500
vt 0.457500 0.837500
vt 0.442500 0.837500
vt 0.442500 0.162500
vt 0.442500 0.837500
vt 0.457500 0.837500
vt 0.342500 0.162500
vt 0.342500 0.837500
vt 0.357500 0.837500
vt 0.357500 0.162500
vt 0.357500 0.837500
vt 0.342500 0.837500
vt 0.342500 0.487500
vt 0.357500 0.487500
vt 0.357500 0.482500
vt 0.342500 0.482500
vt 0.642500 0.487500
vt 0.657500 0.487500
vt 0.657500 0.482500
vt 0.642500 0.482500
vt 0.657500 0.162500
vt 0.657500 0.837500
vt 0.642500 0.837500
vt 0.642500 0.162500
vt 0.642500 0.837500
vt 0.657500 0.837500
vt 0.542500 0.162500
vt 0.542500 0.837500
vt 0.557500 0.837500
vt 0.557500 0.162500
vt 0.557500 0.837500
vt 0.542500 0.837500
vt 0.542500 0.487500
vt 0.557500 0.487500
vt 0.557500 0.482500
vt 0.542500 0.482500
vt 0.842500 0.487500
vt 0.857500 0.487500
vt 0.857500 0.482500
vt 0.842500 0.482500
vt 0.857500 0.162500
vt 0.857500 0.837500
vt 0.842500 0.837500
vt 0.842500 0.162500
vt 0.842500 0.837500
vt 0.857500 0.837500
vt 0.742500 0.162500
vt 0.742500 0.837500
vt 0.757500 0.837500
vt 0.757500 0.162500
vt 0.757500 0.837500
vt 0.742500 0.837500
vt 0.742500 0.487500
vt 0.757500 0.487500
vt 0.757500 0.482500
vt 0.742500 0.482500
vt 1.042500 0.487500
vt 1.057500 0.487500
vt 1.057500 0.482500
vt 1.042500 0.482500
vt 1.057500 0.162500
vt 1.057500 0.837500
vt 1.042500 0.837500
vt 1.042500 0.162500
vt 1.042500 0.837500
vt 1.057500 0.837500
vt 0.942500 0.162500
vt 0.942500 0.837500
vt 0.957500 0.837500
vt 0.957500 0.162500
vt 0.957500 0.837500
vt 0.942500 0.837500
vt 0.942500 0.487500
vt 0.957500 0.487500
vt 0.957500 0.482500
vt 0.942500 0.482500
vt 1.117500 0.487500
vt 1.132500 0.487500
vt 1.132500 0.482500
vt 1.117500 0.482500
vt 1.132500 0.162500
vt 1.132500 0.837500
vt 1.117500 0.837500
vt 1.117500 0.162500
vt 1.117500 0.837500
vt 1.132500 0.837500
vt 0.477500 0.837500
vt 0.435000 0.837500
vt 0.435000 0.842500
vt 0.477500 0.842500
vt -0.102500 0.477500
vt -0.112500 0.477500
vt -0.155000 0.435000
vt -0.155000 0.425000
vt -0.112500 0.477500
vt -0.102500 0.477500
vt 0.425000 0.842500
vt 0.425000 0.837500
vt -0.167500 0.477500
vt -0.167500 0.435000
vt -0.162500 0.435000
vt -0.162500 0.477500
vt 0.477500 0.777501
vt 0.477500 0.787501
vt 0.435000 0.830000
vt 0.425000 0.830000
vt 0.477500 0.787501
vt 0.477500 0.777501
vt -0.162500 0.425000
vt -0.167500 0.425000
vt -0.162500 0.477500
vt -0.162500 0.435000
vt -0.167500 0.435000
vt 0.477500 0.222500
vt 0.477500 0.212500
vt 0.435000 0.170000
vt 0.425000 0.170000
vt 0.477500 0.212500
vt 0.477500 0.222500
vt -0.167500 0.425000
vt -0.162500 0.425000
vt 0.477500 0.157500
vt 0.435000 0.157500
vt 0.435000 0.162500
vt 0.477500 0.162500
vt -0.102501 0.477500
vt -0.112501 0.477500
vt -0.155000 0.435000
vt -0.155000 0.425000
vt -0.112501 0.477500
vt -0.102501 0.477500
vt 0.425000 0.162500
vt 0.425000 0.157500
vt 0.477500 0.162500
vt 0.435000 0.162500
vt 0.435000 0.157500
vt 0.477500 0.157500
vt 1.102500 0.477500
vt 1.112500 0.477500
vt 1.155000 0.435000
vt 1.155000 0.425000
vt 1.102500 0.477500
vt 0.425000 0.157500
vt 0.425000 0.162500
vt 1.167500 0.477500
vt 1.167500 0.435000
vt 1.162500 0.435000
vt 1.162500 0.477500
vt 0.477500 0.222499
vt 0.477500 0.212499
vt 0.435000 0.170000
vt 0.425000 0.170000
vt 0.477500 0.212499
vt 0.477500 0.222499
vt 1.162500 0.425000
vt 1.167500 0.425000
vt 1.162500 0.477500
vt 1.162500 0.435000
vt 1.167500 0.435000
vt 1.167500 0.477500
vt 0.477500 0.777500
vt 0.477500 0.787501
vt 0.435000 0.830000
vt 0.425000 0.830000
vt 0.477500 0.787501
vt 0.477500 0.777501
vt 1.167500 0.425000
vt 1.162500 0.425000
vt 0.477500 0.842500
vt 0.435000 0.842500
vt 0.435000 0.837500
vt 0.477500 0.837500
vt 1.102501 0.477500
vt 1.112501 0.477500
vt 1.155000 0.435000
vt 1.155000 0.425000
vt 1.102501 0.477500
vt 0.425000 0.837500
vt 0.425000 0.842500
s 1
usemtl metal_mp_5
f 8/1/1 4/2/1 2/3/1 6/4/1
f 5/5/2 6/6/2 2/7/2 1/8/2
f 3/8/3 4/7/3 8/6/3 7/5/3
f 7/1/4 5/4/4 1/3/4 3/2/4
f 9/9/5 10/10/5 12/11/5 11/12/5
f 11/13/3 12/14/6 16/15/6 15/16/3
f 15/12/7 16/11/7 14/10/7 13/9/7
f 13/16/2 14/15/8 10/14/8 9/13/2
f 11/17/4 15/18/4 13/19/4 9/20/4
f 12/11/5 10/10/5 17/21/5 18/22/5
f 10/14/8 14/15/8 19/23/9 17/24/9
f 16/15/6 12/14/6 18/25/10 20/26/10
f 14/10/7 16/11/7 20/22/7 19/21/7
f 17/24/9 19/23/9 23/27/11 21/28/11
f 20/26/10 18/25/10 22/29/12 24/30/12
f 19/21/7 20/22/7 24/31/7 23/32/7
f 18/22/5 17/21/5 21/32/5 22/31/5
f 23/32/7 24/31/7 28/33/7 27/34/7
f 22/31/5 21/32/5 25/34/5 26/33/5
f 21/35/11 23/36/11 27/37/13 25/38/13
f 24/39/12 22/40/12 26/41/14 28/42/14
f 25/38/13 27/37/13 31/43/15 29/44/15
f 28/42/14 26/41/14 30/45/16 32/46/16
f 27/34/7 28/33/7 32/47/7 31/48/7
f 26/33/5 25/34/5 29/48/5 30/47/5
f 54/49/7 53/50/7 31/48/7 32/47/7
f 32/46/16 30/45/16 56/51/17 54/52/17
f 33/53/7 34/54/7 36/55/7 35/56/7
f 35/57/2 36/58/18 40/59/18 39/60/2
f 39/56/5 40/55/5 38/54/5 37/53/5
f 37/60/3 38/59/19 34/58/19 33/57/3
f 35/61/4 39/62/4 37/63/4 33/64/4
f 36/55/7 34/54/7 41/65/7 42/66/7
f 34/58/19 38/59/19 43/67/20 41/68/20
f 40/59/18 36/58/18 42/69/21 44/70/21
f 38/54/5 40/55/5 44/66/5 43/65/5
f 41/68/20 43/67/20 47/71/22 45/72/22
f 44/70/21 42/69/21 46/73/23 48/74/23
f 43/65/5 44/66/5 48/75/5 47/76/5
f 42/66/7 41/65/7 45/77/7 46/75/7
f 47/76/5 48/75/5 52/78/5 51/79/5
f 46/75/7 45/77/7 49/79/7 50/78/7
f 45/80/22 47/81/22 51/82/24 49/83/24
f 48/84/23 46/85/23 50/86/25 52/87/25
f 49/83/24 51/82/24 55/88/26 53/89/26
f 52/87/25 50/86/25 54/52/17 56/51/17
f 51/79/5 52/78/5 56/49/5 55/50/5
f 50/78/7 49/79/7 53/50/7 54/49/7
f 55/50/5 56/49/5 30/47/5 29/48/5
f 53/89/26 55/88/26 29/44/15 31/43/15
f 57/90/5 58/91/5 60/92/5 59/93/5
f 59/94/1 60/95/1 64/96/1 63/97/1
f 63/93/7 64/92/7 62/91/7 61/90/7
f 61/97/4 62/96/4 58/95/4 57/94/4
f 59/98/3 63/99/3 61/100/3 57/101/3
f 65/102/5 66/103/5 68/104/5 67/105/5
f 67/105/3 68/104/3 72/106/3 71/107/3
f 71/107/7 72/106/7 70/108/7 69/109/7
f 69/110/2 70/111/2 66/103/2 65/102/2
f 67/112/4 71/113/4 69/114/4 65/115/4
f 73/116/5 74/117/5 76/118/5 75/119/5
f 75/119/3 76/118/3 80/120/3 79/121/3
f 79/121/7 80/120/7 78/111/7 77/122/7
f 77/123/2 78/124/2 74/117/2 73/116/2
f 75/125/4 79/126/4 77/108/4 73/127/4
f 81/128/5 82/129/5 84/130/5 83/131/5
f 83/131/3 84/130/3 88/132/3 87/133/3
f 87/133/7 88/132/7 86/134/7 85/135/7
f 85/136/2 86/137/2 82/129/2 81/128/2
f 83/115/4 87/114/4 85/138/4 81/139/4
f 89/140/5 90/141/5 92/142/5 91/143/5
f 91/143/3 92/142/3 96/144/3 95/145/3
f 95/145/7 96/144/7 94/146/7 93/147/7
f 93/148/2 94/149/2 90/141/2 89/140/2
f 91/139/4 95/138/4 93/150/4 89/151/4
f 97/152/5 98/153/5 100/154/5 99/155/5
f 99/155/3 100/154/3 104/156/3 103/157/3
f 103/157/7 104/156/7 102/158/7 101/159/7
f 101/160/2 102/161/2 98/153/2 97/152/2
f 99/162/4 103/163/4 101/113/4 97/112/4
f 105/164/5 106/165/5 108/166/5 107/167/5
f 107/167/3 108/166/3 112/168/3 111/169/3
f 111/169/7 112/168/7 110/170/7 109/171/7
f 109/172/2 110/173/2 106/165/2 105/164/2
f 107/174/4 111/175/4 109/176/4 105/177/4
f 113/9/5 114/178/5 116/179/5 115/12/5
f 115/180/3 116/181/3 120/182/3 119/183/3
f 119/12/7 120/179/7 118/178/7 117/9/7
f 117/183/2 118/182/2 114/181/2 113/180/2
f 115/184/4 119/185/4 117/186/4 113/187/4
f 121/53/7 122/188/7 124/189/7 123/56/7
f 123/190/2 124/191/2 128/192/2 127/193/2
f 127/56/5 128/189/5 126/188/5 125/53/5
f 125/193/3 126/192/3 122/191/3 121/190/3
f 123/194/4 127/195/4 125/196/4 121/197/4
f 129/90/5 130/91/5 132/92/5 131/93/5
f 131/198/1 132/199/1 136/200/1 135/201/1
f 135/93/7 136/92/7 134/91/7 133/90/7
f 133/201/4 134/202/4 130/199/4 129/198/4
f 131/203/3 135/204/3 133/205/3 129/206/3
f 144/207/1 140/208/1 138/209/1 142/210/1
f 141/211/2 142/212/2 138/213/2 137/214/2
f 139/214/3 140/213/3 144/215/3 143/211/3
f 143/207/4 141/210/4 137/209/4 139/208/4
f 114/187/1 118/186/1 120/216/1 116/217/1
f 122/197/1 126/196/1 128/195/1 124/194/1
f 152/218/5 150/219/5 146/220/5 148/221/5
f 148/222/1 146/223/1 145/224/1 147/225/1
f 147/226/7 145/220/7 149/219/7 151/227/7
f 151/225/4 149/228/4 150/229/4 152/222/4
f 148/230/3 147/231/3 151/232/3 152/233/3
f 158/226/7 160/220/7 156/219/7 154/227/7
f 157/234/3 158/235/3 154/236/3 153/237/3
f 154/238/4 156/239/4 155/240/4 153/241/4
f 153/218/5 155/219/5 159/220/5 157/221/5
f 157/241/1 159/242/1 160/243/1 158/238/1
f 168/218/5 166/219/5 162/220/5 164/221/5
f 164/244/1 162/245/1 161/246/1 163/247/1
f 163/226/7 161/220/7 165/219/7 167/227/7
f 167/247/4 165/248/4 166/249/4 168/244/4
f 164/250/3 163/251/3 167/252/3 168/253/3
f 174/226/7 176/220/7 172/219/7 170/227/7
f 173/254/3 174/255/3 170/256/3 169/257/3
f 170/258/4 172/259/4 171/260/4 169/261/4
f 169/218/5 171/219/5 175/220/5 173/221/5
f 173/261/1 175/262/1 176/263/1 174/258/1
f 184/218/5 182/219/5 178/220/5 180/221/5
f 180/264/1 178/265/1 177/266/1 179/267/1
f 179/226/7 177/220/7 181/219/7 183/227/7
f 183/267/4 181/268/4 182/269/4 184/264/4
f 180/270/3 179/271/3 183/272/3 184/273/3
f 190/226/7 192/220/7 188/219/7 186/227/7
f 189/274/3 190/275/3 186/276/3 185/277/3
f 186/278/4 188/279/4 187/280/4 185/281/4
f 185/218/5 187/219/5 191/220/5 189/221/5
f 189/281/1 191/282/1 192/283/1 190/278/1
f 200/218/5 198/219/5 194/220/5 196/221/5
f 196/284/1 194/285/1 193/286/1 195/287/1
f 195/226/7 193/220/7 197/219/7 199/227/7
f 199/287/4 197/288/4 198/289/4 200/284/4
f 196/290/3 195/291/3 199/292/3 200/293/3
f 206/226/7 208/220/7 204/219/7 202/227/7
f 205/294/3 206/295/3 202/296/3 201/297/3
f 202/298/4 204/299/4 203/300/4 201/301/4
f 201/218/5 203/219/5 207/220/5 205/221/5
f 205/301/1 207/302/1 208/303/1 206/298/1
f 216/218/5 214/219/5 210/220/5 212/221/5
f 212/304/1 210/305/1 209/306/1 211/307/1
f 211/226/7 209/220/7 213/219/7 215/227/7
f 215/307/4 213/308/4 214/309/4 216/304/4
f 212/310/3 211/311/3 215/312/3 216/313/3
f 222/226/7 224/220/7 220/219/7 218/227/7
f 221/314/3 222/315/3 218/316/3 217/317/3
f 218/318/4 220/319/4 219/320/4 217/321/4
f 217/218/5 219/219/5 223/220/5 221/221/5
f 221/321/1 223/322/1 224/323/1 222/318/1
f 232/218/5 230/219/5 226/220/5 228/221/5
f 228/324/1 226/325/1 225/326/1 227/327/1
f 227/226/7 225/220/7 229/219/7 231/227/7
f 231/327/4 229/328/4 230/329/4 232/324/4
f 228/330/3 227/331/3 231/332/3 232/333/3
f 238/226/7 240/220/7 236/219/7 234/227/7
f 237/334/3 238/335/3 234/336/3 233/337/3
f 234/338/4 236/339/4 235/340/4 233/341/4
f 233/218/5 235/219/5 239/220/5 237/221/5
f 237/341/1 239/342/1 240/343/1 238/338/1
f 248/218/5 246/219/5 242/220/5 244/221/5
f 244/344/1 242/345/1 241/346/1 243/347/1
f 243/226/7 241/220/7 245/219/7 247/227/7
f 247/347/4 245/348/4 246/349/4 248/344/4
f 244/350/3 243/351/3 247/352/3 248/353/3
f 254/226/7 256/220/7 252/219/7 250/227/7
f 253/354/3 254/355/3 250/356/3 249/357/3
f 250/358/4 252/359/4 251/360/4 249/361/4
f 249/218/5 251/219/5 255/220/5 253/221/5
f 253/361/1 255/362/1 256/363/1 254/358/1
f 264/364/27 260/365/27 258/366/27 262/367/27
f 261/368/2 262/369/2 258/370/2 257/371/2
f 259/371/3 260/370/3 264/372/3 263/373/3
f 263/364/28 261/367/28 257/374/28 259/375/28
f 272/376/11 268/377/11 266/378/11 270/379/11
f 269/380/7 270/381/7 266/382/7 265/383/7
f 267/383/5 268/382/5 272/384/5 271/385/5
f 271/376/12 269/379/12 265/386/12 267/387/12
f 280/388/22 276/389/22 274/390/22 278/376/22
f 277/391/5 278/392/5 274/393/5 273/394/5
f 275/394/7 276/393/7 280/395/7 279/396/7
f 279/388/23 277/376/23 273/397/23 275/398/23
f 288/399/27 284/400/27 282/401/27 286/402/27
f 285/403/2 286/404/2 282/405/2 281/406/2
f 283/406/3 284/405/3 288/407/3 287/408/3
f 287/399/28 285/402/28 281/409/28 283/410/28
f 296/411/29 292/412/29 290/413/29 294/414/29
f 293/415/3 294/416/3 290/417/3 289/418/3
f 291/418/2 292/417/2 296/416/2 295/419/2
f 295/411/30 293/414/30 289/420/30 291/421/30
f 304/422/22 300/423/22 298/424/22 302/425/22
f 301/426/5 302/427/5 298/428/5 297/429/5
f 299/429/7 300/428/7 304/430/7 303/431/7
f 303/422/23 301/425/23 297/432/23 299/433/23
f 312/434/11 308/435/11 306/436/11 310/437/11
f 309/438/7 310/439/7 306/440/7 305/441/7
f 307/441/5 308/440/5 312/442/5 311/443/5
f 311/434/12 309/437/12 305/444/12 307/445/12
f 320/446/29 316/447/29 314/448/29 318/449/29
f 317/450/3 318/451/3 314/452/3 313/453/3
f 315/453/2 316/452/2 320/451/2 319/454/2
f 319/446/30 317/449/30 313/455/30 315/456/30
