# Blender 5.0.1
# www.blender.org
mtllib bedside_table_1_4.mtl
o bedside_table_1_4
v -0.247499 0.000000 0.217499
v -0.251874 0.610000 0.221874
v -0.247499 0.000000 0.182501
v -0.251874 0.610000 0.178126
v -0.212501 0.000000 0.217499
v -0.208126 0.610000 0.221874
v -0.212501 0.000000 0.182501
v -0.208126 0.610000 0.178126
v 0.247499 0.000000 -0.182501
v 0.251874 0.610000 -0.178126
v 0.247499 0.000000 -0.217499
v 0.251874 0.610000 -0.221874
v 0.251874 0.610000 0.178126
v 0.247499 0.000000 0.182501
v 0.251874 0.610000 0.221874
v 0.247499 0.000000 0.217499
v 0.208126 0.610000 0.178126
v 0.212501 0.000000 0.182501
v 0.208126 0.610000 0.221874
v 0.212501 0.000000 0.217499
v 0.212501 0.000000 -0.182501
v 0.208126 0.610000 -0.178126
v 0.212501 0.000000 -0.217499
v 0.208126 0.610000 -0.221874
v -0.212501 0.000000 -0.182501
v -0.208126 0.610000 -0.178126
v -0.212501 0.000000 -0.217499
v -0.208126 0.610000 -0.221874
v -0.247499 0.000000 -0.182501
v -0.251874 0.610000 -0.178126
v -0.247499 0.000000 -0.217499
v -0.251874 0.610000 -0.221874
v -0.230002 0.130000 0.200000
v -0.230002 0.160000 0.200000
v -0.230003 0.130000 -0.200000
v -0.230002 0.160000 -0.200000
v 0.229999 0.130000 0.200000
v 0.229999 0.160000 0.200000
v 0.229999 0.130000 -0.200000
v 0.229998 0.160000 -0.200000
v -0.240002 0.450000 0.210000
v -0.220002 0.480000 0.190000
v -0.220002 0.480000 -0.190000
v 0.239999 0.450000 0.210000
v 0.219999 0.480000 0.190000
v 0.239999 0.480000 0.210000
v -0.240002 0.480000 0.210000
v 0.239999 0.610000 0.210000
v -0.240002 0.610000 0.210000
v 0.219999 0.610000 0.190000
v 0.240000 0.450000 -0.210000
v -0.240003 0.450000 -0.210000
v -0.240003 0.480000 -0.210000
v 0.240000 0.480000 -0.210000
v 0.180002 0.450000 0.210000
v -0.179998 0.450000 0.210000
v 0.180002 0.480000 0.210000
v -0.179998 0.480000 0.210000
v 0.219997 0.480000 -0.190000
v 0.180000 0.480000 0.190000
v -0.180000 0.480000 0.190000
v -0.240003 0.610000 -0.210000
v 0.180002 0.610000 0.210000
v 0.219997 0.610000 -0.190000
v 0.180000 0.610000 0.190000
v -0.220002 0.610000 0.190000
v 0.180002 0.580000 0.210000
v 0.180000 0.580000 0.190000
v -0.220001 0.610000 -0.190000
v 0.239999 0.610000 -0.210000
v -0.180002 0.580000 0.210000
v -0.180002 0.610000 0.210000
v -0.180004 0.610000 0.190000
v -0.180004 0.580000 0.190000
v -0.270002 0.610000 0.240000
v -0.280002 0.640000 0.250000
v -0.270003 0.610000 -0.240000
v -0.280002 0.640000 -0.250000
v 0.269999 0.610000 0.240000
v 0.279999 0.640000 0.250000
v 0.269999 0.610000 -0.240000
v 0.279998 0.640000 -0.250000
v -0.280002 0.625000 0.250000
v 0.279999 0.625000 0.250000
v 0.279999 0.625000 -0.250000
v -0.280002 0.625000 -0.250000
v -0.270002 0.617500 0.240000
v 0.269999 0.617500 0.240000
v 0.269999 0.617500 -0.240000
v -0.270002 0.617500 -0.240000
vn -0.0000 -1.0000 -0.0000
vn -0.0000 -0.0072 1.0000
vn 1.0000 -0.0072 -0.0000
vn -1.0000 -0.0072 -0.0000
vn -0.0000 -0.0072 -1.0000
vn -0.0000 1.0000 -0.0000
vn -0.0000 -0.0000 1.0000
vn 1.0000 -0.0000 -0.0000
vn -1.0000 -0.0000 -0.0000
vn -0.0000 -0.0000 -1.0000
vn 1.0000 -0.0000 -0.0001
vn -1.0000 -0.0000 0.0001
vn -0.0000 -0.8000 -0.6000
vn -0.6000 -0.8000 -0.0000
vn 0.6000 -0.8000 -0.0000
vn -0.0000 -0.8000 0.6000
vt 0.671626 0.648291
vt 0.671624 0.624958
vt 0.694956 0.624958
vt 0.694957 0.648291
vt 0.191785 0.624989
vt 0.598349 0.622075
vt 0.598349 0.651240
vt 0.191785 0.648320
vt 0.184488 0.655000
vt 0.591051 0.652084
vt 0.591051 0.681249
vt 0.184488 0.678333
vt 0.168846 0.678332
vt 0.575409 0.681249
vt 0.575409 0.652085
vt 0.168846 0.655001
vt 0.194877 0.648346
vt 0.601440 0.651258
vt 0.601440 0.622093
vt 0.194877 0.625015
vt 0.184486 0.678333
vt 0.591049 0.681250
vt 0.591049 0.652085
vt 0.184486 0.655000
vt 0.194892 0.341677
vt 0.601453 0.344588
vt 0.601454 0.315425
vt 0.194893 0.318345
vt 0.191797 0.318319
vt 0.598360 0.315404
vt 0.598359 0.344571
vt 0.191796 0.341654
vt 0.168847 0.655001
vt 0.575410 0.652085
vt 0.575410 0.681249
vt 0.168847 0.678332
vt 0.671686 0.341658
vt 0.671687 0.318326
vt 0.695019 0.318326
vt 0.695018 0.341658
vt 0.193326 0.341666
vt 0.599886 0.344583
vt 0.599886 0.315418
vt 0.193326 0.318335
vt 0.184486 0.278333
vt 0.591049 0.281249
vt 0.591049 0.252084
vt 0.184486 0.255000
vt 0.168847 0.255001
vt 0.575410 0.252085
vt 0.575410 0.281249
vt 0.168847 0.278333
vt 0.193320 0.318340
vt 0.599884 0.315424
vt 0.599885 0.344587
vt 0.193321 0.341670
vt 0.271667 0.341663
vt 0.271667 0.318330
vt 0.294998 0.318330
vt 0.294998 0.341663
vt 0.193335 0.648354
vt 0.599898 0.651266
vt 0.599898 0.622102
vt 0.193335 0.625023
vt 0.168846 0.278332
vt 0.575409 0.281249
vt 0.575409 0.252085
vt 0.168846 0.255001
vt 0.184488 0.255000
vt 0.591051 0.252084
vt 0.591051 0.281249
vt 0.184488 0.278333
vt 0.193340 0.624990
vt 0.599901 0.622074
vt 0.599900 0.651240
vt 0.193339 0.648321
vt 0.271663 0.648345
vt 0.271662 0.625015
vt 0.294994 0.625015
vt 0.294994 0.648345
vt 0.320668 0.305896
vt 0.320668 0.039229
vt 0.627335 0.039229
vt 0.627335 0.305896
vt -0.153333 0.343333
vt -0.153333 0.323333
vt 0.153334 0.323333
vt 0.153334 0.343333
vt 0.376663 -0.129901
vt 0.356663 -0.129900
vt 0.356663 -0.396567
vt 0.376663 -0.396567
vt -0.309996 0.129900
vt -0.289996 0.129900
vt -0.289996 0.396566
vt -0.309996 0.396566
vt 0.153333 -0.343333
vt 0.153333 -0.323333
vt -0.153333 -0.323333
vt -0.153333 -0.343333
vt 0.320668 0.639229
vt 0.627335 0.639230
vt 0.627335 0.905896
vt 0.320668 0.905896
vt 0.380001 0.626667
vt 0.353333 0.373333
vt 0.353333 0.626667
vt 0.380002 0.453333
vt 0.380002 0.473333
vt 0.340000 0.473333
vt 0.340000 0.453333
vt 0.653333 0.440000
vt 0.653333 0.460000
vt 0.373333 0.460000
vt 0.373333 0.440000
vt 0.373334 0.460000
vt 0.653333 0.460000
vt 0.653333 0.440000
vt 0.660001 0.360000
vt 0.660001 0.640000
vt 0.620003 0.640000
vt 0.379999 0.540000
vt 0.353333 0.560000
vt 0.379999 0.560000
vt 0.646666 0.373333
vt 0.646667 0.626666
vt 0.660001 0.640000
vt 0.660001 0.360000
vt 0.353333 0.626667
vt 0.353334 0.373333
vt 0.339999 0.360000
vt 0.340000 0.640000
vt 0.379999 0.626667
vt 0.353333 0.626667
vt 0.340000 0.640000
vt 0.380000 0.640000
vt 0.620003 0.540000
vt 0.660001 0.560000
vt 0.620003 0.560000
vt 0.340000 0.560000
vt 0.380000 0.540000
vt 0.380000 0.560000
vt 0.620003 0.640000
vt 0.620001 0.626667
vt 0.379999 0.626667
vt 0.380000 0.640000
vt 0.646667 0.626667
vt 0.620001 0.626667
vt 0.620003 0.640000
vt 0.380002 0.640000
vt 0.620003 0.640000
vt 0.380001 0.626667
vt 0.353334 0.373333
vt 0.646666 0.373333
vt 0.339999 0.360000
vt 0.646667 0.560000
vt 0.620001 0.540000
vt 0.620001 0.560000
vt 0.660001 0.453333
vt 0.339999 0.453333
vt 0.339999 0.473333
vt 0.660001 0.473333
vt 0.380002 0.640000
vt 0.340000 0.640000
vt 0.660001 0.360000
vt 0.660000 0.453333
vt 0.660001 0.473333
vt 0.620003 0.473333
vt 0.620003 0.453333
vt 0.620003 0.453333
vt 0.620003 0.473333
vt 0.380002 0.473333
vt 0.380002 0.453333
vt 0.646667 0.626667
vt 0.646666 0.373333
vt 0.620001 0.626667
vt 0.646666 0.373333
vt 0.353333 0.373333
vt 0.380001 0.626667
vt 0.500001 0.600000
vt 0.513334 0.600000
vt 0.513334 0.666667
vt 0.500001 0.666667
vt 0.646667 0.473333
vt 0.620001 0.473333
vt 0.620001 0.540000
vt 0.646667 0.560000
vt 0.499999 0.600000
vt 0.499999 0.666667
vt 0.513332 0.666667
vt 0.513332 0.600000
vt 0.340000 0.473333
vt 0.380002 0.473333
vt 0.340000 0.560000
vt 0.660001 0.473333
vt 0.339999 0.473333
vt 0.339999 0.560000
vt 0.660001 0.560000
vt 0.353333 0.473333
vt 0.646666 0.473333
vt 0.646666 0.560000
vt 0.353334 0.560000
vt 0.653333 0.460000
vt 0.373333 0.460000
vt 0.373333 0.546667
vt 0.653333 0.546666
vt 0.620003 0.473333
vt 0.660001 0.473333
vt 0.660000 0.560000
vt 0.620003 0.540000
vt 0.640000 0.460000
vt 0.386667 0.460000
vt 0.386667 0.546667
vt 0.640000 0.546666
vt 0.380001 0.473333
vt 0.353333 0.473333
vt 0.353333 0.560000
vt 0.386667 0.460000
vt 0.640000 0.460000
vt 0.640000 0.546667
vt 0.386667 0.546667
vt 0.373333 0.460000
vt 0.653333 0.546667
vt 0.373333 0.546667
vt 0.379999 0.626667
vt 0.620001 0.560000
vt 0.620001 0.540000
vt 0.379999 0.560000
vt 0.620003 0.540000
vt 0.620003 0.560000
vt 0.380000 0.560000
vt 0.380000 0.540000
vt 1.061667 0.416667
vt 1.061667 0.083333
vt 0.688333 0.083333
vt 0.688333 0.416667
vt 1.061667 0.250000
vt 1.061667 0.260000
vt 0.688333 0.260000
vt 0.688333 0.250000
vt 1.041667 0.250000
vt 1.041667 0.260000
vt 0.708333 0.260000
vt 0.708333 0.250000
vt 0.694999 0.090000
vt 1.055000 0.090000
vt 1.055000 0.410000
vt 0.695000 0.410000
vt 0.708333 0.250000
vt 0.708333 0.260000
vt 0.695000 0.090000
vt 0.688333 0.083333
vt 1.061667 0.083333
vt 1.055000 0.240000
vt 1.055000 0.245000
vt 0.695000 0.245000
vt 0.695000 0.240000
vt 1.035000 0.240000
vt 1.035000 0.245000
vt 0.715000 0.245000
vt 0.715000 0.240000
vt 0.715000 0.240000
vt 0.715000 0.245000
vt 0.694999 0.240000
vt 0.695000 0.245000
vt 1.061667 0.250000
vt 0.688333 0.250000
vt 1.061667 0.260000
s 1
usemtl wood_6
f 3/1/1 7/2/1 5/3/1 1/4/1
f 5/5/2 6/6/2 2/7/2 1/8/2
f 7/9/3 8/10/3 6/11/3 5/12/3
f 1/13/4 2/14/4 4/15/4 3/16/4
f 3/17/5 4/18/5 8/19/5 7/20/5
f 20/21/4 19/22/4 17/23/4 18/24/4
f 18/25/5 17/26/5 13/27/5 14/28/5
f 16/29/2 15/30/2 19/31/2 20/32/2
f 14/33/3 13/34/3 15/35/3 16/36/3
f 18/37/1 14/38/1 16/39/1 20/40/1
f 23/41/5 24/42/5 12/43/5 11/44/5
f 21/45/4 22/46/4 24/47/4 23/48/4
f 11/49/3 12/50/3 10/51/3 9/52/3
f 9/53/2 10/54/2 22/55/2 21/56/2
f 23/57/1 11/58/1 9/59/1 21/60/1
f 31/61/5 32/62/5 28/63/5 27/64/5
f 29/65/4 30/66/4 32/67/4 31/68/4
f 27/69/3 28/70/3 26/71/3 25/72/3
f 25/73/2 26/74/2 30/75/2 29/76/2
f 31/77/1 27/78/1 25/79/1 29/80/1
f 38/81/6 40/82/6 36/83/6 34/84/6
f 37/85/7 38/86/7 34/87/7 33/88/7
f 39/89/8 40/90/8 38/91/8 37/92/8
f 33/93/9 34/94/9 36/95/9 35/96/9
f 35/97/10 36/98/10 40/99/10 39/100/10
f 35/101/1 39/102/1 37/103/1 33/104/1
f 61/105/6 43/106/6 42/107/6
f 56/108/7 58/109/7 47/110/7 41/111/7
f 51/112/8 54/113/8 46/114/8 44/115/8
f 41/115/9 47/116/9 53/117/9 52/118/9
f 51/119/1 44/120/1 55/121/1
f 74/122/10 66/123/10 73/124/10
f 64/125/6 50/126/6 48/127/6 70/128/6
f 66/129/6 69/130/6 62/131/6 49/132/6
f 73/133/6 66/134/6 49/135/6 72/136/6
f 67/137/7 48/138/7 63/139/7
f 49/140/7 71/141/7 72/142/7
f 63/143/6 65/144/6 73/145/6 72/146/6
f 50/147/6 65/148/6 63/149/6 48/120/6
f 58/150/6 57/151/6 60/148/6 61/152/6
f 69/153/6 64/154/6 70/128/6 62/155/6
f 50/156/10 68/157/10 65/158/10
f 51/159/10 52/160/10 53/161/10 54/162/10
f 52/155/1 56/163/1 41/164/1
f 52/155/1 51/165/1 55/143/1 56/150/1
f 44/166/7 46/167/7 57/168/7 55/169/7
f 55/170/7 57/171/7 58/172/7 56/173/7
f 45/174/6 59/175/6 60/148/6
f 60/176/6 59/177/6 43/178/6 61/179/6
f 58/180/11 61/181/11 74/182/11 71/183/11
f 45/184/10 60/185/10 68/186/10 50/187/10
f 57/188/12 67/189/12 68/190/12 60/191/12
f 47/192/7 58/193/7 71/141/7 49/194/7
f 54/195/10 53/196/10 62/197/10 70/198/10
f 43/199/7 59/200/7 64/201/7 69/202/7
f 53/203/9 47/204/9 49/205/9 62/206/9
f 57/207/7 46/208/7 48/209/7 67/210/7
f 59/211/9 45/212/9 50/213/9 64/214/9
f 61/215/10 42/216/10 66/217/10 74/122/10
f 42/218/8 43/219/8 69/220/8 66/221/8
f 46/222/8 54/203/8 70/223/8 48/224/8
f 68/144/1 67/143/1 71/146/1 74/225/1
f 65/226/10 68/227/10 74/122/10 73/228/10
f 67/229/7 63/230/7 72/231/7 71/232/7
f 80/233/6 82/234/6 78/235/6 76/236/6
f 84/237/7 80/238/7 76/239/7 83/240/7
f 85/241/8 82/242/8 80/243/8 84/244/8
f 77/245/1 81/246/1 79/247/1 75/248/1
f 83/249/9 76/250/9 78/242/9 86/241/9
f 89/246/13 90/251/13 86/252/13 85/253/13
f 87/248/14 83/236/14 86/252/14 90/251/14
f 89/246/15 85/253/15 84/233/15 88/247/15
f 88/247/16 84/233/16 83/236/16 87/248/16
f 79/254/7 88/255/7 87/256/7 75/257/7
f 81/258/8 89/259/8 88/260/8 79/261/8
f 75/262/9 87/263/9 90/259/9 77/258/9
f 81/254/10 77/264/10 90/265/10 89/255/10
f 85/266/10 86/267/10 78/239/10 82/268/10
o bedside_table_1_4_drawer
v -0.170002 -0.040000 -0.020000
v -0.170002 -0.030000 -0.020000
v -0.170003 -0.039999 -0.390000
v -0.170002 -0.029999 -0.390000
v 0.169999 -0.040000 -0.020000
v 0.169999 -0.030000 -0.020000
v 0.169999 -0.039999 -0.390000
v 0.169998 -0.029999 -0.390000
v 0.170001 -0.050000 -0.020000
v 0.170001 0.050000 -0.020000
v 0.170001 -0.049999 -0.420000
v 0.170001 0.050001 -0.420000
v 0.180002 -0.050000 -0.020000
v 0.180002 0.050000 -0.020000
v 0.180002 -0.049999 -0.420000
v 0.180001 0.050001 -0.420000
v -0.179999 -0.050000 -0.020000
v -0.179999 0.050000 -0.020000
v -0.179999 -0.049999 -0.420000
v -0.179999 0.050001 -0.420000
v -0.169998 -0.050000 -0.020000
v -0.169998 0.050000 -0.020000
v -0.169998 -0.049999 -0.420000
v -0.169999 0.050001 -0.420000
v -0.199999 -0.070000 -0.020000
v -0.199999 0.070000 -0.020000
v 0.200002 -0.070000 -0.020000
v 0.200001 0.070000 -0.020000
v -0.169999 -0.050000 -0.390000
v -0.169999 0.050001 -0.390000
v -0.169999 -0.049999 -0.400000
v -0.169999 0.050001 -0.400000
v 0.170002 -0.050000 -0.390000
v 0.170002 0.050001 -0.390000
v 0.170002 -0.049999 -0.400000
v 0.170001 0.050001 -0.400000
v -0.199999 0.070000 -0.010000
v -0.199999 -0.070000 -0.010000
v 0.200002 0.070000 -0.010000
v 0.200002 -0.070000 -0.010000
v -0.179999 0.050000 -0.000000
v -0.179999 -0.050000 -0.000000
v 0.180002 0.050000 -0.000000
v 0.180002 -0.050000 -0.000000
v -0.179999 0.050000 -0.000000
v -0.189999 0.060000 -0.010000
v -0.183291 0.053292 -0.006708
v -0.189999 -0.060000 -0.010000
v -0.179999 -0.050000 -0.000000
v -0.183291 -0.053291 -0.006708
v 0.190002 0.060000 -0.010000
v 0.180002 0.050000 -0.000000
v 0.183294 0.053292 -0.006708
v 0.180002 -0.050000 -0.000000
v 0.190002 -0.060000 -0.010000
v 0.183294 -0.053291 -0.006708
v -0.051800 0.008241 0.020431
v -0.025900 0.010263 0.031146
v -0.069626 0.006686 0.004860
v -0.051800 -0.009949 0.020431
v -0.025900 -0.011779 0.031146
v -0.069621 -0.008391 0.004860
v 0.051795 0.008241 0.020434
v 0.025895 0.010263 0.031148
v 0.069621 0.006684 0.004862
v 0.051795 -0.009949 0.020434
v 0.025895 -0.011779 0.031148
v 0.069622 -0.008393 0.004862
v -0.051800 0.008241 0.015574
v -0.025900 0.010263 0.026288
v -0.069626 0.006686 0.000003
v -0.051800 -0.009949 0.015574
v -0.025900 -0.011779 0.026288
v -0.069621 -0.008391 0.000003
v 0.051795 0.008241 0.015577
v 0.025895 0.010263 0.026291
v 0.069621 0.006684 0.000005
v 0.051795 -0.009949 0.015577
v 0.025895 -0.011779 0.026291
v 0.069622 -0.008393 0.000005
v -0.051800 -0.000850 0.027574
v -0.025900 -0.000753 0.038288
v -0.069624 -0.000850 0.004860
v 0.051795 -0.000854 0.027577
v 0.025895 -0.000758 0.038291
v 0.069622 -0.000854 0.004862
v -0.088198 0.004400 0.004860
v -0.088193 -0.006106 0.004860
v -0.088198 0.004400 0.000003
v -0.088193 -0.006106 0.000003
v 0.088193 -0.006107 0.004862
v 0.088193 -0.006107 0.000005
v -0.079621 -0.010963 0.004860
v -0.079624 -0.000850 0.004860
v -0.079626 0.009257 0.004860
v -0.079621 -0.010963 0.000003
v -0.079626 0.009257 0.000003
v 0.079622 -0.010964 0.004862
v 0.079622 -0.010964 0.000005
v 0.079622 -0.000854 0.004862
v -0.089624 -0.000853 0.004860
v 0.089622 -0.000854 0.000005
v 0.089622 -0.000854 0.004862
v 0.079494 0.004092 0.004635
v 0.079493 0.003124 0.007974
v 0.083684 0.001672 0.004635
v 0.082845 0.001189 0.007974
v 0.083684 -0.003166 0.004635
v 0.082845 -0.002682 0.007974
v 0.079494 -0.005585 0.004635
v 0.079493 -0.004617 0.007974
v 0.075303 -0.003166 0.004635
v 0.076141 -0.002682 0.007974
v 0.075303 0.001672 0.004635
v 0.076141 0.001189 0.007974
v -0.086506 0.016092 0.004635
v -0.086507 0.015124 0.007974
v -0.082316 0.013672 0.004635
v -0.083155 0.013189 0.007974
v -0.082316 0.008834 0.004635
v -0.083155 0.009318 0.007974
v -0.086506 0.006415 0.004635
v -0.086507 0.007383 0.007974
v -0.090696 0.008834 0.004635
v -0.089859 0.009318 0.007974
v -0.090696 0.013672 0.004635
v -0.089859 0.013189 0.007974
v -0.089624 -0.000853 0.000001
v -0.093123 -0.014806 0.004860
v -0.093123 -0.014806 0.000003
v -0.084551 -0.019663 0.004860
v -0.084551 -0.019663 0.000003
v -0.093128 0.013100 0.004860
v -0.093128 0.013100 0.000003
v -0.084556 0.017957 0.000003
v -0.084556 0.017957 0.004860
v -0.093268 -0.008977 0.004860
v -0.079476 -0.016792 0.004860
v -0.079476 -0.016792 0.000003
v -0.093268 -0.008977 0.000003
v -0.093273 0.007271 0.000003
v -0.079481 0.015086 0.000003
v -0.079481 0.015086 0.004860
v -0.093273 0.007271 0.004860
v 0.088193 0.004399 0.000005
v 0.079621 0.009256 0.004862
v 0.088193 0.004399 0.004862
v 0.079621 0.009256 0.000005
v 0.093123 0.013099 0.000005
v 0.093123 0.013099 0.004862
v 0.084551 0.017956 0.000005
v 0.084551 0.017956 0.004862
v 0.093123 -0.014807 0.000005
v 0.093123 -0.014807 0.004862
v 0.084552 -0.019664 0.004862
v 0.084552 -0.019664 0.000005
v 0.079476 0.015085 0.000005
v 0.093268 0.007270 0.000005
v 0.093268 0.007270 0.004862
v 0.079476 0.015085 0.004862
v 0.093268 -0.008978 0.004862
v 0.093268 -0.008978 0.000005
v 0.079477 -0.016793 0.004862
v 0.079477 -0.016793 0.000005
v -0.082859 0.001189 0.007974
v -0.083696 0.001672 0.004635
v -0.082859 -0.002682 0.007974
v -0.083696 -0.003166 0.004635
v -0.079507 -0.004617 0.007974
v -0.079506 -0.005585 0.004635
v -0.076155 -0.002682 0.007974
v -0.075316 -0.003166 0.004635
v -0.076155 0.001189 0.007974
v -0.075316 0.001672 0.004635
v -0.079507 0.003124 0.007974
v -0.079506 0.004092 0.004635
v 0.086493 0.016092 0.004635
v 0.086493 0.015124 0.007974
v 0.090683 0.013673 0.004635
v 0.089845 0.013189 0.007974
v 0.090683 0.008834 0.004635
v 0.089845 0.009318 0.007974
v 0.086493 0.006415 0.004635
v 0.086493 0.007383 0.007974
v 0.082303 0.008834 0.004635
v 0.083141 0.009318 0.007974
v 0.082303 0.013673 0.004635
v 0.083141 0.013189 0.007974
v 0.086494 -0.007908 0.004635
v 0.086494 -0.008876 0.007974
v 0.090684 -0.010328 0.004635
v 0.089846 -0.010811 0.007974
v 0.090684 -0.015166 0.004635
v 0.089846 -0.014682 0.007974
v 0.086494 -0.017585 0.004635
v 0.086494 -0.016617 0.007974
v 0.082304 -0.015166 0.004635
v 0.083141 -0.014682 0.007974
v 0.082304 -0.010328 0.004635
v 0.083141 -0.010811 0.007974
v -0.086506 -0.007908 0.004635
v -0.086507 -0.008876 0.007974
v -0.082316 -0.010328 0.004635
v -0.083155 -0.010811 0.007974
v -0.082316 -0.015166 0.004635
v -0.083155 -0.014682 0.007974
v -0.086506 -0.017585 0.004635
v -0.086507 -0.016617 0.007974
v -0.090696 -0.015166 0.004635
v -0.089859 -0.014682 0.007974
v -0.090696 -0.010328 0.004635
v -0.089859 -0.010811 0.007974
v -0.089823 -0.018974 0.004860
v -0.089823 -0.018974 0.000003
v -0.089828 0.017269 0.000003
v -0.089828 0.017269 0.004860
v 0.089823 0.017268 0.000005
v 0.089823 0.017268 0.004862
v 0.089824 -0.018976 0.004862
v 0.089824 -0.018976 0.000005
vn -0.0000 1.0000 -0.0000
vn -0.0000 -1.0000 -0.0000
vn -0.0000 -0.0000 1.0000
vn 1.0000 -0.0000 -0.0000
vn -1.0000 -0.0000 -0.0000
vn -0.0000 -0.0000 -1.0000
vn -0.0000 -0.0000 -0.0000
vn -0.4405 -0.0000 0.8977
vn -0.6230 -0.0000 0.7822
vn -0.8977 -0.0000 0.4405
vn 0.8977 -0.0000 0.4405
vn 0.6230 -0.0000 0.7822
vn 0.4405 -0.0000 0.8977
vn -0.0000 -0.8977 0.4405
vn -0.0000 -0.6230 0.7822
vn -0.0000 -0.4405 0.8977
vn -0.0000 0.4405 0.8977
vn -0.0000 0.6230 0.7822
vn -0.0000 0.8977 0.4405
vn -0.4890 0.4581 0.7423
vn -0.1602 0.5527 0.8178
vn -0.1801 0.5528 0.8137
vn -0.5696 0.4008 0.7175
vn 0.1908 -0.0000 -0.9816
vn 0.1903 -0.0000 -0.9817
vn -0.1903 -0.0000 -0.9817
vn -0.1907 -0.0000 -0.9816
vn 0.4890 0.4580 0.7424
vn 0.5696 0.4008 0.7176
vn 0.1801 0.5527 0.8137
vn 0.1602 0.5526 0.8179
vn 0.3902 -0.1533 0.9079
vn 0.4866 -0.4588 0.7434
vn 0.5687 -0.4010 0.7182
vn 0.3691 -0.1450 0.9180
vn -0.6579 -0.0000 -0.7531
vn -0.5212 -0.0000 -0.8534
vn -0.5209 -0.0000 -0.8536
vn 0.0392 -0.9992 -0.0000
vn 0.0302 -0.9995 -0.0000
vn -0.0302 -0.9995 -0.0000
vn -0.0392 -0.9992 -0.0000
vn 0.0505 -0.9987 -0.0000
vn 0.1323 -0.9912 -0.0000
vn -0.0814 -0.9967 -0.0000
vn -0.0755 -0.9971 -0.0000
vn 0.0755 -0.9971 -0.0000
vn 0.0814 -0.9967 -0.0000
vn -0.1324 -0.9912 -0.0000
vn -0.0505 -0.9987 -0.0000
vn 0.0334 0.9994 -0.0000
vn 0.0433 0.9991 -0.0000
vn -0.0433 0.9991 -0.0000
vn -0.0334 0.9994 -0.0000
vn -0.0838 0.9965 -0.0000
vn -0.0806 0.9967 -0.0000
vn 0.0806 0.9967 -0.0000
vn 0.0839 0.9965 -0.0000
vn 0.1784 -0.5528 0.8140
vn 0.1581 -0.5527 0.8183
vn -0.1582 -0.5526 0.8183
vn -0.1785 -0.5527 0.8140
vn 0.1324 0.9912 -0.0000
vn 0.0506 0.9987 -0.0000
vn -0.0505 0.9987 -0.0000
vn -0.1324 0.9912 -0.0000
vn 0.5212 -0.0000 -0.8534
vn 0.5210 -0.0000 -0.8536
vn -0.3903 0.1534 0.9078
vn -0.3690 0.1450 0.9180
vn -0.3692 -0.1451 0.9180
vn -0.5687 -0.4009 0.7182
vn -0.4867 -0.4587 0.7435
vn -0.3902 -0.1533 0.9079
vn 0.3691 0.1451 0.9180
vn 0.3902 0.1533 0.9079
vn 0.8700 0.4930 -0.0000
vn 0.9403 -0.3403 -0.0000
vn 0.6579 0.0001 -0.7531
vn 0.2490 0.9685 -0.0000
vn 0.2490 -0.9685 -0.0000
vn -0.2490 0.9685 -0.0000
vn -0.2490 -0.9685 -0.0000
vn 0.9649 0.2625 -0.0000
vn 0.9650 -0.2624 -0.0000
vn -0.4850 -0.8400 0.2435
vn -0.4850 0.8400 0.2433
vn 0.4850 0.8400 0.2435
vn 0.9699 -0.0000 0.2436
vn -0.9699 -0.0000 0.2433
vn 0.4849 -0.8399 0.2436
vn -0.9651 0.2620 -0.0000
vn -1.0000 -0.0004 -0.0000
vn -0.9648 -0.2629 -0.0000
vn -0.4930 -0.8700 -0.0000
vn -0.9403 -0.3403 -0.0000
vn -0.8700 0.4930 -0.0000
vn 0.8700 -0.4930 -0.0000
vn 0.1913 -0.9815 -0.0000
vn -0.4930 0.8700 -0.0000
vn -0.9403 0.3403 -0.0000
vn -0.8700 -0.4930 -0.0000
vn 0.1913 0.9815 -0.0000
vn 0.9997 0.0249 -0.0000
vn -0.4924 0.8704 -0.0000
vn 0.9997 -0.0249 -0.0000
vn -0.4924 -0.8704 -0.0000
vn 0.4930 0.8700 -0.0000
vn 0.9403 0.3403 -0.0000
vn -0.1913 0.9815 -0.0000
vn 0.4930 -0.8700 -0.0000
vn -0.1913 -0.9815 -0.0000
vn -0.9997 -0.0249 -0.0000
vn 0.4924 -0.8704 -0.0000
vn -0.9997 0.0249 -0.0000
vn 0.4924 0.8704 -0.0000
vn -0.4849 -0.8400 0.2435
vt 0.360668 0.345896
vt 0.360669 0.099229
vt 0.587335 0.099229
vt 0.587335 0.345896
vt 0.360668 0.699229
vt 0.587335 0.699229
vt 0.587335 0.945896
vt 0.360668 0.945896
vt 0.614002 0.345896
vt 0.614002 0.079229
vt 0.620668 0.079229
vt 0.620669 0.345896
vt 0.140000 0.110000
vt 0.140000 0.043333
vt 0.146667 0.043333
vt 0.146667 0.110000
vt -0.136567 -0.109995
vt -0.136566 -0.043328
vt -0.403232 -0.043328
vt -0.403233 -0.109995
vt 0.123234 0.109998
vt 0.123233 0.043331
vt 0.389900 0.043331
vt 0.389900 0.109998
vt 0.146667 -0.110000
vt 0.146667 -0.043333
vt 0.140000 -0.043333
vt 0.139999 -0.110000
vt 0.327335 0.679229
vt 0.334002 0.679229
vt 0.334002 0.945896
vt 0.327335 0.945896
vt 0.847335 0.345897
vt 0.847335 0.079230
vt 0.854002 0.079230
vt 0.854002 0.345897
vt 0.373333 0.109999
vt 0.373333 0.043333
vt 0.380000 0.043333
vt 0.380000 0.109999
vt -0.136566 -0.043328
vt -0.403232 -0.043328
vt -0.403233 -0.109995
vt 0.123234 0.109998
vt 0.123233 0.043332
vt 0.389900 0.043331
vt 0.389900 0.109998
vt 0.380000 -0.110000
vt 0.379999 -0.043333
vt 0.373333 -0.043333
vt 0.373332 -0.110000
vt 0.094002 0.679229
vt 0.100669 0.679229
vt 0.100671 0.945899
vt 0.094003 0.945898
vt 0.850648 0.852559
vt 0.850648 0.845891
vt 1.117337 0.845897
vt 1.117337 0.852564
vt -0.153237 0.376671
vt -0.153235 0.470005
vt -0.159902 0.470005
vt -0.159904 0.376671
vt 0.366568 0.623331
vt 0.366568 0.529999
vt 0.373234 0.529999
vt 0.373235 0.623332
vt 0.643333 0.376667
vt 0.643334 0.470000
vt 0.376669 0.469999
vt 0.376668 0.376666
vt 0.330672 1.445908
vt 0.597325 1.445878
vt 0.597325 1.452545
vt 0.330672 1.452574
vt 0.620636 0.099214
vt 0.620636 0.092547
vt 0.847321 0.092552
vt 0.847321 0.099219
vt 0.146664 0.109999
vt 0.146664 0.043332
vt 0.373335 0.043333
vt 0.373335 0.110000
vt -0.149904 -0.109993
vt -0.149902 -0.043326
vt -0.156569 -0.043326
vt -0.156570 -0.109993
vt 0.369898 0.110002
vt 0.369897 0.043335
vt 0.376564 0.043335
vt 0.376564 0.110002
vt 0.373334 -0.109999
vt 0.373334 -0.043333
vt 0.146669 -0.043334
vt 0.146668 -0.110001
vt 0.100673 0.692564
vt 0.327326 0.692542
vt 0.327326 0.699210
vt 0.100673 0.699231
vt 0.754404 0.560251
vt 0.995593 0.560251
vt 0.995593 0.627249
vt 0.754404 0.627249
vt 0.747705 0.553552
vt 0.747705 0.633948
vt 0.741006 0.640648
vt 0.741006 0.546852
vt 1.002295 0.633948
vt 1.002295 0.553552
vt 1.008994 0.546852
vt 1.008994 0.640648
vt 0.752197 0.558046
vt 0.752197 0.629454
vt 0.997800 0.558046
vt 0.997800 0.629454
vt 0.761821 0.199509
vt 0.757722 0.227393
vt 0.744546 0.228267
vt 0.751039 0.195161
vt 0.860639 0.197541
vt 0.882774 0.197541
vt 0.882774 0.249555
vt 0.860639 0.249555
vt 0.768927 0.306466
vt 0.758812 0.312202
vt 0.747997 0.280245
vt 0.761176 0.279370
vt 0.783971 0.331384
vt 0.780543 0.306053
vt 0.790569 0.327619
vt 0.864040 0.301471
vt 0.862476 0.277702
vt 0.880743 0.277702
vt 0.879180 0.301471
vt 0.834241 0.291614
vt 0.829363 0.291614
vt 0.829365 0.239601
vt 0.834243 0.239600
vt 0.855761 0.195561
vt 0.860638 0.195561
vt 0.845002 0.213526
vt 0.840124 0.213526
vt 0.840123 0.317688
vt 0.845001 0.317688
vt 0.860638 0.335658
vt 0.855761 0.335658
vt 0.798088 0.239618
vt 0.802965 0.239618
vt 0.802967 0.291632
vt 0.798089 0.291632
vt 0.813726 0.317720
vt 0.808848 0.317720
vt 0.808847 0.213530
vt 0.813725 0.213530
vt 0.774354 0.278497
vt 0.770904 0.226516
vt 0.829363 0.335690
vt 0.824485 0.335690
vt 0.824485 0.195561
vt 0.829363 0.195561
vt 0.862476 0.169394
vt 0.880743 0.169394
vt 0.773438 0.172817
vt 0.766550 0.169616
vt 0.780478 0.175680
vt 0.773394 0.198382
vt 0.777566 0.335467
vt 0.780583 0.345291
vt 0.789193 0.340037
vt 0.789149 0.350067
vt 0.797855 0.334868
vt 0.798088 0.344674
vt 0.792016 0.169957
vt 0.790301 0.154266
vt 0.795575 0.156695
vt 0.798088 0.161354
vt 0.796641 0.166447
vt 0.860639 0.374271
vt 0.855761 0.374271
vt 0.855761 0.368416
vt 0.860639 0.368416
vt 0.879181 0.145625
vt 0.864041 0.145629
vt 0.829363 0.346059
vt 0.824485 0.346059
vt 0.855761 0.185192
vt 0.860638 0.185192
vt 0.768241 0.159476
vt 0.777470 0.163547
vt 0.786742 0.167529
vt 0.824485 0.185192
vt 0.829363 0.185192
vt 0.860638 0.346027
vt 0.855761 0.346027
vt 0.824486 0.145625
vt 0.829363 0.145625
vt 0.829363 0.151092
vt 0.824486 0.151092
vt 0.785676 0.157777
vt 0.776103 0.153606
vt 0.781453 0.154396
vt 0.794348 0.348580
vt 0.855761 0.380127
vt 0.860639 0.380127
vt 0.860639 0.385593
vt 0.855761 0.385593
vt 0.944521 0.267653
vt 0.944584 0.267578
vt 0.944630 0.267630
vt 0.944580 0.267690
vt 0.944538 0.267838
vt 0.944468 0.267838
vt 0.944482 0.267742
vt 0.944549 0.267761
vt 0.944765 0.268136
vt 0.944765 0.268214
vt 0.944698 0.268253
vt 0.944630 0.268214
vt 0.944630 0.268136
vt 0.944698 0.268097
vt 0.944482 0.267934
vt 0.944549 0.267915
vt 0.944521 0.268023
vt 0.944580 0.267986
vt 0.944584 0.268097
vt 0.944630 0.268045
vt 0.944683 0.267134
vt 0.944746 0.267059
vt 0.944793 0.267111
vt 0.944743 0.267171
vt 0.944700 0.267319
vt 0.944630 0.267319
vt 0.944644 0.267223
vt 0.944711 0.267242
vt 0.944765 0.266890
vt 0.944765 0.266968
vt 0.944698 0.267007
vt 0.944630 0.266968
vt 0.944630 0.266890
vt 0.944698 0.266852
vt 0.944644 0.267415
vt 0.944711 0.267396
vt 0.944683 0.267504
vt 0.944743 0.267467
vt 0.944746 0.267578
vt 0.944793 0.267526
vt 0.829362 0.380159
vt 0.829363 0.385625
vt 0.824484 0.385625
vt 0.824484 0.380159
vt 0.855760 0.151092
vt 0.855760 0.145625
vt 0.860639 0.145625
vt 0.860638 0.151092
vt 0.855760 0.168142
vt 0.855760 0.162803
vt 0.860638 0.162803
vt 0.860638 0.168142
vt 0.855760 0.156948
vt 0.860638 0.156948
vt 0.860638 0.179337
vt 0.855761 0.179337
vt 0.855760 0.173481
vt 0.860638 0.173481
vt 0.829362 0.363109
vt 0.829362 0.368448
vt 0.824485 0.368448
vt 0.824485 0.363109
vt 0.775518 0.147828
vt 0.762868 0.157273
vt 0.762282 0.151496
vt 0.765022 0.146964
vt 0.770144 0.145625
vt 0.829362 0.374303
vt 0.824484 0.374303
vt 0.824485 0.351914
vt 0.829363 0.351914
vt 0.829362 0.357770
vt 0.824485 0.357770
vt 0.824485 0.168142
vt 0.824485 0.162803
vt 0.829363 0.162803
vt 0.829363 0.168142
vt 0.882774 0.286290
vt 0.896424 0.278100
vt 0.896424 0.283956
vt 0.893216 0.288223
vt 0.887941 0.289046
vt 0.824485 0.156947
vt 0.829363 0.156947
vt 0.829363 0.179336
vt 0.824485 0.179336
vt 0.824485 0.173481
vt 0.829363 0.173481
vt 0.860639 0.363077
vt 0.855761 0.363077
vt 0.882774 0.291802
vt 0.896424 0.299992
vt 0.891258 0.302747
vt 0.885982 0.301924
vt 0.882774 0.297657
vt 0.855761 0.351882
vt 0.860638 0.351882
vt 0.860639 0.357738
vt 0.855761 0.357738
vt 0.882774 0.280435
vt 0.891258 0.275345
vt 0.896424 0.294136
vt 0.944584 0.268616
vt 0.944521 0.268542
vt 0.944580 0.268505
vt 0.944630 0.268564
vt 0.944549 0.268280
vt 0.944482 0.268260
vt 0.944521 0.268172
vt 0.944580 0.268209
vt 0.944482 0.268453
vt 0.944549 0.268434
vt 0.944468 0.268357
vt 0.944538 0.268357
vt 0.944630 0.266657
vt 0.944630 0.266579
vt 0.944698 0.266541
vt 0.944765 0.266579
vt 0.944765 0.266657
vt 0.944698 0.266696
vt 0.944630 0.268149
vt 0.944521 0.267134
vt 0.944584 0.267059
vt 0.944630 0.267111
vt 0.944580 0.267171
vt 0.944538 0.267319
vt 0.944468 0.267319
vt 0.944482 0.267223
vt 0.944549 0.267242
vt 0.944765 0.267981
vt 0.944765 0.268058
vt 0.944630 0.268058
vt 0.944630 0.267981
vt 0.944698 0.267942
vt 0.944482 0.267415
vt 0.944549 0.267396
vt 0.944521 0.267504
vt 0.944580 0.267467
vt 0.944630 0.267526
vt 0.944521 0.266615
vt 0.944584 0.266541
vt 0.944630 0.266592
vt 0.944580 0.266652
vt 0.944538 0.266800
vt 0.944468 0.266800
vt 0.944482 0.266704
vt 0.944549 0.266723
vt 0.944765 0.266735
vt 0.944765 0.266813
vt 0.944630 0.266813
vt 0.944630 0.266735
vt 0.944482 0.266896
vt 0.944549 0.266877
vt 0.944521 0.266985
vt 0.944580 0.266948
vt 0.944630 0.267008
vt 0.944521 0.268690
vt 0.944630 0.268668
vt 0.944580 0.268728
vt 0.944538 0.268876
vt 0.944468 0.268876
vt 0.944482 0.268779
vt 0.944549 0.268799
vt 0.944765 0.267617
vt 0.944765 0.267695
vt 0.944698 0.267734
vt 0.944630 0.267695
vt 0.944630 0.267617
vt 0.944698 0.267578
vt 0.944482 0.268972
vt 0.944549 0.268952
vt 0.944521 0.269061
vt 0.944580 0.269024
vt 0.944584 0.269135
vt 0.944630 0.269083
s 1
usemtl wood_6
f 96/269/17 98/270/17 94/271/17 92/272/17
f 93/273/18 97/274/18 95/275/18 91/276/18
f 104/277/17 106/278/17 102/279/17 100/280/17
f 103/281/19 104/282/19 100/283/19 99/284/19
f 105/285/20 106/286/20 104/287/20 103/288/20
f 99/289/21 100/290/21 102/291/21 101/292/21
f 101/293/22 102/294/22 106/295/22 105/296/22
f 101/297/18 105/298/18 103/299/18 99/300/18
f 112/301/17 114/302/17 110/303/17 108/304/17
f 111/305/19 112/306/19 108/307/19 107/308/19
f 113/285/20 114/309/20 112/310/20 111/311/20
f 107/312/21 108/313/21 110/314/21 109/315/21
f 109/316/22 110/317/22 114/318/22 113/319/22
f 109/320/18 113/321/18 111/322/18 107/323/18
f 129/324/17 118/325/17 116/326/17 127/327/17
f 117/328/20 118/329/20 129/330/20 130/331/20
f 128/332/21 127/333/21 116/334/21 115/335/21
f 115/336/22 116/337/22 118/338/22 117/339/22
f 115/340/18 117/341/18 130/342/18 128/343/18
f 124/344/17 126/345/17 122/346/17 120/347/17
f 123/348/19 124/349/19 120/350/19 119/351/19
f 125/352/20 126/353/20 124/354/20 123/355/20
f 119/356/21 120/357/21 122/358/21 121/359/21
f 121/360/22 122/361/22 126/362/22 125/363/22
f 121/364/18 125/365/18 123/366/18 119/367/18
f 139/368/17 144/369/17 134/369/17 132/368/17
f 142/370/17 135/371/17 131/371/17 133/370/17
f 144/369/23 142/370/23 133/370/23 134/369/23
f 138/372/19 136/373/19 127/374/19 128/375/19
f 134/369/19 133/370/19 131/371/19 132/368/19
f 141/376/19 145/377/19 130/378/19 129/379/19
f 145/377/19 138/372/19 128/375/19 130/378/19
f 136/373/19 141/376/19 129/379/19 127/374/19
f 136/373/24 138/372/24 140/380/25 137/381/25
f 137/381/25 140/380/25 139/368/26 135/371/26
f 142/370/27 144/369/27 146/382/28 143/383/28
f 143/383/28 146/382/28 145/377/29 141/376/29
f 144/369/30 139/368/30 140/380/31 146/382/31
f 146/382/31 140/380/31 138/372/32 145/377/32
f 141/376/33 136/373/33 137/381/34 143/383/34
f 143/383/34 137/381/34 135/371/35 142/370/35
f 135/371/23 139/368/23 132/368/23 131/371/23
usemtl metal_6
f 171/384/36 172/385/37 148/386/38 147/387/39
f 163/388/40 160/389/41 166/390/42 169/391/43
f 174/392/44 153/393/45 154/394/46 175/395/47
f 176/396/48 174/392/49 156/397/50 158/398/51
f 170/399/52 168/400/53 165/401/54 167/402/52
f 169/403/55 157/404/56 151/405/57 163/406/58
f 152/407/59 164/408/60 162/409/61 150/410/62
f 156/411/63 168/412/64 170/413/65 158/414/66
f 150/410/62 162/409/61 163/406/58 151/405/57
f 157/404/56 169/403/55 168/412/64 156/411/63
f 154/415/67 166/416/68 160/417/69 148/418/70
f 148/418/70 160/417/69 159/419/71 147/420/72
f 153/421/73 165/422/74 166/416/68 154/415/67
f 157/423/75 175/395/76 172/385/77 151/424/78
f 147/420/72 159/419/71 161/425/79 149/426/80
f 155/427/81 167/428/82 165/422/74 153/421/73
f 168/400/53 169/391/43 166/390/42 165/401/54
f 162/429/83 159/430/84 160/389/41 163/388/40
f 173/431/85 171/384/36 147/387/39 149/432/86
f 152/433/87 150/434/88 171/384/89 173/431/90
f 150/434/88 151/424/78 172/385/77 171/384/89
f 155/435/91 153/393/45 174/392/44 176/396/92
f 156/397/50 174/392/49 175/395/76 157/423/75
f 236/436/19 190/437/19 237/438/19
f 188/439/19 181/440/19 190/437/19
f 228/441/19 227/442/19 219/443/19 303/444/19 221/445/19
f 252/446/93 251/447/93 244/448/94 243/449/94
f 161/450/95 159/430/84 162/429/83 164/451/95
f 161/425/79 187/452/96 185/453/96 149/426/80
f 152/407/59 183/454/97 186/455/97 164/408/60
f 149/432/86 185/456/19 184/457/19 173/431/85
f 173/431/90 184/457/19 183/458/19 152/433/87
f 176/396/92 190/437/19 236/436/19 155/435/91
f 158/398/51 188/439/19 190/437/19 176/396/48
f 155/427/81 236/459/98 238/460/98 167/428/82
f 170/413/65 189/461/99 188/462/99 158/414/66
f 193/463/20 192/464/20 235/465/100 237/466/100
f 183/458/19 184/457/19 178/467/19
f 185/456/19 177/468/19 184/457/19
f 191/469/19 178/467/19 184/457/19
f 190/437/19 181/440/19 193/470/19
f 181/471/101 182/472/101 192/473/20 193/474/20
f 237/438/19 190/437/19 193/470/19
f 177/468/19 191/469/19 184/457/19
f 175/395/47 154/394/46 148/386/38 172/385/37
f 202/475/102 200/476/102 201/477/102 203/478/102
f 195/479/103 194/480/103 204/481/103 205/482/103
f 199/483/19 197/484/19 195/485/19 205/486/19 203/487/19 201/488/19
f 196/489/104 194/480/104 195/479/104 197/490/104
f 198/491/105 196/489/105 197/490/105 199/492/105
f 205/482/106 204/481/106 202/475/106 203/478/106
f 200/493/107 198/491/107 199/492/107 201/494/107
f 214/495/102 212/496/102 213/497/102 215/498/102
f 207/499/103 206/500/103 216/501/103 217/502/103
f 211/503/19 209/504/19 207/505/19 217/506/19 215/507/19 213/508/19
f 208/509/104 206/500/104 207/499/104 209/510/104
f 210/511/105 208/509/105 209/510/105 211/512/105
f 217/502/106 216/501/106 214/495/106 215/498/106
f 212/513/107 210/511/107 211/512/107 213/514/107
f 179/515/108 218/516/109 191/517/109 177/518/108
f 178/519/110 191/520/109 218/521/109 180/522/110
f 303/523/111 219/524/112 220/525/112 304/526/111
f 227/527/113 230/528/113 220/525/112 219/524/112
f 229/529/114 228/530/114 221/531/115 222/532/115
f 305/533/116 224/534/117 223/535/117 306/536/116
f 234/537/19 233/538/19 226/539/19 306/540/19 223/541/19
f 231/542/118 234/543/118 223/535/117 224/534/117
f 233/544/93 232/545/93 225/546/119 226/547/119
f 186/455/120 183/454/120 228/530/114 229/529/114
f 178/519/121 180/522/121 230/528/113 227/527/113
f 183/458/19 178/467/19 227/442/19 228/441/19
f 185/453/122 187/452/122 232/545/93 233/544/93
f 179/515/123 177/518/123 234/543/118 231/542/118
f 177/468/19 185/456/19 233/538/19 234/537/19
f 308/548/124 240/549/125 239/550/125 307/551/124
f 250/552/19 249/553/19 240/554/19 308/555/19 242/556/19
f 249/557/114 248/558/114 239/550/125 240/549/125
f 247/559/113 250/560/113 242/561/126 241/562/126
f 310/563/127 243/449/94 244/448/94 309/564/127
f 251/565/19 253/566/19 245/567/19 309/568/19 244/569/19
f 253/570/118 254/571/118 246/572/128 245/573/128
f 238/460/129 236/459/129 250/560/113 247/559/113
f 237/466/130 235/465/130 248/558/114 249/557/114
f 236/574/19 237/575/19 249/553/19 250/552/19
f 188/462/131 189/461/131 254/571/118 253/570/118
f 181/556/19 188/576/19 253/566/19 251/565/19
f 182/472/132 181/471/132 251/447/93 252/446/93
f 260/577/107 262/578/107 261/579/107 259/580/107
f 255/581/106 256/582/106 258/583/106 257/584/106
f 262/578/105 264/585/105 263/586/105 261/579/105
f 264/585/104 266/587/104 265/588/104 263/586/104
f 261/589/19 263/590/19 265/591/19 255/592/19 257/593/19 259/594/19
f 265/588/103 266/587/103 256/582/103 255/581/103
f 258/583/102 260/493/102 259/595/102 257/584/102
f 275/596/133 273/597/133 274/598/133 276/599/133
f 268/600/103 267/601/103 277/602/103 278/603/103
f 272/604/19 270/605/19 268/488/19 278/606/19 276/607/19 274/608/19
f 269/609/104 267/601/104 268/600/104 270/610/104
f 271/611/105 269/609/105 270/610/105 272/612/105
f 278/603/106 277/602/106 275/596/106 276/599/106
f 273/476/107 271/611/107 272/612/107 274/613/107
f 287/614/102 285/615/102 286/616/102 288/617/102
f 280/618/103 279/619/103 289/620/103 290/621/103
f 284/622/19 282/623/19 280/508/19 290/624/19 288/625/19 286/594/19
f 281/626/104 279/619/104 280/618/104 282/627/104
f 283/628/105 281/626/105 282/627/105 284/629/105
f 290/621/106 289/620/106 287/614/106 288/617/106
f 285/597/107 283/628/107 284/629/107 286/630/107
f 299/631/102 297/577/102 298/632/102 300/633/102
f 292/634/103 291/635/103 301/636/103 302/637/103
f 296/638/19 294/639/19 292/640/19 302/641/19 300/642/19 298/643/19
f 293/644/104 291/635/104 292/634/104 294/645/104
f 295/646/105 293/644/105 294/645/105 296/647/105
f 302/637/106 301/636/106 299/631/106 300/633/106
f 297/648/107 295/646/107 296/647/107 298/649/107
f 225/546/119 305/533/116 306/536/116 226/547/119
f 221/531/115 303/523/111 304/526/111 222/532/115
f 242/561/126 308/548/124 307/551/124 241/562/126
f 246/572/128 310/563/127 309/564/127 245/573/128
