# Blender 5.0.1
# www.blender.org
mtllib chair_mp_2_3.mtl
o chair_mp_2_3
v -0.195750 0.000000 0.195749
v -0.199687 0.562000 0.199686
v -0.195750 0.000000 0.155251
v -0.199687 0.562000 0.151313
v -0.155252 0.000000 0.195749
v -0.151314 0.562000 0.199686
v -0.155252 0.000000 0.155251
v -0.151314 0.562000 0.151313
v 0.195748 0.000000 -0.155251
v 0.199686 0.562000 -0.151314
v 0.195748 0.000000 -0.195749
v 0.199686 0.562000 -0.199687
v 0.199686 0.562000 0.151313
v 0.195748 0.000000 0.155251
v 0.199686 0.562000 0.199686
v 0.195748 0.000000 0.195749
v 0.151313 0.562000 0.151313
v 0.155251 0.000000 0.155251
v 0.151313 0.562000 0.199686
v 0.155251 0.000000 0.195749
v 0.155251 0.000000 -0.155251
v 0.151313 0.562000 -0.151314
v 0.155251 0.000000 -0.195749
v 0.151313 0.562000 -0.199687
v -0.155252 0.000000 -0.155251
v -0.151314 0.562000 -0.151314
v -0.155252 0.000000 -0.195749
v -0.151314 0.562000 -0.199687
v -0.195750 0.000000 -0.155251
v -0.199687 0.562000 -0.151314
v -0.195750 0.000000 -0.195749
v -0.199687 0.562000 -0.199687
v -0.162002 0.396000 0.184500
v -0.162002 0.432000 0.184500
v -0.162003 0.396000 0.166500
v -0.162002 0.432000 0.166500
v 0.161998 0.396000 0.184500
v 0.161998 0.432000 0.184500
v 0.161998 0.396000 0.166500
v 0.161998 0.432000 0.166500
v -0.162002 0.396000 -0.166500
v -0.162002 0.432000 -0.166500
v -0.162003 0.396000 -0.184500
v -0.162002 0.432000 -0.184500
v 0.161998 0.396000 -0.166500
v 0.161998 0.432000 -0.166500
v 0.161998 0.396000 -0.184500
v 0.161998 0.432000 -0.184500
v -0.184504 0.396000 -0.166500
v -0.184504 0.432000 -0.166500
v -0.166504 0.396000 -0.166500
v -0.166504 0.432000 -0.166500
v -0.184504 0.396000 0.166501
v -0.184504 0.432000 0.166501
v -0.166504 0.396000 0.166501
v -0.166504 0.432000 0.166500
v 0.166496 0.396000 -0.166500
v 0.166496 0.432000 -0.166500
v 0.184496 0.396000 -0.166500
v 0.184496 0.432000 -0.166500
v 0.166496 0.396000 0.166501
v 0.166496 0.432000 0.166501
v 0.184496 0.396000 0.166501
v 0.184496 0.432000 0.166500
v -0.184277 0.562000 0.230344
v -0.230346 0.562000 0.184275
v -0.207312 0.562000 0.224172
v -0.224174 0.562000 0.207309
v -0.230346 0.594000 0.184275
v -0.184277 0.594000 0.230344
v -0.224174 0.594000 0.207309
v -0.207312 0.594000 0.224172
v -0.230347 0.562000 -0.184275
v -0.184278 0.562000 -0.230344
v -0.224175 0.562000 -0.207310
v -0.207312 0.562000 -0.224172
v -0.184277 0.594000 -0.230344
v -0.230346 0.594000 -0.184275
v -0.207312 0.594000 -0.224172
v -0.224174 0.594000 -0.207310
v 0.230342 0.562000 0.184275
v 0.184273 0.562000 0.230344
v 0.224170 0.562000 0.207309
v 0.207308 0.562000 0.224172
v 0.184273 0.594000 0.230344
v 0.230342 0.594000 0.184275
v 0.207308 0.594000 0.224172
v 0.224170 0.594000 0.207309
v 0.184273 0.562000 -0.230344
v 0.230342 0.562000 -0.184275
v 0.207308 0.562000 -0.224172
v 0.224170 0.562000 -0.207310
v 0.230341 0.594000 -0.184275
v 0.184273 0.594000 -0.230344
v 0.224169 0.594000 -0.207310
v 0.207307 0.594000 -0.224172
vn -0.0000 -1.0000 -0.0000
vn -0.0000 -0.0070 1.0000
vn 1.0000 -0.0070 -0.0000
vn -1.0000 -0.0070 -0.0000
vn -0.0000 -0.0070 -1.0000
vn -0.0000 1.0000 -0.0000
vn -0.0000 -0.0000 1.0000
vn -0.0000 -0.0000 -1.0000
vn 0.1305 -0.0000 -0.9914
vn -0.1305 -0.0000 -0.9914
vn 0.1305 -0.0000 0.9914
vn -0.1305 -0.0000 0.9914
vn 0.9914 -0.0000 -0.1305
vn 0.9914 -0.0000 0.1305
vn -1.0000 -0.0000 -0.0000
vn 1.0000 -0.0000 -0.0000
vn -0.9914 -0.0000 0.1305
vn -0.8660 -0.0000 0.5000
vn -0.5000 -0.0000 0.8660
vn 0.5000 -0.0000 0.8660
vn 0.8660 -0.0000 0.5000
vn 0.8660 -0.0000 -0.5000
vn 0.5000 -0.0000 -0.8660
vn -0.9914 -0.0000 -0.1305
vn -0.8660 -0.0000 -0.5000
vn -0.5000 -0.0000 -0.8660
vt 0.414960 0.661625
vt 0.414958 0.631625
vt 0.444956 0.631625
vt 0.444958 0.661625
vt -0.058215 0.631655
vt 0.357976 0.628741
vt 0.357976 0.664573
vt -0.058215 0.661654
vt -0.065560 0.648332
vt 0.350629 0.645418
vt 0.350629 0.681249
vt -0.065560 0.678333
vt -0.081059 0.678333
vt 0.335131 0.681249
vt 0.335131 0.645419
vt -0.081059 0.648333
vt -0.055076 0.661679
vt 0.361115 0.664592
vt 0.361115 0.628759
vt -0.055076 0.631681
vt -0.065084 0.678334
vt 0.351106 0.681250
vt 0.351106 0.645418
vt -0.065084 0.648332
vt -0.055062 0.401677
vt 0.361126 0.404585
vt 0.361127 0.368755
vt -0.055061 0.371679
vt -0.058205 0.371659
vt 0.357985 0.368740
vt 0.357984 0.404575
vt -0.058206 0.401660
vt -0.081535 0.648334
vt 0.334654 0.645419
vt 0.334654 0.681249
vt -0.081535 0.678332
vt 0.415017 0.401661
vt 0.415018 0.371661
vt 0.445017 0.371662
vt 0.445016 0.401661
vt -0.056674 0.401666
vt 0.359514 0.404583
vt 0.359513 0.368751
vt -0.056674 0.371668
vt -0.065084 0.285001
vt 0.351106 0.287916
vt 0.351106 0.252084
vt -0.065084 0.255000
vt -0.081535 0.255001
vt 0.334654 0.252085
vt 0.334655 0.287915
vt -0.081535 0.284999
vt -0.056630 0.371670
vt 0.359560 0.368754
vt 0.359561 0.404584
vt -0.056629 0.401667
vt 0.021666 0.401666
vt 0.021667 0.371666
vt 0.051665 0.371666
vt 0.051664 0.401666
vt -0.056665 0.661688
vt 0.359525 0.664598
vt 0.359525 0.628768
vt -0.056665 0.631690
vt -0.081059 0.285000
vt 0.335131 0.287915
vt 0.335131 0.252085
vt -0.081059 0.255000
vt -0.065560 0.255000
vt 0.350630 0.252085
vt 0.350630 0.287915
vt -0.065560 0.285001
vt -0.056613 0.631656
vt 0.359575 0.628740
vt 0.359574 0.664574
vt -0.056614 0.661654
vt 0.021663 0.661678
vt 0.021663 0.631681
vt 0.051661 0.631681
vt 0.051661 0.661678
vt 0.137335 0.309229
vt 0.137335 0.295896
vt 0.377335 0.295896
vt 0.377335 0.309229
vt -0.336667 0.350000
vt -0.336667 0.323333
vt -0.096666 0.323333
vt -0.096666 0.350000
vt -0.096667 -0.349999
vt -0.096667 -0.323333
vt -0.336666 -0.323333
vt -0.336667 -0.349999
vt 0.070669 0.895896
vt 0.310669 0.895896
vt 0.310669 0.909230
vt 0.070668 0.909230
vt 0.353167 0.482963
vt 0.080166 0.482963
vt 0.080166 0.506667
vt 0.353167 0.506667
vt 0.120835 0.343188
vt 0.103772 0.338616
vt 0.091282 0.326125
vt 0.086710 0.309063
vt 0.086710 0.036063
vt 0.091282 0.019000
vt 0.103773 0.006510
vt 0.120835 0.001938
vt 0.393835 0.001938
vt 0.410898 0.006510
vt 0.423388 0.019000
vt 0.427960 0.036063
vt 0.427960 0.309063
vt 0.423388 0.326125
vt 0.410898 0.338616
vt 0.393835 0.343188
vt 0.020043 0.636063
vt 0.024615 0.619000
vt 0.037106 0.606509
vt 0.054168 0.601937
vt 0.327169 0.601938
vt 0.344231 0.606510
vt 0.356722 0.619000
vt 0.361294 0.636063
vt 0.361294 0.909063
vt 0.356722 0.926125
vt 0.344231 0.938616
vt 0.327169 0.943188
vt 0.054168 0.943188
vt 0.037106 0.938616
vt 0.024615 0.926125
vt 0.020043 0.909063
vt -0.353167 -0.126296
vt -0.353167 -0.150000
vt -0.080166 -0.150000
vt -0.080166 -0.126296
vt -0.342965 -0.126732
vt -0.366669 -0.126731
vt -0.366669 -0.399731
vt -0.342965 -0.399731
vt 0.137323 0.049229
vt 0.137323 0.035896
vt 0.377326 0.035896
vt 0.377327 0.049229
vt -0.336667 0.350000
vt 0.070679 0.635895
vt 0.310676 0.635893
vt 0.310676 0.649227
vt 0.070679 0.649228
vt 0.137328 0.175896
vt 0.137328 0.162562
vt 0.377331 0.162563
vt 0.377331 0.175896
vt -0.096666 0.350000
vt -0.096667 -0.349999
vt -0.336667 -0.349999
vt 0.070675 0.762562
vt 0.310672 0.762562
vt 0.310671 0.775894
vt 0.070675 0.775895
vt -0.066664 0.125969
vt -0.090367 0.125969
vt -0.090367 0.091844
vt -0.066664 0.091844
vt -0.049802 -0.150000
vt -0.049802 -0.126296
vt -0.066864 -0.126296
vt -0.066864 -0.150000
vt -0.064306 -0.150000
vt -0.064306 -0.126296
vt -0.081368 -0.126296
vt -0.081368 -0.150000
vt -0.351965 -0.150000
vt -0.351965 -0.126296
vt -0.369028 -0.126296
vt -0.369028 -0.150000
vt -0.366469 -0.150000
vt -0.366469 -0.126296
vt -0.383531 -0.126296
vt -0.383532 -0.150000
vt -0.366669 -0.434619
vt -0.342965 -0.434619
vt -0.342965 -0.400495
vt -0.366669 -0.400494
vt -0.366669 -0.125968
vt -0.342965 -0.125968
vt -0.342965 -0.091843
vt -0.366669 -0.091843
vt 0.383532 0.506667
vt 0.383532 0.482963
vt 0.366469 0.482963
vt 0.366469 0.506667
vt 0.369028 0.506667
vt 0.369028 0.482963
vt 0.351965 0.482963
vt 0.351965 0.506667
vt -0.090367 0.400495
vt -0.066664 0.400495
vt -0.066664 0.434620
vt -0.090367 0.434620
vt 0.049802 0.482963
vt 0.049802 0.506667
vt 0.066864 0.506667
vt 0.066864 0.482963
vt 0.064306 0.482963
vt 0.064305 0.506667
vt 0.081368 0.506667
vt 0.081368 0.482963
vt -0.090367 0.126732
vt -0.066664 0.126732
vt -0.066664 0.399732
vt -0.090367 0.399732
s 1
usemtl wood_5
f 3/1/1 7/2/1 5/3/1 1/4/1
f 5/5/2 6/6/2 2/7/2 1/8/2
f 7/9/3 8/10/3 6/11/3 5/12/3
f 1/13/4 2/14/4 4/15/4 3/16/4
f 3/17/5 4/18/5 8/19/5 7/20/5
f 20/21/4 19/22/4 17/23/4 18/24/4
f 18/25/5 17/26/5 13/27/5 14/28/5
f 16/29/2 15/30/2 19/31/2 20/32/2
f 14/33/3 13/34/3 15/35/3 16/36/3
f 18/37/1 14/38/1 16/39/1 20/40/1
f 23/41/5 24/42/5 12/43/5 11/44/5
f 21/45/4 22/46/4 24/47/4 23/48/4
f 11/49/3 12/50/3 10/51/3 9/52/3
f 9/53/2 10/54/2 22/55/2 21/56/2
f 23/57/1 11/58/1 9/59/1 21/60/1
f 31/61/5 32/62/5 28/63/5 27/64/5
f 29/65/4 30/66/4 32/67/4 31/68/4
f 27/69/3 28/70/3 26/71/3 25/72/3
f 25/73/2 26/74/2 30/75/2 29/76/2
f 31/77/1 27/78/1 25/79/1 29/80/1
f 38/81/6 40/82/6 36/83/6 34/84/6
f 37/85/7 38/86/7 34/87/7 33/88/7
f 35/89/8 36/90/8 40/91/8 39/92/8
f 35/93/1 39/94/1 37/95/1 33/96/1
f 89/97/9 74/98/10 77/99/10 94/100/9
f 85/101/6 87/102/6 88/103/6 86/104/6 93/105/6 95/106/6 96/107/6 94/108/6 77/109/6 79/110/6 80/111/6 78/112/6 69/113/6 71/114/6 72/115/6 70/116/6
f 73/117/1 75/118/1 76/119/1 74/120/1 89/121/1 91/122/1 92/123/1 90/124/1 81/125/1 83/126/1 84/127/1 82/128/1 65/129/1 67/130/1 68/131/1 66/132/1
f 82/133/11 85/134/11 70/135/12 65/136/12
f 90/137/13 93/138/13 86/139/14 81/140/14
f 46/141/6 48/142/6 44/143/6 42/144/6
f 45/145/7 46/86/7 42/87/7 41/88/7
f 43/89/8 44/90/8 48/91/8 47/92/8
f 43/146/1 47/147/1 45/148/1 41/149/1
f 54/150/6 56/151/6 52/152/6 50/153/6
f 53/85/15 54/86/15 50/87/15 49/154/15
f 51/155/16 52/90/16 56/91/16 55/156/16
f 51/157/1 55/158/1 53/159/1 49/160/1
f 62/150/6 64/151/6 60/152/6 58/153/6
f 61/85/15 62/86/15 58/87/15 57/154/15
f 59/155/16 60/90/16 64/91/16 63/156/16
f 59/157/1 63/158/1 61/159/1 57/160/1
f 69/161/17 66/162/17 68/163/18 71/164/18
f 71/165/18 68/166/18 67/167/19 72/168/19
f 72/169/19 67/170/19 65/171/12 70/172/12
f 85/173/11 82/174/11 84/175/20 87/176/20
f 87/177/20 84/178/20 83/179/21 88/180/21
f 88/181/21 83/182/21 81/183/14 86/184/14
f 93/185/13 90/186/13 92/187/22 95/188/22
f 95/189/22 92/190/22 91/191/23 96/192/23
f 96/193/23 91/194/23 89/195/9 94/196/9
f 73/197/24 78/198/24 80/199/25 75/200/25
f 75/201/25 80/202/25 79/203/26 76/204/26
f 76/205/26 79/206/26 77/207/10 74/208/10
f 66/209/17 69/210/17 78/211/24 73/212/24
