# Blender 5.0.1
# www.blender.org
mtllib chair_mp_3_2.mtl
o chair_mp_3_2
v -0.168002 0.506000 0.206500
v -0.168002 0.562000 0.206500
v -0.168003 0.506000 0.188500
v -0.168002 0.562000 0.188500
v 0.167998 0.506000 0.206500
v 0.167998 0.562000 0.206500
v 0.167998 0.506000 0.188500
v 0.167998 0.562000 0.188500
v -0.168002 0.486000 -0.191500
v -0.168002 0.522000 -0.191500
v -0.168003 0.486000 -0.209500
v -0.168002 0.522000 -0.209500
v 0.167998 0.486000 -0.191500
v 0.167998 0.522000 -0.191500
v 0.167998 0.486000 -0.209500
v 0.167998 0.522000 -0.209500
v -0.188504 0.506000 -0.181999
v -0.188504 0.562000 -0.181999
v -0.170504 0.506000 -0.182000
v -0.170504 0.562000 -0.181999
v -0.188504 0.506000 0.182001
v -0.188504 0.562000 0.182001
v -0.170504 0.506000 0.182001
v -0.170504 0.562000 0.182001
v 0.170496 0.506000 -0.181999
v 0.170496 0.562000 -0.181999
v 0.188496 0.506000 -0.182000
v 0.188496 0.562000 -0.181999
v 0.170496 0.506000 0.182001
v 0.170496 0.562000 0.182001
v 0.188496 0.506000 0.182001
v 0.188496 0.562000 0.182001
v -0.220750 0.000000 0.245749
v -0.194687 0.562000 0.219686
v -0.220750 0.000000 0.205251
v -0.194687 0.562000 0.171313
v -0.195252 0.000000 0.245749
v -0.161314 0.562000 0.219686
v -0.195252 0.000000 0.205251
v -0.161314 0.562000 0.171313
v 0.220748 0.000000 -0.225251
v 0.194686 0.562000 -0.171314
v 0.220748 0.000000 -0.265749
v 0.194686 0.562000 -0.219687
v 0.194686 0.562000 0.171313
v 0.220748 0.000000 0.205251
v 0.194686 0.562000 0.219686
v 0.220748 0.000000 0.245749
v 0.161313 0.562000 0.171313
v 0.195250 0.000000 0.205251
v 0.161313 0.562000 0.219686
v 0.195250 0.000000 0.245749
v 0.195250 0.000000 -0.225251
v 0.161313 0.562000 -0.171314
v 0.195250 0.000000 -0.265749
v 0.161313 0.562000 -0.219687
v -0.195252 0.000000 -0.225251
v -0.161314 0.562000 -0.171314
v -0.195252 0.000000 -0.265749
v -0.161314 0.562000 -0.219687
v -0.220750 0.000000 -0.225251
v -0.194687 0.562000 -0.171314
v -0.220750 0.000000 -0.265749
v -0.194687 0.562000 -0.219687
v -0.000103 0.994057 -0.232112
v -0.000103 0.995384 -0.219482
v -0.000102 0.774189 -0.209003
v -0.000102 0.775516 -0.196373
v 0.118957 0.995963 -0.213973
v 0.118957 0.994636 -0.226603
v 0.118958 0.774768 -0.203494
v 0.118958 0.776095 -0.190864
v -0.119163 0.994636 -0.226603
v -0.119163 0.774768 -0.203494
v -0.119163 0.776095 -0.190864
v -0.119163 0.995963 -0.213973
v -0.175671 0.944813 -0.213298
v -0.149705 0.944813 -0.213298
v -0.175671 0.944813 -0.235514
v -0.149705 0.944813 -0.235514
v 0.149704 0.944813 -0.213298
v 0.175670 0.944813 -0.213298
v 0.149704 0.944813 -0.235514
v 0.175670 0.944813 -0.235514
v -0.000002 0.506000 0.188500
v -0.000002 0.552000 0.188500
v -0.000002 0.506000 0.206500
v -0.000002 0.552000 0.206500
v -0.188223 0.775547 -0.195763
v -0.238223 0.825941 -0.194400
v -0.213223 0.782505 -0.193532
v -0.231525 0.800951 -0.193033
v -0.238223 0.827269 -0.181769
v -0.188223 0.776874 -0.183132
v -0.231524 0.802278 -0.180402
v -0.213223 0.783832 -0.180901
v -0.238223 0.946149 -0.204615
v -0.188224 0.995415 -0.216305
v -0.231525 0.970988 -0.207731
v -0.213224 0.989021 -0.212010
v -0.188223 0.996742 -0.203675
v -0.238223 0.947476 -0.191985
v -0.213223 0.990348 -0.199380
v -0.231524 0.972316 -0.195101
v 0.238017 0.825941 -0.194400
v 0.188017 0.775547 -0.195763
v 0.231319 0.800950 -0.193033
v 0.213017 0.782505 -0.193532
v 0.188017 0.776874 -0.183132
v 0.238017 0.827269 -0.181769
v 0.213017 0.783832 -0.180901
v 0.231319 0.802278 -0.180402
v 0.188019 0.995415 -0.216305
v 0.238018 0.946149 -0.204615
v 0.213018 0.989021 -0.212010
v 0.231319 0.970988 -0.207731
v 0.238017 0.947476 -0.191985
v 0.188018 0.996742 -0.203675
v 0.231319 0.972316 -0.195101
v 0.213018 0.990348 -0.199380
v -0.000003 0.545808 -0.170204
v -0.000003 0.558508 -0.170204
v -0.000002 0.545808 0.246875
v -0.000002 0.558508 0.246875
v 0.119057 0.564048 -0.170204
v 0.119058 0.551348 -0.170204
v 0.119058 0.551348 0.246875
v 0.119058 0.564048 0.246875
v -0.119063 0.551348 -0.170204
v -0.119062 0.551348 0.246875
v -0.119062 0.564048 0.246875
v -0.119062 0.564048 -0.170204
v -0.188123 0.560412 0.246875
v -0.238123 0.566975 0.196875
v -0.213123 0.563693 0.240177
v -0.231424 0.566095 0.221875
v -0.238122 0.579674 0.196875
v -0.188123 0.573112 0.246875
v -0.231423 0.578795 0.221875
v -0.213122 0.576393 0.240177
v -0.238123 0.566975 -0.120204
v -0.188123 0.560412 -0.170204
v -0.231424 0.566095 -0.145204
v -0.213123 0.563693 -0.163505
v -0.188123 0.573112 -0.170203
v -0.238122 0.579674 -0.120203
v -0.213123 0.576393 -0.163504
v -0.231424 0.578795 -0.145203
v 0.238119 0.566975 0.196875
v 0.188119 0.560412 0.246875
v 0.231420 0.566095 0.221875
v 0.213119 0.563693 0.240177
v 0.188119 0.573112 0.246875
v 0.238118 0.579674 0.196875
v 0.213119 0.576393 0.240177
v 0.231420 0.578795 0.221875
v 0.188118 0.560412 -0.170204
v 0.238118 0.566975 -0.120204
v 0.213118 0.563693 -0.163505
v 0.231419 0.566095 -0.145204
v 0.238117 0.579674 -0.120204
v 0.188117 0.573112 -0.170204
v 0.231419 0.578795 -0.145204
v 0.213117 0.576393 -0.163505
vn -0.0000 -0.0000 1.0000
vn -0.0000 -0.0000 -1.0000
vn -0.0000 -1.0000 -0.0000
vn -1.0000 -0.0000 -0.0000
vn 1.0000 -0.0000 -0.0000
vn -0.0000 1.0000 -0.0000
vn -0.0000 0.0463 0.9989
vn 0.9982 -0.0603 -0.0000
vn -0.9989 0.0463 -0.0000
vn -0.0000 -0.0603 -0.9982
vn -0.9982 -0.0603 -0.0000
vn 0.9989 0.0463 -0.0000
vn -0.0000 0.0817 -0.9967
vn -0.0000 -0.0955 0.9954
vn -0.0020 0.9945 -0.1045
vn -0.0044 0.9945 -0.1045
vn -0.0023 0.9945 -0.1045
vn -0.1299 0.0943 0.9870
vn -0.0882 0.0995 0.9911
vn -0.0883 0.0994 0.9911
vn 0.0883 0.0994 0.9911
vn 0.0882 0.0995 0.9911
vn 0.1299 0.0943 0.9870
vn 0.0044 0.9945 -0.1045
vn 0.0020 0.9945 -0.1045
vn 0.0023 0.9945 -0.1045
vn 0.0882 -0.0995 -0.9911
vn 0.1299 -0.0943 -0.9870
vn 0.0883 -0.0994 -0.9911
vn -0.0000 0.9945 -0.1045
vn -0.0882 -0.0995 -0.9911
vn -0.0000 -0.1045 -0.9945
vn -0.0883 -0.0994 -0.9911
vn -0.0002 -0.9945 0.1045
vn -0.0003 -0.9945 0.1045
vn -0.0000 -0.9945 0.1045
vn -0.0000 0.1045 0.9945
vn -0.0005 -0.9945 0.1045
vn -0.1299 -0.0943 -0.9870
vn 0.0003 -0.9945 0.1045
vn 0.0002 -0.9945 0.1045
vn 0.0005 -0.9945 0.1045
vn -0.0000 0.1090 0.9940
vn 0.9995 -0.0303 -0.0000
vn -0.0000 -0.0413 -0.9991
vn 0.9988 0.0496 -0.0000
vn -0.9988 0.0496 -0.0000
vn -0.9995 -0.0303 -0.0000
vn -0.2584 -0.9608 0.1010
vn -0.5150 -0.8525 0.0896
vn -0.4844 -0.8700 0.0914
vn -0.8720 -0.4868 0.0512
vn -0.8599 -0.5076 0.0534
vn -0.9659 -0.2574 0.0271
vn 0.2584 -0.9607 0.1010
vn 0.4844 -0.8700 0.0914
vn 0.5150 -0.8525 0.0896
vn 0.8599 -0.5076 0.0534
vn 0.8720 -0.4868 0.0512
vn 0.9659 -0.2574 0.0271
vn 0.9660 0.2571 -0.0270
vn 0.8620 0.5041 -0.0529
vn 0.8714 0.4879 -0.0512
vn 0.4860 0.8692 -0.0913
vn 0.5197 0.8497 -0.0893
vn 0.2627 0.9596 -0.1008
vn -0.9660 0.2571 -0.0270
vn -0.8714 0.4879 -0.0512
vn -0.8620 0.5041 -0.0529
vn -0.5197 0.8497 -0.0893
vn -0.4860 0.8692 -0.0913
vn -0.2627 0.9596 -0.1008
vn 0.9913 -0.0000 -0.1319
vn 0.9916 -0.0000 -0.1291
vn 0.9916 -0.0000 0.1291
vn 0.9913 -0.0000 0.1319
vn -0.1199 -0.0000 -0.9928
vn -0.1412 -0.0000 -0.9900
vn -0.1301 0.9915 -0.0000
vn -0.0884 0.9961 -0.0000
vn 0.0884 0.9961 -0.0000
vn 0.1301 0.9915 -0.0000
vn 0.1199 -0.0000 -0.9928
vn 0.1412 -0.0000 -0.9900
vn 0.0884 -0.9961 -0.0000
vn 0.1301 -0.9915 -0.0000
vn -0.0884 -0.9961 -0.0000
vn 0.1199 -0.0000 0.9928
vn 0.1412 -0.0000 0.9900
vn -0.1301 -0.9915 -0.0000
vn -0.2588 -0.0000 0.9659
vn -0.5162 -0.0000 0.8565
vn -0.4840 -0.0000 0.8751
vn -0.8715 0.0001 0.4905
vn -0.8607 0.0001 0.5091
vn -0.9916 0.0001 0.1291
vn -0.9913 0.0001 0.1319
vn 0.4839 -0.0000 0.8751
vn 0.5162 -0.0000 0.8565
vn 0.8607 -0.0000 0.5091
vn 0.8715 -0.0000 0.4905
vn 0.5162 -0.0000 -0.8565
vn 0.4839 -0.0000 -0.8751
vn 0.8715 -0.0000 -0.4905
vn 0.8607 -0.0000 -0.5091
vn -0.9913 -0.0000 -0.1319
vn -0.9916 -0.0000 -0.1291
vn -0.8715 -0.0000 -0.4905
vn -0.8607 -0.0000 -0.5091
vn -0.5162 -0.0000 -0.8565
vn -0.4839 -0.0000 -0.8751
vt 0.033333 0.055185
vt 0.033332 0.021111
vt 0.157777 0.013704
vt 0.157777 0.055185
vt 0.033334 -0.055186
vt 0.033335 -0.021112
vt -0.091109 -0.013705
vt -0.091109 -0.055186
vt 0.440668 0.912193
vt 0.565113 0.912193
vt 0.565113 0.925526
vt 0.440668 0.925526
vt -0.091112 0.070000
vt -0.091112 0.043333
vt 0.157777 0.043333
vt 0.157777 0.070000
vt 0.157778 -0.070001
vt 0.157778 -0.043334
vt -0.091109 -0.043335
vt -0.091109 -0.070001
vt 0.316235 0.617377
vt 0.565122 0.617377
vt 0.565121 0.630712
vt 0.316234 0.630711
vt -0.101482 0.055185
vt -0.101483 0.013704
vt 0.168147 0.013704
vt 0.168148 0.055185
vt 0.168149 -0.055186
vt 0.168149 -0.013705
vt -0.101479 -0.013705
vt -0.101480 -0.055187
vt 0.305853 0.898859
vt 0.575484 0.898860
vt 0.575483 0.912193
vt 0.305853 0.912193
vt -0.101483 0.013704
vt 0.168147 0.013704
vt 0.168148 0.055185
vt 0.168149 -0.055186
vt 0.168149 -0.013705
vt -0.101479 -0.013705
vt -0.101480 -0.055187
vt 0.305864 0.632934
vt 0.575492 0.632934
vt 0.575491 0.646268
vt 0.305863 0.646268
vt -0.101477 -0.038069
vt 0.168150 -0.038068
vt 0.168149 -0.010659
vt -0.101480 -0.010660
vt -0.101482 0.010659
vt 0.168148 0.010658
vt 0.168146 0.038067
vt -0.101485 0.038068
vt 0.701998 0.680144
vt 0.701997 0.661256
vt 0.731995 0.661256
vt 0.731995 0.680144
vt 0.192045 0.661285
vt 0.608080 0.636149
vt 0.608080 0.660870
vt 0.192044 0.680173
vt 0.184626 0.685372
vt 0.600971 0.660232
vt 0.600971 0.696062
vt 0.184626 0.715373
vt 0.169663 0.715374
vt 0.585696 0.696063
vt 0.585697 0.660233
vt 0.169663 0.685373
vt 0.194665 0.680198
vt 0.611011 0.660888
vt 0.611011 0.636168
vt 0.194665 0.661311
vt 0.185103 0.715374
vt 0.601448 0.696063
vt 0.601448 0.660233
vt 0.185103 0.685373
vt 0.194679 0.372047
vt 0.611022 0.397177
vt 0.611023 0.372458
vt 0.194680 0.353161
vt 0.192055 0.353138
vt 0.608089 0.372444
vt 0.608088 0.397167
vt 0.192055 0.372027
vt 0.169186 0.685372
vt 0.585220 0.660233
vt 0.585220 0.696063
vt 0.169186 0.715372
vt 0.702056 0.372030
vt 0.702057 0.353142
vt 0.732056 0.353142
vt 0.732055 0.372030
vt 0.192900 0.372037
vt 0.609618 0.397176
vt 0.609617 0.372455
vt 0.192900 0.353149
vt 0.185103 0.233145
vt 0.601448 0.273101
vt 0.601448 0.237270
vt 0.185103 0.203144
vt 0.169186 0.203147
vt 0.585220 0.237271
vt 0.585220 0.273101
vt 0.169186 0.233146
vt 0.192218 0.353153
vt 0.609457 0.372457
vt 0.609457 0.397176
vt 0.192219 0.372039
vt 0.219815 0.372035
vt 0.219816 0.353147
vt 0.249813 0.353147
vt 0.249813 0.372035
vt 0.192909 0.680207
vt 0.609629 0.660895
vt 0.609629 0.636175
vt 0.192909 0.661319
vt 0.169663 0.233144
vt 0.585697 0.273101
vt 0.585697 0.237271
vt 0.169663 0.203144
vt 0.184626 0.203145
vt 0.600971 0.237271
vt 0.600972 0.273101
vt 0.184626 0.233145
vt 0.192235 0.661286
vt 0.609471 0.636149
vt 0.609471 0.660870
vt 0.192235 0.680173
vt 0.219812 0.680196
vt 0.219812 0.661310
vt 0.249810 0.661310
vt 0.249810 0.680196
vt -0.094115 -0.417474
vt -0.103003 -0.417474
vt -0.101319 -0.501897
vt -0.092431 -0.501897
vt 0.380464 0.472354
vt 0.332126 0.479582
vt 0.332126 0.488468
vt 0.380463 0.481243
vt 0.504662 0.571208
vt 0.487129 0.566527
vt 0.474270 0.553723
vt 0.469532 0.536227
vt 0.469320 0.451800
vt 0.473993 0.434281
vt 0.486847 0.421416
vt 0.504437 0.416652
vt 0.553062 0.416445
vt 0.553062 0.571185
vt 0.717272 0.571185
vt 0.717272 0.416445
vt 0.765897 0.416652
vt 0.783487 0.421416
vt 0.796341 0.434281
vt 0.801014 0.451800
vt 0.800803 0.536227
vt 0.796064 0.553723
vt 0.783206 0.566527
vt 0.765673 0.571208
vt 0.595468 0.479579
vt 0.547130 0.472354
vt 0.547130 0.481243
vt 0.595469 0.488464
vt 0.520901 0.735195
vt 0.569526 0.735402
vt 0.587117 0.740166
vt 0.599970 0.753031
vt 0.604643 0.770550
vt 0.604431 0.854977
vt 0.599693 0.872473
vt 0.586834 0.885277
vt 0.569302 0.889958
vt 0.520901 0.889935
vt 0.547130 0.472354
vt 0.463797 0.468477
vt 0.463797 0.477366
vt 0.547130 0.481243
vt 0.356094 0.735195
vt 0.437844 0.735195
vt 0.437844 0.889935
vt 0.356094 0.889935
vt -0.047130 -0.115687
vt -0.047130 -0.124576
vt 0.036203 -0.120699
vt 0.036203 -0.111810
vt 0.553717 0.571185
vt 0.553717 0.416445
vt 0.635467 0.416445
vt 0.635467 0.571185
vt -0.095467 -0.121126
vt -0.095467 -0.130015
vt -0.047130 -0.124576
vt -0.047130 -0.115687
vt 0.437874 0.735195
vt 0.519625 0.735195
vt 0.519624 0.889935
vt 0.437874 0.889935
vt 0.271030 0.770550
vt 0.275703 0.753031
vt 0.288557 0.740166
vt 0.306147 0.735402
vt 0.354772 0.735195
vt 0.354772 0.889935
vt 0.306371 0.889958
vt 0.288838 0.885278
vt 0.275980 0.872473
vt 0.271241 0.854977
vt 0.463797 0.468477
vt 0.380463 0.481243
vt 0.463797 0.477366
vt 0.036203 -0.111810
vt 0.036203 -0.120699
vt 0.119537 -0.124576
vt 0.119537 -0.115687
vt 0.634822 0.571185
vt 0.634822 0.416445
vt 0.716572 0.416445
vt 0.716573 0.571185
vt 0.119537 -0.115687
vt 0.119537 -0.124576
vt 0.167874 -0.130015
vt 0.167874 -0.121126
vt -0.091108 -0.010660
vt 0.157779 -0.010659
vt 0.157778 0.003045
vt -0.091111 0.003045
vt 0.382886 0.492595
vt 0.382886 0.507405
vt 0.400197 0.507405
vt 0.400197 0.492595
vt 0.599803 0.492595
vt 0.599803 0.507405
vt 0.617114 0.507405
vt 0.617114 0.492595
vt 0.611185 0.636148
vt 0.895614 0.627550
vt 0.895613 0.646785
vt 0.611185 0.660870
vt 0.600997 0.237270
vt 0.884366 0.225545
vt 0.884366 0.242001
vt 0.600997 0.273101
vt 0.610843 0.397176
vt 0.891172 0.405775
vt 0.891171 0.386541
vt 0.610842 0.372455
vt 0.611171 0.372457
vt 0.895602 0.386543
vt 0.895602 0.405776
vt 0.611172 0.397177
vt 0.585133 0.237271
vt 0.868721 0.225547
vt 0.868721 0.242002
vt 0.585134 0.273101
vt 0.610854 0.660895
vt 0.891184 0.646806
vt 0.891183 0.627572
vt 0.610853 0.636175
vt 0.316223 0.912193
vt 0.440668 0.925526
vt 0.316223 0.925526
vt 0.157778 -0.055186
vt 0.157779 -0.013705
vt -0.091112 0.055185
vt -0.091112 0.013704
vt 0.585610 0.273101
vt 0.869198 0.242002
vt 0.869198 0.225546
vt 0.585610 0.237271
vt 0.601474 0.273101
vt 0.884842 0.242000
vt 0.884842 0.225544
vt 0.601474 0.237269
vt 0.185370 -0.132077
vt 0.185370 -0.123188
vt 0.202870 -0.133774
vt 0.202871 -0.125063
vt 0.158400 -0.010429
vt 0.167110 -0.010430
vt 0.167987 0.024567
vt 0.159098 0.024567
vt -0.112963 -0.123188
vt -0.112963 -0.132077
vt -0.130463 -0.125063
vt -0.130463 -0.133774
vt -0.100443 -0.536893
vt -0.091732 -0.536893
vt -0.094813 -0.382478
vt -0.102652 -0.382478
vt 0.630466 0.492644
vt 0.630464 0.484810
vt 0.612986 0.482101
vt 0.612988 0.490985
vt 0.160782 0.108989
vt 0.169671 0.108989
vt 0.169319 0.143986
vt 0.161480 0.143986
vt 0.297130 0.484815
vt 0.297130 0.492650
vt 0.314608 0.490990
vt 0.314608 0.482105
vt -0.092965 -0.293998
vt -0.101854 -0.293998
vt -0.101854 -0.515930
vt -0.092965 -0.515930
vt 0.383333 0.472025
vt 0.334996 0.478370
vt 0.334996 0.487258
vt 0.383333 0.480914
vt 0.376755 0.460258
vt 0.359192 0.455569
vt 0.346334 0.442760
vt 0.341628 0.425262
vt 0.341629 0.203335
vt 0.346335 0.185836
vt 0.359192 0.173026
vt 0.376755 0.168336
vt 0.425272 0.168333
vt 0.425273 0.460258
vt 0.589398 0.460258
vt 0.589398 0.168333
vt 0.637916 0.168333
vt 0.655479 0.173022
vt 0.668337 0.185831
vt 0.673043 0.203329
vt 0.673042 0.425261
vt 0.668336 0.442760
vt 0.655479 0.455569
vt 0.637916 0.460258
vt 0.598337 0.478370
vt 0.550000 0.472025
vt 0.550000 0.480914
vt 0.598337 0.487258
vt 0.523691 0.768333
vt 0.572208 0.768336
vt 0.589771 0.773026
vt 0.602628 0.785836
vt 0.607334 0.803335
vt 0.607335 1.025262
vt 0.602629 1.042760
vt 0.589772 1.055569
vt 0.572208 1.060258
vt 0.523691 1.060258
vt 0.550000 0.472025
vt 0.466667 0.468148
vt 0.466667 0.477037
vt 0.550000 0.480914
vt 0.358918 0.768332
vt 0.440669 0.768333
vt 0.440668 1.060258
vt 0.358918 1.060258
vt -0.050000 -0.115359
vt -0.050000 -0.124248
vt 0.033333 -0.120370
vt 0.033333 -0.111482
vt 0.425922 0.460258
vt 0.425922 0.168333
vt 0.507672 0.168333
vt 0.507673 0.460258
vt -0.098338 -0.121703
vt -0.098338 -0.130592
vt -0.050000 -0.124248
vt -0.050000 -0.115359
vt 0.440669 0.768333
vt 0.522419 0.768332
vt 0.522419 1.060258
vt 0.440668 1.060258
vt 0.274002 0.803329
vt 0.278708 0.785831
vt 0.291565 0.773021
vt 0.309129 0.768333
vt 0.357647 0.768333
vt 0.357646 1.060258
vt 0.309128 1.060258
vt 0.291564 1.055569
vt 0.278707 1.042760
vt 0.274001 1.025262
vt 0.466667 0.468148
vt 0.383333 0.472025
vt 0.383333 0.480914
vt 0.466667 0.477037
vt 0.033333 -0.111482
vt 0.033333 -0.120370
vt 0.116667 -0.124248
vt 0.116667 -0.115359
vt 0.506998 0.460258
vt 0.506998 0.168333
vt 0.588748 0.168333
vt 0.588749 0.460258
vt 0.116667 -0.115359
vt 0.116667 -0.124248
vt 0.165004 -0.130592
vt 0.165005 -0.121703
vt 0.182502 -0.132888
vt 0.182503 -0.124000
vt 0.200000 -0.134570
vt 0.200001 -0.126296
vt 0.159633 -0.024463
vt 0.167907 -0.024463
vt 0.168522 0.010534
vt 0.159633 0.010534
vt -0.115836 -0.124000
vt -0.115836 -0.132889
vt -0.133334 -0.126296
vt -0.133334 -0.134570
vt -0.101239 -0.550926
vt -0.092965 -0.550926
vt 0.615835 0.489555
vt 0.615835 0.480666
vt 0.633333 0.491236
vt 0.633333 0.482963
vt -0.092965 -0.259002
vt -0.101239 -0.259001
vt 0.159633 0.232466
vt 0.168521 0.232465
vt 0.167907 0.267462
vt 0.159633 0.267462
vt 0.300000 0.482963
vt 0.300000 0.491237
vt 0.317498 0.489555
vt 0.317498 0.480666
s 1
usemtl wood_4
f 87/1/1 88/2/1 2/3/1 1/4/1
f 85/5/2 86/6/2 8/7/2 7/8/2
f 85/9/3 7/10/3 5/11/3 87/12/3
f 13/13/1 14/14/1 10/15/1 9/16/1
f 11/17/2 12/18/2 16/19/2 15/20/2
f 11/21/3 15/22/3 13/23/3 9/24/3
f 21/25/4 22/26/4 18/27/4 17/28/4
f 19/29/5 20/30/5 24/31/5 23/32/5
f 19/33/3 23/34/3 21/35/3 17/36/3
f 29/25/4 30/37/4 26/38/4 25/39/4
f 27/40/5 28/41/5 32/42/5 31/43/5
f 27/44/3 31/45/3 29/46/3 25/47/3
f 24/48/6 20/49/6 18/50/6 22/51/6
f 32/52/6 28/53/6 26/54/6 30/55/6
f 35/56/3 39/57/3 37/58/3 33/59/3
f 37/60/7 38/61/7 34/62/7 33/63/7
f 39/64/8 40/65/8 38/66/8 37/67/8
f 33/68/9 34/69/9 36/70/9 35/71/9
f 35/72/10 36/73/10 40/74/10 39/75/10
f 52/76/11 51/77/11 49/78/11 50/79/11
f 50/80/10 49/81/10 45/82/10 46/83/10
f 48/84/7 47/85/7 51/86/7 52/87/7
f 46/88/12 45/89/12 47/90/12 48/91/12
f 50/92/3 46/93/3 48/94/3 52/95/3
f 55/96/13 56/97/13 44/98/13 43/99/13
f 53/100/11 54/101/11 56/102/11 55/103/11
f 43/104/12 44/105/12 42/106/12 41/107/12
f 41/108/14 42/109/14 54/110/14 53/111/14
f 55/112/3 43/113/3 41/114/3 53/115/3
f 63/116/13 64/117/13 60/118/13 59/119/13
f 61/120/9 62/121/9 64/122/9 63/123/9
f 59/124/8 60/125/8 58/126/8 57/127/8
f 57/128/14 58/129/14 62/130/14 61/131/14
f 63/132/3 59/133/3 57/134/3 61/135/3
f 114/136/5 117/137/5 110/138/5 105/139/5
f 73/140/15 98/141/16 101/142/16 76/143/17
f 109/144/18 111/145/18 112/146/18 110/147/18 117/148/18 119/149/18 120/150/18 118/151/18 69/152/19 72/153/20
f 75/154/21 76/155/22 101/156/23 103/157/23 104/158/23 102/159/23 93/160/23 95/161/23 96/162/23 94/163/23
f 113/164/24 70/165/25 69/166/26 118/167/24
f 70/168/27 113/169/28 115/170/28 116/171/28 114/172/28 105/173/28 107/174/28 108/175/28 106/176/28 71/177/29
f 70/178/25 65/179/30 66/180/30 69/181/26
f 73/182/31 65/183/32 67/184/32 74/185/33
f 71/186/34 72/187/35 68/188/36 67/189/36
f 72/190/20 69/191/19 66/192/37 68/193/37
f 106/194/38 109/195/38 72/196/35 71/197/34
f 65/198/32 70/199/27 71/200/29 67/201/32
f 97/202/39 99/203/39 100/204/39 98/205/39 73/206/31 74/207/33 89/208/39 91/209/39 92/210/39 90/211/39
f 65/212/30 73/140/15 76/213/17 66/214/30
f 67/215/36 68/216/36 75/217/40 74/218/41
f 68/219/37 66/220/37 76/221/22 75/222/21
f 74/223/41 75/224/40 94/225/42 89/226/42
f 16/227/6 12/228/6 10/229/6 14/230/6
f 79/231/6 77/232/6 78/233/6 80/234/6
f 83/235/6 81/236/6 82/237/6 84/238/6
f 58/239/43 78/240/43 77/241/43 62/242/43
f 60/243/44 80/244/44 78/245/44 58/246/44
f 56/247/45 83/248/45 84/249/45 44/250/45
f 42/251/43 82/252/43 81/253/43 54/254/43
f 44/255/46 84/256/46 82/257/46 42/258/46
f 64/259/45 79/260/45 80/261/45 60/262/45
f 3/263/3 85/9/3 87/264/3 1/265/3
f 3/266/2 4/267/2 86/6/2 85/5/2
f 5/268/1 6/269/1 88/2/1 87/1/1
f 62/270/47 77/271/47 79/272/47 64/273/47
f 54/274/48 81/275/48 83/276/48 56/277/48
f 89/226/49 94/225/49 96/278/50 91/279/51
f 91/279/51 96/278/50 95/280/52 92/281/53
f 92/282/53 95/283/52 93/284/54 90/285/54
f 109/195/55 106/194/55 108/286/56 111/287/57
f 111/287/57 108/286/56 107/288/58 112/289/59
f 112/290/59 107/291/58 105/139/60 110/138/60
f 117/137/61 114/136/61 116/292/62 119/293/63
f 119/294/63 116/295/62 115/296/64 120/297/65
f 120/297/65 115/296/64 113/164/66 118/167/66
f 97/298/67 102/299/67 104/300/68 99/301/69
f 99/302/69 104/303/68 103/304/70 100/305/71
f 100/305/71 103/304/70 101/142/72 98/141/72
f 90/285/4 93/284/4 102/299/4 97/298/4
f 158/306/73 161/307/74 154/308/75 149/309/76
f 129/310/2 142/311/77 145/312/78 132/313/2
f 153/314/79 155/315/79 156/316/79 154/317/79 161/318/79 163/319/79 164/320/79 162/321/79 125/322/80 128/323/80
f 131/324/81 132/325/81 145/326/82 147/327/82 148/328/82 146/329/82 137/330/82 139/331/82 140/332/82 138/333/82
f 157/334/83 126/335/2 125/336/2 162/337/84
f 126/338/85 157/339/86 159/340/86 160/341/86 158/342/86 149/343/86 151/344/86 152/345/86 150/346/86 127/347/85
f 126/348/2 121/349/2 122/350/2 125/351/2
f 129/352/87 121/353/3 123/354/3 130/355/87
f 127/356/1 128/357/1 124/358/1 123/359/1
f 128/360/80 125/361/80 122/362/6 124/363/6
f 150/364/88 153/365/89 128/366/1 127/367/1
f 121/368/3 126/369/85 127/370/85 123/371/3
f 141/372/90 143/373/90 144/374/90 142/375/90 129/376/87 130/377/87 133/378/90 135/379/90 136/380/90 134/381/90
f 121/382/2 129/383/2 132/384/2 122/385/2
f 123/386/1 124/387/1 131/388/1 130/389/1
f 124/390/6 122/391/6 132/392/81 131/393/81
f 130/394/1 131/395/1 138/396/1 133/397/1
f 133/397/91 138/396/91 140/398/92 135/399/93
f 135/399/93 140/398/92 139/400/94 136/401/95
f 136/402/95 139/403/94 137/404/96 134/405/97
f 153/365/89 150/364/88 152/406/98 155/407/99
f 155/407/99 152/406/98 151/408/100 156/409/101
f 156/410/101 151/411/100 149/309/76 154/308/75
f 157/334/83 162/337/84 164/412/102 159/413/103
f 159/413/103 164/412/102 163/414/104 160/415/105
f 160/416/105 163/417/104 161/307/74 158/306/73
f 141/418/106 146/419/107 148/420/108 143/421/109
f 143/422/109 148/423/108 147/424/110 144/425/111
f 144/425/111 147/424/110 145/312/78 142/311/77
f 134/405/97 137/404/96 146/419/107 141/418/106
