# Blender 5.0.1
# www.blender.org
mtllib chair_mp_4_1.mtl
o chair_mp_4_1
v -0.168002 0.506000 0.206500
v -0.168002 0.562000 0.206500
v -0.168003 0.506000 0.188500
v -0.168002 0.562000 0.188500
v 0.167998 0.506000 0.206500
v 0.167998 0.562000 0.206500
v 0.167998 0.506000 0.188500
v 0.167998 0.562000 0.188500
v -0.168002 0.486000 -0.191500
v -0.168002 0.522000 -0.191500
v -0.168003 0.486000 -0.209500
v -0.168002 0.522000 -0.209500
v 0.167998 0.486000 -0.191500
v 0.167998 0.522000 -0.191500
v 0.167998 0.486000 -0.209500
v 0.167998 0.522000 -0.209500
v -0.188504 0.506000 -0.181999
v -0.188504 0.562000 -0.181999
v -0.170504 0.506000 -0.182000
v -0.170504 0.562000 -0.181999
v -0.188504 0.506000 0.182001
v -0.188504 0.562000 0.182001
v -0.170504 0.506000 0.182001
v -0.170504 0.562000 0.182001
v 0.170496 0.506000 -0.181999
v 0.170496 0.562000 -0.181999
v 0.188496 0.506000 -0.182000
v 0.188496 0.562000 -0.181999
v 0.170496 0.506000 0.182001
v 0.170496 0.562000 0.182001
v 0.188496 0.506000 0.182001
v 0.188496 0.562000 0.182001
v -0.220750 0.000000 0.245749
v -0.194687 0.562000 0.219686
v -0.220750 0.000000 0.205251
v -0.194687 0.562000 0.171313
v -0.195252 0.000000 0.245749
v -0.161314 0.562000 0.219686
v -0.195252 0.000000 0.205251
v -0.161314 0.562000 0.171313
v 0.220748 0.000000 -0.225251
v 0.194686 0.562000 -0.171314
v 0.220748 0.000000 -0.265749
v 0.194686 0.562000 -0.219687
v 0.194686 0.562000 0.171313
v 0.220748 0.000000 0.205251
v 0.194686 0.562000 0.219686
v 0.220748 0.000000 0.245749
v 0.161313 0.562000 0.171313
v 0.195250 0.000000 0.205251
v 0.161313 0.562000 0.219686
v 0.195250 0.000000 0.245749
v 0.195250 0.000000 -0.225251
v 0.161313 0.562000 -0.171314
v 0.195250 0.000000 -0.265749
v 0.161313 0.562000 -0.219687
v -0.195252 0.000000 -0.225251
v -0.161314 0.562000 -0.171314
v -0.195252 0.000000 -0.265749
v -0.161314 0.562000 -0.219687
v -0.220750 0.000000 -0.225251
v -0.194687 0.562000 -0.171314
v -0.220750 0.000000 -0.265749
v -0.194687 0.562000 -0.219687
v -0.000103 0.989100 -0.229669
v -0.000102 0.779544 -0.207647
v 0.118957 0.984694 -0.224550
v 0.118958 0.784919 -0.203554
v -0.119163 0.984694 -0.224550
v -0.119163 0.784919 -0.203554
v -0.210933 0.799554 -0.198170
v -0.223350 0.812074 -0.197847
v -0.223351 0.959320 -0.213323
v -0.210934 0.971498 -0.216242
v 0.223145 0.812074 -0.197847
v 0.210728 0.799554 -0.198170
v 0.210728 0.971498 -0.216242
v 0.223145 0.959319 -0.213323
v -0.175671 0.944813 -0.213298
v -0.149705 0.944813 -0.213298
v -0.175671 0.944813 -0.235514
v -0.149705 0.944813 -0.235514
v 0.149704 0.944813 -0.213298
v 0.175670 0.944813 -0.213298
v 0.149704 0.944813 -0.235514
v 0.175670 0.944813 -0.235514
v -0.000002 0.506000 0.198500
v -0.000002 0.552000 0.198500
v -0.000002 0.506000 0.216500
v -0.000002 0.552000 0.216500
v -0.119163 1.000940 -0.213488
v -0.000103 1.005346 -0.218607
v 0.118958 0.771328 -0.189356
v -0.000102 0.765954 -0.193449
v 0.118957 1.000940 -0.213488
v -0.119163 0.771328 -0.189356
v -0.217056 0.786048 -0.183173
v -0.238223 0.807389 -0.182622
v 0.238018 0.807389 -0.182622
v 0.216852 0.786048 -0.183173
v 0.216851 0.987827 -0.204381
v 0.238017 0.967067 -0.199405
v -0.238223 0.967067 -0.199405
v -0.217057 0.987827 -0.204381
v -0.119163 0.989577 -0.199457
v -0.119163 0.973195 -0.190462
v -0.000103 0.977601 -0.195581
v -0.000103 0.993978 -0.204569
v 0.118958 0.785360 -0.177993
v 0.118958 0.803255 -0.172601
v -0.000102 0.797880 -0.176694
v -0.000102 0.779992 -0.182081
v 0.118957 0.973195 -0.190462
v 0.118957 0.989577 -0.199457
v -0.119163 0.803255 -0.172601
v -0.119163 0.785360 -0.177993
v -0.211852 0.799988 -0.172505
v -0.204810 0.817806 -0.168017
v -0.208478 0.821504 -0.167921
v -0.225601 0.813822 -0.172164
v 0.225396 0.813822 -0.172164
v 0.208273 0.821504 -0.167921
v 0.204605 0.817806 -0.168017
v 0.211647 0.799988 -0.172505
v 0.211647 0.976409 -0.191048
v 0.204605 0.959914 -0.182953
v 0.208272 0.956317 -0.182091
v 0.225395 0.962949 -0.187838
v -0.225601 0.962949 -0.187838
v -0.208478 0.956317 -0.182091
v -0.204810 0.959914 -0.182953
v -0.211852 0.976409 -0.191048
v 0.118957 0.999612 -0.226118
v -0.000103 1.004018 -0.231237
v 0.118958 0.770001 -0.201986
v -0.000102 0.764626 -0.206079
v -0.119163 0.999612 -0.226118
v -0.119163 0.770001 -0.201986
v -0.238223 0.806061 -0.195252
v -0.217056 0.784720 -0.195803
v 0.216852 0.784720 -0.195803
v 0.238018 0.806061 -0.195252
v 0.238018 0.965740 -0.212036
v 0.216852 0.986500 -0.217011
v -0.217057 0.986500 -0.217011
v -0.238223 0.965740 -0.212036
v -0.000003 0.545808 -0.165204
v -0.000002 0.545808 0.241875
v 0.119058 0.551348 -0.160204
v 0.119058 0.551348 0.236875
v -0.119063 0.551348 -0.160204
v -0.119062 0.551348 0.236875
v -0.210833 0.563393 0.221875
v -0.223250 0.565023 0.209458
v -0.223250 0.565023 -0.132787
v -0.210834 0.563393 -0.145204
v 0.223246 0.565023 0.209458
v 0.210829 0.563393 0.221875
v 0.210829 0.563393 -0.145204
v 0.223246 0.565023 -0.132787
v -0.119062 0.569048 -0.175204
v -0.000003 0.563508 -0.180204
v 0.119058 0.569048 0.251875
v -0.000002 0.563508 0.256875
v 0.119057 0.569048 -0.175204
v -0.119062 0.569048 0.251875
v -0.216956 0.581896 0.236875
v -0.238122 0.584674 0.215709
v 0.238118 0.584674 0.215709
v 0.216952 0.581896 0.236875
v 0.216951 0.581896 -0.160204
v 0.238117 0.584674 -0.139037
v -0.238122 0.584674 -0.139037
v -0.216956 0.581896 -0.160204
v -0.119062 0.582663 -0.158184
v -0.119062 0.589048 -0.140203
v -0.203421 0.600113 0.201124
v -0.221285 0.596050 0.208633
v -0.203421 0.600113 -0.124452
v -0.221285 0.596050 -0.131961
v 0.203416 0.600113 0.201124
v 0.221281 0.596050 0.208633
v 0.203416 0.600113 -0.124452
v 0.221280 0.596050 -0.131961
v -0.000003 0.577129 -0.163178
v -0.000002 0.583508 -0.145204
v -0.000002 0.583508 0.221875
v -0.000002 0.577129 0.239849
v 0.119057 0.589045 -0.140203
v 0.119057 0.582661 -0.158184
v 0.119058 0.582661 0.234856
v 0.119058 0.589045 0.216875
v -0.119062 0.589045 0.216875
v -0.119062 0.582661 0.234856
v -0.202668 0.600023 0.201875
v -0.210017 0.594582 0.219876
v 0.202664 0.600023 0.201875
v 0.210012 0.594582 0.219876
v 0.202663 0.600023 -0.125204
v 0.210012 0.594582 -0.143204
v -0.202668 0.600024 -0.125204
v -0.210017 0.594582 -0.143204
v 0.119058 0.551348 -0.175204
v -0.000003 0.545808 -0.180204
v 0.119058 0.551348 0.251875
v -0.000002 0.545808 0.256875
v -0.119063 0.551348 -0.175204
v -0.119062 0.551348 0.251875
v -0.238122 0.566975 0.215709
v -0.216956 0.564197 0.236875
v 0.216952 0.564197 0.236875
v 0.238118 0.566975 0.215709
v 0.238118 0.566975 -0.139037
v 0.216952 0.564197 -0.160204
v -0.216957 0.564197 -0.160204
v -0.238123 0.566975 -0.139037
v 0.118957 0.992153 -0.230334
v -0.000103 0.996559 -0.235453
v -0.000102 0.772085 -0.211863
v 0.118958 0.777460 -0.207770
v -0.119163 0.992153 -0.230334
v -0.119163 0.777460 -0.207770
v -0.230787 0.809067 -0.201550
v -0.213995 0.792137 -0.201986
v 0.213790 0.792137 -0.201986
v 0.230582 0.809067 -0.201550
v 0.230582 0.962530 -0.217679
v 0.213790 0.978999 -0.221626
v -0.213996 0.978999 -0.221626
v -0.230787 0.962530 -0.217679
v 0.119058 0.546348 -0.167704
v -0.000003 0.540808 -0.172704
v -0.000002 0.540808 0.249375
v 0.119058 0.546348 0.244375
v -0.119063 0.546348 -0.167704
v -0.119062 0.546348 0.244375
v -0.230686 0.560999 0.212584
v -0.213895 0.558795 0.229375
v 0.213890 0.558795 0.229375
v 0.230682 0.560999 0.212584
v 0.230682 0.560999 -0.135912
v 0.213890 0.558795 -0.152704
v -0.213895 0.558795 -0.152704
v -0.230687 0.560999 -0.135912
vn -0.0000 -0.0000 1.0000
vn -0.0594 -0.0000 0.9982
vn -0.0000 -0.0000 -1.0000
vn -0.0594 -0.0000 -0.9982
vn -0.0000 -1.0000 -0.0000
vn -1.0000 -0.0000 -0.0000
vn 1.0000 -0.0000 -0.0000
vn -0.0000 1.0000 -0.0000
vn -0.0000 0.0463 0.9989
vn 0.9982 -0.0603 -0.0000
vn -0.9989 0.0463 -0.0000
vn -0.0000 -0.0603 -0.9982
vn -0.9982 -0.0603 -0.0000
vn 0.9989 0.0463 -0.0000
vn -0.0000 0.0817 -0.9967
vn -0.0000 -0.0955 0.9954
vn -0.0896 0.9905 -0.1041
vn -0.4310 0.8974 -0.0943
vn -0.3868 0.8758 0.2889
vn -0.0636 0.9579 0.2801
vn 0.0584 -0.1043 -0.9928
vn 0.0806 -0.1042 -0.9913
vn -0.0806 -0.1042 -0.9913
vn -0.0584 -0.1043 -0.9928
vn -0.0057 0.6385 0.7696
vn -0.0000 0.6465 0.7629
vn -0.0000 0.9623 0.2720
vn 0.4310 -0.8974 0.0943
vn 0.3868 -0.7966 0.4647
vn 0.0636 -0.8787 0.4731
vn 0.0896 -0.9905 0.1041
vn 0.0896 0.9905 -0.1041
vn -0.0000 0.9945 -0.1045
vn 0.0636 0.9579 0.2801
vn -0.0000 -0.1045 -0.9945
vn -0.0000 -0.8847 0.4662
vn -0.0000 -0.9945 0.1045
vn 0.4310 0.8974 -0.0943
vn 0.3868 0.8758 0.2889
vn 0.9193 0.3914 -0.0411
vn 0.8392 0.4043 0.3636
vn 0.8392 -0.3199 0.4397
vn 0.9193 -0.3914 0.0412
vn -0.0896 -0.9905 0.1041
vn -0.0636 -0.8787 0.4731
vn -0.3868 -0.7966 0.4647
vn -0.4310 -0.8974 0.0943
vn -0.8392 -0.3199 0.4397
vn -0.9193 -0.3914 0.0412
vn -0.9193 0.3914 -0.0411
vn -0.8392 0.4043 0.3636
vn -0.0000 0.1090 0.9940
vn 0.9995 -0.0303 -0.0000
vn -0.0000 -0.0673 -0.9977
vn -0.0000 0.1146 -0.9934
vn 0.9988 0.0496 -0.0000
vn 0.0594 -0.0000 -0.9982
vn 0.0594 -0.0000 0.9982
vn -0.9988 0.0496 -0.0000
vn -0.9995 -0.0303 -0.0000
vn -0.1799 0.5920 0.7856
vn 0.1799 -0.4157 0.8915
vn 0.0057 -0.4645 0.8855
vn 0.0057 0.6385 0.7696
vn -0.0000 0.3045 0.9525
vn -0.0000 -0.0998 0.9950
vn -0.0347 -0.0959 0.9948
vn -0.0347 0.3006 0.9531
vn -0.0000 -0.4737 0.8807
vn -0.0057 -0.4645 0.8855
vn 0.0181 -0.0928 0.9955
vn 0.1120 0.0152 0.9936
vn 0.1120 0.1917 0.9750
vn 0.0181 0.2977 0.9545
vn 0.1799 0.5920 0.7856
vn -0.4383 -0.1310 0.8892
vn -0.4383 0.3130 0.8426
vn 0.4383 0.3130 0.8426
vn 0.4383 -0.1310 0.8892
vn -0.1799 -0.4157 0.8915
vn 0.0347 0.3006 0.9531
vn 0.0347 -0.0959 0.9948
vn -0.0181 -0.0928 0.9955
vn -0.1120 0.0152 0.9936
vn -0.1120 0.1917 0.9750
vn -0.0181 0.2977 0.9545
vn 0.0631 -0.0535 -0.9966
vn -0.0000 -0.0587 -0.9983
vn -0.0000 0.4921 -0.8706
vn 0.0994 0.4867 -0.8679
vn -0.0000 -0.0871 -0.9962
vn 0.0576 -0.0931 -0.9940
vn 0.0965 -0.6081 -0.7880
vn -0.0000 -0.6128 -0.7902
vn -0.0631 -0.0535 -0.9966
vn -0.0994 0.4867 -0.8679
vn -0.0576 -0.0931 -0.9940
vn -0.0965 -0.6081 -0.7880
vn -0.2095 -0.1339 -0.9686
vn -0.1379 -0.1642 -0.9767
vn -0.3049 -0.5346 -0.7882
vn -0.5557 -0.2715 -0.7858
vn 0.1379 -0.1642 -0.9767
vn 0.2095 -0.1339 -0.9686
vn 0.5557 -0.2715 -0.7858
vn 0.3049 -0.5346 -0.7882
vn 0.2264 -0.0550 -0.9725
vn 0.1564 0.0055 -0.9877
vn 0.3252 0.3989 -0.8574
vn 0.5732 0.1016 -0.8131
vn -0.1564 0.0055 -0.9877
vn -0.2264 -0.0550 -0.9725
vn -0.5732 0.1016 -0.8131
vn -0.3252 0.3989 -0.8574
vn -0.0937 -0.0000 -0.9956
vn -0.4313 -0.0000 -0.9022
vn -0.3684 0.4315 -0.8235
vn -0.0529 0.4218 -0.9052
vn 0.0856 -0.9963 -0.0000
vn 0.1301 -0.9915 -0.0000
vn -0.1301 -0.9915 -0.0000
vn -0.0856 -0.9963 -0.0000
vn 0.4313 -0.0000 0.9022
vn 0.3684 0.4315 0.8235
vn 0.0529 0.4218 0.9052
vn 0.0937 -0.0000 0.9956
vn 0.0937 -0.0000 -0.9956
vn -0.0000 0.4183 -0.9083
vn 0.0529 0.4218 -0.9052
vn -0.0000 0.4183 0.9083
vn 0.4313 -0.0000 -0.9022
vn 0.3684 0.4315 -0.8235
vn 0.9193 -0.0000 -0.3936
vn 0.8180 0.4511 -0.3569
vn 0.8180 0.4511 0.3569
vn 0.9193 -0.0000 0.3936
vn -0.0937 -0.0000 0.9956
vn -0.0529 0.4218 0.9052
vn -0.3684 0.4315 0.8235
vn -0.4313 -0.0000 0.9022
vn -0.8180 0.4511 0.3569
vn -0.9193 -0.0000 0.3936
vn -0.9193 -0.0000 -0.3936
vn -0.8180 0.4511 -0.3569
vn 0.0681 0.9823 0.1745
vn 0.0681 0.9823 -0.1745
vn 0.0352 0.9849 -0.1695
vn -0.0580 0.9954 -0.0764
vn -0.0580 0.9954 0.0764
vn 0.0352 0.9849 0.1695
vn -0.0000 0.8707 0.4918
vn 0.0272 0.8729 0.4872
vn -0.0272 0.8729 0.4872
vn -0.0272 0.8729 -0.4872
vn 0.1201 0.8887 -0.4425
vn -0.3595 0.9128 -0.1938
vn -0.1202 0.8887 -0.4425
vn 0.3595 0.9128 -0.1938
vn -0.0681 0.9823 -0.1745
vn -0.0000 0.9846 -0.1750
vn -0.0000 0.9846 0.1750
vn -0.0681 0.9823 0.1745
vn -0.0352 0.9849 -0.1695
vn -0.0352 0.9849 0.1695
vn 0.0580 0.9954 0.0764
vn 0.0580 0.9954 -0.0764
vn -0.1201 0.8887 0.4425
vn -0.3595 0.9128 0.1938
vn 0.0272 0.8729 -0.4872
vn -0.0000 0.8707 -0.4918
vn 0.3595 0.9128 0.1938
vn 0.1201 0.8887 0.4425
vn 0.0899 -0.9958 -0.0164
vn -0.0000 -0.9999 -0.0144
vn -0.0000 -0.8321 -0.5547
vn 0.1255 -0.8293 -0.5446
vn -0.0000 -0.9999 0.0144
vn 0.0899 -0.9958 0.0164
vn 0.1255 -0.8293 0.5445
vn -0.0000 -0.8321 0.5547
vn -0.0899 -0.9958 -0.0164
vn -0.1255 -0.8293 -0.5446
vn -0.0899 -0.9958 0.0164
vn -0.1255 -0.8293 0.5445
vn -0.2179 -0.9752 0.0391
vn -0.1736 -0.9818 0.0770
vn -0.3397 -0.8201 0.4606
vn -0.5661 -0.8027 0.1879
vn 0.1736 -0.9818 0.0770
vn 0.2179 -0.9752 0.0391
vn 0.5661 -0.8027 0.1879
vn 0.3397 -0.8201 0.4606
vn 0.2179 -0.9752 -0.0391
vn 0.1736 -0.9818 -0.0770
vn 0.3397 -0.8201 -0.4606
vn 0.5661 -0.8027 -0.1879
vn -0.1736 -0.9818 -0.0770
vn -0.2179 -0.9752 -0.0391
vn -0.5661 -0.8027 -0.1879
vn -0.3397 -0.8201 -0.4606
vn -0.1557 -0.5414 -0.8262
vn -0.0007 -0.6043 -0.7968
vn -0.4011 0.1254 -0.9074
vn -0.3892 -0.2863 -0.8755
vn -0.0078 0.4812 -0.8766
vn -0.1751 0.4029 -0.8983
vn 0.1751 0.4029 -0.8983
vn 0.0078 0.4812 -0.8766
vn 0.0007 -0.6043 -0.7968
vn 0.1557 -0.5414 -0.8262
vn 0.3892 -0.2863 -0.8755
vn 0.4011 0.1254 -0.9074
vn -0.1498 -0.8656 0.4779
vn 0.0196 -0.8363 0.5479
vn -0.3970 -0.8942 -0.2067
vn -0.3970 -0.8942 0.2067
vn 0.0196 -0.8363 -0.5479
vn -0.1498 -0.8655 -0.4779
vn 0.1498 -0.8656 -0.4779
vn -0.0196 -0.8363 -0.5479
vn -0.0196 -0.8363 0.5479
vn 0.1498 -0.8656 0.4779
vn 0.3970 -0.8942 0.2067
vn 0.3970 -0.8942 -0.2067
vt 0.033333 0.055185
vt 0.033332 0.021111
vt 0.157777 0.013704
vt 0.157777 0.055185
vt 0.033334 -0.055186
vt 0.033335 -0.021112
vt -0.091109 -0.013705
vt -0.091109 -0.055186
vt 0.440668 0.919600
vt 0.565113 0.912193
vt 0.565113 0.925526
vt 0.440668 0.932934
vt -0.091112 0.070000
vt -0.091112 0.043333
vt 0.157777 0.043333
vt 0.157777 0.070000
vt 0.157778 -0.070001
vt 0.157778 -0.043334
vt -0.091109 -0.043335
vt -0.091109 -0.070001
vt 0.316235 0.617377
vt 0.565122 0.617377
vt 0.565121 0.630712
vt 0.316234 0.630711
vt -0.101482 0.055185
vt -0.101483 0.013704
vt 0.168147 0.013704
vt 0.168148 0.055185
vt 0.168149 -0.055186
vt 0.168149 -0.013705
vt -0.101479 -0.013705
vt -0.101480 -0.055187
vt 0.305853 0.898859
vt 0.575484 0.898860
vt 0.575483 0.912193
vt 0.305853 0.912193
vt -0.101483 0.013704
vt 0.168147 0.013704
vt 0.168148 0.055185
vt 0.168149 -0.055186
vt 0.168149 -0.013705
vt -0.101479 -0.013705
vt -0.101480 -0.055187
vt 0.305864 0.632934
vt 0.575492 0.632934
vt 0.575491 0.646268
vt 0.305863 0.646268
vt -0.101477 -0.038069
vt 0.168150 -0.038068
vt 0.168149 -0.010659
vt -0.101480 -0.010660
vt -0.101482 0.010659
vt 0.168148 0.010658
vt 0.168146 0.038067
vt -0.101485 0.038068
vt 0.701998 0.680144
vt 0.701997 0.661256
vt 0.731995 0.661256
vt 0.731995 0.680144
vt 0.192045 0.661285
vt 0.608080 0.636149
vt 0.608080 0.660870
vt 0.192044 0.680173
vt 0.184626 0.685372
vt 0.600971 0.660232
vt 0.600971 0.696062
vt 0.184626 0.715373
vt 0.169663 0.715374
vt 0.585696 0.696063
vt 0.585697 0.660233
vt 0.169663 0.685373
vt 0.194665 0.680198
vt 0.611011 0.660888
vt 0.611011 0.636168
vt 0.194665 0.661311
vt 0.185103 0.715374
vt 0.601448 0.696063
vt 0.601448 0.660233
vt 0.185103 0.685373
vt 0.194679 0.372047
vt 0.611022 0.397177
vt 0.611023 0.372458
vt 0.194680 0.353161
vt 0.192055 0.353138
vt 0.608089 0.372444
vt 0.608088 0.397167
vt 0.192055 0.372027
vt 0.169186 0.685372
vt 0.585220 0.660233
vt 0.585220 0.696063
vt 0.169186 0.715372
vt 0.702056 0.372030
vt 0.702057 0.353142
vt 0.732056 0.353142
vt 0.732055 0.372030
vt 0.192900 0.372037
vt 0.609618 0.397176
vt 0.609617 0.372455
vt 0.192900 0.353149
vt 0.185103 0.233145
vt 0.601448 0.273101
vt 0.601448 0.237270
vt 0.185103 0.203144
vt 0.169186 0.203147
vt 0.585220 0.237271
vt 0.585220 0.273101
vt 0.169186 0.233146
vt 0.192218 0.353153
vt 0.609457 0.372457
vt 0.609457 0.397176
vt 0.192219 0.372039
vt 0.219815 0.372035
vt 0.219816 0.353147
vt 0.249813 0.353147
vt 0.249813 0.372035
vt 0.192909 0.680207
vt 0.609629 0.660895
vt 0.609629 0.636175
vt 0.192909 0.661319
vt 0.169663 0.233144
vt 0.585697 0.273101
vt 0.585697 0.237271
vt 0.169663 0.203144
vt 0.184626 0.203145
vt 0.600971 0.237271
vt 0.600972 0.273101
vt 0.184626 0.233145
vt 0.192235 0.661286
vt 0.609471 0.636149
vt 0.609471 0.660870
vt 0.192235 0.680173
vt 0.219812 0.680196
vt 0.219812 0.661310
vt 0.249810 0.661310
vt 0.249810 0.680196
vt 0.380779 0.473056
vt 0.311945 0.478436
vt 0.311945 0.487325
vt 0.380779 0.481945
vt 0.520963 0.726641
vt 0.584997 0.736434
vt 0.593721 0.745125
vt 0.593776 0.848720
vt 0.585055 0.857410
vt 0.520962 0.867237
vt 0.281953 0.745125
vt 0.290676 0.736435
vt 0.354711 0.726642
vt 0.354711 0.867237
vt 0.290618 0.857410
vt 0.281897 0.848721
vt 0.592132 0.299020
vt 0.510037 0.297615
vt 0.510003 0.288675
vt 0.592171 0.290084
vt -0.115649 -0.121769
vt -0.115649 -0.130658
vt -0.046814 -0.125277
vt -0.046814 -0.116388
vt 0.546849 0.473056
vt 0.463797 0.469815
vt 0.463797 0.478704
vt 0.546849 0.481944
vt 0.354750 0.726641
vt 0.437782 0.723199
vt 0.437793 0.870675
vt 0.354748 0.867238
vt -0.046849 -0.116388
vt -0.046849 -0.125277
vt 0.036203 -0.122035
vt 0.036203 -0.113146
vt 0.615649 0.478436
vt 0.546814 0.473056
vt 0.546814 0.481945
vt 0.615649 0.487325
vt -0.090383 -0.403294
vt -0.099272 -0.403294
vt -0.099272 -0.515673
vt -0.090383 -0.515673
vt 0.437906 0.723199
vt 0.520923 0.726641
vt 0.520925 0.867238
vt 0.437895 0.870675
vt 0.119221 -0.116388
vt 0.119221 -0.125277
vt 0.188055 -0.130658
vt 0.188055 -0.121769
vt 0.463797 0.469815
vt 0.380744 0.473056
vt 0.380744 0.481945
vt 0.463797 0.478704
vt 0.036203 -0.113146
vt 0.036203 -0.122035
vt 0.119256 -0.125277
vt 0.119256 -0.116388
vt 0.169891 0.062520
vt 0.161779 0.062521
vt 0.161250 0.047706
vt 0.169362 0.047706
vt -0.102936 -0.481627
vt -0.094824 -0.481628
vt -0.095353 -0.466813
vt -0.103465 -0.466813
vt 0.663041 0.489271
vt 0.663041 0.480382
vt 0.648226 0.478437
vt 0.648226 0.487326
vt 0.267423 0.480382
vt 0.267422 0.489271
vt 0.282237 0.487326
vt 0.282237 0.478437
vt 0.157050 0.010791
vt 0.165939 0.010791
vt 0.165939 0.123170
vt 0.157050 0.123170
vt -0.091108 -0.010660
vt 0.157779 -0.010659
vt 0.157778 0.003045
vt -0.091111 0.003045
vt 0.382886 0.492595
vt 0.382886 0.507405
vt 0.400197 0.507405
vt 0.400197 0.492595
vt 0.599803 0.492595
vt 0.599803 0.507405
vt 0.617114 0.507405
vt 0.617114 0.492595
vt 0.611185 0.636148
vt 0.895614 0.627550
vt 0.895613 0.646785
vt 0.611185 0.660870
vt 0.600997 0.237270
vt 0.884366 0.225545
vt 0.884366 0.242001
vt 0.600997 0.273101
vt 0.610843 0.397176
vt 0.891172 0.405775
vt 0.891171 0.386541
vt 0.610842 0.372455
vt 0.611171 0.372457
vt 0.895602 0.386543
vt 0.895602 0.405776
vt 0.611172 0.397177
vt 0.585133 0.237271
vt 0.868721 0.225547
vt 0.868721 0.242002
vt 0.585134 0.273101
vt 0.610854 0.660895
vt 0.891184 0.646806
vt 0.891183 0.627572
vt 0.610853 0.636175
vt 0.316223 0.912193
vt 0.440667 0.932934
vt 0.316223 0.925526
vt 0.157778 -0.055186
vt 0.157779 -0.013705
vt -0.091112 0.055185
vt -0.091112 0.013704
vt 0.585610 0.273101
vt 0.869198 0.242002
vt 0.869198 0.225546
vt 0.585610 0.237271
vt 0.601474 0.273101
vt 0.884842 0.242000
vt 0.884842 0.225544
vt 0.601474 0.237269
vt 0.656769 0.302135
vt 0.592227 0.298989
vt 0.592268 0.290053
vt 0.660439 0.293212
vt 0.363564 0.435495
vt 0.428105 0.438641
vt 0.428067 0.447577
vt 0.359896 0.444418
vt 0.509662 0.297615
vt 0.428789 0.299020
vt 0.428825 0.290084
vt 0.509629 0.288675
vt 0.509859 0.305573
vt 0.510318 0.432050
vt 0.428132 0.428613
vt 0.428602 0.309015
vt 0.510627 0.440016
vt 0.591503 0.438610
vt 0.591464 0.447546
vt 0.510660 0.448956
vt 0.428576 0.309015
vt 0.428089 0.428612
vt 0.368241 0.418783
vt 0.365663 0.416217
vt 0.365782 0.321375
vt 0.368376 0.318808
vt 0.428696 0.298989
vt 0.363609 0.302135
vt 0.359903 0.293212
vt 0.428731 0.290053
vt 0.668467 0.421253
vt 0.668486 0.316338
vt 0.677368 0.312625
vt 0.677371 0.424965
vt 0.351865 0.316338
vt 0.351847 0.421253
vt 0.342966 0.424965
vt 0.342963 0.312625
vt 0.669383 0.313469
vt 0.659724 0.303865
vt 0.663393 0.294942
vt 0.678263 0.309756
vt 0.350951 0.424160
vt 0.360609 0.433765
vt 0.356941 0.442688
vt 0.342071 0.427873
vt 0.659682 0.433765
vt 0.669356 0.424160
vt 0.678263 0.427874
vt 0.663389 0.442688
vt 0.592194 0.309015
vt 0.591696 0.428613
vt 0.510418 0.432050
vt 0.509982 0.305573
vt 0.428200 0.438610
vt 0.510253 0.440016
vt 0.510286 0.448956
vt 0.428164 0.447546
vt 0.360648 0.303865
vt 0.350976 0.313469
vt 0.342070 0.309756
vt 0.356944 0.294941
vt 0.591596 0.438641
vt 0.656721 0.435494
vt 0.660431 0.444418
vt 0.591559 0.447577
vt 0.592182 0.309779
vt 0.510052 0.307076
vt 0.510011 0.295018
vt 0.592233 0.297716
vt 0.428147 0.427852
vt 0.510238 0.430555
vt 0.510279 0.442613
vt 0.428099 0.439914
vt 0.509725 0.307076
vt 0.428646 0.309778
vt 0.428694 0.297716
vt 0.509683 0.295018
vt 0.510564 0.430555
vt 0.591648 0.427852
vt 0.591597 0.439914
vt 0.510605 0.442613
vt 0.653054 0.420107
vt 0.655640 0.417539
vt 0.667731 0.422576
vt 0.658049 0.432181
vt 0.364625 0.417539
vt 0.367202 0.420107
vt 0.362235 0.432181
vt 0.352577 0.422576
vt 0.367273 0.317523
vt 0.364688 0.320091
vt 0.352600 0.315053
vt 0.362281 0.305449
vt 0.655707 0.320091
vt 0.653130 0.317523
vt 0.658098 0.305449
vt 0.667756 0.315053
vt 0.655718 0.416186
vt 0.655774 0.321376
vt 0.667826 0.316338
vt 0.667805 0.421223
vt 0.591735 0.427883
vt 0.651708 0.420787
vt 0.656707 0.432862
vt 0.591686 0.439945
vt 0.592323 0.297686
vt 0.656755 0.304768
vt 0.651784 0.316843
vt 0.592269 0.309747
vt 0.368548 0.420787
vt 0.428060 0.427883
vt 0.428009 0.439945
vt 0.363578 0.432862
vt 0.364610 0.321375
vt 0.364558 0.416186
vt 0.352508 0.421223
vt 0.352527 0.316338
vt 0.363623 0.304768
vt 0.428606 0.297686
vt 0.428559 0.309747
vt 0.368619 0.316843
vt 0.652024 0.318808
vt 0.654605 0.321375
vt 0.654610 0.416217
vt 0.652017 0.418783
vt 0.591719 0.428612
vt 0.592240 0.309015
vt 0.520429 0.893263
vt 0.437862 0.889825
vt 0.437801 0.884575
vt 0.519285 0.888017
vt 0.437862 1.047806
vt 0.520429 1.044367
vt 0.519285 1.049613
vt 0.437801 1.053055
vt 0.355263 0.893263
vt 0.356447 0.888017
vt 0.437938 0.884575
vt 0.355262 1.044367
vt 0.437938 1.053055
vt 0.356447 1.049614
vt 0.276728 1.022783
vt 0.288525 1.034570
vt 0.286374 1.039820
vt 0.271504 1.025005
vt 0.587148 1.034570
vt 0.598945 1.022783
vt 0.604169 1.025005
vt 0.589299 1.039819
vt 0.598945 0.914813
vt 0.587148 0.903060
vt 0.589299 0.897811
vt 0.604169 0.912625
vt 0.288525 0.903060
vt 0.276728 0.914813
vt 0.271504 0.912625
vt 0.286374 0.897810
vt 0.271504 1.024936
vt 0.286374 0.897811
vt 0.354710 0.888011
vt 0.354710 1.049620
vt 0.286374 1.039819
vt 0.589299 1.039819
vt 0.520963 1.049620
vt 0.604169 0.912625
vt 0.604169 1.024936
vt 0.520963 0.888011
vt 0.589299 0.897811
vt 0.383333 0.472025
vt 0.314458 0.481018
vt 0.314458 0.493407
vt 0.383333 0.484414
vt 0.523691 0.775332
vt 0.588163 0.785831
vt 0.596887 0.794522
vt 0.596887 1.034069
vt 0.588163 1.042760
vt 0.523691 1.053259
vt 0.284450 0.794522
vt 0.293174 0.785831
vt 0.357647 0.775332
vt 0.357646 1.053259
vt 0.293173 1.042760
vt 0.284450 1.034069
vt -0.118875 -0.124352
vt -0.118875 -0.136740
vt -0.050000 -0.127747
vt -0.050000 -0.115359
vt 0.549708 0.472025
vt 0.466667 0.468148
vt 0.466667 0.480537
vt 0.549708 0.484414
vt 0.357647 0.775332
vt 0.440669 0.771832
vt 0.440668 1.056758
vt 0.357646 1.053259
vt -0.049708 -0.115359
vt -0.049708 -0.127747
vt 0.033333 -0.123870
vt 0.033333 -0.111482
vt 0.618875 0.481018
vt 0.550000 0.472025
vt 0.550000 0.484414
vt 0.618875 0.493407
vt -0.092965 -0.280815
vt -0.105354 -0.280815
vt -0.105354 -0.529112
vt -0.092965 -0.529112
vt 0.440669 0.771832
vt 0.523691 0.775332
vt 0.523691 1.053259
vt 0.440668 1.056758
vt 0.116667 -0.115359
vt 0.116667 -0.127747
vt 0.185542 -0.136740
vt 0.185542 -0.124352
vt 0.466667 0.468148
vt 0.383625 0.472025
vt 0.383625 0.484414
vt 0.466667 0.480537
vt 0.033333 -0.111482
vt 0.033333 -0.123870
vt 0.116375 -0.127747
vt 0.116375 -0.115359
vt 0.176127 0.054366
vt 0.164821 0.054366
vt 0.164292 0.039551
vt 0.175598 0.039551
vt -0.108931 -0.486912
vt -0.097625 -0.486912
vt -0.098154 -0.472097
vt -0.109460 -0.472097
vt 0.603237 0.495350
vt 0.603237 0.482961
vt 0.588422 0.481017
vt 0.588422 0.493406
vt 0.330097 0.482962
vt 0.330096 0.495350
vt 0.344911 0.493406
vt 0.344911 0.481017
vt 0.159633 -0.002648
vt 0.172021 -0.002648
vt 0.172021 0.245648
vt 0.159633 0.245648
vt 0.589807 0.439260
vt 0.589736 0.189330
vt 0.648472 0.199829
vt 0.649000 0.200355
vt 0.649004 0.428235
vt 0.648476 0.428761
vt 0.507196 0.450906
vt 0.589155 0.448772
vt 0.588737 0.460685
vt 0.507152 0.462823
vt 0.425503 0.448772
vt 0.507130 0.450906
vt 0.507588 0.462823
vt 0.425946 0.460685
vt 0.425033 0.179769
vt 0.361665 0.186209
vt 0.356792 0.174311
vt 0.425032 0.167857
vt 0.661352 0.194921
vt 0.653435 0.187051
vt 0.658310 0.175153
vt 0.673181 0.189968
vt 0.361235 0.187051
vt 0.353318 0.194921
vt 0.341489 0.189968
vt 0.356360 0.175153
vt 0.425162 0.189331
vt 0.507456 0.185831
vt 0.506895 0.442760
vt 0.425222 0.439260
vt 0.366194 0.199829
vt 0.424863 0.189330
vt 0.424935 0.439260
vt 0.366199 0.428761
vt 0.365671 0.428235
vt 0.365666 0.200355
vt 0.653435 0.441539
vt 0.661352 0.433669
vt 0.673181 0.438623
vt 0.658310 0.453437
vt 0.589168 0.179819
vt 0.507540 0.177685
vt 0.507082 0.165768
vt 0.588724 0.167906
vt 0.589637 0.448821
vt 0.653005 0.442381
vt 0.657878 0.454280
vt 0.589638 0.460733
vt 0.353319 0.433669
vt 0.361235 0.441539
vt 0.356360 0.453437
vt 0.341490 0.438623
vt 0.361666 0.442381
vt 0.425034 0.448821
vt 0.425033 0.460733
vt 0.356792 0.454279
vt 0.507776 0.185831
vt 0.589449 0.189330
vt 0.589508 0.439260
vt 0.507215 0.442760
vt 0.659584 0.433491
vt 0.659584 0.195100
vt 0.671413 0.190147
vt 0.671413 0.438444
vt 0.507474 0.177685
vt 0.425516 0.179818
vt 0.425933 0.167906
vt 0.507518 0.165767
vt 0.355086 0.195100
vt 0.355086 0.433490
vt 0.343257 0.438444
vt 0.343257 0.190147
vt 0.647784 0.428235
vt 0.647780 0.200355
vt 0.660447 0.195100
vt 0.660447 0.433491
vt 0.366885 0.200355
vt 0.366891 0.428235
vt 0.354224 0.433490
vt 0.354223 0.195100
vt 0.507075 0.453457
vt 0.425383 0.450352
vt 0.425287 0.437767
vt 0.506924 0.440876
vt 0.425387 0.178238
vt 0.507508 0.175134
vt 0.507439 0.187714
vt 0.425229 0.190824
vt 0.589283 0.450352
vt 0.507163 0.453457
vt 0.507232 0.440876
vt 0.589441 0.437767
vt 0.653211 0.441066
vt 0.589775 0.450397
vt 0.589726 0.437812
vt 0.647947 0.428467
vt 0.424887 0.450397
vt 0.361462 0.441066
vt 0.366740 0.428467
vt 0.425002 0.437812
vt 0.361459 0.187524
vt 0.424895 0.178194
vt 0.424944 0.190779
vt 0.366723 0.200124
vt 0.589384 0.190824
vt 0.507746 0.187714
vt 0.507595 0.175134
vt 0.589288 0.178239
vt 0.589783 0.178194
vt 0.653208 0.187524
vt 0.647930 0.200124
vt 0.589668 0.190779
vt 0.647776 0.428354
vt 0.648305 0.427829
vt 0.660968 0.433085
vt 0.653052 0.440955
vt 0.653051 0.187636
vt 0.660966 0.195506
vt 0.648299 0.200761
vt 0.647769 0.200237
vt 0.366371 0.427829
vt 0.366901 0.428354
vt 0.361620 0.440955
vt 0.353704 0.433085
vt 0.353702 0.195506
vt 0.361617 0.187636
vt 0.366894 0.200236
vt 0.366364 0.200761
vt 0.653005 0.186209
vt 0.589637 0.179770
vt 0.589638 0.167857
vt 0.657879 0.174311
vt 0.523175 0.770082
vt 0.440669 0.766583
vt 0.440515 0.761333
vt 0.522052 0.764833
vt 0.440668 1.062008
vt 0.523175 1.058508
vt 0.522051 1.063758
vt 0.440515 1.067257
vt 0.358162 0.770082
vt 0.359286 0.764833
vt 0.440822 0.761333
vt 0.358162 1.058508
vt 0.440821 1.067257
vt 0.359285 1.063757
vt 0.279225 1.036256
vt 0.291022 1.048009
vt 0.288871 1.053259
vt 0.274001 1.038444
vt 0.590314 1.048009
vt 0.602111 1.036256
vt 0.607335 1.038444
vt 0.592465 1.053259
vt 0.602111 0.792334
vt 0.590314 0.780581
vt 0.592465 0.775332
vt 0.607336 0.790147
vt 0.291023 0.780581
vt 0.279226 0.792334
vt 0.274002 0.790146
vt 0.288872 0.775332
vt 0.274002 0.790146
vt 0.357647 0.764833
vt 0.357646 1.063758
vt 0.523691 1.063758
vt 0.607335 1.038444
vt 0.523691 0.764833
vt 0.584997 0.908310
vt 0.520963 0.898510
vt 0.593720 1.020561
vt 0.593721 0.917000
vt 0.520963 1.039121
vt 0.584997 1.029320
vt 0.290676 1.029321
vt 0.354710 1.039121
vt 0.354711 0.898510
vt 0.290676 0.908309
vt 0.281953 0.917001
vt 0.281952 1.020561
vt 0.290676 0.908309
vt 0.593721 0.917001
vt 0.584997 0.908309
vt 0.584997 1.029320
vt 0.593720 1.020630
vt 0.281952 1.020630
vt 0.290676 1.029321
vt 0.355182 1.039115
vt 0.437783 1.042556
vt 0.437783 0.895074
vt 0.355183 0.898516
vt 0.437925 1.042556
vt 0.520505 1.039114
vt 0.520505 0.898516
vt 0.437925 0.895074
vt 0.588163 0.785831
vt 0.523691 0.775332
vt 0.588163 1.042760
vt 0.357646 1.053259
vt 0.357647 0.775332
vt 0.293174 0.785831
vt 0.284450 0.794522
vt 0.284450 0.794522
vt 0.596887 0.794522
vt 0.588164 0.785831
vt 0.588163 1.042760
vt 0.284450 1.034069
vt 0.293173 1.042760
vt 0.358070 1.053259
vt 0.440668 1.056758
vt 0.440669 0.771832
vt 0.358071 0.775332
vt 0.440668 1.056758
vt 0.523267 1.053259
vt 0.523267 0.775332
vt 0.440669 0.771832
s 1
usemtl wood_3
f 89/1/1 90/2/1 2/3/2 1/4/2
f 87/5/3 88/6/3 8/7/4 7/8/4
f 87/9/5 7/10/5 5/11/5 89/12/5
f 13/13/1 14/14/1 10/15/1 9/16/1
f 11/17/3 12/18/3 16/19/3 15/20/3
f 11/21/5 15/22/5 13/23/5 9/24/5
f 21/25/6 22/26/6 18/27/6 17/28/6
f 19/29/7 20/30/7 24/31/7 23/32/7
f 19/33/5 23/34/5 21/35/5 17/36/5
f 29/25/6 30/37/6 26/38/6 25/39/6
f 27/40/7 28/41/7 32/42/7 31/43/7
f 27/44/5 31/45/5 29/46/5 25/47/5
f 24/48/8 20/49/8 18/50/8 22/51/8
f 32/52/8 28/53/8 26/54/8 30/55/8
f 35/56/5 39/57/5 37/58/5 33/59/5
f 37/60/9 38/61/9 34/62/9 33/63/9
f 39/64/10 40/65/10 38/66/10 37/67/10
f 33/68/11 34/69/11 36/70/11 35/71/11
f 35/72/12 36/73/12 40/74/12 39/75/12
f 52/76/13 51/77/13 49/78/13 50/79/13
f 50/80/12 49/81/12 45/82/12 46/83/12
f 48/84/9 47/85/9 51/86/9 52/87/9
f 46/88/14 45/89/14 47/90/14 48/91/14
f 50/92/5 46/93/5 48/94/5 52/95/5
f 55/96/15 56/97/15 44/98/15 43/99/15
f 53/100/13 54/101/13 56/102/13 55/103/13
f 43/104/14 44/105/14 42/106/14 41/107/14
f 41/108/16 42/109/16 54/110/16 53/111/16
f 55/112/5 43/113/5 41/114/5 53/115/5
f 63/116/15 64/117/15 60/118/15 59/119/15
f 61/120/11 62/121/11 64/122/11 63/123/11
f 59/124/10 60/125/10 58/126/10 57/127/10
f 57/128/16 58/129/16 62/130/16 61/131/16
f 63/132/5 59/133/5 57/134/5 61/135/5
f 67/140/21 77/141/22 78/142/22 75/143/22 76/144/22 68/145/21
f 73/146/23 74/147/23 69/148/24 70/149/24 71/150/23 72/151/23
f 69/164/24 65/165/35 66/166/35 70/167/24
f 65/180/35 67/181/21 68/182/21 66/183/35
f 16/216/8 12/217/8 10/218/8 14/219/8
f 81/220/8 79/221/8 80/222/8 82/223/8
f 85/224/8 83/225/8 84/226/8 86/227/8
f 58/228/52 80/229/52 79/230/52 62/231/52
f 60/232/53 82/233/53 80/234/53 58/235/53
f 56/236/54 85/237/55 86/238/55 44/239/54
f 42/240/52 84/241/52 83/242/52 54/243/52
f 44/244/56 86/245/56 84/246/56 42/247/56
f 64/248/54 81/249/55 82/250/55 60/251/54
f 3/252/5 87/9/5 89/253/5 1/254/5
f 3/255/57 4/256/57 88/6/3 87/5/3
f 5/257/58 6/258/58 90/2/1 89/1/1
f 62/259/59 79/260/59 81/261/59 64/262/59
f 54/263/60 83/264/60 85/265/60 56/266/60
f 149/440/119 159/441/120 160/442/120 157/443/120 158/444/120 150/445/119
f 155/446/121 156/447/121 151/448/122 152/449/122 153/450/121 154/451/121
f 151/460/122 147/461/5 148/462/5 152/463/122
f 147/476/5 149/477/119 150/478/119 148/479/5
usemtl fabric_2
f 137/136/17 145/137/18 104/138/19 91/139/20
f 105/152/25 108/153/26 92/154/27 91/155/20
f 141/156/28 100/157/29 93/158/30 135/159/31
f 133/160/32 134/161/33 92/162/27 95/163/34
f 135/168/31 93/169/30 94/170/36 136/171/37
f 144/172/38 133/173/32 95/174/34 101/175/39
f 143/176/40 102/177/41 99/178/42 142/179/43
f 138/184/44 96/185/45 97/186/46 140/187/47
f 134/188/33 137/189/17 91/190/20 92/191/27
f 136/192/37 94/193/36 96/194/45 138/195/44
f 98/196/48 139/197/49 140/198/47 97/199/46
f 100/200/29 141/201/28 142/202/43 99/203/42
f 102/204/41 143/205/40 144/206/38 101/207/39
f 146/208/50 103/209/51 104/210/19 145/211/18
f 139/212/49 98/213/48 103/214/51 146/215/50
f 132/267/61 105/268/25 91/269/20 104/270/19
f 124/271/62 109/272/63 93/273/30 100/274/29
f 108/275/26 114/276/64 95/277/34 92/278/27
f 107/279/65 111/280/66 110/281/67 113/282/68
f 112/283/69 116/284/70 96/285/45 94/286/36
f 113/287/68 110/288/67 123/289/71 122/290/72 127/291/73 126/292/74
f 114/293/64 125/294/75 101/295/39 95/296/34
f 120/297/76 129/298/77 103/299/51 98/300/48
f 128/301/78 121/302/79 99/303/42 102/304/41
f 129/305/77 132/306/61 104/307/19 103/308/51
f 121/309/79 124/310/62 100/311/29 99/312/42
f 117/313/80 120/314/76 98/315/48 97/316/46
f 106/317/81 115/318/82 111/319/66 107/320/65
f 109/321/63 112/322/69 94/323/36 93/324/30
f 125/325/75 128/326/78 102/327/41 101/328/39
f 116/329/70 117/330/80 97/331/46 96/332/45
f 106/333/81 107/334/65 108/335/26 105/336/25
f 110/337/67 111/338/66 112/339/69 109/340/63
f 107/341/65 113/342/68 114/343/64 108/344/26
f 111/345/66 115/346/82 116/347/70 112/348/69
f 118/349/83 119/350/84 120/351/76 117/352/80
f 122/353/72 123/354/71 124/355/62 121/356/79
f 126/357/74 127/358/73 128/359/78 125/360/75
f 130/361/85 131/362/86 132/363/61 129/364/77
f 119/365/84 130/366/85 129/367/77 120/368/76
f 115/369/82 118/370/83 117/371/80 116/372/70
f 105/373/25 132/374/61 131/375/86 106/376/81
f 123/377/71 110/378/67 109/379/63 124/380/62
f 127/381/73 122/382/72 121/383/79 128/384/78
f 125/385/75 114/386/64 113/387/68 126/388/74
f 131/389/86 130/390/85 119/391/84 118/392/83 115/393/82 106/394/81
f 217/395/87 218/396/88 134/397/89 133/398/90
f 219/399/91 220/400/92 135/401/93 136/402/94
f 218/396/88 221/403/95 137/404/96 134/405/89
f 222/406/97 219/399/91 136/407/94 138/408/98
f 223/409/99 224/410/100 140/411/101 139/412/102
f 225/413/103 226/414/104 142/415/105 141/416/106
f 227/417/107 228/418/108 144/419/109 143/420/110
f 229/421/111 230/422/112 146/423/113 145/424/114
f 230/422/112 223/409/99 139/425/102 146/423/113
f 221/403/95 229/421/111 145/426/114 137/427/96
f 224/410/100 222/406/97 138/428/98 140/429/101
f 220/400/92 225/413/103 141/430/106 135/431/93
f 226/414/104 227/417/107 143/432/110 142/433/105
f 228/418/108 217/395/87 133/434/90 144/435/109
f 207/436/115 215/437/116 174/438/117 161/439/118
f 211/452/123 170/453/124 163/454/125 205/455/126
f 203/456/127 204/457/3 162/458/128 165/459/129
f 205/464/126 163/465/125 164/466/130 206/467/1
f 214/468/131 203/469/127 165/470/129 171/471/132
f 213/472/133 172/473/134 169/474/135 212/475/136
f 208/480/137 166/481/138 167/482/139 210/483/140
f 204/484/3 207/485/115 161/486/118 162/487/128
f 206/488/1 164/489/130 166/490/138 208/491/137
f 168/492/141 209/493/142 210/494/140 167/495/139
f 170/496/124 211/497/123 212/498/136 169/499/135
f 172/500/134 213/501/133 214/502/131 171/503/132
f 216/504/143 173/505/144 174/506/117 215/507/116
f 209/508/142 168/509/141 173/510/144 216/511/143
f 193/512/145 176/513/146 201/514/147 179/515/148 177/516/149 195/517/150
f 188/518/151 194/519/152 166/520/138 164/521/130
f 191/522/153 188/523/151 164/524/130 163/525/125
f 190/526/154 200/527/155 171/528/132 165/529/129
f 180/530/156 202/531/157 174/532/117 173/533/144
f 200/534/155 184/535/158 172/536/134 171/537/132
f 189/538/159 186/539/160 187/540/161 192/541/162
f 199/542/163 189/543/159 192/544/162 197/545/164 181/546/165 183/547/166
f 196/548/167 178/549/168 168/550/141 167/551/139
f 175/552/169 185/553/170 162/554/128 161/555/118
f 194/556/152 196/557/167 167/558/139 166/559/138
f 182/560/171 198/561/172 170/562/124 169/563/135
f 198/564/172 191/565/153 163/566/125 170/567/124
f 186/568/160 176/569/146 193/570/145 187/571/161
f 178/572/168 180/573/156 173/574/144 168/575/141
f 185/576/170 190/577/154 165/578/129 162/579/128
f 184/580/158 182/581/171 169/582/135 172/583/134
f 177/584/149 179/585/148 180/586/156 178/587/168
f 183/588/166 181/589/165 182/590/171 184/591/158
f 188/592/151 191/593/153 192/594/162 187/595/161
f 190/596/154 185/597/170 186/598/160 189/599/159
f 194/600/152 188/601/151 187/602/161 193/603/145
f 196/604/167 194/605/152 193/606/145 195/607/150
f 191/608/153 198/609/172 197/610/164 192/611/162
f 200/612/155 190/613/154 189/614/159 199/615/163
f 176/616/146 186/617/160 185/618/170 175/619/169
f 175/620/169 202/621/157 201/622/147 176/623/146
f 195/624/150 177/625/149 178/626/168 196/627/167
f 202/628/157 180/629/156 179/630/148 201/631/147
f 181/632/165 197/633/164 198/634/172 182/635/171
f 184/636/158 200/637/155 199/638/163 183/639/166
f 202/640/157 175/641/169 161/642/118 174/643/117
f 231/644/173 232/645/174 204/646/175 203/647/176
f 233/648/177 234/649/178 205/650/179 206/651/180
f 232/645/174 235/652/181 207/653/182 204/654/175
f 236/655/183 233/648/177 206/656/180 208/657/184
f 237/658/185 238/659/186 210/660/187 209/661/188
f 239/662/189 240/663/190 212/664/191 211/665/192
f 241/666/193 242/667/194 214/668/195 213/669/196
f 243/670/197 244/671/198 216/672/199 215/673/200
f 244/671/198 237/658/185 209/661/188 216/674/199
f 235/652/181 243/670/197 215/673/200 207/675/182
f 238/659/186 236/655/183 208/676/184 210/660/187
f 234/649/178 239/662/189 211/665/192 205/677/179
f 240/663/190 241/666/193 213/669/196 212/678/191
f 242/667/194 231/644/173 203/679/176 214/668/195
f 77/680/201 67/681/202 217/395/87 228/418/108
f 75/682/203 78/683/204 227/417/107 226/414/104
f 68/684/205 76/685/206 225/413/103 220/400/92
f 71/686/207 70/687/208 222/406/97 224/410/100
f 69/688/209 74/689/210 229/421/111 221/403/95
f 73/690/211 72/691/212 223/409/99 230/422/112
f 74/692/210 73/690/211 230/422/112 229/421/111
f 78/693/204 77/694/201 228/418/108 227/417/107
f 76/695/206 75/696/203 226/414/104 225/413/103
f 72/697/212 71/698/207 224/410/100 223/409/99
f 70/699/208 66/700/89 219/399/91 222/406/97
f 65/701/94 69/702/209 221/403/95 218/396/88
f 66/703/89 68/704/205 220/400/92 219/399/91
f 67/705/202 65/706/94 218/396/88 217/395/87
f 159/707/213 149/708/214 231/644/173 242/667/194
f 157/443/215 160/442/216 241/666/193 240/663/190
f 150/445/217 158/709/218 239/662/189 234/649/178
f 153/450/219 152/710/220 236/655/183 238/659/186
f 151/711/221 156/712/222 243/670/197 235/652/181
f 155/713/223 154/451/224 237/658/185 244/671/198
f 156/447/222 155/714/223 244/671/198 243/670/197
f 160/715/216 159/716/213 242/667/194 241/666/193
f 158/717/218 157/443/215 240/663/190 239/662/189
f 154/718/224 153/719/219 238/659/186 237/658/185
f 152/720/220 148/721/175 233/648/177 236/655/183
f 147/722/180 151/723/221 235/652/181 232/645/174
f 148/724/175 150/725/217 234/649/178 233/648/177
f 149/726/214 147/727/180 232/645/174 231/644/173
