# Blender 5.0.1
# www.blender.org
mtllib coffee_table_1_2.mtl
o coffee_table_1_2
v -0.728127 0.620000 0.260000
v -0.728127 0.620000 0.240000
v 0.728125 0.620000 0.260000
v 0.728125 0.620000 0.240000
v -0.728127 0.620000 -0.240000
v -0.728127 0.620000 -0.260000
v 0.728125 0.620000 -0.240000
v 0.728125 0.620000 -0.260000
v -0.760000 0.620000 -0.228126
v -0.740000 0.620000 -0.228126
v -0.760000 0.620000 0.228126
v -0.740000 0.620000 0.228126
v 0.740000 0.620000 -0.228126
v 0.760000 0.620000 -0.228126
v 0.740000 0.620000 0.228126
v 0.760000 0.620000 0.228126
v -0.767499 0.000000 0.267499
v -0.771874 0.620000 0.271874
v -0.767499 0.000000 0.232501
v -0.771874 0.620000 0.228126
v -0.732501 0.000000 0.267499
v -0.728126 0.620000 0.271874
v -0.732501 0.000000 0.232501
v -0.728126 0.620000 0.228126
v 0.767499 0.000000 -0.232501
v -0.728127 0.545000 0.260000
v -0.728127 0.545000 0.240000
v 0.771874 0.620000 -0.228126
v 0.728125 0.545000 0.260000
v 0.767499 0.000000 -0.267499
v 0.771874 0.620000 -0.271874
v 0.728125 0.545000 0.240000
v 0.771874 0.620000 0.228126
v -0.728127 0.545000 -0.240000
v -0.728127 0.545000 -0.260000
v 0.767499 0.000000 0.232501
v 0.728125 0.545000 -0.240000
v 0.771874 0.620000 0.271874
v 0.767499 0.000000 0.267499
v 0.728125 0.545000 -0.260000
v 0.728126 0.620000 0.228126
v 0.740000 0.545000 -0.228126
v 0.760000 0.545000 -0.228126
v 0.732501 0.000000 0.232501
v 0.740000 0.545000 0.228126
v 0.728126 0.620000 0.271874
v 0.732501 0.000000 0.267499
v 0.760000 0.545000 0.228126
v 0.732501 0.000000 -0.232501
v -0.760000 0.545000 -0.228126
v -0.740000 0.545000 -0.228126
v 0.728126 0.620000 -0.228126
v -0.760000 0.545000 0.228126
v 0.732501 0.000000 -0.267499
v 0.728126 0.620000 -0.271874
v -0.740000 0.545000 0.228126
v -0.732501 0.000000 -0.232501
v -0.728126 0.620000 -0.228126
v -0.732501 0.000000 -0.267499
v -0.728126 0.620000 -0.271874
v -0.767499 0.000000 -0.232501
v -0.771874 0.620000 -0.228126
v -0.767499 0.000000 -0.267499
v -0.771874 0.620000 -0.271874
v -0.750002 0.130000 0.250000
v -0.750002 0.160000 0.250000
v -0.750003 0.130000 -0.250000
v -0.750002 0.160000 -0.250000
v 0.749999 0.130000 0.250000
v 0.749999 0.160000 0.250000
v 0.749999 0.130000 -0.250000
v 0.749998 0.160000 -0.250000
v -0.799998 0.620000 0.300000
v -0.809998 0.660000 0.310000
v -0.799999 0.620000 -0.300000
v -0.809998 0.660000 -0.310000
v 0.800003 0.620000 0.300000
v 0.810003 0.660000 0.310000
v 0.800003 0.620000 -0.300000
v 0.810002 0.660000 -0.310000
v -0.809998 0.640000 0.310000
v 0.810003 0.640000 0.310000
v 0.810002 0.640000 -0.310000
v -0.809998 0.640000 -0.310000
v -0.799998 0.630000 0.300000
v 0.800003 0.630000 0.300000
v 0.800002 0.630000 -0.300000
v -0.799999 0.630000 -0.300000
vn -0.0000 -1.0000 -0.0000
vn -0.0000 -0.0000 -1.0000
vn -0.0000 -0.0000 1.0000
vn 1.0000 -0.0000 -0.0000
vn -1.0000 -0.0000 -0.0000
vn -0.0000 -0.0071 1.0000
vn 1.0000 -0.0071 -0.0000
vn -1.0000 -0.0071 -0.0000
vn -0.0000 -0.0071 -1.0000
vn -0.0000 1.0000 -0.0000
vn -0.0000 -0.7071 -0.7071
vn -0.7071 -0.7071 -0.0000
vn 0.7071 -0.7071 -0.0000
vn -0.0000 -0.7071 0.7071
vt 0.014583 0.326667
vt 0.985418 0.326667
vt 0.985418 0.340000
vt 0.014583 0.340000
vt 0.014584 0.740000
vt 0.014584 0.790000
vt 0.985418 0.790000
vt 0.985418 0.740000
vt 0.985418 0.740000
vt 0.985418 0.790000
vt 0.014584 0.790000
vt 0.014584 0.740000
vt 0.652084 1.006666
vt 0.347916 1.006666
vt 0.347916 0.993332
vt 0.652084 0.993332
vt 0.014584 0.740000
vt 0.014584 0.790000
vt 0.985418 0.790000
vt 0.985418 0.740000
vt 0.014584 0.790000
vt 0.652084 0.739998
vt 0.652085 0.789998
vt 0.347916 0.789998
vt 0.347916 0.739998
vt 0.347916 0.739998
vt 0.347916 0.789998
vt 0.652084 0.789998
vt 0.652085 0.739998
vt 0.347916 0.789998
vt 0.347916 0.739998
vt 0.652085 0.789998
vt 0.652085 0.739998
vt 0.738335 0.994999
vt 0.738335 0.971667
vt 0.761667 0.971667
vt 0.761667 0.994999
vt 0.193335 0.971667
vt 0.606562 0.968750
vt 0.606562 0.997916
vt 0.193335 0.994999
vt 0.176667 0.721668
vt 0.589894 0.718751
vt 0.589894 0.747916
vt 0.176667 0.744999
vt 0.589894 0.747916
vt 0.589894 0.718751
vt 0.606562 0.997916
vt 0.606562 0.968751
vt 0.985417 0.660000
vt 0.985419 0.673333
vt 0.014584 0.673333
vt 0.014584 0.660000
vt 0.589894 0.747916
vt 0.589894 0.718751
vt 0.193335 -0.005001
vt 0.606562 -0.002084
vt 0.606562 -0.031249
vt 0.193335 -0.028333
vt 0.606562 -0.031249
vt 0.606562 -0.002084
vt 0.589894 0.718751
vt 0.589894 0.747916
vt 0.738335 -0.005001
vt 0.738336 -0.028333
vt 0.761667 -0.028333
vt 0.761667 -0.005001
vt 0.606562 -0.002084
vt 0.606562 -0.031249
vt 0.347916 0.006666
vt 0.347916 -0.006668
vt 0.652084 -0.006668
vt 0.652084 0.006666
vt 0.176667 0.278333
vt 0.589894 0.281249
vt 0.589894 0.252084
vt 0.176667 0.255001
vt 0.589894 0.252084
vt 0.589894 0.281249
vt 0.606562 -0.031249
vt 0.606562 -0.002084
vt 0.271669 -0.005001
vt 0.271669 -0.028333
vt 0.295000 -0.028333
vt 0.295000 -0.005001
vt 0.193335 0.994999
vt 0.606562 0.968751
vt 0.193335 0.971667
vt 0.606562 0.968751
vt 0.606562 0.997916
vt 0.271669 0.994999
vt 0.271669 0.971667
vt 0.295000 0.971667
vt 0.295000 0.994999
vt -0.025998 0.372563
vt -0.025998 0.039229
vt 0.974002 0.039229
vt 0.974002 0.372563
vt -0.500000 0.343333
vt -0.500001 0.323333
vt 0.500000 0.323333
vt 0.500000 0.343333
vt -0.096567 -0.343333
vt -0.096567 -0.323333
vt -0.429901 -0.323334
vt -0.429901 -0.343334
vt 0.096566 0.343334
vt 0.096566 0.323334
vt 0.429899 0.323333
vt 0.429899 0.343333
vt 0.499999 -0.343333
vt 0.499998 -0.323333
vt -0.499998 -0.323333
vt -0.499998 -0.343333
vt -0.025998 0.639229
vt 0.974002 0.639229
vt 0.974002 0.972563
vt -0.025998 0.972563
vt 1.415206 0.583984
vt 1.415206 0.166884
vt 0.334794 0.166884
vt 0.334794 0.583984
vt 1.415206 0.605469
vt 1.415206 0.617188
vt 0.334794 0.617188
vt 0.334794 0.605469
vt 1.311648 0.376968
vt 1.311648 0.388687
vt 0.894547 0.388687
vt 0.894547 0.376968
vt 0.342593 0.174654
vt 1.407407 0.174654
vt 1.407408 0.575796
vt 0.342593 0.575796
vt 0.343145 0.593750
vt 0.335361 0.601562
vt 1.414639 0.601562
vt 1.406855 0.593750
vt 0.902729 0.365250
vt 0.895278 0.373062
vt 1.311119 0.373062
vt 1.303366 0.365250
vt 1.303366 0.365250
vt 1.311119 0.373062
vt 0.895278 0.373062
vt 0.902729 0.365249
vt 1.412271 0.632812
vt 1.419878 0.640625
vt 0.330121 0.640625
vt 0.337729 0.632812
vt 1.407407 0.589844
vt 1.407407 0.597656
vt 0.342593 0.597656
vt 0.342593 0.589844
vt 1.303877 0.361343
vt 1.303877 0.369156
vt 0.902735 0.369156
vt 0.902735 0.361343
vt 0.902735 0.361344
vt 0.902735 0.369156
vt 1.303877 0.369156
vt 0.334794 0.605469
vt 0.334794 0.617188
vt 1.415206 0.605469
s 1
usemtl wood_4
f 35/1/1 40/2/1 37/3/1 34/4/1
f 27/5/2 2/6/2 4/7/2 32/8/2
f 29/9/3 3/10/3 1/11/3 26/12/3
f 43/13/1 48/14/1 45/15/1 42/16/1
f 35/17/2 6/18/2 8/19/2 40/20/2
f 37/9/3 7/19/3 5/21/3 34/12/3
f 51/22/4 10/23/4 12/24/4 56/25/4
f 53/26/5 11/27/5 9/28/5 50/29/5
f 43/29/4 14/23/4 16/30/4 48/26/4
f 45/31/5 15/27/5 13/32/5 42/33/5
f 19/34/1 23/35/1 21/36/1 17/37/1
f 21/38/6 22/39/6 18/40/6 17/41/6
f 23/42/7 24/43/7 22/44/7 21/45/7
f 17/45/8 18/46/8 20/47/8 19/42/8
f 19/41/9 20/48/9 24/49/9 23/38/9
f 32/50/1 29/51/1 26/52/1 27/53/1
f 47/45/8 46/54/8 41/55/8 44/42/8
f 44/56/9 41/57/9 33/58/9 36/59/9
f 39/59/6 38/60/6 46/61/6 47/56/6
f 36/42/7 33/62/7 38/63/7 39/45/7
f 44/64/1 36/65/1 39/66/1 47/67/1
f 54/56/9 55/68/9 31/69/9 30/59/9
f 56/70/1 53/71/1 50/72/1 51/73/1
f 49/74/8 52/75/8 55/76/8 54/77/8
f 30/77/7 31/78/7 28/79/7 25/74/7
f 25/59/6 28/80/6 52/81/6 49/56/6
f 54/82/1 30/83/1 25/84/1 49/85/1
f 63/86/9 64/40/9 60/87/9 59/88/9
f 61/74/8 62/75/8 64/76/8 63/77/8
f 59/77/7 60/78/7 58/79/7 57/74/7
f 57/88/6 58/89/6 62/90/6 61/86/6
f 63/91/1 59/92/1 57/93/1 61/94/1
f 70/95/10 72/96/10 68/97/10 66/98/10
f 69/99/3 70/100/3 66/101/3 65/102/3
f 71/103/4 72/104/4 70/105/4 69/106/4
f 65/107/5 66/108/5 68/109/5 67/110/5
f 67/111/2 68/112/2 72/113/2 71/114/2
f 67/115/1 71/116/1 69/117/1 65/118/1
f 78/119/10 80/120/10 76/121/10 74/122/10
f 82/123/3 78/124/3 74/125/3 81/126/3
f 83/127/4 80/128/4 78/129/4 82/130/4
f 81/130/5 74/129/5 76/128/5 84/127/5
f 75/131/1 79/132/1 77/133/1 73/134/1
f 88/135/11 84/136/11 83/137/11 87/138/11
f 85/139/12 81/140/12 84/141/12 88/142/12
f 87/143/13 83/144/13 82/145/13 86/146/13
f 86/147/14 82/148/14 81/149/14 85/150/14
f 77/151/3 86/152/3 85/153/3 73/154/3
f 79/155/4 87/156/4 86/157/4 77/158/4
f 73/159/5 85/160/5 88/161/5 75/155/5
f 75/154/2 88/153/2 87/152/2 79/151/2
f 84/162/2 76/163/2 80/124/2 83/164/2
