# Blender 5.0.1
# www.blender.org
mtllib dinner_table_1_2.mtl
o dinner_table_1_2
v -0.728127 0.820000 0.460000
v -0.728127 0.820000 0.440000
v 0.728125 0.820000 0.460000
v 0.728125 0.820000 0.440000
v -0.728127 0.820000 -0.440000
v -0.728127 0.820000 -0.460000
v 0.728125 0.820000 -0.440000
v 0.728125 0.820000 -0.460000
v -0.760000 0.820000 -0.428126
v -0.740000 0.820000 -0.428126
v -0.760000 0.820000 0.428126
v -0.740000 0.820000 0.428126
v 0.740000 0.820000 -0.428126
v 0.760000 0.820000 -0.428126
v 0.740000 0.820000 0.428126
v 0.760000 0.820000 0.428126
v -0.767499 0.000000 0.467499
v -0.781874 0.820000 0.481874
v -0.767499 0.000000 0.432502
v -0.781874 0.820000 0.418126
v -0.732501 0.000000 0.467499
v -0.718126 0.820000 0.481874
v -0.732501 0.000000 0.432502
v -0.718126 0.820000 0.418126
v 0.767499 0.000000 -0.432501
v -0.728127 0.745000 0.460000
v -0.728127 0.745000 0.440000
v 0.781874 0.820000 -0.418126
v 0.728125 0.745000 0.460000
v 0.767499 0.000000 -0.467498
v 0.781874 0.820000 -0.481874
v 0.728125 0.745000 0.440000
v 0.781874 0.820000 0.418126
v -0.728127 0.745000 -0.440000
v -0.728127 0.745000 -0.460000
v 0.767499 0.000000 0.432502
v 0.728125 0.745000 -0.440000
v 0.781874 0.820000 0.481874
v 0.767499 0.000000 0.467499
v 0.728125 0.745000 -0.460000
v 0.718126 0.820000 0.418126
v 0.740000 0.745000 -0.428126
v 0.760000 0.745000 -0.428126
v 0.732501 0.000000 0.432502
v 0.740000 0.745000 0.428126
v 0.718126 0.820000 0.481874
v 0.732501 0.000000 0.467499
v 0.760000 0.745000 0.428126
v 0.732501 0.000000 -0.432501
v -0.760000 0.745000 -0.428126
v -0.740000 0.745000 -0.428126
v 0.718126 0.820000 -0.418126
v -0.760000 0.745000 0.428126
v 0.732501 0.000000 -0.467498
v 0.718126 0.820000 -0.481874
v -0.740000 0.745000 0.428126
v -0.732501 0.000000 -0.432501
v -0.718126 0.820000 -0.418126
v -0.732501 0.000000 -0.467498
v -0.718126 0.820000 -0.481874
v -0.767499 0.000000 -0.432501
v -0.781874 0.820000 -0.418126
v -0.767499 0.000000 -0.467498
v -0.781874 0.820000 -0.481874
v -0.839998 0.820000 0.540000
v -0.849998 0.860000 0.550000
v -0.839999 0.820000 -0.540000
v -0.849998 0.860000 -0.550000
v 0.840003 0.820000 0.540000
v 0.850003 0.860000 0.550000
v 0.840003 0.820000 -0.540000
v 0.850002 0.860000 -0.550000
v -0.849998 0.840000 0.550000
v 0.850003 0.840000 0.550000
v 0.850002 0.840000 -0.550000
v -0.849998 0.840000 -0.550000
v -0.839998 0.830000 0.540000
v 0.840003 0.830000 0.540000
v 0.840002 0.830000 -0.540000
v -0.839999 0.830000 -0.540000
vn -0.0000 -1.0000 -0.0000
vn -0.0000 -0.0000 -1.0000
vn -0.0000 -0.0000 1.0000
vn 1.0000 -0.0000 -0.0000
vn -1.0000 -0.0000 -0.0000
vn -0.0000 -0.0175 0.9998
vn 0.9998 -0.0175 -0.0000
vn -0.9998 -0.0175 -0.0000
vn -0.0000 -0.0175 -0.9998
vn -0.0000 1.0000 -0.0000
vn -0.0000 -0.7071 -0.7071
vn -0.7071 -0.7071 -0.0000
vn 0.7071 -0.7071 -0.0000
vn -0.0000 -0.7071 0.7071
vt 0.014584 0.126667
vt 0.985418 0.126667
vt 0.985418 0.140000
vt 0.014584 0.140000
vt 0.014584 0.740000
vt 0.014584 0.790000
vt 0.985418 0.790000
vt 0.985418 0.740000
vt 0.985418 0.740000
vt 0.985418 0.790000
vt 0.014584 0.790000
vt 0.014584 0.740000
vt 0.852084 1.006665
vt 0.281250 1.006666
vt 0.281250 0.993332
vt 0.852084 0.993332
vt 0.852084 0.739998
vt 0.852084 0.789998
vt 0.281250 0.789998
vt 0.281250 0.739998
vt 0.281250 0.739998
vt 0.281250 0.789998
vt 0.852084 0.789998
vt 0.852084 0.739998
vt 0.852085 0.739997
vt 0.852085 0.789998
vt 0.281250 0.789998
vt 0.281250 0.739998
vt 0.852084 0.789998
vt 0.852084 0.739998
vt 0.738335 0.994999
vt 0.738335 0.971667
vt 0.761667 0.971667
vt 0.761667 0.994999
vt 0.193335 0.971667
vt 0.740017 0.962084
vt 0.740017 1.004583
vt 0.193335 0.994999
vt 0.176667 0.721668
vt 0.723350 0.712084
vt 0.723350 0.754583
vt 0.176667 0.744999
vt 0.723350 0.754583
vt 0.723350 0.712084
vt 0.740017 1.004582
vt 0.985418 0.726667
vt 0.985418 0.740000
vt 0.014584 0.740000
vt 0.014584 0.726667
vt 0.193335 -0.005001
vt 0.740018 0.004583
vt 0.740018 -0.037916
vt 0.193335 -0.028333
vt 0.740018 -0.037916
vt 0.740018 0.004583
vt 0.738335 -0.005001
vt 0.738336 -0.028333
vt 0.761667 -0.028333
vt 0.761667 -0.005001
vt 0.281250 0.006666
vt 0.281250 -0.006668
vt 0.852084 -0.006668
vt 0.852084 0.006666
vt 0.176667 0.278333
vt 0.723350 0.287916
vt 0.723350 0.245417
vt 0.176667 0.255001
vt 0.723350 0.245417
vt 0.723350 0.287916
vt 0.271669 -0.005001
vt 0.271669 -0.028333
vt 0.295000 -0.028333
vt 0.295000 -0.005001
vt 0.193335 0.994999
vt 0.740017 0.962084
vt 0.193335 0.971667
vt 0.271669 0.994999
vt 0.271669 0.971667
vt 0.295000 0.971667
vt 0.295000 0.994999
vt 1.441882 0.678168
vt 1.441883 -0.061849
vt 0.308117 -0.061849
vt 0.308117 0.678168
vt 1.441882 0.605469
vt 1.441883 0.617188
vt 0.308117 0.617188
vt 0.308117 0.605469
vt 1.540380 0.376968
vt 1.540380 0.388687
vt 0.800363 0.388687
vt 0.800363 0.376968
vt 0.800363 0.376968
vt 0.800363 0.388687
vt 1.540380 0.388687
vt 1.540380 0.376969
vt 0.315972 -0.052659
vt 1.434028 -0.052659
vt 1.434028 0.669396
vt 0.315972 0.669396
vt 0.303014 0.726559
vt 0.295727 0.734371
vt 1.454229 0.734378
vt 1.446944 0.726565
vt 0.806738 0.380874
vt 0.799658 0.388687
vt 1.542229 0.388687
vt 1.534946 0.380875
vt 1.534946 0.380875
vt 1.542229 0.388688
vt 0.799658 0.388687
vt 0.806738 0.380875
vt 1.444521 0.687500
vt 1.451910 0.695312
vt 0.298077 0.695312
vt 0.305467 0.687500
vt 1.434028 0.589844
vt 1.434028 0.597656
vt 0.315972 0.597656
vt 0.315972 0.589844
vt 1.531191 0.361343
vt 1.531191 0.369155
vt 0.809135 0.369156
vt 0.809135 0.361344
vt 0.809135 0.369156
vt 1.531191 0.369156
vt 1.531191 0.361343
vt 0.315972 0.589844
vt 0.315972 0.597655
vt 1.434028 0.597656
vt 0.308117 0.605469
vt 1.441883 0.605469
s 1
usemtl wood_4
f 35/1/1 40/2/1 37/3/1 34/4/1
f 27/5/2 2/6/2 4/7/2 32/8/2
f 29/9/3 3/10/3 1/11/3 26/12/3
f 43/13/1 48/14/1 45/15/1 42/16/1
f 35/5/2 6/6/2 8/7/2 40/8/2
f 37/9/3 7/10/3 5/11/3 34/12/3
f 51/17/4 10/18/4 12/19/4 56/20/4
f 53/21/5 11/22/5 9/23/5 50/24/5
f 43/25/4 14/26/4 16/27/4 48/28/4
f 45/28/5 15/27/5 13/29/5 42/30/5
f 19/31/1 23/32/1 21/33/1 17/34/1
f 21/35/6 22/36/6 18/37/6 17/38/6
f 23/39/7 24/40/7 22/41/7 21/42/7
f 17/42/8 18/43/8 20/44/8 19/39/8
f 19/38/9 20/45/9 24/36/9 23/35/9
f 32/46/1 29/47/1 26/48/1 27/49/1
f 47/42/8 46/43/8 41/44/8 44/39/8
f 44/50/9 41/51/9 33/52/9 36/53/9
f 39/53/6 38/54/6 46/55/6 47/50/6
f 36/39/7 33/40/7 38/41/7 39/42/7
f 44/56/1 36/57/1 39/58/1 47/59/1
f 54/50/9 55/51/9 31/52/9 30/53/9
f 56/60/1 53/61/1 50/62/1 51/63/1
f 49/64/8 52/65/8 55/66/8 54/67/8
f 30/67/7 31/68/7 28/69/7 25/64/7
f 25/53/6 28/54/6 52/55/6 49/50/6
f 54/70/1 30/71/1 25/72/1 49/73/1
f 63/74/9 64/45/9 60/75/9 59/76/9
f 61/64/8 62/65/8 64/66/8 63/67/8
f 59/67/7 60/68/7 58/69/7 57/64/7
f 57/76/6 58/75/6 62/37/6 61/74/6
f 63/77/1 59/78/1 57/79/1 61/80/1
f 70/81/10 72/82/10 68/83/10 66/84/10
f 74/85/3 70/86/3 66/87/3 73/88/3
f 75/89/4 72/90/4 70/91/4 74/92/4
f 73/93/5 66/94/5 68/95/5 76/96/5
f 67/97/1 71/98/1 69/99/1 65/100/1
f 80/101/11 76/102/11 75/103/11 79/104/11
f 77/105/12 73/106/12 76/107/12 80/108/12
f 79/109/13 75/110/13 74/111/13 78/112/13
f 78/113/14 74/114/14 73/115/14 77/116/14
f 69/117/3 78/118/3 77/119/3 65/120/3
f 71/121/4 79/122/4 78/123/4 69/124/4
f 65/124/5 77/125/5 80/126/5 67/127/5
f 67/128/2 80/129/2 79/130/2 71/117/2
f 76/131/2 68/87/2 72/86/2 75/132/2
