# Blender 5.0.1
# www.blender.org
mtllib display_cabinet_mp_1_4.mtl
o display_cabinet_mp_1_4
v -0.290003 1.980000 -0.190000
v -0.290002 0.120000 -0.190000
v 0.309999 0.100000 -0.210000
v 0.290002 0.120000 0.210000
v 0.289996 0.120000 -0.190000
v -0.290001 0.120000 0.210000
v 0.289996 1.980000 -0.190000
v 0.289998 1.980000 0.210000
v -0.290004 1.980000 0.210000
v -0.290002 0.470000 0.200000
v -0.290003 0.470000 -0.190000
v -0.290002 0.490000 -0.190000
v 0.289998 0.470000 -0.190000
v 0.289996 0.490000 -0.190000
v 0.290000 0.490000 0.200000
v -0.290002 0.490000 0.200000
v 0.290002 0.470000 0.200000
v 0.290002 1.270000 0.200000
v -0.290002 1.290000 0.200000
v 0.290000 1.290000 0.200000
v 0.289996 1.290000 -0.190000
v 0.289998 1.270000 -0.190000
v -0.290002 1.290000 -0.190000
v -0.290003 1.270000 -0.190000
v -0.290002 1.270000 0.200000
v -0.290002 0.880000 0.200000
v -0.290003 0.880000 -0.190000
v -0.290002 0.900000 -0.190000
v 0.289998 0.880000 -0.190000
v 0.289996 0.900000 -0.190000
v 0.290000 0.900000 0.200000
v -0.290002 0.900000 0.200000
v 0.290002 0.880000 0.200000
v -0.310005 0.100000 -0.210001
v -0.310004 2.000000 0.209999
v -0.309999 0.100000 0.209999
v 0.310002 0.100000 0.209999
v 0.345004 0.037500 -0.245001
v 0.345002 0.037500 0.244999
v -0.344998 0.037500 0.244999
v -0.344998 0.037500 -0.245001
v -0.329998 0.055000 -0.230001
v 0.330002 0.055000 0.229999
v -0.329998 0.055000 0.229999
v 0.330004 0.055000 -0.230001
v -0.329998 0.085001 0.229999
v 0.370002 0.020000 0.269999
v 0.370004 0.020000 -0.270001
v -0.369998 0.020000 -0.270001
v -0.369998 0.020000 0.269999
v 0.370004 0.000000 -0.270001
v 0.370002 -0.000000 0.269999
v -0.369998 0.000000 -0.270001
v -0.369998 0.000000 0.269999
v -0.329998 0.085000 -0.230001
v -0.337319 0.064510 -0.237321
v -0.337319 0.075490 -0.237321
v -0.337319 0.075491 0.237320
v -0.337319 0.064510 0.237320
v 0.330002 0.085000 0.229999
v 0.337323 0.064509 0.237320
v 0.337323 0.075490 0.237320
v 0.330004 0.085000 -0.230001
v 0.337324 0.075490 -0.237321
v 0.337324 0.064510 -0.237321
v 0.330002 0.100000 0.229999
v 0.330004 0.100000 -0.230001
v -0.329998 0.100000 -0.230001
v -0.329998 0.100000 0.229999
v 0.309997 2.000000 -0.210001
v -0.310005 2.000000 -0.210001
v 0.309997 2.000000 0.209999
v -0.345005 2.062500 -0.245001
v -0.345004 2.062500 0.244999
v 0.344997 2.062500 0.244999
v 0.344997 2.062500 -0.245001
v 0.329997 2.045000 -0.230001
v -0.330004 2.045001 0.229999
v 0.329997 2.045000 0.229999
v -0.330005 2.045000 -0.230001
v 0.329997 2.014999 0.229999
v -0.370004 2.080000 0.269999
v -0.370005 2.080000 -0.270001
v 0.369997 2.080000 -0.270001
v 0.369997 2.079999 0.269999
v -0.370005 2.100000 -0.270001
v -0.370004 2.100000 0.269999
v 0.369997 2.100000 -0.270001
v 0.369997 2.099999 0.269999
v 0.329997 2.015000 -0.230001
v 0.337317 2.035490 -0.237321
v 0.337317 2.024509 -0.237321
v 0.337317 2.024509 0.237320
v 0.337317 2.035490 0.237320
v -0.330004 2.015000 0.229999
v -0.337324 2.035491 0.237320
v -0.337324 2.024510 0.237320
v -0.330005 2.015000 -0.230001
v -0.337326 2.024510 -0.237321
v -0.337326 2.035490 -0.237321
v -0.330004 2.000000 0.229999
v -0.330005 2.000000 -0.230001
v 0.329997 2.000000 -0.230001
v 0.329997 2.000000 0.229999
vn -0.0000 -0.0000 1.0000
vn -0.0000 -1.0000 -0.0000
vn -1.0000 -0.0000 -0.0000
vn -0.0000 -0.0001 1.0000
vn 1.0000 -0.0000 -0.0000
vn 0.0001 -0.0000 1.0000
vn -0.0001 -0.0000 1.0000
vn -0.0000 -0.0000 -1.0000
vn -0.0000 1.0000 -0.0000
vn -0.0000 0.7729 0.6345
vn -0.0000 0.8192 0.5735
vn -0.0000 0.6508 -0.7593
vn -0.0000 0.7729 -0.6345
vn -0.0000 0.8192 -0.5735
vn 0.7593 0.6508 -0.0000
vn 0.6345 0.7729 -0.0000
vn -0.6345 0.7729 -0.0000
vn -0.5735 0.8192 -0.0000
vn -0.7593 0.6508 -0.0000
vn -0.0000 0.6508 0.7593
vn -0.0000 -0.6100 -0.7924
vn -0.0000 -0.2535 -0.9673
vn -0.0000 0.2535 -0.9673
vn -0.0000 0.6100 -0.7924
vn -0.0000 -0.6100 0.7924
vn -0.0000 -0.2535 0.9673
vn -0.0000 0.2535 0.9673
vn -0.0000 0.6100 0.7924
vn 0.7924 -0.6100 -0.0000
vn 0.9673 -0.2535 -0.0000
vn 0.9673 0.2535 -0.0000
vn 0.7924 0.6100 -0.0000
vn -0.7924 -0.6100 -0.0000
vn -0.9673 -0.2535 -0.0000
vn -0.9673 0.2535 -0.0000
vn -0.7924 0.6100 -0.0000
vn 0.5735 0.8192 -0.0000
vn -0.0000 -0.7729 0.6345
vn -0.0000 -0.8192 0.5735
vn -0.0000 -0.6508 -0.7593
vn -0.0000 -0.7729 -0.6345
vn -0.0000 -0.8192 -0.5735
vn -0.7593 -0.6508 -0.0000
vn -0.6345 -0.7729 -0.0000
vn 0.6345 -0.7729 -0.0000
vn 0.5735 -0.8192 -0.0000
vn 0.7593 -0.6508 -0.0000
vn -0.0000 -0.6508 0.7593
vn -0.5735 -0.8192 -0.0000
vt 0.376636 1.498384
vt 0.389970 1.511717
vt -0.023362 1.511713
vt -0.010030 1.498379
vt -0.035998 0.454776
vt 0.350668 0.454776
vt 0.350669 0.719257
vt -0.035998 0.719257
vt 1.187146 0.692136
vt -0.079522 0.692152
vt -0.079521 0.972150
vt 1.187147 0.972131
vt -0.009998 0.258333
vt -0.023333 0.245000
vt 0.390000 0.245000
vt 0.376670 0.258333
vt 1.187144 0.972138
vt -0.079512 0.972136
vt -0.079512 0.692137
vt 1.187143 0.692139
vt -0.420472 0.656710
vt -0.420473 0.923376
vt 1.173814 0.958805
vt 1.173815 0.692138
vt 1.016674 0.885006
vt -0.249939 0.885012
vt -0.236604 0.871671
vt 1.003342 0.871674
vt 1.160479 0.878804
vt -0.079521 0.878804
vt -0.079521 0.492138
vt 1.160479 0.492139
vt 1.003321 0.485002
vt -0.236681 0.485000
vt -0.250013 0.471666
vt 1.016655 0.471666
vt 1.173813 0.478803
vt -0.092860 0.478816
vt -0.092860 0.892149
vt 1.173814 0.892136
vt 0.376668 0.448333
vt 0.376665 0.181667
vt -0.009999 0.181667
vt -0.009998 0.448333
vt 1.173813 0.958805
vt -0.420472 0.923376
vt -0.420473 0.656709
vt 1.173812 0.692138
vt 0.222335 0.614229
vt 0.222335 0.354229
vt 0.609001 0.354229
vt 0.609002 0.614229
vt 0.089003 0.954229
vt 0.475669 0.954230
vt 0.475669 1.214229
vt 0.089002 1.214229
vt 0.501671 0.858333
vt 0.501669 0.871667
vt 0.114999 0.871666
vt 0.114999 0.858333
vt 0.714003 0.579229
vt 1.100669 0.579230
vt 1.100669 0.839229
vt 0.714002 0.839229
vt 1.126671 0.483333
vt 1.126669 0.496667
vt 0.739999 0.496666
vt 0.739999 0.483333
vt 0.847335 0.239229
vt 0.847335 -0.020771
vt 1.234001 -0.020771
vt 1.234002 0.239229
vt 0.347335 0.239229
vt 0.347335 -0.020771
vt 0.734001 -0.020771
vt 0.734002 0.239229
vt 0.214003 0.579229
vt 0.600669 0.579230
vt 0.600669 0.839230
vt 0.214002 0.839229
vt 0.626672 0.683329
vt 0.626672 0.696662
vt 0.239996 0.696662
vt 0.239995 0.683329
vt 0.974356 0.482774
vt 0.990613 0.502619
vt 0.509387 0.502619
vt 0.525645 0.482774
vt 0.535398 0.467785
vt 0.525644 0.482774
vt 0.974356 0.482774
vt 0.964601 0.467785
vt 0.509386 0.502619
vt 0.990614 0.502619
vt 0.899570 0.467785
vt 0.909325 0.482774
vt 0.590675 0.482774
vt 0.600430 0.467785
vt 0.590675 0.482774
vt 0.909325 0.482774
vt 0.925582 0.502619
vt 0.574418 0.502619
vt 0.600430 0.435281
vt 0.899570 0.435281
vt 0.899570 0.445036
vt 0.600430 0.445036
vt 0.600430 0.435281
vt 0.899570 0.435281
vt 0.899570 0.445036
vt 0.600430 0.445036
vt 0.535399 0.435281
vt 0.964601 0.435281
vt 0.964601 0.445036
vt 0.535399 0.445036
vt 0.964601 0.435281
vt 0.535399 0.435281
vt 0.535399 0.445036
vt 0.964601 0.445036
vt 0.925582 0.515625
vt 0.574418 0.515625
vt 0.600430 0.467785
vt 0.899570 0.467785
vt 0.964601 0.467785
vt 0.535399 0.467785
vt 0.499999 0.683557
vt 0.499999 0.332392
vt 0.981227 0.332392
vt 0.981226 0.683557
vt 0.574418 0.502619
vt 0.574418 0.515625
vt 0.509386 0.515625
vt 0.990614 0.515625
vt 0.990613 0.515625
vt 0.509387 0.515625
vt 0.969362 0.459981
vt 0.530638 0.459981
vt 0.530638 0.452840
vt 0.969362 0.452840
vt 0.530638 0.459981
vt 0.969362 0.459981
vt 0.530639 0.452840
vt 0.969362 0.452840
vt 0.595669 0.459981
vt 0.904331 0.459981
vt 0.595669 0.452840
vt 0.904331 0.452840
vt 0.595669 0.459981
vt 0.904331 0.459981
vt 0.595669 0.452840
vt 0.904331 0.452840
vt 0.083806 -0.005767
vt 0.083803 0.267361
vt 0.070797 0.280367
vt 0.070796 -0.018773
vt 0.486997 -0.005767
vt 0.499999 -0.018773
vt 0.486994 0.267361
vt 0.499999 0.280367
vt 0.974355 0.482774
vt 0.990613 0.502619
vt 0.509387 0.502619
vt 0.525645 0.482774
vt 0.535399 0.467785
vt 0.525644 0.482774
vt 0.974356 0.482774
vt 0.964602 0.467785
vt 0.509386 0.502619
vt 0.990614 0.502619
vt 0.899570 0.467785
vt 0.600430 0.467785
vt 0.590675 0.482774
vt 0.925582 0.502619
vt 0.600430 0.435281
vt 0.899570 0.435281
vt 0.899570 0.445036
vt 0.600430 0.445036
vt 0.600430 0.435281
vt 0.899570 0.435281
vt 0.899570 0.445036
vt 0.600430 0.445036
vt 0.535399 0.435281
vt 0.964601 0.435281
vt 0.964601 0.445036
vt 0.535399 0.445036
vt 0.964602 0.435281
vt 0.535399 0.435281
vt 0.535399 0.445036
vt 0.964602 0.445036
vt 0.600430 0.467785
vt 0.899570 0.467785
vt 0.964601 0.467785
vt 0.535399 0.467785
vt 0.499999 0.332392
vt 0.499999 -0.018773
vt 0.981227 -0.018773
vt 0.981226 0.332392
vt 0.574418 0.502619
vt 0.509386 0.515625
vt 0.990613 0.515625
vt 0.509387 0.515625
vt 0.969362 0.459981
vt 0.530638 0.459981
vt 0.530638 0.452840
vt 0.969362 0.452840
vt 0.530639 0.459981
vt 0.969361 0.459981
vt 0.530639 0.452840
vt 0.969361 0.452840
vt 0.595669 0.459981
vt 0.904331 0.459981
vt 0.595669 0.452840
vt 0.904331 0.452840
vt 0.595669 0.459981
vt 0.904331 0.459981
vt 0.595669 0.452840
vt 0.904331 0.452840
vt 0.083803 0.293373
vt 0.083804 0.566502
vt 0.070798 0.579508
vt 0.070796 0.280367
vt 0.486993 0.293373
vt 0.499999 0.280367
vt 0.486993 0.566501
vt 0.499999 0.579507
s 1
usemtl wood_6
f 8/1/1 72/2/1 35/3/1 9/4/1
f 1/5/2 7/6/2 8/7/2 9/8/2
f 36/9/3 35/10/3 71/11/3 34/12/3
f 6/13/4 36/14/4 37/15/4 4/16/4
f 3/17/5 70/18/5 72/19/5 37/20/5
f 8/21/3 7/22/3 5/23/3 4/24/3
f 37/25/6 72/26/6 8/27/6 4/28/6
f 5/29/1 7/30/1 1/31/1 2/32/1
f 6/33/7 9/34/7 35/35/7 36/36/7
f 34/37/8 71/38/8 70/39/8 3/40/8
f 4/41/9 5/42/9 2/43/9 6/44/9
f 2/45/5 1/46/5 9/47/5 6/48/5
f 15/49/9 14/50/9 12/51/9 16/52/9
f 11/53/2 13/54/2 17/55/2 10/56/2
f 17/57/1 15/58/1 16/59/1 10/60/1
f 24/61/2 22/62/2 18/63/2 25/64/2
f 18/65/1 20/66/1 19/67/1 25/68/1
f 20/69/9 21/70/9 23/71/9 19/72/9
f 31/73/9 30/74/9 28/75/9 32/76/9
f 27/77/2 29/78/2 33/79/2 26/80/2
f 33/81/1 31/82/1 32/83/1 26/84/1
f 40/85/10 50/86/11 47/87/11 39/88/10
f 45/89/12 38/90/13 41/91/13 42/92/12
f 38/90/13 48/93/14 49/94/14 41/91/13
f 43/95/15 39/96/16 38/97/16 45/98/15
f 40/99/17 41/100/17 49/101/18 50/102/18
f 69/103/3 68/104/3 55/105/3 46/106/3
f 67/107/5 66/108/5 60/109/5 63/110/5
f 66/111/1 69/112/1 46/113/1 60/114/1
f 68/115/8 67/116/8 63/117/8 55/118/8
f 50/102/3 49/101/3 53/119/3 54/120/3
f 44/121/19 42/122/19 41/100/17 40/99/17
f 44/123/20 40/85/10 39/88/10 43/124/20
f 54/125/2 53/126/2 51/127/2 52/128/2
f 48/129/5 47/101/5 52/119/5 51/130/5
f 49/94/8 48/93/8 51/131/8 53/132/8
f 47/87/1 50/86/1 54/133/1 52/134/1
f 45/89/21 42/92/21 56/135/22 65/136/22
f 64/137/23 57/138/23 55/118/24 63/117/24
f 44/123/25 43/124/25 61/139/26 59/140/26
f 59/140/26 61/139/26 62/141/27 58/142/27
f 58/142/27 62/141/27 60/114/28 46/113/28
f 43/95/29 45/98/29 65/143/30 61/144/30
f 61/144/30 65/143/30 64/145/31 62/146/31
f 62/146/31 64/145/31 63/110/32 60/109/32
f 42/122/33 44/121/33 59/147/34 56/148/34
f 56/148/34 59/147/34 58/149/35 57/150/35
f 57/150/35 58/149/35 46/106/36 55/105/36
f 39/96/16 47/101/37 48/129/37 38/97/16
f 3/151/9 37/152/9 66/153/9 67/154/9
f 34/155/9 3/151/9 67/154/9 68/156/9
f 36/157/9 34/155/9 68/156/9 69/158/9
f 37/152/9 36/157/9 69/158/9 66/153/9
f 65/136/22 56/135/22 57/138/23 64/137/23
f 75/159/38 85/160/39 82/161/39 74/162/38
f 80/163/40 73/164/41 76/165/41 77/166/40
f 73/164/41 83/167/42 84/168/42 76/165/41
f 78/169/43 74/96/44 73/97/44 80/170/43
f 75/171/45 76/100/45 84/172/46 85/129/46
f 104/173/5 103/174/5 90/175/5 81/176/5
f 102/177/3 101/178/3 95/179/3 98/180/3
f 101/181/1 104/182/1 81/183/1 95/184/1
f 103/185/8 102/186/8 98/187/8 90/188/8
f 85/129/5 84/172/5 88/119/5 89/130/5
f 79/189/47 77/190/47 76/100/45 75/171/45
f 79/191/48 75/159/38 74/162/38 78/192/48
f 89/193/9 88/194/9 86/195/9 87/196/9
f 83/197/3 82/172/3 87/119/3 86/120/3
f 84/168/8 83/167/8 86/198/8 88/132/8
f 82/161/1 85/160/1 89/199/1 87/200/1
f 80/163/24 77/166/24 91/201/23 100/202/23
f 99/203/22 92/204/22 90/188/21 98/187/21
f 79/191/28 78/192/28 96/205/27 94/206/27
f 94/206/27 96/205/27 97/207/26 93/208/26
f 93/208/26 97/207/26 95/184/25 81/183/25
f 78/169/36 80/170/36 100/209/35 96/210/35
f 96/210/35 100/209/35 99/211/34 97/212/34
f 97/212/34 99/211/34 98/180/33 95/179/33
f 77/190/32 79/189/32 94/213/31 91/214/31
f 91/214/31 94/213/31 93/215/30 92/216/30
f 92/216/30 93/215/30 81/176/29 90/175/29
f 74/96/44 82/172/49 83/197/49 73/97/44
f 71/217/2 35/218/2 101/219/2 102/220/2
f 70/221/2 71/217/2 102/220/2 103/222/2
f 72/223/2 70/221/2 103/222/2 104/224/2
f 35/218/2 72/223/2 104/224/2 101/219/2
f 100/202/23 91/201/23 92/204/22 99/203/22
o display_cabinet_mp_1_4_door
v 0.597998 1.880000 0.010001
v 0.597998 0.002000 0.010000
v -0.000003 1.880000 0.010001
v -0.000003 0.002000 0.010000
v 0.587998 1.870000 0.010001
v 0.581290 1.863292 0.013292
v 0.587998 0.012000 0.010000
v 0.581290 0.018708 0.013292
v 0.009997 1.870000 0.010001
v 0.019997 1.860000 0.020001
v 0.016705 1.863292 0.013292
v 0.009997 0.012000 0.010000
v 0.016705 0.018708 0.013292
v -0.000002 1.880000 0.000001
v 0.100003 0.102000 0.009000
v 0.100004 1.780000 0.009001
v 0.498005 0.102000 0.009000
v 0.498004 1.780000 0.009000
v 0.100003 0.102000 0.011000
v 0.100004 1.780000 0.011001
v 0.498005 0.102000 0.011000
v 0.498004 1.780000 0.011000
v 0.289002 0.097020 0.015000
v 0.289002 1.789177 0.015001
v 0.289002 0.097020 0.005000
v 0.289002 1.789177 0.005001
v 0.309002 0.097020 0.015000
v 0.309002 1.789177 0.015001
v 0.309002 0.097020 0.005000
v 0.309002 1.789177 0.005001
v 0.299002 0.097020 0.019000
v 0.299002 1.789177 0.019001
v 0.507003 0.590000 0.015000
v 0.091001 0.590000 0.015000
v 0.507003 0.590000 0.005000
v 0.091001 0.590000 0.005000
v 0.507003 0.610000 0.015000
v 0.091001 0.610000 0.015000
v 0.507003 0.610000 0.005000
v 0.091001 0.610000 0.005000
v 0.507003 0.600000 0.019000
v 0.091001 0.600000 0.019000
v 0.507003 1.030000 0.015001
v 0.091001 1.030000 0.015001
v 0.507003 1.030000 0.005001
v 0.091001 1.030000 0.005001
v 0.507003 1.050000 0.015001
v 0.091001 1.050000 0.015001
v 0.507003 1.050000 0.005001
v 0.091001 1.050000 0.005001
v 0.507003 1.040000 0.019001
v 0.091001 1.040000 0.019001
v 0.506999 1.450000 0.015001
v 0.091004 1.450000 0.015001
v 0.506999 1.450000 0.005001
v 0.091004 1.450000 0.005001
v 0.506999 1.470000 0.015001
v 0.091004 1.470000 0.015001
v 0.506999 1.470000 0.005001
v 0.091004 1.470000 0.005001
v 0.506999 1.460000 0.019001
v 0.091004 1.460000 0.019001
v 0.577963 1.859965 0.020001
v 0.578002 0.022000 0.020000
v 0.020002 0.022000 0.020000
v 0.000001 0.002000 0.000000
v 0.598002 0.002000 0.000000
v 0.597966 1.879965 0.000001
v 0.091001 0.093000 0.000000
v 0.100001 0.102000 0.009000
v 0.100001 0.102000 0.011000
v 0.091002 0.093000 0.020000
v 0.507002 0.093000 0.020000
v 0.498002 0.102000 0.011000
v 0.498002 0.102000 0.009000
v 0.507002 0.093000 -0.000000
v 0.299002 1.789177 0.000000
v 0.299002 1.780000 0.009000
v 0.091002 1.581887 0.000000
v 0.100002 1.581000 0.009000
v 0.222848 1.764852 0.009000
v 0.219336 1.773330 0.000000
v 0.158287 1.721714 0.009000
v 0.151799 1.728203 0.000000
v 0.115150 1.657154 0.009000
v 0.106672 1.660666 0.000000
v 0.091002 1.581887 0.020000
v 0.100002 1.581000 0.011000
v 0.299002 1.789177 0.020000
v 0.299002 1.780000 0.011000
v 0.115150 1.657154 0.011000
v 0.106672 1.660666 0.020000
v 0.158287 1.721714 0.011000
v 0.151799 1.728203 0.020000
v 0.222848 1.764852 0.011000
v 0.219336 1.773330 0.020000
v 0.507002 1.581887 0.020000
v 0.498002 1.581000 0.011000
v 0.378668 1.773330 0.020000
v 0.375156 1.764852 0.011000
v 0.439716 1.721714 0.011000
v 0.446205 1.728203 0.020000
v 0.482854 1.657154 0.011000
v 0.491332 1.660666 0.020000
v 0.507002 1.581887 0.000000
v 0.498002 1.581000 0.009000
v 0.482854 1.657154 0.009000
v 0.491332 1.660666 0.000000
v 0.439716 1.721714 0.009000
v 0.446205 1.728203 0.000000
v 0.378667 1.773330 0.000000
v 0.375156 1.764852 0.009000
v 0.558240 0.841800 0.040432
v 0.560262 0.815900 0.051146
v 0.556684 0.859626 0.024861
v 0.540050 0.841800 0.040432
v 0.538220 0.815900 0.051146
v 0.541607 0.859621 0.024861
v 0.558240 0.738205 0.040435
v 0.560262 0.764105 0.051149
v 0.556683 0.720379 0.024863
v 0.540050 0.738205 0.040435
v 0.538220 0.764105 0.051149
v 0.541606 0.720378 0.024863
v 0.558240 0.841800 0.035575
v 0.560262 0.815900 0.046289
v 0.556684 0.859626 0.020004
v 0.540050 0.841800 0.035575
v 0.538220 0.815900 0.046289
v 0.541607 0.859621 0.020004
v 0.558240 0.738205 0.035577
v 0.560262 0.764105 0.046292
v 0.556683 0.720379 0.020006
v 0.540050 0.738205 0.035577
v 0.538220 0.764105 0.046292
v 0.541606 0.720378 0.020006
v 0.549148 0.841800 0.047575
v 0.549245 0.815900 0.058289
v 0.549148 0.859623 0.024861
v 0.549145 0.738205 0.047577
v 0.549241 0.764105 0.058292
v 0.549145 0.720378 0.024863
v 0.554399 0.878197 0.024861
v 0.543893 0.878192 0.024861
v 0.554399 0.878197 0.020004
v 0.543893 0.878192 0.020004
v 0.543892 0.701807 0.024863
v 0.543892 0.701807 0.020006
v 0.539036 0.869621 0.024861
v 0.549148 0.869623 0.024861
v 0.559256 0.869626 0.024861
v 0.539036 0.869621 0.020004
v 0.559256 0.869626 0.020004
v 0.539035 0.710378 0.024863
v 0.539035 0.710378 0.020006
v 0.549145 0.710378 0.024863
v 0.549146 0.879623 0.024861
v 0.549145 0.700378 0.020006
v 0.549145 0.700378 0.024863
v 0.554090 0.710506 0.024636
v 0.553123 0.710507 0.027975
v 0.551671 0.706316 0.024636
v 0.551188 0.707154 0.027975
v 0.546833 0.706316 0.024636
v 0.547317 0.707155 0.027975
v 0.544414 0.710506 0.024636
v 0.545382 0.710507 0.027975
v 0.546833 0.714696 0.024636
v 0.547317 0.713859 0.027975
v 0.551671 0.714696 0.024636
v 0.551188 0.713859 0.027975
v 0.566090 0.876506 0.024636
v 0.565123 0.876507 0.027975
v 0.563671 0.872316 0.024636
v 0.563188 0.873154 0.027975
v 0.558833 0.872316 0.024636
v 0.559317 0.873154 0.027975
v 0.556414 0.876506 0.024636
v 0.557382 0.876507 0.027975
v 0.558833 0.880696 0.024636
v 0.559317 0.879859 0.027975
v 0.563671 0.880696 0.024636
v 0.563188 0.879859 0.027975
v 0.549146 0.879624 0.020002
v 0.535193 0.883123 0.024861
v 0.535193 0.883123 0.020004
v 0.530336 0.874551 0.024861
v 0.530336 0.874551 0.020004
v 0.563099 0.883128 0.024861
v 0.563099 0.883128 0.020004
v 0.567956 0.874556 0.020004
v 0.567956 0.874556 0.024861
v 0.541022 0.883268 0.024861
v 0.533207 0.869476 0.024861
v 0.533207 0.869476 0.020004
v 0.541022 0.883268 0.020004
v 0.557270 0.883272 0.020004
v 0.565085 0.869481 0.020004
v 0.565085 0.869481 0.024861
v 0.557270 0.883272 0.024861
v 0.554398 0.701807 0.020006
v 0.559255 0.710379 0.024863
v 0.554398 0.701807 0.024863
v 0.559255 0.710379 0.020006
v 0.563098 0.696877 0.020006
v 0.563098 0.696877 0.024863
v 0.567955 0.705448 0.020006
v 0.567955 0.705448 0.024863
v 0.535192 0.696876 0.020006
v 0.535192 0.696876 0.024863
v 0.530335 0.705448 0.024863
v 0.530335 0.705448 0.020006
v 0.565084 0.710524 0.020006
v 0.557269 0.696732 0.020006
v 0.557269 0.696732 0.024863
v 0.565084 0.710524 0.024863
v 0.541021 0.696731 0.024863
v 0.541021 0.696731 0.020006
v 0.533206 0.710523 0.024863
v 0.533206 0.710523 0.020006
v 0.551188 0.872859 0.027975
v 0.551671 0.873696 0.024636
v 0.547317 0.872859 0.027975
v 0.546833 0.873696 0.024636
v 0.545382 0.869507 0.027975
v 0.544414 0.869506 0.024636
v 0.547317 0.866154 0.027975
v 0.546833 0.865316 0.024636
v 0.551188 0.866154 0.027975
v 0.551671 0.865316 0.024636
v 0.553123 0.869507 0.027975
v 0.554090 0.869506 0.024636
v 0.566091 0.703507 0.024636
v 0.565123 0.703507 0.027975
v 0.563671 0.699316 0.024636
v 0.563188 0.700155 0.027975
v 0.558833 0.699316 0.024636
v 0.559317 0.700155 0.027975
v 0.556414 0.703507 0.024636
v 0.557382 0.703507 0.027975
v 0.558833 0.707697 0.024636
v 0.559317 0.706859 0.027975
v 0.563671 0.707697 0.024636
v 0.563188 0.706859 0.027975
v 0.542090 0.703506 0.024636
v 0.541123 0.703506 0.027975
v 0.539671 0.699315 0.024636
v 0.539188 0.700154 0.027975
v 0.534833 0.699316 0.024636
v 0.535317 0.700154 0.027975
v 0.532414 0.703506 0.024636
v 0.533382 0.703506 0.027975
v 0.534833 0.707696 0.024636
v 0.535317 0.706858 0.027975
v 0.539671 0.707696 0.024636
v 0.539188 0.706858 0.027975
v 0.542090 0.876506 0.024636
v 0.541123 0.876507 0.027975
v 0.539671 0.872316 0.024636
v 0.539188 0.873154 0.027975
v 0.534833 0.872316 0.024636
v 0.535317 0.873154 0.027975
v 0.532414 0.876506 0.024636
v 0.533382 0.876507 0.027975
v 0.534833 0.880696 0.024636
v 0.535317 0.879859 0.027975
v 0.539671 0.880696 0.024636
v 0.539188 0.879859 0.027975
v 0.531024 0.879823 0.024861
v 0.531024 0.879823 0.020004
v 0.567268 0.879828 0.020004
v 0.567268 0.879828 0.024861
v 0.567266 0.700177 0.020006
v 0.567266 0.700177 0.024863
v 0.531023 0.700176 0.024863
v 0.531023 0.700176 0.020006
v 0.597998 0.002000 0.010000
v -0.000003 0.002000 0.010000
v 0.587998 0.012000 0.010000
v 0.581290 0.018708 0.013292
v 0.009997 0.012000 0.010000
v 0.016705 0.018708 0.013292
v 0.578002 0.022000 0.020000
v 0.020002 0.022000 0.020000
v 0.000001 0.002000 -0.000000
v 0.598002 0.002000 -0.000000
v 0.091001 0.093000 0.000000
v 0.100001 0.102000 0.009000
v 0.100001 0.102000 0.011000
v 0.091002 0.093000 0.020000
v 0.507002 0.093000 0.020000
v 0.498002 0.102000 0.011000
v 0.498002 0.102000 0.009000
v 0.507002 0.093000 -0.000000
vn -0.0000 1.0000 -0.0018
vn -1.0000 -0.0000 -0.0002
vn 1.0000 -0.0000 -0.0019
vn 0.1181 -0.0000 0.9930
vn -0.0000 -0.0000 1.0000
vn -0.1181 -0.0000 0.9930
vn -0.0000 0.1181 0.9930
vn 0.6222 -0.0000 0.7828
vn 0.6226 -0.0000 0.7826
vn 0.8969 -0.0000 0.4422
vn -0.8976 -0.0000 0.4408
vn -0.6230 -0.0000 0.7823
vn -0.6230 -0.0000 0.7822
vn -0.0000 0.6225 0.7826
vn -0.0000 0.6222 0.7829
vn -0.0000 0.8968 0.4424
vn -1.0000 -0.0000 -0.0000
vn -0.0000 -0.0000 -1.0000
vn 1.0000 -0.0000 -0.0000
vn -0.3714 -0.0000 0.9285
vn 0.3714 -0.0000 0.9285
vn -0.0000 -1.0000 -0.0000
vn -0.0000 1.0000 -0.0000
vn -0.0000 -0.3714 0.9285
vn -0.0000 0.3714 0.9285
vn 0.3827 -0.9239 -0.0000
vn 0.9952 -0.0980 -0.0000
vn -0.9952 -0.0980 -0.0000
vn -0.7071 -0.7071 -0.0000
vn -0.3827 -0.9239 -0.0000
vn -0.9239 -0.3827 -0.0000
vn 0.9239 -0.3827 -0.0000
vn 0.7071 -0.7071 -0.0000
vn -0.0000 -0.7002 -0.7139
vn 0.2680 -0.6469 -0.7139
vn 0.4951 -0.4951 -0.7139
vn 0.6469 -0.2680 -0.7139
vn 0.7020 -0.0691 -0.7088
vn 0.7020 -0.0691 0.7088
vn 0.6469 -0.2680 0.7139
vn 0.4951 -0.4951 0.7139
vn 0.2680 -0.6469 0.7139
vn -0.0000 -0.7002 0.7139
vn -0.2680 -0.6469 0.7139
vn -0.4951 -0.4951 0.7139
vn -0.6469 -0.2680 0.7139
vn -0.7020 -0.0691 0.7088
vn -0.7020 -0.0691 -0.7088
vn -0.6469 -0.2680 -0.7139
vn -0.4951 -0.4951 -0.7139
vn -0.2680 -0.6469 -0.7139
vn 0.7071 -0.0000 -0.7071
vn 0.7071 -0.0000 0.7071
vn -0.7071 -0.0000 0.7071
vn -0.7071 -0.0000 -0.7071
vn 0.4581 0.4890 0.7423
vn 0.5527 0.1602 0.8178
vn 0.5528 0.1801 0.8137
vn 0.4008 0.5696 0.7175
vn -0.0000 -0.1908 -0.9816
vn -0.0000 -0.1903 -0.9817
vn -0.0000 0.1903 -0.9817
vn -0.0000 0.1907 -0.9816
vn 0.4580 -0.4890 0.7424
vn 0.4008 -0.5696 0.7176
vn 0.5527 -0.1801 0.8137
vn 0.5526 -0.1602 0.8179
vn -0.1533 -0.3902 0.9079
vn -0.4588 -0.4866 0.7434
vn -0.4010 -0.5687 0.7182
vn -0.1450 -0.3691 0.9180
vn -0.0000 0.6579 -0.7531
vn -0.0000 0.5212 -0.8534
vn -0.0000 0.5209 -0.8536
vn -0.9992 -0.0392 -0.0000
vn -0.9995 -0.0302 -0.0000
vn -0.9995 0.0302 -0.0000
vn -0.9992 0.0392 -0.0000
vn -0.9987 -0.0505 -0.0000
vn -0.9912 -0.1323 -0.0000
vn -0.9967 0.0814 -0.0000
vn -0.9971 0.0755 -0.0000
vn -0.9971 -0.0755 -0.0000
vn -0.9967 -0.0814 -0.0000
vn -0.9912 0.1324 -0.0000
vn -0.9987 0.0505 -0.0000
vn 0.9994 -0.0334 -0.0000
vn 0.9991 -0.0433 -0.0000
vn 0.9991 0.0433 -0.0000
vn 0.9994 0.0334 -0.0000
vn 0.9965 0.0838 -0.0000
vn 0.9967 0.0806 -0.0000
vn 0.9967 -0.0806 -0.0000
vn 0.9965 -0.0839 -0.0000
vn -0.5528 -0.1784 0.8140
vn -0.5527 -0.1581 0.8183
vn -0.5526 0.1582 0.8183
vn -0.5527 0.1785 0.8140
vn 0.9912 -0.1324 -0.0000
vn 0.9987 -0.0506 -0.0000
vn 0.9987 0.0505 -0.0000
vn 0.9912 0.1324 -0.0000
vn -0.0000 -0.5212 -0.8534
vn -0.0000 -0.5210 -0.8536
vn 0.1534 0.3903 0.9078
vn 0.1450 0.3690 0.9180
vn -0.1451 0.3692 0.9179
vn -0.4009 0.5687 0.7182
vn -0.4587 0.4867 0.7435
vn -0.1533 0.3902 0.9079
vn 0.1451 -0.3691 0.9180
vn 0.1534 -0.3902 0.9079
vn 0.4930 -0.8700 -0.0000
vn -0.3403 -0.9403 -0.0000
vn 0.0001 -0.6579 -0.7531
vn 0.9685 -0.2490 -0.0000
vn -0.9685 -0.2490 -0.0000
vn 0.9685 0.2490 -0.0000
vn -0.9685 0.2490 -0.0000
vn 0.2625 -0.9649 -0.0000
vn -0.2624 -0.9650 -0.0000
vn -0.8400 0.4849 0.2435
vn 0.8400 0.4850 0.2433
vn 0.8400 -0.4850 0.2435
vn -0.0000 -0.9699 0.2436
vn -0.0000 0.9699 0.2433
vn -0.8399 -0.4849 0.2436
vn 0.8400 0.4850 0.2434
vn 0.2620 0.9651 -0.0000
vn -0.0004 1.0000 -0.0000
vn -0.2629 0.9648 -0.0000
vn -0.8700 0.4930 -0.0000
vn -0.3403 0.9403 -0.0000
vn 0.4930 0.8700 -0.0000
vn -0.4930 -0.8700 -0.0000
vn -0.9815 -0.1913 -0.0000
vn 0.8700 0.4930 -0.0000
vn 0.3403 0.9403 -0.0000
vn -0.4930 0.8700 -0.0000
vn 0.9815 -0.1913 -0.0000
vn 0.0249 -0.9997 -0.0000
vn 0.8704 0.4924 -0.0000
vn -0.0249 -0.9997 -0.0000
vn -0.8704 0.4924 -0.0000
vn 0.8700 -0.4930 -0.0000
vn 0.3403 -0.9403 -0.0000
vn 0.9815 0.1913 -0.0000
vn -0.8700 -0.4930 -0.0000
vn -0.9815 0.1913 -0.0000
vn -0.0249 0.9997 -0.0000
vn -0.8704 -0.4924 -0.0000
vn 0.0249 0.9997 -0.0000
vn 0.8704 -0.4924 -0.0000
vn -0.8400 0.4849 0.2434
vn -0.8400 0.4850 0.2434
vn 0.8400 -0.4849 0.2435
vn -0.0000 -0.1181 0.9930
vn -0.0000 -0.8977 0.4405
vn -0.0000 -0.6230 0.7822
vn -0.0000 -0.6231 0.7822
vn -0.0000 0.7071 -0.7071
vn -0.0000 0.7071 0.7071
vt 0.105859 -0.537370
vt -0.309569 -0.537370
vt -0.309547 -0.544317
vt 0.105859 -0.544317
vt 0.579637 -0.537370
vt 0.579637 -0.530423
vt -0.725000 -0.530423
vt -0.725000 -0.537370
vt -0.843098 -0.523476
vt -0.843098 -0.530423
vt 0.461515 -0.530423
vt 0.461539 -0.523476
vt -0.837336 -0.095776
vt -0.844428 -0.102843
vt 0.475000 -0.103293
vt 0.467927 -0.096219
vt 0.467909 0.315508
vt 0.475000 0.322591
vt -0.844397 0.321438
vt -0.837324 0.314379
vt 0.462913 -0.091207
vt -0.832202 -0.090766
vt 0.459097 -0.087407
vt -0.828319 -0.086918
vt 0.459058 0.306698
vt 0.462875 0.310488
vt -0.832207 0.309379
vt -0.828344 0.305535
vt 0.359284 -0.160000
vt 0.359285 1.038571
vt 0.643571 1.038571
vt 0.643571 -0.160000
vt -0.365319 0.496667
vt 0.762785 0.496667
vt 0.762785 0.490000
vt -0.365319 0.490000
vt -0.365319 0.500000
vt 0.762785 0.500000
vt 0.762786 0.486667
vt -0.365319 0.486667
vt -0.365319 0.490000
vt -0.365319 0.496667
vt -0.365319 0.493333
vt 0.762785 0.493333
vt 0.762785 0.500000
vt -0.365319 0.500000
vt -0.365319 0.486667
vt 0.762785 0.486667
vt -0.255999 0.496667
vt 0.021336 0.496667
vt 0.021336 0.490000
vt -0.255999 0.490000
vt -0.255999 0.500000
vt 0.021336 0.500000
vt 0.021336 0.486667
vt -0.255999 0.486667
vt -0.255999 0.490000
vt 0.021336 0.490000
vt 0.021336 0.496667
vt -0.255999 0.496667
vt -0.255999 0.493333
vt 0.021336 0.493333
vt 0.021336 0.500000
vt -0.255999 0.500000
vt -0.255999 0.486666
vt 0.021336 0.486667
vt -0.255999 0.496667
vt 0.021336 0.496667
vt 0.021336 0.490000
vt -0.255999 0.490000
vt 0.494002 0.614791
vt 0.771336 0.614792
vt 0.771336 0.601458
vt 0.494002 0.601457
vt -0.255999 0.490000
vt 0.021336 0.490000
vt 0.021336 0.496667
vt -0.255999 0.496667
vt 0.494000 0.648584
vt 0.771334 0.648583
vt 0.771335 0.655253
vt 0.494000 0.655254
vt 0.494001 0.641910
vt 0.771333 0.641911
vt -0.255997 0.496667
vt 0.021333 0.496667
vt 0.021333 0.490000
vt -0.255997 0.490000
vt 0.494005 0.584793
vt 0.771334 0.584792
vt 0.771334 0.571458
vt 0.494005 0.571459
vt -0.255997 0.490000
vt 0.021333 0.490000
vt 0.021333 0.496667
vt -0.255997 0.496667
vt 0.493996 0.532189
vt 0.771323 0.532187
vt 0.771328 0.538899
vt 0.493999 0.538901
vt 0.493993 0.525471
vt 0.771318 0.525473
vt 0.263869 0.257016
vt 0.319005 0.245781
vt 0.366423 0.213822
vt 0.398188 0.166032
vt 0.409357 0.109596
vt 0.398240 0.053201
vt 0.366485 0.005405
vt 0.319063 -0.026577
vt 0.263924 -0.037843
vt -0.778142 -0.037075
vt -0.778167 0.255715
vt -0.671060 -0.547112
vt -0.671060 -0.545722
vt -0.725000 -0.545724
vt -0.725000 -0.547114
vt -0.509239 -0.547105
vt 0.518214 -0.547115
vt 0.518214 -0.545725
vt -0.509239 -0.545716
vt 0.518215 -0.544328
vt -0.509238 -0.544317
vt -0.509238 -0.545706
vt 0.518214 -0.545717
vt -0.617119 -0.545709
vt -0.617119 -0.544320
vt -0.671059 -0.544322
vt -0.671059 -0.545712
vt -0.563178 -0.545707
vt -0.563179 -0.544318
vt -0.563179 -0.545717
vt -0.563179 -0.547107
vt -0.617119 -0.547109
vt -0.617119 -0.545720
vt -0.725000 -0.544326
vt -0.725000 -0.545716
vt 0.393328 -0.313322
vt 0.382928 -0.366057
vt 0.391154 -0.369490
vt 0.402217 -0.313379
vt 0.353270 -0.410744
vt 0.359553 -0.417046
vt 0.308892 -0.440672
vt 0.312351 -0.448868
vt 0.256395 -0.451402
vt 0.257473 -0.460068
vt 0.262793 0.248309
vt 0.315541 0.237541
vt 0.360113 0.207480
vt 0.389908 0.162587
vt 0.400412 0.109475
vt 0.389973 0.056650
vt 0.360174 0.011739
vt 0.315589 -0.018343
vt 0.262849 -0.029136
vt 0.256433 -0.175257
vt 0.308921 -0.186007
vt 0.312372 -0.177811
vt 0.257503 -0.166595
vt 0.353262 -0.215950
vt 0.359545 -0.209645
vt 0.382888 -0.260639
vt 0.391128 -0.257216
vt -0.772139 -0.451367
vt -0.779762 -0.458883
vt -0.770516 0.248178
vt -0.770469 -0.029532
vt -0.779728 -0.167430
vt -0.772099 -0.174949
vt 0.400417 0.109649
vt 0.393320 -0.313496
vt -0.843420 -0.522278
vt 0.465711 -0.523476
vt 0.465711 -0.103293
vt -0.843383 -0.104010
vt 0.761821 0.199509
vt 0.757722 0.227393
vt 0.744546 0.228267
vt 0.751039 0.195161
vt 0.860639 0.197541
vt 0.882774 0.197541
vt 0.882774 0.249555
vt 0.860639 0.249555
vt 0.768927 0.306466
vt 0.758812 0.312202
vt 0.747997 0.280245
vt 0.761176 0.279370
vt 0.783971 0.331384
vt 0.780543 0.306053
vt 0.790569 0.327619
vt 0.864040 0.301471
vt 0.862476 0.277702
vt 0.880743 0.277702
vt 0.879180 0.301471
vt 0.834241 0.291614
vt 0.829363 0.291614
vt 0.829365 0.239601
vt 0.834243 0.239600
vt 0.855761 0.195561
vt 0.860638 0.195561
vt 0.845002 0.213526
vt 0.840124 0.213526
vt 0.840123 0.317688
vt 0.845001 0.317688
vt 0.860638 0.335658
vt 0.855761 0.335658
vt 0.798088 0.239618
vt 0.802965 0.239618
vt 0.802967 0.291632
vt 0.798089 0.291632
vt 0.813726 0.317720
vt 0.808848 0.317720
vt 0.808847 0.213530
vt 0.813725 0.213530
vt 0.774354 0.278497
vt 0.770904 0.226516
vt 0.829363 0.335690
vt 0.824485 0.335690
vt 0.824485 0.195561
vt 0.829363 0.195561
vt 0.862476 0.169394
vt 0.880743 0.169394
vt 0.773438 0.172817
vt 0.766550 0.169616
vt 0.780478 0.175680
vt 0.773394 0.198382
vt 0.777566 0.335467
vt 0.780583 0.345291
vt 0.789193 0.340037
vt 0.789149 0.350067
vt 0.797855 0.334868
vt 0.798088 0.344674
vt 0.792016 0.169957
vt 0.790301 0.154266
vt 0.795575 0.156695
vt 0.798088 0.161354
vt 0.796641 0.166447
vt 0.860639 0.374271
vt 0.855761 0.374271
vt 0.855761 0.368416
vt 0.860639 0.368416
vt 0.879181 0.145625
vt 0.864041 0.145629
vt 0.829363 0.346059
vt 0.824485 0.346059
vt 0.855761 0.185192
vt 0.860638 0.185192
vt 0.768241 0.159476
vt 0.777470 0.163547
vt 0.786742 0.167529
vt 0.824485 0.185192
vt 0.829363 0.185192
vt 0.860638 0.346027
vt 0.855761 0.346027
vt 0.824486 0.145625
vt 0.829363 0.145625
vt 0.829363 0.151092
vt 0.824486 0.151092
vt 0.785676 0.157777
vt 0.776103 0.153606
vt 0.781453 0.154396
vt 0.794348 0.348580
vt 0.855761 0.380127
vt 0.860639 0.380127
vt 0.860639 0.385593
vt 0.855761 0.385593
vt 0.944521 0.267653
vt 0.944584 0.267578
vt 0.944630 0.267630
vt 0.944580 0.267690
vt 0.944538 0.267838
vt 0.944468 0.267838
vt 0.944482 0.267742
vt 0.944549 0.267761
vt 0.944765 0.268136
vt 0.944765 0.268214
vt 0.944698 0.268253
vt 0.944630 0.268214
vt 0.944630 0.268136
vt 0.944698 0.268097
vt 0.944482 0.267934
vt 0.944549 0.267915
vt 0.944521 0.268023
vt 0.944580 0.267986
vt 0.944584 0.268097
vt 0.944630 0.268045
vt 0.944683 0.267134
vt 0.944746 0.267059
vt 0.944793 0.267111
vt 0.944743 0.267171
vt 0.944700 0.267319
vt 0.944630 0.267319
vt 0.944644 0.267223
vt 0.944711 0.267242
vt 0.944765 0.266890
vt 0.944765 0.266968
vt 0.944698 0.267007
vt 0.944630 0.266968
vt 0.944630 0.266890
vt 0.944698 0.266852
vt 0.944644 0.267415
vt 0.944711 0.267396
vt 0.944683 0.267504
vt 0.944743 0.267467
vt 0.944746 0.267578
vt 0.944793 0.267526
vt 0.829362 0.380159
vt 0.829363 0.385625
vt 0.824484 0.385625
vt 0.824484 0.380159
vt 0.855760 0.151092
vt 0.855760 0.145625
vt 0.860639 0.145625
vt 0.860638 0.151092
vt 0.855760 0.168142
vt 0.855760 0.162803
vt 0.860638 0.162803
vt 0.860638 0.168142
vt 0.855760 0.156948
vt 0.860638 0.156948
vt 0.860638 0.179337
vt 0.855761 0.179337
vt 0.855760 0.173481
vt 0.860638 0.173481
vt 0.829362 0.363109
vt 0.829362 0.368448
vt 0.824485 0.368448
vt 0.824485 0.363109
vt 0.775518 0.147828
vt 0.762868 0.157273
vt 0.762282 0.151496
vt 0.765022 0.146964
vt 0.770144 0.145625
vt 0.829362 0.374303
vt 0.824484 0.374303
vt 0.824485 0.351914
vt 0.829363 0.351914
vt 0.829362 0.357770
vt 0.824485 0.357770
vt 0.824485 0.168142
vt 0.824485 0.162803
vt 0.829363 0.162803
vt 0.829363 0.168142
vt 0.882774 0.286290
vt 0.896424 0.278100
vt 0.896424 0.283956
vt 0.893216 0.288223
vt 0.887941 0.289046
vt 0.824485 0.156947
vt 0.829363 0.156947
vt 0.829363 0.179336
vt 0.824485 0.179336
vt 0.824485 0.173481
vt 0.829363 0.173481
vt 0.860639 0.363077
vt 0.855761 0.363077
vt 0.882774 0.291802
vt 0.896424 0.299992
vt 0.891258 0.302747
vt 0.885982 0.301924
vt 0.882774 0.297657
vt 0.855761 0.351882
vt 0.860638 0.351882
vt 0.860639 0.357738
vt 0.855761 0.357738
vt 0.882774 0.280435
vt 0.891258 0.275345
vt 0.896424 0.294136
vt 0.944584 0.268616
vt 0.944521 0.268542
vt 0.944580 0.268505
vt 0.944630 0.268564
vt 0.944549 0.268280
vt 0.944482 0.268260
vt 0.944521 0.268172
vt 0.944580 0.268209
vt 0.944482 0.268453
vt 0.944549 0.268434
vt 0.944468 0.268357
vt 0.944538 0.268357
vt 0.944630 0.266657
vt 0.944630 0.266579
vt 0.944698 0.266541
vt 0.944765 0.266579
vt 0.944765 0.266657
vt 0.944698 0.266696
vt 0.944630 0.268149
vt 0.944521 0.267134
vt 0.944584 0.267059
vt 0.944630 0.267111
vt 0.944580 0.267171
vt 0.944538 0.267319
vt 0.944468 0.267319
vt 0.944482 0.267223
vt 0.944549 0.267242
vt 0.944765 0.267981
vt 0.944765 0.268058
vt 0.944630 0.268058
vt 0.944630 0.267981
vt 0.944698 0.267942
vt 0.944482 0.267415
vt 0.944549 0.267396
vt 0.944521 0.267504
vt 0.944580 0.267467
vt 0.944630 0.267526
vt 0.944521 0.266615
vt 0.944584 0.266541
vt 0.944630 0.266592
vt 0.944580 0.266652
vt 0.944538 0.266800
vt 0.944468 0.266800
vt 0.944482 0.266704
vt 0.944549 0.266723
vt 0.944765 0.266735
vt 0.944765 0.266813
vt 0.944630 0.266813
vt 0.944630 0.266735
vt 0.944482 0.266896
vt 0.944549 0.266877
vt 0.944521 0.266985
vt 0.944580 0.266948
vt 0.944630 0.267008
vt 0.944521 0.268690
vt 0.944630 0.268668
vt 0.944580 0.268728
vt 0.944538 0.268876
vt 0.944468 0.268876
vt 0.944482 0.268779
vt 0.944549 0.268799
vt 0.944765 0.267617
vt 0.944765 0.267695
vt 0.944698 0.267734
vt 0.944630 0.267695
vt 0.944630 0.267617
vt 0.944698 0.267578
vt 0.944482 0.268972
vt 0.944549 0.268952
vt 0.944521 0.269061
vt 0.944580 0.269024
vt 0.944584 0.269135
vt 0.944630 0.269083
vt -0.428686 -0.544507
vt -0.428689 -0.537560
vt -0.844117 -0.537560
vt -0.844114 -0.544507
vt -0.837024 0.314293
vt -0.844089 0.321351
vt -0.844117 -0.102774
vt -0.837033 -0.095707
vt -0.828225 0.305512
vt -0.832016 0.309292
vt -0.832006 -0.090697
vt -0.828195 -0.086914
vt -0.778284 -0.037085
vt -0.778317 0.255704
vt -0.780461 -0.459225
vt -0.780426 -0.167508
vt -0.844072 -0.103938
vt -0.844117 -0.522768
vt -0.772847 -0.451676
vt -0.772807 -0.175060
vt -0.770675 0.248118
vt -0.770625 -0.029492
vt -0.844117 -0.547304
vt -0.844117 -0.548693
vt -0.567628 -0.548693
vt -0.567628 -0.547304
s 1
usemtl wood_6
f 107/225/50 105/226/50 172/227/50 118/228/50
f 170/229/51 108/230/51 107/231/51 118/232/51
f 106/233/52 171/234/52 172/235/52 105/236/52
f 111/237/53 106/238/54 105/239/54 109/240/53
f 113/241/55 107/242/54 108/243/54 116/244/55
f 109/240/56 105/239/54 107/242/54 113/241/56
f 109/240/53 110/245/57 112/246/58 111/237/53
f 110/245/57 167/247/59 168/248/59 112/246/58
f 114/249/60 115/250/61 117/251/62 169/252/60
f 115/250/61 113/241/55 116/244/55 117/251/62
f 113/241/56 115/250/63 110/245/64 109/240/56
f 115/250/63 114/249/65 167/247/65 110/245/64
f 127/257/66 128/258/66 130/259/66 129/260/66
f 129/261/67 130/262/67 134/263/67 133/264/67
f 133/265/68 134/259/68 132/258/68 131/266/68
f 135/267/69 136/268/69 128/269/69 127/270/69
f 131/271/70 132/272/70 136/268/70 135/267/70
f 137/273/71 138/274/71 140/275/71 139/276/71
f 139/277/67 140/278/67 144/279/67 143/280/67
f 143/281/72 144/282/72 142/283/72 141/284/72
f 145/285/73 146/286/73 138/287/73 137/288/73
f 141/289/74 142/290/74 146/286/74 145/285/74
f 147/291/71 148/292/71 150/293/71 149/294/71
f 149/295/67 150/296/67 154/297/67 153/298/67
f 153/299/72 154/300/72 152/301/72 151/302/72
f 155/303/73 156/304/73 148/305/73 147/306/73
f 151/307/74 152/308/74 156/304/74 155/303/74
f 157/309/71 158/310/71 160/311/71 159/312/71
f 159/313/67 160/314/67 164/315/67 163/316/67
f 163/317/72 164/318/72 162/319/72 161/320/72
f 165/321/73 166/322/73 158/323/73 157/324/73
f 161/325/74 162/326/74 166/322/74 165/321/74
f 191/327/54 196/328/54 198/329/54 200/330/54 193/331/54 203/332/54 206/333/54 208/334/54 201/335/54 177/336/54 168/248/54 167/247/54 114/249/54 169/252/54 176/337/54
f 199/338/75 185/339/75 182/340/71 194/341/71
f 192/342/76 175/343/68 174/344/68 184/345/76
f 178/346/66 202/347/77 210/348/77 179/349/66
f 213/350/78 205/351/78 204/352/79 216/353/79
f 211/354/80 207/355/80 205/351/78 213/350/78
f 192/342/76 184/345/76 189/356/81 195/357/81
f 197/358/82 187/359/82 185/339/75 199/338/75
f 210/348/77 202/347/77 207/355/80 211/354/80
f 195/357/81 189/356/81 187/359/82 197/358/82
f 216/353/79 204/352/79 194/360/71 182/361/71
f 182/362/83 185/363/84 186/364/84 181/365/83
f 185/363/84 187/366/85 188/367/85 186/364/84
f 187/366/85 189/368/86 190/369/86 188/367/85
f 189/368/86 184/370/87 183/371/87 190/369/86
f 192/372/88 195/373/89 196/328/89 191/327/88
f 195/373/89 197/374/90 198/329/90 196/328/89
f 197/374/90 199/375/91 200/330/91 198/329/90
f 199/375/91 194/376/92 193/331/92 200/330/91
f 204/377/93 205/378/94 206/333/94 203/332/93
f 205/378/94 207/379/95 208/334/95 206/333/94
f 207/379/95 202/380/96 201/335/96 208/334/95
f 210/381/97 211/382/98 212/383/98 209/384/97
f 211/382/98 213/385/99 214/386/99 212/383/98
f 213/385/99 216/387/100 215/388/100 214/386/99
f 184/370/87 174/389/101 173/390/101 183/371/87
f 191/327/88 176/337/102 175/391/102 192/372/88
f 177/336/103 201/335/96 202/380/96 178/392/103
f 209/384/97 180/393/104 179/394/104 210/381/97
f 194/395/92 204/377/93 203/332/93 193/331/92
f 216/387/100 182/396/83 181/365/83 215/388/100
f 209/384/67 212/383/67 214/386/67 215/388/67 181/365/67 186/364/67 188/367/67 190/369/67 183/371/67 173/390/67 170/397/67 118/398/67 172/399/67 171/400/67 180/393/67
f 390/667/71 381/668/71 382/669/71 389/670/71
f 385/671/206 382/672/54 381/673/54 383/674/206
f 388/675/207 386/676/208 384/677/209 387/678/207
f 386/676/208 385/671/206 383/674/206 384/677/209
f 395/679/54 394/680/54 388/675/54 387/678/54
f 391/681/67 398/682/67 390/683/67 389/684/67
f 392/685/210 397/686/210 398/682/210 391/681/210
f 393/687/211 394/680/211 395/679/211 396/688/211
f 392/689/72 393/690/72 396/691/72 397/692/72
s 0
usemtl glass_mp_1
f 121/253/54 122/254/54 120/255/54 119/256/54
f 125/253/54 126/254/54 124/255/54 123/256/54
s 1
usemtl metal_6
f 241/401/105 242/402/106 218/403/107 217/404/108
f 233/405/109 230/406/110 236/407/111 239/408/112
f 244/409/113 223/410/114 224/411/115 245/412/116
f 246/413/117 244/409/118 226/414/119 228/415/120
f 240/416/121 238/417/122 235/418/123 237/419/121
f 239/420/124 227/421/125 221/422/126 233/423/127
f 222/424/128 234/425/129 232/426/130 220/427/131
f 226/428/132 238/429/133 240/430/134 228/431/135
f 220/427/131 232/426/130 233/423/127 221/422/126
f 227/421/125 239/420/124 238/429/133 226/428/132
f 224/432/136 236/433/137 230/434/138 218/435/139
f 218/435/139 230/434/138 229/436/140 217/437/141
f 223/438/142 235/439/143 236/433/137 224/432/136
f 227/440/144 245/412/145 242/402/146 221/441/147
f 217/437/141 229/436/140 231/442/148 219/443/149
f 225/444/150 237/445/151 235/439/143 223/438/142
f 238/417/122 239/408/112 236/407/111 235/418/123
f 232/446/152 229/447/153 230/406/110 233/405/109
f 243/448/154 241/401/105 217/404/108 219/449/155
f 222/450/156 220/451/157 241/401/158 243/448/159
f 220/451/157 221/441/147 242/402/146 241/401/158
f 225/452/160 223/410/114 244/409/113 246/413/161
f 226/414/119 244/409/118 245/412/145 227/440/144
f 306/453/54 260/454/54 307/455/54
f 258/456/54 251/457/54 260/454/54
f 298/458/54 297/459/54 289/460/54 373/461/54 291/462/54
f 322/463/162 321/464/162 314/465/163 313/466/163
f 231/467/164 229/447/153 232/446/152 234/468/164
f 231/442/148 257/469/165 255/470/165 219/443/149
f 222/424/128 253/471/166 256/472/166 234/425/129
f 219/449/155 255/473/54 254/474/54 243/448/154
f 243/448/159 254/474/54 253/475/54 222/450/156
f 246/413/161 260/454/54 306/453/54 225/452/160
f 228/415/120 258/456/54 260/454/54 246/413/117
f 225/444/150 306/476/167 308/477/167 237/445/151
f 240/430/134 259/478/168 258/479/168 228/431/135
f 263/480/71 262/481/71 305/482/169 307/483/169
f 253/475/54 254/474/54 248/484/54
f 255/473/54 247/485/54 254/474/54
f 261/486/54 248/484/54 254/474/54
f 260/454/54 251/457/54 263/487/54
f 251/488/170 252/489/170 262/490/71 263/491/71
f 307/455/54 260/454/54 263/487/54
f 247/485/54 261/486/54 254/474/54
f 245/412/116 224/411/115 218/403/107 242/402/106
f 272/492/171 270/493/171 271/494/171 273/495/171
f 265/496/172 264/497/172 274/498/172 275/499/172
f 269/500/54 267/501/54 265/502/54 275/503/54 273/504/54 271/505/54
f 266/506/173 264/497/173 265/496/173 267/507/173
f 268/508/174 266/506/174 267/507/174 269/509/174
f 275/499/175 274/498/175 272/492/175 273/495/175
f 270/510/176 268/508/176 269/509/176 271/511/176
f 284/512/171 282/513/171 283/514/171 285/515/171
f 277/516/177 276/517/177 286/518/177 287/519/177
f 281/520/54 279/521/54 277/522/54 287/523/54 285/524/54 283/525/54
f 278/526/173 276/517/173 277/516/173 279/527/173
f 280/528/174 278/526/174 279/527/174 281/529/174
f 287/519/175 286/518/175 284/512/175 285/515/175
f 282/530/176 280/528/176 281/529/176 283/531/176
f 249/532/178 288/533/179 261/534/179 247/535/178
f 248/536/180 261/537/179 288/538/179 250/539/180
f 373/540/181 289/541/182 290/542/182 374/543/181
f 297/544/183 300/545/183 290/542/182 289/541/182
f 299/546/184 298/547/184 291/548/185 292/549/185
f 375/550/186 294/551/187 293/552/187 376/553/186
f 304/554/54 303/555/54 296/556/54 376/557/54 293/558/54
f 301/559/188 304/560/188 293/552/187 294/551/187
f 303/561/162 302/562/162 295/563/189 296/564/189
f 256/472/190 253/471/190 298/547/184 299/546/184
f 248/536/191 250/539/191 300/545/183 297/544/183
f 253/475/54 248/484/54 297/459/54 298/458/54
f 255/470/192 257/469/192 302/562/162 303/561/162
f 249/532/193 247/535/193 304/560/188 301/559/188
f 247/485/54 255/473/54 303/555/54 304/554/54
f 378/565/194 310/566/195 309/567/195 377/568/194
f 320/569/54 319/570/54 310/571/54 378/572/54 312/573/54
f 319/574/184 318/575/184 309/567/195 310/566/195
f 317/576/183 320/577/183 312/578/196 311/579/196
f 380/580/197 313/466/163 314/465/163 379/581/197
f 321/582/54 323/583/54 315/584/54 379/585/54 314/586/54
f 323/587/188 324/588/188 316/589/198 315/590/198
f 308/477/199 306/476/199 320/577/183 317/576/183
f 307/483/200 305/482/200 318/575/184 319/574/184
f 306/591/54 307/592/54 319/570/54 320/569/54
f 258/479/201 259/478/201 324/588/188 323/587/188
f 251/573/54 258/593/54 323/583/54 321/582/54
f 252/489/202 251/488/202 321/464/162 322/463/162
f 330/594/176 332/595/176 331/596/176 329/597/176
f 325/598/175 326/599/175 328/600/175 327/601/175
f 332/595/174 334/602/174 333/603/174 331/596/174
f 334/602/173 336/604/173 335/605/173 333/603/173
f 331/606/54 333/607/54 335/608/54 325/609/54 327/610/54 329/611/54
f 335/605/172 336/604/172 326/599/172 325/598/172
f 328/600/203 330/510/203 329/612/203 327/601/203
f 345/613/204 343/614/204 344/615/204 346/616/204
f 338/617/177 337/618/177 347/619/177 348/620/177
f 342/621/54 340/622/54 338/505/54 348/623/54 346/624/54 344/625/54
f 339/626/205 337/618/205 338/617/205 340/627/205
f 341/628/174 339/626/174 340/627/174 342/629/174
f 348/620/175 347/619/175 345/613/175 346/616/175
f 343/493/176 341/628/176 342/629/176 344/630/176
f 357/631/203 355/632/203 356/633/203 358/634/203
f 350/635/177 349/636/177 359/637/177 360/638/177
f 354/639/54 352/640/54 350/525/54 360/641/54 358/642/54 356/611/54
f 351/643/173 349/636/173 350/635/173 352/644/173
f 353/645/174 351/643/174 352/644/174 354/646/174
f 360/638/175 359/637/175 357/631/175 358/634/175
f 355/614/176 353/645/176 354/646/176 356/647/176
f 369/648/171 367/594/171 368/649/171 370/650/171
f 362/651/177 361/652/177 371/653/177 372/654/177
f 366/655/54 364/656/54 362/657/54 372/658/54 370/659/54 368/660/54
f 363/661/205 361/652/205 362/651/205 364/662/205
f 365/663/174 363/661/174 364/662/174 366/664/174
f 372/654/175 371/653/175 369/648/175 370/650/175
f 367/665/176 365/663/176 366/664/176 368/666/176
f 295/563/189 375/550/186 376/553/186 296/564/189
f 291/548/185 373/540/181 374/543/181 292/549/185
f 312/578/196 378/565/194 377/568/194 311/579/196
f 316/589/198 380/580/197 379/581/197 315/590/198
