# Blender 5.0.1
# www.blender.org
mtllib old_mattress_mp_1_1.mtl
o old_mattress_mp_1_1
v -1.200000 -0.000002 0.650000
v -1.300000 -0.000002 0.550000
v -1.250000 -0.000002 0.636603
v -1.286603 -0.000002 0.600000
v -1.300000 0.199998 0.550001
v -1.200000 0.199998 0.650001
v -1.286603 0.199998 0.600001
v -1.250000 0.199998 0.636603
v -1.300000 0.000002 -0.550000
v -1.200000 0.000002 -0.650000
v -1.286603 0.000002 -0.600000
v -1.250000 0.000002 -0.636603
v -1.200000 0.200002 -0.649999
v -1.300000 0.200002 -0.549999
v -1.250000 0.200002 -0.636602
v -1.286603 0.200002 -0.599999
v 1.300000 -0.000002 0.540000
v 1.200000 -0.000002 0.640000
v 1.286602 -0.000002 0.590000
v 1.250000 -0.000002 0.626603
v 1.200000 0.199998 0.640001
v 1.300000 0.199998 0.540001
v 1.250000 0.199998 0.626603
v 1.286602 0.199998 0.590001
v 1.200000 0.000002 -0.660000
v 1.300000 0.000002 -0.560000
v 1.250000 0.000002 -0.646603
v 1.286602 0.000002 -0.610000
v 1.300000 0.200002 -0.559999
v 1.200000 0.200002 -0.659999
v 1.286602 0.200002 -0.609999
v 1.250000 0.200002 -0.646602
v -1.210000 0.028569 0.660000
v -1.260000 0.171426 0.646603
v -1.260000 0.028569 0.646603
v -1.296603 0.028569 0.610000
v -1.310000 0.171427 0.560001
v -1.310000 0.028569 0.560000
v -1.210000 0.028574 -0.660000
v -1.260000 0.028574 -0.646602
v -1.296603 0.028574 -0.610000
v -1.310000 0.028573 -0.560000
v 1.296602 0.028574 -0.620000
v 1.260000 0.028574 -0.656602
v 1.210000 0.028574 -0.670000
v 1.210000 0.028569 0.650000
v 1.260000 0.171426 0.636603
v 1.296602 0.028569 0.600000
v 1.310000 0.028570 0.550000
v 1.310000 0.171427 0.550001
v 1.301511 0.099998 0.541512
v 1.296240 0.170134 0.599639
v 1.288106 0.099998 0.591504
v 1.259638 0.029862 0.636241
v 1.251503 0.099998 0.628107
v 1.209651 0.170186 -0.669651
v 1.201511 0.100002 -0.661511
v 1.259638 0.170138 -0.656240
v 1.251503 0.100002 -0.648106
v 1.296240 0.170138 -0.619637
v 1.288106 0.100002 -0.611503
v -1.309651 0.170185 -0.559651
v -1.301512 0.100002 -0.551511
v -1.296241 0.170138 -0.609637
v -1.288106 0.100002 -0.601503
v -1.259638 0.170138 -0.646240
v -1.251504 0.100002 -0.638106
v -1.209651 0.170181 0.659652
v -1.201512 0.099998 0.651512
v 1.209651 0.170181 0.649652
v 1.201511 0.099998 0.641512
v 1.309651 0.029819 -0.569651
v 1.309651 0.170185 -0.569651
v 1.301511 0.100002 -0.561511
v -1.209651 0.170186 -0.659651
v -1.201512 0.100002 -0.651511
v -1.301512 0.099998 0.551512
v -1.296241 0.170134 0.609639
v -1.288106 0.099998 0.601504
v -1.251504 0.099998 0.638107
v 0.722540 -0.000002 0.650000
v 0.240848 -0.000002 0.660000
v -0.240847 -0.000002 0.670000
v -0.722539 -0.000002 0.660000
v 0.722540 0.179998 0.650001
v 0.240848 0.179998 0.660001
v -0.240847 0.169998 0.670001
v -0.722539 0.179998 0.660001
v 0.722540 0.028569 0.660000
v 0.240848 0.028569 0.670000
v -0.240847 0.028569 0.680000
v -0.722539 0.028569 0.670000
v 0.722540 0.150181 0.659652
v 0.240848 0.150181 0.669652
v -0.240847 0.140181 0.679652
v -0.722539 0.150181 0.669652
v -0.722539 0.099998 0.661512
v -0.240847 0.079998 0.671512
v 0.240848 0.099998 0.661512
v 0.722540 0.089998 0.651512
v -0.722539 0.000002 -0.640000
v -0.240847 0.000002 -0.630000
v 0.240848 0.000002 -0.640000
v 0.722540 0.000002 -0.650000
v 0.722540 0.180002 -0.649999
v 0.240848 0.180002 -0.639999
v -0.240847 0.170002 -0.629999
v -0.722539 0.180002 -0.639999
v -0.722539 0.028574 -0.650000
v -0.240847 0.028574 -0.640000
v 0.240848 0.028574 -0.650000
v 0.722540 0.028574 -0.660000
v -0.722539 0.150186 -0.649651
v -0.240847 0.140186 -0.639651
v 0.240848 0.150186 -0.649651
v 0.722540 0.150186 -0.659651
v 0.722540 0.090002 -0.651511
v 0.240848 0.100002 -0.641511
v -0.240847 0.080002 -0.631511
v -0.722539 0.100002 -0.641511
v 1.200000 0.199998 0.540385
v 0.722540 0.179998 0.541389
v 0.240848 0.179998 0.542409
v -0.240847 0.169998 0.545094
v -0.722539 0.179998 0.546114
v -1.200000 0.199998 0.549616
v 1.200000 0.200002 -0.559615
v 0.722540 0.180002 -0.556952
v 0.240848 0.180002 -0.554273
v -0.240847 0.170002 -0.553247
v -0.722539 0.180002 -0.550568
v -1.200000 0.200002 -0.550384
v 1.200000 0.000002 -0.559615
v 0.722540 0.000002 -0.557779
v 0.240848 0.000002 -0.555926
v -0.240847 0.000002 -0.554074
v -0.722539 0.000002 -0.552221
v -1.200000 0.000002 -0.550385
v 1.200000 -0.000002 0.540385
v 0.722540 -0.000002 0.542221
v 0.240848 -0.000002 0.544074
v -0.240847 -0.000002 0.545926
v -0.722539 -0.000002 0.547779
v -1.200000 -0.000002 0.549616
v -1.290000 0.000000 0.000000
v 1.290000 0.000000 -0.010000
v -1.290000 0.170000 0.000001
v 1.290000 0.170000 -0.009999
v -1.300000 0.028571 0.000000
v 1.291511 0.080000 -0.010000
v -1.291512 0.080000 0.000000
v -1.299826 0.140806 0.000175
v 1.299825 0.029194 -0.009826
v 1.299825 0.140806 -0.009825
v 1.190000 0.170000 -0.009615
v 0.722540 0.150000 -0.007782
v 0.240848 0.150000 -0.005932
v -0.240847 0.140000 -0.004076
v -0.722539 0.150000 -0.002227
v -1.190000 0.170000 -0.000384
v 1.190000 0.000000 -0.009615
v 0.722540 0.000000 -0.007779
v 0.240848 0.000000 -0.005926
v -0.240847 0.000000 -0.004074
v -0.722539 0.000000 -0.002221
v -1.190000 0.000000 -0.000384
vn -0.0177 0.0847 0.9963
vn -0.0101 0.3085 0.9512
vn -0.1036 0.3415 0.9342
vn -0.1474 0.1085 0.9831
vn 0.9960 0.0898 -0.0004
vn 0.9495 0.3139 -0.0005
vn 0.9331 0.3495 0.0854
vn 0.9833 0.1191 0.1374
vn 0.0210 0.9994 0.0271
vn 0.0227 0.9997 -0.0000
vn -0.0000 1.0000 -0.0000
vn 0.0001 0.9996 0.0296
vn -0.9960 0.0898 -0.0004
vn -0.9495 0.3139 -0.0005
vn -0.9376 0.3373 -0.0847
vn -0.9848 0.1110 -0.1339
vn -0.0000 -1.0000 -0.0000
vn -0.4382 0.4155 0.7971
vn -0.5063 0.1339 0.8519
vn -0.8540 0.1258 0.5049
vn -0.7966 0.4153 0.4393
vn -0.9331 0.3495 0.0854
vn -0.9833 0.1191 0.1374
vn -0.1353 -0.1200 -0.9835
vn -0.0881 -0.3582 -0.9295
vn -0.4349 -0.4293 -0.7916
vn -0.5053 -0.1362 -0.8521
vn -0.7916 -0.4293 -0.4349
vn -0.8521 -0.1362 -0.5053
vn -0.9293 -0.3584 -0.0897
vn -0.9839 -0.1156 -0.1360
vn 0.9855 -0.1064 -0.1324
vn 0.9353 -0.3426 -0.0883
vn 0.7971 -0.4219 -0.4320
vn 0.8536 -0.1351 -0.5031
vn 0.4349 -0.4293 -0.7916
vn 0.5053 -0.1362 -0.8521
vn 0.0881 -0.3582 -0.9295
vn 0.1350 -0.1180 -0.9838
vn 0.1560 -0.1175 0.9807
vn 0.1155 -0.3563 0.9272
vn 0.4393 -0.4153 0.7966
vn 0.5049 -0.1258 0.8540
vn 0.7915 -0.4229 0.4412
vn 0.8504 -0.1350 0.5085
vn 0.9306 -0.3550 0.0895
vn 0.9841 -0.1146 0.1359
vn -0.4349 -0.4293 0.7916
vn -0.5053 -0.1362 0.8521
vn -0.8521 -0.1362 0.5053
vn -0.7916 -0.4293 0.4349
vn 0.7966 0.4153 0.4393
vn 0.8540 0.1258 0.5049
vn 0.4382 0.4155 0.7971
vn 0.5063 0.1339 0.8519
vn 0.1036 0.3415 0.9342
vn 0.1476 0.1109 0.9828
vn 0.4424 0.4018 -0.8018
vn 0.5058 0.1238 -0.8537
vn 0.1331 0.1092 -0.9851
vn 0.0849 0.3341 -0.9387
vn 0.8018 0.4018 -0.4423
vn 0.8537 0.1238 -0.5058
vn 0.9376 0.3373 -0.0847
vn 0.9848 0.1110 -0.1339
vn -0.8018 0.4018 -0.4423
vn -0.8537 0.1238 -0.5058
vn -0.4424 0.4018 -0.8018
vn -0.5058 0.1238 -0.8537
vn -0.0849 0.3341 -0.9387
vn -0.1329 0.1069 -0.9854
vn -0.9839 -0.1156 0.1360
vn -0.9293 -0.3584 0.0897
vn -0.1113 -0.3610 0.9259
vn -0.1529 -0.1208 0.9808
vn -0.9448 -0.3277 -0.0000
vn -0.9951 -0.0990 -0.0000
vn 0.9486 -0.3164 -0.0002
vn 0.9956 -0.0938 -0.0003
vn -0.0196 -0.3318 0.9431
vn -0.0199 -0.1047 0.9943
vn -0.1335 -0.0040 0.9910
vn -0.0219 -0.0083 0.9997
vn 0.9935 0.0014 0.1140
vn 1.0000 0.0078 -0.0000
vn -0.9935 0.0025 -0.1136
vn -1.0000 0.0085 -0.0000
vn -0.4937 0.0010 0.8696
vn -0.9935 0.0016 0.1141
vn -0.8696 0.0010 0.4937
vn -0.4938 0.0020 -0.8696
vn -0.1120 -0.0035 -0.9937
vn -0.8696 0.0020 -0.4938
vn 0.8699 0.0015 -0.4932
vn 0.9936 0.0015 -0.1132
vn 0.4938 0.0020 -0.8696
vn 0.1119 0.0007 -0.9937
vn 0.4938 -0.0000 0.8696
vn 0.1340 -0.0001 0.9910
vn 0.8693 0.0005 0.4943
vn -0.0201 -0.0025 -0.9998
vn -0.0206 -0.1041 -0.9944
vn -0.0232 0.0850 -0.9961
vn -0.0196 -0.3288 -0.9442
vn -0.0261 0.3055 -0.9518
vn -0.0001 0.9996 -0.0296
vn -0.0210 0.9994 -0.0271
vn -0.0230 0.9997 -0.0000
vn 0.0315 0.9991 0.0272
vn 0.0314 0.9995 -0.0000
vn -0.0208 0.9994 0.0271
vn -0.0227 0.9997 -0.0000
vn -0.0212 0.9998 -0.0000
vn -0.0209 0.9994 0.0272
vn -0.0102 0.9999 -0.0000
vn -0.0103 0.9996 0.0273
vn 0.0001 0.9996 0.0273
vn 0.0293 0.3054 -0.9518
vn 0.0236 0.0839 -0.9962
vn -0.0000 0.3080 -0.9514
vn -0.0000 0.0805 -0.9968
vn -0.0229 0.3079 -0.9511
vn -0.0216 0.0847 -0.9962
vn 0.0213 -0.1037 -0.9944
vn 0.0196 -0.3288 -0.9442
vn -0.0000 -0.0998 -0.9950
vn -0.0000 -0.3303 -0.9439
vn -0.0210 -0.1020 -0.9946
vn -0.0196 -0.3303 -0.9437
vn 0.0196 -0.0082 -0.9998
vn -0.0000 -0.0009 -1.0000
vn -0.0203 -0.0099 -0.9997
vn 0.0213 -0.0024 0.9998
vn 0.0206 -0.1051 0.9943
vn 0.0212 -0.0099 0.9997
vn 0.0203 -0.1020 0.9946
vn -0.0000 -0.0008 1.0000
vn -0.0000 -0.0992 0.9951
vn 0.0181 0.0858 0.9961
vn 0.0198 0.0847 0.9962
vn -0.0000 0.0800 0.9968
vn 0.0196 -0.3318 0.9431
vn 0.0196 -0.3303 0.9437
vn -0.0000 -0.3304 0.9439
vn 0.0132 0.3084 0.9512
vn 0.0166 0.3079 0.9513
vn -0.0000 0.3080 0.9514
vn 0.0312 0.9995 -0.0000
vn 0.0313 0.9991 -0.0272
vn 0.0208 0.9994 -0.0271
vn 0.0230 0.9997 -0.0000
vn -0.0001 0.9996 -0.0273
vn -0.0105 0.9999 -0.0000
vn -0.0105 0.9996 -0.0273
vn -0.0207 0.9998 -0.0000
vn -0.0211 0.9994 -0.0272
vn 0.0001 0.9996 0.0295
vn -0.0001 0.9996 -0.0295
vn 0.0315 0.9995 -0.0000
vn 0.0214 0.9998 -0.0000
vn -0.0104 0.9999 -0.0000
vn -0.0211 0.9998 -0.0000
vn -0.0214 0.9998 -0.0000
vn -0.0000 1.0000 0.0001
vn -0.0000 1.0000 -0.0001
vt 0.198722 0.060529
vt 0.198722 0.038544
vt 0.039064 0.038544
vt 0.039064 0.060487
vt 0.965738 0.604928
vt 0.978750 0.604928
vt 0.978750 0.903033
vt 0.965714 0.903033
vt 0.048894 0.920993
vt 0.048894 0.978587
vt 0.032572 0.970841
vt 0.020623 0.949679
vt 0.016250 0.920771
vt 0.401250 0.059957
vt 0.401250 0.038544
vt 0.700000 0.038544
vt 0.700000 0.059957
vt 0.676493 0.925268
vt 0.676493 0.978587
vt 0.832356 0.978587
vt 0.832356 0.920549
vt 0.022500 0.038544
vt 0.022500 0.060487
vt 0.073750 0.059957
vt 0.073750 0.038544
vt 0.103750 0.038544
vt 0.103750 0.059957
vt 0.039063 0.170776
vt 0.039063 0.192719
vt 0.022500 0.192719
vt 0.022500 0.170776
vt 0.760000 0.171306
vt 0.760000 0.192719
vt 0.728750 0.192719
vt 0.728750 0.171306
vt 0.700000 0.192719
vt 0.700000 0.171306
vt 0.900894 0.306823
vt 0.887500 0.306823
vt 0.887500 0.278373
vt 0.900894 0.278373
vt 0.901288 0.278373
vt 0.887500 0.246253
vt 0.901288 0.246253
vt 0.852500 0.170776
vt 0.852500 0.192719
vt 0.835936 0.192719
vt 0.835936 0.170776
vt 0.835937 0.170776
vt 0.835937 0.192719
vt 0.852500 0.170776
vt 0.901288 0.963597
vt 0.887500 0.963597
vt 0.887500 0.933619
vt 0.901288 0.933619
vt 0.900894 0.933619
vt 0.887500 0.903033
vt 0.900894 0.903033
vt 0.848678 0.970841
vt 0.860626 0.949679
vt 0.865000 0.920771
vt 0.043750 0.059957
vt 0.043750 0.038544
vt 0.043750 0.192719
vt 0.043750 0.171306
vt 0.073750 0.171306
vt 0.073750 0.192719
vt 0.978750 0.933619
vt 0.965356 0.933619
vt 0.965356 0.903033
vt 0.978750 0.963597
vt 0.964962 0.963597
vt 0.964962 0.933619
vt 0.835937 0.038544
vt 0.835937 0.060487
vt 0.852500 0.060487
vt 0.852500 0.038544
vt 0.852500 0.060487
vt 0.835936 0.060487
vt 0.835936 0.038544
vt 0.978750 0.278373
vt 0.964962 0.278373
vt 0.964962 0.246253
vt 0.978750 0.246253
vt 0.978750 0.306823
vt 0.965356 0.306823
vt 0.965356 0.278373
vt 0.728750 0.038544
vt 0.728750 0.059957
vt 0.760000 0.038544
vt 0.760000 0.059957
vt 0.039063 0.038544
vt 0.039063 0.060487
vt 0.022500 0.060487
vt 0.022500 0.038544
vt 0.103750 0.171306
vt 0.103750 0.192719
vt 0.039064 0.192719
vt 0.039064 0.170776
vt 0.022500 0.170776
vt 0.022500 0.192719
vt 0.401250 0.192719
vt 0.401250 0.171306
vt 0.887500 0.604928
vt 0.900512 0.604928
vt 0.900536 0.903033
vt 0.198722 0.192719
vt 0.198722 0.170734
vt 0.198722 0.060529
vt 0.039064 0.115632
vt 0.198722 0.115632
vt 0.198722 0.115632
vt 0.198722 0.170734
vt 0.965762 0.903033
vt 0.933125 0.903033
vt 0.933125 0.604928
vt 0.900488 0.903033
vt 0.700000 0.115632
vt 0.401250 0.115632
vt 0.022500 0.115632
vt 0.103750 0.115632
vt 0.073750 0.115632
vt 0.022500 0.115632
vt 0.039063 0.115632
vt 0.728750 0.115632
vt 0.760000 0.115632
vt 0.900050 0.306823
vt 0.900072 0.278373
vt 0.933125 0.278373
vt 0.933125 0.306823
vt 0.966178 0.278373
vt 0.966200 0.306823
vt 0.899641 0.278373
vt 0.899641 0.246253
vt 0.933125 0.246253
vt 0.933125 0.278373
vt 0.966609 0.246253
vt 0.966609 0.278373
vt 0.835936 0.115632
vt 0.852500 0.115632
vt 0.835937 0.115632
vt 0.899641 0.963597
vt 0.899641 0.933619
vt 0.933125 0.933619
vt 0.933125 0.963597
vt 0.966609 0.933619
vt 0.966609 0.963597
vt 0.900072 0.933619
vt 0.900050 0.903033
vt 0.933125 0.933619
vt 0.966200 0.903033
vt 0.966178 0.933619
vt 0.043750 0.115632
vt 0.676278 0.115632
vt 0.676278 0.170734
vt 0.676278 0.060529
vt 0.676278 0.170734
vt 0.676278 0.192719
vt 0.016250 0.920771
vt 0.032572 0.970841
vt 0.048894 0.978587
vt 0.048894 0.920993
vt 0.676278 0.038544
vt 0.676278 0.060529
vt 0.865000 0.284797
vt 0.832356 0.284574
vt 0.832356 0.226981
vt 0.848678 0.234727
vt 0.860626 0.255889
vt 0.204758 0.926881
vt 0.204758 0.978587
vt 0.832356 0.920548
vt 0.832356 0.978587
vt 0.676493 0.924791
vt 0.676493 0.924791
vt 0.676493 0.978587
vt 0.519248 0.978587
vt 0.519248 0.929024
vt 0.362003 0.978587
vt 0.362003 0.934212
vt 0.362003 0.934212
vt 0.362003 0.978587
vt 0.204758 0.978587
vt 0.204758 0.926881
vt 0.198722 0.038544
vt 0.198722 0.060529
vt 0.198722 0.038544
vt 0.357907 0.038544
vt 0.357907 0.060529
vt 0.198722 0.060529
vt 0.517093 0.038544
vt 0.517093 0.060529
vt 0.517093 0.038544
vt 0.676278 0.060529
vt 0.517093 0.060529
vt 0.198722 0.170734
vt 0.198722 0.192719
vt 0.198722 0.170734
vt 0.357907 0.170734
vt 0.357907 0.192719
vt 0.198722 0.192719
vt 0.357907 0.170734
vt 0.517093 0.170734
vt 0.517093 0.192719
vt 0.357907 0.192720
vt 0.517093 0.192719
vt 0.198722 0.060529
vt 0.198722 0.115632
vt 0.357907 0.060529
vt 0.357907 0.115632
vt 0.198722 0.115632
vt 0.517093 0.115632
vt 0.676278 0.060529
vt 0.517093 0.115632
vt 0.198722 0.170734
vt 0.357907 0.170734
vt 0.357907 0.115632
vt 0.517093 0.115632
vt 0.676278 0.115632
vt 0.676278 0.115632
vt 0.676278 0.170734
vt 0.676278 0.115632
vt 0.517093 0.115632
vt 0.517093 0.170734
vt 0.676278 0.170734
vt 0.517093 0.115632
vt 0.357907 0.115632
vt 0.357907 0.170734
vt 0.357907 0.115632
vt 0.198722 0.170734
vt 0.357907 0.170734
vt 0.676278 0.060529
vt 0.676278 0.060529
vt 0.517093 0.060529
vt 0.357907 0.060529
vt 0.517093 0.115632
vt 0.357907 0.060529
vt 0.198722 0.060529
vt 0.198722 0.115632
vt 0.676278 0.192719
vt 0.517093 0.170734
vt 0.517093 0.192720
vt 0.357907 0.192719
vt 0.357907 0.192719
vt 0.357907 0.170734
vt 0.198722 0.192719
vt 0.204758 0.978587
vt 0.204758 0.927837
vt 0.204758 0.927836
vt 0.204758 0.978587
vt 0.362003 0.978587
vt 0.362003 0.934689
vt 0.362003 0.934689
vt 0.362003 0.978587
vt 0.519248 0.978587
vt 0.519248 0.929979
vt 0.519248 0.929979
vt 0.519248 0.978587
vt 0.676493 0.925268
vt 0.676278 0.038544
vt 0.676278 0.060529
vt 0.676278 0.060529
vt 0.517093 0.038544
vt 0.517093 0.060529
vt 0.357907 0.038544
vt 0.357907 0.038544
vt 0.204758 0.226981
vt 0.204758 0.292825
vt 0.048894 0.285019
vt 0.048894 0.226981
vt 0.362003 0.226981
vt 0.362003 0.299196
vt 0.204758 0.226981
vt 0.519248 0.226981
vt 0.519248 0.294967
vt 0.362003 0.226981
vt 0.676493 0.226981
vt 0.676493 0.289776
vt 0.519248 0.294967
vt 0.519248 0.226981
vt 0.676493 0.226981
vt 0.865000 0.920771
vt 0.016250 0.284796
vt 0.020623 0.255889
vt 0.032572 0.234727
vt 0.204758 0.609853
vt 0.048894 0.603006
vt 0.362002 0.616704
vt 0.519248 0.611995
vt 0.676493 0.607283
vt 0.832356 0.602561
vt 0.865000 0.602784
vt 0.016250 0.602784
vt 0.204758 0.609849
vt 0.362003 0.616702
vt 0.519248 0.611992
vt 0.676493 0.607281
vt 0.832356 0.602561
vt 0.865000 0.602784
vt 0.016250 0.602784
vt 0.048894 0.226981
vt 0.048894 0.285019
vt 0.204758 0.291862
vt 0.204758 0.226981
vt 0.204758 0.226981
vt 0.204758 0.291862
vt 0.362003 0.298715
vt 0.362003 0.226981
vt 0.362003 0.226981
vt 0.362003 0.298715
vt 0.519248 0.294005
vt 0.519248 0.226981
vt 0.676493 0.289294
vt 0.832356 0.284574
vt 0.832356 0.226981
vt 0.865000 0.284796
vt 0.848678 0.234727
vt 0.020623 0.255889
vt 0.016250 0.284797
vt 0.032572 0.234727
vt 0.900488 0.306823
vt 0.965762 0.306823
vt 0.900536 0.306823
vt 0.965714 0.306823
s 1
usemtl old_mattress_mp_2
f 96/1/1 88/2/2 6/3/3 68/4/4
f 154/5/5 148/6/6 22/7/7 50/8/8
f 132/9/9 13/10/10 15/11/11 16/12/11 14/13/12
f 152/14/13 147/15/14 14/16/15 62/17/16
f 134/18/17 104/19/17 25/20/17 133/21/17
f 68/4/4 6/3/3 8/22/18 34/23/19
f 78/24/20 7/25/21 5/26/22 37/27/23
f 39/28/24 10/29/25 12/30/26 40/31/27
f 40/32/27 12/33/26 11/34/28 41/35/29
f 41/35/29 11/34/28 9/36/30 42/37/31
f 72/38/32 26/39/33 28/40/34 43/41/35
f 43/42/35 28/40/34 27/43/36 44/44/37
f 44/45/37 27/46/36 25/47/38 45/48/39
f 46/49/40 18/50/41 20/46/42 54/51/43
f 54/52/43 20/53/42 19/54/44 48/55/45
f 48/56/45 19/54/44 17/57/46 49/58/47
f 133/21/17 25/20/17 27/59/17 28/60/17 26/61/17
f 34/62/19 8/63/18 7/25/21 78/24/20
f 3/64/48 35/65/49 36/66/50 4/67/51
f 24/68/52 52/69/53 50/70/8 22/7/7
f 23/71/54 47/72/55 52/73/53 24/68/52
f 21/74/56 70/75/57 47/76/55 23/77/54
f 32/77/58 58/78/59 56/79/60 30/80/61
f 31/81/62 60/82/63 58/83/59 32/84/58
f 29/85/64 73/86/65 60/87/63 31/81/62
f 16/88/66 64/89/67 62/17/16 14/16/15
f 15/90/68 66/91/69 64/89/67 16/88/66
f 13/92/70 75/93/71 66/94/69 15/95/68
f 4/67/51 36/66/50 38/96/72 2/97/73
f 1/98/74 33/99/75 35/100/49 3/101/48
f 145/102/76 149/103/77 42/37/31 9/36/30
f 146/104/78 153/105/79 49/106/47 17/57/46
f 84/107/80 92/108/81 33/99/75 1/98/74
f 96/109/1 68/4/4 69/110/82 97/111/83
f 97/112/83 69/110/82 33/99/75 92/113/81
f 154/5/5 50/114/8 51/115/84 150/116/85
f 150/116/85 51/115/84 49/117/47 153/105/79
f 152/14/13 62/17/16 63/118/86 151/119/87
f 151/119/87 63/118/86 42/37/31 149/103/77
f 68/4/4 34/23/19 80/120/88 69/110/82
f 69/110/82 80/120/88 35/100/49 33/99/75
f 78/24/20 37/27/23 77/121/89 79/122/90
f 79/122/90 77/121/89 38/96/72 36/66/50
f 39/28/24 40/31/27 67/123/91 76/124/92
f 76/124/92 67/123/91 66/94/69 75/93/71
f 40/32/27 41/35/29 65/125/93 67/126/91
f 67/126/91 65/125/93 64/89/67 66/91/69
f 41/35/29 42/37/31 63/118/86 65/125/93
f 65/125/93 63/118/86 62/17/16 64/89/67
f 72/127/32 43/128/35 61/129/94 74/130/95
f 74/130/95 61/129/94 60/131/63 73/132/65
f 43/133/35 44/134/37 59/135/96 61/136/94
f 61/136/94 59/135/96 58/137/59 60/138/63
f 44/45/37 45/48/39 57/139/97 59/140/96
f 59/140/96 57/139/97 56/79/60 58/78/59
f 46/49/40 54/51/43 55/140/98 71/141/99
f 71/141/99 55/140/98 47/76/55 70/75/57
f 54/142/43 48/143/45 53/144/100 55/145/98
f 55/145/98 53/144/100 52/146/53 47/147/55
f 48/148/45 49/149/47 51/115/84 53/150/100
f 53/150/100 51/115/84 50/151/8 52/152/53
f 34/62/19 78/24/20 79/122/90 80/153/88
f 80/153/88 79/122/90 36/66/50 35/65/49
f 117/154/101 57/139/97 45/48/39 112/155/102
f 116/156/103 56/79/60 57/139/97 117/154/101
f 112/157/102 45/48/39 25/47/38 104/158/104
f 9/159/17 11/12/17 12/160/17 10/161/17 138/162/17
f 105/163/105 30/80/61 56/79/60 116/164/103
f 22/165/106 121/166/107 21/167/108 23/168/11 24/169/11
f 131/170/109 108/171/110 13/10/10 132/9/9
f 127/172/111 30/173/112 105/19/113 128/174/114
f 128/175/114 105/176/113 106/177/115 129/178/116
f 129/178/116 106/177/115 107/179/11 130/180/117
f 130/181/117 107/182/11 108/183/110 131/184/109
f 13/92/70 108/185/118 113/186/119 75/93/71
f 108/187/118 107/188/120 114/189/121 113/190/119
f 107/188/120 106/191/122 115/192/123 114/189/121
f 106/193/122 105/163/105 116/194/103 115/195/123
f 39/28/24 109/196/124 101/197/125 10/29/25
f 109/198/124 110/199/126 102/200/127 101/201/125
f 110/202/126 111/203/128 103/204/129 102/205/127
f 111/203/128 112/157/102 104/158/104 103/206/129
f 75/93/71 113/207/119 120/208/130 76/124/92
f 113/190/119 114/209/121 119/210/131 120/211/130
f 114/189/121 115/192/123 118/212/132 119/210/131
f 115/192/123 116/213/103 117/154/101 118/214/132
f 76/124/92 120/208/130 109/215/124 39/28/24
f 120/208/130 119/210/131 110/216/126 109/198/124
f 119/217/131 118/218/132 111/203/128 110/202/126
f 118/214/132 117/219/101 112/157/102 111/203/128
f 71/141/99 100/220/133 89/221/134 46/49/40
f 100/222/133 99/223/135 90/224/136 89/225/134
f 99/226/135 98/227/137 91/228/138 90/224/136
f 98/229/137 97/111/83 92/230/81 91/231/138
f 70/75/57 93/232/139 100/220/133 71/141/99
f 93/233/139 94/234/140 99/223/135 100/220/133
f 94/234/140 95/235/141 98/229/137 99/236/135
f 95/237/141 96/238/1 97/239/83 98/229/137
f 18/50/41 46/49/40 89/225/134 81/240/142
f 81/240/142 89/225/134 90/241/136 82/242/143
f 82/242/143 90/224/136 91/228/138 83/243/144
f 83/244/144 91/245/138 92/230/81 84/246/80
f 138/162/17 10/161/17 101/247/17 137/248/17
f 137/249/17 101/250/17 102/251/17 136/252/17
f 136/253/17 102/254/17 103/255/17 135/256/17
f 135/257/17 103/258/17 104/176/17 134/259/17
f 70/75/57 21/74/56 85/260/145 93/261/139
f 93/262/139 85/260/145 86/263/146 94/264/140
f 94/234/140 86/263/146 87/265/147 95/235/141
f 95/235/141 87/266/147 88/2/2 96/238/1
f 88/267/148 125/268/149 126/269/150 6/270/151
f 87/271/11 124/272/152 125/268/149 88/273/148
f 86/274/153 123/275/154 124/272/152 87/276/11
f 85/277/155 122/278/156 123/279/154 86/280/153
f 21/167/108 121/166/107 122/278/156 85/281/155
f 29/282/157 31/60/11 32/59/11 30/173/112 127/172/111
f 6/270/151 126/269/150 5/283/158 7/284/11 8/285/11
f 159/286/159 131/170/109 132/9/9 160/287/160
f 158/288/11 130/181/117 131/184/109 159/286/159
f 157/289/161 129/178/116 130/180/117 158/288/11
f 156/290/162 128/175/114 129/178/116 157/289/161
f 155/291/163 127/172/111 128/174/114 156/290/162
f 148/292/164 29/282/157 127/172/111 155/291/163
f 160/287/160 132/9/9 14/13/12 147/293/165
f 166/287/17 138/162/17 137/248/17 165/294/17
f 165/294/17 137/249/17 136/252/17 164/295/17
f 164/295/17 136/253/17 135/256/17 163/296/17
f 163/296/17 135/257/17 134/259/17 162/297/17
f 162/297/17 134/18/17 133/21/17 161/298/17
f 161/298/17 133/21/17 26/61/17 146/299/17
f 145/300/17 9/159/17 138/162/17 166/287/17
f 1/301/17 144/302/17 143/303/17 84/304/17
f 84/305/17 143/306/17 142/307/17 83/308/17
f 83/309/17 142/310/17 141/311/17 82/312/17
f 82/312/17 141/311/17 140/313/17 81/277/17
f 81/281/17 140/313/17 139/314/17 18/315/17
f 18/315/17 139/314/17 17/316/17 19/169/17 20/317/17
f 4/318/17 2/319/17 144/302/17 1/301/17 3/320/17
f 2/319/17 145/300/17 166/287/17 144/302/17
f 139/314/17 161/298/17 146/299/17 17/316/17
f 140/313/17 162/297/17 161/298/17 139/314/17
f 141/311/17 163/296/17 162/297/17 140/313/17
f 142/310/17 164/295/17 163/296/17 141/311/17
f 143/306/17 165/294/17 164/295/17 142/307/17
f 144/302/17 166/287/17 165/294/17 143/303/17
f 126/269/150 160/287/160 147/293/165 5/283/158
f 22/165/106 148/292/164 155/291/163 121/166/107
f 121/166/107 155/291/163 156/290/162 122/278/156
f 122/278/156 156/290/162 157/289/161 123/279/154
f 123/275/154 157/289/161 158/288/11 124/272/152
f 124/272/152 158/288/11 159/286/159 125/268/149
f 125/268/149 159/286/159 160/287/160 126/269/150
f 77/121/89 151/119/87 149/103/77 38/96/72
f 37/27/23 152/14/13 151/119/87 77/121/89
f 74/130/95 150/116/85 153/105/79 72/321/32
f 73/322/65 154/5/5 150/116/85 74/130/95
f 26/39/33 72/323/32 153/105/79 146/104/78
f 2/97/73 38/96/72 149/103/77 145/102/76
f 37/27/23 5/26/22 147/15/14 152/14/13
f 73/324/65 29/85/64 148/6/6 154/5/5
