# Blender 5.0.1
# www.blender.org
mtllib shelf_mp_5_4.mtl
o shelf_mp_5_4
v -0.590003 1.670000 -0.140000
v -0.610003 0.000000 0.160000
v -0.590002 0.000000 -0.140000
v 0.609998 0.000000 0.160000
v 0.609999 -0.000000 -0.160000
v -0.610004 -0.000000 -0.160000
v 0.590002 0.000000 0.160000
v 0.589996 0.000000 -0.140000
v -0.590001 0.000000 0.160000
v 0.609998 1.690000 -0.160000
v 0.589996 1.670000 -0.140000
v -0.610004 1.690000 -0.160000
v -0.610003 1.690000 0.160000
v 0.609998 1.690000 0.160000
v 0.589998 1.670000 0.160000
v -0.590004 1.670000 0.160000
v -0.590002 0.070000 0.150000
v -0.590003 0.070000 -0.140000
v -0.590002 0.090000 -0.140000
v 0.589998 0.070000 -0.140000
v 0.589996 0.090000 -0.140000
v 0.590000 0.090000 0.150000
v -0.590002 0.090000 0.150000
v 0.590002 0.070000 0.150000
v 0.590002 1.270000 0.150000
v -0.590002 1.290000 0.150000
v 0.590000 1.290000 0.150000
v 0.589996 1.290000 -0.140000
v 0.589998 1.270000 -0.140000
v -0.590002 1.290000 -0.140000
v -0.590003 1.270000 -0.140000
v -0.590002 1.270000 0.150000
v -0.590002 0.470000 0.150000
v -0.590003 0.470000 -0.140000
v -0.590002 0.490000 -0.140000
v 0.589998 0.470000 -0.140000
v 0.589996 0.490000 -0.140000
v 0.590000 0.490000 0.150000
v -0.590002 0.490000 0.150000
v 0.590002 0.470000 0.150000
v -0.590002 0.870000 0.150000
v -0.590003 0.870000 -0.140000
v -0.590002 0.890000 -0.140000
v 0.589998 0.870000 -0.140000
v 0.589996 0.890000 -0.140000
v 0.590000 0.890000 0.150000
v -0.590002 0.890000 0.150000
v 0.590002 0.870000 0.150000
vn -0.0000 1.0000 -0.0000
vn -0.0000 -0.0000 1.0000
vn -0.0000 -1.0000 -0.0000
vn -1.0000 -0.0000 -0.0000
vn 1.0000 -0.0000 -0.0000
vn -0.0000 -0.0000 -1.0000
vt 0.655486 0.029699
vt 0.655485 -0.181885
vt 1.468819 -0.181886
vt 1.468820 0.029699
vt 1.348090 1.268199
vt 1.361423 1.281526
vt 0.548086 1.281494
vt 0.561419 1.268167
vt 0.535486 0.431338
vt 1.322152 0.431338
vt 1.322153 0.629699
vt 0.535486 0.629699
vt 2.025297 0.735364
vt 0.898629 0.735378
vt 0.898630 0.948708
vt 2.025298 0.948693
vt 2.025295 0.948700
vt 0.898638 0.948699
vt 0.898637 0.735366
vt 2.025294 0.735368
vt 0.616726 0.705843
vt 0.616726 0.905841
vt 2.048156 0.937653
vt 2.048156 0.737653
vt 1.854813 1.061598
vt 0.728174 1.061628
vt 0.741508 1.048291
vt 1.854815 1.048264
vt 2.011963 1.055367
vt 0.898630 1.055366
vt 0.898630 0.268701
vt 2.011963 0.268702
vt 1.854813 0.261551
vt 0.741487 0.261534
vt 0.728155 0.248200
vt 1.854813 0.248215
vt 2.011964 0.255365
vt 0.885292 0.255378
vt 0.885293 1.068709
vt 2.011966 1.068697
vt 2.048154 0.937653
vt 0.616727 0.905843
vt 0.616725 0.705843
vt 2.048153 0.737653
vt 0.168820 0.090531
vt 0.168820 -0.102802
vt 0.955485 -0.102802
vt 0.955486 0.090531
vt 0.035489 0.497198
vt 0.822152 0.497199
vt 0.822151 0.690532
vt 0.035488 0.690531
vt 0.848161 0.134638
vt 0.848160 0.147971
vt 0.061484 0.147967
vt 0.061484 0.134634
vt 0.848179 0.743227
vt 0.848178 0.756559
vt 0.061490 0.756526
vt 0.061489 0.743195
vt 0.035489 0.305792
vt 0.822152 0.305792
vt 0.822151 0.499125
vt 0.035488 0.499125
vt 0.168821 -0.100875
vt 0.168820 -0.294208
vt 0.955485 -0.294208
vt 0.955486 -0.100875
vt 0.614133 -0.280562
vt 0.614132 -0.473896
vt 1.400798 -0.473896
vt 1.400798 -0.280562
vt 0.480801 0.126105
vt 1.267465 0.126105
vt 1.267464 0.319438
vt 0.480800 0.319437
vt 1.293476 0.030211
vt 1.293475 0.043544
vt 0.506795 0.043537
vt 0.506795 0.030204
vt 0.543820 0.149125
vt 0.543820 -0.044208
vt 1.330485 -0.044208
vt 1.330486 0.149125
vt 0.410489 0.555792
vt 1.197152 0.555792
vt 1.197151 0.749125
vt 0.410488 0.749125
vt 1.223165 0.726562
vt 1.223163 0.739894
vt 0.436484 0.739880
vt 0.436484 0.726548
s 1
usemtl wood_6
f 14/1/1 10/2/1 12/3/1 13/4/1
f 15/5/2 14/6/2 13/7/2 16/8/2
f 1/9/3 11/10/3 15/11/3 16/12/3
f 2/13/4 13/14/4 12/15/4 6/16/4
f 5/17/5 10/18/5 14/19/5 4/20/5
f 15/21/4 11/22/4 8/23/4 7/24/4
f 4/25/2 14/26/2 15/27/2 7/28/2
f 8/29/2 11/30/2 1/31/2 3/32/2
f 9/33/2 16/34/2 13/35/2 2/36/2
f 6/37/6 12/38/6 10/39/6 5/40/6
f 3/41/5 1/42/5 16/43/5 9/44/5
f 22/45/1 21/46/1 19/47/1 23/48/1
f 18/49/3 20/50/3 24/51/3 17/52/3
f 24/53/2 22/54/2 23/55/2 17/56/2
f 25/57/2 27/58/2 26/59/2 32/60/2
f 31/61/3 29/62/3 25/63/3 32/64/3
f 27/65/1 28/66/1 30/67/1 26/68/1
f 38/69/1 37/70/1 35/71/1 39/72/1
f 34/73/3 36/74/3 40/75/3 33/76/3
f 40/77/2 38/78/2 39/79/2 33/80/2
f 46/81/1 45/82/1 43/83/1 47/84/1
f 42/85/3 44/86/3 48/87/3 41/88/3
f 48/89/2 46/90/2 47/91/2 41/92/2
