# Blender 5.0.1
# www.blender.org
mtllib shelf_mp_6_2.mtl
o shelf_mp_6_2
v -0.390004 1.270000 -0.089999
v -0.410003 0.000000 0.110001
v -0.390003 0.000000 -0.089999
v 0.409997 0.000000 0.110001
v 0.409998 -0.000000 -0.110000
v -0.410005 -0.000000 -0.110000
v 0.390001 0.000000 0.110001
v 0.389996 0.000000 -0.089999
v -0.390002 0.000000 0.110001
v 0.409998 1.290000 -0.109999
v 0.389996 1.270000 -0.090000
v -0.410005 1.290000 -0.110000
v -0.410003 1.290000 0.110001
v 0.409997 1.290000 0.110001
v 0.389997 1.270000 0.110001
v -0.390005 1.270000 0.110001
v -0.390003 0.070000 0.100000
v -0.390004 0.070000 -0.089999
v -0.390003 0.090000 -0.089999
v 0.389997 0.070000 -0.089999
v 0.389996 0.090000 -0.090000
v 0.389999 0.090000 0.100000
v -0.390003 0.090000 0.100000
v 0.390001 0.070000 0.100000
v 0.390001 0.970000 0.100000
v -0.390003 0.990000 0.100000
v 0.389999 0.990000 0.100000
v 0.389996 0.990000 -0.090000
v 0.389997 0.970000 -0.089999
v -0.390003 0.990000 -0.089999
v -0.390004 0.970000 -0.089999
v -0.390003 0.970000 0.100000
v -0.390003 0.370000 0.100000
v -0.390004 0.370000 -0.089999
v -0.390003 0.390000 -0.089999
v 0.389997 0.370000 -0.089999
v 0.389996 0.390000 -0.090000
v 0.389999 0.390000 0.100000
v -0.390003 0.390000 0.100000
v 0.390001 0.370000 0.100000
v -0.390003 0.670000 0.100000
v -0.390004 0.670000 -0.089999
v -0.390003 0.690000 -0.089999
v 0.389997 0.670000 -0.089999
v 0.389996 0.690000 -0.090000
v 0.389999 0.690000 0.100000
v -0.390003 0.690000 0.100000
v 0.390001 0.670000 0.100000
vn -0.0000 1.0000 -0.0000
vn -0.0000 -0.0000 1.0000
vn -0.0000 -1.0000 -0.0000
vn -1.0000 -0.0000 -0.0000
vn 1.0000 -0.0000 -0.0000
vn -0.0000 -0.0000 -1.0000
vt 0.665251 -0.067671
vt 0.665251 -0.213135
vt 1.211918 -0.213135
vt 1.211918 -0.067671
vt 1.357982 0.970385
vt 1.371312 0.983713
vt 0.824597 0.983579
vt 0.837937 0.970255
vt 0.811918 0.400088
vt 1.331918 0.400088
vt 1.331919 0.532328
vt 0.811918 0.532329
vt 2.035063 0.770779
vt 1.175062 0.770791
vt 1.175063 0.917453
vt 2.035064 0.917443
vt 2.035060 0.917450
vt 1.175068 0.917449
vt 1.175068 0.770783
vt 2.035059 0.770784
vt 0.969349 0.748878
vt 0.969349 0.882210
vt 2.057921 0.906403
vt 2.057921 0.773070
vt 1.864579 1.030348
vt 1.004603 1.030372
vt 1.017937 1.017036
vt 1.864580 1.017014
vt 2.021729 1.024117
vt 1.175062 1.024116
vt 1.175062 0.504118
vt 2.021729 0.504118
vt 1.864570 0.496984
vt 1.017920 0.496992
vt 1.004586 0.483658
vt 1.864572 0.483649
vt 2.021730 0.490781
vt 1.161726 0.490790
vt 1.161727 1.037456
vt 2.021732 1.037447
vt 2.057920 0.906403
vt 0.969350 0.882213
vt 0.969349 0.748879
vt 2.057919 0.773070
vt 0.178585 -0.007385
vt 0.178585 -0.134052
vt 0.698584 -0.134052
vt 0.698585 -0.007385
vt 0.311919 0.465948
vt 0.831918 0.465949
vt 0.831918 0.592615
vt 0.311919 0.592615
vt 0.857926 0.103388
vt 0.857925 0.116721
vt 0.337919 0.116718
vt 0.337919 0.103385
vt 0.857936 0.511981
vt 0.857935 0.525314
vt 0.337923 0.525302
vt 0.337923 0.511970
vt 0.311919 0.274542
vt 0.831918 0.274542
vt 0.831918 0.401208
vt 0.311919 0.401208
vt 0.178585 -0.198792
vt 0.178585 -0.325458
vt 0.698584 -0.325458
vt 0.698585 -0.198792
vt 0.623897 -0.378479
vt 0.623898 -0.505146
vt 1.143897 -0.505146
vt 1.143898 -0.378479
vt 0.757232 0.094855
vt 1.277230 0.094855
vt 1.277230 0.221521
vt 0.757231 0.221521
vt 1.303244 -0.067705
vt 1.303242 -0.054372
vt 0.783231 -0.054376
vt 0.783232 -0.067709
vt 0.553585 0.051208
vt 0.553585 -0.075458
vt 1.073584 -0.075458
vt 1.073585 0.051208
vt 0.686919 0.524542
vt 1.206918 0.524542
vt 1.206918 0.651208
vt 0.686919 0.651208
vt 1.232929 0.561978
vt 1.232928 0.575312
vt 0.712919 0.575307
vt 0.712919 0.561974
s 1
usemtl wood_4
f 14/1/1 10/2/1 12/3/1 13/4/1
f 15/5/2 14/6/2 13/7/2 16/8/2
f 1/9/3 11/10/3 15/11/3 16/12/3
f 2/13/4 13/14/4 12/15/4 6/16/4
f 5/17/5 10/18/5 14/19/5 4/20/5
f 15/21/4 11/22/4 8/23/4 7/24/4
f 4/25/2 14/26/2 15/27/2 7/28/2
f 8/29/2 11/30/2 1/31/2 3/32/2
f 9/33/2 16/34/2 13/35/2 2/36/2
f 6/37/6 12/38/6 10/39/6 5/40/6
f 3/41/5 1/42/5 16/43/5 9/44/5
f 22/45/1 21/46/1 19/47/1 23/48/1
f 18/49/3 20/50/3 24/51/3 17/52/3
f 24/53/2 22/54/2 23/55/2 17/56/2
f 25/57/2 27/58/2 26/59/2 32/60/2
f 31/61/3 29/62/3 25/63/3 32/64/3
f 27/65/1 28/66/1 30/67/1 26/68/1
f 38/69/1 37/70/1 35/71/1 39/72/1
f 34/73/3 36/74/3 40/75/3 33/76/3
f 40/77/2 38/78/2 39/79/2 33/80/2
f 46/81/1 45/82/1 43/83/1 47/84/1
f 42/85/3 44/86/3 48/87/3 41/88/3
f 48/89/2 46/90/2 47/91/2 41/92/2
