# Blender 5.0.1
# www.blender.org
mtllib shelf_mp_2_3.mtl
o shelf_mp_2_3
v -0.290003 1.280000 -0.139999
v -0.310003 0.100000 0.160001
v -0.290002 0.120000 -0.139999
v 0.290002 0.120000 0.160001
v 0.289996 0.120000 -0.139999
v -0.290001 0.120000 0.160001
v 0.289996 1.280000 -0.139999
v -0.310004 1.300000 -0.159999
v -0.310003 1.300000 0.160001
v 0.289998 1.280000 0.160001
v -0.290004 1.280000 0.160001
v -0.290002 0.470000 0.150001
v -0.290003 0.470000 -0.139999
v -0.290002 0.490000 -0.139999
v 0.289998 0.470000 -0.139999
v 0.289996 0.490000 -0.139999
v 0.290000 0.490000 0.150001
v -0.290002 0.490000 0.150001
v 0.290002 0.470000 0.150001
v -0.290002 0.880000 0.150001
v -0.290003 0.880000 -0.139999
v -0.290002 0.900000 -0.139999
v 0.289998 0.880000 -0.139999
v 0.289996 0.900000 -0.139999
v 0.290000 0.900000 0.150001
v -0.290002 0.900000 0.150001
v 0.290002 0.880000 0.150001
v 0.309998 0.100000 -0.160000
v -0.310005 0.100000 -0.160000
v 0.310002 0.100000 0.160000
v 0.345004 0.037500 -0.195000
v 0.345002 0.037500 0.195000
v -0.344998 0.037500 0.195000
v -0.344998 0.037500 -0.195000
v -0.329998 0.055000 -0.180000
v 0.330002 0.055000 0.180000
v -0.329998 0.055000 0.180000
v 0.330004 0.055000 -0.180000
v -0.329998 0.085001 0.180000
v 0.370002 0.020000 0.220000
v 0.370004 0.020000 -0.220000
v -0.369998 0.020000 -0.220000
v -0.369998 0.020000 0.220000
v 0.370004 0.000000 -0.220000
v 0.370002 -0.000000 0.220000
v -0.369998 0.000000 -0.220000
v -0.369998 0.000000 0.220000
v -0.329998 0.085000 -0.180000
v -0.337319 0.064510 -0.187320
v -0.337319 0.075490 -0.187320
v -0.337319 0.075491 0.187321
v -0.337319 0.064510 0.187321
v 0.330002 0.085000 0.180000
v 0.337323 0.064509 0.187321
v 0.337323 0.075490 0.187321
v 0.330004 0.085000 -0.180000
v 0.337324 0.075490 -0.187320
v 0.337324 0.064510 -0.187320
v 0.330002 0.100000 0.180000
v 0.330004 0.100000 -0.180000
v -0.329998 0.100000 -0.180000
v -0.329998 0.100000 0.180000
v 0.309997 1.300000 -0.160000
v 0.309997 1.299999 0.160000
v -0.345005 1.362500 -0.195000
v -0.345004 1.362500 0.195000
v 0.344997 1.362499 0.195000
v 0.344997 1.362500 -0.195000
v 0.329997 1.345000 -0.180000
v -0.330004 1.345001 0.180000
v 0.329997 1.345000 0.180000
v -0.330005 1.345000 -0.180000
v 0.329997 1.314999 0.180000
v -0.370004 1.380000 0.220000
v -0.370005 1.380000 -0.220000
v 0.369997 1.380000 -0.220000
v 0.369997 1.379999 0.220000
v -0.370005 1.400000 -0.220000
v -0.370004 1.400000 0.220000
v 0.369997 1.400000 -0.220000
v 0.369997 1.399999 0.220000
v 0.329997 1.315000 -0.180000
v 0.337317 1.335490 -0.187320
v 0.337317 1.324509 -0.187320
v 0.337317 1.324509 0.187321
v 0.337317 1.335490 0.187321
v -0.330004 1.315000 0.180000
v -0.337324 1.335491 0.187321
v -0.337324 1.324510 0.187321
v -0.330005 1.315000 -0.180000
v -0.337326 1.324510 -0.187320
v -0.337326 1.335490 -0.187320
v -0.330004 1.300000 0.180000
v -0.330005 1.300000 -0.180000
v 0.329997 1.300000 -0.180000
v 0.329997 1.299999 0.180000
vn -0.0000 -0.0000 1.0000
vn -0.0000 -1.0000 -0.0000
vn -1.0000 -0.0000 -0.0000
vn 1.0000 -0.0000 -0.0000
vn 0.0001 -0.0000 1.0000
vn -0.0000 -0.0000 -1.0000
vn -0.0000 1.0000 -0.0000
vn -0.0000 0.7729 0.6345
vn -0.0000 0.8192 0.5735
vn -0.0000 0.6508 -0.7593
vn -0.0000 0.7729 -0.6345
vn -0.0000 0.8192 -0.5735
vn 0.7593 0.6508 -0.0000
vn 0.6345 0.7729 -0.0000
vn -0.6345 0.7729 -0.0000
vn -0.5735 0.8192 -0.0000
vn -0.7593 0.6508 -0.0000
vn -0.0000 0.6508 0.7593
vn -0.0000 -0.6100 -0.7924
vn -0.0000 -0.2535 -0.9673
vn -0.0000 0.2535 -0.9673
vn -0.0000 0.6100 -0.7924
vn -0.0000 -0.6100 0.7924
vn -0.0000 -0.2535 0.9673
vn -0.0000 0.2535 0.9673
vn -0.0000 0.6100 0.7924
vn 0.7924 -0.6100 -0.0000
vn 0.9673 -0.2535 -0.0000
vn 0.9673 0.2535 -0.0000
vn 0.7924 0.6100 -0.0000
vn -0.7924 -0.6100 -0.0000
vn -0.9673 -0.2535 -0.0000
vn -0.9673 0.2535 -0.0000
vn -0.7924 0.6100 -0.0000
vn 0.5735 0.8192 -0.0000
vn -0.0000 -0.7729 0.6345
vn -0.0000 -0.8192 0.5735
vn -0.0000 -0.6508 -0.7593
vn -0.0000 -0.7729 -0.6345
vn -0.0000 -0.8192 -0.5735
vn -0.7593 -0.6508 -0.0000
vn -0.6345 -0.7729 -0.0000
vn 0.6345 -0.7729 -0.0000
vn 0.5735 -0.8192 -0.0000
vn 0.7593 -0.6508 -0.0000
vn -0.0000 -0.6508 0.7593
vn -0.5735 -0.8192 -0.0000
vt 0.626614 1.156731
vt 0.639950 1.170063
vt 0.226613 1.170050
vt 0.239946 1.156723
vt 0.214002 0.579776
vt 0.600668 0.579776
vt 0.600669 0.778137
vt 0.214002 0.778137
vt 1.437146 0.883801
vt 0.637145 0.883812
vt 0.637146 1.097143
vt 1.437147 1.097131
vt 0.240002 0.383333
vt 0.226667 0.370000
vt 0.640000 0.370000
vt 0.626670 0.383333
vt 1.437144 1.097138
vt 0.637151 1.097137
vt 0.637151 0.883804
vt 1.437144 0.883805
vt 0.429528 0.861709
vt 0.429528 1.061709
vt 1.423814 1.083805
vt 1.423814 0.883805
vt 1.266674 1.010006
vt 0.466708 1.010010
vt 0.480042 0.996672
vt 1.253342 0.996674
vt 1.410479 1.003804
vt 0.637145 1.003804
vt 0.637145 0.617139
vt 1.410479 0.617139
vt 1.253321 0.610002
vt 0.479987 0.610000
vt 0.466654 0.596666
vt 1.266655 0.596666
vt 1.423813 0.603803
vt 0.623809 0.603811
vt 0.623810 1.017144
vt 1.423814 1.017136
vt 0.626668 0.506667
vt 0.626665 0.306667
vt 0.240001 0.306667
vt 0.240002 0.506667
vt 1.423813 1.083805
vt 0.429528 1.061710
vt 0.429527 0.861710
vt 1.423812 0.883805
vt 0.347335 0.172563
vt 0.347335 -0.020771
vt 0.734001 -0.020771
vt 0.734002 0.172563
vt 0.214003 0.579229
vt 0.600669 0.579230
vt 0.600669 0.772563
vt 0.214003 0.772563
vt 0.626671 0.483333
vt 0.626669 0.496667
vt 0.239999 0.496666
vt 0.239999 0.483333
vt 0.347335 0.172563
vt 0.347335 -0.020771
vt 0.734001 -0.020771
vt 0.734002 0.172563
vt 0.214003 0.579229
vt 0.600669 0.579230
vt 0.600669 0.772563
vt 0.214003 0.772563
vt 0.626672 0.683329
vt 0.626672 0.696662
vt 0.239996 0.696662
vt 0.239995 0.683329
vt 0.974356 0.429499
vt 0.990613 0.449344
vt 0.509387 0.449344
vt 0.525645 0.429499
vt 0.535398 0.467785
vt 0.525644 0.482774
vt 0.974356 0.482774
vt 0.964601 0.467785
vt 0.509386 0.502619
vt 0.990614 0.502619
vt 0.834540 0.467785
vt 0.844294 0.482774
vt 0.590675 0.482774
vt 0.600430 0.467785
vt 0.655706 0.482774
vt 0.909325 0.482774
vt 0.925582 0.502619
vt 0.639448 0.502619
vt 0.665460 0.435281
vt 0.899570 0.435281
vt 0.899570 0.445036
vt 0.665460 0.445036
vt 0.600430 0.435281
vt 0.834540 0.435281
vt 0.834540 0.445036
vt 0.600430 0.445036
vt 0.535399 0.435281
vt 0.964601 0.435281
vt 0.964601 0.445036
vt 0.535399 0.445036
vt 0.964601 0.435281
vt 0.535399 0.435281
vt 0.535399 0.445036
vt 0.964601 0.445036
vt 0.925582 0.515625
vt 0.639448 0.515625
vt 0.665460 0.467785
vt 0.899570 0.467785
vt 0.964601 0.425464
vt 0.974356 0.440453
vt 0.525644 0.440453
vt 0.535399 0.425464
vt 0.499999 0.618526
vt 0.499999 0.332392
vt 0.981227 0.332392
vt 0.981226 0.618526
vt 0.574418 0.502619
vt 0.860552 0.502619
vt 0.860552 0.515625
vt 0.574418 0.515625
vt 0.509386 0.515625
vt 0.990614 0.515625
vt 0.509387 0.502619
vt 0.990613 0.502619
vt 0.990613 0.515625
vt 0.509387 0.515625
vt 0.969362 0.459981
vt 0.530638 0.459981
vt 0.530638 0.452840
vt 0.969362 0.452840
vt 0.964602 0.507453
vt 0.535399 0.507453
vt 0.530638 0.499649
vt 0.969362 0.499649
vt 0.969362 0.459981
vt 0.530638 0.459981
vt 0.530639 0.452840
vt 0.969362 0.452840
vt 0.969362 0.413172
vt 0.530639 0.413172
vt 0.535399 0.405368
vt 0.964602 0.405368
vt 0.834540 0.467785
vt 0.595669 0.459981
vt 0.839300 0.459981
vt 0.839300 0.459981
vt 0.595669 0.452840
vt 0.839300 0.452840
vt 0.834540 0.445036
vt 0.665460 0.467785
vt 0.660700 0.459981
vt 0.904331 0.459981
vt 0.660700 0.452840
vt 0.904331 0.452840
vt 0.665460 0.445036
vt 0.860552 0.502619
vt 0.083806 -0.005767
vt 0.083803 0.202331
vt 0.070797 0.215337
vt 0.070796 -0.018773
vt 0.486997 -0.005767
vt 0.499999 -0.018773
vt 0.486994 0.202330
vt 0.499999 0.215337
vt 0.083803 0.202331
vt 0.486994 0.202330
vt 0.500000 0.215337
vt 0.070797 0.215337
vt 0.974356 0.429499
vt 0.990613 0.449344
vt 0.509387 0.449344
vt 0.525644 0.429499
vt 0.535399 0.467785
vt 0.525644 0.482774
vt 0.974356 0.482774
vt 0.964602 0.467785
vt 0.509386 0.502619
vt 0.990614 0.502619
vt 0.834540 0.467785
vt 0.600430 0.467785
vt 0.655706 0.482774
vt 0.925582 0.502619
vt 0.639448 0.502619
vt 0.665460 0.435281
vt 0.899570 0.435281
vt 0.899570 0.445036
vt 0.665460 0.445036
vt 0.600430 0.435281
vt 0.834540 0.445036
vt 0.600430 0.445036
vt 0.535399 0.435281
vt 0.964601 0.435281
vt 0.964601 0.445036
vt 0.535399 0.445036
vt 0.964602 0.435281
vt 0.535399 0.435281
vt 0.535399 0.445036
vt 0.964602 0.445036
vt 0.639448 0.515625
vt 0.665460 0.467785
vt 0.899570 0.467785
vt 0.964601 0.425463
vt 0.974356 0.440452
vt 0.525644 0.440452
vt 0.535399 0.425464
vt 0.499999 0.267361
vt 0.499999 -0.018773
vt 0.981227 -0.018773
vt 0.981226 0.267361
vt 0.574418 0.502619
vt 0.860552 0.502619
vt 0.574418 0.515625
vt 0.509386 0.515625
vt 0.509387 0.502619
vt 0.990613 0.502619
vt 0.990613 0.515625
vt 0.509387 0.515625
vt 0.969362 0.459981
vt 0.530638 0.459981
vt 0.530638 0.452840
vt 0.969362 0.452840
vt 0.964601 0.507452
vt 0.535399 0.507453
vt 0.530638 0.499648
vt 0.969361 0.499648
vt 0.969361 0.459981
vt 0.530639 0.459981
vt 0.530639 0.452840
vt 0.969361 0.452840
vt 0.969362 0.413172
vt 0.530639 0.413172
vt 0.535399 0.405368
vt 0.964601 0.405367
vt 0.834540 0.467785
vt 0.595669 0.459981
vt 0.839300 0.459981
vt 0.839300 0.459981
vt 0.595669 0.452840
vt 0.839300 0.452840
vt 0.839300 0.452840
vt 0.834540 0.445036
vt 0.660700 0.459981
vt 0.904331 0.459981
vt 0.660700 0.452840
vt 0.904331 0.452840
vt 0.665460 0.445036
vt 0.860552 0.502619
vt 0.083803 0.293373
vt 0.083804 0.501471
vt 0.070797 0.514477
vt 0.070796 0.280367
vt 0.486993 0.293373
vt 0.499999 0.280367
vt 0.486993 0.501471
vt 0.499999 0.514477
vt 0.083803 0.501472
vt 0.486993 0.501472
vt 0.499999 0.514478
vt 0.070797 0.514478
s 1
usemtl wood_5
f 10/1/1 64/2/1 9/3/1 11/4/1
f 1/5/2 7/6/2 10/7/2 11/8/2
f 2/9/3 9/10/3 8/11/3 29/12/3
f 6/13/1 2/14/1 30/15/1 4/16/1
f 28/17/4 63/18/4 64/19/4 30/20/4
f 10/21/3 7/22/3 5/23/3 4/24/3
f 30/25/5 64/26/5 10/27/5 4/28/5
f 5/29/1 7/30/1 1/31/1 3/32/1
f 6/33/1 11/34/1 9/35/1 2/36/1
f 29/37/6 8/38/6 63/39/6 28/40/6
f 4/41/7 5/42/7 3/43/7 6/44/7
f 3/45/4 1/46/4 11/47/4 6/48/4
f 17/49/7 16/50/7 14/51/7 18/52/7
f 13/53/2 15/54/2 19/55/2 12/56/2
f 19/57/1 17/58/1 18/59/1 12/60/1
f 25/61/7 24/62/7 22/63/7 26/64/7
f 21/65/2 23/66/2 27/67/2 20/68/2
f 27/69/1 25/70/1 26/71/1 20/72/1
f 33/73/8 43/74/9 40/75/9 32/76/8
f 38/77/10 31/78/11 34/79/11 35/80/10
f 31/78/11 41/81/12 42/82/12 34/79/11
f 36/83/13 32/84/14 31/85/14 38/86/13
f 33/87/15 34/88/15 42/89/16 43/90/16
f 62/91/3 61/92/3 48/93/3 39/94/3
f 60/95/4 59/96/4 53/97/4 56/98/4
f 59/99/1 62/100/1 39/101/1 53/102/1
f 61/103/6 60/104/6 56/105/6 48/106/6
f 43/90/3 42/89/3 46/107/3 47/108/3
f 37/109/17 35/110/17 34/88/15 33/87/15
f 37/111/18 33/112/8 32/113/8 36/114/18
f 47/115/2 46/116/2 44/117/2 45/118/2
f 41/119/4 40/120/4 45/121/4 44/122/4
f 42/82/6 41/81/6 44/123/6 46/124/6
f 40/125/1 43/126/1 47/127/1 45/128/1
f 38/77/19 35/80/19 49/129/20 58/130/20
f 57/131/21 50/132/21 48/106/22 56/105/22
f 37/133/23 36/134/23 54/135/24 52/136/24
f 52/137/24 54/138/24 55/139/25 51/140/25
f 51/141/25 55/142/25 53/143/26 39/144/26
f 36/145/27 38/86/27 58/146/28 54/147/28
f 54/148/28 58/146/28 57/149/29 55/150/29
f 55/150/29 57/149/29 56/98/30 53/151/30
f 35/110/31 37/152/31 52/153/32 49/154/32
f 49/154/32 52/153/32 51/155/33 50/156/33
f 50/156/33 51/155/33 39/157/34 48/93/34
f 32/84/14 40/158/35 41/119/35 31/85/14
f 28/159/7 30/160/7 59/161/7 60/162/7
f 29/163/7 28/159/7 60/162/7 61/164/7
f 2/165/7 29/163/7 61/164/7 62/166/7
f 30/167/7 2/168/7 62/169/7 59/170/7
f 58/130/20 49/129/20 50/132/21 57/131/21
f 67/171/36 77/172/37 74/173/37 66/174/36
f 72/175/38 65/176/39 68/177/39 69/178/38
f 65/176/39 75/179/40 76/180/40 68/177/39
f 70/181/41 66/84/42 65/85/42 72/182/41
f 67/183/43 68/88/43 76/184/44 77/185/44
f 96/186/4 95/187/4 82/188/4 73/189/4
f 94/190/3 93/96/3 87/191/3 90/192/3
f 93/193/1 96/194/1 73/195/1 87/196/1
f 95/197/6 94/198/6 90/199/6 82/200/6
f 77/185/4 76/184/4 80/107/4 81/201/4
f 71/202/45 69/203/45 68/88/43 67/87/43
f 71/204/46 67/205/36 66/206/36 70/207/46
f 81/208/7 80/209/7 78/210/7 79/211/7
f 75/212/3 74/213/3 79/121/3 78/214/3
f 76/180/6 75/179/6 78/215/6 80/124/6
f 74/216/1 77/217/1 81/218/1 79/219/1
f 72/175/22 69/178/22 83/220/21 92/221/21
f 91/222/20 84/223/20 82/200/19 90/199/19
f 71/224/26 70/225/26 88/226/25 86/227/25
f 86/228/25 88/229/25 89/230/24 85/231/24
f 85/232/24 89/233/24 87/234/23 73/235/23
f 70/236/34 72/182/34 92/237/33 88/238/33
f 88/239/33 92/237/33 91/240/32 89/241/32
f 89/242/32 91/240/32 90/192/31 87/243/31
f 69/203/30 71/202/30 86/244/29 83/245/29
f 83/245/29 86/244/29 85/246/28 84/247/28
f 84/247/28 85/246/28 73/248/27 82/188/27
f 66/84/42 74/249/47 75/212/47 65/85/42
f 8/250/2 9/251/2 93/252/2 94/253/2
f 63/254/2 8/250/2 94/253/2 95/255/2
f 64/256/2 63/254/2 95/255/2 96/257/2
f 9/258/2 64/259/2 96/260/2 93/261/2
f 92/221/21 83/220/21 84/223/20 91/222/20
