# Blender 5.0.1
# www.blender.org
mtllib sofa_3_3.mtl
o sofa_3_3
v -0.999999 0.450000 0.070001
v 1.000000 0.450000 0.070001
v 1.000000 0.450000 0.091814
v -0.999999 0.450000 0.091814
v -0.999999 0.620000 0.040001
v 1.000000 0.620000 0.040001
v 1.000000 0.620000 0.061814
v -0.999999 0.620000 0.061814
v -1.040001 0.000000 0.930001
v -1.040001 0.640000 0.930001
v -1.040001 -0.000000 0.030001
v -1.040001 0.640000 0.030001
v -1.000002 0.000000 0.930001
v -1.000002 0.640000 0.930001
v -1.000002 -0.000000 0.030001
v -1.000002 0.640000 0.030001
v -1.060001 0.640000 0.940001
v -1.060001 0.660000 0.940001
v -1.060001 0.640000 0.020001
v -1.060001 0.660000 0.020001
v -0.990002 0.640000 0.940001
v -0.990002 0.660000 0.940001
v -0.990002 0.640000 0.020001
v -0.990002 0.660000 0.020001
v 1.000000 0.000000 0.930001
v 1.000000 0.640000 0.930001
v 1.000000 -0.000000 0.030001
v 1.000000 0.640000 0.030001
v 1.039999 0.000000 0.930001
v 1.039999 0.640000 0.930001
v 1.039999 -0.000000 0.030001
v 1.039999 0.640000 0.030001
v 0.989999 0.640000 0.940001
v 0.989999 0.660000 0.940001
v 0.989999 0.640000 0.020001
v 0.989999 0.660000 0.020001
v 1.059997 0.640000 0.940001
v 1.059997 0.660000 0.940001
v 1.059997 0.640000 0.020001
v 1.059997 0.660000 0.020001
v -0.999999 0.000000 0.910001
v -0.999999 0.300000 0.910001
v -0.999999 -0.000000 0.870001
v -0.999999 0.300000 0.870001
v 1.000000 0.000000 0.910001
v 1.000000 0.300000 0.910001
v 1.000000 -0.000000 0.870001
v 1.000000 0.300000 0.870001
v -0.999999 -0.000000 0.090001
v -0.999999 0.350000 0.090001
v -0.999999 0.000000 0.050001
v -0.999999 0.350000 0.050001
v 1.000000 -0.000000 0.090001
v 1.000000 0.350000 0.090001
v 1.000000 0.000000 0.050001
v 1.000000 0.350000 0.050001
v -0.040000 0.270001 0.090002
v -0.039999 0.270001 0.870000
v -0.039999 0.300001 0.870000
v -0.040000 0.300001 0.090002
v 0.040000 0.270001 0.090002
v 0.040001 0.270001 0.870000
v 0.040001 0.300001 0.870000
v 0.040000 0.300001 0.090002
v -0.690000 0.300001 0.090001
v -0.689999 0.300001 0.870000
v -0.689999 0.270001 0.870000
v -0.690000 0.270001 0.090001
v -0.770000 0.300001 0.090001
v -0.769999 0.300001 0.870000
v -0.769999 0.270001 0.870000
v -0.770000 0.270001 0.090001
v 0.440000 0.270001 0.090002
v 0.440001 0.270001 0.870000
v 0.440001 0.300001 0.870000
v 0.440000 0.300001 0.090002
v 0.520000 0.270001 0.090002
v 0.520001 0.270001 0.870000
v 0.520001 0.300001 0.870000
v 0.520000 0.300001 0.090002
v -0.290000 0.270001 0.090002
v -0.289999 0.270001 0.870000
v -0.289999 0.300001 0.870000
v -0.290000 0.300001 0.090002
v -0.210000 0.270001 0.090002
v -0.209999 0.270001 0.870000
v -0.209999 0.300001 0.870000
v -0.210000 0.300001 0.090002
v -0.460000 0.300001 0.090002
v -0.459999 0.300001 0.870000
v -0.459999 0.270001 0.870000
v -0.460000 0.270001 0.090002
v -0.540000 0.300001 0.090002
v -0.539999 0.300001 0.870000
v -0.539999 0.270001 0.870000
v -0.540000 0.270001 0.090002
v -0.920000 0.300001 0.090002
v -0.919999 0.300001 0.870000
v -0.919999 0.270001 0.870000
v -0.920000 0.270001 0.090002
v -1.000000 0.300001 0.090002
v -0.999999 0.300001 0.870000
v -0.999999 0.270001 0.870000
v -1.000000 0.270001 0.090002
v 0.920000 0.270001 0.090002
v 0.920001 0.270001 0.870000
v 0.920001 0.300001 0.870000
v 0.920000 0.300001 0.090002
v 1.000000 0.270001 0.090002
v 1.000001 0.270001 0.870000
v 1.000001 0.300001 0.870000
v 1.000000 0.300001 0.090002
v 0.750000 0.300001 0.090002
v 0.750001 0.300001 0.870000
v 0.750001 0.270001 0.870000
v 0.750000 0.270001 0.090002
v 0.670000 0.300001 0.090002
v 0.670001 0.300001 0.870000
v 0.670001 0.270001 0.870000
v 0.670000 0.270001 0.090002
v 0.290000 0.300001 0.090002
v 0.290001 0.300001 0.870000
v 0.290001 0.270001 0.870000
v 0.290000 0.270001 0.090002
v 0.210000 0.300001 0.090002
v 0.210001 0.300001 0.870000
v 0.210001 0.270001 0.870000
v 0.210000 0.270001 0.090002
v -0.980000 0.300000 0.890002
v -0.980000 0.320000 0.910002
v -1.000000 0.320000 0.890002
v -0.980000 0.420000 0.910002
v -0.980000 0.440000 0.890002
v -1.000000 0.420000 0.890002
v -1.000000 0.320000 0.250002
v -0.980000 0.320000 0.230002
v -1.000000 0.450000 0.250002
v -0.980000 0.470000 0.250002
v -0.980000 0.450000 0.230002
v 0.000000 0.300000 0.890002
v 0.000000 0.470000 0.230002
v 0.000000 0.490000 0.250002
v -0.550000 0.300000 0.250002
v -0.550000 0.320000 0.230002
v -0.550000 0.470000 0.250002
v -0.550000 0.450000 0.230002
v -0.550000 0.320000 0.910002
v -0.550000 0.440000 0.890002
v -0.550000 0.420000 0.910002
v 0.000000 0.320000 0.910002
v 0.000000 0.440000 0.910002
v 0.000000 0.460000 0.890002
v 0.000000 0.320000 0.230002
v 0.980000 0.300000 0.890002
v 1.000000 0.320000 0.890002
v 0.980000 0.320000 0.910002
v 0.980000 0.440000 0.890002
v 0.980000 0.420000 0.910002
v 1.000000 0.420000 0.890002
v 0.980000 0.320000 0.230002
v 1.000000 0.320000 0.250002
v 0.980000 0.300000 0.250002
v 0.980000 0.450000 0.230002
v 0.980000 0.470000 0.250002
v 1.000000 0.450000 0.250002
v 0.550000 0.320000 0.230002
v 0.550000 0.470000 0.250002
v 0.550000 0.450000 0.230002
v 0.550000 0.300000 0.890002
v 0.550000 0.320000 0.910002
v 0.550000 0.440000 0.890002
v 0.550000 0.420000 0.910002
v 1.000000 0.320000 0.680002
v 0.980000 0.470000 0.680002
v 1.000000 0.450000 0.680002
v 0.550000 0.470000 0.680002
v -1.000000 0.320000 0.680002
v -0.980000 0.470000 0.680002
v -1.000000 0.450000 0.680002
v 0.000000 0.490000 0.680002
v -0.550000 0.470000 0.680002
v 0.285000 0.465000 0.230002
v 0.285000 0.320000 0.910002
v 0.285000 0.455000 0.890002
v 0.285000 0.320000 0.230002
v 0.285000 0.485000 0.250002
v 0.285000 0.300000 0.890002
v 0.285000 0.435000 0.910002
v 0.285000 0.485000 0.680002
v -0.285000 0.320000 0.230002
v -0.285000 0.485000 0.250002
v -0.285000 0.300000 0.890002
v -0.285000 0.435000 0.910002
v -0.285000 0.300000 0.250002
v -0.285000 0.465000 0.230002
v -0.285000 0.320000 0.910002
v -0.285000 0.455000 0.890002
v -0.285000 0.485000 0.680002
v 0.815000 0.320000 0.230002
v 0.815000 0.485000 0.250002
v 0.815000 0.300000 0.890002
v 0.815000 0.435000 0.910002
v 0.815000 0.465000 0.230002
v 0.815000 0.320000 0.910002
v 0.815000 0.455000 0.890002
v 0.815000 0.485000 0.680002
v -0.815000 0.300000 0.250002
v -0.815000 0.465000 0.230002
v -0.815000 0.320000 0.910002
v -0.815000 0.455000 0.890002
v -0.815000 0.320000 0.230002
v -0.815000 0.485000 0.250002
v -0.815000 0.300000 0.890002
v -0.815000 0.435000 0.910002
v -0.815000 0.485000 0.680002
v -0.980000 0.300000 0.250002
v -0.550000 0.300000 0.890002
v 0.000000 0.300000 0.250002
v 0.550000 0.300000 0.250002
v 0.980000 0.300000 0.680002
v -0.980000 0.300000 0.680002
v 0.285000 0.300000 0.250002
v 0.815000 0.300000 0.250002
v 0.970000 0.939973 0.005394
v 0.970000 0.963142 0.021617
v 0.990000 0.943446 0.025090
v 0.970000 0.973561 0.080706
v 0.970000 0.957338 0.103875
v 0.990000 0.953865 0.084179
v 0.990000 0.313169 0.136225
v 0.970000 0.293473 0.139698
v 0.970000 0.309696 0.116529
v 0.990000 0.328797 0.224858
v 0.970000 0.332270 0.244554
v 0.970000 0.309101 0.228331
v 0.000000 0.939973 0.005394
v -0.000000 0.312574 0.248027
v -0.000000 0.335743 0.264250
v 0.550000 0.309696 0.116529
v 0.550000 0.293473 0.139698
v 0.550000 0.332270 0.244554
v 0.550000 0.309101 0.228331
v 0.550000 0.939973 0.005394
v 0.550000 0.963142 0.021617
v 0.550000 0.957338 0.103875
v 0.550000 0.973561 0.080706
v -0.000000 0.963142 0.021617
v -0.000000 0.977034 0.100402
v -0.000000 0.960811 0.123571
v -0.000000 0.293473 0.139698
v 0.000000 0.309696 0.116529
v -0.970000 0.939973 0.005394
v -0.990000 0.943446 0.025090
v -0.970000 0.963142 0.021617
v -0.970000 0.957338 0.103875
v -0.970000 0.973561 0.080706
v -0.990000 0.953865 0.084179
v -0.970000 0.293473 0.139698
v -0.990000 0.313169 0.136225
v -0.970000 0.309696 0.116529
v -0.970000 0.309101 0.228331
v -0.970000 0.332270 0.244554
v -0.990000 0.328797 0.224858
v -0.550000 0.309696 0.116529
v -0.550000 0.293473 0.139698
v -0.550000 0.332270 0.244554
v -0.550000 0.309101 0.228331
v -0.550000 0.939973 0.005394
v -0.550000 0.963142 0.021617
v -0.550000 0.957338 0.103875
v -0.550000 0.973561 0.080706
v -0.970000 0.755738 0.169885
v -0.990000 0.752265 0.150189
v -0.550000 0.755738 0.169885
v 0.970000 0.755738 0.169885
v 0.990000 0.752265 0.150189
v -0.000000 0.759211 0.189581
v 0.550000 0.755738 0.169885
v -0.285000 0.309696 0.116529
v -0.285000 0.311706 0.243103
v -0.285000 0.963142 0.021617
v -0.285000 0.959943 0.118647
v -0.285000 0.293473 0.139698
v -0.285000 0.334875 0.259326
v -0.285000 0.939973 0.005394
v -0.285000 0.976166 0.095478
v -0.285000 0.758343 0.184657
v 0.285000 0.293473 0.139698
v 0.285000 0.334875 0.259326
v 0.285000 0.939973 0.005394
v 0.285000 0.976166 0.095478
v 0.285000 0.309696 0.116529
v 0.285000 0.311706 0.243103
v 0.285000 0.963142 0.021617
v 0.285000 0.959943 0.118647
v 0.285000 0.758343 0.184657
v -0.815000 0.293473 0.139698
v -0.815000 0.334875 0.259326
v -0.815000 0.939973 0.005394
v -0.815000 0.976166 0.095478
v -0.815000 0.309696 0.116529
v -0.815000 0.311706 0.243103
v -0.815000 0.963142 0.021617
v -0.815000 0.959943 0.118647
v -0.815000 0.758343 0.184657
v 0.815000 0.309696 0.116529
v 0.815000 0.311706 0.243103
v 0.815000 0.963142 0.021617
v 0.815000 0.959943 0.118647
v 0.815000 0.293473 0.139698
v 0.815000 0.334875 0.259326
v 0.815000 0.939973 0.005394
v 0.815000 0.976166 0.095478
v 0.815000 0.758343 0.184657
vn -0.0000 -0.1738 -0.9848
vn -0.0000 1.0000 -0.0000
vn -0.0000 0.1738 0.9848
vn -0.0000 -1.0000 -0.0000
vn -0.0000 -0.0000 1.0000
vn 1.0000 -0.0000 -0.0000
vn -1.0000 -0.0000 -0.0000
vn -0.0000 -0.0000 -1.0000
vn -0.0170 0.9974 0.0706
vn -0.0903 0.9934 0.0709
vn -0.0807 0.8878 0.4532
vn -0.0152 0.8972 0.4414
vn -0.0000 -0.3827 -0.9239
vn -0.0330 0.3633 -0.9311
vn -0.0070 0.3977 -0.9175
vn -0.0000 -0.3827 0.9239
vn -0.0070 0.3977 0.9175
vn -0.0330 0.3633 0.9311
vn -0.6861 -0.6861 0.2418
vn -0.6861 -0.2418 0.6861
vn -0.8756 -0.3416 0.3416
vn -0.6861 0.2418 0.6861
vn -0.6760 0.6760 0.2934
vn -0.8740 0.3210 0.3649
vn -0.8756 -0.3416 -0.3416
vn -0.6861 -0.2418 -0.6861
vn -0.6861 -0.6861 -0.2418
vn -0.8756 0.3416 -0.3416
vn -0.6861 0.6861 -0.2418
vn -0.6861 0.2418 -0.6861
vn -0.7071 -0.7071 -0.0000
vn -0.9239 -0.3827 -0.0000
vn -0.7063 0.7063 0.0487
vn -0.9174 0.3968 0.0291
vn -0.0000 -0.7071 -0.7071
vn -0.0341 0.9240 -0.3809
vn -0.0000 0.9245 -0.3812
vn -0.0000 0.3863 -0.9224
vn -0.0145 0.3866 -0.9221
vn -0.0000 -0.7071 0.7071
vn -0.0331 0.8947 0.4455
vn -0.0000 0.8921 0.4518
vn -0.0000 0.3708 0.9287
vn -0.0145 0.3866 0.9221
vn -0.0156 0.9263 -0.3765
vn -0.0000 0.9218 -0.3876
vn -0.0000 0.3708 -0.9287
vn -0.0369 0.9968 0.0708
vn -0.0000 0.9975 0.0711
vn 0.0369 0.9968 0.0708
vn -0.0000 0.9975 0.0708
vn -0.0000 0.8951 0.4458
vn 0.0331 0.8947 0.4455
vn 0.0145 0.3866 -0.9221
vn 0.0145 0.3866 0.9221
vn -0.0000 0.3863 0.9224
vn 0.9239 -0.3827 -0.0000
vn 0.8756 -0.3416 -0.3416
vn 0.8756 0.3416 -0.3416
vn 0.9174 0.3968 0.0291
vn 0.6861 -0.6861 0.2418
vn 0.8756 -0.3416 0.3416
vn 0.6861 -0.2418 0.6861
vn 0.6760 0.6760 0.2934
vn 0.6861 0.2418 0.6861
vn 0.8740 0.3210 0.3649
vn 0.6861 -0.2418 -0.6861
vn 0.6861 -0.6861 -0.2418
vn 0.6861 0.2418 -0.6861
vn 0.6861 0.6861 -0.2418
vn 0.0156 0.9263 -0.3765
vn 0.0834 0.9173 -0.3893
vn 0.0330 0.3633 -0.9311
vn 0.0070 0.3977 -0.9175
vn 0.7071 -0.7071 -0.0000
vn 0.7063 0.7063 0.0487
vn 0.0152 0.8972 0.4414
vn 0.0070 0.3977 0.9175
vn 0.0341 0.9240 -0.3809
vn 0.0170 0.9974 0.0706
vn -0.0834 0.9173 -0.3893
vn 0.0903 0.9934 0.0709
vn 0.0807 0.8878 0.4532
vn 0.0330 0.3633 0.9311
vn 0.0198 0.2427 0.9699
vn 0.0961 0.2422 0.9655
vn 0.0859 0.6006 0.7949
vn 0.0178 0.5902 0.8070
vn -0.0000 -0.9848 0.1736
vn 0.0350 -0.8545 0.5183
vn 0.0082 -0.8341 0.5515
vn -0.0000 0.8434 -0.5373
vn 0.0082 0.9724 0.2330
vn 0.0350 0.9802 0.1948
vn 0.6861 0.1190 -0.7177
vn 0.6861 0.6337 -0.3573
vn 0.8756 0.2771 -0.3957
vn 0.6861 0.7177 0.1190
vn 0.6760 0.4063 0.6148
vn 0.8740 0.4151 0.2528
vn 0.8756 -0.3957 -0.2771
vn 0.6861 -0.7177 -0.1190
vn 0.6861 -0.3573 -0.6337
vn 0.8756 -0.2771 0.3957
vn 0.6861 -0.1190 0.7177
vn 0.6861 -0.6337 0.3573
vn -0.0000 0.2164 -0.9763
vn -0.0000 -0.5373 -0.8434
vn 0.7063 0.1706 0.6871
vn 0.9174 0.0976 0.3857
vn -0.0000 -0.8192 -0.5736
vn 0.0341 -0.2146 0.9761
vn -0.0000 -0.2149 0.9766
vn -0.0000 -0.8413 0.5406
vn 0.0145 -0.8410 0.5409
vn 0.0331 0.5941 0.8037
vn -0.0000 0.5999 0.8001
vn -0.0000 0.9790 0.2039
vn 0.0145 0.9753 0.2206
vn 0.0183 -0.2096 0.9776
vn -0.0000 -0.2217 0.9751
vn -0.0000 -0.8502 0.5264
vn 0.0369 0.2428 0.9694
vn -0.0000 0.2432 0.9700
vn -0.0369 0.2428 0.9694
vn -0.0000 0.2430 0.9700
vn -0.0000 0.5945 0.8041
vn -0.0331 0.5941 0.8037
vn -0.0145 -0.8410 0.5409
vn -0.0145 0.9753 0.2206
vn -0.0000 0.9754 0.2203
vn -0.8756 -0.3957 -0.2771
vn -0.8756 -0.2771 0.3957
vn -0.9174 0.0976 0.3857
vn -0.6861 0.1190 -0.7177
vn -0.8756 0.2771 -0.3957
vn -0.6861 0.6337 -0.3573
vn -0.6760 0.4063 0.6148
vn -0.6861 0.7177 0.1190
vn -0.8740 0.4151 0.2528
vn -0.6861 -0.7177 -0.1190
vn -0.6861 -0.3573 -0.6337
vn -0.6861 -0.6337 0.3573
vn -0.6861 -0.1190 0.7177
vn -0.0183 -0.2096 0.9776
vn -0.0887 -0.2246 0.9704
vn -0.0350 -0.8545 0.5183
vn -0.0082 -0.8341 0.5515
vn -0.7063 0.1706 0.6871
vn -0.0178 0.5902 0.8070
vn -0.0082 0.9724 0.2330
vn -0.0341 -0.2146 0.9761
vn -0.0198 0.2427 0.9699
vn 0.0887 -0.2246 0.9704
vn -0.0961 0.2422 0.9655
vn -0.0859 0.6006 0.7949
vn -0.0350 0.9802 0.1948
vt 1.300001 0.576000
vt -0.299998 0.576000
vt -0.299998 0.712000
vt 1.300001 0.712000
vt 1.300001 0.165450
vt 1.300001 0.148000
vt -0.299998 0.148000
vt -0.299998 0.165450
vt -0.299998 0.576205
vt 1.300001 0.576205
vt 1.300001 0.712205
vt -0.299998 0.712205
vt -0.299998 0.172000
vt 1.300001 0.172000
vt 1.300001 0.189450
vt -0.299998 0.189450
vt 0.860001 1.300001
vt 0.140001 1.300003
vt 0.140001 1.332001
vt 0.860001 1.332000
vt 0.216001 1.300001
vt 0.728001 1.300001
vt 0.728001 1.332000
vt 0.216001 1.332000
vt 0.216000 0.140000
vt 0.728000 0.140000
vt 0.728000 0.860000
vt 0.216000 0.860000
vt 0.216000 0.140000
vt 0.140001 1.331999
vt 0.140001 1.300000
vt 0.216001 1.300001
vt 0.216001 1.332000
vt 0.728001 1.332000
vt 0.728001 1.300001
vt 0.868000 -0.347999
vt 0.132000 -0.347999
vt 0.132000 -0.292000
vt 0.868000 -0.292000
vt 0.727999 1.292000
vt 0.744000 1.291999
vt 0.744000 1.347999
vt 0.728000 1.347999
vt 0.132000 0.256000
vt 0.868000 0.256000
vt 0.868000 0.272000
vt 0.132000 0.272000
vt 0.728000 1.292000
vt 0.728000 1.347999
vt 0.744000 1.347999
vt 0.744000 1.292000
vt 0.860001 -0.332000
vt 0.140001 -0.332000
vt 0.140001 -0.300001
vt 0.860001 -0.300001
vt 0.216001 -0.332000
vt 0.728001 -0.332000
vt 0.728001 -0.300001
vt 0.216001 -0.300001
vt 0.140001 -0.300001
vt 0.140001 -0.332000
vt 0.860001 -0.332000
vt 0.860001 -0.300001
vt 0.216001 -0.332000
vt 0.216001 -0.300001
vt 0.728001 -0.300001
vt 0.728001 -0.332000
vt 0.728000 -0.347999
vt 0.744000 -0.347999
vt 0.744000 -0.292000
vt 0.728000 -0.292000
vt 0.868000 1.292000
vt 0.132000 1.292000
vt 0.132000 1.347999
vt 0.868000 1.347999
vt 0.728000 -0.347999
vt 0.728000 -0.292000
vt 0.744000 -0.292000
vt 0.744000 -0.347999
vt 0.132000 -0.347999
vt 0.868000 -0.347999
vt 0.868000 -0.292000
vt 0.132000 -0.292000
vt 0.132000 1.292000
vt 0.868000 1.292000
vt 0.868000 1.347999
vt 0.132000 1.347999
vt 1.300001 0.216000
vt 1.300001 0.456000
vt -0.299998 0.456000
vt -0.299998 0.216000
vt 1.300001 0.216000
vt -0.299998 0.216000
vt -0.299998 0.456000
vt 1.300001 0.456000
vt 1.300001 0.844000
vt 1.300001 0.812000
vt -0.299998 0.812000
vt -0.299998 0.844000
vt -0.299998 0.812000
vt 1.300001 0.812000
vt 1.300001 0.844000
vt -0.299998 0.844000
vt 1.300001 0.216000
vt 1.300001 0.496000
vt -0.299998 0.496000
vt -0.299998 0.216000
vt 1.300001 0.216000
vt -0.299998 0.216000
vt -0.299998 0.496000
vt 1.300001 0.496000
vt 1.300001 0.188000
vt 1.300001 0.156000
vt -0.299998 0.156000
vt -0.299998 0.188000
vt -0.299998 0.156000
vt 1.300001 0.156000
vt 1.300001 0.188000
vt -0.299998 0.188000
vt 0.812001 0.532000
vt 0.188002 0.532000
vt 0.188002 0.468000
vt 0.812001 0.468000
vt 0.812001 0.544001
vt 0.812001 0.568001
vt 0.188002 0.568001
vt 0.188002 0.544001
vt 0.188002 0.468000
vt 0.188002 1.116000
vt 0.812001 1.116000
vt 0.812001 1.052000
vt 0.188002 1.052000
vt 0.188002 0.568001
vt 0.188002 0.544001
vt 0.188002 1.116000
vt 0.812001 1.052000
vt 0.812002 0.148000
vt 0.188002 0.148000
vt 0.188002 0.084000
vt 0.812001 0.084000
vt 0.812002 0.148000
vt 0.812001 0.084000
vt 0.188002 0.732000
vt 0.812001 0.732000
vt 0.812001 0.668000
vt 0.188002 0.668000
vt 0.812001 0.568001
vt 0.812001 0.732000
vt 0.188002 0.732000
vt 0.188002 0.668000
vt 0.812001 0.668000
vt 0.188002 0.932000
vt 0.812001 0.932000
vt 0.812001 0.868000
vt 0.188002 0.868000
vt 0.812001 0.932000
vt 0.188002 0.932000
vt 0.188002 0.868000
vt 0.812001 0.868000
vt 0.812001 1.299999
vt 0.188002 1.300000
vt 0.188002 1.236000
vt 0.812001 1.235999
vt 0.188002 0.568001
vt 0.188002 0.544001
vt 0.188002 1.300000
vt 0.812001 1.235999
vt 0.188002 1.236000
vt 0.188002 0.568001
vt 0.188002 0.544001
vt 0.188002 -0.236000
vt 0.812002 -0.236000
vt 0.812001 -0.300000
vt 0.188002 -0.300000
vt 0.812002 -0.236000
vt 0.188002 -0.236000
vt 0.188002 -0.300000
vt 0.812001 -0.300000
vt 0.188002 -0.036000
vt 0.812001 -0.036000
vt 0.812001 -0.100000
vt 0.188002 -0.100000
vt 0.812001 -0.036000
vt 0.188002 -0.036000
vt 0.188002 -0.100000
vt 0.812001 -0.100000
vt 0.812001 0.332000
vt 0.188002 0.332000
vt 0.188002 0.268000
vt 0.812001 0.268000
vt 0.188002 0.332000
vt 0.812001 0.332000
vt 0.188002 0.268000
vt 0.265169 0.607014
vt 0.217649 0.607014
vt 0.217649 0.667494
vt 0.265169 0.667494
vt 0.265169 0.553734
vt 0.217649 0.553734
vt 0.217649 0.591174
vt 0.265169 0.595494
vt 0.265169 0.541204
vt 0.265169 0.570004
vt 0.217649 0.570004
vt 0.217649 0.541204
vt 0.217649 0.535444
vt 0.211889 0.541204
vt 0.217649 0.575764
vt 0.211889 0.570004
vt 0.211889 0.553734
vt 0.217649 0.547974
vt 0.211889 0.483174
vt 0.217649 0.483174
vt 0.217649 0.477414
vt 0.472529 0.607014
vt 0.472529 0.667494
vt 0.478289 0.667494
vt 0.478289 0.607014
vt 0.217649 0.483174
vt 0.211889 0.483174
vt 0.211889 0.607014
vt 0.265169 0.547974
vt 0.417809 0.483174
vt 0.499889 0.483174
vt 0.499889 0.477414
vt 0.417809 0.477414
vt 0.417809 0.535444
vt 0.499889 0.535444
vt 0.499889 0.541204
vt 0.417809 0.541204
vt 0.265169 0.575764
vt 0.211889 0.553734
vt 0.211889 0.591174
vt 0.507089 0.667494
vt 0.515729 0.607014
vt 0.417809 0.575764
vt 0.341489 0.575764
vt 0.341489 0.570004
vt 0.417809 0.570004
vt 0.265169 0.535444
vt 0.341489 0.535444
vt 0.341489 0.541204
vt 0.265169 0.483174
vt 0.341488 0.483174
vt 0.341489 0.477414
vt 0.265169 0.477414
vt 0.417809 0.547974
vt 0.341489 0.547974
vt 0.341489 0.553734
vt 0.417809 0.553734
vt 0.341489 0.591174
vt 0.417809 0.595494
vt 0.417809 0.607014
vt 0.341489 0.607014
vt 0.341489 0.667494
vt 0.417809 0.667494
vt 0.581969 0.607014
vt 0.499889 0.607014
vt 0.499889 0.667494
vt 0.581969 0.667494
vt 0.581969 0.553734
vt 0.499889 0.553734
vt 0.499889 0.596934
vt 0.581969 0.595494
vt 0.581969 0.541204
vt 0.581969 0.570004
vt 0.499889 0.570004
vt 0.478289 0.483174
vt 0.515729 0.483174
vt 0.782129 0.535444
vt 0.787889 0.541204
vt 0.782129 0.541204
vt 0.782129 0.575764
vt 0.782129 0.570004
vt 0.787889 0.570004
vt 0.782129 0.553734
vt 0.787889 0.553734
vt 0.782129 0.547974
vt 0.782129 0.477414
vt 0.782129 0.483174
vt 0.787889 0.483174
vt 0.581969 0.547974
vt 0.499888 0.547974
vt 0.734609 0.483174
vt 0.782129 0.477414
vt 0.734609 0.477414
vt 0.472529 0.483174
vt 0.478289 0.483174
vt 0.782129 0.607014
vt 0.782129 0.667494
vt 0.787889 0.667494
vt 0.787889 0.607014
vt 0.734609 0.535444
vt 0.734609 0.541204
vt 0.581969 0.575764
vt 0.499889 0.575764
vt 0.782129 0.553734
vt 0.782129 0.591174
vt 0.787889 0.591174
vt 0.734609 0.575764
vt 0.658289 0.575764
vt 0.658289 0.570004
vt 0.734609 0.570004
vt 0.581969 0.535444
vt 0.658289 0.535444
vt 0.658289 0.541204
vt 0.581969 0.483174
vt 0.658289 0.483174
vt 0.658289 0.477414
vt 0.581969 0.477414
vt 0.734609 0.547974
vt 0.658289 0.547974
vt 0.658289 0.553734
vt 0.734609 0.553734
vt 0.658289 0.591174
vt 0.734609 0.595494
vt 0.734609 0.607014
vt 0.658289 0.607014
vt 0.658289 0.667494
vt 0.734609 0.667494
vt 0.734609 0.483174
vt 0.658289 0.483174
vt 0.782129 0.483174
vt 0.787889 0.483174
vt 0.581969 0.483174
vt 0.499888 0.483174
vt 0.417809 0.483174
vt 0.341489 0.483174
vt 0.211889 0.667494
vt 0.265169 0.483174
vt 0.658289 0.483174
vt 0.499889 0.477414
vt 0.581969 0.547974
vt 0.417809 0.483174
vt 0.499889 0.547974
vt 0.499889 0.553734
vt 0.341489 0.483174
vt 0.782129 0.591174
vt 0.658289 0.483174
vt 0.734609 0.483174
vt 0.734609 0.477414
vt 0.147089 0.614934
vt 0.147089 0.460134
vt 0.206489 0.460134
vt 0.301888 0.460134
vt 0.397289 0.460134
vt 0.499889 0.460134
vt 0.602489 0.460134
vt 0.697889 0.460134
vt 0.793289 0.460134
vt 0.852689 0.460134
vt 0.852689 0.614934
vt 0.852689 0.690534
vt 0.793289 0.690534
vt 0.697889 0.690534
vt 0.602489 0.690534
vt 0.499889 0.690534
vt 0.397289 0.690534
vt 0.301889 0.690534
vt 0.206489 0.690534
vt 0.147089 0.690534
vt 0.202832 0.558048
vt 0.148360 0.558048
vt 0.148125 0.635343
vt 0.202702 0.635343
vt 0.265169 0.519984
vt 0.220529 0.519984
vt 0.220529 0.545904
vt 0.265169 0.550224
vt 0.201662 0.664284
vt 0.201831 0.644984
vt 0.150273 0.645468
vt 0.149899 0.664262
vt 0.908156 0.635056
vt 0.899524 0.643736
vt 0.897193 0.633105
vt 0.875065 0.645405
vt 0.865429 0.637250
vt 0.875986 0.634052
vt 0.897644 0.403314
vt 0.899571 0.392408
vt 0.908156 0.401109
vt 0.866464 0.402119
vt 0.856233 0.399778
vt 0.864838 0.391858
vt 0.603117 0.674263
vt 0.603117 0.905171
vt 0.699996 0.905171
vt 0.699996 0.674263
vt 0.850886 0.557841
vt 0.861419 0.557546
vt 0.265169 0.514224
vt 0.220529 0.514224
vt 0.417708 0.443665
vt 0.499787 0.443665
vt 0.499787 0.437905
vt 0.417707 0.437905
vt 0.395072 0.674433
vt 0.499091 0.674542
vt 0.499083 0.664409
vt 0.395096 0.664291
vt 0.201619 0.635343
vt 0.148221 0.636069
vt 0.395095 0.635343
vt 0.298130 0.635343
vt 0.298145 0.644984
vt 0.395176 0.644984
vt 0.201387 0.674542
vt 0.298192 0.674098
vt 0.298186 0.663946
vt 0.265494 0.443673
vt 0.341814 0.443673
vt 0.341814 0.437913
vt 0.265494 0.437913
vt 0.417809 0.514224
vt 0.341489 0.514224
vt 0.341489 0.519984
vt 0.417809 0.519984
vt 0.341489 0.545904
vt 0.417809 0.550224
vt 0.396502 0.558048
vt 0.299435 0.558048
vt 0.299346 0.635343
vt 0.396327 0.635343
vt 0.604074 0.558048
vt 0.499465 0.558048
vt 0.499467 0.635343
vt 0.604244 0.635343
vt 0.581969 0.519984
vt 0.499889 0.519984
vt 0.499889 0.551664
vt 0.581969 0.550224
vt 0.603075 0.664120
vt 0.602949 0.644984
vt 0.499059 0.644984
vt 0.101922 0.403524
vt 0.133475 0.402940
vt 0.137360 0.557502
vt 0.091049 0.634751
vt 0.101274 0.632934
vt 0.098990 0.643096
vt 0.132557 0.637360
vt 0.122856 0.645213
vt 0.122106 0.634037
vt 0.099732 0.393010
vt 0.091049 0.401528
vt 0.134929 0.391858
vt 0.143924 0.400329
vt 0.581969 0.514224
vt 0.499889 0.514224
vt 0.735164 0.443689
vt 0.779816 0.443559
vt 0.779816 0.437799
vt 0.735164 0.437929
vt 0.148360 0.557861
vt 0.796714 0.674241
vt 0.852067 0.674241
vt 0.849494 0.664265
vt 0.796511 0.664265
vt 0.603012 0.635343
vt 0.499050 0.635343
vt 0.796637 0.635343
vt 0.699993 0.635343
vt 0.699997 0.644984
vt 0.796446 0.644984
vt 0.603117 0.674263
vt 0.699996 0.673783
vt 0.699996 0.663636
vt 0.582294 0.443673
vt 0.658614 0.443673
vt 0.658614 0.437913
vt 0.582294 0.437913
vt 0.734609 0.514224
vt 0.658289 0.514224
vt 0.658289 0.519984
vt 0.734609 0.519984
vt 0.658289 0.545904
vt 0.734609 0.550224
vt 0.797574 0.558048
vt 0.701143 0.558048
vt 0.701209 0.635343
vt 0.797721 0.635343
vt 0.798032 0.401512
vt 0.701225 0.401385
vt 0.796714 0.905171
vt 0.796714 0.674263
vt 0.298192 0.674263
vt 0.201387 0.674263
vt 0.201387 0.905171
vt 0.298192 0.905171
vt 0.604334 0.401270
vt 0.499531 0.401155
vt 0.396336 0.401180
vt 0.299216 0.401319
vt 0.202659 0.401379
vt 0.147922 0.401492
vt 0.499990 0.443665
vt 0.582070 0.443665
vt 0.582070 0.437905
vt 0.499990 0.437905
vt 0.658289 0.545904
vt 0.341163 0.443673
vt 0.417483 0.443673
vt 0.417483 0.437913
vt 0.341163 0.437913
vt 0.851417 0.401704
vt 0.850886 0.558048
vt 0.851119 0.635343
vt 0.779249 0.519984
vt 0.779249 0.545904
vt 0.849145 0.644984
vt 0.779249 0.514224
vt 0.851215 0.635343
vt 0.657963 0.443673
vt 0.734283 0.443673
vt 0.734283 0.437913
vt 0.657963 0.437913
vt 0.219962 0.443559
vt 0.264614 0.443689
vt 0.264614 0.437929
vt 0.219962 0.437799
vt 0.147305 0.673734
vt 0.341489 0.545904
vt 0.499091 0.905171
vt 0.499091 0.674263
vt 0.395072 0.674263
vt 0.395072 0.905171
vt 0.147305 0.905171
vt 0.147305 0.674263
vt 0.852067 0.905171
vt 0.852067 0.674263
s 1
usemtl wood_6
f 2/1/1 1/2/1 5/3/1 6/4/1
f 7/5/2 6/6/2 5/7/2 8/8/2
f 4/9/3 3/10/3 7/11/3 8/12/3
f 1/13/4 2/14/4 3/15/4 4/16/4
f 14/17/2 16/18/2 12/19/2 10/20/2
f 13/21/5 14/22/5 10/23/5 9/24/5
f 15/25/6 16/26/6 14/27/6 13/28/6
f 9/28/7 10/27/7 12/26/7 11/29/7
f 11/30/4 15/31/4 13/17/4 9/20/4
f 15/32/8 11/33/8 12/34/8 16/35/8
f 38/36/2 40/37/2 36/38/2 34/39/2
f 21/40/5 22/41/5 18/42/5 17/43/5
f 24/44/6 22/45/6 21/46/6 23/47/6
f 23/48/8 19/49/8 20/50/8 24/51/8
f 30/52/2 32/53/2 28/54/2 26/55/2
f 29/56/5 30/57/5 26/58/5 25/59/5
f 31/25/6 32/26/6 30/27/6 29/28/6
f 25/28/7 26/27/7 28/26/7 27/29/7
f 27/60/4 31/61/4 29/62/4 25/63/4
f 31/64/8 27/65/8 28/66/8 32/67/8
f 37/68/5 38/69/5 34/70/5 33/71/5
f 22/72/2 24/73/2 20/74/2 18/75/2
f 40/44/6 38/45/6 37/46/6 39/47/6
f 39/76/8 35/77/8 36/78/8 40/79/8
f 36/44/7 35/47/7 33/46/7 34/45/7
f 39/80/4 37/81/4 33/82/4 35/83/4
f 20/44/7 19/47/7 17/46/7 18/45/7
f 23/84/4 21/85/4 17/86/4 19/87/4
f 45/88/5 46/89/5 42/90/5 41/91/5
f 47/92/8 43/93/8 44/94/8 48/95/8
f 46/96/2 48/97/2 44/98/2 42/99/2
f 43/100/4 47/101/4 45/102/4 41/103/4
f 53/104/5 54/105/5 50/106/5 49/107/5
f 55/108/8 51/109/8 52/110/8 56/111/8
f 54/112/2 56/113/2 52/114/2 50/115/2
f 51/116/4 55/117/4 53/118/4 49/119/4
f 58/120/4 57/121/4 61/122/4 62/123/4
f 63/124/6 62/125/6 61/126/6 64/127/6
f 60/121/2 59/120/2 63/123/2 64/128/2
f 57/126/7 58/125/7 59/124/7 60/127/7
f 69/129/2 70/130/2 66/131/2 65/132/2
f 72/133/7 71/125/7 70/124/7 69/134/7
f 71/130/4 72/135/4 68/132/4 67/136/4
f 66/124/6 67/125/6 68/133/6 65/134/6
f 74/137/4 73/138/4 77/139/4 78/140/4
f 73/126/7 74/125/7 75/124/7 76/127/7
f 79/124/6 78/125/6 77/126/6 80/127/6
f 76/138/2 75/141/2 79/142/2 80/139/2
f 84/143/2 83/144/2 87/145/2 88/146/2
f 81/126/7 82/147/7 83/124/7 84/127/7
f 82/148/4 81/149/4 85/150/4 86/151/4
f 87/124/6 86/125/6 85/126/6 88/127/6
f 90/124/6 91/125/6 92/126/6 89/127/6
f 93/152/2 94/153/2 90/154/2 89/155/2
f 96/126/7 95/125/7 94/124/7 93/127/7
f 95/156/4 96/157/4 92/158/4 91/159/4
f 103/160/4 104/161/4 100/162/4 99/163/4
f 98/124/6 99/125/6 100/164/6 97/165/6
f 101/166/2 102/160/2 98/167/2 97/168/2
f 104/169/7 103/147/7 102/124/7 101/170/7
f 108/171/2 107/172/2 111/173/2 112/174/2
f 105/126/7 106/147/7 107/124/7 108/127/7
f 106/175/4 105/176/4 109/177/4 110/178/4
f 111/124/6 110/125/6 109/126/6 112/127/6
f 114/124/6 115/125/6 116/126/6 113/127/6
f 117/179/2 118/180/2 114/181/2 113/182/2
f 120/126/7 119/125/7 118/124/7 117/127/7
f 119/183/4 120/184/4 116/185/4 115/186/4
f 127/187/4 128/188/4 124/189/4 123/190/4
f 122/124/6 123/125/6 124/169/6 121/170/6
f 125/191/2 126/192/2 122/190/2 121/193/2
f 128/169/7 127/125/7 126/124/7 125/170/7
usemtl fabric_4
f 215/194/9 178/195/10 133/196/11 210/197/12
f 211/198/13 136/199/13 139/200/14 208/201/15
f 209/202/16 214/203/17 132/204/18 130/205/16
f 129/206/19 130/205/20 131/207/21
f 132/204/22 133/208/23 134/209/24
f 135/210/25 136/199/26 216/211/27
f 137/212/28 138/213/29 139/214/30
f 221/215/31 129/216/19 131/217/21 177/218/32
f 130/205/20 132/204/22 134/209/24 131/207/21
f 178/195/33 138/219/29 137/220/28 179/221/34
f 207/222/35 216/211/35 136/199/13 211/198/13
f 191/223/36 142/224/37 141/225/38 195/226/39
f 192/227/40 140/228/40 150/229/16 196/230/16
f 210/231/12 133/208/11 132/204/18 214/203/17
f 135/232/25 137/233/28 139/200/30 136/199/26
f 177/218/32 131/217/21 134/234/24 179/235/34
f 197/236/41 148/237/42 149/238/43 193/239/44
f 213/240/40 217/241/40 147/242/16 209/202/16
f 212/243/45 145/244/46 146/245/47 208/246/15
f 194/247/35 143/248/35 144/249/13 190/250/13
f 196/230/16 193/239/44 149/238/43 147/242/16
f 190/250/13 144/249/13 146/251/47 195/252/39
f 198/253/48 181/254/49 148/255/42 197/256/41
f 189/257/50 180/258/51 152/259/52 184/260/53
f 185/261/13 153/262/13 141/263/38 182/264/54
f 183/265/16 188/266/55 151/267/56 150/229/16
f 173/218/57 161/268/58 165/269/59 175/235/60
f 154/270/61 155/271/62 156/272/63
f 157/273/64 158/274/65 159/275/66
f 160/276/67 161/277/58 162/278/68
f 163/279/69 164/280/70 165/281/59
f 222/282/35 218/283/35 153/262/13 185/261/13
f 200/284/71 164/280/72 163/285/73 203/286/74
f 220/215/75 162/287/68 161/288/58 173/218/57
f 174/289/76 157/290/64 159/291/66 175/292/60
f 158/274/65 156/272/63 155/271/62 159/275/66
f 201/293/40 154/270/40 156/272/16 204/294/16
f 184/295/53 152/296/52 151/267/56 188/266/55
f 160/297/67 163/298/69 165/299/59 161/277/58
f 205/300/77 171/301/42 172/302/43 202/303/78
f 187/304/40 169/305/40 170/306/16 183/265/16
f 186/307/79 167/308/46 168/309/47 182/310/54
f 223/311/35 219/312/35 166/313/13 199/314/13
f 204/294/16 202/303/78 172/302/43 170/306/16
f 199/314/13 166/313/13 168/315/47 203/316/74
f 206/317/80 176/318/49 171/319/42 205/320/77
f 200/321/71 167/322/46 176/318/49 206/317/80
f 164/323/70 174/289/76 175/292/60 165/324/59
f 154/216/61 220/215/75 173/218/57 155/217/62
f 155/217/62 173/218/57 175/235/60 159/234/66
f 186/325/79 142/326/37 180/258/51 189/257/50
f 191/327/36 145/328/46 181/254/49 198/253/48
f 135/268/25 177/218/32 179/235/34 137/269/28
f 133/196/23 178/195/33 179/221/34 134/329/24
f 216/287/27 221/215/31 177/218/32 135/288/25
f 212/330/45 138/213/81 178/195/10 215/194/9
f 167/331/46 186/325/79 189/257/50 176/318/49
f 142/224/37 186/307/79 182/310/54 141/332/38
f 140/228/40 187/304/40 183/265/16 150/229/16
f 171/301/42 184/295/53 188/266/55 172/302/43
f 219/312/35 222/333/35 185/261/13 166/313/13
f 170/306/16 172/302/43 188/266/55 183/265/16
f 166/313/13 185/261/13 182/264/54 168/315/47
f 176/318/49 189/257/50 184/260/53 171/319/42
f 142/224/37 191/334/36 198/253/48 180/258/51
f 180/258/51 198/253/48 197/256/41 152/259/52
f 153/262/13 190/250/13 195/252/39 141/263/38
f 150/229/16 151/267/56 193/239/44 196/230/16
f 218/335/35 194/247/35 190/250/13 153/336/13
f 152/296/52 197/236/41 193/239/44 151/267/56
f 217/241/40 192/227/40 196/230/16 147/242/16
f 145/337/46 191/334/36 195/226/39 146/245/47
f 164/280/72 200/321/71 206/317/80 174/289/82
f 174/289/82 206/317/80 205/320/77 157/290/83
f 160/297/13 199/314/13 203/316/74 163/338/73
f 156/272/16 158/274/84 202/303/78 204/294/16
f 162/278/35 223/311/35 199/314/13 160/297/13
f 157/273/83 205/300/77 202/303/78 158/274/84
f 169/305/40 201/293/40 204/294/16 170/306/16
f 167/339/46 200/340/71 203/341/74 168/309/47
f 145/337/46 212/243/45 215/194/9 181/254/49
f 138/213/81 212/243/45 208/246/15 139/214/14
f 129/206/40 213/240/40 209/202/16 130/205/16
f 148/237/42 210/231/12 214/203/17 149/238/43
f 143/248/35 207/222/35 211/198/13 144/249/13
f 147/242/16 149/238/43 214/203/17 209/202/16
f 144/249/13 211/198/13 208/201/15 146/251/47
f 181/254/49 215/194/9 210/197/12 148/255/42
f 221/342/4 216/343/4 207/344/4 143/345/4 194/346/4 218/347/4 222/348/4 219/349/4 223/350/4 162/351/4 220/352/4 154/353/4 201/354/4 169/355/4 187/356/4 140/357/4 192/358/4 217/359/4 213/360/4 129/361/4
f 314/362/85 275/363/86 228/364/87 309/365/88
f 310/366/89 231/367/89 235/368/90 307/369/91
f 308/370/92 313/371/93 227/372/94 225/373/92
f 224/374/95 225/375/96 226/376/97
f 227/377/98 228/378/99 229/379/100
f 230/380/101 231/381/102 232/382/103
f 233/383/104 234/384/105 235/385/106
f 285/386/107 279/387/108 264/388/108 268/389/107
f 225/375/96 227/377/98 229/379/100 226/376/97
f 275/390/109 234/384/105 233/383/104 276/391/110
f 306/392/108 232/393/108 231/367/111 310/366/111
f 289/394/112 238/395/113 237/396/114 293/397/115
f 290/398/107 236/399/107 247/400/92 294/401/92
f 309/402/88 228/403/87 227/372/94 313/371/93
f 230/380/101 233/383/104 235/385/106 231/381/102
f 232/382/103 224/374/95 226/376/97 230/380/101
f 295/404/116 245/405/117 246/406/118 291/407/119
f 312/408/107 243/409/107 244/410/92 308/370/92
f 311/411/120 241/412/121 242/413/122 307/414/91
f 292/415/108 239/416/108 240/417/111 288/418/111
f 294/401/92 291/407/119 246/406/118 244/410/92
f 288/418/89 240/417/89 242/419/122 293/420/115
f 296/421/123 278/422/124 245/423/117 295/424/116
f 287/425/125 277/426/126 249/427/127 282/428/128
f 283/429/89 250/430/89 237/431/114 280/432/129
f 281/433/92 286/434/130 248/435/131 247/400/92
f 259/436/132 263/437/133 273/438/134
f 252/439/135 253/440/136 254/441/137
f 255/442/138 256/443/139 257/444/140
f 258/445/141 259/436/132 260/446/142
f 261/447/143 262/448/144 263/437/133
f 279/449/108 251/450/108 250/430/111 283/429/111
f 298/451/145 262/452/146 261/453/147 302/454/148
f 253/440/136 259/436/132 273/438/134 257/444/140
f 272/455/149 255/442/138 257/444/140 273/438/134
f 256/443/139 254/441/137 253/440/136 257/444/140
f 299/456/107 252/457/107 254/458/92 303/459/92
f 282/460/128 249/461/127 248/435/131 286/434/130
f 258/445/141 261/447/143 263/437/133 259/436/132
f 304/462/150 270/463/117 271/464/118 300/465/151
f 285/466/107 268/467/107 269/468/92 281/433/92
f 284/469/152 266/470/121 267/471/122 280/472/129
f 301/473/108 264/474/108 265/475/111 297/476/111
f 303/459/92 300/465/151 271/464/118 269/468/92
f 297/476/89 265/475/89 267/477/122 302/478/148
f 305/479/153 274/480/124 270/481/117 304/482/150
f 298/483/145 266/484/121 274/480/124 305/479/153
f 262/448/144 272/455/149 273/438/134 263/437/133
f 268/389/107 264/388/108 301/485/108 299/486/107
f 243/487/107 312/488/107 306/489/108 239/490/108
f 284/491/152 238/492/113 277/426/126 287/425/125
f 289/493/112 241/494/121 278/422/124 296/421/123
f 228/378/99 275/390/109 276/391/110 229/379/100
f 311/495/120 234/496/154 275/363/86 314/362/85
f 266/484/121 284/491/152 287/425/125 274/480/124
f 238/497/113 284/498/152 280/499/129 237/500/114
f 236/399/107 285/466/107 281/433/92 247/400/92
f 270/463/117 282/460/128 286/434/130 271/464/118
f 264/474/108 279/449/108 283/429/111 265/475/111
f 269/468/92 271/464/118 286/434/130 281/433/92
f 265/475/89 283/429/89 280/432/129 267/501/122
f 274/480/124 287/425/125 282/428/128 270/481/117
f 238/492/113 289/493/112 296/421/123 277/426/126
f 277/426/126 296/421/123 295/424/116 249/427/127
f 250/430/89 288/418/89 293/420/115 237/431/114
f 247/400/92 248/435/131 291/407/119 294/401/92
f 251/450/108 292/415/108 288/418/111 250/430/111
f 249/461/127 295/404/116 291/407/119 248/435/131
f 243/409/107 290/398/107 294/401/92 244/410/92
f 241/502/121 289/503/112 293/504/115 242/505/122
f 262/506/146 298/483/145 305/479/153 272/507/155
f 272/507/155 305/479/153 304/482/150 255/508/156
f 258/509/89 297/476/89 302/478/148 261/510/147
f 254/458/92 256/511/157 300/465/151 303/459/92
f 260/512/108 301/473/108 297/476/111 258/509/111
f 255/513/156 304/462/150 300/465/151 256/511/157
f 268/467/107 299/456/107 303/459/92 269/468/92
f 266/514/121 298/515/145 302/516/148 267/517/122
f 241/494/121 311/495/120 314/362/85 278/422/124
f 234/518/154 311/519/120 307/520/91 235/521/90
f 224/522/107 312/408/107 308/370/92 225/373/92
f 245/405/117 309/402/88 313/371/93 246/406/118
f 239/416/108 306/392/108 310/366/111 240/417/111
f 244/410/92 246/406/118 313/371/93 308/370/92
f 240/417/89 310/366/89 307/369/91 242/523/122
f 278/422/124 314/362/85 309/365/88 245/423/117
f 233/383/104 230/380/101 276/391/110
f 230/380/101 226/376/97 229/379/100 276/391/110
f 252/439/135 260/446/142 259/436/132 253/440/136
f 251/524/108 236/525/107 290/526/107 292/527/108
f 290/526/107 243/487/107 239/490/108 292/527/108
f 285/386/107 236/525/107 251/524/108 279/387/108
f 232/528/108 306/489/108 312/488/107 224/529/107
f 301/485/108 260/530/108 252/531/107 299/486/107
