# Blender 5.0.1
# www.blender.org
mtllib sofa_1.mtl
o sofa_1
v -1.100000 0.050000 0.028283
v -1.080000 0.030000 0.019999
v -1.080000 0.050000 -0.000001
v -1.100000 0.058284 0.019999
v -1.100000 0.810000 0.028283
v -1.080000 0.830000 0.019999
v -1.080000 0.030000 0.079999
v -1.100000 0.050000 0.071714
v -1.100000 0.058284 0.079999
v -1.080000 0.050000 0.099999
v -1.100000 0.801716 0.019999
v -1.080000 0.810000 -0.000001
v -1.100000 0.810000 0.071714
v -1.080000 0.830000 0.079999
v -1.100000 0.801716 0.079999
v -1.080000 0.810000 0.099999
v 1.100000 0.058284 0.019999
v 1.080000 0.050000 -0.000001
v 1.100000 0.810000 0.028283
v 1.080000 0.830000 0.019999
v 1.100000 0.050000 0.071714
v 1.080000 0.030000 0.079999
v 1.100000 0.801716 0.079999
v 1.080000 0.810000 0.099999
v 1.100000 0.050000 0.028283
v 1.080000 0.030000 0.019999
v 1.100000 0.058284 0.079999
v 1.080000 0.050000 0.099999
v 1.100000 0.801716 0.019999
v 1.080000 0.810000 -0.000001
v 1.100000 0.810000 0.071714
v 1.080000 0.830000 0.079999
v -1.080000 0.030000 0.980000
v -1.080000 0.050000 1.000000
v -1.100000 0.050000 0.980000
v -1.080000 0.310000 1.000000
v -1.080000 0.330000 0.980000
v -1.100000 0.310000 0.980000
v -1.100000 0.050000 0.120000
v -1.080000 0.050000 0.100000
v -1.080000 0.030000 0.120000
v -1.100000 0.310000 0.120000
v -1.080000 0.330000 0.120000
v -1.080000 0.310000 0.100000
v 1.080000 0.030000 0.980000
v 1.100000 0.050000 0.980000
v 1.080000 0.050000 1.000000
v 1.080000 0.330000 0.980000
v 1.080000 0.310000 1.000000
v 1.100000 0.310000 0.980000
v 1.080000 0.050000 0.100000
v 1.100000 0.050000 0.120000
v 1.080000 0.030000 0.120000
v 1.080000 0.310000 0.100000
v 1.080000 0.330000 0.120000
v 1.100000 0.310000 0.120000
v -1.080000 0.330000 0.960000
v -1.080000 0.350000 0.980000
v -1.100000 0.350000 0.960000
v -1.080000 0.450000 0.980000
v -1.080000 0.470000 0.960000
v -1.100000 0.450000 0.960000
v -1.100000 0.350000 0.120000
v -1.080000 0.330000 0.120000
v -1.100000 0.480000 0.120000
v -1.080000 0.500000 0.120000
v -0.020000 0.330000 0.960000
v 0.000000 0.350000 0.960000
v -0.020000 0.490000 0.960000
v -0.020000 0.470000 0.980000
v 0.000000 0.470000 0.960000
v -0.020000 0.520000 0.120000
v 0.000000 0.500000 0.120000
v -0.550000 0.500000 0.120000
v -0.550000 0.470000 0.960000
v -0.550000 0.450000 0.980000
v 0.020000 0.470000 0.980000
v 0.020000 0.490000 0.960000
v 0.020000 0.520000 0.120000
v 1.100000 0.350000 0.960000
v 1.080000 0.470000 0.960000
v 1.080000 0.450000 0.980000
v 1.100000 0.450000 0.960000
v 1.100000 0.350000 0.120000
v 1.080000 0.500000 0.120000
v 1.100000 0.480000 0.120000
v 1.080000 0.330000 0.120000
v 0.550000 0.500000 0.120000
v 1.080000 0.330000 0.960000
v 1.080000 0.350000 0.980000
v 0.550000 0.470000 0.960000
v 0.550000 0.450000 0.980000
v 0.020000 0.330000 0.750000
v 0.020000 0.520000 0.750000
v 1.080000 0.500000 0.750000
v 1.100000 0.480000 0.750000
v 0.550000 0.500000 0.750000
v -1.080000 0.500000 0.750000
v -1.100000 0.480000 0.750000
v -0.020000 0.330000 0.750000
v 0.000000 0.350000 0.750000
v -0.020000 0.520000 0.750000
v 0.000000 0.500000 0.750000
v -0.550000 0.500000 0.750000
v 0.020000 0.350000 0.980000
v 0.285000 0.485000 0.960000
v 0.285000 0.515000 0.120000
v 0.020000 0.330000 0.960000
v 0.285000 0.465000 0.980000
v 0.285000 0.515000 0.750000
v -0.285000 0.515000 0.120000
v -0.285000 0.465000 0.980000
v -0.020000 0.350000 0.980000
v -0.285000 0.485000 0.960000
v -0.285000 0.515000 0.750000
v 0.815000 0.515000 0.120000
v 0.815000 0.465000 0.980000
v 0.815000 0.485000 0.960000
v 0.815000 0.515000 0.750000
v -0.815000 0.485000 0.960000
v -0.815000 0.515000 0.120000
v -0.815000 0.465000 0.980000
v -0.815000 0.515000 0.750000
v 1.120000 0.030000 0.980000
v 1.120000 0.050000 1.000000
v 1.100000 0.050000 0.980000
v 1.280000 0.030000 0.980000
v 1.300000 0.050000 0.980000
v 1.280000 0.050000 1.000000
v 1.100000 0.696890 0.980000
v 1.100000 0.810000 0.866890
v 1.100000 0.776871 0.946871
v 1.300000 0.810000 0.866890
v 1.300000 0.696890 0.980000
v 1.300000 0.776871 0.946871
v 1.120000 0.830000 0.887264
v 1.120000 0.717265 1.000000
v 1.120000 0.796981 0.966981
v 1.280000 0.717265 1.000000
v 1.280000 0.830000 0.887264
v 1.280000 0.796981 0.966981
v 1.120000 0.030000 0.025000
v 1.125000 0.055000 -0.000000
v 1.100000 0.050000 0.025000
v 1.120000 0.830000 0.025000
v 1.125000 0.805000 -0.000000
v 1.100000 0.810000 0.025000
v 1.280000 0.030000 0.025000
v 1.275000 0.055000 -0.000000
v 1.300000 0.050000 0.025000
v 1.280000 0.830000 0.025000
v 1.300000 0.810000 0.025000
v 1.275000 0.805000 -0.000000
v -1.280000 0.030000 0.980000
v -1.280000 0.050000 1.000000
v -1.300000 0.050000 0.980000
v -1.120000 0.030000 0.980000
v -1.100000 0.050000 0.980000
v -1.120000 0.050000 1.000000
v -1.300000 0.696890 0.980000
v -1.300000 0.810000 0.866890
v -1.300000 0.776871 0.946871
v -1.100000 0.810000 0.866890
v -1.100000 0.696890 0.980000
v -1.100000 0.776871 0.946871
v -1.280000 0.830000 0.887264
v -1.280000 0.717265 1.000000
v -1.280000 0.796981 0.966981
v -1.120000 0.717265 1.000000
v -1.120000 0.830000 0.887264
v -1.120000 0.796981 0.966981
v -1.280000 0.030000 0.025000
v -1.275000 0.055000 -0.000000
v -1.300000 0.050000 0.025000
v -1.280000 0.830000 0.025000
v -1.275000 0.805000 -0.000000
v -1.300000 0.810000 0.025000
v -1.120000 0.030000 0.025000
v -1.125000 0.055000 -0.000000
v -1.100000 0.050000 0.025000
v -1.120000 0.830000 0.025000
v -1.100000 0.810000 0.025000
v -1.125000 0.805000 -0.000000
v 0.020000 0.516138 0.083046
v 0.020000 0.500000 0.099185
v 0.000000 0.516138 0.099185
v 0.020000 0.500000 0.256015
v 0.020000 0.516138 0.272153
v 0.000000 0.516138 0.256015
v 1.080000 0.516138 0.083046
v 1.100000 0.516138 0.099185
v 1.080000 0.500000 0.099185
v 1.080000 0.516138 0.272153
v 1.080000 0.500000 0.256015
v 1.100000 0.516138 0.256015
v 0.020000 0.806000 0.083046
v 0.000000 0.806000 0.099082
v 0.020000 0.806000 0.271328
v 0.000000 0.806000 0.255293
v 1.080000 0.806000 0.083046
v 1.100000 0.806000 0.099082
v 1.080000 0.806000 0.271328
v 1.100000 0.806000 0.255293
v 0.000000 0.894806 0.088809
v 0.000000 1.034718 0.047176
v 0.020000 1.059947 0.197742
v 0.020000 0.919711 0.247790
v 1.080000 1.031078 0.031398
v 1.080000 0.891257 0.073279
v 1.100000 0.916145 0.232196
v 1.100000 1.056371 0.181934
v 0.020000 0.891257 0.073279
v 0.020000 1.031078 0.031398
v 0.000000 0.916145 0.232196
v 0.000000 1.056371 0.181934
v 1.100000 1.034718 0.047176
v 1.100000 0.894806 0.088809
v 1.080000 0.919711 0.247790
v 1.080000 1.059947 0.197742
v 0.020000 1.058653 0.018492
v 0.089827 1.108513 -0.004842
v 0.040452 1.093909 0.001992
v 0.089994 1.137382 0.161501
v 0.020000 1.084600 0.186204
v 0.040501 1.121923 0.168736
v 1.010173 1.108513 -0.004842
v 1.080000 1.058653 0.018492
v 1.059548 1.093909 0.001992
v 1.080000 1.084600 0.186204
v 1.010007 1.137382 0.161501
v 1.059500 1.121923 0.168736
v 0.069641 1.127914 0.009146
v 0.000000 1.075983 0.030338
v 0.020398 1.112704 0.015353
v 0.000000 1.097402 0.165190
v 0.069700 1.149567 0.143904
v 0.020415 1.134288 0.150139
v 1.100000 1.075983 0.030338
v 1.030360 1.127914 0.009146
v 1.079603 1.112704 0.015353
v 1.030300 1.149567 0.143904
v 1.100000 1.097402 0.165190
v 1.079586 1.134288 0.150139
v 0.550000 0.516138 0.252153
v 0.550000 0.500000 0.236015
v 0.550000 0.806000 0.251328
v 0.550000 0.919711 0.227790
v 0.550000 1.069947 0.177741
v 0.550000 1.118513 -0.004842
v 0.550000 1.137914 0.009146
v 0.550000 1.147382 0.141501
v 0.550000 1.159567 0.123904
v -1.080000 0.516138 0.083046
v -1.080000 0.500000 0.099185
v -1.100000 0.516138 0.099185
v -1.080000 0.500000 0.256015
v -1.080000 0.516138 0.272153
v -1.100000 0.516138 0.256015
v -0.020000 0.516138 0.083046
v -0.000000 0.516138 0.099185
v -0.020000 0.500000 0.099185
v -0.020000 0.516138 0.272153
v -0.020000 0.500000 0.256015
v -0.000000 0.516138 0.256015
v -1.080000 0.806000 0.083046
v -1.100000 0.806000 0.099082
v -1.080000 0.806000 0.271328
v -1.100000 0.806000 0.255293
v -0.020000 0.806000 0.083046
v 0.000000 0.806000 0.099082
v -0.020000 0.806000 0.271328
v 0.000000 0.806000 0.255293
v -1.100000 0.894806 0.088809
v -1.100000 1.034718 0.047176
v -1.080000 1.059947 0.197742
v -1.080000 0.919711 0.247790
v -0.020000 1.031078 0.031398
v -0.020000 0.891257 0.073279
v 0.000000 0.916145 0.232196
v 0.000000 1.056371 0.181934
v -1.080000 0.891257 0.073279
v -1.080000 1.031078 0.031398
v -1.100000 0.916145 0.232196
v -1.100000 1.056371 0.181934
v 0.000000 1.034718 0.047176
v 0.000000 0.894806 0.088809
v -0.020000 0.919711 0.247790
v -0.020000 1.059947 0.197742
v -1.080000 1.058653 0.018492
v -1.010173 1.108513 -0.004842
v -1.059548 1.093909 0.001992
v -1.010006 1.137382 0.161501
v -1.080000 1.084600 0.186204
v -1.059499 1.121923 0.168736
v -0.089827 1.108513 -0.004842
v -0.020000 1.058653 0.018492
v -0.040452 1.093909 0.001992
v -0.020000 1.084600 0.186204
v -0.089994 1.137382 0.161501
v -0.040501 1.121923 0.168736
v -1.030359 1.127914 0.009146
v -1.100000 1.075983 0.030338
v -1.079603 1.112704 0.015353
v -1.100000 1.097402 0.165190
v -1.030300 1.149567 0.143904
v -1.079585 1.134288 0.150139
v 0.000000 1.075983 0.030338
v -0.069641 1.127914 0.009146
v -0.020397 1.112704 0.015353
v -0.069700 1.149567 0.143904
v 0.000000 1.097402 0.165190
v -0.020415 1.134288 0.150139
v -0.550000 0.516138 0.252153
v -0.550000 0.500000 0.236015
v -0.550000 0.806000 0.251328
v -0.550000 0.919711 0.227790
v -0.550000 1.069947 0.177741
v -0.550000 1.118513 -0.004842
v -0.550000 1.137914 0.009146
v -0.550000 1.147382 0.141501
v -0.550000 1.159567 0.123904
v -1.230001 0.020000 0.930000
v -1.230001 0.030000 0.930000
v -1.230001 0.020000 0.870000
v -1.230001 0.030000 0.870000
v -1.170001 0.020000 0.930000
v -1.170001 0.030000 0.930000
v -1.170001 0.020000 0.870000
v -1.170001 0.030000 0.870000
v -1.221393 -0.000000 0.921394
v -1.221393 -0.000000 0.878607
v -1.178607 -0.000000 0.921394
v -1.178607 -0.000000 0.878607
v -1.230001 0.020000 0.130000
v -1.230001 0.030000 0.130000
v -1.230001 0.020000 0.070000
v -1.230001 0.030000 0.070000
v -1.170001 0.020000 0.130000
v -1.170001 0.030000 0.130000
v -1.170001 0.020000 0.070000
v -1.170001 0.030000 0.070000
v -1.221393 -0.000000 0.121393
v -1.221393 -0.000000 0.078607
v -1.178607 -0.000000 0.121393
v -1.178607 -0.000000 0.078607
v 1.169999 0.020000 0.930000
v 1.169999 0.030000 0.930000
v 1.169999 0.020000 0.870000
v 1.169999 0.030000 0.870000
v 1.229999 0.020000 0.930000
v 1.229999 0.030000 0.930000
v 1.229999 0.020000 0.870000
v 1.229999 0.030000 0.870000
v 1.178607 -0.000000 0.921394
v 1.178607 -0.000000 0.878607
v 1.221393 -0.000000 0.921394
v 1.221393 -0.000000 0.878607
v 1.169999 0.020000 0.130000
v 1.169999 0.030000 0.130000
v 1.169999 0.020000 0.070000
v 1.169999 0.030000 0.070000
v 1.229999 0.020000 0.130000
v 1.229999 0.030000 0.130000
v 1.229999 0.020000 0.070000
v 1.229999 0.030000 0.070000
v 1.178607 -0.000000 0.121393
v 1.178607 -0.000000 0.078607
v 1.221393 -0.000000 0.121393
v 1.221393 -0.000000 0.078607
vn -0.8991 -0.4044 -0.1675
vn -0.8991 -0.4044 0.1675
vn -0.8991 -0.1675 0.4044
vn -0.8991 0.1675 0.4044
vn -0.8991 0.4044 0.1675
vn -0.8991 0.4044 -0.1675
vn -0.8991 0.1675 -0.4044
vn -0.8991 -0.1675 -0.4044
vn 0.8991 0.1675 0.4044
vn 0.8991 -0.1675 0.4044
vn 0.8991 -0.4044 0.1675
vn 0.8991 -0.4044 -0.1675
vn 0.8991 -0.1675 -0.4044
vn 0.8991 0.1675 -0.4044
vn 0.8991 0.4044 -0.1675
vn 0.8991 0.4044 0.1675
vn -0.0000 0.9239 -0.3827
vn -0.0000 0.3827 -0.9239
vn -0.0000 -1.0000 -0.0000
vn -0.0000 -0.9239 -0.3827
vn -0.0000 0.9239 0.3827
vn -0.0000 0.3827 0.9239
vn -0.0000 -0.3827 0.9239
vn -0.0000 -0.7071 0.7071
vn -0.0000 -0.0000 -1.0000
vn -0.7345 -0.6269 -0.2597
vn -0.7071 -0.7071 -0.0000
vn -0.7345 0.2597 0.6269
vn -0.7345 0.6269 0.2597
vn -0.7071 -0.5000 0.5000
vn -0.7345 -0.2597 0.6269
vn -0.7345 0.2597 -0.6269
vn -0.7071 -0.0000 -0.7071
vn -0.7345 0.6269 -0.2597
vn -0.7071 -0.5000 -0.5000
vn 0.7345 0.2597 0.6269
vn 0.7345 -0.2597 0.6269
vn 0.7345 -0.6269 -0.2597
vn 0.7345 -0.2597 -0.6269
vn 0.7345 0.2597 -0.6269
vn 0.7345 0.6269 0.2597
vn 0.7345 -0.6269 0.2597
vn 0.7345 0.6269 -0.2597
vn -0.0000 -0.7071 -0.7071
vn -0.0000 -0.9239 0.3827
vn -0.0000 -0.3827 -0.9239
vn -0.0000 -0.0000 1.0000
vn -0.6861 -0.6861 0.2418
vn -0.5774 -0.5774 0.5773
vn -0.6861 0.2418 0.6861
vn -0.6861 0.6861 0.2418
vn -0.7588 0.4606 0.4606
vn -0.7588 -0.4606 -0.4606
vn -0.6861 -0.2418 -0.6861
vn -0.6861 -0.6861 -0.2418
vn -0.7588 0.4606 -0.4606
vn -0.6861 0.6861 -0.2418
vn -0.6861 0.2418 -0.6861
vn 0.6861 -0.6861 0.2418
vn 0.5774 -0.5774 0.5773
vn 0.6861 0.6861 0.2418
vn 0.6861 0.2418 0.6861
vn 0.7588 0.4606 0.4606
vn 0.6861 -0.2418 -0.6861
vn 0.7588 -0.4606 -0.4606
vn 0.6861 -0.6861 -0.2418
vn 0.6861 0.2418 -0.6861
vn 0.6861 0.6861 -0.2418
vn 0.7588 0.4606 -0.4606
vn -0.7071 -0.0000 0.7071
vn 0.7071 -0.0000 0.7071
vn -0.0000 0.9975 0.0707
vn -0.0564 0.9959 0.0710
vn -0.0504 0.8910 0.4512
vn -0.0000 0.8967 0.4427
vn -0.0000 0.3943 0.9190
vn -0.0210 0.3707 0.9285
vn -0.6861 -0.2418 0.6861
vn -0.7588 -0.4606 0.4606
vn -0.6760 0.6760 0.2934
vn -0.7424 0.4425 0.5030
vn 0.5773 -0.5774 0.5774
vn 0.6861 -0.2418 0.6861
vn 0.6760 0.6760 0.2934
vn 0.7424 0.4425 0.5030
vn -0.7063 0.7063 0.0487
vn -0.7071 0.7071 -0.0000
vn -0.7062 0.7062 0.0519
vn 0.7063 0.7063 0.0487
vn 0.7061 0.7062 0.0519
vn -0.0337 0.8946 0.4455
vn -0.0000 0.8921 0.4518
vn -0.0000 0.3708 0.9287
vn -0.0147 0.3865 0.9222
vn -0.0376 0.9968 0.0708
vn -0.0000 0.9975 0.0711
vn 0.0376 0.9968 0.0708
vn 0.0188 0.9973 0.0708
vn 0.0169 0.8951 0.4456
vn 0.0337 0.8946 0.4455
vn 0.0147 0.3865 0.9222
vn 0.0073 0.3866 0.9222
vn 0.7588 -0.4606 0.4606
vn 0.7062 0.7062 0.0519
vn -0.0000 1.0000 -0.0000
vn 0.7071 0.7071 -0.0000
vn 0.0377 0.9993 -0.0000
vn 0.0189 0.9998 -0.0000
vn -0.0377 0.9993 -0.0000
vn 0.7071 -0.7071 -0.0000
vn -0.0565 0.9984 -0.0000
vn -0.0189 0.9998 -0.0000
vn -0.0188 0.9973 0.0708
vn -0.0169 0.8951 0.4456
vn -0.0073 0.3866 0.9222
vn 0.0565 0.9984 -0.0000
vn 0.0564 0.9959 0.0710
vn 0.0504 0.8910 0.4512
vn 0.0210 0.3707 0.9285
vn 0.3416 -0.8756 0.3416
vn 0.3490 -0.8676 -0.3543
vn 0.6761 -0.6761 -0.2928
vn 0.4087 0.1952 0.8915
vn 0.3827 -0.0000 0.9239
vn 0.7464 0.0847 0.6601
vn -0.3490 0.8676 -0.3543
vn -0.4087 0.8915 0.1952
vn 0.4087 0.8915 0.1952
vn 0.3490 0.8676 -0.3543
vn -0.3416 -0.8756 0.3416
vn -0.2418 -0.6861 0.6861
vn 0.6761 0.6761 -0.2928
vn 0.7464 0.6601 0.0847
vn 0.2418 -0.6861 0.6861
vn -0.4087 0.1952 0.8915
vn -0.3827 -0.0000 0.9239
vn 1.0000 -0.0000 -0.0000
vn 0.9311 -0.0000 -0.3647
vn -0.9311 -0.0000 -0.3647
vn -1.0000 -0.0000 -0.0000
vn -0.3490 -0.8676 -0.3543
vn -0.7464 0.0847 0.6601
vn 0.4202 0.6417 0.6417
vn -0.4202 0.6417 0.6417
vn 0.8180 0.4068 0.4068
vn -0.7464 0.6601 0.0847
vn -0.8180 0.4068 0.4068
vn -0.6761 -0.6761 -0.2928
vn -0.3990 -0.0000 -0.9170
vn 0.3990 -0.0000 -0.9170
vn -0.6761 0.6761 -0.2928
vn -0.1803 -0.6772 -0.7133
vn -0.1803 0.6772 -0.7133
vn 0.1803 -0.6772 -0.7133
vn 0.1803 0.6772 -0.7133
vn -0.0000 -0.4267 -0.9044
vn -0.0055 -0.3528 -0.9357
vn 0.0054 -0.3528 -0.9357
vn -0.6041 -0.2686 -0.7502
vn -0.6049 -0.7497 -0.2685
vn -0.8451 -0.3779 -0.3782
vn -0.6049 -0.7497 0.2685
vn -0.6043 -0.2675 0.7505
vn -0.8451 -0.3774 0.3786
vn 0.6359 -0.2658 -0.7246
vn 0.6135 -0.1899 -0.7665
vn 0.8920 0.0772 -0.4454
vn 0.9093 -0.1410 -0.3915
vn -0.0000 0.9791 0.2031
vn -0.0000 0.8478 -0.5303
vn -0.1871 0.7985 -0.5723
vn -0.1504 0.9588 0.2409
vn 0.6041 -0.2686 -0.7503
vn 0.8451 -0.3779 -0.3782
vn 0.6049 -0.7497 -0.2685
vn 0.6043 -0.2675 0.7505
vn 0.6049 -0.7497 0.2685
vn 0.8451 -0.3774 0.3786
vn -0.0000 0.1035 0.9946
vn 0.0375 0.1030 0.9940
vn 0.0349 -0.3779 0.9252
vn -0.0000 -0.3847 0.9231
vn -0.0000 0.2652 0.9642
vn 0.0348 0.2642 0.9638
vn -0.0000 -0.0570 -0.9984
vn -0.6249 -0.0459 -0.7794
vn -0.9075 -0.0236 -0.4193
vn 0.0013 -0.1965 -0.9805
vn -0.0013 -0.1965 -0.9805
vn 0.0267 -0.7069 0.7069
vn -0.0000 0.8239 0.5667
vn 0.0416 0.7996 0.5991
vn 0.1504 0.9588 0.2409
vn 0.6260 0.0778 0.7760
vn 0.8906 0.0492 0.4522
vn -0.6251 -0.1562 -0.7648
vn -0.9107 -0.0833 -0.4046
vn -0.8906 0.0492 0.4522
vn 0.6249 -0.0459 -0.7794
vn 0.9075 -0.0236 -0.4193
vn -0.6143 0.2877 0.7348
vn -0.5333 0.4012 0.7448
vn -0.8443 0.3775 0.3803
vn -0.8956 0.1638 0.4135
vn -0.6260 0.0778 0.7760
vn -0.6135 -0.1899 -0.7665
vn -0.6359 -0.2658 -0.7246
vn -0.9093 -0.1410 -0.3915
vn -0.8920 0.0772 -0.4454
vn 0.6251 -0.1562 -0.7648
vn 0.9107 -0.0833 -0.4046
vn -0.6236 0.2107 0.7528
vn -0.8935 0.1222 0.4320
vn 0.8935 0.1222 0.4320
vn 0.6236 0.2107 0.7528
vn -0.0348 0.2642 0.9638
vn -0.0300 0.3691 0.9289
vn -0.0000 0.3711 0.9286
vn 0.8956 0.1638 0.4135
vn 0.6143 0.2877 0.7348
vn 0.8443 0.3775 0.3803
vn -0.0000 0.4137 0.9104
vn 0.0273 0.4136 0.9101
vn 0.0300 0.3691 0.9289
vn -0.0082 -0.4271 -0.9042
vn -0.0082 -0.4269 -0.9042
vn -0.0054 -0.3527 -0.9357
vn 0.5333 0.4012 0.7448
vn -0.6187 0.5533 -0.5577
vn -0.5603 0.7789 0.2818
vn -0.0416 0.7996 0.5991
vn -0.2651 0.6542 0.7084
vn -0.0841 0.5251 -0.8469
vn -0.3900 0.2104 -0.8965
vn 0.6187 0.5533 -0.5577
vn 0.5603 0.7789 0.2818
vn 0.1871 0.7985 -0.5723
vn 0.2651 0.6542 0.7084
vn 0.3899 0.2104 -0.8965
vn 0.0841 0.5251 -0.8469
vn -0.0000 0.5806 -0.8142
vn -0.0349 -0.3779 0.9252
vn -0.0267 -0.7069 0.7069
vn -0.0375 0.1030 0.9940
vn -0.0273 0.4136 0.9101
vn 0.0037 -0.3514 -0.9362
vn -0.0000 -0.4268 -0.9043
vn -0.0003 -0.4206 -0.9072
vn 0.0072 -0.4262 -0.9046
vn -0.0075 -0.4264 -0.9045
vn 0.0003 -0.4208 -0.9071
vn -0.0072 -0.4262 -0.9046
vn 0.0083 -0.4270 -0.9042
vn 0.0082 -0.4269 -0.9042
vn -0.0000 -0.3953 -0.9186
vn -0.9185 -0.3953 -0.0000
vn 0.9186 -0.3953 -0.0000
vn -0.0000 -0.3953 0.9186
vt 0.686033 0.186539
vt 0.698638 0.186539
vt 0.701043 0.188943
vt 0.701043 0.404718
vt 0.698638 0.407123
vt 0.686033 0.407123
vt 0.683628 0.404718
vt 0.683628 0.188943
vt 0.683628 0.638380
vt 0.683628 0.422605
vt 0.686033 0.420201
vt 0.698638 0.420201
vt 0.701043 0.422605
vt 0.701043 0.638380
vt 0.698638 0.640784
vt 0.686033 0.640784
vt 0.421938 0.186539
vt 0.421938 0.813462
vt 0.413729 0.813462
vt 0.413729 0.186539
vt 1.220000 0.780000
vt -0.220000 0.780000
vt -0.220000 0.820001
vt 1.220000 0.820001
vt 0.439353 0.813462
vt 0.439353 0.186539
vt 0.447562 0.186539
vt 0.447562 0.813461
vt 0.668146 0.813461
vt 0.447562 0.813461
vt 0.447562 0.186539
vt 0.668146 0.186539
vt 0.439353 0.186539
vt 0.439353 0.813461
vt 0.421939 0.813461
vt 0.421939 0.186539
vt 0.676356 0.186539
vt 0.676355 0.813461
vt 0.668146 0.813461
vt 0.668146 0.186539
vt 0.193146 0.813461
vt 0.193146 0.186539
vt 0.413729 0.186539
vt 0.413729 0.813461
vt 0.169926 0.180734
vt 0.182532 0.180734
vt 0.184936 0.186539
vt 0.167522 0.186539
vt 0.441758 0.180734
vt 0.445159 0.180734
vt 0.447563 0.186539
vt 0.439354 0.186539
vt 0.676355 0.186539
vt 0.668146 0.186539
vt 0.670550 0.180734
vt 0.673950 0.180734
vt 0.195550 0.180734
vt 0.411325 0.180734
vt 0.413729 0.186539
vt 0.193146 0.186539
vt 0.421938 0.186539
vt 0.413729 0.186539
vt 0.416133 0.180734
vt 0.419534 0.180734
vt 0.187341 0.180734
vt 0.190741 0.180734
vt 0.193146 0.186539
vt 0.184936 0.186539
vt 0.449967 0.180734
vt 0.665742 0.180734
vt 0.668146 0.186539
vt 0.447562 0.186539
vt 0.439353 0.186539
vt 0.421938 0.186539
vt 0.424343 0.180734
vt 0.436948 0.180734
vt 0.447563 0.813461
vt 0.668146 0.813461
vt 0.665741 0.819265
vt 0.449967 0.819266
vt 0.184936 0.813460
vt 0.193146 0.813460
vt 0.190741 0.819265
vt 0.187341 0.819265
vt 0.193146 0.813461
vt 0.413729 0.813460
vt 0.411325 0.819265
vt 0.195550 0.819266
vt 0.439353 0.813459
vt 0.447562 0.813459
vt 0.445158 0.819264
vt 0.441758 0.819264
vt 0.167522 0.813462
vt 0.184936 0.813462
vt 0.182532 0.819266
vt 0.169926 0.819266
vt 0.673951 0.819265
vt 0.670550 0.819265
vt 0.668146 0.813460
vt 0.676355 0.813460
vt 0.419534 0.819265
vt 0.416133 0.819265
vt 0.413729 0.813461
vt 0.421938 0.813460
vt 0.436949 0.819266
vt 0.424343 0.819266
vt 0.421939 0.813462
vt 0.439354 0.813462
vt 0.184936 0.813461
vt 0.184936 0.186539
vt 0.193146 0.186539
vt 0.193146 0.813461
vt -0.220000 0.753333
vt 1.220000 0.753333
vt 1.220000 0.180000
vt -0.220000 0.180000
vt 0.218441 0.889792
vt 0.218441 0.110208
vt 0.528831 0.110208
vt 0.528831 0.889792
vt 0.109844 0.888187
vt 0.110185 0.113049
vt 0.207786 0.112537
vt 0.207444 0.887675
vt 0.632878 0.889792
vt 0.539039 0.889792
vt 0.539039 0.110208
vt 0.632878 0.110208
vt 0.643086 0.110208
vt 0.637982 0.101368
vt 0.533935 0.101368
vt 0.108015 0.102195
vt 0.099189 0.110933
vt 0.209672 0.101220
vt 0.643086 0.889792
vt 0.637982 0.898632
vt 0.533935 0.898632
vt 0.107957 0.899504
vt 0.099188 0.890516
vt 0.209614 0.898530
vt 0.663592 0.100000
vt 0.663592 0.411741
vt 0.653339 0.411741
vt 0.653339 0.100000
vt 0.539039 0.100000
vt 0.632878 0.100000
vt 0.218441 0.100000
vt 0.528831 0.100000
vt 0.653339 0.100000
vt 0.653339 0.411741
vt 0.643086 0.411741
vt 0.643086 0.100000
vt 0.528831 0.900000
vt 0.218441 0.900000
vt 0.632878 0.900000
vt 0.539039 0.900000
vt 0.236922 0.395152
vt 0.235354 0.488460
vt 0.159767 0.489243
vt 0.163076 0.395530
vt 0.113590 0.489798
vt 0.153138 0.395644
vt 0.149678 0.489268
vt 0.103473 0.489912
vt 0.108631 0.498617
vt 0.154744 0.497993
vt 0.099188 0.110747
vt 0.104148 0.101927
vt 0.109306 0.110632
vt 0.162544 0.110133
vt 0.152401 0.110158
vt 0.157451 0.101361
vt 0.149827 0.499475
vt 0.113740 0.500004
vt 0.459780 0.492754
vt 0.459586 0.502846
vt 0.234799 0.498529
vt 0.237981 0.112245
vt 0.161818 0.100055
vt 0.237564 0.102198
vt 0.109194 0.100475
vt 0.152289 0.100000
vt 0.161475 0.204744
vt 0.157768 0.300644
vt 0.147484 0.300737
vt 0.151393 0.204757
vt 0.236689 0.205616
vt 0.235328 0.300382
vt 0.687221 0.205470
vt 0.686463 0.111876
vt 0.761995 0.110094
vt 0.762601 0.204902
vt 0.815309 0.110871
vt 0.772699 0.204963
vt 0.772157 0.110171
vt 0.825430 0.111036
vt 0.820512 0.102189
vt 0.767143 0.101332
vt 0.819258 0.490336
vt 0.814055 0.499019
vt 0.809137 0.490172
vt 0.763000 0.489392
vt 0.773081 0.489466
vt 0.767976 0.498160
vt 0.545818 0.726975
vt 0.545818 0.801951
vt 0.535719 0.801951
vt 0.535719 0.726975
vt 0.772322 0.100000
vt 0.815474 0.100700
vt 0.462399 0.110075
vt 0.462480 0.100000
vt 0.686895 0.101811
vt 0.555916 0.502046
vt 0.555916 0.801951
vt 0.545818 0.801951
vt 0.545818 0.502046
vt 0.687501 0.488300
vt 0.763864 0.499468
vt 0.688022 0.498356
vt 0.808937 0.500370
vt 0.772882 0.499664
vt 0.760131 0.395731
vt 0.765875 0.300935
vt 0.776161 0.301076
vt 0.770061 0.395891
vt 0.686317 0.394986
vt 0.688292 0.300425
vt 0.462243 0.396220
vt 0.461968 0.300543
vt 0.463152 0.491815
vt 0.463317 0.502046
vt 0.762767 0.100004
vt 0.462046 0.205303
vt 0.461968 0.206205
vt 0.461601 0.301751
vt 0.461576 0.110053
vt 0.461477 0.100000
vt 0.525621 0.801951
vt 0.525621 0.726975
vt 0.535719 0.726975
vt 0.535719 0.801951
vt 0.158860 0.499328
vt 0.461013 0.397095
vt 0.515522 0.801951
vt 0.515522 0.502046
vt 0.525621 0.502046
vt 0.525621 0.801951
vt 0.170073 0.576659
vt 0.469553 0.576659
vt 0.469553 0.585528
vt 0.170073 0.585528
vt 0.109543 0.681882
vt 0.109544 0.891130
vt 0.100674 0.891130
vt 0.100674 0.688271
vt 0.159718 0.357368
vt 0.159718 0.627766
vt 0.109543 0.627766
vt 0.109543 0.357368
vt 0.159718 0.900000
vt 0.159718 0.891130
vt 0.167400 0.895565
vt 0.100674 0.357368
vt 0.100674 0.621377
vt 0.109544 0.900000
vt 0.101862 0.895565
vt 0.159718 0.681882
vt 0.170073 0.541188
vt 0.170073 0.338329
vt 0.469553 0.338329
vt 0.205543 0.576659
vt 0.180462 0.566270
vt 0.469553 0.382079
vt 0.170073 0.382079
vt 0.170073 0.179220
vt 0.180462 0.154139
vt 0.205543 0.143750
vt 0.469553 0.143750
vt 1.246667 0.180000
vt 1.246667 0.816666
vt 1.353333 0.816666
vt 1.353333 0.180000
vt 0.168588 0.688271
vt 0.168588 0.891130
vt 0.109544 0.654824
vt 0.159718 0.654824
vt 0.099189 0.685385
vt 0.099189 0.658237
vt 0.099189 0.651411
vt 0.099189 0.624263
vt 0.170073 0.624263
vt 0.170073 0.651411
vt 0.170073 0.658237
vt 0.170073 0.685385
vt 0.170073 0.585528
vt 0.469553 0.585528
vt 0.469553 0.594398
vt 0.170073 0.594398
vt 0.158150 0.111087
vt 0.158150 0.346281
vt 0.111111 0.346281
vt 0.111111 0.111087
vt 0.168588 0.357368
vt 0.168588 0.621377
vt 0.159718 0.100000
vt 0.167290 0.104619
vt 0.167290 0.352749
vt 0.109543 0.100000
vt 0.101971 0.104619
vt 0.101971 0.352749
vt 0.169237 0.109519
vt 0.169237 0.347848
vt 0.100024 0.347848
vt 0.100024 0.109519
vt -0.353333 0.180000
vt -0.353333 0.816666
vt -0.246667 0.816666
vt -0.246667 0.180000
vt 0.665707 0.701018
vt 0.698112 0.512524
vt 0.699346 0.889381
vt 0.884654 0.887634
vt 0.892696 0.887634
vt 0.888675 0.895747
vt 0.414226 0.109151
vt 0.406036 0.109247
vt 0.410034 0.100935
vt 0.687012 0.513289
vt 0.681802 0.503977
vt 0.698419 0.503125
vt 0.142621 0.522738
vt 0.101124 0.522427
vt 0.101742 0.351698
vt 0.150241 0.352051
vt 0.884654 0.514125
vt 0.888675 0.506011
vt 0.892696 0.514125
vt 0.413453 0.492948
vt 0.421636 0.492728
vt 0.417766 0.501094
vt 0.307414 0.303187
vt 0.304119 0.116129
vt 0.413379 0.301087
vt 0.099189 0.108432
vt 0.154276 0.100000
vt 0.155657 0.109027
vt 0.100570 0.117459
vt 0.265706 0.304024
vt 0.263632 0.117086
vt 0.782608 0.890427
vt 0.781442 0.511384
vt 0.884905 0.896657
vt 0.783132 0.899460
vt 0.255693 0.502206
vt 0.310922 0.509657
vt 0.309701 0.518707
vt 0.254472 0.511256
vt 0.752010 0.890826
vt 0.750667 0.511032
vt 0.421636 0.300927
vt 0.178589 0.305891
vt 0.188771 0.467796
vt 0.181395 0.475283
vt 0.170989 0.306055
vt 0.311432 0.489929
vt 0.413158 0.502206
vt 0.310746 0.498975
vt 0.751794 0.899894
vt 0.116119 0.219280
vt 0.170989 0.210881
vt 0.781954 0.502275
vt 0.884898 0.504998
vt 0.211783 0.117621
vt 0.202307 0.117546
vt 0.195193 0.108937
vt 0.210800 0.108680
vt 0.303096 0.107111
vt 0.405389 0.100000
vt 0.688224 0.888673
vt 0.699691 0.898794
vt 0.683059 0.898021
vt 0.750436 0.501943
vt 0.263193 0.108085
vt 0.117285 0.251025
vt 0.168798 0.250812
vt 0.295966 0.620788
vt 0.295364 0.652549
vt 0.243856 0.653251
vt 0.240955 0.613366
vt 0.270968 0.490443
vt 0.270830 0.499465
vt 0.219074 0.491395
vt 0.209033 0.305239
vt 0.218225 0.500467
vt 0.158682 0.302769
vt 0.110184 0.302408
vt 0.303378 0.703798
vt 0.254894 0.705020
vt 0.307347 0.719129
vt 0.258841 0.720265
vt 0.181876 0.142262
vt 0.187824 0.124815
vt 0.645269 0.863788
vt 0.640464 0.881014
vt 0.627243 0.888655
vt 0.616172 0.889423
vt 0.155007 0.318081
vt 0.106488 0.317808
vt 0.209630 0.491665
vt 0.202291 0.500180
vt 0.103189 0.333309
vt 0.151693 0.333639
vt 0.174574 0.134879
vt 0.180215 0.117471
vt 0.180690 0.117009
vt 0.194554 0.109514
vt 0.661632 0.871720
vt 0.669971 0.863832
vt 0.674906 0.881089
vt 0.668403 0.889832
vt 0.310922 0.734569
vt 0.262431 0.735762
vt 0.148863 0.711951
vt 0.100359 0.711556
vt 0.099188 0.693147
vt 0.147687 0.693520
vt 0.187917 0.492815
vt 0.195107 0.484949
vt 0.673749 0.520944
vt 0.667200 0.512242
vt 0.668919 0.538218
vt 0.660534 0.530385
vt 0.657032 0.701046
vt 0.174073 0.135268
vt 0.614398 0.511740
vt 0.648366 0.701483
vt 0.429678 0.514355
vt 0.421636 0.514355
vt 0.425657 0.506242
vt 0.421636 0.492469
vt 0.429816 0.492689
vt 0.425505 0.500832
vt 0.632447 0.897941
vt 0.615869 0.898808
vt 0.681332 0.304825
vt 0.722828 0.305162
vt 0.722101 0.475890
vt 0.673603 0.475507
vt 0.429678 0.887831
vt 0.425657 0.895944
vt 0.421636 0.887831
vt 0.437067 0.109237
vt 0.428885 0.109147
vt 0.433067 0.100936
vt 0.535814 0.302898
vt 0.531799 0.489754
vt 0.429888 0.300895
vt 0.170989 0.509657
vt 0.226217 0.502206
vt 0.227438 0.511256
vt 0.172210 0.518707
vt 0.577521 0.303687
vt 0.572243 0.490376
vt 0.531610 0.511458
vt 0.532878 0.890566
vt 0.429419 0.505342
vt 0.531071 0.502446
vt 0.323761 0.502206
vt 0.379109 0.508713
vt 0.378042 0.517783
vt 0.322695 0.511275
vt 0.562142 0.510954
vt 0.563650 0.890914
vt 0.421636 0.300739
vt 0.664550 0.305333
vt 0.660996 0.141964
vt 0.668774 0.134968
vt 0.672139 0.305476
vt 0.538867 0.116025
vt 0.437705 0.100000
vt 0.539880 0.107016
vt 0.562297 0.501943
vt 0.185944 0.620788
vt 0.240955 0.613366
vt 0.532367 0.899674
vt 0.429435 0.896957
vt 0.624003 0.491867
vt 0.633457 0.492314
vt 0.640218 0.501186
vt 0.624633 0.500829
vt 0.532471 0.498794
vt 0.430104 0.501943
vt 0.625660 0.512263
vt 0.613835 0.502536
vt 0.629938 0.502701
vt 0.563882 0.900000
vt 0.572330 0.499374
vt 0.186546 0.652549
vt 0.238054 0.653251
vt 0.366051 0.620083
vt 0.365991 0.651850
vt 0.314502 0.653431
vt 0.310922 0.613601
vt 0.579305 0.116932
vt 0.579732 0.107943
vt 0.631084 0.117399
vt 0.634202 0.304759
vt 0.632053 0.108468
vt 0.227016 0.705020
vt 0.178532 0.703798
vt 0.374878 0.702955
vt 0.326422 0.705005
vt 0.379109 0.718216
vt 0.330628 0.720180
vt 0.654822 0.468451
vt 0.648198 0.485629
vt 0.223069 0.720265
vt 0.174563 0.719129
vt 0.640549 0.117310
vt 0.647640 0.108700
vt 0.720643 0.494279
vt 0.672139 0.493918
vt 0.219479 0.735762
vt 0.170989 0.734569
vt 0.661820 0.476107
vt 0.655504 0.493259
vt 0.655012 0.493701
vt 0.640879 0.500636
vt 0.652928 0.530778
vt 0.644600 0.538351
vt 0.639725 0.520353
vt 0.647662 0.512270
vt 0.645585 0.510718
vt 0.631041 0.503016
vt 0.672139 0.100000
vt 0.720657 0.100484
vt 0.723714 0.116034
vt 0.675210 0.115608
vt 0.724873 0.134444
vt 0.676375 0.134040
vt 0.648280 0.109274
vt 0.662140 0.116738
vt 0.655026 0.124547
vt 0.662615 0.117199
vt 0.668278 0.134577
vt 0.647001 0.889686
vt 0.653633 0.871592
vt 0.657032 0.701463
vt 0.662330 0.475735
vt 0.480000 0.503333
vt 0.480000 0.510000
vt 0.520000 0.510000
vt 0.520000 0.503333
vt 0.514263 0.490000
vt 0.485738 0.490000
vt 0.485738 0.514262
vt 0.514263 0.514262
vt 0.514263 0.485738
vt 0.485738 0.485738
vt 0.514262 0.490000
vt 0.485738 0.490000
s 1
usemtl fabric_1
f 1/1/1 8/2/2 9/3/3 15/4/4 13/5/5 5/6/6 11/7/7 4/8/8
f 23/9/9 27/10/10 21/11/11 25/12/12 17/13/13 29/14/14 19/15/15 31/16/16
f 6/17/17 20/18/17 30/19/18 12/20/18
f 32/25/21 14/26/21 16/27/22 24/28/22
f 28/29/23 24/30/22 16/31/22 10/32/23
f 14/33/21 32/34/21 20/35/17 6/36/17
f 7/37/24 22/38/24 28/39/23 10/40/23
f 18/41/25 3/42/25 12/43/18 30/44/18
f 8/45/2 1/46/1 2/47/26 7/48/27
f 13/49/5 15/50/4 16/51/28 14/52/29
f 7/53/30 10/54/31 9/55/3 8/56/2
f 4/57/8 11/58/7 12/59/32 3/60/33
f 6/61/34 12/62/32 11/63/7 5/64/6
f 1/65/1 4/66/8 3/67/35 2/68/26
f 15/69/4 9/70/3 10/71/31 16/72/28
f 14/73/29 6/74/34 5/75/6 13/76/5
f 24/77/36 28/78/37 27/79/10 23/80/9
f 26/81/38 18/82/39 17/83/13 25/84/12
f 18/85/39 30/86/40 29/87/14 17/88/13
f 32/89/41 24/90/36 23/91/9 31/92/16
f 22/93/42 26/94/38 25/95/12 21/96/11
f 21/97/11 27/98/10 28/99/37 22/100/42
f 19/101/15 29/102/14 30/103/40 20/104/43
f 31/105/16 19/106/15 20/107/43 32/108/41
f 26/109/20 2/110/20 3/111/44 18/112/44
f 55/117/17 43/118/17 37/119/21 48/120/21
f 51/121/46 40/122/46 44/123/18 54/124/18
f 47/125/47 49/126/22 36/127/22 34/128/47
f 33/129/48 34/128/49 35/130/48
f 36/127/50 37/119/51 38/131/52
f 39/132/53 40/122/54 41/133/55
f 42/134/56 43/118/57 44/123/58
f 45/135/59 46/136/59 47/125/60
f 48/120/61 49/126/62 50/137/63
f 51/121/64 52/138/65 53/139/66
f 54/124/67 55/117/68 56/140/69
f 41/141/55 33/142/48 35/143/48 39/144/53
f 34/128/70 36/127/50 38/145/52 35/146/70
f 37/119/51 43/118/57 42/147/56 38/148/52
f 53/139/20 41/133/20 40/122/46 51/121/46
f 43/118/17 55/117/17 54/124/18 44/123/18
f 45/149/59 53/150/66 52/151/65 46/152/59
f 55/117/68 48/120/61 50/153/63 56/154/69
f 49/126/62 47/125/71 46/155/71 50/156/63
f 33/129/45 45/135/45 47/125/24 34/128/24
f 48/120/21 37/119/21 36/127/22 49/126/22
f 51/121/64 54/124/67 56/140/69 52/138/65
f 39/132/53 42/134/56 44/123/58 40/122/54
f 123/157/72 98/158/73 61/159/74 120/160/75
f 58/161/23 122/162/76 60/163/77
f 57/164/48 58/161/78 59/165/79
f 60/163/50 61/159/80 62/166/81
f 67/167/82 68/168/83 113/169/83
f 69/170/84 70/171/62 71/172/85
f 58/161/78 60/163/50 62/173/81 59/174/79
f 98/158/86 66/175/87 65/176/87 99/177/88
f 102/178/89 69/170/84 71/179/85 103/180/90
f 70/171/62 113/169/83 68/181/83 71/182/85
f 120/160/75 61/159/74 60/163/77 122/162/76
f 114/183/91 75/184/92 76/185/93 112/186/94
f 113/169/23 112/186/94 76/185/93 58/161/23
f 115/187/95 104/188/96 75/184/92 114/183/91
f 110/189/97 94/190/98 78/191/99 106/192/100
f 105/193/23 109/194/101 77/195/102
f 108/196/48 105/193/78 68/197/79
f 77/195/50 78/191/80 71/198/81
f 89/199/59 80/200/103 90/201/83
f 81/202/84 82/203/62 83/204/85
f 93/205/27 108/206/48 68/207/79 101/208/27
f 105/193/78 77/195/50 71/209/81 68/210/79
f 94/190/86 79/211/87 73/212/87 103/213/88
f 64/214/27 57/215/48 59/216/79 63/217/27
f 95/218/89 81/202/84 83/219/85 96/220/104
f 82/203/62 90/201/83 80/221/103 83/222/85
f 106/192/100 78/191/99 77/195/102 109/194/101
f 118/223/75 91/224/92 92/225/93 117/226/76
f 108/196/24 89/199/24 90/201/23 105/193/23
f 90/201/23 117/226/76 92/225/93
f 119/227/72 97/228/96 91/224/92 118/223/75
f 116/229/105 88/230/105 97/228/96 119/227/72
f 85/231/106 95/218/89 96/220/104 86/232/106
f 78/191/80 94/190/86 103/213/88 71/233/81
f 107/234/107 79/211/108 94/190/98 110/189/97
f 111/235/109 74/236/105 104/188/96 115/187/95
f 72/237/106 102/178/89 103/180/90 73/238/106
f 67/239/110 100/240/110 101/241/110 68/242/110
f 61/159/80 98/158/86 99/177/88 62/243/81
f 121/244/105 66/175/111 98/158/73 123/157/72
f 88/230/105 107/234/107 110/189/97 97/228/96
f 91/224/92 106/192/100 109/194/101 92/225/93
f 90/201/23 92/225/93 109/194/101 105/193/23
f 97/228/96 110/189/97 106/192/100 91/224/92
f 72/237/112 111/235/109 115/187/95 102/178/113
f 102/178/113 115/187/95 114/183/91 69/170/114
f 113/169/23 70/171/115 112/186/94
f 69/170/114 114/183/91 112/186/94 70/171/115
f 57/164/24 67/167/24 113/169/23 58/161/23
f 85/231/116 116/229/105 119/227/72 95/218/117
f 95/218/117 119/227/72 118/223/75 81/202/118
f 90/201/23 82/203/119 117/226/76
f 81/202/118 118/223/75 117/226/76 82/203/119
f 74/236/105 121/244/105 123/157/72 104/188/96
f 75/184/92 120/160/75 122/162/76 76/185/93
f 58/161/23 76/185/93 122/162/76
f 104/188/96 123/157/72 120/160/75 75/184/92
f 89/245/59 87/246/110 84/247/110 80/248/103
f 127/249/120 148/250/121 150/251/122 128/252/59
f 139/253/123 129/254/124 128/255/71 134/256/125
f 145/257/126 136/258/127 140/259/128 151/260/129
f 124/261/130 125/262/131 126/263/48
f 152/264/132 151/260/129 140/259/128 133/265/133
f 127/266/120 128/267/59 129/254/134
f 139/253/123 137/268/135 125/262/136 129/254/124
f 134/269/137 128/270/137 150/271/138 152/250/138 133/272/137 135/273/137
f 144/274/139 126/275/140 130/276/140 132/277/140 131/278/140 147/279/139
f 124/261/130 127/266/120 129/254/134 125/262/131
f 125/262/136 137/268/135 130/284/142 126/285/70
f 137/268/135 139/253/123 141/286/143 138/287/144
f 138/287/144 141/286/143 140/259/128 136/258/127
f 139/253/123 134/288/125 135/289/145 141/286/143
f 141/286/143 135/290/145 133/291/133 140/259/128
f 136/258/127 131/292/146 132/293/147 138/287/144
f 138/287/144 132/294/147 130/295/142 137/268/135
f 142/296/141 124/297/130 126/298/48 144/299/148
f 143/300/149 146/301/149 153/302/150 149/303/150
f 136/258/127 145/257/126 147/304/151 131/305/146
f 142/306/141 144/307/148 143/300/152
f 147/308/151 145/257/126 146/301/153
f 143/300/152 149/303/154 148/309/121 142/306/141
f 150/310/122 148/309/121 149/303/154
f 151/260/129 152/311/132 153/302/155
f 144/312/139 147/313/139 146/301/149 143/300/149
f 145/257/126 151/260/129 153/302/155 146/301/153
f 152/314/138 150/315/138 149/303/150 153/302/150
f 157/249/120 178/250/121 180/251/122 158/252/59
f 169/253/123 159/254/124 158/255/71 164/256/125
f 175/257/126 166/258/127 170/259/128 181/260/129
f 154/261/130 155/262/131 156/263/48
f 182/264/132 181/260/129 170/259/128 163/265/133
f 157/266/120 158/267/59 159/254/134
f 169/253/123 167/268/135 155/262/136 159/254/124
f 164/269/137 158/270/137 180/271/138 182/250/138 163/272/137 165/273/137
f 174/274/139 156/275/140 160/276/140 162/277/140 161/278/140 177/279/139
f 154/261/130 157/266/120 159/254/134 155/262/131
f 155/262/136 167/268/135 160/284/142 156/285/70
f 167/268/135 169/253/123 171/286/143 168/287/144
f 168/287/144 171/286/143 170/259/128 166/258/127
f 169/253/123 164/288/125 165/289/145 171/286/143
f 171/286/143 165/290/145 163/291/133 170/259/128
f 166/258/127 161/292/146 162/293/147 168/287/144
f 168/287/144 162/294/147 160/295/142 167/268/135
f 172/296/141 154/297/130 156/298/48 174/299/148
f 173/300/149 176/301/149 183/302/150 179/303/150
f 166/258/127 175/257/126 177/304/151 161/305/146
f 172/306/141 174/307/148 173/300/152
f 177/308/151 175/257/126 176/301/153
f 173/300/152 179/303/154 178/309/121 172/306/141
f 180/310/122 178/309/121 179/303/154
f 181/260/129 182/311/132 183/302/155
f 174/312/139 177/313/139 176/301/149 173/300/149
f 175/257/126 181/260/129 183/302/155 176/301/153
f 182/314/138 180/315/138 179/303/150 183/302/150
f 249/320/156 208/321/157 213/322/158
f 184/323/159 185/324/160 186/325/161
f 187/326/162 188/327/163 189/328/164
f 208/321/165 227/329/166 238/330/167 216/331/168
f 252/332/169 250/333/170 232/334/171 236/335/172
f 190/336/173 191/337/174 192/338/175
f 193/339/176 194/340/177 195/341/178
f 246/342/179 198/343/180 188/327/181 244/344/182
f 185/345/160 187/346/162 189/347/164 186/348/161
f 247/349/183 207/350/184 198/343/180 246/342/179
f 196/351/185 200/352/185 190/336/46 184/323/46
f 196/351/186 184/323/159 186/353/161 197/354/187
f 194/355/177 192/356/175 191/357/174 195/358/178
f 212/359/188 209/360/189 200/352/185 196/351/185
f 244/344/182 188/327/181 187/326/190 245/361/24
f 251/362/191 230/363/192 241/364/193 252/365/169
f 202/366/194 193/339/176 195/367/178 203/368/195
f 212/359/196 196/351/186 197/354/187 204/369/197
f 197/370/187 186/348/161 189/347/164 199/371/198
f 190/336/173 200/352/199 201/372/200 191/373/174
f 206/374/201 224/375/202 235/376/203 215/377/204
f 188/327/163 198/343/205 199/378/198 189/379/164
f 220/380/206 213/322/207 205/381/208 233/382/209
f 200/352/199 209/360/210 217/383/211 201/372/200
f 198/343/205 207/350/212 214/384/213 199/378/198
f 204/385/197 197/370/187 199/371/198 214/386/213
f 201/387/200 217/388/211 210/389/214 203/390/195
f 218/391/215 202/366/194 203/368/195 210/392/214
f 191/357/174 201/387/200 203/390/195 195/358/178
f 184/323/46 190/336/46 192/338/44 185/324/44
f 247/349/183 218/391/216 219/393/217 248/394/218
f 212/359/196 204/369/197 205/381/208 213/322/207
f 218/391/215 210/392/214 211/395/219 219/393/220
f 204/385/197 214/386/213 215/396/204 205/397/208
f 208/321/165 216/331/168 217/383/211 209/360/210
f 206/374/201 215/377/204 214/384/213 207/350/212
f 216/398/168 211/399/219 210/389/214 217/388/211
f 216/398/168 238/400/167 242/401/221 211/399/219
f 248/394/218 251/362/222 223/402/223 225/403/223 224/375/223 206/374/224
f 295/404/225 297/405/226 296/406/225 277/407/227
f 205/397/208 215/396/204 235/408/203 233/409/209
f 229/410/228 219/393/220 211/395/219 242/411/221
f 236/335/172 232/334/171 234/412/229 237/413/230
f 237/413/230 234/412/229 233/409/209 235/408/203
f 223/402/231 236/414/172 237/415/230 225/403/232
f 225/403/232 237/416/230 235/417/203 224/375/202
f 232/418/171 221/419/233 222/420/234 234/421/229
f 234/421/229 222/420/234 220/380/206 233/382/209
f 242/401/221 238/400/167 240/422/235 243/423/236
f 243/424/236 240/425/235 239/426/237 241/427/193
f 229/410/228 242/411/221 243/428/236 231/429/238
f 231/429/238 243/428/236 241/364/193 230/363/192
f 238/330/167 227/329/166 228/430/239 240/431/235
f 240/431/235 228/430/239 226/432/240 239/433/237
f 249/320/241 221/419/233 232/418/171 250/434/170
f 207/350/184 247/349/183 248/394/218 206/374/224
f 193/339/242 244/344/182 245/361/24 194/340/243
f 218/391/216 247/349/183 246/342/179 202/366/244
f 202/366/244 246/342/179 244/344/182 193/339/242
f 226/432/240 249/320/241 250/434/170 239/433/237
f 223/402/231 251/362/191 252/365/169 236/435/172
f 241/427/193 239/426/237 250/333/170 252/332/169
f 229/410/245 231/429/245 230/363/245 251/362/222 248/394/218 219/393/217
f 282/436/246 318/437/247 277/407/227
f 253/438/159 254/439/160 255/440/161
f 256/441/162 257/442/163 258/443/164
f 277/407/165 296/406/166 307/444/167 285/445/168
f 321/446/169 319/447/170 301/448/171 305/449/172
f 259/450/173 260/451/174 261/452/175
f 262/453/176 263/454/177 264/455/178
f 315/456/179 267/457/180 257/442/181 313/458/182
f 254/459/160 256/460/162 258/461/164 255/462/161
f 316/463/183 276/464/184 267/457/180 315/456/179
f 265/465/185 269/466/185 259/450/46 253/438/46
f 265/465/186 253/438/159 255/467/161 266/468/187
f 263/469/177 261/470/175 260/471/174 264/472/178
f 281/473/188 278/474/189 269/466/185 265/465/185
f 313/458/182 257/442/181 256/441/190 314/475/24
f 320/476/191 299/477/192 310/478/193 321/479/169
f 271/480/194 262/453/176 264/481/178 272/482/195
f 281/473/196 265/465/186 266/468/187 273/483/197
f 266/484/187 255/462/161 258/461/164 268/485/198
f 259/450/173 269/466/199 270/486/200 260/487/174
f 275/488/201 293/489/202 304/490/203 284/491/204
f 257/442/163 267/457/205 268/492/198 258/493/164
f 289/494/206 282/436/207 274/495/208 302/496/209
f 269/466/199 278/474/210 286/497/211 270/486/200
f 267/457/205 276/464/212 283/498/213 268/492/198
f 273/499/197 266/484/187 268/485/198 283/500/213
f 270/501/200 286/502/211 279/503/214 272/504/195
f 287/505/215 271/480/194 272/482/195 279/506/214
f 260/471/174 270/501/200 272/504/195 264/472/178
f 253/438/46 259/450/46 261/452/44 254/439/44
f 316/463/183 287/505/216 288/507/217 317/508/218
f 281/473/196 273/483/197 274/495/208 282/436/207
f 287/505/215 279/506/214 280/509/219 288/507/220
f 273/499/197 283/500/213 284/510/204 274/511/208
f 277/407/165 285/445/168 286/497/211 278/474/210
f 275/488/201 284/491/204 283/498/213 276/464/212
f 285/512/168 280/513/219 279/503/214 286/502/211
f 285/512/168 307/514/167 311/515/221 280/513/219
f 317/508/218 320/476/222 292/516/223 294/517/223 293/489/223 275/488/224
f 318/437/247 295/404/225 277/407/227
f 274/511/208 284/510/204 304/518/203 302/519/209
f 298/520/228 288/507/220 280/509/219 311/521/221
f 305/449/172 301/448/171 303/522/229 306/523/230
f 306/524/230 303/525/229 302/519/209 304/518/203
f 292/516/231 305/526/172 306/527/230 294/517/232
f 294/517/232 306/528/230 304/529/203 293/489/202
f 301/530/171 290/531/233 291/532/234 303/533/229
f 303/534/229 291/532/234 289/494/206 302/535/209
f 311/536/221 307/537/167 309/538/235 312/539/236
f 312/539/236 309/538/235 308/540/237 310/541/193
f 298/520/228 311/542/221 312/543/236 300/544/238
f 300/544/238 312/545/236 310/546/193 299/477/192
f 307/444/167 296/406/166 297/405/239 309/547/235
f 309/547/235 297/405/239 295/404/240 308/548/237
f 318/437/241 290/531/233 301/530/171 319/549/170
f 276/464/184 316/463/183 317/508/218 275/488/224
f 262/453/242 313/458/182 314/475/24 263/454/243
f 287/505/216 316/463/183 315/456/179 271/480/244
f 271/480/244 315/456/179 313/458/182 262/453/242
f 295/404/240 318/437/241 319/549/170 308/548/237
f 292/516/231 320/476/191 321/479/169 305/550/172
f 310/541/193 308/540/237 319/447/170 321/446/169
f 298/520/245 300/544/245 299/477/245 320/476/222 317/508/218 288/507/217
f 289/494/248 291/532/248 290/531/249 282/436/246
f 278/474/189 281/473/188 282/436/246 277/407/227
f 226/432/250 228/430/251 227/329/252 208/321/157
f 249/320/156 226/432/250 208/321/157
f 249/320/156 213/322/158 221/419/253
f 213/322/158 220/380/254 222/420/254 221/419/253
f 282/436/246 290/531/249 318/437/247
f 209/360/189 212/359/188 213/322/158 208/321/157
usemtl wood_6
f 22/21/19 7/22/19 2/23/20 26/24/20
f 41/113/20 53/114/20 45/115/45 33/116/45
f 124/280/130 142/281/141 148/282/121 127/283/120
f 154/316/130 172/317/141 178/318/121 157/319/120
s 0
f 322/551/140 323/552/140 325/553/140 324/554/140
f 324/551/25 325/552/25 329/553/25 328/554/25
f 328/554/137 329/553/137 327/552/137 326/551/137
f 326/554/47 327/553/47 323/552/47 322/551/47
f 324/551/255 328/554/255 333/555/255 331/556/255
f 331/557/19 333/558/19 332/559/19 330/560/19
f 322/551/256 324/554/256 331/561/256 330/562/256
f 328/554/257 326/551/257 332/562/257 333/561/257
f 326/554/258 322/551/258 330/556/258 332/555/258
f 334/551/140 335/552/140 337/553/140 336/554/140
f 336/551/25 337/552/25 341/553/25 340/554/25
f 340/554/137 341/553/137 339/552/137 338/551/137
f 338/554/47 339/553/47 335/552/47 334/551/47
f 336/551/255 340/554/255 345/555/255 343/556/255
f 343/557/19 345/558/19 344/559/19 342/560/19
f 334/551/256 336/554/256 343/561/256 342/562/256
f 340/554/257 338/551/257 344/562/257 345/561/257
f 338/554/258 334/551/258 342/556/258 344/555/258
f 346/551/140 347/552/140 349/553/140 348/554/140
f 348/551/25 349/552/25 353/553/25 352/554/25
f 352/554/137 353/553/137 351/552/137 350/551/137
f 350/554/47 351/553/47 347/552/47 346/551/47
f 348/551/255 352/554/255 357/555/255 355/556/255
f 355/557/19 357/558/19 356/559/19 354/560/19
f 346/551/256 348/554/256 355/561/256 354/562/256
f 352/554/257 350/551/257 356/562/257 357/561/257
f 350/554/258 346/551/258 354/556/258 356/555/258
f 358/551/140 359/552/140 361/553/140 360/554/140
f 360/551/25 361/552/25 365/553/25 364/554/25
f 364/554/137 365/553/137 363/552/137 362/551/137
f 362/554/47 363/553/47 359/552/47 358/551/47
f 360/551/255 364/554/255 369/555/255 367/556/255
f 367/557/19 369/558/19 368/559/19 366/560/19
f 358/551/256 360/554/256 367/561/256 366/562/256
f 364/554/257 362/551/257 368/562/257 369/561/257
f 362/554/258 358/551/258 366/556/258 368/555/258
