# Blender 5.0.1
# www.blender.org
mtllib sofa_5_1.mtl
o sofa_5_1
v -0.968000 0.143000 0.967999
v -0.968000 0.165000 0.989999
v -0.990000 0.165000 0.967999
v -0.968000 0.341000 0.989999
v -0.968000 0.363000 0.967999
v -0.990000 0.341000 0.967999
v -0.990000 0.165000 0.087999
v -0.968000 0.165000 0.065999
v -0.968000 0.143000 0.087999
v -0.990000 0.341000 0.087999
v -0.968000 0.363000 0.087999
v -0.968000 0.341000 0.065999
v 0.968000 0.143000 0.967999
v 0.990000 0.165000 0.967999
v 0.968000 0.165000 0.989999
v 0.968000 0.363000 0.967999
v 0.968000 0.341000 0.989999
v 0.990000 0.341000 0.967999
v 0.968000 0.165000 0.065999
v 0.990000 0.165000 0.087999
v 0.968000 0.143000 0.087999
v 0.968000 0.341000 0.065999
v 0.968000 0.363000 0.087999
v 0.990000 0.341000 0.087999
v -0.946001 0.143000 0.946000
v -0.946001 0.143000 0.880000
v -0.880001 0.143000 0.946000
v -0.880001 0.143000 0.880000
v -0.958532 0.000000 0.958532
v -0.958532 0.000000 0.911467
v -0.911468 0.000000 0.958532
v -0.911468 0.000000 0.911467
v -0.946001 0.143000 0.109999
v -0.946001 0.143000 0.044000
v -0.880001 0.143000 0.109999
v -0.880001 0.143000 0.044000
v -0.958532 0.000000 0.078532
v -0.958532 0.000000 0.031467
v -0.911468 0.000000 0.078532
v -0.911468 0.000000 0.031467
v -0.990000 0.165000 0.031112
v -0.968000 0.143000 0.021999
v -0.968000 0.165000 -0.000001
v -0.990000 0.174113 0.021999
v -0.990000 0.726000 0.031112
v -0.968000 0.748000 0.021999
v -0.968000 0.143000 0.087999
v -0.990000 0.165000 0.078887
v -0.990000 0.174113 0.087999
v -0.968000 0.165000 0.109999
v -0.990000 0.716887 0.021999
v -0.968000 0.726000 -0.000000
v -0.990000 0.726000 0.078887
v -0.968000 0.748000 0.087999
v -0.990000 0.716887 0.087999
v -0.968000 0.726000 0.109999
v 0.990000 0.174113 0.021999
v 0.968000 0.165000 -0.000001
v 0.990000 0.726000 0.031112
v 0.968000 0.748000 0.021999
v 0.990000 0.165000 0.078887
v 0.968000 0.143000 0.087999
v 0.990000 0.716887 0.087999
v 0.968000 0.726000 0.109999
v 0.990000 0.165000 0.031112
v 0.968000 0.143000 0.021999
v 0.990000 0.174113 0.087999
v 0.968000 0.165000 0.109999
v 0.990000 0.716887 0.021999
v 0.968000 0.726000 -0.000000
v 0.990000 0.726000 0.078887
v 0.968000 0.748000 0.087999
v 0.879999 0.143000 0.946000
v 0.879999 0.143000 0.880000
v 0.945999 0.143000 0.946000
v 0.945999 0.143000 0.880000
v 0.911467 0.000000 0.958532
v 0.911467 0.000000 0.911467
v 0.958532 0.000000 0.958532
v 0.958532 0.000000 0.911467
v 0.879999 0.143000 0.109999
v 0.879999 0.143000 0.044000
v 0.945999 0.143000 0.109999
v 0.945999 0.143000 0.044000
v 0.911467 0.000000 0.078532
v 0.911467 0.000000 0.031467
v 0.958532 0.000000 0.078532
v 0.958532 0.000000 0.031467
v -0.968000 0.363000 0.946001
v -0.968000 0.385000 0.968001
v -0.990000 0.385000 0.946001
v -0.968000 0.495000 0.968001
v -0.968000 0.517000 0.946001
v -0.990000 0.495000 0.946001
v -0.990000 0.385000 0.154001
v -0.968000 0.385000 0.132001
v -0.968000 0.363000 0.154001
v -0.990000 0.528000 0.154001
v -0.968000 0.550000 0.154001
v -0.968000 0.528000 0.132001
v 0.000000 0.363000 0.946001
v 0.000000 0.363000 0.154001
v -0.505000 0.363000 0.154001
v -0.505000 0.385000 0.132001
v -0.505000 0.550000 0.154001
v -0.505000 0.528000 0.132001
v -0.505000 0.363000 0.946001
v -0.505000 0.385000 0.968001
v -0.505000 0.517000 0.946001
v -0.505000 0.495000 0.968001
v 0.000000 0.363000 0.715001
v -0.505000 0.550000 0.715001
v -0.968000 0.363000 0.715001
v -0.990000 0.385000 0.715001
v -0.968000 0.550000 0.715001
v -0.990000 0.528000 0.715001
v -0.796500 0.363000 0.154001
v -0.796500 0.544500 0.132001
v -0.796500 0.363000 0.946001
v -0.796500 0.511500 0.968001
v -0.796500 0.566500 0.715001
v -0.213500 0.385000 0.132001
v -0.213500 0.566500 0.154001
v -0.213500 0.363000 0.946001
v -0.213500 0.511500 0.968001
v -0.213500 0.363000 0.154001
v -0.213500 0.544500 0.132001
v -0.213500 0.385000 0.968001
v -0.213500 0.533500 0.946001
v -0.213500 0.566500 0.715001
v -0.796500 0.385000 0.968001
v -0.796500 0.533500 0.946001
v -0.796500 0.385000 0.132001
v -0.796500 0.566500 0.154001
v 0.968000 0.363000 0.946001
v 0.990000 0.385000 0.946001
v 0.968000 0.385000 0.968001
v 0.968000 0.517000 0.946001
v 0.968000 0.495000 0.968001
v 0.990000 0.495000 0.946001
v 0.968000 0.385000 0.132001
v 0.990000 0.385000 0.154001
v 0.968000 0.363000 0.154001
v 0.968000 0.528000 0.132001
v 0.968000 0.550000 0.154001
v 0.990000 0.528000 0.154001
v 0.495000 0.363000 0.154001
v 0.495000 0.385000 0.132001
v 0.495000 0.550000 0.154001
v 0.495000 0.528000 0.132001
v 0.495000 0.363000 0.946001
v 0.495000 0.385000 0.968001
v 0.495000 0.517000 0.946001
v 0.495000 0.495000 0.968001
v 0.968000 0.363000 0.715001
v 0.990000 0.385000 0.715001
v 0.968000 0.550000 0.715001
v 0.990000 0.528000 0.715001
v 0.495000 0.550000 0.715001
v 0.203500 0.363000 0.154001
v 0.203500 0.544500 0.132001
v 0.203500 0.363000 0.946001
v 0.203500 0.511500 0.968001
v 0.203500 0.566500 0.715001
v 0.786500 0.385000 0.132001
v 0.786500 0.566500 0.154001
v 0.786500 0.363000 0.946001
v 0.786500 0.511500 0.968001
v 0.786500 0.363000 0.154001
v 0.786500 0.544500 0.132001
v 0.786500 0.385000 0.968001
v 0.786500 0.533500 0.946001
v 0.786500 0.566500 0.715001
v 0.203500 0.385000 0.968001
v 0.203500 0.533500 0.946001
v 0.203500 0.385000 0.132001
v 0.203500 0.566500 0.154001
v 0.022000 0.578752 0.108448
v 0.022000 0.561000 0.126201
v 0.000000 0.578752 0.126201
v 0.022000 0.561000 0.298714
v 0.022000 0.578752 0.316466
v 0.000000 0.578752 0.298714
v 0.968000 0.578752 0.108448
v 0.990000 0.578752 0.126201
v 0.968000 0.561000 0.126201
v 0.968000 0.578752 0.316466
v 0.968000 0.561000 0.298714
v 0.990000 0.578752 0.298714
v 0.022000 0.677600 0.108448
v 0.000000 0.677600 0.126087
v 0.022000 0.677600 0.315558
v 0.000000 0.677600 0.297920
v 0.968000 0.677600 0.108448
v 0.990000 0.677600 0.126087
v 0.968000 0.677600 0.315558
v 0.990000 0.677600 0.297920
v 0.000000 0.775286 0.114787
v 0.000000 0.929190 0.068991
v 0.022000 0.956942 0.234613
v 0.022000 0.802682 0.289666
v 0.968000 0.925185 0.051635
v 0.968000 0.771383 0.097704
v 0.990000 0.798760 0.272513
v 0.990000 0.953008 0.217224
v 0.022000 0.771383 0.097704
v 0.022000 0.925185 0.051635
v 0.000000 0.798760 0.272513
v 0.000000 0.953008 0.217224
v 0.990000 0.929190 0.068991
v 0.990000 0.775286 0.114787
v 0.968000 0.802682 0.289666
v 0.968000 0.956942 0.234613
v 0.022000 0.955518 0.037439
v 0.098809 1.010364 0.011771
v 0.044497 0.994300 0.019289
v 0.098993 1.042121 0.194749
v 0.022000 0.984060 0.221922
v 0.044550 1.025115 0.202707
v 0.891191 1.010364 0.011771
v 0.968000 0.955518 0.037439
v 0.945503 0.994300 0.019289
v 0.968000 0.984060 0.221922
v 0.891007 1.042121 0.194749
v 0.945450 1.025115 0.202707
v 0.076605 1.031706 0.027158
v 0.000000 0.974581 0.050469
v 0.022437 1.014974 0.033986
v 0.000000 0.998142 0.198807
v 0.076670 1.055523 0.175392
v 0.022456 1.038717 0.182250
v 0.990000 0.974581 0.050469
v 0.913395 1.031706 0.027158
v 0.967564 1.014974 0.033986
v 0.913330 1.055523 0.175392
v 0.990000 0.998142 0.198807
v 0.967544 1.038717 0.182250
v 0.495000 0.578752 0.294466
v 0.495000 0.561000 0.276714
v 0.495000 0.677600 0.293558
v 0.495000 0.802682 0.267666
v 0.495000 0.967942 0.212613
v 0.495000 1.021364 0.011771
v 0.495000 1.042706 0.027158
v 0.495000 1.053121 0.172749
v 0.495000 1.066523 0.153392
v 0.495000 0.578752 0.108448
v 0.495000 0.561000 0.126201
v 0.495000 0.677600 0.108448
v 0.495000 0.771383 0.097704
v 0.495000 0.936185 0.051635
v -0.968000 0.578752 0.108448
v -0.968000 0.561000 0.126201
v -0.990000 0.578752 0.126201
v -0.968000 0.561000 0.298714
v -0.968000 0.578752 0.316466
v -0.990000 0.578752 0.298714
v -0.022000 0.578752 0.108448
v -0.022000 0.561000 0.126201
v -0.022000 0.578752 0.316466
v -0.022000 0.561000 0.298714
v -0.968000 0.677600 0.108448
v -0.990000 0.677600 0.126087
v -0.968000 0.677600 0.315558
v -0.990000 0.677600 0.297920
v -0.022000 0.677600 0.108448
v -0.022000 0.677600 0.315558
v -0.990000 0.775286 0.114787
v -0.990000 0.929190 0.068991
v -0.968000 0.956942 0.234613
v -0.968000 0.802682 0.289666
v -0.022000 0.925185 0.051635
v -0.022000 0.771383 0.097704
v -0.968000 0.771383 0.097704
v -0.968000 0.925185 0.051635
v -0.990000 0.798760 0.272513
v -0.990000 0.953008 0.217224
v -0.022000 0.802682 0.289666
v -0.022000 0.956942 0.234613
v -0.968000 0.955518 0.037439
v -0.891191 1.010364 0.011771
v -0.945503 0.994300 0.019289
v -0.891007 1.042121 0.194749
v -0.968000 0.984060 0.221922
v -0.945450 1.025115 0.202707
v -0.098809 1.010364 0.011771
v -0.022000 0.955518 0.037439
v -0.044497 0.994300 0.019289
v -0.022000 0.984060 0.221922
v -0.098993 1.042121 0.194749
v -0.044550 1.025115 0.202707
v -0.913395 1.031706 0.027158
v -0.990000 0.974581 0.050469
v -0.967563 1.014974 0.033986
v -0.990000 0.998142 0.198807
v -0.913330 1.055523 0.175392
v -0.967544 1.038717 0.182250
v -0.076605 1.031706 0.027158
v -0.022436 1.014974 0.033986
v -0.076670 1.055523 0.175392
v -0.022456 1.038717 0.182250
v -0.505000 0.578752 0.294466
v -0.505000 0.561000 0.276714
v -0.505000 0.677600 0.293558
v -0.505000 0.802682 0.267666
v -0.505000 0.967942 0.212613
v -0.505000 1.021364 0.011771
v -0.505000 1.042706 0.027158
v -0.505000 1.053121 0.172749
v -0.505000 1.066523 0.153392
v -0.505000 0.578752 0.108448
v -0.505000 0.561000 0.126201
v -0.505000 0.677600 0.108448
v -0.505000 0.771383 0.097704
v -0.505000 0.936185 0.051635
v 1.011998 0.657104 -0.000001
v 0.989998 0.660000 0.021987
v 1.021512 0.692612 -0.000001
v 1.001906 0.704440 0.021984
v 1.034438 0.736972 0.021979
v 1.045386 0.716486 -0.000001
v 1.134483 0.627388 -0.000001
v 1.155847 0.615561 0.021954
v 1.123315 0.583029 0.021952
v 1.101174 0.594078 -0.000001
v 1.077998 0.725224 -0.000001
v 1.078877 0.748879 0.021973
v 1.167755 0.660000 0.021956
v 1.143222 0.660000 -0.000001
v 1.123316 0.736971 0.021967
v 1.110610 0.716486 -0.000001
v 1.155847 0.704439 0.021961
v 1.134483 0.692612 -0.000001
v 0.989998 0.143000 0.021990
v 1.034438 0.143000 0.021992
v 1.011998 0.165000 -0.000001
v 1.044998 0.652759 0.990001
v 0.989998 0.660000 0.935022
v 1.006107 0.657879 0.973894
v 1.084028 0.724242 0.990001
v 1.054359 0.771478 0.935057
v 1.063546 0.758503 0.973907
v 1.007243 0.724361 0.935037
v 1.056876 0.697090 0.989996
v 1.021913 0.716870 0.973898
v 1.247452 0.660000 0.935151
v 1.195301 0.660000 0.990019
v 1.234161 0.660000 0.973950
v 1.137123 0.574670 0.990038
v 1.183090 0.548518 0.935170
v 1.171114 0.555319 0.973963
v 1.230207 0.595636 0.935162
v 1.185363 0.622909 0.990023
v 1.218923 0.603128 0.973956
v 1.118722 0.788724 0.935081
v 1.121119 0.734181 0.990006
v 1.120417 0.773742 0.973918
v 1.185362 0.697090 0.990015
v 1.230205 0.724363 0.935132
v 1.218922 0.716871 0.973941
v 1.158210 0.724243 0.990010
v 1.183086 0.771479 0.935107
v 1.177289 0.758504 0.973930
v 0.989998 0.143000 0.935011
v 1.028917 0.198000 0.989989
v 1.006107 0.159109 0.973885
v 1.054357 0.143000 0.935002
v 1.042693 0.159109 0.973883
v -1.011998 0.657104 -0.000001
v -0.989998 0.660000 0.021987
v -1.021512 0.692612 -0.000001
v -1.001906 0.704440 0.021984
v -1.034438 0.736972 0.021979
v -1.045386 0.716486 -0.000001
v -1.134483 0.627388 -0.000001
v -1.155847 0.615561 0.021954
v -1.123315 0.583029 0.021952
v -1.101174 0.594078 -0.000001
v -1.077998 0.725224 -0.000001
v -1.078877 0.748879 0.021973
v -1.167755 0.660000 0.021956
v -1.143222 0.660000 -0.000001
v -1.123316 0.736971 0.021967
v -1.110610 0.716486 -0.000001
v -1.155847 0.704439 0.021961
v -1.134483 0.692612 -0.000001
v -0.989998 0.143000 0.021990
v -1.034438 0.143000 0.021992
v -1.011998 0.165000 -0.000001
v -1.044998 0.652759 0.990001
v -0.989998 0.660000 0.935022
v -1.006107 0.657879 0.973894
v -1.084028 0.724242 0.990001
v -1.054359 0.771478 0.935057
v -1.063546 0.758503 0.973907
v -1.007243 0.724361 0.935037
v -1.056876 0.697090 0.989996
v -1.021913 0.716870 0.973898
v -1.247452 0.660000 0.935151
v -1.195301 0.660000 0.990019
v -1.234161 0.660000 0.973950
v -1.137123 0.574670 0.990038
v -1.183090 0.548518 0.935170
v -1.171114 0.555319 0.973963
v -1.230207 0.595636 0.935162
v -1.185363 0.622909 0.990023
v -1.218923 0.603128 0.973956
v -1.118722 0.788724 0.935081
v -1.121119 0.734181 0.990006
v -1.120417 0.773742 0.973918
v -1.185362 0.697090 0.990015
v -1.230205 0.724363 0.935132
v -1.218922 0.716871 0.973941
v -1.158210 0.724243 0.990010
v -1.183086 0.771479 0.935107
v -1.177289 0.758504 0.973930
v -0.989998 0.143000 0.935011
v -1.028917 0.198000 0.989989
v -1.006107 0.159109 0.973885
v -1.054357 0.143000 0.935002
v -1.042693 0.159109 0.973883
vn -0.0000 -1.0000 -0.0000
vn -0.0000 1.0000 -0.0000
vn -0.0000 0.9239 0.3827
vn -0.0000 -0.3827 -0.9239
vn -0.0000 0.3827 -0.9239
vn -0.0000 -0.3827 0.9239
vn -0.0000 0.3827 0.9239
vn -0.6861 -0.6861 0.2418
vn -0.6861 -0.2418 0.6861
vn -0.8756 -0.3416 0.3416
vn -0.6861 0.2418 0.6861
vn -0.6861 0.6861 0.2418
vn -0.8756 0.3416 0.3416
vn -0.8756 -0.3416 -0.3416
vn -0.6861 -0.2418 -0.6861
vn -0.6861 -0.6861 -0.2418
vn -0.8756 0.3416 -0.3416
vn -0.6861 0.6861 -0.2418
vn -0.6861 0.2418 -0.6861
vn 0.6861 -0.6861 0.2418
vn 0.8756 -0.3416 0.3416
vn 0.6861 -0.2418 0.6861
vn 0.6861 0.6861 0.2418
vn 0.6861 0.2418 0.6861
vn 0.8756 0.3416 0.3416
vn 0.6861 -0.2418 -0.6861
vn 0.8756 -0.3416 -0.3416
vn 0.6861 -0.6861 -0.2418
vn 0.6861 0.2418 -0.6861
vn 0.6861 0.6861 -0.2418
vn 0.8756 0.3416 -0.3416
vn -0.0000 -0.7071 -0.7071
vn -0.0000 0.7071 -0.7071
vn -0.0000 -0.7071 0.7071
vn -0.0000 -0.2149 -0.9766
vn -0.9962 0.0873 -0.0000
vn 0.9766 -0.2149 -0.0000
vn -0.0000 0.0873 0.9962
vn -0.0000 0.0873 -0.9962
vn -0.0000 -0.2149 0.9766
vn -0.8991 0.1675 -0.4044
vn -0.8991 0.1675 0.4044
vn -0.8991 0.4044 0.1675
vn -0.8991 0.4044 -0.1675
vn 0.8991 -0.1675 0.4044
vn 0.8991 -0.4044 0.1675
vn 0.8991 -0.4044 -0.1675
vn 0.8991 -0.1675 -0.4044
vn -0.0000 0.9239 -0.3827
vn -0.0000 -0.9239 -0.3827
vn -0.0000 -0.0000 -1.0000
vn -0.8991 -0.4044 0.1675
vn -0.8991 -0.4044 -0.1675
vn -0.7345 -0.6269 -0.2597
vn -0.7071 -0.7071 -0.0000
vn -0.7345 0.2597 0.6269
vn -0.7345 0.6269 0.2597
vn -0.7071 -0.5000 0.5000
vn -0.7345 -0.2597 0.6269
vn -0.8991 -0.1675 0.4044
vn -0.8991 -0.1675 -0.4044
vn -0.7345 0.2597 -0.6269
vn -0.7071 -0.0000 -0.7071
vn -0.7345 0.6269 -0.2597
vn -0.7071 -0.5000 -0.5000
vn 0.7345 0.2597 0.6269
vn 0.7345 -0.2597 0.6269
vn 0.8991 0.1675 0.4044
vn 0.7345 -0.6269 -0.2597
vn 0.7345 -0.2597 -0.6269
vn 0.7345 0.2597 -0.6269
vn 0.8991 0.1675 -0.4044
vn 0.7345 0.6269 0.2597
vn 0.8991 0.4044 0.1675
vn 0.7345 -0.6269 0.2597
vn 0.8991 0.4044 -0.1675
vn 0.7345 0.6269 -0.2597
vn -0.9766 -0.2149 -0.0000
vn 0.9962 0.0873 -0.0000
vn 0.0219 0.9973 0.0708
vn -0.0955 0.9929 0.0709
vn -0.0854 0.8872 0.4534
vn 0.0197 0.8956 0.4444
vn -0.0348 0.3622 -0.9315
vn 0.0083 0.3897 -0.9209
vn 0.0083 0.3898 0.9209
vn -0.0348 0.3622 0.9315
vn -0.6760 0.6760 0.2934
vn -0.8740 0.3210 0.3649
vn -0.9239 -0.3827 -0.0000
vn -0.7063 0.7063 0.0487
vn -0.9174 0.3968 0.0291
vn 0.0290 0.9971 0.0708
vn 0.0102 0.9974 0.0707
vn 0.0092 0.8970 0.4419
vn 0.0257 0.8952 0.4449
vn 0.0042 0.3964 0.9181
vn 0.0111 0.3885 0.9214
vn -0.0000 0.8921 0.4518
vn -0.0000 0.3708 0.9287
vn 0.0156 0.7070 -0.7070
vn -0.0000 0.3708 -0.9287
vn 0.0042 0.3964 -0.9181
vn -0.0000 0.9975 0.0711
vn 0.0103 0.9999 -0.0000
vn 0.0219 0.9998 -0.0000
vn -0.0958 0.9954 -0.0000
vn 0.0295 0.9996 -0.0000
vn 0.0115 0.3882 -0.9215
vn 0.0070 0.7071 -0.7071
vn 0.0206 0.7070 -0.7070
vn -0.0679 0.7055 -0.7055
vn 0.9239 -0.3827 -0.0000
vn 0.9174 0.3968 0.0291
vn 0.6760 0.6760 0.2934
vn 0.8740 0.3210 0.3649
vn 0.0117 0.7071 -0.7071
vn 0.0642 0.7057 -0.7057
vn 0.0330 0.3633 -0.9311
vn 0.0070 0.3977 -0.9175
vn 0.7071 -0.7071 -0.0000
vn 0.7063 0.7063 0.0487
vn 0.0152 0.8972 0.4414
vn 0.0070 0.3977 0.9175
vn 0.0170 0.9974 0.0706
vn 0.0171 0.9999 -0.0000
vn 0.0905 0.9959 -0.0000
vn 0.0903 0.9934 0.0709
vn 0.0807 0.8878 0.4532
vn 0.0330 0.3633 0.9311
vn -0.0000 -0.0570 -0.9984
vn -0.6041 -0.2687 -0.7502
vn -0.6049 -0.7497 -0.2685
vn -0.6923 -0.5102 -0.5103
vn -0.6049 -0.7497 0.2685
vn -0.6047 -0.2652 0.7510
vn -0.6935 -0.5071 0.5117
vn 0.6359 -0.2658 -0.7246
vn 0.6135 -0.1899 -0.7665
vn 0.8920 0.0772 -0.4454
vn 0.9093 -0.1410 -0.3915
vn -0.0000 0.9798 0.2000
vn -0.0000 0.8478 -0.5303
vn -0.1893 0.7978 -0.5725
vn -0.1517 0.9583 0.2422
vn 0.6041 -0.2687 -0.7502
vn 0.8451 -0.3780 -0.3780
vn 0.6049 -0.7497 -0.2685
vn 0.6047 -0.2652 0.7510
vn 0.6049 -0.7497 0.2685
vn 0.8452 -0.3762 0.3796
vn -0.0000 0.1068 0.9943
vn 0.0462 0.1060 0.9933
vn 0.0431 -0.3741 0.9264
vn -0.0000 -0.3825 0.9240
vn -0.0000 0.2653 0.9642
vn 0.0429 0.2641 0.9635
vn -0.0000 -0.1965 -0.9805
vn -0.0016 -0.1965 -0.9805
vn -0.6249 -0.0460 -0.7794
vn -0.6250 -0.0440 -0.7794
vn 0.0329 -0.7067 0.7067
vn -0.0000 0.8244 0.5660
vn 0.0407 0.7999 0.5988
vn 0.1517 0.9583 0.2422
vn 0.6258 0.0802 0.7758
vn 0.8908 0.0505 0.4515
vn -0.6251 -0.1562 -0.7648
vn -0.6251 -0.1574 -0.7645
vn 0.6249 -0.0460 -0.7794
vn 0.9075 -0.0237 -0.4194
vn -0.6143 0.2877 0.7348
vn -0.5333 0.4012 0.7448
vn -0.6738 0.5206 0.5244
vn -0.6129 0.2910 0.7346
vn -0.6258 0.0802 0.7758
vn -0.6256 0.0867 0.7753
vn -0.6135 -0.1899 -0.7665
vn -0.6359 -0.2658 -0.7246
vn -0.6350 -0.2618 -0.7268
vn -0.8124 0.0996 -0.5746
vn 0.6251 -0.1562 -0.7648
vn 0.9107 -0.0833 -0.4046
vn -0.6236 0.2107 0.7528
vn -0.6236 0.2128 0.7522
vn 0.8935 0.1222 0.4320
vn 0.6236 0.2107 0.7528
vn 0.0016 -0.1965 -0.9805
vn 0.0067 -0.3528 -0.9357
vn -0.0000 -0.3549 -0.9349
vn -0.0429 0.2641 0.9635
vn -0.0372 0.3676 0.9292
vn -0.0000 0.3700 0.9290
vn 0.8956 0.1638 0.4135
vn 0.6143 0.2877 0.7348
vn 0.8443 0.3775 0.3803
vn -0.0000 0.4113 0.9115
vn 0.0339 0.4110 0.9110
vn 0.0372 0.3676 0.9292
vn -0.0000 -0.4277 -0.9039
vn -0.0103 -0.4277 -0.9039
vn -0.0067 -0.3528 -0.9357
vn 0.5333 0.4012 0.7448
vn -0.6187 0.5533 -0.5577
vn -0.5603 0.7789 0.2818
vn -0.0407 0.7999 0.5988
vn -0.2651 0.6542 0.7084
vn -0.0865 0.5241 -0.8473
vn -0.3900 0.2104 -0.8965
vn 0.6187 0.5533 -0.5577
vn 0.5603 0.7789 0.2818
vn 0.1893 0.7978 -0.5725
vn 0.2651 0.6542 0.7084
vn 0.3899 0.2104 -0.8965
vn 0.0865 0.5241 -0.8473
vn -0.0000 0.5795 -0.8150
vn -0.0431 -0.3741 0.9264
vn -0.0329 -0.7067 0.7067
vn -0.0462 0.1060 0.9933
vn 0.0103 -0.4277 -0.9039
vn -0.0339 0.4110 0.9110
vn -0.8451 -0.3780 -0.3780
vn -0.8452 -0.3762 0.3796
vn 0.8124 0.0996 -0.5746
vn 0.6350 -0.2618 -0.7268
vn -0.0003 0.9798 0.2000
vn -0.0006 0.8478 -0.5303
vn -0.1896 0.7977 -0.5725
vn -0.1518 0.9582 0.2424
vn 0.6923 -0.5102 -0.5103
vn 0.6935 -0.5071 0.5117
vn 0.0010 0.1068 0.9943
vn 0.0472 0.1060 0.9932
vn 0.0440 -0.3740 0.9264
vn 0.0009 -0.3825 0.9240
vn 0.0009 0.2653 0.9642
vn 0.0439 0.2640 0.9635
vn -0.9075 -0.0237 -0.4194
vn 0.0336 -0.7067 0.7067
vn 0.0007 -0.7071 0.7071
vn 0.0002 0.8244 0.5660
vn 0.0408 0.7998 0.5988
vn 0.1515 0.9584 0.2421
vn 0.6256 0.0867 0.7753
vn -0.9107 -0.0833 -0.4046
vn -0.8908 0.0505 0.4516
vn 0.6250 -0.0440 -0.7794
vn -0.8443 0.3775 0.3803
vn -0.8956 0.1638 0.4135
vn -0.9093 -0.1410 -0.3915
vn -0.8920 0.0772 -0.4454
vn 0.6251 -0.1574 -0.7645
vn -0.8935 0.1222 0.4320
vn 0.6236 0.2128 0.7522
vn 0.0017 -0.1965 -0.9805
vn 0.0069 -0.3529 -0.9357
vn 0.0001 -0.3549 -0.9349
vn -0.0420 0.2641 0.9636
vn -0.0364 0.3678 0.9292
vn 0.0008 0.3700 0.9290
vn 0.6129 0.2910 0.7346
vn 0.0007 0.4113 0.9115
vn 0.0347 0.4107 0.9111
vn 0.0380 0.3674 0.9293
vn 0.0002 -0.4277 -0.9039
vn -0.0100 -0.4276 -0.9039
vn -0.0066 -0.3528 -0.9357
vn 0.6738 0.5206 0.5244
vn -0.0406 0.7999 0.5987
vn -0.0867 0.5240 -0.8473
vn 0.1891 0.7978 -0.5725
vn 0.3900 0.2104 -0.8965
vn 0.0862 0.5242 -0.8472
vn -0.0004 0.5795 -0.8150
vn -0.0422 -0.3742 0.9264
vn -0.0322 -0.7067 0.7067
vn -0.0452 0.1060 0.9933
vn 0.0105 -0.4277 -0.9038
vn -0.0332 0.4113 0.9109
vn -0.0072 0.9990 -0.0433
vn 0.0072 0.9990 -0.0439
vn 0.5043 0.8611 -0.0655
vn 0.4935 0.8673 -0.0651
vn 0.8667 -0.4949 -0.0621
vn 0.8668 -0.4948 -0.0621
vn 0.9674 -0.2490 -0.0469
vn -0.5053 0.8627 -0.0216
vn -0.4945 0.8689 -0.0220
vn 0.8613 -0.5015 -0.0811
vn 0.8649 -0.4953 -0.0812
vn 0.8649 0.4953 -0.0812
vn 0.8614 0.5015 -0.0811
vn -0.8678 0.4969 -0.0058
vn -0.8642 0.5031 -0.0059
vn 0.9962 -0.0000 -0.0869
vn -0.9914 0.1305 -0.0000
vn -0.0023 0.4160 -0.9094
vn 0.2039 0.3572 -0.9115
vn 0.3527 0.2049 -0.9130
vn -0.2121 0.3634 -0.9072
vn -0.3680 0.2111 -0.9055
vn -0.5992 0.3474 -0.7213
vn -0.3418 0.5965 -0.7262
vn 0.2557 -0.1377 -0.9569
vn 0.3526 -0.2048 -0.9131
vn 0.5797 -0.3332 -0.7436
vn 0.5736 -0.3156 -0.7558
vn 0.0025 0.6805 -0.7327
vn 0.3387 0.5824 -0.7390
vn 0.5798 0.3334 -0.7435
vn 0.4066 -0.0000 -0.9136
vn 0.6669 -0.0000 -0.7451
vn -0.4035 0.0531 -0.9134
vn -0.6979 0.0919 -0.7103
vn -0.0551 -0.2652 -0.9626
vn -0.4081 -0.4082 -0.8166
vn 0.3853 -0.4398 -0.8112
vn -1.0000 -0.0000 -0.0000
vn -0.4674 0.7994 0.3775
vn -0.7989 0.4579 0.3899
vn -0.6314 0.3665 0.6834
vn -0.3651 0.6385 0.6775
vn -0.1900 0.1101 0.9756
vn -0.1099 0.1915 0.9753
vn -0.9147 0.1204 0.3857
vn -0.6100 -0.6101 0.5056
vn -0.4860 -0.5132 0.7074
vn -0.7291 0.0952 0.6778
vn -0.0232 -0.1131 0.9933
vn -0.2289 0.0296 0.9730
vn 0.7988 -0.4906 0.3481
vn 0.8163 -0.4747 0.3291
vn 0.6555 -0.3762 0.6548
vn 0.6026 -0.3614 0.7115
vn 0.1952 -0.1121 0.9743
vn 0.1847 -0.1057 0.9771
vn 0.9460 0.0001 0.3241
vn 0.7578 0.0001 0.6525
vn 0.2256 0.0001 0.9742
vn 0.4652 0.8163 0.3423
vn -0.0059 0.9329 0.3601
vn 0.0036 0.7430 0.6692
vn 0.3779 0.6484 0.6609
vn 0.0006 0.2224 0.9750
vn 0.1124 0.1938 0.9746
vn 0.8163 0.4749 0.3290
vn 0.6555 0.3764 0.6548
vn 0.1951 0.1124 0.9743
vn 0.5312 -0.7234 0.4411
vn 0.4203 -0.6009 0.6799
vn 0.0072 0.9990 -0.0433
vn -0.4935 0.8673 -0.0651
vn -0.5043 0.8611 -0.0655
vn -0.0072 0.9990 -0.0439
vn -0.8667 -0.4949 -0.0621
vn -0.9674 -0.2490 -0.0469
vn -0.8668 -0.4948 -0.0621
vn 0.4945 0.8689 -0.0220
vn 0.5053 0.8627 -0.0216
vn -0.8649 -0.4953 -0.0812
vn -0.8613 -0.5015 -0.0811
vn -0.8614 0.5015 -0.0811
vn -0.8649 0.4953 -0.0812
vn 0.8642 0.5031 -0.0059
vn 0.8678 0.4969 -0.0058
vn -0.9962 -0.0000 -0.0869
vn 0.9914 0.1305 -0.0000
vn 0.0023 0.4160 -0.9094
vn -0.3527 0.2049 -0.9130
vn -0.2039 0.3572 -0.9115
vn 0.2121 0.3634 -0.9072
vn 0.3418 0.5965 -0.7262
vn 0.5992 0.3474 -0.7213
vn 0.3680 0.2111 -0.9055
vn -0.2557 -0.1377 -0.9569
vn -0.5736 -0.3156 -0.7558
vn -0.5797 -0.3332 -0.7436
vn -0.3526 -0.2048 -0.9131
vn -0.3387 0.5824 -0.7390
vn -0.0025 0.6805 -0.7327
vn -0.5798 0.3334 -0.7435
vn -0.4066 -0.0000 -0.9136
vn -0.6669 -0.0000 -0.7451
vn 0.6979 0.0919 -0.7103
vn 0.4035 0.0531 -0.9134
vn 0.4081 -0.4082 -0.8166
vn 0.0551 -0.2652 -0.9626
vn -0.3853 -0.4398 -0.8112
vn 1.0000 -0.0000 -0.0000
vn 0.4674 0.7994 0.3775
vn 0.3651 0.6385 0.6775
vn 0.6314 0.3665 0.6834
vn 0.7989 0.4579 0.3899
vn 0.1099 0.1915 0.9753
vn 0.1900 0.1101 0.9756
vn 0.9147 0.1204 0.3857
vn 0.7291 0.0952 0.6778
vn 0.4860 -0.5132 0.7074
vn 0.6100 -0.6101 0.5056
vn 0.2289 0.0296 0.9730
vn 0.0232 -0.1131 0.9933
vn -0.7988 -0.4906 0.3481
vn -0.6026 -0.3614 0.7115
vn -0.6555 -0.3762 0.6548
vn -0.8163 -0.4747 0.3291
vn -0.1793 -0.0638 0.9817
vn -0.1952 -0.1121 0.9743
vn -0.7578 0.0001 0.6525
vn -0.9460 0.0001 0.3241
vn -0.2256 0.0001 0.9742
vn -0.4652 0.8163 0.3423
vn -0.3779 0.6484 0.6609
vn -0.0036 0.7430 0.6692
vn 0.0059 0.9329 0.3601
vn -0.1124 0.1938 0.9746
vn -0.0006 0.2224 0.9750
vn -0.8163 0.4749 0.3290
vn -0.6555 0.3764 0.6548
vn -0.1951 0.1124 0.9743
vn -0.5312 -0.7234 0.4411
vn -0.4203 -0.6009 0.6799
vt 0.519394 0.253333
vt 1.692727 0.253333
vt 1.692727 0.786667
vt 0.519394 0.786667
vt 0.948889 0.895876
vt 0.351806 0.895876
vt 0.351806 0.624474
vt 0.948889 0.624475
vt 0.942810 0.962212
vt 0.354417 0.961529
vt 0.354034 0.905831
vt 0.942427 0.906514
vt 0.651707 0.558543
vt 0.650745 0.614753
vt 0.056729 0.614098
vt 0.057691 0.557888
vt 0.055543 0.547828
vt 0.047022 0.556038
vt 0.054641 0.624474
vt 0.046461 0.615990
vt 0.344276 0.963554
vt 0.352444 0.971815
vt 0.343425 0.904161
vt 0.626492 0.647702
vt 0.634672 0.656185
vt 0.624403 0.658078
vt 0.636803 0.528112
vt 0.634654 0.518055
vt 0.645323 0.519901
vt 0.926602 0.861625
vt 0.937212 0.863296
vt 0.928831 0.871580
vt 0.915915 1.000641
vt 0.917889 0.990356
vt 0.926056 0.998617
vt 0.324250 0.538006
vt 0.046461 0.538006
vt 0.046461 0.528185
vt 0.324250 0.528185
vt 0.342210 0.895876
vt 0.342210 0.624474
vt 0.946567 0.972048
vt 0.945769 0.961980
vt 0.945929 0.896108
vt 0.945387 0.906282
vt 0.046461 0.761219
vt 0.324251 0.761219
vt 0.324251 0.771040
vt 0.046461 0.771039
vt 0.858556 0.895877
vt 0.858556 0.624475
vt 0.868152 0.624475
vt 0.868153 0.895877
vt 0.582010 0.615542
vt 0.582627 0.556113
vt 0.593099 0.556119
vt 0.592476 0.615493
vt 0.655337 0.548051
vt 0.654691 0.558320
vt 0.654436 0.624698
vt 0.653730 0.614530
vt 0.874882 0.959413
vt 0.874100 0.900540
vt 0.884476 0.900389
vt 0.885254 0.959208
vt 0.910895 -0.475108
vt 0.910895 -0.515108
vt 0.819153 -0.496037
vt 0.819153 -0.467512
vt 0.826434 -0.467510
vt 0.826433 -0.496035
vt 0.797909 -0.496035
vt 0.797909 -0.467510
vt 0.976187 0.225749
vt 0.976186 0.185749
vt 0.885975 0.204819
vt 0.885975 0.233343
vt 1.064614 0.138873
vt 1.064613 0.178873
vt 0.972871 0.186468
vt 0.972871 0.157944
vt 0.911740 -0.515105
vt 0.911740 -0.475104
vt 0.821526 -0.467509
vt 0.821525 -0.496033
vt 0.910973 -0.600104
vt 0.910973 -0.640105
vt 0.820761 -0.621034
vt 0.820760 -0.592509
vt 0.826432 -0.592507
vt 0.826432 -0.621031
vt 0.797910 -0.621031
vt 0.797909 -0.592506
vt 0.976185 0.127416
vt 0.976185 0.087416
vt 0.885975 0.079819
vt 0.885975 0.108344
vt 1.064612 0.040543
vt 1.064612 0.080544
vt 0.972870 0.061471
vt 0.972870 0.032947
vt 0.911661 -0.640108
vt 0.911660 -0.600109
vt 0.819919 -0.592514
vt 0.819920 -0.621038
vt 0.649496 0.963529
vt 0.648646 0.904137
vt 0.945611 0.899885
vt 0.946461 0.959278
vt 0.047311 0.967806
vt 0.046461 0.908413
vt 0.554424 0.461925
vt 0.575694 0.462178
vt 0.572739 0.465200
vt 0.557352 0.464998
vt 0.597154 0.288971
vt 0.600129 0.285855
vt 0.615799 0.285922
vt 0.618825 0.289034
vt 0.238700 0.500000
vt 0.870714 0.500000
vt 0.870714 0.510157
vt 0.238700 0.510157
vt 0.870714 0.725000
vt 0.238700 0.725000
vt 0.238700 0.703454
vt 0.870714 0.703454
vt 0.870714 0.478454
vt 0.238700 0.478454
vt 0.238700 0.468297
vt 0.870714 0.468297
vt 0.870714 0.285157
vt 0.870714 0.468297
vt 0.238700 0.285157
vt 0.870714 0.478454
vt 0.870714 0.500000
vt 0.238700 0.275000
vt 0.870714 0.275000
vt 0.870714 0.285157
vt 0.870714 0.693297
vt 0.238700 0.693297
vt 0.870714 0.510157
vt 0.573429 0.285982
vt 0.557969 0.285808
vt 0.553370 0.275000
vt 0.578182 0.275545
vt 0.585682 0.467281
vt 0.577187 0.475410
vt 0.586788 0.284086
vt 0.576372 0.289137
vt 0.554751 0.288836
vt 0.544260 0.467210
vt 0.544260 0.283647
vt 0.553133 0.475589
vt 0.819108 0.460146
vt 0.819077 0.291045
vt 0.829269 0.293694
vt 0.829313 0.457511
vt 0.452836 0.461516
vt 0.461474 0.469752
vt 0.451573 0.475540
vt 0.447994 0.472128
vt 0.394239 0.296168
vt 0.395262 0.464489
vt 0.384918 0.462090
vt 0.383944 0.299011
vt 0.761096 0.301038
vt 0.753049 0.293088
vt 0.762668 0.287758
vt 0.766001 0.291052
vt 0.600946 0.517902
vt 0.624183 0.517719
vt 0.621189 0.528418
vt 0.604365 0.528552
vt 0.771456 0.462073
vt 0.768060 0.465456
vt 0.758131 0.460088
vt 0.766329 0.451922
vt 0.448555 0.288789
vt 0.452029 0.285436
vt 0.461844 0.290824
vt 0.453461 0.298921
vt 0.599436 0.229432
vt 0.615903 0.229520
vt 0.619073 0.239900
vt 0.596329 0.239777
vt 0.870714 0.693297
vt 0.600785 0.464990
vt 0.597852 0.461938
vt 0.619133 0.461971
vt 0.615999 0.464980
vt 0.910891 0.139915
vt 0.910891 0.099915
vt 0.819150 0.092318
vt 0.819150 0.120842
vt 0.826430 0.120844
vt 0.826430 0.092320
vt 0.797906 0.092320
vt 0.797906 0.120844
vt 0.929968 0.100746
vt 0.929968 0.060746
vt 0.838227 0.079819
vt 0.838227 0.108343
vt 0.921335 0.107623
vt 0.921335 0.147623
vt 0.831122 0.155218
vt 0.831121 0.126694
vt 0.903930 0.131166
vt 0.903930 0.171166
vt 0.837155 0.152093
vt 0.837155 0.123569
vt 0.910973 0.311791
vt 0.910973 0.271791
vt 0.820761 0.264194
vt 0.820760 0.292718
vt 0.826430 0.292718
vt 0.826430 0.264194
vt 0.797906 0.264194
vt 0.797906 0.292719
vt 0.929968 0.299287
vt 0.929968 0.259288
vt 0.838227 0.251694
vt 0.838227 0.280217
vt 0.921335 0.306164
vt 0.921335 0.346164
vt 0.831122 0.327093
vt 0.831122 0.298569
vt 0.903847 0.303040
vt 0.903847 0.343040
vt 0.835544 0.323968
vt 0.835544 0.295444
vt 0.402111 0.764205
vt 0.347507 0.763752
vt 0.347305 0.686776
vt 0.402020 0.686776
vt 0.565815 0.772844
vt 0.565475 0.720886
vt 0.523149 0.720854
vt 0.518605 0.772809
vt 0.402263 0.642107
vt 0.402304 0.676894
vt 0.349357 0.677472
vt 0.348323 0.645319
vt 0.345764 0.635324
vt 0.338000 0.644003
vt 0.347305 0.687050
vt 0.339859 0.679362
vt 0.642109 0.588816
vt 0.642110 0.595482
vt 0.648776 0.595483
vt 0.395852 0.589929
vt 0.389185 0.596595
vt 0.395852 0.596595
vt 0.708176 0.494579
vt 0.708179 0.424579
vt 0.701512 0.424580
vt 0.701510 0.494580
vt 0.340454 0.494579
vt 0.339239 0.664581
vt 0.345552 0.664581
vt 0.346770 0.494579
vt 0.573541 0.772918
vt 0.573542 0.720948
vt 0.566875 0.720948
vt 0.566874 0.772918
vt 0.563542 0.526100
vt 0.520208 0.526101
vt 0.520208 0.532768
vt 0.563541 0.532767
vt 0.563650 0.494583
vt 0.563542 0.424583
vt 0.530409 0.424583
vt 0.520704 0.494583
vt 0.730236 0.764205
vt 0.595435 0.764315
vt 0.595621 0.686776
vt 0.730145 0.686776
vt 0.595329 0.676894
vt 0.730429 0.676894
vt 0.498809 0.686776
vt 0.498812 0.676894
vt 0.401975 0.631881
vt 0.498827 0.632233
vt 0.498828 0.642574
vt 0.510769 0.406446
vt 0.512103 0.494721
vt 0.518157 0.494740
vt 0.516792 0.406466
vt 0.573542 0.582917
vt 0.573542 0.494584
vt 0.566876 0.494584
vt 0.566875 0.582917
vt 0.595478 0.642045
vt 0.563542 0.582917
vt 0.563224 0.494573
vt 0.520036 0.494578
vt 0.516052 0.582943
vt 0.498775 0.763788
vt 0.595678 0.949870
vt 0.498598 0.949870
vt 0.563458 0.664583
vt 0.563782 0.494583
vt 0.520995 0.494583
vt 0.520331 0.664583
vt 0.342942 0.398057
vt 0.338264 0.468112
vt 0.344651 0.468112
vt 0.349329 0.398057
vt 0.708187 0.664587
vt 0.708184 0.494587
vt 0.701518 0.494588
vt 0.701520 0.664587
vt 0.401921 0.949817
vt 0.347049 0.949716
vt 0.573542 0.494584
vt 0.573542 0.406250
vt 0.566875 0.406250
vt 0.566875 0.494584
vt 0.563590 0.494582
vt 0.563844 0.406241
vt 0.516659 0.406204
vt 0.520630 0.494570
vt 0.730388 0.642107
vt 0.730046 0.949817
vt 0.893940 0.772844
vt 0.563820 0.582925
vt 0.516678 0.582963
vt 0.846730 0.772809
vt 0.510527 0.583425
vt 0.840646 0.771242
vt 0.846476 0.771268
vt 0.516356 0.583399
vt 0.901666 0.772918
vt 0.573542 0.647614
vt 0.573542 0.582917
vt 0.566875 0.582917
vt 0.894999 0.772918
vt 0.595732 0.631881
vt 0.511401 0.494628
vt 0.510075 0.582881
vt 0.516108 0.582861
vt 0.517460 0.494609
vt 0.514361 0.719314
vt 0.512521 0.771242
vt 0.518351 0.771268
vt 0.520190 0.719340
vt 0.891667 0.494583
vt 0.891667 0.664583
vt 0.848333 0.664583
vt 0.848333 0.494583
vt 0.982718 0.635108
vt 0.990125 0.643155
vt 0.980567 0.644761
vt 0.982012 0.686776
vt 0.979610 0.676894
vt 0.989823 0.678537
vt 0.916109 0.662360
vt 0.916110 0.669027
vt 0.922776 0.662360
vt 0.825001 0.661251
vt 0.818335 0.661251
vt 0.825001 0.667917
vt 0.838652 0.583425
vt 0.840470 0.638427
vt 0.846300 0.638401
vt 0.844481 0.583399
vt 0.858125 0.671249
vt 0.688125 0.671249
vt 0.688125 0.677916
vt 0.858125 0.677916
vt 0.863152 0.671781
vt 0.933209 0.676052
vt 0.933209 0.682441
vt 0.863153 0.678167
vt 0.923857 0.631881
vt 0.923603 0.642045
vt 0.891666 0.674583
vt 0.848332 0.674583
vt 0.848332 0.681249
vt 0.891666 0.681249
vt 0.923746 0.686776
vt 0.826934 0.686776
vt 0.826937 0.676894
vt 0.923454 0.676894
vt 0.730100 0.631881
vt 0.826952 0.632233
vt 0.826953 0.642574
vt 0.838894 0.406446
vt 0.840228 0.494721
vt 0.846282 0.494740
vt 0.844917 0.406466
vt 0.901667 0.582917
vt 0.901667 0.494584
vt 0.895001 0.494584
vt 0.895000 0.582917
vt 0.891667 0.582917
vt 0.891349 0.494573
vt 0.848161 0.494578
vt 0.844177 0.582943
vt 0.923560 0.764315
vt 0.826900 0.763788
vt 0.923803 0.949870
vt 0.826723 0.949870
vt 0.688126 0.670638
vt 0.858125 0.672593
vt 0.858125 0.678854
vt 0.688125 0.677008
vt 0.928125 0.671250
vt 0.858125 0.671249
vt 0.858125 0.677916
vt 0.928125 0.677916
vt 0.891667 0.424583
vt 0.891667 0.494583
vt 0.848333 0.494583
vt 0.858333 0.424583
vt 0.901667 0.494584
vt 0.901667 0.406250
vt 0.895000 0.406250
vt 0.895000 0.494584
vt 0.891715 0.494582
vt 0.891969 0.406241
vt 0.844784 0.406204
vt 0.848755 0.494570
vt 0.982041 0.949768
vt 0.981726 0.763940
vt 0.891667 0.637917
vt 0.891945 0.582925
vt 0.844803 0.582963
vt 0.849247 0.637945
vt 0.901667 0.637917
vt 0.901667 0.582917
vt 0.895000 0.582917
vt 0.895000 0.637917
vt 0.839526 0.494628
vt 0.838200 0.582881
vt 0.844233 0.582861
vt 0.845585 0.494609
vt 0.345092 0.288068
vt 0.515477 0.287353
vt 0.512246 0.322028
vt 0.345432 0.324342
vt 0.181992 0.324327
vt 0.180987 0.332948
vt 0.172585 0.326769
vt 0.176777 0.337845
vt 0.178164 0.346735
vt 0.168074 0.344899
vt 0.514224 0.192684
vt 0.513038 0.180377
vt 0.523236 0.174263
vt 0.524799 0.192802
vt 0.121832 0.501790
vt 0.167866 0.501791
vt 0.168597 0.651771
vt 0.114797 0.651792
vt 0.521953 0.324257
vt 0.513483 0.330811
vt 0.512326 0.346512
vt 0.513750 0.337625
vt 0.522427 0.344716
vt 0.345000 0.379355
vt 0.176136 0.379898
vt 0.177827 0.345858
vt 0.345072 0.342783
vt 0.160529 0.837425
vt 0.099494 0.847247
vt 0.097885 0.837245
vt 0.158919 0.827424
vt 0.344903 0.426295
vt 0.175374 0.424804
vt 0.176092 0.379844
vt 0.344766 0.254625
vt 0.516483 0.252234
vt 0.177935 0.291779
vt 0.182452 0.325640
vt 0.172973 0.327998
vt 0.167717 0.293255
vt 0.099937 0.150000
vt 0.160971 0.159821
vt 0.159362 0.169823
vt 0.098327 0.160001
vt 0.345520 0.333834
vt 0.177808 0.345789
vt 0.176449 0.336897
vt 0.345091 0.333834
vt 0.344685 0.524305
vt 0.487214 0.516906
vt 0.495415 0.525376
vt 0.344667 0.532849
vt 0.513919 0.380533
vt 0.524031 0.380903
vt 0.175991 0.257235
vt 0.177902 0.291578
vt 0.167620 0.292981
vt 0.165741 0.257306
vt 0.526068 0.288458
vt 0.175858 0.482811
vt 0.175807 0.493525
vt 0.166382 0.501853
vt 0.165742 0.484001
vt 0.178606 0.345319
vt 0.176875 0.379914
vt 0.166770 0.380071
vt 0.168512 0.343657
vt 0.177026 0.185698
vt 0.176204 0.197983
vt 0.165818 0.198421
vt 0.166705 0.180073
vt 0.526893 0.251989
vt 0.176840 0.379571
vt 0.176129 0.424858
vt 0.166024 0.424983
vt 0.166736 0.379988
vt 0.153775 0.204801
vt 0.152211 0.240005
vt 0.095072 0.239331
vt 0.092981 0.195019
vt 0.514475 0.425482
vt 0.524578 0.425733
vt 0.175271 0.257031
vt 0.175445 0.198217
vt 0.344024 0.194014
vt 0.514432 0.483560
vt 0.344764 0.489973
vt 0.175995 0.256923
vt 0.165747 0.257027
vt 0.165727 0.198659
vt 0.176148 0.198194
vt 0.524578 0.484729
vt 0.175938 0.482922
vt 0.165791 0.484001
vt 0.166032 0.424875
vt 0.176132 0.424617
vt 0.159652 0.297063
vt 0.105852 0.297051
vt 0.163621 0.314176
vt 0.109798 0.314068
vt 0.202234 0.516265
vt 0.182877 0.509524
vt 0.175047 0.493393
vt 0.175168 0.482795
vt 0.343473 0.159575
vt 0.484755 0.161087
vt 0.504105 0.165910
vt 0.514500 0.494147
vt 0.523859 0.502587
vt 0.114799 0.651618
vt 0.168599 0.651597
vt 0.167151 0.672008
vt 0.113344 0.672054
vt 0.113344 0.670317
vt 0.167150 0.670272
vt 0.163623 0.687494
vt 0.109800 0.687603
vt 0.202285 0.516200
vt 0.193967 0.524533
vt 0.174216 0.517628
vt 0.182842 0.509356
vt 0.183196 0.509475
vt 0.174452 0.517611
vt 0.165912 0.501665
vt 0.175260 0.493217
vt 0.194761 0.157379
vt 0.203652 0.166160
vt 0.184539 0.171884
vt 0.175050 0.164618
vt 0.175519 0.164472
vt 0.185258 0.171460
vt 0.176698 0.186261
vt 0.166527 0.180497
vt 0.167149 0.331399
vt 0.113342 0.331353
vt 0.168597 0.351810
vt 0.114797 0.351789
vt 0.515237 0.518513
vt 0.506602 0.510251
vt 0.513528 0.158355
vt 0.493246 0.151627
vt 0.203461 0.166045
vt 0.194749 0.156980
vt 0.343306 0.150000
vt 0.175359 0.424754
vt 0.175166 0.482838
vt 0.202203 0.516292
vt 0.193972 0.524726
vt 0.181558 0.324963
vt 0.180575 0.333601
vt 0.175286 0.257086
vt 0.177198 0.291449
vt 0.177305 0.291415
vt 0.181506 0.325033
vt 0.176229 0.185990
vt 0.184566 0.171335
vt 0.203544 0.165854
vt 0.175577 0.198061
vt 0.519013 0.287307
vt 0.515840 0.322009
vt 0.185045 0.324968
vt 0.184040 0.333588
vt 0.175639 0.327410
vt 0.179999 0.336950
vt 0.181386 0.345840
vt 0.171296 0.344005
vt 0.517073 0.192391
vt 0.515798 0.179985
vt 0.526040 0.173919
vt 0.527604 0.192459
vt 0.168596 0.648189
vt 0.114795 0.648211
vt 0.515362 0.321286
vt 0.525069 0.323515
vt 0.516599 0.330069
vt 0.515546 0.347420
vt 0.516970 0.338532
vt 0.525647 0.345623
vt 0.179668 0.379837
vt 0.160972 0.840178
vt 0.099937 0.850000
vt 0.098328 0.839998
vt 0.159362 0.830177
vt 0.178940 0.424766
vt 0.520088 0.252216
vt 0.519105 0.287306
vt 0.180778 0.291395
vt 0.170488 0.292787
vt 0.099494 0.152753
vt 0.160528 0.162574
vt 0.158919 0.172576
vt 0.097884 0.162755
vt 0.515796 0.321965
vt 0.517010 0.330761
vt 0.490821 0.516936
vt 0.499018 0.525408
vt 0.516712 0.380621
vt 0.515110 0.346002
vt 0.525214 0.344379
vt 0.526821 0.380816
vt 0.178838 0.257017
vt 0.168597 0.257098
vt 0.153775 0.795198
vt 0.092981 0.804982
vt 0.514921 0.322641
vt 0.518404 0.287657
vt 0.528922 0.288853
vt 0.524701 0.324780
vt 0.178744 0.482824
vt 0.178632 0.493407
vt 0.169238 0.501804
vt 0.168597 0.483949
vt 0.169559 0.380168
vt 0.179764 0.185987
vt 0.179025 0.198173
vt 0.168597 0.198661
vt 0.169483 0.180313
vt 0.518432 0.287452
vt 0.519383 0.252365
vt 0.529808 0.252110
vt 0.529006 0.288567
vt 0.168839 0.424976
vt 0.152211 0.759994
vt 0.095072 0.760669
vt 0.517286 0.425586
vt 0.516748 0.380278
vt 0.526856 0.380734
vt 0.527394 0.425750
vt 0.518056 0.425486
vt 0.518012 0.483590
vt 0.517284 0.425345
vt 0.527387 0.425643
vt 0.527385 0.484792
vt 0.517239 0.483671
vt 0.105851 0.702949
vt 0.159651 0.702936
vt 0.517137 0.192602
vt 0.527708 0.192699
vt 0.529784 0.251823
vt 0.519369 0.252048
vt 0.205810 0.516278
vt 0.186457 0.509541
vt 0.488260 0.160864
vt 0.507641 0.165732
vt 0.516604 0.180259
vt 0.517701 0.192448
vt 0.109797 0.685932
vt 0.163620 0.685823
vt 0.517324 0.494277
vt 0.517320 0.483559
vt 0.527434 0.484792
vt 0.526716 0.502648
vt 0.167148 0.668601
vt 0.113341 0.668646
vt 0.197575 0.524709
vt 0.177789 0.517762
vt 0.198290 0.156896
vt 0.207018 0.165954
vt 0.188072 0.171394
vt 0.178500 0.164268
vt 0.109801 0.312396
vt 0.163624 0.312505
vt 0.167152 0.329728
vt 0.113345 0.329682
vt 0.113345 0.327946
vt 0.167152 0.327991
vt 0.168600 0.348403
vt 0.114800 0.348382
vt 0.517873 0.493971
vt 0.527187 0.502462
vt 0.518576 0.518376
vt 0.509865 0.510199
vt 0.510219 0.510082
vt 0.518811 0.518393
vt 0.499024 0.525216
vt 0.490740 0.516844
vt 0.526234 0.174341
vt 0.516150 0.180543
vt 0.506954 0.165875
vt 0.516552 0.158453
vt 0.517029 0.158584
vt 0.507696 0.166276
vt 0.488164 0.161176
vt 0.496833 0.151987
vt 0.515905 0.346476
vt 0.517302 0.337587
vt 0.518041 0.425534
vt 0.517495 0.380555
vt 0.517451 0.380608
vt 0.515886 0.346544
vt 0.488341 0.161050
vt 0.496817 0.151584
vt 0.114798 0.348207
vt 0.168599 0.348228
vt 0.520085 0.252134
vt 0.517848 0.192623
vt 0.518085 0.494148
vt 0.510182 0.510249
vt 0.490791 0.516909
vt 0.518009 0.483547
vt 0.664480 0.635765
vt 0.506972 0.495397
vt 0.209046 0.496183
vt 0.208312 0.474496
vt 0.506473 0.480423
vt 0.510359 0.420689
vt 0.213913 0.387979
vt 0.226541 0.250000
vt 0.522886 0.275034
vt 0.507809 0.510357
vt 0.210268 0.517849
vt 0.508425 0.435546
vt 0.211115 0.409497
vt 0.225097 0.729093
vt 0.521696 0.708201
vt 0.522712 0.722637
vt 0.226573 0.750000
vt 0.208312 0.452796
vt 0.506481 0.465441
vt 0.508815 0.525305
vt 0.211734 0.539498
vt 0.209225 0.431115
vt 0.507117 0.450472
vt 0.509866 0.540251
vt 0.213263 0.561144
vt 0.561336 0.658810
vt 0.550551 0.659502
vt 0.540895 0.654613
vt 0.570383 0.652727
vt 0.575408 0.642864
vt 0.586024 0.645833
vt 0.578218 0.660490
vt 0.540086 0.619964
vt 0.533939 0.634432
vt 0.522886 0.633155
vt 0.528708 0.618238
vt 0.564262 0.669466
vt 0.547756 0.670219
vt 0.533249 0.662636
vt 0.534792 0.645481
vt 0.524406 0.649144
vt 0.575161 0.630657
vt 0.586067 0.629265
vt 0.533680 0.484963
vt 0.540148 0.473333
vt 0.522886 0.477126
vt 0.713637 0.576200
vt 0.703458 0.553591
vt 0.717731 0.550951
vt 0.725702 0.567774
vt 0.731628 0.548546
vt 0.736416 0.559732
vt 0.703632 0.528328
vt 0.764849 0.352049
vt 0.777289 0.362525
vt 0.718976 0.530661
vt 0.782279 0.379363
vt 0.733244 0.533629
vt 0.804641 0.519060
vt 0.807847 0.544621
vt 0.793225 0.543967
vt 0.788241 0.520108
vt 0.779281 0.543781
vt 0.772647 0.521532
vt 0.801365 0.569450
vt 0.787919 0.561916
vt 0.776672 0.555927
vt 0.758619 0.596725
vt 0.733436 0.592019
vt 0.740360 0.578950
vt 0.758441 0.581927
vt 0.745964 0.566893
vt 0.757662 0.568909
vt 0.783283 0.588679
vt 0.775773 0.575785
vt 0.768714 0.564832
vt 0.807847 0.363767
vt 0.793427 0.370353
vt 0.791289 0.346725
vt 0.784289 0.361815
vt 0.713637 0.482450
vt 0.725702 0.474024
vt 0.717731 0.457201
vt 0.703458 0.459841
vt 0.736416 0.465982
vt 0.731628 0.454796
vt 0.703632 0.434578
vt 0.718976 0.436911
vt 0.777289 0.268775
vt 0.764849 0.258299
vt 0.733244 0.439879
vt 0.782279 0.285613
vt 0.804641 0.425310
vt 0.788241 0.426358
vt 0.793225 0.450217
vt 0.807847 0.450871
vt 0.772647 0.427782
vt 0.779281 0.450031
vt 0.787919 0.468166
vt 0.801365 0.475700
vt 0.776672 0.462177
vt 0.758619 0.502975
vt 0.758441 0.488177
vt 0.740360 0.485200
vt 0.733436 0.498269
vt 0.757662 0.475159
vt 0.745964 0.473143
vt 0.783283 0.494929
vt 0.775773 0.482035
vt 0.768714 0.471082
vt 0.807847 0.270017
vt 0.793427 0.276603
vt 0.791289 0.252975
vt 0.784289 0.268065
s 1
usemtl fabric_2
f 23/5/2 11/6/2 5/7/3 16/8/3
f 19/9/4 8/10/4 12/11/5 22/12/5
f 15/13/6 17/14/7 4/15/7 2/16/6
f 1/17/8 2/16/9 3/18/10
f 4/15/11 5/19/12 6/20/13
f 7/21/14 8/10/15 9/22/16
f 10/23/17 11/6/18 12/11/19
f 13/24/20 14/25/21 15/26/22
f 16/27/23 17/28/24 18/29/25
f 19/30/26 20/31/27 21/32/28
f 22/33/29 23/34/30 24/35/31
f 9/36/16 1/37/8 3/38/10 7/39/14
f 2/16/9 4/15/11 6/20/13 3/18/10
f 5/7/12 11/6/18 10/40/17 6/41/13
f 21/42/32 9/22/32 8/10/4 19/43/4
f 11/6/33 23/44/33 22/45/5 12/11/5
f 13/46/20 21/47/28 20/48/27 14/49/21
f 23/50/30 16/51/23 18/52/25 24/53/31
f 17/54/24 15/55/22 14/56/21 18/57/25
f 1/17/34 13/58/34 15/59/6 2/16/6
f 16/60/3 5/19/3 4/15/7 17/61/7
f 19/62/26 22/63/29 24/64/31 20/65/27
f 7/21/14 10/23/17 12/11/19 8/10/15
f 20/106/27 24/107/31 18/108/25 14/109/21
f 3/110/10 6/111/13 10/23/17 7/21/14
f 51/112/41 55/113/42 53/114/43 45/115/44
f 67/116/45 61/117/46 65/118/47 57/119/48
f 46/120/49 60/121/49 70/122/5 52/123/5
f 72/128/3 54/129/3 56/130/7 64/131/7
f 68/132/6 64/133/7 56/130/7 50/134/6
f 54/129/3 72/135/3 60/136/49 46/120/49
f 47/137/34 62/138/34 68/139/6 50/134/6
f 58/140/51 43/141/51 52/123/5 70/142/5
f 48/143/52 41/144/53 42/145/54 47/146/55
f 53/114/43 55/113/42 56/147/56 54/148/57
f 47/146/58 50/149/59 49/150/60 48/143/52
f 44/151/61 51/112/41 52/152/62 43/153/63
f 46/154/64 52/152/62 51/112/41 45/115/44
f 41/144/53 44/151/61 43/153/65 42/145/54
f 55/113/42 49/150/60 50/149/59 56/147/56
f 54/148/57 46/154/64 45/115/44 53/114/43
f 64/155/66 68/156/67 67/157/45 63/158/68
f 66/159/69 58/160/70 57/161/48 65/162/47
f 58/163/70 70/164/71 69/165/72 57/166/48
f 72/167/73 64/168/66 63/169/68 71/170/74
f 62/171/75 66/172/69 65/173/47 61/174/46
f 61/175/46 67/176/45 68/177/67 62/178/75
f 59/179/76 69/180/72 70/181/71 60/182/77
f 71/183/74 59/184/76 60/185/77 72/186/73
f 66/127/50 42/126/50 43/141/32 58/187/32
f 44/151/61 49/150/60 55/113/42 51/112/41
f 41/144/53 48/143/52 49/150/60 44/151/61
f 71/188/74 63/189/68 69/190/72 59/191/76
f 63/189/68 67/116/45 57/119/48 69/190/72
f 121/232/80 115/233/81 93/234/82 132/235/83
f 133/236/4 96/237/4 100/238/84 118/239/85
f 131/240/6 120/241/86 92/242/87 90/243/6
f 89/244/8 90/243/9 91/245/10
f 92/242/11 93/246/88 94/247/89
f 95/248/14 96/249/15 97/250/16
f 98/251/17 99/252/18 100/253/19
f 113/254/55 89/255/8 91/256/10 114/257/90
f 90/243/9 92/242/11 94/247/89 91/245/10
f 115/258/91 99/259/18 98/260/17 116/261/92
f 117/262/32 97/263/32 96/264/4 133/265/4
f 132/235/83 93/246/82 92/242/87 120/241/86
f 95/266/14 98/267/17 100/268/19 96/269/15
f 114/270/90 91/271/10 94/272/89 116/273/92
f 164/274/93 130/275/94 129/276/95 175/277/96
f 175/277/96 129/276/95 125/278/97 163/279/98
f 129/276/95 109/280/99 110/281/100 125/278/97
f 119/282/34 107/283/34 108/284/6 131/240/6
f 134/285/101 105/286/33 106/287/102 118/288/85
f 126/289/32 103/290/32 104/291/4 122/292/4
f 128/293/6 125/278/97 110/281/100 108/284/6
f 122/294/4 104/295/4 106/296/102 127/297/103
f 130/275/94 112/298/104 109/280/99 129/276/95
f 123/299/105 105/300/2 112/298/104 130/275/94
f 95/301/14 114/302/90 116/303/92 98/304/17
f 93/305/88 115/306/91 116/307/92 94/308/89
f 97/309/16 113/310/55 114/311/90 95/312/14
f 134/313/106 99/314/107 115/233/81 121/232/80
f 105/300/2 134/313/106 121/232/80 112/298/104
f 109/280/99 132/235/83 120/241/86 110/281/100
f 103/315/32 117/316/32 133/317/4 104/318/4
f 108/284/6 110/281/100 120/241/86 131/240/6
f 104/319/4 133/320/4 118/321/85 106/322/102
f 112/298/104 121/232/80 132/235/83 109/280/99
f 174/323/6 163/279/98 125/278/97 128/293/6
f 177/324/108 123/299/105 130/275/94 164/274/93
f 176/325/4 122/326/4 127/327/103 161/328/109
f 123/329/110 177/330/111 161/331/109 127/332/103
f 160/333/32 102/334/32 126/335/32 122/336/4 176/337/4
f 107/283/34 124/338/34 128/293/6 108/284/6
f 105/339/33 123/340/110 127/341/103 106/342/102
f 99/343/112 134/344/101 118/345/85 100/346/84
f 89/244/34 119/282/34 131/240/6 90/243/6
f 156/347/113 142/348/27 146/349/31 158/350/114
f 135/351/20 136/352/21 137/353/22
f 138/354/115 139/355/24 140/356/116
f 141/357/26 142/358/27 143/359/28
f 144/360/29 145/361/30 146/362/31
f 166/363/117 145/364/118 144/365/119 170/366/120
f 155/367/121 143/368/28 142/369/27 156/370/113
f 157/371/122 138/372/115 140/373/116 158/374/114
f 139/355/24 137/353/22 136/352/21 140/356/116
f 167/375/34 135/351/34 137/353/6 171/376/6
f 141/377/26 144/378/29 146/379/31 142/380/27
f 172/381/123 153/382/99 154/383/100 168/384/124
f 162/385/34 151/386/34 152/387/6 174/323/6
f 177/388/111 149/389/33 150/390/102 161/391/109
f 169/392/32 147/393/32 148/394/4 165/395/4
f 171/376/6 168/384/124 154/383/100 152/387/6
f 165/396/4 148/397/4 150/398/102 170/399/120
f 173/400/125 159/401/104 153/382/99 172/381/123
f 166/402/126 149/403/2 159/401/104 173/400/125
f 145/404/30 157/405/122 158/406/114 146/407/31
f 135/408/20 155/409/121 156/410/113 136/411/21
f 136/412/21 156/413/113 158/414/114 140/415/116
f 149/403/2 177/324/108 164/274/93 159/401/104
f 153/382/99 175/277/96 163/279/98 154/383/100
f 147/416/32 160/417/32 176/418/4 148/419/4
f 152/387/6 154/383/100 163/279/98 174/323/6
f 148/420/4 176/421/4 161/422/109 150/423/102
f 159/401/104 164/274/93 175/277/96 153/382/99
f 145/424/127 166/402/126 173/400/125 157/425/128
f 157/425/128 173/400/125 172/381/123 138/354/129
f 141/426/4 165/427/4 170/428/120 144/429/119
f 137/353/6 139/355/130 168/384/124 171/376/6
f 143/430/32 169/431/32 165/432/4 141/433/4
f 138/354/129 172/381/123 168/384/124 139/355/130
f 151/386/34 167/375/34 171/376/6 152/387/6
f 149/434/33 166/435/117 170/436/120 150/437/102
f 249/438/131 194/439/131 184/440/4 247/441/4
f 178/442/132 179/443/133 180/444/134
f 181/445/135 182/446/136 183/447/137
f 202/448/138 221/449/139 232/450/140 210/451/141
f 246/452/142 244/453/143 226/454/144 230/455/145
f 184/440/146 185/456/147 186/457/148
f 187/458/149 188/459/150 189/460/151
f 240/461/152 192/462/153 182/463/154 238/464/155
f 179/465/133 181/466/135 183/467/137 180/468/134
f 241/469/156 201/470/157 192/471/153 240/461/152
f 250/472/158 203/473/159 194/439/131 249/438/131
f 190/474/160 178/475/132 180/476/134 191/477/161
f 188/478/150 186/479/148 185/480/147 189/481/151
f 247/441/4 184/440/4 186/457/32 248/482/32
f 238/464/155 182/483/154 181/484/162 239/485/34
f 245/486/163 224/487/164 235/488/165 246/489/142
f 196/490/166 187/458/149 189/460/151 197/491/167
f 206/492/168 190/493/160 191/494/161 198/495/169
f 184/440/146 194/439/170 195/496/171 185/456/147
f 200/497/172 218/498/173 229/499/174 209/500/175
f 182/501/136 192/502/176 193/503/177 183/504/137
f 214/505/178 207/506/179 199/507/180 227/508/181
f 194/439/170 203/473/182 211/509/183 195/496/171
f 192/510/176 201/511/184 208/512/185 193/513/177
f 195/514/171 211/515/183 204/516/186 197/517/167
f 212/518/187 196/490/166 197/491/167 204/519/186
f 185/480/147 195/514/171 197/517/167 189/481/151
f 250/472/158 206/520/188 207/521/189 251/522/190
f 241/469/156 212/518/191 213/523/192 242/524/193
f 206/525/168 198/526/169 199/527/180 207/528/179
f 212/518/187 204/519/186 205/529/194 213/523/195
f 202/448/138 210/451/141 211/509/183 203/473/182
f 200/530/172 209/531/175 208/532/185 201/533/184
f 210/534/141 205/535/194 204/516/186 211/515/183
f 210/534/141 232/536/140 236/537/196 205/535/194
f 242/524/193 245/486/197 217/538/198 219/539/198 218/540/198 200/541/199
f 251/522/190 243/542/200 220/543/201 222/544/201 221/449/201 202/448/202
f 223/545/203 213/523/195 205/529/194 236/546/196
f 230/547/145 226/548/144 228/549/204 231/550/205
f 231/551/205 228/552/204 227/553/181 229/554/174
f 217/555/206 230/556/145 231/557/205 219/558/207
f 219/559/207 231/560/205 229/561/174 218/562/173
f 226/563/144 215/564/208 216/565/209 228/566/204
f 228/567/204 216/568/209 214/569/178 227/570/181
f 236/537/196 232/536/140 234/571/210 237/572/211
f 237/572/211 234/571/210 233/573/212 235/574/165
f 223/545/203 236/546/196 237/575/211 225/576/213
f 225/576/213 237/575/211 235/488/165 224/487/164
f 232/450/140 221/449/139 222/544/214 234/577/210
f 234/577/210 222/544/214 220/543/215 233/578/212
f 243/542/216 215/579/208 226/580/144 244/581/143
f 201/582/157 241/469/156 242/524/193 200/583/199
f 187/458/217 238/464/155 239/485/34 188/459/218
f 212/518/191 241/469/156 240/461/152 196/490/219
f 196/490/219 240/461/152 238/464/155 187/458/217
f 220/543/215 243/542/216 244/581/143 233/578/212
f 217/584/206 245/486/163 246/489/142 230/585/145
f 235/574/165 233/573/212 244/453/143 246/452/142
f 203/473/159 250/472/158 251/522/190 202/448/202
f 178/586/4 247/441/4 248/482/32 179/587/32
f 206/588/188 250/472/158 249/438/131 190/589/131
f 190/590/131 249/438/131 247/441/4 178/591/4
f 214/592/220 216/593/220 215/594/220 243/542/200 251/522/190 207/595/189
f 223/545/221 225/576/221 224/487/221 245/486/197 242/524/193 213/523/192
f 313/438/131 266/596/131 258/597/4 311/441/4
f 252/598/132 253/599/133 254/600/222
f 255/601/135 256/602/136 257/603/223
f 272/604/138 287/605/139 227/606/224 199/607/225
f 310/452/226 308/453/227 292/608/228 296/609/229
f 258/610/146 180/611/230 259/612/148
f 260/613/149 261/614/150 183/615/231
f 304/461/232 264/616/233 256/602/234 302/464/235
f 253/617/133 255/618/135 257/619/223 254/620/222
f 305/469/236 271/621/237 264/616/233 304/461/232
f 314/472/158 273/622/159 266/623/131 313/438/131
f 262/624/160 252/598/132 254/600/222 263/625/238
f 261/626/150 259/627/148 180/628/230 183/629/231
f 311/441/4 258/630/4 259/631/32 312/482/32
f 302/464/235 256/602/234 255/601/239 303/485/240
f 309/486/241 290/632/242 300/633/243 310/489/226
f 267/634/166 260/635/149 183/636/231 193/637/244
f 274/638/168 262/624/160 263/625/238 268/639/245
f 263/640/238 254/620/222 257/619/223 265/641/246
f 258/642/146 266/643/170 191/644/247 180/645/230
f 270/646/172 284/647/173 295/648/248 277/649/249
f 256/602/136 264/616/176 265/650/246 257/603/223
f 280/651/178 275/652/179 269/653/250 293/654/251
f 266/655/170 273/656/182 198/657/252 191/658/247
f 264/616/176 271/621/184 276/659/253 265/650/246
f 268/660/245 263/640/238 265/641/246 276/661/253
f 278/662/187 267/663/166 193/664/244 208/665/254
f 314/472/158 274/638/255 275/652/256 315/522/257
f 305/469/236 278/666/258 279/667/259 306/524/260
f 274/638/168 268/639/245 269/653/250 275/652/179
f 278/668/187 208/669/254 209/670/261 279/671/195
f 268/660/245 276/661/253 277/672/249 269/673/250
f 272/674/138 199/675/225 198/676/252 273/677/182
f 270/646/172 277/649/249 276/659/253 271/621/184
f 306/524/260 309/486/262 283/678/263 285/679/263 284/647/263 270/646/264
f 315/522/257 307/542/265 286/680/266 288/681/266 287/682/266 272/683/267
f 269/673/250 277/672/249 295/684/248 293/685/251
f 289/686/203 279/687/195 209/688/261 229/689/268
f 296/609/229 292/608/228 294/690/204 297/691/205
f 297/691/205 294/690/204 293/685/251 295/684/248
f 283/678/269 296/692/229 297/693/205 285/679/207
f 285/679/207 297/693/205 295/648/248 284/647/173
f 292/694/228 281/695/270 282/696/209 294/697/204
f 294/697/204 282/696/209 280/651/178 293/654/251
f 229/698/268 227/699/224 299/700/210 301/701/211
f 301/702/211 299/703/210 298/704/271 300/705/243
f 289/706/203 229/707/268 301/708/211 291/709/213
f 291/710/213 301/711/211 300/712/243 290/713/242
f 227/714/224 287/715/139 288/716/272 299/717/210
f 299/718/210 288/719/272 286/720/273 298/721/271
f 307/542/274 281/695/270 292/694/228 308/581/227
f 271/621/237 305/469/236 306/524/260 270/646/264
f 260/722/275 302/464/235 303/485/240 261/723/276
f 278/724/258 305/469/236 304/461/232 267/725/277
f 267/726/277 304/461/232 302/464/235 260/727/275
f 286/728/273 307/542/274 308/581/227 298/729/271
f 283/678/269 309/486/241 310/489/226 296/692/229
f 300/730/243 298/731/271 308/453/227 310/452/226
f 273/732/159 314/472/158 315/522/257 272/733/267
f 252/598/4 311/441/4 312/482/32 253/599/32
f 274/638/255 314/472/158 313/438/131 262/624/131
f 262/624/131 313/438/131 311/441/4 252/598/4
f 280/651/278 282/696/278 281/695/278 307/542/265 315/522/257 275/652/256
f 289/734/279 291/735/279 290/736/279 309/486/262 306/524/260 279/737/259
f 101/738/34 162/385/34 174/323/6 128/293/6 124/338/34
f 327/739/280 355/740/281 362/741/282 330/742/283
f 324/743/284 350/744/285 367/745/286 335/746/286
f 355/740/281 327/739/280 320/747/287 341/748/288
f 350/744/285 324/743/284 323/749/289 352/750/290
f 364/751/1 334/752/1 335/753/1 367/754/1
f 330/742/283 362/741/282 359/755/291 332/756/292
f 341/748/288 320/747/287 319/757/293 343/758/294
f 332/756/292 359/755/291 346/759/295 328/760/295
f 352/750/290 323/749/289 328/760/295 346/759/295
f 343/758/294 319/757/293 317/761/296 338/762/296
f 326/763/297 331/764/298 333/765/299
f 321/766/300 318/767/301 319/768/302 320/769/303
f 325/770/304 322/771/305 323/772/306 324/773/307
f 331/764/298 326/763/297 327/774/308 330/775/309
f 333/765/299 331/764/298 330/775/309 332/776/310
f 329/777/311 333/765/299 332/776/310 328/778/312
f 326/763/297 321/766/300 320/769/303 327/774/308
f 318/767/301 316/779/313 317/780/314 319/768/302
f 322/771/305 329/777/311 328/778/312 323/772/306
f 316/779/313 336/781/315 334/782/316 317/780/314
f 324/773/307 335/783/317 336/781/315 325/770/304
f 336/781/315 335/783/317 334/782/316
f 338/762/296 317/761/296 334/752/318 364/751/318
f 336/781/315 316/779/313 325/770/304
f 316/779/313 318/767/301 322/771/305 325/770/304
f 318/767/301 321/766/300 329/777/311 322/771/305
f 321/766/300 326/763/297 333/765/299 329/777/311
f 341/784/319 343/785/320 345/786/321 342/787/322
f 342/787/322 345/786/321 344/788/323 340/789/324
f 338/790/325 364/791/326 366/792/327 339/793/328
f 339/793/328 366/792/327 365/794/329 337/795/330
f 350/796/331 352/797/332 354/798/333 351/799/334
f 351/799/334 354/798/333 353/800/335 349/801/336
f 352/797/332 346/802/337 348/803/338 354/798/333
f 354/798/333 348/803/338 347/804/339 353/800/335
f 362/805/340 355/806/341 357/807/342 363/808/343
f 363/808/343 357/807/342 356/809/344 361/810/345
f 359/811/346 362/805/340 363/808/343 360/812/347
f 360/812/347 363/808/343 361/810/345 358/813/348
f 355/806/341 341/784/319 342/787/322 357/807/342
f 357/807/342 342/787/322 340/789/324 356/809/344
f 343/785/320 338/790/325 339/793/328 345/786/321
f 345/786/321 339/793/328 337/795/330 344/788/323
f 346/802/337 359/811/346 360/812/347 348/803/338
f 348/803/338 360/812/347 358/813/348 347/804/339
f 367/814/349 350/796/331 351/799/334 368/815/350
f 368/815/350 351/799/334 349/801/336 365/794/329
f 364/816/326 367/814/349 368/815/350 366/817/327
f 366/817/327 368/815/350 365/794/329
f 349/801/336 353/800/335 347/804/339 358/813/348 361/810/345 356/809/344 340/789/324 344/788/323 337/795/330
f 365/794/329 349/801/336 337/795/330
f 380/739/351 383/742/352 415/741/353 408/740/354
f 377/743/355 388/746/356 420/745/356 403/744/357
f 408/740/354 394/748/358 373/747/359 380/739/351
f 403/744/357 405/750/360 376/749/361 377/743/355
f 417/751/1 420/754/1 388/753/1 387/752/1
f 383/742/352 385/756/362 412/755/363 415/741/353
f 394/748/358 396/758/364 372/757/365 373/747/359
f 385/756/362 381/760/366 399/759/366 412/755/363
f 405/750/360 399/759/366 381/760/366 376/749/361
f 396/758/364 391/762/367 370/761/367 372/757/365
f 379/763/368 386/765/369 384/764/370
f 374/766/371 373/769/372 372/768/373 371/767/374
f 378/770/375 377/773/376 376/772/377 375/771/378
f 384/764/370 383/775/379 380/774/380 379/763/368
f 386/765/369 385/776/381 383/775/379 384/764/370
f 382/777/382 381/778/383 385/776/381 386/765/369
f 379/763/368 380/774/380 373/769/372 374/766/371
f 371/767/374 372/768/373 370/780/384 369/779/385
f 375/771/378 376/772/377 381/778/383 382/777/382
f 369/779/385 370/780/384 387/782/386 389/781/387
f 377/773/376 378/770/375 389/781/387 388/783/388
f 389/781/387 387/782/386 388/783/388
f 391/762/367 417/751/389 387/752/389 370/761/367
f 389/781/387 378/770/375 369/779/385
f 369/779/385 378/770/375 375/771/378 371/767/374
f 371/767/374 375/771/378 382/777/382 374/766/371
f 374/766/371 382/777/382 386/765/369 379/763/368
f 394/818/390 395/819/391 398/820/392 396/821/393
f 395/819/391 393/822/394 397/823/395 398/820/392
f 391/824/396 392/825/397 419/826/398 417/827/399
f 392/825/397 390/828/400 418/829/401 419/826/398
f 403/830/402 404/831/403 407/832/404 405/833/405
f 404/831/403 402/834/406 406/835/407 407/832/404
f 405/833/405 407/832/404 401/836/408 399/837/409
f 407/832/404 406/835/407 400/838/410 401/836/408
f 415/839/411 416/840/412 410/841/413 408/842/414
f 416/840/412 414/843/415 409/844/416 410/841/413
f 412/845/417 413/846/418 416/840/412 415/839/411
f 413/846/418 411/847/419 414/843/415 416/840/412
f 408/842/414 410/841/413 395/819/391 394/818/390
f 410/841/413 409/844/416 393/822/394 395/819/391
f 396/821/393 398/820/392 392/825/397 391/824/396
f 398/820/392 397/823/395 390/828/400 392/825/397
f 399/837/409 401/836/408 413/846/418 412/845/417
f 401/836/408 400/838/410 411/847/419 413/846/418
f 420/848/420 421/849/421 404/831/403 403/830/402
f 421/849/421 418/829/401 402/834/406 404/831/403
f 417/850/399 419/851/398 421/849/421 420/848/420
f 419/851/398 418/829/401 421/849/421
f 402/834/406 390/828/400 397/823/395 393/822/394 409/844/416 414/843/415 411/847/419 400/838/410 406/835/407
f 418/829/401 390/828/400 402/834/406
usemtl wood_6
f 9/1/1 21/2/1 13/3/1 1/4/1
s 0
f 26/66/35 28/67/35 32/68/35 30/69/35
f 30/70/1 32/71/1 31/72/1 29/73/1
f 25/74/36 26/75/36 30/76/36 29/77/36
f 28/78/37 27/79/37 31/80/37 32/81/37
f 27/82/38 25/83/38 29/84/38 31/85/38
f 34/86/39 36/87/39 40/88/39 38/89/39
f 38/90/1 40/91/1 39/92/1 37/93/1
f 33/94/36 34/95/36 38/96/36 37/97/36
f 36/98/37 35/99/37 39/100/37 40/101/37
f 35/102/40 33/103/40 37/104/40 39/105/40
s 1
f 62/124/1 47/125/1 42/126/50 66/127/50
s 0
f 74/192/35 76/193/35 80/194/35 78/195/35
f 78/196/1 80/197/1 79/198/1 77/199/1
f 73/200/78 74/201/78 78/202/78 77/203/78
f 76/204/79 75/205/79 79/206/79 80/207/79
f 75/208/38 73/209/38 77/210/38 79/211/38
f 82/212/39 84/213/39 88/214/39 86/215/39
f 86/216/1 88/217/1 87/218/1 85/219/1
f 81/220/78 82/221/78 86/222/78 85/223/78
f 84/224/79 83/225/79 87/226/79 88/227/79
f 83/228/40 81/229/40 85/230/40 87/231/40
l 111 102
l 101 111
