# Blender 5.0.1
# www.blender.org
mtllib table_large_3_2.mtl
o table_large_3_2
v -0.740127 0.870000 -0.270000
v -0.740127 0.870000 -0.290000
v 0.740125 0.870000 -0.270000
v 0.740125 0.870000 -0.290000
v -0.760000 0.870000 -0.328126
v -0.740000 0.870000 -0.328126
v -0.760000 0.870000 0.298126
v -0.740000 0.870000 0.298126
v 0.740000 0.870000 -0.328126
v 0.760000 0.870000 -0.328126
v 0.740000 0.870000 0.298126
v 0.760000 0.870000 0.298126
v -0.740001 0.500000 -0.270000
v -0.740001 0.500000 -0.290000
v 0.739999 0.500000 -0.270000
v 0.739999 0.500000 -0.290000
v 0.740000 0.000000 -0.328000
v 0.759998 0.000000 -0.328000
v 0.740000 0.000000 0.298000
v 0.759998 0.000000 0.298000
v -0.760000 0.000000 -0.328000
v -0.740002 0.000000 -0.328000
v -0.760000 0.000000 0.298000
v -0.740002 0.000000 0.298000
v -0.789999 0.870000 0.330000
v -0.799999 0.910000 0.340000
v -0.790000 0.870000 -0.340000
v -0.799999 0.910000 -0.350000
v 0.790002 0.870000 0.330001
v 0.800002 0.910000 0.340001
v 0.790002 0.870000 -0.340000
v 0.800001 0.910000 -0.350000
v -0.799999 0.890000 0.340000
v 0.800002 0.890000 0.340001
v 0.800002 0.890000 -0.350000
v -0.799999 0.890000 -0.350000
v -0.789999 0.880000 0.330000
v 0.790002 0.880000 0.330001
v 0.790002 0.880000 -0.340000
v -0.789999 0.880000 -0.340000
vn -0.0000 -1.0000 -0.0000
vn -0.0000 -0.0000 -1.0000
vn -0.0000 -0.0000 1.0000
vn 1.0000 -0.0000 -0.0000
vn -1.0000 -0.0000 -0.0000
vn -0.0000 -0.0001 1.0000
vn -0.0000 -0.0001 -1.0000
vn -0.0000 1.0000 -0.0000
vn -0.0000 -0.7071 -0.7071
vn -0.7071 -0.7071 -0.0000
vn 0.7071 -0.7071 -0.0000
vn -0.0000 -0.7071 0.7071
vt 0.006582 0.326666
vt 0.993420 0.326666
vt 0.993419 0.340000
vt 0.006582 0.340000
vt 0.074790 0.617286
vt 0.074790 0.199792
vt 0.088123 0.199792
vt 0.088123 0.617286
vt 0.006628 0.510000
vt 0.006578 0.756667
vt 0.993424 0.756667
vt 0.993373 0.510000
vt 0.993373 0.510000
vt 0.993424 0.756667
vt 0.006578 0.756667
vt 0.006629 0.510000
vt 0.904791 0.617278
vt 0.324791 0.617304
vt 0.324791 0.199789
vt 0.904791 0.199793
vt 0.904791 0.199793
vt 0.324791 0.617304
vt 0.904790 0.617279
vt 0.904791 0.617279
vt 0.324791 0.617304
vt 0.324791 0.199789
vt 0.904791 0.199793
vt 0.904791 0.199793
vt 0.324791 0.199789
vt 0.324791 0.617304
vt 0.904791 0.617279
vt 1.074790 0.199792
vt 1.088123 0.199792
vt 1.088123 0.617286
vt 1.074790 0.617286
vt 0.889188 0.800208
vt 0.309188 0.800209
vt 0.309188 0.786876
vt 0.889188 0.786876
vt 0.309188 0.786876
vt 0.309188 0.800209
vt 0.309188 0.800209
vt 1.375191 0.530165
vt 1.375191 0.065972
vt 0.308117 0.065972
vt 0.308117 0.530165
vt 1.375190 0.605469
vt 1.375191 0.617188
vt 0.308117 0.617188
vt 0.308117 0.605469
vt 1.412559 0.376968
vt 1.412559 0.388687
vt 0.948366 0.388687
vt 0.948366 0.376968
vt 0.948366 0.376968
vt 0.948367 0.388687
vt 1.412559 0.388687
vt 1.412559 0.376969
vt 0.315972 0.074369
vt 1.367477 0.074369
vt 1.367477 0.522311
vt 0.315972 0.522311
vt 0.309285 0.652342
vt 0.301786 0.660154
vt 1.380758 0.660156
vt 1.373353 0.652344
vt 0.955037 0.380874
vt 0.948211 0.388687
vt 1.414115 0.388687
vt 1.406684 0.380875
vt 1.403607 0.341811
vt 1.410892 0.349624
vt 0.948463 0.349625
vt 0.955189 0.341812
vt 1.372062 0.601562
vt 1.379180 0.609374
vt 0.303732 0.609372
vt 0.310924 0.601559
vt 1.367477 0.589844
vt 1.367477 0.597656
vt 0.315972 0.597656
vt 0.315972 0.589844
vt 1.404162 0.361343
vt 1.404162 0.369155
vt 0.956221 0.369156
vt 0.956221 0.361343
vt 0.956221 0.361344
vt 0.956221 0.369156
vt 1.404162 0.369156
vt 1.404162 0.361343
vt 0.315972 0.589844
vt 0.315972 0.597656
vt 1.367477 0.597656
vt 1.367477 0.589844
vt 0.308117 0.605469
vt 1.375191 0.605469
s 1
usemtl wood_4
f 14/1/1 16/2/1 15/3/1 13/4/1
f 18/5/1 20/6/1 19/7/1 17/8/1
f 14/9/2 2/10/2 4/11/2 16/12/2
f 15/13/3 3/14/3 1/15/3 13/16/3
f 22/17/4 6/18/4 8/19/4 24/20/4
f 23/21/5 7/19/5 5/22/5 21/23/5
f 18/24/4 10/25/4 12/26/4 20/27/4
f 19/28/5 11/29/5 9/30/5 17/31/5
f 24/32/1 23/33/1 21/34/1 22/35/1
f 24/36/6 8/37/6 7/38/6 23/39/6
f 20/36/6 12/37/6 11/40/6 19/39/6
f 22/36/7 21/39/7 5/38/7 6/41/7
f 18/36/7 17/39/7 9/40/7 10/42/7
f 30/43/8 32/44/8 28/45/8 26/46/8
f 34/47/3 30/48/3 26/49/3 33/50/3
f 35/51/4 32/52/4 30/53/4 34/54/4
f 33/55/5 26/56/5 28/57/5 36/58/5
f 27/59/1 31/60/1 29/61/1 25/62/1
f 40/63/9 36/64/9 35/65/9 39/66/9
f 37/67/10 33/68/10 36/69/10 40/70/10
f 39/71/11 35/72/11 34/73/11 38/74/11
f 38/75/12 34/76/12 33/77/12 37/78/12
f 29/79/3 38/80/3 37/81/3 25/82/3
f 31/83/4 39/84/4 38/85/4 29/86/4
f 25/87/5 37/88/5 40/89/5 27/90/5
f 27/91/2 40/92/2 39/93/2 31/94/2
f 36/95/2 28/49/2 32/48/2 35/96/2
