# Blender 5.0.1
# www.blender.org
mtllib tv_table_4_3.mtl
o tv_table_4_3
v 0.769999 0.970000 0.380000
v 0.769998 0.970000 -0.400000
v -0.770000 0.970000 -0.400000
v -0.740000 0.940000 -0.370000
v -0.770000 0.970000 0.380000
v -0.740000 0.940000 0.380000
v 0.740000 0.940000 -0.370000
v 0.740000 0.940000 0.380000
v 0.770000 0.760000 -0.400000
v 0.770000 0.760000 0.380000
v -0.770000 0.760000 0.380000
v -0.740000 0.790000 0.380000
v -0.770000 0.760000 -0.400001
v -0.740000 0.790000 -0.370000
v 0.740000 0.790000 0.380000
v 0.740000 0.790000 -0.370000
v -0.015000 0.940000 0.380000
v 0.015000 0.940000 0.380000
v -0.015000 0.940000 -0.370000
v 0.015000 0.940000 -0.370000
v -0.015000 0.790000 0.380000
v 0.015000 0.790000 0.380000
v -0.015000 0.790000 -0.370000
v 0.015000 0.790000 -0.370000
v -0.717500 0.000000 0.367499
v -0.671875 0.760000 0.321874
v -0.717500 0.000000 0.332502
v -0.671875 0.760000 0.278126
v -0.682503 0.000000 0.367499
v -0.628128 0.760000 0.321874
v -0.682503 0.000000 0.332502
v -0.628128 0.760000 0.278126
v 0.717497 0.000000 -0.342501
v 0.671873 0.760000 -0.288126
v 0.717497 0.000000 -0.377498
v 0.671873 0.760000 -0.331874
v 0.671873 0.760000 0.278126
v 0.717497 0.000000 0.332502
v 0.671873 0.760000 0.321874
v 0.717497 0.000000 0.367499
v 0.628125 0.760000 0.278126
v 0.682500 0.000000 0.332502
v 0.628125 0.760000 0.321874
v 0.682500 0.000000 0.367499
v 0.682500 0.000000 -0.342501
v 0.628125 0.760000 -0.288126
v 0.682500 0.000000 -0.377498
v 0.628125 0.760000 -0.331874
v -0.682503 0.000000 -0.342501
v -0.628128 0.760000 -0.288126
v -0.682503 0.000000 -0.377498
v -0.628128 0.760000 -0.331874
v -0.717500 0.000000 -0.342501
v -0.671875 0.760000 -0.288126
v -0.717500 0.000000 -0.377498
v -0.671875 0.760000 -0.331874
vn -0.0000 1.0000 -0.0000
vn -0.0000 -0.0000 1.0000
vn -0.0000 -1.0000 -0.0000
vn -0.0000 -0.0000 -1.0000
vn 1.0000 -0.0000 -0.0000
vn -1.0000 -0.0000 -0.0000
vn 1.0000 -0.0000 0.0001
vn -0.7071 0.7071 -0.0000
vn -0.0001 -0.0000 -1.0000
vn -0.7071 -0.0000 -0.7071
vn -0.0000 0.0599 0.9982
vn 0.9975 -0.0714 -0.0000
vn -0.9982 0.0599 -0.0000
vn -0.0000 -0.0714 -0.9975
vn -0.9975 -0.0714 -0.0000
vn 0.9982 0.0599 -0.0000
vn -0.0000 0.0599 -0.9982
vn -0.0000 -0.0714 0.9975
vt 1.013334 0.620000
vt 1.013333 0.100000
vt -0.013333 0.100000
vt -0.013333 0.620000
vt 0.993334 0.716667
vt 1.013334 0.736667
vt -0.013333 0.736667
vt 0.006669 0.716667
vt 0.006668 0.120000
vt 0.993334 0.120000
vt 0.993334 0.620000
vt 0.006669 0.620000
vt -0.013332 0.596667
vt -0.013332 0.736667
vt 1.013334 0.736667
vt 1.013334 0.596667
vt 0.993334 0.616667
vt 0.993334 0.716667
vt 0.006668 0.716667
vt 0.006668 0.616667
vt 0.616667 0.120000
vt 0.716667 0.120000
vt 0.716667 0.620000
vt 0.616667 0.620000
vt 0.596667 0.620000
vt 0.736667 0.620000
vt 0.736667 0.100000
vt 0.596667 0.100000
vt 0.596667 0.100000
vt 0.736667 0.100000
vt 0.736667 0.620000
vt 0.596667 0.620000
vt 0.716667 0.120000
vt 0.616667 0.120000
vt 0.993335 0.620000
vt 0.993334 0.120000
vt 0.006668 0.120000
vt 0.006668 0.620000
vt 1.013335 0.530000
vt 0.993335 0.550000
vt 0.006668 0.550000
vt -0.013332 0.530000
vt 0.530000 0.100000
vt 0.550000 0.120000
vt 0.550000 0.620000
vt 0.530000 0.620000
vt 0.530000 0.620000
vt 0.550000 0.620000
vt 0.550000 0.120000
vt 0.530000 0.100000
vt -0.013332 0.496667
vt 0.006668 0.516667
vt 0.993336 0.516667
vt 1.013335 0.496667
vt -0.013332 0.100000
vt 1.013335 0.100000
vt 1.013335 0.620000
vt -0.013332 0.620000
vt 0.366668 -0.010000
vt 0.266668 -0.010000
vt 0.246668 -0.030000
vt 0.386668 -0.030000
vt 0.596667 0.199998
vt 0.616667 0.219998
vt 0.716667 0.219998
vt 0.736667 0.199998
vt 0.386668 0.996667
vt 0.246668 0.996667
vt 0.266668 0.976666
vt 0.366668 0.976666
vt 0.736668 0.620000
vt 0.736668 0.120000
vt 0.636668 0.120000
vt 0.636668 0.620000
vt 0.736668 0.516667
vt 0.736668 0.536667
vt 0.636668 0.536667
vt 0.636668 0.516667
vt 0.516667 0.120000
vt 0.536667 0.120000
vt 0.536667 0.620000
vt 0.516667 0.620000
vt 0.516667 0.620000
vt 0.536667 0.620000
vt 0.536667 0.120000
vt 0.516667 0.120000
vt 0.636668 0.516667
vt 0.636668 0.536667
vt 0.736668 0.536667
vt 0.736668 0.516666
vt 0.636668 0.120000
vt 0.736668 0.120000
vt 0.736668 0.620000
vt 0.636668 0.620000
vt 0.771669 1.028332
vt 0.771669 1.005001
vt 0.795000 1.005001
vt 0.795000 1.028332
vt 0.192738 1.005002
vt 0.699901 0.968751
vt 0.699901 0.997915
vt 0.192738 1.028334
vt 0.175950 0.755001
vt 0.683233 0.718751
vt 0.683233 0.747916
vt 0.175950 0.778332
vt 0.176333 0.778332
vt 0.683233 0.747916
vt 0.683233 0.718751
vt 0.176333 0.755001
vt 0.192355 1.028332
vt 0.699901 0.997915
vt 0.699901 0.968751
vt 0.192355 1.005000
vt 0.175774 0.778332
vt 0.683233 0.747916
vt 0.683233 0.718751
vt 0.175774 0.755001
vt 0.192355 -0.038334
vt 0.699901 -0.002085
vt 0.699901 -0.031249
vt 0.192355 -0.061666
vt 0.192738 -0.061667
vt 0.699901 -0.031249
vt 0.699901 -0.002085
vt 0.192738 -0.038335
vt 0.176157 0.755001
vt 0.683233 0.718751
vt 0.176157 0.778332
vt 0.771669 -0.038334
vt 0.771669 -0.061666
vt 0.795001 -0.061666
vt 0.795001 -0.038334
vt 0.192825 -0.038335
vt 0.699901 -0.002085
vt 0.699901 -0.031249
vt 0.192825 -0.061667
vt 0.175774 0.244999
vt 0.683233 0.281249
vt 0.683233 0.252084
vt 0.175774 0.221668
vt 0.176157 0.221668
vt 0.683233 0.252084
vt 0.683233 0.281249
vt 0.176157 0.244999
vt 0.192442 -0.061666
vt 0.699901 -0.002085
vt 0.192442 -0.038334
vt 0.238336 -0.038334
vt 0.238336 -0.061666
vt 0.261667 -0.061666
vt 0.261667 -0.038334
vt 0.192825 1.028334
vt 0.699901 0.997915
vt 0.699901 0.968751
vt 0.192825 1.005002
vt 0.176333 0.244999
vt 0.683233 0.252084
vt 0.176333 0.221668
vt 0.175950 0.221668
vt 0.683233 0.252084
vt 0.683233 0.281249
vt 0.175950 0.244999
vt 0.192442 1.005001
vt 0.699901 0.968751
vt 0.192442 1.028332
vt 0.238335 1.028332
vt 0.238335 1.005001
vt 0.261667 1.005001
vt 0.261667 1.028332
s 1
usemtl wood_5
f 1/1/1 2/2/1 3/3/1 5/4/1
f 8/5/2 1/6/2 5/7/2 6/8/2
f 4/9/3 7/10/3 8/11/3 6/12/3
f 13/13/4 3/14/4 2/15/4 9/16/4
f 16/17/2 7/18/2 4/19/2 14/20/2
f 14/21/5 4/22/5 6/23/5 12/24/5
f 11/25/6 5/26/6 3/27/6 13/28/6
f 9/29/5 2/30/5 1/31/5 10/32/5
f 15/24/6 8/23/6 7/33/6 16/34/6
f 15/35/1 16/36/1 14/37/1 12/38/1
f 10/39/2 15/40/2 12/41/2 11/42/2
f 9/43/7 16/44/5 15/45/5 10/46/5
f 11/47/8 12/48/8 14/49/8 13/50/8
f 13/51/9 14/52/4 16/53/4 9/54/4
f 13/55/3 9/56/3 10/57/3 11/58/3
f 12/59/2 6/60/2 5/61/2 11/62/2
f 9/63/10 16/64/10 7/65/10 2/66/10
f 10/67/2 1/68/2 8/69/2 15/70/2
f 22/71/5 24/72/5 20/73/5 18/74/5
f 21/75/2 22/76/2 18/77/2 17/78/2
f 23/79/3 24/80/3 22/81/3 21/82/3
f 17/83/1 18/84/1 20/85/1 19/86/1
f 19/87/4 20/88/4 24/89/4 23/90/4
f 19/91/6 23/92/6 21/93/6 17/94/6
f 27/95/3 31/96/3 29/97/3 25/98/3
f 29/99/11 30/100/11 26/101/11 25/102/11
f 31/103/12 32/104/12 30/105/12 29/106/12
f 25/107/13 26/108/13 28/109/13 27/110/13
f 27/111/14 28/112/14 32/113/14 31/114/14
f 44/115/15 43/116/15 41/117/15 42/118/15
f 42/119/14 41/120/14 37/121/14 38/122/14
f 40/123/11 39/124/11 43/125/11 44/126/11
f 38/127/16 37/128/16 39/108/16 40/129/16
f 42/130/3 38/131/3 40/132/3 44/133/3
f 47/134/17 48/135/17 36/136/17 35/137/17
f 45/138/15 46/139/15 48/140/15 47/141/15
f 35/142/16 36/143/16 34/144/16 33/145/16
f 33/146/18 34/121/18 46/147/18 45/148/18
f 47/149/3 35/150/3 33/151/3 45/152/3
f 55/153/17 56/154/17 52/155/17 51/156/17
f 53/157/13 54/139/13 56/158/13 55/159/13
f 51/160/12 52/161/12 50/162/12 49/163/12
f 49/164/18 50/165/18 54/101/18 53/166/18
f 55/167/3 51/168/3 49/169/3 53/170/3
o tv_table_4_3_drawer
v -0.350002 -0.060000 -0.020000
v -0.350002 -0.050000 -0.020000
v -0.350002 -0.059999 -0.490000
v -0.350002 -0.049999 -0.490000
v 0.349999 -0.060000 -0.020000
v 0.349999 -0.050000 -0.020000
v 0.349999 -0.059999 -0.490000
v 0.349998 -0.049999 -0.490000
v 0.350001 -0.070000 -0.020000
v 0.350001 0.080000 -0.020000
v 0.350001 -0.069999 -0.520000
v 0.350001 0.080000 -0.520000
v 0.360002 -0.070000 -0.020000
v 0.360002 0.080000 -0.020000
v 0.360002 -0.069999 -0.520000
v 0.360002 0.080000 -0.520000
v -0.359999 -0.070000 -0.020000
v -0.359999 0.080000 -0.020000
v -0.359999 -0.069999 -0.520000
v -0.359999 0.080000 -0.520000
v -0.349998 -0.070000 -0.020000
v -0.349998 0.080000 -0.020000
v -0.349998 -0.069999 -0.520000
v -0.349998 0.080000 -0.520000
v -0.379999 -0.090000 -0.020000
v -0.379999 0.100000 -0.020000
v 0.380002 -0.090000 -0.020000
v 0.380001 0.100000 -0.020000
v -0.349999 -0.070000 -0.490000
v -0.349999 0.080000 -0.490000
v -0.349999 -0.069999 -0.500000
v -0.349999 0.080000 -0.500000
v 0.350002 -0.070000 -0.490000
v 0.350002 0.080000 -0.490000
v 0.350002 -0.069999 -0.500000
v 0.350001 0.080000 -0.500000
v -0.379999 0.100000 -0.010000
v -0.379999 -0.090000 -0.010000
v 0.380002 0.100000 -0.010000
v 0.380002 -0.090000 -0.010000
v -0.359999 0.080000 -0.000000
v -0.359999 -0.070000 -0.000000
v 0.360002 0.080000 -0.000000
v 0.360002 -0.070000 -0.000000
v -0.359999 0.080000 -0.000000
v -0.369999 0.090000 -0.010000
v -0.363290 0.083292 -0.006708
v -0.369999 -0.080000 -0.010000
v -0.359999 -0.070000 -0.000000
v -0.363290 -0.073291 -0.006708
v 0.370002 0.090000 -0.010000
v 0.360002 0.080000 -0.000000
v 0.363294 0.083292 -0.006708
v 0.360002 -0.070000 -0.000000
v 0.370002 -0.080000 -0.010000
v 0.363294 -0.073291 -0.006708
v -0.051800 0.013241 0.020429
v -0.025900 0.015263 0.031144
v -0.069626 0.011686 0.004858
v -0.051800 -0.004949 0.020429
v -0.025900 -0.006779 0.031144
v -0.069621 -0.003391 0.004858
v 0.051795 0.013241 0.020432
v 0.025895 0.015263 0.031146
v 0.069621 0.011684 0.004860
v 0.051795 -0.004949 0.020432
v 0.025895 -0.006779 0.031146
v 0.069622 -0.003393 0.004860
v -0.051800 0.013241 0.015572
v -0.025900 0.015263 0.026287
v -0.069626 0.011686 0.000001
v -0.051800 -0.004949 0.015572
v -0.025900 -0.006779 0.026287
v -0.069621 -0.003391 0.000001
v 0.051795 0.013241 0.015575
v 0.025895 0.015263 0.026289
v 0.069621 0.011684 0.000003
v 0.051795 -0.004949 0.015575
v 0.025895 -0.006779 0.026289
v 0.069622 -0.003393 0.000003
v -0.051800 0.004149 0.027572
v -0.025900 0.004247 0.038287
v -0.069624 0.004149 0.004858
v 0.051795 0.004146 0.027575
v 0.025895 0.004242 0.038289
v 0.069622 0.004146 0.004860
v -0.088198 0.009400 0.004858
v -0.088193 -0.001106 0.004858
v -0.088198 0.009400 0.000001
v -0.088193 -0.001106 0.000001
v 0.088193 -0.001107 0.004860
v 0.088193 -0.001107 0.000003
v -0.079621 -0.005963 0.004858
v -0.079624 0.004149 0.004858
v -0.079626 0.014257 0.004858
v -0.079621 -0.005963 0.000001
v -0.079626 0.014257 0.000001
v 0.079622 -0.005964 0.004860
v 0.079622 -0.005964 0.000003
v 0.079622 0.004146 0.004860
v -0.089624 0.004147 0.004858
v 0.089622 0.004146 0.000003
v 0.089622 0.004146 0.004860
v 0.079494 0.009092 0.004633
v 0.079493 0.008124 0.007972
v 0.083684 0.006672 0.004633
v 0.082845 0.006189 0.007972
v 0.083684 0.001834 0.004633
v 0.082845 0.002318 0.007972
v 0.079494 -0.000585 0.004633
v 0.079493 0.000383 0.007972
v 0.075303 0.001834 0.004633
v 0.076141 0.002318 0.007972
v 0.075303 0.006672 0.004633
v 0.076141 0.006189 0.007972
v -0.086506 0.021092 0.004633
v -0.086507 0.020124 0.007972
v -0.082316 0.018672 0.004633
v -0.083155 0.018189 0.007972
v -0.082316 0.013834 0.004633
v -0.083155 0.014318 0.007972
v -0.086506 0.011415 0.004633
v -0.086507 0.012383 0.007972
v -0.090696 0.013834 0.004633
v -0.089859 0.014318 0.007972
v -0.090696 0.018672 0.004633
v -0.089859 0.018189 0.007972
v -0.089624 0.004147 -0.000001
v -0.093123 -0.009806 0.004858
v -0.093123 -0.009806 0.000001
v -0.084551 -0.014663 0.004858
v -0.084551 -0.014663 0.000001
v -0.093128 0.018100 0.004858
v -0.093128 0.018100 0.000001
v -0.084556 0.022957 0.000001
v -0.084556 0.022957 0.004858
v -0.093268 -0.003977 0.004858
v -0.079476 -0.011792 0.004858
v -0.079476 -0.011792 0.000001
v -0.093268 -0.003977 0.000001
v -0.093273 0.012271 0.000001
v -0.079481 0.020086 0.000001
v -0.079481 0.020086 0.004858
v -0.093273 0.012271 0.004858
v 0.088193 0.009399 0.000003
v 0.079621 0.014256 0.004860
v 0.088193 0.009399 0.004860
v 0.079621 0.014256 0.000003
v 0.093123 0.018099 0.000003
v 0.093123 0.018099 0.004860
v 0.084551 0.022956 0.000003
v 0.084551 0.022956 0.004860
v 0.093123 -0.009807 0.000003
v 0.093123 -0.009807 0.004860
v 0.084552 -0.014664 0.004860
v 0.084552 -0.014664 0.000003
v 0.079476 0.020085 0.000003
v 0.093268 0.012270 0.000003
v 0.093268 0.012270 0.004860
v 0.079476 0.020085 0.004860
v 0.093268 -0.003978 0.004860
v 0.093268 -0.003978 0.000003
v 0.079477 -0.011793 0.004860
v 0.079477 -0.011793 0.000003
v -0.082859 0.006189 0.007972
v -0.083696 0.006672 0.004633
v -0.082859 0.002318 0.007972
v -0.083696 0.001834 0.004633
v -0.079507 0.000383 0.007972
v -0.079506 -0.000585 0.004633
v -0.076155 0.002318 0.007972
v -0.075316 0.001834 0.004633
v -0.076155 0.006189 0.007972
v -0.075316 0.006672 0.004633
v -0.079507 0.008124 0.007972
v -0.079506 0.009092 0.004633
v 0.086493 0.021092 0.004633
v 0.086493 0.020124 0.007972
v 0.090683 0.018672 0.004633
v 0.089845 0.018189 0.007972
v 0.090683 0.013834 0.004633
v 0.089845 0.014318 0.007972
v 0.086493 0.011415 0.004633
v 0.086493 0.012383 0.007972
v 0.082303 0.013834 0.004633
v 0.083141 0.014318 0.007972
v 0.082303 0.018672 0.004633
v 0.083141 0.018189 0.007972
v 0.086494 -0.002909 0.004633
v 0.086494 -0.003876 0.007972
v 0.090684 -0.005328 0.004633
v 0.089846 -0.005811 0.007972
v 0.090684 -0.010166 0.004633
v 0.089846 -0.009682 0.007972
v 0.086494 -0.012585 0.004633
v 0.086494 -0.011617 0.007972
v 0.082304 -0.010166 0.004633
v 0.083141 -0.009682 0.007972
v 0.082304 -0.005328 0.004633
v 0.083141 -0.005811 0.007972
v -0.086506 -0.002908 0.004633
v -0.086507 -0.003876 0.007972
v -0.082316 -0.005328 0.004633
v -0.083155 -0.005811 0.007972
v -0.082316 -0.010166 0.004633
v -0.083155 -0.009682 0.007972
v -0.086506 -0.012585 0.004633
v -0.086507 -0.011617 0.007972
v -0.090696 -0.010166 0.004633
v -0.089859 -0.009682 0.007972
v -0.090696 -0.005328 0.004633
v -0.089859 -0.005811 0.007972
v -0.089823 -0.013975 0.004858
v -0.089823 -0.013975 0.000001
v -0.089828 0.022269 0.000001
v -0.089828 0.022269 0.004858
v 0.089823 0.022268 0.000003
v 0.089823 0.022268 0.004860
v 0.089824 -0.013976 0.004860
v 0.089824 -0.013976 0.000003
vn -0.0000 1.0000 -0.0000
vn -0.0000 -1.0000 -0.0000
vn -0.0000 -0.0000 1.0000
vn 1.0000 -0.0000 -0.0000
vn -1.0000 -0.0000 -0.0000
vn -0.0000 -0.0000 -1.0000
vn -0.0000 -0.0000 -0.0000
vn -0.4405 -0.0000 0.8977
vn -0.6230 -0.0000 0.7822
vn -0.8977 -0.0000 0.4405
vn 0.8977 -0.0000 0.4405
vn 0.6230 -0.0000 0.7822
vn 0.4405 -0.0000 0.8977
vn -0.0000 -0.8977 0.4405
vn -0.0000 -0.6230 0.7822
vn -0.0000 -0.4405 0.8977
vn -0.0000 0.4405 0.8977
vn -0.0000 0.6230 0.7822
vn -0.0000 0.8977 0.4405
vn -0.4890 0.4581 0.7423
vn -0.1602 0.5527 0.8178
vn -0.1801 0.5527 0.8137
vn -0.5696 0.4008 0.7175
vn 0.1908 -0.0000 -0.9816
vn 0.1903 -0.0000 -0.9817
vn -0.1903 -0.0000 -0.9817
vn -0.1907 -0.0000 -0.9816
vn 0.4890 0.4580 0.7424
vn 0.5696 0.4008 0.7176
vn 0.1801 0.5527 0.8137
vn 0.1602 0.5526 0.8179
vn 0.3902 -0.1533 0.9079
vn 0.4866 -0.4588 0.7434
vn 0.5687 -0.4010 0.7182
vn 0.3691 -0.1450 0.9180
vn -0.6579 -0.0000 -0.7531
vn -0.5212 -0.0000 -0.8534
vn -0.5209 -0.0000 -0.8536
vn 0.0392 -0.9992 -0.0000
vn 0.0302 -0.9995 -0.0000
vn -0.0302 -0.9995 -0.0000
vn -0.0392 -0.9992 -0.0000
vn 0.0505 -0.9987 -0.0000
vn 0.1323 -0.9912 -0.0000
vn -0.0814 -0.9967 -0.0000
vn -0.0755 -0.9971 -0.0000
vn 0.0755 -0.9971 -0.0000
vn 0.0814 -0.9967 -0.0000
vn -0.1324 -0.9912 -0.0000
vn -0.0505 -0.9987 -0.0000
vn 0.0334 0.9994 -0.0000
vn 0.0433 0.9991 -0.0000
vn -0.0433 0.9991 -0.0000
vn -0.0334 0.9994 -0.0000
vn -0.0838 0.9965 -0.0000
vn -0.0806 0.9967 -0.0000
vn 0.0806 0.9967 -0.0000
vn 0.0839 0.9965 -0.0000
vn 0.1784 -0.5528 0.8140
vn 0.1581 -0.5527 0.8183
vn -0.1582 -0.5526 0.8183
vn -0.1785 -0.5527 0.8140
vn 0.1324 0.9912 -0.0000
vn 0.0506 0.9987 -0.0000
vn -0.0505 0.9987 -0.0000
vn -0.1324 0.9912 -0.0000
vn 0.5212 -0.0000 -0.8534
vn 0.5210 -0.0000 -0.8536
vn -0.3903 0.1534 0.9078
vn -0.3690 0.1450 0.9180
vn -0.3692 -0.1451 0.9180
vn -0.5687 -0.4009 0.7182
vn -0.4867 -0.4587 0.7435
vn -0.3902 -0.1533 0.9079
vn 0.3691 0.1451 0.9180
vn 0.3902 0.1534 0.9079
vn 0.8700 0.4930 -0.0000
vn 0.9403 -0.3403 -0.0000
vn 0.6579 0.0001 -0.7531
vn 0.2490 0.9685 -0.0000
vn 0.2490 -0.9685 -0.0000
vn -0.2490 0.9685 -0.0000
vn -0.2490 -0.9685 -0.0000
vn 0.9649 0.2625 -0.0000
vn 0.9650 -0.2624 -0.0000
vn -0.4850 -0.8400 0.2435
vn -0.4850 0.8400 0.2433
vn 0.4850 0.8400 0.2435
vn 0.9699 -0.0000 0.2436
vn -0.9699 -0.0000 0.2433
vn 0.4849 -0.8399 0.2436
vn -0.9651 0.2620 -0.0000
vn -1.0000 -0.0004 -0.0000
vn -0.9648 -0.2629 -0.0000
vn -0.4930 -0.8700 -0.0000
vn -0.9403 -0.3403 -0.0000
vn -0.8700 0.4930 -0.0000
vn 0.8700 -0.4930 -0.0000
vn 0.1913 -0.9815 -0.0000
vn -0.4930 0.8700 -0.0000
vn -0.9403 0.3403 -0.0000
vn -0.8700 -0.4930 -0.0000
vn 0.1913 0.9815 -0.0000
vn 0.9997 0.0249 -0.0000
vn -0.4924 0.8704 -0.0000
vn 0.9997 -0.0249 -0.0000
vn -0.4924 -0.8704 -0.0000
vn 0.4930 0.8700 -0.0000
vn 0.9403 0.3403 -0.0000
vn -0.1913 0.9815 -0.0000
vn 0.4930 -0.8700 -0.0000
vn -0.1913 -0.9815 -0.0000
vn -0.9997 -0.0249 -0.0000
vn 0.4924 -0.8704 -0.0000
vn -0.9997 0.0249 -0.0000
vn 0.4924 0.8704 -0.0000
vn -0.4849 -0.8400 0.2435
vt 0.120669 0.345896
vt 0.120669 0.032563
vt 0.587335 0.032563
vt 0.587335 0.345896
vt 0.360668 0.632563
vt 0.827335 0.632563
vt 0.827335 0.945896
vt 0.360668 0.945896
vt 0.374008 0.345894
vt 0.374004 0.012561
vt 0.380672 0.012561
vt 0.380673 0.345893
vt -0.100001 0.143333
vt -0.100001 0.043333
vt -0.093334 0.043333
vt -0.093334 0.143333
vt -0.069901 -0.143329
vt -0.069899 -0.043329
vt -0.403232 -0.043329
vt -0.403234 -0.143329
vt 0.123234 0.143331
vt 0.123233 0.043331
vt 0.456567 0.043330
vt 0.456567 0.143330
vt -0.093331 -0.143333
vt -0.093333 -0.043333
vt -0.099999 -0.043333
vt -0.099999 -0.143333
vt 0.567329 0.612561
vt 0.573998 0.612563
vt 0.573997 0.945898
vt 0.567329 0.945896
vt 0.847335 0.345897
vt 0.847335 0.012563
vt 0.854002 0.012563
vt 0.854002 0.345897
vt 0.373333 0.143333
vt 0.373333 0.043333
vt 0.380000 0.043333
vt 0.380000 0.143333
vt -0.069901 -0.143328
vt -0.069899 -0.043328
vt -0.403232 -0.043328
vt -0.403234 -0.143328
vt 0.123234 0.143331
vt 0.123233 0.043332
vt 0.456567 0.043331
vt 0.456567 0.143331
vt 0.380000 -0.143333
vt 0.379999 -0.043333
vt 0.373333 -0.043333
vt 0.373332 -0.143333
vt 0.094002 0.612562
vt 0.100669 0.612562
vt 0.100671 0.945899
vt 0.094003 0.945898
vt 0.610628 0.852554
vt 0.610629 0.845886
vt 1.117337 0.845897
vt 1.117337 0.852564
vt -0.153246 0.343338
vt -0.153243 0.470004
vt -0.159910 0.470004
vt -0.159912 0.343337
vt 0.366568 0.656665
vt 0.366568 0.529999
vt 0.373234 0.529999
vt 0.373235 0.656665
vt 0.643333 0.343334
vt 0.643334 0.470000
vt 0.136671 0.469997
vt 0.136669 0.343331
vt 0.330672 1.445908
vt 0.837312 1.445852
vt 0.837312 1.452519
vt 0.330672 1.452574
vt 0.380619 0.032540
vt 0.380620 0.025873
vt 0.847324 0.025884
vt 0.847325 0.032551
vt -0.093341 0.143330
vt -0.093340 0.043331
vt 0.373335 0.043333
vt 0.373335 0.143333
vt -0.083246 -0.143325
vt -0.083244 -0.043325
vt -0.089910 -0.043325
vt -0.089913 -0.143325
vt 0.436566 0.143336
vt 0.436566 0.043337
vt 0.443233 0.043337
vt 0.443233 0.143336
vt 0.373333 -0.143333
vt 0.373334 -0.043333
vt -0.093330 -0.043336
vt -0.093331 -0.143335
vt 0.100673 0.625893
vt 0.567310 0.625847
vt 0.567310 0.632514
vt 0.100674 0.632560
vt 0.754401 0.553751
vt 1.236784 0.553751
vt 1.236784 0.627249
vt 0.754404 0.627249
vt 1.042423 0.526754
vt 1.042423 0.627249
vt 0.747705 0.520053
vt 0.747705 0.633948
vt 0.741006 0.640648
vt 0.741006 0.513353
vt 1.236782 0.526753
vt 1.236782 0.627249
vt 0.754404 0.526753
vt 1.243446 0.633950
vt 1.243446 0.520054
vt 1.250143 0.513353
vt 1.250143 0.640647
vt 1.243482 0.520053
vt 0.747710 0.520053
vt 0.741011 0.513353
vt 1.250182 0.513353
vt 1.243483 0.633948
vt 1.250183 0.640648
vt 0.747705 0.520053
vt 0.752197 0.524547
vt 0.752197 0.629454
vt 0.752197 0.524547
vt 0.754404 0.526753
vt 1.044628 0.524549
vt 1.044628 0.629455
vt 1.192223 0.629454
vt 1.192222 0.524546
vt 1.196714 0.520051
vt 1.196716 0.633945
vt 0.752195 0.551546
vt 1.238990 0.551546
vt 1.239000 0.531048
vt 0.752210 0.531047
vt 0.747718 0.526553
vt 1.243496 0.526553
vt 1.243486 0.633948
vt 1.238990 0.629454
vt 1.238989 0.629454
vt 0.761821 0.199509
vt 0.757722 0.227393
vt 0.744546 0.228267
vt 0.751039 0.195161
vt 0.860639 0.197541
vt 0.882774 0.197541
vt 0.882774 0.249555
vt 0.860639 0.249555
vt 0.768927 0.306466
vt 0.758812 0.312202
vt 0.747997 0.280245
vt 0.761176 0.279370
vt 0.783971 0.331384
vt 0.780543 0.306053
vt 0.790569 0.327619
vt 0.864040 0.301471
vt 0.862476 0.277702
vt 0.880743 0.277702
vt 0.879180 0.301471
vt 0.834241 0.291614
vt 0.829363 0.291614
vt 0.829365 0.239601
vt 0.834243 0.239600
vt 0.855761 0.195561
vt 0.860638 0.195561
vt 0.845002 0.213526
vt 0.840124 0.213526
vt 0.840123 0.317688
vt 0.845001 0.317688
vt 0.860638 0.335658
vt 0.855761 0.335658
vt 0.798088 0.239618
vt 0.802965 0.239618
vt 0.802967 0.291632
vt 0.798089 0.291632
vt 0.813726 0.317720
vt 0.808848 0.317720
vt 0.808847 0.213530
vt 0.813725 0.213530
vt 0.774354 0.278497
vt 0.770904 0.226516
vt 0.829363 0.335690
vt 0.824485 0.335690
vt 0.824485 0.195561
vt 0.829363 0.195561
vt 0.862476 0.169394
vt 0.880743 0.169394
vt 0.773438 0.172817
vt 0.766550 0.169616
vt 0.780478 0.175680
vt 0.773394 0.198382
vt 0.777566 0.335467
vt 0.780583 0.345291
vt 0.789193 0.340037
vt 0.789149 0.350067
vt 0.797855 0.334868
vt 0.798088 0.344674
vt 0.792016 0.169957
vt 0.790301 0.154266
vt 0.795575 0.156695
vt 0.798088 0.161354
vt 0.796641 0.166447
vt 0.860639 0.374271
vt 0.855761 0.374271
vt 0.855761 0.368416
vt 0.860639 0.368416
vt 0.879181 0.145625
vt 0.864041 0.145629
vt 0.829363 0.346059
vt 0.824485 0.346059
vt 0.855761 0.185192
vt 0.860638 0.185192
vt 0.768241 0.159476
vt 0.777470 0.163547
vt 0.786742 0.167529
vt 0.824485 0.185192
vt 0.829363 0.185192
vt 0.860638 0.346027
vt 0.855761 0.346027
vt 0.824486 0.145625
vt 0.829363 0.145625
vt 0.829363 0.151092
vt 0.824486 0.151092
vt 0.785676 0.157777
vt 0.776103 0.153606
vt 0.781453 0.154396
vt 0.794348 0.348580
vt 0.855761 0.380127
vt 0.860639 0.380127
vt 0.860639 0.385593
vt 0.855761 0.385593
vt 0.944521 0.267653
vt 0.944584 0.267578
vt 0.944630 0.267630
vt 0.944580 0.267690
vt 0.944538 0.267838
vt 0.944468 0.267838
vt 0.944482 0.267742
vt 0.944549 0.267761
vt 0.944765 0.268136
vt 0.944765 0.268214
vt 0.944698 0.268253
vt 0.944630 0.268214
vt 0.944630 0.268136
vt 0.944698 0.268097
vt 0.944482 0.267934
vt 0.944549 0.267915
vt 0.944521 0.268023
vt 0.944580 0.267986
vt 0.944584 0.268097
vt 0.944630 0.268045
vt 0.944683 0.267134
vt 0.944746 0.267059
vt 0.944793 0.267111
vt 0.944743 0.267171
vt 0.944700 0.267319
vt 0.944630 0.267319
vt 0.944644 0.267223
vt 0.944711 0.267242
vt 0.944765 0.266890
vt 0.944765 0.266968
vt 0.944698 0.267007
vt 0.944630 0.266968
vt 0.944630 0.266890
vt 0.944698 0.266852
vt 0.944644 0.267415
vt 0.944711 0.267396
vt 0.944683 0.267504
vt 0.944743 0.267467
vt 0.944746 0.267578
vt 0.944793 0.267526
vt 0.829362 0.380159
vt 0.829363 0.385625
vt 0.824484 0.385625
vt 0.824484 0.380159
vt 0.855760 0.151092
vt 0.855760 0.145625
vt 0.860639 0.145625
vt 0.860638 0.151092
vt 0.855760 0.168142
vt 0.855760 0.162803
vt 0.860638 0.162803
vt 0.860638 0.168142
vt 0.855760 0.156948
vt 0.860638 0.156948
vt 0.860638 0.179337
vt 0.855761 0.179337
vt 0.855760 0.173481
vt 0.860638 0.173481
vt 0.829362 0.363109
vt 0.829362 0.368448
vt 0.824485 0.368448
vt 0.824485 0.363109
vt 0.775518 0.147828
vt 0.762868 0.157273
vt 0.762282 0.151496
vt 0.765022 0.146964
vt 0.770144 0.145625
vt 0.829362 0.374303
vt 0.824484 0.374303
vt 0.824485 0.351914
vt 0.829363 0.351914
vt 0.829362 0.357770
vt 0.824485 0.357770
vt 0.824485 0.168142
vt 0.824485 0.162803
vt 0.829363 0.162803
vt 0.829363 0.168142
vt 0.882774 0.286290
vt 0.896424 0.278100
vt 0.896424 0.283956
vt 0.893216 0.288223
vt 0.887941 0.289046
vt 0.824485 0.156947
vt 0.829363 0.156947
vt 0.829363 0.179336
vt 0.824485 0.179336
vt 0.824485 0.173481
vt 0.829363 0.173481
vt 0.860639 0.363077
vt 0.855761 0.363077
vt 0.882774 0.291802
vt 0.896424 0.299992
vt 0.891258 0.302747
vt 0.885982 0.301924
vt 0.882774 0.297657
vt 0.855761 0.351882
vt 0.860638 0.351882
vt 0.860639 0.357738
vt 0.855761 0.357738
vt 0.882774 0.280435
vt 0.891258 0.275345
vt 0.896424 0.294136
vt 0.944584 0.268616
vt 0.944521 0.268542
vt 0.944580 0.268505
vt 0.944630 0.268564
vt 0.944549 0.268280
vt 0.944482 0.268260
vt 0.944521 0.268172
vt 0.944580 0.268209
vt 0.944482 0.268453
vt 0.944549 0.268434
vt 0.944468 0.268357
vt 0.944538 0.268357
vt 0.944630 0.266657
vt 0.944630 0.266579
vt 0.944698 0.266541
vt 0.944765 0.266579
vt 0.944765 0.266657
vt 0.944698 0.266696
vt 0.944630 0.268149
vt 0.944521 0.267134
vt 0.944584 0.267059
vt 0.944630 0.267111
vt 0.944580 0.267171
vt 0.944538 0.267319
vt 0.944468 0.267319
vt 0.944482 0.267223
vt 0.944549 0.267242
vt 0.944765 0.267981
vt 0.944765 0.268058
vt 0.944630 0.268058
vt 0.944630 0.267981
vt 0.944698 0.267942
vt 0.944482 0.267415
vt 0.944549 0.267396
vt 0.944521 0.267504
vt 0.944580 0.267467
vt 0.944630 0.267526
vt 0.944521 0.266615
vt 0.944584 0.266541
vt 0.944630 0.266592
vt 0.944580 0.266652
vt 0.944538 0.266800
vt 0.944468 0.266800
vt 0.944482 0.266704
vt 0.944549 0.266723
vt 0.944765 0.266735
vt 0.944765 0.266813
vt 0.944630 0.266813
vt 0.944630 0.266735
vt 0.944482 0.266896
vt 0.944549 0.266877
vt 0.944521 0.266985
vt 0.944580 0.266948
vt 0.944630 0.267008
vt 0.944521 0.268690
vt 0.944630 0.268668
vt 0.944580 0.268728
vt 0.944538 0.268876
vt 0.944468 0.268876
vt 0.944482 0.268779
vt 0.944549 0.268799
vt 0.944765 0.267617
vt 0.944765 0.267695
vt 0.944698 0.267734
vt 0.944630 0.267695
vt 0.944630 0.267617
vt 0.944698 0.267578
vt 0.944482 0.268972
vt 0.944549 0.268952
vt 0.944521 0.269061
vt 0.944580 0.269024
vt 0.944584 0.269135
vt 0.944630 0.269083
s 1
usemtl wood_5
f 62/171/19 64/172/19 60/173/19 58/174/19
f 59/175/20 63/176/20 61/177/20 57/178/20
f 70/179/19 72/180/19 68/181/19 66/182/19
f 69/183/21 70/184/21 66/185/21 65/186/21
f 71/187/22 72/188/22 70/189/22 69/190/22
f 65/191/23 66/192/23 68/193/23 67/194/23
f 67/195/24 68/196/24 72/197/24 71/198/24
f 67/199/20 71/200/20 69/201/20 65/202/20
f 78/203/19 80/204/19 76/205/19 74/206/19
f 77/207/21 78/208/21 74/209/21 73/210/21
f 79/211/22 80/212/22 78/213/22 77/214/22
f 73/215/23 74/216/23 76/217/23 75/218/23
f 75/219/24 76/220/24 80/221/24 79/222/24
f 75/223/20 79/224/20 77/225/20 73/226/20
f 95/227/19 84/228/19 82/229/19 93/230/19
f 83/231/22 84/232/22 95/233/22 96/234/22
f 94/235/23 93/236/23 82/237/23 81/238/23
f 81/239/24 82/240/24 84/241/24 83/242/24
f 81/243/20 83/244/20 96/245/20 94/246/20
f 90/247/19 92/248/19 88/249/19 86/250/19
f 89/251/21 90/252/21 86/253/21 85/254/21
f 91/255/22 92/256/22 90/257/22 89/258/22
f 85/259/23 86/260/23 88/261/23 87/262/23
f 87/263/24 88/264/24 92/265/24 91/266/24
f 87/267/20 91/268/20 89/269/20 85/270/20
f 105/271/19 110/272/19 100/272/19 98/271/19
f 108/273/19 101/274/19 97/274/19 99/273/19
f 110/275/25 108/276/25 99/276/25 100/275/25
f 104/277/21 102/278/21 93/279/21 94/280/21
f 100/281/21 99/282/21 97/274/21 98/283/21
f 107/284/21 111/285/21 96/286/21 95/287/21
f 111/288/21 104/289/21 94/290/21 96/291/21
f 102/278/21 107/292/21 95/293/21 93/279/21
f 102/278/26 104/294/26 106/295/27 103/296/27
f 103/296/27 106/297/27 105/298/28 101/274/28
f 108/276/29 110/275/29 112/299/30 109/300/30
f 109/301/30 112/302/30 111/303/31 107/304/31
f 110/272/32 105/271/32 106/305/33 112/306/33
f 112/307/33 106/308/33 104/309/34 111/310/34
f 107/311/35 102/278/35 103/296/36 109/312/36
f 109/313/36 103/296/36 101/274/37 108/273/37
f 101/274/25 105/298/25 98/298/25 97/274/25
usemtl metal_6
f 137/314/38 138/315/39 114/316/40 113/317/41
f 129/318/42 126/319/43 132/320/44 135/321/45
f 140/322/46 119/323/47 120/324/48 141/325/49
f 142/326/50 140/322/51 122/327/52 124/328/53
f 136/329/54 134/330/55 131/331/56 133/332/54
f 135/333/57 123/334/58 117/335/59 129/336/60
f 118/337/61 130/338/62 128/339/63 116/340/64
f 122/341/65 134/342/66 136/343/67 124/344/68
f 116/340/64 128/339/63 129/336/60 117/335/59
f 123/334/58 135/333/57 134/342/66 122/341/65
f 120/345/69 132/346/70 126/347/71 114/348/72
f 114/348/72 126/347/71 125/349/73 113/350/74
f 119/351/75 131/352/76 132/346/70 120/345/69
f 123/353/77 141/325/78 138/315/79 117/354/80
f 113/350/74 125/349/73 127/355/81 115/356/82
f 121/357/83 133/358/84 131/352/76 119/351/75
f 134/330/55 135/321/45 132/320/44 131/331/56
f 128/359/85 125/360/86 126/319/43 129/318/42
f 139/361/87 137/314/38 113/317/41 115/362/88
f 118/363/89 116/364/90 137/314/91 139/361/92
f 116/364/90 117/354/80 138/315/79 137/314/91
f 121/365/93 119/323/47 140/322/46 142/326/94
f 122/327/52 140/322/51 141/325/78 123/353/77
f 202/366/21 156/367/21 203/368/21
f 154/369/21 147/370/21 156/367/21
f 194/371/21 193/372/21 185/373/21 269/374/21 187/375/21
f 218/376/95 217/377/95 210/378/96 209/379/96
f 127/380/97 125/360/86 128/359/85 130/381/97
f 127/355/81 153/382/98 151/383/98 115/356/82
f 118/337/61 149/384/99 152/385/99 130/338/62
f 115/362/88 151/386/21 150/387/21 139/361/87
f 139/361/92 150/387/21 149/388/21 118/363/89
f 142/326/94 156/367/21 202/366/21 121/365/93
f 124/328/53 154/369/21 156/367/21 142/326/50
f 121/357/83 202/389/100 204/390/100 133/358/84
f 136/343/67 155/391/101 154/392/101 124/344/68
f 159/393/22 158/394/22 201/395/102 203/396/102
f 149/388/21 150/387/21 144/397/21
f 151/386/21 143/398/21 150/387/21
f 157/399/21 144/397/21 150/387/21
f 156/367/21 147/370/21 159/400/21
f 147/401/103 148/402/103 158/403/22 159/404/22
f 203/368/21 156/367/21 159/400/21
f 143/398/21 157/399/21 150/387/21
f 141/325/49 120/324/48 114/316/40 138/315/39
f 168/405/104 166/406/104 167/407/104 169/408/104
f 161/409/105 160/410/105 170/411/105 171/412/105
f 165/413/21 163/414/21 161/415/21 171/416/21 169/417/21 167/418/21
f 162/419/106 160/410/106 161/409/106 163/420/106
f 164/421/107 162/419/107 163/420/107 165/422/107
f 171/412/108 170/411/108 168/405/108 169/408/108
f 166/423/109 164/421/109 165/422/109 167/424/109
f 180/425/104 178/426/104 179/427/104 181/428/104
f 173/429/105 172/430/105 182/431/105 183/432/105
f 177/433/21 175/434/21 173/435/21 183/436/21 181/437/21 179/438/21
f 174/439/106 172/430/106 173/429/106 175/440/106
f 176/441/107 174/439/107 175/440/107 177/442/107
f 183/432/108 182/431/108 180/425/108 181/428/108
f 178/443/109 176/441/109 177/442/109 179/444/109
f 145/445/110 184/446/111 157/447/111 143/448/110
f 144/449/112 157/450/111 184/451/111 146/452/112
f 269/453/113 185/454/114 186/455/114 270/456/113
f 193/457/115 196/458/115 186/455/114 185/454/114
f 195/459/116 194/460/116 187/461/117 188/462/117
f 271/463/118 190/464/119 189/465/119 272/466/118
f 200/467/21 199/468/21 192/469/21 272/470/21 189/471/21
f 197/472/120 200/473/120 189/465/119 190/464/119
f 199/474/95 198/475/95 191/476/121 192/477/121
f 152/385/122 149/384/122 194/460/116 195/459/116
f 144/449/123 146/452/123 196/458/115 193/457/115
f 149/388/21 144/397/21 193/372/21 194/371/21
f 151/383/124 153/382/124 198/475/95 199/474/95
f 145/445/125 143/448/125 200/473/120 197/472/120
f 143/398/21 151/386/21 199/468/21 200/467/21
f 274/478/126 206/479/127 205/480/127 273/481/126
f 216/482/21 215/483/21 206/484/21 274/485/21 208/486/21
f 215/487/116 214/488/116 205/480/127 206/479/127
f 213/489/115 216/490/115 208/491/128 207/492/128
f 276/493/129 209/379/96 210/378/96 275/494/129
f 217/495/21 219/496/21 211/497/21 275/498/21 210/499/21
f 219/500/120 220/501/120 212/502/130 211/503/130
f 204/390/131 202/389/131 216/490/115 213/489/115
f 203/396/132 201/395/132 214/488/116 215/487/116
f 202/504/21 203/505/21 215/483/21 216/482/21
f 154/392/133 155/391/133 220/501/120 219/500/120
f 147/486/21 154/506/21 219/496/21 217/495/21
f 148/402/134 147/401/134 217/377/95 218/376/95
f 226/507/109 228/508/109 227/509/109 225/510/109
f 221/511/108 222/512/108 224/513/108 223/514/108
f 228/508/107 230/515/107 229/516/107 227/509/107
f 230/515/106 232/517/106 231/518/106 229/516/106
f 227/519/21 229/520/21 231/521/21 221/522/21 223/523/21 225/524/21
f 231/518/105 232/517/105 222/512/105 221/511/105
f 224/513/104 226/423/104 225/525/104 223/514/104
f 241/526/135 239/527/135 240/528/135 242/529/135
f 234/530/105 233/531/105 243/532/105 244/533/105
f 238/534/21 236/535/21 234/418/21 244/536/21 242/537/21 240/538/21
f 235/539/106 233/531/106 234/530/106 236/540/106
f 237/541/107 235/539/107 236/540/107 238/542/107
f 244/533/108 243/532/108 241/526/108 242/529/108
f 239/406/109 237/541/109 238/542/109 240/543/109
f 253/544/135 251/545/135 252/546/135 254/547/135
f 246/548/105 245/549/105 255/550/105 256/551/105
f 250/552/21 248/553/21 246/438/21 256/554/21 254/555/21 252/524/21
f 247/556/106 245/549/106 246/548/106 248/557/106
f 249/558/107 247/556/107 248/557/107 250/559/107
f 256/551/108 255/550/108 253/544/108 254/547/108
f 251/527/109 249/558/109 250/559/109 252/560/109
f 265/561/104 263/507/104 264/562/104 266/563/104
f 258/564/105 257/565/105 267/566/105 268/567/105
f 262/568/21 260/569/21 258/570/21 268/571/21 266/572/21 264/573/21
f 259/574/106 257/565/106 258/564/106 260/575/106
f 261/576/107 259/574/107 260/575/107 262/577/107
f 268/567/108 267/566/108 265/561/108 266/563/108
f 263/578/109 261/576/109 262/577/109 264/579/109
f 191/476/121 271/463/118 272/466/118 192/477/121
f 187/461/117 269/453/113 270/456/113 188/462/117
f 208/491/128 274/478/126 273/481/126 207/492/128
f 212/502/130 276/493/129 275/494/129 211/503/130
