# Blender 5.0.1
# www.blender.org
mtllib tv_table_1.mtl
o tv_table_1
v 0.770000 0.700000 -0.300000
v -0.770000 0.700000 -0.300000
v -0.740000 0.700000 -0.270000
v -0.770000 0.700000 0.180000
v -0.740000 0.700000 0.180000
v 0.740000 0.700000 -0.270000
v 0.740000 0.700000 0.180000
v 0.770000 0.700000 0.180000
v -0.770000 -0.000000 -0.300000
v 0.740000 -0.000000 -0.270000
v 0.770000 -0.000000 -0.300000
v 0.740000 -0.000000 0.180000
v 0.770000 -0.000000 0.180000
v -0.740000 0.000000 -0.270000
v -0.770000 -0.000000 0.180000
v -0.740000 -0.000000 0.180000
v -0.740000 0.100000 0.160000
v -0.740000 0.130000 0.160000
v -0.740000 0.100000 -0.270000
v -0.740000 0.130000 -0.270000
v 0.740000 0.100000 0.160000
v 0.740000 0.130000 0.160000
v 0.740000 0.100000 -0.270000
v 0.740000 0.130000 -0.270000
v -0.740000 0.400000 0.160000
v -0.740000 0.430000 0.160000
v -0.740000 0.400000 -0.270000
v -0.740000 0.430000 -0.270000
v 0.740000 0.400000 0.160000
v 0.740000 0.430000 0.160000
v 0.740000 0.400000 -0.270000
v 0.740000 0.430000 -0.270000
v -0.810002 0.700000 0.220145
v -0.820002 0.740000 0.230145
v -0.810003 0.700000 -0.299855
v -0.820002 0.740000 -0.309855
v 0.809999 0.700000 0.220145
v 0.819999 0.740000 0.230145
v 0.809999 0.700000 -0.299855
v 0.819998 0.740000 -0.309855
v -0.820002 0.720000 0.230145
v 0.819999 0.720000 0.230145
v 0.819999 0.720000 -0.309855
v -0.820002 0.720000 -0.309855
v -0.810002 0.710000 0.220145
v 0.809999 0.710000 0.220145
v 0.809999 0.710000 -0.299855
v -0.810002 0.710000 -0.299855
vn -0.0000 -1.0000 -0.0000
vn -0.0000 -0.0000 -1.0000
vn -0.0000 -0.0000 1.0000
vn 1.0000 -0.0000 -0.0000
vn -1.0000 -0.0000 -0.0000
vn -0.0000 1.0000 -0.0000
vn -0.7071 -0.0000 -0.7071
vn -0.0000 -0.7071 -0.7071
vn -0.7071 -0.7071 -0.0000
vn 0.7071 -0.7071 -0.0000
vn -0.0000 -0.7071 0.7071
vt -0.013332 0.300000
vt 1.013334 0.300000
vt 0.993334 0.320000
vt 0.006668 0.320000
vt 1.013335 0.620000
vt 0.993334 0.620000
vt -0.013332 0.250000
vt -0.013332 0.716667
vt 1.013334 0.716667
vt 1.013334 0.250000
vt 0.993334 0.250000
vt 0.993334 0.716667
vt 0.006668 0.716667
vt 0.006668 0.250000
vt 0.250000 0.320000
vt 0.716667 0.320000
vt 0.716667 0.620000
vt 0.250000 0.620000
vt 0.716667 0.620000
vt 0.716667 0.300000
vt 0.250000 0.300000
vt 0.716667 0.300000
vt 0.006668 0.620000
vt -0.013332 0.620000
vt 0.993335 0.606667
vt 0.993335 0.320000
vt 0.006668 0.320000
vt 0.006668 0.606667
vt 0.993335 0.316667
vt 0.993335 0.336667
vt 0.006668 0.336667
vt 0.006668 0.316667
vt 0.316667 0.320000
vt 0.336667 0.320000
vt 0.336667 0.606667
vt 0.316667 0.606667
vt 0.006668 0.316667
vt 0.006668 0.336667
vt 0.993335 0.336667
vt 0.993335 0.316667
vt 0.993335 0.516667
vt 0.993335 0.536667
vt 0.006668 0.536667
vt 0.006668 0.516667
vt 0.516667 0.320000
vt 0.536667 0.320000
vt 0.536667 0.606667
vt 0.516667 0.606667
vt 0.516667 0.606667
vt 0.993335 0.606667
vt 0.733335 -0.010000
vt 0.266668 -0.010000
vt 0.266668 -0.030000
vt 0.733335 -0.030000
vt 0.733335 0.996667
vt 0.266668 0.996667
vt 0.266668 0.976666
vt 0.733335 0.976666
vt 1.421875 0.523438
vt 1.421875 0.160156
vt 0.328125 0.160156
vt 0.328125 0.523438
vt 1.421875 0.605469
vt 1.421875 0.617188
vt 0.328125 0.617188
vt 0.328125 0.605469
vt 1.318375 0.376968
vt 1.318375 0.388687
vt 0.955094 0.388687
vt 0.955094 0.376968
vt 0.335938 0.167969
vt 1.414062 0.167969
vt 1.414062 0.515625
vt 0.335938 0.515625
vt 0.335938 0.597656
vt 1.414062 0.597656
vt 0.962906 0.369156
vt 1.310563 0.369156
vt 1.414062 0.589844
vt 0.335938 0.589844
vt 1.310563 0.361343
vt 0.962906 0.361343
s 1
usemtl wood_1
f 9/1/1 11/2/1 10/3/1 14/4/1
f 11/2/1 13/5/1 12/6/1 10/3/1
f 9/7/2 2/8/2 1/9/2 11/10/2
f 10/11/3 6/12/3 3/13/3 14/14/3
f 14/15/4 3/16/4 5/17/4 16/18/4
f 15/18/5 4/19/5 2/20/5 9/21/5
f 11/21/4 1/22/4 8/17/4 13/18/4
f 12/18/5 7/17/5 6/16/5 10/15/5
f 16/23/1 15/24/1 9/1/1 14/4/1
f 22/25/6 24/26/6 20/27/6 18/28/6
f 21/29/3 22/30/3 18/31/3 17/32/3
f 23/33/4 24/34/4 22/35/4 21/36/4
f 17/36/5 18/35/5 20/34/5 19/33/5
f 19/37/2 20/38/2 24/39/2 23/40/2
f 19/27/1 23/26/1 21/25/1 17/28/1
f 30/25/6 32/26/6 28/27/6 26/28/6
f 29/41/3 30/42/3 26/43/3 25/44/3
f 31/45/4 32/46/4 30/47/4 29/48/4
f 25/49/5 26/47/5 28/46/5 27/45/5
f 27/44/2 28/43/2 32/42/2 31/41/2
f 27/27/1 31/26/1 29/50/1 25/28/1
f 16/51/3 5/52/3 4/53/3 15/54/3
f 11/21/7 10/15/7 6/16/7 1/22/7
f 13/55/3 8/56/3 7/57/3 12/58/3
f 38/59/6 40/60/6 36/61/6 34/62/6
f 42/63/3 38/64/3 34/65/3 41/66/3
f 43/67/4 40/68/4 38/69/4 42/70/4
f 41/70/5 34/69/5 36/68/5 44/67/5
f 35/71/1 39/72/1 37/73/1 33/74/1
f 48/75/8 44/66/8 43/63/8 47/76/8
f 45/77/9 41/70/9 44/67/9 48/78/9
f 47/78/10 43/67/10 42/70/10 46/77/10
f 46/76/11 42/63/11 41/66/11 45/75/11
f 37/79/3 46/76/3 45/75/3 33/80/3
f 39/81/4 47/78/4 46/77/4 37/82/4
f 33/82/5 45/77/5 48/78/5 35/81/5
f 35/80/2 48/75/2 47/76/2 39/79/2
f 44/66/2 36/65/2 40/64/2 43/63/2
